<?xml version="1.0" encoding="UTF-8" standalone="no"?>
<svg
   xmlns:dc="http://purl.org/dc/elements/1.1/"
   xmlns:cc="http://creativecommons.org/ns#"
   xmlns:rdf="http://www.w3.org/1999/02/22-rdf-syntax-ns#"
   xmlns:svg="http://www.w3.org/2000/svg"
   xmlns="http://www.w3.org/2000/svg"
   xmlns:sodipodi="http://sodipodi.sourceforge.net/DTD/sodipodi-0.dtd"
   xmlns:inkscape="http://www.inkscape.org/namespaces/inkscape"
   viewBox="0 0 1338.3663 1197.9253"
   height="1197.9253"
   width="1338.3663"
   xml:space="preserve"
   version="1.1"
   id="svg2"
   sodipodi:docname="002.svg"
   inkscape:version="0.92.0 r15299"><sodipodi:namedview
     pagecolor="#ffffff"
     bordercolor="#666666"
     borderopacity="1"
     objecttolerance="10"
     gridtolerance="10"
     guidetolerance="10"
     inkscape:pageopacity="0"
     inkscape:pageshadow="2"
     inkscape:window-width="1468"
     inkscape:window-height="965"
     id="namedview3807"
     showgrid="false"
     inkscape:zoom="0.14195489"
     inkscape:cx="682.11382"
     inkscape:cy="624.92446"
     inkscape:window-x="0"
     inkscape:window-y="0"
     inkscape:window-maximized="0"
     inkscape:current-layer="svg2" /><metadata
     id="metadata8"><rdf:RDF><cc:Work
         rdf:about=""><dc:format>image/svg+xml</dc:format><dc:type
           rdf:resource="http://purl.org/dc/dcmitype/StillImage" /></cc:Work></rdf:RDF></metadata><defs
     id="defs6"><clipPath
       id="clipPath48"
       clipPathUnits="userSpaceOnUse"><path
         id="path50"
         d="m 3263.43,8273.84 c 0,-360.61 292.34,-652.95 652.94,-652.95 v 0 c 360.61,0 652.95,292.34 652.95,652.95 v 0 c 0,360.62 -292.34,652.94 -652.95,652.94 v 0 c -360.6,0 -652.94,-292.32 -652.94,-652.94 m 2383.66,599.69 c -226.87,-9.46 -158.8,-1090.86 49.16,-1081.41 v 0 c 235.06,10.68 174.44,1081.37 -46.3,1081.47 v 0 c -0.96,0 -1.89,-0.02 -2.86,-0.06"
         inkscape:connector-curvature="0" /></clipPath><clipPath
       id="clipPath94"
       clipPathUnits="userSpaceOnUse"><path
         id="path96"
         d="m 10461.8,7718.08 c -251.1,-157.9 383.9,-1058.43 636.9,-888.44 v 0 c 213.1,143.15 -241.5,913.35 -549.1,913.37 v 0 c -31,0 -60.6,-7.83 -87.8,-24.93 M 8915.78,6948.63 c -525.13,-371.65 241.06,-1416.47 811.1,-1042.87 v 0 c 417.32,273.54 -65.94,1125.29 -560.34,1125.18 v 0 c -84.72,-0.02 -169.87,-25.06 -250.76,-82.31"
         inkscape:connector-curvature="0" /></clipPath></defs><g
     transform="matrix(1.1222692,0,0,-1.1222692,-69.136297,1319.1675)"
     id="g10"><g
       transform="scale(0.1)"
       id="g12"><path
         id="path16"
         style="fill:#6c476f;fill-opacity:1;fill-rule:nonzero;stroke:none"
         d="m 6731.05,3590.88 -114.48,1916.46 -1109.3,636.19 -2422.25,-630.9 281.62,-1651.85 1.41,-8.29 54.22,-317.98 562.85,-608.3 115.42,27.94 1119.17,270.9 869.29,210.42"
         inkscape:connector-curvature="0" /><path
         id="path18"
         style="fill:#553758;fill-opacity:1;fill-rule:nonzero;stroke:none"
         d="m 3168.85,5020.9 -17.18,100.77 678.96,-753.94 2815.03,652.86 2.91,-48.78 -2808.96,-687.93 145.5,-1357.67 -562.85,608.3"
         inkscape:connector-curvature="0" /><path
         id="path20"
         style="fill:#aa79ad;fill-opacity:1;fill-rule:nonzero;stroke:none"
         d="m 5507.27,6143.52 -2422.25,-630.89 695.52,-677.49 2836.03,672.2"
         inkscape:connector-curvature="0" /><path
         id="path22"
         style="fill:#ffc102;fill-opacity:1;fill-rule:nonzero;stroke:none"
         d="m 5868.7,4347.36 c -82.75,301.77 -441.61,234.74 -574.36,8.33 -378.2,251.23 -724.92,-244.07 -509.54,-501.03 129.59,-154.6 394.69,-316.21 582.07,-423.03 273.81,293.76 587.29,604.16 501.83,915.73"
         inkscape:connector-curvature="0" /><path
         id="path24"
         style="fill:#ffda03;fill-opacity:1;fill-rule:nonzero;stroke:none"
         d="m 5294.34,4355.69 c -21.08,14 -42.05,25.56 -62.84,35.1 l -465.77,-510.55 c 5.8,-8.75 12.14,-17.29 19.07,-25.58 72.3,-86.26 186.8,-174.68 306.41,-254.57 l 771.95,764.86 c -91.8,281.16 -438.75,212.58 -568.82,-9.26"
         inkscape:connector-curvature="0" /><path
         id="path26"
         style="fill:#ffc102;fill-opacity:1;fill-rule:nonzero;stroke:none"
         d="m 4340.64,5335.6 1761.07,467.02 -236.94,135.88 -1721.42,-431.93 -249.96,216.59 -279.58,-72.8 215.89,-222.49 -522.95,-131.23 73.33,-507.84 189.44,-208.14 -72.96,531.09 508.91,134.96 282.62,-291.27 58.93,-467.96 395.33,91.68 -68.53,467.71"
         inkscape:connector-curvature="0" /><path
         id="path28"
         style="fill:#ffda03;fill-opacity:1;fill-rule:nonzero;stroke:none"
         d="m 3540.16,5355.21 -233.4,-58.57 189.81,-184.89 227.64,60.36 c -62.14,60.21 -123.14,121.64 -184.05,183.1"
         inkscape:connector-curvature="0" /><path
         id="path30"
         style="fill:#ffda03;fill-opacity:1;fill-rule:nonzero;stroke:none"
         d="m 4340.64,5335.6 1286.14,341.06 -605.38,50.23 -878.05,-220.32 -249.96,216.59 -279.58,-72.8 215.89,-222.49 175.77,-181.16 282.62,-291.27 385.73,91.43"
         inkscape:connector-curvature="0" /><path
         id="path32"
         style="fill:#ded5ce;fill-opacity:1;fill-rule:nonzero;stroke:none"
         d="m 6342.89,10015.3 c -467.23,47.7 -663.68,146 -1157.45,337.1 -493.78,191.2 -613.23,10.6 -849.49,-260.1 -568.11,42.4 -1011.45,-26.6 -1011.45,-26.6 l -90.25,183.2 c -90.27,183.2 -265.47,292 -602.62,90.2 -337.15,-201.7 -787.88,-466.99 -1106.28,-632.4 -318.41,-165.41 -407.87,-370.86 -268.8,-632.7 388.71,-731.91 908.24,-1121.73 908.24,-1121.73 621.8,-970.64 1266.98,-1401.52 1266.98,-1401.52 -19.75,-166.5 -22.27,-135.75 -395.31,-705.68 -373.03,-569.91 -331.58,-1492.14 148.67,-1878 329.01,-264.36 569.98,-153.37 611.72,38.79 33.7,155.12 5.44,349.48 -190.83,616.8 106.96,101.14 94.69,250.23 -1.22,295.36 -72.87,34.3 -200.51,5.64 -239.69,-4.48 -185.59,224 -230.38,307.53 -230.38,307.53 l -49.71,291.56 1601.34,417.05 c 0,0 451.3,-169.88 868.09,-146 416.78,23.89 886.66,265.48 1011.43,753.93 124.76,488.48 -169.9,854.82 -416.78,1149.5 -246.89,294.66 -254.85,225.64 -278.74,618.55 -23.9,392.88 -61.06,1056.55 -61.06,1056.55 37.16,90.27 114.15,273.43 114.15,273.43 0,0 562.78,-10.62 788.44,135.4 127.99,82.82 98.22,196.44 -369,244.26 m 459.07,-4882.48 c -56.75,172.66 -179.21,271.07 -179.21,271.07 l 46.91,-785.41 c 181.13,82.02 190.91,336.02 132.3,514.34 M 5219.71,3225.05 c 32.77,-52.76 147.52,-178.59 497.23,-178.59 390.13,0 463.35,221.06 372.06,389.02 z m -1234.59,-298.84 115.42,27.95 c 23.28,-172.75 -118.53,-337.89 -466.97,-325.87 -374.22,12.89 -502.68,204.48 -462.91,565.14 39.75,360.66 197.39,659.07 197.39,659.07 v 0 l 54.22,-317.98"
         inkscape:connector-curvature="0" /><path
         id="path34"
         style="fill:#90857b;fill-opacity:1;fill-rule:nonzero;stroke:none"
         d="m 6083.64,6347.27 c -17.01,-1.34 -33.86,-2.23 -50.57,-2.74 -28.76,-180.52 -91.22,-317.51 -110.07,-355.96 -324.61,-42.84 -683.92,-62.75 -683.92,-62.75 13.6,-1.59 160.01,-20.64 349.82,-18.11 571.56,7.61 738.61,207.9 738.61,207.9 -88.23,-57.97 -206.85,-94.17 -333.23,-116.18 29.03,65.83 76.74,191.46 100.06,348.93 -3.58,-0.34 -7.1,-0.81 -10.7,-1.09"
         inkscape:connector-curvature="0" /><path
         id="path36"
         style="fill:#564f47;fill-opacity:1;fill-rule:nonzero;stroke:none"
         d="m 6104.28,7296.04 c -32.56,0.73 -66.56,0.37 -102.46,-1.49 -445.43,-23.28 -669.63,-158.3 -735.93,-319.62 -116.25,-282.86 253.05,-646.54 767.18,-630.41 16.71,0.52 33.56,1.41 50.57,2.75 3.6,0.28 7.12,0.75 10.7,1.09 591.4,56.91 856.27,928.37 9.94,947.68 m -3782.56,778.42 c 0,0 -342,226.13 -544.21,458.27 -140.1,160.84 -407.14,514.34 -339.15,586.61 60.45,64.27 269.22,-22.91 526.98,-117.41 257.76,-94.52 527.1,-148.54 927.95,-153.61 209.74,-2.66 248.28,-5.34 235.93,-284.07 -10.36,-233.52 45.95,-603.18 250.32,-815.59 214.17,-222.61 589.61,-318.77 927.87,-112.64 337.43,205.62 445.47,541.21 288.76,1053.62 -143.43,469 -420.2,811.02 -971.61,698.54 12.93,87.02 -68.17,198.75 -140.25,350.12 -72.09,151.38 -129.75,255.9 -129.75,255.9 0,0 381.4,49.7 734.7,51.3 -120.61,29.8 -240.31,43.2 -351.33,55.9 -252.36,-10.6 -413.42,-35.7 -413.42,-35.7 l -90.26,183.2 c -90.27,183.2 -265.47,292 -602.62,90.2 -337.15,-201.7 -787.88,-467.01 -1106.29,-632.4 -318.4,-165.41 -407.85,-370.86 -268.79,-632.7 388.71,-731.91 908.24,-1121.73 908.24,-1121.73 621.8,-970.63 1266.98,-1401.52 1266.98,-1401.52 -1.29,75.73 10.59,150.68 42.13,225.64 -384.57,305.66 -882.95,864.63 -1152.18,1298.07 m 2014.23,2017.84 c 236.26,270.7 355.72,451.3 849.49,260.1 493.78,-191.1 690.23,-289.4 1157.45,-337.1 467.22,-47.82 496.99,-161.44 369,-244.26 -225.65,-146.02 -788.44,-135.4 -788.44,-135.4 0,0 -76.98,-183.16 -114.15,-273.43 -646.51,636.2 -1473.35,730.09 -1473.35,730.09"
         inkscape:connector-curvature="0" /><path
         id="path38"
         style="fill:#faf8f5;fill-opacity:1;fill-rule:nonzero;stroke:none"
         d="m 5657.64,7709.14 c -192.99,139.31 -203.64,475.75 -214.45,719.04 -10.81,243.28 34.24,410.87 131.55,531.62 97.31,120.74 -140.57,373.04 -430.7,614.52 -290.14,241.48 -580.28,461.28 -956.92,470.38 -32.15,0.7 -64.89,1 -97.86,0.8 381.95,-94.27 773.06,-353.96 926.71,-1286.15 150.65,-913.97 -30.65,-1055.05 -721.89,-1356.48 -504.84,-220.16 -734.74,-423.44 -820.18,-626.48 223.33,-188.95 690.88,-432.43 1110.35,-567.27 624.67,-200.82 1284.39,-241.1 1286.04,-22.73 0.76,100.98 -346,101.22 -578.48,382.04 -168.22,203.21 -25.94,406.48 -25.92,406.51 66.3,161.31 290.5,296.34 735.92,319.61 35.9,1.87 69.9,2.23 102.47,1.49 l 0.35,0.14 c -118.86,136.66 -221.88,250.48 -446.99,412.96 M 3542.03,4624.46 c 230.46,-275.78 242.9,-551.96 133.73,-632.39 -113.21,-83.43 -447.69,103.51 -676.32,524.36 -268.63,494.46 -17.12,1192.86 33.47,1174.11 52.1,-19.31 -49.94,-299.15 65.07,-490.75 0,0 106.1,-158.38 258.38,-350.58 0,0 124.67,55.96 216.58,50.55 104.63,-6.16 151.27,-148 -30.91,-275.3"
         inkscape:connector-curvature="0" /><path
         id="path40"
         style="fill:#92877e;fill-opacity:1;fill-rule:nonzero;stroke:none"
         d="m 6060.38,6755.71 c 762.6,43.94 590.03,516.6 -73.12,469.48 -916.46,-65.1 -659.19,-511.67 73.12,-469.48 M 4953.71,10069.8 c 359.43,-180.94 927.55,-274.05 1150.93,-290.4 337.32,-24.69 612.4,21.16 608.87,79.35 -3.53,58.2 -206.31,81.12 -528.99,121.67 -322.7,40.58 -548.4,119.88 -853.47,246.88 -305.04,127 -565.39,191.1 -609.84,102.3 -45.84,-91.7 77.33,-181.7 232.5,-259.8 M 4294.09,7402.86 c 691.23,301.44 872.54,442.51 721.89,1356.48 -153.66,932.19 -544.77,1191.88 -926.72,1286.16 -353.3,-1.6 -734.71,-51.3 -734.71,-51.3 0,0 57.68,-104.53 129.75,-255.9 72.09,-151.38 153.18,-263.11 140.25,-350.12 551.41,112.48 828.18,-229.55 971.61,-698.54 156.72,-512.42 48.68,-848 -288.75,-1053.62 -338.27,-206.13 -713.7,-109.96 -927.86,112.63 -204.38,212.41 -260.68,582.07 -250.34,815.59 12.36,278.74 -26.18,281.41 -235.91,284.07 -400.86,5.08 -670.2,59.1 -927.96,153.61 -257.76,94.51 -466.54,181.69 -526.98,117.42 -67.98,-72.28 199.05,-425.76 339.15,-586.61 202.22,-232.14 544.2,-458.28 544.2,-458.28 269.24,-433.44 767.63,-992.4 1152.2,-1298.07 85.43,203.05 315.32,406.33 820.18,626.48 m -2763.86,2160.2 c -38.03,77.74 87.45,147.55 309.69,256.85 222.24,109.31 615.72,344.29 803.35,457.29 187.62,112.9 415.34,202.2 533.75,-63.8 118.4,-265.97 198.55,-418.98 300.57,-628.47 102.01,-209.49 5.46,-213.13 -176.71,-207.67 -182.17,5.47 -596.15,47.44 -832.49,80.15 -526.46,72.87 -896.26,20.04 -938.16,105.65"
         inkscape:connector-curvature="0" /><path
         id="path42"
         style="fill:#ffffff;fill-opacity:1;fill-rule:nonzero;stroke:none"
         d="m 5696.25,7792.12 c 236.08,10.73 173.94,1090.71 -49.16,1081.41 -226.87,-9.46 -158.8,-1090.86 49.16,-1081.41 m -1126.93,481.72 c 0,-360.61 -292.34,-652.94 -652.95,-652.94 -360.61,0 -652.94,292.33 -652.94,652.94 0,360.61 292.33,652.95 652.94,652.95 360.61,0 652.95,-292.34 652.95,-652.95"
         inkscape:connector-curvature="0" /><g
         id="g44"><g
           clip-path="url(#clipPath48)"
           id="g46"><path
             id="path52"
             style="fill:#574027;fill-opacity:1;fill-rule:nonzero;stroke:none"
             d="m 4929.32,8033.84 c 0,-360.61 -292.34,-652.94 -652.94,-652.94 -360.61,0 -652.95,292.33 -652.95,652.94 0,360.61 292.34,652.94 652.95,652.94 360.6,0 652.94,-292.33 652.94,-652.94"
             inkscape:connector-curvature="0" /><path
             id="path54"
             style="fill:#574027;fill-opacity:1;fill-rule:nonzero;stroke:none"
             d="m 5843.12,8162.58 c 12.63,-295.37 -81.28,-539.28 -209.75,-544.77 -128.46,-5.48 -242.85,229.52 -255.48,524.89 -12.62,295.37 81.29,539.27 209.75,544.76 128.47,5.49 242.86,-229.51 255.48,-524.88"
             inkscape:connector-curvature="0" /></g></g><path
         id="path56"
         style="fill:#e18100;fill-opacity:1;fill-rule:nonzero;stroke:none"
         d="m 5110.06,6287.61 c 0,0 -173.56,-10.01 -372.68,-122.69 0,0 -169.61,-509.82 -735.79,-692.86 l 182.66,-174.47 c 0,0 955.21,260.81 925.81,990.02"
         inkscape:connector-curvature="0" /><path
         id="path58"
         style="fill:#ffc102;fill-opacity:1;fill-rule:nonzero;stroke:none"
         d="m 4001.59,5472.06 182.66,-174.47 c 360.14,111.85 978.76,3.97 1124.88,-390.21 74.24,147.25 194.09,289.82 295.57,426.26 -429.85,232.4 -1136.92,220.47 -1603.11,138.42"
         inkscape:connector-curvature="0" /><path
         id="path60"
         style="fill:#ffda03;fill-opacity:1;fill-rule:nonzero;stroke:none"
         d="m 4737.81,5523.68 c -49.34,-61.3 -95.54,-125.17 -141.01,-189.61 55.53,-4.85 111.32,-13.31 166.05,-25.63 46.75,70.45 96.37,138.84 148.34,205.48 -57.52,4.95 -115.47,8.03 -173.38,9.76"
         inkscape:connector-curvature="0" /><path
         id="path62"
         style="fill:#ffda03;fill-opacity:1;fill-rule:nonzero;stroke:none"
         d="m 5134.39,5484.96 c -59.16,-78.75 -111.14,-162.71 -166.59,-244.18 94.04,-42.38 177.84,-98.86 242.04,-170.51 70.79,117.29 146.91,230.99 235.84,334.11 -96.5,35.37 -201.72,61.57 -311.29,80.58"
         inkscape:connector-curvature="0" /><path
         id="path64"
         style="fill:#ffc102;fill-opacity:1;fill-rule:nonzero;stroke:none"
         d="m 4001.59,5472.06 c 0,0 -133.43,384.08 118.01,687 267.63,322.42 670.14,322.42 670.14,322.42 0,0 134.87,-130.65 320.32,-193.87 0,0 -765.31,-44.13 -925.47,-990.34"
         inkscape:connector-curvature="0" /><path
         id="path66"
         style="fill:#ffda03;fill-opacity:1;fill-rule:nonzero;stroke:none"
         d="m 4257.01,6005.48 c 55.66,-39.23 112.42,-76.91 171.01,-111.28 118.9,156 258.66,250.46 380.65,307.42 -6.22,4.59 -12.41,9.18 -18.56,13.73 -92.96,68.79 -183.32,140.9 -273.3,213.5 -126.72,-43.66 -275.84,-123.58 -397.21,-269.79 -10.1,-12.17 -19.37,-24.51 -28.26,-36.92 54.09,-41.87 112.49,-79.18 165.67,-116.66"
         inkscape:connector-curvature="0" /><path
         id="path68"
         style="fill:#e18100;fill-opacity:1;fill-rule:nonzero;stroke:none"
         d="m 3719.08,5946.05 c 219.04,-211.66 282.51,-473.98 282.51,-473.98 l 183,-174.8 c -76.15,386.12 -273.35,566.62 -465.51,648.78"
         inkscape:connector-curvature="0" /><path
         id="path70"
         style="fill:#ffc102;fill-opacity:1;fill-rule:nonzero;stroke:none"
         d="m 3266.8,6001.88 c 0,0 222.55,42.37 452.28,-55.83 -148.11,143.11 -367.29,263.06 -686.17,263.06"
         inkscape:connector-curvature="0" /><path
         id="path72"
         style="fill:#ffda03;fill-opacity:1;fill-rule:nonzero;stroke:none"
         d="m 3346.78,6122.68 c -29.39,21.21 -59.65,42.46 -89.39,64.62 -68.72,13.93 -143.32,21.82 -224.47,21.82 l 233.88,-207.24 c 0,0 107.41,20.44 249.99,0.01 -56.31,40.71 -113.6,80.11 -170.01,120.79"
         inkscape:connector-curvature="0" /><path
         id="path74"
         style="fill:#e18100;fill-opacity:1;fill-rule:nonzero;stroke:none"
         d="m 3266.8,6001.88 -233.89,207.23 c 0,0 -15.9,-575.77 430.75,-733.86 -202.7,213.82 -196.86,526.63 -196.86,526.63"
         inkscape:connector-curvature="0" /><path
         id="path76"
         style="fill:#ffc102;fill-opacity:1;fill-rule:nonzero;stroke:none"
         d="m 4001.59,5472.06 c -229.32,-54.12 -404.28,-44.12 -537.93,3.19 132.04,-139.28 352.53,-236.58 720.93,-177.98"
         inkscape:connector-curvature="0" /><path
         id="path78"
         style="fill:#ffc102;fill-opacity:1;fill-rule:nonzero;stroke:none"
         d="m 4184.25,5297.59 -182.66,174.47 c -389.21,-178.12 -282.76,-564.68 -132.76,-1002.79 70.96,16.24 97.46,14.84 314.43,75.07 -601.33,248.81 -563.61,632.97 0.99,753.25"
         inkscape:connector-curvature="0" /><path
         id="path80"
         style="fill:#ffda03;fill-opacity:1;fill-rule:nonzero;stroke:none"
         d="m 3878.79,5176.91 c 72.82,51.02 175.04,92.89 305.46,120.68 l -182.66,174.47 c -109.55,-50.13 -179.82,-116.77 -220.91,-196.45 32.63,-32.97 65.25,-65.97 98.11,-98.7"
         inkscape:connector-curvature="0" /><path
         id="path82"
         style="fill:#ff87b6;fill-opacity:1;fill-rule:nonzero;stroke:none"
         d="m 11725.4,7107.39 -154.9,-127.7 42.3,260.03 c -509.5,-16.86 -815.9,355.01 -974.7,686.32 -333.5,-164.18 -901.25,-328.53 -1830.41,-316.18 0,0 72.7,-167.6 28.28,-438.19 0,0 -151.45,169.62 -444.25,315.01 -217.54,108.02 -371.88,192.3 -371.88,192.3 l -1690.42,1008.71 248.95,-371.5 -183.83,61.28 c 0,0 325.53,-1306.01 494.05,-1899.65 168.53,-593.64 394.88,-811.62 739.18,-1011.11 0,0 -56.39,-241.38 -243.08,-695.73 0,0 188.94,-85.48 465.6,-20.25 0,0 -47.23,-107.94 -177.69,-240.66 0,0 134.95,-43.98 321.64,-34.98 0,0 -65.23,-34.76 -141.7,-68.5 0,0 269,-113.73 643.02,-116.58 8.35,-35.21 21.21,-68.66 37.97,-101.99 -19.13,-3.54 -48.13,-30.35 -47.29,-67.72 1.95,-87.07 173.99,-164.59 230.85,-187.6 30.74,-37.09 64.02,-76.88 99.98,-120.87 35.56,-295.56 -37.77,-417.81 -162.03,-700.09 -19.92,-45.27 -33.32,-88.44 -41.6,-129.85 -46.01,10.57 -173.08,37.79 -320.78,52.56 -227.68,22.76 -355.17,11.39 -350.62,243.61 4.55,232.23 150.26,432.59 104.73,603.34 -45.54,170.76 -322,189.25 -464.47,0 -150.51,-199.93 -221.91,-620.44 22.78,-883.38 152.54,-163.93 341.52,-198.09 610.17,-175.32 247.59,20.99 319.21,7.14 396.64,-48.62 21.6,-121.83 76.99,-228.44 116.63,-330.28 0,0 -452.77,-344.31 -253.22,-604.01 186.72,-243 516.15,-222.23 595.72,-103.39 70.87,105.85 8.32,234.16 8.32,234.16 l 90.22,92.32 c 2.99,-191.09 70.28,-326.48 392.45,-326.48 239.34,0 340.82,122.55 338.91,233.6 -3.24,187.63 -216.37,266.14 -216.37,266.14 333.85,603.99 241.5,1332.33 241.5,1332.33 258.65,-8.68 349.95,296.97 159.15,460.74 -120.68,103.49 -235.13,183.55 -235.13,183.55 230.93,166.13 689.83,363.23 943.33,512.47 253.4,149.24 822.2,475.87 1033.4,1165.73 211.1,689.87 -101.4,1216.43 -101.4,1216.43 m -2065.55,1682.94 564.75,879.41 53.5,-244.97 70.4,126.71 c 0,0 87.7,-695.34 135.4,-1062.85 -431.4,85.91 -815.98,-4.42 -815.98,-4.42 15.3,120.73 8.96,222.36 -8.07,306.12"
         inkscape:connector-curvature="0" /><path
         id="path84"
         style="fill:#ffc6ea;fill-opacity:1;fill-rule:nonzero;stroke:none"
         d="m 11072.2,5861.48 c -77.4,-36.64 -194.1,-70.52 -175.1,-132.3 22.4,-72.64 181.2,-111.95 376.6,-20.36 189.3,88.72 238.1,264.61 195.4,341.18 -42.8,76.56 -118.8,1.7 -211.7,-72.5 -42.5,-33.93 -107.9,-79.37 -185.2,-116.02 M 8333.13,4397.66 c 165.2,17.09 222.89,80.34 206.31,137.2 -16.59,56.85 -73.66,52.32 -234.74,0 -161.08,-52.32 -367.18,-118.23 -367.18,-118.23 0,0 189.51,-40.29 395.61,-18.97 M 9631.45,2227.52 c 0,0 152.23,284.5 229.6,671.03 77.36,386.53 -60.98,443.06 -145.07,320.31 -151.71,-221.45 -344.7,-300.98 -531.25,-112.89 -179.58,181.07 -267.03,396.82 -267.03,396.82 -37.42,114.77 -59.89,34.91 -94.83,-84.86 -34.94,-119.8 -169.69,-426.77 -42.42,-736.23 127.28,-309.45 -7.29,-363.27 -84.85,-441.72 -135.71,-137.26 -163.67,-314.71 111.43,-421.46 249.94,-96.98 287.86,67.09 222.98,191.87 0,0 87.35,94.83 149.74,177.18 62.39,82.36 101.23,129.77 80.56,291.99 -20.66,162.21 -85.55,229.6 -85.55,229.6 l 274.52,-169.7 c 0,0 -39.93,-119.8 -67.38,-187.17 -27.45,-67.39 -102.33,-267.04 -27.45,-371.84 74.87,-104.82 262.23,-139.9 409.48,-57.52 147.24,82.36 -7.72,289.62 -132.48,304.59 m 379.95,1830.79 c -202.16,153.71 -294.73,243.71 -462.88,377.87 -91.34,72.86 -193.94,137.54 -307.04,170.25 -42.71,12.36 -124.32,34.52 -166.53,15.03 -94.76,-43.73 61.18,-144.49 99.63,-182.6 182.9,-181.3 176.58,-217.34 276.35,-300.06 93.05,-77.12 178.89,-129.44 280.85,-193.85 251.27,-158.7 347.62,-171.91 387.32,-124.68 36.5,43.41 36.4,128.5 -107.7,238.04 m -1387.2,-7.13 c -25.29,38.97 -55.05,79.86 -76.54,123.31 -32.33,-14.19 -44.1,-39.52 -18.81,-74.72 24,-33.41 63.89,-55.61 110.94,-71.82 -5.29,7.68 -10.51,15.41 -15.59,23.23 m 160,-27.03 c 229.14,-311.36 612.55,-707.29 778.17,-548.47 165.61,158.8 -179.23,657.93 -374.34,873.45 -195.11,215.52 -452.31,292.01 -569.44,185.73 -70.34,-63.82 -63.53,-199.36 165.61,-510.71 M 7549.13,3758.02 c -95.77,-193.32 -95.47,-494.88 59.45,-672.5 154.91,-177.61 414,-186.97 572.92,-186.97 158.91,0 316.51,8.01 313.83,52.08 -2.67,44.07 -142.89,57.42 -388.62,68.12 -245.73,10.68 -283.12,101.5 -299.15,221.7 -16.02,120.18 21.37,295.14 117.53,486.1 96.16,190.97 -15.58,253.88 -95.09,254.24 -76.24,0.34 -182.97,-25.14 -280.87,-222.77 M 6502.09,8150.2 c 0,0 330.03,-1271.91 410.27,-1551.25 80.23,-279.36 270.43,-722.16 398.21,-742.96 127.78,-20.79 216.94,129.64 83.21,305.53 -133.73,175.91 -258.54,354.2 -344.72,559.27 -86.19,205.04 -546.97,1429.41 -546.97,1429.41 m 3878.11,-332.07 c -33.8,-11.97 -72.1,-24.65 -110.2,-35.5 0,0 -237.1,-169.81 -575.13,-254.82 -424.57,-106.77 -768.92,-96.76 -768.92,-96.76 9.34,-165.41 -18.81,-274.09 -47.67,-340.01 0,0 413.65,131.92 764.33,-184.72 323.87,-307.53 485.09,-851.74 146.38,-1081.8 -259.98,-176.62 -615.29,-115 -840.99,-8.21 -225.7,106.82 -343.23,154.32 -480.11,136.84 0,0 136.46,194.23 89.86,335.46 -46.61,141.25 -165.45,559.86 233.99,767.75 -122.47,167.98 -295.4,273.55 -618,451.84 -508.7,281.11 -1671.65,1021.98 -1671.65,1021.98 0,0 635.29,-737.55 881.82,-1018.64 373.75,-426.15 638.79,-1136.77 302.92,-2039.48 l -247.9,-666.81 c 0,0 361.91,-64.8 635.74,150.2 0,0 -142.12,-233.41 -332.13,-420.59 0,0 390.38,141.03 782.5,210.14 392.12,69.11 1108.43,143.54 1525.36,466.54 403.9,312.91 440.9,644.73 461.5,734.79 20.7,90.06 39.4,87.97 90.1,89.22 266.4,6.59 873,22.33 1105.1,1025.77 l -235.5,-194.53 8.6,319.11 c 0,0 -149,6.03 -351.1,100.23 104.9,-212.18 133.2,-428 4.9,-516.64 -253.2,-174.9 -669.2,291.82 -781.5,655.47 -91.9,284.43 27.7,393.17 27.7,393.17 m -188.9,705.35 c -298.63,13.52 -523.38,-39.28 -523.38,-39.28 10.1,79.66 10.77,150.98 5.18,214.35 l 518.3,848.99 c -89.9,-371.34 -144.5,-704.66 -0.1,-1024.06"
         inkscape:connector-curvature="0" /><path
         id="path86"
         style="fill:#95395c;fill-opacity:1;fill-rule:nonzero;stroke:none"
         d="m 8755.78,6938.63 c -228.74,-161.89 -212.41,-451.48 -74.07,-695.95 l -81.35,-207.12 250.63,-10.97 c 198.73,-191.13 474.84,-286.81 715.88,-128.83 488.93,320.42 -258.17,1434.2 -811.09,1042.87 m 2332.92,-38.98 c -253,-169.99 -888,730.53 -636.9,888.43 133.6,83.97 323.4,-55.58 470.4,-248.83 l 181.5,-16.08 -38.7,-216.69 c 85,-177.16 112.9,-346.92 23.7,-406.83"
         inkscape:connector-curvature="0" /><path
         id="path88"
         style="fill:#ffffff;fill-opacity:1;fill-rule:nonzero;stroke:none"
         d="m 11098.7,6829.64 c 234.6,157.59 -340,1075.09 -636.9,888.43 -251.1,-157.89 383.9,-1058.42 636.9,-888.43 m -2182.92,118.99 c 552.92,391.32 1300.02,-722.45 811.09,-1042.86 -570.03,-373.62 -1336.22,671.2 -811.09,1042.86"
         inkscape:connector-curvature="0" /><g
         id="g90"><g
           clip-path="url(#clipPath94)"
           id="g92"><path
             id="path98"
             style="fill:#95395c;fill-opacity:1;fill-rule:nonzero;stroke:none"
             d="m 10898.7,6819.64 c 234.6,157.59 -340,1075.09 -636.9,888.43 -251.1,-157.89 383.9,-1058.42 636.9,-888.43 m -2332.92,118.99 c 552.92,391.32 1299.98,-722.45 811.09,-1042.86 -570.03,-373.62 -1336.22,671.2 -811.09,1042.86"
             inkscape:connector-curvature="0" /></g></g><path
         id="path100"
         style="fill:#ffd402;fill-opacity:1;fill-rule:nonzero;stroke:none"
         d="m 8835.97,7171.68 c 44.42,270.59 -28.27,438.18 -28.27,438.18 929.16,-12.36 1496.9,152 1830.4,316.18 321.1,158.01 425.2,315.85 425.2,315.85 -182.2,133.97 -385.5,208.13 -579.4,246.74 -431.4,85.91 -815.98,-4.43 -815.98,-4.43 15.31,120.75 8.97,222.37 -8.06,306.14 -43.65,214.61 -157.52,311.77 -157.52,311.77 0,0 55.85,-366.68 -674.46,-702.72 -658.29,-302.89 -808.03,-720.41 -808.03,-720.41 0,0 154.33,-84.28 371.87,-192.3 292.8,-145.39 444.25,-315 444.25,-315"
         inkscape:connector-curvature="0" /><path
         id="path102"
         style="fill:#fff805;fill-opacity:1;fill-rule:nonzero;stroke:none"
         d="m 8019.84,7678.98 c 0,0 149.75,417.52 808.04,720.42 0,0 274.59,107.79 450.28,228.27 175.7,120.48 251.81,250.16 257.45,342.71 0,0 56.34,-299.58 -245.82,-517.23 -302.15,-217.64 -385.36,-288.05 -385.36,-288.05 0,0 882.81,703.61 2025.67,115.72 0,0 -555.1,-588.42 -2276.88,-460.5 0,0 153.5,-125.36 135.58,-457.94 0,0 -261.3,374.81 -768.96,316.6"
         inkscape:connector-curvature="0" /><path
         id="path104"
         style="fill:#c74a79;fill-opacity:1;fill-rule:nonzero;stroke:none"
         d="m 8572.6,2990.84 5.47,-195.16 33.83,-21.6 c -19.57,108.56 1.54,207.81 1.54,207.81 z m 1355.12,562.62 -1.66,15.02 c -65.26,1.27 -178.19,29.96 -285.68,94.25 -47.82,187.9 -190.03,365.22 -190.03,365.22 216.3,-288.49 282.51,-626.74 25.01,-722.38 -257.5,-95.65 -542.96,186.86 -542.96,186.86 0,0 279.58,-334.01 556.21,-200.11 163.26,79.03 185.93,217.2 156.02,352.61 25.16,-12.12 171.53,-80.71 283.09,-91.47 m 1438.08,2571.36 c -6.9,-5.15 -169.7,-126.91 -265.1,-189.52 -86.5,-56.73 -185.3,-94.95 -361.8,-94.95 -30.7,0 -63.9,1.21 -99.7,3.63 -2.1,-20.15 -3.1,-42.61 -1.8,-67.46 l -59.9,-2.98 c -6.6,131 38.2,209.06 40.1,212.32 l 51.8,-30.2 c -0.2,-0.35 -10.4,-18.84 -19.4,-52.28 220.7,-14.24 324.6,21.02 417.8,82.1 26.8,17.63 59.7,40.42 92.9,64 -57.1,77.58 -131.8,179.8 -151.4,206.74 l -269.2,62.43 334.6,213.87 -9.7,-250.82 c 26.8,-36.74 92.9,-127.21 144.5,-197.27 64.4,46.59 119.4,87.71 120.4,88.42"
         inkscape:connector-curvature="0" /><path
         id="path106"
         style="fill:#ffffff;fill-opacity:1;fill-rule:nonzero;stroke:none"
         d="m 11601.6,6486.07 c 0,0 -17.4,-3.67 -43.2,-10.17 -12.8,-3.31 -27.8,-7.11 -43.7,-11.59 -16,-4.22 -32.8,-9.52 -49.6,-14.58 -8.4,-2.53 -17,-4.64 -25.6,-6.6 -8.5,-1.93 -16.8,-4.04 -24.4,-7.16 -15.1,-6.36 -27.7,-15.63 -38.2,-24.38 -5.2,-4.41 -9.9,-8.84 -13.8,-13.14 -4,-4.24 -7.3,-8.16 -9.9,-11.7 -2.7,-3.46 -4.7,-6.39 -6,-8.57 -1.3,-2.16 -2,-3.32 -2,-3.32 l 2.4,-5.5 c 0,0 1.3,-0.29 3.8,-0.82 2.5,-0.54 6,-1.09 10.3,-1.52 4.4,-0.5 9.6,-0.73 15.4,-0.73 5.8,-0.06 12.2,0.27 19,1.09 13.5,1.68 28.9,4.59 43.9,11.25 7.4,3.41 14.7,8.03 21.9,12.93 7.2,4.89 14.7,9.73 22.3,14.14 15.2,8.85 30.5,17.43 44.5,26.26 14.2,8.54 27.2,16.9 38.4,24.02 22.3,14.38 36.9,24.59 36.9,24.58 z M 11460,6751 c 0,0 -20.1,-17.12 -49.5,-43.5 -14.7,-13.25 -31.8,-28.66 -49.8,-45.46 -18.3,-16.59 -37.1,-34.91 -56.1,-53.02 -9.5,-9.07 -19.3,-17.82 -29.1,-26.37 -9.8,-8.52 -19.3,-17.04 -27.6,-26.08 -16.5,-18.19 -29.2,-37.55 -39.5,-54.76 -10.1,-17.26 -17.3,-32.77 -21.7,-44.24 -4.5,-11.39 -6.3,-18.59 -6.3,-18.59 l 4.5,-4 c 0,0 7,2.56 17.8,8.24 10.9,5.58 25.6,14.46 41.6,26.44 16,12.05 33.8,26.8 50.1,45.2 8.1,9.25 15.5,19.61 22.9,30.27 7.4,10.67 15.1,21.41 23,31.84 16,20.91 32.1,41.58 46.6,61.55 14.8,19.75 28.2,38.48 39.8,54.48 23,32.11 37.8,54 37.8,54 z m -215.1,75.13 c 0,0 -11.2,-13.04 -27.1,-33.13 -7.9,-10.09 -17.2,-21.82 -26.7,-34.61 -9.9,-12.62 -19.5,-26.55 -29.5,-40.32 -4.9,-6.89 -10.3,-13.55 -15.7,-20.05 -5.4,-6.5 -10.5,-13 -14.4,-19.84 -7.8,-13.78 -11.8,-28.37 -14.5,-41.3 -1.4,-6.48 -2.2,-12.63 -2.6,-18.27 -0.4,-5.63 -0.6,-10.64 -0.5,-14.91 0.1,-4.27 0.4,-7.72 0.8,-10.16 0.3,-2.43 0.5,-3.74 0.5,-3.74 l 5.2,-2.89 c 0,0 1.2,0.55 3.5,1.56 2.2,1.03 5.3,2.66 8.9,4.87 3.7,2.16 7.8,5.02 12.4,8.38 4.5,3.37 9.2,7.37 14,11.98 9.5,9.21 19.6,20.48 27.1,34.39 3.6,7 6.3,14.82 8.9,22.86 2.6,8.05 5.4,16.14 8.5,24.02 6.3,15.78 12.9,31.41 18.2,46.46 5.7,14.91 10.6,29.02 14.9,41.11 8.4,24.21 13.4,40.71 13.4,40.71 z M 10373.8,5724.7 c 0,0 24,17.57 59.2,44.87 17.7,13.56 38.4,29.32 60.1,46.68 22,17.09 44.8,35.98 67.9,54.65 11.5,9.35 23.3,18.37 35,27.14 11.8,8.73 23.1,17.62 33.4,26.89 20.4,18.82 36.9,39.02 50.5,56.98 6.7,8.99 12.6,17.59 17.6,25.45 5,7.85 9.2,14.87 12.4,20.91 6.5,11.95 9.6,19.54 9.6,19.54 l -4.1,4.37 c 0,0 -7.8,-2.5 -20.2,-8.21 -6.2,-2.81 -13.5,-6.52 -21.7,-10.97 -8.2,-4.44 -17.1,-9.73 -26.6,-15.89 -18.8,-12.32 -40.1,-27.47 -60.2,-46.52 -9.9,-9.66 -19.6,-20.32 -29.1,-31.48 -9.5,-11.11 -19.3,-22.29 -29.4,-33.14 -20.2,-21.7 -40.6,-43.2 -59.1,-63.97 -18.8,-20.53 -35.9,-40.1 -50.7,-56.82 -29.6,-33.3 -48.7,-56.11 -48.7,-56.11 z m -278.4,172.75 c 0,0 29.5,5.94 73.4,16.09 21.9,4.96 47.6,10.66 74.8,17.37 27.4,6.38 56.3,14.06 85.3,21.45 14.5,3.69 29.2,6.96 43.6,10.07 14.5,3.02 28.6,6.38 42,10.52 26.7,8.62 50.4,20.1 70.5,30.78 10,5.36 19,10.7 26.9,15.81 7.9,5.05 14.8,9.67 20.3,13.82 11.1,8.16 17.1,13.78 17.1,13.78 l -1.9,5.72 c 0,0 -8.2,0.94 -22,0.93 -6.8,0.03 -15.1,-0.32 -24.5,-0.95 -9.3,-0.62 -19.8,-1.7 -31,-3.36 -22.5,-3.35 -48.4,-8.25 -75,-17.17 -13.2,-4.63 -26.5,-10.31 -40,-16.51 -13.4,-6.12 -27.1,-12.21 -41,-17.85 -27.7,-11.34 -55.5,-22.39 -81.3,-33.55 -25.9,-10.84 -49.9,-21.49 -70.5,-30.58 -41.3,-17.93 -68.5,-30.68 -68.5,-30.68 z m 11.1,249.03 c 0,-0.01 32.4,9.49 81.4,22.48 24.4,6.61 52.9,14.4 83.5,22.13 30.6,8.09 63.4,15.8 96.1,23.81 16.3,3.99 32.6,8.44 48.6,12.96 16,4.57 31.8,8.66 47.3,11.73 30.9,5.75 60.5,7.54 86,8.23 12.8,0.32 24.5,0.16 35,-0.32 10.5,-0.48 19.7,-1.12 27.3,-1.98 15.3,-1.61 24.2,-3.52 24.2,-3.52 l 1,-5.91 c 0,0 -7.6,-4.89 -21.3,-11.73 -6.9,-3.48 -15.3,-7.29 -24.9,-11.4 -9.7,-4.14 -20.7,-8.39 -32.7,-12.55 -24.2,-8.27 -52.5,-16.91 -83.6,-22.35 -15.5,-2.54 -31.7,-4.24 -48.3,-5.52 -16.6,-1.36 -33.4,-2.91 -50.1,-4.88 -33.5,-3.91 -66.9,-8.14 -98.3,-11.27 -31.4,-3.44 -60.9,-6.12 -86,-8.46 -50.4,-4.91 -84.1,-7.36 -84.1,-7.37"
         inkscape:connector-curvature="0" /><path
         id="path108"
         style="fill:#ffffff;fill-opacity:1;fill-rule:nonzero;stroke:none"
         d="m 10515.2,7596.13 c -32.1,0 -58.1,-26.01 -58.1,-58.09 0,-32.07 26,-58.06 58.1,-58.06 32,0 58,25.99 58,58.06 0,32.08 -26,58.09 -58,58.09 m -1530.03,-750 c -32.08,0 -58.08,-26.01 -58.08,-58.09 0,-32.07 26,-58.06 58.08,-58.06 32.06,0 58.08,25.99 58.08,58.06 0,32.08 -26.02,58.09 -58.08,58.09 m -3370,1730 c -32.08,0 -58.08,-26.01 -58.08,-58.09 0,-32.07 26,-58.06 58.08,-58.06 32.06,0 58.08,25.99 58.08,58.06 0,32.08 -26.02,58.09 -58.08,58.09 m -1450,-20 c -32.08,0 -58.08,-26.01 -58.08,-58.09 0,-32.07 26,-58.06 58.08,-58.06 32.06,0 58.08,25.99 58.08,58.06 0,32.08 -26.02,58.09 -58.08,58.09"
         inkscape:connector-curvature="0" /><path
         id="path110"
         style="fill:#dd2525;fill-opacity:1;fill-rule:nonzero;stroke:none"
         d="m 7019.32,10639.5 c 185.82,236.7 507.09,303.6 752.11,211.8 135.01,477.1 704.59,503.4 917.73,105.3 241.52,-451 141.72,-1219.47 -79.71,-1752.67 -551.33,55.7 -1184.63,239.62 -1519.09,653.49 -170.88,211.48 -280.67,515.08 -71.04,782.08"
         inkscape:connector-curvature="0" /><path
         id="path112"
         style="fill:#bb1818;fill-opacity:1;fill-rule:nonzero;stroke:none"
         d="m 7090.85,10005.2 c 334.44,-413.87 967.76,-597.8 1519.05,-653.5 121.67,293.01 206.43,657 218.27,1000.4 11.64,-384.1 -79.44,-812.7 -218.73,-1148.16 -551.32,55.69 -1184.62,239.61 -1519.09,653.48 -119.65,148.08 -209.16,341.28 -180.23,535.48 19.25,-142.1 91.57,-277.4 180.73,-387.7"
         inkscape:connector-curvature="0" /><path
         id="path114"
         style="fill:#ff5454;fill-opacity:1;fill-rule:nonzero;stroke:none"
         d="m 7129.88,10666.8 c 52.93,53.3 118.08,94 181.91,116.4 204.61,72.1 438.24,24.8 639.27,-54.1 22.05,-8.6 46.9,-18.4 73.53,-29.3 -118.66,122.6 -162.64,284.2 25.75,423.3 277.94,205.2 639.15,-125.5 636.79,-413.2 -5.02,-611.8 -883.16,-773.28 -1336.2,-629.5 -149.41,47.4 -315.54,118.1 -334.26,303.1 -11.04,109.1 39.11,208.6 113.21,283.3"
         inkscape:connector-curvature="0" /><path
         id="path116"
         style="fill:#ffffff;fill-opacity:1;fill-rule:nonzero;stroke:none"
         d="m 7381,10763.5 c 32.17,37.3 154.05,40.9 175.68,-9.6 22.01,-51.4 -108.29,-48.9 -134.83,-43.8 -21.59,4.1 -55.05,15.7 -46.08,44.2 1.05,3.3 2.83,6.4 5.23,9.2"
         inkscape:connector-curvature="0" /><path
         id="path118"
         style="fill:#ffffff;fill-opacity:1;fill-rule:nonzero;stroke:none"
         d="m 8136.3,11129.7 c 32.16,37.3 154.04,41 175.67,-9.6 22.01,-51.4 -108.28,-48.9 -134.83,-43.8 -21.58,4.2 -55.04,15.7 -46.08,44.2 1.05,3.3 2.83,6.4 5.24,9.2"
         inkscape:connector-curvature="0" /><path
         id="path120"
         style="fill:#ce1435;fill-opacity:1;fill-rule:nonzero;stroke:none"
         d="m 7240.92,8809.89 c 72,111.58 211.55,159.59 324.2,135.72 38.96,210.32 290.38,256.31 402.31,100.77 126.86,-176.25 116.25,-507.84 41.42,-747.24 -246.89,-10.14 -535.75,29.02 -702.18,183.84 -85.05,79.13 -147.02,200.95 -65.75,326.91"
         inkscape:connector-curvature="0" /><path
         id="path122"
         style="fill:#ac0a2d;fill-opacity:1;fill-rule:nonzero;stroke:none"
         d="m 7300.41,8545.6 c 166.43,-154.82 455.28,-193.98 702.18,-183.84 41.12,131.55 62.77,290.92 52.96,437.08 22.01,-161.97 0.39,-349.07 -46.7,-499.7 -246.89,-10.14 -535.75,29.02 -702.18,183.84 -59.54,55.4 -107.7,131.74 -103.39,215.75 14.77,-59 52.77,-111.88 97.13,-153.13"
         inkscape:connector-curvature="0" /><path
         id="path124"
         style="fill:#f74169;fill-opacity:1;fill-rule:nonzero;stroke:none"
         d="m 7296.2,8822.08 c 9.28,23.71 27.66,44.45 49.02,56.63 91.79,52.33 204.93,48.91 304.94,26.15 10.09,-2.3 21.55,-4.93 33.85,-7.95 -57.98,44.7 -84.56,110.44 -7.13,180.87 92.35,83.98 239.86,12.93 292.7,-80.4 49.84,-88.02 45.74,-206.98 -35.61,-275 -60.55,-50.63 -134.26,-71.06 -210.94,-80.43 -93.41,-11.4 -501.15,-9.78 -426.83,180.13"
         inkscape:connector-curvature="0" /><path
         id="path126"
         style="fill:#ffffff;fill-opacity:1;fill-rule:nonzero;stroke:none"
         d="m 7714.38,9075.63 c 21.6,25.09 101.71,24.11 129.37,8.87 103.52,-57.02 -155.55,-85.84 -133.86,-16.74 0.91,2.87 2.43,5.49 4.49,7.87"
         inkscape:connector-curvature="0" /><path
         id="path128"
         style="fill:#ffffff;fill-opacity:1;fill-rule:nonzero;stroke:none"
         d="m 7395.03,8875.26 c 27.47,31.9 131.58,34.99 150.05,-8.15 18.8,-43.92 -92.48,-41.78 -115.16,-37.44 -18.43,3.52 -47.01,13.37 -39.37,37.72 0.91,2.87 2.43,5.49 4.48,7.87"
         inkscape:connector-curvature="0" /><path
         id="path130"
         style="fill:#dd2525;fill-opacity:1;fill-rule:nonzero;stroke:none"
         d="m 9063.86,10109.1 c 86.89,47.7 195.51,29.7 260.96,-26 100.25,124.2 281.58,65.1 299.82,-76.7 20.68,-160.73 -103.98,-374.59 -238.07,-505.15 -165.66,81 -341.34,209.25 -395.62,369.95 -27.72,82.12 -25.15,184.1 72.91,237.9"
         inkscape:connector-curvature="0" /><path
         id="path132"
         style="fill:#bb1818;fill-opacity:1;fill-rule:nonzero;stroke:none"
         d="m 9009.07,9914.52 c 54.28,-160.7 229.96,-288.95 395.61,-369.94 73.69,71.74 144.45,168.65 189.92,268.06 -43.07,-114.12 -123.67,-229.24 -208.03,-311.39 -165.66,81 -341.35,209.25 -395.62,369.95 -19.4,57.5 -23.91,124.7 8.75,178.3 -11.26,-43.9 -5.08,-92.16 9.37,-134.98"
         inkscape:connector-curvature="0" /><path
         id="path134"
         style="fill:#ff5454;fill-opacity:1;fill-rule:nonzero;stroke:none"
         d="m 9101.75,10104.1 c 23.03,9.5 48.36,13.8 71.05,12.9 72.76,-2.8 140.06,-44.1 193.34,-90.8 5.86,-5.1 12.43,-10.9 19.44,-17.3 -22.21,49.9 -16.31,102.5 59.53,121.3 84.08,20.7 168.53,-72.7 160.31,-154.12 -8.34,-82.59 -95.96,-149.43 -174.28,-159.33 -108.24,-13.67 -244.84,22.76 -331.58,89.35 -40.95,31.43 -84.31,71.68 -67.67,128.2 9.82,33.3 37.59,56.6 69.86,69.8"
         inkscape:connector-curvature="0" /><path
         id="path136"
         style="fill:#ffffff;fill-opacity:1;fill-rule:nonzero;stroke:none"
         d="m 9411.57,10105.5 c 16.11,18.8 75.9,18 96.52,6.7 77.27,-42.6 -116.05,-64.1 -99.86,-12.5 0.66,2.1 1.82,4.1 3.34,5.8"
         inkscape:connector-curvature="0" /><path
         id="path138"
         style="fill:#ffffff;fill-opacity:1;fill-rule:nonzero;stroke:none"
         d="m 9103.29,10086 c 20.49,23.8 98.18,26.1 111.95,-6.1 14.05,-32.7 -69,-31.1 -85.91,-27.9 -13.77,2.6 -35.1,10 -29.4,28.2 0.68,2.1 1.82,4.1 3.36,5.8"
         inkscape:connector-curvature="0" /></g></g></svg>