<?xml version="1.0" encoding="UTF-8" standalone="no"?>
<svg
   xmlns:dc="http://purl.org/dc/elements/1.1/"
   xmlns:cc="http://creativecommons.org/ns#"
   xmlns:rdf="http://www.w3.org/1999/02/22-rdf-syntax-ns#"
   xmlns:svg="http://www.w3.org/2000/svg"
   xmlns="http://www.w3.org/2000/svg"
   xmlns:sodipodi="http://sodipodi.sourceforge.net/DTD/sodipodi-0.dtd"
   xmlns:inkscape="http://www.inkscape.org/namespaces/inkscape"
   viewBox="0 0 1662.5 1662.5"
   height="1662.5"
   width="1662.5"
   xml:space="preserve"
   version="1.1"
   id="svg2"
   inkscape:version="0.91 r13725"
   sodipodi:docname="062HeyYou.svg"><sodipodi:namedview
     pagecolor="#ffffff"
     bordercolor="#666666"
     borderopacity="1"
     objecttolerance="10"
     gridtolerance="10"
     guidetolerance="10"
     inkscape:pageopacity="0"
     inkscape:pageshadow="2"
     inkscape:window-width="1447"
     inkscape:window-height="920"
     id="namedview15123"
     showgrid="false"
     inkscape:zoom="0.14195489"
     inkscape:cx="831.25"
     inkscape:cy="831.25"
     inkscape:window-x="0"
     inkscape:window-y="0"
     inkscape:window-maximized="0"
     inkscape:current-layer="svg2" /><metadata
     id="metadata8"><rdf:RDF><cc:Work
         rdf:about=""><dc:format>image/svg+xml</dc:format><dc:type
           rdf:resource="http://purl.org/dc/dcmitype/StillImage" /></cc:Work></rdf:RDF></metadata><defs
     id="defs6" /><g
     transform="matrix(1.5713683,0,0,-1.5713683,-213.53584,1879.8792)"
     id="g10"><g
       transform="scale(0.1,0.1)"
       id="g12"><path
         id="path16"
         style="fill:#bb1829;fill-opacity:1;fill-rule:nonzero;stroke:none"
         d="m 11273.7,4315.56 c 0,29.99 -0.9,87.71 -2.8,187.28 -1.9,90.37 -5.1,220.67 -9.8,398.4 -4.7,174.32 -12.7,404.95 -23.7,685.47 l -9,230.74 -393.9,-72.67 7.2,689.08 935.4,1208.35 -1019.4,699.02 -475,-687.79 -447.8,703.32 -159.07,-124.3 -1478.15,-109.79 13.05,124.33 -1144.07,-56.21 4.55,47.77 -1241.73,-119.06 121.41,-2539.7 -398.34,-311.26 773.93,-1081.05 0,-977.11 1144.66,-153.19 4.83,493.06 c 34.52,-43.18 72.03,-82.59 112.45,-117.96 102.01,-89.26 216.15,-156.75 339.21,-200.59 119.91,-42.74 246.53,-65.48 376.47,-67.58 8.15,-0.13 16.28,-0.19 24.4,-0.19 116.08,0 230.86,13.26 341.27,39.43 118.09,28.06 230.56,69.84 334.36,124.21 106.92,56.08 199.9,123.27 276.35,199.73 l 1.89,1.91 c 2.55,2.62 5.01,5.28 7.54,7.9 45.56,-78.32 101.7,-147.99 168.08,-208.16 115.75,-105.07 262.28,-177.09 435.61,-214.1 75.11,-16.01 156.8,-24.12 242.7,-24.12 102.6,0 214.9,11.58 333.6,34.39 153.9,29.44 286.4,83.28 393.7,160.01 107.1,76.42 193.4,170.17 256.6,278.72 60.6,104.15 102.8,220.98 125.4,347.35 20.5,115.26 30,236.87 28.1,361.5"
         inkscape:connector-curvature="0" /><path
         id="path18"
         style="fill:#990015;fill-opacity:1;fill-rule:nonzero;stroke:none"
         d="m 8835.74,4528.31 c -4.36,-48.62 -16.52,-101.98 -36.46,-160.13 -19.97,-58.16 -51.66,-121.06 -95.02,-188.75 -29.56,-45.14 -65.97,-84.62 -109.35,-118.47 -43.39,-33.84 -89.83,-59.47 -139.29,-76.8 -49.45,-17.38 -99.37,-24.74 -149.69,-22.13 -50.38,2.61 -95.03,16.49 -134.11,41.67 -39.05,25.13 -71.2,63.78 -96.32,115.84 -25.19,52.07 -36.89,119.78 -35.15,203.09 0,88.51 15.18,169.23 45.56,242.13 30.34,72.91 69,134.94 115.87,186.15 46.87,51.18 98.93,91.11 156.23,119.76 57.27,28.65 113.64,44.67 169.19,48.18 55.54,3.44 107.19,-6.97 154.92,-31.25 47.72,-24.33 84.62,-64.24 110.66,-119.76 15.62,-31.26 27.73,-66.84 36.46,-106.75 8.65,-39.95 10.81,-84.22 6.5,-132.78 m 2237.96,-222.75 c 0,29.58 -1,90.66 -2.8,183.24 -1.9,92.54 -5.1,224.89 -9.7,397.04 -4.7,172.14 -12.5,399.82 -23.6,683.03 l -752.5,-138.84 58.4,-1066.17 c 3.6,-77.74 0.9,-143.47 -8.4,-197.13 -9.3,-53.71 -18.5,-91.19 -27.8,-112.45 -9.2,-21.3 -14.8,-32.88 -16.6,-34.72 -29.6,-48.14 -56.5,-70.36 -80.5,-66.62 -24.1,3.68 -45.4,15.69 -63.9,36.09 -1.9,1.82 -7.4,11.1 -16.6,27.76 -9.3,16.66 -18.1,43.47 -26.4,80.52 -8.4,37.01 -8.8,79.57 -1.4,127.73 l 72.2,1304.95 -794.11,138.83 c -3.73,-129.06 -7.21,-248.33 -10.46,-357.82 -25.93,36.51 -57.96,72.86 -96.41,109.02 -58.14,54.68 -128.86,101.08 -212.17,139.31 -83.31,38.14 -176.64,62.87 -279.9,74.19 -103.28,11.26 -213.9,2.15 -331.93,-27.33 -124.97,-33.01 -242.6,-80.73 -352.8,-143.21 -42.57,-24.13 -83.47,-50.05 -122.8,-77.67 l -525.24,360.17 -533.09,-831.87 -444.93,814.21 364.96,7.34 27.77,638.59 291.53,41.65 -36.08,-610.83 644.15,77.74 174.24,1660.79 16.29,-1813.5 1485.41,80.53 13.88,766.31 -794.05,-74.97 5.54,152.72 463.68,36.09 58.31,485.89 -505.33,-36.1 2.79,133.28 708.33,28.54 0,0.01 495.51,-692.13 0,-816.3 746.91,-99.96 8.3,799.63 846.8,1093.95 -680.2,466.46 -533.1,-771.87 -491.42,771.87 -341.45,-266.8 23.27,219.6 -1492.5,-110.86 13.67,130.29 -791.3,-38.87 -33.32,-969 -410.93,-30.54 97.19,1018.98 -810.75,-77.74 105.51,-2207.34 294.72,5.92 -611.79,-508.17 699.68,-977.32 0,-866.3 746.89,-99.96 8.33,849.64 126.42,172.28 c 0.81,-17.53 1.92,-35.12 3.47,-52.83 11.32,-128.48 46.47,-257.76 105.44,-387.95 52.07,-116.31 119.77,-210.88 203.08,-283.78 83.34,-72.91 174.87,-127.16 274.68,-162.71 99.78,-35.57 203.94,-54.24 312.44,-56 108.44,-1.7 213.9,9.57 316.31,33.85 102.4,24.33 198.27,59.9 287.71,106.76 89.37,46.86 165.33,101.53 227.79,164 87.9,90.31 160.72,183.76 218.56,280.32 9.24,-56.25 22.1,-110.47 39.04,-162.4 40.69,-124.94 105.94,-228.14 195.76,-309.58 89.76,-81.46 204.08,-136.95 342.88,-166.59 138.82,-29.58 304.42,-25.9 497.02,11.1 125.9,24.08 230.9,66.16 315.1,126.34 84.2,60.13 150.9,132.31 199.9,216.56 49.1,84.21 82.8,178.15 101.4,281.83 18.5,103.64 26.8,211.91 25,324.85"
         inkscape:connector-curvature="0" /><path
         id="path20"
         style="fill:#ffc716;fill-opacity:1;fill-rule:nonzero;stroke:none"
         d="m 8835.74,4598.31 c -4.36,-48.62 -16.52,-101.98 -36.46,-160.13 -19.97,-58.16 -51.66,-121.06 -95.02,-188.75 -29.56,-45.14 -65.97,-84.62 -109.35,-118.47 -43.39,-33.84 -89.83,-59.47 -139.29,-76.8 -49.45,-17.38 -99.37,-24.74 -149.69,-22.13 -50.38,2.61 -95.03,16.49 -134.11,41.67 -39.05,25.13 -71.2,63.78 -96.32,115.84 -25.19,52.07 -36.89,119.78 -35.15,203.09 0,88.51 15.18,169.23 45.56,242.13 30.34,72.91 69,134.94 115.87,186.15 46.87,51.18 98.93,91.11 156.23,119.76 57.27,28.65 113.64,44.67 169.19,48.18 55.54,3.44 107.19,-6.97 154.92,-31.25 47.72,-24.33 84.62,-64.24 110.66,-119.76 15.62,-31.26 27.73,-66.84 36.46,-106.75 8.65,-39.95 10.81,-84.22 6.5,-132.78 m 2237.96,-222.75 c 0,29.58 -1,90.66 -2.8,183.24 -1.9,92.54 -5.1,224.89 -9.7,397.04 -4.7,172.14 -12.5,399.82 -23.6,683.03 l -752.5,-138.84 58.4,-1066.17 c 3.6,-77.74 0.9,-143.47 -8.4,-197.13 -9.3,-53.71 -18.5,-91.19 -27.8,-112.45 -9.2,-21.3 -14.8,-32.88 -16.6,-34.72 -29.6,-48.14 -56.5,-70.36 -80.5,-66.62 -24.1,3.68 -45.4,15.69 -63.9,36.09 -1.9,1.82 -7.4,11.1 -16.6,27.76 -9.3,16.66 -18.1,43.47 -26.4,80.52 -8.4,37.01 -8.8,79.57 -1.4,127.73 l 72.2,1304.95 -794.11,138.83 c -3.73,-129.06 -7.21,-248.33 -10.46,-357.82 -25.93,36.51 -57.96,72.86 -96.41,109.02 -58.14,54.68 -128.86,101.08 -212.17,139.31 -83.31,38.14 -176.64,62.87 -279.9,74.19 -103.28,11.26 -213.9,2.15 -331.93,-27.33 -124.97,-33.01 -242.6,-80.73 -352.8,-143.21 -42.57,-24.13 -83.47,-50.05 -122.8,-77.67 l -525.24,360.17 -533.09,-831.87 -444.93,814.21 364.96,7.34 27.77,638.59 291.53,41.65 -36.08,-610.83 644.15,77.74 174.24,1660.79 16.29,-1813.5 1485.41,80.53 13.88,766.31 -794.05,-74.97 5.54,152.72 463.68,36.09 58.31,485.89 -505.33,-36.1 2.79,133.28 708.33,28.54 0,0.01 495.51,-692.13 0,-816.3 746.91,-99.96 8.3,799.63 846.8,1093.95 -680.2,466.46 -533.1,-771.87 -491.42,771.87 -341.45,-266.8 23.27,219.6 -1492.5,-110.86 13.67,130.29 -791.3,-38.87 -33.32,-969 -410.93,-30.54 97.19,1018.98 -810.75,-77.74 105.51,-2207.34 294.72,5.92 -611.79,-508.17 699.68,-977.32 0,-866.3 746.89,-99.96 8.33,849.64 126.42,172.28 c 0.81,-17.53 1.92,-35.12 3.47,-52.83 11.32,-128.48 46.47,-257.76 105.44,-387.95 52.07,-116.31 119.77,-210.88 203.08,-283.78 83.34,-72.91 174.87,-127.16 274.68,-162.71 99.78,-35.57 203.94,-54.24 312.44,-56 108.44,-1.7 213.9,9.57 316.31,33.85 102.4,24.33 198.27,59.9 287.71,106.76 89.37,46.86 165.33,101.53 227.79,164 87.9,90.31 160.72,183.76 218.56,280.32 9.24,-56.25 22.1,-110.47 39.04,-162.4 40.69,-124.94 105.94,-228.14 195.76,-309.58 89.76,-81.46 204.08,-136.95 342.88,-166.59 138.82,-29.58 304.42,-25.9 497.02,11.1 125.9,24.08 230.9,66.16 315.1,126.34 84.2,60.13 150.9,132.31 199.9,216.56 49.1,84.21 82.8,178.15 101.4,281.83 18.5,103.64 26.8,211.91 25,324.85"
         inkscape:connector-curvature="0" /><path
         id="path22"
         style="fill:#fff805;fill-opacity:1;fill-rule:nonzero;stroke:none"
         d="m 9784.48,8123.55 -341.45,-266.8 23.27,219.6 -809.72,-60.15 -1482.22,-593.47 -11.51,-334.82 -410.93,-30.54 19.46,204.01 -684.68,-274.14 51.6,-1079.38 714.94,311.75 9.75,224.14 291.53,41.65 -8.16,-137.97 689.21,300.52 101.26,965.16 8.25,-917.41 1239.61,540.54 1.2,9.93 -505.33,-36.1 2.79,133.28 708.33,28.54 0,0.01 24.77,-34.61 679.85,296.46 -311.82,489.8 z m 102.71,-2260.08 746.91,-99.96 4.7,451.86 -751.61,-286.73 0,-65.17 z M 9543.98,3585.7 c 15.27,-17 31.4,-33.22 48.42,-48.66 89.76,-81.46 204.08,-136.95 342.88,-166.59 138.82,-29.58 304.42,-25.9 497.02,11.1 125.9,24.08 230.9,66.17 315.1,126.34 84.2,60.13 150.9,132.32 199.9,216.56 49.1,84.21 82.8,178.15 101.4,281.83 17.8,100.04 26.1,204.42 25,313.12 L 9543.98,3585.7 Z m -1503.63,806.93 c 0,88.51 15.17,169.24 45.56,242.13 30.34,72.91 69,134.94 115.86,186.15 46.88,51.18 98.94,91.11 156.24,119.76 57.27,28.65 113.64,44.67 169.19,48.18 55.54,3.45 107.19,-6.97 154.92,-31.25 47.72,-24.33 84.62,-64.24 110.66,-119.76 15.62,-31.26 27.73,-66.84 36.46,-106.75 8.65,-39.95 10.81,-84.21 6.5,-132.78 -3.85,-43 -13.84,-89.72 -29.87,-140.16 l 1330.63,463.59 37.6,678.25 -794.11,138.83 c -3.73,-129.06 -7.21,-248.33 -10.46,-357.82 -25.93,36.51 -57.96,72.86 -96.41,109.02 -58.14,54.68 -128.86,101.08 -212.17,139.31 -2.07,0.94 -4.21,1.78 -6.29,2.71 l -2660.22,-1135.9 132.04,-184.44 0,-647.63 752.58,262.19 2.64,268.82 126.42,172.28 c 0.81,-17.53 1.92,-35.12 3.47,-52.83 9.23,-104.72 34.56,-209.98 75.45,-315.82 l 583.1,203.14 c -21.38,50.31 -31.39,113.79 -29.79,190.78 m -1513.87,-947.23 746.89,-99.96 5.69,580.82 -752.58,-262.19 0,-218.67 z m 4525.82,1795.36 -738.9,-257.42 -28.3,516.69 752.5,138.84 c 5.8,-147.89 10.7,-280.5 14.7,-398.11"
         inkscape:connector-curvature="0" /><path
         id="path24"
         style="fill:#fff805;fill-opacity:1;fill-rule:nonzero;stroke:none"
         d="m 7162.85,7007.91 33.32,969 782.86,38.46 8.44,80.41 -791.3,-38.87 -33.32,-969 -403.24,-29.97 -7.69,-80.57 410.93,30.54 z m 2294.9,987.8 8.55,80.64 -1484.05,-110.23 -8.45,-80.63 1483.95,110.22 z m -2542.56,-3092.1 533.09,831.87 525.24,-360.17 c 39.33,27.62 80.23,53.54 122.8,77.67 110.2,62.48 227.83,110.2 352.8,143.21 118.03,29.48 228.65,38.6 331.93,27.33 103.26,-11.32 196.59,-36.05 279.91,-74.19 83.3,-38.23 154.02,-84.63 212.16,-139.31 38.45,-36.16 70.48,-72.51 96.41,-109.02 3.25,109.49 6.73,228.76 10.46,357.82 l 789.71,-138.06 4.4,79.23 -794.11,138.83 c -3.73,-129.06 -7.21,-248.33 -10.46,-357.82 -25.93,36.51 -57.96,72.86 -96.41,109.02 -58.14,54.68 -128.86,101.08 -212.16,139.31 -83.32,38.14 -176.65,62.87 -279.91,74.19 -103.28,11.27 -213.9,2.15 -331.93,-27.33 -124.97,-33.01 -242.6,-80.73 -352.8,-143.21 -42.57,-24.13 -83.47,-50.05 -122.8,-77.67 l -525.24,360.17 -533.09,-831.87 -401.69,735.08 -43.24,-0.87 444.93,-814.21 z m 2869.29,3139.94 491.42,-771.87 533.1,771.87 639.8,-438.72 40.4,52.26 -680.2,466.46 -533.1,-771.87 -491.42,771.87 -332.21,-259.58 -9.23,-87.22 341.44,266.8 z m -2935.37,32.8 -810.75,-77.74 3.81,-79.64 799.23,76.64 7.71,80.74 z m 2327.09,-910.88 9.69,80.7 -503.66,-35.98 -1.67,-80.12 495.64,35.4 z m 1885,-2289.63 c 4.6,-172.15 7.8,-304.5 9.7,-397.04 1.8,-92.58 2.8,-153.66 2.8,-183.24 l 0,-17.86 c 0.2,17.71 0.3,35.49 0,53.43 l 0,44.43 c 0,29.58 -1,90.66 -2.8,183.24 -1.9,92.54 -5.1,224.89 -9.7,397.04 -4.7,172.14 -12.5,399.82 -23.6,683.03 l -752.5,-138.84 4.4,-79.2 748.1,138.04 c 11.1,-283.21 18.9,-510.89 23.6,-683.03 m -4721.31,839.36 -513.08,-426.18 35.91,-50.16 575.87,478.33 -98.7,-1.99 z M 8171.82,3993.7 c 39.08,-25.18 83.74,-39.06 134.11,-41.67 50.32,-2.61 100.24,4.75 149.69,22.13 49.46,17.33 95.9,42.96 139.29,76.8 43.38,33.85 79.8,73.33 109.35,118.47 43.37,67.69 75.05,130.59 95.03,188.75 19.93,58.15 32.1,111.51 36.45,160.13 2.71,30.47 2.85,59.24 0.46,86.32 -0.17,-2.12 -0.27,-4.19 -0.46,-6.32 -4.35,-48.62 -16.52,-101.98 -36.45,-160.13 -19.98,-58.16 -51.66,-121.06 -95.03,-188.75 -29.55,-45.14 -65.97,-84.62 -109.35,-118.47 -43.39,-33.84 -89.83,-59.47 -139.29,-76.8 -49.45,-17.38 -99.37,-24.74 -149.69,-22.13 -50.37,2.61 -95.03,16.49 -134.11,41.67 -39.05,25.13 -71.2,63.78 -96.32,115.84 -20.2,41.75 -31.57,93.72 -34.45,155.56 -0.46,-10.72 -0.7,-21.53 -0.7,-32.47 -1.74,-83.31 9.96,-151.02 35.15,-203.09 25.12,-52.06 57.27,-90.71 96.32,-115.84 m 1931.48,93.61 c 8.3,-37.05 17.1,-63.86 26.4,-80.52 9.2,-16.66 14.7,-25.94 16.6,-27.76 18.5,-20.4 39.8,-32.41 63.9,-36.09 24,-3.74 50.9,18.48 80.5,66.62 1.8,1.84 7.4,13.42 16.6,34.72 9.3,21.26 18.5,58.74 27.8,112.45 8.4,48.45 11.4,106.83 9.2,174.92 -1.3,-34.95 -4.3,-66.66 -9.2,-94.92 -9.3,-53.71 -18.5,-91.19 -27.8,-112.45 -9.2,-21.3 -14.8,-32.88 -16.6,-34.72 -29.6,-48.14 -56.5,-70.36 -80.5,-66.62 -24.1,3.68 -45.4,15.69 -63.9,36.09 -1.9,1.82 -7.4,11.1 -16.6,27.76 -9.3,16.66 -18.1,43.47 -26.4,80.52 -1.9,8.1 -3.2,16.52 -4.3,25.15 -4.1,-38.97 -2.7,-74.05 4.3,-105.15 m -652.34,2479 1.45,80.14 -791.13,-74.7 -2.92,-80.28 792.6,74.84 z m -2296.44,-160.91 -31.33,-530.25 -4.75,-0.58 31.31,530.15"
         inkscape:connector-curvature="0" /><path
         id="path26"
         style="fill:#c87908;fill-opacity:1;fill-rule:nonzero;stroke:none"
         d="m 9443.04,7856.75 -51.36,-484.85 65.97,-92.15 65.97,639.96 -80.58,-62.96 z m -1469.24,108.74 -36.97,-352.39 2.92,-324.63 127.75,683.98 -93.7,-6.96 z m -0.27,-2510.19 155,-106.28 -720.47,-981.76 12.25,-124 760.56,1100.77 -207.34,111.27 z m 1417.23,-1590 c 0,0 163.43,293.99 199.49,631.69 58.58,548.63 -220.7,884.17 -220.7,884.17 13.34,-18.77 25.03,-37.59 35.07,-56.46 53.76,-104.15 94.12,-221.74 121.06,-352.78 26.9,-131.07 32.97,-266.85 18.23,-407.46 -14.77,-140.58 -54.28,-282.49 -118.46,-425.69 -19.71,-43.95 -42.38,-87.29 -67.99,-130.01 4.96,-45.47 33.3,-143.46 33.3,-143.46"
         inkscape:connector-curvature="0" /><path
         id="path28"
         style="fill:#ded5cd;fill-opacity:1;fill-rule:nonzero;stroke:none"
         d="m 4365.3,3783.3 c -11.3,-21.2 -24.2,-43.9 -38.8,-69.4 -6.7,-11.7 -14.2,-24.9 -22.3,-39.1 -186.4,37.1 -286.7,130.5 -286.7,130.5 167.5,-33.1 347.8,-22 347.8,-22"
         inkscape:connector-curvature="0" /><path
         id="path30"
         style="fill:#ded5cd;fill-opacity:1;fill-rule:nonzero;stroke:none"
         d="m 5937.9,4447.2 c 0,0 109.79,-230.8 -109.7,-312.2 7.5,-173.8 12.6,-333.8 22.8,-450.7 25.9,-297.3 76.6,-403.59 76.6,-403.59 0,0 192.5,-141.61 232.59,-283.21 35,-123.6 46.81,-317.4 -346.99,-335.19 -392.2,-17.61 -499.9,128.09 -540.51,290.29 -33.79,135 -129.69,553.4 -132.09,564 -37.3,-6.4 -70.9,-11.1 -91.1,-12.1 -68.8,-137.4 -266.3,-529.3 -350.1,-672.3 -146,-248.9 -736.5,-322.2 -886.9,-101.6 -142.8,209.5 37.1,351 217.3,460.51 0,0 179.7,317.59 274.4,483.7 8.1,14.2 15.6,27.39 22.3,39.09 14.6,25.51 27.5,48.2 38.8,69.4 54.3,101.8 70.7,167.9 53.1,340.4 -21.2,208.4 -50.2,523.8 -50.2,523.8 15.6,12.5 31.4,26.7 47.3,42.31 170.8,167.89 129,350.69 61.6,447.89 -45.7,65.91 -123.2,158.2 -271.4,344.71 -92.3,116.2 -176.2,157.4 -244.5,160.29 156,142.5 298.1,276 298.1,276 265.6,-280.09 527,-474.4 881.6,-417.5 187.2,30.1 325,116.8 439.8,254.4 0,0 245,-229.09 400.3,-428.1 150.1,-192.59 246.4,-383.3 -43.1,-880.3"
         inkscape:connector-curvature="0" /><path
         id="path32"
         style="fill:#faf8f5;fill-opacity:1;fill-rule:nonzero;stroke:none"
         d="m 5933.92,3186.97 c -32.14,18.25 -56.99,30.3 -75.89,37.42 -31.32,205.19 -67.99,542 -84.76,728.12 -24.31,269.56 -34.72,541.87 -71.31,809.06 -9.25,67.47 -12.23,172.39 -28.29,269.48 15.72,-27.1 29.47,-51.94 36.63,-70.78 54.84,-144.39 48.54,-280.76 59.66,-431.71 5.43,-73.67 1.73,-150.25 23.07,-222.42 26.57,-89.87 135.41,-127.67 147.08,-3.66 2.12,22.53 3.06,57.82 -10.18,77.65 -11.22,16.83 -43.82,29.6 -74.04,7.44 97.98,176.28 203.68,330.78 226.16,535.24 22.25,202.31 -237.46,691.89 -446.69,448.56 -175.16,-203.7 -408.88,-346.88 -689.04,-232.48 -63.15,25.79 -149.77,76.07 -217.86,37.58 -93.89,-53.12 -121.35,-214.55 -125.55,-295.07 -10.32,-198.1 -171.49,-275.3 -158.18,-467.2 6.89,-99.28 18.27,-192.09 20.25,-272.23 7.09,-287.09 -114.43,-450.16 -242.59,-695.37 -22.85,-43.71 -87.51,-157.85 -141.03,-270.62 -114.35,-20.14 -286,-219.32 -267.44,-298.5 23.02,-98.15 178.35,-138.24 263.77,-144.89 644.94,-50.13 807.17,600.79 999.17,1077.8 -35.32,-163.51 -50.49,-288.84 281.8,-209.73 -143.64,-117.51 -146.27,-184.22 -99.8,-370.06 38.6,-154.43 75.44,-319.31 225.39,-401.89 148.3,-81.66 369.46,-72.6 518.35,0.43 182.7,89.64 94.22,265.3 -68.68,357.83"
         inkscape:connector-curvature="0" /><path
         id="path34"
         style="fill:#ded5cd;fill-opacity:1;fill-rule:nonzero;stroke:none"
         d="m 3755.7,5457.9 c 13.9,72 52.7,125.4 100.3,156.1 28.2,18.2 63.8,30.5 105.2,28.69 68.3,-2.89 152.2,-44.09 244.5,-160.29 148.2,-186.5 225.7,-278.8 271.4,-344.71 67.4,-97.19 109.2,-280 -61.6,-447.89 -15.9,-15.6 -31.7,-29.8 -47.3,-42.3 -124.8,-101.1 -238.4,-107.31 -300.5,-36.4 -9.1,10.3 -16.3,20.8 -21.9,31.4 l -0.1,-0.1 c -24.9,-20.3 -365.1,-287.7 -598.4,1.2 -244.5,302.6 23.9,573.5 218.3,736.7 26.7,22.39 57.2,48.7 90,77.6"
         inkscape:connector-curvature="0" /><path
         id="path36"
         style="fill:#faf8f5;fill-opacity:1;fill-rule:nonzero;stroke:none"
         d="m 4086.31,4713.38 c 58.5,-129.98 249.71,33.77 294.51,99.71 68.3,100.53 73.55,231.4 28.62,340.23 -37.6,91.05 -151.52,197.49 -143.68,31.23 4.82,-102.8 -28.59,-161.9 -88.48,-239.91 -49.21,-64.08 -130.87,-142.55 -90.97,-231.26 m -692.22,219.63 c -19.6,-124.89 43.79,-283.1 184.58,-296.58 134.83,-12.91 322.57,118.09 401.44,217.5 158.83,200.18 -102.76,236.32 -198.75,370.18 -68.45,95.51 -97.84,134.18 -202.15,35.79 -85.51,-80.65 -166.63,-209.09 -185.12,-326.89 m 422.9,605.58 c 37.28,70.46 126.66,90.12 199.5,66.74 255,-81.89 64.95,-593.45 -160.17,-390.6 -78.93,71.12 -87.24,233.3 -39.33,323.86"
         inkscape:connector-curvature="0" /><path
         id="path38"
         style="fill:#ded5cd;fill-opacity:1;fill-rule:nonzero;stroke:none"
         d="m 5818.5,6222.8 c 23.11,32.29 45.61,65.2 67.61,98.7 -96.6,-236.31 -189.41,-427 -305.4,-565.91 C 5465.89,5618 5328.1,5531.3 5140.89,5501.2 c -354.59,-56.91 -615.98,137.4 -881.59,417.5 -42,44.3 -84.1,90.7 -126.7,138.7 236.51,-188.4 458.79,-273.2 629.01,-286.5 203.59,-120.4 468.59,-113.9 616.39,86.2 l 0,0.09 c 123.7,36.11 275.89,135.4 440.5,365.61"
         inkscape:connector-curvature="0" /><path
         id="path40"
         style="fill:#faf8f5;fill-opacity:1;fill-rule:nonzero;stroke:none"
         d="m 5290.6,5733.72 c 31.45,18.97 71.2,59.3 110.95,40.93 51,-23.6 30.93,-85.62 -1.85,-115.3 -39.79,-36.02 -103.7,-56.01 -153.75,-73.06 -99.75,-34 -221,-46.81 -325.06,-30.37 -42.32,6.68 -135.43,24.52 -125.19,84.94 10.78,63.82 100.51,37.78 141.9,30.36 126.54,-22.71 241.43,-4.83 353,62.5"
         inkscape:connector-curvature="0" /><path
         id="path42"
         style="fill:#9f2f2f;fill-opacity:1;fill-rule:nonzero;stroke:none"
         d="m 5069.6,5892 c 0,0 121.6,-89.5 308.4,-34.9 -147.8,-200.1 -412.8,-206.6 -616.4,-86.2 156.7,-12.1 269.2,36.5 308,121.1"
         inkscape:connector-curvature="0" /><path
         id="path44"
         style="fill:#ffffff;fill-opacity:1;fill-rule:nonzero;stroke:none"
         d="m 3486.6,8820.8 c 342.1,0 619.3,-277.2 619.3,-619.3 0,-342 -277.2,-619.3 -619.3,-619.3 -342,0 -619.3,277.3 -619.3,619.3 0,342.1 277.3,619.3 619.3,619.3"
         inkscape:connector-curvature="0" /><path
         id="path46"
         style="fill:#5a4227;fill-opacity:1;fill-rule:nonzero;stroke:none"
         d="m 3716.6,8740.8 c 342.1,0 619.3,-277.2 619.3,-619.3 0,-342 -277.2,-619.3 -619.3,-619.3 -342,0 -619.3,277.3 -619.3,619.3 0,342.1 277.3,619.3 619.3,619.3"
         inkscape:connector-curvature="0" /><path
         id="path48"
         style="fill:#ffffff;fill-opacity:1;fill-rule:nonzero;stroke:none"
         d="m 5839.5,9160.7 c 342,0 619.3,-277.3 619.3,-619.3 0,-342 -277.3,-619.3 -619.3,-619.3 -342,0 -619.31,277.3 -619.31,619.3 0,342 277.31,619.3 619.31,619.3"
         inkscape:connector-curvature="0" /><path
         id="path50"
         style="fill:#5a4227;fill-opacity:1;fill-rule:nonzero;stroke:none"
         d="m 5689.5,9000.7 c 342,0 619.3,-277.3 619.3,-619.3 0,-342 -277.3,-619.3 -619.3,-619.3 -342,0 -619.31,277.3 -619.31,619.3 0,342 277.31,619.3 619.31,619.3"
         inkscape:connector-curvature="0" /><path
         id="path52"
         style="fill:#ded5cd;fill-opacity:1;fill-rule:nonzero;stroke:none"
         d="m 6458.8,8541.4 c 0,342 -277.29,619.3 -619.3,619.3 -342,0 -619.3,-277.3 -619.3,-619.3 0,-342 277.3,-619.3 619.3,-619.3 342.01,0 619.3,277.3 619.3,619.3 m -572.6,-2219.8 -0.1,-0.1 c -22,-33.5 -44.5,-66.4 -67.6,-98.7 -164.6,-230.2 -316.8,-329.5 -440.5,-365.6 l 0,-0.1 c -186.8,-54.6 -308.4,34.9 -308.4,34.9 -38.8,-84.6 -151.3,-133.2 -308,-121.1 -170.2,13.3 -392.5,98.1 -629,286.5 -17.9,14.3 -35.9,29.1 -54,44.6 -269.2,230.5 -512,506.9 -722.1,785.5 64.1,266.9 446.4,450.3 940.7,762.3 494.31,312 405.2,583.5 360.6,956.2 -44.5,372.8 -267.8,1802.5 -267.8,1802.5 227.7,25.3 500.7,41.1 818.8,36.2 0,0 368.11,-278.9 624.1,-520.5 256,-241.6 664.3,-673 923.2,-934.7 C 6580.5,7963.8 6339.7,7011.3 5886.2,6321.6 m -880,0 c 755.2,105.3 1063.5,1069.2 -164.29,898.9 C 3625,7051.7 4226.8,6233.49 4981,6318.4 c 8.5,1 16.9,2 25.2,3.2"
         inkscape:connector-curvature="0" /><path
         id="path54"
         style="fill:#faf8f5;fill-opacity:1;fill-rule:nonzero;stroke:none"
         d="m 3551.94,6944.32 c 156.79,-45.73 239.78,55.29 286.37,-56.82 33.62,-80.91 96.08,-242.18 125.9,-323.55 79.94,-218.1 199.49,-348.55 378.79,-450.77 83.03,-47.32 499.15,-247.52 536.69,-41.05 36.72,201.94 -277.13,226.57 -515.41,387.35 L 5549.4,6610.3 c -153.46,-188.42 -438.61,-332.59 -381.09,-505.14 71.6,-214.81 421.44,73.47 490.62,144.94 265.5,274.27 244.38,584.36 304.63,931.86 21.59,124.57 113.17,48.73 182.22,116.27 70.24,68.7 100.32,222.7 126.75,315.89 86.38,304.67 -416.99,43.3 -830.39,323.36 -289.88,196.39 -396.66,590.76 -366.08,923.86 16.4,178.72 74.29,352.97 193.87,489.55 152.9,174.63 313.1,202.74 526.91,263.71 147.75,42.13 192.12,102.6 64.9,212.34 -146.54,126.41 -337.68,257.76 -512.2,344.36 -308.59,153.2 -606.41,200 -947.41,159.3 47.14,-303.3 217.43,-1404.23 255.67,-1724.6 44.6,-372.7 133.71,-644.2 -360.6,-956.2 -390.59,-246.54 -711.08,-412.8 -860.07,-603.4 20.83,-40.93 55.71,-84.84 114.81,-102.08"
         inkscape:connector-curvature="0" /><path
         id="path56"
         style="fill:#b19f8a;fill-opacity:1;fill-rule:nonzero;stroke:none"
         d="m 5069.6,5892 c 0,0 11.67,-8.57 33.28,-18.79 l -60.78,454.11 c -11.85,-2.12 -23.81,-4.03 -35.9,-5.72 -7.73,-1.12 -15.56,-2.05 -23.48,-2.99 l 62.19,-464.63 c 10.01,11.7 18.42,24.34 24.69,38.02"
         inkscape:connector-curvature="0" /><path
         id="path58"
         style="fill:#b19f8a;fill-opacity:1;fill-rule:nonzero;stroke:none"
         d="m 3729.38,6782.48 c 12.62,4.71 25.94,9.38 39.62,13.7 l -18.02,57.21 c -75.05,-23.63 -138.21,-56.01 -140.87,-57.38 l 27.48,-53.33 c 0.3,0.14 14.2,7.24 36.09,16.98 91.14,-241.16 198.52,-425.3 296.87,-561.34 35.52,-32.86 71.52,-65.03 108.04,-96.31 18.11,-15.5 36.11,-30.31 54,-44.6 44.91,-35.77 89.3,-67.79 132.91,-96.31 -95.23,81.11 -351.59,332.68 -536.12,821.38"
         inkscape:connector-curvature="0" /><path
         id="path60"
         style="fill:#b19f8a;fill-opacity:1;fill-rule:nonzero;stroke:none"
         d="m 6168.69,7110.11 13.87,58.38 c -74.88,17.78 -154.55,14.65 -157.91,14.53 l 2.52,-59.95 c 0.33,0.01 16.01,0.58 39.19,-0.26 -45.68,-535.58 -239.85,-875.97 -293.09,-960.43 14.96,19.06 30.04,39.18 45.23,60.42 23.11,32.3 45.61,65.2 67.61,98.7 l 0.09,0.1 c 39.4,59.91 77.09,121.93 113.37,185.68 54.93,159.49 105.66,364.16 126.58,610.54 14.02,-1.88 28.44,-4.36 42.54,-7.71"
         inkscape:connector-curvature="0" /><path
         id="path62"
         style="fill:#564f47;fill-opacity:1;fill-rule:nonzero;stroke:none"
         d="m 4841.9,7220.5 c 1227.8,170.3 919.49,-793.59 164.3,-898.9 -8.3,-1.2 -16.7,-2.19 -25.21,-3.2 C 4226.8,6233.5 3625,7051.7 4841.9,7220.5"
         inkscape:connector-curvature="0" /><path
         id="path64"
         style="fill:#90857b;fill-opacity:1;fill-rule:nonzero;stroke:none"
         d="m 4866.68,7138.71 c 695.84,93.8 954.94,-241.02 37.03,-366.8 -917.89,-125.79 -712.26,275.78 -37.03,366.8"
         inkscape:connector-curvature="0" /><path
         id="path66"
         style="fill:#575048;fill-opacity:1;fill-rule:nonzero;stroke:none"
         d="m 6945.9,10617.3 c 232.9,-63.3 396.9,-172.6 322.1,-534.9 -74.8,-362.4 -150.5,-861.4 -198.4,-1092.9 -34.6,-166.8 -54.7,-261.7 -313.49,0 -258.91,261.7 -667.21,693.1 -923.21,934.7 -255.99,241.6 -624.1,520.5 -624.1,520.5 0,0 57.5,175.5 140.9,287.6 83.4,112.2 210,152.5 512,100.7 301.91,-51.8 851.2,-152.4 1084.2,-215.7"
         inkscape:connector-curvature="0" /><path
         id="path68"
         style="fill:#575048;fill-opacity:1;fill-rule:nonzero;stroke:none"
         d="m 4105.9,8201.5 c 0,342.1 -277.2,619.3 -619.3,619.3 -342,0 -619.3,-277.2 -619.3,-619.3 0,-342 277.3,-619.3 619.3,-619.3 342.1,0 619.3,277.3 619.3,619.3 m 551.9,404.5 c 44.6,-372.7 133.71,-644.2 -360.6,-956.2 -494.3,-312 -876.6,-495.4 -940.7,-762.3 -541.1,717.3 -865.5,1449.2 -865.5,1449.2 -198.4,-310.6 -255.9,-152.5 -368.1,100.6 -112.2,253.1 -356.6,825.4 -460.2,1081.4 -103.5,255.9 -103.5,379.6 253.1,509 356.6,129.4 799.5,279 1046.9,405.5 247.3,126.6 353.7,43.2 422.7,-23 69.1,-66.1 146.7,-186.9 146.7,-186.9 0,0 286.7,122 857.9,185.2 0,0 223.3,-1429.7 267.8,-1802.5"
         inkscape:connector-curvature="0" /><path
         id="path70"
         style="fill:#90857b;fill-opacity:1;fill-rule:nonzero;stroke:none"
         d="m 4657.8,8606 c -32.91,275.68 -255.67,1724.6 -255.67,1724.6 0,0 -623.92,-43.4 -1090.71,-642.67 -119.08,-152.89 -529.87,-767.35 -395.29,-889.16 68.71,-62.22 256.82,47.79 350.93,78.94 157.65,52.17 334.8,55.19 491.76,-2.19 329.79,-120.58 507.63,-497.07 425.6,-832.87 C 4066.67,7560.63 3723.63,7582.2 3480,7320 c -91.71,-98.72 -84.55,-189.93 -42.87,-273.59 149,190.59 469.48,356.85 860.07,603.39 494.3,312 405.2,583.5 360.6,956.2"
         inkscape:connector-curvature="0" /><path
         id="path72"
         style="fill:#90857b;fill-opacity:1;fill-rule:nonzero;stroke:none"
         d="m 5286.15,10462.8 c -29.77,24.7 31.83,145.7 95.36,229.4 63.54,83.6 197.02,149.8 567.02,75.8 370,-73.9 836.92,-159.1 1068.66,-243.7 231.76,-84.7 238.7,-286.9 205.41,-440 -33.31,-153.17 -137.9,-638.92 -173.6,-923.51 -35.73,-284.6 -181.09,-85.16 -266.7,7.72 -85.6,92.88 -982.86,1118.09 -1124.09,1246.69 -141.24,128.5 -167.25,122.7 -229.31,92.5 -62.06,-30.1 -114.22,-68.6 -142.75,-44.9"
         inkscape:connector-curvature="0" /><path
         id="path74"
         style="fill:#90857b;fill-opacity:1;fill-rule:nonzero;stroke:none"
         d="m 1886.59,9933.41 c 429.21,141.79 736.2,271.59 986.72,392.79 250.53,121.1 360.23,148.1 449.69,57.8 86.45,-87.3 150.74,-211.7 111.72,-238.4 -39.01,-26.7 -104.73,-18.5 -162.22,12.3 -57.5,30.8 -110.89,45.2 -176.6,-69.8 -65.72,-115.03 -448.09,-1081.23 -665.34,-1622.31 -108.84,-271.06 -190.98,-160.17 -256.69,0 -65.71,160.18 -342.93,848.11 -435.34,1071.94 -92.41,223.83 -57.04,327.92 148.06,395.68"
         inkscape:connector-curvature="0" /><path
         id="path76"
         style="fill:#ffffff;fill-opacity:1;fill-rule:nonzero;stroke:none"
         d="m 5685.62,8909.08 c -31.98,-2.55 -55.82,-30.55 -53.26,-62.53 2.55,-31.96 30.55,-55.8 62.53,-53.25 31.95,2.55 55.81,30.55 53.25,62.51 -2.55,31.99 -30.57,55.84 -62.52,53.27 M 3714.39,8638.9 c -31.96,-2.56 -55.8,-30.55 -53.25,-62.53 2.57,-31.97 30.54,-55.81 62.52,-53.24 31.98,2.55 55.82,30.54 53.27,62.5 -2.56,31.98 -30.55,55.83 -62.54,53.27"
         inkscape:connector-curvature="0" /></g></g></svg>