<?xml version="1.0" encoding="UTF-8" standalone="no"?>
<svg
   xmlns:dc="http://purl.org/dc/elements/1.1/"
   xmlns:cc="http://creativecommons.org/ns#"
   xmlns:rdf="http://www.w3.org/1999/02/22-rdf-syntax-ns#"
   xmlns:svg="http://www.w3.org/2000/svg"
   xmlns="http://www.w3.org/2000/svg"
   xmlns:sodipodi="http://sodipodi.sourceforge.net/DTD/sodipodi-0.dtd"
   xmlns:inkscape="http://www.inkscape.org/namespaces/inkscape"
   viewBox="0 0 1662.5 1662.5"
   height="1662.5"
   width="1662.5"
   xml:space="preserve"
   version="1.1"
   id="svg2"
   inkscape:version="0.91 r13725"
   sodipodi:docname="063Umbrella.svg"><sodipodi:namedview
     pagecolor="#ffffff"
     bordercolor="#666666"
     borderopacity="1"
     objecttolerance="10"
     gridtolerance="10"
     guidetolerance="10"
     inkscape:pageopacity="0"
     inkscape:pageshadow="2"
     inkscape:window-width="1534"
     inkscape:window-height="972"
     id="namedview15736"
     showgrid="false"
     inkscape:zoom="0.14195489"
     inkscape:cx="831.25"
     inkscape:cy="831.25"
     inkscape:window-x="0"
     inkscape:window-y="0"
     inkscape:window-maximized="0"
     inkscape:current-layer="svg2" /><metadata
     id="metadata8"><rdf:RDF><cc:Work
         rdf:about=""><dc:format>image/svg+xml</dc:format><dc:type
           rdf:resource="http://purl.org/dc/dcmitype/StillImage" /></cc:Work></rdf:RDF></metadata><defs
     id="defs6"><clipPath
       id="clipPath44"
       clipPathUnits="userSpaceOnUse"><path
         id="path46"
         d="M 9448.8,8038.31 C 9180.1,7879.4 9811.8,6963.7 10072.1,7153 l 0,0 c 238.5,173.45 -259.81,904.52 -549.78,904.59 l 0,0 c -26.5,0 -51.22,-6.1 -73.52,-19.28 M 7897.99,7266 C 7326.8,6913.39 8090,5798.1 8687.6,6218.2 l 0,0 c 446.25,313.71 -50.61,1116.52 -550.49,1116.45 l 0,0 c -80.94,-0.01 -162.02,-21.07 -239.12,-68.65" /></clipPath><clipPath
       id="clipPath132"
       clipPathUnits="userSpaceOnUse"><path
         id="path134"
         d="m 4693.1,7370.2 c 0,-363.3 294.6,-657.8 657.9,-657.8 l 0,0 c 363.2,0 657.8,294.5 657.8,657.8 l 0,0 c 0,363.3 -294.6,657.8 -657.8,657.8 l 0,0 c -363.3,0 -657.9,-294.5 -657.9,-657.8 m -1161.5,247.9 c -225.5,-46.6 -77.2,-1118.29 170.7,-1069.49 l 0,0 c 242.16,47.78 56.88,1070.99 -157.04,1070.9 l 0,0 c -4.53,0 -9.1,-0.47 -13.66,-1.41" /></clipPath></defs><g
     transform="matrix(1.6551076,0,0,-1.6551076,-249.59047,1957.123)"
     id="g10"><g
       transform="scale(0.1,0.1)"
       id="g12"><path
         id="path16"
         style="fill:#ff87b6;fill-opacity:1;fill-rule:nonzero;stroke:none"
         d="m 7583.3,3335.3 c -7.1,-59.2 -8.4,-112.71 -5.3,-161.81 0,0 -146.6,16.11 -248.7,-121.7 C 7201,2878.7 6960.19,2619.5 6649.9,2728.2 c -316.6,110.9 -422.5,421.6 -361.6,660.69 76.8,301.51 411.99,422.81 541.89,287.71 97.41,-101.3 40.61,-202.1 -22.5,-317.9 -55.69,-102 -96.69,-304.9 64.51,-347.9 96.4,-25.71 189.1,43.6 305.1,162.69 131.4,134.81 284.2,174.31 406,161.81"
         inkscape:connector-curvature="0" /><path
         id="path18"
         style="fill:#ff87b6;fill-opacity:1;fill-rule:nonzero;stroke:none"
         d="m 9380.4,9336.1 71.3,-536.9 c -421.8,78.7 -814.8,-2 -814.8,-2 25.79,125.5 20.7,230.5 1.3,315.8 l 124.9,190.6 253.7,386.9 171.4,261.5 70.2,-207.2 55.1,95.2"
         inkscape:connector-curvature="0" /><path
         id="path20"
         style="fill:#ffd402;fill-opacity:1;fill-rule:nonzero;stroke:none"
         d="m 8638.2,9113 c 19.39,-85.3 24.49,-190.3 -1.3,-315.8 0,0 393,80.7 814.8,2 201.1,-37.5 408.79,-111.2 583.5,-247.2 0,0 -98.01,-155.6 -421.8,-312.3 -329.91,-159.8 -894.2,-320.8 -1827.91,-319.4 0,0 76.21,-214.3 20.21,-446.2 0,0 -172.5,185.2 -413.51,279 187.21,297.4 294.91,566.1 388.61,847.2 13.09,39.3 22.4,76.5 28.2,111.7 l 275,149.2 c 191.49,104.7 292.3,260.6 343.9,377.2 40.4,91.2 50.59,158.3 50.59,158.3 0,0 50.11,-39.7 96.81,-121.3 24.5,-42.6 47.9,-96.6 62.9,-162.4"
         inkscape:connector-curvature="0" /><path
         id="path22"
         style="fill:#ffc102;fill-opacity:1;fill-rule:nonzero;stroke:none"
         d="m 7707.77,8096.68 c 0,0 36.46,-48.68 77.72,-176.38 l 102.19,0.51 -179.91,175.87 z m 929.13,700.52 c -232.4,-30.51 -401.62,-109.07 -401.62,-109.07 l 418.87,253.44 c 0,0 1.92,-69.01 -17.25,-144.37"
         inkscape:connector-curvature="0" /><path
         id="path24"
         style="fill:#ff87b6;fill-opacity:1;fill-rule:nonzero;stroke:none"
         d="m 6699,6516 c 38.7,-553.8 73.8,-1054.3 100.7,-1436.49 -50,-3.51 -103.9,-23.62 -155.59,-47.6 -189.21,-10.21 -300.61,42.79 -300.61,42.79 167.2,374.31 263.9,699.19 263.9,699.19 -175,101.91 -290.79,218.61 -290.79,218.61 132.59,157.01 261.89,331.8 382.39,523.5"
         inkscape:connector-curvature="0" /><path
         id="path26"
         style="fill:#ff87b6;fill-opacity:1;fill-rule:nonzero;stroke:none"
         d="M 8687.6,6218.2 C 9206.11,6582.69 8451.3,7607.5 7898,7266 7326.8,6913.4 8090,5798.09 8687.6,6218.2 M 9991.3,4053.3 c 50.4,-45.61 124.1,-117.1 171.8,-185.5 78.6,-112.61 16,-169.9 -65.8,-254.71 l -0.1,0 c -14.6,-81.39 -37.8,-172.1 -174.6,-127.19 -63.3,20.8 -137.6,73.9 -271.49,101.5 -133.8,27.6 -485.21,71 -485.21,71 106.2,-86.1 205.9,-173.31 274.9,-247.3 202.9,-217.61 51.2,-364.1 51.2,-364.1 -7.5,-77.31 -21.5,-166.91 -70.3,-207.31 -71.7,-59.5 -159.39,-61.6 -333.49,54.91 -1.51,-30.4 -15.21,-59.51 -55.21,-75.31 -97.69,-38.49 -162.8,55.21 -197.6,183.91 -25.09,92.6 -45.9,191.99 -174.4,305.5 0,0 -2.7,-150.21 -27.5,-301.8 -34.8,-213.6 -60.69,-376 -60.69,-376 C 8715.2,2573.49 8822,2411.3 8737,2259 c -95.8,-171.5 -496.4,-146.3 -595.3,-31.6 -59.39,68.9 -66.7,148.5 -63.09,201.09 -33.91,-38.4 -55.8,-60.9 -55.8,-60.9 C 8097.9,2159.6 7930,1974.1 7644.3,2099.5 c -285.6,125.3 -283.19,303.19 -197.9,440.99 85.2,137.91 240.51,293.71 240.51,293.71 -54.21,94.8 -99.91,198.89 -108.91,339.29 -3.1,49.1 -1.8,102.61 5.3,161.81 1.7,13.8 3.61,27.9 5.9,42.29 45.7,288.61 258.4,566.81 365.8,749.41 106.2,180.4 187.5,288.09 185.9,359.9 -1.4,63.4 -133.09,73.8 -211.7,76.3 -200.59,6.3 -345.9,23.9 -538.2,40.4 -83.9,7.1 -159.6,16.89 -226.5,27.7 2.1,50.89 6.3,101.79 11.1,152.4 24.6,260.4 -222.9,220 -229,218.89 l -0.09,0 c -6.81,14.81 -16.81,28.61 -30.71,40.9 -10.99,9.71 -22.59,17.31 -34.9,23.01 -28.9,409.89 -67.5,960.1 -110,1567.79 133.3,226.71 253.7,475.31 353.2,744.21 105,131.3 193,255.3 268.1,374.6 241.01,-93.8 413.51,-279 413.51,-279 55.99,231.9 -20.21,446.19 -20.21,446.19 933.7,-1.39 1498,159.61 1827.9,319.41 l 0,-0.1 c 0,0 278,-705.1 967.2,-678.8 l -43.9,-267.81 158.1,122.91 c 0,0 298.5,-526.8 114.1,-1159 -113.7,-389.8 -346.5,-709.5 -664,-959.4 -417.4,-328.4 -1020.3,-482.1 -1494.9,-693.9 -232.69,-103.91 -48.3,-185.4 181.91,-252.5 208.29,-60.8 444.2,-85.2 659.89,-113.6 112.61,-14.91 235.8,-12.81 344.2,0 108.3,12.69 229.4,16.9 242.1,-74.41 12.8,-91.39 -86.8,-109.79 -86.8,-109.79 m 80.8,3099.69 c 260.3,189.31 -357,1042.81 -623.3,885.31 -268.7,-158.9 363,-1074.6 623.3,-885.31"
         inkscape:connector-curvature="0" /><path
         id="path28"
         style="fill:#ffc6ea;fill-opacity:1;fill-rule:nonzero;stroke:none"
         d="m 10418.7,7170.64 34.7,223.7 c -90.8,11.7 -189.7,-1.68 -272.3,-26.04 24.1,-119.33 -10.9,-240.94 -102.4,-281.28 -72.5,-31.94 -165.87,-25.28 -250.95,28.35 -24.98,-33.01 -47.79,-68.11 -67.75,-105.37 -307.89,88.95 -616.83,10.76 -846.12,-207.04 74.62,-229.53 52.15,-503.52 -171.19,-666.94 C 8596.84,6029.29 8404,6001 8227.46,6012.76 c -162.81,10.87 -288.89,85.89 -441.76,129.9 -208.34,59.97 -300.94,-385.73 -351.86,-514.02 -90.32,-227.55 -173.91,-448.99 -303.65,-656.85 199.35,56.55 462.6,124.53 739.81,177.46 580,110.75 1531.01,258.74 1604.5,1030.22 16.95,177.95 45.01,206.63 169.6,199.07 124.59,-7.57 817.4,-77.66 1035.9,979.95"
         inkscape:connector-curvature="0" /><path
         id="path30"
         style="fill:#ffc6ea;fill-opacity:1;fill-rule:nonzero;stroke:none"
         d="m 10227.8,6243.11 c 27.6,23.59 54,48.89 81.1,74.93 39.4,38 126.1,87.6 161.6,17.73 45.1,-89.02 -27,-220.68 -107.4,-285.73 -93.4,-75.52 -309.4,-173.06 -370.95,-48.36 -35.85,72.59 39.15,122.77 93.95,147.89 54.1,24.77 99.2,57.13 141.7,93.54"
         inkscape:connector-curvature="0" /><path
         id="path32"
         style="fill:#ffc6ea;fill-opacity:1;fill-rule:nonzero;stroke:none"
         d="m 9435.72,3346.15 c -44.82,67.91 -103.05,128.08 -164.49,181.09 -58.31,50.31 -113.62,103.94 -171.33,154.93 -167.34,147.86 -371.44,280.45 -593.26,325.03 -162.51,32.66 -357.76,54.45 -517.18,-0.67 -130.87,-45.24 -209.64,-248.82 -249.01,-371.3 -98.31,-305.8 -120.47,-624.45 22.89,-919.58 -53.14,109.39 -166.91,-33.23 -205.16,-76.52 -81.7,-92.45 -146.67,-212.29 -53.07,-335.85 104.16,-137.54 456.8,-239.09 512.41,-51.93 9.56,32.19 -2.66,96.61 -40.94,116.48 121,79.36 242.12,256.05 250.24,366.17 5.83,78.83 -3.21,153.89 11.23,232.62 7.56,-47.79 -0.51,-109.64 40.83,-140.52 29.05,-21.69 84.35,-32.66 119.29,-21.49 -40.76,-13.03 -89.35,-23.09 -116.56,-59.24 -26.63,-35.38 -37.32,-90.57 -52.78,-132.02 -49.5,-132.67 -111.93,-208.42 -38.69,-299.44 85.13,-105.77 278.88,-107.8 396.36,-70.64 179.06,56.64 179.7,193.49 58.41,305.9 -15.42,14.28 -62.27,40.39 -103.99,54.63 12.78,75.39 22.25,166.12 33.49,228.8 21.99,122.63 38.11,247.3 -2.45,368.13 -27.7,82.51 -77.54,156.19 -131.32,223.79 -26.53,33.36 -54.65,65.41 -83.16,97.08 -18.64,20.68 -45.43,63.6 -70.55,80.09 83.37,-46.27 478.77,-263.85 546.82,-425.15 25,-59.24 104.27,-398.48 202.88,-305.93 51.98,48.8 -5,157.25 -28.37,206.79 104.55,-107.6 155.71,-155.58 261.99,-198.08 182.07,-72.81 200.52,114.19 179.4,240.52 3.78,-9.21 8.01,-16.66 16.92,-21.32 78.29,55.97 7.5,189.53 -30.85,247.63 m -167.88,865.32 c -137.51,24.09 -280.84,37.5 -375.73,-30.44 -88.44,-63.33 -108.03,-167.48 -19.41,-241.53 138.41,-115.65 266.97,-164.07 411.5,-203.58 171.1,-46.79 347.35,-89.59 515.25,-145.81 64.28,-21.53 119.72,-66.14 189.25,-51.51 89.7,18.89 86.7,135.47 88.1,207.32 24.2,-71.97 96.3,-60.39 100.5,19.95 5,94.47 -230.17,319.05 -267.1,340.59 74.35,-43.37 202.6,35.77 123.2,93.87 -116.13,84.88 -391.09,-39.17 -517.14,-30.19 -69.97,4.99 -157.94,25.47 -248.42,41.33 M 7425.91,3210.13 c -69.24,-28.01 -145.7,-69.25 -199.93,-120.61 -125.55,-118.92 -335.46,-397.12 -542.49,-250.45 32.22,36.32 111.81,143.14 117.58,163.92 72.86,-44.91 149.04,-46.74 222.88,-4.28 78.69,45.25 135.91,122.07 203.69,181.04 59.67,51.93 115.86,89.7 190.6,117.16 26.16,9.61 77.87,22.99 105.69,11.62 27.93,-11.39 29.15,-40.39 8.04,-59.32 -12.61,-11.33 -32.76,-18.18 -53.38,-23.85 -19,-5.23 -38.41,-9.44 -52.68,-15.23"
         inkscape:connector-curvature="0" /><path
         id="path34"
         style="fill:#95395c;fill-opacity:1;fill-rule:nonzero;stroke:none"
         d="m 7758,7266 c -257.5,-158.96 -243.75,-472.89 -96.31,-731.3 l -95.89,-186.31 265.63,-30.64 -2.2,2.83 c 197.56,-187.7 472,-275.57 718.37,-102.38 518.51,364.49 -236.3,1389.3 -789.6,1047.8"
         inkscape:connector-curvature="0" /><path
         id="path36"
         style="fill:#95395c;fill-opacity:1;fill-rule:nonzero;stroke:none"
         d="m 10048.3,7658.15 7.8,241.77 -162.33,-19.58 c -145.58,169.42 -321.9,284.84 -434.97,217.96 -268.7,-158.9 363,-1074.6 623.3,-885.3 105.3,76.61 66.9,262.01 -33.8,445.15"
         inkscape:connector-curvature="0" /><path
         id="path38"
         style="fill:#ffffff;fill-opacity:1;fill-rule:nonzero;stroke:none"
         d="m 10072.1,7153 c 260.3,189.3 -357,1042.8 -623.3,885.3 -268.7,-158.9 363,-1074.6 623.3,-885.3 M 7898,7266 C 8451.3,7607.5 9206.1,6582.7 8687.6,6218.21 8090,5798.1 7326.8,6913.4 7898,7266"
         inkscape:connector-curvature="0" /><g
         id="g40"><g
           clip-path="url(#clipPath44)"
           id="g42"><path
             id="path48"
             style="fill:#95395c;fill-opacity:1;fill-rule:nonzero;stroke:none"
             d="M 8018,7536 C 8571.3,7877.5 9326.11,6852.69 8807.6,6488.2 8210,6068.09 7446.8,7183.4 8018,7536"
             inkscape:connector-curvature="0" /><path
             id="path50"
             style="fill:#95395c;fill-opacity:1;fill-rule:nonzero;stroke:none"
             d="m 10142.1,7383 c 260.3,189.3 -357,1042.8 -623.3,885.3 -268.7,-158.9 363,-1074.6 623.3,-885.3"
             inkscape:connector-curvature="0" /><path
             id="path52"
             style="fill:#ffffff;fill-opacity:1;fill-rule:nonzero;stroke:none"
             d="m 8115.17,7256.13 c -32.08,0 -58.08,-26.01 -58.08,-58.09 0,-32.07 26,-58.06 58.08,-58.06 32.06,0 58.08,25.99 58.08,58.06 0,32.08 -26.02,58.09 -58.08,58.09 m 1510,720 c -32.08,0 -58.08,-26.01 -58.08,-58.09 0,-32.07 26,-58.06 58.08,-58.06 32.06,0 58.08,25.99 58.08,58.06 0,32.08 -26.02,58.09 -58.08,58.09"
             inkscape:connector-curvature="0" /></g></g><path
         id="path54"
         style="fill:#ded5ce;fill-opacity:1;fill-rule:nonzero;stroke:none"
         d="m 6281.2,2441 c 6.4,-29.79 8.6,-62.61 6.1,-98.5 -17.3,-250 -226,-300.2 -455.9,-283.7 -314.2,22.5 -332.6,310.2 -225.7,455.5 10,13.7 21.1,26 33.2,36.81 194.2,173.19 573.7,159.49 639.6,-98.11 0.8,-3.8 1.7,-7.5 2.6,-11.3 0,-0.2 0,-0.49 0.1,-0.7"
         inkscape:connector-curvature="0" /><path
         id="path56"
         style="fill:#ded5ce;fill-opacity:1;fill-rule:nonzero;stroke:none"
         d="m 5157.6,2948.89 c -3.8,-43.5 -26.4,-270.09 -116.5,-567.5 -83.6,-276.09 -413.3,-278.79 -521.9,-272.69 -89.4,5.1 -280.4,21.3 -287.5,234.8 -7.1,213.51 272.2,316.8 272.2,316.8 43,121.21 76.6,342.3 90.2,545.2 -269.4,34.89 -244.6,236.51 -172.7,287.6 l 0.1,0.11 c -194.1,187.39 -244.7,379.09 -126.7,658.99 134.7,319.19 408.7,631.69 408.7,631.69 362.3,149.11 703.4,378.91 970.2,590 0,0 90.1,-232.19 384.1,-368.18 223.6,-103.61 451.6,-41.41 532.9,0 17.4,8.8 35.3,17.68 53.4,26.2 51.7,23.98 105.61,44.09 155.6,47.6 28.7,2 56.2,-1.51 81.2,-13 12.31,-5.71 23.91,-13.3 34.9,-23.01 13.9,-12.3 23.9,-26.09 30.71,-40.9 l 0.09,0 c 35.8,-77.1 -11.7,-182.69 -30.8,-262.9 -18.89,-79.31 -89.5,-128.31 -154.8,-127.79 -22.09,-95.71 -33.3,-265.11 25,-354.31 -481.1,-122.4 -772.5,-6.6 -909,79.31 l 0,-0.11 c 0,0 -9.3,-281.89 -0.2,-491.89 9.1,-210.11 118.3,-551.81 193.9,-764.71 74.3,-208.81 160,-421.4 207.8,-627.2 -65.9,257.6 -445.4,271.3 -639.6,98.11 -12.1,-10.81 -23.2,-23.11 -33.2,-36.81 l -0.2,0.11 c -17.4,106.3 -95.3,319.6 -136.8,428.69 l -0.1,0 c -114,-5.4 -235.2,0.51 -311,5.79"
         inkscape:connector-curvature="0" /><path
         id="path58"
         style="fill:#ded5ce;fill-opacity:1;fill-rule:nonzero;stroke:none"
         d="m 6995.2,4212.2 c -43.29,-10.2 -89.79,-14.3 -129,-6.49 -28.29,5.59 -52.81,17.29 -69.59,37.5 -3.81,4.49 -7.32,9.29 -10.61,14.39 -58.3,89.2 -47.09,258.6 -25,354.31 65.29,-0.51 135.91,48.49 154.8,127.79 19.11,80.21 66.61,185.8 30.81,262.9 6.09,1.1 253.59,41.5 228.98,-218.9 -4.79,-50.6 -8.98,-101.5 -11.09,-152.4 -1.8,-39.2 -2.2,-78.49 -0.71,-117.6 3.91,-97.7 37.41,-172.19 -39.68,-244 -22.61,-21 -73,-44.39 -128.91,-57.5"
         inkscape:connector-curvature="0" /><path
         id="path60"
         style="fill:#faf8f5;fill-opacity:1;fill-rule:nonzero;stroke:none"
         d="m 7149.92,4806.31 c 5.62,93.13 -36.07,179.09 -112.45,161.76 -99.78,-22.66 -68.19,-212.66 -134.48,-307.74 -61.45,-88.13 -152.01,-161.92 -142.82,-278.81 6.72,-85.61 65.82,-152.61 157.12,-148.09 109.39,5.42 215.2,50.12 230.95,161.11 7.29,51.37 -11.35,106.82 -13.32,158.35 -3.12,81.31 10.12,172.64 15,253.42 m -406.8,224.29 c -77.32,-32.27 -194.87,-80.6 -242.11,-94.82 -132.83,-39.98 -271.27,-53.9 -406.28,-84.18 -63.98,-14.34 -139.7,-28.23 -197.37,-60.79 -41.83,-23.62 -189.67,-120.84 -272.95,-174.28 -234.43,-150.41 -327.78,-178.41 -592.47,-262.95 -135.21,-43.19 -352.75,-77.97 -367.59,-199.19 -24.63,-201.17 -15,-386.48 -18.81,-706.91 -2.09,-175.23 -33.19,-508.44 -114.62,-821.5 -329.04,-91.63 -346.06,-338.33 -126.57,-420.01 228.72,-85.1 503.67,37.76 606.66,249.88 43.44,89.45 66.74,192.53 60.35,292.12 -2.58,40.22 -33.62,228.29 -98.25,227.08 80.23,1.5 549.57,-48.82 500.15,131.83 52.34,-191.3 132.97,-392.44 220.62,-571.17 -180.36,-129.67 -137.72,-284.35 -8.81,-356.88 146.06,-82.18 413.6,-69.13 507.44,78.98 132.47,209.11 -184.01,790.08 -245.5,1009.62 -105.18,375.5 -150.89,609.17 -206.49,962.57 -19.46,123.65 -44.87,205.64 -77.3,256.65 44.52,-1.08 89.57,-5.51 135.73,-17.24 247.97,-63.07 464.73,-261.13 731.38,-142.37 108.12,48.16 88,169.82 76.4,265.97 -6.18,51.1 -15.64,105.29 -5.77,156.57 10.49,54.48 47.95,101.15 53.03,157.47 -9.59,-106.44 -9.59,-268.8 135.96,-249.96 51.61,6.68 83.98,78.54 108.78,162.35 39.68,134.16 32.42,289.62 -155.61,211.16 M 4618.55,4125.13 c -7.05,-293.1 -23.36,-587.36 -27.09,-880.75 -219.46,10.7 -242.31,351.51 -44.9,122.83 -19.03,107.18 -121.82,178.98 -176.44,273.3 -75.97,131.18 -98.99,313.59 -23.44,450.15 38.01,68.68 102.29,121.91 178.82,142.05 106.34,27.98 95.68,-19.41 93.21,-101.77 -0.05,-1.92 -0.11,-3.85 -0.16,-5.81"
         inkscape:connector-curvature="0" /><path
         id="path62"
         style="fill:#ded5ce;fill-opacity:1;fill-rule:nonzero;stroke:none"
         d="m 3882.8,4625.9 c -22.7,1.6 -45.4,3.8 -68,6.6 -458.9,57.5 -699.3,338 -785,648.7 102.2,-146 287.1,-233.4 564.3,-206.5 0,0 47.7,-290.29 288.7,-448.8"
         inkscape:connector-curvature="0" /><path
         id="path64"
         style="fill:#553758;fill-opacity:1;fill-rule:nonzero;stroke:none"
         d="m 7588.8,4430.9 c 19,-280.2 -152.2,-438.7 -319.3,-467.4 -19,-3.2 -38.6,-4.89 -58.4,-4.89 -131.69,0 -277,73.19 -344.9,247.09 39.2,-7.8 85.71,-3.7 129,6.5 59.5,-109.3 164.4,-145.8 254,-130.4 119.6,20.51 233.9,133.9 219.9,341 -2.19,33.1 22.81,61.7 55.8,63.9 33.2,2.4 61.7,-22.69 63.9,-55.8"
         inkscape:connector-curvature="0" /><path
         id="path66"
         style="fill:#553758;fill-opacity:1;fill-rule:nonzero;stroke:none"
         d="m 6770.9,6634.3 c 42.5,-607.7 81.1,-1157.9 110,-1567.79 -25,11.49 -52.5,15 -81.2,13 -26.9,382.19 -62,882.69 -100.69,1436.49 24.29,38.7 48.3,78.2 71.89,118.3"
         inkscape:connector-curvature="0" /><path
         id="path68"
         style="fill:#90857b;fill-opacity:1;fill-rule:nonzero;stroke:none"
         d="m 3814.8,4632.5 c 22.6,-2.8 45.3,-5 68,-6.6 -241,158.5 -288.7,448.8 -288.7,448.8 -47.2,-4.58 -91.66,-5.77 -133.56,-4 l 325.58,-434.12 c 9.51,-1.4 18.98,-2.87 28.68,-4.08"
         inkscape:connector-curvature="0" /><path
         id="path70"
         style="fill:#564f47;fill-opacity:1;fill-rule:nonzero;stroke:none"
         d="m 4325,5711 c 34.6,-302.39 -247.6,-578.9 -705.6,-633.59 -8.5,-1.02 -17,-1.91 -25.3,-2.71 -277.2,-26.9 -462.1,60.5 -564.3,206.51 -44.4,63.59 -73.3,138.3 -87.2,219.5 -17.5,101.99 1.1,201.79 75.7,287.9 72.8,83.99 198.8,154.78 396.6,201.78 424.8,100.82 874.6,31.62 910.1,-279.39"
         inkscape:connector-curvature="0" /><path
         id="path72"
         style="fill:#92877e;fill-opacity:1;fill-rule:nonzero;stroke:none"
         d="m 4099.27,5728.94 c -6.68,-37.92 -26.93,-77.09 -64.44,-114.98 -109.36,-110.39 -348.27,-157.95 -503.93,-186.58 -141.98,-26.11 -500.58,-46.93 -546.64,133.35 -56.1,219.61 315.08,344.48 472.93,377.09 197.84,40.84 694.84,90.63 642.08,-208.88"
         inkscape:connector-curvature="0" /><path
         id="path74"
         style="fill:#564f47;fill-opacity:1;fill-rule:nonzero;stroke:none"
         d="m 6488.3,9530.3 c 27.1,-10 54.6,-20 82.3,-30.1 184.9,-66.7 380.6,-133.2 546.9,-184.7 106.3,-33 200.59,-59.8 272.4,-76.8 66,-15.6 131.1,-38.3 189.9,-69.5 156.2,-83.1 267.2,-226.6 229.2,-457.2 -5.8,-35.2 -15.1,-72.4 -28.2,-111.7 -93.7,-281.1 -201.4,-549.8 -388.6,-847.2 -75.1,-119.3 -163.1,-243.3 -268.1,-374.6 -734.6,445.1 -972.8,1190.6 -972.8,1190.6 -197.2,-51.9 -364.1,-93.7 -452.4,-107.4 -237.6,-36.9 -325,-20.2 -263.9,215 49.5,190.7 109.1,385.4 157.6,564.6 11.3,41.8 22,82.8 31.8,122.6 39.6,160.9 145,321.7 347.5,326.4 62.9,1.5 135.1,-12.1 217.6,-45.4 87.6,-35.4 190.1,-74.7 298.8,-114.6"
         inkscape:connector-curvature="0" /><path
         id="path76"
         style="fill:#92877e;fill-opacity:1;fill-rule:nonzero;stroke:none"
         d="m 6259.77,8320.61 c 111.07,-215.56 316.07,-533.45 653.69,-796.82 66.27,-49.68 149.13,-106.59 149.13,-106.59 432.98,722.48 658.45,1229.66 500.52,1335.96 -157.91,106.29 -465.4,-176.14 -1303.34,-432.55"
         inkscape:connector-curvature="0" /><path
         id="path78"
         style="fill:#92877e;fill-opacity:1;fill-rule:nonzero;stroke:none"
         d="m 5576.88,9024.36 c -40.64,-138.57 -76,-281.25 -94.17,-428.11 -9.89,-80 227.47,-18.89 327.47,11.11 340.2,92.25 668.58,213.25 976.99,368.89 -378.42,134.2 -809.78,117.84 -1210.29,48.11"
         inkscape:connector-curvature="0" /><path
         id="path80"
         style="fill:#ded5ce;fill-opacity:1;fill-rule:nonzero;stroke:none"
         d="m 6008.8,7370.2 c 0,363.3 -294.6,657.8 -657.8,657.8 -363.3,0 -657.9,-294.5 -657.9,-657.8 0,-363.3 294.6,-657.8 657.9,-657.8 363.2,0 657.8,294.5 657.8,657.8 M 4802.1,9112.8 c 168,36.8 431.9,86.4 788.7,129 l 1.8,-0.5 c -48.5,-179.2 -108.1,-373.9 -157.6,-564.6 -61.1,-235.2 26.3,-251.9 263.9,-215 88.3,13.7 255.2,55.5 452.4,107.4 0,0 238.2,-745.5 972.8,-1190.6 -99.5,-268.9 -219.9,-517.5 -353.2,-744.2 -23.59,-40.1 -47.6,-79.6 -71.89,-118.3 -120.51,-191.7 -249.81,-366.5 -382.41,-523.5 -153.1,-181.2 -310.7,-338.7 -464.5,-471.2 -54.7,-47.1 -114.4,-96.7 -178.4,-147.4 -266.8,-211.1 -607.9,-440.9 -970.2,-590 -269.1,-110.8 -550,-177 -820.7,-158 -241,158.5 -288.7,448.8 -288.7,448.8 8.3,0.8 16.8,1.7 25.3,2.7 458,54.7 740.2,331.2 705.6,633.6 -35.5,311 -485.3,380.2 -910.1,279.4 -197.8,-47 -323.8,-117.8 -396.6,-201.8 27.9,127 75.7,242.3 127.9,345.4 0,0 0.3,0.5 0.8,1.4 8.3,14.1 82.7,129.4 330.2,215.7 263.9,92 586,152.5 622.3,600.5 36.3,448 -48.4,876.6 -9.7,1157.5 38.7,280.9 207.5,737.3 704.3,1001.9 2.6,0.6 5.3,1.2 8,1.8"
         inkscape:connector-curvature="0" /><path
         id="path82"
         style="fill:#564f47;fill-opacity:1;fill-rule:nonzero;stroke:none"
         d="m 3531.6,7618.1 c -225.5,-46.6 -77.2,-1118.3 170.7,-1069.5 247.3,48.8 48.8,1114.8 -170.7,1069.5 m -100.1,-653.6 c -25.4,219.4 -145.4,1103.7 -145.4,1103.7 l -173.2,251.7 C 2408.3,8188 2254,8292.2 2240.1,8356 c -18.8,85.8 79.4,152.7 232.1,192.4 152.7,39.7 516.2,155.8 794.2,332.9 60.8,38.7 121.1,77.8 180.4,115.7 163.6,104.4 319.4,200.2 455.5,257.1 40.3,16.9 78.9,30.4 115.4,39.6 204.7,51.9 363.5,-39.7 565.1,-235.2 0,0 71,21.5 211.3,52.5 -496.8,-264.6 -665.6,-721 -704.3,-1001.9 -38.7,-280.9 46,-709.5 9.7,-1157.5 -36.3,-448 -358.4,-508.5 -622.3,-600.5 -247.5,-86.3 -321.9,-201.6 -330.2,-215.7 73.5,145 155.8,265.7 203.7,360.4 101.6,200.9 106.2,249.4 80.8,468.7"
         inkscape:connector-curvature="0" /><path
         id="path84"
         style="fill:#92877e;fill-opacity:1;fill-rule:nonzero;stroke:none"
         d="m 3034.72,8719.67 c -151,-69.87 -306.85,-120.46 -465.03,-170.49 -54.4,-17.2 -112.37,-29.78 -169.37,-57.52 -69.9,-34.02 -42.39,-110 40.47,-112.81 207.14,-7.01 455.36,97.07 631.66,179.79 39.68,18.62 177.31,90.42 267.89,140.95 -101.88,36.38 -203.75,32.41 -305.62,20.08"
         inkscape:connector-curvature="0" /><path
         id="path86"
         style="fill:#92877e;fill-opacity:1;fill-rule:nonzero;stroke:none"
         d="m 3719.53,8107.89 c -83.59,-160.78 -112.93,-307.92 -48.59,-416.64 189.13,-319.54 224.89,-618.33 225.83,-855.77 1.3,-331.81 -212.5,-408.88 -299.58,-444.21 233.06,78.26 471.38,178.7 502.31,560.33 36.3,448 -48.4,876.6 -9.7,1157.5 2.67,19.38 6.03,39.66 10,60.59 -130.06,15.9 -268.02,-2.13 -380.27,-61.8"
         inkscape:connector-curvature="0" /><path
         id="path88"
         style="fill:#92877e;fill-opacity:1;fill-rule:nonzero;stroke:none"
         d="m 3531.6,7618.1 c -225.5,-46.6 -77.2,-1118.3 170.7,-1069.5 247.3,48.8 48.8,1114.8 -170.7,1069.5"
         inkscape:connector-curvature="0" /><path
         id="path90"
         style="fill:#553758;fill-opacity:1;fill-rule:nonzero;stroke:none"
         d="m 6363.8,11315.8 c -11.3,161.4 -17.8,255 -18.3,261.4 -1.5,22.1 15.1,41.2 37.2,42.7 22.1,1.6 41.1,-15.1 42.6,-37.1 0.5,-6.5 7,-99.9 18.2,-261.1 -19.3,-1.2 -38.7,-2.6 -58.1,-4.1 -7.2,-0.5 -14.4,-1.1 -21.6,-1.8"
         inkscape:connector-curvature="0" /><path
         id="path92"
         style="fill:#6c476f;fill-opacity:1;fill-rule:nonzero;stroke:none"
         d="m 6457.2,9976.8 c -178.9,-14.6 -330.8,-40.4 -451.9,-67.5 -215.6,-48.1 -333.7,-100.2 -333.7,-100.2 -205.8,31.9 -400,32 -573.5,15.2 -459.1,-44.2 -773.3,-205.9 -773.3,-205.9 -71.8,4.3 -142.3,3.6 -210.7,-0.7 C 3687.7,9591 3349,9422.1 3349,9422.1 c -60.6,-5.5 -117.1,-13.9 -169.6,-24.5 -391.3,-78.5 -561.6,-275.8 -561.6,-275.8 0,0 215.9,7.7 295.9,-123.4 0,0 267.8,61.1 533.1,-1.4 163.6,104.4 319.4,200.2 455.5,257.1 40.3,16.9 78.9,30.4 115.4,39.6 204.7,51.9 363.5,-39.7 565.1,-235.2 0,0 71,21.5 211.3,52.5 2.6,0.6 5.3,1.2 8,1.8 168,36.8 431.9,86.4 788.7,129 l 1.8,-0.5 c 11.3,41.8 22,82.8 31.8,122.6 39.6,160.9 145,321.7 347.5,326.4 62.9,1.5 135.1,-12.1 217.6,-45.4 87.6,-35.4 190.1,-74.7 298.8,-114.6 -10.7,154.1 -21.2,303.4 -31.1,446.5"
         inkscape:connector-curvature="0" /><path
         id="path94"
         style="fill:#553758;fill-opacity:1;fill-rule:nonzero;stroke:none"
         d="m 6570.6,9500.3 0,-0.1 c -27.7,10.1 -55.2,20.1 -82.3,30.1 -10.7,154.1 -21.2,303.4 -31.1,446.5 26,2.1 52.6,4 79.8,5.6 10.7,-154.2 22,-315.4 33.6,-482.1"
         inkscape:connector-curvature="0" /><path
         id="path96"
         style="fill:#6c476f;fill-opacity:1;fill-rule:nonzero;stroke:none"
         d="m 10007.8,9907.4 c -196.01,30.8 -338.91,5.8 -338.91,5.8 -349.69,107.3 -688.49,99.6 -903.19,76.4 -142.7,-15.4 -230.61,-37.6 -230.61,-37.6 -283.49,76.6 -601.29,79.5 -850.29,62.7 -255.2,-17.1 -438.3,-54.9 -438.3,-54.9 -110.4,13.2 -216.1,21.5 -316.6,25.7 -141.3,6.1 -272.6,4.1 -392.9,-3.1 10.7,-154.2 22,-315.4 33.6,-482.1 l 0,-0.1 c 184.9,-66.7 380.6,-133.2 546.9,-184.7 106.3,-33 200.59,-59.8 272.4,-76.8 66,-15.6 131.09,-38.3 189.9,-69.5 350.7,32.7 657.3,-3.9 657.3,-3.9 62.59,29.6 126.7,53.7 190.8,73.1 40.4,91.2 50.59,158.3 50.59,158.3 0,0 50.11,-39.7 96.81,-121.3 l 0.1,0.1 c 64.1,13 127.19,22 187.69,28.1 l 253.7,386.9 171.41,261.5 70.2,-207.2 55.09,95.2 66.91,-503.9 c 372.5,208.6 883.8,187.8 883.8,187.8 92.9,158.1 244.6,179.8 244.6,179.8 -171.2,124.2 -351.6,180.2 -501,203.7"
         inkscape:connector-curvature="0" /><path
         id="path98"
         style="fill:#aa79ad;fill-opacity:1;fill-rule:nonzero;stroke:none"
         d="m 10508.8,9703.7 c -171.2,124.2 -351.6,180.2 -501,203.7 -196,30.8 -338.9,5.8 -338.9,5.8 -1001.8,1338.2 -2871.59,1404.8 -3225.1,1405.1 -28.96,0 -58.35,-1.2 -58.4,-0.7 -0.05,0.6 33.82,2.7 58.1,4.1 2863.1,192.6 4065.3,-1618 4065.3,-1618"
         inkscape:connector-curvature="0" /><path
         id="path100"
         style="fill:#6c476f;fill-opacity:1;fill-rule:nonzero;stroke:none"
         d="m 6443.8,11318.3 c 353.51,-0.3 2223.3,-66.9 3225.1,-1405.1 0,0 -839.06,1414.3 -3225.1,1405.1"
         inkscape:connector-curvature="0" /><path
         id="path102"
         style="fill:#aa79ad;fill-opacity:1;fill-rule:nonzero;stroke:none"
         d="m 8535.1,9952 c -543.19,1381.1 -2149.7,1365.6 -2149.7,1365.6 0,0 20.5,0.7 58.4,0.7 353.51,-0.3 2223.3,-66.9 3225.1,-1405.1 -349.7,107.3 -688.5,99.6 -903.19,76.4 C 8623,9974.2 8535.1,9952 8535.1,9952"
         inkscape:connector-curvature="0" /><path
         id="path104"
         style="fill:#6c476f;fill-opacity:1;fill-rule:nonzero;stroke:none"
         d="m 8535.1,9952 c -377.37,959.5 -1267.97,1244.9 -1776.53,1329.8 0,0 1348.14,-81.2 1776.53,-1329.8"
         inkscape:connector-curvature="0" /><path
         id="path106"
         style="fill:#aa79ad;fill-opacity:1;fill-rule:nonzero;stroke:none"
         d="m 8535.1,9952 c -283.5,76.6 -601.3,79.5 -850.29,62.7 -255.21,-17.1 -438.3,-54.9 -438.3,-54.9 -212.9,1101.8 -861.11,1357.8 -861.11,1357.8 0,0 1606.51,15.5 2149.7,-1365.6"
         inkscape:connector-curvature="0" /><path
         id="path108"
         style="fill:#6c476f;fill-opacity:1;fill-rule:nonzero;stroke:none"
         d="m 7254.28,9959.8 c 0,0 -67.22,999.8 -868.88,1357.8 0,0 648.21,-256 861.11,-1357.8"
         inkscape:connector-curvature="0" /><path
         id="path110"
         style="fill:#aa79ad;fill-opacity:1;fill-rule:nonzero;stroke:none"
         d="m 6385.4,11317.6 c 0,0 648.2,-256 861.1,-1357.8 -110.4,13.2 -216.1,21.5 -316.6,25.7 -141.3,6.1 -272.6,4.1 -392.9,-3.1 -27.2,-1.6 -53.8,-3.5 -79.8,-5.6 -178.9,-14.6 -330.8,-40.4 -451.9,-67.5 -215.6,-48.1 -333.7,-100.2 -333.7,-100.2 3.3,1088.7 702.7,1502 713.7,1508.4"
         inkscape:connector-curvature="0" /><path
         id="path112"
         style="fill:#6c476f;fill-opacity:1;fill-rule:nonzero;stroke:none"
         d="m 5671.6,9809.1 c 0,0 32.65,1014.9 713.7,1508.4 -11,-6.4 -710.4,-419.7 -713.7,-1508.4"
         inkscape:connector-curvature="0" /><path
         id="path114"
         style="fill:#aa79ad;fill-opacity:1;fill-rule:nonzero;stroke:none"
         d="m 4324.8,9618.4 c 563.2,1473.7 2043.9,1696.7 2060.5,1699.1 -11,-6.4 -710.4,-419.7 -713.7,-1508.4 -205.8,31.9 -400,32 -573.5,15.2 -459.1,-44.2 -773.3,-205.9 -773.3,-205.9"
         inkscape:connector-curvature="0" /><path
         id="path116"
         style="fill:#6c476f;fill-opacity:1;fill-rule:nonzero;stroke:none"
         d="m 4324.8,9618.4 c 563.2,1473.7 2043.9,1696.7 2060.5,1699.1 0,0 -1438.74,-268.7 -2060.5,-1699.1"
         inkscape:connector-curvature="0" /><path
         id="path118"
         style="fill:#aa79ad;fill-opacity:1;fill-rule:nonzero;stroke:none"
         d="m 6385.3,11317.5 c -16.6,-2.4 -1497.3,-225.4 -2060.5,-1699.1 -71.8,4.3 -142.3,3.6 -210.7,-0.7 C 3687.7,9591 3349,9422.1 3349,9422.1 c 0,0 938.2,1678.2 3036.4,1895.5"
         inkscape:connector-curvature="0" /><path
         id="path120"
         style="fill:#6c476f;fill-opacity:1;fill-rule:nonzero;stroke:none"
         d="m 3349,9422.1 c 0,0 817.08,1461.5 2631.5,1833.3 0,0 -1495.23,-210.7 -2631.5,-1833.3"
         inkscape:connector-curvature="0" /><path
         id="path122"
         style="fill:#aa79ad;fill-opacity:1;fill-rule:nonzero;stroke:none"
         d="M 6385.4,11317.6 C 4287.2,11100.3 3349,9422.1 3349,9422.1 c -60.6,-5.5 -117.1,-13.9 -169.6,-24.5 -391.3,-78.5 -561.6,-275.8 -561.6,-275.8 0,0 1011.1,1975.9 3746,2194 7.2,0.7 14.4,1.3 21.6,1.8"
         inkscape:connector-curvature="0" /><path
         id="path124"
         style="fill:#faf8f5;fill-opacity:1;fill-rule:nonzero;stroke:none"
         d="m 5351.01,6617.98 c -415.46,0 -752.33,336.77 -752.33,752.22 0,415.45 336.87,752.22 752.33,752.22 415.34,0 752.22,-336.77 752.22,-752.22 0,-415.45 -336.88,-752.22 -752.22,-752.22 m 908.81,1702.67 c -249.38,-67.26 -633.25,-160.08 -720.39,-73.4 -31.22,31.04 -29.38,77.71 -0.72,146.37 -416.57,105.12 -895.5,-33.71 -1228.71,-283.62 -63.15,30.21 -135.37,50.54 -210.21,59.69 -3.97,-20.93 -7.33,-41.21 -9.99,-60.59 -38.7,-280.9 46,-709.5 9.71,-1157.5 -30.94,-381.63 -269.25,-482.07 -502.31,-560.33 -61.65,-103.42 -143.33,-270.04 -182.29,-400.87 424.8,100.8 874.6,31.6 910.09,-279.4 32.44,-283.5 -193.99,-564.79 -597.09,-663.21 -95.73,-19.66 -35.38,-205.14 62.05,-204.68 292.72,1.38 586.9,72.43 857.91,179.4 141.22,55.73 219.48,136.77 290.92,265.44 65.34,117.69 131.98,278.03 290.23,277.81 104.61,-0.14 171.76,-107.99 279.73,-55.94 207.62,100.1 430.59,341.37 588.01,506.51 281.54,295.35 527.65,624.91 737.4,974.73 82.57,137.72 163.44,279.04 228.44,426.15 l -149.07,106.64 c -337.71,263.42 -542.65,581.27 -653.71,796.8"
         inkscape:connector-curvature="0" /><path
         id="path126"
         style="fill:#ffffff;fill-opacity:1;fill-rule:nonzero;stroke:none"
         d="m 4693.1,7370.2 c 0,-363.3 294.6,-657.8 657.9,-657.8 363.2,0 657.8,294.5 657.8,657.8 0,363.3 -294.6,657.8 -657.8,657.8 -363.3,0 -657.9,-294.5 -657.9,-657.8 m -1161.5,247.9 c 219.5,45.3 418,-1020.7 170.7,-1069.5 -247.9,-48.8 -396.2,1022.9 -170.7,1069.5"
         inkscape:connector-curvature="0" /><g
         id="g128"><g
           clip-path="url(#clipPath132)"
           id="g130"><path
             id="path136"
             style="fill:#574027;fill-opacity:1;fill-rule:nonzero;stroke:none"
             d="m 4923.1,7240.2 c 0,-363.3 294.6,-657.8 657.9,-657.8 363.2,0 657.8,294.5 657.8,657.8 0,363.3 -294.6,657.8 -657.8,657.8 -363.3,0 -657.9,-294.5 -657.9,-657.8 m -1161.5,247.9 c 219.5,45.3 418,-1020.7 170.7,-1069.5 -247.9,-48.8 -396.2,1022.9 -170.7,1069.5"
             inkscape:connector-curvature="0" /><path
             id="path138"
             style="fill:#ffffff;fill-opacity:1;fill-rule:nonzero;stroke:none"
             d="m 3675.17,7276.13 c -32.08,0 -58.08,-26.01 -58.08,-58.09 0,-32.07 26,-58.06 58.08,-58.06 32.06,0 58.08,25.99 58.08,58.06 0,32.08 -26.02,58.09 -58.08,58.09 m 1830,470 c -32.08,0 -58.08,-26.01 -58.08,-58.09 0,-32.07 26,-58.06 58.08,-58.06 32.06,0 58.08,25.99 58.08,58.06 0,32.08 -26.02,58.09 -58.08,58.09"
             inkscape:connector-curvature="0" /></g></g><path
         id="path140"
         style="fill:#c74a79;fill-opacity:1;fill-rule:nonzero;stroke:none"
         d="m 10294.7,6496.33 c -0.9,-0.62 -56.7,-42.95 -128,-97.64 -39,72.84 -94.9,155.82 -130.7,206.92 l 11.2,231.69 -323.3,-208.04 265.21,-61.35 c 36.59,-52.44 92.89,-136.48 129.29,-206.33 -19.6,-15.1 -39.6,-30.61 -59.4,-46.02 -93.11,-72.35 -199.93,-116.7 -434.37,-113.19 5.8,41.58 14.62,65 14.99,65.95 0,0.01 0.04,0.1 0.04,0.11 l -27.9,11.03 -27.86,11.13 c -1.39,-3.49 -33.96,-86.91 -21.42,-223.6 l 59.75,5.49 c -2.35,25.53 -2.87,48.81 -2.35,69.91 11.6,-0.21 22.97,-0.34 34.08,-0.34 202.43,0 326.21,36.26 441.84,126.14 113.3,88.03 233.9,179.39 235.1,180.31"
         inkscape:connector-curvature="0" /><path
         id="path142"
         style="fill:#ffffff;fill-opacity:1;fill-rule:nonzero;stroke:none"
         d="m 10601.6,6816.08 c 0,0 -17.4,-3.68 -43.2,-10.17 -12.8,-3.31 -27.8,-7.12 -43.7,-11.6 -16,-4.21 -32.8,-9.53 -49.6,-14.57 -8.4,-2.54 -17,-4.65 -25.6,-6.61 -8.5,-1.94 -16.8,-4.05 -24.4,-7.15 -15.1,-6.38 -27.7,-15.65 -38.2,-24.4 -5.2,-4.39 -9.9,-8.83 -13.8,-13.12 -4,-4.24 -7.3,-8.17 -9.9,-11.7 -2.7,-3.48 -4.7,-6.41 -6,-8.58 -1.3,-2.16 -2,-3.32 -2,-3.32 l 2.4,-5.5 c 0,0 1.3,-0.29 3.8,-0.82 2.5,-0.54 6,-1.09 10.3,-1.52 4.4,-0.5 9.6,-0.72 15.4,-0.74 5.8,-0.05 12.2,0.28 19,1.1 13.5,1.68 28.9,4.59 43.9,11.24 7.4,3.41 14.7,8.04 21.9,12.94 7.2,4.89 14.7,9.72 22.3,14.14 15.2,8.85 30.5,17.44 44.5,26.26 14.2,8.55 27.2,16.91 38.4,24.03 22.3,14.36 36.9,24.59 36.9,24.58 l -2.4,5.51 z m -141.6,264.93 c 0,0 -20.1,-17.12 -49.5,-43.51 -14.7,-13.24 -31.8,-28.65 -49.8,-45.45 -18.3,-16.6 -37.1,-34.93 -56.1,-53.04 -9.5,-9.06 -19.3,-17.82 -29.1,-26.36 -9.8,-8.52 -19.3,-17.05 -27.6,-26.08 -16.5,-18.18 -29.2,-37.56 -39.5,-54.75 -10.1,-17.26 -17.3,-32.78 -21.7,-44.25 -4.5,-11.39 -6.3,-18.58 -6.3,-18.58 l 4.5,-4 c 0,0 7,2.55 17.8,8.23 10.9,5.59 25.6,14.45 41.6,26.44 16,12.06 33.8,26.81 50.1,45.19 8.1,9.26 15.5,19.62 22.9,30.29 7.4,10.66 15.1,21.4 23,31.84 16,20.89 32.1,41.57 46.6,61.54 14.8,19.76 28.2,38.47 39.8,54.48 23,32.12 37.8,54 37.8,54 l -4.5,4.01 z m -215.1,75.13 c 0,0 -11.2,-13.06 -27.1,-33.15 -7.9,-10.07 -17.2,-21.81 -26.7,-34.59 -9.9,-12.64 -19.5,-26.55 -29.5,-40.32 -4.9,-6.89 -10.3,-13.57 -15.7,-20.07 -5.4,-6.5 -10.5,-12.99 -14.4,-19.83 -7.8,-13.77 -11.8,-28.36 -14.5,-41.3 -1.4,-6.48 -2.2,-12.63 -2.6,-18.27 -0.4,-5.62 -0.6,-10.63 -0.5,-14.92 0.1,-4.26 0.4,-7.7 0.8,-10.14 0.3,-2.45 0.5,-3.74 0.5,-3.74 l 5.2,-2.9 c 0,0 1.2,0.55 3.5,1.57 2.2,1.02 5.3,2.65 8.9,4.86 3.7,2.17 7.8,5.01 12.4,8.39 4.5,3.36 9.2,7.36 14,11.96 9.5,9.23 19.6,20.48 27.1,34.41 3.6,7 6.3,14.82 8.9,22.86 2.6,8.04 5.4,16.14 8.5,24.02 6.3,15.77 12.9,31.39 18.2,46.45 5.7,14.92 10.6,29.03 14.9,41.11 8.4,24.22 13.4,40.71 13.4,40.71 l -5.3,2.89 z M 9373.77,6054.7 c 0,0 24.05,17.57 59.26,44.87 17.68,13.56 38.37,29.33 60.11,46.67 21.98,17.09 44.79,36 67.82,54.67 11.5,9.34 23.32,18.36 35.04,27.14 11.77,8.72 23.07,17.61 33.38,26.88 20.37,18.82 36.9,39.03 50.47,56.98 6.77,9 12.68,17.58 17.65,25.45 4.99,7.86 9.19,14.88 12.41,20.9 6.52,11.97 9.56,19.55 9.56,19.55 l -4.1,4.38 c 0,0 -7.76,-2.51 -20.15,-8.21 -6.23,-2.82 -13.51,-6.53 -21.68,-10.98 -8.2,-4.43 -17.15,-9.74 -26.59,-15.89 -18.83,-12.32 -40.11,-27.46 -60.25,-46.51 -9.95,-9.66 -19.59,-20.33 -29.08,-31.49 -9.54,-11.1 -19.34,-22.28 -29.44,-33.13 -20.18,-21.71 -40.58,-43.21 -59.12,-63.98 -18.77,-20.52 -35.9,-40.09 -50.62,-56.82 -29.61,-33.29 -48.77,-56.11 -48.77,-56.11 l 4.1,-4.37 z m -278.33,172.74 c 0,0 29.49,5.96 73.32,16.1 21.95,4.96 47.59,10.67 74.85,17.38 27.39,6.38 56.3,14.05 85.31,21.43 14.52,3.71 29.16,6.98 43.62,10.07 14.48,3.02 28.6,6.4 41.98,10.53 26.64,8.62 50.37,20.11 70.44,30.78 10.02,5.36 19.07,10.7 26.97,15.8 7.91,5.06 14.74,9.69 20.26,13.82 11.06,8.17 17.07,13.8 17.07,13.8 l -1.88,5.7 c 0,0 -8.18,0.96 -21.93,0.94 -6.9,0.04 -15.14,-0.31 -24.5,-0.95 -9.39,-0.61 -19.84,-1.7 -31.09,-3.36 -22.48,-3.35 -48.38,-8.25 -74.92,-17.16 -13.21,-4.64 -26.57,-10.33 -40.01,-16.52 -13.47,-6.12 -27.18,-12.21 -41.03,-17.86 -27.72,-11.33 -55.53,-22.37 -81.33,-33.53 -25.91,-10.84 -49.91,-21.5 -70.51,-30.58 -41.26,-17.93 -68.5,-30.68 -68.5,-30.68 l 1.88,-5.71 z m 11.06,249.05 c 0,-0.01 32.45,9.49 81.35,22.48 24.43,6.61 52.92,14.39 83.56,22.12 30.56,8.08 63.34,15.81 96.05,23.81 16.36,4 32.64,8.44 48.63,12.95 15.99,4.58 31.8,8.67 47.27,11.73 30.98,5.75 60.55,7.56 86.04,8.24 12.76,0.33 24.52,0.17 35.03,-0.33 10.49,-0.47 19.68,-1.1 27.31,-1.96 15.23,-1.61 24.12,-3.54 24.12,-3.54 l 1.07,-5.9 c 0,0 -7.65,-4.9 -21.37,-11.73 -6.85,-3.48 -15.23,-7.29 -24.9,-11.39 -9.66,-4.14 -20.64,-8.4 -32.7,-12.56 -24.13,-8.26 -52.46,-16.9 -83.51,-22.34 -15.55,-2.54 -31.79,-4.24 -48.38,-5.53 -16.56,-1.37 -33.37,-2.9 -50.09,-4.87 -33.45,-3.93 -66.85,-8.16 -98.31,-11.27 -31.41,-3.46 -60.83,-6.13 -86.02,-8.47 -50.35,-4.91 -84.07,-7.35 -84.07,-7.36"
         inkscape:connector-curvature="0" /><path
         id="path144"
         style="fill:#90857b;fill-opacity:1;fill-rule:nonzero;stroke:none"
         d="m 4712.54,4787.49 c 235.32,109.16 404.73,340.76 447.54,608.97 -28.68,0.94 -48.41,-3.67 -48.79,-3.76 l -14.27,58.28 c 4.27,1.04 106.18,25.03 201.13,-35.52 l -32.26,-50.59 c -15.53,9.91 -31.34,16.75 -46.66,21.58 -28.26,-176.25 -107.69,-337.86 -223.26,-463.58 0,0 -102.75,-53.47 -283.43,-135.38"
         inkscape:connector-curvature="0" /></g></g></svg>