
<svg xmlns="http://www.w3.org/2000/svg" version="1.1" xmlns:xlink="http://www.w3.org/1999/xlink" preserveAspectRatio="none" x="0px" y="0px" width="200px" height="200px" viewBox="0 0 200 200">
<defs>
<g id="Layer0_0_FILL">
<path fill="#DED6CE" stroke="none" d="
M 76.65 156.65
Q 77.35 157.8 78.95 158.55 81.4 159.75 85.4 159.75 90.15 159.75 91.85 157.45 92.6 156.5 92.6 155.2 92.6 154.1 91.95 152.95
L 76.65 156.65
M 95.45 106.45
Q 94.65 106.95 93.4 107.55 91.2 108.55 88.25 109
L 89.9 109.95
Q 91.7 109.15 93.35 108 94.45 107.25 95.45 106.45
M 102.55 119.55
L 101.4 118.3 102.15 132.1
Q 104.35 131.1 104.9 128.2 105.4 125.75 104.5 123.05 103.85 121.15 102.55 119.55
M 44.25 146.65
L 44.05 145.6 43.6 146.5
Q 43.1 147.7 42.6 149 41 153.2 40.55 157.2 40.05 162.05 41.95 164.45 43.85 166.95 48.7 167.15 53.05 167.3 55.3 165.5 57.3 163.9 56.95 161.4
L 54.9 161.85 45 151.2 44.25 146.65
M 40.85 143.55
Q 42.5 144.95 44.05 145.6
L 44.1 145.6 43.3 141.15
Q 40.05 138.45 37.6 133.9 34.5 128.3 35.75 120.2 36.15 117.35 37 115.1 37.75 113.05 38.15 113.25 38.45 113.35 38.4 114.25 38.4 114.85 38.35 116.4 38.15 119.95 39.3 121.85
L 40.25 123.25 39.1 116.35 42.8 115.4
Q 40.2 113.35 39 109.5 39 109.45 38.95 109.4 38.6 109.95 38.2 110.5 35.8 114.2 34.7 118.95 33.6 123.55 33.9 128.25 34.25 133.05 35.95 136.95 37.75 141.1 40.85 143.55
M 42.3 107.75
L 42.3 108.65
Q 42.4 109.8 42.7 110.95 43.2 113.25 44.25 115.05
L 48.35 113.95 53.3 112.7
Q 52 110.45 50.25 108.7 48.55 108 46.7 107.75
L 45.75 107.6
Q 45.25 107.6 44.75 107.6 44.55 107.6 44.35 107.6 44.1 107.6 43.85 107.6
L 42.3 107.75
M 62.9 109.45
Q 62.8 109.55 62.7 109.65 62.45 110 62.2 110.35
L 65.7 109.4
Q 66.75 107.9 67.55 106.35
L 68.15 104.95
Q 67.9 105.05 67.65 105.2 67.45 105.3 67.3 105.4
L 62.9 109.45
M 76.2 106.7
Q 75.3 106.55 74.4 106.4 74.3 106.8 74.2 107.2
L 76.2 106.7
M 77.1 91.25
Q 76.75 92.05 76.55 92.9 76.1 95.55 77.95 97.8 80.15 100.55 84.55 102.35 86.9 103.3 87.1 103.4 88.1 103.9 88.1 104.5 88.1 105.9 86.1 106.55 85.45 106.8 84.6 106.9
L 86.95 108.25
Q 88 108.1 89 107.95 89.5 107.05 89.95 105.8 90.65 103.8 90.95 101.7 87.7 101.8 84.75 100.8 82 99.85 80.05 98.15 78.15 96.5 77.45 94.5 76.7 92.5 77.45 90.65
L 77.1 91.25
M 45.9 94.1
Q 45.15 96 45.2 98.1 45 99.3 44.9 99.85 44.65 100.6 44.05 101.65 43.6 102.4 42.2 104.5 46.8 105.45 50.25 108.7 52.75 109.8 54.6 111.9 54.85 108.35 56.75 105.65 56.85 105.5 57.05 105.35 57.15 105.15 57.3 105
L 60.7 102.35
Q 57.55 101.05 54.4 99.5 48.9 96.65 45.9 94.1
M 100.35 98.35
Q 100.7 97 100.8 95.7 100 97.3 98.55 98.7 95.8 101.3 92.05 101.7 91.55 104.85 90.3 107.8 93.9 107.15 96.05 105.8 99.25 102.7 100.35 98.35
M 82.9 55.7
Q 81.6 57.3 81 59.55 80.45 61.9 80.55 65.05 80.8 69.85 81.25 72.05 82.1 76.1 84.35 77.7 87.05 79.65 88.95 81.5 90.3 82.75 92.25 84.95 96.65 85.1 99.15 86.9 98.1 84.65 96.3 82.25 95.15 80.65 93 78.1 92.95 78 90.45 75.2 89.45 74.05 89.05 73.3 88.6 72.45 88.45 71.1 88.25 70 88.1 67.2
L 87.05 48.6
Q 79.9 41.6 69.8 38 66.6 36.85 63.55 36.2
L 61.1 35.75
Q 55.9 35.35 50.65 35.6 52.55 35.85 53.6 36 55.35 36.25 56.75 36.6
L 58.5 36.6
Q 62.95 36.7 67.45 39.2 70.55 40.9 75.35 44.85 85.05 53 82.9 55.7
M 82.1 60.25
Q 82.75 57.3 84.2 57.2 85.55 57.15 86.55 60.1 87.45 62.75 87.6 66.6 87.8 69.45 87.5 71.7
L 87.2 73.15
Q 86.5 76.2 85 76.25
L 84.9 76.25 83.25 74.55 83.05 74
Q 82.9 73.75 82.75 73.4
L 82.75 73.35
Q 82.75 73.2 82.7 73.05
L 82.6 72.7 81.7 66.85 81.8 62.2
Q 81.9 61.5 82 60.9 82.05 60.6 82.1 60.25 Z"/>

<path fill="#CE1535" stroke="none" d="
M 126.4 64.45
Q 126.6 63.4 126.7 62.35 126.65 62.65 126.6 63 126.5 63.75 126.4 64.45
M 120.95 52.65
Q 119.85 52.9 119.05 53.7 118.2 54.6 117.95 55.95 116.4 55.6 114.8 56.25 113.15 56.95 112.2 58.35 111.6 59.3 111.6 60.35 112 61.75 113.25 63 115.3 64.9 118.9 65.7 121.95 66.4 125.65 66.2 126.2 64.45 126.4 62.45 126.7 60.4 126.55 58.5 126.2 55.85 125 54.15 124.25 53.2 123.15 52.8 122.1 52.4 120.95 52.65
M 119.05 55.4
Q 118.95 54.5 119.9 53.65 121.05 52.55 122.7 53.15 124.25 53.65 125.05 55.05 125.7 56.25 125.6 57.6 125.45 59 124.4 59.9 123.65 60.5 122.7 60.85 121.85 61.15 120.7 61.3 118.3 61.6 115.85 61 112.35 60.25 113.15 58.1 113.45 57.45 114.05 57.1 115.2 56.5 116.7 56.4 117.95 56.3 119.4 56.65
L 120.05 56.8
Q 119.15 56.15 119.05 55.4 Z"/>

<path fill="#AD0B2E" stroke="none" d="
M 111.6 60.35
Q 111.55 60.3 111.55 60.25 111.5 61.35 112.05 62.4 112.5 63.3 113.4 64.1 115.4 66 119.05 66.8 122.05 67.5 125.7 67.3 125.95 66.55 126.15 65.85
L 126.4 64.45
Q 126.5 63.75 126.6 63 126.65 62.65 126.7 62.35
L 126.7 61.8
Q 126.75 60.6 126.65 59.4
L 126.55 58.5
Q 126.7 60.4 126.4 62.45 126.2 64.45 125.65 66.2 121.95 66.4 118.9 65.7 115.3 64.9 113.25 63 112 61.75 111.6 60.35 Z"/>

<path fill="#F74169" stroke="none" d="
M 119.9 53.65
Q 118.95 54.5 119.05 55.4 119.15 56.15 120.05 56.8
L 119.4 56.65
Q 117.95 56.3 116.7 56.4 115.2 56.5 114.05 57.1 113.45 57.45 113.15 58.1 112.35 60.25 115.85 61 118.3 61.6 120.7 61.3 121.85 61.15 122.7 60.85 123.65 60.5 124.4 59.9 125.45 59 125.6 57.6 125.7 56.25 125.05 55.05 124.25 53.65 122.7 53.15 121.05 52.55 119.9 53.65
M 120.9 54.4
Q 120.35 54.2 120.5 53.8 120.5 53.7 120.55 53.65 120.85 53.35 121.65 53.3 122.4 53.3 122.8 53.5 123.45 53.85 123.15 54.15 122.95 54.4 122.2 54.45 121.45 54.55 120.9 54.4
M 114.85 57.3
Q 114.85 57.25 114.95 57.2 115.35 56.75 116.3 56.75 117.35 56.8 117.55 57.3 117.8 57.8 116.85 58 116.1 58.05 115.55 58 115.2 57.95 115 57.8 114.75 57.6 114.85 57.3 Z"/>

<path fill="#FFFFFF" stroke="none" d="
M 114.95 57.2
Q 114.85 57.25 114.85 57.3 114.75 57.6 115 57.8 115.2 57.95 115.55 58 116.1 58.05 116.85 58 117.8 57.8 117.55 57.3 117.35 56.8 116.3 56.75 115.35 56.75 114.95 57.2
M 120.5 53.8
Q 120.35 54.2 120.9 54.4 121.45 54.55 122.2 54.45 122.95 54.4 123.15 54.15 123.45 53.85 122.8 53.5 122.4 53.3 121.65 53.3 120.85 53.35 120.55 53.65 120.5 53.7 120.5 53.8
M 65.15 67.75
Q 65.15 70.15 64.4 72.2 65.2 70.15 65.2 67.75 65.2 65.75 64.65 64.05 65.15 65.75 65.15 67.75
M 62.9 60.85
Q 62.4 60.25 61.85 59.65 58.5 56.25 53.7 56.25 48.95 56.25 45.6 59.65 42.2 63 42.2 67.75 42.2 72.55 45.6 75.9 48.95 79.3 53.7 79.3 56.05 79.3 58.15 78.45 56.05 79.25 53.7 79.25 52.2 79.25 50.85 78.95 48.55 75.95 48.55 72 48.55 67.2 51.95 63.9 55.25 60.5 60 60.5 61.5 60.5 62.9 60.85
M 57.4 64.55
Q 57.65 64.85 58.1 64.85 58.55 64.85 58.8 64.55 59.1 64.25 59.1 63.85 59.1 63.4 58.8 63.1 58.55 62.8 58.1 62.8 57.65 62.8 57.4 63.1 57.05 63.4 57.05 63.85 57.05 64.25 57.4 64.55
M 82.75 73.4
Q 82.9 73.75 83.05 74 82.9 73.7 82.75 73.35
L 82.75 73.4
M 84.6 63.5
Q 84.6 63.05 84.3 62.75 84.05 62.45 83.6 62.45 83.15 62.45 82.9 62.75 82.6 63.05 82.6 63.5 82.6 63.9 82.9 64.2 83.15 64.5 83.6 64.5 84.05 64.5 84.3 64.2 84.6 63.9 84.6 63.5
M 84.2 57.2
Q 82.75 57.3 82.1 60.25 82.05 60.6 82 60.9 82.5 60.5 83.1 60.5 84.8 60.4 86.1 63.15 87.45 65.8 87.6 69.75 87.6 69.85 87.6 70.05 87.55 70.9 87.5 71.7 87.8 69.45 87.6 66.6 87.45 62.75 86.55 60.1 85.55 57.15 84.2 57.2
M 145.45 36.45
Q 145.85 36.55 146.4 36.45 147.15 36.35 146.95 36 146.8 35.6 146.05 35.55 145.3 35.55 145 35.85
L 144.95 36
Q 144.8 36.35 145.45 36.45
M 152.4 35.9
Q 152.6 35.7 152.1 35.4 151.8 35.25 151.25 35.3 150.6 35.3 150.45 35.55 150.35 35.6 150.35 35.65 150.25 35.95 150.7 36.05 151.1 36.2 151.65 36.15 152.2 36.05 152.4 35.9
M 114.6 24.1
Q 114.5 24.45 114.8 24.7 115 24.8 115.4 24.9 116.05 25.05 116.9 24.9 118 24.7 117.8 24.1 117.5 23.5 116.3 23.45 115.1 23.45 114.65 23.95 114.65 24 114.6 24.1
M 127.95 17.5
Q 127.9 17.6 127.85 17.7 127.8 18 128.1 18.2 128.3 18.4 128.7 18.45 129.3 18.55 130.2 18.45 131.3 18.25 131.1 17.7 130.75 17 129.6 17 128.45 17 127.95 17.5
M 178.05 83.1
Q 175.85 79.85 173.45 78.2 170.7 76.4 168.9 77.55 168.85 77.6 168.75 77.7 169.25 77.95 169.9 78.35 172.25 80 174.45 83.25 176.6 86.4 177.3 89.25 177.7 91.05 177.4 92.1 177.25 92.65 176.95 93 176.4 92.75 175.85 92.35
L 175.85 92.4
Q 178.55 94.25 180.1 93.2 181.55 92.25 180.95 89.35
L 180.95 89.3
Q 180.8939453125 89.187890625 180.85 89.1 180.15 86.3 178.05 83.1
M 170.55 80
Q 170.3 79.7 169.85 79.7 169.4 79.7 169.15 80 168.85 80.3 168.85 80.75 168.85 81.15 169.15 81.45 169.4 81.75 169.85 81.75 170.3 81.75 170.55 81.45 170.85 81.15 170.85 80.75 170.85 80.3 170.55 80
M 144.25 89.9
Q 143.55 90.05 142.9 90.35 142.95 90.35 143.05 90.4 146.7 91.8 149.5 95.75 152.3 99.55 152.55 103.4 152.8 107.55 149.8 109.6 149.1 110.05 148.45 110.35 149.5 110.7 150.55 110.85 153.45 111.1 156 109.45 159 107.45 158.75 103.2 158.5 99.4 155.7 95.55 152.9 91.7 149.25 90.3 146.55 89.2 144.25 89.9
M 143.6 93.2
Q 143.35 92.9 142.9 92.9 142.5 92.9 142.2 93.2 141.9 93.5 141.9 93.95 141.9 94.35 142.2 94.65 142.5 94.95 142.9 94.95 143.35 94.95 143.6 94.65 143.95 94.35 143.95 93.95 143.95 93.5 143.6 93.2
M 172.85 107.15
Q 172.75 107.2 172.6 107.2 172.5 107.3 172.2 107.5 171.45 107.9 171.1 108.3 170.85 108.55 170.6 108.85
L 169.5 110.1 167.3 112.55 167.35 112.65 169.25 111.2 169.45 111
Q 169.85 110.75 170.65 110.1
L 171.1 109.75 171.25 109.6
Q 171.6 109.35 171.85 109.1 172.15 108.85 172.45 108.55 172.55 108.3 172.75 108.1 172.9 107.9 173.05 107.65
L 173.3 107.3
Q 173.3 107.2 173.4 107.1 173.4 107 173.45 106.95
L 173.35 106.85
Q 173.25 106.9 173 107 172.95 107.05 172.85 107.15
M 189.05 99.35
L 189 99.2 187.45 99.6
Q 187.25 99.65 186.55 99.85
L 186.35 99.95 186.1 100
Q 185.8 100.05 185.7 100.15 185.4 100.2 185 100.55
L 184.75 100.8 184.5 101.15 184.45 101.2 184.5 101.3 184.55 101.3
Q 184.65 101.3 184.75 101.3
L 185.3 101.3 185.35 101.3
Q 185.85 101.25 186.1 101.1 186.3 101 186.5 100.9
L 189.05 99.35
M 162.45 109.6
L 166.55 108.65
Q 166.8 108.6 167.35 108.45 167.75 108.35 168.1 108.3 168.6 108.1 169.3 107.7 169.65 107.55 169.8 107.45
L 170.45 106.95 170.4 106.85
Q 170.3 106.8 170 106.8
L 169.6 106.85
Q 169.3 106.85 169.05 106.9 168.3 107 167.75 107.2 167.5 107.3 167.05 107.55
L 166.3 107.85
Q 165.25 108.25 164.85 108.4 164.65 108.5 163.65 108.95
L 162.4 109.5 162.45 109.6
M 168.9 103.55
Q 168.7 103.6 168.1 103.8
L 167.25 104
Q 166.1 104.25 165.55 104.4
L 162.65 105.2 162.65 105.35 168.25 104.75
Q 168.65 104.7 169.15 104.65 169.8 104.55 170.6 104.25
L 171.6 103.85
Q 171.85 103.7 172 103.6
L 171.95 103.5
Q 171.8 103.5 171.55 103.5 171.15 103.45 171.1 103.45 170.7 103.45 170.45 103.45 169.6 103.45 168.9 103.55
M 186.55 94.65
L 186.5 94.55 183.75 97.05
Q 183.55 97.25 183.2 97.55 182.85 97.85 182.75 98 182.4 98.4 182.05 98.95 181.8 99.35 181.7 99.75 181.6 99.9 181.55 100.05
L 181.65 100.15 181.95 100
Q 182.25 99.85 182.7 99.5 183.2 99.1 183.55 98.75 183.75 98.5 183.95 98.2 184.3 97.75 184.35 97.65
L 185.2 96.55
Q 185.55 96.05 185.9 95.6
L 186.55 94.65
M 181.7 94.45
Q 181.4 94.9 181.25 95.15
L 180.95 95.5
Q 180.7 95.8 180.65 95.85 180.55 96.15 180.45 96.55
L 180.35 97.15 180.4 97.4 180.5 97.45 180.55 97.45 181.2 96.95
Q 181.5 96.7 181.65 96.4 181.75 96.2 181.8 96
L 181.95 95.55
Q 182.2 94.95 182.3 94.7 182.45 94.35 182.55 94
L 182.8 93.3 182.7 93.25 181.7 94.45 Z"/>

<path fill="#AA7AAE" stroke="none" d="
M 83.45 119.5
Q 83.05 120.05 82.35 120.95
L 101.25 116.45 92.2 111.25 83.3 113.65 72.55 116.5
Q 79.1 117.15 83.45 119.5
M 53.05 122.25
Q 52.85 122.35 52.7 122.5 50.8 124.05 50.75 125.9 50.7 127.1 51.4 128.3
L 60.25 126.2 55.3 121.1
Q 54 121.6 53.05 122.25
M 44.25 115.05
Q 44.9 116.1 45.7 117.05 48.45 117.95 51.95 117.65
L 48.35 113.95 44.25 115.05
M 46.35 123.4
L 46.35 123.45 50.85 127.85
Q 50.45 125.8 50.45 124.2 50.45 123.15 50.75 122.25
L 50.35 122.35 46.35 123.4
M 43 120.2
L 43 120.15 47.1 119.15 48.1 118.9
Q 46.8 118.15 45.7 117.05 44.1 116.45 42.8 115.4
L 39.1 116.35 43 120.2
M 65.7 119.5
Q 64.75 119.4 63.8 119.4 62.45 119.4 61.25 119.6
L 67 124.55 67 124.6 74.9 122.7
Q 73.7 121.85 72.2 121.15
L 72.25 121.15
Q 71.05 120.65 69.75 120.25 69.15 120.05 68.65 120
L 68.6 120
Q 68.1 119.85 67.7 119.75
L 65.9 119.55
Q 65.8 119.5 65.7 119.5
M 65.45 109.75
Q 65.55 109.6 65.7 109.45
L 65.7 109.4 62.2 110.35
Q 60.75 112.4 59.8 114.95 63 112.95 65.45 109.75
M 76.2 106.7
L 74.2 107.2
Q 73.6 109 72.6 110.6 71.7 111.95 70.45 113.3
L 72.85 112.7 73.15 112.6 88 108.85 86.95 108.25 84.6 106.9 81.7 105.25 76.2 106.7 Z"/>

<path fill="#FFC102" stroke="none" d="
M 88.25 109
L 88 108.85 73.15 112.6 83.85 113.45 83.3 113.65 92.2 111.25 89.9 109.95 88.25 109
M 67 124.6
L 67 124.55 60.25 126.2 61.3 134.4 68.25 132.8 67 124.6
M 48.1 118.9
L 47.1 119.15
Q 49.25 121.3 50.35 122.35
L 50.75 122.25
Q 50.45 123.15 50.45 124.2 50.45 125.8 50.85 127.85 50.95 128.45 51.15 129.2 51.65 131.25 52.85 134.7 53.5 134.6 54.65 134.35 56.05 134.05 58.4 133.4 54.55 131.8 52.55 129.8 51.8 129.05 51.4 128.3 50.7 127.1 50.75 125.9 50.8 124.05 52.7 122.5 52.85 122.35 53.05 122.25
L 51.3 120.55
Q 51.4 120.35 51.55 120.15 52.05 119.3 52.9 118.55 53.85 117.7 55.25 117.1 53.5 117.45 51.95 117.65 48.45 117.95 45.7 117.05 46.8 118.15 48.1 118.9
M 43 120.15
L 43 120.2 44.05 127.45 44.25 129.1 47.6 132.8 47.4 131.2 46.35 123.45 46.35 123.4 43 120.15
M 44.35 107.6
Q 44.55 107.6 44.75 107.6 45.25 107.6 45.75 107.6 45.03515625 107.5701171875 44.35 107.6
M 41.5 104.4
Q 41.8 104.45 42.1 104.5
L 43.7 105.65
Q 44.65 106.35 46.7 107.75 48.55 108 50.25 108.7 46.8 105.45 42.2 104.5 41.85 104.4 41.5 104.4
M 74.4 150.05
Q 76.5 151.45 79.25 153 82.15 149.85 82.85 149.05 84.85 146.8 86.05 145.05 89.05 140.5 88.05 136.9 88 136.7 87.95 136.55
L 74.4 150.05
M 69.55 137.8
Q 68.05 139.5 67.85 141.65 67.7 143.6 68.7 145.1
L 76.85 136.15
Q 77.4 136.4 77.95 136.75 75.6 135.15 73.2 135.6 71.1 136 69.55 137.8
M 80.25 134.35
Q 80.3818359375 134.3060546875 80.5 134.25 80.3875 134.3 80.3 134.3 79.55 134.8 79 135.4 79.55 134.85 80.25 134.35
M 68.65 120
Q 69.15 120.05 69.75 120.25 71.05 120.65 72.25 121.15 73.2 119.7 73.65 118.95 74.5 117.7 75.15 116.85 78.25 117.4 80.6 118.25 78.65 120.6 76.5 124.15 77.65 125.45 78.25 127 79.05 125.4 80.65 123.2 81.65 121.85 82.35 120.95 83.05 120.05 83.45 119.5 79.1 117.15 72.55 116.5 71.9 116.4 71.2 116.35 69.85 118.1 68.65 120
M 62.2 110.35
Q 62.45 110 62.7 109.65 61.35 108.85 59.7 107.7 58.75 107.05 58.25 106.7 57.4 106.1 56.75 105.65 54.85 108.35 54.6 111.9 54.85 112.15 55.1 112.45 57.5 115.45 58.45 120.15 59.75 119.75 61.25 119.6 62.45 119.4 63.8 119.4 64.75 119.4 65.7 119.5 67.1 117.45 68.15 116.2 67.5 116.15 66.9 116.15 63.05 116.1 59.25 116.5 59.55 115.7 59.8 114.95 60.75 112.4 62.2 110.35
M 68.15 104.9
Q 68.1 104.9 68.1 104.95 67.85 105.05 67.65 105.2 67.9 105.05 68.15 104.95
L 68.15 104.9
M 71.45 103.45
Q 72 103.2 72.55 103.1 72.65 103.1 72.75 103.05 73.95 102.8 74.7 102.75 72.7 102.05 70.65 100.6
L 69.1 99.3
Q 67.35 99.3 64.95 100.05 64.65 100.15 64.35 100.25 67.2 102.6 69.1 104
L 69.4 104.25
Q 68.95 104.45 68.5 104.75 69.95 103.95 71.45 103.45 Z"/>

<path fill="#90867C" stroke="none" d="
M 93.4 107.55
Q 94.65 106.95 95.45 106.45 95.9 106.1 96.15 105.75 96.1 105.8 96.05 105.8 93.9 107.15 90.3 107.8 91.55 104.85 92.05 101.7
L 91.85 101.7
Q 91.55 101.7 90.95 101.7 90.65 103.8 89.95 105.8 89.5 107.05 89 107.95 88 108.1 86.95 108.25
L 88 108.85 88.25 109
Q 91.2 108.55 93.4 107.55 Z"/>

<path fill="#FBF8F5" stroke="none" d="
M 37 115.1
Q 36.15 117.35 35.75 120.2 34.5 128.3 37.6 133.9 40.05 138.45 43.3 141.15
L 40.25 123.25 39.3 121.85
Q 38.15 119.95 38.35 116.4 38.4 114.85 38.4 114.25 38.45 113.35 38.15 113.25 37.75 113.05 37 115.1
M 81 59.55
Q 81.6 57.3 82.9 55.7 85.05 53 75.35 44.85 70.55 40.9 67.45 39.2 62.95 36.7 58.5 36.6
L 56.75 36.6
Q 62.75 38.05 66.4 42.35 71.2 48 73.05 59.2 74.05 65.35 73.9 69 73.75 72.75 72.25 75.2 70.9 77.5 67.85 79.4 65.5 80.85 60.35 83.1 53.95 85.9 50.4 88.75 47.1 91.3 45.9 94.1 48.9 96.65 54.4 99.5 57.55 101.05 60.7 102.35
L 62.25 101.1
Q 63.25 100.6 64.3 100.2
L 64.35 100.25
Q 64.65 100.15 64.95 100.05 67.35 99.3 69.1 99.3
L 70.65 100.6
Q 72.7 102.05 74.7 102.75 74.8 104.6 74.4 106.4 75.3 106.55 76.2 106.7
L 81.7 105.25 84.6 106.9
Q 85.45 106.8 86.1 106.55 88.1 105.9 88.1 104.5 88.1 103.9 87.1 103.4 86.9 103.3 84.55 102.35 80.15 100.55 77.95 97.8 76.1 95.55 76.55 92.9 76.75 92.05 77.1 91.25
L 77.45 90.65
Q 78.4 88.35 81.45 86.9 84.85 85.3 90.45 85 91.35 84.95 92.25 84.95 90.3 82.75 88.95 81.5 87.05 79.65 84.35 77.7 82.1 76.1 81.25 72.05 80.8 69.85 80.55 65.05 80.45 61.9 81 59.55 Z"/>

<path fill="#6D4870" stroke="none" d="
M 44.05 127.45
L 43 120.2 39.1 116.35 40.25 123.25 44.05 127.45
M 51.4 128.3
Q 51.8 129.05 52.55 129.8 54.55 131.8 58.4 133.4 56.05 134.05 54.65 134.35 53.5 134.6 52.85 134.7 51.65 131.25 51.15 129.2 50.95 128.45 50.85 127.85
L 46.35 123.45 47.4 131.2 52.2 136.5 61.3 134.4 60.25 126.2 51.4 128.3
M 74.95 122.75
Q 74.9 122.75 74.9 122.7
L 67 124.6 68.25 132.8 101.75 125.05 101.8 125.9 52.35 138 54.9 161.85 56.95 161.4 103.25 150.2 102.15 132.1 101.4 118.3 101.25 116.45 82.35 120.95
Q 81.65 121.85 80.65 123.2 79.05 125.4 78.25 127 77.65 125.45 76.5 124.15 75.8 123.4 74.95 122.75
M 80.5 134.25
L 80.55 134.25
Q 80.85 134 81.2 133.85
L 82.8 133.35
Q 83 133.3 83.2 133.3 84.4 133.2 85.35 133.6 85.55 133.65 85.65 133.75
L 85.8 133.85
Q 85.95 133.9 86.05 133.95 86.15 134 86.2 134.05 86.8 134.5 87.25 135.1
L 87.95 136.55
Q 88 136.7 88.05 136.9 89.05 140.5 86.05 145.05 84.85 146.8 82.85 149.05 82.15 149.85 79.25 153 76.5 151.45 74.4 150.05
L 74.35 150.05
Q 73.45 149.4 72.65 148.85
L 69 145.55
Q 68.8 145.35 68.65 145.1
L 68.7 145.1
Q 67.7 143.6 67.85 141.65 68.05 139.5 69.55 137.8 71.1 136 73.2 135.6 75.6 135.15 77.95 136.75
L 79 135.4
Q 79.55 134.8 80.3 134.3 80.3875 134.3 80.5 134.25 Z"/>

<path fill="#563759" stroke="none" d="
M 47.6 132.8
L 44.25 129.1 44.05 127.45 40.25 123.25 43.3 141.15 44.1 145.6 44.25 146.65 45 151.2 54.9 161.85 52.35 138 101.8 125.9 101.75 125.05 68.25 132.8 61.3 134.4 52.2 136.5 47.4 131.2 47.6 132.8 Z"/>

<path fill="#FFDA03" stroke="none" d="
M 51.55 120.15
Q 51.4 120.35 51.3 120.55
L 53.05 122.25
Q 54 121.6 55.3 121.1
L 60.25 126.2 67 124.55 61.25 119.6
Q 59.75 119.75 58.45 120.15
L 55.25 117.1
Q 53.85 117.7 52.9 118.55 52.05 119.3 51.55 120.15
M 54.95 116.25
Q 54.65 115.35 54.15 114.3 53.75 113.45 53.35 112.7
L 53.3 112.7 48.35 113.95 51.95 117.65
Q 53.5 117.45 55.25 117.1 55.1 116.7 54.95 116.25
M 50.35 122.35
Q 49.25 121.3 47.1 119.15
L 43 120.15 46.35 123.4 50.35 122.35
M 42.1 104.5
Q 41.8 104.45 41.5 104.4
L 38.7 104.1
Q 38.65 104.1 38.55 104.1 38.35 104.1 38.15 104.1
L 42.3 107.75 43.85 107.6
Q 44.1 107.6 44.35 107.6 45.03515625 107.5701171875 45.75 107.6
L 46.7 107.75
Q 44.65 106.35 43.7 105.65
L 42.1 104.5
M 80.55 134.25
L 80.5 134.25
Q 80.3818359375 134.3060546875 80.25 134.35 79.55 134.85 79 135.4
L 77.95 136.75
Q 77.4 136.4 76.85 136.15
L 68.7 145.1 68.65 145.1
Q 68.8 145.35 69 145.55
L 72.65 148.85
Q 73.45 149.4 74.35 150.05
L 74.4 150.05 87.95 136.55 87.25 135.1
Q 86.8 134.5 86.2 134.05 86.15 134 86.05 133.95 85.95 133.9 85.8 133.85
L 85.65 133.75
Q 85.55 133.65 85.35 133.6 84.4 133.2 83.2 133.3 83 133.3 82.8 133.35
L 81.2 133.85
Q 80.85 134 80.55 134.25
M 80.6 118.25
Q 78.25 117.4 75.15 116.85 74.5 117.7 73.65 118.95 73.2 119.7 72.25 121.15
L 72.2 121.15
Q 73.7 121.85 74.9 122.7 74.9 122.75 74.95 122.75 75.8 123.4 76.5 124.15 78.65 120.6 80.6 118.25
M 66.9 116.15
Q 67.5 116.15 68.15 116.2 67.1 117.45 65.7 119.5 65.8 119.5 65.9 119.55
L 67.7 119.75
Q 68.1 119.85 68.6 120
L 68.65 120
Q 69.85 118.1 71.2 116.35 71.9 116.4 72.55 116.5
L 83.3 113.65 83.85 113.45 73.15 112.6 72.85 112.7 70.45 113.3
Q 68.9 114.8 66.9 116.15
M 68.5 104.75
Q 68.95 104.45 69.4 104.25
L 69.1 104
Q 67.2 102.6 64.35 100.25
L 64.3 100.2
Q 63.25 100.6 62.25 101.1
L 60.7 102.35 57.3 105
Q 57.15 105.15 57.05 105.35 56.85 105.5 56.75 105.65 57.4 106.1 58.25 106.7 58.75 107.05 59.7 107.7 61.35 108.85 62.7 109.65 62.8 109.55 62.9 109.45
L 67.3 105.4
Q 67.45 105.3 67.65 105.2 67.85 105.05 68.1 104.95 68.1 104.9 68.15 104.9 68.3 104.8 68.5 104.75 Z"/>

<path fill="#E28100" stroke="none" d="
M 54.15 114.3
Q 54.65 115.35 54.95 116.25 55.1 116.7 55.25 117.1
L 58.45 120.15
Q 57.5 115.45 55.1 112.45 54.85 112.15 54.6 111.9 52.75 109.8 50.25 108.7 52 110.45 53.3 112.7
L 53.35 112.7
Q 53.75 113.45 54.15 114.3
M 42.3 108.65
L 42.3 107.75 38.15 104.1 38.25 105.7
Q 38.4 107.65 38.95 109.4 39 109.45 39 109.5 40.2 113.35 42.8 115.4 44.1 116.45 45.7 117.05 44.9 116.1 44.25 115.05 43.2 113.25 42.7 110.95 42.4 109.8 42.3 108.65
M 72.55 103.1
Q 72 103.2 71.45 103.45 69.95 103.95 68.5 104.75 68.3 104.8 68.15 104.9
L 68.15 104.95 67.55 106.35
Q 66.75 107.9 65.7 109.4
L 65.7 109.45
Q 65.55 109.6 65.45 109.75 63 112.95 59.8 114.95 59.55 115.7 59.25 116.5 63.05 116.1 66.9 116.15 68.9 114.8 70.45 113.3 71.7 111.95 72.6 110.6 73.6 109 74.2 107.2 74.3 106.8 74.4 106.4 74.8 104.6 74.7 102.75 73.95 102.8 72.75 103.05 72.65 103.1 72.55 103.1 Z"/>

<path fill="#93887F" stroke="none" d="
M 46.1 42
Q 46.75 43.35 47.9 45.5 48.7 47.2 48.6 48.15 55.35 46.75 59.8 50.45 63.6 53.6 65.65 60.45 67.7 67.15 66.4 71.75 65.15 76.25 60.6 78.95 56.35 81.55 51.6 80.8 47.25 80.1 44.25 77 41.8 74.45 40.6 69.95 39.7 66.3 39.85 62.65 39.95 60.75 39.85 59.85 39.7 58.8 39.25 58.35 38.8 57.9 37.95 57.75 37.3 57.7 35.7 57.7 30.6 57.6 26.6 56.9 22.95 56.25 19.35 54.95 19.05 54.85 18.8 54.75 14.5 53.2 13.45 52.9 10.8 52.15 10.1 52.9 9.3 53.7 11.7 57.45 13.55 60.3 16.05 63.2 17.2 64.5 18.8 65.95 20.3 67.3 22.2 68.75 24.1 70.3 25.65 71.25 29.2 76.95 35.05 83.55 40.8 90.05 45.9 94.1 47.1 91.3 50.4 88.75 53.95 85.9 60.35 83.1 65.5 80.85 67.85 79.4 70.9 77.5 72.25 75.2 73.75 72.75 73.9 69 74.05 65.35 73.05 59.2 71.2 48 66.4 42.35 62.75 38.05 56.75 36.6 52.85 36.6 47.95 37.05
L 43.85 37.5 44.5 38.75
Q 45.35 40.35 46.1 42
M 46 44.7
Q 44.25 41.25 43.45 39.55 42 36.55 40.7 33.65 39.3 30.5 36.45 30.55 34.4 30.6 31.3 32.5 23.15 37.4 18.8 39.7 17.9 40.2 17.15 40.55 13.8 42.2 12.7 43 11.25 44.1 11.7 45.1 11.95 45.6 13.3 45.85 14.3 45.95 16.75 46.1 17.8 46.15 18.8 46.2 24.9 46.5 28.2 46.95 31.5 47.4 35.9 47.8 40.55 48.25 42.85 48.35 45.7 48.45 46.3 47.95 47.2 47.25 46 44.7
M 98.5 92.75
Q 100.65 91.45 100.2 89.75 99.75 88.1 97.15 87.05 94.3 85.9 90.15 86.25 84.5 86.65 81.75 88.1 79.35 89.4 79.9 91.05 80.5 92.65 83.5 93.65 86.8 94.75 91.45 94.5 96.2 94.2 98.5 92.75
M 92.25 41.25
Q 96.55 41.55 99.85 41.15 102.95 40.65 102.9 39.85 102.9 39.2 100.35 38.65 98.9 38.4 93.65 37.75 89.65 37.2 86 36.1 83.1 35.25 78.6 33.4 74.3 31.6 71.5 31.05 68.45 30.5 67.85 31.6 67.35 32.7 68.6 33.95 69.6 34.95 71.95 36.15 76.15 38.25 83 39.8 88.25 41 92.25 41.25 Z"/>

<path fill="#574F48" stroke="none" d="
M 53.6 36
Q 52.55 35.85 50.65 35.6 50.6 35.6 50.55 35.6
L 49 35.7
Q 47.05 35.8 45.3 36
L 43.3 36.25 41.7 33
Q 40.35 30.25 38 29.7 35.2 28.95 31.1 31.4 24 35.65 18.8 38.6 14.6 41 11.6 42.55 7.4 44.75 6.25 47.45 5.05 50.25 6.9 53.65 11.2 61.7 17.45 68.35 18.15 69.1 18.8 69.75 21.1 72.1 22.9 73.45 29.7 84.1 38.15 92.15 42.35 96.2 45.2 98.1 45.15 96 45.9 94.1 40.8 90.05 35.05 83.55 29.2 76.95 25.65 71.25 24.1 70.3 22.2 68.75 20.3 67.3 18.8 65.95 17.2 64.5 16.05 63.2 13.55 60.3 11.7 57.45 9.3 53.7 10.1 52.9 10.8 52.15 13.45 52.9 14.5 53.2 18.8 54.75 19.05 54.85 19.35 54.95 22.95 56.25 26.6 56.9 30.6 57.6 35.7 57.7 37.3 57.7 37.95 57.75 38.8 57.9 39.25 58.35 39.7 58.8 39.85 59.85 39.95 60.75 39.85 62.65 39.7 66.3 40.6 69.95 41.8 74.45 44.25 77 47.25 80.1 51.6 80.8 56.35 81.55 60.6 78.95 65.15 76.25 66.4 71.75 67.7 67.15 65.65 60.45 63.6 53.6 59.8 50.45 55.35 46.75 48.6 48.15 48.7 47.2 47.9 45.5 46.75 43.35 46.1 42 45.35 40.35 44.5 38.75
L 43.85 37.5 47.95 37.05
Q 52.85 36.6 56.75 36.6 55.35 36.25 53.6 36
M 43.45 39.55
Q 44.25 41.25 46 44.7 47.2 47.25 46.3 47.95 45.7 48.45 42.85 48.35 40.55 48.25 35.9 47.8 31.5 47.4 28.2 46.95 24.9 46.5 18.8 46.2 17.8 46.15 16.75 46.1 14.3 45.95 13.3 45.85 11.95 45.6 11.7 45.1 11.25 44.1 12.7 43 13.8 42.2 17.15 40.55 17.9 40.2 18.8 39.7 23.15 37.4 31.3 32.5 34.4 30.6 36.45 30.55 39.3 30.5 40.7 33.65 42 36.55 43.45 39.55
M 62.9 60.85
L 64.65 64.05
Q 65.2 65.75 65.2 67.75 65.2 70.15 64.4 72.2
L 61.85 75.9 58.15 78.45
Q 56.05 79.3 53.7 79.3 48.95 79.3 45.6 75.9 42.2 72.55 42.2 67.75 42.2 63 45.6 59.65 48.95 56.25 53.7 56.25 58.5 56.25 61.85 59.65 62.4 60.25 62.9 60.85
M 99.95 87.6
Q 99.55 87.2 99.15 86.9 96.65 85.1 92.25 84.95 91.35 84.95 90.45 85 84.85 85.3 81.45 86.9 78.4 88.35 77.45 90.65 76.7 92.5 77.45 94.5 78.15 96.5 80.05 98.15 82 99.85 84.75 100.8 87.7 101.8 90.95 101.7 91.55 101.7 91.85 101.7
L 92.05 101.7
Q 95.8 101.3 98.55 98.7 100 97.3 100.8 95.7 101.4 94.45 101.6 93.05 102.15 89.75 99.95 87.6
M 100.2 89.75
Q 100.65 91.45 98.5 92.75 96.2 94.2 91.45 94.5 86.8 94.75 83.5 93.65 80.5 92.65 79.9 91.05 79.35 89.4 81.75 88.1 84.5 86.65 90.15 86.25 94.3 85.9 97.15 87.05 99.75 88.1 100.2 89.75
M 86.4 35.1
Q 84.55 34.5 81.7 33.45 78.2 32 76.05 31.2 72.85 29.95 70.65 29.8 68.5 29.65 66.9 30.45 65.5 31.05 63.95 32.55 63.35 33.15 61.1 35.75
L 63.55 36.2
Q 66.6 36.85 69.8 38 79.9 41.6 87.05 48.6
L 89 43.8 90.65 43.75
Q 92.65 43.75 94.45 43.55 100.4 43 102.9 41.4 104.85 40.15 103.6 39 102.1 37.7 96.4 37.15 90.95 36.55 86.4 35.1
M 99.85 41.15
Q 96.55 41.55 92.25 41.25 88.25 41 83 39.8 76.15 38.25 71.95 36.15 69.6 34.95 68.6 33.95 67.35 32.7 67.85 31.6 68.45 30.5 71.5 31.05 74.3 31.6 78.6 33.4 83.1 35.25 86 36.1 89.65 37.2 93.65 37.75 98.9 38.4 100.35 38.65 102.9 39.2 102.9 39.85 102.95 40.65 99.85 41.15 Z"/>

<path fill="#584027" stroke="none" d="
M 64.65 64.05
L 62.9 60.85
Q 61.5 60.5 60 60.5 55.25 60.5 51.95 63.9 48.55 67.2 48.55 72 48.55 75.95 50.85 78.95 52.2 79.25 53.7 79.25 56.05 79.25 58.15 78.45
L 61.85 75.9 64.4 72.2
Q 65.15 70.15 65.15 67.75 65.15 65.75 64.65 64.05
M 58.1 64.85
Q 57.65 64.85 57.4 64.55 57.05 64.25 57.05 63.85 57.05 63.4 57.4 63.1 57.65 62.8 58.1 62.8 58.55 62.8 58.8 63.1 59.1 63.4 59.1 63.85 59.1 64.25 58.8 64.55 58.55 64.85 58.1 64.85
M 83.1 60.5
Q 82.5 60.5 82 60.9 81.9 61.5 81.8 62.2
L 81.7 66.85 82.6 72.7 82.7 73.05
Q 82.75 73.2 82.75 73.35 82.9 73.7 83.05 74
L 83.25 74.55 84.9 76.25 85 76.25
Q 86.5 76.2 87.2 73.15
L 87.5 71.7
Q 87.55 70.9 87.6 70.05 87.6 69.85 87.6 69.75 87.45 65.8 86.1 63.15 84.8 60.4 83.1 60.5
M 84.3 62.75
Q 84.6 63.05 84.6 63.5 84.6 63.9 84.3 64.2 84.05 64.5 83.6 64.5 83.15 64.5 82.9 64.2 82.6 63.9 82.6 63.5 82.6 63.05 82.9 62.75 83.15 62.45 83.6 62.45 84.05 62.45 84.3 62.75 Z"/>

<path fill="#DD2626" stroke="none" d="
M 152.35 43.25
Q 152.2 43.45 152.05 43.65 151.8 44.05 151.6 44.4 152 43.85 152.35 43.25
M 153.5 35.7
Q 152.9 35.05 152.05 34.85 151.25 34.6 150.4 34.9 149.5 35.15 148.9 35.95 148 35.15 146.75 35 145.45 34.85 144.3 35.45 143.2771484375 36.0080078125 142.95 37 143.04375 36.734375 143.2 36.5 142.85 37.55 143.35 38.9 144 40.85 146.1 42.65 147.85 44.15 150.3 45.4 151.3 44.45 152.15 43.25 153 42.05 153.6 40.9
L 153.6 40.8
Q 154.4 38.85 154.2 37.25 154.05 36.4 153.5 35.7
M 145 35.55
Q 145.55 35.3 146.2 35.3 147.85 35.35 149.6 36.9
L 149.95 37.2
Q 149.65 36.5 149.85 35.95 150.1 35.3 151 35.1 152.1 34.85 153.05 35.75 153.95 36.7 153.85 37.8 153.75 38.85 152.75 39.7 151.85 40.45 150.75 40.6 149.35 40.8 147.7 40.35 146.1 39.9 144.95 39 144.25 38.5 143.95 38.1 143.55 37.45 143.75 36.8 143.95 36 145 35.55
M 139.2 41.6
Q 139.2 41.7591796875 139.15 41.9 139.3591796875 41.0591796875 139.55 40.2 139.35 40.9 139.2 41.6
M 124.55 17.6
Q 122.4 19.4 121.55 22.4 118.2 21.15 114.55 22.1 110.7 23.1 108.35 26.15 106.75 28.15 106.4 30.5 106.6 32.25 107.55 34.1 108.35 35.75 109.55 37.3 113.65 42.35 121.55 45.4 128.1 47.95 136.3 48.8 137.95 44.85 138.95 40.35 140 35.65 140.15 31.2 140.15 31.55 140.2 31.95 140.15 25.05 137.75 20.55 136.35 18 133.95 16.7 131.65 15.5 129.1 15.7 126.55 15.9 124.55 17.6
M 126.45 17.65
Q 128.2 16.3 130.3 16.55 132.15 16.7 133.9 18 135.55 19.25 136.65 21.1 137.7 23 137.7 24.9 137.65 28.7 135.1 31.55 132.8 34 128.9 35.4 125.25 36.7 121.2 36.8 117.2 36.95 114.15 36 111.65 35.2 110.35 34.2 108.5 32.8 108.3 30.6 108.1 29.25 108.7 27.95 109.2 26.7 110.25 25.65 111.7 24.25 113.5 23.6 116 22.75 119.1 23.1 121.75 23.4 124.7 24.55
L 126 25.05
Q 124.25 23.25 124.2 21.45 124.15 19.35 126.45 17.65 Z"/>

<path fill="#BC1919" stroke="none" d="
M 143.2 36.5
Q 143.04375 36.734375 142.95 37
L 142.9 37.15 142.75 38.05
Q 142.75 38.85 143 39.65 143.65 41.6 145.8 43.4 147.5 44.95 150 46.15 150.6 45.6 151.15 44.9
L 151.6 44.4
Q 151.8 44.05 152.05 43.65 152.2 43.45 152.35 43.25
L 152.4 43.2
Q 152.45 43.1 152.5 43
L 153 42.1
Q 153.05 42 153.1 41.9
L 153.25 41.65
Q 153.45 41.25 153.6 40.9 153 42.05 152.15 43.25 151.3 44.45 150.3 45.4 147.85 44.15 146.1 42.65 144 40.85 143.35 38.9 142.85 37.55 143.2 36.5
M 140.2 31.95
Q 140.15 31.55 140.15 31.2 140 35.65 138.95 40.35 137.95 44.85 136.3 48.8 128.1 47.95 121.55 45.4 113.65 42.35 109.55 37.3 108.35 35.75 107.55 34.1 106.6 32.25 106.4 30.5 106.2 31.9 106.45 33.4
L 106.65 34.45
Q 106.8 34.95 107 35.5 107.25 36.05 107.5 36.65
L 109.55 39.9
Q 113.65 44.95 121.5 48 128.1 50.55 136.3 51.4 136.55 50.9 136.7 50.4
L 138.75 43.95 139 42.8
Q 139.1 42.4 139.15 42 139.1591796875 41.9591796875 139.15 41.9 139.2 41.7591796875 139.2 41.6 139.35 40.9 139.55 40.2
L 139.95 36.65
Q 140.05 35.7 140.1 34.85
L 140.2 31.95 Z"/>

<path fill="#FF5555" stroke="none" d="
M 146.2 35.3
Q 145.55 35.3 145 35.55 143.95 36 143.75 36.8 143.55 37.45 143.95 38.1 144.25 38.5 144.95 39 146.1 39.9 147.7 40.35 149.35 40.8 150.75 40.6 151.85 40.45 152.75 39.7 153.75 38.85 153.85 37.8 153.95 36.7 153.05 35.75 152.1 34.85 151 35.1 150.1 35.3 149.85 35.95 149.65 36.5 149.95 37.2
L 149.6 36.9
Q 147.85 35.35 146.2 35.3
M 152.1 35.4
Q 152.6 35.7 152.4 35.9 152.2 36.05 151.65 36.15 151.1 36.2 150.7 36.05 150.25 35.95 150.35 35.65 150.35 35.6 150.45 35.55 150.6 35.3 151.25 35.3 151.8 35.25 152.1 35.4
M 146.4 36.45
Q 145.85 36.55 145.45 36.45 144.8 36.35 144.95 36
L 145 35.85
Q 145.3 35.55 146.05 35.55 146.8 35.6 146.95 36 147.15 36.35 146.4 36.45
M 130.3 16.55
Q 128.2 16.3 126.45 17.65 124.15 19.35 124.2 21.45 124.25 23.25 126 25.05
L 124.7 24.55
Q 121.75 23.4 119.1 23.1 116 22.75 113.5 23.6 111.7 24.25 110.25 25.65 109.2 26.7 108.7 27.95 108.1 29.25 108.3 30.6 108.5 32.8 110.35 34.2 111.65 35.2 114.15 36 117.2 36.95 121.2 36.8 125.25 36.7 128.9 35.4 132.8 34 135.1 31.55 137.65 28.7 137.7 24.9 137.7 23 136.65 21.1 135.55 19.25 133.9 18 132.15 16.7 130.3 16.55
M 127.85 17.7
Q 127.9 17.6 127.95 17.5 128.45 17 129.6 17 130.75 17 131.1 17.7 131.3 18.25 130.2 18.45 129.3 18.55 128.7 18.45 128.3 18.4 128.1 18.2 127.8 18 127.85 17.7
M 114.8 24.7
Q 114.5 24.45 114.6 24.1 114.65 24 114.65 23.95 115.1 23.45 116.3 23.45 117.5 23.5 117.8 24.1 118 24.7 116.9 24.9 116.05 25.05 115.4 24.9 115 24.8 114.8 24.7 Z"/>

<path fill="#C84B79" stroke="none" d="
M 135.75 164.2
L 136.35 164.55
Q 136.15 163.35 136.25 162
L 136.35 160.9 135.65 160.75 135.75 164.2
M 159.5 150.85
L 159.45 150.6
Q 158.55 150.55 157.25 150.15 155.75 149.7 154.45 148.95 154.05625 147.50625 153.2 145.9 154.2693359375 148.06796875 154.45 150.1 154.8 154 151.55 155.2 148.75 156.3 145.05 154.2 143.95 153.55 142.85 152.65
L 142 151.9 142.85 152.8
Q 143.9 153.8 145.05 154.55 148.75 156.95 151.75 155.45 153.8 154.5 154.45 152.7 154.95 151.2 154.55 149.25 155.4 149.7 156.4 150.05 158.25 150.75 159.5 150.85
M 184.8 105.6
L 184.2 104.75 182.1 106.3 181.05 104.9 179.5 102.8 179.7 98.4 173.8 102.15 178.55 103.25 180.1 105.4 181.2 106.9
Q 180.2 107.6 179.55 108.05 178.2 108.95 176.75 109.25 174.95 109.7 172.2 109.5 172.3 109.1 172.45 108.8
L 172.55 108.6 172.45 108.55
Q 172.15 108.85 171.85 109.1 171.6 109.35 171.25 109.6
L 171.1 109.75
Q 170.9 110.7 170.95 111.75
L 172 111.7
Q 171.95 111.15 172.05 110.5 173.1 110.6 173.75 110.6 175.95 110.6 177.55 110.1 178.9 109.75 180.15 108.95 181.8 107.85 184.8 105.6 Z"/>

<path fill="#FF88B6" stroke="none" d="
M 126.45 147.45
Q 126.7 146.1 126.4 145.05 126.1 143.95 125.15 143.35 124.2 142.75 122.95 142.7 121.65 142.7 120.45 143.25 119.1 143.85 118.25 145.05 117.2 146.4 116.55 148.35 115.9 150.35 115.8 152.45 115.65 157.4 118.65 160.65 120.55 162.7 123.25 163.4 125.65 164 129.35 163.7 132.55 163.45 134 163.65 134.95 163.75 135.75 164.2
L 135.65 160.75
Q 133.2 160.2 130.75 160 128.85 159.8 128.05 159.7 126.75 159.55 126.1 159.25 124.5 158.45 124.55 155.7 124.55 154.35 125 152.7 125.15 152.05 125.8 150 126.35 148.35 126.45 147.45
M 124.55 144.3
Q 125.4 145.55 124.25 147.8 123.05 150.25 122.5 152.55 121.95 154.75 122.2 156.35 122.45 158.2 123.3 159.05 124.5 160.15 127.45 160.25 131.05 160.4 132.5 160.65 134.25 160.9 134.3 161.45 134.35 162 132.6 162.2 131.3 162.35 128.75 162.35 125.7 162.35 123.7 161.9 120.5 161.1 118.65 159.1 116.75 156.85 116.5 153.3 116.3 149.95 117.65 147.25 118.8 144.95 120.25 143.95 121.25 143.3 122.6 143.35 123.95 143.35 124.55 144.3
M 179.8 83.35
L 179.5 84.8
Q 180.7 87.3 180.9 89.15 180.9 89.19375 180.95 89.3
L 180.95 89.35
Q 181.55 92.25 180.1 93.2 178.55 94.25 175.85 92.4
L 175.85 92.35 175.8 92.35
Q 175.75 92.3 175.7 92.25
L 175.2 91.9 171.65 88.25
Q 171.4 87.85 171.1 87.5 168.9 84.3 168.15 81.55 167.8 80.45 167.85 79.65 167.35 77.15 168.75 76.35 170.35 75.3 172.8 76.7 173.45 77.1 174.15 77.65 172.95 75.9 172 73.85 166.85 76.4 159.8 77.85 151 79.6 139.8 79.45
L 139.95 80
Q 140.2 80.7 140.3 81.5 140.75 84.2 140.3 87.15 139.6 86.4 138.3 85.35 135.7 83.25 132.5 81.6 130.05 80.4 127.8 79.25
L 125.95 78.2 126 78.2 96.2 60.5 100.55 67 97.35 65.95 100.55 78.75
Q 104.15 92.85 106 99.4 108.1 106.75 111.35 110.85 114.05 114.3 119.05 117.15
L 118.1 120.3
Q 116.8 124.4 114.75 129.45
L 115.35 129.65
Q 116.1 129.9 117 130 119.9 130.5 122.95 129.8
L 122.25 131
Q 121.25 132.55 119.8 134
L 121.4 134.35
Q 123.45 134.7 125.5 134.65 124.35 135.25 123 135.8
L 123.8 136.15
Q 124.9 136.5 126.2 136.85 130.2 137.85 134.3 137.9 134.5 138.75 134.95 139.7 134.7 139.75 134.45 140.05 134.1 140.4 134.1 140.9 134.15 141.85 135.8 142.95 136.85 143.6 138.2 144.2
L 139.95 146.3
Q 140.35 149.75 139.55 152.55 139.25 153.7 138.55 155.3 138.15 156.3 137.1 158.6 136.6 159.75 136.35 160.9
L 136.25 162
Q 136.15 163.35 136.35 164.55 136.6 165.9 137.25 167.6 137.65 168.55 138.4 170.35
L 137.2 171.4
Q 135.85 172.7 134.85 173.95 131.75 178.15 133.95 181 136.25 183.95 139.9 184.3 141.4 184.45 142.65 184.05 143.9 183.6 144.4 182.8 145.2 181.65 145 180.1 144.9 179.55 144.7 179.05
L 144.6 178.7 146.15 177.1
Q 146.2 179.9 147.5 181.25 149.1 182.8 153.1 182.8 156.05 182.8 157.65 181.5 159.05 180.35 159 178.7 159 176.65 157.15 175.15 156.5 174.65 155.8 174.3
L 155.25 174
Q 158.9 167.35 159.55 158.3 159.75 155.5 159.65 152.75
L 159.5 150.85
Q 158.25 150.75 156.4 150.05 155.4 149.7 154.55 149.25 154.95 151.2 154.45 152.7 153.8 154.5 151.75 155.45 148.75 156.95 145.05 154.55 143.9 153.8 142.85 152.8
L 142 151.9 142.85 152.65
Q 143.95 153.55 145.05 154.2 148.75 156.3 151.55 155.2 154.8 154 154.45 150.1 154.2693359375 148.06796875 153.2 145.9 154.05625 147.50625 154.45 148.95 155.75 149.7 157.25 150.15 158.55 150.55 159.45 150.6 161.15 150.65 162.3 149.75 163.4 149 163.85 147.65 164.25 146.35 163.9 144.95 163.5 143.5 162.3 142.45 160.95 141.3 159.4 140.2
L 158.15 139.25
Q 160.45 137.6 166.3 134.65 173.25 131.1 174.75 130.25 180.65 126.7 184.1 123.55 190.5 117.55 192.95 109.75 195.25 102.1 193.45 94.45 192.85 92.05 191.95 89.95
L 191.15 88.3 188.4 90.55 189.15 85.95
Q 184 86.15 179.8 83.35
M 167.45 75.8
Q 167.35 75.9 167.15 76.15 166.8 76.7 166.65 77.4 165.95 79.6 167 82.7 167.75 85.15 169.3 87.65 170.95 90.2 172.9 92.05 175.05 94 176.95 94.65 179.15 95.35 180.75 94.25 182.35 93.15 182.25 90.5 182.1 88.1 180.65 85.15 182.85 86.2 185.05 86.65 186.15 86.9 186.85 86.95
L 186.7 92.5 190.85 89.1
Q 189.3 95.75 186.35 99.95
L 186.55 99.85
Q 187.25 99.65 187.45 99.6
L 189 99.2 189.05 99.35 186.5 100.9
Q 186.3 101 186.1 101.1 185.85 101.25 185.35 101.3
L 185.3 101.3
Q 183.55 103.4 181.35 104.7 181.2 104.8 181.05 104.9
L 182.1 106.3 184.2 104.75 184.8 105.6
Q 181.8 107.85 180.15 108.95 178.9 109.75 177.55 110.1 175.95 110.6 173.75 110.6 173.1 110.6 172.05 110.5 171.95 111.15 172 111.7
L 170.95 111.75
Q 170.9 110.7 171.1 109.75
L 170.65 110.1
Q 169.85 110.75 169.45 111
L 169.25 111.2
Q 168.85 112.5 168.25 113.75 166.2 118.2 161.65 121.65 156.95 125.3 148.05 127.45 145.05 128.15 140.9 128.85 136.55 129.55 134.8 129.9 130.5 130.65 125.35 132.15
L 121.05 133.6
Q 123.15 131.5 125.25 128.65 126.3 127.2 126.9 126.2 123.85 128.55 119.5 128.9 118.1 129.05 116.8 128.95
L 115.7 128.8 120.1 117.1
Q 124.15 106.1 122.1 96 120.35 87.6 114.7 81.15 112.05 78.1 105.35 70.35
L 99.25 63.25 110.6 70.4
Q 123.05 78.15 128.6 81.25 133.35 83.85 135.4 85.3 138 87.1 139.55 89.2 135 91.55 134.5 96.4 134.25 99.2 135.4 102.7 135.9 104.25 134.9 106.6 134.45 107.75 133.8 108.65 135.55 108.4 137.45 109 139 109.45 142.25 111 145.75 112.65 149.45 112.8 153.9 113.05 157.05 110.85 159.2 109.4 160 106.95 160.7 104.65 160.15 101.85 159.65 99.2 158.15 96.55 156.65 93.9 154.5 91.8 150.6 88.35 145.45 88.1 143.85 88.05 142.25 88.3
L 141.05 88.55
Q 142.1 86.25 141.85 82.6
L 142.9 82.6
Q 144.35 82.6 145.8 82.45 150.75 82.05 155.4 80.9 159.1 80 162.7 78.1 164.5 77.15 165.55 76.4 166.3 76.2 167.45 75.8
M 182.9 108.2
Q 184.65 106.8 185.1 106.55 186.1 106.05 186.65 106.9 187.25 108.05 186.45 109.8 185.5 111.85 183.2 112.9 180.8 114.05 178.75 113.8 176.9 113.6 176.6 112.55 176.35 111.9 177.45 111.2 178.1 110.85 179.65 110.2 181.35 109.4 182.9 108.2
M 163.1 144.5
Q 163.45 145.45 162.9 146.15 162.3 146.8 160.85 146.4 159.2 145.95 156.05 143.95 154.15 142.75 153.5 142.35 152.2 141.45 151.1 140.55 150.25 139.8 149.2 138.55 147.9 136.9 146.25 135.25 145.05 134.3 144.5 133.7 143.45 132.5 144.5 132.05 145.3 131.7 147.4 132.3 150 133.05 152.8 135.3 153.9 136.15 156.7 138.5 159 140.45 160.95 142 162.7 143.3 163.1 144.5
M 106.45 97.25
Q 105.55 94.2 102.3 81.75
L 99.25 69.95 103.45 81.15
Q 107.9 92.85 108.85 95.1 109.85 97.6 111.55 100.2 112.8 102.2 114.9 104.95 116.55 107.15 115.9 108.95 115.65 109.7 114.95 110.1 114.25 110.5 113.45 110.35 111.9 110.1 109.6 105.5 107.65 101.55 106.45 97.25
M 135.8 96.85
Q 136 93.3 138.85 91.25 141.35 89.5 144.25 89.9 146.55 89.2 149.25 90.3 152.9 91.7 155.7 95.55 158.5 99.4 158.75 103.2 159 107.45 156 109.45 153.45 111.1 150.55 110.85 148.65 111.25 146.55 110.8 143.35 110.1 140.55 107.35
L 136.15 107.2 137.6 103.5
Q 135.6 100.05 135.8 96.85
M 133.95 132.85
Q 134.85 132.85 135.1 133.6 135.3 134.4 134.45 135.05 133.5 135.8 131.45 136 129.2 136.2 126.6 135.95
L 124.5 135.65 130.95 133.6
Q 133.1 132.85 133.95 132.85
M 136.45 133.6
Q 138.05 132.15 141 133.1 143.95 134 146.5 136.85 149.9 140.65 152.15 144.9 155 150.35 153.1 152.25 151.1 154.1 146.65 150.45 143.1 147.6 139.4 142.55 136.55 138.7 135.95 136.45 135.45 134.5 136.45 133.6
M 135.2 139.9
Q 135.45 140.4 135.9 141 136.1 141.4 136.6 142.05
L 136.85 142.5
Q 135.45 142 134.85 141.25 134.55 140.8 134.7 140.45 134.8 140.15 135.2 139.9
M 157 155.75
Q 157.65 155.6 158.15 156.2 159.3 157.7 158.3 162.35 157.5 166.6 155.8 170.85 154.95 172.9 154.25 174.2 155.1 174.3 155.95 174.95 156.8 175.55 157.25 176.45 157.75 177.35 157.65 178.15 157.5 179.05 156.6 179.55 154.7 180.6 152.55 180.25 150.45 179.95 149.45 178.55 148.55 177.35 149 175 149.2 173.6 149.9 172 150.2 171.25 150.65 169.9
L 151.1 168.7 146.25 165.7 146.9 166.65
Q 147.55 168 147.75 169.75 148 171.7 147.6 172.8 147.35 173.55 146.35 174.9 145.25 176.35 143.7 178 144.15 178.85 144.2 179.7 144.25 180.55 143.85 181.15 142.8 182.55 139.8 181.35 136.4 180.1 136.1 177.9 135.85 176 137.8 173.95 138.55 173.3 138.95 172.95 139.6 172.3 139.95 171.6 140.75 169.7 139.3 166.2 137.9 162.75 138.6 158.5 138.85 157.05 139.35 155.4 139.95 153.75 140.05 153.25 140.65 151.3 140.9 150.95 141.3 150.4 141.75 151.75
L 142.85 154.05
Q 144.45 156.7 146.45 158.75 148.8 161.1 151.3 160.4 153.65 159.8 155.75 156.7 156.35 155.95 157 155.75
M 173.05 107.65
Q 172.9 107.9 172.75 108.1 172.55 108.3 172.45 108.55
L 172.55 108.6 172.45 108.8
Q 172.3 109.1 172.2 109.5 174.95 109.7 176.75 109.25 178.2 108.95 179.55 108.05 180.2 107.6 181.2 106.9
L 180.1 105.4
Q 178.1 106.35 175.85 106.8 174.75 106.95 173.4 107.1 173.3 107.2 173.3 107.3
L 173.05 107.65
M 172.6 107.2
Q 172.75 107.2 172.85 107.15 172.15 107.15 171.4 107.2 170.6 107.2 170.35 107.35 170 107.6 169.8 108.7 169.7 109 169.5 110.1
L 170.6 108.85
Q 170.85 108.55 171.1 108.3 171.45 107.9 172.2 107.5 172.5 107.3 172.6 107.2
M 166.9 45.25
L 165.65 47.5 164.75 43.2 154.8 58.7
Q 154.95 59.5 155 60.25
L 164.1 45.35
Q 162.75 51.15 162.6 54.75 162.4 59.5 164.1 63.35 166.75 63.5 169.25 63.95
L 166.9 45.25 Z"/>

<path fill="#FFC7EA" stroke="none" d="
M 124.25 147.8
Q 125.4 145.55 124.55 144.3 123.95 143.35 122.6 143.35 121.25 143.3 120.25 143.95 118.8 144.95 117.65 147.25 116.3 149.95 116.5 153.3 116.75 156.85 118.65 159.1 120.5 161.1 123.7 161.9 125.7 162.35 128.75 162.35 131.3 162.35 132.6 162.2 134.35 162 134.3 161.45 134.25 160.9 132.5 160.65 131.05 160.4 127.45 160.25 124.5 160.15 123.3 159.05 122.45 158.2 122.2 156.35 121.95 154.75 122.5 152.55 123.05 150.25 124.25 147.8
M 158.15 156.2
Q 157.65 155.6 157 155.75 156.35 155.95 155.75 156.7 153.65 159.8 151.3 160.4 148.8 161.1 146.45 158.75 144.45 156.7 142.85 154.05
L 141.75 151.75
Q 141.3 150.4 140.9 150.95 140.65 151.3 140.05 153.25 139.95 153.75 139.35 155.4 138.85 157.05 138.6 158.5 137.9 162.75 139.3 166.2 140.75 169.7 139.95 171.6 139.6 172.3 138.95 172.95 138.55 173.3 137.8 173.95 135.85 176 136.1 177.9 136.4 180.1 139.8 181.35 142.8 182.55 143.85 181.15 144.25 180.55 144.2 179.7 144.15 178.85 143.7 178 145.25 176.35 146.35 174.9 147.35 173.55 147.6 172.8 148 171.7 147.75 169.75 147.55 168 146.9 166.65
L 146.25 165.7 151.1 168.7 150.65 169.9
Q 150.2 171.25 149.9 172 149.2 173.6 149 175 148.55 177.35 149.45 178.55 150.45 179.95 152.55 180.25 154.7 180.6 156.6 179.55 157.5 179.05 157.65 178.15 157.75 177.35 157.25 176.45 156.8 175.55 155.95 174.95 155.1 174.3 154.25 174.2 154.95 172.9 155.8 170.85 157.5 166.6 158.3 162.35 159.3 157.7 158.15 156.2
M 135.9 141
Q 135.45 140.4 135.2 139.9 134.8 140.15 134.7 140.45 134.55 140.8 134.85 141.25 135.45 142 136.85 142.5
L 136.6 142.05
Q 136.1 141.4 135.9 141
M 141 133.1
Q 138.05 132.15 136.45 133.6 135.45 134.5 135.95 136.45 136.55 138.7 139.4 142.55 143.1 147.6 146.65 150.45 151.1 154.1 153.1 152.25 155 150.35 152.15 144.9 149.9 140.65 146.5 136.85 143.95 134 141 133.1
M 135.1 133.6
Q 134.85 132.85 133.95 132.85 133.1 132.85 130.95 133.6
L 124.5 135.65 126.6 135.95
Q 129.2 136.2 131.45 136 133.5 135.8 134.45 135.05 135.3 134.4 135.1 133.6
M 102.3 81.75
Q 105.55 94.2 106.45 97.25 107.65 101.55 109.6 105.5 111.9 110.1 113.45 110.35 114.25 110.5 114.95 110.1 115.65 109.7 115.9 108.95 116.55 107.15 114.9 104.95 112.8 102.2 111.55 100.2 109.85 97.6 108.85 95.1 107.9 92.85 103.45 81.15
L 99.25 69.95 102.3 81.75
M 162.9 146.15
Q 163.45 145.45 163.1 144.5 162.7 143.3 160.95 142 159 140.45 156.7 138.5 153.9 136.15 152.8 135.3 150 133.05 147.4 132.3 145.3 131.7 144.5 132.05 143.45 132.5 144.5 133.7 145.05 134.3 146.25 135.25 147.9 136.9 149.2 138.55 150.25 139.8 151.1 140.55 152.2 141.45 153.5 142.35 154.15 142.75 156.05 143.95 159.2 145.95 160.85 146.4 162.3 146.8 162.9 146.15
M 185.1 106.55
Q 184.65 106.8 182.9 108.2 181.35 109.4 179.65 110.2 178.1 110.85 177.45 111.2 176.35 111.9 176.6 112.55 176.9 113.6 178.75 113.8 180.8 114.05 183.2 112.9 185.5 111.85 186.45 109.8 187.25 108.05 186.65 106.9 186.1 106.05 185.1 106.55
M 167.15 76.15
Q 167.35 75.9 167.45 75.8 166.3 76.2 165.55 76.4 164.5 77.15 162.7 78.1 159.1 80 155.4 80.9 150.75 82.05 145.8 82.45 144.35 82.6 142.9 82.6
L 141.85 82.6
Q 142.1 86.25 141.05 88.55
L 142.25 88.3
Q 143.85 88.05 145.45 88.1 150.6 88.35 154.5 91.8 156.65 93.9 158.15 96.55 159.65 99.2 160.15 101.85 160.7 104.65 160 106.95 159.2 109.4 157.05 110.85 153.9 113.05 149.45 112.8 145.75 112.65 142.25 111 139 109.45 137.45 109 135.55 108.4 133.8 108.65 134.45 107.75 134.9 106.6 135.9 104.25 135.4 102.7 134.25 99.2 134.5 96.4 135 91.55 139.55 89.2 138 87.1 135.4 85.3 133.35 83.85 128.6 81.25 123.05 78.15 110.6 70.4
L 99.25 63.25 105.35 70.35
Q 112.05 78.1 114.7 81.15 120.35 87.6 122.1 96 124.15 106.1 120.1 117.1
L 115.7 128.8 116.8 128.95
Q 118.1 129.05 119.5 128.9 123.85 128.55 126.9 126.2 126.3 127.2 125.25 128.65 123.15 131.5 121.05 133.6
L 125.35 132.15
Q 130.5 130.65 134.8 129.9 136.55 129.55 140.9 128.85 145.05 128.15 148.05 127.45 156.95 125.3 161.65 121.65 166.2 118.2 168.25 113.75 168.85 112.5 169.25 111.2
L 167.35 112.65 167.3 112.55 169.5 110.1
Q 169.7 109 169.8 108.7 170 107.6 170.35 107.35 170.6 107.2 171.4 107.2 172.15 107.15 172.85 107.15 172.95 107.05 173 107 173.25 106.9 173.35 106.85
L 173.45 106.95
Q 173.4 107 173.4 107.1 174.75 106.95 175.85 106.8 178.1 106.35 180.1 105.4
L 178.55 103.25 173.8 102.15 179.7 98.4 179.5 102.8 181.05 104.9
Q 181.2 104.8 181.35 104.7 183.55 103.4 185.3 101.3
L 184.75 101.3
Q 184.65 101.3 184.55 101.3
L 184.5 101.3 184.45 101.2 184.5 101.15 184.75 100.8 185 100.55
Q 185.4 100.2 185.7 100.15 185.8 100.05 186.1 100
L 186.35 99.95
Q 189.3 95.75 190.85 89.1
L 186.7 92.5 186.85 86.95
Q 186.15 86.9 185.05 86.65 182.85 86.2 180.65 85.15 182.1 88.1 182.25 90.5 182.35 93.15 180.75 94.25 179.15 95.35 176.95 94.65 175.05 94 172.9 92.05 170.95 90.2 169.3 87.65 167.75 85.15 167 82.7 165.95 79.6 166.65 77.4 166.8 76.7 167.15 76.15
M 181.25 95.15
Q 181.4 94.9 181.7 94.45
L 182.7 93.25 182.8 93.3 182.55 94
Q 182.45 94.35 182.3 94.7 182.2 94.95 181.95 95.55
L 181.8 96
Q 181.75 96.2 181.65 96.4 181.5 96.7 181.2 96.95
L 180.55 97.45 180.5 97.45 180.4 97.4 180.35 97.15 180.45 96.55
Q 180.55 96.15 180.65 95.85 180.7 95.8 180.95 95.5
L 181.25 95.15
M 186.5 94.55
L 186.55 94.65 185.9 95.6
Q 185.55 96.05 185.2 96.55
L 184.35 97.65
Q 184.3 97.75 183.95 98.2 183.75 98.5 183.55 98.75 183.2 99.1 182.7 99.5 182.25 99.85 181.95 100
L 181.65 100.15 181.55 100.05
Q 181.6 99.9 181.7 99.75 181.8 99.35 182.05 98.95 182.4 98.4 182.75 98 182.85 97.85 183.2 97.55 183.55 97.25 183.75 97.05
L 186.5 94.55
M 168.1 103.8
Q 168.7 103.6 168.9 103.55 169.6 103.45 170.45 103.45 170.7 103.45 171.1 103.45 171.15 103.45 171.55 103.5 171.8 103.5 171.95 103.5
L 172 103.6
Q 171.85 103.7 171.6 103.85
L 170.6 104.25
Q 169.8 104.55 169.15 104.65 168.65 104.7 168.25 104.75
L 162.65 105.35 162.65 105.2 165.55 104.4
Q 166.1 104.25 167.25 104
L 168.1 103.8
M 166.55 108.65
L 162.45 109.6 162.4 109.5 163.65 108.95
Q 164.65 108.5 164.85 108.4 165.25 108.25 166.3 107.85
L 167.05 107.55
Q 167.5 107.3 167.75 107.2 168.3 107 169.05 106.9 169.3 106.85 169.6 106.85
L 170 106.8
Q 170.3 106.8 170.4 106.85
L 170.45 106.95 169.8 107.45
Q 169.65 107.55 169.3 107.7 168.6 108.1 168.1 108.3 167.75 108.35 167.35 108.45 166.8 108.6 166.55 108.65
M 164.1 63.35
Q 162.4 59.5 162.6 54.75 162.75 51.15 164.1 45.35
L 155 60.25
Q 155.2 62.1 154.95 64.05
L 156.1 63.85
Q 157.6 63.55 159.25 63.45 161.75 63.25 164.1 63.35 Z"/>

<path fill="#FFD502" stroke="none" d="
M 154.8 58.7
Q 154.3 56.3 153.15 54.5 152.75 53.95 152.35 53.5
L 152.05 53.2 152 54.3
Q 151.75 55.7 150.9 57.15 148.2 61.85 140.15 65.55
L 142.95 64.35
Q 146.15 62.85 148.05 61.55 150.25 60.05 151.45 58.35 152.5 56.85 152.6 55.5
L 152.7 56.4
Q 152.7 57.5 152.4 58.65 151.6 62.2 148.3 64.65 144.95 67 142.85 68.6
L 141.5 69.7 142.2 69.15
Q 143.15 68.55 144.25 67.95 147.75 65.9 151.75 64.8 153.35 64.35 154.95 64.05 155.2 62.1 155 60.25 154.95 59.5 154.8 58.7
M 169.25 63.95
Q 166.75 63.5 164.1 63.35 161.75 63.25 159.25 63.45 157.6 63.55 156.1 63.85
L 154.95 64.05 156.8 63.8
Q 167.05 62.45 177.15 67.65 176.55 68.3 175.15 69.25 172.35 71.1 168.5 72.55 156.05 77.15 137.05 75.75
L 137.5 76.2
Q 138 76.75 138.4 77.6 139.65 80.15 139.45 83.8 138.3 82.2 136.05 80.65 131.55 77.65 126.05 78.2
L 126 78.2 125.95 78.2 127.8 79.25
Q 130.05 80.4 132.5 81.6 135.7 83.25 138.3 85.35 139.6 86.4 140.3 87.15 140.75 84.2 140.3 81.5 140.2 80.7 139.95 80
L 139.8 79.45
Q 151 79.6 159.8 77.85 166.85 76.4 172 73.85 175.5 72.15 177.85 70.1 179.05 69.05 179.5 68.3 175.15 65.15 169.25 63.95 Z"/>

<path fill="#96395C" stroke="none" d="
M 179.5 84.8
L 179.8 83.35 180.2 81 177 80.7
Q 175.55 78.8 174.15 77.65 173.45 77.1 172.8 76.7 170.35 75.3 168.75 76.35 167.35 77.15 167.85 79.65 167.8 80.45 168.15 81.55 168.9 84.3 171.1 87.5 171.4 87.85 171.65 88.25
L 175.2 91.9 175.7 92.25
Q 175.75 92.3 175.8 92.35
L 175.85 92.35
Q 176.4 92.75 176.95 93 177.25 92.65 177.4 92.1 177.7 91.05 177.3 89.25 176.6 86.4 174.45 83.25 172.25 80 169.9 78.35 169.25 77.95 168.75 77.7 168.85 77.6 168.9 77.55 170.7 76.4 173.45 78.2 175.85 79.85 178.05 83.1 180.15 86.3 180.85 89.1 180.8939453125 89.187890625 180.95 89.3 180.9 89.19375 180.9 89.15 180.7 87.3 179.5 84.8
M 169.85 79.7
Q 170.3 79.7 170.55 80 170.85 80.3 170.85 80.75 170.85 81.15 170.55 81.45 170.3 81.75 169.85 81.75 169.4 81.75 169.15 81.45 168.85 81.15 168.85 80.75 168.85 80.3 169.15 80 169.4 79.7 169.85 79.7
M 138.85 91.25
Q 136 93.3 135.8 96.85 135.6 100.05 137.6 103.5
L 136.15 107.2 140.55 107.35
Q 143.35 110.1 146.55 110.8 148.65 111.25 150.55 110.85 149.5 110.7 148.45 110.35 149.1 110.05 149.8 109.6 152.8 107.55 152.55 103.4 152.3 99.55 149.5 95.75 146.7 91.8 143.05 90.4 142.95 90.35 142.9 90.35 143.55 90.05 144.25 89.9 141.35 89.5 138.85 91.25
M 142.9 92.9
Q 143.35 92.9 143.6 93.2 143.95 93.5 143.95 93.95 143.95 94.35 143.6 94.65 143.35 94.95 142.9 94.95 142.5 94.95 142.2 94.65 141.9 94.35 141.9 93.95 141.9 93.5 142.2 93.2 142.5 92.9 142.9 92.9 Z"/>

<path fill="#FFF805" stroke="none" d="
M 175.15 69.25
Q 176.55 68.3 177.15 67.65 167.05 62.45 156.8 63.8
L 154.95 64.05
Q 153.35 64.35 151.75 64.8 147.75 65.9 144.25 67.95 143.15 68.55 142.2 69.15
L 141.5 69.7 142.85 68.6
Q 144.95 67 148.3 64.65 151.6 62.2 152.4 58.65 152.7 57.5 152.7 56.4
L 152.6 55.5
Q 152.5 56.85 151.45 58.35 150.25 60.05 148.05 61.55 146.15 62.85 142.95 64.35
L 140.15 65.55
Q 132.95 68.9 128.7 73.9 127.4 75.45 126.5 77
L 126 78.2 126.05 78.2
Q 131.55 77.65 136.05 80.65 138.3 82.2 139.45 83.8 139.65 80.15 138.4 77.6 138 76.75 137.5 76.2
L 137.05 75.75
Q 156.05 77.15 168.5 72.55 172.35 71.1 175.15 69.25 Z"/>
</g>
</defs>

<g transform="matrix( 1, 0, 0, 1, 0,0) ">
<use xlink:href="#Layer0_0_FILL"/>
</g>
</svg>
