
<svg xmlns="http://www.w3.org/2000/svg" version="1.1" xmlns:xlink="http://www.w3.org/1999/xlink" preserveAspectRatio="none" x="0px" y="0px" width="200px" height="200px" viewBox="0 0 200 200">
<defs>
<g id="Layer0_0_FILL">
<path fill="#7BBEDA" stroke="none" d="
M 157.5 176.1
L 179.55 176.1
Q 166.35 174.4 157.5 176.1
M 160.3 172.9
Q 157.35 174.25 154.9 175.85
L 166.1 170.75
Q 163.1 171.65 160.3 172.9
M 179.65 171.7
Q 174.55 171.35 169.2 172.05 162.5 172.9 159.5 175.2
L 179.65 171.7
M 140.75 164
Q 140.45 164.2 140.15 164.45
L 140.65 165.5 141.75 165.2 140.75 164
M 139.2 165.65
Q 139.1 165.8 139.05 165.95
L 139.8 165.75 139.65 165
Q 139.4 165.3 139.2 165.65
M 143.3 172.75
Q 142.45 172 141.95 170.75
L 141.65 170.75
Q 141.3 170.75 141.1 170.75 140.7 170.75 140.5 170.75 141.4 173.25 142.8 174.6 144.7 176.45 147.8 176.45
L 154.45 176.45 152.65 170.55
Q 152.15 170.75 151.3 170.75
L 151.1 170.75 152.6 173.9 147.3 173.9 146.35 170.75 144.45 170.75 145.8 173.75
Q 144.25 173.55 143.3 172.75
M 142.85 164.9
L 144.05 164.55 141.9 163.45
Q 141.8 163.5 141.7 163.55
L 141.4 163.65 142.85 164.9
M 142 162.35
L 141.95 162.35 142.15 162.9 142.2 162.9 144.5 163.4 144.15 162.4 142 162.35
M 143.85 161.65
L 143.6 161.1 141.55 161.15 141.5 161.15 141.75 161.8 141.8 161.8 143.85 161.65
M 151.15 160.3
L 151.1 160.2 144.05 160.65 145.35 164.7 138.9 166.3
Q 138.6 167.35 138.7 168.55 138.85 169.45 139.15 169.9
L 153.55 169.7
Q 153.75 169.25 153.6 168.45 153.55 168 153.2 166.9 152.35 163.75 151.15 160.3
M 150.25 161.25
Q 151.05 161.7 151.6 163.1 151.95 164.1 152.05 165.25 152.2 166.9 151.35 167.4 150.8 167.8 148.9 168 144.95 168.4 141.6 168.35 140.9 168.35 140.15 168.2 139.15 167.95 139.05 167.45 138.95 166.8 141.8 165.9 144.45 165.1 146.35 165 145.9 164.3 145.65 163.4 145.35 162.35 145.55 161.85 145.95 160.85 147.7 160.7 149.25 160.6 150.25 161.25
M 89.35 170
L 89.35 170.05
Q 89.4 170.2 89.45 170.4
L 90.55 169.55 89.15 168.95
Q 89.2 169.3 89.25 169.65
L 89.35 170
M 89.1 167.25
L 89.05 167.85 89.05 167.9 92.1 168.2 93.4 167.15 89.1 167.25
M 89.2 166.3
L 89.1 166.9 95 164.85 93.8 163.6 89.2 166.3
M 88.5 165.15
L 88.05 164.7 86.65 165.85
Q 88.25 167.2 89.05 167.85 89.05 167.35 89.1 166.9 89.15 166.4 89.25 165.95
L 89.05 165.75 93.05 162.9 92.3 162.2 88.5 165.15
M 98.55 160.3
L 96.25 157.9 92.45 161.05 96.75 165.4 89.7 170.9
Q 90.2 171.95 91.1 172.65 91.95 173.3 93 173.6
L 101.85 165.4
Q 101.65 164.1 100.65 162.6 99.95 161.7 98.55 160.3
M 94.95 159.4
Q 95.65 158.9 96.25 158.95 96.85 159 97.65 159.7 98.05 160.15 98.75 160.9 99.75 161.8 100.2 162.5 100.85 163.6 100.6 164.6 100.4 165.25 99.4 166.15 98.85 166.65 97.85 167.4 95.6 169.5 93.4 170.8 92.4 171.35 92 171.55 90.75 172.05 90.5 171.5 90.4 171.25 91.15 170.6 91.9 169.9 92.05 169.75 92.55 169.25 94.8 167.65 96.7 166.25 97.5 165.3
L 96.85 164.9
Q 96.05 164.2 95.35 163.35 94.5 162.5 94.1 162 93.45 161.05 94 160.35 94.4 159.75 94.95 159.4
M 104.4 171.5
L 102.55 173.15 99.15 169.9 97.6 171.45 101.2 174.15
Q 100.25 174.65 99 174.25 97.8 173.9 96.25 172.75
L 95.15 173.75
Q 97.85 175.85 99.8 176.35 101.85 176.8 103.35 175.6 104.6 174.55 105.95 173.35
L 107.05 172.35 101.7 167.5 100.85 168.3 104.4 171.5
M 71.75 164.45
L 71.6 164.2
Q 71.55 164.1 71.5 164.05 71.45 163.95 71.45 163.9 71.4 163.85 71.35 163.8
L 71 164.5 71.8 164.55
Q 71.75 164.5 71.75 164.45
M 69.1 170.75
L 68.8 170.75
Q 68.5 172 67.75 172.75 66.85 173.55 65.2 173.75
L 66 170.75 63.95 170.75 63.5 173.9 57.7 173.9 58.75 170.75 58.4 170.75
Q 57.5 170.75 56.95 170.55
L 56.1 176.45 63.5 176.45
Q 66.9 176.45 68.6 174.6 69.95 173.25 70.4 170.75 70.15 170.75 69.75 170.75 69.3 170.75 69.1 170.75
M 70 162.1
L 69.5 161.65 69.5 161.6 65.5 163.2 65.45 164.2 66.2 164.2 70 162.1
M 70.8 162.95
Q 70.65 162.75 70.45 162.55
L 68.35 164.35 69.5 164.4 70.8 162.95
M 65.2 160.35
L 65.2 160.3 56.15 160.45 55.9 168.75
Q 55.8 169.3 56 169.7
L 71.85 169.9
Q 72.2 169.45 72.3 168.55 72.6 166.8 72.05 165.15
L 64.8 164.7 65.2 160.35
M 67.6 165.3
Q 68.9 165.35 69.3 165.4 71.35 165.5 71.7 166.35 72.3 167.65 68.1 167.95 66.9 168 63.05 167.95 61.25 167.95 60.3 167.85 58.65 167.75 57.7 167.1 56.85 166.6 56.7 165.65 56.6 165.15 56.7 163.8 56.75 163.1 56.75 162.7 56.85 162.05 56.95 161.65 57.25 160.95 58.65 160.8 59.4 160.7 60.7 160.8 62.15 160.75 62.65 160.85 63.95 161.05 64.35 161.7 64.55 162.05 64.5 162.9 64.5 163.35 64.45 164.15 64.45 164.95 64.35 165.3 65.8 165.25 67.6 165.3
M 69.55 160.6
L 65.55 160.8 65.5 162.1 69.5 161.2 69.55 161.05 69.55 160.6
M 168.55 150.85
L 168 151.05 165.6 154.95 165.9 155.35 165.1 154.35 165.2 154.45 166.75 151.7 165.25 152.4 164.2 154.9 164.5 154.7 164.6 154.7 164.45 154.75 165.2 155.55
Q 166.2 156.4 167.15 156.9 167.2 156.95 167.3 157
L 171.05 154.05 170.3 153.05 166.65 156.3 166.1 155.65 169.3 151.8 168.55 150.85
M 172.2 156.5
Q 172.4 156.25 172.6 155.95
L 172 155.2 168.9 157.55
Q 169.05 157.55 169.2 157.55 169.7 157.6 170.15 157.55 170.95 157.4 171.7 156.9
L 172.2 156.5
M 166.45 144.9
Q 165.5 144.95 164.65 145.25 163.35 145.9 161.85 146.75
L 161.85 146.8
Q 163.3 147.35 164.1 148.9 164.95 150.35 164.75 152.05
L 164.8 152.05 168.9 150.15 172.8 155.65
Q 173 155.3 173.2 154.75 174.05 153.2 174.3 152.4 174.75 150.75 173.75 149.4
L 168.95 143.6 166.65 144.85
Q 169.35 144.7 171.25 147 171.65 147.45 172 148.05 172.95 149.65 173.3 151.3 173.65 152.8 173.35 154.1 173.1 150.9 171.3 148.3 169.35 145.65 166.45 144.9
M 164.75 145.65
Q 166 145.2 166.85 145.4 168.8 145.85 170.25 147.55 171.35 148.9 172.3 151.1 173.4 153.75 172.9 154.2 172.75 154.4 172.3 154.05 172.15 153.9 171.8 153.55 171.35 153.05 170.9 152.35 170.25 151.55 170 151.15 169.05 149.9 168.7 149.15 168.4 149.4 168.05 149.55 166.95 150.05 166.1 150 165.6 150 165.25 149.65 165.05 149.45 164.65 148.9 164.4 148.45 163.85 147.85 163.5 147.4 163.45 147.1 163.35 146.15 164.75 145.65 Z"/>

<path fill="#45809A" stroke="none" d="
M 141.95 170.75
L 144.45 170.75 146.35 170.75 151.1 170.75 151.3 170.75
Q 152.15 170.75 152.65 170.55 153.05 170.35 153.4 169.9 153.5 169.85 153.55 169.7
L 139.15 169.9
Q 139.25 170.05 139.45 170.25 139.8 170.65 140.5 170.75 140.7 170.75 141.1 170.75 141.3 170.75 141.65 170.75
L 141.95 170.75
M 143.6 161.1
L 143.85 161.65 141.8 161.8 142 162.35 144.15 162.4 144.5 163.4 142.2 162.9 142.35 163.3
Q 142.1 163.35 141.9 163.45
L 144.05 164.55 142.85 164.9 141.4 163.65
Q 141.05 163.8 140.75 164
L 141.75 165.2 140.65 165.5 140.15 164.45
Q 140.45 164.2 140.75 164 139.7 164.65 139.2 165.65 139.4 165.3 139.65 165
L 139.8 165.75 139.05 165.95
Q 138.95 166.1 138.9 166.3
L 145.35 164.7 144.05 160.65 141.4 160.85 141.55 161.15 143.6 161.1
M 88.05 164.7
L 88.5 165.15 92.3 162.2 93.05 162.9 89.05 165.75 89.25 165.95
Q 89.15 166.4 89.1 166.9
L 89.2 166.3 93.8 163.6 95 164.85 89.1 166.9
Q 89.05 167.35 89.05 167.85
L 89.1 167.25 93.4 167.15 92.1 168.2 89.05 167.9
Q 89.05 168.8 89.25 169.65 89.2 169.3 89.15 168.95
L 90.55 169.55 89.45 170.4
Q 89.55 170.7 89.7 170.9
L 96.75 165.4 92.45 161.05 88.05 164.7
M 101.85 166.45
Q 101.9 165.95 101.85 165.4
L 93 173.6
Q 94 173.85 95.15 173.75
L 96.25 172.75 97.6 171.45 99.15 169.9 100.85 168.3 101.7 167.5
Q 101.8 167 101.85 166.45
M 66 170.75
L 68.8 170.75 69.1 170.75
Q 69.3 170.75 69.75 170.75 70.15 170.75 70.4 170.75 71.15 170.65 71.55 170.25 71.75 170.05 71.85 169.9
L 56 169.7 56.15 169.9
Q 56.5 170.35 56.95 170.55 57.5 170.75 58.4 170.75
L 58.75 170.75 63.95 170.75 66 170.75
M 65.55 160.8
L 69.55 160.6 69.55 160.2 65.2 160.3 65.2 160.35 64.8 164.7 72.05 165.15
Q 71.95 164.85 71.8 164.55
L 71 164.5 71.35 163.8
Q 71.4 163.85 71.45 163.9 71.15 163.4 70.8 162.95
L 69.5 164.4 68.35 164.35 70.45 162.55 70 162.1 66.2 164.2 65.45 164.2 65.5 163.2 69.5 161.6 69.55 161.05 69.5 161.2 65.5 162.1 65.55 160.8
M 172.2 156.5
Q 172.55 156.15 172.8 155.65
L 168.9 150.15 164.8 152.05 164.75 152.05
Q 164.6 153.95 163.35 155.5
L 164.5 154.7 164.2 154.9 165.25 152.4 166.75 151.7 165.2 154.45 165.1 154.35 165.9 155.35 165.6 154.95 168 151.05 168.55 150.85 169.3 151.8 166.1 155.65 166.65 156.3 170.3 153.05 171.05 154.05 167.3 157
Q 168.1 157.4 168.9 157.55
L 172 155.2 172.6 155.95
Q 172.4 156.25 172.2 156.5
M 166.4 144.85
L 166.45 144.9
Q 169.35 145.65 171.3 148.3 173.1 150.9 173.35 154.1 173.65 152.8 173.3 151.3 172.95 149.65 172 148.05 171.65 147.45 171.25 147 169.35 144.7 166.65 144.85
L 166.4 144.85 Z"/>

<path fill="#BAEDFA" stroke="none" d="
M 151.6 163.1
Q 151.05 161.7 150.25 161.25 149.25 160.6 147.7 160.7 145.95 160.85 145.55 161.85 145.35 162.35 145.65 163.4 145.9 164.3 146.35 165 144.45 165.1 141.8 165.9 138.95 166.8 139.05 167.45 139.15 167.95 140.15 168.2 140.9 168.35 141.6 168.35 144.95 168.4 148.9 168 150.8 167.8 151.35 167.4 152.2 166.9 152.05 165.25 151.95 164.1 151.6 163.1
M 96.25 158.95
Q 95.65 158.9 94.95 159.4 94.4 159.75 94 160.35 93.45 161.05 94.1 162 94.5 162.5 95.35 163.35 96.05 164.2 96.85 164.9
L 97.5 165.3
Q 96.7 166.25 94.8 167.65 92.55 169.25 92.05 169.75 91.9 169.9 91.15 170.6 90.4 171.25 90.5 171.5 90.75 172.05 92 171.55 92.4 171.35 93.4 170.8 95.6 169.5 97.85 167.4 98.85 166.65 99.4 166.15 100.4 165.25 100.6 164.6 100.85 163.6 100.2 162.5 99.75 161.8 98.75 160.9 98.05 160.15 97.65 159.7 96.85 159 96.25 158.95
M 69.3 165.4
Q 68.9 165.35 67.6 165.3 65.8 165.25 64.35 165.3 64.45 164.95 64.45 164.15 64.5 163.35 64.5 162.9 64.55 162.05 64.35 161.7 63.95 161.05 62.65 160.85 62.15 160.75 60.7 160.8 59.4 160.7 58.65 160.8 57.25 160.95 56.95 161.65 56.85 162.05 56.75 162.7 56.75 163.1 56.7 163.8 56.6 165.15 56.7 165.65 56.85 166.6 57.7 167.1 58.65 167.75 60.3 167.85 61.25 167.95 63.05 167.95 66.9 168 68.1 167.95 72.3 167.65 71.7 166.35 71.35 165.5 69.3 165.4
M 166.85 145.4
Q 166 145.2 164.75 145.65 163.35 146.15 163.45 147.1 163.5 147.4 163.85 147.85 164.4 148.45 164.65 148.9 165.05 149.45 165.25 149.65 165.6 150 166.1 150 166.95 150.05 168.05 149.55 168.4 149.4 168.7 149.15 169.05 149.9 170 151.15 170.25 151.55 170.9 152.35 171.35 153.05 171.8 153.55 172.15 153.9 172.3 154.05 172.75 154.4 172.9 154.2 173.4 153.75 172.3 151.1 171.35 148.9 170.25 147.55 168.8 145.85 166.85 145.4 Z"/>

<path fill="#B2A08B" stroke="none" d="
M 45.8 100.35
L 45.7 99.2
Q 44.45 99.35 43.25 99.8 42.05 100.25 41.1 101.05
L 41.8 101.9
Q 42.3 101.5 42.95 101.15 43.5 103.25 44.3 105.35 45.5 108.5 47.15 111.1 48.5 113.25 50.2 114.9 50.5 115.15 50.85 115.4
L 55.65 117.75
Q 56.25 118 56.9 118.2 51.7 116.05 48.15 110.55 46.5 108 45.3 104.8 44.55 102.75 44.05 100.7 44.9 100.45 45.8 100.35
M 65.95 109.2
Q 65.5 109.25 65.15 109.3 64.95 109.3 64.8 109.35
L 66.1 119.2 67.25 119.05 65.95 109.2
M 82.6 95.8
Q 83.35 95.65 84.1 95.65 84.15 97.65 83.9 99.85 83.55 103.35 82.5 106.3 81.05 110.5 78.5 113.45 79.05 112.9 79.65 112.4
L 82.75 108.75
Q 83.2 107.75 83.55 106.7 84.6 103.6 85.05 100.1 85.35 97.8 85.3 95.75 85.95 95.8 86.6 96
L 87 94.95
Q 85.9 94.6 84.65 94.5 83.5 94.4 82.35 94.65
L 82.6 95.8 Z"/>

<path fill="#574F48" stroke="none" d="
M 74.95 93.6
Q 70.75 91.35 63.1 92.25 55.05 93.15 51.6 96.3 48.55 99 49.75 102.45 50.75 105.3 53.95 107.2 54.45 107.5 55.05 107.8 59.45 109.95 64.8 109.35 64.95 109.3 65.15 109.3 65.5 109.25 65.95 109.2 71.3 108.45 74.95 105.5 75.6 104.95 76.15 104.35 78.45 101.95 78.55 99.15 78.65 95.55 74.95 93.6
M 52.2 97.55
Q 52.95 96.6 54.1 95.95 57.75 94.05 63.4 93.5 69.25 92.9 73.2 94.15 75.15 94.8 75.95 95.7 76.55 96.5 76.25 97.5 75.85 98.7 74.05 100 72.4 101.1 70.55 101.65 66.35 103 62.5 103.35 57.9 103.75 54.45 102.7 51.25 101.75 51.35 99.5 51.45 98.5 52.2 97.55
M 44 88.85
Q 43.1 89.4 42.35 89.95 43.6 89.1 45.3 88.1 44.6 88.45 44 88.85
M 55.85 31.35
Q 49.95 32.1 44.15 33.5
L 39.6 34.85
Q 38.15 32.85 37.4 32 36.25 30.65 35.15 30.05 32.6 28.65 28.65 30.35 21.8 33.4 8.95 37.7 4.75 39.05 3.55 40.8 2.2 42.6 3.2 46.05 4.5 50.4 7.05 57.05 10.15 65.2 12.7 70.1 13.4 71.45 13.7 71.9 14.3 72.75 14.9 72.95 16.4 73.35 18.85 69.9
L 23.2 78.15
Q 28.75 88.25 34.65 97.5 34.65 97.45 34.7 97.45 35.15 95.85 37.15 93.95 34.75 92.05 33.9 90.4 32.8 88.2 35.1 87.1 36.1 86.55 38.65 86.4 41.35 86.25 42.25 85.9 44.85 85 46.85 83.2 48.85 81.4 50.05 78.9 51.25 76.4 51.75 72.85 52.25 69.25 52 65.6 51.7 61.75 50.6 58.75 49.35 55.45 47.4 53.7 46.2 52.6 44.45 52 42.8 51.4 41.1 51.3 38.4 51.15 35.45 52.95 32.95 54.5 31.1 56.9 29.25 59.3 28.6 57.55 28.35 56.85 28.4 55.7 28.4 54.65 28.6 53.7 29.15 51.5 30.45 49.1 31.75 46.85 33.35 45 37.4 40.35 44.5 37.35 49.7 35.1 56.15 33.95
L 55.85 31.35
M 5.95 40.4
Q 7.5 39.2 11.1 38.25 15.15 37.15 17.9 36.15 21.05 35 24.4 33.25 26.9 31.95 28.1 31.45 30.25 30.55 32.05 30.35 34.5 30.2 35.7 31.25 36.45 32 37.1 32.9 37.95 34 38.05 34.8 38.15 35.4 37.9 35.8 37.55 36.1 37 36.1 36.6 36.1 36.1 35.95 36 35.9 34.55 34.85 33.6 34.1 32.95 34.3 32.2 34.5 31.4 35.25 29.65 37.05 28.15 40.2 27.3 41.9 25.85 45.7 24.8 48.45 22.75 54.2 20.75 59.9 19.65 62.75 19.1 64.1 18.2 66.85 17.35 69.15 16.75 70 15.85 71.1 14.85 70.4 13.7 69.65 12.3 66.35 9.2 59.4 7.85 55.95 5.55 50.15 4.25 45.25 3.5 42.2 5.95 40.4
M 26.85 67.85
Q 29 63.35 33.7 61.65 38.35 60 42.85 62.2 47.35 64.35 49 69 50.65 73.7 48.5 78.15 48.2 78.8 47.8 79.45
L 45.15 82.5 43.55 83.5
Q 42.7 84 41.7 84.35 37.05 85.95 32.7 83.95 32.7 83.9 32.65 83.9 32.6 83.85 32.5 83.8 28.05 81.65 26.4 76.95 24.7 72.3 26.85 67.85
M 110.65 33.6
Q 110 30.4 106.1 29.1 99.2 26.7 81.4 23.75 75.95 22.85 73.1 26.85 72.15 28.1 71.65 29.7 71.4 30.45 71.3 31.05 81.25 39.5 90.25 48.95 92.35 51.15 96.05 55.2 98.85 58.25 99.9 59.25
L 100.25 59.6
Q 103.45 62.55 104.85 62.2 105.75 61.9 106 60.15 106.15 59.1 106.6 56.65 107.3 53 108.45 47.4 109.55 42.25 110.15 39.7 111.1 35.55 110.65 33.6
M 83.2 32.05
Q 82 30.7 81.05 30 79.7 29 78.35 28.85 77.45 28.75 75.25 30.25 74.2 31 73.8 31.2 73.1 31.55 72.8 31.3 72.05 30.8 72.7 29.3 73.2 28.25 73.95 27.4 76.2 25 80.2 24.9 82.15 24.85 87.1 25.7 93.95 26.9 96.55 27.45 102.3 28.75 105.9 30.35 108.6 31.55 109 35 109.25 37.35 108.45 41.1 106.4 50.65 105.25 58.25 104.75 61 103.6 60.65 102.95 60.45 101.1 58.25 98.55 55.3 95.8 51.1 94.95 49.75 91.15 43.45 88.95 39.8 87.35 37.55 85.25 34.4 83.2 32.05 Z"/>

<path fill="#93887F" stroke="none" d="
M 54.1 95.95
Q 52.95 96.6 52.2 97.55 51.45 98.5 51.35 99.5 51.25 101.75 54.45 102.7 57.9 103.75 62.5 103.35 66.35 103 70.55 101.65 72.4 101.1 74.05 100 75.85 98.7 76.25 97.5 76.55 96.5 75.95 95.7 75.15 94.8 73.2 94.15 69.25 92.9 63.4 93.5 57.75 94.05 54.1 95.95
M 56.15 33.95
Q 49.7 35.1 44.5 37.35 37.4 40.35 33.35 45 31.75 46.85 30.45 49.1 29.15 51.5 28.6 53.7 28.4 54.65 28.4 55.7 28.35 56.85 28.6 57.55 29.25 59.3 31.1 56.9 32.95 54.5 35.45 52.95 38.4 51.15 41.1 51.3 42.8 51.4 44.45 52 46.2 52.6 47.4 53.7 49.35 55.45 50.6 58.75 51.7 61.75 52 65.6 52.25 69.25 51.75 72.85 51.25 76.4 50.05 78.9 48.85 81.4 46.85 83.2 44.85 85 42.25 85.9 41.35 86.25 38.65 86.4 36.1 86.55 35.1 87.1 32.8 88.2 33.9 90.4 34.75 92.05 37.15 93.95 37.2 93.9 37.25 93.9
L 37.5 93.65
Q 37.7 93.5 37.9 93.3 38.15 93 38.55 92.75
L 39.6 92 40.7 91.1
Q 40.85 90.95 41.1 90.8 41.2 90.75 41.3 90.7
L 42.35 89.95
Q 43.1 89.4 44 88.85 44.6 88.45 45.3 88.1
L 52.9 83.65
Q 58.4 80.55 60 75.9 60.65 74.15 60.75 72 60.75 70.6 60.6 68.35
L 56.15 33.95
M 11.1 38.25
Q 7.5 39.2 5.95 40.4 3.5 42.2 4.25 45.25 5.55 50.15 7.85 55.95 9.2 59.4 12.3 66.35 13.7 69.65 14.85 70.4 15.85 71.1 16.75 70 17.35 69.15 18.2 66.85 19.1 64.1 19.65 62.75 20.75 59.9 22.75 54.2 24.8 48.45 25.85 45.7 27.3 41.9 28.15 40.2 29.65 37.05 31.4 35.25 32.2 34.5 32.95 34.3 33.6 34.1 34.55 34.85 36 35.9 36.1 35.95 36.6 36.1 37 36.1 37.55 36.1 37.9 35.8 38.15 35.4 38.05 34.8 37.95 34 37.1 32.9 36.45 32 35.7 31.25 34.5 30.2 32.05 30.35 30.25 30.55 28.1 31.45 26.9 31.95 24.4 33.25 21.05 35 17.9 36.15 15.15 37.15 11.1 38.25
M 81.05 30
Q 82 30.7 83.2 32.05 85.25 34.4 87.35 37.55 88.95 39.8 91.15 43.45 94.95 49.75 95.8 51.1 98.55 55.3 101.1 58.25 102.95 60.45 103.6 60.65 104.75 61 105.25 58.25 106.4 50.65 108.45 41.1 109.25 37.35 109 35 108.6 31.55 105.9 30.35 102.3 28.75 96.55 27.45 93.95 26.9 87.1 25.7 82.15 24.85 80.2 24.9 76.2 25 73.95 27.4 73.2 28.25 72.7 29.3 72.05 30.8 72.8 31.3 73.1 31.55 73.8 31.2 74.2 31 75.25 30.25 77.45 28.75 78.35 28.85 79.7 29 81.05 30 Z"/>

<path fill="#FFFFFF" stroke="none" d="
M 32.2 72.6
Q 34.3 68.15 38.95 66.45 43.6 64.85 48 66.9 48.55 67.9 49 69.05 50.6 73.75 48.45 78.2 48.15 78.85 47.8 79.45 48.2 78.8 48.5 78.15 50.65 73.7 49 69 47.35 64.35 42.85 62.2 38.35 60 33.7 61.65 29 63.35 26.85 67.85 24.7 72.3 26.4 76.95 28.05 81.65 32.5 83.8 32.6 83.85 32.65 83.9 32.1 82.9 31.7 81.75 30.05 77.1 32.2 72.6
M 40.75 69.15
Q 40.75 69.55 41.05 69.9 41.35 70.2 41.8 70.2 42.3 70.2 42.6 69.9 42.9 69.55 42.9 69.15 42.9 68.65 42.6 68.3 42.3 68 41.8 68 41.35 68 41.05 68.3 40.75 68.65 40.75 69.15
M 106.9 81
Q 107.5 81.5 108.15 82.1 111.65 85.6 111.65 90.6 111.65 95.6 108.15 99.1 104.6 102.6 99.7 102.6 98.9 102.6 98.25 102.5 101.3 104.85 105.35 104.85 110.3 104.85 113.85 101.35 117.35 97.8 117.35 92.9 117.35 87.9 113.85 84.4 112.25 82.8 110.35 81.95 108.7 81.2 106.9 81
M 102.25 85.85
Q 102.55 86.2 103 86.2 103.5 86.2 103.75 85.85 104.1 85.5 104.1 85.1 104.1 84.6 103.75 84.3 103.5 83.95 103 83.95 102.55 83.95 102.25 84.3 101.9 84.6 101.9 85.1 101.9 85.5 102.25 85.85
M 93.7 63.5
Q 93.9 64 94 64.5 93.9 63.95 93.7 63.45 92.05 58.75 87.55 56.65 83.1 54.5 78.4 56.15 73.7 57.8 71.55 62.3 69.4 66.75 71.1 71.45 72.75 76.1 77.25 78.25 77.3 78.25 77.35 78.3 76.8 77.35 76.4 76.25 74.75 71.55 76.9 67.1 79 62.55 83.7 60.9 88.3 59.3 92.7 61.35 93.25 62.35 93.7 63.5
M 87.25 62.1
Q 86.75 62.1 86.45 62.45 86.15 62.75 86.15 63.25 86.15 63.65 86.45 64 86.75 64.35 87.25 64.35 87.7 64.35 88 64 88.3 63.65 88.3 63.25 88.3 62.75 88 62.45 87.7 62.1 87.25 62.1
M 126.2 102.05
L 126.2 101.9
Q 126.05 101.9 125.75 101.9 125.3 101.9 124.8 101.95 124.45 102 124.15 102.1 123.8 102.2 123.5 102.3 123.25 102.4 122.85 102.55 122.4 102.8 122.15 102.9
L 121.55 103.2 118.4 104.65 118.45 104.75 120.85 104.25 120.95 104.2
Q 121.45 104.05 122.45 103.75
L 123.2 103.6 123.25 103.6
Q 123.6 103.5 123.8 103.45 123.85 103.4 123.9 103.4 124.45 103.2 125.15 102.85 125.3 102.75 125.4 102.65 125.65 102.45 125.9 102.3
L 126.2 102.05
M 124.9 99.65
Q 124.5 99.65 124.1 99.65 122.9 99.7 122.05 99.85 121.6 99.95 120.95 100.1
L 116.3 101.2 113.65 101.8 113.65 101.9 115.9 101.65 121.1 101.15
Q 121.75 101.1 122.25 101.05 123.25 100.85 124.25 100.55
L 125.6 100.1
Q 125.95 99.95 126.1 99.85
L 126.1 99.75 124.9 99.65
M 146.1 97.1
L 146.45 97.15 146.95 97.15
Q 147.2 97.2 147.5 97.15 148.25 97.15 148.95 97 149.2 96.9 149.7 96.75 149.85 96.75 150.1 96.65 150.25 96.6 150.5 96.5 151 96.35 152.05 96
L 154.75 95.1 154.75 95
Q 154.15 95.05 153.3 95.15
L 151.9 95.35
Q 151.75 95.4 150.25 95.6
L 149.45 95.75
Q 149 95.8 148.65 95.8 148.25 95.9 147.9 96.05 147.6 96.15 147.3 96.3 146.9 96.5 146.8 96.55 146.45 96.7 146.35 96.75
L 146.05 96.95 146.1 97.1
M 118.15 98
L 120.3 98.15
Q 120.5 98.15 122.35 98.25
L 123.35 98.35
Q 123.85 98.4 124.35 98.4 125.15 98.4 126.1 98.25 126.4 98.2 126.8 98.1 127 98.1 127.35 98 127.65 97.9 127.8 97.8
L 127.8 97.7
Q 127.65 97.7 127.3 97.6 127.25 97.55 126.8 97.45
L 126.1 97.35
Q 125.05 97.2 124.35 97.2 123.9 97.2 123.35 97.25
L 122.35 97.35
Q 120.95 97.45 120.3 97.5
L 118.3 97.7 116.8 97.75 116.8 97.85 118.15 98
M 146.75 93.75
Q 146.4 93.9 145.8 94.1 145.1 94.4 144.85 94.55 144.15 94.85 143.35 95.45 142.95 95.75 142.75 95.85 142.35 96.2 142.3 96.25
L 141.95 96.6 142 96.7 143.05 96.5
Q 143.45 96.35 143.7 96.25 144.65 95.95 145.35 95.6 145.7 95.4 146.25 95.05 147.05 94.6 147.2 94.55
L 150.5 92.6
Q 151.4 92.05 151.95 91.7
L 151.95 91.55 148.65 92.95
Q 147.4 93.45 146.75 93.75
M 141.2 94.8
L 141.25 94.85 142.05 94.6
Q 142.35 94.5 142.55 94.35 143.35 93.95 143.75 93.65 144.05 93.45 144.35 93.1 144.6 92.9 144.95 92.55 145.6 92 146.15 91.5 146.45 91.2 147.2 90.55
L 148.15 89.7 148.15 89.65 148.1 89.55
Q 148.05 89.55 148.05 89.6 147.55 89.9 146.95 90.25 146.25 90.65 145.75 91 145.7 91 144.4 91.85
L 143.7 92.25
Q 143.35 92.5 143.05 92.7 142.5 93.05 142.05 93.65 141.85 93.85 141.65 94.05
L 141.2 94.8
M 164.4 86.75
Q 167.1 84.1 167.75 80.6 167.95 79.5 167.95 78.25 167.95 73.3 164.4 69.8 161.45 66.8 157.55 66.4 158.15 66.95 158.75 67.5 162.3 71.05 162.3 76 162.3 80.95 158.75 84.45 155.25 88 150.25 88 149.5 88 148.85 87.95 151.95 90.25 155.95 90.25 160.9 90.25 164.4 86.75
M 154.3 70.2
Q 154 69.9 153.55 69.9 153.05 69.9 152.8 70.2 152.45 70.55 152.45 71.05 152.45 71.45 152.8 71.8 153.05 72.1 153.55 72.1 154 72.1 154.3 71.8 154.65 71.45 154.65 71.05 154.65 70.55 154.3 70.2 Z"/>

<path fill="#584027" stroke="none" d="
M 38.95 66.45
Q 34.3 68.15 32.2 72.6 30.05 77.1 31.7 81.75 32.1 82.9 32.65 83.9 32.7 83.9 32.7 83.95 37.05 85.95 41.7 84.35 42.7 84 43.55 83.5
L 45.15 82.5 47.8 79.45
Q 48.15 78.85 48.45 78.2 50.6 73.75 49 69.05 48.55 67.9 48 66.9 43.6 64.85 38.95 66.45
M 41.05 69.9
Q 40.75 69.55 40.75 69.15 40.75 68.65 41.05 68.3 41.35 68 41.8 68 42.3 68 42.6 68.3 42.9 68.65 42.9 69.15 42.9 69.55 42.6 69.9 42.3 70.2 41.8 70.2 41.35 70.2 41.05 69.9
M 93.2 72.65
Q 93.55 72 93.75 71.35
L 94.45 67.5 94 64.5
Q 93.9 64 93.7 63.5 93.25 62.35 92.7 61.35 88.3 59.3 83.7 60.9 79 62.55 76.9 67.1 74.75 71.55 76.4 76.25 76.8 77.35 77.35 78.3 77.35 78.35 77.4 78.4 81.75 80.45 86.4 78.8 91.1 77.15 93.2 72.65
M 86.45 62.45
Q 86.75 62.1 87.25 62.1 87.7 62.1 88 62.45 88.3 62.75 88.3 63.25 88.3 63.65 88 64 87.7 64.35 87.25 64.35 86.75 64.35 86.45 64 86.15 63.65 86.15 63.25 86.15 62.75 86.45 62.45 Z"/>

<path fill="#96395C" stroke="none" d="
M 95.1 81.85
Q 93.95 85.9 92.65 89.55 91.1 93.9 89.3 97.7
L 93.3 98.65
Q 94.95 100.7 97.4 101.9 97.45 101.9 97.5 101.95 97.8 102.25 98.2 102.5
L 98.25 102.5
Q 98.9 102.6 99.7 102.6 104.6 102.6 108.15 99.1 111.65 95.6 111.65 90.6 111.65 85.6 108.15 82.1 107.5 81.5 106.9 81 108.7 81.2 110.35 81.95 107.1 79.15 102.65 79.15 98.35 79.15 95.1 81.85
M 103 86.2
Q 102.55 86.2 102.25 85.85 101.9 85.5 101.9 85.1 101.9 84.6 102.25 84.3 102.55 83.95 103 83.95 103.5 83.95 103.75 84.3 104.1 84.6 104.1 85.1 104.1 85.5 103.75 85.85 103.5 86.2 103 86.2
M 167.15 69.95
Q 165.6 67.15 162.85 65.45 160.05 63.8 156.7 63.8 151.75 63.8 148.2 67.3 145.55 70 144.95 73.45 143.95 75.65 143.95 78.25
L 143.95 78.3
Q 143.95 83.1 147.25 86.5 147.25 86.55 147.35 86.65 147.4 86.7 147.45 86.75
L 148.15 87.35
Q 148.45 87.7 148.8 87.95
L 148.85 87.95
Q 149.5 88 150.25 88 155.25 88 158.75 84.45 162.3 80.95 162.3 76 162.3 71.05 158.75 67.5 158.15 66.95 157.55 66.4 161.45 66.8 164.4 69.8 167.95 73.3 167.95 78.25 167.95 79.5 167.75 80.6 168.7 78.4 168.7 75.8 168.7 75.5 168.7 74.9
L 171.9 70.45 167.15 69.95
M 153.55 69.9
Q 154 69.9 154.3 70.2 154.65 70.55 154.65 71.05 154.65 71.45 154.3 71.8 154 72.1 153.55 72.1 153.05 72.1 152.8 71.8 152.45 71.45 152.45 71.05 152.45 70.55 152.8 70.2 153.05 69.9 153.55 69.9 Z"/>

<path fill="#FBF8F5" stroke="none" d="
M 83.3 50.8
Q 84.95 51.35 85.85 51 90.85 49.1 80.7 40.6 71.1 32.5 56.15 33.95
L 60.6 68.35
Q 60.75 70.6 60.75 72 60.65 74.15 60 75.9 58.4 80.55 52.9 83.65
L 45.3 88.1
Q 43.6 89.1 42.35 89.95
L 41.3 90.7
Q 41.2 90.75 41.1 90.8 40.85 90.95 40.7 91.1
L 39.6 92 37.9 93.3
Q 37.7 93.5 37.5 93.65
L 37.25 93.9
Q 37.2 93.9 37.15 93.95 38.9 95.4 40.7 96 42.1 96.5 43.95 96.5 46.85 96.5 47.7 99.95 47.95 101.1 48.1 103 48.3 105.5 48.35 105.75 48.75 109.1 51.25 112 53.75 114.85 57.05 115.9 57.9 116.2 59.05 116.3 60.35 116.4 61.25 116.2 63.6 115.7 61.6 113.65 60.05 112.1 56.65 109.3
L 53.95 107.2
Q 50.75 105.3 49.75 102.45 48.55 99 51.6 96.3 55.05 93.15 63.1 92.25 70.75 91.35 74.95 93.6 78.65 95.55 78.55 99.15 78.45 101.95 76.15 104.35
L 73.6 107.45
Q 70.85 111 70 112.9 69.3 114.45 69.95 114.9 70.5 115.4 72.2 115.05 74.6 114.6 76.75 112.65 78.5 111 79.8 108.5 81.35 105.7 81.15 102.45 81.1 101.2 80.75 99.45 80.35 97.4 80.1 96.25 79.8 94.6 80.4 93.35 81 92 82.4 91.7 83.15 91.55 84 91.55 84.5 91.55 85.4 91.6 86.9 91.6 88.25 90.7 90.15 89.4 91.55 86.95 93.2 84.15 92.65 82.15 92.35 81.25 91.75 80.7 90.4 79.65 87.15 80.25 83.55 81.1 82.4 81.15 78.1 81.35 74.5 78.7 70.95 76.15 69.45 72.05 68.2 68.4 67.95 64.3 67.65 59.8 68.75 56.4 70 52.5 72.75 50.75 75.95 48.8 80.75 49.95 81.5 50.15 83.3 50.8
M 87.85 135.75
Q 88.4 135.8 89.9 136 91.3 136.2 92.25 136.5 95.05 137.35 94.85 139.4 95.6 139.4 96.35 140 96.95 140.45 97.5 141.3 97.95 142 98.45 142.35 98.95 142.75 99.85 142.9 102.05 143.25 102.85 142.7 103.65 142.15 103.65 140.15 103.65 138.9 104.05 138.15 104.35 137.65 105.4 136.6 106.1 135.95 106.45 135.5 107.25 134.65 106.95 134.2 107.65 135.15 107.95 135.5 108.65 136.25 109.25 136.45 110.2 136.8 110.95 136.25 111.65 135.7 111.25 134.75 111 134 110.25 133.6 109.65 133.2 108.8 133.1 107.5 133 105.45 133.55 103.05 134.15 102.15 134.2 98.9 134.35 93.5 133.35 87.25 132.2 84.85 132.05 83.6 132 82.95 132 81.65 132.05 81.15 132.35 80.05 132.95 81.4 133.85 82.05 134.35 83.45 134.85 84.4 135.2 85.6 135.45 86.35 135.6 87.85 135.75
M 56.5 151.55
L 56.55 150.5
Q 52.7 149.8 50.15 148.35 53.15 150.45 56.5 151.55
M 58.1 133.8
Q 58.15 134.9 58.35 137.1 58.45 140.1 57.95 144.95 57.35 151.05 57.3 152.8 57.15 155.25 57.3 156.45 57.4 157.85 57.9 158.55 58.45 159.3 59.6 159.55 60.6 159.8 62.6 159.75 66.25 159.75 67.75 158.1 69.25 156.55 69.1 153.15 69.3 155 71 155.95 71.85 156.45 74.8 157.2 80.85 158.8 84.9 159.4 83.6 159.25 83.3 159.95 82.95 160.6 83.55 161.7 84.05 162.8 85 163.5 86.1 164.35 87.1 164.25 88.3 164.2 91.1 161.8 93.85 159.45 94.2 158.35 94.95 156.45 91.35 154.65 90.2 154.05 88.3 153.4 86.45 152.75 85.85 152.5 83.5 151.65 81.3 150.6 75.45 147.9 69.8 142.9 67.8 141.15 65.85 138.95 65.1 138.1 61.35 133.65 68.15 138.85 79.05 144.85 83.15 147.1 87.1 148 92.6 149.15 95.15 146.65 95.95 145.85 96 144.55 96.1 143.4 95.55 142.15 94.95 140.9 94.05 140 93.4 139.45 92.75 139.15 93.05 139.2 93.35 139.1 94.05 138.95 93.7 138.05 93.45 137.55 92.75 137.25 92.4 137.1 91.45 136.95 89.5 136.6 88.35 136.45 86.05 136.25 85.3 136.1 83.55 135.8 82.35 135.2 80.05 134.05 76.9 131.55 72.75 128.15 71.75 127.5 70.45 126.6 68.35 126.25 66.25 125.95 64.1 126.25 61.75 126.65 60.25 127.65 58.55 128.8 58.2 130.55 57.9 131.85 58.1 133.8 Z"/>

<path fill="#DED6CE" stroke="none" d="
M 100.25 59.6
L 99.9 59.25
Q 98.85 58.25 96.05 55.2 92.35 51.15 90.25 48.95 81.25 39.5 71.3 31.05 64 30.35 55.85 31.35
L 56.15 33.95
Q 71.1 32.5 80.7 40.6 90.85 49.1 85.85 51 84.95 51.35 83.3 50.8 81.5 50.15 80.75 49.95 75.95 48.8 72.75 50.75 70 52.5 68.75 56.4 67.65 59.8 67.95 64.3 68.2 68.4 69.45 72.05 70.95 76.15 74.5 78.7 78.1 81.35 82.4 81.15 83.55 81.1 87.15 80.25 90.4 79.65 91.75 80.7 92.35 81.25 92.65 82.15 93.2 84.15 91.55 86.95 90.15 89.4 88.25 90.7 86.9 91.6 85.4 91.6 84.5 91.55 84 91.55 83.15 91.55 82.4 91.7 81 92 80.4 93.35 79.8 94.6 80.1 96.25 80.35 97.4 80.75 99.45 81.1 101.2 81.15 102.45 81.35 105.7 79.8 108.5 78.5 111 76.75 112.65 74.6 114.6 72.2 115.05 70.5 115.4 69.95 114.9 69.3 114.45 70 112.9 70.85 111 73.6 107.45
L 76.15 104.35
Q 75.6 104.95 74.95 105.5 71.3 108.45 65.95 109.2
L 67.25 119.05 66.1 119.2 64.8 109.35
Q 59.45 109.95 55.05 107.8 54.45 107.5 53.95 107.2
L 56.65 109.3
Q 60.05 112.1 61.6 113.65 63.6 115.7 61.25 116.2 60.35 116.4 59.05 116.3 57.9 116.2 57.05 115.9 53.75 114.85 51.25 112 48.75 109.1 48.35 105.75 48.3 105.5 48.1 103 47.95 101.1 47.7 99.95 46.85 96.5 43.95 96.5 42.1 96.5 40.7 96 38.9 95.4 37.15 93.95 35.15 95.85 34.7 97.45 34.65 97.45 34.65 97.5 39.85 105.55 44.65 110.35 47.7 113.4 50.85 115.4 50.5 115.15 50.2 114.9 48.5 113.25 47.15 111.1 45.5 108.5 44.3 105.35 43.5 103.25 42.95 101.15 42.3 101.5 41.8 101.9
L 41.1 101.05
Q 42.05 100.25 43.25 99.8 44.45 99.35 45.7 99.2
L 45.8 100.35
Q 44.9 100.45 44.05 100.7 44.55 102.75 45.3 104.8 46.5 108 48.15 110.55 51.7 116.05 56.9 118.2 56.25 118 55.65 117.75 57.4 128.55 56.95 139.5
L 56.55 150.25
Q 53.6 149.7 50.85 148.5 48.6 147.4 48.55 147.35 50.65 149.9 53.75 151.7 55.3 152.55 56.45 152.95
L 56.15 160.45 65.2 160.3 69.55 160.2 69.65 156.75
Q 71.45 157.25 74.35 158 76 158.4 79.4 159.25 80.65 160.3 82.95 162.4 86.2 165.4 86.65 165.85
L 88.05 164.7 92.45 161.05 96.25 157.9
Q 92.5 153.9 90.5 151.75 89.45 150.65 88.6 149.3 90.85 149.7 92.8 149.15 95.05 148.6 96.15 147 97.7 144.8 96.95 142.8 99.45 143.7 102.2 144.1 106.15 144.6 110.1 143.9 106 142.75 105.2 139.45 104.85 138.05 105.45 136.95 106.05 135.9 107.3 135.35 107.75 136.05 108.25 136.6 108.85 137.2 109.4 137.45 110.9 138.05 111.75 137 112.55 135.95 111.8 134.7
L 111.65 134.5
Q 111.05 133.6 110.15 133.1 109.25 132.7 108.25 132.75 107.65 132.75 104.65 133.25 102.45 133.7 101.1 133.4 98.95 132.95 93.25 130.2 86.8 127.1 81.7 123.65 79.55 122.2 77.85 120.75 76.6 119.75 75.2 118.4
L 73.75 116.9
Q 76.8 115.2 79.65 112.4 79.05 112.9 78.5 113.45 81.05 110.5 82.5 106.3 83.55 103.35 83.9 99.85 84.15 97.65 84.1 95.65 83.35 95.65 82.6 95.8
L 82.35 94.65
Q 83.5 94.4 84.65 94.5 85.9 94.6 87 94.95
L 86.6 96
Q 85.95 95.8 85.3 95.75 85.35 97.8 85.05 100.1 84.6 103.6 83.55 106.7 83.2 107.75 82.75 108.75 84.05 107.1 85.3 105.15 87.4 101.75 89.3 97.7 91.1 93.9 92.65 89.55 93.95 85.9 95.1 81.85 96.85 75.95 98.35 69.2 99.1 65.65 99.75 62.25
L 100.25 59.6
M 93.75 71.35
Q 93.55 72 93.2 72.65 91.1 77.15 86.4 78.8 81.75 80.45 77.4 78.4 77.35 78.35 77.35 78.3 77.3 78.25 77.25 78.25 72.75 76.1 71.1 71.45 69.4 66.75 71.55 62.3 73.7 57.8 78.4 56.15 83.1 54.5 87.55 56.65 92.05 58.75 93.7 63.45 93.9 63.95 94 64.5
L 94.45 67.5 93.75 71.35
M 58.35 137.1
Q 58.15 134.9 58.1 133.8 57.9 131.85 58.2 130.55 58.55 128.8 60.25 127.65 61.75 126.65 64.1 126.25 66.25 125.95 68.35 126.25 70.45 126.6 71.75 127.5 72.75 128.15 76.9 131.55 80.05 134.05 82.35 135.2 83.55 135.8 85.3 136.1 86.05 136.25 88.35 136.45 89.5 136.6 91.45 136.95 92.4 137.1 92.75 137.25 93.45 137.55 93.7 138.05 94.05 138.95 93.35 139.1 93.05 139.2 92.75 139.15 93.4 139.45 94.05 140 94.95 140.9 95.55 142.15 96.1 143.4 96 144.55 95.95 145.85 95.15 146.65 92.6 149.15 87.1 148 83.15 147.1 79.05 144.85 68.15 138.85 61.35 133.65 65.1 138.1 65.85 138.95 67.8 141.15 69.8 142.9 75.45 147.9 81.3 150.6 83.5 151.65 85.85 152.5 86.45 152.75 88.3 153.4 90.2 154.05 91.35 154.65 94.95 156.45 94.2 158.35 93.85 159.45 91.1 161.8 88.3 164.2 87.1 164.25 86.1 164.35 85 163.5 84.05 162.8 83.55 161.7 82.95 160.6 83.3 159.95 83.6 159.25 84.9 159.4 80.85 158.8 74.8 157.2 71.85 156.45 71 155.95 69.3 155 69.1 153.15 69.25 156.55 67.75 158.1 66.25 159.75 62.6 159.75 60.6 159.8 59.6 159.55 58.45 159.3 57.9 158.55 57.4 157.85 57.3 156.45 57.15 155.25 57.3 152.8 57.35 151.05 57.95 144.95 58.45 140.1 58.35 137.1
M 56.55 150.5
L 56.5 151.55
Q 53.15 150.45 50.15 148.35 52.7 149.8 56.55 150.5
M 89.9 136
Q 88.4 135.8 87.85 135.75 86.35 135.6 85.6 135.45 84.4 135.2 83.45 134.85 82.05 134.35 81.4 133.85 80.05 132.95 81.15 132.35 81.65 132.05 82.95 132 83.6 132 84.85 132.05 87.25 132.2 93.5 133.35 98.9 134.35 102.15 134.2 103.05 134.15 105.45 133.55 107.5 133 108.8 133.1 109.65 133.2 110.25 133.6 111 134 111.25 134.75 111.65 135.7 110.95 136.25 110.2 136.8 109.25 136.45 108.65 136.25 107.95 135.5 107.65 135.15 106.95 134.2 107.25 134.65 106.45 135.5 106.1 135.95 105.4 136.6 104.35 137.65 104.05 138.15 103.65 138.9 103.65 140.15 103.65 142.15 102.85 142.7 102.05 143.25 99.85 142.9 98.95 142.75 98.45 142.35 97.95 142 97.5 141.3 96.95 140.45 96.35 140 95.6 139.4 94.85 139.4 95.05 137.35 92.25 136.5 91.3 136.2 89.9 136 Z"/>

<path fill="#FFD502" stroke="none" d="
M 119.65 52.45
L 116.9 53.2
Q 113.95 54 109.95 55.4
L 106.6 56.65
Q 106.15 59.1 106 60.15 105.75 61.9 104.85 62.2 107.35 63.95 109.95 65.2 119.3 69.75 130.55 70.4 136.2 70.75 139.95 70.15 138.95 67.7 137.55 65.65 136.5 64.15 135.3 63.05
L 136.55 62.95
Q 138.2 62.75 140 62.55 145.85 61.6 151.55 59.95 151.35 59.75 150.95 59.45 150.05 58.75 148.85 58.2 152.15 58.1 154.3 57.7 155.35 57.45 155.75 57.25 153 51.9 145 50.35 137.6 49 126.5 51 123.05 51.6 119.65 52.45
M 117.15 54.15
L 117.2 54.15
Q 117.25 54.1 119.15 53.6 121.5 53 124 52.45 132 50.75 138.35 50.75 141.95 50.75 144.8 51.3 151.6 52.55 154.3 56.7 152 56.85 145.7 57.05
L 139.8 57.25
Q 143.55 57.6 146.9 58.65 148.5 59.15 149.4 59.6
L 131.15 61.9 132.5 62.55
Q 134 63.45 134.8 64.15 135.85 65.1 136.4 65.7 137.15 66.6 137.95 68.15 128.1 67.65 118.7 64.7 114 63.25 109.9 61.2 108.15 60.35 108.15 58.75 108.15 57.05 110.1 56.4 113.9 55 117.15 54.15 Z"/>

<path fill="#FFF805" stroke="none" d="
M 117.2 54.15
L 117.15 54.15
Q 113.9 55 110.1 56.4 108.15 57.05 108.15 58.75 108.15 60.35 109.9 61.2 114 63.25 118.7 64.7 128.1 67.65 137.95 68.15 137.15 66.6 136.4 65.7 135.85 65.1 134.8 64.15 134 63.45 132.5 62.55
L 131.15 61.9 149.4 59.6
Q 148.5 59.15 146.9 58.65 143.55 57.6 139.8 57.25
L 145.7 57.05
Q 152 56.85 154.3 56.7 151.6 52.55 144.8 51.3 141.95 50.75 138.35 50.75 132 50.75 124 52.45 121.5 53 119.15 53.6 117.25 54.1 117.2 54.15 Z"/>

<path fill="#FF88B6" stroke="none" d="
M 184.05 69.7
L 189.9 67.3 176.5 62.2
Q 165.1 44.25 162.1 39.4 159.75 35.6 156.7 31.4 153.4 26.95 151.3 24.75
L 150.2 27.05 148.65 24.15 145 50.35
Q 153 51.9 155.75 57.25 155.35 57.45 154.3 57.7 152.15 58.1 148.85 58.2 150.05 58.75 150.95 59.45 151.35 59.75 151.55 59.95 145.85 61.6 140 62.55 138.2 62.75 136.55 62.95
L 135.3 63.05
Q 136.5 64.15 137.55 65.65 138.95 67.7 139.95 70.15 136.2 70.75 130.55 70.4 119.3 69.75 109.95 65.2 107.35 63.95 104.85 62.2 103.45 62.55 100.25 59.6
L 99.75 62.25
Q 99.1 65.65 98.35 69.2 96.85 75.95 95.1 81.85 98.35 79.15 102.65 79.15 107.1 79.15 110.35 81.95 112.25 82.8 113.85 84.4 117.35 87.9 117.35 92.9 117.35 97.8 113.85 101.35 110.3 104.85 105.35 104.85 101.3 104.85 98.25 102.5
L 98.2 102.5
Q 97.8 102.25 97.5 101.95 97.45 101.9 97.4 101.9 94.95 100.7 93.3 98.65
L 89.3 97.7
Q 87.4 101.75 85.3 105.15 84.05 107.1 82.75 108.75
L 79.65 112.4
Q 76.8 115.2 73.75 116.9
L 75.2 118.4 95.55 121.15
Q 105.8 123.9 115.5 124.55 118.95 124.8 122.8 124.8 124.95 124.8 128.55 124.75 132.2 124.7 133.6 125.2 135.05 125.65 135.2 127.1 135.4 128.95 131.75 130.75 127.6 132.8 119.9 133.85 114.85 134.6 111.8 134.7 112.55 135.95 111.75 137 110.9 138.05 109.4 137.45 108.85 137.2 108.25 136.6 107.75 136.05 107.3 135.35 106.05 135.9 105.45 136.95 104.85 138.05 105.2 139.45 106 142.75 110.1 143.9 112.35 144.5 115.8 144.5 120.15 144.5 124.4 143.8 128.45 143.15 133.4 141.65 135.25 145.5 137.6 151.05 139.6 155.9 141.4 160.85
L 144.05 160.65 151.1 160.2
Q 150.55 158.45 150.25 157.6 149.75 156.2 149.25 155.15 149.95 154.85 152.2 153.9 157.05 155.85 158 156.2 159.2 156.6 160.55 156.5 161.95 156.35 162.95 155.7
L 163.35 155.5
Q 164.6 153.95 164.75 152.05 164.95 150.35 164.1 148.9 163.3 147.35 161.85 146.8
L 161.5 146.7
Q 159.9 146.15 158.25 145.7 160.15 143.2 162.4 142.25 163.7 141.6 165.6 141.35 165.65 141.35 169.05 140.95 171.1 140.7 172.4 140.35 174.15 139.75 175.45 138.65 177.45 137 178.25 134.45 179.1 131.6 177.9 129.45 177.2 128.15 175.8 127.95 174.55 127.7 173.15 128.45 172.15 129 171.65 130.1 171.25 130.8 170.95 132.3 170.25 135.2 168.1 136.7 166.4 137.9 162.2 139.3 160.4 139.85 158.9 140.85 157.65 141.7 156.5 143.05 155.9 141.9 154.9 139.75 153.9 137.6 153.45 136.45 155.35 136.2 158.95 135 163.2 133.6 166.1 131.9 170.15 129.45 172.35 125.9 174.75 122 173.45 118.6 172.8 116.8 171.3 116.7 169.7 116.5 167.9 118.45
L 167.25 119.15
Q 167.3 118.3 167.05 117.7 166.65 117 165.95 117.2 165.25 117.4 164.9 118.2 164.65 118.7 164.5 119.75 164.35 120.75 164.3 121 164.15 121.6 163.85 122.2 163.35 122.95 161.15 124.05 158.1 125.45 153.6 126.3 149.6 127.15 147.05 126.95 144.35 126.8 143.85 125.6 143.4 124.4 144.25 123.3 145.2 122 147.95 120.45 148.95 119.85 152.7 117.8 156.55 115.6 159.9 113.3 170.05 106.45 176.75 98.6
L 193.05 83.9 189.35 83.9 197.25 72.8 184.05 69.7
M 166.6 58.35
Q 167.1 58.7 169.95 60.15 172.2 61.4 180 64.5 183.9 66.1 187.3 67.4
L 180.25 69.95 195.5 73.55
Q 189.4 77.95 182.35 82.9 168.25 92.8 163.45 95.4 158.7 97.95 151.85 96.9 151 96.8 150.1 96.65 149.85 96.75 149.7 96.75 149.2 96.9 148.95 97 148.25 97.15 147.5 97.15 147.2 97.2 146.95 97.15
L 146.45 97.15 146.1 97.1 146.05 96.95 146.35 96.75
Q 146.45 96.7 146.8 96.55 146.9 96.5 147.3 96.3 147.6 96.15 147.9 96.05 147.7 96 147.55 95.95
L 145.9 95.4
Q 145.6 96.85 144.35 98.6 141.95 101.85 137.55 103.25
L 138.15 105.3
Q 142.05 104.1 144.75 101.5 146.25 100.05 147 98.65 146.45 98.5 146 98.4
L 146.3 97.25
Q 147.2 97.55 148.15 97.95 148.8 98.25 149.65 98.75
L 149.1 99.7
Q 148.5 99.4 148.05 99.15 147.2 100.7 145.55 102.35 142.45 105.3 137.95 106.55 135.2 107.3 132.2 107.3 129.35 107.3 126.5 106.65 124.8 106.25 123.45 105.65 123.3 106.2 123.25 106.65
L 122.1 106.45
Q 122.35 105.1 123.25 103.6
L 123.2 103.6 122.45 103.75
Q 121.45 104.05 120.95 104.2
L 120.85 104.25
Q 120.65 104.45 120.45 104.7 119.2 106.1 117.6 106.9 116.05 107.6 114.7 107.6 113.35 107.55 112.75 106.7 112.35 106.15 112.55 105.55 112.75 105.15 113.5 104.35 114.9 102.85 115.15 102.6 115.55 102.15 115.9 101.65
L 113.65 101.9 113.65 101.8 116.3 101.2
Q 116.8 100.55 117.2 99.85 117.75 98.95 118.15 98
L 116.8 97.85 116.8 97.75 118.3 97.7
Q 119.3 94.85 118.9 91.55 118.35 86.4 114.7 81.7 111 76.95 110.1 75.3 108.9 73.05 109.7 71.8 110.15 71.1 111.05 70.85 111.9 70.6 113.5 70.7 115.3 70.8 123.85 72.15 130.05 73.15 136.25 72.75 139.35 72.55 141.2 72.15 140.7 69.9 139.4 67.3
L 138.15 65.15
Q 146.6 63.55 153.65 61.15 157.15 59.9 158.95 59 156.8 56.25 153.7 53.8 151.25 51.95 149.25 50.85 148.3 50.35 147.95 50.2 147.3 49.85 147.05 49.5 146.35 48.7 146.6 46.6 146.85 44.65 148 36
L 149.05 27.75 150.5 32.6
Q 152.4 38.7 154.75 44.7 157.3 51.2 162.45 55.5 164.3 57 166.6 58.35
M 166.75 118.75
Q 166.75 119.55 166.55 120.3 168.45 118.35 168.8 118.1 170.35 116.85 171.5 117.4 174 118.55 171.6 123.3 170.7 125 169.35 126.75 168.2 128.25 167.55 128.85 163.7 132 158.95 133.75 155.6 134.95 151.55 135.5 152.35 137.3 153.9 141.1 155.4 144.25 157 145.7 157.6 146.2 158.6 146.5 159.25 146.7 160.5 146.95 162.9 147.45 163.35 148.95 163.95 150.95 161.5 151.95 159.8 152.65 157.4 152.65 155 152.7 153.85 152.7 151.9 152.7 150.1 152.55 150.45 152.8 150.9 153.1 151.15 153.25 151.75 153.55 150.55 154 148.95 154.5 148.5 154.65 146.35 155.35 147.2 155.1 148.15 155.65 149.2 156.3 149.2 157.25 149.25 158.5 147.65 159.4 146.4 160 144.95 160.1 143.15 160.25 142.05 158.9 141.55 158.25 140.55 155.85 140.05 154.7 139.15 152.15 138.4 149.95 136.15 145 133.95 140.1 133.2 137.8 133.45 139.05 132.05 140.45 130.8 141.6 129.2 142.05 125.2 143.1 119.95 143.35 115.85 143.55 114.75 143.5 111.7 143.4 109.65 142.5 109.15 142.35 108.25 141.45 107.15 140.55 106.4 139.65 104.45 137.15 106.75 136.75 107.2 136.65 107.85 137.25 108.75 138 108.9 138.05 110.25 138.7 111.3 138.2 111.65 138 112.25 137.5 113 136.9 113.3 136.65 114.3 136 116.65 136.4 117.3 136.5 118.6 136.7 119.75 136.95 120.45 136.95 124.95 137.15 131.05 136.35 137 135.6 139.05 135.25 143.7 134.5 147.2 133.55 156.5 131 161.6 125.85 163.6 123.85 164.35 121.75 164.5 121.4 164.65 120.8 164.65 120.7 164.8 119.85 165.05 118.6 165.25 118.1 165.4 117.75 165.7 117.6 166.05 117.35 166.3 117.5 166.75 117.7 166.75 118.75
M 176.35 132.85
Q 175.75 134.15 174.75 135.5 173.8 136.7 173.05 137.25 170.8 138.85 167.45 139.4 165.2 139.65 164.05 139.85 162.05 140.15 160.65 140.5 161.7 139.7 163.8 139.1 166.25 138.35 167.1 137.95 168.75 137.05 169.75 135.85 170.9 134.55 171.45 132.55 171.9 130.7 172.65 129.65 173.75 128.1 175.25 128.55 177.9 129.25 176.35 132.85
M 142.45 106.05
Q 143.75 105.3 144.2 105.75 144.55 106.2 144.05 107.35 143.5 108.55 142.45 109.6 141.1 110.85 139.6 111.25 137.55 111.85 135.55 111.55 133.9 111.3 132.75 110.55 131.7 109.85 131.7 109.2 131.75 108.55 132.95 108.6 134.75 108.6 136.8 108.15 139.9 107.5 142.45 106.05
M 123.5 101.75
L 122.45 101.1
Q 122.1 102.2 121.55 103.2
L 122.15 102.9
Q 122.4 102.8 122.85 102.55 123.25 102.4 123.5 102.3 123.8 102.2 124.15 102.1 123.8 101.95 123.5 101.75
M 137.05 105.6
L 136.45 103.5
Q 131.45 104.75 126.55 103.1 126 102.9 125.4 102.65 125.3 102.75 125.15 102.85 124.45 103.2 123.9 103.4 123.85 103.4 123.8 103.45
L 124.4 103.85 123.95 104.6
Q 126 105.45 128.6 105.9 133.05 106.6 137.05 105.6
M 170.1 68.7
Q 168.1 67.95 166.7 66.65 163.75 64.05 161.55 63.1 159.1 62 155.75 62.25 149.5 62.6 145.75 67.3 142.15 71.75 142.15 78.25 142.15 81.05 143.2 83.65 144.3 86.15 146.2 88.05 147.05 88.9 148.05 89.6 148.05 89.55 148.1 89.55
L 148.15 89.65 148.15 89.7
Q 149.25 90.45 150.55 91.05 153.15 92.05 155.95 92.05 159.95 92.05 163.4 89.95 166.9 87.75 168.45 84.15 169.05 82.8 169.6 80.7 170.1 78.3 170.45 77 171.7 72.4 173.95 69.8 171.55 69.25 170.1 68.7
M 162.85 65.45
Q 165.6 67.15 167.15 69.95
L 171.9 70.45 168.7 74.9
Q 168.7 75.5 168.7 75.8 168.7 78.4 167.75 80.6 167.1 84.1 164.4 86.75 160.9 90.25 155.95 90.25 151.95 90.25 148.85 87.95
L 148.8 87.95
Q 148.45 87.7 148.15 87.35
L 147.45 86.75
Q 147.4 86.7 147.35 86.65 147.25 86.55 147.25 86.5 143.95 83.1 143.95 78.3
L 143.95 78.25
Q 143.95 75.65 144.95 73.45 145.55 70 148.2 67.3 151.75 63.8 156.7 63.8 160.05 63.8 162.85 65.45 Z"/>

<path fill="#FFC7EA" stroke="none" d="
M 144.2 105.75
Q 143.75 105.3 142.45 106.05 139.9 107.5 136.8 108.15 134.75 108.6 132.95 108.6 131.75 108.55 131.7 109.2 131.7 109.85 132.75 110.55 133.9 111.3 135.55 111.55 137.55 111.85 139.6 111.25 141.1 110.85 142.45 109.6 143.5 108.55 144.05 107.35 144.55 106.2 144.2 105.75
M 174.75 135.5
Q 175.75 134.15 176.35 132.85 177.9 129.25 175.25 128.55 173.75 128.1 172.65 129.65 171.9 130.7 171.45 132.55 170.9 134.55 169.75 135.85 168.75 137.05 167.1 137.95 166.25 138.35 163.8 139.1 161.7 139.7 160.65 140.5 162.05 140.15 164.05 139.85 165.2 139.65 167.45 139.4 170.8 138.85 173.05 137.25 173.8 136.7 174.75 135.5
M 166.55 120.3
Q 166.75 119.55 166.75 118.75 166.75 117.7 166.3 117.5 166.05 117.35 165.7 117.6 165.4 117.75 165.25 118.1 165.05 118.6 164.8 119.85 164.65 120.7 164.65 120.8 164.5 121.4 164.35 121.75 163.6 123.85 161.6 125.85 156.5 131 147.2 133.55 143.7 134.5 139.05 135.25 137 135.6 131.05 136.35 124.95 137.15 120.45 136.95 119.75 136.95 118.6 136.7 117.3 136.5 116.65 136.4 114.3 136 113.3 136.65 113 136.9 112.25 137.5 111.65 138 111.3 138.2 110.25 138.7 108.9 138.05 108.75 138 107.85 137.25 107.2 136.65 106.75 136.75 104.45 137.15 106.4 139.65 107.15 140.55 108.25 141.45 109.15 142.35 109.65 142.5 111.7 143.4 114.75 143.5 115.85 143.55 119.95 143.35 125.2 143.1 129.2 142.05 130.8 141.6 132.05 140.45 133.45 139.05 133.2 137.8 133.95 140.1 136.15 145 138.4 149.95 139.15 152.15 140.05 154.7 140.55 155.85 141.55 158.25 142.05 158.9 143.15 160.25 144.95 160.1 146.4 160 147.65 159.4 149.25 158.5 149.2 157.25 149.2 156.3 148.15 155.65 147.2 155.1 146.35 155.35 148.5 154.65 148.95 154.5 150.55 154 151.75 153.55 151.15 153.25 150.9 153.1 150.45 152.8 150.1 152.55 151.9 152.7 153.85 152.7 155 152.7 157.4 152.65 159.8 152.65 161.5 151.95 163.95 150.95 163.35 148.95 162.9 147.45 160.5 146.95 159.25 146.7 158.6 146.5 157.6 146.2 157 145.7 155.4 144.25 153.9 141.1 152.35 137.3 151.55 135.5 155.6 134.95 158.95 133.75 163.7 132 167.55 128.85 168.2 128.25 169.35 126.75 170.7 125 171.6 123.3 174 118.55 171.5 117.4 170.35 116.85 168.8 118.1 168.45 118.35 166.55 120.3
M 169.95 60.15
Q 167.1 58.7 166.6 58.35 164.3 57 162.45 55.5 157.3 51.2 154.75 44.7 152.4 38.7 150.5 32.6
L 149.05 27.75 148 36
Q 146.85 44.65 146.6 46.6 146.35 48.7 147.05 49.5 147.3 49.85 147.95 50.2 148.3 50.35 149.25 50.85 151.25 51.95 153.7 53.8 156.8 56.25 158.95 59 157.15 59.9 153.65 61.15 146.6 63.55 138.15 65.15
L 139.4 67.3
Q 140.7 69.9 141.2 72.15 139.35 72.55 136.25 72.75 130.05 73.15 123.85 72.15 115.3 70.8 113.5 70.7 111.9 70.6 111.05 70.85 110.15 71.1 109.7 71.8 108.9 73.05 110.1 75.3 111 76.95 114.7 81.7 118.35 86.4 118.9 91.55 119.3 94.85 118.3 97.7
L 120.3 97.5
Q 120.95 97.45 122.35 97.35
L 123.35 97.25
Q 123.9 97.2 124.35 97.2 125.05 97.2 126.1 97.35
L 126.8 97.45
Q 127.25 97.55 127.3 97.6 127.65 97.7 127.8 97.7
L 127.8 97.8
Q 127.65 97.9 127.35 98 127 98.1 126.8 98.1 126.4 98.2 126.1 98.25 125.15 98.4 124.35 98.4 123.85 98.4 123.35 98.35
L 122.35 98.25
Q 120.5 98.15 120.3 98.15
L 118.15 98
Q 117.75 98.95 117.2 99.85 116.8 100.55 116.3 101.2
L 120.95 100.1
Q 121.6 99.95 122.05 99.85 122.9 99.7 124.1 99.65 124.5 99.65 124.9 99.65
L 126.1 99.75 126.1 99.85
Q 125.95 99.95 125.6 100.1
L 124.25 100.55
Q 123.25 100.85 122.25 101.05 121.75 101.1 121.1 101.15
L 115.9 101.65
Q 115.55 102.15 115.15 102.6 114.9 102.85 113.5 104.35 112.75 105.15 112.55 105.55 112.35 106.15 112.75 106.7 113.35 107.55 114.7 107.6 116.05 107.6 117.6 106.9 119.2 106.1 120.45 104.7 120.65 104.45 120.85 104.25
L 118.45 104.75 118.4 104.65 121.55 103.2
Q 122.1 102.2 122.45 101.1
L 123.5 101.75
Q 123.8 101.95 124.15 102.1 124.45 102 124.8 101.95 125.3 101.9 125.75 101.9 126.05 101.9 126.2 101.9
L 126.2 102.05 125.9 102.3
Q 125.65 102.45 125.4 102.65 126 102.9 126.55 103.1 131.45 104.75 136.45 103.5
L 135.2 99.55 130.05 97.2 138.85 94.4 136.3 99.2 137.55 103.25
Q 141.95 101.85 144.35 98.6 145.6 96.85 145.9 95.4
L 147.55 95.95
Q 147.7 96 147.9 96.05 148.25 95.9 148.65 95.8 149 95.8 149.45 95.75
L 150.25 95.6
Q 151.75 95.4 151.9 95.35
L 153.3 95.15
Q 154.15 95.05 154.75 95
L 154.75 95.1 152.05 96
Q 151 96.35 150.5 96.5 150.25 96.6 150.1 96.65 151 96.8 151.85 96.9 158.7 97.95 163.45 95.4 168.25 92.8 182.35 82.9 189.4 77.95 195.5 73.55
L 180.25 69.95 187.3 67.4
Q 183.9 66.1 180 64.5 172.2 61.4 169.95 60.15
M 166.7 66.65
Q 168.1 67.95 170.1 68.7 171.55 69.25 173.95 69.8 171.7 72.4 170.45 77 170.1 78.3 169.6 80.7 169.05 82.8 168.45 84.15 166.9 87.75 163.4 89.95 159.95 92.05 155.95 92.05 153.15 92.05 150.55 91.05 149.25 90.45 148.15 89.7
L 147.2 90.55
Q 146.45 91.2 146.15 91.5 145.6 92 144.95 92.55 144.6 92.9 144.35 93.1 144.05 93.45 143.75 93.65 143.35 93.95 142.55 94.35 142.35 94.5 142.05 94.6
L 141.25 94.85 141.2 94.8 141.65 94.05
Q 141.85 93.85 142.05 93.65 142.5 93.05 143.05 92.7 143.35 92.5 143.7 92.25
L 144.4 91.85
Q 145.7 91 145.75 91 146.25 90.65 146.95 90.25 147.55 89.9 148.05 89.6 147.05 88.9 146.2 88.05 144.3 86.15 143.2 83.65 142.15 81.05 142.15 78.25 142.15 71.75 145.75 67.3 149.5 62.6 155.75 62.25 159.1 62 161.55 63.1 163.75 64.05 166.7 66.65
M 145.8 94.1
Q 146.4 93.9 146.75 93.75 147.4 93.45 148.65 92.95
L 151.95 91.55 151.95 91.7
Q 151.4 92.05 150.5 92.6
L 147.2 94.55
Q 147.05 94.6 146.25 95.05 145.7 95.4 145.35 95.6 144.65 95.95 143.7 96.25 143.45 96.35 143.05 96.5
L 142 96.7 141.95 96.6 142.3 96.25
Q 142.35 96.2 142.75 95.85 142.95 95.75 143.35 95.45 144.15 94.85 144.85 94.55 145.1 94.4 145.8 94.1 Z"/>

<path fill="#C84B79" stroke="none" d="
M 138.85 94.4
L 130.05 97.2 135.2 99.55 136.45 103.5 137.05 105.6
Q 133.05 106.6 128.6 105.9 126 105.45 123.95 104.6
L 124.4 103.85 123.8 103.45
Q 123.6 103.5 123.25 103.6 122.35 105.1 122.1 106.45
L 123.25 106.65
Q 123.3 106.2 123.45 105.65 124.8 106.25 126.5 106.65 129.35 107.3 132.2 107.3 135.2 107.3 137.95 106.55 142.45 105.3 145.55 102.35 147.2 100.7 148.05 99.15 148.5 99.4 149.1 99.7
L 149.65 98.75
Q 148.8 98.25 148.15 97.95 147.2 97.55 146.3 97.25
L 146 98.4
Q 146.45 98.5 147 98.65 146.25 100.05 144.75 101.5 142.05 104.1 138.15 105.3
L 137.55 103.25 136.3 99.2 138.85 94.4 Z"/>
</g>
</defs>

<g transform="matrix( 1, 0, 0, 1, 0,0) ">
<use xlink:href="#Layer0_0_FILL"/>
</g>
</svg>
