
<svg xmlns="http://www.w3.org/2000/svg" version="1.1" xmlns:xlink="http://www.w3.org/1999/xlink" preserveAspectRatio="none" x="0px" y="0px" width="200px" height="200px" viewBox="0 0 200 200">
<defs>
<g id="Layer0_0_FILL">
<path fill="#563759" stroke="none" d="
M 118.6 147.45
Q 118.3 147.85 118.35 148.35 118.55 151.25 117.15 153.15 115.9 154.8 113.95 155.15 112.5 155.4 111.15 154.8 109.7 154.1 108.85 152.55 107.35 152.9 106.25 152.7 107.25 155.15 109.25 156.45 111 157.6 113.15 157.6 113.75 157.6 114.35 157.55 117.1 157.05 118.95 154.75 121 152.1 120.7 148.2 120.7 147.7 120.3 147.35 119.95 147 119.45 147.05 118.95 147.1 118.6 147.45
M 104.35 104.1
Q 103.75 105.15 102.95 106.5
L 104.95 135.2
Q 105.85 135.15 106.55 135.45
L 104.35 104.1
M 98.7 46.2
L 100.35 46.8 99.7 37.15 98.1 37.25 98.7 46.2
M 97.2 4.6
Q 96.95 4.4 96.6 4.4 96.25 4.4 96.05 4.65 95.85 4.9 95.85 5.25 95.9 5.4 96.2 10.5 96.3 10.5 96.45 10.5 96.55 10.45 96.65 10.45
L 97.8 10.35 97.45 5.15
Q 97.45 4.8 97.2 4.6 Z"/>

<path fill="#FF88B6" stroke="none" d="
M 95.3 116.95
L 96.85 118.35
Q 98.9 120.05 101.1 121.3
L 99.7 125.5
Q 97.9 130.6 95.8 135.3
L 97.4 135.8
Q 99.45 136.3 101.85 136.15 103.65 135.3 104.95 135.2
L 102.95 106.5
Q 99.5 111.95 95.3 116.95
M 154.1 41.9
L 152.7 37.75 144.65 50.1 141.7 54.55
Q 142.1 56.15 142.05 57.95 142.05 58.35 142 58.75
L 142 58.85
Q 142 59.1 141.95 59.3
L 141.7 60.85 143.05 60.6
Q 144.8 60.35 146.65 60.25 152.7 59.85 158 60.8
L 156.55 50.05 155.2 40 154.1 41.9
M 162.25 75.25
Q 162.8 75.55 163.35 75.95 162.8 75.1 162.3 74.2
L 161.2 72
Q 155.4 74.8 147.45 76.4 138.3 78.25 126.7 78.4 126.2 78.4 125.7 78.4
L 124.65 78.4 124.85 79.15
Q 125.1 80.1 125.3 81.1 125.75 84.4 125.05 87.3 124.2 86.4 122.75 85.25 119.8 82.9 116.8 81.75 114.45 85.45 111.45 89.2 108.55 96.95 104.35 104.1
L 106.55 135.45
Q 106.95 135.65 107.25 135.95 107.65 136.25 107.9 136.75
L 108.7 136.7
Q 109.65 136.7 110.4 136.95 112.75 137.85 112.45 141.1 112.3 142.8 112.25 144.15 114.35 144.5 116.75 144.7 118.7 144.9 122.1 145.2 125 145.45 127.55 145.55 131.75 145.65 131.75 147.05 131.8 147.95 130.7 149.85 130.05 151 128.05 154.25 127.65 154.95 126.15 157.3 124.75 159.5 123.95 160.95 121.3 165.6 120.75 169.25
L 120.6 170.1
Q 118.6 169.9 116.65 170.6 114.35 171.45 112.5 173.35 110.6 175.3 109.3 176.05 107.75 176.95 106.4 176.6 104.2 176 104.1 173.55 104.05 171.6 105.1 169.6 106.35 167.35 106.55 166.35 106.85 164.6 105.55 163.25 104.6 162.25 103 162.15 101.4 162.1 99.75 162.85 98 163.7 96.7 165.2 95.25 166.85 94.7 169 93.7 172.9 95.5 176.6 97.45 180.65 101.95 182.25 106.05 183.65 110.1 181.1 112.85 179.35 115.55 175.75 116.8 174.05 118.8 173.5 119.75 173.25 120.5 173.35 120.65 175.25 121.25 177.05 121.75 178.5 122.7 180.1
L 120.9 182
Q 118.95 184.25 117.85 186 116.4 188.35 117.05 190.5 117.9 193.05 121.85 194.8 125.95 196.6 128.3 194.6 129.35 193.75 129.65 192.4 129.95 191 129.4 189.45 129.85 189 130.5 188.25 130.35 190.6 131.8 192.25 132.5 193.1 134.2 193.6 135.85 194.1 137.75 194.1 139.75 194.05 141.3 193.5 143 192.85 143.7 191.6 144.9 189.45 143.75 187.2 142.7 185.1 140.4 184.2
L 141.6 176.65
Q 141.9 174.75 142.05 172.5
L 142.15 170.6
Q 143.85 172.1 144.7 173.85 145.1 174.7 145.65 176.75 146.2 178.85 147.15 179.8 148.2 180.95 149.6 180.4 150.65 180 150.7 178.9 153.2 180.55 154.8 180.75 156.25 180.95 157.4 180 158.05 179.45 158.4 178.2 158.65 177.3 158.8 175.85 159.55 175.1 159.8 173.85 160.3 171.3 157.75 168.55 155.9 166.55 152.25 163.65
L 156.1 164.15
Q 160.3 164.7 161.95 165.05 163.55 165.4 165.2 166.1 167.3 167.05 167.4 167.1 169.2 167.7 170.05 166.75 170.6 166.15 170.9 164.55 172.45 162.9 172.75 162.2 173.25 160.95 172.2 159.45 171.05 157.8 168.75 155.75
L 169.1 155.65
Q 169.45 155.5 169.75 155.3 170.65 154.65 170.5 153.55 170.35 152.3 168.8 152 167.7 151.8 165.65 152.05 162.05 152.45 158.8 152.05 152.85 151.25 152.15 151.15 148.25 150.55 145.6 149.75 141.45 148.55 140.3 147.5 138.8 146.15 141.95 144.7 144.65 143.5 149.45 141.7 155.7 139.3 157.35 138.65 166.75 134.85 171.85 130.85 176.7 127 180 122.3 183.45 117.4 185.1 111.65 187.45 103.75 185.35 95.35 184.7 92.7 183.7 90.3
L 182.85 88.5 179.7 90.95 180.55 85.6
Q 174.7 85.8 169.95 82.7
L 169.9 83.65
Q 171.55 86.55 171.8 88.9 171.95 90.15 171.7 91.05 171.6 92.85 170.4 93.75 168.55 95.1 165.5 93 162.75 91.15 160.2 87.5 157.65 83.85 156.85 80.65 156.75 80.3 156.7 79.95 156.7 79.85 156.7 79.8
L 156.7 79.75
Q 156.65 79.6 156.65 79.45
L 156.7 77.85
Q 156.7 77.6 156.8 77.4 156.85 75.6 158.1 74.85 159.75 73.9 162.25 75.25
M 164.15 96.6
Q 164.7 95.55 165.5 94.5 166.75 95.3 168.1 95.4 169.4 95.55 170.5 95.05 171.85 94.45 172.4 92.85 172.95 91.3 172.55 89.45 173.9 89.05 175.25 88.9 176.7 88.75 178 88.9
L 177.3 93.4 182.55 89.65
Q 181.1 96.7 178.1 101.25
L 178.25 101.2
Q 179.05 100.95 179.25 100.9
L 181 100.45 181.05 100.6 178.2 102.35
Q 177.95 102.5 177.75 102.6 177.5 102.75 176.95 102.85 174.6 105.75 171.5 107.4 171.95 108.15 172.3 108.8
L 174.85 106.85 175.55 107.85 174.05 108.95
Q 172.35 110.3 170.85 111.45 169.1 112.8 167.1 113.35 165.05 113.95 162 113.95
L 161.35 113.95
Q 161.3 114.65 161.4 115.35
L 160.2 115.45
Q 160.1 114.05 160.25 112.75
L 160.15 112.8
Q 159.25 113.55 158.8 113.85
L 158.35 114.25
Q 156.9 123.5 146.2 128.45 142.05 130.4 136.05 131.85 133.45 132.45 126.35 133.8 119.4 135.15 111.55 137.35 113.25 134.6 114.9 130.95 115.65 129.15 117.6 124.2 117.7 124 118.55 121.35 119.3 119.1 119.95 117.65 122.05 113.2 124.65 113.95 124.95 114 129 115.5 131.55 116.4 133.5 116.55 136.35 116.75 138.9 116.2 141.75 115.6 143.8 114.05 146.95 111.75 147.75 107.9 148.45 104.5 147.2 100.75 150.7 97.45 155.1 96.35 159.55 95.25 164.15 96.6
M 175.1 110.45
Q 175.9 109.7 176.75 109.45 177.9 109.15 178.35 110.1 179 111.35 178.25 113.1 177.55 114.7 176.2 115.8 174.4 117.25 172.25 117.8 169.6 118.45 168.8 116.75 168.3 115.8 169.05 114.95 169.6 114.3 170.65 113.8 172.05 113.15 173.5 111.95 174.2 111.3 175.1 110.45
M 169.6 152.8
Q 170.15 153.2 170.1 153.7 170.05 154.15 169.55 154.5 169.05 154.85 168.4 154.9 167.7 155 167.15 154.7 168.1 155.25 170.15 157.55 172.55 160.25 172.5 161.5 172.45 162.65 171.65 162.8 170.85 162.95 170.5 161.9 170.45 163.65 170.25 164.35 169.9 165.8 168.7 166 167.85 166.2 166.8 165.8 165.6 165.2 164.95 165 162.85 164.3 159.8 163.45 156.35 162.55 154.65 162.1 152.15 161.4 150.45 160.6 148.3 159.6 146.4 158 145.1 156.9 145.25 155.5 145.4 154.15 146.8 153.15 148.1 152.25 150.25 152.2 151.8 152.15 154.3 152.55 155.2 152.75 156.95 153.05 158.4 153.35 159.25 153.4 160.05 153.45 161.6 153.15 162.55 152.95 164.5 152.5 168.25 151.8 169.6 152.8
M 130.25 90.2
L 130.3 90.2
Q 132.1 89.9 134.05 90.4
L 134.85 90.65
Q 135.1 90.7 135.4 90.8 135.45 90.8 135.5 90.85 135.65 90.9 135.75 90.95 135.9 91 136 91.05
L 141.3 94.85
Q 142.1 95.65 142.85 96.65 143.65 97.7 144.2 98.75
L 146.15 105.1
Q 146.2 105.65 146.15 106.2 145.95 110.15 142.7 112.45 139.35 114.8 135.6 114.2 134.05 114.45 132.35 114.1 128.7 113.4 125.55 110.4
L 125.55 110.45 120.25 109.85 122.2 106.1
Q 119.8 101.95 120.1 98.05 120.45 93.75 124.1 91.45 126.95 89.7 130.25 90.2
M 113.5 173.2
Q 114.45 172.4 115.3 171.85 116.25 171.25 117.3 170.85 117.8 170.65 118.35 170.6 119.05 170.45 119.4 170.6 119.85 170.8 119.85 171.15 119.9 171.5 119.6 171.8 119.3 172.05 118.5 172.3 117.65 172.5 117.45 172.6 114.95 173.6 113.45 175 112.85 175.6 111.3 177.2 109.8 178.7 108.65 179.5 105.25 181.9 102.6 180 103.15 179.45 104 178.25 104.9 177.05 104.95 176.75 106.05 177.4 107.2 177.45 108.3 177.45 109.4 176.8 110.35 176.3 111.55 175.1 113.35 173.35 113.5 173.2
M 119.05 190.75
Q 117.75 189.05 118.25 187.15 118.65 185.65 120.1 184 121.4 182.55 122.05 182.1 123.5 181.1 124.2 182.45 120.4 174.6 123.75 164.1 125.8 157.7 128.75 156.65 130.9 155.9 133.9 156 136.15 156.05 139.1 156.65 144.95 157.85 150.95 163.15 151.45 163.6 152.65 164.7 153.75 165.7 154.35 166.25 156.45 168.05 157.65 169.85 158.55 171.2 158.85 172.35 159.3 174.1 158.3 174.8 158.05 174.7 157.95 174.4 158.35 176.85 157.65 178.3 156.8 180.2 154.35 179.2 152.85 178.6 151.7 177.7 150.85 177.05 149.1 175.25 149.8 176.65 149.95 177.3 150.35 178.75 149.7 179.4 148.45 180.55 147.1 177.45 146.7 176.5 146.2 175 145.7 173.4 145.6 173.25 144.3 170.1 134.7 164.75 135 164.95 135.45 165.55 135.7 165.85 136.1 166.35 137.25 167.65 137.75 168.3 139.7 170.8 140.4 172.8 140.95 174.4 140.9 176.45 140.85 177.85 140.45 180.15 140.3 180.75 140.1 182.35 139.9 183.95 139.75 184.7 140.35 184.9 141 185.25 141.6 185.6 141.85 185.8 143.75 187.55 143.5 189.3 143.25 191.1 140.7 191.95 138.65 192.55 136.45 192.3 133.95 192 132.75 190.5 131.8 189.35 132.2 187.85 132.35 187.3 132.8 186.35 133.35 185.05 133.5 184.55 133.8 183.65 133.95 183.15 134.25 182.35 134.6 181.9 134.95 181.4 135.65 181.1 135.8 181.05 136.85 180.75 136.35 180.85 135.65 180.75 134.95 180.6 134.5 180.25 134 179.9 133.85 179 133.8 177.95 133.7 177.45 133.55 178.35 133.55 179.8 133.5 181.65 133.5 182.1 133.35 183.75 131.85 186 130.3 188.25 128.5 189.45 129 189.7 129.25 190.5 129.45 191.25 129.3 191.75 128.9 193.1 127.5 193.55 126.3 194 124.55 193.7 122.9 193.4 121.35 192.6 119.8 191.75 119.05 190.75
M 162.9 110.05
Q 162.75 110.3 162.55 110.55 162.15 111.15 161.7 111.55 161.7 111.65 161.65 111.8 161.5 112.25 161.45 112.75 164.75 112.8 166.85 112.2 168.6 111.65 170.1 110.5
L 171.3 109.55
Q 170.9 108.8 170.4 107.95 167.25 109.3 163.35 109.25 163.25 109.4 163.15 109.65
L 162.9 110.05
M 162.85 109.3
Q 162.9 109.3 163 109.25 162.4 109.25 161.85 109.2 159.95 109.1 159.35 109.8 158.7 110.55 158.45 113.2
L 158.45 113.25 160.1 111.4
Q 160.4 111.05 160.7 110.8 161.1 110.35 161.9 109.85 162.25 109.65 162.4 109.55 162.75 109.35 162.85 109.3 Z"/>

<path fill="#DED6CE" stroke="none" d="
M 33.4 112.45
Q 32.3 113.4 31.9 114.1
L 31.85 114.1
Q 30.05 117.7 29.3 121 31.65 118.3 37.25 117 37.8 115.15 38.9 112.75 39.85 110.7 40.9 108.95 39.35 109.45 38.5 109.75 35.35 110.85 33.4 112.45
M 45.25 144.15
L 44.65 144.05 38.15 135.4
Q 35.75 135.3 33.85 134.55 31.15 133.45 29.55 131.15 30.95 136.25 34.6 139.55 38.75 143.35 45.25 144.15
M 49.6 102.85
Q 49.45 103.1 49.35 103.35 50.35 101.6 50.75 99.3
L 49.6 102.85
M 109.65 88.05
L 110.2 88.45
Q 108.7 91.9 105.65 96.95 99.1 107.8 90.9 116.45 87.1 120.45 85.4 122 81.85 125.3 79.1 126.6 77.9 127.2 76.3 126.45 75.45 126 75 125.8 74.2 125.5 73.55 125.5 71.45 125.5 69.95 127.4 69.4 128.05 67.7 131.05 66.6 133.05 65.35 134.25 63.95 135.55 61.9 136.35 52.9 139.9 44.75 139.95 44.05 139.95 43.45 139.35 42.9 138.8 42.7 138.05 42.45 137.25 42.6 136.65 42.8 136 43.5 135.85 49.45 134.4 52.75 130.6 55 128.05 55.45 125.15 54.9 128.2 52.1 130.75 48.1 134.45 41.35 135.25
L 40.85 135.3 41.05 136.25
Q 41.4 137.45 41.9 138.6 43.6 142.3 46.6 144.3 54.05 144.8 63 141.1
L 62.1 142.2
Q 61 143.55 59.95 145.05 56.55 149.75 54.85 153.75 53.1 157.85 53.75 161.05 54.4 164.05 57.35 166.95 56.8 167.35 56.55 168.15 56.3 169.05 56.55 169.95 57.25 172.2 60.85 172.7 60.6 175.85 60.15 178.75 59.65 181.85 59 183.6
L 58.15 184
Q 57.1 184.5 56.25 185.15 53.5 187.25 53.6 189.95 53.65 192.7 55.85 193.85 57.1 194.5 59.35 194.6 62.35 194.8 64.75 194 68.7 192.75 69.75 189.15 70.9 185.4 71.6 181.6 71.95 179.5 72.1 177.8 75.7 178.05 78.3 177.95 80.65 184.1 81.05 186.5 80.25 187.6 80 189.1 79.7 190.6 80.15 192 81.25 195.3 85.55 195.6 94.25 196.25 94.7 189.95 94.75 188.85 94.55 188
L 94.55 187.95 94.5 187.75
Q 94.45 187.55 94.4 187.4 94.45 187.5 94.5 187.65 93.85 185.05 92.65 181.5 91.1 177.3 90.35 175.2 88.9 171 87.9 167.5 86.6 162.7 86.5 159.9 86.35 157.3 86.4 153.4
L 86.5 150.05
Q 89.25 151.8 93 152.4 98.25 153.25 104.65 151.65 104.75 151.8 104.9 151.95 105.35 152.5 106.25 152.7 107.35 152.9 108.85 152.55 109.65 152.35 110.4 152.05 111.1 151.7 111.45 151.4 112.4 150.5 112.45 149.15 112.25 147.5 112.2 146.5 112.2 145.4 112.25 144.15 112.3 142.8 112.45 141.1 112.75 137.85 110.4 136.95 109.65 136.7 108.7 136.7
L 107.9 136.75
Q 107.65 136.25 107.25 135.95 106.95 135.65 106.55 135.45 105.85 135.15 104.95 135.2 103.65 135.3 101.85 136.15 101.1 136.5 100.75 136.7 99.05 137.55 96.5 137.75 93.05 138.05 90.1 136.7 86.45 135 84.05 132 83.3 131.05 82.8 130.1
L 82.4 129.3
Q 84.15 127.95 86 126.35 90.9 122.15 95.3 116.95 99.5 111.95 102.95 106.5 103.75 105.15 104.35 104.1 108.55 96.95 111.45 89.2 111.35 89.15 111.3 89.1 110.75 88.75 110.25 88.45 109.95 88.25 109.65 88.05
M 70.9 127.8
Q 71.3 127.65 72.2 127.65 73.7 127.7 74.9 128.5
L 74.25 129.5
Q 73.8 129.2 73.35 129.05 72.9 131.7 71.75 134.1 70.6 136.45 68.85 138.35 66.85 139.4 63.45 140.95 66.8 139.3 69.1 136.15 71.5 132.9 72.15 128.85 71.8 128.85 71.45 128.9 71.2 128.95 71.15 128.95
L 70.9 127.8
M 65 151.15
Q 66.45 150.55 69.6 149.7 74.1 148.3 75.75 147.6 78.2 146.55 81.45 144.45 86.05 141.45 86.9 141 87.65 140.55 88.8 140.25 89.2 140.15 90.85 139.75 91.6 139.6 94.9 139 97.45 138.55 98.95 138.1 100.05 137.75 103.8 136.2 106.35 135.1 107.05 136.7 107.65 137.95 106.9 140.4 106.5 141.85 106.05 142.6 105.45 143.55 104.75 143.65 102.8 143.9 102.2 142.1 101.85 140.9 102 138.75 101.95 139.3 101.55 140.25 101.05 141.3 100.95 141.8 100.85 142.45 100.9 143.35 100.9 143.55 101.1 144.95 101.35 147.1 101.2 147.95 100.95 149.6 99.55 150.25 97.7 151.1 95.7 151 94.1 150.9 92.1 150.2 91.35 149.95 88.55 148.7 86.35 147.75 84.9 147.4 83.7 147.1 82.2 147.05 83.2 148.6 83.75 152.2 84.65 157.85 85.45 161.65 86.4 166.1 87.9 171.45 88.2 172.6 89.55 175.85 91.15 179.75 91.8 181.6 94.4 189.05 92.8 191.65 91.45 193.75 88.1 194.15 85 194.55 82.65 193.2 80.55 192.05 80.4 190.1 80.25 187.9 82.8 186.1 79.95 180.2 78.4 174.75 78.95 176.95 74.4 177.3 72.9 177.45 70.8 177.35 68.97890625 177.30078125 68.55 177.3 69.2556640625 177.3181640625 69.85 179.25 70.3 180.7 70.35 181.85 70.45 183.3 70.15 184.85 69.85 186.3 69.15 187.7 67.6 190.9 64.05 192.4 60.4 193.95 57.05 192.7 55.4 192.1 54.65 190.95 53.9 189.85 54.2 188.55 54.45 187.25 55.75 186.15 57.2 184.95 59.55 184.3 60.65 180 61.3 175.05 61.8 170.95 61.85 167.85 61.85 162.1 61.9 159.9 61.9 156.2 62.25 153.7 62.4 152.15 65 151.15
M 61.3 154.2
L 61.3 154.3
Q 61.25 156.65 61 163.1 60.8 168.65 60.75 171.9 59.25 171.85 58.2 170.8 57.35 169.9 57.2 168.9 57.05 167.85 57.75 167.9 58.5 167.9 59.9 169.45 59.65 168.2 58.4 166.6 56.6 164.45 56.35 164 55.15 161.9 55 159.5 54.8 156.95 55.9 155 56.45 153.95 57.4 153.2 58.3 152.45 59.45 152.15 60.9 151.75 61.2 152.35 61.35 152.65 61.3 154.2
M 107.7 141.9
Q 107.95 140.6 108.1 139.95 108.55 137.7 109.7 137.45 110.8 137.2 111.45 138.25 112.05 139.2 111.95 140.65 111.95 140.75 111.75 143.2 111.6 144.75 111.65 145.75 111.65 146.05 111.85 147.3 112 148.3 111.9 148.9 111.7 150.45 110.3 151.3 109.1 152.05 107.3 152.15 105.95 152.2 105.1 151.3 104.25 150.5 104.15 149.15 104.05 147.7 105.05 146.15 106.4 144.45 107 143.6 107.45 143 107.7 141.9
M 104.2 83.75
L 104.2 83.7 99.9 79.15
Q 101.9 81.6 104.2 83.75
M 106.65 85.85
Q 106.925 86.075 107.2 86.3
L 107.65 86.65
Q 107.1419921875 86.2373046875 106.65 85.85
M 85.7 72.25
Q 88.95 71.8 94.15 70.4 93.5 69.15 92.95 67.9
L 91.95 65.4
Q 85.05 67.25 82.9 67.55 79.1 68.15 78.05 67.45 76.75 66.6 77.65 63.25 78.2 61.15 79.25 57.55 80.4 53.35 80.8 51.95
L 80.75 51.95
Q 71.95 53 65 54.55
L 64.85 54.55
Q 58.15 58.15 54.35 64.45 51.8 68.7 50.95 73.4 53.2 73.65 55.15 74.6 60.35 70.7 66.8 69.1 73.7 67.4 79.7 68.9 79.3 70 79.3 70.65 79.25 71.4 79.75 71.85 80.9 73 85.7 72.25
M 89.85 83.55
Q 88.7 80.85 86.6 78.75 84.5 76.65 81.8 75.55 79.05 74.35 75.95 74.35 72.9 74.35 70.1 75.55 67.4 76.65 65.35 78.75 63.25 80.85 62.1 83.55 60.9 86.35 60.9 89.4 60.9 92.45 62.1 95.25 63.25 97.95 65.35 100.05 67.4 102.1 70.1 103.25 72.9 104.45 75.95 104.45 79.05 104.45 81.8 103.25 84.5 102.1 86.6 100.05 88.7 97.95 89.85 95.25 91 92.45 91 89.4 91 86.35 89.85 83.55
M 84.55 79.45
Q 84.9 79.75 85.25 80.1 89.1 83.95 89.1 89.4 89.1 94.85 85.25 98.7 81.4 102.55 75.95 102.55 75.9 102.55 75.8 102.55 74.3 102.55 72.9 102.25 72.45 102.15 72 102 69 101.05 66.65 98.7 62.8 94.85 62.8 89.4 62.8 83.95 66.65 80.1 70.5 76.25 75.95 76.25 80.9 76.25 84.55 79.45 Z"/>

<path fill="#90867C" stroke="none" d="
M 46.6 144.3
Q 43.6 142.3 41.9 138.6 41.4 137.45 41.05 136.25
L 40.85 135.3 39.1 135.4
Q 38.8 135.4 38.5 135.4
L 38.35 135.4
Q 38.25 135.4 38.15 135.4
L 44.65 144.05 45.25 144.15
Q 46.15 144.25 46.6 144.3
M 72.2 127.65
Q 71.3 127.65 70.9 127.8
L 71.15 128.95
Q 71.2 128.95 71.45 128.9 71.8 128.85 72.15 128.85 71.5 132.9 69.1 136.15 66.8 139.3 63.45 140.95 66.85 139.4 68.85 138.35 70.6 136.45 71.75 134.1 72.9 131.7 73.35 129.05 73.8 129.2 74.25 129.5
L 74.9 128.5
Q 73.7 127.7 72.2 127.65 Z"/>

<path fill="#574F48" stroke="none" d="
M 49.25 116.7
Q 46.75 116.05 43.55 116.15 40.45 116.2 37.25 117 31.65 118.3 29.3 121 27.25 123.45 27.8 126.8 28.2 129.3 29.55 131.15 31.15 133.45 33.85 134.55 35.75 135.3 38.15 135.4 38.25 135.4 38.35 135.4
L 38.5 135.4
Q 38.8 135.4 39.1 135.4
L 40.85 135.3 41.35 135.25
Q 48.1 134.45 52.1 130.75 54.9 128.2 55.45 125.15
L 55.55 123.8
Q 55.5 123.2 55.45 122.6 54.95 118.15 49.25 116.7
M 46.4 117.6
Q 51.6 118.3 50.95 122.2 50.7 123.4 49.65 124.5 48.2 125.95 44.95 127 42.95 127.6 39.55 128.25 36.35 128.85 33.4 128.45 29.25 127.95 28.65 125.6 27.9 122.7 31.75 120.4 34.5 118.8 38.1 118.05 42.8 117.05 46.4 117.6
M 37.9 56.85
Q 34.65 58.9 34.25 59.15 30.6 61.5 25.4 63.55 21.65 64.95 18.4 65.85 16 66.45 14.8 67.4 13.5 68.45 13.75 69.65 14.05 71.05 17.3 71.5 21.9 72.15 31.2 70.4
L 34.65 75.45 35.95 84.8
Q 37.25 94.75 37.55 97.5 37.95 100.85 37.7 102.35 37.45 103.9 35.95 106.9 35.55 107.7 34.1 110.1 32.7 112.5 31.9 114.1 32.3 113.4 33.4 112.45 35.35 110.85 38.5 109.75 39.35 109.45 40.9 108.95 44.4 107.8 46.4 106.45 46.45 106.4 46.5 106.4 47.05 105.95 47.6 105.5 48.55 104.55 49.25 103.4 49.4 103.15 49.6 102.85
L 50.75 99.3
Q 50.8 99 50.85 98.7
L 50.95 97.75
Q 51.3 93.15 50.8 84.95 50.35 77.35 50.75 74.6 50.8 74.1 50.95 73.4 51.8 68.7 54.35 64.45 58.15 58.15 64.85 54.55 63.05 54.95 61.65 55.35
L 60.6 55.6
Q 57.4 52.5 54.95 51.4 52.2 50.2 49.3 50.9 48.25 51.2 47 51.7 45.15 52.5 42.65 53.95 40.85 54.95 37.9 56.85
M 20.35 65.8
Q 23.35 64.85 25.05 64.25 27.6 63.35 29.65 62.4 31.4 62.2 32.7 62.25 34.35 62.3 35.75 62.8 34.45 63.55 32.7 64.45 31 65.35 30.4 65.6 26.95 67.25 24.3 68.1 20.55 69.3 17.75 69.2 16.5 69.2 16.2 68.3 15.9 67.45 16.95 66.95 17.65 66.6 18.65 66.3 19.25 66.15 20.35 65.8
M 37.5 88.3
Q 38 84.75 39.6 84.45 41.15 84.1 42.65 87.25 42.8 87.6 43 88
L 43 87.95
Q 43.35 88.75 43.65 89.7
L 43.7 89.9
Q 44.3 91.75 44.75 94
L 44.8 94.4
Q 44.85 94.6 44.9 94.8
L 44.95 95.15
Q 45.3 97.55 45.3 99.55 45.3 99.6 45.3 99.65 45.3 100.85 45.15 101.95 44.9 104.2 44.1 105.15 43.65 105.7 43 105.8 41.25 106.15 39.75 103 38.4 100.2 37.75 95.85 37.1 91.5 37.5 88.3
M 88.4 43
Q 85.55 43.05 83.7 45.1 82.1 46.8 81.45 49.5 81.3 50.05 80.8 51.95 80.4 53.35 79.25 57.55 78.2 61.15 77.65 63.25 76.75 66.6 78.05 67.45 79.1 68.15 82.9 67.55 85.05 67.25 91.95 65.4
L 92.95 67.9
Q 93.5 69.15 94.15 70.4 99.55 68.7 104.85 66.55 106.75 65.8 112.3 63.35 115.7 61.8 117.15 61.45 119.1 61 120.2 61.75 122.5 63.25 119.65 70.45 117.05 77 110.25 88.45 110.75 88.75 111.3 89.1 111.35 89.15 111.45 89.2 114.45 85.45 116.8 81.75 119.4 77.6 121.4 73.15 123 69.55 124.55 64.8 124.95 63.6 125.15 62.55 125.65 59.3 124.3 56.85 123.1 54.75 120.55 53.4 118.85 52.5 116.75 52 114.5 51.5 111.3 50.5 106.25 48.9 100.35 46.8
L 98.7 46.2
Q 95.6 45.05 92.75 43.9 90.4 42.95 88.4 43
M 85.15 64.65
Q 82.75 65.35 81.05 65.6 78.45 65.9 78.6 64.85 79.05 61.2 80.5 56.3 94.85 53.8 104.7 57.25 95.8 61.75 85.15 64.65 Z"/>

<path fill="#93887F" stroke="none" d="
M 50.95 122.2
Q 51.6 118.3 46.4 117.6 42.8 117.05 38.1 118.05 34.5 118.8 31.75 120.4 27.9 122.7 28.65 125.6 29.25 127.95 33.4 128.45 36.35 128.85 39.55 128.25 42.95 127.6 44.95 127 48.2 125.95 49.65 124.5 50.7 123.4 50.95 122.2
M 46.5 106.4
Q 47 106.05 47.45 105.65
L 47.6 105.5
Q 47.05 105.95 46.5 106.4
M 49.35 103.35
Q 49.45 103.1 49.6 102.85 49.4 103.15 49.25 103.4
L 49.35 103.35
M 44.65 93.65
L 44.65 93.7
Q 44.7 93.85 44.75 94 44.3 91.75 43.7 89.9
L 44.65 93.65
M 25.05 64.25
Q 23.35 64.85 20.35 65.8 19.25 66.15 18.65 66.3 17.65 66.6 16.95 66.95 15.9 67.45 16.2 68.3 16.5 69.2 17.75 69.2 20.55 69.3 24.3 68.1 26.95 67.25 30.4 65.6 31 65.35 32.7 64.45 34.45 63.55 35.75 62.8 34.35 62.3 32.7 62.25 31.4 62.2 29.65 62.4 27.6 63.35 25.05 64.25
M 119.65 70.45
Q 122.5 63.25 120.2 61.75 119.1 61 117.15 61.45 115.7 61.8 112.3 63.35 106.75 65.8 104.85 66.55 99.55 68.7 94.15 70.4 95.1 72.2 96.2 74 96.25 74.1 96.35 74.2
L 98.65 77.55
Q 98.8 77.75 99 78
L 99.25 78.3
Q 99.55 78.7 99.9 79.15
L 104.2 83.7 104.2 83.75 104.25 83.8
Q 105.15 84.6 106.1 85.4
L 106.65 85.85
Q 107.1419921875 86.2373046875 107.65 86.65
L 109.65 88.05
Q 109.95 88.25 110.25 88.45 117.05 77 119.65 70.45
M 81.05 65.6
Q 82.75 65.35 85.15 64.65 95.8 61.75 104.7 57.25 94.85 53.8 80.5 56.3 79.05 61.2 78.6 64.85 78.45 65.9 81.05 65.6 Z"/>

<path fill="#FFFFFF" stroke="none" d="
M 44.8 94.45
Q 44.85 94.65 44.9 94.8 44.85 94.6 44.8 94.4
L 44.75 94
Q 44.7 93.85 44.65 93.7 44.75 94.05 44.8 94.45
M 39.6 84.45
Q 38 84.75 37.5 88.3 37.1 91.5 37.75 95.85 38.4 100.2 39.75 103 41.25 106.15 43 105.8 43.65 105.7 44.1 105.15 42.9 102.45 42.35 98.45 41.95 95.75 41.95 93.5 42.15 93.6 42.45 93.6 42.95 93.6 43.25 93.25 43.6 92.95 43.6 92.45 43.6 91.95 43.25 91.6 42.95 91.3 42.45 91.3 42.25 91.3 42.05 91.35 42.05 91.15 42.1 90.9 42.35 88.95 43 88 42.8 87.6 42.65 87.25 41.15 84.1 39.6 84.45
M 71.25 82.7
Q 75.1 78.85 80.55 78.85 82.7 78.85 84.55 79.45 80.9 76.25 75.95 76.25 70.5 76.25 66.65 80.1 62.8 83.95 62.8 89.4 62.8 94.85 66.65 98.7 69 101.05 72 102 71.6 101.65 71.25 101.3 67.4 97.45 67.4 92 67.4 86.55 71.25 82.7
M 79.05 81.9
Q 78.55 81.9 78.25 82.2 77.9 82.55 77.9 83.05 77.9 83.55 78.25 83.85 78.55 84.2 79.05 84.2 79.55 84.2 79.85 83.85 80.2 83.55 80.2 83.05 80.2 82.55 79.85 82.2 79.55 81.9 79.05 81.9
M 171.35 88.95
Q 171.4 89.15 171.45 89.35 169.65 90.3 166.85 88.4 164.15 86.6 161.55 82.9 159 79.25 158.25 76.1 158.25 76 158.2 75.9 158.0470703125 75.966015625 157.9 76.05 157.1 76.5 156.8 77.4 156.7 77.6 156.7 77.85
L 156.65 79.45
Q 156.65 79.6 156.7 79.75
L 156.7 79.8
Q 156.7 79.85 156.7 79.95 156.75 80.3 156.85 80.65 157.65 83.85 160.2 87.5 162.75 91.15 165.5 93 168.55 95.1 170.4 93.75 171.6 92.85 171.7 91.05 171.7 90.1 171.4 88.95 171.1 87.75 170.55 86.55 171.05 87.8 171.35 88.95
M 146.15 106.2
Q 146.2 105.65 146.15 105.1
L 146.15 105.15
Q 146.15 105.65 146.15 106.2
M 142.8 96.65
Q 143.6 97.7 144.2 98.75 143.65 97.7 142.85 96.65 142.1 95.65 141.3 94.85 142.05 95.65 142.8 96.65
M 131.25 91.7
Q 130.75 91.7 130.4 92 130.05 92.35 130.05 92.85 130.05 93.35 130.4 93.65 130.75 94 131.25 94 131.7 94 132.05 93.65 132.4 93.35 132.4 92.85 132.4 92.35 132.05 92 131.7 91.7 131.25 91.7
M 130.3 90.2
L 130.25 90.2
Q 128.5 90.45 126.9 91.45 122.85 93.95 122.85 98.9 122.9 103.35 126.05 107.75 129.2 112.15 133.6 113.7 134.6 114.05 135.6 114.2 139.35 114.8 142.7 112.45 145.95 110.15 146.15 106.2 145.65 106.65 145.1 107.05 140.85 110 135.95 108.3 131.6 106.8 128.4 102.35 125.25 98 125.25 93.5 125.25 93.1 125.3 92.7 126 92.05 126.9 91.5 128.55 90.5 130.3 90.2
M 163 109.25
Q 162.9 109.3 162.85 109.3 162.75 109.35 162.4 109.55 162.25 109.65 161.9 109.85 161.1 110.35 160.7 110.8 160.4 111.05 160.1 111.4
L 158.45 113.25 156.35 115.6 156.4 115.7 158.35 114.25 158.8 113.85
Q 159.25 113.55 160.15 112.8
L 160.25 112.75 160.85 112.25
Q 161.25 111.95 161.55 111.7 161.65 111.65 161.7 111.55 162.15 111.15 162.55 110.55 162.75 110.3 162.9 110.05
L 163.15 109.65
Q 163.25 109.4 163.35 109.25
L 163.25 109.15
Q 163.15 109.2 163 109.25
M 181.05 100.6
L 181 100.45 179.25 100.9
Q 179.05 100.95 178.25 101.2
L 178.1 101.25 177.75 101.35
Q 177.4 101.4 177.25 101.5 176.9 101.6 176.5 101.95
L 176 102.45 175.9 102.65 175.85 102.7 175.9 102.8 175.95 102.8
Q 176.05 102.85 176.2 102.85
L 176.85 102.85
Q 176.9 102.85 176.95 102.85 177.5 102.75 177.75 102.6 177.95 102.5 178.2 102.35
L 181.05 100.6
M 156.3 105.9
Q 155 106.2 154.35 106.35
L 151.1 107.25 151.1 107.4 157.45 106.75
Q 157.9 106.7 158.45 106.65 159.2 106.5 160.1 106.2
L 161.25 105.7
Q 161.55 105.55 161.7 105.45
L 161.65 105.35
Q 161.5 105.3 161.2 105.3 160.75 105.25 160.65 105.25 160.2 105.25 159.95 105.25 159 105.25 158.2 105.4 157.95 105.45 157.25 105.65
L 156.3 105.9
M 156.05 109.9
L 155.2 110.25
Q 154.05 110.7 153.6 110.9 153.35 111 152.2 111.5
L 150.8 112.15 150.85 112.25 155.5 111.15
Q 155.8 111.1 156.4 110.95 156.85 110.85 157.25 110.75 157.85 110.55 158.65 110.1 159.05 109.9 159.2 109.8
L 159.95 109.25 159.9 109.15
Q 159.75 109.1 159.45 109.1
L 158.95 109.15
Q 158.65 109.15 158.35 109.2 157.5 109.3 156.85 109.55 156.6 109.65 156.05 109.9
M 175.75 98.65
L 176.7 97.4
Q 177.1 96.85 177.5 96.35
L 178.25 95.25 178.15 95.15 175.05 98
Q 174.85 98.2 174.45 98.55 174.05 98.9 173.9 99.05 173.5 99.5 173.1 100.15 172.85 100.6 172.7 101.05 172.6 101.25 172.55 101.4
L 172.65 101.5 173 101.35
Q 173.35 101.15 173.85 100.8 174.45 100.35 174.85 99.9 175.05 99.65 175.3 99.3 175.65 98.8 175.75 98.65
M 171.3 97.45
L 171.2 98.1 171.25 98.4 171.35 98.45 171.4 98.45 171.85 98.15 172.15 97.9
Q 172.5 97.6 172.65 97.25 172.8 97 172.85 96.8
L 173 96.3
Q 173.3 95.6 173.4 95.35 173.55 94.95 173.7 94.55
L 173.95 93.75 173.85 93.65 172.75 95.05
Q 172.4 95.55 172.2 95.85
L 171.85 96.25
Q 171.6 96.55 171.55 96.65 171.4 96.95 171.3 97.45
M 162.6 78.45
Q 162.6 77.95 162.25 77.6 161.9 77.3 161.45 77.3 160.95 77.3 160.6 77.6 160.25 77.95 160.25 78.45 160.25 78.95 160.6 79.25 160.95 79.6 161.45 79.6 161.9 79.6 162.25 79.25 162.6 78.95 162.6 78.45 Z"/>

<path fill="#584027" stroke="none" d="
M 43 87.95
L 43 88
Q 42.35 88.95 42.1 90.9 42.05 91.15 42.05 91.35 42.25 91.3 42.45 91.3 42.95 91.3 43.25 91.6 43.6 91.95 43.6 92.45 43.6 92.95 43.25 93.25 42.95 93.6 42.45 93.6 42.15 93.6 41.95 93.5 41.95 95.75 42.35 98.45 42.9 102.45 44.1 105.15 44.9 104.2 45.15 101.95 45.3 100.85 45.3 99.65 45.3 99.6 45.3 99.55 45.3 97.55 44.95 95.15
L 44.9 94.8
Q 44.85 94.65 44.8 94.45 44.75 94.05 44.65 93.7
L 44.65 93.65 43.7 89.9 43.65 89.7
Q 43.35 88.75 43 87.95
M 85.25 80.1
Q 84.9 79.75 84.55 79.45 82.7 78.85 80.55 78.85 75.1 78.85 71.25 82.7 67.4 86.55 67.4 92 67.4 97.45 71.25 101.3 71.6 101.65 72 102 72.45 102.15 72.9 102.25 74.3 102.55 75.8 102.55 75.9 102.55 75.95 102.55 81.4 102.55 85.25 98.7 89.1 94.85 89.1 89.4 89.1 83.95 85.25 80.1
M 78.25 82.2
Q 78.55 81.9 79.05 81.9 79.55 81.9 79.85 82.2 80.2 82.55 80.2 83.05 80.2 83.55 79.85 83.85 79.55 84.2 79.05 84.2 78.55 84.2 78.25 83.85 77.9 83.55 77.9 83.05 77.9 82.55 78.25 82.2 Z"/>

<path fill="#6D4870" stroke="none" d="
M 69.35 18.3
Q 69.15 18.4 68.95 18.5
L 65.45 20.3
Q 65.2 20.45 65 20.55
L 64.55 20.85
Q 64.3 20.95 64.1 21.1
L 61.35 22.8
Q 61.1 22.95 60.9 23.1
L 56.4 26.25
Q 56.3 26.3 56.25 26.35 56.1 26.45 56 26.55 55.9 26.6 55.8 26.7 55.6 26.85 55.35 27.05
L 51.35 30.4
Q 51 30.65 50.7 30.95
L 50.55 31.05
Q 50.45 31.15 50.35 31.25
L 48.65 32.8
Q 48.3 33.1 48 33.45 44.7 36.65 41.85 40.1 41.75 40.25 41.65 40.35 40.55 41.7 39.5 43.05 39.25 43.35 39.05 43.65 37 46.45 35.9 48.35 50.15 28.05 70.75 17.85 74.75 15.85 78.75 14.4 73.9 16 69.35 18.3
M 83.7 45.1
Q 85.55 43.05 88.4 43 90.4 42.95 92.75 43.9 95.6 45.05 98.7 46.2
L 98.1 37.25
Q 93.4 37.65 89.05 38.6 86.35 39.2 84.1 39.95
L 82.4 40.6
Q 76.75 39.75 70.9 40.3 65.15 40.85 59.75 42.7 58.05 43.3 56.55 43.9
L 55.45 44.45
Q 53.35 44.3 51.25 44.45 45.9 44.75 40.4 46.6 38.65 47.15 37.1 47.8
L 35.9 48.35
Q 34.2 48.5 32.55 48.85 27.65 49.8 24 52.2 22.15 53.35 21.3 54.35
L 22 54.4
Q 22.85 54.45 23.65 54.6 26.2 55.2 27.2 56.85
L 28.15 56.65
Q 29.3 56.45 30.55 56.35 34.55 56.05 37.9 56.85 40.85 54.95 42.65 53.95 45.15 52.5 47 51.7 48.25 51.2 49.3 50.9 52.2 50.2 54.95 51.4 57.4 52.5 60.6 55.6
L 61.65 55.35
Q 63.05 54.95 64.85 54.55
L 65 54.55
Q 71.95 53 80.75 51.95
L 80.8 51.95
Q 81.3 50.05 81.45 49.5 82.1 46.8 83.7 45.1
M 96.65 10.45
Q 96.55 10.45 96.45 10.5 94.5 10.8 91.65 11.65 85.7 13.4 80.15 16.4 72.4 20.6 66.6 26.7 59.3 34.3 55.45 44.45 63.2 26.55 80.7 16.7 86.2 13.65 91.95 11.75 94.8 10.8 96.6 10.5 95.65 11.05 94.35 12.15 91.65 14.4 89.45 17.4 82.5 26.9 82.4 40.3 82.45 39.1 82.7 37.3 83.25 33.15 84.4 29.25 88.15 16.6 96.65 10.5
L 96.65 10.45
M 147.95 24.4
Q 139.1 18.25 128.05 14.75 115.25 10.7 100.25 10.45 101.1 10.5 101.95 10.55
L 102.25 10.6 107.35 11
Q 107.7 11 108.05 11.05 116.95 12.05 125.2 14.45 149.55 21.5 162.3 38.55 161.25 36.75 158.95 34.1 154.3 28.8 147.95 24.4
M 129.3 22.65
L 129.3 22.7
Q 136.15 28.85 139.65 37.75 136.7 29.15 130.5 23.05 125.5 18.2 118.65 15.1 113.8 12.9 108.45 11.8 106.8 11.45 105.3 11.3
L 104.25 11.2 111.25 12.85 111.7 12.95
Q 111.9 13 112.15 13.1 112.30078125 13.1455078125 112.45 13.2
L 112.45 13.2 112.5 13.2
Q 112.584765625 13.2373046875 112.65 13.25 114.5451171875 13.855078125 116.4 14.65
L 122.85 17.9
Q 123.6 18.35 124.35 18.85
L 127.4 21.05
Q 127.45 21.1 127.5 21.15
L 127.6 21.2
Q 128.5 21.9 129.3 22.65
M 164.25 38.35
L 162.3 38.55
Q 157.6 37.1 152.3 36.8 148.3 36.55 144.25 37 142.45 37.2 140.9 37.5
L 139.65 37.75
Q 135.75 36.7 130.9 36.45 127 36.2 122.65 36.5 119.45 36.7 116.35 37.2
L 114.05 37.6
Q 113.95 36.35 113.55 34.35 112.8 30.4 111.35 26.7 106.95 15.6 97.85 11
L 98 11.1
Q 98.2 11.25 98.4 11.4
L 98.75 11.6
Q 101.3 13.25 103.65 15.75 111.2 23.85 113.9 37.6 110.55 37.2 107.55 37.1 103.55 36.9 99.7 37.15
L 100.35 46.8
Q 106.25 48.9 111.3 50.5 114.5 51.5 116.75 52 118.85 52.5 120.55 53.4 124.9 53 129.75 53.2 132.15 53.3 133.7 53.5 135.5 52.65 137.5 52.05 138 50.9 138.3 49.75
L 138.5 48.85 139.15 49.45
Q 139.85 50.25 140.45 51.3 142.1 50.95 144.2 50.7
L 144.65 50.1 152.7 37.75 154.1 41.9 155.2 40 156.55 50.05
Q 161.2 47.45 168.2 46.65 171.65 46.2 174.25 46.3 175.4 44.35 177.35 43.35 178.35 42.85 179.1 42.7 174.75 39.55 169.1 38.65 166.65 38.25 164.25 38.35 Z"/>

<path fill="#FFC102" stroke="none" d="
M 124.65 78.4
L 125.7 78.4
Q 126.2 78.4 126.7 78.4
L 123.1 74.85 123.55 75.65
Q 124.15 76.8 124.65 78.4
M 141.95 59.3
Q 142 59.1 142 58.85
L 142 58.75
Q 142.05 58.35 142.05 57.95
L 133.65 63.05 135.95 62.15
Q 138.8 61.25 141.7 60.85
L 141.95 59.3 Z"/>

<path fill="#FBF8F5" stroke="none" d="
M 108.1 139.95
Q 107.95 140.6 107.7 141.9 107.45 143 107 143.6 106.4 144.45 105.05 146.15 104.05 147.7 104.15 149.15 104.25 150.5 105.1 151.3 105.95 152.2 107.3 152.15 109.1 152.05 110.3 151.3 111.7 150.45 111.9 148.9 112 148.3 111.85 147.3 111.65 146.05 111.65 145.75 111.6 144.75 111.75 143.2 111.95 140.75 111.95 140.65 112.05 139.2 111.45 138.25 110.8 137.2 109.7 137.45 108.55 137.7 108.1 139.95
M 61.3 154.3
L 61.3 154.2
Q 61.35 152.65 61.2 152.35 60.9 151.75 59.45 152.15 58.3 152.45 57.4 153.2 56.45 153.95 55.9 155 54.8 156.95 55 159.5 55.15 161.9 56.35 164 56.6 164.45 58.4 166.6 59.65 168.2 59.9 169.45 58.5 167.9 57.75 167.9 57.05 167.85 57.2 168.9 57.35 169.9 58.2 170.8 59.25 171.85 60.75 171.9 60.8 168.65 61 163.1 61.25 156.65 61.3 154.3
M 69.6 149.7
Q 66.45 150.55 65 151.15 62.4 152.15 62.25 153.7 61.9 156.2 61.9 159.9 61.85 162.1 61.85 167.85 61.8 170.95 61.3 175.05 60.65 180 59.55 184.3 57.2 184.95 55.75 186.15 54.45 187.25 54.2 188.55 53.9 189.85 54.65 190.95 55.4 192.1 57.05 192.7 60.4 193.95 64.05 192.4 67.6 190.9 69.15 187.7 69.85 186.3 70.15 184.85 70.45 183.3 70.35 181.85 70.3 180.7 69.85 179.25 69.2556640625 177.3181640625 68.55 177.3 68.97890625 177.30078125 70.8 177.35 72.9 177.45 74.4 177.3 78.95 176.95 78.4 174.75 79.95 180.2 82.8 186.1 80.25 187.9 80.4 190.1 80.55 192.05 82.65 193.2 85 194.55 88.1 194.15 91.45 193.75 92.8 191.65 94.4 189.05 91.8 181.6 91.15 179.75 89.55 175.85 88.2 172.6 87.9 171.45 86.4 166.1 85.45 161.65 84.65 157.85 83.75 152.2 83.2 148.6 82.2 147.05 83.7 147.1 84.9 147.4 86.35 147.75 88.55 148.7 91.35 149.95 92.1 150.2 94.1 150.9 95.7 151 97.7 151.1 99.55 150.25 100.95 149.6 101.2 147.95 101.35 147.1 101.1 144.95 100.9 143.55 100.9 143.35 100.85 142.45 100.95 141.8 101.05 141.3 101.55 140.25 101.95 139.3 102 138.75 101.85 140.9 102.2 142.1 102.8 143.9 104.75 143.65 105.45 143.55 106.05 142.6 106.5 141.85 106.9 140.4 107.65 137.95 107.05 136.7 106.35 135.1 103.8 136.2 100.05 137.75 98.95 138.1 97.45 138.55 94.9 139 91.6 139.6 90.85 139.75 89.2 140.15 88.8 140.25 87.65 140.55 86.9 141 86.05 141.45 81.45 144.45 78.2 146.55 75.75 147.6 74.1 148.3 69.6 149.7
M 96.2 74
Q 95.1 72.2 94.15 70.4 88.95 71.8 85.7 72.25 80.9 73 79.75 71.85 79.25 71.4 79.3 70.65 79.3 70 79.7 68.9 73.7 67.4 66.8 69.1 60.35 70.7 55.15 74.6 53.2 73.65 50.95 73.4 50.8 74.1 50.75 74.6 50.35 77.35 50.8 84.95 51.3 93.15 50.95 97.75
L 50.85 98.7
Q 50.8 99 50.75 99.3 50.35 101.6 49.35 103.35
L 49.25 103.4
Q 48.55 104.55 47.6 105.5
L 47.45 105.65
Q 47 106.05 46.5 106.4 46.45 106.4 46.4 106.45 44.4 107.8 40.9 108.95 39.85 110.7 38.9 112.75 37.8 115.15 37.25 117 40.45 116.2 43.55 116.15 46.75 116.05 49.25 116.7 54.95 118.15 55.45 122.6 55.5 123.2 55.55 123.8
L 55.45 125.15
Q 55 128.05 52.75 130.6 49.45 134.4 43.5 135.85 42.8 136 42.6 136.65 42.45 137.25 42.7 138.05 42.9 138.8 43.45 139.35 44.05 139.95 44.75 139.95 52.9 139.9 61.9 136.35 63.95 135.55 65.35 134.25 66.6 133.05 67.7 131.05 69.4 128.05 69.95 127.4 71.45 125.5 73.55 125.5 74.2 125.5 75 125.8 75.45 126 76.3 126.45 77.9 127.2 79.1 126.6 81.85 125.3 85.4 122 87.1 120.45 90.9 116.45 99.1 107.8 105.65 96.95 108.7 91.9 110.2 88.45
L 109.65 88.05 107.65 86.65 107.2 86.3
Q 106.925 86.075 106.65 85.85
L 106.1 85.4
Q 105.15 84.6 104.25 83.8
L 104.2 83.75
Q 101.9 81.6 99.9 79.15 99.55 78.7 99.25 78.3
L 99 78
Q 98.8 77.75 98.65 77.55 98.45 77.3 98.25 77.05
L 96.6 74.65
Q 96.45 74.4 96.35 74.2 96.25 74.1 96.2 74
M 86.6 78.75
Q 88.7 80.85 89.85 83.55 91 86.35 91 89.4 91 92.45 89.85 95.25 88.7 97.95 86.6 100.05 84.5 102.1 81.8 103.25 79.05 104.45 75.95 104.45 72.9 104.45 70.1 103.25 67.4 102.1 65.35 100.05 63.25 97.95 62.1 95.25 60.9 92.45 60.9 89.4 60.9 86.35 62.1 83.55 63.25 80.85 65.35 78.75 67.4 76.65 70.1 75.55 72.9 74.35 75.95 74.35 79.05 74.35 81.8 75.55 84.5 76.65 86.6 78.75 Z"/>

<path fill="#AA7AAE" stroke="none" d="
M 96.45 10.5
Q 96.3 10.5 96.2 10.5 77.4 12 61.45 19.2 48.65 24.95 38.25 34.05 30.8 40.55 25.3 48.1 22.55 51.9 21.3 54.35 22.15 53.35 24 52.2 27.65 49.8 32.55 48.85 34.2 48.5 35.9 48.35 37 46.45 39.05 43.65 39.25 43.35 39.5 43.05 40.55 41.7 41.65 40.35 41.75 40.25 41.85 40.1 44.7 36.65 48 33.45 48.3 33.1 48.65 32.8
L 50.35 31.25
Q 50.45 31.15 50.55 31.05
L 50.7 30.95
Q 51 30.65 51.35 30.4
L 55.35 27.05
Q 55.6 26.85 55.8 26.7 55.9 26.6 56 26.55 56.1 26.45 56.25 26.35 56.3 26.3 56.4 26.25
L 60.9 23.1
Q 61.1 22.95 61.35 22.8
L 64.1 21.1
Q 64.3 20.95 64.55 20.85
L 65 20.55
Q 65.2 20.45 65.45 20.3
L 68.95 18.5
Q 69.15 18.4 69.35 18.3 73.9 16 78.75 14.4 74.75 15.85 70.75 17.85 50.15 28.05 35.9 48.35
L 37.1 47.8
Q 38.65 47.15 40.4 46.6 45.9 44.75 51.25 44.45 53.35 44.3 55.45 44.45 59.3 34.3 66.6 26.7 72.4 20.6 80.15 16.4 85.7 13.4 91.65 11.65 94.5 10.8 96.45 10.5
M 162.3 38.55
L 164.25 38.35
Q 166.65 38.25 169.1 38.65 174.75 39.55 179.1 42.7 177.6 40.45 174.45 37.1 168.15 30.45 159.95 25.1 148.4 17.6 134.7 13.8 117.5 9.05 97.8 10.35
L 96.65 10.45 96.65 10.5
Q 88.15 16.6 84.4 29.25 83.25 33.15 82.7 37.3 82.45 39.1 82.4 40.3 82.5 26.9 89.45 17.4 91.65 14.4 94.35 12.15 95.65 11.05 96.6 10.5 94.8 10.8 91.95 11.75 86.2 13.65 80.7 16.7 63.2 26.55 55.45 44.45
L 56.55 43.9
Q 58.05 43.3 59.75 42.7 65.15 40.85 70.9 40.3 76.75 39.75 82.4 40.6
L 84.1 39.95
Q 86.35 39.2 89.05 38.6 93.4 37.65 98.1 37.25
L 99.7 37.15
Q 103.55 36.9 107.55 37.1 110.55 37.2 113.9 37.6 111.2 23.85 103.65 15.75 101.3 13.25 98.75 11.6
L 98.4 11.4
Q 97.85 11.05 97.35 10.8 97.6 10.9 97.85 11 106.95 15.6 111.35 26.7 112.8 30.4 113.55 34.35 113.95 36.35 114.05 37.6
L 116.35 37.2
Q 119.45 36.7 122.65 36.5 127 36.2 130.9 36.45 135.75 36.7 139.65 37.75 136.15 28.85 129.3 22.7
L 129.3 22.65
Q 128.5 21.9 127.6 21.2
L 127.5 21.15
Q 127.45 21.1 127.4 21.05
L 124.35 18.85
Q 123.6 18.35 122.85 17.9
L 116.4 14.65
Q 114.5451171875 13.855078125 112.65 13.25 112.7724609375 13.3021484375 112.9 13.35 112.708984375 13.2826171875 112.5 13.2
L 112.45 13.2 112.45 13.2
Q 112.30078125 13.1455078125 112.15 13.1 111.6921875 12.960546875 111.25 12.85
L 104.25 11.2 105.3 11.3
Q 106.8 11.45 108.45 11.8 113.8 12.9 118.65 15.1 125.5 18.2 130.5 23.05 136.7 29.15 139.65 37.75
L 140.9 37.5
Q 142.45 37.2 144.25 37 148.3 36.55 152.3 36.8 157.6 37.1 162.3 38.55 149.55 21.5 125.2 14.45 116.95 12.05 108.05 11.05 107.7 11 107.35 11
L 102.25 10.6
Q 101.8046875 10.5595703125 101.4 10.55 101.6875 10.55 101.95 10.55 101.1 10.5 100.25 10.45 115.25 10.7 128.05 14.75 139.1 18.25 147.95 24.4 154.3 28.8 158.95 34.1 161.25 36.75 162.3 38.55 Z"/>

<path fill="#FFC7EA" stroke="none" d="
M 118.25 187.15
Q 117.75 189.05 119.05 190.75 119.8 191.75 121.35 192.6 122.9 193.4 124.55 193.7 126.3 194 127.5 193.55 128.9 193.1 129.3 191.75 129.45 191.25 129.25 190.5 129 189.7 128.5 189.45 130.3 188.25 131.85 186 133.35 183.75 133.5 182.1 133.5 181.65 133.55 179.8 133.55 178.35 133.7 177.45 133.8 177.95 133.85 179 134 179.9 134.5 180.25 134.95 180.6 135.65 180.75 136.35 180.85 136.85 180.75 135.8 181.05 135.65 181.1 134.95 181.4 134.6 181.9 134.25 182.35 133.95 183.15 133.8 183.65 133.5 184.55 133.35 185.05 132.8 186.35 132.35 187.3 132.2 187.85 131.8 189.35 132.75 190.5 133.95 192 136.45 192.3 138.65 192.55 140.7 191.95 143.25 191.1 143.5 189.3 143.75 187.55 141.85 185.8 141.6 185.6 141 185.25 140.35 184.9 139.75 184.7 139.9 183.95 140.1 182.35 140.3 180.75 140.45 180.15 140.85 177.85 140.9 176.45 140.95 174.4 140.4 172.8 139.7 170.8 137.75 168.3 137.25 167.65 136.1 166.35 135.7 165.85 135.45 165.55 135 164.95 134.7 164.75 144.3 170.1 145.6 173.25 145.7 173.4 146.2 175 146.7 176.5 147.1 177.45 148.45 180.55 149.7 179.4 150.35 178.75 149.95 177.3 149.8 176.65 149.1 175.25 150.85 177.05 151.7 177.7 152.85 178.6 154.35 179.2 156.8 180.2 157.65 178.3 158.35 176.85 157.95 174.4 158.05 174.7 158.3 174.8 159.3 174.1 158.85 172.35 158.55 171.2 157.65 169.85 156.45 168.05 154.35 166.25 153.75 165.7 152.65 164.7 151.45 163.6 150.95 163.15 144.95 157.85 139.1 156.65 136.15 156.05 133.9 156 130.9 155.9 128.75 156.65 125.8 157.7 123.75 164.1 120.4 174.6 124.2 182.45 123.5 181.1 122.05 182.1 121.4 182.55 120.1 184 118.65 185.65 118.25 187.15
M 115.3 171.85
Q 114.45 172.4 113.5 173.2 113.35 173.35 111.55 175.1 110.35 176.3 109.4 176.8 108.3 177.45 107.2 177.45 106.05 177.4 104.95 176.75 104.9 177.05 104 178.25 103.15 179.45 102.6 180 105.25 181.9 108.65 179.5 109.8 178.7 111.3 177.2 112.85 175.6 113.45 175 114.95 173.6 117.45 172.6 117.65 172.5 118.5 172.3 119.3 172.05 119.6 171.8 119.9 171.5 119.85 171.15 119.85 170.8 119.4 170.6 119.05 170.45 118.35 170.6 117.8 170.65 117.3 170.85 116.25 171.25 115.3 171.85
M 170.1 153.7
Q 170.15 153.2 169.6 152.8 168.25 151.8 164.5 152.5 162.55 152.95 161.6 153.15 160.05 153.45 159.25 153.4 158.4 153.35 156.95 153.05 155.2 152.75 154.3 152.55 151.8 152.15 150.25 152.2 148.1 152.25 146.8 153.15 145.4 154.15 145.25 155.5 145.1 156.9 146.4 158 148.3 159.6 150.45 160.6 152.15 161.4 154.65 162.1 156.35 162.55 159.8 163.45 162.85 164.3 164.95 165 165.6 165.2 166.8 165.8 167.85 166.2 168.7 166 169.9 165.8 170.25 164.35 170.45 163.65 170.5 161.9 170.85 162.95 171.65 162.8 172.45 162.65 172.5 161.5 172.55 160.25 170.15 157.55 168.1 155.25 167.15 154.7 167.7 155 168.4 154.9 169.05 154.85 169.55 154.5 170.05 154.15 170.1 153.7
M 176.75 109.45
Q 175.9 109.7 175.1 110.45 174.2 111.3 173.5 111.95 172.05 113.15 170.65 113.8 169.6 114.3 169.05 114.95 168.3 115.8 168.8 116.75 169.6 118.45 172.25 117.8 174.4 117.25 176.2 115.8 177.55 114.7 178.25 113.1 179 111.35 178.35 110.1 177.9 109.15 176.75 109.45
M 165.5 94.5
Q 164.7 95.55 164.15 96.6 159.55 95.25 155.1 96.35 150.7 97.45 147.2 100.75 148.45 104.5 147.75 107.9 146.95 111.75 143.8 114.05 141.75 115.6 138.9 116.2 136.35 116.75 133.5 116.55 131.55 116.4 129 115.5 124.95 114 124.65 113.95 122.05 113.2 119.95 117.65 119.3 119.1 118.55 121.35 117.7 124 117.6 124.2 115.65 129.15 114.9 130.95 113.25 134.6 111.55 137.35 119.4 135.15 126.35 133.8 133.45 132.45 136.05 131.85 142.05 130.4 146.2 128.45 156.9 123.5 158.35 114.25
L 156.4 115.7 156.35 115.6 158.45 113.25 158.45 113.2
Q 158.7 110.55 159.35 109.8 159.95 109.1 161.85 109.2 162.4 109.25 163 109.25 163.15 109.2 163.25 109.15
L 163.35 109.25
Q 167.25 109.3 170.4 107.95 169.7 106.8 168.75 105.45
L 163.4 104.2 169.9 100.05 169.65 104.7
Q 170.75 106.2 171.5 107.4 174.6 105.75 176.95 102.85 176.9 102.85 176.85 102.85
L 176.2 102.85
Q 176.05 102.85 175.95 102.8
L 175.9 102.8 175.85 102.7 175.9 102.65 176 102.45 176.5 101.95
Q 176.9 101.6 177.25 101.5 177.4 101.4 177.75 101.35
L 178.1 101.25
Q 181.1 96.7 182.55 89.65
L 177.3 93.4 178 88.9
Q 176.7 88.75 175.25 88.9 173.9 89.05 172.55 89.45 172.95 91.3 172.4 92.85 171.85 94.45 170.5 95.05 169.4 95.55 168.1 95.4 166.75 95.3 165.5 94.5
M 171.2 98.1
L 171.3 97.45
Q 171.4 96.95 171.55 96.65 171.6 96.55 171.85 96.25
L 172.2 95.85
Q 172.4 95.55 172.75 95.05
L 173.85 93.65 173.95 93.75 173.7 94.55
Q 173.55 94.95 173.4 95.35 173.3 95.6 173 96.3
L 172.85 96.8
Q 172.8 97 172.65 97.25 172.5 97.6 172.15 97.9
L 171.85 98.15 171.4 98.45 171.35 98.45 171.25 98.4 171.2 98.1
M 176.7 97.4
L 175.75 98.65
Q 175.65 98.8 175.3 99.3 175.05 99.65 174.85 99.9 174.45 100.35 173.85 100.8 173.35 101.15 173 101.35
L 172.65 101.5 172.55 101.4
Q 172.6 101.25 172.7 101.05 172.85 100.6 173.1 100.15 173.5 99.5 173.9 99.05 174.05 98.9 174.45 98.55 174.85 98.2 175.05 98
L 178.15 95.15 178.25 95.25 177.5 96.35
Q 177.1 96.85 176.7 97.4
M 155.2 110.25
L 156.05 109.9
Q 156.6 109.65 156.85 109.55 157.5 109.3 158.35 109.2 158.65 109.15 158.95 109.15
L 159.45 109.1
Q 159.75 109.1 159.9 109.15
L 159.95 109.25 159.2 109.8
Q 159.05 109.9 158.65 110.1 157.85 110.55 157.25 110.75 156.85 110.85 156.4 110.95 155.8 111.1 155.5 111.15
L 150.85 112.25 150.8 112.15 152.2 111.5
Q 153.35 111 153.6 110.9 154.05 110.7 155.2 110.25
M 154.35 106.35
Q 155 106.2 156.3 105.9
L 157.25 105.65
Q 157.95 105.45 158.2 105.4 159 105.25 159.95 105.25 160.2 105.25 160.65 105.25 160.75 105.25 161.2 105.3 161.5 105.3 161.65 105.35
L 161.7 105.45
Q 161.55 105.55 161.25 105.7
L 160.1 106.2
Q 159.2 106.5 158.45 106.65 157.9 106.7 157.45 106.75
L 151.1 107.4 151.1 107.25 154.35 106.35 Z"/>

<path fill="#96395C" stroke="none" d="
M 130.3 90.2
Q 128.55 90.5 126.9 91.5 126 92.05 125.3 92.7 125.25 93.1 125.25 93.5 125.25 98 128.4 102.35 131.6 106.8 135.95 108.3 140.85 110 145.1 107.05 145.65 106.65 146.15 106.2 146.15 105.65 146.15 105.15
L 146.15 105.1 144.2 98.75
Q 143.6 97.7 142.8 96.65 142.05 95.65 141.3 94.85
L 136 91.05
Q 135.9 91 135.75 90.95 135.65 90.9 135.5 90.85 135.45 90.8 135.4 90.8 135.1 90.7 134.85 90.65
L 134.05 90.4
Q 132.1 89.9 130.3 90.2
M 130.4 92
Q 130.75 91.7 131.25 91.7 131.7 91.7 132.05 92 132.4 92.35 132.4 92.85 132.4 93.35 132.05 93.65 131.7 94 131.25 94 130.75 94 130.4 93.65 130.05 93.35 130.05 92.85 130.05 92.35 130.4 92
M 126.9 91.45
Q 128.5 90.45 130.25 90.2 126.95 89.7 124.1 91.45 120.45 93.75 120.1 98.05 119.8 101.95 122.2 106.1
L 120.25 109.85 125.55 110.45 125.55 110.4
Q 128.7 113.4 132.35 114.1 134.05 114.45 135.6 114.2 134.6 114.05 133.6 113.7 129.2 112.15 126.05 107.75 122.9 103.35 122.85 98.9 122.85 93.95 126.9 91.45
M 166.8 79.2
Q 165.05 77.1 163.35 75.95 162.8 75.55 162.25 75.25 159.75 73.9 158.1 74.85 156.85 75.6 156.8 77.4 157.1 76.5 157.9 76.05 158.0470703125 75.966015625 158.2 75.9 158.25 76 158.25 76.1 159 79.25 161.55 82.9 164.15 86.6 166.85 88.4 169.65 90.3 171.45 89.35 171.4 89.15 171.35 88.95 171.05 87.8 170.55 86.55 171.1 87.75 171.4 88.95 171.7 90.1 171.7 91.05 171.95 90.15 171.8 88.9 171.55 86.55 169.9 83.65
L 169.95 82.7 170.05 78.8 166.8 79.2
M 162.25 77.6
Q 162.6 77.95 162.6 78.45 162.6 78.95 162.25 79.25 161.9 79.6 161.45 79.6 160.95 79.6 160.6 79.25 160.25 78.95 160.25 78.45 160.25 77.95 160.6 77.6 160.95 77.3 161.45 77.3 161.9 77.3 162.25 77.6 Z"/>

<path fill="#C84B79" stroke="none" d="
M 174.85 106.85
L 172.3 108.8
Q 171.95 108.15 171.5 107.4 170.75 106.2 169.65 104.7
L 169.9 100.05 163.4 104.2 168.75 105.45
Q 169.7 106.8 170.4 107.95 170.9 108.8 171.3 109.55
L 170.1 110.5
Q 168.6 111.65 166.85 112.2 164.75 112.8 161.45 112.75 161.5 112.25 161.65 111.8 161.7 111.65 161.7 111.55 161.65 111.65 161.55 111.7 161.25 111.95 160.85 112.25
L 160.25 112.75
Q 160.1 114.05 160.2 115.45
L 161.4 115.35
Q 161.3 114.65 161.35 113.95
L 162 113.95
Q 165.05 113.95 167.1 113.35 169.1 112.8 170.85 111.45 172.35 110.3 174.05 108.95
L 175.55 107.85 174.85 106.85 Z"/>

<path fill="#FFD502" stroke="none" d="
M 167.85 67.7
Q 169.15 66.55 169.65 65.75 164.95 62.1 158 60.8 152.7 59.85 146.65 60.25 144.8 60.35 143.05 60.6
L 141.7 60.85
Q 138.8 61.25 135.95 62.15
L 133.65 63.05 142.05 57.95
Q 142.1 56.15 141.7 54.55 141.3 52.8 140.45 51.3 139.85 50.25 139.15 49.45
L 138.5 48.85 138.3 49.75
Q 138 50.9 137.5 52.05 136.55 54.15 135.1 55.9 133.25 58.15 130.65 59.55
L 125.15 62.55
Q 124.95 63.6 124.55 64.8 123 69.55 121.4 73.15 119.4 77.6 116.8 81.75 119.8 82.9 122.75 85.25 124.2 86.4 125.05 87.3 125.75 84.4 125.3 81.1 125.1 80.1 124.85 79.15
L 124.65 78.4
Q 124.15 76.8 123.55 75.65
L 123.1 74.85 126.7 78.4
Q 138.3 78.25 147.45 76.4 155.4 74.8 161.2 72 165.25 70.05 167.85 67.7 Z"/>
</g>
</defs>

<g transform="matrix( 1, 0, 0, 1, 0,0) ">
<use xlink:href="#Layer0_0_FILL"/>
</g>
</svg>
