<?xml version="1.0" encoding="UTF-8" standalone="no"?>
<svg
   xmlns:dc="http://purl.org/dc/elements/1.1/"
   xmlns:cc="http://creativecommons.org/ns#"
   xmlns:rdf="http://www.w3.org/1999/02/22-rdf-syntax-ns#"
   xmlns:svg="http://www.w3.org/2000/svg"
   xmlns="http://www.w3.org/2000/svg"
   viewBox="0 0 248.03751 248.03751"
   height="248.03751"
   width="248.03751"
   xml:space="preserve"
   version="1.1"
   id="svg2"><metadata
     id="metadata8"><rdf:RDF><cc:Work
         rdf:about=""><dc:format>image/svg+xml</dc:format><dc:type
           rdf:resource="http://purl.org/dc/dcmitype/StillImage" /></cc:Work></rdf:RDF></metadata><defs
     id="defs6" /><g
     transform="matrix(1.25,0,0,-1.25,0,248.0375)"
     id="g10"><g
       transform="scale(0.1,0.1)"
       id="g12"><path
         id="path14"
         style="fill:#000000;fill-opacity:1;fill-rule:evenodd;stroke:none"
         d="m 1611.69,521.637 c 4.25,0 7.09,0.281 8.79,0.281 l 144.28,-0.559 c 85.32,0 135.5,13.039 163.28,42.797 27.49,29.762 24.37,67.75 22.39,92.981 -4.54,59.242 -65.48,83.332 -88.44,90.422 -18.43,53.007 -79.65,70.871 -111.4,78.519 5.1,15.02 12.47,36.852 -1.14,56.129 -9.07,12.75 -23.24,18.992 -42.8,18.992 l -3.68,0 c -26.08,-0.851 -74.27,-18.711 -93.26,-79.371 -31.75,-12.469 -53.86,-37.699 -62.93,-70.582 -2.27,-8.789 -3.69,-18.148 -4.26,-28.066 -19.84,-11.051 -49.89,-38.262 -51.02,-101.192 -0.57,-26.371 8.22,-49.609 24.95,-66.621 28.63,-29.187 72,-33.73 95.24,-33.73" /><path
         id="path16"
         style="fill:#704a2c;fill-opacity:1;fill-rule:evenodd;stroke:none"
         d="m 1546.5,694.551 c 22.39,-58.68 89.01,-44.789 89.01,-44.789 -74.28,0.851 -71.15,71.718 -71.15,71.718 1.12,25.793 11.05,68.883 65.76,81.641 0,0 14.18,74.832 72.84,76.82 58.41,2.262 -15.58,-65.48 25.52,-74.839 38.27,-9.071 100.34,-22.961 112.82,-72 0.29,-1.129 0.29,-1.981 0.29,-3.122 1.98,-11.898 4.53,-57.82 -55.29,-61.789 0,0 70.88,-13.89 73.43,50.45 24.93,-7.649 68.88,-26.637 72,-67.457 4.53,-57.543 3.4,-109.133 -164.13,-108.571 -134.37,0.289 -152.5,0.571 -154.49,0.571 0,0 -104.31,-7.942 -102.9,72.847 0.86,48.762 20.7,69.449 36.29,78.52" /><path
         id="path18"
         style="fill:#9f6637;fill-opacity:1;fill-rule:evenodd;stroke:none"
         d="m 1711.76,778.176 c 0,0 -26.37,-0.852 -25.51,15.59 0.85,16.437 -1.14,32.316 -15.04,30.047 -12.75,-1.989 -27.48,-27.5 -30.03,-51.309 -37.99,-6.801 -60.66,-17.57 -72.57,-25.231 6.52,22.403 22.68,46.77 61.51,55.84 0,0 14.18,74.84 72.84,76.821 58.41,2.269 -15.58,-65.481 25.52,-74.829 35.72,-8.222 92.13,-21.261 109.41,-62.652 -22.1,13.039 -66.89,34.02 -126.13,35.723" /><path
         id="path20"
         style="fill:#543b27;fill-opacity:1;fill-rule:evenodd;stroke:none"
         d="m 1591.85,594.203 c 4.25,0 7.09,0 8.79,0.281 l 153.64,-0.558 c 88.44,-0.289 140.59,13.32 168.66,43.648 3.4,3.692 6.52,7.653 9.07,11.621 4.25,-56.691 1.13,-106.859 -164.41,-106.582 -134.36,0.282 -152.51,0.571 -154.49,0.571 0,0 -104.03,-7.938 -102.9,72.562 27.5,-18.422 61.8,-21.543 81.64,-21.543" /><path
         id="path22"
         style="fill:#000000;fill-opacity:1;fill-rule:nonzero;stroke:none"
         d="m 1374.43,697.953 c 96.66,46.488 95.24,94.68 92.13,187.942 l -0.29,9.918 c 0,3.968 -0.28,7.082 -0.56,9.07 -0.29,4.25 -0.57,6.801 0,9.922 2.55,10.488 8.22,14.457 18.99,11.91 11.05,-2.563 11.9,-8.512 13.32,-19 0.57,-2.551 0.85,-5.672 1.7,-9.07 0.85,-4.25 1.99,-9.633 3.12,-16.442 6.24,-33.449 12.19,-84.75 3.68,-130.961 0,-0.277 0,-0.57 -0.28,-1.129 -9.07,-48.761 -34.01,-91.558 -89.86,-103.468 l 0,-0.282 c -0.85,0 -2.26,-0.281 -4.25,-0.57 -4.82,-0.852 -9.35,0.57 -12.76,3.691 l -28.34,24.379 c -5.95,5.102 -6.52,14.168 -1.14,20.41 1.42,1.411 2.84,2.551 4.54,3.399" /><path
         id="path24"
         style="fill:#fdfdfd;fill-opacity:1;fill-rule:evenodd;stroke:none"
         d="m 1380.95,684.629 c 108.57,52.441 103.18,106.019 100.06,211.75 -0.28,11.34 -1.98,16.723 0,16.16 2.27,-0.289 1.99,-6.519 4.25,-17.301 11.91,-55.547 35.72,-215.148 -75.4,-235.269" /><path
         id="path26"
         style="fill:#d7d9d9;fill-opacity:1;fill-rule:evenodd;stroke:none"
         d="m 1099.47,551.117 c -1.42,4.25 -2.83,8.789 -3.68,13.039 -5.39,21.543 -7.66,42.524 -7.38,63.211 -0.85,-1.418 -2.26,-2.269 -3.96,-2.551 l -0.29,0 c -1.13,-0.277 -2.26,-0.277 -3.12,0.282 -0.85,0 -1.41,0.57 -2.26,1.14 -1.99,1.7 -3.12,4.25 -2.27,7.371 -26.93,-5.101 -49.04,0.278 -66.33,16.161 -0.85,-3.411 -1.42,-6.52 -2.55,-9.364 -0.85,-2.828 -2.84,-3.968 -4.82,-4.527 l -0.85,0 c -0.85,0 -1.987,0 -2.839,0.277 -0.848,0.282 -1.699,0.852 -2.258,1.422 -2.558,2.262 -1.992,7.93 -1.14,13.32 l -0.559,-0.851 c -0.293,-1.699 -1.141,-3.969 -1.422,-6.238 -8.219,-34.012 -18.14,-65.481 -31.469,-96.942 -2.832,-6.808 -6.23,-13.32 -9.07,-20.129 -3.121,-6.23 -5.949,-13.039 -8.219,-20.121 -2.55,-7.09 -4.531,-14.461 -6.23,-22.398 -1.422,-5.672 -2.27,-11.621 -3.41,-17.289 68.316,-11.621 131.246,-37.703 188.786,-78.801 16.44,10.488 34.87,18.711 54.71,24.379 10.2,3.109 20.98,5.672 32.6,7.371 l 0,1.129 c -20.98,8.219 -39.4,19.84 -55.28,34.301 -25.23,23.531 -44.22,55.558 -56.69,95.808" /><path
         id="path28"
         style="fill:#e8e8e8;fill-opacity:1;fill-rule:evenodd;stroke:none"
         d="m 1329.64,417.039 c -35.43,-6.238 -70.86,-5.668 -106.01,1.422 -3.11,0.559 -6.52,1.41 -9.63,1.699 -1.14,0.281 -1.7,0.281 -2.55,-0.289 -11.63,-1.699 -22.4,-4.25 -32.6,-7.371 52.15,-15.871 102.33,-14.449 150.79,4.539" /><path
         id="path30"
         style="fill:#f7f7f7;fill-opacity:1;fill-rule:evenodd;stroke:none"
         d="m 1409.87,447.938 c -0.85,-1.981 -1.7,-4.25 -2.27,-6.52 0.57,2.27 1.42,4.539 2.27,6.52 m -107.15,-197.86 c 36.85,41.098 58.39,49.039 104.03,74.27 63.5,34.871 39.97,97.507 5.39,124.437 44.22,93.832 57.54,192.473 -6.81,285.731 l 0.29,-0.278 c -41.67,81.641 -34.02,53.008 -91.84,109.981 l -26.08,35.719 -8.22,18.14 c -23.81,49.32 -56.13,88.16 -98.37,118.492 l 0.29,-0.28 -7.09,5.38 c 0.28,0 0.28,0 0.57,-0.28 l -44.22,44.79 c -76.82,80.5 -138.902,188.5 -218.844,273.26 -7.078,-24.38 -17.859,-31.47 -18.711,-33.45 -1.699,-4.54 1.704,-16.44 -20.968,-37.14 -20.981,-19.56 -33.449,-45.63 -81.36,-29.48 l -36.558,25.23 c -53.864,-37.98 -96.383,-54.42 -157.891,-7.09 l -39.121,41.67 c -15.879,-5.38 -26.078,-9.35 -44.219,-3.68 l 1.129,-17.58 -1.129,-0.56 c -33.453,-138.9 -102.621,-158.74 -70.3,-274.96 13.89,-48.763 19.269,-47.634 31.46,-119.341 l 0,1.418 c 0,-32.039 28.629,-78.52 50.739,-104.598 53.582,-62.371 134.082,-102.621 205.801,-136.07 19.839,-92.692 39.398,-71.43 41.667,-186.231 0.852,-47.621 -9.636,-110.269 -35.429,-143.152 -37.141,-47.617 -46.207,9.64 -90.149,-93.828 -5.101,-11.903 1.418,-49.039 33.45,-55.563 -1.418,-30.328 125.011,-48.469 164.128,-37.976 47.622,13.039 58.391,55.558 50.454,102.328 -8.5,50.742 -1.704,104.879 18.148,133.23 39.398,56.121 1.699,79.371 40.25,164.121 13.32,29.481 34.012,83.629 41.949,120.758 0.571,5.102 2.27,11.051 2.84,14.461 l 0,1.41 c 1.129,8.512 2.264,17.289 2.554,26.078 1.41,31.75 2.83,62.934 32.31,74.274 2.84,1.129 5.39,0 7.09,-1.981 l 0.28,0 c 0.57,-0.859 1.14,-1.422 1.42,-2.269 0.28,-0.852 0.28,-1.703 0.28,-2.551 0,-2.27 -1.13,-4.82 -3.68,-6.242 l -0.57,0 c -21.26,-8.219 -22.68,-35.43 -23.81,-63.207 -0.57,-12.762 -1.13,-25.512 -3.69,-37.141 17.86,-16.152 37.42,-22.39 66.34,-16.723 1.13,3.68 2.55,6.801 3.68,9.922 l 0.28,0 0,0.282 c 7.09,15.589 15.59,30.898 26.37,45.636 10.48,14.743 22.67,29.481 37.13,43.942 0.85,0.851 1.42,1.699 2.27,2.551 0.85,0.847 1.7,1.417 2.27,2.269 1.13,1.129 2.55,2.27 3.68,3.398 l 0,-0.277 0,0.277 c 1.42,1.133 3.12,2.274 4.54,3.403 2.83,1.988 5.38,1.699 7.65,0 1.13,-0.852 1.7,-1.699 2.27,-2.832 0.28,-0.848 0.56,-1.988 0.56,-2.84 l 0,-0.277 c 0.29,-2.84 -1.13,-5.391 -4.25,-6.243 -0.56,-0.281 -4.53,-4.25 -7.08,-6.8 -0.57,-0.571 -0.85,-1.129 -1.71,-1.989 l -0.28,-0.281 c -13.89,-13.891 -25.79,-28.058 -36,-41.949 l 0,-0.57 c -10.2,-14.168 -18.42,-28.34 -25.23,-43.09 l 0,-0.282 c -1.13,-2.546 -2.26,-5.378 -3.12,-8.5 -0.28,-0.57 -0.56,-1.417 -1.13,-1.988 -1.42,-95.808 57.54,-195.301 135.21,-208.91 35.15,-7.09 70.59,-7.648 106.02,-1.422 -48.47,-18.988 -98.65,-20.406 -150.8,-4.527 -10.21,0.277 -61.8,-23.531 -77.39,-43.66 -18.14,-23.243 -11.05,-28.34 12.19,-25.512 28.35,3.691 1.98,-7.938 -10.77,-33.449 -11.06,-21.258 34.58,-56.969 64.34,-30.61 17.86,15.871 27.78,32.309 9.64,-12.468 -31.18,-77.672 104.03,-53.301 125.86,-16.731" /><path
         id="path32"
         style="fill:#000000;fill-opacity:1;fill-rule:nonzero;stroke:none"
         d="m 1181.68,281.828 0.28,-0.281 0.57,-0.289 c 0,0 -0.28,0.289 -0.85,0.57 m 228.19,166.11 c -0.85,-1.981 -1.7,-4.25 -2.27,-6.52 0.57,2.27 1.42,4.539 2.27,6.52 m -378.71,188.789 c -2.55,0.851 -4.54,1.699 -6.8,2.832 16.44,-9.352 35.43,-11.051 62.36,-3.68 l 1.98,0.559 c 0,-3.11 -0.28,-6.231 -0.28,-9.352 l 0,-9.348 c 0.28,-1.422 0.28,-2.84 0.28,-4.261 l 0,-0.559 c 0,-1.141 0,-2.551 0.29,-3.691 l 0,-0.848 c 0,-1.422 0.28,-2.551 0.28,-3.973 l 0,-0.847 c 0.28,-1.133 0.28,-2.274 0.28,-3.68 l 0.29,-1.141 0.28,-3.109 0.28,-1.711 0.29,-3.109 0.28,-1.422 0.57,-2.84 0.28,-2.262 0.29,-2.269 0.56,-2.27 0.29,-2.551 0.56,-1.976 0,-0.293 0.29,-1.41 0,-0.289 0.56,-2.27 0.29,-1.41 0.28,-1.418 0.57,-2.274 0,-0.277 0.28,-1.14 0.85,-3.403 0.28,-1.129 1.14,-3.398 0.28,-1.422 0.85,-2.551 0.29,-1.137 c 2.55,-7.929 5.1,-15.871 8.5,-23.242 l 0,-0.277 c 0.57,-1.422 0.85,-2.551 1.42,-3.691 l 0.56,-0.852 c 0.29,-1.129 0.85,-2.27 1.42,-3.398 l 0.57,-0.852 c 0.28,-1.129 0.85,-2.27 1.42,-3.398 l 0,-0.29 0.28,0 0,-0.281 1.7,-3.398 0,-0.281 0.28,-0.29 1.7,-3.402 0.57,-0.848 c 0.57,-1.132 1.13,-1.98 1.7,-3.121 l 0,-0.281 0.28,-0.277 c 0.57,-1.141 1.14,-2.274 1.71,-3.121 l 0.56,-0.852 1.7,-3.117 0.29,-0.281 0,-0.289 c 0.85,-1.133 1.41,-2.274 1.98,-3.121 l 0.57,-0.559 c 0.56,-1.141 1.13,-2.274 1.98,-3.402 l 0.29,-0.571 c 0.85,-0.847 1.41,-1.988 2.26,-3.121 l 0,-0.277 2.55,-3.403 c 0.85,-1.136 1.71,-2.269 2.56,-3.41 l 0.28,-0.277 c 0.57,-1.133 1.42,-1.98 2.27,-3.121 l 0,-0.281 c 0.85,-0.848 1.7,-1.989 2.55,-3.118 l 0.28,-0.281 c 18.71,-22.679 41.39,-39.969 66.33,-48.191 l 0.29,0 1.13,-0.571 0.28,0 1.99,-0.57 0.28,0 1.13,-0.558 0.29,0 c 0.85,-0.289 1.42,-0.289 2.27,-0.571 l 0.28,0 0.57,-0.277 0.28,0 c 1.13,-0.293 1.98,-0.57 2.83,-0.57 l 0.29,-0.282 0.28,0 c 1.14,-0.289 2.27,-0.289 3.4,-0.57 l 1.7,-0.281 0.57,-0.289 c 34.3,-6.52 68.88,-6.801 103.75,-0.852 -38.84,-15.019 -78.8,-18.988 -119.91,-11.898 l -0.85,0 -0.56,0.281 -0.29,0 -1.98,0.277 -0.57,0.293 -0.57,0 -0.85,0.278 -0.85,0 -0.56,0.281 -0.85,0 -0.57,0.289 -1.13,0 -0.29,0.281 -0.57,0 -0.56,0.281 -0.85,0 -1.99,0.571 -0.56,0 -1.7,0.566 -0.57,0 -1.99,0.57 -1.98,0.563 -0.57,0 -0.28,0.289 -0.57,0 -0.56,0.281 -0.29,0 -0.56,0.278 -1.99,0.57 -0.57,0 -0.28,0.281 -1.7,0.289 -0.28,0.282 -0.57,0 -0.57,0.281 -1.41,0.289 c -5.11,0 -20.7,-5.961 -36.86,-14.18 l -0.56,-0.281 -0.57,-0.281 -0.28,-0.289 -0.57,-0.282 -0.57,-0.277 -0.28,-0.289 -0.28,0 -0.29,-0.281 -0.56,-0.282 -0.29,-0.289 -0.28,0 -0.57,-0.281 -0.56,-0.277 -0.29,-0.293 -0.56,-0.278 -0.57,-0.281 -0.29,-0.289 -0.28,0 -0.28,-0.281 -0.57,-0.281 -1.13,-0.571 -0.57,-0.289 -0.28,-0.277 -0.57,-0.281 -0.57,-0.289 -0.28,-0.282 -0.28,0 -0.29,-0.281 -0.56,-0.289 -0.29,-0.281 -0.28,0 -0.28,-0.278 -0.57,-0.293 -0.29,-0.277 -0.28,0 -0.57,-0.57 -0.28,-0.281 -0.57,0 0,-0.282 -0.56,-0.289 -0.29,-0.277 -0.56,-0.281 -0.57,-0.289 -0.28,-0.282 -0.57,-0.281 -0.57,-0.289 -0.28,-0.281 -0.57,-0.278 -0.56,-0.57 -0.29,-0.293 -0.85,-0.558 -0.57,-0.289 -0.28,-0.282 -0.28,0 -0.29,-0.277 -0.56,-0.293 -0.29,-0.277 -0.56,-0.571 -0.29,-0.281 -0.56,-0.281 -0.29,-0.289 -0.56,-0.282 -0.85,-0.57 -0.29,-0.277 -0.85,-0.852 -0.57,-0.277 -0.28,-0.293 -0.28,-0.277 c -4.25,-3.403 -7.94,-6.801 -10.49,-10.211 -18.14,-23.243 -11.06,-28.34 12.19,-25.512 28.34,3.691 1.98,-7.938 -10.77,-33.449 -11.06,-21.258 34.58,-56.969 64.34,-30.61 17.86,15.871 27.78,32.309 9.64,-12.468 -31.18,-77.672 104.03,-53.293 125.86,-16.731 36.85,41.098 58.39,49.039 104.03,74.27 63.5,34.871 39.97,97.507 5.39,124.437 44.22,93.832 57.54,192.473 -6.81,285.731 l 0.29,-0.278 -0.29,0.278 c -41.38,81.363 -34.01,52.73 -91.56,109.703 l -26.07,35.719 -8.22,18.14 c -23.82,49.32 -56.13,88.16 -98.37,118.492 l 0.29,-0.28 -7.09,5.38 c 0.28,0 0.28,0 0.57,-0.28 l -44.22,44.79 c -76.82,80.5 -138.902,188.5 -218.844,273.26 -7.078,-24.38 -17.859,-31.47 -18.707,-33.45 -1.703,-4.54 1.7,-16.44 -20.972,-37.14 -20.981,-19.56 -33.449,-45.63 -81.36,-29.48 l -36.558,25.23 c -53.86,-37.98 -96.379,-54.42 -157.891,-7.08 l -39.121,41.66 c -15.879,-5.38 -26.078,-9.35 -44.219,-3.68 l 1.129,-17.58 -1.129,-0.56 c -33.449,-138.9 -102.621,-158.74 -70.3,-274.96 12.468,-43.943 18.14,-47.341 28.058,-100.072 9.922,-20.691 20.692,-41.101 30.902,-61.512 9.348,-18.14 20.969,-35.711 31.75,-48.468 8.5,-10.2 37.7,-38.27 65.758,-63.782 22.391,-20.128 43.942,-38.269 53.012,-43.371 7.371,-4.25 15.309,-8.789 23.531,-13.039 l 0.848,-0.277 c 9.351,-5.113 18.141,-9.363 26.641,-13.332 1.992,-1.129 3.691,-2.551 5.101,-3.961 7.367,-3.688 15.027,-7.367 22.399,-10.777 19.839,-92.692 39.402,-71.43 41.671,-186.231 0.848,-47.621 -9.64,-110.269 -35.441,-143.152 -37.129,-47.617 -46.199,9.64 -90.141,-93.828 -5.097,-11.903 1.422,-49.039 33.45,-55.563 -1.418,-30.328 125.011,-48.469 164.132,-37.976 47.618,13.039 58.387,55.558 50.45,102.328 -8.5,50.742 -1.7,104.879 18.148,133.23 l 1.699,2.551 c 0.563,0.848 1.133,1.699 1.703,2.551 l 1.7,2.547 c 0.281,0.851 0.847,1.703 1.418,2.269 0.562,0.852 0.851,1.703 1.41,2.551 0.293,0.852 0.851,1.699 1.14,2.269 0.563,0.852 0.852,1.704 1.129,2.551 0.571,0.852 0.852,1.422 1.133,2.27 0.57,0.851 0.848,1.41 1.141,2.262 0.277,0.847 0.566,1.71 0.847,2.269 0.282,0.852 0.571,1.422 0.852,2.27 0.277,0.851 0.57,1.421 0.848,2.269 0.281,0.852 0.57,1.41 0.851,2.27 0,0.562 0.281,1.41 0.57,1.98 0.282,0.852 0.282,1.422 0.559,2.27 0.289,0.851 0.289,1.41 0.57,2.261 0,0.571 0.282,1.418 0.282,1.989 l 0.57,2.269 0.277,1.981 0.293,1.992 0.278,2.258 0.281,1.992 0.289,2.258 0,1.992 0.281,1.98 0,4.258 0.289,2.262 0,13.039 0.281,2.269 0,6.801 0.282,2.551 0,4.539 0.289,0.281 0,2.84 0.277,1.418 0,1.981 0.281,0.57 0,0.851 c 0,0.848 0,1.7 0.289,2.547 l 0,1.133 0.282,0.848 0,1.422 0.281,0.57 0,1.41 c 0.289,0.848 0.289,1.988 0.57,2.84 l 0,0.57 0.278,0.848 0,0.852 0.293,0.558 0,0.57 0.277,0.852 0,0.848 0.281,0.57 c 0,1.133 0.289,1.98 0.57,3.121 0.282,0.852 0.282,1.981 0.571,2.828 0.277,1.133 0.558,2.274 0.847,3.121 0.282,1.129 0.563,2.27 0.852,3.121 0.281,1.129 0.57,2.258 0.852,3.399 0.277,0.851 0.57,1.98 0.847,3.121 0.571,1.129 0.852,2.262 1.129,3.398 0.57,1.133 0.852,2.274 1.141,3.403 0.562,1.129 0.851,2.269 1.41,3.679 0.293,1.141 0.851,2.27 1.141,3.411 0.558,1.41 1.128,2.55 1.421,3.679 0.559,1.418 1.129,2.551 1.7,3.969 0.558,1.133 1.129,2.551 1.699,3.68 0.558,1.14 1.129,2.562 1.699,3.691 l 0,0.281 0.563,1.7 0.847,1.699 0.289,0.859 0.282,0.281 0.289,0.571 0.281,0.847 0,0.282 0.57,0.851 0.281,0.57 0,0.278 0.571,0.851 0,0.571 0.277,0.558 0.57,0.86 0,0.281 0.282,0.851 0.281,0.848 0.289,0 0.277,1.133 0.282,0.566 0.289,0.282 0.281,1.14 0,0.281 0.57,0.848 0.281,0.852 0,0.289 0.571,0.851 0.277,0.559 0,0.57 0.57,1.129 0,0.289 0.571,0.852 0.281,0.851 0,0.278 0.57,1.132 0.278,0.571 0,0.566 0.57,1.133 0.562,1.141 0.289,0.847 0,0.282 0.559,1.128 0.289,0.571 0,0.57 0.563,1.129 0.57,1.141 0.277,0.851 0,0.277 0.571,1.133 0.281,0.571 0,0.847 0.57,1.129 0.57,1.141 0.282,1.133 0.566,1.418 0.281,0.57 0.289,0.558 0.282,1.141 0,0.281 0.57,0.852 0.281,1.137 0,0.281 0.571,1.129 0.277,0.57 0.281,0.852 0.289,1.129 0.281,0.289 0.282,0.851 0.289,1.129 0.277,0.281 0.281,1.141 0.289,0.57 0.282,0.848 0.57,1.41 0.281,0.852 0.289,1.14 0.282,0.278 0.277,1.132 0.293,0.86 0.277,0.558 0.281,1.141 0.29,0.281 0.558,2.27 0.57,1.41 0.282,0.57 0,0.571 0.57,1.418 0.281,1.128 0.571,1.133 0,0.289 0.277,1.129 0.293,0.571 0.558,1.98 0.29,0.289 0.281,0.852 c 5.668,17 10.211,33.73 13.039,47.621 l 0,0.277 0.281,0.281 0,0.289 c 0.57,3.68 1.418,7.653 1.707,11.051 l 0.852,-0.851 0.281,-0.278 0,-0.281 0.277,-0.289 c 9.924,-11.621 20.134,-20.121 31.754,-24.941 m 80.22,-239.809 c 5.1,3.398 10.77,6.801 16.16,9.918 15.02,8.5 31.46,15.312 42.23,18.422 -22.11,14.738 -41.38,36 -56.97,60.949 -23.53,37.981 -37.99,85.039 -39.12,132.09 -15.59,-2.27 -29.2,-1.41 -41.67,2.551 -0.28,0 -0.57,0 -0.85,0.289 -8.79,2.832 -16.72,7.082 -24.09,12.75 -2.56,-10.77 -6.24,-22.668 -10.211,-34.578 -9.351,-28.911 -21.543,-58.961 -30.332,-78.524 -10.199,-22.957 -14.738,-41.097 -16.718,-56.406 57.821,-11.902 111.681,-34.301 161.571,-67.461 M 529.137,215.219 c -11.328,-1.992 -23.239,-2.274 -34.86,0 -1.14,0 -2.55,0.558 -3.687,0.847 -0.563,0.282 -1.133,0.563 -1.41,0.852 -0.293,0 -0.571,0 -1.141,0.277 -17.57,3.973 -54.992,16.442 -71.43,22.961 -17.011,6.801 -32.601,15.59 -39.691,23.813 -3.109,3.969 -6.801,6.519 -9.922,8.789 -9.348,6.519 -16.437,11.621 -18.988,29.758 -3.121,23.25 2.551,47.91 15.871,67.472 12.48,18.141 31.75,31.75 56.699,36 13.32,2.547 25.512,10.77 36.281,22.957 12.758,13.891 23.25,33.16 31.469,54.711 1.981,11.903 3.11,23.52 3.68,35.43 1.422,32.312 -2.551,64.91 -12.758,98.93 -9.07,24.66 -17.004,50.172 -22.672,76.25 -9.64,43.652 -12.469,88.441 -4.539,132.382 l 1.988,9.637 c 1.7,9.922 2.551,14.172 2.551,16.153 0.281,1.417 0.281,2.839 0,5.109 0,3.969 -0.289,10.199 0,23.808 l 0,1.411 c 0,2.839 0.559,5.39 1.422,7.66 -7.094,39.679 -11.91,53.57 -17.863,71.152 -3.117,9.641 -6.809,20.117 -11.34,35.707 0,0.57 -0.289,0.863 -0.289,1.422 -21.262,75.973 -2.262,113.103 23.82,164.133 15.59,30.05 33.442,65.19 46.199,117.64 0,0.85 0.282,1.41 0.571,1.98 l -0.852,11.62 c -0.289,1.99 0,3.69 0.563,5.67 2.269,7.65 10.488,11.91 18.429,9.64 13.321,-3.97 21.539,-1.13 34.301,3.12 l 0.57,0.28 c 5.379,1.7 11.618,0.57 15.868,-3.97 l 38.269,-40.53 c 26.934,-20.41 49.32,-27.22 70.301,-24.95 21.82,2.55 43.652,15.03 68.312,32.32 5.098,3.97 12.469,4.53 17.86,0.56 l 34.578,-23.81 c 29.769,-9.07 41.672,3.12 54.141,16.44 3.41,3.12 6.519,6.52 10.781,10.49 13.89,13.04 15.019,20.41 15.59,24.95 0.281,2.55 0.558,4.53 1.699,7.37 1.129,2.83 2.551,3.97 4.531,6.23 2.551,2.55 8.789,9.07 13.609,24.66 0.571,2.84 1.981,5.39 4.25,7.37 5.95,5.39 15.309,5.11 20.692,-0.85 40.539,-42.8 76.258,-91.27 111.69,-139.18 34.86,-47.34 69.16,-94.11 107.15,-133.79 l 43.37,-43.94 4.82,-3.97 0.28,0 c 22.11,-15.87 41.67,-34.014 58.68,-54.713 17.01,-20.411 31.46,-43.079 43.65,-68.309 0.28,-0.57 0.57,-0.852 0.57,-1.141 l 7.65,-17 24.66,-33.742 c 17.29,-17 28.63,-26.066 37.14,-32.59 20.69,-16.726 26.93,-21.547 55.84,-78.808 33.73,-49.039 47.05,-99.489 46.2,-150.231 -0.85,-47.058 -13.89,-93.828 -34.3,-139.179 7.38,-7.372 14.18,-16.161 19.56,-25.801 7.09,-13.039 11.63,-28.059 11.91,-43.09 0,-15.867 -4.54,-31.457 -15.87,-45.918 -7.37,-9.641 -17.86,-18.422 -31.47,-26.082 -7.09,-3.68 -12.75,-6.801 -17.86,-9.629 -0.28,-0.289 -0.56,-0.289 -0.85,-0.57 -32.31,-17.008 -51.59,-27.5 -80.79,-60.102 -13.6,-20.687 -54.7,-37.699 -89.57,-39.957 -11.91,-0.851 -23.24,0 -33.17,2.828 -11.33,3.121 -20.97,9.071 -27.21,17.86 -6.52,9.351 -9.07,21.261 -5.95,36 -8.79,-2.84 -18.14,-3.118 -26.65,-1.418 -9.07,1.699 -17.29,5.668 -24.37,10.769 -7.09,5.11 -13.04,11.629 -16.73,18.43 -5.1,9.922 -6.23,20.691 -1.42,30.609 2.27,4.539 5.11,8.789 7.66,12.481 -7.94,0.851 -13.89,3.961 -17.58,9.922 -5.95,9.347 -3.12,21.539 9.64,38.257 l 0.57,0.571 c 2.55,3.398 5.67,6.519 9.35,9.922 -22.96,15.027 -46.49,27.5 -71.15,37.699 -25.51,10.769 -52.161,19 -79.372,24.66 -0.281,-5.66 -0.559,-10.77 -0.559,-15.59 -0.293,-26.07 -0.57,-48.18 -22.972,-79.93 -8.5,-12.191 -14.449,-30.332 -17.289,-51.312 -2.828,-22.109 -2.551,-47.059 1.699,-71.148 4.543,-27.782 3.121,-54.711 -7.649,-76.25 -9.64,-20.129 -26.929,-35.153 -53.57,-42.52 -11.91,-3.121 -30.332,-4.25 -50.738,-3.121 -25.524,1.422 -54.711,5.672 -78.524,12.469 -24.668,7.089 -44.218,17.293 -51.027,30.902 -0.562,0.277 -1.133,0.57 -1.98,0.848 -15.313,6.519 -24.95,18.711 -30.332,31.472 -5.11,12.18 -6.239,25.508 -4.25,34.289 0.281,2.27 0.851,4.258 1.703,6.239 29.758,69.73 47.047,73.992 65.758,78.519 7.089,1.981 14.742,3.692 26.359,18.434 10.492,13.316 18.141,32.879 23.531,54.418 6.52,26.359 9.352,55.281 8.789,79.648 -1.418,67.75 -8.789,85.891 -18.711,110.274 -6.238,15.879 -13.609,33.726 -20.976,66.328 l -5.953,2.84 c 0.281,-14.18 -1.129,-25.801 -3.969,-36.848 -3.68,-13.043 -9.352,-24.953 -17.57,-39.691 0,-0.282 -0.29,-0.559 -0.29,-0.852 -16.16,-29.481 -31.46,-63.488 -43.371,-97.508 -11.621,-32.031 -20.41,-64.062 -24.66,-91.84 l -1.699,-11.062 c -2.551,-16.16 -2.828,-18.141 1.129,-41.949 1.141,-7.09 1.141,-14.168 -0.277,-21.258 -3.403,-19.281 -15.313,-37.981 -32.313,-52.442 -16.449,-13.89 -37.418,-24.379 -59.82,-28.058" /><path
         id="path34"
         style="fill:#f7f7f7;fill-opacity:1;fill-rule:evenodd;stroke:none"
         d="m 496.824,229.387 c 55.563,-9.918 117.641,39.679 109.981,85.32 -5.098,30.332 -3.68,28.633 0.859,57.262 8.781,58.961 37.41,135.777 69.441,194.168 15.59,28.07 21.833,45.359 19.559,79.371 -18.707,9.082 -36,17.859 -52.148,27.219 -22.68,13.043 -106.301,91.269 -122.461,110.261 -21.258,25.52 -47.617,67.192 -52.438,99.5 l -0.293,0 c -0.847,-41.101 4.821,-17.859 -2.547,-58.39 -15.3,-84.192 11.059,-171.5 46.207,-248.321 -7.66,16.442 -14.457,32.602 -20.129,48.192 21.833,-72.571 17.29,-138.903 -6.519,-208.352 7.66,21.832 13.039,43.66 16.73,64.922 -17.011,-45.359 -44.218,-81.922 -79.941,-88.73 -43.648,-7.653 -65.48,-49.321 -60.379,-87.59 2.27,-18.711 13.32,-16.442 25.801,-31.18 11.34,-13.601 62.078,-31.461 80.777,-32.312 7.942,-8.789 28.352,-9.637 27.5,-11.34" /><path
         id="path36"
         style="fill:#000000;fill-opacity:1;fill-rule:nonzero;stroke:none"
         d="m 1092.67,637.859 c -1.13,-2.55 -2.27,-5.39 -3.12,-8.5 -0.85,-2.558 -2.83,-4.261 -5.1,-4.539 l -0.28,0 c -1.14,-0.281 -2.27,-0.281 -3.12,0.278 -0.85,0 -1.42,0.57 -2.27,1.14 -1.98,1.7 -3.12,4.25 -2.27,7.371 1.14,3.68 2.55,6.801 3.69,9.918 l 0.28,0 0,0.282 c 7.09,15.589 15.59,30.902 26.36,45.64 10.49,14.739 22.68,29.481 37.14,43.942 0.85,0.847 1.41,1.699 2.26,2.547 0.86,0.851 1.71,1.421 2.27,2.273 1.14,1.129 2.55,2.258 3.69,3.398 l 0,-0.289 0,0.289 c 1.41,1.129 3.12,2.27 4.53,3.399 2.84,1.98 5.39,1.703 7.66,0 1.13,-0.848 1.7,-1.699 2.26,-2.84 0.29,-0.848 0.57,-1.98 0.57,-2.828 l 0,-0.281 c 0.28,-2.84 -1.13,-5.391 -4.25,-6.239 -0.57,-0.281 -4.54,-4.25 -7.09,-6.8 -0.56,-0.571 -0.85,-1.141 -1.7,-1.993 l -0.28,-0.277 c -13.89,-13.891 -25.8,-28.062 -36,-41.949 l 0,-0.571 c -10.21,-14.171 -18.43,-28.351 -25.23,-43.089" /><path
         id="path38"
         style="fill:#000000;fill-opacity:1;fill-rule:nonzero;stroke:none"
         d="m 1013.87,687.465 c -0.85,-16.442 -1.42,-33.168 -6.24,-47.059 -0.85,-2.832 -2.83,-3.961 -4.82,-4.531 l -0.85,0 c -0.85,0 -1.983,0 -2.831,0.281 -0.852,0.289 -1.703,0.848 -2.274,1.418 -4.25,3.973 0.293,18.711 1.141,25.231 1.133,8.5 2.264,17.57 2.554,26.64 1.41,31.75 2.83,62.93 32.31,74.27 2.84,1.14 5.39,0 7.09,-1.981 l 0.28,0 c 0.57,-0.847 1.14,-1.418 1.42,-2.269 0.28,-0.852 0.28,-1.699 0.28,-2.551 0,-2.269 -1.13,-4.82 -3.68,-6.238 l -0.57,0 c -21.26,-8.223 -22.68,-35.43 -23.81,-63.211" /><path
         id="path40"
         style="fill:#000000;fill-opacity:1;fill-rule:nonzero;stroke:none"
         d="m 704.324,798.867 c -2.832,-22.679 -5.672,-44.789 3.68,-86.738 l 25.801,-80.793 c 0.566,-2.27 -0.282,-4.82 -2.274,-5.949 l -3.117,-1.418 c -1.98,-1.133 -4.531,0 -5.383,2.269 -38.269,94.11 -34.297,133.508 -30.617,173.758 2.559,25.231 5.109,51.031 -3.68,92.41 -0.57,2.551 0.848,5.11 3.118,5.391 l 3.402,0.851 c 2.269,0.571 4.527,-0.851 5.098,-3.402 9.921,-47.617 6.8,-72.289 3.972,-96.379" /><path
         id="path42"
         style="fill:#000000;fill-opacity:1;fill-rule:nonzero;stroke:none"
         d="m 759.316,158.805 0,-0.282 m 1.981,-14.46 c 1.137,-4.25 2.84,-7.938 5.387,-11.618 l 0.281,-0.293 c 0.851,-1.41 1.14,-2.828 1.14,-4.527 l 0,-0.57 c 0,-1.7 -0.851,-3.403 -2.269,-4.532 l 0,-0.289 -0.281,0 -0.289,-0.281 c -1.129,-0.848 -2.27,-1.129 -3.68,-0.848 -1.141,0.278 -2.27,0.571 -3.121,1.7 -0.281,0 -0.281,0.281 -0.57,0.57 l -0.282,0 0,0.277 c -3.398,5.102 -5.949,10.493 -7.648,16.161 -1.711,5.953 -2.559,12.191 -2.559,18.71 -0.281,3.403 0,7.082 0.289,10.77 0.282,3.68 0.852,7.371 1.7,11.051 0.281,1.422 0.57,2.269 0.851,3.398 l 0,0.293 0.277,1.129 0.293,0.57 0,0.571 c 0,0.281 0,0.558 0.278,0.558 l 0,0.289 c 3.402,9.922 8.793,18.711 15.59,26.364 6.519,7.648 14.742,13.886 24.66,19.558 l 0.281,0 0.289,0.281 0.281,0 c 1.141,0.571 2.551,0.571 3.969,0 1.133,-0.281 1.981,-1.132 2.84,-2.269 0.281,-0.281 0.281,-0.563 0.562,-0.852 l 0,-0.558 c 0.848,-1.422 0.848,-3.121 0.571,-4.821 l -0.282,-0.292 c -0.289,-1.7 -1.421,-3.11 -2.839,-3.958 -8.789,-4.82 -16.161,-10.492 -21.832,-17.011 -5.668,-6.239 -9.918,-13.328 -12.75,-21.551 l -0.289,-0.848 0,-0.281 -0.559,-1.422 -0.289,-1.129 0,-0.847 c 0,-0.282 -0.281,-0.571 -0.281,-0.571 -0.571,-3.402 -1.129,-6.519 -1.422,-9.351 -0.278,-3.121 -0.278,-5.961 -0.278,-8.789 l 0,-0.571 c 0,-5.101 0.571,-9.629 1.981,-14.171" /><path
         id="path44"
         style="fill:#000000;fill-opacity:1;fill-rule:nonzero;stroke:none"
         d="m 684.195,171.277 c -0.277,-0.57 3.403,-26.363 -9.347,-17.293 -8.219,5.954 -2.563,32.883 -1.422,42.524 3.402,29.476 21.262,47.898 47.34,62.93 3.402,2.269 7.371,0.277 9.07,-2.84 7.652,-14.172 -37.418,-15.024 -43.09,-62.364" /><path
         id="path46"
         style="fill:#000000;fill-opacity:1;fill-rule:nonzero;stroke:none"
         d="m 393.363,297.133 0,0 m -1.98,-12.758 c -0.289,-3.961 -0.289,-8.223 0.558,-12.473 0.571,-2.828 -0.558,-5.097 -2.257,-6.519 -1.141,-1.129 -2.563,-1.699 -4.262,-1.699 -1.41,0 -2.828,0.57 -4.25,1.699 -1.699,1.422 -3.117,4.543 -3.117,9.359 -0.563,18.422 2.84,35.153 9.636,50.453 6.801,15.028 17.293,28.348 31.18,39.969 l 0.293,0.281 c 2.258,1.707 4.809,1.707 6.801,0.86 0.277,-0.289 0.277,-0.289 0.566,-0.289 0.852,-0.571 1.41,-1.133 1.981,-1.981 0.281,-0.293 0.851,-0.851 0.851,-1.699 l 0.282,0 0,-0.293 c 0.847,-2.551 0.57,-5.379 -1.981,-7.648 -9.641,-7.653 -17.293,-16.442 -22.961,-26.082 -5.672,-9.637 -9.64,-19.84 -11.34,-31.18 l -0.281,0 c -0.57,-4.25 -1.418,-8.219 -1.699,-12.758" /><path
         id="path48"
         style="fill:#fdfdfd;fill-opacity:1;fill-rule:evenodd;stroke:none"
         d="m 395.914,1699.72 c -22.961,7.37 -53.012,6.52 -70.019,10.49 -74.262,17.57 -85.321,9.35 -163.551,-92.41 -7.66,-9.92 -16.16,-11.62 -20.699,-18.99 -9.352,-15.03 -8.79,-47.91 -15.872,-67.75 -1.699,-6.24 -3.398,-12.76 -4.82,-19.28 4.82,3.12 7.652,-1.7 13.039,2.27 11.344,8.79 24.942,28.91 36.571,36.57 8.781,10.49 14.453,20.69 21.261,18.71 21.539,-5.67 58.668,-44.51 82.199,-58.96 22.961,-19.28 40.25,-47.06 53.29,-57.83 6.8,18.14 13.613,54.42 20.41,72.57 11.062,31.74 22.113,63.49 33.172,95.24 13.597,19.28 27.21,38.27 40.82,57.26 0.848,7.09 1.41,13.89 2.258,20.98 -9.071,0.28 -18.418,0.85 -28.059,1.13" /><path
         id="path50"
         style="fill:#fdfdfd;fill-opacity:1;fill-rule:evenodd;stroke:none"
         d="m 802.684,1787.88 c 77.39,104.3 157.32,122.73 282.906,22.96 7.64,-6.25 7.36,-18.71 15.3,-26.94 7.66,-7.09 15.02,-14.17 22.4,-21.26 11.89,-9.07 23.8,-18.14 35.71,-27.21 23.82,-64.91 -28.34,-34.87 -65.2,-11.91 -43.09,11.91 -55.84,7.94 -94.105,-11.05 -5.672,-5.95 -11.34,-12.18 -17.011,-18.43 -7.649,-19.56 -13.61,-43.93 -23.528,-61.5 -2.832,-5.11 -9.351,0.84 -15.59,-0.86 -5.953,-1.7 -132.382,17.59 -132.382,17.59 -16.438,17.28 -33.161,34.86 -49.887,52.43 -5.102,16.16 -12.75,40.82 -15.024,49.04 -2.546,8.22 53.582,34.3 56.411,37.14" /><path
         id="path52"
         style="fill:#fdfdfd;fill-opacity:1;fill-rule:evenodd;stroke:none"
         d="m 765.836,1791.56 c -137.762,22.96 -252.281,-7.65 -366.801,-80.22 -60.101,-85.61 -110.551,-154.21 -104.031,-261.07 3.68,-72.85 82.199,-129.83 106.012,-186.24 30.898,-73.41 59.808,-56.97 111.121,-110.83 49.609,-47.62 55.269,-68.03 121.039,-80.51 27.488,-0.28 54.711,-0.56 82.199,-0.85 70.59,10.78 95.25,18.71 151.941,58.96 56.129,53.3 77.95,80.79 98.36,155.06 -1.699,45.92 -0.563,91.84 22.398,137.48 8.223,55.84 7.371,138.9 -17.301,200.69 -6.226,15.88 -9.07,32.32 -19.839,44.51 -47.047,52.44 -132.09,114.23 -185.098,123.02" /><path
         id="path54"
         style="fill:#70706f;fill-opacity:1;fill-rule:evenodd;stroke:none"
         d="m 881.203,1147.81 c -18.707,-11.06 -92.687,38.27 -94.109,66.61 -0.571,-1.13 -18.43,-29.19 -49.61,-46.48 -18.418,-10.21 -46.48,-11.06 -64.629,-15.31 -15.019,-3.69 -28.91,-3.69 -38.55,2.55 -1.981,-27.5 -2.551,-52.44 -32.309,-70.58 13.039,-3.69 27.207,-15.31 48.469,-14.74 66.609,1.98 163.558,44.22 230.738,77.95" /><path
         id="path56"
         style="fill:#000000;fill-opacity:1;fill-rule:evenodd;stroke:none"
         d="m 615.031,1006.64 c 7.653,26.09 12.473,34.59 23.532,56.41 -20.411,3.98 -56.7,20.14 -75.969,36 -0.852,-18.98 1.699,-36 9.066,-51.01 6.242,-13.04 28.352,-39.69 43.371,-41.4 m 285.172,154.21 c 0.277,-5.1 0.277,-11.62 0.277,-18.42 0,-8.5 0,-17.02 0.571,-21.54 1.98,-17.59 5.953,-36.29 10.769,-55 19.274,17 28.91,30.62 30.332,45.07 1.981,19 -11.91,49.61 -24.949,64.07 -6.801,-4.82 -11.051,-8.23 -17,-14.18 m -602.93,385.52 c -16.73,22.39 -68.89,49.32 -99.5,29.18 27.207,-10.48 54.43,-42.51 80.5,-58.39 0.29,-0.27 0.571,-0.56 0.848,-0.84 3.41,-2.84 6.813,-5.68 9.93,-8.79 1.703,13.32 4.531,26.36 8.222,38.84 m 80.778,149.67 c -8.778,1.41 -18.141,2.26 -26.93,3.1 -10.199,0.86 -19.551,1.71 -26.918,3.7 -35.152,7.94 -55,10.48 -74.269,-0.86 -20.704,-11.91 -42.524,-38.84 -80.793,-89 -5.95,-7.37 -17.289,-13.32 -20.411,-18.14 -4.527,-7.65 -6.519,-21.27 -8.789,-34.88 -1.41,-11.04 -3.109,-22.1 -6.23,-31.17 -0.57,-1.99 -1.141,-3.68 -1.699,-5.67 3.679,3.68 7.929,8.22 11.898,12.76 39.121,43.94 36,101.76 112.82,129.26 30.051,10.77 59.243,0.57 90.993,-14.18 9.359,14.75 19.847,29.49 30.328,45.08 m 481.043,60.94 c 27.5,90.43 126.429,118.77 193.606,45.91 -42.8,24.96 -91.278,24.66 -103.747,-3.11 -5.383,-12.19 21.258,-47.33 19.277,-62.93 -3.117,-26.64 -4.539,-52.15 -3.968,-70.3 1.129,2.84 1.98,5.66 3.121,8.5 7.93,23.82 7.078,25.24 27.211,42.52 12.186,10.21 25.506,16.45 48.746,19.85 59.53,8.22 65.49,-26.64 106.87,-33.16 6.52,-0.85 9.36,4.81 2.55,24.94 -2.27,6.51 -55.84,36.57 -67.18,66.05 -1.42,3.96 -3.12,7.64 -5.1,9.35 -60.95,48.47 -110.269,68.32 -153.07,63.5 -42.519,-4.82 -79.937,-34.03 -117.066,-83.34 15.867,-7.37 32.308,-17.01 48.75,-27.78 m 118.769,-344.13 c 1.418,2.27 2.559,4.82 2.84,5.67 20.407,59.82 1.129,127.85 -12.191,174.89 -6.239,22.41 -11.34,40.55 -10.489,52.45 -0.562,0.85 -0.851,1.42 -1.132,1.69 -3.688,5.68 -7.661,11.07 -11.911,15.89 -24.378,27.2 -59.238,56.97 -94.386,80.5 -46.774,30.9 -68.321,38.84 -116.793,44.22 -55.84,6.23 -108,3.12 -157.891,-8.5 -29.758,-6.81 -58.957,-16.73 -87.867,-29.48 -18.43,-8.22 -76.539,-35.15 -86.461,-49.33 -57.262,-81.64 -104.602,-148.81 -98.359,-250.58 1.98,-42.52 32.031,-80.22 60.09,-115.65 18.148,-22.96 35.718,-45.07 45.07,-68.03 17.859,-42.24 35.148,-52.73 56.699,-66.33 15.02,-9.37 32.309,-20.13 53.012,-41.96 10.769,-10.2 18.699,-18.42 25.789,-25.79 19.277,-20.13 77.39,-51.03 104.879,-53.3 19.84,-1.41 51.879,3.68 61.23,19.57 7.371,13.04 12.469,23.81 -2.832,52.72 -179.437,-47.91 -204.097,188.5 -46.777,174.05 13.328,13.32 33.449,19.27 54.148,22.66 45.071,7.95 67.18,-8.21 90.992,-46.76 48.469,-77.67 -17.293,-124.44 -85.613,-145.99 0,-1.69 0,-3.11 0.293,-4.53 16.149,-84.47 108.559,-17.86 137.481,-0.56 17.847,10.48 52.718,35.43 65.187,54.42 14.461,21.83 24.66,46.49 34.59,82.21 -0.57,22.96 -0.859,45.91 1.98,68.88 1.422,11.05 3.68,22.1 6.52,32.88 -1.129,5.38 5.672,17.86 10.492,22.68 0.559,0.56 0.848,0.85 1.41,1.41 m -3.961,226.78 c 0.852,-9.36 4.809,-24.1 9.918,-41.96 13.891,-49.04 34.01,-119.62 11.903,-184.26 -0.563,-2.27 -3.403,-7.93 -5.95,-11.89 -1.421,-1.99 -2.832,-3.7 -4.25,-5.11 -4.82,-14.18 -7.941,-28.63 -9.64,-43.09 -1.422,-11.05 -2.27,-22.39 -2.551,-33.44 0,-10.77 0,-21.54 0.57,-32.33 l 0,-2.82 c 0,-0.28 -0.289,-0.85 -0.289,-1.14 -10.492,-37.98 -21.261,-64.06 -36.851,-87.59 -2.27,-3.68 -4.821,-7.37 -7.649,-10.77 18.141,-21.27 32.028,-50.18 29.481,-76.25 -0.571,-5.39 -1.992,-10.5 -3.973,-15.59 -6.519,-15.32 -26.078,-33.73 -38.269,-45.64 0.851,-3.4 1.992,-7.09 2.839,-10.77 14.172,-54.144 16.153,-82.203 1.7,-127.843 -9.071,-28.629 -7.368,-54.992 -5.95,-78.801 3.403,-55.852 6.231,-100.07 -107.718,-136.922 -24.379,-7.937 -55.563,-3.398 -86.743,11.344 -29.757,14.168 -59.25,37.129 -83.339,67.457 l -0.278,0.293 c -29.203,39.68 -46.492,77.097 -52.73,116.5 -6.231,39.117 5.097,50.457 20.98,96.949 0.278,1.129 -7.09,10.77 -11.34,13.598 -17.011,11.905 -28.91,26.085 -36.851,42.245 -9.352,19.27 -12.192,41.09 -10.199,64.91 -4.539,4.54 -9.36,9.64 -14.75,15.02 -7.371,7.93 -15.59,16.45 -25.219,25.52 0,0.28 -0.293,0.57 -0.57,0.85 -19.282,20.11 -35.43,30.04 -49.614,39.11 -24.09,15.02 -43.367,26.93 -63.207,73.99 -8.5,20.69 -25.511,41.94 -43.09,64.06 -29.48,37.42 -60.941,77.38 -63.21,124.72 -0.852,12.75 -0.852,24.95 -0.282,36.57 -5.39,6.24 -11.34,12.18 -17.578,17.58 -21.82,13.6 -59.519,52.44 -79.082,57.54 l -0.289,0.29 c 0,0 -26.641,-29.2 -33.449,-36.57 -8.5,-9.64 -21.262,-25.23 -37.129,-21.26 -4.531,1.13 -7.371,5.39 -6.242,9.64 0.57,3.12 1.422,6.52 2.269,9.64 0.852,3.39 1.699,6.8 2.551,9.91 0,0 0,0.29 0.289,0.57 2.551,7.66 4.25,18.43 5.949,28.91 2.274,15.02 4.532,30.34 10.774,40.25 5.097,8.8 14.738,11.63 20.976,19.84 39.684,51.59 62.364,79.38 85.321,92.71 24.382,13.88 47.062,11.61 86.172,2.26 6.519,-1.41 15.308,-2.26 24.66,-3.13 11.629,-1.12 24.097,-2.25 36,-4.8 14.461,20.69 69.168,44.21 92.41,54.42 30.051,13.31 60.097,23.53 91.277,30.61 67.184,15.59 92.133,16.45 161.012,9.08 21.262,-2.27 40.82,-4.54 60.941,-12.19 1.418,0.85 2.547,1.41 2.84,1.41 26.078,35.15 52.719,60.95 81.348,75.97 20.133,5.39 41.672,11.62 47.062,14.46 3.399,0.57 6.797,0.57 10.2,0.85 11.058,-0.58 28.91,-3.13 47.621,-6.52 32.596,-9.35 68.026,-29.48 107.716,-61.23 5.95,-4.53 7.94,-10.49 10.49,-16.44 7.94,-20.69 46.77,-46.49 62.93,-58.68 1.41,-1.13 2.55,-2.55 2.83,-4.25 15.31,-41.38 3.69,-51.87 -18.42,-48.47 -35.72,5.39 -56.7,39.12 -101.77,32.87 -19.27,-2.82 -31.18,-8.5 -41.67,-17.56 -15.587,-12.76 -15.868,-16.16 -22.106,-34.3 -1.411,-5.11 -5.672,-19.57 -8.782,-30.33 m -255.41,-569.77 26.371,7.09 c 47.617,20.41 94.668,41.1 139.457,70.87 l 0,-5.11 c 0,-8.5 0,-17.3 0.571,-22.96 3.121,-28.06 10.769,-56.97 18.422,-86.18 13.89,-51.863 15.031,-77.664 1.988,-119.336 -9.918,-31.179 -8.219,-58.957 -6.52,-84.187 3.121,-49.32 5.379,-88.442 -97.23,-121.602 -20.41,-6.519 -47.059,-2.558 -74.547,10.481 -27.211,12.762 -54.711,34.301 -77.102,62.648 -27.5,37.422 -43.941,72.571 -49.89,109.422 -1.141,61.512 30.89,121.044 56.121,172.344 18.43,-3.13 31.75,-1.41 62.359,6.52" /><path
         id="path58"
         style="fill:#000000;fill-opacity:1;fill-rule:evenodd;stroke:none"
         d="m 603.125,1364.38 c 11.063,-13.04 41.672,-24.66 56.133,-29.2 17.566,12.48 36,33.45 46.476,47.34 -22.957,-17.86 -60.367,-32.88 -102.609,-18.14" /><path
         id="path60"
         style="fill:#5b5b5b;fill-opacity:1;fill-rule:evenodd;stroke:none"
         d="m 595.188,1251.84 c 13.613,-38.55 33.73,-9.35 51.023,-8.79 3.687,0.29 8.219,-1.13 6.809,4.82 -2.84,11.34 -9.36,16.16 -17.29,20.41 -9.363,5.1 -49.332,8.22 -40.542,-16.44" /><path
         id="path62"
         style="fill:#5b5b5b;fill-opacity:1;fill-rule:evenodd;stroke:none"
         d="m 736.637,1288.98 c 20.98,-36.57 -17.86,-24.94 -31.457,-33.73 -3.121,-1.7 -5.391,-5.39 -9.082,0 -7.078,10.2 -5.95,17.29 -3.399,24.94 3.969,11.91 31.75,30.62 43.938,8.79" /><path
         id="path64"
         style="fill:#000000;fill-opacity:1;fill-rule:nonzero;stroke:none"
         d="m 627.504,1565.92 c -3.399,9.35 -9.07,16.16 -18.141,20.13 -2.269,0.85 -3.687,3.11 -5.39,5.1 -41.379,54.71 -68.028,88.44 -116.219,77.1 -15.871,-3.68 -44.789,-19.56 -70.301,-39.68 -137.758,-108.57 -67.18,-177.74 -75.398,-228.19 -4.821,-22.11 22.109,-46.49 44.508,-63.22 21.261,-15.59 49.031,-27.21 60.66,-35.43 23.242,-17.01 10.203,-22.11 49.043,-17.57 43.078,5.1 44.218,31.74 64.058,72.56 33.731,70.87 94.11,55.85 109.129,93.83 5.11,12.47 5.11,30.9 -2.258,60.38 -4.543,16.72 -29.769,27.78 -39.691,54.99" /><path
         id="path66"
         style="fill:#a0d7f7;fill-opacity:1;fill-rule:evenodd;stroke:none"
         d="m 1487.54,1008.91 c -1.42,-0.28 -2.56,-1.42 -3.97,-2.27 -1.13,-1.12 -1.43,-2.55 -1.98,-3.96 -0.57,-1.14 -0.57,-2.55 0,-3.407 3.96,-11.339 11.89,-17.289 24.09,-17.859 0.85,3.121 0.85,5.391 0.57,7.941 -1.99,9.918 -8.79,16.165 -18.71,19.555" /><path
         id="path68"
         style="fill:#a0d7f7;fill-opacity:1;fill-rule:evenodd;stroke:none"
         d="m 1510.5,1014.87 c -1.42,-0.57 -2.27,-1.42 -2.83,-2.83 -5.39,-10.78 -3.41,-20.704 4.53,-29.485 2.27,1.98 4.82,3.402 5.67,5.383 5.39,8.218 5.95,17.292 0.57,26.932 -1.42,0.57 -2.84,1.13 -3.97,1.13 -1.42,0 -2.84,-0.56 -3.97,-1.13" /><path
         id="path70"
         style="fill:#000000;fill-opacity:1;fill-rule:evenodd;stroke:none"
         d="m 1517.02,990.773 c 0,-0.57 0,-0.851 -0.57,-0.851 -0.56,0 -0.56,0 -0.85,-0.57 -1.98,0.57 -3.97,0.57 -6.53,0.57 -1.97,0 -4.25,-0.57 -5.94,-1.129 -5.4,-1.422 -9.35,-4.262 -11.62,-9.359 -1.99,-4.25 -1.42,-8.223 0.85,-12.75 0,-0.852 1.12,-1.422 1.98,-2.274 9.36,-3.969 18.14,-3.687 26.93,0.852 3.12,1.422 5.1,3.398 6.52,6.801 1.99,0 3.4,0.57 5.39,2.55 0,0 0.55,0.571 1.12,1.418 2,5.391 2,9.922 -1.69,14.742 -0.29,0 -0.29,0.571 -0.85,1.129 -3.4,1.989 -6.53,2.27 -10.49,1.989 -1.7,-0.571 -3.4,-1.7 -4.25,-3.118" /><path
         id="path72"
         style="fill:#a0d7f7;fill-opacity:1;fill-rule:evenodd;stroke:none"
         d="m 1898.84,858.109 c -1.13,1.133 -2.27,1.704 -3.97,2.274 -10.2,-2.844 -17.29,-9.07 -20.69,-17.582 -1.7,6.238 -6.24,11.91 -12.47,15.879 -1.14,1.133 -2.84,1.703 -3.97,1.133 -1.7,0 -3.4,-0.571 -5.1,-1.133 -1.14,-0.571 -2.27,-2.27 -3.41,-3.399 0.57,-12.48 5.67,-21.551 15.88,-26.648 2.83,-1.703 5.67,-1.703 9.07,-1.703 0,0.57 0,1.703 0.57,1.703 13.89,1.129 22.39,7.937 26.36,20.406 0.56,1.703 0.56,2.832 0,4.531 -0.57,1.711 -1.14,2.84 -2.27,4.539" /><path
         id="path74"
         style="fill:#000000;fill-opacity:1;fill-rule:evenodd;stroke:none"
         d="m 1869.64,838.27 c -2.82,0.57 -5.66,0.57 -7.36,-0.571 l -0.57,0 c -0.57,0.571 -0.57,0.571 -1.14,0.571 0,0.57 0,0.57 -0.56,1.128 -1.13,2.27 -2.83,2.84 -5.1,3.411 -4.54,0.558 -7.95,0 -11.91,-2.27 0,0 -0.56,-0.57 -1.13,-1.141 -3.41,-5.101 -3.98,-10.769 -1.71,-17 0.57,-0.57 1.14,-1.14 1.71,-1.699 1.7,-2.269 3.97,-2.84 5.67,-2.84 1.69,-3.972 4.53,-6.242 7.94,-7.941 9.63,-5.102 19.84,-5.102 30.89,-0.559 1.14,0.559 2.27,1.7 2.84,2.829 2.83,4.539 2.83,9.64 0.57,14.742 -2.84,5.097 -7.37,8.508 -13.89,10.207 -1.7,0.562 -4.54,1.133 -6.25,1.133" /><path
         id="path76"
         style="fill:#a0d7f7;fill-opacity:1;fill-rule:evenodd;stroke:none"
         d="m 1584.48,1151.5 c -1.13,-0.57 -2.27,-1.7 -2.83,-3.97 3.96,-11.62 11.05,-18.14 22.11,-20.98 2.26,-0.57 5.1,0 8.22,0.57 0,-0.57 1.13,-1.14 1.7,-1.71 9.35,9.93 11.05,21.55 5.67,33.18 -1.14,1.12 -1.7,2.82 -3.41,2.82 -1.13,1.14 -2.83,1.71 -5.1,1.71 -1.13,0 -2.55,0 -4.25,-1.14 -2.27,-4.53 -3.4,-8.78 -3.97,-13.32 -2.83,2.84 -6.52,3.97 -9.92,5.66 l -3.97,0 c -1.42,-0.55 -3.12,-1.69 -4.25,-2.82" /><path
         id="path78"
         style="fill:#000000;fill-opacity:1;fill-rule:evenodd;stroke:none"
         d="m 1640.89,1130.52 c -1.13,4.82 -4.54,8.79 -9.64,11.05 -5.95,1.14 -11.62,0.57 -16.44,-2.26 -2.27,-1.14 -3.97,-2.27 -5.67,-3.97 -1.42,-1.7 -3.12,-3.69 -4.25,-5.39 l -0.57,0 c -0.56,0 -0.56,0 -1.13,-0.56 0,0.56 -0.57,0.56 -1.13,0.56 -2.27,0 -4.26,0 -5.39,-1.7 -3.4,-2.27 -6.24,-5.67 -6.8,-9.35 l 0,-1.7 c 1.13,-5.96 4.53,-10.49 10.48,-12.76 0,-0.57 1.14,-0.57 2.27,-0.57 2.84,0 5.1,0.57 6.24,2.27 3.12,-1.13 6.52,-1.13 10.49,0 9.92,3.97 17,10.49 21.54,20.98 0.28,1.13 0.28,2.27 0,3.4" /><path
         id="path80"
         style="fill:#9f6637;fill-opacity:1;fill-rule:evenodd;stroke:none"
         d="m 1757.68,1255.24 c -4.82,16.44 -11.62,30.9 -20.41,43.37 -15.02,22.96 -32.03,41.39 -51.31,54.71 6.52,-13.89 13.04,-27.78 20.13,-41.39 10.49,-20.41 16.44,-42.52 18.99,-66.61 1.42,-15.02 0.57,-29.76 -2.55,-44.51 -3.97,-20.68 -10.49,-38.54 -18.99,-54.13 -4.54,-7.09 -7.94,-14.75 -11.06,-23.25 -11.62,-29.75 -14.17,-62.07 -8.22,-96.38 2.55,-15.01 7.37,-28.905 14.74,-39.964 10.49,-15.871 22.68,-28.91 37.14,-39.121 -3.97,7.371 -7.37,14.461 -11.06,21.258 -5.95,13.613 -10.2,28.351 -12.19,43.937 -0.85,7.38 -1.13,14.74 -0.85,22.68 1.7,35.15 10.49,66.34 26.65,94.11 5.95,10.5 11.34,21.84 15.59,35.43 10.49,29.48 11.34,59.25 3.4,89.86" /><path
         id="path82"
         style="fill:#9f6637;fill-opacity:1;fill-rule:evenodd;stroke:none"
         d="m 1837.33,1056.25 c 3.97,6.52 8.5,13.32 12.19,20.41 -12.19,-7.09 -22.39,-15.59 -32.03,-26.93 -5.1,-5.95 -9.64,-13.04 -12.19,-20.98 -5.1,-14.74 -4.82,-29.477 1.7,-43.648 3.12,-6.52 6.24,-12.192 9.92,-17.571 10.21,-13.039 15.87,-28.629 16.73,-45.64 0,-3.399 -0.57,-7.368 -0.86,-11.059 -1.13,-7.371 -3.68,-14.738 -7.37,-21.262 -2.26,-3.679 -4.53,-6.519 -6.52,-10.199 8.23,4.82 15.88,11.34 22.97,18.711 4.25,5.672 7.37,12.191 9.07,19.559 3.96,17 2.26,32.589 -5.11,47.332 -2.26,3.968 -4.53,7.09 -6.52,10.781 -5.66,7.648 -10.2,16.148 -12.18,26.636 -2.27,7.37 -2.84,14.46 -1.71,21.26 1.71,12.19 5.11,22.68 11.91,32.6" /><path
         id="path84"
         style="fill:#9f6637;fill-opacity:1;fill-rule:evenodd;stroke:none"
         d="m 1583.91,1031.59 c -5.95,7.65 -13.32,13.89 -21.82,18.42 -15.03,9.36 -31.19,15.31 -48.2,17.86 7.38,-5.67 14.74,-11.34 21.83,-17.29 10.77,-8.22 18.99,-18.71 24.66,-30.9 3.12,-7.37 4.55,-15.02 3.98,-23.809 -0.29,-11.621 -3.13,-22.961 -7.38,-33.16 -2.27,-4.25 -3.96,-9.07 -5.67,-13.891 -4.82,-18.14 -2.27,-36 7.94,-52.437 3.97,-7.371 9.36,-13.332 16.72,-18.141 10.21,-6.242 21.83,-10.492 34.02,-12.762 -3.4,3.122 -7.36,6.243 -10.77,8.79 -7.09,5.953 -12.18,13.043 -16.16,20.691 -1.42,3.969 -2.54,7.371 -3.4,11.91 -3.96,18.699 -1.42,36.852 7.38,54.699 3.39,6.813 5.66,14.18 6.8,22.11 3.96,17.86 0.56,34.02 -9.93,47.91" /><path
         id="path86"
         style="fill:#fdfdfd;fill-opacity:1;fill-rule:evenodd;stroke:none"
         d="m 402.434,1464.73 -0.571,-0.28 c -9.922,-7.38 -19.558,-16.16 -29.48,-26.38 0,0 86.18,64.07 241.801,41.68 0,0 -106.02,64.63 -211.75,-15.02" /><path
         id="path88"
         style="fill:#fdfdfd;fill-opacity:1;fill-rule:evenodd;stroke:none"
         d="m 444.953,1409.73 c 0,0 68.602,79.65 169.231,70.02 0,0 -62.653,28.91 -123.032,-16.73 -16.148,-11.9 -31.738,-29.2 -46.199,-53.29" /><path
         id="path90"
         style="fill:#000000;fill-opacity:1;fill-rule:nonzero;stroke:none"
         d="m 870.719,1605.04 0.566,0 c 12.473,0.57 25.793,-0.28 39.684,-1.98 0,0 -107.434,-3.97 -214.582,-118.78 0,0 41.949,116.79 174.332,120.76" /><path
         id="path92"
         style="fill:#000000;fill-opacity:1;fill-rule:nonzero;stroke:none"
         d="m 872.133,1535.59 c 0,0 -103.457,19.28 -175.75,-51.31 0,0 30.621,61.8 106.301,64.07 19.839,0.56 43.089,-2.84 69.449,-12.76" /><path
         id="path94"
         style="fill:#f6ae94;fill-opacity:1;fill-rule:evenodd;stroke:none"
         d="m 615.031,1006.64 c 7.653,26.09 12.473,34.59 23.532,56.41 -20.411,3.98 -56.7,20.14 -75.969,36 -0.852,-18.98 1.699,-36 9.066,-51.01 6.242,-13.04 28.352,-39.69 43.371,-41.4 m 285.172,154.21 c 0.277,-5.1 0.277,-11.62 0.277,-18.42 0,-8.5 0,-17.02 0.571,-21.54 1.98,-17.59 5.953,-36.29 10.769,-55 19.274,17 28.91,30.62 30.332,45.07 1.981,19 -11.91,49.61 -24.949,64.07 -6.801,-4.82 -11.051,-8.23 -17,-14.18 m -181.711,-90.99 26.371,7.09 c 47.617,20.41 94.668,41.1 139.457,70.87 l 0,-5.11 c 0,-8.5 0,-17.3 0.571,-22.96 3.121,-28.06 10.769,-56.97 18.422,-86.18 13.89,-51.863 15.031,-77.664 1.988,-119.336 -9.918,-31.179 -8.219,-58.957 -6.52,-84.187 3.121,-49.32 5.379,-88.442 -97.23,-121.602 -20.41,-6.519 -47.059,-2.558 -74.547,10.481 -27.211,12.762 -54.711,34.301 -77.102,62.648 -27.5,37.422 -43.941,72.571 -49.89,109.422 -1.141,61.512 30.89,121.044 56.121,172.344 18.43,-3.13 31.75,-1.41 62.359,6.52" /><path
         id="path96"
         style="fill:#000000;fill-opacity:1;fill-rule:nonzero;stroke:none"
         d="m 731.535,1079.78 c 0.57,2.83 3.403,4.25 6.242,3.69 2.547,-0.86 3.957,-3.69 3.399,-6.24 -3.692,-12.47 -6.52,-25.51 -8.219,-37.99 -1.699,-12.18 -2.551,-24.09 -1.992,-34.86 0.57,-19.841 4.262,-37.989 9.359,-54.431 5.102,-16.437 11.903,-31.738 18.422,-45.629 l 0.289,-0.289 c 1.41,-0.851 2.262,-2.832 1.981,-4.82 -0.282,-2.551 -2.828,-4.531 -5.668,-4.25 -3.684,0.57 -4.25,1.418 -5.102,4.25 l -0.281,0.289 0,0.559 c -7.09,14.179 -13.891,29.769 -19.277,47.062 -5.391,17.289 -9.071,36 -9.641,56.979 -0.57,11.33 0.289,23.81 1.988,36.56 1.981,13.04 4.82,26.36 8.5,39.12" /><path
         id="path98"
         style="fill:#000000;fill-opacity:1;fill-rule:nonzero;stroke:none"
         d="m 475.852,262.551 0,-0.278 m -1.7,-12.761 c -0.281,-3.969 -0.281,-8.219 0.571,-12.469 0.277,-2.551 -0.852,-5.102 -2.551,-6.52 -1.141,-0.851 -2.563,-1.421 -3.973,-1.703 -1.418,0 -2.84,0.563 -4.258,1.703 -1.699,1.418 -3.402,4.528 -3.402,9.348 -0.277,18.43 3.121,35.442 9.922,50.461 6.809,15.02 17.012,28.352 30.898,39.969 l 0.293,0.281 c 2.258,1.699 4.809,1.988 7.078,0.852 l 0.29,-0.282 c 0.851,-0.57 1.703,-1.14 2.261,-1.699 0.289,-0.57 0.571,-1.14 0.852,-1.699 l 0,-0.293 0.289,-0.277 c 0.848,-2.551 0.277,-5.391 -2.27,-7.371 -9.363,-7.942 -17.011,-16.719 -22.679,-26.36 -5.672,-9.64 -9.641,-19.84 -11.621,-30.902 l 0,-0.278 c -0.852,-3.972 -1.422,-8.222 -1.7,-12.761" /></g></g></svg>