<?xml version="1.0" encoding="UTF-8" standalone="no"?>
<svg
   xmlns:dc="http://purl.org/dc/elements/1.1/"
   xmlns:cc="http://creativecommons.org/ns#"
   xmlns:rdf="http://www.w3.org/1999/02/22-rdf-syntax-ns#"
   xmlns:svg="http://www.w3.org/2000/svg"
   xmlns="http://www.w3.org/2000/svg"
   viewBox="0 0 248.03751 248.03751"
   height="248.03751"
   width="248.03751"
   xml:space="preserve"
   version="1.1"
   id="svg2"><metadata
     id="metadata8"><rdf:RDF><cc:Work
         rdf:about=""><dc:format>image/svg+xml</dc:format><dc:type
           rdf:resource="http://purl.org/dc/dcmitype/StillImage" /></cc:Work></rdf:RDF></metadata><defs
     id="defs6" /><g
     transform="matrix(1.25,0,0,-1.25,0,248.0375)"
     id="g10"><g
       transform="scale(0.1,0.1)"
       id="g12"><path
         id="path14"
         style="fill:#000000;fill-opacity:1;fill-rule:nonzero;stroke:none"
         d="m 1471.68,904.48 c 10.03,-3.437 20.6,-6.058 31.68,-7.867 -10.25,2.258 -20.79,4.879 -31.68,7.867 m 70.06,-54.23 c -46.69,0 -88.07,10.441 -122.98,31.023 -7.92,4.668 -12.03,13.821 -10.26,22.84 l 7.38,37.688 c 1.18,6.121 4.95,11.422 10.33,14.562 5.37,3.149 11.83,3.821 17.76,1.867 60.07,-19.886 108.39,-29.16 152.07,-29.16 71.21,0 128.04,24.332 214.09,61.153 l 14.5,6.199 c 4.83,2.121 8.78,4.018 11.86,5.508 6.99,3.37 12.03,5.8 18.5,5.8 7.46,0 14.48,-3.58 18.76,-9.57 3.63,-5.09 5.02,-12.109 3.58,-18.187 -2.53,-10.75 -10.89,-15.18 -18.98,-19.45 -3.14,-1.671 -7.15,-3.781 -11.67,-6.531 C 1796.04,922.844 1664.75,850.25 1541.74,850.25" /><path
         id="path16"
         style="fill:#fdfdfd;fill-opacity:1;fill-rule:evenodd;stroke:none"
         d="m 1437.15,937.648 c 178.02,-58.96 248.6,-24.089 396,38.832 15.59,6.809 21.54,11.059 22.96,9.079 1.42,-1.989 -7.65,-5.11 -20.69,-13.039 -67.75,-41.672 -270.99,-151.942 -405.64,-72.571" /><path
         id="path18"
         style="fill:#000000;fill-opacity:1;fill-rule:nonzero;stroke:none"
         d="m 1004.27,748.762 c -1.66,-4.852 -3.43,-9.942 -5.43,-15.364 -2.02,-5.429 -4.078,-12.308 -6.27,-19.57 -5.621,-18.726 -12,-39.949 -22.718,-54.418 -3.512,-4.629 -7.411,-8.25 -11.301,-11.32 11.57,5.41 22.941,10.621 33.91,15.629 8.269,3.609 15.939,7.39 24.359,12 1.25,0.82 2.87,2.25 4.59,3.75 2.52,2.222 5.07,4.402 7.79,6.32 4.26,2.84 7.73,4.422 10.27,5.563 0.96,0.437 2.37,1.07 2.89,1.386 5.62,4.992 11.83,10.051 18.54,15.114 0.23,8.25 1.08,16.359 2.56,24.269 -19.57,4.219 -38.6,10.18 -56,15.641 l -3.19,1 z M 304.473,596.5 c 0.238,0 1.019,-0.012 1.257,-0.02 13.743,-0.73 22.493,-8.011 28.29,-12.832 1.453,-1.199 3.64,-3.019 4.48,-3.418 3.383,-1.351 8.672,-1.011 12.102,0.508 3.808,1.621 7.168,3 10.41,4.332 11.801,4.828 21.121,8.649 29.031,14.801 2.539,1.91 5.109,4.207 8.168,7.277 10.898,11.43 24.309,19.59 37.281,27.481 10.039,6.109 19.52,11.871 26.707,18.633 2.383,2.199 3.793,11.898 4.641,17.687 0.801,5.512 1.633,11.192 3.223,16.852 2.968,10.539 8.218,18.738 12.437,25.328 2.512,3.93 4.68,7.332 5.891,10.34 0.082,0.359 0.218,2.301 0.32,3.722 0.41,5.778 1.031,14.508 6.769,23.758 6.532,10.563 15.532,17.762 23.461,24.121 5.711,4.559 11.122,8.899 13.532,13 0.75,6.602 4.468,12.559 9.84,16.141 -7.813,1.109 -14.641,6.461 -17.391,14.258 -4.902,13.883 -7.192,24.652 -7.192,33.851 0.469,21.852 8.161,40.731 14.942,57.379 3.199,7.86 6.23,15.281 8.34,22.449 6.75,23.352 8.578,41.852 6.078,61.774 -4.481,33.868 -16.481,70.848 -26.438,99.258 -7.64,22.13 -24.48,61.48 -51.742,77.48 -10,5.78 -23.23,5.65 -35.43,-0.25 -46.347,-21.98 -50.398,-71.89 -33.91,-111.63 24.243,-58.811 32.243,-104.53 27.653,-157.85 -2.871,-31.668 -7.391,-65.758 -13.813,-104.328 -0.57,-3.332 -0.91,-7.313 -1.301,-11.641 -2.058,-22.383 -6.328,-68.949 -49.078,-72.18 -18.738,-1.582 -35.301,-5.351 -50.441,-11.5 -9.68,-4.062 -18.367,-7.179 -28.578,-8.941 -0.43,-0.07 -0.86,-0.129 -1.289,-0.18 l -1.703,-0.238 c -2.297,-0.332 -4.637,-0.621 -7.118,-0.723 -3.461,-0.527 -6.961,-2.777 -9.179,-5.847 -0.114,-0.782 -0.16,-1.582 -0.243,-2.372 -0.441,-4.23 -1.097,-10.558 -4.339,-17.011 -3.348,-7.117 -8.391,-11.641 -12.09,-14.981 -0.91,-0.816 -1.891,-1.578 -2.649,-2.5 -9.492,-12.457 -11.082,-21.078 -1.57,-45.359 4.469,-11.188 11.688,-16.457 22.66,-16.457 3.059,0 6.367,0.43 9.828,1.269 1.032,0.27 3.332,1.368 4.84,2.09 5.75,2.731 13.633,6.469 23.313,6.469 M 640.781,263.051 c 0.649,-0.5 1.328,-1.012 2.012,-1.52 6.449,-4.859 16.199,-12.203 20.008,-24.883 2.672,-8.929 1.539,-17.179 0.719,-23.199 -0.278,-2 -0.688,-5.027 -0.571,-6.039 5.043,-24.719 11.461,-30.422 13.992,-31.73 10.77,-5.379 30.34,-11.602 42.45,-9.961 5.57,0.851 9.359,5.769 16.582,16.781 1.289,1.961 2.566,3.91 3.859,5.781 9.731,14.188 21.957,28.938 45.129,40.328 29.051,14.442 30.219,30.672 32.551,63.012 0.519,7.199 1.058,14.66 1.968,22.379 0.379,3.012 0.77,5.75 1.379,8.449 3.032,19.063 8.961,36.313 14.692,53 4.929,14.313 9.57,27.821 12.23,41.84 4.121,21.281 4.731,45.551 5.379,71.25 0.621,24.32 1.25,49.481 4.981,73.949 0.871,5.723 3.992,10.871 8.679,14.282 2.832,2.058 5.563,5.531 8.571,10.91 0.789,1.41 1.73,2.711 2.781,3.879 0.211,1.793 0.648,3.582 1.328,5.32 2.289,5.84 4.25,12.141 6.332,18.812 4.648,14.93 9.469,30.348 18.75,43.071 6.117,8.738 14.391,14.429 21.027,19.008 4.024,2.781 7.821,5.39 9.524,7.64 6.078,8.199 11.527,26.328 15.906,40.899 2.383,7.953 4.641,15.461 7.133,22.16 2.32,6.269 4.301,12.082 6.18,17.582 2.039,5.988 3.968,11.64 6.05,17.121 4.028,10.656 15.578,16.398 26.508,13.109 l 23.53,-7.14 c 23.98,-7.512 48.76,-15.282 72.89,-18.172 6.63,-0.797 12.52,-4.598 15.98,-10.321 3.46,-5.699 4.08,-12.679 1.72,-18.918 -4.4,-11.55 -6.68,-24.031 -6.81,-37.109 0.25,-2.57 0.28,-4.961 0.28,-7.633 0,-7.039 -3.42,-13.648 -9.18,-17.707 -9.31,-6.582 -17.62,-13.121 -24.7,-19.441 -0.26,-0.219 -0.51,-0.442 -0.76,-0.649 -4.68,-3.8 -9.2,-5.851 -12.49,-7.339 -1.18,-0.532 -2.42,-1.012 -3.65,-1.832 -0.99,-0.711 -2.34,-1.942 -3.72,-3.149 -2.86,-2.512 -6.41,-5.633 -10.87,-8.351 -0.28,-0.18 -0.57,-0.348 -0.88,-0.508 -9.81,-5.383 -18.75,-9.813 -28.11,-13.903 -20.87,-9.507 -43.499,-19.937 -65.41,-30.75 -10.679,-5.218 -23.058,-11.281 -27.75,-17.461 -0.359,-0.488 -0.738,-0.949 -1.14,-1.398 -0.051,-0.398 -0.11,-0.789 -0.168,-1.191 -0.18,-0.989 -0.32,-3.11 0.719,-6.379 l 0.55,-1.489 c 1.348,-3.55 3.629,-9.472 2.93,-16.589 -0.051,-0.411 -0.101,-0.813 -0.172,-1.223 -1.148,-7.34 -4.429,-13.059 -6.84,-17.238 -0.578,-1 -1.199,-1.969 -1.609,-2.95 -1.598,-4.441 -2.488,-8.261 -2.629,-11.91 -0.07,-0.851 -0.121,-1.609 -0.148,-2.32 6.058,0.91 12.257,-0.82 17.058,-4.832 5.77,-4.828 8.621,-12.32 7.532,-19.758 l -0.614,-3.883 c -0.297,-1.867 -0.769,-4.738 -0.937,-6.957 4.34,4.16 12.121,11.239 24.148,11.239 2.379,0 4.781,-0.301 7.129,-0.879 6,-1.5 10.844,-4.063 14.711,-6.11 2.051,-1.082 4.18,-2.211 5.422,-2.551 1.551,-0.359 4.73,-0.492 8.43,-0.64 3.328,-0.141 6.687,-0.289 10.038,-0.692 l 3.16,-0.296 c 3.56,-0.364 6.94,-0.813 10.54,-0.5 6.43,0.707 11.7,3.5 17.81,9.609 6.48,6.418 12.57,12.969 18.65,19.508 18.48,19.871 37.6,40.422 64.56,55.082 6.12,3.289 12.07,7.969 18.37,12.91 6.81,5.348 13.86,10.891 22.25,15.738 5.91,3.461 12.11,6.86 18.34,10.281 14.17,7.77 27.56,15.122 38.97,24.02 3.64,2.84 8.09,4.461 12.7,4.59 93.87,2.789 159.94,45.64 196.4,127.371 65.83,147.559 14.64,376.539 -75.12,482.679 -30.11,35.7 -66.15,68.82 -104.26,95.8 -43.26,30.71 -109.2,43.88 -167.38,55.51 -9.92,1.98 -19.61,3.92 -28.95,5.89 -28.26,6.1 -57.188,11.72 -85.168,17.16 -52.832,10.26 -107.473,20.87 -160.653,35.28 -5.558,1.48 -11.136,2.25 -16.5,2.25 -43.347,0 -75.027,-52.32 -76.339,-99.28 -0.278,-12.51 0.242,-25.07 0.793,-38.36 1.027,-24.98 2.097,-50.8 -2.52,-77.29 -2.402,-13.7 -5.621,-26.87 -8.742,-39.61 -6.59,-26.98 -12.821,-52.47 -10.571,-79.3 4.571,-55.18 10.61,-112.9 29.391,-159.21 4.25,-10.492 -0.281,-22.48 -10.398,-27.539 -1.453,-0.722 -3.063,-1.339 -4.68,-1.89 0.137,0.051 0.578,0.258 1,0.469 -0.523,-0.25 -1.051,-0.489 -1.582,-0.711 l -3.512,-1.411 c -11.109,-4.418 -15.168,-6.226 -19.379,-11.527 -5.949,-7.262 -10.898,-13.633 -15.347,-19.723 -3.743,-5.089 -9.512,-8.32 -15.813,-8.808 -5.758,-0.352 -11.301,1.371 -15.64,5.012 -0.379,0.25 -0.739,0.488 -1.071,0.718 -2.859,1.75 -5.789,3.782 -8.777,5.891 -4.211,2.961 -8.563,6.008 -11.883,7.258 -0.93,0.301 -1.629,0.301 -1.656,0.301 0.097,-0.379 -0.91,-1.872 -1.641,-2.95 -2.242,-3.32 -5.312,-7.879 -10.262,-12.05 -2.621,-2.29 -5.179,-3.93 -7.05,-5.129 -0.481,-0.313 -0.969,-0.59 -1.43,-0.942 -5.141,-7.558 -9.578,-18.238 -13.879,-28.57 l -2.262,-5.399 c -3.429,-7.679 -5.027,-16.101 -4.808,-24.761 0.191,-7.66 -3.641,-14.59 -9.692,-18.61 6.84,-0.898 12.973,-4.91 16.192,-11.347 0.41,-0.832 0.84,-1.774 1.262,-2.711 l 0.449,-0.981 c 3.48,-7.519 7.789,-14.519 12.347,-21.929 1.801,-2.911 3.582,-5.813 5.313,-8.711 5.269,-9.282 11,-19.371 17.828,-25.2 2.871,-2.39 6.223,-4.652 9.582,-6.949 3.957,-2.722 7.949,-5.472 11.719,-8.5 4.179,-3.211 8.531,-7.082 12.898,-11 5.262,-4.722 10.242,-9.179 15.242,-12.472 l 3.59,-2.368 c 7.071,-4.679 25.821,-17.089 33.578,-17.089 10.121,1.988 19.942,-3.461 23.922,-12.954 l 2.211,-5.289 c 6.578,-3.738 12.508,-7.347 17.699,-10.73 6.27,-4.098 9.981,-11.129 9.821,-18.609 -0.16,-8 -0.27,-15.989 -0.379,-23.981 -0.653,-46.937 -1.332,-95.469 -13.344,-141.988 -4.117,-15.41 -17.109,-39.153 -37.957,-76.621 l -9.691,-17.461 c -15.051,-26.75 -26.282,-48.297 -34.418,-66.028 -11.973,-25.601 -14.133,-37.3 -14.442,-41.64 m 74.918,-140.91 c -19.797,0 -43.609,7.48 -58.429,14.89 -24.321,12.59 -32.618,41.149 -36.77,61.547 -1.719,7.832 -0.699,15.301 0.039,20.75 0.184,1.231 0.402,2.902 0.512,4.141 -1.192,1.031 -3.031,2.429 -4.371,3.429 -3.028,2.293 -6.02,4.614 -8.617,7.09 -20.493,19.871 -7.551,56.102 7.808,88.934 8.578,18.687 20.328,41.269 35.891,68.93 l 9.668,17.429 c 15.25,27.399 31.019,55.75 33.922,66.547 10.66,41.293 11.269,85.141 11.91,131.563 0.058,3.968 0.109,7.929 0.168,11.898 -3.547,2.102 -7.391,4.281 -11.489,6.531 -4.211,2.309 -7.531,5.961 -9.441,10.34 -15.719,3.328 -31.578,13.129 -46.66,23.121 l -3.41,2.239 c -7.789,5.128 -14.5,11.16 -20.43,16.468 -3.559,3.192 -7.078,6.371 -10.738,9.192 -3.25,2.609 -6.371,4.711 -9.449,6.82 -4.262,2.922 -8.661,5.941 -13.02,9.57 -12.832,10.95 -20.891,25.16 -27.371,36.578 -1.063,1.762 -2.281,3.762 -3.539,5.813 -1.973,-1.652 -3.934,-3.231 -5.844,-4.762 -5.699,-4.558 -11.078,-8.871 -13.687,-13.09 -0.129,-0.437 -0.27,-2.488 -0.379,-4 -0.301,-4.281 -0.723,-10.14 -3.274,-16.621 -2.769,-6.937 -6.437,-12.679 -9.668,-17.718 -3.218,-5.04 -6.011,-9.399 -7.23,-13.711 -0.821,-2.93 -1.41,-7.028 -2.051,-11.368 -1.891,-12.941 -4.469,-30.66 -17.969,-43.152 -10.371,-9.73 -22.261,-16.969 -33.75,-23.961 -11.051,-6.726 -21.48,-13.078 -28.781,-20.719 -4.879,-4.898 -8.98,-8.531 -12.891,-11.449 -12.296,-9.57 -25.218,-14.859 -38.91,-20.48 -3.058,-1.25 -6.238,-2.551 -9.539,-3.95 -13.34,-5.941 -31.43,-6.671 -45.469,-1.031 -7,2.762 -12.289,7.141 -16.14,10.352 -0.871,0.719 -1.918,1.59 -2.801,2.269 -1.18,-0.5 -2.617,-1.191 -3.719,-1.711 -3.66,-1.738 -8.218,-3.91 -13.441,-5.121 -6.559,-1.597 -13.328,-2.437 -19.848,-2.437 l -0.012,0 c -28.871,0 -51.82,15.988 -62.98,43.871 -10.488,26.808 -16.84,55.816 7.152,87.25 2.559,3.566 5.797,6.488 8.399,8.816 0.691,0.621 1.41,1.203 2.039,1.852 0.121,0.781 0.172,1.582 0.25,2.379 0.453,4.359 1.14,10.953 4.633,17.609 9.57,16.652 26.398,27.621 44.316,29.363 1.524,0.149 3.063,0.188 4.461,0.387 0.801,0.133 1.609,0.242 2.41,0.352 6.031,1.09 11.531,3.109 18.883,6.191 19.469,7.91 40.18,12.668 63.527,14.649 6.371,0.468 8.379,22.378 9.352,32.91 0.508,5.539 1,10.648 1.711,14.851 6.238,37.438 10.617,70.481 13.387,100.969 3.941,45.762 -3.168,85.609 -24.528,137.46 -28.793,69.4 -6.082,138.22 55.258,167.32 24.762,11.97 53.41,11.66 75.992,-1.39 37.438,-21.98 59.188,-66.88 70.867,-100.7 10.614,-30.29 23.481,-70.03 28.5,-107.991 2.301,-18.398 1.813,-36.039 -1.679,-55.121 10.73,5.844 22.769,6.703 36.07,2.274 6.41,-2.391 11.852,-5.563 16.539,-8.661 1.223,1.528 2.481,3.079 3.774,4.661 7.707,9.699 16.179,15.226 24.75,19.339 -15.333,47.289 -20.821,100.589 -25.051,151.649 -2.84,33.86 4.539,64.03 11.66,93.2 3.09,12.61 6,24.52 8.148,36.78 3.813,21.88 2.891,44.3 1.91,68.03 -0.55,13.39 -1.128,27.23 -0.808,41.25 1.898,68.41 50.449,141.54 119.687,141.54 9.121,0 18.454,-1.25 27.75,-3.72 51.75,-14.03 105.602,-24.49 157.661,-34.6 28.203,-5.47 57.36,-11.14 85.98,-17.32 9.08,-1.92 18.62,-3.82 28.38,-5.77 62.43,-12.48 133.19,-26.61 183.96,-62.66 41.05,-29.05 79.89,-64.74 112.32,-103.2 98.23,-116.16 155.91,-361.729 81.59,-528.339 -42.3,-94.812 -120.97,-147.511 -227.78,-152.769 -12.57,-9.043 -25.99,-16.403 -39.04,-23.563 -5.88,-3.219 -11.72,-6.418 -17.4,-9.738 -5.83,-3.371 -11.39,-7.742 -17.27,-12.352 -7.46,-5.871 -15.18,-11.929 -24.51,-16.949 -20.66,-11.238 -36.58,-28.359 -53.45,-46.488 -6.48,-6.973 -12.99,-13.953 -19.81,-20.711 -12.98,-12.973 -27.42,-20.191 -44.09,-22.012 -7.65,-0.687 -12.89,-0.148 -19.2,0.5 l -3.251,0.321 c -2.828,0.308 -5.117,0.39 -7.41,0.492 -5.187,0.207 -11.09,0.457 -17.519,2 -6.008,1.668 -10.411,3.879 -13.95,5.738 -1.531,-1.34 -3.32,-2.738 -5.39,-4.012 -15.5,-9.847 -34.321,-9.75 -47.348,0.801 -4.332,3.563 -7.633,7.32 -10.121,11.16 -0.828,-14.398 -2.231,-28.597 -4.84,-42.078 -3.219,-17 -8.601,-32.641 -13.801,-47.769 -5.437,-15.84 -10.578,-30.793 -12.98,-46.372 -0.098,-0.652 -0.238,-1.308 -0.391,-1.96 -0.347,-1.372 -0.469,-2.758 -0.648,-4.129 -0.828,-7.012 -1.309,-13.821 -1.789,-20.391 -2.473,-34.34 -5.27,-73.281 -56.571,-98.762 -13.679,-6.726 -20.601,-14.34 -28.628,-26.027 -1.133,-1.652 -2.223,-3.313 -3.333,-5 -8.359,-12.75 -21,-32.012 -46.718,-35.922 -3.391,-0.461 -6.539,-0.648 -9.813,-0.648" /><path
         id="path20"
         style="fill:#fdfdfd;fill-opacity:1;fill-rule:evenodd;stroke:none"
         d="m 1082.82,696.988 c -9.64,-6.8 -18.71,-13.89 -26.65,-20.98 -4.53,-3.68 -9.35,-4.531 -14.46,-7.93 -4.82,-3.398 -8.78,-7.941 -13.89,-11.058 -8.78,-4.821 -17.28,-9.071 -26.36,-13.043 -22.394,-10.2 -44.503,-20.411 -66.323,-31.18 -12.762,-6.238 -27.5,-13.32 -35.442,-23.809 7.66,19.559 11.621,42.239 22.403,56.981 7.929,11.328 22.386,15.871 30.328,26.359 12.191,16.442 18.699,48.75 26.082,68.602 4.808,13.039 8.219,24.09 12.18,34.578 5.667,-1.699 11.342,-3.399 17.012,-5.102 26.35,-8.218 54.71,-17.578 83.06,-20.976 -5.39,-14.172 -8.22,-29.762 -8.22,-45.922 0.28,-2.27 0.28,-4.25 0.28,-6.52 m -778.394,24.379 0,0 c -8.789,-3.687 -15.879,-6.238 -24.102,-7.66 -2.547,-0.277 -5.097,-0.848 -7.937,-0.848 -11.621,-1.132 -21.821,-8.5 -27.211,-17.851 -3.121,-5.961 -1.418,-13.61 -4.531,-19.559 -2.547,-5.672 -9.071,-9.07 -12.758,-14.179 -16.442,-21.543 -14.461,-39.973 -4.25,-66.043 10.199,-25.52 32.308,-34.59 57.828,-28.348 7.371,1.699 15.301,8.219 23.519,7.937 10.493,-0.57 16.161,-11.058 25.524,-14.738 9.918,-3.969 21.258,-2.551 28.91,0.852 17.289,7.367 31.18,11.898 43.937,21.816 3.403,2.551 6.801,5.672 10.2,9.07 17.57,18.43 44.793,28.071 63.5,45.641 11.332,10.492 9.922,30.332 13.89,44.512 3.68,13.039 13.039,22.109 17.571,33.449 3.121,7.93 0.281,15.871 5.39,24.09 9.629,15.59 30.039,23.238 38.262,39.398 1.137,2.274 1.707,4.821 1.988,7.653 0.571,-1.129 1.129,-2.551 1.699,-3.68 5.102,-11.063 12.192,-21.539 18.422,-32.031 5.957,-10.489 12.758,-22.399 22.399,-30.621 6.801,-5.668 14.742,-10.2 21.832,-15.868 9.918,-7.652 18.988,-17.57 29.758,-24.66 12.191,-7.941 37.129,-25.801 53.011,-22.679 l 5.098,-12.192 c 8.793,-4.82 16.441,-9.351 22.961,-13.601 -1.129,-54.707 0.281,-109.418 -13.039,-161.008 -4.25,-15.879 -24.66,-51.031 -45.641,-89.012 -12.75,-22.68 -25.511,-46.488 -35.148,-67.461 -14.172,-30.328 -21.543,-55.277 -12.473,-64.066 6.52,-6.231 16.442,-10.774 18.992,-19.274 2.547,-8.508 -2.269,-18.429 -0.281,-27.5 3.121,-15.308 9.352,-38.269 25.231,-46.488 13.597,-6.801 38.269,-14.449 55.269,-12.191 18.711,2.839 26.649,19 35.442,31.75 9.917,14.461 19.558,24.66 36.847,33.171 48.473,24.09 41.383,58.961 46.481,102.329 0.289,2.269 0.57,4.531 1.14,6.8 5.102,33.172 20.692,62.082 26.93,94.961 8.5,43.942 3.121,97.508 10.488,145.989 6.231,4.531 10.774,10.769 14.742,17.851 -0.851,-4.808 -0.57,-10.48 1.411,-16.719 0.847,-2.832 2.839,-6.519 2.55,-9.351 -0.851,-5.391 -5.101,-10.488 -7.082,-15.309 -2.269,-6.242 -3.968,-12.472 -4.25,-19.281 -1.418,-16.441 4.25,-31.461 24.66,-24.66 -1.699,-11.621 -5.39,-24.379 7.372,-34.86 7.371,-5.96 16.16,-3.121 22.39,0.848 5.098,3.113 9.36,11.051 16.16,9.352 6.797,-1.7 12.469,-6.52 19.559,-8.5 7.082,-1.7 14.449,-1.141 21.82,-1.989 6.234,-0.562 11.914,-1.421 18.144,-0.851 13.05,1.422 22.68,7.371 31.18,15.879 25.23,24.941 45.93,53.293 78.23,70.859 14.75,7.942 26.38,20.41 41.11,28.922 19.85,11.621 41.68,21.82 59.82,36 324.84,9.629 283.18,473.102 137.18,645.732 -32.02,37.98 -69.43,72 -108.27,99.49 -54.71,38.84 -138.61,51.03 -204.38,64.92 -81.354,17.57 -164.123,30.33 -244.635,52.15 -71.43,19 -118.488,-56.12 -120.187,-117.35 -0.852,-37.7 5.109,-75.12 -1.41,-112.54 -7.372,-41.95 -23.25,-80.5 -19.563,-124.44 4.25,-51.3 10.199,-114.52 30.891,-165.54 -1.129,-0.57 -2.551,-0.852 -3.68,-1.422 -13.32,-5.379 -22.961,-8.5 -31.75,-19.559 -5.102,-6.23 -10.488,-13.043 -15.871,-20.41 -0.848,0.848 -1.988,1.418 -3.117,2.27 -7.653,4.539 -15.871,11.91 -24.953,15.308 -8.5,2.832 -15.59,2.27 -22.387,-3.121 -5.383,-4.25 -7.371,-10.769 -12.75,-15.308 -4.543,-3.961 -8.231,-4.532 -11.91,-9.918 -7.942,-11.34 -13.321,-25.512 -18.711,-38.262 -4.821,-10.781 -6.801,-22.398 -6.52,-33.738 -3.402,9.636 -5.949,18.988 -5.949,26.648 0.566,26.36 15.309,49.602 22.387,73.699 6.812,23.532 9.922,45.641 6.812,70.582 -4.543,34.301 -15.883,70.581 -27.5,103.751 -10.769,31.18 -30.332,70.87 -61.23,89.01 -18.141,10.49 -38.832,8.79 -55.84,0.56 -54.992,-26.07 -66.621,-86.17 -44.512,-139.46 21.262,-51.591 30.621,-94.962 26.082,-147.681 -3.109,-34.301 -7.929,-68.601 -13.601,-102.621 -3.399,-20.121 -0.571,-63.488 -30.621,-65.762 -20.118,-1.699 -38.829,-5.668 -56.969,-13.039" /><path
         id="path22"
         style="fill:#000000;fill-opacity:1;fill-rule:evenodd;stroke:none"
         d="m 350.91,611.949 c -22.39,0 -39.398,-22.961 -54.711,-35.148 -1.976,-1.703 -6.226,-4.821 -11.34,-9.071 5.391,2.547 11.34,5.668 17.293,5.387 4.258,0 7.938,-1.988 11.059,-4.258 1.422,2.84 3.121,5.391 5.102,7.661 11.058,12.187 31.468,17.859 32.597,35.429" /><path
         id="path24"
         style="fill:#000000;fill-opacity:1;fill-rule:evenodd;stroke:none"
         d="m 263.605,639.727 c -10.492,-0.848 -19.839,-2.547 -28.351,-8.789 -7.649,-5.379 -12.75,-13.04 -20.121,-18.989 1.41,-5.953 3.68,-11.91 6.23,-18.711 0.571,-1.129 1.141,-2.55 1.7,-3.679 7.941,6.8 12.761,15.589 19.851,24.66 5.102,6.519 21.262,16.719 20.691,25.508" /><path
         id="path26"
         style="fill:#000000;fill-opacity:1;fill-rule:evenodd;stroke:none"
         d="m 267.57,683.949 c 2.274,2.27 -13.609,2.27 -15.59,1.981 -3.687,-0.563 -7.367,-1.981 -10.769,-3.11 -0.289,-2.55 -0.848,-5.113 -1.988,-7.371 -2.262,-4.82 -7.082,-8.219 -11.051,-11.91 15.019,5.102 30.332,11.621 39.398,20.41" /><path
         id="path28"
         style="fill:#000000;fill-opacity:1;fill-rule:evenodd;stroke:none"
         d="m 631.258,237.773 c 12.187,21.543 28.347,51.024 43.648,56.692 4.262,-23.52 -19.84,-46.488 -31.179,-68.879 -1.129,-1.981 -1.981,-3.973 -2.829,-6.242 0,2.562 0,4.82 -0.851,7.09 -1.418,4.543 -4.82,8.222 -8.789,11.339" /><path
         id="path30"
         style="fill:#000000;fill-opacity:1;fill-rule:evenodd;stroke:none"
         d="m 678.879,145.648 c -5.668,1.981 -10.77,4.25 -15.02,6.243 -1.699,0.847 -3.41,1.976 -4.82,3.398 1.41,1.699 2.551,3.121 3.121,3.969 11.621,15.59 33.731,67.742 54.699,75.402 4.262,-23.531 -19.839,-46.211 -30.89,-68.601 -1.418,-2.551 -2.547,-5.098 -3.41,-7.649 -1.411,-4.262 -2.547,-8.512 -3.68,-12.762" /><path
         id="path32"
         style="fill:#000000;fill-opacity:1;fill-rule:evenodd;stroke:none"
         d="m 799.637,268.957 c 7.648,-13.039 -5.391,-28.352 -7.942,-42.801 -0.558,-3.121 -0.558,-5.961 0,-9.07 0.852,-3.969 1.989,-7.66 3.121,-11.059 l -0.851,-0.281 c -12.469,-6.238 -21.262,-13.328 -28.91,-22.109 2.55,12.468 7.929,26.359 9.351,30.332 5.668,17.289 7.367,42.797 25.231,54.988" /><path
         id="path34"
         style="fill:#fdfdfd;fill-opacity:1;fill-rule:evenodd;stroke:none"
         d="m 1090.19,1603.22 -48.47,59.24 c 0,0 -99.501,66.63 -104.603,58.68 -4.82,-8.21 -101.199,35.72 -101.199,35.72 0,0 -117.922,47.34 -119.34,38.27 -1.41,-8.79 -141.16,13.32 -140.312,6.23 0.57,-7.37 -84.188,-17 -84.188,-17 0,0 -62.93,-36.29 -58.39,-43.93 4.808,-7.38 -100.629,-56.71 -100.629,-56.71 l -63.5,-80.22 c 0,0 -10.204,-81.35 -19.563,-80.21 -9.348,1.14 -5.949,-72.29 3.402,-71.16 9.36,0.85 17.86,-196.72 8.79,-197.29 -18.711,-1.13 70.3,-187.94 74.269,-202.68 4.531,-17.28 34.859,-70.855 34.859,-70.855 l 104.891,-78.801 98.641,-14.738 c 0,0 191.621,16.437 195.031,-1.993 3.109,-18.418 76.809,18.711 80.5,12.762 3.969,-6.242 86.457,74.828 79.648,78.231 -6.519,3.398 56.981,64.074 49.039,70.024 -7.937,5.94 27.214,43.09 27.214,43.09 0,0 50.46,42.23 59.82,35.42 9.07,-6.51 67.46,49.9 49.32,60.66 -18.14,10.77 37.42,115.38 37.42,115.38 l 1.7,72.84 -54.15,168.66" /><path
         id="path36"
         style="fill:#000000;fill-opacity:1;fill-rule:nonzero;stroke:none"
         d="m 603.73,768.055 0,0 c -18.179,0 -36.292,3.39 -50.98,9.531 -15.262,6.48 -27.52,14.852 -37.371,21.57 -5.059,3.461 -9.891,6.75 -13.75,8.852 -2.988,0.148 -10.57,0.09 -24.469,-2.653 -9.012,-1.718 -19.582,-3.449 -31.359,-3.449 -36.34,0 -58.051,16.539 -69.863,30.43 -22.208,25.809 -27.918,58.051 -15.09,86.012 27.601,60.129 125.863,64.797 155.32,64.797 3.191,0 6.383,-0.27 9.531,-0.79 73.961,-12.328 122.039,-52.898 144.239,-89.269 29.542,-34.762 21.152,-66.5 15.871,-79.02 -5.829,-13.832 -25.5,-46.011 -82.079,-46.011" /><path
         id="path38"
         style="fill:#fdfdfd;fill-opacity:1;fill-rule:evenodd;stroke:none"
         d="m 575.133,831.066 c 24.379,-10.199 81.347,-6.8 47.621,27.782 -12.191,23.238 -47.051,56.41 -106.582,66.328 -34.578,0 -132.66,-12.758 -96.102,-55.278 11.34,-13.32 31.192,-10.48 45.934,-7.652 15.867,3.121 41.668,6.801 57.258,-0.277 18.14,-8.223 33.16,-22.961 51.871,-30.903" /><path
         id="path40"
         style="fill:#fdfdfd;fill-opacity:1;fill-rule:evenodd;stroke:none"
         d="m 547.352,1792.3 c -21.539,22.95 -56.129,41.38 -73.129,56.97 -73.7,67.18 -91.563,64.91 -248.039,1.14 -15.59,-6.25 -26.071,-2.84 -36,-7.95 -20.973,-11.05 -41.954,-48.19 -63.211,-65.76 -5.95,-6.24 -12.192,-12.47 -18.141,-18.43 7.648,0.3 7.648,-7.36 16.16,-5.95 18.988,2.56 47.621,16.45 66.328,17.29 17.012,6.25 30.051,13.89 36.852,7.37 20.691,-20.12 37.422,-87.3 54.988,-118.48 13.613,-36.29 15.024,-78.8 22.684,-98.93 19.84,15.88 51.308,52.16 71.148,67.75 33.731,28.63 67.461,57.25 100.91,85.88 28.059,12.76 56.129,25.23 84.192,38 5.668,7.07 11.058,14.44 16.719,21.82 -10.481,6.52 -20.692,12.75 -31.461,19.28" /><path
         id="path42"
         style="fill:#fdfdfd;fill-opacity:1;fill-rule:evenodd;stroke:none"
         d="m 1070.63,1630.44 c 157.32,67.18 261.35,36.57 338.74,-155.91 4.82,-11.9 -3.97,-25.51 0.28,-39.68 3.69,-12.76 7.66,-25.51 11.34,-38.27 7.66,-17.57 15.31,-35.43 22.96,-53.29 -15.59,-88.16 -55.27,-20.98 -82.49,28.63 -41.66,40.54 -58.67,44.5 -115.08,47.62 -10.49,-3.12 -20.98,-6.52 -31.47,-9.64 -21.54,-17 -44.5,-40.25 -67.74,-53.85 -6.24,-3.97 -9.93,6.8 -18.15,8.78 -8.22,1.99 -139.743,104.6 -139.743,104.6 -7.66,30.33 -15.031,60.66 -22.679,90.99 4.82,21.26 12.468,53.58 15.019,64.35 2.551,11.06 84.193,4.25 89.013,5.67" /><path
         id="path44"
         style="fill:#70706f;fill-opacity:1;fill-rule:evenodd;stroke:none"
         d="m 738.973,863.098 c -28.629,-0.571 -81.071,102.05 -64.059,134.929 -1.141,-1.129 -40.262,-20.98 -87.031,-20.41 -28.059,0.281 -60.66,17.289 -84.469,24.093 -19.559,5.96 -35.148,14.74 -42.519,27.78 -20.122,-29.763 -37.422,-56.97 -83.34,-58.392 12.758,-12.469 20.98,-34.578 45.918,-47.34 77.39,-40.531 216.293,-55.27 315.5,-60.66" /><path
         id="path46"
         style="fill:#000000;fill-opacity:1;fill-rule:evenodd;stroke:none"
         d="m 333.055,1683.73 c -3.973,35.72 -45.922,99.5 -94.114,96.66 24.383,-29.48 34.024,-82.77 53.293,-117.07 0.278,-0.57 0.571,-1.13 0.571,-1.7 l 0.277,0 c 1.992,-5.39 3.691,-10.77 5.102,-16.16 11.058,13.89 22.679,26.65 34.871,38.27 m 191.34,115.65 c -9.071,7.66 -19.282,14.46 -28.633,20.98 -11.059,7.65 -21.258,14.74 -28.629,21.26 -34.578,31.75 -55.84,47.05 -85.32,47.05 -31.469,-0.28 -74.27,-16.44 -151.09,-47.9 -11.621,-4.82 -28.352,-3.97 -35.43,-7.65 -9.922,-5.39 -21.551,-19.28 -32.891,-33.45 -9.07,-11.34 -18.418,-22.68 -28.058,-30.62 -1.699,-1.98 -3.403,-3.68 -5.102,-5.38 6.52,1.7 14.172,4.25 21.832,6.8 73.699,24.09 108.278,90.71 214.008,72.28 41.672,-7.08 68.602,-37.41 94.68,-74.26 20.691,10.48 42.242,20.69 64.633,30.89 m 590.455,-239.81 c 90.99,83.62 223.08,51.88 251.71,-72.56 -32.31,55.27 -87.87,85.89 -120.47,62.92 -14.46,-10.2 -7.09,-66.61 -19.28,-83.05 -21.54,-27.78 -39.68,-55.28 -51.02,-76.25 2.83,2.55 5.95,5.38 9.07,7.93 24.66,21.26 24.95,23.53 59.25,29.77 20.69,3.68 39.96,2.55 68.88,-8.79 73.7,-28.91 57.26,-71.72 100.34,-105.45 7.09,-5.38 13.89,-0.56 19,26.08 1.98,8.79 -39.41,76.82 -32.89,117.07 0.85,5.39 1.42,10.49 0.29,13.89 -37.7,93.26 -81.07,147.12 -133.51,169.23 -51.6,21.83 -113.67,13.04 -188.51,-18.43 13.04,-18.42 25.51,-39.68 37.14,-62.36 m -91,-461.76 c 3.4,1.98 6.24,3.68 7.09,4.53 62.65,54.15 85.61,142.59 101.48,203.82 7.37,29.19 13.61,52.72 22.39,65.48 0,1.13 -0.28,2.26 -0.28,2.55 -0.28,8.78 -1.13,17.29 -3.12,25.51 -9.92,46.2 -30.05,101.76 -54.99,150.52 -32.88,64.63 -52.16,87.59 -104.307,124.72 -59.82,42.52 -121.332,72.57 -185.961,91.56 -38.828,11.62 -78.8,18.99 -120.187,23.25 -26.641,2.83 -110.551,9.63 -131.242,0 -119.621,-54.43 -217.981,-99.5 -277.801,-217.42 -25.508,-48.76 -16.438,-110.27 -7.649,-168.1 5.668,-37.41 11.059,-73.41 7.09,-104.88 -7.66,-58.96 5.102,-81.92 20.969,-110.83 11.063,-20.41 23.531,-43.09 32.891,-81.07 5.379,-18.15 9.07,-32.6 12.468,-45.64 8.793,-34.58 54.993,-106.583 85.043,-126.431 21.821,-14.742 61.508,-29.481 82.77,-17.57 17.289,9.918 30.328,18.711 31.75,60.941 -237.262,61.52 -109.422,341.86 60.937,225.07 24.102,6.24 51.032,-0.28 77.102,-9.35 56.699,-20.13 71.148,-52.44 73.422,-110.83 3.969,-117.933 -102.051,-128.413 -194.461,-108.851 -1.133,-1.711 -1.981,-3.41 -2.832,-4.82 -37.129,-105.449 112.543,-89.86 157.043,-89.012 27.5,0.281 83.906,5.672 110.828,18.992 30.898,15.309 58.68,36.278 93.551,70.02 14.168,26.359 29.187,52.151 47.621,75.961 9.066,11.34 18.418,22.4 29.199,32.6 2.258,6.81 18.136,16.44 26.636,18.71 1.14,0.29 1.99,0.57 2.55,0.57 m -488.409,-227.341 0.571,0.281 c 102.609,-11.051 197.293,-19.562 298.211,10.488 33.16,16.731 62.922,38.84 99.769,74.551 0.289,0.289 0.571,0.848 0.86,1.141 l 1.98,3.117 c 6.52,12.473 13.609,24.66 20.691,36.281 l 0,0.281 c 7.661,12.471 15.879,24.381 24.95,36.001 11.621,15.03 24.377,29.2 39.407,41.95 2.82,0.57 5.37,1.71 8.21,3.12 5.67,2.84 12.47,7.37 14.74,9.36 67.75,58.39 91.56,150.52 108,214.3 5.95,22.96 10.77,41.95 16.16,53 10.77,10.21 24.94,23.82 30.04,28.35 19,16.44 21.55,19.84 47.91,24.66 18.14,3.12 35.15,1.99 58.96,-7.37 56.13,-21.82 57.54,-72.85 94.96,-102.05 22.96,-18.14 43.37,-13.32 53.29,42.52 0.29,1.99 0.29,4.26 -0.56,6.52 -10.49,24.1 -37.99,78.24 -33.45,106.3 1.13,8.22 2.55,16.16 -1.14,24.95 -24.38,60.94 -51.87,106.3 -82.77,137.76 -19.56,15.59 -37.98,30.05 -50.17,37.7 -3.97,1.99 -8.22,3.97 -12.47,5.67 -7.94,0 -36.57,6.81 -63.22,13.89 -42.52,1.42 -90.14,-10.2 -143.15,-32.6 l -4.25,0 c -18.14,21.55 -38.83,36.57 -61.51,52.73 -73.976,52.44 -103.179,67.46 -190.206,92.97 -40.25,11.91 -81.633,19.85 -124.441,24.38 -33.442,3.4 -111.399,11.91 -141.731,-1.98 -11.898,10.77 -25.508,20.12 -37.98,28.63 -10.207,7.08 -19.559,13.6 -26.079,19.27 -38.839,35.72 -63.21,52.73 -100.351,52.73 -35.149,-0.29 -79.367,-17.01 -158.738,-49.32 -12.469,-5.11 -25.231,-2.27 -37.129,-8.51 -13.614,-7.09 -26.364,-22.68 -38.84,-38.27 -8.781,-10.77 -17.57,-21.54 -25.793,-28.63 -0.289,-0.28 -0.57,-0.28 -0.57,-0.56 l -0.278,0 c -2.84,-2.84 -5.953,-5.96 -9.07,-9.07 -3.121,-3.41 -6.242,-6.52 -9.07,-9.64 -3.9692,-3.97 -3.6918,-10.49 0.558,-14.74 15.879,-14.74 40.539,-5.39 56.699,0 12.473,3.97 62.364,19.27 62.364,19.27 18.988,-18.71 36.566,-86.17 52.718,-115.37 3.692,-9.92 6.52,-20.69 8.79,-30.89 -8.5,-12.76 -16.719,-26.37 -24.09,-41.11 -28.629,-54.71 -19,-119.62 -9.93,-180.28 5.672,-36.28 10.781,-70.87 7.09,-99.5 -8.219,-65.48 5.672,-91.27 23.531,-123.59 10.488,-18.99 22.391,-40.53 30.899,-75.68 0.281,-0.29 0.281,-0.57 0.281,-1.14 40.82,-138.613 72.847,-190.481 225.347,-231.871" /><path
         id="path48"
         style="fill:#000000;fill-opacity:1;fill-rule:evenodd;stroke:none"
         d="m 563.227,1283.76 c 4.25,-21.54 31.75,-54.43 45.07,-68.88 28.348,3.12 63.5,14.74 84.469,23.53 -37.981,-5.39 -90.989,1.98 -129.539,45.35" /><path
         id="path50"
         style="fill:#5b5b5b;fill-opacity:1;fill-rule:evenodd;stroke:none"
         d="m 479.887,1163 c -9.641,-52.16 32.308,-32.3 53.011,-42.8 3.969,-1.99 8.5,-6.52 10.77,1.14 4.25,14.73 0,24.09 -6.52,34.29 -7.089,11.34 -50.742,40.55 -57.261,7.37" /><path
         id="path52"
         style="fill:#5b5b5b;fill-opacity:1;fill-rule:evenodd;stroke:none"
         d="m 666.406,1113.68 c -0.277,-54.14 -36.847,-16.44 -58.39,-17.29 -4.258,-0.28 -9.637,-2.84 -10.207,5.67 -1.422,15.87 4.539,23.24 12.468,30.05 12.481,10.77 56.411,13.89 56.129,-18.43" /><path
         id="path54"
         style="fill:#000000;fill-opacity:1;fill-rule:nonzero;stroke:none"
         d="m 826.281,1320.89 c 3.68,-1.42 7.371,-2.55 10.77,-4.25 8.219,-3.96 16.16,-5.94 25.23,-2.55 6.52,2.27 14.168,1.41 19.559,1.7 6.801,-8.79 11.34,-17.29 18.14,-22.95 5.672,-4.82 14.172,-6.53 21.262,-9.64 3.117,-1.14 6.52,-2.27 9.641,-3.7 8.5,-3.39 9.347,-6.8 3.398,-13.89 -1.422,-1.7 -4.25,-2.25 -6.242,-3.11 11.91,-19.28 31.184,-29.2 38.274,-48.19 -0.571,-0.85 -1.422,-1.7 -2.274,-2.54 -3.109,1.69 -6.519,3.11 -9.348,5.37 -10.769,9.36 -21.832,18.43 -31.468,29.2 -25.223,27.5 -55.84,47.05 -87.59,65.2 -3.684,2.26 -7.371,4.53 -10.774,6.52 0.571,1.14 0.852,1.98 1.422,2.83" /><path
         id="path56"
         style="fill:#000000;fill-opacity:1;fill-rule:nonzero;stroke:none"
         d="m 656.484,1687.41 c -7.367,4.54 -15.308,7.94 -24.937,10.77 -20.41,5.95 -63.781,5.67 -106.59,0.57 -218.551,-25.23 -178.301,-144.28 -236.41,-207.21 -20.121,-21.83 -5.672,-66.33 9.359,-99.22 13.891,-31.18 37.981,-62.08 45.641,-78.8 15.59,-33.73 -2.84,-31.18 44.777,-51.02 52.442,-21.83 71.723,7.08 121.043,40.53 85.321,57.26 144.571,1.99 186.797,34.58 13.891,10.78 26.371,31.47 36.863,69.45 11.328,39.69 -41.113,258.82 -76.543,280.35" /><path
         id="path58"
         style="fill:#fdfdfd;fill-opacity:1;fill-rule:evenodd;stroke:none"
         d="m 588.738,1544.83 c 3.399,-9.35 5.95,-19.28 7.371,-28.91 2.547,-20.13 3.118,-48.48 -13.32,-64.35 -19.851,-19.56 -50.18,-13.89 -75.121,-22.68 -29.199,-10.49 -58.68,-19.56 -90.141,-20.12 -57.828,-0.85 -74.839,42.23 -73.14,87.3 1.703,49.33 34.019,104.32 85.89,125.01 53.582,21.26 105.172,7.37 136.629,-36.56 8.793,-12.19 16.442,-25.52 21.832,-39.69" /><path
         id="path60"
         style="fill:#89866a;fill-opacity:1;fill-rule:evenodd;stroke:none"
         d="m 475.918,1599.82 c 1.422,0.28 2.832,0.28 4.25,0.28 13.609,0.85 38.551,-1.41 52.73,-7.93 11.051,-5.39 20.692,-25.23 25.219,-35.15 8.793,-18.14 15.883,-38.27 6.524,-57.26 -4.532,-9.36 -11.903,-17.01 -18.422,-25.51 -5.668,-7.66 -11.34,-15.31 -17.86,-22.4 -9.921,-10.77 -21.539,-19.27 -35.718,-24.94 -22.391,-9.07 -50.743,-12.19 -74.262,-3.69 -37.141,13.61 -54.711,48.47 -51.879,83.62 3.969,47.06 36.57,64.92 79.09,84.48 9.64,4.25 19.84,7.37 30.328,8.5" /><path
         id="path62"
         style="fill:#c8be78;fill-opacity:1;fill-rule:evenodd;stroke:none"
         d="m 466.848,1616.55 c 1.699,0.28 3.121,0.28 4.82,0.28 33.73,2.55 66.051,-9.63 81.641,-38.83 9.07,-16.73 16.148,-35.15 18.418,-54.14 5.39,-39.12 -7.938,-56.41 -39.68,-79.37 -15.027,-11.06 -50.738,-14.18 -69.168,-13.33 -20.973,1.14 -40.531,9.36 -56.41,22.4 -30.61,24.94 -40.531,66.61 -23.242,102.05 15.019,31.46 44.5,56.69 83.621,60.94" /><path
         id="path64"
         style="fill:#000000;fill-opacity:1;fill-rule:evenodd;stroke:none"
         d="m 565.211,1527.54 c -15.59,-40.25 -62.359,-62.36 -104.32,-50.46 -41.661,11.63 -62.922,52.73 -47.621,92.13 15.308,39.68 61.8,63.21 103.75,51.87 42.242,-11.34 63.781,-53.57 48.191,-93.54" /><path
         id="path66"
         style="fill:#ffffff;fill-opacity:1;fill-rule:evenodd;stroke:none"
         d="m 518.723,1582.53 c -12.469,1.7 -23.532,-5.95 -24.66,-17.57 -1.141,-11.34 7.941,-22.12 20.41,-24.1 12.187,-1.7 23.238,5.95 24.66,17.58 1.129,11.62 -7.942,22.39 -20.41,24.09" /><path
         id="path68"
         style="fill:#000000;fill-opacity:1;fill-rule:evenodd;stroke:none"
         d="m 884.391,1453.55 c -9.352,-6.8 -17.86,-13.89 -25.231,-22.1 -15.308,-16.45 -34.301,-41.11 -30.328,-63.79 4.82,-27.5 35.148,-37.98 51.02,-58.68 18.711,-24.09 38.558,-47.62 65.769,-64.05 49.602,-30.34 92.689,-0.86 120.469,39.68 30.61,44.78 37.99,110.27 6.24,155.34 -33.17,46.21 -87.029,60.1 -143.15,37.41 -15.59,-6.23 -30.899,-14.16 -44.789,-23.81" /><path
         id="path70"
         style="fill:#89866a;fill-opacity:1;fill-rule:evenodd;stroke:none"
         d="m 1040.58,1423.22 c 23.81,-38.54 40.25,-70.58 13.89,-113.38 -19.56,-31.75 -56.411,-53 -96.661,-46.21 -25.231,4.53 -47.34,21.26 -60.661,40.53 -8.507,11.91 -13.039,25.52 -14.457,39.97 -1.132,9.36 -1.132,19 -1.132,28.35 0,10.49 -1.7,20.98 0.281,31.47 3.969,20.98 22.961,34.86 41.39,46.2 10.481,6.24 31.18,18.71 43.649,17.87 16.16,-1.43 39.121,-12.2 50.171,-19.86 1.14,-0.55 1.99,-1.41 3.12,-2.26 8.22,-6.24 15.02,-14.18 20.41,-22.68" /><path
         id="path72"
         style="fill:#c8be78;fill-opacity:1;fill-rule:evenodd;stroke:none"
         d="m 1070.91,1360.86 c -7.09,-39.68 -42.24,-70.87 -84.758,-76.54 -22.39,-2.83 -44.781,0.29 -64.062,10.21 -17.008,8.79 -46.199,30.05 -52.719,47.62 -13.328,36.28 -14.18,58.4 15.301,89.58 14.18,15.02 31.75,27.49 50.461,37.41 32.027,16.73 68.027,10.78 96.657,-9.07 1.14,-0.85 2.55,-1.7 3.69,-2.83 32.03,-23.81 41.95,-61.23 35.43,-96.38" /><path
         id="path74"
         style="fill:#000000;fill-opacity:1;fill-rule:evenodd;stroke:none"
         d="m 898.848,1428.04 c -11.91,-42.52 13.89,-85.32 56.98,-96.38 42.801,-10.77 86.452,13.89 98.362,56.13 11.9,41.95 -12.76,85.89 -55.561,97.23 -42.801,11.34 -87.871,-14.46 -99.781,-56.98" /><path
         id="path76"
         style="fill:#ffffff;fill-opacity:1;fill-rule:evenodd;stroke:none"
         d="m 973.117,1452.42 c 11.617,-4.82 16.16,-17.01 9.918,-27.5 -6.23,-10.48 -20.687,-15.3 -32.308,-10.77 -11.911,4.54 -16.161,17.01 -10.211,27.5 6.242,10.77 20.98,15.59 32.601,10.77" /><path
         id="path78"
         style="fill:#000000;fill-opacity:1;fill-rule:nonzero;stroke:none"
         d="m 979.066,490.91 0.282,-0.281 -0.282,-0.289 0,0.57 z m 0.282,-0.281 -0.282,0.281 0.282,-0.281 z m -27.211,-24.102 c -3.68,-3.968 -3.68,-10.199 0.57,-13.886 3.973,-3.973 10.492,-3.68 14.449,0.289 1.711,1.699 3.973,3.961 5.961,6.519 4.25,4.809 8.781,9.918 14.742,13.031 0.848,0.571 1.7,1.137 2.547,1.708 0.852,0.851 1.703,1.41 2.551,2.261 2.551,1.989 4.82,5.11 5.102,7.942 0.57,5.386 -3.403,10.199 -9.071,10.769 -3.679,0.57 -7.09,-1.133 -9.351,-3.68 0,-0.292 -0.289,-0.292 -0.571,-0.57 -0.57,-0.57 -0.57,-0.851 -0.847,-1.133 l -0.281,0 c -9.071,-4.816 -14.739,-11.339 -20.411,-17.578 -1.699,-1.98 -3.121,-3.679 -5.39,-5.672 m -55.27,24.661 c -2.84,-4.821 -1.14,-10.77 3.68,-13.598 5.101,-2.84 11.34,-1.141 14.172,3.398 3.687,6.242 8.219,9.071 13.609,12.473 4.25,2.84 9.07,5.949 14.168,11.059 3.973,3.679 3.973,9.918 0,13.89 -3.969,3.68 -10.488,3.68 -14.449,-0.293 -3.688,-3.398 -7.66,-5.949 -11.34,-8.219 -7.09,-4.82 -13.609,-9.07 -19.84,-18.71 m -5.668,66.902 c -4.261,-3.973 -4.261,-9.922 -0.293,-13.891 6.524,-6.801 16.16,-2.551 24.66,1.418 2.274,1.133 4.543,2.274 4.821,2.274 5.672,0.847 9.359,5.949 8.222,11.328 -0.851,5.39 -6.23,8.789 -11.902,7.941 -5.098,-0.851 -23.25,-7.082 -25.508,-9.07" /><path
         id="path80"
         style="fill:#e32e28;fill-opacity:1;fill-rule:evenodd;stroke:none"
         d="m 471.949,317.711 c 7.09,26.93 16.723,63.781 24.379,94.391 20.973,82.211 -24.949,268.441 -32.027,320.601 -5.672,39.399 -20.41,122.738 -3.41,169.231 l -34.582,12.187 c 0,0 -15.59,-14.461 -36.278,-61.508 -2.84,-6.519 -0.851,-72 9.641,-144.57 11.898,-82.492 32.879,-173.762 36.848,-197.859 7.929,-47.903 -11.059,-133.512 -22.961,-179.711 -5.11,-19.282 -8.789,-31.75 -8.789,-31.75 l 57.539,-17.012 c 0,0 3.972,15.019 9.64,36" /><path
         id="path82"
         style="fill:#e32e28;fill-opacity:1;fill-rule:evenodd;stroke:none"
         d="m 245.18,698.688 -5.102,1.98 c 30.61,-18.141 67.18,-24.367 84.192,-12.18 59.238,43.371 30.039,145.41 104.878,226.77 l -9.359,6.801 -32.309,29.761 c -10.21,-9.351 -20.41,-21.261 -30.332,-35.429 -27.5,-39.684 -51.031,-95.813 -59.25,-158.461 -1.128,-9.629 -7.929,-35.153 -19.55,-45.352 -16.16,-14.168 -33.168,-13.89 -33.168,-13.89" /><path
         id="path84"
         style="fill:#b62524;fill-opacity:1;fill-rule:evenodd;stroke:none"
         d="m 387.477,951.824 -11.911,21.258 C 185.367,932.832 155.609,772.395 220.52,714.844 c 5.949,-5.379 12.757,-9.922 19.558,-14.172 l 0.281,0.281 c 0,0 27.207,-8.5 43.09,19.559 -10.769,8.222 -38.84,30.621 -45.359,53.011 -10.774,36.571 20.129,119.34 117.93,143.719 l 1.128,-0.847 c 9.918,14.168 20.129,26.078 30.329,35.429" /><path
         id="path86"
         style="fill:#c4c5c5;fill-opacity:1;fill-rule:evenodd;stroke:none"
         d="m 383.508,327.352 -4.539,-52.161 36.289,-8.222 23.242,-5.379 39.688,-9.07 16.152,52.441 -22.391,12.75 c -5.672,-20.973 -9.64,-36 -9.64,-36 l -57.539,17.008 c 0,0 3.679,12.472 8.789,31.75 l -0.571,0.281 -29.48,-3.398 z m 69.73,-201.832 c -6.23,16.441 -21.539,27.218 -32.031,34.019 -0.848,0.57 -1.977,1.422 -2.828,1.981 l -1.422,-1.7 c -8.219,-14.742 -11.34,-50.172 -1.129,-53.57 16.723,-5.102 43.371,2.828 37.41,19.27 m -53.57,69.449 c 8.223,37.422 15.59,71.152 15.59,71.152 l 0,0.848 23.242,-5.379 c -0.562,-4.262 -4.531,-28.918 -2.27,-51.309 1.708,-18.992 8.79,-23.25 33.739,-60.383 24.66,-37.418 -0.852,-61.5074 -23.531,-68.3082 -23.528,-7.0898 -71.43,2.2618 -68.321,15.5899 1.141,4.8203 8.793,39.6793 17.012,76.5313 1.422,7.09 2.84,14.18 4.539,21.258 m 0,0 -4.539,-21.258 -21.82,8.508 10.48,17" /><path
         id="path88"
         style="fill:#b62524;fill-opacity:1;fill-rule:evenodd;stroke:none"
         d="m 357.148,916.391 c 9.918,14.168 20.129,26.078 30.329,35.429 l 32.32,-29.761 9.351,-6.797 C 390.316,873.02 379.535,825.398 369.906,783.16 c -11.058,13.039 -32.89,37.418 -53.859,50.738 11.051,31.75 25.512,59.813 41.101,82.493" /><path
         id="path90"
         style="fill:#b62524;fill-opacity:1;fill-rule:evenodd;stroke:none"
         d="m 390.027,852.609 c 20.692,47.063 36.282,61.512 36.282,61.512 l 34.589,-12.191 c -17.007,-46.489 -2.269,-129.821 3.403,-169.231 3.679,-26.918 17.566,-89.57 27.488,-155.051 -25.789,35.43 -52.148,65.481 -68.309,76.25 -5.671,3.973 -11.339,7.942 -17.011,11.622 -2.27,14.179 -4.531,28.628 -6.801,42.519 -10.488,72.57 -12.469,138.051 -9.641,144.57" /><path
         id="path92"
         style="fill:#b62524;fill-opacity:1;fill-rule:evenodd;stroke:none"
         d="m 277.777,712.297 c 20.129,-8.793 43.649,-10.203 62.36,-8.5 -4.532,-5.672 -9.641,-10.781 -15.871,-15.313 -17.008,-12.187 -53.578,-5.949 -84.188,12.192 l 5.098,-1.992 c 0,0 16.73,-0.278 32.601,13.613" /><path
         id="path94"
         style="fill:#b62524;fill-opacity:1;fill-rule:evenodd;stroke:none"
         d="m 471.949,317.711 c -5.668,-20.981 -9.64,-36 -9.64,-36 l -57.539,17.012 c 0,0 3.679,12.468 8.789,31.75 5.671,22.109 12.75,52.718 18.14,84.179 15.871,-15.019 32.879,-26.64 55.27,-39.679 -5.379,-20.129 -10.77,-40.539 -15.02,-57.262" /><path
         id="path96"
         style="fill:#9c9d9d;fill-opacity:1;fill-rule:evenodd;stroke:none"
         d="m 429.148,104.832 c 14.457,0.57 28.629,8.219 24.09,20.688 -1.703,4.543 -3.961,8.511 -6.8,12.191 0.281,0.852 0.57,1.422 0.57,1.422 0,0 -1.992,11.617 -4.539,18.707 -5.672,15.871 -21.262,29.762 -40.531,42.519 0.847,7.93 11.339,60.383 11.339,60.383 l 18.7,-4.262 11.339,26.93 6.52,1.422 12.48,-3.121 c 0,0 3.961,15.031 9.629,36 l 22.403,-12.75 -16.16,-52.449 -40.821,1.988 c -0.851,-3.969 -3.398,-21.828 -1.129,-44.219 1.7,-18.992 8.778,-23.25 33.731,-60.379 24.66,-37.422 -0.852,-61.5114 -23.531,-68.3122 -23.532,-7.0898 -71.43,2.2618 -68.309,15.5899 0,0 37.406,-0.5703 49.598,6.8003 0.57,0.282 0.851,0.571 1.421,0.852" /><path
         id="path98"
         style="fill:#000000;fill-opacity:1;fill-rule:evenodd;stroke:none"
         d="m 430.848,919.793 c -29.481,17.566 -37.981,35.43 -54.711,62.648 l -8.5,-1.992 c -28.918,-7.367 -57.547,-17.859 -83.34,-32.879 -27.5,-16.16 -52.16,-37.418 -70.02,-63.5 -18.14,-25.789 -29.187,-56.41 -30.039,-87.59 l 0,-1.699 c -0.57,-30.332 9.629,-62.359 34.008,-83.34 12.192,-10.199 26.082,-18.421 41.102,-24.089 14.742,-5.672 30.621,-9.922 47.629,-8.789 4.25,0.289 8.5,1.136 12.472,2.546 4.25,1.422 8.219,4.25 11.047,6.524 6.813,5.097 12.192,11.058 16.731,17.859 9.351,13.039 15.019,27.778 19.562,42.52 6.801,22.961 11.34,46.211 17.859,68.597 0.282,-10.488 0.848,-20.976 1.411,-31.468 1.699,-23.52 4.539,-47.051 8.218,-70.289 6.813,-46.782 17.012,-92.981 26.082,-139.192 4.25,-22.961 8.789,-46.199 12.188,-69.16 2.84,-22.68 0.851,-46.207 -2.27,-69.168 -4.531,-34.301 -11.898,-68.312 -20.687,-102.039 l -26.934,-2.844 c -2.547,-0.277 -4.25,-2.269 -4.527,-4.527 l -4.262,-52.16 c -0.277,-2.27 0.852,-3.969 2.551,-4.821 7.66,-5.101 15.602,-8.789 23.82,-12.191 2.258,-0.848 4.809,-1.699 7.371,-2.551 -3.972,-18.136 -7.941,-36.566 -12.191,-54.707 l -10.211,2.551 c -2.269,0.566 -4.82,-0.281 -5.949,-2.273 l -10.488,-17 c -0.852,-1.418 -0.852,-2.84 -0.571,-4.258 0.571,-1.41 1.707,-2.551 3.117,-3.11 0.293,0 8.793,-3.121 17.293,-6.519 -1.132,-4.82 -1.98,-9.641 -3.113,-14.184 l -12.476,-55.269 -0.563,-1.6995 -0.289,-0.8477 0,-1.4219 c -0.281,-0.2812 -0.281,-1.9804 0,-3.3984 0.289,-1.4219 0.57,-2.5508 1.141,-3.4023 1.98,-3.6875 4.82,-5.668 7.078,-7.3672 5.109,-3.1211 10.211,-4.8203 15.312,-6.5235 10.207,-2.8398 20.41,-4.2578 30.899,-4.539 10.199,-0.5703 21.82,0.8515 32.031,5.9492 10.199,4.543 19.277,11.9101 25.23,22.4023 5.95,10.199 6.52,22.961 3.399,33.449 -2.84,10.77 -9.07,20.121 -14.168,27.782 l -16.731,23.238 c -2.832,3.969 -5.382,7.648 -7.371,11.058 -1.98,3.684 -3.398,6.801 -4.25,11.051 -1.422,8.223 -1.98,17.57 -1.98,26.653 0,4.808 0.281,9.917 0.281,14.738 11.617,-1.418 23.238,-1.988 34.867,-1.141 2.551,0 4.532,1.699 5.102,3.692 l 16.148,52.441 c 0.864,2.27 -0.277,4.527 -2.258,5.668 l -17.582,10.199 c 3.692,12.473 7.09,24.66 10.493,37.141 l 10.211,38.551 c 3.109,12.468 6.796,26.078 7.648,39.679 2.551,26.93 0.57,53.86 -2.27,80.219 -2.55,26.359 -7.089,52.441 -11.339,78.52 l -13.891,77.96 c -4.82,26.36 -9.641,51.59 -13.039,77.95 -3.973,26.363 -7.652,51.871 -7.371,77.953 0.289,22.957 3.121,45.637 8.219,67.75 l 0.57,11.047 c -17.57,6.519 -35.43,12.48 -37.699,13.613 m -37.7,-728.223 c -0.57,-3.687 -1.421,-7.09 -2.269,-10.769 -3.68,1.422 -7.09,2.832 -9.922,3.969 l 5.391,8.5 6.8,-1.7 z m 24.661,61.789 c 2.55,-0.847 5.097,-1.41 7.648,-1.976 1.992,-0.281 3.691,-0.57 5.391,-0.852 -2.551,-15.019 -3.692,-29.761 -2.27,-45.922 0.57,-5.386 2.27,-11.058 4.82,-15.867 2.551,-4.82 5.098,-9.082 7.942,-13.043 l 16.156,-23.816 c 5.383,-7.934 9.922,-14.742 12.184,-22.391 2.269,-7.371 1.707,-14.742 -1.41,-21.543 -3.403,-6.519 -9.641,-12.1873 -17.012,-16.156 -7.09,-3.9727 -15.59,-5.3907 -24.66,-5.6719 -9.071,-0.2813 -18.43,0.8516 -27.211,2.8398 -4.539,1.1289 -8.789,2.5508 -11.91,4.5313 -1.7,0.8476 -2.829,1.9883 -3.118,2.5508 0,-0.2813 -0.281,-0.8516 0,0 l 0,1.1367 0.571,1.7031 11.617,55.5582 c 0.851,3.961 1.699,7.93 2.551,11.899 3.968,-1.981 7.66,-3.68 12.191,-6.52 -6.242,-13.32 -9.641,-38.269 -4.82,-50.461 2.269,-5.097 5.39,-7.078 7.66,-7.929 3.68,-1.137 7.93,-1.6995 11.898,-1.6995 10.77,-0.2891 21.832,3.1215 27.782,9.0705 5.39,5.101 6.8,11.621 4.25,18.422 -6.801,18.429 -24.379,30.047 -33.731,36.289 -9.922,6.801 -15.019,9.347 -23.238,13.039 5.379,25.512 11.047,51.301 16.719,76.808 m 2.269,-99.207 c 9.352,-6.23 22.961,-15.871 28.059,-30.332 1.14,-3.121 0.57,-5.668 -1.699,-7.937 -5.668,-5.66 -19.559,-7.653 -28.911,-4.813 -4.25,2.551 -3.968,28.063 2.551,43.082 m -13.32,170.93 c -2.27,-8.5 -4.539,-16.723 -7.09,-24.941 -0.281,-1.418 0,-2.84 0.852,-3.969 l 1.128,-1.422 c 3.692,-4.527 8.219,-7.648 13.04,-10.488 4.82,-2.551 9.921,-4.532 15.308,-5.949 10.203,-2.833 21.262,-4.25 32.313,-1.704 2.269,0 4.257,1.422 5.109,3.403 l 0,0.281 c 3.398,9.637 6.23,19.277 9.07,28.918 l 11.621,-6.52 -13.89,-44.511 -20.692,3.41 c -8.218,1.41 -16.437,2.832 -24.66,4.531 -7.937,1.699 -15.879,3.692 -23.82,5.949 -6.801,1.993 -13.598,4.262 -20.399,6.52 l 3.68,44.223 18.43,2.269 z m -8.789,529.231 c 8.789,19.558 20.41,37.98 34.859,53.859 5.961,-3.121 12.192,-5.949 18.711,-8.223 -4.25,-24.097 -6.519,-48.469 -5.383,-72.847 0.563,-26.93 5.102,-53.289 9.922,-79.372 7.649,-52.16 20.969,-103.468 28.34,-155.621 4.262,-26.078 7.09,-52.16 9.078,-78.238 1.703,-26.078 2.262,-52.16 -0.566,-77.672 -0.571,-6.238 -1.703,-12.758 -3.121,-18.707 l -4.821,-18.992 -9.64,-38.551 c -5.668,-23.808 -11.328,-48.187 -16.719,-72 -8.223,2.274 -15.871,4.531 -23.813,6.801 -7.937,2.27 -15.878,4.543 -23.808,7.09 12.469,43.93 22.961,88.723 28.91,134.359 2.84,23.531 4.82,47.344 1.422,71.434 -3.973,23.527 -9.363,46.207 -14.184,69.449 -9.629,45.918 -17.847,92.41 -24.09,138.898 -5.949,45.922 -9.636,92.411 -5.097,138.333 M 254.816,697.27 c 1.981,0 3.973,0.281 5.954,0.851 7.089,1.988 13.32,5.672 18.429,10.488 9.918,9.922 15.59,22.391 19.27,34.871 1.988,6.231 2.84,13.032 3.687,19.27 1.133,6.242 2.262,12.473 3.403,18.711 2.55,12.191 5.949,24.66 9.64,36.852 7.649,24.089 17.289,47.617 29.758,69.73 11.91,20.977 26.082,40.539 43.371,57.258 0.281,0 0.281,-0.281 0.281,-0.281 9.071,-11.059 19.848,-20.977 31.75,-29.2 -19.562,-22.679 -33.453,-49.32 -42.23,-77.097 -9.641,-29.203 -14.18,-59.243 -22.109,-87.871 -3.973,-14.18 -8.793,-28.071 -17.012,-40.262 -3.969,-5.668 -8.789,-11.34 -14.18,-15.867 -3.109,-2.551 -5.379,-4.543 -8.781,-5.672 -2.84,-1.418 -6.52,-2.27 -9.918,-2.828 -14.742,-1.711 -30.051,1.976 -43.941,7.648 -2.551,0.852 -5.098,1.981 -7.372,3.399 m 29.481,29.203 c -18.43,10.488 -35.43,26.636 -42.238,46.488 -3.403,9.922 -2.551,20.969 -0.563,31.738 1.981,10.492 5.66,20.981 10.774,30.621 10.199,19.563 25.507,36.852 43.648,49.891 15.02,11.051 32.32,18.711 50.738,24.09 -3.679,-5.668 -6.797,-11.34 -9.918,-17.008 -12.468,-22.961 -22.109,-47.051 -29.48,-72 -3.692,-12.184 -6.801,-24.941 -9.07,-37.41 -1.141,-6.524 -2.27,-12.762 -3.122,-19.281 -0.847,-6.52 -1.699,-12.192 -3.398,-18.422 -1.699,-6.52 -4.25,-12.758 -7.371,-18.707 m -89.289,69.726 c 1.41,28.91 12.469,57.262 30.039,80.793 17.301,23.809 40.82,43.367 67.191,57.539 26.071,14.168 54.418,23.239 83.899,29.199 1.703,-3.398 3.691,-6.519 5.953,-9.64 -10.203,-9.918 -19.274,-20.981 -27.211,-32.598 l -0.281,0.571 c -22.68,-5.954 -45.071,-16.442 -64.071,-30.333 -18.988,-14.179 -34.578,-32.32 -45.07,-53.007 -5.098,-10.493 -9.07,-21.543 -11.328,-32.883 -1.992,-11.34 -2.27,-23.25 1.41,-34.867 3.399,-11.34 10.207,-21.543 17.859,-30.332 7.372,-8.5 15.59,-15.871 25.231,-22.68 -1.422,-1.699 -2.551,-3.398 -3.973,-5.102 -4.527,-4.25 -9.636,-7.367 -15.59,-9.066 -4.82,-1.422 -10.199,-1.422 -15.589,-0.57 -6.797,3.968 -13.61,8.789 -19.559,14.179 -21.828,19.559 -30.609,50.168 -28.91,78.797" /><path
         id="path100"
         style="fill:#e32e28;fill-opacity:1;fill-rule:evenodd;stroke:none"
         d="m 598.094,621.586 c 12.187,-8.219 84.758,-36.281 103.75,-25.512 26.636,14.742 138.047,121.602 58.679,280.91 l -51.031,-12.75 c 43.371,-76.257 3.399,-198.429 -55.84,-235 l 0,0.293 c -18.429,-11.621 -38.839,-14.742 -59.531,-5.39 1.141,-0.852 2.551,-1.699 3.973,-2.551" /><path
         id="path102"
         style="fill:#b62524;fill-opacity:1;fill-rule:evenodd;stroke:none"
         d="m 683.98,864.516 -54.707,6.242 c -3.121,-90.153 -75.679,-125.012 -71.722,-186.524 1.992,-33.168 19.851,-48.476 36.57,-60.097 20.692,-9.352 41.102,-6.231 59.531,5.39 -22.39,17.86 -39.691,33.45 -37.98,59.239 2.551,39.968 81.629,86.179 68.308,175.75" /><path
         id="path104"
         style="fill:#b62524;fill-opacity:1;fill-rule:evenodd;stroke:none"
         d="m 727.637,784.863 c 0.566,28.348 -4.821,56.129 -18.141,79.367 l 51.02,12.762 c 10.488,-20.699 17.289,-40.82 21.828,-59.531 -17.578,-17.289 -38.547,-28.348 -54.707,-32.598" /><path
         id="path106"
         style="fill:#b62524;fill-opacity:1;fill-rule:evenodd;stroke:none"
         d="m 701.84,596.074 c -18.988,-10.769 -91.559,17.289 -103.75,25.512 -1.418,0.848 -2.828,1.699 -3.969,2.551 20.699,-9.352 41.109,-6.231 59.527,5.386 l 0,-0.277 c 6.243,3.957 11.911,8.777 17.582,14.168 23.239,-7.09 46.77,-11.617 68.032,-12.469 -15.032,-18.711 -29.774,-30.621 -37.422,-34.871" /><path
         id="path108"
         style="fill:#000000;fill-opacity:1;fill-rule:evenodd;stroke:none"
         d="m 666.125,603.445 c -12.191,3.121 -24.09,7.09 -36,11.34 1.699,0.57 3.68,0.57 5.391,1.129 14.738,3.691 27.488,11.91 37.976,21.262 21.262,19.558 35.434,43.937 45.922,69.449 10.211,25.512 16.16,52.73 16.731,80.5 0.558,23.25 -3.122,47.34 -12.481,69.449 12.191,2.27 24.102,5.391 35.719,9.36 10.492,-23.25 18.14,-47.618 21.262,-72.571 3.679,-28.058 1.418,-56.687 -6.52,-83.617 -7.941,-27.211 -21.832,-52.73 -39.973,-74.84 -9.07,-11.051 -18.988,-21.543 -30.328,-29.761 -2.832,-1.981 -5.672,-3.969 -7.648,-4.25 -1.992,-0.571 -5.672,-0.848 -8.793,-0.571 -6.801,0.289 -14.168,1.699 -21.258,3.121 m 16.719,193.891 c 6.808,17.57 10.211,38.828 9.359,58.109 3.973,0 7.942,0.282 11.902,0.571 10.489,-20.411 15.028,-45.36 15.309,-68.891 0.281,-25.512 -4.531,-51.301 -13.601,-75.68 -8.79,-24.379 -21.829,-47.91 -40.54,-66.05 -3.691,-3.122 -7.371,-6.231 -11.339,-9.071 -7.942,5.672 -15.309,11.621 -21.539,18.711 -7.09,7.942 -11.911,17.578 -12.469,27.5 -1.141,10.481 3.109,19.84 8.777,29.192 5.672,9.07 12.481,17.859 19.281,26.929 13.321,18.141 26.36,37.141 34.86,58.68 m -46.199,63.211 c 10.199,-3.121 20.98,-5.383 31.75,-6.231 3.121,-0.57 6.23,-0.57 9.07,-0.851 1.98,-17.578 0.277,-35.442 -5.672,-52.449 -6.801,-20.403 -18.711,-39.11 -31.75,-57.25 -6.238,-9.082 -13.039,-18.153 -18.988,-28.071 -2.84,-4.82 -5.672,-10.199 -7.371,-15.871 -1.989,-5.668 -2.551,-12.187 -2.27,-17.578 0.57,-12.473 6.238,-23.812 13.891,-32.883 5.668,-7.09 12.187,-13.039 18.988,-18.988 -3.68,-1.988 -7.648,-3.691 -11.617,-4.82 -8.5,-2.551 -17.863,-2.551 -26.641,-0.571 -0.57,0.289 -0.851,0.571 -1.422,0.852 -5.39,3.117 -11.91,7.66 -17.008,11.91 -10.492,8.789 -17.863,20.129 -20.691,32.879 -3.121,13.039 -2.84,26.648 1.129,39.398 8.223,25.801 28.062,48.481 42.801,74.551 13.609,22.961 23.25,49.039 25.801,75.973 m -16.442,5.387 0.852,-0.289 c -1.7,-26.071 -10.211,-51.02 -23.532,-73.981 -13.89,-24.66 -34.007,-47.617 -43.648,-77.668 -4.82,-15.019 -5.102,-31.18 -1.422,-46.492 3.692,-15.59 13.32,-30.039 25.801,-39.969 2.828,-2.551 6.23,-4.808 9.351,-7.082 3.118,-2.269 5.95,-4.539 9.918,-6.519 7.372,-3.969 14.172,-6.797 21.54,-9.637 14.179,-5.391 28.921,-10.203 43.941,-13.613 7.66,-1.7 15.309,-3.11 23.809,-3.399 3.972,-0.281 8.222,-0.281 13.332,1.141 5.378,1.41 8.781,4.25 11.898,6.519 12.762,9.352 23.25,20.41 32.602,32.309 18.988,23.531 33.449,50.461 41.668,79.09 8.5,28.91 10.492,59.242 6.242,88.441 -3.41,26.078 -11.629,51.309 -22.68,75.121 0.559,0 0.848,0.278 1.129,0.278 l 1.141,0.57 c -5.391,5.672 -7.372,4.25 -14.461,10.769 -14.461,-9.918 -102.621,-13.32 -123.309,-1.699" /><path
         id="path110"
         style="fill:#000000;fill-opacity:1;fill-rule:nonzero;stroke:none"
         d="m 897.973,545.801 c -0.922,0 -1.832,0.109 -2.692,0.332 -3.25,0.828 -5.769,3.199 -6.918,6.129 -14.761,16.781 0.117,36.429 9.219,48.461 3.5,4.617 8.789,11.609 8.93,14.308 0.289,5.469 5.051,9.731 10.429,9.371 5.481,-0.281 9.672,-4.961 9.379,-10.429 -0.468,-8.774 -6.507,-16.762 -12.918,-25.223 -12.718,-16.82 -13.218,-20.859 -8.281,-25.199 3.531,-3.102 4.731,-8.789 2.402,-12.879 -1.781,-3.109 -5.793,-4.871 -9.55,-4.871" /></g></g></svg>