<?xml version="1.0" encoding="UTF-8" standalone="no"?>
<svg
   xmlns:dc="http://purl.org/dc/elements/1.1/"
   xmlns:cc="http://creativecommons.org/ns#"
   xmlns:rdf="http://www.w3.org/1999/02/22-rdf-syntax-ns#"
   xmlns:svg="http://www.w3.org/2000/svg"
   xmlns="http://www.w3.org/2000/svg"
   viewBox="0 0 248.03751 248.03751"
   height="248.03751"
   width="248.03751"
   xml:space="preserve"
   version="1.1"
   id="svg2"><metadata
     id="metadata8"><rdf:RDF><cc:Work
         rdf:about=""><dc:format>image/svg+xml</dc:format><dc:type
           rdf:resource="http://purl.org/dc/dcmitype/StillImage" /></cc:Work></rdf:RDF></metadata><defs
     id="defs6" /><g
     transform="matrix(1.25,0,0,-1.25,0,248.0375)"
     id="g10"><g
       transform="scale(0.1,0.1)"
       id="g12"><path
         id="path14"
         style="fill:#000000;fill-opacity:1;fill-rule:nonzero;stroke:none"
         d="m 148.285,823.461 c 83.063,-86.457 126.141,-131.238 255.692,-84.758 2.257,0.848 5.097,1.418 7.929,1.418 10.489,-0.57 18.711,-9.348 17.86,-19.84 l -3.121,-49.039 c -0.559,-5.39 -3.118,-10.488 -7.93,-13.89 -1.988,-1.418 -3.41,-2.27 -4.82,-3.122 -61.797,-41.097 -124.161,-24.937 -177.739,11.34 -49.89,34.024 -91.84,85.614 -117.07,121.043 l 0,0.278 c -5.379,7.371 -9.352,13.332 -12.191,17.863 -2.547,3.687 -5.098,6.797 -7.0786,9.359 -8.5117,11.047 -13.0391,17.289 -5.3906,29.758 7.3712,11.902 16.1602,13.891 27.7812,6.52 3.398,-1.989 5.391,-4.539 8.508,-7.938 0.281,-0.281 0.562,-0.562 0.851,-0.851 1.981,-2.27 4.532,-5.668 7.93,-8.789" /><path
         id="path16"
         style="fill:#fdfdfd;fill-opacity:1;fill-rule:evenodd;stroke:none"
         d="m 410.773,721.414 c -146.269,-53.008 -190.488,0 -285.168,98.359 -10.199,10.493 -13.601,17.012 -15.019,14.461 -1.699,-2.55 4.539,-7.648 12.187,-19.281 40.543,-61.226 165.832,-226.769 284.883,-142.578" /><path
         id="path18"
         style="fill:#fdfdfd;fill-opacity:1;fill-rule:evenodd;stroke:none"
         d="m 1353.58,390.613 -0.57,0 c 18.14,-21.543 32.88,-39.402 44.22,-54.14 18.71,0.281 36.85,1.98 54.43,4.25 1.13,-0.282 1.98,-0.571 3.12,-0.852 5.38,-1.129 11.34,-1.98 18.14,-2.551 12.19,0.571 22.68,3.121 31.75,8.5 8.78,5.672 13.04,11.91 13.04,18.993 l 0,2.558 c 0,0.852 -0.29,1.41 -0.29,1.981 18.43,14.742 13.61,35.152 -14.74,60.949 1.7,22.961 -9.35,38.832 -31.18,47.332 -10.77,3.687 -23.53,6.238 -38.55,7.66 -7.65,0.277 -15.87,0.848 -24.09,0.848 -6.52,5.382 -14.46,9.351 -23.82,12.191 -22.39,7.371 -53.29,7.648 -93.54,1.41 -1.13,0 -2.55,0 -3.68,-0.558 l -1.42,-0.293 c 1.42,-3.399 3.12,-6.797 4.25,-10.2 1.42,-1.418 2.55,-3.121 3.97,-4.25 -76.25,-64.347 -45.64,-27.218 -30.33,-32.89 8.22,-3.11 -39.12,-44.5 3.12,-61.508 16.15,-6.52 47.9,33.168 69.16,20.699 5.95,-6.808 11.62,-13.89 17.01,-20.129" /><path
         id="path20"
         style="fill:#e1e2e2;fill-opacity:1;fill-rule:evenodd;stroke:none"
         d="m 1504.95,565.793 0,2.27 -0.85,-0.848" /><path
         id="path22"
         style="fill:#000000;fill-opacity:1;fill-rule:nonzero;stroke:none"
         d="m 1421.61,477.352 c 0.28,-1.981 0.57,-4.25 0.85,-6.52 0.28,-4.82 -0.28,-10.488 -2.55,-15.871 -3.97,-11.34 -14.17,-22.957 -34.87,-31.469 -0.28,0 -0.85,-0.281 -1.41,-0.57 -1.14,-0.559 -1.99,-1.129 -2.27,-1.41 -3.69,-2.84 -9.07,-1.989 -11.91,1.699 -2.55,3.68 -1.98,9.07 1.99,11.902 0.85,0.571 2.26,1.418 3.4,2.27 1.42,0.847 2.83,1.418 3.68,1.988 15.59,6.231 22.96,14.172 25.52,21.262 1.41,3.398 1.7,6.519 1.41,9.347 0,2.833 -0.85,5.391 -1.7,7.372 -0.28,1.128 -0.28,1.699 0,1.98 -0.28,0.289 -0.57,0.57 -1.13,0.852 -2.27,1.988 -5.39,3.968 -8.51,5.386 -3.4,1.981 -7.37,3.403 -11.62,4.821 -10.49,3.402 -22.96,5.101 -37.7,5.39 -13.32,0 -28.63,-1.14 -45.92,-3.687 l 0.28,0 c 0.29,-0.571 0.85,-1.422 1.42,-1.703 3.12,-3.118 3.12,-8.5 0,-11.911 -0.28,-0.277 -0.28,-0.277 -0.57,-0.558 -11.33,-9.359 -20.12,-16.731 -27.21,-22.399 1.7,-2.832 1.42,-6.23 0,-10.492 -1.13,-2.828 -2.83,-5.949 -5.1,-9.629 -2.27,-3.968 -5.39,-8.789 -7.37,-13.89 -3.4,-8.508 -3.69,-17.86 10.2,-23.532 3.4,-1.417 11.91,3.68 20.98,9.352 15.87,9.641 33.17,20.129 49.32,10.488 1.14,-0.558 1.99,-1.129 2.55,-1.976 3.12,-3.692 5.96,-7.09 8.51,-9.922 2.55,-2.84 5.38,-6.52 8.22,-9.918 0.57,-0.852 0.85,-1.711 1.42,-2.274 7.65,-9.636 15.3,-18.429 22.67,-27.5 6.52,-7.648 12.19,-14.738 17.29,-21.257 7.37,0.289 15.03,0.57 22.68,1.418 9.07,0.57 17.86,1.703 26.36,2.832 1.42,0.289 2.55,0 3.69,-0.282 0.85,-0.281 1.7,-0.57 2.55,-0.847 2.55,-0.571 5.1,-0.852 7.65,-1.422 2.84,-0.281 5.67,-0.559 8.51,-0.852 5.38,0.293 10.49,0.852 15.02,1.993 4.25,1.41 8.5,3.109 12.19,5.378 3.4,1.993 5.95,4.25 7.37,6.243 1.13,1.699 1.7,3.679 1.7,5.379 l 0,2.558 c -0.85,3.402 0.28,6.801 3.12,8.781 1.13,1.141 2.27,1.989 3.12,3.121 3.4,3.688 4.82,7.649 4.25,11.911 -0.57,5.379 -3.69,11.617 -9.07,18.707 -2.84,3.402 -5.95,6.8 -9.64,10.48 -3.12,-4.527 -6.52,-8.219 -9.92,-11.617 -7.65,-7.371 -16.73,-11.902 -28.63,-13.043 -4.54,-0.277 -8.79,3.121 -9.07,7.66 -0.57,4.813 2.83,8.781 7.65,9.352 7.66,0.57 13.32,3.687 18.43,8.218 5.1,4.821 9.63,11.622 14.45,19.563 -0.56,5.387 -2.26,9.918 -5.1,14.168 -4.25,6.519 -11.05,11.621 -20.41,15.031 l -0.28,0 c -4.54,1.699 -9.92,3.11 -15.88,4.527 -5.95,1.141 -12.75,1.993 -20.12,2.551 l -0.29,0 c -3.4,0.289 -6.8,0.571 -10.2,0.571 m -74.83,-92.692 c -0.86,0.852 -1.42,1.981 -1.99,3.121 -1.7,1.981 -3.68,4.532 -5.95,7.082 -2.55,3.399 -5.1,6.239 -7.66,9.071 -7.37,3.117 -19.55,-4.25 -30.89,-11.051 -13.04,-7.942 -24.95,-15.313 -36,-10.77 -26.93,11.047 -26.36,29.188 -19.56,45.918 1.7,3.973 3.4,7.653 5.38,11.051 -9.35,-5.102 -13.6,0 -13.6,6.809 0,2.261 2.55,6.519 6.8,9.07 0.85,0.562 1.98,1.133 3.12,1.699 5.95,4.25 17.29,13.043 36.28,28.91 -0.56,1.703 -1.13,3.121 -1.98,4.821 -0.57,1.703 -1.42,3.402 -1.99,5.101 -0.28,0.289 -0.28,0.571 -0.28,0.571 -1.42,4.531 0.85,9.347 5.39,10.769 l 1.41,0.57 c 2.27,0.559 3.97,0.852 5.96,0.852 20.12,3.117 37.98,4.527 53.85,4.25 16.45,-0.281 30.62,-2.274 42.52,-5.953 5.11,-1.699 9.93,-3.688 14.18,-5.668 3.68,-1.992 6.8,-3.973 9.92,-6.242 7.09,0 14.17,-0.571 20.98,-0.848 l 0.85,0 c 7.93,-0.57 15.3,-1.699 22.11,-3.121 6.52,-1.129 12.47,-2.828 18.14,-4.82 l 0.56,-0.282 c 12.76,-4.816 22.4,-12.187 28.63,-21.539 5.67,-8.508 8.51,-18.711 8.22,-30.328 5.11,-4.543 9.08,-9.07 12.48,-13.332 7.65,-9.629 11.9,-18.711 13.04,-27.211 0.85,-9.347 -1.99,-17.859 -8.79,-25.508 l -1.7,-1.699 0,-1.14 c 0,-5.102 -1.7,-10.2 -4.82,-14.743 -2.84,-4.25 -6.8,-7.929 -12.47,-11.328 -5.11,-3.41 -10.77,-5.672 -16.73,-7.09 -5.95,-1.699 -12.19,-2.55 -18.71,-2.55 -0.28,-0.289 -0.85,-0.289 -1.13,-0.289 -3.68,0.289 -7.09,0.57 -10.2,1.14 -3.12,0.57 -6.24,1.129 -9.08,1.699 l -0.56,0 c -0.57,0.282 -1.14,0.282 -1.42,0.571 -8.79,-1.141 -17.29,-2.27 -25.51,-2.84 -8.79,-0.852 -18.14,-1.129 -27.78,-1.422 -2.55,-0.277 -5.39,0.852 -7.09,3.121 -5.95,7.66 -12.47,15.59 -19.56,24.379 -6.8,8.223 -15.02,18.141 -24.37,29.199" /><path
         id="path24"
         style="fill:#fdfdfd;fill-opacity:1;fill-rule:evenodd;stroke:none"
         d="m 519.059,1064.69 c -34.02,2.27 -85.039,-26.65 -120.762,-86.741 C 369.957,930.043 353.52,777.82 351.816,716.602 342.746,399.121 699.059,418.672 927.246,432 c -3.398,-4.25 -5.949,-8.789 -8.5,-13.891 -1.988,-13.886 3.961,-24.097 18.141,-29.476 20.121,-3.692 40.82,-5.391 62.64,-4.25 39.123,-0.57 78.243,-2.84 118.213,-8.231 -3.12,5.668 -5.96,11.629 -9.07,17.297 -8.22,19.274 -2.55,40.813 -15.88,54.703 -1.41,1.141 -2.27,1.989 -3.12,3.411 -5.38,6.519 -10.48,13.597 -14.45,21.257 l -1.7,0.282 c 20.12,18.711 23.24,41.949 27.49,65.757 11.34,62.934 21.26,106.59 23.25,172.352 2.55,79.371 4.82,99.5 -26.37,177.73 -19.27,47.911 -91.84,87.309 -128.691,136.059 -67.179,89.3 -106.011,93.83 -197.293,104.89 2.551,13.6 3.692,25.51 3.121,36 -1.699,24.37 -11.91,39.97 -30.621,47.9 -0.847,0.57 -1.699,0.57 -1.976,0.85 -1.422,0.57 -2.274,0.85 -3.403,1.42 -1.418,0.28 -3.121,0.28 -4.25,0.28 -10.211,1.42 -9.359,14.18 -18.429,12.48 -4.532,-0.57 -9.071,-1.7 -13.891,-3.69 -10.769,-7.94 -24.379,-22.39 -32.027,-37.98 -11.621,1.98 -35.434,26.36 -51.59,21.54 -32.883,-7.94 -80.793,-91.56 -99.781,-144" /><path
         id="path26"
         style="fill:#000000;fill-opacity:1;fill-rule:nonzero;stroke:none"
         d="m 1094.49,454.676 0,0 M 517.07,1061.57 c -12.468,-1.69 -31.75,-8.5 -46.199,-18.14 -24.101,-15.88 -47.91,-40.54 -65.199,-69.735 -11.34,-18.992 -20.692,-55.84 -28.063,-96.941 -10.207,-58.68 -16.16,-125.008 -17.289,-160.438 -4.257,-153.64 79.93,-225.921 192.75,-257.961 112.821,-32.031 254.84,-24.941 367.371,-18.421 l 1.141,2.832 c 3.398,9.359 7.93,21.828 13.891,28.347 3.398,3.403 8.777,3.403 12.187,0.282 3.403,-3.11 3.403,-8.5 0.281,-11.899 -5.671,-5.949 -23.531,-47.621 -18.992,-54.992 1.981,-3.117 5.383,-5.668 10.481,-7.66 9.359,-1.699 19,-3.11 28.633,-3.68 29.488,-1.988 60.377,-0.57 90.707,-2.551 14.74,-1.136 29.2,-2.269 43.94,-3.968 l -1.42,3.121 c -0.28,0.281 -0.28,0.558 -0.56,0.847 -3.97,9.071 5.38,21.543 0.28,29.192 -5.1,7.66 -10.77,14.742 -17.01,21.261 -0.85,0.848 -1.7,1.418 -2.27,2.27 -0.56,0.848 -1.41,1.699 -1.98,2.551 -2.83,3.398 -5.67,7.09 -7.94,10.769 -1.98,2.559 -3.68,5.391 -5.1,8.219 -2.83,1.422 -4.54,4.262 -4.54,7.66 0.29,2.27 1.14,4.25 2.84,5.949 9.92,9.36 6.24,17.86 14.17,30.332 6.81,10.77 11.62,21.539 13.33,31.469 1.98,10.77 3.68,19.84 5.38,28.34 9.07,48.48 16.16,88.16 17.86,142.871 l 0.57,11.051 c 1.98,69.168 2.83,90.43 -26.37,163 -10.2,25.789 -38.26,50.168 -66.89,74.828 -22.11,18.988 -44.509,38.27 -60.658,59.535 -64.922,86.16 -102.902,90.7 -191.339,101.48 l -0.571,0 c -4.543,0.56 -7.652,4.81 -7.09,9.34 l 0,0.57 c 1.418,6.81 2.27,13.04 2.84,18.43 0.559,5.66 0.559,10.77 0.278,15.59 -0.848,10.77 -3.399,19.27 -7.649,26.07 -3.969,6.52 -9.922,11.34 -17.582,14.75 l -0.559,0 c -0.847,0.29 -1.699,0.56 -2.269,0.84 l -0.852,0.57 0,-0.28 c -0.57,0.28 -0.847,0.57 -1.136,0.57 l -1.703,0 c -0.559,0 -1.129,0 -1.7,0.29 -4.531,0.57 -8.781,0.85 -12.75,0.57 -4.257,0 -3.687,17.28 -7.66,16.71 -0.558,-0.27 -0.847,-0.27 -1.129,-0.27 -4.25,-0.3 -14.461,-11.07 -17.859,-12.48 l -24.66,-25.23 c 13.89,15.59 4.82,28.64 27.5,35.16 0.277,0 0.558,0.27 0.847,0.27 2.262,0.57 5.102,1.14 7.653,1.43 4.82,0.85 9.918,1.41 15.019,1.41 4.821,0 9.918,-0.29 15.032,-0.86 l 2.546,0 c 1.133,-0.27 2.274,-0.27 3.403,-0.55 l 0.57,-0.29 c 1.129,-0.29 1.699,-0.57 2.258,-0.86 0.57,-0.28 0.851,-0.28 1.14,-0.28 0.282,-0.27 0.852,-0.27 1.129,-0.56 0.571,-0.28 1.141,-0.28 1.704,-0.57 11.058,-4.82 19.277,-11.91 25.507,-21.25 5.672,-9.09 9.082,-20.41 10.211,-34.03 0.282,-5.66 0,-11.61 -0.57,-18.13 -0.281,-3.69 -0.852,-7.37 -1.41,-11.07 87.59,-10.77 127.269,-17.86 194.449,-107.14 15.031,-20.13 36.85,-38.555 58.11,-56.973 30.05,-26.082 59.81,-51.59 71.72,-81.071 30.33,-75.972 29.48,-98.371 27.21,-170.082 l -0.28,-11.058 c -1.7,-55.84 -9.07,-96.09 -18.14,-145.129 -1.99,-9.641 -3.69,-19.563 -5.39,-28.633 -2.27,-12.187 -7.94,-24.949 -15.87,-37.418 -7.09,-11.34 -1.99,-18.711 -11.06,-28.062 1.13,-1.989 2.27,-3.688 3.4,-5.668 2.27,-3.121 4.54,-6.243 7.09,-9.071 0.57,-0.57 0.85,-1.14 1.42,-1.699 0,-0.293 0,-0.57 0.28,-0.57 0,-0.281 0.28,-0.281 0.28,-0.281 0.57,-0.29 0.85,-0.571 1.14,-1.141 7.08,-7.078 13.32,-15.301 19.27,-24.09 5.67,-8.789 -3.12,-21.828 1.14,-31.75 l 8.78,-17.57 c 0.85,-1.418 1.14,-3.117 0.85,-4.821 -0.56,-4.539 -4.81,-7.937 -9.35,-7.367 -19.56,2.828 -39.12,4.528 -58.96,5.949 -19.56,1.418 -38.84,1.981 -57.827,2.27 -11.34,-0.57 -22.114,-0.289 -32.883,0.281 -10.489,0.848 -20.981,2.27 -31.18,4.25 -0.57,0 -1.129,0 -1.699,0.289 -8.789,3.399 -15.309,8.5 -19.559,15.02 -3.972,6.519 -5.39,14.738 -3.972,23.808 0,0.571 0.281,1.422 0.57,2.274 l 0.281,0.558 c -111.969,-6.23 -250.859,-12.179 -363.121,19.559 -119.898,34.301 -209.48,111.121 -204.937,274.68 1.128,36.57 7.089,104.031 17.57,163.281 7.656,42.52 17.859,81.352 30.047,102.328 18.711,31.457 44.5,58.387 70.582,75.407 18.148,12.19 41.961,20.12 58.398,21.25 -1.14,-5.95 -1.988,-11.61 -2.84,-17.29" /><path
         id="path28"
         style="fill:#fdfdfd;fill-opacity:1;fill-rule:evenodd;stroke:none"
         d="m 1634.77,1201.89 c -12.19,44.22 -34.3,84.19 -66.61,119.62 -27.5,29.76 -194.74,130.96 -185.39,90.99 4.82,-14.45 11.06,-28.91 18.43,-43.65 0.85,-1.98 1.7,-3.69 2.83,-5.95 0,-0.29 0.57,-1.14 0.85,-1.7 0.85,-1.99 1.7,-4.26 3.12,-6.24 15.87,-35.15 25.23,-66.9 27.5,-95.24 1.13,-18.71 0,-36 -4.82,-52.16 -6.81,-23.53 -20.41,-44.22 -40.54,-61.51 3.69,-19.28 4.25,-36.57 1.99,-52.73 -5.39,-36.57 -26.08,-66.61 -62.08,-89.57 -2.27,-1.14 -4.25,-2.55 -6.24,-3.69 -1.42,-0.56 -2.27,-1.419 -3.4,-2.271 -2.27,-1.129 -4.82,-2.832 -6.8,-4.25 -1.7,-1.129 -3.41,-1.98 -5.11,-2.832 -14.74,-9.066 90.43,-73.137 76.54,-79.367 -13.04,-5.961 -25.51,-10.492 -37.13,-14.461 1.98,-21.539 4.53,-44.789 7.93,-68.879 0.29,0.57 0.85,0.848 1.14,1.418 -0.29,-0.57 -0.85,-0.848 -1.14,-1.418 -5.95,-7.09 -11.34,-17.293 -16.16,-30.621 -4.25,-13.031 -8.5,-25.219 -12.18,-36.559 -13.89,-41.101 -26.08,-74.269 -37.14,-99.211 l 1.99,0.559 -0.57,-1.418 c 39.4,9.641 70.58,22.398 94.68,38.27 7.65,5.39 14.45,10.488 20.41,16.16 2.55,-20.41 10.48,-41.672 22.96,-63.211 l 0.56,0.851 0.85,-1.992 c 45.93,-78.801 100.63,-84.187 132.67,-188.219 20.12,-64.629 45.92,-85.601 41.66,-118.492 -3.68,-21.816 -0.28,-38.828 10.21,-51.019 10.2,-12.469 16.44,-19.27 19.56,-20.41 l 7.94,-10.489 c 18.14,-20.41 45.35,-32.308 82.2,-35.148 2.83,-0.563 6.24,-0.563 9.35,-0.852 45.93,-2.551 73.14,6.239 81.08,26.078 56.4,-9.066 87.3,3.973 91.84,39.121 0.28,3.403 0.85,7.09 0.85,10.77 l 1.98,-0.277 c 8.22,40.527 -18.99,74.828 -80.79,103.179 -69.73,56.981 -159.59,291.399 -167.81,396.571 l -0.56,6.226 c -0.29,4.543 -0.29,9.363 -0.29,13.891 0.29,8.222 0.85,16.73 1.14,24.66 1.41,19 1.7,37.992 1.7,56.699 0,40.25 -28.63,296.783 -29.2,298.773" /><path
         id="path30"
         style="fill:#000000;fill-opacity:1;fill-rule:nonzero;stroke:none"
         d="m 1616.34,1269.07 c 11.64,-20.41 20.41,-42.24 26.66,-64.92 0.27,-1.41 13.04,-111.96 21.54,-199.27 4.53,-47.06 7.94,-87.591 7.94,-101.759 0,-8.793 0,-18.152 -0.28,-28.351 -0.29,-9.918 -0.86,-19.559 -1.43,-28.911 l -0.57,-9.359 -0.56,-14.461 0,-7.078 c 0,-1.992 0,-3.973 0.29,-5.672 l 0,-0.848 0.57,-5.953 0,-0.289 c 4.25,-54.711 31.18,-145.418 65.75,-227.051 30.34,-71.718 66.61,-136.347 98.36,-162.707 31.48,-14.742 54.44,-31.179 68.6,-49.043 15.02,-19.277 20.42,-40.25 15.88,-63.207 -0.29,-1.703 -1.14,-3.121 -2.27,-4.261 -0.28,-1.981 -0.28,-3.961 -0.57,-5.66 -0.27,-0.86 -0.27,-1.711 -0.57,-2.27 -3.11,-18.988 -13.04,-32.32 -29.75,-39.969 -15.32,-7.09 -36.29,-8.793 -63.22,-5.101 l -1.98,0.281 c -5.68,-9.352 -15.3,-16.16 -28.64,-20.41 -14.45,-4.821 -33.73,-6.52 -57.82,-5.102 l -0.84,0 c -0.86,0.281 -2.57,0.281 -3.98,0.281 -1.41,0.29 -3.11,0.29 -4.81,0.571 -19.28,1.418 -36,5.379 -50.46,11.621 -15.02,6.519 -27.22,15.308 -37.13,26.359 -0.3,0 -0.3,0.289 -0.57,0.571 l -6.8,9.07 c -2.27,1.418 -4.82,3.687 -7.66,6.797 -3.41,3.41 -7.66,8.511 -12.75,14.742 -6.25,7.09 -10.22,15.59 -12.2,25.519 -1.98,9.629 -1.69,20.122 0.29,32.032 1.98,16.148 -5.11,30.039 -14.75,49.597 -7.93,16.442 -18.13,36.571 -26.93,65.2 -18.41,60.089 -44.77,86.461 -72.55,113.953 -19.29,19.277 -39.42,39.117 -58.11,71.148 -1.14,0.57 -1.72,1.418 -2.27,2.551 -6.82,11.34 -12.2,22.68 -16.16,33.738 -2.27,5.949 -3.98,11.903 -5.39,17.852 -3.11,-2.551 -6.52,-4.813 -9.93,-7.082 -12.75,-8.508 -26.93,-15.879 -43.36,-22.68 -15.87,-6.519 -34.02,-12.187 -54.14,-17.008 -1.7,-0.562 -3.68,-0.562 -5.38,0.289 -0.85,0.559 -1.71,0.852 -2.28,1.41 -3.68,2.27 -5.38,6.809 -3.68,10.782 5.66,12.75 11.34,26.918 17.57,43.078 5.95,16.16 12.48,34.582 19.57,55.281 2.25,6.801 2.82,9.07 3.97,11.617 2.55,7.942 5.37,16.16 7.92,24.66 l 0.29,0.571 c 2.55,7.082 5.11,13.043 7.93,18.422 2.27,4.257 4.82,8.218 7.37,11.629 -1.69,11.05 -2.82,21.82 -4.25,32.308 -1.12,10.492 -2.26,21.832 -3.39,33.172 -0.57,3.961 1.98,7.93 5.95,9.352 5.66,1.699 11.62,3.968 17.57,6.238 3.68,1.41 7.66,2.832 11.62,4.531 -5.94,5.949 -18.14,15.59 -30.62,25.231 -18.13,14.457 -37.13,29.199 -42.79,39.117 -4.53,7.371 -4.25,13.32 2.54,17.57 0.3,0 0.57,0.289 1.14,0.57 0.57,0.282 1.13,0.571 1.98,1.129 l 0,-0.277 c 0.58,0.277 0.86,0.57 1.13,0.849 0.57,0.28 0.87,0.57 1.14,0.85 0.86,0.57 1.98,1.13 3.13,1.98 1.41,0.57 2.55,1.42 3.39,1.99 l 0.86,0.57 c 1.12,0.85 1.98,1.41 3.68,2.26 l 5.1,3.12 0.29,0 c 17,10.77 30.32,23.25 39.96,37.42 9.65,13.89 15.88,29.2 18.43,46.49 0.84,7.37 1.41,15.3 1.14,23.53 -0.3,8.22 -1.42,16.72 -3.41,26.07 l 0.29,0 c -0.86,2.84 0.27,5.96 2.55,7.94 9.63,8.22 17.57,17.01 23.81,26.65 6.23,9.63 11.05,20.12 14.16,31.18 2.28,7.37 3.69,15.02 4.26,23.24 0.86,8.22 0.86,16.73 0.29,25.51 l 0,0.29 c -1.14,13.6 -3.98,28.06 -8.23,43.37 -4.54,15.3 -10.48,31.46 -18.43,48.47 -0.55,1.13 -1.41,2.27 -1.98,3.68 l 0.28,0 -0.28,0 c -0.27,0.85 -0.56,1.42 -0.84,2.27 -0.29,0.57 -0.57,0.85 -0.86,1.42 0,0.28 -0.27,0.85 -0.57,1.13 -0.27,0.85 -0.84,1.7 -1.13,2.55 -0.57,1.14 -1.14,1.99 -1.41,3.12 -3.69,7.37 -7.1,14.74 -10.21,22.4 -3.41,7.37 -6.23,15.02 -8.5,22.39 l -0.29,0.57 c -0.85,4.53 -0.57,8.22 0.86,11.62 3.97,7.65 12.75,9.64 24.93,6.8 8.52,-1.7 19.86,-5.95 32.61,-11.9 49.89,-22.68 123.59,-70.59 141.44,-89.86 l -0.28,0 0.28,0 c 16.74,-18.14 30.63,-37.7 41.95,-58.11 m 10.5,-69.45 c -5.95,21.54 -14.45,41.95 -25.23,61.23 -10.77,19.27 -24.09,37.7 -39.68,54.99 -17.02,18.14 -87.59,63.78 -136.07,85.89 -11.63,5.39 -21.54,9.07 -29.2,10.77 -3.11,0.57 -4.82,1.99 -5.66,2.27 2.27,-6.8 4.82,-13.89 7.93,-20.69 2.84,-6.81 6.23,-13.89 9.93,-21.55 0,-0.28 0.28,-0.85 0.28,-1.13 0.29,-0.57 0.56,-1.13 0.84,-1.7 0.29,-0.57 0.86,-1.42 1.43,-2.27 0.27,-0.57 0.27,-1.13 0.57,-1.42 0.27,-0.56 0.56,-1.41 0.84,-1.98 0.29,-0.85 0.86,-1.7 1.13,-2.55 0.28,-0.57 0.85,-1.42 1.14,-2.27 0.29,-0.28 0.57,-0.85 0.57,-1.13 8.22,-17.86 14.73,-34.87 19.27,-51.03 4.82,-16.44 7.93,-32.03 8.78,-46.77 l 0,-0.28 c 0.86,-9.64 0.86,-18.99 0,-28.07 -0.85,-9.07 -2.26,-17.85 -4.8,-26.64 -3.7,-12.47 -9.09,-24.38 -16.46,-35.72 -6.22,-9.64 -14.16,-18.42 -23.24,-26.93 1.43,-7.93 2.27,-15.87 2.56,-23.81 0.28,-6.23 0.28,-12.19 -0.29,-18.14 0.86,-1.42 1.13,-2.83 1.13,-4.25 0,-2.27 -0.84,-4.25 -2.27,-5.95 -3.11,-19 -9.91,-36.29 -20.96,-51.88 -11.06,-16.16 -25.81,-30.05 -44.79,-41.95 -0.29,-0.281 -0.57,-0.281 -0.57,-0.57 l -5.95,-3.399 c -0.57,-0.281 -1.14,-0.57 -1.71,-0.851 -0.27,-0.281 -0.84,-0.57 -1.41,-1.129 -0.29,0 -0.29,-0.289 -0.56,-0.289 -1.14,-0.852 -2.28,-1.41 -3.12,-1.981 -1.14,-0.57 -2,-1.421 -3.41,-1.992 l -0.29,-0.277 c 6.25,-7.652 21.84,-19.844 36.86,-31.75 18.14,-14.172 35.43,-27.781 39.12,-36 3.11,-6.801 1.7,-11.621 -5.1,-14.742 -6.25,-3.121 -12.77,-5.668 -19.56,-8.219 -3.98,-1.699 -7.94,-3.121 -11.91,-4.531 0.84,-8.219 1.7,-17.008 2.84,-26.649 1.13,-10.203 2.54,-20.691 3.97,-31.179 1.69,-2.832 1.41,-6.524 -0.29,-9.071 l -0.57,-0.851 -0.29,-0.282 c -0.28,-0.289 -0.28,-0.289 -0.55,-0.57 -2.55,-3.117 -5.11,-7.09 -7.38,-11.617 -2.55,-4.539 -4.82,-9.93 -6.8,-15.883 l -0.28,-0.277 c -2.56,-8.512 -5.4,-16.731 -8.22,-24.66 l -3.98,-11.911 c -6.79,-20.41 -13.32,-38.832 -19.84,-55.839 -3.96,-10.77 -7.66,-20.411 -11.34,-29.481 13.32,3.969 26.09,7.942 37.43,12.75 15.3,6.238 28.62,13.039 39.96,20.699 3.68,2.551 7.09,4.821 10.49,7.653 l 0.28,0.277 c 3.13,2.27 5.95,4.82 8.5,7.371 3.41,3.121 8.79,3.121 11.91,-0.281 1.41,-1.418 2.27,-3.117 2.56,-4.82 1.12,-9.637 3.39,-19.27 7.07,-28.911 3.41,-9.359 7.66,-18.429 12.76,-27.777 1.13,-0.851 1.99,-1.699 2.56,-2.551 l 0.84,-1.992 c 18.14,-30.887 37.71,-50.168 56.41,-69.156 29.48,-28.91 57.27,-56.692 76.82,-120.762 8.5,-27.488 18.14,-46.769 26.09,-62.64 11.05,-22.68 18.71,-38.27 16.16,-59.25 l 0,-0.848 c -1.7,-9.922 -2,-18.422 -0.29,-25.793 1.41,-7.09 4.25,-13.039 8.5,-18.141 5.11,-6.238 9.08,-10.777 12.2,-13.886 2.25,-2.563 3.68,-3.973 4.25,-4.262 1.41,-0.559 2.82,-1.699 3.68,-3.11 l 7.37,-9.64 c 8.22,-9.07 18.43,-16.442 30.9,-21.828 12.75,-5.383 27.78,-8.793 45.35,-10.203 0.29,0 0.56,-0.289 0.86,-0.289 1.13,0 2.54,-0.282 3.68,-0.282 1.7,0 3.11,-0.277 4.82,-0.277 21.82,-1.422 39.11,0.277 51.59,4.25 11.05,3.398 18.14,9.07 20.98,16.437 1.7,3.973 5.66,5.954 9.63,5.383 2.55,-0.562 5.1,-0.851 7.37,-1.133 23.52,-3.117 41.66,-1.976 54.15,3.692 11.05,5.101 17.85,14.449 19.83,27.211 0.29,0.847 0.29,1.418 0.29,1.699 0.29,1.699 0.57,3.398 0.57,5.102 0.27,1.699 0.27,3.398 0.27,4.82 0,2.84 1.14,5.098 3.12,6.797 1.7,15.59 -2.82,30.332 -13.32,43.941 -12.75,16.16 -34.01,30.899 -63.5,44.5 -0.57,0.289 -1.41,0.57 -1.69,1.141 -34.31,27.777 -72.29,95.238 -104.04,170.078 -35.43,83.34 -62.64,176.031 -67.18,232.152 l 0,0.571 -0.28,5.949 -0.29,0.289 c 0,2.551 -0.27,4.82 -0.27,7.082 l 0,8.226 0.84,14.454 0.29,9.359 0.28,0.277 -0.28,0 c 0.84,9.641 1.14,18.992 1.41,28.063 0.28,8.789 0.28,18.14 0.28,28.07 0,13.891 -3.39,53.848 -7.92,100.059 -8.52,86.74 -20.41,195.31 -20.7,196.44" /><path
         id="path32"
         style="fill:#fdfdfd;fill-opacity:1;fill-rule:evenodd;stroke:none"
         d="m 1123.97,998.359 c -7.09,1.422 -13.89,2.551 -20.98,3.971 -132.658,-31.471 -156.467,26.36 -188.217,64.34 -0.281,0.57 -1.132,1.42 -1.703,1.71 -14.738,17.57 -24.09,36.56 -27.777,57.26 -0.563,1.98 -65.191,24.09 -65.191,26.36 -13.891,0.85 14.171,-65.77 0,-54.43 0,-6.23 0.558,-13.04 0.851,-19.84 0.559,-13.89 1.699,-27.5 3.957,-40.54 3.41,-26.36 -26.637,-52.721 -18.699,-76.811 3.961,-11.059 8.223,-21.551 12.75,-32.039 34.582,-78.801 95.531,-144 182.839,-195.871 -45.64,-122.457 58.11,-257.391 115.93,-356.309 3.69,-7.09 7.66,-14.738 11.34,-22.121 32.03,-64.059 25.8,-58.961 20.41,-125.57 -1.7,-14.739 4.54,-30.328 19.28,-46.199 0.56,-1.711 1.41,-3.411 2.27,-5.11 2.83,-5.949 6.23,-11.34 10.2,-15.871 15.87,-19.84 40.82,-30.898 74.83,-34.019 13.04,-1.129 26.08,-0.848 39.41,2.269 6.23,1.992 11.62,4.539 16.72,7.941 1.7,1.418 3.4,3.122 5.1,4.821 l 0,-0.289 c 17.29,-9.071 37.42,-11.621 59.81,-7.934 9.64,1.41 18.43,3.402 26.65,6.524 7.94,3.398 14.74,8.777 20.98,15.867 l 0.85,1.422 2.26,-1.7 c 20.98,-3.121 41.11,5.098 59.53,24.368 1.7,2.562 3.4,5.113 4.82,8.23 13.04,25.789 8.5,52.441 -14.17,79.93 -1.7,1.992 -3.4,4.25 -5.39,6.242 -6.23,6.801 -13.04,12.75 -19.84,17.289 -6.52,4.82 -13.04,8.5 -19.84,11.91 -3.97,2.262 -8.22,4.25 -11.91,6.512 -2.27,1.707 -4.25,3.117 -6.24,4.539 -1.7,1.699 -3.4,3.398 -5.1,5.098 -3.97,4.543 -7.65,10.211 -12.47,16.16 -11.34,14.742 -26.08,32.601 -44.22,54.14 -12.19,14.743 -46.21,60.102 -66.61,108.289 -31.47,83.903 -28.07,91.84 3.96,162.704 11.06,24.949 23.25,58.109 37.14,99.218 3.68,11.34 7.93,23.52 12.19,36.559 4.82,13.332 10.2,23.531 16.15,30.621 -3.4,24.09 -5.95,47.34 -7.93,68.879 -13.61,-3.688 -26.37,-6.238 -38.27,-7.649 -7.37,-0.289 -14.74,-0.289 -21.83,0.559 -10.77,1.141 -21.54,2.551 -32.31,4.25 -9.64,1.992 -18.14,5.961 -25.23,12.191 -0.85,0.571 -1.7,1.418 -2.27,1.7 -17.57,17.3 -18.99,49.039 -3.4,95.25 -16.44,-4.25 -32.6,-7.371 -48.47,-8.508 -7.66,0 -14.74,0 -21.55,-0.563 -9.35,0 -18.42,0.852 -27.21,3.121 -1.13,0.282 -1.98,0.848 -3.4,1.129" /><path
         id="path34"
         style="fill:#000000;fill-opacity:1;fill-rule:nonzero;stroke:none"
         d="m 883.309,1133.86 0,0 m 231.021,-125.01 c 1.7,-0.28 2.84,-0.56 10.78,-1.98 0.85,0 1.7,-0.3 2.55,-0.57 0.56,-0.28 0.85,-0.57 1.13,-0.57 0.28,0 0.57,-0.28 0.85,-0.28 4.25,-1.13 8.22,-1.7 11.91,-1.99 4.25,-0.57 8.5,-0.84 13.04,-0.84 6.8,0.56 13.89,0.56 21.26,0.56 7.65,0.57 15.3,1.7 22.96,2.84 7.93,1.41 15.59,3.12 23.24,5.1 1.7,0.57 3.69,0.57 5.39,0 4.53,-1.42 6.8,-6.24 5.38,-10.77 -7.65,-22.116 -11.05,-40.545 -10.49,-55.284 0.57,-13.601 4.26,-23.808 11.63,-31.179 l 0.28,0 0.28,-0.282 c 0.29,-0.289 0.85,-0.57 1.42,-1.14 2.83,-2.551 5.95,-4.527 9.64,-6.231 3.68,-1.699 7.65,-3.117 11.9,-3.968 8.79,-1.418 18.71,-2.551 28.63,-3.692 l 2.55,-0.277 c 3.41,-0.57 6.81,-0.852 9.93,-0.852 3.4,0 6.8,0 10.48,0.282 5.39,0.57 11.34,1.418 17.3,2.839 6.23,1.129 12.75,2.829 19.27,4.532 0.28,0 0.85,0.289 1.42,0.289 4.53,0.277 8.79,-3.121 9.07,-7.66 1.13,-10.2 2.27,-20.969 3.68,-33.442 1.42,-11.629 2.84,-23.25 4.54,-35.148 0.28,-2.27 -0.28,-4.539 -1.98,-6.52 -2.56,-3.121 -5.11,-7.09 -7.66,-11.91 -2.55,-4.543 -4.82,-9.922 -6.8,-15.871 -2.84,-8.789 -5.67,-17.012 -8.51,-24.949 l -3.68,-11.34 -0.28,-0.563 c -6.81,-20.129 -13.33,-38.839 -19.85,-55.847 -6.23,-16.723 -12.19,-31.461 -17.57,-43.93 -15.59,-34.59 -24.1,-53.859 -24.95,-73.422 -0.85,-19.84 5.96,-41.949 21.26,-82.488 l 0,-0.281 c 7.66,-18.43 17.58,-36.289 27.22,-52.161 15.3,-24.937 30.33,-44.789 37.7,-53.859 8.78,-10.199 17,-19.84 24.94,-29.762 7.37,-9.07 13.89,-17.007 19.56,-24.379 l 0.28,-0.281 c 2.27,-2.84 4.26,-5.386 5.96,-7.937 1.98,-2.551 3.97,-5.102 5.95,-7.942 l 3.97,-3.679 c 0.85,-0.848 1.98,-1.418 3.12,-2.27 1.13,-0.851 1.98,-1.422 2.83,-2.269 1.42,-0.563 3.12,-1.7 4.82,-2.551 1.7,-0.852 3.69,-1.981 5.67,-3.121 l 0.28,0 c 3.4,-1.7 6.81,-3.68 10.49,-5.668 3.69,-2.262 7.37,-4.532 10.77,-6.801 l 0,-0.281 c 3.4,-2.27 7.09,-5.11 10.49,-8.219 3.69,-3.121 7.09,-6.52 10.49,-9.922 0.85,-1.137 1.98,-2.269 3.12,-3.687 1.41,-1.7 2.26,-2.551 2.83,-3.403 12.19,-14.738 19.28,-29.476 22.11,-44.219 2.55,-15.308 0.29,-30.05 -7.37,-44.789 -1.42,-3.121 -2.83,-5.671 -4.53,-7.941 l -0.29,-0.559 -0.28,-0.289 c -0.28,-0.562 -0.57,-0.851 -0.85,-1.132 -10.21,-10.77 -20.69,-18.137 -31.75,-22.68 -11.05,-4.527 -22.39,-5.949 -33.73,-4.527 -2.55,-2.84 -5.39,-5.114 -7.94,-7.372 -3.97,-2.839 -8.22,-5.39 -12.47,-7.371 -0.57,-0.289 -0.85,-0.289 -1.13,-0.57 -4.26,-1.418 -8.79,-2.84 -13.61,-3.969 -4.54,-1.129 -9.35,-1.98 -14.46,-2.551 -12.19,-2.269 -23.52,-2.55 -34.3,-1.128 -8.78,1.41 -17.29,3.679 -25.22,7.078 -0.57,-0.278 -1.14,-0.848 -1.71,-1.129 l -0.28,-0.281 c -2.83,-1.989 -5.95,-3.688 -9.07,-5.11 -3.12,-1.41 -6.24,-2.551 -9.64,-3.68 -0.28,-0.289 -0.56,-0.289 -1.13,-0.289 -7.09,-1.699 -14.17,-2.55 -20.98,-2.832 -6.8,-0.57 -13.6,-0.277 -20.12,0.282 l -0.85,0 c -17.86,1.699 -33.45,5.39 -46.78,11.339 -13.6,6.243 -24.94,14.743 -34.01,25.801 -1.99,2.551 -3.97,5.379 -5.67,8.219 -1.7,2.551 -3.4,5.672 -5.1,8.789 0,0.281 -0.29,0.281 -0.29,0.563 l -0.28,0.289 c -0.57,1.41 -1.13,2.832 -1.7,4.25 -7.37,7.929 -12.76,16.148 -16.16,24.379 -3.68,8.781 -5.1,17.851 -4.25,26.64 0.57,8.789 1.7,17.86 2.27,25.801 3.97,38.832 4.53,43.078 -21.83,95.519 -1.7,3.411 -3.4,6.809 -5.39,10.493 -1.98,3.687 -3.68,7.367 -5.66,11.058 -8.51,14.739 -17.58,29.481 -27.22,44.782 -56.97,92.41 -126.709,205.226 -91.56,312.097 -41.949,25.512 -77.379,54.141 -107.149,85.891 -31.179,33.16 -55.562,70.012 -73.132,110.269 -2.547,5.379 -4.821,10.77 -6.797,16.153 -2.274,5.386 -4.262,10.777 -6.242,16.437 l 0,0.289 c -4.25,12.473 13.89,20.121 10.769,32.883 13.332,6.801 14.461,29.483 9.922,43.933 l -0.281,0 c -0.852,6.81 5.949,59.52 5.39,66.62 -0.57,6.52 -1.14,13.61 -1.422,20.4 l 0,0.86 c -0.277,7.09 -25.226,-17.01 -25.226,-10.77 0,1.98 0.566,3.68 1.699,5.39 3.117,3.68 8.508,4.25 12.188,1.13 6.242,-5.11 11.91,6.24 18.14,3.68 5.949,-2.83 -9.347,-19.84 -3.679,-20.41 l 0.281,0 c 2.551,1.14 10.769,-4.81 22.39,5.1 11.629,9.93 23.809,20.13 30.329,24.95 1.14,1.14 2.839,1.98 4.539,2.27 5.953,1.42 9.351,-1.42 10.203,-6.81 1.707,-9.64 4.816,-18.7 9.078,-27.5 4.25,-8.78 9.922,-17.28 16.719,-25.23 l 1.421,-1.41 c 0.282,-0.28 0.282,-0.56 0.559,-0.56 3.973,-4.82 7.371,-9.37 11.063,-14.19 26.359,-34.28 56.687,-73.972 168.378,-47.61 1.13,0.29 2.27,0.29 3.68,0 2.84,-0.28 3.97,-0.57 9.92,-1.7 m 7.66,-18.713 -10.77,1.988 -8.22,1.422 c -121.039,-28.07 -154.781,16.153 -184.262,54.413 -3.398,4.55 -6.797,9.08 -10.199,13.05 l -1.418,1.42 c 0,0.28 -0.281,0.28 -0.57,0.55 -7.653,9.07 -14.172,19 -18.992,29.21 -3.118,6.24 -5.668,12.76 -7.649,19.27 -5.101,-4.53 -12.762,-11.33 -20.41,-17.85 -14.461,-12.47 -29.48,-9.07 -33.73,-9.07 -0.848,0 -1.989,0.28 -2.551,0.28 -7.367,0.84 1.133,21.54 -6.239,24.95 -0.851,0.28 22.391,16.14 22.68,13.32 l 0,-0.86 c 0.281,-6.8 0.559,-13.32 1.129,-19.55 0.57,-6.52 -12.469,-58.97 -11.34,-65.2 l 0,-0.57 c 1.699,-12.75 -13.597,-28.91 -10.488,-41.105 2.84,-12.469 -8.5,-20.969 -4.82,-32.598 1.988,-5.383 3.968,-10.769 5.961,-15.871 2.269,-5.391 4.527,-10.488 6.519,-15.59 17,-38.551 40.527,-73.699 70.301,-105.73 29.758,-32.032 66.328,-60.661 109.128,-86.461 3.69,-1.981 5.1,-6.52 3.4,-10.489 -37.13,-100.628 32.03,-212.601 88.16,-303.589 9.64,-15.872 19.27,-31.18 27.5,-45.071 l 0,-0.281 c 1.98,-3.687 3.96,-7.367 5.95,-11.34 1.7,-3.687 3.68,-7.09 5.67,-10.769 28.34,-56.981 27.78,-61.508 23.52,-104.879 -0.56,-6.52 -1.41,-14.18 -2.26,-25.231 -0.29,-0.289 -0.29,-0.57 -0.29,-0.851 -0.56,-5.957 0.57,-11.91 3.12,-18.141 2.84,-6.809 7.66,-13.609 14.18,-20.699 1.13,-1.129 1.7,-2.551 1.98,-3.969 l 1.42,-2.832 0,-0.277 0.28,-0.289 0.28,-0.282 c 1.14,-2.55 2.55,-5.101 3.97,-7.371 1.7,-2.55 3.12,-4.539 4.82,-6.519 l 0,-0.281 c 7.09,-8.79 16.44,-15.598 27.5,-20.7 11.62,-5.097 25.51,-8.5 41.38,-9.918 l 0.85,0 c 5.96,-0.57 11.91,-0.851 17.86,-0.57 5.95,0.289 11.91,1.141 17.86,2.559 2.55,0.851 5.1,1.699 7.37,2.832 2.55,1.129 4.54,2.269 6.52,3.687 0.85,0.563 1.42,1.129 1.98,1.699 l 0.29,0.282 1.98,1.98 c 2.84,2.84 7.09,3.121 10.49,1.141 7.65,-3.973 15.87,-6.52 24.66,-7.66 9.07,-1.411 18.71,-1.129 29.2,0.847 l 0.56,0 c 4.26,0.571 8.51,1.422 12.76,2.274 4.25,1.136 8.22,2.269 11.62,3.687 l 0.29,0 c 3.11,1.41 5.95,3.121 8.78,5.379 2.84,1.992 5.67,4.82 8.51,7.941 l 0.56,0.571 c 2.56,3.969 7.66,5.101 11.63,2.551 0.28,-0.289 0.56,-0.571 0.85,-0.852 8.22,-0.57 16.44,0.563 24.09,3.68 8.51,3.402 17.01,9.64 25.51,18.14 l 0,0.289 c 1.42,1.704 2.55,3.684 3.4,5.672 l 0.29,0.559 c 5.67,11.34 7.65,22.68 5.67,34.019 -2.27,11.911 -8.51,24.383 -18.71,36.852 -1.13,1.422 -1.99,2.832 -2.27,3.121 -0.85,0.57 -1.7,1.699 -2.55,2.551 l -0.28,0.277 c -2.84,3.121 -5.96,6.242 -9.07,8.789 -3.12,2.84 -6.24,5.102 -9.36,7.371 l -0.28,0 c -2.84,2.27 -5.95,4.25 -9.07,5.95 -2.84,1.703 -6.24,3.402 -9.64,5.113 -0.28,0.277 -0.57,0.277 -0.85,0.558 -1.42,0.848 -3.4,1.989 -5.39,2.84 -1.7,1.129 -3.68,1.981 -5.95,3.121 -0.28,0.278 -0.85,0.559 -1.13,0.848 -1.14,0.852 -2.27,1.98 -2.84,2.262 -0.85,0.57 -1.7,1.14 -2.55,1.699 -0.85,0.57 -1.42,1.141 -1.98,1.699 l -4.54,4.82 c -0.28,0 -0.57,0.29 -0.85,0.571 -1.7,2.269 -3.97,5.39 -6.52,8.5 -1.7,2.558 -3.68,5.109 -5.67,7.66 l -0.28,0.57 c -5.67,7.371 -12.19,15.301 -19.28,23.809 -6.8,8.223 -15.3,18.14 -24.66,29.48 l -0.28,0.563 c -7.66,9.359 -23.53,29.769 -39.12,55.558 -10.21,16.442 -20.41,35.149 -28.35,54.43 -0.28,0.281 -0.28,0.559 -0.28,0.852 -16.16,42.797 -23.24,66.328 -22.39,89.007 0.85,22.961 9.92,43.372 26.36,79.653 5.67,12.758 11.34,26.93 17.57,43.09 5.96,16.148 12.48,34.578 19.56,55.269 l 0,0.571 c 2.84,7.937 9.36,27.207 12.19,36.277 2.55,7.09 5.1,13.043 7.94,18.43 2.27,4.25 4.82,8.222 7.37,11.621 -1.7,11.05 -2.84,21.832 -4.25,32.308 -0.85,7.66 -1.7,15.59 -2.56,23.531 -3.4,-0.847 -7.08,-1.699 -10.48,-2.269 -6.52,-1.41 -12.76,-2.262 -19,-2.828 l -0.56,-0.281 c -3.97,0 -7.66,-0.289 -11.62,0 -4.26,0 -8.22,0.281 -11.91,0.558 l -2.83,0.289 c -9.36,1.133 -19.28,2.262 -29.48,3.973 l -0.57,0.277 0,-0.277 c -5.39,1.41 -10.49,3.109 -15.59,5.379 -4.54,2.269 -8.79,4.82 -13.04,8.5 -0.57,0.289 -1.14,0.859 -1.7,1.14 -0.57,0.571 -0.85,0.848 -1.42,1.418 -10.49,10.204 -15.87,24.371 -16.72,42.524 -0.29,13.316 1.98,29.187 6.8,47.047 -3.4,-0.848 -7.09,-1.418 -10.49,-2.27 -8.22,-1.41 -16.72,-2.551 -24.94,-3.121 l -0.57,0 c -7.65,0 -15.02,0 -21.26,-0.277 l -0.28,0 c -4.82,0 -9.64,0 -14.74,0.57 -4.82,0.57 -9.64,1.418 -14.46,2.551 -0.28,0 -0.57,0 -0.57,0.277 l -0.57,0 c -0.56,0.289 -1.13,0.57 -1.7,0.57" /><path
         id="path36"
         style="fill:#a66660;fill-opacity:1;fill-rule:evenodd;stroke:none"
         d="m 1409.7,714.613 21.84,21.539 c 3.39,3.121 6.51,6.809 9.34,9.918 l 3.98,4.543 c 4.82,5.95 9.07,11.059 13.03,16.438 6.52,8.793 13.04,18.992 20.41,31.179 1.13,1.993 0.58,4.543 -1.42,5.954 -1.98,1.136 -4.52,0.566 -5.67,-1.411 -7.37,-12.191 -13.89,-22.113 -20.12,-30.621 -3.69,-5.379 -7.94,-10.48 -12.48,-15.871 l -3.97,-4.539 c -3.1,-3.109 -5.94,-6.519 -9.07,-9.629 l -21.82,-21.55 c -1.7,-1.7 -1.7,-4.25 -0.29,-5.95 1.7,-1.703 4.54,-1.703 6.24,0" /><path
         id="path38"
         style="fill:#000000;fill-opacity:1;fill-rule:nonzero;stroke:none"
         d="m 1836.6,360.281 1.13,0 c 1.42,-0.281 3.12,-0.57 4.26,-0.57 1.41,-0.281 3.11,-0.559 4.81,-0.852 14.46,-2.828 30.05,-9.07 43.66,-18.418 11.9,-8.511 21.82,-19.281 28.06,-32.601 l 0,-0.277 c 1.14,-2.274 1.14,-4.821 0.57,-7.09 -0.85,-2.84 -2.84,-5.102 -5.39,-6.243 -0.28,-0.281 -0.56,-0.281 -0.85,-0.281 -2.55,-0.847 -5.1,-0.847 -7.65,0.281 -1.99,1.141 -3.97,2.84 -5.1,5.11 -4.82,11.051 -13.89,19.84 -24.38,26.359 -12.76,8.223 -27.5,12.75 -39.97,14.172 -2.55,0 -5.1,1.418 -6.8,3.399 -1.42,1.703 -2.55,3.972 -2.55,6.519 l 0,1.703 0.28,0.289 c 0.28,1.981 1.13,3.961 2.55,5.668 1.98,1.703 4.25,2.832 6.8,2.832" /><path
         id="path40"
         style="fill:#000000;fill-opacity:1;fill-rule:nonzero;stroke:none"
         d="m 1762.34,330.516 0,0 c 0.27,-0.278 0.56,-0.278 0.84,-0.278 1.43,-0.851 2.84,-1.422 3.97,-1.992 1.42,-0.558 2.83,-1.129 4.25,-1.98 13.05,-7.09 26.37,-17.578 36.28,-30.618 8.79,-11.332 15.31,-24.66 17.3,-39.402 l 0,-0.277 c 0.29,-2.551 -0.28,-4.821 -1.71,-6.801 -1.41,-2.27 -3.96,-3.973 -6.8,-4.539 l -0.84,0 c -2.84,0 -5.39,0.848 -7.09,2.547 l -0.29,0 0,0.281 c -1.7,1.422 -2.82,3.691 -3.12,6.238 -1.7,11.91 -7.65,22.961 -15.59,32.321 -9.91,11.621 -22.66,20.41 -34,25.222 l -0.3,0 c -2.26,0.848 -4.25,2.84 -5.38,5.11 -0.84,2.257 -1.14,4.82 -0.57,7.078 0.28,0.293 0.28,0.57 0.28,0.851 0,0.289 0.29,0.571 0.29,0.852 1.13,2.269 2.55,3.687 4.53,4.816 2.27,1.141 4.54,1.422 7.09,0.852 0.29,-0.281 0.57,-0.281 0.86,-0.281 l -0.29,0" /><path
         id="path42"
         style="fill:#000000;fill-opacity:1;fill-rule:evenodd;stroke:none"
         d="m 1340.25,177.445 c 0,-0.277 0,0 0,0 m -27.2,-26.929 c 2.54,2.269 4.25,5.101 5.38,8.793 1.41,4.527 1.98,9.918 1.7,16.437 l 0,0.281 c -0.29,0.852 -0.29,1.418 -0.29,1.989 l 0,1.132 c 0,1.418 -0.27,3.399 -0.57,5.387 -0.27,2.262 -0.56,4.25 -1.13,6.231 -1.41,5.39 -3.96,10.492 -7.09,15.312 -3.39,5.098 -7.92,9.918 -13.32,14.457 l -0.28,0 c -1.99,1.981 -3.11,4.531 -3.4,7.082 0,2.551 0.86,5.11 2.56,7.09 l 0,0.281 0.28,0 c 1.7,1.989 3.97,3.117 6.24,3.399 l 0.85,0 c 2.54,0 4.82,-0.559 6.79,-2.258 l 0.28,-0.57 c 6.81,-5.672 12.49,-11.621 16.74,-18.141 4.53,-6.801 7.92,-14.172 10.19,-21.832 l 0,-0.848 c 0.57,-2.269 0.86,-4.531 1.43,-6.8 0.27,-2.551 0.57,-4.821 0.84,-7.09 l 0,-3.68 c 0.29,-9.07 -0.27,-17.012 -2.55,-23.813 -2.27,-7.089 -5.95,-13.039 -11.06,-17.578 -0.55,-0.57 -1.12,-1.129 -1.69,-1.422 -1.99,-1.128 -3.97,-1.41 -5.68,-1.41 l -0.27,0 c -2.55,0 -5.11,1.133 -7.09,3.403 -0.28,0.281 -0.28,0.558 -0.57,0.847 l -0.29,0.282 c -1.12,1.992 -1.69,4.25 -1.41,6.519 0.29,2.27 1.41,4.82 3.41,6.52" /><path
         id="path44"
         style="fill:#000000;fill-opacity:1;fill-rule:evenodd;stroke:none"
         d="m 1420.19,174.895 c 0.28,3.121 0.28,5.949 0,9.07 l 0,0.851 c -0.57,9.36 -2.55,18.137 -6.24,26.649 -3.68,8.781 -9.07,17 -16.15,24.66 -0.57,0.57 -0.85,0.852 -1.14,1.422 -1.13,1.699 -1.7,3.68 -1.7,5.656 0,2.563 0.85,4.82 2.55,6.813 0.29,0.281 0.57,0.558 0.85,0.847 1.7,1.703 3.97,2.551 6.24,2.832 2.55,0 4.82,-0.558 6.8,-2.261 l 0.57,-0.571 0.57,-0.566 c 8.5,-9.352 15.3,-19.563 20.12,-30.332 4.54,-10.77 7.09,-22.11 7.66,-34.301 0.28,-3.68 0.28,-7.367 0,-11.617 0,-3.973 -0.57,-7.942 -1.14,-11.91 l -0.28,-0.563 c -0.28,-1.14 -0.57,-2.269 -0.85,-3.398 l -0.29,-0.289 -0.28,-0.852 c -0.85,-2.551 -2.27,-4.531 -4.25,-5.672 -2.27,-1.41 -5.1,-1.976 -7.65,-1.129 l -0.29,0 c -0.56,0 -1.13,0.282 -1.7,0.571 -7.09,19.269 -4.25,7.648 -3.4,24.09" /><path
         id="path46"
         style="fill:#000000;fill-opacity:1;fill-rule:nonzero;stroke:none"
         d="m 701.609,1237.32 0.282,0 m -11.051,-37.7 0,-0.28 M 484.48,867.973 c -1.992,-0.852 -4.542,-1.141 -6.523,-0.571 l 0,0.278 -5.109,3.972 -0.559,6.797 26.078,96.672 c 10.203,43.369 15.301,89.849 28.633,131.809 9.629,30.33 48.469,86.17 73.98,101.19 24.661,14.18 45.071,0.29 67.18,-15.02 7.367,17.29 19.278,34.02 34.578,44.79 20.7,15.59 44.512,17.29 69.742,15.02 1.129,0 2.547,-0.28 3.958,-0.85 l 2.839,-1.13 c 26.082,-8.79 38.832,-31.47 40.821,-58.68 1.132,-17.58 -3.118,-42.8 -8.789,-61.23 l -0.571,-2.27 c 37.992,-31.18 22.961,-117.92 -1.98,-178.301 -8.5,-20.406 -18.141,-37.976 -27.207,-49.039 -73.703,-90.699 -119.063,-165.539 -171.5,-268.719 -19.563,-38.832 -73.703,-36 -113.102,-24.378 -93.539,27.207 -35.148,99.5 -70.301,192.187 l -3.691,10.492 c -13.039,34.301 -7.078,89.008 -0.277,126.707 1.988,10.774 18.711,8.223 17.008,-3.117 -6.239,-37.422 -11.34,-75.121 -3.118,-109.422 3.399,-13.32 10.77,-32.027 14.457,-44.5 23.524,-79.648 -26.359,-134.648 53.571,-157.039 32.32,-9.07 75.691,-12.191 90.14,16.719 l 13.61,28.351 c 16.722,32.032 35.152,63.782 54.429,94.961 32.59,52.438 66.891,100.629 105.161,148.25 32.882,40.821 66.05,148.538 39.691,204.948 -9.078,5.38 -15.309,9.92 -14.738,12.47 4.808,22.96 19.547,61.51 1.976,89.01 l -18.988,15.59 -35.149,1.7 c -13.613,-1.98 -18.14,-6.8 -26.929,-10.77 -18.992,-8.79 -31.473,-45.92 -36.281,-48.76 -8.219,-5.38 -38.27,26.93 -55.563,25.23 -17.578,-4.25 -32.887,-23.81 -45.359,-39.4 -15.59,-19.56 -26.641,-37.14 -33.16,-60.1 -8.79,-30.04 -43.938,-225.918 -58.958,-233.847" /><path
         id="path48"
         style="fill:#f98873;fill-opacity:1;fill-rule:evenodd;stroke:none"
         d="m 709.547,979.367 -0.281,0 c -55.559,-1.98 -92.7,21.263 -109.989,69.453 -0.851,2.27 -2.832,3.68 -5.382,3.4 -5.387,-0.57 -9.918,-2.27 -14.457,-5.67 0.277,0 0.57,0.28 0.57,0.28 -7.66,-3.96 -12.762,-11.05 -15.883,-21.26 0,0.29 0,0.57 0.289,0.86 -1.137,-1.99 -1.137,-3.97 -1.137,-5.39 l 0,0.57 -0.562,-5.11 c -0.289,-0.56 -0.289,-1.13 -0.57,-1.7 -1.418,-15.023 1.421,-34.304 8.793,-56.691 -0.293,0.278 -0.293,0.571 -0.293,0.848 4.82,-30.609 15.589,-50.738 32.601,-60.09 16.442,-9.07 37.988,-7.937 64.629,3.403 46.77,17.007 72,34.007 76.539,51.589 2.262,8.789 -0.289,17.571 -7.656,25.789 -1.133,1.418 -2.832,1.989 -4.531,1.7 -7.09,-0.852 -13.891,-1.41 -19.852,-1.7" /><path
         id="path50"
         style="fill:#df6456;fill-opacity:1;fill-rule:nonzero;stroke:none"
         d="m 576.02,957.719 c 4.71,-27.84 14.691,-46.141 29.691,-54.379 14.949,-8.274 35.18,-7.012 60.172,3.629 44.867,16.32 69.547,32.488 73.59,48.168 1.84,7.133 -0.352,14.23 -6.512,21.109 -7.078,-0.797 -14.07,-1.387 -20.328,-1.687 l -2.582,-0.27 c -2.852,-0.101 -5.071,-0.133 -7.25,-0.133 -54.512,-0.008 -90.949,24.532 -108.328,72.944 -4.114,-0.39 -7.481,-1.57 -10.75,-3.76 -0.043,-0.04 -0.071,-0.08 -0.114,-0.11 -0.32,-0.33 -0.769,-0.65 -1.257,-0.92 l 0,-0.01 c -0.012,0 -0.032,-0.01 -0.039,-0.01 -0.133,-0.08 -0.262,-0.15 -0.391,-0.21 l 0,0 c -5.731,-3.13 -9.84,-8.64 -12.551,-16.85 -0.101,-0.45 -0.281,-0.91 -0.531,-1.34 -0.078,-0.27 -0.18,-0.53 -0.309,-0.77 -0.148,-0.63 -0.148,-1.34 -0.148,-2.08 l -0.031,0 c -0.012,-0.04 -0.012,-0.07 -0.02,-0.11 l -0.551,-4.99 c -0.07,-0.6 -0.242,-1.18 -0.511,-1.72 0,-0.09 -0.028,-0.29 -0.098,-0.54 -1.231,-14.473 1.738,-33.114 8.609,-53.981 0.219,-0.652 0.289,-1.32 0.239,-1.98 m 52.16,-70 c -10.149,0 -19.367,2.25 -27.399,6.679 -18.14,9.981 -29.949,31.231 -35.082,63.161 l 0,0.019 c 0,0.039 -0.019,0.121 -0.027,0.219 -7.109,21.992 -10.082,41.84 -8.609,57.483 0.058,0.63 0.238,1.24 0.519,1.81 0,0.1 0.039,0.32 0.129,0.61 l 0.469,4.25 c 0.031,1.6 0.23,3.82 1.371,6.19 0.012,0 0.012,0 0.012,0 l 0.078,0.18 c 0.011,0.01 0.011,0.01 0.011,0.02 3.481,10.62 9.02,17.96 16.911,22.43 5.097,3.78 10.449,5.86 16.796,6.53 0.172,0.01 0.993,0.06 1.172,0.06 4.309,0 7.961,-2.58 9.52,-6.75 16.441,-45.81 51.711,-67.981 105.031,-66.141 l 2.789,0.258 c 6.301,0.312 13.031,0.89 19.75,1.691 0.199,0.02 1.25,0.102 1.449,0.102 3,0 5.801,-1.34 7.672,-3.68 8.278,-9.223 11.321,-19.762 8.61,-30.262 -5,-19.39 -31.082,-37.422 -79.731,-55.101 -15.121,-6.45 -29.148,-9.758 -41.441,-9.758" /><path
         id="path52"
         style="fill:#f98873;fill-opacity:1;fill-rule:evenodd;stroke:none"
         d="m 716.348,1206.42 c -1.981,-2.27 -3.969,-4.54 -5.387,-6.52 -0.281,0 -4.531,-6.52 -4.531,-6.52 0,0.28 0.281,0.28 0.281,0.57 -1.422,-1.7 -1.422,-3.4 -1.422,-4.25 0,0.85 0,1.7 0.57,2.26 -7.082,-11.33 -10.492,-23.52 -9.64,-35.43 0.57,-4.25 0.851,-8.22 2.558,-11.62 -0.289,0.57 -0.566,1.13 -0.566,1.7 0,-0.85 0,-2.84 1.699,-4.54 -0.281,0.57 -0.57,0.85 -0.851,1.42 2.269,-5.67 6.23,-10.2 12.191,-13.61 9.07,-5.38 18.988,-5.1 30.039,0.57 10.488,5.1 19.281,13.61 26.371,25.51 1.981,3.12 3.68,6.81 5.098,10.21 3.402,9.35 4.82,17.86 4.25,25.79 -0.848,11.92 -5.379,20.42 -13.039,25.52 0.289,-0.29 0.57,-0.29 0.57,-0.57 -0.57,0.57 -1.422,1.13 -1.699,1.13 0,0 0.277,0 0.57,-0.28 -0.293,0.28 -0.57,0.28 -0.859,0.57 -6.801,3.96 -14.172,4.81 -22.961,2.55 -1.981,-0.57 -4.25,-1.42 -6.52,-2.27 -0.281,-0.28 -0.851,-0.57 -1.132,-0.85 0.281,0.28 1.132,0.85 1.98,0.85 -0.559,0 -0.848,-0.28 -1.41,-0.28 -1.699,-0.57 -3.117,-1.7 -4.539,-2.56 -4.531,-2.55 -8.5,-5.95 -11.621,-9.35" /><path
         id="path54"
         style="fill:#df6456;fill-opacity:1;fill-rule:nonzero;stroke:none"
         d="m 704.926,1142.99 c 1.953,-3.54 4.859,-6.4 8.851,-8.68 7.649,-4.54 15.621,-4.23 25.192,0.68 9.629,4.68 17.769,12.6 24.297,23.58 1.589,2.5 3.121,5.58 4.781,9.56 3.101,8.52 4.391,16.27 3.879,23.47 -0.668,9.31 -3.821,16.23 -9.379,20.61 -0.5,0.21 -0.969,0.51 -1.379,0.88 -1.133,0.21 -2.07,0.81 -2.73,1.66 -5.262,2.59 -10.79,2.94 -17.571,1.19 -1.101,-0.32 -2.359,-0.76 -3.672,-1.24 -0.609,-0.51 -1.347,-0.88 -2.16,-1.07 -0.199,-0.14 -0.406,-0.27 -0.617,-0.39 -0.73,-0.55 -1.539,-0.85 -2.383,-0.92 -0.027,-0.02 -0.058,-0.04 -0.097,-0.07 l -1.34,-0.85 c -4.731,-2.66 -8.313,-6.05 -10.493,-8.43 -1.839,-2.1 -3.679,-4.2 -5,-6.04 -0.179,-0.24 -0.367,-0.47 -0.589,-0.68 -0.899,-1.18 -3.137,-4.61 -3.688,-5.46 -0.133,-0.53 -0.34,-1.05 -0.64,-1.53 0,-1.87 -0.961,-3.41 -2.442,-4.23 -4.879,-9.25 -7.09,-18.9 -6.43,-28.13 l 0.2,-1.54 c 0.293,-2.29 0.543,-4.32 1.031,-6.07 0.379,-0.61 0.629,-1.31 0.719,-2.05 0.14,-0.41 0.211,-0.84 0.25,-1.26 0.031,-0.07 0.07,-0.14 0.113,-0.21 0.109,-0.17 0.75,-1.22 0.848,-1.41 0.218,-0.44 0.371,-0.91 0.449,-1.37 m 20.019,-22.08 c -5.687,0 -11.179,1.55 -16.297,4.58 -6.23,3.57 -10.851,8.48 -13.66,14.57 -1.011,1.48 -1.621,3.17 -1.812,5.04 -1.028,2.95 -1.41,6.02 -1.789,8.99 l -0.219,1.77 c -0.91,12.62 2.367,25.42 9.48,37.36 0.43,1.45 1.149,2.8 2.149,4 0.051,0.06 0.101,0.12 0.16,0.17 1.871,2.88 3.09,4.69 4.102,5.82 1.457,1.99 3.41,4.23 5.367,6.48 4.012,4.38 8.472,7.96 13.043,10.54 l 0.879,0.56 c 1.078,0.71 2.41,1.57 4.031,2.2 0.25,0.15 0.519,0.25 0.906,0.4 2.403,0.9 4.801,1.79 6.903,2.39 10.48,2.71 18.917,1.64 26.941,-3.05 0.156,-0.09 0.316,-0.19 0.469,-0.31 0,0 0.019,0 0.031,-0.02 0.008,0 0.008,0 0.019,-0.01 l 0.008,0 c 0.192,-0.1 0.379,-0.22 0.571,-0.34 0.199,-0.1 0.39,-0.2 0.57,-0.32 9.07,-6.05 14.371,-16.22 15.301,-29.4 0.621,-8.67 -0.871,-17.79 -4.539,-27.9 -1.973,-4.75 -3.774,-8.34 -5.59,-11.2 -7.492,-12.59 -17.09,-21.85 -28.442,-27.37 -6.371,-3.27 -12.648,-4.95 -18.582,-4.95" /><path
         id="path56"
         style="fill:#f98873;fill-opacity:1;fill-rule:evenodd;stroke:none"
         d="m 650.586,1159.93 c -2.551,1.43 -5.391,2.84 -8.5,3.41 -6.52,1.14 -13.891,0 -21.828,-3.68 -10.774,-5.68 -19.563,-14.18 -26.363,-26.37 -5.387,-8.79 -8.508,-17.86 -9.071,-27.22 0,0.29 0.281,0.57 0.281,0.86 -0.57,-1.98 -0.57,-3.98 -0.57,-6.23 l 0,-2.27 c 0.852,-12.77 5.961,-21.84 15.031,-26.93 9.071,-5.39 18.989,-5.11 30.039,0.57 10.493,5.09 19.282,13.59 26.372,25.5 6.519,11.63 9.628,23.82 9.347,36 -0.566,5.68 -1.976,11.06 -4.539,16.16 -0.277,0.57 -0.277,0.86 -0.558,1.13 0.281,-0.56 0.558,-0.84 0.558,-0.84 -0.277,0.57 -0.558,1.41 -1.41,2.55 0,-0.28 0.281,-0.57 0.281,-0.57 -2.269,3.39 -5.672,5.66 -8.5,7.66 -0.289,0.27 -0.289,0.27 -0.57,0.27" /><path
         id="path58"
         style="fill:#df6456;fill-opacity:1;fill-rule:nonzero;stroke:none"
         d="m 589.656,1104.48 c -0.019,-0.4 -0.019,-1.89 -0.019,-3.79 l 0,-2.27 c 0.722,-10.57 4.902,-18.25 12.422,-22.48 7.718,-4.59 15.648,-4.24 25.218,0.66 9.629,4.68 17.782,12.6 24.313,23.58 5.976,10.66 8.898,21.89 8.637,33.27 -0.508,4.94 -1.821,9.64 -4,14 -0.039,0.08 -0.137,0.3 -0.231,0.52 -0.109,0.18 -0.226,0.39 -0.34,0.61 -0.097,0.2 -0.179,0.39 -0.25,0.6 0,0 0,0 -0.008,0.01 -0.039,0.07 -0.089,0.13 -0.14,0.2 -1.629,2.31 -4.141,4.07 -6.578,5.77 -0.051,0.03 -0.102,0.07 -0.16,0.11 -0.141,0.06 -0.282,0.13 -0.411,0.2 -2.203,1.23 -4.57,2.42 -6.941,2.85 -5.469,0.96 -11.98,-0.14 -18.77,-3.3 -9.96,-5.25 -17.902,-13.21 -24.05,-24.22 -4.668,-7.62 -7.41,-15.25 -8.239,-22.81 0.071,-0.35 0.098,-0.7 0.098,-1.06 0,-0.42 -0.078,-0.93 -0.199,-1.41 0,-0.01 0,-0.02 0,-0.03 -0.102,-0.37 -0.219,-0.71 -0.352,-1 l 0,-0.01 m 23.614,-41.96 c -5.704,0 -11.192,1.54 -16.313,4.58 -10.461,5.89 -16.551,16.62 -17.508,30.98 l -0.011,2.61 c 0,1.76 0,3.57 0.281,5.44 0,0.1 0.008,0.21 0.019,0.31 l 0,0 c 0.61,9.97 3.91,19.9 9.801,29.51 7.039,12.62 16.348,21.9 28.34,28.22 9.019,4.19 17.488,5.52 25.078,4.2 3.84,-0.7 7.109,-2.31 10.07,-3.96 0.68,-0.31 1.301,-0.72 1.731,-1.15 2.351,-1.55 5.469,-3.72 8.012,-6.89 0.25,-0.22 0.488,-0.47 0.687,-0.75 0.672,-0.9 1.109,-1.68 1.422,-2.3 0.648,-0.77 1.078,-1.72 1.187,-2.77 2.34,-5.15 3.743,-10.52 4.34,-16.47 0.332,-13.63 -3.039,-26.62 -9.988,-39 -7.629,-12.84 -17.219,-22.09 -28.578,-27.61 -6.363,-3.27 -12.652,-4.95 -18.57,-4.95" /><path
         id="path60"
         style="fill:#f98873;fill-opacity:1;fill-rule:evenodd;stroke:none"
         d="m 773.324,1105.51 c -9.066,3.12 -18.429,1.7 -27.777,-4.25 -10.199,-6.8 -17.859,-16.44 -23.531,-29.2 -5.668,-11.62 -7.649,-24.38 -5.379,-36 1.129,-5.67 2.828,-10.2 4.82,-13.61 0.277,-0.28 0.559,-0.85 0.848,-1.13 -0.289,0.28 -0.289,0.57 -0.289,0.57 0,-0.29 0.57,-1.14 1.14,-1.7 -0.289,0.28 -0.57,0.56 -0.851,1.13 3.113,-4.82 7.082,-8.22 12.191,-10.2 22.672,-9.92 45.07,13.6 53.289,32.03 5.102,12.47 7.082,24.94 5.383,37.13 -1.703,9.07 -5.102,15.88 -10.773,20.41 -1.977,1.7 -3.969,2.84 -6.52,3.97 -1.129,0.57 -1.699,0.57 -2.27,0.57 0,0 0.29,0 0.852,-0.29 -0.281,0.29 -0.852,0.29 -1.133,0.57" /><path
         id="path62"
         style="fill:#df6456;fill-opacity:1;fill-rule:nonzero;stroke:none"
         d="m 727.621,1022.6 c 2.383,-3.17 5.242,-5.38 8.723,-6.73 3.117,-1.36 6.148,-2.01 9.207,-2.01 15.312,0 30.793,16.16 37.57,31.37 4.82,11.78 6.52,23.39 4.992,34.35 -1.472,7.84 -4.402,13.52 -8.902,17.13 -1.52,1.29 -2.93,2.16 -5.078,3.14 -0.582,0.04 -1.153,0.17 -1.699,0.41 -0.59,0.14 -1.141,0.38 -1.633,0.7 -7.328,2.24 -14.84,0.88 -22.52,-4.01 -9.16,-6.11 -16.258,-14.95 -21.597,-26.97 -5.313,-10.88 -7.071,-22.53 -5.043,-32.94 0.929,-4.64 2.339,-8.71 4.082,-11.78 l 0.058,-0.08 c 0.262,-0.26 0.492,-0.54 0.68,-0.86 0.121,-0.15 0.242,-0.3 0.34,-0.47 0.34,-0.38 0.609,-0.8 0.82,-1.25 m 17.93,-18.94 c -4.481,0 -8.891,0.94 -13.11,2.78 -5.418,2.1 -10.109,5.86 -13.75,11.09 -0.05,0.07 -0.109,0.15 -0.16,0.22 -0.039,0.05 -0.07,0.09 -0.097,0.13 -0.223,0.3 -0.411,0.59 -0.582,0.87 -0.149,0.2 -0.289,0.41 -0.321,0.45 -2.89,4.8 -4.711,9.9 -5.91,15.86 -2.449,12.6 -0.391,26.53 5.813,39.23 6.07,13.68 14.367,23.94 25.277,31.22 10.762,6.84 21.769,8.43 32.269,4.82 0.133,-0.03 0.25,-0.08 0.372,-0.14 0.921,-0.16 1.82,-0.47 2.8,-0.96 3.032,-1.35 5.352,-2.77 7.559,-4.66 6.371,-5.09 10.492,-12.77 12.473,-23.35 1.82,-13 -0.102,-26.38 -5.68,-40.01 -6.774,-15.18 -24.793,-37.55 -46.953,-37.55" /><path
         id="path64"
         style="fill:#fdfdfd;fill-opacity:1;fill-rule:evenodd;stroke:none"
         d="m 768.223,1474.58 c -25.508,1.98 -56.129,-5.95 -74.828,-5.95 -80.512,0 -89.86,-11.06 -145.422,-134.36 -5.387,-12.19 -13.61,-15.88 -16.438,-24.38 -5.961,-17.86 2.258,-51.59 0,-73.7 -0.293,-6.81 -0.293,-13.89 -0.293,-20.7 4.262,4.26 8.512,0 12.762,5.39 9.351,11.9 18.422,35.72 28.91,46.2 6.238,13.04 9.641,24.95 17.289,24.67 23.531,-0.85 70.59,-31.75 98.371,-40.82 28.34,-14.18 53,-38.84 68.59,-46.49 2.84,20.12 0.859,58.96 3.691,79.37 3.68,35.15 7.368,70.58 11.047,105.73 9.082,22.96 18.434,45.92 27.782,68.6 -0.848,7.37 -1.7,14.74 -2.551,22.11 -9.629,-1.7 -19.27,-3.69 -28.91,-5.67" /><path
         id="path66"
         style="fill:#fdfdfd;fill-opacity:1;fill-rule:evenodd;stroke:none"
         d="m 1163.94,1663.37 c 54.43,125.86 132.09,164.13 284.88,91.84 9.64,-4.53 12.19,-17.57 22.4,-23.81 9.35,-5.38 18.7,-11.05 28.06,-16.44 14.46,-6.52 28.63,-12.76 43.09,-19.27 40.25,-60.95 -20.41,-42.52 -64.07,-28.07 -47.05,1.7 -59.24,-5.38 -93.82,-34.01 -4.26,-7.66 -8.51,-15.31 -13.04,-22.96 -3.12,-21.83 -3.41,-48.48 -9.36,-69.17 -1.42,-5.67 -9.64,-1.13 -15.59,-4.54 -5.67,-3.11 -140.03,-13.88 -140.03,-13.88 -21.26,13.88 -42.52,28.06 -64.06,41.95 -9.07,15.3 -22.68,38.83 -27.22,46.49 -4.53,7.93 46.78,48.47 48.76,51.87" /><path
         id="path68"
         style="fill:#fdfdfd;fill-opacity:1;fill-rule:evenodd;stroke:none"
         d="m 1125.39,1658.27 c -146.831,-9.64 -256.82,-68.61 -356.882,-170.93 -41.098,-102.33 -76.25,-185.11 -43.66,-293.11 21.261,-73.98 115.371,-113.38 153.64,-165.53 49.332,-67.755 75.121,-43.942 140.882,-86.755 62.37,-37.129 73.14,-56.398 143.44,-53.57 28.34,6.242 56.41,12.762 84.75,19.281 69.74,28.059 92.98,41.949 141.74,96.944 44.78,68.32 60.37,101.76 63.49,182.84 -12.75,47.04 -22.96,94.11 -10.49,146.54 -5.1,59.25 -25.79,144.29 -66.04,201.82 -10.21,15.04 -17.01,31.18 -30.9,40.83 -61.23,42.51 -163.56,85.6 -219.97,81.64" /><path
         id="path70"
         style="fill:#70706f;fill-opacity:1;fill-rule:evenodd;stroke:none"
         d="m 1399.5,1025.57 c -16.44,-15.87 -104.6,16.72 -112.82,45.35 -0.28,-1.13 -11.9,-34.3 -39.68,-59.52 -16.44,-14.736 -44.79,-22.677 -62.65,-31.466 -14.74,-7.371 -28.63,-10.493 -40.25,-6.52 4.82,-28.91 9.92,-54.422 -16.16,-80.223 14.46,-0.847 31.47,-9.07 53.29,-3.398 68.03,18.141 157.33,85.039 218.27,135.777" /><path
         id="path72"
         style="fill:#f6ae94;fill-opacity:1;fill-rule:evenodd;stroke:none"
         d="m 1404.6,1041.45 c 3.12,5.39 6.24,10.49 9.35,15.59 4.82,5.1 9.08,11.06 13.89,16.16 4.82,-3.12 9.93,-6.52 14.46,-9.64 44.5,-47.62 50.46,-71.724 12.47,-123.591 -1.7,-2.84 -3.4,-5.391 -5.1,-8.223 29.48,-55.558 43.37,-88.16 39.4,-141.168 -7.65,-103.461 90.14,-151.082 -60.66,-242.359 -41.67,-25.231 -121.04,-10.492 -183.68,39.117 -76.82,65.48 -85.61,109.133 -76.26,209.762 0,3.968 0.29,7.937 0.29,11.629 -4.54,-0.289 -8.79,-0.848 -13.04,-1.418 -49.89,15.019 -74.55,48.75 -81.07,96.379 11.05,4.25 16.72,-9.071 27.78,-4.821 13.89,-4.539 32.31,-2.551 46.2,-7.09 10.21,-4.531 21.26,1.7 31.47,-2.832 l 0.56,-1.136 0.57,1.988 c 27.21,16.441 52.72,27.781 79.65,44.219 13.61,8.222 32.89,13.043 46.49,20.972 17.86,11.059 31.75,30.899 49.61,41.668 14.17,9.074 36,31.184 47.62,44.794" /><path
         id="path74"
         style="fill:#000000;fill-opacity:1;fill-rule:evenodd;stroke:none"
         d="m 1160.25,816.094 c 1.7,28.629 4.55,38.828 10.5,64.058 -21.84,-1.129 -62.93,6.52 -86.46,18.43 3.39,-19.84 10.48,-36.57 21.53,-50.172 9.64,-11.906 38.57,-34.019 54.43,-32.316 m 255.41,227.336 c 1.41,-5.1 3.11,-11.91 4.82,-18.99 1.97,-8.51 3.97,-17.29 5.66,-21.83 6.52,-17.579 15.02,-35.719 24.38,-53.856 15.59,22.109 22.39,38.269 20.41,53.856 -2.54,19.84 -24.38,47.91 -41.38,59.53 -5.67,-6.81 -9.35,-11.34 -13.89,-18.71 m -712.066,249.73 c -22.11,19.28 -82.489,34.3 -108.848,6.24 30.609,-4.25 65.758,-30.62 96.66,-40.54 0.278,-0.28 0.848,-0.57 1.129,-0.57 4.262,-2.26 8.219,-4.53 12.192,-6.8 -1.411,14.17 -1.704,28.06 -1.133,41.67 m 47.051,173.2 c -9.629,-0.57 -19.27,-1.99 -28.629,-3.12 -10.481,-1.42 -20.411,-2.83 -28.34,-2.83 -37.992,0 -58.961,-2.56 -76.25,-18.71 -18.153,-17.01 -34.02,-50.18 -61.52,-110.84 -3.961,-8.79 -14.172,-17.86 -16.152,-23.81 -2.84,-8.5 -1.699,-23.24 -0.57,-37.7 0.851,-11.62 1.98,-23.53 0.851,-33.45 l 0,-5.95 c 2.828,4.25 5.949,9.92 9.07,15.87 29.2,54.43 12.192,112.82 84.192,159.59 28.348,18.43 60.937,15.03 96.937,7.37 6.243,17.58 13.039,35.44 20.411,53.58 m 479.055,178.86 c 6.25,99.22 100.91,152.22 187.37,93.83 -49.89,15.31 -99.5,3.4 -105.73,-28.35 -2.54,-13.6 33.16,-43.08 35.16,-59.81 3.11,-28.06 7.93,-54.42 13.04,-73.13 0.28,3.12 0.55,6.52 0.85,9.64 2.25,26.08 1.13,27.78 17.84,50.17 9.93,13.32 22.11,23.24 45.09,32.03 59.23,22.96 73.7,-11.34 117.63,-7.94 7.09,0.57 8.5,7.09 -3.4,25.8 -3.98,6.24 -66.05,24.38 -84.75,51.87 -2.57,3.69 -5.12,7.09 -7.66,8.22 -73.98,35.15 -129.55,43.66 -172.34,28.35 -42.53,-15.31 -74,-54.14 -100.07,-113.95 18.13,-3.69 37.41,-9.64 56.97,-16.73 m 204.94,-324.56 c 0.86,2.83 1.43,5.67 1.43,6.52 6.52,66.33 -29.77,131.52 -54.71,176.6 -11.91,21.54 -21.54,38.83 -23.54,51.3 -0.84,0.57 -1.12,1.14 -1.69,1.42 -4.81,5.1 -10.2,9.64 -15.88,13.61 -31.45,21.82 -74.55,43.93 -116.21,59.52 -55.56,20.7 -79.65,23.53 -130.68,17.29 -58.68,-7.08 -111.407,-22.96 -159.876,-46.77 -29.199,-14.17 -56.687,-31.46 -83.339,-51.59 -16.719,-12.75 -69.731,-54.42 -76.54,-71.43 -39.109,-97.8 -71.429,-178.02 -40.531,-280.91 12.473,-43.09 52.16,-74.56 89.571,-104.04 24.101,-19.27 47.628,-37.98 62.929,-58.96 28.352,-39.107 48.481,-45.919 73.992,-54.419 17.86,-5.949 37.981,-12.758 64.634,-30.328 13.32,-7.942 23.51,-14.461 32.6,-20.41 24.65,-15.59 91.84,-33.45 120.47,-28.911 20.96,3.11 52.43,15.871 58.11,34.578 4.53,15.301 7.37,27.493 -15.59,53.571 -172.63,-92.688 -254.845,143.999 -90.15,167.249 10.49,16.72 30.04,27.78 50.18,36.28 44.5,18.99 70.86,7.65 104.88,-25.8 68.32,-68.03 12.19,-132.09 -52.72,-170.917 0.27,-1.422 0.56,-3.121 1.13,-4.261 37.12,-83.051 115.94,7.66 141.44,32.598 15.88,15.03 45.65,49.04 53.86,71.72 9.64,25.79 14.18,53.57 15.59,92.41 -6.23,23.53 -11.91,47.05 -14.45,71.43 -1.14,11.62 -1.71,23.25 -1.42,35.15 -2.27,5.39 1.42,19.84 5.39,25.8 0.28,0.56 0.57,1.13 1.12,1.7 m -58.96,231.87 c 3.12,-9.64 11.07,-23.53 20.41,-40.53 26.09,-47.06 63.5,-114.81 56.71,-186.52 -0.3,-2.27 -1.71,-8.51 -3.41,-13.61 -0.85,-2.27 -1.71,-4.25 -3.12,-6.24 -1.41,-15.59 -1.13,-31.18 0.57,-46.2 1.14,-11.91 3.11,-23.53 5.66,-35.15 2.27,-11.06 5.11,-22.11 8.23,-33.17 l 0.57,-2.83 0,-1.42 c -1.42,-41.1 -6.25,-70.58 -16.44,-98.36 -1.7,-4.54 -3.41,-8.79 -5.4,-13.32 23.54,-17.29 45.08,-43.37 48.49,-70.87 0.85,-5.669 0.55,-11.337 -0.29,-17.009 -2.84,-17.289 -18.71,-41.098 -28.07,-56.117 1.71,-3.403 3.68,-6.813 5.39,-10.211 27.77,-52.16 36.57,-80.5 32.88,-130.961 -2.54,-31.461 5.39,-58.11 12.75,-82.199 17.02,-56.7 30.62,-101.2 -77.38,-166.68 l 0,0.277 c -23.25,-14.168 -56.41,-17.008 -91.84,-9.347 -33.73,7.089 -70.01,23.531 -101.76,48.75 -0.29,0.289 -0.29,0.289 -0.58,0.57 -39.39,33.449 -66.32,67.75 -82.19,106.578 -15.88,38.84 -6.81,53.012 -2,104.602 0,1.417 -9.63,9.359 -14.73,11.339 -20.13,8.219 -36,19.84 -47.9,34.301 -14.18,17.578 -22.68,39.117 -26.09,64.348 -5.94,3.679 -12.19,7.652 -18.71,11.902 -9.63,6.238 -20.41,13.039 -32.3,20.129 0,0 -0.29,0.281 -0.58,0.57 -24.655,16.149 -43.644,22.391 -60.374,28.059 -28.629,9.641 -51.02,17.293 -82.77,60.939 -13.89,19 -36.281,36.85 -59.812,55.28 -39.399,31.18 -81.36,64.63 -95.25,112.82 -3.68,12.75 -6.52,25.23 -8.778,37.41 -7.089,5.11 -14.742,9.64 -22.402,13.61 -25.789,8.79 -73.699,39.4 -95.238,39.97 0,0 -20.692,-36.28 -25.512,-45.35 -6.519,-11.91 -15.879,-30.9 -33.168,-30.62 -4.82,0 -8.793,3.69 -8.793,8.22 l 0,10.49 c 0.293,3.68 0.293,7.09 0.293,10.77 l 0,0.57 c 1.129,8.79 0.277,19.84 -0.851,31.18 -1.141,16.16 -2.551,32.31 1.421,43.94 3.399,10.2 12.469,15.3 16.719,25.22 28.352,62.65 44.789,96.67 65.199,115.94 21.539,20.13 45.629,23.25 88.153,23.25 6.808,0 15.879,1.41 25.797,2.55 12.191,1.7 25.511,3.68 38.269,3.68 l 0,0.29 c 9.922,24.66 60.371,61.79 81.633,78.23 27.5,20.69 56.129,38.55 86.18,53.29 65.187,32.03 90.714,39.12 162.984,48.19 22.68,2.84 43.09,5.1 65.48,2.27 1.43,1.13 2.27,1.98 2.56,2.27 18.42,42.23 39.69,74.83 65.48,97.23 19.28,10.48 39.96,22.11 44.5,26.36 3.41,1.13 7.09,2.27 10.48,3.4 11.34,1.98 30.34,3.68 50.18,4.82 35.71,-1.99 77.11,-13.89 125.57,-36.85 7.09,-3.4 10.77,-8.79 14.46,-14.46 13.33,-19.27 59.54,-36.28 79.09,-45.07 1.7,-0.85 3.11,-1.98 3.97,-3.4 25.52,-38.84 16.16,-52.73 -7.38,-54.43 -37.98,-2.83 -67.46,26.65 -112.53,9.07 -18.98,-7.37 -29.77,-16.15 -38.54,-27.77 -12.48,-17.01 -12.19,-20.7 -14.18,-40.82 -0.28,-5.39 -1.14,-21.55 -1.71,-33.17 m -124.72,-646.577 25.52,13.598 c 43.93,32.601 87.31,65.203 125.86,106.869 0.57,-1.7 0.84,-3.68 1.41,-5.39 1.98,-8.78 4.25,-17.85 6.23,-23.518 9.93,-27.782 24.95,-55.852 39.7,-83.91 26.64,-49.891 34.3,-76.25 30.89,-122.168 -2.55,-34.301 5.66,-62.364 13.61,-88.161 15.02,-49.613 26.93,-89.011 -70.59,-147.972 -19.27,-11.617 -47.61,-13.891 -78.79,-7.367 -31.19,6.808 -64.64,22.109 -94.41,45.636 -37.12,31.75 -62.64,64.063 -77.37,100.352 -16.45,62.93 2.25,131.808 15.59,190.48 19.55,1.141 33.16,6.239 62.35,21.551" /><path
         id="path76"
         style="fill:#000000;fill-opacity:1;fill-rule:evenodd;stroke:none"
         d="m 1061.61,1180.63 c 14.74,-10.77 48.76,-15.31 64.63,-16.72 15.02,17.29 28.91,43.37 36.28,60.09 -18.99,-24.09 -54.14,-48.47 -100.91,-43.37" /><path
         id="path78"
         style="fill:#5b5b5b;fill-opacity:1;fill-rule:evenodd;stroke:none"
         d="m 1080.6,1063.27 c 23.24,-36.57 36.85,-1.7 54.71,3.12 3.4,1.13 8.79,0.85 5.67,6.52 -5.67,11.05 -13.61,14.45 -22.96,17.01 -10.49,2.83 -52.44,-3.69 -37.42,-26.65" /><path
         id="path80"
         style="fill:#5b5b5b;fill-opacity:1;fill-rule:evenodd;stroke:none"
         d="m 1216.95,1135.56 c 30.33,-32.6 -12.19,-30.05 -24.38,-42.24 -2.55,-2.55 -4.25,-6.8 -9.35,-2.26 -9.64,8.78 -10.21,16.15 -9.36,24.66 1.42,13.32 25.23,39.12 43.09,19.84" /><path
         id="path82"
         style="fill:#000000;fill-opacity:1;fill-rule:nonzero;stroke:none"
         d="m 1038.08,1393.23 c -5.95,8.79 -13.04,14.46 -23.81,16.16 -2.27,0.56 -4.54,2.55 -6.52,3.97 -55.559,46.19 -91.277,74.55 -138.047,51.02 -15.019,-7.37 -41.101,-30.61 -62.359,-57.54 -115.371,-144.57 -26.082,-198.71 -22.114,-252.29 0.282,-24.09 33.731,-42.52 60.661,-54.14 25.8,-11.05 56.98,-16.16 70.871,-21.84 28.058,-11.61 15.871,-20.11 54.711,-5.94 42.797,15.58 37.697,43.08 47.897,89.85 17.86,80.8 83.34,79.95 89.58,122.47 2.26,14.17 -2.27,33.16 -17.01,61.51 -8.51,16.16 -37.42,21.25 -53.86,46.77" /><path
         id="path84"
         style="fill:#fdfdfd;fill-opacity:1;fill-rule:evenodd;stroke:none"
         d="m 945.957,1315.56 c 5.391,-5.39 10.199,-11.06 14.457,-17.29 8.223,-12.76 18.141,-31.47 12.473,-47.62 -6.52,-19.56 -28.352,-25.8 -41.672,-39.97 -15.867,-16.44 -32.027,-32.32 -52.719,-43.09 -37.422,-19.56 -62.93,3.97 -76.82,34.87 -15.031,34.01 -12.192,81.64 15.019,112.53 28.063,32.03 66.61,39.4 101.762,20.13 9.93,-5.1 19.277,-11.91 27.5,-19.56" /><path
         id="path86"
         style="fill:#89866a;fill-opacity:1;fill-rule:evenodd;stroke:none"
         d="m 853.828,1315.84 c 0.852,0.28 1.703,0.85 2.551,1.42 8.512,5.1 25.801,11.62 37.422,11.9 8.789,0 21.828,-10.2 28.058,-15.59 11.621,-9.07 22.961,-20.41 23.25,-36.28 0,-7.65 -2.269,-15.59 -3.687,-23.25 -1.133,-7.08 -2.551,-14.17 -4.25,-20.97 -3.121,-10.49 -7.942,-20.13 -15.313,-28.63 -11.621,-13.61 -29.199,-24.95 -47.339,-26.65 -28.911,-3.12 -52.149,14.74 -61.79,39.12 -13.039,33.17 2.551,55.84 24.09,83.06 4.539,5.95 10.489,11.62 17.008,15.87" /><path
         id="path88"
         style="fill:#c8be78;fill-opacity:1;fill-rule:evenodd;stroke:none"
         d="m 842.207,1324.06 c 1.133,0.57 1.981,1.13 3.121,1.7 21.262,12.76 46.488,15.02 66.328,0.57 11.621,-8.51 22.114,-18.43 30.051,-30.33 16.441,-24.66 13.32,-40.82 0.281,-66.62 -6.242,-12.47 -28.629,-26.36 -41.101,-31.75 -14.18,-6.23 -29.77,-7.08 -44.508,-3.4 -28.063,6.81 -48.473,31.75 -49.039,61.23 -0.281,26.08 10.777,53.01 34.867,68.6" /><path
         id="path90"
         style="fill:#000000;fill-opacity:1;fill-rule:evenodd;stroke:none"
         d="m 940.852,1257.16 c 3.121,-33.45 -21.258,-65.2 -54.137,-71.15 -32.602,-5.95 -61.231,15.59 -64.352,48.47 -3.121,33.17 20.41,65.77 53.008,72 32.883,6.52 62.363,-15.87 65.481,-49.32" /><path
         id="path92"
         style="fill:#ffffff;fill-opacity:1;fill-rule:evenodd;stroke:none"
         d="m 845.895,1247.24 c -7.09,-2.27 -10.774,-9.35 -8.5,-16.16 2.546,-6.52 10.199,-9.92 17.289,-7.65 7.371,2.27 11.05,9.35 8.5,16.16 -2.27,6.52 -10.2,10.2 -17.289,7.65" /><path
         id="path94"
         style="fill:#000000;fill-opacity:1;fill-rule:nonzero;stroke:none"
         d="m 1195.97,1362.33 c 2.27,1.7 4.54,3.68 6.8,5.1 5.67,3.97 9.64,8.22 10.77,15.31 0.86,4.82 4.26,9.35 5.96,13.04 8.22,1.13 15.3,0.85 21.54,3.12 5.39,1.98 9.64,6.8 14.17,10.2 1.99,1.42 3.97,3.4 5.96,4.82 5.38,3.97 7.93,3.4 10.2,-2.83 0.57,-1.7 0.29,0.28 0.29,-1.42 17,0.57 30.33,5.38 45.35,3.12 0.28,-0.85 0.57,-1.7 0.85,-2.27 -2.27,-1.42 -4.54,-3.4 -6.8,-3.97 -10.21,-3.4 -20.41,-7.37 -30.62,-9.64 -27.21,-5.95 -51.3,-18.42 -74.83,-32.03 -2.84,-1.7 -5.67,-3.12 -8.22,-4.53 -0.57,0.56 -0.85,1.41 -1.42,1.98" /><path
         id="path96"
         style="fill:#000000;fill-opacity:1;fill-rule:evenodd;stroke:none"
         d="m 1134.18,1430.93 c 1.98,-7.37 4.82,-14.46 8.5,-20.69 7.37,-13.33 19.55,-30.9 36.28,-33.45 20.42,-2.84 36,13.89 54.72,19.27 21.82,6.52 43.37,13.61 62.07,27.22 34.59,24.37 25.52,58.11 4.54,84.47 -23.24,29.2 -66.61,48.47 -106.58,38.27 -41.1,-10.49 -65.2,-41.39 -64.35,-81.64 0.28,-11.34 1.69,-22.68 4.82,-33.45" /><path
         id="path98"
         style="fill:#89866a;fill-opacity:1;fill-rule:evenodd;stroke:none"
         d="m 1176.13,1513.13 c -0.85,-0.28 -1.7,-0.85 -2.55,-1.42 -8.51,-5.38 -22.11,-17.86 -27.5,-28.06 -4.25,-7.94 -0.85,-24.09 0.57,-32.32 3.12,-14.45 7.65,-29.76 21.54,-37.41 7.09,-3.4 14.74,-4.82 22.4,-7.09 6.8,-2.27 13.6,-4.53 20.41,-5.95 10.77,-2.27 21.54,-2.27 32.31,0.56 17.29,4.26 35.43,14.75 45.36,30.05 15.87,24.38 10.77,53.29 -6.52,73.14 -23.25,26.64 -50.18,23.24 -84.19,16.72 -7.66,-1.42 -15.03,-4.25 -21.83,-8.22" /><path
         id="path100"
         style="fill:#c8be78;fill-opacity:1;fill-rule:evenodd;stroke:none"
         d="m 1174.14,1527.3 c -0.84,-0.57 -1.98,-1.12 -2.82,-1.69 -21.27,-13.32 -34.87,-34.88 -31.19,-59.25 2.26,-14.18 6.23,-28.34 13.32,-40.81 14.18,-25.8 29.76,-30.62 58.68,-30.62 13.89,0 36.28,13.32 46.78,22.11 11.89,9.64 19.84,23.25 23.52,37.98 6.8,28.34 -5.68,58.12 -31.75,72 -22.97,12.19 -51.59,14.75 -76.54,0.28" /><path
         id="path102"
         style="fill:#000000;fill-opacity:1;fill-rule:evenodd;stroke:none"
         d="m 1188.89,1406.27 c 28.34,-18.14 69.72,-12.77 90.13,13.89 20.14,26.36 12.19,63.77 -15.59,81.63 -28.05,17.87 -67.45,11.62 -88.16,-14.45 -20.68,-26.36 -14.45,-62.93 13.62,-81.07" /><path
         id="path104"
         style="fill:#ffffff;fill-opacity:1;fill-rule:evenodd;stroke:none"
         d="m 1240.19,1489.04 c 5.39,5.1 13.32,5.1 18.14,0 4.82,-5.1 4.25,-13.61 -0.85,-18.99 -5.38,-5.39 -13.6,-5.39 -18.42,-0.29 -4.54,5.39 -4.26,13.89 1.13,19.28" /><path
         id="path106"
         style="fill:#000000;fill-opacity:1;fill-rule:nonzero;stroke:none"
         d="m 1330.27,733.391 c -2.96,-0.008 -5.46,1.382 -7.44,4.132 -22.2,27.7 -44.02,58.719 -55.59,100.969 -6.14,23.692 -8.82,53.238 -7.34,81.168 0.21,4.153 4.11,7.313 7.89,7.113 4.15,-0.222 7.32,-3.75 7.11,-7.89 -1.39,-26.473 1.11,-54.36 6.86,-76.531 10.76,-39.231 31.32,-68.598 52.03,-94.45 2.22,-0.929 3.96,-2.91 4.47,-5.461 0.82,-4.07 -1.83,-8.019 -5.89,-8.839 -0.72,-0.141 -1.43,-0.211 -2.1,-0.211" /><path
         id="path108"
         style="fill:#878787;fill-opacity:1;fill-rule:nonzero;stroke:none"
         d="m 566.113,1563.02 c 15.871,1.98 30.328,2.83 42.239,3.4 21.543,0.85 35.152,0 37.98,0 l 1.133,0 c 3.117,-0.57 6.238,-2.27 8.219,-4.53 0.289,-0.29 0.289,-0.57 0.57,-0.85 1.699,-2.27 2.551,-5.11 2.269,-8.22 l 0,-0.29 -0.281,-4.82 0,-0.28 c -0.57,-3.4 -1.988,-6.24 -4.539,-8.22 -2.551,-2.27 -5.672,-3.4 -9.351,-3.12 -1.137,0 -52.731,3.97 -125.579,-12.47 -36.851,-8.22 -79.371,-21.83 -123.308,-43.66 -35.152,-17.57 -71.152,-40.25 -106.293,-70.01 -30.617,-26.08 -60.379,-57.26 -88.16,-94.96 l -0.289,0 c -1.981,-2.84 -5.098,-4.82 -8.219,-5.1 -0.281,-0.29 -0.563,-0.29 -0.852,-0.29 -3.109,-0.28 -6.23,0.57 -8.781,2.55 l -3.687,2.84 -0.571,0.28 c -2.55,1.99 -4.25,5.1 -4.531,8.22 -0.57,3.12 0.281,6.52 2.27,9.36 20.121,27.21 41.382,51.3 63.211,72.56 23.812,23.53 48.191,43.37 72.57,60.38 27.781,19.28 55.269,34.87 81.629,47.34 32.043,15.02 62.082,25.51 88.73,33.17 14.449,3.96 28.34,7.08 41.672,9.92 15.301,3.12 29.481,5.1 41.949,6.8 m -8.789,-113.67 c -28.062,-11.9 -72.562,-31.75 -117.64,-68.6 -38.262,-31.18 -77.379,-73.98 -108.282,-132.38 -24.937,-46.77 -44.218,-103.46 -53.859,-172.06 -8.5,-60.09 -9.352,-129.54 0.57,-209.478 0.571,-3.402 -0.57,-6.801 -2.55,-9.352 -1.989,-2.839 -5.098,-4.539 -8.508,-5.109 l -4.532,-0.558 -0.281,0 c -3.41,-0.293 -6.808,0.847 -9.359,2.828 -2.551,1.992 -4.25,4.82 -4.82,8.511 -3.68,30.328 -5.95,60.09 -7.079,89 -0.851,28.918 -0.293,56.978 1.7,83.908 1.98,27.21 5.379,53.29 10.199,78.52 4.82,25.23 11.058,49.61 18.711,72.85 6.238,18.71 13.32,36.85 21.539,53.86 7.941,17.29 17.012,34.01 26.93,50.17 9.921,15.87 20.699,31.18 32.32,45.64 11.621,14.46 24.09,28.35 37.41,41.1 14.18,13.89 28.629,26.08 43.09,36.85 30.621,22.96 64.058,42.52 99.5,56.98 29.762,12.47 50.172,17.01 51.019,17.29 3.121,0.57 6.243,0 9.071,-1.42 2.55,-1.42 4.539,-3.97 5.672,-6.8 l 1.699,-4.54 0,-0.28 c 1.14,-2.83 0.847,-5.95 -0.281,-8.5 -5.95,-13.04 -18.711,-8.79 -42.239,-18.43 m -200.972,135.78 0,0 c -2.547,0 -4.821,0.85 -6.809,1.98 -0.281,0.29 -0.559,0.29 -0.852,0.57 -1.699,1.14 -2.828,2.55 -3.968,4.54 l -1.981,3.11 0,0.29 c -1.699,2.83 -2.269,6.23 -1.418,9.35 0.848,3.4 2.84,6.24 5.668,7.94 l 0.571,0.28 c 3.121,1.99 24.66,14.18 60.66,24.95 19.558,5.95 43.371,11.62 70.871,15.31 22.109,2.83 46.48,4.53 73.129,3.96 23.531,-0.56 48.468,-2.83 74.832,-7.37 l 0.289,0 c 3.398,-0.56 6.23,-2.55 7.937,-5.1 1.981,-2.55 2.832,-5.95 2.262,-9.64 l -0.852,-4.53 0,-0.29 c -0.558,-3.4 -2.546,-6.23 -5.097,-7.93 -2.551,-1.99 -5.949,-2.84 -9.641,-2.27 -24.941,4.25 -48.469,6.24 -70.301,6.8 -24.937,0.57 -47.898,-0.85 -68.308,-3.68 -25.801,-3.12 -47.621,-8.51 -65.481,-13.89 -33.449,-9.92 -52.441,-20.98 -54.711,-22.4 l -0.277,0 c -0.852,-0.56 -1.992,-1.13 -3.121,-1.41 -0.852,-0.29 -1.699,-0.29 -2.27,-0.29 -0.57,-0.28 -0.851,-0.28 -1.132,-0.28" /></g></g></svg>