<svg width="51.05px4" height="51.05px4" viewBox="0 0 51.05 51.05" xmlns="http://www.w3.org/2000/svg" xmlns:xlink="http://www.w3.org/1999/xlink">
  <defs/>
  <g>
    <path stroke="none" fill="#94a2af" d="M40.6 34.85 Q41.3 33.75 40.45 32.75 40.1 32.35 39.6 32.2 L38.6 32.25 Q37.9 32.65 37.5 33.3 34.1 38.8 27.9 40.05 21.7 41.25 16.6 37.4 14.25 35.65 12.8 33.15 12.1 32 11 32.15 10 32.35 9.6 33.2 9.25 34.05 9.8 34.95 12.4 39.2 16.2 41.45 19.85 43.65 24.35 43.85 31 43.85 35.75 40.3 38.65 38.2 40.6 34.85 M15.9 18.4 Q15.3 18.4 14.9 18.85 14.45 19.3 14.45 19.9 14.45 20.5 14.9 20.95 15.3 21.35 15.9 21.35 16.5 21.35 16.95 20.95 17.35 20.5 17.35 19.9 17.35 19.3 16.95 18.85 16.5 18.4 15.9 18.4 M15.35 8.35 Q12 9.5 12.45 11.05 12.65 11.7 13.75 11.55 L17.25 10.4 19.85 9.6 Q21.05 9.35 21.15 8.55 21.25 7.85 20.55 7.45 L18.9 7.25 15.35 8.35 M25.55 0 Q36.1 0 43.55 7.5 51.05 14.95 51.05 25.5 51.05 36.05 43.55 43.55 36.1 51.05 25.55 51.05 15 51.05 7.5 43.55 0 36.1 0 25.5 0 14.95 7.5 7.5 15 0 25.55 0 M30.9 21.2 Q31.6 21.2 32.05 20.75 32.55 20.25 32.55 19.6 32.55 18.95 32.05 18.45 31.6 17.95 30.9 17.95 30.25 17.95 29.75 18.45 29.25 18.95 29.25 19.6 29.25 20.25 29.75 20.75 30.2 21.2 30.9 21.2 M32.65 16.9 Q34.85 16.9 36.35 18.45 37.9 20 37.9 22.15 37.9 24.35 36.35 25.85 34.85 27.4 32.65 27.4 30.5 27.4 28.95 25.85 27.45 24.35 27.45 22.15 27.45 19.95 28.95 18.45 30.5 16.9 32.65 16.9 M18.05 27.05 Q15.9 27.05 14.45 25.55 12.95 24.05 12.95 21.95 12.95 19.8 14.45 18.3 15.9 16.8 18.05 16.8 20.15 16.8 21.65 18.3 23.15 19.8 23.15 21.95 23.15 24.05 21.65 25.55 20.15 27.05 18.05 27.05 M17.5 12.3 Q14.15 12.3 11.1 15.6 8 18.95 8 22.6 8 26.1 10.35 28.05 12.55 29.9 16.05 29.9 19.55 29.9 21.75 28.05 24.1 26.1 24.1 22.6 24.1 18.55 22.45 15.6 20.6 12.3 17.5 12.3 M35.05 29.9 Q38.55 29.9 40.75 28.05 43.1 26.1 43.1 22.6 43.1 18.95 40 15.6 36.9 12.3 33.6 12.3 30.5 12.3 28.65 15.6 27 18.55 27 22.6 27 26.1 29.35 28.05 31.55 29.9 35.05 29.9 M31.45 7.25 L29.8 7.45 Q29.15 7.85 29.2 8.55 29.3 9.35 30.55 9.6 L33.1 10.4 Q35.6 11.4 36.6 11.55 37.7 11.7 37.9 11.05 38.35 9.5 35 8.35 L31.45 7.25"/>
  </g>
</svg>