<?xml version="1.0" encoding="UTF-8" standalone="no"?>
<svg
   xmlns:dc="http://purl.org/dc/elements/1.1/"
   xmlns:cc="http://creativecommons.org/ns#"
   xmlns:rdf="http://www.w3.org/1999/02/22-rdf-syntax-ns#"
   xmlns:svg="http://www.w3.org/2000/svg"
   xmlns="http://www.w3.org/2000/svg"
   viewBox="0 0 248.03751 248.03751"
   height="248.03751"
   width="248.03751"
   xml:space="preserve"
   version="1.1"
   id="svg2"><metadata
     id="metadata8"><rdf:RDF><cc:Work
         rdf:about=""><dc:format>image/svg+xml</dc:format><dc:type
           rdf:resource="http://purl.org/dc/dcmitype/StillImage" /></cc:Work></rdf:RDF></metadata><defs
     id="defs6" /><g
     transform="matrix(1.25,0,0,-1.25,0,248.0375)"
     id="g10"><g
       transform="scale(0.1,0.1)"
       id="g12"><path
         id="path14"
         style="fill:#000000;fill-opacity:1;fill-rule:evenodd;stroke:none"
         d="m 1220.34,1249.99 c -3.4,155.91 -2.55,311.81 -4.25,467.43 -3.4,311.81 340.72,278.93 326.55,-9.92 -2.27,-147.68 -11.06,-295.08 -20.98,-442.49 -7.65,-109.13 -17.57,-206.36 -17,-316.908 69.73,-30.899 121.88,-79.938 146.55,-174.047 68.88,-260.782 -273.83,-815.5238 -572.6,-598.672 -248.032,-40.82 -386.649,88.719 -465.172,271.551 -39.969,80.23 -61.508,171.5 -72.848,261.929 -11.902,69.16 -7.082,95.239 -12.473,161.852 -58.679,151.655 -125.008,299.905 -185.949,450.705 -89.859,221.67 186.23,366.24 268.723,119.91 29.769,-89.29 58.957,-178.87 87.308,-268.44 50.739,89.86 183.969,115.65 248.309,21.82 27.5,136.63 205.802,167.82 273.832,55.28" /><path
         id="path16"
         style="fill:#fad7c8;fill-opacity:1;fill-rule:evenodd;stroke:none"
         d="m 1151.46,1006.21 c 24.38,0.85 58.11,-4.82 75.4,-15.589 -134.93,44.789 -111.97,-57.539 -26.08,-66.047 22.4,-2.269 43.94,-1.703 56.7,1.989 -10.21,-12.192 -56.7,-9.36 -83.06,-1.7 -68.6,20.121 -91.56,79.077 -22.96,81.347 m 99.5,-18.136 c -12.76,-13.043 -1.99,-41.39 26.93,-59.25 -41.96,17.297 -56.41,52.16 -26.93,59.25 M 962.387,857.395 c -5.391,16.726 -14.739,32.32 -26.36,40.82 18.141,-3.402 32.879,-24.942 36,-45.922 9.918,-63.211 -95.25,-102.051 -130.109,-48.469 -11.633,17.848 -15.031,43.649 -3.973,58.391 -4.25,-20.692 1.703,-57.543 31.184,-66.332 39.68,-11.34 105.449,22.39 93.258,61.512 m -129.539,22.957 c 27.488,-6.52 71.711,7.371 90.988,32.32 -12.758,-34.301 -66.898,-52.438 -90.988,-32.32 m 68.031,297.068 c -55.563,18.99 -142.024,-6.52 -177.731,-60.66 21.821,77.1 127.84,109.99 177.731,60.66 M 712.086,1048.45 c 28.352,-101.766 97.512,-330.805 213.172,-297.637 64.91,18.421 72.558,90.992 62.64,170.929 -24.941,74.832 -36.281,158.168 -42.8,206.638 -6.52,47.63 -45.922,83.34 -80.789,93.55 -82.204,23.81 -186.524,-52.16 -152.223,-173.48 m 428.884,196.44 c -41.67,19.84 -111.4,7.93 -144.282,-31.18 24.092,58.11 109.702,74.26 144.282,31.18 M 972.309,1132.07 c 11.058,-81.64 34.871,-241.507 98.361,-308.129 -59.24,73.422 -56.41,260.509 157.04,209.199 -3.12,44.5 -7.65,87.31 -8.79,120.47 -8.22,203.81 -271.842,168.38 -246.611,-21.54 m -182.832,-492.097 1.41,4.539 c 51.308,14.172 169.23,13.043 245.483,-82.207 -50.175,44.508 -161.854,91.277 -246.893,77.668 m -97.801,360.567 c -11.047,44.22 -25.508,89.29 -8.219,130.96 l 1.129,-3.97 c -27.207,87.03 -60.367,190.77 -98.641,305.29 -71.148,212.32 -295.66,86.74 -219.398,-101.48 51.019,-125.85 132.371,-311.81 187.648,-454.668 0.852,-9.359 -1.418,-15.309 -1.129,-20.41 2.832,-68.321 6.231,-94.399 16.719,-154.489 38.844,-222.242 141.453,-566.652 515.915,-497.199 276.37,-217.4217 602.36,322.301 538.86,562.399 -45.07,171.492 -180,164.691 -320.88,213.73 -77.39,26.927 -211.46,73.977 -234.42,-30.332 -39.41,-178.297 242.36,-216.566 356.03,-210.328 -38.27,-41.391 -147.12,-17.012 -149.39,-18.711 -15.02,-11.617 -17.86,-13.891 -52.44,-35.43 -156.19,-107.718 -216,-223.379 -215.72,-318.621 -15.592,128.692 111.97,278.934 234.43,363.692 -34.3,8.5 -68.03,20.121 -97.51,35.429 -56.7,-5.097 -97.23,31.461 -126.43,84.469 -8.79,-138.328 -134.082,-175.75 -216.285,-78.226 l -0.289,-0.293 c -56.121,65.769 -81.918,147.691 -109.98,228.188 m 551.914,717.17 c 2.55,-231.59 -0.29,-463.47 12.75,-692.51 l 220.82,-66.048 c -0.85,128.698 33.17,442.488 37.98,749.198 8.23,257.1 -274.39,280.91 -271.55,9.36" /><path
         id="path18"
         style="fill:#000000;fill-opacity:1;fill-rule:evenodd;stroke:none"
         d="m 1487.93,903.598 c -3.12,-10.489 -9.64,-19.559 -17.29,-27.207 8.79,16.148 14.74,43.078 16.16,59.808 3.11,-6.238 5.38,-19.84 1.13,-32.601 m -24.66,40.25 c -2.55,0.57 -5.1,1.14 -7.66,1.703 l -6.51,-28.063 c -8.79,-25.508 -20.41,-42.8 -33.45,-64.347 25.51,16.16 47.05,46.769 47.62,90.707" /></g></g></svg>