<?xml version="1.0" encoding="UTF-8" standalone="no"?>
<svg
   xmlns:dc="http://purl.org/dc/elements/1.1/"
   xmlns:cc="http://creativecommons.org/ns#"
   xmlns:rdf="http://www.w3.org/1999/02/22-rdf-syntax-ns#"
   xmlns:svg="http://www.w3.org/2000/svg"
   xmlns="http://www.w3.org/2000/svg"
   viewBox="0 0 248.03751 248.03751"
   height="248.03751"
   width="248.03751"
   xml:space="preserve"
   version="1.1"
   id="svg2"><metadata
     id="metadata8"><rdf:RDF><cc:Work
         rdf:about=""><dc:format>image/svg+xml</dc:format><dc:type
           rdf:resource="http://purl.org/dc/dcmitype/StillImage" /></cc:Work></rdf:RDF></metadata><defs
     id="defs6" /><g
     transform="matrix(1.25,0,0,-1.25,0,248.0375)"
     id="g10"><g
       transform="scale(0.1,0.1)"
       id="g12"><path
         id="path14"
         style="fill:#000000;fill-opacity:1;fill-rule:nonzero;stroke:none"
         d="m 911.371,431.152 c -3.68,-1.418 -7.371,-2.55 -11.34,-3.398 l -30.051,-67.75 c -113.101,-19.563 -258.519,5.391 -352.058,55.277 -58.684,31.461 -98.641,74.832 -100.352,119.051 -118.48,59.531 -204.941,231.59 -250.011,344.133 -74.5473,186.225 85.89,352.055 256.82,366.795 56.691,157.32 280.062,233.29 430.301,168.66 110.55,146.55 367.93,152.51 482.74,9.07 175.75,130.11 477.07,5.1 410.45,-306.99 -19.56,-92.13 -54.99,-263.906 -126.14,-388.348 33.17,-18.418 59.53,-42.519 79.37,-69.437 27.21,-37.422 -80.5,-88.731 -79.65,-132.672 1.42,-66.039 -33.17,-46.199 -94.11,-95.238 -51.03,-41.102 -29.2,-56.41 -143.15,-56.692 l -29.2,0.559 c -117.64,3.691 -301.89,-15.867 -443.619,56.98" /><path
         id="path16"
         style="fill:#fad7c8;fill-opacity:1;fill-rule:evenodd;stroke:none"
         d="m 814.707,591.594 c 5.672,-1.699 11.34,-3.68 17.012,-5.391 -82.211,-63.488 -63.781,-146.828 28.058,-196.719 -41.949,-7.371 -92.41,-8.218 -146.828,-1.699 -141.453,17.008 -256.543,78.801 -261.359,139.75 32.027,-10.211 66.047,-9.07 101.199,7.649 50.738,23.242 73.418,48.468 73.699,81.64 54.141,-51.879 127.559,-62.082 188.219,-25.23" /><path
         id="path18"
         style="fill:#fad7c8;fill-opacity:1;fill-rule:evenodd;stroke:none"
         d="m 448.188,1210.96 c -137.2,9.65 -329.668,-131.53 -254.829,-318.605 59.809,-149.113 196.438,-408.48 359.43,-331.089 22.68,10.769 39.68,24.937 52.719,41.949 -75.68,64.918 -110.828,219.398 -125.012,360.57 43.383,-181.133 123.883,-390.051 278.371,-365.949 28.34,4.527 103.18,32.59 121.321,55.559 64.628,82.48 -33.731,255.679 -15.309,393.735 26.078,-198.146 86.738,-426.626 241.231,-428.888 75.69,-1.137 114.24,38.832 134.08,96.371 5.39,15.879 47.91,166.403 42.8,370.207 13.61,-57.26 54.14,-140.316 -29.19,-430.015 l 173.76,-34.012 c 185.1,-19 263.62,369.922 292.82,507.977 2.55,11.61 4.53,22.66 5.95,33.43 21.83,169.52 -79.08,265.61 -190.49,280.07 -72.28,9.36 -149.1,-15.59 -199.84,-77.66 -81.07,180.55 -381.543,176.87 -467.152,1.98 -124.442,90.7 -385.508,20.12 -420.66,-155.63" /><path
         id="path20"
         style="fill:#000000;fill-opacity:1;fill-rule:evenodd;stroke:none"
         d="M 442.805,1099 C 357.762,1104.09 263.371,1042.3 239.844,977.953 226.805,1058.18 344.723,1132.73 442.805,1099" /><path
         id="path22"
         style="fill:#000000;fill-opacity:1;fill-rule:evenodd;stroke:none"
         d="m 1660.28,1245.26 c -42.24,62.65 -167.81,85.61 -256.25,57.54 86.74,64.63 240.38,34.02 256.25,-57.54" /><path
         id="path24"
         style="fill:#000000;fill-opacity:1;fill-rule:evenodd;stroke:none"
         d="m 823.211,1282.96 c -85.609,27.5 -212.027,-14.17 -265.891,-77.1 23.813,89.57 180.282,138.91 265.891,77.1" /><path
         id="path26"
         style="fill:#000000;fill-opacity:1;fill-rule:evenodd;stroke:none"
         d="m 1235.37,1334.27 c -74.27,36 -203.81,18.43 -270.14,-28.06 44.22,73.7 203.81,93.54 270.14,28.06" /><path
         id="path28"
         style="fill:#000000;fill-opacity:1;fill-rule:evenodd;stroke:none"
         d="m 376.754,631.848 c 0,0 48.191,1.129 78.801,11.34 30.621,10.199 60.101,33.449 60.101,33.449 0,0 -26.359,-32.602 -63.781,-46.77 -37.422,-13.89 -75.121,1.981 -75.121,1.981" /><path
         id="path30"
         style="fill:#000000;fill-opacity:1;fill-rule:evenodd;stroke:none"
         d="m 428.063,599.531 c 0,0 27.781,3.399 59.238,21.258 0,0 -16.149,-29.476 -59.238,-21.258" /><path
         id="path32"
         style="fill:#000000;fill-opacity:1;fill-rule:evenodd;stroke:none"
         d="m 650.016,718.02 c 0,0 68.597,1.418 111.968,15.871 43.371,14.738 85.321,47.629 85.321,47.629 0,0 -37.418,-46.493 -90.418,-66.332 -53.301,-19.848 -106.871,2.832 -106.871,2.832" /><path
         id="path34"
         style="fill:#000000;fill-opacity:1;fill-rule:evenodd;stroke:none"
         d="m 722.867,672.098 c 0,0 39.688,4.82 84.188,30.05 0,0 -22.957,-41.671 -84.188,-30.05" /><path
         id="path36"
         style="fill:#000000;fill-opacity:1;fill-rule:evenodd;stroke:none"
         d="m 977.133,828.004 c 0,0 67.457,-12.473 112.817,-7.09 45.64,5.109 93.26,28.918 93.26,28.918 0,0 -46.21,-37.699 -102.33,-46.211 -55.84,-8.5 -103.747,24.383 -103.747,24.383" /><path
         id="path38"
         style="fill:#000000;fill-opacity:1;fill-rule:evenodd;stroke:none"
         d="m 1038.93,768.191 c 0,0 39.97,-3.398 88.72,12.192 0,0 -30.89,-36 -88.72,-12.192" /><path
         id="path40"
         style="fill:#000000;fill-opacity:1;fill-rule:evenodd;stroke:none"
         d="m 1335.71,799.375 c 0,0 55,-40.543 98.09,-55.844 43.36,-15.308 96.66,-14.738 96.66,-14.738 0,0 -58.11,-13.891 -112.25,3.121 -54.14,17 -82.5,67.461 -82.5,67.461" /><path
         id="path42"
         style="fill:#000000;fill-opacity:1;fill-rule:evenodd;stroke:none"
         d="m 1364.91,718.586 c 0,0 34.3,-20.691 85.04,-27.781 0,0 -43.65,-18.989 -85.04,27.781" /><path
         id="path44"
         style="fill:#fad7c8;fill-opacity:1;fill-rule:evenodd;stroke:none"
         d="m 1710.74,414.711 c 46.49,69.172 40.25,179.43 -9.64,243.5 -27.49,35.43 -66.9,69.16 -79.37,69.441 -20.69,0.289 -71.71,-95.519 -113.95,-105.441 27.5,-29.199 41.67,-65.199 32.31,-101.199 -11.9,74.551 -116.22,148.25 -208.63,159.871 5.96,1.14 11.91,1.988 18.15,2.551 -168.38,36 -420.098,19.277 -511.09,-63.782 -29.481,-26.922 -50.168,-62.922 -57.54,-109.699 -36.57,-146.262 257.1,-178.582 349.22,-180.281 202.4,-3.969 445.33,-116.219 580.54,85.039" /><path
         id="path46"
         style="fill:#000000;fill-opacity:1;fill-rule:nonzero;stroke:none"
         d="m 1758.36,537.453 c 1.98,-46.769 -9.07,-94.68 -34.02,-131.812 -142.3,-211.469 -390.04,-96.098 -594.42,-92.411 -89.01,1.704 -371.057,30.333 -368.217,174.333 0.277,27.21 12.75,68.031 24.66,90.71 10.77,20.411 24.66,38.27 41.098,53.29 128.133,117.07 550.209,109.699 666.709,8.789 27.78,-23.809 92.13,104.031 127.84,103.461 24.95,-0.282 73.7,-52.161 91.85,-75.68 27.49,-35.153 42.52,-82.492 44.5,-130.68 m -60.94,-113.672 c 42.23,62.653 36.85,165.539 -9.08,224.223 -11.05,14.457 -57.54,63.207 -66.61,63.5 l -48.47,-57.551 c -17.29,-19.84 -35.44,-37.699 -54.14,-45.633 -3.12,-1.136 -0.29,-20.129 -3.41,-20.699 -3.96,-0.848 -43.93,30.051 -53.57,36.57 -119.06,82.2 -500.878,85.891 -612.57,-16.437 -28.91,-26.363 -46.488,-60.383 -52.718,-100.352 0,-0.281 0,-0.851 -0.289,-1.129 l 0,-0.281 C 763.684,373.32 1064.16,346.961 1130.49,345.832 c 197.57,-3.691 438.8,-112.82 566.93,77.949" /><path
         id="path48"
         style="fill:#000000;fill-opacity:1;fill-rule:evenodd;stroke:none"
         d="m 937.164,418.965 c 29.481,-3.68 61.512,-0.281 85.606,11.621 -23.247,-25.512 -69.165,-32.883 -102.895,-22.961 -101.199,29.199 -54.711,219.398 57.828,235.277 37.407,5.383 78.527,-7.66 88.997,-35.437 -26.07,21.258 -85.595,38.269 -127.266,-1.41 -55.84,-53.012 -71.149,-178.301 -2.27,-187.09" /><path
         id="path50"
         style="fill:#000000;fill-opacity:1;fill-rule:evenodd;stroke:none"
         d="m 1098.17,602.648 c -36.57,-37.699 -59.81,-115.937 -42.52,-163.281 -37.13,43.942 -10.49,140.602 42.52,163.281" /></g></g></svg>