<?xml version="1.0" encoding="UTF-8" standalone="no"?>
<svg
   xmlns:dc="http://purl.org/dc/elements/1.1/"
   xmlns:cc="http://creativecommons.org/ns#"
   xmlns:rdf="http://www.w3.org/1999/02/22-rdf-syntax-ns#"
   xmlns:svg="http://www.w3.org/2000/svg"
   xmlns="http://www.w3.org/2000/svg"
   viewBox="0 0 248.03751 248.03751"
   height="248.03751"
   width="248.03751"
   xml:space="preserve"
   version="1.1"
   id="svg2"><metadata
     id="metadata8"><rdf:RDF><cc:Work
         rdf:about=""><dc:format>image/svg+xml</dc:format><dc:type
           rdf:resource="http://purl.org/dc/dcmitype/StillImage" /></cc:Work></rdf:RDF></metadata><defs
     id="defs6" /><g
     transform="matrix(1.25,0,0,-1.25,0,248.0375)"
     id="g10"><g
       transform="scale(0.1,0.1)"
       id="g12"><path
         id="path14"
         style="fill:#cacaca;fill-opacity:1;fill-rule:evenodd;stroke:none"
         d="m 308.48,1507.21 c -27.5,119.34 88.719,240.09 260.79,162.7 108,-48.75 441.92,-227.61 641.76,-306.98 -110.55,-28.93 -685.698,114.52 -837.35,140.3 -23.25,3.98 -45.071,5.11 -65.2,3.98 m 889.23,-218.28 38.55,54.43 -17.29,16.44 c 58.96,-23.25 105.45,-37.14 129.54,-35.42 l 0,-0.29 15.59,-24.95 -50.74,-43.09 c -21.26,-21.25 -69.45,-92.12 -89.29,-120.19 l -39.4,-5.95 c 0,0 -19.84,9.36 -43.94,20.13 l 0.85,0.28 c 9.92,26.64 41.96,116.5 56.13,138.61" /><path
         id="path16"
         style="fill:#d4ceca;fill-opacity:1;fill-rule:evenodd;stroke:none"
         d="m 797.738,1527.9 c -102.328,51.02 -192.187,96.38 -239.527,117.64 -149.672,67.46 -251.711,-36 -222.801,-138.05 12.192,-0.57 24.942,-1.98 38.27,-4.25 132.66,-22.68 589.601,-135.21 775.84,-143.72 -104.32,45.64 -236.129,110.55 -351.782,168.38 m 488.412,-303.87 c -11.06,-14.46 -21.83,-29.77 -32.6,-45.93 l 32.6,45.93 z m 27.21,32.03 c -9.35,-9.92 -18.14,-20.7 -26.93,-32.03 l 26.93,32.03 z m -133.79,-4.82 c 24.09,49.89 12.47,29.76 45.63,76.82 43.09,-16.73 76.54,-27.22 95.82,-28.07 -60.95,-51.87 -76.26,-96.66 -117.64,-147.68 -15.88,5.67 -34.3,12.19 -53.86,19.28 l 30.05,79.65 z m 184.53,47.9 c -18.42,-11.62 -35.15,-26.36 -50.74,-43.08" /><path
         id="path18"
         style="fill:#979697;fill-opacity:1;fill-rule:evenodd;stroke:none"
         d="m 800.008,1126.23 c -151.371,15.59 -303.02,31.18 -454.391,47.62 -295.9373,32.32 -247.4686,376.73 28.063,329.39 153.347,-26.36 740.13,-172.63 841.04,-139.47 l 21.54,-20.41 c -26.36,-37.41 -38.55,-50.17 -56.69,-92.12 l -37.99,-100.92 -36.85,-15.59 c 0,0 -138.332,26.08 -138.613,14.46 0,-11.34 -114.801,-1.42 -111.398,-10.77 3.679,-9.92 -34.871,-9.92 -54.711,-12.19" /><path
         id="path20"
         style="fill:#beb1ac;fill-opacity:1;fill-rule:evenodd;stroke:none"
         d="m 630.496,1423.02 c -111.687,23.8 -210.051,45.07 -261.07,53.86 -237.258,40.82 -283.7502,-247.75 -20.981,-276.38 195.59,-21.54 363.973,-38.55 487.563,-51.31 72.57,33.74 204.952,18.7 281.202,11.63 27.21,60.09 31.18,107.14 76.82,172.63 -66.62,-13.9 -341.585,42.51 -563.534,89.57 m 549.074,-172.06 c -7.09,-16.73 -13.61,-34.3 -20.13,-52.44 l 20.13,52.44 z m 18.14,37.98 c -6.52,-11.9 -12.47,-24.39 -18.14,-37.71 l 18.14,37.71 z m 38.55,54.43 c -15.02,-15.89 -27.49,-34.3 -38.55,-54.43" /><path
         id="path22"
         style="fill:#979697;fill-opacity:1;fill-rule:evenodd;stroke:none"
         d="M 859.535,888.402 C 717.805,832.563 576.355,777.004 434.055,722.012 156.258,614.863 41.1758,943.113 307.918,1027.58 c 148.246,47.06 736.722,186.52 810.992,262.49 l 0,-0.28 28.63,-8.22 c -6.52,-45.36 -11.34,-62.08 -7.94,-107.72 l 12.47,-107.15 -25.52,-30.9 c 0,0 -134.925,-40.249 -129.816,-50.456 5.106,-10.481 -101.476,-54.422 -94.109,-60.942 7.652,-7.089 -26.367,-24.941 -43.09,-36" /><path
         id="path24"
         style="fill:#beb1ac;fill-opacity:1;fill-rule:evenodd;stroke:none"
         d="M 572.953,1074.36 C 462.402,1044.02 365.172,1017.95 315.852,1002.07 86.5234,929.504 177.805,651.703 424.414,746.953 c 183.688,70.863 341.008,132.942 456.379,178.301 49.039,63.492 173.767,110.546 244.627,139.456 -3.12,65.77 -21.54,109.43 -10.77,188.79 -53.01,-43.09 -323.146,-119.34 -541.697,-179.14 m 566.647,99.21 c 1.13,-18.14 3.4,-36.86 6.23,-56.12 l -6.23,56.12 z m -1.42,41.95 c -0.29,-13.61 0.28,-27.5 1.42,-41.66 l -1.42,41.66 z m 9.35,66.05 c -6.23,-20.98 -8.78,-43.09 -9.35,-66.05" /><path
         id="path26"
         style="fill:#000000;fill-opacity:1;fill-rule:evenodd;stroke:none"
         d="M 1210.18,318.355 C 1053.71,229.914 900.641,366.824 949.109,479.363 793.492,471.703 715.82,663.336 843.383,751.773 724.609,768.785 676.699,903.426 741.051,985.637 589.109,974.855 436.891,964.086 284.949,954.164 -12.3984,934.895 -24.0195,1282.41 255.75,1283.55 c 159.313,0.56 788.04,-44.5 858.34,11.63 27.21,39.12 66.61,69.73 126.42,90.14 76.25,25.79 172.91,0.57 248.03,-18.43 513.92,-131.25 359.72,-449.003 362.84,-508.535 36.28,-132.378 -24.66,-291.402 -113.96,-389.48 -138.89,-152.5 -331.37,-185.391 -527.24,-150.52" /><path
         id="path28"
         style="fill:#fad7c8;fill-opacity:1;fill-rule:evenodd;stroke:none"
         d="M 1288.7,628.18 C 1214.43,559.301 1085.74,510.832 1022.81,487.301 1006.94,481.352 991.352,477.383 976.609,475.109 927.57,381.281 1066.46,269.602 1188.35,336.492 1531.06,525.281 1329.8,643.77 1288.7,628.18 m -226.49,172.351 c -52.44,-14.738 -103.179,-32.89 -142.011,-43.371 -207.5,-56.129 -103.75,-309.258 84.471,-238.68 106.58,39.68 354.61,128.411 307.27,247.18 -14.17,35.43 -43.08,52.16 -79.65,57.539 -43.94,-41.668 -119.34,-53.847 -170.08,-22.668 M 864.641,1020.21 c -202.399,-25.788 -141.739,-280.339 45.07,-238.96 34.859,7.652 83.898,18.992 133.229,34.871 -52.44,55.84 -22.11,162.988 -3.69,230.449 -62.641,-6.52 -127.84,-20.41 -174.609,-26.36 M 522.5,1248.68 c -114.238,4.26 -214.867,8.51 -266.738,8.22 -240.6722,-0.85 -236.4104,-293.099 27.211,-276.087 196.437,12.757 365.097,24.937 488.968,33.727 65.77,45.92 198.711,53.58 274.959,60.1 16.73,63.78 12.19,110.83 45.93,183.11 -63.22,-25.22 -343.85,-17 -570.33,-9.07 m 801.63,-313.219 c 0.85,-41.668 52.44,-227.629 118.77,-291.121 -76.81,32.601 -140.03,245.762 -118.77,291.121 m -75.12,424.629 c -128.97,-43.66 -151.93,-142.02 -170.64,-266.18 -9.64,-64.91 -96.659,-262.769 30.33,-281.758 174.9,-26.359 193.04,248.028 179.43,357.158 42.52,-34.01 26.08,-140.59 28.07,-142.86 12.19,-13.61 14.74,-16.16 37.7,-48.188 114.23,-143.719 229.89,-193.61 321.73,-187.09 -123.31,-23.531 -276.66,89.578 -366.52,202.109 -9.64,-54.711 -27.21,-107.711 -56.41,-147.121 84.47,-20.117 124.72,-113.097 59.53,-193.039 108,-19.269 178.01,-155.898 -67.75,-313.789 400.25,-70.871 651.12,278.359 579.68,517.32 16.45,109.141 113.96,367.938 -342.14,484.158 -95.81,24.66 -171.21,39.97 -233.01,19.28" /><path
         id="path30"
         style="fill:#000000;fill-opacity:1;fill-rule:evenodd;stroke:none"
         d="m 1052.29,1024.46 c 15.31,-13.03 49.61,-2.55 71.72,26.65 -21.83,-42.52 -63.78,-56.696 -71.72,-26.65 m -23.81,-101.476 c -0.57,25.231 7.09,59.532 20.13,77.106 -7.38,-18.145 -12.76,-42.524 -13.61,-64.067 -2.27,-65.199 83.34,-30.328 92.41,36.282 3.12,22.679 3.12,44.785 -1.14,58.105 14.46,-10.77 9.93,-58.387 0,-85.035 -25.22,-70.012 -96.37,-92.691 -97.79,-22.391" /><path
         id="path32"
         style="fill:#000000;fill-opacity:1;fill-rule:evenodd;stroke:none"
         d="m 1131.09,1221.76 c 12.77,-2.28 24.39,-8.8 34.3,-16.72 -20.12,8.22 -52.44,11.62 -72.28,11.33 6.8,4.26 22.39,8.51 37.98,5.39 m -43.93,-34.03 c -0.28,-3.1 -0.57,-6.22 -1.14,-9.34 l 33.73,-3.98 c 30.91,-7.09 53.02,-18.41 79.95,-30.89 -22.4,27.78 -61.24,49.33 -112.54,44.21" /></g></g></svg>