<?xml version="1.0" encoding="UTF-8" standalone="no"?>
<svg
   xmlns:dc="http://purl.org/dc/elements/1.1/"
   xmlns:cc="http://creativecommons.org/ns#"
   xmlns:rdf="http://www.w3.org/1999/02/22-rdf-syntax-ns#"
   xmlns:svg="http://www.w3.org/2000/svg"
   xmlns="http://www.w3.org/2000/svg"
   viewBox="0 0 248.03751 248.03751"
   height="248.03751"
   width="248.03751"
   xml:space="preserve"
   version="1.1"
   id="svg2"><metadata
     id="metadata8"><rdf:RDF><cc:Work
         rdf:about=""><dc:format>image/svg+xml</dc:format><dc:type
           rdf:resource="http://purl.org/dc/dcmitype/StillImage" /></cc:Work></rdf:RDF></metadata><defs
     id="defs6" /><g
     transform="matrix(1.25,0,0,-1.25,0,248.0375)"
     id="g10"><g
       transform="scale(0.1,0.1)"
       id="g12"><path
         id="path14"
         style="fill:#000000;fill-opacity:1;fill-rule:evenodd;stroke:none"
         d="M 1328.98,1750.83 C 1588.64,1709.44 1639.09,778.828 1564.82,554.605 1387.66,19.707 887.637,179.016 735.977,389.348 c -71.43,98.929 -83.903,218.269 -215.711,309.257 -60.672,35.43 -131.25,98.653 -106.59,177.161 13.89,43.66 51.879,72.57 95.25,87.031 -87.59,72.573 -13.332,211.753 75.121,270.423 43.93,29.2 83.328,53.29 123.867,87.88 102.902,87.87 197.57,66.04 282.051,7.08 -51.309,259.94 -354.328,449.58 -88.442,590.74 56.403,29.77 125.857,3.97 174.337,-43.65 109.12,23.53 192.46,-34.01 253.12,-124.44 M 667.094,946.355 c 42.519,-28.347 75.691,-74.269 101.761,-115.937 23.809,-37.422 108.848,-96.383 151.372,-59.531 82.483,71.718 -56.692,365.963 -142.864,272.983 -33.726,-36.28 -66.328,-74.272 -110.269,-97.515" /><path
         id="path16"
         style="fill:#fad7c8;fill-opacity:1;fill-rule:evenodd;stroke:none"
         d="m 1178.75,1105.09 c -51.87,13.61 -102.9,-28.63 -117.35,-58.68 2.83,51.32 66.89,98.66 117.35,58.68 m 139.18,32.04 c -30.9,19.83 -71.72,0.57 -86.74,-17.02 11.34,34.59 61.51,54.71 86.74,17.02 m 96.95,28.35 c -22.96,20.68 -53.3,2.82 -64.63,-14.46 8.5,34.3 45.92,52.73 64.63,14.46 m -499.192,726.79 c -243.77,-129.54 70.019,-290.54 108.862,-589.32 27.21,-28.34 71.14,-96.95 89.29,-133.22 C 973.238,1324.5 860.699,1411.52 727.469,1298.14 681.547,1259.02 673.328,1256.18 600.77,1208 514.879,1151.02 466.688,1035.64 529.047,985.477 623.156,909.785 703.379,1008.71 755.25,1064.55 888.477,1208 1078.69,776.273 908.316,731.484 c -41.66,-11.05 -125.847,20.7 -164.968,82.782 -43.66,69.437 -91.282,123.589 -152.219,128.687 C 466.688,953.727 349.617,832.406 537.547,723.555 705.078,588.906 677.578,522.004 760.637,406.926 889.617,228.055 1363.29,41.8164 1535.92,563.965 c 74.55,225.07 12.18,1127.055 -214.02,1157.105 81.35,-151.09 138.05,-334.21 144.85,-499.75 -20.41,48.18 -85.61,701.86 -394.02,622.2 155.06,-181.7 245.77,-550.48 244.35,-642.89 -72.57,274.96 -200.98,770.44 -401.392,691.64" /><path
         id="path18"
         style="fill:#000000;fill-opacity:1;fill-rule:evenodd;stroke:none"
         d="m 1234.31,1509.32 -2.55,7.64 c -11.34,-1.69 -25.23,-7.37 -39.12,-20.96 0,0 16.16,8.21 41.67,13.32 m 11.91,-37.14 -3.69,11.91 c -47.62,-8.5 -74.27,-45.93 -77.67,-51.02 0,0 46.21,29.48 81.36,39.11" /><path
         id="path20"
         style="fill:#000000;fill-opacity:1;fill-rule:evenodd;stroke:none"
         d="m 422.465,811.141 c 0,-4.25 1.129,-9.071 3.687,-13.891 45.352,35.723 89.293,17.582 127.551,-16.437 l 18.43,-20.692 c -1.418,31.461 -53.289,63.488 -92.41,68.879 l -11.047,1.133 c -16.731,0.289 -32.891,-2.551 -48.192,-9.922 0.559,-3.121 1.129,-6.231 1.981,-9.07 m 97.508,-104.879 c 3.972,-2.27 7.941,-4.539 12.191,-6.52 l 8.219,10.199 28.633,21.829 22.109,8.222 c -19.562,0.571 -38.832,-5.101 -54.711,-17.012 l -3.109,-2.55" /><path
         id="path22"
         style="fill:#000000;fill-opacity:1;fill-rule:evenodd;stroke:none"
         d="m 491.348,1067.39 c -1.141,3.7 -1.418,7.65 -0.852,12.47 47.344,-16.72 78.801,10.5 100.633,49.34 l 9.348,22.39 c 7.66,-26.37 -26.079,-67.48 -56.688,-82.78 l -9.07,-3.97 c -13.61,-5.1 -27.781,-7.37 -42.52,-5.66 -0.281,2.82 -0.57,5.66 -0.851,8.21 m 51.019,113.95 c 2.84,2.84 5.391,5.96 8.223,8.79 l 9.637,-6.24 29.761,-9.92 20.7,-0.56 c -16.161,-5.96 -33.739,-6.52 -50.18,-1.42 l -3.11,1.14" /><path
         id="path24"
         style="fill:#000000;fill-opacity:1;fill-rule:evenodd;stroke:none"
         d="m 988.828,1902.48 c 3.969,0.28 8.5,-0.85 13.612,-2.83 -33.174,-45.36 -14.182,-87.59 20.41,-123.31 l 20.69,-17.01 c -30.62,0.29 -63.505,49.32 -70.302,87.03 l -1.133,10.77 c -1.136,16.15 1.133,32.03 7.653,47.05 2.828,-0.56 5.949,-1.13 9.07,-1.7 M 1094,1811.77 c 2.26,-3.68 4.53,-7.65 6.8,-11.34 l -9.64,-8.5 -20.41,-28.63 -7.09,-21.83 c -1.13,19 3.69,37.99 14.75,53.86 l 1.98,3.12" /><path
         id="path26"
         style="fill:#000000;fill-opacity:1;fill-rule:evenodd;stroke:none"
         d="m 1159.75,1875.84 c 3.69,-0.57 7.94,-1.98 13.04,-4.25 -24.09,-32.89 0,-70.3 37.42,-104.32 l 22.11,-17 c -28.63,4.52 -66.61,49.32 -78.52,81.34 l -2.83,9.07 c -3.69,13.32 -3.69,26.09 0,37.7 2.83,-0.84 5.67,-1.7 8.78,-2.54 m 111.69,-89.3 c 2.55,-3.4 5.39,-6.8 7.94,-10.2 l -7.66,-5.66 -14.45,-20.98 -3.41,-17.02 c -3.96,15.88 -2.26,30.91 5.39,42.52 l 1.7,2.27" /><path
         id="path28"
         style="fill:#000000;fill-opacity:1;fill-rule:evenodd;stroke:none"
         d="m 1421.68,1469.35 -2.27,6.8 c -10.2,-1.7 -22.11,-6.8 -34.58,-18.71 0,0 14.46,7.37 36.85,11.91 m 10.49,-32.88 -3.4,10.49 c -41.96,-7.37 -65.48,-40.26 -68.32,-44.79 0,0 40.54,25.79 71.72,34.3" /></g></g></svg>