<?xml version="1.0" encoding="UTF-8" standalone="no"?>
<svg
   xmlns:dc="http://purl.org/dc/elements/1.1/"
   xmlns:cc="http://creativecommons.org/ns#"
   xmlns:rdf="http://www.w3.org/1999/02/22-rdf-syntax-ns#"
   xmlns:svg="http://www.w3.org/2000/svg"
   xmlns="http://www.w3.org/2000/svg"
   viewBox="0 0 248.03751 248.03751"
   height="248.03751"
   width="248.03751"
   xml:space="preserve"
   version="1.1"
   id="svg2"><metadata
     id="metadata8"><rdf:RDF><cc:Work
         rdf:about=""><dc:format>image/svg+xml</dc:format><dc:type
           rdf:resource="http://purl.org/dc/dcmitype/StillImage" /></cc:Work></rdf:RDF></metadata><defs
     id="defs6" /><g
     transform="matrix(1.25,0,0,-1.25,0,248.0375)"
     id="g10"><g
       transform="scale(0.1,0.1)"
       id="g12"><path
         id="path14"
         style="fill:#000000;fill-opacity:1;fill-rule:evenodd;stroke:none"
         d="M 597,251.379 C 465.762,266.688 396.59,416.637 462.922,517.547 323.738,560.066 293.691,749.988 428.621,830.496 c -153.07,87.871 -103.18,350.644 143.438,331.084 39.679,-3.11 270.14,22.11 315.769,47.91 -210.039,54.99 -261.629,404.79 -186.226,562.39 80.5,167.81 227.898,104.32 266.168,38.56 44.51,-77.11 2.839,-185.39 49.04,-257.11 60.66,-94.39 163.84,-150.23 266.74,-187.93 245.48,-89.58 339.31,-299.34 333.36,-550.212 35.43,-114.239 38.55,-236.411 -16.45,-345.258 C 1511.46,282.277 1271.65,184.77 990.449,191.289 970.32,184.477 835.961,45.2969 699.898,96.0391 635.27,120.137 589.91,181.93 597,251.379" /><path
         id="path16"
         style="fill:#fad7c8;fill-opacity:1;fill-rule:evenodd;stroke:none"
         d="M 626.48,249.961 C 615.422,156.422 728.531,69.6797 858.07,139.98 c 96.66,52.442 261.92,165.262 195.31,266.743 -9.07,13.886 -20.13,24.09 -32.6,31.179 C 955.871,342.941 710.949,253.359 626.48,249.961 m -57.539,263.91 c -24.949,-4.82 -50.179,-5.672 -74.269,-2.558 C 417,414.652 511.109,240.039 672.973,287.66 c 116.5,34.301 378.137,116.789 338.447,252.281 -15.299,52.161 -59.24,72.571 -114.799,76.258 -101.48,-59.808 -252,-88.156 -327.68,-102.328 M 538.043,803 c -26.363,-0.277 -51.871,3.973 -75.121,11.902 -159.02,-71.429 -101.199,-309.82 100.629,-272.121 128.98,24.379 420.66,84.192 405.07,225.641 -5.949,54.711 -48.469,79.371 -106.859,88.148 C 757.441,812.352 605.793,803.57 538.043,803 M 371.652,982.723 c -0.57,-75.41 55.84,-150.813 166.11,-149.961 111.398,0.847 404.781,26.371 402.23,148.539 -2.551,124.439 -273.82,143.149 -370.492,150.799 -7.93,0.57 -15.59,0.85 -22.957,0.85 -117.352,0 -174.332,-75.12 -174.891,-150.227 M 1129.35,729.02 c -36.29,-70.868 -55.85,-218.559 -5.11,-303.879 -28.91,23.531 -90.42,176.601 5.11,303.879 M 978.832,1145.71 C 982.23,1012.48 994.98,810.09 1219.2,712.012 988.18,769.551 949.633,1011.06 978.832,1145.71 m -267.59,342.42 c 57.258,-248.31 170.641,-244.91 229.891,-262.2 -20.981,-62.08 -126.711,-70.58 -218.84,-80.79 288.567,-47.62 293.387,-198.14 180,-267.87 118.487,-35.438 128.687,-159.59 30.617,-236.411 93.54,-19.277 132.66,-104.316 102.33,-176.32 16.15,-9.348 30.89,-22.957 43.08,-41.668 49.89,-76.25 1.99,-152.219 -65.19,-212.308 12.75,7.367 22.96,13.039 26.07,13.039 427.75,14.168 654.52,253.418 547.94,587.621 9.07,309.537 -135.78,461.197 -313.79,526.387 -119.06,43.66 -220.54,104.89 -281.479,199.85 -72.289,112.25 37.699,290.26 -151.09,312.09 -1.988,0.28 -4.25,0.28 -6.519,0.28 -73.129,0 -174.903,-136.63 -123.02,-361.7" /><path
         id="path18"
         style="fill:#000000;fill-opacity:1;fill-rule:evenodd;stroke:none"
         d="m 1030.7,1533.2 c 1.7,-2.27 3.4,-4.25 5.1,-6.52 -6.52,-3.97 -13.32,-8.79 -19.27,-13.61 -24.948,-21.25 -51.307,-62.36 -51.307,-62.36 0,0 6.238,40.83 37.977,66.06 8.79,6.8 18.43,12.18 27.5,16.43" /><path
         id="path20"
         style="fill:#000000;fill-opacity:1;fill-rule:evenodd;stroke:none"
         d="m 1011.99,1508.83 c -2.27,3.12 -4.54,6.24 -7.09,9.35 l -1.7,-1.41 c -31.747,-25.23 -37.977,-66.05 -37.977,-66.05 0,0 23.238,36.28 46.767,58.11" /><path
         id="path22"
         style="fill:#000000;fill-opacity:1;fill-rule:evenodd;stroke:none"
         d="m 964.371,1511.95 c 0,0 17.57,22.68 49.609,40.25 0,0 -34.019,1.41 -49.609,-40.25" /><path
         id="path24"
         style="fill:#000000;fill-opacity:1;fill-rule:evenodd;stroke:none"
         d="m 991.582,1537.74 c -1.418,1.98 -2.551,3.97 -3.687,5.95 -8.5,-5.67 -17.571,-15.3 -23.524,-31.75 0,0 9.352,12.19 27.211,25.8" /><path
         id="path26"
         style="fill:#000000;fill-opacity:1;fill-rule:evenodd;stroke:none"
         d="m 991.016,1704.7 c 0.281,-4.82 0.281,-9.35 0.281,-13.89 -22.961,-3.4 -47.34,-15.31 -63.781,-34.87 13.609,28.35 39.41,45.36 63.5,48.76" /><path
         id="path28"
         style="fill:#000000;fill-opacity:1;fill-rule:evenodd;stroke:none"
         d="m 962.102,1682.02 c -0.278,3.97 -0.278,7.94 -0.571,11.91 -13.597,-8.23 -26.078,-21.25 -34.008,-37.98 9.348,11.34 21.54,20.12 34.579,26.07" /><path
         id="path30"
         style="fill:#000000;fill-opacity:1;fill-rule:evenodd;stroke:none"
         d="m 945.094,1672.1 c -6.52,-4.54 -12.469,-9.92 -17.571,-16.16 3.114,6.52 7.082,12.76 11.332,18.14 2.27,-0.85 4.258,-1.41 6.239,-1.98 m 37.703,30.9 c 0.848,-4.54 1.418,-9.07 1.988,-13.33 -5.39,-1.13 -10.488,-2.83 -15.308,-4.53 -0.293,3.12 -0.571,7.37 -1.141,12.47 4.82,2.27 9.641,4.25 14.461,5.39" /><path
         id="path32"
         style="fill:#000000;fill-opacity:1;fill-rule:evenodd;stroke:none"
         d="m 933.758,1847.29 c 6.797,-5.11 12.758,-10.5 18.137,-16.16 -28.059,-12.75 -51.02,-39.68 -50.168,-74.84 0.57,-28.63 6.23,-56.41 16.718,-73.7 -19.269,10.77 -28.91,49.89 -26.078,84.75 2.84,35.45 19.559,62.93 41.391,79.95" /><path
         id="path34"
         style="fill:#000000;fill-opacity:1;fill-rule:evenodd;stroke:none"
         d="m 927.238,1814.68 c -4.25,4.25 -8.793,7.95 -13.89,11.34 -11.34,-15.59 -19.282,-35.43 -20.981,-58.68 -2.832,-34.86 6.809,-73.98 26.078,-84.75 -10.488,17.3 -16.148,45.07 -16.718,73.71 -0.571,23.81 9.921,43.93 25.511,58.38" /><path
         id="path36"
         style="fill:#000000;fill-opacity:1;fill-rule:evenodd;stroke:none"
         d="m 930.07,1844.17 c 7.653,-0.28 15.313,-3.69 22.11,-12.76 -13.039,-5.95 -25.231,-15.02 -34.297,-26.64 -8.793,-5.67 -15.59,-14.74 -15.871,-15.88 -3.969,-35.43 -0.852,-60.94 5.668,-79.37 2.832,-10.2 6.23,-19.56 10.769,-26.92 -19.277,10.77 -28.918,49.88 -26.078,84.75 2.551,33.45 17.859,59.81 37.699,76.82" /><path
         id="path38"
         style="fill:#000000;fill-opacity:1;fill-rule:evenodd;stroke:none"
         d="m 523.582,1061.52 c 0,0 -9.07,-47.91 -5.668,-80.5 3.399,-32.598 20.129,-66.899 20.129,-66.899 0,0 -26.648,33.16 -32.32,73.418 -5.95,39.961 17.859,73.981 17.859,73.981" /><path
         id="path40"
         style="fill:#000000;fill-opacity:1;fill-rule:evenodd;stroke:none"
         d="m 480.496,1017.58 c 0,0 -2.551,-28.346 8.5,-63.209 0,0 -25.789,22.391 -8.5,63.209" /><path
         id="path42"
         style="fill:#000000;fill-opacity:1;fill-rule:evenodd;stroke:none"
         d="m 512.813,753.961 c 0,0 1.417,-49.039 12.187,-79.941 10.492,-30.887 34.582,-60.368 34.582,-60.368 0,0 -33.449,26.36 -47.902,64.059 -14.739,37.98 1.133,76.25 1.133,76.25" /><path
         id="path44"
         style="fill:#000000;fill-opacity:1;fill-rule:evenodd;stroke:none"
         d="m 480.496,701.52 c 0,0 3.68,-28.348 22.109,-59.809 0,0 -29.757,16.16 -22.109,59.809" /><path
         id="path46"
         style="fill:#000000;fill-opacity:1;fill-rule:evenodd;stroke:none"
         d="m 599.551,482.402 c 0,0 9.351,-47.91 24.66,-76.82 15.312,-28.91 43.652,-54.422 43.652,-54.422 0,0 -37.133,20.692 -57.543,55.844 -20.117,35.148 -10.769,75.398 -10.769,75.398" /><path
         id="path48"
         style="fill:#000000;fill-opacity:1;fill-rule:evenodd;stroke:none"
         d="m 576.023,425.711 c 0,0 7.942,-27.5 31.18,-55.563 0,0 -32.027,11.063 -31.18,55.563" /><path
         id="path50"
         style="fill:#000000;fill-opacity:1;fill-rule:evenodd;stroke:none"
         d="m 738.449,269.52 c 0,0 9.352,-47.911 24.66,-76.821 15.309,-28.91 43.649,-54.418 43.649,-54.418 0,0 -37.129,20.969 -57.539,55.84 -20.41,35.149 -10.77,75.399 -10.77,75.399" /><path
         id="path52"
         style="fill:#000000;fill-opacity:1;fill-rule:evenodd;stroke:none"
         d="m 714.922,212.828 c 0,0 7.941,-27.5 31.18,-55.562 0,0 -32.032,11.062 -31.18,55.562" /></g></g></svg>