<?xml version="1.0" encoding="UTF-8" standalone="no"?>
<svg
   xmlns:dc="http://purl.org/dc/elements/1.1/"
   xmlns:cc="http://creativecommons.org/ns#"
   xmlns:rdf="http://www.w3.org/1999/02/22-rdf-syntax-ns#"
   xmlns:svg="http://www.w3.org/2000/svg"
   xmlns="http://www.w3.org/2000/svg"
   viewBox="0 0 248.03751 248.03751"
   height="248.03751"
   width="248.03751"
   xml:space="preserve"
   version="1.1"
   id="svg2"><metadata
     id="metadata8"><rdf:RDF><cc:Work
         rdf:about=""><dc:format>image/svg+xml</dc:format><dc:type
           rdf:resource="http://purl.org/dc/dcmitype/StillImage" /></cc:Work></rdf:RDF></metadata><defs
     id="defs6" /><g
     transform="matrix(1.25,0,0,-1.25,0,248.0375)"
     id="g10"><g
       transform="scale(0.1,0.1)"
       id="g12"><path
         id="path14"
         style="fill:#000000;fill-opacity:1;fill-rule:nonzero;stroke:none"
         d="M 1386.05,375.914 C 1257.64,283.785 1085.57,231.637 936.477,201.863 c -12.192,-2.269 -23.821,6.524 -25.231,19.282 l -55,508.25 -153.629,520.155 c -3.972,12.75 3.68,26.09 16.438,28.34 l 521.295,97.81 c 7.09,1.41 11.61,-1.13 18.13,-3.4 101.48,-38.85 191.63,-105.73 250.03,-213.17 49.04,-90.43 75.11,-208.915 65.76,-362.833 28.62,-192.192 -56.98,-326.551 -188.22,-420.383 M 950.926,249.773 c 261.364,55.274 634.684,191.903 580.824,542.274 -0.29,1.699 -0.29,3.109 -0.29,4.808 16.16,258.235 -69.44,450.435 -287.71,534.055 l -493.516,-91.84 148.25,-502.875" /><path
         id="path16"
         style="fill:#fad7c8;fill-opacity:1;fill-rule:evenodd;stroke:none"
         d="m 933.07,223.695 c 293.67,58.391 676.91,204.938 620.5,571.75 20.41,327.115 -121.89,487.265 -301.89,556.165 l -6.23,2.54 -521.86,-97.79 154.488,-522.715" /><path
         id="path18"
         style="fill:#000000;fill-opacity:1;fill-rule:nonzero;stroke:none"
         d="m 675.117,332.828 c -11.062,28.91 -17.293,58.961 -17.859,87.02 -151.082,47.058 -214.301,265.332 -144.57,391.468 -124.723,81.352 -142.583,280.914 -48.473,392.034 -3.969,22.96 -3.969,47.62 -1.699,72.57 21.832,236.97 187.66,270.71 410.172,325.98 16.449,4.25 33.167,7.94 49.609,10.77 15.879,3.12 31.469,5.39 46.211,7.09 44.782,16.44 92.402,16.72 144.282,7.09 51.01,-9.36 105.44,-27.78 165.26,-49.33 390.9,-139.46 211.75,-378.42 138.05,-392.03 -21.26,-3.97 -34.03,4.54 -38.28,25.23 -5.09,24.09 -58.68,39.12 -125.57,46.77 -59.52,6.52 -197,6.52 -248.88,-12.75 13.04,-5.39 17.86,-21.55 9.64,-33.17 l -58.115,-81.92 c 85.045,2.55 295.375,39.68 341.015,54.14 4.53,1.7 9.07,1.7 13.89,0.28 72.27,-21.82 129.25,-23.81 157.89,-83.62 17.29,-36.56 33.16,-132.942 11.61,-166.391 -5.39,-8.789 -12.75,-17.289 -21.53,-25.512 54.42,-0.57 109.98,-141.449 18.14,-259.367 20.97,-18.711 38.55,-47.91 48.19,-80.223 9.63,-31.75 12.19,-66.898 3.68,-98.93 C 1518.14,359.477 1246.3,272.168 1074.8,217.18 1032.57,203.566 996.566,191.949 973.316,182.879 840.945,131.566 721.887,212.918 675.117,332.828 m 26.93,102.328 c -9.07,-111.398 104.027,-269.859 255.398,-211.179 24.379,9.64 60.945,21.261 104.035,35.152 161.86,51.867 419.25,134.641 422.65,215.719 0,1.699 0.28,3.398 0.85,5.101 10.77,38.828 -0.85,88.16 -24.1,120.469 -86.17,-115.941 -367.93,-162.141 -451.84,-158.738 -25.794,1.129 -29.204,37.976 -3.97,43.648 132.95,29.199 338.18,66.051 435.69,190.211 43.37,55.559 50.45,123.59 27.2,170.93 -3.39,7.371 -7.36,12.75 -10.76,16.16 -53.29,-25.801 -347.54,-161.582 -577.145,-64.07 -24.09,10.211 -12.75,46.769 12.761,41.668 l 0,0.293 c 89.86,-17.582 219.124,-9.93 332.224,15.019 101.76,22.68 191.62,59.809 217.69,102.899 9.93,16.718 -2.54,96.942 -14.73,123.022 -13.61,28.35 -39.68,35.43 -85.04,47.62 -12.48,3.4 -25.79,6.81 -39.98,11.06 0,0 -285.16,-65.2 -389.472,-52.44 -21.262,2.55 -26.641,22.39 -17.852,34.86 l 53.852,75.69 c -11.903,-0.85 -35.434,-4.82 -37.41,18.99 -1.422,17.29 28.91,41.39 42.226,50.74 21.262,15.31 38.84,21.26 65.206,26.08 88.72,16.16 352.91,28.63 397.13,-61.51 21.55,13.32 43.37,43.08 53.29,70.58 23.25,65.2 -1.41,159.59 -206.65,233.01 -90.14,32.03 -198.98,73.13 -281.753,41.67 l -51.313,-8.22 -64.629,-14.74 c -199.281,-49.61 -341.007,-84.76 -359.429,-282.9 -1.988,-23.81 -1.988,-48.19 3.109,-69.73 4.82,-19.28 -17,-26.37 -36.558,-65.2 -49.332,-98.65 -23.25,-246.622 80.781,-298.774 12.187,-5.957 15.879,-21.828 7.656,-32.598 l 0.281,-0.281 c -74.828,-99.777 -18.14,-317.48 123.02,-346.969 11.062,-2.261 18.43,-12.468 17.301,-23.242" /><path
         id="path20"
         style="fill:#fad7c8;fill-opacity:1;fill-rule:evenodd;stroke:none"
         d="M 679.934,436.859 C 670.016,312.988 795.586,137.801 965.387,203.57 c 117.343,45.352 535.753,149.379 540.563,270.418 16.73,58.961 -10.77,132.383 -49.04,162.434 -57.82,-128.981 -375.3,-175.473 -447.02,-172.633 125.86,28.633 342.99,64.063 448.16,198.141 86.16,110.269 26.93,229.32 -2.55,224.5 -13.32,-6.508 -328.55,-168.942 -566.934,-67.739 178.864,-34.871 508.544,26.93 572.314,127.27 14.17,22.398 4.82,107.439 -13.04,145.139 -22.68,47.05 -63.5,47.33 -144.29,72 -60.09,-16.73 -311.804,-57.26 -378.984,-45.07 l -1.703,0.56 72.282,105.73 -61.231,-5.1 c 19,21.83 42.813,43.66 78.816,51.03 128.11,26.64 373.32,17.85 386.93,-56.13 9.63,-52.72 287.43,193.89 -128.98,342.71 -118.5,42.23 -214.02,73.13 -297.075,41.38 -30.609,-3.4 -62.652,-9.35 -95.808,-17.57 -217.141,-54.43 -373.043,-87.02 -393.453,-306.71 -2.84,-30.9 -1.418,-56.13 3.679,-76.82 C 389.664,1093.08 409.797,885.871 543.586,818.691 460.246,707 521.477,470.309 679.934,436.859" /><path
         id="path22"
         style="fill:#000000;fill-opacity:1;fill-rule:evenodd;stroke:none"
         d="m 1084.72,1608.98 c -7.65,0.86 -15.02,1.71 -22.68,1.98 2.55,-20.11 3.69,-41.09 2.84,-59.23 -3.4,-59.81 -30.62,-124.16 -30.62,-124.16 13.89,19.28 64.35,101.2 50.46,181.41" /><path
         id="path24"
         style="fill:#000000;fill-opacity:1;fill-rule:evenodd;stroke:none"
         d="m 1138.58,1598.78 c -2.55,0.57 -5.1,1.42 -7.37,1.98 0.57,-21.26 -0.57,-55.84 -10.77,-94.96 0,0 35.15,34.02 18.14,92.98" /><path
         id="path26"
         style="fill:#000000;fill-opacity:1;fill-rule:evenodd;stroke:none"
         d="m 781.133,430.906 c -5.391,-76.82 49.609,-162.711 107.43,-184.539 -72.852,-11.051 -138.891,96.379 -107.43,184.539" /><path
         id="path28"
         style="fill:#000000;fill-opacity:1;fill-rule:evenodd;stroke:none"
         d="m 618.707,776.734 c -25.801,-77.39 10.77,-191.91 67.18,-241.23 -80.789,22.398 -123.59,164.129 -67.18,241.23" /><path
         id="path30"
         style="fill:#000000;fill-opacity:1;fill-rule:evenodd;stroke:none"
         d="m 559.18,1143.82 c -33.45,-66.9 -18.711,-183.968 22.39,-244.351 -65.761,40.543 -82.203,185.111 -22.39,244.351" /><path
         id="path32"
         style="fill:#000000;fill-opacity:1;fill-rule:evenodd;stroke:none"
         d="m 1047.02,1105.84 c 0,0 49.32,-74.83 66.33,-132.383 16.73,-57.539 12.19,-127.269 12.19,-127.269 0,0 22.11,74.828 3.97,146.828 -18.14,72.004 -82.49,112.824 -82.49,112.824" /><path
         id="path34"
         style="fill:#000000;fill-opacity:1;fill-rule:evenodd;stroke:none"
         d="m 1150.77,1061.61 c 0,0 24.38,-46.2 30.05,-113.094 0.28,0 27.78,55.844 -30.05,113.094" /><path
         id="path36"
         style="fill:#000000;fill-opacity:1;fill-rule:evenodd;stroke:none"
         d="m 1203.78,775.883 c 0,0 34.87,-52.719 46.77,-93.539 11.91,-40.539 8.79,-89.582 8.79,-89.582 0,0 15.59,52.73 2.55,103.472 -12.76,50.739 -58.11,79.649 -58.11,79.649" /><path
         id="path38"
         style="fill:#000000;fill-opacity:1;fill-rule:evenodd;stroke:none"
         d="m 1276.91,744.703 c 0,0 17.29,-32.601 21.26,-79.941 0,0 19.56,39.398 -21.26,79.941" /><path
         id="path40"
         style="fill:#000000;fill-opacity:1;fill-rule:evenodd;stroke:none"
         d="m 1291.37,483.633 c 0,0 24.09,-36.281 32.03,-64.352 8.22,-27.781 6.24,-61.789 6.24,-61.789 0,0 10.77,36.278 1.7,71.43 -8.79,34.867 -39.97,54.711 -39.97,54.711" /><path
         id="path42"
         style="fill:#000000;fill-opacity:1;fill-rule:evenodd;stroke:none"
         d="m 1341.82,462.371 c 0,0 11.91,-22.68 14.75,-54.988 0,0 13.32,26.93 -14.75,54.988" /><path
         id="path44"
         style="fill:#000000;fill-opacity:1;fill-rule:nonzero;stroke:none"
         d="m 1016.69,1223.76 -58.108,-24.09 c -7.09,-4.54 -22.109,-34.87 -16.723,-51.31 0.282,-0.85 10.204,-7.09 21.543,-15.59 38.268,-28.63 34.297,-32.03 59.808,-52.73 8.79,-7.37 18.42,-14.17 29.2,-20.12 116.22,-65.772 384.66,8.78 302.74,143.43 -7.94,13.32 -19.28,34.3 -28.63,37.98 -37.99,15.31 -102.05,-13.32 -146.84,-26.36 -60.38,-17.57 -125.01,-63.49 -162.99,8.79 m -0.85,53.29 0,0 c 76.25,39.97 137.48,31.75 219.68,20.13 30.62,-4.54 91.56,-8.51 107.44,-15.03 13.32,-5.38 23.24,-15.3 31.75,-27.21 53,-73.42 59.52,-146.55 -18.15,-205.23 -85.04,-64.343 -236.97,-78.522 -325.98,-28.06 -24.95,14.17 -45.639,31.18 -64.35,51.87 -49.32,54.15 -142.859,70.3 -148.531,177.74 13.891,-26.65 35.711,-54.15 62.364,-79.09 -16.161,30.61 -20.692,61.51 -7.09,82.2 0,-23.24 9.636,-51.87 25.797,-79.93 4.531,23.52 18.421,48.75 34.582,61.51" /><path
         id="path46"
         style="fill:#fad7c8;fill-opacity:1;fill-rule:evenodd;stroke:none"
         d="m 1036.82,1262.02 c 2.83,-79.09 164.41,22.68 216.28,13.62 -32.03,5.09 -115.93,13.59 -162.99,5.09 -17.01,-2.84 -45.07,-15.3 -53.29,-18.71 m -10.49,-4.25 c -30.611,-16.16 -44.795,-25.22 -79.373,-39.11 -17.012,-13.61 -34.301,-51.32 -26.078,-77.11 3.687,-10.48 45.359,-35.14 61.797,-53.28 15.871,-17.59 34.864,-34.02 58.964,-47.34 137.2,-77.965 428.6,17.28 332.5,174.03 -11.34,18.15 -22.67,40.27 -39.4,46.79 -46.77,18.98 -112.82,-11.64 -161.29,-25.52 -67.46,-19.84 -119.06,-62.93 -147.12,21.54" /><path
         id="path48"
         style="fill:#000000;fill-opacity:1;fill-rule:evenodd;stroke:none"
         d="m 459.684,1163.1 c -4.25,5.38 -8.219,10.77 -12.192,16.44 30.903,43.37 159.59,106.87 201.832,105.73 -37.422,-15.59 -159.883,-81.36 -189.64,-122.17" /></g></g></svg>