<?xml version="1.0" encoding="UTF-8" standalone="no"?>
<svg
   xmlns:dc="http://purl.org/dc/elements/1.1/"
   xmlns:cc="http://creativecommons.org/ns#"
   xmlns:rdf="http://www.w3.org/1999/02/22-rdf-syntax-ns#"
   xmlns:svg="http://www.w3.org/2000/svg"
   xmlns="http://www.w3.org/2000/svg"
   viewBox="0 0 248.03751 248.03751"
   height="248.03751"
   width="248.03751"
   xml:space="preserve"
   version="1.1"
   id="svg2"><metadata
     id="metadata8"><rdf:RDF><cc:Work
         rdf:about=""><dc:format>image/svg+xml</dc:format><dc:type
           rdf:resource="http://purl.org/dc/dcmitype/StillImage" /></cc:Work></rdf:RDF></metadata><defs
     id="defs6" /><g
     transform="matrix(1.25,0,0,-1.25,0,248.0375)"
     id="g10"><g
       transform="scale(0.1,0.1)"
       id="g12"><path
         id="path14"
         style="fill:#000000;fill-opacity:1;fill-rule:evenodd;stroke:none"
         d="m 1101.84,1056.78 90.71,-18.71 53,1.99 c 33.74,86.17 70.59,174.89 103.75,253.98 32.88,79.09 61.79,148.82 78.52,193.32 58.95,159.03 -119.34,254.27 -174.62,71.72 l -143.43,-479.62 -7.93,-22.68 z m -227.067,19.28 c 49.891,-0.29 98.372,-3.12 141.457,-6.24 l 0.29,1.98 -0.29,0 c 23.25,191.63 50.18,394.3 63.22,621.36 10.48,184.25 -229.044,188.22 -222.813,17.86 l 18.136,-634.96 z m -248.308,-30.9 c 45.351,14.74 95.808,22.96 147.398,27.21 l -0.277,1.7 -65.199,583.09 c -20.41,182.27 -245.203,117.35 -210.614,-47.91 33.731,-162.71 87.301,-388.63 128.692,-564.09 m -99.5,-48.762 c 4.262,3.122 8.789,6.242 13.039,9.072 l -22.391,35.15 -168.09,323.44 c -90.148,167.81 -245.199,30.61 -156.476,-112.54 l 193.039,-305.29 95.527,27.211 c 11.34,12.469 27.782,17.86 45.352,22.957 m 764.785,21.262 c -27.77,-143.148 -47.05,-269.289 -35.14,-303.308 105.73,1.418 178.87,197.296 320.32,232.449 270.41,67.179 380.12,-237.551 29.48,-344.699 C 1512.57,573.191 1397.48,500.621 1360.64,404.238 1332.3,329.691 1279.57,251.172 1221.45,196.469 1122.52,103.211 1002.05,69.4688 877.613,134.391 731.637,109.16 583.945,129.57 485.586,250.891 360.855,404.531 362.555,641.219 376.734,828.309 c -7.66,26.363 -15.589,52.16 -23.531,78.23 L 151.375,1226.01 c -124.1484,200.97 119.91,386.93 241.23,161.01 34.301,-64.35 65.2,-123.03 92.692,-176.32 28.066,-53.57 53.297,-103.18 75.687,-147.4 l 17.012,-26.36 c -40.82,173.76 -93.832,397.41 -128.133,562.39 -48.468,231.88 278.934,312.38 307.282,63.21 l 64.91,-583.08 0.57,-4.25 3.121,0 -17.859,634.11 c -8.512,237.26 334.493,232.72 320.313,-18.71 -11.34,-199.28 -37.13,-413.01 -56.41,-567.22 l 134.64,449.58 c 74.55,245.76 349.8,120.19 267.02,-102.62 -45.06,-121.03 -130.68,-315.77 -183.97,-452.12" /><path
         id="path16"
         style="fill:#fad7c8;fill-opacity:1;fill-rule:evenodd;stroke:none"
         d="m 858.34,567.805 c -50.172,47.34 -168.09,99.777 -251.43,78.238 26.641,18.422 168.938,32.031 251.43,-78.238 m 297.35,131.238 c -113.66,-32.59 -284.592,-89 -316.342,-315.488 -4.821,223.937 193.892,312.379 316.342,315.488 m -139.74,256.262 c -47.911,13.316 -276.673,18.988 -371.911,-34.59 63.781,76.258 327.691,74.547 371.911,34.59 m -449.86,55.265 -26.36,40.54 c -44.792,88.44 -102.05,199.56 -168.671,324.28 -105.442,197.01 -305.2895,35.72 -198.989,-136.63 54.989,-89.01 134.078,-210.05 202.957,-321.158 l 1.993,0.562 c 9.347,-30.051 18.418,-59.242 26.359,-87.019 -7.649,-99.5 -83.621,-773.2934 478.769,-669.262 226.212,-125.8596 403.942,120.469 454.112,251.719 23.81,63.211 106.58,166.113 262.49,213.73 319.46,97.512 220.25,352.34 -15.59,293.949 -136.06,-33.726 -208.91,-241.789 -335.34,-233.008 -37.98,2.551 -17.29,156.192 17.58,334.767 l 0,0.29 c 66.04,170.08 149.95,361.13 185.1,455.53 70.86,190.77 -155.62,301.6 -220.82,87.3 -63.21,-208.34 -112.82,-378.99 -143.43,-479.62 l -10.78,-30.61 c 45.07,-7.94 75.41,-20.7 81.07,-37.7 -33.16,8.22 -187.931,24.37 -341.29,14.45 -136.633,-9.07 -266.172,-51.586 -323.43,-86.168 11.91,13.043 27.207,26.359 45.348,38.269 43.09,28.059 32.32,13.602 28.922,25.789 m 234.418,47.62 -2.547,18.43 c -17.57,157.32 -42.231,378.42 -65.191,583.09 -7.09,61.79 -34.59,99.78 -69.172,118.2 -87.02,45.92 -219.399,-31.75 -189.918,-173.76 34.008,-162.71 90.711,-402.24 129.539,-567.5 l 7.371,-17.57 c 55.84,18.7 122.461,31.74 189.918,39.11 m 239.812,2.84 0.29,7.94 c 18.99,157.32 50.45,397.98 63.21,623.05 4.25,75.12 -27.5,124.72 -70.87,149.39 -82.2,46.48 -205.512,2.26 -200.692,-131.25 6.242,-175.46 13.043,-471.68 18.43,-647.43 68.882,5.1 136.062,4.25 189.632,-1.7" /><path
         id="path18"
         style="fill:#000000;fill-opacity:1;fill-rule:evenodd;stroke:none"
         d="m 1805.39,744.688 c -0.28,-3.969 -1.7,-8.219 -3.96,-12.758 -28.92,37.699 -62.37,24.949 -93.55,-3.684 l -15.59,-17.578 c 3.97,26.359 45.07,54.43 71.72,55.559 l 3.4,0.281 7.09,0 c 11.9,-1.129 23.24,-5.379 33.45,-13.32 -0.86,-3.122 -1.42,-5.95 -2.56,-8.5 m -81.63,-88.731 c -3.12,-1.699 -6.24,-3.398 -9.36,-5.098 -5.38,13.61 -13.32,24.95 -22.96,33.45 l -15.31,9.64 c 15.88,-1.422 25.52,-8.511 37.71,-20.98" /></g></g></svg>