<?xml version="1.0" encoding="UTF-8" standalone="no"?>
<svg
   xmlns:dc="http://purl.org/dc/elements/1.1/"
   xmlns:cc="http://creativecommons.org/ns#"
   xmlns:rdf="http://www.w3.org/1999/02/22-rdf-syntax-ns#"
   xmlns:svg="http://www.w3.org/2000/svg"
   xmlns="http://www.w3.org/2000/svg"
   viewBox="0 0 248.03751 248.03751"
   height="248.03751"
   width="248.03751"
   xml:space="preserve"
   version="1.1"
   id="svg2"><metadata
     id="metadata8"><rdf:RDF><cc:Work
         rdf:about=""><dc:format>image/svg+xml</dc:format><dc:type
           rdf:resource="http://purl.org/dc/dcmitype/StillImage" /></cc:Work></rdf:RDF></metadata><defs
     id="defs6" /><g
     transform="matrix(1.25,0,0,-1.25,0,248.0375)"
     id="g10"><g
       transform="scale(0.1,0.1)"
       id="g12"><path
         id="path14"
         style="fill:#e80000;fill-opacity:1;fill-rule:nonzero;stroke:none"
         d="m 184.621,939 c 45.07,123.02 70.301,226.2 108,351.5 42.242,139.74 102.332,269.85 193.039,386.07 91.563,117.36 194.742,190.78 313.512,164.13 58.391,-13.04 142.019,-80.79 202.958,-69.73 97.51,17.57 188.51,92.12 280.63,67.46 114.8,-30.61 237.26,-185.1 297.07,-319.46 64.35,-144 139.47,-202.96 178.87,-452.69 4.82,-31.47 9.35,-81.358 18.99,-113.389 0.57,-2.551 2.84,2.828 3.69,0.281 3.11,-10.774 11.33,-15.024 13.6,-24.371 -8.22,-133.231 -22.11,-268.16 -77.67,-391.473 C 1645.6,378.871 1481.75,235.719 1317.63,180.73 1067.05,97.1094 718.383,112.129 498.133,258.68 c -180,119.629 -254.27,313.519 -301.32,568.629 -5.102,27.781 -29.762,83.91 -34.872,83.062 l 16.442,7.649" /><path
         id="path16"
         style="fill:#940000;fill-opacity:1;fill-rule:nonzero;stroke:none"
         d="m 521.379,273.711 c 163.559,-109.703 369.641,-147.402 563.241,-135.5 402.81,24.379 664.16,331.937 701.3,718.297 4.25,45.922 -28.92,60.953 -58.97,43.941 C 1709.1,890.25 1691.52,858.777 1686.14,842.91 1636.81,691.82 1575.58,548.949 1451.43,444.641 1318.48,332.949 1132.81,311.129 965.848,324.168 809.098,336.359 634.77,388.508 523.078,502.469 441.727,585.52 331.457,731.789 297.727,844.891 277.879,911.508 184.34,843.188 199.648,791.598 302.547,447.188 370.008,374.91 521.379,273.711" /><path
         id="path18"
         style="fill:#ff4444;fill-opacity:1;fill-rule:nonzero;stroke:none"
         d="m 543.488,556.324 c 140.032,-47.062 277.801,-29.761 420.66,-51.019 51.032,-7.66 142.872,2.828 191.912,22.386 27.21,10.774 53.57,19.563 82.2,25.512 23.25,4.539 72.29,15.59 59.25,33.168 13.89,-18.707 34.86,-20.406 55.27,-9.637 64.35,34.579 133.23,37.129 196.73,70.868 53,27.781 54.42,132.941 -17.01,95.242 -61.23,-32.321 -133.8,-37.129 -196.73,-70.871 18.43,-3.11 36.85,-6.231 55.28,-9.352 -47.34,62.934 -169.23,-6.519 -229.04,-30.617 -89.58,-35.711 -183.971,-1.981 -274.393,-5.66 -98.929,-4.262 -191.058,3.679 -285.449,35.429 -52.16,17.571 -117.918,-85.609 -58.68,-105.449" /><path
         id="path20"
         style="fill:#ff4444;fill-opacity:1;fill-rule:nonzero;stroke:none"
         d="m 967.27,468.449 c 105.45,-3.969 202.11,33.731 307.28,33.731 60.09,0 111.4,-9.071 155.05,39.398 24.38,27.223 28.06,75.973 -15.59,82.211 -37.42,5.102 -72.28,-2.269 -108,-14.172 -39.4,-13.039 -84.76,-78.238 -34.02,-105.449 22.11,-11.91 39.69,-6.52 64.07,-5.109 2.83,34.019 5.95,68.32 9.07,102.332 -64.92,-37.703 -202.96,-31.461 -278.36,-36 -107.442,-6.801 -271.282,11.91 -366.243,62.648 -47.621,25.512 -114.8,-75.68 -58.679,-105.449 109.14,-58.391 268.441,-60.09 390.052,-66.61 72.57,-3.691 151.94,15.59 224.22,24.661 38.27,4.816 72.28,5.949 106.02,25.507 27.78,16.161 74.55,106.582 8.78,102.332 -13.6,-2.273 -26.93,-1.703 -40.25,1.137 -11.34,-35.148 -22.68,-70.297 -34.01,-105.738 28.91,9.922 51.02,15.031 82.48,10.488 -5.1,27.5 -10.48,54.992 -15.59,82.492 14.74,16.161 -105.45,15.59 -122.17,12.758 -80.79,-13.328 -156.76,-35.148 -239.24,-32.039 C 948.277,579.57 898.098,471 967.27,468.449" /><path
         id="path22"
         style="fill:#bb0000;fill-opacity:1;fill-rule:nonzero;stroke:none"
         d="m 304.527,992.293 c 138.332,199.557 138.61,110.267 367.371,389.757 84.758,74.84 182.27,106.59 293.668,100.07 46.494,-2.84 93.834,-16.44 139.464,-24.95 18.43,-3.4 88.16,-1.98 103.47,-16.16 42.23,-39.11 121.89,54.71 79.08,94.11 -36.56,33.74 -116.78,26.08 -161.85,34.59 -83.63,15.87 -173.48,38.55 -258.242,16.44 -78.519,-20.69 -144,-58.4 -210.332,-103.75 -85.609,-58.96 -178.019,-191.05 -293.386,-173.2 -2.832,0.57 -65.762,-51.02 -155.903,-316.907 -25.801,-76.25 77.672,-56.691 96.66,0" /><path
         id="path24"
         style="fill:#c70029;fill-opacity:1;fill-rule:nonzero;stroke:none"
         d="m 1135.64,1817.18 c 49.62,19.55 98.37,34.57 147.13,21.25 114.8,-30.61 237.26,-185.09 297.07,-319.46 64.35,-144 139.46,-202.97 178.87,-452.7 4.81,-31.46 9.34,-81.344 18.99,-113.375 0.56,-2.551 2.83,2.828 3.68,0.281 0,-0.571 0.28,-1.422 0.57,-2.274 -25.24,-0.558 -58.4,-6.226 -65.2,-5.949 -10.77,0.852 -107.71,-33.449 -147.68,-28.629 -39.97,4.821 -32.03,49.61 -35.16,78.239 -3.11,28.907 -6.52,172.637 -12.75,183.957 -6.52,11.07 -100.91,141.45 -116.22,153.93 -15.03,12.48 -172.91,99.21 -182.55,100.64 -9.93,1.4 -215.43,55.54 -217.13,63.2 -1.42,7.94 -8.225,95.82 -8.225,95.82 l 38.555,94.38 50.73,105.17 c 0,0 21.27,10.77 49.32,25.52" /><path
         id="path26"
         style="fill:#940000;fill-opacity:1;fill-rule:nonzero;stroke:none"
         d="m 191.992,849.711 c 2.27,-57.543 22.68,-113.672 37.129,-168.941 49.891,-189.93 157.039,-359.719 327.121,-460.922 15.031,-9.071 33.449,1.703 40.821,16.441 0.847,1.988 1.988,3.969 3.121,5.961 17.859,36.277 -27.211,44.777 -42.524,14.449 -0.847,-2.269 -1.976,-4.25 -2.84,-6.23 13.614,5.379 27.223,11.051 40.821,16.441 C 381.91,394.469 253.223,626.34 242.73,876.641 c -1.128,24.379 -52.718,36.847 -66.609,18.707 -5.109,-6.809 15.59,-38.547 15.871,-45.637" /><path
         id="path28"
         style="fill:#940000;fill-opacity:1;fill-rule:nonzero;stroke:none"
         d="m 317,549.805 2.828,0 c -7.078,3.968 -14.449,8.218 -21.816,12.187 52.16,-72.847 86.738,-153.64 145.976,-222.519 23.532,-27.211 89.582,-96.66 130.961,-90.989 39.121,5.379 75.692,88.719 26.371,81.918 -11.058,-1.418 -37.992,24.942 -46.781,31.461 -31.461,24.102 -56.969,54.43 -81.918,85.328 -29.762,37.133 -50.172,81.352 -72.562,123.024 -11.629,21.539 -28.071,61.508 -56.981,61.508 -40.25,0 -77.668,-81.918 -26.078,-81.918" /><path
         id="path30"
         style="fill:#81001f;fill-opacity:1;fill-rule:nonzero;stroke:none"
         d="m 733.125,180.734 c 56.691,-50.171 155.34,-37.132 225.922,-39.972 140.883,-5.668 243.773,-4.821 376.433,46.492 228.2,87.867 373.62,259.648 432.3,495.5 19.27,78.23 -82.21,58.961 -96.96,0.277 -50.73,-204.66 -166.95,-323.429 -362.27,-398.547 -89.57,-34.582 -174.03,-46.211 -270.14,-38.269 -55.555,4.539 -182.265,-10.203 -226.195,28.906 -43.367,38.274 -122.738,-55.558 -79.09,-94.387" /><path
         id="path32"
         style="fill:#940000;fill-opacity:1;fill-rule:nonzero;stroke:none"
         d="m 579.488,209.93 c 23.813,0 43.653,-9.071 65.481,-17.86 32.879,-13.32 69.73,-14.172 103.75,-24.379 26.359,-7.929 58.961,43.938 29.199,52.731 -34.02,10.199 -70.301,12.187 -103.469,24.379 -26.359,9.918 -49.039,19.558 -77.672,19.558 -26.636,0 -51.589,-54.429 -17.289,-54.429" /><path
         id="path34"
         style="fill:#81001f;fill-opacity:1;fill-rule:nonzero;stroke:none"
         d="m 1742.83,894.215 c -0.57,-41.672 -4.25,-81.922 -12.19,-123.024 -3.97,-19.558 -8.5,-38.839 -12.47,-58.398 -1.7,-8.781 0,-31.461 -6.24,-37.699 -27.21,-26.93 6.52,-53.86 33.17,-27.492 20.69,20.691 19.56,51.871 24.38,79.082 10.77,61.23 23.81,118.488 24.66,181.14 0,9.071 2.55,17.848 -1.99,20.688 -13.89,8.793 -49.04,-13.039 -49.32,-34.297" /><path
         id="path36"
         style="fill:#bb0028;fill-opacity:1;fill-rule:nonzero;stroke:none"
         d="m 1455.68,683.883 c 60.66,-53.57 37.42,-184.539 16.16,-248.879 -12.76,-38.274 38.83,-28.352 48.19,0 27.21,81.348 49.6,230.168 -24.95,295.937 -21.54,19.27 -61.23,-27.781 -39.4,-47.058" /><path
         id="path38"
         style="fill:#bb0000;fill-opacity:1;fill-rule:nonzero;stroke:none"
         d="m 1353.63,655.535 c 32.88,-84.187 53.29,-209.48 -13.61,-284.597 -25.22,-28.633 7.94,-56.122 33.17,-27.782 84.19,94.961 69.73,241.508 27.21,350.649 -10.77,28.062 -56.69,-12.469 -46.77,-38.27" /><path
         id="path40"
         style="fill:#bb0028;fill-opacity:1;fill-rule:nonzero;stroke:none"
         d="m 1306.29,659.504 c 0,-34.301 28.06,-75.121 37.42,-108.281 15.59,-54.707 17.86,-119.059 -8.22,-170.649 -18.15,-36 26.93,-44.5 42.23,-14.172 21.26,41.953 30.62,85.043 27.78,132.09 -1.98,34.582 -7.37,66.903 -17.01,100.071 -5.66,20.691 -30.89,56.402 -30.89,74.832 0,37.98 -51.31,13.89 -51.31,-13.891" /><path
         id="path42"
         style="fill:#ff7b7b;fill-opacity:1;fill-rule:nonzero;stroke:none"
         d="m 572.402,700.039 -4.25,0 c -21.261,0 -53.011,-48.187 -23.25,-53.859 120.758,-22.68 238.68,-60.942 359.719,-84.75 53.012,-10.489 104.599,-12.758 158.459,-6.239 23.81,2.829 148.53,51.02 164.69,28.059 4.25,12.762 8.5,25.512 12.76,38.551 -73.42,-58.672 -182.84,-45.629 -270.71,-44.781 -113.386,0.851 -198.429,31.179 -296.218,86.449 -25.52,14.179 -63.782,-33.449 -39.692,-47.34 165.262,-92.969 461.2,-166.668 627.88,-33.438 9.35,7.368 21.26,26.36 12.75,38.547 -41.1,58.672 -178.3,-9.636 -231.31,-15.879 -153.07,-18.14 -321.16,65.77 -469.128,93.551 -7.649,-17.859 -15.59,-35.719 -23.239,-53.582 l 3.969,0 c 26.922,0 51.871,54.711 17.57,54.711" /><path
         id="path44"
         style="fill:#a4002c;fill-opacity:1;fill-rule:nonzero;stroke:none"
         d="m 1061.09,1515 c -17.29,-29.76 -14.73,-20.69 2.27,-51.31 15.3,-27.21 93.82,-39.97 120.48,-48.75 71.43,-22.96 180.57,-43.09 236.41,-94.96 22.95,-21.26 47.91,-44.22 68.88,-78.81 19.83,-32.88 49.03,-45.63 64.35,-82.2 10.48,-26.08 22.11,-47.06 33.16,-75.12 31.47,-80.22 80.22,-75.68 144.84,-111.971 28.63,-15.867 47.34,14.461 38,45.361 -17.59,58.96 -180.85,219.11 -223.37,249.45 -77.11,55.55 -120.47,145.13 -234.15,194.45 -23.8,10.21 -226.21,96.66 -250.87,53.86" /><path
         id="path46"
         style="fill:#920000;fill-opacity:1;fill-rule:nonzero;stroke:none"
         d="m 482.828,1158.4 c 154.488,177.45 338.168,329.95 588.472,275.81 26.93,-5.95 59.25,46.21 29.48,52.73 -151.085,32.59 -291.401,7.08 -415.561,-83.63 C 608.398,1347.19 540.086,1287.09 476.586,1216.23 421.887,1155.28 357.535,1011 277.316,957.141 c -19.839,-13.321 -41.097,-14.457 -60.949,-10.77 -22.109,-3.969 -41.101,-35.148 -8.219,-35.148 l 7.368,-2.551 c 5.961,0 38.269,-5.102 68.601,21.539 73.988,65.199 174.621,200.689 198.711,228.189" /><path
         id="path48"
         style="fill:#790000;fill-opacity:1;fill-rule:nonzero;stroke:none"
         d="m 204.465,901.582 c 26.082,-3.687 47.34,-12.758 70.582,5.672 30.328,14.168 51.027,33.73 71.148,56.41 39.121,43.936 67.18,93.536 94.11,145.416 18.711,36 -26.641,44.5 -42.231,14.17 -18.148,-34.58 -40.82,-67.47 -65.199,-97.8 -15.309,-18.7 -29.199,-37.977 -46.77,-54.696 -20.41,-19 -38.269,-18.152 -64.07,-14.742 -15.59,2.261 -40.531,-17.578 -43.648,-33.449 -2.274,-11.34 11.617,-19 26.078,-20.981" /><path
         id="path50"
         style="fill:#74001c;fill-opacity:1;fill-rule:nonzero;stroke:none"
         d="m 1779.39,953.176 c 0.85,7.937 0,45.637 -8.21,56.124 -1.71,2.26 -5.11,-8.22 -8.23,-7.66 -126.71,18.72 -84.75,-10.765 -139.75,76.54 -74.27,117.64 -201.82,284.31 -241.23,312.38 -87.29,62.37 -233.01,109.98 -339.29,109.41 l -98.375,-2.83 c -26.93,0 -51.871,-54.71 -17.571,-54.71 36.852,0 75.966,3.97 110.826,-11.34 14.18,-6.23 220.55,-7.09 358.87,-130.39 42.25,-37.99 96.09,-181.7 183.68,-290.84 75.69,-94.106 133.52,-97.505 199.28,-56.684" /><path
         id="path52"
         style="fill:#a10023;fill-opacity:1;fill-rule:nonzero;stroke:none"
         d="m 1705.98,1202.05 c 39.97,60.66 -57.26,178.59 -97.23,268.73 -49.04,110.84 -133.51,245.77 -226.2,323.72 -21.26,17.86 -54.43,-21.54 -43.37,-42.52 66.33,-125.02 138.33,-254.27 216.28,-373.04 41.1,-62.64 44.5,-133.23 70.87,-201.26 16.44,-43.08 56.41,-69.16 85.6,-102.33 12.48,-14.74 48.76,-74.83 57.55,-58.12 3.68,6.81 -11.63,89.87 -12.48,94.97 -9.07,57.83 -33.16,113.67 -59.24,165.53 -14.17,27.5 -59.53,-13.59 -47.06,-38.25 24.67,-48.48 47.06,-99.78 55.56,-153.93 15.03,12.18 30.05,24.66 45.07,36.86 -45.07,51.59 -83.05,83.62 -96.94,157.89 -12.47,67.46 -35.72,111.96 -73.42,169.5 -70.58,107.43 -134.93,227.06 -194.74,340.16 -14.45,-14.17 -28.91,-28.34 -43.37,-42.51 88.73,-74.84 140.03,-174.63 202.96,-269.86 49.33,-73.99 118.77,-200.13 108.85,-289.43 -4.25,-37.41 48.19,-13.31 51.31,13.89" /><path
         id="path54"
         style="fill:#a10023;fill-opacity:1;fill-rule:nonzero;stroke:none"
         d="m 1211.33,1806.68 c 4.82,-17 19.84,-18.43 35.43,-17.57 15.59,0.85 28.07,-3.68 42.81,-7.66 26.64,-7.36 59.24,44.51 29.48,52.73 -13.89,3.68 -26.93,8.23 -41.39,9.93 -4.53,0.55 -9.07,0 -13.61,-0.29 -2.83,-0.28 -5.66,-0.28 -8.5,-0.28 -5.67,0 -0.28,0.28 1.42,-1.13 1.7,-3.41 3.68,-6.82 5.38,-10.21 0,0.28 0,0.85 -0.28,1.41 -9.64,33.16 -58.39,-0.84 -50.74,-26.93" /><path
         id="path56"
         style="fill:#000000;fill-opacity:1;fill-rule:nonzero;stroke:none"
         d="m 182.355,906.117 c 59.809,-6.238 107.149,-2.828 148.54,44.223 40.808,46.488 74.832,100.06 114.519,147.69 87.02,104.88 172.633,182.55 280.621,270.7 106.02,86.74 261.36,79.37 394.305,49.61 129.25,-29.2 281.2,-73.7 342.71,-198.71 36.84,-74.55 67.75,-137.2 115.93,-202.39 45.36,-61.232 132.09,-68.033 205.81,-84.47 -51.04,-28.633 -72.86,-30.051 -110.56,-73.711 -38.27,-44.5 -81.07,-91.551 -135.21,-114.801 -111.97,-47.899 -235.84,-57.262 -350.36,-98.36 -125.02,-44.5 -252.004,-41.39 -377.015,-5.949 -109.129,30.891 -240.661,28.629 -346.391,70.578 -48.188,19.27 -65.77,70.301 -108.57,97.231 -46.2,29.191 -102.61,55.84 -153.637,73.699" /><path
         id="path58"
         style="fill:#ffffff;fill-opacity:1;fill-rule:nonzero;stroke:none"
         d="m 846.512,1432.51 c 1.422,-4.54 -88.442,-36.28 -88.442,-36.28 l -68.027,-59.25 c 0,0 -35.152,-17.57 -36.289,-22.96 -1.133,-5.38 1.988,-37.7 1.988,-37.7 0,0 39.969,-11.05 46.488,-12.75 6.524,-1.71 241.512,-21.26 240.372,-8.79 -1.129,12.19 41.109,20.41 41.109,20.41 l 38.259,-5.67 c 0,0 65.77,-12.76 70.59,-13.32 4.82,-0.29 88.44,2.26 97.79,1.98 9.64,-0.57 117.92,2.55 117.92,2.55 0,0 38.84,16.16 39.12,41.39 0.29,25.22 -10.2,42.23 -10.2,42.23 l -93.83,53.29 -146.27,25.52 -142.578,19.55 -77.102,0" /><path
         id="path60"
         style="fill:#ff4452;fill-opacity:1;fill-rule:nonzero;stroke:none"
         d="m 905.758,1696.42 c -16.442,-24.94 -13.043,-46.49 -20.133,-74.83 -5.098,-19.85 -17,-55.56 -10.48,-75.69 7.929,-25.23 10.769,-41.67 38.55,-47.62 28.629,-5.95 56.969,-13.04 86.745,-10.49 33.72,2.83 79.93,34.87 70.01,72 -8.22,30.33 -15.59,60.94 -25.24,90.71 -6.23,18.71 -9.07,39.12 -15.86,57.54 -16.44,45.07 -98.655,26.08 -123.592,-11.62" /><path
         id="path62"
         style="fill:#ff7b7b;fill-opacity:1;fill-rule:nonzero;stroke:none"
         d="m 957.629,1498.28 c 15.59,-2.27 31.75,-1.98 47.621,-1.98 18.99,0 36.29,14.74 45.07,30.33 7.09,13.32 13.04,46.48 -9.92,50.17 -34.01,5.66 -67.752,21.54 -103.181,17.86 -80.219,-7.95 -61.231,-85.04 20.41,-96.38" /><path
         id="path64"
         style="fill:#f75252;fill-opacity:1;fill-rule:nonzero;stroke:none"
         d="m 810.797,1827.09 c -1.422,1.43 -2.832,2.55 -4.539,3.68 -77.383,55.28 -199.274,-7.93 -255.113,-73.13 -38.547,-45.07 -71.438,-88.44 -102.329,-138.89 -37.992,-62.36 -80.218,-114.52 -106.019,-183.68 -17.289,-46.77 32.598,-44.8 59.527,-19.57 4.531,2.55 9.352,6.25 13.891,11.05 99.211,178.02 297.922,327.41 409.043,334.79 19.84,1.12 26.93,0.55 30.609,23.8 2.547,17.02 -18.422,43.09 -39.121,42.24 -1.98,-0.29 -3.969,-0.29 -5.949,-0.29" /><path
         id="path66"
         style="fill:#f75252;fill-opacity:1;fill-rule:nonzero;stroke:none"
         d="m 330.039,1237.77 c 9.922,11.05 15.871,23.24 21.539,36.57 1.422,3.4 2.551,7.08 3.692,10.49 0.57,1.7 5.949,16.15 2.269,8.22 7.652,16.15 12.75,42.8 -9.641,50.17 -20.41,6.8 -45.359,-11.06 -53.859,-28.91 -4.25,-9.64 -8.219,-19 -11.34,-29.2 -1.129,-3.4 -2.551,-7.09 -3.679,-10.49 0.851,2.27 8.218,12.19 1.699,4.82 -12.481,-13.61 -21.828,-41.95 -4.821,-56.13 17.571,-14.74 41.954,0.85 54.141,14.46" /><path
         id="path68"
         style="fill:#000000;fill-opacity:1;fill-rule:nonzero;stroke:none"
         d="m 185.473,888.828 c -13.61,5.391 -33.731,-4.82 -50.461,6.238 -15.297,9.922 -18.989,28.629 -16.719,45.629 13.32,31.192 82.488,-42.797 96.379,-62.636 l -29.199,10.769 z m 1599.307,43.938 c -9.07,2.261 -8.51,9.922 -16.73,13.89 -5.1,2.832 -18.99,1.981 -25.23,3.11 -27.49,-3.68 -55.55,-14.45 -85.04,-5.661 -41.1,12.18 -77.1,22.114 -120.75,21.821 -70.02,-0.559 -145.99,-2.547 -215.43,-12.75 -89.01,-12.758 -161.3,-13.61 -250.87,-3.688 -97.796,10.77 -197.289,19.278 -295.367,28.059 -83.34,7.66 -161.011,-24.942 -243.211,-32.59 -76.25,-7.371 -148.539,-4.539 -218.839,-39.41 -22.961,-11.328 -54.989,-20.969 -82.77,-34.578 43.371,-17.293 88.16,-39.121 126.141,-63.211 42.808,-26.93 60.379,-77.949 108.57,-97.231 105.73,-41.949 237.258,-39.679 346.391,-70.582 125.007,-35.429 251.995,-38.547 377.005,5.953 114.52,41.098 238.39,50.457 350.36,98.36 54.14,23.25 96.95,70.301 135.22,114.808 35.15,40.821 64.34,44.219 108.85,68.032 3.11,1.699 -1.42,3.968 1.7,5.668" /><path
         id="path70"
         style="fill:#fdfdfd;fill-opacity:1;fill-rule:nonzero;stroke:none"
         d="m 986.543,1301.84 c 213.447,0 386.357,-160.45 386.357,-358.024 0,-197.851 -172.91,-358.3 -386.357,-358.3 -213.449,0 -386.359,160.449 -386.359,358.3 0,197.574 172.91,358.024 386.359,358.024" /><path
         id="path72"
         style="fill:#ffffff;fill-opacity:1;fill-rule:nonzero;stroke:none"
         d="m 686.07,1725.9 c -13.039,10.77 -28.629,16.72 -45.347,4.54 -25.801,-18.15 -39.973,-30.62 -62.082,-53.01 -64.918,-64.63 -108.571,-140.03 -152.789,-220.54 -8.789,-16.16 8.5,-20.97 18.988,-10.49 31.18,31.75 60.953,64.63 90.992,97.52 22.68,24.66 124.16,77.1 161.578,118.2 23.531,25.8 12.75,43.65 -11.34,63.78" /><path
         id="path74"
         style="fill:#ffffff;fill-opacity:1;fill-rule:nonzero;stroke:none"
         d="m 419.047,1368.17 c 3.973,13.04 -0.277,27.78 -15.02,27.78 -9.359,0 -17.578,-7.94 -22.679,-15.31 -27.5,-41.68 25.511,-51.3 37.699,-12.47" /><path
         id="path76"
         style="fill:#ffffff;fill-opacity:1;fill-rule:nonzero;stroke:none"
         d="m 726.891,1750.28 c -11.621,-16.73 -11.621,-43.09 9.64,-51.59 9.918,-3.98 22.668,1.7 30.328,7.94 12.469,10.48 17.289,24.94 15.871,40.82 -1.128,9.92 -2.55,16.44 -20.121,22.1 -15.031,5.11 -28.07,-8.21 -35.718,-19.27" /><path
         id="path78"
         style="fill:#ffffff;fill-opacity:1;fill-rule:nonzero;stroke:none"
         d="m 714.699,476.387 c 116.5,-40.539 261.922,-50.461 396.571,-31.18 57.54,8.219 113.1,21.828 163.56,40.527 26.64,9.641 34.01,10.782 55.27,32.321 37.7,37.98 13.04,98.652 -41.38,75.121 -145.42,-62.649 -367.939,-62.93 -515.63,-11.34 -51.867,18.422 -117.629,-84.762 -58.391,-105.449" /><path
         id="path80"
         style="fill:#ffffff;fill-opacity:1;fill-rule:nonzero;stroke:none"
         d="m 1429.32,653.551 -1.14,0 c -30.04,0 -56.98,-27.211 -65.77,-54.711 -7.64,-24.09 1.14,-54.707 30.91,-54.707 l 5.09,0 c 30.34,0 57.27,27.219 66.05,54.707 7.65,24.101 -1.12,54.711 -30.89,54.711 l -5.39,0 c -30.04,0 -56.98,-27.211 -65.77,-54.711 -7.64,-24.09 1.14,-54.707 30.91,-54.707 l 1.13,0 c 30.32,0 57.25,27.219 65.76,54.707 7.93,24.101 -0.85,54.711 -30.89,54.711" /><path
         id="path82"
         style="fill:#fdfdfd;fill-opacity:1;fill-rule:nonzero;stroke:none"
         d="m 612.086,518.34 4.25,0 c -4.82,2.551 -9.918,5.39 -14.738,8.219 1.14,-3.121 3.398,-5.391 5.949,-7.649 1.422,-0.851 3.121,-1.699 5.109,-2.84 3.403,-1.98 2.551,-1.132 -2.84,2.27 5.102,-14.461 26.36,-6.801 34.02,-0.57 11.902,9.64 17.859,24.097 12.75,38.55 -0.848,3.118 -3.109,5.391 -5.668,7.66 -1.699,0.848 -3.402,1.981 -5.102,2.829 -3.679,1.992 -2.828,1.421 2.551,-2.27 -1.699,5.672 -9.351,8.231 -14.449,8.231 l -4.262,0 c -15.019,0 -28.629,-13.61 -32.879,-27.219 -3.968,-12.192 0.571,-27.211 15.309,-27.211" /><path
         id="path84"
         style="fill:#ffffff;fill-opacity:1;fill-rule:nonzero;stroke:none"
         d="m 1395.87,516.07 c -8.22,-6.238 -11.06,-17.007 -7.09,-26.648 3.12,-7.371 8.79,-11.902 16.73,-13.039 37.7,-5.66 28.34,68.597 -9.64,39.687" /><path
         id="path86"
         style="fill:#bababa;fill-opacity:1;fill-rule:nonzero;stroke:none"
         d="m 716.684,1327.63 c 90.992,-3.97 179.152,26.08 271.562,27.21 83.344,0.85 167.804,-18.71 250.864,-25.23 24.37,-1.7 49.6,40.26 23.53,53.86 -129.55,67.18 -335.343,66.33 -467.156,14.18 -17.57,-6.81 -47.339,-53.58 -11.05,-53.58 l 1.98,0 c 26.93,0 51.883,54.71 17.582,54.71 l -2.269,0 c -3.692,-18.14 -7.372,-36 -11.063,-53.86 122.742,48.19 322.016,48.19 442.786,-14.17 7.64,17.86 15.59,35.71 23.23,53.57 -82.77,6.52 -168.93,13.89 -251.14,25.23 -91.286,12.47 -181.427,-31.18 -271.286,-27.21 -26.918,1.13 -52.149,-53.29 -17.57,-54.71" /><path
         id="path88"
         style="fill:#bababa;fill-opacity:1;fill-rule:nonzero;stroke:none"
         d="m 680.684,1317.71 c 53.293,4.82 102.902,33.73 156.761,38.55 13.039,1.13 25.508,28.63 8.782,27.21 -24.661,-2.26 -48.192,-10.48 -72.563,-14.74 -28.629,-4.82 -55,-20.97 -84.187,-23.81 -13.332,-1.13 -25.512,-28.63 -8.793,-27.21" /><path
         id="path90"
         style="fill:#bababa;fill-opacity:1;fill-rule:nonzero;stroke:none"
         d="m 1215.3,1339.25 c 4.25,0 11.34,-7.37 15.87,-9.35 6.52,-2.84 15.59,-1.71 22.68,-1.42 17.86,0.57 34.58,-2.27 52.44,0.57 10.21,1.41 20.7,20.69 8.51,26.36 -5.11,2.27 -10.21,3.68 -15.31,5.95 -5.1,2.27 -10.21,7.94 -15.59,9.35 -6.8,1.99 -21.54,0.85 -26.36,7.09 -9.36,12.76 -31.47,-8.22 -23.25,-18.99 5.95,-8.22 13.61,-10.77 23.53,-12.19 14.46,-2.27 28.91,-11.62 42.24,-17.57 2.83,8.78 5.67,17.57 8.5,26.36 -15.31,-2.27 -30.61,0 -45.92,0.28 -7.94,0.28 -15.59,-1.7 -22.4,3.97 -5.38,4.53 -8.78,6.8 -16.15,6.8 -13.33,0.57 -25.8,-26.64 -8.79,-27.21" /><path
         id="path92"
         style="fill:#948787;fill-opacity:1;fill-rule:nonzero;stroke:none"
         d="m 711.582,1350.31 c 45.352,17.29 95.813,29.48 144.281,33.45 7.942,0.85 17.289,8.5 17.289,17.29 0,-22.39 144.568,-9.35 179.998,-9.92 64.35,-0.85 136.07,-23.53 200.7,-31.75 11.34,-1.7 25.79,22.68 11.62,26.65 -92.13,25.79 -186.52,41.38 -282.048,44.22 l -74.828,3.12 -73.422,-10.49 c -43.367,-6.24 -80.5,-30.62 -121.32,-45.92 -12.758,-4.82 -19.84,-33.17 -2.27,-26.65" /><path
         id="path94"
         style="fill:#ff7b7b;fill-opacity:1;fill-rule:nonzero;stroke:none"
         d="m 1087.46,1738.94 c 17.57,14.17 37.7,17.57 57.83,27.5 27.49,13.89 51.59,19.84 82.77,20.12 26.64,0.57 51.59,55.28 17.29,54.71 -35.72,-0.57 -68.6,-6.24 -100.63,-22.68 -27.5,-14.45 -53.58,-20.41 -78.52,-40.25 -26.36,-21.26 -10.2,-64.63 21.26,-39.4" /><path
         id="path96"
         style="fill:#ff7b7b;fill-opacity:1;fill-rule:nonzero;stroke:none"
         d="m 1287.02,1785.71 c 12.46,-15.59 32.6,-16.16 46.77,-29.2 5.1,15.88 10.21,31.75 15.59,47.34 -0.85,-0.28 -1.7,-0.85 -2.27,-1.13 9.35,-1.7 18.43,-3.12 27.78,-4.82 0.29,-0.28 0.57,-0.85 0.84,-1.42 -0.55,15.31 -19.84,15.88 -29.47,10.49 -14.17,-7.37 -21.82,-21.54 -21.26,-37.13 0.29,-3.69 1.14,-6.81 2.84,-9.93 5.37,-10.2 18.98,-9.92 27.78,-4.81 0.84,0.28 1.42,0.85 2.27,1.13 13.89,8.22 31.46,32.88 15.3,47.34 -6.8,6.52 -15.59,10.77 -24.37,14.46 -3.69,1.7 -7.66,3.4 -11.63,4.81 -0.85,0.57 -5.67,3.97 -3.4,0.85 -9.35,11.63 -22.97,9.64 -34.01,0.57 -8.51,-6.8 -22.12,-27.21 -12.76,-38.55" /><path
         id="path98"
         style="fill:#000000;fill-opacity:1;fill-rule:nonzero;stroke:none"
         d="m 1737.73,942.684 c 6.23,-0.571 13.32,0.57 20.68,2.832 -1.98,-0.282 -3.96,-0.282 -5.95,-0.563 -27.21,-1.988 -61.8,0 -97.8,16.16 -35.7,15.301 -72.84,43.367 -100.61,84.187 -28.35,39.97 -49.34,89 -76.82,137.47 -27.78,48.19 -65.77,95.25 -114.82,133.53 -49.03,38.54 -109.41,67.45 -175.45,82.2 -67.19,14.73 -137.78,24.38 -210.624,28.05 -72,3.7 -144.852,0.86 -203.52,-32.87 -59.812,-31.75 -108.293,-77.95 -155.062,-120.75 -46.77,-42.82 -91.84,-82.79 -127.84,-125.59 -17.859,-21.25 -34.578,-43.09 -49.891,-63.77 -15.019,-21.27 -28.628,-42.52 -42.238,-62.37 -26.64,-39.966 -54.422,-75.114 -83.34,-100.626 -14.172,-13.609 -30.328,-23.527 -47.05,-28.347 -16.438,-4.821 -32.598,-4.25 -45.918,-1.411 -27.211,5.668 -45.641,16.719 -58.114,23.52 -12.187,7.367 -18.136,11.91 -17.859,12.48 0.57,0.559 7.09,-3.121 19.84,-9.07 12.472,-5.961 31.472,-15.601 57.261,-19.851 25.508,-5.098 58.961,2.839 84.758,30.05 27.782,25.789 53.571,60.09 79.653,100.355 13.039,20.11 26.359,41.66 41.39,63.2 15.301,21.84 31.75,43.38 49.598,65.77 36.57,44.21 81.922,85.03 128.41,128.12 46.211,42.81 95.25,90.72 157.891,124.16 15.879,8.22 32.031,15.88 49.609,21.27 17.293,5.38 35.43,9.07 53.57,11.32 36,4.82 73.141,4.54 109.993,2.84 73.703,-3.96 145.413,-13.6 213.163,-28.91 68.88,-15.59 131.52,-45.93 182.27,-86.46 50.73,-40.25 89.57,-89.29 117.64,-139.18 27.49,-50.18 47.61,-98.93 74.27,-137.77 26.07,-39.68 60.09,-66.324 94.11,-82.195 33.73,-16.16 66.61,-19.281 92.96,-18.43 11.07,0.57 20.7,1.418 29.49,2.559 38.83,18.14 76.82,46.476 62.08,6.519 -25.23,-67.468 -105.73,-18.429 -105.73,-18.429" /><path
         id="path100"
         style="fill:#000000;fill-opacity:1;fill-rule:nonzero;stroke:none"
         d="m 1780.81,926.813 c -0.28,-0.282 -4.54,9.347 -3.12,28.347 l 0.57,15.59 c 0.57,5.672 -1.42,10.77 -2.84,17.859 l -9.63,46.201 c -6.81,34.58 -14.74,77.39 -26.65,126.14 -11.9,48.47 -26.64,103.75 -55.27,159.88 -60.95,109.98 -129.55,246.04 -232.16,377 -26.08,32.6 -51.88,67.18 -85.04,93.26 -32.88,26.65 -73.99,45.07 -117.64,45.64 -43.65,1.14 -86.17,-16.72 -128.13,-37.13 -20.97,-10.21 -42.52,-20.98 -66.04,-28.92 -23.53,-7.93 -49.04,-12.47 -74.84,-9.92 -51.297,5.67 -94.668,30.05 -136.629,49.89 -41.95,20.13 -85.039,37.99 -128.121,34.02 -43.09,-3.4 -81.637,-27.21 -114.52,-54.14 -33.168,-27.5 -62.078,-58.96 -88.16,-91.28 -52.438,-64.63 -95.238,-130.96 -126.988,-198.14 -16.442,-33.45 -32.321,-66.05 -48.469,-96.38 -15.313,-30.33 -26.653,-61.23 -36.012,-91.27 -18.699,-60.1 -30.328,-116.51 -43.648,-164.98 -13.043,-48.76 -25.793,-90.43 -37.422,-123.87 -23.238,-67.188 -40.809,-102.34 -41.668,-102.047 -1.703,0.57 13.887,36.847 34.867,104.307 10.492,33.74 22.391,75.4 34.301,124.16 12.191,48.47 22.961,104.88 41.101,166.11 9.071,30.61 20.129,62.36 36,94.11 15.879,30.62 30.899,62.93 47.34,96.66 16.16,33.45 34.02,68.03 55.559,102.05 21.539,33.73 45.351,67.18 71.719,100.06 26.64,32.88 55.839,65.2 90.14,94.11 34.012,28.07 75.403,54.43 124.16,58.68 49.321,4.25 95.52,-15.59 137.481,-35.72 42.519,-19.84 85.039,-43.08 130.672,-47.9 45.917,-4.82 89.287,16.44 131.247,36.85 41.95,20.41 88.15,39.97 136.63,38.55 48.19,-0.57 93.26,-21.26 128.12,-49.61 35.44,-28.63 61.23,-64.06 87.59,-96.66 51.31,-66.61 94.4,-134.08 131.25,-199.27 35.15,-66.05 71.15,-124.73 99.21,-182.55 28.35,-57.55 42.24,-114.24 53.58,-163.28 10.77,-49.32 17.57,-92.13 23.52,-126.99 l 7.94,-46.488 c 0.85,-6.242 3.12,-13.32 2.27,-19.281 -0.57,-5.672 -1.14,-11.051 -1.7,-15.59 -2.55,-18.422 0.28,-28.058 -0.57,-28.058" /><path
         id="path102"
         style="fill:#000000;fill-opacity:1;fill-rule:nonzero;stroke:none"
         d="m 1793,906.117 c 1.13,0 0.57,-34.871 -4.82,-97.801 -6.52,-62.359 -15.31,-155.046 -58.39,-261.066 -41.67,-106.301 -131.53,-215.711 -255.69,-300.473 -62.08,-42.23 -133.51,-78.8 -212.88,-101.199 -79.65,-22.109 -165.26,-27.211 -251.72,-23.808 -86.449,3.41 -170.07,15.308 -250.301,28.347 -81.07,12.473 -157.027,39.973 -222.23,78.242 -130.957,77.098 -214.867,192.75 -260.789,295.649 -46.77,103.75 -64.629,194.461 -76.25,256.25 -11.059,62.359 -14.461,96.949 -13.321,97.23 1.411,0.282 7.082,-34.3 20.121,-95.808 13.891,-60.953 33.731,-150.801 81.36,-252.282 24.09,-50.46 55.269,-103.468 98.082,-153.082 42.519,-49.597 95.808,-96.367 159.59,-133.218 63.488,-36.848 137.187,-63.219 216.277,-75.121 79.941,-12.758 162.992,-24.379 248.311,-27.778 85.04,-3.402 169.23,1.699 246.05,22.957 77.1,21.262 147.12,56.692 208.06,97.793 122.46,82.489 210.9,188.231 253.42,291.41 43.66,102.891 54.43,194.739 63.21,256.821 7.66,62.359 10.49,97.218 11.91,96.937" /><path
         id="path104"
         style="fill:#000000;fill-opacity:1;fill-rule:nonzero;stroke:none"
         d="m 1802.36,928.797 c 0.57,-2.27 -25.81,-2.832 -63.79,-25.801 -18.98,-11.621 -39.12,-29.762 -60.09,-53.57 -20.12,-24.379 -46.48,-51.309 -78.8,-75.969 -32.32,-24.941 -74.84,-45.07 -121.32,-54.992 -45.65,-12.188 -94.97,-23.809 -146.56,-36.57 -51.87,-12.469 -104.87,-27.207 -160.16,-45.071 -55.55,-16.156 -113.66,-35.148 -177.726,-35.429 -64.059,0.851 -121.32,22.113 -177.73,30.902 -28.348,5.379 -56.7,10.199 -83.911,16.719 l -79.367,20.41 c -25.511,6.801 -50.461,12.762 -74.832,15.59 -12.758,1.699 -23.527,1.699 -37.14,2.55 -11.899,1.418 -23.809,2.27 -36,3.969 -12.188,1.699 -24.09,4.25 -35.43,9.07 -2.547,0.852 -6.52,2.84 -7.367,3.403 -3.121,1.137 -5.953,2.269 -8.793,3.687 -5.379,2.551 -10.489,5.95 -15.02,9.641 -18.429,15.301 -30.051,32.879 -42.801,48.75 -24.378,28.91 -58.968,45.07 -82.777,68.031 -10.199,9.641 -24.941,15.028 -37.133,20.41 -12.468,5.391 -24.09,9.641 -34.578,13.61 -42.238,15.308 -45.359,28.34 -44.789,29.758 0.57,0.851 3.969,-9.637 47.051,-22.957 10.777,-3.403 22.68,-7.372 35.719,-12.192 12.757,-5.379 26.929,-9.351 40.82,-20.969 22.68,-20.98 57.539,-35.441 85.891,-67.75 12.757,-15.031 25.507,-32.882 41.386,-45.359 3.961,-3.113 8.223,-5.953 12.75,-7.934 2.274,-1.136 4.543,-2.269 6.813,-3.117 l 8.219,-3.402 c 9.921,-3.969 20.691,-5.957 32.031,-7.66 11.34,-1.41 23.238,-1.981 35.711,-3.11 10.777,-0.57 24.949,-0.57 37.136,-2.269 25.793,-2.84 51.59,-8.789 77.383,-15.309 l 79.09,-19.562 c 26.649,-6.52 54.707,-11.047 83.051,-16.16 57.828,-8.778 115.367,-29.758 174.898,-30.329 59.255,0 117.075,18.43 172.355,34.301 54.7,17.578 109.41,32.321 161.29,44.508 51.86,12.191 100.91,22.961 146.82,34.582 46.22,9.348 85.04,27.211 117.36,50.738 32.03,23.532 57.84,48.192 79.09,72.282 21.82,23.531 43.66,41.961 63.78,53.007 40.81,21.832 67.75,19.563 67.47,19.563" /><path
         id="path106"
         style="fill:#000000;fill-opacity:1;fill-rule:nonzero;stroke:none"
         d="m 1341.16,1337.55 c 0.28,0.28 3.4,-2.55 6.24,-9.64 2.55,-6.8 5.95,-18.71 1.13,-33.16 -4.82,-14.74 -20.41,-28.07 -40.25,-34.02 -4.82,-1.7 -9.92,-3.12 -15.31,-4.25 -2.55,-0.57 -5.1,-1.42 -8.5,-1.42 l -8.51,-0.57 -35.43,-1.7 c -49.61,-2.26 -109.13,-2.83 -174.9,-0.85 -16.44,0 -34.3,1.14 -52.15,5.39 -4.26,1.13 -8.79,2.55 -13.33,4.25 -2.552,1.14 -4.822,1.99 -7.084,3.4 -2.558,1.7 -5.957,4.26 -7.66,7.09 -7.078,11.62 -5.949,22.11 -5.668,31.46 0.571,9.36 2.27,18.71 2.84,26.93 l 0.281,26.93 c 0.571,18.71 1.129,37.14 0.278,55.85 l -0.559,15.02 18.422,1.98 c 5.67,-38.83 0,-75.4 -1.133,-109.7 -0.277,-8.5 0,-16.44 0,-25.51 0,-8.5 -0.847,-20.98 -9.359,-29.76 -2.262,-2.27 -3.961,-3.69 -6.801,-5.39 -3.969,-2.27 -5.949,-1.98 -8.219,-2.83 -4.531,-1.14 -9.07,-1.7 -13.609,-1.99 -8.781,-0.85 -17.289,-0.57 -25.223,0 -62.648,0.57 -121.039,-3.68 -169.226,-3.4 -24.102,0 -45.922,0 -65.481,2.27 -11.062,1.13 -18.711,4.53 -26.929,7.37 -7.942,3.4 -15.59,7.94 -19.282,15.02 -7.082,14.17 -3.679,25.23 -3.121,32.32 1.422,7.08 2.563,10.48 3.121,10.48 0.852,0 0.571,-3.96 0.571,-10.77 0.281,-6.8 -0.852,-18.42 5.39,-28.34 6.231,-9.07 23.809,-13.89 41.098,-16.16 18.711,-0.85 40.531,-0.28 64.34,0.57 48.48,1.41 104.89,7.08 170.082,7.37 7.937,-0.29 15.59,-0.57 23.25,0.28 3.679,0.28 7.371,0.85 10.769,1.7 1.7,0.57 3.969,1.13 3.68,1.13 0.57,0.29 2.27,1.71 2.84,2.56 7.371,6.23 3.121,26.07 4.25,43.65 0.851,35.43 6.238,71.43 0.851,106.01 l 18.141,1.99 0.85,-15.31 c 0.57,-19.27 0,-38.27 -0.56,-56.69 l -0.57,-28.06 c -0.853,-9.93 -2.271,-18.43 -2.841,-26.65 -0.852,-8.22 -0.281,-16.72 2.271,-20.13 0.57,-0.85 0.85,-1.13 1.7,-1.98 1.7,-0.85 3.12,-1.42 4.82,-2.27 3.69,-1.41 7.37,-2.55 11.34,-3.68 15.59,-3.97 31.46,-5.1 47.91,-5.39 65.76,-2.83 124.72,-3.68 174.33,-3.12 l 35.43,0.29 8.22,0.28 c 1.7,-0.28 4.54,0.57 7.09,0.85 5.1,0.85 9.92,1.99 14.45,3.12 18.15,4.82 31.47,15.31 36.29,26.93 5.38,11.62 3.4,22.68 2.26,29.48 -1.7,7.09 -3.68,10.2 -2.83,10.77" /><path
         id="path108"
         style="fill:#390000;fill-opacity:1;fill-rule:nonzero;stroke:none"
         d="m 1504.15,372.355 c 0,0.282 9.64,5.098 15.87,21.258 6.81,15.313 13.04,37.981 17.3,63.5 7.08,25.512 6.23,48.473 5.66,65.762 -0.56,17.289 0.29,27.781 1.14,27.781 0.85,0 1.42,-10.492 3.12,-27.5 1.98,-16.722 3.11,-41.953 -3.97,-66.89 -4.25,-26.082 -11.06,-49.039 -19.28,-64.629 -3.97,-7.66 -8.5,-13.614 -12.75,-16.453 -3.97,-3.11 -7.09,-3.11 -7.09,-2.829" /><path
         id="path110"
         style="fill:#000000;fill-opacity:1;fill-rule:nonzero;stroke:none"
         d="m 1414.86,280.23 c -0.28,0.571 6.8,3.969 14.17,15.309 7.37,11.34 11.91,30.891 11.34,54.988 l -0.28,39.973 c 1.42,14.449 -3.97,28.34 -6.52,45.07 -0.28,2.27 -0.57,3.399 -0.57,7.09 0,3.957 0.57,6.801 1.14,10.481 2.26,3.398 10.77,-9.922 11.62,-11.621 4.53,-7.653 7.08,-16.161 9.07,-24.942 2.27,-8.508 3.68,-17.578 5.1,-26.648 0.85,-9.071 3.97,-17.289 5.39,-26.93 1.41,-9.352 2.55,-18.711 1.41,-28.34 -0.28,-4.543 -0.85,-8.793 -0.85,-13.043 -0.28,-4.258 0.57,-9.929 0.29,-8.219 0.28,0 -0.29,-0.57 0.56,0.282 1.42,1.418 2.84,2.828 3.97,4.531 2.55,3.406 4.25,6.809 5.96,10.777 3.4,7.371 5.66,15.301 7.37,22.961 1.13,3.68 1.13,7.93 3.11,11.899 l 3.97,10.769 c 2.55,7.094 4.82,14.184 5.95,20.981 2.56,13.613 1.42,27.211 1.71,39.402 0,12.188 0.85,23.527 0,32.879 -0.85,9.641 -2.27,17.859 -3.12,24.66 -1.7,13.609 -1.14,21.262 -0.85,21.262 0.56,0 0.85,-7.653 3.4,-20.973 1.13,-6.519 2.83,-14.738 3.97,-24.66 1.13,-9.918 0.85,-20.699 1.13,-33.168 -0.28,-12.191 1.42,-25.512 -1.13,-40.25 -1.42,-7.09 -3.4,-14.461 -5.67,-21.832 l -3.97,-11.051 c -1.7,-3.117 -1.7,-7.367 -2.84,-11.34 -1.98,-7.937 -4.25,-16.16 -7.65,-24.097 -1.7,-3.961 -3.68,-7.93 -6.52,-11.621 -1.42,-1.981 -2.83,-3.68 -4.53,-5.379 -1.99,-1.422 -6.81,-6.52 -9.07,-5.672 -2.27,9.922 -2.27,13.043 -2.27,17.859 0.28,4.531 0.85,9.352 1.13,13.602 0.85,8.789 0,17.859 -1.42,26.648 -1.41,9.071 -4.53,18.141 -5.67,27.211 -1.13,9.07 -2.55,17.86 -4.53,26.082 -1.99,8.5 -4.54,16.719 -8.5,23.528 l -1.71,2.832 c 0,0 0,0.281 0,0 l -0.28,-0.282 0.57,-5.097 c 1.98,-15.032 7.65,-30.903 5.95,-45.641 l -0.28,-39.973 c -0.29,-24.379 -5.39,-44.789 -13.89,-56.129 -8.22,-11.621 -16.16,-14.449 -16.16,-14.168" /><path
         id="path112"
         style="fill:#000000;fill-opacity:1;fill-rule:nonzero;stroke:none"
         d="m 1347.39,221.836 c 0.57,-0.281 8.22,8.219 13.61,26.93 l 4.82,15.019 c 1.13,4.82 1.98,11.34 3.4,17.578 2.83,12.473 5.67,25.793 5.96,40.532 1.7,28.921 -4.25,55 -5.96,74.55 -2.27,19.282 -1.14,31.469 -0.29,31.192 0.86,0 1.43,-11.91 4.54,-30.621 2.55,-18.993 9.64,-45.352 7.66,-75.68 0,-14.742 -3.41,-28.922 -6.24,-41.109 -1.69,-6.524 -2.56,-11.903 -4.26,-18.141 l -5.38,-14.742 c -3.69,-9.071 -7.37,-16.16 -10.77,-20.688 -3.41,-4.543 -7.09,-5.39 -7.09,-4.82" /><path
         id="path114"
         style="fill:#000000;fill-opacity:1;fill-rule:nonzero;stroke:none"
         d="m 1316.5,234.023 c -1.13,0.852 12.46,24.09 12.76,57.262 1.13,32.598 0.56,59.809 2.83,59.528 1.12,0 4.25,-26.36 3.39,-59.809 -0.84,-16.731 -4.25,-32.039 -9.07,-41.961 -4.52,-10.199 -9.34,-15.301 -9.91,-15.02" /><path
         id="path116"
         style="fill:#000000;fill-opacity:1;fill-rule:nonzero;stroke:none"
         d="m 1264.34,218.719 c -0.85,-0.281 -1.7,11.058 4.25,26.929 3.4,7.649 3.69,17.008 5.67,28.059 1.42,10.77 2.55,22.68 2.27,35.148 l 0.28,36 c 0.57,9.922 -3.4,20.133 -4.53,28.063 -3.4,16.449 -2.55,27.219 -1.7,27.219 0.85,0 1.41,-10.211 5.95,-26.078 1.7,-8.512 6.24,-17.012 5.95,-29.204 l 0.29,-36 c 0.28,-12.75 -1.14,-25.226 -2.84,-36 -2.27,-10.488 -3.12,-21.257 -7.09,-28.91 -7.08,-15.027 -7.65,-25.226 -8.5,-25.226" /><path
         id="path118"
         style="fill:#000000;fill-opacity:1;fill-rule:nonzero;stroke:none"
         d="m 575.805,268.039 c -0.852,0 -1.422,6.52 -3.121,16.723 -0.559,10.488 -4.821,24.949 -1.7,41.957 4.821,32.031 6.52,57.82 7.942,58.109 1.699,0 2.828,-26.648 -1.703,-58.957 -3.118,-15.031 0.281,-30.051 0,-40.543 0.281,-10.769 -0.571,-17.566 -1.418,-17.289" /><path
         id="path120"
         style="fill:#000000;fill-opacity:1;fill-rule:nonzero;stroke:none"
         d="m 612.652,258.684 c -0.847,0 -1.418,3.691 -3.679,9.351 -1.137,2.84 -2.84,5.961 -3.969,10.211 -0.57,1.981 -1.141,4.25 -1.418,6.801 0,1.418 -0.57,4.539 -1.133,6.519 -2.84,19.278 -0.289,34.868 1.133,34.868 1.977,0 2.269,-15.59 5.098,-33.731 0.289,-2.558 0.851,-4.258 1.14,-7.367 0,-1.992 0.281,-3.691 0.559,-5.672 l 2.551,-10.488 c 1.421,-6.242 0.57,-10.492 -0.282,-10.492" /><path
         id="path122"
         style="fill:#000000;fill-opacity:1;fill-rule:nonzero;stroke:none"
         d="m 661.977,215.598 c -0.571,-0.571 -19.84,43.09 -18.43,100.632 1.711,56.688 5.109,102.329 6.238,102.329 1.992,0 1.703,-45.918 0,-102.329 -1.699,-56.132 14.742,-100.062 12.192,-100.632" /><path
         id="path124"
         style="fill:#000000;fill-opacity:1;fill-rule:nonzero;stroke:none"
         d="m 1159.74,184.984 c -0.85,0.282 2.55,10.2 4.82,26.653 1.98,16.718 1.7,39.957 1.13,65.758 -0.56,51.308 -13.89,91.558 -11.9,91.839 1.41,0.852 17.29,-39.398 18.14,-91.839 0.57,-25.801 0,-49.321 -3.12,-66.329 -3.4,-17.011 -8.5,-26.363 -9.07,-26.082" /><path
         id="path126"
         style="fill:#000000;fill-opacity:1;fill-rule:nonzero;stroke:none"
         d="m 732.559,375.473 c 1.98,-0.282 -11.911,-24.66 -9.918,-67.461 0.281,-20.981 4.25,-46.207 2.828,-75.117 -0.278,-3.973 -0.278,-5.961 -1.41,-11.911 -0.289,-3.402 -1.137,-6.8 -1.7,-9.921 l -0.57,-2.551 c -0.289,-0.571 -0.848,1.133 -1.141,1.422 l -2.828,4.25 c -1.98,2.55 -4.25,6.8 -5.101,8.5 -0.848,1.699 -1.418,3.398 -2.27,5.39 -1.418,3.68 -2.551,7.367 -3.398,11.34 -3.973,15.301 -1.141,32.598 1.129,48.188 0.289,3.113 0.57,5.953 0.57,9.07 l 0,5.383 c -0.281,-0.282 0.57,0.566 -0.57,-0.852 -1.981,-1.98 -3.121,-4.531 -4.532,-6.801 -3.968,-10.488 -4.257,-22.39 -4.257,-33.449 l 0.57,-16.719 0.277,-8.222 c 0,-2.84 0,-4.539 -0.558,-10.489 -0.852,-3.968 -1.418,-8.218 -2.27,-12.48 -0.281,-0.281 -0.281,-3.398 -0.851,-1.699 l -1.418,2.84 -2.551,5.379 -4.25,11.058 c -0.57,2.551 -1.418,4.82 -1.981,7.094 -3.968,19.269 -3.41,36.848 -2.558,51.019 l 1.699,34.579 2.27,0 c -0.559,-9.918 -0.848,-15.301 -1.129,-15.301 -0.571,0 -0.852,5.383 -1.141,15.301 l 2.27,0 c 0.289,-8.5 0,-20.411 -0.282,-34.579 -0.277,-14.461 -0.277,-31.461 3.973,-49.613 0.277,-2.547 1.129,-4.816 1.699,-7.078 0.57,-1.422 0.57,-1.422 0.852,-2.27 0.277,-1.128 0.566,0 0.566,0.571 l 0,5.668 -0.289,7.929 -0.559,16.731 c -0.289,11.621 -0.289,23.812 4.532,36 1.418,3.121 2.84,5.949 5.386,8.5 0.563,1.133 3.68,3.691 5.954,5.391 l 3.398,2.832 c 0.852,-0.282 0.57,-2.551 0.852,-3.973 0.277,-2.551 1.136,-6.52 1.136,-8.219 l 0,-4.82 c -0.289,-3.11 -0.289,-6.52 -0.859,-9.629 -2.258,-16.449 -4.809,-31.473 -1.129,-46.211 0.852,-3.68 1.699,-7.09 3.121,-10.488 0.57,-1.703 1.129,-3.403 1.981,-4.821 l 0.57,-1.132 c 0,-0.278 0.277,0 0.277,0 0,1.132 0.571,6.519 0.852,9.351 1.699,27.781 -1.699,53.012 -1.699,74.559 -0.282,21.543 3.117,39.109 7.367,50.453 3.972,11.34 6.812,17.008 7.09,17.008" /><path
         id="path128"
         style="fill:#000000;fill-opacity:1;fill-rule:nonzero;stroke:none"
         d="m 794.07,224.953 c -0.57,-1.129 -7.937,5.668 -9.347,19.84 -2.274,14.18 0.558,32.602 0.277,53.012 1.699,41.386 4.82,74.547 5.949,74.547 2.274,0 1.992,-33.731 0.293,-74.547 0.278,-20.692 -3.121,-39.403 -2.269,-52.442 0.277,-13.609 5.668,-19.84 5.097,-20.41" /><path
         id="path130"
         style="fill:#000000;fill-opacity:1;fill-rule:nonzero;stroke:none"
         d="m 830.922,221.836 c -0.852,0 -1.418,4.539 -2.828,11.91 -1.422,7.367 -3.692,17.848 -3.121,29.758 2.55,23.242 4.531,41.101 5.949,41.391 1.98,0.281 2.832,-19.282 0.281,-41.668 -0.562,-11.063 0.848,-21.262 1.141,-28.922 0.277,-7.649 -0.571,-12.469 -1.422,-12.469" /><path
         id="path132"
         style="fill:#000000;fill-opacity:1;fill-rule:nonzero;stroke:none"
         d="m 867.773,191.223 c -1.132,0 -3.679,41.949 -2.269,94.679 0.848,13.039 2.269,25.231 2.547,36.559 0.293,11.059 -0.278,21.262 0.293,30.051 0.277,8.508 1.699,15.59 3.679,20.41 1.989,4.82 5.098,5.949 5.098,5.668 0.289,-0.57 -1.699,-1.981 -2.828,-6.52 -1.133,-4.539 -1.699,-11.34 -1.699,-19.558 0,-8.5 1.129,-18.711 1.129,-30.332 0,-11.34 -1.129,-23.809 -1.981,-36.848 -1.422,-51.59 -1.988,-94.391 -3.969,-94.109" /><path
         id="path134"
         style="fill:#000000;fill-opacity:1;fill-rule:nonzero;stroke:none"
         d="m 485.66,385.676 c -0.566,0.281 -1.976,9.07 -3.117,24.09 -0.281,15.312 5.098,35.722 11.059,56.98 1.98,11.34 5.101,21.832 7.652,31.18 3.687,9.359 3.687,17.859 6.238,25.23 3.68,15.313 12.75,21.262 13.039,20.41 0.563,-0.847 -6.238,-6.8 -8.789,-21.539 -1.699,-6.519 -1.699,-16.16 -4.82,-25.519 -2.551,-9.629 -5.391,-19.84 -7.371,-30.891 -5.949,-22.109 -11.91,-41.39 -12.469,-55.851 -0.289,-14.739 -0.289,-24.09 -1.422,-24.09" /><path
         id="path136"
         style="fill:#000000;fill-opacity:1;fill-rule:nonzero;stroke:none"
         d="m 453.063,428.766 c -0.848,-0.852 -8.219,10.199 -6.239,30.609 0.289,9.93 2.559,21.828 4.539,35.148 1.981,6.813 1.418,13.61 5.391,21.551 2.828,6.801 5.949,14.168 7.93,21.821 l 5.097,-1.411 c -7.367,-21.55 -8.218,-48.48 -4.808,-74.839 4.25,-23.532 9.351,-46.2 9.351,-67.75 l -5.672,-0.282 c -3.398,72 10.211,121.61 10.77,121.321 1.992,-0.282 -9.348,-50.168 -5.098,-120.75 l -5.953,-0.289 c 0,20.699 -5.109,42.808 -9.359,66.621 -3.68,27.777 -2.547,54.707 5.672,77.949 l 5.39,-1.699 c -2.269,-8.223 -5.39,-15.871 -8.511,-22.68 -3.399,-5.672 -3.68,-14.172 -5.379,-20.41 -2.84,-13.321 -5.102,-24.942 -5.95,-34.582 -2.839,-19.84 3.11,-30.051 2.829,-30.328" /><path
         id="path138"
         style="fill:#520000;fill-opacity:1;fill-rule:nonzero;stroke:none"
         d="m 1403.8,1310.91 c -1.69,1.13 13.61,21.82 21.54,51.87 7.37,30.04 7.09,55.85 9.07,55.85 1.42,0 4.54,-26.08 -3.39,-57.26 -7.94,-31.75 -26.37,-51.59 -27.22,-50.46" /><path
         id="path140"
         style="fill:#000000;fill-opacity:1;fill-rule:nonzero;stroke:none"
         d="m 569.852,1277.18 c -0.282,-1.14 -30.61,12.46 -53.86,45.63 -22.961,34.01 -17.859,68.89 -17.012,68.03 2.27,0.57 0.29,-32.88 22.11,-64.63 21.832,-31.47 50.18,-47.33 48.762,-49.03" /><path
         id="path142"
         style="fill:#390000;fill-opacity:1;fill-rule:nonzero;stroke:none"
         d="m 684.371,1361.08 c 0.281,0 0,-1.13 -1.129,-0.85 -1.699,0.28 -2.84,1.13 -4.543,2.55 -3.117,2.84 -7.09,7.94 -11.617,13.32 l -0.281,0.29 c -3.969,5.1 -8.231,10.77 -12.481,17.57 l -6.8,10.77 c -2.27,2.84 -5.387,6.52 -8.5,9.92 -6.52,6.81 -13.61,14.46 -19.559,23.82 -3.121,4.53 -5.668,9.63 -7.09,15.59 -0.281,1.7 -0.57,2.83 -0.851,4.82 l 0,7.08 0.851,7.66 c 1.422,-0.29 3.692,-3.12 5.391,-4.54 7.078,-7.65 7.371,-10.2 9.629,-15.02 l 5.109,-12.48 c 3.402,-8.22 6.52,-16.15 8.781,-24.09 3.692,-15.59 9.918,-29.2 12.481,-41.39 6.519,-24.09 4.808,-39.68 3.961,-39.68 -1.133,0 -0.852,15.31 -8.223,38.55 -3.109,11.91 -9.629,24.94 -13.598,40.82 -2.269,7.65 -5.39,15.59 -9.07,23.53 l -5.109,12.47 c -1.133,3.4 -5.102,9.64 -3.961,7.94 0.281,-0.85 -0.852,2.83 0.558,-4.26 1.141,-4.82 3.403,-9.63 6.243,-13.89 5.378,-8.78 12.187,-16.15 18.417,-23.24 3.122,-3.69 5.961,-7.09 9.071,-11.06 l 6.242,-10.77 c 3.969,-7.08 7.937,-13.04 11.059,-17.86 0,0 0.281,-0.28 0,0 9.07,-12.75 14.449,-19.84 15.019,-17.57" /><path
         id="path144"
         style="fill:#520000;fill-opacity:1;fill-rule:nonzero;stroke:none"
         d="m 1295.24,1378.65 c -0.57,-0.27 -1.42,16.44 6.8,41.39 3.97,12.18 9.07,26.92 16.16,42.8 3.69,7.65 7.65,15.87 12.76,23.81 2.55,4.25 5.1,8.23 8.78,11.91 1.99,1.71 4.54,4.53 9.36,3.68 4.53,-1.7 5.67,-6.24 5.67,-9.06 -3.12,-21.55 -15.31,-37.43 -27.78,-49.62 -12.47,-12.18 -24.38,-21.54 -34.02,-30.33 -19.27,-17.57 -35.15,-23.52 -35.15,-22.67 -0.56,0.85 13.89,7.65 32.32,25.8 9.07,9.07 20.97,19.27 32.88,31.18 5.67,5.94 11.62,12.46 16.16,20.41 4.25,7.64 8.78,16.73 9.35,25.23 0.57,8.5 -8.5,-2.55 -12.47,-9.64 -4.82,-7.66 -8.79,-15.59 -12.76,-23.25 -7.37,-15.31 -12.47,-29.77 -17,-41.66 -9.08,-24.11 -9.93,-40.25 -11.06,-39.98" /><path
         id="path146"
         style="fill:#000000;fill-opacity:1;fill-rule:nonzero;stroke:none"
         d="m 883.363,1439.03 c 0,-0.57 -5.672,1.42 -10.199,9.35 -4.543,7.66 -8.793,20.13 -13.332,35.15 l -6.801,24.95 c -2.547,8.5 -5.949,18.42 -7.937,28.35 -2.551,10.2 -4.531,20.97 -5.949,32.59 -0.571,5.67 -1.133,11.63 -1.133,17.58 0,2.83 0.281,5.95 0.562,9.07 0.289,2.27 1.989,10.49 3.688,13.32 l 2.832,5.96 1.699,3.11 c 0.289,0.85 0.57,0.85 0.57,0 l 0.282,-1.7 2.839,-13.04 1.129,-11.62 0.289,-8.5 c 0,-11.63 -0.289,-22.68 -1.418,-32.88 -1.992,-20.98 -5.101,-39.41 -7.371,-55 -4.539,-31.18 -5.101,-50.45 -5.949,-50.74 -0.859,0 -1.992,19.85 1.699,51.31 1.7,15.59 4.25,34.02 5.95,54.71 0.851,10.49 1.128,21.26 1.128,32.31 l -0.558,8.51 -0.289,5.67 -0.281,0 0,-1.99 c -0.571,-2.83 -0.571,-5.67 -0.571,-8.5 0,-5.67 0.289,-11.34 0.852,-17.01 1.14,-11.05 3.121,-21.83 5.39,-31.75 1.981,-10.49 5.098,-19.27 7.649,-28.63 l 5.949,-24.94 c 3.691,-15.31 7.371,-27.21 11.34,-35.15 3.402,-7.94 7.941,-10.21 7.941,-10.49" /><path
         id="path148"
         style="fill:#390000;fill-opacity:1;fill-rule:nonzero;stroke:none"
         d="m 1061.38,1432.8 c -0.28,0 -2.27,5.95 -8.22,17 -2.84,6.24 -2.27,14.18 -2.55,22.68 l -0.57,29.48 c -0.28,10.77 -1.42,22.68 -1.42,35.72 -0.28,6.52 0,13.03 0.85,20.12 0.29,3.41 0.85,7.09 1.71,10.5 0.85,3.68 1.41,6.8 5.1,12.75 1.7,2.27 3.4,4.82 5.38,7.09 l 1.42,1.7 c 0.57,0.28 0.28,-1.13 0.57,-1.7 l 0.28,-4.25 c 0.28,-3.12 0.85,-5.68 0.85,-9.36 l 0,-6.23 c -0.28,-7.94 -0.85,-15.59 -1.98,-23.53 -2.27,-15.88 -5.96,-32.04 -12.19,-47.63 -7.66,-19.84 -18.71,-37.69 -33.17,-51.02 l 0.29,0 c -1.99,-1.7 -3.69,-3.68 -6.52,-4.82 -2.55,-1.7 -7.37,-1.13 -9.36,1.14 -4.534,4.52 -5.1,9.07 -6.522,13.6 -1.98,9.08 -2.828,17.58 -3.398,25.8 -1.133,16.71 -0.571,32.3 -0.282,46.2 l 4.532,0 c 0,-12.47 -0.563,-24.37 -2.832,-34.58 -3.399,-10.2 -7.649,-17.57 -10.211,-24.39 -5.668,-13.03 -7.078,-20.96 -7.649,-20.96 -0.281,0 0.282,8.21 5.391,22.1 1.98,6.52 6.23,15.02 8.777,24.09 1.992,9.65 2.274,21.27 1.992,33.74 l 4.532,0 c 0,-13.9 0,-29.19 1.136,-45.63 0.852,-8.22 1.704,-16.73 3.684,-24.95 0.85,-3.98 2.27,-8.5 4.54,-10.5 1.7,-1.98 4.53,0 7.65,3.13 l 0,0.28 0.28,0 c 13.61,12.76 24.1,30.05 31.19,49.04 6.23,15.03 9.92,30.89 12.18,46.21 1.14,7.65 1.71,15.31 1.99,22.68 l 0,5.38 c 0.28,0.28 0,0.28 0,0 0.28,0.85 -1.7,-3.4 -2.27,-6.52 -0.85,-3.4 -1.42,-6.8 -1.98,-9.93 -0.57,-6.79 -0.85,-13.31 -0.85,-19.55 l 0.85,-35.72 -0.57,-29.48 c 0,-8.78 -0.85,-16.44 1.13,-21.82 5.39,-10.77 6.81,-17.86 6.24,-17.86" /><path
         id="path150"
         style="fill:#000000;fill-opacity:1;fill-rule:nonzero;stroke:none"
         d="m 1011.77,609.613 c 0,-0.277 -4.82,-4.25 -6.8,-15.308 -1.42,-5.102 -2.27,-11.899 -2.27,-19.84 l 0,-5.949 c 0,-0.571 0.28,-2.27 -0.28,-3.692 l -0.85,-3.121 c -1.14,-4.25 -1.707,-8.777 -2.269,-13.887 -1.141,-9.632 -1.699,-20.402 -2.27,-32.312 -1.129,-11.91 -2.828,-23.809 -2.551,-36.848 0,-13.043 1.422,-26.929 0.571,-41.39 -0.289,-7.082 -0.571,-14.45 -0.289,-21.539 0,-3.68 0.57,-7.09 1.422,-10.493 0,-0.847 0.277,-1.98 0.57,-2.55 0,-0.278 0,0 0,0 l 0.559,2.55 c 0.57,3.692 0.847,7.09 1.14,10.77 0.848,7.09 0.559,14.461 0.559,21.551 -0.282,6.8 -0.282,14.742 0.289,20.968 0,6.813 -0.848,13.332 -1.699,19.852 -1.989,12.75 -3.692,25.789 -3.969,37.41 -0.57,11.34 -1.992,22.11 -2.84,32.32 -1.133,9.641 -0.852,18.989 -1.699,26.641 -1.133,7.66 -3.121,13.891 -5.672,18.707 -5.102,9.641 -12.192,11.344 -11.621,11.91 -0.278,0 7.371,-0.566 13.609,-10.769 3.121,-4.821 5.672,-11.34 7.082,-19.278 1.418,-8.222 1.141,-17.011 2.559,-26.929 1.133,-9.641 3.109,-20.692 3.679,-32.313 0.571,-11.91 2.27,-23.808 4.54,-36.847 1.13,-6.524 1.7,-13.614 1.7,-20.704 -0.29,-7.078 -0.29,-13.32 0,-20.968 0.28,-7.09 0.28,-14.461 -0.29,-22.11 -0.28,-3.691 -0.85,-7.371 -1.41,-11.34 l -0.57,-2.839 c -0.57,-1.7 -0.85,-3.68 -1.42,-5.102 -1.13,-2.551 -2.268,-6.519 -3.397,-8.219 -1.981,2.551 -3.68,5.391 -5.102,7.942 -0.847,1.41 -1.418,3.398 -1.988,5.097 -0.281,0.852 -0.563,1.7 -0.852,2.832 -0.847,3.969 -1.128,7.661 -1.41,11.629 -0.289,7.371 0,14.739 0.282,22.11 1.128,14.172 0,27.492 0,41.101 -0.282,13.039 1.98,26.078 3.121,37.418 0.847,11.621 1.41,22.391 3.117,32.313 0.562,5.097 1.41,9.918 2.832,14.168 l 0.847,3.41 c 0.282,0.558 0,1.129 0.282,2.551 l 0.289,6.23 c 0.562,7.938 1.699,14.738 3.119,20.41 2.83,11.059 9.07,15.028 9.35,14.457" /><path
         id="path152"
         style="fill:#000000;fill-opacity:1;fill-rule:nonzero;stroke:none"
         d="m 874.008,624.355 c -1.418,0.848 -5.102,-10.199 -8.789,-30.05 -1.41,-10.2 -5.102,-21.258 -5.379,-34.008 0,-6.524 -0.293,-13.332 0.848,-20.41 0.281,-3.403 1.128,-6.813 1.98,-10.211 0.852,-2.551 0.57,-1.129 0.57,-1.41 l 0,0.558 0.571,8.512 c 0.281,7.078 -0.289,13.891 -0.571,20.41 -0.851,13.039 -2.55,24.66 -3.691,34.578 -2.828,19.84 -4.82,32.031 -3.969,32.031 0.86,0.282 4.262,-11.621 8.231,-31.179 1.98,-9.922 3.961,-21.832 5.097,-35.153 0.563,-6.519 1.133,-13.609 0.852,-20.687 l -0.289,-5.672 0,-2.84 -0.563,-4.82 c -0.566,-3.399 -0.847,-6.52 -1.418,-9.918 l -1.129,-4.82 c -0.293,-0.282 0,-2.832 -0.57,-1.411 l -1.133,2.258 c -3.117,5.672 -6.519,13.891 -7.656,17.864 -1.133,3.968 -1.98,7.66 -2.273,11.339 -1.129,7.368 -0.848,14.457 -0.559,21.258 0.559,13.61 4.82,24.949 6.801,34.582 2.551,9.641 4.82,17.578 7.09,22.957 1.98,5.391 5.949,7.371 5.949,6.242" /><path
         id="path154"
         style="fill:#000000;fill-opacity:1;fill-rule:nonzero;stroke:none"
         d="m 1239.68,661.203 c 0,-0.277 -0.85,0.281 -1.98,-0.277 -0.85,-0.852 -1.42,-2.84 -1.99,-5.672 -0.28,-2.84 -0.57,-6.238 -0.28,-10.207 0,-5.102 -1.42,-8.781 -1.99,-14.172 -0.56,-5.102 -1.13,-11.059 -2.26,-17.289 -0.85,-6.242 -4.26,-12.473 -5.96,-18.992 -3.68,-12.481 -8.5,-28.629 -1.98,-41.11 l 0.85,-1.41 c 0,0.281 0,-0.57 0.57,1.699 1.13,2.832 1.7,6.801 1.7,10.204 0.28,7.367 0,14.457 -0.57,21.257 l -3.12,36.571 c -1.13,20.968 -5.1,33.16 -4.53,33.449 0.85,0.281 6.52,-11.91 8.78,-32.879 1.42,-10.211 3.41,-22.68 4.54,-36.57 0.57,-6.801 1.13,-14.168 0.85,-22.11 0,-3.691 -0.28,-7.941 -1.7,-12.191 -0.28,-1.418 -3.12,-5.391 -5.67,-7.649 -2.55,1.411 -6.24,5.098 -6.8,6.52 -4.82,7.93 -4.54,17 -3.69,24.66 1.14,7.649 3.12,14.738 5.39,21.539 1.98,6.801 5.38,12.192 6.23,18.141 1.42,5.949 2.27,11.621 3.12,16.73 0.57,5.102 2.55,10.2 2.84,13.602 0.28,4.25 0.56,7.937 1.41,10.769 0.85,2.84 1.99,5.387 3.69,6.239 2.27,0.57 2.83,-0.852 2.55,-0.852" /><path
         id="path156"
         style="fill:#000000;fill-opacity:1;fill-rule:nonzero;stroke:none"
         d="m 508.34,1171.44 c -0.57,-0.57 -4.539,0.57 -11.34,2.27 -6.52,1.98 -16.723,4.25 -25.789,12.19 -7.371,6.52 -16.16,13.6 -18.711,20.69 -1.422,3.68 -1.992,6.24 -2.551,8.22 0,0.57 -0.851,0.28 0.281,1.42 1.129,-0.57 0,-0.57 0.278,-0.85 -0.278,-0.57 -0.559,-0.85 -0.559,-0.85 -0.289,0 -0.57,0.28 -0.57,0.85 0,0.56 -0.852,0.28 0.57,1.7 2.262,-0.29 1.41,-0.85 1.981,-1.14 1.418,-1.7 2.55,-4.53 4.25,-7.08 3.398,-5.96 10.769,-11.06 19.281,-18.71 7.367,-6.24 16.437,-9.36 22.957,-12.19 6.52,-2.83 10.199,-5.67 9.922,-6.52" /><path
         id="path158"
         style="fill:#bababa;fill-opacity:1;fill-rule:nonzero;stroke:none"
         d="M 672.465,1170.31 C 520.523,940.137 639.586,762.969 815.336,668.855 c 32.027,-27.488 81.07,6.243 49.039,33.731 -135.219,116.512 -263.629,251.441 -130.398,447.314 33.168,48.76 -34.582,60.38 -61.512,20.41" /><path
         id="path160"
         style="fill:#bababa;fill-opacity:1;fill-rule:nonzero;stroke:none"
         d="m 766.293,1206.88 c 1.418,3.39 2.828,6.51 3.969,9.64 -8.508,-4.55 -17.008,-9.07 -25.508,-13.62 3.109,-3.4 6.226,-7.08 9.348,-10.49 8.218,-9.35 23.531,6.24 25.511,13.61 -1.703,-6.52 -3.402,-3.97 3.688,-0.57 5.101,2.55 10.492,3.98 15.871,5.39 11.058,3.4 24.379,7.95 35.43,1.98 13.609,-7.64 33.171,21.83 17.011,30.63 -17.011,9.34 -39.972,1.69 -56.972,-3.98 -17.297,-5.38 -37.989,-14.17 -43.09,-33.17 8.5,4.54 17.012,9.08 25.512,13.61 -3.122,3.4 -6.231,6.8 -9.352,10.49 -8.789,9.64 -22.68,-6.81 -25.508,-13.61 -1.422,-3.4 -2.562,-6.52 -3.973,-9.91 -2.839,-6.81 0.563,-15.88 9.071,-15.88 9.07,0 15.871,7.93 18.992,15.88" /><path
         id="path162"
         style="fill:#bababa;fill-opacity:1;fill-rule:nonzero;stroke:none"
         d="m 840.559,662.055 c 42.8,-26.93 90.711,-46.489 139.461,-41.098 137.77,15.02 284.6,146.828 353.2,244.34 31.18,44.219 -15.87,85.328 -47.9,39.969 -69.17,-98.36 -262.78,-253.411 -387.222,-175.18 -36,22.398 -92.118,-46.199 -57.539,-68.031" /><path
         id="path164"
         style="fill:#ffffff;fill-opacity:1;fill-rule:nonzero;stroke:none"
         d="m 946.008,704.008 c 24.941,0 44.789,9.07 61.802,28.058 15.3,16.731 22.39,59.813 -11.341,59.813 l -1.992,0 c -22.11,0 -41.668,-19.84 -47.899,-39.68 -5.672,-17.582 0.559,-39.972 22.391,-39.972 l 2.269,0 c -3.968,20.132 -7.66,39.972 -11.34,60.089 18.711,9.641 23.532,13.043 13.891,10.493 7.938,1.988 -0.851,0.57 -2.551,0.57 -21.832,0 -41.39,-19.563 -47.91,-39.68 -5.672,-17.582 0.852,-39.972 22.68,-39.691" /><path
         id="path166"
         style="fill:#ffffff;fill-opacity:1;fill-rule:nonzero;stroke:none"
         d="m 703.078,861.613 c 3.973,-3.117 4.82,-10.488 11.051,-11.617 9.078,-1.699 16.73,0.559 22.68,7.649 5.39,6.242 7.66,15.308 2.839,22.679 -2.55,3.403 -8.507,8.223 -9.359,10.492 -2.832,6.231 -11.34,5.098 -16.16,2.547 -7.93,-3.968 -13.32,-12.468 -12.469,-21.547 0.848,-7.371 3.688,-13.882 9.641,-18.421 13.609,-10.211 36.277,17.289 22.957,27.21 -2.551,1.989 -2.551,3.692 -2.828,6.809 -9.641,-6.238 -19,-12.48 -28.629,-19 1.129,-2.551 3.679,-4.82 5.949,-6.801 4.527,-4.816 3.117,-6.797 3.68,0 2.84,5.102 5.668,10.492 8.508,15.59 10.203,8.223 14.742,-2.547 9.921,6.242 -1.129,2.258 -2.839,4.25 -4.82,5.668 -13.32,10.481 -36.281,-17.008 -22.961,-27.5" /><path
         id="path168"
         style="fill:#ffffff;fill-opacity:1;fill-rule:nonzero;stroke:none"
         d="m 771.961,846.023 0,1.7 c 0,22.113 -29.762,8.222 -29.762,-8.219 l 0,-1.418 c 0,-22.113 29.762,-8.223 29.762,7.937" /><path
         id="path170"
         style="fill:#bababa;fill-opacity:1;fill-rule:nonzero;stroke:none"
         d="m 704.496,990.023 c 55.559,-14.738 268.719,-0.847 329.104,15.317 73.99,19.84 201.83,-32.606 287.72,-28.926 11.05,0.57 60.66,-92.691 -76.82,-76.531 -1.13,0.281 -140.31,-11.34 -170.93,-11.34 -77.382,0 -321.734,-7.09 -378.996,34.582 -48.187,35.148 -20.687,74.84 9.922,66.898" /><path
         id="path172"
         style="fill:#fdfdfd;fill-opacity:1;fill-rule:nonzero;stroke:none"
         d="m 717.535,924.828 c 55.563,-6.801 268.723,-0.57 329.105,7.09 73.99,9.07 201.82,-15.031 287.72,-13.332 11.05,0 60.66,-43.078 -76.82,-35.43 -1.13,0 -140.6,-5.39 -170.93,-5.39 -77.38,0 -321.735,-3.11 -378.993,16.16 -48.191,16.16 -20.691,34.582 9.918,30.902" /><path
         id="path174"
         style="fill:#fdfdfd;fill-opacity:1;fill-rule:nonzero;stroke:none"
         d="m 785.852,979.254 c 46.199,-4.82 222.798,-0.281 272.978,5.387 61.51,6.519 167.24,-11.059 238.39,-9.93 9.35,0.293 50.46,-31.457 -63.5,-25.789 -0.85,0 -116.5,-3.969 -141.73,-3.969 -64.34,0 -266.74,-2.551 -314.357,11.617 -39.692,11.91 -17.012,25.512 8.219,22.684" /><path
         id="path176"
         style="fill:#bababa;fill-opacity:1;fill-rule:nonzero;stroke:none"
         d="m 1236.84,1151.03 c 3.4,0.28 7.09,0.57 10.49,0.57 -7.66,5.95 -15.59,11.62 -23.25,17.57 -1.7,-4.25 -3.68,-8.5 -5.38,-12.75 -5.1,-11.63 15.31,-19 22.96,-17.58 -6.8,-1.13 -5.39,1.42 0.85,-3.68 4.53,-3.41 7.94,-7.94 11.62,-11.91 7.94,-8.79 17.58,-18.99 16.44,-31.46 -1.13,-15.59 33.73,-21.26 35.15,-2.84 1.42,19.28 -15.31,37.14 -27.49,50.17 -12.19,13.33 -28.92,28.63 -48.19,25.23 7.65,-5.67 15.3,-11.62 22.96,-17.57 1.98,4.53 3.68,8.79 5.67,13.04 5.38,11.9 -15.59,17.86 -22.96,17.57 -3.69,-0.28 -7.09,-0.56 -10.49,-0.56 -7.66,-0.57 -14.18,-7.37 -10.77,-15.03 3.68,-8.22 13.89,-11.05 22.39,-10.77" /><path
         id="path178"
         style="fill:#bababa;fill-opacity:1;fill-rule:nonzero;stroke:none"
         d="m 777.348,961.109 c 17.007,-2.546 82.488,0 100.91,3.121 22.68,3.68 61.801,-6.238 88.16,-5.667 3.398,0.277 18.711,-17.293 -23.531,-14.172 -0.282,0 -43.078,-2.27 -52.442,-2.27 -23.527,0 -98.359,-1.422 -115.929,6.52 -15.028,6.519 -6.52,14.172 2.832,12.468" /><path
         id="path180"
         style="fill:#bababa;fill-opacity:1;fill-rule:nonzero;stroke:none"
         d="m 1081.5,973.016 c 17.02,-2.551 82.2,0 100.91,3.121 22.68,3.679 61.8,-6.242 88.16,-5.672 3.4,0.281 18.43,-17.289 -23.53,-14.168 -0.27,0 -43.08,-2.27 -52.43,-2.27 -23.82,0 -98.65,-1.422 -116.23,6.52 -14.74,6.519 -6.23,14.168 3.12,12.469" /></g></g></svg>