<?xml version="1.0" encoding="UTF-8" standalone="no"?>
<svg
   xmlns:dc="http://purl.org/dc/elements/1.1/"
   xmlns:cc="http://creativecommons.org/ns#"
   xmlns:rdf="http://www.w3.org/1999/02/22-rdf-syntax-ns#"
   xmlns:svg="http://www.w3.org/2000/svg"
   xmlns="http://www.w3.org/2000/svg"
   viewBox="0 0 248.03751 248.03751"
   height="248.03751"
   width="248.03751"
   xml:space="preserve"
   version="1.1"
   id="svg2"><metadata
     id="metadata8"><rdf:RDF><cc:Work
         rdf:about=""><dc:format>image/svg+xml</dc:format><dc:type
           rdf:resource="http://purl.org/dc/dcmitype/StillImage" /></cc:Work></rdf:RDF></metadata><defs
     id="defs6" /><g
     transform="matrix(1.25,0,0,-1.25,0,248.0375)"
     id="g10"><g
       transform="scale(0.1,0.1)"
       id="g12"><path
         id="path14"
         style="fill:#000000;fill-opacity:1;fill-rule:evenodd;stroke:none"
         d="m 991.574,872.418 0.571,0 c 66.335,17.57 225.355,70.301 323.715,192.472 -1.41,1.99 -2.56,3.69 -3.68,5.67 C 1070.95,939.598 895.195,912.668 624.773,965.957 c -0.57,-2.258 -1.136,-4.527 -1.699,-6.519 131.52,-87.301 299.621,-90.141 368.223,-87.02" /><path
         id="path16"
         style="fill:#000000;fill-opacity:1;fill-rule:evenodd;stroke:none"
         d="m 689.684,126.055 c 0,0 -5.387,-23.528 0,-36.5706 5.39,-13.0391 45.64,-19.5586 153.07,-15.8672 107.43,3.9687 148.82,-1.1328 153.07,32.8788 3.973,34.02 -17.57,86.461 -37.699,96.949 -20.129,10.481 -261.641,-36.57 -268.441,-77.39" /><path
         id="path18"
         style="fill:#000000;fill-opacity:1;fill-rule:evenodd;stroke:none"
         d="m 1019.92,141.93 c 0,0 -24.088,-62.93 10.77,-75.9691 34.87,-13.039 195.88,-3.9726 245.48,-3.9726 49.61,0 68.32,47.0627 75.12,95.5317 6.8,48.468 24.09,98.359 33.45,144.281 9.64,45.929 4.25,115.371 -40.25,115.371 -44.22,0 -278.93,-117.922 -324.57,-275.242" /><path
         id="path20"
         style="fill:#f6d7c4;fill-opacity:1;fill-rule:evenodd;stroke:none"
         d="m 659.355,1888.64 c 16.719,-53.86 26.36,-102.33 24.938,-145.7 -3.398,-127.28 -123.301,-326.27 -49.879,-682.3 73.41,-356.031 135.77,-492.66 103.738,-610.581 -32.308,-117.918 -68.027,-306.141 -51.867,-332.219 16.16,-25.8009 75.117,-15.879 150.238,-15.879 75.11,0 151.93,-7.9337 157.321,23.809 5.379,32.039 -46.489,226.781 -62.649,330.238 -15.871,103.461 -49.89,375.871 -17.859,616.542 28.348,211.46 34.59,576.85 37.988,816.09" /><path
         id="path22"
         style="fill:#000000;fill-opacity:1;fill-rule:nonzero;stroke:none"
         d="m 749.879,94.7383 c -33.223,0 -57.492,3.4414 -67.973,20.2107 -3.226,5.481 -4.84,15.481 -4.84,29.821 0,63.019 29.063,208.351 55.981,306.851 5.82,21.07 8.652,42.988 8.652,67.039 0,63.102 -18.34,138.328 -46.121,252.18 l -1.39,5.711 c -20.25,82.25 -41.95,171.859 -64.942,283.029 -15.859,77.69 -23.898,153.77 -23.898,226.13 0,134.04 26.429,238.32 47.66,322.11 l 0.648,2.55 c 12.621,48.87 24.543,95.01 25.684,132.69 l 0,7.53 c 0,38.23 -8.203,83.01 -25.051,136.91 -0.359,1.16 -0.152,2.43 0.57,3.41 0.719,0.98 1.868,1.56 3.079,1.56 l 2.832,0 c 1.679,0 3.16,-1.09 3.66,-2.7 18.457,-59.44 26.437,-106.14 25.109,-146.95 -1.152,-38.79 -12.621,-83.47 -25.91,-135.19 -31.973,-125.07 -75.742,-296.26 -24.34,-545.94 23.391,-112.741 45.758,-205.069 64.891,-282.749 l 0.707,-2.929 c 38.91,-158.981 60.332,-246.563 38.101,-327.262 -35.109,-129.219 -66.14,-305.969 -52.332,-328.031 8.391,-13.391 33.121,-15.239 58.59,-15.239 11.352,0 23.934,0.418 37.543,0.879 l 49.668,0.852 38.359,-0.281 c 11.711,-0.231 23.243,-0.442 34.274,-0.442 37.777,0 76.808,2.403 79.848,20.211 2.8,17.903 -14.641,97.223 -30.008,167.199 -12.813,57.774 -25.883,117.813 -32.641,161.243 -12.769,81.371 -51.769,366.437 -17.871,618.199 29.23,220.01 34.719,598.26 37.66,801.46 0.039,2.1 1.738,3.78 3.828,3.78 l 2.551,0 c 1.02,0 2,-0.41 2.723,-1.14 0.718,-0.73 1.117,-1.72 1.109,-2.74 -2.973,-204.34 -8.492,-584.69 -37.742,-802.95 -33.559,-250.84 5.172,-534.039 17.84,-614.859 7.031,-45.071 21.191,-109.231 32.562,-160.782 l 0.59,-2.668 c 17.551,-80.152 32.701,-149.351 29.5,-168.57 -4.441,-26.9022 -48.711,-29.1405 -89.859,-29.1405 -10.992,0 -22.582,0.1992 -34.461,0.4179 l -38.262,0.5625 -49.461,-1.1328 c -13.359,-0.4375 -25.808,-0.8398 -37.117,-0.8398" /><path
         id="path24"
         style="fill:#000000;fill-opacity:1;fill-rule:evenodd;stroke:none"
         d="m 657.938,1888.64 c 15.871,-50.74 25.23,-96.66 25.23,-138.05 l 0,-7.65 c -1.141,-37.42 -12.473,-81.92 -25.801,-133.51 -21.262,-83.91 -48.191,-188.79 -48.191,-323.72 0,-67.18 6.812,-142.01 23.82,-225.35 23.813,-115.09 46.481,-208.071 64.91,-282.899 28.34,-116.223 47.621,-194.172 47.621,-258.801 0,-24.101 -2.832,-46.492 -8.789,-68.043 -26.64,-97.508 -55.84,-243.207 -55.84,-305.847 0,-13.332 1.418,-22.961 4.25,-27.782 12.758,-20.4099 50.18,-19.2771 101.77,-17.5778 l 49.598,1.1408 38.269,-0.5705 c 62.082,-1.1407 115.942,-1.9922 120.473,25.5075 3.121,18.711 -13.039,92.129 -30.039,169.801 -12.762,57.82 -25.801,117.352 -32.602,161 -12.762,81.359 -51.308,365.961 -17.859,615.971 28.347,211.47 34.301,567.78 37.699,802.49 l -2.551,0 c -3.398,-234.71 -9.64,-590.74 -37.699,-801.92 -33.73,-250.58 5.102,-535.752 17.859,-617.1 6.801,-43.66 19.84,-103.472 32.59,-161.011 17.012,-77.391 32.891,-150.52 30.051,-168.66 -4.25,-24.95 -59.531,-24.098 -117.922,-22.961 l -38.269,0.281 -49.598,-0.852 c -51.031,-1.699 -87.59,-2.8395 -99.5,16.161 -16.16,25.792 20.687,216.281 51.867,331.082 22.113,80.218 0.293,168.378 -38.828,328.257 -18.43,74.832 -41.102,168.09 -64.91,282.893 -51.59,250.59 -7.66,422.37 24.371,547.66 13.328,51.87 24.668,96.37 25.801,134.36 1.418,43.65 -8.223,91.84 -24.953,145.7" /><path
         id="path26"
         style="fill:#f6d7c4;fill-opacity:1;fill-rule:evenodd;stroke:none"
         d="m 818.094,1888.64 c 2.832,-62.93 6.801,-102.9 12.469,-127.28 0,0 10.773,-171.49 70.023,-319.18 58.957,-147.68 135.484,-301.32 179.704,-467.153 44.23,-165.539 62.93,-393.726 34.87,-524.968 -28.05,-131.25 -79.09,-235.559 -89.86,-265.61 -10.76,-29.761 -22.96,-62.64 -10.76,-83.34 12.18,-20.9684 68.32,-9.0699 96.66,-9.0699 28.07,0 147.39,-9.0703 177.16,-9.0703 29.48,0 61.52,79.0902 60.38,138.8982 -1.42,59.531 -6.81,158.172 3.96,235.563 10.78,77.668 -32.31,117.918 -32.31,158.168 0,40.25 -18.71,170.652 -18.71,450.992 0,280.63 -66.32,437.67 -123.59,533.2 -57.25,95.53 -81.64,128.69 -75.12,219.68 1.14,16.45 6.52,40.26 14.46,69.17" /><path
         id="path28"
         style="fill:#000000;fill-opacity:1;fill-rule:nonzero;stroke:none"
         d="m 1288.36,77.7266 c -14.8,0 -52.32,2.1797 -90.65,4.5429 -37.89,2.3789 -73.02,4.5196 -86.51,4.5196 l -25.99,-1.7813 c -10.66,-0.8203 -21.67,-1.6484 -32,-1.6484 -14.85,0 -35.47,1.5469 -43.14,15 -12.98,22.6486 -0.76,57.0466 10.02,87.3866 l 12.23,30 c 19.53,46.41 55.88,132.801 77.69,235.383 26.79,124.109 11.82,348.777 -34.81,522.629 -31.4,117.932 -79.47,229.902 -125.962,338.192 l -53.597,127.9 c -58.192,145.76 -70.032,319.49 -70.032,320.95 -5.648,22.97 -9.5,61.41 -12.761,127.66 -0.047,1.04 0.332,2.06 1.05,2.82 0.723,0.76 1.731,1.19 2.782,1.19 l 2.55,0 c 2.04,0 3.719,-1.6 3.821,-3.64 3.129,-63.35 7.027,-102.39 12.66,-126.6 0.066,-0.34 0.129,-1.02 0.227,-2.24 3.339,-41.85 18.23,-188.31 69.332,-315.81 l 54.46,-129.91 c 46.25,-108.01 94.08,-219.71 125.41,-337.68 46.83,-175.184 61.96,-402 35.18,-527.621 -22.11,-102.992 -58.5,-190.031 -78.05,-236.801 l -0.95,-2.262 c -4.18,-10.136 -11.01,-26.789 -11.5,-28.258 -9.7,-26.531 -21.69,-59.261 -10.83,-78.058 3.71,-6.4416 14.81,-9.5627 33.94,-9.5627 10.64,0 22.37,0.9805 32.72,1.8321 l 25.34,1.4179 0.06,0 c 15.17,0 54.51,-2.2695 87.12,-4.2578 37.51,-2.2812 75.39,-4.5234 90.19,-4.5234 5.42,0 11.31,3.6523 17.51,10.8633 21.59,24.6286 38.47,79.5466 37.63,122.4296 l -0.96,34.051 c -1.67,58.226 -3.97,137.969 4.96,202.398 6.33,45.95 -6.55,77.969 -17.91,106.211 l 1.96,1.899 c -0.08,0.242 -0.17,0.429 -0.17,0.429 0,0.02 -0.01,0.032 -0.02,0.051 l -2.35,-0.969 c -7.44,18.039 -13.86,33.618 -13.86,49.739 l -3.39,54.468 c -5.35,66.973 -15.32,191.731 -15.32,396.524 0,219.32 -40.16,392.81 -122.76,530.38 l -11.06,18.73 c -50.36,83.26 -71.21,117.73 -64.59,204.07 1.1,16 5.78,38.87 14.29,69.89 0.46,1.66 1.98,2.81 3.7,2.81 l 2.83,0 c 1.19,0 2.31,-0.56 3.05,-1.51 0.72,-0.94 0.95,-2.18 0.64,-3.33 -8.76,-31.94 -13.31,-53.68 -14.33,-68.42 -6.15,-83.3 14.16,-116.84 63.24,-197.88 l 11.07,-18.74 c 83.71,-139.52 124.41,-314.85 124.41,-536 0,-203.973 9.95,-328.684 15.3,-395.703 l 3.4,-55.047 c 0.01,-14.371 5.95,-29.121 12.85,-46.192 l -2.07,-1.66 c 0.05,-0.109 0.09,-0.242 0.13,-0.34 l 2.36,0.961 c 11.42,-27.992 25.63,-62.812 18.73,-111.722 -8.78,-65.481 -6.47,-145.707 -4.78,-204.297 l 0.85,-30.613 c 1.15,-45.2 -16.82,-103.481 -40.08,-129.9106 -8.55,-9.5273 -17.05,-14.3398 -25.26,-14.3398" /><path
         id="path30"
         style="fill:#000000;fill-opacity:1;fill-rule:evenodd;stroke:none"
         d="m 816.676,1888.64 c 3.121,-63.5 6.801,-103.18 12.762,-127.84 0,-1.42 11.328,-173.2 69.73,-319.47 l 53.57,-127.84 c 46.489,-108.28 94.682,-220.54 126.142,-338.74 46.78,-174.332 61.8,-399.68 34.87,-524.41 -22.11,-104.031 -58.96,-191.051 -78.52,-237.539 l -11.34,-27.781 c -10.77,-30.332 -22.67,-63.5 -10.49,-84.762 9.36,-16.4377 43.09,-13.5978 72.85,-11.34 l 24.95,1.6992 c 13.89,0 50.74,-2.2578 86.74,-4.5274 36.85,-2.2695 75.4,-4.539 90.43,-4.539 7.08,0 14.74,4.539 22.39,13.039 22.68,25.8012 40.25,83.0582 39.12,127.2772 l -0.85,30.613 c -1.7,58.958 -3.97,139.469 4.82,204.95 6.8,48.187 -7.37,82.488 -18.71,110.269 -7.09,17.571 -13.33,32.879 -13.33,47.899 l -3.4,54.992 c -5.38,67.469 -15.3,192.758 -15.3,396 0,220.54 -40.54,395.15 -123.88,534.05 l -11.05,18.71 c -49.61,81.92 -70.02,115.65 -63.78,200.12 1.13,16.45 6.52,40.26 14.45,69.17 l -2.83,0 c -7.94,-28.91 -13.04,-52.72 -14.17,-69.17 -6.52,-85.03 14.17,-119.33 64.06,-201.82 l 11.05,-18.71 c 83.06,-138.33 123.31,-312.38 123.31,-532.35 0,-203.242 9.92,-328.82 15.31,-396.281 l 3.4,-54.711 c 0,-15.59 6.52,-31.18 13.89,-49.039 11.62,-28.911 24.94,-61.508 18.42,-108.848 -9.07,-65.481 -6.52,-146.273 -4.81,-205.512 l 0.85,-30.332 c 0.85,-43.656 -16.45,-99.777 -38.56,-125.0076 -7.08,-8.2188 -13.89,-12.1914 -20.4,-12.1914 -15.03,0 -53.3,2.2695 -90.43,4.5429 -37.42,2.2579 -72.85,4.25 -86.74,4.25 l -25.23,-1.4218 c -27.49,-2.2696 -61.79,-5.1016 -70.3,9.6409 -11.62,20.129 0,52.437 10.49,81.07 0.28,1.129 11.62,28.629 11.62,28.629 19.56,46.769 56.41,134.082 78.81,238.391 26.64,125.007 11.62,350.929 -35.15,525.828 -31.47,118.492 -79.66,230.742 -126.155,339.312 l -53.566,127.84 c -58.391,145.7 -69.453,316.91 -69.731,318.61 -5.672,24.38 -9.64,64.07 -12.761,127.28" /><path
         id="path32"
         style="fill:#000000;fill-opacity:1;fill-rule:evenodd;stroke:none"
         d="m 1166.19,232.922 c 24.94,-3.969 61.8,-20.129 59.81,-36.57 -1.98,-16.442 -8.22,-25.508 -9.35,-34.008 -0.85,-8.793 1.98,-31.184 -26.08,-30.621 -27.78,0.289 -75.69,7.371 -77.67,26.929 -2.27,19.559 4.25,31.18 4.25,31.18 0,0 -6.52,51.879 49.04,43.09" /><path
         id="path34"
         style="fill:#000000;fill-opacity:1;fill-rule:evenodd;stroke:none"
         d="m 823.195,252.48 c -25.226,-1.128 -63.5,-13.32 -63.5,-29.757 0,-16.731 5.114,-26.371 5.114,-34.871 0,-8.789 -5.114,-30.61 22.386,-33.172 27.782,-2.828 76.25,-1.129 80.5,18.152 4.543,19.27 -0.847,31.457 -0.847,31.457 0,0 12.48,50.742 -43.653,48.191" /><path
         id="path36"
         style="fill:#000000;fill-opacity:1;fill-rule:evenodd;stroke:none"
         d="m 793.148,169.426 c -17.007,-3.399 -67.457,-38.551 -110.546,-48.192 -42.801,-9.347 -81.364,-6.796 -81.364,20.981 0,28.062 2.563,51.59 -3.679,70.859 -6.239,19.281 9.07,65.481 58.113,70.871 49.316,5.102 92.406,-33.168 113.668,-49.039 21.539,-15.59 36.851,-62.929 23.808,-65.48" /><path
         id="path38"
         style="fill:#000000;fill-opacity:1;fill-rule:evenodd;stroke:none"
         d="m 858.914,229.805 c 0,0 64.348,34.019 100.91,34.019 36.848,0 58.396,-15.879 60.096,-36.851 1.7,-20.981 -18.71,-48.758 -17.86,-68.039 0.85,-19.27 -25.228,-54.141 -57.255,-45.348 -32.321,8.5 -77.102,39.969 -91.282,46.199 -14.449,6.238 -17.851,53.301 5.391,70.02" /><path
         id="path40"
         style="fill:#5b5b5b;fill-opacity:1;fill-rule:evenodd;stroke:none"
         d="m 820.645,245.68 c -17.86,-0.571 -45.071,-9.071 -45.071,-20.981 0,-11.621 3.973,-18.422 3.973,-24.66 0,-6.23 -3.973,-21.543 15.867,-23.531 19.563,-1.699 53.582,-0.559 56.691,13.039 3.411,13.609 -0.558,22.402 -0.558,22.402 0,0 8.789,35.707 -30.902,33.731" /><path
         id="path42"
         style="fill:#5b5b5b;fill-opacity:1;fill-rule:evenodd;stroke:none"
         d="m 883.859,232.355 c 0,0 41.95,22.11 66.047,22.11 24.09,0 37.981,-10.199 39.121,-24.09 1.129,-13.609 -12.187,-31.75 -11.629,-44.512 0.571,-12.468 -16.441,-35.148 -37.41,-29.476 -20.98,5.668 -50.179,26.078 -59.531,30.328 -9.359,3.969 -11.617,34.59 3.402,45.64" /><path
         id="path44"
         style="fill:#5b5b5b;fill-opacity:1;fill-rule:evenodd;stroke:none"
         d="m 750.348,197.488 c -11.621,-2.269 -45.922,-26.078 -75.121,-32.597 -29.2,-6.524 -55.559,-4.821 -55.559,14.168 0,19.281 1.988,35.152 -2.262,48.191 -4.258,13.039 5.949,44.789 39.403,48.188 33.726,3.691 62.929,-22.668 77.379,-33.161 14.738,-10.769 24.949,-42.808 16.16,-44.789" /><path
         id="path46"
         style="fill:#000000;fill-opacity:1;fill-rule:evenodd;stroke:none"
         d="m 855.512,194.086 c -0.571,-0.277 -0.852,-1.129 -0.571,-1.699 0.289,-0.571 1.141,-0.852 1.7,-0.571 0.57,0.289 46.492,22.11 81.363,7.09 0.566,-0.57 1.418,0 1.699,0.571 0.277,0.558 0,1.41 -0.57,1.699 -36,15.871 -83.051,-6.809 -83.621,-7.09" /><path
         id="path48"
         style="fill:#000000;fill-opacity:1;fill-rule:evenodd;stroke:none"
         d="m 820.363,213.363 c -0.851,0 -1.422,-0.57 -1.422,-1.422 0.289,-0.558 0.852,-1.128 1.7,-1.128 32.031,3.402 45.363,-7.372 45.363,-7.372 0.559,-0.57 1.418,-0.57 1.976,0 0.571,0.571 0.293,1.422 -0.277,1.981 -0.57,0.293 -14.172,11.621 -47.34,7.941" /><path
         id="path50"
         style="fill:#000000;fill-opacity:1;fill-rule:evenodd;stroke:none"
         d="m 709.813,232.355 c -22.391,-0.57 -30.614,-10.492 -33.172,-16.16 -3.68,-7.929 -1.981,-16.718 1.422,-20.691 0.57,-0.57 1.417,-0.848 1.988,-0.277 0.558,0.558 0.558,1.41 0,1.976 -2.84,3.402 -4.258,11.063 -1.141,17.863 4.25,9.071 15.313,14.457 30.903,14.739 36,0.57 68.597,-26.93 68.878,-27.211 0.571,-0.571 1.418,-0.571 1.989,0 0.562,0.562 0.562,1.41 0,1.98 -0.289,0.281 -33.739,28.352 -70.867,27.781" /><path
         id="path52"
         style="fill:#fdfdfd;fill-opacity:1;fill-rule:evenodd;stroke:none"
         d="m 1312.17,1070.56 c 0.85,-1.13 1.98,-2.83 3.97,-5.39 -1.7,-3.68 -3.97,-5.67 -6.8,-9.35 -5.39,-7.09 -13.04,-15.87 -22.4,-26.08 -19.27,-19.84 -46.2,-43.939 -78.8,-66.049 -64.92,-44.781 -149.67,-79.929 -217.136,-96.66 -68.031,-3.121 -158.449,5.098 -233,28.348 -37.141,11.051 -70.02,25.512 -94.402,38.832 -12.469,6.519 -22.387,12.758 -30.329,17.859 -3.679,2.551 -7.082,4.821 -9.64,6.52 -1.41,3.121 1.14,5.672 1.14,7.371 0,-1.422 -1.699,-5.102 -0.851,-6.801 2.551,-1.422 5.949,-3.398 9.922,-5.949 7.937,-4.539 18.14,-10.211 30.609,-16.16 24.66,-12.192 57.551,-25.512 94.68,-35.43 73.98,-20.98 163.84,-27.223 231.019,-24.101 63.778,16.16 149.958,50.171 214.298,92.691 32.6,20.98 60.1,43.659 79.66,62.649 9.63,9.35 17.86,17.86 23.81,24.38 2.83,3.12 5.38,5.95 7.37,7.93 -1.42,1.14 -2.55,4.54 -3.12,5.39" /><path
         id="path54"
         style="fill:#000000;fill-opacity:1;fill-rule:evenodd;stroke:none"
         d="m 1053.94,483.504 c -2.83,0.281 -18.14,-6.238 -41.39,-5.391 -5.67,-0.558 -13.894,7.09 -14.452,14.742 -2.551,7.09 -5.672,14.739 -8.789,22.399 -6.524,15.59 -14.172,32.312 -22.961,49.601 -32.032,70.872 -92.981,136.071 -142.871,175.469 -49.321,40.531 -120.75,81.352 -183.399,108 -7.652,3.403 -15.312,6.52 -22.68,9.922 l -11.05,4.539 c -2.27,1.981 -2.551,-1.711 -6.243,5.379 l 1.141,6.242 c 3.121,16.16 6.52,30.899 9.633,43.367 6.519,25.231 12.187,42.524 13.887,48.192 -1.129,-5.961 -5.661,-23.531 -11.328,-49.039 -2.84,-12.762 -5.391,-27.5 -8.219,-43.942 l -1.141,-6.238 c -2.269,5.109 2.551,0.289 3.399,0.848 l 11.058,-4.25 c 7.653,-2.828 15.313,-5.668 23.242,-9.071 63.219,-24.66 136.071,-64.339 186.52,-105.449 50.461,-39.679 112.25,-107.711 143.441,-180.277 8.5,-17.582 15.867,-34.582 21.821,-50.461 3.117,-7.93 5.949,-15.59 8.221,-23.242 1.7,-8.789 4.82,-11.059 10.77,-12.469 21.83,-2.27 38.56,2.828 41.39,1.129" /><path
         id="path56"
         style="fill:#fdfdfd;fill-opacity:1;fill-rule:evenodd;stroke:none"
         d="m 1364.9,983.254 c 19.28,8.219 65.48,-89.012 98.65,-126.43 24.37,-27.492 -49.89,-47.902 -99.22,-49.601 -26.93,-0.848 -57.82,-12.192 -50.74,-31.18 7.37,-19.281 22.4,-33.449 -31.18,-45.641 -25.51,-5.949 -78.8,-20.98 -62.08,-40.82 17.29,-20.98 -64.91,-16.719 -111.4,-81.348 -11.34,-15.589 51.59,287.43 255.97,375.02" /><path
         id="path58"
         style="fill:#fdfdfd;fill-opacity:1;fill-rule:evenodd;stroke:none"
         d="m 601.813,867.031 c -20.981,2.27 -34.301,-104.308 -54.43,-149.668 -14.742,-33.453 62.367,-30.902 109.988,-17.859 25.789,7.09 58.961,5.668 58.109,-14.742 -1.128,-20.41 -11.058,-38.27 43.653,-34.008 26.078,1.976 81.637,3.398 72.289,-20.41 -10.211,-25.231 66.891,3.398 131.238,-44.512 15.59,-11.34 -138.609,258.52 -360.847,281.199" /><path
         id="path60"
         style="fill:#000000;fill-opacity:1;fill-rule:evenodd;stroke:none"
         d="M 1312.17,1070.56 C 1040.89,860.23 959.262,843.789 623.633,958.59 c -12.469,-45.352 -15.02,-54.418 -21.82,-91.559 84.75,-32.883 228.191,-93.82 325.421,-228.191 36.559,-50.738 69.438,-131.809 73.976,-149.379 4.25,-17.012 36.28,-7.09 52.44,-5.961 l 0,-0.281 0,0.281 0.28,0 0,-0.281 0,0.281 c 15.88,3.691 49.33,3.691 48.19,21.262 -1.13,18.148 4.82,105.168 23.81,164.41 50.74,156.758 168.38,257.387 238.68,314.078 -17.86,33.17 -26.36,47.91 -52.44,87.31" /><path
         id="path62"
         style="fill:#000000;fill-opacity:1;fill-rule:evenodd;stroke:none"
         d="m 795.699,162.621 c -9.347,-27.5 -0.847,-59.238 -0.566,-59.527 0,-0.852 0.847,-1.129 1.699,-1.129 0.57,0.277 1.141,1.129 0.848,1.699 0,0.277 -8.5,31.457 0.57,58.109 0.281,0.848 0,1.418 -0.848,1.7 -0.57,0.281 -1.422,0 -1.703,-0.852 m 62.934,2.274 c -0.852,0 -1.422,-0.571 -1.133,-1.422 3.109,-30.328 -0.859,-58.961 -0.859,-59.239 0,-0.851 0.57,-1.421 1.14,-1.421 0.852,-0.282 1.418,0.281 1.699,1.128 0,0.293 3.969,29.204 0.571,59.813 0,0.57 -0.571,1.141 -1.418,1.141 m 53.859,0.847 c -5.39,-22.679 -2.84,-62.648 -2.84,-63.211 0,-0.566 0.848,-1.136 1.418,-1.136 0.852,0 1.422,0.57 1.422,1.418 0,0.281 -2.551,39.968 2.547,62.359 0.281,0.851 -0.277,1.422 -0.848,1.699 -0.851,0 -1.699,-0.277 -1.699,-1.129 m 181.978,-2.551 c -24.38,-27.218 -9.64,-70.2965 -9.64,-70.8668 0.29,-0.5703 1.14,-0.8515 1.7,-0.8515 0.86,0.2812 1.14,1.1289 0.86,1.6992 0,0.5703 -14.18,42.2421 9.07,68.3201 0.56,0.563 0.56,1.41 0,1.699 -0.57,0.563 -1.42,0.563 -1.99,0 m 47.06,-10.488 c -19.85,-19.281 -9.36,-56.6913 -9.07,-58.1092 0.28,-0.8516 1.13,-1.1407 1.7,-1.1407 0.85,0.2891 1.13,1.1407 0.85,1.711 0,0.2773 -10.21,37.4099 8.5,55.8399 0.57,0.277 0.57,1.129 0,1.699 -0.57,0.57 -1.42,0.57 -1.98,0 m 54.99,0 c -18.43,-22.68 1.13,-60.1014 1.98,-61.8007 0.29,-0.5585 1.14,-0.8476 1.7,-0.5585 0.57,0.2773 0.85,1.1289 0.57,1.6992 -0.28,0.5586 -19.56,37.699 -2.27,58.961 0.57,0.559 0.57,1.418 0,1.699 -0.56,0.57 -1.41,0.57 -1.98,0 m 60.09,0.281 c -13.32,-24.941 -2.55,-62.9293 -1.98,-64.3395 0.28,-0.8515 0.85,-1.1406 1.7,-0.8515 0.57,0 1.13,0.8515 0.85,1.4101 0,0.5703 -11.05,38.5509 1.98,62.6489 0.29,0.57 0,1.421 -0.56,1.703 -0.57,0.277 -1.42,0.277 -1.99,-0.571 m -521.29,-1.421 c -0.281,-1.129 -7.929,-26.918 0,-47.899 0.289,-0.851 1.141,-1.133 1.7,-0.851 0.851,0.281 1.14,0.851 0.851,1.699 -7.648,20.133 0,45.922 0,46.203 0.289,0.848 0,1.418 -0.851,1.707 -0.559,0.281 -1.411,-0.289 -1.7,-0.859" /><path
         id="path64"
         style="fill:#000000;fill-opacity:1;fill-rule:evenodd;stroke:none"
         d="m 1186.6,147.031 c 16.44,-5.097 62.65,-45.347 104.31,-59.8083 41.67,-14.1719 80.23,-15.5899 83.34,12.1875 3.12,27.7808 3.12,51.3008 11.63,69.7308 8.5,18.429 -1.42,66.05 -49.89,76.82 -48.19,10.492 -95.25,-22.957 -118.49,-36.277 -22.96,-13.332 -43.37,-58.68 -30.9,-62.653" /><path
         id="path66"
         style="fill:#5b5b5b;fill-opacity:1;fill-rule:evenodd;stroke:none"
         d="m 1216.36,167.441 c 11.62,-3.679 43.94,-31.75 72.85,-41.949 29.2,-9.922 56.13,-11.058 58.39,8.5 2.27,19.559 2.27,36 8.22,49.039 5.96,12.762 -1.13,46.211 -34.86,53.582 -33.73,7.367 -66.62,-16.16 -83.06,-25.23 -16.15,-9.36 -30.33,-41.11 -21.54,-43.942" /><path
         id="path68"
         style="fill:#000000;fill-opacity:1;fill-rule:evenodd;stroke:none"
         d="m 1203.04,180.48 c -0.57,-0.281 -0.85,-1.128 -0.28,-1.699 0.28,-0.57 1.13,-0.851 1.7,-0.281 0.56,0.281 36,24.09 71.71,19.551 15.59,-1.981 25.8,-8.5 28.92,-18.141 2.55,-6.801 0.28,-14.449 -3.12,-17.57 -0.57,-0.57 -0.57,-1.418 0,-1.988 0.57,-0.282 1.42,-0.563 1.98,0 3.97,3.687 6.52,12.187 3.69,20.41 -1.99,6.238 -8.79,17.008 -31.18,19.847 -36.57,4.532 -73.14,-19.847 -73.42,-20.129" /><path
         id="path70"
         style="fill:#000000;fill-opacity:1;fill-rule:evenodd;stroke:none"
         d="m 1128.21,214.215 c 0,0 -60.1,40.816 -96.66,44.789 -36.284,3.969 -59.534,-9.359 -63.784,-30.051 -3.969,-20.41 13.039,-50.461 10.199,-69.449 -3.11,-18.992 18.711,-56.691 51.585,-51.59 32.9,5.391 81.09,31.75 95.83,36.277 15.01,4.543 24.08,51.032 2.83,70.024" /><path
         id="path72"
         style="fill:#5b5b5b;fill-opacity:1;fill-rule:evenodd;stroke:none"
         d="m 1106.09,218.75 c 0,0 -43.36,29.48 -69.73,32.309 -26.07,2.839 -42.805,-6.508 -45.915,-21.539 -3.121,-14.743 9.352,-36.571 7.371,-50.172 -2.269,-13.887 13.324,-40.821 37.134,-37.137 23.8,3.687 58.39,22.68 69.16,26.078 10.78,3.121 17.3,36.852 1.98,50.461" /><path
         id="path74"
         style="fill:#000000;fill-opacity:1;fill-rule:evenodd;stroke:none"
         d="m 1045.15,194.652 c -0.57,-0.277 -1.13,-1.129 -0.85,-1.699 0.28,-0.848 1.13,-1.129 1.7,-0.848 36.28,11.34 79.37,-15.589 79.94,-15.882 0.56,-0.278 1.41,-0.278 1.7,0.57 0.57,0.57 0.28,1.422 -0.29,1.699 -0.56,0.293 -44.5,27.781 -82.2,16.16" /><path
         id="path76"
         style="fill:#5b5b5b;fill-opacity:1;fill-rule:evenodd;stroke:none"
         d="m 1167.32,217.332 c 17.01,-2.551 42.52,-13.609 41.39,-25.23 -1.42,-11.34 -5.96,-17.571 -6.52,-23.532 -0.85,-5.949 1.13,-21.539 -18.15,-21.257 -19.27,0.289 -52.44,5.109 -53.85,18.71 -1.7,13.61 3.11,21.547 3.11,21.547 0,0 -4.81,36 34.02,29.762" /><path
         id="path78"
         style="fill:#000000;fill-opacity:1;fill-rule:evenodd;stroke:none"
         d="m 1116.58,190.969 c -0.57,-0.571 -0.85,-1.129 -0.57,-1.981 0.57,-0.57 1.42,-0.57 1.99,-0.289 0.28,0.289 14.74,9.36 46.2,2.551 0.57,0 1.42,0.289 1.42,1.141 0.28,0.558 -0.28,1.41 -0.85,1.41 -32.88,7.09 -47.62,-2.551 -48.19,-2.832" /><path
         id="path80"
         style="fill:#000000;fill-opacity:1;fill-rule:evenodd;stroke:none"
         d="m 1184.05,781.145 c 1.98,-2.832 7.09,-23.813 17.86,-47.622 5.67,-11.621 11.9,-24.66 18.99,-36.289 1.7,-3.402 3.12,-4.531 5.67,-10.203 1.7,-8.789 -3.97,-11.906 -5.95,-13.609 -5.67,-3.969 -10.77,-5.668 -15.59,-7.649 -39.69,-9.351 -93.26,-48.191 -96.1,-57.539 1.7,3.399 12.19,20.969 30.9,35.149 18.14,14.742 43.09,25.789 61.79,32.879 4.54,1.703 9.64,3.679 13.89,6.23 4.54,3.121 2.56,-0.277 -1.7,9.36 -6.8,12.472 -12.75,26.082 -17.85,38.55 -9.64,25.231 -12.48,47.34 -11.91,50.743" /><path
         id="path82"
         style="fill:#000000;fill-opacity:1;fill-rule:evenodd;stroke:none"
         d="m 1220.33,689.582 c -1.13,-0.57 -8.5,9.352 -0.28,17.57 6.52,7.371 17,12.762 28.91,17.582 21.26,11.34 60.38,10.77 65.48,27.778 -6.24,45.351 -50.46,125.011 -50.74,133.23 2.83,-9.359 51.87,-76.539 60.09,-136.07 -4.53,-19.27 -22.39,-19.27 -34.29,-22.957 -13.04,-2.832 -26.37,-5.672 -37.99,-9.352 -25.51,-5.39 -39.4,-22.109 -31.18,-27.781" /><path
         id="path84"
         style="fill:#000000;fill-opacity:1;fill-rule:evenodd;stroke:none"
         d="m 1314.44,783.129 c 0,1.418 -0.85,14.168 11.06,20.129 10.77,5.668 26.07,5.949 42.23,7.93 31.47,4.539 72.57,11.628 92.98,29.48 11.05,6.809 -11.34,22.109 -20.13,39.687 -11.05,16.723 -21.26,34.583 -30.9,50.454 -18.42,32.039 -37.7,57.257 -44.78,52.449 6.8,6.801 29.48,-17.86 49.32,-48.762 10.49,-15.308 21.54,-32.308 32.6,-48.469 5.67,-7.941 11.34,-15.879 17.29,-22.679 7.37,-3.969 12.76,-24.942 3.12,-30.903 -50.74,-44.5 -161.86,-15.297 -152.79,-49.316" /><path
         id="path86"
         style="fill:#000000;fill-opacity:1;fill-rule:evenodd;stroke:none"
         d="m 1388.99,843.223 c -4.82,-6.243 -32.88,21.257 -41.95,41.668 -11.34,19.558 -22.68,54.711 -22.68,58.961 2.55,-3.122 19.56,-34.872 30.33,-53.289 9.64,-20.133 30.33,-46.774 34.3,-47.34" /><path
         id="path88"
         style="fill:#fdfdfd;fill-opacity:1;fill-rule:evenodd;stroke:none"
         d="m 1058.19,509.016 c -4.25,-0.848 -7.37,-5.387 -6.52,-10.77 0.85,-5.098 5.1,-8.789 9.64,-8.219 4.25,0.852 7.08,5.379 6.52,10.77 -0.85,5.101 -5.1,8.789 -9.64,8.219" /><path
         id="path90"
         style="fill:#fdfdfd;fill-opacity:1;fill-rule:evenodd;stroke:none"
         d="m 1015.1,492.859 c -0.85,5.102 -5.1,8.789 -9.35,8.219 -3.12,-0.57 -5.39,-3.117 -6.238,-6.238 0.568,-2.262 1.418,-4.25 1.698,-5.379 0.85,-3.402 2.55,-5.672 5.39,-7.094 0.56,-0.277 1.41,-0.277 1.98,-0.277 4.54,0.57 7.37,5.379 6.52,10.769" /><path
         id="path92"
         style="fill:#fdfdfd;fill-opacity:1;fill-rule:evenodd;stroke:none"
         d="m 1098.44,594.34 c -4.54,-0.57 -7.37,-5.391 -6.52,-10.492 0.85,-5.379 5.1,-9.071 9.64,-8.219 3.12,0.281 5.38,3.121 6.23,6.519 l 0,0.571 c 0.29,1.129 0.29,2.269 0,3.398 -0.85,5.102 -5.1,8.793 -9.35,8.223" /><path
         id="path94"
         style="fill:#fdfdfd;fill-opacity:1;fill-rule:evenodd;stroke:none"
         d="m 1085.97,671.727 c -4.25,-0.571 -7.09,-5.391 -6.24,-10.493 0.85,-5.379 4.82,-9.07 9.36,-8.218 4.25,0.57 7.37,5.39 6.52,10.488 -0.85,5.391 -5.1,8.793 -9.64,8.223" /><path
         id="path96"
         style="fill:#fdfdfd;fill-opacity:1;fill-rule:evenodd;stroke:none"
         d="m 1077.75,550.969 c -4.25,-0.852 -7.37,-5.668 -6.52,-10.77 0.85,-5.101 5.1,-8.789 9.64,-8.219 4.25,0.559 7.37,5.379 6.52,10.77 -0.85,5.098 -5.1,8.789 -9.64,8.219" /><path
         id="path98"
         style="fill:#fdfdfd;fill-opacity:1;fill-rule:evenodd;stroke:none"
         d="m 1025.31,542.75 c -4.54,-0.57 -7.37,-5.391 -6.52,-10.492 0.85,-5.379 5.1,-9.07 9.35,-8.219 4.54,0.57 7.37,5.391 6.52,10.488 -0.85,5.391 -5.1,9.071 -9.35,8.223" /><path
         id="path100"
         style="fill:#fdfdfd;fill-opacity:1;fill-rule:evenodd;stroke:none"
         d="m 1065.56,628.355 c -4.54,-0.851 -7.37,-5.671 -6.52,-10.769 0.85,-5.102 5.1,-8.789 9.35,-8.223 4.54,0.563 7.37,5.383 6.52,10.774 -0.85,5.097 -5.1,8.789 -9.35,8.218" /><path
         id="path102"
         style="fill:#fdfdfd;fill-opacity:1;fill-rule:evenodd;stroke:none"
         d="m 1105.53,713.68 c -4.25,-0.571 -7.09,-5.391 -6.24,-10.774 0.85,-5.097 5.11,-8.789 9.36,-8.218 4.53,0.851 7.37,5.671 6.52,10.769 -0.85,5.102 -5.1,8.789 -9.64,8.223" /><path
         id="path104"
         style="fill:#fdfdfd;fill-opacity:1;fill-rule:evenodd;stroke:none"
         d="m 1126.5,754.781 c -4.25,-0.57 -7.09,-5.39 -6.23,-10.492 0.84,-5.379 5.11,-9.07 9.36,-8.219 4.52,0.571 7.36,5.391 6.51,10.489 -0.85,5.39 -5.1,9.07 -9.64,8.222" /><path
         id="path106"
         style="fill:#fdfdfd;fill-opacity:1;fill-rule:evenodd;stroke:none"
         d="m 1074.06,746.844 c -4.25,-0.571 -7.37,-5.391 -6.52,-10.492 0.85,-5.379 5.1,-9.071 9.64,-8.219 4.25,0.57 7.08,5.39 6.23,10.488 -0.85,5.102 -4.81,8.793 -9.35,8.223" /><path
         id="path108"
         style="fill:#fdfdfd;fill-opacity:1;fill-rule:evenodd;stroke:none"
         d="m 1166.76,840.387 c -4.25,-0.852 -7.1,-5.668 -6.53,-10.77 0.86,-5.101 5.11,-8.789 9.65,-8.219 4.25,0.559 7.37,5.379 6.51,10.77 -0.84,5.098 -5.09,8.789 -9.63,8.219" /><path
         id="path110"
         style="fill:#fdfdfd;fill-opacity:1;fill-rule:evenodd;stroke:none"
         d="m 1114.32,832.168 c -4.55,-0.57 -7.37,-5.391 -6.52,-10.492 0.84,-5.379 5.09,-9.071 9.34,-8.219 4.54,0.57 7.38,5.391 6.52,10.488 -0.84,5.391 -5.09,9.071 -9.34,8.223" /><path
         id="path112"
         style="fill:#fdfdfd;fill-opacity:1;fill-rule:evenodd;stroke:none"
         d="m 1061.59,824.23 c -4.25,-0.57 -7.09,-5.39 -6.24,-10.492 0.85,-5.379 5.11,-9.07 9.36,-8.218 4.53,0.57 7.37,5.39 6.52,10.488 -0.85,5.101 -5.1,8.793 -9.64,8.222" /><path
         id="path114"
         style="fill:#fdfdfd;fill-opacity:1;fill-rule:evenodd;stroke:none"
         d="m 1259.45,933.645 c -4.25,-0.571 -7.09,-5.387 -6.24,-10.77 0.85,-5.098 5.11,-8.789 9.36,-8.219 4.53,0.852 7.37,5.668 6.52,10.77 -0.85,5.101 -5.1,8.789 -9.64,8.219" /><path
         id="path116"
         style="fill:#fdfdfd;fill-opacity:1;fill-rule:evenodd;stroke:none"
         d="m 1207.01,925.711 c -4.25,-0.852 -7.37,-5.391 -6.52,-10.77 0.85,-5.101 5.1,-8.793 9.64,-8.222 4.25,0.851 7.08,5.383 6.23,10.769 -0.56,5.102 -4.81,8.793 -9.35,8.223" /><path
         id="path118"
         style="fill:#fdfdfd;fill-opacity:1;fill-rule:evenodd;stroke:none"
         d="m 1154.57,917.773 c -4.54,-0.851 -7.37,-5.671 -6.52,-10.769 0.85,-5.102 5.1,-8.789 9.35,-8.223 4.54,0.563 7.37,5.383 6.52,10.774 -0.85,5.097 -5.1,8.789 -9.35,8.218" /><path
         id="path120"
         style="fill:#fdfdfd;fill-opacity:1;fill-rule:evenodd;stroke:none"
         d="m 1101.84,909.551 c -4.25,-0.571 -7.09,-5.391 -6.52,-10.488 0.85,-5.379 5.1,-9.071 9.64,-8.219 4.25,0.566 7.37,5.386 6.52,10.488 -0.85,5.391 -5.1,9.07 -9.64,8.219" /><path
         id="path122"
         style="fill:#fdfdfd;fill-opacity:1;fill-rule:evenodd;stroke:none"
         d="m 1299.7,1018.97 c -4.25,-0.57 -7.09,-5.39 -6.52,-10.49 0.85,-5.38 5.1,-9.07 9.64,-8.22 4.25,0.57 7.37,5.39 6.52,10.49 -0.85,5.39 -5.1,9.07 -9.64,8.22" /><path
         id="path124"
         style="fill:#fdfdfd;fill-opacity:1;fill-rule:evenodd;stroke:none"
         d="m 1247.26,1011.03 c -4.54,-0.57 -7.37,-5.39 -6.52,-10.49 0.85,-5.38 5.1,-9.067 9.35,-8.22 4.54,0.571 7.37,5.391 6.52,10.49 -0.85,5.1 -5.1,8.79 -9.35,8.22" /><path
         id="path126"
         style="fill:#fdfdfd;fill-opacity:1;fill-rule:evenodd;stroke:none"
         d="m 1146.06,796.734 c -4.25,-0.57 -7.09,-5.39 -6.24,-10.492 0.85,-5.379 5.11,-9.07 9.36,-8.219 4.53,0.571 7.37,5.391 6.52,10.489 -0.85,5.39 -5.1,8.793 -9.64,8.222" /><path
         id="path128"
         style="fill:#fdfdfd;fill-opacity:1;fill-rule:evenodd;stroke:none"
         d="m 1093.62,788.797 c -4.25,-0.57 -7.37,-5.391 -6.52,-10.77 0.85,-5.101 5.1,-8.793 9.64,-8.222 4.25,0.851 7.08,5.672 6.52,10.769 -0.85,5.102 -5.1,8.793 -9.64,8.223" /><path
         id="path130"
         style="fill:#fdfdfd;fill-opacity:1;fill-rule:evenodd;stroke:none"
         d="m 1239.04,890.277 c -4.54,-0.851 -7.37,-5.672 -6.52,-10.769 0.85,-5.102 5.1,-8.793 9.35,-8.223 4.54,0.563 7.37,5.379 6.52,10.77 -0.85,5.101 -5.1,8.793 -9.35,8.222" /><path
         id="path132"
         style="fill:#fdfdfd;fill-opacity:1;fill-rule:evenodd;stroke:none"
         d="m 1186.32,882.055 c -4.25,-0.571 -7.09,-5.391 -6.25,-10.489 0.57,-5.378 4.82,-9.07 9.36,-8.218 4.25,0.566 7.37,5.386 6.52,10.488 -0.84,5.391 -5.09,9.07 -9.63,8.219" /><path
         id="path134"
         style="fill:#fdfdfd;fill-opacity:1;fill-rule:evenodd;stroke:none"
         d="m 1133.88,874.117 c -4.54,-0.566 -7.38,-5.387 -6.52,-10.488 0.84,-5.379 5.09,-9.07 9.63,-8.219 4.25,0.57 7.08,5.391 6.23,10.488 -0.84,5.391 -5.09,9.071 -9.34,8.219" /><path
         id="path136"
         style="fill:#fdfdfd;fill-opacity:1;fill-rule:evenodd;stroke:none"
         d="m 1081.43,866.184 c -4.54,-0.571 -7.37,-5.391 -6.52,-10.774 0.85,-5.097 5.1,-8.789 9.35,-8.219 4.54,0.852 7.37,5.672 6.52,10.77 -0.85,5.102 -5.1,8.793 -9.35,8.223" /><path
         id="path138"
         style="fill:#fdfdfd;fill-opacity:1;fill-rule:evenodd;stroke:none"
         d="m 1331.73,983.535 c -4.54,-0.57 -7.37,-5.39 -6.52,-10.488 0.85,-5.383 5.1,-9.07 9.35,-8.223 4.54,0.571 7.37,5.391 6.52,10.492 -0.85,5.391 -5.1,8.789 -9.35,8.219" /><path
         id="path140"
         style="fill:#fdfdfd;fill-opacity:1;fill-rule:evenodd;stroke:none"
         d="m 1279.29,975.598 c -4.54,-0.848 -7.37,-5.387 -6.52,-10.77 0.85,-5.098 5.1,-8.789 9.35,-8.219 4.54,0.852 7.37,5.668 6.52,10.77 -0.85,5.101 -5.1,8.789 -9.35,8.219" /><path
         id="path142"
         style="fill:#fdfdfd;fill-opacity:1;fill-rule:evenodd;stroke:none"
         d="m 1226.57,967.66 c -4.25,-0.847 -7.37,-5.387 -6.52,-10.769 0.85,-5.098 5.1,-8.789 9.64,-8.219 4.25,0.558 7.08,5.379 6.23,10.769 -0.85,5.102 -4.81,8.789 -9.35,8.219" /><path
         id="path144"
         style="fill:#fdfdfd;fill-opacity:1;fill-rule:evenodd;stroke:none"
         d="m 1311.89,1056.1 c 0.85,-5.1 5.1,-8.79 9.64,-8.22 1.42,0.28 2.83,1.13 3.97,2.27 -3.12,4.82 -6.52,9.92 -10.21,15.3 -2.55,-1.7 -3.97,-5.38 -3.4,-9.35" /><path
         id="path146"
         style="fill:#000000;fill-opacity:1;fill-rule:evenodd;stroke:none"
         d="m 1312.17,1070.56 c 2.83,-3.4 13.32,-17.57 27.21,-39.69 7.09,-11.05 15.03,-24.09 23.25,-38.831 l 3.11,-5.391 0.86,-1.41 0,-0.566 c 0.28,0.848 -1.14,-7.652 -0.57,-3.973 l 0,-0.277 -0.57,-0.293 -2.27,-1.981 -9.07,-7.648 c -6.23,-5.391 -12.75,-10.77 -18.99,-16.441 -52.16,-44.508 -108.85,-105.739 -143.15,-159.028 -35.15,-52.441 -71.72,-131.242 -80.79,-206.929 -2.83,-18.711 -4.82,-36.563 -6.23,-53.293 -0.85,-8.219 -1.14,-16.161 -1.42,-23.809 1.13,-6.801 -1.42,-17.012 -7.65,-18.988 -21.26,-8.793 -38.55,-6.801 -42.24,-8.512 3.4,2.559 21.26,1.711 41.1,11.34 5.39,2.84 6.52,7.941 5.39,16.441 0,7.66 0.28,15.879 0.85,24.098 0.85,17.012 2.55,35.152 4.82,54.141 7.08,76.82 43.37,159.308 79.08,212.031 34.87,54.429 92.7,115.371 145.99,158.461 6.52,5.668 13.04,10.769 19.27,15.867 l 9.36,7.371 2.27,1.699 0.56,0.571 0.29,0.281 0.28,0 c -1.42,-8.5 -0.28,-2.262 -0.57,-4.25 l -0.85,1.418 -2.83,5.672 c -7.94,15.019 -15.31,28.349 -21.83,39.679 -13.04,22.68 -22.68,37.7 -24.66,42.24" /><path
         id="path148"
         style="fill:#fdfdfd;fill-opacity:1;fill-rule:evenodd;stroke:none"
         d="m 851.543,792.199 c -4.539,-0.57 -7.371,-5.39 -6.52,-10.492 0.848,-5.379 5.098,-9.07 9.348,-8.219 4.543,0.571 7.371,5.391 6.524,10.489 -0.852,5.39 -5.102,9.07 -9.352,8.222" /><path
         id="path150"
         style="fill:#fdfdfd;fill-opacity:1;fill-rule:evenodd;stroke:none"
         d="m 839.07,869.582 c -4.25,-0.57 -7.09,-5.391 -6.238,-10.488 0.57,-5.379 4.82,-9.071 9.359,-8.223 4.25,0.57 7.372,5.391 6.52,10.492 -0.852,5.391 -5.102,9.071 -9.641,8.219" /><path
         id="path152"
         style="fill:#fdfdfd;fill-opacity:1;fill-rule:evenodd;stroke:none"
         d="m 883.293,756.766 c -4.25,-0.571 -7.094,-5.391 -6.242,-10.493 0.851,-5.378 5.109,-9.07 9.359,-8.5 4.531,0.852 7.371,5.672 6.52,10.774 -0.848,5.098 -5.098,8.789 -9.637,8.219" /><path
         id="path154"
         style="fill:#fdfdfd;fill-opacity:1;fill-rule:evenodd;stroke:none"
         d="m 871.102,834.148 c -4.539,-0.57 -7.372,-5.386 -6.52,-10.488 0.852,-5.379 5.102,-9.07 9.641,-8.5 4.25,0.852 7.078,5.668 6.23,10.77 -0.851,5.101 -5.101,8.789 -9.351,8.218" /><path
         id="path156"
         style="fill:#fdfdfd;fill-opacity:1;fill-rule:evenodd;stroke:none"
         d="m 821.496,826.781 c -4.25,-0.851 -7.09,-5.672 -6.238,-10.769 0.847,-5.102 5.109,-8.793 9.359,-8.223 4.528,0.563 7.367,5.383 6.52,10.77 -0.852,5.101 -5.102,8.793 -9.641,8.222" /><path
         id="path158"
         style="fill:#fdfdfd;fill-opacity:1;fill-rule:evenodd;stroke:none"
         d="m 803.07,784.828 c -4.25,-0.57 -7.09,-5.39 -6.238,-10.488 0.848,-5.383 4.82,-9.07 9.359,-8.223 4.25,0.571 7.372,5.391 6.52,10.492 -0.852,5.387 -5.102,9.071 -9.641,8.219" /><path
         id="path160"
         style="fill:#fdfdfd;fill-opacity:1;fill-rule:evenodd;stroke:none"
         d="m 790.883,862.215 c -4.539,-0.57 -7.371,-5.391 -6.52,-10.492 0.848,-5.379 5.098,-9.071 9.348,-8.219 4.543,0.57 7.371,5.391 6.519,10.488 -0.847,5.391 -5.097,9.071 -9.347,8.223" /><path
         id="path162"
         style="fill:#fdfdfd;fill-opacity:1;fill-rule:evenodd;stroke:none"
         d="m 738.156,854.277 c -4.25,-0.57 -7.09,-5.39 -6.238,-10.492 0.852,-5.379 5.109,-9.07 9.359,-8.5 4.532,0.852 7.371,5.672 6.52,10.77 -0.848,5.101 -5.098,8.793 -9.641,8.222" /><path
         id="path164"
         style="fill:#fdfdfd;fill-opacity:1;fill-rule:evenodd;stroke:none"
         d="m 695.07,838.117 c -0.847,5.102 -5.097,8.793 -9.347,8.223 -4.543,-0.852 -7.371,-5.391 -6.524,-10.77 0.281,-0.57 0.563,-1.132 0.563,-1.703 3.968,-1.699 7.66,-3.398 11.621,-5.387 2.84,1.7 4.539,5.387 3.687,9.637" /><path
         id="path166"
         style="fill:#fdfdfd;fill-opacity:1;fill-rule:evenodd;stroke:none"
         d="m 673.242,923.727 c -4.25,-0.852 -7.09,-5.391 -6.238,-10.774 0.851,-5.098 4.82,-8.789 9.359,-8.219 4.532,0.852 7.371,5.379 6.52,10.77 -0.848,5.101 -5.098,8.793 -9.641,8.223" /><path
         id="path168"
         style="fill:#fdfdfd;fill-opacity:1;fill-rule:evenodd;stroke:none"
         d="m 620.805,915.789 c -4.25,-0.851 -7.371,-5.672 -6.524,-10.769 0.852,-5.102 5.102,-8.793 9.641,-8.223 4.25,0.562 7.082,5.383 6.23,10.769 -0.847,5.102 -5.097,8.793 -9.347,8.223" /><path
         id="path170"
         style="fill:#fdfdfd;fill-opacity:1;fill-rule:evenodd;stroke:none"
         d="m 770.188,818.844 c -4.25,-0.571 -7.368,-5.391 -6.52,-10.77 0.852,-5.101 5.102,-8.793 9.641,-8.222 4.25,0.851 7.082,5.382 6.23,10.769 -0.559,5.102 -4.809,8.793 -9.351,8.223" /><path
         id="path172"
         style="fill:#fdfdfd;fill-opacity:1;fill-rule:evenodd;stroke:none"
         d="m 757.719,896.23 c -4.25,-0.57 -7.09,-5.39 -6.242,-10.769 0.851,-5.102 5.109,-8.793 9.359,-8.223 4.531,0.852 7.371,5.672 6.519,10.77 -0.847,5.101 -5.097,8.793 -9.636,8.222" /><path
         id="path174"
         style="fill:#fdfdfd;fill-opacity:1;fill-rule:evenodd;stroke:none"
         d="m 705.277,888.293 c -4.25,-0.852 -7.371,-5.391 -6.519,-10.77 0.847,-5.101 5.097,-8.793 9.637,-8.222 4.25,0.562 7.082,5.383 6.23,10.769 -0.559,5.102 -4.809,8.793 -9.348,8.223" /><path
         id="path176"
         style="fill:#fdfdfd;fill-opacity:1;fill-rule:evenodd;stroke:none"
         d="m 652.836,880.07 c -4.539,-0.566 -7.371,-5.386 -6.52,-10.488 0.848,-5.102 5.098,-8.789 9.348,-8.219 4.539,0.571 7.371,5.391 6.52,10.489 -0.848,5.39 -5.098,9.07 -9.348,8.218" /><path
         id="path178"
         style="fill:#fdfdfd;fill-opacity:1;fill-rule:evenodd;stroke:none"
         d="m 863.73,714.813 c -0.847,0 -1.976,-0.571 -2.546,-1.129 3.968,-3.692 7.937,-7.661 11.898,-11.633 0.289,1.422 0.57,2.84 0.289,4.543 -0.848,5.097 -5.098,9.066 -9.641,8.219" /><path
         id="path180"
         style="fill:#fdfdfd;fill-opacity:1;fill-rule:evenodd;stroke:none"
         d="m 843.324,740.891 c -0.57,5.39 -4.82,9.07 -9.351,8.218 -3.121,-0.277 -5.391,-2.828 -6.239,-6.238 4.25,-3.398 8.5,-7.078 12.758,-10.769 2.262,1.988 3.68,5.39 2.832,8.789" /><path
         id="path182"
         style="fill:#000000;fill-opacity:1;fill-rule:evenodd;stroke:none"
         d="m 837.086,728.418 c 1.422,-3.121 5.672,-24.941 4.25,-51.871 -0.848,-13.328 -1.981,-28.07 -4.82,-41.957 -1.129,-10.492 -3.969,-7.934 1.422,-9.352 4.82,-1.422 10.21,-1.699 15.308,-1.992 19.84,-1.129 47.051,-4.25 69.16,-13.027 22.11,-8.231 37.422,-21.832 40.25,-24.379 -5.949,7.648 -68.879,29.187 -109.41,26.359 -5.098,0.571 -10.769,0.571 -17.289,2.547 -2.551,1.133 -8.512,2.274 -9.93,11.063 0.571,6.519 1.711,7.929 2.27,11.621 2.84,13.316 4.82,27.207 6.519,40.25 2.84,25.797 1.141,47.058 2.27,50.738" /><path
         id="path184"
         style="fill:#000000;fill-opacity:1;fill-rule:evenodd;stroke:none"
         d="m 831.418,630.34 c -0.281,1.418 1.98,9.918 -6.801,13.039 -7.66,3.68 -19.281,4.531 -31.469,4.25 -12.472,0.281 -26.082,-1.129 -39.402,-2.27 -12.469,-0.281 -29.48,-5.671 -39.68,11.629 -10.781,58.961 15.301,137.192 14.45,147.403 2.839,-8.223 -14.739,-97.231 -6.797,-142.301 10.488,-14.461 47.34,-2.27 71.148,-6.52 12.469,-0.851 24.379,-2.84 32.879,-7.941 10.77,-5.668 6.801,-17.57 5.672,-17.289" /><path
         id="path186"
         style="fill:#000000;fill-opacity:1;fill-rule:evenodd;stroke:none"
         d="m 712.363,691.566 c -1.422,35.43 -98.652,-25.796 -161.011,1.704 -10.77,2.546 -12.469,24.097 -6.52,30.328 3.398,7.941 6.238,17.289 9.359,26.359 5.672,18.711 11.051,38.27 16.153,56.133 9.078,35.148 22.957,65.199 31.469,60.937 -7.942,2.27 -18.43,-27.211 -26.083,-63.211 -4.25,-18.136 -8.5,-37.976 -13.609,-57.257 -3.109,-19.27 -19.558,-40.532 -6.801,-43.653 24.953,-11.058 66.051,-5.386 97.512,-0.277 15.879,2.828 30.621,7.078 42.809,4.809 13.043,-1.981 16.152,-14.45 16.722,-15.872" /><path
         id="path188"
         style="fill:#000000;fill-opacity:1;fill-rule:evenodd;stroke:none"
         d="m 622.504,726.434 c 3.969,1.129 15.309,33.449 18.141,55.558 4.539,20.692 11.058,55.563 12.191,59.531 1.699,-3.968 1.418,-40.82 -3.121,-62.648 -2.551,-22.109 -20.121,-57.262 -27.211,-52.441" /><path
         id="path190"
         style="fill:#fdfdfd;fill-opacity:1;fill-rule:evenodd;stroke:none"
         d="m 1046,586.402 c -4.54,-0.851 -7.37,-5.39 -6.52,-10.769 0.85,-5.102 5.1,-8.789 9.35,-8.223 4.54,0.852 7.37,5.383 6.52,10.774 -0.85,5.097 -5.1,8.789 -9.35,8.218" /><path
         id="path192"
         style="fill:#fdfdfd;fill-opacity:1;fill-rule:evenodd;stroke:none"
         d="m 993.277,578.465 c -4.25,-0.852 -7.371,-5.668 -6.519,-10.77 0.847,-5.101 5.097,-8.789 9.637,-8.218 4.245,0.558 7.085,5.378 6.515,10.769 -0.84,5.098 -5.094,8.789 -9.633,8.219" /><path
         id="path194"
         style="fill:#fdfdfd;fill-opacity:1;fill-rule:evenodd;stroke:none"
         d="m 1033.53,663.789 c -4.54,-0.57 -7.37,-5.391 -6.52,-10.769 0.85,-5.102 5.1,-8.793 9.64,-8.223 4.25,0.851 7.08,5.383 6.23,10.769 -0.85,5.102 -5.1,8.793 -9.35,8.223" /><path
         id="path196"
         style="fill:#fdfdfd;fill-opacity:1;fill-rule:evenodd;stroke:none"
         d="m 981.086,655.852 c -4.539,-0.852 -7.367,-5.672 -6.52,-10.77 0.852,-5.102 5.102,-8.793 9.352,-8.223 4.539,0.563 7.367,5.383 6.52,10.774 -0.852,5.097 -5.102,8.789 -9.352,8.219" /><path
         id="path198"
         style="fill:#fdfdfd;fill-opacity:1;fill-rule:evenodd;stroke:none"
         d="m 938,639.41 c -0.852,5.391 -5.102,9.07 -9.641,8.219 -2.269,-0.277 -3.968,-1.699 -5.097,-3.68 1.129,-1.711 2.547,-3.41 3.968,-5.109 1.981,-2.828 4.25,-5.949 6.231,-9.07 3.117,1.699 5.109,5.39 4.539,9.64" /><path
         id="path200"
         style="fill:#fdfdfd;fill-opacity:1;fill-rule:evenodd;stroke:none"
         d="m 1012.84,620.137 c -4.25,-0.571 -7.09,-5.391 -6.52,-10.492 0.84,-5.098 5.09,-9.071 9.63,-8.219 4.25,0.57 7.09,5.39 6.53,10.488 -0.85,5.391 -5.1,9.07 -9.64,8.223" /><path
         id="path202"
         style="fill:#fdfdfd;fill-opacity:1;fill-rule:evenodd;stroke:none"
         d="m 960.395,612.199 c -4.54,-0.57 -7.372,-5.39 -6.52,-10.492 0.848,-5.379 5.098,-9.07 9.348,-8.219 4.543,0.571 7.371,5.391 6.519,10.489 -0.847,5.39 -5.097,9.07 -9.347,8.222" /><path
         id="path204"
         style="fill:#fdfdfd;fill-opacity:1;fill-rule:evenodd;stroke:none"
         d="m 1053.09,705.742 c -4.54,-0.851 -7.37,-5.39 -6.52,-10.769 0.85,-5.102 5.1,-8.793 9.64,-8.223 4.25,0.563 7.08,5.383 6.23,10.77 -0.85,5.101 -5.1,8.793 -9.35,8.222" /><path
         id="path206"
         style="fill:#fdfdfd;fill-opacity:1;fill-rule:evenodd;stroke:none"
         d="m 1000.64,697.805 c -4.535,-0.852 -7.363,-5.672 -6.515,-10.77 0.852,-5.101 5.102,-8.793 9.355,-8.222 4.54,0.562 7.37,5.382 6.52,10.492 -0.86,5.379 -5.11,9.07 -9.36,8.5" /><path
         id="path208"
         style="fill:#fdfdfd;fill-opacity:1;fill-rule:evenodd;stroke:none"
         d="m 947.922,689.582 c -4.25,-0.57 -7.09,-5.391 -6.52,-10.488 0.848,-5.379 5.098,-9.071 9.641,-8.223 4.25,0.57 7.367,5.391 6.52,10.492 -0.852,5.391 -5.102,9.071 -9.641,8.219" /><path
         id="path210"
         style="fill:#fdfdfd;fill-opacity:1;fill-rule:evenodd;stroke:none"
         d="m 895.48,681.645 c -0.851,0 -1.699,-0.571 -2.269,-0.848 3.687,-4.25 7.367,-8.5 11.059,-12.762 0.558,1.699 0.851,3.41 0.558,5.391 -0.848,5.101 -5.098,8.789 -9.348,8.219" /><path
         id="path212"
         style="fill:#fdfdfd;fill-opacity:1;fill-rule:evenodd;stroke:none"
         d="m 1021.62,738.906 c -4.54,-0.851 -7.37,-5.39 -6.52,-10.769 0.85,-5.102 5.1,-8.789 9.35,-8.223 4.54,0.852 7.37,5.383 6.52,10.774 -0.85,5.097 -5.1,8.789 -9.35,8.218" /><path
         id="path214"
         style="fill:#fdfdfd;fill-opacity:1;fill-rule:evenodd;stroke:none"
         d="m 968.898,730.969 c -4.25,-0.852 -7.371,-5.668 -6.519,-10.77 0.848,-5.101 5.098,-8.789 9.641,-8.219 4.25,0.559 7.367,5.379 6.519,10.77 -0.851,5.098 -5.101,8.789 -9.641,8.219" /><path
         id="path216"
         style="fill:#fdfdfd;fill-opacity:1;fill-rule:evenodd;stroke:none"
         d="m 916.457,722.75 c -4.539,-0.57 -7.371,-5.391 -6.519,-10.492 0.847,-5.379 5.097,-9.07 9.347,-8.219 4.543,0.57 7.371,5.391 6.524,10.488 -0.852,5.391 -5.102,9.071 -9.352,8.223" /><path
         id="path218"
         style="fill:#fdfdfd;fill-opacity:1;fill-rule:evenodd;stroke:none"
         d="m 1009.15,816.293 c -4.54,-0.57 -7.37,-5.391 -6.52,-10.77 0.85,-5.101 5.1,-8.793 9.64,-8.222 4.25,0.851 7.08,5.383 6.23,10.769 -0.56,5.102 -4.81,8.793 -9.35,8.223" /><path
         id="path220"
         style="fill:#fdfdfd;fill-opacity:1;fill-rule:evenodd;stroke:none"
         d="m 956.711,808.355 c -4.543,-0.851 -7.371,-5.671 -6.523,-10.769 0.851,-5.102 5.101,-8.789 9.351,-8.223 4.539,0.563 7.371,5.383 6.52,10.774 -0.848,5.097 -5.098,8.789 -9.348,8.218" /><path
         id="path222"
         style="fill:#fdfdfd;fill-opacity:1;fill-rule:evenodd;stroke:none"
         d="m 903.984,800.137 c -4.25,-0.571 -7.089,-5.391 -6.519,-10.492 0.848,-5.379 5.098,-9.071 9.64,-8.219 4.25,0.57 7.368,5.39 6.52,10.488 -0.852,5.391 -5.102,9.07 -9.641,8.223" /><path
         id="path224"
         style="fill:#fdfdfd;fill-opacity:1;fill-rule:evenodd;stroke:none"
         d="m 1049.4,901.613 c -4.54,-0.566 -7.37,-5.386 -6.52,-10.488 0.85,-5.379 5.1,-9.07 9.35,-8.219 4.54,0.571 7.37,5.391 6.52,10.489 -0.85,5.101 -5.1,8.789 -9.35,8.218" /><path
         id="path226"
         style="fill:#fdfdfd;fill-opacity:1;fill-rule:evenodd;stroke:none"
         d="m 891.797,877.52 c -4.543,-0.571 -7.371,-5.391 -6.524,-10.489 0.852,-5.101 5.102,-8.793 9.352,-8.222 4.539,0.57 7.371,5.39 6.52,10.492 -0.848,5.39 -5.098,9.07 -9.348,8.219" /><path
         id="path228"
         style="fill:#fdfdfd;fill-opacity:1;fill-rule:evenodd;stroke:none"
         d="m 1041.18,780.859 c -4.54,-0.851 -7.37,-5.39 -6.52,-10.769 0.85,-5.102 5.1,-8.789 9.35,-8.223 4.54,0.852 7.37,5.383 6.52,10.774 -0.85,5.097 -5.1,8.789 -9.35,8.218" /><path
         id="path230"
         style="fill:#fdfdfd;fill-opacity:1;fill-rule:evenodd;stroke:none"
         d="m 988.457,772.641 c -4.25,-0.571 -7.09,-5.391 -6.238,-10.493 0.847,-5.097 4.816,-8.789 9.359,-8.218 4.25,0.57 7.367,5.39 6.52,10.488 -0.852,5.391 -5.102,9.07 -9.641,8.223" /><path
         id="path232"
         style="fill:#fdfdfd;fill-opacity:1;fill-rule:evenodd;stroke:none"
         d="m 936.016,764.703 c -4.539,-0.57 -7.371,-5.39 -6.52,-10.492 0.852,-5.379 5.102,-9.07 9.641,-8.219 4.25,0.571 7.078,5.391 6.23,10.488 -0.851,5.391 -5.101,9.071 -9.351,8.223" /><path
         id="path234"
         style="fill:#fdfdfd;fill-opacity:1;fill-rule:evenodd;stroke:none"
         d="m 1028.71,858.246 c -4.25,-0.851 -7.37,-5.391 -6.52,-10.769 0.85,-5.102 5.1,-8.793 9.64,-8.223 4.25,0.851 7.08,5.383 6.52,10.769 -0.85,5.102 -5.1,8.793 -9.64,8.223" /><path
         id="path236"
         style="fill:#fdfdfd;fill-opacity:1;fill-rule:evenodd;stroke:none"
         d="m 976.27,850.309 c -4.543,-0.852 -7.372,-5.672 -6.524,-10.77 0.852,-5.101 5.102,-8.793 9.352,-8.223 4.539,0.563 7.371,5.383 6.519,10.774 -0.847,5.098 -5.097,8.789 -9.347,8.219" /><path
         id="path238"
         style="fill:#fdfdfd;fill-opacity:1;fill-rule:evenodd;stroke:none"
         d="m 923.543,842.086 c -4.25,-0.57 -7.09,-5.391 -6.238,-10.488 0.566,-5.379 4.816,-9.071 9.359,-8.219 4.25,0.566 7.367,5.387 6.52,10.488 -0.852,5.391 -5.102,9.071 -9.641,8.219" /><path
         id="path240"
         style="fill:#fdfdfd;fill-opacity:1;fill-rule:evenodd;stroke:none"
         d="m 989.59,871 c -0.277,-32.598 -14.168,-29.48 -12.188,-78.801 -6.8,9.071 -9.351,15.871 -11.339,25.512 -6.801,-2.84 -11.622,-9.641 -15.024,-15.02 2.832,11.329 -10.207,53.571 22.684,73.411 12.187,7.371 15.867,-0.563 15.867,-5.102" /><path
         id="path242"
         style="fill:#000000;fill-opacity:1;fill-rule:evenodd;stroke:none"
         d="m 962.66,867.031 c -1.129,-1.418 -10.199,-18.14 -9.918,-30.609 -1.422,-11.629 0,-31.75 -1.703,-33.738 0.852,1.988 -2.84,21.828 -1.418,34.296 0.57,6.243 2.27,14.461 5.391,20.411 3.109,5.961 6.801,9.363 7.648,9.64" /><path
         id="path244"
         style="fill:#000000;fill-opacity:1;fill-rule:evenodd;stroke:none"
         d="m 966.063,817.711 c 0.57,-0.57 3.121,-8.793 5.39,-13.043 1.699,-4.527 5.66,-11.617 5.949,-12.469 -0.847,0.281 -5.949,6.52 -8.218,11.34 -2.27,4.82 -3.692,13.32 -3.121,14.172" /><path
         id="path246"
         style="fill:#000000;fill-opacity:1;fill-rule:evenodd;stroke:none"
         d="m 951.039,802.688 c -0.281,0.847 2.828,7.089 5.668,9.917 2.551,3.122 8.5,5.391 9.352,5.102 -0.559,-0.562 -5.379,-4.25 -7.649,-7.082 -2.832,-2.551 -6.519,-7.937 -7.371,-7.937" /><path
         id="path248"
         style="fill:#000000;fill-opacity:1;fill-rule:evenodd;stroke:none"
         d="m 977.402,792.199 c -0.851,1.699 -2.55,26.93 1.981,40.821 1.988,7.089 5.961,15.019 7.66,22.386 1.98,7.66 2.27,14.184 2.551,15.59 0,-1.406 0.566,-8.219 -0.571,-16.148 -1.132,-7.942 -4.82,-16.45 -6.519,-23.25 -4.531,-13.039 -4.25,-37.418 -5.102,-39.399" /><path
         id="path250"
         style="fill:#000000;fill-opacity:1;fill-rule:evenodd;stroke:none"
         d="m 984.203,873.551 c -0.277,-1.129 -6.519,-10.199 -9.637,-16.16 -3.402,-5.668 -7.371,-16.161 -7.929,-17.289 -0.571,1.421 1.699,13.32 5.379,19.281 3.121,6.23 10.769,14.738 12.187,14.168" /><path
         id="path252"
         style="fill:#fdfdfd;fill-opacity:1;fill-rule:evenodd;stroke:none"
         d="m 1299.98,1075.95 c 0.86,-0.85 2.27,-2.83 3.97,-5.4 -1.7,-3.39 -3.97,-5.66 -6.8,-9.34 -5.38,-7.09 -13.04,-15.87 -22.4,-25.8 -18.98,-20.12 -46.2,-44.222 -78.8,-66.043 -64.91,-45.07 -149.66,-80.222 -217.137,-96.66 -67.739,-3.41 -158.45,4.809 -233,28.059 -37.137,11.339 -70.02,25.511 -94.399,38.832 -12.191,6.808 -22.391,13.039 -30.039,17.859 -3.973,2.551 -7.371,4.82 -9.93,6.801 -1.132,2.84 1.141,5.387 1.141,7.09 0,-1.422 -1.703,-5.102 -0.852,-6.524 2.829,-1.699 5.95,-3.679 9.918,-5.949 7.942,-4.82 18.141,-10.488 30.614,-16.437 24.66,-12.192 57.547,-25.512 94.679,-35.442 73.981,-20.969 163.84,-27.211 231.02,-23.808 63.775,15.878 149.965,49.886 214.305,92.41 32.59,20.976 60.09,43.662 79.66,62.652 9.91,9.35 17.86,17.86 23.8,24.38 2.83,3.12 5.38,5.94 7.38,7.92 -1.15,1.15 -2.56,4.55 -3.13,5.4" /><path
         id="path254"
         style="fill:#fdfdfd;fill-opacity:1;fill-rule:evenodd;stroke:none"
         d="m 998.379,891.977 c 2.271,4.539 17.861,25.8 23.811,27.5 5.67,1.98 22.68,-17.579 23.53,-24.668 0.85,-7.371 -34.3,-28.34 -53.583,-23.813 0,5.391 3.691,15.59 6.242,20.981" /><path
         id="path256"
         style="fill:#000000;fill-opacity:1;fill-rule:evenodd;stroke:none"
         d="m 992.141,871 c 1.422,-0.277 11.909,-0.848 23.809,4.25 5.67,2.27 11.91,5.391 17.86,9.07 4.53,3.692 13.04,8.512 9.35,13.039 -2.83,5.672 -7.37,11.34 -12.75,16.442 -2.55,1.988 -5.67,4.82 -7.94,4.262 -2.55,-0.864 -5.1,-3.692 -7.37,-5.961 -9.07,-9.352 -15.588,-18.422 -16.717,-20.122 0.847,1.981 6.517,11.622 15.297,21.821 2.27,2.551 4.54,5.39 7.94,7.09 4.54,0.57 7.37,-2.551 10.49,-4.821 5.67,-4.82 10.49,-10.769 13.6,-17.007 0.57,-1.704 1.99,-3.403 1.14,-6.524 -0.85,-1.976 -1.99,-3.398 -3.4,-4.527 -2.55,-2.551 -5.39,-4.539 -8.22,-6.52 -5.96,-3.691 -12.48,-6.801 -18.43,-8.793 -12.47,-4.527 -23.237,-2.828 -24.659,-1.699" /><path
         id="path258"
         style="fill:#000000;fill-opacity:1;fill-rule:evenodd;stroke:none"
         d="m 1018.22,900.48 c 0.57,-1.417 -4.25,-8.5 -8.22,-11.058 -3.69,-2.832 -10.488,-5.102 -11.617,-4.813 0.558,0.852 6.517,5.102 9.917,7.934 3.97,2.547 8.79,7.367 9.92,7.937" /><path
         id="path260"
         style="fill:#fdfdfd;fill-opacity:1;fill-rule:evenodd;stroke:none"
         d="m 981.086,888.008 c -11.91,14.172 -32.598,21.262 -38.551,20.41 -5.949,-0.848 -13.609,-25.801 -11.34,-32.598 2.274,-7.09 34.024,-15.312 49.614,-2.832 -1.993,5.102 2.546,12.473 0.277,15.02" /><path
         id="path262"
         style="fill:#000000;fill-opacity:1;fill-rule:evenodd;stroke:none"
         d="m 981.086,881.773 c 0.57,2.547 1.133,5.098 0,6.239 -11.91,14.172 -32.598,21.261 -38.551,20.41 -0.277,0 -0.566,-0.289 -0.847,-0.289 5.097,-6.801 27.488,-14.742 39.398,-26.36" /><path
         id="path264"
         style="fill:#000000;fill-opacity:1;fill-rule:evenodd;stroke:none"
         d="m 951.324,891.977 c 1.129,0 6.52,-5.391 10.199,-6.52 3.692,-1.98 10.489,-3.121 11.059,-3.68 -0.57,-0.57 -7.648,-1.992 -11.91,0.282 -4.809,1.699 -9.629,8.789 -9.348,9.918" /><path
         id="path266"
         style="fill:#000000;fill-opacity:1;fill-rule:evenodd;stroke:none"
         d="m 977.684,874.969 c -0.571,-1.418 -10.489,-3.969 -16.719,-3.121 -6.238,0 -15.59,5.39 -16.16,6.519 1.129,-0.277 10.492,-3.117 16.441,-3.117 5.668,-0.562 15.309,0.289 16.438,-0.281" /><path
         id="path268"
         style="fill:#fdfdfd;fill-opacity:1;fill-rule:evenodd;stroke:none"
         d="m 981.086,881.773 c -0.848,0.848 -12.758,8.79 -20.129,12.469 -7.371,3.692 -18.988,11.621 -19.269,13.891 0.847,-1.699 12.75,-7.653 20.121,-11.621 7.66,-3.692 19,-12.758 19.277,-14.739" /><path
         id="path270"
         style="fill:#000000;fill-opacity:1;fill-rule:evenodd;stroke:none"
         d="m 980.805,872.984 c -0.571,-1.418 -9.922,-7.937 -22.961,-7.648 -6.242,0 -13.321,0.848 -20.129,3.398 -2.832,1.422 -7.652,2.832 -8.5,8.5 -0.281,4.25 0.566,7.942 1.129,11.063 1.699,6.519 3.687,13.598 8.789,19.558 7.371,4.821 13.89,-0.851 19.84,-2.55 12.191,-5.668 19.851,-14.461 21.261,-16.16 -1.703,1.41 -9.921,9.351 -21.82,13.89 -5.391,1.981 -13.609,5.949 -17.582,2.551 -3.969,-5.102 -5.949,-12.473 -7.367,-18.43 -7.942,-16.152 13.316,-18.14 24.379,-19.269 12.469,-0.852 21.539,4.527 22.961,5.097" /><path
         id="path272"
         style="fill:#fdfdfd;fill-opacity:1;fill-rule:evenodd;stroke:none"
         d="m 997.813,885.457 c 31.177,0 35.717,-59.238 57.257,-68.879 -10.77,-0.57 -16.72,1.418 -21.54,5.379 -1.42,-7.93 -2.55,-17.289 -3.41,-22.672 -1.98,-2.547 -27.49,65.192 -40.53,70.863 -8.219,3.399 5.101,15.309 8.223,15.309" /><path
         id="path274"
         style="fill:#000000;fill-opacity:1;fill-rule:evenodd;stroke:none"
         d="m 1030.13,799.285 c -0.58,0.848 0,7.649 0.57,11.91 0.56,3.957 2.26,10.2 2.83,10.77 0.27,-0.57 0,-7.371 -0.57,-11.621 -0.57,-3.969 -1.98,-10.489 -2.83,-11.059" /><path
         id="path276"
         style="fill:#000000;fill-opacity:1;fill-rule:evenodd;stroke:none"
         d="m 1055.07,816.574 c -0.85,0 -7.94,3.403 -13.04,11.91 -5.39,8.223 -10.2,18.993 -13.89,26.641 -3.68,7.652 -8.79,17.582 -15.31,23.531 -6.52,6.231 -13.6,6.52 -15.017,6.801 1.128,0.289 8.497,1.141 16.157,-4.82 7.37,-5.949 13.04,-16.153 16.72,-23.813 3.97,-7.937 8.22,-18.707 13.04,-26.929 4.54,-8.5 10.49,-12.469 11.34,-13.321" /><path
         id="path278"
         style="fill:#000000;fill-opacity:1;fill-rule:evenodd;stroke:none"
         d="m 989.59,870.148 c 3.402,1.704 17.57,-19.558 23.53,-33.168 6.52,-13.031 15.02,-36.281 17.01,-37.699 -2.84,0.848 -13.04,23.25 -19.56,36 -6.24,13.61 -18.429,34.867 -20.98,34.867" /><path
         id="path280"
         style="fill:#000000;fill-opacity:1;fill-rule:evenodd;stroke:none"
         d="m 992.711,879.504 c 1.129,0.851 12.469,-4.25 17.569,-10.77 5.96,-5.39 9.64,-18.988 9.08,-20.41 -0.57,1.422 -5.67,13.039 -11.06,17.86 -4.53,5.953 -14.741,12.191 -15.589,13.32" /><path
         id="path282"
         style="fill:#000000;fill-opacity:1;fill-rule:evenodd;stroke:none"
         d="m 1033.53,821.961 c 0.85,0 6.8,-3.121 10.49,-3.398 3.97,-0.852 10.2,-1.704 11.05,-1.993 -0.56,-0.281 -7.08,-1.699 -11.05,-0.558 -4.25,0.277 -10.49,4.82 -10.49,5.949" /><path
         id="path284"
         style="fill:#fdfdfd;fill-opacity:1;fill-rule:evenodd;stroke:none"
         d="m 973.434,886.309 c 3.968,3.687 21.539,6.238 24.66,4.539 3.396,-1.711 -0.852,-17.578 -8.789,-20.7 -7.934,-3.121 -20.121,12.481 -15.871,16.161" /><path
         id="path286"
         style="fill:#000000;fill-opacity:1;fill-rule:evenodd;stroke:none"
         d="m 973.434,886.309 c -1.7,-0.571 0.281,-7.942 6.519,-12.469 2.828,-2.274 7.09,-3.973 9.918,-1.992 3.121,1.699 5.102,5.39 6.524,8.511 1.128,2.547 2.839,8.5 1.128,9.348 -3.109,0.852 -7.371,0.57 -10.769,0.289 -7.082,-0.859 -12.473,-2.84 -13.32,-3.687 0.57,1.418 5.949,3.968 13.039,5.39 3.679,0.278 7.371,1.41 11.621,0.559 3.396,-1.981 2.266,-5.668 1.986,-7.371 -0.287,-2.258 -0.846,-4.25 -1.709,-5.949 -1.406,-3.399 -3.68,-7.372 -7.367,-9.348 -4.25,-2.563 -8.781,0 -11.902,2.547 -6.52,5.101 -8.219,14.172 -5.668,14.172" /><path
         id="path288"
         style="fill:#1b1c1c;fill-opacity:1;fill-rule:nonzero;stroke:none"
         d="m 873.148,1698.75 0,0 c -0.418,0 -1.449,0.17 -1.839,0.3 -29.68,13.91 -44.871,58.64 -45.508,60.53 -0.961,2.9 0.476,5.9 3.269,6.83 2.207,0.72 5.25,-0.59 6.34,-2.77 0.258,-0.53 0.399,-1.12 0.399,-1.71 l 0,0 c 0.171,0 14.371,-41.32 39.449,-52.94 1.07,-0.33 2.23,-1.42 2.801,-2.83 0.468,-1.19 0.5,-2.55 0.082,-3.84 -0.731,-2.16 -2.692,-3.57 -4.993,-3.57" /><path
         id="path290"
         style="fill:#000000;fill-opacity:1;fill-rule:evenodd;stroke:none"
         d="m 830.285,1762.78 c -0.851,-0.28 -1.133,-1.13 -0.851,-1.98 0.57,-1.7 15.308,-45.08 43.089,-58.11 0.852,-0.29 1.7,0 1.981,0.85 0.281,0.85 0,1.7 -0.852,1.98 -26.929,12.47 -41.668,55.84 -41.668,56.41 -0.281,0.57 -1.129,1.13 -1.699,0.85" /></g></g></svg>