<?xml version="1.0" encoding="UTF-8" standalone="no"?>
<svg
   xmlns:dc="http://purl.org/dc/elements/1.1/"
   xmlns:cc="http://creativecommons.org/ns#"
   xmlns:rdf="http://www.w3.org/1999/02/22-rdf-syntax-ns#"
   xmlns:svg="http://www.w3.org/2000/svg"
   xmlns="http://www.w3.org/2000/svg"
   viewBox="0 0 248.03751 248.03751"
   height="248.03751"
   width="248.03751"
   xml:space="preserve"
   version="1.1"
   id="svg2"><metadata
     id="metadata8"><rdf:RDF><cc:Work
         rdf:about=""><dc:format>image/svg+xml</dc:format><dc:type
           rdf:resource="http://purl.org/dc/dcmitype/StillImage" /></cc:Work></rdf:RDF></metadata><defs
     id="defs6" /><g
     transform="matrix(1.25,0,0,-1.25,0,248.0375)"
     id="g10"><g
       transform="scale(0.1,0.1)"
       id="g12"><path
         id="path14"
         style="fill:#b72215;fill-opacity:1;fill-rule:nonzero;stroke:none"
         d="m 1747.58,441.535 c 1.42,-23.238 -60.66,-65.199 -60.66,-65.199 27.21,-5.949 139.46,-8.781 145.13,35.148 5.67,43.942 8.22,70.301 -29.48,90.711 -37.98,20.129 -103.18,23.813 -103.18,23.813 0,0 45.36,-44.781 48.19,-84.473" /><path
         id="path16"
         style="fill:#fac691;fill-opacity:1;fill-rule:evenodd;stroke:none"
         d="m 988.75,808.906 c -127.281,81.641 -380.41,100.059 -526.391,-36.281 0,0 -80.222,-145.699 -84.48,-175.469 -22.961,-164.691 -8.5,-328.82 104.891,-416.121 75.398,-57.828 161,-35.437 200.117,-43.937 77.672,-17.012 208.922,57.828 282.332,78.519 73.141,20.41 241.801,106.297 294.241,109.418 34.58,1.981 423.78,35.43 441.35,43.653 43.94,29.476 54.43,66.609 45.07,98.929 -31.18,109.981 -260.5,79.09 -351.21,63.488 -48.47,-8.5 -86.46,-17.847 -144.85,-14.167 -71.43,4.539 -233.29,66.898 -257.953,87.027 -9.64,8.223 101.763,-10.488 60.943,112.531 -8.78,26.359 -64.06,92.41 -64.06,92.41" /><path
         id="path18"
         style="fill:#000000;fill-opacity:1;fill-rule:nonzero;stroke:none"
         d="m 708.402,875.805 c 106.578,7.371 213.168,-18.711 282.899,-63.211 l 0.851,-0.852 c 0.282,-0.289 55.558,-66.617 64.628,-93.828 25.51,-75.969 -5.39,-100.629 -32.88,-109.98 -8.79,-2.84 -16.73,-3.969 -22.68,-4.821 20.41,-12.48 70.01,-33.168 122.17,-50.738 47.06,-15.883 95.53,-28.922 126.71,-30.902 49.32,-3.118 83.91,3.121 123.02,10.203 7.37,1.418 15.03,2.84 20.7,3.687 45.64,7.942 125.86,19.563 198.99,15.59 74.27,-4.25 141.16,-24.66 157.32,-81.918 5.39,-18.14 4.54,-37.699 -3.97,-56.691 -7.65,-16.731 -21.54,-32.891 -42.8,-47.059 -0.28,-0.281 -0.57,-0.281 -0.85,-0.57 -6.8,-3.402 -65.2,-9.922 -137.48,-17.289 -121.61,-11.903 -283.46,-25.512 -305.29,-26.934 -29.2,-1.41 -97.23,-30.328 -163.56,-58.668 -49.61,-20.98 -98.36,-41.672 -129.828,-50.461 -22.11,-6.238 -49.891,-17.578 -79.93,-29.758 -111.41,-45.64 -297.359,-87.6011 -406.211,-3.972 -57.828,44.5 -90.141,108.281 -105.449,181.703 -15.02,73.129 -12.75,155.617 -1.129,238.387 4.25,30.902 84.75,176.601 85.039,176.882 0,0.29 0.281,0.848 0.851,1.137 67.75,63.492 158.168,93.821 248.879,100.063 M 985.91,805.504 c -68.027,43.371 -172.629,68.601 -276.937,61.512 -88.442,-6.231 -176.879,-35.711 -242.93,-97.231 -5.672,-10.203 -79.941,-145.133 -83.621,-173.191 -11.629,-81.918 -13.609,-163.559 1.129,-235.559 14.742,-71.43 46.203,-133.512 102.051,-176.32 106.011,-81.633 289.128,-39.11 397.699,5.109 30.043,12.18 57.82,23.52 80.5,29.758 31.179,8.793 79.659,29.481 128.979,50.461 66.9,28.34 135.78,57.543 166.39,59.242 21.83,1.418 183.4,15.02 305.01,26.93 70.58,7.09 127.28,13.609 134.36,16.437 19.84,13.321 32.6,28.063 39.4,43.371 7.94,17.012 8.51,34.301 3.69,50.461 -15.03,52.719 -78.52,71.711 -149.39,75.68 -72,3.969 -151.65,-7.648 -196.72,-15.301 -8.51,-1.418 -14.74,-2.558 -20.98,-3.687 -39.68,-7.371 -74.83,-13.613 -125.01,-10.492 -31.74,1.992 -81.35,15.308 -128.97,31.179 -60.1,20.41 -117.36,45.071 -131.529,56.7 -2.828,2.55 -3.121,4.812 -1.129,7.652 1.981,1.98 5.668,2.551 11.051,3.398 5.667,0.852 13.887,1.992 22.107,4.821 23.81,7.941 50.46,29.761 27.5,98.648 -8.22,24.371 -57.548,84.184 -62.65,90.422" /><path
         id="path20"
         style="fill:#1b1c1c;fill-opacity:1;fill-rule:nonzero;stroke:none"
         d="m 189.094,422.543 c 0,0.281 -30.61,40.25 -14.457,72.281 l -15.59,8.219 c -21.262,-42.23 16.156,-90.699 16.156,-90.988 l 13.891,10.488 z m -6.797,-5.098 -5.391,7.078 c -3.679,-3.109 -4.531,-8.5 -1.703,-12.468 2.844,-3.68 8.223,-4.532 12.192,-1.7 l -5.098,7.09 z m 77.668,39.399 c -32.891,3.969 -82.781,-32.321 -83.059,-32.321 l 10.489,-14.168 c 0.281,0 44.5,32.321 70.582,29.2 l 1.988,17.289 z m -1.141,-8.789 -1.129,8.789 c -4.82,-0.571 -8.218,-5.102 -7.371,-9.918 0.571,-4.821 5.102,-7.942 9.922,-7.371 l -1.422,8.5 z m 149.672,-58.391 c -56.691,81.641 -150.519,67.18 -150.801,67.18 l 2.551,-17.289 c 0.277,0 83.617,13.039 134.078,-59.813 l 14.172,9.922 z m 22.68,-35.148 c -7.653,12.187 -14.742,24.089 -22.68,35.148 l -14.172,-9.922 c 7.09,-10.488 14.461,-22.109 22.11,-34.59 l 14.742,9.364 z M 704.715,206.543 c -170.641,-17.57 -227.621,74.27 -273.539,147.973 l -14.742,-9.364 c 48.472,-77.668 108.57,-174.609 290.269,-156.179 l -1.988,17.57 z M 1081.73,333.824 C 945.094,255.863 815.266,217.605 704.715,206.543 l 1.988,-17.57 c 112.82,11.621 245.192,50.172 383.817,129.82 l -8.79,15.031 z m 348.38,288.559 C 1314.73,493.125 1195.96,399.582 1081.73,333.824 l 8.79,-15.031 c 115.64,66.332 235.84,161.012 352.62,291.973 l -13.03,11.617 z m 300.75,506.547 C 1669.07,948.375 1561.91,770.074 1430.11,622.383 l 13.03,-11.617 c 133.24,149.386 241.79,329.668 304.16,512.214 l -16.44,5.95 z m 38.27,481.61 c 36.85,-147.11 18.71,-315.21 -38.27,-481.61 l 16.44,-5.95 c 58.11,169.81 76.54,341.29 38.84,491.81 l -17.01,-4.25 z m 8.51,2.27 -8.51,-1.7 c 0.85,-4.82 5.39,-7.93 10.21,-7.09 4.82,1.13 7.93,5.68 6.8,10.21 l -8.5,-1.42 z m -180.3,243.78 c 135.79,-59.8 171.5,-245.2 171.79,-245.48 l 17.01,3.12 c 0,0.56 -37.43,194.74 -181.71,258.23 l -7.09,-15.87 z m 3.41,7.93 -1.7,-8.5 c 4.81,-1.13 9.36,1.98 10.49,6.52 0.85,4.82 -2.27,9.35 -6.81,10.5 l -1.98,-8.52 z m -34.3,7.09 c 9.93,-10.77 32.6,-15.59 32.6,-15.59 l 3.68,17.02 c -0.28,0 -17.28,3.67 -23.53,10.48 l -12.75,-11.91 z m 6.23,5.95 7.37,4.82 c -2.82,3.98 -8.21,5.1 -12.19,2.27 -3.97,-2.54 -5.09,-7.94 -2.27,-11.91 l 7.09,4.82 z m 73.98,-152.5 c -0.27,0.28 -16.14,82.49 -66.61,157.32 l -14.46,-9.64 c 48.48,-71.7 63.79,-150.51 63.79,-150.79 l 17.28,3.11 z m -8.77,-1.42 8.5,1.99 c -1.14,4.53 -5.96,7.66 -10.5,6.23 -4.82,-1.13 -7.64,-5.66 -6.51,-10.48 l 8.51,2.26 z m -30.05,-509.37 c 60.09,176.02 77.39,356.59 38.55,511.36 l -17.01,-4.25 c 37.98,-151.38 20.98,-328.54 -38.27,-501.45 l 16.73,-5.66 z M 1303.11,721.313 c 137.19,138.621 243.21,313.507 304.73,492.957 l -16.73,5.66 C 1530.73,1042.77 1425.86,870.133 1290.64,733.504 l 12.47,-12.191 z M 894.074,434.453 c 112.816,42.801 250.856,126.992 409.036,286.86 l -12.47,12.191 C 1134.45,575.613 998.664,492.844 887.836,450.605 l 6.238,-16.152 z M 634.137,394.195 c 58.109,-4.82 146.269,-3.113 259.937,40.258 l -6.238,16.152 C 777.285,408.652 691.676,406.953 635.266,411.484 l -1.129,-17.289 z m -164.692,63.5 c 35.711,-27.781 72.282,-56.132 164.692,-63.5 l 1.129,17.289 c -87.02,7.09 -121.321,33.739 -155.051,59.821 l -10.77,-13.61 z m -206.929,54.989 c 128.121,6.519 166.961,-23.809 206.929,-54.989 l 10.77,13.61 c -42.809,33.437 -84.192,65.758 -218.84,58.668 l 1.141,-17.289 z m -45.36,-3.68 c 13.61,1.41 28.918,2.828 45.36,3.68 l -1.141,17.289 c -16.719,-0.848 -32.031,-1.981 -46.199,-3.68 l 1.98,-17.289 z m -42.519,-5.961 c 12.476,2.27 26.648,4.262 42.519,5.961 l -1.98,17.289 c -16.442,-1.699 -30.903,-3.688 -43.653,-5.949 l 3.114,-17.301 z m -1.41,8.512 7.929,-3.692 c 1.989,4.25 0.289,9.641 -4.25,11.621 -4.25,2.27 -9.64,0.289 -11.621,-3.961 l 7.942,-3.968 z m 4.82,-9.922 c 0.848,1.703 1.976,3.972 3.109,6.23 l -15.871,7.66 c -0.851,-1.699 -1.699,-3.691 -3.121,-5.96 l 15.883,-7.93 z m -7.942,3.972 7.942,-3.972 c 1.976,4.25 0.277,9.633 -3.973,11.621 -4.258,2.269 -9.64,0.57 -11.629,-3.691 l 7.66,-3.958 z m 4.532,-10.781 3.41,6.809 -15.602,7.93 -3.398,-6.52" /><path
         id="path22"
         style="fill:#000000;fill-opacity:1;fill-rule:nonzero;stroke:none"
         d="m 166.984,499.078 c 2.27,4.539 4.25,8.5 6.243,12.473 23.519,4.25 53,7.937 88.718,9.918 240.66,12.191 175.18,-102.891 372.758,-118.481 114.524,-9.359 347.813,6.52 662.177,324.563 269.57,272.129 418.67,686.549 341.01,996.099 0,0 -15.59,80.5 -65.21,153.92 8.23,-8.79 28.07,-13.04 28.07,-13.04 140.04,-61.51 176.89,-251.72 176.89,-251.72 C 1855.3,1303.27 1691.75,902.449 1436.63,616.719 1181.5,330.699 910.516,218.449 705.855,197.758 500.906,176.777 454.984,307.461 401.414,384.559 c -53.578,77.39 -142.59,63.5 -142.59,63.5 -29.48,3.679 -76.527,-30.621 -76.527,-30.621 0,0 -34.301,44.511 -15.313,81.64" /><path
         id="path24"
         style="fill:#1b1c1c;fill-opacity:1;fill-rule:nonzero;stroke:none"
         d="m 1570.13,1881.54 1.14,-8.79 c 4.82,0.57 8.21,4.82 7.66,9.64 -0.57,4.82 -5.11,8.22 -9.93,7.65 l 1.13,-8.5 z m 1.14,-8.79 0,0 -2.27,17.29 2.27,-17.29 z m -1.14,8.79 7.09,4.82 c -2.84,3.96 -8.22,5.1 -12.18,2.27 -3.98,-2.84 -4.83,-8.22 -2,-12.19 l 7.09,5.1 z m 7.09,4.82 0,0 -14.18,-9.92 0,-0.3 14.18,10.22 z m -7.09,-5.1 -7.65,-3.97 c 2.26,-4.25 7.38,-5.95 11.63,-3.97 4.25,2.27 6.23,7.64 3.96,11.89 l -7.94,-3.95 z m -7.65,-3.69 0,-0.28 15.59,7.92" /><path
         id="path26"
         style="fill:#000000;fill-opacity:1;fill-rule:nonzero;stroke:none"
         d="m 1570.13,1881.54 0,-0.28" /><path
         id="path28"
         style="fill:#1b1c1c;fill-opacity:1;fill-rule:nonzero;stroke:none"
         d="m 1572.69,1877.57 -7.09,-4.82 c 2.54,-3.97 8.22,-5.1 12.19,-2.55 3.97,2.83 4.82,8.22 2.26,12.19 l -7.36,-4.82 z m -8.5,-3.12 1.41,-1.7 14.45,9.64 -1.41,1.98 -14.45,-9.92 z m 7.36,4.82 -7.36,-4.82 c 2.83,-3.97 8.22,-5.1 12.18,-2.27 3.97,2.84 5.11,8.22 2.27,12.19 l -7.09,-5.1 z m -8.5,-2.83 1.14,-1.99 14.45,9.92 -1.13,1.7 -14.46,-9.63 z m 7.09,4.81 7.93,3.69 c -1.98,4.25 -7.09,6.24 -11.34,4.25 -4.53,-1.98 -6.52,-7.08 -4.53,-11.62 l 7.94,3.68 z m 8.22,3.12 c 0,0 0,0.29 -0.29,0.57 l -15.87,-7.37 c 0.57,-0.85 1.14,-1.98 1.99,-3.12 l 14.17,9.92 z m 0.85,-0.85 c -0.28,0.29 -0.57,0.57 -0.85,0.85 l -14.17,-9.92 c 0.56,-1.13 1.41,-1.98 2.26,-2.83" /><path
         id="path30"
         style="fill:#000000;fill-opacity:1;fill-rule:nonzero;stroke:none"
         d="m 1572.69,1877.57 c -1.14,1.13 -1.98,2.27 -2.55,3.68 0.84,-1.13 1.7,-2.55 2.55,-3.68" /><path
         id="path32"
         style="fill:#1b1c1c;fill-opacity:1;fill-rule:nonzero;stroke:none"
         d="M 1591.11,1219.93 C 1530.73,1042.76 1425.85,870.129 1290.64,733.5 l 12.47,-12.18 c 137.2,138.61 243.21,313.51 304.72,492.94 l -16.72,5.67 z m 38.27,501.45 c 37.98,-151.37 20.97,-328.54 -38.27,-501.45 l 16.72,-5.67 c 60.1,176.03 77.39,356.6 38.56,511.37 l -17.01,-4.25 z m 8.5,2.27 -8.5,-1.7 c 0.85,-4.82 5.38,-7.94 10.2,-7.09 4.82,0.85 7.94,5.38 7.09,10.2 l -8.79,-1.41 z m -72.28,149.1 c 48.47,-71.72 63.78,-150.52 63.78,-150.8 l 17.29,3.11 c -0.28,0.29 -16.16,82.49 -66.62,157.33 l -14.45,-9.64 z m 7.08,4.82 -6.23,-5.95 c 3.12,-3.69 8.79,-3.69 12.19,-0.57 3.68,3.4 3.97,8.79 0.56,12.47 l -6.52,-5.95 z m -8.5,-3.12 c 0.57,-1.13 1.42,-1.98 2.27,-2.83 l 12.75,11.9 c -0.28,0.28 -0.56,0.57 -0.85,0.85 l -14.17,-9.92 z m -1.98,3.12 c 0.56,-0.85 1.13,-1.99 1.98,-3.12 l 14.17,9.92 c 0,0 0,0.28 -0.28,0.57 l -15.87,-7.37 z m 7.93,3.68 -7.08,-5.1 c 2.83,-3.97 8.22,-4.82 12.19,-1.98 3.96,2.55 4.81,8.22 1.98,12.19 l -7.09,-5.11 z m -7.08,-4.82 0,-0.28 14.17,10.21 -14.17,-9.93 z m 7.08,5.11 0.29,-8.79 c 4.82,0 8.5,4.25 8.5,9.07 -0.28,4.82 -4.25,8.5 -9.07,8.22 l 0.28,-8.5 z m -28.63,-13.89 c 13.89,4.53 28.63,5.1 28.92,5.1 l -0.57,17.29 c -0.57,0 -17.29,-0.57 -33.73,-5.67 l 5.38,-16.72 z m -17.29,-8.51 c 4.25,3.69 10.49,6.52 17.29,8.51 l -5.38,16.72 c -8.51,-2.55 -17.29,-6.52 -23.81,-12.19 l 11.9,-13.04 z m -5.95,6.52 7.09,-5.1 c 2.83,3.97 1.98,9.35 -1.99,12.19 -3.97,2.83 -9.35,1.98 -12.19,-1.99 l 7.09,-5.1 z m -106.02,-299.62 c 24.67,171.5 112.82,293.95 113.11,294.52 l -14.18,10.2 c -0.28,-0.28 -90.99,-126.42 -116.22,-302.17 l 17.29,-2.55 z m -2.55,-18.42 2.55,18.42 -17.29,2.55 -2.55,-18.71 17.29,-2.26 z M 1183.2,933.91 c 167.53,197.86 201.83,439.94 226.49,613.71 l -17.29,2.26 c -24.38,-171.49 -58.39,-410.45 -222.52,-604.63 l 13.32,-11.34 z M 896.051,679.359 C 1003.77,744.281 1096.75,831.578 1183.2,933.91 l -13.32,11.34 C 1084.56,844.34 993,758.172 886.98,694.391 l 9.071,-15.032 z M 519.609,560.309 c 145.704,12.191 268.442,54.14 376.442,119.05 l -9.071,15.032 C 781.25,630.891 661.063,589.5 518.199,577.879 l 1.41,-17.57 z m -0.847,8.793 0,-8.793 c 4.82,0 8.789,3.972 8.789,8.793 0,4.808 -3.969,8.777 -8.789,8.777 l 0,-8.777 z M 300.5,594.891 c 47.902,-35.43 217.98,-34.582 218.262,-34.582 l 0,17.57 c -0.282,0 -164.973,-0.848 -207.782,30.902 l -10.48,-13.89 z m 5.383,7.089 -5.102,-7.371 c 3.969,-2.55 9.352,-1.699 12.192,2.262 2.828,3.969 1.699,9.359 -2.274,12.188 l -4.816,-7.079 z m -54.422,12.75 c 18.711,1.989 49.32,-19.839 49.32,-20.121 l 9.918,14.45 c 0,0 -35.719,25.519 -61.226,22.961 l 1.988,-17.29 z m -1.141,8.79 -0.277,-8.79 c 4.816,-0.281 8.789,3.399 9.066,8.219 0.282,4.821 -3.398,8.789 -8.218,9.36 l -0.571,-8.789 z m -38.828,-37.418 c 10.488,30.617 38.27,28.628 38.551,28.628 l 0.848,17.579 c 0,0 -41.102,2.832 -55.84,-40.539 l 16.441,-5.668 z m -1.703,-5.102 1.703,5.102 -16.441,5.668 -1.699,-5.098 L 209.789,581 Z M 181.16,507.871 c 13.039,27.488 18.711,43.367 28.629,73.129 l -16.437,5.672 c -9.93,-28.91 -15.313,-44.5 -28.071,-71.152 l 15.879,-7.649 z m -7.937,3.68 -1.703,8.789 c -4.821,-0.852 -7.938,-5.391 -7.09,-10.211 0.851,-4.809 5.39,-7.93 10.211,-7.078 l -1.418,8.5 z m 38.828,14.461 c -15.02,-1.703 -28.629,-3.692 -40.531,-5.672 l 3.121,-17.289 c 11.621,1.98 24.941,3.969 39.398,5.668 l -1.988,17.293 z m 49.332,3.968 c -17.863,-0.851 -34.301,-2.269 -49.332,-3.968 l 1.988,-17.293 c 14.742,1.703 30.902,3.121 48.473,3.972 l -1.129,17.289 z M 480.211,471.301 C 437.41,504.75 396.02,537.059 261.383,529.98 l 1.129,-17.289 c 128.129,6.52 166.961,-23.82 206.929,-55 l 10.77,13.61 z M 635.27,411.488 c -87.028,7.09 -121.329,33.731 -155.059,59.813 l -10.77,-13.61 C 505.16,429.91 541.723,401.57 634.133,394.199 l 1.137,17.289 z m 252.562,39.121 C 777.281,408.648 691.68,406.949 635.27,411.488 l -1.137,-17.289 c 58.109,-4.82 146.269,-3.121 259.937,40.25 l -6.238,16.16 z M 1290.64,733.5 C 1134.45,575.621 998.672,492.84 887.832,450.609 l 6.238,-16.16 c 112.82,42.801 250.87,126.992 409.04,286.871" /><path
         id="path34"
         style="fill:#000000;fill-opacity:1;fill-rule:nonzero;stroke:none"
         d="M 1296.88,727.551 C 982.516,409.504 749.223,393.633 634.703,402.98 437.125,418.57 502.605,533.66 261.945,521.473 c -35.722,-1.981 -65.203,-5.672 -88.722,-9.922 13.89,28.633 18.992,44.793 30.043,77.39 12.757,37.129 47.058,34.582 47.058,34.582 22.391,2.27 55.559,-21.543 55.559,-21.543 45.351,-33.738 212.883,-32.886 212.883,-32.886 288.847,23.808 486.134,167.25 657.914,370.488 171.78,203.248 202.11,454.108 227.06,627.878 24.66,173.48 114.53,298.2 114.53,298.2 15.86,14.17 51.02,15.59 51.86,15.87 l 0,-0.28 c 0.57,-1.42 1.42,-2.55 2.55,-3.68 49.61,-73.42 65.2,-153.93 65.2,-153.93 77.67,-309.54 -71.43,-723.956 -341,-996.089" /><path
         id="path36"
         style="fill:#1b1c1c;fill-opacity:1;fill-rule:nonzero;stroke:none"
         d="m 1582.61,1881.82 -8.22,3.12 c -1.42,-4.54 0.85,-9.64 5.39,-11.34 4.53,-1.7 9.63,0.85 11.05,5.39 l -8.22,2.83 z m -8.5,0.28 c 0.28,-0.85 0.56,3.69 0.28,2.84 l 16.44,-5.95 c 0.85,1.7 0.85,3.68 0.85,5.38 l -17.57,-2.27 z m 4.25,-5.1 c 1.98,-0.57 -4.54,8.22 -4.25,5.1 l 17.57,2.27 c -0.85,5.1 -3.97,7.94 -8.79,9.36 l -4.53,-16.73 z m -2.27,0 2.27,0 4.53,16.73 c -2.26,0.85 -5.1,0.85 -7.93,0.85 l 1.13,-17.58 z m -0.57,8.79 0.57,-8.79 c 4.82,0.28 8.5,4.54 8.22,9.36 -0.28,4.81 -4.53,8.5 -9.35,8.22 l 0.56,-8.79 z m -13.89,-11.91 c 3.41,1.42 9.64,2.84 14.46,3.12 l -1.13,17.58 c -6.52,-0.57 -15.31,-2.56 -19.56,-4.26 l 6.23,-16.44 z m -3.11,8.22 3.4,-8.22 c 4.25,1.99 6.52,6.81 4.82,11.34 -1.7,4.54 -6.81,6.8 -11.34,5.1 l 3.12,-8.22 z m 2.55,-8.22 0.85,0 -6.52,16.44 -0.57,-0.28 6.24,-16.16 z m -28.63,-7.65 c 17,3.12 21.82,4.82 28.63,7.65 l -6.24,16.16 c -6.24,-2.27 -10.2,-3.97 -25.79,-6.8 l 3.4,-17.01 z m -15.59,-5.95 c 3.68,2.55 8.78,4.53 15.59,5.95 l -3.4,17.01 c -9.36,-1.7 -17.01,-4.82 -22.4,-8.79 l 10.21,-14.17 z m -4.54,-5.67 c 0.28,1.7 1.7,3.4 4.54,5.67 l -10.21,14.17 c -7.37,-5.39 -11.34,-11.91 -11.62,-18.71 l 17.29,-1.13 z m -0.85,3.4 c -0.85,1.13 0.85,-4.54 0.85,-3.4 l -17.29,1.13 c -0.28,-2.83 0.57,-5.1 1.7,-7.37 l 14.74,9.64 z m -7.37,-4.82 7.37,4.82 c -2.83,3.97 -8.22,5.1 -12.19,2.55 -3.97,-2.55 -5.1,-7.94 -2.55,-12.19 l 7.37,4.82 z m 3.12,7.37 c -1.42,0.28 5.38,-4.25 4.25,-2.55 l -14.74,-9.64 c 2.55,-3.4 6.24,-5.1 10.49,-5.1 l 0,17.29 z m 2.27,0.57 c -0.85,-0.29 -1.7,-0.57 -2.27,-0.57 l 0,-17.29 c 2.55,0 5.1,0.57 7.94,1.42 l -5.67,16.44 z m 2.83,-8.22 -2.55,8.22 c -4.82,-1.42 -7.09,-6.24 -5.67,-10.77 1.42,-4.82 6.52,-7.37 11.06,-5.67 l -2.84,8.22 z m 7.65,14.45 c -1.98,-2.26 -6.52,-4.82 -10.2,-6.23 l 5.39,-16.44 c 6.52,1.98 14.45,6.8 18.14,11.33 l -13.33,11.34 z m 14.74,9.07 c -6.52,-1.41 -11.05,-4.53 -14.74,-9.07 l 13.33,-11.34 c 1.41,1.71 3.12,2.84 5.95,3.69 l -4.54,16.72 z m 22.11,1.42 c -9.63,0.29 -16.44,0 -22.11,-1.42 l 4.54,-16.72 c 3.68,0.85 9.07,1.13 17.01,0.57 l 0.56,17.57 z m 18.43,8.79 c 0,0 -5.95,-9.36 -18.43,-8.79 l -0.56,-17.57 c 22.39,-1.14 33.73,16.72 33.73,16.72" /><path
         id="path38"
         style="fill:#000000;fill-opacity:1;fill-rule:nonzero;stroke:none"
         d="m 1582.61,1881.82 c 0,0 -8.5,-13.61 -26.08,-12.76 -17.57,0.85 -24.66,-1.13 -30.05,-7.37 -5.1,-6.52 -23.24,-14.17 -22.67,-6.52 0.28,7.94 10.2,16.45 26.93,19.56 16.72,3.12 20.97,4.82 27.78,7.37 7.08,2.84 26.64,6.81 24.09,-0.28" /><path
         id="path40"
         style="fill:#1b1c1c;fill-opacity:1;fill-rule:nonzero;stroke:none"
         d="m 217.727,612.184 3.398,-7.942 c 4.25,1.699 6.52,6.809 4.539,11.34 -1.699,4.539 -6.809,6.52 -11.34,4.82 l 3.403,-8.218 z m -13.614,-32.321 c 5.961,16.16 7.371,20.41 17.012,24.379 l -6.801,16.16 c -16.437,-6.8 -18.711,-12.761 -26.648,-34.3 l 16.437,-6.239 z m -25.508,-60.66 c 13.891,29.199 20.981,47.91 25.508,60.66 l -16.437,6.239 c -4.531,-12.469 -11.051,-30.61 -24.942,-59.239 l 15.871,-7.66 z m 8.79,-94.961 c 0,0 -40.25,29.77 -8.79,94.961 l -15.871,7.66 c -37.418,-78.242 14.172,-116.222 14.172,-116.511 l 10.489,13.89 z m -5.098,-6.801 -8.512,-2.269 c 1.418,-4.82 6.238,-7.649 10.77,-6.231 4.539,1.129 7.371,5.95 5.961,10.77 l -8.219,-2.27 z m -7.371,58.68 c -5.391,-26.078 -4.262,-49.891 -1.141,-60.949 l 16.731,4.539 c -2.551,9.07 -3.403,29.48 1.699,52.723 l -17.289,3.687 z m 23.238,55.563 c -12.187,-17.582 -19.269,-37.422 -23.238,-55.563 l 17.289,-3.687 c 3.398,16.16 9.64,33.726 20.41,49.32 l -14.461,9.93 z m 11.34,77.949 c 0,-0.281 13.609,-41.391 -11.34,-77.949 l 14.461,-9.93 c 29.762,43.656 13.32,92.976 13.32,93.258" /><path
         id="path42"
         style="fill:#000000;fill-opacity:1;fill-rule:nonzero;stroke:none"
         d="m 217.727,612.184 c 0,0 15.019,-45.352 -12.473,-85.614 -27.5,-39.957 -27.777,-91.84 -22.957,-109.129 0,0 -45.922,34.02 -11.633,105.731 34.59,71.719 25.52,80.219 47.063,89.012" /><path
         id="path44"
         style="fill:#f0b400;fill-opacity:1;fill-rule:nonzero;stroke:none"
         d="m 166.984,499.078 c 2.27,4.539 4.25,8.5 6.243,12.473 23.519,4.25 53,7.937 88.718,9.918 240.66,12.191 175.18,-102.891 372.758,-118.481 114.524,-9.359 347.813,6.52 662.177,324.563 269.57,272.129 418.67,686.549 341.01,996.099 0,0 -15.59,80.5 -65.21,153.92 8.23,-8.79 28.07,-13.04 28.07,-13.04 140.04,-61.51 176.89,-251.72 176.89,-251.72 C 1855.3,1303.27 1691.75,902.449 1436.63,616.719 1181.5,330.699 910.516,218.449 705.855,197.758 500.906,176.777 454.984,307.461 401.414,384.559 c -53.578,77.39 -142.59,63.5 -142.59,63.5 -29.48,3.679 -76.527,-30.621 -76.527,-30.621 0,0 -34.301,44.511 -15.313,81.64" /><path
         id="path46"
         style="fill:#e6ba09;fill-opacity:1;fill-rule:nonzero;stroke:none"
         d="m 1570.13,1881.54 0,-0.28" /><path
         id="path48"
         style="fill:#e6ba09;fill-opacity:1;fill-rule:nonzero;stroke:none"
         d="m 1572.69,1877.57 c -1.14,1.13 -1.98,2.27 -2.55,3.68 0.84,-1.13 1.7,-2.55 2.55,-3.68" /><path
         id="path50"
         style="fill:#f9df1a;fill-opacity:1;fill-rule:nonzero;stroke:none"
         d="M 1296.88,727.551 C 982.516,409.504 749.223,393.633 634.703,402.98 437.125,418.57 502.605,533.66 261.945,521.473 c -35.722,-1.981 -65.203,-5.672 -88.722,-9.922 13.89,28.633 18.992,44.793 30.043,77.39 12.757,37.129 47.058,34.582 47.058,34.582 22.391,2.27 55.559,-21.543 55.559,-21.543 45.351,-33.738 212.883,-32.886 212.883,-32.886 288.847,23.808 486.134,167.25 657.914,370.488 171.78,203.248 202.11,454.108 227.06,627.878 24.66,173.48 114.53,298.2 114.53,298.2 15.86,14.17 51.02,15.59 51.86,15.87 l 0,-0.28 c 0.57,-1.42 1.42,-2.55 2.55,-3.68 49.61,-73.42 65.2,-153.93 65.2,-153.93 77.67,-309.54 -71.43,-723.956 -341,-996.089" /><path
         id="path52"
         style="fill:#492b1f;fill-opacity:1;fill-rule:nonzero;stroke:none"
         d="m 1582.61,1881.82 c 0,0 -8.5,-13.61 -26.08,-12.76 -17.57,0.85 -24.66,-1.13 -30.05,-7.37 -5.1,-6.52 -23.24,-14.17 -22.67,-6.52 0.28,7.94 10.2,16.45 26.93,19.56 16.72,3.12 20.97,4.82 27.78,7.37 7.08,2.84 26.64,6.81 24.09,-0.28" /><path
         id="path54"
         style="fill:#492b1f;fill-opacity:1;fill-rule:nonzero;stroke:none"
         d="m 217.727,612.184 c 0,0 15.019,-45.352 -12.473,-85.614 -27.5,-39.957 -27.777,-91.84 -22.957,-109.129 0,0 -45.922,34.02 -11.633,105.731 34.59,71.719 25.52,80.219 47.063,89.012" /><path
         id="path56"
         style="fill:#fac691;fill-opacity:1;fill-rule:evenodd;stroke:none"
         d="m 983.645,976.434 c 0,0 -117.918,45.636 -147.399,52.156 -26.93,5.95 -58.961,12.47 -85.32,-8.79 -39.121,-31.175 -29.199,-50.456 -64.071,-64.058 -34.859,-13.887 -68.597,-16.437 -103.46,-42.519 -35.43,-26.078 -55.559,-44.789 -58.11,-71.438 -4.25,-42.801 186.231,-177.16 216,-191.332 29.762,-14.18 82.199,-93.258 106.86,-123.027 24.671,-30.051 62.371,-98.641 88.441,-130.113 25.801,-31.458 73.714,-78.52 99.784,-69.161 25.79,9.633 73.99,14.743 66.9,53 -6.81,38.563 -56.41,136.071 -83.9,177.453 -27.784,41.11 -61.804,82.489 -74.843,113.387 -13.043,30.613 -47.902,107.153 -61.511,123.594 -13.61,16.719 -62.649,57.539 -81.071,64.906 -18.14,7.371 -34.3,19.281 -34.3,19.281 0,0 101.48,-48.468 115.089,-65.199 13.602,-16.441 33.161,-47.621 49.891,-75.398 16.723,-28.063 54.141,-88.723 73.695,-119.91 19.28,-31.18 51.59,-73.981 81.64,-110.551 30.05,-36.563 75.68,-66.039 107.15,-52.152 26.37,11.621 49.6,33.441 49.03,60.371 -1.41,65.48 -48.18,167.25 -58.1,186.808 -9.92,19.563 -33.74,44.781 -64.91,93.821 -12.76,20.41 -42.24,90.71 -65.49,109.703 -28.91,23.82 -62.074,60.668 -71.995,69.168" /><path
         id="path58"
         style="fill:#fac691;fill-opacity:1;fill-rule:evenodd;stroke:none"
         d="m 991.582,1140.56 c -28.059,-4.25 -54.988,0 -89.008,-24.38 -34.582,-24.38 -54.14,-41.95 -56.972,-68.03 -4.258,-41.67 91.839,-94.111 120.75,-123.591 28.632,-15.02 81.068,-99.5 104.878,-129.539 23.81,-30.329 60.1,-98.649 85.33,-130.399 24.94,-31.75 71.43,-79.371 96.66,-70.859 25.51,8.5 72.28,11.898 65.76,49.597 -6.52,37.7 -54.14,135.219 -80.79,176.321 -9.35,14.449 -18.99,29.761 -26.64,45.64 -3.4,7.078 -5.67,14.168 -8.51,21.258 -3.68,9.352 -7.08,18.703 -10.77,26.641 -1.7,3.402 -3.4,7.371 -5.1,11.062 -2.55,5.668 -5.67,11.047 -8.79,16.149 -3.68,5.961 -7.37,11.629 -11.05,16.73 -1.7,2.27 -3.69,4.25 -5.1,6.52 -75.41,113.38 -61.52,108.85 -170.648,176.88" /><path
         id="path60"
         style="fill:#fac691;fill-opacity:1;fill-rule:evenodd;stroke:none"
         d="m 459.238,657.535 c 15.309,-23.238 56.981,-49.89 87.309,-60.379 30.609,-10.199 57.262,-40.82 85.891,-56.691 28.339,-15.867 64.628,-45.918 112.531,-5.949 36.847,30.609 19.558,82.769 13.886,92.968 -5.667,10.493 -41.949,49.332 -58.957,62.653 -17.293,13.039 -49.601,36 -62.929,51.308 -13.321,15.301 -30.332,46.481 -62.641,60.371 -32.32,13.891 -83.91,17.008 -112.82,-12.191 -28.629,-29.187 -30.903,-89 -2.27,-132.09" /><path
         id="path62"
         style="fill:#000000;fill-opacity:1;fill-rule:nonzero;stroke:none"
         d="m 837.094,1032.84 c 29.761,-6.52 145.98,-51.586 147.972,-52.438 0.571,0 0.848,-0.281 1.418,-0.57 3.68,-3.117 10.2,-9.918 18.696,-18.711 14.75,-14.738 34.87,-35.148 53.3,-50.449 16.72,-13.891 36,-52.16 50.75,-81.359 6.22,-12.469 11.61,-23.239 15.59,-29.192 16.14,-25.797 30.32,-44.789 41.66,-59.816 10.48,-14.172 18.43,-24.942 23.25,-34.582 6.52,-12.469 27.5,-57.821 42.52,-106.301 8.79,-28.34 15.59,-57.82 16.16,-82.488 0.27,-13.602 -5.11,-25.789 -13.61,-36.563 -9.35,-11.906 -23.25,-21.258 -37.71,-27.777 -16.16,-7.09 -35.14,-3.973 -53.86,5.097 -21.25,10.211 -42.23,28.063 -58.68,48.192 -15.59,18.988 -32.03,39.969 -46.76,59.808 -13.61,18.43 -25.79,36.282 -35.15,51.313 -10.484,16.719 -26.644,42.801 -42.527,68.309 -12.468,20.128 -24.09,39.121 -31.457,51.589 -8.222,13.891 -17.293,28.629 -25.801,41.672 -8.781,13.328 -16.718,25.231 -23.519,33.449 -3.691,4.25 -14.461,11.622 -28.07,19.282 14.738,-12.192 28.629,-24.953 35.148,-32.891 5.672,-7.082 15.031,-24.371 25.231,-44.223 13.89,-28.339 29.199,-62.359 36.851,-80.5 8.789,-20.687 27.5,-46.488 47.059,-73.976 9.355,-12.762 18.715,-25.801 27.495,-38.84 15.02,-22.391 36.29,-61.23 54.13,-98.363 15.03,-31.75 27.23,-62.36 30.62,-80.5 6.24,-35.149 -26.92,-45.078 -54.42,-53.008 -5.68,-1.699 -11.06,-3.121 -15.59,-4.82 -12.47,-4.539 -28.63,1.699 -45.356,13.039 -21.539,15.019 -44.219,38.832 -59.25,57.261 -13.321,16.438 -29.758,41.95 -45.629,67.18 -15.59,24.379 -30.899,48.469 -42.809,62.93 -6.519,7.937 -14.449,18.418 -23.242,30.328 -26.359,35.152 -60.949,81.351 -81.918,91.562 -18.711,8.789 -99.781,64.34 -157.32,115.368 -36,31.75 -62.93,62.363 -61.231,80.222 1.41,14.449 7.371,26.641 17.86,38.547 9.921,11.621 23.808,22.961 41.949,36.281 24.09,17.86 47.621,24.95 71.429,32.032 11.063,3.121 22.114,6.519 33.172,10.781 17.289,6.797 22.668,15.297 29.758,26.359 6.524,10.199 14.461,22.386 33.172,37.416 13.891,11.05 29.48,15.02 45.07,15.3 15.02,0.29 30.039,-2.83 43.649,-5.95 m 144.281,-60.375 c -9.629,3.687 -118.199,45.635 -145.98,51.875 -13.321,3.11 -27.782,5.95 -41.95,5.67 -13.609,-0.29 -27.5,-3.69 -39.691,-13.61 -17.57,-13.89 -24.938,-25.505 -31.18,-35.146 -7.937,-12.191 -13.89,-21.832 -34.019,-29.762 -11.328,-4.539 -22.668,-7.66 -33.731,-11.058 -22.961,-6.801 -45.918,-13.61 -68.879,-30.61 -17.289,-13.043 -31.179,-24.101 -40.539,-34.871 -9.07,-10.769 -14.453,-21.262 -15.59,-33.73 -1.703,-14.461 24.098,-42.52 58.11,-72.852 57.258,-50.457 136.918,-105.449 155.34,-113.957 23.25,-11.051 58.398,-58.391 85.039,-94.109 9.07,-12.184 17.289,-22.961 23.25,-30.332 12.191,-15.02 27.781,-39.11 43.371,-63.782 15.871,-24.937 32.027,-50.449 45.07,-66.039 14.738,-18.14 36.559,-41.109 57.539,-55.558 14.165,-9.922 27.785,-15.59 37.125,-12.192 4.82,1.7 10.22,3.403 16.16,5.102 24.11,7.09 53.29,15.59 48.2,43.09 -3.13,17.008 -15.02,46.769 -29.77,77.949 -17.57,36.852 -38.84,75.398 -53.57,97.512 -8.79,13.039 -18.145,25.797 -27.215,38.547 -19.84,27.781 -38.828,54.152 -47.91,75.691 -7.649,17.859 -22.668,51.59 -36.852,79.941 -9.629,19.547 -18.699,36.278 -24.09,42.52 -7.09,8.777 -24.09,24.09 -41.097,37.699 -15.032,12.192 -30.051,22.668 -37.993,26.07 -18.988,7.379 -35.429,19.848 -35.429,19.848 -1.981,1.41 -2.27,3.973 -0.848,5.953 1.129,1.699 3.399,2.27 5.391,1.418 0.277,0 102.328,-49.039 116.5,-66.328 6.797,-8.512 15.308,-20.41 24.09,-34.019 8.507,-13.321 17.578,-28.063 26.078,-42.243 7.66,-12.468 18.992,-31.461 31.468,-51.3 14.743,-23.809 30.891,-50.457 42.227,-68.321 9.36,-14.738 21.55,-32.308 34.88,-50.738 14.73,-19.84 30.89,-40.531 46.48,-59.238 15.59,-19.282 35.71,-36.282 55.57,-45.922 16.71,-8.219 33.16,-11.059 46.48,-5.102 13.32,5.953 26.07,14.742 34.59,25.512 7.36,9.07 11.89,19.559 11.61,30.891 -0.56,23.531 -7.09,52.16 -15.59,79.937 -15.02,47.91 -35.72,92.692 -41.95,104.883 -4.53,9.07 -12.48,19.559 -22.68,33.449 -11.34,15.309 -25.8,34.578 -41.94,60.102 -3.97,6.226 -9.65,17.289 -16.16,30.039 -14.18,28.347 -33.18,65.769 -48.47,78.519 -18.71,15.59 -38.84,36 -53.867,51.309 -7.937,7.941 -14.168,14.172 -17.578,17.293" /><path
         id="path64"
         style="fill:#b72215;fill-opacity:1;fill-rule:nonzero;stroke:none"
         d="m 1282.98,447.773 c 5.95,33.731 -57.25,128.129 -92.12,170.079 0,0 -19,10.492 -38.56,9.351 28.36,-35.711 108.86,-140.883 125.86,-190.199 2.27,3.117 3.98,6.797 4.82,10.769" /><path
         id="path66"
         style="fill:#cf271a;fill-opacity:1;fill-rule:nonzero;stroke:none"
         d="m 1152.31,627.203 c -6.8,-0.277 -13.61,-1.976 -19.84,-5.949 -23.81,-15.879 -36.85,-37.418 -33.73,-52.438 4.53,-21.832 37.7,-71.441 47.05,-89.863 9.35,-18.707 37.98,-56.976 48.47,-65.769 9.36,-7.93 66.33,-1.129 83.91,23.531 -17.01,49.609 -97.51,154.769 -125.86,190.488" /><path
         id="path68"
         style="fill:#b72215;fill-opacity:1;fill-rule:nonzero;stroke:none"
         d="m 1149.47,316.813 c 5.67,4.539 -41.95,112.25 -84.47,151.648 0,0 -27.5,21.551 -50.46,12.191 -1.98,-0.562 -3.68,-1.41 -5.67,-2.269 25.23,-18.422 90.99,-72.281 140.6,-161.57" /><path
         id="path70"
         style="fill:#cf271a;fill-opacity:1;fill-rule:nonzero;stroke:none"
         d="m 1008.88,478.387 c -19.286,-8.223 -30.056,-15.871 -30.903,-35.153 -0.852,-20.976 11.058,-40.82 28.913,-67.179 5.95,-9.071 18.15,-25.231 36.56,-46.77 30.91,-36.847 37.14,-46.488 58.41,-43.66 34,4.82 44.21,23.25 47.62,31.191 -49.62,89.289 -115.37,143.141 -140.6,161.571" /><path
         id="path72"
         style="fill:#000000;fill-opacity:1;fill-rule:nonzero;stroke:none"
         d="m 990.734,1136.02 c -6.242,-0.84 -12.191,-1.41 -18.14,-1.98 -20.981,-1.7 -42.242,-3.41 -67.473,-21.25 -17,-12.2 -30.328,-22.41 -39.68,-32.9 -9.07,-10.19 -14.168,-20.41 -15.589,-32.3 -0.848,-8.23 2.832,-17.02 9.351,-25.8 l -9.64,-1.41 c -5.95,9.62 -9.348,18.98 -8.219,28.05 1.418,14.18 7.371,25.79 17.578,37.13 9.641,11.07 23.531,21.83 41.101,34.3 27.211,19.28 49.61,21.27 71.719,22.96 6.52,0.57 12.75,1.14 19.27,1.99 0.851,0.28 1.992,0 2.84,-0.57 94.388,-58.68 97.508,-63.78 144.278,-135.78 7.66,-11.897 16.73,-25.507 27.5,-42.237 0.85,-1.129 1.7,-2.258 2.83,-3.399 0.85,-0.851 1.7,-1.98 2.55,-3.121 1.7,-2.551 3.4,-5.098 5.39,-7.93 l 0.28,-0.289 c 1.7,-2.832 3.7,-5.66 5.39,-8.781 l 0.57,-1.14 c 3.11,-4.821 5.95,-9.918 8.5,-15.297 l 2.27,-5.114 0.28,-0.277 2.55,-5.672 c 2.84,-5.949 5.39,-12.469 7.94,-18.988 0.57,-1.992 1.13,-3.692 2.83,-7.942 1.14,-2.55 1.99,-4.82 2.55,-6.8 1.99,-4.821 3.69,-9.637 5.96,-14.457 3.68,-7.653 7.93,-15.301 12.47,-22.68 4.54,-7.652 9.07,-15.023 13.89,-22.113 14.46,-22.668 35.15,-61.508 52.16,-98.36 14.45,-31.75 26.08,-62.078 29.19,-79.648 5.96,-34.871 -26.64,-43.371 -53.57,-50.461 -5.39,-1.41 -10.49,-2.828 -15.02,-4.25 -6.81,-2.27 -15.03,-1.129 -23.53,2.269 l -1.42,10.493 c 8.5,-4.543 16.16,-6.524 22.11,-4.543 4.83,1.703 10.21,3.121 15.87,4.543 23.25,5.949 51.6,13.32 47.06,40.25 -3.12,17.007 -14.46,46.769 -28.91,77.668 -16.73,36.558 -37.14,75.121 -51.31,97.23 -4.82,7.371 -9.64,14.738 -14.17,22.391 -4.54,7.648 -8.79,15.59 -12.76,23.531 -2.27,5.098 -4.25,10.199 -6.24,15.019 -0.85,2.547 -1.7,4.821 -2.26,6.52 l -0.29,0 -2.83,7.938 c -2.55,6.523 -5.1,13.042 -7.66,18.71 l -2.83,5.672 0,0.278 -2.27,5.101 c -2.27,5.102 -5.1,9.641 -7.93,14.739 l -0.86,1.14 c -1.7,2.832 -3.4,5.383 -5.1,8.223 l -0.28,0.277 c -1.7,2.551 -3.4,5.102 -5.1,7.652 -0.85,0.848 -1.42,1.7 -2.27,2.547 -1.13,1.422 -2.27,2.551 -3.12,4.262 -10.77,15.871 -19.84,30.039 -27.78,42.226 -45.35,70.02 -48.75,75.4 -140.026,132.38" /><path
         id="path74"
         style="fill:#cf271a;fill-opacity:1;fill-rule:nonzero;stroke:none"
         d="m 1224.59,748.242 c -19.28,-7.648 -29.76,-14.738 -30.9,-33.449 -1.13,-20.41 10.21,-40.25 26.93,-66.609 5.67,-9.071 17.58,-25.231 34.87,-47.059 29.48,-36.852 35.71,-46.77 56.12,-44.5 25.52,2.828 37.14,13.598 43.09,22.391 1.98,2.547 3.12,4.82 4.25,6.797 -67.18,68.601 -110.27,143.441 -134.36,162.429" /><path
         id="path76"
         style="fill:#b72215;fill-opacity:1;fill-rule:nonzero;stroke:none"
         d="m 1358.95,585.82 c 5.39,3.969 -39.12,110.828 -79.94,150.797 0,0 -26.64,22.113 -49.04,13.613 -1.98,-0.57 -3.68,-1.421 -5.38,-1.98 5.95,-4.82 10.2,-16.73 18.42,-26.93 21.55,-25.8 52.44,-64.07 84.76,-117.64 4.53,-7.66 23.53,-15.313 31.18,-17.86" /><path
         id="path78"
         style="fill:#000000;fill-opacity:1;fill-rule:nonzero;stroke:none"
         d="m 462.922,660.086 c 6.801,-10.77 19.84,-22.109 34.582,-32.598 16.437,-11.05 35.148,-20.691 50.457,-26.082 18.711,-6.23 35.723,-19.84 52.723,-32.879 11.058,-9.07 22.398,-17.859 33.738,-24.379 3.398,-1.703 6.519,-3.679 9.629,-5.671 25.801,-15.301 57.832,-34.008 98.082,-0.559 l 0.289,0 c 12.469,10.48 18.422,23.809 20.121,37.129 3.398,22.391 -4.25,44.219 -7.652,50.461 -2.84,5.097 -13.61,17.57 -25.508,30.328 l -3.121,3.121 17.859,-6.238 c 9.07,-9.922 16.152,-18.711 18.422,-22.961 3.687,-7.09 12.469,-31.18 8.789,-56.129 -2.269,-15.024 -8.789,-30.332 -23.238,-42.524 l -0.293,0 c -45.071,-37.41 -79.938,-16.718 -108,0 -3.399,1.993 -6.797,3.973 -9.641,5.391 -11.898,6.801 -23.519,15.871 -35.148,24.942 -16.149,12.757 -32.309,25.8 -49.602,31.75 -16.437,5.39 -35.719,15.589 -52.726,27.21 -15.871,10.778 -29.481,23.25 -37.133,34.868 -14.738,22.113 -21.539,48.191 -20.981,72.851 0.571,25.512 8.512,49.039 23.813,64.629 13.89,13.891 32.32,20.981 51.597,22.961 9.633,1.141 19.274,0.852 28.622,-0.281 l 1.421,-4.539 4.25,-5.102 c -10.769,1.992 -22.113,2.551 -33.16,1.133 -17.582,-1.699 -34.3,-7.93 -46.211,-20.402 -13.89,-13.887 -21.261,-35.149 -21.539,-58.399 -0.57,-22.961 5.95,-47.621 19.559,-68.031" /><path
         id="path80"
         style="fill:#cf271a;fill-opacity:1;fill-rule:nonzero;stroke:none"
         d="m 625.914,659.805 c -21.262,-17.571 -28.351,-30.332 -15.871,-52.16 12.191,-21.54 75.402,-77.672 96.371,-90.141 15.031,-9.352 38.27,1.98 52.16,17.859 -29.761,50.461 -101.48,121.61 -115.941,135.492 -5.098,-2.55 -10.481,-6.23 -16.719,-11.05" /><path
         id="path82"
         style="fill:#b72215;fill-opacity:1;fill-rule:nonzero;stroke:none"
         d="m 769.914,565.125 c -4.539,26.082 -81.922,94.391 -94.68,105.449 -7.082,5.672 -17.57,7.942 -32.601,0.281 14.461,-13.89 86.18,-85.039 115.941,-135.488 8.219,9.348 13.039,20.41 11.34,29.758" /></g></g></svg>