<svg width="169.1px4" height="186.95px4" viewBox="0 0 179.1 196.95" xmlns="http://www.w3.org/2000/svg" xmlns:xlink="http://www.w3.org/1999/xlink">
  <defs>
    <radialGradient gradientUnits="userSpaceOnUse" r="819.2" cx="0" cy="0" spreadMethod="pad" gradientTransform="matrix(0.0745697021484375 0 0 -0.0745697021484375 86.1 97.75)" id="gradient0">
      <stop offset="0.4117647058823529" stop-color="#88391c"/>
      <stop offset="0.8627450980392157" stop-color="#747048"/>
      <stop offset="0.9215686274509803" stop-color="#73734a"/>
    </radialGradient>
  </defs>
  <g>
    <path stroke="none" fill="#000000" d="M130.05 41.65 Q129.3 40.25 128.9 38.5 125.7 38.2 124.75 39.55 123.2 41.65 124.75 48.3 128.05 62.9 139.15 68.7 149.85 74.4 167.7 71.4 L166.7 66.8 Q165.25 61.05 163.1 56.5 160.25 50.65 156.65 47.7 152.35 44.15 147 44.85 144.35 45.25 141.55 46.6 L139.45 47.3 Q136.5 47.95 133.9 46.3 131.5 44.8 130.05 41.65 M130.4 36.55 L130.9 37.2 Q131.25 39 132.05 40.7 133.3 43.25 135.05 44.4 136.85 45.5 139 45.15 L140.55 44.55 Q143.95 43 146.65 42.65 153 41.75 158.1 45.95 162.05 49.15 165.1 55.55 167.35 60.25 168.9 66.25 L170.1 72.1 Q170.2 72.55 169.9 72.95 169.65 73.35 169.15 73.4 149.8 76.9 138.1 70.7 126.15 64.45 122.55 48.75 120.8 41.15 122.9 38.25 124.75 35.6 129.95 36.35 L129.95 36.4 130.4 36.55 M169 72.3 L169.15 73.4 169 72.3"/>
    <path stroke="none" fill="#72724b" d="M129.8 37.45 Q130.9 42.65 133.95 45 137.15 47.45 141.05 45.6 154.9 38.95 163.2 54.2 167.6 62.35 169 72.3 148.65 75.95 137 68.8 126.9 62.6 123.65 48.55 122 41.4 123.8 38.9 125.3 36.85 129.8 37.45"/>
    <path stroke="none" fill="#b96554" d="M156.55 67.9 Q150.45 68.6 143 63.4 134.65 57.55 130.85 48 135.55 52.3 140.8 54.05 L148.6 55.75 Q152.35 56.5 153.95 58.55 156.05 61.2 156.55 67.9"/>
    <path stroke="none" fill="#464612" d="M131.7 46.35 Q135.35 56.5 144.2 62.4 151.65 67.4 161.65 68.75 150.1 69.75 138.75 61.6 133.7 57.95 131.7 54.05 129.55 49.75 131.7 46.35"/>
    <path stroke="none" fill="#51669c" d="M25.95 93.55 L54.25 94.2 92.8 90.05 99.85 88.55 105.25 87.35 Q110.5 86.55 115.05 87.4 119.9 88.35 127.2 91.75 134.1 95 138.7 99.05 143.65 103.4 148.05 110.45 155.15 115.35 158.95 121.7 163.45 129.15 160.85 135.25 156.85 144.65 143.25 157.65 L139.4 163.4 Q136.8 166.75 132.1 171.25 118.2 184.45 106.5 186.85 90.3 190.2 64.7 183.2 L56.5 181.05 Q51.6 179.7 48.25 178.4 39.95 175.1 32.05 169.8 23.55 164.1 16.75 156.95 7.15 147 10.35 138.3 9.35 134.7 9.3 133.75 9.3 132.65 11.4 130.2 10 125.55 12.7 123.7 14.3 122.6 20.8 121.35 20.2 119.65 18.5 117.1 17.35 115.35 17.35 113.1 17.35 109.15 21.05 103.45 25.25 97.05 25.95 93.55"/>
    <path stroke="none" fill="#344876" d="M20.65 120.95 L21.3 121.4 Q20.85 121.55 21.1 122.3 21.35 123.1 21 123.3 L16.65 125.15 Q14.4 126.3 14.55 127.85 14.75 129.75 17.8 132.3 L24.6 137.35 Q38 147 45.55 151.7 L53.1 156.4 56.25 158.6 Q56.95 159.85 56.8 160.85 56.6 162 55.1 161.1 L49.7 158.25 43.3 154.5 23.05 140.9 Q21.3 139.65 18.3 137 L13.45 133.25 Q12.55 134.65 12.95 135.4 L14.1 137.45 Q14.95 140 20.6 145.75 L32.45 157.25 41.25 166.25 Q44.75 170.05 46.65 171.65 43.05 169.9 38.4 166.85 32.65 163.05 27.75 158.7 23.15 154.6 18.9 149.4 L12.85 141.5 Q11.7 146.85 15.75 151.65 18.1 154.5 24.6 160.05 30.25 165.4 37.65 169.5 44.45 173.35 54.1 176.8 67.65 181.65 76.2 183.35 91.7 186.45 103.45 183.5 111.9 181.35 118.6 178.05 127.85 173.5 127.95 169.05 112.45 175.9 94.5 177.25 72.7 178.85 55.15 171.1 46.5 167.3 36.75 158.1 L17.65 139.05 Q36.55 153.45 42.2 157.05 58.5 167.5 72.75 170.4 83.7 172.7 93.9 170.95 L103.5 168.45 Q109.45 166.65 109.85 166.95 110.8 167.7 108.9 169.3 106.95 170.95 107.2 171.2 107.8 171.8 114.45 169.35 125.95 165.25 135.6 159.3 148.2 151.55 152.4 143.9 153.1 142.6 151.1 144 L145.35 148.6 Q133.4 158.35 127.8 160.75 120.4 163.95 111.1 165.85 102.9 167.5 94.75 167.8 L84.2 168.15 74.05 168.95 Q69.75 169.45 57.45 158.7 69.1 161.7 79.15 162.3 90.8 162.95 102.4 161.05 115 158.95 124.6 154.25 132.65 150.3 143.35 141.35 155.25 131.3 157 125.45 157.45 124 155.95 120.65 154.55 117.4 151.9 113.45 157.5 118.4 160.05 123.75 163.05 130.05 160.85 135.25 156.85 144.65 143.25 157.65 L139.4 163.4 Q136.8 166.75 132.1 171.25 118.2 184.45 106.5 186.85 90.3 190.2 64.7 183.2 L56.5 181.05 Q51.6 179.7 48.25 178.4 39.95 175.1 32.05 169.8 23.55 164.1 16.75 156.95 7.15 147 10.35 138.3 9.35 134.7 9.3 133.75 9.3 132.65 11.4 130.2 10 125.55 12.7 123.7 14.3 122.6 20.8 121.35 L20.65 120.95"/>
    <path stroke="none" fill="#344876" d="M21.4 102.95 Q20.1 107.25 19.8 109.4 19.3 112.7 20.15 115.25 23.35 124.55 36.1 131.45 47.15 137.35 67 142.2 78.95 145.1 91.85 144.1 104.8 143.15 115.4 138.5 117.35 137.65 119.7 136.1 L124.05 133.2 Q129.5 129.75 131 129.5 133.2 129.1 131.1 133.7 126.75 143.35 130.35 141.95 134.25 140.5 137.85 138.1 145.05 133.1 146.4 125.8 147.6 119.2 143.95 111.85 138.5 100.55 121.6 89.75 L120.6 89 Q123.75 90.15 127.2 91.75 131.65 93.85 134.95 96.1 L142.9 106.3 Q147.7 113 148.85 116.85 151.95 127 146.55 134.75 142.45 140.5 131.75 144.35 122.7 147.6 110.25 149.05 95.6 150.8 84.4 149.05 72.25 146.45 63.4 145.55 60.35 145.25 59.8 145.85 59.4 146.3 60.4 147.85 63.1 151.85 62.3 152.7 61.8 153.2 59 150.8 56.05 148.3 55.55 146.5 54.3 142.05 51.1 141.5 L48.05 141.15 Q46.1 140.85 44.6 139.9 L42.25 137.8 39.95 135.7 Q37.45 134.05 31.35 131.6 25.95 129.4 23.75 127.5 21.3 125.35 19.55 121.6 L20.8 121.35 Q20.2 119.65 18.5 117.1 17.3 115.35 17.35 113.1 17.35 110.5 18.6 107.75 19.35 106.05 21.4 102.95"/>
    <path stroke="none" fill="#344876" d="M131.25 111.25 Q119.4 120.65 115.4 123 106.4 128.35 94.85 129.95 79.5 132.1 65.1 129.05 49.2 125.7 38 116.55 33.05 112.5 29.35 107.6 25.75 102.8 24.2 98.3 25.3 96.2 25.75 94.3 29.5 103.15 37.3 110.4 45.45 118 55.75 121.6 62.55 124 72.7 123.9 81.5 123.8 93.65 121.8 108.6 119.3 116.05 116.5 124.9 113.2 127 108.3 127.8 106.5 126.15 102.95 L123.2 96.1 Q130.8 100.75 132.7 108.45 134.05 113.85 132.8 124.2 132.55 126.4 131.35 130.65 L129.25 137.1 Q130.45 133.6 130.35 124.35 130.2 114.85 131.25 111.25"/>
    <path stroke="none" fill="#182953" d="M131.25 111.25 Q121.9 118.65 115.15 121.9 106.6 126 94.35 127.7 59.3 132.55 39.2 116.05 34.2 111.95 30.2 106.7 26.25 101.5 24.7 97 25.05 96.4 25.4 96.65 25.7 96.85 25.85 96.1 34 115.55 53.25 122.35 61 125.1 71.9 126.05 L94.5 125.35 Q108.05 123.1 117.25 118.6 126.35 114.2 128.6 108.9 130.25 105.15 123.2 96.1 129.1 101.5 131.15 107.7 133.05 113.65 132 122.3 L130.15 132.05 129.95 133.05 Q130.3 129.65 130.25 124.35 130.15 114.95 131.25 111.25"/>
    <path stroke="none" fill="#182953" d="M20.8 121.35 L19.35 121.9 Q14.6 123.6 13.85 124.1 12.05 125.15 12.3 127.15 12.45 129.05 16.25 132.3 18.2 133.95 23.9 138.05 36.75 147.55 44.5 152.35 L52.7 157.65 55.8 160.05 Q54.7 159.85 49.25 156.65 44.55 153.9 43.55 153.15 L32.7 146 23.6 139.95 17.9 135.25 Q14.25 132 12.05 130.65 10.95 132.35 10.75 133.65 10.5 134.9 11.05 136.55 11.95 139.2 17.8 145.45 L29.95 157.5 Q35 162.4 40 166.4 L46.65 171.65 Q44 170.35 39.15 166.4 36.05 163.85 29.25 157.75 24 153.05 19.1 147.95 14.4 142.95 11.75 139.45 9.9 145.25 13.3 150.75 15.2 153.8 21.6 159.9 27.3 165.25 36.1 170.25 44.55 175.05 54 178.4 86.4 190.1 108.1 185 113.55 183.7 119.3 180 123.45 177.35 128.5 172.9 132.35 169.6 136.5 164.8 L141.35 158.95 Q135.85 163.8 127.35 167.65 116.7 172.5 104.05 174.3 92.3 175.95 80.25 174.9 66.45 173.65 56.1 169.1 46.85 165 37.2 157.1 31.2 152.15 17.65 139.05 L28.25 148.3 Q35.1 154.15 40.35 158 55.45 169 69.6 171.9 75.35 173.05 83.2 173.6 92.2 174.2 97.3 173.35 100.2 172.85 105.2 169.6 109.6 166.75 109.85 166.95 110.8 167.7 107.95 169.75 105 171.85 105.25 172.1 L108.25 172.55 112.4 172.1 Q118.8 170.65 125.6 167.2 128.5 165.7 135.4 161.5 145.15 155.55 153.1 145.35 161.45 134.65 161 127.5 153.8 136.95 146.35 144.45 135.75 155 127.35 158.65 119.45 162.05 111 164.05 102.6 166.05 95.1 166.3 L86.15 165.8 Q83.15 165.25 77.65 165.8 74.55 166.1 68.45 163.85 62.55 161.7 60.4 159.75 L69.75 162.75 Q74.65 164.3 79.05 164.55 L103.1 163.75 Q116.8 161.9 126.1 157.35 133.6 153.7 145.25 142.85 157.5 131.4 159.35 125.5 159.8 124.05 159 122.3 158.35 120.75 156.05 117.65 159.7 122 161.05 126.3 162.6 131.15 160.85 135.2 156.85 144.65 143.25 157.65 L139.4 163.4 Q136.8 166.75 132.1 171.25 118.2 184.45 106.5 186.85 90.3 190.2 64.7 183.2 L56.5 181.05 Q51.6 179.7 48.25 178.4 39.95 175.1 32.05 169.8 23.55 164.1 16.75 156.95 7.15 147 10.35 138.3 9.35 134.7 9.3 133.75 9.3 132.65 11.4 130.2 10 125.55 12.7 123.7 14.3 122.6 20.8 121.35"/>
    <path stroke="none" fill="#182953" d="M21.4 102.95 L19.05 109.3 Q17.95 112.75 18.7 115.05 21.9 124.4 35.45 131.85 47.5 138.45 67.05 143.25 79.7 146.3 92.95 145.95 107.4 145.6 117.55 141.15 L123 138 Q126.1 135.75 127.55 133.75 L130.75 129.45 128.8 134.2 Q127.15 137.85 126.8 141.05 126.4 144.75 128.55 143.9 132.1 142.55 135.85 139.45 142.55 134 144 126.2 145.35 118.9 141.8 111.7 137.1 102.05 134.25 98.3 131.85 95.1 127.2 91.75 131.65 93.85 134.95 96.1 138.15 100.05 141.15 105.95 144 111.5 145.35 116.15 146.7 120.5 146.05 125.85 145.35 131.7 142.35 135.9 138.4 141.55 129.85 144.2 124.1 146 110.6 147.65 96 149.35 83.75 147.4 70.6 144.55 61.75 143.65 56.6 143.15 59.2 147.1 L61.5 150.4 Q62.75 152.25 62.3 152.7 61.9 153.1 59.5 149.65 57.05 146.1 56.5 144.15 55.35 139.85 51.85 140.2 L48.6 140.6 Q46.65 140.65 45.1 139.7 L42.5 137.3 39.9 134.85 28.15 128.35 Q23.7 126 20.8 121.35 20.2 119.65 18.5 117.1 17.3 115.35 17.35 113.1 17.35 110.5 18.6 107.75 19.35 106.05 21.4 102.95"/>
    <path stroke="none" fill="#16274d" d="M108.9 106.25 Q102.35 112.35 99.65 114.05 95.5 116.65 89.1 117.7 66.15 121.45 46.15 113.2 37.4 109.6 32.1 104.55 26.7 99.45 26.3 94.2 25.75 87.05 43.9 83.25 56.15 80.7 76.15 79.85 85.45 79.45 94.2 81.35 104.5 83.6 109.85 88.25 112.7 90.75 113.85 92.45 115.6 95.05 115.35 97.9 115.2 100.3 113.4 102.25 L108.9 106.25"/>
    <path stroke="none" fill="#5f77b3" d="M37.45 109.75 Q44.45 114.45 49.9 116.15 L58.6 118.2 Q68.4 120.85 80.8 119.9 91.1 119.15 99.35 116.35 104.85 114.45 108.45 111.2 L113 105.8 116.05 101.35 Q117.3 98.75 116.6 96.25 116.15 94.65 115.15 92.75 L113.05 88.75 Q115.65 91.25 121.05 93.2 126.15 95.05 129.2 98.5 136.45 106.7 137.6 116.15 138.65 124.6 134.85 134.7 133.95 137.05 132.85 138.15 132 139 131.55 138.75 131.3 138.55 131.55 137.55 L132.6 134.1 Q136.1 121.35 135.6 115.9 134.85 107.7 126.6 98.55 123.35 94.95 122.3 94.7 121.05 94.4 123.35 99.15 127.15 107 121.85 111.2 118 114.25 102.95 118.6 91.95 121.75 80.25 122.5 67.75 123.3 59.45 120.9 52.4 118.85 49.8 117.65 44.55 115.3 37.45 109.75"/>
    <path stroke="none" fill="#5f77b3" d="M24.7 104.9 Q34.6 120.75 53.9 128.45 77.6 137.95 106.15 129.65 119.75 125.65 128.65 117.05 L128.65 121.5 Q128.2 124.85 125.6 128.4 122.4 132.8 116.2 135.8 109.05 139.2 99.15 140.05 80.45 141.6 62.9 138.35 37.1 133.6 26.95 119.5 22.2 113 24.7 104.9"/>
    <path stroke="none" fill="#5f77b3" d="M41.9 146.5 Q19.85 134 17.75 130.05 16.95 128.55 18.1 127.5 19.2 126.55 21.05 126.75 21.75 128.15 27.35 131.3 L37.35 137.1 Q41.15 139.7 43.4 140.4 L51.35 142.7 Q53.85 143.55 57.35 149.65 60.65 155.25 64.55 155.65 L68.2 155.45 65.55 152.05 Q62.85 148.6 64.55 147.75 L70.5 149.05 Q77.7 150.8 83.35 151.4 98.05 152.95 108.65 151.4 118.2 150 126.15 147.6 132.9 145.55 142.4 141.5 132.75 148.35 128.05 150.9 120.65 154.9 110.6 157.5 91.6 162.35 77 160.4 60.45 158.15 41.9 146.5"/>
    <path stroke="none" fill="#5f77b3" d="M14.3 144.85 Q22.1 154.75 30.35 161.8 41.1 171.05 50.6 173.6 43.35 167.9 35.7 159.8 L22.4 145.35 35.45 157.95 Q42.2 164.3 47.45 167.65 64.5 178.5 87.35 178.85 107.35 179.15 125.05 171.75 116.4 181.35 95.7 182.95 76.45 184.45 58.4 178.6 43.7 173.85 31.6 165.05 18.1 155.3 14.3 144.85"/>
    <path stroke="none" fill="#0f1c3a" d="M108.9 106.25 Q102.35 112.35 99.65 114.05 95.5 116.65 89.1 117.7 66.15 121.45 46.15 113.2 37.4 109.6 32.1 104.55 26.7 99.45 26.3 94.2 26.15 91.95 27.95 89.9 32.4 100.05 50.05 106.25 69 112.9 89.8 109.55 96.15 108.5 100.3 105.85 102.95 104.15 109.55 98.05 L112.35 95.6 114.5 93.5 Q115.55 95.6 115.35 97.9 115.2 100.3 113.4 102.25 L108.9 106.25"/>
    <path stroke="none" fill="#344876" d="M120.2 91.55 Q114.9 88.8 110.7 86.95 L114.6 87.3 118.85 89.5 127.85 93.7 Q131.6 95.7 135.2 99.35 141.7 105.95 143.75 108.65 148 114.2 148.5 119.35 149.25 126.7 144.6 133.1 139.75 139.8 131.2 142.2 136.2 135.4 138.25 129.55 140.3 123.5 139.6 117.45 138.8 110.7 134.4 102.65 132.05 98.25 128.6 95.95 L120.2 91.55"/>
    <path stroke="none" fill="#000000" d="M2.3 71.6 L2.3 71.65 3.4 71.85 2.3 71.6 M41.1 41.65 Q39.55 44.85 37.2 46.3 34.65 47.95 31.65 47.3 30.45 47.05 29.55 46.6 22.1 43.05 16.2 46.75 11.6 49.65 8.15 56.8 5.15 63.1 3.5 71.4 21.25 74.35 32 68.7 43.05 62.9 46.4 48.3 47.85 41.65 46.4 39.55 45.4 38.2 42.25 38.5 L41.1 41.65 M40.7 36.55 L41.15 36.4 41.15 36.35 Q46.35 35.6 48.2 38.25 50.3 41.15 48.55 48.75 45.05 64.4 33.05 70.7 21.2 76.85 1.95 73.4 1.45 73.35 1.2 72.95 0.95 72.55 1 72.1 L1.1 71.8 1.15 71.4 1.2 71.35 Q3.05 62.3 6.1 55.85 9.95 47.75 15.25 44.55 21.95 40.5 30.55 44.55 L32.1 45.15 Q34.3 45.55 36 44.4 37.8 43.3 39.05 40.7 L40.2 37.2 Q40.3 36.8 40.7 36.55"/>
    <path stroke="none" fill="#72724b" d="M41.3 37.45 Q45.8 36.85 47.3 38.9 49.1 41.4 47.45 48.55 44.2 62.6 34.1 68.8 22.45 75.95 2.15 72.3 3.75 62.65 7.95 54.75 16.25 39 30.05 45.6 33.95 47.45 37.15 45 40.2 42.65 41.3 37.45"/>
    <path stroke="none" fill="#b96554" d="M14.55 67.9 Q15.05 61.2 17.15 58.55 18.75 56.5 22.5 55.75 L30.3 54.05 Q35.55 52.3 40.25 48 36.45 57.55 28.1 63.4 20.65 68.6 14.55 67.9"/>
    <path stroke="none" fill="#464612" d="M39.4 46.35 Q41.55 49.75 39.4 54.05 37.4 57.95 32.35 61.6 21 69.75 9.4 68.75 19.4 67.4 26.9 62.4 35.7 56.5 39.4 46.35"/>
    <path stroke="none" fill="#000000" d="M123.95 46.5 L123.9 46.4 123.9 46.35 Q123.1 43.85 120.3 40.6 L114.6 34.9 Q111.25 31.9 109.3 29.6 109 29.25 109.05 28.8 109.05 28.35 109.4 28.05 109.7 27.8 110.05 27.8 L110.15 28.9 111 28.2 112.5 29.8 116.15 33.3 Q120.35 37.25 122.15 39.35 124.6 42.15 125.65 44.6 137.5 39.6 143.95 34.25 152.7 27 157.6 15.15 L157.7 15.05 157 15.4 Q148.05 20.45 133.85 24.95 129.95 26 128.45 24.2 147.15 18.4 155.9 13.45 L156.8 12.9 Q157.9 12.25 158.3 12.1 L159.6 12.05 Q161.05 12.65 159.7 16 154.55 28.45 145.35 36 141.35 39.3 136.05 42.2 131.7 44.55 125.45 47.15 L124.55 47.15 123.95 46.5"/>
    <path stroke="none" fill="#dcdcd7" d="M125 46.1 Q123.9 42.45 118.5 37.1 112.3 31.45 110.15 28.9 120.4 28.05 134.5 23.55 147.9 19.25 156.4 14.45 L159 13.1 Q159.7 13.05 158.65 15.55 153.65 27.7 144.65 35.15 137.75 40.85 125 46.1"/>
    <path stroke="none" fill="#e8e8e2" d="M119.2 38.3 Q117.85 36.15 114.8 33.35 L110.25 29 110.2 28.9 Q115.1 29.4 131.5 24.35 147.9 19.25 156.4 14.45 L158.2 13.4 Q159 12.95 159.2 13.1 152.15 22.35 140.4 29 132.85 33.25 119.2 38.3"/>
    <path stroke="none" fill="#000000" d="M43.3 47.65 L42.7 48.25 41.85 48.3 Q28.75 43.3 21.55 37.75 12.15 30.3 6.7 18.1 5.25 14.85 6.7 14.15 L7.95 14.2 9.5 14.95 10.45 15.5 Q19.4 20.2 33.45 24.2 46.8 28 56.65 28.5 L56.65 28.55 57.3 28.75 57.7 29.5 57.45 30.35 52.35 35.8 Q48.45 39.65 46.8 41.65 44.15 44.85 43.4 47.3 L43.3 47.65 M22.95 35.95 Q26.95 39.05 32.15 41.7 36.05 43.65 41.55 45.8 42.5 43.3 44.9 40.4 46.65 38.25 50.75 34.2 L54.3 30.6 Q45.25 29.8 32.85 26.35 18.55 22.3 9.4 17.45 L8.7 17.05 8.75 17.2 Q14.05 29 22.95 35.95 M7.65 16.2 Q7.5 16.3 7.9 16.45 L7.95 16.5 7.9 16.4 Q7.75 16.15 7.65 16.2"/>
    <path stroke="none" fill="#dcdcd7" d="M42.25 47.25 Q29.35 42.35 22.3 36.85 13.1 29.7 7.75 17.65 6.6 15.15 7.3 15.15 L9.95 16.45 Q18.6 21.05 32.15 24.95 46.35 29.05 56.6 29.6 L48.45 38.05 Q43.25 43.55 42.25 47.25"/>
    <path stroke="none" fill="#e8e8e2" d="M47.8 39.25 Q34.15 34.65 26.4 30.55 14.45 24.25 7.15 15.2 7.35 15.05 8.15 15.45 L9.9 16.45 Q18.6 21.05 32.1 24.95 46.3 29.05 56.6 29.6 L56.5 29.75 52.1 34.2 Q49.1 37.1 47.8 39.25"/>
    <path stroke="none" fill="#000000" d="M102.95 128.65 Q102.5 128.45 102.35 128.05 102.15 127.6 102.3 127.2 L103.1 124.9 Q104.35 121.1 105.5 119.1 107.4 115.85 110.05 114.4 111.55 113.55 114.1 114.7 115.65 115.4 118.9 117.65 L120.25 118.6 Q121.25 117.45 122.55 116.9 124.15 116.2 127.9 116.15 L129.6 116.1 Q125.9 115.7 121.55 114.55 L113.4 112.1 Q106.45 109.95 103.65 109.3 L95.4 107.75 87.15 106.95 87.1 106.95 77.95 108.25 Q73.5 109 69 110.3 65.75 111.2 59.35 113.6 L51.25 116.45 45.5 118 Q48.45 118.1 49.85 118.65 50.5 118.9 51.05 119.3 52.55 117.25 53.5 116.5 55.25 115.05 57 115.9 61.25 118.05 64.1 120 68.75 123.25 69.7 126.05 L70.15 127.15 Q70.3 127.85 70.6 128.25 L70.6 128.3 70.65 128.9 Q70.6 129.35 70.2 129.6 69.85 129.9 69.35 129.8 L65 129.35 58.95 128.55 Q55.7 127.75 53.75 125.9 L55.3 124.25 Q56.85 125.8 59.7 126.45 L65.15 127.15 67.85 127.35 67.6 126.75 Q66.8 124.55 62.85 121.85 60.25 120.1 56 117.9 55.4 117.6 54.35 118.7 L52.7 120.85 54 123.05 54.1 123.25 53.1 123.7 52.3 124.5 52.05 124.15 51.3 122.75 50 124.2 Q47.85 126.1 46.15 124.2 45.25 123.25 43.65 122.3 42.2 121.55 41.75 120.9 L41.35 120.1 39.15 119.8 Q36.2 119.2 33.9 117.4 29.45 114 26.95 111.6 23.5 108.35 21.55 105.15 16.8 97.35 20.05 87.5 20.85 85.15 26.2 74.65 L34.4 58.15 Q39.1 48.15 41.15 41.4 45.2 28.25 39.95 26.6 L39.9 26.55 Q39.45 26.45 39.2 26 39 25.6 39.1 25.15 39.65 23.5 40.45 22.55 41.55 21.2 43.3 20.7 L46.7 20.85 Q48.4 21.4 50 22.55 59.7 15.2 71.15 17.05 77.3 18.05 84.75 22.2 L85.25 22.5 Q100.3 11.8 116.15 22.65 117.9 21.3 119.55 20.8 L122.85 20.5 Q124.5 20.9 125.65 22.2 126.45 23.05 127.1 24.8 L127.05 25.6 126.4 26.15 Q125.1 26.6 124.9 27.7 124.7 28.7 125.3 30.4 L127.7 35.65 131.1 42.95 Q134.3 50.8 143.6 68.1 L149.9 80.2 Q152.7 85.9 153.15 88.5 154.6 96.55 149.55 103.85 147.6 106.65 144.25 109.8 L137.8 115.45 Q135.6 117.3 132.75 117.95 L131.35 118.2 131.15 118.5 129.3 120 Q127.85 120.9 126.85 122.05 125.5 123.65 122.85 122.6 L120.95 121.65 120.8 121.95 120.45 122.5 119.1 124 Q117.15 125.95 114 126.9 L107.95 128 103.75 128.7 102.95 128.65 M131.85 115.15 L131.85 115.85 132.1 115.8 Q134.55 115.25 136.4 113.75 L142.65 108.3 Q145.9 105.25 147.75 102.55 152.25 96.15 150.95 88.85 150.5 86.55 147.8 80.95 L141.6 69.15 134.9 56.45 Q131.2 49.1 129.05 43.85 L125.7 36.6 Q123.85 33 123.2 31.15 122.25 28.4 122.7 26.8 123.1 25.4 124.6 24.6 L123.95 23.65 Q123.3 22.85 122.35 22.7 L120.2 22.9 Q118.65 23.35 116.95 24.9 L116.15 25.15 115.4 24.85 115.35 24.8 Q105.8 18.05 96.4 19.85 91.35 20.8 86.6 24.3 L85.65 24.85 85 24.9 83.6 24.15 Q65.15 13.4 50.65 24.8 L49.85 25 49.3 24.8 49.25 24.8 Q47.55 23.35 46.05 23 L43.85 22.85 Q42.85 23.1 42.2 23.95 L41.6 24.9 Q47.6 27.85 43.3 42.05 41.2 48.95 36.45 59.05 L28.2 75.65 Q23 85.7 22.15 88.2 19.25 97.1 23.45 104 25.25 106.95 28.55 110.05 L35.25 115.65 Q37.2 117.15 39.75 117.65 L40.95 117.8 40.95 117.6 Q40.95 116.95 41.35 116.55 L41.85 116.25 42.05 116.2 42.05 116.15 42.65 116.15 42.75 116.2 42.8 116.2 42.8 116.15 43.05 116.25 Q46.5 115.65 50.65 114.3 L58.55 111.5 68.35 108.15 Q73 106.85 77.6 106.05 L86.95 104.75 87.25 104.75 95.7 105.55 104.2 107.1 114.05 110 122.05 112.35 129.7 113.9 130 113.8 130.7 113.75 Q131.15 113.85 131.4 114.2 L131.45 114.15 131.75 114.95 131.75 115.15 131.85 115.15 M42.45 117.65 L42.45 117.6 42.4 117.6 42.45 117.65 M44.7 120.35 Q46.5 121.3 47.75 122.7 L47.8 122.75 48.55 122.5 49.7 121.2 48.7 120.7 44.45 120.2 44.7 120.35 M122.8 120.2 Q124.65 121.2 125.1 120.65 126.1 119.4 127.8 118.35 L123.75 118.9 Q122.9 119.2 122.2 119.85 L122.8 120.2 M105.2 125.6 L105.05 126.2 107.65 125.8 113.1 124.85 Q115.9 124.05 117.45 122.45 L118.75 121.2 119.05 120.45 117.65 119.5 Q112.25 115.7 111.15 116.3 108.8 117.65 107.45 120.2 106.5 121.8 105.2 125.6"/>
    <path stroke="none" fill="url(#gradient0)" d="M137.1 114.6 Q134.9 116.45 130.5 117.05 L130.75 115.15 130.5 114.85 Q130.2 114.8 130.05 115.05 124.8 114.45 116.9 112 L103.9 108.2 Q96.4 106.4 87.05 105.85 77.05 106.8 68.7 109.2 L55.8 113.7 Q47.95 116.55 42.7 117.4 42.6 117.15 42.35 117.2 42.05 117.25 42.05 117.55 L42.25 119 40 118.85 Q36.9 118.35 34.55 116.5 25.5 109.6 22.5 104.6 18.05 97.15 21.1 87.85 21.85 85.5 27.4 74.7 L37.2 54.75 Q49 28.2 40.2 25.5 41.2 22.05 44.05 21.7 46.8 21.35 50 23.9 60.65 15.5 73.5 18.65 80 20.25 85.3 23.8 L88 21.95 Q91.15 20.05 94.5 19.15 105.25 16.2 116.2 24.05 119.3 21.3 122 21.5 124.85 21.7 126 25.1 122.55 26.4 124.45 31.25 125.65 34.3 130.1 43.4 133.3 51.3 143.15 69.65 151.4 85.05 152 88.7 153.4 96.4 148.65 103.2 145.65 107.5 137.1 114.6 M42.25 119 L45.15 119.1 Q48.95 119.2 51.15 121.1 L51.45 120.65 Q54.75 116.05 56.45 116.9 67.15 122.25 68.65 126.4 L69.55 128.7 61.5 127.9 Q56.8 127.3 54.5 125.1 L53.05 123.7 Q52.35 122.1 51.15 121.1 48.3 124.95 46.95 123.5 46.25 122.75 43.5 120.95 42.6 120.35 42.25 119 M103.35 127.6 L104.2 125.25 Q105.35 121.6 106.45 119.65 108.1 116.75 110.6 115.35 112.25 114.45 118.6 118.8 L120.6 120.15 119.7 121.75 118.25 123.2 Q116.05 125.5 111.35 126.4 L103.35 127.6 M130.5 117.05 Q130.15 118.1 129.4 118.65 126.65 120.55 125.95 121.35 124.85 122.7 120.6 120.15 122.65 117.4 127.05 117.3 L130.5 117.05"/>
    <path stroke="none" fill="#000000" d="M49.95 16.15 L50.3 16.15 Q51.9 13.5 54.65 11.9 57.45 10.25 60.75 10.2 64.65 10.15 67.85 12.3 70.15 9.75 73.35 8.5 74.7 5.2 77.7 3.15 80.75 1.1 84.55 1 88.9 0.95 92.35 3.6 95.7 6.25 96.7 10.35 98.4 8.35 100.8 7.25 103.2 6.1 105.95 6.05 111.05 6 114.7 9.5 118.35 13 118.45 18.05 L118.45 18.5 Q123.55 18.45 127.2 21.95 130.85 25.4 130.95 30.45 131 35.5 127.45 39.05 123.9 42.65 118.75 42.7 114.1 42.8 110.6 39.8 107.1 36.9 106.4 32.4 104.8 35.1 102.1 36.7 99.25 38.35 96 38.4 90.95 38.4 87.4 35.1 83.75 37.45 79.35 37.5 L79.15 37.5 Q77.65 40.65 74.75 42.55 71.7 44.55 68.1 44.6 64.65 44.65 61.65 42.85 58.7 41.15 57.1 38.25 54 40.35 50.3 40.4 45.2 40.5 41.5 37 37.85 33.45 37.8 28.45 37.75 23.45 41.3 19.85 44.85 16.25 49.95 16.15"/>
    <path stroke="none" fill="#000000" d="M120.6 117.8 Q120.65 117.45 120.9 117.25 L120.65 117.2 120.85 115.9 Q121.1 115.4 121.8 115.35 122.4 115.35 122.65 116.5 L122.8 117.25 122.55 117.3 122.6 117.35 122.8 117.35 122.9 117.35 122.9 117.95 123 120.85 123.35 124.2 123.9 129.5 Q123.9 137.2 117.45 141.2 108.65 146.65 86.9 146.65 67.15 146.65 58.2 142.6 50.8 139.25 49.75 132.55 49.35 130.15 49.9 125.4 50.25 123.25 50.2 122.05 L50.3 119.15 50.35 118.55 50.25 118.55 Q50.25 118.4 50.4 118.45 50.65 116.55 51.3 116.55 L51.35 116.55 Q51.8 116.6 52.1 116.95 L52.4 117.45 52.45 117.9 52.5 118.35 52.4 118.4 52.35 118.55 52.55 118.95 52.55 119 52.6 119.05 Q54.45 125.85 63.9 128.2 68.1 129.25 74.4 129.55 78.95 129.8 86.8 129.65 L99.15 129.15 Q105.4 128.65 109.55 127.45 114.1 126.15 116.8 123.95 119.7 121.5 120.6 117.8 M118.3 126 Q115.25 128.65 110.05 130.1 102.8 132.15 86.85 132.4 78.7 132.5 74.2 132.25 67.75 131.95 63.45 130.9 55.7 128.95 52.35 124.1 L52.15 125.8 Q51.65 129.9 51.95 132.05 52.75 137.2 59 140.05 67.65 143.95 86.9 143.95 107.35 143.95 115.6 139.35 121.6 136 121.6 129.5 L121.15 124.65 120.95 122.95 Q119.85 124.65 118.3 126"/>
    <path stroke="none" fill="#fbd5c5" d="M121.7 118.2 L121.8 116.9 121.9 120.85 Q121.95 122.85 122.7 128 123.05 132.9 121.05 136.05 115.2 145.3 86.9 145.3 67.4 145.3 58.6 141.3 51.8 138.2 50.85 132.3 50.55 130.15 50.9 126.85 L51.35 122.05 51.35 118.05 Q51.45 119.65 51.5 119.35 53.55 127.05 63.7 129.55 70.8 131.3 86.8 131 102.75 130.8 109.8 128.8 119.8 125.95 121.7 118.2"/>
    <path stroke="none" fill="#464612" d="M86.4 65.15 Q86.95 59.65 89.25 56.15 91.7 52.4 95.75 51.9 102.2 51.05 108.85 54.4 114.9 57.45 119.5 63.2 123.3 68 124.95 73.35 126.75 78.95 125.7 84 123.8 93 113.55 96.6 107.05 98.9 101.45 96.85 96.5 95 92.75 89.9 89.1 84.9 87.4 78 85.8 71.3 86.4 65.15 M96.05 54.45 Q93.05 54.8 91.2 57.9 89.45 60.8 89 65.4 88.4 71.2 89.9 77.35 91.55 83.85 94.85 88.4 98.05 92.8 102.35 94.35 107.15 96.15 112.75 94.15 121.55 91.05 123.15 83.5 124.1 79.25 122.5 74.15 120.85 69.1 117.45 64.85 113.25 59.55 107.8 56.75 101.85 53.7 96.05 54.45"/>
    <path stroke="none" fill="#464612" d="M95.9 53.15 Q103.65 52.15 111.25 57.3 118.35 62.1 122.15 69.8 126.05 77.8 124.2 84.55 122.15 92.15 113.15 95.35 104.15 98.55 97.3 92.95 91.45 88.1 88.85 78.45 86.45 69.4 88.25 61.9 90.2 53.9 95.9 53.15"/>
    <path stroke="none" fill="#000000" d="M88.05 65.95 Q88.65 61 90.8 57.9 93.1 54.5 96.8 54.05 102.7 53.3 108.6 56.25 114.1 58.95 118.1 64.05 121.4 68.3 122.8 72.8 124.3 77.75 123.35 82.05 121.55 90 112.15 93.2 106.15 95.25 101.15 93.45 96.65 91.8 93.4 87.3 90.25 83.1 88.8 77 87.5 71.35 88.05 65.95 M97 56.25 Q94.25 56.6 92.5 59.4 90.85 62 90.4 66.1 89.85 71.3 91.1 76.4 92.4 82 95.3 85.95 98.1 89.85 102 91.25 106.3 92.85 111.45 91.1 119.55 88.25 121.05 81.65 121.9 78.05 120.6 73.55 119.2 69.2 116.2 65.45 112.55 60.85 107.6 58.3 102.25 55.6 97 56.25"/>
    <path stroke="none" fill="#fefefe" d="M96.9 55.15 Q103.9 54.3 110.7 58.8 117.05 63 120.35 69.75 123.75 76.75 121.95 82.7 119.95 89.35 111.75 92.15 103.55 94.95 97.5 90 92.25 85.75 90.1 77.35 88.05 69.4 89.8 62.8 91.7 55.8 96.9 55.15"/>
    <path stroke="none" fill="#000000" d="M100 62.4 Q104.4 61.6 108.45 64.5 112.5 67.35 113.8 72.25 115.1 77.1 112.9 81.05 110.65 85 106.25 85.8 101.85 86.6 97.85 83.7 93.8 80.85 92.45 75.95 91.2 71.1 93.4 67.15 95.6 63.2 100 62.4"/>
    <path stroke="none" fill="#a03f26" d="M100.7 65.05 Q104.1 64.45 107.25 66.7 110.4 68.9 111.4 72.65 112.4 76.4 110.7 79.5 109 82.55 105.55 83.15 102.15 83.75 99.05 81.55 95.9 79.3 94.9 75.55 93.9 71.8 95.6 68.75 97.3 65.65 100.7 65.05"/>
    <path stroke="none" fill="#464612" d="M75.75 54.45 Q69.95 53.7 64 56.75 58.55 59.55 54.35 64.85 50.9 69.25 49.3 74.15 47.75 79.4 48.65 83.5 50.35 91.05 59.1 94.15 64.7 96.15 69.5 94.35 73.75 92.8 77 88.4 80.4 83.65 81.9 77.35 83.45 71.05 82.85 65.4 82.4 60.75 80.65 57.9 78.75 54.8 75.75 54.45 M85.45 65.15 Q86.05 71.4 84.4 78 82.7 84.9 79.05 89.9 75.3 95 70.35 96.85 64.8 98.9 58.25 96.6 48.05 93 46.15 84 45.05 79 46.85 73.35 48.6 67.95 52.35 63.2 56.95 57.45 63 54.4 69.6 51.05 76.05 51.9 80.1 52.4 82.55 56.15 84.85 59.6 85.45 65.15"/>
    <path stroke="none" fill="#464612" d="M75.9 53.15 Q81.65 53.9 83.55 61.9 85.4 69.4 82.95 78.45 80.4 88.05 74.5 92.95 67.7 98.55 58.7 95.35 49.7 92.15 47.6 84.55 45.75 77.8 49.7 69.8 53.45 62.1 60.55 57.3 68.15 52.15 75.9 53.15"/>
    <path stroke="none" fill="#000000" d="M101.8 69.15 Q103.65 68.8 105.4 70.05 107.1 71.25 107.65 73.3 108.15 75.35 107.25 77.05 106.3 78.7 104.45 79.05 102.6 79.4 100.9 78.15 99.2 76.95 98.65 74.9 98.1 72.85 99.05 71.15 99.95 69.5 101.8 69.15"/>
    <path stroke="none" fill="#fefefe" d="M105.5 69.35 Q106.15 69.45 106.5 70.1 106.85 70.7 106.65 71.5 106.45 72.25 105.8 72.7 105.2 73.15 104.5 73 103.8 72.95 103.45 72.3 103.1 71.65 103.3 70.9 103.55 70.15 104.15 69.7 104.8 69.25 105.5 69.35"/>
    <path stroke="none" fill="#000000" d="M121.45 73.5 L89.15 66.55 Q88.35 66.2 88.5 65.35 89.5 60.35 91.7 57.45 93.9 54.55 97.05 54.15 L99.55 54 Q106.35 54 112.45 58.85 118.55 63.65 122.4 72 L122.35 72.95 121.5 73.45 121.45 73.5 M90.8 64.8 L119.6 71 Q115.6 63.35 109.65 59.35 103.6 55.35 97.35 56.25 94.65 56.6 92.85 59.45 91.5 61.55 90.8 64.8"/>
    <path stroke="none" fill="#72724b" d="M97.2 55.2 Q104.4 54.2 111 59.05 117.45 63.7 121.45 72.45 L89.55 65.55 Q90.4 61.15 92.25 58.5 94.3 55.6 97.2 55.2"/>
    <path stroke="none" fill="#000000" d="M74.85 56.25 Q69.6 55.6 64.25 58.3 59.35 60.85 55.65 65.45 52.6 69.25 51.3 73.55 49.95 77.9 50.85 81.65 52.35 88.3 60.45 91.1 65.6 92.85 69.9 91.25 73.75 89.85 76.6 85.95 79.45 82.05 80.8 76.4 82.05 71.05 81.5 66.1 81 61.95 79.4 59.4 77.6 56.6 74.85 56.25 M83.8 65.95 Q84.45 71.35 83.05 77 81.7 82.9 78.5 87.3 75.2 91.8 70.75 93.45 65.75 95.25 59.75 93.2 50.4 90.05 48.55 82.05 47.6 77.65 49.05 72.8 50.5 68.25 53.8 64.05 57.85 58.95 63.3 56.25 69.2 53.3 75.1 54.05 78.8 54.5 81.1 57.9 83.25 61 83.8 65.95"/>
    <path stroke="none" fill="#fefefe" d="M75 55.15 Q80.2 55.8 82.05 62.8 83.8 69.4 81.75 77.35 79.6 85.75 74.35 90 68.3 94.95 60.1 92.15 51.95 89.35 49.9 82.7 48.15 76.75 51.55 69.75 54.85 63 61.2 58.8 68 54.3 75 55.15"/>
    <path stroke="none" fill="#000000" d="M71.9 63.15 Q76.3 63.9 78.5 67.9 80.7 71.85 79.4 76.7 78.1 81.55 74.05 84.4 70 87.3 65.6 86.55 61.2 85.75 59 81.8 56.8 77.8 58.1 72.95 59.4 68.1 63.45 65.25 67.5 62.35 71.9 63.15"/>
    <path stroke="none" fill="#a03f26" d="M71.2 65.75 Q74.6 66.4 76.3 69.45 77.95 72.5 77 76.3 76 80 72.85 82.25 69.7 84.5 66.3 83.9 62.9 83.3 61.2 80.25 59.5 77.15 60.5 73.4 61.5 69.6 64.65 67.4 67.75 65.15 71.2 65.75"/>
    <path stroke="none" fill="#000000" d="M70.05 69.9 Q71.9 70.25 72.85 71.9 73.8 73.6 73.25 75.65 72.7 77.7 71 78.9 69.25 80.1 67.4 79.75 65.55 79.45 64.65 77.75 63.7 76.1 64.25 74.05 64.75 72 66.5 70.8 68.2 69.55 70.05 69.9"/>
    <path stroke="none" fill="#fefefe" d="M66.2 70.05 Q66.9 70.2 67.25 70.85 67.6 71.45 67.4 72.25 L66.55 73.45 Q65.95 73.9 65.25 73.75 64.55 73.65 64.2 73 63.85 72.4 64.05 71.65 64.25 70.9 64.9 70.4 65.5 69.95 66.2 70.05"/>
    <path stroke="none" fill="#000000" d="M50.45 73.5 L50.4 73.45 Q49.8 73.45 49.55 72.95 49.25 72.5 49.5 72 53.3 63.7 59.4 58.85 65.55 54 72.3 54 L74.8 54.15 Q78 54.55 80.2 57.45 82.4 60.35 83.35 65.35 83.5 66.2 82.7 66.55 L66.9 70.05 50.45 73.5 M72.3 56.1 Q66.55 56.1 61.25 60.1 55.9 64.05 52.3 71 L81.1 64.8 Q80.25 61 78.55 58.8 76.85 56.55 74.55 56.25 L72.3 56.1"/>
    <path stroke="none" fill="#72724b" d="M74.65 55.2 Q77.6 55.6 79.6 58.5 81.5 61.15 82.3 65.55 L50.45 72.45 Q54.4 63.7 60.85 59.05 67.45 54.2 74.65 55.2"/>
    <path stroke="none" fill="#000000" d="M65.45 139.3 L64.6 139.25 Q53.5 137.95 45.8 134.2 38.1 130.45 34.8 124.75 30.75 117.75 34.2 109.25 30.5 96.25 35.4 89.7 39.5 84.15 48.9 84.15 54.9 84.15 61.45 86.4 67.6 88.55 70.5 91.3 79.1 87.7 86.65 87.7 93.85 87.7 102 90.85 104.95 87.85 111.3 85.55 118 83.1 124.25 83.1 133.2 83.1 137.35 88.45 142.3 94.85 139 107.8 142.6 116 138.9 122.8 136 128.25 128.6 132.05 121.25 135.85 110.4 137.5 L108.95 137.6 103.35 136.75 97.05 134.9 91.3 133.15 Q88.25 132.35 86.4 132.35 84.7 132.4 81.8 133.45 L76.45 135.7 70.65 138.2 Q67.5 139.3 65.45 139.3 M48.9 86.4 Q40.65 86.4 37.2 91.05 32.9 96.7 36.45 109 L36.4 109.75 Q33.15 117.45 36.75 123.65 39.7 128.8 47.05 132.3 54.45 135.8 64.85 137.05 66.6 137.25 69.65 136.15 L75.5 133.7 Q79.3 131.95 81.3 131.25 84.3 130.15 86.3 130.15 L91.65 130.95 97.75 132.75 103.75 134.55 108.95 135.4 110.05 135.3 Q120.35 133.75 127.3 130.25 134.25 126.75 136.95 121.75 140.2 115.8 136.8 108.4 L136.75 107.65 Q139.9 95.45 135.55 89.8 132.1 85.35 124.25 85.35 118.05 85.35 111.3 88 105.25 90.35 103.15 92.85 102.7 93.45 101.9 93.2 93.8 89.95 86.65 89.95 79.15 89.95 70.65 93.65 69.95 93.95 69.35 93.35 67.15 90.85 61.1 88.7 54.75 86.4 48.9 86.4"/>
    <path stroke="none" fill="#fbd5c5" d="M70.2 92.6 Q78.75 88.9 86.2 88.8 93.65 88.7 102.3 92.15 104.8 89.1 111.75 86.6 119.2 83.85 125.75 84.25 133.6 84.75 136.95 89.8 140.95 95.9 137.8 107.9 142.7 118.6 134.8 126.35 127.2 133.8 110.25 136.4 107.1 136.9 98.4 134.15 89.15 131.25 86.3 131.25 83.55 131.25 75.4 134.95 67.6 138.5 64.7 138.15 47.3 136.1 39.1 128.35 30.65 120.4 35.4 109.35 31.9 97.45 35.7 91.25 38.85 86.05 46.65 85.4 53.1 84.8 60.65 87.3 67.6 89.65 70.2 92.6"/>
    <path stroke="none" fill="#000000" d="M62.1 102.8 Q66.05 107.25 66.7 112.3 67.35 117.35 64.4 120 61.4 122.7 56.5 121.45 51.6 120.2 47.65 115.75 43.7 111.35 43.05 106.3 42.4 101.25 45.4 98.55 48.4 95.85 53.3 97.1 58.15 98.35 62.1 102.8"/>
    <path stroke="none" fill="#3a1f18" d="M58.7 108.65 Q59.15 111.4 61.2 114.1 63.05 116.45 65.75 118.3 L64.4 120 Q61.4 122.7 56.5 121.45 51.6 120.2 47.65 115.75 43.7 111.35 43.05 106.3 42.4 101.25 45.4 98.55 48.4 95.85 53.3 97.1 58.15 98.35 62.1 102.8 L62.65 103.45 Q61.3 103.3 60.5 103.75 59.35 104.4 58.9 105.9 58.45 107.25 58.7 108.65"/>
    <path stroke="none" fill="#58281a" d="M59.15 116.75 Q61.05 118.8 63.65 120.6 60.5 122.65 55.95 121.3 51.35 119.95 47.65 115.75 43.7 111.35 43.05 106.3 42.4 101.25 45.4 98.55 48.25 96 52.85 97 57.45 98 61.3 101.95 58.5 101.8 56.65 103.3 54.65 105.05 54.7 108.25 54.7 112.1 59.15 116.75"/>
    <path stroke="none" fill="#873b20" d="M54.9 116.7 Q56.85 119.2 60.2 121.8 57.2 122.05 53.85 120.5 50.4 118.9 47.65 115.75 43.7 111.35 43.05 106.3 42.4 101.25 45.4 98.55 47.8 96.35 51.7 96.85 55.5 97.3 59.2 100.1 51.65 100.1 50.9 105.35 50.15 110.45 54.9 116.7"/>
    <path stroke="none" fill="#000000" d="M50.35 97.1 Q47.5 97.2 45.65 98.85 42.85 101.35 43.45 106.2 44.05 111.15 47.95 115.5 50.35 118.3 53.5 119.9 56.55 121.5 59.4 121.45 62.3 121.4 64.15 119.75 67 117.15 66.35 112.25 65.65 107.35 61.85 103.05 59.35 100.25 56.3 98.65 53.2 97.05 50.35 97.1 M59.45 122.25 Q56.4 122.3 53.2 120.6 49.95 118.95 47.35 116 43.3 111.4 42.7 106.35 42 101 45.15 98.25 47.2 96.45 50.35 96.35 53.35 96.3 56.6 98 59.8 99.65 62.4 102.55 66.45 107.1 67.1 112.35 67.75 117.55 64.65 120.3 62.55 122.2 59.45 122.25"/>
    <path stroke="none" fill="#000000" d="M110.15 102.15 Q113.95 97.6 118.85 96.2 123.7 94.85 126.75 97.45 129.85 100.05 129.3 105.1 128.75 110.15 124.95 114.7 121.15 119.25 116.3 120.65 111.45 122.05 108.35 119.4 105.3 116.8 105.8 111.75 106.35 106.7 110.15 102.15"/>
    <path stroke="none" fill="#3a1f18" d="M113.75 107.85 Q113.9 106.45 113.5 105.15 112.95 103.65 111.85 103.05 110.95 102.55 109.65 102.8 L110.15 102.15 Q113.95 97.6 118.85 96.2 123.7 94.85 126.75 97.45 129.85 100.05 129.3 105.1 128.75 110.15 124.95 114.7 121.15 119.25 116.3 120.65 111.45 122.05 108.35 119.4 107.55 118.75 106.9 117.7 113 113.25 113.75 107.85"/>
    <path stroke="none" fill="#58281a" d="M113.5 116 Q117.8 111.15 117.75 107.4 117.7 104.15 115.65 102.5 113.75 101 110.95 101.3 114.7 97.2 119.3 96.1 123.85 94.95 126.75 97.45 129.85 100.05 129.3 105.1 128.75 110.15 124.95 114.7 121.4 118.95 116.85 120.5 112.3 122 109.15 120 L113.5 116"/>
    <path stroke="none" fill="#873b20" d="M117.7 115.85 Q122.4 109.55 121.45 104.4 120.6 99.15 113 99.35 116.55 96.45 120.4 95.85 124.25 95.3 126.75 97.45 129.85 100.05 129.3 105.1 128.75 110.15 124.95 114.7 122.25 117.9 118.9 119.6 115.6 121.25 112.55 121.05 115.7 118.6 117.7 115.85"/>
    <path stroke="none" fill="#000000" d="M113.35 121.45 Q110.25 121.55 108.1 119.7 104.9 117 105.45 111.8 105.95 106.55 109.85 101.9 112.35 98.9 115.55 97.15 118.75 95.4 121.75 95.35 124.95 95.35 127 97.1 130.25 99.8 129.7 105.15 129.15 110.25 125.25 114.95 122.75 117.95 119.55 119.65 116.35 121.4 113.35 121.45 M121.8 96.1 Q118.95 96.2 115.9 97.85 112.85 99.55 110.45 102.4 106.75 106.8 106.2 111.75 105.65 116.6 108.6 119.1 110.5 120.8 113.35 120.7 116.2 120.65 119.25 119 122.3 117.3 124.65 114.45 128.45 109.95 128.9 105.05 129.45 100.2 126.5 97.7 124.6 96.1 121.8 96.1"/>
    <path stroke="none" fill="#000000" d="M69.35 138.55 L68.55 138.6 68.45 138.55 25.25 115.65 25.2 115.65 24.2 115 Q20.75 112.65 19.3 109.65 17.7 106.35 19.15 103.85 L19.35 103.6 Q21.1 100.9 25.4 101 29.4 101.1 33.35 103.4 L33.6 103.6 71.8 128.05 72 128.2 71.8 128.1 70.65 129.9 70.6 129.85 32.5 105.35 32.25 105.25 Q28.75 103.15 25.3 103.15 22.2 103.15 21.15 104.75 L21.1 104.75 21 104.9 Q20.1 106.45 21.2 108.7 22.4 111.2 25.4 113.2 L26.35 113.8 26.35 113.85 69.05 136.4 78.9 132.4 79.3 133.4 79.3 133.35 79.85 132.4 80.35 133.05 80.2 133.85 79.7 134.35 69.35 138.55"/>
    <path stroke="none" fill="#7fdaf2" d="M68.95 137.55 L25.75 114.7 Q22 112.5 20.35 109.4 18.75 106.3 20.2 104.15 21.65 102 25.35 102.05 29.05 102.1 32.85 104.3 L71.2 129 79.3 133.35 68.95 137.55"/>
    <path stroke="none" fill="#ff0000" d="M30.8 108.3 L70 133.5 28.6 111.25 Q25.65 109.45 24.5 107.3 L24.25 106.55 25.1 106.45 Q27.7 106.45 30.8 108.3"/>
    <path stroke="none" fill="#000000" d="M27.8 111.35 L25.15 115.6 24.1 115.05 26.8 110.85 27.8 111.35 M32.7 114.05 L30.05 118.25 29.05 117.7 31.7 113.5 32.7 114.05 M37.6 116.7 L35.15 120.6 34.15 120.05 36.65 116.15 37.6 116.7 M47.45 122 L45 125.85 44 125.3 46.45 121.45 47.45 122 M42.55 119.35 L40.05 123.35 39 122.75 41.55 118.75 42.55 119.35 M62.15 129.9 L59.75 133.85 58.65 133.35 61.15 129.35 62.15 129.9 M52.35 124.6 L49.9 128.5 48.9 127.95 51.35 124.05 52.35 124.6 M57.25 127.3 L54.9 131.1 53.85 130.55 56.25 126.75 57.25 127.3"/>
    <path stroke="none" fill="#ffffff" d="M22.25 104.15 Q23.1 103.3 24.05 103.3 25 103.35 25.5 104.25 26 105.1 25.75 106.35 25.45 107.6 24.6 108.5 23.75 109.35 22.8 109.3 21.85 109.3 21.35 108.35 20.85 107.5 21.15 106.25 21.4 105 22.25 104.15"/>
    <path stroke="none" fill="#000000" d="M92.05 40.85 Q92.5 40.35 94.15 41.85 97.5 44.85 102.3 47.75 108.15 51.3 116.5 51.1 L120.45 50.85 Q121.25 50.8 119.9 51.35 108.35 56.1 98.8 49.3 95.55 47 93.45 44 91.55 41.4 92.05 40.85"/>
    <path stroke="none" fill="#000000" d="M80.15 40.85 Q80.65 41.4 78.75 44 76.65 47 73.4 49.3 63.85 56.1 52.3 51.35 50.9 50.8 51.7 50.85 L55.65 51.1 Q64.05 51.3 69.9 47.75 74.65 44.85 78 41.85 79.65 40.35 80.15 40.85"/>
    <path stroke="none" fill="#72724b" d="M119.4 118.65 Q121.1 121.55 120.1 123.05 118.3 125.95 118.05 127.75 118 128.25 118.65 130.95 118.95 133.4 116.95 133.35 114.25 133.3 114.65 130.65 115.65 127.5 115.5 126.35 115.4 125.3 115 125.3 114.15 125.2 111.9 127.7 109.6 130.25 108.8 130.2 107.8 130.2 108.25 127.9 L109.35 124.1 Q109.8 122.55 109.55 121.05 109.25 119.3 108.05 118.6 111.8 117.55 114.6 117.8 L119.4 118.65"/>
  </g>
</svg>