<?xml version="1.0" encoding="UTF-8" standalone="no"?>
<svg
   xmlns:dc="http://purl.org/dc/elements/1.1/"
   xmlns:cc="http://creativecommons.org/ns#"
   xmlns:rdf="http://www.w3.org/1999/02/22-rdf-syntax-ns#"
   xmlns:svg="http://www.w3.org/2000/svg"
   xmlns="http://www.w3.org/2000/svg"
   viewBox="0 0 248.03751 248.03751"
   height="248.03751"
   width="248.03751"
   xml:space="preserve"
   version="1.1"
   id="svg2"><metadata
     id="metadata8"><rdf:RDF><cc:Work
         rdf:about=""><dc:format>image/svg+xml</dc:format><dc:type
           rdf:resource="http://purl.org/dc/dcmitype/StillImage" /></cc:Work></rdf:RDF></metadata><defs
     id="defs6" /><g
     transform="matrix(1.25,0,0,-1.25,0,248.0375)"
     id="g10"><g
       transform="scale(0.1,0.1)"
       id="g12"><path
         id="path14"
         style="fill:#ffdd00;fill-opacity:1;fill-rule:nonzero;stroke:none"
         d="m 354.496,841.633 c 0,0 4.25,-40.82 -19.558,-49.613 -23.809,-8.508 -39.68,16.441 -39.68,16.441 0,0 -7.371,-17.859 6.801,-36.559 14.168,-18.711 42.238,-17.863 42.238,-17.863 0,0 -22.969,-24.379 -21.551,-53.289 1.422,-28.629 45.641,-39.969 45.641,-39.969 0,0 -17.289,-26.929 2.269,-53.582 19.27,-26.359 77.379,-18.699 77.379,-18.699 0,0 -25.226,-34.867 -65.187,-32.598 -39.692,2.547 -42.813,27.778 -42.813,27.778 0,0 -5.668,-30.899 14.742,-50.18 20.411,-19.27 43.942,-18.988 43.942,-18.988 0,0 -35.434,-19.563 -36,-57.262 -0.571,-37.699 37.699,-54.148 37.699,-54.148 0,0 -5.383,-65.192 53.008,-84.18 58.109,-18.992 101.762,-78.801 143.429,-87.02 41.961,-8.511 155.063,67.18 196.731,71.707 41.383,4.262 372.474,193.043 433.984,219.973 61.8,27.219 141.45,41.668 123.31,112.25 0,0 29.76,-4.82 28.62,37.699 -1.41,42.809 -38.83,51.309 -38.83,51.309 0,0 32.59,33.172 18.42,75.973 0,0 -3.96,-26.93 -39.11,-25.231 -35.43,1.688 -16.73,63.219 11.61,91.848 28.35,28.34 92.71,77.953 83.63,153.92 -9.35,76.25 -162.99,171.21 -131.53,239.52 31.75,68.32 46.78,136.35 8.51,162.43 -38.55,26.08 -521.864,185.67 -521.012,163.27 0.57,-22.39 -433.981,-436.25 -416.692,-744.937" /><path
         id="path16"
         style="fill:#000000;fill-opacity:1;fill-rule:nonzero;stroke:none"
         d="m 1420.04,1021.91 c -4.25,35.15 -37.42,73.43 -69.45,110.55 -38.83,44.79 -78.8,90.99 -62.64,126.43 28.06,60.09 51.59,138.04 6.8,168.38 -25.51,17.29 -494.082,181.7 -524.98,164.69 -2.27,-1.14 -3.403,-3.12 -3.403,-5.67 -1.418,-4.54 -22.957,-29.2 -47.898,-57.83 C 603.949,1396.38 335.789,1087.11 349.68,841.344 l 0,-0.281 c 0,-0.278 3.679,-37.129 -16.442,-44.5 -19.558,-7.09 -33.449,13.601 -34.019,14.742 -0.852,1.41 -2.551,2.258 -4.25,1.98 -1.989,0 -3.399,-1.133 -4.25,-2.832 -0.289,-0.848 -8.219,-20.699 7.371,-41.39 10.199,-13.61 26.359,-17.86 36.558,-19.278 -7.078,-9.633 -17.847,-28.062 -16.718,-49.32 1.418,-25.789 31.179,-38.551 43.648,-42.52 -4.25,-9.922 -11.051,-31.461 5.11,-53.57 14.742,-20.133 48.472,-22.109 67.742,-21.551 l 1.988,0 c -9.07,-8.781 -25.801,-21.539 -47.91,-22.109 l -5.379,0 c -34.871,2.269 -38.27,22.68 -38.27,23.527 -0.281,2.274 -2.269,3.973 -4.82,3.973 -2.269,0 -4.25,-1.422 -4.82,-3.692 -0.281,-1.41 -5.668,-33.73 16.16,-54.418 12.469,-11.91 25.512,-16.441 34.859,-18.71 -11.328,-9.071 -28.058,-26.93 -28.34,-54.141 -0.57,-34.578 28.34,-52.16 37.7,-56.981 -0.278,-13.597 2.55,-68.308 56.132,-85.89 29.188,-9.641 54.137,-28.91 77.95,-47.899 22.961,-18.14 44.789,-34.871 66.328,-39.398 25.793,-5.113 73.133,17.848 118.769,39.957 32.321,15.312 62.364,29.77 79.371,31.75 27.211,2.84 164.411,76.82 285.732,142.02 68.32,36.851 127.28,68.601 149.67,78.523 l 32.88,13.039 c 51.88,20.117 105.17,40.82 94.11,98.93 4.54,0.281 10.49,1.699 15.88,6.519 8.5,7.078 12.19,19.27 11.9,36 -1.13,34.012 -23.81,47.899 -35.43,53 8.79,11.629 26.36,40.262 14.74,75.41 -0.57,1.981 -2.83,3.399 -4.82,3.399 -2.27,-0.289 -4.25,-1.988 -4.53,-4.258 0,-0.852 -3.97,-22.391 -34.3,-20.973 -6.52,0.282 -10.77,3.121 -13.04,8.5 -6.52,17.012 7.37,54.141 28.06,75.121 l 11.34,10.77 c 30.61,29.199 81.92,77.672 73.7,147.117 m -76.82,104.04 c 31.19,-36 63.21,-73.14 67.18,-105.16 7.66,-64.638 -39.4,-109.427 -70.57,-138.907 l -11.63,-11.059 c -21.55,-21.539 -38.84,-62.64 -30.04,-85.32 3.39,-9.07 11.05,-14.168 21.53,-14.738 1.7,-0.282 3.41,-0.282 5.12,0 16.99,0.277 26.63,7.648 32.3,14.738 3.13,-32.879 -19.56,-56.981 -19.84,-57.262 -1.42,-1.418 -1.7,-3.117 -1.14,-4.816 0.29,-1.703 1.71,-2.832 3.41,-3.403 1.41,-0.281 34.02,-8.218 35.15,-46.488 0.28,-13.601 -2.56,-23.242 -8.51,-28.34 -6.23,-5.672 -14.17,-4.543 -14.45,-4.543 -1.71,0.282 -3.41,-0.277 -4.26,-1.418 -1.13,-1.41 -1.7,-3.121 -1.13,-4.531 13.9,-54.43 -35.43,-73.418 -87.31,-93.258 l -33.16,-13.332 c -22.96,-10.199 -82.21,-41.949 -150.52,-78.8 C 960.828,387.805 818.238,310.984 793.02,308.152 c -18.43,-1.988 -49.332,-16.726 -82.211,-32.597 -42.231,-20.41 -90.418,-43.371 -112.821,-38.84 -19.558,3.687 -40.25,20.129 -62.359,37.418 -23.531,18.43 -50.168,39.402 -80.789,49.32 -53.86,17.582 -49.891,76.82 -49.602,79.371 0,1.989 -1.14,3.969 -2.84,4.539 -1.418,0.852 -35.429,15.871 -34.859,49.891 0.281,34.301 33.16,52.719 33.441,53.012 1.989,1.129 2.84,3.109 2.27,5.379 -0.562,1.988 -2.551,3.691 -4.531,3.691 -0.289,0 -22.11,0 -40.539,17.566 -9.071,8.512 -12.469,19.84 -13.321,28.922 6.52,-6.808 17.86,-13.332 37.7,-14.738 l 6.519,0 c 38.27,1.129 61.789,33.156 62.93,34.578 1.133,1.699 1.133,3.68 0.281,5.379 -1.129,1.699 -2.828,2.562 -4.82,2.27 -0.559,0 -55.559,-7.079 -73.129,16.73 -17.012,23.52 -2.551,47.051 -1.992,48.191 0.863,1.129 1.14,2.829 0.57,4.25 -0.57,1.411 -1.98,2.551 -3.398,2.829 -0.282,0.292 -40.821,10.773 -41.95,35.722 -1.422,26.36 19.84,49.32 20.118,49.598 1.421,1.422 1.703,3.41 0.851,5.39 -0.851,1.7 -2.551,2.84 -4.531,2.84 -0.289,0 -25.797,-0.57 -38.27,15.871 -6.519,8.789 -7.648,17.008 -7.371,22.961 6.524,-6.519 16.16,-12.472 27.781,-12.191 3.403,0.281 6.801,0.851 10.493,2.269 26.929,9.922 22.679,52.442 22.386,54.422 l 0,-0.281 c -13.316,242.076 253.141,549.066 366.813,680.036 35.711,41.39 47.051,54.98 49.598,61.79 0.281,0 0.57,0.28 1.14,0.28 42.52,1.13 469.702,-135.5 512.782,-164.68 41.39,-28.07 11.34,-110 -9.92,-156.48 -18.99,-40.82 22.96,-89.57 63.78,-136.91" /><path
         id="path18"
         style="fill:#bb8200;fill-opacity:1;fill-rule:nonzero;stroke:none"
         d="m 1351.16,631.016 0,0 c -0.28,0 -0.85,0 -1.13,0.281 0.28,-0.281 0.85,-0.281 1.13,-0.281" /><path
         id="path20"
         style="fill:#000000;fill-opacity:1;fill-rule:nonzero;stroke:none"
         d="m 513.52,927.234 c -0.278,2.551 -2.829,4.25 -5.387,3.961 -2.551,-0.558 -4.531,-3.109 -3.961,-5.66 0.277,-1.418 23.808,-142.578 -18.152,-182.551 -13.321,-12.468 -26.36,-14.179 -38.547,-4.539 -18.141,14.461 -28.34,49.61 -18.993,66.051 3.969,6.801 8.5,9.352 14.172,8.219 6.239,-1.418 13.039,-7.09 18.149,-14.168 5.379,-7.371 12.75,-28.07 15.301,-27.781 2.839,0.281 -0.282,23.242 -6.231,31.75 -6.808,9.629 -15.879,17.57 -25.23,19.55 -5.668,1.141 -16.442,1.141 -24.379,-12.75 -11.91,-20.691 -0.852,-60.949 21.258,-78.519 15.871,-12.473 34.582,-10.492 51.019,5.098 45.641,43.66 22.113,185.39 20.981,191.339" /><path
         id="path22"
         style="fill:#000000;fill-opacity:1;fill-rule:nonzero;stroke:none"
         d="m 410.625,706.418 c -7.09,2.828 -15.309,-2.551 -25.23,-11.344 -15.59,-13.879 -21.258,-32.027 -21.54,-32.879 -0.57,-1.41 -0.289,-2.84 0.571,-3.961 0.558,-1.136 1.98,-1.988 3.398,-2.277 8.5,-1.133 30.332,1.43 42.52,12.188 5.672,5.113 8.5,11.621 8.222,18.71 0,7.09 -1.14,16.442 -7.941,19.563 m -18.988,-18.711 c 9.636,8.789 13.316,9.641 14.738,9.918 0.281,0 0.281,0 0.281,-0.277 0,0 2.27,-1.133 2.547,-10.762 0,-4.262 -1.699,-7.941 -5.379,-11.352 -7.09,-6.238 -19.558,-9.058 -28.347,-9.636 2.828,5.668 7.648,14.75 16.16,22.109" /><path
         id="path24"
         style="fill:#000000;fill-opacity:1;fill-rule:nonzero;stroke:none"
         d="m 556.039,649.16 c -6.801,15.871 -9.641,28.621 -10.199,39.121 -1.418,23.231 11.051,38.828 9.351,40.821 -1.98,1.968 -18.992,-12.204 -18.992,-36.852 0,-12.48 2.832,-27.781 11.051,-47.059 24.949,-57.261 38.27,-133.242 -5.949,-159.019 -28.629,-17.012 -55.281,-22.113 -66.61,-13.051 -7.66,5.957 -5.961,17.867 -3.121,26.649 8.782,26.929 18.711,36.57 25.508,39.968 4.25,1.992 9.07,2.274 13.613,0.852 1.129,-0.559 1.7,-1.988 1.7,-4.82 -0.289,-2.258 -0.852,-4.809 -1.7,-7.372 -2.839,-9.07 -8.511,-20.117 -7.66,-22.668 0.571,-2.558 12.469,7.372 16.438,18.141 1.422,3.969 2.269,8.219 2.551,11.617 0.289,10.203 -5.668,13.321 -8.219,14.172 -7.082,2.262 -14.449,1.988 -21.262,-1.41 -11.898,-6.238 -22.109,-21.551 -30.039,-45.641 -6.809,-20.98 -0.57,-31.75 5.949,-37.14 14.742,-11.617 45.352,-6.797 77.949,12.191 49.321,29.199 37.422,107.719 9.641,171.5" /><path
         id="path26"
         style="fill:#000000;fill-opacity:1;fill-rule:nonzero;stroke:none"
         d="m 418.844,435.996 c -1.699,2.27 -16.723,-8.801 -18.992,-14.172 -4.25,-9.367 -4.25,-18.136 -4.25,-18.707 0,-2.84 2.261,-4.832 4.812,-4.832 2.559,0 4.82,2.281 4.82,4.832 0,0 0,6.801 3.118,13.891 1.703,4.527 11.91,16.707 10.492,18.988" /><path
         id="path28"
         style="fill:#000000;fill-opacity:1;fill-rule:nonzero;stroke:none"
         d="m 1335.57,869.98 c -1.43,2.27 -4.54,2.821 -6.52,1.418 -0.57,-0.296 -36.57,-23.527 -59.52,-14.738 -8.23,3.11 -13.62,9.91 -16.46,20.969 -6.79,24.949 5.68,42.812 17.3,53.582 17.29,15.59 39.68,21.527 46.77,18.98 4.82,-1.691 7.38,-10.48 5.96,-20.41 -0.85,-5.383 -2.84,-11.043 -5.66,-15.859 -5.12,-8.793 -29.78,-18.723 -29.49,-21.262 0.28,-2.851 29.19,3.68 36,13.32 4.53,6.79 7.37,14.731 8.5,22.391 2.26,15.309 -2.56,27.219 -11.9,30.899 -12.48,4.539 -39.12,-5.098 -56.41,-20.981 -19.28,-17.578 -26.66,-39.961 -20.41,-63.211 3.68,-13.887 11.34,-23.238 22.39,-27.488 27.5,-10.488 66.33,14.73 68.02,15.582 2.27,1.418 2.84,4.527 1.43,6.808" /><path
         id="path30"
         style="fill:#000000;fill-opacity:1;fill-rule:nonzero;stroke:none"
         d="m 1274.62,771.895 c -15.87,13.05 -26.65,17.289 -34.01,13.32 -3.41,-1.969 -7.38,-6.512 -6.23,-17.57 0.27,-4.809 1.7,-10.489 3.96,-15.879 3.98,-10.481 22.11,-21.539 22.96,-18.993 0.57,2.274 -11.34,15.043 -14.74,24.102 -1.41,3.969 -2.27,7.93 -2.84,11.621 -0.28,4.828 0.57,7.66 1.43,8.219 0.27,0 5.38,2.551 23.52,-12.18 23.52,-19.558 20.7,-45.351 7.93,-61.519 -15.02,-18.993 -45.92,-28.352 -78.51,-3.961 -63.22,47.621 -81.08,205.781 -81.36,207.5 -0.27,2.55 -2.55,4.519 -5.1,4.25 -2.84,-0.301 -4.54,-2.852 -4.25,-5.391 0.56,-6.527 18.42,-163.84 85.04,-214.019 37.7,-28.348 73.99,-16.731 91.84,5.679 15.3,19.551 18.99,51.289 -9.64,74.821" /><path
         id="path32"
         style="fill:#000000;fill-opacity:1;fill-rule:nonzero;stroke:none"
         d="m 1355.41,637.539 c -0.28,0.57 -3.97,11.34 -11.91,19.828 -5.1,5.391 -15.59,8.524 -15.87,5.973 -0.28,-2.84 7.09,-9.93 11.06,-15.313 5.1,-6.527 7.65,-13.609 7.65,-13.609 0.85,-2.551 3.68,-3.969 6.24,-3.117 2.26,0.847 3.68,3.687 2.83,6.238" /><path
         id="path34"
         style="fill:#ffcdac;fill-opacity:1;fill-rule:nonzero;stroke:none"
         d="m 1339.81,1106.39 c 24.39,50.46 119.91,190.2 140.62,219.12 -14.18,18.99 -24.66,40.82 -30.05,64.63 -27.8,-36 -160.74,-199.28 -186.54,-225.64 -29.75,-30.61 -76.25,-101.76 -94.11,-135.21 -18.12,-33.454 -184.816,-259.095 -207.207,-282.903 -22.398,-23.539 -45.058,-39.121 -45.058,-39.121 0,0 -11.352,50.742 -12.199,78.511 -0.852,28.071 -144.84,7.379 -142.301,-28.898 0,0 32.89,-77.953 17.289,-94.402 -15.59,-16.442 -56.691,-0.559 -86.731,7.371 -29.757,7.66 -83.91,-11.332 -110.828,-104.313 -26.652,-92.976 -139.48,-226.207 -182.57,-273.828 -43.07,-47.34 -75.102,-72.852 -47.902,-103.461 1.98,-1.988 4.261,-4.82 6.8,-7.367 7.379,0.848 14.75,1.418 22.411,1.129 9.629,0.289 15.019,0.289 16.992,0 7.09,1.418 14.469,2.84 21.558,4.25 26.918,3.969 53.571,8.219 80.77,9.918 6.238,0.293 12.48,0.293 18.43,0 -14.461,20.98 -23.532,31.75 -23.532,31.75 0,0 85.043,128.703 153.364,161.859 68.039,33.453 331.929,-36 422.644,58.684 90.98,94.957 166.68,149.949 165.54,192.75 -1.41,42.808 -74.82,79.937 -130.66,75.117 0,0 97.5,180.852 128.95,242.352 31.48,61.532 71.16,79.382 104.32,147.702" /><path
         id="path36"
         style="fill:#000000;fill-opacity:1;fill-rule:nonzero;stroke:none"
         d="m 353.082,180.02 c 3.969,0.582 7.938,1.128 11.91,1.429 -3.41,3.68 -6.519,7.371 -9.082,10.192 -20.117,22.109 -4.808,40.55 31.75,79.668 l 16.16,17.281 c 25.512,28.058 154.2,173.199 183.692,275.519 27.211,94.11 80.5,107.153 104.879,100.922 L 707.98,660.5 c 28.629,-8.219 60.942,-17.301 75.969,-1.422 16.442,17.57 -9.636,83.633 -15.879,98.652 0,5.942 5.672,11.051 10.77,14.461 19.851,13.039 57.262,20.957 85.609,21.809 14.172,0.301 25.801,-0.852 32.313,-4.238 2.269,-1.434 3.687,-2.551 3.687,-3.981 0.852,-28.051 11.91,-77.371 12.192,-79.652 0.57,-1.41 1.699,-2.828 3.121,-3.399 0.558,-0.281 1.41,-0.281 1.98,-0.281 0.848,0 1.699,0.281 2.551,0.852 1.137,0.57 23.25,15.871 45.918,39.687 22.68,24.371 189.639,249.731 207.769,283.742 18.71,35.16 64.36,104.89 93.56,134.36 25.22,25.81 154.76,185.1 184.25,223.1 -1.15,3.96 -2.27,7.92 -3.12,11.89 -24.94,-33.45 -161.57,-200.97 -188.22,-228.18 -29.76,-30.05 -76.25,-100.92 -95.25,-136.35 C 1147.91,999.23 980.672,773.039 958.84,749.789 943.82,733.922 928.801,722 920.859,715.77 c -3.117,15.019 -9.918,49.332 -10.488,70.3 -0.281,3.692 -1.699,8.782 -9.07,12.481 -7.942,3.961 -21.262,5.668 -36.852,5.09 -31.179,-0.852 -70.867,-10.192 -90.988,-23.243 -10.77,-7.359 -15.879,-15.296 -15.309,-23.808 0,-0.559 0,-1.141 0.278,-1.41 13.043,-31.192 27.5,-79.649 18.152,-89.289 -10.781,-11.621 -41.391,-2.84 -65.769,4.25 l -15.872,4.25 C 667.16,681.762 607.352,668.441 578.152,566.949 548.391,464.621 412.043,312.109 396.449,295.121 L 380.582,277.82 c -34.301,-36.57 -58.961,-62.929 -32.039,-92.691 1.418,-1.699 2.84,-3.399 4.539,-5.109" /><path
         id="path38"
         style="fill:#000000;fill-opacity:1;fill-rule:nonzero;stroke:none"
         d="m 1477.3,1329.76 c -22.96,-31.75 -120.75,-177.73 -142.01,-221.39 -17,-34.86 -36.02,-56.69 -54.43,-77.96 -17.02,-19.55 -34.29,-39.394 -49.9,-69.445 -30.89,-60.66 -127.82,-240.66 -128.69,-242.36 -0.84,-1.699 -0.84,-3.679 0.28,-5.097 0.86,-1.422 2.56,-2.274 4.54,-2.274 34.87,3.121 78.8,-11.339 104.89,-34.296 12.75,-11.34 19.84,-23.813 20.41,-36 0.86,-28.063 -37.41,-64.911 -90.16,-115.653 -22.37,-21.551 -47.62,-45.64 -73.96,-73.418 -55.29,-57.543 -179.157,-52.722 -278.665,-49.043 -62.351,2.551 -115.921,4.543 -142.859,-8.5 -68.601,-33.738 -151.652,-158.179 -155.062,-163.558 -1.118,-1.7 -1.118,-4.25 0.3,-5.95 0.282,0 8.219,-9.929 20.961,-28.628 4.27,0 8.52,-0.293 12.481,-0.571 -11.332,17.008 -19.84,27.778 -23.531,32.598 12.75,18.711 88.449,127.562 149.109,157.043 12.473,6.226 31.742,8.5 55.551,9.347 23.82,0.571 52.172,-0.281 82.781,-1.417 34.578,-1.411 71.988,-2.833 108.84,-1.704 70.871,1.993 138.914,13.614 177.184,53.582 26.34,27.489 51.59,51.59 73.69,73.129 56.7,54.43 94.11,90.43 92.97,123.02 -0.29,15.031 -8.5,29.769 -23.52,43.09 -26.07,23.25 -67.48,37.703 -103.48,37.14 18.43,34.582 97.23,181.41 124.73,234.993 15.02,28.91 31.18,47.612 48.48,67.452 18.98,21.55 38.27,43.95 55.84,80.23 25.23,51.88 119.91,189.36 139.47,217.14 -2.27,2.83 -4.27,5.67 -6.24,8.5" /><path
         id="path40"
         style="fill:#946451;fill-opacity:1;fill-rule:nonzero;stroke:none"
         d="m 1106.52,721.16 -0.27,0" /><path
         id="path42"
         style="fill:#946451;fill-opacity:1;fill-rule:nonzero;stroke:none"
         d="m 499.629,231.047 c -0.852,1.129 -4.539,5.668 -9.352,10.769 -5.386,5.387 -22.679,13.321 -23.82,10.77 -1.129,-2.551 12.481,-13.031 17.301,-18.141 3.402,-3.672 6.519,-7.359 8.222,-9.351 1.7,-2.258 4.821,-2.547 6.797,-0.848 2.274,1.699 2.551,4.828 0.852,6.801" /><path
         id="path44"
         style="fill:#ffcdac;fill-opacity:1;fill-rule:nonzero;stroke:none"
         d="m 447.754,1052.53 c 0,0 40.25,-79.37 45.07,-131.811 4.821,-52.731 9.918,-107.719 94.391,-133.508 84.758,-25.801 112.82,-40.543 145.418,-55.563 32.601,-15.308 71.152,-31.179 99.5,-25.507 28.34,5.668 62.93,30.609 108,60.089 45.351,29.2 149.387,66.899 148.817,139.458 -0.29,72.292 151.93,456.952 -52.43,596.702 -204.106,139.46 -454.688,13.32 -561.555,-125.58 -106.86,-138.89 -27.211,-324.28 -27.211,-324.28" /><path
         id="path46"
         style="fill:#000000;fill-opacity:1;fill-rule:nonzero;stroke:none"
         d="m 1043.03,1507.49 c -210.612,144 -463.753,9.64 -568.342,-126.43 -107.442,-139.74 -28.641,-327.4 -27.782,-329.38 l 0,-0.28 c 0.289,-0.57 39.961,-79.099 44.5,-130.111 4.821,-52.16 10.199,-110.84 98.082,-137.48 75.41,-23.25 105.45,-37.137 134.367,-50.75 l 10.204,-4.809 c 36.558,-16.73 73.976,-31.75 102.609,-25.801 25.238,5.102 54.141,24.379 91.277,48.473 l 18.422,12.187 33.738,19.282 c 49.615,26.929 117.915,63.781 117.355,124.437 0,14.742 6.8,44.5 15.6,81.922 32.59,142.3 93.53,407.05 -70.03,518.74 M 482.617,1375.11 c 102.328,132.95 349.52,264.47 554.753,124.16 158.16,-108 98.07,-368.5 66.04,-508.25 -9.35,-39.692 -15.88,-68.321 -15.59,-84.192 0.29,-54.707 -64.92,-90.137 -112.535,-115.937 l -34.308,-19.563 -18.711,-12.187 c -36,-23.532 -64.34,-42.243 -87.578,-47.051 -3.122,-0.57 -6.243,-0.852 -9.629,-1.141 -24.68,-0.558 -56.141,11.91 -86.75,26.36 l -10.211,4.543 c -29.469,13.886 -59.52,28.07 -135.77,51.296 -81.359,24.954 -86.18,77.68 -90.992,128.704 -4.82,53.007 -43.367,129.828 -45.641,133.798 -0.847,2.55 -76.828,184.53 26.922,319.46" /><path
         id="path48"
         style="fill:#000000;fill-opacity:1;fill-rule:nonzero;stroke:none"
         d="m 1023.19,426.074 c -0.58,4.539 -12.76,108 -85.616,155.91 -28.621,18.981 -62.351,26.36 -100.902,22.661 -15.32,-1.403 -52.719,-13.59 -51.867,-16.141 0.558,-2.57 37.398,4.809 51.867,6.219 36.562,3.691 68.601,-3.11 95.242,-20.957 69.156,-45.371 81.356,-147.692 81.356,-148.821 0.27,-2.55 2.83,-4.543 5.38,-4.261 2.83,0.281 4.81,2.839 4.54,5.39" /><path
         id="path50"
         style="fill:#000000;fill-opacity:1;fill-rule:nonzero;stroke:none"
         d="m 926.246,699.324 c -1.699,3.41 -3.121,6.813 -3.973,9.653 -0.847,2.55 -3.679,3.961 -6.226,3.109 -2.563,-0.852 -3.973,-3.691 -3.121,-6.238 0.277,-1.41 2.258,-6.524 5.097,-12.473 4.25,-8.789 15.59,-18.43 16.442,-15.879 0.851,2.551 -4.539,13.621 -8.219,21.828" /><path
         id="path52"
         style="fill:#000000;fill-opacity:1;fill-rule:nonzero;stroke:none"
         d="m 982.656,660.781 c -1.98,1.981 -22.39,-18.992 -26.929,-28.922 -14.743,-33.16 -7.09,-66.039 -6.52,-67.738 0.57,-2.84 3.117,-4.539 5.949,-3.691 2.559,0.562 4.258,3.121 3.692,5.961 -0.282,0.281 -7.371,31.179 6.238,61.789 3.961,8.793 19.551,30.621 17.57,32.601" /><path
         id="path54"
         style="fill:#946451;fill-opacity:1;fill-rule:nonzero;stroke:none"
         d="m 665.176,508.27 c -6.52,12.761 -20.692,17.863 -22.11,15.601 -1.128,-2.551 10.489,-11.629 15.872,-25.512 2.558,-6.527 4.539,-14.75 4.82,-25.796 0,-2.833 2.269,-4.833 5.097,-4.833 2.84,0 4.821,2.282 4.821,5.11 -0.559,15.883 -4.25,27.492 -8.5,35.43" /><path
         id="path56"
         style="fill:#ffffff;fill-opacity:1;fill-rule:nonzero;stroke:none"
         d="m 643.918,388.086 c 0,0 -40.82,7.371 -38.273,44.5 2.55,37.141 41.953,40.82 41.953,40.82 0,0 -0.852,20.981 17.578,37.141 18.429,16.148 46.769,1.41 46.769,1.41 0,0 -0.847,24.668 22.11,33.449 22.679,9.071 47.34,-12.468 47.34,-12.468 0,0 11.339,24.949 35.152,28.058 24.09,3.399 40.25,-26.359 40.25,-26.359 0,0 24.949,19.84 46.488,16.73 21.832,-3.121 28.91,-36.293 28.91,-36.293 0,0 20.129,9.922 36.289,3.121 16.153,-7.09 32.886,-44.218 32.886,-44.218 0,0 -7.944,33.73 5.67,52.718 0,0 -17.024,11.91 -16.735,24.672 0.293,13.028 31.745,30.039 31.745,30.039 0,0 -13.88,16.16 -7.09,36.86 6.82,20.691 28.34,16.148 28.34,16.148 0,0 0,20.981 13.33,35.152 13.05,13.891 37.42,2.829 37.42,2.829 0,0 -4.52,34.3 19.84,49.043 24.11,14.75 51.89,-5.102 54.72,-12.473 0,0 12.48,20.14 40.53,18.711 28.07,-1.699 40.54,-63.211 36,-75.68 -4.53,-12.469 -4.53,-231.308 -243.2,-258.238 -238.682,-26.934 -358.022,-5.672 -358.022,-5.672" /><path
         id="path58"
         style="fill:#000000;fill-opacity:1;fill-rule:nonzero;stroke:none"
         d="m 1234.66,715.203 c -7.37,10.774 -15.88,16.723 -25.23,17.293 l -5.39,0 c -18.42,-0.57 -29.76,-9.641 -35.43,-15.59 -4.54,4.539 -11.63,9.071 -19.27,11.91 -5.11,1.7 -11.07,3.11 -17.86,2.829 -6.24,-0.282 -13.32,-1.7 -20.13,-5.95 -19.84,-12.191 -22.39,-34.582 -22.39,-46.211 -4.25,1.141 -9.64,2.27 -15.32,1.993 -7.08,-0.293 -14.73,-2.274 -20.69,-8.512 -10.49,-11.051 -13.31,-25.512 -14.17,-33.16 l -1.13,0 c -9.64,-0.282 -22.39,-4.539 -27.49,-20.129 -5.39,-16.442 0.85,-29.762 5.1,-36.563 -9.93,-5.957 -29.483,-19 -29.772,-31.468 -0.281,-11.899 9.641,-21.829 15.302,-26.36 -4.532,-8.512 -6.231,-18.43 -6.513,-27.781 -6.519,10.492 -15.031,21.262 -23.808,25.23 -5.391,2.27 -11.051,2.832 -16.442,2.832 -7.66,-0.281 -14.168,-2.269 -18.718,-3.679 -3.121,10.199 -12.18,31.75 -31.172,34.297 -2.27,0.281 -4.539,0.562 -6.797,0.281 -15.883,-0.281 -31.75,-9.641 -39.133,-14.738 -5.66,8.218 -19.559,24.937 -38.828,24.378 l -3.41,0 c -19.551,-2.839 -31.172,-17.859 -36.281,-25.8 -6.79,4.82 -20.122,12.761 -35.141,12.191 -3.969,0 -8.219,-0.851 -12.469,-2.551 -17.859,-6.8 -22.961,-22.109 -24.379,-30.898 -5.39,1.988 -13.32,4.25 -22.402,3.969 -7.93,-0.282 -16.149,-2.551 -23.527,-8.789 -15.032,-13.321 -18.141,-29.192 -18.704,-36.563 -15.878,-3.117 -40.257,-15.027 -42.238,-44.789 -2.262,-32.879 26.649,-46.77 42.238,-49.609 1.411,-0.282 122.743,-20.969 359.424,5.668 99.5,11.339 223.1,64.07 246.06,252.851 l 1.13,8.512 c 3.96,10.476 -1.7,44.219 -15.02,64.906 m -118.2,1.981 c 10.77,6.519 21.81,4.82 29.19,2.269 10.77,-3.68 17.57,-10.199 18.13,-12.187 0.86,-1.7 2.28,-2.832 4.27,-3.121 1.7,-0.282 3.68,0.57 4.53,2.269 0.57,0.57 11.61,17.582 36.28,16.16 6.24,-0.277 11.9,-4.539 17.58,-13.039 12.47,-18.988 16.43,-49.32 14.17,-55.84 l -1.99,-10.769 c -12.18,-100.629 -63.49,-224.512 -237.25,-244.071 -67.753,-7.652 -125.581,-11.621 -174.054,-13.039 -120.187,-3.402 -181.418,6.809 -182.269,7.09 -1.699,0.278 -36.559,7.09 -34.309,39.399 2.27,32.32 36,36 37.43,36 2.539,0.289 4.539,2.55 4.539,5.101 0,0.86 -0.57,19 15.59,33.449 15.582,13.61 41.101,0.848 41.371,0.571 1.43,-0.852 3.422,-0.571 4.82,0.277 1.418,0.852 2.559,2.563 2.27,4.262 0,0.851 0,21.262 18.988,28.91 19.563,7.648 41.973,-11.621 42.242,-11.621 1.141,-1.141 2.84,-1.418 4.258,-1.141 1.703,0.293 2.832,1.141 3.402,2.551 0.282,0.289 10.77,22.68 31.739,25.52 20.14,2.55 35.16,-23.809 35.16,-24.098 0.851,-1.133 1.98,-2.27 3.391,-2.551 1.429,0 2.851,0.281 3.968,1.129 0.293,0.289 23.532,18.43 42.813,15.883 17.859,-2.551 24.648,-32.031 24.648,-32.32 0.301,-1.704 1.153,-2.832 2.563,-3.403 1.41,-0.847 3.109,-0.847 4.527,0 0,0 18.141,8.789 32.039,2.84 11.91,-5.109 25.801,-31.75 30.332,-41.668 0.852,-2.269 3.692,-3.402 5.962,-2.551 2.54,0.852 3.96,3.11 3.39,5.668 -0.28,0.282 -7.09,31.742 4.83,48.75 0.85,0.852 1.13,2.274 1.13,3.692 -0.28,1.129 -1.13,2.261 -2.27,3.109 -3.97,2.84 -14.741,12.191 -14.464,20.699 0,6.801 17.304,19.563 29.194,25.793 1.14,0.571 1.99,1.989 2.28,3.399 0.28,1.422 0,2.84 -0.85,3.968 -0.58,0.852 -12.19,14.743 -6.53,32.032 5.39,15.879 21.26,13.332 22.96,13.039 1.43,-0.278 2.84,0.293 3.98,1.14 1.13,0.852 1.98,2.27 1.98,3.68 0,0.289 0,19.281 11.62,31.75 10.77,11.063 31.75,1.981 32.03,1.699 1.7,-0.566 3.41,-0.277 5.11,0.571 1.42,1.132 1.97,2.832 1.7,4.531 0,0.57 -3.68,31.469 17.58,44.219 m -27.22,-45.348 0,0.57 0,-0.57 z m -45.93,-32.313 c 0.29,0 0.58,0 1.14,-0.289 -0.29,0.289 -0.85,0.289 -1.14,0.289 m -400.533,-166.398 0,0" /><path
         id="path60"
         style="fill:#006fb8;fill-opacity:1;fill-rule:nonzero;stroke:none"
         d="m 1041.89,217.727 c -7.09,0 -14.44,7.367 -23.8,16.437 -11.05,10.77 -23.524,23.25 -35.727,23.25 -5.097,0 -9.636,-2.269 -14.437,-6.809 l -1.711,-1.699 -1.41,0.571 c -7.668,-0.571 -70.879,-5.954 -132.102,-11.622 -91.277,-7.941 -134.648,-11.91 -136.348,-11.91 l -0.851,0 -0.848,0.571 c -72.562,39.679 -88.73,88.718 -59.242,180.847 0.281,1.133 34.859,105.731 173.77,105.731 7.363,0 14.73,-0.278 22.382,-0.848 124.438,-9.351 168.664,-47.621 182.274,-64.351 5.95,40.539 33.45,203.531 102.34,233.859 17.27,7.66 36.27,11.621 55.25,11.621 64.93,0 134.66,-47.898 144.57,-155.051 15.32,-163.558 -101.75,-221.949 -187.36,-264.469 -35.44,-17.582 -65.75,-32.89 -78.53,-51.308 -2.54,-3.973 -5.93,-4.82 -8.22,-4.82" /><path
         id="path62"
         style="fill:#30348f;fill-opacity:1;fill-rule:nonzero;stroke:none"
         d="m 1171.45,689.98 c 64.89,0 131.51,-47.339 141.16,-151.941 21.25,-229.32 -220.82,-248.609 -265.32,-313.508 -1.43,-2.269 -3.41,-3.121 -5.38,-3.121 -13.05,0 -36.02,39.399 -59.535,39.399 -5.68,0 -11.07,-2.27 -16.738,-7.661 -3.391,0 -265.883,-23.796 -269.282,-23.796 -70.308,38.546 -87.019,84.757 -57.832,177.16 0,0 32.614,103.187 170.641,103.187 7.09,0 14.473,-0.301 22.109,-0.847 156.774,-11.922 184.837,-70.313 184.837,-70.313 0,0 25.21,206.652 101.46,240.09 17.02,7.383 35.43,11.351 53.88,11.351 m 0,6.801 0,0 c -19.56,0 -39.13,-3.98 -56.7,-11.91 -66.89,-29.473 -95.54,-179.152 -103.18,-229.32 -18.707,19 -66.617,51.597 -179.715,60.09 -7.66,0.578 -15.308,0.847 -22.691,0.847 -141.449,0 -176.879,-106.859 -177.148,-107.988 -29.77,-94.121 -13.332,-144.281 60.929,-185.102 l 1.711,-0.847 1.699,0 c 1.7,0 33.739,2.828 135.5,11.89 56.981,5.11 121.04,10.77 132.372,11.618 l 2.839,-1.399 3.387,3.399 c 3.973,3.972 7.66,5.671 11.922,5.671 10.77,0 23.235,-12.199 33.445,-21.839 9.93,-9.922 17.57,-17.563 26.09,-17.563 3.09,0 7.64,1.133 11.04,6.231 12.19,17.863 42.25,32.882 77.1,50.171 86.47,43.09 204.95,101.77 189.36,267.872 -9.91,109.429 -81.64,158.179 -147.96,158.179" /><path
         id="path64"
         style="fill:#0f81c5;fill-opacity:1;fill-rule:nonzero;stroke:none"
         d="m 1197.23,496.367 c 42.53,32.309 68.89,79.942 89.57,130.391 -39.1,62.078 -113.66,76.539 -169.21,51.89 -45.07,-19.851 -72.57,-100.363 -87.04,-162.722 39.98,-39.391 121.62,-43.649 166.68,-19.559" /><path
         id="path66"
         style="fill:#0f81c5;fill-opacity:1;fill-rule:nonzero;stroke:none"
         d="m 895.914,339.324 c 75.68,15.031 80.5,81.071 57.828,144.293 -27.777,11.047 -66.898,20.969 -122.461,25.219 -156.758,11.621 -192.758,-102.32 -192.758,-102.32 -5.671,-17.86 -9.628,-35.161 -11.902,-52.442 83.051,-41.668 172.633,-44.219 269.293,-14.75" /><path
         id="path68"
         style="fill:#e20000;fill-opacity:1;fill-rule:nonzero;stroke:none"
         d="m 690.684,899.172 c 0,0 20.98,-10.203 22.109,-30.32 0.852,-20.141 -6.52,-74.852 46.199,-80.512 52.453,-5.961 97.801,-2.27 112.543,25.219 14.738,27.5 -8.793,53.589 16.719,84.761 0,0 -25.219,2.828 -42.231,8.508 -16.73,5.66 -39.121,-8.508 -49.609,-11.906 -10.488,-3.402 -20.41,6.808 -32.309,12.469 -11.91,5.949 -27.5,4.25 -43.941,-0.563 -16.441,-4.828 -24.941,-8.226 -29.48,-7.656" /><path
         id="path70"
         style="fill:#f53535;fill-opacity:1;fill-rule:nonzero;stroke:none"
         d="m 787.348,816.113 c -28.059,1.129 -52.438,12.469 -51.309,10.5 2.551,-4.832 6.809,-9.371 13.039,-13.621 13.039,-10.769 75.973,-15.308 91.563,-1.98 3.968,3.402 6.519,7.082 8.218,10.769 1.141,3.133 -32.031,-6.519 -61.511,-5.668" /><path
         id="path72"
         style="fill:#930000;fill-opacity:1;fill-rule:nonzero;stroke:none"
         d="m 892.797,900.02 c -0.57,1.71 -1.981,2.832 -3.969,3.121 -0.281,0 -24.941,2.839 -41.101,8.5 -14.739,4.828 -31.75,-2.821 -43.938,-8.5 l -8.793,-3.692 c -5.379,-1.699 -11.617,2.281 -18.699,6.531 l -10.207,5.95 c -11.621,5.672 -26.641,5.672 -47.344,-0.289 l -12.187,-3.961 c -7.371,-2.27 -13.039,-3.981 -15.301,-3.692 -2.27,0.293 -4.539,-1.136 -5.11,-3.386 -0.851,-2.282 0.29,-4.832 2.559,-5.961 0,0 18.141,-9.071 18.992,-26.082 l 0.278,-8.5 c 0,-23.239 -0.278,-71.149 50.461,-76.829 64.91,-7.082 103.46,2 117.351,28.079 7.09,13.32 6.238,26.062 5.391,38.543 -1.141,15.019 -2.274,29.187 11.047,45.359 1.14,1.41 1.421,3.109 0.57,4.809 m -183.399,-1.7 12.192,3.68 c 8.777,2.559 16.437,3.98 22.957,4.262 6.801,0.277 12.473,-0.852 17.293,-3.121 l 9.348,-5.391 c 6.808,-4.238 13.89,-8.781 21.55,-8.488 1.7,0 3.399,0.269 5.379,0.847 l 9.641,4.25 c 8.5,3.692 19.281,8.493 28.91,8.782 2.84,0.289 5.391,0 7.941,-0.84 11.618,-3.981 26.36,-6.531 35.149,-7.942 -10.199,-16.168 -9.352,-31.468 -8.5,-45.359 0.851,-11.328 1.699,-22.398 -3.969,-33.172 -11.91,-21.527 -47.91,-29.469 -107.723,-22.68 -38.546,4.262 -41.949,35.442 -41.949,66.911 l 0,9.062 c -0.57,13.051 -7.937,21.84 -14.738,27.231 2.269,0.546 3.969,1.117 6.519,1.968 m -18.429,-4.25 -0.563,0" /><path
         id="path74"
         style="fill:#ffffff;fill-opacity:1;fill-rule:nonzero;stroke:none"
         d="m 708.262,892.09 c 0,0 21.261,-27.5 30.332,-42.25 9.066,-14.442 20.976,-21.531 55.558,-20.41 34.578,0.851 57.828,6.531 60.379,20.992 2.832,14.168 10.492,32.598 22.11,40.238 0,0 -18.989,3.981 -30.899,1.43 -11.91,-2.281 -25.23,-22.391 -52.441,-23.238 -36.278,-1.141 -47.91,33.16 -85.039,23.238" /><path
         id="path76"
         style="fill:#930000;fill-opacity:1;fill-rule:nonzero;stroke:none"
         d="m 881.453,891.523 c -0.277,1.969 -1.976,3.692 -3.969,3.961 -0.57,0.289 -20.121,4.25 -32.879,1.7 -5.101,-1.121 -10.21,-4.813 -15.871,-8.782 -8.789,-6.238 -19.847,-14.168 -35.437,-14.738 -15.301,-0.281 -25.512,5.949 -36.563,12.469 -13.609,8.211 -27.5,16.73 -49.609,10.781 -1.699,-0.293 -3.121,-1.43 -3.398,-3.121 -0.571,-1.422 -0.293,-3.121 0.558,-4.551 0.289,-0.269 21.262,-27.769 30.051,-41.937 11.059,-17.864 26.93,-23.821 59.809,-22.973 26.371,0.852 61.511,4.262 65.199,24.941 2.551,13.329 9.922,30.629 19.84,37.141 1.703,1.141 2.55,3.129 2.269,5.109 m -161.566,-2.55 c 12.468,0.57 21.539,-5.11 31.738,-11.352 11.059,-6.508 23.809,-14.168 41.961,-13.598 18.699,0.571 31.461,9.641 40.809,16.149 4.82,3.691 9.082,6.531 12.191,7.09 1.988,0.582 4.258,0.851 6.519,0.851 4.258,0 8.79,-0.269 12.758,-0.851 -8.5,-9.91 -13.886,-24.66 -16.16,-35.989 -1.418,-7.089 -11.898,-15.589 -55.84,-17.019 -32.879,-0.852 -43.09,5.398 -51.019,18.43 -6.52,10.211 -18.707,26.64 -25.52,36.007 0.852,0 1.699,0.282 2.563,0.282" /><path
         id="path78"
         style="fill:#930000;fill-opacity:1;fill-rule:nonzero;stroke:none"
         d="m 935.602,937.441 c -2.27,1.418 -5.391,0.282 -6.52,-1.98 -10.769,-20.129 -42.242,-32.602 -42.519,-32.602 -2.551,-0.847 -3.973,-3.968 -2.833,-6.238 0.852,-2.551 3.68,-3.969 6.231,-3.129 1.422,0.578 35.441,13.899 47.91,37.43 1.129,2.269 0.281,5.391 -2.269,6.519" /><path
         id="path80"
         style="fill:#946451;fill-opacity:1;fill-rule:nonzero;stroke:none"
         d="m 941.555,930.637 c -3.121,5.386 -6.801,9.359 -10.492,12.199 -7.942,6.508 -21.54,7.937 -22.11,5.367 -0.851,-2.547 10.211,-7.93 16.731,-13.598 2.55,-2.269 5.097,-5.089 7.078,-8.781 1.992,-3.129 7.66,-15.597 10.492,-15.019 2.551,0.55 0.57,15.871 -1.699,19.832" /><path
         id="path82"
         style="fill:#930000;fill-opacity:1;fill-rule:nonzero;stroke:none"
         d="m 712.227,897.754 c -12.469,-0.57 -52.161,14.172 -64.348,34.309 -1.41,2.261 -4.25,3.113 -6.801,1.703 -2.269,-1.434 -2.832,-4.262 -1.422,-6.813 13.891,-23.527 56.41,-39.687 72.852,-39.121 2.84,0 4.82,2.273 4.82,5.113 0,2.539 -2.269,4.809 -5.101,4.809" /><path
         id="path84"
         style="fill:#946451;fill-opacity:1;fill-rule:nonzero;stroke:none"
         d="m 660.922,943.684 c -1.129,2.546 -15.309,-1.704 -22.391,-11.063 -3.687,-4.808 -7.937,-24.098 -5.109,-24.66 2.562,-0.848 9.641,13.883 12.191,17.582 5.668,8.219 16.442,15.859 15.309,18.141" /><path
         id="path86"
         style="fill:#000000;fill-opacity:1;fill-rule:nonzero;stroke:none"
         d="m 784.797,1018.79 c 12.187,23.82 3.68,56.69 1.129,56.14 -2.832,-0.3 0,-26.66 -6.52,-45.09 -4.531,-12.46 -13.32,-24.37 -30.609,-30.035 -2.274,-0.852 -3.692,-3.121 -3.402,-5.672 0.281,-0.57 2.55,-13.039 14.46,-22.957 10.2,-8.512 28.622,-36.293 31.18,-36.293 2.828,0.293 -12.762,33.742 -24.672,43.66 -5.949,4.832 -8.5,10.492 -9.918,13.891 14.18,5.949 22.961,15.866 28.352,26.356" /><path
         id="path88"
         style="fill:#000000;fill-opacity:1;fill-rule:nonzero;stroke:none"
         d="m 690.684,1050.26 c 0,0 -22.961,-37.13 -71.719,-37.98 -49.039,-0.85 -53,-6.24 -56.692,-15.311 0,0 -4.25,20.971 28.629,25.231 0,0 -28.347,10.77 -42.519,-5.96 0,0 0.57,11.06 21.543,16.45 0,0 -12.75,14.45 -35.711,3.68 0,0 9.07,10.21 32.598,12.47 23.242,2.55 64.062,-15.02 85.601,-9.35 21.551,5.67 38.551,8.79 38.27,10.77" /><path
         id="path90"
         style="fill:#ffb687;fill-opacity:1;fill-rule:nonzero;stroke:none"
         d="m 706.273,1079.46 c 0,0 -15.589,86.74 -67.75,111.12 -52.16,24.09 -138.609,-59.53 -94.96,-92.13 43.941,-32.88 146.55,-75.68 162.71,-18.99" /><path
         id="path92"
         style="fill:#ffffff;fill-opacity:1;fill-rule:nonzero;stroke:none"
         d="m 706.84,1083.14 c 11.34,-34.3 -78.238,-81.64 -122.457,-62.65 -44.5,19 -63.211,74.56 -15.594,115.09 47.91,40.54 116.512,12.47 138.051,-52.44" /><path
         id="path94"
         style="fill:#126caf;fill-opacity:1;fill-rule:nonzero;stroke:none"
         d="m 602.813,1133.6 c 48.468,23.24 85.89,-26.08 88.441,-36.57 4.539,-18.99 -0.281,-39.97 -14.742,-54.99 -22.68,-23.53 -60.09,-24.38 -83.617,-1.98 -23.532,22.67 -24.383,60.09 -1.704,83.9 3.403,3.69 7.372,7.37 11.622,9.64" /><path
         id="path96"
         style="fill:#002e6c;fill-opacity:1;fill-rule:nonzero;stroke:none"
         d="m 662.906,1110.92 c 17.008,-16.16 17.571,-42.8 1.418,-59.81 -16.16,-16.73 -43.09,-17.58 -59.808,-1.42 -17.012,16.44 -17.582,43.09 -1.422,60.1 16.16,16.72 43.09,17.29 59.812,1.13" /><path
         id="path98"
         style="fill:#000000;fill-opacity:1;fill-rule:nonzero;stroke:none"
         d="m 651,1091.36 c 7.371,-7.09 7.652,-18.99 0.57,-26.36 -7.09,-7.37 -19,-7.66 -26.371,-0.57 -7.648,7.09 -7.929,18.99 -0.558,26.36 7.082,7.37 18.992,7.66 26.359,0.57" /><path
         id="path100"
         style="fill:#ffffff;fill-opacity:1;fill-rule:nonzero;stroke:none"
         d="m 624.355,1091.64 c 5.098,-5.09 5.391,-13.6 0.282,-18.7 -4.821,-5.39 -13.321,-5.39 -18.711,-0.57 -5.102,5.11 -5.379,13.61 -0.281,18.7 5.101,5.39 13.32,5.39 18.71,0.57" /><path
         id="path102"
         style="fill:#000000;fill-opacity:1;fill-rule:nonzero;stroke:none"
         d="m 633.711,1162.8 c -26.359,7.09 -49.891,-4.82 -70.578,-18.71 -8.793,-1.13 -18.992,0.85 -24.102,13.32 0,0 -1.98,-21.26 15.309,-19.55 -6.238,-4.54 -12.188,-9.08 -18.141,-13.04 -8.219,-1.42 -17.578,0 -23.527,11.05 0,0 2.551,-22.96 13.891,-24.66 -10.493,-5.67 -21.543,-1.42 -29.762,4.25 0,0 9.922,-15.31 23.519,-36 5.391,-8.22 8.789,-19.56 16.45,-27.78 15.871,-16.72 36.281,-31.18 61.793,-36.28 0,0 -37.704,13.89 -50.172,51.02 -12.481,37.14 15.019,78.24 60.66,84.47 45.922,6.52 76.25,-22.39 97.789,-67.74 0,0 -11.617,63.49 -73.129,79.65" /><path
         id="path104"
         style="fill:#000000;fill-opacity:1;fill-rule:nonzero;stroke:none"
         d="m 883.441,1049.69 c 0,0 26.653,-37.13 75.403,-37.98 49.036,-0.85 49.036,-6.52 52.726,-15.589 0,0 4.25,20.969 -28.629,25.219 0,0 28.339,10.78 42.519,-5.95 0,0 -0.57,11.06 -21.56,16.44 0,0 12.77,14.46 35.73,3.69 0,0 -9.08,9.92 -32.32,12.47 -23.517,2.55 -64.337,-15.02 -85.888,-9.35 -21.539,5.66 -38.262,8.78 -37.981,11.05" /><path
         id="path106"
         style="fill:#ffb687;fill-opacity:1;fill-rule:nonzero;stroke:none"
         d="m 867.004,1079.74 c 0,0 16.437,85.89 68.598,109.98 52.16,24.1 138.608,-59.52 94.678,-92.41 -43.936,-32.59 -147.12,-74.26 -163.276,-17.57" /><path
         id="path108"
         style="fill:#ffffff;fill-opacity:1;fill-rule:nonzero;stroke:none"
         d="m 867.004,1082.57 c -11.344,-34.58 78.238,-81.92 122.738,-62.93 44.218,18.99 63.208,74.55 15.308,115.09 -47.616,40.53 -116.218,12.75 -138.046,-52.16" /><path
         id="path110"
         style="fill:#126caf;fill-opacity:1;fill-rule:nonzero;stroke:none"
         d="m 939,1131.62 c 60.66,-1.42 60.09,-54.14 49.609,-74.55 -13.89,-27.5 -47.339,-38.27 -74.839,-24.38 -27.211,14.17 -38.27,47.61 -24.09,74.84 6.8,13.88 28.629,24.36 49.32,24.09" /><path
         id="path112"
         style="fill:#002e6c;fill-opacity:1;fill-rule:nonzero;stroke:none"
         d="m 958.277,1117.16 c 20.129,-10.2 28.059,-34.87 17.86,-54.71 -10.492,-20.12 -34.871,-28.06 -54.992,-17.86 -19.848,10.21 -27.778,34.87 -17.579,54.71 10.211,20.13 34.872,28.06 54.711,17.86" /><path
         id="path114"
         style="fill:#000000;fill-opacity:1;fill-rule:nonzero;stroke:none"
         d="m 938.715,1091.64 c 9.07,-4.53 12.473,-15.59 7.941,-24.37 -4.539,-9.07 -15.59,-12.47 -24.379,-7.93 -9.07,4.53 -12.472,15.59 -7.941,24.37 4.539,9.07 15.59,12.48 24.379,7.93" /><path
         id="path116"
         style="fill:#ffffff;fill-opacity:1;fill-rule:nonzero;stroke:none"
         d="m 963.379,1095.05 c 6.519,-3.4 9.07,-11.34 5.672,-17.57 -3.121,-6.52 -11.063,-9.08 -17.582,-5.96 -6.52,3.4 -9.071,11.34 -5.949,17.86 3.398,6.52 11.339,9.07 17.859,5.67" /><path
         id="path118"
         style="fill:#000000;fill-opacity:1;fill-rule:nonzero;stroke:none"
         d="m 940.422,1161.94 c 26.359,7.09 49.887,-4.82 70.298,-18.71 9.07,-1.13 19.27,0.57 24.08,13.04 0,0 2,-20.98 -15.01,-19.27 6.24,-4.54 12.19,-9.08 17.86,-13.04 8.5,-1.42 17.86,0 23.81,10.77 0,0 -2.85,-22.68 -14.17,-24.66 10.47,-5.67 21.82,-1.14 30.03,4.53 0,0 -9.91,-15.31 -23.8,-36 -5.67,-8.79 -2.55,-13.32 -16.44,-27.78 -15.87,-16.72 -36.28,-31.18 -61.791,-36.28 0,0 37.701,13.89 50.171,51.02 12.76,37.14 -14.74,78.24 -60.382,84.47 -45.918,6.52 -76.25,-22.39 -98.078,-67.46 0,0 11.91,63.21 73.422,79.37" /><path
         id="path120"
         style="fill:#000000;fill-opacity:1;fill-rule:nonzero;stroke:none"
         d="m 1052.38,1286.67 c 0,0 -44.79,47.06 -94.376,16.44 -49.34,-30.33 -77.121,-59.24 -95.82,-51.02 -18.711,8.22 21.25,25.79 56.687,42.23 35.16,16.44 88.719,59.53 133.509,-7.65" /><path
         id="path122"
         style="fill:#000000;fill-opacity:1;fill-rule:nonzero;stroke:none"
         d="m 507.285,1243.3 c 0,0 43.649,48.47 93.828,19.56 50.453,-28.91 79.082,-56.98 97.512,-48.19 18.422,8.5 -22.109,25.23 -57.828,40.54 -35.711,15.3 -90.422,56.69 -133.512,-11.91" /><path
         id="path124"
         style="fill:#ffdd00;fill-opacity:1;fill-rule:nonzero;stroke:none"
         d="m 938.148,1398.92 c 0,0 -1.128,-11.62 26.36,-18.99 27.781,-7.09 62.082,-33.73 60.662,-62.08 -1.7,-28.06 0.29,-38.84 0.29,-38.84 0,0 -35.722,-56.41 -31.472,-89 3.973,-32.6 65.772,-49.04 72.292,-80.79 6.8,-31.75 -15.31,-45.92 -16.73,-54.71 -4.25,-26.36 48.76,-51.87 64.06,1.42 35.44,123.59 114.24,172.34 140.04,221.67 26.07,49.6 67.74,123.87 13.32,217.98 -54.43,94.11 -151.37,176.6 -257.39,108 0,0 22.68,55.28 -53.572,117.07 -76.539,61.51 -275.528,0 -359.719,-84.75 -84.191,-84.48 -104.879,-118.21 -145.98,-118.49 -41.098,0 -27.219,36.85 -12.758,47.62 0,0 -85.321,-4.82 -85.321,-83.62 0,0 -11.91,15.31 -49.613,8.22 -37.976,-7.37 -36.558,-56.13 -17.008,-72.85 0,0 -48.179,11.05 -70.011,-25.8 -21.539,-36.85 -1.418,-83.05 37.422,-106.86 0,0 -96.379,-56.13 -103.18,-169.23 -6.813,-113.1 94.961,-161.577 131.808,-176.32 37.129,-15.019 82.77,-40.527 87.872,-63.211 0,0 50.168,57.832 36,119.621 0,0 54.429,-22.667 81.07,1.141 26.648,23.519 37.129,54.709 9.359,109.699 -28.07,54.99 -10.211,104.6 48.469,129.26 0,0 75.68,-14.74 117.352,41.1 41.668,56.13 63.5,127.56 113.668,166.68 0,0 21.542,-26.65 53.292,-21.26 0,0 19.848,-19.85 48.758,-24.66 28.629,-4.82 60.66,1.98 60.66,1.98" /><path
         id="path126"
         style="fill:#000000;fill-opacity:1;fill-rule:nonzero;stroke:none"
         d="m 1270.94,1497.85 c -40.82,70.58 -95.53,118.77 -149.67,131.81 -12.19,2.84 -24.09,3.97 -36,3.69 -23.24,-0.57 -46.2,-7.94 -68.88,-20.7 3.12,19.56 1.7,63.78 -57.542,111.4 -77.391,62.65 -278.078,3.41 -365.668,-84.75 l -47.34,-48.76 c -46.211,-48.47 -65.481,-68.31 -95.531,-68.31 -8.5,0 -19.282,1.7 -21.832,9.92 -3.11,9.07 3.972,23.53 11.91,29.2 1.422,1.13 2.269,3.4 1.422,5.38 -0.571,1.7 -2.563,2.84 -4.262,2.84 l -0.277,0 c -0.852,0 -83.051,-5.67 -89.012,-79.66 -5.668,3.4 -15.02,6.52 -29.481,5.96 -5.097,0 -10.769,-0.57 -17.007,-1.99 -16.723,-3.12 -28.063,-13.6 -32.313,-29.76 -3.687,-13.89 -1.129,-30.05 5.949,-41.67 -2.828,0.28 -5.668,0.28 -8.789,0.28 -17,-0.57 -41.097,-5.95 -54.988,-29.48 -20.691,-34.86 -5.383,-81.35 33.738,-108.85 -20.699,-14.17 -94.121,-70.58 -100.07,-169.23 -6.52,-107.71 81.641,-159.6 134.652,-180.857 39.117,-15.86 80.789,-40.52 85.321,-60.083 0.277,-1.699 1.699,-2.839 3.117,-3.398 1.703,-0.289 3.679,0.281 4.531,1.398 0.289,0.301 0.57,0.864 1.422,1.43 0.566,0.852 -0.281,7.371 -0.281,7.371 -1.422,2.551 -6.52,7.942 -8.512,10.492 -20.41,25.231 -70.578,46.489 -82.199,51.309 -50.739,20.41 -135.211,70.008 -128.981,171.778 6.52,109.13 100.071,164.97 100.922,165.54 1.41,0.57 2.258,2.27 2.258,3.68 0.293,1.7 -0.559,3.12 -1.981,3.97 -34.578,21.26 -57.257,64.63 -36,100.92 19.84,33.44 63.211,24.09 65.204,23.52 1.976,-0.28 3.968,0.57 4.82,2.55 1.129,1.71 0.558,3.97 -0.852,5.39 -9.929,8.5 -14.461,26.65 -10.488,41.67 2.258,8.79 8.496,20.13 25.227,23.24 5.66,1.14 11.05,1.7 15.589,1.7 21.821,0.57 29.481,-7.93 29.481,-8.22 1.133,-1.13 2.262,-1.7 3.68,-1.7 0.57,0 1.14,0.29 1.421,0.29 1.981,0.85 3.122,2.55 3.122,4.25 0,57.26 46.769,73.13 69.16,77.38 -5.672,-8.78 -9.352,-20.12 -6.231,-29.48 2.547,-7.37 9.918,-16.44 30.61,-16.44 34.019,0.29 54.14,20.98 102.05,71.44 l 47.34,48.47 c 83.899,84.75 281.188,142.58 353.481,84.19 72.28,-58.4 53,-109.7 52.15,-111.69 -0.56,-1.98 0,-3.97 1.42,-5.38 1.42,-1.14 3.69,-1.42 5.39,-0.29 34.86,22.68 70.86,29.77 106.86,20.98 51.88,-12.19 104.32,-58.68 144,-127.28 51.89,-89.57 13.89,-161.85 -11.05,-209.48 l -2.27,-3.96 c -1.13,-2.56 -3.97,-9.36 -5.39,-15.03 -1.41,-5.38 -1.41,-10.2 -0.85,-9.64 5.67,6.81 10.78,13.33 14.46,20.41 l 1.99,3.97 c 26.07,49.61 65.48,124.44 11.05,218.27" /><path
         id="path128"
         style="fill:#000000;fill-opacity:1;fill-rule:nonzero;stroke:none"
         d="m 1053.23,1055.93 c 14.75,11.06 21.84,33.45 17.58,54.14 -3.68,17.29 -20.98,29.77 -37.71,41.95 -16.15,11.63 -32.88,23.82 -34.577,38.56 -3.96,30.61 30.327,85.6 30.897,86.17 0.58,0.85 0.85,1.98 0.58,3.12 0,0.28 -1.7,10.77 -0.3,37.7 1.42,32.03 -36.837,59.81 -64.059,66.9 -22.391,5.95 -22.957,14.17 -22.957,14.45 0,1.14 -0.563,2.84 -1.704,3.69 -1.128,0.56 -2.539,1.13 -3.687,0.85 -0.281,0 -31.75,-6.81 -59.242,-2.27 -26.649,4.54 -45.91,23.53 -46.207,23.53 -0.852,1.13 -2.551,1.7 -3.961,1.41 -28.621,-5.1 -48.473,19.28 -48.762,19.56 -1.699,1.99 -4.539,2.27 -6.238,0.85 -32.02,-24.94 -52.153,-61.51 -73.403,-100.06 -12.488,-22.96 -25.527,-46.49 -41.109,-67.46 -39.687,-53.01 -112.25,-39.69 -113.098,-39.41 -0.851,0 -1.703,0 -2.562,-0.28 -30.051,-12.75 -50.457,-32.03 -59.238,-56.12 -8.782,-23.82 -5.961,-51.31 8.23,-79.37 30.039,-59.25 12.75,-85.89 -8.23,-104.32 -24.102,-21.543 -75.68,-0.571 -76.262,-0.282 -1.41,0.559 -3.391,0.559 -4.527,-0.57 -1.422,-1.129 -11.614,-0.57 -10.211,-1.699 5.668,-5.102 22.109,-9.922 24.379,-10.492 9.921,-3.118 24.101,-6.219 38.55,-5.668 12.2,0.3 24.668,3.398 34.301,11.621 32.598,29.2 36.008,64.63 10.207,115.37 -13.039,25.8 -15.867,50.74 -7.93,72.29 7.653,21.26 26.352,38.55 53.293,50.17 3.387,-0.57 12.75,-1.7 26.079,-1.42 26.921,0.85 67.461,8.79 94.109,44.79 16.152,21.54 29.199,45.36 41.941,68.32 20.141,36.56 39.399,70.86 68.032,94.39 6.527,-6.8 23.25,-20.69 46.207,-20.13 1.703,0.29 3.679,0.29 5.39,0.57 5.379,-4.82 24.102,-20.13 49.602,-24.38 9.648,-1.7 19.289,-1.98 28.347,-1.7 13.043,0.29 24.09,1.99 29.762,3.12 2.27,-5.39 9.078,-13.04 28.641,-18.14 24.648,-6.52 58.387,-31.47 57.247,-57.55 -1.41,-23.52 -0.27,-34.58 0,-37.98 -4.53,-7.65 -35.138,-58.68 -31.169,-90.71 2.269,-18.71 20.399,-32.03 38.259,-44.79 15.31,-11.05 31.18,-22.67 34.02,-36.28 3.69,-17.29 -2.27,-36.28 -13.89,-45.35 -4.53,-3.12 -0.57,-11.63 5.38,-7.09 m -643.167,-59.813 0,-0.847 0,0.847 z m 523.558,402.803 0,0.57" /><path
         id="path130"
         style="fill:#000000;fill-opacity:1;fill-rule:nonzero;stroke:none"
         d="m 975.281,1478.57 c -4.25,13.89 -15.308,23.54 -31.75,28.06 -45.066,12.48 -120.187,-14.17 -170.929,-60.36 -1.981,-1.72 -1.981,-4.55 -0.278,-6.53 1.699,-1.7 4.528,-1.99 6.239,-0.29 53.851,48.76 126.14,68.32 162.421,58.41 13.61,-3.7 22.11,-11.07 25.508,-21.84 13.891,-45.91 -28.91,-72 -30.609,-73.13 -2.27,-1.14 -2.84,-3.96 -1.699,-6.24 1.41,-1.99 4.25,-2.84 6.23,-1.42 0.57,0.29 50.738,30.63 34.867,83.34" /><path
         id="path132"
         style="fill:#000000;fill-opacity:1;fill-rule:nonzero;stroke:none"
         d="m 913.492,1437.47 c -0.57,9.07 -9.07,19.28 -32.601,19.28 -40.25,-0.57 -55.559,-31.75 -56.411,-33.17 -0.847,-2.27 0,-5.1 2.27,-5.95 2.27,-1.14 5.102,-0.29 5.949,1.98 0.571,1.14 13.891,27.5 48.481,27.78 15.59,0.28 22.961,-4.82 22.961,-10.2 0.281,-4.82 -5.11,-10.21 -14.18,-10.77 -2.551,0 -4.25,-2.27 -4.25,-4.82 0.281,-2.56 2.269,-4.54 4.82,-4.26 14.739,0.85 23.239,11.06 22.961,20.13" /><path
         id="path134"
         style="fill:#000000;fill-opacity:1;fill-rule:nonzero;stroke:none"
         d="m 636.543,1341.38 c -9.641,15.31 -41.949,16.44 -70.02,10.2 -32.308,-6.8 -68.031,-24.66 -71.71,-54.14 -6.809,-52.44 47.902,-66.61 48.468,-66.89 2.551,-0.57 4.821,0.85 5.672,3.4 0.57,2.55 -0.851,4.82 -3.398,5.67 -1.992,0.28 -47.34,12.47 -41.672,56.69 3.121,24.66 36.57,40.53 64.629,46.49 28.34,5.95 54.14,3.4 60.09,-6.24 4.82,-7.65 4.82,-14.74 0,-20.98 -1.981,-3.11 -5.098,-5.66 -8.778,-7.65 -7.66,-4.53 -30.902,-5.38 -31.472,-7.94 -0.571,-2.55 26.652,-5.67 36.57,0.29 4.25,2.55 8.223,5.95 11.051,9.92 6.808,9.35 7.09,20.41 0.57,31.18" /><path
         id="path136"
         style="fill:#000000;fill-opacity:1;fill-rule:nonzero;stroke:none"
         d="m 396.449,1145.79 c -20.687,10.19 -56.41,3.67 -76.82,-13.9 -16.16,-14.16 -21.258,-33.16 -14.457,-53.57 17.859,-54.43 95.527,-86.175 98.648,-87.593 2.27,-0.84 5.102,0.289 5.95,2.558 0.851,2.551 -0.282,5.102 -2.551,5.949 -0.571,0.282 -76.821,31.466 -93.539,81.926 -7.09,21.54 2.55,35.72 11.898,43.64 19.281,16.74 51.031,20.41 66.621,12.77 18.992,-9.64 32.313,-38.27 31.461,-57.54 0,-5.39 -1.41,-12.19 -6.801,-14.46 -5.668,-2.27 -11.91,-1.43 -18.14,2.82 -11.059,7.38 -19.84,22.41 -20.129,30.34 -0.281,2.56 -2.27,4.54 -4.82,4.54 -2.551,0 -4.532,-2.27 -4.532,-4.54 0.563,-10.77 10.203,-28.63 24.383,-37.98 9.07,-5.68 18.141,-7.09 26.641,-3.68 7.648,3.11 12.187,11.05 12.758,22.39 0.851,22.39 -13.891,54.7 -36.571,66.33" /><path
         id="path138"
         style="fill:#000000;fill-opacity:1;fill-rule:nonzero;stroke:none"
         d="m 401.555,1305.38 c -1.703,1.69 -17.571,-13.04 -39.973,-21.83 -9.641,-3.68 -21.539,-6.8 -35.43,-7.66 -45.918,-3.11 -70.3,11.91 -70.578,11.91 -2.269,1.41 -5.109,0.86 -6.242,-1.41 -1.418,-2 -0.848,-4.82 1.422,-6.25 1.129,-0.84 26.641,-16.71 75.969,-13.32 16.148,1.14 29.48,4.54 40.25,9.07 22.961,9.36 36.558,28.07 34.582,29.49" /><path
         id="path140"
         style="fill:#000000;fill-opacity:1;fill-rule:nonzero;stroke:none"
         d="m 330.969,1416.78 c -21.832,5.67 -44.5,4.54 -45.641,4.54 -1.699,0 -3.121,-1.14 -3.68,-2.56 -0.851,-1.7 -0.57,-3.4 0.278,-4.81 1.133,-1.42 24.953,-31.75 47.34,-31.75 13.89,0 19.562,7.37 20.41,13.89 0.851,7.37 -4.539,17 -18.707,20.69 m -2.274,-8.79 c 8.512,-2.27 12.473,-7.08 11.91,-10.77 -0.289,-3.4 -4.539,-5.67 -10.488,-5.95 l -0.851,0 c -11.34,0 -24.95,11.9 -33.731,20.97 8.5,-0.28 20.973,-1.13 33.16,-4.25" /><path
         id="path142"
         style="fill:#000000;fill-opacity:1;fill-rule:nonzero;stroke:none"
         d="m 1010.71,1607.84 c -0.27,0.28 -0.85,0.28 -1.12,0.28 -2,0 -3.69,-1.41 -4.27,-3.4 -0.27,-0.28 -9.058,-32.88 -21.257,-59.81 -6.231,17.86 -25.219,49.89 -81.629,57.54 -5.391,0.85 -11.063,1.14 -16.442,0.85 -49.328,-1.41 -99.777,-37.7 -128.129,-62.07 -13.89,-11.63 -25.23,-26.65 -23.531,-28.35 2,-1.7 15.59,9.64 29.77,21.83 30.89,26.07 87.031,65.76 136.91,58.67 71.73,-9.92 77.101,-59.81 77.39,-61.79 0,-1.99 1.7,-3.69 3.68,-3.97 1.981,-0.57 3.973,0.57 4.832,2.27 15.296,28.63 26.626,70.58 27.206,72.56 0.56,2.27 -0.85,4.82 -3.41,5.39" /><path
         id="path144"
         style="fill:#000000;fill-opacity:1;fill-rule:nonzero;stroke:none"
         d="m 912.922,1652.62 c -75.402,39.69 -232.442,-32.88 -306.141,-118.2 -7.371,-8.79 -20.133,-31.19 -18.14,-32.6 2.257,-1.14 17.289,17.57 24.089,25.51 73.418,87.02 229.61,151.94 295.942,117.07 74.547,-39.12 70.008,-109.13 69.726,-111.97 -0.277,-2.55 1.704,-4.82 4.25,-5.1 2.274,0 4.543,1.7 4.821,4.25 0,0.85 5.39,79.09 -74.547,121.04" /><path
         id="path146"
         style="fill:#000000;fill-opacity:1;fill-rule:nonzero;stroke:none"
         d="m 1185.61,1385.04 c -17.29,62.35 -58.11,110.82 -96.38,129.53 -50.73,24.66 -95.234,-13.32 -95.804,-13.6 -1.981,-1.7 -1.981,-4.54 -0.571,-6.52 1.7,-1.99 4.821,-2.27 6.52,-0.57 1.695,1.42 40.825,34.3 85.895,12.48 37.41,-18.15 76.25,-67.18 92.41,-127.57 4.53,-16.72 9.91,-57.54 12.18,-57.54 2.55,0.29 1.14,45.07 -4.25,63.79" /><path
         id="path148"
         style="fill:#000000;fill-opacity:1;fill-rule:nonzero;stroke:none"
         d="m 1185.05,1526.2 c -23.54,23.81 -49.61,37.42 -77.39,41.1 -53.57,6.52 -94.67,-26.64 -96.37,-28.07 -1.99,-1.69 -2.28,-4.53 -0.57,-6.52 1.42,-1.98 4.25,-2.26 6.23,-0.57 0.57,0.3 39.97,32.32 89.57,26.09 25.81,-3.41 49.9,-16.16 72.01,-38.27 7.37,-7.37 25.8,-27.78 27.78,-26.36 1.98,1.42 -13.61,24.95 -21.26,32.6" /><path
         id="path150"
         style="fill:#000000;fill-opacity:1;fill-rule:nonzero;stroke:none"
         d="m 1126.93,1310.2 c -10.75,8.21 -18.43,6.51 -22.96,3.69 -9.64,-5.96 -7.93,-30.62 -5.66,-30.05 2.55,0.27 5.09,18.98 10.49,22.39 3.11,1.98 7.38,0.84 12.74,-3.12 8.23,-6.23 9.66,-24.38 3.12,-41.68 -3.39,-8.5 -15.86,-36.27 -46.2,-34.29 -44.51,2.84 -48.46,50.18 -48.46,52.45 -0.3,2.25 -2.28,4.25 -4.82,3.96 -2.55,0 -4.55,-2.26 -4.27,-4.82 0,-0.57 4.55,-57.55 56.99,-60.66 28.9,-1.98 47.62,19.56 55.28,39.97 7.93,21.82 5.66,43.37 -6.25,52.16" /><path
         id="path152"
         style="fill:#ffcdac;fill-opacity:1;fill-rule:nonzero;stroke:none"
         d="m 380.859,161.316 c -42.8,26.922 -52.16,31.75 -56.41,55.563 -4.531,23.809 75.692,57.828 125.86,73.129 50.171,15.301 284.031,4.531 326.832,-0.281 42.519,-4.829 127.847,3.402 168.949,0.562 41.098,-3.109 42.23,-1.41 63.21,-18.711 20.98,-17.281 41.39,-44.781 49.32,-53.57 9.92,-11.352 19.56,-66.61 23.53,-76.828 3.97,-10.481 -17.86,0 -28.35,29.488 -10.77,29.48 -17.57,43.359 -20.12,48.191 -2.84,4.809 -37.141,23.25 -37.141,23.25 0,0 19.851,-53.871 24.951,-70.019 5.1,-16.442 0.28,-75.4025 -4.82,-77.9611 -5.38,-2.5508 -17.572,33.7301 -17.572,33.7301 0,0 -5.11,-11.89 -15.59,-3.961 0,0 7.082,-18.71 3.109,-27.2105 -2.547,-5.668 -7.078,-6.2383 -28.058,21.5315 -20.981,28.078 -36.848,56.418 -40.532,58.398 -3.968,1.699 -73.418,10.5 -96.379,14.461 -22.679,3.969 -32.32,31.469 -52.437,35.719 -19.852,4.543 -203.531,-41.098 -257.672,-62.93 -54.141,-21.539 -87.879,-29.48 -130.68,-2.551" /><path
         id="path154"
         style="fill:#000000;fill-opacity:1;fill-rule:nonzero;stroke:none"
         d="m 1012.14,274.98 c -20.14,16.45 -24.101,16.731 -54.999,18.989 l -10.774,0.57 c -19,1.43 -46.769,0.582 -76.258,-0.57 -34.281,-1.129 -69.718,-2.539 -92.691,0 -39.957,4.551 -277.219,15.883 -328.527,0 -1.133,-0.278 -135.5,-41.668 -128.981,-77.949 4.539,-24.649 15.02,-31.18 53.867,-55.551 l 4.821,-2.828 c 46.472,-29.2 83.332,-18.161 134.632,2.25 55.571,22.109 236.7,66.621 255.129,62.66 8.211,-1.699 14.739,-8.512 21.829,-15.871 8.21,-8.231 17.57,-17.59 30.89,-19.852 l 47.332,-7.078 c 20.141,-2.852 44.789,-6.238 47.34,-7.09 1.707,-1.14 7.09,-9.64 12.469,-17.871 l 26.941,-39.117 c 17.289,-22.9611 23.238,-26.9337 28.629,-26.3517 1.691,0 3.121,0.8516 4.25,1.6992 1.41,1.4102 2.262,3.1094 2.559,3.6914 2.832,6.2301 1.402,15.5781 -0.297,22.3911 0.847,0 2.277,-0.282 2.847,0 1.7,0.57 3.11,1.418 4.243,2.257 4.829,-13.32 11.069,-27.1988 16.169,-29.4801 l 4.81,0.293 c 0.28,0 0.57,0.2773 0.86,0.5586 9.06,8.2187 10.2,70.0075 6.51,82.4885 -3.69,11.91 -15.03,42.801 -20.97,59.519 12.18,-7.078 23.24,-13.879 24.94,-16.148 1.71,-3.11 8.5,-16.149 19.84,-47.328 8.22,-22.692 22.68,-35.16 29.77,-36.293 3.69,-0.571 5.66,1.133 6.24,1.98 1.12,1.43 1.97,3.68 0.55,7.66 l -5.09,19.563 c -6.23,27.5 -12.19,50.726 -19.27,58.68 l -7.67,9.339 c -10.19,12.489 -25.79,31.188 -41.94,44.789 m 64.63,-131.242 c -5.11,3.961 -13.32,13.321 -19,28.352 -11.05,31.172 -17.86,44.5 -20.41,49.031 -2.84,5.098 -25.5,17.859 -38.833,24.949 -1.418,0.852 -3.398,0.559 -4.828,-0.558 -1.398,-1.141 -1.969,-3.133 -1.398,-4.832 0.277,-0.559 20.109,-54.141 24.939,-70.02 3.96,-13.019 1.13,-55.539 -2.28,-69.441 -3.4,5.672 -8.21,17.301 -11.89,28.07 -0.58,1.699 -1.99,2.832 -3.98,2.832 -1.121,0 -2.262,-0.281 -3.11,-1.133 -0.292,-0.289 -0.851,-0.847 -1.132,-1.429 -0.289,-0.559 -0.848,-1.969 -2,-2.821 -0.547,-0.578 -1.118,-1.136 -1.7,-1.136 -1.398,-0.293 -3.109,0.289 -4.82,1.687 -1.687,1.152 -3.668,1.152 -5.379,0 l -0.269,-0.277 c -1.43,-1.121 -1.711,-3.114 -1.141,-4.813 2.551,-7.078 5.379,-19 3.121,-23.5388 0,0 0,-0.2696 -0.293,-0.5508 -1.687,0.8398 -6.797,5.0896 -20.117,22.9496 l -26.652,38.562 c -9.641,14.731 -12.758,19.559 -15.59,20.68 -2.551,1.429 -13.598,3.129 -50.168,8.219 l -47.34,6.808 c -10.5,1.981 -18.141,9.633 -26.082,17.57 -7.648,7.954 -15.309,15.891 -26.09,18.141 -21.527,4.832 -207.488,-41.949 -260.488,-62.93 -56.692,-22.66 -86.742,-28.05 -126.711,-3.097 l -4.82,2.816 c -37.989,23.813 -45.93,28.922 -49.602,49.891 -3.117,17.301 60.934,49.051 122.742,68.031 50.449,15.309 285.449,3.98 325.121,-0.27 23.528,-2.839 59.258,-1.429 94.11,-0.289 28.918,1.137 56.418,1.989 75.129,0.559 l 10.761,-0.559 c 30.34,-2.261 32.028,-2.261 49.9,-17.011 15.58,-12.75 30.89,-31.461 40.82,-43.66 l 7.94,-9.34 c 6.23,-7.09 13.32,-36.86 17.28,-54.989 0,0 2.83,-9.929 4.26,-16.453" /><path
         id="path156"
         style="fill:#000000;fill-opacity:1;fill-rule:nonzero;stroke:none"
         d="m 995.977,175.77 c 7.943,-25.508 7.373,-47.059 7.373,-48.188 0,-2.269 -1.98,-4.25 -4.541,-4.25 -2.262,0 -4.25,2.27 -4.25,4.527 0,0.293 0.57,19.852 -6.524,43.661 -2.828,9.351 -13.039,33.73 -11.047,34.871 2.27,1.41 15.867,-21.27 18.989,-30.621" /><path
         id="path158"
         style="fill:#000000;fill-opacity:1;fill-rule:nonzero;stroke:none"
         d="m 965.645,165.281 c 9.351,-18.707 21.539,-38.828 21.832,-39.117 1.128,-2.269 0.558,-4.82 -1.704,-6.23 -1.988,-1.129 -4.539,-0.571 -5.957,1.699 -0.562,1.129 -12.472,20.691 -21.82,39.109 -4.262,8.512 -9.359,27.5 -7.09,28.352 2.27,0.57 10.77,-16.16 14.739,-23.813" /><path
         id="path160"
         style="fill:#ffcdac;fill-opacity:1;fill-rule:nonzero;stroke:none"
         d="m 1482.4,1307.93 c -33.45,-3.69 -24.66,5.39 -58.11,37.7 2.27,51.02 21.26,119.06 -1.42,170.36 -5.68,12.19 -26.64,30.33 -12.47,35.72 16.72,6.24 33.17,2.83 45.07,-10.77 14.74,-17.29 20.13,-38.84 19.84,-68.88 42.81,38.55 80.21,66.04 117.64,98.93 22.39,19.55 47.06,35.43 76.82,47.62 16.72,7.08 30.05,-1.14 28.06,-7.37 -3.13,-10.49 -19.56,-17.01 -34.86,-28.35 -20.41,-15.59 -49.33,-43.65 -67.47,-70.02 24.66,-10.48 62.65,17.01 77.67,24.67 20.41,10.2 39.97,16.44 62.65,18.14 18.71,1.42 37.13,-8.79 38.83,-17.58 1.14,-6.23 -29.48,-8.78 -45.07,-14.17 -38.83,-13.32 -62.08,-29.2 -105.45,-56.13 62.08,-7.08 147.97,22.96 162.71,-14.45 -37.42,-19.85 -100.91,-6.81 -140.03,-36.85 24.38,-5.67 54.13,-11.91 72.85,-18.14 11.05,-3.69 44.22,-20.41 32.31,-25.8 -17.85,-8.22 -78.23,16.72 -118.2,4.54 -41.95,-12.76 -96.94,-25.23 -151.37,-69.17" /><path
         id="path162"
         style="fill:#000000;fill-opacity:1;fill-rule:nonzero;stroke:none"
         d="m 1789.68,1448.24 4.54,2.27 -1.99,4.82 c -7.94,20.41 -32.03,22.96 -51.87,22.96 -13.33,0 -28.07,-1.42 -43.94,-2.84 -17.86,-1.7 -37.13,-3.4 -54.14,-3.12 33.73,20.98 55.84,34.87 89.29,46.21 5.1,1.7 12.47,3.4 19.84,4.82 17.58,3.68 30.62,6.23 28.92,15.87 -2.27,12.76 -23.82,23.81 -45.08,22.11 -22.39,-1.7 -42.23,-7.37 -64.63,-18.71 -2.83,-1.41 -6.51,-3.4 -10.77,-5.95 -14.74,-8.5 -37.7,-21.83 -54.99,-20.41 18.43,24.38 44.22,48.76 61.8,61.8 4.53,3.68 9.07,6.52 13.6,9.35 11.06,7.09 20.41,13.04 23.25,22.11 0.85,3.4 0,6.8 -2.27,9.64 -5.67,7.94 -20.41,10.2 -33.73,4.82 -28.92,-11.91 -54.43,-28.07 -78.24,-48.76 -16.44,-14.45 -32.88,-27.78 -49.89,-41.67 -18.99,-15.3 -38.27,-30.89 -58.68,-49.04 -1.41,26.08 -7.93,45.07 -20.97,60.1 -13.04,15.02 -32.32,19.84 -51.31,12.47 -5.39,-1.98 -7.37,-5.39 -7.94,-7.94 -2.26,-7.65 3.4,-15.59 9.92,-24.37 2.84,-3.97 5.67,-7.94 7.09,-11.06 16.16,-36 10.49,-82.2 5.39,-123.02 -1.99,-15.88 -3.69,-30.9 -7.66,-45.36 l 0,-2.55 2.55,-0.57 c 2.84,3.69 7.66,7.66 12.76,9.64 0.85,11.91 2.27,24.38 3.69,37.42 5.38,42.24 11.05,90.14 -6.24,128.98 -1.98,4.25 -5.1,8.78 -8.5,13.32 -2.84,4.25 -8.51,11.9 -8.23,14.17 0,0 0.29,0.29 1.14,0.57 14.74,5.67 28.91,2.27 38.55,-9.07 13.32,-15.31 18.71,-34.87 18.43,-65.2 l 0,-13.04 9.63,8.79 c 23.81,21.26 45.92,39.4 67.47,56.69 17.29,14.18 33.73,27.5 50.45,41.95 22.68,20.13 47.34,35.44 75.12,46.78 3.4,1.7 7.09,2.26 10.49,2.26 6.52,0 9.35,-2.55 9.92,-2.55 -1.7,-5.1 -9.64,-10.2 -18.42,-15.87 -4.54,-2.84 -9.64,-5.95 -14.46,-9.64 -19.84,-15.02 -49.89,-43.65 -68.88,-71.43 l -3.97,-5.67 6.52,-2.84 c 4.25,-1.7 9.35,-2.83 14.46,-2.83 20.12,0 43.08,13.32 58.11,22.11 3.96,2.27 7.37,4.25 9.92,5.67 20.97,10.49 39.68,16.16 60.38,17.57 14.74,1.42 28.06,-5.67 31.74,-10.77 -3.97,-1.7 -12.75,-3.4 -18.99,-4.82 -7.37,-1.41 -15.02,-3.11 -20.98,-5.1 -34.86,-11.62 -57.26,-25.79 -91.55,-47.05 l -29.48,-18.43 16.44,-1.7 c 7.08,-0.85 14.45,-1.13 22.96,-1.13 16.72,0 34.3,1.41 51.3,3.11 15.31,1.42 30.05,2.56 42.81,2.56 20.41,0 32.6,-3.41 38.55,-10.78 -14.74,-6.23 -33.17,-8.22 -52.44,-10.2 -29.48,-3.4 -59.81,-6.8 -83.06,-24.66 l -9.64,-7.37 20.7,-4.82 c 22.11,-5.1 47.05,-10.77 63.21,-16.16 9.07,-2.83 24.09,-10.77 29.2,-15.59 -1.14,-0.28 -2.84,-0.57 -5.39,-0.57 -7.65,0 -18.99,1.99 -30.61,3.97 -15.88,2.55 -33.74,5.67 -50.74,5.67 -10.77,0 -19.85,-1.13 -28.07,-3.68 -4.82,-1.42 -9.63,-2.84 -14.74,-4.26 -39.4,-11.62 -88.44,-26.07 -137.19,-64.91 -3.69,-0.28 -6.52,-0.28 -9.07,-0.28 l -3.68,0 c -3.13,-2.27 -4.83,-5.1 -7.1,-11.62 2.84,-0.86 6.52,0 10.78,0 3.4,0 7.08,0.28 11.9,0.85 l 1.7,0 1.14,1.13 c 47.62,38.27 95.81,52.44 134.64,63.78 5.1,1.42 10.21,2.83 15.03,4.53 6.8,1.99 15.02,3.12 24.66,3.12 16.15,0 33.45,-3.12 48.75,-5.67 20.7,-3.4 36.85,-5.67 45.36,-1.98 5.67,2.55 5.95,7.09 5.95,8.79 -0.85,13.6 -38.55,27.49 -38.83,27.78 -15.6,5.1 -38.56,10.48 -59.82,15.3 19.28,9.92 43.09,12.48 66.33,15.03 22.68,2.55 44.23,5.1 61.8,14.17" /><path
         id="path164"
         style="fill:#000000;fill-opacity:1;fill-rule:nonzero;stroke:none"
         d="m 1347.77,1554.12 c -0.16,0 -0.29,0 -0.43,0.02 -2.73,0.22 -4.77,2.62 -4.53,5.36 0.16,1.77 4.05,43.78 39.28,61.55 35.34,18.12 62.02,0.44 63.13,-0.33 2.27,-1.54 2.85,-4.63 1.32,-6.89 -1.57,-2.26 -4.66,-2.85 -6.9,-1.3 -0.91,0.6 -23.06,15.06 -53.05,-0.32 -30.37,-15.32 -33.87,-53.16 -33.89,-53.54 -0.22,-2.59 -2.39,-4.55 -4.93,-4.55" /><path
         id="path166"
         style="fill:#000000;fill-opacity:1;fill-rule:nonzero;stroke:none"
         d="m 1308.93,1556.39 -0.25,0 c -2.75,0.15 -4.86,2.49 -4.7,5.22 0.15,2.78 4.16,68.46 58.41,93.81 54.66,25.15 95.75,3.08 97.48,2.12 2.39,-1.33 3.26,-4.33 1.93,-6.73 -1.32,-2.41 -4.32,-3.28 -6.73,-1.96 -0.39,0.21 -38.61,20.51 -88.52,-2.43 -48.86,-22.84 -52.64,-84.7 -52.67,-85.33 -0.15,-2.64 -2.33,-4.7 -4.95,-4.7" /><path
         id="path168"
         style="fill:#000000;fill-opacity:1;fill-rule:nonzero;stroke:none"
         d="m 1752.12,1302.42 c -5.15,0 -8.3,0.56 -8.7,0.63 -2.69,0.5 -4.45,3.08 -3.97,5.77 0.49,2.69 3.01,4.49 5.78,3.99 0.27,-0.06 28.72,-4.8 58.95,19.14 31.74,25.49 26.48,59.88 26.24,61.33 -0.45,2.7 1.38,5.26 4.07,5.71 2.74,0.44 5.26,-1.36 5.72,-4.05 0.28,-1.68 6.59,-41.48 -29.85,-70.75 -23.74,-18.79 -46.32,-21.77 -58.24,-21.77" /><path
         id="path170"
         style="fill:#000000;fill-opacity:1;fill-rule:nonzero;stroke:none"
         d="m 1759.14,1265.93 c -3.57,0 -5.78,0.18 -6.17,0.21 l 0.86,9.88 c 0.41,-0.04 43.82,-3.36 77.74,24.95 43.45,36.3 35,78.4 34.62,80.17 l 9.69,2.13 c 0.44,-2.01 10.3,-49.61 -37.95,-89.92 -29.6,-24.7 -64.76,-27.42 -78.79,-27.42" /><path
         id="path172"
         style="fill:#000000;fill-opacity:1;fill-rule:nonzero;stroke:none"
         d="m 413.223,1875.33 c -4.071,0 -8.352,-0.61 -12.731,-1.81 -11.437,-3.44 -20.121,-10.46 -26.301,-21.4 -5.699,-10.71 -6.918,-21.76 -3.617,-33.54 3.457,-11.75 10.418,-20.38 21.258,-26.28 10.59,-5.75 21.91,-7 33.691,-3.69 11.75,3.45 20.379,10.42 26.27,21.26 5.801,10.44 6.941,21.7 3.461,33.57 -3.242,11.53 -10.301,20.28 -21.02,26.11 -6.929,3.91 -13.761,5.78 -21.011,5.78 m -20.321,-130.04 80.961,-146.13 23.352,6.77 -22.211,173.93 -82.102,-34.57 z m -260.64,28.17 81.011,-238.31 59.372,20.52 -17.622,81.56 62.692,19.96 17.668,-83.51 33.582,9.13 -33.891,240.65 -50.172,-9.72 22.391,-107.68 -63.91,-12.62 -24.289,113.05 -86.832,-33.03 z m 68.652,-263.57 -93.601,275.31 126.332,48.05 25.039,-116.56 25.097,4.96 -22.398,107.75 89.539,17.33 c 1.312,5.06 3.269,10.04 5.871,14.93 8.82,15.62 21.641,25.95 38.219,30.93 17.781,4.89 33.793,2.82 48.84,-5.69 15.25,-8.28 25.832,-21.45 30.472,-37.99 4.938,-16.79 3.168,-33.63 -5.14,-48.59 -0.332,-0.61 -0.661,-1.21 -1,-1.8 l 23.187,9.77 27.684,-216.69 -54.883,-15.9 -99.328,179.29 32.847,13.84 c -5.238,1.32 -10.359,3.34 -15.328,6.04 -9.949,5.41 -17.789,12.65 -23.449,21.62 l 32.141,-228.24 -70.742,-19.23 -17.469,82.61 -24.621,-7.83 17.531,-81.14" /><path
         id="path174"
         style="fill:#0f81c5;fill-opacity:1;fill-rule:nonzero;stroke:none"
         d="m 428.199,1779.05 c 14.457,4.25 25.231,13.04 32.309,26.08 7.09,12.75 8.512,26.64 4.262,41.1 -3.973,14.17 -12.762,24.95 -25.801,32.03 -13.039,7.37 -26.641,8.79 -41.102,4.82 -14.168,-4.25 -24.949,-13.04 -32.32,-26.08 -7.078,-13.32 -8.5,-26.93 -4.527,-41.1 4.25,-14.46 13.039,-25.23 26.078,-32.31 13.039,-7.09 26.929,-8.51 41.101,-4.54 m -49.32,-28.91 90.141,-162.71 39.117,11.34 -24.949,195.3 -104.309,-43.93 z m -105.742,71.43 22.402,-107.72 -44.512,-8.78 -24.66,114.8 -106.578,-40.54 87.309,-256.82 77.101,26.65 -17.57,81.35 43.648,13.89 17.571,-83.05 52.16,14.17 -36.57,259.66" /></g></g></svg>