<?xml version="1.0" encoding="UTF-8" standalone="no"?>
<svg
   xmlns:dc="http://purl.org/dc/elements/1.1/"
   xmlns:cc="http://creativecommons.org/ns#"
   xmlns:rdf="http://www.w3.org/1999/02/22-rdf-syntax-ns#"
   xmlns:svg="http://www.w3.org/2000/svg"
   xmlns="http://www.w3.org/2000/svg"
   viewBox="0 0 248.03751 248.03751"
   height="248.03751"
   width="248.03751"
   xml:space="preserve"
   version="1.1"
   id="svg2"><metadata
     id="metadata8"><rdf:RDF><cc:Work
         rdf:about=""><dc:format>image/svg+xml</dc:format><dc:type
           rdf:resource="http://purl.org/dc/dcmitype/StillImage" /></cc:Work></rdf:RDF></metadata><defs
     id="defs6" /><g
     transform="matrix(1.25,0,0,-1.25,0,248.0375)"
     id="g10"><g
       transform="scale(0.1,0.1)"
       id="g12"><path
         id="path14"
         style="fill:#ffcdac;fill-opacity:1;fill-rule:nonzero;stroke:none"
         d="m 1202.67,77.0195 c 0,0 54.13,128.6795 64.35,228.4725 10.46,99.77 -62.08,238.68 -62.08,238.68 0,0 -59.25,116.789 -96.1,140.027 -36.86,23.25 -80.22,25.223 -80.22,25.223 l -15.87,36.008 c 0,0 4.82,37.422 19.55,49.031 7.38,5.961 16.43,12.762 26.93,22.109 0,0 58.66,11.91 87.59,58.121 37.98,61.508 4.54,117.641 7.94,135.779 30.62,172.62 -51.03,183.12 -87.87,149.09 -32.03,-29.76 -72.003,-29.76 -72.003,-29.76 0,0 -3.969,19.85 10.773,58.4 14.46,38.83 31.75,97.51 -3.68,106.3 -35.445,8.5 -93.265,-70.59 -93.265,-70.59 0,0 -7.66,0.29 -10.488,-24.65 -2.84,-24.68 -7.372,-56.99 -7.372,-56.99 0,0 -92.687,91.84 -122.46,52.45 -25.79,-34.31 -31.18,-109.42 -31.18,-109.42 -37.699,-18.43 -75.399,-60.95 -51.867,-136.628 20.41,-65.192 85.32,-75.121 85.32,-75.121 17.566,-39.68 37.699,-66.039 37.699,-66.039 0,0 -8.5,-30.332 -4.25,-68.321 4.25,-37.98 13.039,-99.211 7.649,-129.261 -5.379,-30.047 -21.821,-36.86 -28.629,-73.7 -6.52,-36.859 -6.231,-62.648 -6.231,-62.648 0,0 -27.218,-28.621 -27.218,-69.73 -0.282,-40.813 11.339,-79.942 11.339,-79.942 0,0 -5.382,-24.949 -5.953,-72.277 C 754.797,204 789.098,77.0195 789.098,77.0195" /><path
         id="path16"
         style="fill:#000000;fill-opacity:1;fill-rule:nonzero;stroke:none"
         d="m 791.918,80.6914 408.292,0 c 7.19,17.6211 53.84,134.2816 63.14,225.1796 10.25,97.543 -60.97,235.203 -61.68,236.594 -0.61,1.187 -59.23,116.18 -94.79,138.617 -35.56,22.422 -78.01,24.641 -78.43,24.66 -1.4,0.082 -2.65,0.93 -3.2,2.211 l -15.87,35.981 c -0.28,0.629 -0.38,1.289 -0.29,1.968 0.21,1.59 5.19,39.063 20.93,51.45 l 5.99,4.781 c 6.11,4.82 13.04,10.308 20.77,17.191 0.49,0.43 1.07,0.739 1.72,0.86 0.56,0.121 57.5,12.179 85.19,56.468 26.66,43.153 17.13,83.301 10.83,109.852 -2.6,10.937 -4.47,18.846 -3.39,24.636 15.52,87.51 1.26,126.78 -13.42,144.32 -8.75,10.44 -20.13,15.94 -32.91,15.94 -12.49,0 -25.4,-5.29 -35.41,-14.55 -32.71,-30.39 -72.82,-30.74 -74.511,-30.74 -1.75,0 -3.27,1.25 -3.609,2.96 -0.172,0.86 -4,21.34 10.95,60.43 16.69,44.84 21.07,75.35 13,90.63 -2.97,5.63 -7.6,9.16 -14.13,10.78 -1.461,0.35 -3.063,0.53 -4.711,0.53 -33.32,0 -84.18,-69.01 -84.691,-69.71 -0.7,-0.94 -1.797,-1.49 -2.969,-1.51 0.25,-0.02 -4.668,-2.3 -6.828,-21.39 -2.813,-24.42 -7.34,-56.75 -7.391,-57.07 -0.191,-1.38 -1.141,-2.53 -2.473,-2.97 -1.316,-0.46 -2.777,-0.11 -3.769,0.86 -0.617,0.62 -62.207,61.21 -99.059,61.21 -7.769,0 -13.609,-2.75 -17.859,-8.37 -24.84,-33.02 -30.391,-106.72 -30.449,-107.45 -0.09,-1.32 -0.871,-2.47 -2.063,-3.06 -23.769,-11.62 -76.23,-47.75 -49.969,-132.226 19.5,-62.262 81.739,-72.473 82.36,-72.57 1.25,-0.172 2.308,-0.981 2.808,-2.129 17.184,-38.782 37.063,-65.043 37.262,-65.321 0.699,-0.91 0.93,-2.121 0.629,-3.23 -0.09,-0.281 -8.258,-30.152 -4.148,-66.891 0.621,-5.511 1.328,-11.511 2.078,-17.832 4.57,-38.418 10.25,-86.277 5.55,-112.508 -2.679,-14.921 -7.89,-24.199 -13.398,-34.019 -5.801,-10.313 -11.789,-21 -15.242,-39.699 -6.367,-35.992 -6.18,-61.684 -6.168,-61.934 0.008,-0.957 -0.36,-1.887 -1.012,-2.578 -0.269,-0.262 -26.199,-28.109 -26.199,-67.199 -0.281,-39.832 11.059,-78.492 11.18,-78.879 0.171,-0.602 0.199,-1.223 0.07,-1.844 -0.051,-0.226 -5.32,-25.199 -5.871,-71.527 -0.25,-42.75 28.211,-152.2112 33.16,-170.9026 m 410.752,-7.3476 -413.58,0 c -1.672,0 -3.129,1.0976 -3.563,2.7109 -1.398,5.2187 -34.429,128.0193 -34.136,175.6093 0.507,42.707 4.859,67.109 5.839,72.098 -1.769,6.23 -11.492,42.14 -11.23,80.109 0,37.992 22.09,65.32 27.211,71.152 0.039,5.981 0.59,29.579 6.297,61.848 3.68,19.922 10.262,31.641 16.062,41.981 5.2,9.269 10.11,18.019 12.571,31.73 4.507,25.141 -1.34,74.402 -5.602,110.332 -0.762,6.34 -1.469,12.359 -2.09,17.879 -3.75,33.469 2.141,60.801 3.91,67.941 -4.39,5.969 -21.05,29.629 -36.281,63.559 -11.39,2.422 -67.461,17.25 -86.25,77.281 -27.879,89.666 30.231,128.946 51.883,140.086 1.098,12.72 7.719,77.33 31.75,109.28 5.648,7.49 13.648,11.28 23.738,11.28 33.629,0 82.852,-43.23 98.989,-58.3 1.5,10.92 4.371,32.35 6.371,49.74 2.359,20.8 8.199,26.28 12.019,27.57 8.492,11.3 55.391,71.59 89.801,71.59 2.23,0 4.401,-0.24 6.451,-0.75 8.6,-2.13 14.95,-6.99 18.91,-14.49 9.22,-17.47 5.09,-49.1 -12.63,-96.66 -10.852,-28.39 -11.301,-46.4 -10.922,-53.27 10.022,0.79 40.872,5.09 66.192,28.61 11.36,10.51 26.1,16.52 40.42,16.52 15.03,0 28.37,-6.42 38.55,-18.59 15.7,-18.73 31.06,-60.03 15.04,-150.36 -0.81,-4.3 1.09,-12.326 3.3,-21.627 6.19,-26.051 16.53,-69.68 -11.74,-115.449 -27.68,-44.27 -80.8,-57.723 -88.99,-59.582 -7.6,-6.731 -14.38,-12.09 -20.38,-16.84 l -5.96,-4.73 c -10.81,-8.528 -16.56,-34.887 -18.09,-45.649 l 14.56,-32.988 c 9.61,-0.774 46.88,-4.953 79.71,-25.652 37.29,-23.508 94.98,-136.68 97.42,-141.469 2.96,-5.692 72.94,-141.012 62.45,-240.742 -10.13,-99.18 -64.07,-228.2309 -64.6,-229.52 -0.58,-1.3476 -1.92,-2.2382 -3.4,-2.2382" /><path
         id="path18"
         style="fill:#88613a;fill-opacity:1;fill-rule:nonzero;stroke:none"
         d="m 1005.09,307.754 c -0.15,0 -0.3,0.012 -0.46,0.039 -1.55,0.25 -2.6,1.723 -2.33,3.25 0.06,0.383 6.59,38.699 31.15,88.402 24.62,49.52 54.39,76.278 55.64,77.391 1.19,1.039 2.97,0.918 4.01,-0.223 1.03,-1.168 0.94,-2.968 -0.24,-4.019 -0.3,-0.258 -30.23,-27.192 -54.33,-75.668 -24.19,-48.953 -30.58,-86.434 -30.65,-86.801 -0.22,-1.383 -1.42,-2.371 -2.79,-2.371" /><path
         id="path20"
         style="fill:#ff0000;fill-opacity:1;fill-rule:nonzero;stroke:none"
         d="m 1203.8,71.9141 c 22.96,60.3789 48.76,124.4409 59.8,189.0699 -46.48,-30.332 -188.49,-24.66 -250.85,9.071 -15.883,-52.16 -203.82,-125.571 -251.723,-75.403 5.953,-43.937 14.172,-82.488 28.063,-122.7379" /><path
         id="path22"
         style="fill:#ff0000;fill-opacity:1;fill-rule:nonzero;stroke:none"
         d="m 1016.43,186.152 c 0,0 68.03,-35.718 212.6,-26.082 11.61,36.571 23.24,67.172 29.76,104.321 -46.49,-30.328 -188.5,-26.078 -250.86,7.652 -15.883,-52.16 -203.813,-123.602 -251.723,-73.422 4.25,-30.898 11.051,-61.23 19.84,-90.148 24.379,-12.7503 179.437,-6.512 240.383,77.679" /><path
         id="path24"
         style="fill:#88613a;fill-opacity:1;fill-rule:nonzero;stroke:none"
         d="m 1025.21,68.2305 c -1.55,0 -2.82,1.25 -2.82,2.8125 -0.03,1.9804 -1.91,198.008 -19.89,238.391 -30.836,69.398 -135.395,97.07 -136.453,97.347 -1.512,0.403 -2.422,1.93 -2.031,3.449 0.39,1.524 1.918,2.403 3.449,2.032 4.41,-1.129 108.281,-28.668 140.215,-100.508 18.46,-41.461 20.3,-232.5431 20.37,-240.672 0.02,-1.5586 -1.25,-2.8398 -2.82,-2.8515" /><path
         id="path26"
         style="fill:#ff0000;fill-opacity:1;fill-rule:nonzero;stroke:none"
         d="m 754.789,351.121 4.82,-35.43 c 0,0 86.172,13.903 135.493,10.774 62.929,-3.692 109.988,-15.582 109.988,-15.582 0,0 51.59,75.109 87.59,109.691 36,34.879 108.28,119.348 108.28,119.348 l -7.93,17.57 c 0,0 -43.66,-68.609 -90.15,-104.32 -46.48,-36 -90.7,-75.117 -139.181,-91.551 -85.32,-28.629 -208.91,-10.5 -208.91,-10.5" /><path
         id="path28"
         style="fill:#bd2a2e;fill-opacity:1;fill-rule:nonzero;stroke:none"
         d="m 879.18,329.758 c 5.84,0 11.261,-0.16 16.101,-0.461 55.399,-3.25 99.09,-12.981 108.589,-15.199 7.72,11.097 53.97,76.937 86.84,108.519 32.99,31.949 97.44,106.731 106.93,117.77 l -5.07,11.238 c -10.5,-15.73 -48.38,-70.301 -87.96,-100.699 -7.34,-5.692 -14.64,-11.449 -21.89,-17.211 -39.53,-31.25 -76.84,-60.789 -118.111,-74.789 -32.25,-10.821 -73.371,-16.309 -122.238,-16.309 -39.949,0 -73.402,3.809 -84.269,5.219 l 3.929,-28.898 c 13.68,2.097 73.321,10.82 117.149,10.82 m 125.91,-21.723 c -0.24,0 -0.47,0.031 -0.7,0.09 -0.46,0.133 -47.538,11.871 -109.449,15.52 -4.742,0.293 -10.043,0.453 -15.761,0.453 -49.102,0 -118.418,-11.09 -119.121,-11.211 -0.739,-0.082 -1.52,0.078 -2.137,0.527 -0.613,0.453 -1.024,1.133 -1.121,1.91 l -4.821,35.434 c -0.121,0.879 0.18,1.75 0.821,2.379 0.629,0.621 1.519,0.937 2.398,0.789 0.391,-0.059 38.992,-5.629 87.172,-5.629 48.258,0 88.77,5.391 120.43,16 40.339,13.68 77.269,42.918 116.379,73.879 7.29,5.75 14.6,11.531 21.96,17.23 45.57,35 89.08,102.918 89.5,103.621 0.56,0.879 1.56,1.289 2.59,1.309 1.04,-0.09 1.96,-0.731 2.39,-1.668 l 7.94,-17.594 c 0.44,-1 0.28,-2.168 -0.42,-3.008 -0.75,-0.839 -72.81,-84.968 -108.49,-119.531 -35.39,-33.988 -86.71,-108.527 -87.23,-109.269 -0.53,-0.782 -1.41,-1.231 -2.33,-1.231" /><path
         id="path30"
         style="fill:#000000;fill-opacity:1;fill-rule:nonzero;stroke:none"
         d="m 1026.91,1047.03 c -2.83,0.57 -25.21,3.97 -55.836,-20.13 -32.879,-25.79 -46.211,-71.15 -46.211,-71.15 -0.281,-1.41 -1.98,-2.258 -3.398,-1.98 -1.422,0.57 -2.27,1.98 -1.981,3.402 0.559,3.398 7.649,43.938 -7.089,77.948 -17.29,39.97 -44.79,49.61 -47.622,50.74 l -0.289,0 c -1.41,0.29 -2.261,1.99 -1.699,3.41 0.289,1.41 1.988,2.26 3.41,1.98 l 17,-9.35 1.989,-1.42 c 10.199,-7.94 22.671,-21.26 32.308,-43.09 9.071,-20.97 10.211,-43.929 9.641,-60.378 7.371,16.16 20.41,38.838 40.543,54.428 25.508,20.13 33.434,18.42 60.934,20.98 1.43,-0.29 2.27,-1.7 2,-3.41 -0.3,-1.41 -2,-2.26 -3.41,-1.98" /><path
         id="path32"
         style="fill:#ffcdac;fill-opacity:1;fill-rule:nonzero;stroke:none"
         d="m 934.789,551.531 c 0,0 13.609,0 13.609,17.012 0.282,16.719 -6.808,14.738 -6.808,14.738" /><path
         id="path34"
         style="fill:#88613a;fill-opacity:1;fill-rule:nonzero;stroke:none"
         d="m 943.684,579.504 -5.211,-24.32 c 3.14,1.296 7.09,4.66 7.09,13.359 0.121,6.859 -1.071,9.777 -1.879,10.961 m -8.891,-30.801 c -0.859,0 -1.672,0.379 -2.199,1.051 -0.551,0.68 -0.75,1.547 -0.582,2.387 l 6.808,31.73 c 0.223,1.031 0.993,1.852 2.012,2.141 0.25,0.07 1.18,0.179 1.441,0.179 1.848,0 3.649,-0.789 5.047,-2.218 2.762,-2.801 4.043,-7.871 3.91,-15.481 0,-19.57 -16.277,-19.789 -16.437,-19.789" /><path
         id="path36"
         style="fill:#ffd100;fill-opacity:1;fill-rule:nonzero;stroke:none"
         d="m 934.508,1215.69 c 102.052,-18.71 128.692,-30.05 175.752,-47.34 46.76,-17.57 70.01,1.42 82.19,19.56 12.48,18.43 36.3,12.19 61.23,6.8 24.96,-5.38 63.51,0 70.59,42.52 6.81,42.52 -19.84,40.26 -13.6,77.39 5.94,37.13 95.81,25.23 106.58,96.09 10.77,71.15 -81.35,119.91 -111.97,170.93 -30.61,51.03 3.12,157.61 -151.08,253.7 -154.212,96.38 -232.731,39.12 -276.384,22.11 -43.66,-17 -111.968,-29.19 -140.878,-98.36 -28.629,-68.88 -32.891,-81.64 -81.083,-101.48 -48.468,-19.56 -77.949,-53.57 -73.128,-109.98 5.101,-56.41 54.14,-69.45 51.871,-120.19 -1.981,-50.46 -22.391,-90.14 13.328,-110.27 35.711,-19.84 52.152,-18.42 75.402,-53.01 23.238,-34.58 62.078,-51.59 111.969,-42.8 49.891,8.79 99.211,-5.67 99.211,-5.67" /><path
         id="path38"
         style="fill:#000000;fill-opacity:1;fill-rule:nonzero;stroke:none"
         d="m 892.836,1867.66 -16.16,-7.09 -22.391,-7.93 c -42.519,-14.46 -95.808,-32.6 -120.469,-92.13 l -2.55,-5.67 c -26.368,-63.78 -31.188,-75.12 -76.821,-93.83 -54.429,-22.39 -79.66,-60.66 -75.117,-113.66 2.551,-28.92 15.867,-46.21 28.629,-63.22 12.469,-16.44 24.09,-32.03 23.238,-56.41 -0.558,-13.6 -2.547,-26.08 -4.25,-38.26 -4.816,-32.04 -8.789,-59.53 19.282,-75.12 l 25.789,-13.04 c 19.281,-8.79 32.031,-14.74 48.472,-39.12 24.95,-37.42 65.77,-53.01 115.367,-44.5 48.481,8.5 97.231,-5.39 97.801,-5.39 l 0.282,0 c 96.102,-17.86 124.442,-28.35 167.252,-44.5 l 7.65,-2.84 c 38.55,-14.46 67.46,-7.37 86.74,21.26 10.2,15.31 30.61,11.06 54.43,5.67 l 2.83,-0.57 c 19.28,-4.25 38.83,-1.13 52.72,7.94 11.91,8.22 19.28,20.98 22.11,37.42 3.69,23.24 -2.26,34.3 -7.37,43.93 -4.81,9.08 -9.07,16.73 -6.23,33.45 2.27,13.61 18.71,20.13 37.7,27.78 27.78,11.34 62.36,25.23 68.88,68.6 7.37,48.76 -32.31,87.88 -67.46,122.17 -17.86,17.58 -34.87,34.02 -45.07,51.03 -8.22,13.6 -11.63,32.31 -15.59,53.86 -10.49,55.27 -24.67,130.96 -136.35,200.97 -138.05,86.18 -216.575,50.46 -263.344,29.2 m 361.704,-669.54 -3.12,0.85 c -23.81,5.1 -48.75,10.49 -61.79,-9.07 -17.29,-25.52 -42.81,-31.47 -78.24,-18.43 l -7.65,2.84 c -43.09,16.44 -71.72,26.92 -168.385,44.78 -3.117,0.85 -51.019,14.46 -100.628,5.67 -46.77,-8.22 -85.321,6.52 -108.571,41.39 -17.289,25.79 -31.461,32.6 -51.019,41.67 l -25.508,12.47 c -23.813,13.32 -20.41,36.28 -15.594,68.03 1.703,11.91 3.684,25.23 4.25,39.12 1.133,26.93 -11.617,43.37 -24.656,60.94 -12.481,16.16 -24.953,32.89 -27.223,59.53 -4.527,50.46 18.711,85.32 70.59,106.58 48.473,19.85 54.141,33.17 80.781,97.52 l 2.559,5.67 c 23.519,56.69 74.832,74.26 116.223,88.44 l 22.668,7.93 16.73,7.37 c 45.352,20.7 121.603,55.28 256.533,-28.91 109.14,-68.31 123.03,-142.3 132.95,-196.44 4.25,-22.11 7.65,-41.1 16.72,-56.13 10.49,-17.57 27.78,-34.58 46.21,-52.44 35.43,-34.86 72.28,-70.86 65.48,-116.22 -5.95,-39.12 -37.42,-51.87 -64.92,-62.93 -20.97,-8.5 -38.83,-15.59 -41.95,-33.16 -3.12,-18.99 1.99,-28.63 7.09,-37.99 5.1,-9.35 9.92,-18.42 6.52,-39.4 -2.27,-14.46 -8.79,-25.51 -18.99,-32.6 -17.86,-12.19 -40.54,-8.5 -47.06,-7.08" /><path
         id="path40"
         style="fill:#000000;fill-opacity:1;fill-rule:nonzero;stroke:none"
         d="m 1054.41,1838.18 c 79.65,-26.64 77.39,-80.79 75.67,-116.5 -1.7,-35.14 31.21,-64.63 92.42,-83.34 60.38,-18.14 84.77,-53.29 85.61,-54.71 1.12,-1.7 0.57,-3.68 -0.84,-4.82 -1.71,-1.13 -3.98,-0.57 -5.12,0.85 0,0.29 -23.79,34.58 -81.63,51.88 -64.64,19.84 -99.22,51.87 -97.52,90.42 1.71,35.72 3.98,84.47 -70.87,109.42 -45.34,15.3 -72.267,6.52 -87.005,-3.4 -7.941,-5.67 -14.172,-13.03 -18.43,-21.55 -3.679,-7.07 -7.929,-26.64 -9.922,-26.64 -1.699,0 0.29,24.37 5.391,33.16 4.531,8.23 11.051,15.32 18.988,20.69 16.161,11.06 45.068,20.7 93.258,4.54" /><path
         id="path42"
         style="fill:#000000;fill-opacity:1;fill-rule:nonzero;stroke:none"
         d="m 969.941,1782.91 c 10.2,7.09 26.649,12.18 51.309,7.09 37.69,-7.66 43.65,-41.68 49.32,-74.55 2.27,-14.75 5.09,-29.77 10.48,-42.25 16.17,-38.27 40.54,-47.9 120.76,-79.65 l 8.78,-3.41 c 83.34,-33.44 115.1,-69.16 109.14,-123.59 -2.84,-24.37 -20.12,-32.03 -35.43,-38.82 -15.87,-7.09 -27.78,-12.48 -23.53,-33.46 0.28,-2.82 1.99,-12.75 0.28,-13.32 -1.98,-0.56 -6.8,9.07 -7.36,12.19 -5.1,26.36 11.62,33.74 27.77,41.11 14.75,6.52 28.92,12.75 31.19,33.16 4.82,42.8 -11.34,78.8 -104.88,115.93 l -8.51,3.41 c -80.22,32.02 -107.15,42.8 -124.72,83.61 -5.67,13.34 -8.52,28.64 -11.06,43.66 -5.39,32.03 -10.48,62.37 -43.66,69.16 -22.668,4.55 -37.121,0.3 -45.91,-5.95 -9.918,-6.52 -16.16,-18.71 -17.859,-18.14 -1.981,0.57 1.699,15.59 13.89,23.82" /><path
         id="path44"
         style="fill:#000000;fill-opacity:1;fill-rule:nonzero;stroke:none"
         d="m 1246.32,1346.37 c 1.7,-1.13 1.98,-3.4 0.85,-4.82 -0.57,-0.85 -11.62,-16.72 4.81,-46.77 10.5,-18.99 12.2,-36.85 4.83,-48.19 -5.39,-8.5 -15.31,-12.76 -27.78,-11.91 l -13.61,1.42 c -23.53,2.84 -47.9,5.96 -75.68,-18.71 -1.42,-1.41 -3.4,-1.41 -4.83,0.29 -1.41,1.41 -1.13,3.4 0.29,4.82 30.05,26.93 56.98,23.52 81.07,20.69 l 13.04,-1.42 c 10.21,-0.85 17.58,2.27 21.55,8.51 5.95,9.07 3.96,24.66 -5.12,41.1 -18.98,34.3 -4.81,53.29 -4.24,54.14 1.14,1.7 3.39,1.98 4.82,0.85" /><path
         id="path46"
         style="fill:#000000;fill-opacity:1;fill-rule:nonzero;stroke:none"
         d="m 1219.1,1331.35 c 0.85,-1.42 22.69,-36.57 5.39,-62.08 -8.79,-12.75 -18.99,-11.34 -30.05,-9.64 -12.19,1.99 -27.21,4.26 -49.61,-10.2 -1.7,-1.14 -3.96,-0.57 -4.81,0.85 -1.13,1.7 -0.57,3.97 0.85,5.1 24.67,15.88 42.23,13.04 54.7,11.34 10.78,-1.7 16.73,-2.55 22.96,6.52 14.74,21.83 -5.38,54.14 -5.38,54.43 -1.14,1.7 -0.56,3.96 1.14,4.81 1.41,1.14 3.69,0.57 4.81,-1.13" /><path
         id="path48"
         style="fill:#000000;fill-opacity:1;fill-rule:nonzero;stroke:none"
         d="m 1233.28,1710.91 c 26.36,-45.64 9.64,-81.64 8.79,-83.34 -0.85,-1.7 -2.84,-2.27 -4.83,-1.42 -1.69,0.57 -2.26,2.84 -1.41,4.54 0.57,1.42 15.02,33.16 -7.09,73.98 -1.98,3.69 -7.37,14.74 -5.67,15.59 1.7,1.14 8.78,-6.52 10.21,-9.35" /><path
         id="path50"
         style="fill:#000000;fill-opacity:1;fill-rule:nonzero;stroke:none"
         d="m 1193.31,1725.08 c 19.56,-41.1 7.94,-79.37 7.65,-81.35 -0.56,-1.71 -2.55,-2.84 -4.53,-2.27 -1.99,0.56 -2.84,2.55 -2.27,4.53 0,0.29 11.34,37.99 -7.65,76.82 -1.42,3.12 -5.39,12.76 -3.69,13.89 1.7,0.85 8.79,-8.22 10.49,-11.62" /><path
         id="path52"
         style="fill:#000000;fill-opacity:1;fill-rule:nonzero;stroke:none"
         d="m 870.727,1765.61 c 19.281,0.28 38.832,-7.36 38.269,-9.06 -0.848,-2 -23.527,3.4 -45.637,1.7 -15.312,-1.43 -32.32,-6.8 -45.64,-20.7 -17.86,-18.71 -14.172,-37.98 -10.492,-56.41 3.121,-14.73 5.961,-30.05 -2.829,-43.66 -9.64,-15.3 -23.531,-19.55 -36,-23.52 -13.039,-3.96 -24.101,-7.37 -30.902,-21.26 -4.816,-9.36 -0.566,-15.88 5.672,-25.22 10.211,-15.59 24.102,-36.85 -7.09,-81.07 -0.851,-1.71 -3.109,-2 -4.808,-0.86 -1.422,1.13 -1.993,3.4 -0.852,4.83 28.34,40.25 16.719,57.82 6.801,73.12 -6.242,9.64 -12.762,19.57 -5.949,32.61 8.218,16.16 21.82,20.41 34.859,24.66 12.469,3.68 24.098,7.37 32.32,20.41 7.367,11.34 4.821,24.09 1.981,38.55 -3.973,19.27 -8.223,41.38 12.187,62.65 17.289,18.14 39.68,22.96 58.11,23.23" /><path
         id="path54"
         style="fill:#000000;fill-opacity:1;fill-rule:nonzero;stroke:none"
         d="m 744.301,1445.87 c 0.57,-1.7 -0.571,-3.69 -2.27,-4.25 -0.847,-0.29 -17.859,-5.67 -17.57,-24.1 0,-7.65 11.621,-19.56 23.812,-32.31 17.86,-18.71 38.27,-39.97 38.27,-62.08 0,-1.98 -1.699,-3.69 -3.691,-3.69 -1.7,0 -3.399,1.71 -3.399,3.69 0,19.28 -19.281,39.4 -36.281,56.98 -13.609,14.45 -25.52,26.93 -25.801,37.41 -0.277,19 14.742,28.35 22.391,30.9 1.992,0.57 3.968,-0.57 4.539,-2.55" /><path
         id="path56"
         style="fill:#000000;fill-opacity:1;fill-rule:nonzero;stroke:none"
         d="m 865.906,1786.31 c 18.434,-1.7 36.571,-9.64 36,-11.34 -0.847,-1.98 -18.136,2.27 -35.429,3.97 -15.309,1.42 -33.739,0.85 -49.61,-7.09 -15.019,-7.08 -25.508,-19.84 -31.75,-37.41 -7.078,-21.26 -11.051,-37.99 -13.89,-51.31 -7.368,-32.03 -10.489,-46.77 -48.75,-54.43 -33.168,-6.8 -53.008,-16.72 -60.098,-30.89 -5.383,-10.21 -4.531,-22.68 2.551,-38.27 5.668,-12.19 11.629,-20.69 16.726,-28.35 13.043,-18.99 21.821,-31.46 4.821,-76.53 -17.289,-46.78 -7.09,-53.58 10.203,-64.35 l 13.886,-9.64 c 21.543,-17.86 17.293,-39.68 13.891,-55.84 l -1.418,-8.5 c -0.562,-4.54 6.52,-16.45 20.981,-27.22 11.339,-8.22 41.097,-25.51 75.687,-9.35 1.981,0.85 3.961,0 4.813,-1.7 0.847,-1.7 0,-3.69 -1.704,-4.54 -37.976,-17.86 -70.578,1.14 -82.769,9.92 -15.02,11.06 -25.231,25.23 -24.09,33.74 l 1.699,9.07 c 3.121,15.02 6.801,34.01 -11.617,48.75 l -13.043,9.36 c -20.699,13.04 -31.469,22.96 -13.039,72.56 15.59,41.96 8.5,51.88 -3.969,70.3 -5.39,7.66 -11.621,16.44 -17.582,29.48 -7.648,17.3 -8.5,32.32 -2.258,44.22 8.219,16.45 28.911,27.5 64.911,34.59 33.73,7.08 36.281,17.57 43.371,49.04 2.828,13.6 6.797,30.61 14.168,52.44 6.519,19.27 18.429,33.16 35.441,41.38 16.719,8.22 36,9.07 51.867,7.94" /><path
         id="path58"
         style="fill:#ffcdac;fill-opacity:1;fill-rule:nonzero;stroke:none"
         d="m 778.316,1452.39 c 0,0 -11.621,35.15 -37.421,37.98 -25.508,2.84 -15.02,-51.02 16.441,-81.35 31.469,-30.61 37.988,16.72 20.98,43.37" /><path
         id="path60"
         style="fill:#88613a;fill-opacity:1;fill-rule:nonzero;stroke:none"
         d="m 739.02,1487.64 c -3.942,0 -6.61,-1.86 -8.161,-5.69 -5.718,-14.18 5.692,-48.95 28.45,-70.9 7.781,-7.57 12.879,-9.16 15.789,-9.16 2.84,0 5.043,1.5 6.73,4.59 4.902,8.93 3.68,29.37 -5.898,44.39 -0.422,0.95 -11.68,34.09 -35.34,36.68 -0.539,0.07 -1.07,0.09 -1.57,0.09 m 36.078,-91.41 -0.008,0 c -5.75,0 -12.391,3.62 -19.731,10.75 -24.671,23.8 -36.261,60.98 -29.75,77.09 2.668,6.63 8.149,9.96 15.602,9.12 27.289,-3 39.297,-38.4 39.797,-39.91 9.492,-14.71 12.281,-37.68 5.793,-49.52 -2.703,-4.92 -6.742,-7.53 -11.703,-7.53" /><path
         id="path62"
         style="fill:#ffcdac;fill-opacity:1;fill-rule:nonzero;stroke:none"
         d="m 1177.43,1364.23 c 0,0 22.69,29.48 53.87,16.44 30.9,-13.32 6.51,-39.97 -14.75,-53.29 -20.98,-13.32 -42.79,-25.51 -54.42,-16.44 -11.35,8.79 15.3,53.29 15.3,53.29" /><path
         id="path64"
         style="fill:#88613a;fill-opacity:1;fill-rule:nonzero;stroke:none"
         d="m 1215.27,1381.17 c -20.99,0 -35.45,-18.48 -35.6,-18.67 -10.03,-16.8 -22.18,-44.38 -15.81,-49.32 2.19,-1.71 4.9,-2.54 8.28,-2.54 11.22,0 27.24,9.2 42.89,19.14 14.58,9.13 28.89,23.38 28.02,34.64 -0.42,5.55 -4.75,10.15 -12.89,13.65 -4.9,2.06 -9.92,3.1 -14.89,3.1 m -43.13,-76.2 c -4.62,0 -8.58,1.26 -11.76,3.73 -12.67,9.83 9.95,49.2 14.62,56.99 0.84,1.12 16.52,21.15 40.27,21.15 5.72,0 11.48,-1.19 17.11,-3.55 10.24,-4.42 15.73,-10.62 16.33,-18.44 1.11,-14.55 -15.82,-30.57 -30.66,-39.87 -18.9,-12 -33.95,-20.01 -45.91,-20.01" /><path
         id="path66"
         style="fill:#ffcdac;fill-opacity:1;fill-rule:nonzero;stroke:none"
         d="m 769.246,1476.76 c 0,0 0.281,-48.47 -3.398,-83.34 -3.969,-35.15 -19.559,-67.18 14.742,-102.9 32.027,-33.16 95.527,-56.12 121.316,-82.2 25.512,-26.36 56.692,-27.5 83.91,-20.98 27.214,6.81 81.074,9.92 119.894,14.74 36.86,4.82 45.08,41.11 51.04,64.07 5.95,22.96 26.36,94.67 56.41,123.02 0,0 3.68,19.84 -11.06,36.85 -14.74,17.01 -13.89,35.72 -0.57,50.17 13.33,14.74 24.38,36 -8.5,66.05 -32.88,30.33 -78.24,37.7 -114.24,54.99 -36.28,17.29 -36.85,38.55 -40.25,62.08 -3.68,23.25 -48.751,85.89 -118.2,62.08 0,0 -36.852,10.2 -63.781,-29.48 -26.93,-39.69 4.531,-50.46 -27.219,-76.25 -31.461,-25.8 -52.442,-38.55 -40.25,-64.92 12.187,-26.36 7.656,-45.35 0,-54.14 -7.652,-8.78 -16.723,-13.04 -19.844,-19.84" /><path
         id="path68"
         style="fill:#000000;fill-opacity:1;fill-rule:nonzero;stroke:none"
         d="m 772.086,1476.11 c 0.008,-5.99 0,-50.58 -3.422,-82.98 -0.777,-6.94 -2.008,-13.78 -3.211,-20.38 -4.859,-27.01 -9.457,-52.52 17.184,-80.26 16.797,-17.4 42.328,-31.89 67.008,-45.91 21.589,-12.25 41.98,-23.82 54.281,-36.27 15.078,-15.57 33.719,-23.46 55.449,-23.46 8.09,0 16.762,1.09 25.781,3.25 18.274,4.57 48.524,7.5 77.774,10.34 14.5,1.4 29.48,2.85 42.45,4.46 33.8,4.42 42.05,36.44 48.05,59.82 l 0.57,2.14 c 7.21,27.8 27.07,95.15 56.48,123.68 0.45,3.84 1.43,19.84 -10.52,33.63 -15.26,17.58 -15.44,37.76 -0.51,53.95 12.53,13.86 22.93,33.46 -8.34,62.03 -21.73,20.06 -49.23,29.95 -75.82,39.52 -13.29,4.78 -25.86,9.31 -37.74,15.01 -35.28,16.82 -38.14,37.64 -41.19,59.67 l -0.63,4.56 c -3.07,19.4 -35.66,64.96 -84.886,64.96 -9.66,0 -19.61,-1.74 -29.59,-5.16 l -0.828,-0.28 -0.84,0.23 c -0.039,0.01 -4.031,1.08 -10.172,1.08 -13.937,0 -34.019,-5.11 -50.519,-29.42 -12.481,-18.39 -11.891,-30.14 -11.372,-40.51 0.582,-11.37 1.122,-22.11 -16.398,-36.35 -3.219,-2.64 -6.34,-5.15 -9.32,-7.56 -25.891,-20.83 -40.149,-32.31 -30.141,-53.96 12.621,-27.31 8.051,-47.45 -0.437,-57.2 -3.473,-3.98 -7.192,-7.05 -10.481,-9.76 -3.769,-3.11 -7.051,-5.82 -8.66,-8.87 m 187.289,-294.93 0,0 c -23.32,0 -43.34,8.47 -59.5,25.17 -11.738,11.86 -31.789,23.25 -53.02,35.3 -25.039,14.22 -50.929,28.91 -68.308,46.91 -28.652,29.83 -23.57,57.97 -18.672,85.19 1.18,6.52 2.391,13.26 3.148,19.99 3.633,34.3 3.391,82.53 3.391,83.01 l 0.25,1.2 c 2.039,4.44 5.949,7.67 10.473,11.4 3.277,2.7 6.648,5.49 9.808,9.11 7.328,8.41 11.059,26.25 -0.429,51.1 -11.871,25.67 5.48,39.63 31.73,60.76 2.981,2.4 6.078,4.9 9.301,7.53 15.289,12.43 14.887,20.51 14.328,31.68 -0.551,10.69 -1.219,24.01 12.328,43.97 18.844,27.76 42.672,31.91 55.211,31.91 5.262,0 9.133,-0.71 10.781,-1.07 10.309,3.45 20.621,5.2 30.649,5.2 55.016,0 87.456,-50.56 90.496,-69.78 l 0.64,-4.63 c 2.95,-21.37 5.5,-39.83 38.02,-55.34 11.64,-5.58 24.05,-10.05 37.2,-14.78 27.12,-9.76 55.18,-19.86 77.75,-40.68 35.34,-32.29 21.87,-55.44 8.69,-70.03 -13,-14.09 -12.78,-31 0.59,-46.42 15.47,-17.83 11.88,-38.36 11.7,-39.23 l -0.16,-0.9 -0.68,-0.64 c -29.54,-27.87 -50.04,-100.17 -55.61,-121.67 l -0.55,-2.13 c -6.05,-23.54 -15.22,-59.11 -52.84,-64.04 -13.07,-1.62 -28.09,-3.07 -42.61,-4.48 -29.05,-2.81 -59.09,-5.72 -76.976,-10.19 -9.481,-2.27 -18.598,-3.42 -27.129,-3.42" /><path
         id="path70"
         style="fill:#000000;fill-opacity:1;fill-rule:nonzero;stroke:none"
         d="m 920.898,1724.8 0.282,0" /><path
         id="path72"
         style="fill:#000000;fill-opacity:1;fill-rule:nonzero;stroke:none"
         d="m 920.332,1725.08 c -5.102,1.13 -40.539,7.37 -66.609,-31.18 -13.891,-20.13 -13.039,-33.73 -12.481,-44.5 0.571,-10.78 0.852,-18.71 -14.172,-30.9 l -8.789,-7.09 c -26.64,-21.54 -44.5,-36 -32.308,-62.36 11.34,-24.38 7.648,-41.95 0.558,-50.17 l -9.629,-8.79 c -4.539,-3.69 -9.359,-13.32 -7.66,-14.18 1.699,-0.85 8.219,5.39 12.192,8.79 l 10.488,9.64 c 8.5,9.92 13.039,30.33 0.57,57.83 -9.64,20.41 2.27,31.18 30.328,53.57 l 8.793,7.37 c 17.848,14.46 17.289,25.23 16.438,36.57 -0.289,10.49 -1.141,22.11 11.34,40.25 25.222,37.13 58.672,28.35 60.089,28.06 0.571,-0.28 1.422,-0.28 1.981,0 32.043,11.06 56.98,2.27 72.293,-7.08 24.936,-15.31 39.396,-40.26 41.096,-52.16 l 0.85,-4.82 c 3.12,-22.11 5.95,-42.8 41.39,-59.81 12.19,-5.95 24.67,-10.49 37.98,-15.31 26.65,-9.35 53.86,-19.27 75.69,-39.12 13.03,-11.9 19.84,-23.52 20.4,-34.3 0.29,-8.78 -3.68,-17.29 -12.18,-26.64 -15.31,-16.44 -15.03,-37.13 0.56,-54.99 7.09,-8.22 10.21,-15.03 11.06,-21.55 0.56,-5.95 -1.7,-15.87 0,-16.15 1.98,-0.29 5.95,10.2 5.38,16.72 -0.85,7.94 -2.83,15.87 -11.05,25.51 -13.32,15.31 -13.61,31.75 -0.85,45.64 6.23,6.8 14.74,17.58 14.17,31.75 -0.57,12.75 -8.22,25.79 -22.96,39.12 -22.67,20.97 -50.74,30.89 -77.67,40.82 -13.32,4.81 -25.79,9.07 -37.42,14.74 -32.03,15.3 -34.58,33.44 -37.7,54.7 l -0.56,4.54 c -1.99,13.89 -17.29,40.54 -44.788,57.26 -16.16,9.92 -42.8,19.28 -76.82,8.22 m 0.852,-0.28 -0.282,0" /><path
         id="path74"
         style="fill:#000000;fill-opacity:1;fill-rule:nonzero;stroke:none"
         d="m 831.039,1551.03 c 0,0 32.602,29.76 64.91,7.09 32.031,-22.96 49.61,-43.66 62.653,-38.84 13.039,4.54 -13.321,18.43 -36.571,31.18 -23.242,12.48 -57.543,43.94 -90.992,0.57" /><path
         id="path76"
         style="fill:#000000;fill-opacity:1;fill-rule:nonzero;stroke:none"
         d="m 1204.93,1473.65 c 0,0 -16.72,39.97 -54.99,32.88 -37.99,-7.08 -62.36,-18.42 -72,-8.79 -9.64,9.64 19.56,11.06 45.35,12.76 26.08,1.98 69.73,15.87 81.64,-36.85" /><path
         id="path78"
         style="fill:#c10000;fill-opacity:1;fill-rule:nonzero;stroke:none"
         d="m 1001.97,1274.65 c 1.7,12.19 -22.677,19.28 -34.575,13.61 -11.622,-5.96 -8.223,-0.57 -14.461,3.68 -5.95,4.25 -17.289,17.29 -34.582,3.12 -11.059,-8.79 -6.239,-39.4 26.64,-46.21 33.172,-6.51 52.16,-7.37 56.978,25.8" /><path
         id="path80"
         style="fill:#9e0000;fill-opacity:1;fill-rule:nonzero;stroke:none"
         d="m 998.563,1286.84 c -8.778,6.52 -23.528,8.22 -32.297,3.97 -4.821,-2.27 -5.973,-2.27 -6.243,-2.27 l -0.847,1.13 -4.262,4.82 -2.551,1.7 c -6.508,5.39 -19,15.31 -36,1.42 -5.668,-4.53 -7.648,-13.6 -5.39,-22.96 3.679,-14.46 16.16,-25.23 33.453,-28.63 19.277,-3.97 36.277,-6.52 47.34,1.42 7.078,5.1 11.054,13.6 13.034,26.64 0.85,4.82 -1.42,9.36 -6.237,12.76 m 0.281,-11.62 c -1.129,-9.07 -3.399,-15.31 -6.789,-19.56 -1.141,-1.42 -2.27,-2.55 -3.692,-3.4 -8.23,-5.96 -21.539,-4.54 -42.808,-0.29 -15.02,2.84 -25.782,11.91 -28.903,24.1 -1.699,7.09 -0.289,13.89 3.391,16.72 13.32,11.06 22.402,3.97 28.633,-1.41 l 2.558,-1.71 3.121,-3.4 c 3.118,-4.53 6.239,-4.82 14.45,-0.85 6.808,3.4 19.277,1.7 26.09,-3.4 3.097,-1.98 4.531,-4.53 3.949,-6.8" /><path
         id="path82"
         style="fill:#9e0000;fill-opacity:1;fill-rule:nonzero;stroke:none"
         d="m 1045.06,1270.4 c 0.28,-1.7 -9.36,-4.54 -17.57,-4.82 -9.08,-0.57 -20.41,-0.28 -30.052,2.27 -18.43,4.82 -26.93,4.53 -34.868,3.68 -5.672,-0.56 -10.203,1.99 -14.742,4.82 -3.398,1.99 -7.09,3.97 -12.187,5.39 l -7.082,1.7 c -12.481,2.83 -32.039,7.09 -44.789,18.99 -3.122,3.12 -8.219,13.89 -6.801,14.74 1.41,0.57 8.5,-8.22 11.621,-10.77 11.617,-10.49 29.48,-14.46 41.098,-17.01 l 7.652,-1.7 c 5.668,-1.7 9.64,-4.25 13.328,-6.23 4.531,-2.56 7.371,-4.26 11.332,-3.97 7.938,0.85 17.578,1.13 36.859,-3.97 9.631,-2.27 21.261,-2.55 30.331,-1.99 7.08,0.57 15.59,0.29 15.87,-1.13" /><path
         id="path84"
         style="fill:#956451;fill-opacity:1;fill-rule:nonzero;stroke:none"
         d="m 884.902,1318.3 c 0,-1.41 -5.101,-3.39 -7.371,-4.25 -1.418,-0.57 -7.648,-4.25 -7.648,-4.25 0,0 2.551,6.81 3.68,7.66 4.25,3.11 11.058,2.55 11.339,0.84" /><path
         id="path86"
         style="fill:#956451;fill-opacity:1;fill-rule:nonzero;stroke:none"
         d="m 1036.27,1278.06 c -1.13,-1.7 3.12,-6.52 4.82,-9.07 l 5.1,-8.5 c 0,0 1.42,8.22 0.85,9.92 -2.27,5.67 -9.64,9.35 -10.77,7.65" /><path
         id="path88"
         style="fill:#e20000;fill-opacity:1;fill-rule:nonzero;stroke:none"
         d="m 955.199,1265.58 c -0.277,-3.97 8.789,-2.55 18.992,-3.68 10.207,-1.14 17.579,-3.97 17.86,-0.29 0.57,3.97 -7.371,8.22 -17.571,9.07 -10.21,1.14 -19,-1.13 -19.281,-5.1" /><path
         id="path90"
         style="fill:#ffcdac;fill-opacity:1;fill-rule:nonzero;stroke:none"
         d="m 1124.43,1030.02 c 21.25,-15.02 38.84,-43.368 43.09,-78.797 0,0 4.25,2.55 5.94,0.851 16.72,-16.441 105.17,-104.031 123.31,-125.011 3.97,-4.54 3.69,-3.118 1.41,-6.52 -11.05,-15.867 -58.39,-106.301 -71.98,-143.148 l -60.96,-136.629 c -1.42,-18.43 22.39,-53.293 29.78,-65.481 9.91,-17.012 26.34,-77.672 33.72,-74.269 3.4,1.699 4.55,15.879 3.12,28.347 -1.41,12.742 -11.05,26.36 -13.05,32.313 -2.25,5.957 2.27,11.34 9.08,4.258 30.34,-29.481 15.31,-40.821 34.01,-98.93 10.5,-31.75 19.56,-38.27 21.55,-35.441 1.69,2.839 -3.11,16.16 -4.82,25.523 -1.7,9.066 9.64,64.906 4.26,80.5 -5.12,15.309 -22.1,35.719 -33.46,54.137 -5.38,8.5 -28.35,29.48 -37.14,39.121 -4.8,5.101 -3.09,4.25 -1.11,9.922 8.2,23.238 41.09,78.238 96.93,157.039 34.02,48.187 61.22,94.961 73.41,119.05 0,0 -4.52,30.047 -29.19,53.579 -37.7,48.191 -89.58,111.121 -121.33,163.836 -32.87,54.14 -75.12,161.29 -142.29,144.29 -41.39,-10.2 -42.24,-55.27 -42.24,-75.97" /><path
         id="path92"
         style="fill:#000000;fill-opacity:1;fill-rule:nonzero;stroke:none"
         d="m 1229.59,675.977 0,-0.282 m -54.99,280.34 c 18.14,-17.566 107.16,-105.449 125.01,-126.418 0.57,-0.57 1.13,-1.422 1.7,-1.699 1.13,-1.699 1.98,-2.27 2.26,-3.973 0.3,-1.988 -0.28,-2.84 -1.41,-4.539 -0.28,-0.277 -0.57,-0.558 -0.85,-1.129 l -0.28,-0.281 c -6.23,-9.078 -23.53,-40.539 -39.68,-73.141 -13.05,-26.078 -25.52,-52.429 -31.48,-68.878 l -0.28,-0.282 -60.65,-136.066 c -0.85,-14.742 16.16,-41.672 25.5,-56.41 1.42,-2.262 2.55,-4.25 3.69,-5.953 4.25,-7.368 9.63,-21.539 14.74,-36 3.97,-10.77 7.93,-21.258 11.33,-28.911 2.27,-4.539 2.27,-8.218 2.84,-7.937 0.28,0.277 0.85,2.84 1.13,6.52 0.57,5.097 0.57,11.917 0,18.14 -1.13,7.938 -5.67,17.008 -9.07,23.527 -1.7,3.122 -3.11,5.954 -3.96,7.942 l 0,0.281 c -0.85,2.551 -0.85,5.391 0,7.367 0.56,1.703 1.7,2.84 2.83,3.692 1.42,0.851 2.83,1.41 4.82,1.129 2.26,-0.278 5.1,-1.411 7.93,-4.25 19.28,-18.989 20.98,-30.618 23.81,-50.739 1.71,-12.191 3.69,-27.5 11.07,-49.89 5.09,-15.879 9.92,-25.231 13.6,-30.051 l 0.28,-0.57 c -0.56,2.269 -1.13,5.113 -1.98,8.222 -0.85,3.41 -1.98,7.09 -2.56,10.489 -0.85,4.25 0.58,15.031 1.99,28.058 2.55,19.281 5.38,43.383 2.55,52.16 -3.4,9.641 -11.91,21.832 -20.41,34.024 -4.25,6.226 -8.79,12.75 -12.76,19.269 -3.4,5.391 -14.17,16.16 -23.81,25.52 -5.1,4.808 -9.63,9.629 -13.04,13.027 -5.38,5.961 -5.09,6.524 -2.83,11.063 0.28,0.578 0.58,1.418 1.13,2.55 4.26,12.469 15.32,33.45 32.89,62.079 16.16,26.082 37.7,58.39 64.34,96.089 14.75,20.7 28.35,41.391 39.7,59.821 14.44,23.519 26.07,43.929 32.87,57.551 -0.85,5.66 -6.8,30.32 -27.77,50.16 0,0.289 -0.29,0.289 -0.29,0.57 -7.37,9.348 -13.33,16.719 -19.28,24.09 -34.87,44.219 -75.69,95.808 -102.33,140.042 -5.66,9.07 -11.62,20.12 -17.86,31.74 -29.76,54.71 -67.46,124.16 -120.47,110.84 -19.28,-4.82 -28.91,-17.58 -34.01,-31.75 l -7.93,0.28 c 5.66,16.16 17.84,33.17 40.24,38.84 58.39,14.74 97.79,-57.83 128.69,-114.52 6.24,-11.34 11.92,-22.11 17.86,-31.47 26.36,-43.932 67.18,-95.522 101.76,-139.182 7.38,-9.351 14.46,-18.14 19,-24.09 25.51,-24.383 30.05,-55.55 30.05,-55.55 0.29,-0.86 0,-1.43 -0.29,-2.282 -7.09,-13.609 -18.71,-34.871 -34.02,-59.238 -11.34,-18.711 -24.93,-39.402 -39.68,-60.102 -26.65,-37.699 -48.18,-70.007 -64.07,-95.808 -17.29,-28.063 -28.34,-48.473 -32.59,-60.379 -0.28,-1.41 -0.85,-2.551 -1.13,-3.402 -0.29,-0.559 -0.29,-0.559 1.7,-2.829 2.83,-3.121 7.65,-7.941 12.75,-12.761 9.64,-9.918 20.99,-20.981 24.66,-26.93 3.69,-5.949 8.22,-12.469 12.76,-18.988 8.78,-12.762 17.57,-25.231 21.26,-36 3.4,-10.203 0.29,-35.153 -1.99,-55.281 -1.7,-12.469 -2.82,-22.672 -2.27,-25.79 0.57,-2.839 1.42,-6.519 2.27,-10.21 2.28,-7.372 4.25,-14.743 1.99,-17.852 -0.56,-0.848 -1.14,-1.418 -1.7,-1.699 -1.99,-0.852 -3.97,-0.852 -6.52,0.851 -1.42,0.848 -3.12,2.547 -5.11,4.809 -3.95,5.391 -9.34,15.601 -14.73,32.32 -7.38,22.961 -9.63,38.551 -11.63,51.02 -2.54,18.429 -3.97,29.199 -21.54,46.492 -1.41,1.418 -2.55,1.988 -3.11,2.269 l -0.29,0 c 0,-0.57 0,-1.421 0.29,-2.55 0.56,-1.7 1.97,-3.969 3.4,-7.09 3.69,-7.09 8.78,-16.442 9.92,-25.789 l 0,-0.281 c 0.85,-6.809 0.85,-14.172 0.28,-19.852 -0.85,-6.238 -2.55,-11.051 -5.66,-12.469 -4.54,-1.988 -8.79,2.828 -12.77,11.621 -3.4,7.649 -7.64,18.707 -11.62,29.481 -5.1,13.886 -10.2,28.058 -14.17,34.578 -0.85,1.422 -1.99,3.398 -3.69,5.961 -9.64,15.59 -27.77,44.5 -26.36,61.789 0,0.281 0.29,0.851 0.29,1.129 l 60.94,136.633 c 5.95,16.449 18.71,43.089 31.74,69.457 16.46,32.882 34.02,64.621 40.27,73.98 l 0.27,0.281 0.28,0.571 -1.4,1.418 c -17.02,20.121 -98.66,100.91 -121.62,123.589 l -3.12,3.68 c 1.99,1.422 3.69,2.844 5.39,4.25" /><path
         id="path94"
         style="fill:#e20000;fill-opacity:1;fill-rule:nonzero;stroke:none"
         d="m 955.484,1265.3 c -1.132,-3.68 -9.07,1.13 -18.711,4.25 -9.921,3.12 -17.859,3.12 -16.718,6.81 1.129,3.96 10.199,4.53 19.84,1.41 9.918,-3.12 16.718,-8.5 15.589,-12.47" /><path
         id="path96"
         style="fill:#000000;fill-opacity:1;fill-rule:nonzero;stroke:none"
         d="m 984.961,1390.31 c 1.699,-0.85 -0.852,-12.47 -0.57,-21.26 0,-7.37 2.269,-15.59 9.082,-20.69 0.847,-0.57 1.41,-1.99 1.41,-3.12 -0.281,-0.57 -1.133,-7.94 -7.942,-14.17 -3.679,-3.41 -20.691,-7.37 -20.968,-5.39 l 0,1.42 c 0.277,1.13 11.898,5.67 14.738,7.65 4.82,3.69 6.23,7.94 6.801,9.92 -7.371,6.52 -9.641,15.59 -10.199,23.81 0,4.82 5.949,22.68 7.648,21.83" /><path
         id="path98"
         style="fill:#d68d43;fill-opacity:1;fill-rule:nonzero;stroke:none"
         d="m 1053.28,1407.88 c 0,0 3.67,9.64 11.34,21.26 7.94,11.62 17.57,17.57 34.29,25.8 22.68,11.05 36.86,-5.96 44.51,-20.13 3.69,-7.09 5.67,-13.32 5.94,-15.59 1.43,-6.52 8.52,-24.1 10.22,-35.72 0,0 -47.34,-25.79 -71.44,-14.45 -24.09,11.33 -34.86,38.83 -34.86,38.83" /><path
         id="path100"
         style="fill:#000000;fill-opacity:1;fill-rule:nonzero;stroke:none"
         d="m 1049.31,1411.85 c 0,0 15.6,-30.9 50.74,-37.98 35.15,-7.09 57.83,21.26 57.83,21.26 0,0 18.99,-17.86 22.11,-37.71 0,0 -16.43,10.49 -32.03,1.42 0,0 8.78,-10.49 7.93,-20.97 0,0 -10.19,22.39 -22.11,20.97 0,0 2.84,-9.35 0.3,-16.72 0,0 -2.56,14.74 -9.37,15.59 -6.8,0.85 -62.64,0.85 -75.4,54.14" /><path
         id="path102"
         style="fill:#d68d43;fill-opacity:1;fill-rule:nonzero;stroke:none"
         d="m 933.375,1430.56 c 0,0 -0.852,2.55 -1.98,16.44 -1.141,13.89 -5.11,31.75 -15.879,47.06 -14.453,20.69 -35.153,12.75 -48.473,3.96 -6.801,-4.53 -11.617,-9.07 -13.039,-10.77 -4.25,-5.1 -18.43,-17.29 -25.512,-26.36 0,0 28.91,-45.64 55.563,-47.34 26.359,-1.7 49.32,17.01 49.32,17.01" /><path
         id="path104"
         style="fill:#000000;fill-opacity:1;fill-rule:nonzero;stroke:none"
         d="m 938.762,1432.26 c 0,0 -28.633,-19.56 -62.934,-8.79 -34.297,10.77 -40.25,46.49 -40.25,46.49 0,0 -25.226,-6.24 -37.418,-22.11 0,0 19.281,1.13 28.629,-14.17 0,0 -12.75,-5.1 -17.289,-14.46 0,0 19.84,14.74 29.48,7.37 0,0 -7.089,-6.8 -8.218,-14.17 0,0 9.347,11.62 15.867,8.78 6.242,-2.55 55.281,-29.48 92.133,11.06" /><path
         id="path106"
         style="fill:#ffcdac;fill-opacity:1;fill-rule:nonzero;stroke:none"
         d="m 872.711,350.559 c 6.801,-2.274 24.09,-7.09 29.758,-1.422 7.09,6.808 -26.93,13.89 -44.778,31.191 -17.582,17.289 -22.961,25.219 -35.722,27.77 -12.758,2.269 -45.348,-6.801 -77.098,-6.512 -16.441,0 -33.449,1.992 -50.742,1.992 l 0,0.27 c -9.641,1.699 -17.008,5.39 -18.707,14.168 -3.692,18.16 30.898,206.082 43.367,259.382 12.473,53.297 5.672,84.75 18.422,144.848 3.41,15.871 9.641,38.262 17.301,64.063 -28.922,9.636 -52.731,32.879 -67.75,60.089 -7.09,-56.41 -9.922,-115.371 -12.762,-126.98 -5.102,-20.992 -17.57,-64.07 -25.789,-112.82 -8.223,-49.051 -3.691,-107.153 -6.242,-196.172 -2.547,-88.719 -12.188,-127.559 -4.821,-144 4.543,-10.758 89.582,-25.778 117.071,-24.66 48.191,1.992 72.57,-50.168 100.922,-47.618 9.07,2.27 -21.551,21.258 -38.563,43.09 0.293,0 -1.976,2.828 -1.976,2.828 0.57,0.289 -1.133,3.692 -0.852,4.25 6.801,-1.968 26.078,-9.91 39.68,-16.14 17.011,-8.231 32.601,-24.391 40.82,-11.918 2.84,3.98 -75.969,47.347 -75.969,47.347 0,0 35.149,-17.589 36,-16.167 0.289,0 4.258,-0.282 15.879,1.417 0,0 2.27,1.133 2.551,1.704" /><path
         id="path108"
         style="fill:#000000;fill-opacity:1;fill-rule:nonzero;stroke:none"
         d="m 756.895,345.508 c 26.878,0 46.07,-15.57 63,-29.301 11.531,-9.34 21.582,-17.5 31.449,-18.391 -2.52,2.782 -7.16,6.922 -11.117,10.43 -8.364,7.473 -18.774,16.742 -26.543,26.723 -0.231,0.308 -0.411,0.609 -0.539,0.937 -0.481,0.703 -1.411,1.852 -1.418,1.871 -0.622,0.762 -0.891,1.719 -0.793,2.692 -0.071,0.23 -0.149,0.449 -0.231,0.679 -0.547,1.649 -1.066,3.2 -0.25,4.821 0.801,1.59 2.602,2.371 4.332,1.879 7.301,-2.129 27.039,-10.309 40.192,-16.321 4.808,-2.339 9.32,-5.14 13.679,-7.859 6.84,-4.25 13.309,-8.289 17.75,-8.289 0.969,0 2.078,0.168 3.231,1.141 -7.602,6.437 -41.633,26.507 -73.133,43.839 -1.75,0.969 -2.41,3.18 -1.481,4.938 0.93,1.793 3.114,2.5 4.911,1.609 14.261,-7.129 30.453,-14.777 34.043,-15.777 0.109,0 0.207,0 0.308,0 l 0.969,0 c 1.762,0 5.859,0.148 13.75,1.277 0.359,0.203 0.699,0.403 0.902,0.543 0.949,1.117 2.52,1.59 3.969,1.098 2.738,-0.891 12.238,-3.867 19.531,-3.867 3.141,0 4.848,0.539 5.758,1.039 -2.078,1.777 -7.848,4.57 -12.609,6.89 -10.008,4.84 -22.461,10.887 -31.43,19.579 -3.398,3.339 -6.328,6.32 -8.949,8.968 -10.789,10.981 -15.723,15.992 -24.922,17.821 -5.379,0.953 -16.02,-0.52 -28.559,-2.309 -13.398,-1.891 -30.07,-4.281 -46.359,-4.281 l -1.5,0.011 c -8.191,0 -16.691,0.5 -24.91,0.981 -8.43,0.5 -17.153,1 -25.801,1 -0.73,0 -1.422,0.219 -1.988,0.59 -5.653,1.078 -17.891,4.238 -20.332,16.859 -4.039,19.828 32.492,214.289 43.398,260.899 6.192,26.48 7.57,47.429 9.031,69.582 1.461,22.14 2.969,45.031 9.379,75.199 2.942,13.769 8.16,33.199 16.371,61.012 -23.531,8.789 -45.168,27.097 -60.859,51.277 -3.051,-26.27 -5.219,-52.25 -7.012,-73.617 -1.816,-21.723 -3.129,-37.403 -4.527,-43.133 -1.133,-4.649 -2.609,-10.348 -4.332,-16.981 -5.988,-22.968 -15.027,-57.738 -21.41,-95.589 -5.239,-31.239 -5.25,-66.489 -5.258,-111.098 -0.012,-24.723 -0.02,-52.75 -0.93,-84.563 -1.082,-37.769 -3.492,-66.988 -5.25,-88.339 -2.332,-28.34 -3.742,-45.43 0.11,-54.039 4.55,-7.598 77.89,-22.551 110.539,-22.551 1.07,0 2.082,0.019 3.019,0.062 0.949,0.039 1.891,0.059 2.821,0.059 m 96.21,-55.141 c -13.05,0 -24.539,9.332 -37.851,20.121 -16.527,13.399 -35.367,28.809 -60.879,27.61 -1.031,-0.051 -2.141,-0.078 -3.32,-0.078 -24.45,0 -111.309,12.757 -117.301,26.988 -4.59,10.262 -3.207,27.051 -0.688,57.582 1.75,21.258 4.137,50.367 5.231,87.949 0.898,31.699 0.906,59.68 0.906,84.34 0.024,44.98 0.031,80.469 5.371,112.32 6.442,38.168 15.531,73.11 21.539,96.231 1.711,6.566 3.192,12.258 4.313,16.859 1.258,5.168 2.621,21.418 4.347,42.008 2.032,24.312 4.563,54.601 8.332,84.57 0.2,1.571 1.391,2.852 2.961,3.153 1.52,0.277 3.137,-0.442 3.918,-1.832 15.692,-28.411 39.629,-49.7 65.692,-58.372 1.879,-0.636 2.929,-2.648 2.371,-4.539 -8.731,-29.418 -14.203,-49.679 -17.223,-63.789 -6.301,-29.66 -7.789,-52.281 -9.23,-74.14 -1.481,-22.481 -2.879,-43.719 -9.219,-70.801 -13.359,-57.078 -46.672,-241.418 -43.34,-257.801 1.18,-6.09 6.031,-9.558 15.731,-11.269 0.281,-0.047 0.539,-0.11 0.789,-0.219 8.39,-0.059 16.718,-0.551 24.8,-1.031 8.489,-0.5 16.508,-0.95 24.508,-0.95 l 1.473,0 c 15.769,0 31.469,2.219 45.32,4.192 13.418,1.918 24.438,3.449 30.969,2.25 11.5,-2.281 17.641,-8.531 28.809,-19.891 2.589,-2.64 5.492,-5.59 8.832,-8.879 8.109,-7.851 19.968,-13.582 29.507,-18.211 10.293,-5 16.512,-8.011 17.274,-12.781 0.18,-1.16 0.156,-3.367 -2.024,-5.461 -2.418,-2.449 -6.347,-3.699 -11.617,-3.699 -7.051,0 -15.359,2.223 -19.972,3.672 -0.45,-0.289 -0.989,-0.59 -1.618,-0.91 -0.351,-0.172 -0.73,-0.282 -1.121,-0.332 -4.41,-0.661 -7.769,-1.028 -10.289,-1.219 36.321,-21.391 37.168,-25.102 37.5,-26.539 0.231,-1.012 -0.043,-2.5 -0.652,-3.36 -2.649,-4 -6.32,-6.101 -10.848,-6.101 -6.551,0 -13.543,4.371 -21.652,9.398 -4.199,2.621 -8.527,5.332 -12.918,7.453 -10.152,4.629 -22.57,9.84 -31.109,13.098 7.226,-8.891 16.707,-17.328 24.41,-24.211 11.218,-10 16.34,-14.558 15.179,-19.25 -0.281,-1.129 -1.211,-3.148 -4.281,-3.918 -1.359,-0.172 -2.14,-0.211 -2.93,-0.211" /><path
         id="path110"
         style="fill:#000000;fill-opacity:1;fill-rule:nonzero;stroke:none"
         d="m 756.895,344.656 c 26.57,0 45.64,-15.468 62.468,-29.109 12.34,-10.008 23,-18.641 33.742,-18.641 l 0.129,0 c -2.019,2.684 -7.711,7.762 -12.437,11.981 -8.344,7.429 -18.711,16.691 -26.442,26.609 -0.199,0.242 -0.351,0.531 -0.441,0.813 -0.488,0.699 -1.519,1.968 -1.527,1.98 -0.5,0.649 -0.711,1.457 -0.582,2.258 -0.078,0.262 -0.192,0.57 -0.289,0.891 -0.532,1.582 -0.961,2.832 -0.301,4.16 0.609,1.211 2,1.84 3.332,1.441 7.258,-2.121 26.949,-10.293 40.066,-16.301 4.762,-2.289 9.242,-5.07 13.59,-7.789 9.633,-6 18.184,-11.351 22.684,-6.422 -6.653,6.321 -46.25,29.321 -73.973,44.59 -1.348,0.75 -1.859,2.442 -1.141,3.789 0.723,1.383 2.391,1.891 3.782,1.223 14.558,-7.281 31,-15.012 34.351,-15.859 0.129,0.007 0.258,0.007 0.379,0.007 l 0.969,-0.007 c 1.793,0 5.98,0.16 14.031,1.32 0.551,0.316 1.121,0.648 1.289,0.789 0.629,1.258 1.699,1.328 3.031,0.859 3.551,-1.179 12.59,-3.922 19.801,-3.922 3.43,0 5.867,0.633 7.059,1.821 -0.52,1.422 -7.738,4.929 -13.539,7.73 -9.949,4.821 -22.332,10.821 -31.211,19.41 -3.391,3.34 -6.32,6.313 -8.93,8.993 -10.922,11.089 -15.91,16.16 -25.371,18.039 -5.559,1.031 -16.199,-0.481 -28.84,-2.301 -13.371,-1.891 -30.008,-4.27 -46.238,-4.27 l -1.492,0.008 c -8.168,0 -16.66,0.5 -24.867,0.981 -8.454,0.5 -17.18,1 -25.852,1 -0.621,0 -1.199,0.203 -1.672,0.543 -7.769,1.507 -17.637,4.976 -19.816,16.207 -3.821,18.832 30.84,206.929 43.398,260.562 6.211,26.539 7.59,47.52 9.051,69.738 1.461,22.09 2.969,44.961 9.359,75.051 2.969,13.871 8.25,33.52 16.578,61.692 -24.296,8.878 -46.628,27.949 -62.457,53.25 -3.211,-27.09 -5.461,-54.012 -7.3,-76.024 -1.813,-21.68 -3.121,-37.316 -4.512,-43.019 -1.117,-4.629 -2.609,-10.329 -4.328,-16.938 -5.981,-23.012 -15.031,-57.762 -21.422,-95.672 -5.25,-31.301 -5.258,-66.59 -5.27,-111.238 -0.007,-24.723 -0.019,-52.742 -0.929,-84.531 -1.078,-37.75 -3.489,-66.961 -5.25,-88.289 -2.34,-28.469 -3.758,-45.672 0.191,-54.461 3.289,-7.789 77.129,-23.059 111.309,-23.059 1.082,0 2.101,0.02 3.05,0.059 0.942,0.039 1.872,0.058 2.79,0.058 m 96.21,-53.437 c -12.75,0 -24.128,9.238 -37.32,19.918 -16.64,13.5 -35.379,28.98 -61.441,27.812 -1.028,-0.051 -2.129,-0.07 -3.289,-0.07 -27.129,0 -111.039,13.461 -116.508,26.449 -4.524,10.07 -3.141,26.809 -0.641,57.192 1.75,21.269 4.149,50.386 5.239,87.988 0.902,31.719 0.91,59.699 0.921,84.371 0.008,44.937 0.02,80.41 5.348,112.18 6.43,38.148 15.512,73.05 21.52,96.148 1.722,6.59 3.191,12.262 4.32,16.871 1.269,5.238 2.641,21.52 4.359,42.141 2.043,24.32 4.571,54.578 8.332,84.527 0.149,1.223 1.078,2.211 2.282,2.434 1.226,0.258 2.429,-0.34 3.007,-1.403 15.789,-28.609 39.911,-50.007 66.172,-58.769 1.449,-0.481 2.258,-2.039 1.821,-3.512 -8.731,-29.406 -14.211,-49.707 -17.231,-63.848 -6.312,-29.699 -7.812,-52.351 -9.25,-74.261 -1.48,-22.449 -2.871,-43.649 -9.199,-70.641 -13.723,-58.668 -46.781,-241.258 -43.352,-258.148 1.258,-6.5 6.321,-10.18 16.418,-11.961 0.274,-0.047 0.524,-0.11 0.762,-0.239 8.422,-0.05 16.801,-0.539 24.93,-1.019 8.5,-0.5 16.531,-0.949 24.558,-0.949 l 1.473,0 c 15.828,0 31.559,2.218 45.437,4.187 13.43,1.922 24.493,3.352 30.704,2.27 11.218,-2.25 17.308,-8.43 28.347,-19.66 2.602,-2.618 5.5,-5.579 8.852,-8.868 8.211,-7.953 20.14,-13.742 29.719,-18.382 10.05,-4.887 16.121,-7.829 16.808,-12.168 0.192,-1.18 0.043,-2.981 -1.769,-4.711 -2.27,-2.258 -5.989,-3.461 -11.028,-3.461 -7.133,0 -15.609,2.34 -20.09,3.742 -0.492,-0.313 -1.101,-0.672 -1.882,-1.063 -0.278,-0.128 -0.571,-0.207 -0.86,-0.25 -6.277,-0.929 -10.429,-1.277 -13.008,-1.418 21.387,-12.511 38.661,-23.621 39.508,-27.351 0.18,-0.789 -0.039,-2.02 -0.519,-2.688 -2.489,-3.793 -5.918,-5.75 -10.149,-5.75 -6.301,0 -13.211,4.309 -21.203,9.289 -4.207,2.61 -8.566,5.329 -13,7.481 -11.25,5.129 -25.258,10.961 -33.75,14.09 0.293,-0.41 0.524,-0.781 0.692,-1.129 7.378,-9.383 17.371,-18.301 25.429,-25.461 11.34,-10.133 15.91,-14.402 14.922,-18.422 -0.242,-0.949 -1.031,-2.648 -3.672,-3.309 -1.199,-0.14 -1.961,-0.179 -2.719,-0.179" /><path
         id="path112"
         style="fill:#ff0000;fill-opacity:1;fill-rule:nonzero;stroke:none"
         d="m 697.527,1058.37 c 0,0 -67.457,-72.569 3.403,-148.819 53.289,-57.25 117.64,-39.684 147.398,-23.524 30.051,15.883 64.352,52.434 64.352,52.434 l 9.347,-2.82 c 0,0 13.332,-144.864 156.763,-121.051 109.13,18.43 94.68,137.48 94.68,137.48 0,0 -28.63,-24.941 -87.03,-30.05 C 978.16,912.68 926,969.648 926,969.648 c 0,0 -86.449,-34.3 -161.859,4.532 -59.243,30.62 -66.614,84.19 -66.614,84.19" /><path
         id="path114"
         style="fill:#000000;fill-opacity:1;fill-rule:nonzero;stroke:none"
         d="m 912.68,941.301 c 0.269,0 0.55,-0.043 0.832,-0.121 l 9.347,-2.84 c 1.102,-0.34 1.891,-1.313 2,-2.449 0.461,-4.953 12.532,-121.09 123.451,-121.09 9.5,0 19.6,0.867 30.01,2.578 93.79,15.84 94.18,106.531 92.76,129.309 -10.03,-7.071 -37.79,-23.43 -84.39,-27.489 -8.05,-0.679 -16.09,-1.039 -23.93,-1.039 -84.721,0 -129.248,39.981 -137.498,48.168 -7.801,-2.828 -39.66,-13.508 -79.61,-13.508 -30.679,0 -58.543,6.34 -82.8,18.84 -48.903,25.27 -63.161,65.35 -66.922,80.41 -13.02,-16.56 -52.207,-76.8 7.082,-140.57 23.73,-25.512 51.898,-38.449 83.718,-38.449 28.661,0 51.68,10.816 60.25,15.476 29.321,15.481 63.29,51.512 63.629,51.883 0.551,0.59 1.301,0.891 2.071,0.891 m 135.63,-132.192 c -108.189,0 -126.74,108.489 -128.869,124.34 l -5.91,1.809 c -6.468,-6.731 -36.582,-37.328 -63.871,-51.731 -8.918,-4.859 -32.969,-16.16 -62.93,-16.16 -33.46,0 -63.019,13.551 -87.871,40.25 -71.828,77.293 -4.097,151.943 -3.41,152.683 0.75,0.8 1.903,1.09 2.934,0.78 1.039,-0.34 1.797,-1.24 1.957,-2.32 0.07,-0.52 7.961,-52.53 65.109,-82.061 23.453,-12.082 50.434,-18.191 80.203,-18.191 43.989,0 78.957,13.633 79.309,13.781 1.078,0.449 2.34,0.129 3.129,-0.738 0.441,-0.461 44.91,-47.731 134.67,-47.731 7.67,0 15.55,0.34 23.44,1.02 56.81,4.98 85.13,29.14 85.4,29.367 0.79,0.691 1.89,0.891 2.88,0.523 0.98,-0.382 1.67,-1.261 1.8,-2.32 0.15,-1.222 13.5,-121.953 -97.02,-140.601 -10.73,-1.801 -21.14,-2.7 -30.95,-2.7" /></g></g></svg>