<?xml version="1.0" encoding="UTF-8" standalone="no"?>
<svg
   xmlns:dc="http://purl.org/dc/elements/1.1/"
   xmlns:cc="http://creativecommons.org/ns#"
   xmlns:rdf="http://www.w3.org/1999/02/22-rdf-syntax-ns#"
   xmlns:svg="http://www.w3.org/2000/svg"
   xmlns="http://www.w3.org/2000/svg"
   viewBox="0 0 248.03751 248.03751"
   height="248.03751"
   width="248.03751"
   xml:space="preserve"
   version="1.1"
   id="svg2"><metadata
     id="metadata8"><rdf:RDF><cc:Work
         rdf:about=""><dc:format>image/svg+xml</dc:format><dc:type
           rdf:resource="http://purl.org/dc/dcmitype/StillImage" /></cc:Work></rdf:RDF></metadata><defs
     id="defs6" /><g
     transform="matrix(1.25,0,0,-1.25,0,248.0375)"
     id="g10"><g
       transform="scale(0.1,0.1)"
       id="g12"><path
         id="path14"
         style="fill:#fcd01a;fill-opacity:1;fill-rule:evenodd;stroke:none"
         d="m 864.199,1045.02 c 0,0 -536.601,301.03 -195.871,588.75 0,0 126.422,254.27 533.762,261.07 49.61,0.86 103.46,-1.98 161.86,-9.64 536.6,-68.59 503.71,-468.56 396.57,-594.99 -107.15,-126.71 -233.01,-309.815 -235.56,-434.546 -2.84,-124.437 158.17,-119.059 111.95,20.121 0,0 80.8,8.512 113.39,-86.172 32.61,-94.957 -88.72,-317.769 -264.46,-320.597 -175.75,-3.121 -500.602,242.929 -621.641,576.004" /><path
         id="path16"
         style="fill:#000000;fill-opacity:1;fill-rule:evenodd;stroke:none"
         d="m 868.734,1046.72 c -0.281,1.13 -1.129,1.98 -2.269,2.55 -2.828,1.7 -286.86,163.28 -305.57,358.58 -7.372,79.09 29.761,153.93 110.55,221.96 0.571,0.56 0.852,1.13 1.418,1.7 1.133,2.55 130.114,251.71 529.207,258.23 51.32,0.85 105.45,-2.26 161.31,-9.35 286.87,-36.85 393.73,-165.26 433.14,-266.46 47.34,-121.89 14.73,-255.97 -39.97,-320.6 -54.71,-64.63 -233.3,-287.15 -236.69,-437.381 -0.86,-41.672 16.43,-74.851 46.19,-88.441 22.11,-10.207 46.22,-7.09 63.22,7.93 13.32,12.191 20.41,30.05 20.69,52.16 0.29,13.043 -2.26,27.781 -6.8,43.371 17.86,0 75.97,-5.68 102.32,-83.051 15.61,-45.07 -5.94,-122.738 -52.16,-188.789 -54.98,-78.238 -130.66,-123.871 -207.5,-125.289 -183.96,-3.129 -500.297,251.711 -617.086,572.88 m 333.336,852.94 c -398.816,-6.51 -532.047,-252 -537.715,-262.77 -74.55,-63.21 -112.82,-132.09 -114.23,-204.94 -0.289,-8.22 0.281,-16.73 0.852,-24.95 18.699,-196.72 288,-353.48 309.257,-365.38 118.481,-324.003 439.086,-580.819 625.896,-577.702 79.92,1.402 158.44,48.461 215.14,129.543 48.75,69.449 70.59,148.816 53.86,197.578 -33.47,97.512 -117.93,89.57 -118.77,89.57 -1.43,0 -2.84,-0.851 -3.68,-2.269 -0.86,-1.129 -0.86,-2.832 -0.59,-4.25 13.62,-40.539 9.93,-73.699 -9.63,-91.289 -13.89,-12.172 -34.01,-14.731 -52.44,-6.231 -25.79,11.91 -40.82,41.391 -40.25,79.098 3.41,147.112 180.28,367.372 234.41,431.142 56.43,66.9 90.16,205.23 41.68,330.81 -40.25,103.75 -149.66,235.27 -441.34,272.69 -56.14,7.09 -110.84,10.21 -162.45,9.35" /><path
         id="path18"
         style="fill:#000000;fill-opacity:1;fill-rule:evenodd;stroke:none"
         d="m 663.789,1635.76 c -1.129,-1.98 -91.559,-207.21 123.02,-337.89 2.269,-1.42 5.39,-0.57 6.808,1.7 1.41,2.55 0.852,5.39 -1.699,6.8 -206.93,126.15 -122.738,317.2 -119.059,325.42 1.129,2.27 0,5.39 -2.55,6.52 -2.551,1.13 -5.391,0 -6.52,-2.55" /><path
         id="path20"
         style="fill:#000000;fill-opacity:1;fill-rule:evenodd;stroke:none"
         d="m 1201.52,1899.66 c -3.41,-0.28 -352.625,-34.02 -385.805,-334.77 -32.871,-300.76 164.137,-375.59 166.117,-376.44 2.563,-0.85 5.391,0.56 6.52,3.12 0.851,2.55 -0.571,5.38 -3.11,6.23 -1.988,0.85 -191.64,73.42 -159.59,365.95 32.313,292.54 373.318,325.71 376.718,325.99 2.82,0.28 4.81,2.83 4.54,5.38 -0.29,2.84 -2.57,4.82 -5.39,4.54" /><path
         id="path22"
         style="fill:#000000;fill-opacity:1;fill-rule:evenodd;stroke:none"
         d="m 1083.61,1585.58 c -151.094,-232.44 -37.72,-421.23 -36.57,-422.93 1.41,-2.27 4.53,-3.12 6.8,-1.7 2.27,1.42 3.11,4.54 1.7,6.8 -1.15,1.99 -111.114,185.39 36.27,412.44 147.98,227.63 454.96,246.33 578.28,192.76 2.54,-1.13 5.38,0 6.52,2.55 1.12,2.55 0,5.39 -2.55,6.52 -125.86,54.71 -439.67,35.72 -590.45,-196.44" /><path
         id="path24"
         style="fill:#000000;fill-opacity:1;fill-rule:evenodd;stroke:none"
         d="M 1270.68,1471.06 C 1052.7,1333.3 1078.49,1070.24 1078.79,1067.7 c 0.27,-2.84 2.82,-4.82 5.66,-4.55 2.55,0.3 4.53,2.84 4.25,5.67 -0.29,2.56 -25.52,259.38 187.37,393.74 222.23,140.32 406.2,17.85 448.15,-42.81 45.92,-66.04 13.34,-146.55 13.05,-147.39 -0.86,-2.56 0.29,-5.39 2.84,-6.53 2.54,-1.13 5.37,0.3 6.52,2.85 1.41,3.39 34.85,86.16 -14.18,156.75 -43.38,62.64 -233.3,189.91 -461.77,45.63" /><path
         id="path26"
         style="fill:#000000;fill-opacity:1;fill-rule:evenodd;stroke:none"
         d="m 1335.6,1334.72 c -191.9,-88.16 -248.03,-291.12 -248.59,-293.1 -0.85,-2.55 0.85,-5.39 3.38,-5.96 2.56,-0.85 5.41,0.86 5.97,3.41 0.57,1.98 55.84,200.41 243.21,286.58 111.13,51.31 229.05,50.46 293.09,-2.27 38.86,-31.75 53.03,-79.37 39.98,-134.36 -0.57,-2.55 1.13,-5.39 3.68,-5.95 2.84,-0.57 5.39,1.13 6.23,3.68 13.9,58.96 -1.69,110.27 -43.64,144.57 -66.89,54.71 -189.06,56.12 -303.31,3.4" /><path
         id="path28"
         style="fill:#000000;fill-opacity:1;fill-rule:evenodd;stroke:none"
         d="m 1628.7,1124.39 c -6.52,-7.66 -161.86,-190.495 -186.52,-310.964 -10.77,-53.582 4.25,-98.653 41.39,-124.16 39.68,-27.2 95.52,-25.789 142.58,3.968 47.34,30.332 60.94,70.871 64.06,100.071 3.69,35.441 -7.08,69.73 -19.84,82.199 -1.98,1.992 -5.1,1.992 -7.09,0 -1.7,-1.988 -1.7,-5.09 0,-7.09 9.07,-8.789 20.98,-38.551 17.01,-74.258 -2.83,-26.652 -15.59,-64.351 -59.53,-92.422 -43.65,-27.781 -95.24,-29.187 -131.52,-4.238 -33.74,22.949 -47.06,64.617 -37.14,113.949 23.81,117.918 182.55,304.715 184.25,306.415 1.7,2.28 1.42,5.39 -0.56,7.09 -2.27,1.71 -5.39,1.41 -7.09,-0.56" /><path
         id="path30"
         style="fill:#000000;fill-opacity:1;fill-rule:evenodd;stroke:none"
         d="m 1736.42,821.934 c -2.55,-0.579 -4.25,-3.121 -3.96,-5.668 0.27,-1.703 29.47,-160.442 -136.92,-250.024 -54.15,-29.187 -106.58,-33.437 -156.19,-12.758 -86.17,35.731 -143.43,137.77 -166.1,214.02 -0.86,2.559 -3.7,4.25 -6.24,3.398 -2.56,-0.839 -4.26,-3.687 -3.41,-6.238 23.53,-78.512 82.49,-183.391 171.78,-220.531 52.73,-21.551 108,-17.301 164.99,13.332 172.91,93.258 142.29,259.078 142,260.789 -0.57,2.551 -3.12,4.25 -5.95,3.68" /><path
         id="path32"
         style="fill:#000000;fill-opacity:1;fill-rule:evenodd;stroke:none"
         d="m 1216.54,1158.12 c -149.67,0.85 -223.645,-126.99 -224.497,-128.41 -1.422,-2.55 -0.57,-5.67 1.98,-6.8 2.551,-1.42 5.668,-0.57 7.087,1.7 0.56,1.42 71.71,123.87 215.43,123.31 74.83,-0.57 131.53,-27.22 141.17,-66.34 9.63,-39.68 -30.34,-86.451 -110.27,-128.689 -2.55,-1.129 -3.4,-4.25 -2.27,-6.813 1.42,-2.539 4.54,-3.387 7.09,-2.258 115.37,60.95 121.89,113.95 115.37,140.32 -10.48,43.65 -71.44,73.41 -151.09,73.98" /><path
         id="path34"
         style="fill:#fcd01a;fill-opacity:1;fill-rule:evenodd;stroke:none"
         d="m 1291.94,1092.92 c 0,0 73.13,164.98 -28.91,283.46 -102.05,118.49 -504.288,212.04 -836.788,-62.64 -332.2186,-274.39 -175.469,-662.459 127.84,-746.65 303.313,-84.192 716.028,451 737.858,525.83" /><path
         id="path36"
         style="fill:#000000;fill-opacity:1;fill-rule:evenodd;stroke:none"
         d="m 555.504,571.914 c -151.941,42.238 -270.43,164.691 -301.891,311.809 -32.308,151.657 31.75,306.987 176.032,426.047 340.726,281.48 735.875,172.07 829.415,63.21 98.64,-114.52 28.92,-276.37 28.07,-277.78 0,-0.3 0,-0.57 -0.29,-0.86 C 1265.01,1018.93 852.852,489.426 555.504,571.914 M 423.121,1317.71 c -147.117,-121.6 -212.598,-280.62 -179.43,-436.257 32.032,-150.801 153.352,-276.09 308.981,-319.18 163.84,-45.64 350.922,85.891 479.328,204.379 144.29,133.231 253.42,286.028 264.76,324.848 0,-0.28 0,-0.28 -0.28,-0.57 0.85,1.7 73.41,169.23 -29.48,288.86 -95.82,110.84 -498.047,223.66 -843.879,-62.08" /><path
         id="path38"
         style="fill:#000000;fill-opacity:1;fill-rule:evenodd;stroke:none"
         d="M 904.164,1228.7 C 688.445,1194.68 499.094,1064.57 423.406,954.02 290.465,759.281 414.055,628.32 415.477,626.902 c 1.976,-1.98 5.097,-1.98 7.078,0 1.992,1.989 2.269,5.11 0.289,7.368 -5.11,5.113 -118.77,126.429 9.07,314.082 74.27,108.848 261.07,236.408 473.949,270.148 100.907,15.87 247.187,15.02 369.367,-79.37 2.27,-1.71 5.38,-1.42 7.07,0.85 1.7,2.26 1.43,5.38 -0.85,7.08 -98.93,76.82 -229.31,104.88 -377.286,81.64" /><path
         id="path40"
         style="fill:#000000;fill-opacity:1;fill-rule:evenodd;stroke:none"
         d="M 580.73,1291.06 C 188.133,1066.27 289.902,765.234 291.031,762.113 c 0.852,-2.55 3.973,-3.961 6.52,-3.109 2.832,1.129 4.25,3.961 3.121,6.519 -0.852,3.11 -99.5,296.217 285.16,516.467 275.809,157.89 477.358,92.98 551.348,57.83 82.76,-39.41 142.57,-102.89 152.21,-161.58 0.28,-2.83 3.12,-4.81 5.95,-4.25 2.56,0.28 4.54,3.12 4.26,5.67 -10.21,62.08 -72.29,128.7 -157.89,169.52 -75.41,36 -280.917,102.04 -560.98,-58.12" /><path
         id="path42"
         style="fill:#f6d7c4;fill-opacity:1;fill-rule:evenodd;stroke:none"
         d="m 1507.38,690.398 c 0,0 -33.73,-153.636 -132.38,-142.019 -98.65,11.633 -41.67,202.109 24.95,229.043 66.88,27.219 119.33,-13.043 107.43,-87.024" /><path
         id="path44"
         style="fill:#000000;fill-opacity:1;fill-rule:evenodd;stroke:none"
         d="m 1328.23,605.93 c -8.22,60.66 31.17,149.668 73.7,166.679 30.32,12.469 58.67,10.489 77.95,-4.812 19.56,-15.598 27.77,-43.379 22.39,-76.25 -0.85,-3.418 -34.59,-149.117 -126.71,-138.059 -34.01,3.969 -44.51,30.61 -47.33,52.442 m 70.02,176.316 c -47.06,-19 -89.01,-111.957 -80.23,-177.738 4.82,-35.711 24.66,-57.539 56.41,-61.231 102.04,-12.168 136.62,139.75 138.05,146.27 l 0,0.301 c 5.95,36.84 -3.68,68.019 -26.09,85.879 -22.38,17.851 -54.41,20.121 -88.14,6.519" /><path
         id="path46"
         style="fill:#f6d7c4;fill-opacity:1;fill-rule:evenodd;stroke:none"
         d="m 421.992,519.758 c 0,0 70.578,-121.32 151.09,-84.473 80.5,36.563 -19.852,182.832 -83.629,187.653 -64.062,4.82 -97.512,-43.653 -67.461,-103.18" /><path
         id="path48"
         style="fill:#000000;fill-opacity:1;fill-rule:evenodd;stroke:none"
         d="m 416.891,573.895 c 1.418,6.8 3.968,13.043 7.648,18.71 12.191,18.153 35.723,27.211 64.352,25.243 39.968,-3.133 98.359,-68.614 107.718,-121.051 3.403,-18.981 1.7,-44.512 -25.8,-56.981 -74.829,-34.011 -142.86,80.219 -144.278,82.489 -9.359,18.429 -12.472,36.281 -9.64,51.59 m 72.847,54.14 c -32.597,2.281 -59.527,-8.5 -73.699,-29.758 -14.168,-21.55 -13.891,-50.742 1.422,-80.793 l 0,-0.277 c 3.109,-5.109 73.98,-125.012 157.598,-86.742 26.082,11.902 37.421,36 31.472,68.031 -10.211,58.391 -71.441,126.141 -116.793,129.539" /><path
         id="path50"
         style="fill:#f6d7c4;fill-opacity:1;fill-rule:evenodd;stroke:none"
         d="m 1388.61,533.359 c -21.27,75.129 11.61,254.551 32.02,323.149 11.62,38.832 -13.59,134.941 -80.2,217.132 C 1115.06,978.98 899.063,876.641 667.473,786.789 597.453,767.5 529.434,756.461 463.094,753.91 c 5.949,-35.16 19.269,-72.012 41.672,-110.281 0,0 62.078,-54.141 53.57,-154.211 C 550.113,389.367 518.375,303.48 629.215,236.289 740.324,169.109 879.504,147 923.164,110.16 c 43.359,-36.5819 76.82,-18.4412 109.696,8.207 32.87,26.934 184.82,107.434 282.62,168.953 97.5,61.5 94.38,170.641 73.13,246.039" /><path
         id="path52"
         style="fill:#000000;fill-opacity:1;fill-rule:evenodd;stroke:none"
         d="m 1393.43,534.773 c -20.13,71.153 10.2,246.34 32.03,320.313 10.21,33.738 -5.67,110.277 -54.99,185.964 -6.81,10.49 -15.02,22.11 -25.23,34.58 -3.12,-1.43 -6.52,-2.83 -9.93,-4.24 10.78,-12.78 19.57,-25.23 26.66,-36 45.63,-70.316 63.21,-145.425 53.85,-177.464 -18.71,-63.211 -54.71,-246.61 -32.03,-325.973 13.89,-49.887 35.44,-173.207 -71.15,-240.379 -44.5,-27.789 -100.64,-60.097 -150.52,-88.73 -61.23,-35.16 -114.23,-65.481 -132.66,-80.5 -35.151,-28.9182 -64.913,-40.2581 -103.183,-8.219 -20.687,17.559 -60.66,31.18 -111.121,48.461 -55.269,18.711 -124.156,42.25 -183.398,78.238 -90.988,55.281 -82.77,123.871 -73.129,203.25 l 4.82,45.071 c 8.219,98.652 -48.761,152.511 -54.429,157.601 -21.262,36.277 -34.582,72 -40.821,107.149 -3.402,0 -7.09,-0.282 -10.492,-0.282 6.242,-36.859 20.41,-74.547 42.52,-112.527 0.293,-0.582 0.57,-0.852 1.14,-1.133 0.563,-0.566 60.09,-53.859 51.871,-149.969 l -4.82,-44.5 c -10.199,-83.05 -18.711,-154.757 78.238,-213.437 60.09,-36.582 129.262,-60.094 185.102,-79.102 47.621,-16.148 88.441,-30.332 108,-46.761 48.191,-40.5277 85.322,-17.0199 116.222,8.222 17.58,14.449 70.3,44.778 131.25,79.66 49.88,28.618 106.29,60.93 150.8,88.989 112.53,70.871 90.42,199.558 75.4,251.718" /><path
         id="path54"
         style="fill:#fcd01a;fill-opacity:1;fill-rule:evenodd;stroke:none"
         d="m 1259.63,1052.39 c 0,0 -49.32,-135.21 135.21,-323.152 0,0 83.06,54.711 112.54,-38.832 0,0 107.15,81.071 107.71,298.481 0.58,217.423 -325.69,396.003 -355.46,63.503" /><path
         id="path56"
         style="fill:#000000;fill-opacity:1;fill-rule:evenodd;stroke:none"
         d="m 1261.89,1040.76 c 1.43,6.24 2.56,9.64 2.56,9.92 0,0 0,0.28 0.28,0.57 l 0,0.57 c 1.43,14.74 3.13,28.63 5.68,41.66 17.86,91 64.91,140.6 132.66,137.77 93.82,-4.54 207.2,-113.39 206.93,-242.078 -0.3,-39.969 -3.98,-75.121 -9.93,-106.02 -22.12,-113.379 -74.55,-168.929 -90.71,-183.961 -9.34,24.672 -23.25,40.813 -41.95,47.622 -29.77,10.488 -61.23,-5.11 -71.43,-11.059 -149.1,153.359 -140.59,271.276 -134.09,305.006 m 141.75,200.69 c -36.01,1.7 -116.8,-10.49 -143.16,-144.85 -2.55,-13.04 -4.53,-27.49 -5.94,-43.08 -0.59,-1.42 -1.7,-5.67 -3.13,-12.76 -7.64,-38.83 -13.89,-158.459 140.02,-315.209 1.71,-1.688 4.27,-1.988 6.25,-0.571 0.57,0.282 35.71,22.961 66.32,12.204 17.59,-6.243 30.34,-22.403 38.55,-48.204 0.29,-1.699 1.7,-2.828 3.13,-3.398 1.71,-0.57 3.41,-0.281 4.82,0.852 4.52,3.398 109.13,85.039 109.7,302.457 0.28,134.359 -118.2,248.029 -216.56,252.559" /><path
         id="path58"
         style="fill:#000000;fill-opacity:1;fill-rule:evenodd;stroke:none"
         d="m 1276.93,1140.26 c -2.84,0 -5.11,-2.55 -4.82,-5.39 0,-2.83 2.53,-5.1 5.38,-4.81 104.89,4.81 199.56,-79.94 220.53,-197.58 13.61,-76.812 6.52,-140.589 -0.56,-177.16 -1.42,-7.371 -2.83,-13.332 -4.26,-18.422 -10.48,23.801 -32.59,50.45 -66.05,90.129 l -64.61,77.672 c -78.25,97.511 -91,190.211 -91.29,191.061 -0.28,2.83 -2.84,4.81 -5.67,4.53 -2.83,-0.28 -4.81,-3.12 -4.53,-5.67 0.56,-3.97 13.33,-96.382 93.54,-196.44 l 64.62,-77.942 c 39.99,-46.777 64.08,-75.129 69.74,-100.918 0.57,-2.269 2.27,-3.972 4.82,-3.972 2.27,0 4.25,1.14 5.09,3.402 0.3,0.848 31.18,91.84 9.37,215.43 -21.83,122.74 -121.33,211.18 -231.3,206.08" /><path
         id="path60"
         style="fill:#000000;fill-opacity:1;fill-rule:evenodd;stroke:none"
         d="m 827.914,512.102 c -1.129,-5.954 -78.519,-80.793 -99.777,-88.442 -69.731,-26.082 -62.082,-37.422 -65.481,-54.43 0,0 -10.769,36.571 36.848,52.731 0,0 -44.219,11.91 -61.231,-21.82 0,0 -1.699,19.828 28.071,35.14 0,0 -22.117,22.399 -53.578,-2.832 0,0 11.058,20.41 45.07,30.891 34.019,10.488 98.078,-9.91 128.41,5.969 30.609,15.582 42.52,39.121 41.668,42.793" /><path
         id="path62"
         style="fill:#fdfdfd;fill-opacity:1;fill-rule:evenodd;stroke:none"
         d="m 856.824,562.273 c 15.594,-37.699 -28.629,-95.527 -80.5,-126.429 -29.476,-17.571 -61.226,-26.641 -86.457,-18.699 -69.172,22.109 -109.133,117.07 -47.621,202.39 61.512,85.039 168.66,53.012 214.578,-57.262" /><path
         id="path64"
         style="fill:#0081c0;fill-opacity:1;fill-rule:evenodd;stroke:none"
         d="m 697.52,670.273 c 37.699,26.079 140.308,-37.128 143.718,-79.089 2.832,-39.102 -2.547,-79.922 -27.5,-109.7 -38.547,-45.632 -100.347,-44.769 -138.047,2.278 -37.703,47.062 -36.851,122.16 1.7,168.082 6.238,7.379 13.039,13.621 20.129,18.429" /><path
         id="path66"
         style="fill:#285284;fill-opacity:1;fill-rule:evenodd;stroke:none"
         d="m 801.836,625.488 c 27.211,-33.73 26.359,-87.3 -1.129,-120.191 -27.5,-32.598 -72,-32.027 -98.93,1.422 -26.929,33.73 -26.371,87.308 1.411,120.187 27.5,32.883 71.718,32.313 98.648,-1.418" /><path
         id="path68"
         style="fill:#000000;fill-opacity:1;fill-rule:evenodd;stroke:none"
         d="m 775.758,594.309 c 11.91,-15.024 11.621,-38.543 -0.57,-53.012 -12.192,-14.449 -31.743,-14.168 -43.653,0.57 -11.906,14.738 -11.617,38.551 0.57,53.012 12.192,14.449 31.743,14.449 43.653,-0.57" /><path
         id="path70"
         style="fill:#fdfdfd;fill-opacity:1;fill-rule:evenodd;stroke:none"
         d="m 790.781,616.699 c 7.371,-11.621 5.668,-28.351 -3.679,-37.129 -9.36,-9.07 -23.25,-7.09 -30.622,4.528 -7.371,11.621 -5.667,28.351 3.692,37.14 9.629,9.071 23.238,7.082 30.609,-4.539" /><path
         id="path72"
         style="fill:#000000;fill-opacity:1;fill-rule:evenodd;stroke:none"
         d="m 731.539,685.305 c -40.25,5.66 -72.281,-21.84 -99.5,-52.16 -13.043,-4.532 -28.633,-3.973 -38.551,17 0,0 1.7,-38.262 26.649,-30.602 -8.219,-9.922 -16.16,-19.559 -23.809,-28.07 -11.91,-4.821 -25.801,-4.532 -37.14,13.039 0,0 8.789,-39.969 26.082,-40.528 -14.172,-12.761 -31.75,-7.953 -45.071,0.278 0,0 18.141,-24.949 42.52,-58.391 10.211,-13.617 17.289,-32.598 30.621,-45.637 26.637,-25.23 60.09,-46.211 98.637,-48.191 0,0 -58.387,14.461 -85.039,77.66 -26.641,63.512 4.82,144.289 71.152,167.82 66.047,23.532 117.066,-20.128 158.738,-95.25 0,0 -31.18,109.981 -125.289,123.032" /><path
         id="path74"
         style="fill:#000000;fill-opacity:1;fill-rule:evenodd;stroke:none"
         d="m 1088.7,513.801 c 0,0 60.66,-45.922 136.63,-40.242 50.74,3.961 65.48,-7.379 73.13,-22.961 0,0 1.42,40.519 -49.89,38.82 0,0 41.11,28.352 66.62,1.152 0,0 -3.4,20.41 -37.14,24.66 0,0 16.45,30.598 54.15,17.008 0,0 -16.16,16.141 -52.73,14.172 -36.57,-2.281 -95.24,-46.5 -129.54,-41.961 -34.3,3.961 -61.23,5.102 -61.23,9.352" /><path
         id="path76"
         style="fill:#fdfdfd;fill-opacity:1;fill-rule:evenodd;stroke:none"
         d="m 1056.11,570.781 c -9.65,-67.75 139.45,-130.39 202.95,-82.492 63.78,47.91 79.65,157.313 -3.11,219.691 -83.06,62.083 -181.99,-9.917 -199.84,-137.199" /><path
         id="path78"
         style="fill:#0081c0;fill-opacity:1;fill-rule:evenodd;stroke:none"
         d="m 1176.86,730.938 c 36.28,6.519 72.84,-9.071 77.68,-14.168 28.89,-30.622 41.37,-80.512 28.62,-127.563 -17,-62.359 -72.57,-96.098 -123.87,-75.398 -51.31,20.679 -79.09,88.148 -62.09,150.519 8.51,31.461 43.66,60.09 79.66,66.61" /><path
         id="path80"
         style="fill:#285284;fill-opacity:1;fill-rule:evenodd;stroke:none"
         d="m 1214.28,706.848 c 37.42,-15.313 57.83,-64.633 45.35,-110.274 -12.47,-45.636 -53.01,-70.308 -90.42,-55.277 -37.7,15.019 -57.83,64.641 -45.36,110.269 12.48,45.641 53.01,70.301 90.43,55.282" /><path
         id="path82"
         style="fill:#000000;fill-opacity:1;fill-rule:evenodd;stroke:none"
         d="m 1200.96,661.199 c 16.72,-6.508 26.07,-28.617 20.41,-49.027 -5.67,-20.41 -23.53,-31.473 -40.55,-24.66 -16.72,6.801 -25.79,28.621 -20.11,49.031 5.38,20.406 23.52,31.469 40.25,24.656" /><path
         id="path84"
         style="fill:#fdfdfd;fill-opacity:1;fill-rule:evenodd;stroke:none"
         d="m 1212.86,684.734 c 10.77,-4.539 16.72,-18.707 13.04,-31.757 -3.4,-13.032 -15.02,-20.11 -25.8,-15.872 -11.05,4.262 -16.72,18.43 -13.32,31.762 3.69,13.039 15.31,20.117 26.08,15.867" /><path
         id="path86"
         style="fill:#000000;fill-opacity:1;fill-rule:evenodd;stroke:none"
         d="m 1149.93,740.293 c 39.12,20.691 77.95,5.391 112.54,-15.02 14.17,0.559 29.48,6.801 34.29,31.461 0,0 7.94,-38.832 -18.99,-40.531 10.76,-6.808 20.98,-13.621 30.9,-19.281 13.04,-0.277 26.92,5.101 33.73,27.211 0,0 1.13,-43.371 -15.87,-50.168 17.57,-7.652 33.73,3.68 45.07,17.008 0,0 -11.91,-31.75 -27.78,-74.27 -7.09,-18.14 -1.42,-25.512 -18.99,-56.691 -20.41,-35.438 -48.47,-68.598 -86.46,-85.34 0,0 54.7,36.582 65.2,109.711 10.76,72.851 -41.1,142.019 -113.1,140.601 -72,-0.851 -111.69,-63.781 -134.37,-154.203 0,0 3.4,121.602 93.83,169.512" /><path
         id="path88"
         style="fill:#fcd01a;fill-opacity:1;fill-rule:evenodd;stroke:none"
         d="m 1259.63,1052.39 c 0,0 -68.88,-301.894 -322.579,-393.452 -253.422,-91.27 -557.582,-58.961 -504,125.289 53.859,183.972 405.347,320.323 599.239,361.993 194.18,41.67 252.28,11.05 227.34,-93.83" /><path
         id="path90"
         style="fill:#000000;fill-opacity:1;fill-rule:evenodd;stroke:none"
         d="m 1264.45,1051.25 0,-0.28 c 0,0.28 0,0.28 0.27,0.28 l -0.27,0 z M 463.953,670.84 c -30.621,28.629 -39.121,66.332 -25.801,111.969 52.442,179.152 392.879,314.931 595.268,358.301 117.07,25.23 184.25,23.81 211.47,-4.25 16.15,-16.44 19.28,-43.66 9.64,-83.34 -0.58,-3.12 -71.15,-300.192 -319.186,-389.77 -187.942,-67.73 -395.141,-64.629 -471.391,7.09 m 567.477,480.19 C 826.504,1107.38 481.793,969.34 428.223,785.641 c -14.168,-49.039 -4.239,-91.27 28.64,-122.161 78.801,-74.281 290.539,-78.25 481.891,-9.359 253.116,91.559 325.116,393.729 325.696,397.129 0.85,3.4 1.7,6.8 2.27,10.2 7.64,37.99 2.54,64.92 -14.47,82.78 -30.32,30.89 -98.63,33.16 -220.82,6.8" /><path
         id="path92"
         style="fill:#000000;fill-opacity:1;fill-rule:evenodd;stroke:none"
         d="m 1264.45,1051.25 0,-0.28 c 0,0.28 0,0.28 0.27,0.28 l -0.27,0 z M 463.953,670.84 c -30.621,28.629 -39.121,66.332 -25.801,111.969 52.442,179.152 392.879,314.931 595.268,358.301 117.07,25.23 184.25,23.81 211.47,-4.25 16.15,-16.44 19.28,-43.66 9.64,-83.34 -0.58,-3.12 -71.15,-300.192 -319.186,-389.77 -187.942,-67.73 -395.141,-64.629 -471.391,7.09 m 567.477,480.19 C 826.504,1107.38 481.793,969.34 428.223,785.641 c -14.168,-49.039 -4.239,-91.27 28.64,-122.161 78.801,-74.281 290.539,-78.25 481.891,-9.359 253.116,91.559 325.116,393.729 325.696,397.129 0.85,3.4 1.7,6.8 2.27,10.2 7.64,37.99 2.54,64.92 -14.47,82.78 -30.32,30.89 -98.63,33.16 -220.82,6.8" /><path
         id="path94"
         style="fill:#000000;fill-opacity:1;fill-rule:evenodd;stroke:none"
         d="m 1246.31,1138.84 c -0.85,-1.7 -88.72,-161.856 -334.49,-292.817 C 665.77,715.063 429.648,724.984 427.379,724.984 c -2.551,0.289 -4.82,-1.421 -5.379,-3.972 -0.289,-2.547 0.848,-5.098 3.398,-5.949 1.981,-0.848 219.68,-84.469 471.11,-0.282 252.002,84.481 366.522,332.779 367.662,335.339 1.42,2.55 0,5.66 -2.55,6.8 -2.56,1.13 -5.67,0 -6.81,-2.55 -1.13,-2.55 -113.95,-246.897 -361.412,-329.667 -193.89,-64.922 -365.96,-29.191 -433.418,-9.922 73.7,2.262 261.637,18.422 456.661,122.172 248.599,132.66 337.889,295.367 338.739,296.787 0.28,0.56 0.57,1.13 0.57,1.41 0.28,2.27 -0.57,4.54 -2.55,5.67 -2.55,1.42 -5.67,0.29 -7.09,-1.98" /><path
         id="path96"
         style="fill:#000000;fill-opacity:1;fill-rule:evenodd;stroke:none"
         d="m 1305.27,779.414 c 0,0 -77.11,61.231 -152.5,8.789 0,0 -31.18,7.93 -5.97,26.922 25.52,18.711 122.18,39.688 158.47,-35.711" /><path
         id="path98"
         style="fill:#000000;fill-opacity:1;fill-rule:evenodd;stroke:none"
         d="m 901.051,430.754 c 0,0 13.32,44.219 52.16,45.066 38.551,0.852 49.889,-41.109 49.889,-41.109 0,0 -5.959,61.519 -49.889,54.711 -43.66,-6.801 -53.012,-49.609 -52.16,-58.668" /><path
         id="path100"
         style="fill:#ba3b31;fill-opacity:1;fill-rule:evenodd;stroke:none"
         d="m 860.512,212.195 c 0,0 -25.231,169.231 91.84,183.403 116.788,14.168 100.628,-180.282 100.628,-180.282 0,0 -76.527,19.27 -192.468,-3.121" /><path
         id="path102"
         style="fill:#000000;fill-opacity:1;fill-rule:evenodd;stroke:none"
         d="m 862.777,249.324 c 0,31.461 4.821,76.832 28.352,107.723 15.019,19.57 35.711,30.891 61.508,34.019 23.531,2.829 43.082,-2.832 58.113,-17.582 33.73,-32.308 38.55,-100.07 38.55,-135.5 0,-7.359 -0.27,-13.32 -0.57,-17.007 -17.86,3.687 -85.89,14.461 -184.253,-3.403 -0.571,5.684 -1.7,17.012 -1.7,31.75 m 89.012,150.801 c -28.633,-3.398 -51.312,-16.141 -67.75,-37.687 -41.672,-54.711 -28.633,-146.833 -28.062,-150.813 0.281,-1.129 0.851,-2.258 1.98,-3.109 0.852,-0.578 2.27,-0.86 3.402,-0.578 113.387,21.558 189.641,3.128 190.491,3.128 1.42,-0.57 2.84,-0.281 3.69,0.559 1.13,0.852 1.98,1.992 1.98,3.402 0.28,4.828 9.07,117.368 -40.54,164.981 -17.003,16.719 -39.113,23.25 -65.191,20.117" /><path
         id="path104"
         style="fill:#fdfdfd;fill-opacity:1;fill-rule:evenodd;stroke:none"
         d="m 1033.71,348.547 c -14.75,30.328 -39.397,52.156 -81.351,47.058 -41.386,-4.82 -64.918,-29.199 -77.957,-58.402 51.028,20.692 106.59,24.66 159.308,11.344" /><path
         id="path106"
         style="fill:#000000;fill-opacity:1;fill-rule:evenodd;stroke:none"
         d="m 952.922,391.063 c 31.18,3.96 54.988,-8.79 71.438,-36.278 -47.059,9.918 -94.969,6.231 -140.321,-9.922 15.313,26.641 37.981,42.512 68.883,46.2 m -1.133,9.07 c -37.988,-4.528 -65.199,-25.231 -81.641,-61.231 -0.57,-1.699 -0.289,-3.679 0.852,-4.816 1.422,-1.41 3.398,-1.703 5.102,-1.141 49.886,20.41 104.027,24.391 156.468,11.348 1.7,-0.57 3.42,0 4.54,1.422 1.13,1.398 1.43,3.098 0.58,4.808 -18.16,37.711 -47.061,54.43 -85.901,49.61" /><path
         id="path108"
         style="fill:#fdfdfd;fill-opacity:1;fill-rule:evenodd;stroke:none"
         d="m 858.531,256.699 c -0.851,-25.511 1.981,-44.5 1.981,-44.5 115.937,22.391 192.478,3.11 192.478,3.11 0,0 1.4,19 0,44.511 -61.529,15.59 -131.252,13.598 -194.459,-3.121" /><path
         id="path110"
         style="fill:#000000;fill-opacity:1;fill-rule:evenodd;stroke:none"
         d="m 1048.73,256.133 c 0.28,-6.52 0.58,-12.762 0.58,-17.86 0,-7.652 -0.3,-13.601 -0.58,-17.289 -17.86,3.688 -85.89,14.457 -184.25,-3.39 -0.57,5.66 -1.699,17 -1.699,31.738 l 0,3.68 c 62.641,15.883 128.41,17.011 185.949,3.121 m -191.621,4.82 c -1.699,-0.57 -3.121,-2.269 -3.121,-4.25 -0.847,-25.512 1.981,-44.219 1.981,-45.07 0.293,-1.129 0.851,-2.27 1.992,-3.121 0.848,-0.571 2.269,-0.848 3.398,-0.571 113.391,21.543 189.651,3.122 190.491,3.122 1.42,-0.559 2.84,-0.282 3.69,0.57 1.13,0.851 1.98,1.98 1.98,3.398 0,0.563 1.42,19.563 0,45.071 0,1.98 -1.42,3.679 -3.4,4.25 -60.659,15.32 -130.679,14.171 -197.011,-3.399" /></g></g></svg>