<svg width="178.85px4" height="179.1px4" viewBox="0 0 182.85 183.1" xmlns="http://www.w3.org/2000/svg" xmlns:xlink="http://www.w3.org/1999/xlink">
  <defs>
    <radialGradient gradientUnits="userSpaceOnUse" r="819.2" cx="0" cy="0" spreadMethod="pad" gradientTransform="matrix(0 0.0076904296875 0.0076904296875 0 143.4 119)" id="gradient0">
      <stop offset="0" stop-color="#e12328"/>
      <stop offset="1" stop-color="#a52724"/>
    </radialGradient>
    <radialGradient gradientUnits="userSpaceOnUse" r="819.2" cx="0" cy="0" spreadMethod="pad" gradientTransform="matrix(0 0.0110626220703125 0.0110626220703125 0 141.95 110.9)" id="gradient1">
      <stop offset="0" stop-color="#e12328"/>
      <stop offset="1" stop-color="#a52724"/>
    </radialGradient>
  </defs>
  <g>
    <path stroke="none" fill="#fdd01a" d="M57.05 78.95 Q44.85 72.1 36.5 61.95 19.8 41.65 39.2 25.25 42.1 19.45 49.6 13.6 64.7 1.85 87.9 1.45 L102.7 2.3 Q135.15 6.5 142.8 27.5 145.75 35.45 144.2 44.15 142.9 51.85 138.85 56.6 130.15 66.85 124.5 76.5 117.5 88.45 117.35 96.25 117.3 100.25 119.45 102.55 121.4 104.6 123.95 104.35 126.6 104.1 127.7 101.65 129.05 98.85 127.55 94.4 L131.65 95.1 Q136.1 96.85 137.95 102.25 139.05 105.5 137.7 110.45 136.3 115.35 133 120.05 125 131.35 113.8 131.5 100.85 131.75 83.55 116.75 64.95 100.55 57.05 78.95"/>
    <path stroke="none" fill="#000000" d="M57.5 78.8 Q65.2 99.9 83.35 116.05 100.55 131.3 113.8 131.05 119.05 131 124 127.95 128.95 124.95 132.75 119.6 135.9 115.1 137.25 110.3 138.55 105.5 137.5 102.4 135.95 97.85 132.55 95.95 130.4 94.8 128.15 94.85 128.8 97.15 128.8 98.8 128.7 101.9 126.9 103.55 125.75 104.55 124.15 104.75 122.6 104.95 121.1 104.25 119.05 103.3 117.95 101.2 116.85 99.05 116.9 96.2 117.1 87.35 125.95 73.35 131.35 64.75 138.5 56.3 142.55 51.55 143.8 43.65 145.2 34.9 142.15 27.05 138.8 18.55 130.85 12.7 120.35 5 102.6 2.75 L87.9 1.9 Q65.15 2.3 50.15 13.85 42.65 19.6 39.65 25.45 L39.5 25.6 Q28.4 35 29.45 45.85 30.5 57 43.9 68.8 50.65 74.75 57.3 78.55 L57.5 78.8 M87.9 1 L102.75 1.85 Q120.75 4.15 131.45 12 139.6 18 143 26.75 146.15 34.8 144.7 43.8 143.4 51.95 139.2 56.9 132.05 65.35 126.75 73.75 118 87.6 117.8 96.25 117.75 98.8 118.75 100.7 119.7 102.65 121.5 103.45 122.75 104.05 124.05 103.9 125.3 103.7 126.25 102.85 127.6 101.65 127.85 99.45 128.05 97.3 127.15 94.55 127.1 94.35 127.2 94.15 127.35 93.95 127.55 93.95 L131.85 94.7 Q136.45 96.55 138.35 102.1 139.5 105.45 138.15 110.4 136.8 115.4 133.45 120.15 129.6 125.7 124.45 128.8 119.3 131.9 113.8 131.95 100.4 132.2 82.95 116.8 64.55 100.55 56.75 79.25 49.85 75.55 42.55 68.95 29.55 57.25 28.5 45.95 L28.45 43.65 Q28.6 33.7 38.85 24.95 42.3 18.65 49.95 12.85 65.1 1.4 87.9 1"/>
    <path stroke="none" fill="#000000" d="M38.8 25.05 Q39 24.65 39.4 24.85 39.75 25 39.65 25.45 39.1 26.6 38.55 28.75 37.6 32.5 37.9 36.25 38.65 47.9 50.5 55.1 50.9 55.3 50.65 55.75 L50.05 55.85 Q37.8 48.4 37.05 36.05 36.85 32.2 37.8 28.25 L38.8 25.05"/>
    <path stroke="none" fill="#000000" d="M87.9 1 Q88.35 0.9 88.35 1.4 88.45 1.85 87.95 1.85 79.95 2.65 71.75 6.75 55.4 14.95 53.6 31.65 51.75 48.35 59.7 58.35 63.65 63.35 68.1 65.05 68.6 65.15 68.4 65.6 68.2 66 67.8 65.9 63.2 64.1 59.05 58.95 50.8 48.7 52.7 31.55 54.6 14.35 71.3 6 79.7 1.8 87.9 1"/>
    <path stroke="none" fill="#000000" d="M77.1 29.65 Q86.45 15.25 104.9 10.85 112.35 9.1 119.65 9.45 126.45 9.75 130.95 11.75 131.4 11.85 131.2 12.35 131 12.7 130.6 12.55 120.35 8.1 105.05 11.75 87 16.05 77.85 30.15 69.45 43.1 71.1 56.65 71.95 63.45 74.55 67.75 74.75 68.15 74.4 68.35 74.05 68.65 73.75 68.25 71.1 63.8 70.25 56.85 68.5 42.9 77.1 29.65"/>
    <path stroke="none" fill="#000000" d="M94.15 40.1 Q107.85 31.45 121.55 35.1 131.85 37.85 136.3 44.25 139.15 48.3 138.65 53.7 138.45 56.45 137.55 58.55 137.45 59 137 58.8 136.6 58.65 136.75 58.2 137.55 56.35 137.75 53.75 138.2 48.55 135.55 44.75 131.25 38.55 121.25 35.95 107.95 32.45 94.65 40.85 82.5 48.5 78.85 63.35 77 70.75 77.55 76.8 77.65 77.2 77.15 77.3 76.7 77.4 76.7 76.9 76.1 70.7 77.95 63.1 81.75 47.95 94.15 40.1"/>
    <path stroke="none" fill="#000000" d="M100.05 52.55 Q107.9 48.9 115.55 49 123.15 49.1 127.75 52.85 130.65 55.2 131.65 58.6 132.7 62 131.75 66 131.65 66.45 131.2 66.35 130.75 66.25 130.85 65.8 131.75 62.05 130.8 58.9 129.85 55.75 127.2 53.55 122.8 49.95 115.45 49.9 108.05 49.85 100.45 53.35 89.75 58.3 83 69.3 79.6 74.85 78.25 79.5 78.15 80 77.75 79.8 77.3 79.7 77.4 79.25 78.75 74.5 82.2 68.85 89.15 57.6 100.05 52.55"/>
    <path stroke="none" fill="#000000" d="M126.85 71.7 L127.5 71.65 Q127.8 72 127.5 72.3 123.8 76.7 119.9 82.3 112.1 93.55 110.75 100.25 110.05 103.6 110.95 106.35 111.8 109.05 114.1 110.65 116.6 112.4 119.85 112.25 123.1 112.15 126.1 110.25 131 107.1 131.55 101.8 131.8 99.6 131.25 97.55 130.75 95.75 130 95.05 129.7 94.75 130 94.4 130.3 94.05 130.65 94.4 131.6 95.35 132.1 97.35 132.7 99.6 132.45 101.95 131.8 107.75 126.55 111.05 123.35 113.1 119.85 113.2 116.3 113.25 113.6 111.4 111.05 109.7 110.05 106.7 109.1 103.75 109.8 100.1 111.2 93.2 118.95 82.05 122.85 76.45 126.85 71.7"/>
    <path stroke="none" fill="#000000" d="M136.65 99.3 Q137.1 99.2 137.2 99.65 L137.4 102.25 Q137.45 105.35 136.65 108.4 134.1 118.1 124.25 123.4 116.55 127.65 109.2 124.65 103.6 122.3 99.1 116 95.4 110.8 93.5 104.5 93.4 104.15 93.85 103.95 94.2 103.85 94.4 104.25 96.15 110.3 99.8 115.45 104.15 121.55 109.55 123.8 116.3 126.65 123.8 122.65 133.3 117.5 135.75 108.25 136.55 105.3 136.5 102.3 L136.3 99.85 Q136.2 99.4 136.65 99.3"/>
    <path stroke="none" fill="#000000" d="M90.5 68.65 Q95.95 68.7 99.75 70.55 103.55 72.4 104.3 75.4 104.9 77.95 103.2 80.6 100.75 84.55 93.75 88.2 93.35 88.35 93.15 88 92.95 87.65 93.3 87.35 98.75 84.45 101.4 81.4 104.05 78.35 103.4 75.65 102.75 72.95 99.15 71.25 95.6 69.6 90.5 69.55 82.3 69.5 75.8 75.1 72.5 77.95 70.8 80.8 70.65 81.2 70.2 81 69.8 80.75 70 80.35 71.75 77.35 75.15 74.4 81.95 68.6 90.5 68.65"/>
    <path stroke="none" fill="#fdd01a" d="M97.4 74.6 Q96.5 77.65 89.9 86.05 82.3 95.75 73.35 104 47.85 127.5 30.05 122.55 19.75 119.7 12.3 112.2 4.95 104.8 2.5 95.05 -0.1 84.75 3.55 74.6 7.5 63.45 18.4 54.45 38.9 37.5 64.45 38.15 74.6 38.4 83.15 41.55 91.05 44.5 94.75 48.75 100.55 55.5 99.55 65.75 99.05 70.85 97.4 74.6"/>
    <path stroke="none" fill="#000000" d="M18.1 54.1 Q39.2 36.65 65.15 37.7 75.3 38.1 83.85 41.35 91.6 44.35 95.1 48.4 101 55.25 100 65.65 99.5 70.85 97.8 74.8 L97.85 74.7 Q96.9 77.85 90.3 86.3 82.7 96.05 73.65 104.35 62.85 114.35 53 119.3 40.1 125.8 29.95 123 19.3 120.05 11.65 112.15 3.95 104.2 1.75 93.9 -0.5 83.25 3.8 72.8 8.05 62.4 18.1 54.1 M30.2 122.1 Q47.65 126.95 72.95 103.7 81.9 95.5 89.45 85.85 96 77.5 96.9 74.45 L96.95 74.4 Q98.6 70.6 99.05 65.6 100 55.6 94.35 49.05 90.95 45.05 83.3 42.15 74.95 38.95 65 38.55 39.55 37.6 18.7 54.8 8.85 62.95 4.65 73.1 0.45 83.3 2.65 93.7 4.8 103.75 12.3 111.5 19.8 119.2 30.2 122.1"/>
    <path stroke="none" fill="#000000" d="M62 62.2 Q72.1 60.6 80.9 62.5 89.65 64.4 96.4 69.65 96.8 69.95 96.5 70.3 96.2 70.7 95.85 70.4 88.3 64.55 78.25 63 70.65 61.8 62.15 63.15 48.35 65.3 35.8 72.9 24.4 79.75 18.9 87.8 11.6 98.55 13.95 108.35 15.15 113.3 18.1 116.4 18.4 116.75 18.05 117.1 L17.4 117.05 Q14.5 114 13.2 108.75 10.55 98.35 18.15 87.25 23.75 79.1 35.3 72.1 48.05 64.4 62 62.2"/>
    <path stroke="none" fill="#000000" d="M32.5 56.5 Q49.15 47 65.05 47.15 75.3 47.25 83.65 51.2 89.55 54 93.45 58.2 97.4 62.4 98.05 66.65 98.15 67.1 97.65 67.2 L97.1 66.8 Q96.45 62.8 92.7 58.75 88.9 54.75 83.25 52.05 75.1 48.2 65 48.1 49.35 47.9 32.95 57.3 11 69.9 6.75 88.3 4.65 97.55 6.95 104.45 7.1 104.85 6.65 105.05 6.25 105.2 6.05 104.75 3.65 97.7 5.8 88.2 10.1 69.35 32.5 56.5"/>
    <path stroke="none" fill="#f6d8c4" d="M117 111.3 Q116.25 114.8 114.35 118.15 110.6 124.9 104.95 124.25 98.65 123.5 100.45 114.35 101.15 110.65 103.05 107.5 105 104.25 107.25 103.35 111.85 101.5 114.85 103.9 117.8 106.25 117 111.3"/>
    <path stroke="none" fill="#000000" d="M100.65 119 Q101.3 123.4 105 123.8 110.25 124.45 113.9 118 115.75 114.75 116.55 111.2 116.95 108.95 116.4 107.15 115.85 105.3 114.55 104.25 111.65 102 107.4 103.8 104.5 104.95 102.3 109.9 100.15 114.85 100.65 119 M107.05 102.95 Q109.4 102 111.5 102.15 113.6 102.3 115.1 103.5 116.65 104.75 117.25 106.8 117.85 108.85 117.45 111.35 L117.45 111.4 Q116.6 115.3 114.65 118.7 110.75 125.4 104.9 124.7 102.75 124.5 101.45 123.05 100.1 121.6 99.75 119.15 99.15 114.65 101.5 109.45 103.85 104.2 107.05 102.95"/>
    <path stroke="none" fill="#f6d8c4" d="M18 126.85 Q15.95 122.85 17.85 120 19.75 117.15 24.15 117.45 26.3 117.6 28.85 119.85 31.3 122 32.95 124.95 36.95 132.25 31.8 134.6 27.2 136.7 22.15 132 L18 126.85"/>
    <path stroke="none" fill="#000000" d="M17.55 121.9 Q17.15 124.15 18.45 126.65 L22.5 131.65 Q27.3 136.1 31.6 134.15 34.65 132.8 33.95 129 33.3 125.4 30.1 121.75 26.85 118.15 24.15 117.9 20 117.6 18.25 120.2 17.7 121.1 17.55 121.9 M24.2 117 Q27.3 117.25 30.75 121.05 34.15 124.8 34.85 128.8 35.7 133.35 32 135 27.2 137.2 22.05 132.55 L17.6 127.1 Q16.55 125.05 16.5 123.1 16.5 121.15 17.45 119.7 19.45 116.7 24.2 117"/>
    <path stroke="none" fill="#f6d8c4" d="M106.2 125.65 Q108 131.95 106.95 137.35 105.55 144.25 99.5 148.1 L84.4 157 Q75.35 162.15 73.75 163.45 71.05 165.65 69.1 166.05 66.45 166.55 63.75 164.25 61.9 162.7 52.65 159.5 42.25 156 36.9 152.75 30.35 148.75 29.6 142.35 29.35 139.95 29.7 136.25 L30.45 129.65 Q30.9 123.95 28.3 119.15 L25.55 115.55 Q22.6 110.45 21.75 105.55 30.9 105.15 40.4 102.5 52.65 97.75 71.3 89.6 L101.8 76.35 Q106.1 81.6 108.15 87.7 109.95 93.2 109.1 96.15 107.3 102.2 106.25 110.65 104.9 121 106.2 125.65"/>
    <path stroke="none" fill="#000000" d="M106.65 125.5 Q108.3 131.2 107.55 136.35 106.45 144.25 99.75 148.5 95.6 151.15 86 156.6 75.55 162.6 74 163.85 71.3 166.05 69.3 166.5 66.4 167.1 63.4 164.6 62.25 163.6 59.45 162.5 57.95 161.85 53.55 160.35 L45.3 157.35 Q40.3 155.3 36.7 153.15 30.75 149.55 29.45 144.2 28.7 140.95 29.55 133.65 L30 129.6 Q30.45 124.1 27.95 119.45 L25.25 115.9 25.15 115.8 Q22.15 110.65 21.25 105.55 L22.25 105.5 Q23.1 110.4 25.95 115.3 27.55 116.75 28.9 119.3 31.4 124 30.95 129.7 L30.5 133.75 Q29.65 140.75 30.4 143.9 31.6 148.95 37.15 152.35 42.7 155.7 53.85 159.45 58.4 161 59.95 161.65 62.75 162.8 64 163.85 66.45 165.95 68.8 165.6 70.75 165.3 73.4 163.1 74.8 162 85.55 155.75 94.7 150.55 99.25 147.7 105.6 143.7 106.65 136.15 107.3 131.2 105.75 125.75 104.4 120.95 105.8 110.3 106.9 101.9 108.65 96 109.35 93.7 108.1 89.25 106.75 84.45 103.75 79.8 L101.35 76.55 102.25 76.15 104.55 79.3 Q107.75 84.15 109.1 89.25 110.3 93.75 109.55 96.3 107.75 102.4 106.65 111 105.4 121.1 106.65 125.5"/>
    <path stroke="none" fill="#fdd01a" d="M94.45 78.3 Q95.4 67.65 100.65 63.6 105.25 60.1 111.7 62.4 117.75 64.55 122.2 70.55 126.85 76.95 126.85 84.1 126.8 96.5 121.9 105.15 119.45 109.45 117 111.3 115.35 105.95 110.9 106.3 109.5 106.45 108 107.1 L106.75 107.75 Q96.25 97.05 94.3 86.6 93.7 83.35 94 80.5 L94.45 78.3"/>
    <path stroke="none" fill="#000000" d="M107.55 61.05 Q114.65 61.35 120.8 68.1 127.35 75.25 127.3 84.1 127.25 96.55 122.45 105.2 120 109.55 117.3 111.65 L116.9 111.75 116.55 111.45 Q115.5 107.9 113.1 107.05 L109 107.25 107.05 108.15 106.45 108.1 Q97.35 98.85 94.55 89.7 92.8 84.05 93.65 79.35 L94 78.2 94.5 74.25 Q96.05 66.25 100.7 63 103.7 60.9 107.55 61.05 M94.65 79.35 Q93.8 83.65 95.45 89.15 98.1 98.15 106.85 107.2 108 106.45 109.45 106.1 111.6 105.55 113.35 106.15 115.9 107.1 117.2 110.5 119.3 108.55 121.1 105.5 124.15 100.4 125.45 93.75 126.4 89.25 126.4 84.05 126.4 75.6 120.2 68.75 114.25 62.25 107.5 61.95 102.85 61.75 99.75 65 96.65 68.25 95.4 74.5 L94.9 78.3 94.9 78.4 94.85 78.45 94.65 79.35"/>
    <path stroke="none" fill="#000000" d="M96 70.25 Q103.55 69.9 109.55 75.3 115.6 80.65 117.1 89.05 118.35 96.15 117.45 103.1 117 106.55 116.25 108.7 116.05 109.1 115.75 109 115.4 109 115.35 108.65 114.95 107 113.35 104.75 L108.95 99.45 103.05 92.35 Q98.45 86.6 96.1 80.1 L94.55 74.45 Q94.55 73.95 94.95 73.95 95.4 73.75 95.5 74.3 L96.95 79.75 Q99.3 86.2 103.8 91.75 L109.7 98.85 113.5 103.5 Q115.1 105.6 115.75 107.05 L116.1 105.35 Q117.65 97.55 116.15 89.25 114.75 81.2 109 76.05 103.25 70.85 96.05 71.2 95.55 71.2 95.55 70.75 95.55 70.25 96 70.25"/>
    <path stroke="none" fill="#000000" d="M64.6 119.95 Q65 119.8 65.25 120.2 L65.95 122.85 Q66.6 126 66.05 128.7 65.15 132.75 62.1 135.2 64.55 138.55 65.95 139.15 66.35 139.35 66.2 139.65 L66.2 139.75 Q66.05 140.15 65.6 140 64.35 139.45 62.65 137.45 L61.05 135.4 Q60.8 135.05 61.2 134.75 65.45 131.55 65.35 125.9 L64.35 120.55 Q64.15 120.15 64.6 119.95"/>
    <path stroke="none" fill="#000000" d="M52.05 128.1 Q55.75 125.25 55.85 124.85 55.95 125.15 55.05 126.1 53.9 127.3 52.1 128.05 L52.05 128.1 52 128.1 Q48.05 131.1 46.75 131.5 42.6 132.8 41.5 133.8 41.15 134.15 40.8 135.55 40.55 134.9 40.85 134.05 41.45 132.4 44.15 131.6 L41.95 131.5 Q39.5 131.7 38.55 133.25 38.5 132.9 38.8 132.35 39.4 131.3 41.1 130.6 40.6 130.2 39.75 130 38.05 129.6 36.25 130.8 L37.15 129.95 Q38.4 129 40.35 128.5 41.75 128.15 46.35 128.45 L52.05 128.1"/>
    <path stroke="none" fill="#fefefe" d="M58.5 121.1 Q59.55 123.1 57.15 126 54.9 128.75 51.15 130.6 46.55 132.85 43.25 132 38.2 130.65 36.6 126.15 34.9 121.4 38.95 116.8 43.1 112.05 49.25 113.45 55.35 114.85 58.5 121.1"/>
    <path stroke="none" fill="#0081c0" d="M43.95 113 Q46.5 111.6 51.7 114.05 56.85 116.45 57.05 118.9 57.6 124.2 54.55 127.15 51.9 129.7 48.25 129.65 44.55 129.6 41.95 127 39.4 124.35 39.45 120.65 39.5 116.95 42.15 114.4 42.95 113.55 43.95 113"/>
    <path stroke="none" fill="#285384" d="M53.5 116.35 Q55.35 118.25 55.3 120.9 55.3 123.55 53.4 125.4 51.5 127.2 48.85 127.2 46.2 127.15 44.35 125.25 42.5 123.35 42.55 120.7 42.6 118.05 44.5 116.2 46.4 114.4 49 114.4 51.7 114.45 53.5 116.35"/>
    <path stroke="none" fill="#000000" d="M51.1 118.7 Q51.9 119.5 51.9 120.7 51.9 121.85 51.05 122.7 50.2 123.5 49.05 123.5 47.85 123.45 47.05 122.65 46.25 121.8 46.25 120.65 46.3 119.45 47.1 118.65 47.95 117.85 49.1 117.85 50.25 117.85 51.1 118.7"/>
    <path stroke="none" fill="#fefefe" d="M52.5 117 Q53 117.65 52.9 118.45 52.8 119.3 52.15 119.8 51.5 120.3 50.7 120.2 49.85 120.1 49.35 119.45 48.85 118.75 48.95 118 49.05 117.15 49.7 116.65 50.35 116.15 51.15 116.25 52 116.35 52.5 117"/>
    <path stroke="none" fill="#000000" d="M47.1 111.85 Q52.45 112.45 56 116.85 57.8 119.05 58.5 121.1 52.05 111.55 44.05 113.95 39.55 115.25 37.6 119.1 35.7 122.95 37.55 126.5 39.1 129.45 42.35 131.25 L45.3 132.4 Q40.65 132.15 36.3 128.75 L34.75 127.05 33.5 125.3 29.6 120.95 Q32.05 122.2 33.7 120.95 32.75 120.95 31.95 119.45 L31.35 117.9 Q32.7 119.65 34.75 118.9 L36.9 116.8 Q35.5 117.2 34.85 115.9 L34.5 114.5 Q35.6 116.5 38 115.75 42.75 111.4 47.1 111.85"/>
    <path stroke="none" fill="#000000" d="M82.45 127.65 L79.25 126.15 80.45 126.3 84.4 126.7 Q86.1 126.85 90.25 125.3 94.75 123.6 96.25 123.5 98.35 123.4 99.9 123.95 L101.05 124.55 Q98.9 123.95 97.3 124.85 96.5 125.3 96.1 125.85 98 126.05 98.9 126.9 L99.45 127.7 Q98 126.4 95.55 127 L93.4 127.8 Q96.35 127.7 97.45 129.2 98 129.95 97.95 130.7 97.35 129.7 96.1 129.3 L91.3 129 Q86.95 129.25 82.45 127.65"/>
    <path stroke="none" fill="#fefefe" d="M75.85 121.7 Q77.1 114.5 82.75 111.25 88.45 107.95 94.1 111.4 99.5 114.75 99.25 120 99 125 94.35 127.85 90.05 130.55 82.6 128 75.2 125.5 75.85 121.7"/>
    <path stroke="none" fill="#0081c0" d="M86.9 110.75 L91.5 110.95 Q93.4 111.4 94 111.85 96 113.55 96.7 116.15 97.45 118.8 96.6 121.4 95.4 124.9 92.1 126.55 88.8 128.2 85.25 127.05 81.75 125.9 80.1 122.6 78.45 119.25 79.6 115.75 80.2 114 82.3 112.55 84.4 111.15 86.9 110.75"/>
    <path stroke="none" fill="#285384" d="M90.3 112.55 Q92.85 113.45 94.05 115.85 95.25 118.25 94.45 120.85 93.6 123.4 91.15 124.6 88.75 125.85 86.2 125 83.6 124.15 82.4 121.7 81.15 119.3 82 116.75 82.9 114.15 85.3 112.95 87.7 111.75 90.3 112.55"/>
    <path stroke="none" fill="#000000" d="M89.05 116 Q90.2 116.4 90.75 117.45 91.35 118.55 90.95 119.7 90.55 120.85 89.5 121.35 L87.25 121.5 Q86.1 121.15 85.6 120.05 85.05 118.95 85.4 117.85 85.75 116.7 86.85 116.15 L89.05 116"/>
    <path stroke="none" fill="#fefefe" d="M90.2 114.25 Q90.9 114.5 91.25 115.2 91.6 115.9 91.35 116.6 91.15 117.35 90.45 117.7 L89 117.8 87.9 116.85 Q87.55 116.15 87.8 115.45 88.05 114.7 88.75 114.35 L90.2 114.25"/>
    <path stroke="none" fill="#000000" d="M84.4 108.95 Q88.65 107.15 94.7 110.1 97.3 110 97.8 107.7 L97.85 109.2 Q97.6 110.7 96.05 110.8 L98.9 112.2 Q101.2 112.3 101.95 110.2 L101.85 111.9 Q101.5 113.65 100.55 113.95 102.45 114.65 104.6 112.8 L103.55 113.9 Q102.3 115.45 101.35 117.45 101.05 118.15 100.9 119.75 L100.35 122.5 Q97.05 127.25 92.5 128.9 L95.1 126.85 Q97.85 124.1 98.45 120.65 99.15 116.5 96.1 113.3 93 110.05 88.1 110.1 79.4 110.25 75.85 121.7 75.95 119.4 77.05 116.7 79.25 111.2 84.4 108.95"/>
    <path stroke="none" fill="#fdd01a" d="M94.45 78.3 Q92.9 85.2 88.4 93.1 79.45 108.95 65 114.15 46.55 120.8 31.5 117.9 24.2 116.45 20.9 112.8 17.25 108.8 19.05 102.75 22.35 91.45 41.6 81.4 56.9 73.35 73.7 69.75 86.8 66.95 91.55 69 96.15 71 94.45 78.3"/>
    <path stroke="none" fill="#000000" d="M21.85 113.05 Q27.05 117.95 39.55 118.15 52 118.35 64.85 113.75 79 108.6 87.85 93 92.3 85.15 94 78.2 95.25 72.75 93.05 70.55 89.4 66.85 73.8 70.2 56.75 73.85 41.5 81.9 22.7 91.8 19.5 102.9 17.65 109.15 21.85 113.05 M73.6 69.3 Q81.95 67.45 86.8 67.6 91.65 67.75 93.75 69.9 96.05 72.3 95.1 77.45 L94.9 78.4 Q93.2 85.5 88.65 93.5 79.6 109.4 65.15 114.6 52.05 119.35 39.35 119.1 26.6 118.85 21.2 113.75 16.6 109.45 18.55 102.6 21.9 91.25 40.9 81.15 56.35 73 73.6 69.3"/>
    <path stroke="none" fill="#000000" d="M93.2 70.4 Q93.3 70.25 93.5 70.2 L93.85 70.2 94.1 70.7 94.05 70.85 Q91.95 74.7 87.05 79.9 77.3 90.4 63.15 97.95 51.55 104.1 38.15 107 29.45 108.85 21.45 109.1 28.75 111.15 36.9 111.5 49.5 112.05 61 108.15 75.1 103.45 85.9 90.35 91.35 83.85 94 78.1 94.15 77.7 94.65 77.85 95 78.1 94.85 78.5 92.15 84.3 86.65 90.95 75.7 104.25 61.3 109.1 46.95 113.9 31.25 112 26.35 111.4 21.9 110.2 L18.3 109.05 Q17.95 108.9 18.05 108.5 18.05 108.15 18.5 108.15 24.05 108.4 32.25 107.1 48.65 104.55 62.7 97.1 76.7 89.6 86.35 79.35 91.15 74.15 93.2 70.4"/>
    <path stroke="none" fill="#000000" d="M98.15 104.4 Q96.4 103 93.8 102.2 88.55 100.65 84.25 103.6 83.55 103.45 83.1 103.05 82.3 102.25 83.75 101.15 86.25 99.3 90.6 99.55 96 99.9 98.15 104.4"/>
    <path stroke="none" fill="#f6d8c4" d="M76.5 119.35 Q77.85 115 81.85 111.85 86.05 108.5 89.85 109.4 94.3 110.5 97.45 113.2 89.75 113.8 85.8 114.85 80.85 116.2 76.5 119.35"/>
    <path stroke="none" fill="#e33c28" d="M76.05 158.35 L75.35 158.95 73.6 159.85 73.1 160.05 72.65 160.2 70.5 160.45 68.55 160.3 67.8 160.15 66.75 159.7 Q66.25 159.5 65.6 158.85 L65.35 158.6 64.9 158.05 63.55 155.65 Q62.85 154.25 61.9 153.35 L61.6 153.15 59.9 152.5 61.4 151.4 62.05 149.75 62.45 148.35 62.5 147.9 62.8 147.05 Q63.35 145.05 64.95 144.25 L65.9 144.1 67.9 144.75 69.25 145.2 69.95 144.7 70.95 143.75 72.05 142.95 73.05 142.6 Q73.7 142.4 74.6 143.3 L75.75 144.65 76.05 145 76.15 145.2 78 147.4 79.2 148.2 80.35 148.5 80.1 148.7 Q79.1 149.4 78.6 150.45 78.3 151.05 78.15 151.75 L77.7 154.65 77.05 157.05 76.05 158.35"/>
    <path stroke="none" fill="#000000" d="M60.8 152.45 L60.9 152.5 61.85 152.85 62.1 153.05 Q63.1 153.95 64.15 155.95 L65.2 157.8 65.6 158.35 65.85 158.6 66.95 159.35 67.1 159.45 68.25 159.85 68.35 159.85 68.55 159.9 70.5 160.1 70.9 160.1 72.5 159.85 73.5 159.5 75.1 158.65 75.75 158.15 75.9 158 76.7 156.9 77.25 154.8 77.3 154.6 77.8 151.65 Q77.85 151.15 78.25 150.25 78.75 149.25 79.5 148.65 78.55 148.4 77.75 147.7 L75.85 145.4 75.8 145.35 75.5 145 75.45 144.9 75.1 144.45 74.35 143.6 Q73.6 142.85 73.15 143 L72.15 143.3 Q71.4 143.7 70.7 144.5 L70.2 144.95 70 145.1 69.3 145.6 68.05 145.2 65.85 144.5 65.15 144.6 Q63.75 145.35 63.15 147.15 L63.1 147.35 62.85 148.05 62.8 148.45 62.5 149.6 62.4 149.85 62.35 150.1 61.65 151.65 60.8 152.45 M70.9 160.85 L70.45 160.85 68.5 160.7 66.75 160.15 66.6 160.05 65.3 159.1 65.05 158.85 64.6 158.25 63.45 156.3 Q62.55 154.5 61.6 153.65 L61.4 153.45 60.7 153.2 Q59.8 152.95 59.6 152.75 L59.55 152.4 59.8 152.15 Q60.5 151.85 61.1 151.15 L61.6 149.9 61.7 149.6 61.75 149.35 61.85 149.15 62.15 147.85 62.3 147.4 62.35 147.15 62.45 146.9 Q63.05 144.85 64.75 143.9 L65.85 143.75 68.35 144.5 69.15 144.8 70.15 143.95 71.85 142.6 72.95 142.25 73.25 142.2 Q73.95 142.2 74.9 143.05 L76.05 144.4 76.4 144.9 76.5 144.95 78.3 147.1 Q78.95 147.7 79.9 147.95 L80.45 148.1 Q80.8 148.2 80.7 148.55 L80.25 149.05 Q79.35 149.65 78.95 150.6 L78.55 151.8 78.05 154.75 78 154.95 77.35 157.2 76.35 158.6 75.55 159.25 Q74.9 159.75 73.75 160.25 L72.75 160.6 70.9 160.85"/>
    <path stroke="none" fill="#e33c28" d="M80.25 148.45 L76.55 149.05 Q74.55 149.55 73.25 150.45 L71.95 150.3 69.65 150.3 67.2 151.5 64.15 151.35 61.2 152.5 60.05 152.6 59.9 152.5 61.4 151.4 62.05 149.75 62.45 148.35 62.5 147.9 62.8 147.05 Q63.35 145.05 64.95 144.25 L65.9 144.1 67.9 144.75 69.25 145.2 69.95 144.7 70.95 143.75 72.05 142.95 73.05 142.6 Q73.7 142.4 74.6 143.3 L75.75 144.65 76.05 145 76.15 145.2 78 147.4 79.15 148.15 80.25 148.45"/>
    <path stroke="none" fill="#000000" d="M65.55 144.5 L65.15 144.6 Q63.75 145.35 63.15 147.15 L63.1 147.35 62.85 148.05 62.8 148.45 62.5 149.6 62.4 149.85 62.35 150.1 61.7 151.65 61.2 152.1 62.55 151.55 Q64.55 150.7 65.6 150.7 L67.2 151.05 69.5 149.95 69.65 149.9 73.15 150.05 Q74.9 148.85 78.55 148.3 L77.75 147.7 75.85 145.4 75.8 145.35 75.5 145 75.45 144.9 75.1 144.45 74.35 143.6 Q73.6 142.85 73.15 143 L72.15 143.3 Q71.4 143.7 70.7 144.5 L70.2 144.95 70 145.1 69.3 145.6 68.1 145.2 65.85 144.5 65.55 144.5 M60.05 152.95 L59.95 152.95 59.65 152.75 Q59.45 152.65 59.55 152.4 L59.8 152.15 Q60.5 151.85 61.1 151.15 L61.6 149.9 61.7 149.6 61.75 149.35 61.85 149.15 62.15 147.85 62.3 147.4 62.35 147.15 62.45 146.9 Q63.05 144.85 64.75 143.9 L65.85 143.75 68.35 144.5 69.15 144.8 70.15 143.95 71.85 142.6 72.95 142.25 73.25 142.2 Q73.95 142.2 74.9 143.05 L76.05 144.4 76.4 144.9 76.5 144.95 78.3 147.1 Q78.9 147.7 79.85 147.95 L80.35 148.1 80.6 148.5 80.3 148.85 79.65 148.9 76.35 149.5 Q74.6 149.95 73.5 150.75 L73.2 150.8 69.75 150.7 67.35 151.85 67 151.8 65 151.55 62.85 152.25 61.35 152.85 60.05 152.95"/>
    <path stroke="none" fill="#000000" d="M73.75 150.2 L73.7 150.55 72.5 152.45 Q71.7 153.7 70.8 153.8 70.15 153.9 68.45 152.95 66.85 152 66.6 151.5 L67.1 151.15 69.05 149.65 Q70 149.1 70.95 149.35 L73.75 150.2"/>
    <path stroke="none" fill="#fefefe" d="M74.55 156.65 L75.6 156.4 Q76.25 156.45 75.85 157.05 75.35 157.7 74.45 158.1 L73.45 158.3 Q72.8 158.25 73.15 157.7 L74.1 156.8 74.55 156.65"/>
    <path stroke="none" fill="#fefefe" d="M65.7 145.6 Q67.4 145.25 67.5 145.8 L67.05 146.25 65.9 146.6 64.15 146.45 Q64.1 146.25 64.55 146 L65.7 145.6"/>
    <path stroke="none" fill="#fefefe" d="M73.15 144.15 L74.45 144.25 Q74.6 144.6 73.3 144.9 L71.95 144.75 Q71.85 144.45 73.15 144.15"/>
    <path stroke="none" fill="#fefefe" d="M68.25 158.3 L69.1 158.9 68.1 159 Q67.2 158.85 67.2 158.45 L68.25 158.3"/>
    <path stroke="none" fill="#000000" d="M76.15 123.3 Q75.6 123 75.65 122.65 75.65 121.6 75.8 120.7 76.1 117.5 79.15 115.1 L79.2 115.05 80.8 114 Q82.05 113.4 83.4 112.95 86.55 111.95 90.55 111.95 L90.85 111.95 96.85 110.95 Q100.55 110 101.9 106.1 102.25 108 101.25 109.95 99.95 112.5 96.9 113.25 L91.15 114.2 90.7 114.2 Q81.85 114.85 78.5 119.65 76.2 122.95 76.15 123.3"/>
    <path stroke="none" fill="#fefefe" d="M148.45 147.95 Q147.75 149.5 146.15 149.85 L138.8 151.65 Q136.95 152.2 135.5 150.85 134.8 151.9 133.6 152.2 L129.6 153.35 129.3 153.4 Q127.9 153.8 126.65 153.05 125.4 152.35 125 150.95 L116.7 120.45 Q116.35 119.2 116.95 118.05 117.5 116.9 118.65 116.35 L126.2 113 127.25 112.7 Q128.55 112.5 129.8 113.3 L130.3 112.35 Q132 109.9 135.05 108.9 L139.9 108.75 139.95 108.75 139.95 108.7 Q141.45 106.9 144.05 106.1 L149.9 106.25 Q153.1 107.55 154.05 110.65 L154.05 110.7 Q155.25 114.65 152.35 120.3 L152.8 119.95 Q154.4 118.7 156.55 118.15 L159.7 117.4 159.9 117.4 Q161.3 117.3 162.35 118.2 L163.75 116.9 Q165.45 115.6 167.5 115.1 L169.45 114.6 170.8 114.3 170.8 114.35 172.75 114.75 Q173.7 115.25 174.15 116.2 L178.85 125.05 Q179.5 126.3 179.15 127.6 L178.4 128.9 179 129.75 179.55 130.95 179.6 131.2 Q180.05 132.7 179.65 134.4 L179.6 134.6 Q179.3 136 178.3 137.55 177.5 138.95 176.05 139.9 174.85 140.75 173.1 141.3 L169.7 141.65 Q168.2 141.5 167.15 140.95 L165.1 143 Q163.65 143.95 162.1 144.35 L158.75 144.7 Q157.3 144.55 156.1 143.95 155.95 145 155.3 145.8 154.6 146.6 153.55 146.85 L150.15 147.85 148.45 147.95"/>
    <path stroke="none" fill="#fefefe" d="M142.55 131.9 L135.05 136.95 145.3 146.45 137.9 148.3 131.8 139.1 131.3 139.55 132.65 148.85 128.4 150.05 120.1 119.5 127.75 116.15 130.5 134.5 135.15 130 142.55 131.9"/>
    <path stroke="none" fill="#fefefe" d="M140.9 129.5 L150.55 125.6 152.6 143.5 149 144.5 140.9 129.5 M163.05 126.35 L163.2 127.2 Q163.6 128.6 164.3 129.65 L162.1 129.95 Q160.95 130.25 160.4 130.6 159.8 131.15 160.15 132 160.35 132.6 160.85 132.85 L161.95 133.05 Q163.8 133.05 164.6 133.95 L165.3 135.2 Q165.75 136.55 164.4 138.8 163.45 140.35 161.2 140.95 158.9 141.6 157.25 140.65 L156.4 139.9 158.15 137.2 Q159.2 138.3 160.5 137.95 161.55 137.65 161.55 136.85 161.5 135.8 159.5 135.65 153.6 135.45 152.25 130.25 151.5 127.45 153.05 124.85 154.55 122.35 157.4 121.5 L160.15 120.85 163.05 126.35 Q162.7 123.9 164 121.8 165.55 119.2 168.4 118.45 L171.1 117.8 175.75 126.65 173.05 126.9 Q171.9 127.2 171.35 127.55 170.8 127.95 171.1 128.95 171.35 129.6 171.8 129.75 L172.9 129.95 Q174.7 130.05 175.55 130.9 L176.25 132.1 Q176.65 133.6 175.35 135.7 174.35 137.3 172.15 137.9 169.9 138.55 168.2 137.55 L167.35 136.85 169.1 134.15 Q170.1 135.3 171.4 134.9 172.5 134.6 172.45 133.8 172.45 132.75 170.45 132.6 166.2 132.45 164.3 129.65 L164.8 129.7 163.05 126.35"/>
    <path stroke="none" fill="#fefefe" d="M143.25 124.5 L142 124.25 Q138.7 122.95 137.3 122.05 134.9 120.5 134.25 118.3 133.65 116.35 134.65 114.45 135.75 112.3 138.1 111.6 L140.3 111.35 Q141 110.75 142.25 110.35 L144.1 110.05 Q145.9 110.05 147.3 111.05 148.7 112.1 149.25 113.7 149.9 115.85 148.8 118.5 L146.15 122.95 Q145.15 124.5 143.25 124.5"/>
    <path stroke="none" fill="#fefefe" d="M141.6 115.55 Q142 114.1 143.25 113.7 L144.9 113.75 Q145.7 114 145.9 114.7 146.25 115.8 145.35 117.6 L143.25 121 139.65 119.35 Q137.95 118.4 137.6 117.25 137.4 116.6 137.85 115.9 138.3 115.2 139.15 114.95 140.45 114.55 141.6 115.55"/>
    <path stroke="none" fill="#000000" d="M128.4 150.8 L128 150.7 127.65 150.25 119.35 119.7 Q119.15 119.05 119.8 118.8 L127.45 115.45 128.1 115.5 128.5 116.05 131.05 132.95 134.6 129.45 Q134.9 129.15 135.3 129.25 L142.7 131.2 Q143.15 131.3 143.25 131.8 143.35 132.3 142.95 132.55 L136.25 137.05 145.8 145.9 Q146.15 146.25 146 146.65 L145.45 147.2 138.05 149.05 Q137.55 149.15 137.25 148.7 L132.3 141.2 133.4 148.75 Q133.5 149.35 132.85 149.55 L128.4 150.8 M121 119.95 L128.9 149.1 131.8 148.3 130.55 139.65 Q130.45 139.2 130.8 138.95 L131.35 138.55 Q131.6 138.3 131.95 138.4 132.25 138.4 132.45 138.7 L138.2 147.45 143.75 146.05 134.55 137.5 Q134.3 137.3 134.3 136.9 134.3 136.55 134.65 136.35 L140.75 132.25 135.35 130.85 131.05 135.05 130.3 135.2 Q129.85 135.1 129.75 134.6 L127.15 117.25 121 119.95"/>
    <path stroke="none" fill="#e32328" d="M142.55 131.9 L135.05 136.95 145.3 146.45 137.9 148.3 131.8 139.1 131.3 139.55 132.65 148.85 128.4 150.05 120.1 119.5 127.75 116.15 130.5 134.5 135.15 130 142.55 131.9"/>
    <path stroke="none" fill="#000000" d="M149 145.25 Q148.6 145.25 148.35 144.85 L140.25 129.85 Q140.1 129.65 140.2 129.25 140.35 128.95 140.65 128.8 L150.25 124.9 150.9 124.95 151.25 125.5 153.35 143.45 Q153.45 144.1 152.8 144.25 L149.2 145.25 149 145.25 M142 129.9 L149.4 143.65 151.8 142.95 149.9 126.65 142 129.9"/>
    <path stroke="none" fill="#e32328" d="M140.9 129.5 L150.55 125.6 152.6 143.5 149 144.5 140.9 129.5"/>
    <path stroke="none" fill="#000000" d="M159.5 141.95 Q157.95 141.95 156.9 141.25 L155.85 140.45 Q155.4 140 155.75 139.5 L157.5 136.8 158.1 136.45 158.7 136.7 Q159.25 137.3 159.85 137.3 L160.25 137.25 160.8 136.9 Q160.75 136.5 159.45 136.4 153.05 136.2 151.55 130.45 150.7 127.3 152.4 124.45 154.1 121.6 157.2 120.8 L160.05 120.1 Q160.55 120.1 160.8 120.5 L165.4 129.25 165.6 129.7 Q165.6 130.45 164.85 130.45 L164.6 130.45 162.3 130.7 160.8 131.25 160.85 131.75 161.15 132.15 161.25 132.2 162 132.3 Q164.15 132.3 165.15 133.45 165.85 134.25 166 135 166.55 136.75 165.05 139.2 163.85 141.05 161.4 141.7 L159.5 141.95 M157.4 139.8 L157.7 140 Q158.45 140.45 159.5 140.45 L161 140.25 Q162.95 139.75 163.75 138.4 164.9 136.45 164.55 135.4 L164.05 134.45 Q163.4 133.8 161.95 133.8 L160.5 133.5 Q159.75 133.15 159.45 132.3 158.9 130.85 159.95 130.05 160.4 129.65 161.9 129.25 L163.55 128.95 159.75 121.7 157.6 122.25 Q155.05 122.9 153.7 125.2 152.35 127.55 153 130.05 154.2 134.75 159.5 134.9 162.2 135.1 162.3 136.85 162.3 138.25 160.65 138.7 159.35 139.05 158.3 138.35 L157.4 139.8"/>
    <path stroke="none" fill="#e32328" d="M161.95 133.05 Q163.8 133.05 164.6 133.95 L165.3 135.2 Q165.75 136.55 164.4 138.8 163.45 140.35 161.2 140.95 158.9 141.6 157.25 140.65 L156.4 139.9 158.15 137.2 Q159.2 138.3 160.5 137.95 161.55 137.65 161.55 136.85 161.5 135.8 159.5 135.65 153.6 135.45 152.25 130.25 151.5 127.45 153.05 124.85 154.55 122.35 157.4 121.5 L160.15 120.85 164.8 129.7 162.1 129.95 Q160.95 130.25 160.4 130.6 159.8 131.15 160.15 132 160.35 132.6 160.85 132.85 L161.95 133.05"/>
    <path stroke="none" fill="#000000" d="M170.45 138.9 Q168.9 138.9 167.85 138.2 167.2 137.8 166.8 137.4 166.35 136.95 166.7 136.45 L168.45 133.75 Q168.65 133.5 169.05 133.4 L169.65 133.65 Q170.35 134.4 171.2 134.2 171.75 134.05 171.7 133.85 171.7 133.45 170.4 133.35 164.05 133.15 162.45 127.4 161.7 124.2 163.35 121.4 165.05 118.6 168.2 117.75 L171 117.05 Q171.45 116.95 171.75 117.45 L176.35 126.15 176.55 126.65 176.3 127.2 175.75 127.4 175.55 127.4 173.25 127.65 Q171.95 128 171.75 128.2 L171.8 128.7 172.05 129.05 172.15 129.1 172.95 129.2 Q175.15 129.35 176.1 130.4 176.75 131.15 176.95 131.95 177.5 133.75 175.95 136.1 174.9 138 172.35 138.65 L170.45 138.9 M168.3 136.7 L168.6 136.95 170.45 137.4 171.95 137.2 Q173.85 136.7 174.7 135.35 175.85 133.4 175.5 132.35 175.35 131.8 175 131.4 174.35 130.75 172.85 130.7 L171.45 130.45 Q170.8 130.15 170.4 129.25 169.9 127.75 170.85 127 171.4 126.6 172.85 126.2 L174.5 125.85 170.7 118.65 168.55 119.2 Q166 119.9 164.65 122.2 163.25 124.4 163.95 127 165.15 131.65 170.45 131.85 173.2 132.05 173.2 133.75 173.4 135.15 171.6 135.65 170.3 136 169.25 135.3 L168.3 136.7"/>
    <path stroke="none" fill="#e32328" d="M172.9 129.95 Q174.75 130.1 175.55 130.9 L176.25 132.1 Q176.65 133.6 175.35 135.7 174.35 137.3 172.15 137.9 169.9 138.55 168.2 137.55 L167.35 136.85 169.1 134.15 Q170.1 135.3 171.4 134.9 172.5 134.6 172.45 133.8 172.45 132.75 170.45 132.6 164.65 132.4 163.2 127.2 162.45 124.3 164 121.8 165.55 119.2 168.4 118.45 L171.1 117.8 175.75 126.65 173.05 126.9 Q171.9 127.2 171.35 127.55 170.8 127.95 171.1 128.95 171.35 129.6 171.8 129.75 L172.9 129.95"/>
    <path stroke="none" fill="#000000" d="M102.85 153.25 L94.9 157 93.25 157.8 91.95 157.9 104.7 151.95 106.95 151.25 107.05 151.25 107.1 151.3 107.5 151.9 107.7 153.45 107.55 154.4 Q107.3 155.25 104.45 157.05 L103.4 157.1 Q106.9 155.05 107.1 154.25 L107.2 153.7 107.25 153.6 107.2 152.45 106.95 152.95 106.8 153.2 106.15 153.7 106 153.75 106 153.8 104.2 154.3 103.55 154.15 102.9 153.4 102.85 153.25 M103.6 152.95 L103.25 153.1 103.4 153.3 104.2 153.85 Q105.05 153.8 105.95 153.25 L106.7 152.55 106.8 152.3 106.8 152.2 106.7 151.8 Q104.9 152.3 103.6 152.95"/>
    <path stroke="none" fill="#000000" d="M91.95 157.9 L93.25 157.8 Q87.8 160.45 85 161.3 80.2 163 77.9 164.45 L76.95 164.5 Q79.75 162.55 84.95 160.85 L91.95 157.9"/>
    <path stroke="none" fill="#000000" d="M104.45 157.05 L98.25 160.45 Q95.7 161.95 94 163.35 L93.15 163.4 98.05 160.05 103.4 157.1 104.45 157.05"/>
    <path stroke="none" fill="#000000" d="M115.8 156.25 L117.8 153 Q118.8 151.4 119.65 150.75 L119.85 150.65 120.35 150.5 121.3 150.65 121.45 150.7 122 151.45 122.05 151.6 122 152.8 121.85 153.1 121.8 153.4 120.7 155.9 120.2 155.95 120.35 155.55 119.95 155.45 119.85 155.4 119.75 155.25 Q119.3 154.75 119.45 153.85 L119.55 153.25 119.95 152.05 120.5 151.05 119.9 151.25 Q119.25 151.65 118.2 153.35 L118.15 153.35 116.4 156.2 115.8 156.25 M121.3 151.3 L121.15 151.2 120.9 151.25 120.5 152 120.1 153.2 119.95 153.95 119.95 154.6 120.1 154.9 120.6 155.05 120.9 154.35 121.4 153.15 121.5 152.9 121.75 152 121.6 151.45 121.3 151.3"/>
    <path stroke="none" fill="#000000" d="M128.5 151.7 L128.55 151.7 128.65 151.75 Q129.65 152.3 129.55 153 129.65 153.45 128.4 154.9 L128.45 154.9 128.25 155 127.9 155.4 126.3 155.5 126.15 155.2 126.1 154.7 Q126.05 154.1 126.95 152.85 L127.95 151.95 127.3 151.8 126.9 151.9 125.45 152.7 122.6 155.15 122 155.8 121.25 155.9 123.1 154.1 125.2 152.3 Q126.55 151.3 127.25 151.35 127.8 151.2 128.5 151.7 M128.45 152.15 L128 152.45 127.3 153.2 Q126.6 154 126.5 154.65 L126.5 154.7 Q126.5 155.1 126.65 155.15 L126.95 155.35 128 154.65 128 154.6 128.1 154.55 129.15 153 128.95 152.55 128.45 152.15"/>
    <path stroke="none" fill="#000000" d="M120.2 155.95 L120.7 155.9 120.15 157.05 120.7 156.55 120.95 156.2 121.3 155.9 122 155.8 119.95 157.95 Q119.2 158.9 118.85 159.75 L117.8 161.7 117.35 161.75 119.55 157.25 119.65 157.15 120.2 155.95"/>
    <path stroke="none" fill="#000000" d="M126.3 155.55 L126.3 155.5 127.9 155.4 124.95 158.5 128.1 157.3 129.3 156.95 130.05 156.85 Q131.85 156.7 132.2 157.45 132.95 157.85 133.05 158.45 L133.05 158.55 Q133.2 159.25 130.95 160.8 L130.05 160.85 Q132.6 159.15 132.65 158.7 L132.65 158.6 Q132.55 158.2 132.05 157.9 L131.45 158.05 Q130.55 158.45 130.1 159 L129.65 159.55 129.4 160.35 129.4 160.5 129.5 160.9 129.05 160.9 129 160.75 129 160.05 Q129.2 159.2 129.8 158.65 130.5 157.85 131.6 157.5 L129.75 157.4 129.45 157.45 129.4 157.45 128.6 157.65 126.95 158.2 124.15 159.35 122.2 161.4 121.6 161.45 123.8 159 123.9 159 125.65 157.15 126.9 155.85 Q126.55 155.85 126.3 155.55"/>
    <path stroke="none" fill="#000000" d="M115.8 156.25 L116.4 156.2 113.95 159.9 112.35 162.1 111.7 162.1 113.55 159.55 115.8 156.25"/>
    <path stroke="none" fill="#000000" d="M110.6 163.35 L111.7 162.1 112.35 162.1 110.9 163.8 110.85 163.8 Q110.15 164.35 106.35 164.75 L99.35 164.95 98.1 164.95 Q97.4 164.8 94.75 165 L86.9 165.1 Q80.8 165.4 78.1 170.05 L77.55 170.1 Q80.4 164.95 86.9 164.65 L90.4 164.5 92.05 164.5 92.15 164.35 92.95 163.55 93.15 163.4 94 163.35 93.75 163.5 92.6 164.5 94.35 164.45 94.75 164.5 99.35 164.4 106.35 164.2 Q109.8 163.9 110.6 163.35"/>
    <path stroke="none" fill="#000000" d="M117.35 161.75 L117.8 161.7 115.45 166.2 114.55 167.55 113.95 167.6 114.2 167.2 114.6 166.75 117.35 161.75"/>
    <path stroke="none" fill="#000000" d="M120.6 163.4 L118.45 166.3 117.5 167.35 116.75 167.4 117.6 166.6 117.8 166.35 119.55 164.1 120.3 163.1 Q120.5 162.7 121.6 161.45 L122.2 161.4 120.6 163.4"/>
    <path stroke="none" fill="#000000" d="M116.6 167.55 L116.75 167.4 117.5 167.35 117.2 167.65 116.45 168.25 115.15 168.95 115.95 168.7 116.35 168.65 116.85 168.5 118.2 167.85 119.05 167.2 120 167.15 118.5 168.2 118.4 168.25 Q117.85 168.5 117.55 168.7 L116.95 168.95 115.7 169.3 115.6 169.35 113.15 169.7 112.6 169.75 112.2 169.7 111.8 169.85 110.05 170.4 106.6 171.15 96.1 174.45 94.6 174.55 106.55 170.7 111.6 169.45 112.1 169.2 113.1 168.5 113.95 167.6 114.55 167.55 114.05 168.1 113.25 168.95 113.15 169.1 113.55 169.05 115.7 168.1 116.6 167.55"/>
    <path stroke="none" fill="#000000" d="M119.05 167.2 L119.35 167 129.25 161.35 129.05 160.9 129.5 160.9 129.65 161.15 130.05 160.85 130.95 160.8 129.65 161.65 126.75 163.3 120 167.15 119.05 167.2"/>
    <path stroke="none" fill="#000000" d="M73.5 168.3 L74.35 167 Q75.4 165.65 76.95 164.5 L77.9 164.45 Q75.75 165.85 74.65 167.3 L73.9 168.5 73.15 170.4 72.75 170.4 73.5 168.3"/>
    <path stroke="none" fill="#000000" d="M78.1 170.05 L77.85 170.45 77.55 171.2 77.5 171.3 77.4 171.35 77.25 171.35 77.15 171.2 77.15 171 77.15 170.9 77.55 170.1 78.1 170.05"/>
    <path stroke="none" fill="#000000" d="M72.75 170.4 L73.15 170.4 72.85 172.3 73.15 176.05 72.7 176.05 72.7 175.8 72.55 174.95 72.45 174.25 72.45 172.35 72.7 170.65 72.75 170.4"/>
    <path stroke="none" fill="#000000" d="M72.7 176.05 L73.15 176.05 73.55 179.65 73.1 179.6 72.9 178.55 72.9 178.45 72.7 176.05"/>
    <path stroke="none" fill="#000000" d="M94.6 174.55 L96.1 174.45 Q93.75 175.35 92.3 176.1 L87.7 178.2 83.5 179.2 74.25 179.7 73.6 179.8 73.55 179.8 73.45 179.75 73.35 179.6 73.4 179.45 73.55 179.35 74.15 179.25 83.25 178.7 83.3 178.7 87.6 177.7 92.1 175.65 94.6 174.55"/>
    <path stroke="none" fill="#e32328" d="M132.65 158.6 L132.65 158.7 129.4 160.5 129.4 160.35 129.65 159.55 131.45 158.05 132.05 157.9 Q132.55 158.2 132.65 158.6"/>
    <path stroke="none" fill="#e32328" d="M129.65 159.55 L130.1 159 Q130.55 158.45 131.45 158.05 L129.65 159.55"/>
    <path stroke="none" fill="#e32328" d="M129.65 161.15 L129.4 160.5 132.65 158.7 Q132.6 159.25 129.65 161.15"/>
    <path stroke="none" fill="#e32328" d="M106.8 152.3 L106.7 152.55 103.4 153.3 103.25 153.1 103.6 152.95 Q104.9 152.3 106.7 151.8 L106.8 152.2 106.8 152.3"/>
    <path stroke="none" fill="#e32328" d="M106.7 152.55 L105.95 153.25 Q105.05 153.8 104.2 153.85 L103.4 153.3 106.7 152.55"/>
    <path stroke="none" fill="#e32328" d="M121.15 151.2 L121.3 151.3 121.6 151.45 121.75 152 120.3 154.95 120.1 154.9 119.95 154.6 121.15 151.2"/>
    <path stroke="none" fill="#e32328" d="M120.9 151.25 L121.15 151.2 119.95 154.6 119.95 153.95 120.1 153.2 120.5 152 120.9 151.25"/>
    <path stroke="none" fill="#e32328" d="M121.75 152 L121.5 152.9 121.4 153.15 120.9 154.35 120.6 155.05 120.3 154.95 121.75 152"/>
    <path stroke="none" fill="#e32328" d="M128.45 152.15 L128.95 152.55 126.65 155.15 Q126.5 155.1 126.5 154.7 L126.5 154.65 128 152.45 128.45 152.15"/>
    <path stroke="none" fill="#e32328" d="M128.95 152.55 L129.15 153 128.1 154.55 128 154.6 128 154.65 126.95 155.35 126.65 155.15 128.95 152.55"/>
    <path stroke="none" fill="#e32328" d="M127.3 153.2 L128 152.45 126.5 154.65 Q126.55 154.1 127.3 153.2"/>
    <path stroke="none" fill="#f6d8c4" d="M119.95 157.95 L125.45 152.7 126.9 151.9 127.3 151.8 127.95 151.95 126.95 152.85 Q126.05 154.1 126.1 154.7 L126.15 155.2 126.3 155.55 Q126.55 155.85 126.9 155.85 L125.65 157.15 123.9 159 123.8 159 122.7 160.2 120.3 163.1 119.85 163.65 119.55 164.1 117.8 166.35 117.6 166.6 Q117.5 166.65 117.15 167 L116.65 167.55 115.7 168.1 113.55 169.05 113.15 169.1 113.25 168.95 114.05 168.1 115.45 166.2 118.8 159.75 Q119.2 158.85 119.95 157.95 M128.6 157.65 L129.4 157.45 129.45 157.45 129.75 157.4 131.6 157.5 Q130.5 157.85 129.8 158.65 129.2 159.2 129 160.05 L129 160.75 129.25 161.35 119.35 167 118.2 167.85 116.85 168.5 116.35 168.65 115.95 168.7 115.15 168.95 116.45 168.25 117.2 167.65 118.45 166.3 120.6 163.4 122.5 161.1 124.15 159.35 126.95 158.2 128.6 157.65"/>
    <path stroke="none" fill="#f6d8c4" d="M106 153.8 L106 153.75 106.15 153.7 106.8 153.2 106.95 152.95 107.2 152.45 107.25 153.6 107.2 153.7 107.1 154.25 Q106.7 155.5 100.9 158.45 L98.05 160.05 Q95.2 161.7 92.95 163.55 L92.15 164.35 92.05 164.5 90.4 164.5 86.9 164.65 Q80.3 164.95 77.5 170.2 L77.15 170.9 77.15 171 77.15 171.2 77.25 171.35 77.4 171.35 77.5 171.3 77.55 171.2 77.85 170.45 Q80.5 165.4 86.9 165.1 L94.75 165 Q97.35 164.8 98.1 164.95 L99.35 164.95 106.35 164.75 Q110.15 164.35 110.85 163.8 L110.9 163.8 Q111.8 163 113.95 159.9 L118.15 153.35 118.2 153.35 Q119.25 151.65 119.9 151.25 L120.5 151.05 119.95 152.05 119.55 153.25 119.45 153.85 Q119.3 154.75 119.75 155.25 L119.85 155.4 119.95 155.45 120.35 155.55 119.65 157.15 119.55 157.25 114.6 166.75 114.2 167.2 113.45 168.15 113.1 168.5 112.1 169.2 111.6 169.45 98.3 173.1 Q94.55 174.45 92.1 175.65 L87.6 177.7 83.3 178.7 83.25 178.7 80.65 179.1 80.5 179.2 80.45 179.35 80.55 179.5 80.65 179.55 73.55 179.65 73.35 178.4 72.85 172.3 73.1 170.7 73.9 168.5 74.65 167.3 Q77.25 163.9 85 161.3 87.85 160.4 94.9 157 L102.85 153.25 102.9 153.4 103.55 154.15 104.2 154.3 106 153.8"/>
    <path stroke="none" fill="#000000" d="M73.45 179.35 L80.65 179.25 80.9 179.2 81.25 179.2 83.55 178.9 87.65 177.85 92.15 175.85 Q94.45 174.75 96 174.15 L101.1 172.35 103.5 171.65 110 170.1 111.65 169.55 112.4 169.4 112.65 169.45 112.9 169.4 113.15 169.4 115.5 169.05 115.6 169.05 115.7 169 116.95 168.65 118.25 167.95 118.4 167.9 119.6 167.05 130.8 160.55 Q132.75 159.2 132.75 158.65 L132.7 158.55 Q132.65 158.15 132.1 157.85 L131.95 157.7 Q131.7 157.3 130.85 157.3 L129.8 157.35 129.5 157.4 128.4 157.7 127.25 158.05 125.2 158.9 124.7 158.8 Q124.5 158.55 124.75 158.3 L127.65 155.3 127.7 155.2 128 154.9 128.1 154.75 128.15 154.7 129.1 153.5 129.25 153.15 Q129.25 152.6 128.5 152.2 L128.4 152.1 128.3 152.05 Q127.75 151.75 127.35 151.8 126.65 151.8 125.5 152.65 L123.45 154.4 123.4 154.5 121.6 156.2 121.3 156.55 121.15 156.65 121.05 156.8 120.45 157.4 120 157.45 Q119.7 157.3 119.85 156.95 L120.8 154.9 120.85 154.75 121.45 153.35 121.5 153.15 121.55 153.05 121.6 152.9 121.65 152.8 121.7 151.75 121.7 151.65 121.3 151.05 121.2 151.05 120.45 150.95 120.35 150.95 120.1 151.05 119.85 151.2 Q119.2 151.65 118.15 153.3 L113.95 159.85 112.05 162.45 110.9 163.7 Q109.95 164.4 106.4 164.7 L99.4 164.9 94.7 164.95 94.35 164.9 92.65 164.95 Q92.4 164.95 92.3 164.7 92.2 164.45 92.4 164.25 L93.7 163.2 93.8 163.1 Q95.85 161.5 98.05 160.2 L104.3 156.75 Q107 155.1 107.2 154.35 L107.35 153.8 107.35 153.55 107.2 152.1 106.95 151.7 104.9 152.4 103.7 152.9 Q100.55 154.3 98.2 155.45 L98.05 155.5 92.2 158.3 Q87.75 160.4 85.1 161.3 80.05 162.95 77.2 164.9 75.6 166.05 74.7 167.3 L73.9 168.5 73.15 170.5 73.1 170.85 72.9 172.4 72.9 174.25 73.15 175.8 73.15 176.1 73.2 176.3 73.45 179.35 M81 180 L73.55 180.1 73.1 180.05 72.75 179.75 72.5 177.7 72.5 177.1 72.4 176.4 72.4 176 72.35 175.85 72.15 174.35 72.15 172.35 Q72.15 171.5 72.4 170.6 L72.4 170.35 73.2 168.2 74.1 166.85 Q75.05 165.45 76.8 164.3 79.75 162.25 84.85 160.55 87.1 159.85 91.85 157.65 L97.4 154.95 97.45 154.9 97.7 154.8 97.9 154.75 103.35 152.25 104.6 151.65 106.65 151 107.2 150.95 Q107.3 150.95 107.45 151.1 L107.9 151.8 Q108.2 152.6 108.15 153.6 L107.95 154.6 Q107.7 155.6 104.7 157.4 L101.3 159.35 98.45 160.9 Q96.35 162.1 94.25 163.7 L94.15 163.8 94 163.9 93.7 164.15 94.55 164.2 94.8 164.15 99.4 164.1 106.35 163.9 Q109.75 163.6 110.45 163.1 L111.45 161.95 113.3 159.4 117.55 152.85 Q118.55 151.2 119.45 150.55 L119.65 150.45 119.75 150.35 120.3 150.2 120.6 150.15 121.45 150.35 121.65 150.4 122.4 151.4 122.45 151.5 Q122.6 152.35 122.4 153 L122.3 153.2 122.2 153.45 122.2 153.55 121.5 155.25 122.8 154 122.85 153.9 125.05 152.05 Q126.5 151 127.3 151 L127.5 151 128.75 151.4 128.95 151.55 Q130 152.15 130 153.05 130.1 153.65 128.85 155.05 L128.65 155.3 128.2 155.75 128.1 155.9 126.65 157.45 126.85 157.35 127 157.35 127.9 157.05 128.2 156.95 129.3 156.65 130.85 156.5 Q132.1 156.5 132.55 157.25 133.35 157.75 133.45 158.4 L133.5 158.6 Q133.7 159.45 131.25 161.2 L129.9 162.05 127 163.7 120 167.7 118.8 168.55 117.2 169.35 Q117 169.4 116.55 169.6 L115.85 169.75 115.8 169.75 115.7 169.8 113.2 170.15 112.95 170.2 112.7 170.2 112.2 170.15 111.95 170.25 110.2 170.8 106.7 171.6 103.7 172.4 101.3 173.1 92.5 176.5 87.85 178.6 83.65 179.65 81.45 179.95 81.15 179.95 81 180"/>
    <path stroke="none" fill="#000000" d="M144.4 126.05 L142.2 125.5 141.35 125.1 138.6 123.45 136.1 121.6 Q135.75 121.25 135.9 120.85 136 120.4 136.5 120.3 L136.95 120.15 136.9 119.8 136.95 118.65 Q137.15 117.7 137.9 117.15 L138.55 116.8 139.7 116.55 Q140.6 116.35 142.65 117.15 L143.8 117.6 145 117.9 145.15 117.9 145.75 117.8 145.9 117.7 146.2 117.45 Q146.6 117.1 147.05 117.1 148.15 117.1 148.4 118.5 L148.45 118.65 148.5 118.75 Q149 119.15 148.75 119.6 L147.45 122.7 146.05 125.2 Q145.35 126.05 144.4 126.05"/>
    <path stroke="none" fill="#000000" d="M136.6 121.8 L136.15 121.7 135.25 121.3 Q134 120.3 133.15 118.35 131.75 114.05 134.5 111.65 134.85 111.35 135.8 111 L136.05 110.9 138.15 110.5 Q139 110.5 139.7 110.85 L139.8 110.9 140.15 110.5 Q141.6 108.65 144.2 108.4 L144.65 108.4 Q148.3 108.4 149.7 113.05 150.2 115.45 149.3 118.5 L149.15 119.05 Q149.05 119.6 148.45 120 L147.6 119.95 147.05 119.15 147 118.95 146.95 118.85 146.95 118.8 146.9 118.8 Q146.35 119.3 145.3 119.4 L144.85 119.4 144.5 119.3 143.35 119.05 142.25 118.6 138.8 118.4 138.4 119 138.4 119.7 Q138.55 121.45 136.75 121.8 L136.6 121.8"/>
    <path stroke="none" fill="url(#gradient0)" d="M139.7 117.35 L140.25 117.25 141.65 117.55 142.95 118.05 143.6 118.3 144.85 118.65 145.15 118.65 146.1 118.5 146.7 118 147.35 117.95 147.7 118.7 148.05 119.35 147.3 121.25 145.2 125 142.5 124.8 141.55 124.35 139 122.8 136.6 121.05 Q137.6 120.85 137.7 120.25 L137.7 118.85 Q137.8 118.2 138.35 117.8 139.15 117.1 139.7 117.35"/>
    <path stroke="none" fill="url(#gradient1)" d="M144.25 109.15 L144.65 109.15 Q147.65 109.15 149 113.3 149.45 115.5 148.55 118.25 L148.4 119.05 148.05 119.35 147.7 118.7 147.35 117.95 146.7 118 146.1 118.5 145.15 118.65 144.85 118.65 143.6 118.3 142.95 118.05 140.65 117.35 Q139.3 117.1 138.35 117.8 137.8 118.2 137.7 118.85 L137.7 120.25 Q137.6 120.85 136.6 121.05 L135.7 120.7 Q134.6 119.85 133.85 118.05 132.6 114.3 134.95 112.2 L136.05 111.7 136.3 111.6 139.2 111.45 139.9 111.7 140.7 111 Q142 109.4 144.25 109.15"/>
    <path stroke="none" fill="#5e251d" d="M136.65 121.05 Q137.65 120.85 137.7 120.25 L137.7 118.85 Q137.8 118.2 138.35 117.8 139.3 117 139.65 117.1 L141.3 117.35 142.95 118.05 143.6 118.3 144.85 118.65 145.15 118.65 146.1 118.5 146.7 118 Q147.4 117.5 147.7 118.7 L147.4 118.9 147.05 119.2 144.55 119.15 142.45 118.15 Q141.2 117.55 140.15 117.65 138.9 117.8 138.5 118.7 138.15 119.4 138.35 120.4 138.7 121.8 137.75 122 L136.65 121.05"/>
    <path stroke="none" fill="#fefefe" d="M134 115 Q134.15 113.65 135.05 113.4 L135.65 113.45 135.95 114.1 Q135.95 114.85 136.75 115.6 137.45 116.25 137.3 116.5 136.8 117.45 136.45 119.3 L136.25 119.95 Q136.05 120.15 135.8 119.95 135 119.15 134.45 117.75 133.9 116.25 134 115"/>
    <path stroke="none" fill="#fefefe" d="M134.75 113.05 Q135.2 112.45 136.15 112 137.2 111.55 138.35 111.6 L137.1 111.9 Q136.6 112.1 136.45 112.5 136.35 112.8 135.85 112.8 135.15 112.8 134.75 113.05"/>
    <path stroke="none" fill="#fefefe" d="M141.15 117 L144.05 117.5 145.1 117.65 145.25 117.8 143.25 117.75 Q141.6 117.05 141.15 117"/>
    <path stroke="none" fill="#fefefe" d="M145.2 118.1 Q145.1 118 145.45 117.85 L145.55 117.95 145.55 118.05 145.5 118.1 145.2 118.1"/>
    <path stroke="none" fill="#fefefe" d="M145.7 118.1 L145.8 117.95 145.85 118 145.8 118.05 145.7 118.1"/>
    <path stroke="none" fill="#fefefe" d="M147.9 118.85 L147.65 117.95 148.25 118.75 148.1 118.95 147.9 118.85"/>
  </g>
</svg>