<?xml version="1.0" encoding="UTF-8" standalone="no"?>
<svg
   xmlns:dc="http://purl.org/dc/elements/1.1/"
   xmlns:cc="http://creativecommons.org/ns#"
   xmlns:rdf="http://www.w3.org/1999/02/22-rdf-syntax-ns#"
   xmlns:svg="http://www.w3.org/2000/svg"
   xmlns="http://www.w3.org/2000/svg"
   viewBox="0 0 248.03751 248.03751"
   height="248.03751"
   width="248.03751"
   xml:space="preserve"
   version="1.1"
   id="svg2"><metadata
     id="metadata8"><rdf:RDF><cc:Work
         rdf:about=""><dc:format>image/svg+xml</dc:format><dc:type
           rdf:resource="http://purl.org/dc/dcmitype/StillImage" /></cc:Work></rdf:RDF></metadata><defs
     id="defs6" /><g
     transform="matrix(1.25,0,0,-1.25,0,248.0375)"
     id="g10"><g
       transform="scale(0.1,0.1)"
       id="g12"><path
         id="path14"
         style="fill:#ca5e6b;fill-opacity:1;fill-rule:evenodd;stroke:none"
         d="m 1082.3,1295.58 c 1.41,1.13 2.81,1.98 4.25,2.83 -1.44,-0.85 -2.84,-1.7 -4.25,-2.83" /><path
         id="path16"
         style="fill:#000000;fill-opacity:1;fill-rule:nonzero;stroke:none"
         d="m 1006.48,1138.91 c 5.25,-31.89 -24.527,-62.29 -50.886,-89.21 -24.867,-25.39 -48.348,-49.36 -36.449,-67.157 1.89,-2.813 3.531,-5.41 5,-7.742 2.058,-3.238 4.55,-7.192 6.019,-8.66 2.16,1.652 6.231,7.281 12.141,16.8 3.64,5.782 6.59,12.129 9.711,18.849 4.871,10.47 9.89,21.3 17.839,30.18 54.825,61.44 77.005,110.44 63.505,139.42 l -26.88,-32.48 z m -76.464,-185.008 -0.012,0 c -6.719,0 -10.391,5.789 -15.918,14.547 -1.422,2.242 -3.012,4.75 -4.832,7.461 -17.277,25.84 9.492,53.18 37.832,82.12 26.258,26.81 53.414,54.54 47.211,81.14 l -0.684,2.88 40.707,49.18 4.54,-6.02 c 25.05,-33.27 4.27,-89.01 -60.126,-161.18 -6.781,-7.56 -11.218,-17.13 -15.929,-27.26 -3.141,-6.758 -6.379,-13.75 -10.399,-20.137 -9.953,-16.031 -15.261,-22.731 -22.39,-22.731" /><path
         id="path18"
         style="fill:#f6d7c4;fill-opacity:1;fill-rule:evenodd;stroke:none"
         d="m 1034.1,1181.63 -34.02,-41.1 c 13.89,-59.53 -115.076,-117.64 -85.889,-161.288 14.461,-21.562 14.18,-30.051 33.172,0.559 9.641,15.308 14.739,34.589 26.93,48.189 25.787,28.92 93.537,108.85 59.807,153.64" /><path
         id="path20"
         style="fill:#fcd01a;fill-opacity:1;fill-rule:evenodd;stroke:none"
         d="m 1451.37,1678.55 c 0,0 15.3,1.7 43.94,-22.39 28.34,-24.11 43.65,-255.7 -66.63,-380.41 -109.98,-124.45 -132.94,-58.96 -167.81,-62.66 -5.38,-0.27 -8.79,-2.27 -12.19,-6.23 -1.98,-1.98 -3.39,-5.95 -6.79,-8.22 -6.53,-4.25 -17.3,-4.53 -23.81,-9.07 -17.01,-11.91 -26.08,-26.93 -14.17,-23.52 3.4,0.84 8.78,2.83 16.14,7.08 0,0 -7.93,-52.15 -55.26,-42.52 0,0 -11.34,-12.75 -33.45,-0.56 0,0 -17.01,-6.53 -39.4,24.93 l 4.24,9.65 12.19,15.87 17.58,13.32 94.39,9.63 4.25,16.73 -2.83,22.39 -15.03,13.89 -14.17,13.9 -17.85,12.19 -19.29,20.68 -11.89,23.54 1.98,11.34 13.04,3.39 1.99,11.34 -3.13,13.05 -8.78,12.75 -11.34,3.97 -14.46,-3.68 -18.42,-6.82 -1.99,-9.34 -1.14,-18.14 -3.11,-18.99 -5.1,-14.75 -9.92,-15.59 c -36.86,62.93 -66.61,133.22 -54.14,187.93 25.5,112.54 138.03,240.66 249.72,279.22 111.98,38.55 162.14,-66.34 172.64,-83.9" /><path
         id="path22"
         style="fill:#000000;fill-opacity:1;fill-rule:evenodd;stroke:none"
         d="m 1449.66,1683.93 c 0,0 1.98,-3.12 2.55,-3.97 3.41,0 18.44,-1.42 43.65,-22.96 9.08,-7.65 16.73,-34.87 19.56,-71.43 7.67,-89.86 -10.48,-225.36 -85.59,-310.4 -83.92,-94.96 -117.37,-80.5 -144.57,-69.16 -8.51,3.68 -15.87,6.8 -24.1,5.95 -6.24,-0.57 -12.76,-4.25 -14.18,-9.92 -1.69,-5.95 -23.8,-10.77 -36.28,-16.44 -3.39,-1.42 -3.97,-4.25 -5.09,-7.09 -0.58,-1.7 -5.68,-9.07 -5.39,-9.64 0,0 0,-0.85 1.41,-0.56 4.83,0.56 15.02,4.53 17.86,5.95 0.29,0 0.85,0 1.41,-0.28 0.29,-0.29 0.58,-0.57 0.29,-1.14 0,-0.56 -1.99,-13.32 -9.64,-24.94 -3.12,-4.54 -7.09,-9.36 -12.47,-12.76 -9.35,-6.52 -20.7,-8.22 -33.73,-5.67 -2.26,-2.26 -13.88,-11.34 -34.29,-0.56 -2.28,-0.85 -18.44,-4.54 -39.7,24.66 l 1.13,2.83 c 21.84,-30.9 38.27,-25.23 38.27,-25.23 0.3,0.29 0.85,0.29 1.15,0 20.96,-11.62 31.45,-0.28 32.03,0.29 0.27,0.28 0.55,0.56 1.12,0.28 12.76,-2.55 23.81,-0.85 32.61,5.39 4.81,3.12 8.79,7.65 11.61,12.19 5.67,8.5 8.22,17.57 9.07,21.82 -5.95,-3.4 -9.63,-3.97 -11.62,-4.53 -4.81,-1.42 -8.5,-1.99 -8.79,0.56 0,0.57 0.29,2.84 0.85,4.26 0.58,0.56 2.56,7.65 4.27,9.63 1.12,1.7 2.55,-1.7 3.1,-0.85 2.27,3.69 3.12,6.24 6.53,9.07 3.11,2.84 6.51,3.12 10.78,4.26 9.34,2.83 19.54,4.25 20.97,9.07 1.69,6.8 9.35,11.05 16.43,11.9 8.79,0.85 16.73,-2.55 25.52,-6.23 26.07,-11.06 58.96,-24.95 141.44,68.31 74.85,84.76 92.7,219.4 85.34,308.69 -3.13,36 -10.22,62.65 -18.72,70.02 -27.5,23.24 -42.81,22.11 -42.81,22.11 -0.55,0 -1.13,0.28 -1.13,0.57 l -2.82,4.82 c -43.37,75.68 -100.08,102.04 -168.38,78.52 -109.43,-37.7 -223.38,-165.26 -249.17,-278.37 -12.2,-54.42 17.28,-123.87 53.86,-186.52 l -1.7,-2.26 c -36.86,63.21 -67.19,134.08 -54.44,189.35 25.8,113.95 140.61,242.08 250.59,280.06 69.74,24.1 127.27,-2.55 171.21,-79.65" /><path
         id="path24"
         style="fill:#f6d7c4;fill-opacity:1;fill-rule:evenodd;stroke:none"
         d="m 1326.07,1373.54 c 0,0 18.13,5.39 22.11,-9.93 3.96,-15.59 -31.18,-30.9 -44.8,-19.84 -13.59,10.78 22.69,29.77 22.69,29.77" /><path
         id="path26"
         style="fill:#000000;fill-opacity:1;fill-rule:evenodd;stroke:none"
         d="m 1336.85,1347.46 c 7.65,4.82 11.34,10.49 10.2,15.86 -1.14,3.7 -3.11,6.53 -5.95,7.95 -5.96,3.4 -14.17,1.12 -14.74,1.12 -5.38,-2.82 -18.15,-10.76 -22.97,-18.13 -0.85,-1.41 -1.7,-3.12 -1.7,-4.53 -0.28,-2 0.58,-3.69 2.54,-5.1 7.39,-6.24 22.41,-3.42 32.62,2.83 m 12.47,16.43 c 1.7,-6.23 -2.55,-13.32 -11.05,-18.41 -10.79,-6.52 -26.95,-9.64 -35.73,-2.84 -2.56,2.27 -3.67,4.54 -3.4,7.37 1.14,11.06 25.24,24.1 26.09,24.66 l 0.28,0 c 0.56,0.29 9.63,2.84 16.72,-1.13 3.68,-1.99 5.96,-5.4 7.09,-9.65" /><path
         id="path28"
         style="fill:#000000;fill-opacity:1;fill-rule:evenodd;stroke:none"
         d="m 1103.55,1173.98 c 3.97,-17.02 13.04,-32.32 28.36,-42.8 0.55,-0.57 0.84,-1.14 0.27,-1.7 -0.27,-0.57 -1.13,-0.85 -1.7,-0.3 -15.3,10.5 -24.66,25.23 -29.21,41.96 l 2.28,2.84 z m 365.95,422.36 c 10.2,-23.82 13.04,-71.71 -32.32,-166.11 -78.5,-162.43 -96.93,-161.87 -130.66,-160.44 l -8.22,0.28 c -29.5,1.13 -62.37,2.56 -81.64,-22.68 l -1.71,1.41 c 20.12,26.38 54.71,24.95 83.62,23.54 l 7.95,-0.29 c 32.59,-1.14 50.73,-1.98 128.41,159.31 45.07,93.55 42.52,140.59 32.3,163.84 -7.64,17.3 -19.55,21.55 -19.84,21.55 -0.57,0.29 -0.84,1.14 -0.84,1.7 0.27,0.57 0.84,0.85 1.7,0.57 0.55,0 13.02,-4.54 21.25,-22.68" /><path
         id="path30"
         style="fill:#000000;fill-opacity:1;fill-rule:evenodd;stroke:none"
         d="m 1318.42,1287.93 c 12.76,19.84 6.8,46.77 -13.61,59.81 -20.41,13.04 -47.33,7.65 -60.37,-12.19 -13.04,-19.56 -7.09,-46.49 13.32,-59.53 20.41,-13.32 47.62,-7.93 60.66,11.91 m 1.98,-1.42 c -13.89,-20.69 -42.52,-26.36 -64.06,-12.47 -21.26,13.89 -27.78,41.95 -14.17,62.93 13.89,20.98 42.52,26.65 64.06,12.76 21.54,-13.89 27.78,-42.24 14.17,-63.22" /><path
         id="path32"
         style="fill:#f6d7c4;fill-opacity:1;fill-rule:evenodd;stroke:none"
         d="m 1374.54,1565.72 c -20.13,2.27 -30.9,28.35 -30.9,28.35 -14.45,0.28 -25.51,15.02 -25.51,15.02 -17.56,-9.92 -40.25,9.64 -40.25,9.64 -18.13,-0.85 -53.57,9.64 -79.94,11.34 -26.36,1.98 -80.5,15.02 -120.74,-64.35 -39.97,-79.09 -65.78,-262.2 -90.157,-284.6 -8.5,-7.65 -22.391,-17.29 -36.852,-26.93 l 20.981,-5.95 20.687,-2.55 12.481,1.42 c 8.78,5.1 15.02,8.5 15.02,8.5 -0.28,-2.27 -0.28,-4.25 -0.28,-6.24 l 15.87,7.09 15.6,7.09 17.56,15.02 13.33,14.17 11.63,18.15 5.09,14.74 3.12,18.99 1.13,18.14 c -2.25,-11.06 -14.17,-36.85 -13.32,-50.74 0,-0.85 -4.25,-2.27 -3.96,-3.12 1.41,-12.19 18.13,-13.04 17.86,-4.25 0,7.09 -1.43,29.2 17.58,42.24 1.4,1.13 12.47,-22.11 26.06,-20.7 23.82,2.84 54.15,-17.29 62.93,-20.12 44.22,-14.74 75.41,3.68 84.77,19.56 23.24,40.53 61.78,56.4 73.7,61.22 17.57,7.37 17.57,15.59 23.8,24.38 0,0 15.59,104.6 -17.29,154.49" /><path
         id="path34"
         style="fill:#000000;fill-opacity:1;fill-rule:evenodd;stroke:none"
         d="m 1174.41,1282.83 0.58,-0.28 -0.29,0 -0.29,0.28 z m -22.37,42.8 c 9.62,3.12 26.05,-4.53 47.04,-13.32 5.39,-2.27 11.35,-6.52 17.28,-8.5 42.82,-14.46 66.91,7.08 76.25,21.54 0.3,0.28 0.3,0.57 0.57,0.85 1.14,2.27 2.56,4.25 3.97,6.52 15.87,24.09 39.41,42.8 70.31,55.28 9.65,3.96 13.88,8.22 16.72,12.75 0.86,1.42 1.7,2.84 2.54,4.54 0,0 4.55,5.67 5.11,5.38 0.3,-0.28 -2.84,-6.8 -2.84,-6.8 -0.85,-1.42 -1.7,-3.12 -2.81,-4.54 -3.14,-4.81 -7.68,-9.35 -17.87,-13.6 -30.34,-12.19 -53.59,-30.62 -69.17,-54.43 -1.42,-1.98 -2.55,-4.25 -3.96,-6.52 0,-0.28 -0.29,-0.56 -0.57,-0.85 -9.93,-15.3 -34.88,-37.13 -78.8,-22.39 -31.18,10.49 -53.59,25.23 -64.36,20.98 l 0.59,3.11 z m -150.82,-78.8 c 9.64,5.39 16.73,9.35 17.57,9.64 0.29,0.28 0.85,0.28 1.14,0 0.56,-0.29 0.56,-0.57 0.56,-1.14 0,-1.7 -0.28,-3.68 -0.28,-5.38 l -2.26,-1.14 c 0,1.7 0,3.12 0.28,4.54 -2.28,-1.13 -5.96,-3.12 -10.77,-5.95 l -6.24,-0.57 z m 74.83,319.46 c 37.13,73.14 85.61,68.6 114.52,65.77 l 7.38,-0.57 c 0.84,-0.28 1.69,-0.28 2.54,-0.28 -0.28,-0.85 -0.85,-1.7 -1.41,-2.27 l -1.13,0 -7.66,0.57 c -25.52,2.55 -67.18,6.52 -101.49,-46.21 -3.67,-5.38 -7.08,-11.34 -10.47,-18.14 -20.4,-40.25 -37.13,-107.43 -51.61,-166.68 -12.75,-51.59 -24.09,-96.66 -35.126,-113.67 -1.141,-1.7 -2.571,-3.4 -3.692,-4.53 -8.226,-7.65 -21.828,-17.01 -36.289,-26.65 l -2.828,0.85 c 14.731,9.92 28.918,19.85 37.41,27.5 11.629,10.77 23.825,60.09 37.985,117.07 14.73,59.53 31.46,126.99 51.87,167.24" /><path
         id="path36"
         style="fill:#000000;fill-opacity:1;fill-rule:nonzero;stroke:none"
         d="m 725.035,1282.45 c -61.941,0 -129.582,-13.72 -195,-26.99 -38.332,-7.77 -77.949,-15.8 -116.191,-21.05 -83.719,-11.4 -125.86,-46.06 -121.871,-100.24 9.261,-119.82 205.062,-288.033 339.402,-292.354 0.898,9.258 -8.883,41.399 -15.512,63.129 -7.687,25.282 -14.328,47.102 -14.328,57.852 0,84.253 127.438,158.203 204.469,158.203 l 2.289,-0.02 c 21.711,-0.47 48.82,-9.41 75.051,-18.05 21.922,-7.22 42.629,-14.05 55.379,-14.05 3.769,0 6.562,0.63 8.09,1.8 0.542,0.42 1.972,1.52 1.972,5.62 l 0.039,8.84 c 0.231,30.96 0.61,82.77 -22.129,90.72 l -1.543,0.53 -1.047,1.25 c -48.882,57.86 -112.14,84.81 -199.07,84.81 m -91.402,-452.602 -0.168,0.007 c -138.942,2.54 -343.692,178.355 -353.36,303.415 -2.589,35.12 11.137,96.46 132.118,112.94 37.863,5.18 77.3,13.18 115.441,20.92 65.988,13.39 134.231,27.22 197.371,27.22 90.11,0 155.988,-27.93 207.168,-87.87 29.18,-12.06 28.789,-65.71 28.52,-101.43 l -0.039,-8.75 c 0,-6.6 -2.219,-11.67 -6.598,-15.05 -3.731,-2.88 -8.762,-4.27 -15.363,-4.27 -14.66,0 -36.25,7.11 -59.11,14.64 -25.398,8.36 -51.648,17.02 -71.558,17.45 l -2.051,0.02 c -72.551,0 -192.559,-68.38 -192.559,-146.293 0,-8.973 7.02,-32.051 13.821,-54.371 13.976,-45.949 19.476,-66.918 13.507,-74.981 -1.718,-2.32 -4.25,-3.597 -7.14,-3.597" /><path
         id="path38"
         style="fill:#8f4b61;fill-opacity:1;fill-rule:evenodd;stroke:none"
         d="m 928.652,1201.48 c -128.129,151.65 -331.648,64.06 -515.621,38.82 -91.558,-12.46 -130.961,-52.71 -126.988,-106.57 9.348,-121.05 208.34,-295.386 347.52,-297.925 16.16,-0.282 -26.083,102.601 -26.083,126.992 0,82.493 127,153.633 200.704,152.223 52.718,-1.13 146.546,-56.97 146.546,-18.72 0,32.9 3.122,94.97 -26.078,105.18" /><path
         id="path40"
         style="fill:#f1c3c1;fill-opacity:1;fill-rule:evenodd;stroke:none"
         d="m 674.949,783.074 c 2.832,-20.679 6.524,-42.238 11.91,-63.777 24.942,-102.609 44.223,-281.473 -8.789,-348.66 -53.007,-66.903 -86.738,-160.442 -92.41,-160.16 -5.668,0 -20.129,-1.411 -14.461,31.75 5.672,33.16 22.403,138.058 41.672,187.371 19.281,49.609 63.5,87.308 63.5,114.238 0,26.941 -54.141,117.629 -107.719,197.57 -34.011,50.739 -52.441,87.309 -61.511,107.43 70.871,-55.84 118.769,-70.012 167.808,-65.762" /><path
         id="path42"
         style="fill:#ecacbe;fill-opacity:1;fill-rule:evenodd;stroke:none"
         d="m 674.949,783.074 c 2.832,-20.679 6.524,-42.238 11.91,-63.777 2.551,-10.192 4.813,-21.262 7.082,-32.879 -44.789,8.219 -92.691,35.156 -129.539,62.648 -33.453,50.461 -48.191,79.93 -57.261,99.77 70.871,-55.84 118.769,-70.012 167.808,-65.762" /><path
         id="path44"
         style="fill:#000000;fill-opacity:1;fill-rule:evenodd;stroke:none"
         d="m 511.113,843.738 c 10.489,-21.828 28.629,-55.84 58.961,-101.468 25.231,-37.711 108,-164.141 108,-198.442 0,-14.449 -12.472,-32.027 -26.652,-52.148 -13.027,-18.43 -27.77,-39.121 -37.129,-62.649 -17.859,-45.922 -33.449,-139.75 -40.25,-179.722 l -1.422,-7.368 c -0.848,-4.812 -1.129,-9.351 -1.129,-13.031 0,-6.23 1.129,-10.781 3.403,-13.609 3.117,-3.121 7.089,-3.403 9.918,-3.403 l 0.851,0 c 1.418,1.133 7.09,13.043 13.891,27.211 15.59,32.879 42.238,88.442 77.097,132.661 24.661,30.91 33.45,86.171 33.45,147.121 0,69.16 -11.34,145.129 -24.938,199.839 -4.543,19.559 -8.512,39.969 -11.621,62.649 -52.449,-3.969 -100.07,14.449 -162.43,62.359 m -3.121,6.524 c 64.629,-51.313 113.102,-70.301 166.68,-65.762 0.851,0.281 1.699,-0.559 1.699,-1.422 3.402,-22.957 7.371,-43.937 11.91,-63.5 25.512,-104.027 43.934,-283.18 -9.078,-349.789 -34.582,-43.937 -61.219,-99.219 -76.808,-132.09 -11.633,-24.097 -14.18,-28.918 -16.731,-28.918 -3.973,0 -9.351,0 -13.043,4.528 -4.527,5.39 -5.379,14.742 -3.117,29.203 l 1.418,7.367 c 6.519,40.25 22.391,134.082 40.543,180.301 9.348,23.8 24.09,44.769 37.129,63.199 14.168,19.84 26.078,36.851 26.078,50.449 0,26.652 -55.277,119.063 -107.149,196.731 -33.449,49.89 -52.16,86.171 -62.082,107.722 -0.277,0.559 0,1.41 0.571,1.981 0.562,0.277 1.41,0.277 1.98,0" /><path
         id="path46"
         style="fill:#f6d7c4;fill-opacity:1;fill-rule:evenodd;stroke:none"
         d="m 442.227,995.68 c 10.492,72.57 37.699,102.61 37.699,102.61 56.691,49.61 157.32,-85.04 173.48,-133.802 12.473,-38.539 10.77,-104.871 21.539,-181.41 -49.027,-4.25 -96.937,9.922 -167.808,65.77 -5.379,11.621 -7.649,17.851 -7.649,17.851 0,0 -67.75,56.41 -57.261,128.981" /><path
         id="path48"
         style="fill:#eeceb8;fill-opacity:1;fill-rule:evenodd;stroke:none"
         d="m 547.676,860.469 c -5.102,-11.051 -8.219,-22.391 -9.918,-34.02 -9.922,6.52 -20.133,13.879 -30.621,22.399 -5.379,11.621 -7.653,17.863 -7.653,17.863 0,0 -24.379,20.406 -41.668,52.43 23.25,-28.352 51.032,-54.422 89.86,-58.672" /><path
         id="path50"
         style="fill:#eeceb8;fill-opacity:1;fill-rule:evenodd;stroke:none"
         d="m 524.148,1106.52 c 54.141,-15.88 116.793,-104.61 129.262,-142.028 12.469,-38.558 10.77,-104.879 21.539,-181.41 -20.969,-1.699 -41.949,-0.289 -64.34,6.523 7.082,24.938 6.231,50.739 -4.82,69.727 -41.098,78.231 -97.801,156.468 -81.641,247.188" /><path
         id="path52"
         style="fill:#000000;fill-opacity:1;fill-rule:evenodd;stroke:none"
         d="m 664.465,871.809 c -2.832,37.418 -5.391,69.726 -12.762,92.129 -13.039,39.682 -76.531,126.702 -128.969,141.442 -16.16,4.54 -30.332,1.71 -41.961,-8.22 0,-0.28 -26.64,-30.61 -36.851,-101.762 -0.848,-4.82 -1.129,-9.921 -1.129,-14.742 0,-63.777 57.262,-112.25 57.828,-112.82 0.281,-0.277 0.281,-0.57 0.563,-0.848 0,0 6.808,-16.441 7.089,-17.019 64.059,-50.453 111.969,-69.442 164.692,-65.473 -4.25,31.18 -6.524,60.942 -8.5,87.313 M 523.582,1108.5 c 53.57,-15.02 117.922,-103.46 131.242,-143.715 7.66,-22.687 9.918,-55 12.758,-92.707 1.981,-26.64 4.531,-56.961 8.789,-88.992 0.281,-0.289 0,-0.848 -0.289,-1.141 -0.277,-0.289 -0.57,-0.566 -1.129,-0.566 -54.43,-4.531 -103.469,14.738 -168.949,66.34 -0.281,0.277 -0.281,0.277 -0.563,0.547 0,0 -6.808,16.453 -7.089,17.3 -3.399,3.122 -58.68,51.59 -58.68,115.09 0,5.102 0.293,10.211 1.141,15.313 10.199,72.281 36.558,102.331 37.699,103.461 12.472,10.77 27.781,13.89 45.07,9.07" /><path
         id="path54"
         style="fill:#bb5f75;fill-opacity:1;fill-rule:evenodd;stroke:none"
         d="m 673.535,793.563 c 0.852,-7.938 1.981,-15.868 3.399,-24.09 -47.047,-4.528 -93.258,7.652 -159.309,57.55 -10.48,20.68 -15.59,33.442 -17.289,37.981 73.988,-60.102 123.309,-75.399 173.199,-71.441" /><path
         id="path56"
         style="fill:#000000;fill-opacity:1;fill-rule:evenodd;stroke:none"
         d="m 504.023,860.188 c 2.551,-6.52 7.372,-17.293 15.02,-32.614 59.25,-44.219 104.891,-60.929 155.91,-56.687 -0.281,2.84 -2.551,18.418 -2.84,20.988 -53.57,-3.687 -102.89,16.141 -168.09,68.313 m -2.832,5.949 c 67.743,-54.711 117.352,-75.403 172.063,-71.16 0.848,0 1.699,-0.551 1.699,-1.403 l 3.399,-23.828 c 0.281,-0.558 0,-0.851 -0.278,-1.121 -0.293,-0.289 -0.57,-0.578 -0.851,-0.578 -53.008,-5.102 -99.5,11.629 -160.442,57.828 -11.058,20.992 -16.449,34.031 -18.148,38.563 0,0.558 0,1.41 0.57,1.699 0.57,0.558 1.418,0.289 1.988,0" /><path
         id="path58"
         style="fill:#f1c3c1;fill-opacity:1;fill-rule:evenodd;stroke:none"
         d="m 481.914,1100.84 c 0,0 -16.16,-16.16 -16.719,-25.79 -0.851,-9.35 3.957,-15.03 3.957,-15.03 0,0 -10.476,-21.82 6.243,-27.77 0,0 -10.2,-22.68 13.039,-27.21 0,0 -6.52,-17.864 11.621,-24.106 0,0 -5.379,-26.637 22.679,-27.778 0,0 -5.949,-9.359 -1.129,-18.422 4.809,-9.07 21.54,-7.937 21.54,-7.937 0,0 0.281,-30.332 26.64,-22.391 0,0 8.508,-14.461 25.801,-17.582 17.008,-2.828 29.477,5.961 29.477,14.18 0,8.5 -118.208,212.886 -143.149,199.836" /><path
         id="path60"
         style="fill:#000000;fill-opacity:1;fill-rule:evenodd;stroke:none"
         d="m 618.832,893.066 c 2.832,2.551 4.531,5.379 4.531,8.219 -0.851,8.5 -98.082,177.735 -133.789,197.005 -2.84,1.69 -5.109,1.99 -6.812,1.42 -1.129,-1.42 -15.297,-16.16 -16.16,-24.66 l 0,-1.98 c 0,-7.38 3.691,-11.91 3.691,-11.91 0.281,-0.28 0.281,-0.86 0.281,-1.13 l 0,-0.57 c 0,-0.28 -3.109,-6.52 -3.109,-13.04 0,-2.28 0.277,-4.25 1.129,-6.24 1.418,-3.11 3.679,-5.11 7.371,-6.52 0.566,0 0.848,-0.28 1.129,-0.86 l 0,-1.12 c -0.281,0 -2.262,-4.82 -2.262,-10.22 0,-2.54 0.281,-5.09 1.699,-7.36 1.981,-3.68 5.953,-6.23 12.184,-7.37 0.289,0 0.859,-0.28 1.137,-0.85 l 0,-1.13 c 0,-0.29 -0.848,-3.12 -0.848,-6.805 0,-2.269 0.277,-5.109 1.418,-7.371 1.98,-3.687 5.383,-6.508 10.199,-8.219 0.57,0 1.133,-0.847 1.133,-1.417 l 0,-0.282 c 0,0 -0.281,-1.98 -0.281,-4.82 0,-3.969 0.57,-9.641 4.25,-14.18 3.398,-4.238 9.359,-6.519 17.011,-7.082 0.571,0 1.129,-0.289 1.418,-0.847 l 0,-1.422 c -0.289,0 -2.839,-4.539 -2.839,-9.91 0,-2.278 0.57,-4.54 1.699,-7.09 4.261,-7.95 19.562,-6.809 19.851,-6.809 0.559,0 0.852,0 1.129,-0.289 0.571,-0.562 0.571,-0.852 0.571,-1.41 0,0 0.281,-13.891 8.5,-19.563 3.968,-3.117 9.64,-3.398 16.16,-1.418 0.851,0.282 1.699,0 1.98,-0.851 0,0 8.512,-13.61 24.66,-16.438 8.789,-1.703 17.578,0 22.969,4.539 M 492.121,1100.55 c 37.703,-22.67 134.363,-191.882 134.363,-199.554 0,-3.68 -1.992,-7.359 -5.39,-10.199 -6.231,-5.109 -15.871,-7.09 -25.789,-5.391 -16.16,2.852 -24.66,14.461 -26.364,17.289 -7.089,-1.968 -13.039,-1.41 -17.859,1.993 -7.937,5.667 -9.359,17.007 -9.641,20.687 -3.687,-0.277 -16.726,0 -21.257,8.5 -1.7,3.133 -1.981,5.961 -1.981,8.52 0,4.242 1.129,7.64 1.981,9.632 -7.371,0.848 -13.321,3.11 -17.012,7.93 -4.25,5.109 -5.098,11.34 -5.098,15.879 0,1.988 0.278,3.398 0.278,4.25 -4.821,1.98 -8.778,4.832 -10.77,9.07 -1.418,3.121 -1.98,6.239 -1.98,8.789 0,2.835 0.562,4.825 0.851,6.235 -5.961,1.42 -10.488,4.26 -12.762,8.51 -1.699,2.83 -1.976,5.95 -1.976,8.77 0,4.27 1.129,8.24 1.699,10.22 -3.402,1.7 -6.242,3.96 -7.66,7.37 -1.133,2.27 -1.41,4.82 -1.41,7.37 0,5.95 1.98,11.62 2.828,13.61 -1.129,1.41 -3.68,5.95 -3.68,13.04 l 0,2.25 c 0.852,9.93 16.723,26.09 17.289,26.66 0,0.28 0.282,0.28 0.282,0.28 2.839,1.42 6.519,0.85 11.058,-1.71" /><path
         id="path62"
         style="fill:#fdfdfd;fill-opacity:1;fill-rule:evenodd;stroke:none"
         d="m 734.766,1226.42 c -129.539,1.42 -216.282,-64.63 -254.828,-128.13 0,0 -24.672,-129.263 157.32,-215.716 182.269,-86.738 312.937,44.5 312.937,119.346 0,74.83 -90.711,223.08 -215.429,224.5" /><path
         id="path64"
         style="fill:#eba8bc;fill-opacity:1;fill-rule:evenodd;stroke:none"
         d="m 835.395,1192.12 c -61.508,-8.79 -119.618,-53.29 -175.75,-78.24 -17.86,-8.5 -40.25,-8.22 -53.86,0.85 -26.64,16.16 -55.269,27.78 -84.187,34.3 46.777,43.66 118.777,78.24 213.168,77.39 37.129,-0.57 71.148,-13.89 100.629,-34.3" /><path
         id="path66"
         style="fill:#000000;fill-opacity:1;fill-rule:evenodd;stroke:none"
         d="m 866.859,886.262 c 48.192,29.476 81.641,76.816 81.641,115.648 0,40.26 -27.5,108 -80.219,160.44 -28.07,28.07 -74.269,61.8 -133.511,62.37 -129.258,1.41 -215.719,-64.92 -253.711,-127.28 0,-0.57 -21.821,-128.409 157.043,-213.452 109.699,-52.437 190.488,-20.968 228.757,2.274 m 3.68,278.358 c 53.301,-53.01 81.359,-121.89 81.359,-162.71 0,-39.961 -34.296,-88.441 -83.058,-118.199 -39.11,-23.813 -121.039,-55.563 -232.149,-2.551 -181.14,86.168 -158.742,216.28 -158.461,217.42 38.551,63.77 125.86,130.67 256.54,129.26 60.371,-0.57 107.152,-34.87 135.769,-63.22" /><path
         id="path68"
         style="fill:#f6d7c4;fill-opacity:1;fill-rule:evenodd;stroke:none"
         d="m 732.211,794.133 c -30.051,-7.942 -56.688,-13.32 -84.469,-11.344 -7.09,38.844 -11.91,74.551 -10.488,99.793 5.387,86.16 56.687,127.268 116.789,155.908 60.09,28.34 169.23,31.46 196.148,-36.58 0,0 -4.25,-89.578 -64.628,-217.129 -12.469,15.02 -29.192,35.719 -32.309,44.508 -5.391,15.024 -37.981,-12.469 -121.043,-35.156" /><path
         id="path70"
         style="fill:#eeceb8;fill-opacity:1;fill-rule:evenodd;stroke:none"
         d="m 647.738,782.793 c -7.09,38.828 -11.91,74.551 -10.488,99.789 15.027,-19.57 42.809,-20.699 67.18,-24.961 -40.532,-11.047 -40.532,-41.098 -36.282,-75.098 -6.8,-0.3 -13.609,-0.3 -20.41,0.27" /><path
         id="path72"
         style="fill:#000000;fill-opacity:1;fill-rule:evenodd;stroke:none"
         d="m 948.496,1002.2 c -7.941,19.56 -23.531,34.3 -46.769,43.65 -45.641,18.15 -108.571,9.36 -146.84,-9.07 -51.02,-24.09 -110.262,-63.214 -115.93,-154.495 -0.289,-3.109 -0.289,-6.226 -0.289,-9.918 0,-20.969 3.398,-50.172 10.488,-88.148 29.199,-1.711 56.981,4.527 82.489,11.617 37.132,9.922 63.781,20.973 83.339,28.91 19.274,7.942 29.762,12.192 35.711,9.641 1.993,-0.852 3.121,-2.27 3.973,-4.539 2.27,-6.52 13.328,-21.539 30.617,-41.95 58.391,124.438 63.211,213.172 63.211,214.302 m -45.641,46.49 c 24.102,-9.36 40.54,-24.95 48.762,-46.21 0,-1.41 -4.82,-92.125 -64.351,-218.261 -0.282,-0.571 -0.848,-0.852 -1.418,-0.852 -0.563,-0.289 -1.133,0 -1.41,0.559 -13.043,15.312 -29.481,35.722 -32.883,44.793 -0.289,1.418 -1.137,2.269 -2.27,2.828 -4.539,1.988 -15.879,-2.551 -32.879,-9.629 -19.558,-7.941 -46.488,-19 -83.91,-29.199 -26.359,-7.09 -54.711,-13.614 -84.762,-11.621 -0.847,0 -1.41,0.558 -1.41,1.41 -8.508,45.078 -11.906,77.961 -10.488,100.07 5.672,92.688 65.762,132.662 117.641,157.322 38.828,18.43 102.89,27.5 149.378,8.79" /><path
         id="path74"
         style="fill:#f1c3c1;fill-opacity:1;fill-rule:evenodd;stroke:none"
         d="m 647.738,782.793 c 27.782,-1.969 54.43,3.398 84.473,11.352 83.059,22.668 115.656,50.16 121.039,35.136 3.117,-8.777 19.84,-29.476 32.32,-44.508 -0.293,-0.55 -0.57,-1.128 -0.851,-1.98 -60.949,-128.41 -84.481,-197.57 -85.61,-240.648 -1.129,-43.372 -9.64,-54.723 -18.14,-68.321 -8.789,-13.32 -43.09,-142.582 -51.59,-208.64 -8.512,-66.332 -21.262,-94.379 -32.031,-50.161 -10.778,44.489 -16.16,120.469 -22.68,190.2 -6.238,69.73 5.391,108.57 16.16,143.148 7.652,24.66 -25.23,139.192 -43.09,234.422" /><path
         id="path76"
         style="fill:#ecacbe;fill-opacity:1;fill-rule:evenodd;stroke:none"
         d="m 781.539,736.875 c -52.723,-43.371 -112.25,-54.711 -113.391,-50.461 -7.082,31.75 -14.449,64.922 -20.41,96.383 27.782,-1.981 54.43,3.398 84.481,11.34 83.051,22.679 115.648,50.168 121.039,35.148 3.109,-8.789 19.84,-29.48 32.308,-44.5 -0.277,-0.57 -0.57,-1.14 -0.847,-1.988 -12.473,-26.363 -23.531,-50.461 -33.16,-72.281 -8.789,15.871 -22.961,37.98 -28.071,53.57 -17.57,-4.531 -28.629,-16.441 -41.949,-27.211" /><path
         id="path78"
         style="fill:#000000;fill-opacity:1;fill-rule:evenodd;stroke:none"
         d="m 851.547,828.711 c -0.277,1.43 -1.129,2.281 -2.27,2.84 -4.531,1.98 -15.871,-2.551 -32.879,-9.641 -19.558,-7.937 -46.492,-18.98 -83.902,-29.199 -25.519,-7.078 -53.578,-13.32 -82.777,-11.621 6.238,-32.59 13.89,-66.61 21.258,-99.77 11.91,-52.73 22.679,-99.789 22.679,-123.027 0,-4.262 -0.566,-7.941 -1.129,-10.492 -8.507,-27.211 -17.859,-57.539 -17.859,-104.602 0,-11.617 0.57,-24.09 1.699,-37.687 l 3.121,-35.43 c 5.102,-57.832 10.489,-117.652 19.27,-154.5 4.539,-18.992 8.512,-20.41 9.64,-20.41 4.821,0.289 12.758,18.719 19.559,70.308 8.5,65.481 42.242,194.731 51.59,209.192 l 1.133,1.98 c 8.226,12.75 15.879,24.668 16.726,65.489 1.133,45.07 26.934,117.07 85.891,241.5 l 0.57,0.851 c -13.039,15.598 -28.918,35.43 -32.32,44.219 m -0.848,5.672 c 1.981,-0.852 3.117,-2.262 3.969,-4.531 2.551,-6.801 13.891,-22.403 32.309,-43.93 0.293,-0.582 0.293,-1.141 0.293,-1.699 l -1.141,-1.993 C 827.457,658.359 801.656,586.359 800.809,542.141 799.68,500.473 791.738,488 783.52,474.949 l -1.422,-1.976 c -7.93,-12.473 -42.231,-140.602 -51.02,-208.071 -4.25,-33.152 -11.621,-72.57 -22.398,-72.851 -5.102,-0.27 -9.071,7.09 -13.032,22.691 -8.789,37.117 -14.179,97.219 -19.281,155.34 l -3.121,35.141 c -6.519,70.578 5.391,109.418 16.16,143.707 4.821,15.59 -7.367,69.461 -21.539,131.812 -7.66,33.738 -15.59,68.598 -21.551,101.778 -0.277,0.562 0,0.851 0.293,1.402 0.278,0.301 0.848,0.57 1.129,0.301 29.758,-1.993 57.828,4.519 83.91,11.617 37.129,9.91 63.782,20.98 83.329,28.91 19.281,7.93 29.769,12.18 35.722,9.633" /><path
         id="path80"
         style="fill:#000000;fill-opacity:1;fill-rule:evenodd;stroke:none"
         d="m 638.383,883.43 c 0.281,-0.282 35.152,-35.434 87.312,-15.024 0.848,0.563 1.7,0 1.981,-0.847 0.277,-0.852 0,-1.7 -0.852,-1.993 -54.14,-21.257 -90.422,15.313 -90.711,15.883 -0.558,0.547 -0.558,1.699 0,2.25 0.571,0.578 1.7,0.578 2.27,-0.269" /><path
         id="path82"
         style="fill:#bb5f75;fill-opacity:1;fill-rule:evenodd;stroke:none"
         d="m 839.648,834.102 c 0,0 56.129,111.968 37.7,219.688 l 16.16,-0.86 c 0,0 17.57,-133.207 -42.801,-224.489" /><path
         id="path84"
         style="fill:#000000;fill-opacity:1;fill-rule:evenodd;stroke:none"
         d="m 879.047,1052.09 c 2.551,-14.46 3.402,-28.91 3.402,-43.38 0,-85.026 -35.429,-162.983 -40.82,-174.046 1.988,-0.848 6.809,-3.398 8.508,-4.25 37.133,56.981 43.929,130.68 43.929,177.446 0,22.69 -1.699,39.12 -2.257,43.37 -1.993,0.29 -9.93,0.86 -12.762,0.86 m -1.699,3.39 16.16,-1.12 c 0.851,0 1.41,-0.57 1.41,-1.43 0.289,-1.13 17.012,-134.633 -42.801,-225.344 -0.57,-0.852 -1.418,-1.141 -1.98,-0.563 l -11.34,5.661 c -0.848,0.281 -1.141,1.429 -0.848,1.98 0.559,1.152 55.84,112.832 37.699,219.126 0,0.28 0,0.85 0.571,1.12 0.277,0.57 0.558,0.57 1.129,0.57" /><path
         id="path86"
         style="fill:#bb5f75;fill-opacity:1;fill-rule:evenodd;stroke:none"
         d="m 732.211,780.527 c -28.91,-7.941 -54.988,-13.039 -81.641,-11.621 -1.699,8.223 -3.398,16.442 -4.816,24.66 28.629,-2.55 55.848,2.832 86.457,11.051 83.062,22.68 115.652,50.18 121.043,35.149 3.398,-9.629 22.68,-33.161 35.719,-48.188 -1.422,-2.832 -2.84,-5.66 -4.262,-8.769 -1.41,-2.852 -2.551,-5.68 -3.957,-8.801 -14.184,14.738 -30.902,33.449 -34.024,41.668 -5.386,15.019 -31.457,-12.469 -114.519,-35.149" /><path
         id="path88"
         style="fill:#000000;fill-opacity:1;fill-rule:evenodd;stroke:none"
         d="m 851.559,839.48 c -0.289,1.141 -1.141,1.993 -2.27,2.551 -4.543,1.992 -15.883,-2.551 -32.883,-9.629 -19.558,-7.941 -46.488,-18.992 -83.91,-29.199 -26.359,-7.09 -54.707,-13.601 -84.758,-11.34 0.571,-3.113 3.692,-19.269 3.969,-21.543 28.352,-1.129 54.992,4.821 79.941,11.621 39.399,10.77 66.051,22.692 83.622,30.622 15.308,6.8 23.808,10.48 28.918,8.5 1.98,-0.852 3.109,-2.551 3.96,-4.813 2.27,-6.238 13.61,-19.848 32.04,-39.406 0.281,0.558 3.109,6.797 3.109,6.797 0,0 2.84,5.672 3.691,7.66 -14.461,17.012 -32.031,38.543 -35.429,48.179 m -0.86,5.391 c 1.989,-0.848 3.117,-2.269 3.969,-4.539 2.551,-7.082 15.309,-24.082 35.441,-47.621 0.278,-0.559 0.559,-1.129 0.278,-1.699 l -4.25,-8.789 -3.969,-8.782 c -0.281,-0.57 -0.852,-0.847 -1.129,-0.847 -0.57,-0.293 -1.141,0 -1.711,0.277 -20.121,21.27 -31.461,35.442 -34.012,42.531 -0.847,1.7 -1.699,2.258 -2.269,2.551 -3.969,1.699 -12.75,-2.281 -26.359,-8.23 -17.579,-7.942 -44.5,-19.84 -84.192,-30.621 -25.508,-7.079 -53.008,-13.321 -82.199,-11.899 -0.57,0 -1.418,0.57 -1.418,1.418 l -4.539,24.66 c -0.281,0.282 0,0.86 0.289,1.129 0.277,0.582 0.848,0.582 1.41,0.582 30.051,-2.281 58.957,3.961 85.609,11.34 37.129,10.191 63.782,20.961 83.34,28.898 19.27,7.942 29.758,12.192 35.711,9.641" /><path
         id="path90"
         style="fill:#f1c3c1;fill-opacity:1;fill-rule:evenodd;stroke:none"
         d="m 950.195,1001.91 c 0,0 -9.07,53.02 -78.242,62.65 -69.156,9.64 -156.469,-24.95 -197.289,-68.884 -40.527,-44.223 -37.41,-113.102 -37.41,-113.102 0,0 13.32,1.141 8.5,17.578 0,0 10.769,-3.41 16.16,6.524 5.383,9.918 -7.367,26.066 -7.367,26.066 0,0 23.519,3.692 9.066,22.973 0,0 15.59,-5.11 25.512,9.629 10.199,14.461 -1.422,22.109 -1.422,22.109 0,0 26.652,-5.379 26.652,10.492 0,0 22.11,-3.121 21.54,20.125 0,0 23.531,-9.92 33.171,15.88 0,0 25.789,-11.63 36.848,9.64 0,0 19.563,-11.91 31.18,9.06 0,0 12.472,-15.02 26.359,0.57 0,0 5.672,-11.34 18.141,-12.48 12.191,-1.4 15.031,3.41 15.031,3.41 0,0 1.699,-12.76 11.621,-18.7 10.199,-5.97 15.59,2.82 15.59,2.82 0,0 -1.141,-12.75 7.648,-22.68 8.512,-10.195 18.711,-3.68 18.711,-3.68" /><path
         id="path92"
         style="fill:#000000;fill-opacity:1;fill-rule:evenodd;stroke:none"
         d="m 922.418,1028.56 0,-0.28 0,0.28 z m -50.742,34.3 c -72.278,10.21 -157.891,-27.5 -195.59,-68.309 -34.859,-37.699 -37.129,-94.961 -37.129,-108.86 l 0,-1.132 c 1.422,0.269 3.398,1.132 4.82,3.402 1.129,1.418 1.411,3.398 1.411,5.668 0,1.992 -0.282,3.973 -0.852,6.23 l 0,0.289 c 0,0.571 0,0.852 0.293,1.141 0.559,0.563 1.129,0.563 1.699,0.281 0.277,0 9.641,-2.558 14.168,5.95 4.82,8.789 -7.078,24.101 -7.367,24.101 -0.281,0.559 -0.281,1.117 -0.281,1.699 0.281,0.559 0.847,0.852 1.418,0.852 0,0 9.351,1.699 11.902,7.648 1.418,3.399 0,7.649 -3.973,13.032 -0.277,0.578 -0.277,1.136 0,1.707 0.571,0.57 1.141,0.851 1.703,0.57 0.848,0 14.739,-4.25 24.098,9.07 3.121,4.531 4.25,8.789 3.68,12.762 -1.129,4.527 -4.821,7.078 -4.821,7.078 -0.847,0.57 -0.847,1.422 -0.558,1.992 0.281,0.547 0.851,1.129 1.699,0.848 0,0 15.301,-2.84 21.82,2.551 1.993,1.422 3.122,3.679 3.122,6.519 0,0.563 0,0.852 0.57,1.129 0.277,0.281 0.57,0.57 1.129,0.57 0,0 8.789,-1.136 14.461,3.682 3.687,3.12 5.39,8.22 5.097,14.74 0,0.57 0.293,1.14 0.852,1.42 0.289,0.28 0.851,0.28 1.422,0 0,0 9.347,-3.68 18.136,0 5.672,2.27 10.211,7.37 13.043,15.02 0,0.29 0.278,0.57 0.848,0.85 l 1.141,0 c 1.129,-0.56 24.66,-10.77 34.859,9.08 0.289,0.28 0.57,0.56 1.141,0.85 0.281,0 0.851,0 1.129,-0.29 0.281,0 7.941,-4.53 15.871,-2.55 5.39,1.14 9.64,4.82 13.039,11.06 0.293,0.28 0.851,0.56 1.422,0.56 0.281,0 0.847,0 1.129,-0.56 0.289,0 4.82,-5.67 11.339,-5.96 4.539,0 8.512,2.27 12.481,6.52 0.558,0.57 0.851,0.57 1.41,0.57 0.57,0 1.141,-0.28 1.422,-0.85 0,0 5.668,-10.49 16.719,-11.62 11.058,-1.14 13.609,2.83 13.609,2.83 0.281,0.57 1.129,0.85 1.699,0.57 0.571,0 1.129,-0.57 1.129,-1.42 0.293,0 1.711,-11.9 11.063,-17.29 8.5,-5.1 13.039,1.42 13.32,2.27 0.57,0.57 1.141,0.85 1.988,0.57 0.563,-0.29 1.129,-0.86 1.129,-1.71 0,0 -0.847,-11.9 7.094,-21.54 6.519,-7.649 13.598,-4.82 15.59,-3.68 -1.703,7.37 -14.742,51.59 -76.543,60.09 m 0.57,3.4 c 69.449,-9.92 79.371,-63.49 79.371,-64.06 0.281,-0.57 0,-1.13 -0.57,-1.7 0,0 -11.34,-7.09 -20.969,3.97 -5.961,7.08 -7.371,15.3 -7.66,19.84 -2.832,-2.27 -7.93,-4.25 -14.742,-0.28 -7.93,4.53 -11.047,12.75 -12.188,17 -2.261,-1.41 -6.23,-2.83 -14.172,-1.98 -10.488,1.13 -16.16,8.5 -18.418,11.62 -4.261,-3.97 -8.511,-6.23 -13.332,-6.23 -5.668,0.28 -10.199,3.68 -12.187,5.66 -3.961,-5.66 -8.223,-9.35 -13.891,-10.77 -7.371,-1.98 -14.172,0.85 -17,2.27 -10.492,-17.57 -31.191,-11.62 -36.57,-9.64 -3.402,-7.65 -7.941,-13.04 -13.891,-15.59 -7.648,-3.12 -15.308,-1.41 -18.711,-0.28 -0.281,-6.52 -2.269,-11.62 -6.238,-15.02 -5.383,-4.82 -12.473,-4.82 -15.301,-4.82 -0.57,-2.84 -1.422,-5.391 -3.968,-7.371 -5.391,-4.258 -14.461,-3.969 -19.84,-3.688 1.129,-1.421 2.258,-3.121 2.828,-5.671 0,-1.129 0.281,-1.981 0.281,-3.122 0,-3.679 -1.41,-7.929 -4.531,-12.179 -7.649,-11.071 -18.43,-11.34 -23.809,-10.489 1.7,-3.402 3.117,-6.519 3.117,-9.07 0,-1.422 -0.289,-2.84 -0.847,-3.98 -1.992,-5.66 -8.512,-7.942 -11.91,-9.059 2.55,-3.402 7.648,-11.633 7.648,-19.293 0,-2.258 -0.277,-4.519 -1.41,-6.238 -4.258,-8.211 -11.91,-8.211 -15.59,-7.93 0.281,-1.41 0.852,-3.109 0.852,-4.531 0,-2.828 -0.852,-5.379 -2.27,-7.367 -3.121,-4.821 -8.512,-5.383 -8.793,-5.383 -0.566,0 -0.847,0 -1.418,0.281 -0.281,0.281 -0.281,0.852 -0.281,1.129 -0.277,0.852 -2.828,70.301 37.699,114.242 38.551,41.669 125.293,79.939 198.711,69.729" /><path
         id="path94"
         style="fill:#000000;fill-opacity:1;fill-rule:evenodd;stroke:none"
         d="m 822.07,764.941 c 1.7,-0.281 3.121,-1.711 3.68,-3.691 7.09,-19.277 26.078,-50.449 26.371,-50.738 0.559,-0.563 0.277,-1.699 -0.57,-1.992 -0.571,-0.559 -1.699,-0.278 -2.27,0.293 0,0.558 -19.269,31.75 -26.64,51.589 -0.289,1.129 -0.852,1.418 -1.422,1.707 -3.969,1.121 -15.02,-7.668 -27.778,-18.16 -28.91,-22.957 -72.57,-57.816 -124.16,-59.226 -0.851,0 -1.703,0.558 -1.703,1.41 0,1.129 0.57,1.699 1.422,1.699 50.738,1.418 93.828,36.008 122.461,58.668 15.59,12.48 24.937,20.141 30.609,18.441" /><path
         id="path96"
         style="fill:#000000;fill-opacity:1;fill-rule:evenodd;stroke:none"
         d="m 561.566,754.453 c 60.942,-49.332 105.172,-58.68 105.45,-58.68 0.851,0 1.422,-0.851 1.422,-1.699 -0.29,-0.851 -1.141,-1.429 -1.993,-1.429 -0.277,0.296 -45.347,9.367 -106.859,59.25 -0.57,0.578 -0.57,1.707 -0.289,2.277 0.57,0.551 1.699,0.851 2.269,0.281" /><path
         id="path98"
         style="fill:#8f4b61;fill-opacity:1;fill-rule:evenodd;stroke:none"
         d="m 1151.17,1315.71 c 0,0 -5.1,28.63 -26.92,49.89 -22.11,20.98 -51.32,7.37 -51.32,7.37 0,0 70.88,-60.66 78.24,-57.26" /><path
         id="path100"
         style="fill:#000000;fill-opacity:1;fill-rule:evenodd;stroke:none"
         d="m 1123.11,1363.61 c 18.71,-18.14 24.94,-41.95 26.37,-47.91 -7.09,1.42 -42.25,28.63 -74.28,55.56 6.25,2.55 29.78,9.36 47.91,-7.65 m -51.31,9.35 c -0.28,-0.28 -0.55,-0.56 -0.55,-1.13 0,-0.28 0.27,-0.85 0.55,-1.13 16.74,-13.89 72.29,-60.66 79.93,-57.26 0.29,0 0.59,0.56 0.59,1.13 0,0.28 -5.39,29.48 -27.5,50.74 -22.39,21.26 -52.44,7.65 -53.02,7.65" /><path
         id="path102"
         style="fill:#bb5f75;fill-opacity:1;fill-rule:evenodd;stroke:none"
         d="m 1200.21,1304.94 c 3.68,1.13 -8.78,11.62 -10.48,13.04 -4.53,4.53 -19.84,11.05 -26.09,5.67 0,0 -41.37,51.87 -63.48,54.71 -21.84,3.12 -59.53,-3.97 -109.715,-27.78 -57.539,-40.54 -79.082,-53.29 -92.968,-59.25 -13.891,-4.25 -39.403,-7.37 -60.383,-14.74 -21.821,-5.38 -22.11,-22.11 -22.11,-22.11 0,0 10.77,8.22 22.961,10.49 12.469,3.12 21.828,0 17.289,-10.49 -1.129,-5.38 2.84,-11.62 10.211,-19.27 8.219,-8.51 20.121,-19.56 33.45,-34.58 33.449,-43.09 51.019,-74.84 56.121,-93.55 5.109,-18.71 3.968,-24.66 9.64,-24.38 11.617,0.57 21.258,15.88 21.258,15.88 0,0 49.036,2.83 74.836,20.41 11.34,8.78 27.2,19.84 43.66,30.04 16.72,10.49 34,20.7 48.75,27.22 30.04,13.89 64.07,17 64.07,17 5.66,18.43 -10.5,37.42 -8.8,56.98 6.52,67.75 -31.45,47.91 -8.22,54.71" /><path
         id="path104"
         style="fill:#8f4b61;fill-opacity:1;fill-rule:evenodd;stroke:none"
         d="m 1152.87,1221.88 c -35.15,15.59 -15.87,57.83 -9.35,84.47 -19.56,-14.74 -32.59,-33.73 -42.52,-53.57 -9.36,-19.28 -15.87,-39.4 -27.78,-55.85 -19.56,-26.36 -18.14,-68.03 -59.53,-55.84 -12.47,3.12 -5.66,18.43 0,25.23 -9.64,-11.34 -30.049,-28.63 -38.268,-18.42 -24.09,25.51 -45.07,51.3 -62.93,72.85 -15.019,18.42 -26.359,33.16 -23.531,49.32 10.488,15.31 55.852,20.12 90.16,42.8 -20.711,-7.08 -42.531,-12.75 -62.66,-21.54 -9.922,-3.97 -15.871,-4.82 -17.859,-2.84 -1.129,-0.56 -2.27,-0.85 -3.403,-1.41 -13.886,-4.54 -39.398,-8.22 -60.937,-15.31 -22.961,-5.1 -21.832,-21.54 -21.832,-21.54 0,0 9.922,7.93 21.832,10.48 12.75,3.12 22.109,0.29 18.699,-9.92 -0.852,-5.1 3.691,-11.05 11.629,-18.42 8.781,-7.94 20.691,-18.71 34.301,-33.17 34.289,-42.23 51.3,-73.7 56.121,-92.41 5.097,-18.42 3.968,-24.37 9.64,-24.09 11.618,0.57 21.258,15.87 21.258,15.87 0,0 49.04,2.84 75.12,20.13 11.34,8.79 26.94,19.84 43.37,30.33 16.72,10.49 34.02,20.69 48.75,27.21 30.05,13.89 64.08,17.01 64.08,17.01 3.39,11.62 7.08,23.53 10.77,35.15 -24.39,0.57 -48.76,-14.17 -75.13,-6.52" /><path
         id="path106"
         style="fill:#000000;fill-opacity:1;fill-rule:evenodd;stroke:none"
         d="m 1165.64,1322.23 c 5.66,4.82 20.13,-1.42 24.66,-5.67 47.06,-63.78 -49.6,71.72 25.79,-122.74 -3.98,-0.28 -35.43,-3.97 -63.5,-17.01 -23.25,-10.49 -53.57,-30.61 -77.11,-46.49 -5.09,-3.68 -9.64,-7.37 -14.18,-11.33 -25.78,-17.01 -74.245,-19.85 -74.823,-19.85 -0.274,0 -0.571,-0.28 -0.571,-0.28 0,-0.28 -0.269,-0.28 -0.269,-0.28 0,0 -2.551,-4.54 -6.813,-8.51 -3.969,-3.68 -8.789,-6.8 -13.609,-6.8 -2.828,-0.28 -3.391,0.85 -5.391,11.05 -1.41,8.22 -3.668,20.98 -12.168,38.84 -8.511,18.71 -26.082,41.95 -45.941,67.18 -2.539,2.83 -5.09,5.39 -7.641,7.94 -22.969,19.84 -39.969,31.46 -39.687,40.53 1.699,5.67 -0.571,9.07 -6.813,9.64 -3.398,0.28 -8.211,-0.28 -13.32,-1.13 -2.82,-0.57 -5.668,-1.42 -8.207,-2.27 -5.961,-1.99 -10.492,-4.82 -12.762,-6.52 -0.57,3.97 3.68,13.32 20.692,17.57 0.847,0.29 1.699,0.57 2.839,0.57 11.61,3.4 20.688,10.77 29.758,15.31 8.5,3.97 17.301,5.1 23.821,7.65 0.558,0.28 1.121,0.57 1.968,0.85 14.172,7.66 43.383,15.59 103.473,59.81 52.144,23.53 87.024,29.2 107.144,26.37 20.7,-2.84 60.68,-53.86 61.22,-54.43 0.3,-0.28 0.85,-0.57 1.44,0 m 26.06,-3.68 c -4.54,4.53 -18.97,11.05 -26.34,6.23 -4.27,5.67 -41.4,51.59 -62.09,54.43 -20.13,2.83 -55.29,-3.12 -107.723,-27.22 -59.524,-44.5 -87.863,-52.44 -101.762,-59.81 -0.57,-0.56 -1.129,-0.85 -1.691,-1.13 -6.821,-2.55 -17.289,-3.4 -25.809,-7.65 -9.629,-4.26 -17.289,-11.91 -29.762,-15.6 -25.789,-5.1 -25.789,-20.4 -25.5,-20.97 0,-0.29 0.563,-0.57 1.122,-0.57 0.57,0 1.14,0.28 1.14,0.28 0.281,0.29 9.91,7.66 21.262,9.64 3.969,1.14 7.937,1.42 10.777,0.85 5.66,-0.56 7.641,-3.68 6.512,-9.07 -0.57,-9.07 16.719,-20.97 39.969,-40.82 2.55,-2.55 5.101,-5.1 7.648,-7.93 20.133,-24.95 37.703,-47.91 45.934,-66.33 8.207,-18.15 10.476,-30.62 12.179,-38.56 1.7,-9.63 2.559,-13.89 7.93,-13.6 5.68,0 11.059,3.68 15.32,7.37 3.688,3.68 6.239,7.37 6.797,8.5 5.383,0.57 50.457,3.69 75.407,20.13 5.09,3.68 9.62,7.37 14.46,11.34 23.25,15.87 53.29,35.71 76.54,46.2 29.18,13.61 62.93,17.01 63.19,17.01 0.59,0 0.59,0.28 0.86,0.28 0.27,0.29 0.27,0.29 0.27,0.57 -81.34,176.6 4.84,65.2 -26.64,126.43" /><path
         id="path108"
         style="fill:#000000;fill-opacity:1;fill-rule:evenodd;stroke:none"
         d="m 1108.09,1201.19 c 0,0 -7.38,20.41 -5.66,45.64 1.41,25.23 12.18,56.41 46.48,79.37 -0.57,0.85 -1.13,1.42 -1.7,2.27 -35.16,-23.53 -45.36,-55.28 -46.5,-80.79 -0.84,-25.51 7.09,-45.92 7.38,-46.49" /><path
         id="path110"
         style="fill:#000000;fill-opacity:1;fill-rule:evenodd;stroke:none"
         d="m 980.813,1097.73 c 0.847,-0.57 1.417,-0.85 2.269,-1.14 6.231,31.18 17.008,53 26.638,66.89 9.64,13.61 16.44,19.86 16.44,19.86 -0.28,0 -7.37,-5.96 -17.57,-19.29 -10.207,-13.32 -21.828,-34.57 -27.777,-66.32" /><path
         id="path112"
         style="fill:#000000;fill-opacity:1;fill-rule:evenodd;stroke:none"
         d="m 851.27,1345.76 -1.7,-1.7 c 39.969,-24.95 87.871,-24.95 88.442,-24.66 0,0 -47.91,1.98 -86.742,26.36" /><path
         id="path114"
         style="fill:#000000;fill-opacity:1;fill-rule:evenodd;stroke:none"
         d="m 1390.42,1615.33 c 7.09,-5.39 10.77,-11.91 10.77,-18.99 0.28,-11.91 -2.83,-20.7 -9.07,-26.08 -7.65,-6.8 -17.3,-5.67 -17.86,-5.67 -0.56,0 -1.13,0.57 -1.13,1.42 0.28,0.56 0.84,1.13 1.42,0.85 0.27,0 9.06,-0.85 15.87,5.1 5.66,5.1 8.5,13.32 8.22,24.38 0,6.52 -3.41,12.19 -9.65,17.01 -21.81,17 -75.4,20.41 -96.08,15.87 -0.85,-0.28 -1.43,0.28 -1.7,0.85 0,0.57 0.27,1.42 0.85,1.42 21.26,4.82 76.25,1.13 98.36,-16.16" /><path
         id="path116"
         style="fill:#b18331;fill-opacity:1;fill-rule:evenodd;stroke:none"
         d="m 1345.64,1630.92 c 9.06,-5.95 13.59,-12.47 13.31,-18.99 -0.56,-11.34 -14.18,-18.43 -14.75,-18.71 -0.54,-0.28 -1.13,-0.28 -1.68,0.28 -0.29,0.57 0,1.42 0.55,1.7 0.29,0 13.06,7.09 13.32,16.73 0.29,5.67 -3.96,11.34 -12.19,17.01 -0.54,0.28 -0.54,1.13 -0.27,1.7 0.57,0.56 1.12,0.56 1.71,0.28" /><path
         id="path118"
         style="fill:#b18331;fill-opacity:1;fill-rule:evenodd;stroke:none"
         d="m 1324.09,1619.87 c 0.57,-6.52 -4.82,-11.34 -5.11,-11.62 -0.56,-0.29 -1.13,-0.29 -1.7,0.28 -0.56,0.28 -0.29,1.14 0,1.7 0.29,0 4.83,3.97 4.53,9.64 -0.55,3.97 -3.39,7.94 -9.07,11.34 -0.56,0.57 -0.56,1.13 -0.27,1.7 0.27,0.57 1.12,0.85 1.7,0.57 6.24,-4.26 9.64,-8.79 9.92,-13.61" /><path
         id="path120"
         style="fill:#000000;fill-opacity:1;fill-rule:evenodd;stroke:none"
         d="m 1425,1651.9 c 19.84,-38.83 -7.94,-69.73 -8.22,-70.02 -0.57,-0.56 -1.13,-0.56 -1.7,0 -0.57,0.29 -0.57,1.14 -0.28,1.71 0.28,0.28 27.21,29.76 7.93,67.18 -18.99,37.41 -66.61,35.71 -67.18,35.71 -0.57,-0.28 -1.13,0.29 -1.13,1.14 -0.29,0.56 0.28,1.13 1.13,1.13 0.28,0 49.61,1.98 69.45,-36.85" /><path
         id="path122"
         style="fill:#000000;fill-opacity:1;fill-rule:evenodd;stroke:none"
         d="m 1452.5,1679.11 c 23.81,-54.14 -26.65,-84.76 -27.22,-85.04 -0.56,-0.57 -1.41,-0.28 -1.7,0.28 -0.28,0.57 -0.28,1.42 0.29,1.7 0.56,0.29 49.31,29.77 26.35,82.21 -0.28,0.57 0,1.42 0.85,1.42 0.58,0.28 1.15,0 1.43,-0.57" /><path
         id="path124"
         style="fill:#f6d7c4;fill-opacity:1;fill-rule:evenodd;stroke:none"
         d="m 1092.78,1359.93 c 0,0 4.25,3.68 10.49,7.65 l -0.85,-4.82 -1.14,-18.14 -3.11,-18.99 -5.12,-14.74 -2.82,-4.25 c -4.54,26.93 2.55,53.29 2.55,53.29" /><path
         id="path126"
         style="fill:#000000;fill-opacity:1;fill-rule:evenodd;stroke:none"
         d="m 1221.76,1602.86 c 0,0 43.09,-13.89 55.56,-29.2 12.75,-15.3 15.31,-61.79 17.29,-63.78 2.27,-1.7 10.21,2.27 13.04,6.52 2.83,4.26 -13.61,47.91 -22.11,59.81 -8.51,11.63 -48.76,26.08 -63.78,26.65" /><path
         id="path128"
         style="fill:#fcd01a;fill-opacity:1;fill-rule:evenodd;stroke:none"
         d="m 1390.14,1574.8 c 0,0 15.02,0 22.38,7.93 0,0 54.44,-39.39 20.99,-185.39 -33.45,-145.98 -125.86,-159.02 -167.25,-127.84 -41.38,31.18 -5.39,74.84 0.29,80.23 0,0 -12.77,-28.64 12.47,-52.44 25.5,-24.11 83.34,17.85 114.52,79.94 31.18,62.36 42.52,162.41 -3.4,197.57" /><path
         id="path130"
         style="fill:#000000;fill-opacity:1;fill-rule:evenodd;stroke:none"
         d="m 1333.72,1260.43 c 15.6,4.55 38.27,15.87 59.25,44.5 15.3,20.71 29.2,50.18 39.12,92.71 30.32,133.79 -13.32,178 -19.84,183.4 -5.95,-5.11 -14.75,-6.81 -19.28,-7.38 45.63,-38.55 30.32,-140.02 1.7,-197 -5.67,-11.34 -12.47,-22.11 -19.55,-32.03 -22.41,-30.33 -49.9,-51.88 -72.86,-54.99 -9.63,-1.43 -18.15,0.84 -24.38,6.79 -18.7,17.57 -17,37.71 -14.74,47.62 -0.56,-0.55 -0.85,-1.12 -1.41,-1.98 -6.53,-8.78 -15.02,-24.09 -13.9,-40.25 1.13,-12.18 7.37,-22.68 19.29,-31.46 17.57,-13.32 42.52,-17.02 66.6,-9.93 m 79.37,323.16 c 2.27,-1.43 54.71,-41.68 21.55,-186.52 -23.24,-102.34 -72.57,-130.96 -100.07,-138.91 -24.93,-7.36 -50.73,-3.39 -69.44,10.5 -12.19,9.07 -19,20.41 -19.85,33.16 -1.99,22.68 15.32,44.23 19.85,48.75 0.56,0.29 1.41,0.57 1.99,0 0.56,-0.27 0.56,-0.84 0.56,-1.41 -0.29,-0.28 -12.19,-28.07 12.18,-51.02 5.68,-5.39 13.04,-7.37 22.11,-6.25 28.63,3.97 67.47,40.82 90.15,85.9 33.16,66.05 40.25,163 -2.83,196.16 -0.58,0.28 -0.85,0.85 -0.58,1.41 0.29,0.28 0.85,0.57 1.43,0.57 0,0 14.17,0.28 21.26,7.66 0.28,0.57 1.13,0.57 1.69,0" /><path
         id="path132"
         style="fill:#000000;fill-opacity:1;fill-rule:evenodd;stroke:none"
         d="m 989.602,1102.83 c -17.293,33.17 -54.141,135.5 -81.071,153.92 -8.793,5.95 -73.992,63.78 -68.601,15.31 1.422,-12.47 -2.27,-26.08 2.269,-44.51 8.789,-36.85 63.211,-63.49 82.492,-96.37 3.399,-5.67 22.957,-47.63 39.11,-60.1 14.461,-10.77 29.758,9.07 25.801,31.75" /><path
         id="path134"
         style="fill:#000000;fill-opacity:1;fill-rule:nonzero;stroke:none"
         d="m 850.035,1288.71 c -2.422,0 -4.191,-0.66 -5.422,-2.03 -2.179,-2.43 -2.918,-7.39 -2.148,-14.34 0.558,-4.88 0.359,-9.84 0.16,-15.11 -0.332,-8.39 -0.699,-17.91 2.051,-29.07 4.879,-20.43 24.929,-38.15 44.316,-55.29 14.5,-12.83 29.5,-26.08 37.903,-40.41 0.609,-1.01 1.769,-3.26 3.347,-6.32 6.684,-12.91 22.313,-43.16 35.121,-53.04 2.2,-1.64 4.481,-2.48 6.75,-2.48 4.121,0 7.262,2.7 9.172,4.98 5.289,6.29 7.52,16.38 5.867,26.41 -4.898,9.45 -11.226,24.08 -18.547,40.97 -18.062,41.72 -42.792,98.86 -61.511,111.66 -1.149,0.77 -3.258,2.43 -6.051,4.63 -11.199,8.82 -37.418,29.44 -51.008,29.44 m 122.078,-223.19 0,0 c -3.39,0 -6.699,1.18 -9.828,3.52 -13.73,10.6 -29.16,40.42 -36.57,54.76 -1.512,2.93 -2.621,5.07 -3.211,6.07 -8,13.63 -22.031,26.04 -36.891,39.17 -19.988,17.67 -40.648,35.94 -45.898,57.92 -2.91,11.84 -2.531,21.74 -2.192,30.47 0.2,5.05 0.379,9.85 -0.128,14.34 -0.961,8.68 0.148,14.66 3.418,18.3 2.222,2.48 5.32,3.75 9.222,3.75 15.36,0 41.57,-20.63 54.168,-30.54 2.652,-2.08 4.66,-3.67 5.762,-4.42 19.937,-13.65 44,-69.2 63.328,-113.85 7.371,-17.03 13.73,-31.72 18.57,-41 l 0.25,-0.74 c 2.032,-11.61 -0.621,-23.47 -6.918,-30.97 -3.691,-4.37 -8.332,-6.78 -13.082,-6.78" /><path
         id="path136"
         style="fill:#fcd01a;fill-opacity:1;fill-rule:evenodd;stroke:none"
         d="m 1451.37,1678.55 c 0,0 38.83,73.41 -43.38,147.68 -82.2,73.98 -198.98,83.34 -327.97,-28.07 -129.262,-111.68 -145.704,-163.84 -146.551,-234.14 -0.852,-70.29 10.777,-97.5 0,-123.02 0,0 -8.5,-19.27 -30.321,-20.98 -21.832,-1.7 -31.179,23.53 -27.5,35.73 0,0 -86.453,-126.16 26.649,-174.05 0,0 62.629,-50.47 119.053,-29.77 40.82,15.02 74.27,42.23 80.22,95.25 l 0.85,15.02 c 0,17 -2.26,36.57 -7.93,58.96 -26.36,103.75 -3.97,112.25 -3.97,112.25 0,0 86.46,17.86 174.04,90.14 75.12,62.36 86.46,64.34 114.81,72 42.79,11.34 72,-17 72,-17" /><path
         id="path138"
         style="fill:#000000;fill-opacity:1;fill-rule:evenodd;stroke:none"
         d="m 1407.14,1825.09 c -91.28,82.49 -210.32,72.28 -326.27,-28.06 -124.151,-106.87 -145.413,-158.46 -146.272,-233.01 -0.278,-29.2 1.711,-50.74 3.121,-68.32 1.988,-24.09 3.121,-40.25 -3.121,-55.27 -0.278,-0.28 -9.071,-19.84 -31.457,-21.54 -10.774,-0.86 -17.571,4.53 -21.543,9.07 -5.668,6.8 -7.938,15.59 -7.938,22.39 -9.351,-15.59 -38.551,-68.6 -24.652,-113.95 7.359,-23.53 25.5,-41.67 53.851,-53.58 0.848,-0.85 62.93,-50.17 118.211,-29.76 70.57,26.08 94.11,81.07 72,167.81 -26.09,103.75 -3.98,113.39 -3.13,113.67 1.15,0.28 87.59,18.71 173.77,89.86 73.7,61.23 86.17,64.63 113.38,71.71 l 1.99,0.57 c 37.98,10.21 66.04,-11.05 72.01,-16.16 4.53,10.21 30.6,77.39 -43.95,144.57 m 1.7,1.98 c 81.92,-73.98 44.23,-148.25 43.65,-149.1 0,-0.28 -0.56,-0.56 -0.85,-0.56 -0.28,0 -0.85,0 -1.13,0.28 -0.27,0.28 -29.2,27.78 -70.87,16.72 l -1.7,-0.56 c -26.92,-7.09 -39.39,-10.49 -112.53,-71.15 -86.74,-71.72 -173.77,-90.15 -174.62,-90.43 0,0 -20.69,-10.2 4.83,-110.83 4.81,-19.28 7.36,-36.85 7.94,-53.01 l -1.14,-5.67 -1.14,-18.14 -3.11,-18.99 -5.1,-14.74 -11.62,-18.15 -13.32,-14.17 -13.05,-11.05 c -4.25,-3.12 -9.06,-5.67 -14.18,-8.23 l -5.95,-2.83 -9.07,-3.97 c -1.42,-0.57 -2.55,-1.13 -3.96,-1.7 -3.69,-1.42 -7.38,-2.27 -11.06,-3.12 l -18.993,-1.98 -0.289,0 -20.41,2.55 -22.68,6.52 c -26.918,10.2 -46.769,25.79 -47.05,26.08 -28.629,11.9 -47.34,30.61 -54.708,54.99 -17.011,54.43 27.5,119.91 27.778,120.47 0.281,0.57 1.133,0.85 1.699,0.57 0.293,-0.28 0.57,-0.85 0.57,-1.42 -1.988,-6.52 0.282,-17.86 6.813,-25.79 3.39,-4.25 9.629,-9.07 19.269,-8.22 20.969,1.41 29.192,19.84 29.489,19.84 6.23,14.74 4.812,30.33 2.82,54.14 -1.418,17.58 -3.117,39.4 -2.82,68.6 0.84,75.4 22.101,127.27 146.822,234.99 117.07,101.2 237.27,111.4 329.67,28.06" /><path
         id="path140"
         style="fill:#000000;fill-opacity:1;fill-rule:evenodd;stroke:none"
         d="m 1452.5,1679.11 c 0.27,-0.57 0,-1.13 -0.58,-1.42 -0.55,-0.28 -1.4,0 -1.7,0.57 -0.55,1.13 -64.91,123.02 -233,40.82 -156.48,-76.25 -147.41,-202.96 -139.18,-278.36 l 1.41,-13.04 c 4.54,-47.91 3.69,-161.29 -108.27,-178.3 -0.852,-0.29 -1.418,0.28 -1.418,0.85 -0.282,0.85 0.269,1.42 0.847,1.42 109.981,16.72 110.831,128.69 106.291,176.03 l -1.41,12.75 c -7.66,70.87 -21.83,203.25 140.59,280.92 170.93,81.63 235.84,-40.82 236.42,-42.24" /><path
         id="path142"
         style="fill:#000000;fill-opacity:1;fill-rule:evenodd;stroke:none"
         d="m 1097.03,1812.91 c 0.57,-0.57 0.85,-1.43 0.28,-1.71 -81.34,-99.5 -89,-212.31 -94.66,-294.52 -2.849,-41.95 -5.119,-75.11 -17.017,-91.55 -16.731,-22.4 -36.852,-29.49 -54.434,-36 -19.558,-6.81 -36.558,-13.04 -44.777,-37.13 -15.59,-45.36 13.32,-68.61 13.598,-68.61 0.57,-0.57 0.57,-1.14 0.293,-1.69 -0.571,-0.57 -1.141,-0.57 -1.711,-0.29 -0.282,0.29 -30.61,24.38 -14.45,71.43 8.5,25.23 26.93,31.75 45.918,38.55 17.571,6.24 37.422,13.32 53.571,35.43 11.629,15.59 13.89,48.48 16.729,89.86 5.38,82.77 13.04,196.16 94.96,295.95 0.57,0.55 1.42,0.55 1.7,0.28" /><path
         id="path144"
         style="fill:#000000;fill-opacity:1;fill-rule:evenodd;stroke:none"
         d="m 1024.46,1746.29 c 0.58,-0.27 0.28,-1.13 0,-1.7 -0.57,-0.28 -43.366,-36 -50.456,-155.34 -7.371,-123.59 -17.57,-136.62 -47.902,-159.3 -0.571,-0.57 -1.418,-0.29 -1.7,0 -0.57,0.57 -0.289,1.41 0.282,1.69 29.757,22.4 39.398,35.15 46.769,157.9 7.371,120.48 50.737,156.75 51.307,157.03 0.58,0.57 1.13,0.29 1.7,-0.28" /><path
         id="path146"
         style="fill:#000000;fill-opacity:1;fill-rule:evenodd;stroke:none"
         d="m 1397.5,1700.09 c 0,-0.85 -0.57,-1.13 -1.42,-1.13 -1.13,0 -114.52,1.13 -207.2,-56.41 -75.13,-46.21 -88.17,-80.22 -95.81,-100.35 -2,-5.1 -3.4,-9.35 -5.68,-12.47 -0.28,-0.57 -1.13,-0.85 -1.7,-0.29 -0.56,0.29 -0.85,0.85 -0.28,1.42 1.98,3.12 3.41,7.09 5.38,12.19 7.94,20.41 20.99,54.71 96.66,101.76 93.56,57.55 207.5,56.41 208.63,56.41 0.85,0 1.42,-0.56 1.42,-1.13" /><path
         id="path148"
         style="fill:#000000;fill-opacity:1;fill-rule:evenodd;stroke:none"
         d="m 1454.77,1684.5 c 0.27,-0.57 0,-1.13 -0.86,-1.42 -0.57,0 -1.12,0.29 -1.43,1.14 -0.27,1.13 -28.04,117.92 -147.38,120.75 -117.92,2.84 -205.23,-66.61 -245.49,-195.3 -22.97,-73.14 -17.56,-105.74 -12.18,-136.92 3.39,-22.11 7.37,-44.79 0.85,-80.5 -8.23,-46.77 -27.21,-54.14 -34.87,-55.28 -8.21,-1.13 -16.152,3.12 -20.125,10.77 -3.969,6.81 -4.82,17.58 2.539,28.35 0.852,1.42 2.281,2.84 3.41,4.54 -7.929,0.56 -36.277,1.41 -59.808,-12.19 -6.231,-3.4 -11.621,-8.79 -15.871,-15.59 -6.809,-10.21 -11.059,-23.53 -11.34,-37.14 -0.57,-22.67 10.199,-42.8 30.332,-55.84 0.57,-0.57 0.57,-1.13 0.277,-1.7 -0.277,-0.57 -1.129,-0.85 -1.699,-0.57 -20.687,13.89 -31.75,34.58 -31.461,58.11 0.563,23.25 12.191,45.64 28.344,54.99 28.347,16.16 63.502,12.19 63.782,11.91 0.57,0 0.85,-0.28 1.12,-0.57 0,-0.56 0,-1.13 -0.27,-1.41 -11.624,-11.91 -11.335,-24.38 -7.374,-31.75 3.691,-6.81 10.494,-10.49 17.864,-9.64 15.03,2.27 27.21,22.11 32.6,53.29 6.52,35.72 2.84,56.98 -0.85,79.65 -5.4,31.75 -10.77,64.35 12.47,138.05 40.54,129.83 128.7,199.84 247.75,197.01 121.6,-2.55 149.67,-121.32 149.67,-122.74" /><path
         id="path150"
         style="fill:#000000;fill-opacity:1;fill-rule:evenodd;stroke:none"
         d="m 1175.27,1473.03 c 0,0 -17.57,6.8 -28.63,23.53 -7.37,11.05 -11.92,12.75 -15.6,12.47 0,0 6.52,5.39 14.46,-5.67 0,0 -1.7,12.19 -10.2,14.17 0,0 3.97,1.99 9.91,-4.53 0,0 2.84,7.37 -5.66,13.32 0,0 5.4,-1.13 11.06,-9.07 5.37,-7.94 7.09,-26.08 13.32,-32.6 6.23,-6.8 10.48,-12.19 11.34,-11.62" /><path
         id="path152"
         style="fill:#fdfdfd;fill-opacity:1;fill-rule:evenodd;stroke:none"
         d="m 1151.74,1516.12 c 0,0 -6.8,-35.15 49.04,-56.69 0,0 26.36,0.85 42.52,21.82 16.16,21.26 5.38,46.21 -4.54,52.44 -9.63,6.24 -21.26,13.61 -42.52,9.36 -20.96,-4.54 -37.13,-15.31 -44.5,-26.93" /><path
         id="path154"
         style="fill:#000000;fill-opacity:1;fill-rule:evenodd;stroke:none"
         d="m 1163.93,1531.71 c 0,0 0.28,0.28 0.85,0.57 l 0,0.28 c 0.85,12.19 1.43,20.98 1.43,20.98 1.41,-4.54 4.52,-9.64 10.48,-10.77 -3.98,4.25 1.99,13.88 1.99,13.88 -0.86,-6.23 2.26,-9.63 5.94,-11.33 1.7,-0.29 3.68,-0.29 5.68,-0.29 l 0,-0.28 c 13.59,4.53 30.61,6.24 46.48,-3.4 37.13,-22.11 6.52,-60.1 6.52,-60.1 0,0 15.02,24.66 -3.12,47.34 -17.01,21.55 -66.04,13.89 -88.45,-12.47 0,0 7.95,18.99 4.55,44.5 0,0 9.08,-17.85 7.65,-28.91" /><path
         id="path156"
         style="fill:#0081c0;fill-opacity:1;fill-rule:evenodd;stroke:none"
         d="m 1157.98,1513.29 c -2.28,-3.69 -3.97,-7.38 -5.1,-11.06 4.82,-21.27 33.16,-38.84 41.1,-39.96 7.65,2.55 14.74,7.64 19.56,15.02 10.77,16.44 7.09,37.98 -8.23,47.91 -15.3,9.92 -36.56,4.53 -47.33,-11.91" /><path
         id="path158"
         style="fill:#285284;fill-opacity:1;fill-rule:evenodd;stroke:none"
         d="m 1167.62,1507.05 c -7.09,-10.77 -4.54,-24.66 5.39,-31.18 9.92,-6.52 23.81,-3.12 30.89,7.65 7.09,10.77 4.81,24.66 -5.38,31.18 -9.92,6.51 -23.81,3.12 -30.9,-7.65" /><path
         id="path160"
         style="fill:#000000;fill-opacity:1;fill-rule:evenodd;stroke:none"
         d="m 1175.84,1501.66 c -3.68,-5.95 -2.56,-13.32 3.12,-17.01 5.38,-3.4 12.75,-1.7 16.71,4.25 3.7,5.96 2.55,13.33 -2.83,17.01 -5.66,3.4 -13.04,1.7 -17,-4.25" /><path
         id="path162"
         style="fill:#fdfdfd;fill-opacity:1;fill-rule:evenodd;stroke:none"
         d="m 1201.35,1499.11 c -2.55,-4.25 -1.7,-9.64 1.98,-12.19 3.97,-2.55 9.36,-1.13 12.19,3.12 2.55,4.25 1.7,9.64 -2.26,11.9 -3.69,2.56 -9.08,1.42 -11.91,-2.83" /><path
         id="path164"
         style="fill:#000000;fill-opacity:1;fill-rule:evenodd;stroke:none"
         d="m 1279.3,1388.84 c 0,0 9.07,-12.19 18.44,-17.86 6.5,-3.68 7.36,-5.95 7.36,-8.22 0,0 2.83,3.69 -3.41,7.94 0,0 6.81,-0.85 7.94,-5.39 0,0 0.85,2.27 -2.83,5.39 0,0 3.96,1.42 7.66,-2.84 0,0 -0.85,2.84 -5.39,5.67 -4.54,2.84 -14.46,3.12 -18.42,6.52 -3.69,3.12 -11.62,8.22 -11.35,8.79" /><path
         id="path166"
         style="fill:#fdfdfd;fill-opacity:1;fill-rule:evenodd;stroke:none"
         d="m 1305.38,1374.67 c 0,0 -27.5,3.4 -37.71,31.46 -2.26,7.66 7.94,14.46 12.19,16.45 3.98,1.98 31.18,9.07 45.65,1.13 14.73,-8.22 14.17,-23.24 3.1,-33.17 -11.04,-10.2 -19.54,-15.87 -23.23,-15.87" /><path
         id="path168"
         style="fill:#0081c0;fill-opacity:1;fill-rule:evenodd;stroke:none"
         d="m 1303.11,1394.23 c -3.97,-5.95 -9.65,-10.2 -16.16,-12.47 -7.07,4.82 -14.75,12.19 -19.27,24.38 -2.27,7.65 7.93,14.45 12.2,16.44 2.25,1.13 12.46,3.96 23.51,4.53 6.52,-9.07 6.81,-22.11 -0.28,-32.88" /><path
         id="path170"
         style="fill:#000000;fill-opacity:1;fill-rule:evenodd;stroke:none"
         d="m 1339.68,1407.55 c -1.98,-9.35 -8.22,-18.99 -15.31,-23.81 -0.28,-0.28 -0.28,-0.56 -0.56,-0.85 0.28,-1.99 1.7,-1.69 4.53,-2.55 0,0 -5.95,-2.84 -7.09,-0.29 -0.56,-2.55 1.71,-3.1 3.41,-4.53 0,0 -4.82,-0.29 -10.21,1.7 l -0.28,0 c 5.67,-1.7 11.05,-8.22 11.05,-8.22 -8.5,4.54 -19.84,5.68 -19.84,5.68 24.66,10.48 41.95,36.55 17.58,47.34 -20.7,9.06 -43.09,0.55 -43.09,0.55 33.73,15.31 63.78,2.56 59.81,-15.02" /><path
         id="path172"
         style="fill:#285284;fill-opacity:1;fill-rule:evenodd;stroke:none"
         d="m 1295.18,1399.61 c -4.25,-6.52 -11.34,-9.91 -18.14,-9.07 -3.7,3.98 -7.09,9.07 -9.36,15.59 -2.27,7.66 7.94,14.46 12.19,16.44 1.14,0.86 5.09,1.98 10.2,3.13 0.29,-0.29 0.57,-0.29 0.86,-0.57 8.21,-5.11 10.2,-16.73 4.25,-25.52" /><path
         id="path174"
         style="fill:#000000;fill-opacity:1;fill-rule:evenodd;stroke:none"
         d="m 1272.22,1414.36 c -3.41,-4.82 -2.28,-11.06 2.27,-13.9 4.53,-2.82 10.77,-1.41 13.88,3.4 3.13,4.82 1.98,11.07 -2.55,14.18 -4.25,2.84 -10.48,1.14 -13.6,-3.68" /><path
         id="path176"
         style="fill:#fdfdfd;fill-opacity:1;fill-rule:evenodd;stroke:none"
         d="m 1293.19,1412.37 c -2.28,-3.4 -1.71,-7.94 1.7,-9.92 3.11,-2.27 7.65,-1.14 9.91,2.27 2.28,3.4 1.43,7.93 -1.7,9.92 -3.4,2.27 -7.64,1.13 -9.91,-2.27" /><path
         id="path178"
         style="fill:#000000;fill-opacity:1;fill-rule:evenodd;stroke:none"
         d="m 1383.33,1402.17 c 0,0 -2.83,20.41 -21.26,28.91 -18.43,8.79 -56.41,12.48 -59.53,14.46 -3.12,1.98 8.51,6.8 9.92,7.65 1.7,0.85 22.68,-2.83 42.52,-13.04 19.85,-10.48 27.5,-20.41 28.35,-37.98" /><path
         id="path180"
         style="fill:#000000;fill-opacity:1;fill-rule:evenodd;stroke:none"
         d="m 1311.05,1451.77 c 0.27,-0.57 -1.71,-1.98 -3.41,-2.55 -11.89,-5.39 -57.25,-28.35 -47.62,-67.47 0,-0.28 0.3,-1.41 -0.29,-2.26 -0.28,-0.85 -1.12,-1.14 -1.12,-1.14 -2.84,-2.27 -8.22,-1.13 -15.02,0 -5.96,1.14 -12.48,2.27 -17.86,1.42 -1.71,-0.28 -6.23,-1.7 -6.53,-1.13 -0.56,0.56 4.82,3.4 7.39,3.68 5.36,0.57 11.61,-0.57 17.27,-1.42 5.69,-1.13 11.34,-1.98 13.05,-0.85 l 0.57,0.57 0.27,0.85 c -10.48,41.67 38.84,65.76 49.61,70.3 1.41,0.57 3.41,0.85 3.69,0" /><path
         id="path182"
         style="fill:#b92c31;fill-opacity:1;fill-rule:evenodd;stroke:none"
         d="m 1161.38,1394.51 c 0,0 -18.43,-12.47 -11.05,-30.9 7.09,-18.42 27.77,-25.51 36.28,-18.42 8.5,7.37 7.94,15.3 12.75,16.15 4.54,1.14 -31.74,32.89 -37.98,33.17" /><path
         id="path184"
         style="fill:#c9382c;fill-opacity:1;fill-rule:evenodd;stroke:none"
         d="m 1156.56,1377.22 c -1.43,-3.4 -1.98,-7.37 0,-11.91 4.54,-12.47 17.85,-17.57 24.38,-13.89 -7.38,9.36 -12.76,21.55 -24.38,25.8" /><path
         id="path186"
         style="fill:#95362c;fill-opacity:1;fill-rule:evenodd;stroke:none"
         d="m 1161.94,1392.53 c -0.57,-0.57 -1.7,-1.42 -3.12,-2.83 -4.53,-4.26 -11.62,-13.33 -6.8,-25.52 4.26,-11.34 13.61,-17.29 20.98,-18.99 5.1,-1.42 9.63,-0.85 12.48,1.42 0.27,0.28 0.55,0.85 1.12,1.13 3.12,3.12 4.82,6.52 6.24,9.07 0.85,1.99 1.98,3.69 3.12,4.82 0.28,0.29 0.85,0.57 1.41,0.85 -2.83,5.67 -30.04,28.63 -35.43,30.05 m 36.01,-29.76 c 0.27,0 0.56,0.28 0.85,0.56 -0.29,-0.28 -0.58,-0.28 -0.58,-0.28 0,0 0,-0.28 -0.27,-0.28 m 3.68,-0.57 c 0,-1.13 -0.86,-2.27 -1.98,-2.55 -1.43,-0.29 -1.99,-1.7 -3.41,-4.54 -1.7,-3.12 -3.68,-7.08 -8.5,-11.05 -3.69,-3.4 -9.35,-4.25 -15.59,-2.55 -8.23,1.98 -18.71,8.78 -23.53,21.54 -7.66,19.56 11.62,32.6 11.9,32.88 0.29,0.28 0.57,0.28 1.14,0.28 6.23,-0.28 39.11,-28.34 39.97,-34.01" /><path
         id="path188"
         style="fill:#fdfdfd;fill-opacity:1;fill-rule:evenodd;stroke:none"
         d="m 1166.77,1388.28 c 0,0 2.27,-4.25 2.55,-11.34 0.27,-6.8 9.07,-15.59 13.6,-16.73 4.83,-1.14 9.07,3.41 11.91,3.13 2.84,-0.57 -20.41,23.52 -28.06,24.94" /><path
         id="path190"
         style="fill:#95362c;fill-opacity:1;fill-rule:evenodd;stroke:none"
         d="m 1169.88,1384.88 c 0.57,-1.99 1.13,-4.55 1.42,-7.95 0.28,-5.95 7.93,-14.17 12.19,-15.02 1.98,-0.57 3.96,0.57 6.23,1.7 0.85,0.28 1.7,0.57 2.27,0.85 -3.4,4.54 -15.02,16.17 -22.11,20.42 m 26.93,-21.84 c 0,-1.13 -1.13,-1.7 -2.27,-1.7 -0.57,0.29 -1.98,-0.56 -3.12,-1.13 -2.56,-1.14 -5.38,-2.55 -8.78,-1.7 -5.39,1.13 -14.74,10.49 -15.04,18.42 -0.27,6.52 -2.54,10.49 -2.54,10.77 -0.28,0.57 -0.28,1.14 0.28,1.71 0.29,0.56 1.14,0.85 1.71,0.85 6.52,-1.42 30.61,-23.25 29.76,-27.22" /><path
         id="path192"
         style="fill:#b92c31;fill-opacity:1;fill-rule:evenodd;stroke:none"
         d="m 1158.83,1401.03 c 0,0 10.49,-7.94 18.98,-11.34 8.23,-3.12 15.89,-8.5 17.59,-13.04 1.7,-4.82 9.06,-1.13 10.2,-9.64 0.56,-8.78 1.42,-9.35 5.1,-13.04 0,0 -13.04,3.41 -17.29,9.08 -4.25,5.38 -3.97,5.95 -8.78,10.2 -4.82,4.25 -23.25,14.46 -25.8,27.78" /><path
         id="path194"
         style="fill:#95362c;fill-opacity:1;fill-rule:evenodd;stroke:none"
         d="m 1193.69,1376.09 c -1.42,3.69 -8.5,8.79 -16.72,12.19 -4.82,1.7 -10.2,5.1 -14.18,7.94 4.25,-7.66 12.77,-13.89 18.43,-17.86 l 4.53,-3.69 6.24,-6.8 2.83,-3.69 c 2.27,-2.83 6.81,-4.81 10.49,-6.52 -0.85,1.99 -1.13,4.54 -1.7,9.08 -0.28,3.96 -1.98,4.25 -4.53,5.1 -1.99,0.57 -4.26,1.42 -5.39,4.25 m 13.61,-9.07 c 0.85,-7.94 1.41,-8.5 4.53,-11.62 0.57,-0.57 0.85,-1.7 0.29,-2.27 -0.29,-0.57 -1.14,-1.13 -1.98,-0.85 -0.58,0 -13.33,3.68 -18.15,9.64 l -2.84,3.97 -5.66,6.23 -4.54,3.12 c -7.37,5.39 -19.84,14.17 -22.11,25.51 0,0.85 0.28,1.7 0.85,1.99 0.85,0.28 1.7,0.28 2.27,-0.29 0,0 10.49,-7.93 18.42,-11.05 7.37,-2.84 16.74,-8.22 18.71,-14.18 0.57,-1.13 1.14,-1.41 3.12,-1.98 2.55,-0.85 6.52,-1.98 7.09,-8.22" /><path
         id="path196"
         style="fill:#95362c;fill-opacity:1;fill-rule:evenodd;stroke:none"
         d="m 1155.14,1419.18 c -0.85,0.27 -1.98,-0.29 -2.27,-1.43 -1.41,-7.93 4.25,-17 4.25,-17.57 0.58,-0.84 1.7,-1.13 2.56,-0.57 0.85,0.57 1.12,1.71 0.57,2.55 0,0 -5.11,8.23 -3.68,14.75 0.28,1.14 -0.3,1.98 -1.43,2.27" /><path
         id="path198"
         style="fill:#000000;fill-opacity:1;fill-rule:evenodd;stroke:none"
         d="m 1155.43,1419.46 c -4.54,0 -10.5,-2.83 -10.21,-3.69 0.56,-0.85 6.53,-0.28 9.36,0 2.82,0.29 9.91,-1.98 10.49,-1.13 0.56,0.85 -6.52,4.82 -9.64,4.82" /><path
         id="path200"
         style="fill:#bb5f75;fill-opacity:1;fill-rule:evenodd;stroke:none"
         d="m 1331.74,1685.35 c 4.82,5.1 16.16,5.1 41.67,10.77 25.52,5.67 39.4,-13.04 33.16,-30.05 -6.52,-17 -8.22,-34.58 -24.37,-39.68 -16.15,-4.82 -33.17,-1.7 -43.94,10.2 -10.77,11.91 -26.93,27.22 -6.52,48.76" /><path
         id="path202"
         style="fill:#000000;fill-opacity:1;fill-rule:evenodd;stroke:none"
         d="m 1351.86,1690.73 21.84,4.25 c 1.98,0.57 3.68,0.85 5.66,1.14 9.07,0.56 17.3,-1.99 22.39,-7.66 5.11,-5.95 6.52,-14.17 3.68,-21.82 l -3.68,-11.06 c -4.25,-13.04 -7.64,-24.38 -19.84,-28.06 -16.43,-5.1 -32.87,-1.14 -42.8,9.92 l -1.7,1.7 c -11.05,12.19 -23.52,25.51 -4.82,45.64 2.84,3.12 8.79,3.97 19.27,5.95 m 51.59,-0.85 c -6.79,7.37 -17.86,10.2 -30.32,7.37 l -21.54,-4.25 c -11.34,-2.27 -17.29,-3.12 -20.7,-6.81 -19.84,-21.26 -5.68,-36.85 4.81,-48.47 l 1.71,-1.7 c 10.77,-11.9 28.07,-15.87 45.07,-10.49 13.34,3.97 17.29,16.16 21.25,29.48 l 3.7,10.78 c 3.39,8.5 1.7,17.57 -3.98,24.09" /><path
         id="path204"
         style="fill:#8f4b61;fill-opacity:1;fill-rule:evenodd;stroke:none"
         d="m 1336.56,1689.32 c 0,0 -13.9,13.61 -27.22,5.95 -13.33,-7.38 -14.73,18.43 -23.24,4.25 -8.79,-14.17 -14.45,-56.13 -5.11,-63.22 9.64,-7.07 5.39,-2.82 17.3,5.68 11.9,8.79 15.58,-8.5 29.2,-3.41 13.61,5.39 18.71,34.31 9.07,50.75" /><path
         id="path206"
         style="fill:#000000;fill-opacity:1;fill-rule:evenodd;stroke:none"
         d="m 1337.98,1653.32 c -2.55,-7.09 -6.24,-11.91 -11.05,-13.62 -5.96,-2.25 -9.64,0 -13.61,2.55 -4.54,2.84 -9.07,5.68 -15.88,0.57 -3.96,-2.82 -6.23,-5.37 -7.65,-7.07 -2.55,-2.57 -2.55,-2.57 -7.94,1.41 -8.5,6.23 -3.68,47.61 5.1,61.79 1.42,2.28 2.84,3.69 3.97,3.69 1.14,0.29 2.84,-1.71 4.26,-3.41 2.55,-3.12 5.67,-6.8 10.2,-6.23 1.42,0 2.83,0.57 4.53,1.41 2.27,1.43 4.26,2 6.53,2 9.63,0.84 18.42,-6.82 19.26,-7.66 5.4,-9.07 6.24,-23.82 2.28,-35.43 m -0.58,36.57 0,0.27 c -0.27,0 -14.73,14.18 -28.62,6.25 -5.67,-3.41 -8.78,0.27 -11.9,3.97 -2,2.55 -3.69,4.53 -6.24,4.53 -1.99,-0.28 -3.69,-1.71 -5.67,-4.82 -8.79,-14.18 -14.45,-56.98 -4.53,-64.64 6.51,-4.81 7.36,-4.81 11.05,-1.13 1.42,1.7 3.39,3.98 7.37,6.81 5.67,3.96 9.07,1.98 13.32,-0.58 3.96,-2.82 8.51,-5.66 15.59,-2.82 5.39,1.97 9.63,7.36 12.19,15.02 4.26,12.48 3.41,27.21 -2.56,37.14" /><path
         id="path208"
         style="fill:#bb5f75;fill-opacity:1;fill-rule:evenodd;stroke:none"
         d="m 1281,1690.45 c 0,0 -18.98,22.96 -40.54,22.11 -21.26,-0.57 -28.91,-17.86 -28.05,-26.93 1.13,-9.35 6.5,-15.87 1.98,-26.93 -4.82,-11.05 17,-24.38 36.56,-18.99 19.56,5.1 27.78,7.09 27.78,7.09 0,0 7.09,33.45 2.27,43.65" /><path
         id="path210"
         style="fill:#000000;fill-opacity:1;fill-rule:evenodd;stroke:none"
         d="m 1277.88,1647.64 c -1.42,-0.27 -27.21,-7.09 -27.21,-7.09 -1.99,-0.55 -3.97,-0.84 -5.67,-0.84 -11.34,-1.14 -22.11,3.4 -27.21,9.07 -2.84,3.11 -3.69,6.52 -2.56,9.36 3.41,7.93 1.71,13.89 0.29,19.56 l -1.99,7.93 c -0.28,3.97 0.85,10.78 6.24,16.73 3.12,3.68 9.07,8.21 18.72,9.07 0.56,0 1.41,0 1.97,0.28 20.41,0.57 38.85,-20.98 39.7,-21.82 4.24,-9.36 -1.71,-38.57 -2.28,-42.25 m 4.25,43.09 c 0,0.29 -0.28,0.29 -0.28,0.29 -0.85,0.85 -19.84,23.53 -41.39,22.68 -11.62,-0.29 -18.71,-5.67 -22.38,-9.92 -5.68,-6.24 -7.09,-13.89 -6.53,-18.43 l 1.7,-8.22 c 1.7,-5.67 3.12,-10.77 0,-18.15 -1.41,-3.68 -0.57,-7.66 2.83,-11.61 6.52,-7.09 21.26,-12.48 35.15,-8.8 l 27.78,7.09 c 0.3,0 0.85,0.29 0.85,0.86 0.3,1.41 7.09,34.01 2.27,44.21" /><path
         id="path212"
         style="fill:#000000;fill-opacity:1;fill-rule:evenodd;stroke:none"
         d="m 1312.46,1683.36 c 3.12,-9.07 -0.27,-16.16 0,-16.16 0.28,0 0,10.77 -2.55,15.32 -2.84,8.21 -9.35,11.91 -9.35,12.18 -0.57,-0.27 7.37,-0.84 11.9,-11.34" /><path
         id="path214"
         style="fill:#000000;fill-opacity:1;fill-rule:evenodd;stroke:none"
         d="m 1351.3,1675.14 c 6.52,0.85 11.62,-1.13 11.62,-1.13 0,0 -7.65,-0.57 -11.05,-1.42 -6.23,-0.85 -10.21,-3.69 -10.21,-3.69 0,-0.56 1.7,4.82 9.64,6.24" /><path
         id="path216"
         style="fill:#000000;fill-opacity:1;fill-rule:evenodd;stroke:none"
         d="m 1353.28,1654.73 c 7.66,-1.13 12.76,-4.82 12.76,-4.82 0,0.28 -8.79,1.7 -13.03,2.27 -7.09,1.13 -13.05,0.57 -13.05,0.57 0,-0.29 4.26,3.11 13.32,1.98" /><path
         id="path218"
         style="fill:#000000;fill-opacity:1;fill-rule:evenodd;stroke:none"
         d="m 1270.51,1686.2 c 9.65,-4.25 11.62,-12.76 11.62,-12.47 0.58,0.28 -7.08,8.79 -12.47,9.91 -8.21,3.41 -15.87,1.71 -15.87,2.28 -0.28,-0.85 5.67,4.25 16.72,0.28" /><path
         id="path220"
         style="fill:#000000;fill-opacity:1;fill-rule:evenodd;stroke:none"
         d="m 1264.84,1668.63 c 9.07,1.97 16.45,-0.86 16.45,-0.86 0,0.28 -10.77,0 -15.88,-1.7 -8.51,-1.69 -14.18,-6.52 -14.46,-6.24 0.28,-0.56 2.84,5.96 13.89,8.8" /><path
         id="path222"
         style="fill:#000000;fill-opacity:1;fill-rule:nonzero;stroke:none"
         d="m 317.703,1179.45 c 9.711,0 20.473,-2.58 31.981,-7.69 26.66,-11.84 60.043,-25.64 95.382,-40.25 174.68,-72.23 308.93,-131.16 316.989,-177.436 1.07,-6.222 0.371,-15.429 -9.121,-24.043 -3.289,-2.988 -3.368,-5.16 -3.079,-6.726 3.758,-19.782 79.329,-48.571 119.93,-64.032 l 6.852,-2.609 c 12,-4.66 24.238,-10.43 27.937,-18.562 0.821,1.769 1.68,3.64 2.59,5.613 2.691,5.828 5.941,12.867 9.859,21.25 19.024,40.797 34.832,151.835 41.571,199.255 1.172,8.2 2.062,14.49 2.66,18.19 -11.527,19.65 -22.277,39.9 -32.688,59.5 -26.281,49.51 -51.113,96.28 -80.812,117.96 -34.109,24.69 -97.617,38.29 -178.809,38.29 -125.242,0 -261.289,-32.24 -330.859,-78.41 -13.289,-8.73 -30.77,-28.47 -41.25,-45.37 5.898,3.34 12.91,5.07 20.867,5.07 m 582.692,-367.946 -2.489,0 -1.98,1.867 c -2.301,2.332 -2.262,5.172 -2.172,12.012 0.031,2.211 0.07,4.859 0.031,7.801 -0.019,0.007 -0.961,4.41 -21.43,12.371 l -6.808,2.609 c -66.961,25.488 -122.774,48.578 -127.391,72.93 -0.851,4.508 -0.371,11.25 6.77,17.75 5.949,5.398 5.929,10.121 5.39,13.187 -7.562,43.5 -182.25,115.739 -309.8,168.469 -35.411,14.65 -68.86,28.48 -95.661,40.38 -9.98,4.42 -19.109,6.67 -27.152,6.67 -15.019,0 -24.59,-7.95 -28.437,-23.63 l -3.231,-13.19 -7.512,11.32 c -1,1.52 -1.468,2.93 -1.82,3.96 -6.859,23.11 34.942,70.61 54.82,83.68 71.313,47.32 210.071,80.38 337.422,80.38 83.668,0 149.66,-14.41 185.821,-40.56 31.918,-23.32 57.371,-71.26 84.32,-122.01 10.68,-20.12 21.719,-40.91 33.527,-60.92 l 1.133,-1.92 -0.41,-2.2 c -0.531,-2.9 -1.531,-9.97 -2.949,-19.92 -6.832,-47.94 -22.801,-160.196 -42.571,-202.618 -3.91,-8.359 -7.16,-15.379 -9.839,-21.199 -12.09,-26.2 -12.563,-27.219 -17.582,-27.219" /><path
         id="path224"
         style="fill:#bb5f75;fill-opacity:1;fill-rule:evenodd;stroke:none"
         d="m 347.266,1166.32 c 141.73,-62.93 462.332,-176.879 401.672,-231.867 -28.633,-26.082 69.16,-61.801 125.57,-83.34 10.207,-3.968 24.949,-10.492 25.226,-17.859 0.293,-22.68 -3.679,-27.211 22.684,29.199 23.527,50.449 41.949,204.367 45.066,221.097 -41.668,70.58 -73.129,149.67 -116.218,181.13 -96.379,69.73 -394.301,41.1 -516.469,-39.97 -20.699,-13.6 -57.832,-58.67 -52.442,-76.82 0.282,-0.85 0.559,-1.7 1.129,-2.55 7.371,30.05 33.731,34.3 63.782,20.98" /><path
         id="path226"
         style="fill:#8f4b61;fill-opacity:1;fill-rule:evenodd;stroke:none"
         d="m 887.836,1115.58 c -64.91,-28.63 -117.07,-74.27 -160.438,-126.697 6.797,-6.231 15.02,-15.32 20.688,-22.403 5.102,-6.238 7.09,-10.769 8.512,-16.16 -3.692,70.87 82.48,120.76 131.238,165.26" /><path
         id="path228"
         style="fill:#000000;fill-opacity:1;fill-rule:evenodd;stroke:none"
         d="m 921.852,941.816 c 22.39,56.411 36.281,103.754 36.281,103.754 0.566,0 -18.422,-70.023 -33.16,-104.875 -11.063,-28.078 -23.813,-53.019 -36.293,-68.609 -11.899,-17.859 -27.207,-17.012 -26.918,-16.731 -0.289,0.29 11.898,-1.128 23.238,14.743 11.621,14.457 23.813,39.117 36.852,71.718" /><path
         id="path230"
         style="fill:#000000;fill-opacity:1;fill-rule:evenodd;stroke:none"
         d="m 858.07,1131.45 c 0.282,0.28 0.852,0.57 0.852,0.57 0,0 -0.281,-0.29 -0.852,-0.57" /><path
         id="path232"
         style="fill:#000000;fill-opacity:1;fill-rule:evenodd;stroke:none"
         d="m 801.094,1043.3 c 22.39,21.83 66.609,59.81 72.851,64.91 -5.101,-3.97 -38.832,-28.06 -75.402,-62.36 -30.328,-26.08 -47.91,-50.17 -53.289,-64.909 -3.121,-8.789 -1.141,-14.461 2.551,-13.89 -11.063,0.558 11.898,41.099 53.289,76.249" /><path
         id="path234"
         style="fill:#000000;fill-opacity:1;fill-rule:evenodd;stroke:none"
         d="m 741,1237.75 c 0.57,0.29 0.852,0.29 0.852,0.29 0,0.28 -0.282,0 -0.852,-0.29" /><path
         id="path236"
         style="fill:#000000;fill-opacity:1;fill-rule:evenodd;stroke:none"
         d="m 408.777,1217.35 c 24.661,12.47 74.274,30.9 83.621,34.02 -7.648,-1.99 -46.199,-11.91 -86.738,-30.62 -47.051,-20.69 -64.633,-44.5 -68.312,-50.17 4.531,5.67 30.043,29.48 71.429,46.77" /><path
         id="path238"
         style="fill:#000000;fill-opacity:1;fill-rule:evenodd;stroke:none"
         d="m 590.484,268.879 c -13.043,-2.551 -20.691,-19.563 -25.23,-32.031 -4.531,-12.762 -9.641,-30.629 -10.77,-50.18 -1.132,-19.84 -7.652,-45.352 -8.5,-55.551 -0.57,-9.941 11.618,-21.832 28.34,-28.07 17.008,-6.5197 43.66,0.281 53.578,7.09 9.641,6.801 10.2,47.91 10.493,85.609 0.277,37.699 -33.743,75.68 -47.911,73.133" /><path
         id="path240"
         style="fill:#5b5b5b;fill-opacity:1;fill-rule:evenodd;stroke:none"
         d="m 593.598,233.723 c -0.278,9.648 -1.981,19.289 4.543,28.629 -3.411,1.699 -6.243,2.55 -8.512,2.281 -11.621,-2.281 -18.418,-17.301 -22.391,-28.633 -3.687,-10.219 -7.937,-24.391 -9.359,-39.687 13.609,10.199 33.172,13.878 35.719,37.41" /><path
         id="path242"
         style="fill:#5b5b5b;fill-opacity:1;fill-rule:evenodd;stroke:none"
         d="m 580.844,182.988 c -14.457,-4.82 -15.02,-43.648 -22.11,-71.441 4.25,-3.391 9.641,-6.238 15.59,-8.5 13.891,-5.379 34.301,-1.699 46.77,3.402 -22.11,22.668 3.691,91.84 -40.25,76.539" /><path
         id="path244"
         style="fill:#000000;fill-opacity:1;fill-rule:evenodd;stroke:none"
         d="m 574.609,103.613 c -16.718,6.52 -28.351,17.86 -27.781,27.5 0.281,4.25 1.422,11.051 3.121,18.989 1.981,11.05 4.531,24.953 5.102,36.281 0.847,15.59 4.539,32.031 10.769,49.898 6.809,19.563 15.028,29.762 24.66,31.742 5.11,0.848 12.758,-3.39 20.7,-11.621 12.468,-12.48 26.64,-36 26.359,-60.66 -0.281,-34.859 -0.57,-78.23 -10.211,-84.758 -9.918,-7.089 -36.558,-13.3199 -52.719,-7.371 m 15.871,166.11 c -10.48,-1.981 -18.992,-12.758 -25.792,-32.59 -6.52,-18.43 -10.208,-34.871 -11.059,-50.449 -0.559,-11.629 -3.109,-25.243 -5.102,-36.012 -1.699,-8.231 -2.828,-15.309 -3.117,-19.559 -0.562,-10.492 11.34,-22.398 28.918,-28.922 17,-6.5191 43.652,0 53.852,7.09 10.211,7.371 10.488,49.321 10.781,86.461 0.277,25.223 -14.184,49.039 -26.652,61.801 -8.5,8.781 -16.442,13.031 -21.829,12.18" /><path
         id="path246"
         style="fill:#000000;fill-opacity:1;fill-rule:evenodd;stroke:none"
         d="m 595.582,211.047 c -9.641,9.066 -20.691,-0.274 -25.23,-21.531 -4.25,-21.262 -2.27,-33.18 1.14,-48.2 3.399,-15.031 3.11,-43.0816 2.828,-56.1324 -0.281,-13.0391 12.469,-9.6367 16.719,-8.7891 4.543,0.8516 5.672,16.461 5.961,30.0505 0.281,13.61 0.281,51.039 2.832,58.969 2.84,7.93 3.969,37.691 -4.25,45.633" /><path
         id="path248"
         style="fill:#000000;fill-opacity:1;fill-rule:evenodd;stroke:none"
         d="m 598.418,115.801 c -0.281,11.058 -0.281,27.5 0.57,38.551 l 0,0.847 c -0.57,0 -1.14,0.301 -1.422,0.301 -0.847,-11.348 -0.57,-27.789 -0.57,-39.699 l 0,-9.059 c -0.277,-24.3904 -3.117,-28.9217 -4.816,-29.2107 -3.684,-0.8516 -10.481,-2.8204 -13.891,0.8593 -1.41,1.4102 -2.262,3.6797 -2.262,6.5117 0,26.6487 -1.14,45.6487 -3.968,56.4177 -3.403,14.45 -5.672,26.352 -1.7,47.61 2.258,12.492 7.079,21.261 13.039,23.812 3.399,1.707 7.079,0.86 10.481,-2.25 1.141,-0.851 3.41,-2.84 4.539,-5.972 1.699,-4.25 -0.852,5.121 -3.398,7.371 -3.973,3.41 -8.223,4.539 -12.192,2.558 -6.238,-2.84 -11.34,-12.187 -13.89,-25.219 -3.969,-21.839 -1.7,-33.73 1.98,-48.488 2.559,-10.769 3.691,-29.48 3.691,-55.8397 0,-3.4023 0.848,-6.2304 2.829,-7.9296 3.968,-3.961 11.058,-1.9922 14.742,-1.1407 3.117,0.8477 5.109,6.8086 5.957,19.2891 0,3.3906 0.281,7.3589 0.281,11.6209" /><path
         id="path250"
         style="fill:#000000;fill-opacity:1;fill-rule:evenodd;stroke:none"
         d="m 593.883,211.895 c -0.281,-0.27 -0.281,-0.848 0,-1.418 1.129,-1.133 15.871,-18.993 18.43,-54.141 l 1.41,-24.941 c 0.847,-16.731 1.14,-23.52 5.668,-26.372 0.293,-0.277 0.57,0 0.851,0.571 0.289,0.281 0,0.851 -0.281,1.133 -3.688,2.269 -3.969,8.789 -4.82,24.668 l -1.418,24.941 c -2.551,35.148 -18.711,55.289 -18.711,55.559 -0.282,0.281 -0.852,0.281 -1.129,0" /><path
         id="path252"
         style="fill:#000000;fill-opacity:1;fill-rule:evenodd;stroke:none"
         d="m 567.805,154.922 c 0,-0.281 -2.832,-30.899 -8.793,-39.692 -0.278,-0.277 -0.278,-0.847 0,-1.128 0.293,-0.282 0.851,0 0.851,0.281 6.239,9.078 9.071,39.121 9.36,40.539 0,0.57 -0.289,0.851 -0.852,0.851 -0.289,0 -0.566,-0.281 -0.566,-0.851" /><path
         id="path254"
         style="fill:#000000;fill-opacity:1;fill-rule:evenodd;stroke:none"
         d="m 687.426,316.211 c -18.707,0.281 -36,-27.5 -43.938,-47.059 -8.222,-19.55 -8.5,-46.203 -6.519,-52.722 1.699,-6.52 12.476,-31.18 15.027,-41.95 2.551,-10.769 -2.84,-45.628 -5.109,-62.359 -1.981,-16.9999 -4.25,-42.5194 18.148,-45.9296 22.391,-3.1016 96.66,-6.5117 105.453,-1.9805 8.778,4.5391 5.379,15.0196 -5.961,41.3911 -11.339,26.359 -19.269,60.66 -22.109,92.687 -3.121,32.313 -9.922,67.461 -20.121,86.461 -9.93,18.992 -25.801,31.191 -34.871,31.461" /><path
         id="path256"
         style="fill:#5b5b5b;fill-opacity:1;fill-rule:evenodd;stroke:none"
         d="m 705.566,197.441 c -5.39,5.95 -11.91,-5.101 -17.57,-4.82 -12.762,-21.832 6.231,-90.422 -14.461,-83.34 -20.98,7.09 -17.578,28.918 -21.539,43.942 -1.141,-14.172 -3.691,-30.903 -5.109,-41.102 -1.981,-17.0116 -4.25,-42.5194 18.14,-45.9218 22.399,-3.1289 96.668,-6.5195 105.45,-1.9883 0.289,0 0.289,0.2891 0.57,0.2891 -52.723,17.293 -54.422,79.082 -65.481,132.941" /><path
         id="path258"
         style="fill:#5b5b5b;fill-opacity:1;fill-rule:evenodd;stroke:none"
         d="m 720.023,237.41 c 0.852,14.172 1.981,28.352 2.832,42.242 0,0.282 -0.281,0.559 -0.281,0.852 -9.922,18.988 -21.261,31.457 -30.051,31.457 -9.347,0.269 -19.839,-6.809 -28.91,-16.16 -2.828,-13.321 -3.968,-27.488 -4.527,-39.11 23.519,15.582 45.066,-1.988 60.937,-19.281" /><path
         id="path260"
         style="fill:#000000;fill-opacity:1;fill-rule:evenodd;stroke:none"
         d="m 665.316,67.0508 c -20.41,2.832 -20.41,24.3789 -17.57,44.7892 l 0.852,5.672 c 2.55,18.711 6.23,47.328 3.961,57.25 -1.704,6.527 -6.231,18.418 -9.922,28.07 l -5.102,13.891 c -1.976,6.519 -1.418,32.879 6.524,52.16 7.937,19.558 25.226,46.758 43.367,46.476 8.222,0 24.09,-11.617 34.301,-31.179 10.769,-20.117 17.289,-57.539 19.839,-85.891 3.122,-33.156 11.34,-67.187 22.403,-92.969 11.047,-26.0778 14.449,-36.3005 6.226,-40.5505 -8.5,-4.2382 -82.769,-1.1172 -104.879,2.2813 m 22.11,249.7302 c -19.559,0.289 -36.848,-27.789 -44.789,-47.351 -8.219,-20.41 -8.219,-46.758 -6.52,-53.278 l 5.11,-13.89 c 3.679,-9.352 8.5,-21.262 9.921,-28.063 2.258,-9.359 -1.703,-38.84 -3.972,-56.687 l -0.848,-5.391 c -1.699,-13.8905 -5.672,-42.8007 18.707,-46.4999 22.672,-3.3906 96.942,-6.5117 105.731,-1.9688 9.351,4.8204 5.953,15.2969 -5.668,42.2307 -11.063,25.797 -18.993,59.527 -22.11,92.406 -2.55,28.621 -9.07,66.051 -19.84,86.742 -10.769,19.852 -26.652,31.75 -35.722,31.75" /><path
         id="path262"
         style="fill:#000000;fill-opacity:1;fill-rule:evenodd;stroke:none"
         d="m 695.93,195.176 c -6.801,-4.25 -8.793,-31.75 -10.492,-62.078 -0.282,-9.641 -0.848,-17.293 -1.418,-19.282 -1.981,-5.949 -9.633,-8.5 -17.571,-6.242 -7.652,2.281 -7.941,8.231 -8.5,27.793 -0.851,19.258 -5.39,39.117 -5.39,39.399 0,0.269 -0.571,0.57 -0.852,0.57 -0.277,-0.301 -0.57,-0.57 -0.57,-1.148 0,0 4.543,-19.833 5.39,-38.821 0.571,-19.84 0.852,-26.359 9.352,-28.91 8.789,-2.84 17.289,0.27 19.559,7.078 0.57,1.992 1.14,9.352 1.421,19.563 1.129,21.257 3.118,56.687 9.918,60.949 1.422,1.129 2.832,1.129 3.969,0.551 6.524,-2.821 9.07,-26.071 11.621,-48.75 3.973,-33.16 15.871,-58.6722 32.879,-69.7308 0.293,-0.293 0.57,0 0.852,0.2891 0.289,0.2695 0.289,0.5703 -0.282,0.8515 -16.437,11.0391 -28.058,36.0002 -32.027,68.8792 -2.551,23.808 -5.391,46.758 -12.473,49.89 -1.707,0.571 -3.41,0.571 -5.386,-0.851" /><path
         id="path264"
         style="fill:#000000;fill-opacity:1;fill-rule:evenodd;stroke:none"
         d="m 673.535,263.203 c -6.801,0 -14.172,-3.691 -22.109,-11.621 -17.012,-16.437 -15.02,-34.859 -15.02,-35.148 0,-0.289 0.278,-0.563 0.559,-0.563 0.57,0 0.851,0.274 0.851,0.852 0,0 -1.703,18.129 14.457,34.011 7.653,7.661 14.743,11.047 20.981,11.047 6.801,-0.277 13.601,-4.527 20.973,-13.316 0.289,-0.57 0.847,-0.57 1.136,-0.281 0.282,0.281 0.282,0.847 0,1.129 -7.66,9.082 -14.738,13.621 -21.828,13.89" /><path
         id="path266"
         style="fill:#f6d7c4;fill-opacity:1;fill-rule:evenodd;stroke:none"
         d="m 1029,1186.73 -0.85,-0.85 c -12.76,-15.02 -49.326,-59.81 -74.267,-85.04 -28.34,-29.2 -88.719,-87.31 -92.688,-93.54 -3.972,-5.96 -11.621,-55.566 -23.82,-68.878 -11.91,-13.609 -15.582,8.5 -19.832,9.351 -3.969,0.848 -37.988,-15.871 -48.188,-21.539 -9.929,-5.671 -15.32,-5.113 -17.863,-3.691 -2.547,1.691 -1.988,5.949 0.571,10.488 0,0 -12.477,8.223 -7.661,17.293 0,0 -7.66,12.469 -5.386,17.578 0,0 -11.903,4.813 -9.364,9.352 2.274,4.82 19.293,18.988 35.434,26.076 16.168,7.08 57.84,16.44 74,15.59 4.25,-0.28 48.75,69.16 88.707,131.81 27.793,43.37 48.199,73.13 61.812,88.44 -2.851,4.82 10.485,6.24 13.875,6.8 25.79,3.12 92.7,5.96 152.5,13.61 4.26,0.57 8.52,1.13 12.47,1.7 3.98,0.57 7.68,1.13 11.35,1.7 5.97,-1.42 10.22,-1.42 16.15,-1.7 l 7.66,-9.07 10.2,-15.02 0.85,-1.14 8.52,-14.74 -2.28,-8.22 -1.7,-10.2 c -17.86,0 -23.25,-2.55 -42.81,-1.42 -87.59,3.97 -138.6,-7.09 -142.58,-13.32 -3.95,-1.99 -1.99,-2.84 -4.81,-0.57" /><path
         id="path268"
         style="fill:#000000;fill-opacity:1;fill-rule:evenodd;stroke:none"
         d="m 995.266,1242.01 c -15.012,-15.02 -41.09,-54.43 -65.762,-92.69 l -9.359,-14.74 c -63.211,-98.37 -76.809,-118.21 -81.34,-117.92 -15.602,0.85 -57.27,-8.51 -72.86,-15.31 -16.152,-7.092 -32.59,-21.264 -34.59,-25.233 l 0,-0.851 c 0.848,-1.981 5.387,-4.528 8.239,-5.668 1.121,-0.571 1.699,-1.7 1.398,-2.832 -1.398,-2.84 2.274,-11.34 5.102,-15.879 0.289,-0.559 0.289,-1.41 0,-1.981 -3.949,-7.371 6.519,-14.179 6.82,-14.461 0.852,-0.566 1.121,-1.699 0.852,-2.547 -2.563,-4.543 -2.274,-7.371 -1.422,-7.941 1.121,-0.559 5.39,-2.262 15.59,3.691 4.82,2.829 43.652,22.957 49.879,21.829 2.273,-0.571 3.402,-2.84 5.39,-6.231 1.699,-2.848 3.973,-7.09 6.52,-7.379 1.41,-0.289 3.41,1.141 5.679,3.68 7.641,8.219 13.602,32.039 17.84,49.332 2.563,10.769 4.274,17.001 5.672,19.271 2.559,3.69 24.102,24.95 49.051,49.61 l 43.937,44.22 c 19.832,20.12 47.621,53.01 64.048,72.85 l 8.79,9.92 c 3.69,4.54 3.4,2.27 8.51,5.95 10.77,7.09 61.8,16.16 142.86,12.48 17.59,-0.86 24.09,0.85 42.8,1.13 l 1.7,-3.97 c -19.27,0 -26.64,-1.98 -44.22,-1.13 -82.19,3.68 -129.81,-5.67 -139.46,-11.06 -3.96,-2.27 -6.8,-3.68 -9.64,-7.08 l -7.65,-8.79 c -16.71,-19.84 -44.206,-52.73 -64.347,-73.14 l -43.938,-43.93 c -22.671,-22.4 -46.203,-45.64 -48.472,-49.33 -1.41,-1.7 -3.399,-9.634 -5.367,-18.142 -4.543,-17.57 -10.5,-41.672 -18.442,-50.73 -3.39,-3.981 -6.519,-5.391 -9.91,-5.11 -0.859,0 -1.422,0.278 -1.988,0.571 -3.692,1.699 -5.961,5.949 -7.942,9.347 -0.839,1.43 -1.992,3.692 -2.539,3.969 -3.703,0 -34.312,-14.457 -46.222,-21.539 -10.2,-5.668 -16.149,-5.391 -19.559,-3.969 -0.269,0.282 -0.559,0.282 -0.851,0.559 -3.11,2 -3.387,5.961 -0.84,11.633 -4.539,3.398 -10.207,10.199 -7.379,17.289 -1.129,1.98 -5.949,11.051 -5.102,16.719 -2.828,1.14 -7.937,3.968 -9.629,7.371 l 0.282,4.25 c 2.839,5.39 20.687,19.847 36.281,26.652 16.168,7.09 57.84,16.44 74.547,15.87 5.672,3.69 45.64,65.77 77.953,115.94 l 9.648,15.02 c 30.321,47.06 49.61,74.84 62.078,89.01 3.114,3.12 6.243,5.39 9.922,6.24 8.496,1.42 25.506,2.83 52.156,4.82 30.6,2.27 67.47,4.82 102.61,9.35 5.11,0.57 10.21,1.14 15.31,1.99 8.49,1.41 16.73,1.41 26.35,0.56 l 2.27,-3.4 c -9.64,0.57 -17.84,0.29 -27.77,-1.13 -3.12,-0.29 -6.23,-0.85 -9.36,-1.14 -37.14,-4.81 -76.53,-7.93 -108.56,-10.2 -26.65,-1.99 -49.9,-3.69 -55.564,-5.67" /><path
         id="path270"
         style="fill:#bb5f75;fill-opacity:1;fill-rule:evenodd;stroke:none"
         d="m 1212.69,1297.29 c 8.22,-19.29 13.32,-43.09 14.17,-64.06 0.85,-21.27 -3.13,-39.69 -13.04,-48.77 -19.84,-18.14 -40.25,24.38 -50.45,53.29 -11.07,31.18 -7.37,67.18 10.2,76.82 7.94,4.54 15.03,5.39 25.5,-4.52 3.41,-3.12 10.5,-7.66 13.62,-12.76" /><path
         id="path272"
         style="fill:#000000;fill-opacity:1;fill-rule:evenodd;stroke:none"
         d="m 1191.99,1304.94 c -7.09,2.27 -14.17,-0.85 -20.98,-4.54 -16.72,-9.07 -14.74,-40.25 -5.1,-66.33 8.51,-22.67 22.68,-48.47 36.28,-51.87 4.26,-1.13 8.23,-0.28 11.91,3.12 9.64,7.93 13.04,24.94 12.19,43.94 -0.57,20.4 -11.06,68.03 -34.3,75.68 m -22.11,-2.27 0,0 c 7.09,3.97 14.74,7.37 22.96,4.82 24.66,-7.94 35.72,-56.69 36.28,-78.23 0.85,-19.85 -3.4,-37.42 -13.32,-45.93 -4.53,-3.96 -9.35,-5.1 -14.46,-3.96 -14.45,3.96 -28.91,30.33 -37.98,53.85 -9.92,26.37 -12.19,59.53 6.52,69.45" /></g></g></svg>