<?xml version="1.0" encoding="UTF-8" standalone="no"?>
<svg
   xmlns:dc="http://purl.org/dc/elements/1.1/"
   xmlns:cc="http://creativecommons.org/ns#"
   xmlns:rdf="http://www.w3.org/1999/02/22-rdf-syntax-ns#"
   xmlns:svg="http://www.w3.org/2000/svg"
   xmlns="http://www.w3.org/2000/svg"
   viewBox="0 0 248.03751 248.03751"
   height="248.03751"
   width="248.03751"
   xml:space="preserve"
   version="1.1"
   id="svg2"><metadata
     id="metadata8"><rdf:RDF><cc:Work
         rdf:about=""><dc:format>image/svg+xml</dc:format><dc:type
           rdf:resource="http://purl.org/dc/dcmitype/StillImage" /></cc:Work></rdf:RDF></metadata><defs
     id="defs6" /><g
     transform="matrix(1.25,0,0,-1.25,0,248.0375)"
     id="g10"><g
       transform="scale(0.1,0.1)"
       id="g12"><path
         id="path14"
         style="fill:#fcd01a;fill-opacity:1;fill-rule:evenodd;stroke:none"
         d="m 541.68,1307.14 c 0,0 25.23,-58.39 -12.758,-125.01 -38.262,-66.9 -131.524,-76.25 -130.672,-22.11 0,0 -17.859,-5.09 -22.398,-29.48 0,0 -1.704,5.95 -0.852,16.73 0,0 -67.75,-71.43 19.281,-144 0,0 12.75,-48.196 73.981,-31.184 0,0 21.828,-81.352 130.679,-63.223 108.848,18.442 481.889,100.637 530.069,259.377 48.2,158.46 -14.73,307.56 -109.41,354.33 -94.678,46.77 -503.998,-58.96 -477.92,-215.43" /><path
         id="path16"
         style="fill:#000000;fill-opacity:1;fill-rule:evenodd;stroke:none"
         d="m 543.098,1315.36 c -2.551,37.7 20.976,75.68 68.597,110.27 114.52,83.34 340.442,127.56 406.765,94.67 89.86,-44.5 156.77,-191.33 108,-351.49 -53.28,-175.747 -508.534,-253.99 -528.085,-257.388 -105.168,-17.563 -127,57.84 -127.848,61.23 0,0.571 -0.562,1.141 -1.132,1.418 -0.571,0.282 -1.418,0.571 -1.989,0.282 -19.84,-5.379 -36.281,-4.532 -49.32,2.847 -16.719,9.344 -21.262,26.631 -21.539,26.631 0,0.57 -0.281,1.14 -0.852,1.42 -26.648,22.39 -41.39,47.05 -43.09,72.85 l 0,0.85 c -1.699,28.35 12.469,51.02 19.84,60.95 l 0,-3.97 c 0.289,-3.97 0.852,-5.96 0.852,-6.24 0.289,-1.13 1.418,-1.98 2.558,-1.7 1.129,0 2.262,0.85 2.262,1.98 3.117,16.73 12.758,23.53 17.578,26.37 1.129,-16.16 10.77,-27.5 27.211,-32.04 31.75,-8.5 82.77,12.19 108,56.41 19.282,34.02 22.68,65.77 20.981,89.01 -1.422,22.4 -7.371,36.57 -7.942,37.99 -0.281,2.55 -0.57,5.1 -0.847,7.65 m 65.476,114.24 c -52.437,-37.99 -76.539,-80.79 -69.449,-123.03 l 0,-0.56 c 0.281,-0.57 24.383,-57.83 -12.469,-122.74 -24.101,-42.24 -72.57,-62.08 -102.621,-54.15 -15.301,4.26 -23.519,15.03 -23.238,30.9 0,0.85 -0.281,1.7 -1.133,1.99 -0.566,0.56 -1.418,0.56 -2.269,0.56 -0.571,-0.28 -12.469,-3.97 -19.84,-18.71 0.281,1.14 0,1.99 0,3.12 0.281,0.29 0.281,0.29 0.281,0.57 -0.281,0.85 -0.852,1.7 -1.699,1.98 -0.852,0.57 -1.992,0.29 -2.84,-0.56 -1.133,-1.14 -28.063,-30.05 -25.789,-70.3 l 0,-0.85 c 1.976,-27.22 16.719,-52.73 44.5,-75.97 0.847,-3.12 6.519,-19.28 23.527,-28.92 13.61,-7.649 30.621,-8.778 50.742,-3.957 4.539,-12.481 32.879,-79.371 132.95,-62.371 19.55,3.128 477.913,82.211 532.343,260.788 49.89,164.69 -17.02,310.96 -110.84,357.45 -67.464,33.45 -296.214,-11.05 -412.156,-95.24" /><path
         id="path18"
         style="fill:#c7962c;fill-opacity:1;fill-rule:evenodd;stroke:none"
         d="m 373.301,1130.26 c 0,-0.57 0.57,-11.34 9.922,-19.28 7.937,-6.8 19.277,-9.63 33.726,-8.5 1.422,0 2.551,1.42 2.274,2.84 0,1.41 -1.133,2.26 -2.551,2.26 -13.32,-1.13 -23.242,1.42 -30.051,7.09 -7.648,6.8 -8.219,15.87 -8.219,15.87 -0.281,1.42 -1.41,2.55 -2.832,2.27 -1.418,0 -2.55,-1.13 -2.269,-2.55" /><path
         id="path20"
         style="fill:#000000;fill-opacity:1;fill-rule:evenodd;stroke:none"
         d="m 596.105,1287.87 c -1.421,-0.28 -1.98,-1.7 -1.703,-3.12 7.653,-25.79 4.25,-141.45 -58.679,-222.52 -61.508,-78.804 -140.028,-56.69 -140.879,-56.41 -1.418,0.29 -2.828,-0.56 -3.121,-1.7 -0.278,-1.42 0.293,-2.83 1.703,-3.12 0.847,-0.29 82.769,-23.523 146.269,58.39 64.059,82.21 67.469,200.41 59.528,226.78 -0.289,1.42 -1.7,2.27 -3.118,1.7" /><path
         id="path22"
         style="fill:#000000;fill-opacity:1;fill-rule:evenodd;stroke:none"
         d="M 627.852,1245.06 C 622.184,989.941 469.391,974.633 467.98,974.352 c -1.417,0 -2.558,-1.129 -2.558,-2.547 0.289,-1.422 1.422,-2.551 2.84,-2.274 1.699,0 158.742,15.59 164.691,275.249 0,1.41 -1.133,2.55 -2.551,2.83 -1.422,0 -2.55,-1.13 -2.55,-2.55" /><path
         id="path24"
         style="fill:#000000;fill-opacity:1;fill-rule:evenodd;stroke:none"
         d="m 699,1208.21 c -1.422,-0.28 -2.551,-1.42 -2.27,-2.83 0,-1.14 13.61,-113.67 -53.57,-188.51 -0.851,-1.13 -0.851,-2.83 0.278,-3.68 1.132,-0.85 2.55,-0.85 3.691,0.28 68.59,76.54 54.699,191.34 54.699,192.47 -0.277,1.42 -1.41,2.27 -2.828,2.27" /><path
         id="path26"
         style="fill:#000000;fill-opacity:1;fill-rule:evenodd;stroke:none"
         d="m 772.418,1200.84 c -1.422,-0.27 -2.551,-1.41 -2.27,-2.82 0.29,-2 21.547,-192.48 -128.972,-275.536 -1.141,-0.57 -1.418,-2.269 -0.848,-3.398 0.559,-1.152 2.258,-1.699 3.399,-0.852 153.351,84.466 131.808,278.356 131.519,280.336 -0.277,1.43 -1.41,2.27 -2.828,2.27" /><path
         id="path28"
         style="fill:#000000;fill-opacity:1;fill-rule:evenodd;stroke:none"
         d="m 956.953,1283.61 c -1.422,-0.57 -1.98,-1.98 -1.699,-3.4 0.57,-1.42 49.606,-158.74 -114.801,-305.565 -0.851,-1.141 -0.851,-2.551 0,-3.692 0.852,-1.14 2.551,-1.14 3.68,-0.281 166.677,149.378 116.5,309.538 115.941,311.238 -0.293,1.13 -1.703,1.98 -3.121,1.7" /><path
         id="path30"
         style="fill:#000000;fill-opacity:1;fill-rule:evenodd;stroke:none"
         d="m 1024.41,1325.28 c -1.42,-0.28 -2.27,-1.7 -1.96,-3.12 0.26,-1.42 30.88,-145.7 -64.075,-303.02 -0.852,-1.14 -0.293,-2.84 0.84,-3.4 1.14,-0.85 2.84,-0.57 3.398,0.85 96.107,159.02 65.207,305.29 64.927,306.71 -0.3,1.41 -1.7,2.26 -3.13,1.98" /><path
         id="path32"
         style="fill:#f6d7c4;fill-opacity:1;fill-rule:evenodd;stroke:none"
         d="m 519.566,127.363 c 0,0 9.637,-18.992 28.059,-48.1911 l 293.672,0 c 0.848,94.6801 -1.981,186.8011 -15.301,212.8831 -28.922,56.699 -314.93,-25.793 -306.43,-164.692" /><path
         id="path34"
         style="fill:#000000;fill-opacity:1;fill-rule:evenodd;stroke:none"
         d="M 707.789,302.551 C 612.258,277.027 511.918,211.258 517.02,127.078 c 0,-0.277 0,-0.57 0.277,-0.859 0,-0.27 9.641,-18.981 27.211,-47.051 l 5.961,0 c -17.582,28.07 -27.5,47.051 -28.352,48.762 -4.527,81.078 93.539,144.558 186.801,169.508 58.68,15.871 104.891,13.05 114.809,-6.508 13.043,-25.52 15.871,-117.653 15.019,-211.762 l 5.102,0 c 0.57,50.742 0,100.641 -2.828,140.031 -2.274,34.871 -6.243,61.512 -12.762,73.989 -11.34,22.113 -58.668,25.8 -120.469,9.363" /><path
         id="path36"
         style="fill:#f6d7c4;fill-opacity:1;fill-rule:evenodd;stroke:none"
         d="m 788.855,261.445 c 0,0 -25.23,-87.601 -39.968,-182.2809 l 333.363,0 c 11.33,15.8828 20.69,31.1909 26.92,45.0699 32.32,70.871 -281.193,306.442 -320.315,137.211" /><path
         id="path38"
         style="fill:#000000;fill-opacity:1;fill-rule:evenodd;stroke:none"
         d="m 1083.1,197.383 c -52.72,63.199 -170.936,141.16 -242.936,124.148 -28.059,-6.508 -46.199,-26.636 -53.859,-59.519 -0.278,-1.43 -25.231,-88.719 -39.969,-182.8284 l 5.109,0 c 14.743,93.2574 39.403,180.2694 39.961,181.3984 l 0,0.301 c 7.09,30.879 23.821,49.601 49.891,55.84 70.019,16.429 185.963,-60.379 238.113,-122.461 18.43,-22.11 28.63,-41.379 29.48,-56.129 0.57,-4.809 -0.28,-9.059 -1.98,-12.75 -6.25,-14.168 -16.16,-30.051 -27.78,-46.1994 l 6.24,0 c 10.77,15.5781 20.11,30.3284 26.36,43.9184 7.65,17.011 -2.55,43.371 -28.63,74.281" /><path
         id="path40"
         style="fill:#f6d7c4;fill-opacity:1;fill-rule:evenodd;stroke:none"
         d="m 795.664,1166.26 c 0,0 31.75,-38.27 33.449,-66.05 0,0 -50.168,-37.13 -89.008,-70.3 -38.832,-32.879 -45.921,-88.441 -39.679,-119.051 6.519,-30.898 225.347,-58.398 304.434,-26.078 78.8,32.309 54.14,129.539 34.86,184.819 -18.99,55.27 -86.447,53.29 -100.056,52.44 -13.609,-1.13 -25.23,29.48 -31.75,53.57 -6.801,23.82 -120.469,24.67 -112.25,-9.35" /><path
         id="path42"
         style="fill:#000000;fill-opacity:1;fill-rule:evenodd;stroke:none"
         d="m 797.93,1168.81 c -0.852,10.49 13.32,15.59 22.109,17.86 32.031,8.22 81.641,1.42 85.32,-11.91 10.493,-37.41 22.11,-56.12 34.59,-55.27 13.039,0.85 79.081,2.55 97.511,-50.74 33.73,-97.512 22.39,-158.461 -33.73,-181.699 -67.75,-27.781 -241.519,-11.063 -289.71,14.168 -8.219,4.531 -10.481,7.941 -11.051,9.922 -0.848,3.699 -1.418,7.937 -1.699,12.468 -1.989,29.489 6.519,75.692 40.531,104.321 38.269,32.6 88.437,69.73 89.008,70.3 0.57,0.28 1.14,1.13 0.851,1.98 -1.699,27.5 -30.609,63.5 -33.73,67.18 l 0,1.42 z m 20.691,22.68 c -17.57,-4.54 -26.641,-12.48 -26.082,-22.68 0.289,-1.13 0.289,-1.98 0.57,-3.12 0,-0.28 0.282,-0.85 0.571,-1.13 0.281,-0.29 30.05,-36.85 32.879,-63.21 -6.52,-4.82 -52.161,-38.84 -88.161,-69.45 -35.429,-30.05 -44.5,-76.822 -42.226,-108.002 0.277,-5.109 0.848,-9.64 1.699,-13.609 1.129,-4.82 5.379,-9.07 13.598,-13.32 49.043,-25.801 225.359,-42.809 294.241,-14.461 59.24,24.101 71.43,87.32 36.57,187.942 -19.85,56.69 -89.01,54.99 -102.901,54.14 -8.789,-0.85 -19.84,18.71 -29.199,51.59 -5.102,18.71 -60.942,23.24 -91.559,15.31" /><path
         id="path44"
         style="fill:#3e4149;fill-opacity:1;fill-rule:evenodd;stroke:none"
         d="m 819.473,1098.51 c 0,0 -71.43,-60.38 -119.91,-162.428 -48.469,-102.043 -9.918,-191.621 -9.348,-212.582 0.566,-21.258 -48.473,-90.43 -74.832,-92.141 -26.371,-1.699 -40.82,12.473 -50.18,34.582 -9.07,22.399 14.738,72 25.231,143.719 10.488,71.731 9.918,128.981 18.429,153.07 8.5,24.379 3.68,70.58 25.789,95.53 22.391,25.23 116.219,6.52 184.821,40.25" /><path
         id="path46"
         style="fill:#4e525a;fill-opacity:1;fill-rule:evenodd;stroke:none"
         d="m 567.754,667.078 c -1.129,2.274 -1.699,5.102 -1.981,8.223 -0.847,12.758 3.961,31.168 10.2,54.711 5.39,21.828 12.472,48.758 17.011,79.359 4.532,32.32 7.079,62.367 9.348,86.469 2.273,29.762 4.25,53.289 9.07,66.031 3.121,9.078 4.262,20.418 5.961,32.609 2.551,21.83 5.379,46.49 19.27,62.08 9.922,11.34 36.851,13.32 68.031,15.59 31.469,2.55 69.449,5.95 103.18,19.28 -20.969,-20.41 -72.852,-75.12 -110.551,-154.211 -22.668,-47.899 -26.359,-93.27 -23.809,-129.828 1.7,-26.922 6.809,-49.321 10.489,-64.629 1.98,-8.223 3.402,-14.742 3.691,-18.703 l 0,-0.571 c 0.559,-20.129 -47.059,-87.867 -72.289,-89.578 -22.68,-1.41 -37.699,9.078 -47.621,33.168 m 250.578,433.702 c -35.707,-17.57 -79.078,-20.69 -113.949,-23.53 -33.731,-2.55 -60.379,-4.53 -71.43,-17.29 -15.027,-16.72 -18.14,-42.52 -20.699,-64.909 -1.41,-11.922 -2.828,-22.961 -5.672,-31.481 -4.809,-13.59 -7.078,-37.121 -9.348,-67.172 -2.269,-25.507 -4.82,-54.136 -9.351,-86.449 -4.539,-30.328 -11.34,-56.98 -17.008,-78.519 -7.941,-30.621 -13.609,-52.731 -7.941,-66.328 10.769,-26.082 28.058,-37.993 52.73,-36.293 28.059,1.992 77.949,73.14 77.102,94.679 0,4.532 -1.703,11.051 -3.692,20.41 -8.5,35.723 -25.789,109.981 12.758,191.051 47.621,100.351 118.492,161.301 119.344,161.861 0.847,0.85 1.129,2.27 0.277,3.12 -0.57,1.13 -1.98,1.42 -3.121,0.85" /><path
         id="path48"
         style="fill:#3e4149;fill-opacity:1;fill-rule:evenodd;stroke:none"
         d="m 939.379,1126.86 c 0,0 24.941,-9.07 48.762,-30.05 23.519,-20.97 82.479,-90.99 91.839,-114.798 9.35,-23.813 46.48,-373.614 139.45,-382.114 92.99,-8.218 78.53,83.051 73.7,136.911 -4.81,53.582 -52.14,62.929 -70.29,126.992 -18.14,64.07 -41.1,143.439 -66.61,192.479 -25.79,49.04 -40.25,47.9 -52.72,91.84 -12.19,43.94 -41.67,47.91 -70.31,43.37 -28.91,-4.25 -51.579,-56.69 -93.821,-64.63" /><path
         id="path50"
         style="fill:#4e525a;fill-opacity:1;fill-rule:evenodd;stroke:none"
         d="m 996.926,1162.57 c 12.464,12.76 24.374,24.66 36.564,26.36 24.94,3.97 55.28,2.84 67.74,-41.38 7.09,-25.8 15.31,-36.57 25.51,-50.18 7.66,-10.2 16.46,-21.54 27.22,-42.23 24.67,-47.63 47.33,-124.156 66.61,-192.175 8.79,-31.481 24.95,-50.473 39.41,-66.91 15.02,-17.571 28.34,-32.883 30.61,-59.532 l 0.86,-9.351 c 3.66,-36 8.2,-85.609 -16.16,-109.699 -12.2,-12.192 -30.91,-17 -55.57,-15.032 -72.84,6.813 -111.68,236.133 -128.42,334.211 -4.24,24.942 -7.08,41.379 -8.76,46.2 -9.36,23.808 -68.33,94.108 -92.708,115.658 -17,15.3 -34.578,24.09 -43.367,28.34 20.41,6.24 36.289,21.55 50.461,35.72 m 35.714,31.46 c -13.89,-2.26 -26.37,-14.74 -39.406,-28.06 -15.019,-15.02 -32.308,-32.31 -54.421,-36.57 -1.129,-0.28 -1.981,-1.13 -1.981,-2.26 -0.289,-1.14 0.563,-2.27 1.703,-2.55 0.278,0 24.938,-9.36 47.899,-29.77 24.086,-21.26 82.206,-90.42 91.276,-113.937 1.7,-4.262 4.53,-21.551 8.5,-45.078 18.42,-107.723 56.13,-331.371 132.95,-338.172 26.36,-2.559 46.48,3.109 59.81,16.16 26.07,26.07 21.26,76.809 17.57,113.949 l -0.84,9.36 c -2.56,28.351 -16.73,44.781 -32.04,62.351 -14.46,16.731 -29.76,34.309 -38.27,64.918 -19.26,68.313 -41.96,145.129 -66.9,193.029 -11.04,20.98 -19.84,32.6 -27.49,43.09 -10.5,13.61 -17.86,23.53 -24.95,48.47 -13.6,48.48 -48.48,49.04 -73.41,45.07" /><path
         id="path52"
         style="fill:#4e525a;fill-opacity:1;fill-rule:evenodd;stroke:none"
         d="m 630.684,1009.5 c -0.571,-1.13 0,-2.55 1.421,-3.12 62.079,-25.228 62.93,-74.548 63.208,-76.817 0,-1.122 1.132,-2.262 2.55,-2.262 1.422,0 2.551,1.14 2.551,2.551 0,0.281 -1.129,54.711 -66.328,81.068 -1.422,0.56 -2.832,0 -3.402,-1.42" /><path
         id="path54"
         style="fill:#4e525a;fill-opacity:1;fill-rule:evenodd;stroke:none"
         d="m 1081.39,1108.43 c -49.6,-44.22 -48.18,-123.586 -48.18,-124.438 0,-1.418 1.13,-2.551 2.55,-2.551 1.42,0 2.54,1.133 2.54,2.551 0,0.852 -1.41,78.238 46.5,120.758 1.14,0.85 1.14,2.55 0.29,3.4 -0.86,1.13 -2.57,1.13 -3.7,0.28" /><path
         id="path56"
         style="fill:#4e525a;fill-opacity:1;fill-rule:evenodd;stroke:none"
         d="m 596.387,720.09 c -1.129,-0.852 -1.418,-2.281 -0.571,-3.402 0.571,-1.141 2.27,-1.418 3.403,-0.848 56.699,37.976 87.879,7.078 89.297,5.949 0.851,-1.133 2.55,-1.133 3.679,-0.281 0.852,1.129 0.852,2.539 0,3.68 -0.277,0.289 -35.429,35.14 -95.808,-5.098" /><path
         id="path58"
         style="fill:#4e525a;fill-opacity:1;fill-rule:evenodd;stroke:none"
         d="m 1193.93,743.895 c -1.42,-0.278 -2.55,-1.418 -2.55,-2.829 0.28,-3.41 6.51,-87.601 43.65,-95.82 19.85,-4.25 32.02,7.09 36.29,19 5.38,13.891 1.41,28.34 -8.79,34.02 -1.41,0.558 -2.84,0.281 -3.39,-1.141 -0.85,-1.141 -0.3,-2.551 0.84,-3.398 9.07,-4.821 10.48,-17.86 6.8,-27.782 -1.98,-4.808 -9.64,-20.129 -30.6,-15.59 -33.47,7.083 -39.42,90.422 -39.7,91.27 0,1.141 -1.12,2.27 -2.55,2.27" /><path
         id="path60"
         style="fill:#fcd01a;fill-opacity:1;fill-rule:evenodd;stroke:none"
         d="m 639.473,1313.66 c -70.02,3.12 -144.852,1.98 -193.891,83.91 -48.758,81.63 -47.34,224.78 112.25,305.29 159.59,80.5 421.512,100.34 463.468,37.98 20.41,-30.61 34.86,-89.86 34.3,-145.13 -0.29,-57.83 -17.3,-111.4 -61.518,-122.46 -86.168,-21.54 -227.898,-164.98 -354.609,-159.59" /><path
         id="path62"
         style="fill:#000000;fill-opacity:1;fill-rule:evenodd;stroke:none"
         d="m 629.27,1316.49 c -66.614,2.83 -135.5,5.67 -181.422,82.21 -27.782,46.48 -35.43,105.73 -19.84,158.18 17.289,59.52 62.648,109.12 130.961,143.71 156.187,78.8 418.39,100.91 460.061,38.84 20.7,-30.63 34.59,-89.87 34.02,-143.73 0,-31.75 -6.52,-106.86 -59.53,-119.9 -33.454,-8.51 -75.68,-35.44 -120.473,-63.78 -73.129,-46.48 -156.188,-99.21 -233.578,-95.81 l -10.199,0.28 z m -72.571,388.64 c -69.73,-35.16 -115.929,-85.9 -133.793,-146.84 -15.59,-53.86 -7.937,-114.52 20.41,-162.15 47.34,-79.08 117.641,-81.92 185.954,-84.46 l 9.918,-0.57 c 79.089,-3.41 162.71,49.88 236.691,96.66 44.219,28.34 86.18,55 118.777,62.93 39.964,9.93 62.924,55.55 63.784,125 0.28,54.71 -14.18,115.09 -35.15,146.55 -42.813,63.79 -308.7,42.52 -466.591,-37.12" /><path
         id="path64"
         style="fill:#000000;fill-opacity:1;fill-rule:evenodd;stroke:none"
         d="m 531.758,1437.25 c -44.5,-45.07 -92.692,-20.69 -94.68,-19.56 -1.41,0.57 -2.832,0 -3.398,-1.13 -0.852,-1.14 -0.282,-2.84 0.847,-3.4 0.571,-0.29 53.86,-27.22 100.911,20.41 0.859,1.13 0.859,2.83 0,3.68 -1.129,1.13 -2.829,0.85 -3.68,0" /><path
         id="path66"
         style="fill:#000000;fill-opacity:1;fill-rule:evenodd;stroke:none"
         d="m 545.078,1405.22 c -32.601,-43.94 -87.871,-19.56 -90.14,-18.43 -1.141,0.57 -2.84,0 -3.399,-1.13 -0.57,-1.42 0,-2.83 1.41,-3.4 0.571,-0.28 60.949,-27.5 96.379,19.84 0.57,1.14 0.57,2.84 -0.57,3.69 -1.129,0.85 -2.828,0.56 -3.68,-0.57" /><path
         id="path68"
         style="fill:#000000;fill-opacity:1;fill-rule:evenodd;stroke:none"
         d="m 562.938,1375.46 c -25.508,-37.13 -72.278,-24.94 -72.848,-24.94 -1.422,0.28 -2.84,-0.57 -3.121,-1.71 -0.281,-1.41 0.57,-2.83 1.699,-3.11 0.57,-0.29 51.031,-13.04 78.52,26.93 0.851,1.13 0.57,2.55 -0.571,3.4 -1.129,0.85 -2.828,0.56 -3.679,-0.57" /><path
         id="path70"
         style="fill:#000000;fill-opacity:1;fill-rule:evenodd;stroke:none"
         d="m 1043.98,1679.9 c 0,-0.28 -1.43,-45.35 -68.035,-72 -1.14,-0.57 -1.992,-1.98 -1.422,-3.4 0.571,-1.14 1.993,-1.99 3.403,-1.42 70.024,28.06 71.144,74.84 71.144,76.82 0,1.42 -1.12,2.55 -2.55,2.55 -1.41,0 -2.54,-1.13 -2.54,-2.55" /><path
         id="path72"
         style="fill:#000000;fill-opacity:1;fill-rule:evenodd;stroke:none"
         d="m 1051.06,1641.35 c 0,-1.7 -2.83,-39.97 -55.556,-56.41 -1.422,-0.28 -2.27,-1.7 -1.711,-3.12 0.289,-1.41 1.711,-1.98 3.133,-1.7 56.404,17.58 59.234,60.38 59.234,60.95 0.29,1.41 -0.85,2.55 -2.27,2.55 -1.41,0 -2.55,-0.85 -2.83,-2.27" /><path
         id="path74"
         style="fill:#000000;fill-opacity:1;fill-rule:evenodd;stroke:none"
         d="m 1053.33,1596.27 c -0.28,-1.7 -7.37,-38.55 -48.19,-49.32 -1.42,-0.57 -2.27,-1.99 -1.98,-3.12 0.28,-1.42 1.7,-2.27 3.11,-1.99 44.23,11.63 51.88,53.02 51.88,53.3 0.28,1.41 -0.57,2.83 -1.99,3.11 -1.41,0.29 -2.83,-0.85 -2.83,-1.98" /><path
         id="path76"
         style="fill:#000000;fill-opacity:1;fill-rule:evenodd;stroke:none"
         d="m 828.828,1107.58 c -1.422,0 -2.551,-1.13 -2.551,-2.55 0,-0.28 1.7,-21.54 -4.25,-38.27 -0.57,-1.13 0.282,-2.55 1.7,-3.12 1.132,-0.56 2.55,0.29 3.121,1.42 6.23,17.86 4.808,39.4 4.531,40.25 0,1.42 -1.422,2.55 -2.551,2.27" /><path
         id="path78"
         style="fill:#f6d7c4;fill-opacity:1;fill-rule:evenodd;stroke:none"
         d="m 780.641,999.586 c -62.36,-3.973 -146.832,-67.473 -144,-158.461 2.828,-90.988 159.019,-92.969 234.988,-72 76.25,20.98 240.951,73.699 248.591,146.27 7.66,72.558 -30.04,124.155 -96.37,126.425 -66.33,2.27 -71.998,-32.03 -243.209,-42.234" /><path
         id="path80"
         style="fill:#000000;fill-opacity:1;fill-rule:evenodd;stroke:none"
         d="m 1097.27,1012.05 c -16.72,18.72 -40.24,29.77 -68.31,32.04 -1.71,0 -3.41,0 -5.11,0.28 -1.14,0 -3.4,-1.71 -3.4,-2.55 0,-0.86 2.26,-2.55 3.4,-2.55 1.7,0 3.69,-0.29 5.68,-0.29 26.35,-2.27 48.18,-12.75 63.77,-30.32 19.57,-22.113 28.34,-55.285 24.38,-92.984 -7.36,-70.86 -174.903,-124.442 -246.614,-144 -52.73,-14.449 -153.64,-18.988 -203.25,17.012 -18.421,13.32 -28.058,31.179 -28.628,52.437 -2.551,82.492 68.878,142.02 126.988,153.922 3.691,0.57 3.41,5.663 -0.281,5.093 -60.938,-11.613 -134.649,-71.995 -131.809,-159.015 0.57,-23.238 11.051,-42.238 30.609,-56.41 51.59,-37.699 152.512,-33.16 207.782,-17.86 90.14,24.661 242.933,77.11 250.303,148.262 3.97,39.11 -5.1,73.41 -25.51,96.933" /><path
         id="path82"
         style="fill:#000000;fill-opacity:1;fill-rule:evenodd;stroke:none"
         d="m 911.313,1061.66 c -15.02,-18.14 -50.168,-26.08 -50.461,-26.08 -1.411,-0.28 -2.258,-1.7 -1.981,-3.12 0.57,-1.41 1.703,-2.26 3.121,-1.98 1.699,0.57 37.129,8.5 53.289,28.06 0.852,1.14 0.571,2.84 -0.566,3.69 -1.133,0.85 -2.551,0.56 -3.402,-0.57" /><path
         id="path84"
         style="fill:#000000;fill-opacity:1;fill-rule:evenodd;stroke:none"
         d="m 917.836,995.051 c -63.777,-53.863 -31.457,-130.961 -31.18,-131.813 0.571,-1.129 2.27,-1.711 3.403,-1.129 1.418,0.559 1.976,1.981 1.418,3.11 -0.289,0.851 -31.18,74.551 29.761,125.859 1.141,0.852 1.141,2.551 0.278,3.692 -0.848,1.128 -2.547,1.128 -3.68,0.281" /><path
         id="path86"
         style="fill:#e22228;fill-opacity:1;fill-rule:evenodd;stroke:none"
         d="m 881.836,888.75 c 0,0 -32.031,66.891 -117.352,62.352 C 679.445,946.578 629.266,902.07 627.855,834.32 627.008,785 677.176,729.43 678.875,702.512 680.855,675.578 723.664,585.73 672.637,551.988 621.336,517.98 397.117,366.609 526.375,101.852 c 0,0 84.473,-33.1606 216.563,54.988 132.378,88.441 288.852,124.16 366.242,-32.59 0,0 98.08,114.801 -10.22,298.199 -108.272,183.692 -144.554,162.43 -110.546,217.129 33.726,54.711 160.726,86.461 162.716,225.082 1.69,138.61 -153.075,185.38 -269.294,24.09" /><path
         id="path88"
         style="fill:#a7362e;fill-opacity:1;fill-rule:evenodd;stroke:none"
         d="m 805.867,900.371 c -3.679,6.238 -22.387,35.719 -64.629,33.449 -47.34,-2.55 -75.121,-27.5 -75.968,-64.91 0,-1.988 0.289,-3.687 0.289,-5.398 52.152,2.281 106.859,0 140.308,36.859" /><path
         id="path90"
         style="fill:#a7362e;fill-opacity:1;fill-rule:evenodd;stroke:none"
         d="m 949.016,931.27 c 23.527,-51.032 104.874,-11.059 164.684,-5.95 -18.41,64.34 -97.23,80.78 -164.684,5.95" /><path
         id="path92"
         style="fill:#000000;fill-opacity:1;fill-rule:evenodd;stroke:none"
         d="m 883.816,887.051 c 68.032,94.379 143.434,111.398 191.344,96.082 42.23,-13.883 69.45,-53.293 73.13,-104.59 0.29,-4.543 0.29,-9.352 0.29,-13.883 -1.42,-93.558 -60.95,-138.051 -108.57,-174.058 C 1017.05,673.59 997.207,658.57 986.148,641 c -9.07,-14.738 -13.32,-24.379 -12.468,-33.449 0.566,-12.192 9.918,-23.809 26.64,-45.352 20.98,-26.359 52.45,-66.609 96.38,-140.879 33.45,-56.41 46.77,-106.3 49.89,-148.25 5.39,-80.218 -27.78,-131.82 -36.85,-144.289 -27.49,53.86 -66.05,87.59 -114.521,100.352 C 926.617,247.262 836.477,222.32 741.52,159.109 619.059,77.4805 537.43,100.723 528.359,103.84 c -22.402,45.922 -34.871,90.98 -37.992,134.64 -8.219,118.211 54.141,225.911 183.692,311.25 22.39,15.02 27.488,39.969 25.789,65.762 -1.418,20.969 -7.371,42.52 -12.192,60.098 -3.117,11.32 -5.668,20.973 -6.226,26.922 -0.852,11.629 -9.364,27.218 -19.563,45.629 -13.039,23.808 -29.199,53.019 -31.179,79.949 0,1.98 -0.29,4.242 0,6.242 1.128,67.168 51.3,109.688 134.07,114.219 82.211,4.539 114.238,-60.379 114.519,-60.93 0.571,-0.851 1.422,-1.422 2.27,-1.422 0.851,-0.277 1.699,0.274 2.269,0.852 m -1.699,6.242 c -8.219,13.887 -43.09,64.34 -117.64,60.367 -85.887,-4.808 -137.758,-49.32 -139.18,-119.328 -0.277,-30.051 17.582,-62.383 32.031,-88.742 9.918,-17.559 18.43,-33.149 18.988,-43.36 0.571,-6.531 3.122,-15.871 6.524,-27.789 10.207,-37.98 26.078,-95.519 -11.621,-120.468 C 491.508,435.492 439.348,274.48 524.098,100.723 c 0.289,-0.571 0.851,-0.8636 1.422,-1.1332 3.398,-1.4296 87.019,-32.5976 218.839,55.2622 93.821,62.66 182.547,87.32 249.438,69.461 48.193,-12.762 86.473,-46.77 113.113,-101.211 0.56,-0.84 1.13,-1.403 1.98,-1.403 0.85,0 1.7,0.281 2.27,0.852 1.13,1.129 98.08,118.199 -9.92,301.32 -44.22,74.828 -75.96,114.801 -96.66,141.449 -29.482,37.41 -33.174,41.942 -14.182,73.129 10.492,16.731 30.052,31.473 52.732,48.192 48.75,36.558 109.13,81.91 110.55,177.718 0.85,60.672 -28.63,108 -76.82,123.602 -49.32,15.879 -125.864,-1.129 -194.743,-94.668" /><path
         id="path94"
         style="fill:#a7362e;fill-opacity:1;fill-rule:evenodd;stroke:none"
         d="m 760.23,305.664 c -0.57,-1.129 0,-2.551 1.129,-3.398 1.141,-0.571 2.84,0 3.411,1.418 66.609,134.359 188.5,139.73 189.628,139.73 1.422,0 2.551,1.149 2.551,2.559 0,1.422 -1.129,2.562 -2.551,2.562 -1.41,0 -126.418,-5.672 -194.168,-142.871" /><path
         id="path96"
         style="fill:#a7362e;fill-opacity:1;fill-rule:evenodd;stroke:none"
         d="m 895.156,487.363 c -0.851,-0.281 -92.41,-26.359 -131.238,-170.648 -0.57,-1.133 0.277,-2.551 1.699,-3.113 1.41,-0.289 2.828,0.562 3.11,1.98 38.269,141.172 127,166.391 127.847,166.68 1.41,0.562 2.262,1.98 1.703,3.121 -0.293,1.41 -1.703,2.262 -3.121,1.98" /><path
         id="path98"
         style="fill:#3e4149;fill-opacity:1;fill-rule:evenodd;stroke:none"
         d="m 576.262,647.234 c 0,0 24.66,-41.386 93.258,-57.828 68.878,-16.441 166.96,-1.699 173.199,-1.129 6.23,0.278 8.781,-20.41 47.902,-17.011 38.84,3.691 56.129,39.402 70.301,69.172 14.168,29.488 6.519,92.417 -11.621,117.347 -17.86,24.949 -75.121,-13.609 -75.121,-13.609 0,0 -52.16,-11.899 -107.43,-14.738 -55.281,-2.833 -107.148,-5.661 -142.578,-38.25 -35.442,-32.891 -48.192,-36.301 -47.91,-43.954" /><path
         id="path100"
         style="fill:#4e525a;fill-opacity:1;fill-rule:evenodd;stroke:none"
         d="m 951.566,759.211 c -18.988,26.066 -73.699,-9.652 -78.238,-12.473 -2.832,-0.847 -53.57,-11.91 -106.582,-14.75 -55.84,-2.84 -108.277,-5.66 -144.277,-39.121 -3.403,-2.828 -6.242,-5.656 -9.071,-8.207 -1.703,-1.43 1.7,-5.109 3.11,-3.691 3.121,2.551 6.238,5.109 9.359,8.219 34.578,32.312 86.168,34.863 140.879,37.703 54.992,2.839 107.723,14.738 108,15.027 0.281,0 0.852,0 0.852,0.281 0.57,0.281 55.281,36.84 71.718,14.18 16.719,-23.25 25.512,-85.328 11.34,-115.09 -13.609,-28.351 -30.621,-64.059 -68.32,-67.469 -26.93,-2.269 -35.43,6.809 -40.527,12.481 -2.274,2.547 -4.262,4.519 -7.371,4.519 l -4.821,-0.57 c -87.879,-10.77 -139.469,-5.09 -167.25,1.711 -57.262,13.609 -83.621,45.066 -89.859,53.848 -0.852,1.14 -2.551,4.269 -5.102,6.82 -1.129,-1.699 -1.699,-3.399 -1.699,-5.391 0,-0.578 0.289,-0.847 0.57,-1.14 0.852,-1.688 25.789,-42.52 94.68,-58.95 28.34,-6.82 80.5,-12.757 169.219,-1.988 l 4.543,0.559 c 0.566,0 2.269,-1.699 3.398,-2.84 5.391,-5.949 15.309,-16.719 44.512,-13.879 40.809,3.398 58.387,40.527 72.559,70.301 15.031,31.457 5.949,95.238 -11.622,119.91" /><path
         id="path102"
         style="fill:#4e525a;fill-opacity:1;fill-rule:evenodd;stroke:none"
         d="m 855.473,693.723 c -44.219,-49.321 -13.321,-106.871 -13.039,-107.422 0.851,-1.141 2.269,-1.699 3.402,-0.852 1.418,0.563 1.699,1.973 1.137,3.403 -0.289,0.55 -29.481,54.699 12.472,101.468 0.848,0.852 0.848,2.551 -0.293,3.403 -1.129,1.129 -2.828,0.847 -3.679,0" /><path
         id="path104"
         style="fill:#4e525a;fill-opacity:1;fill-rule:evenodd;stroke:none"
         d="m 872.766,746.445 c -1.133,-0.851 -27.782,-18.711 -36,-42.789 -0.282,-1.429 0.277,-2.84 1.699,-3.133 1.418,-0.558 2.84,0 3.117,1.43 7.941,22.66 34.012,39.953 34.012,40.242 1.422,0.852 1.711,2.282 0.859,3.399 -0.859,1.133 -2.558,1.429 -3.687,0.851" /><path
         id="path106"
         style="fill:#4e525a;fill-opacity:1;fill-rule:evenodd;stroke:none"
         d="m 810.969,663.113 c -0.281,-2.277 -5.672,-54.988 23.808,-77.386 1.129,-0.852 2.84,-0.571 3.692,0.558 0.847,1.141 0.558,2.551 -0.571,3.399 -27.21,20.711 -21.832,72.3 -21.832,72.851 0.289,1.43 -0.847,2.551 -2.269,2.852 -1.41,0 -2.551,-0.852 -2.828,-2.274" /><path
         id="path108"
         style="fill:#f6d7c4;fill-opacity:1;fill-rule:evenodd;stroke:none"
         d="m 1183.15,788.684 c -0.85,-17.571 1.44,-70.871 38.28,-72.571 36.86,-1.703 41.38,129.547 58.96,160.168 17.56,30.903 30.33,79.93 31.74,98.36 1.14,18.703 -5.95,35.139 -6.24,53.849 -0.55,18.43 -20.96,20.41 -22.94,-26.93 -2,-47.619 -39.7,-67.74 -60.09,-106.298 -20.41,-38.539 -38.27,-76.809 -39.71,-106.578" /><path
         id="path110"
         style="fill:#a9836f;fill-opacity:1;fill-rule:evenodd;stroke:none"
         d="m 1225.11,894.133 c 7.09,13.609 16.72,24.937 25.8,36.008 17,20.41 33.45,39.968 34.58,71.139 1.13,26.93 8.22,36.85 12.75,36.85 2.27,0 4.82,-3.39 5.11,-9.92 0,-8.51 1.7,-16.44 3.12,-24.38 1.98,-9.639 3.68,-18.99 3.11,-28.908 -1.4,-19.281 -14.45,-67.742 -31.45,-97.231 -6.53,-11.332 -11.07,-34.871 -16.16,-61.789 -8.51,-43.941 -19,-98.371 -40.53,-97.23 -37.72,1.699 -36.02,62.918 -35.72,70.008 1.41,30.05 20.68,70.019 39.39,105.453 m 55.28,107.427 c -1.14,-29.478 -16.73,-48.47 -33.44,-68.31 -9.37,-11.051 -19.01,-22.668 -26.38,-36.84 -18.99,-35.73 -38.55,-76.551 -39.95,-107.449 -0.3,-7.641 -2.28,-73.398 40.82,-75.398 25.78,-1.133 36.28,53.289 45.62,101.199 4.83,25.508 9.64,49.609 15.59,60.39 17.29,30.039 30.62,79.93 32.03,99.489 0.58,10.492 -1.12,20.691 -3.11,30.319 -1.42,7.66 -3.12,15.31 -3.12,23.54 -0.27,8.5 -4.54,14.45 -10.21,14.73 -7.92,0 -16.71,-11.05 -17.85,-41.67" /><path
         id="path112"
         style="fill:#007064;fill-opacity:1;fill-rule:evenodd;stroke:none"
         d="m 1280.96,1179.87 c -15.88,3.4 -22.97,-5.95 -22.97,-5.95 0,0 -1.97,-7.66 -5.95,-18.71 -2.84,-8.22 -6.51,-18.43 -11.33,-28.35 -6.81,-14.45 -15.59,-28.63 -25.51,-36 -26.65,-19.84 -67.47,-39.12 -89.87,-99.212 -2.26,-5.671 -4.81,-12.468 -7.93,-20.128 -12.76,-31.743 -32.6,-78.243 -51.02,-120.473 -24.1,-55.84 -45.93,-104.891 -45.93,-104.891 0,0 -12.75,-36.84 53.01,-62.636 65.76,-26.09 96.38,3.968 96.38,3.968 0,0 20.97,57.551 43.93,119.34 16.16,43.649 33.46,89.289 45.35,117.922 2,4.539 3.7,8.789 5.39,12.469 25.24,58.969 9.08,100.921 3.4,132.951 -1.97,12.47 1.43,28.63 6.53,43.94 3.96,11.9 9.07,22.96 13.03,31.46 3.98,8.5 7.09,14.17 7.09,14.17 0,0 2.55,16.73 -13.6,20.13" /><path
         id="path114"
         style="fill:#b67b31;fill-opacity:1;fill-rule:evenodd;stroke:none"
         d="m 1240.7,1126.86 c 12.75,-1.7 24.38,-5.39 33.73,-12.76 3.97,11.91 9.06,22.96 13.04,31.47 -10.77,5.95 -22.96,7.09 -35.43,9.64 -2.84,-8.22 -6.53,-18.43 -11.34,-28.35" /><path
         id="path116"
         style="fill:#d4a066;fill-opacity:1;fill-rule:evenodd;stroke:none"
         d="m 1270.19,1151.8 c -3.12,0.57 -6.24,1.13 -9.65,1.7 0.85,-10.77 -4.25,-20.13 -8.79,-28.91 3.13,-0.57 5.96,-1.7 9.07,-2.84 3.13,9.92 6.25,19.28 9.37,30.05" /><path
         id="path118"
         style="fill:#155552;fill-opacity:1;fill-rule:evenodd;stroke:none"
         d="m 1117.39,971.523 c -12.75,-31.761 -32.6,-78.242 -51.01,-120.468 52.71,9.347 106,-10.774 147.39,-44.231 16.16,43.66 33.45,89.297 45.36,117.918 -35.44,37.992 -89.58,57.832 -141.74,46.781" /><path
         id="path120"
         style="fill:#b67b31;fill-opacity:1;fill-rule:evenodd;stroke:none"
         d="m 1115.41,962.449 c -11.62,-28.347 -27.5,-62.078 -43.37,-98.648 53.57,7.648 104.6,-9.071 147.12,-42.809 11.62,31.758 23.81,63.219 33.45,87.891 -31.47,41.379 -86.74,55.84 -137.2,53.566" /><path
         id="path122"
         style="fill:#0f613e;fill-opacity:1;fill-rule:evenodd;stroke:none"
         d="m 1280.39,1177.31 c 9.64,-1.98 11.61,-9.35 11.9,-13.88 l 0,-2.84 c -2.26,-4.26 -29.48,-53.86 -27.21,-86.18 0,-1.7 0.28,-3.12 0.56,-4.53 l 3.13,-16.43 c 2.55,-12.2 5.38,-25.52 6.51,-40.27 1.43,-21.535 -0.85,-46.196 -13.33,-74.825 -24.66,-57.261 -91.27,-241.511 -94.11,-249.453 -1.7,-1.418 -31.74,-27.5 -93.25,-3.117 -43.65,17.289 -51.88,38.547 -52.73,50.457 -0.28,5.102 0.85,8.5 0.85,9.071 0.85,1.703 82.78,186.242 104.89,245.48 18.71,49.607 50.17,71.157 75.11,88.437 l 13.89,9.65 c 26.37,19.55 42.25,78.8 43.65,83.89 0.85,0.86 7.09,7.37 20.14,4.54 m -24.67,-1.98 c 0,-0.29 -0.27,-0.56 -0.27,-0.85 -0.29,-0.57 -16.46,-62.65 -41.96,-81.64 l -13.61,-9.64 c -25.8,-17.57 -57.82,-39.4 -76.81,-90.708 -22.41,-59.238 -104.32,-243.488 -105.17,-245.476 -0.58,-1.703 -12.47,-39.403 54.71,-66.051 66.61,-26.082 97.8,3.41 99.21,4.82 0.29,0.289 0.29,0.57 0.56,0.848 0.58,1.992 69.17,191.621 94.4,249.742 21.55,50.168 13.61,87.865 7.09,118.195 l -3.4,16.16 c -5.11,30.9 26.07,87.31 26.36,87.88 0.28,0 0.28,0.57 0.28,0.84 1.13,6.52 -1.13,19.84 -15.6,22.96 -17.57,3.7 -25.21,-6.52 -25.79,-7.08" /><path
         id="path124"
         style="fill:#f6d7c4;fill-opacity:1;fill-rule:evenodd;stroke:none"
         d="m 946.184,746.445 c 0,0 -26.082,-18.98 -38.551,-53.558 0,0 49.609,9.34 72,6.5 22.387,-3.114 62.357,-45.34 68.017,-53 5.68,-7.364 15.03,-13.602 28.64,-11.051 13.32,2.551 40.82,8.789 47.61,9.059 6.82,0.582 1.43,9.07 -6.79,9.921 0,0 26.08,2.559 28.91,4.258 2.55,1.981 -3.12,12.199 -24.09,10.77 0,0 36.28,17.301 45.35,18.429 9.07,1.133 1.99,11.34 -12.75,11.051 -14.74,-0.558 -37.71,-7.09 -46.49,-2.84 -8.79,4.539 -23.81,31.18 -33.17,44.512 -9.63,13.609 -14.74,20.969 -14.74,20.969 0,0 39.4,13.898 50.18,24.379 10.77,10.492 1.7,11.922 -7.67,11.34 -9.34,-0.559 -23.23,-10.77 -45.06,-10.489 -21.83,0 -43.94,13.039 -59.236,3.121 -15.031,-9.91 -52.16,-43.371 -52.16,-43.371" /><path
         id="path126"
         style="fill:#a9836f;fill-opacity:1;fill-rule:evenodd;stroke:none"
         d="m 1154.53,701.094 -18.14,-1.981 c -10.49,-1.418 -22.11,-3.121 -27.21,-0.847 -5.96,3.109 -15.6,18.429 -23.54,30.609 l -8.79,13.039 c 0,0 -9.92,14.461 -12.75,18.422 9.64,3.406 38.56,14.738 47.91,23.816 2.55,2.563 5.95,6.231 5.66,9.641 0,0.562 -0.27,1.133 -0.27,1.98 -1.71,3.122 -6.52,4.532 -15.04,3.969 -3.67,-0.289 -7.93,-1.988 -13.04,-3.687 -8.22,-3.11 -18.41,-7.09 -31.73,-6.801 -7.66,0 -15.88,1.699 -23.53,3.398 -13.61,3.121 -26.65,5.953 -37.15,-0.847 -9.34,-6.242 -27.48,-21.539 -39.668,-32.032 -2.281,-1.988 -12.762,-14.46 -12.48,-15.578 0,-1.152 12.199,8.489 15.597,11.61 12.192,10.5 30.321,25.789 39.391,31.75 8.79,5.668 20.13,3.109 33.17,0.281 7.94,-1.703 16.16,-3.684 24.67,-3.684 14.17,-0.289 24.94,3.961 33.43,7.082 4.83,1.711 8.79,3.399 11.64,3.399 7.65,0.57 9.62,-0.559 9.92,-1.129 0,0 0.28,-1.41 -4.25,-5.668 -10.22,-9.922 -48.49,-23.813 -49.04,-23.813 -0.57,-0.281 -1.15,-0.847 -1.42,-1.699 -0.28,-0.57 -0.28,-1.422 0.27,-2.269 l 14.47,-20.981 8.49,-12.75 c 9.37,-14.172 18.71,-28.91 25.8,-32.32 6.53,-3.399 17.86,-1.699 30.05,0.289 l 17.58,1.992 c 6.8,0 11.34,-2.281 13.32,-3.98 l 0.85,-1.41 c 0,-0.29 -0.57,-0.571 -1.7,-0.571 -9.35,-1.422 -44.78,-17.859 -46.2,-18.711 -1.14,-0.277 -1.7,-1.418 -1.43,-2.269 l 0,-0.551 c 0.29,-1.148 1.43,-2 2.55,-1.719 13.05,0.86 18.71,-3.109 20.41,-4.808 1.14,-0.864 1.14,-1.411 1.43,-1.711 -3.13,-1.129 -15.88,-2.832 -26.94,-3.68 -1.13,-0.281 -2.26,-1.41 -2.26,-2.551 l 0,-0.289 c 0.27,-1.133 1.13,-2.262 2.26,-2.262 4.54,-0.57 7.38,-3.687 7.66,-4.82 -5.67,-0.289 -19.84,-3.117 -33.46,-5.949 l -15.29,-3.121 c -13.33,-2.547 -21.55,3.972 -26.08,10.203 -5.39,7.09 -46.21,50.457 -69.728,53.859 -14.75,1.981 -40.539,-1.422 -57.262,-3.972 -1.14,-0.278 -13.609,-2.828 -14.18,-3.68 -0.847,-1.141 10.211,-2.27 12.481,-1.699 15.859,2.551 43.359,6.23 58.379,4.25 21.55,-2.84 61.23,-45.071 66.33,-51.879 4.26,-5.949 14.17,-15.301 30.91,-11.902 l 15.59,3.121 c 12.75,2.55 27.2,5.671 31.74,5.949 3.97,0.281 5.68,2.551 5.68,4.82 l 0,0.281 c -0.29,1.7 -1.43,3.692 -3.13,5.391 9.08,1.141 18.71,2.551 20.98,3.969 1.13,0.851 1.7,2.261 1.7,3.679 0,0.582 -0.28,1.129 -0.28,1.7 -1.7,4.25 -7.09,8.222 -16.44,9.64 12.47,5.391 29.76,13.039 35.15,13.61 4.82,0.562 6.52,3.402 6.24,5.953 -0.3,5.109 -8.23,10.488 -19.28,9.918" /><path
         id="path128"
         style="fill:#a9836f;fill-opacity:1;fill-rule:evenodd;stroke:none"
         d="m 1064.95,698.262 c -0.57,-1.129 0,-2.828 1.43,-3.399 1.4,-0.57 7.93,-7.09 13.32,-12.472 15.02,-14.75 20.68,-19.559 23.8,-19.848 5.1,0 17.58,3.969 18.99,4.539 1.42,0.281 2.27,1.981 1.7,3.109 -0.28,1.422 -1.7,1.993 -3.11,1.711 -3.69,-1.14 -13.88,-4.261 -17.3,-4.261 -2.55,0.851 -13.89,11.91 -20.4,18.429 -9.64,9.364 -13.33,12.762 -15.31,13.614 -1.14,0.558 -2.54,-0.293 -3.12,-1.422" /><path
         id="path130"
         style="fill:#a9836f;fill-opacity:1;fill-rule:evenodd;stroke:none"
         d="m 1056.45,684.363 c -0.86,-1.117 -0.57,-2.816 0.57,-3.668 l 13.32,-11.07 c 11.91,-9.922 19.84,-16.719 22.39,-17.859 4.54,-1.981 21.25,-0.27 24.66,0 1.41,0 2.56,1.429 2.27,2.839 0,1.141 -1.41,2.258 -2.84,2.258 -8.78,-0.847 -19.82,-1.41 -22.11,-0.558 -1.98,0.851 -13.6,10.769 -21.26,17.3 l -13.31,11.04 c -1.14,0.851 -2.57,0.582 -3.69,-0.282" /><path
         id="path132"
         style="fill:#a9836f;fill-opacity:1;fill-rule:evenodd;stroke:none"
         d="m 1048.52,669.91 c -0.86,-0.847 -0.86,-2.547 0.27,-3.398 7.94,-7.649 18.44,-16.731 21.26,-17.282 3.13,-0.578 17.86,1.403 24.09,2.25 1.43,0.301 2.56,1.711 2.29,2.84 -0.29,1.422 -1.72,2.551 -2.84,2.274 -9.36,-1.422 -20.7,-2.84 -22.39,-2.551 -1.7,0.848 -11.34,9.07 -19,16.148 -1.13,0.852 -2.56,0.852 -3.68,-0.281" /><path
         id="path134"
         style="fill:#4e525a;fill-opacity:1;fill-rule:evenodd;stroke:none"
         d="m 944.766,748.723 c -1.129,-0.852 -26.93,-20.141 -39.399,-54.993 -10.211,-28.628 -10.769,-63.781 -0.851,-73.699 3.121,-2.84 6.8,-3.691 10.769,-2.281 18.43,5.961 25.801,26.941 24.942,38.832 -0.282,1.43 -1.411,2.57 -2.832,2.57 -1.418,-0.293 -2.547,-1.429 -2.27,-2.839 0.57,-10.493 -5.668,-28.633 -21.539,-34.032 -1.988,-0.551 -3.691,-0.269 -5.391,1.43 -7.371,7.359 -8.218,39.691 1.993,68.32 11.898,33.449 37.41,52.43 37.41,52.43 1.136,0.852 6.808,10.5 5.957,11.621 -0.848,0.848 -7.66,-6.512 -8.789,-7.359" /><path
         id="path136"
         style="fill:#f6d7c4;fill-opacity:1;fill-rule:evenodd;stroke:none"
         d="m 1295.69,884.773 c -11.62,-3.957 -36.85,0.282 -45.06,0.864 -7.95,0.566 -18.44,39.109 -18.44,39.109 0,0 -13.31,9.359 -17,13.598 -3.69,3.98 -1.99,9.941 7.94,10.793 9.63,0.847 41.38,-11.071 49.32,-14.184 7.93,-3.398 25.22,2.844 25.22,2.844 0,0 -35.43,22.109 -45.63,26.066 -9.91,3.981 -23.53,0.571 -27.78,7.082 -4.26,6.532 13.31,10.489 26.93,11.629 0.28,0 -4.54,6.231 5.38,10.492 9.92,3.969 34.02,7.644 43.08,7.364 9.08,-0.27 32.32,-30.336 37.99,-37.125 5.67,-6.801 3.97,-20.7 -4.25,-32.602 -7.94,-12.199 -24.66,-32.609 -27.21,-37.129 -2.84,-4.258 -5.1,-7.09 -10.49,-8.801" /><path
         id="path138"
         style="fill:#a9836f;fill-opacity:1;fill-rule:evenodd;stroke:none"
         d="m 1298.52,935.52 c 0.86,0.277 1.43,1.128 1.71,1.98 0,1.137 -0.57,1.988 -1.43,2.559 -1.39,0.847 -35.42,22.39 -45.62,26.359 -4.54,1.699 -9.93,1.98 -14.45,2.559 -5.69,0.273 -10.5,0.562 -12.21,3.402 -0.27,0.559 -0.27,0.559 -0.27,0.848 1.41,2.543 11.89,5.941 25.21,6.793 0.86,0 1.72,0.57 2.27,1.418 0.29,0.851 0.29,1.71 -0.28,2.562 0,0 -1.13,1.406 -0.56,2.828 0.56,1.41 2,2.828 4.54,3.68 9.34,3.969 33.16,7.66 42.23,7.371 3.11,0 11.63,-5.949 34.02,-33.731 l 1.98,-2.261 c 1.7,-1.989 2.57,-4.828 2.84,-7.938 0.27,-6.23 -2.27,-14.742 -7.09,-21.832 l -27.5,-37.14 c -2.55,-3.957 -4.53,-6.52 -9.07,-7.93 -8.79,-2.84 -26.36,-0.848 -36.86,0.293 l -7.07,0.848 c -3.41,0.269 -11.07,17.851 -16.43,37.41 0,0.57 -0.3,1.129 -0.87,1.422 -3.68,2.546 -13.61,9.628 -16.72,12.75 -0.57,0.847 -1.43,2.269 -0.85,3.41 0.85,1.976 3.39,3.109 7.37,3.398 8.23,0.852 37.41,-9.629 48.2,-13.89 8.48,-3.68 24.93,2.261 26.91,2.832 m -42.79,59.808 c -4.27,-1.699 -6.82,-4.25 -7.66,-7.09 -0.28,-1.129 -0.57,-1.98 -0.28,-2.832 l 0,-0.847 c -7.09,-0.559 -22.97,-2.84 -26.09,-9.071 -0.56,-1.14 -0.56,-1.988 -0.56,-2.84 0,-1.121 0.56,-2.261 1.13,-3.109 3.14,-4.82 9.37,-5.101 16.16,-5.672 4.53,-0.277 9.07,-0.847 12.77,-2.269 7.64,-3.121 30.32,-16.719 40.23,-22.961 -5.66,-1.418 -13.59,-3.117 -17.84,-1.418 -0.29,0.281 -38.57,15.59 -50.75,14.461 -7.93,-0.852 -10.77,-4.543 -11.61,-6.524 -0.3,-1.129 -0.57,-2.269 -0.57,-3.398 0.27,-1.699 1.13,-3.692 2.54,-5.11 3.41,-3.96 14.46,-11.898 16.73,-13.32 3.39,-12.469 11.91,-39.68 20.68,-40.25 l 6.53,-0.57 c 11.91,-1.41 29.49,-3.68 39.4,-0.281 5.96,1.98 8.8,5.382 11.91,10.203 l 9.91,13.328 17.3,23.519 c 8.79,12.762 10.5,27.782 3.97,35.723 l -1.99,2.547 c -20.41,24.953 -31.18,35.433 -37.98,35.433 -8.78,0.29 -33.45,-3.402 -43.93,-7.652" /><path
         id="path140"
         style="fill:#a9836f;fill-opacity:1;fill-rule:evenodd;stroke:none"
         d="m 1229.65,925.879 c -0.58,-1.422 0.27,-2.82 1.42,-3.399 0.28,0 30.89,-11.902 38.55,-18.71 1.12,-1.122 2.55,-0.852 3.68,0 0.85,1.128 0.85,2.828 -0.28,3.679 -8.51,7.66 -38.83,19.281 -39.97,19.86 -1.43,0.55 -2.83,-0.301 -3.4,-1.43" /><path
         id="path142"
         style="fill:#a9836f;fill-opacity:1;fill-rule:evenodd;stroke:none"
         d="m 1254.02,982.578 c 0,-1.43 -1.42,-2.551 -2.83,-2.551 l 24.09,0.27 c 3.12,0.301 17.86,-7.641 30.05,-14.731 1.13,-0.847 2.83,-0.558 3.4,0.852 0.85,1.141 0.28,2.551 -0.85,3.398 -6.24,3.692 -26.93,15.883 -32.88,15.582 l -23.53,-0.269 c 1.13,0 2.27,-1.133 2.55,-2.551" /><path
         id="path144"
         style="fill:#a13b2d;fill-opacity:1;fill-rule:evenodd;stroke:none"
         d="m 1220.29,1243.08 c -2.83,-4.82 -3.12,-10.77 -0.57,-15.02 1.99,-3.41 6.23,-7.09 15.59,-7.09 19.85,-0.28 26.65,-25.8 26.65,-26.08 0.28,-1.42 1.7,-2.27 3.12,-1.98 1.41,0.56 2.27,1.7 1.98,3.11 -0.29,1.14 -7.94,29.77 -31.75,29.77 -5.67,0 -9.36,1.7 -11.06,4.82 -1.69,2.55 -1.41,6.52 0.58,9.92 1.7,2.83 4.53,4.82 7.36,4.82 11.91,0 23.53,-9.92 23.53,-10.21 1.14,-0.85 2.84,-0.56 3.69,0.29 0.85,1.13 0.85,2.83 -0.29,3.68 -0.56,0.57 -13.32,11.06 -26.93,11.34 -4.53,0 -9.07,-2.83 -11.9,-7.37" /><path
         id="path146"
         style="fill:#a13b2d;fill-opacity:1;fill-rule:evenodd;stroke:none"
         d="m 1247.5,1271.71 c -11.61,-9.64 -6.8,-23.24 -2.27,-29.2 0.85,-1.13 2.27,-1.41 3.4,-0.56 1.15,0.85 1.43,2.26 0.57,3.4 -0.27,0.56 -9.35,13.6 1.42,22.39 3.97,3.12 7.65,1.99 10.2,0.57 9.65,-5.39 17.01,-23.81 12.76,-48.19 -0.28,-1.13 0.57,-2.55 1.99,-2.84 1.41,-0.28 2.84,0.86 3.11,1.99 4.83,28.06 -4.53,47.34 -15.31,53.29 -5.37,3.12 -11.33,2.84 -15.87,-0.85" /><path
         id="path148"
         style="fill:#a13b2d;fill-opacity:1;fill-rule:evenodd;stroke:none"
         d="m 1312.14,1213.88 c -0.86,-1.13 -0.86,-2.55 0,-3.68 1.12,-0.86 2.82,-0.86 3.67,0 6.24,6.51 17.59,9.92 25.8,7.93 2.83,-0.85 6.53,-2.55 7.94,-6.8 1.13,-4.54 0.85,-8.22 -1.41,-10.77 -3.13,-3.4 -9.64,-4.82 -18.15,-3.69 -17.58,2.27 -27.21,-7.37 -27.77,-7.93 -0.85,-0.86 -0.85,-2.56 0,-3.41 1.12,-1.13 2.82,-1.13 3.68,0 0.28,0.29 8.51,8.22 23.53,6.24 10.21,-1.42 18.42,0.57 22.67,5.39 2.28,2.83 4.53,7.65 2.28,15.59 -1.43,5.1 -5.68,8.78 -11.63,10.2 -9.93,2.55 -22.96,-1.42 -30.61,-9.07" /><path
         id="path150"
         style="fill:#a13b2d;fill-opacity:1;fill-rule:evenodd;stroke:none"
         d="m 1503.76,1577.57 c -198.71,-204.09 -206.37,-336.76 -206.37,-337.89 0,-1.42 1.14,-2.55 2.28,-2.55 1.4,-0.28 2.83,0.85 2.83,2.27 0,1.41 7.94,132.09 204.93,334.49 1.14,1.13 0.87,2.55 0,3.68 -1.12,0.85 -2.55,0.85 -3.67,0" /><path
         id="path152"
         style="fill:#a13b2d;fill-opacity:1;fill-rule:evenodd;stroke:none"
         d="m 1518.5,1485.16 c -151.95,-72.28 -197.02,-234.14 -197.57,-235.84 -0.29,-1.43 0.55,-2.84 1.98,-3.12 1.41,-0.28 2.82,0.57 3.12,1.98 0.27,1.42 44.79,161.3 194.74,232.44 1.42,0.57 1.98,2.27 1.12,3.41 -0.57,1.41 -1.98,1.7 -3.39,1.13" /><path
         id="path154"
         style="fill:#a13b2d;fill-opacity:1;fill-rule:evenodd;stroke:none"
         d="m 1556.2,1511.52 c -1.43,-0.28 -2.28,-1.7 -1.98,-2.83 0.27,-1.42 1.7,-2.27 3.1,-1.99 0.3,0 20.71,4.82 24.95,-7.37 1.7,-5.1 -1.69,-9.64 -3.96,-11.9 -7.37,-7.94 -24.09,-13.61 -40.82,-8.79 -1.43,0.28 -2.83,-0.57 -3.13,-1.7 -0.55,-1.42 0.3,-2.84 1.7,-3.12 19.56,-5.67 37.71,1.42 45.93,9.92 5.11,5.39 7.08,11.62 5.11,17.29 -5.97,16.44 -29.78,10.77 -30.9,10.49" /><path
         id="path156"
         style="fill:#a13b2d;fill-opacity:1;fill-rule:evenodd;stroke:none"
         d="m 1637.27,1592.88 c -1.42,-0.58 -2.27,-1.99 -1.98,-3.12 0.28,-1.42 1.71,-2.28 3.1,-1.98 12.2,3.4 22.68,-0.85 26.38,-10.21 4.25,-10.2 -0.29,-25.52 -20.41,-36.86 -37.15,-20.68 -72,-9.64 -72.57,-9.64 -1.13,0.57 -2.83,-0.27 -3.11,-1.41 -0.58,-1.41 0.28,-2.84 1.7,-3.11 1.41,-0.57 37.13,-12.19 76.53,9.91 22.68,12.77 27.78,30.91 22.68,43.09 -3.97,9.65 -15.61,17.58 -32.32,13.33" /><path
         id="path158"
         style="fill:#a13b2d;fill-opacity:1;fill-rule:evenodd;stroke:none"
         d="m 1663.07,1667.71 -32.61,-33.45 c -0.85,-0.85 -0.85,-2.27 -0.27,-3.4 0.85,-0.85 2.26,-1.13 3.4,-0.57 14.73,7.94 34.02,9.07 44.78,2.84 5.11,-3.12 7.66,-7.37 7.66,-13.33 -0.28,-19.84 -25.24,-30.61 -25.24,-30.61 -1.4,-0.57 -1.99,-1.98 -1.4,-3.4 0.56,-1.14 1.98,-1.7 3.4,-1.14 1.12,0.29 28.34,11.91 28.34,35.15 0,7.66 -3.68,13.61 -10.2,17.58 -9.65,5.67 -24.67,5.95 -38.55,1.7 9.07,9.64 24.38,25.23 24.38,25.23 0.56,0.57 0.56,1.13 0.56,1.98 0,0.57 -0.29,1.14 -0.56,1.7 -1.14,0.85 -2.85,0.85 -3.69,-0.28" /><path
         id="path160"
         style="fill:#a13b2d;fill-opacity:1;fill-rule:evenodd;stroke:none"
         d="m 1525.02,1635.96 c -21.26,-14.74 -10.21,-43.09 -9.92,-43.37 0.27,-1.13 1.98,-1.7 3.11,-1.42 1.42,0.57 1.99,1.99 1.42,3.4 -0.28,0.85 -9.63,24.67 8.51,37.42 17.86,12.47 32.31,-2.55 32.88,-3.12 1.13,-1.13 2.54,-1.13 3.69,-0.28 1.13,1.13 1.13,2.55 0,3.68 0,0 -18.16,19 -39.69,3.69" /><path
         id="path162"
         style="fill:#a13b2d;fill-opacity:1;fill-rule:evenodd;stroke:none"
         d="m 1567.82,1677.63 c -19.56,-9.64 -17.01,-38.83 -17.01,-39.97 0,-1.42 1.41,-2.55 2.84,-2.27 1.41,0 2.26,1.42 2.26,2.55 0,0.29 -2.26,27.22 14.18,35.15 3.97,1.99 7.93,2.56 11.62,1.14 8.22,-2.84 12.47,-12.76 12.47,-12.76 0.56,-1.41 2.26,-1.98 3.4,-1.41 1.42,0.56 1.99,1.98 1.42,3.4 -0.28,0.28 -5.38,11.9 -15.31,15.59 -5.1,1.7 -10.48,1.41 -15.87,-1.42" /><path
         id="path164"
         style="fill:#ba6d92;fill-opacity:1;fill-rule:evenodd;stroke:none"
         d="m 1266.78,1355.9 c 0,0 -3.68,16.44 -25.51,16.44 -21.55,0 -13.61,18.71 4.25,18.99 17.58,0.57 23.24,-21.82 21.26,-35.43" /><path
         id="path166"
         style="fill:#a13b2d;fill-opacity:1;fill-rule:evenodd;stroke:none"
         d="m 1241.27,1374.89 c -6.24,0 -10.21,1.7 -10.49,4.54 l 0,0.28 c 0,3.4 5.67,8.79 14.74,9.07 4.54,0.28 8.5,-1.42 11.62,-4.82 4.26,-4.53 6.24,-11.62 7.09,-18.42 -4.25,4.53 -11.06,9.35 -22.96,9.35 m -15.6,4.54 c 0,-2.27 1.43,-9.64 15.6,-9.64 19.28,0 22.96,-13.89 23.24,-14.46 0.29,-1.13 1.42,-1.98 2.56,-1.98 1.12,0 2.26,1.13 2.26,2.26 1.42,9.36 -0.85,23.25 -8.5,31.75 -3.97,4.54 -9.36,6.81 -15.6,6.52 -11.62,-0.28 -19.56,-7.65 -19.56,-14.45" /><path
         id="path168"
         style="fill:#ba6d92;fill-opacity:1;fill-rule:evenodd;stroke:none"
         d="m 1341.61,1460.21 c 0,0 10.5,32.88 -7.65,43.09 -18.15,10.2 -28.35,17 -6.24,26.93 22.4,10.2 47.62,-45.64 13.89,-70.02" /><path
         id="path170"
         style="fill:#a13b2d;fill-opacity:1;fill-rule:evenodd;stroke:none"
         d="m 1347.29,1483.46 c -0.86,8.5 -3.68,17.29 -11.91,22.11 -7.38,3.97 -17.29,9.64 -17.58,13.61 l 0,0.28 c 0,1.42 1.43,4.25 11.06,8.5 7.94,3.69 15.59,-3.11 20.12,-10.77 3.7,-6.23 5.95,-13.32 6.52,-20.97 0.57,-9.93 -2.27,-20.13 -9.34,-28.35 0.84,4.25 1.41,9.92 1.13,15.59 m -20.41,49.32 c -9.65,-4.53 -13.9,-8.5 -14.18,-13.04 -0.29,-6.52 7.66,-11.62 20.12,-18.42 16.16,-9.07 6.52,-40.25 6.52,-40.54 -0.27,-0.85 0,-1.98 0.86,-2.83 0.85,-0.57 2.26,-0.57 3.12,0 21.25,15.59 20.98,43.37 10.2,61.79 -7.09,11.91 -17.57,17.01 -26.64,13.04" /><path
         id="path172"
         style="fill:#ba6d92;fill-opacity:1;fill-rule:evenodd;stroke:none"
         d="m 1381.86,1257.82 c 0,0 14.75,5.39 34.03,3.12 19.27,-2.27 13.31,18.99 -2.28,21.26 -15.29,2.55 -31.75,-24.38 -31.75,-24.38" /><path
         id="path174"
         style="fill:#a13b2d;fill-opacity:1;fill-rule:evenodd;stroke:none"
         d="m 1413.33,1279.93 c 8.22,-1.42 12.76,-8.5 12.19,-12.76 -0.57,-4.25 -6.24,-3.96 -9.36,-3.68 -11.9,1.42 -21.81,0 -28.34,-1.42 6.23,8.22 16.72,18.99 25.51,17.86 m -33.73,-20.98 c -0.57,-0.85 -0.57,-1.98 0.28,-2.83 0.57,-0.85 1.7,-1.13 2.84,-0.85 0.28,0.28 14.45,5.38 32.89,3.12 9.91,-1.14 14.17,3.4 15.01,8.22 0.85,7.37 -5.95,16.72 -16.44,18.14 -16.72,2.55 -33.73,-24.66 -34.58,-25.8" /><path
         id="path176"
         style="fill:#ba6d92;fill-opacity:1;fill-rule:evenodd;stroke:none"
         d="m 1554.77,1560.28 c 0,-3.12 -2.54,-5.67 -5.66,-5.67 -3.13,0 -5.68,2.55 -5.68,5.67 0,3.12 2.55,5.67 5.68,5.67 3.12,0 5.66,-2.55 5.66,-5.67" /><path
         id="path178"
         style="fill:#a13b2d;fill-opacity:1;fill-rule:evenodd;stroke:none"
         d="m 1549.11,1557.16 c -1.7,0 -3.12,1.42 -3.12,3.12 0,0.85 0.29,1.7 0.85,2.27 0.57,0.56 1.42,0.85 2.27,0.85 0.85,0 1.7,-0.29 2.27,-0.85 0.56,-0.57 0.85,-1.42 0.85,-2.27 0,-1.7 -1.42,-3.12 -3.12,-3.12 m -5.95,9.07 c -1.42,-1.7 -2.27,-3.68 -2.27,-5.95 0,-4.25 3.68,-7.94 8.22,-8.22 4.54,0 8.22,3.68 8.22,8.22 0,2.27 -0.85,4.25 -2.55,5.67 -1.42,1.7 -3.4,2.55 -5.67,2.55 -2.27,0 -4.25,-0.85 -5.95,-2.27" /><path
         id="path180"
         style="fill:#ba6d92;fill-opacity:1;fill-rule:evenodd;stroke:none"
         d="m 1610.06,1594.29 c 0,-6.52 -5.39,-11.62 -12.2,-11.62 -6.51,0 -11.89,5.38 -11.61,11.9 0,6.52 5.37,11.63 11.9,11.63 6.52,0 11.91,-5.39 11.91,-11.91" /><path
         id="path182"
         style="fill:#a13b2d;fill-opacity:1;fill-rule:evenodd;stroke:none"
         d="m 1598.15,1585.22 c -2.56,0 -5.11,0.85 -6.81,2.55 -1.7,1.99 -2.55,4.25 -2.55,6.8 0,2.27 0.85,4.82 2.55,6.52 2,1.7 4.25,2.56 6.81,2.56 4.81,0 9.06,-3.69 9.35,-8.51 l 0,-0.85 c 0,-5.1 -4.25,-9.07 -9.35,-9.07 m -10.2,19.28 c -2.84,-2.56 -4.25,-6.24 -4.25,-9.93 -0.3,-3.96 1.41,-7.65 3.95,-10.2 2.84,-2.83 6.53,-4.25 10.23,-4.25 8.21,0 14.73,6.23 14.73,14.17 0,7.94 -6.52,14.46 -14.46,14.46 -3.97,0 -7.66,-1.42 -10.2,-4.25" /><path
         id="path184"
         style="fill:#b88f4e;fill-opacity:1;fill-rule:evenodd;stroke:none"
         d="m 1658.81,1719.87 38.55,45.64 c 0,0 35.43,3.12 38.55,-30.33 l -46.77,-35.44 c 0,0 -12.19,-8.22 -25.23,-1.13 -13.04,6.8 -5.1,21.26 -5.1,21.26" /><path
         id="path186"
         style="fill:#785f3d;fill-opacity:1;fill-rule:evenodd;stroke:none"
         d="m 1698.21,1763.52 c 4.82,0.28 32.03,0.28 35.15,-27.5 -1.98,-1.7 -45.64,-34.58 -45.64,-34.58 -0.28,-0.28 -11.05,-7.37 -22.68,-1.13 -3.11,1.7 -5.1,3.97 -5.95,6.8 -0.28,0.85 -0.28,1.42 -0.57,2.27 -0.28,4.53 1.99,8.79 2.27,9.35 0.29,0.29 36.29,43.37 37.42,44.79 m -1.13,4.25 c -0.57,-0.28 -1.14,-0.28 -1.42,-0.85 L 1657.39,1721 c -0.28,0 -0.28,-0.28 -0.28,-0.28 -0.29,-0.29 -4.25,-7.66 -1.99,-14.74 1.14,-3.97 3.69,-7.09 7.94,-9.36 13.89,-7.37 26.65,1.14 27.21,1.42 l 46.77,35.43 c 0.57,0.29 0.86,1.14 0.86,1.7 -3.41,35.44 -40.54,32.6 -40.82,32.6" /><path
         id="path188"
         style="fill:#785f3d;fill-opacity:1;fill-rule:evenodd;stroke:none"
         d="m 1656.82,1720.15 c -0.56,-0.85 -0.56,-1.98 0.29,-2.83 0.85,-0.86 2.27,-0.57 2.84,0 0,0.28 4.25,4.25 16.16,-1.71 12.18,-6.23 9.62,-14.45 9.62,-14.74 -0.27,-1.13 0.3,-2.26 1.43,-2.55 1.13,-0.28 2.27,0.29 2.55,1.42 0,0 3.68,11.91 -11.62,19.56 -15.02,7.37 -20.7,1.42 -21.27,0.85" /><path
         id="path190"
         style="fill:#785f3d;fill-opacity:1;fill-rule:evenodd;stroke:none"
         d="m 1700.48,1731.21 c 0,-2.27 -1.98,-4.25 -4.54,-4.25 -2.26,0 -4.25,1.98 -4.25,4.25 0,2.55 1.99,4.54 4.25,4.54 2.56,0 4.54,-1.99 4.54,-4.54" /><path
         id="path192"
         style="fill:#785f3d;fill-opacity:1;fill-rule:evenodd;stroke:none"
         d="m 1721.74,1740.56 c 0,-2.55 -1.97,-4.54 -4.25,-4.54 -2.55,0 -4.54,1.99 -4.54,4.54 0,2.27 1.99,4.25 4.54,4.25 2.55,0 4.53,-1.98 4.25,-4.25" /><path
         id="path194"
         style="fill:#785f3d;fill-opacity:1;fill-rule:evenodd;stroke:none"
         d="m 1699.35,1717.88 c 0,-1.7 -1.42,-3.4 -3.4,-3.4 -1.99,0 -3.4,1.7 -3.4,3.4 0,1.98 1.41,3.68 3.4,3.68 1.98,0 3.4,-1.7 3.4,-3.68" /><path
         id="path196"
         style="fill:#f6d7c4;fill-opacity:1;fill-rule:evenodd;stroke:none"
         d="m 575.129,1321.03 c -26.363,11.34 -47.91,7.09 -53.293,-13.61 -5.391,-20.69 36.281,-48.19 64.91,-49.6 28.633,-1.42 32.602,8.78 24.949,21.26 -7.937,12.47 -23.25,36.28 -36.566,41.95" /><path
         id="path198"
         style="fill:#000000;fill-opacity:1;fill-rule:evenodd;stroke:none"
         d="m 587.031,1260.37 c -19.558,0.85 -46.492,15.02 -57.832,30.33 -3.109,4.25 -6.519,10.21 -4.816,16.16 1.988,7.08 5.957,12.19 11.906,15.31 9.352,4.25 22.684,3.11 37.703,-3.41 13.61,-5.67 30.047,-32.31 35.43,-40.82 1.988,-3.68 4.258,-8.5 2.269,-12.18 -2.55,-4.26 -11.339,-6.24 -24.66,-5.39 m -53.011,66.33 c -7.368,-3.68 -12.469,-9.92 -14.739,-18.71 -1.422,-5.95 0.571,-13.04 5.668,-20.41 12.473,-16.44 40.543,-31.18 61.801,-32.31 15.59,-0.85 25.512,1.98 29.191,7.93 1.989,3.12 3.122,8.79 -2.261,17.3 -9.641,15.59 -24.098,37.13 -37.707,43.08 -16.442,7.09 -31.184,8.22 -41.953,3.12" /><path
         id="path200"
         style="fill:#f6d7c4;fill-opacity:1;fill-rule:evenodd;stroke:none"
         d="m 1015.35,1495.36 c 11.34,25.8 30.05,37.13 48.18,25.8 18.42,-11.34 6.8,-59.82 -13.03,-80.23 -19.85,-20.12 -29.77,-15.3 -32.88,-0.85 -2.85,14.18 -8.23,41.67 -2.27,55.28" /><path
         id="path202"
         style="fill:#a9836f;fill-opacity:1;fill-rule:evenodd;stroke:none"
         d="m 1042.84,1522.01 c 6.52,1.98 13.04,1.13 19.28,-2.83 5.38,-3.41 7.08,-10.21 7.65,-15.03 2.27,-18.99 -7.65,-47.34 -20.98,-61.23 -9.35,-9.63 -17,-14.17 -21.82,-12.75 -3.96,1.13 -5.96,6.23 -6.81,10.2 -1.13,5.95 -3.68,18.71 -4.53,30.9 -0.85,8.79 -0.29,17.29 1.99,22.96 6.51,15.02 15.58,24.95 25.22,27.78 m -1.42,4.82 c -11.34,-3.4 -21.26,-14.17 -28.34,-30.62 -5.96,-13.32 -1.7,-38.83 2.26,-56.69 1.99,-9.92 6.52,-13.04 10.21,-14.17 6.8,-1.99 15.87,2.83 26.93,13.89 14.74,15.02 24.94,45.07 22.39,65.48 -0.85,8.79 -4.53,15.31 -9.92,18.71 -7.65,4.53 -15.59,5.95 -23.53,3.4" /><path
         id="path204"
         style="fill:#cf942c;fill-opacity:1;fill-rule:evenodd;stroke:none"
         d="m 618.496,1243.93 c 0.852,-10.77 -7.371,-19.84 -18.141,-20.69 -10.769,-0.85 -20.128,7.37 -20.98,18.14 -0.57,10.49 7.371,19.84 18.141,20.41 11.058,0.85 20.41,-7.37 20.98,-17.86" /><path
         id="path206"
         style="fill:#fcd01a;fill-opacity:1;fill-rule:evenodd;stroke:none"
         d="m 598.938,1247.62 c 0.277,-2.83 -1.981,-5.67 -5.102,-5.67 -2.84,-0.28 -5.668,1.98 -5.668,4.82 -0.293,3.12 1.977,5.67 5.098,5.95 2.839,0 5.39,-1.98 5.672,-5.1" /><path
         id="path208"
         style="fill:#000000;fill-opacity:1;fill-rule:evenodd;stroke:none"
         d="m 587.883,1229.76 c -3.403,3.12 -5.672,7.09 -5.953,11.62 -0.289,4.53 1.133,8.78 4.25,12.19 2.832,3.39 7.09,5.39 11.621,5.66 9.359,0.86 17.582,-6.23 18.14,-15.59 0.571,-9.34 -6.519,-17.28 -15.871,-17.85 -4.539,-0.28 -8.789,1.14 -12.187,3.97 m -5.672,27.2 c -3.68,-4.52 -5.672,-10.19 -5.391,-15.86 0.571,-5.96 3.121,-11.34 7.66,-15.03 4.25,-3.96 10.2,-5.66 15.872,-5.38 12.187,0.85 21.55,11.34 20.699,23.24 -0.852,12.19 -11.34,21.26 -23.531,20.41 -5.95,-0.29 -11.34,-2.83 -15.309,-7.38" /><path
         id="path210"
         style="fill:#cf942c;fill-opacity:1;fill-rule:evenodd;stroke:none"
         d="m 1074.87,1425.06 c 0.85,-10.77 -7.37,-20.13 -18.13,-20.69 -10.78,-0.85 -20.41,7.37 -20.99,17.86 -0.85,10.77 7.37,19.84 18.14,20.69 10.78,0.85 20.13,-7.37 20.98,-17.86" /><path
         id="path212"
         style="fill:#fcd01a;fill-opacity:1;fill-rule:evenodd;stroke:none"
         d="m 1057.87,1431.3 c 0.27,-3.68 -2.56,-6.8 -6.24,-7.09 -3.97,-0.28 -7.08,2.55 -7.37,6.24 -0.29,3.68 2.55,6.8 6.24,7.09 3.96,0.28 7.09,-2.56 7.37,-6.24" /><path
         id="path214"
         style="fill:#b08451;fill-opacity:1;fill-rule:evenodd;stroke:none"
         d="m 1043.98,1410.89 c -3.41,3.12 -5.39,7.09 -5.66,11.62 -0.3,4.54 1.11,8.79 4.23,12.19 2.86,3.4 7.09,5.39 11.63,5.67 9.36,0.57 17.57,-6.24 18.14,-15.59 0.57,-9.35 -6.5,-17.29 -15.87,-17.86 -4.54,-0.57 -8.79,1.14 -12.47,3.97 m -5.39,27.21 c -3.96,-4.53 -5.95,-10.2 -5.39,-15.87 0.28,-5.95 3.12,-11.34 7.66,-15.02 4.25,-3.97 9.93,-5.96 15.87,-5.39 12.18,0.85 21.56,11.34 20.7,23.24 -0.86,12.19 -11.34,21.26 -23.54,20.41 -5.94,-0.28 -11.34,-3.12 -15.3,-7.37" /><path
         id="path216"
         style="fill:#f6d7c4;fill-opacity:1;fill-rule:evenodd;stroke:none"
         d="m 526.09,1502.45 c 0,0 -11.91,-89.57 22.109,-153.92 34.02,-64.06 60.66,-70.58 71.43,-102.05 10.488,-31.46 15.59,-79.37 85.332,-81.07 69.437,-1.42 111.398,-6.52 134.637,-13.89 23.25,-7.37 50.461,-3.97 68.601,14.17 18.141,18.15 35.43,49.61 83.91,86.18 48.751,36.56 76.811,63.78 53.851,123.87 -22.96,60.1 -15.3,112.82 -30.89,177.73 -15.601,64.92 -49.332,118.21 -107.722,122.74 -58.387,4.54 -360.848,-55.27 -381.258,-173.76" /><path
         id="path218"
         style="fill:#000000;fill-opacity:1;fill-rule:evenodd;stroke:none"
         d="m 907.348,1673.66 c 67.461,-5.1 94.962,-77.95 105.172,-120.76 6.51,-27.21 9.07,-52.72 11.33,-77.1 3.41,-34.01 6.52,-66.05 19.85,-100.91 22.39,-58.96 -5.11,-85.04 -53.02,-121.04 -34.289,-25.8 -53.571,-49.61 -67.742,-66.9 L 906.5,1167.39 c -16.441,-16.16 -41.672,-21.26 -66.051,-13.6 -25.23,8.22 -69.73,12.75 -135.488,14.17 -59.531,1.42 -70.023,36.28 -79.371,67.18 l -3.692,12.19 c -5.097,15.02 -13.609,24.38 -24.66,36.57 -12.758,14.17 -28.629,31.74 -46.769,65.76 -15.031,28.35 -20.981,62.08 -22.961,90.43 -2.27,34.29 1.133,61.22 1.133,62.07 19.839,116.22 321.449,176.04 378.707,171.5 m -383.809,-170.65 0,-0.28 c 0,-0.85 -11.621,-91.27 22.391,-155.34 18.429,-34.86 34.59,-52.44 47.621,-66.9 10.777,-12.18 18.707,-20.97 23.527,-34.86 l 3.692,-11.91 c 9.347,-30.89 20.968,-69.45 83.898,-70.86 65.48,-1.42 109.422,-5.96 134.082,-13.61 26.359,-8.5 53.578,-2.83 71.148,14.74 l 17.29,19.84 c 14.46,18.14 32.601,40.54 66.621,66.05 48.471,36.28 78.231,64.63 54.711,126.71 -13.04,34.3 -16.17,66.05 -19.56,99.5 -2.27,24.66 -4.82,50.17 -11.34,77.95 -18.432,76.53 -57.55,120.75 -109.991,124.72 -60.09,4.54 -363.109,-54.42 -384.09,-175.75" /><path
         id="path220"
         style="fill:#dba162;fill-opacity:1;fill-rule:evenodd;stroke:none"
         d="m 755.977,1345.98 c 0,0 -16.161,58.96 -58.961,73.7 -42.797,15.02 -67.75,-18.99 -62.36,-72.85 5.102,-54.14 132.66,-31.18 121.321,-0.85" /><path
         id="path222"
         style="fill:#a9836f;fill-opacity:1;fill-rule:evenodd;stroke:none"
         d="m 758.242,1346.82 0,-0.27 c -0.57,2.55 -14.738,53.29 -52.441,72.27 -2.547,1.14 -10.77,2.28 -11.34,1.71 -0.57,-0.85 6.519,-5.1 8.793,-6.24 36,-17.85 49.887,-68.31 50.168,-68.88 l 0,-0.28 c 1.422,-3.69 0.281,-7.37 -3.399,-11.06 -14.171,-14.18 -60.089,-23.25 -89.582,-13.04 -11.621,4.26 -18.988,10.77 -21.82,19.56 l -5.391,0 c 3.122,-11.05 11.911,-19.56 25.512,-24.38 31.75,-11.05 79.66,-1.14 94.961,14.46 6.52,6.24 5.957,12.47 4.539,16.15" /><path
         id="path224"
         style="fill:#000000;fill-opacity:1;fill-rule:evenodd;stroke:none"
         d="m 647.125,1298.07 c -17.57,-5.67 -22.961,-14.46 -22.961,-14.46 15.871,11.63 28.352,2.55 28.352,2.55 -15.59,-7.37 -14.18,-15.87 -14.18,-15.87 8.219,15.02 32.027,11.06 32.027,11.06 -24.937,-8.22 -18.418,-23.82 -18.418,-23.82 1.418,7.66 -2.84,12.19 33.45,25.23 5.668,2.27 18.418,11.91 29.757,21.55 -15.867,-7.66 -50.168,-0.85 -68.027,-6.24" /><path
         id="path226"
         style="fill:#fdfdfd;fill-opacity:1;fill-rule:evenodd;stroke:none"
         d="m 688.793,1284.46 c 0,0 43.371,3.97 63.5,20.41 19.84,16.72 8.781,42.24 8.781,42.24 0,0 -25.789,48.47 -77.101,44.22 -51.309,-4.26 -65.481,-59.53 -49.887,-77.11 15.879,-17.57 36.566,-31.74 54.707,-29.76" /><path
         id="path228"
         style="fill:#0081c0;fill-opacity:1;fill-rule:evenodd;stroke:none"
         d="m 688.227,1323.02 c 1.132,-14.46 7.652,-27.21 17.863,-36 14.449,2.83 34.297,8.22 46.199,17.86 19.848,16.72 8.789,42.23 8.789,42.23 0,0 -9.64,18.43 -29.199,31.47 -26.359,-4.82 -45.352,-28.63 -43.652,-55.56" /><path
         id="path230"
         style="fill:#12608e;fill-opacity:1;fill-rule:evenodd;stroke:none"
         d="m 709.77,1324.43 c 1.132,-14.73 11.91,-26.07 25.8,-28.91 6.231,2.55 12.18,5.68 16.719,9.36 19.844,16.73 8.793,42.23 8.793,42.23 0,0 -1.422,3.12 -4.82,7.66 -5.102,2.54 -10.492,3.68 -16.442,3.39 -17.859,-1.12 -31.179,-16.44 -30.05,-33.73" /><path
         id="path232"
         style="fill:#000000;fill-opacity:1;fill-rule:evenodd;stroke:none"
         d="m 763.063,1328.4 c 0.847,-9.92 -7.09,-18.71 -17.29,-19.27 -9.921,-0.86 -18.71,6.8 -19.562,16.72 -0.57,10.2 7.09,18.99 17.293,19.56 10.207,0.85 18.988,-6.81 19.559,-17.01" /><path
         id="path234"
         style="fill:#fdfdfd;fill-opacity:1;fill-rule:evenodd;stroke:none"
         d="m 721.68,1340.88 c 0.57,-5.68 -3.969,-10.77 -9.641,-11.07 -5.949,-0.27 -10.769,3.98 -11.34,9.64 -0.277,5.68 3.973,10.77 9.922,11.07 5.668,0.55 10.777,-3.98 11.059,-9.64" /><path
         id="path236"
         style="fill:#000000;fill-opacity:1;fill-rule:evenodd;stroke:none"
         d="m 691.914,1396.43 c -21.539,1.42 -37.98,-11.34 -51.59,-25.23 -6.801,-2.27 -15.019,-2.55 -20.98,6.24 0,0 1.992,-16.44 15.031,-12.47 -4.262,-4.54 -8.223,-8.79 -11.91,-12.76 -6.231,-2.55 -13.61,-2.84 -20.121,4.53 0,0 5.66,-17 14.742,-16.72 -7.094,-5.95 -16.731,-4.25 -23.82,-1.13 0,0 10.207,-10.21 24.097,-23.81 5.379,-5.67 9.641,-13.61 17.012,-19 14.738,-10.2 33.73,-11.9 54.418,-11.62 0,0 -33.73,2.84 -49.32,29.2 -15.59,26.64 0.851,57.83 35.152,70.01 34.578,11.91 62.641,-5.38 86.461,-36.56 0,0 -19,46.49 -69.172,49.32" /><path
         id="path238"
         style="fill:#dba162;fill-opacity:1;fill-rule:evenodd;stroke:none"
         d="m 871.633,1359.87 c 0,0 -9.922,88.44 6.797,120.76 16.441,32.31 51.031,33.44 72.293,18.7 21.257,-15.02 32.597,-73.7 27.488,-77.1 -5.102,-3.4 -69.731,-9.07 -106.578,-62.36" /><path
         id="path240"
         style="fill:#a9836f;fill-opacity:1;fill-rule:evenodd;stroke:none"
         d="m 973.109,1423.36 c -1.98,-0.57 -3.687,-1.13 -3.687,-1.13 -18.141,-4.26 -64.91,-15.87 -95.813,-56.12 -0.558,8.5 -1.98,24.37 -2.257,42.23 0,7.65 -1.141,23.81 -1.993,23.81 -0.847,0 -3.121,-15.31 -3.121,-22.4 0.293,-26.07 2.84,-48.46 3.121,-50.16 0,-1.14 0.852,-1.98 1.7,-2.28 1.14,-0.27 2.269,0.3 2.839,1.14 29.481,42.8 76.532,54.14 96.661,58.96 1.132,0.29 1.98,0.56 2.832,0.56 -0.282,1.71 -0.282,3.69 -0.282,5.39" /><path
         id="path242"
         style="fill:#000000;fill-opacity:1;fill-rule:evenodd;stroke:none"
         d="m 871.633,1359.87 c 0,0 14.457,32.6 43.09,48.47 28.629,15.59 34.859,20.7 39.109,34.3 0,0 5.957,-9.64 2.559,-18.14 0,0 20.968,12.76 24.66,30.33 0,0 4.25,-14.46 -2.27,-27.5 0,0 22.959,9.93 26.929,20.13 0,0 -3.12,-22.11 -19.558,-32.03 -16.16,-9.64 -72.57,-1.7 -114.519,-55.56" /><path
         id="path244"
         style="fill:#a9836f;fill-opacity:1;fill-rule:evenodd;stroke:none"
         d="m 808.137,1369.79 c -1.133,-0.57 0.847,-9.64 2.547,-18.43 2.269,-11.05 3.691,-26.36 -1.7,-36.85 -2.828,-5.66 -2.828,-10.2 -0.281,-13.6 2.832,-3.97 8.223,-5.39 13.32,-5.67 5.102,-0.57 13.043,1.7 13.043,3.12 -0.281,1.41 -9.363,1.41 -13.613,1.98 -3.68,0.28 -7.078,1.42 -8.777,3.4 -1.141,1.99 -0.86,4.82 1.129,8.51 5.949,11.9 4.531,27.78 1.98,39.68 -1.699,9.07 -6.23,18.14 -7.648,17.86" /><path
         id="path246"
         style="fill:#a9836f;fill-opacity:1;fill-rule:evenodd;stroke:none"
         d="m 932.574,1317.35 c -9.351,-17.01 -32.031,-32.88 -32.031,-33.17 -1.141,-0.85 -1.422,-2.26 -0.57,-3.4 0.57,-1.13 2.269,-1.41 3.398,-0.56 0.852,0.56 23.531,16.44 33.742,34.86 0.559,1.14 0.282,2.84 -1.14,3.4 -1.129,0.57 -2.828,0.29 -3.399,-1.13" /><path
         id="path248"
         style="fill:#a9836f;fill-opacity:1;fill-rule:evenodd;stroke:none"
         d="m 755.977,1245.35 c -0.282,-1.42 0.851,-2.55 1.98,-2.83 15.59,-3.41 40.262,0.56 41.391,0.56 1.418,0.29 2.269,1.42 2.269,2.84 -0.289,1.41 -1.699,2.26 -3.121,2.26 -0.277,0 -24.949,-3.96 -39.398,-0.85 -1.422,0.29 -2.84,-0.56 -3.121,-1.98" /><path
         id="path250"
         style="fill:#a9836f;fill-opacity:1;fill-rule:evenodd;stroke:none"
         d="m 755.41,1245.35 c -0.281,-1.98 1.981,-8.79 3.399,-8.22 1.421,0.28 1.421,6.8 1.992,8.5 0.558,1.7 1.98,5.67 0.847,6.52 -1.136,0.85 -5.386,-3.4 -6.238,-6.8" /><path
         id="path252"
         style="fill:#a9836f;fill-opacity:1;fill-rule:evenodd;stroke:none"
         d="m 923.508,1319.9 c -0.281,-1.42 4.539,-3.4 7.648,-4.54 3.121,-0.85 7.09,-2.55 10.489,-5.1 1.992,-1.41 7.371,-5.95 8.511,-5.38 1.129,0.85 -2.84,7.65 -5.109,9.07 -3.973,3.12 -8.5,5.1 -12.192,6.23 -3.398,1.14 -9.07,1.14 -9.347,-0.28" /><path
         id="path254"
         style="fill:#b92c31;fill-opacity:1;fill-rule:evenodd;stroke:none"
         d="m 797.363,1245.63 c 0,0 20.129,14.17 35.43,15.31 15.309,0.85 13.328,9.92 22.961,11.62 9.641,1.7 38.84,8.79 45.359,10.2 6.801,1.7 -3.121,-33.73 -6.242,-56.69 -2.828,-22.68 -20.969,-34.58 -43.078,-36 -22.121,-1.42 -37.141,36.28 -54.43,55.56" /><path
         id="path256"
         style="fill:#cf382c;fill-opacity:1;fill-rule:evenodd;stroke:none"
         d="m 840.73,1202.26 c 3.973,-3.97 8.5,-6.24 13.043,-5.95 12.188,0.85 22.387,6.23 26.93,16.44 -13.609,2.83 -26.652,-5.39 -39.973,-10.49" /><path
         id="path258"
         style="fill:#a7362e;fill-opacity:1;fill-rule:evenodd;stroke:none"
         d="m 832.797,1258.38 c 9.922,0.57 13.609,4.25 16.723,7.37 1.988,1.98 3.41,3.7 6.808,4.25 l 40.82,9.36 c 0,0 2.258,0.57 3.68,0.85 l 0,-0.85 c 0.57,-4.82 -2.269,-18.15 -4.25,-28.34 l -4.25,-24.39 c -2.551,-19.84 -17.859,-32.59 -40.82,-34 -13.61,-0.86 -25.231,16.43 -36.57,33.16 -4.532,6.8 -9.071,13.6 -13.891,18.98 5.391,3.69 20.133,12.77 31.75,13.61 m 67.75,26.93 -4.82,-1.13 -40.25,-9.07 c -5.11,-1.14 -7.368,-3.41 -9.637,-5.66 -2.844,-2.84 -5.391,-5.68 -13.32,-5.97 -15.883,-1.12 -36,-15.3 -36.852,-15.87 -0.57,-0.57 -0.852,-1.14 -0.852,-1.98 0,-0.57 0,-1.14 0.563,-1.7 5.098,-5.96 10.211,-13.05 15.309,-20.98 11.91,-17.86 24.378,-36.57 41.39,-35.43 25.512,1.69 42.52,16.16 45.352,38.27 l 4.25,24.37 c 4.539,22.39 5.949,31.18 2.547,34.3 -0.848,0.85 -2.258,1.13 -3.68,0.85" /><path
         id="path260"
         style="fill:#fdfdfd;fill-opacity:1;fill-rule:evenodd;stroke:none"
         d="m 799.063,1245.63 c 0,0 0.57,0.57 22.39,4.25 22.11,3.69 30.899,7.66 37.988,11.62 7.082,3.97 37.704,17.58 42.524,20.7 0,0 -10.211,-37.14 -14.461,-49.33 -4.25,-11.9 -38.832,-30.04 -58.109,-16.15 -18.993,13.89 -22.114,24.94 -30.332,28.91" /><path
         id="path262"
         style="fill:#a7362e;fill-opacity:1;fill-rule:evenodd;stroke:none"
         d="m 822.027,1247.33 c 22.68,3.97 31.457,7.94 38.547,11.91 l 18.711,9.07 c 6.801,3.11 13.891,6.52 18.711,8.78 -3.121,-10.77 -9.641,-34.3 -12.762,-43.37 -1.976,-5.1 -12.187,-13.32 -25.226,-17.29 -6.801,-2.27 -19.551,-4.53 -28.91,2.27 -10.493,7.65 -15.871,14.17 -20.41,19.28 -1.981,2.55 -3.68,4.53 -5.672,6.52 3.121,0.56 8.218,1.41 17.011,2.83 m 78.52,36.85 c -2.551,-1.7 -13.891,-6.8 -23.531,-11.34 l -18.711,-9.07 c -6.797,-3.68 -15.297,-7.65 -37.129,-11.34 -22.961,-3.97 -23.531,-4.53 -24.09,-5.1 -0.57,-0.57 -0.859,-1.42 -0.57,-2.27 0.281,-0.85 0.57,-1.41 1.422,-1.7 3.109,-1.42 5.66,-4.53 9.07,-8.5 4.25,-5.1 10.199,-12.19 20.969,-20.13 8.218,-6.23 20.41,-7.37 33.449,-3.12 13.609,3.97 25.801,13.04 28.629,20.41 4.25,12.19 13.89,47.91 14.461,49.61 0.281,0.85 -0.289,1.98 -1.141,2.55 -0.848,0.57 -1.98,0.57 -2.828,0" /><path
         id="path264"
         style="fill:#000000;fill-opacity:1;fill-rule:evenodd;stroke:none"
         d="m 576.824,1429.32 c 0,0 32.883,25.8 61.801,25.5 29.191,-0.27 63.211,-7.93 65.762,-1.12 2.269,7.08 -10.492,12.19 -32.602,11.34 -22.39,-0.85 -64.629,1.41 -94.961,-35.72" /><path
         id="path266"
         style="fill:#000000;fill-opacity:1;fill-rule:evenodd;stroke:none"
         d="m 928.609,1595.14 c 0,0 -41.671,-6.24 -61.23,-27.5 -19.563,-20.97 -37.133,-51.02 -43.941,-48.18 -6.52,3.11 -1.7,15.87 13.89,31.46 15.879,15.31 43.09,47.34 91.281,44.22" /><path
         id="path268"
         style="fill:#fcd01a;fill-opacity:1;fill-rule:evenodd;stroke:none"
         d="m 559.254,1866.42 c 144.848,24.94 380.98,30.9 446.456,-54.44 14.74,-18.98 20.69,-42.5 15.59,-71.13 -7.66,-40.82 -62.648,-100.92 -154.206,-151.66 -15.59,-8.5 -32.031,-17.01 -49.602,-24.94 -10.488,-4.54 -20.98,-9.07 -32.039,-13.61 -31.461,-12.47 -66.332,-26.36 -102.609,-39.12 -126.711,-44.5 -270.711,-75.13 -339.59,18.71 -88.441,120.75 5.098,284.59 159.59,324.28 16.437,4.26 35.429,8.22 56.41,11.91" /><path
         id="path270"
         style="fill:#000000;fill-opacity:1;fill-rule:evenodd;stroke:none"
         d="m 345.52,1531.64 c -35.43,48.2 -43.372,106.59 -22.391,164.41 26.93,74.56 96.09,134.37 180.559,155.91 16.441,4.25 35.152,8.23 55.851,11.91 143.149,24.66 379.551,30.9 444.181,-53.3 14.74,-19.27 19.86,-42.52 15.03,-69.44 -8.22,-43.94 -68.031,-102.61 -153.07,-149.67 -15.59,-8.8 -32.321,-17.01 -49.332,-24.94 l -32.032,-13.61 -1.41,-0.57 c -30.617,-12.2 -65.199,-25.79 -100.918,-38.55 -110.55,-38.83 -265.32,-79.08 -336.468,17.85 m 213.168,337.05 c -20.7,-3.4 -39.692,-7.37 -56.411,-11.62 -85.89,-22.11 -156.48,-83.06 -183.968,-159.31 -21.551,-59.53 -13.61,-119.35 22.961,-168.94 73.128,-99.78 230.449,-58.97 342.418,-19.56 35.718,12.47 70.589,26.36 101.199,38.54 l 1.422,0.57 32.308,13.61 c 17.012,7.93 33.731,16.16 49.61,24.95 86.171,47.89 147.123,108 155.353,153.35 5.37,28.35 0,52.72 -15.89,73.13 -66.042,86.18 -304.721,80.22 -449.002,55.28" /><path
         id="path272"
         style="fill:#000000;fill-opacity:1;fill-rule:evenodd;stroke:none"
         d="m 558.121,1868.69 c -1.422,-0.85 -126.992,-67.46 -146.269,-215.72 -6.524,-49.6 6.519,-89.85 38.839,-119.62 48.188,-44.22 128.411,-53.29 167.52,-45.35 1.418,0.28 2.269,1.41 1.988,2.83 -0.277,1.42 -1.418,2.27 -2.84,1.99 -38.257,-7.66 -116.218,1.13 -162.988,44.22 -31.18,28.63 -43.652,67.46 -37.422,115.37 19,145.7 142.301,210.89 143.442,211.74 1.129,0.57 1.699,1.99 1.129,3.41 -0.848,1.13 -2.27,1.7 -3.399,1.13" /><path
         id="path274"
         style="fill:#000000;fill-opacity:1;fill-rule:evenodd;stroke:none"
         d="m 725.93,1884.84 c -1.422,-0.85 -157.043,-79.94 -149.953,-211.46 7.371,-131.52 105.16,-163.84 106.011,-164.41 1.418,-0.29 2.84,0.28 3.121,1.71 0.571,1.41 -0.281,2.82 -1.421,3.11 -1.129,0.57 -95.239,32.03 -102.329,159.87 -7.371,128.13 145.418,205.79 146.84,206.64 1.41,0.58 1.981,2.27 1.129,3.41 -0.57,1.13 -1.98,1.7 -3.398,1.13" /><path
         id="path276"
         style="fill:#000000;fill-opacity:1;fill-rule:evenodd;stroke:none"
         d="m 913.586,1866.13 c -89.012,-17.29 -187.371,-98.36 -186.242,-187.09 1.14,-91.56 88.441,-116.78 89.582,-117.07 1.129,-0.56 2.547,0.29 3.117,1.7 0.281,1.42 -0.57,2.84 -1.988,3.12 -0.852,0.28 -84.469,24.66 -85.602,112.25 -1.14,86.18 95.242,165.26 182.262,182.27 1.418,0.28 2.269,1.7 1.988,2.84 -0.289,1.41 -1.699,2.26 -3.117,1.98" /><path
         id="path278"
         style="fill:#000000;fill-opacity:1;fill-rule:evenodd;stroke:none"
         d="m 798.215,1698.61 c -3.973,-93.83 67.457,-111.69 68.308,-111.97 1.141,-0.28 2.559,0.57 2.84,1.99 0.571,1.41 -0.281,2.55 -1.699,3.11 -2.84,0.57 -68.031,17.3 -64.351,106.59 3.968,92.12 102.332,144.85 154.21,147.11 1.411,0 2.551,1.14 2.551,2.56 -0.293,1.41 -1.422,2.55 -2.84,2.55 -53.293,-2.55 -155.05,-56.98 -159.019,-151.94" /><path
         id="path280"
         style="fill:#000000;fill-opacity:1;fill-rule:evenodd;stroke:none"
         d="m 1005.43,1814.55 c -0.85,-0.28 -76.539,-13.61 -109.418,-84.48 -14.172,-30.61 -7.082,-44.5 1.418,-50.45 18.422,-13.32 56.129,-1.42 71.718,13.04 11.34,10.2 15.024,22.11 9.922,31.46 -5.39,10.2 -18.992,15.02 -33.172,11.91 -1.41,-0.28 -2.269,-1.71 -1.976,-3.12 0.269,-1.43 1.699,-2.27 3.117,-1.98 11.902,2.83 23.242,-1.14 27.492,-9.07 3.969,-7.66 0.848,-16.73 -8.793,-25.51 -15.59,-14.18 -50.738,-23.25 -65.488,-12.76 -9.91,7.37 -9.621,22.68 0.578,44.5 31.75,68.32 104.602,81.36 105.452,81.36 1.42,0.28 2.27,1.69 1.97,3.12 -0.27,1.13 -1.7,2.25 -2.82,1.98" /></g></g></svg>