<svg width="176.85px4" height="180.55px4" viewBox="0 0 180.85 184.55" xmlns="http://www.w3.org/2000/svg" xmlns:xlink="http://www.w3.org/1999/xlink">
  <defs/>
  <g>
    <path stroke="none" fill="#ffdd00" d="M25.7 106.3 Q24.65 87.3 45.95 58.35 51.9 50.25 60.65 40.05 67.4 32.25 67.4 31.8 67.35 30.25 91.95 38.2 116.35 46 119.5 48.15 122.15 49.95 121.7 54.7 121.25 58.7 118.65 64.4 116.95 68.1 123.7 76.05 131.4 85.1 131.8 88.35 132.4 93.2 129 97.85 L123.45 103.75 Q121.1 106.1 120.45 109.35 119.8 112.8 122.25 112.9 124.45 113.05 125.55 111.75 L126.2 110.4 Q127.1 113.05 125.8 115.8 L124.35 118 126.25 118.95 Q128.15 120.45 128.25 123.1 128.3 125.75 126.85 126.6 L125.35 126.9 Q126.55 131.45 122.2 134.15 116.15 136.75 113.05 138.1 111.55 138.75 90.6 149.95 72.05 159.85 69.65 160.1 68 160.3 59.8 164.2 52.3 167.75 49.95 167.3 47.95 166.9 43.4 163.35 38.6 159.6 35.6 158.6 32 157.4 30.8 153.65 L30.3 150.15 28.4 148.85 Q26.5 147.1 26.55 144.75 26.6 142.4 28.35 140.45 L30.15 139 28.7 138.8 Q27.05 138.35 25.75 137.15 24.45 135.95 24.25 133.9 L24.3 132.1 24.95 133.4 Q26.1 134.75 28.55 134.9 31.05 135.05 33.35 133.35 L35.1 131.65 31.95 131.7 Q28.55 131.4 27.35 129.75 26.15 128.1 26.5 126.1 L27.1 124.4 24.9 123.45 Q22.65 122.2 22.55 120.4 22.45 118.6 23.55 116.65 L24.7 115.05 23.15 114.85 Q21.4 114.45 20.5 113.3 19.6 112.1 19.6 110.75 L19.8 109.65 20.9 110.75 Q22.3 111.8 23.75 111.25 25.25 110.7 25.65 108.45 L25.7 106.3"/>
    <path stroke="none" fill="#000000" d="M132.3 88.3 Q132.8 92.85 130.05 97.15 128.5 99.6 124.9 103 L123.8 104.05 Q122.25 105.6 121.35 108 120.45 110.3 120.95 111.6 121.35 112.4 122.25 112.45 124.15 112.55 125.1 111.5 L125.7 110.35 Q125.75 110 126.15 109.9 126.55 109.9 126.65 110.25 127.4 112.55 126.65 114.9 126.2 116.5 125.15 117.8 128.6 119.25 128.7 123.1 128.8 125.65 127.5 126.7 126.9 127.25 125.95 127.35 126.7 131.2 123.6 133.75 121.7 135.25 116.5 137.25 L113.25 138.55 Q110.6 139.7 98.25 146.4 L80.45 155.85 Q71.5 160.4 69.7 160.6 68.2 160.8 61.75 163.75 57.25 165.95 55.1 166.8 51.6 168.1 49.9 167.75 48.4 167.45 46.6 166.3 L43.25 163.85 Q38.4 160 35.45 159.05 32 157.95 30.65 154.6 29.75 152.55 29.85 150.45 26 148.4 26.05 144.75 26.1 141.55 28.9 139.35 26.8 138.8 25.4 137.45 24.05 136.15 23.8 134 23.6 132.6 23.8 132 23.9 131.65 24.3 131.65 24.75 131.65 24.75 132.05 24.75 132.55 25.35 133.2 26.4 134.3 28.6 134.4 L29.15 134.4 Q31.65 134.35 33.9 132.2 L33.7 132.2 Q28.6 132.35 26.95 130.05 25.1 127.55 26.45 124.7 24.95 124.2 23.85 123.4 22.15 122.1 22.05 120.45 21.95 117.95 23.75 115.5 21.25 115.15 20.1 113.55 19.15 112.25 19.15 110.75 L19.35 109.45 19.75 109.15 20.2 109.35 21.2 110.4 Q22.4 111.25 23.6 110.8 24.85 110.35 25.2 108.35 L25.25 106.35 Q24.35 90.45 38.85 67.75 46.8 55.25 62.1 37.65 L66.9 31.85 Q66.9 31.5 67.25 31.3 69.3 30.15 93.7 38.25 117.2 46 119.75 47.75 122.8 49.8 122.15 55.05 121.65 59.1 119.05 64.6 118 66.95 120.15 70.55 121.4 72.7 125.35 77.25 L129.85 82.85 Q132 85.95 132.3 88.3 M124.6 77.9 Q120.5 73.15 119.15 70.8 116.95 66.9 118.2 64.2 120.45 59.35 121.05 55.7 121.95 50.4 119.2 48.55 116 46.35 93.55 39.15 71.2 32 67.95 32.05 L67.8 32.1 Q67.5 32.95 62.85 38.3 47.65 55.85 39.75 68.15 25.35 90.6 26.2 106.25 L26.1 108.7 Q25.65 111.05 23.95 111.7 L22.9 111.9 Q21.35 111.95 20.1 110.7 20.1 111.95 20.85 113 22.1 114.65 24.7 114.6 25 114.6 25.15 114.85 L25.05 115.4 24 116.9 Q22.95 118.7 23.05 120.35 23.1 121.9 25.15 123.05 26.2 123.65 27.25 123.95 L27.55 124.25 27.5 124.65 26.95 126.2 Q26.65 128 27.7 129.45 28.8 130.95 32 131.2 L35 131.15 Q35.3 131.05 35.5 131.35 L35.5 131.9 33.7 133.65 Q31.6 135.3 29.2 135.35 L28.55 135.35 Q26.1 135.25 24.75 133.9 24.95 135.7 26.1 136.8 27.95 138.55 30.15 138.55 30.5 138.55 30.6 138.9 L30.35 139.45 28.7 140.85 Q27.05 142.6 27.05 144.75 27 146.9 28.7 148.5 L30.5 149.75 Q30.8 149.85 30.8 150.2 L31.25 153.6 Q32.35 157 35.75 158.15 38.85 159.1 43.85 163.05 L47.05 165.45 Q48.75 166.55 50.05 166.8 51.55 167.1 54.95 165.8 L61.35 162.9 66 160.75 69.6 159.65 Q71.25 159.5 80.35 154.8 L97.8 145.55 Q110.1 138.9 112.85 137.65 L116.2 136.35 Q121.3 134.35 123 132.95 125.85 130.65 124.9 127 L125 126.55 Q125.15 126.4 125.45 126.4 126.25 126.5 126.9 125.95 127.75 125.25 127.75 123.1 127.7 120.7 126 119.35 L124.25 118.45 123.9 118.15 Q123.8 117.85 124 117.65 L125.15 116 Q126.2 113.95 126 111.9 124.85 113.35 122.75 113.4 L122.25 113.4 Q120.65 113.3 120.1 111.9 119.45 110.3 120.45 107.6 121.4 105.1 123.1 103.4 L124.25 102.3 Q127.75 98.95 129.25 96.65 131.85 92.65 131.3 88.4 131.05 86.25 128.95 83.3 L124.6 77.9"/>
    <path stroke="none" fill="#000000" d="M41.65 97.75 L42.35 105.9 Q42.4 114.15 39.55 116.9 38.3 118.05 36.95 118.2 35.6 118.35 34.45 117.4 32.75 116.1 32.1 113.6 31.4 111.1 32.3 109.55 33.2 108 34.75 108.25 36.15 108.55 37.25 110.2 37.65 110.8 37.9 112.1 38.1 113.35 37.9 113.4 37.75 113.45 37.25 112.3 L36.35 110.6 Q35.55 109.45 34.55 109.2 33.65 109.05 33.1 110.05 32.4 111.25 33.05 113.4 33.65 115.55 35 116.65 36.85 118.05 38.9 116.2 41.5 113.7 41.35 105.6 L40.7 97.9 Q40.6 97.45 41.1 97.35 41.55 97.35 41.65 97.75"/>
    <path stroke="none" fill="#000000" d="M31.35 119.85 Q32.15 120.2 32.15 121.8 32.15 122.95 31.3 123.65 30.5 124.4 29.05 124.75 L27.05 124.9 26.7 124.65 Q26.6 124.45 26.65 124.25 27.25 122.35 28.8 120.95 30.5 119.5 31.35 119.85 M29.45 121.7 Q28.6 122.45 27.8 123.9 29.75 123.8 30.65 122.95 31.2 122.45 31.2 121.8 L31.05 120.9 30.95 120.75 30.9 120.7 Q30.35 120.9 29.45 121.7"/>
    <path stroke="none" fill="#000000" d="M45.9 125.55 Q48.25 131.05 48.3 135.45 48.35 140.7 44.9 142.7 42.45 144.15 40.35 144.45 38.2 144.8 37.1 143.95 35.7 142.75 36.55 140.2 37.7 136.6 39.55 135.65 L41.65 135.5 Q42.5 135.85 42.5 136.95 L42.2 138.1 41.25 139.5 40.6 139.9 Q40.55 139.75 40.85 139 L41.35 137.65 41.5 136.9 41.35 136.4 40 136.5 Q38.45 137.25 37.45 140.5 36.8 142.4 37.75 143.15 38.6 143.85 40.45 143.5 42.25 143.1 44.4 141.85 47.45 140.1 47.3 135.1 47.2 130.95 45 125.95 43.9 123.35 43.9 121.25 43.9 119.65 44.8 118.4 45.55 117.3 45.8 117.55 L45.35 118.8 Q44.75 120.25 44.85 121.65 44.95 123.35 45.9 125.55"/>
    <path stroke="none" fill="#000000" d="M32.15 146.9 Q32.3 147.1 31.1 148.75 30.8 149.5 30.8 150.15 30.8 150.65 30.3 150.65 29.85 150.65 29.85 150.15 29.85 149.25 30.25 148.3 L31.25 147.3 Q32.05 146.7 32.15 146.9"/>
    <path stroke="none" fill="#000000" d="M123.85 103.5 Q124.05 103.9 123.7 104.15 L121.25 105.35 Q118.6 106.35 116.9 105.7 115.2 105.1 114.65 102.95 113.65 99.4 116.7 96.65 117.95 95.45 119.7 94.85 121.4 94.2 122.35 94.55 123.05 94.8 123.35 95.65 123.7 96.5 123.5 97.65 123.35 98.8 122.65 99.9 122.2 100.55 120.65 101 L119.05 101.2 Q119.05 101.1 120.35 100.4 121.7 99.6 122 99.1 L122.6 97.5 122.55 96.2 Q122.35 95.6 122 95.45 L120.05 95.75 Q118.5 96.3 117.3 97.35 114.8 99.75 115.6 102.7 116 104.35 117.25 104.8 118.65 105.35 121.05 104.4 122.25 103.95 123.2 103.35 123.6 103.05 123.85 103.5"/>
    <path stroke="none" fill="#000000" d="M117.75 113.3 Q119.75 114.95 119.9 117.2 120 119.15 118.7 120.75 117.2 122.6 114.85 122.95 112.15 123.3 109.5 121.35 105.3 118.2 102.8 109 L101 99.95 Q101 99.4 101.45 99.4 101.85 99.3 101.95 99.8 L103.65 108.45 Q106.15 117.6 110.1 120.55 112.4 122.25 114.7 122 116.7 121.75 117.95 120.15 119 118.8 118.9 117.25 118.8 115.4 117.15 114 L115.3 112.85 114.8 112.8 Q114.6 112.9 114.65 113.65 L114.95 114.8 Q115.1 115.3 115.8 116.25 L116.4 117.2 Q116.3 117.45 115.35 116.75 114.35 116 114.1 115.3 113.75 114.4 113.7 113.7 113.6 112.4 114.35 111.95 115.35 111.35 117.75 113.3"/>
    <path stroke="none" fill="#000000" d="M125.8 126.7 Q125.95 127.15 125.55 127.35 125.1 127.55 124.9 127.05 L124.15 125.65 123.45 124.85 Q123 124.35 123.05 124.15 123.05 123.95 123.65 124.15 L124.6 124.75 Q125.4 125.6 125.8 126.7"/>
    <path stroke="none" fill="#ffcdad" d="M124.25 79.85 Q122.55 83.4 118.95 87.45 115.3 91.65 113.8 94.6 L100.95 118.85 Q105.25 118.45 109.5 120.8 113.9 123.2 114 126.35 114.05 129 109.2 134.05 L97.45 145.65 Q92.15 151.15 75.45 150.85 L63.4 150.5 Q57.35 150.45 55.2 151.5 50.9 153.55 44.95 160.85 L39.85 167.7 42.2 170.85 40.35 170.85 32.25 171.85 30.1 172.25 26.2 172.4 25.5 171.65 Q23.7 169.65 25.3 167.1 L30.3 161.3 Q35.55 155.5 40.05 149.3 46.85 139.95 48.55 133.9 50.4 127.6 54 124.9 56.9 122.75 59.65 123.5 L64.5 124.8 Q67.3 125.3 68.3 124.25 69.25 123.2 68 118.9 L66.55 114.8 Q66.35 112.15 73.55 110.95 80.7 109.7 80.8 111.9 80.9 114.65 82 119.75 84.3 118.2 86.55 115.85 88.35 113.9 97.05 102.05 106 89.9 107.25 87.55 108.8 84.7 111.5 80.7 114.6 76.15 116.65 74.05 L125.9 63.1 135.3 51.45 Q136.1 55 138.3 57.9 135.5 61.85 131.45 68.05 125.85 76.6 124.25 79.85"/>
    <path stroke="none" fill="#000000" d="M25.6 172.45 L25.15 171.95 Q23.3 169.95 24.45 167.6 25.15 166.05 28.35 162.7 L29.9 160.95 Q33.75 156.85 38.5 150.55 46.2 140.25 48.1 133.8 50.05 127.05 54 124.35 56.95 122.3 59.75 123.05 L61.35 123.45 65.15 124.35 Q67.25 124.65 67.95 123.9 68.55 123.2 67.85 120.25 67.25 117.75 66.1 114.95 L66.1 114.8 Q66.05 113.5 67.6 112.45 69.1 111.5 71.75 110.85 L76.7 110.1 Q79.25 110 80.4 110.6 81.3 111.1 81.3 111.85 81.35 113.9 82.35 118.9 L86.15 115.5 Q87.9 113.65 96.65 101.75 105.55 89.65 106.8 87.3 108.4 84.3 111.15 80.3 114.25 75.8 116.3 73.7 L125.8 62.5 135.15 50.85 135.45 52.05 126.1 63.65 117.05 74.35 Q115 76.4 111.95 80.85 109.3 84.75 107.65 87.8 106.4 90.2 97.45 102.35 L86.9 116.2 Q84.65 118.55 82.3 120.15 L82.05 120.25 81.85 120.2 81.55 119.85 Q80.4 114.7 80.3 111.9 L79.95 111.5 Q79.1 111.05 76.7 111.05 L72.15 111.7 Q69.6 112.3 68.15 113.25 67.1 114 67.1 114.7 70.35 122.75 68.65 124.55 67.65 125.6 65.4 125.4 L61.05 124.45 59.5 123.95 Q57.05 123.35 54.4 125.25 50.85 127.8 49.05 134.05 47.15 140.6 39.7 150.6 35.45 156.35 30.65 161.6 L29.05 163.35 Q26 166.65 25.35 167.95 24.45 169.75 25.85 171.3 L26.75 172.35 25.6 172.45"/>
    <path stroke="none" fill="#000000" d="M138 57.5 L138.65 58.35 Q135.9 62.2 131.85 68.3 126.3 76.7 124.7 80.05 123.55 82.5 121.95 84.65 L119.1 88.1 Q115.9 91.7 114.25 94.85 L101.8 118.35 Q104.5 118.3 107.35 119.3 110.15 120.3 112.1 122.05 114.45 124.1 114.5 126.35 114.55 128.55 112 131.7 110.4 133.65 105.2 138.65 L97.8 145.95 Q93 151 80.1 151.35 76.2 151.45 69.2 151.15 L60.95 151 Q56.95 151.15 55.4 151.95 49.45 154.8 40.45 167.65 L42.8 170.9 41.55 170.85 39.45 168 Q39.3 167.65 39.45 167.4 41.8 163.9 44.75 160.3 50.65 153.15 54.95 151.05 56.75 150.2 60.75 150.05 63.25 149.95 69.25 150.2 79.9 150.6 84.85 150.05 93.45 149.1 97.1 145.3 L104.5 137.95 111 131.3 Q113.55 128.3 113.5 126.4 113.4 124.45 111.45 122.8 109.5 121.1 106.55 120.1 103.6 119.15 101 119.35 L100.55 119.1 Q100.35 118.95 100.5 118.6 L113.35 94.4 Q114.95 91.35 118.35 87.45 L121.15 84.05 Q122.65 81.95 123.8 79.65 125.25 76.7 130.85 68.1 135.75 60.6 138 57.5"/>
    <path stroke="none" fill="#956551" d="M40.25 167.35 Q40.6 167.8 40.15 168.05 L39.45 167.95 38.65 167.05 Q36.8 165.45 36.9 165.2 L37.95 165.45 Q38.9 165.9 39.3 166.3 L40.25 167.35"/>
    <path stroke="none" fill="#ffcdad" d="M35.05 85.2 Q33.05 80.6 32.4 74.2 31.1 61.5 37.75 52.8 47 40.8 62.2 36.1 79.85 30.6 93.95 40.25 106.6 48.9 104.2 72.6 103.5 79.45 101.2 89.5 99.15 98.5 99.15 99.9 99.2 104.45 93.45 108.5 90.3 110.75 84.3 113.85 L78.25 117.75 Q75.35 119.5 73.5 119.85 70.3 120.5 63.55 117.3 L58.25 114.95 Q54.55 113.45 49 111.75 43.4 110.05 41.3 106.1 40.05 103.75 39.55 98.4 39.25 95.1 37.15 89.85 L35.05 85.2"/>
    <path stroke="none" fill="#000000" d="M94.6 39.75 Q105.25 47 105.45 64.5 105.55 74.25 101.6 91.6 100 98.25 100 99.8 100.05 103.8 96.05 107.3 93.75 109.3 88.3 112.25 85.7 113.85 83.05 115.4 L78.05 118.5 Q75.65 119.9 73.95 120.25 72 120.6 69.15 119.8 67.05 119.15 63.7 117.65 L62.65 117.15 Q56.75 114.4 49.2 112.1 43.4 110.35 41.2 106.2 39.9 103.75 39.4 98.35 39.1 95.15 37.05 89.95 L34.95 85.35 34.95 85.3 Q32.95 80.45 32.3 74 31.05 61.1 37.75 52.35 46.95 40.35 62.2 35.55 80.15 29.85 94.6 39.75 M38.55 52.95 Q32.05 61.4 33.25 73.9 33.9 80.15 35.85 84.9 L38.05 89.75 Q40.1 94.95 40.4 98.3 40.9 103.5 42.1 105.7 44.1 109.5 49.5 111.15 57.3 113.55 63.1 116.3 L64.1 116.75 Q69.8 119.45 72.8 119.4 L73.75 119.25 Q75.3 118.95 77.65 117.6 L82.5 114.55 87.8 111.4 Q93.05 108.55 95.25 106.65 99.1 103.4 99.05 99.8 99.05 98.25 100.6 91.35 104.5 74.3 104.45 64.75 104.3 47.6 94 40.55 79.95 30.9 62.4 36.5 47.55 41.25 38.55 52.95"/>
    <path stroke="none" fill="#000000" d="M92.6 147.85 Q92.6 148.4 92.15 148.4 91.7 148.5 91.6 148 91.3 145.35 90.15 142.2 87.8 135.95 83.45 133.1 79.55 130.45 73.95 131 L68.75 131.6 Q68.65 131.4 70.75 130.75 72.8 130.1 73.95 130 79.75 129.5 84.05 132.3 88.6 135.3 91.05 141.7 92.25 144.95 92.6 147.85"/>
    <path stroke="none" fill="#000000" d="M82.9 120.55 L83.7 122.7 Q83.65 122.95 83.05 122.35 L82.1 121.15 81.55 119.9 Q81.45 119.4 81.9 119.25 82.35 119.15 82.5 119.6 L82.9 120.55"/>
    <path stroke="none" fill="#000000" d="M88.55 124.4 Q88.75 124.6 86.8 127.65 85.95 129.55 85.95 131.9 L86.15 133.85 Q86.25 134.35 85.8 134.45 85.3 134.55 85.2 134.05 84.95 133.35 84.95 131.85 84.9 129.4 85.85 127.3 86.2 126.6 87.3 125.4 88.4 124.25 88.55 124.4"/>
    <path stroke="none" fill="#956551" d="M56.8 139.65 Q57.6 141.25 57.65 143.2 57.65 143.7 57.15 143.7 56.65 143.7 56.65 143.2 56.6 141.8 56.15 140.65 L55.15 138.95 54.6 138.1 55.5 138.3 Q56.35 138.8 56.8 139.65"/>
    <path stroke="none" fill="#ffffff" d="M54.65 151.65 Q53.65 151.5 52.65 150.85 50.7 149.55 50.85 147.2 51 144.9 53.05 143.8 L55.05 143.15 55.25 141.9 Q55.65 140.45 56.8 139.4 57.95 138.4 59.8 138.75 L61.45 139.3 61.7 137.95 Q62.25 136.5 63.7 135.95 65.1 135.4 66.9 136.25 67.8 136.65 68.4 137.2 L69.3 135.9 Q70.45 134.6 71.95 134.4 73.45 134.2 74.85 135.55 L75.95 137 77.45 136.05 Q79.25 135.15 80.6 135.35 82 135.55 82.9 137.25 L83.5 138.95 84.7 138.55 87.1 138.65 Q88.75 139.35 90.4 143.1 L90.2 141.15 Q90.15 139 91 137.8 89.3 136.6 89.3 135.35 89.35 134.55 90.9 133.35 L92.5 132.35 91.9 131.25 Q91.35 129.95 91.75 128.65 92.2 127.35 93.45 127.1 L94.6 127.05 Q94.6 124.95 95.95 123.5 96.75 122.65 98.3 122.85 L99.7 123.25 Q99.6 122.4 99.8 121.35 100.15 119.25 101.65 118.35 103.25 117.35 105.2 118.15 106.8 118.75 107.15 119.6 L108.15 118.6 Q109.45 117.6 111.2 117.7 113.05 117.85 114.2 121.1 115.25 124.05 114.8 125.3 L114.15 129.45 Q113.3 133.95 111.4 137.65 105.4 149.4 90.45 151.1 L63.6 152.4 54.65 151.65"/>
    <path stroke="none" fill="#000000" d="M113.75 118.95 Q114.7 120.4 115.15 122.6 115.55 124.6 115.25 125.45 L115.15 126.3 Q113.6 139.05 105.7 145.6 99.7 150.55 90.5 151.6 L63.7 152.9 54.6 152.15 Q53 151.85 51.8 150.8 50.2 149.4 50.35 147.2 50.5 145.2 51.95 143.95 53.05 143 54.6 142.7 54.75 140.6 56.45 139.05 57.45 138.25 58.8 138.15 L61.05 138.55 Q61.45 136.25 63.5 135.5 L64.75 135.25 Q66.4 135.15 68.25 136.45 69.65 134.2 71.85 133.85 L72.2 133.85 Q74.4 133.8 76.1 136.3 78.3 134.85 80 134.85 L80.7 134.85 Q82.9 135.15 83.8 138.3 L85.7 137.9 Q86.7 137.9 87.3 138.2 88.4 138.7 89.7 140.7 89.8 139 90.35 137.95 88.8 136.7 88.8 135.3 88.85 133.9 91.8 132.15 90.7 130.35 91.3 128.5 91.95 126.5 94.05 126.5 L94.15 126.5 Q94.45 124.35 95.55 123.2 96.35 122.35 97.65 122.35 L99.15 122.55 Q99.15 119.3 101.4 117.9 L103.4 117.3 105.2 117.6 Q106.45 118.1 107.15 118.8 108.5 117.3 110.7 117.25 L111.2 117.25 Q112.6 117.3 113.75 118.95 M101.9 118.75 Q100.6 119.55 100.25 121.45 100.05 122.35 100.15 123.2 L100 123.65 99.5 123.7 Q99.3 123.5 98.3 123.35 96.95 123.15 96.3 123.85 95.1 125.1 95.1 127.05 L94.9 127.4 94.5 127.5 93.5 127.55 Q92.55 127.85 92.25 128.8 91.65 130.55 92.9 132 L92.95 132.4 92.75 132.75 90.85 134.05 Q89.8 134.85 89.8 135.35 89.8 136.3 91.25 137.4 L91.5 137.7 91.4 138.1 Q90.2 139.8 90.9 142.95 91 143.4 90.55 143.55 90.15 143.65 89.95 143.3 88.35 139.7 86.9 139.1 L84.8 139.05 83.7 139.4 Q83.5 139.6 83.25 139.4 L83 139.05 Q82.35 136.1 80.55 135.8 79.35 135.65 77.7 136.5 L76.25 137.4 75.85 137.5 75.55 137.25 74.55 135.95 Q73.3 134.7 72 134.85 70.7 135.05 69.65 136.25 L68.85 137.4 68.5 137.65 68.05 137.55 Q67.5 137.05 66.7 136.7 65.05 135.9 63.85 136.4 62.65 136.85 62.2 138.1 L61.95 139.3 61.7 139.7 61.25 139.75 59.75 139.25 Q58.1 138.95 57.1 139.8 55.5 141.25 55.55 143.15 55.55 143.55 55.1 143.65 L53.25 144.25 Q51.5 145.2 51.35 147.25 51.2 149.3 52.9 150.45 53.8 151 54.8 151.2 L59.4 151.7 Q65.5 152.1 73 151.9 L90.4 150.6 Q102.2 149.3 108.35 141.45 113 135.5 114.15 126.2 L114.35 125.1 Q114.55 124.5 114.15 122.75 113.75 120.8 112.9 119.5 112.1 118.3 111.15 118.2 109.6 118.15 108.45 118.95 L107.55 119.85 Q107.35 120.15 107.1 120.05 L106.65 119.75 106.15 119.2 104.85 118.55 101.9 118.75"/>
    <path stroke="none" fill="#0070b9" d="M94.45 168.7 Q93.75 168.7 92.1 167.05 L90.35 165.5 Q89.3 164.75 88.5 164.75 87.75 164.75 87.05 165.4 L86.9 165.6 86.75 165.55 73.55 166.7 59.9 167.9 59.85 167.9 59.75 167.8 Q54.3 164.85 52.95 160.75 51.6 156.65 53.8 149.75 54.7 147.05 57.3 144.4 62.5 139.15 71.2 139.15 L73.45 139.25 Q81.6 139.85 86.7 142.2 90.1 143.7 91.65 145.7 92.65 139.05 94.4 133.65 97.5 124.25 101.9 122.3 104.5 121.15 107.4 121.15 112.75 121.15 116.7 124.9 121.2 129.1 121.9 136.65 122.9 147.4 116.3 154.4 112.45 158.45 103.15 163.1 99.85 164.75 98.35 165.65 96.15 167 95.3 168.2 95 168.7 94.45 168.7"/>
    <path stroke="none" fill="#31348f" d="M107.4 121.5 Q104.55 121.5 102.05 122.6 97.25 124.7 94.1 135.85 92.55 141.45 91.9 146.6 91.2 145.15 88.55 143.55 83.2 140.35 73.4 139.6 L71.2 139.5 Q62.6 139.5 57.5 144.65 54.95 147.25 54.15 149.8 51.95 156.7 53.3 160.7 54.6 164.65 59.9 167.55 L86.85 165.15 Q87.6 164.4 88.5 164.4 89.8 164.4 91.85 166.4 93.95 168.35 94.45 168.35 94.8 168.35 95 168 96.25 166.15 101.3 163.6 108.5 160 110.75 158.5 122.85 150.6 121.55 136.65 120.85 129.25 116.55 125.15 112.7 121.5 107.4 121.5 M107.4 120.8 Q112.9 120.8 116.9 124.6 121.5 128.9 122.2 136.6 123.25 147.55 116.6 154.6 112.75 158.7 103.3 163.4 99.95 165.1 98.6 165.9 96.4 167.25 95.55 168.4 95.2 169.05 94.45 169.05 93.6 169.05 91.85 167.3 89.65 165.1 88.5 165.1 87.85 165.1 87.3 165.65 L87 166 86.7 165.85 59.9 168.2 59.75 168.2 59.55 168.15 Q54 165.05 52.65 160.9 51.25 156.7 53.5 149.65 54.4 146.9 57.05 144.2 62.35 138.85 71.2 138.85 L73.45 138.9 Q80.95 139.45 86 141.5 89.5 142.95 91.45 144.9 92.45 138.2 94.35 132.7 97.4 123.9 101.75 122 104.4 120.8 107.4 120.8"/>
    <path stroke="none" fill="#0f81c5" d="M110 140.85 Q106.5 142.7 101.5 142.25 96.25 141.75 93.35 138.9 94.7 133.15 96.55 129.15 99 123.95 102.05 122.6 106.4 120.65 111.1 121.95 116.15 123.35 118.95 127.8 115.3 136.8 110 140.85"/>
    <path stroke="none" fill="#0f81c5" d="M79.85 156.55 Q64.95 161.1 52.95 155.05 53.25 152.5 54.15 149.8 55.05 146.95 57.9 144.25 63.6 138.9 73.4 139.6 80.6 140.1 85.65 142.1 87.55 147.45 86.45 151.15 85.15 155.5 79.85 156.55"/>
    <path stroke="none" fill="#e30000" d="M59.35 100.55 L60.4 100.35 62.3 99.8 Q65.1 98.95 66.7 99.75 L68.35 100.7 Q69.25 101.2 69.9 101 L72.15 100.05 74.9 99.8 79.1 100.65 Q77.7 102.35 77.85 105 78.05 107.95 77.45 109.1 75.5 112.7 66.15 111.65 62.8 111.25 61.9 108.15 61.75 107.55 61.55 103.6 61.5 102.35 60.4 101.35 L59.35 100.55"/>
    <path stroke="none" fill="#f53535" d="M69 108.85 L73.2 108.5 75.15 108.3 74.35 109.35 Q73.25 110.3 69.7 110.2 66.25 110.05 65.2 109.2 L63.9 107.8 65.35 108.2 69 108.85"/>
    <path stroke="none" fill="#940000" d="M79.55 100.45 L79.5 100.95 Q78.6 102 78.4 103.25 L78.4 105.5 Q78.6 107.9 77.85 109.35 75.8 113.2 66.1 112.15 62.8 111.8 61.7 109 61.05 107.4 61.05 104.45 L61.05 103.6 Q61 102.55 60.05 101.65 L59.15 101 Q58.75 100.85 58.9 100.4 59 100 59.4 100.1 L60.95 99.7 62.15 99.3 Q65.15 98.4 66.9 99.3 L67.9 99.9 Q69.3 100.7 69.75 100.55 L70.65 100.15 Q73.5 98.85 75.05 99.3 76.65 99.9 79.15 100.15 L79.55 100.45 M60.55 100.85 Q62 102 62.05 103.55 L62.05 104.45 Q62.05 107.4 62.7 108.85 63.65 110.9 66.25 111.15 75.15 112.2 77 108.9 77.6 107.7 77.4 105.55 77.2 102.75 78.25 101.05 L74.75 100.25 73.95 100.15 Q72.85 100.2 71.05 101.05 L70.1 101.45 69.55 101.55 Q68.85 101.6 67.4 100.7 L66.45 100.15 64.75 99.85 62.45 100.25 60.55 100.85"/>
    <path stroke="none" fill="#ffffff" d="M61.1 101.25 Q63.1 100.7 65.4 102.1 68 103.65 69.6 103.6 71.2 103.55 72.8 102.5 74.55 101.3 74.85 101.25 L77.95 101.4 Q77.15 101.95 76.5 103.15 75.95 104.25 75.75 105.45 75.35 107.4 69.7 107.55 L65.95 107.1 Q64.85 106.65 64.15 105.5 L62.3 102.8 61.1 101.25"/>
    <path stroke="none" fill="#940000" d="M78.4 101.3 L78.2 101.85 Q77.5 102.3 76.9 103.45 76.4 104.45 76.2 105.55 75.8 107.8 69.7 108.05 L65.9 107.6 Q64.5 107.1 63.7 105.75 L60.7 101.55 60.65 101.1 Q60.75 100.8 61 100.8 62.45 100.4 63.8 100.8 64.55 101.05 65.95 101.85 L67.6 102.75 69.6 103.1 Q71.05 103.05 73.15 101.65 L74.75 100.75 78 100.95 Q78.4 100.95 78.4 101.3 M62.25 101.6 L62 101.6 64.55 105.2 Q65.2 106.25 66.15 106.65 L69.65 107.05 Q74.95 106.85 75.25 105.35 75.65 103.2 76.85 101.75 L75.6 101.65 74.95 101.75 Q74.65 101.8 73.7 102.45 71.55 104 69.65 104.05 L67.25 103.65 65.45 102.7 63.95 101.9 62.25 101.6"/>
    <path stroke="none" fill="#940000" d="M83.85 96.75 Q84.25 96.9 84.05 97.4 83.25 98.85 81.25 100.1 L79.25 101.15 Q78.85 101.25 78.65 100.8 L78.65 100.45 78.95 100.2 Q82.1 98.95 83.2 96.95 83.4 96.5 83.85 96.75"/>
    <path stroke="none" fill="#956551" d="M84.45 97.4 L84.7 98.55 84.6 99.4 84.05 98.8 83.55 97.9 82.85 97 81.15 95.65 82 95.6 Q82.85 95.75 83.4 96.2 L84.45 97.4"/>
    <path stroke="none" fill="#940000" d="M61.5 100.7 Q62 100.7 62 101.2 62 101.7 61.55 101.7 60.1 101.75 57.8 100.65 55.2 99.4 54.25 97.8 54 97.35 54.4 97.1 54.75 96.9 55.05 97.25 55.9 98.65 58.3 99.75 60.35 100.75 61.5 100.7"/>
    <path stroke="none" fill="#956551" d="M56.35 96.1 L55.85 96.8 54.85 97.9 54.25 98.95 53.6 99.7 Q53.4 99.65 53.65 98.6 53.85 97.55 54.15 97.2 L55.5 96.2 56.35 96.1"/>
    <path stroke="none" fill="#000000" d="M68.75 88.6 Q67.75 90.5 65.9 91.25 L66.9 92.6 Q67.7 93.3 68.7 95.15 69.65 96.95 69.4 97 L68.1 95.5 66.25 93.35 Q65.5 92.75 65.1 91.85 L64.8 91.05 Q64.8 90.7 65.15 90.5 67.35 89.8 68.2 87.5 68.55 86.45 68.7 84.55 L68.85 83 Q69.2 82.95 69.35 84.9 69.55 87.05 68.75 88.6"/>
    <path stroke="none" fill="#000000" d="M57.6 87.3 Q55.2 89.2 52.15 89.25 L47.6 89.7 Q46.8 90 46.5 90.8 46.4 90.3 46.7 89.7 47.3 88.55 49.35 88.25 L47.75 87.95 Q46 87.8 45.1 88.85 L45.4 88.25 Q45.95 87.55 47.25 87.2 46.95 86.85 46.35 86.6 45.15 86.15 43.7 86.85 L44.45 86.3 Q45.5 85.75 46.95 85.6 L51.3 86.2 55.5 86.55 58.25 85.85 59.3 85.5 57.6 87.3"/>
    <path stroke="none" fill="#ffb688" d="M60.9 82.55 Q59.85 86.35 53.85 84.95 48.9 83.8 44.65 80.65 41.35 78.2 45.8 73.9 50.2 69.6 54.15 71.4 57.4 72.95 59.5 77.9 60.5 80.4 60.9 82.55"/>
    <path stroke="none" fill="#ffffff" d="M60.95 82.15 Q61.8 84.75 56.95 87.3 52 89.85 48.7 88.45 45.15 86.95 44.5 83.5 43.75 79.8 47.15 76.9 50.75 73.9 55.05 75.55 59.35 77.25 60.95 82.15"/>
    <path stroke="none" fill="#126cb0" d="M50.55 77.1 Q53.7 75.6 56.7 77.65 59.05 79.25 59.4 80.75 59.75 82.2 59.35 83.65 59 85.15 57.95 86.25 56.2 88 53.75 88.1 51.3 88.15 49.55 86.45 47.8 84.75 47.75 82.3 47.7 79.85 49.4 78.1 L50.55 77.1"/>
    <path stroke="none" fill="#002f6c" d="M56.55 79.4 Q57.8 80.6 57.85 82.35 57.9 84.05 56.7 85.35 55.5 86.6 53.75 86.65 52 86.7 50.75 85.5 49.45 84.25 49.4 82.5 49.35 80.75 50.6 79.5 51.8 78.25 53.55 78.2 55.3 78.15 56.55 79.4"/>
    <path stroke="none" fill="#000000" d="M55.4 81.35 Q55.95 81.9 55.95 82.65 55.95 83.45 55.45 83.95 54.9 84.5 54.15 84.55 53.35 84.6 52.8 84.05 52.25 83.5 52.2 82.75 52.2 81.95 52.75 81.4 53.25 80.85 54.05 80.85 54.85 80.8 55.4 81.35"/>
    <path stroke="none" fill="#ffffff" d="M52.7 81.3 Q53.1 81.7 53.1 82.25 L52.75 83.2 Q52.4 83.55 51.8 83.6 51.25 83.6 50.85 83.25 50.5 82.9 50.5 82.3 50.5 81.75 50.85 81.35 51.2 81 51.75 80.95 52.3 80.95 52.7 81.3"/>
    <path stroke="none" fill="#000000" d="M53.65 74.2 Q57.5 75.2 59.6 78.8 60.65 80.55 60.95 82.15 57.3 74.55 51.2 75.4 47.8 75.85 45.95 78.45 44.15 81 45.1 83.85 45.9 86.15 48.1 87.8 49.2 88.6 50.15 88.95 46.75 88.3 43.95 85.3 L43.05 83.95 42.3 82.55 39.95 78.95 Q41.65 80.05 42.95 79.35 42.25 79.25 41.8 78.05 L41.55 76.9 Q42.3 78.3 43.9 78 L45.7 76.7 Q44.65 76.8 44.3 75.8 L44.2 74.75 Q44.85 76.35 46.6 76.05 50.6 73.4 53.65 74.2"/>
    <path stroke="none" fill="#000000" d="M80.55 87.35 L78.75 85.65 79.7 85.95 82.4 86.6 86.65 86.25 91 85.7 Q93.35 85.95 94.25 86.9 L91.6 86.7 90.65 87.3 Q91.95 87.65 92.5 88.35 L92.8 88.95 Q91.95 87.9 90.15 88 L88.55 88.35 Q90.6 88.6 91.25 89.75 91.55 90.35 91.45 90.85 91.1 90 90.5 89.8 L86.15 89.3 Q83.1 89.25 80.55 87.35"/>
    <path stroke="none" fill="#ffb688" d="M77 82.5 Q77.4 80.35 78.45 77.9 80.55 73 83.85 71.5 87.75 69.7 92.2 74 96.6 78.3 93.3 80.75 89.1 83.85 84.1 84.95 78.1 86.3 77 82.5"/>
    <path stroke="none" fill="#ffffff" d="M77 82.2 Q78.65 77.3 82.9 75.65 87.25 74 90.8 77 94.2 79.9 93.45 83.55 92.75 87 89.25 88.5 85.95 89.9 81.05 87.4 76.15 84.85 77 82.2"/>
    <path stroke="none" fill="#126cb0" d="M84.15 77.3 Q88.2 77.4 89.35 80.35 90.25 82.65 89.15 84.75 88.1 86.8 85.9 87.55 83.7 88.25 81.65 87.2 79.6 86.15 78.9 83.95 78.15 81.75 79.25 79.7 79.75 78.7 81.2 78 82.6 77.3 84.15 77.3"/>
    <path stroke="none" fill="#002f6c" d="M86.1 78.75 Q87.6 79.55 88.15 81.15 88.65 82.75 87.9 84.25 87.1 85.75 85.5 86.25 83.9 86.8 82.4 86 80.9 85.25 80.4 83.65 79.85 82.05 80.65 80.55 81.4 79.05 83 78.55 L86.1 78.75"/>
    <path stroke="none" fill="#000000" d="M84.15 81.3 Q84.8 81.65 85.05 82.35 85.3 83.05 84.95 83.75 84.6 84.4 83.9 84.65 L82.5 84.55 Q81.85 84.2 81.6 83.5 81.35 82.8 81.7 82.1 82.05 81.45 82.75 81.2 L84.15 81.3"/>
    <path stroke="none" fill="#ffffff" d="M86.6 80.95 Q87.1 81.2 87.25 81.75 87.45 82.25 87.2 82.75 L86.4 83.4 85.4 83.3 Q84.9 83.1 84.75 82.55 84.6 82.05 84.85 81.55 85.05 81.05 85.6 80.9 L86.6 80.95"/>
    <path stroke="none" fill="#000000" d="M84.3 74.3 Q87.35 73.45 91.35 76.15 93.15 76.35 93.75 74.85 L93.65 75.9 Q93.3 76.9 92.25 76.75 L94.05 78.1 Q95.75 78.3 96.4 77 96.15 79.25 95 79.45 96.35 80.25 98 79 L95.65 82.6 95.1 83.8 94 85.4 Q91.15 88.35 87.8 89 L89.85 87.85 Q92 86.25 92.8 83.9 93.8 81.1 92 78.55 90.2 75.95 86.8 75.45 80.65 74.6 76.95 82.2 77.25 80.65 78.3 78.85 80.45 75.3 84.3 74.3"/>
    <path stroke="none" fill="#000000" d="M95.5 61.8 Q94.4 60.65 92.65 59.85 89.2 58.25 86.05 60.15 L80.15 64.15 Q77.65 65.8 76.5 65.25 75.25 64.7 77.3 63.45 L82.15 61.05 Q87.8 58.45 88.5 58.3 92.65 57.5 95.5 61.8"/>
    <path stroke="none" fill="#000000" d="M41 66.15 Q43.75 61.75 47.95 62.4 48.8 62.55 54.35 64.95 58.2 66.6 59.3 67.25 61.35 68.45 60.15 69 59 69.55 56.5 68.05 52.95 65.65 50.4 64.2 47.25 62.4 43.8 64.1 L41 66.15"/>
    <path stroke="none" fill="#ffdd00" d="M84.1 50.6 L78 50.8 Q76.2 50.5 74.5 49.35 L73.15 48.3 Q71.15 48.65 69.3 47.45 L67.8 46.2 Q64.9 48.45 61.8 53.9 L56.45 62.85 Q53.85 66.35 49 67 L44.7 66.95 Q40.35 68.8 39.05 72.3 37.75 75.75 39.85 79.9 41.85 83.8 41.45 86.55 41.1 88.95 38.95 90.85 37.25 92.35 33.9 91.85 L30.85 91 Q31.75 94.85 29.6 99.3 28.5 101.5 27.25 102.95 26.85 101.35 24.05 99.5 21.7 97.9 18.45 96.6 13.5 94.65 10.2 91.5 4.85 86.3 5.25 79 5.7 71.95 10.7 66.3 L15.6 62.05 Q12.6 60.25 11.45 57.2 10.3 54.05 11.85 51.4 13.2 49.1 16.15 48.7 L18.85 48.8 Q17.2 47.4 17.55 44.8 17.9 42.05 20.55 41.5 L24.45 41.65 Q25.2 41.95 25.5 42.35 25.5 37.4 29.8 35.2 31.9 34.1 34.05 33.95 32.65 35.05 32.6 36.75 32.55 38.75 35.3 38.75 38 38.7 41 36 L49.9 26.9 Q56.5 20.2 68.15 17.15 80.35 13.95 85.9 18.4 90.65 22.3 91.45 26.6 91.8 28.75 91.25 30.1 98.55 25.4 106.05 29.4 112.25 32.75 116.95 40.9 120.5 47.1 119.3 53.5 118.7 56.95 115.65 62.7 L109 71 Q103.75 77.5 101.65 84.9 100.6 88.55 97.7 87.95 94.85 87.35 95.25 85 L96.4 83.15 Q97.35 81.5 96.9 79.55 96.6 78.05 93.2 75.55 89.85 73.15 89.65 71.45 89.4 69.4 91.1 65.8 L92.8 62.55 Q92.6 61.5 92.8 58.7 92.9 56.7 90.85 54.8 89 53.1 86.75 52.5 85.05 52.05 84.4 51.25 L84.1 50.6"/>
    <path stroke="none" fill="#000000" d="M117.35 40.7 Q120.95 46.85 119.8 53.25 119.2 56.9 116.25 62.5 L116.05 62.9 114.6 64.95 Q114.4 65.15 114.7 64 L115.25 62.5 115.45 62.1 Q118.25 56.75 118.9 53.2 119.95 47 116.55 41.15 113.6 36 109.8 32.7 106.05 29.35 102.15 28.4 96.75 27.15 91.5 30.5 91.25 30.7 90.95 30.5 90.7 30.25 90.8 29.95 91.35 28.5 90.95 26.5 90.1 22.45 85.6 18.8 80.3 14.55 68.35 17.6 56.8 20.6 50.25 27.2 L45.5 32.05 39.9 37.5 Q37.65 39.15 35.3 39.2 32.8 39.2 32.25 37.55 31.8 36.2 32.85 34.6 30.3 35.05 28.6 36.45 25.95 38.6 25.95 42.35 L25.65 42.75 25.5 42.8 25.15 42.6 Q24.35 41.75 22.2 41.8 L20.6 41.95 Q18.65 42.35 18.1 44.3 17.8 45.45 18.1 46.6 18.4 47.8 19.15 48.45 19.45 48.75 19.25 49 19.1 49.35 18.75 49.25 L16.15 49.15 Q13.5 49.5 12.25 51.6 10.7 54.2 11.95 57.2 13.05 60 15.85 61.7 L16.05 62.1 15.8 62.45 10.95 66.65 Q6.1 72.2 5.7 79 5.3 85.75 10.05 90.65 13.3 94.05 18.6 96.2 20.45 96.9 22.4 98 25.55 99.7 26.85 101.3 L27.7 102.35 27.7 103.1 27.55 103.25 27.1 103.4 26.8 103.05 Q26.5 101.7 23.85 99.9 21.5 98.35 18.25 97.05 12.7 94.8 9.3 91.25 4.35 86.1 4.8 78.95 5.2 72.6 9.25 67.35 11.7 64.2 14.8 62.05 11.85 59.95 10.9 56.9 9.9 53.75 11.45 51.15 13.15 48.3 16.95 48.2 L17.8 48.25 Q16.65 46.25 17.2 44.05 17.9 41.55 20.45 41.1 L22.15 40.9 Q24.05 40.85 25.1 41.5 25.5 36.85 29.75 34.75 31.9 33.65 34 33.5 L34.05 33.5 Q34.35 33.5 34.45 33.8 34.6 34.15 34.3 34.35 33.7 34.8 33.3 35.65 32.9 36.6 33.1 37.25 33.45 38.25 35.3 38.25 37.4 38.25 39.5 36.65 L44.85 31.4 49.6 26.55 Q56.45 19.65 68.25 16.65 80.55 13.5 86.15 18.05 90.05 21.2 91.4 24.7 92.3 27.05 91.9 29.2 95.55 27.2 98.8 27.15 L102.4 27.5 Q106.45 28.5 110.4 31.95 114.3 35.4 117.35 40.7"/>
    <path stroke="none" fill="#000000" d="M95.6 84.9 L94.95 84.85 Q94.7 84.45 95.05 84.15 95.9 83.5 96.3 82.2 96.7 80.9 96.45 79.65 96.15 78.2 93.05 76 L90.55 74 Q89.35 72.8 89.2 71.55 88.8 68.35 92.35 62.45 92.2 61.3 92.35 58.65 92.4 56.85 90.45 55.05 88.7 53.45 86.6 52.9 84.3 52.3 83.75 51.1 L80.75 51.4 77.95 51.25 Q76.3 50.95 74.7 50.05 L73 48.8 72.45 48.85 Q69.85 48.9 67.8 46.85 65.9 48.45 64.1 51.05 63 52.7 61 56.3 58.55 60.85 56.8 63.1 53.65 67.35 47.4 67.6 L44.8 67.45 Q40.7 69.2 39.45 72.45 38.3 75.8 40.25 79.7 42.2 83.5 41.95 86.25 41.7 89.05 39.25 91.25 38 92.3 35.8 92.4 L31.95 91.85 Q30.1 91.3 29.5 90.8 L29.95 90.7 30.55 90.6 31 90.55 33.9 91.35 Q37.1 91.9 38.6 90.5 40.55 88.85 40.95 86.85 41.5 84.1 39.45 80.1 37.3 75.8 38.6 72.15 40 68.45 44.55 66.55 L44.8 66.5 49 66.55 Q53.65 65.85 56.1 62.55 57.55 60.65 60.2 55.85 L63.5 50.3 Q65.4 47.45 67.55 45.8 L68.2 45.9 69.55 47.1 Q71.25 48.15 73.05 47.85 L73.45 48 74.8 49 Q76.4 50.05 78.1 50.35 L84 50.15 84.35 50.2 84.55 50.6 84.85 51.1 Q85.45 51.7 86.85 52.05 89.15 52.65 91.1 54.45 93.35 56.5 93.25 58.7 93.1 61.4 93.3 62.5 L93.2 62.8 91.5 66 Q89.9 69.5 90.15 71.4 90.25 72.4 91.3 73.45 L93.6 75.25 95.95 77.2 Q97.1 78.35 97.35 79.45 97.7 81 97.2 82.55 96.7 84.05 95.6 84.9"/>
    <path stroke="none" fill="#000000" d="M87.8 42.6 Q88.8 45.9 86.65 48.75 L84.3 50.95 Q84 51.2 83.7 50.8 83.5 50.4 83.85 50.2 L86 48.2 Q87.8 45.75 86.9 42.85 86.45 41.2 84.35 40.7 81.45 39.9 76.9 41.4 71.95 43.05 68.15 46.55 L67.5 46.5 Q67.2 46.1 67.55 45.85 71.35 42.4 76.3 40.65 81.25 38.85 84.65 39.8 87.2 40.5 87.8 42.6"/>
    <path stroke="none" fill="#000000" d="M81.6 46.75 Q81.65 47.45 81.05 48.05 80.4 48.7 79.35 48.75 78.85 48.75 78.85 48.3 78.85 47.85 79.25 47.85 L80.35 47.45 80.7 46.75 Q80.7 46.3 80.15 46.05 L78.4 45.75 Q76.25 45.75 74.7 47.1 L73.55 48.5 Q73.35 48.95 72.95 48.7 72.6 48.65 72.7 48.1 L74.05 46.4 Q75.85 44.85 78.35 44.8 80 44.8 80.85 45.4 81.55 45.95 81.6 46.75"/>
    <path stroke="none" fill="#000000" d="M53.95 56.35 Q54.95 57.95 53.85 59.45 L52.75 60.45 50.55 60.8 49.1 60.5 50.4 60.15 52.25 59.7 53.15 58.9 Q53.85 58 53.15 56.8 52.7 56.1 51 55.9 L47.15 56.2 Q44.7 56.7 42.95 57.85 40.9 59.15 40.65 60.85 40.3 63.6 42.45 65.35 43.95 66.5 44.85 66.5 45.3 66.7 45.15 67.1 45.05 67.6 44.6 67.4 43.2 67.05 41.9 66.05 39.35 64 39.75 60.75 40 58.7 42.25 57.2 44.2 55.9 46.95 55.3 L51.15 55 Q53.25 55.25 53.95 56.35"/>
    <path stroke="none" fill="#000000" d="M29.9 75.9 Q31.55 76.7 32.65 78.8 33.65 80.75 33.6 82.55 33.45 84.3 32.3 84.75 31.05 85.25 29.65 84.4 28.6 83.7 27.9 82.55 27.25 81.5 27.2 80.6 27.2 80.15 27.65 80.15 28.05 80.15 28.15 80.6 28.15 81.2 28.75 82.15 29.35 83.1 30.15 83.65 31.1 84.3 31.95 83.9 32.65 83.65 32.65 82.45 32.75 80.95 31.85 79.25 30.9 77.45 29.5 76.7 L26.3 76.45 Q24.2 76.8 22.85 78 20.8 79.75 21.65 82.35 22.7 85.5 26.95 88.35 29.05 89.75 31 90.55 31.4 90.75 31.25 91.15 31.05 91.55 30.65 91.4 28.5 90.5 26.3 89 21.95 86.05 20.8 82.65 19.7 79.45 22.25 77.3 23.8 76 26.1 75.55 28.35 75.15 29.9 75.9"/>
    <path stroke="none" fill="#000000" d="M30.45 59.95 Q30.65 60.1 29.65 61.15 28.45 62.3 26.95 62.9 25.2 63.65 22.95 63.8 L17.35 63.3 15.35 62.45 Q14.95 62.2 15.2 61.85 15.4 61.4 15.85 61.7 L17.65 62.4 22.9 62.9 Q24.8 62.75 26.45 62.1 L29.2 60.65 Q30.35 59.85 30.45 59.95"/>
    <path stroke="none" fill="#000000" d="M23.35 48.8 Q24.35 49.05 24.9 49.7 25.35 50.25 25.25 50.85 25.05 52.25 23.2 52.25 21.8 52.25 20.05 50.7 L18.45 49.1 18.45 48.6 Q18.55 48.35 18.8 48.35 L20.3 48.35 23.35 48.8 M23.15 49.7 L19.85 49.25 Q21.85 51.35 23.2 51.35 L23.3 51.35 Q24.3 51.25 24.35 50.75 L24.1 50.15 Q23.75 49.85 23.15 49.7"/>
    <path stroke="none" fill="#000000" d="M91.35 29.7 Q91.8 29.8 91.7 30.25 90.5 34.6 88.95 37.5 88.85 37.8 88.5 37.7 88.1 37.7 88.1 37.3 87.95 35.9 86.95 34.55 84.9 31.8 80.4 31.15 77.05 30.7 72.8 32.85 69.8 34.4 66.7 37 63.9 39.35 63.7 39.2 L64.3 38.15 66.05 36.35 Q73.05 30.35 78.85 30.15 L80.5 30.25 Q86.95 31.1 88.7 36 L90.2 32 90.8 30 Q90.9 29.65 91.25 29.65 L91.35 29.7"/>
    <path stroke="none" fill="#000000" d="M81.55 25.2 Q86.55 27.85 88.3 32.8 89.15 35.3 89 37.3 L88.55 37.75 Q88.1 37.65 88.1 37.25 88.25 35.3 87.45 33 85.85 28.5 81.15 26.05 76.2 23.45 66.6 27.35 57.15 31.15 51.55 37.75 L49.15 40.3 Q49 40.2 49.7 38.95 L50.95 37.05 Q56.7 30.35 66.2 26.45 76.15 22.35 81.55 25.2"/>
    <path stroke="none" fill="#000000" d="M108.85 51.95 Q109.25 53.25 109.35 55.85 L109.25 58.35 108.75 56.1 108.05 52.6 Q106.9 48.2 104.25 44.65 101.7 41.25 98.8 39.85 96 38.45 92.9 39.6 L90.2 41.1 89.55 41.05 Q89.25 40.65 89.6 40.4 L92.5 38.75 Q96 37.45 99.2 39 102.2 40.5 104.8 43.85 107.6 47.45 108.85 51.95"/>
    <path stroke="none" fill="#000000" d="M108.8 37.85 L110.2 39.7 Q111.05 41 110.9 41.1 L109.7 40.1 108.15 38.5 Q104.85 35.2 100.95 34.65 97.85 34.3 94.6 35.75 L91.95 37.25 91.35 37.2 Q91.05 36.8 91.4 36.55 L94.3 34.85 Q97.7 33.35 101.05 33.75 105.3 34.3 108.8 37.85"/>
    <path stroke="none" fill="#000000" d="M102.95 59.45 Q103.85 60.1 104.05 61.6 104.2 63.05 103.6 64.65 102.95 66.4 101.65 67.5 100.05 68.8 98.05 68.65 94.75 68.45 93.25 65.55 L92.35 62.6 Q92.35 62.1 92.8 62.1 93.2 62.1 93.3 62.5 93.3 63.7 94.05 65.15 95.3 67.6 98.1 67.75 101.25 67.95 102.75 64.35 103.25 63.05 103.15 61.85 103.05 60.65 102.45 60.15 101.6 59.55 101.15 59.85 100.85 60.05 100.5 61.1 L100.1 62.1 Q99.85 62.15 99.95 60.85 100.05 59.5 100.65 59.1 101.7 58.5 102.95 59.45"/>
    <path stroke="none" fill="#ffcdad" d="M28.35 174.35 Q24.85 172.1 24.1 171.45 23 170.45 22.7 168.8 22.4 167.2 26.95 164.8 30.6 162.9 35.3 161.45 L51.9 160.75 68 161.5 Q70.3 161.75 76.5 161.55 83.05 161.3 84.9 161.45 L88.8 161.85 Q89.7 162.1 91.2 163.3 93.3 165.05 96.15 168.65 96.75 169.35 97.55 172.55 L98.5 176.35 Q98.9 177.4 97.6 176.4 96.35 175.35 95.65 173.4 94.45 170.05 93.65 168.6 L91.7 167.25 89.95 166.25 92.4 173.25 Q92.8 174.45 92.55 177.7 92.35 180.85 91.95 181.05 91.4 181.3 90.2 177.7 89.65 178.9 88.65 178.1 L88.95 179.15 Q89.2 180.25 88.95 180.8 88.75 181.3 88.25 181 L86.15 178.65 83.45 174.75 82.1 172.8 72.45 171.35 Q71.25 171.15 69.7 169.6 68.15 168 67.2 167.8 65.7 167.45 55.6 169.95 45.55 172.45 41.45 174.1 36.9 175.9 34.45 176.05 31.35 176.25 28.35 174.35"/>
    <path stroke="none" fill="#000000" d="M91.5 163 Q93.1 164.35 95.7 167.45 L96.45 168.4 Q97.25 169.3 98.4 174.25 L98.9 176.2 98.85 177 98.2 177.2 96.75 176.15 Q95.8 175.1 95.25 173.55 L93.9 170.15 93.25 168.8 90.75 167.2 92.85 173.15 Q93.15 174.25 93 177.45 92.8 180.85 92.2 181.4 L92.1 181.45 91.65 181.5 Q91.05 181.2 90 178.55 L89.6 178.75 89.3 178.75 Q89.7 180.15 89.35 181 L89.1 181.35 88.65 181.55 Q87.8 181.65 85.8 178.9 L83.1 175 81.85 173.2 72.4 171.8 Q70.95 171.55 69.3 169.8 68 168.4 67.1 168.2 65.7 167.9 55.75 170.35 45.75 172.8 41.6 174.5 37.1 176.3 34.7 176.5 31.35 176.75 28.15 174.7 L27.65 174.45 23.65 171.65 Q22.55 170.6 22.25 168.85 21.85 166.6 28.4 163.65 31.7 162.15 35.15 161.1 L52 160.3 68 161.1 Q69.95 161.3 77.3 161.1 82.15 160.85 84.9 161 L86 161.1 89.15 161.5 Q90.05 161.8 91.5 163 M97.95 176.1 L97.55 174.45 Q96.5 169.8 95.8 168.95 L95 168 Q92.35 164.85 90.9 163.65 89.6 162.6 88.9 162.35 L85.95 161.95 84.85 161.9 Q83.05 161.75 77.35 161.95 69.95 162.15 67.95 161.95 L52.05 161.2 35.4 161.9 Q30.5 163.4 26.85 165.35 22.95 167.45 23.15 168.7 23.4 170.2 24.35 171.1 25.05 171.75 28.1 173.7 L28.6 173.95 Q31.45 175.75 34.3 175.6 36.75 175.5 41.25 173.65 45.35 172 55.45 169.55 65.75 167 67.3 167.35 68.4 167.6 69.9 169.2 71.45 170.75 72.5 170.95 L77.25 171.6 82.3 172.45 83.85 174.5 86.5 178.35 88.5 180.65 88.55 180.6 Q88.85 179.95 88.25 178.25 88.1 178 88.35 177.75 88.65 177.6 88.9 177.75 L89.4 177.9 89.55 177.8 89.75 177.5 89.85 177.4 Q90 177.25 90.2 177.25 90.4 177.25 90.6 177.55 91.2 179.35 91.75 180.35 92.05 179.2 92.15 176.85 92.3 174.3 92 173.4 L90.6 169.3 89.5 166.4 Q89.4 166.15 89.65 165.9 L90.15 165.85 94 168.35 96.05 173.25 Q96.75 175.15 97.95 176.1"/>
    <path stroke="none" fill="#000000" d="M89.85 172.9 Q90.65 175.45 90.6 177.7 L90.15 178.15 Q89.75 178.15 89.75 177.7 89.8 175.7 89.1 173.3 L88.35 171.3 87.95 169.85 88.9 170.95 89.85 172.9"/>
    <path stroke="none" fill="#000000" d="M86.85 173.95 Q87.75 175.8 89 177.85 89.25 178.25 88.85 178.5 88.5 178.7 88.25 178.3 L86.05 174.4 85.5 172.7 Q85.2 171.6 85.35 171.55 L86.85 173.95"/>
    <path stroke="none" fill="#ffcdad" d="M138.5 59.7 Q136.4 59.9 135.6 59.15 L132.7 55.9 133.6 47.4 Q134 42.05 132.55 38.9 L131.2 36.85 Q130.45 35.65 131.3 35.3 134.1 34.3 135.8 36.4 137.9 38.75 137.8 43.25 L143.9 38.1 149.55 33.4 Q152.85 30.45 157.25 28.6 L159.35 28.5 Q160.25 28.85 160.05 29.35 159.85 30 158.75 30.75 L156.55 32.2 Q152.5 35.35 149.8 39.2 151.4 39.85 154.1 38.65 155.55 38 157.6 36.7 160.7 35.2 163.85 34.9 165.2 34.8 166.45 35.4 167.6 35.95 167.75 36.65 167.8 37.05 166.1 37.4 L163.25 38.1 Q160.65 38.95 158.15 40.4 L152.7 43.7 162.6 43.3 Q168.1 42.95 168.95 45.15 167.4 45.95 162 46.6 157.1 47.15 154.95 48.85 L162.25 50.65 Q163.4 51 164.7 51.85 166.25 52.85 165.45 53.2 L160.4 52.85 Q155.85 52.1 153.65 52.75 L146.55 55.05 Q142 56.85 138.5 59.7"/>
    <path stroke="none" fill="#000000" d="M169.25 45.65 Q167.45 46.55 163.05 47.05 158.45 47.55 156.45 48.55 L162.4 50.1 164.35 51 Q166.25 52.05 166.3 52.9 166.3 53.5 165.7 53.75 L163.9 53.95 161.15 53.55 156.3 53 153.8 53.3 152.3 53.75 Q148.1 55 145.9 55.95 142 57.6 138.85 60.15 L138.75 60.25 136.3 60.35 137 59.15 138.3 59.15 Q141.5 56.55 145.5 54.85 147.85 53.85 152 52.65 L153.5 52.25 156.3 51.85 161.35 52.45 164.4 52.8 164.95 52.75 Q163.9 51.85 162.05 51.2 L155.7 49.6 153.65 49.1 154.6 48.35 Q156.15 47.2 158.55 46.6 L162.9 45.9 Q166.65 45.5 168.15 44.9 167.25 43.8 164.3 43.8 L160.05 44.05 154.9 44.35 152.6 44.25 150.95 44.1 153.9 42.25 Q157.05 40.3 158.5 39.55 160.7 38.35 163.05 37.55 L165.15 37.05 167.05 36.55 165.9 35.8 163.9 35.45 Q161.05 35.65 157.85 37.25 L156.85 37.8 Q153.2 40 151.05 40 L149.6 39.75 148.95 39.45 149.35 38.9 Q152.1 34.9 156.25 31.75 L157.7 30.75 159.5 29.2 158.55 28.95 157.5 29.15 Q153.3 30.9 149.95 33.85 L144.9 38.05 138.15 43.7 137.2 44.55 137.2 43.25 Q137.25 38.95 135.35 36.75 133.9 35 131.5 35.85 L131.4 35.9 132.2 37.3 133.05 38.65 Q134.2 41.25 134.25 44.95 134.25 47.3 133.7 51.55 L133.35 55.3 Q132.65 55.55 132.05 56.25 L131.8 56.2 131.8 55.95 132.55 51.4 Q133.1 47.1 133.1 45.05 133.1 41.5 132 39.1 L131.3 38 Q130.1 36.35 130.3 35.55 130.55 35 131.1 34.75 L133.9 34.55 Q135.3 34.9 136.25 36 138.15 38.15 138.35 42 L144.2 37.1 149.2 32.95 Q153 29.7 157.05 28.1 L159 27.8 Q160 27.95 160.4 28.55 160.75 28.95 160.65 29.5 L159.8 30.7 158.3 31.75 156.95 32.65 Q153.5 35.2 150.75 38.85 152.5 39 156.25 36.8 L157.35 36.2 Q160.7 34.55 163.8 34.35 165.4 34.2 166.8 34.9 168.15 35.6 168.3 36.55 168.45 37.2 167.6 37.55 L165.4 38.15 163.45 38.6 Q161.2 39.4 159 40.55 L154.5 43.25 159.9 42.95 164.3 42.65 Q168.6 42.65 169.5 44.95 L169.7 45.4 169.25 45.65"/>
    <path stroke="none" fill="#000000" d="M125.05 35.05 L125 35.05 Q124.55 35.05 124.55 34.55 124.55 33.6 125.2 32.05 126.25 29.5 128.5 28.35 130.7 27.2 132.95 27.7 134.05 27.9 134.8 28.4 135.2 28.7 134.95 29.1 L134.25 29.2 Q133.65 28.8 132.7 28.65 130.85 28.3 128.95 29.25 127.05 30.2 126.1 32.5 125.65 33.65 125.55 34.6 125.45 35.05 125.05 35.05"/>
    <path stroke="none" fill="#000000" d="M121.15 34.85 Q120.65 34.75 120.65 34.3 120.8 32.45 121.55 30.45 123.1 26.5 126.5 24.95 129.95 23.35 133.4 23.85 135.1 24.1 136.25 24.7 136.7 25 136.45 25.4 136.2 25.8 135.8 25.6 134.8 25.05 133.2 24.85 130.05 24.4 126.95 25.85 123.9 27.25 122.45 30.95 121.75 32.75 121.65 34.35 121.65 34.85 121.15 34.85"/>
    <path stroke="none" fill="#000000" d="M165.5 60.25 L164.6 60.15 Q164.1 60.05 164.2 59.6 164.3 59.1 164.8 59.2 L166.6 59.15 Q168.8 58.75 170.7 57.3 172.7 55.7 173.2 53.35 173.55 51.85 173.3 51.15 L173.4 50.8 Q173.5 50.6 173.7 50.6 174.2 50.5 174.3 51 L174.15 53.5 Q173.6 56.25 171.3 58.05 168.6 60.25 165.5 60.25"/>
    <path stroke="none" fill="#000000" d="M166.2 63.9 L165.55 63.85 165.65 62.85 168.3 62.7 Q171.3 62.15 173.45 60.4 176.2 58.1 176.85 55.1 L176.9 52.35 177.85 52.15 177.8 55.2 Q177.1 58.6 174.05 61.15 170.75 63.9 166.2 63.9"/>
    <path stroke="none" fill="#000000" d="M10.35 39.5 L1 11.95 13.65 7.15 16.15 18.8 18.65 18.3 16.4 7.55 25.35 5.8 25.95 4.3 Q27.35 1.95 29.8 1.2 32.4 0.55 34.65 1.8 37 3 37.7 5.6 38.45 8.1 37.2 10.45 L37.1 10.6 39.4 9.65 42.2 31.3 36.7 32.9 26.75 15 30.05 13.6 28.5 13 Q27.15 12.25 26.15 10.85 L29.4 33.65 22.3 35.55 20.55 27.3 18.1 28.1 19.85 36.2 10.35 39.5 M31.6 2.95 L30.3 3.1 Q28.55 3.65 27.7 5.25 26.8 6.85 27.35 8.6 27.85 10.4 29.45 11.25 31.1 12.1 32.85 11.6 34.55 11.1 35.45 9.5 36.35 7.95 35.8 6.15 35.35 4.45 33.7 3.5 32.6 2.95 31.6 2.95 M29.55 15.95 L37.65 30.55 40 29.9 37.8 12.5 29.55 15.95 M3.5 13.15 L11.6 36.95 17.55 34.9 15.8 26.75 22.05 24.75 23.8 33.1 27.15 32.2 23.8 8.15 18.75 9.1 21 19.85 14.6 21.15 12.2 9.85 3.5 13.15"/>
    <path stroke="none" fill="#0f81c5" d="M17.6 8.3 L24.6 6.95 28.3 32.9 23.05 34.35 21.3 26.05 16.95 27.4 18.7 35.55 11 38.2 2.25 12.55 12.9 8.5 15.4 19.95 19.85 19.1 17.6 8.3 M33.1 12.55 Q30.9 13.2 29 12.1 27 11 26.4 8.9 25.8 6.65 26.85 4.8 27.85 2.85 30.05 2.15 32.25 1.55 34.15 2.65 36.15 3.7 36.75 5.85 37.45 8.05 36.35 9.95 35.2 12 33.1 12.55 M28.15 15.45 L38.6 11.05 41.1 30.6 37.2 31.75 28.15 15.45"/>
  </g>
</svg>