<?xml version="1.0" encoding="UTF-8" standalone="no"?>
<svg
   xmlns:dc="http://purl.org/dc/elements/1.1/"
   xmlns:cc="http://creativecommons.org/ns#"
   xmlns:rdf="http://www.w3.org/1999/02/22-rdf-syntax-ns#"
   xmlns:svg="http://www.w3.org/2000/svg"
   xmlns="http://www.w3.org/2000/svg"
   viewBox="0 0 248.03751 248.03751"
   height="248.03751"
   width="248.03751"
   xml:space="preserve"
   version="1.1"
   id="svg2"><metadata
     id="metadata8"><rdf:RDF><cc:Work
         rdf:about=""><dc:format>image/svg+xml</dc:format><dc:type
           rdf:resource="http://purl.org/dc/dcmitype/StillImage" /></cc:Work></rdf:RDF></metadata><defs
     id="defs6" /><g
     transform="matrix(1.25,0,0,-1.25,0,248.0375)"
     id="g10"><g
       transform="scale(0.1,0.1)"
       id="g12"><path
         id="path14"
         style="fill:#ffcdac;fill-opacity:1;fill-rule:evenodd;stroke:none"
         d="m 1378.95,1345.84 c 1.98,7.36 0,10.48 11.62,10.48 18.14,0 31.75,-15.87 41.95,-28.91 4.55,-5.66 15.61,-8.23 15.61,-19.55 0,0 0,-7.38 -6.52,-7.66 -17.59,-0.29 -28.93,2.26 -42.25,14.18 -2.27,2.26 -19.84,26.64 -20.13,28.91 0,1.41 -0.55,1.41 -0.28,2.55" /><path
         id="path16"
         style="fill:#ffcdac;fill-opacity:1;fill-rule:nonzero;stroke:none"
         d="m 1100.3,76.4844 c 0,0 52.72,121.3206 62.66,218.5386 10.19,97.243 -60.38,230.18 -60.38,230.18 0,0 -57.84,112.813 -93.56,135.223 -35.997,22.668 -77.938,24.367 -77.938,24.367 l -15.59,34.59 c 0,0 4.539,36.281 19.27,47.621 6.801,5.672 15.871,12.191 26.082,21.539 0,0 57.256,11.34 85.036,56.41 37.13,59.813 4.81,114.52 7.94,132.102 29.48,168.085 -49.9,178.305 -85.597,145.125 -31.2,-28.91 -70.02,-28.91 -70.02,-28.91 0,0 -3.969,19.27 10.481,56.96 14.168,37.72 30.898,94.97 -3.692,103.2 -34.578,8.5 -90.711,-68.61 -90.711,-68.61 0,0 -7.648,0.29 -10.199,-23.8 -2.84,-24.11 -7.09,-55.57 -7.09,-55.57 0,0 -90.418,89.3 -119.039,51.03 -25.519,-33.44 -30.621,-106.58 -30.621,-106.58 -36.57,-17.86 -73.418,-59.248 -50.461,-132.947 19.852,-63.5 83.051,-73.14 83.051,-73.14 17.293,-38.54 36.582,-64.34 36.582,-64.34 0,0 -8.231,-29.481 -3.973,-66.61 3.973,-36.847 12.461,-96.379 7.364,-125.578 -5.391,-29.191 -21.262,-35.711 -27.774,-71.722 -6.527,-35.989 -6.238,-60.95 -6.238,-60.95 0,0 -26.371,-28.05 -26.371,-68.019 -0.27,-39.68 11.062,-77.949 11.062,-77.949 0,0 -5.09,-20.129 -5.672,-66.332 -0.57,-45.93 32.891,-165.8286 32.891,-165.8286" /><path
         id="path18"
         style="fill:#000000;fill-opacity:1;fill-rule:nonzero;stroke:none"
         d="m 701.57,81.4375 395.45,0 c 8.07,19.2185 52.12,127.1605 61,214.0975 9.93,94.641 -59.13,226.039 -59.83,227.36 -0.6,1.179 -57.65,111.902 -91.8,133.332 -34.48,21.711 -75.109,23.597 -75.507,23.621 -1.879,0.078 -3.551,1.199 -4.32,2.918 l -15.602,34.582 c -0.367,0.816 -0.508,1.75 -0.398,2.636 0.488,3.93 5.257,38.704 21.179,50.954 2.09,1.738 4.571,3.687 7.25,5.808 5.5,4.352 11.738,9.262 18.5,15.449 0.668,0.629 1.5,1.051 2.391,1.211 0.551,0.121 55.507,11.532 81.777,54.149 25.89,41.703 16.68,80.543 10.58,106.23 -2.52,10.629 -4.34,18.301 -3.31,24.121 14.87,84.784 1.14,122.634 -13,139.464 -8.25,9.81 -18.92,14.99 -30.89,14.99 -11.798,0 -23.997,-5.04 -33.458,-13.81 -32.238,-29.91 -71.719,-30.23 -73.379,-30.23 -2.359,0 -4.39,1.66 -4.859,3.95 -0.184,0.84 -4.09,21.14 10.707,59.75 16.191,43.07 20.472,72.33 12.722,86.91 -2.71,5.08 -6.941,8.25 -12.921,9.67 -25.641,6.27 -71.141,-46.9 -85.551,-66.69 -0.918,-1.27 -2.379,-2.02 -3.949,-2.04 0.441,-0.1 -3.598,-3.01 -5.329,-19.39 -2.851,-24.18 -7.101,-55.69 -7.101,-55.69 -0.262,-1.86 -1.539,-3.42 -3.32,-4.02 -1.789,-0.61 -3.75,-0.16 -5.09,1.16 -0.59,0.59 -60.309,59.12 -95.481,59.12 -7.051,0 -12.32,-2.46 -16.121,-7.53 -24.347,-31.95 -29.578,-103.25 -29.637,-103.97 -0.121,-1.77 -1.171,-3.32 -2.769,-4.11 -22.82,-11.15 -73.184,-45.842 -47.891,-127.014 18.7,-59.828 78.469,-69.61 79.071,-69.699 1.66,-0.262 3.089,-1.332 3.777,-2.879 16.84,-37.532 35.82,-63.153 36.012,-63.391 0.91,-1.23 1.211,-2.84 0.8,-4.312 -0.082,-0.27 -7.902,-29.071 -3.82,-64.727 0.641,-5.891 1.391,-12.313 2.168,-19.121 4.27,-36.813 9.582,-82.621 5.16,-107.859 -2.699,-14.661 -8,-24.133 -13.129,-33.293 -5.589,-9.969 -11.359,-20.29 -14.648,-38.469 -6.352,-35.051 -6.16,-59.738 -6.16,-60 0.019,-1.281 -0.473,-2.52 -1.34,-3.449 -0.25,-0.27 -25.024,-27.211 -25.024,-64.622 -0.269,-38.5 10.743,-76.187 10.852,-76.57 0.25,-0.847 0.27,-1.738 0.051,-2.597 -0.051,-0.211 -4.961,-20.34 -5.512,-65.192 -0.5,-40.238 26.16,-140.469 31.699,-160.8085 m 398.73,-9.9102 -402.507,0 c -2.23,0 -4.18,1.4688 -4.781,3.6172 -1.379,4.9219 -33.629,121.1215 -33.071,167.2305 0.5,40.172 4.36,60.852 5.512,66.121 -1.992,7.102 -11.152,41.738 -10.89,78.149 0,36.601 20.757,63.332 26.371,69.871 0.058,6.582 0.726,29.172 6.296,59.929 3.59,19.789 10.063,31.36 15.762,41.539 4.949,8.852 9.629,17.204 12.031,30.211 4.149,23.789 -1.062,68.813 -5.25,104.969 -0.793,6.813 -1.543,13.274 -2.171,19.16 -3.68,32.043 1.64,58.262 3.511,66.114 -4.691,6.578 -20.121,29.167 -34.652,61.027 -12.699,2.812 -66.188,18 -84.32,76 -27.219,87.375 28.613,126.175 50.472,137.605 1.231,14.09 7.86,75.57 31.391,106.41 5.687,7.62 13.789,11.5 24.027,11.5 31.832,0 77.762,-39.13 95.332,-55.27 1.481,11.18 3.938,30.11 5.797,45.89 2.121,20.04 8.024,26 12.211,27.63 8.93,11.88 54.192,69.81 88.039,69.81 2.344,0 4.621,-0.27 6.774,-0.79 8.75,-2.09 15.269,-7.02 19.347,-14.68 9.282,-17.44 5.282,-48.54 -12.199,-95.06 -9.891,-25.8 -10.852,-42.62 -10.621,-49.99 10.781,1.03 38.883,5.74 62.133,27.3 11.269,10.46 25.918,16.46 40.196,16.46 14.99,0 28.3,-6.4 38.48,-18.53 15.5,-18.45 30.71,-59.02 15.18,-147.555 -0.67,-3.8 1.12,-11.371 3.19,-20.097 6.09,-25.66 16.26,-68.563 -11.79,-113.75 -26.48,-42.973 -77.608,-56.25 -86.897,-58.371 -6.64,-6.012 -12.699,-10.77 -18.07,-15.02 -2.61,-2.051 -5.02,-3.961 -7.192,-5.75 -10.418,-8.043 -15.847,-32.621 -17.347,-43.09 l 13.777,-30.551 c 10.582,-0.859 45.859,-5.128 77.309,-24.961 36.43,-22.847 92.93,-132.488 95.31,-137.128 2.88,-5.411 71.13,-135.36 60.89,-232.95 -9.88,-96.871 -62.5,-218.7926 -63.03,-220.0114 -0.79,-1.8281 -2.58,-2.9883 -4.55,-2.9883" /><path
         id="path20"
         style="fill:#000000;fill-opacity:1;fill-rule:nonzero;stroke:none"
         d="m 927.676,73.6445 c -1.551,0 -2.821,1.25 -2.84,2.7969 -0.012,1.793 -1.891,179.0426 -19.309,218.2816 -30.269,67.441 -132.019,94.539 -133.05,94.789 -1.512,0.39 -2.422,1.941 -2.032,3.472 0.391,1.508 1.922,2.418 3.461,2.028 4.282,-1.129 105.418,-28.078 136.801,-97.957 17.891,-40.34 19.731,-213.2034 19.809,-220.5511 0.011,-1.5703 -1.25,-2.8516 -2.809,-2.8594" /><path
         id="path22"
         style="fill:#88613a;fill-opacity:1;fill-rule:nonzero;stroke:none"
         d="m 908.125,293.047 c -0.148,0 -0.301,0.012 -0.461,0.031 -1.539,0.25 -2.59,1.707 -2.34,3.25 0.063,0.367 6.301,37.84 30.301,86.129 24.07,48.141 53,74.32 54.219,75.398 1.172,1.063 2.961,0.961 4.011,-0.207 1.04,-1.16 0.942,-2.96 -0.23,-3.992 -0.289,-0.277 -29.379,-26.64 -52.93,-73.73 -23.621,-47.5 -29.718,-84.141 -29.781,-84.5 -0.219,-1.379 -1.418,-2.379 -2.789,-2.379" /><path
         id="path24"
         style="fill:#000000;fill-opacity:1;fill-rule:nonzero;stroke:none"
         d="m 659.52,386.594 0.281,-61.231 c 0,0 93.262,-11.062 141.172,-13.89 61.507,-3.68 106.859,-15.59 106.859,-15.59 0,0 47.91,48.187 91,71.43 90.988,49.328 156.738,68.89 156.738,68.89 l -64.62,99.77 c 0,0 -42.52,-66.321 -87.59,-101.469 C 958.012,399.633 941,391.691 893.949,375.82 810.891,347.762 659.52,386.594 659.52,386.594" /><path
         id="path26"
         style="fill:#272323;fill-opacity:1;fill-rule:nonzero;stroke:none"
         d="m 662.629,327.883 c 15.148,-1.774 95.59,-11.043 138.508,-13.563 54.742,-3.308 97.269,-13.199 105.84,-15.308 7.589,7.468 51.242,49.621 90.5,70.789 78.313,42.461 138.703,63.129 153.703,67.969 l -60.24,93.031 c -9.67,-14.442 -46.98,-68.238 -85.84,-98.539 C 959.246,397 942.227,389.109 894.855,373.133 c -20.296,-6.852 -46.328,-10.332 -77.378,-10.332 -66.801,0 -138.508,16.191 -155.098,20.191 l 0.25,-55.109 z m 245.207,-34.82 c -0.238,0 -0.481,0.027 -0.719,0.07 -0.449,0.117 -45.82,11.887 -106.32,15.508 -47.442,2.8 -140.391,13.789 -141.32,13.922 -1.43,0.148 -2.5,1.359 -2.508,2.789 l -0.281,61.23 c 0,0.879 0.398,1.707 1.089,2.258 0.692,0.519 1.621,0.711 2.45,0.5 0.808,-0.207 82.218,-20.86 157.25,-20.86 30.429,0 55.851,3.36 75.558,10.02 46.672,15.762 63.434,23.52 108.595,58.25 44.17,34.43 86.52,100.09 86.95,100.762 0.51,0.808 1.41,1.308 2.37,1.308 l 0.01,0 c 0.96,0 1.86,-0.5 2.38,-1.3 l 64.63,-99.79 c 0.48,-0.75 0.59,-1.687 0.28,-2.519 -0.31,-0.84 -1,-1.481 -1.85,-1.719 -0.65,-0.211 -66.57,-20.07 -156.22,-68.672 -42.235,-22.781 -89.852,-70.468 -90.332,-70.929 -0.539,-0.551 -1.262,-0.828 -2.012,-0.828" /><path
         id="path28"
         style="fill:#1f1f1f;fill-opacity:1;fill-rule:nonzero;stroke:none"
         d="m 807.488,360.227 c -55.558,0 -104.308,9.07 -149.097,28.07 -1.422,0.558 -2.27,1.988 -2.27,3.387 2.27,38.281 26.078,64.351 27.207,65.48 0.57,0.57 1.703,1.152 2.551,1.152 0.293,0 0.57,0 1.141,-0.293 0.281,0 45.351,-11.628 101.48,-11.628 22.68,0 43.93,1.992 63.781,5.39 81.918,15.02 200.689,62.371 213.159,80.789 4.25,6.231 10.49,13.891 18.99,22.672 0.57,0.859 1.42,1.141 2.56,1.141 l 0.28,0 c 1.13,0 2.27,-0.852 2.83,-1.703 9.64,-17.278 15.88,-29.481 15.88,-29.481 0,0 12.19,-23.238 25.5,-56.969 0.58,-1.699 -0.27,-3.679 -1.97,-4.539 -13.33,-5.379 -25.23,-11.058 -35.72,-17.011 -21.54,-12.18 -133.509,-73.137 -223.091,-82.77 -21.82,-2.559 -43.078,-3.687 -63.211,-3.687" /><path
         id="path30"
         style="fill:#000000;fill-opacity:1;fill-rule:nonzero;stroke:none"
         d="m 1086.98,552.988 c 9.64,-17.289 15.6,-29.199 15.6,-29.199 0,0 12.18,-22.973 25.5,-56.691 -12.18,-5.11 -24.65,-10.77 -35.99,-17.289 -51.88,-29.2 -147.406,-74.27 -221.68,-82.493 -22.109,-2.269 -43.078,-3.398 -62.93,-3.398 -57.257,0 -105.16,9.641 -147.679,27.5 2.269,37.41 26.082,63.211 26.082,63.211 0,0 45.07,-11.91 102.609,-11.91 20.41,0 42.52,1.699 64.629,5.668 84.192,15.301 201.829,62.652 215.149,81.91 4.82,7.09 11.91,15.031 18.71,22.691 m 0,7.09 c -1.97,0 -3.96,-0.851 -5.39,-2.281 -8.21,-9.07 -14.74,-17.008 -18.99,-23.25 -11.33,-16.141 -123.87,-63.199 -210.897,-79.07 -19.551,-3.688 -40.812,-5.387 -63.211,-5.387 -55.84,0 -100.34,11.34 -100.629,11.617 l -1.98,0 c -1.992,0 -3.692,-0.57 -5.102,-2.258 -1.14,-1.152 -25.801,-28.07 -28.07,-67.48 -0.277,-3.11 1.422,-5.942 4.25,-7.082 45.359,-18.989 94.402,-28.348 150.519,-28.348 20.133,0 41.391,1.43 63.782,3.688 90.148,9.929 202.678,71.152 224.508,83.339 9.92,5.672 21.83,11.332 34.86,16.723 3.69,1.699 5.68,5.68 3.98,9.359 -13.32,33.731 -24.94,56.411 -25.52,57.258 0,0.282 -6.24,12.473 -15.87,29.481 -1.13,1.992 -3.12,3.402 -5.39,3.691" /><path
         id="path32"
         style="fill:#353635;fill-opacity:1;fill-rule:nonzero;stroke:none"
         d="m 614.164,158.684 45.07,-19.282 93.262,235 -41.391,28.641 -27.769,35.988 -9.93,-16.429 -73.41,79.359 c 0,0 -30.621,-33.16 -34.301,-56.117 -3.398,-22.973 5.379,-42.801 5.379,-42.801 l 64.629,-32.332 c 0,0 -14.168,-11.039 -10.769,-28.059 3.691,-16.718 18.992,-21.832 18.992,-21.832 l -13.602,-70.578 13.602,-21.539" /><path
         id="path34"
         style="fill:#272323;fill-opacity:1;fill-rule:nonzero;stroke:none"
         d="m 617.883,160.176 39.789,-17.02 91.359,230.192 -39.531,27.359 c -0.238,0.148 -0.461,0.359 -0.641,0.59 l -25.238,32.738 -7.789,-12.898 c -0.449,-0.762 -1.25,-1.262 -2.133,-1.371 -0.879,-0.078 -1.769,0.242 -2.367,0.91 l -71.301,77.058 c -6.832,-7.796 -28.57,-33.886 -31.539,-52.347 -2.832,-19.102 3.207,-36.231 4.809,-40.301 l 63.679,-31.82 c 0.86,-0.442 1.45,-1.289 1.54,-2.27 0.101,-0.969 -0.297,-1.898 -1.059,-2.512 -0.531,-0.418 -12.75,-10.238 -9.75,-25.269 3.281,-14.84 16.559,-19.5 17.121,-19.707 1.348,-0.461 2.148,-1.844 1.879,-3.211 l -13.391,-69.492 13.012,-20.59 c 0.5,-0.777 0.57,-1.77 0.207,-2.629 l -28.656,-67.41 z m 41.359,-23.59 c -0.383,0 -0.762,0.059 -1.121,0.211 l -45.07,19.277 c -1.442,0.614 -2.102,2.274 -1.488,3.723 l 29.179,68.648 -12.82,20.282 c -0.383,0.609 -0.52,1.339 -0.383,2.07 l 13.172,68.308 c -4.77,2.243 -15.41,8.75 -18.539,22.942 -2.68,13.379 4.308,23.289 8.648,27.937 l -61.007,30.5 c -0.59,0.313 -1.063,0.793 -1.321,1.391 -0.383,0.852 -9.09,20.871 -5.601,44.371 3.781,23.57 33.742,56.25 35.011,57.629 0.539,0.59 1.297,0.91 2.09,0.91 0.789,0 1.539,-0.32 2.078,-0.91 l 70.86,-76.59 7.972,13.211 c 0.489,0.801 1.34,1.309 2.27,1.371 0.937,-0.082 1.828,-0.351 2.41,-1.09 l 27.508,-35.672 41.019,-28.378 c 1.082,-0.75 1.5,-2.161 1.024,-3.379 L 661.871,138.355 c -0.281,-0.71 -0.84,-1.281 -1.539,-1.57 -0.352,-0.148 -0.723,-0.199 -1.09,-0.199" /><path
         id="path36"
         style="fill:#ffcdac;fill-opacity:1;fill-rule:nonzero;stroke:none"
         d="m 783.961,335.566 c 6.519,-1.98 23.238,-6.8 28.91,-1.421 6.809,6.812 -26.359,13.613 -43.371,30.621 -17.289,16.718 -22.391,24.371 -34.859,26.64 -12.481,2.551 -44.219,-6.519 -75.121,-6.23 -15.872,0.281 -32.598,1.98 -49.321,2.262 -9.359,1.699 -16.73,5.386 -18.429,13.886 -3.399,17.582 30.05,200.703 42.242,252.571 12.187,51.882 5.668,82.492 18.136,140.882 3.122,15.309 9.352,37.137 16.723,62.36 -28.062,9.359 -51.301,31.75 -65.762,58.398 -7.089,-54.711 -9.64,-112.25 -12.468,-123.59 -5.11,-20.41 -17.012,-62.078 -25.231,-109.699 -7.941,-47.621 -3.398,-104.32 -5.949,-190.769 -2.563,-86.743 -11.91,-124.45 -4.82,-140.321 4.531,-10.492 87.019,-25.23 113.949,-24.09 46.769,1.981 70.871,-48.761 98.359,-46.211 8.512,2 -21.258,20.692 -37.699,41.95 0.281,0 -1.98,2.562 -1.98,2.562 0.558,0.559 -0.848,3.68 -0.848,4.25 6.519,-1.703 25.508,-9.64 38.828,-15.883 16.441,-7.648 31.469,-23.519 39.691,-11.339 2.829,3.972 -73.992,45.929 -73.992,45.929 0,0 34.301,-17.297 34.871,-15.59 0.571,-0.289 4.25,-0.289 15.59,1.411 0,0 2.27,1.14 2.551,1.421" /><path
         id="path38"
         style="fill:#000000;fill-opacity:1;fill-rule:nonzero;stroke:none"
         d="m 671.254,329.949 c 25.781,0 44.402,-15.008 60.832,-28.258 11.961,-9.628 22.301,-17.961 32.609,-18.089 -2.121,2.628 -7.289,7.257 -11.609,11.14 -8.242,7.348 -18.481,16.52 -26.07,26.328 -0.161,0.211 -0.289,0.43 -0.379,0.68 -0.492,0.621 -1.473,1.73 -1.481,1.742 -0.64,0.707 -0.851,1.668 -0.64,2.547 -0.102,0.422 -0.321,1.102 -0.442,1.441 -0.301,0.891 -0.5,1.469 -0.5,2.129 0,0.891 0.41,1.723 1.11,2.243 0.703,0.519 1.601,0.711 2.441,0.5 6.77,-1.77 25.801,-9.7 39.328,-16.032 4.684,-2.187 9.152,-4.937 13.473,-7.629 9.129,-5.628 17.211,-10.671 21.64,-6.011 -6.132,5.781 -40.25,25.82 -71.972,43.152 -1.36,0.738 -1.867,2.438 -1.149,3.82 0.719,1.36 2.41,1.879 3.782,1.2 13.886,-6.993 29.617,-14.442 33.07,-15.321 0.617,0.121 1.25,0.02 1.828,-0.281 1.43,0.172 4.91,0.359 13.422,1.633 0.5,0.269 1.34,0.699 1.68,0.918 0.738,0.738 1.558,0.769 2.558,0.48 3.059,-0.941 12.371,-3.769 19.442,-3.769 3.218,0 5.539,0.597 6.699,1.687 -0.61,1.301 -7.852,4.832 -13.141,7.41 -9.699,4.743 -21.762,10.641 -30.281,19.153 -3.418,3.301 -6.379,6.269 -9.02,8.918 -10.461,10.5 -15.23,15.281 -24.347,16.929 -5.453,1.133 -16.121,-0.328 -28.91,-2.168 -13.493,-1.929 -28.762,-4.121 -44.274,-4.121 l -1.457,0.012 c -7.871,0.141 -16.09,0.648 -24.031,1.129 -8.289,0.48 -16.86,1 -25.32,1.148 -12.661,2.25 -19.43,7.543 -21.149,16.161 -3.582,18.531 30.379,203.242 42.258,253.769 6.062,25.844 7.449,46.242 8.91,67.844 1.461,21.508 2.961,43.726 9.211,72.988 3.078,15.129 9.289,36.91 16.02,59.981 -23.758,8.679 -45.372,27.128 -60.52,51.5 -3.211,-26.59 -5.398,-52.993 -7.18,-74.61 -1.711,-20.633 -2.941,-35.512 -4.308,-40.98 -0.973,-3.93 -2.203,-8.61 -3.614,-14 -5.949,-22.75 -14.949,-57.11 -21.57,-95.481 -5.019,-30.129 -5.008,-64.07 -5,-107.039 0,-24.359 0.012,-51.972 -0.906,-83.34 -1.094,-37.043 -3.461,-65.57 -5.184,-86.41 -2.277,-27.59 -3.66,-44.23 0.114,-52.691 3.339,-7.559 75.117,-22.469 108.199,-22.469 1.078,0 2.097,0.02 3.051,0.059 0.929,0.039 1.859,0.058 2.777,0.058 m 93.68,-52.019 c -12.399,0 -23.52,8.961 -36.399,19.34 -16.25,13.113 -34.781,27.972 -59.82,26.972 -1.031,-0.051 -2.121,-0.082 -3.289,-0.082 -26.313,0 -107.891,13.153 -113.391,25.871 -4.351,9.739 -3.012,25.961 -0.57,55.418 1.719,20.781 4.07,49.25 5.16,86.114 0.922,31.289 0.91,58.859 0.91,83.179 -0.012,43.25 -0.019,77.379 5.078,107.969 6.672,38.641 15.703,73.148 21.672,95.988 1.399,5.352 2.629,10.031 3.61,13.942 1.25,5.019 2.531,20.468 4.152,40.039 1.969,23.953 4.43,53.73 8.25,83.23 0.156,1.211 1.09,2.18 2.297,2.41 1.191,0.282 2.422,-0.34 3.011,-1.437 15.008,-27.653 38.399,-48.453 64.168,-57.063 1.442,-0.48 2.25,-2.019 1.821,-3.461 -6.981,-23.918 -13.508,-46.636 -16.668,-62.136 -6.172,-28.903 -7.66,-50.922 -9.102,-72.223 -1.48,-21.84 -2.879,-42.469 -9.058,-68.75 -12.993,-55.277 -45.422,-234.801 -42.211,-251.391 1.25,-6.238 6.23,-9.828 16.148,-11.629 8.121,-0.089 16.75,-0.621 25.102,-1.128 8.25,-0.5 16.039,-0.969 23.769,-1.09 l 1.379,0 c 15.102,0 30.172,2.148 43.461,4.051 13.52,1.937 24.602,3.378 30.789,2.117 10.813,-1.95 16.672,-7.821 27.301,-18.5 2.609,-2.61 5.551,-5.559 8.973,-8.86 7.878,-7.91 19.476,-13.57 28.796,-18.109 9.704,-4.75 15.563,-7.602 16.274,-11.891 0.199,-1.179 0.066,-2.929 -1.672,-4.66 -2.352,-2.25 -5.82,-3.301 -10.648,-3.301 -6.602,0 -14.274,1.973 -19.872,3.633 -0.421,-0.242 -0.968,-0.519 -1.671,-0.883 -0.27,-0.129 -0.559,-0.199 -0.848,-0.25 -5.199,-0.789 -9.34,-1.289 -12.199,-1.507 20.648,-12.02 37.269,-22.7 38.117,-26.403 0.18,-0.789 -0.039,-2.039 -0.508,-2.699 -2.512,-3.719 -5.91,-5.629 -10.051,-5.629 -6.09,0 -12.968,4.238 -20.261,8.77 -4.168,2.558 -8.489,5.242 -12.879,7.281 -10.282,4.82 -24.258,10.769 -32.821,13.898 0.231,-0.328 0.422,-0.629 0.563,-0.91 7.25,-9.269 17.117,-18.097 25.066,-25.219 11.383,-10.179 15.262,-13.878 14.293,-17.691 -0.23,-0.93 -1.011,-2.559 -3.562,-3.16 -1.141,-0.11 -1.899,-0.16 -2.66,-0.16" /><path
         id="path40"
         style="fill:#ffcdac;fill-opacity:1;fill-rule:nonzero;stroke:none"
         d="m 918.043,990.652 c 0,0 -24.09,5.672 -56.98,-19.839 -32.879,-25.797 -45.922,-70.868 -45.922,-70.868 0,0 8.222,42.239 -7.078,77.668 -18.43,41.947 -59.25,46.207 -59.25,46.207" /><path
         id="path42"
         style="fill:#000000;fill-opacity:1;fill-rule:nonzero;stroke:none"
         d="m 780.016,1014.82 c 11.05,-7.06 22.839,-18.3 30.64,-36.062 8.75,-20.27 10.039,-42.41 9.449,-58.16 7.18,15.621 19.739,37.16 39.211,52.441 14.34,11.129 27.118,16.488 37.059,18.969 l -116.359,22.812 z m 35.129,-117.711 c -0.219,0 -0.45,0.02 -0.668,0.079 -1.473,0.351 -2.403,1.8 -2.122,3.292 0.09,0.418 7.872,41.829 -6.902,76.008 -13.547,30.852 -40.008,40.562 -50.828,43.312 l -6.359,1.24 c -1.481,0.29 -2.481,1.7 -2.25,3.2 0.218,1.5 1.64,2.59 3.089,2.4 0.11,-0.01 2.668,-0.28 6.758,-1.31 l 162.231,-31.791 c 1.519,-0.309 2.519,-1.781 2.242,-3.301 -0.262,-1.379 -1.473,-2.347 -2.832,-2.32 l -0.008,-0.051 -0.461,0.094 c -2.871,0.508 -24.898,3.367 -54.23,-19.391 -31.739,-24.902 -44.809,-68.972 -44.942,-69.41 -0.359,-1.23 -1.488,-2.051 -2.718,-2.051" /><path
         id="path44"
         style="fill:#ffcdac;fill-opacity:1;fill-rule:nonzero;stroke:none"
         d="m 743.141,1035.44 37.418,-21.54 34.863,-20.13 61.519,-5.95 15.02,5.098 3.969,-1.699 25.23,7.09 1.699,15.021 -63.218,48.76 -51.59,-14.18 c 0,0 -64.063,-11.05 -64.91,-12.47" /><path
         id="path46"
         style="fill:#ffcdac;fill-opacity:1;fill-rule:nonzero;stroke:none"
         d="m 839.805,530.305 c 0,0 13.039,0 13.32,16.449 0,16.43 -6.801,14.461 -6.801,14.461" /><path
         id="path48"
         style="fill:#000000;fill-opacity:1;fill-rule:nonzero;stroke:none"
         d="m 848.395,557.285 -4.911,-23.289 c 2.981,1.309 6.668,4.578 6.809,12.801 0,5.976 -0.969,9.039 -1.898,10.488 m -8.59,-29.801 c -0.852,0 -1.66,0.379 -2.2,1.032 -0.542,0.66 -0.75,1.531 -0.57,2.371 l 6.52,30.898 c 0.211,1.039 0.968,1.86 1.968,2.141 0.262,0.07 1.2,0.199 1.469,0.199 3.352,0 8.973,-2.27 8.973,-17.379 -0.332,-19.062 -16,-19.262 -16.16,-19.262" /><path
         id="path50"
         style="fill:#ffcdac;fill-opacity:1;fill-rule:nonzero;stroke:none"
         d="m 608.777,1023.82 c 0,0 25.801,39.69 73.981,47.62" /><path
         id="path52"
         style="fill:#88613a;fill-opacity:1;fill-rule:nonzero;stroke:none"
         d="m 666.555,1064.38 c -19.422,-6.8 -34.032,-18.54 -43.364,-27.91 l 43.364,27.91 z m -57.774,-43.39 c -0.738,0 -1.457,0.28 -2.008,0.83 -0.949,0.95 -1.101,2.43 -0.371,3.55 1.082,1.66 27.039,40.82 75.903,48.87 1.308,0.23 2.617,-0.52 3.109,-1.77 0.481,-1.26 0.02,-2.68 -1.121,-3.41 l -73.98,-47.62 c -0.469,-0.3 -1,-0.45 -1.532,-0.45" /><path
         id="path54"
         style="fill:#ffcdac;fill-opacity:1;fill-rule:nonzero;stroke:none"
         d="m 1347.21,1410.75 c -0.28,2.27 3.4,62.65 3.96,77.67 0.85,15.02 9.08,7.94 14.17,-13.32 0,0 2.55,12.47 8.52,8.22 5.95,-4.26 12.74,-52.73 13.04,-60.95 0.55,-8.22 27.2,26.36 29.19,29.2 1.99,2.55 5.94,-13.89 -4.82,-28.35 -10.5,-14.74 -15.03,-21.26 -4.26,-36.56 10.78,-15.6 25.52,-42.81 5.68,-44.51 -19.56,-1.42 -62.65,42.52 -65.48,68.6" /><path
         id="path56"
         style="fill:#000000;fill-opacity:1;fill-rule:nonzero;stroke:none"
         d="m 1348.06,1488.42 -1.98,-38.83 c -1.7,-28.63 -2.27,-37.71 -2.27,-39.12 3.12,-26.93 47.62,-73.14 69.16,-71.44 7.09,0.57 10.21,3.97 11.34,6.81 5.66,11.62 -8.51,33.73 -14.75,42.52 -9.63,13.6 -5.94,18.42 4.26,32.88 9.92,13.61 9.06,30.05 5.11,32.88 -0.29,0.28 -0.57,0.28 -0.85,0.57 -1.43,0.85 -3.41,0.28 -4.54,-1.14 -6.24,-8.22 -18.15,-22.67 -23.81,-27.49 -1.43,11.9 -6.8,54.71 -14.17,59.81 -0.29,0.57 -0.85,0.85 -1.14,0.85 -2.27,1.13 -4.25,0.85 -5.38,0.28 -1.15,-0.56 -2.27,-1.41 -3.12,-2.55 -1.99,6.24 -5.11,12.76 -9.07,14.46 -0.85,0.57 -1.7,0.85 -2.84,0.57 -3.68,-0.29 -5.67,-3.97 -5.95,-11.06 m 4.25,-39.12 2.26,38.84 c 0,2.26 0.29,3.4 0.58,3.97 1.7,-1.71 4.53,-7.09 7.08,-17.86 0.29,-0.85 0.85,-1.7 1.7,-2.27 0.57,0 1.14,-0.28 1.42,-0.28 1.69,0 2.84,1.13 3.12,2.83 0.57,2.84 1.98,6.24 3.12,6.52 4.53,-4.25 11.62,-48.47 12.19,-58.68 0,-2.55 1.41,-3.68 2.26,-3.97 0.29,-0.28 0.56,-0.28 0.56,-0.28 5.11,-1.7 17.87,12.76 28.64,26.93 0,-4.82 -0.85,-12.47 -6.53,-20.13 -10.48,-14.17 -16.71,-22.67 -4.24,-40.25 11.05,-15.87 16.71,-30.33 14.17,-36 -0.28,-0.85 -1.41,-2.83 -6.23,-3.12 -2.55,-0.28 -6.24,0.57 -10.21,2.56 -19.56,9.35 -49.6,41.95 -51.87,62.92 0,1.99 1.13,21.26 1.98,38.27" /><path
         id="path58"
         style="fill:#000000;fill-opacity:1;fill-rule:nonzero;stroke:none"
         d="m 1362.23,1475.09 0,-34.58 c -0.27,-8.51 0.58,-28.07 2.28,-28.07 1.97,0 3.96,17.86 3.96,25.8 0.28,18.42 0,36.57 0,36.85 0,1.7 -1.42,3.12 -3.12,3.12 -1.69,0 -3.12,-1.42 -3.12,-3.12" /><path
         id="path60"
         style="fill:#ffcdac;fill-opacity:1;fill-rule:nonzero;stroke:none"
         d="m 1441.6,1333.65 c -14.75,28.91 -35.43,45.35 -42.25,53.86 -6.79,8.79 -9.06,38.27 -17.56,43.37 -8.5,5.38 -15.59,-32.88 2.54,-61.23 0,0 -26.07,26.36 -33.44,45.92 -7.38,19.56 -20.12,66.33 -32.32,73.14 -12.18,6.51 5.68,-47.91 10.77,-64.92 4.83,-17.01 10.78,-35.15 26.64,-63.21 15.88,-27.78 41.4,-64.35 43.67,-84.19 1.98,-19.84 -81.36,-161.57 -96.66,-191.62 -15.32,-29.77 -24.1,-43.09 -42.52,-38.55 -15.03,3.4 -107.44,35.15 -180.85,63.21 -0.3,-1.42 -0.57,-2.55 -0.85,-3.97 -0.57,-25.23 -1.71,-54.71 -10.49,-75.4 8.78,-1.98 17,-4.54 25.22,-8.5 -1.7,3.68 -2.55,5.66 -2.55,5.66 0,0 77.39,-22.39 125.01,-44.224 47.61,-21.539 108.29,-41.391 121.04,-23.808 21.83,30.32 63.2,189.642 91.84,267.882 28.63,78.23 27.21,77.67 12.76,106.58" /><path
         id="path62"
         style="fill:#000000;fill-opacity:1;fill-rule:nonzero;stroke:none"
         d="m 1445.57,1333.36 -0.86,1.98 c -11.05,21.84 -25.5,36.57 -34.86,46.21 l -7.65,8.22 c -2.56,3.41 -4.54,11.05 -6.52,18.71 -3.13,11.34 -5.95,21.82 -11.91,25.51 -2.83,1.71 -5.95,1.14 -8.5,-1.13 -5.39,-5.66 -8.22,-24.66 -2.82,-44.22 -7.09,8.5 -14.75,19.27 -18.16,28.34 l -5.95,16.73 c -9.93,29.76 -18.14,52.72 -28.06,58.11 l -0.28,0 c -3.41,1.7 -5.68,0.29 -6.52,-0.28 -5.39,-4.25 -2.84,-19 10.21,-62.36 l 1.97,-6.53 c 5.39,-17.56 11.34,-35.72 27.22,-63.77 l 13.89,-23.25 c 13.6,-22.4 27.78,-45.64 29.19,-59.52 1.42,-14.18 -48.48,-103.75 -75.41,-151.95 l -20.68,-37.7 c -16.44,-31.75 -23.53,-40.53 -38.55,-36.85 -15.03,3.69 -108,35.43 -181.14,63.21 -0.29,-2.26 -0.56,-4.53 -1.41,-7.08 73.69,-28.06 165.53,-59.25 180.85,-63.2 21.82,-5.11 31.45,11.32 46.49,40.52 l 20.69,37.71 c 41.09,73.69 77.95,140.87 76.25,155.91 -1.7,15.59 -16.16,39.68 -30.34,62.63 l -13.6,22.96 c -15.59,27.5 -21.25,45.36 -26.36,62.37 l -1.97,6.81 c -3.71,11.34 -13.34,43.93 -12.77,53 8.22,-6.81 17.29,-34.3 23.53,-53 l 5.94,-17.02 c 7.66,-20.13 33.18,-46.2 34.31,-47.34 0.28,-0.28 0.57,-0.55 1.12,-0.55 1.14,-0.58 2.57,-0.58 3.7,0.27 1.42,1.14 1.69,3.4 0.85,4.82 -11.62,18.14 -12.19,39.98 -9.64,50.17 1.14,3.69 1.98,5.1 2.55,5.67 3.4,-2.54 6.24,-12.76 8.51,-20.98 2.26,-8.5 4.25,-16.72 7.65,-20.97 l 8.22,-8.79 c 9.07,-9.64 22.96,-23.8 33.45,-44.78 l 1.12,-1.71 c 13.05,-26.08 13.62,-26.93 -13.88,-102.04 -10.78,-29.49 -23.53,-71.43 -36,-111.97 -20.69,-67.19 -42.23,-136.625 -55.28,-155.054 -9.06,-12.473 -56.12,-2.551 -116.78,25.226 -47.06,21.548 -124.72,43.938 -125.58,44.228 -1.14,0.27 -2.84,0 -3.68,-1.14 -0.85,-1.13 -1.14,-2.56 -0.27,-3.97 0,0 0.27,-0.84 0.84,-1.98 3.11,-1.14 6.52,-2.84 9.63,-4.54 -0.28,0.86 -0.56,1.7 -0.84,2.55 20.41,-6.24 78.8,-24.374 117.07,-41.667 24.93,-11.34 108,-46.77 125.29,-22.68 13.89,19.281 34.57,86.177 56.41,157.037 12.46,40.25 25.23,82.21 36,111.69 27.78,75.68 28.05,78.52 13.32,107.43" /><path
         id="path64"
         style="fill:#88613a;fill-opacity:1;fill-rule:nonzero;stroke:none"
         d="m 749.945,363.066 c -1.129,-0.851 -1.418,-2.832 -0.281,-3.968 0.563,-0.852 12.191,-15.024 28.344,-23.25 5.109,-2.551 19.558,-4.243 19.558,-2.551 0.289,1.418 -13.039,5.68 -17.859,8.23 -14.449,7.637 -25.512,20.957 -25.793,21.258 -0.848,1.129 -2.547,1.403 -3.969,0.281" /><path
         id="path66"
         style="fill:#2994d1;fill-opacity:1;fill-rule:nonzero;stroke:none"
         d="m 1090.39,1124.45 c 0,0 21.53,-51.31 -10.21,-124.44 0,0 -27.21,-4.822 -44.51,-1.131 -17.01,3.961 -22.67,34.011 -22.96,56.971 0,23.25 14.47,58.96 29.2,65.48 14.46,6.52 48.48,3.12 48.48,3.12" /><path
         id="path68"
         style="fill:#006fb8;fill-opacity:1;fill-rule:nonzero;stroke:none"
         d="m 1070.93,1121.8 c -12.68,0 -22.2,-1.28 -27.56,-3.69 -12.43,-5.5 -27.11,-39.24 -27.11,-62.25 0.3,-24.34 6.67,-50.36 20.22,-53.53 4.02,-0.85 9.1,-1.3 15.05,-1.3 10.92,0 21.89,1.51 26.17,2.17 26.36,62.15 13.5,108.07 10.14,117.92 -3.24,0.26 -9.69,0.68 -16.91,0.68 m -19.4,-127.855 c -6.45,0 -12.03,0.493 -16.6,1.461 -18.51,4.332 -25.44,34.044 -25.76,60.404 0,24.23 14.75,61.44 31.31,68.77 6.33,2.85 16.58,4.3 30.45,4.3 10.65,0 19.44,-0.86 19.81,-0.9 1.29,-0.13 2.42,-0.96 2.92,-2.15 0.9,-2.16 21.76,-53.55 -10.22,-127.232 -0.48,-1.09 -1.47,-1.871 -2.64,-2.082 -0.59,-0.098 -14.71,-2.571 -29.27,-2.571" /><path
         id="path70"
         style="fill:#fcd01a;fill-opacity:1;fill-rule:evenodd;stroke:none"
         d="m 676.246,1650.56 c 0,0 -73.133,0.28 -124.441,-53.29 -51.02,-53.58 -9.071,-96.66 3.968,-119.91 13.043,-22.96 -3.968,-46.2 -28.918,-52.44 -25.218,-6.52 -39.109,22.96 -39.109,22.96 0,0 -36.851,-55.84 29.758,-95.52 0,0 -28.059,-15.31 -24.938,-44.51 2.829,-28.91 46.77,-29.76 46.77,-29.76 0,0 -12.191,-19.28 -3.973,-43.37 8.223,-24.38 70.012,-21.83 70.012,-21.83 0,0 -21.262,-11.62 -13.039,-30.05 8.23,-18.14 40.539,-11.9 45.359,-0.85 0,0 0,-29.48 57.539,-22.67 57.551,6.8 177.172,58.96 272.981,29.76 95.535,-28.91 218.555,-29.76 214.585,54.71 0,0 15.88,-12.19 41.95,3.4 26.07,15.59 11.34,45.07 0.84,49.89 0,0 23.54,-0.28 43.09,28.06 19.57,28.35 -4.82,54.14 -4.82,54.14 0,0 26.09,35.44 -4.25,91 0,0 -1.41,-18.15 -27.5,-22.96 -26.06,-4.54 -41.66,1.98 -26.06,66.04 15.59,64.07 -6.53,89.01 -31.19,103.18 -24.66,14.18 -235.844,87.31 -351.786,49.61 -115.648,-37.7 -120.75,-19.28 -146.828,-15.59" /><path
         id="path72"
         style="fill:#000000;fill-opacity:1;fill-rule:evenodd;stroke:none"
         d="m 822.512,1668.7 c -92.981,-30.05 -113.672,-24.09 -132.09,-18.71 l -13.891,3.12 c -0.293,0.28 0,0 -0.293,0 -0.847,0 -74.828,-0.28 -126.418,-54.14 -45.64,-47.62 -19,-88.16 -3.121,-112.25 l 6.801,-10.49 c 4.82,-8.79 5.391,-17.86 1.699,-26.08 -4.527,-10.77 -15.59,-19.28 -29.187,-22.68 -22.684,-5.67 -35.153,20.41 -35.723,21.54 -0.57,0.86 -1.418,1.42 -2.269,1.42 -0.848,0 -1.981,-0.28 -2.27,-1.13 -0.559,-0.85 -10.77,-16.44 -10.77,-37.14 0,-4.53 0.571,-9.07 1.418,-13.89 4.25,-17.85 16.442,-33.16 36.282,-45.92 -7.078,-4.82 -23.239,-18.14 -23.239,-40.25 0,-1.42 0.278,-2.83 0.278,-4.53 2.551,-25.8 34.019,-30.9 45.359,-32.04 -1.988,-4.53 -5.109,-12.75 -5.109,-23.52 0,-5.67 0.57,-11.91 2.84,-18.43 7.089,-20.41 47.339,-23.24 64.632,-23.53 -5.101,-4.53 -9.64,-10.77 -9.64,-18.7 0,-3.12 0.57,-6.24 2.269,-9.64 3.68,-8.22 12.469,-13.04 24.09,-13.04 8.789,0 17.289,2.83 22.399,7.37 0.851,-3.12 2.832,-6.8 6.8,-10.21 10.211,-9.07 27.782,-12.19 52.161,-9.35 16.441,1.98 37.421,7.37 61.511,13.89 60.09,15.59 142.297,36.85 210.328,16.16 63.221,-19 152.221,-29.48 195.021,3.68 15.32,11.91 22.96,28.35 23.26,49.04 6.51,-2.83 20.68,-6.23 40.52,5.67 10.21,5.95 15.88,15.31 15.88,26.08 l 0,1.7 c -0.57,9.07 -4.81,17.57 -9.92,22.68 8.78,1.7 24.66,7.93 38.83,28.34 5.95,8.51 7.95,16.73 7.95,24.38 0,15.31 -8.52,27.21 -11.62,31.47 2.82,4.53 9.91,17.85 9.91,38.26 0,14.46 -3.68,32.6 -15.3,53.58 -0.58,1.13 -1.7,1.7 -2.84,1.42 -1.14,-0.29 -1.99,-1.14 -1.99,-2.27 -0.28,-0.85 -1.98,-16.16 -25.51,-20.41 -12.47,-2.27 -19.56,-1.42 -23.81,3.12 -7.37,7.65 -7.09,27.21 0.85,59.52 16.72,68.89 -10.48,93.55 -32.32,106.02 -22.11,12.76 -236.122,88.44 -353.758,49.89 m 1.418,-5.1 c 116.5,37.98 327.68,-36.85 349.51,-49.33 22.12,-12.75 45.64,-35.71 30.06,-100.34 -8.52,-35.15 -8.52,-54.99 0.27,-64.35 7.09,-7.65 18.43,-6.8 28.63,-4.82 17.57,3.12 24.66,11.91 27.79,18.14 8.21,-17.29 11.33,-32.59 11.33,-44.78 0,-23.25 -9.63,-37.14 -9.63,-37.14 -0.58,-0.56 -0.58,-1.13 -0.58,-1.7 0,-0.56 0.29,-1.13 0.58,-1.7 0.84,-0.85 11.62,-12.75 11.62,-29.19 0,-6.52 -1.7,-14.18 -7.08,-21.83 -18.44,-26.36 -39.7,-26.65 -40.82,-26.65 -1.43,0 -2.28,-1.13 -2.55,-2.26 0,-0.29 -0.3,-0.29 -0.3,-0.57 0,-1.14 0.85,-1.99 1.7,-2.55 4.82,-1.99 11.62,-11.34 12.19,-22.11 l 0,-1.42 c 0,-6.52 -2.55,-15.02 -13.32,-21.54 -23.81,-14.46 -38.27,-3.97 -38.84,-3.69 -0.85,0.85 -1.98,0.85 -2.83,0.28 -0.85,-0.28 -1.42,-1.41 -1.42,-2.55 0.85,-20.69 -6.23,-37.41 -21.26,-49.04 -38.55,-30.04 -123.3,-22.96 -190.199,-2.83 -69.453,21.26 -152.511,-0.28 -213.172,-16.16 -23.808,-6.23 -44.789,-11.62 -60.66,-13.6 -28.347,-3.41 -41.668,2.55 -47.898,7.93 -6.52,5.67 -6.52,11.91 -6.52,12.19 0,1.14 -0.851,2.27 -2.269,2.55 -1.141,0.29 -2.551,-0.28 -2.84,-1.41 -2.262,-5.11 -11.902,-9.08 -21.543,-9.08 -4.25,0 -15.02,0.85 -18.988,9.93 -7.09,15.87 11.05,26.07 11.898,26.64 1.141,0.57 1.422,1.7 1.141,2.84 -0.289,1.41 -1.418,1.98 -2.551,1.98 -16.731,-0.57 -61.231,1.7 -67.469,20.13 -1.98,5.67 -2.551,11.05 -2.551,16.15 0,14.46 5.95,24.67 6.243,24.95 0.277,0.28 0.277,0.85 0.277,1.42 0,0.28 0,0.85 -0.277,1.13 -0.571,0.85 -1.422,1.42 -2.274,1.42 -0.277,0 -41.668,1.41 -44.219,27.49 -0.281,1.42 -0.281,2.55 -0.281,3.97 0,24.38 23.813,37.7 24.094,37.99 0.848,0.56 1.418,1.41 1.418,2.26 0,1.14 -0.57,1.99 -1.418,2.27 -20.692,12.47 -33.172,27.5 -37.133,44.79 -1.141,4.25 -1.418,8.5 -1.418,12.47 0,13.61 4.527,24.66 7.649,30.33 5.101,-8.22 18.71,-25.23 39.402,-19.84 15.308,3.68 27.5,13.32 32.598,25.51 1.992,4.25 2.839,8.79 2.839,13.32 0,5.96 -1.699,11.91 -4.82,17.58 l -6.809,10.77 c -9.351,14.17 -21.539,32.6 -21.539,54.43 0,15.59 6.239,32.88 24.098,51.3 49.031,51.31 119.051,52.73 122.172,52.73 0.277,-0.29 13.039,-3.12 13.039,-3.12 18.988,-5.67 40.531,-11.91 134.93,18.71 m 401.68,-369.07 0,0 m -549.372,353.48 -0.277,0" /><path
         id="path74"
         style="fill:#000000;fill-opacity:1;fill-rule:nonzero;stroke:none"
         d="m 637.641,1185.75 c 0.3,0 0.613,-0.03 0.89,-0.11 1.801,-0.35 3.129,-1.89 3.129,-3.65 0,-0.24 0.07,-6.06 6.133,-11.33 6.18,-5.33 19.34,-11 47.02,-7.66 15.359,1.91 35.621,7.05 60.519,13.57 60.641,15.87 143.691,37.6 213.781,16.14 66.727,-20.08 151.077,-27.03 189.177,2.65 14.66,11.35 21.66,27.53 20.82,48.1 0,1.67 0.83,3.12 2.04,3.62 1.3,0.79 2.9,0.65 4.03,-0.41 l 0.08,-0.04 c 3.6,-2.26 16.96,-8.66 37.48,3.79 10.56,6.39 12.78,14.72 12.78,20.58 l 0,1.42 c -0.55,10.32 -7.05,19.24 -11.49,21.06 -2.02,1.32 -2.4,2.68 -2.4,3.6 0,0.52 0.25,0.85 0.4,1.01 0.61,1.9 1.94,2.96 3.56,2.96 0.88,0 21.82,0.3 39.9,26.16 4.57,6.48 6.88,13.61 6.88,21.18 0,16.64 -11.18,28.28 -11.29,28.39 l -0.21,0.29 c -0.31,0.65 -0.69,1.38 -0.69,2.22 0,0.63 0,1.6 0.9,2.5 -0.03,0 9.31,13.77 9.31,36.33 0,9.09 -1.82,23.7 -10.28,42.27 -5.25,-8.8 -14.49,-14.43 -27.51,-16.74 -9.82,-1.92 -22.04,-3.04 -29.66,5.16 -9.01,9.59 -9.18,29.75 -0.56,65.39 15.41,63.85 -7.66,86.5 -29.51,99.09 -21.9,12.52 -232.847,86.94 -348.589,49.23 -95.039,-30.82 -116.59,-24.38 -135.597,-18.72 -8.961,1.99 -11.864,2.72 -12.883,3.07 -3.86,-0.06 -72.86,-1.8 -121.188,-52.37 -15.781,-16.28 -23.793,-33.28 -23.793,-50.52 0,-21.46 11.821,-39.36 21.321,-53.74 l 6.863,-10.86 c 3.316,-6.04 4.988,-12.14 4.988,-18.18 0,-4.98 -0.988,-9.62 -2.941,-13.79 -5.27,-12.59 -17.75,-22.38 -33.36,-26.14 -20.347,-5.31 -33.847,10.13 -39.57,18.69 -2.508,-5.03 -6.617,-15.22 -6.617,-28.08 0,-4.78 0.437,-8.65 1.379,-12.18 3.898,-16.98 16.219,-31.81 36.629,-44.11 1.101,-0.34 1.961,-1.65 1.961,-3.23 0,-1.21 -0.719,-2.42 -1.922,-3.22 l 0.019,0.01 c 0,0 -0.09,-0.06 -0.359,-0.23 -5.449,-3.41 -23.25,-16.17 -23.25,-36.82 0,-1.36 0,-2.43 0.262,-3.75 2.449,-25.01 42.718,-26.57 43.121,-26.58 1.199,0 2.398,-0.72 3.199,-1.92 0.469,-0.44 0.469,-1.37 0.469,-1.76 0,-0.72 0,-1.61 -0.61,-2.22 0.02,0 -5.91,-9.74 -5.91,-24.14 0,-5.93 0.789,-10.94 2.488,-15.78 5.942,-17.54 50,-19.96 66.364,-19.37 1.91,0 3.347,-1.14 3.699,-2.91 0.437,-1.73 -0.23,-3.31 -1.742,-4.06 -5.418,-3.34 -17.117,-12.3 -11.367,-25.17 3.636,-8.35 13.769,-9.25 17.949,-9.25 9.25,0 18.449,3.77 20.508,8.4 0.332,1.37 1.812,2.16 3.25,2.16 m 41.839,-26.01 c -18.187,0 -27.976,4.72 -33.179,9.2 -6.719,5.85 -6.91,12.33 -6.91,13.05 0,0.58 -0.457,1.26 -1.348,1.44 -0.641,0.17 -1.41,-0.14 -1.52,-0.58 -2.492,-5.64 -12.41,-9.93 -22.64,-9.93 -4.629,0 -15.84,1.03 -20.031,10.6 -6.649,14.91 7.609,25.15 12.14,27.94 l 0.301,0.18 c 0.539,0.27 0.719,0.79 0.539,1.54 -0.191,0.94 -0.891,1.13 -1.461,1.13 -20.988,-0.81 -62.379,2.74 -68.527,20.9 -1.781,5.08 -2.614,10.33 -2.614,16.52 0,14.58 6.012,25.18 6.563,25.74 0,-0.03 -0.039,0.34 -0.039,0.62 0,0.09 0,0.35 -0.043,0.45 -0.43,0.61 -0.949,0.96 -1.379,0.96 -0.43,0 -42.68,1.23 -45.352,28.52 -0.289,1.42 -0.289,2.66 -0.289,4.08 0,21.81 18.61,35.17 24.321,38.75 l 0.242,0.15 c 0.598,0.4 0.949,0.92 0.949,1.36 0,0.6 -0.242,1.06 -0.64,1.19 -21.18,12.73 -33.84,28.03 -37.879,45.6 -0.981,3.69 -1.442,7.75 -1.442,12.73 0,15.08 5.449,26.62 7.781,30.88 l 0.938,1.7 1.019,-1.65 c 4.711,-7.58 17.833,-24.66 38.161,-19.34 14.929,3.59 26.832,12.89 31.839,24.85 1.821,3.92 2.743,8.24 2.743,12.88 0,5.66 -1.571,11.39 -4.68,17.03 l -6.762,10.72 c -9.187,13.9 -21.718,32.89 -21.718,55.03 0,17.85 8.21,35.38 24.41,52.09 50.14,52.46 122.269,53.07 122.988,53.07 l 0.473,0 0.168,-0.17 c 1.16,-0.36 7.23,-1.77 12.64,-2.97 18.781,-5.6 39.969,-11.92 134.34,18.68 116.391,37.94 328.408,-36.85 350.418,-49.42 22.52,-12.99 46.35,-36.28 30.59,-101.6 -8.43,-34.8 -8.42,-54.33 0.01,-63.3 6.8,-7.35 17.75,-6.41 27.59,-4.48 13.26,2.35 22.33,8.25 26.98,17.53 l 1.04,2.08 1,-2.1 c 7.49,-15.77 11.44,-31.42 11.44,-45.27 0,-23.33 -9.43,-37.2 -9.84,-37.78 -0.34,-0.37 -0.36,-0.51 -0.36,-1.05 0,-0.27 0.19,-0.67 0.37,-1.05 1.34,-1.45 11.82,-13.34 11.82,-29.85 0,-8.05 -2.45,-15.61 -7.3,-22.48 -18.75,-26.82 -40.82,-27.13 -41.75,-27.13 -1.04,0 -1.38,-1.17 -1.44,-1.41 0.02,-0.2 -0.1,-0.4 -0.22,-0.56 0.14,-0.55 0.69,-1.03 1.16,-1.34 5.46,-2.22 12.13,-12.27 12.69,-22.99 l 0,-1.48 c 0,-6.44 -2.4,-15.58 -13.87,-22.52 -21.62,-13.12 -35.95,-6.2 -39.85,-3.77 l -0.37,0.26 c -0.63,0.62 -1.22,0.25 -1.41,0.15 l -0.26,-0.14 c -0.26,-0.08 -0.63,-0.7 -0.63,-1.48 0.86,-21.29 -6.44,-38.11 -21.71,-49.93 -38.74,-30.18 -123.98,-23.27 -191.227,-3.03 -69.492,21.28 -152.18,-0.36 -212.551,-16.17 -24.968,-6.54 -45.32,-11.69 -60.808,-13.62 -5.793,-0.7 -10.981,-1.01 -15.614,-1.01 m -42.308,18.36 0.48,-1.76 c 0.668,-2.46 2.34,-6.12 6.45,-9.65 9.949,-8.84 27.211,-11.89 51.289,-9.08 16.89,2.04 38.652,7.72 61.339,13.85 60.161,15.6 142.512,36.96 210.961,16.15 62.989,-18.92 151.609,-29.35 193.999,3.5 14.85,11.55 22.53,27.75 22.81,48.16 l 0.02,1.7 1.56,-0.68 c 6.54,-2.84 20.36,-5.87 39.49,5.6 9.9,5.77 15.34,14.68 15.34,25.11 l 0,1.7 c -0.51,8.05 -4.18,16.46 -9.59,21.88 l -1.52,1.51 2.1,0.4 c 8.09,1.56 23.8,7.27 38.13,27.88 5.19,7.44 7.72,15.2 7.72,23.73 0,10.14 -3.84,20.5 -11.4,30.79 l -0.45,0.63 0.41,0.65 c 2.93,4.68 9.74,17.71 9.74,37.66 0,17.03 -5.08,34.87 -15.16,53.03 -0.34,0.72 -0.97,1.03 -1.58,0.87 -0.53,-0.14 -1.12,-0.52 -1.12,-1.17 l -0.06,-0.36 c -1.11,-5.27 -5.82,-17.45 -26.37,-21.17 -13.11,-2.37 -20.3,-1.39 -24.85,3.46 -7.66,7.96 -7.48,27.78 0.58,60.57 16.55,68.18 -10.21,92.45 -31.78,104.77 -22.07,12.73 -235.116,88.4 -352.847,49.79 l -0.011,0 c -93.461,-30.2 -114.329,-24.09 -132.75,-18.72 l -13.739,3.09 -0.121,-0.01 c -0.738,0 -74.66,-0.62 -125.601,-53.8 -45.047,-47 -18.719,-86.96 -3,-110.84 l 6.82,-10.5 c 5.043,-9.18 5.641,-18.55 1.781,-27.15 -4.66,-11.07 -15.871,-19.79 -29.961,-23.32 -22.051,-5.54 -34.668,17.42 -36.968,22.07 -0.333,0.5 -0.852,0.86 -1.29,0.86 -0.691,0 -1.152,-0.24 -1.191,-0.36 l -0.129,-0.27 c -0.43,-0.65 -10.582,-16.1 -10.582,-36.5 0,-3.99 0.43,-8.21 1.402,-13.7 4.129,-17.34 16.168,-32.56 35.778,-45.16 l 1.441,-0.93 -1.422,-0.96 c -6.84,-4.65 -22.75,-17.8 -22.75,-39.32 0,-0.64 0.071,-1.28 0.133,-1.95 0.078,-0.81 0.16,-1.66 0.16,-2.58 2.391,-24.12 31.789,-29.65 44.328,-30.91 l 1.551,-0.15 -0.621,-1.43 c -3.367,-7.71 -5.008,-15.26 -5.008,-23.07 0,-6.89 0.879,-12.62 2.77,-18.06 6.847,-19.71 46.738,-22.48 63.578,-22.76 l 2.91,-0.05 -2.18,-1.93 c -6.14,-5.46 -9.257,-11.47 -9.257,-17.86 0,-3.31 0.687,-6.21 2.16,-9.14 3.539,-7.9 11.937,-12.41 23.066,-12.41 8.442,0 16.731,2.72 21.641,7.09 l 1.371,1.21 z m 42.129,-23.76 c -16.418,0 -28.719,3.56 -36.688,10.64 -3.711,3.19 -5.633,6.52 -6.621,9.13 -5.39,-4.08 -13.558,-6.57 -21.832,-6.57 -12.058,0 -21.219,4.99 -25.117,13.7 -1.609,3.22 -2.371,6.44 -2.371,10.11 0,6.31 2.691,12.23 8,17.64 -18.559,0.55 -55.981,4.2 -62.93,24.22 -1.98,5.68 -2.898,11.65 -2.898,18.8 0,7.65 1.508,15.05 4.597,22.56 -13.808,1.6 -42.378,7.94 -44.839,32.88 -0.008,0.97 -0.09,1.74 -0.149,2.48 -0.082,0.75 -0.14,1.46 -0.14,2.17 0,21.25 14.66,34.66 22.347,40.22 -19.277,12.75 -31.18,28.12 -35.359,45.69 -1.008,5.69 -1.449,10.03 -1.449,14.16 0,20.4 9.851,36.07 10.89,37.65 0.531,1.28 2.031,1.75 3.281,1.75 1.207,0 2.411,-0.72 3.207,-1.92 2.282,-4.58 14.071,-26.15 34.5,-21.08 13.403,3.35 24.032,11.58 28.43,22.02 3.57,7.96 2.992,16.62 -1.648,25.09 l -6.758,10.42 c -16.102,24.44 -43.051,65.34 3.25,113.65 49.668,51.86 120.93,54.37 126.848,54.49 l 0.8,0.33 0.442,-0.43 13.578,-3.04 c 18.172,-5.32 38.691,-11.31 131.488,18.68 118.371,38.79 332.52,-37.19 354.68,-49.99 22.2,-12.68 49.76,-37.6 32.86,-107.26 -7.76,-31.54 -8.14,-51.21 -1.14,-58.47 3.88,-4.16 10.7,-4.98 22.79,-2.8 18.52,3.35 23.32,13.47 24.53,19.2 0.02,0.1 0.04,0.18 0.05,0.26 0.07,1.51 1.19,2.79 2.84,3.2 1.69,0.42 3.33,-0.39 4.13,-2 10.22,-18.46 15.42,-36.67 15.42,-54.09 0,-19.67 -6.48,-32.88 -9.69,-38.21 7.56,-10.49 11.39,-21.09 11.39,-31.52 0,-9.01 -2.66,-17.2 -8.14,-25.03 -13.69,-19.71 -28.74,-26.23 -37.57,-28.37 5.01,-5.78 8.36,-13.98 8.86,-21.93 l 0,-1.77 c 0,-11.27 -5.84,-20.88 -16.44,-27.06 -18.63,-11.16 -32.58,-9.11 -40,-6.35 -0.68,-20.36 -8.63,-36.59 -23.66,-48.27 -43.09,-33.39 -132.54,-22.95 -196.039,-3.88 -67.84,20.64 -149.84,-0.63 -209.718,-16.17 -22.762,-6.16 -44.61,-11.86 -61.653,-13.92 -5.84,-0.67 -11.297,-1.01 -16.359,-1.01" /><path
         id="path76"
         style="fill:#000000;fill-opacity:1;fill-rule:nonzero;stroke:none"
         d="m 544.719,1366.53 c -13.891,-1.7 -27.781,-11.34 -28.352,-11.62 -1.129,-0.85 -1.41,-2.55 -0.558,-3.69 0.847,-1.41 2.546,-1.7 3.679,-0.85 0.289,0.29 13.321,9.36 25.797,10.77 1.41,0 2.551,1.42 2.551,2.84 -0.289,1.42 -1.699,2.55 -3.117,2.55" /><path
         id="path78"
         style="fill:#000000;fill-opacity:1;fill-rule:nonzero;stroke:none"
         d="m 551.801,1285.74 c -3.117,-3.12 -10.199,-4.82 -12.758,-5.1 -1.41,0 -2.551,-1.42 -2.551,-2.84 0.289,-1.41 1.699,-2.55 3.121,-2.55 1.129,0.29 11.34,1.42 16.16,7.09 0.848,1.13 0.848,2.83 -0.293,3.68 -1.128,1.14 -2.828,0.85 -3.679,-0.28" /><path
         id="path80"
         style="fill:#000000;fill-opacity:1;fill-rule:nonzero;stroke:none"
         d="m 640.242,1197.87 c -7.09,-6.52 -5.097,-16.16 -5.097,-16.44 0.281,-1.42 1.699,-2.27 3.121,-1.99 1.41,0.29 2.547,1.7 2.257,3.11 -0.281,0.3 -1.41,6.82 3.403,11.34 1.137,1.15 1.137,2.84 0.289,3.7 -1.141,1.12 -2.84,1.41 -3.973,0.28" /><path
         id="path82"
         style="fill:#000000;fill-opacity:1;fill-rule:nonzero;stroke:none"
         d="m 1202.92,1304.73 c 0,-1.42 0.85,-2.83 2.28,-3.12 11.04,-1.42 18.71,-6.8 18.98,-6.8 1.13,-0.85 2.83,-0.57 3.68,0.85 0.86,1.13 0.57,2.83 -0.85,3.68 -0.28,0.29 -8.78,5.96 -20.97,7.66 -1.42,0.28 -2.84,-0.85 -3.12,-2.27" /><path
         id="path84"
         style="fill:#000000;fill-opacity:1;fill-rule:nonzero;stroke:none"
         d="m 1239.49,1385.8 c -5.96,-2.54 -12.2,-7.64 -11.62,-12.75 0,-1.7 1.12,-5.1 6.8,-6.23 18.14,-4.25 30.89,10.2 31.18,10.77 0.85,1.12 0.85,2.55 0,3.39 -7.38,8.8 -18.71,8.23 -26.36,4.82 m -3.69,-13.89 c -1.42,0.29 -2.55,1.14 -2.55,1.71 -0.28,1.42 2.84,5.09 8.21,7.36 2.84,1.15 11.35,3.7 18.44,-1.97 -3.97,-3.4 -12.76,-9.64 -24.1,-7.1" /><path
         id="path86"
         style="fill:#ffcdac;fill-opacity:1;fill-rule:nonzero;stroke:none"
         d="m 661.785,1383.82 c 0,0 -20.687,18.43 -37.418,0 -17.012,-18.43 0.852,-41.1 20.699,-50.17 19.84,-9.36 28.911,-20.98 35.711,-2.55 6.809,18.42 -5.949,34.86 -18.992,52.72" /><path
         id="path88"
         style="fill:#000000;fill-opacity:1;fill-rule:nonzero;stroke:none"
         d="m 622.387,1385.52 c -6.239,-6.52 -8.789,-14.46 -7.09,-22.96 2.84,-13.89 16.441,-25.8 28.633,-31.47 l 11.629,-5.95 c 7.929,-4.53 13.89,-7.93 19.269,-5.67 3.399,1.14 6.238,4.54 8.5,10.77 7.09,19.28 -5.101,36 -18.14,53.58 l -1.129,1.42 c 0,0.28 -0.282,0.28 -0.282,0.56 -7.937,6.81 -26.648,15.88 -41.39,-0.28 m 35.722,-55.84 -11.91,6.23 c -11.051,5.11 -23.242,15.59 -25.511,27.78 -1.418,6.52 0.57,12.76 5.671,18.14 14.457,16.16 32.309,1.14 33.731,0 0.277,-0.28 0.848,-1.13 0.848,-1.13 9.921,-13.89 18.992,-26.08 18.992,-39.12 0,-3.12 -0.563,-6.23 -1.703,-9.63 -1.7,-4.26 -3.399,-6.81 -5.379,-7.66 -3.121,-1.13 -8.219,1.7 -14.739,5.39" /><path
         id="path90"
         style="fill:#ffcdac;fill-opacity:1;fill-rule:nonzero;stroke:none"
         d="m 663.77,1565.24 c 0,0 -11.622,-21.26 -20.411,-52.44 -5.39,-18.99 -9.347,-41.95 -9.07,-65.76 0.57,-62.93 17.859,-39.69 25.231,-118.78 7.371,-79.08 5.671,-100.63 67.46,-126.14 61.508,-25.23 75.122,-48.47 87.59,-60.09 12.192,-11.62 30.899,-14.74 70.02,3.68 39.121,18.43 63.781,40.54 110.269,64.35 46.481,24.09 74.551,53.01 70.311,108 0,0 44.77,5.38 63.48,47.9 13.32,30.62 -13.6,63.78 -59.81,18.15 0,0 29.48,193.32 -84.469,265.6 C 870.422,1722.28 689,1616.55 663.77,1565.24" /><path
         id="path92"
         style="fill:#000000;fill-opacity:1;fill-rule:nonzero;stroke:none"
         d="m 819.109,1665.87 c -75.398,-21.26 -142.296,-68.88 -157.316,-99.78 l 0,0.28 c 0,-0.28 -11.91,-21.82 -20.703,-53 -6.52,-22.96 -9.629,-45.36 -9.348,-66.33 0.278,-31.75 5.098,-42.24 10.488,-54.15 5.102,-11.9 11.34,-25.51 15.02,-64.91 l 0.852,-12.19 c 6.519,-70.01 8.218,-91.27 67.75,-115.65 50.738,-20.98 68.597,-40.25 80.218,-52.73 l 6.801,-7.08 c 15.309,-14.46 37.141,-13.33 72.57,3.11 20.411,9.64 37.129,20.41 54.711,31.47 16.438,10.77 33.45,21.83 55.828,33.16 37.71,19.28 72.01,45.08 72.01,99.22 0,2.83 -0.28,5.95 -0.28,8.78 9.35,1.71 46.49,11.34 63.21,49.04 2.27,5.67 3.4,11.34 3.4,16.73 0,9.64 -3.68,18.14 -10.77,22.96 -12.47,8.79 -31.75,2.83 -51.59,-14.74 0.85,8.5 2.55,25.79 2.55,48.19 0,63.49 -12.75,165.54 -88.717,213.73 -54.992,34.87 -120.762,26.65 -166.684,13.89 m -2.828,-522.14 -6.519,6.8 c -12.192,13.04 -30.34,32.6 -81.93,53.86 -56.973,23.53 -58.672,42.24 -64.91,111.68 l -1.129,12.48 c -3.691,39.97 -9.922,53.86 -15.313,66.33 -5.097,11.34 -9.64,21.26 -9.917,52.16 -0.282,20.69 2.828,42.52 9.07,65.19 8.789,30.33 20.129,51.59 20.41,51.59 l 0,0.29 c 14.457,29.19 81.348,76.53 154.488,97.22 44.782,12.48 109.129,20.41 162.711,-13.6 111.398,-70.58 83.328,-261.36 83.048,-263.34 0,-1.13 0.57,-1.98 1.42,-2.55 0.85,-0.28 1.98,-0.28 2.83,0.57 19.85,19.55 38.84,26.64 50.45,18.42 9.08,-6.24 11.35,-20.41 5.4,-33.73 -17.86,-40.82 -61.24,-46.49 -61.52,-46.49 -1.41,-0.28 -2.26,-1.42 -2.26,-2.55 3.96,-47.91 -16.16,-78.52 -68.887,-105.73 -22.391,-11.63 -39.68,-22.68 -56.121,-33.17 -17.582,-11.34 -34.02,-21.83 -54.141,-31.18 -41.961,-19.84 -57.551,-13.32 -67.18,-4.25" /><path
         id="path94"
         style="fill:#fcd01a;fill-opacity:1;fill-rule:evenodd;stroke:none"
         d="m 637.125,1477.93 c 37.98,-5.95 39.688,34.3 77.391,85.04 37.699,50.74 60.937,75.4 124.718,75.97 63.782,0.85 79.942,-47.34 119.34,-57.55 0,0 12.469,-22.67 46.196,-32.59 0,0 7.66,-28.35 45.93,-53.01 0,0 -4.54,-33.73 17.85,-45.92 0,0 1.99,-42.24 0,-61.51 0,0 2.56,1.13 18.15,13.03 7.93,5.96 22.68,9.64 32.89,5.96 22.95,-8.22 74.55,46.49 89,115.08 14.45,68.6 -11.63,109.14 -115.94,146.84 -104.318,37.7 -195.025,24.94 -257.384,22.11 -62.364,-2.84 -97.512,-37.99 -159.024,-40.82 -61.508,-2.83 -107.148,-36.85 -76.816,-81.07 0,0 -16.16,-9.36 -11.344,-35.43 4.82,-26.08 11.063,-50.18 49.043,-56.13" /><path
         id="path96"
         style="fill:#000000;fill-opacity:1;fill-rule:nonzero;stroke:none"
         d="m 1093.51,1671.54 c -91,32.88 -172.354,27.78 -232.162,24.09 l -26.082,-1.7 c -31.739,-1.41 -56.692,-11.05 -81.071,-20.69 -23.519,-9.07 -47.898,-18.71 -78.23,-20.13 -28.348,-1.13 -53.008,-9.07 -69.168,-21.26 15.308,5.67 26.078,9.08 44.789,13.04 7.648,1.71 16.16,2.56 24.66,3.12 31.18,1.42 55.84,11.06 79.942,20.41 23.808,9.36 48.468,18.99 79.078,20.41 l 26.648,1.42 c 58.961,3.68 140.036,8.79 229.886,-23.53 99.22,-36 128.99,-73.42 114.25,-143.72 -3.41,-16.15 -8.23,-30.61 -8.23,-42.23 6.81,11.62 10.48,26.93 13.32,41.1 15.31,72.57 -16.43,113.39 -117.63,149.67" /><path
         id="path98"
         style="fill:#000000;fill-opacity:1;fill-rule:nonzero;stroke:none"
         d="m 1072.25,1407.63 c 0,19.56 -1.13,41.1 -1.13,42.52 0,0.85 -0.57,1.7 -1.42,2.27 -14.74,7.93 -16.74,26.93 -16.74,36.85 0,3.68 0.3,6.23 0.3,6.23 l 0,0.29 c 0,0.85 -0.3,1.7 -1.14,2.27 -36.85,23.81 -44.78,51.3 -44.78,51.59 -0.3,0.85 -0.86,1.7 -1.7,1.7 -32.324,9.35 -44.515,31.18 -44.515,31.18 -0.57,0.85 -1.129,1.42 -1.699,1.42 -15.02,3.96 -26.93,13.6 -39.121,23.81 -19.559,16.15 -41.668,34.3 -81.071,34.01 -63.488,-0.85 -87.296,-24.09 -126.707,-77.38 -12.472,-16.73 -21.261,-32.6 -28.339,-45.64 -14.743,-26.93 -22.961,-41.95 -46.493,-38.27 -35.429,5.67 -41.949,26.93 -47.058,53.86 -4.25,23.81 9.64,32.31 10.211,32.88 0.566,0.28 1.129,0.85 1.129,1.7 0.289,0.57 0,1.42 -0.282,1.99 -0.847,1.13 -1.14,1.41 -1.699,2.26 -0.289,0.57 -5.949,-4.82 -7.371,-5.95 -3.687,-4.25 -8.219,-11.9 -8.219,-23.81 0,-3.12 0.282,-6.24 1.129,-9.92 5.102,-28.35 12.473,-52.16 51.313,-58.11 27.207,-4.25 37.129,13.6 51.867,40.82 7.371,13.32 15.59,28.63 28.07,45.07 39.11,52.72 61.223,74.27 122.449,75.12 37.704,0.28 57.832,-16.44 77.672,-32.6 12.469,-10.49 24.379,-20.13 39.969,-24.66 2.27,-3.97 15.313,-22.96 45.645,-32.32 1.98,-5.67 11.89,-30.05 45.35,-52.16 0,-1.41 -0.28,-3.11 -0.28,-5.95 0,-10.77 2.55,-30.61 18.42,-40.25 0,-4.82 0.85,-23.81 0.85,-40.82 0,-9.07 0,-17.57 -0.85,-23.24 l 0,-0.29 c 0,-1.13 0.56,-1.98 1.7,-2.55 0.57,-0.28 1.14,-0.28 1.7,0 0.29,3.4 1.14,6.52 2.55,9.92 0.29,5.11 0.29,10.49 0.29,16.16" /><path
         id="path100"
         style="fill:#000000;fill-opacity:1;fill-rule:nonzero;stroke:none"
         d="m 597.441,1571.48 c -0.851,-1.14 -0.851,-2.84 0,-3.98 1.129,-0.84 2.829,-1.12 3.68,0 0.57,0.29 9.93,9.07 28.352,5.96 7.367,-1.41 12.187,-4.82 13.039,-9.35 0.57,-4.25 -2.27,-9.36 -7.942,-12.77 -1.129,-0.55 -1.699,-2.25 -0.847,-3.68 0.847,-1.12 2.269,-1.41 3.687,-0.84 7.371,4.52 11.34,11.61 10.199,18.41 -1.129,6.82 -7.648,11.63 -17.289,13.34 -20.968,3.97 -32.308,-6.82 -32.879,-7.09" /><path
         id="path102"
         style="fill:#000000;fill-opacity:1;fill-rule:nonzero;stroke:none"
         d="m 956.023,1581.96 c -0.277,-1.42 0.571,-2.83 1.981,-3.12 1.992,-0.56 47.636,-10.77 78.226,-3.12 1.43,0.57 2.29,1.99 2,3.41 -0.3,1.41 -1.71,2.26 -3.12,1.7 -29.47,-7.37 -75.407,3.11 -75.965,3.11 -1.418,0.29 -2.84,-0.56 -3.122,-1.98" /><path
         id="path104"
         style="fill:#000000;fill-opacity:1;fill-rule:nonzero;stroke:none"
         d="m 1002.51,1550.21 c -0.85,-1.41 -0.27,-3.12 1.13,-3.67 1.7,-0.86 45.93,-22.97 91.85,-7.38 1.41,0.57 1.98,1.98 1.7,3.41 -0.57,1.41 -1.98,1.98 -3.4,1.7 -43.94,-15.04 -87.31,6.8 -87.88,7.07 -1.12,0.57 -2.82,0 -3.4,-1.13" /><path
         id="path106"
         style="fill:#000000;fill-opacity:1;fill-rule:nonzero;stroke:none"
         d="m 1048.44,1497.49 c -0.85,-1.13 -0.58,-2.83 0.57,-3.69 1.7,-1.41 41.67,-33.73 84.47,-20.4 1.42,0.56 2.26,1.98 1.7,3.4 -0.28,1.41 -1.7,2.26 -3.13,1.7 -40.24,-12.47 -79.36,18.99 -79.65,19.27 -1.14,1.14 -2.84,0.85 -3.96,-0.28" /><path
         id="path108"
         style="fill:#000000;fill-opacity:1;fill-rule:nonzero;stroke:none"
         d="m 1066.57,1451.85 c -1.12,-1.13 -0.85,-2.83 0,-3.97 1.13,-0.85 22.96,-21.54 49.33,-20.41 1.41,0 2.54,1.42 2.54,2.84 0,1.41 -1.13,2.55 -2.83,2.55 -24.1,-0.85 -45.07,18.71 -45.35,18.99 -0.86,1.13 -2.56,1.13 -3.69,0" /><path
         id="path110"
         style="fill:#b80000;fill-opacity:1;fill-rule:nonzero;stroke:none"
         d="m 821.941,1257.39 c -21.828,-2.26 -21.257,-7.65 -37.699,-5.1 0,0 10.77,-16.44 15.313,-32.32 4.25,-15.87 11.617,-27.78 34.297,-29.19 22.671,-1.7 40.531,0.28 49.32,16.15 8.5,15.59 13.601,36.57 21.262,45.07 0,0 -9.071,3.41 -23.813,5.11 -6.238,0.56 -12.758,1.7 -22.109,0.85 -3.117,-0.29 -14.18,-2.83 -17.289,-3.12 -2.84,-0.28 -14.18,2.83 -19.282,2.55" /><path
         id="path112"
         style="fill:#9e0000;fill-opacity:1;fill-rule:nonzero;stroke:none"
         d="m 858.227,1260.51 -9.637,-1.7 -7.652,-1.42 c -0.848,0 -3.969,0.57 -6.52,0.85 -4.539,0.85 -9.641,1.99 -12.762,1.7 -9.629,-1.13 -15.019,-2.55 -19.269,-3.97 -5.391,-1.41 -9.071,-2.55 -17.86,-1.13 -1.129,0 -1.98,-0.28 -2.55,-1.13 -0.571,-0.85 -0.571,-1.99 0,-2.84 0,-0.28 10.769,-16.44 15.019,-31.75 3.973,-15.02 11.344,-29.19 36.852,-30.89 20.98,-1.7 41.672,-0.57 51.59,17.29 3.691,7.08 6.808,14.74 9.64,22.11 3.692,9.35 7.09,18.14 11.34,22.68 0.57,0.56 0.852,1.41 0.57,2.26 -0.289,0.85 -0.851,1.7 -1.699,1.99 -0.293,0 -9.359,3.4 -24.383,5.1 l -1.988,0 c -5.672,0.85 -12.191,1.7 -20.691,0.85 m -16.719,-8.22 7.93,1.42 9.359,1.7 c 7.93,0.56 13.891,0 19.562,-0.57 l 1.981,-0.28 c 9.348,-1.14 16.156,-2.84 20.129,-3.97 -3.692,-5.39 -6.813,-13.04 -9.93,-20.98 -3.109,-7.37 -5.949,-15.02 -9.633,-21.54 -7.937,-14.46 -24.66,-16.44 -46.769,-14.74 -20.981,1.42 -28.071,11.9 -32.321,27.21 -3.117,11.34 -9.347,22.68 -12.757,28.63 6.238,-0.28 10.211,0.57 14.738,1.99 3.973,1.13 9.082,2.83 18.43,3.68 2.55,0 7.371,-0.85 11.339,-1.42 3.973,-0.85 6.524,-1.41 7.942,-1.13" /><path
         id="path114"
         style="fill:#e21a00;fill-opacity:1;fill-rule:nonzero;stroke:none"
         d="m 827.047,1203.82 c 3.398,-3.68 8.219,-5.95 15.59,-6.52 11.91,-0.85 21.828,0 27.777,6.52 -14.738,3.4 -29.199,7.09 -43.367,0" /><path
         id="path116"
         style="fill:#ffffff;fill-opacity:1;fill-rule:nonzero;stroke:none"
         d="m 904.434,1252.01 c 0,0 -17.86,-0.85 -44.5,-3.68 -26.079,-3.12 -56.411,-2.27 -75.692,3.96 0,0 11.34,-14.45 19.84,-24.66 8.512,-10.2 25.523,-18.14 47.633,-15.87 22.109,2.27 26.918,11.34 34.578,21.82 7.652,10.49 18.141,18.43 18.141,18.43" /><path
         id="path118"
         style="fill:#9e0000;fill-opacity:1;fill-rule:nonzero;stroke:none"
         d="m 904.434,1254.28 c -0.282,0 -18.43,-0.85 -44.789,-3.69 -28.063,-3.11 -57.54,-1.7 -75.122,3.69 -0.847,0.28 -1.699,0 -1.98,-0.85 -0.57,-0.85 -0.277,-1.98 0.281,-2.84 l 19.852,-24.37 c 7.929,-9.64 25.219,-19.28 49.316,-16.73 20.981,1.99 26.934,10.49 33.731,20.13 l 1.992,2.55 c 7.367,10.2 17.848,17.86 17.848,17.86 0.57,0.56 1.14,1.7 0.851,2.55 -0.281,1.13 -1.129,1.7 -1.98,1.7 m -44.219,-8.22 c 16.719,1.7 30.051,2.83 37.699,3.4 -3.68,-3.4 -8.789,-8.5 -13.039,-14.17 l -1.98,-2.84 c -6.52,-9.35 -11.911,-16.44 -31.18,-18.42 -22.961,-2.27 -38.84,6.23 -46.211,15.3 0,0 -9.922,11.91 -15.59,19 18.141,-4.25 44.219,-5.11 70.301,-2.27" /><path
         id="path120"
         style="fill:#9e0000;fill-opacity:1;fill-rule:nonzero;stroke:none"
         d="m 914.07,1255.13 c -6.519,-4.25 -13.039,-7.09 -13.609,-7.37 -0.848,-0.28 -1.981,0.57 -2.258,1.7 -0.293,1.13 0.277,2.55 1.41,2.84 0,0 6.809,1.98 13.328,6.23 1.7,1.42 7.082,5.1 7.93,3.97 0.57,-0.85 -4.527,-5.95 -6.801,-7.37" /><path
         id="path122"
         style="fill:#9e0000;fill-opacity:1;fill-rule:nonzero;stroke:none"
         d="m 771.488,1260.51 c -0.57,-1.13 3.973,-6.52 6.801,-7.94 4.82,-2.55 9.641,-3.97 9.922,-3.97 1.137,-0.56 1.988,0.29 2.269,1.42 0.29,1.42 -0.281,2.55 -1.421,2.84 0,0 -4.25,1.41 -8.782,3.68 -2.839,1.14 -8.218,4.82 -8.789,3.97" /><path
         id="path124"
         style="fill:#000000;fill-opacity:1;fill-rule:nonzero;stroke:none"
         d="m 835.27,1345.84 c -1.422,0 -2.27,-9.07 -3.969,-16.73 -1.981,-9.36 -6.231,-20.7 -16.723,-25.79 -0.848,-0.28 -1.418,-1.14 -1.418,-1.98 -0.281,-0.86 0,-1.7 0.848,-2.27 3.691,-3.98 8.5,-9.07 12.472,-13.62 3.969,-4.25 12.481,-10.77 12.758,-9.63 0,0.29 0,0.57 -0.277,0.84 -0.57,2.57 -3.691,6.82 -7.094,11.07 -4.25,4.82 -8.789,9.63 -11.906,12.75 13.887,9.07 17.289,27.5 17.859,36.86 0.278,3.39 -0.851,8.5 -2.55,8.5" /><path
         id="path126"
         style="fill:#a8765d;fill-opacity:1;fill-rule:nonzero;stroke:none"
         d="m 767.805,1251.72 c 0,1.71 1.418,5.1 2.828,8.5 1.422,3.12 7.66,7.09 7.371,6.52 -1.133,-2.26 -5.102,-9.63 -3.961,-7.36 0.559,1.41 -5.391,-9.64 -5.961,-8.23 0,0.3 -0.277,0.3 -0.277,0.57" /><path
         id="path128"
         style="fill:#a8765d;fill-opacity:1;fill-rule:nonzero;stroke:none"
         d="m 923.992,1254.28 c 0,1.7 -1.129,4.82 -2.828,8.5 -1.422,2.84 -7.66,6.52 -7.66,6.24 1.422,-2.27 5.391,-9.64 4.25,-7.37 -0.559,1.42 5.672,-9.64 6.238,-7.94" /><path
         id="path130"
         style="fill:#000000;fill-opacity:1;fill-rule:nonzero;stroke:none"
         d="m 1017.54,1501.74 c 0,0 -28.352,31.18 -60.942,12.47 -32.321,-18.99 -50.75,-37.13 -62.93,-31.46 -11.91,5.67 14.449,16.44 37.41,26.36 23.25,9.92 58.68,36.85 86.462,-7.37" /><path
         id="path132"
         style="fill:#000000;fill-opacity:1;fill-rule:nonzero;stroke:none"
         d="m 677.379,1496.93 c 0,0 23.238,28.34 52.719,13.31 29.199,-15.02 45.929,-30.33 56.129,-24.66 10.211,5.39 -13.039,13.62 -33.731,21.55 -20.687,7.66 -52.726,29.48 -75.117,-10.2" /><path
         id="path134"
         style="fill:#000000;fill-opacity:1;fill-rule:evenodd;stroke:none"
         d="m 752.777,1551.91 c -14.461,1.7 -35.429,16.45 -41.668,22.39 4.821,-5.37 19.278,-19.26 41.387,-24.94 28.91,-6.23 45.922,0 49.043,0.57 -3.41,-0.29 -24.101,-4.25 -48.762,1.98" /><path
         id="path136"
         style="fill:#000000;fill-opacity:1;fill-rule:evenodd;stroke:none"
         d="m 1082.73,1612.01 0.29,0" /><path
         id="path138"
         style="fill:#000000;fill-opacity:1;fill-rule:evenodd;stroke:none"
         d="m 845.758,1725.39 c -17.012,-13.88 -22.11,-32.02 -20.981,-32.3 -2.832,0.55 7.661,26.36 19.282,34.01 16.437,14.74 33.449,20.69 33.16,20.97 0.289,-0.28 -12.75,-6.52 -31.461,-22.68" /><path
         id="path140"
         style="fill:#000000;fill-opacity:1;fill-rule:evenodd;stroke:none"
         d="m 655.836,1535.47 c -5.949,0.85 -10.199,0.57 -12.762,-1.13 0.289,-5.66 6.242,-11.05 17.86,-16.16 1.14,1.98 1.992,3.68 3.121,5.68 -5.102,3.68 -7.942,7.64 -8.219,11.61" /><path
         id="path142"
         style="fill:#25478e;fill-opacity:1;fill-rule:evenodd;stroke:none"
         d="m 1114.77,1680.89 c -11.63,4.25 -21.54,10.49 -29.2,18.99 -7.37,7.94 -12.75,17.86 -16.16,29.2 -3.97,14.17 -5.38,30.61 -3.68,49.61 -4.25,0.28 -8.5,0.85 -12.47,1.13 l -80.795,-93.83 c 11.91,-3.68 22.101,-8.5 30.605,-13.89 0.57,-0.56 1.14,-0.85 1.72,-1.13 -1.72,-5.67 -1.72,-12.76 0.56,-21.26 1.13,-4.25 2.54,-9.07 4.81,-14.17 3.7,0.56 7.66,-1.14 11.07,-5.11 2.82,-3.11 5.09,-6.8 6.52,-11.05 14.45,17.86 43.37,38.27 87.02,61.51" /><path
         id="path144"
         style="fill:#25478e;fill-opacity:1;fill-rule:evenodd;stroke:none"
         d="m 972.184,1685.99 -1.981,-25.8 c 0.559,-2.26 1.41,-10.48 2.551,-24.66 0.277,-4.25 0.848,-8.22 1.699,-12.47 7.078,-2.83 14.738,-6.24 22.961,-10.77 -0.293,5.1 0.277,9.64 1.699,14.17 2.267,5.1 5.667,8.22 9.917,9.07 0.28,0.29 0.57,0.29 1.13,0 -2.26,5.11 -3.68,9.92 -4.81,14.18 -2.27,8.5 -2.27,15.59 -0.57,21.26 -0.57,0.28 -1.14,0.56 -1.7,1.13 -8.506,5.39 -18.709,10.21 -30.615,13.89" /><path
         id="path146"
         style="fill:#2853a0;fill-opacity:1;fill-rule:evenodd;stroke:none"
         d="m 651.863,1564.1 c 47.91,33.45 104.313,53.57 169.231,60.38 -64.918,-6.81 -121.321,-26.93 -169.231,-60.38 m 59.813,234.14 c 0.277,3.12 1.988,5.95 4.539,8.22 9.629,11.06 28.058,18.99 54.988,23.53 21.262,2.27 36.281,1.7 45.352,-1.7 6.242,-1.99 9.64,-7.94 9.922,-17.86 1.418,-25.51 -11.622,-52.44 -39.403,-80.79 -5.097,0.57 -10.769,2.55 -17.289,5.67 -23.238,10.21 -41.379,26.65 -54.711,48.76 -3.121,5.1 -4.25,10.2 -3.398,14.17 m 212.597,72.29 c -62.359,-20.13 -119.339,-13.61 -169.796,19.84 -44.782,-70.87 -103.461,-105.45 -176.032,-104.6 18.711,-51.31 -1.129,-101.2 -59.519,-150.24 35.711,-11.34 58.109,-22.96 67.179,-35.43 7.372,-9.92 6.801,-22.11 -1.421,-37.13 21.261,-0.57 41.382,-3.12 60.941,-7.37 0.852,17.57 -0.852,35.43 -5.379,53.57 32.598,38.27 92.969,66.62 180.559,84.47 -87.59,-17.85 -147.961,-46.2 -180.559,-84.47 4.527,-18.14 6.231,-36 5.379,-53.57 -0.281,-7.09 -1.129,-14.18 -2.551,-21.26 2.551,1.7 6.813,1.98 12.762,1.13 -0.57,3.97 0.57,7.65 3.68,11.62 1.699,2.55 3.968,5.39 7.089,8.22 4.54,4.54 10.489,8.79 17.571,13.04 9.929,5.67 22.398,10.49 37.14,15.03 17.289,5.38 37.7,9.92 61.789,13.89 17.301,2.83 36.29,5.66 57.551,7.93 2.547,0 5.379,0.29 8.219,0.57 46.199,4.82 89.57,3.68 130.672,-2.27 -2.262,6.52 -4.25,13.32 -5.102,19.56 -15.3,5.95 -29.191,8.79 -41.949,8.79 12.758,0 26.649,-2.84 41.949,-8.79 -0.851,4.25 -1.41,8.22 -1.699,12.47 -1.133,14.18 -1.98,22.4 -2.551,24.66 l 1.981,25.8 c -30.332,10.2 -72,15.59 -125,16.16 53,-0.57 94.668,-5.96 125,-16.16 l 0.289,0 80.805,93.83 c -58.125,7.93 -100.934,38.26 -128.997,90.71" /><path
         id="path148"
         style="fill:#25478e;fill-opacity:1;fill-rule:evenodd;stroke:none"
         d="m 997.695,1607.19 c -0.281,1.98 -0.281,3.69 -0.281,5.1 -8.219,4.54 -15.879,7.94 -22.961,10.77 0.852,-6.23 2.832,-12.75 5.102,-19.55 0.281,0 0.57,0 0.851,-0.29 6.52,-0.57 13.039,-1.7 19.559,-3.12 -1.149,2.27 -1.699,4.82 -2.27,7.09" /><path
         id="path150"
         style="fill:#000000;fill-opacity:1;fill-rule:evenodd;stroke:none"
         d="m 1009.88,1633.55 c -0.85,0 -1.43,0.57 -1.98,1.42 -1.99,5.1 -3.69,9.92 -4.54,14.17 -2.27,7.94 -2.55,15.02 -1.13,20.69 l 0,0.29 -0.57,0.28 c -8.226,5.39 -18.426,9.92 -29.758,13.61 l -0.289,0 c -30.039,10.2 -72,15.59 -124.441,15.87 -1.418,0 -2.27,1.13 -2.27,2.27 0,1.13 0.852,2.27 2.27,2.27 52.73,-0.57 94.961,-5.96 125.582,-16.16 l 0.277,0 c 11.91,-3.69 22.391,-8.51 31.179,-14.46 l 0.85,-0.56 c 0.28,-0.29 0.57,-0.29 0.57,-0.29 1.13,-0.57 1.7,-1.7 1.13,-2.83 -1.42,-5.11 -1.42,-11.91 0.84,-19.85 0.85,-3.96 2.28,-8.78 4.55,-13.89 0.28,-1.13 0,-2.26 -1.14,-2.83 l -1.13,0 z m -12.759,-23.24 c -0.277,0 -0.558,0 -0.848,0.28 -7.082,3.68 -14.171,7.09 -22.671,10.49 -15.59,5.95 -28.918,8.79 -41.11,8.5 -1.129,0 -2.258,1.14 -2.258,2.27 0,1.13 1.129,2.27 2.258,2.27 12.762,0 26.653,-2.84 42.52,-8.79 8.793,-3.69 16.16,-7.09 23.25,-11.06 1.133,-0.56 1.41,-1.98 0.851,-2.83 -0.289,-0.85 -1.14,-1.42 -1.992,-1.13 m -345.539,-48.48 c -0.57,0 -1.129,0.29 -1.418,1.14 -0.851,0.85 -0.562,2.27 0.57,2.83 47.911,33.45 105.168,54.14 170.079,60.95 1.421,0.28 2.269,-0.57 2.55,-1.99 0,-1.13 -0.851,-2.27 -1.98,-2.27 -64.352,-7.08 -120.762,-27.21 -168.379,-60.09 -0.289,-0.28 -0.852,-0.57 -1.422,-0.57 m 9.07,-45.63 -0.57,0 c -12.75,5.66 -18.988,11.33 -18.988,18.14 l 0,0.28 c 0.847,5.67 1.988,12.47 2.269,19.28 -18.711,3.96 -38.55,6.23 -58.961,6.8 -0.57,0 -1.418,0.57 -1.699,1.13 -0.281,0.85 -0.281,1.7 0,2.27 7.942,14.17 8.5,25.51 1.699,34.58 -8.789,11.91 -30.898,23.81 -66.05,34.87 -0.848,0.28 -1.411,0.85 -1.411,1.7 -0.289,0.57 0,1.42 0.563,1.98 57.258,47.91 77.098,97.8 58.68,147.97 -0.282,0.57 0,1.42 0.281,1.99 0.566,0.56 1.137,0.85 1.988,0.85 71.43,-1.14 130.11,33.73 174.039,103.46 0.571,0.57 0.852,0.85 1.422,1.14 0.57,0 1.418,0 1.699,-0.29 49.61,-33.16 106.301,-39.68 168.102,-19.84 0.848,0.28 1.976,0 2.547,-0.85 27.492,-51.59 70.301,-81.92 127.268,-89.57 3.97,-0.57 8.22,-0.85 12.19,-1.14 0.57,0 1.14,-0.28 1.42,-0.85 0.57,-0.28 0.57,-0.85 0.57,-1.42 -1.42,-18.42 -0.29,-34.86 3.68,-48.75 3.4,-11.34 8.79,-20.98 15.88,-28.63 7.08,-7.94 16.72,-14.18 28.34,-18.14 0.85,-0.29 1.42,-1.14 1.42,-1.99 0,-0.85 -0.57,-1.7 -1.13,-1.98 -43.37,-22.96 -72.29,-43.66 -86.46,-61.23 -0.85,-0.85 -1.99,-1.13 -3.12,-0.28 -0.85,0.85 -1.13,1.98 -0.28,3.11 14.17,17.58 41.67,37.14 83.62,59.82 -10.49,4.25 -18.99,10.2 -25.81,17.57 -7.36,8.22 -13.03,18.43 -16.71,30.33 -3.97,14.17 -5.39,30.33 -3.97,48.19 -3.4,0.28 -6.81,0.57 -10.2,1.13 -57.825,7.94 -101.478,38.27 -129.825,90.15 -61.512,-19.56 -118.204,-13.04 -168.09,19.27 -43.942,-68.88 -102.621,-103.75 -173.481,-103.46 16.719,-50.18 -2.84,-99.78 -58.121,-147.41 34.301,-11.05 55.281,-22.67 64.352,-34.86 7.367,-9.92 7.648,-22.11 0.277,-36.57 19.281,-0.85 37.992,-2.83 55.563,-6.52 0.57,16.44 -1.133,33.45 -5.383,50.18 -0.289,0.85 0,1.41 0.281,1.98 32.879,38.55 94.109,67.18 181.988,85.32 1.133,0.29 2.262,-0.56 2.551,-1.7 0.281,-1.13 -0.57,-2.27 -1.699,-2.55 -86.18,-17.86 -146.27,-45.64 -178.59,-83.05 4.262,-17.58 5.961,-35.44 5.109,-53.01 -0.289,-6.52 -1.14,-12.48 -1.988,-17.86 2.551,0.57 5.949,0.57 10.207,0 1.133,0 1.981,-1.13 1.981,-2.27 -0.278,-1.42 -1.418,-2.27 -2.547,-1.98 -4.543,0.56 -7.942,0.28 -9.922,-0.57 0.851,-4.25 6.23,-8.5 16.16,-12.76 1.129,-0.28 1.699,-1.7 1.129,-2.83 -0.277,-0.85 -1.129,-1.42 -2.27,-1.13" /><path
         id="path152"
         style="fill:#ffee00;fill-opacity:1;fill-rule:evenodd;stroke:none"
         d="m 712.813,1803.92 14.742,12.76 23.808,10.2 29.481,5.67 23.531,-2.55 18.418,-5.39 3.121,-7.93 0.289,-17.3 -3.41,-16.15 -15.02,-24.95 -18.421,-27.49 -5.11,-1.15 -24.367,10.78 -27.5,19.56 -16.73,20.13 -5.102,13.6" /><path
         id="path154"
         style="fill:#000000;fill-opacity:1;fill-rule:evenodd;stroke:none"
         d="m 786.797,1727.38 0,0 c -5.102,0.57 -11.051,2.55 -17.859,5.95 -23.243,10.21 -41.95,26.93 -55.84,49.33 -3.121,5.95 -4.539,11.33 -3.692,16.15 0.571,3.4 2.27,6.52 5.11,9.36 9.922,11.05 28.91,19.27 56.41,24.09 22.109,2.27 37.133,1.7 46.48,-1.98 4.821,-1.7 11.063,-6.24 11.34,-19.84 1.422,-26.08 -12.187,-53.58 -40.25,-82.49 -0.277,-0.29 -0.848,-0.57 -1.699,-0.57 m -73.129,68.88 c -0.289,-3.4 0.848,-7.08 3.109,-11.34 13.328,-21.54 31.469,-37.7 53.86,-47.62 5.961,-2.83 11.058,-4.53 15.59,-5.38 26.652,27.49 39.402,53.85 38.269,78.23 -0.277,8.79 -3.398,14.17 -8.789,15.88 -8.5,3.4 -22.961,3.96 -44.219,1.98 -26.359,-4.82 -44.5,-12.47 -53.57,-22.96 l -0.289,0 c -1.981,-1.99 -3.113,-3.97 -3.684,-6.24 0.282,0.29 0.282,0.29 0.571,0.57 1.132,0.57 2.55,0 3.113,-1.13 3.687,-7.66 7.367,-14.18 11.629,-19.85 17.847,-20.41 36.277,-31.74 54.711,-33.45 1.41,0.29 2.547,0.29 3.109,0.86 1.699,0.85 2.84,1.7 4.258,2.83 10.199,15.02 16.723,32.88 18.992,52.44 l 0,11.62 c 0,1.14 0.848,2.27 1.981,2.27 1.418,0 2.269,-0.85 2.269,-2.27 0.277,-3.97 0.277,-7.93 0,-11.9 -2.269,-20.7 -8.793,-39.12 -20.133,-54.71 -1.699,-1.99 -3.398,-3.12 -5.097,-3.97 -1.129,-0.85 -3.121,-1.42 -5.672,-1.42 -19.559,1.7 -39.117,13.33 -57.821,34.87 -4.257,5.95 -8.507,12.75 -12.187,20.69" /><path
         id="path156"
         style="fill:#000000;fill-opacity:1;fill-rule:evenodd;stroke:none"
         d="m 666.605,1555.31 c -3.121,-2.83 -5.39,-5.67 -7.089,-8.22 -3.11,-3.97 -4.25,-7.65 -3.68,-11.62 0.281,-3.97 3.121,-7.94 8.219,-11.62 5.383,-4.82 11.05,-9.36 17.293,-13.04 17.859,-11.06 38.828,-17.86 63.207,-20.7 9.359,-0.85 19.281,-1.41 30.05,-1.13 l 6.243,0 c 38.547,0 75.679,10.77 111.679,32.6 10.207,4.82 20.981,10.49 32.028,17.29 10.492,6.52 21.55,13.61 32.883,21.54 2.558,1.7 5.109,3.4 7.66,5.39 6.226,4.53 12.468,9.07 18.707,13.89 6.23,4.82 12.472,9.92 18.715,15.02 -0.86,1.7 -1.99,3.69 -2.563,5.39 -6.519,1.41 -13.043,2.55 -19.551,3.12 -0.289,0.28 -0.57,0.28 -0.859,0.28 -41.102,5.95 -84.473,7.09 -130.672,2.27 -2.84,-0.29 -5.668,-0.57 -8.219,-0.57 24.09,-17.01 46.199,-36.57 66.328,-59.53 -17.289,-12.47 -33.726,-20.69 -49.039,-24.38 -24.66,28.07 -49.609,53.3 -74.84,75.97 -24.089,-3.97 -44.5,-8.5 -61.789,-13.89 30.899,-24.09 54.418,-51.59 70.86,-82.2 -21.821,0.28 -43.371,2.83 -65.192,6.52 -12.757,20.41 -27.207,40.53 -42.808,60.66 -7.078,-4.25 -13.031,-8.5 -17.571,-13.04" /><path
         id="path158"
         style="fill:#ffffff;fill-opacity:1;fill-rule:evenodd;stroke:none"
         d="m 726.988,1507.7 c 21.828,-3.68 43.367,-6.25 65.2,-6.52 -16.442,30.61 -39.969,58.11 -70.872,82.2 -14.738,-4.54 -27.211,-9.36 -37.128,-15.02 15.589,-20.13 30.039,-40.25 42.8,-60.66" /><path
         id="path160"
         style="fill:#ffffff;fill-opacity:1;fill-rule:evenodd;stroke:none"
         d="m 840.652,1605.2 c -21.257,-2.27 -40.25,-5.09 -57.539,-7.93 25.231,-22.68 50.172,-47.91 74.832,-75.97 15.309,3.68 31.75,11.9 49.039,24.38 -20.129,22.96 -42.242,42.52 -66.332,59.52" /><path
         id="path162"
         style="fill:#000000;fill-opacity:1;fill-rule:evenodd;stroke:none"
         d="m 750.797,1487.29 c -2.27,0.28 -4.25,0.57 -6.52,0.57 -24.382,2.82 -45.922,9.91 -64.062,20.96 -6.238,3.98 -12.188,8.23 -17.578,13.34 -5.672,3.95 -8.5,8.5 -9.071,13.32 -0.57,4.25 0.848,8.5 3.969,13.04 1.981,2.55 4.25,5.37 7.653,8.5 4.257,4.53 9.917,8.78 17.859,13.03 9.641,5.68 22.109,10.77 37.699,15.59 17.012,5.11 37.699,9.93 61.801,13.9 20.117,3.39 39.117,5.94 57.82,7.66 2.84,0.28 5.391,0.55 8.231,0.85 45.347,4.52 89.566,3.68 131.519,-2.28 0.289,0 0.289,0 0.571,-0.29 5.949,-0.55 12.187,-1.69 19.562,-3.1 1.41,-0.29 1.98,-1.43 1.7,-2.84 -0.29,-1.13 -1.42,-1.7 -2.555,-1.7 -7.09,1.7 -13.321,2.55 -18.989,3.39 -0.57,0 -0.851,0 -0.851,0.29 l -0.289,0 c -41.379,5.96 -85.039,6.53 -130.11,1.98 -3.121,0 -5.672,-0.27 -8.218,-0.57 -18.711,-1.98 -37.704,-4.52 -57.543,-7.64 -23.809,-3.97 -44.508,-8.79 -61.508,-13.9 -15.313,-4.82 -27.223,-9.64 -36.571,-15.01 -7.652,-4.27 -13.039,-8.22 -17.011,-12.77 -3.117,-2.54 -5.379,-5.38 -7.078,-7.65 -2.563,-3.69 -3.692,-6.8 -3.122,-9.91 0.282,-3.69 2.551,-7.1 7.083,-10.5 5.667,-5.1 11.339,-9.35 17.296,-13.03 17.571,-10.77 38.551,-17.59 62.364,-20.13 10.488,-1.14 20.117,-1.43 29.757,-1.14 l 3.122,0 c 0.847,0 1.98,-0.29 2.828,0 37.992,-0.29 75.121,10.77 110.84,32.04 10.769,5.39 21.543,11.05 32.031,17.28 10.769,6.81 21.539,13.61 32.879,21.54 l 7.66,5.39 c 2.551,1.98 5.383,4.25 8.5,6.25 3.121,2.55 6.519,5.09 9.922,7.64 6.238,4.82 12.468,9.93 18.713,15.02 1.13,0.86 2.27,0.86 3.11,-0.27 0.86,-0.85 0.57,-2.28 -0.28,-3.12 -6.235,-5.11 -12.754,-10.2 -18.703,-15.02 -3.411,-2.55 -6.813,-5.11 -10.211,-7.66 -2.828,-1.98 -5.668,-4.25 -8.5,-6.23 l -7.661,-5.68 c -11.621,-7.64 -22.39,-14.73 -33.16,-21.54 -10.769,-6.23 -21.55,-12.19 -32.32,-17.3 -36,-21.82 -73.98,-32.88 -112.527,-32.88 l -6.243,0 c -7.648,-0.28 -15.589,0 -23.808,0.58" /><path
         id="path164"
         style="fill:#aab4b0;fill-opacity:1;fill-rule:evenodd;stroke:none"
         d="m 1009.03,1635.54 c -0.28,-0.57 -0.28,-1.13 -0.58,-1.42 -9.055,-19.84 -5.94,-35.71 9.65,-47.9 0.57,-0.29 0.85,-0.85 1.7,-1.14 l 0.27,0 c 3.13,1.42 5.97,3.97 7.67,7.94 l 0,0.28 c 0,0.57 0,0.85 0.27,1.14 0.3,0.28 0.3,0.85 0.58,1.41 0,0.29 0,0.57 0.27,0.86 1.43,4.81 1.43,10.48 0.3,16.72 -0.3,1.98 -0.85,3.97 -1.42,5.95 -1.42,4.25 -3.69,7.94 -6.52,11.06 -3.4,3.97 -7.38,5.67 -11.06,5.1 -0.56,0.28 -0.85,0.28 -1.13,0" /><path
         id="path166"
         style="fill:#c3c8c5;fill-opacity:1;fill-rule:evenodd;stroke:none"
         d="m 1008.47,1634.12 c 0.27,0.27 0.27,0.84 0.57,1.42 -4.25,-0.85 -7.66,-3.97 -9.935,-9.08 -1.41,-4.53 -1.976,-9.07 -1.699,-14.17 0,-1.41 0,-3.11 0.289,-5.1 0.563,-2.27 1.133,-4.82 2.262,-7.09 0.573,-1.71 1.703,-3.68 2.563,-5.39 1.13,-1.41 2.27,-3.11 3.4,-4.25 4.25,-4.53 8.5,-6.23 12.75,-5.39 l 1.14,0 c -0.85,0.29 -1.14,0.86 -1.7,1.14 -15.59,12.18 -18.712,28.07 -9.64,47.91" /><path
         id="path168"
         style="fill:#7e7e81;fill-opacity:1;fill-rule:evenodd;stroke:none"
         d="m 1009.88,1633.55 c -0.28,0 -0.28,-0.28 -0.57,-0.28 -3.4,-0.57 -6.23,-3.12 -7.93,-7.66 -1.708,-3.97 -2.267,-8.22 -1.985,-13.04 l 0,-0.56 c 0.277,-1.42 0.277,-2.84 0.57,-4.26 0.555,-2.55 1.125,-4.81 1.975,-6.8 0.57,-1.7 1.42,-3.4 2.55,-5.1 0.85,-1.42 1.99,-2.84 3.11,-3.97 3.41,-3.68 6.82,-5.39 10.5,-4.82 0.57,0.29 1.42,0.29 1.7,0.29 2.27,1.13 4.25,3.4 5.67,6.23 0.28,0.85 0.28,1.42 0.85,1.99 0,0.28 0,0.56 0.28,0.85 0,0.28 0,0.85 0.29,1.13 1.12,4.25 1.42,9.35 0.28,15.31 l -1.42,5.95 c -1.41,3.68 -3.4,7.37 -5.95,10.2 -3.12,3.12 -6.24,4.82 -9.64,4.54 l -0.28,0 z m 5.67,-50.74 c -3.97,0.28 -7.65,2.27 -11.34,5.95 -1.42,1.7 -2.83,3.69 -3.4,4.82 -1.138,1.99 -2.267,3.97 -2.837,5.67 -1.129,2.27 -1.7,4.82 -2.258,7.65 -0.293,1.71 -0.57,3.41 -0.57,4.82 l 0,0.57 c -0.282,5.67 0.277,10.49 1.976,14.74 3.119,7.37 7.659,9.92 11.059,10.49 0.85,0.57 1.42,0.28 1.98,0.28 l 1.99,0 c 3.68,-0.28 7.37,-2.27 10.77,-5.95 3.12,-3.4 5.39,-7.37 6.8,-11.91 l 1.7,-6.23 c 1.14,-6.81 1.14,-12.76 -0.28,-17.86 -0.28,0 -0.28,-0.28 -0.28,-0.57 0,0 -0.29,0 -0.29,-0.28 l 0,-0.57 c -0.28,-0.28 -0.28,-0.57 -0.56,-1.13 l 0,-0.29 c 0,-0.28 0,-0.56 -0.29,-0.85 -1.98,-4.53 -5.1,-7.65 -8.79,-9.07 -0.28,0 -0.56,-0.28 -0.85,-0.28 l -0.85,0.28 c -1.41,-0.56 -2.55,-0.56 -3.68,-0.28" /><path
         id="path170"
         style="fill:#2994d1;fill-opacity:1;fill-rule:nonzero;stroke:none"
         d="m 715.645,684.512 c -0.571,0 -1.418,0 -1.981,0.281 -0.848,0.57 -1.418,1.699 -1.699,2.84 0,0 -2.559,21.258 -3.121,26.64 -3.399,32.598 2.261,59.25 3.972,66.047 -4.261,5.953 -19.851,28.063 -34.3,59.532 -26.082,3.968 -49.332,16.718 -69.172,38.269 -28.629,30.609 -37.699,69.731 -24.938,109.699 11.328,36.28 38.547,65.48 58.11,71.71 1.41,12.76 9.347,70.3 32.308,100.92 5.672,7.37 13.321,11.05 23.25,11.05 37.129,0 92.692,-57.26 94.961,-59.81 0.852,-0.57 1.129,-1.7 1.129,-2.83 0,-1.14 -0.848,-1.99 -1.699,-2.55 -0.57,-0.57 -66.899,-43.94 -84.762,-59.82 -23.238,-20.12 -32.598,-39.68 -28.34,-58.67 12.192,-51.879 123.871,-84.187 133.793,-87.027 18.989,3.117 38.84,5.391 57.828,7.367 55.84,6.242 108.571,11.91 122.461,40.543 8.785,18.418 1.7,45.918 -22.109,84.187 -20.699,32.88 -66.34,59.24 -66.621,59.53 -1.418,0.56 -2.27,2.26 -1.699,3.96 0.281,1.42 1.699,2.56 3.398,2.56 1.422,0 30.051,0.28 59.531,27.49 10.77,10.21 25.231,16.16 39.125,16.16 14.45,0 27.48,-6.24 37.41,-18.14 15.31,-18.14 30.34,-58.4 14.73,-146.266 0,-1.133 1.72,-6.243 3.42,-11.063 8.5,-25.219 26.35,-77.379 3.12,-122.449 -14.18,-27.781 -42.25,-47.91 -82.785,-59.809 -7.371,-2.269 -14.738,-2.55 -21.262,-2.55 l -2.547,-0.29 c -5.953,-5.101 -11.34,-9.351 -16.16,-13.043 l -4.25,-3.117 c -9.07,-7.371 -15.019,-28.633 -17.293,-44.5 -0.277,-1.703 -1.976,-3.121 -3.68,-3.121 l -10.207,0.289 c -71.152,-0.289 -132.941,-11.058 -188.5,-34.019" /><path
         id="path172"
         style="fill:#000000;fill-opacity:1;fill-rule:nonzero;stroke:none"
         d="m 697.789,1167.82 c 36.277,0 92.688,-58.39 92.688,-58.39 0,0 -66.887,-44.22 -85.039,-60.1 -108.848,-94.682 107.718,-152.225 107.718,-152.225 111.121,18.43 244.914,3.122 161.293,137.485 -21.543,34.3 -68.031,60.95 -68.031,60.95 l 0.281,0 c 2.27,0 31.469,0.56 61.52,28.34 9.918,9.36 23.519,15.03 36.851,15.03 34.86,0 70.01,-39.12 48.75,-160.164 -1.98,-10.211 74.27,-146.551 -73.98,-190.488 -8.223,-2.539 -16.442,-2.27 -24.102,-2.539 -7.929,-7.09 -15.3,-12.481 -20.968,-17.024 -13.332,-10.476 -18.153,-40.816 -19,-46.757 l -10.204,0 c -66.898,0 -130.957,-9.93 -189.918,-34.032 -1.14,9.641 -2.269,18.711 -3.121,26.653 -4.25,36.847 3.969,66.609 3.969,66.609 0,0 -18.707,24.961 -35.43,62.078 -22.679,3.121 -46.777,13.332 -69.168,37.141 -68.878,74.261 -0.281,168.943 34.02,176.313 0,0 6.52,68.03 31.738,101.48 5.391,6.81 12.192,9.64 20.133,9.64 m 0,7.37 c -10.492,0 -19.562,-4.54 -25.801,-12.76 -22.39,-29.76 -30.609,-83.62 -32.879,-100.06 -20.121,-7.94 -46.492,-36.28 -58.113,-73.425 -13.039,-41.379 -3.969,-81.629 25.801,-113.379 19.84,-21.539 43.371,-34.578 69.16,-38.839 13.609,-28.911 27.781,-49.891 32.891,-56.969 -1.989,-9.063 -6.809,-34.86 -3.41,-66.051 0.57,-5.391 1.14,-11.059 1.992,-17.289 l 1.129,-9.359 c 0.289,-2.262 1.418,-4.243 3.398,-5.383 1.141,-0.559 2.27,-0.848 3.691,-0.848 0.848,0 1.7,0 2.551,0.559 55.559,22.398 116.789,33.461 187.367,33.461 l 10.204,0 c 3.687,0 6.519,2.55 7.089,5.949 2.27,16.441 8.219,36 16.161,42.23 l 4.25,3.121 c 4.539,3.7 9.636,7.649 15.308,12.481 l 1.129,0 c 6.801,0.277 14.461,0.277 22.402,2.539 41.381,12.48 70.011,33.168 85.031,62.078 23.82,46.223 5.67,99.5 -3.11,125.012 -1.42,3.969 -2.84,8.219 -3.12,9.93 15.59,88.722 0,129.822 -15.59,148.532 -10.77,12.75 -24.66,19.56 -40.25,19.56 -14.742,0 -30.05,-6.24 -41.672,-17.01 -28.351,-26.36 -55.558,-26.65 -56.699,-26.65 -3.402,0 -6.23,-2.26 -7.082,-5.38 -0.847,-3.12 0.281,-6.52 3.11,-7.94 0.57,-0.28 45.363,-26.08 65.492,-58.39 22.668,-36.574 30.039,-63.781 21.82,-80.793 -13.043,-26.648 -64.633,-32.308 -119.621,-38.269 -18.711,-1.969 -37.98,-4.25 -56.98,-7.36 -13.598,3.957 -119.051,35.141 -130.391,84.18 -4.25,17.582 5.101,36.002 26.93,55.282 17.863,15.3 83.902,58.96 84.472,59.24 1.989,1.42 3.117,3.12 3.399,5.39 0,1.98 -0.559,4.25 -1.981,5.67 -2.551,2.55 -58.961,60.94 -98.078,60.94" /><path
         id="path174"
         style="fill:#353635;fill-opacity:1;fill-rule:nonzero;stroke:none"
         d="m 962.828,545.898 c 0,0 44.502,-124.16 66.332,-162.71 21.83,-38.551 30.05,-43.09 53.58,-23.239 23.81,19.84 46.48,33.449 14.45,119.899 -31.75,86.461 -39.68,122.179 -59.24,116.789 -19.84,-5.668 -68.884,-19.84 -75.122,-50.739" /><path
         id="path176"
         style="fill:#272323;fill-opacity:1;fill-rule:nonzero;stroke:none"
         d="m 965.766,546.094 c 3.781,-10.481 45.294,-125.18 65.864,-161.5 12.24,-21.621 20.55,-33.328 29.4,-33.328 4.91,0 10.86,3.226 19.88,10.859 l 3.09,2.539 c 21.73,17.891 40.49,33.352 10.53,114.191 -5.75,15.668 -10.71,29.649 -15.11,42.028 -17.37,48.902 -26.08,73.441 -37.79,73.441 -0.93,0 -1.89,-0.121 -2.93,-0.429 -18.19,-5.18 -66.321,-18.911 -72.934,-47.801 m 95.264,-200.52 0,0 c -11.69,0 -20.73,12.199 -34.34,36.211 -21.69,38.328 -64.713,158.078 -66.534,163.168 -0.168,0.492 -0.211,1 -0.109,1.5 6.609,32.77 57.843,47.391 77.123,52.902 1.54,0.43 3.04,0.649 4.46,0.649 15.72,0 23.74,-22.609 43.13,-77.219 4.39,-12.351 9.35,-26.34 15.09,-41.949 31.35,-84.613 11.15,-101.262 -12.25,-120.543 l -3.05,-2.527 c -10.26,-8.641 -17.08,-12.192 -23.52,-12.192" /><path
         id="path178"
         style="fill:#ffee00;fill-opacity:1;fill-rule:evenodd;stroke:none"
         d="m 965.945,941.895 c 16.16,-2.551 26.071,-4.809 30.332,-7.36 4.253,-2.551 6.243,-4.832 6.803,-5.68 0.57,-0.558 1.14,-1.128 1.14,-1.699 0.85,-3.121 0.85,-6.793 -0.57,-11.062 -8.502,-18.688 -22.115,-34 -40.822,-44.778 -5.383,-3.691 -10.492,-6.8 -16.16,-9.363 -28.34,19.293 -43.93,38.551 -47.051,57.832 -1.699,7.942 0.281,12.762 5.668,15.309 4.82,2.551 55.844,4.25 60.66,6.801" /><path
         id="path180"
         style="fill:#000000;fill-opacity:1;fill-rule:nonzero;stroke:none"
         d="m 966.133,940.43 c -3.211,-1.2 -13.781,-2.078 -30.36,-3.34 -12.332,-0.949 -27.671,-2.11 -29.832,-3.238 -4.968,-2.372 -6.476,-6.59 -4.937,-13.774 3.039,-18.777 18.449,-37.769 45.801,-56.508 4.718,2.192 9.449,4.969 15.218,8.91 18.219,10.489 31.758,25.34 40.327,44.211 1.16,3.52 1.34,6.95 0.49,10.11 l -0.05,0.359 c -0.05,0.039 -0.47,0.461 -0.72,0.692 -0.76,1.117 -2.765,3.207 -6.527,5.457 -3.828,2.32 -12.91,4.5 -29.41,7.121 m -19.602,-80.102 -0.66,0.453 c -28.437,19.36 -44.476,39.117 -47.656,58.778 -1.793,8.382 0.316,13.91 6.457,16.82 2.441,1.301 13.301,2.191 30.883,3.531 12.289,0.942 27.59,2.102 29.726,3.231 l 0.422,0.23 0.461,-0.082 c 17.367,-2.719 26.598,-5 30.84,-7.559 5.056,-3.011 6.926,-5.589 7.256,-6.082 0.5,-0.476 1.25,-1.218 1.35,-2.269 0.96,-3.649 0.75,-7.578 -0.62,-11.731 -8.877,-19.546 -22.806,-34.828 -41.459,-45.57 -6.117,-4.187 -11.168,-7.109 -16.277,-9.418" /><path
         id="path182"
         style="fill:#646666;fill-opacity:1;fill-rule:nonzero;stroke:none"
         d="m 907.555,472.766 -90.711,-17.012 27.5,-107.149 83.34,15.309 -20.129,108.852 z m -54.43,-96.942 -4.25,54.418 34.301,12.473 16.437,-64.91" /><path
         id="path184"
         style="fill:#272323;fill-opacity:1;fill-rule:nonzero;stroke:none"
         d="m 851.863,428.32 3.871,-49.55 40.282,1.73 -14.821,58.48 -29.332,-10.66 z M 853.125,373 c -1.469,0 -2.711,1.121 -2.828,2.609 l -4.25,54.411 c -0.102,1.281 0.656,2.449 1.859,2.89 l 34.297,12.469 c 0.762,0.25 1.594,0.223 2.301,-0.16 0.699,-0.379 1.223,-1.028 1.422,-1.797 l 16.437,-64.91 c 0.211,-0.821 0.032,-1.703 -0.476,-2.403 -0.512,-0.679 -1.301,-1.097 -2.153,-1.14 L 853.246,373 l -0.121,0 z m -32.789,80.531 26.098,-101.672 77.929,14.321 -19.078,103.269 -84.949,-15.918 z m 24,-107.761 c -1.27,0 -2.41,0.859 -2.742,2.128 l -27.5,107.161 c -0.188,0.75 -0.071,1.55 0.351,2.222 0.43,0.66 1.102,1.117 1.871,1.25 l 90.719,17.028 c 0.738,0.16 1.5,-0.008 2.121,-0.45 0.629,-0.418 1.047,-1.089 1.188,-1.828 l 20.121,-108.859 c 0.14,-0.742 -0.031,-1.5 -0.461,-2.133 -0.418,-0.609 -1.078,-1.039 -1.82,-1.168 L 844.855,345.82 c -0.171,-0.039 -0.351,-0.05 -0.519,-0.05" /><path
         id="path186"
         style="fill:#c8c8c8;fill-opacity:1;fill-rule:evenodd;stroke:none"
         d="m 1436.49,1227.91 c 0,-13.89 -7.65,-24.93 -17.29,-24.93 -9.36,0 -17,11.04 -17,24.93 0,13.89 7.64,24.95 17,24.95 9.64,0 17.29,-11.06 17.29,-24.95" /><path
         id="path188"
         style="fill:#353635;fill-opacity:1;fill-rule:nonzero;stroke:none"
         d="m 1419.21,1249.32 c -7.3,0 -13.47,-9.8 -13.47,-21.4 0,-11.6 6.17,-21.4 13.47,-21.4 7.58,0 13.74,9.6 13.74,21.4 0,11.79 -6.16,21.4 -13.74,21.4 m 0,-49.89 c -11.52,0 -20.56,12.51 -20.56,28.49 0,15.97 9.04,28.49 20.56,28.49 11.68,0 20.83,-12.52 20.83,-28.49 0,-15.98 -9.15,-28.49 -20.83,-28.49" /><path
         id="path190"
         style="fill:#c8c8c8;fill-opacity:1;fill-rule:evenodd;stroke:none"
         d="m 1436.49,1166.12 c 0,-13.61 -7.65,-24.94 -17.29,-24.94 -9.36,0 -17,11.33 -17,24.94 0,13.89 7.64,25.23 17,25.23 9.64,0 17.29,-11.34 17.29,-25.23" /><path
         id="path192"
         style="fill:#353635;fill-opacity:1;fill-rule:nonzero;stroke:none"
         d="m 1419.21,1187.8 c -7.3,0 -13.47,-9.93 -13.47,-21.68 0,-11.6 6.17,-21.4 13.47,-21.4 7.45,0 13.74,9.8 13.74,21.4 0,11.75 -6.29,21.68 -13.74,21.68 m 0,-50.17 c -11.34,0 -20.56,12.78 -20.56,28.49 0,15.86 9.22,28.77 20.56,28.77 11.68,0 20.83,-12.64 20.83,-28.77 0,-15.71 -9.35,-28.49 -20.83,-28.49" /><path
         id="path194"
         style="fill:#c8c8c8;fill-opacity:1;fill-rule:evenodd;stroke:none"
         d="m 1436.49,1104.32 c 0,-13.61 -7.65,-24.94 -17.29,-24.94 -9.36,0 -17,11.33 -17,24.94 0,13.89 7.64,25.23 17,25.23 9.64,0 17.29,-11.34 17.29,-25.23" /><path
         id="path196"
         style="fill:#353635;fill-opacity:1;fill-rule:nonzero;stroke:none"
         d="m 1419.21,1126.01 c -7.3,0 -13.47,-9.93 -13.47,-21.68 0,-11.61 6.17,-21.41 13.47,-21.41 7.45,0 13.74,9.8 13.74,21.41 0,11.75 -6.29,21.68 -13.74,21.68 m 0,-50.18 c -11.34,0 -20.56,12.79 -20.56,28.5 0,15.86 9.22,28.77 20.56,28.77 11.68,0 20.83,-12.64 20.83,-28.77 0,-15.71 -9.35,-28.5 -20.83,-28.5" /><path
         id="path198"
         style="fill:#c8c8c8;fill-opacity:1;fill-rule:evenodd;stroke:none"
         d="m 1436.49,1042.81 c 0,-13.89 -7.65,-25.23 -17.29,-25.23 -9.36,0 -17,11.34 -17,25.23 0,13.61 7.64,24.94 17,24.94 9.64,0 17.29,-11.33 17.29,-24.94" /><path
         id="path200"
         style="fill:#353635;fill-opacity:1;fill-rule:nonzero;stroke:none"
         d="m 1419.21,1064.21 c -7.3,0 -13.47,-9.8 -13.47,-21.4 0,-11.75 6.17,-21.68 13.47,-21.68 7.45,0 13.74,9.93 13.74,21.68 0,11.6 -6.29,21.4 -13.74,21.4 m 0,-50.17 c -11.34,0 -20.56,12.91 -20.56,28.77 0,15.71 9.22,28.49 20.56,28.49 11.48,0 20.83,-12.78 20.83,-28.49 0,-16.13 -9.15,-28.77 -20.83,-28.77" /><path
         id="path202"
         style="fill:#c8c8c8;fill-opacity:1;fill-rule:evenodd;stroke:none"
         d="m 1436.49,981.016 c 0,-13.891 -7.65,-25.231 -17.29,-25.231 -9.36,0 -17,11.34 -17,25.231 0,13.609 7.64,24.944 17,24.944 9.64,0 17.29,-11.335 17.29,-24.944" /><path
         id="path204"
         style="fill:#353635;fill-opacity:1;fill-rule:nonzero;stroke:none"
         d="m 1419.21,1002.42 c -7.3,0 -13.47,-9.803 -13.47,-21.404 0,-11.75 6.17,-21.688 13.47,-21.688 7.45,0 13.74,9.938 13.74,21.688 0,11.601 -6.29,21.404 -13.74,21.404 m 0,-50.182 c -11.34,0 -20.56,12.91 -20.56,28.778 0,15.711 9.22,28.494 20.56,28.494 11.48,0 20.83,-12.783 20.83,-28.494 0,-16.129 -9.15,-28.778 -20.83,-28.778" /><path
         id="path206"
         style="fill:#c8c8c8;fill-opacity:1;fill-rule:evenodd;stroke:none"
         d="m 1427.14,1192.2 c 0,-14.46 -3.12,-26.08 -6.8,-26.08 -3.69,0 -6.8,11.62 -6.8,26.08 0,14.46 3.11,26.08 6.8,26.08 3.68,0 6.8,-11.62 6.8,-26.08" /><path
         id="path208"
         style="fill:#353635;fill-opacity:1;fill-rule:nonzero;stroke:none"
         d="m 1420.34,1213.7 c -1.43,-2.93 -3.26,-10.38 -3.26,-21.5 0,-11.13 1.83,-18.57 3.26,-21.51 1.42,2.94 3.25,10.39 3.25,21.51 0,11.11 -1.83,18.57 -3.25,21.5 m 0,-51.13 c -9.85,0 -10.35,24.68 -10.35,29.63 0,4.94 0.5,29.62 10.35,29.62 9.84,0 10.34,-24.68 10.34,-29.62 0,-4.95 -0.5,-29.63 -10.34,-29.63" /><path
         id="path210"
         style="fill:#c8c8c8;fill-opacity:1;fill-rule:evenodd;stroke:none"
         d="m 1427.14,1130.4 c 0,-14.46 -3.12,-26.08 -6.8,-26.08 -3.69,0 -6.8,11.62 -6.8,26.08 0,14.46 3.11,26.08 6.8,26.08 3.68,0 6.8,-11.62 6.8,-26.08" /><path
         id="path212"
         style="fill:#353635;fill-opacity:1;fill-rule:nonzero;stroke:none"
         d="m 1420.34,1151.91 c -1.43,-2.93 -3.26,-10.38 -3.26,-21.5 0,-11.13 1.83,-18.57 3.26,-21.51 1.42,2.94 3.25,10.39 3.25,21.51 0,11.11 -1.83,18.56 -3.25,21.5 m 0,-51.13 c -9.85,0 -10.35,24.68 -10.35,29.63 0,4.94 0.5,29.62 10.35,29.62 9.84,0 10.34,-24.68 10.34,-29.62 0,-4.95 -0.5,-29.63 -10.34,-29.63" /><path
         id="path214"
         style="fill:#c8c8c8;fill-opacity:1;fill-rule:evenodd;stroke:none"
         d="m 1427.14,1068.61 c 0,-14.17 -3.12,-25.8 -6.8,-25.8 -3.69,0 -6.8,11.63 -6.8,25.8 0,14.46 3.11,26.08 6.8,26.08 3.68,0 6.8,-11.62 6.8,-26.08" /><path
         id="path216"
         style="fill:#353635;fill-opacity:1;fill-rule:nonzero;stroke:none"
         d="m 1420.34,1090.11 c -1.43,-2.93 -3.26,-10.38 -3.26,-21.5 0,-10.98 1.83,-18.33 3.26,-21.24 1.42,2.91 3.25,10.27 3.25,21.24 0,11.11 -1.83,18.57 -3.25,21.5 m 0,-50.84 c -10.06,0 -10.35,26.33 -10.35,29.34 0,4.94 0.5,29.62 10.35,29.62 9.84,0 10.34,-24.68 10.34,-29.62 0,-3.01 -0.29,-29.34 -10.34,-29.34" /><path
         id="path218"
         style="fill:#c8c8c8;fill-opacity:1;fill-rule:evenodd;stroke:none"
         d="m 1427.14,1006.81 c 0,-14.169 -3.12,-25.798 -6.8,-25.798 -3.69,0 -6.8,11.629 -6.8,25.798 0,14.46 3.11,26.08 6.8,26.08 3.68,0 6.8,-11.62 6.8,-26.08" /><path
         id="path220"
         style="fill:#353635;fill-opacity:1;fill-rule:nonzero;stroke:none"
         d="m 1420.34,1028.32 c -1.43,-2.93 -3.26,-10.39 -3.26,-21.5 0,-10.984 1.83,-18.336 3.26,-21.234 1.42,2.898 3.25,10.258 3.25,21.234 0,11.11 -1.83,18.57 -3.25,21.5 m 0,-50.843 c -10.06,0 -10.35,26.323 -10.35,29.343 0,4.93 0.5,29.61 10.35,29.61 9.84,0 10.34,-24.68 10.34,-29.61 0,-3.02 -0.29,-29.343 -10.34,-29.343" /><path
         id="path222"
         style="fill:#c8c8c8;fill-opacity:1;fill-rule:evenodd;stroke:none"
         d="m 1412.69,1424.07 c -39.4,0 -71.44,-37.98 -71.44,-85.04 0,-47.05 32.04,-85.04 71.44,-85.04 39.38,0 71.43,37.99 71.43,85.04 0,47.06 -32.05,85.04 -71.43,85.04 m 4.25,-149.67 c -23.53,0 -53.01,13.04 -54.71,54.99 -1.98,44.79 23.53,73.14 50.46,73.14 34.02,0 56.69,-29.48 54.7,-63.5 -2,-41.1 -27.2,-64.63 -50.45,-64.63" /><path
         id="path224"
         style="fill:#353635;fill-opacity:1;fill-rule:nonzero;stroke:none"
         d="m 1412.69,1398.98 c -10.48,0 -20.77,-4.75 -29.02,-13.37 -12.56,-13.12 -18.92,-33.04 -17.9,-56.06 1.53,-38.06 27.44,-51.6 51.17,-51.6 21.61,0 45.07,22.91 46.92,61.25 0.99,17.01 -4.54,33.2 -15.16,44.46 -9.47,10.02 -21.91,15.32 -36.01,15.32 m 4.25,-128.12 c -25.78,0 -56.51,15.29 -58.25,58.39 -1.12,24.96 5.94,46.72 19.86,61.27 9.59,10.02 21.72,15.55 34.14,15.55 15.86,0 30.49,-6.23 41.16,-17.55 11.95,-12.66 18.19,-30.79 17.08,-49.7 -2.13,-44.12 -29.4,-67.96 -53.99,-67.96 m -4.25,149.66 c -37.43,0 -67.89,-36.55 -67.89,-81.48 0,-44.95 30.46,-81.5 67.89,-81.5 37.43,0 67.88,36.55 67.88,81.5 0,44.93 -30.45,81.48 -67.88,81.48 m 0,-170.07 c -41.35,0 -74.98,39.75 -74.98,88.59 0,48.84 33.63,88.57 74.98,88.57 41.35,0 74.98,-39.73 74.98,-88.57 0,-48.84 -33.63,-88.59 -74.98,-88.59" /><path
         id="path226"
         style="fill:#c8c8c8;fill-opacity:1;fill-rule:evenodd;stroke:none"
         d="m 1443.59,1238.12 -49.89,-7.09 -7.95,60.38 65.48,3.12" /><path
         id="path228"
         style="fill:#353635;fill-opacity:1;fill-rule:nonzero;stroke:none"
         d="m 1389.77,1288.06 6.96,-53.01 43.7,6.2 6.73,49.54 -57.39,-2.73 z m 0.87,-61.04 -8.91,67.75 73.59,3.5 -8.59,-63.28" /><path
         id="path230"
         style="fill:#c8c8c8;fill-opacity:1;fill-rule:evenodd;stroke:none"
         d="m 1405.6,1272.42 c 0,-2.83 -1.97,-5.1 -4.25,-5.1 -2.26,0 -4.25,2.27 -4.25,5.1 0,2.83 1.99,5.1 4.25,5.1 2.28,0 4.25,-2.27 4.25,-5.1" /><path
         id="path232"
         style="fill:#353635;fill-opacity:1;fill-rule:nonzero;stroke:none"
         d="m 1401.35,1263.77 c -4.3,0 -7.79,3.88 -7.79,8.66 0,4.75 3.49,8.63 7.79,8.63 4.3,0 7.79,-3.88 7.79,-8.63 0,-4.78 -3.49,-8.66 -7.79,-8.66" /><path
         id="path234"
         style="fill:#c8c8c8;fill-opacity:1;fill-rule:evenodd;stroke:none"
         d="m 1436.49,1272.42 c 0,-2.83 -2.54,-5.1 -5.65,-5.1 -3.14,0 -5.69,2.27 -5.69,5.1 0,2.83 2.55,5.1 5.69,5.1 3.11,0 5.65,-2.27 5.65,-5.1" /><path
         id="path236"
         style="fill:#353635;fill-opacity:1;fill-rule:nonzero;stroke:none"
         d="m 1430.83,1273.98 c -1.15,0 -2.13,-0.71 -2.13,-1.55 0,-1.7 4.25,-1.7 4.25,0 0,0.84 -0.97,1.55 -2.12,1.55 m 0,-10.21 c -5.08,0 -9.22,3.89 -9.22,8.66 0,4.75 4.14,8.64 9.22,8.64 5.08,0 9.21,-3.89 9.21,-8.64 0,-4.77 -4.13,-8.66 -9.21,-8.66" /><path
         id="path238"
         style="fill:#c8c8c8;fill-opacity:1;fill-rule:evenodd;stroke:none"
         d="m 1418.36,1412.73 c 0,-1.69 -2.28,-3.12 -5.11,-3.12 -2.84,0 -5.39,1.43 -5.39,3.12 0,1.98 2.55,3.4 5.39,3.4 2.83,0 5.11,-1.42 5.11,-3.4" /><path
         id="path240"
         style="fill:#353635;fill-opacity:1;fill-rule:nonzero;stroke:none"
         d="m 1413.25,1406.07 c -5,0 -8.93,2.93 -8.93,6.67 0,3.95 3.84,6.94 8.93,6.94 4.93,0 8.65,-2.99 8.65,-6.94 0,-3.74 -3.8,-6.67 -8.65,-6.67" /><path
         id="path242"
         style="fill:#c8c8c8;fill-opacity:1;fill-rule:nonzero;stroke:none"
         d="m 1423.18,781.172 c -34.03,0.851 -62.66,30.898 -60.1,64.629 2.83,40.82 38.55,64.062 61.8,63.5 l 12.75,0 0,20.41 c -50.74,-0.289 -83.63,-37.418 -84.75,-83.629 -0.86,-46.769 37.12,-85.59 76.53,-86.441 l 8.22,0 0,21.812 c 0,0 -14.18,-0.281 -14.45,-0.281" /><path
         id="path244"
         style="fill:#353635;fill-opacity:1;fill-rule:nonzero;stroke:none"
         d="m 1432.67,924.59 c -43.24,-2.488 -73.75,-34.192 -74.83,-78.61 -0.05,-2.41 0.02,-4.769 0.18,-7.082 -0.11,2.411 -0.07,4.84 0.11,7.274 3.06,43.84 40.91,68.109 65.91,68.109 l 8.63,-0.011 0,10.32 z m -72.48,-99.391 c 8.75,-35.09 40.27,-59.988 69.34,-60.609 l 3.14,0 0,11.82 c -4.13,-0.101 -9.33,-0.199 -9.49,-0.199 -18.2,0.449 -35.72,8.629 -48.22,22.461 -7.11,7.867 -12.11,16.93 -14.77,26.527 m 82.4,-70.519 -13.17,0 c -44.35,0.949 -82.38,43.699 -81.51,91.492 1.25,51.019 38.98,88.207 89.69,88.508 l 4.99,0.031 0,-30.359 -17.73,0 c -22.51,0 -54.29,-22.422 -56.83,-58.891 -1.09,-14.481 3.99,-28.731 14.29,-40.141 10.69,-11.8 25.62,-18.808 40.98,-19.191 0.46,0.012 14.23,0.301 14.23,0.301 l 5.06,0.082" /><path
         id="path246"
         style="fill:#c8c8c8;fill-opacity:1;fill-rule:nonzero;stroke:none"
         d="m 1437.91,691.316 c 42.8,-20.136 90.71,-7.089 107.43,28.622 0.29,0.582 0.29,1.14 0.58,1.699 l -18.71,8.222 c -10.49,-20.41 -34.31,-39.39 -71.72,-23.8 -40.81,17.007 -47.9,54.14 -37.41,78.507 l -29.49,11.622 c -18.99,-43.071 7.65,-85.309 49.32,-104.872" /><path
         id="path248"
         style="fill:#353635;fill-opacity:1;fill-rule:nonzero;stroke:none"
         d="m 1390.54,791.621 c -15.97,-41.211 12.03,-79.789 48.88,-97.109 12.71,-5.981 26.51,-9.129 39.9,-9.129 27.63,0 51.19,13.129 62.01,34.398 l -12.58,5.532 c -6.06,-10.422 -20.45,-28.52 -47.09,-28.52 -8.7,0 -17.97,2.02 -27.54,5.988 -24.16,10.071 -34.81,25.949 -39.49,37.489 -5.53,13.64 -5.91,28.863 -1.15,42.312 l -22.94,9.039 z m 88.79,-113.328 -0.01,0 c -14.42,0 -29.27,3.387 -42.91,9.809 -40.9,19.191 -71.57,62.98 -51.06,109.531 l 1.38,3.097 36.04,-14.21 -1.45,-3.348 c -5.37,-12.512 -5.42,-27.172 -0.13,-40.231 5.99,-14.769 18.32,-26.39 35.67,-33.609 8.69,-3.633 17.04,-5.449 24.8,-5.449 25.46,0 38.13,19.297 42.4,27.597 l 1.52,2.969 25.17,-11.047 -1.67,-3.332 c -0.1,-0.507 -0.24,-1.09 -0.55,-1.711 -11.56,-24.687 -38.1,-40.066 -69.2,-40.066" /><path
         id="path250"
         style="fill:#c8c8c8;fill-opacity:1;fill-rule:evenodd;stroke:none"
         d="m 1400.78,960.32 50.17,6.243 6.81,-60.379 -65.77,-1.993" /><path
         id="path252"
         style="fill:#353635;fill-opacity:1;fill-rule:nonzero;stroke:none"
         d="m 1403.87,957.141 -7.71,-49.282 57.64,1.75 -5.97,52.989 -43.96,-5.457 z m -16.04,-56.621 9.87,63 56.38,6.988 7.63,-67.738" /><path
         id="path254"
         style="fill:#c8c8c8;fill-opacity:1;fill-rule:evenodd;stroke:none"
         d="m 1438.19,923.477 c 0,2.269 1.98,4.25 4.26,3.961 2.26,0 4.25,-1.993 4.25,-4.243 -0.29,-2.269 -1.99,-4.257 -4.25,-4.257 -2.56,0 -4.26,1.988 -4.26,4.539" /><path
         id="path256"
         style="fill:#353635;fill-opacity:1;fill-rule:nonzero;stroke:none"
         d="m 1442.45,915.391 c -4.44,0 -7.8,3.492 -7.8,8.089 0,4.09 3.38,7.532 7.37,7.532 4.65,-0.012 8.22,-3.602 8.22,-7.832 -0.55,-4.629 -3.88,-7.789 -7.79,-7.789" /><path
         id="path258"
         style="fill:#c8c8c8;fill-opacity:1;fill-rule:evenodd;stroke:none"
         d="m 1409.57,923.477 c 0.27,2.269 1.97,4.25 4.25,3.961 2.26,0 4.25,-1.993 4.25,-4.243 0,-2.269 -1.99,-4.257 -4.25,-4.257 -2.28,0 -4.25,1.988 -4.25,4.539" /><path
         id="path260"
         style="fill:#353635;fill-opacity:1;fill-rule:nonzero;stroke:none"
         d="m 1413.82,915.391 c -4.3,0 -7.79,3.621 -7.79,8.089 0.53,4.559 3.62,7.532 7.36,7.532 4.65,-0.012 8.22,-3.602 8.22,-7.832 0,-4.219 -3.57,-7.789 -7.79,-7.789" /><path
         id="path262"
         style="fill:#c8c8c8;fill-opacity:1;fill-rule:evenodd;stroke:none"
         d="m 1393.98,770.969 c 0,1.976 1.43,3.398 3.4,3.398 1.69,0 3.12,-1.699 3.12,-3.398 0,-1.703 -1.43,-3.403 -3.41,-3.121 -1.68,0 -3.11,1.418 -3.11,3.121" /><path
         id="path264"
         style="fill:#353635;fill-opacity:1;fill-rule:nonzero;stroke:none"
         d="m 1397.53,764.277 -0.93,0.078 -0.06,0 c -3.15,0 -6.11,2.973 -6.11,6.614 0,3.949 2.99,6.937 6.95,6.937 3.62,0 6.66,-3.179 6.66,-6.937 0,-3.684 -2.92,-6.692 -6.51,-6.692" /><path
         id="path266"
         style="fill:#000000;fill-opacity:1;fill-rule:nonzero;stroke:none"
         d="m 778.855,1365.68 c 0,0 -11.91,-23.24 -40.82,-25.51 -28.91,-2.55 -30.898,-5.39 -32.597,-11.06 0,0 -3.403,12.19 15.878,16.16 0,0 -17.289,5.1 -24.949,-5.1 0,0 0,6.52 12.192,10.49 0,0 -8.223,7.93 -21.262,0.85 0,0 4.82,6.23 18.43,8.5 13.89,2.27 38.55,-6.24 51.019,-2.27 12.473,4.25 22.391,6.81 22.109,7.94" /><path
         id="path268"
         style="fill:#d68d86;fill-opacity:1;fill-rule:nonzero;stroke:none"
         d="m 787.078,1383.54 c 0,0 -12.758,50.73 -44.5,62.92 -31.75,12.2 -79.367,-40.53 -52.156,-58.1 26.93,-17.59 89.289,-38.84 96.656,-4.82" /><path
         id="path270"
         style="fill:#ffffff;fill-opacity:1;fill-rule:nonzero;stroke:none"
         d="m 787.078,1385.8 c 8.223,-19.84 -42.797,-51.3 -69.726,-41.94 -26.93,9.35 -40.25,41.67 -13.614,67.46 26.653,25.8 68.032,11.91 83.34,-25.52" /><path
         id="path272"
         style="fill:#447c94;fill-opacity:1;fill-rule:nonzero;stroke:none"
         d="m 737.754,1428.61 c 16.719,4.54 49.039,-32.31 48.762,-39.4 -0.571,-12.76 -7.661,-24.95 -19.563,-31.75 -18.711,-10.77 -42.238,-4.25 -53.008,14.46 -10.492,18.71 -3.972,42.23 14.739,53.01 2.832,1.7 5.949,2.83 9.07,3.68" /><path
         id="path274"
         style="fill:#224451;fill-opacity:1;fill-rule:nonzero;stroke:none"
         d="m 774.32,1403.95 c 7.371,-13.32 2.832,-30.34 -10.488,-37.7 -13.32,-7.66 -30.332,-3.12 -37.98,10.2 -7.372,13.6 -2.84,30.32 10.488,37.98 13.32,7.66 30.332,2.84 37.98,-10.48" /><path
         id="path276"
         style="fill:#000000;fill-opacity:1;fill-rule:nonzero;stroke:none"
         d="m 765.535,1400.26 c 4.543,-7.94 1.703,-18.14 -6.519,-22.68 -7.938,-4.53 -18.137,-1.7 -22.68,6.24 -4.527,7.94 -1.699,18.14 6.242,22.68 8.219,4.53 18.418,1.7 22.957,-6.24" /><path
         id="path278"
         style="fill:#ffffff;fill-opacity:1;fill-rule:nonzero;stroke:none"
         d="m 770.355,1403.66 c 2.551,-4.25 1.129,-9.35 -3.121,-11.91 -4.25,-2.26 -9.347,-0.85 -11.898,3.41 -2.27,4.25 -0.852,9.35 3.398,11.9 3.973,2.27 9.352,0.85 11.621,-3.4" /><path
         id="path280"
         style="fill:#000000;fill-opacity:1;fill-rule:nonzero;stroke:none"
         d="m 740.875,1430.02 c -15.871,2.84 -29.199,-4.82 -40.82,-13.89 -5.102,-1.13 -11.34,-0.27 -14.742,6.8 0,0 -0.278,-12.75 9.64,-11.05 -3.398,-2.84 -6.801,-5.67 -10.211,-8.22 -4.808,-1.14 -10.199,-0.85 -14.168,5.38 0,0 2.27,-13.32 9.071,-13.89 -5.95,-3.68 -12.75,-1.7 -17.86,1.42 0,0 6.52,-8.78 15.59,-20.41 3.41,-4.82 5.668,-11.05 10.777,-15.87 9.922,-9.07 22.672,-16.73 37.703,-18.71 0,0 -22.679,6.53 -31.472,28.06 -9.07,21.26 5.672,46.77 32.32,52.16 26.93,5.67 45.922,-10.21 60.371,-36 0,0 -9.351,36.85 -46.199,44.22" /><path
         id="path282"
         style="fill:#000000;fill-opacity:1;fill-rule:nonzero;stroke:none"
         d="m 904.434,1363.69 c 0,0 17.011,-26.93 47.339,-29.2 30.61,-2.26 28.911,-3.11 30.903,-9.07 0,0 3.398,13.04 -17.012,16.73 0,0 18.141,5.95 26.359,-5.11 0,0 0,6.81 -13.039,11.06 0,0 8.789,8.5 22.676,1.13 0,0 -5.387,6.52 -19.836,8.79 -14.461,2.55 -40.82,-6.8 -54.148,-2.55 -13.043,4.25 -23.524,6.8 -23.242,8.22" /><path
         id="path284"
         style="fill:#d68d86;fill-opacity:1;fill-rule:nonzero;stroke:none"
         d="m 895.359,1382.97 c 0,0 13.321,53.29 46.774,66.33 33.449,13.32 84.467,-42.24 55.84,-60.94 -28.633,-19 -94.672,-41.39 -102.614,-5.39" /><path
         id="path286"
         style="fill:#ffffff;fill-opacity:1;fill-rule:nonzero;stroke:none"
         d="m 895.359,1384.67 c -8.5,-20.98 45.922,-53.86 74.551,-43.65 28.352,10.2 42.24,44.5 13.61,71.43 -28.348,27.21 -72.29,12.19 -88.161,-27.78" /><path
         id="path288"
         style="fill:#447c94;fill-opacity:1;fill-rule:nonzero;stroke:none"
         d="m 952.906,1425.77 c 14.168,-0.85 27.5,-8.79 28.91,-10.77 9.071,-12.19 10.489,-28.92 2.27,-42.8 -10.77,-18.43 -34.301,-24.38 -52.441,-13.61 -18.43,10.49 -24.661,34.3 -13.891,52.72 5.391,9.07 20.98,15.31 35.152,14.46" /><path
         id="path290"
         style="fill:#224451;fill-opacity:1;fill-rule:nonzero;stroke:none"
         d="m 965.664,1415 c 13.32,-7.94 17.859,-25.23 9.922,-38.55 -7.941,-13.32 -24.941,-17.86 -38.551,-10.21 -13.32,7.94 -17.859,25.23 -9.922,38.56 7.942,13.6 24.942,18.14 38.551,10.2" /><path
         id="path292"
         style="fill:#000000;fill-opacity:1;fill-rule:nonzero;stroke:none"
         d="m 960.563,1408.77 c 8.789,-5.11 11.621,-16.45 6.519,-25.23 -5.102,-8.79 -16.441,-11.63 -25.23,-6.52 -8.789,5.09 -11.899,16.43 -6.52,25.23 5.102,8.79 16.441,11.91 25.231,6.52" /><path
         id="path294"
         style="fill:#ffffff;fill-opacity:1;fill-rule:nonzero;stroke:none"
         d="m 968.777,1407.91 c 4.25,-2.82 5.672,-8.21 3.121,-12.75 -2.269,-4.25 -7.937,-5.68 -12.468,-3.11 -4.262,2.54 -5.672,8.22 -3.121,12.47 2.55,4.25 8.218,5.94 12.468,3.39" /><path
         id="path296"
         style="fill:#000000;fill-opacity:1;fill-rule:nonzero;stroke:none"
         d="m 944.117,1432.01 c 16.719,3.4 31.18,-4.82 43.367,-14.46 5.672,-1.13 12.192,-0.28 15.586,7.37 0,0 0.59,-13.32 -10.195,-11.62 3.691,-3.12 7.375,-6.23 10.785,-8.79 5.09,-1.13 11.04,-0.56 15.29,5.96 0,0 -2.56,-14.18 -9.63,-15.03 6.23,-3.68 13.32,-1.41 18.71,1.7 0,0 -6.82,-9.07 -16.16,-21.54 -3.98,-5.39 -1.98,-8.22 -11.34,-16.72 -10.495,-9.93 -23.815,-18.43 -39.975,-20.41 0,0 24.101,7.08 33.453,30.04 9.062,22.68 -6.524,49.33 -34.871,55 -28.629,5.67 -48.473,-11.34 -63.782,-38.84 0,0 9.641,39.4 48.762,47.34" /><path
         id="path298"
         style="fill:#353635;fill-opacity:1;fill-rule:nonzero;stroke:none"
         d="m 973.031,541.648 c 0,0 25.512,-5.109 31.749,-26.648 6.23,-21.539 50.45,-17.301 50.45,-17.301 l 27.78,21.832 c 0,0 -19.55,70.297 -36,66.34" /><path
         id="path300"
         style="fill:#272323;fill-opacity:1;fill-rule:nonzero;stroke:none"
         d="m 980.039,542.512 c 8.481,-3.114 22.791,-10.602 27.461,-26.723 4.07,-14.07 28.62,-15.57 38.99,-15.578 3.59,0 6.36,0.148 7.66,0.25 l 25.63,20.141 c -7.6,26.597 -21.98,62.578 -31.4,62.578 l -68.341,-40.668 z m 66.451,-47.981 0,0 c -14.47,0 -39.48,2.559 -44.44,19.68 -5.683,19.68 -29.331,24.598 -29.57,24.66 -1.152,0.219 -2.042,1.129 -2.242,2.289 -0.199,1.149 0.332,2.328 1.34,2.91 l 73.982,44.219 c 0.24,0.16 0.51,0.262 0.79,0.32 0.66,0.172 1.35,0.262 2.03,0.262 17.41,0 34.18,-57.133 37.37,-68.582 0.31,-1.098 -0.08,-2.269 -0.98,-2.988 l -27.79,-21.821 c -0.42,-0.332 -0.93,-0.55 -1.47,-0.601 0,0 -3.64,-0.348 -9.02,-0.348" /><path
         id="path302"
         style="fill:#ffcdac;fill-opacity:1;fill-rule:evenodd;stroke:none"
         d="m 1449.25,1307.29 c 0,0 1.98,20.41 -9.35,33.16 -26.08,29.76 -45.36,36.28 -46.21,48.48 -0.56,12.18 -8.49,41.37 -16.43,43.64 -8.22,2.27 -3.68,-43.37 0.27,-57.25 3.98,-13.61 3.41,-22.68 3.41,-22.68" /><path
         id="path304"
         style="fill:#000000;fill-opacity:1;fill-rule:nonzero;stroke:none"
         d="m 1383.8,1354.14 62.71,-41.64 c -0.18,6.51 -1.61,18.06 -8.73,26.06 -11.72,13.39 -21.84,21.83 -29.97,28.62 -9.87,8.24 -16.4,13.69 -16.95,21.55 -0.6,13.19 -8.53,37.99 -13.88,40.91 -3.27,-5.26 -0.76,-39.43 3.28,-53.54 3.11,-10.67 3.53,-18.64 3.54,-21.96 m 65.45,-49.69 c -0.55,0 -1.09,0.16 -1.57,0.47 l -68.31,45.36 c -0.84,0.56 -1.32,1.53 -1.26,2.53 0.01,0.09 0.47,8.82 -3.29,21.72 -3.09,10.81 -8.35,50.56 -2.1,58.85 1.02,1.37 2.43,2.11 3.96,2.11 0.25,0 1.08,-0.11 1.33,-0.18 10.71,-3.06 18.04,-35.92 18.51,-46.25 0.38,-5.38 5.85,-9.95 14.93,-17.53 7.84,-6.55 18.58,-15.51 30.58,-29.21 12.01,-13.51 10.13,-34.43 10.04,-35.31 -0.1,-0.99 -0.7,-1.86 -1.6,-2.28 -0.39,-0.19 -0.81,-0.28 -1.22,-0.28" /></g></g></svg>