<svg width="126px4" height="126px4" viewBox="0 0 136 136" xmlns="http://www.w3.org/2000/svg" xmlns:xlink="http://www.w3.org/1999/xlink">
  <defs/>
  <g>
    <path stroke="none" fill="#c9d0d6" d="M126 63.05 Q126 89.1 107.55 107.6 89.1 126 63 126 36.9 126 18.45 107.6 0 89.1 0 63.05 0 36.95 18.45 18.5 36.9 0 63 0 89.1 0 107.55 18.5 126 36.95 126 63.05"/>
    <path stroke="none" fill="#fbfbfb" d="M123.75 63 Q123.75 88.2 105.95 105.95 88.2 123.75 63 123.75 37.85 123.75 20.1 105.95 2.3 88.2 2.3 63 2.3 37.85 20.1 20.1 37.85 2.3 63 2.3 88.2 2.3 105.95 20.1 123.75 37.85 123.75 63"/>
    <path stroke="none" fill="#3b4452" d="M77.5 65.4 Q77.5 59.45 73.3 55.25 69.15 51.05 63.15 51 57.2 50.95 52.95 55.1 48.65 59.25 48.6 65.2 48.55 71.1 52.75 75.3 56.95 79.55 62.85 79.6 68.9 79.6 73.15 75.45 77.45 71.3 77.5 65.4 M63.15 54.55 Q67.55 54.55 70.7 57.7 73.9 60.85 73.85 65.3 73.85 69.75 70.65 72.9 67.5 76 63 76 58.55 76 55.4 72.85 52.2 69.65 52.2 65.25 52.25 60.8 55.4 57.65 58.6 54.5 63.15 54.55 M86.3 46.5 Q88.75 46.5 90.3 48.05 91.9 49.65 91.9 52.05 L91.9 78.5 Q91.9 80.9 90.3 82.45 88.7 84.05 86.3 84.05 L39.85 84.05 Q37.3 84.05 35.75 82.45 34.15 80.9 34.15 78.4 L34.15 52.15 Q34.15 49.65 35.75 48.05 37.3 46.5 39.85 46.5 L50.35 46.5 Q50.9 46.5 51.2 46.05 L52.65 44.05 Q54.15 42 56.65 42 L69.45 42 Q71.9 42 73.4 44 L74.9 46.05 Q75.15 46.5 75.75 46.5 L86.3 46.5"/>
  </g>
</svg>