
<svg xmlns="http://www.w3.org/2000/svg" version="1.1" xmlns:xlink="http://www.w3.org/1999/xlink" preserveAspectRatio="none" x="0px" y="0px" width="128px" height="128px" viewBox="0 0 128 128">
<defs>
<g id="Layer1_0_FILL">
<path fill="#A8A7AD" stroke="none" d="
M 127 64.05
Q 127 37.95 108.55 19.5 90.1 1 64 1 37.9 1 19.45 19.5 1 37.95 1 64.05 1 90.1 19.45 108.6 37.9 127 64 127 90.1 127 108.55 108.6 127 90.1 127 64.05
M 106.95 21.1
Q 124.75 38.85 124.75 64 124.75 89.2 106.95 106.95 89.2 124.75 64 124.75 38.85 124.75 21.1 106.95 3.3 89.2 3.3 64 3.3 38.85 21.1 21.1 38.85 3.3 64 3.3 89.2 3.3 106.95 21.1 Z"/>

<path fill="#C8C8C8" stroke="none" d="
M 124.75 64
Q 124.75 38.85 106.95 21.1 89.2 3.3 64 3.3 38.85 3.3 21.1 21.1 3.3 38.85 3.3 64 3.3 89.2 21.1 106.95 38.85 124.75 64 124.75 89.2 124.75 106.95 106.95 124.75 89.2 124.75 64 Z"/>
</g>

<g id="Layer0_0_FILL">
<path fill="#3B4452" stroke="none" d="
M 87.15 22.85
Q 84.75 20.45 81 20.45
L 64.9 20.45
Q 64 20.45 63.6 19.75
L 61.35 16.65
Q 59 13.6 55.3 13.6
L 35.75 13.6
Q 31.9 13.6 29.65 16.7 28.55 18.1 27.4 19.8 26.95 20.45 26.1 20.45
L 10.1 20.45
Q 6.2 20.45 3.8 22.85 1.4 25.25 1.4 29.1
L 1.4 69.2
Q 1.4 73 3.8 75.4 6.2 77.8 10.05 77.8
L 81 77.8
Q 84.7 77.8 87.15 75.4 89.55 73 89.55 69.35 89.65 49.1 89.55 28.95 89.55 25.25 87.15 22.85
M 61.2 33.8
Q 67.6 40.25 67.55 49.3 67.5 58.35 60.95 64.7 54.45 71.05 45.2 71 36.2 70.95 29.8 64.45 23.4 58 23.45 49.05 23.55 39.95 30.05 33.6 36.55 27.25 45.7 27.3 54.8 27.4 61.2 33.8
M 57.2 37.6
Q 52.4 32.75 45.65 32.75 38.75 32.7 33.85 37.5 29 42.3 28.95 49.1 28.95 55.85 33.8 60.7 38.65 65.5 45.45 65.5 52.3 65.55 57.15 60.75 62 55.95 62 49.15 62.05 42.4 57.2 37.6 Z"/>
</g>
</defs>

<g transform="matrix( 1, 0, 0, 1, 0,0) ">
<use xlink:href="#Layer1_0_FILL"/>
</g>

<g transform="matrix( 0.6548004150390625, 0, 0, 0.6548004150390625, 34.25,34.1) ">
<use xlink:href="#Layer0_0_FILL"/>
</g>
</svg>
