<svg width="126px4" height="126px4" viewBox="0 0 136 136" xmlns="http://www.w3.org/2000/svg" xmlns:xlink="http://www.w3.org/1999/xlink">
  <defs/>
  <g>
    <path stroke="none" fill="#c9d0d6" d="M126 63.05 Q126 89.1 107.55 107.6 89.1 126 63 126 36.9 126 18.45 107.6 0 89.1 0 63.05 0 36.95 18.45 18.5 36.9 0 63 0 89.1 0 107.55 18.5 126 36.95 126 63.05"/>
    <path stroke="none" fill="#fbfbfb" d="M123.75 63 Q123.75 88.2 105.95 105.95 88.2 123.75 63 123.75 37.85 123.75 20.1 105.95 2.3 88.2 2.3 63 2.3 37.85 20.1 20.1 37.85 2.3 63 2.3 88.2 2.3 105.95 20.1 123.75 37.85 123.75 63"/>
    <path stroke="none" fill="#3b4452" d="M91.75 47.4 L91.75 78.7 Q91.75 80.8 90.45 82.1 89.15 83.4 86.95 83.4 L38.95 83.4 Q36.95 83.4 35.6 82.1 34.3 80.8 34.3 78.85 L34.3 47.2 Q34.3 45.2 35.6 43.9 36.95 42.65 39 42.65 L86.95 42.65 Q89.15 42.65 90.45 43.9 91.75 45.2 91.75 47.4 M66.45 56.7 L58.3 70.55 54.9 64.7 Q54.2 63.45 53.35 63.45 52.5 63.45 51.75 64.7 L46.55 73.55 46.25 74.15 Q45.9 74.95 46.2 75.55 46.55 76.1 47.4 76.3 L48 76.3 78 76.3 78.9 76.2 79.9 75.55 Q80.2 75 79.95 74.35 L69.7 56.7 Q68.9 55.35 68.05 55.35 67.2 55.35 66.45 56.7 M54.8 49.7 Q53.05 49.7 51.9 50.9 50.7 52.05 50.7 53.75 50.7 55.45 51.85 56.65 53.05 57.8 54.8 57.8 56.5 57.8 57.7 56.65 58.85 55.45 58.9 53.75 58.9 52.1 57.7 50.9 56.5 49.75 54.8 49.7"/>
  </g>
</svg>