<svg width="126px4" height="126px4" viewBox="0 0 136 136" xmlns="http://www.w3.org/2000/svg" xmlns:xlink="http://www.w3.org/1999/xlink">
  <defs/>
  <g>
    <path stroke="none" fill="#c9d0d6" d="M126 63.05 Q126 89.1 107.55 107.6 89.1 126 63 126 36.9 126 18.45 107.6 0 89.1 0 63.05 0 36.95 18.45 18.5 36.9 0 63 0 89.1 0 107.55 18.5 126 36.95 126 63.05"/>
    <path stroke="none" fill="#fbfbfb" d="M123.75 63 Q123.75 88.2 105.95 105.95 88.2 123.75 63 123.75 37.85 123.75 20.1 105.95 2.3 88.2 2.3 63 2.3 37.85 20.1 20.1 37.85 2.3 63 2.3 88.2 2.3 105.95 20.1 123.75 37.85 123.75 63"/>
    <path stroke="none" fill="#3b4452" d="M43.85 60.2 L45.8 60.2 Q48.15 60.2 49.05 59.35 50 58.6 50 57.3 50 56.1 49.2 55.2 48.35 54.35 46.1 54.35 L43.85 54.35 43.85 60.2 M67.7 66.15 L64.6 67.1 Q62.4 67.7 61.8 68.25 61.25 68.9 61.25 69.6 61.25 70.5 61.8 71 62.45 71.55 63.55 71.55 L65.8 71 Q66.85 70.4 67.3 69.55 67.7 68.65 67.7 67.35 L67.7 66.15 M69.5 56.2 Q71.45 56.55 72.75 57.7 L72.1 56.2 79.7 56.2 83.55 67.95 87.15 56.2 94.25 56.2 86.55 75 Q85.45 77.75 83.7 79.25 81.7 80.95 77.75 80.95 L72.95 80.55 72.35 75.45 73.75 75.85 75 75.95 77.9 75.6 Q79.5 75.1 80 73.85 L74.7 62.1 74.75 71.15 Q74.75 72.35 74.9 73.25 L75.25 74.3 73.1 74.5 70.55 73.95 68.15 72.9 68.1 72.85 65.3 74.8 Q63.4 75.6 60.85 75.6 57.5 75.6 55.75 74.05 54.05 72.5 54.05 70.15 54.05 67.95 55.25 66.6 56.55 65.2 59.9 64.55 L65.15 63.4 67.7 62.55 Q67.7 61.2 67.15 60.65 66.55 60.1 65.2 60.1 63.45 60.1 62.55 60.7 61.9 61.15 61.45 62.35 L56.55 61.85 55.45 63.25 Q53.1 65.45 48.25 65.45 L43.85 65.45 43.85 75.2 35.8 75.2 35.8 49.05 49.1 49.05 Q53.45 49.05 55.65 51.1 57.75 53.15 57.8 56.95 58.85 56.4 60.55 56.1 L64.25 55.8 69.5 56.2"/>
  </g>
</svg>