
<svg xmlns="http://www.w3.org/2000/svg" version="1.1" xmlns:xlink="http://www.w3.org/1999/xlink" preserveAspectRatio="none" x="0px" y="0px" width="57px" height="42px" viewBox="0 0 57 42">
<defs>
<g id="Layer0_0_FILL">
<path fill="#3B4452" stroke="none" d="
M 57.7 36.5
Q 57.75 23.25 57.7 10.05 57.7 7.65 56.1 6.05 54.55 4.5 52.1 4.5
L 41.55 4.5
Q 40.95 4.5 40.7 4.05
L 39.2 2
Q 37.7 0 35.25 0
L 22.45 0
Q 19.95 0 18.45 2.05 17.75 2.95 17 4.05 16.7 4.5 16.15 4.5
L 5.7 4.5
Q 3.15 4.5 1.6 6.05 0 7.65 0 10.15
L 0 36.4
Q 0 38.9 1.6 40.45 3.15 42.05 5.7 42.05
L 52.1 42.05
Q 54.5 42.05 56.1 40.45 57.7 38.9 57.7 36.5
M 28.95 9
Q 34.95 9.05 39.1 13.25 43.3 17.45 43.3 23.4 43.25 29.3 38.95 33.45 34.7 37.6 28.65 37.6 22.75 37.55 18.55 33.3 14.35 29.1 14.4 23.2 14.45 17.25 18.75 13.1 23 8.95 28.95 9
M 36.5 15.7
Q 33.35 12.55 28.95 12.55 24.4 12.5 21.2 15.65 18.05 18.8 18 23.25 18 27.65 21.2 30.85 24.35 34 28.8 34 33.3 34 36.45 30.9 39.65 27.75 39.65 23.3 39.7 18.85 36.5 15.7 Z"/>
</g>
</defs>

<g transform="matrix( 1, 0, 0, 1, 0,0) ">
<use xlink:href="#Layer0_0_FILL"/>
</g>
</svg>
