<svg xmlns="http://www.w3.org/2000/svg" version="1.1" xmlns:xlink="http://www.w3.org/1999/xlink" preserveAspectRatio="none" x="0px" y="0px" width="43px" height="31px" viewBox="0 0 44 32">

<g transform="matrix( 1, 0, 0, 1, 0,0) ">
<path fill="#FFFFFF" stroke="none" d="
M 42.55 8.05
Q 42.55 6.45 41.45 5.3 40.3 4.2 38.6 4.2 34.75 4.15 30.9 4.2 30.55 4.2 30.35 3.9
L 29.25 2.4
Q 28.2 1 26.4 1
L 17.15 1
Q 15.35 1 14.3 2.45 13.65 3.2 13.25 3.9 13.05 4.2 12.65 4.2 8.85 4.15 5.05 4.2 3.25 4.2 2.1 5.3 1 6.45 1 8.15
L 1 27.05
Q 1 28.75 2.15 29.9 3.25 31 5 31
L 38.65 31
Q 40.3 31 41.4 29.9 42.55 28.75 42.55 27.15 42.65 17.65 42.55 8.05
M 20.4 7.95
Q 24.8 7.45 28.05 10.3
L 28.25 10.45 30.1 8.55 32.2 16.15 24.4 14.15 26.4 12.3
Q 25.05 11 23.25 10.6 20.55 9.95 18.15 11.35 15.75 12.8 15.1 15.5 14.85 16.6 13.85 16.65 13.45 16.65 13.1 16.45 12.7 16.15 12.6 15.75 12.5 15.35 12.55 15.05 13.1 12.3 15.35 10.3 17.6 8.25 20.4 7.95
M 20.85 24.55
Q 23.55 24.95 25.75 23.4 27.9 21.9 28.45 19.45 28.6 18.85 29.05 18.6 29.55 18.3 30.1 18.4 30.6 18.55 30.9 19 31.15 19.5 31 20.1 29.35 26.05 23.3 27.05 19.1 27.75 15.8 24.9
L 15.5 24.65 15.35 24.55 13.45 26.45 11.35 18.85 19.1 20.85 17.15 22.7
Q 18.8 24.2 20.85 24.55 Z"/>
</g>
</svg>
