
<svg xmlns="http://www.w3.org/2000/svg" version="1.1" xmlns:xlink="http://www.w3.org/1999/xlink" preserveAspectRatio="none" x="0px" y="0px" width="74px" height="74px" viewBox="0 0 74 74">
<defs>
<g id="Layer0_0_FILL">
<path fill="#FFFFFF" stroke="none" d="
M 74.5 37.25
Q 74.5 21.8 63.6 10.9 52.7 0 37.25 0 21.8 0 10.9 10.9 0 21.8 0 37.25 0 52.7 10.9 63.6 21.8 74.5 37.25 74.5 52.7 74.5 63.6 63.6 74.5 52.7 74.5 37.25
M 48.95 20.6
L 58.45 20.6
Q 60.65 20.6 62.05 22 63.45 23.45 63.45 25.6 63.55 37.5 63.45 49.4 63.45 51.55 62.05 53 60.6 54.4 58.45 54.4
L 16.6 54.4
Q 14.35 54.4 12.95 53 11.55 51.55 11.55 49.35
L 11.55 25.7
Q 11.55 23.45 12.95 22 14.35 20.6 16.65 20.6
L 26.1 20.6
Q 26.6 20.6 26.85 20.2 27.5 19.2 28.15 18.4 29.5 16.55 31.75 16.55
L 43.3 16.55
Q 45.45 16.55 46.85 18.35
L 48.2 20.2
Q 48.4 20.6 48.95 20.6
M 46.6 46.7
Q 50.5 42.95 50.5 37.6 50.55 32.25 46.75 28.45 43 24.7 37.65 24.65 32.25 24.6 28.4 28.35 24.6 32.1 24.5 37.45 24.5 42.75 28.25 46.55 32.05 50.35 37.35 50.4 42.8 50.4 46.6 46.7
M 47.25 37.5
Q 47.25 41.5 44.4 44.35 41.5 47.2 37.5 47.15 33.5 47.15 30.6 44.3 27.75 41.45 27.75 37.5 27.8 33.5 30.65 30.65 33.55 27.8 37.6 27.85 41.6 27.85 44.4 30.7 47.25 33.55 47.25 37.5 Z"/>

<path fill="#3B4452" stroke="none" d="
M 58.45 20.6
L 48.95 20.6
Q 48.4 20.6 48.2 20.2
L 46.85 18.35
Q 45.45 16.55 43.3 16.55
L 31.75 16.55
Q 29.5 16.55 28.15 18.4 27.5 19.2 26.85 20.2 26.6 20.6 26.1 20.6
L 16.65 20.6
Q 14.35 20.6 12.95 22 11.55 23.45 11.55 25.7
L 11.55 49.35
Q 11.55 51.55 12.95 53 14.35 54.4 16.6 54.4
L 58.45 54.4
Q 60.6 54.4 62.05 53 63.45 51.55 63.45 49.4 63.55 37.5 63.45 25.6 63.45 23.45 62.05 22 60.65 20.6 58.45 20.6
M 50.5 37.6
Q 50.5 42.95 46.6 46.7 42.8 50.4 37.35 50.4 32.05 50.35 28.25 46.55 24.5 42.75 24.5 37.45 24.6 32.1 28.4 28.35 32.25 24.6 37.65 24.65 43 24.7 46.75 28.45 50.55 32.25 50.5 37.6
M 44.4 44.35
Q 47.25 41.5 47.25 37.5 47.25 33.55 44.4 30.7 41.6 27.85 37.6 27.85 33.55 27.8 30.65 30.65 27.8 33.5 27.75 37.5 27.75 41.45 30.6 44.3 33.5 47.15 37.5 47.15 41.5 47.2 44.4 44.35 Z"/>
</g>
</defs>

<g transform="matrix( 1, 0, 0, 1, 0,0) ">
<use xlink:href="#Layer0_0_FILL"/>
</g>
</svg>
