
<svg xmlns="http://www.w3.org/2000/svg" version="1.1" xmlns:xlink="http://www.w3.org/1999/xlink" preserveAspectRatio="none" x="0px" y="0px" width="96px" height="61px" viewBox="0 0 96 61">


<g transform="matrix( 1, 0, 0, 1, 0,0) ">
<path fill="#FFFFFF" stroke="none" d="
M 95.45 4.55
Q 95.45 3.65 95.35 3.25 94.95 1.5 93.3 1.1 91.6 0.7 90.3 2
L 72.75 19.4
Q 72.35 19.95 72.15 20.2
L 71.85 20 71.85 7.25
Q 71.85 4.4 70.15 2.75 68.4 1.05 65.55 1.05 36.45 1 7.4 1.05 4.4 1.05 2.7 2.75 1 4.45 1 7.4
L 1 53.25
Q 1 56.1 2.7 57.8 4.4 59.5 7.25 59.5
L 65.65 59.5
Q 68.4 59.5 70.15 57.8 71.85 56.1 71.85 53.35
L 71.85 41.2 71.9 40.45 72.15 40.35
Q 72.75 41.15 73.1 41.45
L 90.1 58.35
Q 91.8 60 93.7 59.25 95.55 58.4 95.45 56.15
L 95.45 4.55 Z"/>
</g>
</svg>
