
<svg xmlns="http://www.w3.org/2000/svg" version="1.1" xmlns:xlink="http://www.w3.org/1999/xlink" preserveAspectRatio="none" x="0px" y="0px" width="80px" height="88px" viewBox="0 0 80 88">
<defs>
<g id="Layer1_0_FILL">
<path fill="#000000" stroke="none" d="
M 82.5 25.85
Q 83.5 26.95 84.45 27.35 85.75 27.95 86.3 26.5 86.55 25.75 86.55 24.65 86.55 23.9 86.25 23.5 85.05 21.8 84.2 20.2 83.6 18.9 83.6 17.9 83.6 17.35 83.3 16.8 80.9 12.8 78.75 10.85 77.05 9.4 75.75 8.7 74 7.85 72.2 7.9
L 72 7.85
Q 70.45 7.65 69.7 7.8 68.45 8 66.65 8.7 65.1 9.35 62.8 10.8 62.45 11.05 62.2 10.85 61.5 10.25 60.4 9.65 59.15 8.95 58.5 8.6 52.65 5.35 44.85 4.95 40.85 4.75 36.2 5.4 33.85 5.7 32.7 6.35 32.55 6.5 32.3 6.25 28.4 4.25 26.5 3.1 25.35 2.35 24 2.25 23.5 2.3 23.25 2.2
L 23.1 2.2
Q 21.9 2.35 20.85 2.8 19.3 3.5 16 5.55 15.3 6.05 14.95 6.3 14.35 6.7 13.8 6.85 12.25 7.25 11.35 8.9 9.8 11.7 9.15 12.55 8.95 12.8 8.75 13.3
L 8.75 13.75
Q 9.3 14.65 10.3 14.4 11 14.25 11.75 13.85 13.6 12.8 14.85 12.2 15.25 12 15.4 12.05 15.55 12.05 15.75 12.4 16.75 13.65 17.55 15.2 18.15 16.35 19.55 18.6 20 19.4 19.65 20.35 18.25 23.65 18.85 27 19.2 28.95 20.4 32.65 21.6 36.35 21.8 39.2 21.95 41.95 23.85 44.35
L 25.15 46.05
Q 25.95 47.3 26.8 49.15 27.3 50.2 28.2 52.35 28.3 52.65 28.25 52.8 27.75 53.95 27.6 54.75 26.8 54 26.3 53.7 24.65 52.65 22 52.05 20.2 51.6 18.3 52.05 15.6 52.7 13.25 54.8 12.1 55.9 11.9 57.1 11.05 62.5 11.3 65 11.4 66.5 11.95 67.2 12.4 67.8 13.55 68.25 14.05 68.4 14.2 69 14.3 69.75 14.65 70.5 15.5 72.1 16.55 73.1 17.4 73.9 18.6 74.1 20.1 74.35 21.55 74.1 23.7 73.75 24.65 72.3 25.1 71.6455078125 25.25 70.9 25.1595703125 72.2892578125 25.3 73.6 25.95 80.1 29.65 84.45 32.45 87.7 35.6 88.15
L 35.85 88.15
Q 36 88.1 36.55 88.1
L 37.8 88.1
Q 38.25 88.1 38.3 88.15
L 38.6 88.15
Q 38.65 88.05 38.8 88.05
L 40.95 87.75
Q 45.05 87 46.2 83.2
L 46.65 81.8
Q 47.7 77.7 49.85 74.95 51.15 73.25 51.75 70.5 52 69.25 52.3 66.45 52.3 66.1 52.55 66 54.75 65 55.7 64.2 55.9 64.05 56.35 64.15 56.55 64.25 56.45 64.65
L 56.4 64.95
Q 56.15 69.2 58.95 71.9 59.9 72.85 60.25 74
L 60.8 75.9
Q 61.5 78.05 63.55 78.65 65.9 79.3 68 78.8 70.8 78.15 72.05 74.55 72.45 73.4 73.25 73.25
L 73.55 73.15
Q 74.5 72.8 74.9 71.75 75.1 71.3 75.2 70.4 75.35 68.75 75 66.1 74.35 61.25 73.85 59.5 72.75 55.5 69.35 54.1 68.95 53.95 68.8 53.55
L 65.35 44.85
Q 65.05 43.9 65.8 43.45 66.5 43 67.1 42.15 69.1 39.4 69.95 34.95 70.2 33.6 70.7 28 70.7 27.35 70.75 27 70.8 26.45 71.05 26.05 71.75 24.95 72.9 23.55 73.35 23.05 73.85 22.75 75.65 21.85 77.55 22.15 79.45 22.5 80.85 23.95
L 82.5 25.85 Z"/>
</g>

<g id="Layer1_1_FILL">
<path fill="#929291" stroke="none" d="
M 36.5 88.05
Q 36.45 88.05 36.2 88.05 35.95 88.05 35.85 88.15
L 36.5 88.15 36.5 88.05 Z"/>
</g>

<g id="Layer1_2_FILL">
<path fill="#979696" stroke="none" d="
M 37.85 88.15
L 38.3 88.15
Q 38.25 88.05 38.1 88.05 37.9 88.05 37.85 88.05
L 37.85 88.15 Z"/>
</g>

<g id="Layer1_3_FILL">
<path fill="#FDFDFD" stroke="none" d="
M 69.45 23.6
Q 67.6 19.15 64.35 14.85 62.35 12.15 60.3 10.9 53.8 7.05 46.7 6.3 41.9 5.7 35.55 6.75 33.8 7.1 33.2 7.5 29.9 9.8 27.75 11.6 23.05 15.5 21 20.35 19.45 24.15 20.3 27.65 20.7 29.55 21.7 32.45 22.9 36.15 23 38.1 23.1 41.5 25.15 43.95 26.85 46 27.8 48.35 29.5 52.6 32.4 55.3 32.6 55.4 32.9 55.3 34.4 54.65 35.45 52.15 35.55 51.95 35.4 51.9 32.55 50.05 32.1 46.6 31.85 44.6 32.7 42.75 33.6 40.9 35.25 40 37.7 38.65 40.8 39.85 41.75 40.2 42.45 39.95 44.05 39.55 46.85 40.2 49.5 40.9 50.4 43.45 51.2 45.4 51.25 47.3 51.35 50.65 48.5 52.3
L 47.75 52.7
Q 47.65 52.85 47.75 53.2 48.65 55.35 50.2 56.95 50.5 57.35 50.75 57.4 51.15 57.4 52.45 57.05 55.55 56.2 57 55 58.95 53.45 61 50.55
L 61.1 50.3
Q 62.4 46.1 64.15 43.5 64.7 42.65 65.25 42.35 65.65 42.1 66.25 41.4 67.05 40.05 67.15 39.85 68.7 36.8 69.25 31.65 69.35 29.9 69.4 29.05 69.5 27.5 69.7 26.5 70.05 25.05 69.45 23.6 Z"/>
</g>

<g id="Layer1_4_FILL">
<path fill="#F5AF95" stroke="none" d="
M 34.65 58.6
L 33.1 60.15
Q 29.4 63.85 27.85 66.55 26.9 68.5 26.7 69.4 26.2 72.55 27 76.05 28.1 81.45 31.75 84.8 33.9 86.8 35.95 86.9 38.7 87.05 41 86.5 44.05 85.75 45.1 82.75
L 45.65 81
Q 46.75 77.05 48.7 74.5 50.1 72.65 50.6 70.1 50.95 68.5 51.1 66.5 51.55 62 51.9 60.4
L 52.55 58.3 52.1 58.4
Q 50.55 58.8 48.95 59 46.6 59.4 41.6 59.7 41.25 59.7 41 60 40 61 39.2 62.75
L 37.45 67
Q 37.15 67.9 37.2 68.35
L 37.55 71
Q 37.65 72.35 37.4 73 37.3 73.25 37.15 73.25 37 73.2 37 72.95
L 36.9 71.1
Q 36.75 70.1 36.85 67.4 36.9 66.4 37.9 63.45
L 39.3 59.55 38.85 59.5
Q 36.2 59.2 35.05 58.5 34.85 58.4 34.65 58.6 Z"/>
</g>

<g id="Layer1_5_FILL">
<path fill="#FDFDFD" stroke="none" d="
M 67.95 54.75
Q 66.2 54.35 64.6 54.35 60.85 54.35 59.4 57.65 57.4 61.9 57.55 66.35 57.65 68.85 59.4 70.8 59.7 71.1 59.95 70.75 60.35 70.1 60.35 69.4
L 60.25 68.1
Q 60.25 67.35 60.6 66.8 60.8 66.6 60.95 66.8 61.3 67.4 61.35 67.95 61.45 68.4 61.3 70.5 61.2 72.65 61.25 73.3 61.4 74.2 62 76 62.6 77.35 64 77.65 64.65 77.85 66 77.95 66.45 77.95 66.55 77.85 66.6 77.8 66.6 77.3
L 66.55 76.6
Q 66.05 74.65 65.85 73.65 65.45 72.05 66 71.05 66.35 71.25 66.55 71.7 66.85 72.2 67.15 73.2 67.55 74.55 68 77.35 68.1 77.75 68.45 77.55 69.45 77 70.45 75.45 71.45 74 71 72.4 70.75 71.75 70.45 70.35 70.1 68.7 70.65 67.65 71.3 68.25 71.65 69.5 71.8 69.95 72.3 72.15 72.3 72.45 72.5 72.4 73.8 72.1 74 70.85 74.1 70.5 74.1 69.8 74.2 67.7 73.65 64.25 72.95 60.2 72.6 59.2 71.35 55.6 67.95 54.75 Z"/>
</g>

<g id="Layer1_6_FILL">
<path fill="#FDFDFD" stroke="none" d="
M 25.2 60.95
Q 25.45 61.2 25.65 61.85 25.75 62.3 25.65 63.3 25.55 64.55 26.05 65.35 26.25 65.7 26.55 65.4 28.5 63.2 27.85 60.05 27.2 57.3 27.15 56.8 27 55.65 25.9 54.95 24.95 54.3 23.1 53.6 20.8 52.85 19.25 53.1 16.25 53.6 13.7 56.05 13.15 56.6 13 57.5
L 12.6 60.65
Q 12.3 63.65 12.5 65.15 12.7 66.7 13.8 67 14.15 67.1 14.2 66.75 14.6 64.25 15.1 63.1 15.4 62.3 15.8 62.1 16.2 63 16.05 64.2 16 64.65 15.5 66.75 15.25 68.15 15.3 68.45 15.55 70.35 17.4 72.2 17.9 72.7 18.15 72.65 18.2 72.6 18.35 71.85 19.15 67.8 19.3 67.35 19.55 66.45 19.95 65.85 20.2 65.5 20.3 65.9 20.6 66.6 20.5 67.5 20.45 68.25 20.05 69.85 19.6 71.85 19.65 72.6 19.65 72.95 19.95 72.95
L 21.45 72.85
Q 23.6 72.55 24.15 70.6
L 24.65 68.6
Q 24.8 68.1 24.8 67.45 24.65 65.15 24.65 62.85 24.6 61.8 25.2 60.95 Z"/>
</g>

<g id="Layer1_7_FILL">
<path fill="#FDFDFD" stroke="none" d="
M 82.25 23.8
L 83 24.8
Q 83.75 25.65 84.55 26.1 85.05 26.35 85.2 25.85 85.6 24.55 85.1 23.8 84.35 22.75 83.5 21.2 82.4 19.3 82.4 17.85 82.45 17.65 82.25 17.25 79.95 13.5 77.7 11.45 74.8 8.8 71.45 8.85 68.1 8.9 63.5 11.8 63.35 11.95 63.5 12.05 64.75 13.35 65.95 15.05 69.8 10.3 74.7 11.5 78.4 12.3 80.25 16.6 78.75 14.95 77.15 14.2 75.8 13.5 74.65 13.7 72.8 13.95 72.95 15.6
L 73 16.4
Q 73.35 18.9 72.35 20.6 71.7 21.65 71.05 23.85
L 71.85 22.9
Q 72.5 22.1 73.05 21.8 75.35 20.7 77.3 20.95 80.7 21.45 82.25 23.8 Z"/>
</g>

<g id="Layer1_8_FILL">
<path fill="#FDFDFD" stroke="none" d="
M 31.45 7.15
L 31.3 7.05
Q 29.15 6.05 26.1 4.15 25.1 3.55 24.15 3.5 22.75 3.3 20.65 4.35 19.2 5.1 15.45 7.5 14.65 7.95 14.3 8.05 13.15 8.35 12.5 9.5 12.35 9.75 11.55 11.2 11 12.3 10.55 12.9 12 12.25 12.95 11.45 13.55 11 15.45 9.2 17.6 7.25 19.4 6.7 23.85 5.3 27.05 8.3
L 28 9.25
Q 28.3 9.6 28.7 9.3
L 31.15 7.45
Q 31.4 7.3 31.45 7.15 Z"/>
</g>

<g id="Layer1_9_FILL">
<path fill="#FDFDFD" stroke="none" d="
M 64.45 45.3
L 64.15 45.9
Q 63.1 47.85 62.25 50.6 62.15 51 62 51.15 59.4 54.9 56.85 56.6 56.6 56.85 56.7 57.15 57.15 58.45 57.2 59.45 57.25 59.5 57.2 59.7 57.2 59.85 57.35 59.9 57.85 58 58.65 56.7 60 54.3 62.55 53.55 63.8 53.25 65.3 53.35 66.35 53.35 67.75 53.6
L 64.45 45.3 Z"/>
</g>

<g id="Layer1_10_FILL">
<path fill="#5B5B5B" stroke="none" d="
M 48.7 54.8
Q 47.9 53.55 47.75 52.7
L 46.6 53.1
Q 44.45 53.7 41.95 53.6 41.4 53.6 41.4 54.05
L 41.4 55.7
Q 41.65 57 42.7 57.65 43.65 58.15 45.1 58.25 46.4 58.3 48.4 57.95 50.3 57.55 50.75 57.4 49.45 56.1 48.7 54.8 Z"/>
</g>

<g id="Layer1_11_FILL">
<path fill="#5B5B5B" stroke="none" d="
M 40.45 53.6
Q 40.35 53.5 39.85 53.45 37.25 53.1 35.4 51.9 34.95 53.4 33.95 54.45 33.1 55.2 32.4 55.3
L 32.75 55.6
Q 34.5 57.45 37.1 57.75 38.45 57.95 39.3 57.4 40.9 56.35 40.65 54.2 40.6 53.7 40.45 53.6 Z"/>
</g>

<g id="Layer1_12_FILL">
<path fill="#F5AF95" stroke="none" d="
M 30.4 61.15
Q 30.65 61.4 30.8 61.15 31.65 59.9 33.45 58.2 33.65 58 33.4 57.8 32.85 57.45 31.85 56.55 30.3 55 29.4 53.65
L 29.3 53.7
Q 27.8 57.25 30 60.75
L 30.4 61.15 Z"/>
</g>

<g id="Layer1_13_FILL">
<path fill="#F5AF95" stroke="none" d="
M 55.9 61.45
Q 56.2 59.8 55.85 58.3 55.6 57.3 55.5 57.3 55.45 57.25 54.45 57.6 54 57.75 53.85 58.2 53.85 58.35 53.4 59.6 52.85 61.05 52.45 64.7 53.65 64.25 54.7 63.5 55.75 62.7 55.9 61.45 Z"/>
</g>

<g id="Layer1_14_FILL">
<path fill="#FDFDFD" stroke="none" d="
M 20.8 18
Q 21.4 16.8 22.05 15.95 22.3 15.55 22.1 15.1 20.95 12.65 18.65 11.4 17.5 10.8 16.25 11 17.3 12.15 18.6 14.45 20.05 17.05 20.8 18 Z"/>
</g>

<g id="Layer1_15_FILL">
<path fill="#5B5B5B" stroke="none" d="
M 44 46.2
Q 44.8 46.45 45.3 46.4 45.9 46.4 45.95 45.8
L 45.95 45.35
Q 45.95 43.85 44.7 43.55 44.25 43.45 43.6 43.75 42.9 44.05 42.7 44.45 42.2 45.2 42.5 46 42.55 46.25 42.85 46.2 43.25 46.1 44 46.2 Z"/>
</g>

<g id="Layer1_16_FILL">
<path fill="#5B5B5B" stroke="none" d="
M 35.5 43.9
Q 35.4 45.9 37.3 45.5 38.1 45.4 38.45 45.5 38.95 45.55 39.1 45.4 39.2 45.25 39.1 44.7 39 44.3 38.75 43.95 38.05 43.05 36.8 42.8 36.1 42.65 35.8 42.9 35.5 43.15 35.5 43.9 Z"/>
</g>

<g id="Layer1_17_FILL">
<path fill="#5A5A5A" stroke="none" d="
M 40.85 44.75
Q 40.9 44.65 40.75 44.65 40.6 45.1 40.35 46.7 39.95 49.55 40.25 51.3 40.35 52.3 41 52.6 41.3 52.7 41.4 52.45 41.55 52.25 41.25 52.05 40.7 51.85 40.5 51.1 40.15 49.85 40.45 47.45
L 40.85 44.75 Z"/>
</g>

<g id="Layer1_18_FILL">
<path fill="#4E4E4E" stroke="none" d="
M 40.85 44.75
Q 41 44.6 40.9 44.4
L 40.75 44.65 40.85 44.75 Z"/>
</g>

<g id="Layer1_19_FILL">
<path fill="#000000" stroke="none" d="
M 43.3 32.75
Q 45.1 32.45 45.65 31.35 46.5 29.65 46.65 28.45 46.9 26.85 46.15 25.45 45.35 23.85 45.35 22.35 45.45 21.6 44.85 21 44.45 20.55 44.3 19.9
L 43.9 18.6
Q 43 15.7 42.2 14.4 40.55 11.7 37.4 11.9
L 35.3 12.2
Q 30.85 13.05 28.1 15.1 26.4 16.35 24.2 18.9 23.45 19.75 23.3 20.7 23.2 21.1 23 21.4 22.7 21.7 22.55 22.25 22.45 22.55 22.3 23.15 23.4 22.3 23.75 20.55 24 21.15 23.7 21.8 23.4 22.3 23.1 23.4 22.9 24 22.55 25.15 22.2 26.15 21.8 26.8 21.35 27.6 21.5 28.7 21.65 29.75 22.6 31.45 23.35 32.85 25.8 35.6 26.8 36.85 26.95 37.3 27.35 38.5 28.65 38.75
L 29.35 38.9
Q 31.75 39.6 33.5 37.7
L 35.5 35.55
Q 37.55 33.5 40.15 33.05 41.2 32.9 43.3 32.75 Z"/>
</g>

<g id="Layer1_20_FILL">
<path fill="#000000" stroke="none" d="
M 64.2 23.4
Q 63.05 20.9 60.75 19.8 58.85 18.9 56.95 19.3 55.05 19.7 53.8 21.25 51.8 23.85 52.1 27.05 52.3 29.15 54.35 29.6 54.65 29.7 55.3 29.75 55 30.25 54.4 30.4 53.65 30.5 53.25 30.55 53.5 30.7 53.75 30.7 55.45 30.8 57 31 58.25 31.2 60.55 32
L 61.85 32.35
Q 62.15 32.35 62.2 32.25 62.25 32.2 62 31.95 61.55 31.6 60.75 31.25
L 59.75 30.75
Q 60.45 30.7 61.85 30.7 64.1 30.4 64.7 28.3 65.4 25.95 64.2 23.4 Z"/>
</g>

<g id="Layer1_21_FILL">
<path fill="#000000" stroke="none" d="
M 41.7 39.4
Q 41.85 39.5 42.1 39.4 43.3 39.05 44.9 38.15
L 45.8 37.55
Q 42 38.45 38.85 36.25 39.15 36.9 40.15 37.95 41.1 39 41.7 39.4 Z"/>
</g>

<g id="Layer1_22_FILL">
<path fill="#FDFDFD" stroke="none" d="
M 30.2 18.5
Q 27.55 19.1 25.85 21.45 24.2 23.85 24.45 26.6 24.7 29.25 27.25 29.7 28.8 29.95 30.7 29.55 30.7 29.45 30.4 29.35 29.45 29.45 28.65 29.15 26.65 28.65 25.95 26.6 25.35 24.65 26.35 22.9
L 27.05 21.7
Q 28.05 20.2 29.6 19.6 31.15 18.95 32.85 19.45 34.9 20 35.55 21.9 35.85 23 36 23.95 36.45 27.65 32.65 28.75 32.3 28.85 32.1 28.95 31.8 29.05 31.6 29.25 31.6 29.4 31.8 29.3 32.75 29.05 34.7 29.05 36.75 28.85 37.15 26.85 37.8 24.1 36.25 21.3 35.3 19.6 33.7 18.85 32.1 18.15 30.2 18.5 Z"/>
</g>

<g id="Layer1_23_FILL">
<path fill="#E4E4DF" stroke="none" d="
M 31.6 29.2
Q 31.5 29.1 31.35 29.15
L 31.05 29.2
Q 31 29.25 30.7 29.25 30.5 29.3 30.4 29.45 30.5 29.5 30.7 29.55 31.45 29.45 31.8 29.3
L 31.6 29.2 Z"/>
</g>

<g id="Layer1_24_FILL">
<path fill="#C4BC7A" stroke="none" d="
M 61.05 21.75
Q 62.4 22.95 62.35 24.5 62.9 25.6 62.9 26.8 63.05 26.8 63.15 26.5 63.65 25 63.15 23.85 61.75 20.1 58.25 19.9 55.8 19.8 54.6 21.4 52.95 23.55 53.35 26.4 53.55 27.9 55.45 29.1 55.55 29.15 55.55 29 54.2 27.55 54.25 25.7 53.95 25.1 54.15 24.15 54.65 21.7 56.95 20.9 59.2 20.1 61.05 21.75 Z"/>
</g>

<g id="Layer1_25_FILL">
<path fill="#C7BE79" stroke="none" d="
M 61.4 23.3
Q 61.6 23.5 62.35 24.5 62.6 24.45 62.5 24.1 62.15 22.3 60.6 21.25 59.1 20.25 57.35 20.65 55.7 21.05 54.75 22.4 53.8 23.75 54 25.45 54 25.8 54.25 25.7 54.25 24.85 55.05 23.55
L 55.1 23.35
Q 55.6 22.25 56.75 21.75 57.85 21.2 59 21.45 60.55 21.8 61.4 23.3 Z"/>
</g>

<g id="Layer1_26_FILL">
<path fill="#CAC178" stroke="none" d="
M 55.05 23.55
Q 56.2 22.2 58.1 22.1 59.9 22.05 61.4 23.3 61.35 22.85 60.6 22.1 59.45 21.1 57.85 21.25 56.25 21.45 55.4 22.7 54.95 23.25 55.05 23.55 Z"/>
</g>

<g id="Layer1_27_FILL">
<path fill="#8B876B" stroke="none" d="
M 63.55 24.65
Q 63.35 24 63.15 23.85
L 63.2 24.2
Q 63.4 25.8 62.9 26.8 62.65 28.95 60.95 30 61.2 30.05 61.7 29.8 63 29 63.5 27.6 64 26.2 63.55 24.65 Z"/>
</g>

<g id="Layer1_28_FILL">
<path fill="#FDFDFD" stroke="none" d="
M 60.2 25
Q 59.9 25.3 59.9 25.65 59.9 26.5 60.75 26.5 61.15 26.55 61.45 26.25 61.75 25.95 61.75 25.55 61.75 25.2 61.5 24.95 61.25 24.7 60.9 24.7 60.5 24.7 60.2 25 Z"/>
</g>

<g id="Layer1_29_FILL">
<path fill="#A49D6A" stroke="none" d="
M 55.45 29.1
Q 55.65 29.3 55.8 29.3 55.8 29.25 55.55 29
L 55.45 29.1 Z"/>
</g>

<g id="Layer1_30_FILL">
<path fill="#000000" stroke="none" d="
M 35.15 24.3
Q 34.4 21.1 31.15 21 29.1 20.95 27.55 22.5 26.2 24 26.35 25.7 26.5 27.65 28.15 28.8 29.5 29.6 31.05 29.3
L 31.6 29.2 32.7 28.85
Q 33.8 28.4 34.65 27.1 35.35 25.95 35.15 24.3 Z"/>
</g>

<g id="Layer1_31_FILL">
<path fill="#C5BC7A" stroke="none" d="
M 28.65 19.95
Q 27.5 20.7 26.25 22.8
L 26.25 23.05
Q 25.9 23.95 26.15 25.25 26.25 25.65 26.45 25.7 26.4 23.95 27.65 22.6 27.85 22 28.05 21.75 28.85 20.7 30.05 20.35 31.2 20 32.4 20.4 33.65 20.85 34.35 21.9 35.1 22.95 35.05 24.3 35.2 25.9 34.5 27.1 33.8 28.15 32.7 28.85 33.45 28.75 34.85 27.7 35.9 26.9 36.05 25.65 36.4 23.3 35.25 21.05 35.05 20.65 34.6 20.2 33.35 19.2 31.7 19.1 30.05 19.05 28.65 19.95 Z"/>
</g>

<g id="Layer1_32_FILL">
<path fill="#8B876B" stroke="none" d="
M 26.2 23.5
Q 26.3 23.3 26.3 23.15 26.4 22.95 26.25 22.8 25.4 24.25 25.65 25.85 25.85 27.45 27.05 28.5 28.4 29.6 30.4 29.45 30.5 29.4 30.75 29.4 30.95 29.4 31.05 29.3
L 30.25 29.3
Q 28.25 29.2 27.1 27.55 26.65 26.9 26.45 25.7 26.05 24.75 26.2 23.5 Z"/>
</g>

<g id="Layer1_33_FILL">
<path fill="#C9C078" stroke="none" d="
M 27.65 22.6
L 28.15 22.15
Q 29.4 21.15 31 21.1 32.6 21.1 33.8 22.1 34.6 22.7 35.05 24.3 35.15 24.2 35.15 24 35.05 21.7 33.2 20.65 30.65 19.1 28.35 21.25 27.55 21.95 27.65 22.6 Z"/>
</g>

<g id="Layer1_34_FILL">
<path fill="#FDFDFD" stroke="none" d="
M 29.25 24.1
Q 29 23.8 28.6 23.75 27.75 23.65 27.65 24.55 27.6 24.95 27.9 25.25 28.2 25.55 28.6 25.6 29.4 25.6 29.5 24.75 29.55 24.4 29.25 24.1 Z"/>
</g>
</defs>

<g transform="matrix( 1, 0, 0, 1, -7.75,-1.2) ">
<use xlink:href="#Layer1_0_FILL"/>
</g>

<g transform="matrix( 1, 0, 0, 1, -7.75,-1.2) ">
<use xlink:href="#Layer1_1_FILL"/>
</g>

<g transform="matrix( 1, 0, 0, 1, -7.75,-1.2) ">
<use xlink:href="#Layer1_2_FILL"/>
</g>

<g transform="matrix( 1, 0, 0, 1, -7.75,-1.2) ">
<use xlink:href="#Layer1_3_FILL"/>
</g>

<g transform="matrix( 1, 0, 0, 1, -7.75,-1.2) ">
<use xlink:href="#Layer1_4_FILL"/>
</g>

<g transform="matrix( 1, 0, 0, 1, -7.75,-1.2) ">
<use xlink:href="#Layer1_5_FILL"/>
</g>

<g transform="matrix( 1, 0, 0, 1, -7.75,-1.2) ">
<use xlink:href="#Layer1_6_FILL"/>
</g>

<g transform="matrix( 1, 0, 0, 1, -7.75,-1.2) ">
<use xlink:href="#Layer1_7_FILL"/>
</g>

<g transform="matrix( 1, 0, 0, 1, -7.75,-1.2) ">
<use xlink:href="#Layer1_8_FILL"/>
</g>

<g transform="matrix( 1, 0, 0, 1, -7.75,-1.2) ">
<use xlink:href="#Layer1_9_FILL"/>
</g>

<g transform="matrix( 1, 0, 0, 1, -7.75,-1.2) ">
<use xlink:href="#Layer1_10_FILL"/>
</g>

<g transform="matrix( 1, 0, 0, 1, -7.75,-1.2) ">
<use xlink:href="#Layer1_11_FILL"/>
</g>

<g transform="matrix( 1, 0, 0, 1, -7.75,-1.2) ">
<use xlink:href="#Layer1_12_FILL"/>
</g>

<g transform="matrix( 1, 0, 0, 1, -7.75,-1.2) ">
<use xlink:href="#Layer1_13_FILL"/>
</g>

<g transform="matrix( 1, 0, 0, 1, -7.75,-1.2) ">
<use xlink:href="#Layer1_14_FILL"/>
</g>

<g transform="matrix( 1, 0, 0, 1, -7.75,-1.2) ">
<use xlink:href="#Layer1_15_FILL"/>
</g>

<g transform="matrix( 1, 0, 0, 1, -7.75,-1.2) ">
<use xlink:href="#Layer1_16_FILL"/>
</g>

<g transform="matrix( 1, 0, 0, 1, -7.75,-1.2) ">
<use xlink:href="#Layer1_17_FILL"/>
</g>

<g transform="matrix( 1, 0, 0, 1, -7.75,-1.2) ">
<use xlink:href="#Layer1_18_FILL"/>
</g>

<g transform="matrix( 1, 0, 0, 1, -7.75,-1.2) ">
<use xlink:href="#Layer1_19_FILL"/>
</g>

<g transform="matrix( 1, 0, 0, 1, -7.75,-1.2) ">
<use xlink:href="#Layer1_20_FILL"/>
</g>

<g transform="matrix( 1, 0, 0, 1, -7.75,-1.2) ">
<use xlink:href="#Layer1_21_FILL"/>
</g>

<g transform="matrix( 1, 0, 0, 1, -7.75,-1.2) ">
<use xlink:href="#Layer1_22_FILL"/>
</g>

<g transform="matrix( 1, 0, 0, 1, -7.75,-1.2) ">
<use xlink:href="#Layer1_23_FILL"/>
</g>

<g transform="matrix( 1, 0, 0, 1, -7.75,-1.2) ">
<use xlink:href="#Layer1_24_FILL"/>
</g>

<g transform="matrix( 1, 0, 0, 1, -7.75,-1.2) ">
<use xlink:href="#Layer1_25_FILL"/>
</g>

<g transform="matrix( 1, 0, 0, 1, -7.75,-1.2) ">
<use xlink:href="#Layer1_26_FILL"/>
</g>

<g transform="matrix( 1, 0, 0, 1, -7.75,-1.2) ">
<use xlink:href="#Layer1_27_FILL"/>
</g>

<g transform="matrix( 1, 0, 0, 1, -7.75,-1.2) ">
<use xlink:href="#Layer1_28_FILL"/>
</g>

<g transform="matrix( 1, 0, 0, 1, -7.75,-1.2) ">
<use xlink:href="#Layer1_29_FILL"/>
</g>

<g transform="matrix( 1, 0, 0, 1, -7.75,-1.2) ">
<use xlink:href="#Layer1_30_FILL"/>
</g>

<g transform="matrix( 1, 0, 0, 1, -7.75,-1.2) ">
<use xlink:href="#Layer1_31_FILL"/>
</g>

<g transform="matrix( 1, 0, 0, 1, -7.75,-1.2) ">
<use xlink:href="#Layer1_32_FILL"/>
</g>

<g transform="matrix( 1, 0, 0, 1, -7.75,-1.2) ">
<use xlink:href="#Layer1_33_FILL"/>
</g>

<g transform="matrix( 1, 0, 0, 1, -7.75,-1.2) ">
<use xlink:href="#Layer1_34_FILL"/>
</g>
</svg>
