
<svg xmlns="http://www.w3.org/2000/svg" version="1.1" xmlns:xlink="http://www.w3.org/1999/xlink" preserveAspectRatio="none" x="0px" y="0px" width="66px" height="48px" viewBox="0 0 66 48">
<defs>
<g id="Layer0_0_FILL">
<path fill="#FFFFFF" stroke="none" d="
M 89.5 8.6
L 81.5 0.8
Q 80.7 0 79.5 0 78.3 0 77.5 0.8
L 35.4 41.5
Q 34.6 42.35 33.4 42.35 32.25 42.35 31.4 41.5
L 13 23.2
Q 12.2 22.4 11 22.4 9.8 22.4 9 23.2
L 0.8 30.3
Q 0 31.25 0 32.3 0 33.5 0.8 34.3
L 31.35 64.9
Q 32.2 65.7 33.4 65.7 34.55 65.7 35.4 64.9
L 89.5 12.5
Q 90.3 11.7 90.3 10.55 90.3 9.45 89.5 8.6 Z"/>
</g>
</defs>

<g transform="matrix( 0.7314910888671875, 0, 0, 0.7314910888671875, 0,0) ">
<use xlink:href="#Layer0_0_FILL"/>
</g>
</svg>
