
<svg xmlns="http://www.w3.org/2000/svg" version="1.1" xmlns:xlink="http://www.w3.org/1999/xlink" preserveAspectRatio="none" x="0px" y="0px" width="77px" height="77px" viewBox="0 0 77 77">

<g transform="matrix( 1, 0, 0, 1, 0,0) ">
<path fill="#FFFFFF" stroke="none" d="
M 75.55 38.35
Q 75.55 22.85 64.6 11.95 53.65 1.05 38.3 1.05 22.9 1.05 11.9 11.95 1.05 22.8 1.05 38.35 1.05 54 11.9 64.65 22.95 75.55 38.3 75.55 54 75.55 64.6 64.65 75.55 53.55 75.55 38.35 Z"/>
</g>

<g transform="matrix( 1, 0, 0, 1, 0,0) ">
<path fill="#3B4452" stroke="none" d="
M 43.05 12.85
Q 42.95 13.05 42.45 13.05 37.85 12 33.3 13.05 32.85 13.2 32.6 12.75 31.5 11.3 29.8 10.85 27.1 10.1 24.25 11.45 21.4 12.8 20.2 15.35 19.3 17.15 19.7 18.8 20.1 20.4 21.7 21.55 22.1 21.95 21.9 22.25 21.35 24.35 21.55 26.15 21.9 30.45 25.4 33.65
L 26.05 34.25 22.4 35.95
Q 19.2 37.5 17.4 40.75 16.35 42.55 16.85 44.65 17.3 46.55 18.8 47.55 20.3 48.5 22.15 48.15
L 23.15 47.85
Q 23.35 49 22.7 49.3 22.3 49.7 22.2 49.9 20.7 52.05 20.4 54.7 20.1 57.3 21 59.8 22.05 62.9 25.4 63.3 28.7 63.65 32.1 61.85 32.4 61.8 33 61.8 37.8 62.65 42.6 61.8 42.75 61.75 43.5 61.85 46.2 63.35 49.3 63.35 53.6 63.35 54.8 59.3 55.35 57.4 55.2 55.35 55.05 51.65 53 49.35 52.5 48.75 52.7 47.65 55.05 48.3 56.5 47.65 58.15 46.85 58.85 45.2 59.55 43.6 59 41.85 57.9 38.2 54.5 36.35 53.5 35.75 49.9 33.95
L 50.4 33.45
Q 55.65 28.6 53.8 22.05 53.8 21.8 54.05 21.55 55.65 20.55 56.1 18.75 56.55 16.9 55.55 15.05 53.15 10.85 48.1 10.55 44.75 10.4 43.05 12.85
M 45.05 13.9
L 45.05 13.7
Q 45.5 13.4 46.3 12.75 48.55 11.8 51.1 13.15 53.6 14.55 54.05 16.95 54.2 17.8 53.85 18.6 53.5 19.45 52.75 19.95 50.35 16.05 45.05 13.9
M 43.05 21.3
Q 43.55 20.8 44.3 20.8 45.05 20.8 45.6 21.25 46.1 21.75 46.1 22.5 46.05 23.15 45.55 23.65 45 24.1 44.3 24.1 43.65 24.1 43.15 23.65 42.6 23.15 42.55 22.5 42.6 21.75 43.05 21.3
M 46.9 30.65
Q 46.8 33.5 44.25 35.35 41.55 37.35 37.8 37.35 33.6 37.25 30.85 34.85 28.8 32.95 28.8 30.45 28.75 27.9 30.85 25.95 33.5 23.4 37.7 23.35 41.95 23.3 44.65 25.75 47 27.85 46.9 30.65
M 46.95 47.85
L 46.55 48.15
Q 44.6 49.05 43.1 50.7 41.6 52.3 40.85 54.35 40.25 55.8 38.65 56.3 38.15 56.55 37.35 56
L 35.25 54.2
Q 35.05 54.1 34.85 53.7 33.3 50.5 30.35 48.7 30.3 48.65 30.05 48.5 28.7 46.55 28.4 45.05 28 43.15 28.95 41.4 30.3 39 33.15 38.75 36.05 38.55 37.75 40.7 37.95 40.85 38.25 41.3 38.7 40.75 38.75 40.7 39.9 39.35 41.65 38.9 43.4 38.4 45.05 39 46.65 39.6 47.55 41.05 48.45 42.45 48.35 44.3 48.25 45.95 46.95 47.85
M 22.9 20.2
Q 20.95 18.8 21.75 16.3 22.3 14.65 23.95 13.5 25.6 12.3 27.45 12.3 28.8 12.3 29.75 12.7 30.05 12.75 30.45 13.1 31.2 13.65 31.25 13.7 25.5 15.85 22.9 20.2
M 29.65 22.4
Q 29.65 21.75 30.2 21.25 30.75 20.75 31.4 20.8 32.15 20.8 32.7 21.3 33.25 21.8 33.25 22.5 33.2 23.2 32.65 23.65 32.1 24.1 31.35 24.1 30.65 24.1 30.15 23.6 29.65 23.1 29.65 22.4
M 33.7 55.05
Q 34.65 58.1 32.1 60 29.15 62.2 25.7 61.55 23.25 61.2 22.4 58.55
L 21.9 56
Q 22.15 53.7 23 51.85 24 50.05 25.6 49.5 27.25 48.9 29.1 49.8 32.55 51.3 33.7 55.05
M 52.9 51.95
Q 53.8 53.6 53.8 55.85 53.8 57.65 53.2 59.15 52.2 61.2 50.4 61.45 46.2 62.1 43.3 59.45 41.5 57.8 42.1 55.35 42.65 53.25 44 51.7 45.4 50.1 47.4 49.45 49.05 48.85 50.55 49.55 52.1 50.25 52.9 51.95
M 42.5 32.05
Q 42.2 31.7 41.6 32.2 40.75 32.9 39.4 32.4 38.3 32.1 38.3 30.8 38.4 30.4 38.7 30.05
L 40.9 28.35
Q 41.75 27.5 41.6 26.6 41.45 25.7 40.4 25.25 37.9 24 35.4 25.25 34.4 25.8 34.25 26.65 34.1 27.55 34.9 28.35
L 37.1 30.05
Q 37.4 30.3 37.55 30.55 37.65 31.85 36.3 32.35 34.95 33 34.05 32.05
L 33.3 32.05 33.3 32.8
Q 34 33.4 34.55 33.5 36.45 33.95 38.05 32.3
L 38.2 32.75
Q 39 33.55 40.25 33.6 41.45 33.65 42.2 32.95 42.9 32.6 42.5 32.05 Z"/>
</g>
</svg>
