<?xml version="1.0" encoding="utf-8"?>
<!-- Generator: Adobe Illustrator 21.1.0, SVG Export Plug-In . SVG Version: 6.00 Build 0)  -->
<svg version="1.0" id="Layer_5" xmlns="http://www.w3.org/2000/svg" xmlns:xlink="http://www.w3.org/1999/xlink" x="0px" y="0px"
	 width="900px" height="900px" viewBox="0 0 900 900" style="enable-background:new 0 0 900 900;" xml:space="preserve">
<g>
	<path style="fill:#A06120;" d="M577.3,510c-6.4-3.4-11.9-4.4-16.9-3.8c-6.5-15-18.6-26.3-31.7-32.1c-11.3,9.4-24.9,16.4-39.5,21
		c-8.2,4.5-17.9,6.9-27.3,7.4c-5,0.3-10,0-14.7-0.8c-1.4-0.2-2.8-0.5-4.2-0.8c-26.6-1.4-52.1-10.8-69.4-29.2
		c-4.9-5.2-8.9-10.8-12-16.7c-14-6.4-30.5-2.5-34.9,16.1c-2.3,9.8,2.4,22.2,12.5,33.1c3,1.9,5.9,4.3,9.6,3.9l-1.7,3.5
		c9.1,7.4,20.9,13.5,34.6,17c-6.9-0.6-14,1-21.5,7.8c-22,20,2.4,65.6,35.2,61.6l42-5.1l78.6-9.5l42-5.1
		C590.7,574.2,603.5,524.2,577.3,510z"/>
	<path style="fill:#683A10;" d="M392.2,589.5c-9.9,5-27.3-9-21.6-19.6c7-13.1,25-1.7,26.7,10.1C397.9,583.9,395.9,587.6,392.2,589.5
		z M376.7,554.2c0.9,0.1,1.8-0.1,2.8-0.6c2.3-1.2,2.5-5.2,2.1-7.4c-0.7-4.3-5.6-11.2-10.4-7.4C366.5,542.5,370.9,553.7,376.7,554.2z
		 M365.6,556.5c-1.1-3.3-4.6-7.4-6.7-7.5c-5.1-0.2,0.3,12.8,5.3,11.8C366.1,560.4,366.3,558.6,365.6,556.5z M356.5,564.1
		c-0.9,0.4-1,2-0.7,3c0.3,1.2,1,2.4,1.9,3.3c0.7,0.8,3.4,3.3,4.6,2c1.9-2-2.9-7.5-4.6-8.3C357.3,564,356.9,564,356.5,564.1z"/>
	<path style="fill:#683A10;" d="M567.1,530.3l-2.6-15.7c0.8-0.1,1.6,0,2.6,0.4C571.9,517.2,571.2,526.8,567.1,530.3z M575,545
		c-2.7-3-5.8-4.1-8.9-3.7c-0.8,9.5-4.4,19.1-11.3,26c1.1,0.9,2.4,1.6,3.9,1.9C569.6,571.7,583.1,554,575,545z M587.3,536.1
		c-0.3-0.1-0.7,0-1.2,0.4c-1.4,1.2-4.7,7.6-2.4,9.1c1.5,1,3.5-2.1,4-3.1c0.6-1.1,1-2.4,1.1-3.7C588.8,537.8,588.3,536.3,587.3,536.1
		z M581.4,522c-2.1,0.6-4.4,5.4-4.7,8.9c-0.2,2.2,0.4,3.8,2.4,3.8C584.2,534.4,586.3,520.5,581.4,522z"/>
	<path style="fill:#894C15;" d="M560.4,506.2c3.2,7.3,5,15.4,5.1,24.2c0.3,44-56.2,62.4-63.8,25.8c-4.8-23.4,25-28.5,29.3-40.8
		c0,0-13.7,6-22.6,13.8c-11.4,10.1-13.6,24.1-3.9,38.3c19.3,27.8,79.7,11,59.3-61.5C563.9,506,563.1,506,560.4,506.2z"/>
	<path style="fill:#894C15;" d="M357.4,518.7c7.1,4.2,15.2,7.6,24.2,9.8c5.2,0.6,12.2,2.2,19.7,5.4c12.8,5.3,22.1,1.8,31.5-4.5
		C415,531.9,385,530,357.4,518.7z"/>
	<path style="fill:#894C15;" d="M436.1,503c65.8,6.1,110.5-16.7,110.5-16.7c-5.4-5.2-11.5-9.4-17.8-12.2
		c-11.3,9.4-24.9,16.4-39.5,21c-8.2,4.5-17.9,6.9-27.3,7.4c-5,0.3-10,0-14.7-0.8c-1.4-0.2-2.8-0.5-4.2-0.8
		c-26.6-1.4-52.1-10.8-69.4-29.2c-4.9-5.2-8.9-10.8-12-16.7c-5-2.3-10.3-3.3-15.3-2.7C346.3,452.2,371.2,495.7,436.1,503z"/>
	<path style="fill:#A06120;" d="M557,431.1c1.1-3.8,1.9-7.8,2.4-11.7c1.4-11.9-0.3-22.9-4.3-33c14.8-21.7,6.9-49-13.1-58.7
		c0,1.9-0.4,3.9-1.8,6c-3-5.9-8.6-7.8-14-9.9c-11.1-0.5-21.9,3.3-30.3,9.9c-4.4-1.6-8.8-3-13.3-4c-2-0.5-4.1-0.9-6.1-1.3
		c-4-4.8-9.8-9.7-14-11.3c0,1.2-0.2,2.5-0.7,3.8c-1.3-4.3-1.7-7.9-2.5-11.8c-11.2,3-19.2,12-28.8,18.4c0.3-1.2,0.6-2.6,1-4.8
		c-5.7,3.7-14.6,9.3-23.2,17l0,0c-3.7,1.9-7.3,4-10.7,6.3c-11.9-5.6-26.6-6.2-39.2,0.1c-2.1,3-3.9,6.2-4,10.2
		c-0.7-2.1-1.4-4.3-2.1-6.5c-11.8,8.8-16.8,24.1-13.7,38.6c1.3,1.1,2.9,2,4.8,2.5c-1.2,1.3-2.1,2.8-2.6,4.4
		c2.6,6.2,6.8,12.1,12.7,17c-1.8,14.6,0.8,29.3,7.9,42.6c3.1,5.9,7.1,11.5,12,16.7c17.4,18.4,42.9,27.9,69.4,29.2
		c1.4,0.3,2.8,0.6,4.2,0.8c4.7,0.8,9.7,1.1,14.7,0.8c9.5-0.5,19.1-2.9,27.3-7.4c14.6-4.5,28.3-11.6,39.5-21
		c8.1-6.7,14.9-14.7,20.1-23.8c1.9-3.4,3.7-7,5.2-10.6c-2.5-1-3.7-1.4-5.3-2.1C552.5,436.6,555.7,435,557,431.1z"/>
	<path style="fill:#B26F32;" d="M451.4,404.7c1.4,12.3,3.7,24.8,5.5,37c1.4,9.4,1.7,19.4-1.8,28.6c-5.2,13.5-41.1,3.9-41.1,3.9
		l2,17.5c0,0-23.3-6.1-34.5-24.6c3.1,1.1,11.5,0.3,14.8,0.5c-12.8-3.5-17.3-7.8-23.1-17.7c-6.5-11-6.2-22.3-6.2-22.3
		s7.9,0.1,11.5,0.8c-6.4-12.5-6.6-28.3,0.3-40.5c5.4-9.7,14.2-18.2,24.7-23.6c7.8-4,16.3-8.1,25.2-9c13.9-1.3,18,19.2,19.9,29.1
		C449.7,391.2,450.6,398,451.4,404.7z"/>
	<path style="fill:#B26F32;" d="M456.4,404.1c1.6,12.3,2.8,25,4.6,37.2c1.8,11.8,2.7,18.8,7.5,27.4c7.1,12.6,40.8-6,40.8-6l2.2,17.5
		c0,0,21.2-11.5,27.6-32.1c-2.8,1.8-11.1,3.1-14.3,4c11.6-6.5,14.9-11.7,18.2-22.7c3.7-12.2,0.7-23.1,0.7-23.1s-7.6,2-11,3.6
		c3.2-13.7-0.4-29-10-39.3c-7.6-8.1-18.2-14.2-29.6-17c-8.5-2-17.8-4-26.6-2.7c-13.8,2-12.9,22.9-12.3,33
		C454.8,390.6,455.5,397.4,456.4,404.1z"/>
	<path style="fill:#B26F32;" d="M521.4,328.9c16.6,4,31.1,15.4,34.2,33.1c2.5-3.3,4.3-7.1,5.4-11.4c-3-9.9-9.7-18.4-19.1-23
		c0,1.9-0.4,3.9-1.8,6c-3-5.9-8.6-7.8-14-9.9c-8.8-0.4-17.4,2-24.8,6.2c7.7-0.3,15.4,3.3,22.9,5.6
		C523,333.8,522.7,330.8,521.4,328.9z"/>
	<path style="fill:#B26F32;" d="M344.7,383.6c-0.9-16,14.1-24.9,25-34.3c-0.6,3.1-0.3,6.1,0.1,9.1c4.4-8.7,14.2-12.3,24.1-13.9
		c-11.2-4.1-24.2-4-35.5,1.6c-2.1,3-3.9,6.2-4,10.2c-0.7-2.1-1.4-4.3-2.1-6.5c-9.4,7-14.4,18-14.6,29.5
		C339.8,381,342.1,382.5,344.7,383.6z"/>
	<path style="fill:#683A10;" d="M457.5,426.6l-1,0.1l-11-78.1l2-0.2c0,0,4.3,35,5.7,46.7C454.6,406.7,457.5,426.6,457.5,426.6z"/>
	<path style="fill:#894C15;" d="M543,398.8c2-0.2,6.8-1.1,9-1.9c2,30.3-3.6,50.1-31,83c2.7-1.8,5.3-3.8,7.7-5.8
		c8.1-6.7,14.9-14.7,20.1-23.8c1.9-3.4,3.7-7,5.2-10.6c-2.5-1-3.7-1.4-5.3-2.1c3.8-1,6.9-2.6,8.2-6.5c1.1-3.8,1.9-7.8,2.4-11.7
		c1.4-11.9-0.3-22.9-4.3-33c3.9-5.7,6.2-11.7,7.1-17.7C556.6,379.4,550.2,389.1,543,398.8z"/>
	<path style="fill:#894C15;" d="M359.5,419.8c1.8,0.4,5.8,1,10.2,0c-5.3-2.9-20.2-14.1-25.2-17.6c2.4,3.7,5.4,7.1,9.1,10.1
		c-1.8,14.6,0.8,29.3,7.9,42.6c3.1,5.9,7.1,11.5,12,16.7c6.6,7,14.3,12.7,22.9,17.1C373.2,470.8,365.4,447.3,359.5,419.8z"/>
	<path style="fill:#B26F32;" d="M425,354c-0.5-3.2-0.5-5.3,1.2-8c23.2,8.5,37.1,4.3,55.8-1.5c-6.5-0.5-12-2.2-15.7-6.3
		c6.1,2.6,12.1,3.4,18.7,2.3c-2.3-3.5-3.1-5.6-8.4-12c-4-4.8-9.8-9.7-14-11.3c0,1.2-0.2,2.5-0.7,3.8c-1.3-4.3-1.7-7.9-2.5-11.8
		c-11.2,3-19.2,12-28.8,18.4c0.3-1.2,0.6-2.6,1-4.8c-5.3,3.4-14.6,9.1-23.2,17C406.8,350.9,417.5,354.1,425,354z"/>
	<path style="fill:#B26F32;" d="M489.3,495.1c-8.2,4.5-17.9,6.9-27.3,7.4c-5,0.3-10,0-14.7-0.8c-1.4-0.2-2.8-0.5-4.2-0.8
		c-6-1.5-11.8-3.9-16.7-7.7c-11.9-9.1-16.1-23.5-10.5-37.6c13.3-33.6,67.4-40.1,88.3-10.7c8.7,12.3,8.1,27.3-1.2,39
		C499.1,488.5,494.5,492.2,489.3,495.1z"/>
	<path style="fill:#C6844E;" d="M425.9,456.2c12.5,13.3,57.3,7.1,68.8-6.9c6-7.3,2.5-11.9-2.8-15.7c-19.9-12.3-49.7-8.9-66.5,7.5
		C420.8,446.5,422,452.3,425.9,456.2z"/>
	<path style="fill:#C6844E;" d="M463.5,466.5c0-0.5,0-1,0-1.5C463.3,465.5,463.4,466,463.5,466.5z"/>
	<path style="fill:#683A10;" d="M486.7,459.9c-0.8-0.3-1.6,0.1-1.9,0.8c-2.9,7.4-10.2,12.9-19.2,14.7l-2.6-21.6l-3,0.4l2.6,21.7
		c-10,1.1-19.3-2.6-24.3-9.6c-0.5-0.7-1.4-0.8-2.1-0.4c-0.7,0.5-0.8,1.4-0.4,2.1c5.7,8,16.2,12.1,27.5,10.8c0,0,0,0,0,0
		c11.3-1.4,20.5-7.9,24.1-17C487.9,461.1,487.5,460.2,486.7,459.9z"/>
	<path style="fill:#242D35;" d="M463.3,458.8c-0.1,0-0.1,0-0.2,0c-7.7,1.2-15.9,1-21.4-0.8c-6.5-2.2-9-6.3-6.3-10.7
		c6.5-10.6,35.4-15,47.1-7.2c4.9,3.3,4.8,7.7,0,11.6C478.5,455.1,471,457.7,463.3,458.8z M414.9,413.6c-3.9,0.5-6.5,5.7-5.8,11.6
		c0.7,5.9,4.5,10.4,8.4,9.9c3.9-0.5,6.5-5.7,5.8-11.6C422.6,417.6,418.9,413.1,414.9,413.6z M502.8,413.8c0.7,5.9-1.9,11.1-5.8,11.6
		c-3.9,0.5-7.7-4-8.4-9.9c-0.7-5.9,1.9-11.1,5.8-11.6C498.3,403.5,502,407.9,502.8,413.8z"/>
	<path style="fill:#BFD0DD;" d="M494.6,405.9c-2.6,0.3-4.4,4.3-4.1,8.6l6.4-8C496.2,406.1,495.4,405.8,494.6,405.9z"/>
	<path style="fill:#BFD0DD;" d="M415.3,415.6c-2.6,0.3-4.4,4.3-4.1,8.6l6.4-8C416.9,415.7,416.1,415.5,415.3,415.6z"/>
	<path style="fill:#BFD0DD;" d="M458.9,437.6c-6.6,0.8-12.2,3.2-15.4,6.4l31.9-3.9C471.4,437.7,465.4,436.8,458.9,437.6z"/>
	<path style="fill:#683A10;" d="M511.4,347.9c20.2-18.4,46.5,9.6,27.4,29C534.2,366.5,522.8,354.4,511.4,347.9z M387.5,363
		c-24-13-42.8,20.5-19.7,34.7C369.9,386.5,378,372,387.5,363z"/>
	<path style="fill:#B26F32;" d="M558.7,517.8c0,0.3,2.6,1.1,2.9,1.2c-0.5-8.9-11.8-16.5-18.4-21.1c1.4,4.6,4.9,9.8,3.3,14.9
		c-2.3,7.4-18.1,12.2-24.2,16.1c-7.6,4.8-17.5,12-16.8,22.2c1-1.1,1.9-2.4,2.7-3.6c-0.9,1.3,0.9,5.8,1.7,7c1.1,1.7,2.9,2.9,4.9,3.5
		c4,1.2,9.2,0.4,12.5-2.2c1-0.8,10.5-7.1,10.5-7.2c0.2,1.7-0.1,3.6-0.6,5.2C556.7,541,558.2,531.7,558.7,517.8z"/>
	<path style="fill:#683A10;" d="M416.2,397.5c-3.9-2.5-11.7-5.3-23.6,0.6c1.8,0,3.9,0.4,5.7,1.3c-6.1,0.2-10.2,5.4-10.9,8.3
		C403.3,407.7,412.9,401.1,416.2,397.5z"/>
	<path style="fill:#683A10;" d="M488.8,388.7c3.2-3.3,10.1-7.9,23.1-5c-1.7,0.4-3.7,1.3-5.2,2.6c6-1.3,11.2,2.8,12.6,5.4
		C503.7,395.5,492.9,391.4,488.8,388.7z"/>
	<path style="fill:#B26F32;" d="M355.2,469.9c-3.1-3.3-6.5-6.7-9.1-10.4c0.5,1.3,0.2,2.9,0.5,4.2c-3.1-1.2-6.3-3-8.8-5.2
		c-3.3,5.8-4.7,14.5,2.2,19.6c-4,0.4-5.8,0.4-9.4-1.3c2.3,7.6,5.9,14.9,11.9,20.3c2.8,2.5,5.9,5,9,7c1.6,1,9,3.3,9.6,4.5
		c-1.8-3.5-3.1-7.1-5-10.5c13.1,17.2,36.7,26.8,56,21.5c6.4-1.8,11.1-12.6,0.5-16.5c-2.5-0.9-4.9-1.9-7.4-2.8
		c-11.7-4.6-23.3-9.7-34-16.4C365.2,479.9,360.1,475,355.2,469.9z"/>
</g>
<g>
	<path style="fill:#8BFF48;" d="M424.4,547l5.3,43.8c1,8,0.8,8-7.3,9c-4,0.5-7.5,1.2-8.2-2c-0.3-1.6-0.7-3.5-1-5.7
		c-0.9-7.2-2.1-17-3.6-29.3l-3.5-29.1c-0.9-7.2-1.8-10.7-6.1-10.5c-0.7,0.1-4.3,0.5-5.8,0.4c-4.2,0.2-4.1-4.1-4.4-9.4
		c0-1.6,0.7-2.8,2.4-3.7l2.1-1c4.8-2.4,8.2-5.5,10-9.5c1.3-2.6,3.4-4,6.5-4.2l0.4-0.1c6-0.9,6.9-0.2,7.6,5.8L424.4,547z
		 M480.3,539.4l3.4,28.4c2.6,18.6-17.4,34.2-35.9,25.5c-8.4-4.1-13.1-10.4-14-19.3c-0.8-6.8-3-25.7-6.9-56.6
		c-0.6-4.9-0.3-8.5,0.9-10.9c4.8-10.2,11.3-15.6,19.5-16.3c4-0.5,5.8-0.6,5.3-0.6c10.1-0.5,18.1,7.9,20.1,10.9
		c2.4,3.3,3.7,6.8,4.1,10.2L480.3,539.4z M465.6,564l-5.3-43.3c-0.6-5-0.5-8.9-5.1-12c-3.1-2.2-7.4-1.4-9.7,1.8
		c-2,2.9-1.9,7.7-1.5,11.3c1.5,13.2,3.2,27.5,5.2,42.9c0.5,4.4,1.3,7.3,3.3,9.8c3.9,4.8,11.8,2.9,13.1-3.4
		C466,569.3,466,567,465.6,564z M514.5,500.6c4.1-0.5,8.5,2.9,9.3,8.5c0.9,6.3,0.3,7,4.4,6.8c3.1-0.2,6.1-0.6,9.2-1.1
		c3.5-0.4,4.5-1.4,4.2-5c-0.4-4.5-0.7-13.1-5.8-17.9c-5.6-5.2-10.3-8.1-14-9c-1.2-0.3-2.7-0.3-4.1-0.3c-1.9,0.2-5,0.5-9.3,1.1
		c-1.5,0.2-3.1,0.7-4.9,1.6c-9.2,4.7-14.2,15.2-12.8,24.2l2.1,17.6l-0.1,0c-5.5,0.7-7,0.7-7.9,1.4c-0.4,0.3-0.6,0.8-0.6,1.4
		c0.1,2.1,0.2,3,0.6,4.7c0.3,1.6,1.3,1.9,3.8,1.6l5.3-0.6l0.7,4.7l-0.3,0c-5.5,0.7-7,0.7-7.9,1.4c-0.4,0.4-0.7,0.8-0.6,1.4
		c0.1,2.1,0.2,3,0.6,4.7c0.3,1.6,1.3,1.9,3.8,1.6l5.5-0.7l2.3,19.1c0.4,4.9,1.9,8.6,4.5,11.2c17.2,18.3,42.4,7.9,45.2-12.1
		c-17.2,13.1-41.2,11.8-45.9-11.2c-2.1-10.2,2.4-16.9,8.4-22.3l12.5-1.5c2.5-0.3,3.3-0.9,3.3-2.5c-0.1-1.8-0.2-2.7-0.6-4.7
		c-0.1-0.6-0.4-1-0.9-1.2c-0.1-0.1-0.4-0.1-0.7-0.1c0,0,0,0,0,0c-0.9-0.1-2.4,0.1-4.7,0.3l-0.6,0.1c-2.9,0.3-6.3,0.8-9,1.1l-0.1,0
		l-0.6-5.2c-0.2-1.9-0.4-3.7-0.7-5.6c-0.4-3.7-1.2-7.1,1.4-10.7C510.8,502,512.4,500.9,514.5,500.6z"/>
	<path style="fill:#67DD1B;" d="M413,589.8c0.1,0.8,0.2,1.5,0.3,2.3c0.3,2.2,0.7,4.1,1,5.7c0.7,3.2,4.2,2.5,8.2,2c8.1-1,8.3-1,7.3-9
		l-0.6-4.9L413,589.8z"/>
	<path style="fill:#67DD1B;" d="M400.2,505.5c-1.6,1.5-3.6,2.8-5.8,3.9l-2.1,1c-1.7,1-2.4,2.1-2.4,3.7c0.3,5.2,0.3,9.6,4.4,9.4
		c1.5,0.1,5.1-0.3,5.8-0.4c4.3-0.2,5.2,3.3,6.1,10.5l0.8,7l16.3-3.1l-4.1-33.9L400.2,505.5z"/>
	<path style="fill:#67DD1B;" d="M437,584c2.4,3.9,6,7,10.9,9.4c16.8,7.9,34.9-4.3,36.1-20.6L437,584z"/>
	<path style="fill:#67DD1B;" d="M506.8,567.5l-8.7,2.1c0.6,4.2,2,7.5,4.3,9.8c17.2,18.3,42.4,7.9,45.2-12.1
		C534,577.7,516,579,506.8,567.5z"/>
	<path style="fill:#67DD1B;" d="M471.2,498.5l-41.2,4.1c-0.7,1.2-1.4,2.5-2.1,4c-1.2,2.4-1.5,6-0.9,10.9c0.9,6.9,1.7,13.3,2.4,19
		l16.1-3c-0.5-4-0.9-7.8-1.3-11.6c-0.4-3.5-0.6-8.3,1.5-11.3c2.3-3.1,6.6-3.9,9.7-1.8c4.6,3,4.4,7,5.1,12l1.2,9.6l17.3-3.2l-2-16.5
		c-0.4-3.4-1.7-6.8-4.1-10.2C472.4,499.9,471.9,499.2,471.2,498.5z"/>
	<path style="fill:#67DD1B;" d="M493,496.3c-2.1,4.3-3,9-2.3,13.4l1.8,15l16.4-3.1l-0.2-1.5c-0.2-1.9-0.4-3.7-0.7-5.6
		c-0.4-3.7-1.2-7.1,1.4-10.7c1.3-1.8,3-2.9,5-3.2c4.1-0.5,8.5,2.9,9.3,8.5c0.9,6.3,0.3,7,4.4,6.8c3.1-0.2,6.1-0.6,9.2-1.1
		c3.5-0.4,4.5-1.4,4.2-5c-0.4-4.4-0.7-13-5.7-17.8L493,496.3z"/>
	<path style="fill:#388E00;" d="M547.7,567.3c-0.5,3.6-1.8,6.9-3.5,9.7c-14.2,6.4-32.3,5-40.5-14.9c0,0,4.3,12.1,19.4,13.3
		C536.1,576.5,547.7,567.3,547.7,567.3z"/>
</g>
</svg>
