
<svg xmlns="http://www.w3.org/2000/svg" version="1.1" xmlns:xlink="http://www.w3.org/1999/xlink" preserveAspectRatio="none" x="0px" y="0px" width="53px" height="53px" viewBox="0 0 53 53">
<defs>
<g id="Layer1_0_FILL">
<path fill="#93A2AE" stroke="none" d="
M 52 26.6
Q 52 16 44.55 8.5 37.1 1 26.6 1 16 1 8.5 8.45 1 15.95 1 26.5 1 37 8.45 44.5 15.9 52 26.4 52 37 52.05 44.5 44.6 52 37.15 52 26.6
M 20.8 17.1
Q 21.75 18.05 21.7 19.35 21.7 20.65 20.8 21.6 19.85 22.55 18.5 22.55 17.2 22.55 16.25 21.6 15.35 20.65 15.35 19.35 15.35 18 16.3 17.1 17.25 16.15 18.6 16.15 19.9 16.2 20.8 17.1
M 36.75 17.1
Q 37.7 18.05 37.65 19.4 37.65 20.7 36.75 21.6 35.8 22.55 34.5 22.55 33.15 22.55 32.25 21.6 31.3 20.65 31.3 19.35 31.3 18.05 32.25 17.1 33.15 16.15 34.5 16.15 35.8 16.15 36.75 17.1
M 12.45 33.55
Q 11.95 32.75 12.3 32 12.6 31.25 13.55 31.05 14.6 30.9 15.2 31.95 16.6 34.25 18.65 35.8 23.35 39.25 29 38.15 34.7 37.05 37.75 32.1 38.15 31.45 38.75 31.15 39.7 30.65 40.45 31.6 41.25 32.45 40.6 33.5 38.85 36.5 36.2 38.4 31.8 41.6 25.75 41.6 17.25 41.2 12.45 33.55 Z"/>
</g>
</defs>

<g transform="matrix( 1, 0, 0, 1, 0,0) ">
<use xlink:href="#Layer1_0_FILL"/>
</g>
</svg>
