
<svg xmlns="http://www.w3.org/2000/svg" version="1.1" xmlns:xlink="http://www.w3.org/1999/xlink" preserveAspectRatio="none" x="0px" y="0px" width="74px" height="74px" viewBox="0 0 74 74">
<defs>
<g id="Layer0_0_FILL">
<path fill="#FFFFFF" stroke="none" d="
M 74.5 37.25
Q 74.5 21.8 63.6 10.9 52.7 0 37.25 0 21.8 0 10.9 10.9 0 21.8 0 37.25 0 52.7 10.9 63.6 21.8 74.5 37.25 74.5 52.7 74.5 63.6 63.6 74.5 52.7 74.5 37.25
M 58.7 19.4
Q 58.8 19.45 58.8 19.6
L 58.8 55.3
Q 58.8 55.4 58.7 55.5 58.65 55.55 58.5 55.55
L 14.45 55.55
Q 14.3 55.55 14.25 55.5 14.15 55.4 14.15 55.3
L 14.15 19.6
Q 14.15 19.5 14.25 19.4 14.35 19.3 14.45 19.3
L 58.5 19.3
Q 58.6 19.3 58.7 19.4
M 44.05 34.7
Q 43.8 34.65 43.6 34.8
L 38 38.7
Q 37.75 38.85 37.65 38.65
L 31.05 27.3
Q 30.9 27.1 30.75 27.1 30.6 27.1 30.45 27.3
L 18.2 50.75
Q 18.1 51 18.2 51.1 18.25 51.25 18.5 51.25
L 54.35 51.25
Q 54.55 51.25 54.65 51.15 54.75 51 54.6 50.8
L 44.4 34.95
Q 44.3 34.75 44.05 34.7
M 51.8 30.5
Q 52.7 29.6 52.7 28.4 52.7 27.15 51.8 26.25 50.95 25.35 49.65 25.35 48.4 25.35 47.5 26.25 46.6 27.15 46.6 28.4 46.6 29.6 47.5 30.5 48.4 31.4 49.65 31.4 50.95 31.4 51.8 30.5 Z"/>

<path fill="#3B4452" stroke="none" d="
M 58.8 19.6
Q 58.8 19.45 58.7 19.4 58.6 19.3 58.5 19.3
L 14.45 19.3
Q 14.35 19.3 14.25 19.4 14.15 19.5 14.15 19.6
L 14.15 55.3
Q 14.15 55.4 14.25 55.5 14.3 55.55 14.45 55.55
L 58.5 55.55
Q 58.65 55.55 58.7 55.5 58.8 55.4 58.8 55.3
L 58.8 19.6
M 52.7 28.4
Q 52.7 29.6 51.8 30.5 50.95 31.4 49.65 31.4 48.4 31.4 47.5 30.5 46.6 29.6 46.6 28.4 46.6 27.15 47.5 26.25 48.4 25.35 49.65 25.35 50.95 25.35 51.8 26.25 52.7 27.15 52.7 28.4
M 43.6 34.8
Q 43.8 34.65 44.05 34.7 44.3 34.75 44.4 34.95
L 54.6 50.8
Q 54.75 51 54.65 51.15 54.55 51.25 54.35 51.25
L 18.5 51.25
Q 18.25 51.25 18.2 51.1 18.1 51 18.2 50.75
L 30.45 27.3
Q 30.6 27.1 30.75 27.1 30.9 27.1 31.05 27.3
L 37.65 38.65
Q 37.75 38.85 38 38.7
L 43.6 34.8 Z"/>
</g>
</defs>

<g transform="matrix( 1, 0, 0, 1, 0,0) ">
<use xlink:href="#Layer0_0_FILL"/>
</g>
</svg>
