
<svg xmlns="http://www.w3.org/2000/svg" version="1.1" xmlns:xlink="http://www.w3.org/1999/xlink" preserveAspectRatio="none" x="0px" y="0px" width="74px" height="74px" viewBox="0 0 74 74">
<defs>
<g id="Layer0_0_FILL">
<path fill="#D92626" stroke="none" d="
M 74.75 37.5
Q 74.75 22.05 63.85 11.15 52.95 0.25 37.5 0.25 22.05 0.25 11.15 11.15 0.25 22.05 0.25 37.5 0.25 52.95 11.15 63.85 17.8 70.5 26.2 73.1 31.5 74.75 37.5 74.75 43.5 74.75 48.85 73.1 57.2 70.5 63.85 63.85 74.75 52.95 74.75 37.5
M 37.05 59.8
Q 36.85 59.95 36.65 59.95 36.45 59.95 36.25 59.8
L 27 53.7
Q 26.7 53.45 26.45 53.5 26.2 53.5 25.85 53.7 25.25 54.1 16.8 59.7
L 16.25 60.05 16.25 16.25 57.05 16.25 57.05 60.05
Q 56.8 59.9 56.55 59.7 48.85 54.65 47.3 53.6 47.05 53.45 46.85 53.45 46.65 53.45 46.4 53.6 40.15 57.75 37.05 59.8
M 42.8 27.1
Q 41.8 26.3 41.1 25.9 40.15 25.35 39.25 25.15
L 38.6 25 38.6 24.3
Q 38.6 23.95 38.6 22.15
L 35.35 22.15 35.35 24.85 34.55 25.05
Q 30.75 26.1 30.1 29.8 29.8 31.45 30.6 32.75 31.25 33.85 32.7 34.85 33.25 35.2 34.05 35.65 34.55 35.9 35.45 36.35 38.4 37.9 38.85 38.15 40.1 38.85 39.85 40.1 39.6 41.45 38.3 41.8 35.4 42.65 33.3 41.2
L 32.35 40.5 30.55 43.15
Q 32.65 45 35.35 45.35
L 35.35 48.05 38.6 48.05
Q 38.65 47.45 38.65 47.15 38.65 46.6 38.6 46.25 38.55 46.05 38.6 45.75 38.6 45.35 38.6 45.25
L 39.55 44.85
Q 42.65 43.8 43.2 40.25 43.6 37.55 40.95 35.65 40.35 35.2 39.5 34.75 38.5 34.2 37.95 33.95 35.65 32.8 34.5 32.15 33.2 31.4 33.4 30.1 33.65 28.75 35.1 28.35 38 27.6 40 29.1
L 40.9 29.7 42.8 27.1 Z"/>

<path fill="#FFFFFF" stroke="none" d="
M 36.65 59.95
Q 36.85 59.95 37.05 59.8 40.15 57.75 46.4 53.6 46.65 53.45 46.85 53.45 47.05 53.45 47.3 53.6 48.85 54.65 56.55 59.7 56.8 59.9 57.05 60.05
L 57.05 16.25 16.25 16.25 16.25 60.05 16.8 59.7
Q 25.25 54.1 25.85 53.7 26.2 53.5 26.45 53.5 26.7 53.45 27 53.7
L 36.25 59.8
Q 36.45 59.95 36.65 59.95
M 41.1 25.9
Q 41.8 26.3 42.8 27.1
L 40.9 29.7 40 29.1
Q 38 27.6 35.1 28.35 33.65 28.75 33.4 30.1 33.2 31.4 34.5 32.15 35.65 32.8 37.95 33.95 38.5 34.2 39.5 34.75 40.35 35.2 40.95 35.65 43.6 37.55 43.2 40.25 42.65 43.8 39.55 44.85
L 38.6 45.25
Q 38.6 45.35 38.6 45.75 38.55 46.05 38.6 46.25 38.65 46.6 38.65 47.15 38.65 47.45 38.6 48.05
L 35.35 48.05 35.35 45.35
Q 32.65 45 30.55 43.15
L 32.35 40.5 33.3 41.2
Q 35.4 42.65 38.3 41.8 39.6 41.45 39.85 40.1 40.1 38.85 38.85 38.15 38.4 37.9 35.45 36.35 34.55 35.9 34.05 35.65 33.25 35.2 32.7 34.85 31.25 33.85 30.6 32.75 29.8 31.45 30.1 29.8 30.75 26.1 34.55 25.05
L 35.35 24.85 35.35 22.15 38.6 22.15
Q 38.6 23.95 38.6 24.3
L 38.6 25 39.25 25.15
Q 40.15 25.35 41.1 25.9 Z"/>
</g>
</defs>

<g transform="matrix( 1, 0, 0, 1, 0,0) ">
<use xlink:href="#Layer0_0_FILL"/>
</g>
</svg>
