
<svg xmlns="http://www.w3.org/2000/svg" version="1.1" xmlns:xlink="http://www.w3.org/1999/xlink" preserveAspectRatio="none" x="0px" y="0px" width="29px" height="40px" viewBox="0 0 29 40">
<defs>
<g id="Layer0_0_FILL">
<path fill="#FF0000" stroke="none" d="
M 64.65 49.25
L 61 49.25
Q 61 54 57.65 57.05 54.35 60.05 49.9 60.05 45.4 60.05 42.15 57.05 38.75 54 38.75 49.25
L 35.2 49.25
Q 35.2 54.7 38.9 58.75 42.55 62.75 47.75 63.5
L 47.75 70.45 52 70.45 52 63.5
Q 57.3 62.75 60.9 58.75 64.65 54.65 64.65 49.25
M 43.55 36.6
L 43.55 49.25
Q 43.55 51.85 45.45 53.75 47.25 55.6 49.9 55.6 52.55 55.6 54.3 53.75 56.2 51.85 56.2 49.25
L 56.2 36.6
Q 56.2 34.05 54.3 32.2 52.5 30.25 49.9 30.25 47.25 30.25 45.45 32.2 43.55 34.05 43.55 36.6 Z"/>
</g>
</defs>

<g transform="matrix( 1, 0, 0, 1, -35.2,-30.25) ">
<use xlink:href="#Layer0_0_FILL"/>
</g>
</svg>
