
<svg xmlns="http://www.w3.org/2000/svg" version="1.1" xmlns:xlink="http://www.w3.org/1999/xlink" preserveAspectRatio="none" x="0px" y="0px" width="31px" height="41px" viewBox="0 0 31 41">


<g transform="matrix( 1, 0, 0, 1, 0,0) ">
<path fill="#FFFFFF" stroke="none" d="
M 2.05 6.05
L 0 8.1
Q 0.05 8.2 0.35 8.35
L 9.05 17.05
Q 9.45 17.4 9.45 18 9.45 18.6 9.4 19.8 9.45 20.85 9.55 21.6 9.95 25 12.85 26.85 15.75 28.65 19 27.6 19.5 27.45 19.85 27.85 20.3 28.3 21.7 29.65 16.8 32.4 11.8 29.6 6.65 26.75 6.45 20.65
L 3.6 20.65
Q 3.35 24.45 5.85 28.05 8.75 32.3 13.85 33.55
L 13.85 38.3 8 38.3 8 41.2 25.6 41.2 25.6 38.3 19.8 38.3 19.8 33.65 24 31.9 29.45 37.35 31.4 35.4 2.05 6.05
M 27.25 20.65
Q 27.05 21.6 26.7 23.5 26.6 23.85 26.4 24.4 26.25 24.65 26 25.25 25.9 25.55 26 25.65
L 28 27.65
Q 30.05 24.45 30.05 20.65
L 27.25 20.65
M 24.15 7.15
Q 24.15 4.35 22.1 2.25 20.1 0.15 17.25 0 14.35 -0.15 12.1 1.7 9.9 3.5 9.55 6.35 9.45 7 9.45 8.9 9.45 9.05 9.75 9.4
L 23.55 23.25 23.8 23.2
Q 24.15 21.6 24.15 20.8 24.2 11.7 24.15 7.15 Z"/>
</g>
</svg>
