
<svg xmlns="http://www.w3.org/2000/svg" version="1.1" xmlns:xlink="http://www.w3.org/1999/xlink" preserveAspectRatio="none" x="0px" y="0px" width="28px" height="41px" viewBox="0 0 28 41">


<g transform="matrix( 1, 0, 0, 1, 0,0) ">
<path fill="#FFFFFF" stroke="none" d="
M 26.85 24.45
Q 27.483203125 22.49765625 27.35 20.5
L 24.5 20.5
Q 24.35 26.6 19.2 29.4 17.8 30.2 16.4 30.55
L 14.55 30.85 13.75 30.8
Q 11.5 30.65 9.2 29.4 4.05 26.6 3.9 20.5
L 1 20.5
Q 0.8 24.25 3.25 27.9 6.15 32.1 11.25 33.35
L 11.25 38.1 5.4 38.1 5.4 41 23.05 41 23.05 38.1 17.2 38.1 17.2 33.45 18.2 33.05
Q 22.55 31.65 25.15 27.9 26.294921875 26.1943359375 26.85 24.45
M 21.7 13.45
L 21.65 13.45
Q 21.65 9.6 21.6 7.15 21.6 4.35 19.55 2.25 17.55 0.15 14.75 0 11.8 -0.15 9.6 1.65 7.35 3.5 7 6.3 6.9 6.9 6.9 8.55 6.9 8.7 6.9 8.85
L 6.9 19.25
Q 6.9 19.5 6.9 19.8 6.9 20.85 7 21.6 7.1 22.4 7.35 23.1 8.1 25.4 10.3 26.8 12.15 27.95 14.1 27.95 16.25 28.05 18.3 26.8 20.45 25.45 21.25 23.2 21.25 23.1 21.3 22.95 21.5 22.3 21.6 21.6 21.7 20.85 21.7 19.8 21.7 19.5 21.7 19.25
L 21.7 13.45 Z"/>
</g>
</svg>
