
<svg xmlns="http://www.w3.org/2000/svg" version="1.1" xmlns:xlink="http://www.w3.org/1999/xlink" preserveAspectRatio="none" x="0px" y="0px" width="58px" height="31px" viewBox="0 0 58 31">
<defs>
<g id="Layer0_0_FILL">
<path fill="#3B4452" stroke="none" d="
M 50.75 25.95
L 58.45 7.15 51.35 7.15 47.75 18.9 43.9 7.15 36.3 7.15 36.95 8.65
Q 35.65 7.5 33.7 7.15 31.7 6.75 28.45 6.75 26.65 6.75 24.75 7.05 23.05 7.35 22 7.9 21.95 4.1 19.85 2.05 17.65 0 13.3 0
L 0 0 0 26.15 8.05 26.15 8.05 16.4 12.45 16.4
Q 17.3 16.4 19.65 14.2 20.3 13.6 20.75 12.8
L 25.65 13.3
Q 26.1 12.1 26.75 11.65 27.65 11.05 29.4 11.05 30.75 11.05 31.35 11.6 31.9 12.15 31.9 13.5 30.7 14 29.35 14.35 28.55 14.55 24.1 15.5 20.75 16.15 19.45 17.55 18.25 18.9 18.25 21.1 18.25 23.45 19.95 25 21.7 26.55 25.05 26.55 27.6 26.55 29.5 25.75 30.85 25.2 32.3 23.8
L 32.35 23.85
Q 33.9 24.65 34.75 24.9 35.95 25.35 37.3 25.45 38.45 25.45 39.45 25.25 39.2 24.6 39.1 24.2 38.95 23.3 38.95 22.1
L 38.9 13.05 44.2 24.8
Q 43.7 26.05 42.1 26.55 40.8 27 39.2 26.9 38.8 26.9 37.95 26.8 36.85 26.6 36.55 26.4
L 37.15 31.5
Q 40.45 31.9 41.95 31.9 45.9 31.9 47.9 30.2 49.65 28.7 50.75 25.95
M 25.45 20.55
Q 25.45 19.85 26 19.2 26.6 18.65 28.8 18.05 30.35 17.7 31.9 17.1
L 31.9 18.3
Q 31.9 19.6 31.5 20.5 31.05 21.35 30 21.95 29 22.5 27.75 22.5 26.65 22.5 26 21.95 25.45 21.45 25.45 20.55
M 13.4 6.15
Q 14.2 7.05 14.2 8.25 14.2 9.55 13.25 10.3 12.35 11.15 10 11.15
L 8.05 11.15 8.05 5.3 10.3 5.3
Q 12.55 5.3 13.4 6.15 Z"/>
</g>
</defs>

<g transform="matrix( 1, 0, 0, 1, 0,0) ">
<use xlink:href="#Layer0_0_FILL"/>
</g>
</svg>
