
<svg xmlns="http://www.w3.org/2000/svg" version="1.1" xmlns:xlink="http://www.w3.org/1999/xlink" preserveAspectRatio="none" x="0px" y="0px" width="74px" height="74px" viewBox="0 0 74 74">
<defs>
<g id="Layer0_0_FILL">
<path fill="#FFFFFF" stroke="none" d="
M 74.5 37.25
Q 74.5 21.8 63.6 10.9 52.7 0 37.25 0 21.8 0 10.9 10.9 0 21.8 0 37.25 0 52.7 10.9 63.6 21.8 74.5 37.25 74.5 52.7 74.5 63.6 63.6 74.5 52.7 74.5 37.25
M 41.2 36.15
Q 41.2 34.8 40.65 34.25 40.05 33.7 38.7 33.7 36.95 33.7 36.05 34.3 35.4 34.75 34.95 35.95
L 30.05 35.45
Q 29.6 36.25 28.95 36.85 26.6 39.05 21.75 39.05
L 17.35 39.05 17.35 48.8 9.3 48.8 9.3 22.65 22.6 22.65
Q 26.95 22.65 29.15 24.7 31.25 26.75 31.3 30.55 32.35 30 34.05 29.7 35.95 29.4 37.75 29.4 41 29.4 43 29.8 44.95 30.15 46.25 31.3
L 45.6 29.8 53.2 29.8 57.05 41.55 60.65 29.8 67.75 29.8 60.05 48.6
Q 58.95 51.35 57.2 52.85 55.2 54.55 51.25 54.55 49.75 54.55 46.45 54.15
L 45.85 49.05
Q 46.15 49.25 47.25 49.45 48.1 49.55 48.5 49.55 50.1 49.65 51.4 49.2 53 48.7 53.5 47.45
L 48.2 35.7 48.25 44.75
Q 48.25 45.95 48.4 46.85 48.5 47.25 48.75 47.9 47.75 48.1 46.6 48.1 45.25 48 44.05 47.55 43.2 47.3 41.65 46.5
L 41.6 46.45
Q 40.15 47.85 38.8 48.4 36.9 49.2 34.35 49.2 31 49.2 29.25 47.65 27.55 46.1 27.55 43.75 27.55 41.55 28.75 40.2 30.05 38.8 33.4 38.15 37.85 37.2 38.65 37 40 36.65 41.2 36.15
M 17.35 33.8
L 19.3 33.8
Q 21.65 33.8 22.55 32.95 23.5 32.2 23.5 30.9 23.5 29.7 22.7 28.8 21.85 27.95 19.6 27.95
L 17.35 27.95 17.35 33.8
M 40.8 43.15
Q 41.2 42.25 41.2 40.95
L 41.2 39.75
Q 39.65 40.35 38.1 40.7 35.9 41.3 35.3 41.85 34.75 42.5 34.75 43.2 34.75 44.1 35.3 44.6 35.95 45.15 37.05 45.15 38.3 45.15 39.3 44.6 40.35 44 40.8 43.15 Z"/>

<path fill="#3B4452" stroke="none" d="
M 40.65 34.25
Q 41.2 34.8 41.2 36.15 40 36.65 38.65 37 37.85 37.2 33.4 38.15 30.05 38.8 28.75 40.2 27.55 41.55 27.55 43.75 27.55 46.1 29.25 47.65 31 49.2 34.35 49.2 36.9 49.2 38.8 48.4 40.15 47.85 41.6 46.45
L 41.65 46.5
Q 43.2 47.3 44.05 47.55 45.25 48 46.6 48.1 47.75 48.1 48.75 47.9 48.5 47.25 48.4 46.85 48.25 45.95 48.25 44.75
L 48.2 35.7 53.5 47.45
Q 53 48.7 51.4 49.2 50.1 49.65 48.5 49.55 48.1 49.55 47.25 49.45 46.15 49.25 45.85 49.05
L 46.45 54.15
Q 49.75 54.55 51.25 54.55 55.2 54.55 57.2 52.85 58.95 51.35 60.05 48.6
L 67.75 29.8 60.65 29.8 57.05 41.55 53.2 29.8 45.6 29.8 46.25 31.3
Q 44.95 30.15 43 29.8 41 29.4 37.75 29.4 35.95 29.4 34.05 29.7 32.35 30 31.3 30.55 31.25 26.75 29.15 24.7 26.95 22.65 22.6 22.65
L 9.3 22.65 9.3 48.8 17.35 48.8 17.35 39.05 21.75 39.05
Q 26.6 39.05 28.95 36.85 29.6 36.25 30.05 35.45
L 34.95 35.95
Q 35.4 34.75 36.05 34.3 36.95 33.7 38.7 33.7 40.05 33.7 40.65 34.25
M 41.2 40.95
Q 41.2 42.25 40.8 43.15 40.35 44 39.3 44.6 38.3 45.15 37.05 45.15 35.95 45.15 35.3 44.6 34.75 44.1 34.75 43.2 34.75 42.5 35.3 41.85 35.9 41.3 38.1 40.7 39.65 40.35 41.2 39.75
L 41.2 40.95
M 19.3 33.8
L 17.35 33.8 17.35 27.95 19.6 27.95
Q 21.85 27.95 22.7 28.8 23.5 29.7 23.5 30.9 23.5 32.2 22.55 32.95 21.65 33.8 19.3 33.8 Z"/>
</g>
</defs>

<g transform="matrix( 1, 0, 0, 1, 0,0) ">
<use xlink:href="#Layer0_0_FILL"/>
</g>
</svg>
