
<svg xmlns="http://www.w3.org/2000/svg" version="1.1" xmlns:xlink="http://www.w3.org/1999/xlink" preserveAspectRatio="none" x="0px" y="0px" width="74px" height="74px" viewBox="0 0 74 74">


<g transform="matrix( 1, 0, 0, 1, 0,0) ">
<path fill="#D92626" stroke="none" d="
M 74.5 37.25
Q 74.5 21.8 63.6 10.9 52.7 0 37.25 0 21.8 0 10.9 10.9 0 21.8 0 37.25 0 52.7 10.9 63.6 21.8 74.5 37.25 74.5 52.7 74.5 63.6 63.6 74.5 52.7 74.5 37.25
M 50 19.75
Q 50.05 19.55 50.1 19.1 50.25 17.8 50.95 16.75 51.65 15.7 52.7 15.2 53.25 14.95 53.8 14.85 54.35 14.75 54.9 14.8 56.75 14.85 58.1 16.3
L 58.25 16.4
Q 58.55 16.75 58.75 17 59.75 18.2 59.8 19.6 59.85 20.2 59.75 20.8 59.6 21.35 59.35 21.9 59.15 22.35 58.75 22.8 58.35 23.25 57.85 23.65 56.8 24.3 55.5 24.5 55 24.55 54.8 24.6 54.4 24.7 54.15 24.75 53.6 24.95 53.3 25.25 52.8 25.7 52.65 26.35 52.45 27 52.7 27.65 52.9 28.2 53.15 28.6 53.55 29.05 53.95 29.5
L 60.1 35.65
Q 60.75 36.3 60.9 37.05 61.05 37.75 60.7 38.45 60.65 38.5 60.6 38.65 60.4 38.9 60.1 39.15
L 59.1 40.2
Q 58.95 40.4 58.75 40.55 56.85 42.5 55.9 43.4 55.25 44.1 54.4 44.9
L 53.45 45.95
Q 53.05 46.3 52.5 46.5 52.15 46.7 51.8 46.7 51.5 46.65 51.2 46.45 51 46.2 50.9 45.85 50.85 45.6 50.75 45.3 50.75 45.2 50.7 44.65 50.45 42.4 49.15 41.1 48.8 40.8 48.4 40.55 47.45 39.8 46.35 39.55 45.75 39.45 45.1 39.5 44.45 39.5 43.85 39.7 43.5 39.75 43.05 39.95 41.75 40.55 40.8 41.4 39.95 42.3 39.45 43.6 39.25 44 39.15 44.45 39 45 38.95 45.6 38.95 46.3 39.05 46.9 39.25 47.95 39.95 49 40.25 49.3 40.55 49.65 41.9 51 44.05 51.25 44.65 51.35 44.7 51.35 45.05 51.4 45.3 51.45 45.7 51.6 45.9 51.8 46.15 52 46.15 52.35 46.15 52.7 46 53.1 45.75 53.55 45.35 53.95
L 38.65 60.7
Q 38.4 60.95 38.15 61.1 38 61.15 37.9 61.25 37.2 61.6 36.45 61.45 35.75 61.35 35.15 60.7
L 34.4 59.95
Q 30.85 56.4 30.15 55.75
L 28.9 54.5
Q 28.55 54.05 28 53.75 27.6 53.4 27.25 53.3 26.45 53 25.8 53.15 25.15 53.35 24.65 53.85 24.35 54.25 24.25 54.65 24.1 54.95 24.05 55.35 24 55.55 23.9 56.05 23.8 57.35 23.05 58.4 22.4 59.4 21.3 59.9 20.8 60.15 20.2 60.3 19.65 60.35 19.1 60.3 17.3 60.25 15.9 58.8
L 15.8 58.65
Q 14.35 57.3 14.25 55.5 14.25 54.9 14.3 54.4 14.45 53.8 14.7 53.3 15.15 52.15 16.2 51.5 17.2 50.8 18.5 50.6 19.05 50.55 19.25 50.55 19.65 50.5 19.9 50.35 20.4 50.15 20.75 49.9 21.25 49.4 21.4 48.8 21.6 48.15 21.3 47.45 21.1 46.95 20.85 46.5 20.45 46.05 20.1 45.6
L 18.85 44.45
Q 17.15 42.75 15.1 40.65
L 13.9 39.5
Q 13.25 38.85 13.15 38.05 13 37.35 13.3 36.7 13.4 36.5 13.45 36.45 13.65 36.2 13.85 35.9
L 14.95 34.9
Q 17.05 32.75 18.15 31.7
L 20.65 29.15
Q 21 28.75 21.5 28.6 21.9 28.4 22.25 28.45 22.55 28.45 22.8 28.7 23 28.9 23.15 29.25 23.2 29.5 23.25 29.9 23.25 29.95 23.35 30.55 23.6 32.65 24.9 34.05 25.2 34.35 25.6 34.6 26.6 35.35 27.7 35.55 28.25 35.65 28.9 35.6 29.55 35.6 30.15 35.45 30.55 35.35 31 35.15 32.3 34.55 33.2 33.7 34.05 32.85 34.6 31.55 34.75 31.1 34.9 30.7 35.05 30.15 35.1 29.5 35.1 28.85 34.95 28.2 34.75 27.15 34.05 26.15 33.8 25.8 33.45 25.45 32.1 24.15 29.95 23.9 29.4 23.85 29.3 23.85 29 23.75 28.75 23.65 28.35 23.55 28.15 23.3 27.9 23.1 27.9 22.8 27.9 22.45 28 22.1 28.25 21.55 28.6 21.15
L 29.65 20.15
Q 30.5 19.35 31.15 18.7 32.15 17.6 34.3 15.45
L 35.35 14.4
Q 35.6 14.2 35.9 14 36 13.9 36.15 13.9 36.8 13.5 37.55 13.7 38.3 13.8 38.85 14.4
L 39.65 15.2
Q 43.15 18.7 43.85 19.4
L 45.1 20.6
Q 45.55 21.05 46 21.45 46.4 21.7 46.8 21.9 47.6 22.15 48.25 21.95 48.95 21.75 49.4 21.25 49.65 20.9 49.8 20.45 49.9 20.15 50 19.75 Z"/>

<path fill="#FFFFFF" stroke="none" d="
M 50.1 19.1
Q 50.05 19.55 50 19.75 49.9 20.15 49.8 20.45 49.65 20.9 49.4 21.25 48.95 21.75 48.25 21.95 47.6 22.15 46.8 21.9 46.4 21.7 46 21.45 45.55 21.05 45.1 20.6
L 43.85 19.4
Q 43.15 18.7 39.65 15.2
L 38.85 14.4
Q 38.3 13.8 37.55 13.7 36.8 13.5 36.15 13.9 36 13.9 35.9 14 35.6 14.2 35.35 14.4
L 34.3 15.45
Q 32.15 17.6 31.15 18.7 30.5 19.35 29.65 20.15
L 28.6 21.15
Q 28.25 21.55 28 22.1 27.9 22.45 27.9 22.8 27.9 23.1 28.15 23.3 28.35 23.55 28.75 23.65 29 23.75 29.3 23.85 29.4 23.85 29.95 23.9 32.1 24.15 33.45 25.45 33.8 25.8 34.05 26.15 34.75 27.15 34.95 28.2 35.1 28.85 35.1 29.5 35.05 30.15 34.9 30.7 34.75 31.1 34.6 31.55 34.05 32.85 33.2 33.7 32.3 34.55 31 35.15 30.55 35.35 30.15 35.45 29.55 35.6 28.9 35.6 28.25 35.65 27.7 35.55 26.6 35.35 25.6 34.6 25.2 34.35 24.9 34.05 23.6 32.65 23.35 30.55 23.25 29.95 23.25 29.9 23.2 29.5 23.15 29.25 23 28.9 22.8 28.7 22.55 28.45 22.25 28.45 21.9 28.4 21.5 28.6 21 28.75 20.65 29.15
L 18.15 31.7
Q 17.05 32.75 14.95 34.9
L 13.85 35.9
Q 13.65 36.2 13.45 36.45 13.4 36.5 13.3 36.7 13 37.35 13.15 38.05 13.25 38.85 13.9 39.5
L 15.1 40.65
Q 17.15 42.75 18.85 44.45
L 20.1 45.6
Q 20.45 46.05 20.85 46.5 21.1 46.95 21.3 47.45 21.6 48.15 21.4 48.8 21.25 49.4 20.75 49.9 20.4 50.15 19.9 50.35 19.65 50.5 19.25 50.55 19.05 50.55 18.5 50.6 17.2 50.8 16.2 51.5 15.15 52.15 14.7 53.3 14.45 53.8 14.3 54.4 14.25 54.9 14.25 55.5 14.35 57.3 15.8 58.65
L 15.9 58.8
Q 17.3 60.25 19.1 60.3 19.65 60.35 20.2 60.3 20.8 60.15 21.3 59.9 22.4 59.4 23.05 58.4 23.8 57.35 23.9 56.05 24 55.55 24.05 55.35 24.1 54.95 24.25 54.65 24.35 54.25 24.65 53.85 25.15 53.35 25.8 53.15 26.45 53 27.25 53.3 27.6 53.4 28 53.75 28.55 54.05 28.9 54.5
L 30.15 55.75
Q 30.85 56.4 34.4 59.95
L 35.15 60.7
Q 35.75 61.35 36.45 61.45 37.2 61.6 37.9 61.25 38 61.15 38.15 61.1 38.4 60.95 38.65 60.7
L 45.35 53.95
Q 45.75 53.55 46 53.1 46.15 52.7 46.15 52.35 46.15 52 45.9 51.8 45.7 51.6 45.3 51.45 45.05 51.4 44.7 51.35 44.65 51.35 44.05 51.25 41.9 51 40.55 49.65 40.25 49.3 39.95 49 39.25 47.95 39.05 46.9 38.95 46.3 38.95 45.6 39 45 39.15 44.45 39.25 44 39.45 43.6 39.95 42.3 40.8 41.4 41.75 40.55 43.05 39.95 43.5 39.75 43.85 39.7 44.45 39.5 45.1 39.5 45.75 39.45 46.35 39.55 47.45 39.8 48.4 40.55 48.8 40.8 49.15 41.1 50.45 42.4 50.7 44.65 50.75 45.2 50.75 45.3 50.85 45.6 50.9 45.85 51 46.2 51.2 46.45 51.5 46.65 51.8 46.7 52.15 46.7 52.5 46.5 53.05 46.3 53.45 45.95
L 54.4 44.9
Q 55.25 44.1 55.9 43.4 56.85 42.5 58.75 40.55 58.95 40.4 59.1 40.2
L 60.1 39.15
Q 60.4 38.9 60.6 38.65 60.65 38.5 60.7 38.45 61.05 37.75 60.9 37.05 60.75 36.3 60.1 35.65
L 53.95 29.5
Q 53.55 29.05 53.15 28.6 52.9 28.2 52.7 27.65 52.45 27 52.65 26.35 52.8 25.7 53.3 25.25 53.6 24.95 54.15 24.75 54.4 24.7 54.8 24.6 55 24.55 55.5 24.5 56.8 24.3 57.85 23.65 58.35 23.25 58.75 22.8 59.15 22.35 59.35 21.9 59.6 21.35 59.75 20.8 59.85 20.2 59.8 19.6 59.75 18.2 58.75 17 58.55 16.75 58.25 16.4
L 58.1 16.3
Q 56.75 14.85 54.9 14.8 54.35 14.75 53.8 14.85 53.25 14.95 52.7 15.2 51.65 15.7 50.95 16.75 50.25 17.8 50.1 19.1 Z"/>
</g>
</svg>
