<svg width="65.5px4" height="50.7px4" viewBox="0 0 65.5 50.7" xmlns="http://www.w3.org/2000/svg" xmlns:xlink="http://www.w3.org/1999/xlink">
  <defs/>
  <g>
    <path stroke="none" fill="#94a2af" d="M54.3 35.6 L43.9 25.2 54.3 14.75 Q55.15 13.95 55.15 12.8 55.15 11.65 54.3 10.8 53.5 10 52.35 10 51.2 10 50.35 10.8 L39.95 21.25 29.55 10.8 Q28.75 10 27.6 10 26.45 10 25.6 10.8 24.8 11.65 24.8 12.8 24.8 13.95 25.6 14.75 L36 25.2 25.6 35.6 Q24.8 36.45 24.8 37.6 24.8 38.75 25.6 39.55 26.45 40.4 27.6 40.4 28.75 40.4 29.55 39.55 L39.95 29.15 50.35 39.55 Q51.2 40.4 52.35 40.4 53.5 40.4 54.3 39.55 55.15 38.75 55.15 37.6 55.15 36.45 54.3 35.6 M60.9 0 Q62.8 0 64.15 1.35 65.5 2.7 65.5 4.6 L65.5 46.05 Q65.5 47.95 64.15 49.35 62.8 50.7 60.9 50.7 L19.4 50.7 Q17.2 50.7 15 48.4 L0 26.15 13.25 4.6 15 2.3 Q17.2 0 19.4 0 L60.9 0"/>
  </g>
</svg>