
<svg xmlns="http://www.w3.org/2000/svg" version="1.1" xmlns:xlink="http://www.w3.org/1999/xlink" preserveAspectRatio="none" x="0px" y="0px" width="53px" height="53px" viewBox="0 0 53 53">
<defs>
<g id="Layer1_0_FILL">
<path fill="#FCB125" stroke="none" d="
M 52.1 26.7
Q 52.1 16.1 44.65 8.6 37.2 1.1 26.7 1.1 16.1 1.1 8.6 8.55 1.1 16.05 1.1 26.6 1.1 37.1 8.55 44.6 16 52.1 26.5 52.1 37.1 52.15 44.6 44.7 52.1 37.25 52.1 26.7
M 40.55 31.7
Q 41.35 32.55 40.7 33.6 38.95 36.6 36.3 38.5 31.9 41.7 25.85 41.7 17.35 41.3 12.55 33.65 12.05 32.85 12.4 32.1 12.7 31.35 13.65 31.15 14.7 31 15.3 32.05 16.7 34.35 18.75 35.9 23.45 39.35 29.1 38.25 34.8 37.15 37.85 32.2 38.25 31.55 38.85 31.25 39.8 30.75 40.55 31.7
M 21.8 19.45
Q 21.8 20.75 20.9 21.7 19.95 22.65 18.6 22.65 17.3 22.65 16.35 21.7 15.45 20.75 15.45 19.45 15.45 18.1 16.4 17.2 17.35 16.25 18.7 16.25 20 16.3 20.9 17.2 21.85 18.15 21.8 19.45
M 36.85 17.2
Q 37.8 18.15 37.75 19.5 37.75 20.8 36.85 21.7 35.9 22.65 34.6 22.65 33.25 22.65 32.35 21.7 31.4 20.75 31.4 19.45 31.4 18.15 32.35 17.2 33.25 16.25 34.6 16.25 35.9 16.25 36.85 17.2 Z"/>
</g>
</defs>

<g transform="matrix( 1, 0, 0, 1, 0,0) ">
<use xlink:href="#Layer1_0_FILL"/>
</g>
</svg>
