
<svg xmlns="http://www.w3.org/2000/svg" version="1.1" xmlns:xlink="http://www.w3.org/1999/xlink" preserveAspectRatio="none" x="0px" y="0px" width="42px" height="38px" viewBox="0 0 42 38">

<g transform="matrix( 1, 0, 0, 1, 0,0) ">
<path fill="#FFFFFF" stroke="none" d="
M 21.35 3.15
Q 21.35 2.75 21.25 2.3 20.95 1.3 20.1 1.75 19.7 1.9 19.15 2.3 17.2 4 13.95 7.3 10.75 10.6 8.75 12.25 8.5 12.5 8.05 12.5
L 3.05 12.5
Q 2.1 12.5 1.55 13.05 1 13.6 1 14.55
L 1 22.95
Q 1 23.9 1.55 24.5 2.1 25.05 3.1 25.05
L 8.1 25.05
Q 8.5 25.05 8.75 25.3 10.75 27 14 30.3 17.25 33.65 19.25 35.3 19.65 35.65 20.1 35.85 20.95 36.15 21.2 35.35 21.35 34.9 21.35 34.35
L 21.35 3.15
M 25.25 9.35
Q 25.35 10.05 25.9 10.45
L 26.6 11.05
Q 30.55 14.75 29.95 20.3 29.6 24.8 25.9 27.15 25.35 27.5 25.25 28.1 25.1 28.8 25.45 29.3 25.8 29.9 26.4 30.05 27.05 30.3 27.6 29.95 28.3 29.55 28.85 29.05 33.2 25.5 33.35 19.65 33.3 15.35 31.65 12.3 30.1 9.4 27.85 7.8 27.25 7.35 26.6 7.45 25.9 7.55 25.55 8.1 25.1 8.7 25.25 9.35
M 40.9 17.55
Q 40.838671875 16.55 40.7 15.55 40.05 11.0078125 37.7 7.05 35.6 3.55 32.75 1.35 32.1 0.9 31.45 1 30.85 1.05 30.35 1.6 29.95 2.2 30.1 2.85 30.2 3.55 30.8 4 31.8 4.8 32.25 5.3 39 12.5 37.4 22.8 36.3 29.95 30.7 33.6 29.8 34.25 30.1 35.3 30.2546875 35.9185546875 30.7 36.25 30.9685546875 36.4546875 31.35 36.55 32.05 36.6 32.7 36.25 35.4 34.45 37.35 31.65 39.9513671875 27.876171875 40.7 22.85 40.9732421875 21.0408203125 41 19.05
L 40.9 17.55 Z"/>
</g>
</svg>
