
<svg xmlns="http://www.w3.org/2000/svg" version="1.1" xmlns:xlink="http://www.w3.org/1999/xlink" preserveAspectRatio="none" x="0px" y="0px" width="74px" height="74px" viewBox="0 0 74 74">
<defs>
<g id="Layer0_0_FILL">
<path fill="#FFFFFF" stroke="none" d="
M 63.6 10.9
Q 61.4 8.7 59 6.95 49.55 0 37.25 0 21.8 0 10.9 10.9 0 21.8 0 37.25 0 52.7 10.9 63.6 19.05 71.75 29.75 73.8 33.35 74.5 37.25 74.5 41.15 74.5 44.8 73.8 52.55 72.3 59 67.6 61.4 65.8 63.6 63.6 74.5 52.7 74.5 37.25 74.5 21.8 63.6 10.9
M 44.95 21.2
L 44.95 36.1
Q 44.95 39.2 42.75 41.35 40.6 43.55 37.5 43.55 34.45 43.55 32.3 41.35 30.1 39.2 30.1 36.1
L 30.1 21.2
Q 30.1 18.1 32.3 15.95 34.45 13.75 37.5 13.75 40.6 13.75 42.75 15.95 44.95 18.1 44.95 21.2
M 46.65 45.25
Q 50.65 41.55 50.65 36.1
L 54.85 36.1
Q 54.85 42.4 50.45 47.2 46.2 51.9 40 52.8
L 40 60.95 35.05 60.95 35.05 52.8
Q 28.85 51.9 24.6 47.2 20.2 42.4 20.2 36.1
L 24.4 36.1
Q 24.4 41.55 28.4 45.25 32.25 48.8 37.5 48.8 42.8 48.8 46.65 45.25 Z"/>

<path fill="#3B4452" stroke="none" d="
M 50.65 36.1
Q 50.65 41.55 46.65 45.25 42.8 48.8 37.5 48.8 32.25 48.8 28.4 45.25 24.4 41.55 24.4 36.1
L 20.2 36.1
Q 20.2 42.4 24.6 47.2 28.85 51.9 35.05 52.8
L 35.05 60.95 40 60.95 40 52.8
Q 46.2 51.9 50.45 47.2 54.85 42.4 54.85 36.1
L 50.65 36.1
M 44.95 36.1
L 44.95 21.2
Q 44.95 18.1 42.75 15.95 40.6 13.75 37.5 13.75 34.45 13.75 32.3 15.95 30.1 18.1 30.1 21.2
L 30.1 36.1
Q 30.1 39.2 32.3 41.35 34.45 43.55 37.5 43.55 40.6 43.55 42.75 41.35 44.95 39.2 44.95 36.1 Z"/>
</g>
</defs>

<g transform="matrix( 1, 0, 0, 1, 0,0) ">
<use xlink:href="#Layer0_0_FILL"/>
</g>
</svg>
