<?xml version="1.0" encoding="UTF-8" standalone="no"?>
<svg
   xmlns:dc="http://purl.org/dc/elements/1.1/"
   xmlns:cc="http://creativecommons.org/ns#"
   xmlns:rdf="http://www.w3.org/1999/02/22-rdf-syntax-ns#"
   xmlns:svg="http://www.w3.org/2000/svg"
   xmlns="http://www.w3.org/2000/svg"
   xmlns:sodipodi="http://sodipodi.sourceforge.net/DTD/sodipodi-0.dtd"
   xmlns:inkscape="http://www.inkscape.org/namespaces/inkscape"
   viewBox="0 0 1226.5363 1163.1086"
   height="1163.1086"
   width="1226.5363"
   xml:space="preserve"
   version="1.1"
   id="svg2"
   sodipodi:docname="001.svg"
   inkscape:version="0.92.0 r15299"><sodipodi:namedview
     pagecolor="#ffffff"
     bordercolor="#666666"
     borderopacity="1"
     objecttolerance="10"
     gridtolerance="10"
     guidetolerance="10"
     inkscape:pageopacity="0"
     inkscape:pageshadow="2"
     inkscape:window-width="1920"
     inkscape:window-height="1017"
     id="namedview3737"
     showgrid="false"
     inkscape:zoom="0.50285714"
     inkscape:cx="571.77375"
     inkscape:cy="787.70216"
     inkscape:window-x="-8"
     inkscape:window-y="-8"
     inkscape:window-maximized="1"
     inkscape:current-layer="g10" /><metadata
     id="metadata8"><rdf:RDF><cc:Work
         rdf:about=""><dc:format>image/svg+xml</dc:format><dc:type
           rdf:resource="http://purl.org/dc/dcmitype/StillImage" /></cc:Work></rdf:RDF></metadata><defs
     id="defs6" /><g
     transform="matrix(1.25,0,0,-1.25,-259.47625,1365.7473)"
     id="g10"><g
       transform="matrix(0.09367676,0,0,0.09367676,44.944024,37.296121)"
       id="g12"><path
         id="path16"
         style="fill:#f16fa4;fill-opacity:1;fill-rule:nonzero;stroke:none"
         d="m 11888.1,6092.07 c -394.8,250.73 -1461.9,477.1 -1979.35,186.09 l 179.95,-2665.31 c 355.9,371.74 1012.6,438.05 1453.9,231.28 -265.7,433.05 -465.5,717.07 -767.4,1040.18 331.6,443 694,802.19 1112.9,1207.76"
         inkscape:connector-curvature="0" /><path
         id="path18"
         style="fill:#f16fa4;fill-opacity:1;fill-rule:nonzero;stroke:none"
         d="m 2219.98,4641.05 c 463.09,3.11 797.34,-91.84 1135.47,-370.41 l -284.56,2371.5 c -279.57,179.38 -690.86,176.49 -995.08,106.81 318.76,-345.59 550.35,-723.49 681.36,-1214.22 -234.25,-215.05 -439.13,-579.07 -537.19,-893.68"
         inkscape:connector-curvature="0" /><path
         id="path20"
         style="fill:#f74169;fill-opacity:1;fill-rule:nonzero;stroke:none"
         d="m 6347.09,8254.18 c -19.64,-42.25 -41.82,-71.14 -66.5,-86.66 -17.21,-11.36 -41.46,-21.82 -72.86,-31.29 -34.73,35 -46.89,89.06 -36.41,162.34 16.36,100.52 69.75,221.61 160.61,363.77 28.5,42.84 63.73,88.66 105.57,137.37 1.66,-220.91 -28.62,-402.23 -90.41,-545.53 m 829.62,1276.07 c -0.57,6.14 -1.76,12.36 -3.62,18.68 -48.32,163.93 -233.07,23.12 -315.63,-38.64 l -0.87,57.46 c -19.2,451.15 -8.04,799.75 34.29,1037.85 3.5,15.5 4.16,30.4 1.89,44.7 9.68,52.6 -4.43,93.9 -42.32,123.8 l -109.11,86.8 c -45.82,36.5 -118.54,76.2 -178.46,62.2 -35.02,-8.1 -63.43,-28.4 -85.2,-60.6 -34.8,-51.5 -84,-120.3 -81.18,-185.2 5.04,-114.6 4.09,-253.1 -2.95,-415 -0.91,-11.8 -3.57,-71.7 -8.05,-179.1 l -9.59,-240.91 c -1.43,-56.66 -2.16,-117.06 -2.12,-181.24 -129.81,-54.71 -229.34,-83.05 -298.88,-85.03 -113.95,60.25 -187.39,195 -220.43,406.27 -6.46,47.21 -12,97.71 -16.66,151.51 22,191.3 21.75,338.4 -0.98,440 -28.02,143.7 -121.77,261.2 -266.34,299.2 -53.95,14.2 -110.18,18 -165.77,15.8 -29.75,-4 -56.94,-16.5 -81.5,-37.5 -37.23,-31.8 -66.57,-99 -67.03,-147.7 -4.99,-315.2 -2.68,-533.7 6.75,-659.3 20.28,-296.16 72.28,-506.64 155.76,-634.94 26.92,-43.59 78.34,-86.97 154.27,-129.97 65.15,-34.39 123.79,-59.26 176.09,-74.53 242.31,-58.79 457.75,-13.95 648.66,135.23 2.88,-15.68 5.4,-37.55 7.72,-65.5 2.23,-27.95 4.09,-53.89 5.68,-77.82 1.5,-23.93 4.21,-46.2 8,-66.82 -125.42,-124.68 -223.68,-243.86 -295.18,-357.52 -110.09,-171.18 -174.91,-322.82 -195.11,-455.45 -31.09,-224.66 60.27,-370.41 272.61,-439.57 41.5,-15.39 89.41,-14.66 143.71,2.27 12.66,5.28 28.02,11.16 46,17.57 2.59,0.57 6.43,2.04 11.5,4.39 5.02,2.36 8.86,3.79 11.52,4.4 15.8,3.48 31.14,9.37 46.05,17.57 65.4,31.78 122.47,72.23 171.16,121.41 48.88,49.36 86.11,106.87 111.65,172.64 25.69,66.09 44.35,121.36 56.03,165.77 11.68,44.53 22.93,99.93 33.82,166.37 27.66,181.79 39.2,404.31 34.41,669.56 -0.25,13.78 88.93,70.73 102.84,81.41 35.49,27.27 71.52,53.91 107.97,80.21 49.96,36.02 104.44,88.06 98.6,149.27 m -2918.33,472.75 -27.75,-67.54 c -33.33,-91.8 -61,-189.62 -83.11,-293.48 -21.93,-103.14 -33.91,-173.07 -35.93,-210.1 -1.36,-28.45 -11.05,-53.11 -29,-74.02 -18,-20.95 -42.11,-34.86 -72.5,-41.84 0,0 5.2,-3 5.2,-3 75.87,-259.88 150.48,-516.13 182.39,-624.48 37.48,-127.13 63.48,-251.83 108.43,-373.54 64.03,-173.32 273.27,-633.25 -56.41,-685.89 -160.54,-25.59 -272.4,103.75 -315.7,223.46 -101.87,281.64 -136.54,588.14 -251.14,878.31 -135.43,342.92 -270.75,651.41 -405.31,922.89 -37.98,-115.09 -67.1,-248.63 -87.28,-400.04 -20.04,-149.98 -31.63,-272.41 -34.91,-368.02 -3.29,-95 -5.63,-230.39 -7.04,-404.96 -1.94,-21.8 -10.05,-42.21 -24.19,-61.34 l 239.21,-777.91 c 10.11,-32.84 4.04,-62.86 -18.04,-90.21 -1.03,-32.58 -14.94,-59.22 -41.69,-80.04 -6.75,-13.93 -15.52,-25.73 -26.27,-35.52 l -102.64,-81.98 c -26.54,-20.66 -58.43,-28.93 -95.54,-24.91 -31.66,-4.55 -60.3,0.73 -85.96,15.95 -25.68,15.23 -43.04,36.69 -52.07,64.39 -24.13,74.05 -155.75,447.43 -403.86,1145.86 -173.95,495.85 -307.59,922.12 -397.79,1271.78 -8.87,36.34 -1.91,70.61 21.04,102.72 -5.18,34.5 4.62,65.1 29.44,91.86 3.84,6.9 15.84,21.7 35.9,44.4 20.14,22.7 34.96,38.1 44.53,46.4 38.4,42.1 76.63,70.6 114.68,85.7 79.79,27.8 149.98,8 210.25,-59 70.59,-78.6 68.86,-222.13 98.59,-320.56 24.34,-80.52 49.47,-160.82 74.2,-241.23 47.43,-154.22 94.84,-308.47 142.28,-462.7 0.68,-2.2 2.77,-6.07 2.59,-8.41 22.27,283.95 71.25,525.93 147.16,723.77 49.4,128.87 100.77,232.53 154.02,310.43 57.13,76 117.34,126.1 180.63,149.9 103.78,42.4 199.64,19.8 286.96,-67.5 24.63,-24 52.73,-72.4 84.29,-144.8 19.76,-51.4 43.89,-119.07 72.35,-202.8 16.7,-51.3 34.82,-107.82 54.32,-169.48 25.02,118.25 56.4,225.73 94.04,322.18 53.36,142 114,246.6 181.84,313.2 50.89,50.7 106.84,81.8 167.73,93.1 73.79,8.2 143.41,-10 208.59,-54.5 36.66,-27.2 73.32,-79.5 109.72,-156.8 28.07,-55.2 58.92,-128.6 92.41,-219.8 52.39,-146.72 115.1,-344.79 187.75,-592.01 44.57,-153.18 98.48,-343.93 161.46,-570.66 61.93,-223.23 97.93,-350.5 108.66,-384.5 0.59,-2.48 10.77,-40.37 30.57,-113.43 13.61,-58.66 27.27,-105.53 41.07,-140.73 5.99,-13.96 11.77,-26.68 17.22,-38.16 23.48,-4.93 42.75,-15.87 57.84,-32.78 l 3.14,4.51 c 28.41,34.25 57.89,82.81 88.46,145.86 22.2,51.11 61.93,156.64 119.65,317.77 74.14,208.75 100.48,308.52 126.41,429.55 7.75,31.34 26.19,56.45 55.34,75.2 29.16,18.77 60.77,25.96 94.8,21.5 33.91,-4.43 60.13,-20.13 78.47,-46.88 18.32,-26.8 25.03,-56.76 20.32,-89.94 -31.36,-126.88 -62.29,-235.04 -141.16,-453.95 -60.43,-165.82 -105.13,-276.8 -134.56,-334.21 -38.39,-79.45 -75.71,-143.2 -112.14,-191.47 -63.16,-76.59 -130.91,-119.03 -203.57,-127.71 -21.63,-2.36 -41.09,-1.68 -58.54,1.93 -46.41,-2.84 -80.96,-3.04 -103.66,-0.61 -53.96,5.43 -115.14,29.32 -183.78,71.75 -90.02,60.55 -177.61,188.27 -263.25,385.07 -67,154.27 -137.45,354.89 -211.63,603.79 -53.68,189.51 -141.95,539.03 -267.53,1060.21"
         inkscape:connector-curvature="0" /><path
         id="path22"
         style="fill:#ce1435;fill-opacity:1;fill-rule:nonzero;stroke:none"
         d="m 3293.61,7591.25 c -6.75,-13.92 -15.52,-25.73 -26.27,-35.52 l -102.64,-81.98 c -26.54,-20.66 -58.41,-28.93 -95.55,-24.91 -31.66,-4.55 -60.29,0.74 -85.95,15.96 -25.68,15.21 -43.05,36.69 -52.07,64.37 -24.14,74.06 -155.75,447.45 -403.86,1145.86 -165.64,472.17 -294.64,881.09 -384.48,1220.99 -7.98,-22.16 -9.16,-45.22 -3.31,-69.21 90.2,-349.64 223.84,-775.93 397.79,-1271.78 248.11,-698.41 379.72,-1071.8 403.86,-1145.86 9.02,-27.68 26.39,-49.16 52.07,-64.37 25.66,-15.22 54.29,-20.51 85.95,-15.96 37.14,-4.02 69.01,4.25 95.55,24.91 l 102.64,81.98 c 10.75,9.79 19.52,21.6 26.27,35.52 26.75,20.82 40.66,47.46 41.68,80.04 22.09,27.35 28.16,57.38 18.05,90.2 l -15.23,49.52 c -3.41,-6.72 -7.64,-13.3 -12.82,-19.72 -1.02,-32.58 -14.93,-59.22 -41.68,-80.04 m 2534.21,2662.55 c 3.29,-37.9 7.04,-74.2 11.22,-108.9 18.3,164.3 19.91,295.3 4.66,392.3 1.93,-80 -3.36,-174.5 -15.88,-283.4 m 1018.77,-566.04 0.87,-57.48 c 2.08,1.56 4.27,3.2 6.49,4.85 -15.32,418.57 -3.27,744.37 36.93,970.47 3.5,15.5 4.16,30.4 1.89,44.7 6.07,33.1 2.72,61.6 -9.98,85.8 -0.52,-3.5 -1.11,-7 -1.91,-10.5 -42.33,-238.1 -53.49,-586.7 -34.29,-1037.84 m -928.7,-507.2 c 174.86,-7.09 334.47,45.94 479.84,159.53 1.15,-6.25 2.24,-13.52 3.29,-21.73 -1.57,23.5 -3.39,48.89 -5.57,76.22 -2.31,27.96 -4.84,49.83 -7.72,65.51 -190.91,-149.18 -406.35,-194.02 -648.67,-135.24 -52.29,15.28 -110.93,40.15 -176.08,74.53 -75.93,43.02 -127.35,86.39 -154.27,129.99 -73,112.18 -121.92,287.23 -146.62,527.43 0.29,-4.2 0.56,-8.5 0.86,-12.5 20.28,-296.15 72.28,-506.65 155.76,-634.93 26.92,-43.6 78.34,-86.97 154.27,-129.99 53.88,-28.43 103.23,-50.26 148.31,-65.63 m 1455.43,316.5 c -0.58,6.14 -1.77,12.37 -3.63,18.69 -5.04,17.06 -11.61,30.64 -19.32,41.53 -18.39,-35.41 -52.93,-65.9 -85.66,-89.49 -36.45,-26.29 -72.48,-52.95 -107.97,-80.21 -13.91,-10.68 -103.09,-67.63 -102.84,-81.42 4.79,-265.23 -6.75,-487.76 -34.41,-669.54 -10.89,-66.44 -22.15,-121.84 -33.82,-166.39 -11.68,-44.39 -30.35,-99.67 -56.03,-165.75 -25.54,-65.77 -62.77,-123.29 -111.65,-172.65 -48.69,-49.18 -105.76,-89.63 -171.14,-121.41 -14.93,-8.2 -30.27,-14.09 -46.07,-17.58 -2.66,-0.59 -6.5,-2.02 -11.52,-4.39 -5.07,-2.35 -8.91,-3.82 -11.5,-4.4 -17.98,-6.41 -33.34,-12.28 -46,-17.57 -54.3,-16.91 -102.21,-17.65 -143.71,-2.25 -149.5,48.68 -238.95,135.4 -267.99,260.82 -8.25,-191.52 84.75,-317.9 277.99,-380.82 41.5,-15.4 89.41,-14.66 143.71,2.25 12.66,5.29 28.02,11.16 46,17.57 2.59,0.58 6.43,2.05 11.5,4.4 5.02,2.37 8.86,3.8 11.52,4.39 15.8,3.49 31.14,9.38 46.07,17.58 65.38,31.78 122.45,72.23 171.14,121.41 48.88,49.36 86.11,106.88 111.65,172.65 25.68,66.08 44.35,121.36 56.03,165.75 11.67,44.55 22.93,99.95 33.82,166.39 27.66,181.78 39.2,404.31 34.41,669.54 -0.25,13.79 88.93,70.74 102.84,81.42 35.49,27.26 71.52,53.92 107.97,80.21 49.96,36.02 104.45,88.06 98.61,149.27 M 6171.31,8298.58 c 16.37,100.52 69.78,221.6 160.62,363.76 25.41,38.18 56.2,78.75 92.2,121.61 2.53,43.5 3.73,88.68 3.37,135.77 -41.82,-48.71 -77.05,-94.54 -105.57,-137.38 -90.84,-142.16 -144.25,-263.24 -160.62,-363.76 -7.04,-49.31 -3.6,-89.7 9.82,-121.65 0.08,0.57 0.1,1.08 0.18,1.65 m -518.83,21.47 c -38.39,-79.46 -75.71,-143.22 -112.14,-191.47 -63.16,-76.6 -130.91,-119.04 -203.57,-127.72 -21.63,-2.36 -41.09,-1.67 -58.54,1.94 -46.42,-2.86 -80.96,-3.05 -103.66,-0.62 -53.96,5.42 -115.14,29.32 -183.78,71.76 -90.02,60.54 -177.61,188.26 -263.25,385.07 -67,154.27 -137.45,354.89 -211.64,603.77 -53.68,189.53 -141.94,539.04 -267.52,1060.32 l -27.75,-67.6 c -33.33,-91.84 -61,-189.66 -83.11,-293.51 -21.93,-103.15 -33.91,-173.07 -35.93,-210.12 -1.36,-28.45 -11.05,-53.09 -29,-74.01 -17.98,-20.94 -42.12,-34.86 -72.5,-41.83 l 5.2,-3.01 c 10.59,-36.29 21.16,-72.49 31.59,-108.25 18.12,7.78 33.39,18.75 45.71,33.09 17.95,20.92 27.64,45.56 29,74.01 2.02,37.05 14,106.97 35.93,210.12 22.11,103.85 49.78,201.67 83.11,293.47 l 27.75,67.64 c 125.58,-521.28 213.84,-870.79 267.52,-1060.32 74.19,-248.88 144.64,-449.5 211.64,-603.77 85.64,-196.81 173.23,-324.53 263.25,-385.07 68.64,-42.44 129.82,-66.34 183.78,-71.76 22.7,-2.43 57.24,-2.24 103.66,0.62 17.45,-3.61 36.91,-4.3 58.54,-1.94 72.66,8.68 140.41,51.12 203.57,127.72 36.43,48.25 73.75,112.01 112.14,191.47 29.42,57.41 74.13,168.38 134.56,334.2 78.87,218.91 109.8,327.07 141.16,453.95 4.52,31.87 -1.61,60.76 -18.32,86.73 -28.88,-113.58 -60.93,-221.1 -132.84,-420.68 -60.43,-165.82 -105.14,-276.79 -134.56,-334.2 M 4420.27,7960.14 c 28.18,-156.21 6.96,-302.69 -170.57,-331.04 -160.54,-25.58 -272.4,103.76 -315.7,223.47 -101.87,281.64 -136.54,588.14 -251.14,878.31 -135.43,342.93 -270.75,651.41 -405.3,922.88 -37.99,-115.08 -67.11,-248.63 -87.29,-400.03 -20.03,-149.98 -31.64,-272.41 -34.91,-368.01 -3.3,-95 -5.64,-230.39 -7.04,-404.97 -0.92,-10.31 -3.27,-20.3 -6.93,-30 l -27.26,88.65 c 14.14,19.14 22.25,39.56 24.19,61.35 1.4,174.58 3.74,309.97 7.04,404.97 3.27,95.6 14.88,218.03 34.91,368.01 20.18,151.4 49.3,284.95 87.29,400.03 134.55,-271.47 269.87,-579.95 405.3,-922.88 114.6,-290.17 149.27,-596.67 251.14,-878.31 43.3,-119.71 155.16,-249.05 315.7,-223.47 130.53,20.85 176.53,105.56 180.57,211.04"
         inkscape:connector-curvature="0" /><path
         id="path24"
         style="fill:#dd2525;fill-opacity:1;fill-rule:nonzero;stroke:none"
         d="m 9804.76,10486.7 c -333.53,239.2 -779.81,204.5 -1065.78,-9 -358.53,573.5 -1114.59,391 -1242.18,-211.5 -144.59,-682.8 278.77,-1651.35 771.88,-2265.43 700.93,282.91 1460.39,765 1740.92,1434.47 143.2,342.12 171.4,781.46 -204.84,1051.46"
         inkscape:connector-curvature="0" /><path
         id="path26"
         style="fill:#bb1818;fill-opacity:1;fill-rule:nonzero;stroke:none"
         d="M 9952.63,9628.61 C 9672.18,8959.16 8912.7,8477.06 8211.82,8194.17 c -270.97,337.45 -520.61,781.96 -666.9,1227.25 131.06,-507.57 413.56,-1034.27 723.75,-1420.64 700.94,282.91 1460.4,765 1740.93,1434.47 100.3,239.53 144,526.64 32.1,769.95 28.9,-193.4 -14.3,-398.2 -89.07,-576.59"
         inkscape:connector-curvature="0" /><path
         id="path28"
         style="fill:#ff5454;fill-opacity:1;fill-rule:nonzero;stroke:none"
         d="m 9649.56,10480.3 c -89.64,49.7 -190.47,78.1 -282.63,83.3 -295.45,16.4 -583.41,-134.5 -816.74,-314.4 -25.59,-19.6 -54.39,-41.9 -85.12,-66.4 108.72,205.8 104.78,434.2 -194.92,544.6 -442.2,163 -789.41,-407.7 -676.73,-783.69 239.57,-799.43 1451.26,-676.49 1989.9,-315.65 177.65,119.01 368.32,274.93 322.39,524.34 -27.08,147.1 -130.66,258.3 -256.15,327.9"
         inkscape:connector-curvature="0" /><path
         id="path30"
         style="fill:#ffffff;fill-opacity:1;fill-rule:nonzero;stroke:none"
         d="m 9462.77,10489 c -43.88,50.9 -210.14,55.9 -239.64,-13 -30.02,-70.2 147.71,-66.8 183.92,-59.8 29.45,5.6 75.08,21.3 62.88,60.2 -1.45,4.6 -3.89,8.8 -7.16,12.6"
         inkscape:connector-curvature="0" /><path
         id="path32"
         style="fill:#ffffff;fill-opacity:1;fill-rule:nonzero;stroke:none"
         d="m 8252.77,10689 c -43.88,50.9 -210.14,55.9 -239.64,-13 -30.02,-70.2 147.71,-66.8 183.92,-59.8 29.45,5.6 75.08,21.3 62.88,60.2 -1.45,4.6 -3.89,8.8 -7.16,12.6"
         inkscape:connector-curvature="0" /><path
         id="path34"
         style="fill:#ce1435;fill-opacity:1;fill-rule:nonzero;stroke:none"
         d="m 10808.9,8284.6 c -115,178.19 -337.9,254.87 -517.8,216.75 -62.2,335.87 -463.69,409.32 -642.46,160.93 -202.59,-281.49 -185.66,-811.05 -66.15,-1193.36 394.29,-16.2 855.61,46.34 1121.41,293.6 135.8,126.36 234.8,320.92 105,522.08"
         inkscape:connector-curvature="0" /><path
         id="path36"
         style="fill:#ac0a2d;fill-opacity:1;fill-rule:nonzero;stroke:none"
         d="m 10713.9,7862.52 c -265.8,-247.25 -727.12,-309.79 -1121.41,-293.61 -65.67,210.11 -100.25,464.61 -84.57,698.05 -35.15,-258.67 -0.62,-557.48 74.57,-798.05 394.29,-16.18 855.61,46.36 1121.41,293.61 95.1,88.46 172,210.37 165.1,344.57 -23.6,-94.25 -84.3,-178.7 -155.1,-244.57"
         inkscape:connector-curvature="0" /><path
         id="path38"
         style="fill:#f74169;fill-opacity:1;fill-rule:nonzero;stroke:none"
         d="m 10720.6,8304.06 c -14.8,37.86 -44.2,70.99 -78.3,90.43 -146.6,83.57 -327.3,78.12 -487,41.77 -16.1,-3.67 -34.4,-7.88 -54,-12.69 92.6,71.38 135,176.37 11.3,288.84 -147.42,134.12 -383.01,20.65 -467.39,-128.39 -79.6,-140.58 -73.07,-330.57 56.84,-439.18 96.72,-80.85 214.45,-113.49 336.95,-128.45 149.1,-18.21 800.3,-15.62 681.6,287.67"
         inkscape:connector-curvature="0" /><path
         id="path40"
         style="fill:#ffffff;fill-opacity:1;fill-rule:nonzero;stroke:none"
         d="m 10052.8,8708.98 c -34.5,40.07 -162.46,38.5 -206.64,14.17 -165.34,-91.07 248.44,-137.1 213.74,-26.73 -1.4,4.57 -3.9,8.76 -7.1,12.56"
         inkscape:connector-curvature="0" /><path
         id="path42"
         style="fill:#ffffff;fill-opacity:1;fill-rule:nonzero;stroke:none"
         d="m 10562.8,8388.98 c -43.9,50.95 -210.2,55.88 -239.7,-13.02 -30,-70.13 147.7,-66.72 184,-59.79 29.4,5.64 75,21.37 62.8,60.25 -1.4,4.57 -3.9,8.76 -7.1,12.56"
         inkscape:connector-curvature="0" /><path
         id="path44"
         style="fill:#dd2525;fill-opacity:1;fill-rule:nonzero;stroke:none"
         d="m 11040.6,9386.74 c -67.3,104.16 -197.5,148.97 -302.7,126.69 -36.3,196.32 -271,239.25 -375.5,94.06 -118.4,-164.52 -108.5,-474.05 -38.7,-697.51 230.5,-9.47 500.1,27.08 655.5,171.6 79.4,73.87 137.2,187.59 61.4,305.16"
         inkscape:connector-curvature="0" /><path
         id="path46"
         style="fill:#bb1818;fill-opacity:1;fill-rule:nonzero;stroke:none"
         d="m 10985,9140.03 c -155.3,-144.52 -425,-181.07 -655.4,-171.61 -38.4,122.81 -58.6,271.57 -49.5,408.01 -20.5,-151.19 -0.3,-325.85 43.6,-466.45 230.5,-9.47 500.1,27.08 655.5,171.6 55.6,51.71 100.5,122.97 96.5,201.4 -13.8,-55.08 -49.3,-104.44 -90.7,-142.95"
         inkscape:connector-curvature="0" /><path
         id="path48"
         style="fill:#ff5454;fill-opacity:1;fill-rule:nonzero;stroke:none"
         d="m 10989,9398.12 c -8.7,22.13 -25.9,41.49 -45.8,52.86 -85.7,48.84 -191.3,45.66 -284.6,24.41 -9.5,-2.16 -20.2,-4.62 -31.6,-7.43 54.1,41.72 78.9,103.09 6.6,168.84 -86.2,78.4 -223.9,12.07 -273.2,-75.05 -46.5,-82.16 -42.7,-193.21 33.2,-256.7 56.5,-47.25 125.4,-66.34 196.9,-75.07 87.2,-10.64 467.8,-9.14 398.5,168.14"
         inkscape:connector-curvature="0" /><path
         id="path50"
         style="fill:#ffffff;fill-opacity:1;fill-rule:nonzero;stroke:none"
         d="m 10598.6,9634.8 c -20.2,23.41 -94.9,22.5 -120.7,8.27 -96.7,-53.23 145.1,-80.12 124.9,-15.62 -0.8,2.68 -2.3,5.12 -4.2,7.35"
         inkscape:connector-curvature="0" /><path
         id="path52"
         style="fill:#ffffff;fill-opacity:1;fill-rule:nonzero;stroke:none"
         d="m 10896.7,9447.75 c -25.6,29.79 -122.8,32.66 -140.1,-7.61 -17.5,-40.99 86.4,-39 107.5,-34.94 17.2,3.29 43.9,12.48 36.8,35.21 -0.9,2.67 -2.3,5.13 -4.2,7.34"
         inkscape:connector-curvature="0" /><path
         id="path54"
         style="fill:#dd2525;fill-opacity:1;fill-rule:nonzero;stroke:none"
         d="m 7588.47,8431.01 c -86.89,47.67 -195.51,29.63 -260.97,-26.03 -100.24,124.21 -281.57,65.13 -299.82,-76.69 -20.68,-160.72 103.98,-374.58 238.08,-505.15 165.65,81 341.33,209.25 395.61,369.96 27.72,82.11 25.14,184.09 -72.9,237.91"
         inkscape:connector-curvature="0" /><path
         id="path56"
         style="fill:#bb1818;fill-opacity:1;fill-rule:nonzero;stroke:none"
         d="m 7643.24,8236.42 c -54.27,-160.71 -229.96,-288.96 -395.6,-369.94 -73.69,71.73 -144.46,168.65 -189.93,268.06 43.08,-114.12 123.68,-229.24 208.04,-311.4 165.65,81 341.34,209.25 395.61,369.96 19.41,57.5 23.92,124.7 -8.75,178.31 11.26,-43.96 5.09,-92.18 -9.37,-134.99"
         inkscape:connector-curvature="0" /><path
         id="path58"
         style="fill:#ff5454;fill-opacity:1;fill-rule:nonzero;stroke:none"
         d="m 7550.58,8426.02 c -23.04,9.45 -48.37,13.75 -71.05,12.87 -72.76,-2.85 -140.07,-44.12 -193.35,-90.85 -5.85,-5.09 -12.43,-10.9 -19.43,-17.23 22.2,49.91 16.3,102.5 -59.54,121.23 -84.08,20.78 -168.52,-72.66 -160.32,-154.07 8.34,-82.59 95.97,-149.43 174.29,-159.33 108.24,-13.67 244.84,22.77 331.58,89.36 40.95,31.43 84.31,71.68 67.67,128.16 -9.81,33.31 -37.59,56.63 -69.85,69.86"
         inkscape:connector-curvature="0" /><path
         id="path60"
         style="fill:#ffffff;fill-opacity:1;fill-rule:nonzero;stroke:none"
         d="m 7240.74,8427.43 c -16.11,18.72 -75.9,17.99 -96.52,6.62 -77.27,-42.55 116.05,-64.06 99.87,-12.49 -0.67,2.14 -1.82,4.09 -3.35,5.87"
         inkscape:connector-curvature="0" /><path
         id="path62"
         style="fill:#ffffff;fill-opacity:1;fill-rule:nonzero;stroke:none"
         d="m 7549.04,8407.91 c -20.5,23.82 -98.19,26.11 -111.97,-6.07 -14.03,-32.77 69,-31.18 85.92,-27.93 13.77,2.61 35.09,9.97 29.39,28.14 -0.68,2.13 -1.81,4.09 -3.34,5.86"
         inkscape:connector-curvature="0" /><path
         id="path64"
         style="fill:#dd2525;fill-opacity:1;fill-rule:nonzero;stroke:none"
         d="m 4916.41,6946.93 c -210.36,534.91 -888.06,684.21 -1098.53,166.57 -280.56,185.25 -668.42,208.3 -913.56,-10.87 -201.45,-180.09 -204.27,-436.4 -121.44,-679.24 30.94,-90.71 73.76,-179.59 122.75,-261.85 70.08,-117.7 155.14,-228.4 251.51,-332.18 388.3,-418.29 960.5,-723.8 1479.14,-915.96 318.88,556.23 518.52,1427.35 280.13,2033.53"
         inkscape:connector-curvature="0" /><path
         id="path66"
         style="fill:#bb1818;fill-opacity:1;fill-rule:nonzero;stroke:none"
         d="m 4636.27,5063.41 c -518.63,192.16 -1090.84,497.67 -1479.14,915.95 -96.36,103.79 -181.43,214.49 -251.5,332.18 -49,82.27 -91.81,171.14 -122.75,261.86 -23.11,67.78 -39.55,136.62 -46.86,204.55 -13.48,-114.46 6.45,-236.09 46.86,-354.55 30.94,-90.72 73.75,-179.59 122.75,-261.86 70.07,-117.69 155.14,-228.39 251.5,-332.18 388.3,-418.28 960.51,-723.79 1479.14,-915.95 232.27,405.13 401.21,977.29 383.77,1492.47 -15.61,-473.67 -173.84,-976.3 -383.77,-1342.47"
         inkscape:connector-curvature="0" /><path
         id="path68"
         style="fill:#ff5454;fill-opacity:1;fill-rule:nonzero;stroke:none"
         d="m 4780.02,7041.36 c -64.72,291.43 -505.86,411.39 -734.27,247.61 -135.91,-97.47 -91.84,-287.54 -9.93,-412.24 -214.3,248.21 -586,385.35 -905.14,290.14 -309.84,-92.42 -365.91,-441.74 -112.81,-627.6 183.02,-134.4 413.08,-178.8 636.38,-171.46 335.7,11.02 1239.91,159.45 1125.77,673.55"
         inkscape:connector-curvature="0" /><path
         id="path70"
         style="fill:#ffffff;fill-opacity:1;fill-rule:nonzero;stroke:none"
         d="m 4402.77,7298.98 c -34.5,40.07 -162.43,38.5 -206.62,14.17 -165.34,-91.07 248.41,-137.1 213.76,-26.72 -1.43,4.56 -3.87,8.75 -7.14,12.55"
         inkscape:connector-curvature="0" /><path
         id="path72"
         style="fill:#ffffff;fill-opacity:1;fill-rule:nonzero;stroke:none"
         d="m 3412.77,7128.98 c -34.5,40.07 -162.44,38.5 -206.62,14.17 -165.34,-91.07 248.41,-137.1 213.76,-26.72 -1.43,4.56 -3.87,8.75 -7.14,12.55"
         inkscape:connector-curvature="0" /><path
         id="path74"
         style="fill:#ce1435;fill-opacity:1;fill-rule:nonzero;stroke:none"
         d="M 9228.31,7500.16 C 8467.15,7924.73 7555.21,7805.1 6883.4,7290.01 l 0.13,0.13 c -1363.56,954.03 -3020.15,1.03 -2803.75,-1755.7 232.01,-1883.41 2258.03,-3778.31 2391.66,-3913.32 848.02,508.24 2513.84,1542.07 3368.16,2803.75 701.8,1036.52 426.5,2496.4 -611.29,3075.29"
         inkscape:connector-curvature="0" /><path
         id="path76"
         style="fill:#f74169;fill-opacity:1;fill-rule:nonzero;stroke:none"
         d="m 7681.42,7529.44 c -636.26,-231.16 -952.37,-615.21 -1223.29,-1106.79 15.42,94.55 25.46,189.83 27.99,284.7 2.52,94.83 -2.32,189.25 -16.33,282.09 -60.83,402.66 -261.88,549.49 -667.94,558.41 -392.17,8.61 -896.46,-135.22 -1151.57,-446.45 -297.6,-363.11 -530.96,-1092.53 -17.27,-1391.85 545.7,-317.97 2320.27,-324.59 3829.65,-39.43 393.12,74.27 1112.82,211.88 1269.89,649.39 106.46,296.52 -38.38,622.24 -251.17,826.42 -428.83,411.47 -1239.99,586.94 -1799.96,383.51"
         inkscape:connector-curvature="0" /><path
         id="path78"
         style="fill:#ac0a2d;fill-opacity:1;fill-rule:nonzero;stroke:none"
         d="m 10204.8,6025.46 c -21.5,-398.3 -147,-798.83 -385.21,-1150.6 C 8965.29,3613.18 7299.46,2579.36 6451.45,2071.11 6318.48,2205.44 4312.27,4081.95 4063.5,5955.93 c -6.7,-134.51 -1.75,-275.2 16.29,-421.5 232.01,-1883.4 2258.03,-3778.31 2391.66,-3913.32 848.01,508.25 2513.84,1542.07 3368.14,2803.75 328.61,485.36 443.01,1063.52 365.21,1600.6"
         inkscape:connector-curvature="0" /><path
         id="path80"
         style="fill:#ffffff;fill-opacity:1;fill-rule:nonzero;stroke:none"
         d="m 5772.77,7408.98 c -34.5,40.07 -162.43,38.5 -206.62,14.17 -165.34,-91.07 248.41,-137.1 213.76,-26.72 -1.43,4.56 -3.87,8.75 -7.14,12.55"
         inkscape:connector-curvature="0" /><path
         id="path82"
         style="fill:#ffffff;fill-opacity:1;fill-rule:nonzero;stroke:none"
         d="m 8412.77,7438.98 c -43.88,50.95 -210.14,55.88 -239.64,-13.02 -30.02,-70.13 147.71,-66.72 183.92,-59.78 29.45,5.63 75.08,21.36 62.88,60.25 -1.45,4.56 -3.89,8.75 -7.16,12.55"
         inkscape:connector-curvature="0" /><path
         id="path84"
         style="fill:#b73d7a;fill-opacity:1;fill-rule:nonzero;stroke:none"
         d="m 2782.88,6423.4 -27.15,-4.27 c -146.51,-22.08 -193.51,-71.54 -176.21,-135.67 0.44,-1.78 0.96,-3.54 1.59,-5.29 40.2,-126 317.9,-306.14 576.02,-448.81 -96.36,103.79 -181.43,214.49 -251.5,332.17 -49,82.28 -91.8,171.15 -122.75,261.87"
         inkscape:connector-curvature="0" /><path
         id="path86"
         style="fill:#b73d7a;fill-opacity:1;fill-rule:nonzero;stroke:none"
         d="m 10222.5,5861.91 c 128.8,61.04 236.1,127.89 239.3,180.7 0.1,2.91 -0.4,5.78 -0.5,8.6 -4,73.42 -79.6,131.86 -295.2,175.97 0,0 47.3,-196.07 56.4,-365.27"
         inkscape:connector-curvature="0" /><path
         id="path88"
         style="fill:#ff8db8;fill-opacity:1;fill-rule:nonzero;stroke:none"
         d="m 10462,6042.64 c -15.7,-335.18 -31.2,-670.31 -47,-1005.48 -16.3,-351.55 -44.6,-697.45 -73.3,-1047.06 -24.5,-297.39 -105.1,-486.2 -379.31,-618.73 -347.72,-168.23 -733.28,-316.55 -1108.72,-405.27 -776.92,-183.58 -1610.2,-302.55 -2407.1,-264.8 -1051.28,49.59 -2909.96,342.61 -3277.26,1571.8 l -588.2,2005.07 c 71.63,-224.48 897.2,-620.89 1022.68,-671 1254.78,-500.99 2713.91,-532.46 4038.27,-377.92 493.25,57.61 982.58,147.81 1463.92,269.74 248.87,62.94 495.5,134.45 739.45,214.29 172.47,56.39 609.97,221.92 616.37,329.34"
         inkscape:connector-curvature="0" /><path
         id="path90"
         style="fill:#ffffff;fill-opacity:1;fill-rule:nonzero;stroke:none"
         d="m 3187.75,5171.18 c 1.07,0.12 4.96,3.14 10.57,6.84 5.25,3.46 12.82,2.37 19.07,-0.09 12.15,-4.77 30.63,-28.38 51.18,-47.83 10.52,-9.95 29.36,-28.4 43.43,-56.54 77.2,-154.3 148.91,-312.23 218.8,-469.68 56.33,-126.92 168.43,-382.26 168.43,-382.26 1.27,0.19 5.56,78.05 4.75,127 -2.14,129.55 -15.98,260.76 -34.12,387.12 -2,13.99 3.37,24.28 5.64,28.35 5.29,9.54 10.27,22.41 24.91,14.23 11.18,-6.25 22.2,-17.37 32.95,-33.39 10.75,-16.04 18.05,-32.58 22.39,-48.95 7.4,-27.93 14.79,-54.92 20.82,-80.22 6.04,-25.32 13.56,-55 22.52,-88.99 8.97,-34.02 19.09,-65.97 28.86,-95.12 30.41,-90.79 59.5,-149.43 87.57,-171.15 22.34,-17.28 38.25,-20.87 47.57,-8.75 9.3,12.1 19.43,38.78 28.23,78.66 2.65,11.94 8.54,17.52 18.11,16.03 9.57,-1.48 20.09,-9.14 31.34,-22.93 11.28,-13.81 19.84,-29.46 25.66,-46.89 5.82,-17.42 6.71,-31.88 4.21,-42.49 -4.55,-19.41 -7.28,-34.69 -9.94,-43.21 -2.66,-8.56 -7.86,-21.09 -15.43,-37.56 -7.56,-16.49 -15.57,-27.17 -24.02,-32.02 -8.48,-4.87 -20.68,-5.95 -36.54,-3.1 -15.87,2.84 -34.39,11.07 -52.17,25.2 -74.93,59.44 -153.34,252.65 -153.34,252.65 -0.52,-0.11 6.23,-97.31 5.66,-138.5 -1.21,-88.66 -34.77,-223.12 -68.96,-283.69 -2.86,-5.06 -6.27,-11.53 -11.95,-11.46 -6.59,0.08 -16.57,4.95 -27.34,17.3 -10.77,12.36 -20.11,28.78 -28.23,48.53 -76.25,185.89 -157.27,373.06 -236.61,559.3 -70.96,165.76 -141.91,331.51 -212.14,497.57 -4.93,11.62 -7.77,23.53 -10.38,32.68 -8.8,30.86 -11.3,52.3 -1.5,53.36"
         inkscape:connector-curvature="0" /><path
         id="path92"
         style="fill:#ffffff;fill-opacity:1;fill-rule:nonzero;stroke:none"
         d="m 4328.32,4408.33 c -29.77,-4.02 -59.99,-30.65 -85.06,-72.77 -25.07,-42.13 -42.9,-95.93 -53.34,-161.14 -16.13,-100.78 -12.22,-204.87 9.3,-304.95 0.5,-0.22 0.75,-0.32 1.25,-0.54 10.77,-18.31 16.12,-27.47 26.79,-45.71 11.61,-5.09 22.42,-11.03 31.63,-15.53 3.08,-1.51 7.23,-5.22 7.89,-5.24 4.79,-0.14 25.04,27.44 36.44,47.47 22.05,38.7 40.64,90.92 57.16,151.17 16.52,60.27 25.96,113.96 31.93,155.19 0.67,4.62 1.87,14.01 2.93,27.75 -0.18,3.9 -0.26,5.84 -0.45,9.75 0.8,15.1 1.04,40.66 0.79,76.92 -0.09,33.35 -0.11,50.06 -0.08,83.73 0.71,1.05 0.95,4.88 0.7,11.52 -0.16,3.97 -0.25,5.97 -0.4,9.95 -17.67,16.25 -47.78,42.18 -52.77,41.13 -1.9,-0.4 -8.9,-7.92 -14.71,-8.7 m 141.13,5.64 c 4.83,-6.98 10.83,-14.62 14.52,-22.39 3.69,-7.76 6.52,-14.6 8.48,-20.48 0.42,-2.52 0.64,-3.78 1.06,-6.3 0.99,-5.85 1.48,-8.77 2.47,-14.62 0.71,-4.18 1.48,-9.98 1.32,-16.26 -0.18,-7.33 -1.14,-18.17 -1.84,-31.01 -1.12,-20.54 -2.47,-49.01 -3.71,-84.94 -3.4,-38.63 -5.04,-57.83 -8.28,-96.1 -5.17,-117.8 -7.16,-196.93 -6.4,-239.18 0.98,-53.75 4.37,-98.51 10.67,-133.76 4.88,-27.25 9.99,-44.82 15.37,-51.38 41.63,-50.85 93.46,-52.85 150.47,-5.71 45.42,37.54 87.29,95.96 124.2,174.52 5.34,11.37 14.44,17.01 27.27,16.77 12.8,-0.23 25.37,-6.51 37.55,-18.75 12.17,-12.22 20.92,-27.09 26.04,-44.52 5.12,-17.45 4.77,-31.86 -0.93,-43.2 -44.03,-87.54 -98.02,-152.82 -148.87,-197.03 -77.03,-66.98 -184.85,-47.16 -244.48,31.33 -27.64,36.39 -52.65,90.53 -66.35,160.55 -2.21,13.81 -3.34,20.72 -5.61,34.52 -9.54,-23.2 -19.35,-43.74 -29.48,-61.46 -34.02,-59.46 -70.35,-91.3 -107.15,-92.19 -51.02,-1.24 -103.63,50.06 -159.03,150.31 -59.25,107.2 -94.75,228.38 -109.07,349.72 -11.06,93.66 -5.08,192.35 29.46,280.93 15.11,38.76 35.32,70.31 61.23,93.96 25.89,23.66 56.99,39.54 93.29,47.67 36.28,8.13 78.12,1.16 124.95,-21.1 46.85,-22.28 98.37,-60.7 145.7,-114.63 6,-6.83 11.42,-16.96 17.15,-25.27"
         inkscape:connector-curvature="0" /><path
         id="path94"
         style="fill:#ffffff;fill-opacity:1;fill-rule:nonzero;stroke:none"
         d="m 4916.08,4738.84 c -0.21,-0.01 -4.76,-21.18 -10.08,-41.17 -3.44,-15.57 -5.16,-23.31 -8.54,-38.68 -3.61,-13.54 -5.39,-20.26 -8.95,-33.64 -4.45,-16.72 -7.67,-29.94 -9.66,-39.68 -2,-9.77 -4.26,-21.65 -6.74,-35.5 -1.76,-16.08 -2.63,-24.04 -4.35,-39.94 -1.53,-12.51 -2.39,-25.85 -2.56,-39.94 -0.61,-27.9 -0.89,-41.72 -1.41,-69.18 9.69,7.37 16.2,12.91 18.71,16.42 31.64,44.32 46.79,111.22 49.35,191.42 1.43,45.01 -15.77,129.89 -15.77,129.89 m 15.4,-516.76 c 1.51,-17.86 4,-57.39 6.81,-117.07 2.81,-59.7 6.81,-119.94 11.75,-180.9 4.95,-60.96 11.45,-116.82 19.76,-167.72 14.47,-88.55 32.2,-151.93 55.67,-185.66 8.71,-12.5 18.96,-21.99 28.34,-26.23 15.52,-7 38.36,-4.25 63.26,2.43 5.32,1.42 13.72,0.62 16.82,1.96 23.26,10.04 54.23,63.24 73.61,99.3 50.2,93.37 74.17,199.41 96.24,302.52 3.33,15.55 10.85,26.1 23.31,30.65 12.42,4.54 25.97,2.84 40.53,-5.14 14.55,-7.97 25.86,-20.34 33.74,-37.07 7.89,-16.76 11.13,-33.24 8.39,-47.33 -21.73,-111.8 -52.31,-228.19 -109,-331.74 -22.02,-40.21 -52.1,-79.74 -88.48,-117.63 -36.39,-37.9 -77.43,-63.54 -119.32,-78.71 -57.69,-20.88 -110.75,-17.34 -158.91,13.04 -55.84,35.22 -101.6,102.11 -138.52,198.79 -14.68,38.45 -26.41,107.69 -38.49,205.88 -11.86,96.45 -21.36,193.71 -29.01,290.75 -13.14,166.59 -28.35,334.35 -24.16,501.44 1.91,76.12 11.01,152.06 25.54,226.92 10.33,53.26 22.26,97.56 36.9,128.69 22.74,48.35 53.28,70.87 88.1,64.12 21.32,-4.13 42.6,-20.52 64.04,-49.07 6.9,-10.12 10.18,-15.14 17.12,-25.24 3.79,-7.5 5.71,-11.23 9.53,-18.69 61.9,-100.95 89.65,-219.32 88.33,-336.89 -1.18,-105.19 -20.82,-190.16 -63.13,-250.35 -9.11,-12.95 -51.69,-39.96 -53.45,-48.8 -1.06,-5.35 13.52,-28.62 14.68,-42.25"
         inkscape:connector-curvature="0" /><path
         id="path96"
         style="fill:#ffffff;fill-opacity:1;fill-rule:nonzero;stroke:none"
         d="m 5579.55,4093.96 c -10.07,-35.39 -15.04,-52.98 -24.92,-87.75 -9.75,-38.75 -17.97,-72.6 -24.75,-101.82 -6.81,-29.23 -17.74,-79.21 -14.84,-82.39 8,-8.75 88.5,12.52 116.71,28.07 20.07,11.09 39.32,28.95 54.46,54.73 15.14,25.77 23.64,52.68 26.34,79.36 2.41,23.88 0.18,46.27 -8.76,63.02 -10.15,19.03 -31.22,36.45 -58.58,48.86 -19.02,8.62 -53.48,19.53 -57.45,16.71 -1.84,-1.29 -4.16,-13.37 -8.21,-18.79 m 130.16,-677.17 c 64.86,-2.9 167.61,69.42 228.54,132.94 73.96,77.09 120.42,169.98 159.46,265.02 6.2,15.07 16.14,25.8 30.77,29.93 14.65,4.12 29.32,1.73 44,-7.23 14.65,-8.97 24.65,-22.27 30,-39.88 5.34,-17.59 4.98,-34.43 -1.09,-50.23 -14.97,-38.91 -31.02,-74.68 -47.61,-107.11 -2.48,-5.07 -3.71,-7.59 -6.18,-12.66 -4.25,-7.03 -19.96,-39.21 -46.65,-95.05 -26.69,-55.84 -50.65,-98.88 -72.02,-129.95 -21.4,-31.09 -46.39,-59.12 -74.42,-84.14 -92.99,-82.95 -221.87,-97.05 -337.21,-56.66 -50.28,17.62 -95.57,43.66 -135.66,77.82 -40.1,34.18 -72.38,72.37 -97.05,114.09 -24.67,41.75 -45.17,87.05 -61.68,135.91 -16.5,48.87 -26.82,97.39 -32.27,143.93 -5.32,45.48 -9.25,94.07 -4.89,138.71 10.25,105.13 27.67,206.29 99.68,294 69.53,84.66 185.37,96 279.98,50.88 57.3,-27.34 104.44,-65.73 132.1,-117.84 25.13,-47.36 34.06,-99.84 27.7,-155.66 -5.23,-45.81 -19.76,-87.9 -43.25,-125.93 -23.5,-38.05 -51.39,-67.45 -83.16,-86.16 -45.45,-26.79 -179.17,-24.64 -187.86,-33.81 -14.26,-15.01 50.79,-165.25 124.77,-233.89 23.43,-21.75 55.16,-46.19 74,-47.03"
         inkscape:connector-curvature="0" /><path
         id="path98"
         style="fill:#ffffff;fill-opacity:1;fill-rule:nonzero;stroke:none"
         d="m 6108.85,4261.41 c 41.74,16.47 62.75,24.86 105.04,41.89 14.16,4.77 29.26,3.15 45.12,-4.89 15.85,-8.02 27.99,-21.5 33.81,-39.16 1.91,-5.75 1.96,-14.34 3.54,-20.36 3.1,-11.84 8.19,-28.32 7.24,-43.02 -0.76,-11.74 -2.93,-38.62 -2.93,-38.62 4.84,-2.39 125.9,98.66 178.45,105.16 0.74,0.94 1.11,1.39 1.84,2.34 20.59,9.91 41.25,2.28 57.89,-6.88 15.36,-8.46 40.36,-19.82 57.23,-38.8 70.65,-79.55 79.88,-212.95 83.29,-316.37 3.97,-120.63 -1.35,-244.95 -4.78,-366.09 -1.76,-62.24 -1.67,-106.97 -0.75,-134 1.31,-17.07 1.95,-25.56 3.23,-42.48 4.93,-4.17 11.68,-7.67 20.18,-10.33 38.75,-12.14 79.73,21.45 124.1,103.48 32.51,60.11 65.75,144.26 94.38,251.36 4.8,17.95 14.02,31.49 28.14,39.77 14.08,8.27 28.34,9.82 42.58,4.55 14.23,-5.26 24.53,-16.48 30.81,-33.44 6.29,-17.02 7.16,-34.22 2.24,-50.66 -28.55,-95.7 -59.12,-193.79 -106.35,-281.74 -60.52,-112.69 -169.95,-144.53 -206.9,-160.57 -9.09,-3.94 -26.5,-19.77 -44.09,-16.96 -36.54,5.84 -56.97,11.1 -59.16,11.93 -30.98,11.75 -65.79,19.86 -81.65,35.14 -41.04,39.52 -63.31,109.41 -69.96,206.59 -3.77,55.04 -2.25,140.91 6.68,258.78 10.37,136.95 15.52,228.22 15.84,268.74 0.42,52.51 -2.83,129.68 -6,131.44 -4.84,2.68 -56.01,-35.05 -90.86,-70.36 -24.15,-24.49 -52.43,-70.23 -84.05,-135.71 1.32,-82.84 2.02,-123.94 3.23,-205.21 4.17,-160.24 1.83,-328.34 4.02,-481.02 0.23,-15.66 -3.45,-30.54 -13.34,-42.39 -9.88,-11.84 -21.88,-17.45 -36.02,-16.89 -11.79,0.47 -27.73,13.16 -32.61,13.51 -3.78,0.27 -18.37,-5.87 -29.64,-4.7 -4.45,0.45 -11.78,4.35 -16.2,4.86 -3.12,0.36 -10.18,-1.76 -15.76,-1.2 -13.64,1.36 -26.81,9.56 -37.74,22.35 -10.94,12.78 -16.34,28.23 -16.78,45.69 -2.36,93.41 -6.02,189.36 -9.23,283.64 -3.41,100.42 -5.63,203.38 -13.93,301.83 -1.08,12.87 -3.5,39.67 -6.46,79.98 -2.96,40.28 -4.89,70.89 -5.79,91.55 -0.89,20.65 -1.15,47.63 -0.76,81.05 0.39,33.42 1.34,64.85 4.06,92.81 0.57,5.89 3.48,13 4.03,17.96 2.92,26 8.22,54.77 34.77,65.45"
         inkscape:connector-curvature="0" /><path
         id="path100"
         style="fill:#ffffff;fill-opacity:1;fill-rule:nonzero;stroke:none"
         d="m 7299.48,4315.96 c -35.54,-156.66 -63.89,-314.07 -83.81,-472.22 -13.37,-106.12 -16.02,-192.91 -13.7,-255.82 1.79,-48.33 5.42,-97.9 15.87,-107.6 18.47,-17.17 78.11,-13.42 112.26,0.61 34.14,14.02 75.43,48.07 123.25,91.04 5.53,4.97 12.83,9.03 16.25,12.48 23.48,23.67 55.23,88.52 96.84,167.47 31.58,60.84 47.4,91.62 79.09,153.53 8.59,16.37 20.42,26.95 35.48,31.67 15.01,4.71 28.53,1.91 40.38,-8.41 11.85,-10.29 18.89,-25.03 21.05,-44.1 2.16,-19.09 -1.67,-36.96 -11.47,-53.47 -22.85,-43.31 -34.23,-64.82 -57.03,-107.51 -25,-47.5 -37.49,-71.06 -62.4,-117.6 -15.9,-31.58 -37.83,-68.35 -65.7,-109.75 -27.89,-41.42 -54.75,-75.07 -80.6,-101.43 -25.88,-26.41 -56.91,-50.93 -93.37,-73.74 -36.48,-22.84 -74.4,-39.47 -113.78,-50.15 -2.15,-0.13 -3.2,-0.2 -5.35,-0.32 -19.13,-12.26 -39.57,-19.06 -59.08,-22.1 -30.17,-4.71 -65.42,5.76 -92.92,13.76 -6.71,1.95 -15.52,4.06 -21.48,9.34 -7.17,4.66 -10.77,7 -17.94,11.68 -13.17,7.77 -15.17,25.76 -18.04,37.01 -8.01,31.34 -41.92,79.56 -47.54,117.78 -15.48,105.14 -0.77,213.05 6.39,316.23 8.07,116.51 10.3,242.5 22.98,362.83 4.58,43.5 25.45,157.75 21.63,161.46 -3.79,3.66 -53.91,-10.02 -76.77,-14.88 -10.22,-2.16 -19.63,0.19 -28.12,7.3 -8.48,7.11 -11.15,26.02 -15.06,31.25 -7.07,9.44 -35.23,27.92 -38,55.05 -1.85,18.07 2.57,35.42 12.79,51.42 10.19,15.98 23.18,25.33 38.81,27.95 48.11,8.05 121.52,10.5 132.19,21.25 29.45,29.71 26.34,188.47 28,254.78 0.22,8.6 7.08,19.84 7.74,24.87 0.87,6.67 -5.48,23.29 -4.03,34.85 2.19,17.44 10.35,32.38 23.34,44.11 12.98,11.71 27.97,16.7 44.72,14.97 56.68,-5.9 98.53,-26.44 126,-61.82 1.5,0.13 2.28,0.17 3.79,0.29 15.05,-1.7 27.14,-8.94 36.39,-21.95 9.26,-13.04 13.59,-29.62 11.82,-48.28 -5.08,-53.68 -31.17,-177.51 -29.06,-179.55 6.45,-6.26 127.06,26.34 215.16,41.85 14.33,2.52 25.55,-1.81 36.83,-13.64 11.28,-11.83 16.72,-26.82 16.72,-44.98 v -2.29 c 10,-5.88 5.16,-11.88 5.1,-17.96 -0.1,-9.15 -1.9,-18.63 -2.99,-25.57 -0.22,-1.31 1.52,-4.09 2.15,-6.73 2.4,-10.17 -0.69,-23.88 -5.6,-35.06 -4.94,-11.22 -12.72,-18.84 -23.55,-22.87 -69.85,-25.99 -156.85,-49.35 -265.66,-70.07 -0.02,-2.78 0.05,-4.18 0.03,-6.96"
         inkscape:connector-curvature="0" /><path
         id="path102"
         style="fill:#ffffff;fill-opacity:1;fill-rule:nonzero;stroke:none"
         d="m 7803.78,4795.12 c 3.65,4.78 7.91,9.76 12.78,14.52 11.78,11.53 25.46,16.4 39.91,14.64 14.44,-1.76 25.31,-12.6 34.13,-24.8 1.82,-2.53 5.96,-7.19 10.74,-13.81 5.71,-7.96 8.56,-11.96 14.28,-19.93 15.43,-22.79 25.61,-45.83 30.04,-68.78 5.83,-30.15 3.25,-58.75 -7.28,-84.98 -10.54,-26.27 -26.55,-46.88 -46.77,-61.77 -31.51,-23.21 -65.7,-31.44 -101.38,-23.98 -18.96,3.97 -36.54,14.04 -51.98,30.46 -15.45,16.44 -23.89,39.89 -24.54,69.46 -1.09,50.3 24.49,103.36 75.55,158.56 5.82,4.17 8.7,6.25 14.52,10.41 m 429.5,-992.27 c -11.14,-24.82 -16.73,-37.18 -27.85,-61.81 -13.37,-30.46 -20.02,-45.63 -33.36,-75.73 -7.42,-17.76 -18.24,-40.89 -32.36,-69.12 -14.14,-28.27 -27.91,-54.36 -41.37,-78.41 -16.14,-27.99 -24.19,-41.86 -40.29,-69.36 -80.38,-102.97 -165.63,-209.17 -305.78,-211.84 -59,-1.13 -103.26,23.67 -125.37,70.87 -3.64,7.76 -5.47,19.14 -8.8,26.36 -2.73,5.91 -9.5,14.56 -14.2,24 -4.7,9.41 -9.48,23.64 -10.46,39.53 -0.58,9.29 -1.05,23.44 -1.49,38.72 -0.76,26.45 1.07,63.35 2.78,107.9 3.98,103.87 10.49,208.4 17.84,311.7 7.52,105.71 17.12,212.88 27.37,318.29 4.42,45.39 9.04,83.34 12.18,111.07 1.73,15.22 3.99,28.68 5.89,37.83 3.36,16.2 6.25,31.18 11.29,40.63 10.36,19.45 27.34,38.93 47.46,51.23 3.27,2 7.52,3.8 9.09,5.61 17.2,19.86 36.56,40.84 61.75,34.61 0.72,0.09 1.09,0.14 1.81,0.23 1.19,0.14 3.62,0.04 7.19,-0.31 3.6,-0.36 8.27,0.29 12.66,0.39 28.25,0.61 52.71,-18.03 64.37,-47.32 7,-17.58 10.63,-46.62 11.51,-86.63 0.64,-29.22 -0.6,-67.83 -3.34,-114.7 -5.99,-102.41 -13.76,-205.97 -22.15,-308.65 -10.7,-131.07 -26.64,-266.13 -31.63,-393.88 -0.72,-18.47 1.4,-34.2 4.98,-45.16 6.73,-20.64 44.14,-41.77 64.48,-34.49 19.81,7.09 51.07,58.42 78.38,98.07 12.3,17.87 25.62,37.54 36.66,58.47 14.73,28.88 22.1,43.44 36.86,72.71 13.51,26.05 23.99,47.33 31.4,63.65 12.62,29.22 18.93,43.92 31.56,73.43 14.85,32.92 24.09,54.61 27.9,64.24 7.1,17.96 18.45,30.76 32.97,37.91 14.53,7.14 28.33,7.3 41.46,0.46 13.11,-6.82 21.37,-19.11 24.74,-36.82 3.36,-17.72 1.31,-35.61 -6.13,-53.68"
         inkscape:connector-curvature="0" /><path
         id="path104"
         style="fill:#ffffff;fill-opacity:1;fill-rule:nonzero;stroke:none"
         d="m 8200.68,4429.53 c 40.04,23.54 60.05,35.41 100.11,59.37 13.32,7.05 26.91,7.66 40.64,1.85 13.71,-5.81 23.68,-17.98 27.48,-35.06 1.25,-5.69 0.47,-14.2 1.52,-20.46 1.84,-11.17 5.14,-27.82 2.98,-43.38 -1.69,-12.27 -6,-40.56 -6,-40.56 3.22,-1.55 123.2,121.87 171.47,136.83 0.75,1.08 1.09,1.62 1.82,2.7 19.41,13.38 38.57,8.51 52.3,2.23 12.93,-5.93 35.96,-13.89 49.95,-30.24 64.8,-75.72 62.18,-212.39 59.8,-309.41 -3.09,-125.28 -13.93,-253.94 -23.61,-378.93 -4.98,-64.41 -6.8,-110.8 -7.12,-138.44 0.52,-17.28 0.75,-25.87 1.28,-42.99 4.74,-3.16 11.33,-5.16 19.68,-5.91 38.16,-3.46 81.22,40.83 127.13,134.9 43.32,88.76 74.3,184.06 100.6,277.27 5.36,18.97 14.54,34.95 28.45,46.4 13.84,11.41 27.66,16.04 41.3,13.87 13.63,-2.17 23.33,-11.17 29,-26.82 5.7,-15.68 6.15,-32.75 0.99,-50.41 -30.68,-104.85 -64.27,-209.98 -111.52,-310.1 -41.68,-88.33 -156.09,-176.5 -211.8,-213.29 -11.17,-7.37 -27.42,-26.44 -45.13,-27.74 -36.55,-2.68 -57.25,-2.1 -59.29,-1.77 -31.17,5.02 -65.6,5 -80.78,17 -39.23,31.03 -57.46,97.99 -57.32,198.63 0.07,56.63 7.78,147.52 25.23,273.29 13.11,94.61 26.66,189.87 34.87,284.48 4.76,54.71 3.9,135.37 3.9,135.37 -3.43,1.73 -54.31,-45.55 -89.65,-88.39 -24.5,-29.69 -54.71,-82.43 -90.66,-157.52 -6.35,-87.6 -9.53,-131.32 -15.76,-217.72 -10.36,-168.86 -27.59,-345.36 -36.34,-506.41 -0.86,-15.85 -5.63,-32.13 -16.54,-46.49 -10.89,-14.36 -23.55,-22.79 -37.98,-25.44 -12.04,-2.21 -28.14,6.53 -32.41,6.34 -4.39,-0.21 -19.43,-10.19 -30.72,-11.53 -4.59,-0.54 -12.14,1.56 -16.19,1.25 -3.48,-0.25 -10.5,-4.12 -16.27,-4.82 -13.68,-1.68 -26.71,3.63 -36.86,14.26 -10.12,10.62 -14.34,25.22 -13.23,43.3 6.05,98.42 12.04,199.29 19.11,298.69 7.68,107.87 17.14,217.84 20.46,324.21 0.43,13.7 1.18,42.29 2.98,85.28 1.81,42.95 3.49,75.54 5,97.57 1.52,22 4.36,50.87 8.47,86.51 4.11,35.65 8.46,69.08 14.03,98.95 1.17,6.32 4.59,13.77 5.68,19.52 5.29,27.68 13.45,58.57 38.95,73.76"
         inkscape:connector-curvature="0" /><path
         id="path106"
         style="fill:#ffffff;fill-opacity:1;fill-rule:nonzero;stroke:none"
         d="m 9230.27,4483.63 c -15.71,-43.08 -23.56,-64.64 -39.28,-107.73 -16.28,-47.54 -30.37,-89.48 -42.27,-125.69 -11.93,-36.26 -29.35,-100.87 -29.35,-100.87 4.27,-3.55 90.96,50.85 122.25,80.55 21.91,20.79 43.71,48.53 62.67,83.34 18.95,34.77 31.42,67.99 38.16,98.49 6.09,27.57 7.37,51.07 1.27,66.28 -6.66,16.6 -24.95,28.72 -49.06,32.29 -17.07,2.51 -46.92,3.11 -53.3,-2.79 -3.17,-2.94 -6.23,-16.34 -11.09,-23.87 m 23.48,-708.74 c 78.13,29.35 174.86,152.4 246.28,246.45 77.9,102.61 138.01,227.38 186.15,350.04 7.43,18.94 18.15,33.5 32.3,43.27 14.15,9.77 27.56,12.6 40.25,8.57 12.66,-4.03 20.56,-14.27 23.68,-30.75 3.11,-16.49 1,-34.3 -6.38,-53.25 -18.22,-46.78 -37.25,-90.82 -56.62,-131.91 -2.91,-6.39 -4.35,-9.59 -7.26,-15.97 -4.84,-9.18 -23.34,-49.64 -55.43,-120.52 -32.11,-70.88 -60.46,-127.4 -85.03,-170.02 -24.59,-42.67 -52.12,-86.41 -83.32,-123.01 -90.77,-106.49 -199.44,-198.74 -348.89,-214.75 -49.09,-5.25 -93.41,2.18 -130.67,20.62 -37.28,18.43 -65.85,45.32 -85.68,80.66 -19.83,35.35 -34.49,77.48 -43.95,126.49 -9.46,48.96 -12.02,100.94 -9.42,153.94 2.51,51.08 7.8,107.4 20.45,162.32 31,134.62 77.53,266.79 158.45,382.99 63.39,91.01 164.97,176.34 284.09,159.19 53.05,-7.62 89.52,-34.53 108.14,-80.8 17.03,-42.28 18.11,-95.78 3.97,-159.28 -11.6,-52.1 -31.72,-104.07 -60.32,-155.63 -28.64,-51.59 -60.36,-95.62 -95.2,-130.24 -49.59,-49.28 -173.86,-89.89 -195.5,-119.38 -25.66,-34.98 25.58,-167.42 91.01,-210.34 20.73,-13.6 53.03,-24.65 68.9,-18.69"
         inkscape:connector-curvature="0" /><path
         id="path108"
         style="fill:#ce1435;fill-opacity:1;fill-rule:nonzero;stroke:none"
         d="m 2942.64,2986.64 c 131.65,204.01 386.81,291.79 592.77,248.14 71.24,384.54 530.91,468.63 735.57,184.25 231.94,-322.25 212.55,-928.53 75.72,-1366.24 -451.4,-18.53 -979.54,53.07 -1283.84,336.14 -155.5,144.67 -268.79,367.41 -120.22,597.71"
         inkscape:connector-curvature="0" /><path
         id="path110"
         style="fill:#ac0a2d;fill-opacity:1;fill-rule:nonzero;stroke:none"
         d="m 3051.42,2503.42 c 304.29,-283.08 832.44,-354.68 1283.84,-336.13 75.19,240.53 114.78,531.91 96.81,799.16 40.25,-296.16 0.73,-638.24 -85.36,-913.66 -451.41,-18.53 -979.55,53.07 -1283.84,336.14 -108.87,101.29 -196.91,240.86 -189.03,394.48 27,-107.88 96.5,-204.57 177.58,-279.99"
         inkscape:connector-curvature="0" /><path
         id="path112"
         style="fill:#f74169;fill-opacity:1;fill-rule:nonzero;stroke:none"
         d="m 3043.73,3008.93 c 16.97,43.33 50.57,81.27 89.63,103.53 167.82,95.67 374.66,89.43 557.53,47.82 18.47,-4.21 39.41,-9.03 61.9,-14.53 -106.02,81.71 -154.61,201.92 -13.04,330.69 168.84,153.54 438.55,23.63 535.16,-147 91.13,-160.94 83.64,-378.44 -65.09,-502.8 -110.71,-92.57 -245.5,-129.93 -385.71,-147.07 -170.77,-20.84 -916.25,-17.86 -780.38,329.36"
         inkscape:connector-curvature="0" /><path
         id="path114"
         style="fill:#ffffff;fill-opacity:1;fill-rule:nonzero;stroke:none"
         d="m 3808.54,3478.98 c 34.48,40.07 162.42,38.5 206.6,14.16 165.34,-91.05 -248.41,-137.09 -213.76,-26.73 1.44,4.58 3.87,8.77 7.16,12.57"
         inkscape:connector-curvature="0" /><path
         id="path116"
         style="fill:#ffffff;fill-opacity:1;fill-rule:nonzero;stroke:none"
         d="m 3238.54,3118.98 c 43.87,50.95 210.12,55.88 239.62,-13.03 30.02,-70.11 -147.7,-66.72 -183.91,-59.77 -29.45,5.62 -75.09,21.36 -62.87,60.23 1.44,4.58 3.87,8.77 7.16,12.57"
         inkscape:connector-curvature="0" /></g></g></svg>