<?xml version="1.0" encoding="UTF-8" standalone="no"?>
<svg
   xmlns:dc="http://purl.org/dc/elements/1.1/"
   xmlns:cc="http://creativecommons.org/ns#"
   xmlns:rdf="http://www.w3.org/1999/02/22-rdf-syntax-ns#"
   xmlns:svg="http://www.w3.org/2000/svg"
   xmlns="http://www.w3.org/2000/svg"
   xmlns:sodipodi="http://sodipodi.sourceforge.net/DTD/sodipodi-0.dtd"
   xmlns:inkscape="http://www.inkscape.org/namespaces/inkscape"
   viewBox="0 0 1662.5 1662.5"
   height="1662.5"
   width="1662.5"
   xml:space="preserve"
   version="1.1"
   id="svg2"
   inkscape:version="0.91 r13725"
   sodipodi:docname="018.svg"><sodipodi:namedview
     pagecolor="#ffffff"
     bordercolor="#666666"
     borderopacity="1"
     objecttolerance="10"
     gridtolerance="10"
     guidetolerance="10"
     inkscape:pageopacity="0"
     inkscape:pageshadow="2"
     inkscape:window-width="1605"
     inkscape:window-height="904"
     id="namedview12772"
     showgrid="false"
     inkscape:zoom="0.14195489"
     inkscape:cx="831.25"
     inkscape:cy="831.25"
     inkscape:window-x="0"
     inkscape:window-y="0"
     inkscape:window-maximized="0"
     inkscape:current-layer="svg2" /><metadata
     id="metadata8"><rdf:RDF><cc:Work
         rdf:about=""><dc:format>image/svg+xml</dc:format><dc:type
           rdf:resource="http://purl.org/dc/dcmitype/StillImage" /></cc:Work></rdf:RDF></metadata><defs
     id="defs6" /><g
     transform="matrix(1.8795878,0,0,-1.8795878,-420.6811,2061.3234)"
     id="g10"><g
       transform="scale(0.1,0.1)"
       id="g12"><path
         id="path16"
         style="fill:#222823;fill-opacity:1;fill-rule:nonzero;stroke:none"
         d="m 8116.7,8236.6 c 3.11,249.9 -265.9,415.4 -544.1,515.7 -408.5,147.4 -814.9,57.6 -1225.4,50.4 -400,-7 -810.1,-73.6 -1182.3,-352.2 -121.8,-91.2 -230.5,-226.1 -233.8,-358.5 l 0,-1.8 c 0,-4.6 0,-9.1 0.1,-13.7 0.4,-119.3 3.4,-240.3 7.9,-360.7 81.2,-10.3 162.6,-26.2 244.2,-49.9 347.4,-101 542.7,-271.9 542.7,-460.5 l 0,-0.9 c 2.6,-110.9 3.9,-248.5 4.6,-399.9 50.5,23.9 103.1,45.4 156.1,64.5 408.4,147.4 814.8,57.6 1225.3,50.4 167.3,-2.9 336.3,-16.3 503.7,-51.3 l 0,0.1 c -6.1,264.1 4.9,116.6 -7.1,392.4 -1.4,11.5 -1.9,23 -1.5,34.6 3.2,132.4 111.9,267.3 233.7,358.5 89.01,66.6 180.1,120.1 272.6,163 l 0,0.1 c 4,156.8 6.2,300.5 3.3,419.7"
         inkscape:connector-curvature="0" /><path
         id="path18"
         style="fill:#48534a;fill-opacity:1;fill-rule:nonzero;stroke:none"
         d="m 6278.3,7456.39 c 6.79,-169.18 11.86,-338.34 13.75,-507.36 272.7,16.96 545.41,-24.71 819.96,-29.52 0.47,-0.01 0.95,-0.03 1.43,-0.05 -18.78,174.8 -34.8,349.94 -48.09,525.34 -261.78,-11.39 -524.8,-3.93 -787.05,11.59"
         inkscape:connector-curvature="0" /><path
         id="path20"
         style="fill:#222823;fill-opacity:1;fill-rule:nonzero;stroke:none"
         d="m 10799.4,6899.3 c -5,483.2 0,246.5 -8.3,598.2 -1.6,187.7 -196.6,357.5 -542.6,458.1 -412.3,119.9 -817.61,40.2 -1228.09,33 -304.3,-5.3 -612.91,-35.1 -907.02,-171.8 -92.5,-42.9 -183.59,-96.4 -272.59,-163 -121.8,-91.2 -230.5,-226.1 -233.69,-358.5 0.48,-12.2 1.09,-23.8 1.5,-34.6 11.98,-275.8 1,-128.3 7.09,-392.4 l 0,-0.1 c 232.69,-48.5 462.1,-138.8 678.59,-300.9 121.82,-91.2 230.51,-226.1 233.8,-358.5 l 0,-2.1 c 0.11,-4.01 0.11,-8 0,-12.1 -0.5,-457.9 5.61,-161.2 0,-532.1 -4.48,-297.2 -13.89,-515.8 -20.89,-743.5 287.41,-61.8 569.91,-66.1 866.5,-68.81 400,-3.59 834.7,137.9 1210.1,406.61 126.9,90.8 238,228.79 238,365.4 0,303.1 -16.8,747.1 -22.4,1277.1"
         inkscape:connector-curvature="0" /><path
         id="path22"
         style="fill:#48534a;fill-opacity:1;fill-rule:nonzero;stroke:none"
         d="m 9182.73,6703.02 c 43.15,-616.63 74.56,-1234.36 45.54,-1851.07 48.15,-0.79 96.59,-1.3 145.43,-1.75 303.64,-2.73 627.3,78.22 929.8,234.88 -22.4,607.61 -50.6,1215.1 -55.2,1824 C 10059,6855.93 9863.34,6814.1 9670,6770 c -165.11,-35.89 -325.07,-71.78 -487.27,-66.98"
         inkscape:connector-curvature="0" /><path
         id="path24"
         style="fill:#222823;fill-opacity:1;fill-rule:nonzero;stroke:none"
         d="m 5730.6,6804.6 c -0.7,151.4 -2,289 -4.6,399.9 l 0,0.9 c 0,188.6 -195.3,359.5 -542.7,460.5 -81.6,23.7 -163,39.6 -244.2,49.9 -328.8,41.3 -654.6,-11.1 -983.8,-16.9 -400.1,-7 -807.4,-56.3 -1179.6,-334.8 -121.8,-91.3 -230.5,-226.2 -233.8,-358.5 l 0,-14.9 c 0.9,-473.7 15.1,-963.5 20.7,-1334.3 7.2,-473.6 6.1,55.3 8.4,-374.09 1.4,-264.71 251.4,-442.11 536.9,-553.11 406.7,-158.2 790.1,-165 1200.6,-168.7 346,-3.1 717.9,102.3 1055,304.6 0.3,26.8 0.6,56 0.9,87.7 5,482.6 -30.2,1048.7 -21.9,1400.6 -2.6,202.3 173.4,349.3 388.1,451.2"
         inkscape:connector-curvature="0" /><path
         id="path26"
         style="fill:#48534a;fill-opacity:1;fill-rule:nonzero;stroke:none"
         d="m 4408.79,6464.65 c -349.15,-26.58 -698.36,-23.42 -1034.45,54.44 51.34,-619.69 61.4,-1236.4 -27.91,-1866.95 320.61,-83.62 632.61,-88.67 962.07,-91.64 70.22,-0.63 141.52,3.29 213.36,11.5 -4,26.09 -7.93,52.1 -11.86,78 -90.17,608.66 -126.21,1214.13 -101.21,1814.65"
         inkscape:connector-curvature="0" /><path
         id="path28"
         style="fill:#222823;fill-opacity:1;fill-rule:nonzero;stroke:none"
         d="m 8528.1,6194.6 0,14.2 c -3.3,132.4 -111.99,267.3 -233.8,358.51 -216.5,162.09 -445.91,252.39 -678.59,300.89 -167.41,35 -336.41,48.4 -503.71,51.3 -410.5,7.2 -816.9,97 -1225.3,-50.4 -52.99,-19.1 -105.6,-40.6 -156.1,-64.5 -214.71,-101.9 -390.69,-248.9 -388.1,-451.2 -8.3,-351.9 26.89,-918 21.89,-1400.6 -0.28,-31.7 -0.59,-60.9 -0.89,-87.7 -4.59,-422 -3.9,-268.5 -3.79,-344.6 0,-136.7 64.68,-259.3 191.59,-350.2 375.4,-268.6 786.2,-324.4 1186.3,-320.8 410.5,3.7 817.79,-75.3 1224.5,82.9 285.4,111 535.5,288.5 536.9,553.1 0.91,160 4.1,298.4 8.2,433.5 7,227.7 16.41,446.3 20.9,743.5 5.61,370.9 -0.5,74.2 0,532.1"
         inkscape:connector-curvature="0" /><path
         id="path30"
         style="fill:#48534a;fill-opacity:1;fill-rule:nonzero;stroke:none"
         d="m 6443.08,5471.93 c 30.57,-538.75 51.13,-1077.52 55.1,-1616.28 79.99,-5.18 159.91,-6.86 239.42,-6.15 362.52,3.27 722.54,-57.85 1081.85,36.75 -136.89,552.11 -213.36,1120.57 -243.78,1691.11 -375.79,-43.11 -754.17,-73.61 -1132.59,-105.43"
         inkscape:connector-curvature="0" /><path
         id="path32"
         style="fill:#dfd4c1;fill-opacity:1;fill-rule:nonzero;stroke:none"
         d="m 10683.9,7491.34 c 1.1,-134.96 -105.1,-279.7 -336.6,-412.42 -655.95,-375.67 -2052.78,-277.36 -2489.52,-2.79 -91.59,57.54 -133.75,124.97 -142.03,194.36 -0.39,10.07 -0.94,20.89 -1.41,32.27 2.98,123.48 104.35,249.29 217.96,334.35 83.01,62.12 167.96,112.01 254.23,152.02 274.29,127.49 562.11,155.29 845.91,160.23 382.85,6.72 760.85,81.05 1145.36,-30.77 322.7,-93.83 504.6,-252.19 506.1,-427.25"
         inkscape:connector-curvature="0" /><path
         id="path34"
         style="fill:#863c00;fill-opacity:1;fill-rule:nonzero;stroke:none"
         d="m 8459.75,7363.63 c -0.56,67.2 52.3,139.27 167.62,205.37 326.61,187.06 1022.18,138.11 1239.68,1.39 45.59,-28.65 66.59,-62.23 70.73,-96.79 0.17,-5.01 0.47,-10.4 0.7,-16.06 -1.5,-61.49 -51.98,-124.14 -108.55,-166.5 -41.33,-30.93 -83.63,-55.78 -126.59,-75.7 -136.59,-63.49 -279.9,-77.33 -421.24,-79.79 -190.64,-3.35 -378.87,-40.36 -570.35,15.32 -160.68,46.72 -251.25,125.59 -252,212.76"
         inkscape:connector-curvature="0" /><path
         id="path36"
         style="fill:#cddd00;fill-opacity:1;fill-rule:nonzero;stroke:none"
         d="m 9365.29,7665.02 c -12.63,-103.45 -50.87,-201.69 -107.67,-288.68 174.28,112.73 391.96,180.68 601.93,178.18 -95.6,92.2 -314.11,110.19 -494.26,110.5"
         inkscape:connector-curvature="0" /><path
         id="path38"
         style="fill:#ffc200;fill-opacity:1;fill-rule:nonzero;stroke:none"
         d="m 9023.26,7145.32 c 256.11,-18.45 545.83,8.14 723.24,105.62 110.95,61 162.03,127.92 161.86,190.61 -0.08,25.81 -5.86,48.59 -16.07,68.88 -218.48,-13.51 -436.64,-75.48 -643.12,-146.3 -59.13,-86.78 -136.64,-161.92 -225.91,-218.81"
         inkscape:connector-curvature="0" /><path
         id="path40"
         style="fill:#f77a00;fill-opacity:1;fill-rule:nonzero;stroke:none"
         d="m 9288.63,7664.22 c -72.29,-1.6 -132.71,-4.95 -167.64,-5.34 -135.54,-1.51 -273.05,-13.62 -404.38,-72.06 -41.32,-18.34 -82,-41.28 -121.8,-69.91 -54.48,-39.18 -103.23,-97.33 -105,-154.68 0.18,-5.29 0.44,-10.3 0.59,-14.98 3.76,-32.26 23.73,-63.69 67.29,-90.67 65.93,-40.84 178.07,-73.69 310.46,-94.03 128.47,38.75 249.99,131.34 341.85,217.45 80.41,71.48 120.83,182.84 78.63,284.22"
         inkscape:connector-curvature="0" /><path
         id="path42"
         style="fill:#dfd4c1;fill-opacity:1;fill-rule:nonzero;stroke:none"
         d="m 5419.63,6348.89 c -2.47,192.52 165,332.4 369.31,429.37 48.05,22.74 98.11,43.2 148.54,61.37 388.62,140.26 775.34,54.81 1165.97,47.96 159.19,-2.77 320.01,-15.52 479.3,-48.82 221.43,-46.14 439.73,-132.07 645.74,-286.32 115.91,-86.79 219.34,-215.15 222.48,-341.15 l 0,-13.5 c -2.57,-77.66 -44.53,-153.69 -146.45,-217.73 -445.62,-280.04 -917.03,-302.5 -1379.11,-350.46 -422.98,-43.88 -885.83,-89.17 -1277.21,301.17 -161.39,160.91 -227.24,299.47 -228.57,418.11"
         inkscape:connector-curvature="0" /><path
         id="path44"
         style="fill:#863c00;fill-opacity:1;fill-rule:nonzero;stroke:none"
         d="m 7753.38,6212.77 c 1.33,-103.92 -89.06,-179.42 -199.34,-231.76 -25.93,-12.27 -52.95,-23.32 -80.18,-33.13 -209.76,-75.71 -418.5,-29.58 -629.35,-25.88 -85.92,1.48 -172.72,8.37 -258.71,26.36 -119.52,24.9 -237.34,71.29 -348.54,154.53 -62.56,46.84 -118.4,116.13 -120.09,184.14 l 0,7.28 c 1.39,41.94 24.04,82.96 79.05,117.53 240.52,151.16 494.97,163.28 744.4,189.17 228.31,23.69 478.13,48.13 689.4,-162.56 87.11,-86.86 122.64,-161.64 123.36,-225.68"
         inkscape:connector-curvature="0" /><path
         id="path46"
         style="fill:#cddd00;fill-opacity:1;fill-rule:nonzero;stroke:none"
         d="m 7686.48,6110.25 c -277.34,0.59 -555.27,-60.21 -817.89,-156.71 184.25,-7.25 673.3,-25.16 817.89,156.71"
         inkscape:connector-curvature="0" /><path
         id="path48"
         style="fill:#f77a00;fill-opacity:1;fill-rule:nonzero;stroke:none"
         d="m 6874.88,6567.77 c -185.89,-10.06 -380.16,-42.04 -540.2,-127 -145.65,-77.35 -242.46,-204.42 -73.62,-322.91 165.79,-116.36 367.88,-153.11 566.5,-162.56 70.83,29.88 143.22,55.28 216.73,77.15 -134.08,132.41 -187.04,347.12 -169.41,535.32"
         inkscape:connector-curvature="0" /><path
         id="path50"
         style="fill:#ffc200;fill-opacity:1;fill-rule:nonzero;stroke:none"
         d="m 7605.9,6441.7 c -151.74,142.05 -395.05,130.86 -587.97,130.13 -24.05,-0.09 -48.5,-0.51 -73.16,-1.18 -38.82,-160.04 -3.22,-343.76 65.23,-480.65 11.15,-20.71 24.81,-39.16 40.08,-55.76 212.6,62.62 434.83,94.62 658.45,111.05 12.73,26.02 19.54,55.33 18.77,88.52 -1.27,59.31 -36.32,128.24 -121.4,207.89"
         inkscape:connector-curvature="0" /><path
         id="path52"
         style="fill:#dfd4c1;fill-opacity:1;fill-rule:nonzero;stroke:none"
         d="m 8014.36,8230.63 c -1.31,-116.69 -66.06,-252.93 -224.77,-411.17 -384.88,-383.84 -840.02,-339.3 -1255.95,-296.16 -454.41,47.16 -917.98,69.24 -1356.18,344.63 -99.76,62.7 -141.12,137 -143.92,212.89 -0.09,4.3 -0.09,8.51 -0.09,12.82 l 0,1.68 c 3.09,123.89 104.8,250.13 218.78,335.47 348.27,260.7 732.02,323.01 1106.32,329.57 384.13,6.73 764.41,90.77 1146.66,-47.17 260.34,-93.85 512.06,-248.72 509.15,-482.56"
         inkscape:connector-curvature="0" /><path
         id="path54"
         style="fill:#863c00;fill-opacity:1;fill-rule:nonzero;stroke:none"
         d="m 5696.16,8095.41 c 0.73,64.8 36.69,140.47 124.82,228.35 213.75,213.17 466.53,188.44 697.53,164.48 252.36,-26.19 509.81,-38.46 753.19,-191.41 55.4,-34.81 78.37,-76.08 79.92,-118.22 0.06,-2.39 0.06,-4.73 0.06,-7.13 l 0,-0.93 c -1.72,-68.81 -58.21,-138.91 -121.51,-186.31 -193.43,-144.78 -406.55,-179.39 -614.43,-183.02 -213.32,-3.74 -424.53,-50.41 -636.82,26.19 -144.58,52.12 -284.37,138.13 -282.76,268"
         inkscape:connector-curvature="0" /><path
         id="path56"
         style="fill:#cddd00;fill-opacity:1;fill-rule:nonzero;stroke:none"
         d="m 6481.97,8208.56 c 38.02,82.76 85.88,160.76 143.1,230.23 -131.94,10.41 -264.07,25.46 -396.48,14.16 -79.81,-6.81 -174.71,-28.15 -260.82,-66.24 130.63,-145.31 321.08,-190.19 514.2,-178.15"
         inkscape:connector-curvature="0" /><path
         id="path58"
         style="fill:#ffc200;fill-opacity:1;fill-rule:nonzero;stroke:none"
         d="m 5937.32,8372.5 c -79.46,-40 -148.36,-95.48 -186.03,-168.66 -53.44,-103.84 23.61,-237.43 114.51,-293.16 119.53,-73.27 274.88,-88.25 411.99,-93.02 33.83,-1.18 68.74,-2.82 104.31,-4.46 5.48,95.25 24.36,190.91 55.09,282.84 -135.07,5.03 -265.39,47.25 -367.19,143.96 -44.37,39.93 -92.67,83.82 -132.68,132.5"
         inkscape:connector-curvature="0" /><path
         id="path60"
         style="fill:#f77a00;fill-opacity:1;fill-rule:nonzero;stroke:none"
         d="m 7055.57,8394.26 c -117.39,46.13 -231.7,35.92 -351.93,39.8 C 6573.53,8337.55 6479.8,8190.89 6450,8030 c -16.48,-74.18 -5.74,-151.73 25.12,-220.8 253.58,-9.21 527.11,0.5 708.52,185.07 69.15,70.36 96.91,130.01 97.38,180.97 1.03,102.06 -108.67,173.13 -225.45,219.02"
         inkscape:connector-curvature="0" /><path
         id="path62"
         style="fill:#dfd4c1;fill-opacity:1;fill-rule:nonzero;stroke:none"
         d="m 5613.34,7199.1 0,-0.83 c -0.46,-133.54 -106.41,-276.64 -335.45,-407.85 -653.44,-374.29 -2045.16,-276.35 -2480.32,-2.88 -99.23,62.36 -140.3,136.41 -143,212.05 l 0,13.85 c 3.07,122.94 104.07,248.29 217.25,333.13 345.86,258.79 724.34,304.6 1096.11,311.11 305.91,5.39 608.66,54.08 914.2,15.7 75.44,-9.57 151.08,-24.35 226.92,-46.37 322.81,-93.85 504.29,-252.66 504.29,-427.91"
         inkscape:connector-curvature="0" /><path
         id="path64"
         style="fill:#863c00;fill-opacity:1;fill-rule:nonzero;stroke:none"
         d="m 3369.28,7093.63 0,0.43 c 0.24,69.02 55,142.99 173.39,210.81 337.75,193.47 1057.11,142.85 1282.03,1.49 51.3,-32.23 72.53,-70.5 73.93,-109.6 l 0,-7.16 c -1.59,-63.54 -53.8,-128.33 -112.3,-172.19 -178.77,-133.77 -374.4,-157.44 -566.57,-160.81 -158.12,-2.78 -314.6,-27.95 -472.53,-8.12 -38.99,4.95 -78.09,12.59 -117.29,23.97 -166.85,48.51 -260.66,130.59 -260.66,221.18"
         inkscape:connector-curvature="0" /><path
         id="path66"
         style="fill:#cddd00;fill-opacity:1;fill-rule:nonzero;stroke:none"
         d="m 4583.61,7381.17 c -26.75,5.99 -53.46,10.47 -80.12,13.65 -150.9,17.8 -300.43,-4.79 -451.52,-7.29 -183.63,-3.02 -370.56,-24.28 -541.38,-144.34 -9.5,-6.7 -18.82,-13.98 -27.77,-21.66 358.49,-128.23 764.63,-5.51 1100.79,159.64"
         inkscape:connector-curvature="0" /><path
         id="path68"
         style="fill:#f77a00;fill-opacity:1;fill-rule:nonzero;stroke:none"
         d="m 4310,7190 c -56.52,11.3 -111.62,12.66 -166.37,9.44 -235.05,-54.21 -480.28,-67.09 -721.18,-48.55 -11.5,-20.25 -18.6,-41.32 -19.16,-62.26 l 0,-6.42 c 1.33,-35.1 21.61,-69.46 70.63,-98.39 207.42,-122.44 854.83,-169 1189.88,-16.02 -55.62,119.47 -233.56,190.13 -353.8,222.2"
         inkscape:connector-curvature="0" /><path
         id="path70"
         style="fill:#ffc200;fill-opacity:1;fill-rule:nonzero;stroke:none"
         d="m 4615.57,7373.3 c -1.37,0.38 -2.73,0.65 -4.1,1.02 -132.78,-72.11 -273.37,-125.54 -418.27,-162.82 198.24,-10.08 396.52,-75.21 531.13,-211.89 95.52,56.84 140.11,117.69 140.31,174.78 l 0,0.39 c 0,81.31 -89.63,154.99 -249.07,198.52"
         inkscape:connector-curvature="0" /><path
         id="path72"
         style="fill:#ffffff;fill-opacity:1;fill-rule:nonzero;stroke:none"
         d="m 5312.96,7867.67 410.33,-7.46 c -92.61,108.77 -327.61,142.51 -410.33,7.46 m 477.47,-190.24 160.4,-22.38 c -44.19,52.22 -111.76,72.32 -160.4,22.38 m 332,-26.11 391.66,7.46 c -43.98,171.29 -313.7,94.51 -391.66,-7.46 m 462.54,-59.69 343.18,-3.73 c -45.56,127.52 -293.67,124.33 -343.18,3.73 M 7663,8035.53 c -106.95,122.14 -286.98,-4.79 -346.91,-115.64 L 7663,8035.53 Z m -384.21,-272.31 387.94,37.31 c -78.71,102.86 -318.52,66.65 -387.94,-37.31 m 97,641.6 421.5,70.88 c -123.9,69.44 -329.61,40.05 -421.5,-70.88 m 119.35,-134.28 317.07,-44.77 c -49.33,119.81 -228.69,125.34 -317.07,44.77 m -537.15,317.06 361.83,0 c -56.37,148.3 -315.59,148.31 -361.83,0 m 193.97,-119.36 c -52.23,53.66 -128.83,53.44 -182.78,3.73 l 182.78,-3.73 z m -731.12,160.4 484.93,-138.02 c -59.87,190.01 -355.89,366.34 -484.93,138.02 m -473.73,-97.17 298.41,-18.65 c -49.12,129.23 -247.98,122.06 -298.41,18.65 m -514.78,-227.36 428.97,145.47 c -112.08,149.55 -402.72,13.92 -428.97,-145.47 m -249.93,-201.44 305.89,48.5 c -76.34,73.05 -269.71,57.47 -305.89,-48.5 m 4783.87,-559.12 257.53,26.27 c -65.5,109.26 -203.5,69.56 -257.53,-26.27 m -2002.43,-404.69 430.97,204.97 c -133.38,69.75 -417.93,-33.39 -430.97,-204.97 m 1597.73,-73.58 289.07,126.14 c -91.8,143.86 -369.26,23.53 -289.07,-126.14 m -430.96,-73.58 283.8,-42.05 c -54.61,110.77 -191.62,110.11 -283.8,42.05 m -667.48,15.76 425.71,26.28 c -35.73,231.4 -354.37,122.38 -425.71,-26.28 m 1792.17,520.32 410,36.79 c -104.9,133.19 -318.8,87.02 -410,-36.79 m -315.3,-373.16 373.1,141.91 c -114.9,116.69 -382.44,31.19 -373.1,-141.91 m -430.98,546.59 551.88,42.05 c -150.59,130.76 -468.61,194.56 -551.88,-42.05 m -688.5,105.12 362.64,10.51 c -33.12,206.99 -284.44,110.49 -362.64,-10.51 m -346.87,-131.39 409.94,-10.51 c -121.09,93.77 -286.28,99.28 -409.94,10.51 m -357.38,-89.35 336.36,-10.51 c -99.41,77.38 -250.93,111.78 -336.36,10.51 m -299.57,-231.25 262.77,57.81 c -82.54,70.96 -202.75,23.71 -262.77,-57.81 m -1578.63,-1656.08 404.23,14.61 c -107.46,84.47 -291.4,45.47 -404.23,-14.61 m -423.69,238.64 428.57,-92.54 c -63.43,158.99 -326.57,251 -428.57,92.54 m 866.89,842.55 c -82.59,100.24 -251.57,72.46 -340.91,-4.88 l 340.91,4.88 z m 803.59,-87.67 423.69,-199.67 c 112.35,281.11 -271.09,404.11 -423.69,199.67 m -409.11,-4.87 331.18,-29.22 c -27.93,175.89 -277.71,151.41 -331.18,29.22 m 599.04,-253.25 189.93,-38.96 c -43.95,76.72 -129.86,95.02 -189.93,38.96 m 204.54,-116.88 345.8,53.57 c -96.04,77.14 -323.31,20.98 -345.8,-53.57 m -131.49,-350.66 384.75,-9.73 c 71.86,313.58 -309.2,111.54 -384.75,9.73 m -297.07,-165.58 292.19,34.09 c -82.9,80.04 -251.99,68.04 -292.19,-34.09 m -501.64,-58.45 248.39,-34.09 c -59.5,86.24 -165.16,92.23 -248.39,34.09 m -603.91,160.72 297.08,-63.31 c -12.94,166.32 -199.87,154.29 -297.08,63.31 m 97.41,686.7 365.26,73.05 c -115.62,55.88 -304.07,53.62 -365.26,-73.05 m -487.02,-68.18 272.72,189.93 c -103.2,-22.05 -281.2,-61.84 -272.72,-189.93 m -331.18,-233.77 267.86,-9.75 c -73.96,64.45 -185.5,60.8 -267.86,9.75 m -53.57,180.19 258.12,38.97 c -75.44,87.4 -226.9,76.35 -258.12,-38.97 m -749.31,269.28 331.01,57.56 c -71.07,109.58 -323.15,81.89 -331.01,-57.56 m 100.75,460.54 244.66,0 c -60.33,64.94 -214.08,106.4 -244.66,0 m -0.1,118.98 211.09,139.12 c -88.66,51 -194.2,-23.83 -211.09,-139.12 m -1285.57,-646.68 426.95,-28.79 c -86.93,143.63 -330.15,121.3 -426.95,28.79 m -945.09,283.04 259.07,206.28 c -119.57,56.72 -281.43,-81.18 -259.07,-206.28 m 849.14,642.84 c -75.93,107.67 -248.36,-5.44 -230.28,-105.55 l 230.28,105.55 z m 187.43,-122.07 115.14,81.55 c -65.61,37.44 -103.64,-2.84 -115.14,-81.55 m 474.59,184.43 292.63,-76.75 c -49.99,113.68 -188.95,129.27 -292.63,76.75 m 551.69,-134.32 369.4,19.19 c -99.36,92.02 -305.14,123.84 -369.4,-19.19 m 355,-489.33 422.16,153.52 c -75.65,212.72 -399.97,1.02 -422.16,-153.52 m -628.44,-259.06 249.45,95.95 c -95.44,32.98 -228.59,0.62 -249.45,-95.95 m -426.16,766.95 292.62,-91.14 c -60.86,102.8 -184.48,136.55 -292.62,91.14 m -661.55,-226.49 278.25,100.74 c -103.41,31.72 -261.6,29.81 -278.25,-100.74 m -169.19,-487.68 546.9,19.19 c -133.45,129.14 -434.14,136.26 -546.9,-19.19 m -215.87,158.31 254.25,43.17 c -63.73,78.74 -194.91,24.51 -254.25,-43.17 m 292.62,273.45 -359.78,19.19 c 56.04,143.81 364.86,189.24 359.78,-19.19"
         inkscape:connector-curvature="0" /></g></g></svg>