<?xml version="1.0" encoding="UTF-8" standalone="no"?>
<svg
   xmlns:dc="http://purl.org/dc/elements/1.1/"
   xmlns:cc="http://creativecommons.org/ns#"
   xmlns:rdf="http://www.w3.org/1999/02/22-rdf-syntax-ns#"
   xmlns:svg="http://www.w3.org/2000/svg"
   xmlns="http://www.w3.org/2000/svg"
   xmlns:sodipodi="http://sodipodi.sourceforge.net/DTD/sodipodi-0.dtd"
   xmlns:inkscape="http://www.inkscape.org/namespaces/inkscape"
   viewBox="0 0 1662.5 1662.5"
   height="1662.5"
   width="1662.5"
   xml:space="preserve"
   version="1.1"
   id="svg2"
   inkscape:version="0.91 r13725"
   sodipodi:docname="020.svg"><sodipodi:namedview
     pagecolor="#ffffff"
     bordercolor="#666666"
     borderopacity="1"
     objecttolerance="10"
     gridtolerance="10"
     guidetolerance="10"
     inkscape:pageopacity="0"
     inkscape:pageshadow="2"
     inkscape:window-width="1511"
     inkscape:window-height="927"
     id="namedview13979"
     showgrid="false"
     inkscape:zoom="0.14195489"
     inkscape:cx="831.25"
     inkscape:cy="831.25"
     inkscape:window-x="0"
     inkscape:window-y="0"
     inkscape:window-maximized="0"
     inkscape:current-layer="svg2" /><metadata
     id="metadata8"><rdf:RDF><cc:Work
         rdf:about=""><dc:format>image/svg+xml</dc:format><dc:type
           rdf:resource="http://purl.org/dc/dcmitype/StillImage" /></cc:Work></rdf:RDF></metadata><defs
     id="defs6" /><g
     transform="matrix(2.4144058,0,0,-2.4144058,-812.70315,2472.2083)"
     id="g10"><g
       transform="scale(0.1,0.1)"
       id="g12"><path
         id="path16"
         style="fill:#6df7ed;fill-opacity:1;fill-rule:nonzero;stroke:none"
         d="m 6772.34,4632.82 c -710.59,60.3 -1355.14,393.7 -1814.98,938.77 -459.82,545.1 -679.86,1236.62 -619.57,1947.2 60.28,710.58 393.67,1355.15 938.75,1814.98 545.09,459.83 1236.61,679.83 1947.18,619.58 710.58,-60.29 1355.14,-393.67 1814.99,-938.76 C 9498.54,8469.5 9718.57,7777.98 9658.29,7067.4 9598,6356.82 9264.63,5712.24 8719.54,5252.41 8174.45,4792.6 7482.92,4572.56 6772.34,4632.82"
         inkscape:connector-curvature="0" /><path
         id="path18"
         style="fill:#006279;fill-opacity:1;fill-rule:nonzero;stroke:none"
         d="m 6772.34,4584.28 c -710.59,60.29 -1355.14,393.69 -1814.98,938.77 -459.82,545.09 -679.86,1236.62 -619.57,1947.19 60.28,710.59 393.67,1355.16 938.75,1814.98 545.09,459.83 1236.61,679.87 1947.18,619.58 710.58,-60.28 1355.14,-393.67 1814.99,-938.76 459.83,-545.08 679.86,-1236.6 619.58,-1947.18 C 9598,6308.27 9264.63,5663.7 8719.54,5203.87 8174.45,4744.05 7482.92,4524.01 6772.34,4584.28"
         inkscape:connector-curvature="0" /><path
         id="path20"
         style="fill:#cccc11;fill-opacity:1;fill-rule:nonzero;stroke:none"
         d="M 9416.42,7087.93 C 9303.11,5752.29 8128.48,4761.41 6792.87,4874.71 5457.23,4988.02 4466.36,6162.64 4579.67,7498.27 4692.98,8833.91 5867.57,9824.79 7203.21,9711.46 8538.84,9598.16 9529.73,8423.55 9416.42,7087.93"
         inkscape:connector-curvature="0" /><path
         id="path22"
         style="fill:#dfea11;fill-opacity:1;fill-rule:nonzero;stroke:none"
         d="m 7627.97,9443.37 c 23.26,127.46 -168.91,151.41 -234.14,69.18 -121.03,-152.57 210.26,-200.01 234.14,-69.18 m -525.14,166.22 c 64.01,-9.03 191.6,-26.74 158.42,-120.47 -17.92,-50.61 -77.61,-67.17 -124.43,-78.08 -114.02,-26.56 -228.78,-8.24 -343.33,-17.61 -162.21,-13.26 -336.39,-50.51 -489.66,-107.6 -144.53,-53.83 -307.05,59.96 -138.61,164.75 235.33,146.42 572.76,181.89 840.97,168.11 22.44,-1.15 58.48,-3.72 96.64,-9.1"
         inkscape:connector-curvature="0" /><path
         id="path24"
         style="fill:#006279;fill-opacity:1;fill-rule:nonzero;stroke:none"
         d="m 7534.17,8317.18 c 14.2,22.73 7.29,52.69 -15.47,66.89 -22.73,14.21 -52.68,7.28 -66.89,-15.46 -79.93,-127.99 -222.8,-199.49 -372.93,-186.85 -150.1,12.73 -278.91,107.38 -336.14,247.01 -10.16,24.82 -38.57,36.66 -63.34,26.51 -24.81,-10.17 -36.68,-38.52 -26.5,-63.34 71.11,-173.51 231.19,-291.11 417.76,-306.93 11.96,-1.02 23.84,-1.6 35.7,-1.77 173.28,-2.4 334.84,85.08 427.81,233.94 m 935.91,260.71 c 24.8,10.16 36.68,38.52 26.5,63.33 -59.81,145.96 -194.49,244.91 -351.45,258.23 -156.92,13.39 -306.37,-61.53 -389.94,-195.32 -14.2,-22.75 -7.28,-52.7 15.45,-66.9 22.77,-14.21 52.7,-7.29 66.91,15.45 64.17,102.75 178.91,160.21 299.36,150.02 120.5,-10.23 223.89,-86.21 269.83,-198.3 7.61,-18.57 25.4,-29.89 44.27,-30.15 6.35,-0.09 12.82,1.08 19.07,3.64 m -2034.79,167.37 c -18.87,0.26 -36.67,11.58 -44.28,30.15 -45.93,112.09 -149.32,188.07 -269.81,198.3 -120.45,10.16 -235.19,-47.27 -299.35,-150.01 -14.2,-22.75 -44.14,-29.68 -66.9,-15.47 -22.74,14.2 -29.67,44.16 -15.47,66.9 83.56,133.79 232.88,208.71 389.92,195.33 156.98,-13.32 291.64,-112.26 351.46,-258.23 10.17,-24.81 -1.7,-53.17 -26.51,-63.34 -6.25,-2.55 -12.72,-3.72 -19.06,-3.63"
         inkscape:connector-curvature="0" /><path
         id="path26"
         style="fill:#6df8ed;fill-opacity:1;fill-rule:nonzero;stroke:none"
         d="m 9073.08,7651.46 c -84.13,53.22 -192.44,80.2 -323.41,80.2 -27.04,0 -55.59,-0.82 -84.84,-2.42 l -6.54,-0.35 -6.53,-0.72 c -73.67,-8.03 -165,-25.09 -279.21,-52.15 l -2.89,-0.71 c -147.49,-36.87 -203.64,-47.7 -223.97,-50.88 l -187.44,-29.23 -16.95,-188.95 c -5.29,-59.13 -14.72,-138.24 -28.07,-235.67 0.1,6.64 0.16,13.22 0.16,19.68 0,142.52 -26.01,254.34 -79.55,341.83 -73.01,119.34 -196.46,187.78 -338.71,187.78 -9.96,0 -20.17,-0.33 -30.33,-0.99 l -2.05,-0.14 c -72.96,-5.33 -145.91,-25.62 -220.2,-61.59 l 77.5,210.7 -922.46,-69.79 -24.48,-83.76 -575.56,-66.52 10.4,147.81 -994.38,-146.37 30.01,115.46 -893.06,-166.15 -345.98,-1988.64 282.64,77.08 -293.81,-1800.35 803.41,206.78 -19.05,-207.34 693.11,193.04 99.77,-258.59 65.99,58.73 423.5,117.21 -18.31,-110.32 361.17,93.16 c 168.68,43.5 320.21,76.97 453.54,100.32 l -54.24,-309.01 709.94,212.97 28.5,-56.61 243.63,67.85 -5.51,-60.04 300.52,38.83 c 291.73,37.7 558.42,164.53 792.66,376.97 0.33,0.29 0.63,0.6 0.96,0.9 -3.42,-8.04 -6.7,-15.84 -9.82,-23.33 l -81.85,-196.54 184.17,-106.79 c 105.37,-61.09 216.55,-92.07 330.42,-92.07 121.48,0 242.95,35.51 360.53,105.22 184.94,108.99 331.87,247.3 436.75,411.1 90.79,140.22 136.82,279.39 136.82,413.69 0,44.67 -4.68,88.47 -13.91,130.2 l -1.06,4.57 c -5.53,22.91 -17.78,62.43 -42.97,105.57 l 53.94,20.21 16.78,147.76 c 7.79,68.83 11.77,132.41 11.77,188.98 0,142.52 -26.03,254.33 -79.57,341.84 -11.14,18.21 -23.59,35.07 -36.98,50.85 l 100.45,8.37 40.28,576.41 2.89,0.5 30.13,463.38 78.14,7.15 62.33,887.05"
         inkscape:connector-curvature="0" /><path
         id="path28"
         style="fill:#006279;fill-opacity:1;fill-rule:nonzero;stroke:none"
         d="m 9073.08,7612.62 c -84.13,53.22 -192.44,80.2 -323.41,80.2 -27.04,0 -55.59,-0.82 -84.84,-2.41 l -6.54,-0.36 -6.53,-0.72 c -73.67,-8.03 -165,-25.09 -279.21,-52.15 l -2.89,-0.71 c -147.49,-36.87 -203.64,-47.7 -223.97,-50.87 l -187.44,-29.24 -16.95,-188.94 c -5.29,-59.14 -14.72,-138.25 -28.07,-235.68 0.1,6.64 0.16,13.22 0.16,19.68 0,142.52 -26.01,254.34 -79.55,341.83 -73.01,119.34 -196.46,187.78 -338.71,187.78 -9.96,0 -20.17,-0.33 -30.33,-0.99 l -2.05,-0.14 c -72.96,-5.33 -145.91,-25.61 -220.2,-61.58 l 77.5,210.69 -922.46,-69.79 -24.48,-83.76 -575.56,-66.52 10.4,147.81 -994.38,-146.37 30.01,115.46 -893.06,-166.15 -345.98,-1988.63 282.64,77.07 -293.81,-1800.35 803.41,206.77 -19.05,-207.32 693.11,193.04 99.77,-258.6 65.99,58.73 423.5,117.21 -18.31,-110.31 361.17,93.15 c 168.68,43.51 320.21,76.97 453.54,100.31 l -54.24,-309 709.94,212.98 28.5,-56.61 243.63,67.85 -5.51,-60.05 300.52,38.84 c 291.73,37.68 558.42,164.52 792.66,376.96 0.33,0.29 0.63,0.61 0.96,0.9 -3.42,-8.04 -6.7,-15.83 -9.82,-23.32 l -81.85,-196.55 184.17,-106.78 c 105.37,-61.09 216.55,-92.08 330.42,-92.08 121.48,0 242.95,35.52 360.53,105.22 184.94,109 331.87,247.31 436.75,411.11 90.79,140.2 136.82,279.38 136.82,413.69 0,44.67 -4.68,88.47 -13.91,130.19 l -1.06,4.56 c -5.53,22.91 -17.78,62.44 -42.97,105.58 l 53.94,20.22 16.78,147.76 c 7.79,68.83 11.77,132.4 11.77,188.96 0,142.53 -26.03,254.34 -79.57,341.84 -11.14,18.22 -23.59,35.09 -36.98,50.87 l 100.45,8.37 40.28,576.4 2.89,0.49 30.13,463.39 78.14,7.15 62.33,887.05"
         inkscape:connector-curvature="0" /><path
         id="path30"
         style="fill:#003b51;fill-opacity:1;fill-rule:nonzero;stroke:none"
         d="m 4160.76,7332.46 351.81,65.45 c -98.18,-377.74 -173.86,-726.12 -227.03,-1045.22 l 359.99,55.24 -30.68,-380.46 c -185.47,-16.37 -420.7,-63.42 -705.68,-141.14"
         inkscape:connector-curvature="0" /><path
         id="path32"
         style="fill:#003b51;fill-opacity:1;fill-rule:nonzero;stroke:none"
         d="m 5149.59,7028.39 c -10.89,-39.69 -20.41,-78.65 -28.55,-116.94 l -22.49,-112.85 327.29,69.55 -18.39,-282.37 c -155.13,-27.3 -276.9,-51.15 -365.32,-71.59 -5.45,-27.29 -10.22,-54.6 -14.29,-81.85 l -15.32,-79.67 380.57,55.26 -26.59,-380.46 c -196.36,-16.37 -445.23,-63.42 -746.57,-141.14 l 243.43,1466.59 681.25,100.28 -26.7,-380 c -133.7,-12.24 -256.45,-27.17 -368.32,-44.81"
         inkscape:connector-curvature="0" /><path
         id="path34"
         style="fill:#003b51;fill-opacity:1;fill-rule:nonzero;stroke:none"
         d="m 6431.13,7418.37 -12.3,-380.45 c -95.45,-5.47 -186.12,-12.27 -272.03,-20.46 -90,-377.74 -150.69,-724.78 -182.05,-1041.12 l -345.68,-90.01 188.19,1088.17 c -36.83,-5.46 -73.63,-11.59 -110.46,-18.41 l -108.41,-20.45 -24.55,382.5"
         inkscape:connector-curvature="0" /><path
         id="path36"
         style="fill:#003b51;fill-opacity:1;fill-rule:nonzero;stroke:none"
         d="m 6961.88,7539.04 c -87.29,-237.27 -147.99,-452.74 -182.06,-646.35 l -394.77,-61.37 198.43,679.09"
         inkscape:connector-curvature="0" /><path
         id="path38"
         style="fill:#003b51;fill-opacity:1;fill-rule:nonzero;stroke:none"
         d="m 7660.42,6970.41 c -43.65,-16.36 -95.46,-36.14 -155.45,-59.32 l -153.41,-59.32 c 0,64.09 -17.72,96.14 -53.18,96.14 -50.46,0 -100.92,-28.62 -151.36,-85.89 -35.48,-42.29 -50.47,-83.2 -45.01,-122.75 4.1,-25.91 29.99,-38.86 77.74,-38.86 25.89,0 59.99,4.11 102.27,12.27 58.61,12.27 110.45,18.41 155.45,18.41 114.56,0 181.35,-39.55 200.45,-118.63 5.44,-24.55 8.18,-50.46 8.18,-77.73 0,-87.28 -32.72,-181.37 -98.18,-282.27 -84.56,-132.28 -203.19,-243.39 -355.91,-333.41 -80.47,-47.71 -159.53,-71.57 -237.26,-71.57 -70.93,0 -140.46,19.77 -208.65,59.31 34.09,81.82 88.64,202.5 163.66,362.03 43.63,-30 90,-45 139.08,-45 21.79,0 44.29,3.41 67.49,10.23 42.25,10.91 82.5,26.59 120.7,47.04 54.52,30 81.8,60.66 81.8,92.05 0,34.07 -27.96,51.13 -83.85,51.13 -38.19,0 -93.77,-7.84 -166.72,-23.5 -72.96,-15.7 -128.53,-23.54 -166.69,-23.54 -50.47,0 -89.33,9.52 -116.59,28.65 -53.18,35.44 -74.97,90.67 -65.45,165.67 17.73,151.36 115.21,326.56 292.49,525.68 181.35,204.54 337.5,311.57 468.4,321.13 126.83,8.19 190.22,-87.27 190.22,-286.36 0,-47.75 -3.4,-101.59 -10.22,-161.59"
         inkscape:connector-curvature="0" /><path
         id="path40"
         style="fill:#003b51;fill-opacity:1;fill-rule:nonzero;stroke:none"
         d="m 8512.4,7023.6 c -10.94,-45 -21.16,-90 -30.69,-135.01 l -28.64,-134.99 c 99.53,61.36 170.45,132.25 212.73,212.73 9.53,17.7 14.32,32.02 14.32,42.95 0,23.17 -17.74,34.77 -53.18,34.77 -27.29,0 -65.46,-6.84 -114.54,-20.45 m -112.51,-548.19 c -10.93,-51.82 -22.5,-122.05 -34.77,-210.67 192.27,58.61 288.41,125.44 288.41,200.46 0,27.25 -23.87,40.91 -71.59,40.91 -42.28,0 -102.97,-10.24 -182.05,-30.7 m -216.81,850.91 c 43.63,6.81 125.44,25.22 245.45,55.22 103.62,24.56 186.81,40.21 249.54,47.06 24.54,1.33 48.39,2.04 71.6,2.04 180,0 269.29,-64.11 267.94,-192.27 0,-181.38 -111.82,-362.74 -335.45,-544.09 140.44,9.53 221.58,-30.01 243.4,-118.63 4.11,-19.13 6.15,-38.87 6.15,-59.32 0,-102.28 -49.09,-205.92 -147.27,-310.91 -75.01,-80.47 -167.72,-151.36 -278.18,-212.73 -132.28,-73.64 -284.32,-110.45 -456.13,-110.45 -27.27,0 -54.53,0.72 -81.82,2.06 53.17,279.51 111.8,655.19 175.9,1127.03 19.09,133.62 32.03,238.61 38.87,314.99"
         inkscape:connector-curvature="0" /><path
         id="path42"
         style="fill:#003b51;fill-opacity:1;fill-rule:nonzero;stroke:none"
         d="m 9393.88,7028.39 c -10.9,-39.69 -20.41,-78.66 -28.56,-116.94 l -22.48,-112.84 327.27,69.53 -18.38,-282.35 c -155.13,-27.32 -276.89,-51.16 -365.32,-71.61 -5.44,-27.29 -10.21,-54.59 -14.29,-81.84 l -15.31,-79.68 380.58,55.27 -26.61,-380.46 c -196.34,-16.36 -445.21,-63.42 -746.57,-141.15 l 243.44,1466.59 681.26,100.29 -26.72,-380 c -133.69,-12.25 -256.43,-27.16 -368.31,-44.81"
         inkscape:connector-curvature="0" /><path
         id="path44"
         style="fill:#003b51;fill-opacity:1;fill-rule:nonzero;stroke:none"
         d="m 4426.54,5298.42 c -9.47,-38.16 -17.57,-75.58 -24.33,-112.34 l -24.35,-110.34 357.7,74.83 -18.44,-286.75 c -140.12,-21.86 -272.05,-47.14 -395.79,-75.8 -32.86,-182.63 -58.87,-363.2 -78.05,-541.73 l -350.47,-90.19 239.34,1466.58 699.51,98.18 -24.48,-377.28 c -136.43,-12.34 -263.32,-27.4 -380.64,-45.16"
         inkscape:connector-curvature="0" /><path
         id="path46"
         style="fill:#003b51;fill-opacity:1;fill-rule:nonzero;stroke:none"
         d="m 5158.94,5281.09 c -12.27,-46.39 -23.2,-92.75 -32.73,-139.07 l -28.63,-139.11 c 47.72,24.54 94.76,56.57 141.13,96.14 53.18,46.34 88.63,90.66 106.37,132.95 6.8,12.27 10.22,23.86 10.22,34.77 0,29.98 -19.77,45 -59.32,45 -31.38,0 -77.05,-10.22 -137.04,-30.68 m -257.73,323.18 c 214.07,64.09 389.32,96.15 525.68,96.15 184.09,0 275.43,-64.12 274.09,-192.29 -1.37,-184.09 -117.3,-368.88 -347.73,-554.32 19.08,-51.82 98.19,-214.77 237.28,-488.85 -70.57,-65.44 -177.09,-161.58 -319.57,-288.41 l -217.81,564.54 -2.04,-0.44 -2.62,0.44 c -32.44,-178.57 -56.76,-343.5 -72.96,-494.8 l -323.86,-90.2 c 2.75,29.98 17.74,120.7 45,272.05"
         inkscape:connector-curvature="0" /><path
         id="path48"
         style="fill:#003b51;fill-opacity:1;fill-rule:nonzero;stroke:none"
         d="m 5788.93,5602.23 351.82,65.46 C 5998.91,5120.84 5906.2,4647 5862.57,4246.11 l -325.22,-90.01"
         inkscape:connector-curvature="0" /><path
         id="path50"
         style="fill:#003b51;fill-opacity:1;fill-rule:nonzero;stroke:none"
         d="m 6472.01,5298.16 c -10.9,-39.7 -20.41,-78.66 -28.57,-116.95 l -22.47,-112.83 327.27,69.53 -18.38,-282.37 c -155.13,-27.29 -276.89,-51.14 -365.32,-71.59 -5.45,-27.29 -10.21,-54.59 -14.29,-81.84 l -15.32,-79.68 380.59,55.25 -26.61,-380.45 c -196.35,-16.37 -445.22,-63.42 -746.57,-141.14 l 243.44,1466.59 681.26,100.28 -26.73,-380.01 c -133.68,-12.22 -256.43,-27.16 -368.3,-44.79"
         inkscape:connector-curvature="0" /><path
         id="path52"
         style="fill:#003b51;fill-opacity:1;fill-rule:nonzero;stroke:none"
         d="m 6979.38,5596.09 353.85,71.59 c -2.73,-42.28 -4.07,-102.28 -4.07,-180 0,-185.47 6.13,-348.43 18.41,-488.86 6.81,-80.48 17.02,-145.23 30.68,-194.32 l 139.09,797.73 351.82,65.45 C 7727.32,5120.84 7634.59,4647 7590.96,4246.11 l -323.16,-90.02 c -1.39,2.73 -10.23,26.59 -26.6,71.59 l -106.36,302.73 c -17.75,49.09 -27.96,80.47 -30.68,94.11 -28.64,-160.93 -51.14,-317.06 -67.5,-468.43 l -327.27,-98.18"
         inkscape:connector-curvature="0" /><path
         id="path54"
         style="fill:#003b51;fill-opacity:1;fill-rule:nonzero;stroke:none"
         d="m 8184.14,5266.78 c -62.73,-267.29 -110.45,-520.24 -143.17,-758.87 81.8,77.75 154.74,167.74 218.85,270 79.08,125.44 118.64,233.19 118.64,323.19 0,115.89 -64.79,171.11 -194.32,165.68 m -292.5,337.49 c 156.8,51.81 289.75,77.73 398.87,77.73 122.72,0 216.1,-32.06 280.22,-96.13 88.62,-91.38 132.96,-202.51 132.96,-333.41 0,-47.75 -6.14,-98.18 -18.42,-151.36 -53.17,-240.02 -178.66,-449.67 -376.35,-628.97 -197.74,-179.33 -417.98,-284.68 -660.69,-316.03 2.76,29.98 17.07,119.31 42.96,267.96 l 163.63,940.9 c 23.17,140.43 35.44,220.21 36.82,239.31"
         inkscape:connector-curvature="0" /><path
         id="path56"
         style="fill:#003b51;fill-opacity:1;fill-rule:nonzero;stroke:none"
         d="m 9601.55,5240.19 c -43.66,-16.37 -95.47,-36.15 -155.45,-59.32 l -153.42,-59.32 c 0,64.08 -17.73,96.13 -53.17,96.13 -50.47,0 -100.94,-28.63 -151.38,-85.9 -35.47,-42.28 -50.45,-83.19 -44.99,-122.73 4.09,-25.92 29.98,-38.86 77.73,-38.86 25.89,0 59.99,4.1 102.28,12.27 58.61,12.27 110.45,18.4 155.44,18.4 114.55,0 181.35,-39.56 200.45,-118.63 5.44,-24.54 8.18,-50.46 8.18,-77.72 0,-87.3 -32.72,-181.37 -98.17,-282.28 -84.57,-132.27 -203.19,-243.39 -355.91,-333.41 -80.48,-47.7 -159.55,-71.59 -237.26,-71.59 -70.93,0 -140.47,19.8 -208.65,59.32 34.08,81.82 88.64,202.5 163.65,362.05 43.62,-30.01 90,-45 139.08,-45 21.8,0 44.3,3.4 67.5,10.22 42.25,10.91 82.49,26.6 120.68,47.05 54.52,29.98 81.82,60.67 81.82,92.05 0,34.06 -27.97,51.13 -83.87,51.13 -38.19,0 -93.76,-7.86 -166.7,-23.52 -72.97,-15.69 -128.54,-23.52 -166.7,-23.52 -50.47,0 -89.33,9.52 -116.59,28.63 -53.17,35.45 -74.98,90.66 -65.45,165.68 17.73,151.37 115.22,326.57 292.49,525.7 181.35,204.53 337.49,311.57 468.4,321.12 126.82,8.16 190.23,-87.29 190.23,-286.36 0,-47.75 -3.41,-101.6 -10.22,-161.59"
         inkscape:connector-curvature="0" /><path
         id="path58"
         style="fill:#6df7ed;fill-opacity:1;fill-rule:nonzero;stroke:none"
         d="m 4160.76,7448.98 351.81,65.45 C 4414.39,7136.7 4338.71,6788.3 4285.54,6469.2 l 359.99,55.25 -30.68,-380.47 c -185.47,-16.35 -420.7,-63.42 -705.68,-141.12"
         inkscape:connector-curvature="0" /><path
         id="path60"
         style="fill:#6df7ed;fill-opacity:1;fill-rule:nonzero;stroke:none"
         d="m 5149.59,7144.91 c -10.89,-39.69 -20.41,-78.65 -28.55,-116.95 l -22.49,-112.84 327.29,69.55 -18.39,-282.37 c -155.13,-27.3 -276.9,-51.14 -365.32,-71.59 -5.45,-27.29 -10.22,-54.61 -14.29,-81.85 l -15.32,-79.68 380.57,55.26 -26.59,-380.46 c -196.36,-16.36 -445.23,-63.42 -746.57,-141.13 l 243.43,1466.59 681.25,100.28 -26.7,-380 c -133.7,-12.24 -256.45,-27.17 -368.32,-44.81"
         inkscape:connector-curvature="0" /><path
         id="path62"
         style="fill:#6df7ed;fill-opacity:1;fill-rule:nonzero;stroke:none"
         d="m 6431.13,7534.89 -12.3,-380.45 c -95.45,-5.48 -186.12,-12.27 -272.03,-20.46 -90,-377.74 -150.69,-724.78 -182.05,-1041.12 l -345.68,-90.01 188.19,1088.17 c -36.83,-5.46 -73.63,-11.6 -110.46,-18.41 l -108.41,-20.45 -24.55,382.5"
         inkscape:connector-curvature="0" /><path
         id="path64"
         style="fill:#6df7ed;fill-opacity:1;fill-rule:nonzero;stroke:none"
         d="m 6961.88,7655.57 c -87.29,-237.28 -147.99,-452.75 -182.06,-646.36 l -394.77,-61.36 198.43,679.09"
         inkscape:connector-curvature="0" /><path
         id="path66"
         style="fill:#6df7ed;fill-opacity:1;fill-rule:nonzero;stroke:none"
         d="m 7660.42,7086.94 c -43.65,-16.36 -95.46,-36.15 -155.45,-59.32 l -153.41,-59.32 c 0,64.08 -17.72,96.13 -53.18,96.13 -50.46,0 -100.92,-28.63 -151.36,-85.9 -35.48,-42.28 -50.47,-83.19 -45.01,-122.73 4.1,-25.92 29.99,-38.86 77.74,-38.86 25.89,0 59.99,4.09 102.27,12.27 58.61,12.27 110.45,18.4 155.45,18.4 114.56,0 181.35,-39.55 200.45,-118.62 5.44,-24.55 8.18,-50.47 8.18,-77.74 0,-87.27 -32.72,-181.37 -98.18,-282.26 -84.56,-132.29 -203.19,-243.4 -355.91,-333.41 -80.47,-47.71 -159.53,-71.58 -237.26,-71.58 -70.93,0 -140.46,19.77 -208.65,59.3 34.09,81.83 88.64,202.5 163.66,362.05 43.63,-30.02 90,-45 139.08,-45 21.79,0 44.29,3.4 67.49,10.23 42.25,10.9 82.5,26.59 120.7,47.04 54.52,29.98 81.8,60.66 81.8,92.05 0,34.07 -27.96,51.12 -83.85,51.12 -38.19,0 -93.77,-7.85 -166.72,-23.51 -72.96,-15.69 -128.53,-23.53 -166.69,-23.53 -50.47,0 -89.33,9.53 -116.59,28.65 -53.18,35.43 -74.97,90.67 -65.45,165.68 17.73,151.36 115.21,326.56 292.49,525.68 181.35,204.53 337.5,311.57 468.4,321.13 126.83,8.18 190.22,-87.28 190.22,-286.36 0,-47.75 -3.4,-101.59 -10.22,-161.59"
         inkscape:connector-curvature="0" /><path
         id="path68"
         style="fill:#6df7ed;fill-opacity:1;fill-rule:nonzero;stroke:none"
         d="m 8512.4,7140.12 c -10.94,-45 -21.16,-90 -30.69,-135 l -28.64,-135 c 99.53,61.37 170.45,132.25 212.73,212.73 9.53,17.7 14.32,32.02 14.32,42.95 0,23.17 -17.74,34.77 -53.18,34.77 -27.29,0 -65.46,-6.84 -114.54,-20.45 m -112.51,-548.18 c -10.93,-51.83 -22.5,-122.05 -34.77,-210.68 192.27,58.62 288.41,125.44 288.41,200.45 0,27.27 -23.87,40.92 -71.59,40.92 -42.28,0 -102.97,-10.23 -182.05,-30.69 m -216.81,850.9 c 43.63,6.81 125.44,25.22 245.45,55.23 103.62,24.55 186.81,40.2 249.54,47.05 24.54,1.34 48.39,2.05 71.6,2.05 180,0 269.29,-64.12 267.94,-192.28 0,-181.38 -111.82,-362.74 -335.45,-544.09 140.44,9.53 221.58,-30.01 243.4,-118.63 4.11,-19.12 6.15,-38.87 6.15,-59.32 0,-102.27 -49.09,-205.91 -147.27,-310.9 -75.01,-80.47 -167.72,-151.37 -278.18,-212.74 -132.28,-73.63 -284.32,-110.45 -456.13,-110.45 -27.27,0 -54.53,0.72 -81.82,2.05 53.17,279.52 111.8,655.21 175.9,1127.04 19.09,133.62 32.03,238.62 38.87,314.99"
         inkscape:connector-curvature="0" /><path
         id="path70"
         style="fill:#6df7ed;fill-opacity:1;fill-rule:nonzero;stroke:none"
         d="m 9393.88,7144.91 c -10.9,-39.7 -20.41,-78.65 -28.56,-116.95 l -22.48,-112.84 327.27,69.55 -18.38,-282.37 c -155.13,-27.3 -276.89,-51.14 -365.32,-71.6 -5.44,-27.28 -10.21,-54.59 -14.29,-81.84 l -15.31,-79.68 380.58,55.26 -26.61,-380.45 c -196.34,-16.37 -445.21,-63.43 -746.57,-141.14 l 243.44,1466.59 681.26,100.28 -26.72,-380 c -133.69,-12.24 -256.43,-27.17 -368.31,-44.81"
         inkscape:connector-curvature="0" /><path
         id="path72"
         style="fill:#6df7ed;fill-opacity:1;fill-rule:nonzero;stroke:none"
         d="m 4426.54,5414.93 c -9.47,-38.15 -17.57,-75.58 -24.33,-112.33 l -24.35,-110.34 357.7,74.82 -18.44,-286.74 c -140.12,-21.86 -272.05,-47.14 -395.79,-75.8 -32.86,-182.63 -58.87,-363.2 -78.05,-541.73 l -350.47,-90.19 239.34,1466.58 699.51,98.18 -24.48,-377.29 c -136.43,-12.33 -263.32,-27.39 -380.64,-45.16"
         inkscape:connector-curvature="0" /><path
         id="path74"
         style="fill:#6df7ed;fill-opacity:1;fill-rule:nonzero;stroke:none"
         d="m 5158.94,5397.62 c -12.27,-46.39 -23.2,-92.75 -32.73,-139.08 l -28.63,-139.1 c 47.72,24.54 94.76,56.57 141.13,96.14 53.18,46.34 88.63,90.66 106.37,132.94 6.8,12.27 10.22,23.85 10.22,34.78 0,29.97 -19.77,45 -59.32,45 -31.38,0 -77.05,-10.22 -137.04,-30.68 m -257.73,323.16 c 214.07,64.09 389.32,96.16 525.68,96.16 184.09,0 275.43,-64.12 274.09,-192.29 -1.37,-184.08 -117.3,-368.87 -347.73,-554.31 19.08,-51.83 98.19,-214.78 237.28,-488.86 -70.57,-65.45 -177.09,-161.58 -319.57,-288.4 l -217.81,564.54 -2.04,-0.45 -2.62,0.45 c -32.44,-178.58 -56.76,-343.51 -72.96,-494.8 l -323.86,-90.2 c 2.75,29.98 17.74,120.69 45,272.05"
         inkscape:connector-curvature="0" /><path
         id="path76"
         style="fill:#6df7ed;fill-opacity:1;fill-rule:nonzero;stroke:none"
         d="m 5788.93,5718.76 351.82,65.44 C 5998.91,5237.36 5906.2,4763.53 5862.57,4362.62 l -325.22,-90"
         inkscape:connector-curvature="0" /><path
         id="path78"
         style="fill:#6df7ed;fill-opacity:1;fill-rule:nonzero;stroke:none"
         d="m 6472.01,5414.69 c -10.9,-39.71 -20.41,-78.66 -28.57,-116.95 l -22.47,-112.84 327.27,69.54 -18.38,-282.37 c -155.13,-27.29 -276.89,-51.14 -365.32,-71.6 -5.45,-27.28 -10.21,-54.58 -14.29,-81.84 l -15.32,-79.68 380.59,55.26 -26.61,-380.45 c -196.35,-16.37 -445.22,-63.42 -746.57,-141.14 l 243.44,1466.58 681.26,100.28 -26.73,-380 c -133.68,-12.22 -256.43,-27.16 -368.3,-44.79"
         inkscape:connector-curvature="0" /><path
         id="path80"
         style="fill:#6df7ed;fill-opacity:1;fill-rule:nonzero;stroke:none"
         d="m 6979.38,5712.61 353.85,71.59 c -2.73,-42.27 -4.07,-102.27 -4.07,-179.99 0,-185.47 6.13,-348.43 18.41,-488.87 6.81,-80.48 17.02,-145.22 30.68,-194.32 l 139.09,797.74 351.82,65.44 C 7727.32,5237.37 7634.59,4763.53 7590.96,4362.62 l -323.16,-90 c -1.39,2.72 -10.23,26.58 -26.6,71.59 l -106.36,302.73 c -17.75,49.09 -27.96,80.45 -30.68,94.1 -28.64,-160.92 -51.14,-317.05 -67.5,-468.42 l -327.27,-98.18"
         inkscape:connector-curvature="0" /><path
         id="path82"
         style="fill:#6df7ed;fill-opacity:1;fill-rule:nonzero;stroke:none"
         d="m 8184.14,5383.3 c -62.73,-267.29 -110.45,-520.24 -143.17,-758.87 81.8,77.74 154.74,167.73 218.85,270 79.08,125.44 118.64,233.19 118.64,323.19 0,115.88 -64.79,171.11 -194.32,165.68 m -292.5,337.48 c 156.8,51.82 289.75,77.74 398.87,77.74 122.72,0 216.1,-32.06 280.22,-96.13 88.62,-91.38 132.96,-202.51 132.96,-333.41 0,-47.75 -6.14,-98.18 -18.42,-151.36 -53.17,-240.03 -178.66,-449.68 -376.35,-628.97 -197.74,-179.33 -417.98,-284.68 -660.69,-316.03 2.76,29.98 17.07,119.31 42.96,267.95 l 163.63,940.91 c 23.17,140.43 35.44,220.21 36.82,239.3"
         inkscape:connector-curvature="0" /><path
         id="path84"
         style="fill:#6df7ed;fill-opacity:1;fill-rule:nonzero;stroke:none"
         d="m 9601.55,5356.7 c -43.66,-16.36 -95.47,-36.14 -155.45,-59.31 l -153.42,-59.32 c 0,64.08 -17.73,96.13 -53.17,96.13 -50.47,0 -100.94,-28.62 -151.38,-85.9 -35.47,-42.28 -50.45,-83.19 -44.99,-122.73 4.09,-25.92 29.98,-38.86 77.73,-38.86 25.89,0 59.99,4.09 102.28,12.27 58.61,12.27 110.45,18.4 155.44,18.4 114.55,0 181.35,-39.56 200.45,-118.62 5.44,-24.55 8.18,-50.47 8.18,-77.74 0,-87.29 -32.72,-181.36 -98.17,-282.27 -84.57,-132.27 -203.19,-243.4 -355.91,-333.4 -80.48,-47.71 -159.55,-71.6 -237.26,-71.6 -70.93,0 -140.47,19.8 -208.65,59.33 34.08,81.81 88.64,202.49 163.65,362.04 43.62,-30.01 90,-45 139.08,-45 21.8,0 44.3,3.4 67.5,10.22 42.25,10.9 82.49,26.59 120.68,47.05 54.52,29.98 81.82,60.66 81.82,92.04 0,34.08 -27.97,51.14 -83.87,51.14 -38.19,0 -93.76,-7.86 -166.7,-23.52 -72.97,-15.69 -128.54,-23.52 -166.7,-23.52 -50.47,0 -89.33,9.52 -116.59,28.63 -53.17,35.45 -74.98,90.67 -65.45,165.68 17.73,151.37 115.22,326.57 292.49,525.7 181.35,204.52 337.49,311.57 468.4,321.12 126.82,8.17 190.23,-87.29 190.23,-286.37 0,-47.75 -3.41,-101.59 -10.22,-161.59"
         inkscape:connector-curvature="0" /><path
         id="path86"
         style="fill:#ffffff;fill-opacity:1;fill-rule:nonzero;stroke:none"
         d="m 4439.17,7422.43 c 6.76,27.05 13.59,54.19 20.57,81.51 l -265.34,-49.37 -236.54,-1359.6 c 4.77,1.26 9.43,2.45 14.16,3.69 l 222.38,1278.23"
         inkscape:connector-curvature="0" /><path
         id="path88"
         style="fill:#ffffff;fill-opacity:1;fill-rule:nonzero;stroke:none"
         d="m 4238.41,6383.85 358.12,54.94 6.34,78.66 -351.09,-53.87 c -1.51,-8.93 -3.08,-17.94 -4.56,-26.82"
         inkscape:connector-curvature="0" /><path
         id="path90"
         style="fill:#ffffff;fill-opacity:1;fill-rule:nonzero;stroke:none"
         d="m 5378.61,6896.09 5.13,78.77 -318.65,-67.73 -16.15,-81.11"
         inkscape:connector-curvature="0" /><path
         id="path92"
         style="fill:#ffffff;fill-opacity:1;fill-rule:nonzero;stroke:none"
         d="m 5496.97,7484.61 5.52,78.49 -605.45,-89.12 -229.07,-1380 c 4.53,1.13 8.95,2.2 13.45,3.32 l 215.62,1298.99"
         inkscape:connector-curvature="0" /><path
         id="path94"
         style="fill:#ffffff;fill-opacity:1;fill-rule:nonzero;stroke:none"
         d="m 5345.51,6439.44 5.48,78.48 -371.55,-53.96 -15.36,-79.9"
         inkscape:connector-curvature="0" /><path
         id="path96"
         style="fill:#ffffff;fill-opacity:1;fill-rule:nonzero;stroke:none"
         d="m 5840.9,7096.44 -173.28,-1001.96 14.07,3.66 172.99,1000.34"
         inkscape:connector-curvature="0" /><path
         id="path98"
         style="fill:#ffffff;fill-opacity:1;fill-rule:nonzero;stroke:none"
         d="m 6390.85,7529.98 -785.87,-90.83 4.94,-77.1 778.41,89.96"
         inkscape:connector-curvature="0" /><path
         id="path100"
         style="fill:#ffffff;fill-opacity:1;fill-rule:nonzero;stroke:none"
         d="m 6877.39,7571.39 c 8.86,26.34 18.02,52.91 27.55,79.76 l -291.73,-22.07 -173.74,-594.62 23.78,3.69 149.96,513.25"
         inkscape:connector-curvature="0" /><path
         id="path102"
         style="fill:#ffffff;fill-opacity:1;fill-rule:nonzero;stroke:none"
         d="m 7048.84,6262.68 c 25.25,0 51.44,3.91 77.82,11.61 44.82,11.6 88.12,28.51 128.7,50.26 68.98,37.91 102.32,79.16 102.32,126.27 0,9.66 -1.56,23.87 -8.55,38.18 -13.85,-31.21 -44.77,-59.84 -93.77,-86.79 -40.58,-21.73 -83.88,-38.64 -128.7,-50.23 -26.38,-7.73 -52.57,-11.62 -77.82,-11.62 -42.37,0 -83.23,9.67 -121.99,28.8 -56.34,-120.43 -100.3,-217.46 -131.13,-289.41 9.48,-4.59 19,-8.61 28.53,-12.36 27.53,62.02 61.81,136.89 102.6,224.09 38.76,-19.13 79.62,-28.8 121.99,-28.8"
         inkscape:connector-curvature="0" /><path
         id="path104"
         style="fill:#ffffff;fill-opacity:1;fill-rule:nonzero;stroke:none"
         d="m 7063.55,6811.64 c 4.34,-27.5 25.04,-72.38 116.2,-72.38 28.61,0 64.46,4.24 109.64,12.97 56.31,11.79 105.95,17.71 148.09,17.71 126.57,0 153.47,-50.74 162.68,-88.91 2.04,-9.18 3.57,-18.87 4.75,-28.82 1.5,12.82 2.36,25.48 2.36,37.89 0,24.26 -2.45,47.59 -7.11,68.61 -9.21,38.17 -36.11,88.91 -162.68,88.91 -42.14,0 -91.78,-5.92 -148.09,-17.71 -45.18,-8.72 -81.03,-12.97 -109.64,-12.97 -75.54,0 -102.66,30.79 -112.2,57 -5.48,-20.87 -6.85,-41.64 -4,-62.3"
         inkscape:connector-curvature="0" /><path
         id="path106"
         style="fill:#ffffff;fill-opacity:1;fill-rule:nonzero;stroke:none"
         d="m 6760.18,6658.52 c 21.17,139.96 115.41,304.75 280.86,490.57 173.58,195.79 322.35,299.47 442.21,308.22 3.82,0.25 7.91,0.38 11.88,0.38 32.03,0 125.96,-0.14 135.78,-210.96 0.54,14 0.89,27.68 0.89,40.63 0,248.02 -102.86,248.02 -136.67,248.02 -3.97,0 -8.06,-0.15 -11.88,-0.39 -119.86,-8.75 -268.63,-112.43 -442.21,-308.22 -171.04,-192.1 -266.22,-361.79 -282.99,-504.74 -3.07,-24.19 -2.37,-45.19 2.13,-63.51"
         inkscape:connector-curvature="0" /><path
         id="path108"
         style="fill:#ffffff;fill-opacity:1;fill-rule:nonzero;stroke:none"
         d="m 8692.38,6542.87 c 0,8.49 -1.46,20.95 -7.61,33.51 -27.02,-75.84 -126.85,-138.11 -308.33,-193.43 l -46.84,-14.28 c -0.97,-6.92 -1.97,-13.77 -2.95,-20.92 l -8.33,-60.2 58.12,17.72 c 215.54,65.71 315.94,141.2 315.94,237.6"
         inkscape:connector-curvature="0" /><path
         id="path110"
         style="fill:#ffffff;fill-opacity:1;fill-rule:nonzero;stroke:none"
         d="m 8562.48,6724.91 122.3,8.3 c 12.71,0.86 25.02,1.3 36.61,1.3 128.61,0 156.64,-51.14 166.32,-89.92 0.85,-4.04 1.61,-8.14 2.25,-12.29 1.86,13.21 2.9,26.34 2.9,39.39 0,17.41 -1.73,34.43 -5.15,50.58 -9.68,38.78 -37.71,89.92 -166.32,89.92 -11.59,0 -23.9,-0.44 -36.61,-1.3 l -17.92,-1.22 c -3.05,-2.51 -6.06,-5.02 -9.17,-7.54"
         inkscape:connector-curvature="0" /><path
         id="path112"
         style="fill:#ffffff;fill-opacity:1;fill-rule:nonzero;stroke:none"
         d="m 8700.19,7025.95 c 12.58,23.34 18.77,43.42 18.77,61.02 0,12.28 -2.96,24.83 -9.53,36.04 -2.57,-6.22 -5.61,-12.65 -9.24,-19.38 -45.33,-86.3 -121.62,-162.91 -226.73,-227.73 l -58.25,-35.91 -18.95,-89.38 77.2,47.61 c 105.11,64.81 181.4,141.43 226.73,227.73"
         inkscape:connector-curvature="0" /><path
         id="path114"
         style="fill:#ffffff;fill-opacity:1;fill-rule:nonzero;stroke:none"
         d="m 8218.96,7370.9 c 47.84,9.2 120.02,25.9 218.99,50.64 100.3,23.76 182.3,39.28 243.3,46.01 23.77,1.28 46.79,1.93 68.41,1.93 93.88,0 159.48,-18.19 194.97,-54.07 16.85,-17.01 27.25,-38.61 31.64,-65.29 1.64,14.7 2.5,29.37 2.5,44.01 0.46,42.91 -10.72,75.29 -34.14,98.96 -35.49,35.88 -101.09,54.07 -194.97,54.07 -21.62,0 -44.64,-0.65 -68.41,-1.94 -61,-6.72 -143,-22.24 -243.3,-45.99 -98.97,-24.75 -171.15,-41.45 -218.99,-50.65 -7.39,-73.89 -19.58,-170.33 -36.26,-287.12 -60.59,-446.01 -117.02,-810.55 -167.88,-1084.62 4.75,-0.11 9.36,-0.1 14.07,-0.16 47.13,264 98.75,601.77 153.81,1007.1 16.68,116.79 28.87,213.23 36.26,287.12"
         inkscape:connector-curvature="0" /><path
         id="path116"
         style="fill:#ffffff;fill-opacity:1;fill-rule:nonzero;stroke:none"
         d="m 9741.26,7484.61 5.52,78.49 -605.45,-89.12 -229.07,-1380 c 4.52,1.13 8.94,2.2 13.44,3.32 l 215.63,1298.99"
         inkscape:connector-curvature="0" /><path
         id="path118"
         style="fill:#ffffff;fill-opacity:1;fill-rule:nonzero;stroke:none"
         d="m 9622.89,6896.09 5.13,78.77 -318.64,-67.72 -16.16,-81.11"
         inkscape:connector-curvature="0" /><path
         id="path120"
         style="fill:#ffffff;fill-opacity:1;fill-rule:nonzero;stroke:none"
         d="m 9589.8,6439.44 5.49,78.48 -371.56,-53.96 -15.37,-79.9"
         inkscape:connector-curvature="0" /><path
         id="path122"
         style="fill:#ffffff;fill-opacity:1;fill-rule:nonzero;stroke:none"
         d="m 4344.96,5184.55 -17.98,-81.45 361.48,75.61 5.07,78.74"
         inkscape:connector-curvature="0" /><path
         id="path124"
         style="fill:#ffffff;fill-opacity:1;fill-rule:nonzero;stroke:none"
         d="m 4784.73,5752.73 5.09,78.4 -623.94,-87.58 -225.15,-1379.66 13.23,3.4 211.92,1298.57"
         inkscape:connector-curvature="0" /><path
         id="path126"
         style="fill:#ffffff;fill-opacity:1;fill-rule:nonzero;stroke:none"
         d="m 5263.93,5147.19 c 57.77,50.34 95.7,97.91 116.17,145.59 9.31,17.42 14.04,34.79 14.04,51.69 0,12.84 -2.61,25.95 -8.45,37.89 -1.65,-3.97 -3.48,-7.93 -5.59,-11.91 -20.47,-47.67 -58.4,-95.23 -116.17,-145.58 -48.38,-41.28 -98.38,-75.31 -148.59,-101.14 l -54.29,-27.91 -17.89,-86.87 72.18,37.1 c 50.21,25.83 100.21,59.85 148.59,101.14"
         inkscape:connector-curvature="0" /><path
         id="path128"
         style="fill:#ffffff;fill-opacity:1;fill-rule:nonzero;stroke:none"
         d="m 5330.29,5062.89 c -0.48,-0.38 -0.91,-0.75 -1.39,-1.13 l -21.74,-17.49 9.64,-26.18 c 17.81,-48.37 83.06,-184.08 198.99,-413.77 9.36,8.56 18.34,16.79 26.82,24.61 -111.46,220 -181.42,362.97 -212.32,433.96"
         inkscape:connector-curvature="0" /><path
         id="path130"
         style="fill:#ffffff;fill-opacity:1;fill-rule:nonzero;stroke:none"
         d="m 4935.35,5651.54 c 199.22,58.21 364.5,87.71 491.55,87.71 97.23,0 164.94,-18.6 201.25,-55.29 16.48,-16.65 26.74,-37.61 31.26,-63.31 1.67,14.45 2.62,28.87 2.73,43.24 0.45,42.21 -10.67,74.18 -33.99,97.75 -36.31,36.69 -104.02,55.29 -201.25,55.29 -127.05,0 -292.33,-29.49 -491.55,-87.71 L 4734.9,4576.63 c -18.94,-105.19 -30.12,-170.96 -36.59,-211.87 l 13.55,3.78 c 5.98,34.77 13.53,77.62 23.04,130.4"
         inkscape:connector-curvature="0" /><path
         id="path132"
         style="fill:#ffffff;fill-opacity:1;fill-rule:nonzero;stroke:none"
         d="m 6067.42,5692.22 c 6.74,27.02 13.54,54.13 20.53,81.49 l -265.38,-49.36 -236.44,-1359.09 14.19,3.92 222.25,1277.49"
         inkscape:connector-curvature="0" /><path
         id="path134"
         style="fill:#ffffff;fill-opacity:1;fill-rule:nonzero;stroke:none"
         d="m 6387.52,5176.91 -16.16,-81.11 329.66,70.06 5.14,78.77"
         inkscape:connector-curvature="0" /><path
         id="path136"
         style="fill:#ffffff;fill-opacity:1;fill-rule:nonzero;stroke:none"
         d="m 6819.39,5754.38 5.52,78.5 -605.46,-89.13 -229.06,-1380 c 4.52,1.13 8.95,2.18 13.45,3.32 l 215.61,1299"
         inkscape:connector-curvature="0" /><path
         id="path138"
         style="fill:#ffffff;fill-opacity:1;fill-rule:nonzero;stroke:none"
         d="m 6667.92,4709.21 5.5,78.48 -371.57,-53.96 -15.36,-79.91"
         inkscape:connector-curvature="0" /><path
         id="path140"
         style="fill:#ffffff;fill-opacity:1;fill-rule:nonzero;stroke:none"
         d="m 7290.55,5697.1 c 0.27,29.19 0.8,55.13 1.55,77.99 l -279.05,-56.46 -254.53,-1450.07 14.39,4.32 240.14,1368.07"
         inkscape:connector-curvature="0" /><path
         id="path142"
         style="fill:#ffffff;fill-opacity:1;fill-rule:nonzero;stroke:none"
         d="m 7308.88,5073.11 c 20.99,-185.84 74.38,-293.86 74.38,-293.86 l 167.7,867.41 244.86,45.55 c 6.75,27.02 13.55,54.13 20.53,81.52 l -265.39,-49.39 -167.7,-867.41 c 0,0 -53.39,108.02 -74.38,293.87 -14.5,128.38 -17.99,278.11 -18.5,444.68 -0.04,-9.73 -0.06,-19.69 -0.06,-30.1 0,-185.79 2.69,-351.75 18.56,-492.27"
         inkscape:connector-curvature="0" /><path
         id="path144"
         style="fill:#ffffff;fill-opacity:1;fill-rule:nonzero;stroke:none"
         d="m 8292.73,4834.96 c 83.81,132.95 124.57,245.43 124.57,343.81 0,12.79 -0.94,24.84 -2.36,36.51 -9.66,-88.37 -49.87,-187.86 -122.21,-302.64 -65.54,-104.55 -141.25,-197.92 -225,-277.52 l -68.04,-64.65 -12.25,-89.33 80.29,76.3 c 83.75,79.6 159.46,172.97 225,277.52"
         inkscape:connector-curvature="0" /><path
         id="path146"
         style="fill:#ffffff;fill-opacity:1;fill-rule:nonzero;stroke:none"
         d="m 8543.28,5713.76 c -56.29,56.24 -141.34,84.77 -252.77,84.77 -99.02,0 -221.12,-22.92 -363.23,-68.18 -4.05,-29.66 -13.22,-89.55 -34.2,-216.68 l -163.63,-940.93 c -16.94,-97.28 -28.93,-169.22 -35.88,-215.08 4.31,0.75 8.56,1.7 12.85,2.51 6.23,37.56 13.91,82.53 23.03,134.9 l 163.63,940.92 c 20.98,127.13 30.15,187.02 34.2,216.69 142.11,45.24 264.21,68.16 363.23,68.16 111.43,0 196.48,-28.53 252.77,-84.77 72.73,-74.99 112.26,-162.73 120.05,-266.87 0.93,13.1 1.51,26.03 1.51,38.62 0,121.53 -39.9,221.73 -121.56,305.94"
         inkscape:connector-curvature="0" /><path
         id="path148"
         style="fill:#ffffff;fill-opacity:1;fill-rule:nonzero;stroke:none"
         d="m 8989.96,4532.43 c 25.24,0 51.43,3.91 77.83,11.62 44.81,11.61 88.1,28.53 128.69,50.25 68.98,37.93 102.32,79.17 102.32,126.29 0,9.66 -1.55,23.87 -8.55,38.17 -13.84,-31.2 -44.77,-59.84 -93.77,-86.77 -40.59,-21.74 -83.88,-38.64 -128.69,-50.26 -26.4,-7.71 -52.59,-11.61 -77.83,-11.61 -42.36,0 -83.23,9.66 -121.99,28.81 -56.4,-120.57 -100.36,-217.6 -131.13,-289.41 9.48,-4.58 19,-8.6 28.54,-12.37 27.5,61.97 61.77,136.83 102.59,224.1 38.76,-19.14 79.63,-28.82 121.99,-28.82"
         inkscape:connector-curvature="0" /><path
         id="path150"
         style="fill:#ffffff;fill-opacity:1;fill-rule:nonzero;stroke:none"
         d="m 9436.25,5805.14 c -3.98,0 -8.06,-0.13 -11.88,-0.37 -119.85,-8.75 -268.61,-112.43 -442.22,-308.22 -171.04,-192.12 -266.23,-361.82 -282.97,-504.76 -3.07,-24.19 -2.37,-45.19 2.13,-63.51 21.14,139.96 115.39,304.75 280.84,490.58 173.61,195.8 322.37,299.48 442.22,308.22 3.82,0.25 7.9,0.38 11.88,0.38 32.02,0 125.96,-0.15 135.79,-210.93 0.53,13.99 0.89,27.67 0.89,40.61 0,248 -102.87,248 -136.68,248"
         inkscape:connector-curvature="0" /><path
         id="path152"
         style="fill:#ffffff;fill-opacity:1;fill-rule:nonzero;stroke:none"
         d="m 9004.67,5081.42 c 4.34,-27.51 25.05,-72.39 116.2,-72.39 28.61,0 64.47,4.25 109.65,12.98 56.32,11.78 105.94,17.7 148.08,17.7 126.57,0 153.47,-50.75 162.7,-88.92 2.03,-9.18 3.56,-18.87 4.72,-28.83 1.52,12.83 2.37,25.5 2.37,37.91 0,24.23 -2.44,47.56 -7.09,68.61 -9.23,38.16 -36.13,88.91 -162.7,88.91 -42.14,0 -91.76,-5.93 -148.08,-17.71 -45.18,-8.72 -81.04,-12.97 -109.65,-12.97 -75.53,0 -102.64,30.79 -112.2,57 -5.46,-20.86 -6.85,-41.64 -4,-62.29"
         inkscape:connector-curvature="0" /><path
         id="path154"
         style="fill:#dfea11;fill-opacity:1;fill-rule:nonzero;stroke:none"
         d="m 8864.37,8370.23 c -14.85,361.23 -619.96,157.73 -727.73,-38.91 -126.3,-230.52 168.52,-263.09 341.48,-240.69 141.7,18.35 393.47,104.19 386.25,279.6"
         inkscape:connector-curvature="0" /><path
         id="path156"
         style="fill:#dfea11;fill-opacity:1;fill-rule:nonzero;stroke:none"
         d="m 5329.98,8674.54 c 83.93,351.65 638.71,35.76 706.71,-177.9 79.7,-250.49 -215.89,-225.85 -381.33,-170.65 -135.54,45.2 -366.14,177.8 -325.38,348.55"
         inkscape:connector-curvature="0" /></g></g></svg>