
<svg xmlns="http://www.w3.org/2000/svg" version="1.1" xmlns:xlink="http://www.w3.org/1999/xlink" preserveAspectRatio="none" x="0px" y="0px" width="200px" height="200px" viewBox="0 0 200 200">
<defs>
<filter id="Filter_1" x="-20%" y="-20%" width="140%" height="140%" color-interpolation-filters="sRGB">
<feColorMatrix in="SourceGraphic" type="matrix" values="1 0 0 0 0 0 1 0 0 0 0 0 1 0 0 0 0 0 0 0" result="result1"/>
</filter>

<g id="Symbol_1_0_Layer0_0_FILL">
<path fill="#93A2AE" fill-opacity="0" stroke="none" d="
M 0 0
L 0 200 200 200 200 0 0 0 Z"/>
</g>

<g id="stiker_222222_copy_7_0_Layer5_1_FILL">
<path fill="#FFFFFF" stroke="none" d="
M 185.5 61.1
Q 185.4 57.7 184.3 53.3 183.45 49.95 180 48.8 176.9 47.8 174.3 49.8 168 54.9 159.7 52.9 156.45 52.1 153.7 50.65 151.25 49.3 150.1 47.9
L 148.1 45.6
Q 151.35 44.3 152 40.8 152.75 36.9 148.5 34.2 148.75 31.55 146.95 29.6 145.1 27.6 142.5 27.6 140.3 27.6 135.95 29.5 131.7 31.4 129.3 33.3 126.55 30.9 123.15 29.95 120.15 29.05 117.4 29.4 114.85 29.7 113.3 31.8 111.75 33.8 112 36.2 104.8 37.2 96.15 40.85 88.3 44.2 81.1 48.9 76.15 52.15 71.6 53.2 68.9 53.85 67 53.65
L 65.6 53.3
Q 63.75 52.3 61.65 52.65 59.5 52.95 58.1 54.55 54.6 58.45 58.6 66.1 57.5 66.1 56.7 66.45 55.75 66.8 54.7 67.8 52.25 70.25 53.1 75 53.8 79.2 56.4 82.8 52.85 86.8 57 92.3 60.65 97.15 66.5 99.3 66.4 104.55 67.7 114
L 68.4 119.8
Q 68.35 120 67.15 122.7 66.15 126.1 67 130.3 68.35 137.15 75.05 140.9 76.6 150.5 85 158.25 93.05 165.7 104.85 169.4 116.9 173.15 129.05 171.65 142.2 170.1 152.15 162.6 163.85 154 168.35 138.9 174.65 137.5 177 131.4 178.3 127.95 178.6 124.5 178.95 120.7 178 117.7 181.05 112 182.15 107.4 183.6 103.9 184 102.6 185.05 98.45 185.6 96.25 186.65 92.35 187.8 90.6 190.85 85.9 191.7 81.15 192.6 76.35 191 73
L 189.3 70.8
Q 189.3 69 189.05 67.15
L 188.8 65.7
Q 187.75 61.95 185.5 61.1
M 173.55 63.45
Q 173.15 65.05 172.85 65.65 171.35 68.25 172.55 71 173.7 73.7 176.55 74.45
L 175.95 75.65
Q 174.7 77.75 175.2 80.15 175.7 82.5 177.75 83.85 175.6 87.2 174.45 91.35 173.75 93.75 172.45 98.95
L 170.55 103.85
Q 169.95 106.5 168.6 109.4 168.3 109.9 165.85 114.45 164.8 116.3 165.2 118.35 165.55 120.4 167.05 121.75 167.2 121.9 166.95 121.85 166.65 121.85 166.65 122.05 166.65 124.4 165.65 126.85 165.55 127.25 164.55 127.05 162.15 126.6 160.15 127.95 158.2 129.3 157.65 131.65 154.65 145.45 144.85 152.75 137 158.65 126.4 159.65 116.9 160.6 107.4 157.4 98.25 154.35 92.5 148.75 86.5 142.9 86.55 136.55 86.55 134.45 85.15 132.8 83.8 131.15 81.75 130.7 79.45 130.25 78.7 128.15 78.2 126.7 78.45 125.9 79.75 124.75 80.3 123.2 80.85 121.55 80.45 120
L 79.35 112.8
Q 78.75 106.75 78.5 103.85 78.15 98.8 78.65 95.4 79.05 92.9 77.6 90.95 76.15 88.95 73.65 88.6
L 72.5 88.5
Q 74.75 86.2 73.95 82.95 73.2 79.7 70.15 78.45 68.45 77.9 67.25 76.85 70.9 75.65 73.45 72.95 75.05 71.2 75 68.85 75 66.45 73.35 64.75 80.3 63.4 87.65 58.55 92.8 55.15 98.5 52.55 104.25 49.9 109.55 48.55 118.4 46.25 121.85 48.35 123.1 49.15 124.6 49.25 126 49.3 127.35 48.75 129 49.4 130.65 48.95 132.05 50.35 133.85 50.65 137.65 51.35 141 55.15 146.3 61.15 155.45 63.75 165.15 66.4 173.55 63.45 Z"/>
</g>

<g id="stiker_222222_copy_7_0_Layer5_2_FILL">
<path fill="#000000" stroke="none" d="
M 182.9 66.9
L 182.7 67
Q 180.65 68.7 178.1 69 180.05 65.55 179.45 59.9 178.45 54.8 178.4 54.6 178.4 54.5 178.3 54.5
L 178.1 54.5
Q 169.6 61.4 158.4 58.8 149.45 56.7 145.4 51.6 142.95 48.5 139.3 46.7 137.1 45.65 134.9 45.2 137.35 42.05 141.8 40.85 144 40.2 145.8 40.2 146 40.2 146 40 146 39.8 145.85 39.7 140.95 36.65 135.1 39.35 131.95 40.8 129.25 43.5
L 129.15 43.4
Q 129.8 42.15 131 40.75 132.65 38.85 134.75 37.6 137.65 35.85 140.5 34.6 141.85 34 142.55 33.7 141.55 34 140.05 34.5 136.95 35.6 134.45 37.2 132.9 37.95 131.15 40.05 129.7 41.85 129.05 43.3 128.35 41.6 128.05 41.2 125.55 37 121.6 35.85 118.1 35.5 118.05 35.5 117.85 35.5 117.85 35.7
L 117.85 35.8 117.95 35.9
Q 121.45 37.5 123.85 41.7 124.4 42.6 124.85 43.7 119.05 40.05 106.7 43.5 95.25 46.65 84.25 54 75.95 59.5 68.5 59.6 66.2 59.65 64.2 59.1 62.7 58.6 62.65 58.6
L 62.45 58.6
Q 62.35 58.6 62.35 58.8 62.65 61.55 64.15 64.1 65.3 65.95 66.9 67.5 68.1 68.7 69 69.2 66.85 71.45 62.65 71.95 58.9 72 58.85 72
L 58.65 72.1 58.55 72.3
Q 58.85 76 60.35 78.4 62.8 82.5 68.05 84.5 65.7 86.4 63.1 86.75 60.95 86.7 60.9 86.7 60.75 86.7 60.7 86.8
L 60.7 87 61.1 87.6
Q 64.95 93.95 72.8 94.6 72.25 98.55 72.6 103.85 72.8 106.95 73.5 113.6 74.15 120.65 75.75 125.45 76.55 127.85 77.2 128.8 85.2 142.95 103.45 144.05 117.85 144.9 136.7 137.8 148.85 133.55 159.65 127.3 169.2 121.8 170.1 119.6 172.05 116.2 173.25 113.85 175.6 109.5 176.5 105.5 177.9 102.6 179.4 96.6 180.7 90.6 182.7 87.5 185.8 82.8 186.05 78.9 185.65 75.9 185.6 75.8
L 185.4 75.7
Q 185.2 75.7 185.2 75.8 184.15 77.65 182.8 78.5 181.9 79.1 181.1 79.1 183.25 75.65 183.35 71.1 183 67.15 183 67.1
L 183 67
Q 183 66.9 182.9 66.9 Z"/>
</g>

<g id="stiker_222222_copy_7_0_Layer5_3_FILL">
<path fill="#F6D5B3" stroke="none" d="
M 163.5 133
L 166.7 132.95
Q 170.1 132.25 171.3 129.1 172.85 125.25 172.6 121.65 172.4 117.9 170.3 117 168.45 116.25 165.5 117.5
L 162.9 118.9
Q 163.65 116 161.85 111.65 160.45 108.35 156.1 101.4 152.9 96.3 151.65 91.6
L 151 87.9
Q 150.3 90.9 148.65 93.9 146.25 90.55 147.05 84.25
L 148.3 78.6
Q 141 82.4 134.6 81.65 132.6 81.4 130.95 80.7
L 129.65 80.1
Q 123.05 83.1 120.4 83 118.7 82.95 119.9 80.45
L 121.4 78
Q 117.7 80.5 112 82.6 106.8 84.55 105.4 84.3 104.35 84.1 105 81.8
L 105.9 79.5
Q 100.9 84.5 99.55 84 98.75 83.7 99.3 80.3
L 100 77
Q 86.75 88.45 82.8 102.75 80.4 111.3 81.65 117.15 82.2 120.45 82.25 121.35 82.25 123.4 81.05 123.45 80.15 123.5 79.4 122.5 78.45 121.3 77.25 120.95 75.2 120.35 73.7 122.4 71.95 124.75 72.75 129.05 73.55 133 77.2 135.25 79 136.35 80.65 136.7 80.55 147.65 92.3 156.4 103.95 165.1 119.65 165.85 135.15 166.65 146.85 158.8 159.85 150.05 163.5 133 Z"/>
</g>

<g id="stiker_222222_copy_7_0_Layer5_4_FILL">
<path fill="#E8C09B" stroke="none" d="
M 96.25 83.35
Q 97.4 85.7 98.15 87 99.35 86.75 100.9 85.7 103.75 83.65 103.85 83.6 103.75 84.05 103.1 86.1 102.85 87.95 104.75 87.8 106.8 87.35 111.1 85.6 115.4 83.85 117.45 83.35 117.25 84.3 116.95 85.2 121.7 83.5 131.15 84.2 140.7 84.85 145.5 83.2 145.25 86.1 144.45 91.8 144.45 96.5 148.15 98.7 149.15 95 150.55 93.35 150.9 96.95 153.45 100.3 155.15 102.5 158.95 105.8 157.15 102.85 156.15 101.2 152.95 96.1 151.7 91.4
L 151.05 87.7
Q 150.35 90.7 148.75 93.7 146.3 90.35 147.1 84
L 148.35 78.35
Q 141.1 82.1 134.7 81.35 132.7 81.1 131.05 80.45
L 129.75 79.85
Q 123.25 82.8 120.45 82.8 118.7 82.8 119.9 80.3
L 121.45 77.8
Q 117.8 80.3 112.1 82.4 106.95 84.3 105.45 84.1 104.4 83.9 105.05 81.6
L 105.95 79.3
Q 100.95 84.3 99.65 83.8 98.85 83.5 99.35 80.1
L 100.05 76.8
Q 89.5 85.9 84.8 97.15 81.55 104.85 81.45 112.55 83.1 105.95 87.95 97.55 93.7 88.25 96.25 83.35 Z"/>
</g>

<g id="stiker_222222_copy_7_0_Layer5_5_FILL">
<path fill="#5B5B5B" stroke="none" d="
M 99.85 76.3
Q 98.6 79.55 98.8 83.2
L 101.2 73.6
Q 100.5 74.55 99.85 76.3 Z"/>
</g>

<g id="stiker_222222_copy_7_0_Layer5_6_FILL">
<path fill="#5B5B5B" stroke="none" d="
M 124.75 74.3
Q 123.55 75.15 122.35 76.3 120.05 78.6 119.4 80.9
L 122.05 78
Q 123.5 76.3 124.75 74.3 Z"/>
</g>

<g id="stiker_222222_copy_7_0_Layer5_7_FILL">
<path fill="#5B5B5B" stroke="none" d="
M 138.8 75.8
Q 133.5 77.9 131.15 78.9 128.95 79.85 126.8 81.1
L 125.05 82.2
Q 125.1 82.2 129.85 80.45 135.2 78.25 138.8 75.8 Z"/>
</g>

<g id="stiker_222222_copy_7_0_Layer5_8_FILL">
<path fill="#5B5B5B" stroke="none" d="
M 146.7 83
Q 145.4 90.25 148.3 94.2 147.1 87.7 147.4 84.5 147.7 81.9 148.25 78.75
L 148.7 76.1
Q 148.65 76.35 146.7 83 Z"/>
</g>

<g id="stiker_222222_copy_7_0_Layer5_9_FILL">
<path fill="#5B5B5B" stroke="none" d="
M 106 78.4
Q 104 82.05 104.8 84.4 105.05 83.55 105.4 82.5 106.1 80.4 106.6 79.4 107.6 77.4 108.4 75 107.6 75.45 106 78.4 Z"/>
</g>

<g id="stiker_222222_copy_7_0_Layer5_10_FILL">
<path fill="#5B5B5B" stroke="none" d="
M 74.9 68.45
Q 68.35 66.7 64.55 64.2 66.55 67.35 69.4 69.1
L 69.05 69.4
Q 74.2 73.1 77.8 73.9 82.75 75 85.5 71 78.55 69.4 74.9 68.45 Z"/>
</g>

<g id="stiker_222222_copy_7_0_Layer5_11_FILL">
<path fill="#5B5B5B" stroke="none" d="
M 167.4 77.5
Q 165.15 75.15 166.15 72.8 167.25 68.95 170 64.4 170.9 62.85 175.35 56.4 172.85 57.85 170.15 58.6 168.65 61.15 166.15 64.25 163.3 67.6 162 69.1 161.45 70.4 159.4 66.6 157 62.1 155.15 62.7 152.05 63.45 151.35 67.45 151 69.75 150.3 74.4 148.35 67.8 143.45 60.6 140.35 56.05 133.9 48.5 127.05 58.7 117.45 57.95 110.45 57.45 98.1 50 95.4 48.5 92.4 51.1 89 54.75 86.8 56.1 85.45 56.95 83.2 54.7 79.7 56.8 76.3 58.1 81.4 60.45 83.9 62 87.95 64.45 90.7 67.6 90.9 66.6 90.6 59.75 90.4 55.35 92.8 54.4 98.75 51.85 106.25 58 108.3 59.7 112.5 63.35 116.3 66.35 119.4 67.35 124.8 68.8 129.25 64.55 130.55 63.35 136.15 55.6 140.2 61.4 144.4 70.65 146.75 75.85 151.55 86.45 153.8 84.45 154.7 79.35 155.85 72.95 156.55 71.45 163.65 78.25 164.2 78.65 169.05 82.05 173.55 79.85 169.8 79.95 167.4 77.5 Z"/>
</g>

<g id="stiker_222222_copy_7_0_Layer5_12_FILL">
<path fill="#5B5B5B" stroke="none" d="
M 175.75 69.75
Q 173.35 74.15 169.85 75.8 175.4 74.7 180.25 68.4 179.4 68.7 178.5 68.9
L 177.75 69
Q 179.65 66.05 179.45 61.6 177.15 67.2 175.75 69.75 Z"/>
</g>

<g id="stiker_222222_copy_7_0_Layer5_13_FILL">
<path fill="#000000" stroke="none" d="
M 182.85 73.05
Q 182.3 75.25 181.5 77.1 181.05 78.35 179.85 80.1 178.7 81.65 178.15 82.1 178.95 81.6 179.85 80.6 181.2 79.1 182 77.3 183.3 74.2 183.3 70.95 183.25 71.2 182.85 73.05 Z"/>
</g>

<g id="stiker_222222_copy_7_0_Layer5_14_FILL">
<path fill="#5B5B5B" stroke="none" d="
M 179 63.4
Q 178.65 65.8 178 67.7 177.75 69.05 176.3 70.7 175.1 72.1 174.3 72.5 175.3 72.1 176.3 71.25 177.8 69.9 178.5 67.9 179.3 65.5 179.4 63.2 179.35 61.35 179.35 61.2 179.35 61.25 179 63.4 Z"/>
</g>

<g id="stiker_222222_copy_7_0_Layer5_15_FILL">
<path fill="#000000" stroke="none" d="
M 79.65 70.6
Q 75.1 71.35 71.4 69.8 69.8 69.35 67.65 67.45 65.85 65.85 65.05 64.6 65.75 65.95 67 67.3 68.85 69.25 71.25 70.3 76 72.05 79.65 70.6 Z"/>
</g>

<g id="stiker_222222_copy_7_0_Layer5_17_FILL">
<path fill="#000000" stroke="none" d="
M 124.05 122.6
Q 123.9 121.55 123.15 120.45 121.7 118.3 118.85 118.1 116 117.85 114.65 120.25 113.95 121.45 113.85 122.7 114.1 121.75 114.85 120.85 116.3 119 118.65 119.1 121.05 119.25 122.8 120.95 123.65 121.8 124.05 122.6 Z"/>
</g>

<g id="stiker_222222_copy_7_0_Layer5_18_FILL">
<path fill="#5E3328" stroke="none" d="
M 138.55 140.3
L 140.5 131.3
Q 133.65 132.05 124.5 132.1 106.3 132.25 95 129
L 100.2 139.05
Q 105.8 150.3 107.9 156 110.25 162.45 118.95 161.5 127.2 160.65 132.1 154.8 135.85 150.25 138.55 140.3 Z"/>
</g>

<g id="stiker_222222_copy_7_0_Layer5_19_FILL">
<path fill="#BB3C32" stroke="none" d="
M 137.5 143.7
Q 135.3 140.8 132.2 140 128.2 139 123.05 141.7 120.35 140.1 116.8 140.5 109.8 141.25 105.9 151.2 106.6 153 107.8 156 110.1 162.5 118.85 161.55 127.1 160.65 132 154.8 135.15 150.85 137.5 143.7 Z"/>
</g>

<g id="stiker_222222_copy_7_0_Layer5_21_FILL">
<path fill="#000000" stroke="none" d="
M 99 129.95
Q 106.9 132 116.65 132.3 130.05 132.8 140.85 131.4 124.95 131.9 116.75 131.4 108.2 131.25 99.95 129.7 97.3984375 129.204296875 95.8 128.8
L 99 129.95 Z"/>
</g>

<g id="stiker_222222_copy_7_0_Layer5_23_FILL">
<path fill="#000000" stroke="none" d="
M 137.6 141.6
Q 137.1 143.2 135.9 147 134.65 150.5 132.8 153.1 130.55 156.45 126.6 158.55 122.25 160.85 117.05 160.85 112.45 161.3 109.6 157.85 107.65 155.5 106.4 151.05 105.25 148.3 103.55 144.75 101.7 141.05 100.9 139.35
L 95.3 128.85 101.9 142.5
Q 104.9 148.9 107 154.7 107.85 157.95 110.95 160.05 114.05 162.15 117.15 161.7 121.85 161.7 126.1 159.75 130.2 157.85 132.5 154.8 134.55 152.15 135.9 148.7 136.8 146.45 137.65 143 138.85 138.65 139.8 134.7
L 140.5 131.6 137.6 141.6 Z"/>
</g>

<g id="stiker_222222_copy_7_0_Layer5_25_FILL">
<path fill="#000000" stroke="none" d="
M 131 139.6
Q 129.1 139.3 127.6 139.6 123.5 140.35 121.3 143.35 120.2 144.85 119.9 146 120.25 145.1 121.4 143.85 123.65 141.25 127.8 140.35 131.55 139.65 134.8 141.5 136.4 142.45 137.1 143.5 136.3 142 134.4 140.8 133 139.95 131 139.6 Z"/>
</g>

<g id="stiker_222222_copy_7_0_Layer5_27_FILL">
<path fill="#000000" stroke="none" d="
M 111.8 142.25
Q 108.7 144.65 107.05 148.2 106.2 149.95 106 151.05 106.3 150.2 107.2 148.7 109.1 145.6 112.4 142.85 115.35 140.3 119.55 140.8 121.65 141 122.9 141.55 121.3 140.7 118.8 140.25 117.05 139.9 114.9 140.6 112.95 141.2 111.8 142.25 Z"/>
</g>

<g id="stiker_222222_copy_7_0_Layer5_28_FILL">
<path fill="#000000" stroke="none" d="
M 144.1 133.3
L 142.1 131.3
Q 141.45 130.65 141.2 129.75 141 129.2 141 128.9 140.75 128.8 140.7 130 140.65 131.2 141.3 131.8 142.5 133.1 144.1 133.3 Z"/>
</g>

<g id="stiker_222222_copy_7_0_Layer5_30_FILL">
<path fill="#000000" stroke="none" d="
M 93 110.65
Q 88.45 113.05 88 115.6
L 92.5 112.8
Q 97.8 110.1 101.5 110.7 104.7 111.2 106.75 112.35 107.75 112.9 108 112.35 108.45 111.35 105.9 109.8 103.2 108.15 100.5 108.3 97.1 108.45 93 110.65 Z"/>
</g>

<g id="stiker_222222_copy_7_0_Layer5_32_FILL">
<path fill="#000000" stroke="none" d="
M 151.35 115.7
Q 149.25 113.15 144.9 110.7 140.45 108.1 137.55 107.9 134.85 107.75 131.45 110.2 128.25 112.5 128.65 113.6 128.8 114 130.5 112.75 133.1 110.8 136.5 110.3 140.15 109.7 146.1 112.65 149.1 114.1 151.35 115.7 Z"/>
</g>

<g id="stiker_222222_copy_7_0_Layer5_34_FILL">
<path fill="#000000" stroke="none" d="
M 137.15 96.7
Q 134.5 91.2 128.9 91.7 126.95 91.9 125.6 92.7 124.3 93.5 124.9 93.9 125.65 94.45 126.55 94.05 128.2 93.3 130.3 93.1 132.95 92.85 135.3 94.75 136.5 95.7 137.15 96.7 Z"/>
</g>

<g id="stiker_222222_copy_7_0_Layer5_36_FILL">
<path fill="#000000" stroke="none" d="
M 104.65 93.55
Q 99.65 92.4 96.55 97.1 97.3 96.3 98.5 95.55 100.9 94.15 103.25 94.7 105.05 95.15 106.5 96 107.3 96.5 108.05 96.1 108.65 95.75 107.55 94.85 106.4 93.9 104.65 93.55 Z"/>
</g>

<path id="stiker_222222_copy_7_0_Layer5_0_1_STROKES" stroke="#4E4E4D" stroke-width="1.95" stroke-linejoin="miter" stroke-linecap="butt" stroke-miterlimit="10" fill="none" d="
M 66.5 99.3
Q 60.65 97.15 57 92.3 52.85 86.8 56.4 82.8 53.8 79.2 53.1 75 52.25 70.25 54.7 67.8 55.75 66.8 56.7 66.45 57.5 66.1 58.6 66.1 54.6 58.45 58.1 54.55 59.5 52.95 61.65 52.65 63.75 52.3 65.6 53.3
L 67 53.65
Q 68.9 53.85 71.6 53.2 76.15 52.15 81.1 48.9 88.3 44.2 96.15 40.85 104.8 37.2 112 36.2 111.75 33.8 113.3 31.8 114.85 29.7 117.4 29.4 120.15 29.05 123.15 29.95 126.55 30.9 129.3 33.3 131.7 31.4 135.95 29.5 140.3 27.6 142.5 27.6 145.1 27.6 146.95 29.6 148.75 31.55 148.5 34.2 152.75 36.9 152 40.8 151.35 44.3 148.1 45.6
L 150.1 47.9
Q 151.25 49.3 153.7 50.65 156.45 52.1 159.7 52.9 168 54.9 174.3 49.8 176.9 47.8 180 48.8 183.45 49.95 184.3 53.3 185.4 57.7 185.5 61.1 187.75 61.95 188.8 65.7
L 189.05 67.15
Q 189.3 69 189.3 70.8
L 191 73
Q 192.6 76.35 191.7 81.15 190.85 85.9 187.8 90.6 186.65 92.35 185.6 96.25 185.05 98.45 184 102.6 183.6 103.9 182.15 107.4 181.05 112 178 117.7 178.95 120.7 178.6 124.5 178.3 127.95 177 131.4 174.65 137.5 168.35 138.9 163.85 154 152.15 162.6 142.2 170.1 129.05 171.65 116.9 173.15 104.85 169.4 93.05 165.7 85 158.25 76.6 150.5 75.05 140.9 68.35 137.15 67 130.3 66.15 126.1 67.15 122.7 68.35 120 68.4 119.8
L 67.7 114
Q 66.4 104.55 66.5 99.3 Z
M 72.5 88.5
L 73.65 88.6
Q 76.15 88.95 77.6 90.95 79.05 92.9 78.65 95.4 78.15 98.8 78.5 103.85 78.75 106.75 79.35 112.8
L 80.45 120
Q 80.85 121.55 80.3 123.2 79.75 124.75 78.45 125.9 78.2 126.7 78.7 128.15 79.45 130.25 81.75 130.7 83.8 131.15 85.15 132.8 86.55 134.45 86.55 136.55 86.5 142.9 92.5 148.75 98.25 154.35 107.4 157.4 116.9 160.6 126.4 159.65 137 158.65 144.85 152.75 154.65 145.45 157.65 131.65 158.2 129.3 160.15 127.95 162.15 126.6 164.55 127.05 165.55 127.25 165.65 126.85 166.65 124.4 166.65 122.05 166.65 121.85 166.95 121.85 167.2 121.9 167.05 121.75 165.55 120.4 165.2 118.35 164.8 116.3 165.85 114.45 168.3 109.9 168.6 109.4 169.95 106.5 170.55 103.85
L 172.45 98.95
Q 173.75 93.75 174.45 91.35 175.6 87.2 177.75 83.85 175.7 82.5 175.2 80.15 174.7 77.75 175.95 75.65
L 176.55 74.45
Q 173.7 73.7 172.55 71 171.35 68.25 172.85 65.65 173.15 65.05 173.55 63.45 165.15 66.4 155.45 63.75 146.3 61.15 141 55.15 137.65 51.35 133.85 50.65 132.05 50.35 130.65 48.95 129 49.4 127.35 48.75 126 49.3 124.6 49.25 123.1 49.15 121.85 48.35 118.4 46.25 109.55 48.55 104.25 49.9 98.5 52.55 92.8 55.15 87.65 58.55 80.3 63.4 73.35 64.75 75 66.45 75 68.85 75.05 71.2 73.45 72.95 70.9 75.65 67.25 76.85 68.45 77.9 70.15 78.45 73.2 79.7 73.95 82.95 74.75 86.2 72.5 88.5 Z"/>

<path id="stiker_222222_copy_7_0_Layer5_3_1_STROKES" stroke="#000000" stroke-width="0.35" stroke-linejoin="round" stroke-linecap="round" fill="none" d="
M 80.65 136.7
Q 79 136.35 77.2 135.25 73.55 133 72.75 129.05 71.95 124.75 73.7 122.4 75.2 120.35 77.25 120.95 78.45 121.3 79.4 122.5 80.15 123.5 81.05 123.45 82.25 123.4 82.25 121.35 82.2 120.45 81.65 117.15 80.4 111.3 82.8 102.75 86.75 88.45 100 77
L 99.3 80.3
Q 98.75 83.7 99.55 84 100.9 84.5 105.9 79.5
L 105 81.8
Q 104.35 84.1 105.4 84.3 106.8 84.55 112 82.6 117.7 80.5 121.4 78
L 119.9 80.45
Q 118.7 82.95 120.4 83 123.05 83.1 129.65 80.1
L 130.95 80.7
Q 132.6 81.4 134.6 81.65 141 82.4 148.3 78.6
L 147.05 84.25
Q 146.25 90.55 148.65 93.9 150.3 90.9 151 87.9
L 151.65 91.6
Q 152.9 96.3 156.1 101.4 160.45 108.35 161.85 111.65 163.65 116 162.9 118.9
L 165.5 117.5
Q 168.45 116.25 170.3 117 172.4 117.9 172.6 121.65 172.85 125.25 171.3 129.1 170.1 132.25 166.7 132.95
L 163.5 133
Q 159.85 150.05 146.85 158.8 135.15 166.65 119.65 165.85 103.95 165.1 92.3 156.4 80.55 147.65 80.65 136.7 Z"/>

<path id="stiker_222222_copy_7_0_Layer5_16_1_STROKES" stroke="#000000" stroke-width="0.45" stroke-linejoin="round" stroke-linecap="round" fill="none" d="
M 124.05 122.6
Q 123.65 121.8 122.8 120.95 121.05 119.25 118.65 119.1 116.3 119 114.85 120.85 114.1 121.75 113.85 122.7 113.95 121.45 114.65 120.25 116 117.85 118.85 118.1 121.7 118.3 123.15 120.45 123.9 121.55 124.05 122.6 Z"/>

<path id="stiker_222222_copy_7_0_Layer5_20_1_STROKES" stroke="#000000" stroke-width="0.45" stroke-linejoin="round" stroke-linecap="round" fill="none" d="
M 95.8 128.825
L 99 129.95
Q 106.9 132 116.65 132.3 130.05 132.8 140.85 131.4 124.95 131.9 116.75 131.4 108.2 131.25 99.95 129.7 97.3984375 129.204296875 95.8 128.825 93.055078125 128.184765625 93.15 127.9"/>

<path id="stiker_222222_copy_7_0_Layer5_22_1_STROKES" stroke="#000000" stroke-width="0.45" stroke-linejoin="round" stroke-linecap="round" fill="none" d="
M 117.05 160.85
Q 112.45 161.3 109.6 157.85 107.65 155.5 106.4 151.05 105.25 148.3 103.55 144.75 101.7 141.05 100.9 139.35
L 95.3 128.85 101.9 142.5
Q 104.9 148.9 107 154.7 107.85 157.95 110.95 160.05 114.05 162.15 117.15 161.7 121.85 161.7 126.1 159.75 130.2 157.85 132.5 154.8 134.55 152.15 135.9 148.7 136.8 146.45 137.65 143 138.85 138.65 139.8 134.7
L 140.5 131.6 137.6 141.6
Q 137.1 143.2 135.9 147 134.65 150.5 132.8 153.1 130.55 156.45 126.6 158.55 122.25 160.85 117.05 160.85 Z"/>

<path id="stiker_222222_copy_7_0_Layer5_24_1_STROKES" stroke="#000000" stroke-width="0.45" stroke-linejoin="round" stroke-linecap="round" fill="none" d="
M 127.8 140.35
Q 131.55 139.65 134.8 141.5 136.4 142.45 137.1 143.5 136.3 142 134.4 140.8 133 139.95 131 139.6 129.1 139.3 127.6 139.6 123.5 140.35 121.3 143.35 120.2 144.85 119.9 146 120.25 145.1 121.4 143.85 123.65 141.25 127.8 140.35 Z"/>

<path id="stiker_222222_copy_7_0_Layer5_26_1_STROKES" stroke="#000000" stroke-width="0.45" stroke-linejoin="round" stroke-linecap="round" fill="none" d="
M 112.4 142.85
Q 115.35 140.3 119.55 140.8 121.65 141 122.9 141.55 121.3 140.7 118.8 140.25 117.05 139.9 114.9 140.6 112.95 141.2 111.8 142.25 108.7 144.65 107.05 148.2 106.2 149.95 106 151.05 106.3 150.2 107.2 148.7 109.1 145.6 112.4 142.85 Z"/>

<path id="stiker_222222_copy_7_0_Layer5_29_1_STROKES" stroke="#000000" stroke-width="0.45" stroke-linejoin="round" stroke-linecap="round" fill="none" d="
M 88 115.6
L 92.5 112.8
Q 97.8 110.1 101.5 110.7 104.7 111.2 106.75 112.35 107.75 112.9 108 112.35 108.45 111.35 105.9 109.8 103.2 108.15 100.5 108.3 97.1 108.45 93 110.65 88.45 113.05 88 115.6 Z"/>

<path id="stiker_222222_copy_7_0_Layer5_31_1_STROKES" stroke="#000000" stroke-width="0.45" stroke-linejoin="round" stroke-linecap="round" fill="none" d="
M 151.35 115.7
Q 149.1 114.1 146.1 112.65 140.15 109.7 136.5 110.3 133.1 110.8 130.5 112.75 128.8 114 128.65 113.6 128.25 112.5 131.45 110.2 134.85 107.75 137.55 107.9 140.45 108.1 144.9 110.7 149.25 113.15 151.35 115.7 Z"/>

<path id="stiker_222222_copy_7_0_Layer5_33_1_STROKES" stroke="#000000" stroke-width="0.45" stroke-linejoin="round" stroke-linecap="round" fill="none" d="
M 137.15 96.7
Q 136.5 95.7 135.3 94.75 132.95 92.85 130.3 93.1 128.2 93.3 126.55 94.05 125.65 94.45 124.9 93.9 124.3 93.5 125.6 92.7 126.95 91.9 128.9 91.7 134.5 91.2 137.15 96.7 Z"/>

<path id="stiker_222222_copy_7_0_Layer5_35_1_STROKES" stroke="#000000" stroke-width="0.45" stroke-linejoin="round" stroke-linecap="round" fill="none" d="
M 96.55 97.1
Q 97.3 96.3 98.5 95.55 100.9 94.15 103.25 94.7 105.05 95.15 106.5 96 107.3 96.5 108.05 96.1 108.65 95.75 107.55 94.85 106.4 93.9 104.65 93.55 99.65 92.4 96.55 97.1 Z"/>
</defs>

<g transform="matrix( 1, 0, 0, 1, 0,0) ">
<g transform="matrix( 1, 0, 0, 1, 0,0) ">
<g transform="matrix( 1, 0, 0, 1, 0,0) ">
<use filter="url(#Filter_1)" xlink:href="#Symbol_1_0_Layer0_0_FILL"/>
</g>
</g>

<g transform="matrix( 1, 0, 0, 1, -22.45,0.15) ">
<use xlink:href="#stiker_222222_copy_7_0_Layer5_0_1_STROKES"/>
</g>

<g transform="matrix( 1, 0, 0, 1, -22.45,0.15) ">
<use xlink:href="#stiker_222222_copy_7_0_Layer5_1_FILL"/>
</g>

<g transform="matrix( 1, 0, 0, 1, -22.45,0.15) ">
<use xlink:href="#stiker_222222_copy_7_0_Layer5_2_FILL"/>
</g>

<g transform="matrix( 1, 0, 0, 1, -22.45,0.15) ">
<use xlink:href="#stiker_222222_copy_7_0_Layer5_3_FILL"/>

<use xlink:href="#stiker_222222_copy_7_0_Layer5_3_1_STROKES"/>
</g>

<g transform="matrix( 1, 0, 0, 1, -22.45,0.15) ">
<use xlink:href="#stiker_222222_copy_7_0_Layer5_4_FILL"/>
</g>

<g transform="matrix( 1, 0, 0, 1, -22.45,0.15) ">
<use xlink:href="#stiker_222222_copy_7_0_Layer5_5_FILL"/>
</g>

<g transform="matrix( 1, 0, 0, 1, -22.45,0.15) ">
<use xlink:href="#stiker_222222_copy_7_0_Layer5_6_FILL"/>
</g>

<g transform="matrix( 1, 0, 0, 1, -22.45,0.15) ">
<use xlink:href="#stiker_222222_copy_7_0_Layer5_7_FILL"/>
</g>

<g transform="matrix( 1, 0, 0, 1, -22.45,0.15) ">
<use xlink:href="#stiker_222222_copy_7_0_Layer5_8_FILL"/>
</g>

<g transform="matrix( 1, 0, 0, 1, -22.45,0.15) ">
<use xlink:href="#stiker_222222_copy_7_0_Layer5_9_FILL"/>
</g>

<g transform="matrix( 1, 0, 0, 1, -22.45,0.15) ">
<use xlink:href="#stiker_222222_copy_7_0_Layer5_10_FILL"/>
</g>

<g transform="matrix( 1, 0, 0, 1, -22.45,0.15) ">
<use xlink:href="#stiker_222222_copy_7_0_Layer5_11_FILL"/>
</g>

<g transform="matrix( 1, 0, 0, 1, -22.45,0.15) ">
<use xlink:href="#stiker_222222_copy_7_0_Layer5_12_FILL"/>
</g>

<g transform="matrix( 1, 0, 0, 1, -22.45,0.15) ">
<use xlink:href="#stiker_222222_copy_7_0_Layer5_13_FILL"/>
</g>

<g transform="matrix( 1, 0, 0, 1, -22.45,0.15) ">
<use xlink:href="#stiker_222222_copy_7_0_Layer5_14_FILL"/>
</g>

<g transform="matrix( 1, 0, 0, 1, -22.45,0.15) ">
<use xlink:href="#stiker_222222_copy_7_0_Layer5_15_FILL"/>
</g>

<g transform="matrix( 1, 0, 0, 1, -22.45,0.15) ">
<use xlink:href="#stiker_222222_copy_7_0_Layer5_16_1_STROKES"/>
</g>

<g transform="matrix( 1, 0, 0, 1, -22.45,0.15) ">
<use xlink:href="#stiker_222222_copy_7_0_Layer5_17_FILL"/>
</g>

<g transform="matrix( 1, 0, 0, 1, -22.45,0.15) ">
<use xlink:href="#stiker_222222_copy_7_0_Layer5_18_FILL"/>
</g>

<g transform="matrix( 1, 0, 0, 1, -22.45,0.15) ">
<use xlink:href="#stiker_222222_copy_7_0_Layer5_19_FILL"/>
</g>

<g transform="matrix( 1, 0, 0, 1, -22.45,0.15) ">
<use xlink:href="#stiker_222222_copy_7_0_Layer5_20_1_STROKES"/>
</g>

<g transform="matrix( 1, 0, 0, 1, -22.45,0.15) ">
<use xlink:href="#stiker_222222_copy_7_0_Layer5_21_FILL"/>
</g>

<g transform="matrix( 1, 0, 0, 1, -22.45,0.15) ">
<use xlink:href="#stiker_222222_copy_7_0_Layer5_22_1_STROKES"/>
</g>

<g transform="matrix( 1, 0, 0, 1, -22.45,0.15) ">
<use xlink:href="#stiker_222222_copy_7_0_Layer5_23_FILL"/>
</g>

<g transform="matrix( 1, 0, 0, 1, -22.45,0.15) ">
<use xlink:href="#stiker_222222_copy_7_0_Layer5_24_1_STROKES"/>
</g>

<g transform="matrix( 1, 0, 0, 1, -22.45,0.15) ">
<use xlink:href="#stiker_222222_copy_7_0_Layer5_25_FILL"/>
</g>

<g transform="matrix( 1, 0, 0, 1, -22.45,0.15) ">
<use xlink:href="#stiker_222222_copy_7_0_Layer5_26_1_STROKES"/>
</g>

<g transform="matrix( 1, 0, 0, 1, -22.45,0.15) ">
<use xlink:href="#stiker_222222_copy_7_0_Layer5_27_FILL"/>
</g>

<g transform="matrix( 1, 0, 0, 1, -22.45,0.15) ">
<use xlink:href="#stiker_222222_copy_7_0_Layer5_28_FILL"/>
</g>

<g transform="matrix( 1, 0, 0, 1, -22.45,0.15) ">
<use xlink:href="#stiker_222222_copy_7_0_Layer5_29_1_STROKES"/>
</g>

<g transform="matrix( 1, 0, 0, 1, -22.45,0.15) ">
<use xlink:href="#stiker_222222_copy_7_0_Layer5_30_FILL"/>
</g>

<g transform="matrix( 1, 0, 0, 1, -22.45,0.15) ">
<use xlink:href="#stiker_222222_copy_7_0_Layer5_31_1_STROKES"/>
</g>

<g transform="matrix( 1, 0, 0, 1, -22.45,0.15) ">
<use xlink:href="#stiker_222222_copy_7_0_Layer5_32_FILL"/>
</g>

<g transform="matrix( 1, 0, 0, 1, -22.45,0.15) ">
<use xlink:href="#stiker_222222_copy_7_0_Layer5_33_1_STROKES"/>
</g>

<g transform="matrix( 1, 0, 0, 1, -22.45,0.15) ">
<use xlink:href="#stiker_222222_copy_7_0_Layer5_34_FILL"/>
</g>

<g transform="matrix( 1, 0, 0, 1, -22.45,0.15) ">
<use xlink:href="#stiker_222222_copy_7_0_Layer5_35_1_STROKES"/>
</g>

<g transform="matrix( 1, 0, 0, 1, -22.45,0.15) ">
<use xlink:href="#stiker_222222_copy_7_0_Layer5_36_FILL"/>
</g>
</g>
</svg>
