<?xml version="1.0" encoding="UTF-8" standalone="no"?>
<svg
   xmlns:dc="http://purl.org/dc/elements/1.1/"
   xmlns:cc="http://creativecommons.org/ns#"
   xmlns:rdf="http://www.w3.org/1999/02/22-rdf-syntax-ns#"
   xmlns:svg="http://www.w3.org/2000/svg"
   xmlns="http://www.w3.org/2000/svg"
   viewBox="0 0 248.03751 248.03751"
   height="248.03751"
   width="248.03751"
   xml:space="preserve"
   version="1.1"
   id="svg2"><metadata
     id="metadata8"><rdf:RDF><cc:Work
         rdf:about=""><dc:format>image/svg+xml</dc:format><dc:type
           rdf:resource="http://purl.org/dc/dcmitype/StillImage" /></cc:Work></rdf:RDF></metadata><defs
     id="defs6" /><g
     transform="matrix(1.25,0,0,-1.25,0,248.0375)"
     id="g10"><g
       transform="scale(0.1,0.1)"
       id="g12"><path
         id="path14"
         style="fill:#f6d4b3;fill-opacity:1;fill-rule:nonzero;stroke:none"
         d="m 349.27,568.574 c 0,0 0,-41.949 18.707,-85.039 18.711,-42.801 23.242,-63.781 23.242,-96.941 0,-32.891 26.359,-49.61 37.418,-67.192 11.062,-17.566 11.062,-36.277 6.519,-54.988 -4.25,-18.711 -3.117,-23.519 3.973,-30.332 7.367,-6.519 19.269,4.543 19.269,4.543 0,0 7.942,-9.641 16.731,-11.621 9.07,-2.27 14.168,9.351 14.168,9.351 0,0 13.891,-7.371 21.832,-4.242 8.219,2.821 13.32,10.192 13.32,10.192 0,0 17.578,-11.621 28.059,-0.852 10.211,11.07 -3.11,22.961 -8.781,27.211 -5.957,4.539 -12.758,22.969 -3.688,47.91 8.789,24.942 40.25,62.36 39.688,92.41 -0.848,30.329 -180.848,232.161 -230.457,159.59" /><path
         id="path16"
         style="fill:#f6c492;fill-opacity:1;fill-rule:nonzero;stroke:none"
         d="m 472.289,378.367 c 30.902,-13.316 57.539,-11.047 81.641,-34.578 6.519,12.469 11.621,25.512 11.34,37.129 -0.571,26.93 -149.391,194.742 -193.61,130.121 0,0 0.281,-31.762 13.32,-66.621 22.399,-30.328 56.7,-54.43 87.309,-66.051" /><path
         id="path18"
         style="fill:#f6d4b3;fill-opacity:1;fill-rule:nonzero;stroke:none"
         d="m 941.145,497.988 c 0,0 -5.954,-32.308 -15.59,-62.351 -9.352,-30.34 -9.922,-47.91 -8.793,-70.867 1.14,-23.243 -3.117,-44.223 -19.84,-69.461 -16.438,-25.5 -21.258,-43.36 -23.527,-60.379 -2.27,-17 -18.422,-22.66 -28.633,-21.262 -10.199,1.43 -11.047,11.07 -11.047,11.07 0,0 -7.942,-12.468 -19,-13.898 -11.051,-1.703 -13.883,5.109 -13.883,5.109 0,0 -16.16,-9.359 -27.219,0.571 0,0 -22.109,-5.403 -27.211,6.789 -5.097,11.918 7.371,20.711 18.422,26.379 11.059,5.371 24.949,12.742 22.68,30.039 -2.27,16.429 -58.672,71.992 -49.891,134.351 8.789,62.649 38.27,111.129 74.27,117.641 36,6.519 100.629,17.008 129.262,-33.731" /><path
         id="path20"
         style="fill:#f6d4b3;fill-opacity:1;fill-rule:nonzero;stroke:none"
         d="m 941.145,497.988 c 0,0 -5.954,-32.308 -15.59,-62.351 -9.352,-30.34 -9.922,-47.91 -8.793,-70.867 1.14,-23.243 -3.117,-44.223 -19.84,-69.461 -16.438,-25.5 -21.258,-43.36 -23.527,-60.379 -2.27,-17 -18.422,-22.66 -28.633,-21.262 -10.199,1.43 -11.047,11.07 -11.047,11.07 0,0 -7.942,-12.468 -19,-13.898 -11.051,-1.703 -13.883,5.109 -13.883,5.109 0,0 -16.16,-9.359 -27.219,0.571 0,0 -22.109,-5.403 -27.211,6.789 -5.097,11.918 7.371,20.711 18.422,26.379 11.059,5.371 24.949,12.742 22.68,30.039 -2.27,16.429 -58.672,71.992 -49.891,134.351 8.789,62.649 38.27,111.129 74.27,117.641 36,6.519 100.629,17.008 129.262,-33.731" /><path
         id="path22"
         style="fill:#f6c492;fill-opacity:1;fill-rule:nonzero;stroke:none"
         d="m 839.945,475.027 c 32.032,20.692 71.43,14.461 106.871,-1.968 0.559,2.82 0.848,4.25 0.848,4.25 -28.629,50.742 -93.258,40.519 -129.258,33.73 -36,-6.531 -65.48,-54.988 -74.269,-117.359 -0.571,-4.262 -0.852,-8.5 -0.852,-12.481 9.07,2.84 17.86,5.11 26.082,8.52 35.149,17.57 41.098,67.449 70.578,85.308" /><path
         id="path24"
         style="fill:#d02327;fill-opacity:1;fill-rule:nonzero;stroke:none"
         d="m 830.875,1074.28 c 0,0 54.988,37.42 90.43,22.11 35.14,-15.31 7.648,-41.95 -44.231,-41.95 0,0 51.879,-19.85 78.239,2.27 26.652,22.11 -5.379,73.98 -58.387,60.66 -52.731,-13.33 -62.653,-29.77 -66.051,-43.09" /><path
         id="path26"
         style="fill:#f6d4b3;fill-opacity:1;fill-rule:nonzero;stroke:none"
         d="m 493.551,1092.98 c 0,0 209.48,-11.05 273.258,-15.31 64.062,-4.53 97.23,6.52 220.543,-41.95 123.298,-48.466 72.858,-180.568 30.888,-220.236 -41.951,-39.703 -249.162,-141.179 -409.888,-147.703 -161,-6.797 -231.59,17.582 -251.43,90.153 -19.844,72.847 59.527,138.89 59.527,138.89 0,0 -93.258,-3.679 -96.097,58.11 -3.122,61.796 79.089,141.166 173.199,138.046" /><path
         id="path28"
         style="fill:#f6d4b3;fill-opacity:1;fill-rule:nonzero;stroke:none"
         d="m 491.852,1060.67 c -26.36,-47.06 -44.219,-135.209 -111.969,-117.643 13.609,43.09 28.91,86.183 28.629,130.403 -53.289,-26.93 -90.141,-76.821 -88.16,-118.492 2.558,-57.258 83.339,-58.11 94.679,-58.11 16.731,54.992 76.821,97.231 88.731,158.172 2.828,5.67 -9.082,8.79 -11.91,5.67" /><path
         id="path30"
         style="fill:#f6c492;fill-opacity:1;fill-rule:nonzero;stroke:none"
         d="m 412.48,851.758 c 2.829,-14.75 17.571,-38.27 38.27,-41.102 96.941,-14.738 211.75,-53.008 294.23,11.621 15.879,88.719 40.54,214.023 122.739,249.173 -38.258,6.23 -64.629,3.68 -100.91,6.23 -63.778,4.25 -273.258,15.31 -273.258,15.31 -30.332,1.13 -59.531,-6.52 -85.039,-19.56 0.277,-44.22 -15.024,-87.313 -28.633,-130.391 67.75,-17.582 85.609,70.581 111.973,117.631 2.828,3.12 14.738,0 11.91,-5.67 -11.91,-60.941 -72,-103.184 -88.731,-158.172 l 1.418,0 c 0,0 -0.57,-0.57 -1.699,-1.422 -3.969,-13.597 -5.102,-28.058 -2.27,-43.648" /><path
         id="path32"
         style="fill:#f6c492;fill-opacity:1;fill-rule:nonzero;stroke:none"
         d="m 959.848,919.504 c -44.219,20.687 -100.059,11.617 -147.118,-8.793 -14.742,-5.949 -41.101,-17.859 -41.101,-38.27 0,-14.738 29.199,-17.57 20.41,-38.257 -17.578,-38.262 -79.371,-38.262 -94.109,-79.661 -10.77,-32.312 -30.621,-63.203 -56.129,-84.191 147.687,16.731 320.316,99.789 369.919,139.469 -3.68,44.222 -14.74,93.832 -51.872,109.703" /><path
         id="path34"
         style="fill:#d4d6dc;fill-opacity:1;fill-rule:nonzero;stroke:none"
         d="m 844.766,1076.82 c 0,0 -48.469,-18.98 -80.789,-117.343 -32.313,-98.653 -26.36,-132.379 -125.012,-149.95 -98.36,-17.582 -206.918,-2.839 -217.41,55.84 -10.207,58.668 91.269,180.843 126.422,210.043 35.148,29.48 127.839,39.69 191.058,26.37 63.211,-13.05 105.731,-24.96 105.731,-24.96" /><path
         id="path36"
         style="fill:#f8f8f8;fill-opacity:1;fill-rule:nonzero;stroke:none"
         d="m 589.078,996.039 c -28.633,2.27 -45.64,29.761 -54.14,58.681 -41.95,-43.37 -115.942,-140.029 -107.43,-188.509 2.258,-12.473 9.629,-23.52 22.39,-32.313 35.719,-24.949 111.118,-32.32 188.219,-18.707 80.5,14.457 87.309,37.7 108,106.579 l 12.192,39.402 c 14.168,43.088 31.457,71.438 46.769,89.858 -7.09,0 -13.609,-1.42 -18.992,-5.1 -49.891,-52.719 -129.258,-55.84 -197.008,-49.891" /><path
         id="path38"
         style="fill:#fdfdfd;fill-opacity:1;fill-rule:nonzero;stroke:none"
         d="m 444.797,866.492 c -12.192,17.293 -9.07,39.973 -1.133,63.211 -12.187,-24.09 -19.277,-46.488 -16.16,-63.48 2.269,-12.481 9.641,-23.539 22.391,-32.328 26.359,-18.422 74.839,-27.493 129.55,-25.231 -53.859,0.289 -104.32,14.18 -134.648,57.828" /><path
         id="path40"
         style="fill:#d4d6dc;fill-opacity:1;fill-rule:nonzero;stroke:none"
         d="m 829.742,1074.84 c -17.293,4.54 -50.172,12.47 -91.84,21.27 -65.203,13.6 -153.922,1.69 -186.242,-25.23 -4.527,-3.68 -10.199,-9.36 -16.719,-16.17 8.5,-28.91 25.508,-56.405 54.141,-58.667 67.75,-5.957 147.117,-2.84 197.008,49.887 5.383,3.68 11.902,5.11 18.992,5.11 9.348,11.34 18.141,18.98 24.66,23.8" /><path
         id="path42"
         style="fill:#000000;fill-opacity:1;fill-rule:nonzero;stroke:none"
         d="m 447.063,829.648 c -13.891,9.641 -22.391,21.829 -24.661,35.711 -10.211,58.969 90.707,180.011 126.137,209.491 36.281,30.33 130.391,38.83 190.211,26.36 55.27,-11.62 95.242,-22.11 104.031,-24.38 -9.07,-4.53 -50.738,-30.05 -79.371,-117.361 L 750.93,920.348 C 730.242,851.18 722.59,825.109 638.973,810.09 559.602,795.918 484.191,803.566 447.063,829.648 M 547.41,1075.98 C 511.973,1046.5 410.492,924.609 420.98,865.078 c 2.551,-14.449 11.059,-26.64 25.231,-36.859 37.422,-26.071 113.102,-33.731 193.039,-19.563 84.473,15.321 92.98,43.371 113.102,111.133 l 12.468,39.399 c 31.75,96.952 79.66,116.792 80.223,117.072 0.289,0 0.566,0.29 0.566,0.85 0,0.29 -0.277,0.57 -0.566,0.57 -0.563,0 -43.371,11.91 -106.012,24.95 -60.101,12.75 -154.769,3.96 -191.621,-26.65" /><path
         id="path44"
         style="fill:#f1a728;fill-opacity:1;fill-rule:nonzero;stroke:none"
         d="m 448.48,1373.05 c 0,0 -62.929,-56.13 -101.48,-16.44 0,0 22.109,-2.27 34.301,6.52 0,0 -40.821,8.79 -49.61,46.2 0,0 35.149,-8.78 54.989,6.52 0,0 -42.797,4.54 -37.41,49.61 0,0 38.55,-13.04 47.339,29.76 8.782,43.09 7.653,81.64 41.954,127.85 0,0 -47.34,-15.31 -58.391,22.11 0,0 43.93,-6.52 93.539,40.81 49.602,47.34 103.75,94.68 209.48,100.63 105.731,5.96 144.282,3.97 159.872,37.14 15.308,33.16 -12.192,50.74 -12.192,50.74 0,0 29.77,-5.67 46.211,-41.95 16.719,-36.29 -9.922,-39.69 -4.25,-53.86 5.379,-14.46 104.309,-30.33 173.188,-137.48 69.17,-107.44 42.81,-180 34.02,-214.3 -9.07,-34.02 8.79,-69.45 56.13,-67.18 0,0 -33.17,-81.36 -143.44,-57.26 -109.98,24.38 -212.597,218.27 -544.25,70.58" /><path
         id="path46"
         style="fill:#d78f2d;fill-opacity:1;fill-rule:nonzero;stroke:none"
         d="m 1027.6,1316.93 c 17.57,11.61 23.54,32.3 32.31,49.88 -26.36,-26.36 -70.582,-17.58 -91.273,11.91 29.48,-17.58 61.793,0 82.503,20.69 -29.49,-3.12 -79.382,-14.73 -82.503,26.36 14.742,-8.79 41.393,-8.79 53.013,8.79 -26.361,-2.84 -53.013,17.57 -49.892,47.05 26.359,-11.62 55.842,-11.62 82.202,-2.82 -85.323,2.82 -91.272,106 -108.851,170.64 -11.621,35.43 -49.89,61.79 -85.32,82.48 2.828,-11.89 20.688,-29.48 5.949,-32.3 -14.742,0 -23.531,26.35 -41.379,38.25 20.688,-17.84 29.481,-44.22 11.899,-67.73 -2.828,0 -8.789,-8.79 -11.899,-5.97 -14.461,17.58 -5.671,55.86 -29.203,58.97 -14.738,0 -17.859,-41.39 -38.269,-32.32 -26.641,11.62 -26.641,55.84 -9.071,79.37 -52.718,0 -58.679,-64.91 -85.316,-100.05 -5.672,-5.97 -11.621,-8.79 -17.582,-8.79 -29.48,26.36 8.789,64.62 20.699,94.11 -29.48,-2.84 -50.179,-26.37 -67.75,-47.07 2.832,11.64 2.832,23.53 11.621,32.32 -117.64,-38.27 -214.871,-161.86 -200.129,-294.24 0,-11.9 -5.671,-26.64 -20.41,-35.42 11.629,-2.84 17.578,2.82 26.367,8.78 8.782,-26.36 2.832,-55.84 -26.367,-67.75 12.481,3.68 27.219,2.83 39.688,6.52 9.07,5.68 15.871,11.05 18.422,13.32 0.289,0.29 0.57,0.57 0.57,0.86 0,-0.29 -0.281,-0.57 -0.57,-0.86 0.847,0.57 1.418,1.14 1.418,1.14 331.66,147.68 434.269,-46.21 544.25,-70.59 32.043,-7.08 57.563,-5.1 77.673,1.15 1.7,9.63 5.67,18.7 7.09,28.05 -14.46,-8.78 -32.32,-17.86 -49.89,-14.73" /><path
         id="path48"
         style="fill:#d78f2d;fill-opacity:1;fill-rule:nonzero;stroke:none"
         d="m 474.277,1661.33 c -23.531,-13.04 -44.789,-39.97 -75.968,-37.7 12.757,-5.67 28.058,-3.4 35.429,-1.7 15.028,11.05 28.918,24.09 40.539,39.4" /><path
         id="path50"
         style="fill:#f8c26c;fill-opacity:1;fill-rule:nonzero;stroke:none"
         d="m 1077.77,1578.84 c -25.23,3.4 -34.3,34.58 -41.39,55.84 -11.62,-11.62 -11.62,-29.48 -23.52,-41.1 -11.92,55.84 -44.215,102.9 -94.106,138.33 -20.699,14.74 -44.223,41.1 -70.59,32.32 0,17.57 20.41,29.48 17.578,47.05 -8.789,-17.57 -20.687,-38.27 -32.32,-35.15 -26.641,2.84 -35.43,-3.12 -53,-23.53 -1.988,13.33 -5.391,26.93 -12.188,38.84 -12.191,-0.85 -25.8,-1.7 -41.671,-2.55 -10.489,-7.09 -22.68,-12.19 -31.469,-18.71 -3.121,11.62 -14.742,14.74 -23.813,11.62 -33.449,-10.49 -67.179,-19.28 -102.047,-23.81 -24.371,-11.91 -44.781,-26.93 -63.769,-43.09 -0.57,-1.98 -1.422,-4.25 -1.711,-6.52 41.109,17.58 79.367,44.22 126.43,49.89 0,-8.78 -8.789,-5.67 -11.621,-11.62 23.531,2.84 38.269,23.53 61.789,23.53 0,-11.91 -17.86,-17.58 -14.739,-32.32 29.481,17.58 58.68,49.89 94.11,41.11 17.582,-8.79 -11.899,-38.27 5.961,-55.85 5.949,26.37 35.148,32.32 47.05,8.79 -2.832,11.62 5.95,17.58 5.95,29.48 17.578,-3.12 20.41,-17.86 32.32,-26.64 2.828,5.95 2.828,17.85 5.949,14.74 94.11,-32.32 129.539,-135.22 153.067,-226.49 20.41,8.78 20.41,29.19 23.53,47.05 11.62,-28.34 32.6,-36.85 56.41,-38.27 -1.99,14.46 -5.95,30.34 -12.19,47.06" /><path
         id="path52"
         style="fill:#f6d4b3;fill-opacity:1;fill-rule:nonzero;stroke:none"
         d="m 434.023,1366.53 c 0,0 -19.839,6.52 -29.761,-9.92 -9.93,-16.73 -9.93,-67.47 26.64,-71.72 36.289,-4.53 3.121,81.64 3.121,81.64" /><path
         id="path54"
         style="fill:#000000;fill-opacity:1;fill-rule:nonzero;stroke:none"
         d="m 430.906,1285.46 c -11.617,1.42 -20.687,7.94 -26.078,18.99 -7.941,16.73 -6.519,40.54 0.281,51.59 9.079,15.31 26.368,10.49 28.348,9.64 1.422,-3.12 13.609,-36.57 13.609,-59.24 0,-7.09 -1.136,-13.04 -3.968,-16.73 -2.84,-3.4 -6.801,-4.82 -12.192,-4.25 m -27.207,71.43 c -6.812,-11.34 -8.511,-36 0,-53 5.379,-11.34 15.02,-18.43 26.93,-19.85 5.949,-0.56 10.48,0.85 13.598,4.82 13.613,17.29 -8.5,75.4 -9.348,77.67 -0.289,0.28 -0.289,0.57 -0.57,0.57 -0.282,0 -20.411,6.52 -30.61,-10.21" /><path
         id="path56"
         style="fill:#f6d4b3;fill-opacity:1;fill-rule:nonzero;stroke:none"
         d="m 555.348,1710.37 c 0,0 -102.903,-67.75 -127.84,-161.86 -24.949,-93.83 2.828,-144 1.41,-211.46 -1.41,-67.75 -36.563,-55.85 -36.563,-125.01 0,-68.88 76.25,-132.1 151.372,-155.62 0,0 -0.289,-58.959 107.152,-51.59 107.148,7.37 132.09,45.63 135.207,50.17 2.832,4.25 173.199,24.94 208.633,167.53 0,0 35.151,13.04 51.311,61.51 16.15,48.47 -45.36,79.37 -67.471,47.05 0,0 -22.114,20.7 -17.571,39.69 0,0 -19.281,39.68 11.617,69.16 0,0 -18.988,8.79 -13.039,55.85 5.672,47.05 -1.699,162.99 -79.371,204.09 0,0 13.614,-13.89 5.672,-38.27 0,0 -15.308,49.61 -46.199,51.88 0,0 22.109,-25.23 9.918,-51.88 0,0 -20.981,51.88 -57.258,53.01 0,0 -18.711,-8.79 -17.582,-34.01 0,0 -66.328,7.65 -44.219,59.52 0,0 -64.91,6.52 -87.019,-56.41 0,0 -15.313,4.54 -11.063,32.04 0,0 -30.898,-7.66 -45.066,-30.9 0,0 -11.051,11.05 0,30.9 0,0 -12.191,6.52 -32.031,-5.39" /><path
         id="path58"
         style="fill:#f6c492;fill-opacity:1;fill-rule:nonzero;stroke:none"
         d="m 773.328,1041.39 c 8.223,6.8 11.621,11.91 12.762,13.61 1.98,2.83 74.832,12.47 135.211,58.39 -55.563,-34.3 -121.61,-45.07 -185.102,-55.56 8.5,-12.47 25.789,-10.2 37.129,-16.44" /><path
         id="path60"
         style="fill:#f6c492;fill-opacity:1;fill-rule:nonzero;stroke:none"
         d="m 503.754,1084.2 c 23.531,9.07 49.891,-2.83 64.633,17.86 17.566,20.41 35.429,26.36 55.84,41.1 -53.293,36.57 -115.082,-7.37 -168.09,-40.25 11.898,-9.36 24.66,-17.86 37.976,-25.23 1.992,3.97 5.391,6.52 9.641,6.52" /><path
         id="path62"
         style="fill:#f6c492;fill-opacity:1;fill-rule:nonzero;stroke:none"
         d="m 577.172,1034.31 c 20.691,17.57 58.961,2.83 88.441,17.57 -42.242,-4.25 -84.191,-2.26 -125.289,5.39 1.129,-0.28 2.27,-0.57 3.399,-0.85 0,0 0,-32.03 42.8,-45.92 -8.781,8.79 -13.89,17.57 -9.351,23.81" /><path
         id="path64"
         style="fill:#000000;fill-opacity:1;fill-rule:nonzero;stroke:none"
         d="m 960.133,1370.78 0,0.28 0,-0.28 z m 63.497,-30.33 c -14.46,7.09 -34.017,7.37 -45.067,-8.22 -2.559,2.55 -17.583,17.86 -17.583,33.45 0,1.7 0.282,3.4 0.571,5.1 l 0,0.28 c 0,0.29 -5.668,12.19 -5.668,27.78 0,12.48 3.68,27.5 17.289,40.54 0,0 0.281,0.28 0.281,0.57 0,0.28 -0.281,0.56 -0.562,0.56 0,0 -13.887,7.09 -13.887,38.55 0,4.82 0.277,10.49 1.129,16.44 0.847,6.81 1.418,15.88 1.418,26.37 0,36.85 -6.809,92.12 -34.02,134.36 -0.277,-0.57 3.692,-9.07 5.949,-13.32 20.981,-39.69 26.653,-87.88 26.653,-120.76 0,-10.77 -0.57,-19.56 -1.422,-26.36 -0.848,-6.24 -1.129,-11.91 -1.129,-17.01 0,-28.35 10.77,-37.13 13.891,-39.12 -13.321,-13.04 -17.012,-28.06 -17.012,-40.82 0,-15.3 5.102,-27.21 5.672,-28.06 -0.281,-1.7 -0.57,-3.4 -0.57,-5.39 0,-17.29 17.578,-34.01 18.429,-34.86 0.281,0 0.281,-0.29 0.571,0 0.281,0 0.558,0 0.558,0.28 10.492,15.59 29.769,15.31 43.659,8.22 17.57,-8.5 31.18,-28.91 22.67,-54.71 -15.87,-47.62 -50.739,-61.23 -51.016,-61.23 -0.282,0 -0.282,-0.28 -0.563,-0.56 -19.848,-80.79 -86.461,-135.78 -197.578,-163.84 -7.941,-1.99 -10.211,-2.56 -10.77,-3.41 -6.812,-9.92 -36,-42.8 -134.652,-49.6 -42.801,-2.84 -73.418,3.97 -91.558,20.97 -14.743,13.89 -15.02,29.48 -15.02,29.77 0,0.28 -0.289,0.56 -0.57,0.56 -73.129,22.97 -150.801,85.04 -150.801,155.06 0,34.87 8.781,48.76 18.141,63.21 8.789,13.89 17.859,28.35 18.71,61.8 l 0,5.38 c 0,21.55 -2.839,41.11 -5.671,61.8 -3.122,21.26 -6.239,43.09 -6.239,67.46 0,22.68 2.547,47.34 10.489,76.82 8.218,30.9 24.949,59.25 43.941,83.06 3.117,3.97 9.348,12.75 9.07,13.04 -22.961,-26.37 -44.793,-58.96 -54.711,-95.81 -7.648,-29.48 -10.199,-54.43 -10.199,-77.11 0,-24.66 3.11,-46.2 5.949,-67.46 3.121,-20.69 5.95,-40.54 5.95,-61.8 l 0,-5.38 c -0.848,-33.17 -9.918,-47.34 -18.418,-60.95 -9.082,-14.17 -18.43,-28.63 -18.43,-64.06 0,-70.58 77.949,-132.95 151.367,-156.19 0,-2.55 1.133,-17.01 15.59,-30.33 18.141,-17.01 49.32,-24.38 92.41,-21.26 99.5,6.8 128.981,39.97 135.781,50.17 0.571,0.57 5.102,1.7 10.2,2.84 19.851,5.1 60.949,15.31 102.05,39.97 51.032,30.61 83.34,72.56 96.379,124.72 3.403,1.13 36.279,15.88 51.589,61.8 1.7,5.67 2.55,11.05 2.55,16.15 0,19 -11.62,33.45 -25.79,40.54" /><path
         id="path66"
         style="fill:#d02327;fill-opacity:1;fill-rule:nonzero;stroke:none"
         d="m 464.07,905.051 c -4.816,-14.172 -4.25,-25.801 2.274,-34.871 10.769,-15.301 37.699,-24.09 75.969,-24.66 l 28.058,-1.129 c 52.442,-2.551 106.582,-5.102 120.473,41.097 12.187,40.821 35.148,88.442 48.758,114.242 -17.008,-9.07 -44.508,-20.71 -78.239,-24.382 C 609.492,969.68 547.41,982.438 530.684,1007.1 515.383,989.238 475.98,939.918 464.07,905.051" /><path
         id="path68"
         style="fill:#e22228;fill-opacity:1;fill-rule:nonzero;stroke:none"
         d="m 503.754,884.07 c -26.078,31.461 0.851,71.723 15.59,109.422 -18.418,-22.961 -45.641,-60.379 -55.27,-88.441 -4.82,-14.18 -4.258,-25.797 2.262,-34.867 10.769,-15.313 37.699,-24.09 75.969,-24.661 l 28.058,-1.14 c 47.633,-2.262 96.672,-4.813 115.66,29.48 -56.128,-38.55 -137.476,-41.953 -182.269,10.207" /><path
         id="path70"
         style="fill:#000000;fill-opacity:1;fill-rule:nonzero;stroke:none"
         d="m 570.09,839.285 -28.063,1.121 c -40.539,0.582 -68.031,9.93 -79.937,26.942 -4.25,5.949 -6.524,13.031 -6.524,20.968 0,5.68 1.133,11.622 3.403,18.153 14.179,41.668 65.769,101.761 72.847,110.271 6.813,-27.224 75.122,-42.244 128.981,-36.295 47.051,5.114 82.492,26.935 91.84,33.175 C 745.27,1000.01 711.258,936.516 695.656,883.777 680.918,833.898 624.52,836.738 570.09,839.285 m -38.551,179.435 c -0.57,-0.85 -58.68,-66.892 -73.992,-111.693 -5.379,-16.16 -4.25,-29.761 3.41,-40.531 12.191,-17.301 40.25,-26.937 81.07,-27.488 l 28.063,-1.153 c 54.988,-2.828 111.969,-5.66 126.988,45.653 17.578,58.68 58.11,131.242 58.399,132.092 0.281,0.29 0,0.56 -0.289,0.86 -0.282,0.28 -0.559,0.28 -0.848,0 -0.281,-0.3 -39.121,-28.632 -93.82,-34.593 -53.864,-5.679 -123.313,9.918 -127.563,36.293 0,0.28 -0.289,0.56 -0.57,0.56 -0.278,0.29 -0.571,0 -0.848,0" /><path
         id="path72"
         style="fill:#e22228;fill-opacity:1;fill-rule:nonzero;stroke:none"
         d="m 554.781,950.398 c -12.472,0 -20.98,-10.488 -21.543,-20.679 0,-0.578 -0.289,-0.86 -0.289,-1.43 0,-6.801 3.692,-14.168 11.91,-17.859 -2.269,-5.102 -3.398,-10.489 -3.398,-16.16 l 0,-1.129 c 0.277,-12.192 5.098,-21.832 13.598,-28.063 10.781,-7.937 26.929,-9.359 45.363,-3.969 29.476,8.789 35.148,24.942 35.43,40.821 10.207,1.992 15.589,9.64 16.16,17.57 0,0.57 0.277,1.141 0.277,1.699 0,9.641 -6.519,20.129 -18.141,22.11 -12.187,1.992 -19.277,-3.95 -22.679,-11.34 -2.828,0.57 -5.379,1.14 -7.649,1.422 l -7.09,1.418 c -7.082,1.992 -14.449,2.269 -21.261,0.851 -0.848,2.84 -2.258,5.949 -5.098,8.5 -3.68,3.969 -9.07,6.238 -15.59,6.238" /><path
         id="path74"
         style="fill:#eac6a6;fill-opacity:1;fill-rule:nonzero;stroke:none"
         d="m 563.57,925.742 c 0,0 0.848,7.649 -6.8,7.649 -7.661,0 -10.77,-12.469 0,-13.598 6.23,0.277 6.8,5.949 6.8,5.949" /><path
         id="path76"
         style="fill:#eac6a6;fill-opacity:1;fill-rule:nonzero;stroke:none"
         d="m 621.391,920.352 c 0,0 0.57,7.66 8.222,6.519 7.367,-1.41 8.5,-14.168 -2.269,-13.32 -6.524,1.41 -5.953,6.801 -5.953,6.801" /><path
         id="path78"
         style="fill:#eac6a6;fill-opacity:1;fill-rule:nonzero;stroke:none"
         d="m 581.711,896.262 c -16.16,-1.422 -23.531,-11.043 -19.844,-22.114 3.684,-11.058 36,-18.429 43.371,0 7.371,18.43 -23.527,22.114 -23.527,22.114" /><path
         id="path80"
         style="fill:#892720;fill-opacity:1;fill-rule:nonzero;stroke:none"
         d="m 577.172,903.918 c 0,-2.551 -1.981,-4.82 -4.539,-4.82 -2.828,0 -4.809,2.269 -4.809,4.82 0,2.547 1.981,4.809 4.809,4.809 2.558,0 4.539,-2.262 4.539,-4.809" /><path
         id="path82"
         style="fill:#892720;fill-opacity:1;fill-rule:nonzero;stroke:none"
         d="m 590.496,891.445 c 0,-2.832 -3.117,-5.109 -7.367,-5.109 -3.973,0 -7.371,2.277 -7.371,5.109 0,2.821 3.398,4.809 7.371,4.809 4.25,0 7.367,-1.988 7.367,-4.809" /><path
         id="path84"
         style="fill:#892720;fill-opacity:1;fill-rule:nonzero;stroke:none"
         d="m 609.203,899.656 c 0,-2.547 -1.98,-4.808 -4.539,-4.808 -2.551,0 -4.531,2.261 -4.531,4.808 0,2.563 1.98,4.543 4.531,4.543 2.559,0 4.539,-1.98 4.539,-4.543" /><path
         id="path86"
         style="fill:#eeeef1;fill-opacity:1;fill-rule:nonzero;stroke:none"
         d="m 923.57,756.23 c 0,0 -240.382,-2.281 -363.679,12.469 -123.602,14.742 -246.903,-9.918 -220.543,-86.168 0,0 -35.149,-112.82 43.941,-213.73 C 462.66,368.172 588.508,326.5 694.25,353.43 c 105.73,26.929 103.461,113.101 103.461,113.101 0,0 86.168,53.86 143.43,0 0,0 54.988,191.61 -17.571,289.699" /><path
         id="path88"
         style="fill:#ccccd2;fill-opacity:1;fill-rule:nonzero;stroke:none"
         d="m 335.664,707.754 c 0.281,-5.102 1.422,-10.199 3.691,-15.871 0,0 -10.21,-29.481 -7.371,-71.149 2.258,22.391 8.5,43.93 21.539,63.211 38.27,61.789 120.75,41.379 185.379,53.008 -68.027,30.039 -141.16,7.082 -203.238,-29.199" /><path
         id="path90"
         style="fill:#ccccd2;fill-opacity:1;fill-rule:nonzero;stroke:none"
         d="m 917.617,512.734 c 2.27,7.942 3.969,16.161 3.969,26.649 -14.738,-13.328 -35.148,-45.93 -49.891,-29.481 -14.738,13.032 14.743,45.922 -3.117,68.871 -2.832,-39.39 -35.152,-88.73 -61.793,-75.679 -44.226,19.84 -55.847,108.289 -35.148,164.129 -20.699,-32.879 -35.442,-75.399 -35.442,-114.797 0,-22.973 -23.519,-6.531 -38.269,-9.934 -14.738,0 -14.738,-22.957 -8.778,-36 17.571,-26.359 58.668,3.41 61.79,-16.449 5.667,-127.551 -131.809,-116.488 -223.653,-126.129 54.992,-20.129 113.391,-24.09 166.961,-10.488 105.731,26.929 103.461,113.109 103.461,113.109 0,0 56.41,35.43 108.289,20.117 0,9.364 4.25,18.993 11.621,26.082" /><path
         id="path92"
         style="fill:#f8f8f8;fill-opacity:1;fill-rule:nonzero;stroke:none"
         d="m 559.602,710.598 c -47.063,-20.692 -97.231,-11.91 -144.282,-32.614 -35.441,-20.41 -38.269,-64.629 -29.48,-100.058 5.949,-35.141 14.738,-67.469 50.172,-82.199 14.738,73.41 67.75,132.378 147.117,123.578 47.051,-5.95 111.973,-23.508 129.543,20.41 13.039,39.422 -7.942,81.93 -32.602,121.609 -26.082,1.141 -51.59,2.281 -75.398,3.981 -4.82,-24.95 -19.563,-46.207 -45.07,-54.707" /><path
         id="path94"
         style="fill:#fdfdfd;fill-opacity:1;fill-rule:nonzero;stroke:none"
         d="m 415.316,628.105 c 41.102,44.219 97.231,53.008 159.02,64.629 33.172,7.09 35.723,41.09 32.602,72.27 -0.852,0 -1.422,0.301 -2.27,0.301 -4.813,-24.95 -19.551,-46.211 -45.07,-54.711 -47.051,-20.688 -97.219,-11.91 -144.282,-32.61 -35.429,-20.41 -38.269,-64.629 -29.48,-100.058 1.133,-6.242 2.269,-12.481 3.68,-18.422 -0.559,25.23 10.781,53.582 25.8,68.601" /><path
         id="path96"
         style="fill:#000000;fill-opacity:1;fill-rule:nonzero;stroke:none"
         d="m 383.848,469.355 c -77.95,99.219 -44.219,211.75 -43.942,212.891 0.293,0.277 0.293,0.57 0,0.57 -5.66,17 -4.25,32.02 4.543,44.778 28.91,41.961 128.981,50.461 215.149,40.261 120.468,-14.46 354.898,-12.468 363.398,-12.468 28.633,-38.563 37.133,-92.133 37.133,-142.582 0,-70.879 -17,-135.782 -19.551,-144.86 -56.98,52.45 -142.301,-0.289 -143.148,-0.851 -0.293,0 -0.293,-0.289 -0.293,-0.571 0,-0.847 0.851,-85.609 -103.18,-112.25 -109.129,-28.058 -233.859,18.422 -310.109,115.082 m -40.821,259.372 c -5.379,-7.922 -7.929,-16.711 -7.929,-26.364 0,-6.218 1.129,-12.75 3.398,-19.84 -0.566,-1.699 -7.656,-26.078 -7.656,-61.789 0,-41.66 9.918,-98.929 52.156,-152.5 76.543,-97.238 201.543,-143.718 311.25,-115.66 101.481,26.09 104.313,106.86 104.313,113.379 5.39,3.402 87.308,51.313 142.019,-0.277 l 0.559,0 c 0.293,0 0.57,0.277 0.57,0.57 0.57,1.988 54.43,193.039 -17.578,290.551 -0.281,0.277 -0.563,0.277 -0.852,0.277 -2.257,0 -241.507,-2.269 -363.398,12.481 -86.742,10.199 -187.371,1.691 -216.852,-40.828" /><path
         id="path98"
         style="fill:#f6d4b3;fill-opacity:1;fill-rule:nonzero;stroke:none"
         d="m 396.605,946.152 c 29.481,8.789 60.379,57.258 72.852,100.628 12.469,43.37 25.508,58.11 38.27,58.68 12.468,0.85 43.937,-8.79 62.359,9.07 18.43,17.57 33.73,16.72 47.059,24.94 13.031,7.94 9.351,27.78 -5.957,28.63 0,0 3.687,27.78 -38.833,31.47 -42.808,3.68 -70.019,-8.79 -89.007,-18.99 -18.993,-10.49 -81.641,-39.69 -144,-96.95 -62.364,-57.54 -33.172,-136.626 -11.051,-152.786 22.109,-16.153 68.308,15.308 68.308,15.308" /><path
         id="path100"
         style="fill:#000000;fill-opacity:1;fill-rule:nonzero;stroke:none"
         d="m 625.359,1157.33 c -1.699,6.52 -6.796,10.77 -13.32,11.34 l 0,1.13 c 0,3.12 -0.848,9.64 -5.957,16.16 -6.519,8.22 -17.852,13.04 -33.73,14.46 -40.821,3.4 -68.032,-7.94 -89.289,-19.28 l -7.653,-3.97 c -24.379,-12.47 -80.789,-41.95 -136.629,-92.97 -33.449,-30.9 -38.84,-65.77 -37.422,-89.86 1.422,-30.332 14.743,-55.563 26.653,-64.352 0.558,-0.277 0.847,0 0.558,0.282 -11.34,8.507 -24.09,34.3 -25.789,64.347 -1.422,23.533 3.969,58.113 37.129,88.443 55.563,51.03 111.973,80.22 136.063,92.7 l 7.66,3.96 c 21.258,11.63 48.187,22.68 88.437,19.28 15.59,-1.42 26.641,-5.95 32.879,-13.89 6.524,-8.22 5.391,-17.01 5.391,-17.01 0,-0.28 0.281,-0.28 0.281,-0.57 0,-0.28 0.281,-0.28 0.57,-0.28 6.231,-0.28 11.34,-4.25 12.75,-10.2 1.418,-5.39 -0.281,-12.76 -7.371,-17.01 -4.531,-2.84 -9.64,-4.54 -14.738,-6.52 -9.641,-3.4 -20.41,-7.09 -32.312,-18.71 -13.61,-13.04 -34.59,-10.77 -49.887,-9.35 -4.82,0.56 -9.07,1.13 -12.192,0.85 -14.742,-0.85 -27.5,-20.41 -38.839,-59.25 -10.2,-36.28 -34.012,-77.38 -59.243,-94.111 -4.25,-2.551 -11.617,-6.801 -11.339,-7.082 29.769,9.922 59.812,58.673 72,100.633 11.062,37.98 23.531,57.54 37.703,58.39 2.84,0 7.09,-0.28 11.91,-0.85 15.59,-1.42 36.847,-3.69 51.019,9.92 11.618,11.06 22.387,15.02 31.75,18.14 5.098,1.99 10.2,3.69 15.02,6.52 5.961,3.69 8.508,9.64 8.508,14.74 0,1.42 -0.289,2.84 -0.571,3.97" /><path
         id="path102"
         style="fill:#fdfdfd;fill-opacity:1;fill-rule:nonzero;stroke:none"
         d="m 730.527,1415.85 c 0,0 40.821,33.17 78.239,-11.91 37.703,-45.35 17.851,-108 -11.059,-131.24 0,0 -48.469,14.46 -84.75,2.27 0,0 -22.121,95.81 17.57,140.88" /><path
         id="path104"
         style="fill:#000000;fill-opacity:1;fill-rule:nonzero;stroke:none"
         d="m 780.703,1339.32 c 0,-13.61 -8.5,-24.66 -18.988,-24.66 -10.774,0 -19.281,11.05 -19.281,24.66 0,13.61 8.507,24.66 19.281,24.66 10.488,0 18.988,-11.05 18.988,-24.66" /><path
         id="path106"
         style="fill:#fdfdfd;fill-opacity:1;fill-rule:nonzero;stroke:none"
         d="m 768.793,1338.75 c 0,-5.39 -3.117,-9.64 -7.367,-9.64 -3.973,0 -7.371,4.25 -7.371,9.64 0,5.1 3.398,9.35 7.371,9.35 4.25,0 7.367,-4.25 7.367,-9.35" /><path
         id="path108"
         style="fill:#fdfdfd;fill-opacity:1;fill-rule:nonzero;stroke:none"
         d="m 584.828,1398.84 c -22.68,34.02 -73.699,24.94 -89.859,-28.06 -16.16,-53.01 13.32,-82.21 13.32,-82.21 0,0 42.52,0.57 72.289,-9.35 0,0 28.063,83.62 4.25,119.62" /><path
         id="path110"
         style="fill:#000000;fill-opacity:1;fill-rule:nonzero;stroke:none"
         d="m 577.738,1337.62 c 0,-12.47 -7.937,-22.68 -17.57,-22.68 -9.641,0 -17.578,10.21 -17.578,22.68 0,12.76 7.937,22.96 17.578,22.96 9.633,0 17.57,-10.2 17.57,-22.96" /><path
         id="path112"
         style="fill:#fdfdfd;fill-opacity:1;fill-rule:nonzero;stroke:none"
         d="m 568.953,1338.75 c 0,-5.1 -3.117,-9.07 -7.09,-9.07 -3.957,0 -7.078,3.97 -7.078,9.07 0,5.1 3.121,9.07 7.078,9.07 3.973,0 7.09,-3.97 7.09,-9.07" /><path
         id="path114"
         style="fill:#000000;fill-opacity:1;fill-rule:nonzero;stroke:none"
         d="m 640.668,1271.57 c 0,0 -37.699,9.64 -33.168,-31.46 0,0 -8.223,11.05 -0.852,27.78 7.372,17 34.02,3.68 34.02,3.68" /><path
         id="path116"
         style="fill:#000000;fill-opacity:1;fill-rule:nonzero;stroke:none"
         d="m 777.867,1532.92 c 0,0 -27.5,19.84 -52.722,-5.67 0,0 -11.059,7.65 3.113,20.98 14.457,13.32 37.699,4.53 49.609,-15.31" /><path
         id="path118"
         style="fill:#000000;fill-opacity:1;fill-rule:nonzero;stroke:none"
         d="m 505.176,1523.29 c 0,0 27.211,20.69 53.012,-3.97 0,0 11.046,7.94 -3.692,20.69 -14.738,13.04 -37.699,3.4 -49.32,-16.72" /><path
         id="path120"
         style="fill:#aec923;fill-opacity:1;fill-rule:nonzero;stroke:none"
         d="m 782.402,676.57 c 0,0 74.828,-68.308 189.641,-96.929 114.517,-28.637 154.197,-19.86 189.347,52.711 35.44,72.851 39.69,183.128 -48.47,216.011 -88.16,33.149 -224.787,90.418 -288.568,55.27 -64.059,-35.442 -108,-163.281 -41.95,-227.063" /><path
         id="path122"
         style="fill:#009646;fill-opacity:1;fill-rule:nonzero;stroke:none"
         d="m 995.281,834.18 c 8.789,-14.739 -5.949,-35.43 2.832,-50.168 17.577,-26.364 55.847,-29.481 79.367,-14.742 27.5,17.851 34.02,47.05 38.84,77.671 -1.13,0.559 -2.27,1.137 -3.4,1.411 -45.64,17.289 -104.32,40.82 -159.307,54.718 11.91,-13.609 24.102,-27.218 29.758,-48.199 0,-5.941 8.793,-14.73 11.91,-20.691" /><path
         id="path124"
         style="fill:#eeeef1;fill-opacity:1;fill-rule:nonzero;stroke:none"
         d="m 1080.61,784.004 c -61.81,-17.57 -120.766,5.961 -179.723,23.539 -38.832,9.922 -84.192,13.602 -121.891,-2.277 -13.32,-42.793 -10.48,-90.993 22.109,-122.453 0,0 67.192,-61.52 170.372,-87.02 102.883,-25.801 138.613,-17.859 170.363,47.332 8.21,16.719 14.46,35.707 17.86,55.27 -3.4,20.41 -9.65,40.539 -17.29,59.25 -8.8,26.359 -38.27,32.32 -61.8,26.359" /><path
         id="path126"
         style="fill:#fdfdfd;fill-opacity:1;fill-rule:nonzero;stroke:none"
         d="m 1083.44,722.219 c 25.23,-1.703 47.91,9.636 61.51,29.199 -0.85,1.969 -1.7,4.25 -2.55,6.23 -8.78,26.368 -38.27,32.309 -61.78,26.368 -61.81,-17.578 -120.772,5.941 -179.733,23.511 -37.141,9.371 -79.649,13.051 -116.207,-0.269 36.847,-16.16 73.687,-24.66 110.539,-37.981 61.789,-20.41 123.591,-47.058 188.221,-47.058" /><path
         id="path128"
         style="fill:#d4d5dc;fill-opacity:1;fill-rule:nonzero;stroke:none"
         d="m 854.117,644.824 c 29.481,-17.57 69.449,-37.129 117.348,-49.031 93.555,-23.539 131.535,-19 161.585,30.902 -87.59,-32.89 -193.042,-19.851 -278.933,18.129" /><path
         id="path130"
         style="fill:#dae184;fill-opacity:1;fill-rule:nonzero;stroke:none"
         d="m 933.492,837.012 c 8.789,-8.789 32.309,-14.739 35.149,-5.949 6.8,19 -1.129,37.98 -13.891,55.558 -22.109,5.672 -43.648,9.641 -63.211,10.199 18.711,-15.308 25.793,-39.398 41.953,-59.808" /><path
         id="path132"
         style="fill:#000000;fill-opacity:1;fill-rule:nonzero;stroke:none"
         d="m 750.371,760.48 c 0,6.809 0.281,14.168 1.422,21.54 6.797,51.308 36.848,100.918 72.848,120.757 58.39,32.313 178.009,-13.316 265.599,-46.488 l 22.4,-8.5 c 29.48,-11.059 50.17,-31.18 61.79,-60.09 17,-42.238 11.62,-103.191 -13.6,-155.058 -34.59,-71.442 -71.72,-81.633 -188.787,-52.43 -113.102,28.34 -188.223,96.078 -189.07,96.93 -21.543,20.41 -32.602,49.609 -32.602,83.339 m 73.422,143.719 C 787.5,884.07 757.172,833.898 750.371,782.02 c -5.949,-43.071 5.391,-80.782 31.461,-106 0.848,-0.86 76.539,-68.891 189.93,-97.243 116.498,-29.199 155.618,-18.129 190.478,53.293 15.31,31.75 23.25,67.18 23.53,99.5 0,20.7 -3.4,39.957 -9.92,56.688 -11.62,29.203 -32.88,49.609 -62.65,60.941 l -22.67,8.52 c -87.59,33.441 -207.78,79.07 -266.737,46.48" /><path
         id="path134"
         style="fill:#aec923;fill-opacity:1;fill-rule:nonzero;stroke:none"
         d="m 877.363,760.48 c 16.442,52.161 4.821,124.731 -51.59,144 -62.929,-9.921 -91.281,-44.792 -92.691,-96.371 -0.848,-37.711 0.852,-71.718 15.871,-96.66 49.039,-19 111.121,-0.851 128.41,49.031" /><path
         id="path136"
         style="fill:#009646;fill-opacity:1;fill-rule:nonzero;stroke:none"
         d="m 824.355,819.441 c 0,23.532 -20.41,44.223 -43.941,32.301 -15.301,-7.64 -30.328,-23.508 -45.629,-25.5 -0.859,-5.949 -1.422,-11.898 -1.711,-18.14 -0.277,-14.457 -0.277,-28.059 0.852,-41.098 12.758,-20.691 37.711,-26.93 66.898,-12.473 23.531,11.903 23.531,41.371 23.531,64.91" /><path
         id="path138"
         style="fill:#dae184;fill-opacity:1;fill-rule:nonzero;stroke:none"
         d="m 827.473,848.926 c 23.527,-35.43 14.738,-91.281 -23.532,-108.86 26.36,-5.941 53.008,11.622 64.629,35.161 17.86,41.39 0,100.058 -38.269,117.64 -8.5,3.68 -17.571,5.938 -26.641,6.52 -21.258,-6.242 -37.129,-15.879 -48.469,-28.93 26.079,4.828 55.27,2.848 72.282,-21.531" /><path
         id="path140"
         style="fill:#dae184;fill-opacity:1;fill-rule:nonzero;stroke:none"
         d="m 830.023,905.051 c -1.418,-0.281 -2.828,-0.571 -4.25,-0.571 56.411,-19.273 68.032,-91.839 51.59,-144 -17.289,-49.89 -79.371,-68.031 -128.41,-49.042 6.242,-9.93 14.461,-18.7 25.231,-25.508 24.66,-15.02 108.851,-13.039 135.211,63.211 26.648,76.539 -13.04,164.699 -79.372,155.91" /><path
         id="path142"
         style="fill:#009646;fill-opacity:1;fill-rule:nonzero;stroke:none"
         d="m 886.438,851.758 c -6.52,27.5 -32.602,43.09 -60.09,52.711 l -0.571,0 c 56.411,-19.262 68.028,-91.832 51.59,-143.992 -17.293,-49.887 -79.371,-68.039 -128.41,-49.028 1.699,-2.84 3.68,-5.39 5.668,-8.23 31.18,-13.332 70.871,-2.262 99.211,13.039 50.172,23.808 47.059,88.441 32.602,135.5" /><path
         id="path144"
         style="fill:#aec923;fill-opacity:1;fill-rule:nonzero;stroke:none"
         d="m 916.195,820.012 c -1.699,-25.231 -7.371,-50.184 -12.187,-74.274 -5.953,-17.578 -20.692,-23.527 -35.434,-41.097 -5.949,-5.95 -20.41,-2.832 -32.316,-2.832 5.957,-9.09 5.957,-14.739 -5.953,-17.86 -11.617,-2.847 -23.528,8.77 -35.149,11.903 0,-7.082 3.692,-12.192 6.52,-17.012 35.429,-2.551 87.871,13.039 107.719,70.301 8.222,23.808 10.203,48.48 6.8,70.871" /><path
         id="path146"
         style="fill:#000000;fill-opacity:1;fill-rule:nonzero;stroke:none"
         d="m 774.746,686.777 c -36,22.11 -42.519,64.36 -40.82,121.321 1.422,55.558 34.019,87.879 96.379,96.097 23.242,3.133 44.793,-5.957 60.941,-25.797 26.078,-31.75 33.172,-83.621 17.578,-128.96 -13.609,-39.122 -41.386,-56.141 -62.078,-63.512 -29.199,-10.488 -58.961,-7.36 -72,0.851 m 55.281,218.828 c -63.222,-8.207 -96.101,-41.097 -97.519,-97.507 -1.41,-46.192 0.566,-97.512 41.387,-122.743 13.613,-8.218 43.941,-11.328 73.421,-0.847 20.969,7.66 49.039,24.961 62.93,64.629 15.871,45.64 8.5,98.082 -17.859,130.109 -16.442,20.41 -38.551,29.781 -62.36,26.359" /><path
         id="path148"
         style="fill:#f3ae25;fill-opacity:1;fill-rule:nonzero;stroke:none"
         d="m 761.426,838.438 c 0,0 30.898,32.031 50.742,-6.52 19.84,-38.559 -16.441,-80.5 -46.203,-77.102 -29.77,3.114 -16.731,28.633 -16.731,28.633 0,0 -18.707,20.969 -42.796,19.828 -24.383,-1.121 -35.442,15.321 -28.633,36.282 6.519,20.988 28.633,33.179 47.34,14.468 18.71,-18.711 36.281,-15.589 36.281,-15.589" /><path
         id="path150"
         style="fill:#f7c54a;fill-opacity:1;fill-rule:nonzero;stroke:none"
         d="m 720.605,850.906 c -0.851,0.852 -1.699,1.422 -2.55,2.274 -12.758,12.75 -27.782,4.527 -32.321,-9.934 9.641,7.383 22.961,10.781 34.871,7.66" /><path
         id="path152"
         style="fill:#f7c54a;fill-opacity:1;fill-rule:nonzero;stroke:none"
         d="m 780.422,813.484 c -20.692,-2.828 -38.274,32.313 -64.91,23.543 -2.84,-2.851 3.109,-11.632 3.109,-14.75 20.41,-8.793 38.27,-29.472 58.68,-32.32 29.199,0 30.328,34.301 18.14,59.539 -5.953,2.262 -11.902,1.699 -17.293,-0.289 0.293,-15.031 18.141,-33.441 2.274,-35.723" /><path
         id="path154"
         style="fill:#ef9e2c;fill-opacity:1;fill-rule:nonzero;stroke:none"
         d="m 812.734,830.496 c -4.25,-29.476 -9.921,-65.476 -41.101,-58.117 -11.91,2.84 -23.809,26.367 -38.27,29.488 -22.961,4.821 -45.64,12.18 -57.258,30.903 -2.55,-17.582 8.79,-30.622 30.329,-29.481 24.101,1.129 42.8,-19.851 42.8,-19.851 0,0 -13.039,-25.508 16.731,-28.629 29.199,-3.403 65.199,37.711 46.769,75.687" /><path
         id="path156"
         style="fill:#000000;fill-opacity:1;fill-rule:nonzero;stroke:none"
         d="m 681.207,813.484 c -5.102,6.524 -5.949,15.602 -2.832,25.801 3.68,11.621 11.902,20.121 21.539,22.68 5.953,1.41 15.024,1.133 24.66,-8.508 18.711,-18.711 36.281,-15.883 36.852,-15.59 l 0.57,0 c 0,0.278 13.891,14.168 28.34,12.188 8.512,-1.41 15.59,-7.367 21.262,-18.43 8.789,-17.289 7.09,-36.57 -4.532,-53.289 -10.492,-15.309 -26.929,-24.379 -41.101,-22.961 -8.789,1.141 -14.457,3.973 -17.301,9.082 -4.25,7.938 1.141,18.418 1.422,18.699 0,0.282 0,0.571 -0.281,0.86 0,0 -19.278,20.968 -43.66,19.832 -11.047,-0.282 -19.84,3.129 -24.938,9.636 m 18.43,49.891 c -10.211,-2.551 -19,-11.617 -22.68,-23.52 -3.402,-10.769 -2.269,-20.41 3.117,-27.218 5.383,-7.09 14.742,-10.77 26.364,-10.199 22.386,1.128 40.25,-17.301 41.949,-19.282 -0.571,-1.129 -2.832,-5.949 -2.832,-11.609 0,-2.563 0.562,-5.391 1.98,-7.942 2.84,-5.39 9.07,-8.507 18.141,-9.648 14.738,-1.699 31.75,7.938 42.519,23.527 11.91,17.293 13.61,37.133 4.539,54.711 -5.957,11.621 -13.328,17.86 -22.109,19.27 -14.738,2.269 -28.07,-10.758 -29.48,-12.18 -1.137,-0.289 -17.86,-2.558 -35.438,15.301 -7.93,7.66 -17.293,10.769 -26.07,8.789" /><path
         id="path158"
         style="fill:#f6d4b3;fill-opacity:1;fill-rule:nonzero;stroke:none"
         d="m 987.348,1035.72 c 0,0 60.662,-15.31 103.462,-101.197 28.92,-48.75 12.76,-122.171 12.76,-122.171 0,0 1.42,-36.571 -3.12,-55.84 -4.25,-18.981 -9.64,-21.258 -18.42,-18.981 0,0 -6.52,-13.898 -18.14,-11.066 -11.92,2.828 -9.64,24.949 -9.64,24.949 0,0 -18.99,-26.359 -27.21,-16.16 -8.23,10.211 0.85,20.687 -1.42,30.898 -2.27,10.2 -24.38,-8.789 -30.901,1.422 -6.52,10.199 13.321,22.11 16.161,32.309 2.83,10.488 -21.263,98.09 -76.54,109.129 0,0 -46.199,114.518 53.008,126.708" /><path
         id="path160"
         style="fill:#f6c492;fill-opacity:1;fill-rule:nonzero;stroke:none"
         d="m 959.848,919.504 c -9.918,4.539 -20.688,7.937 -31.457,9.637 2.828,-11.911 5.949,-20.129 5.949,-20.129 55.269,-11.039 79.37,-98.641 76.53,-109.129 -0.56,-1.992 -1.98,-4.25 -3.68,-6.52 1.7,1.418 3.41,2.559 5.67,2.559 -2.84,47.051 -11.91,106.012 -53.012,123.582" /><path
         id="path162"
         style="fill:#f6d4b3;fill-opacity:1;fill-rule:nonzero;stroke:none"
         d="m 1090.81,934.531 c -42.8,85.889 -103.458,101.199 -103.458,101.199 -72.86,-8.79 -67.192,-73.14 -58.969,-106.589 10.777,-1.7 21.547,-5.11 31.469,-9.629 41.098,-17.59 50.168,-76.539 53.008,-123.59 -2.26,0 -3.97,-1.152 -5.67,-2.563 -6.52,-8.507 -17.858,-17.566 -12.467,-25.789 6.517,-10.218 28.627,8.789 30.887,-1.418 2.27,-10.203 -6.8,-20.691 1.42,-30.91 8.22,-10.191 27.21,16.168 27.21,16.168 0,0 -2.26,-22.109 9.64,-24.949 11.62,-2.828 18.14,11.059 18.14,11.059 8.79,-2.278 14.18,0 18.43,18.98 4.53,19.293 3.12,55.852 3.12,55.852 0,0 16.15,73.418 -12.76,122.179" /><path
         id="path164"
         style="fill:#000000;fill-opacity:1;fill-rule:nonzero;stroke:none"
         d="m 1091.66,934.813 c -42.8,85.317 -103.461,101.477 -104.031,101.757 l -0.289,0 c -1.129,-0.28 -1.981,-0.28 -2.828,-0.55 -0.282,0 1.976,-1.14 2.828,-0.86 1.711,-0.57 60.95,-17.28 102.9,-101.195 13.33,-22.391 17.02,-50.742 17.02,-74.281 0,-26.352 -4.54,-46.758 -4.54,-47.051 0,-0.278 0.28,-5.949 0.28,-14.18 0,-12.469 -0.57,-30.32 -3.12,-41.668 -2.55,-10.48 -5.1,-15.871 -8.79,-18.133 -1.98,-1.418 -4.82,-1.418 -8.78,-0.558 -0.29,0.269 -0.57,0 -0.85,-0.289 0,0 -6.52,-13.321 -17.57,-10.492 -11.06,2.562 -9.08,23.82 -9.08,24.089 0.28,0.293 0,0.582 -0.28,0.864 -0.29,0 -0.85,0 -0.85,-0.282 -0.29,-0.289 -13.33,-18.16 -21.82,-18.429 -1.7,0 -3.13,0.847 -4.26,2.269 -4.53,5.942 -3.4,11.899 -2.27,18.141 0.85,3.969 1.7,8.211 0.85,12.469 -0.28,1.421 -0.85,2.269 -1.98,2.832 -2.56,1.699 -7.09,0.289 -11.91,-1.411 -6.8,-2.281 -13.892,-4.542 -17.009,0.278 -0.851,1.133 -1.133,2.551 -1.133,3.972 0,4.821 4.532,9.918 8.792,15.02 3.96,4.539 7.37,8.508 8.51,12.758 0.27,0.562 0.27,1.41 0.27,2.551 0,10.199 -7.93,38.839 -22.958,63.211 -8.5,14.179 -22.391,31.46 -41.383,39.968 -3.969,1.7 -13.039,3.121 -13.328,2.832 l 0.289,0 c 25.23,-5.09 42.801,-26.652 53.289,-43.652 17.011,-28.07 24.091,-58.961 22.391,-64.641 -0.85,-3.668 -4.53,-7.929 -8.21,-11.886 -5.958,-7.09 -12.201,-14.172 -7.662,-20.981 3.68,-5.961 11.622,-3.121 18.422,-0.851 4.54,1.421 8.79,2.832 10.78,1.699 0.85,-0.278 1.13,-1.129 1.42,-2.27 0.85,-3.687 0,-7.648 -0.85,-11.629 -1.14,-6.511 -2.56,-13.031 2.54,-19.261 1.42,-2 3.12,-2.848 5.4,-2.848 7.64,0.301 17.85,12.188 21.53,17.02 l 0,-1.993 c 0,-6.797 1.14,-19.269 10.21,-21.257 11.05,-2.84 17.57,8.507 18.99,10.781 3.97,-0.852 7.09,-0.852 9.35,0.847 3.97,2.27 6.81,8.219 9.36,18.993 4.26,18.976 2.83,55.558 2.83,55.839 0.29,0.571 15.88,74.27 -12.47,122.458" /><path
         id="path166"
         style="fill:#000000;fill-opacity:1;fill-rule:nonzero;stroke:none"
         d="m 826.746,1381.02 c -6.359,17.21 -26.859,45.82 -54.84,49.28 -2.258,0.25 -4.449,0.36 -6.558,0.36 -12.879,0 -25.59,-4.38 -36.078,-12.59 -0.43,-0.25 -0.793,-0.61 -1.032,-1.09 -0.39,-0.78 -0.351,-1.73 0.121,-2.48 0.457,-0.75 1.289,-1.21 2.168,-1.21 0.461,0 0.981,0.17 1.391,0.41 0.031,0.01 0.059,0.03 0.09,0.06 l 0.012,0 c 0.027,0.02 0.058,0.04 0.089,0.06 0.008,0.02 0.028,0.03 0.047,0.05 0.153,0.09 0.352,0.24 0.383,0.26 8.039,5.92 18.379,9.46 29.969,10.24 21.058,1.95 46.09,-18.55 56.898,-45.98 12.473,-33.16 3.871,-62.2 -5.527,-80.68 -7.332,-13.78 -14.621,-20.16 -17.012,-22.25 -1.008,-0.89 -1.668,-1.46 -1.711,-2.66 -0.019,-0.35 0.051,-0.73 0.192,-1.05 0.109,-0.29 0.281,-0.54 0.48,-0.77 l 0,0 0.012,0 0,-0.02 0.008,0 0,0 0.011,-0.01 c 0.008,-0.01 0.028,-0.04 0.047,-0.04 0.5,-0.5 1.153,-0.75 1.801,-0.75 0.652,0 1.301,0.25 1.801,0.75 0.082,0.07 0.148,0.14 0.219,0.23 l 0.511,0.43 c 3.18,2.61 12.828,10.52 20.989,26.59 5.113,9.78 20.613,44.62 5.519,82.86" /><path
         id="path168"
         style="fill:#000000;fill-opacity:1;fill-rule:nonzero;stroke:none"
         d="m 586.324,1400.61 0.008,0 -0.019,0.02 c -0.032,0.05 -0.059,0.12 -0.098,0.17 -5.332,8.72 -13.41,15.16 -23.922,19.09 -3.949,1.68 -8.422,2.52 -13.281,2.52 -16.809,0 -39.93,-10.86 -50.93,-34.61 -19.109,-38.21 -9.461,-68.76 -6.051,-77.19 3.864,-9.95 8.973,-18.38 14.371,-23.75 l 0,0 c 0.051,-0.06 0.082,-0.09 0.09,-0.09 0.5,-0.5 1.153,-0.75 1.801,-0.75 l 0.129,0 c 1.41,0 2.551,1.14 2.551,2.55 0,0.93 -0.481,1.73 -1.211,2.18 -1.539,1.75 -8.16,9.88 -12.918,25.21 -4.61,15.08 -5.281,42.02 8.109,68.52 5.801,13.04 24.141,31.13 43.5,31.13 1.418,0 2.84,-0.11 4.371,-0.31 11.821,-1.21 22.231,-7.46 29.348,-17.64 0.781,-1.14 2.223,-1.27 3.383,-0.5 1.09,0.72 1.359,2.29 0.769,3.45" /><path
         id="path170"
         style="fill:#000000;fill-opacity:1;fill-rule:nonzero;stroke:none"
         d="m 631.313,1714.34 c -3.399,-19.28 8.218,-27.21 11.058,-29.2 -2.558,2.55 -12.758,13.04 -9.078,28.63 1.711,9.92 13.609,22.68 17.301,26.08 -3.41,-2.55 -14.18,-10.49 -19.281,-25.51" /><path
         id="path172"
         style="fill:#000000;fill-opacity:1;fill-rule:nonzero;stroke:none"
         d="m 587.379,1715.47 c 3.969,9.07 17.57,20.41 21.539,23.24 -3.68,-1.98 -15.301,-8.5 -23.238,-22.1 -8.793,-17.86 -0.571,-28.91 1.418,-31.75 -1.418,3.11 -7.942,16.44 0.281,30.61" /><path
         id="path174"
         style="fill:#000000;fill-opacity:1;fill-rule:nonzero;stroke:none"
         d="m 727.98,1711.22 c -5.101,15.31 -0.281,30.9 6.797,38.55 6.813,7.94 13.332,9.92 13.043,10.21 0.289,0 -9.07,-4.26 -14.742,-14.46 -5.949,-9.92 -6.801,-24.95 -3.117,-33.73 12.758,-30.05 45.93,-28.63 43.937,-29.2 0,0.28 -5.097,-0.57 -14.738,1.98 -8.5,2.56 -24.383,8.51 -31.18,26.65" /><path
         id="path176"
         style="fill:#000000;fill-opacity:1;fill-rule:nonzero;stroke:none"
         d="m 846.746,1701.86 c -11.058,19.28 -28.058,28.35 -27.777,28.64 0.277,0.57 23.527,-13.89 29.48,-27.79 11.617,-21.53 -0.851,-40.25 0,-39.39 -1.422,-0.57 9.641,14.73 -1.703,38.54" /><path
         id="path178"
         style="fill:#000000;fill-opacity:1;fill-rule:nonzero;stroke:none"
         d="m 882.184,1696.48 c -6.52,17.86 -20.129,27.21 -19.84,26.93 0.558,1.42 18.988,-13.61 21.82,-26.36 7.09,-18.43 1.988,-34.59 2.559,-34.3 -0.571,-0.29 2.55,12.75 -4.539,33.73" /><path
         id="path180"
         style="fill:#000000;fill-opacity:1;fill-rule:nonzero;stroke:none"
         d="m 969.77,1443.34 c -4.821,5.39 -7.938,13.89 -8.219,13.61 2.269,-7.09 5.672,-13.04 10.488,-17.57 19.274,-13.33 33.161,-10.49 32.601,-11.63 1.13,1.7 -17.3,-1.41 -34.87,15.59" /><path
         id="path182"
         style="fill:#000000;fill-opacity:1;fill-rule:nonzero;stroke:none"
         d="m 989.332,1517.05 c 0,-5.39 0.848,-19 12.188,-30.91 15.59,-13.88 29.48,-12.75 32.31,-13.03 -2.83,0.57 -18.42,2.27 -30.89,14.46 -8.217,6.52 -12.76,23.23 -13.608,29.48" /><path
         id="path184"
         style="fill:#000000;fill-opacity:1;fill-rule:nonzero;stroke:none"
         d="m 959,1379.57 c -4.539,11.06 -1.699,32.32 -0.281,39.11 -1.699,-5.38 -6.52,-20.98 -1.699,-39.97 4.25,-13.89 16.441,-19.28 23.238,-19.55 7.371,-0.57 11.051,0 11.051,0 1.992,0.84 -24.371,-3.68 -32.309,20.41" /><path
         id="path186"
         style="fill:#000000;fill-opacity:1;fill-rule:nonzero;stroke:none"
         d="m 996.98,1390.91 c -10.769,-1.42 -24.937,9.64 -29.199,14.46 3.121,-4.82 12.192,-15.59 29.199,-16.73 21.54,0 32.31,8.51 34.58,9.92 -2.55,-1.13 -16.44,-8.5 -34.58,-7.65" /><path
         id="path188"
         style="fill:#000000;fill-opacity:1;fill-rule:nonzero;stroke:none"
         d="m 402.559,1423.51 c 11.339,12.47 10.199,28.63 10.492,28.06 0.566,0.29 0.847,-21.54 -8.793,-29.48 -15.309,-12.75 -30.899,-1.41 -30.047,-2.83 -0.852,1.7 12.758,-7.66 28.348,4.25" /><path
         id="path190"
         style="fill:#000000;fill-opacity:1;fill-rule:nonzero;stroke:none"
         d="m 388.953,1363.41 c 19.563,0.57 31.184,14.17 30.902,13.89 1.129,-0.85 -17.289,-17.58 -30.902,-16.16 -20.687,0.29 -32.316,14.18 -32.598,13.04 0.282,1.14 10.211,-9.92 32.598,-10.77" /><path
         id="path192"
         style="fill:#000000;fill-opacity:1;fill-rule:nonzero;stroke:none"
         d="m 438.844,1625.05 c -18.141,-22.96 -22.68,-39.69 -23.813,-41.95 1.422,2.26 9.641,21.54 25.512,40.53 7.648,11.62 27.781,25.8 34.871,29.2 -6.242,-2.27 -22.961,-10.77 -36.57,-27.78" /><path
         id="path194"
         style="fill:#000000;fill-opacity:1;fill-rule:nonzero;stroke:none"
         d="m 852.699,1837.08 c 0.571,-34.02 -22.109,-53.86 -20.98,-53.57 0.851,-1.14 22.402,32.59 18.711,53.57 -2.828,33.17 -31.75,46.77 -29.758,46.77 -0.293,0 4.527,-2.27 12.187,-8.79 7.082,-6.23 18.422,-18.42 19.84,-37.98" /><path
         id="path196"
         style="fill:#000000;fill-opacity:1;fill-rule:nonzero;stroke:none"
         d="m 462.656,1681.17 c -21.261,-12.47 -41.39,-3.4 -39.691,-1.98 -0.277,0 5.961,-4.26 14.461,-3.41 8.512,0 17.859,4.26 24.101,7.37 20.118,10.21 33.731,22.96 34.008,22.68 -0.277,0.57 -9.347,-11.9 -32.879,-24.66" /><path
         id="path198"
         style="fill:#000000;fill-opacity:1;fill-rule:nonzero;stroke:none"
         d="m 857.543,1267.82 c -0.039,0.01 -0.078,0.01 -0.117,0.02 -0.242,0.11 -0.571,0.28 -1,0.49 -4.684,2.3 -18.934,9.29 -37.113,9.74 -1.168,0.16 -2.387,0.23 -3.661,0.23 -13.527,0 -34.589,-9.54 -36.168,-13.17 -0.41,-0.92 -0.211,-2.2 0.481,-2.94 0.519,-0.56 1.23,-0.77 2,-0.82 0.758,0 1.437,0.33 1.898,0.85 2.422,1.47 15.012,8.55 32.52,8.55 0.82,0 1.652,-0.01 2.472,-0.04 19.059,-0.87 30.778,-5.43 35.188,-7.15 1.871,-0.73 2.41,-0.92 3.25,-0.79 0.211,0.03 0.422,0.08 0.609,0.17 0.161,0.06 0.313,0.14 0.453,0.24 0.008,-0.01 0.008,0.01 0.008,0.01 0.102,0.06 0.2,0.14 0.289,0.23 0.243,0.22 0.442,0.47 0.582,0.75 l 0,0.01 c 0.168,0.34 0.27,0.73 0.27,1.13 0,1.19 -0.809,2.22 -1.961,2.49" /><path
         id="path200"
         style="fill:#000000;fill-opacity:1;fill-rule:nonzero;stroke:none"
         d="m 530.898,1281.27 c -0.039,0 -0.082,0 -0.121,0.02 -0.238,0.1 -0.57,0.28 -1,0.48 -4.679,2.3 -18.929,9.3 -37.109,9.75 -1.172,0.16 -2.391,0.23 -3.66,0.23 -13.531,0 -34.59,-9.55 -36.168,-13.18 -0.41,-0.91 -0.211,-2.19 0.476,-2.93 0.524,-0.57 1.231,-0.78 2,-0.82 0.762,0 1.442,0.32 1.903,0.84 2.418,1.48 15.008,8.55 32.519,8.55 0.821,0 1.649,-0.01 2.469,-0.03 19.063,-0.88 30.781,-5.43 35.191,-7.16 1.872,-0.73 2.411,-0.91 3.25,-0.79 0.211,0.04 0.418,0.09 0.61,0.18 0.16,0.05 0.308,0.13 0.449,0.23 0.012,0 0.012,0.02 0.012,0.02 0.097,0.05 0.199,0.13 0.289,0.23 0.238,0.22 0.441,0.47 0.582,0.75 l 0,0 c 0.168,0.34 0.269,0.74 0.269,1.13 0,1.19 -0.812,2.23 -1.961,2.5" /><path
         id="path202"
         style="fill:#000000;fill-opacity:1;fill-rule:nonzero;stroke:none"
         d="m 624.23,1159.32 c 0.571,0.85 59.239,19.28 59.528,18.98 1.133,-2.26 -18.707,-24.37 -35.438,-28.05 -8.5,-1.7 -24.371,9.64 -24.09,9.07" /><path
         id="path204"
         style="fill:#000000;fill-opacity:1;fill-rule:nonzero;stroke:none"
         d="m 602.402,1151.09 c 13.039,15.59 4.539,33.73 5.102,32.88 1.418,1.42 8.219,-24.38 -3.402,-34.29 -6.239,-7.66 -14.739,-13.32 -21.829,-11.63 -6.8,2.84 -5.953,8.5 -6.23,8.22 0.277,0.28 0,-4.25 5.379,-6.8 5.672,-2.27 14.18,3.12 20.98,11.62" /><path
         id="path206"
         style="fill:#000000;fill-opacity:1;fill-rule:nonzero;stroke:none"
         d="m 568.383,1138.34 c 11.062,11.06 10.769,26.36 11.34,25.8 0,0.56 -0.278,-20.41 -9.918,-27.5 -7.371,-5.67 -17.289,-1.42 -18.992,4.25 -1.989,5.1 -1.137,8.51 -1.137,8.51 0,0 -0.281,-2.84 1.699,-7.09 1.141,-4.54 9.641,-9.36 17.008,-3.97" /><path
         id="path208"
         style="fill:#000000;fill-opacity:1;fill-rule:nonzero;stroke:none"
         d="m 537.488,1139.19 c 16.16,7.37 13.043,27.21 13.891,25.8 0.57,1.13 1.422,-24.38 -13.32,-27.78 -10.207,-4.54 -17.579,5.66 -16.731,11.62 -0.277,5.95 0.852,9.35 0.852,9.35 0,0 -0.559,-2.83 0.289,-8.22 0,-4.82 4.531,-15.02 15.019,-10.77" /><path
         id="path210"
         style="fill:#000000;fill-opacity:1;fill-rule:nonzero;stroke:none"
         d="m 608.637,1091 c -0.278,-2.27 -1.129,-9.64 5.39,-15.59 8.219,-6.8 16.153,-6.52 16.153,-6.52 0,0 -8.5,2.27 -14.742,7.94 -4.25,2.83 -6.52,11.62 -6.801,14.17" /><path
         id="path212"
         style="fill:#000000;fill-opacity:1;fill-rule:nonzero;stroke:none"
         d="m 805.93,1060.67 c -14.461,-4.54 -41.672,-5.95 -49.614,-5.39 6.524,-1.13 26.93,-2.55 50.18,3.41 30.613,7.93 46.774,18.14 48.75,18.99 -2.547,-0.85 -22.957,-10.49 -49.316,-17.01" /><path
         id="path214"
         style="fill:#000000;fill-opacity:1;fill-rule:nonzero;stroke:none"
         d="m 555.629,1054.15 c -11.617,1.7 -31.457,9.07 -35.719,11.34 3.41,-1.99 17.012,-9.64 35.149,-13.32 22.961,-4.82 36.851,-3.69 38.55,-3.69 -1.98,0.28 -18.418,1.42 -37.98,5.67" /><path
         id="path216"
         style="fill:#000000;fill-opacity:1;fill-rule:nonzero;stroke:none"
         d="m 1082.02,740.637 c 2.28,7.937 1.43,15.597 1.43,15.597 0.27,0 2.82,-10.781 0.55,-16.449 -3.1,-9.351 -11.62,-11.621 -11.05,-11.621 -0.57,0.281 5.67,3.121 9.07,12.473" /><path
         id="path218"
         style="fill:#000000;fill-opacity:1;fill-rule:nonzero;stroke:none"
         d="m 882.184,772.668 c 11.91,41.398 0.281,82.77 -18.141,104.027 -18.141,21.832 -37.141,26.09 -36.57,26.09 -0.571,0.27 26.929,-7.09 44.789,-35.43 18.422,-27.5 20.121,-69.75 11.902,-95.257 -10.48,-43.922 -50.449,-67.743 -78.801,-68.024 -28.629,-1.699 -45.64,5.094 -45.64,4.543 0,0.551 13.609,-4.543 40.261,-3.691 25.219,-0.571 69.161,17.281 82.2,67.742" /><path
         id="path220"
         style="fill:#000000;fill-opacity:1;fill-rule:nonzero;stroke:none"
         d="m 862.34,892.578 c -6.52,-0.281 -12.192,0.27 -12.192,0.27 0,0 7.942,1.699 12.192,2 6.801,0.281 12.187,-0.301 12.187,-0.301 0,0 -4.25,-1.399 -12.187,-1.969" /><path
         id="path222"
         style="fill:#000000;fill-opacity:1;fill-rule:nonzero;stroke:none"
         d="m 889.836,856.289 c -7.094,0.281 -13.043,1.43 -13.043,1.43 0,0 8.793,0.851 13.32,0.551 7.09,0 13.039,-1.403 13.039,-1.403 0,0 -4.816,-0.847 -13.316,-0.578" /><path
         id="path224"
         style="fill:#000000;fill-opacity:1;fill-rule:nonzero;stroke:none"
         d="m 901.742,813.484 c -7.371,0.282 -13.32,1.434 -13.32,1.434 0,0 8.781,0.848 13.32,0.848 7.371,-0.301 13.321,-1.43 13.321,-1.43 0,0 -4.821,-1.121 -13.321,-0.852" /><path
         id="path226"
         style="fill:#000000;fill-opacity:1;fill-rule:nonzero;stroke:none"
         d="m 896.07,763.887 c -7.941,0.57 -14.172,1.699 -14.172,1.699 0,0 9.352,0.57 14.45,0.57 7.941,-0.57 14.179,-2 14.179,-2 0,0 -5.109,-0.847 -14.457,-0.269" /><path
         id="path228"
         style="fill:#000000;fill-opacity:1;fill-rule:nonzero;stroke:none"
         d="m 877.078,725.332 c -9.066,1.699 -16.156,3.68 -16.156,3.68 0,0 10.769,-0.559 16.437,-1.41 9.071,-1.7 16.161,-3.969 16.161,-3.969 0,0 -5.95,0 -16.442,1.699" /><path
         id="path230"
         style="fill:#000000;fill-opacity:1;fill-rule:nonzero;stroke:none"
         d="m 838.531,697.266 c -7.09,4.82 -12.191,9.922 -12.191,9.922 0,-0.282 9.07,-5.383 13.32,-8.223 6.809,-5.098 12.481,-8.789 12.762,-8.5 0,-0.289 -5.672,0.851 -13.891,6.801" /><path
         id="path232"
         style="fill:#000000;fill-opacity:1;fill-rule:nonzero;stroke:none"
         d="m 797.711,691.316 c -6.242,5.661 -10.77,11.043 -10.77,11.043 0,0 8.219,-5.941 12.188,-9.339 6.23,-5.672 10.769,-11.34 10.769,-11.34 0,0 -4.82,3.117 -12.187,9.636" /><path
         id="path234"
         style="fill:#000000;fill-opacity:1;fill-rule:nonzero;stroke:none"
         d="m 1061.61,618.469 c -7.36,1.129 -41.94,7.09 -81.348,21.258 -24.672,7.941 -67.75,26.652 -77.391,31.449 7.942,-4.238 38.27,-20.11 76.539,-33.43 45.64,-15.879 75.4,-18.711 82.2,-19.277" /><path
         id="path236"
         style="fill:#000000;fill-opacity:1;fill-rule:nonzero;stroke:none"
         d="m 941.992,657.578 c 9.352,8.801 12.469,19.559 11.91,19.559 1.129,0 -3.691,-15.59 -10.492,-20.981 -9.637,-9.617 -20.129,-13.027 -19.847,-13.316 -0.282,0.289 7.66,4.25 18.429,14.738" /><path
         id="path238"
         style="fill:#000000;fill-opacity:1;fill-rule:nonzero;stroke:none"
         d="m 987.348,642.844 c 7.371,11.617 7.929,23.539 7.929,23.539 0.852,0 -0.558,-17.301 -6.226,-24.672 -7.371,-12.481 -17.863,-18.43 -17.293,-18.43 -0.57,0.282 7.09,5.949 15.59,19.563" /><path
         id="path240"
         style="fill:#000000;fill-opacity:1;fill-rule:nonzero;stroke:none"
         d="m 1039.22,627.82 c 4.82,11.34 5.1,21.832 5.1,21.832 0.57,0 0.57,-15.32 -3.12,-22.679 -4.81,-12.2 -13.88,-18.442 -13.6,-18.442 -0.28,0.301 5.96,5.973 11.62,19.289" /><path
         id="path242"
         style="fill:#000000;fill-opacity:1;fill-rule:nonzero;stroke:none"
         d="m 417.582,735.82 c -33.73,-10.492 -61.801,-19.84 -73.418,-36.011 -10.199,-15.297 -8.223,-26.348 -8.781,-27.5 0.558,1.152 -0.86,15.043 11.898,29.492 14.172,15.027 41.953,22.961 70.871,32.039 28.911,10.769 81.071,10.48 101.762,9.351 -17.012,1.981 -56.98,5.098 -102.332,-7.371" /><path
         id="path244"
         style="fill:#000000;fill-opacity:1;fill-rule:nonzero;stroke:none"
         d="m 769.648,670.625 c -5.101,-14.172 -14.46,-46.781 -9.921,-85.891 6.23,-49.621 28.062,-74.55 35.429,-82.769 -7.367,9.64 -29.199,39.68 -33.449,82.769 -5.379,25.512 3.121,68.602 7.941,85.891" /><path
         id="path246"
         style="fill:#000000;fill-opacity:1;fill-rule:nonzero;stroke:none"
         d="m 846.465,530.02 c 9.07,13.609 11.058,27.5 11.058,27.5 0.852,0 -2.269,-20.129 -9.359,-28.622 -9.641,-14.75 -24.937,-17.007 -24.379,-17.007 -0.558,0.558 11.621,2.539 22.68,18.129" /><path
         id="path248"
         style="fill:#000000;fill-opacity:1;fill-rule:nonzero;stroke:none"
         d="m 769.078,228.699 c 2.551,10.774 11.34,14.461 10.77,14.461 0,0.281 -8.5,-8.789 -8.5,-14.738 -1.141,-9.922 7.648,-15.313 6.8,-15.313 1.129,0.282 -9.07,1.981 -9.07,15.59" /><path
         id="path250"
         style="fill:#000000;fill-opacity:1;fill-rule:nonzero;stroke:none"
         d="m 797.426,225.586 c 1.98,9.922 9.351,14.172 9.07,14.172 0,0 -6.801,-9.07 -6.801,-14.453 -1.418,-8.789 6.231,-13.891 5.672,-13.891 1.129,0 -8.512,1.703 -7.941,14.172" /><path
         id="path252"
         style="fill:#000000;fill-opacity:1;fill-rule:nonzero;stroke:none"
         d="m 832.289,226.719 c 0.57,8.789 5.949,13.601 5.949,13.601 -0.277,0 -4.25,-8.793 -3.679,-13.601 -0.289,-7.66 6.8,-11.059 6.519,-11.34 0.852,0.281 -7.656,0.57 -8.789,11.34" /><path
         id="path254"
         style="fill:#000000;fill-opacity:1;fill-rule:nonzero;stroke:none"
         d="m 523.598,245.715 c -0.848,7.937 -6.52,13.598 -6.239,13.598 0,0.289 8.508,-7.09 8.219,-13.598 -0.558,-10.774 -10.769,-11.91 -9.918,-11.91 -0.851,0.289 7.09,2.258 7.938,11.91" /><path
         id="path256"
         style="fill:#000000;fill-opacity:1;fill-rule:nonzero;stroke:none"
         d="m 488.734,240.605 c 0.282,8.508 -3.687,15.309 -3.398,15.02 0,0.289 6.519,-8.781 5.668,-15.02 -0.848,-10.492 -10.207,-13.039 -9.359,-13.039 -0.848,0.289 6.242,3.118 7.089,13.039" /><path
         id="path258"
         style="fill:#000000;fill-opacity:1;fill-rule:nonzero;stroke:none"
         d="m 459.535,243.438 c 0.57,6.242 -1.699,11.91 -1.418,11.91 0,0 4.539,-7.371 3.399,-12.18 -1.981,-7.941 -9.629,-8.23 -8.782,-8.52 -0.57,0.29 4.821,1.989 6.801,8.79" /><path
         id="path260"
         style="fill:#000000;fill-opacity:1;fill-rule:nonzero;stroke:none"
         d="m 982.813,1333.93 c -11.059,-11.34 -15.02,-24.66 -15.02,-24.38 -0.57,0 5.102,18.99 13.602,25.8 12.187,12.47 27.775,8.5 26.925,8.78 0.56,-0.56 -11.898,2.56 -25.507,-10.2" /><path
         id="path262"
         style="fill:#000000;fill-opacity:1;fill-rule:nonzero;stroke:none"
         d="m 991.887,1218.28 c 1.968,11.34 -1.434,20.68 -1.703,20.41 0.851,0.57 5.66,-13.05 3.671,-20.69 -1.402,-11.91 -6.789,-20.41 -6.511,-20.41 -0.559,0 2.562,7.37 4.543,20.69" /><path
         id="path264"
         style="fill:#000000;fill-opacity:1;fill-rule:nonzero;stroke:none"
         d="m 801.68,587.566 c -4.25,5.391 -13.039,8.223 -22.961,9.641 0.281,-0.848 0.57,-1.699 0.851,-2.269 8.789,-1.418 16.719,-3.969 20.41,-8.801 4.25,-5.09 10.489,-15.02 6.239,-23.508 -3.969,-8.231 -19.559,-17.582 -70.02,-15.883 -0.57,0 -1.129,-0.566 -1.129,-1.129 0,-0.57 0.559,-1.148 1.129,-1.148 41.391,-1.403 65.762,4.551 72,17.301 4.821,9.636 -1.98,20.41 -6.519,25.796" /><path
         id="path266"
         style="fill:#000000;fill-opacity:1;fill-rule:nonzero;stroke:none"
         d="m 735.063,596.926 c -0.571,-0.281 -1.129,-0.852 -0.848,-1.434 0,-0.547 0.566,-0.847 1.129,-0.847 0.289,0 5.39,0.578 12.48,1.148 l 0,2.262 c -7.09,-0.563 -12.191,-1.129 -12.761,-1.129" /><path
         id="path268"
         style="fill:#e22228;fill-opacity:1;fill-rule:nonzero;stroke:none"
         d="m 738.18,602.59 c 0,0 17.57,-54.992 -6.801,-63.781 -24.66,-8.789 -51.031,3.98 -50.18,28.347 1.141,24.66 19.559,35.434 56.981,35.434" /><path
         id="path270"
         style="fill:#d02327;fill-opacity:1;fill-rule:nonzero;stroke:none"
         d="m 738.18,602.59 -5.102,0 c -3.398,-23.531 9.07,-53.012 -26.359,-48.184 -11.34,0 -19.852,7.942 -24.949,18.422 -0.282,-1.699 -0.571,-3.691 -0.571,-5.672 -0.851,-24.367 25.52,-37.136 50.18,-28.347 24.371,8.789 6.801,63.781 6.801,63.781" /><path
         id="path272"
         style="fill:#000000;fill-opacity:1;fill-rule:nonzero;stroke:none"
         d="m 693.395,543.633 c -7.372,5.39 -11.34,13.32 -11.34,22.379 l 0,1.152 c 0.847,23.527 18.429,34.578 55.558,34.578 0.852,-2.551 5.95,-19.84 5.95,-35.73 0,-11.891 -2.829,-22.957 -12.469,-26.629 -13.321,-4.82 -27.781,-3.121 -37.699,4.25 m -12.762,23.531 c -0.559,-9.93 3.691,-18.992 11.91,-24.961 10.199,-7.359 25.23,-9.058 39.121,-3.961 24.66,8.789 7.93,62.36 7.078,64.629 0,0.293 -0.277,0.563 -0.558,0.563 -38.27,0 -56.7,-11.621 -57.551,-36.27" /><path
         id="path274"
         style="fill:#e22228;fill-opacity:1;fill-rule:nonzero;stroke:none"
         d="m 1186.79,1852.59 33.95,-11.86 1.08,3.05 -35.03,8.81 z m -50,14.48 -6.34,-38.27 2.7,9.15 c 2.33,7.88 7.79,14.47 15.1,18.22 3.62,1.85 7.53,2.93 11.5,3.23 -0.58,0.15 -1.14,0.32 -1.71,0.51 l -21.25,7.16 z m -11.48,-69.29 -1.81,-10.91 c 1.43,1.25 2.99,2.37 4.66,3.34 -1.3,2.4 -2.26,4.95 -2.85,7.57 m -7,-151.47 c -3.48,0 -6.97,0.61 -10.31,1.83 l -41.1,15.02 c -13.58,4.96 -21.69,18.88 -19.33,33.14 l 35.71,215.43 c 1.44,8.69 6.63,16.31 14.17,20.84 7.56,4.53 16.71,5.52 25.06,2.72 l 53.6,-18.05 92.4,-23.24 c 8.2,-2.06 15.16,-7.49 19.15,-14.95 3.99,-7.46 4.66,-16.25 1.84,-24.23 l -22.11,-62.36 c -4.67,-13.17 -17.53,-21.02 -30.89,-19.9 l -10.56,-41.28 c -2.23,-8.7 -8.23,-15.96 -16.37,-19.77 -8.11,-3.81 -17.53,-3.78 -25.66,0.08 l -21.47,10.22 -15.22,-53.65 c -2.29,-8.04 -7.8,-14.76 -15.24,-18.56 -4.28,-2.19 -8.97,-3.29 -13.67,-3.29" /><path
         id="path276"
         style="fill:#e22228;fill-opacity:1;fill-rule:evenodd;stroke:none"
         d="m 1239.06,1802.5 22.11,62.36 -93.54,23.53 -54.71,18.41 -35.72,-215.42 41.1,-15.02 24.95,87.87 53.57,-25.52 12.76,49.9 -54.99,15.87 7.37,24.95" /><path
         id="path278"
         style="fill:#e22228;fill-opacity:1;fill-rule:nonzero;stroke:none"
         d="m 1259.2,1744.32 c -12.99,0 -24.71,-3.77 -35.82,-11.53 -12.01,-8.33 -19.64,-18.92 -23.39,-32.43 -0.11,-0.38 -0.21,-0.75 -0.33,-1.11 -1.16,-3.63 -1.96,-7.93 -2.38,-12.74 -0.27,-4.12 -0.13,-8.15 0.42,-12.08 0.04,1.98 0.31,3.98 0.78,5.96 4.12,17.55 14.48,31.73 29.95,41 0.33,0.21 0.66,0.4 0.98,0.57 15.94,8.75 33.49,10.68 50.41,5.55 20.83,-5.96 36.08,-20.51 42.74,-40.99 -0.53,11.44 -4.22,21.82 -11.2,31.51 -8.65,11.98 -19.66,19.79 -33.65,23.88 -5.09,1.3 -9.42,2.07 -13.2,2.22 -2.28,0.14 -3.81,0.19 -5.31,0.19 m 0.97,-182.66 c -11.57,0 -23.29,1.7 -34.87,5.05 -26.52,7.74 -48.51,23.27 -65.41,46.17 -16.89,23.42 -24.4,49.64 -22.53,78.21 0.83,9.64 2.46,18.16 4.88,25.87 7.6,26.98 23.36,48.9 46.82,65.16 23.49,16.4 49.89,23.86 78.61,22.02 9.82,-0.39 19.12,-2.51 26.03,-4.32 27.41,-7.98 50.08,-24.03 66.39,-46.64 16.71,-23.16 24.22,-49.38 22.34,-77.95 -0.77,-11.27 -3.32,-23.05 -7.79,-36.11 -4.17,-12.14 -15.6,-20.3 -28.43,-20.3 l -0.13,0 -33.76,0.16 0.91,-0.95 c 7.01,-7.37 9.86,-17.77 7.51,-27.67 -2.33,-9.9 -9.53,-17.95 -19.11,-21.38 -13.57,-4.86 -27.52,-7.32 -41.46,-7.32" /><path
         id="path280"
         style="fill:#e22228;fill-opacity:1;fill-rule:evenodd;stroke:none"
         d="m 1227.73,1673.52 c 2.27,9.64 7.65,17.01 16.16,22.11 8.77,4.82 17.86,5.95 27.2,3.12 11.91,-3.4 19.84,-11.06 23.25,-22.68 l -66.61,-2.55 z m 124.72,3.68 c 1.41,21.55 -4.25,41.11 -16.72,58.4 -12.48,17.29 -29.21,29.2 -49.62,35.15 -6.52,1.7 -13.31,3.12 -20.41,3.4 -21.81,1.42 -41.65,-4.25 -59.52,-16.72 -17.57,-12.19 -29.48,-28.63 -35.14,-49.04 -1.99,-6.24 -3.13,-12.76 -3.7,-19.28 -1.41,-21.54 4.25,-41.1 16.73,-58.39 12.75,-17.29 29.2,-29.2 49.61,-35.15 19.55,-5.67 38.84,-5.11 57.82,1.7 l -24.37,25.51 c -5.95,-1.7 -12.47,-1.7 -18.72,0 -13.59,3.97 -21.53,13.04 -24.09,26.65 l 121.89,-0.57 c 3.68,10.77 5.68,20.12 6.24,28.34" /><path
         id="path282"
         style="fill:#e22228;fill-opacity:1;fill-rule:nonzero;stroke:none"
         d="m 1417.4,1705.41 c -13.63,0 -25.48,-3.71 -36.23,-11.32 -12.35,-8.77 -19.97,-19.25 -23.98,-32.95 -1.39,-4.62 -2.05,-8.32 -2.22,-12.39 -0.3,-4.57 -0.19,-8.87 0.33,-12.98 0.07,1.93 0.33,3.87 0.78,5.8 4.21,17.91 14.79,32.13 30.58,41.09 14.73,8.84 33.03,11.29 50.46,6.02 20.31,-5.66 35.57,-19.98 42.68,-40.3 -0.64,11.57 -4.26,21.35 -11.07,30.75 -8.58,11.87 -19.55,19.58 -33.62,23.62 -4.49,1.38 -9.08,2.18 -14.48,2.61 -0.52,0.03 -1.88,0.05 -3.23,0.05 m 0.17,-182.59 c -11.6,0 -23.3,1.72 -34.77,5.09 -27.23,7.93 -49.35,23.63 -65.62,46.59 -16.56,22.41 -24.14,48.64 -22.21,77.5 0.34,8.38 1.87,17.23 4.65,26.34 7.66,26.27 23.43,48.18 46.77,64.75 22.88,16.23 49.2,23.79 78.19,22.23 10.62,-0.84 19.38,-2.43 27.61,-4.94 26.66,-7.68 48.75,-23.2 65.22,-46.04 16.7,-23 24.23,-49.25 22.34,-77.93 -0.3,-9.25 -2.56,-20.46 -7.28,-35.43 -3.95,-12.5 -15.55,-21 -28.65,-21 l -0.14,0 -33.74,0.16 0.89,-0.94 c 7.05,-7.38 9.87,-17.81 7.51,-27.75 -2.39,-9.9 -9.61,-17.95 -19.23,-21.34 -13.68,-4.84 -27.67,-7.29 -41.54,-7.29" /><path
         id="path284"
         style="fill:#e22228;fill-opacity:1;fill-rule:evenodd;stroke:none"
         d="m 1385.33,1634.69 c 2.27,9.64 7.65,17.01 16.16,21.83 8.5,5.1 17.57,6.23 26.93,3.4 12.19,-3.4 19.84,-11.06 23.52,-22.96 l -66.61,-2.27 z m 124.44,3.69 c 1.42,21.54 -3.97,40.81 -16.73,58.39 -12.48,17.29 -28.91,28.91 -49.6,34.86 -6.52,1.99 -13.32,3.12 -20.41,3.69 -21.83,1.13 -41.67,-4.25 -59.24,-16.72 -17.58,-12.48 -29.49,-28.63 -35.44,-49.04 -1.98,-6.52 -3.11,-12.76 -3.4,-19.56 -1.42,-21.26 3.97,-40.82 16.73,-58.11 12.47,-17.58 29.19,-29.2 49.6,-35.15 19.27,-5.67 38.55,-5.11 57.83,1.7 l -24.39,25.51 c -6.23,-1.98 -12.46,-1.7 -18.98,0 -13.61,3.97 -21.54,12.76 -24.09,26.65 l 122.17,-0.57 c 3.39,10.77 5.67,20.12 5.95,28.35" /><path
         id="path286"
         style="fill:#e22228;fill-opacity:1;fill-rule:nonzero;stroke:none"
         d="m 1648.72,1737.69 -10.53,-54.38 18.98,51.18 -8.45,3.2 z m -95.49,-92.72 c 5.39,0 10.93,-0.78 16.45,-2.3 19.36,-5.61 33.45,-18.98 39.66,-37.21 l 12.95,34.96 c -2.77,-2.15 -5.93,-3.83 -9.39,-4.91 -10.5,-3.32 -22.02,-0.6 -29.93,7.09 -6.16,5.97 -12.98,9.98 -20.87,12.25 -8.68,2.54 -16.94,2.75 -25.76,0.72 -8.51,-2.04 -16.01,-6.12 -22.67,-12.4 -6.49,-6.15 -10.88,-13.21 -13.37,-21.59 -1.17,-4.15 -1.76,-8.32 -1.76,-12.63 7.17,17.55 21.31,29.59 40.44,34.18 4.63,1.23 9.43,1.84 14.25,1.84 m 56.34,-155.42 c -2.19,0 -4.39,0.23 -6.59,0.73 l -32.88,7.37 c -3.67,0.83 -7.05,2.3 -10.02,4.26 -14.59,-1.86 -29.24,-0.64 -43.71,3.59 -18.12,5.4 -34.02,14.9 -47.41,28.29 -13.83,14.64 -22.88,31.05 -27.46,49.4 -4.35,18.97 -3.94,37.33 1.09,55.12 5.62,18.92 15.61,35.11 29.81,48.54 14.32,13.52 31.21,22.67 50.22,27.23 19.33,4.44 37.97,3.82 56.23,-1.51 1.2,-0.35 2.4,-0.71 3.58,-1.1 l 14.06,72.64 c 1.69,8.7 7.12,16.21 14.86,20.53 7.74,4.32 16.99,4.99 25.27,1.87 l 69.73,-26.36 c 15.45,-5.84 23.29,-23.07 17.55,-38.55 l -86.18,-232.45 c -4.44,-11.98 -15.83,-19.6 -28.15,-19.6" /><path
         id="path288"
         style="fill:#e22228;fill-opacity:1;fill-rule:evenodd;stroke:none"
         d="m 1559.94,1557.87 c -5.39,-1.14 -10.49,-1.14 -15.3,0.27 -10.77,3.13 -17.3,10.22 -20.13,20.99 -1.13,5.1 -0.85,9.92 0.57,14.74 3.11,10.77 10.2,17.57 21.26,20.13 5.1,1.41 10.2,1.13 15.3,-0.29 10.77,-3.12 17.59,-10.2 20.14,-20.98 1.12,-4.81 0.85,-9.63 -0.58,-14.73 -3.12,-10.79 -10.2,-17.58 -21.26,-20.13 m 66.05,220.54 -22.1,-114.24 c -9.64,9.35 -20.71,15.87 -33.45,19.56 -13.62,3.97 -27.22,4.25 -40.82,1.13 -14.17,-3.4 -26.37,-10.2 -36.57,-19.84 -10.49,-9.92 -17.57,-21.54 -21.55,-34.88 -3.69,-13.03 -3.96,-26.07 -0.85,-39.68 3.4,-13.6 9.92,-25.23 19.56,-35.42 9.93,-9.93 21.26,-16.74 34.58,-20.7 18.43,-5.38 36.28,-3.97 54.14,3.69 l -2.27,-11.07 32.89,-7.36 86.17,232.44" /><path
         id="path290"
         style="fill:#e22228;fill-opacity:1;fill-rule:nonzero;stroke:none"
         d="m 1425.86,1451.57 c 1.23,0 2.48,-0.08 3.74,-0.23 3.53,-0.44 6.6,-0.93 10.13,-1.82 0.35,-0.09 0.71,-0.19 1.05,-0.29 12.1,-3.52 22.26,-10.58 29.71,-20.56 -0.72,1.77 -1.6,3.56 -2.66,5.39 -5.9,10.59 -14.03,16.97 -25.78,20.43 -4.36,1.25 -9.14,1.72 -14.19,1.4 -12.01,-0.83 -23.56,5.78 -28.93,16.68 -6.71,13.6 -16.81,22.01 -31.78,26.44 -3.1,0.93 -6.65,1.54 -11.59,2.01 -8.82,0.84 -16.82,5.53 -21.86,12.81 -1.09,1.57 -2.01,3.22 -2.77,4.94 l -7.01,1.97 -4.24,-37.53 c 4.04,3.35 8.97,5.65 14.37,6.52 3.93,0.63 7.85,0.48 11.6,-0.4 6.12,0.14 12,-0.64 17.96,-2.29 15.71,-4.65 27.89,-14.43 35.74,-28.42 2.76,-4.94 4.77,-10 6.02,-15.13 5.49,5.12 12.78,8.08 20.49,8.08 m 41.68,-144.29 c -2.79,0 -5.63,0.39 -8.39,1.2 l -31.18,9.07 c -7.88,2.29 -14.47,7.7 -18.26,14.97 -1.01,1.94 -1.8,3.97 -2.36,6.04 -6.53,-3.12 -14.12,-3.84 -21.38,-1.72 l -34.88,10.2 c -7.81,2.29 -14.35,7.64 -18.14,14.83 -5.72,-2.91 -12.44,-4.04 -19.15,-2.78 l -39.69,7.38 c -15.5,2.88 -26.13,17.24 -24.36,32.91 l 18.42,163.27 c 0.99,8.77 5.78,16.66 13.1,21.58 7.32,4.92 16.44,6.36 24.93,3.97 l 63.2,-17.86 c 8.22,-2.32 14.66,-7.83 18.37,-14.81 23.3,-7.63 41.91,-21.1 55.43,-40.18 5.29,-0.64 10.49,-1.69 15.59,-3.15 27.28,-8.02 47.85,-24.34 61.35,-48.55 13.96,-24.33 16.63,-51.15 7.52,-77.26 -7.91,-21.52 -19.44,-43 -35.38,-66.12 -5.72,-8.28 -15.04,-12.99 -24.74,-12.99" /><path
         id="path292"
         style="fill:#e22228;fill-opacity:1;fill-rule:evenodd;stroke:none"
         d="m 1450.53,1483.32 c -7.94,2.27 -16.16,3.11 -24.66,2.54 -10.49,21.27 -27.21,35.16 -50.17,41.96 -5.67,1.7 -11.34,2.56 -17.3,3.11 l 2.84,10.5 -63.21,17.86 -18.43,-163.29 39.69,-7.36 19.55,71.43 1.14,-1.69 c 5.1,1.41 10.49,1.12 15.59,-0.29 7.66,-2.27 13.61,-7.09 17.57,-14.18 3.97,-7.09 4.82,-14.16 2.27,-21.53 l -15.87,-46.49 34.86,-10.21 c 12.48,17.57 22.96,36.28 31.47,55.84 2.27,-0.29 4.25,-0.57 6.53,-1.13 6.79,-1.98 12.18,-6.25 15.86,-12.48 3.69,-6.52 4.54,-13.03 2.27,-19.84 l -14.17,-41.66 31.18,-9.07 c 13.89,20.11 24.66,39.68 31.75,58.96 6.23,17.84 4.53,35.43 -5.39,52.72 -9.64,17.28 -24.09,28.62 -43.37,34.3" /><path
         id="path294"
         style="fill:#e22228;fill-opacity:1;fill-rule:nonzero;stroke:none"
         d="m 1559.89,1424.8 c -11.01,0 -20.33,-2.97 -29.34,-9.36 -7.81,-5.4 -13.36,-11.8 -16.95,-19.51 4.8,6.3 10.89,11.55 18.16,15.57 13.34,7.94 30.1,10.32 46.39,5.81 8.75,-2.52 16.41,-6.53 22.79,-11.83 -6.89,8.63 -15.3,14.26 -25.6,17.16 -4.33,1.24 -7.9,1.87 -11.38,2.03 -1.63,0.1 -2.86,0.13 -4.07,0.13 m 0.81,-160.95 c -10.62,0 -21.37,1.58 -31.94,4.7 -24.08,6.77 -44.24,20.98 -59.5,42.12 -15.43,21.36 -22.28,45.29 -20.35,71.14 0.35,7.18 1.75,15.19 4.3,23.68 6.94,24.31 21.42,44.34 42.88,59.17 20.72,14.72 44.66,21.6 71,20.02 7.76,-0.35 15.95,-1.74 24.65,-4.23 24.33,-6.84 44.48,-21.05 59.74,-42.18 15.13,-20.95 22.17,-45.36 20.38,-70.63 -0.43,-9.44 -2.53,-19.57 -6.78,-32.74 -4.02,-12.41 -15.57,-20.81 -28.6,-20.81 l -0.15,0 -22.26,0.11 c 3.97,-6.63 5.27,-14.62 3.47,-22.32 -2.35,-9.93 -9.56,-17.99 -19.18,-21.41 -12.36,-4.4 -25.02,-6.62 -37.66,-6.62" /><path
         id="path296"
         style="fill:#e22228;fill-opacity:1;fill-rule:evenodd;stroke:none"
         d="m 1532.17,1365.96 c 1.98,8.5 6.51,15.02 14.17,19.28 7.66,4.53 15.59,5.38 23.81,3.11 10.78,-3.11 17.58,-9.92 20.7,-20.12 l -58.68,-2.27 z m 109.7,3.4 c 1.41,18.71 -3.68,36 -14.74,51.31 -11.05,15.31 -25.52,25.79 -43.65,30.9 -5.96,1.7 -11.92,2.83 -18.15,3.11 -19.27,1.14 -36.56,-3.68 -52.15,-14.74 -15.59,-10.77 -26.08,-25.22 -31.19,-43.08 -1.69,-5.67 -2.83,-11.34 -3.11,-17.29 -1.43,-19 3.68,-36 14.74,-51.31 11.05,-15.31 25.5,-25.8 43.65,-30.9 17.29,-5.1 34.29,-4.53 51.03,1.42 l -21.55,22.39 c -5.38,-1.7 -11.05,-1.41 -16.45,0 -12.18,3.69 -19.26,11.34 -21.25,23.53 l 107.44,-0.57 c 3.11,9.64 5.09,17.86 5.38,25.23" /><path
         id="path298"
         style="fill:#000000;fill-opacity:1;fill-rule:nonzero;stroke:none"
         d="m 1082.77,1694.63 32.23,-11.78 23.47,82.73 c 0.4,1.41 1.4,2.57 2.74,3.17 1.33,0.61 2.86,0.58 4.17,-0.04 l 48.13,-22.92 10.07,39.39 -50.37,14.54 c -1.27,0.36 -2.33,1.22 -2.97,2.38 -0.63,1.16 -0.78,2.52 -0.41,3.79 l 7.37,24.95 c 0.37,1.3 1.29,2.38 2.49,3 1.2,0.62 2.62,0.73 3.9,0.27 l 72.44,-25.3 18.64,52.57 -88.26,22.2 -49.55,16.67 -34.09,-205.62 z m 35.54,-23.23 c -0.58,0 -1.16,0.1 -1.7,0.3 l -41.11,15.02 c -2.24,0.83 -3.58,3.12 -3.19,5.47 l 35.71,215.43 c 0.24,1.44 1.1,2.7 2.34,3.45 1.26,0.74 2.76,0.9 4.14,0.44 l 54.71,-18.42 93.17,-23.42 c 1.36,-0.34 2.5,-1.24 3.16,-2.47 0.66,-1.23 0.77,-2.68 0.31,-4 l -22.11,-62.35 c -0.92,-2.59 -3.74,-3.93 -6.32,-3.03 l -72.18,25.21 -4.48,-15.16 50.19,-14.49 c 2.58,-0.75 4.1,-3.4 3.43,-6 l -12.75,-49.89 c -0.36,-1.43 -1.36,-2.63 -2.71,-3.26 -1.35,-0.64 -2.89,-0.63 -4.23,0.01 l -48.28,22.99 -23.33,-82.22 c -0.38,-1.33 -1.29,-2.45 -2.52,-3.07 -0.7,-0.36 -1.48,-0.54 -2.25,-0.54" /><path
         id="path300"
         style="fill:#aec923;fill-opacity:1;fill-rule:evenodd;stroke:none"
         d="m 1239.06,1802.5 22.11,62.36 -93.54,23.53 -54.71,18.41 -35.72,-215.42 41.1,-15.02 24.95,87.87 53.57,-25.52 12.76,49.9 -54.99,15.87 7.37,24.95" /><path
         id="path302"
         style="fill:#000000;fill-opacity:1;fill-rule:nonzero;stroke:none"
         d="m 1261.05,1695.32 c -4.91,0 -9.89,-1.36 -14.78,-4.04 -5.25,-3.15 -9.07,-7.29 -11.54,-12.53 l 52.36,2.01 c -3.54,6.5 -9.36,10.93 -17.36,13.22 -2.96,0.9 -5.85,1.34 -8.68,1.34 m -33.32,-26.76 c -1.46,0 -2.89,0.66 -3.84,1.8 -0.98,1.2 -1.35,2.79 -0.98,4.29 2.55,10.95 8.77,19.43 18.43,25.23 10.27,5.65 20.71,6.79 31.18,3.61 13.52,-3.85 22.73,-12.86 26.59,-26.03 0.41,-1.46 0.14,-3.05 -0.75,-4.29 -0.88,-1.24 -2.31,-2 -3.84,-2.05 l -66.61,-2.56 -0.18,0 m 31.47,100.84 c -18.04,0 -34.93,-5.4 -50.18,-16.04 -16.73,-11.6 -27.89,-27.18 -33.2,-46.3 -1.78,-5.58 -2.96,-11.71 -3.53,-18.38 -1.33,-20.12 3.98,-38.68 15.8,-55.06 12.21,-16.55 28.02,-27.76 46.98,-33.29 15.91,-4.6 31.73,-4.86 47.32,-0.71 l -16.87,17.67 c -5.97,-1.18 -12.36,-0.95 -18.41,0.71 -15.22,4.43 -24.75,14.98 -27.66,30.51 -0.27,1.46 0.12,2.96 1.07,4.1 0.93,1.12 2.34,1.78 3.8,1.78 l 0.02,0 118.29,-0.55 c 2.76,8.67 4.39,16.63 4.87,23.71 1.32,20.21 -3.98,38.77 -15.8,55.15 -11.88,16.46 -27.68,27.66 -46.97,33.29 -5.07,1.32 -11.98,2.91 -19.21,3.2 -2.2,0.14 -4.25,0.21 -6.32,0.21 m 0.96,-182.66 c -9.2,0 -18.57,1.37 -27.86,4.06 -21.1,6.16 -38.66,18.59 -52.23,36.97 -13.23,18.35 -19.16,39.08 -17.68,61.67 0.66,7.51 1.97,14.35 3.91,20.46 5.9,21.23 18.38,38.65 37.06,51.6 18.82,13.15 39.93,19.04 62.68,17.6 8.05,-0.32 15.64,-2.07 21.34,-3.55 21.6,-6.3 39.17,-18.75 52.37,-37.05 13.2,-18.3 19.14,-39.03 17.66,-61.62 -0.64,-8.99 -2.75,-18.67 -6.5,-29.63 -0.7,-2 -2.57,-3.35 -4.7,-3.35 l -0.01,0 -115.38,0.54 c 3.14,-8.55 9.41,-14.11 18.98,-16.9 5.18,-1.4 10.9,-1.43 15.97,0.01 1.75,0.5 3.68,-0.01 4.94,-1.34 l 24.38,-25.51 c 1.16,-1.22 1.62,-2.94 1.23,-4.57 -0.37,-1.64 -1.57,-2.97 -3.14,-3.53 -10.86,-3.89 -21.95,-5.86 -33.02,-5.86" /><path
         id="path304"
         style="fill:#aec923;fill-opacity:1;fill-rule:evenodd;stroke:none"
         d="m 1227.73,1673.52 c 2.27,9.64 7.65,17.01 16.16,22.11 8.77,4.82 17.86,5.95 27.2,3.12 11.91,-3.4 19.84,-11.06 23.25,-22.68 l -66.61,-2.55 z m 124.72,3.68 c 1.41,21.55 -4.25,41.11 -16.72,58.4 -12.48,17.29 -29.21,29.2 -49.62,35.15 -6.52,1.7 -13.31,3.12 -20.41,3.4 -21.81,1.42 -41.65,-4.25 -59.52,-16.72 -17.57,-12.19 -29.48,-28.63 -35.14,-49.04 -1.99,-6.24 -3.13,-12.76 -3.7,-19.28 -1.41,-21.54 4.25,-41.1 16.73,-58.39 12.75,-17.29 29.2,-29.2 49.61,-35.15 19.55,-5.67 38.84,-5.11 57.82,1.7 l -24.37,25.51 c -5.95,-1.7 -12.47,-1.7 -18.72,0 -13.59,3.97 -21.53,13.04 -24.09,26.65 l 121.89,-0.57 c 3.68,10.77 5.68,20.12 6.24,28.34" /><path
         id="path306"
         style="fill:#000000;fill-opacity:1;fill-rule:nonzero;stroke:none"
         d="m 1418.52,1656.48 c -4.95,0 -9.81,-1.43 -14.48,-4.21 -5.4,-3.07 -9.24,-7.13 -11.7,-12.38 l 52.32,1.79 c -3.63,6.82 -9.34,11.16 -17.59,13.46 -2.94,0.9 -5.79,1.34 -8.55,1.34 m -33.18,-26.75 c -1.49,0 -2.89,0.66 -3.84,1.82 -0.98,1.18 -1.36,2.77 -0.99,4.27 2.61,11.09 8.84,19.52 18.53,25.02 9.49,5.7 20.15,7.07 30.82,3.82 13.55,-3.78 22.62,-12.61 26.82,-26.25 0.46,-1.46 0.21,-3.07 -0.7,-4.34 -0.89,-1.25 -2.32,-2.02 -3.87,-2.07 l -66.61,-2.27 c -0.06,0 -0.11,0 -0.16,0 m 32.07,100.77 c -18.75,0 -35.82,-5.36 -50.75,-15.95 -16.98,-12.05 -27.95,-27.23 -33.53,-46.39 -1.94,-6.34 -2.97,-12.16 -3.22,-18.36 -1.36,-20.5 3.94,-38.94 15.77,-54.98 11.67,-16.43 27.46,-27.62 46.98,-33.32 15.73,-4.61 31.52,-4.86 47.32,-0.7 l -16.8,17.59 c -5.86,-1.26 -11.89,-1.03 -18.68,0.75 -15.55,4.54 -24.84,14.81 -27.73,30.56 -0.26,1.44 0.12,2.94 1.08,4.07 0.94,1.14 2.34,1.78 3.79,1.78 l 0.02,0 118.5,-0.55 c 3,10 4.45,17.36 4.66,23.55 1.37,20.75 -3.8,38.79 -15.78,55.31 -11.95,16.55 -27.31,27.35 -46.97,33 -5.87,1.8 -12.2,2.94 -19.43,3.52 -1.68,0.08 -3.46,0.12 -5.23,0.12 m 0.16,-182.59 c -9.2,0 -18.52,1.36 -27.68,4.07 -21.73,6.34 -39.32,18.79 -52.25,37.04 -13.2,17.89 -19.16,38.53 -17.64,61.3 0.3,6.95 1.44,13.57 3.62,20.68 6.13,21.04 18.68,38.43 37.29,51.64 18.21,12.91 39.22,18.84 62.38,17.63 8.09,-0.64 15.1,-1.91 21.6,-3.89 21.5,-6.18 39.07,-18.54 52.18,-36.72 13.39,-18.45 19.16,-38.61 17.66,-61.61 -0.27,-7.66 -2.18,-16.82 -6.18,-29.51 -0.66,-2.08 -2.57,-3.47 -4.73,-3.47 l -0.02,0 -115.71,0.54 c 3.11,-8.61 9.28,-14.06 19.04,-16.9 5.96,-1.53 11.17,-1.6 16.1,-0.03 1.84,0.57 3.8,0.07 5.09,-1.3 l 24.38,-25.52 c 1.16,-1.22 1.62,-2.93 1.24,-4.57 -0.39,-1.65 -1.58,-2.97 -3.17,-3.52 -11,-3.89 -22.17,-5.86 -33.2,-5.86" /><path
         id="path308"
         style="fill:#aec923;fill-opacity:1;fill-rule:evenodd;stroke:none"
         d="m 1385.33,1634.69 c 2.27,9.64 7.65,17.01 16.16,21.83 8.5,5.1 17.57,6.23 26.93,3.4 12.19,-3.4 19.84,-11.06 23.52,-22.96 l -66.61,-2.27 z m 124.44,3.69 c 1.42,21.54 -3.97,40.81 -16.73,58.39 -12.48,17.29 -28.91,28.91 -49.6,34.86 -6.52,1.99 -13.32,3.12 -20.41,3.69 -21.83,1.13 -41.67,-4.25 -59.24,-16.72 -17.58,-12.48 -29.49,-28.63 -35.44,-49.04 -1.98,-6.52 -3.11,-12.76 -3.4,-19.56 -1.42,-21.26 3.97,-40.82 16.73,-58.11 12.47,-17.58 29.19,-29.2 49.6,-35.15 19.27,-5.67 38.55,-5.11 57.83,1.7 l -24.39,25.51 c -6.23,-1.98 -12.46,-1.7 -18.98,0 -13.61,3.97 -21.54,12.76 -24.09,26.65 l 122.17,-0.57 c 3.39,10.77 5.67,20.12 5.95,28.35" /><path
         id="path310"
         style="fill:#000000;fill-opacity:1;fill-rule:nonzero;stroke:none"
         d="m 1553.23,1609.96 c -1.89,0 -3.77,-0.25 -5.57,-0.75 -9.43,-2.17 -15.19,-7.62 -17.82,-16.73 -1.23,-4.19 -1.4,-8.2 -0.49,-12.28 2.41,-9.15 7.72,-14.69 16.66,-17.29 3.89,-1.12 8.18,-1.18 12.9,-0.2 9.12,2.11 14.9,7.58 17.52,16.66 1.25,4.49 1.42,8.38 0.51,12.23 -2.15,9.04 -7.6,14.72 -16.67,17.35 -2.46,0.68 -4.77,1.01 -7.04,1.01 m -0.73,-57.87 c -3.22,0 -6.33,0.44 -9.26,1.3 -12.29,3.56 -20.21,11.79 -23.54,24.48 -1.31,5.93 -1.1,11.57 0.62,17.4 3.6,12.48 12.22,20.64 24.9,23.55 5.2,1.46 11.44,1.43 17.76,-0.32 12.51,-3.63 20.66,-12.14 23.61,-24.62 1.3,-5.47 1.09,-11.1 -0.62,-17.22 -3.62,-12.54 -12.23,-20.7 -24.92,-23.62 -3,-0.65 -5.85,-0.95 -8.55,-0.95 m 30.01,-21.34 23.89,-5.36 82.95,223.75 -59.61,22.54 -20.98,-108.45 c -0.35,-1.79 -1.65,-3.25 -3.39,-3.79 -1.73,-0.56 -3.62,-0.1 -4.94,1.17 -9.18,8.91 -19.45,14.91 -31.38,18.35 -12.57,3.68 -25.41,4.02 -38.32,1.07 -12.94,-3.1 -24.48,-9.37 -34.28,-18.62 -9.8,-9.27 -16.41,-19.96 -20.19,-32.68 -3.45,-12.18 -3.7,-24.36 -0.77,-37.16 3.13,-12.52 9.13,-23.39 18.33,-33.12 9.26,-9.27 19.89,-15.63 32.39,-19.35 17.04,-4.98 33.63,-3.87 50.77,3.49 1.69,0.71 3.66,0.45 5.09,-0.72 1.43,-1.16 2.1,-3.02 1.73,-4.83 l -1.29,-6.29 z m 27.04,-16.11 c -0.36,0 -0.72,0.04 -1.1,0.12 l -32.87,7.38 c -2.63,0.59 -4.31,3.18 -3.78,5.82 l 0.47,2.29 c -16.32,-5.24 -32.59,-5.43 -48.86,-0.68 -14.15,4.23 -26.15,11.41 -36.7,21.96 -10.5,11.11 -17.3,23.43 -20.87,37.74 -3.33,14.55 -3.04,28.34 0.89,42.23 4.25,14.3 11.95,26.77 22.91,37.13 11.07,10.44 24.13,17.53 38.81,21.06 14.66,3.36 29.2,2.94 43.36,-1.21 10.53,-3.03 20.21,-8.02 28.85,-14.87 l 20.46,105.74 c 0.28,1.44 1.18,2.68 2.45,3.38 1.29,0.73 2.82,0.82 4.18,0.32 l 69.73,-26.37 c 2.55,-0.97 3.84,-3.8 2.89,-6.36 l -86.17,-232.44 c -0.75,-1.99 -2.61,-3.24 -4.65,-3.24" /><path
         id="path312"
         style="fill:#aec923;fill-opacity:1;fill-rule:evenodd;stroke:none"
         d="m 1559.94,1557.87 c -5.39,-1.14 -10.49,-1.14 -15.3,0.27 -10.77,3.13 -17.3,10.22 -20.13,20.99 -1.13,5.1 -0.85,9.92 0.57,14.74 3.11,10.77 10.2,17.57 21.26,20.13 5.1,1.41 10.2,1.13 15.3,-0.29 10.77,-3.12 17.59,-10.2 20.14,-20.98 1.12,-4.81 0.85,-9.63 -0.58,-14.73 -3.12,-10.79 -10.2,-17.58 -21.26,-20.13 m 66.05,220.54 -22.1,-114.24 c -9.64,9.35 -20.71,15.87 -33.45,19.56 -13.62,3.97 -27.22,4.25 -40.82,1.13 -14.17,-3.4 -26.37,-10.2 -36.57,-19.84 -10.49,-9.92 -17.57,-21.54 -21.55,-34.88 -3.69,-13.03 -3.96,-26.07 -0.85,-39.68 3.4,-13.6 9.92,-25.23 19.56,-35.42 9.93,-9.93 21.26,-16.74 34.58,-20.7 18.43,-5.38 36.28,-3.97 54.14,3.69 l -2.27,-11.07 32.89,-7.36 86.17,232.44" /><path
         id="path314"
         style="fill:#000000;fill-opacity:1;fill-rule:nonzero;stroke:none"
         d="m 1442.73,1349.72 22.73,-6.62 c 13.22,19.53 22.77,37.52 29.17,54.91 5.8,16.61 4.16,32.52 -5.04,48.54 -9.02,16.2 -22.25,26.66 -40.45,32.01 -7.32,2.09 -15.05,2.89 -22.93,2.36 -2.16,-0.09 -3.91,0.96 -4.8,2.76 -9.87,20.03 -25.28,32.91 -47.12,39.39 -4.68,1.4 -9.7,2.3 -16.36,2.93 -1.45,0.14 -2.77,0.91 -3.61,2.12 -0.84,1.2 -1.09,2.71 -0.71,4.12 l 1.55,5.75 -52.86,14.94 -17.25,-152.88 30.66,-5.7 18.36,67.04 c 0.52,1.87 2.07,3.27 3.98,3.58 1.41,0.26 2.88,-0.17 3.97,-1.08 4.75,0.74 9.82,0.39 14.87,-1.02 8.91,-2.63 16,-8.34 20.59,-16.52 4.7,-8.42 5.59,-17.03 2.61,-25.59 l -14.2,-41.57 26.5,-7.75 c 11.25,16.25 20.97,33.75 28.93,52.06 0.89,2.02 3,3.2 5.16,2.95 2.48,-0.31 4.65,-0.63 7.11,-1.25 8.14,-2.36 14.64,-7.45 18.93,-14.76 4.48,-7.91 5.39,-15.93 2.71,-23.93 l -12.5,-36.79 z m 24.81,-17.34 c -0.45,0 -0.93,0.06 -1.38,0.19 l -31.18,9.07 c -1.3,0.38 -2.41,1.27 -3.02,2.47 -0.64,1.21 -0.73,2.61 -0.3,3.89 l 14.18,41.67 c 1.77,5.34 1.18,10.37 -1.89,15.81 -3.02,5.08 -7.38,8.52 -12.95,10.15 -0.71,0.17 -1.39,0.32 -2.11,0.45 -8.43,-18.77 -18.66,-36.67 -30.44,-53.27 -1.22,-1.73 -3.38,-2.49 -5.45,-1.89 l -34.86,10.21 c -1.3,0.38 -2.39,1.27 -3.01,2.47 -0.63,1.2 -0.74,2.61 -0.29,3.89 l 15.87,46.49 c 2.06,5.96 1.45,11.52 -1.89,17.52 -3.36,5.96 -8.28,9.94 -14.66,11.84 -4.05,1.12 -8.2,1.33 -11.87,0.5 l -18.22,-66.51 c -0.68,-2.47 -3.14,-3.99 -5.69,-3.57 l -39.68,7.38 c -2.56,0.47 -4.32,2.84 -4.04,5.43 l 18.43,163.28 c 0.18,1.44 0.96,2.75 2.18,3.56 1.19,0.81 2.69,1.05 4.11,0.66 l 63.21,-17.87 c 2.62,-0.74 4.14,-3.44 3.43,-6.07 l -1.32,-4.92 c 4.64,-0.65 8.62,-1.49 12.41,-2.63 23.21,-6.88 40.6,-20.87 51.71,-41.61 7.91,0.23 15.64,-0.76 23.07,-2.88 20.57,-6.05 36.16,-18.38 46.34,-36.65 10.54,-18.36 12.48,-37.48 5.75,-56.78 -7.05,-19.12 -17.62,-38.77 -32.35,-60.14 -0.95,-1.37 -2.49,-2.14 -4.09,-2.14" /><path
         id="path316"
         style="fill:#aec923;fill-opacity:1;fill-rule:evenodd;stroke:none"
         d="m 1450.53,1483.32 c -7.94,2.27 -16.16,3.11 -24.66,2.54 -10.49,21.27 -27.21,35.16 -50.17,41.96 -5.67,1.7 -11.34,2.56 -17.3,3.11 l 2.84,10.5 -63.21,17.86 -18.43,-163.29 39.69,-7.36 19.55,71.43 1.14,-1.69 c 5.1,1.41 10.49,1.12 15.59,-0.29 7.66,-2.27 13.61,-7.09 17.57,-14.18 3.97,-7.09 4.82,-14.16 2.27,-21.53 l -15.87,-46.49 34.86,-10.21 c 12.48,17.57 22.96,36.28 31.47,55.84 2.27,-0.29 4.25,-0.57 6.53,-1.13 6.79,-1.98 12.18,-6.25 15.86,-12.48 3.69,-6.52 4.54,-13.03 2.27,-19.84 l -14.17,-41.66 31.18,-9.07 c 13.89,20.11 24.66,39.68 31.75,58.96 6.23,17.84 4.53,35.43 -5.39,52.72 -9.64,17.28 -24.09,28.62 -43.37,34.3" /><path
         id="path318"
         style="fill:#000000;fill-opacity:1;fill-rule:nonzero;stroke:none"
         d="m 1561.56,1384.61 c -4.41,0 -8.56,-1.19 -12.71,-3.64 -4.3,-2.4 -7.47,-5.61 -9.58,-9.77 l 44.15,1.71 c -3.15,5.24 -7.98,8.75 -14.65,10.68 -2.42,0.67 -4.88,1.02 -7.21,1.02 M 1532.17,1361 c -1.48,0 -2.9,0.66 -3.83,1.8 -0.99,1.19 -1.36,2.78 -1.01,4.29 2.35,10.11 7.94,17.68 16.59,22.49 8.4,4.97 17.85,6.24 27.54,3.56 12.37,-3.58 20.46,-11.46 24.12,-23.46 0.45,-1.47 0.19,-3.07 -0.7,-4.32 -0.89,-1.25 -2.31,-2.02 -3.85,-2.08 l -58.67,-2.27 c -0.07,-0.01 -0.14,-0.01 -0.19,-0.01 m 27.72,88.89 c -16.23,0 -30.58,-4.58 -43.85,-13.99 -14.69,-10.14 -24.51,-23.73 -29.28,-40.4 -1.73,-5.79 -2.69,-11.06 -2.93,-16.16 -1.32,-17.77 3.2,-33.48 13.8,-48.17 10.52,-14.58 24.31,-24.34 40.98,-29.03 13.62,-4.02 27.07,-4.34 40.5,-0.97 l -13.94,14.48 c -5.03,-1 -10.51,-0.75 -16.13,0.73 -14.3,4.31 -22.62,13.56 -24.89,27.52 -0.24,1.44 0.17,2.92 1.12,4.03 0.94,1.1 2.32,1.73 3.77,1.73 l 0.03,0 103.78,-0.54 c 2.58,8.5 3.85,14.9 4.05,20.44 1.33,17.54 -3.32,33.7 -13.8,48.21 -10.52,14.57 -24.3,24.34 -40.97,29.02 -6.07,1.74 -11.62,2.7 -17.03,2.94 -1.79,0.11 -3.51,0.16 -5.21,0.16 m 0.81,-160.96 c -8.22,0 -16.58,1.24 -24.84,3.68 -18.81,5.29 -34.41,16.32 -46.27,32.75 -11.87,16.43 -17.14,34.8 -15.67,54.58 0.28,5.79 1.37,11.84 3.31,18.35 5.4,18.88 16.56,34.29 33.12,45.74 16.29,11.55 34.85,16.82 55.27,15.61 6.12,-0.28 12.42,-1.36 19.22,-3.3 18.85,-5.31 34.43,-16.33 46.31,-32.76 11.87,-16.47 17.16,-34.83 15.66,-54.59 -0.27,-7.02 -2,-15.21 -5.61,-26.38 -0.66,-2.05 -2.57,-3.43 -4.72,-3.43 l -0.03,0 -100.97,0.53 c 2.65,-6.83 7.94,-11.27 16.26,-13.78 4.65,-1.23 9.46,-1.31 13.51,-0.02 1.78,0.56 3.76,0.07 5.07,-1.3 l 21.54,-22.39 c 1.16,-1.21 1.64,-2.94 1.25,-4.58 -0.38,-1.64 -1.57,-2.97 -3.16,-3.53 -9.65,-3.44 -19.48,-5.18 -29.25,-5.18" /><path
         id="path320"
         style="fill:#aec923;fill-opacity:1;fill-rule:evenodd;stroke:none"
         d="m 1532.17,1365.96 c 1.98,8.5 6.51,15.02 14.17,19.28 7.66,4.53 15.59,5.38 23.81,3.11 10.78,-3.11 17.58,-9.92 20.7,-20.12 l -58.68,-2.27 z m 109.7,3.4 c 1.41,18.71 -3.68,36 -14.74,51.31 -11.05,15.31 -25.52,25.79 -43.65,30.9 -5.96,1.7 -11.92,2.83 -18.15,3.11 -19.27,1.14 -36.56,-3.68 -52.15,-14.74 -15.59,-10.77 -26.08,-25.22 -31.19,-43.08 -1.69,-5.67 -2.83,-11.34 -3.11,-17.29 -1.43,-19 3.68,-36 14.74,-51.31 11.05,-15.31 25.5,-25.8 43.65,-30.9 17.29,-5.1 34.29,-4.53 51.03,1.42 l -21.55,22.39 c -5.38,-1.7 -11.05,-1.41 -16.45,0 -12.18,3.69 -19.26,11.34 -21.25,23.53 l 107.44,-0.57 c 3.11,9.64 5.09,17.86 5.38,25.23" /><path
         id="path322"
         style="fill:#000000;fill-opacity:1;fill-rule:nonzero;stroke:none"
         d="m 800.445,217.266 c 0.91,0 1.828,-0.391 2.278,-1.129 0.39,-0.66 2.652,-3.879 8.871,-3.879 0.75,0 1.679,0 2.5,0.219 9.219,1.168 15.73,9.98 16.961,11.718 0.539,0.801 1.468,1.192 2.449,1.09 0.961,-0.148 1.75,-0.808 2.059,-1.73 0.14,-0.438 0.41,-0.867 0.613,-1.231 l 0.379,-0.687 c 1.679,-3.711 4.468,-5.731 8.558,-6.27 0.723,-0.082 1.582,-0.14 2.52,-0.14 3.371,0 9.89,0.648 15.73,5.039 4.61,3.57 7.59,8.91 8.352,14.98 2.027,15.93 6.289,34.309 23.64,60.91 14.93,22.66 20.829,43.149 19.708,68.5 -1.137,22.032 -1.18,40.059 8.91,71.481 3.851,12.429 7,24.91 9.3,34.39 0.2,0.809 0.782,1.481 1.551,1.77 0.781,0.301 1.66,0.199 2.352,-0.242 1.027,-0.7 2,-1.438 2.879,-2.2 3.05,11.481 14.347,57.032 17.82,112.2 0.051,0.793 0.449,1.492 1.098,1.941 0.64,0.449 1.441,0.559 2.203,0.34 3.617,-1.102 7.527,-2.238 11.148,-3.07 41.336,-10.36 70.056,-14.969 93.136,-14.969 45.08,0 70.69,18.141 94.49,66.91 14.71,30.52 22.98,65.469 23.27,98.391 0,20.398 -3.27,39.168 -9.75,55.75 -11.27,28.277 -31.84,48.297 -61.18,59.468 l -4.77,1.68 c -1.03,0.371 -1.72,1.391 -1.68,2.488 0.79,23.481 -1.41,56.852 -16.39,82.532 -38.63,77.004 -92.016,97.274 -102.325,100.534 -16.109,6.3 -28.68,10.88 -39.973,14.56 -10.636,3.71 -41.968,10.33 -64.847,15.12 -14.11,2.98 -25.262,5.32 -28.91,6.4 -0.911,0.26 -1.602,1.03 -1.782,1.96 -0.179,0.94 0.172,1.89 0.91,2.48 4.672,3.72 18.813,11.87 33.782,20.48 16.16,9.33 34.468,19.88 40.179,24.57 l 0.391,0.4 c 27.738,22.71 47.711,50.12 59.5,81.58 1.551,3.41 3.641,8.45 4.688,14.56 0.632,2.22 1.191,4.19 1.742,6.41 0.211,0.86 0.84,1.55 1.668,1.81 0.34,0.12 34.347,13.31 49.977,60.17 1.64,4.9 2.43,9.46 2.43,13.96 0,1.27 0.96,2.35 2.23,2.51 54.98,6.94 78.43,45.83 84.05,56.89 -0.57,-0.02 -1.14,-0.02 -1.71,-0.02 -19,0 -34.34,6.46 -44.32,18.64 -10.75,13.15 -14.02,31.76 -9,51.02 l 2,6.86 c 10.07,36.91 28.82,105.69 -35.41,205.7 -49.146,76.41 -113.587,106.28 -148.204,122.34 l -1.711,0.76 c -13.782,6.29 -22.09,10.09 -23.813,14.9 -2.566,6.24 0.762,11.07 3.703,15.35 4.688,7.43 10.52,16.7 0.91,38.33 -10.589,22.98 -26.722,33.35 -36.55,37.76 7.961,-8.89 15.859,-24.43 5.468,-46.59 -14.179,-30.42 -45.339,-32.01 -128.628,-36.26 l -32.571,-1.77 c -101.41,-5.63 -154.379,-48.7 -208.422,-100.22 -39.148,-37.54 -75.269,-41.6 -88.976,-41.6 -0.293,0 -1.813,0.01 -3.383,0.1 2.801,-7.69 7.641,-13.42 14.422,-17.04 5.461,-2.88 12.23,-4.37 20.121,-4.37 8.707,0 16.258,1.82 19.098,2.59 1.05,0.29 2.171,-0.12 2.781,-1.01 0.609,-0.9 0.598,-2.08 -0.039,-2.95 -25.313,-34.65 -30.301,-64.88 -35.571,-96.86 l -4.8,-28.5 c -3.032,-13.93 -9.172,-23.56 -18.27,-28.71 -5.121,-2.95 -11.172,-4.45 -17.972,-4.45 -4.969,0 -9.161,0.82 -11.52,1.39 -0.109,-1.95 -0.109,-3.73 -0.109,-5.5 0,-9.84 2.679,-18.18 7.949,-24.76 9.25,-11.58 23.68,-14.49 26.492,-14.94 1.02,-0.19 1.84,-0.96 2.07,-1.98 0.219,-1.02 -0.191,-2.07 -1.062,-2.66 -8.047,-5.5 -19.008,-8.27 -32.539,-8.27 -8.071,0 -15.41,1.04 -19.571,1.86 8.731,-30.03 39.711,-40.01 45.969,-41.75 0.981,-0.27 1.711,-1.1 1.852,-2.1 0.14,-1.01 -0.34,-2 -1.211,-2.54 -8.629,-5.22 -20.688,-6.32 -28.789,-6.2 12.25,-10.41 28.16,-12.95 46.601,-7.59 0.84,0.24 1.77,0.02 2.43,-0.57 0.648,-0.59 0.961,-1.48 0.801,-2.35 -2.473,-13.24 -0.781,-28.53 4.308,-38.95 2.77,-6.04 7.129,-10.93 12.629,-14.23 1.18,-0.72 1.59,-2.24 0.91,-3.45 -2.578,-4.59 -4.871,-8.59 -7.437,-12.59 -8.934,-13.93 -18.031,-28.16 -18.031,-62.68 0,-22.28 8.05,-44.98 23.91,-67.42 0.398,-0.58 0.558,-1.27 0.418,-1.94 -0.129,-0.71 -0.528,-1.3 -1.11,-1.67 -27.668,-17.89 -53.5,-37.64 -76.781,-58.72 -32.726,-30.23 -37.957,-64.42 -36.578,-87.816 1.371,-27.879 13.141,-51.859 24.039,-61.136 0.223,-0.184 0.41,-0.403 0.551,-0.653 19.398,-32.961 77.32,-33.91 83.859,-33.91 l 2.039,0.02 c 0.864,0.043 2.032,-0.598 2.434,-1.598 0.387,-0.98 0.129,-2.121 -0.66,-2.84 -14.231,-12.902 -60.672,-59.172 -60.672,-112.633 0,-7.648 1.109,-15.437 3.301,-23.089 0.937,-3.739 2.039,-7.008 3.199,-10.477 l 0.738,-2.203 c 0.363,-1.059 -0.039,-2.25 -0.988,-2.91 -6.84,-4.649 -12.289,-9.809 -16.66,-15.828 -5,-7.352 -7.449,-15.532 -7.449,-24.852 0,-5.93 1.07,-12.168 3.281,-19.07 0.16,-0.5 0.16,-1.071 -0.012,-1.578 -0.07,-0.211 -7.519,-24.332 -7.519,-60.981 0,-28.558 4.968,-71.84 28.609,-115.859 2.141,-7.16 4.672,-13.91 7.73,-20.571 18.211,-41.531 23.192,-62.55 23.192,-97.711 0,-22.929 13.207,-37.718 24.859,-50.757 4.551,-5.114 9.207,-10.371 12.43,-15.34 10.008,-15.903 12.18,-33.883 6.859,-56.672 -4.539,-18.129 -3.34,-22.281 3.43,-28.09 4.809,-4.531 13.012,1.309 14.832,2.828 l 0.957,0.614 c 0.281,0.187 0.57,0.367 0.941,0.57 0.981,0.527 2.192,0.328 2.981,-0.473 l 0.461,-0.469 c 2.277,-2.32 8.347,-8.5 15.066,-10.191 4.082,-1.07 7.5,1.98 9.602,4.52 0.719,0.992 1.39,1.863 1.82,3.16 0.238,0.73 0.781,1.293 1.488,1.582 0.684,0.269 1.473,0.218 2.153,-0.153 2.211,-1.187 9.89,-4.636 16.07,-4.636 1.418,0 2.66,0.199 3.668,0.566 1.762,0.641 3.531,1.582 5.402,2.82 2.118,0.883 5.02,2.371 6.438,5.692 0.281,0.672 0.84,1.16 1.519,1.422 0.672,0.218 1.422,0.148 2.063,-0.192 10.89,-5.929 19.828,-6.261 25.258,-0.492 2.441,2.691 3.429,5.352 3.019,8.07 -0.508,6.84 -7.59,13.09 -11.769,16.211 -6.93,5.469 -13.028,25.082 -4.278,49.942 3.289,9.238 9.61,20.289 15.797,30.777 l 3.672,6.481 c 0.559,1 1.711,1.5 2.828,1.222 44.621,-11.07 90.781,-11.301 133.121,-0.582 18.02,4.723 32.711,10.762 44.91,18.403 0.692,0.429 1.532,0.507 2.29,0.23 0.75,-0.313 1.312,-0.934 1.531,-1.703 7.179,-26.231 22.269,-49.641 33.301,-66.719 l 0.398,-0.609 c 7.531,-11.61 12.52,-19.602 13.141,-24.61 2.539,-19.05 -13.758,-27.179 -23.5,-32.07 -15.258,-7.5 -21.239,-15.543 -17.77,-23.961 2,-4.512 7.039,-6.851 14.961,-6.851 3.938,0 7.469,0.601 9.16,0.882 l 0.981,0.168 c 0.718,0.129 1.41,-0.129 1.949,-0.59 3.039,-2.539 6.769,-3.828 11.098,-3.828 5.98,0 11.39,2.45 13.171,3.25 0.371,0.149 0.789,0.239 1.211,0.239 m 11.149,-10.11 c -5.571,0 -9.539,2.11 -11.84,4.52 -2.981,-1.231 -8.051,-2.981 -13.691,-2.981 -5.129,0 -9.637,1.422 -13.438,4.262 -1.91,-0.32 -5.582,-0.902 -9.75,-0.902 -12.609,0 -17.652,5.422 -19.66,9.953 -3.231,7.847 -2.332,19.449 20.211,30.519 11.988,6 22.609,12.571 20.699,26.848 -0.531,4.25 -7.09,14.352 -12.371,22.492 l -0.399,0.61 c -10.75,16.668 -25.312,39.23 -33,64.898 -12.05,-7.109 -26.312,-12.789 -43.472,-17.277 -42.59,-10.793 -88.867,-10.75 -133.731,0.097 l -2.738,-4.82 c -6.09,-10.348 -12.281,-21.129 -15.41,-29.937 -8.859,-25.161 -1.211,-41.211 2.59,-44.204 5.89,-4.429 13.109,-11.468 13.711,-19.66 0.64,-4.097 -0.813,-8.25 -4.332,-12.109 -6.68,-7.078 -17.09,-7.629 -29.207,-1.688 -2.293,-3.41 -5.551,-5.07 -7.512,-5.793 -1.68,-1.199 -3.801,-2.32 -5.949,-3.129 -6.469,-2.32 -16.942,1.161 -21.512,3.219 -0.457,-0.777 -0.957,-1.429 -1.418,-2.047 -4.52,-5.511 -9.77,-7.703 -14.902,-6.339 -7.2,1.796 -13.387,7.507 -16.457,10.57 -1.711,-1.524 -7.141,-5.492 -12.981,-5.492 -3.062,0 -5.73,1.082 -7.949,3.199 -9.313,7.98 -9.422,15.262 -4.973,33.062 4.992,21.328 3.02,38.098 -6.199,52.75 -2.988,4.618 -7.519,9.7 -11.891,14.637 -11.699,13.07 -26.199,29.293 -26.199,54.191 0,34.321 -4.89,54.891 -22.75,95.622 -3.14,6.859 -5.761,13.828 -7.769,20.718 -23.942,44.5 -29.012,88.672 -29.012,117.801 0,33.609 6.211,57.149 7.543,61.75 -2.223,7.121 -3.293,13.641 -3.293,19.879 0,10.242 2.82,19.602 8.383,27.793 4.418,6.059 9.769,11.297 16.367,16.02 l -0.117,0.367 c -1.203,3.543 -2.332,6.902 -3.301,10.761 -2.301,8.051 -3.473,16.289 -3.473,24.418 0,50.563 39.524,94.524 57.661,112.024 -17.168,0.547 -65.11,4.93 -83.739,35.988 -11.648,10.192 -24.082,35.422 -25.511,64.461 -1.438,24.463 4.031,60.253 38.23,91.863 22.883,20.72 48.18,40.16 75.242,57.8 -15.48,22.61 -23.332,45.54 -23.332,68.18 0,36.02 9.512,50.87 18.711,65.24 2.231,3.47 4.172,6.81 6.231,10.44 -5.403,3.77 -9.7,8.94 -12.52,15.09 -5.961,12.2 -6.73,27.03 -5.332,38.14 -20.648,-4.93 -38.23,-0.37 -51.438,13.31 -0.46,0.49 -0.722,1.12 -0.722,1.77 -0.481,1.1 0.262,2.17 0.742,2.66 l 0.07,-0.07 c 0.629,0.65 1.52,1.1 2.309,1.1 0.851,-0.05 2.672,-0.18 5.269,-0.18 4.86,0 13.032,0.43 20.122,2.91 -12.52,4.74 -37.09,17.52 -44.032,46.27 -0.179,0.75 0.129,1.86 0.621,2.47 0.11,0.12 0.239,0.28 0.399,0.43 l -0.078,0.05 c 0.929,0.96 1.98,1.05 2.39,1.05 0.399,0 0.797,-0.09 1.16,-0.27 0.668,-0.17 9.809,-2.17 20.739,-2.17 9.59,0 17.699,1.47 24.211,4.37 -6.469,2.04 -16.11,6.38 -23.16,15.19 -6.012,7.51 -9.059,16.92 -9.059,27.95 0,2.64 0,5.27 0.289,8.21 0.078,0.78 0.789,1.81 1.461,2.24 0.477,0.48 0.969,0.61 1.648,0.61 0.27,0 1.11,-0.06 1.371,-0.13 0.047,-0.02 5.258,-1.71 11.958,-1.71 5.902,0 11.089,1.28 15.453,3.78 7.789,4.4 13.097,12.91 15.777,25.25 l 4.77,28.36 c 5.113,30.93 9.941,60.23 32.652,93.59 -3.781,-0.68 -8.641,-1.29 -13.879,-1.29 -8.723,0 -16.301,1.66 -22.523,4.95 -8.61,4.61 -14.719,12.39 -17.688,22.51 -0.07,0.24 -0.109,0.47 -0.109,0.72 0,0.45 0,1.62 1.027,2.65 l 0.07,-0.06 c 0.93,0.97 2.371,1.37 3.442,0.82 -0.242,0.16 1.57,-0.09 4.621,-0.09 13.097,0 47.637,3.92 85.449,40.18 54.789,52.23 108.527,95.91 211.668,101.63 l 32.59,1.77 c 81.062,4.14 111.39,5.69 124.262,33.33 11.941,25.43 -3.321,40.95 -10.43,46.43 l -0.039,0.05 c -0.731,0.28 -1.313,0.85 -1.633,1.59 -0.219,0.54 -0.199,1.34 -0.008,2.02 0.27,1.83 2.168,3.15 4.117,2.18 5.633,-1.35 32.75,-9.68 48.34,-43.5 10.742,-24.13 3.821,-35.13 -1.238,-43.16 -3.301,-4.81 -4.649,-7.38 -3.25,-10.78 1.039,-2.9 11.269,-7.57 21.16,-12.07 l 1.641,-0.76 c 35.199,-16.32 100.508,-46.59 150.465,-124.24 65.46,-101.93 46.32,-172.13 36.02,-209.84 l -1.99,-6.83 c -4.6,-17.64 -1.67,-34.57 8.04,-46.44 9.75,-11.92 25.23,-17.75 44.93,-16.65 0.44,-0.01 1.14,-0.17 1.68,-0.45 0.3,-0.14 0.59,-0.33 0.84,-0.58 0.48,-0.46 0.73,-1.13 0.73,-1.8 0.25,-0.72 0.07,-1.5 -0.32,-2.15 -2.75,-6.1 -25.84,-53.14 -87.04,-61.88 -0.21,-4.32 -1.07,-8.69 -2.62,-13.31 -14.59,-43.78 -45.07,-59.76 -51.845,-62.83 -0.472,-1.82 -0.941,-3.45 -1.41,-5.1 -1.101,-6.42 -3.351,-11.86 -4.949,-15.38 -12.051,-32.16 -32.531,-60.27 -60.801,-83.41 l -0.39,-0.41 c -6.211,-5.11 -23.922,-15.3 -41.04,-25.18 -11.351,-6.54 -22.222,-12.82 -28.64,-16.93 5.449,-1.25 13.859,-3.02 23.14,-4.98 24.297,-5.11 54.54,-11.46 65.43,-15.29 11.34,-3.68 24,-8.3 39.778,-14.49 10.761,-3.42 65.897,-24.31 105.387,-103.005 15.1,-25.918 17.68,-59.238 17.04,-83.257 l 3.06,-1.071 c 30.79,-11.722 52.34,-32.722 64.17,-62.41 6.71,-17.18 10.1,-36.59 10.1,-57.633 -0.3,-33.679 -8.73,-69.418 -23.78,-100.609 -24.83,-50.867 -51.66,-69.758 -99.08,-69.758 -23.53,0 -52.62,4.641 -94.327,15.098 -2.481,0.57 -5.25,1.3 -8.379,2.222 -4.09,-59.441 -17.309,-108.41 -18.539,-112.761 -0.242,-1.481 -1.551,-2.641 -3.07,-2.641 -0.762,0 -2.04,0.332 -2.532,0.93 -0.398,0.48 -0.847,0.941 -1.32,1.402 -2.219,-8.941 -5.059,-19.902 -8.457,-30.871 -9.82,-30.602 -9.793,-48.18 -8.672,-69.668 1.16,-26.551 -4.98,-47.922 -20.551,-71.582 -16.769,-25.719 -20.89,-43.41 -22.84,-58.731 -0.929,-7.417 -4.589,-13.949 -10.308,-18.39 -7.063,-5.309 -14.832,-6.098 -18.832,-6.098 -1.141,0 -2.188,0.059 -3.149,0.18 -5.308,0.711 -9.339,3.379 -11.808,7.711 -3.453,-3.961 -9.613,-9.551 -17.641,-10.531 -1.14,-0.321 -2.519,-0.321 -3.441,-0.321" /></g></g></svg>