<?xml version="1.0" encoding="UTF-8" standalone="no"?>
<svg
   xmlns:dc="http://purl.org/dc/elements/1.1/"
   xmlns:cc="http://creativecommons.org/ns#"
   xmlns:rdf="http://www.w3.org/1999/02/22-rdf-syntax-ns#"
   xmlns:svg="http://www.w3.org/2000/svg"
   xmlns="http://www.w3.org/2000/svg"
   viewBox="0 0 248.03751 248.03751"
   height="248.03751"
   width="248.03751"
   xml:space="preserve"
   version="1.1"
   id="svg2"><metadata
     id="metadata8"><rdf:RDF><cc:Work
         rdf:about=""><dc:format>image/svg+xml</dc:format><dc:type
           rdf:resource="http://purl.org/dc/dcmitype/StillImage" /></cc:Work></rdf:RDF></metadata><defs
     id="defs6" /><g
     transform="matrix(1.25,0,0,-1.25,0,248.0375)"
     id="g10"><g
       transform="scale(0.1,0.1)"
       id="g12"><path
         id="path14"
         style="fill:#000000;fill-opacity:1;fill-rule:nonzero;stroke:none"
         d="m 1619.6,1088.3 c 0,0 17.29,-25.5 -32.31,-83.61 -49.89,-58.116 -77.96,-67.752 -77.96,-67.752 l -27.21,56.41 79.36,113.102" /><path
         id="path16"
         style="fill:#f6d4b3;fill-opacity:1;fill-rule:evenodd;stroke:none"
         d="m 1509.05,1091.14 c -28.36,-26.08 -39.12,-73.13 -24.09,-90.99 15.02,-17.857 -0.58,-232.728 -0.58,-232.728 0,0 184.53,104.601 171.5,207.781 -7.38,58.677 -56.4,101.477 -82.2,128.407 -9.65,9.92 -17.01,14.46 -23.82,14.74 -12.19,0.85 -22.68,-10.49 -40.81,-27.21" /><path
         id="path18"
         style="fill:#000000;fill-opacity:1;fill-rule:nonzero;stroke:none"
         d="m 1548.57,1115.99 c -9.34,0 -18.35,-8.41 -32,-21.15 l -5.89,-5.47 c -28.34,-26.09 -37.48,-71.5 -23.89,-87.67 14.46,-17.18 2.89,-193.329 0.32,-229.88 26.53,15.903 178.02,110.993 166.37,203.09 -6.39,51.05 -45.69,90.74 -71.71,117 -3.52,3.56 -6.82,6.91 -9.82,10.04 -9.16,9.42 -16,13.74 -22.18,14 -0.46,0.03 -0.82,0.04 -1.2,0.04 m -64.19,-350.978 c -0.45,0 -0.9,0.129 -1.29,0.371 -0.75,0.476 -1.18,1.328 -1.11,2.219 6.24,85.98 11.7,218.429 1.13,231 -16.57,19.708 -4.09,68.188 24.3,94.308 l 5.88,5.46 c 15.11,14.1 25.11,23.11 36.75,22.39 7.43,-0.31 15.28,-5.08 25.37,-15.46 2.99,-3.13 6.29,-6.46 9.79,-10 26.48,-26.72 66.46,-67.11 73.07,-119.788 13.09,-103.59 -165.11,-205.879 -172.7,-210.18 -0.37,-0.211 -0.78,-0.32 -1.19,-0.32" /><path
         id="path20"
         style="fill:#b04034;fill-opacity:1;fill-rule:nonzero;stroke:none"
         d="m 1619.6,1088.3 c 0,0 -78.8,-20.98 -101.76,-79.36 -22.68,-58.682 -8.51,-72.002 -8.51,-72.002 0,0 -144,110.272 -167.81,115.652 -23.53,5.39 29.77,131.25 67.18,150.52 37.42,19.28 150.81,-47.9 210.9,-114.81" /><path
         id="path22"
         style="fill:#000000;fill-opacity:1;fill-rule:nonzero;stroke:none"
         d="m 1564.53,816.301 c -6.26,-14.492 -16.59,-45.992 -7.17,-61.071 1.52,-2.429 6.11,-9.781 25,-9.781 l 0,-11.761 0.58,11.769 c 18.93,0.07 32.8,5.102 41.27,14.922 11.61,13.488 10.57,32.93 10.19,37.129 -5.77,17.082 -17.6,25.043 -37.16,25.043 -13.39,0 -26.38,-3.961 -32.71,-6.25 m 17.83,-94.383 c -26.42,0 -39.04,11.352 -44.97,20.859 -19.19,30.813 5.04,82.18 7.87,87.942 1.22,2.48 3.27,4.48 5.81,5.582 0.91,0.398 22.45,9.789 46.17,9.789 29.97,0 51.25,-15.09 59.93,-42.5 0.19,-0.621 0.34,-1.25 0.43,-1.871 0.19,-1.352 4.59,-33.301 -15.57,-56.692 -13.11,-15.207 -32.95,-23 -58.96,-23.109" /><path
         id="path24"
         style="fill:#b04034;fill-opacity:1;fill-rule:nonzero;stroke:none"
         d="m 1645.96,800.02 c 0,0 9.65,-66.04 -62.93,-66.329 -72.57,-0.562 -27.21,91.848 -27.21,91.848 0,0 72.01,31.75 90.14,-25.519" /><path
         id="path26"
         style="fill:#5b5b5b;fill-opacity:1;fill-rule:nonzero;stroke:none"
         d="m 1063.72,600.188 c 0,0 40.82,-92.704 114.25,-86.75 73.12,5.679 101.18,74.277 48.18,107.429 -52.72,32.879 -162.43,-20.679 -162.43,-20.679" /><path
         id="path28"
         style="fill:#000000;fill-opacity:1;fill-rule:nonzero;stroke:none"
         d="m 1808.39,234.797 -231.03,26.359 c 0,0 -4.81,-26.359 32.89,-41.953 37.42,-15.59 79.08,-57.828 135.48,-47.617 56.42,9.918 91.86,41.379 62.66,63.211" /><path
         id="path30"
         style="fill:#b0b1b1;fill-opacity:1;fill-rule:nonzero;stroke:none"
         d="m 1806.97,314.453 c -18.71,36 -145.14,45.34 -145.14,45.34 l -1.7,1.719 c 0,0 -15.59,1.41 -50.17,-6.52 -34.58,-7.668 -57.27,-60.379 -32.6,-93.828 24.94,-33.461 122.45,-69.742 188.21,-55.84 65.78,13.59 59.83,72.559 41.4,109.129" /><path
         id="path32"
         style="fill:#000000;fill-opacity:1;fill-rule:nonzero;stroke:none"
         d="m 1656.84,359.188 c -6.63,0 -21.47,-0.848 -46.34,-6.54 -15.74,-3.5 -29.86,-17.238 -36.84,-35.871 -7.25,-19.316 -5.13,-39.566 5.64,-54.199 19.97,-26.769 91.95,-57.879 154.83,-57.89 11.15,0 21.57,0.992 30.96,2.992 22.8,4.711 38.32,15.289 46.12,31.418 11.2,23.179 4.05,53.562 -6.39,74.261 -17.86,34.379 -141.91,43.961 -143.16,44.039 -0.57,0.04 -1.12,0.313 -1.52,0.719 l -1.05,1.031 c -0.52,0.02 -1.27,0.04 -2.25,0.04 m 77.29,-159.329 0,0 c -64.24,0 -138.06,32.18 -158.7,59.871 -11.75,15.918 -14.11,37.899 -6.29,58.739 7.56,20.129 23,35.051 40.31,38.859 25.3,5.82 40.55,6.68 47.39,6.68 2.37,0 3.52,-0.09 3.52,-0.09 0.55,-0.059 1.09,-0.32 1.48,-0.719 l 1.07,-1.058 c 12.34,-0.981 127.73,-11.032 146.21,-46.571 5.32,-10.59 21.49,-47.422 6.43,-78.57 -8.48,-17.562 -25.12,-29.012 -49.48,-34.051 -9.71,-2.051 -20.45,-3.09 -31.94,-3.09" /><path
         id="path34"
         style="fill:#000000;fill-opacity:1;fill-rule:nonzero;stroke:none"
         d="m 1778.06,335.996 c -4.54,1.969 -9.36,3.68 -14.17,5.391 15.02,-44.231 22.11,-86.75 17.85,-131.532 5.11,2.262 9.64,4.813 13.89,7.641 1.42,39.969 -3.96,80.512 -17.57,118.5" /><path
         id="path36"
         style="fill:#000000;fill-opacity:1;fill-rule:nonzero;stroke:none"
         d="m 1710.88,356.406 c 0.27,-5.39 -25.23,-6.808 -46.2,-24.672 -21.55,-17.578 -29.2,-41.668 -33.74,-40.539 -4.26,0 -3.68,30.34 23.24,53.012 27.78,22.688 57.82,15.598 56.7,12.199" /><path
         id="path38"
         style="fill:#000000;fill-opacity:1;fill-rule:nonzero;stroke:none"
         d="m 1655.88,364.336 c 0.85,-4.809 -12.75,-10.488 -27.21,-18.129 -14.73,-7.383 -22.11,-16.172 -26.08,-15.883 -5.95,0.281 -0.85,21.262 18.14,30.321 18.14,9.363 34.3,7.66 35.15,3.691" /><path
         id="path40"
         style="fill:#f6d4b3;fill-opacity:1;fill-rule:evenodd;stroke:none"
         d="m 1526.05,508.34 c 0.29,-3.68 53.29,-92.129 123.31,-138.899 0,0 103.46,63.5 104.6,67.18 0.86,3.688 -4.53,53.578 -51.58,83.617 -47.06,30.051 -25.81,80.231 -25.81,80.231" /><path
         id="path42"
         style="fill:#000000;fill-opacity:1;fill-rule:nonzero;stroke:none"
         d="m 1529.02,507.324 c 5.87,-11.25 55.64,-91.14 120.41,-135.031 39.11,24.02 96.88,60.191 102.27,65.34 0.36,5.851 -6.54,52.422 -50.63,80.582 -38.14,24.348 -32.78,61.91 -28.78,76.808 l -143.27,-87.699 z m 120.34,-140.289 c -0.47,0 -0.93,0.117 -1.34,0.41 -70.39,47.02 -123.98,135.778 -124.37,140.707 -0.07,0.911 0.37,1.782 1.14,2.25 l 150.52,92.121 c 0.9,0.532 2.05,0.43 2.83,-0.238 0.79,-0.672 1.06,-1.801 0.65,-2.75 -0.82,-1.992 -19.86,-48.68 24.89,-77.262 48.04,-30.679 53.52,-82.3 52.62,-86.191 -0.97,-3.187 -36.51,-26.258 -105.67,-68.699 -0.4,-0.25 -0.83,-0.348 -1.27,-0.348" /><path
         id="path44"
         style="fill:#000000;fill-opacity:1;fill-rule:nonzero;stroke:none"
         d="m 1683.38,512.871 c -0.85,-2.551 -17.86,4.25 -36,-5.101 -18.14,-9.348 -28.91,-23.52 -30.9,-22.11 -1.7,0.852 6.24,18.422 27.22,29.492 22.11,11.039 41.38,-0.851 39.68,-2.281" /><path
         id="path46"
         style="fill:#fdfdfd;fill-opacity:1;fill-rule:nonzero;stroke:none"
         d="m 1676.01,311.047 c -3.4,17.859 -13.32,34.308 -31.75,43.648 -18.71,9.641 13.62,54.711 45.65,75.41 32.3,20.399 87.3,21.551 87.3,-1.41 -0.3,-22.691 -8.8,-17.859 7.65,-44.519 16.16,-26.641 47.62,-90.141 5.39,-102.602 -42.52,-12.469 -114.24,29.473 -114.24,29.473" /><path
         id="path48"
         style="fill:#000000;fill-opacity:1;fill-rule:nonzero;stroke:none"
         d="m 1678.15,312.59 c 7.34,-4.141 56.34,-30.934 94.34,-30.934 6.3,0 12.06,0.742 17.08,2.223 8.72,2.578 14.36,7.43 17.22,14.859 9.78,25.27 -15.89,70.821 -23.99,84.192 -11.35,18.386 -11.33,22.457 -9.57,31.508 0.66,3.378 1.48,7.601 1.56,14.269 0,10.723 -15.14,14.531 -29.3,14.531 -18.67,0 -39.47,-5.82 -54.29,-15.179 -26,-16.801 -50.8,-48.602 -50.02,-64.211 0.14,-3.352 1.52,-5.641 4.18,-7 17.09,-8.668 28.7,-24.371 32.79,-44.258 m 94.34,-35.742 c -42.29,0 -95.45,30.808 -97.7,32.129 -0.59,0.339 -1.02,0.929 -1.15,1.632 -2.55,13.368 -9.9,31.489 -30.48,41.938 -4.21,2.172 -6.55,6.012 -6.8,11.07 -0.93,18.973 27.32,52.422 52.23,68.5 15.59,9.852 37.37,15.949 56.9,15.949 21.37,0 34.12,-7.25 34.12,-19.386 -0.07,-7.133 -0.95,-11.59 -1.65,-15.16 -1.46,-7.524 -2.01,-10.321 8.95,-28.071 8.4,-13.859 34.95,-61.14 24.38,-88.453 -3.4,-8.789 -10.25,-14.758 -20.36,-17.75 -5.48,-1.598 -11.68,-2.398 -18.44,-2.398" /><path
         id="path50"
         style="fill:#a2a2a2;fill-opacity:1;fill-rule:nonzero;stroke:none"
         d="m 1710.3,316.152 c -1.42,-0.582 -7.36,16.161 -15.3,35.43 -8.78,19.281 -24.09,28.352 -23.24,29.481 0,0.847 17.56,-7.372 26.93,-27.782 8.49,-20.121 12.19,-36.558 11.61,-37.129" /><path
         id="path52"
         style="fill:#a2a2a2;fill-opacity:1;fill-rule:nonzero;stroke:none"
         d="m 1738.09,331.738 c -1.13,-0.269 -4.25,13.051 -11.05,28.629 -5.97,16.723 -17.31,23.242 -17.86,23.531 0.28,2.559 15.87,-4.531 21.82,-21.832 6.8,-16.16 8.21,-30.328 7.09,-30.328" /><path
         id="path54"
         style="fill:#a2a2a2;fill-opacity:1;fill-rule:nonzero;stroke:none"
         d="m 1765.87,352.148 c -0.85,-0.57 -8.51,7.661 -13.9,19.84 -5.09,12.192 -9.34,21.828 -8.21,22.41 0.85,0.551 6.8,-8.8 11.9,-20.71 5.39,-11.899 11.06,-20.692 10.21,-21.54" /><path
         id="path56"
         style="fill:#a2a2a2;fill-opacity:1;fill-rule:nonzero;stroke:none"
         d="m 1776.93,373.977 c -0.29,-0.852 -5.96,3.679 -8.52,11.617 -1.98,7.941 -2.83,13.89 -1.98,14.461 1.13,0.289 3.97,-5.668 5.95,-13.032 2.26,-7.378 5.67,-12.199 4.55,-13.046" /><path
         id="path58"
         style="fill:#5b5b5b;fill-opacity:1;fill-rule:nonzero;stroke:none"
         d="m 1188.16,747.578 c 0,0 -5.1,-21.531 -66.03,-65.75 -60.68,-44.512 -56.14,-63.781 -58.4,-81.64 0,0 34,1.968 73.41,-3.692 39.4,-5.68 74.83,-0.289 102.06,-18.148 27.2,-17.86 66.88,-82.2 94.1,-101.758 0,0 37.99,69.156 49.88,86.18 12.2,17.007 44.52,18.988 44.52,18.988 0,0 9.07,-14.18 26.63,-36.012 17.58,-21.539 44.8,-41.098 46.21,-63.777 0,0 19.85,-3.68 87.32,36.289 67.45,39.969 102.03,84.48 102.03,84.48 0,0 -41.94,20.121 -46.76,73.41 -4.82,53.579 -55.84,143.161 -67.47,145.711 -11.62,2.547 -387.5,-74.281 -387.5,-74.281" /><path
         id="path60"
         style="fill:#000000;fill-opacity:1;fill-rule:nonzero;stroke:none"
         d="m 1657.87,633.066 c -7.09,11.051 -13.05,25.219 -14.75,43.09 -4.81,53.571 -55.84,143.149 -67.46,145.699 -11.63,2.551 -387.5,-74.281 -387.5,-74.281 0,0 -5.09,-21.527 -66.04,-65.75 -60.67,-44.508 -56.13,-63.777 -58.39,-81.636 0,0 34,1.968 73.42,-3.692 7.37,-1.141 14.73,-1.699 21.81,-2.269 45.65,33.168 87.59,79.378 129.84,19.55 26.92,-33.429 18.98,-73.703 19.56,-112.531 8.79,-10.48 17.28,-19.269 24.94,-24.648 0,0 37.99,69.16 49.88,86.168 12.2,17.011 44.51,18.992 44.51,18.992 0,0 9.08,-14.184 26.64,-36 17.58,-21.551 44.8,-41.113 46.22,-63.781 0,0 13.6,-2.551 57.25,19.847 19,31.184 8.78,82.481 22.68,114.524 15.03,33.718 47.06,32.308 77.39,16.718" /><path
         id="path62"
         style="fill:#5b5b5b;fill-opacity:1;fill-rule:nonzero;stroke:none"
         d="m 1310.06,690.891 c 22.11,-19.832 36.85,-57.262 66.89,-64.063 51.6,-14.461 95.54,34.582 145.71,45.629 12.75,0.57 22.39,-24.367 6.52,-41.949 17,-3.399 33.16,10.211 37.13,18.711 28.35,31.75 45.07,74.551 46.48,117.359 -15.02,30.039 -31.18,53.852 -37.12,55.27 -11.64,2.562 -387.5,-74.27 -387.5,-74.27 0,0 -3.12,-12.738 -32.04,-38.551 53.3,-16.707 113.96,14.18 153.93,-18.136" /><path
         id="path64"
         style="fill:#000000;fill-opacity:1;fill-rule:nonzero;stroke:none"
         d="m 1247.41,747.871 c 0,0 0.27,-56.691 -15.31,-80.789 0,0 110.84,-58.121 137.48,-39.973 26.37,17.864 28.35,122.461 28.35,122.461" /><path
         id="path66"
         style="fill:#000000;fill-opacity:1;fill-rule:nonzero;stroke:none"
         d="m 1513.02,766.289 c 0,0 27.5,-67.461 33.45,-91.84 0,0 79.09,20.41 89.86,30.899 10.49,10.211 1.7,44.793 -12.48,67.179 -13.89,22.114 -38.26,38.551 -38.26,38.551" /><path
         id="path68"
         style="fill:#f6d4b3;fill-opacity:1;fill-rule:evenodd;stroke:none"
         d="m 1154.15,563.328 c -37.71,-36.277 -45.35,-67.75 -41.1,-92.687 6.23,-36.282 38.27,-58.11 38.27,-58.11 l 152.5,92.688 c 0,0 -12.47,26.929 -34.88,51.871 -11.89,13.332 -34.29,22.961 -57.53,24.379 -20.69,1.422 -41.95,-3.68 -57.26,-18.141" /><path
         id="path70"
         style="fill:#000000;fill-opacity:1;fill-rule:nonzero;stroke:none"
         d="m 1204.77,579.285 c -13.79,0 -33.47,-3.078 -48.97,-17.707 -31.8,-30.609 -45.41,-61.082 -40.39,-90.543 5.32,-30.859 30.18,-51.187 36.02,-55.617 l 149.27,90.73 c -3.29,6.571 -15.06,28.77 -33.54,49.329 -11.59,12.968 -33.52,22.218 -55.91,23.601 -2.16,0.129 -4.32,0.207 -6.48,0.207 m -53.45,-169.168 c -0.48,0 -0.94,0.16 -1.36,0.418 -1.33,0.934 -32.94,22.82 -39.28,59.703 -5.3,31.117 8.75,63.02 41.8,94.828 16.66,15.731 37.63,19.032 52.29,19.032 2.28,0 4.53,-0.063 6.8,-0.231 23.56,-1.441 46.79,-11.32 59.18,-25.179 22.38,-24.911 35.13,-52.172 35.25,-52.461 0.52,-1.11 0.11,-2.442 -0.93,-3.059 l -152.5,-92.699 c -0.39,-0.223 -0.82,-0.352 -1.25,-0.352" /><path
         id="path72"
         style="fill:#fdfdfd;fill-opacity:1;fill-rule:nonzero;stroke:none"
         d="m 1198.37,369.727 c 0,0 -38.83,23.808 -47.62,34.582 -9.07,10.769 -9.36,70.867 55.28,102.617 64.91,31.461 108.84,3.402 116.21,-10.77 7.37,-14.179 3.42,-53.578 3.42,-53.578" /><path
         id="path74"
         style="fill:#000000;fill-opacity:1;fill-rule:nonzero;stroke:none"
         d="m 1263.24,518.848 c -17.97,0 -36.88,-4.75 -56.16,-14.102 -41.24,-20.269 -53.2,-50.84 -56.64,-67.269 -3.38,-16.02 -0.77,-28.129 2.16,-31.618 7.58,-9.3 39.2,-29.23 45.82,-33.339 l 124.94,71.527 c 0.58,6.691 3,38.973 -3.25,50.98 -5,9.61 -26.53,23.821 -56.87,23.821 m -64.87,-151.532 c -0.44,0 -0.87,0.102 -1.26,0.364 -1.6,0.957 -39.29,24.148 -48.23,35.117 -4.22,5.012 -6.68,18.902 -3.16,35.68 3.63,17.281 16.15,49.429 59.24,70.589 19.98,9.692 39.58,14.59 58.28,14.59 32.7,0 55.44,-15.429 61.14,-26.386 7.62,-14.653 3.82,-53.293 3.65,-54.93 -0.07,-0.781 -0.51,-1.481 -1.19,-1.863 l -127.27,-72.848 c -0.37,-0.223 -0.79,-0.313 -1.2,-0.313" /><path
         id="path76"
         style="fill:#9c9d9d;fill-opacity:1;fill-rule:nonzero;stroke:none"
         d="m 1274.62,495.02 c 43.65,1.968 78.53,-17.008 89.57,-50.739 11.06,-34.031 4.82,-251.152 -86.45,-235.293 -91.56,16.172 -116.51,63.512 -106.29,118.223 10.48,54.699 22.96,46.769 32.03,81.348 9.34,34.589 34.29,84.761 71.14,86.461" /><path
         id="path78"
         style="fill:#000000;fill-opacity:1;fill-rule:nonzero;stroke:none"
         d="m 1280.82,492.742 c -2.01,0 -4.04,-0.047 -6.09,-0.137 -36.8,-1.703 -60.65,-54.031 -68.93,-84.66 -3.91,-14.929 -8.41,-22.062 -13.16,-29.59 -6.31,-10.019 -12.86,-20.402 -18.83,-51.613 -4.96,-26.629 -1.09,-49.379 11.55,-67.597 16.44,-23.731 47.66,-39.809 92.8,-47.782 19.72,-3.41 36.77,4.481 50.59,23.492 40.09,55.18 40.81,185.137 33.15,208.68 -9.94,30.348 -41.01,49.207 -81.08,49.207 m 6.24,-286.976 c -3.16,0 -6.45,0.277 -9.73,0.867 -46.46,8.191 -78.74,24.93 -95.93,49.75 -13.39,19.332 -17.53,43.301 -12.33,71.25 6.16,32.121 12.94,42.871 19.49,53.269 4.55,7.231 8.86,14.063 12.58,28.282 8.64,31.91 33.79,86.41 73.37,88.242 45.14,2.117 80.84,-18.403 91.97,-52.391 8.76,-26.961 7.03,-156.769 -33.83,-213 -12.66,-17.43 -28,-26.269 -45.59,-26.269" /><path
         id="path80"
         style="fill:#000000;fill-opacity:1;fill-rule:nonzero;stroke:none"
         d="m 1309.21,479.707 c 33.16,-2.828 73.12,-17.57 63.5,-91.281 -9.94,-73.41 -23.81,-185.649 -89.87,-184.25 -66.33,1.703 -85.32,47.621 -63.49,124.453 21.55,76.809 14.18,157.027 89.86,151.078" /><path
         id="path82"
         style="fill:#fdfdfd;fill-opacity:1;fill-rule:nonzero;stroke:none"
         d="m 1371.28,434.922 c 0,-2.27 -23.23,1.422 -51.02,4.539 -28.35,1.133 -51.3,6.23 -51.02,7.652 0.57,0.571 22.67,-2.55 51.31,-3.691 28.62,-3.109 50.46,-8.5 50.73,-8.5" /><path
         id="path84"
         style="fill:#fdfdfd;fill-opacity:1;fill-rule:nonzero;stroke:none"
         d="m 1365.9,396.086 c 0,-0.852 -24.09,-2.82 -53.57,0 -29.49,2.547 -53.31,3.68 -53.31,5.109 0,0.848 24.11,1.7 53.59,-1.14 29.2,-2.539 53.01,-2.539 53.29,-3.969" /><path
         id="path86"
         style="fill:#fdfdfd;fill-opacity:1;fill-rule:nonzero;stroke:none"
         d="m 1357.96,354.695 c 0,0.582 -25.22,-2.816 -56.98,0 -31.74,-1.117 -57.54,8.793 -55.84,11.352 0.28,-0.852 23.82,-8.231 55.84,-7.09 31.18,-3.129 57.56,-1.43 56.98,-4.262" /><path
         id="path88"
         style="fill:#fdfdfd;fill-opacity:1;fill-rule:nonzero;stroke:none"
         d="m 1353.14,318.137 c -0.57,0.566 -25.5,-4.821 -58.96,-2.832 -32.04,9.07 -55.84,17.57 -56.41,16.718 0.28,3.122 26.66,-3.968 56.98,-12.757 31.18,-1.7 58.66,1.699 58.39,-1.129" /><path
         id="path90"
         style="fill:#fdfdfd;fill-opacity:1;fill-rule:nonzero;stroke:none"
         d="m 1344.07,272.219 c 0.28,-0.582 -25.23,-3.692 -56.69,0.566 -31.18,5.383 -54.71,16.153 -54.43,16.723 0.85,1.418 24.38,-7.379 54.99,-12.481 30.9,-4.539 56.13,-3.109 56.13,-4.808" /><path
         id="path92"
         style="fill:#fdfdfd;fill-opacity:1;fill-rule:nonzero;stroke:none"
         d="m 1314.31,237.629 c 0,-0.852 -17.01,-2.82 -37.7,0.578 -20.41,3.68 -36.57,6.789 -36.57,7.93 0.29,1.129 17.01,0 37.42,-3.692 20.13,-3.386 36.57,-3.386 36.85,-4.816" /><path
         id="path94"
         style="fill:#e22228;fill-opacity:1;fill-rule:nonzero;stroke:none"
         d="m 1241.45,898.391 c -45.91,-78.532 -95.22,-125.864 -95.22,-125.864 0,0 28.61,-53.57 62.07,-57.816 33.43,-4.262 150.81,-9.934 229.02,31.18 77.97,41.379 173.77,107.148 208.63,54.136 0,0 5.69,36.551 -53,113.661 0,0 -26.36,94.972 -24.95,151.942 1.16,56.98 -24.66,122.74 -84.46,138.62 -202.97,54.42 -196.45,-227.062 -242.09,-305.859" /><path
         id="path96"
         style="fill:#000000;fill-opacity:1;fill-rule:nonzero;stroke:none"
         d="m 1149.21,772.102 c 5,-8.75 30.7,-51.372 59.38,-55.012 5.4,-0.668 25.33,-2.918 55.34,-2.918 40.28,0 116.23,4.387 172.28,33.848 11.3,5.98 22.73,12.359 34.82,19.109 48.55,27.082 98.75,55.101 135.71,55.101 15.45,0 27.76,-5.031 36.7,-14.98 -1.32,13.789 -9.36,48.41 -52.4,105 -0.19,0.23 -0.33,0.5 -0.41,0.809 -0.27,0.941 -26.44,95.951 -25.03,152.621 1.13,56.6 -24.01,120.66 -82.68,136.23 -16.96,4.56 -33.05,6.86 -47.82,6.86 -108.33,0 -137.99,-121.12 -161.83,-218.43 -9.52,-38.879 -17.75,-72.481 -29.72,-93.16 -41.4,-70.782 -86.13,-116.879 -94.34,-125.078 m 114.72,-62.743 c -30.3,0 -50.48,2.25 -55.94,2.95 -34.29,4.351 -62.71,56.851 -63.91,59.101 -0.5,0.93 -0.32,2.121 0.46,2.871 0.49,0.469 49.63,48.028 94.84,125.321 11.63,20.089 19.77,53.347 29.21,91.878 24.23,98.95 54.4,222.1 166.51,222.1 15.19,0 31.71,-2.35 49.06,-7.01 61.2,-16.24 87.42,-82.52 86.26,-140.99 -1.35,-54.01 22.79,-143.689 24.73,-150.791 58.34,-76.777 53.43,-113.609 53.19,-115.141 -0.16,-0.988 -0.9,-1.769 -1.87,-1.968 -0.96,-0.231 -1.98,0.179 -2.52,1.011 -8.28,12.59 -20.45,18.7 -37.21,18.7 -35.7,0 -85.35,-27.68 -133.37,-54.469 -11.58,-6.453 -23.55,-13.133 -34.9,-19.172 -56.98,-29.93 -133.82,-34.391 -174.54,-34.391" /><path
         id="path98"
         style="fill:#b04034;fill-opacity:1;fill-rule:nonzero;stroke:none"
         d="m 1568.01,1065.63 c 1.13,56.98 -24.66,122.74 -84.47,138.61 -90.43,24.38 -139.47,-18.14 -169.8,-79.65 6.24,-0.57 11.06,-1.7 11.06,-1.7 13.6,-41.67 -5.67,-89.58 62.36,-106.02 16.16,-5.1 -18.71,-39.679 -7.94,-60.659 10.77,-21.262 26.65,-30.332 20.41,-62.641 -0.28,-3.968 3.12,-16.441 11.06,-17.011 44.78,-2.84 33.45,-51.02 61.23,-65.2 31.46,-14.168 94.11,6.243 112.53,37.7 8.22,13.043 19.28,23.531 31.47,31.472 -6.24,10.199 -13.61,21.258 -22.97,33.16 0,0 -26.36,94.959 -24.94,151.939" /><path
         id="path100"
         style="fill:#000000;fill-opacity:1;fill-rule:nonzero;stroke:none"
         d="m 1442.43,418.191 c 1.43,-0.269 -6.8,-17.847 -24.38,-32.597 -16.44,-18.129 -39.12,-15.582 -37.12,-12.192 0.56,-1.129 17.56,-1.687 34.29,15.321 17.01,14.449 26.36,29.75 27.21,29.468" /><path
         id="path102"
         style="fill:#000000;fill-opacity:1;fill-rule:nonzero;stroke:none"
         d="m 1494.31,388.152 c 0.85,-0.847 -16.44,-19.289 -43.37,-33.726 -27.21,-15.031 -53.01,-15.891 -52.71,-14.75 0,1.137 24.36,3.976 50.73,18.707 26.37,14.172 44.5,30.621 45.35,29.769" /><path
         id="path104"
         style="fill:#000000;fill-opacity:1;fill-rule:nonzero;stroke:none"
         d="m 1556.67,354.98 c 0.57,-0.269 -25.51,-27.769 -67.18,-46.769 -42.24,-18.981 -80.51,-17.012 -80.22,-16.43 -0.29,1.699 37.13,1.699 78.23,20.41 41.11,18.707 68.04,44.219 69.17,42.789" /><path
         id="path106"
         style="fill:#000000;fill-opacity:1;fill-rule:evenodd;stroke:none"
         d="m 1030.27,1788.75 c -84.188,-107.15 -30.606,-131.53 -30.606,-131.53 0,0 -50.461,-83.05 -24.949,-115.08 0,0 44.505,-93.26 100.055,-28.63 l 68.32,134.36 c 0,0 -23.81,72 -13.03,155.05 4.53,36 -3.13,74.84 31.45,109.42 0,0 -47.05,-16.16 -131.24,-123.59" /><path
         id="path108"
         style="fill:#5b5b5b;fill-opacity:1;fill-rule:evenodd;stroke:none"
         d="m 1009.3,1660.62 c 22.39,28.35 11.35,62.36 20.69,96.38 1.7,5.95 3.69,11.62 6.24,17.29 -36.843,-30.05 -61.234,-69.73 -26.93,-113.67" /><path
         id="path110"
         style="fill:#b04034;fill-opacity:1;fill-rule:nonzero;stroke:none"
         d="m 1098.88,1284.46 c 0,0 87.02,-30.05 59.53,-120.19 0,0 79.37,-15.02 101.48,56.98 22.11,72.28 -107.45,100.06 -161.01,63.21" /><path
         id="path112"
         style="fill:#e4e4e4;fill-opacity:1;fill-rule:nonzero;stroke:none"
         d="m 1064.3,1280.5 c 0,0 10.49,-33.73 21.83,-43.37 11.33,-9.64 72.85,18.14 145.97,37.7 0,0 -76.52,58.39 -167.8,5.67" /><path
         id="path114"
         style="fill:#e4e4e4;fill-opacity:1;fill-rule:nonzero;stroke:none"
         d="m 1152.17,1160.59 c 0,0 -16.45,20.69 -8.51,28.63 7.93,7.94 76.82,3.97 115.94,27.21 0,0 8.51,-36.28 -107.43,-55.84" /><path
         id="path116"
         style="fill:#f6d4b3;fill-opacity:1;fill-rule:evenodd;stroke:none"
         d="m 1324.8,1626.04 c -84.19,-19.28 -236.98,-52.44 -274.39,49.89 -7.09,-11.62 -13.32,-24.38 -17.86,-38.83 -34.304,-108.86 -11.35,-143.44 0,-187.09 11.34,-43.66 16.15,-72.28 -0.85,-93.83 0,0 -22.95,9.64 -24.38,-8.5 -1.71,-17.86 12.47,-27.78 12.47,-27.78 0,0 -26.645,-36.85 14.73,-50.46 22.41,-7.37 38.28,-3.97 53.87,-0.85 13.04,2.84 26.07,5.67 42.52,1.99 20.13,-4.26 89,-39.41 64.07,-72.57 -19,-25.23 -75.69,-15.31 -72.87,-36.29 3.12,-20.97 20.71,-17 20.71,-17 0,0 19.84,-32.88 46.77,-30.9 60.09,4.53 158.45,45.64 167.23,41.95 13.04,-5.1 26.66,-11.34 31.48,-14.17 9.34,1.42 36.29,3.68 59.24,4.53 -9.08,34.59 27.21,148.82 27.5,145.42 0,-2.83 20.41,233.29 -54.15,378.14 -30.05,-18.99 -61.23,-35.71 -96.09,-43.65" /><path
         id="path118"
         style="fill:#000000;fill-opacity:1;fill-rule:nonzero;stroke:none"
         d="m 1142.8,1147.13 c 0.83,0 1.63,-0.43 2.07,-1.17 0.2,-0.3 19.35,-31.49 44.53,-29.74 35.78,2.71 85.25,18.48 121.37,29.99 22.22,7.08 38.27,12.2 44.44,12.2 1.04,0 1.87,-0.14 2.54,-0.42 11.65,-4.54 25.21,-10.63 31.02,-13.88 9.91,1.41 34.69,3.43 55.81,4.32 -6.38,36.09 23.87,135.06 28.12,144.05 1.1,12.86 16.9,235.57 -52.76,373.77 -26.37,-16.55 -58.07,-34.23 -94.61,-42.55 -34.21,-7.84 -91.47,-20.95 -143.66,-20.95 -68.72,0 -113,22.77 -131.72,67.7 -6.51,-11.25 -11.47,-22.46 -15.12,-34.07 -28.84,-91.56 -17.1,-129.42 -5.74,-166.04 1.98,-6.39 4.03,-13.02 5.78,-19.73 10.79,-41.54 17.02,-72.73 -1.29,-95.93 -0.66,-0.84 -1.82,-1.14 -2.82,-0.72 -0.06,0.02 -5.75,2.38 -11.27,2.38 -6.2,0 -9.31,-2.82 -9.78,-8.85 -1.54,-16.22 10.93,-25.25 11.46,-25.61 0.53,-0.39 0.88,-0.95 0.99,-1.59 0.1,-0.63 -0.04,-1.29 -0.42,-1.81 -0.12,-0.14 -11.41,-16.07 -6.94,-29.82 2.47,-7.57 9.36,-13.27 20.48,-16.93 8.78,-2.89 17.19,-4.28 25.69,-4.28 9.39,0 17.87,1.69 26.09,3.34 l 0.86,0.16 c 8.55,1.86 17.41,3.79 27.23,3.79 5.51,0 10.84,-0.6 16.28,-1.81 16.43,-3.48 59.91,-24.73 69.45,-50.14 3.47,-9.27 2.13,-18.09 -3.99,-26.24 -10.02,-13.31 -29.11,-17.19 -45.95,-20.62 -17.09,-3.47 -27.5,-6 -26.43,-13.88 1.86,-12.58 9.18,-15.23 14.99,-15.23 1.66,0 2.78,0.24 2.79,0.25 0.17,0.04 0.34,0.06 0.51,0.06 m 44.42,-35.81 c -23.9,0 -41.54,24.59 -45.61,30.79 -0.59,-0.06 -1.3,-0.11 -2.11,-0.11 -5.08,0 -17.17,1.89 -19.77,19.38 -1.72,12.77 13.81,15.93 30.26,19.28 15.99,3.25 34.13,6.95 43.05,18.79 5.14,6.84 6.22,13.91 3.32,21.64 -8.77,23.41 -50.74,43.91 -65.95,47.12 -5.12,1.15 -10.1,1.72 -15.26,1.72 -9.3,0 -17.53,-1.8 -26.23,-3.69 l -0.91,-0.18 c -8.44,-1.68 -17.17,-3.43 -27.04,-3.43 -9.03,0 -17.93,1.48 -27.19,4.52 -12.68,4.17 -20.61,10.91 -23.57,20.05 -4.28,13.18 3.21,27.18 6.36,32.2 -4.03,3.53 -13.11,13.3 -11.66,28.51 0.66,8.52 5.85,13.23 14.58,13.23 4.53,0 8.98,-1.26 11.37,-2.08 14.3,19.48 11.15,44.93 -0.66,90.34 -1.71,6.6 -3.65,12.87 -5.71,19.51 -11.58,37.33 -23.55,75.93 5.75,168.9 4.22,13.46 10.15,26.33 18.1,39.37 0.48,0.79 1.37,1.28 2.29,1.16 0.93,-0.11 1.71,-0.71 2.03,-1.59 17.02,-46.55 59.22,-69.18 129.01,-69.18 51.65,0 108.57,13.04 142.59,20.81 36.87,8.41 68.88,26.64 95.34,43.35 0.57,0.36 1.27,0.48 1.92,0.29 0.65,-0.18 1.2,-0.62 1.5,-1.22 69.95,-135.89 56.52,-355.42 54.31,-378.55 0.05,-0.16 0.08,-0.32 0.1,-0.5 l -0.15,-0.02 c -0.1,-0.91 -0.16,-1.41 -0.19,-1.46 -0.1,-0.14 -0.21,-0.29 -0.33,-0.41 -3.31,-8.16 -35.21,-111.4 -26.89,-143.12 0.19,-0.7 0.04,-1.45 -0.4,-2.04 -0.44,-0.59 -1.11,-0.95 -1.85,-0.97 -22.13,-0.83 -49.39,-3.07 -58.97,-4.52 -0.55,-0.08 -1.1,0.03 -1.58,0.31 -4.48,2.63 -17.65,8.73 -31.13,14 -0.02,0.02 -0.21,0.07 -0.73,0.07 -5.42,0 -22.82,-5.55 -42.98,-11.96 -36.34,-11.59 -86.12,-27.47 -122.47,-30.2 -0.86,-0.07 -1.7,-0.11 -2.54,-0.11" /><path
         id="path120"
         style="fill:#ffffff;fill-opacity:1;fill-rule:nonzero;stroke:none"
         d="m 1073.64,1405.5 c 4.82,-25.8 24.09,-43.65 43.1,-40.25 19.26,3.68 30.89,27.49 26.07,53.29 -4.81,25.79 -24.09,43.65 -43.37,40.25 -18.99,-3.68 -30.61,-27.49 -25.8,-53.29" /><path
         id="path122"
         style="fill:#0f0909;fill-opacity:1;fill-rule:nonzero;stroke:none"
         d="m 1076.77,1394.16 c 3.12,-13.03 13.6,-22.11 23.53,-19.84 9.92,2.27 15.3,15.02 12.18,28.34 -2.83,13.34 -13.6,22.11 -23.24,19.86 -9.92,-2.27 -15.59,-15.04 -12.47,-28.36" /><path
         id="path124"
         style="fill:#ffffff;fill-opacity:1;fill-rule:nonzero;stroke:none"
         d="m 1081.58,1406.64 c 1.13,-3.98 4.25,-6.8 7.09,-6.25 3.12,0.86 4.82,4.82 3.96,8.8 -1.13,3.97 -4.25,6.79 -7.37,5.95 -2.83,-0.57 -4.53,-4.53 -3.68,-8.5" /><path
         id="path126"
         style="fill:#ffffff;fill-opacity:1;fill-rule:nonzero;stroke:none"
         d="m 1105.68,1387.36 c 0,-1.98 1.12,-3.4 2.54,-3.4 1.42,0 2.57,1.7 2.57,3.68 -0.3,1.7 -1.43,3.12 -2.84,3.12 -1.43,0 -2.55,-1.7 -2.27,-3.4" /><path
         id="path128"
         style="fill:#000000;fill-opacity:1;fill-rule:nonzero;stroke:none"
         d="m 1072.79,1417.41 c 0,0 -2.82,34.58 22.69,42.24 30.33,8.78 42.52,-22.96 41.37,-23.81 0,0 -15.58,26.07 -39.4,19.55 -22.96,-6.23 -24.66,-37.98 -24.66,-37.98" /><path
         id="path130"
         style="fill:#000000;fill-opacity:1;fill-rule:nonzero;stroke:none"
         d="m 1054.09,1469.86 c -10.21,11.61 57.26,59.23 64.9,39.68 0,0 -21.26,-8.5 -26.64,-21.55 -5.39,-13.04 -24.37,-33.72 -38.26,-18.13" /><path
         id="path132"
         style="fill:#000000;fill-opacity:1;fill-rule:nonzero;stroke:none"
         d="m 1257.9,1307.14 c -1.13,-0.57 -7.66,9.92 -16.72,21.83 -9.36,11.91 -19.56,18.14 -19,19.57 0.29,0.84 12.18,-4.83 22.11,-17.02 9.36,-12.47 14.46,-24.09 13.61,-24.38" /><path
         id="path134"
         style="fill:#000000;fill-opacity:1;fill-rule:nonzero;stroke:none"
         d="m 1264.98,1326.99 c -1.12,-0.28 -5.95,10.49 -15.02,21.54 -9.36,11.06 -19.28,17.01 -18.7,18.43 0.27,0.57 11.89,-4.25 21.82,-15.88 9.35,-11.9 12.76,-23.81 11.9,-24.09" /><path
         id="path136"
         style="fill:#000000;fill-opacity:1;fill-rule:nonzero;stroke:none"
         d="m 1270.09,1370.07 c 1.42,0 -2.83,-16.44 -13.04,-34.02 -8.22,-17.85 -16.73,-32.59 -18.14,-31.46 0,0.57 6.24,14.46 14.73,33.16 10.21,17.58 15.6,32.6 16.45,32.32" /><path
         id="path138"
         style="fill:#000000;fill-opacity:1;fill-rule:nonzero;stroke:none"
         d="m 1257.05,1381.98 c 2.83,0.85 3.96,-17.86 -8.22,-34.58 -10.49,-16.73 -18.15,-30.9 -19,-30.62 -1.13,0.57 5.11,15.59 15.6,32.6 11.89,16.73 12.19,32.03 11.62,32.6" /><path
         id="path140"
         style="fill:#b04034;fill-opacity:1;fill-rule:nonzero;stroke:none"
         d="m 1412.95,1014.89 c 0,0 -108.85,43.94 -47.33,125.29 61.5,81.36 170.64,5.67 197.57,-51.02" /><path
         id="path142"
         style="fill:#000000;fill-opacity:1;fill-rule:evenodd;stroke:none"
         d="m 1085.84,1738.01 c 0,0 5.38,-228.19 152.5,-296.79 1.13,-0.56 -78.53,81.36 -89,144 22.39,-60.09 141.16,-121.32 148.25,-118.77 -18.44,16.73 -35.72,35.72 -42.8,61.23 23.24,-24.66 64.06,-42.52 92.96,-65.48 6.24,-3.69 12.47,-8.51 18.71,-15.31 10.2,-11.34 34.3,-32.03 43.66,-63.21 3.69,-12.76 24.67,-13.04 39.4,-12.47 7.93,0 13.89,0.56 14.17,-1.14 1.13,-11.62 -16.73,-10.49 1.13,-69.16 0,0 -11.62,-56.41 -36.84,-72.29 l 29.2,1.7 c 0,0 -22.11,-28.34 -28.35,-90.42 0,0 11.05,20.69 28.62,34.87 0,0 4.26,-4.26 0.29,-24.38 0,0 15.02,19.27 27.49,43.65 0,0 3.13,-29.48 12.48,-52.72 0,0 10.48,49.32 24.1,94.96 0,0 -1.7,-9.36 11.89,-42.52 0,0 21.84,92.97 66.34,141.16 0,0 -3.97,-24.66 0.86,-44.78 0,0 29.19,27.78 35.43,72.85 0,0 3.4,-19.85 5.1,-31.75 0,0 63.21,83.34 55.28,228.75 0,0 13.32,-7.37 25.21,-45.35 0,0 51.04,202.96 -137.76,310.68 -43.94,25.23 -76.25,41.38 -100.62,51.59 -80.5,34.01 -177.46,22.96 -218.56,10.77 -1.42,-0.57 -2.55,-0.85 -3.4,-1.13 -21.54,-6.24 -12.47,-2.84 -1.98,2.26 31.46,14.46 95.24,34.87 127.84,44.22 0,0 -0.56,0 -1.98,0.29 -24.94,1.41 -276.09,12.75 -299.62,-195.31" /><path
         id="path144"
         style="fill:#5b5b5b;fill-opacity:1;fill-rule:evenodd;stroke:none"
         d="m 1474.75,1850.82 c -19.29,-5.39 -37.13,1.43 -54.99,8.23 -14.19,5.66 -28.92,11.06 -44.51,10.2 36.85,-29.48 92.98,-42.52 115.1,-92.41 -59.25,4.54 -104.89,45.64 -157.05,62.64 13.32,-30.89 38.55,-60.93 36.84,-100.62 -36.84,25.8 -77.37,47.34 -114.51,76.82 -9.92,-39.98 5.1,-98.36 -47.62,-73.43 -40.25,17.59 -31.46,77.39 -33.73,120.48 -11.91,-30.89 -32.6,-62.64 -29.48,-95.53 -4.25,26.94 -0.85,56.12 -5.39,81.93 -26.36,-32.04 -29.77,-82.49 -8.5,-115.38 13.04,-57.25 72.85,-81.36 126.14,-99.5 -0.84,19.86 -9.92,39.13 -6.8,58.96 45.35,-37.12 109.71,-61.51 109.41,-132.37 18.16,28.34 24.38,60.37 26.64,92.12 62.09,-52.16 97.52,-125.28 113.39,-203.23 39.11,80.79 10.49,178 -51.87,237.82 52.44,-24.66 90.44,-70.3 124.44,-115.66 13.04,51.88 -29.21,104.88 -7.65,145.43 11.05,16.43 56.12,-16.73 88.44,-30.91 -18.98,58.39 -75.12,79.09 -120.48,116.23 -4.53,7.65 -9.06,19.27 -1.41,27.5 5.1,5.95 11.05,10.77 17.29,15.29 -17.57,9.37 -32.88,17.02 -46.2,22.96 -6.52,-7.64 -16.45,-14.16 -27.5,-17.57" /><path
         id="path146"
         style="fill:#000000;fill-opacity:1;fill-rule:nonzero;stroke:none"
         d="m 1372.42,1466.73 c -37.42,37.42 -89.57,50.46 -123.31,92.13 0.85,-11.63 -6.52,-24.1 -1.98,-35.44 -37.14,29.48 -70.58,67.18 -104.04,100.92 1.14,-19.56 -5.95,-35.72 -0.85,-55.28 -23.25,34.58 -36.84,69.45 -49.61,107.43 12.48,-72.85 47.62,-189.35 145.71,-235.27 1.14,-0.57 -78.53,81.35 -89.02,144 22.41,-60.1 141.18,-121.32 148.27,-118.77 -18.43,16.72 -35.73,35.71 -42.82,61.22 23.26,-24.66 64.08,-42.51 92.98,-65.48 6.23,-3.68 12.47,-8.5 18.71,-15.3 5.68,-6.24 15.6,-15.59 24.94,-28.07 0,15.88 -5.94,32.6 -18.98,47.91" /><path
         id="path148"
         style="fill:#f6d4b3;fill-opacity:1;fill-rule:evenodd;stroke:none"
         d="m 1411.82,1427.05 c -24.38,-42.25 -5.95,-111.41 -5.95,-111.41 l 26.64,-5.94 c 34.03,1.69 53.59,65.76 50.45,107.43 -1.69,22.39 -15.01,35.72 -30.89,36.85 -13.88,0.84 -29.19,-7.37 -40.25,-26.93" /><path
         id="path150"
         style="fill:#000000;fill-opacity:1;fill-rule:nonzero;stroke:none"
         d="m 1454.34,1417.98 c 1.98,-2.83 -18.43,-7.09 -23.23,-26.08 -3.98,-18.71 5.37,-35.15 3.4,-35.72 -1.15,-1.98 -15.6,13.61 -11.07,37.71 7.94,25.22 32.33,25.22 30.9,24.09" /><path
         id="path152"
         style="fill:#000000;fill-opacity:1;fill-rule:nonzero;stroke:none"
         d="m 1784,1269.73 c 3.41,1.13 -0.57,-67.46 -56.12,-124.72 -24.93,-29.2 -51.59,-53.01 -74.54,-64.07 -21.84,-12.47 -33.46,-22.96 -34.03,-22.11 -0.29,0 10.78,11.62 32.6,24.66 22.39,11.91 47.63,35.15 72.86,64.35 54.43,56.69 60.09,122.46 59.23,121.89" /><path
         id="path154"
         style="fill:#000000;fill-opacity:1;fill-rule:nonzero;stroke:none"
         d="m 1704.07,1058.26 c 0.57,-0.85 -13.61,-14.17 -34.02,-27.5 -20.69,-14.45 -42.81,-12.47 -42.23,-10.77 0.28,0.85 19.83,0.57 39.97,14.46 19.83,13.04 35.43,24.94 36.28,23.81" /><path
         id="path156"
         style="fill:#000000;fill-opacity:1;fill-rule:nonzero;stroke:none"
         d="m 1760.76,1011.49 c 0.85,-0.57 -21.83,-20.412 -56.12,-32.599 -34.31,-12.192 -64.07,-11.34 -64.07,-10.493 0,1.422 29.2,2.84 62.65,14.743 33.73,11.629 56.69,29.479 57.54,28.349" /><path
         id="path158"
         style="fill:#f6d4b3;fill-opacity:1;fill-rule:evenodd;stroke:none"
         d="m 1399.63,1117.5 c -40.54,-54.7 5.67,-89.29 5.67,-89.29 -11.06,-31.464 9.64,-79.085 9.64,-79.085 0,0 176.6,-65.48 185.95,-34.012 9.36,31.461 -16.16,156.747 -44.22,189.067 -16.43,19 -53.29,39.12 -89.58,41.39 -25.51,1.7 -50.45,-5.39 -67.46,-28.07" /><path
         id="path160"
         style="fill:#000000;fill-opacity:1;fill-rule:nonzero;stroke:none"
         d="m 1416.76,951.016 c 11.3,-4.121 116.38,-42.051 162.36,-42.051 7.95,0 17.79,1.18 19.47,6.84 9.36,31.492 -16.97,155.975 -43.73,186.795 -15.57,17.99 -51.66,38.29 -87.9,40.56 -2.35,0.16 -4.67,0.23 -6.99,0.23 -25.14,0 -44.8,-9.19 -58.42,-27.34 -38.57,-52.05 3.39,-84.55 5.2,-85.91 0.84,-0.63 1.17,-1.75 0.83,-2.73 -9.78,-27.824 6.42,-69.605 9.18,-76.394 m 162.36,-46.871 0,0 c -49.23,0 -160.31,40.972 -165.02,42.722 -0.61,0.219 -1.11,0.688 -1.36,1.297 -0.85,1.941 -20.29,47.313 -10.24,79.246 -7.52,6.54 -42.22,41.03 -4.8,91.53 14.36,19.16 35.9,29.27 62.27,29.27 2.42,0 4.86,-0.07 7.29,-0.25 37.55,-2.34 75.03,-23.5 91.24,-42.2 28.16,-32.44 54.56,-158.174 44.7,-191.322 -2.06,-6.93 -9.94,-10.293 -24.08,-10.293" /><path
         id="path162"
         style="fill:#f6d4b3;fill-opacity:1;fill-rule:evenodd;stroke:none"
         d="m 1439.6,1037.29 c -43.37,-19.84 -24.38,-52.724 -24.38,-52.724 -40.53,-36.57 7.93,-61.519 7.93,-61.519 4.83,-44.5 47.35,-41.672 47.35,-41.672 -5.68,-43.078 32.88,-45.07 32.88,-45.07 67.46,-21.539 109.7,53.582 98.08,102.039 -11.34,48.48 -44.22,61.242 -44.22,61.242 0,0 -1.42,25.504 -17.29,39.394 -7.09,6.52 -19.29,10.77 -34.31,11.63 -18.7,1.14 -41.95,-2.56 -66.04,-13.32" /><path
         id="path164"
         style="fill:#000000;fill-opacity:1;fill-rule:nonzero;stroke:none"
         d="m 1470.5,883.789 c 0.66,0 1.3,-0.262 1.76,-0.762 0.49,-0.527 0.72,-1.25 0.63,-1.949 -1.7,-12.91 0.55,-23.187 6.67,-30.527 9.1,-10.953 23.8,-11.832 23.95,-11.84 0.2,-0.012 0.41,-0.051 0.6,-0.113 29.04,-9.25 57,-0.207 76.19,24.132 16.89,21.399 24.45,51.579 18.81,75.047 -10.89,46.571 -42.43,59.434 -42.75,59.551 -0.87,0.352 -1.48,1.18 -1.52,2.11 -0.02,0.25 -1.58,24.692 -16.48,37.732 -6.76,6.22 -18.71,10.23 -32.85,11.03 -2.1,0.13 -4.26,0.19 -6.47,0.19 -13.08,0 -33.84,-2.31 -58.45,-13.31 -13.85,-6.33 -22.51,-14.63 -25.71,-24.68 -4.16,-13.009 2.37,-24.533 2.44,-24.642 0.56,-0.969 0.37,-2.219 -0.48,-3 -11.34,-10.219 -16.45,-20.348 -15.19,-30.09 2.17,-16.738 22.4,-27.379 22.61,-27.469 0.72,-0.371 1.2,-1.09 1.29,-1.89 3.98,-36.711 34.26,-39.559 43.44,-39.559 1.88,0 1.4,0.039 1.51,0.039 m 56.16,-53.68 0,0 c -7.72,0 -15.71,1.289 -23.73,3.829 -2.47,0.171 -17.31,1.792 -27.07,13.511 -6.57,7.891 -9.28,18.481 -8.06,31.512 -9.27,0.25 -42.02,3.937 -46.89,42.566 -4.68,2.672 -21.83,13.543 -24.03,30.493 -1.43,11 3.74,22.121 15.38,33.078 -1.89,4.082 -5.8,14.769 -1.97,26.772 3.63,11.38 13.16,20.67 28.31,27.6 20.11,8.99 41.01,13.74 60.44,13.74 2.31,0 4.57,-0.05 6.75,-0.2 15.45,-0.88 28.16,-5.23 35.78,-12.26 14.35,-12.54 17.38,-33.7 17.95,-39.54 6.62,-3.093 34,-18.319 44.28,-62.3 5.96,-24.851 -1.96,-56.652 -19.72,-79.16 -15.06,-19.109 -35.46,-29.641 -57.42,-29.641" /><path
         id="path166"
         style="fill:#000000;fill-opacity:1;fill-rule:nonzero;stroke:none"
         d="m 1469.08,1009.22 c 0.27,-1.7 1.7,-14.462 -20.14,-22.392 -17.57,-6.23 -33.43,-4.527 -33.73,-2.269 0,2.269 14.47,-1.411 31.76,5.949 19.83,8.793 21.53,21.262 22.11,18.712" /><path
         id="path168"
         style="fill:#000000;fill-opacity:1;fill-rule:nonzero;stroke:none"
         d="m 1528.32,982.859 c 2.83,-0.277 -10.49,-29.476 -43.94,-44.5 -32.03,-15.589 -60.93,-17.308 -61.23,-15.308 -0.28,2.539 29.77,3.969 60.1,18.711 31.47,14.168 43.37,42.218 45.07,41.097" /><path
         id="path170"
         style="fill:#000000;fill-opacity:1;fill-rule:nonzero;stroke:none"
         d="m 1541.37,909.16 c 1.97,-1.129 -9.36,-17.289 -31.18,-24.66 -21.26,-7.09 -39.7,-5.391 -39.7,-3.121 0,2.269 18.44,1.422 38,7.941 20.12,6.52 30.9,21.258 32.88,19.84" /><path
         id="path172"
         style="fill:#000000;fill-opacity:1;fill-rule:nonzero;stroke:none"
         d="m 1552.99,858.699 c 2.55,-1.129 -5.67,-14.168 -21.54,-18.988 -15.03,-5.391 -27.79,-5.668 -28.07,-3.398 -0.57,2.257 13.04,2.828 26.92,8.218 14.47,4.532 20.71,15.02 22.69,14.168" /><path
         id="path174"
         style="fill:#000000;fill-opacity:1;fill-rule:nonzero;stroke:none"
         d="m 1461.43,1065.91 c 0.28,-2.83 -16.72,-1.13 -32.04,-11.34 -15.59,-9.92 -22.1,-27.49 -24.09,-26.36 -2.26,0.57 2.56,18.42 20.7,30.05 17.86,11.62 36,9.35 35.43,7.65" /><path
         id="path176"
         style="fill:#978376;fill-opacity:1;fill-rule:evenodd;stroke:none"
         d="m 594.59,625.691 c 0,0 5.672,-9.636 -12.469,-14.168 -18.141,-4.539 -143.723,-11.058 -259.941,26.36 -116.219,37.422 -162.141,50.461 -154.77,76.25 7.371,25.801 94.961,432.567 76.531,631.277 -18.421,198.72 -83.332,257.67 -17.57,369.35 66.051,111.69 373.039,177.17 583.367,9.37 21.832,-21.56 62.934,-321.46 1.703,-552.49 -61.23,-231.019 -153.351,-445.038 -211.75,-531.206 0,0 1.989,-9.641 -5.101,-14.743" /><path
         id="path178"
         style="fill:#826b5e;fill-opacity:1;fill-rule:evenodd;stroke:none"
         d="m 333.238,1305.72 c 11.91,-96.66 2.547,-197.86 -6.8,-299.06 -1.141,-80.765 -50.18,-151.637 -64.629,-233.847 -4.25,-10.211 0.847,-29.2 6.519,-30.899 104.027,-66.332 223.078,-83.621 345.258,-79.652 -4.82,-7.938 -9.641,-15.309 -13.891,-21.821 0,0 1.981,-9.648 -5.109,-14.75 0,0 5.672,-9.636 -12.469,-14.168 -18.14,-4.539 -143.711,-11.05 -259.929,26.36 -116.231,37.41 -162.153,50.461 -154.782,76.25 7.371,25.789 94.961,432.567 76.539,631.277 -0.277,3.68 -0.847,7.37 -1.136,11.05 46.488,-2.55 88.16,-17.01 90.429,-50.74" /><path
         id="path180"
         style="fill:#826b5e;fill-opacity:1;fill-rule:evenodd;stroke:none"
         d="m 464.199,1343.99 c -7.09,-223.36 -84.191,-496.904 -117.351,-554.455 0,0 65.761,284.325 77.101,530.925 10.199,221.67 -32.32,382.97 -52.441,469.15 15.019,4.25 21.82,10.77 32.883,3.39 2.828,-1.7 67.457,-199.84 59.808,-449.01" /><path
         id="path182"
         style="fill:#a08f85;fill-opacity:1;fill-rule:evenodd;stroke:none"
         d="M 783.379,1217.29 C 740.289,997.035 619.25,736.523 577.02,683.805 c 0,0 111.679,272.98 162.988,515.335 46.199,217.99 32.883,402.52 26.93,490.68 15.871,1.98 20.98,-11.62 30.902,-20.41 2.258,-2.27 34.008,-206.64 -14.461,-452.12" /><path
         id="path184"
         style="fill:#000000;fill-opacity:1;fill-rule:nonzero;stroke:none"
         d="m 592.66,628.984 c -0.828,-0.421 -1.488,-1.199 -1.801,-2.129 -0.32,-0.953 -0.257,-1.972 0.211,-2.89 0.012,-0.012 0.832,-1.641 0.231,-3.152 -0.821,-1.637 -3.942,-4.09 -10.078,-5.559 -5.313,-1.399 -24.442,-3.52 -55.41,-3.52 -41.204,0.02 -122.282,3.899 -202.34,29.86 l -20.68,6.531 c -94.473,30.309 -137.582,44.148 -131.652,65.039 6.742,22.93 95.269,432.786 76.621,632.466 -6.481,70.76 -19.129,124.51 -29.289,167.71 l -0.571,2.43 c -18.422,79.21 -29.531,127.02 11.969,197.2 28.43,48.51 103.922,87.93 197.02,102.89 17.941,2.93 46.711,6.43 81.91,6.43 78.519,0 194,-17.5 298.121,-100.74 21.308,-21.03 61.289,-320.24 0.777,-549.01 C 746.152,939.926 652.84,725.895 596.289,642.645 c -0.277,-0.403 -0.359,-0.403 -0.359,-0.879 -0.278,-0.864 -0.207,-1.543 0,-2.051 0.23,-2.531 0.25,-8.012 -3.27,-10.731 M 812.383,1727.13 c -83.352,66.41 -191.051,102.98 -303.281,102.98 -27.782,0 -55.891,-2.25 -83.559,-6.66 -95.352,-15.48 -173.012,-56.43 -202.66,-106.9 -42.981,-73.06 -30.75,-125.03 -12.184,-203.87 9.5,-40.37 22.5,-95.63 29.434,-167.78 18.269,-198.44 -68.59,-601.974 -76.453,-629.806 -8.008,-27.399 31.121,-40.059 135.691,-73.86 l 21.512,-6.781 c 81.039,-26.301 163.578,-30.23 205.566,-30.23 28.031,0 49.801,1.793 56.891,3.55 7.801,2.192 12.742,5.36 15.07,9.692 0.129,0.23 0.211,0.699 0.262,1.121 0.68,1.656 1.168,3.93 0.461,6.437 1.387,1.379 2.547,2.93 3.367,4.582 1.52,3.84 1.492,7.75 1.16,10.008 28.09,41.801 64.192,113.981 99.172,198.321 30.488,73.16 74.731,190.296 112.359,332.806 61.211,230.91 19.282,534.62 -2.808,556.39" /><path
         id="path186"
         style="fill:#000000;fill-opacity:1;fill-rule:evenodd;stroke:none"
         d="m 401.836,1773.73 c 1.129,-2.55 101.48,-269.29 -11.059,-824.605 0,-0.848 -0.851,-1.418 -1.703,-1.129 -0.847,0 -1.41,0.852 -1.41,1.41 112.531,554.754 12.473,820.914 11.344,823.474 -0.293,0.85 0.277,1.69 0.847,1.69 0.852,0.29 1.7,0 1.981,-0.84" /><path
         id="path188"
         style="fill:#000000;fill-opacity:1;fill-rule:evenodd;stroke:none"
         d="m 478.652,1568.5 c 0,-0.86 -0.851,-1.43 -1.699,-1.43 -0.281,0.3 -30.051,3.13 -47.062,-5.09 -0.559,-0.57 -1.7,-0.28 -1.981,0.28 -0.277,0.85 0,1.7 0.57,1.99 17.864,8.79 47.622,5.66 48.75,5.66 0.852,0 1.422,-0.84 1.422,-1.41" /><path
         id="path190"
         style="fill:#000000;fill-opacity:1;fill-rule:evenodd;stroke:none"
         d="m 469.301,1606.2 c 0,-0.57 -0.848,-1.13 -1.699,-1.13 -0.282,0 -35.149,1.98 -49.321,-14.75 -0.57,-0.56 -1.418,-0.56 -2.269,-0.28 -0.571,0.57 -0.571,1.42 -0.282,1.99 15.301,17.57 50.743,15.86 52.153,15.59 0.847,0 1.418,-0.57 1.418,-1.42" /><path
         id="path192"
         style="fill:#000000;fill-opacity:1;fill-rule:evenodd;stroke:none"
         d="m 765.805,1692.37 c 0.851,-0.28 1.133,-1.13 0.57,-1.98 -0.289,-0.57 -1.141,-0.85 -1.988,-0.57 -0.852,0.57 -100.063,45.07 -146.551,36.85 -0.852,0 -1.422,0.28 -1.699,1.13 0,0.85 0.277,1.42 1.129,1.7 47.339,8.22 144.289,-35.43 148.539,-37.13" /><path
         id="path194"
         style="fill:#000000;fill-opacity:1;fill-rule:nonzero;stroke:none"
         d="m 394.605,1882.52 c -2.421,-6.57 -1.941,-13.3 1.411,-19.49 l 13.879,-24.92 c 4.898,-8.89 15.418,-14.62 26.808,-14.62 4.52,0 8.871,0.89 12.942,2.63 7.121,3.16 12.539,8.65 14.839,15.04 2.579,6.71 2.141,13.57 -1.269,19.86 l -13.879,24.92 c -4.863,8.83 -15.262,14.52 -26.5,14.52 -4.621,0 -9.063,-0.94 -13.223,-2.79 -6.609,-2.8 -11.879,-7.91 -14.519,-14.08 -0.11,-0.43 -0.301,-0.79 -0.489,-1.07 m 41.829,-67.62 c -4.2,0 -8.36,0.63 -12.36,1.88 -9.808,3.06 -17.66,9.31 -22.101,17.61 l -13.86,24.61 c -4.59,8.27 -5.25,17.74 -1.847,26.7 3.437,8.77 10.629,15.98 19.738,19.79 5.301,2.36 11.012,3.56 16.91,3.56 14.672,0 27.828,-7.42 34.328,-19.37 l 13.871,-24.63 c 4.59,-8.27 5.25,-17.74 1.852,-26.7 -3.32,-8.76 -10.231,-15.79 -19.43,-19.78 -5.383,-2.43 -11.152,-3.67 -17.101,-3.67" /><path
         id="path196"
         style="fill:#000000;fill-opacity:1;fill-rule:nonzero;stroke:none"
         d="m 426.441,1878.03 c -1.769,0 -3.543,-0.37 -5.25,-1.08 -2.812,-1.17 -4.91,-3.27 -6.07,-6.07 -0.859,-2.36 -0.621,-5.01 0.688,-7.19 l 6.562,-11.99 c 1.289,-2.36 3.508,-4.08 6.59,-5.11 2.879,-0.88 6.41,-0.73 9.359,0.51 2.789,1.28 4.852,3.47 5.739,6.16 0.793,2.37 0.55,4.93 -0.688,7.19 l -6.512,11.9 c -1.371,2.28 -3.789,4.17 -6.589,5.1 -1.231,0.38 -2.532,0.58 -3.829,0.58 m 6.481,-40.7 c -2.25,0 -4.461,0.33 -6.57,0.99 -5.153,1.52 -9.5,4.94 -11.891,9.38 l -6.52,11.89 c -2.601,4.55 -2.953,9.59 -0.972,14.52 1.57,4.42 5.332,8.33 10.293,10.65 5.449,2.05 10.707,2.22 15.629,0.68 5.019,-1.17 9.41,-4.5 11.879,-9.09 l 6.519,-11.89 c 2.41,-4.22 2.902,-9.11 1.359,-13.75 -1.648,-5.01 -5.57,-9.18 -10.726,-11.44 -2.703,-1.26 -5.832,-1.94 -9,-1.94" /><path
         id="path198"
         style="fill:#000000;fill-opacity:1;fill-rule:nonzero;stroke:none"
         d="m 358.508,1965.51 c -10.422,0 -19.871,-4.6 -25.281,-12.32 -4,-5.7 -5.352,-12.48 -3.813,-19.1 1.652,-7.08 6.344,-13.05 13.203,-16.8 l 26.36,-14.46 c 4.75,-2.69 10.199,-4.1 15.789,-4.1 10.218,0 19.91,4.76 25.3,12.44 4.129,5.67 5.442,12.78 3.622,19.54 -1.813,6.68 -6.43,12.4 -13.032,16.09 l -26.359,14.74 c -4.742,2.59 -10.199,3.97 -15.789,3.97 m 26.226,-75.31 c -7.207,0 -14.25,1.83 -20.367,5.31 l -26.062,14.43 c -9.028,4.97 -15.219,12.85 -17.45,22.17 -2.109,8.86 -0.328,18.02 5.012,25.81 7.039,10.1 19.258,16.12 32.668,16.12 7.18,0 14.223,-1.79 20.371,-5.17 l 26.371,-14.74 c 8.77,-5.01 14.969,-12.8 17.039,-21.38 2.391,-8.94 0.649,-18.3 -4.89,-26.32 -7.102,-10.16 -19.321,-16.23 -32.692,-16.23" /><path
         id="path200"
         style="fill:#000000;fill-opacity:1;fill-rule:nonzero;stroke:none"
         d="m 365.684,1945.68 c -4.258,0 -8.129,-1.86 -10.36,-4.98 -0.429,-0.47 -0.679,-1.22 -0.808,-1.62 -1.891,-4.51 0.039,-9.45 4.629,-12.2 l 12.378,-6.76 c 1.981,-1.07 4.219,-1.64 6.469,-1.64 l 0.012,0 c 4.051,0 7.781,1.83 9.969,4.9 1.511,2.17 2.011,4.85 1.332,7.32 -0.692,2.77 -2.481,5.05 -5.063,6.45 l -12.519,7.11 c -1.75,0.92 -3.868,1.42 -6.039,1.42 m 12.289,-35.73 c -3.848,0 -7.66,0.98 -11.028,2.83 l -12.472,6.8 c -4.899,2.77 -8.2,7.07 -9.328,12.12 -1.071,4.76 -0.059,9.64 2.839,13.77 3.852,5.47 10.43,8.74 17.602,8.74 3.719,0 7.418,-0.9 10.707,-2.6 l 12.562,-7.13 c 4.528,-2.58 7.75,-6.73 9.079,-11.67 1.289,-4.85 0.359,-9.88 -2.621,-14.19 -3.821,-5.43 -10.297,-8.67 -17.34,-8.67" /><path
         id="path202"
         style="fill:#000000;fill-opacity:1;fill-rule:nonzero;stroke:none"
         d="m 396.133,1925.33 c -1.192,0 -2.219,-0.22 -3.141,-0.68 -1.937,-0.75 -3.14,-2.34 -3.679,-3.62 -0.598,-1.6 -0.559,-3.11 0.152,-4.37 l 25.539,-46.53 c 1.078,-1.48 2.418,-2.49 4.32,-3.13 1.731,-0.35 3.989,-0.33 5.528,0.44 1.851,0.71 3.031,1.89 3.64,3.51 0.641,1.71 0.602,3.22 -0.121,4.49 l -25.808,46.21 c -0.809,1.62 -2.141,2.72 -4.129,3.46 -0.61,0.11 -1.493,0.22 -2.301,0.22" /><path
         id="path204"
         style="fill:#a2a7b0;fill-opacity:1;fill-rule:evenodd;stroke:none"
         d="m 418.277,1849.69 c 3.969,-7.09 13.61,-9.92 21.828,-6.52 7.93,3.4 11.34,12.19 7.372,19.28 l -6.52,11.9 c -3.973,7.09 -13.609,9.92 -21.832,6.52 -7.937,-3.68 -11.34,-12.19 -7.367,-19.27 l 6.519,-11.91 z m -10.492,51.87 c 16.731,7.37 37.422,1.42 45.641,-13.89 l 13.609,-24.66 c 8.5,-15.02 1.41,-33.16 -15.59,-40.53 -16.73,-7.66 -37.14,-1.42 -45.64,13.6 l -13.61,24.95 c -8.218,15.02 -1.418,33.16 15.59,40.53" /><path
         id="path206"
         style="fill:#a2a7b0;fill-opacity:1;fill-rule:evenodd;stroke:none"
         d="m 369.238,1916.31 c 7.649,-4.25 17.571,-1.98 22.391,4.82 4.82,6.52 2.551,15.59 -5.102,19.84 l -12.468,6.8 c -7.653,4.26 -17.582,2.27 -22.391,-4.53 -4.82,-6.8 -2.27,-15.59 5.102,-19.84 l 12.468,-7.09 z m -39.691,39.12 c 9.93,14.17 30.902,18.71 47.062,9.64 l 26.36,-14.46 c 15.879,-8.79 20.699,-27.78 10.769,-41.95 -9.922,-14.18 -30.89,-18.43 -47.05,-9.64 l -26.36,14.74 c -15.879,8.79 -20.699,27.49 -10.781,41.67" /><path
         id="path208"
         style="fill:#a2a7b0;fill-opacity:1;fill-rule:evenodd;stroke:none"
         d="m 411.191,1868.4 c 2.829,-5.39 9.918,-7.37 15.59,-4.82 5.949,2.55 8.219,8.8 5.391,13.89 l -25.52,46.21 c -2.832,5.1 -9.922,7.37 -15.589,4.81 -5.954,-2.55 -8.223,-8.78 -5.383,-13.89" /><path
         id="path210"
         style="fill:#000000;fill-opacity:1;fill-rule:evenodd;stroke:none"
         d="m 418.559,1864.72 c 2.55,-0.57 5.101,-0.57 7.371,0.57 2.269,0.85 3.968,2.55 4.82,4.82 0.852,2.26 0.852,4.53 -0.281,6.52 l -25.797,46.2 c -1.133,2.27 -3.121,3.69 -5.391,4.54 -2.551,0.56 -5.101,0.56 -7.371,-0.57 -2.262,-0.85 -3.961,-2.84 -4.808,-4.82 -0.852,-2.27 -0.852,-4.54 0.277,-6.52 l 25.512,-46.49 c 1.418,-1.98 3.121,-3.4 5.668,-4.25 m -10.2,59.81 25.789,-46.2 c 1.422,-2.84 1.704,-6.24 0.571,-9.36 -1.141,-3.12 -3.688,-5.67 -6.809,-7.08 -7.082,-3.12 -15.301,-0.57 -18.699,5.66 l -25.52,46.21 c -1.703,2.83 -1.703,6.24 -0.562,9.35 l 0,0.29 c 1.41,2.83 3.68,5.38 6.801,6.8 6.8,2.83 15.308,0.57 18.429,-5.67" /><path
         id="path212"
         style="fill:#fdfdfd;fill-opacity:1;fill-rule:nonzero;stroke:none"
         d="m 594.957,1177.37 -1.473,-5.02 c 0.704,0.37 1.422,0.71 2.153,1.02 -0.223,1.04 -0.41,2.09 -0.571,3.15 -0.039,0.28 -0.082,0.57 -0.109,0.85 m 87.219,-152.42 c -3.11,0 -6.262,0.49 -9.309,1.49 l -53.582,17.58 c -5.879,1.93 -10.93,5.6 -14.558,10.42 -7.461,-10.41 -21.051,-15.17 -33.762,-10.95 l -43.367,14.46 c -15.282,5.09 -23.782,21.35 -19.243,36.8 l 56.692,193.04 c 4.57,15.55 20.738,24.64 36.391,20.47 l 56.41,-15.03 c 35.367,-9.36 61.828,-26.29 78.609,-50.32 7.719,-11.57 12.527,-23.84 14.648,-37.03 0.2,-1.26 0.321,-2.54 0.372,-3.82 0.378,-12.26 -1.211,-24.24 -4.731,-35.58 -5.351,-16.9 -14.5,-31.05 -27.238,-42.27 -7.91,-7.31 -17.012,-13.02 -26.91,-16.97 l 17.148,-40.79 c 4.551,-10.8 2.359,-23.25 -5.582,-31.87 -5.75,-6.24 -13.769,-9.63 -21.988,-9.63" /><path
         id="path214"
         style="fill:#fdfdfd;fill-opacity:1;fill-rule:nonzero;stroke:none"
         d="m 758.438,1130.5 c 4.949,-0.18 9.941,-1.05 14.859,-2.59 7.012,-2.07 13.672,-5.96 18.93,-11.52 -0.2,0.63 -0.399,1.23 -0.61,1.79 -2.769,7.04 -7.801,11.41 -16.59,14.06 -0.449,0.14 -0.89,0.29 -1.339,0.44 -2.239,0.79 -4.848,1.34 -6.989,1.46 -9.121,0.5 -17.511,5.15 -22.781,12.61 -1.07,1.51 -1.98,3.11 -2.738,4.77 l -1.172,0.35 -3.289,-22.99 c 2.961,1.42 6.168,2.36 9.539,2.75 4.16,0.5 8.308,0.07 12.18,-1.13 m -27.77,-121.7 c -0.391,0 -0.77,0.01 -1.168,0.02 l -36.852,1.42 c -8.46,0.33 -16.39,4.22 -21.808,10.73 -5.434,6.51 -7.84,15.01 -6.641,23.39 l 21.539,150.52 c 1.239,8.64 6.192,16.31 13.559,21 7.371,4.67 16.43,5.9 24.762,3.37 l 55.839,-17.01 c 7.879,-2.39 14.04,-7.75 17.649,-14.47 23.672,-8.59 40.883,-25.19 49.953,-48.28 8.406,-22.69 7.777,-46.56 -1.672,-71.49 -1.551,-4.48 -4.058,-8.66 -7.289,-11.89 -6.312,-6.3 -15.121,-9.5 -23.973,-8.62 l -44.777,4.25 c -1.289,0.12 -2.562,0.32 -3.812,0.61 l -6.68,-22.25 c -3.809,-12.68 -15.481,-21.3 -28.629,-21.3" /><path
         id="path216"
         style="fill:#fdfdfd;fill-opacity:1;fill-rule:nonzero;stroke:none"
         d="m 873.59,1093.95 c 5.211,-0.11 10.461,-0.99 15.64,-2.61 7.719,-2.48 14.129,-6.54 19,-11.77 -0.203,0.68 -0.429,1.36 -0.671,2.04 -1.848,4.93 -5.321,10.57 -16.731,14.21 -3.359,1.11 -5.808,1.63 -8.109,1.75 -9.129,0.48 -17.539,5.11 -22.828,12.57 -1.082,1.52 -2.012,3.13 -2.774,4.81 l -1.168,0.35 -3.359,-23.44 c 3.277,1.62 6.89,2.66 10.668,3 3.551,0.3 7.031,-0.02 10.332,-0.91 M 846.891,971.945 c -0.461,0 -0.922,0.008 -1.391,0.032 l -37.133,1.699 c -8.418,0.39 -16.289,4.308 -21.656,10.808 -5.383,6.5 -7.773,14.961 -6.57,23.316 l 21.539,150.52 c 1.238,8.63 6.187,16.29 13.558,20.98 7.371,4.68 16.43,5.9 24.762,3.38 l 55.84,-17 c 7.828,-2.39 13.98,-7.72 17.59,-14.39 24.07,-8.79 41.48,-25.63 50.168,-48.79 8.222,-22.2 7.652,-46.14 -1.649,-71.32 -0.211,-0.55 -0.429,-1.11 -0.66,-1.66 -1.621,-3.91 -3.898,-7.36 -6.809,-10.27 -6.351,-6.34 -15.261,-9.46 -24.16,-8.59 l -44.793,4.54 c -1.097,0.1 -2.187,0.28 -3.269,0.5 l -6.738,-22.454 c -3.809,-12.68 -15.493,-21.301 -28.629,-21.301" /><path
         id="path218"
         style="fill:#fdfdfd;fill-opacity:1;fill-rule:nonzero;stroke:none"
         d="m 937.113,999.043 0.16,-0.211 c -0.578,0 -1.007,-0.129 -1.128,-0.18 -0.872,-0.418 -1.551,-1.121 -1.79,-1.558 l 1.52,-0.59 3.32,1.32 c -0.519,0.469 -1.242,0.938 -2.082,1.219 m -1.519,-6.578 c 1.101,-0.223 2.879,0.09 2.89,0.09 0.309,0.179 0.821,0.687 1.219,1.207 l -3.117,1.043 -2.172,-1.043 c 0.199,-0.399 0.719,-0.969 1.18,-1.297 m 1.679,-53.442 0,0 c -6.621,0 -13.257,1.18 -19.738,3.5 -13.609,4.532 -24.769,14.59 -31.59,28.848 -6.66,14.524 -7.23,29.509 -1.882,43.809 5.101,14.15 15.32,25.24 29.429,31.71 14.293,6.54 29.684,6.95 43.871,1.2 13.93,-5.36 24.653,-15.21 31.012,-28.52 0.219,-0.46 0.43,-0.94 0.629,-1.41 5.59,-13.43 6.148,-27.726 1.621,-41.355 -0.191,-0.551 -0.391,-1.102 -0.609,-1.672 -5.723,-14.262 -15.633,-24.719 -29.461,-31.078 -7.879,-3.422 -15.52,-5.032 -23.282,-5.032" /><path
         id="path220"
         style="fill:#fdfdfd;fill-opacity:1;fill-rule:nonzero;stroke:none"
         d="m 1003.06,971.199 c 0.12,0 1.66,-0.129 2.29,0.024 0.98,0.617 1.83,1.609 2.09,2.207 0.09,0.222 0.08,1.871 -0.37,2.793 -0.05,0.027 -1.08,0.937 -1.72,1.187 -0.3,0.11 -2.38,0.102 -2.62,0 -0.39,-0.168 -1.33,-1.211 -1.59,-1.91 -0.24,-0.66 -0.25,-1.988 0,-2.629 0.25,-0.441 1.23,-1.32 1.92,-1.672 m 0.98,-53.429 -0.01,0 c -6.643,0.011 -13.264,1.222 -19.675,3.64 -14.179,5.313 -25.046,15.481 -31.437,29.43 -6.371,13.301 -7.039,28.769 -1.66,43.09 5.269,14.67 15.648,25.82 29.898,31.91 13.832,6.21 28.564,6.73 42.604,1.46 14.18,-5.11 25.27,-15.34 31.73,-29.448 6.44,-14.071 7.01,-29.059 1.65,-43.352 -5.36,-14.34 -15.99,-25.578 -29.92,-31.66 -7.18,-3.277 -15.14,-5.07 -23.18,-5.07" /><path
         id="path222"
         style="fill:#fdfdfd;fill-opacity:1;fill-rule:nonzero;stroke:none"
         d="m 1071.35,896.633 0,0 c -6.13,0 -12.43,1.027 -18.71,3.039 -0.61,0.18 -1.2,0.41 -1.8,0.617 -14.04,5.5 -24.77,15.641 -31.03,29.313 -6.37,13.308 -7.06,28.328 -1.79,42.98 5.53,14.758 15.71,25.731 29.58,32.078 13.76,6.3 28.9,6.79 43.34,1.38 14.39,-5.39 25.36,-15.567 31.72,-29.431 6.4,-13.339 7.08,-28.379 1.79,-43.039 -0.16,-0.437 -0.34,-0.89 -0.52,-1.308 -5.79,-13.942 -15.66,-24.172 -29.3,-30.43 -7.04,-3.371 -15.02,-5.199 -23.28,-5.199" /><path
         id="path224"
         style="fill:#000000;fill-opacity:1;fill-rule:nonzero;stroke:none"
         d="m 648.438,1202.12 c -0.848,0 -1.711,-0.07 -2.571,-0.21 -8.148,-0.94 -12.808,-4.88 -15.367,-12.8 -0.883,-2.42 -1.16,-4.82 -0.922,-7.7 1.11,-7.19 5.18,-11.87 12.789,-14.41 1.801,-0.43 4.973,-1.14 7.813,-0.66 8.109,1.16 12.82,5.11 15.386,12.83 0.633,2.33 0.852,4.84 0.622,7.66 -1.11,7.42 -5.141,12.09 -12.661,14.37 -1.769,0.64 -3.41,0.92 -5.089,0.92 m -0.29,-45.86 c -3.218,0 -6.261,0.65 -8.55,1.22 -11.43,3.8 -18.18,11.63 -19.871,22.78 -0.399,4.69 0.05,8.42 1.382,12.07 3.707,11.47 11.59,18.05 23.379,19.39 3.5,0.61 8.282,0.3 12.18,-1.11 10.891,-3.29 17.672,-11.16 19.371,-22.65 0.359,-4.26 0.027,-7.97 -0.973,-11.66 -3.839,-11.54 -11.668,-18.1 -23.359,-19.77 -1.109,-0.18 -2.34,-0.27 -3.559,-0.27 m -15.5,-79.93 40.75,-13.37 -31.691,75.32 9.09,-1.73 c 5.191,-0.98 10.762,-1.02 16.223,-0.24 11.218,1.56 21,6.18 29.07,13.73 8.18,7.13 13.976,16.1 17.367,26.79 2.391,7.73 3.43,15.64 3.172,24.14 -1.289,7.71 -4.191,15.13 -8.813,22.07 -11.867,16.99 -31.718,29.3 -58.937,36.51 l -51.742,13.78 -53.981,-183.81 34.25,-11.42 30.481,83.74 24.761,-85.51 z m 58.321,-29.58 -66.403,21.79 -17.757,61.33 -23.371,-64.23 -52.5,17.49 59.402,202.28 61.09,-16.27 c 29.539,-7.82 51.269,-21.45 64.578,-40.51 5.422,-8.12 8.922,-17.08 10.469,-26.71 0.363,-10.26 -0.821,-19.23 -3.559,-28.06 -3.961,-12.48 -10.738,-22.96 -20.191,-31.18 -9.457,-8.86 -21.047,-14.34 -34.321,-16.19 -3.558,-0.51 -7.187,-0.7 -10.707,-0.63" /><path
         id="path226"
         style="fill:#e22228;fill-opacity:1;fill-rule:evenodd;stroke:none"
         d="m 645.051,1206.8 c 3.398,0.57 6.797,0.28 9.918,-0.85 9.359,-2.84 14.738,-9.07 16.16,-18.71 0.281,-3.4 0,-6.52 -0.852,-9.64 -3.117,-9.35 -9.359,-14.74 -19.277,-16.15 -3.402,-0.57 -6.801,0 -10.199,0.85 -9.363,3.11 -14.742,9.35 -16.16,18.7 -0.282,3.41 0,6.52 1.129,9.64 3.121,9.64 9.359,15.03 19.281,16.16 m 37.129,-151.94 -32.313,76.82 c 5.953,-1.13 11.903,-1.13 17.863,-0.28 12.188,1.7 22.958,6.8 31.75,15.02 8.778,7.66 15.02,17.29 18.7,28.92 2.558,8.22 3.687,16.72 3.41,25.79 -1.422,8.79 -4.539,17.01 -9.641,24.66 -12.469,17.86 -32.879,30.9 -61.801,38.55 l -56.41,15.03 -56.687,-193.04 43.367,-14.46 26.93,73.99 21.261,-73.42" /><path
         id="path228"
         style="fill:#000000;fill-opacity:1;fill-rule:nonzero;stroke:none"
         d="m 699.492,1044.87 27.512,-1.06 21.219,70.6 5.14,-8.99 c 4.078,0.45 8.258,0 12.5,-1.32 4.207,-1.25 13.129,-5.43 12.41,-18.15 l 35.758,-3.39 c 5.699,16.16 6.02,30.67 0.981,44.28 -5.731,14.57 -16.77,24.46 -32.782,29.28 -4.699,1.67 -9.648,2.67 -14.148,2.92 l -6.262,0.35 3.223,10.93 -45.602,13.89 -19.949,-139.34 z m 34.809,-11.27 -46.188,1.78 23.141,161.69 66.09,-20.12 -2.563,-8.69 c 3.563,-0.6 7.16,-1.51 10.539,-2.71 18.852,-5.68 32.032,-17.54 38.961,-35.18 6.039,-16.32 5.481,-34.17 -1.648,-53.17 l 0,-1.15 -3.379,-3.95 -52.781,5.01 1.308,5.53 c 2.321,9.86 -2.32,11.23 -4.808,11.97 -3.602,1.13 -6.922,1.35 -10.129,0.7" /><path
         id="path230"
         style="fill:#e22228;fill-opacity:1;fill-rule:evenodd;stroke:none"
         d="m 817.676,1078.11 c 7.09,18.43 7.648,35.14 1.98,50.46 -6.23,15.86 -18.14,26.93 -36,32.31 -4.808,1.69 -10.199,2.83 -15.301,3.12 l 2.833,9.64 -55.84,17 -21.543,-150.51 36.851,-1.43 18.989,63.21 1.132,-1.98 c 4.539,1.14 9.071,0.86 13.61,-0.57 7.648,-2.27 10.488,-8.22 8.218,-17.86 l 44.79,-4.25 c 0,0 0.281,0.29 0.281,0.86" /><path
         id="path232"
         style="fill:#000000;fill-opacity:1;fill-rule:nonzero;stroke:none"
         d="m 815.426,1008.26 27.808,-1.28 21.461,71.44 4.809,-9.54 c 4.012,0.41 8.133,-0.05 12.301,-1.35 5.269,-1.7 13.172,-6.23 12.441,-18.18 l 35.91,-3.64 c 5.547,16.12 5.867,30.87 0.789,44.56 -5.429,14.48 -16.082,24.07 -32.57,29.31 -5.141,1.72 -9.809,2.65 -14.34,2.89 l -6.269,0.33 3.218,10.95 -45.609,13.89 -19.949,-139.38 z m 35.09,-11.537 -46.461,2.129 23.14,161.648 66.071,-20.12 -2.539,-8.67 c 3.457,-0.56 7.007,-1.46 10.726,-2.69 19.231,-6.12 32.301,-18 38.793,-35.29 6.059,-16.35 5.481,-34.48 -1.691,-53.91 -0.43,-1.05 -0.789,-2 -1.719,-2.92 l -1.66,-1.67 -52.789,5.35 1.34,5.53 c 2.148,8.89 -1.411,10.84 -4.922,11.96 -3.309,1.03 -6.532,1.3 -9.629,0.75" /><path
         id="path234"
         style="fill:#e22228;fill-opacity:1;fill-rule:evenodd;stroke:none"
         d="m 933.895,1041.54 c 6.8,18.43 7.371,35.15 1.703,50.46 -5.953,15.87 -17.864,26.64 -35.723,32.31 -5.098,1.7 -10.199,2.84 -15.59,3.12 l 2.84,9.64 -55.84,17.01 -21.551,-150.52 37.141,-1.71 18.992,63.22 0.848,-1.7 c 4.531,1.13 9.07,0.85 13.609,-0.57 7.934,-2.55 10.481,-8.5 8.223,-17.86 l 44.777,-4.53 c 0.293,0.28 0.293,0.56 0.571,1.13" /><path
         id="path236"
         style="fill:#000000;fill-opacity:1;fill-rule:nonzero;stroke:none"
         d="m 936.895,1017.27 c -2.879,0 -5.86,-0.7 -8.872,-2.07 -5.628,-2.59 -9.218,-6.47 -11.289,-12.2 -2.109,-5.625 -1.871,-11.055 0.7,-16.656 2.64,-5.528 6.621,-9.258 11.793,-10.969 2.796,-1.012 5.468,-1.488 8.046,-1.488 2.954,0 5.911,0.636 8.821,1.898 5.582,2.551 9.16,6.379 11.551,12.32 1.789,5.411 1.55,10.95 -0.829,16.665 -2.441,5.09 -6.461,8.71 -12.191,10.87 -2.68,1.11 -5.219,1.63 -7.73,1.63 m 0.378,-53.317 0,0 c -3.726,0 -7.527,0.692 -11.289,2.051 -7.711,2.562 -13.648,8 -17.539,16.141 -3.711,8.082 -4.039,16.23 -1.019,24.285 2.969,8.23 8.359,14.07 16.469,17.78 8.128,3.74 16.441,3.95 24.378,0.65 7.973,-3 13.942,-8.41 17.602,-16.06 3.391,-8.14 3.719,-16.163 1.078,-24.105 -3.406,-8.539 -8.867,-14.32 -16.808,-17.968 -4.258,-1.852 -8.559,-2.774 -12.872,-2.774" /><path
         id="path238"
         style="fill:#e22228;fill-opacity:1;fill-rule:evenodd;stroke:none"
         d="m 946.371,1020.28 c -6.801,2.83 -13.609,2.55 -20.41,-0.57 -6.801,-3.12 -11.34,-7.93 -13.891,-15.02 -2.547,-6.803 -2.269,-13.612 0.852,-20.413 3.121,-6.519 7.941,-11.339 14.738,-13.609 7.094,-2.551 13.891,-2.262 20.41,0.57 6.801,3.121 11.34,7.942 14.172,15.02 2.27,6.808 1.988,13.609 -0.851,20.412 -3.11,6.52 -8.219,11.06 -15.02,13.61" /><path
         id="path240"
         style="fill:#000000;fill-opacity:1;fill-rule:nonzero;stroke:none"
         d="m 1004.21,996.059 c -2.94,0 -5.882,-0.688 -8.999,-2.118 -5.523,-2.3 -9.16,-6.269 -11.293,-12.203 -2.09,-5.566 -1.859,-11.039 0.66,-16.297 2.61,-5.703 6.422,-9.293 12.012,-11.382 2.48,-0.938 4.99,-1.411 7.44,-1.411 3,0 6.09,0.711 9.16,2.122 5.37,2.339 9.24,6.468 11.3,11.968 2.09,5.571 1.86,10.992 -0.71,16.614 -2.58,5.628 -6.45,9.207 -12.19,11.277 -2.59,0.973 -4.98,1.43 -7.38,1.43 m -0.18,-53.329 -0.01,0 c -3.63,0 -7.309,0.68 -10.911,2.032 -7.98,2.976 -13.879,8.539 -17.519,16.476 -3.641,7.602 -3.992,15.903 -0.981,23.934 3.059,8.508 8.661,14.539 16.629,17.858 7.762,3.55 15.722,3.94 23.772,0.92 8.24,-2.97 14.08,-8.372 17.79,-16.47 3.68,-8.031 4.01,-16.171 0.99,-24.21 -3.03,-8.09 -8.75,-14.149 -16.55,-17.571 -4.3,-1.949 -8.77,-2.969 -13.21,-2.969" /><path
         id="path242"
         style="fill:#e22228;fill-opacity:1;fill-rule:evenodd;stroke:none"
         d="m 1013.27,999.297 c -6.81,2.553 -13.321,2.273 -20.137,-0.852 -6.793,-2.828 -11.32,-7.937 -13.883,-15.019 -2.551,-6.809 -2.258,-13.61 0.852,-20.129 3.121,-6.801 7.937,-11.328 14.73,-13.891 6.818,-2.551 13.618,-2.269 20.408,0.86 6.53,2.832 11.35,7.941 13.9,14.73 2.56,6.801 2.26,13.621 -0.85,20.41 -3.12,6.801 -7.93,11.34 -15.02,13.891" /><path
         id="path244"
         style="fill:#000000;fill-opacity:1;fill-rule:nonzero;stroke:none"
         d="m 1070.75,974.922 c -2.93,0 -5.76,-0.629 -8.65,-1.949 -5.45,-2.493 -9.15,-6.52 -11.3,-12.27 -2.08,-5.781 -1.87,-11.199 0.67,-16.512 2.49,-5.449 6.55,-9.257 12.07,-11.429 5.63,-1.77 11.4,-1.699 16.47,0.699 5.64,2.602 9.34,6.461 11.73,12.18 2.02,5.632 1.8,11.05 -0.75,16.371 -2.53,5.539 -6.54,9.23 -12.28,11.39 -2.72,1 -5.39,1.52 -7.96,1.52 m 0.6,-53.34 c -3.56,0 -7.3,0.629 -11.13,1.852 -8.3,3.226 -14.17,8.777 -17.73,16.546 -3.66,7.653 -4.02,15.801 -1.01,24.141 3.1,8.281 8.64,14.281 16.5,17.859 7.75,3.551 15.96,3.793 24.21,0.704 8.2,-3.063 14.19,-8.614 17.79,-16.461 3.67,-7.672 4.02,-15.821 1,-24.172 -3.43,-8.27 -8.89,-13.957 -16.76,-17.571 -4.02,-1.898 -8.37,-2.898 -12.87,-2.898" /><path
         id="path246"
         style="fill:#e22228;fill-opacity:1;fill-rule:evenodd;stroke:none"
         d="m 1080.45,978.035 c -6.8,2.551 -13.61,2.551 -20.41,-0.566 -6.8,-3.114 -11.34,-8.223 -13.89,-15.024 -2.55,-7.09 -2.27,-13.879 0.85,-20.41 3.12,-6.789 8.22,-11.328 14.74,-13.879 7.09,-2.277 13.89,-2.277 20.41,0.852 6.8,3.109 11.34,7.937 14.17,14.73 2.56,7.09 2.27,13.891 -0.85,20.41 -3.11,6.797 -8.22,11.34 -15.02,13.887" /></g></g></svg>