<?xml version="1.0" encoding="UTF-8" standalone="no"?>
<svg
   xmlns:dc="http://purl.org/dc/elements/1.1/"
   xmlns:cc="http://creativecommons.org/ns#"
   xmlns:rdf="http://www.w3.org/1999/02/22-rdf-syntax-ns#"
   xmlns:svg="http://www.w3.org/2000/svg"
   xmlns="http://www.w3.org/2000/svg"
   viewBox="0 0 248.03751 248.03751"
   height="248.03751"
   width="248.03751"
   xml:space="preserve"
   version="1.1"
   id="svg2"><metadata
     id="metadata8"><rdf:RDF><cc:Work
         rdf:about=""><dc:format>image/svg+xml</dc:format><dc:type
           rdf:resource="http://purl.org/dc/dcmitype/StillImage" /></cc:Work></rdf:RDF></metadata><defs
     id="defs6" /><g
     transform="matrix(1.25,0,0,-1.25,0,248.0375)"
     id="g10"><g
       transform="scale(0.1,0.1)"
       id="g12"><path
         id="path14"
         style="fill:#000000;fill-opacity:1;fill-rule:nonzero;stroke:none"
         d="m 553.484,173.699 c -7.777,0 -15.668,-0.066 -23.617,-0.199 -158.75,-2.367 -269.371,-29.668 -269.371,-52.719 0,-18.511 85.34,-44.1404 245.578,-44.1404 7.781,0 15.672,0.0821 23.621,0.1914 167.082,2.5 269.66,32.41 269.66,52.731 0,18.507 -85.449,44.136 -245.871,44.136 M 506.074,66.4297 c -123.199,0 -255.789,17.0195 -255.789,54.3513 0,38.16 143.961,60.899 279.422,62.918 7.988,0.153 15.938,0.211 23.777,0.211 123.332,0 256.071,-17.008 256.071,-54.347 0,-38.1528 -144.11,-60.9028 -279.7,-62.9224 -8,-0.1406 -15.949,-0.2109 -23.781,-0.2109" /><path
         id="path16"
         style="fill:#009fe2;fill-opacity:1;fill-rule:evenodd;stroke:none"
         d="m 529.785,178.605 c 152.219,2.547 275.238,-19.562 275.238,-49.031 0,-29.488 -123.019,-55.5701 -275.238,-57.8396 -151.941,-2.5391 -275.238,19.5703 -275.238,49.0506 0,29.758 123.297,55.551 275.238,57.82" /><path
         id="path18"
         style="fill:#000000;fill-opacity:1;fill-rule:nonzero;stroke:none"
         d="m 1123.07,639.23 46.1,-2.589 c 4.04,0 7.45,3.199 7.78,7.269 0.19,2.488 -0.81,4.25 -1.7,5.27 -1.41,1.64 -3.46,2.66 -5.79,2.82 l -45.76,2.539 -6.04,0 c -4.9,0 -8.31,-3.121 -8.48,-7.281 -0.07,-2.028 0.67,-4.008 2.09,-5.52 1.44,-1.519 3.39,-2.41 5.49,-2.508 l 6.31,0 z m 46.1,-12.781 c -0.47,0 -0.94,0.02 -1.44,0.059 l -44.88,2.519 -6.3,0 c -4.98,0.192 -9.43,2.223 -12.71,5.731 -3.32,3.512 -5.05,8.101 -4.86,12.91 0.39,9.59 8.36,17.102 18.15,17.102 l 33.1,-1.161 20.06,-1.429 c 5.01,-0.391 9.53,-2.653 12.71,-6.371 3.03,-3.52 4.48,-8.051 4.12,-12.719 -0.75,-9.34 -8.64,-16.641 -17.95,-16.641 m -181.346,25.039 c -0.469,-0.179 -0.937,-0.308 -1.269,-0.34 -2.149,-0.148 -4.071,-1.109 -5.399,-2.66 -1.34,-1.558 -1.988,-3.609 -1.82,-5.718 0.32,-3.75 3.988,-6.961 8.031,-6.981 0.5,0.18 1,0.32 1.36,0.32 l 49.913,3.121 c 2.98,0.098 5.11,1.04 6.59,2.629 0.91,0.969 1.98,2.661 1.88,5.102 -0.16,4.258 -3.67,7.59 -7.99,7.59 l -1.36,5.09 0.25,-5.102 -50.186,-3.051 z m -0.418,-25.89 c -9.301,0 -17.48,7.32 -18.238,16.34 -0.391,4.851 1.117,9.542 4.227,13.171 2.929,3.442 7,5.579 11.55,6.141 0.539,0.199 1.121,0.348 1.532,0.367 l 51.023,3.133 c 0.1,0 1.05,-0.051 1.13,0 10.32,0 18.29,-7.641 18.67,-17.383 0.18,-4.609 -1.44,-9.047 -4.57,-12.449 -3.34,-3.598 -7.98,-5.688 -13.09,-5.891 l -49.542,-3.047 c -0.461,-0.179 -0.93,-0.292 -1.262,-0.32 -0.481,-0.043 -0.961,-0.062 -1.43,-0.062 m -128.941,3.82 c -0.41,-0.25 -0.84,-0.43 -1.219,-0.52 -2,-0.488 -3.672,-1.699 -4.711,-3.429 -1.09,-1.789 -1.41,-3.91 -0.89,-5.969 1.07,-3.652 5.023,-6.09 9.21,-5.492 0.352,0.18 0.711,0.351 1.04,0.43 l 49.5,11.082 c 4.453,0.898 7.121,4.757 6.261,9.031 -0.679,4.058 -4.82,6.91 -9.211,6.16 l -49.98,-11.293 z m 1.09,-25.73 c -8.328,0 -15.457,5.3 -17.758,13.16 -1.223,4.832 -0.461,9.84 2.008,13.91 2.293,3.781 5.832,6.519 10.05,7.793 0.422,0.238 0.852,0.449 1.243,0.527 l 51.476,11.66 c 1.262,0.211 2.262,0.301 3.242,0.301 8.942,0 16.461,-6.172 17.879,-14.641 1.93,-9.66 -4.308,-18.89 -14.23,-20.871 l -48.199,-10.769 c -0.411,-0.25 -0.84,-0.43 -1.219,-0.528 -1.481,-0.339 -2.992,-0.542 -4.492,-0.542 m -76.45,0.113 c -0.347,-0.223 -0.699,-0.434 -1.019,-0.551 l -11.328,-4.691 -35.563,-17.93 c -1.82,-1.012 -3.129,-2.66 -3.718,-4.68 -0.582,-2.019 -0.36,-4.14 0.64,-5.988 2.02,-3.242 7.207,-4.813 10.938,-2.781 l 34.613,17.449 10.77,4.809 c 0.359,0.16 0.73,0.3 1.117,0.382 1.55,0.77 2.769,2.078 3.461,3.75 0.8,1.918 0.789,4.028 -0.039,5.93 -1.559,3.59 -6,5.48 -9.872,4.301 M 739.234,556.02 c -6.457,0 -12.558,3.378 -15.937,8.828 -2.43,4.429 -2.961,9.3 -1.621,13.929 1.351,4.661 4.41,8.5 8.629,10.793 l 43.961,21.7 3.601,1.308 c 0.321,0.211 0.641,0.402 0.918,0.531 8.981,3.508 19.789,-0.871 23.551,-9.531 1.91,-4.41 1.949,-9.488 0.109,-13.93 -1.847,-4.437 -5.3,-7.839 -9.73,-9.589 -0.25,-0.098 -0.5,-0.18 -0.77,-0.219 l -43.828,-21.52 c -2.832,-1.55 -5.84,-2.3 -8.883,-2.3 m -64.187,-18.172 c -1.902,0 -3.68,-0.61 -5.16,-1.797 l -38.129,-36.203 c -1.262,-1.41 -2.012,-3.41 -1.922,-5.438 0.09,-2.031 1,-3.902 2.559,-5.293 3.179,-3 8.171,-2.629 10.941,0.453 l 36.129,34.141 c 0.101,0.09 0.781,0.738 0.89,0.828 1.481,1.129 2.422,2.789 2.641,4.672 0.238,2.078 -0.41,4.199 -1.781,5.828 -1.5,1.801 -3.758,2.809 -6.168,2.809 m -37.422,-61.039 c -4.551,0 -8.848,1.711 -12.129,4.789 -3.531,3.172 -5.641,7.57 -5.851,12.363 -0.207,4.687 1.46,9.277 4.691,12.906 l 38.379,36.371 c 0.07,0.071 0.711,0.723 0.793,0.782 7.488,5.98 19.41,4.839 25.519,-2.411 3.168,-3.769 4.661,-8.711 4.11,-13.539 -0.539,-4.73 -2.903,-8.882 -6.66,-11.679 l -35.731,-33.832 c -3.199,-3.571 -8.051,-5.75 -13.121,-5.75 M 591.176,440.98 c -2.84,0 -5.469,-1.429 -6.879,-3.691 l -20.473,-37.019 -4.25,-9.09 c -1.617,-3.731 0.121,-8.18 4.153,-10.102 3.398,-1.48 8.539,-0.019 10.14,3.672 l 23.629,44.18 c 1.41,2.179 1.781,4.129 1.34,6.031 -0.469,2.027 -1.75,3.75 -3.621,4.867 -1.25,0.77 -2.61,1.152 -4.039,1.152 m -24.168,-70.75 c -2.59,0 -5.121,0.508 -7.512,1.571 -9.121,4.34 -13.07,14.719 -9.16,23.699 l 25.379,47.289 c 4.832,7.809 16.73,10.75 24.781,5.77 4.149,-2.45 7.211,-6.61 8.289,-11.309 1.07,-4.68 0.192,-9.461 -2.469,-13.449 l -0.531,-1.141 -22.68,-42.242 c -2.648,-6.09 -9.007,-10.188 -16.097,-10.188 m -26.641,-46.55 c -3.492,0 -6.722,-2.36 -7.672,-5.61 l -11.777,-50.519 c -0.691,-4.141 2.199,-8.25 6.469,-9.113 0.258,-0.04 0.718,-0.071 1.168,-0.071 3.883,0 7.23,2.641 7.82,6.113 l 11.813,49.54 c 0.929,3.789 -1.563,8.16 -5.661,9.347 -0.703,0.223 -1.422,0.313 -2.16,0.313 m -11.812,-75.5 c -0.981,0 -1.981,0.058 -2.981,0.218 -9.797,1.95 -16.308,11.321 -14.719,20.911 l 12.032,51.582 c 2.699,9.289 13.129,14.968 22.488,12.297 9.461,-2.778 14.992,-12.438 12.602,-22.028 l -10.129,-41.902 -1.524,-6.938 c -1.308,-7.992 -8.828,-14.14 -17.769,-14.14 m -8.989,-50.582 c -4.91,0 -8.191,-2.981 -8.511,-6.918 l 0.019,-1.871 -0.867,-10.329 0.02,-2.71 -0.301,-3.832 0.019,-2.958 -0.308,-3.589 0.019,-2.953 -0.301,-3.821 0.02,-6.09 -0.301,-3.828 0.024,-9.219 c -0.082,-2.55 0.629,-4.32 2,-5.769 1.488,-1.551 3.547,-2.453 5.648,-2.453 4.371,0 7.93,3.441 7.93,7.672 l 0.308,3.859 -0.019,9.16 0.301,3.602 -0.02,6.039 0.309,3.598 -0.02,2.64 0.301,3.82 -0.02,2.719 0.59,6.692 -0.019,2.949 0.621,5.82 c 0.117,1.723 -0.543,3.723 -1.903,5.242 -1.378,1.547 -3.3,2.45 -5.437,2.528 l -0.102,0 z m -2.82,-76.52 c -4.859,0 -9.609,2.031 -13.019,5.57 -3.309,3.461 -5.032,7.879 -4.832,12.481 l -0.008,9.988 0.301,3.832 -0.02,6.09 0.309,3.82 -0.02,2.989 0.301,3.59 -0.024,2.921 0.301,3.829 -0.019,2.71 0.871,10.372 -0.02,1.82 c 0.801,10.219 9.258,17.5 19.399,16.687 4.73,-0.168 9.23,-2.289 12.468,-5.918 3.231,-3.648 4.793,-8.3 4.403,-13.179 l -0.571,-5.129 0.02,-2.953 -0.59,-6.688 0.02,-2.68 -0.301,-3.82 0.019,-2.68 -0.296,-3.601 0.019,-6.051 -0.301,-3.57 0.012,-9.168 -0.301,-3.61 c 0.02,-9.66 -8.121,-17.652 -18.121,-17.652" /><path
         id="path20"
         style="fill:#009fe2;fill-opacity:1;fill-rule:nonzero;stroke:none"
         d="m 988.43,630.73 c -7.09,-0.57 -13.614,4.821 -14.172,11.622 -0.57,7.089 4.531,13.32 11.898,13.89 l 0.571,0.289 5.671,0.282 5.379,0.57 5.673,0.277 5.67,0.57 5.67,0.282 5.67,0.281 5.68,0.289 5.94,0.281 5.67,0.278 0.85,0 c 7.37,0.293 13.33,-5.368 13.61,-12.457 0.28,-7.102 -5.39,-12.774 -12.76,-13.051 l -0.56,0 -5.67,-0.281 -5.67,-0.289 -5.67,-0.282 -5.67,-0.269 -5.39,-0.301 -5.38,-0.559 -5.67,-0.289 -5.391,-0.562 -5.383,-0.289 -0.566,-0.282 z M 862.859,609.191 c -7.089,-1.699 -14.179,2.262 -16.16,9.071 -1.703,6.801 2.27,13.89 9.348,15.59 l 0.293,0.281 4.527,1.14 4.821,1.129 4.539,1.129 4.531,1.141 4.82,1.129 4.82,1.14 4.532,0.852 4.816,1.129 4.82,0.851 5.102,1.129 3.969,0.852 c 7.09,1.137 13.89,-3.402 15.031,-10.203 1.41,-7.09 -3.121,-13.61 -10.211,-15.02 l -3.969,-0.847 -4.531,-0.864 -4.82,-0.847 -4.539,-1.129 -4.532,-0.852 -4.539,-1.129 -4.531,-1.14 -4.539,-0.852 -4.527,-1.129 -4.262,-1.14 -4.531,-1.129 -0.278,-0.282 z M 745.496,562.703 c -6.238,-3.402 -14.168,-1.14 -17.859,4.82 -3.399,6.231 -1.129,14.168 5.109,17.579 l 3.113,1.691 3.399,1.699 3.691,1.988 3.68,1.981 3.41,1.699 3.68,1.992 3.687,1.7 3.961,1.699 3.692,1.703 3.687,1.976 3.961,1.704 3.691,1.707 3.969,1.41 0.281,0.293 c 6.52,2.547 14.168,-0.293 17.008,-6.813 2.832,-6.519 -0.277,-14.168 -6.797,-16.718 l -0.293,0 -3.679,-1.7 -3.688,-1.703 -3.402,-1.418 -3.68,-1.699 -3.687,-1.699 -3.403,-1.703 -3.687,-1.7 -3.402,-1.699 -3.399,-1.699 -3.402,-1.992 -3.399,-1.699 -3.398,-1.7 -2.844,-1.699 z M 647.137,486.16 c -4.821,-5.379 -13.039,-5.668 -18.141,-0.847 -5.387,4.82 -5.668,12.757 -0.848,18.14 l 1.129,1.141 2.27,2.547 2.551,2.55 2.55,2.551 2.551,2.551 2.547,2.551 2.551,2.558 2.562,2.551 2.829,2.551 2.55,2.269 2.551,2.547 2.84,2.262 2.828,2.559 2.84,2.261 2.832,2.551 0.57,0.57 c 5.668,4.54 13.891,3.688 18.418,-1.703 4.539,-5.386 3.973,-13.609 -1.699,-17.859 l -0.559,-0.559 -2.562,-2.269 -2.828,-2.27 -2.551,-2.269 -2.551,-2.274 -2.551,-2.257 -2.269,-2.27 -2.551,-2.27 -2.547,-2.261 -2.269,-2.559 -2.551,-2.269 -2.27,-2.25 -2.269,-2.563 -2.551,-2.269 -2.269,-2.551 -1.133,-1.141 z M 578.539,382.703 c -2.832,-6.519 -10.492,-9.07 -17.012,-6.242 -6.519,3.121 -9.347,10.492 -6.519,17.012 l 1.422,2.828 1.418,3.121 1.41,3.121 1.422,2.84 1.699,3.109 1.418,3.121 1.699,2.84 1.422,3.11 1.699,2.839 1.699,3.121 1.704,2.84 1.699,3.11 1.699,2.828 1.699,3.121 1.699,2.84 1.141,1.699 c 3.68,5.949 11.902,7.941 17.859,4.25 6.231,-3.68 8.223,-11.609 4.25,-17.57 l -0.847,-1.707 -1.699,-2.551 -1.704,-2.832 -1.418,-2.84 -1.699,-2.828 -1.703,-2.551 -1.418,-2.84 -1.422,-2.832 -1.699,-2.84 -1.418,-2.828 -1.41,-2.832 -1.422,-2.84 -1.418,-3.117 -1.422,-2.832 -1.41,-2.84 -1.418,-2.828 z M 541.406,263.641 c -1.136,-6.797 -7.937,-11.34 -15.027,-10.2 -7.082,1.422 -11.621,8.219 -10.492,15.02 l 0.57,3.121 0.852,3.398 0.57,3.122 0.57,3.402 0.848,3.398 0.851,3.121 0.559,3.399 0.852,3.121 0.847,3.398 0.571,3.122 0.851,3.398 0.852,3.121 0.847,3.398 0.852,3.122 0.848,3.402 0.57,1.988 c 1.98,6.801 9.351,10.77 16.16,8.781 6.801,-1.98 10.77,-9.07 9.07,-15.871 l -0.57,-1.699 -0.848,-3.121 -0.851,-3.121 -0.852,-3.109 -0.847,-3.122 -0.852,-3.117 -0.57,-3.121 -0.848,-3.121 -0.562,-3.117 -0.86,-3.113 -0.558,-3.118 -0.852,-3.121 -0.57,-3.121 -0.571,-3.121 -0.558,-3.387 -0.852,-3.132 z M 529.777,138.922 c 0,-7.09 -5.949,-12.762 -13.039,-12.762 -7.082,0 -13.031,5.961 -12.75,12.762 l 0,10.199 0.282,3.41 0,6.512 0.289,3.41 0,3.399 0.281,3.121 0,3.398 0.277,3.402 0,3.118 0.289,3.402 0.282,3.398 0.281,3.122 0,2.269 c 0.57,7.078 6.808,12.191 13.89,11.621 7.368,-0.281 12.758,-6.519 12.188,-13.609 l -0.277,-1.981 -0.282,-3.121 0,-3.398 -0.289,-3.121 -0.281,-3.121 0,-3.122 -0.289,-3.398 0,-3.121 -0.281,-3.109 0,-6.52 -0.282,-3.121 0,-9.641 -0.289,-3.117 0,-0.281 z m 640.073,518.172 c 7.37,-0.563 12.75,-6.524 12.19,-13.602 -0.57,-7.09 -6.81,-12.48 -13.89,-11.91 l -6.52,0.57 -6.52,0.282 -6.52,0.277 -6.52,0.57 -6.52,0.282 -6.24,0.289 -6.23,0.281 -6.52,0 c -7.09,0.277 -12.76,6.238 -12.48,13.32 0.29,7.09 6.24,12.481 13.61,12.188 l 6.24,0 6.52,-0.278 6.52,-0.281 6.52,-0.289 6.51,-0.281 6.52,-0.571 6.81,-0.281" /><path
         id="path22"
         style="fill:#000000;fill-opacity:1;fill-rule:evenodd;stroke:none"
         d="m 1468.05,711.809 c 0,0 34.31,-54.993 16.16,-152.231 0,0 14.46,-16.152 1.7,-39.109 0,0 -1.7,-38.84 11.06,-97.231 12.48,-58.39 32.03,-170.371 35.44,-182.55 3.68,-12.469 18.13,-21.262 16.15,-33.731 -1.71,-12.469 -5.38,-24.66 -5.38,-24.66 0,0 7.36,-3.692 9.06,-23.25 1.98,-19.27 -82.76,-53 -156.47,-70.5782 -73.7,-17.8633 -120.47,19.2772 -131.25,35.4292 -10.77,15.879 12.48,30.047 12.48,30.047 0,0 -17.86,26.364 -10.78,45.922 7.38,19.559 21.56,37.141 18.14,65.481 -3.67,28.34 -44.78,121.609 -47.33,164.129 0,0 -44.51,-86.18 -36.28,-134.09 7.93,-47.61 21.54,-82.192 10.77,-103.449 -10.77,-21.262 -29.77,-15.879 -32.32,-29.2 -2.84,-13.32 29.48,-23.812 10.77,-47.91 -18.99,-23.8124 -86.46,-47.621 -132.38,-50.4491 -45.92,-2.5508 -118.774,50.4491 -134.934,87.5901 -16.148,37.41 24.379,63.777 24.379,63.777 0,0 -32.027,61.781 -8.5,94.961 3.973,5.379 5.961,12.469 8.793,17.012 1.981,2.547 6.231,6.519 7.649,8.777 14.461,22.402 15.871,30.332 9.351,53.012 -7.93,29.187 -21.543,140.871 -18.711,191.328 2.559,50.18 16.168,63.512 16.168,63.512 0,0 -24.379,24.09 5.383,45.07 29.77,21.258 299.352,26.641 342.722,34.578 43.07,7.942 116.77,47.051 158.16,-12.187" /><path
         id="path24"
         style="fill:#444343;fill-opacity:1;fill-rule:evenodd;stroke:none"
         d="m 1021.88,189.375 c -53.864,3.398 -86.177,54.43 -89.017,105.73 -7.929,-35.992 14.184,-79.359 14.184,-79.359 0,0 -40.543,-26.371 -24.383,-63.793 4.82,-10.758 14.449,-23.226 27.211,-35.148 -3.691,14.75 -4.82,30.05 -4.82,44.218 0,32.891 47.91,28.352 76.825,28.352" /><path
         id="path26"
         style="fill:#444343;fill-opacity:1;fill-rule:evenodd;stroke:none"
         d="m 1111.45,335.93 c 38.28,9.359 67.19,56.687 67.19,108.566 -91.57,-40.527 -170.09,0.563 -231.027,70.012 0.852,-12.18 1.973,-24.379 3.121,-36.281 38.832,-78.52 75.406,-175.18 160.716,-142.297" /><path
         id="path28"
         style="fill:#444343;fill-opacity:1;fill-rule:evenodd;stroke:none"
         d="m 1094.73,572.063 c -7.65,-36.571 -9.07,-81.071 26.36,-89.864 47.91,-14.168 76.54,42.524 76.54,85.043 -27.5,-36.281 -81.36,-29.199 -102.9,4.821" /><path
         id="path30"
         style="fill:#444343;fill-opacity:1;fill-rule:evenodd;stroke:none"
         d="m 1108.05,146.855 c 24.09,0 57.54,0 72,-18.98 5.95,-2.852 8.79,-7.941 9.07,-13.621 0.29,0.301 0.57,0.301 0.85,0.57 18.71,24.09 -13.61,34.582 -10.77,47.903 2.55,13.328 21.55,7.949 32.32,29.207 1.13,2.55 2.26,5.382 2.83,8.211 -28.62,-25.79 -70.02,-35.711 -106.3,-53.29" /><path
         id="path32"
         style="fill:#444343;fill-opacity:1;fill-rule:evenodd;stroke:none"
         d="m 1346.45,406.797 c 4.8,-28.352 28.91,-47.34 52.71,-51.871 38.27,-13.891 78.82,-20.129 112.82,-6.52 -5.09,26.071 -10.48,53.289 -15.02,74.832 -2.82,12.469 -4.82,24.098 -6.23,34.578 -27.5,-46.769 -87.3,-62.359 -144.28,-51.019" /><path
         id="path34"
         style="fill:#444343;fill-opacity:1;fill-rule:evenodd;stroke:none"
         d="m 1432.9,510.547 c 38.27,4.808 52.72,47.058 52.72,85.039 -4.81,-14.168 -14.45,-28.348 -24.09,-28.348 -27.21,-9.07 -67.46,-0.851 -83.91,24.098 -10.76,-22.68 -1.7,-49.039 11.91,-71.438 9.64,-14.171 28.91,-14.171 43.37,-9.351" /><path
         id="path36"
         style="fill:#444343;fill-opacity:1;fill-rule:evenodd;stroke:none"
         d="m 1488.46,638.953 c -1.97,19.281 -5.66,34.863 -9.35,46.481 -25.51,-18.707 -52.45,-37.981 -84.76,-52.149 35.43,-17.289 65.2,-6.519 94.11,5.668" /><path
         id="path38"
         style="fill:#444343;fill-opacity:1;fill-rule:evenodd;stroke:none"
         d="m 1543.16,182.297 c 0,0 3.68,12.187 5.39,24.656 1.13,5.953 -1.98,11.344 -5.66,16.434 -15.32,-38.821 -49.6,-63.782 -94.1,-71.992 34.28,-5.668 70.57,2.55 101.18,19.839 -2.84,9.082 -6.81,11.063 -6.81,11.063" /><path
         id="path40"
         style="fill:#444343;fill-opacity:1;fill-rule:evenodd;stroke:none"
         d="m 1293.72,487.012 c 23.81,18.711 57.54,28.351 67.18,61.23 -14.47,4.821 -24.09,-9.359 -38.55,-14.172 28.91,42.512 -9.35,122.743 24.08,117.922 43.1,-2.832 84.49,26.641 127.01,48.481 -3.12,7.359 -5.39,11.328 -5.39,11.328 -41.39,59.242 -115.09,20.121 -158.17,12.191 -43.37,-7.941 -312.95,-13.332 -342.708,-34.59 -15.313,-10.769 -16.16,-22.39 -13.609,-31.179 l 4.25,-6.231 c 0.289,-1.129 0.57,-2.551 0.847,-3.679 1.711,-2.559 3.121,-3.981 3.121,-3.981 0,0 -0.851,-0.852 -2.261,-2.828 6.23,-44.781 -2.84,-95.242 41.66,-121.613 9.36,33.172 0,85.043 33.45,99.211 76.81,37.711 167.81,0 249.45,23.539 4.82,-70.86 -28.91,-132.09 -86.45,-174.61 30.88,-3.129 36,-23.539 34.29,-46.769 3.12,5.101 5.11,8.211 5.11,8.211 2.55,-42.52 43.65,-135.782 47.33,-164.129 3.41,-28.352 -10.77,-45.922 -18.14,-65.481 -7.08,-19.562 10.78,-45.922 10.78,-45.922 0,0 -23.25,-14.168 -12.48,-30.05 7.94,-11.618 34.59,-34.2894 76.82,-39.1176 -4.53,17.0196 -3.12,36.8476 -3.12,52.4496 19.28,0 38.56,4.808 52.73,14.168 -14.17,9.64 -43.09,9.64 -43.09,28.339 0,89.872 -54.14,184.551 -49.33,269.583 0,32.89 72.01,-4.821 100.64,32.89 -33.45,18.981 -72,14.168 -105.45,4.809" /><path
         id="path42"
         style="fill:#000000;fill-opacity:1;fill-rule:evenodd;stroke:none"
         d="m 1039.17,1713.29 c 0,0 -60.658,20.69 -58.111,81.35 0,0 15.011,-15.3 44.501,-11.05 0,0 -37.701,38.55 -12.19,83.89 0,0 31.19,-24.66 59.25,-16.43 0,0 -18.71,34.3 -2.55,67.47 0,0 26.93,-44.22 118.48,-42.81 91.56,1.42 204.67,-24.66 226.21,-74.26 0,0 6.8,34.3 -10.78,60.66 0,0 39.13,-15.31 29.49,-70.31 0,0 66.05,17.86 91.56,-30.32 0,0 -34.87,22.11 -70.02,8.22 0,0 28.35,-21.83 33.73,-60.38 5.39,-38.55 62.08,-119.91 150.81,-110.27 0,0 -12.2,-50.45 -44.51,-65.19 0,0 14.46,-7.38 30.61,-5.4 0,0 -10.76,-34.86 -44.78,-49.6 0,0 10.77,-9.07 32.31,1.99 0,0 -1.98,-24.1 -46.77,-44.22 -44.78,-20.13 -59.24,-71.43 -136.34,-82.49 -77.39,-11.05 -447.879,145.98 -390.9,359.15" /><path
         id="path44"
         style="fill:#5b5b5b;fill-opacity:1;fill-rule:evenodd;stroke:none"
         d="m 1063.55,1887.33 c 0.56,-20.41 9.06,-36.28 9.06,-36.28 -0.56,-0.29 -1.13,-0.29 -1.7,-0.57 15.02,-33.45 37.43,-70.3 74.27,-55.28 -26.36,26.93 -63.77,56.13 -81.63,92.13" /><path
         id="path46"
         style="fill:#5b5b5b;fill-opacity:1;fill-rule:evenodd;stroke:none"
         d="m 1528.14,1550.57 c 24.95,22.39 58.11,34.31 91.29,47.91 -10.79,0.57 -21.27,2.27 -30.91,5.39 -23.25,-11.34 -48.47,-17.57 -69.72,-24.09 -14.46,-9.64 4.52,44.22 -14.46,49.04 -28.64,9.91 -38.27,-24.38 -57.54,-39.12 14.45,53.85 4.81,112.53 -4.82,166.39 -91,-39.13 -134.09,19.55 -177.18,97.8 -14.16,24.66 -43.09,4.82 -71.71,4.82 -7.38,0 -10.77,7.65 -13.32,17 -16.45,0.29 -30.91,1.99 -43.09,4.82 18.14,-25.8 35.43,-52.15 41.96,-85.32 19.27,19.56 24.09,58.68 47.9,53.86 62.37,-9.93 52.73,-92.98 91,-136.93 33.44,-34.28 76.53,-9.91 115.07,4.82 4.55,-63.77 -9.63,-122.44 -14.45,-185.94 28.64,4.82 43.09,39.12 66.89,53.86 9.65,-34.31 14.47,-83.34 57.56,-88.17 -23.81,14.75 -28.63,43.95 -14.47,53.86" /><path
         id="path48"
         style="fill:#000000;fill-opacity:1;fill-rule:evenodd;stroke:none"
         d="m 1625.94,1527.33 -0.27,0 0.27,0 z m -552.75,322.58 c 0.28,0 0.56,0.29 0.56,0.57 0.29,0.28 0.29,0.28 0.29,0.57 0,0 -0.29,0.28 -0.29,0.56 0,0.29 -9.07,16.73 -9.07,37.7 0,8.51 1.7,17.58 5.67,26.37 6.8,-8.51 37.98,-42.24 118.21,-41.11 94.39,1.42 204.37,-25.79 225.08,-73.7 0.27,-0.56 0.84,-0.85 1.12,-0.56 0.57,0 1.13,0.28 1.13,0.85 0,0.28 1.14,6.52 1.14,16.15 0,11.63 -1.99,27.78 -10.21,41.96 7.66,-4.26 26.93,-17.86 26.93,-51.03 0,-4.82 -0.28,-10.2 -1.41,-16.15 l 0,-0.29 c 0,-0.28 0.28,-0.56 0.56,-0.85 0.29,-0.28 0.57,-0.56 1.14,-0.28 0.56,0 61.23,15.87 87.59,-25.8 -10.48,5.39 -38.83,17.01 -66.9,5.96 -0.28,0 -0.85,-0.57 -0.85,-0.85 0,-0.57 0.28,-0.85 0.57,-1.14 0.28,-0.28 28.06,-22.11 33.16,-59.81 5.96,-42.52 64.36,-119.34 150.52,-111.12 -2.27,-7.65 -14.74,-49.89 -43.37,-62.93 -0.57,0 -0.85,-0.56 -0.85,-1.13 0,-0.28 0.28,-0.85 0.85,-0.85 0.57,-0.57 13.61,-7.09 29.2,-5.95 -2.56,-7.09 -14.74,-34.59 -43.65,-47.06 -0.29,0 -0.57,-0.57 -0.57,-0.85 l 0,-0.28 c 0,-0.29 0,-0.57 0.28,-0.85 0.57,-0.29 11.06,-8.79 31.47,0.56 -1.71,-5.95 -9.36,-24.37 -45.64,-40.81 -17.01,-7.66 -29.48,-19.56 -42.81,-32.32 -22.38,-21.26 -45.35,-43.37 -93.26,-50.17 -49.32,-7.09 -238.11,60.37 -337.03,175.18 -38.84,45.35 -58.4,91.56 -58.4,138.05 0,15.02 1.98,29.76 5.96,44.5 l 0,0.28 c 0,0.57 -0.29,1.14 -0.85,1.14 -0.58,0.28 -57.272,20.12 -57.272,76.25 l 0,1.42 c 5.097,-3.97 19.292,-13.04 43.662,-9.93 0.29,0.29 0.85,0.57 0.85,0.85 l 0,0.57 c 0,0.29 0,0.57 -0.29,0.85 -0.27,0.29 -20.41,21.55 -20.41,50.46 0,9.64 2.27,19.84 7.94,30.61 5.67,-4.25 33.17,-23.24 59.25,-15.59 m -3.12,69.73 c -0.57,0 -0.85,-0.28 -1.14,-0.85 -4.82,-9.92 -6.52,-20.12 -6.52,-29.48 0,-18.14 6.24,-32.88 8.51,-37.41 -26.92,-6.81 -56.41,16.15 -56.7,16.44 -0.28,0.28 -0.56,0.28 -0.85,0.28 -0.56,0 -0.85,-0.28 -0.85,-0.57 -6.52,-11.62 -9.07,-22.67 -9.07,-33.16 0,-25.23 14.75,-44.5 19.56,-50.46 -26.924,-2.83 -40.822,10.77 -41.104,11.06 -0.289,0.28 -0.847,0.28 -1.14,0.28 -0.559,-0.28 -0.848,-0.57 -0.848,-1.13 l 0,-3.97 c 0,-53.86 50.182,-75.12 57.842,-78.24 -3.98,-14.45 -5.96,-29.19 -5.96,-43.93 0,-47.06 19.84,-93.83 59.24,-139.47 99.5,-115.65 289.42,-183.12 339.03,-176.03 48.75,6.8 73.14,30.05 94.67,50.74 13.05,12.47 25.53,24.38 42.24,31.75 45.07,20.41 47.34,44.22 47.34,45.07 0,0.57 -0.28,0.85 -0.57,1.13 -0.28,0.29 -0.85,0.29 -1.13,0.29 -16.16,-8.22 -25.8,-5.11 -29.47,-3.12 32.59,15.3 43.64,48.75 43.64,49.32 l 0,0.28 c 0,0.29 0,0.57 -0.27,0.85 0,0.29 -0.58,0.29 -0.85,0.29 -12.2,-1.42 -23.54,2.55 -27.79,4.53 30.61,15.88 42.52,62.65 42.81,64.63 l 0,0.29 c 0,0.28 0,0.56 -0.29,0.85 -0.29,0.28 -0.56,0.56 -0.85,0.28 -91.56,-9.92 -144.85,75.12 -149.66,109.13 -4.55,33.17 -26.09,54.43 -32.33,59.82 33.45,11.9 66.62,-8.51 66.91,-8.79 0.56,-0.29 1.12,0 1.41,0.28 0.56,0.28 0.56,0.85 0.28,1.42 -23.8,44.79 -81.92,33.45 -91.27,31.18 0.85,5.39 1.41,10.2 1.41,14.74 0,42.24 -31.45,54.99 -32.03,55.28 -0.27,0 -0.85,0 -1.12,-0.57 -0.3,-0.28 -0.3,-0.57 -0.3,-0.57 l 0,-0.85 c 9.93,-14.46 11.91,-31.75 11.91,-43.94 0,-5.38 -0.28,-9.35 -0.57,-12.18 -24.66,46.77 -132.65,73.13 -225.63,71.71 -89.86,-1.13 -117.36,41.67 -117.36,42.24 -0.28,0.28 -0.85,0.56 -1.13,0.56" /><path
         id="path50"
         style="fill:#f6d4b3;fill-opacity:1;fill-rule:evenodd;stroke:none"
         d="m 1079.99,1772.53 c 0,0 -70.02,-40.54 -89.861,-121.04 -19.84,-80.79 -7.078,-96.38 -48.469,-129.54 -41.39,-32.88 -67.75,-150.52 32.602,-233.29 38.268,-31.19 75.398,-45.36 102.608,-60.38 44.21,-24.66 69.45,-45.07 83.91,-96.1 23.23,-82.77 97.78,32.03 132.66,84.48 35.14,52.15 70.01,79.65 78.24,104.31 0,0 37.69,-21.83 72.56,0 35.14,22.11 29.76,96.38 -10.77,96.38 0,0 -34.88,-41.1 -83.34,-16.44 0,0 32.32,35.71 43.08,93.54 10.77,57.83 -45.92,74.27 -18.98,137.77 0,0 -110.28,52.15 -137.2,104.59 0,0 -81.64,-22.96 -157.04,35.72" /><path
         id="path52"
         style="fill:#f6c492;fill-opacity:1;fill-rule:evenodd;stroke:none"
         d="m 1173.82,1712.15 c 19.28,-5.1 47.91,14.46 52.71,4.82 33.45,-39.12 100.64,-53.86 119.92,-83.34 7.09,-11.91 14.17,-24.66 20.69,-37.98 -0.57,10.48 1.13,22.39 7.09,36.56 0,0 -110.27,52.16 -137.21,104.6 0,0 -81.64,-22.96 -157.04,35.72 0,0 -19.27,-11.06 -40.53,-33.45 43.66,18.42 86.18,-4.25 134.37,-26.93" /><path
         id="path54"
         style="fill:#fdfdfd;fill-opacity:1;fill-rule:evenodd;stroke:none"
         d="m 1383.57,1176.97 c 0,0 46.79,-42.24 75.4,-93.54 28.92,-51.59 55.84,-106.301 75.69,-138.051 19.86,-32.031 23.25,-122.16 -66.62,-182.27 -89.86,-60.382 -152.77,214.02 -152.77,284.881 0,70.59 68.3,128.98 68.3,128.98" /><path
         id="path56"
         style="fill:#ebebeb;fill-opacity:1;fill-rule:evenodd;stroke:none"
         d="m 1471.17,1001.22 c -14.46,4.82 -24.09,-14.169 -24.09,-9.349 -16.46,45.919 -10.22,105.439 -28.63,148.529 -19.01,22.11 -34.88,36.57 -34.88,36.57 0,0 -68.32,-58.4 -68.32,-128.98 0,-70.857 62.93,-345.26 152.8,-284.881 25.23,16.723 43.09,36 55.28,55.84 -13.33,1.703 -26.09,5.403 -37.71,12.481 -57.55,37.703 -38.54,108.562 -14.45,169.79" /><path
         id="path58"
         style="fill:#ebebeb;fill-opacity:1;fill-rule:evenodd;stroke:none"
         d="m 1456.99,1030.13 c 47.91,-32.876 52.72,-89.567 38.27,-136.907 0,-4.539 9.64,-4.539 14.45,-4.539 11.34,11.058 19.57,24.379 26.37,38.546 -1.7,5.403 -3.69,9.93 -6.24,13.891 -17.86,28.922 -41.95,77.099 -67.74,124.159 -6.23,-14.46 -15.6,-28.35 -5.11,-35.15" /><path
         id="path60"
         style="fill:#000000;fill-opacity:1;fill-rule:evenodd;stroke:none"
         d="m 1423.55,760.559 c -63.78,33.168 -107.16,229.609 -107.16,287.431 0,65.2 59.54,120.76 67.18,127.57 5.95,-5.68 48.2,-45.93 74.56,-92.7 l 35.14,-65.2 c 14.75,-28.062 28.93,-54.715 40.25,-73.133 6.82,-10.769 11.34,-27.781 11.34,-47.91 0,-40.519 -18.7,-93.262 -77.36,-132.648 -14.75,-9.922 -29.5,-11.063 -43.95,-3.41 m -40.82,417.541 c -0.57,-0.85 -68.89,-59.81 -68.89,-130.11 0,-60.092 42.82,-255.123 108.57,-289.705 15.3,-7.93 30.91,-6.519 46.2,3.703 89.59,59.797 87.59,150.797 66.91,183.957 -11.34,18.153 -25.23,44.793 -40.25,72.855 l -35.16,65.19 c -28.63,50.74 -75.4,93.55 -75.68,93.84 -0.57,0.56 -1.13,0.56 -1.7,0.27" /><path
         id="path62"
         style="fill:#ebebeb;fill-opacity:1;fill-rule:evenodd;stroke:none"
         d="m 1099.27,1182.36 c 0,0 9.06,58.38 93.54,72.57 84.48,14.16 205.23,3.68 185.39,-74.28 -19.85,-77.95 -287.73,-70.86 -278.93,1.71" /><path
         id="path64"
         style="fill:#fdfdfd;fill-opacity:1;fill-rule:evenodd;stroke:none"
         d="m 1190.54,1250.1 c -19.84,-3.12 -35.43,-9.07 -47.91,-15.87 68.89,20.12 145.14,26.07 210.9,-6.24 11.91,-5.1 18.71,-13.61 22.68,-23.81 -13.32,51.87 -112.82,58.11 -185.67,45.92" /><path
         id="path66"
         style="fill:#000000;fill-opacity:1;fill-rule:evenodd;stroke:none"
         d="m 1193.09,1253.79 c 62.36,10.49 143.14,7.09 173.48,-25.23 11.63,-12.47 15.31,-28.63 10.48,-47.62 -13.02,-50.46 -128.68,-63.21 -202.66,-49.61 -47.34,8.51 -74,25.8 -74,47.63 l 0,3.4 c 0.3,0.56 10.21,57.54 92.7,71.43 m -0.27,2.27 c -84.5,-14.18 -94.68,-72.85 -94.68,-73.42 -3.13,-24.94 24.66,-44.22 75.66,-53.57 75.13,-13.61 192.2,-0.57 205.52,51.3 5.12,19.85 1.43,36.57 -11.04,49.89 -31.19,32.88 -110.55,36.85 -175.46,25.8" /><path
         id="path68"
         style="fill:#fdfdfd;fill-opacity:1;fill-rule:evenodd;stroke:none"
         d="m 1095.86,1201.91 c 0,0 28.63,31.75 134.93,22.97 106.01,-8.8 147.4,-21.27 163.57,-60.09 16.15,-39.13 37.69,-106.31 39.67,-180.575 1.7,-74.27 12.48,-155.621 44.79,-189.36 32.32,-33.73 28.92,-47.902 3.69,-79.652 -25.22,-31.75 -78.24,-54.711 -137.77,-49.598 -59.24,5.379 -121.32,-10.492 -204.93,-21.261 -83.64,-10.489 -153.65,-2.559 -204.962,37.129 -51.297,39.972 37.703,100.91 51.312,201.832 13.32,100.91 11.617,262.765 109.7,318.605" /><path
         id="path70"
         style="fill:#ebebeb;fill-opacity:1;fill-rule:evenodd;stroke:none"
         d="m 1360.9,1157.13 c 33.46,-23.54 47.91,-66.06 38.27,-108.58 -28.63,-151.066 -153.36,-221.945 -263.9,-306.706 91.27,9.359 168.09,70.59 249.44,75.41 24.1,4.82 -9.35,-47.059 -9.35,-85.039 105.45,37.98 33.45,184.25 52.72,273.825 1.13,3.11 2.56,6.23 3.97,9.07 -5.94,61.79 -23.81,116.21 -37.69,149.66 -16.17,38.84 -57.55,51.32 -163.57,60.11 -47.91,3.96 -79.94,-0.29 -100.91,-6.25 79.94,4.55 166.97,-10.49 231.02,-61.5" /><path
         id="path72"
         style="fill:#000000;fill-opacity:1;fill-rule:evenodd;stroke:none"
         d="m 935.422,682.605 c -28.352,21.833 -12.473,50.743 9.348,90.43 16.449,29.481 36.57,66.332 42.519,110.262 l 5.672,53.012 c 9.639,97.231 21.829,217.991 103.469,264.471 0,0 0,0.29 0.28,0.29 0.28,0.28 29.77,31.18 133.8,22.67 110.83,-9.35 147.4,-22.67 162.71,-59.52 13.89,-33.45 37.7,-101.48 39.4,-180.001 1.7,-66.903 10.77,-154.211 45.35,-190.211 31.47,-32.602 28.91,-45.922 3.69,-77.949 -27.22,-34.301 -82.21,-54.141 -136.63,-49.321 -41.96,3.957 -85.89,-3.121 -136.63,-11.062 -21.55,-3.399 -44.22,-7.09 -68.6,-10.199 -90.71,-11.34 -157.609,0.558 -204.378,37.128 m 159.588,520.165 c -82.49,-47.06 -94.68,-168.66 -104.311,-266.192 l -5.961,-52.992 c -5.668,-43.367 -25.789,-79.938 -41.949,-109.418 -13.32,-24.102 -24.937,-45.07 -24.937,-63.211 0,-11.059 4.527,-21.262 16.148,-30.332 47.34,-36.848 114.81,-49.039 206.08,-37.418 24.66,3.121 47.06,6.801 68.88,10.199 50.46,7.942 94.11,14.742 135.78,11.063 55.28,-4.821 111.12,15.019 138.62,49.886 26.08,33.161 28.63,47.622 -3.69,81.352 -34.01,35.148 -43.08,121.891 -44.5,188.512 -1.99,79.081 -25.8,147.401 -39.69,180.851 -15.87,37.98 -52.72,51.59 -164.69,60.94 -104.03,8.79 -133.8,-21.26 -135.78,-23.24" /><path
         id="path74"
         style="fill:#000000;fill-opacity:1;fill-rule:evenodd;stroke:none"
         d="m 1460.12,1404.02 c -5.67,8.79 -14.75,15.02 -26.65,15.02 l -0.57,0 -0.28,-0.56 -0.28,-0.29 c -1.14,-1.41 -6.8,-7.37 -15.6,-12.75 -8.79,-5.67 -20.98,-11.06 -35.43,-11.06 -8.79,0 -18.43,1.99 -28.91,7.09 6.24,7.37 32.59,41.38 42.23,92.69 0.85,5.39 1.43,10.21 1.43,14.74 0,18.71 -7.09,33.17 -13.9,46.77 -7.09,13.89 -13.6,27.22 -13.6,43.94 0,9.35 1.99,19.56 7.09,32.03 l 0.55,1.14 -1.13,0.85 c 0,0 -1.7,0.56 -4.81,2.26 -10.77,5.39 -37.98,19.28 -65.48,37.7 -27.22,18.43 -54.99,41.39 -66.33,63.78 l -0.58,1.14 -1.13,-0.29 c 0,0 -0.27,0 -0.85,-0.28 -3.11,-0.85 -17.85,-4.25 -38.54,-4.25 -30.63,0 -74.55,7.37 -116.52,39.97 l -0.85,0.56 -0.85,-0.28 c 0,-0.28 -70.57,-40.82 -90.423,-122.17 -9.91,-40.54 -11.609,-64.63 -16.148,-82.49 -2.274,-9.07 -5.114,-16.44 -9.93,-23.53 -4.813,-7.37 -11.621,-14.45 -21.832,-22.67 -20.109,-16.16 -35.988,-49.04 -35.988,-88.45 0,-42.8 15.879,-103.74 68.597,-147.11 50.464,-41.39 93.834,-52.16 123.884,-73.14 1.4,-1.13 6.23,-4.53 7.64,-5.67 0.85,0.85 0.85,1.42 1.99,1.7 -1.7,1.42 -5.95,5.11 -7.93,6.52 -30.33,20.98 -73.42,31.75 -123.603,72.85 -52.442,43.09 -67.461,102.9 -67.461,144.85 -0.289,38.56 15.312,70.87 34.582,86.18 10.488,8.22 17.578,15.59 22.668,23.24 7.383,11.34 10.5,22.96 13.32,39.4 2.852,16.44 5.68,37.42 13.051,67.47 9.923,40.25 32.033,70.3 51.883,90.14 9.91,10.2 19.27,17.57 26.07,22.68 3.4,2.55 6.24,4.25 8.23,5.67 0.85,0.56 1.7,0.85 1.98,1.41 42.52,-32.88 86.74,-39.97 117.64,-39.97 20.41,0 34.86,3.12 38.82,4.26 14.18,-26.37 48.2,-52.16 78.81,-71.44 27.22,-17.29 51.6,-29.48 57.54,-32.31 -5.1,-11.91 -7.09,-22.4 -7.09,-31.75 0,-17.57 7.09,-31.46 14.18,-45.35 6.81,-13.61 13.61,-27.5 13.61,-45.36 0,-4.25 -0.56,-9.07 -1.41,-14.17 -5.39,-28.63 -16.16,-51.88 -25.53,-68.03 -4.52,-7.94 -9.06,-14.18 -12.19,-18.43 -1.4,-1.98 -2.83,-3.68 -3.68,-4.82 -0.56,-0.56 -0.85,-0.85 -1.12,-1.13 l -0.29,-0.28 -1.43,-1.42 1.99,-1.14 c 11.34,-5.66 22.11,-7.93 31.75,-7.93 16.15,0 29.48,6.23 38.84,12.47 7.65,5.1 12.47,10.2 14.17,11.91 10.2,-0.29 18.14,-5.39 23.52,-13.61 5.4,-8.5 8.23,-19.84 8.23,-31.75 0,-18.99 -7.38,-38.83 -22.4,-48.19 -11.62,-7.08 -23.25,-9.64 -33.73,-9.64 -10.48,0 -19.84,2.56 -26.65,4.82 -3.39,1.14 -6.24,2.55 -7.94,3.4 -1.13,0.29 -1.69,0.86 -2.25,1.14 l -0.58,0.28 -1.7,0.85 -0.56,-1.7 c -3.98,-11.9 -14.47,-24.94 -28.64,-41.38 -5.66,-6.52 -15.31,-17.86 -21.82,-25.8 0.86,-0.57 1.41,-0.57 2.26,-1.13 6.53,7.65 16.17,18.42 21.84,24.94 13.6,15.88 24.08,28.63 28.62,40.82 4.53,-2.27 19.29,-9.07 37.42,-9.07 11.06,0 23.25,2.27 35.16,9.92 16.14,10.21 23.81,30.9 24.08,50.74 0,12.47 -3.11,24.38 -9.06,33.45" /><path
         id="path76"
         style="fill:#fdfdfd;fill-opacity:1;fill-rule:evenodd;stroke:none"
         d="m 933.438,1009.73 c 0,1.42 5.101,10.49 7.371,11.91 5.949,4.25 9.07,1.98 9.347,5.38 22.114,43.65 49.614,55.28 73.144,95.81 21.54,19.84 39.11,32.32 39.11,32.32 0,0 5.96,-6.52 14.17,-17.86 17.3,-24.38 43.95,-70.58 37.99,-118.49 -8.79,-70.304 -104.59,-335.062 -186.523,-264.753 -23.238,19.84 -38.547,40.808 -48.18,62.07 -5.109,12.762 -15.308,56.699 -13.89,67.75 1.703,7.09 4.531,31.18 6.23,37.418 5.391,18.141 17.582,26.082 24.383,36.281 13.316,20.129 20.687,32.602 27.207,39.122 5.101,5.102 4.82,13.042 9.641,13.042" /><path
         id="path78"
         style="fill:#ebebeb;fill-opacity:1;fill-rule:evenodd;stroke:none"
         d="m 971.703,1017.95 c -51.867,-27.216 -63.5,-82.774 -54.988,-131.247 -0.57,-4.82 -9.922,-3.687 -14.742,-3.117 -9.918,12.469 -16.438,26.637 -21.547,41.379 2.269,5.109 5.109,9.648 7.66,13.039 21.539,26.648 51.309,71.716 82.769,115.376 4.25,-15.02 11.911,-30.04 0.848,-35.43" /><path
         id="path80"
         style="fill:#ebebeb;fill-opacity:1;fill-rule:evenodd;stroke:none"
         d="m 1002.31,945.945 c 14.75,3.121 22.12,-17.007 22.69,-12.187 22.11,43.648 22.95,103.472 46.48,144.002 21.54,19.84 20.7,36 20.7,36 0,0 75.39,-45.35 66.9,-115.655 -7.67,-62.078 -93.56,-158.187 -147.97,-221.667 -7.37,-8.512 -18.145,-14.18 -23.805,-22.403 -2.282,-3.109 -25.813,-17.008 -40.27,-9.93 -10.203,4.833 -14.73,17.59 -18.992,26.942 13.621,0 26.652,2.262 39.121,7.941 61.796,30.61 51.306,103.18 35.146,166.957" /><path
         id="path82"
         style="fill:#000000;fill-opacity:1;fill-rule:evenodd;stroke:none"
         d="m 971.703,746.387 c 67.747,25.511 134.657,215.148 141.727,272.693 5.96,48.48 -20.12,94.11 -36.28,116.79 -11.61,13.61 -9.63,13.04 -25.79,4.54 -19,-13.61 -51.594,-38.84 -74.555,-70.3 l -42.801,-60.1 c -18.141,-26.362 -35.43,-51.022 -49.039,-68.033 -7.942,-9.918 -14.461,-26.36 -17.012,-46.211 -5.098,-40.25 7.371,-94.95 60.66,-140.879 13.332,-11.328 28.071,-14.449 43.09,-8.5 m 108.277,389.483 c 16.45,-23.53 41.67,-68.88 35.72,-117.07 -7.36,-59.534 -73.41,-248.323 -143.145,-274.695 -16.16,-6.218 -31.461,-3.109 -45.352,9.083 -81.359,69.738 -68.598,159.878 -43.937,190.488 13.609,16.73 30.609,41.39 49.039,67.474 l 42.8,60.37 c 23.25,32.04 56.415,58.11 75.395,71.44 19,9.92 15.88,9.35 29.48,-7.09" /><path
         id="path84"
         style="fill:#fdfdfd;fill-opacity:1;fill-rule:evenodd;stroke:none"
         d="m 1082.54,1149.19 c -47.62,8.79 -85.04,-11.34 -111.97,-54.99 -24.941,-39.97 -29.48,-54.14 -27.781,-69.45 l 13.891,-17.29 27.211,-36.569 8.789,-20.411 42.8,-61.511 9.08,-20.981 c 8.21,0 35.15,2.27 62.92,35.153 33.17,39.117 55,109.699 53.86,153.919 -1.13,43.94 -66.04,89.86 -78.8,92.13" /><path
         id="path86"
         style="fill:#ebebeb;fill-opacity:1;fill-rule:evenodd;stroke:none"
         d="m 1047.68,1087.68 c 30.61,-28.63 31.46,-78.52 15.3,-115.094 32.88,32.034 75.98,70.024 58.97,115.664 -15.03,37.13 -63.51,58.39 -106.03,51.3 -17.572,-9.35 -32.604,-24.94 -45.346,-45.35 -5.097,-7.94 -9.066,-14.74 -12.476,-20.99 29.488,21.84 62.932,38 89.582,14.47" /><path
         id="path88"
         style="fill:#ebebeb;fill-opacity:1;fill-rule:evenodd;stroke:none"
         d="m 1149.43,1091.36 c 13.32,-77.67 -17.29,-165.54 -92.98,-195.587 -15.87,-4.543 -9.07,31.457 -32.59,32.028 1.7,-11.617 5.38,-22.11 7.66,-32.879 l -4.25,-16.731 11.91,-17.847 c 7.93,0 40.52,9.918 68.31,42.797 33.15,39.121 54.99,109.699 53.85,153.919 -0.29,11.62 -5.1,23.25 -11.91,34.3" /><path
         id="path90"
         style="fill:#000000;fill-opacity:1;fill-rule:evenodd;stroke:none"
         d="m 969.723,1094.77 c -24.09,-38.56 -29.481,-53.29 -28.063,-68.61 l 2.262,-2.82 c -2.262,16.14 2.269,29.76 27.5,70.3 27.781,44.77 65.198,63.21 110.828,54.7 9.08,-1.7 49.9,-29.2 68.6,-61.52 5.67,-9.62 9.36,-19.84 9.64,-29.75 0.85,-41.95 -19.27,-112.543 -53.86,-153.363 -14.74,-17.293 -37.41,-28.91 -42.52,-35.43 l 3.69,1.989 c 11.62,4.531 25.79,14.73 40.53,32.308 34.59,41.102 55,112.246 54.15,154.496 -1.14,45.34 -67.19,90.98 -79.66,93.25 -46.77,8.5 -85.039,-10.2 -113.097,-55.55" /><path
         id="path92"
         style="fill:#fdfdfd;fill-opacity:1;fill-rule:evenodd;stroke:none"
         d="m 1210.66,1574.95 c 0,0 33.73,7.37 51.59,-20.98 17.86,-28.63 3.7,-86.45 -20.69,-111.11 0,0 -45.07,26.07 -71.15,35.15 0,0 14.74,87.02 40.25,96.94" /><path
         id="path94"
         style="fill:#000000;fill-opacity:1;fill-rule:evenodd;stroke:none"
         d="m 1255.45,1476.88 c -2.55,-15.02 -14.17,-25.81 -25.51,-23.54 -11.62,2 -18.99,16.16 -16.16,31.18 2.55,15.32 14.17,26.09 25.8,23.82 11.33,-1.98 18.7,-16.16 15.87,-31.46" /><path
         id="path96"
         style="fill:#fdfdfd;fill-opacity:1;fill-rule:evenodd;stroke:none"
         d="m 1243.26,1466.95 c -0.85,-5.67 -5.39,-9.64 -9.64,-8.79 -4.25,0.85 -7.08,5.96 -5.95,11.62 0.85,5.96 5.39,9.93 9.64,9.08 4.25,-0.85 7.08,-6.24 5.95,-11.91" /><path
         id="path98"
         style="fill:#fdfdfd;fill-opacity:1;fill-rule:evenodd;stroke:none"
         d="m 1087.07,1601.88 c 0,0 -14.74,25.23 -45.07,11.06 -30.05,-14.46 -25.51,-79.94 -25.51,-79.94 0,0 32.6,-8.22 46.5,-20.69 0,0 30.04,56.4 24.08,89.57" /><path
         id="path100"
         style="fill:#000000;fill-opacity:1;fill-rule:evenodd;stroke:none"
         d="m 1074.03,1538.95 c -1.7,-12.18 -10.2,-20.97 -18.98,-19.84 -8.79,1.41 -14.47,12.48 -12.77,24.66 1.7,12.19 10.21,20.98 19,19.84 8.79,-1.41 14.45,-12.18 12.75,-24.66" /><path
         id="path102"
         style="fill:#fdfdfd;fill-opacity:1;fill-rule:evenodd;stroke:none"
         d="m 1067.23,1530.73 c -0.57,-5.1 -4.25,-8.79 -7.94,-8.22 -3.67,0.57 -5.95,5.1 -5.38,10.2 0.86,5.11 4.26,8.79 7.94,8.22 3.68,-0.56 6.23,-5.1 5.38,-10.2" /><path
         id="path104"
         style="fill:#000000;fill-opacity:1;fill-rule:evenodd;stroke:none"
         d="m 1105.21,1491.05 c 0,0 -34.57,28.06 -44.21,-18.99 0,0 -3.98,24.94 13.89,31.46 17.86,6.24 27.5,-4.53 30.32,-12.47" /><path
         id="path106"
         style="fill:#000000;fill-opacity:1;fill-rule:nonzero;stroke:none"
         d="m 1285.47,1632.64 c -9.83,12.22 -28.42,15.55 -39.65,14.58 -17.94,-1.92 -18.14,-15.16 -18.14,-15.29 0,-0.8 0.37,-1.54 0.99,-2.03 0.64,-0.48 1.45,-0.64 2.23,-0.43 6.85,1.86 13.24,2.81 19.01,2.81 30.64,0 35.71,-26.32 35.91,-27.44 0.22,-1.2 1.24,-2.08 2.46,-2.1 l 0.05,0 c 1.2,0 2.24,0.83 2.49,2 2.42,11.11 0.62,20.5 -5.35,27.9" /><path
         id="path108"
         style="fill:#000000;fill-opacity:1;fill-rule:nonzero;stroke:none"
         d="m 1096.7,1680.61 c -4.56,4.04 -13.51,8.75 -23.72,8.75 -9.54,0 -22.63,-4.08 -30.78,-23.56 -0.48,-1.15 -0.06,-2.49 1,-3.15 1.03,-0.65 2.44,-0.46 3.28,0.48 0.09,0.12 10.45,11.74 24.16,11.74 9.41,0 18.35,-5.43 26.61,-16.15 0.49,-0.63 1.23,-0.99 2.02,-0.99 l 0.13,0 c 0.84,0.04 1.6,0.5 2.04,1.21 2.45,3.97 4.62,13.62 -4.74,21.67" /><path
         id="path110"
         style="fill:#000000;fill-opacity:1;fill-rule:nonzero;stroke:none"
         d="m 1244.84,1574.74 c -6.61,2.88 -13.73,4.34 -21.19,4.34 -6.5,0 -11.31,-1.13 -13.02,-1.53 -0.17,-0.04 -0.49,-0.1 -0.52,-0.11 -0.73,-0.16 -1.36,-0.65 -1.72,-1.32 -0.35,-0.66 -0.37,-1.46 -0.09,-2.15 0.47,-1.11 1.38,-1.83 3.34,-1.43 1.83,0.3 9.99,1.77 23.65,-2.34 14.75,-3.54 30.66,-21.59 30.66,-44.57 0,-22.26 -4.4,-54.13 -25.3,-79.59 -1.38,-1.68 -2.2,-2.69 -1.45,-4.26 0.05,-0.13 0.14,-0.26 0.25,-0.39 0.48,-0.69 1.26,-1.11 2.11,-1.11 l 0.01,0 c 1.14,0 1.77,0.55 3.4,2.24 3.3,3.43 32.21,34.86 30.6,83.68 0,16.06 -10.75,41.89 -30.73,48.54" /><path
         id="path112"
         style="fill:#000000;fill-opacity:1;fill-rule:nonzero;stroke:none"
         d="m 1056.36,1622.08 c -4.74,0 -9.37,-1.06 -13.76,-3.16 -33.11,-15.87 -29.83,-62.4 -28.59,-79.93 0.09,-1.42 0.17,-2.62 0.22,-3.56 0.07,-1.37 1.19,-2.43 2.55,-2.43 l 0.03,0 c 1.38,0.01 2.49,1.11 2.52,2.49 l 0.04,2.3 c 0.24,15.01 0.95,60.7 27.14,73.41 10.47,5.01 24.55,0.88 38.36,-10.82 0.73,-0.61 1.35,-1.12 2.75,-0.99 1.28,0.28 2.32,1.84 2.19,3.14 -0.45,4.08 -15.46,19.55 -33.45,19.55" /><path
         id="path114"
         style="fill:#000000;fill-opacity:1;fill-rule:evenodd;stroke:none"
         d="m 1243.26,1438.89 c -19.28,9.35 -37.42,7.09 -37.42,6.52 -0.56,1.98 26.08,3.97 38.55,-3.69 20.13,-9.07 31.47,-23.81 31.75,-23.24 -0.57,-0.85 -10.77,9.92 -32.88,20.41" /><path
         id="path116"
         style="fill:#000000;fill-opacity:1;fill-rule:evenodd;stroke:none"
         d="m 1011.11,1535.55 c -11.626,5.67 -22.965,3.4 -22.965,3.69 -0.282,0.56 16.155,3.96 24.085,-0.86 13.04,-6.8 15.88,-19.84 16.16,-19.27 -0.57,-0.57 -3.96,9.35 -17.28,16.44" /><path
         id="path118"
         style="fill:#000000;fill-opacity:1;fill-rule:evenodd;stroke:none"
         d="m 1059.58,1269.38 c 10.2,-9.07 22.39,-10.2 22.39,-10.49 0,-0.56 -17.58,1.14 -24.09,8.22 -11.62,10.21 -10.77,23.81 -11.35,23.25 0.86,0.28 1.71,-10.21 13.05,-20.98" /><path
         id="path120"
         style="fill:#843e2d;fill-opacity:1;fill-rule:evenodd;stroke:none"
         d="m 1185.16,1392.4 c 0,0 -7.66,-83.91 -94.96,-86.46 -87.32,-2.83 -97.805,125.86 -81.08,150.81 0,0 118.2,6.52 176.04,-64.35" /><path
         id="path122"
         style="fill:#000000;fill-opacity:1;fill-rule:nonzero;stroke:none"
         d="m 1090.17,1308.21 c -0.83,-0.02 -1.65,-0.03 -2.46,-0.03 -37.55,0 -57.67,25.11 -67.93,46.17 -12.55,25.69 -15.92,55.66 -14.89,75.13 0.5,10.74 2.5,19.8 5.47,25.03 1.05,0.03 3,0.08 5.71,0.08 26.87,0 118.16,-4.56 166.75,-63.09 -2.16,-14.15 -16.47,-80.93 -92.65,-83.29 m 96.51,85.72 c -49.56,60.49 -143.26,65.2 -170.83,65.2 -3.51,0 -5.78,-0.08 -6.72,-0.11 -1.04,0 -1.61,-0.56 -2.08,-1.07 -10.023,-14.9 -10.792,-65.86 8.72,-105.73 10.86,-22.29 32.16,-48.86 71.93,-48.86 0.84,0 1.68,0.01 2.53,0.04 88.43,2.87 97.2,87.87 97.2,88.72 0,1.08 -0.36,1.59 -0.75,1.81" /><path
         id="path124"
         style="fill:#fdfdfd;fill-opacity:1;fill-rule:evenodd;stroke:none"
         d="m 1013.09,1435.49 c 3.12,-6.52 9.64,3.97 9.64,3.97 0,0 68.59,-8.22 123.3,-41.39 18.15,-11.05 28.93,-17.57 36.01,-20.97 2.55,9.07 3.1,15.3 3.1,15.3 -50.44,61.8 -147.11,64.63 -170.93,64.35 -1.98,-5.95 -3.94,-14.74 -1.12,-21.26" /><path
         id="path126"
         style="fill:#000000;fill-opacity:1;fill-rule:nonzero;stroke:none"
         d="m 1015.96,1454.48 1.56,0.01 c 26.53,0 116.7,-4.55 165.29,-62.96 -0.05,-0.27 -0.11,-0.6 -0.18,-0.99 -0.34,-1.94 -0.94,-5.4 -2.16,-9.82 -6.29,3.24 -16.14,9 -33.28,19.45 -52.48,31.88 -118.37,40.84 -124.07,41.51 -0.85,0.4 -2.03,-0.14 -2.47,-1.06 -1.62,-2.58 -3.74,-4.7 -4.74,-5.08 -0.18,0.13 -0.38,0.3 -0.65,0.98 -0.93,2.08 -1.32,4.48 -1.32,7.95 0.23,3.07 1.1,6.44 1.86,9.4 l 0.16,0.61 z m 170.72,-60.55 c -49.71,60.67 -142.62,65.38 -169.95,65.38 l -2.51,-0.01 c -0.81,0 -1.76,-0.87 -1.95,-1.7 -3.26,-9.43 -3.71,-17.2 -1.33,-23.19 1.59,-3.18 3.76,-3.45 4.32,-3.45 l 0.01,0 c 0.12,-0.02 0.26,-0.02 0.39,-0.02 3.51,0 6.61,3.94 8.13,5.89 6.85,-0.89 70.28,-9.98 121.09,-40.86 16.12,-9.88 28.26,-16.95 36.06,-21.02 0.17,-0.08 0.34,-0.12 0.54,-0.12 l 0.84,0 c 0.3,0 0.58,0.11 0.8,0.33 l 0.86,0.85 c 0.13,0.14 0.24,0.33 0.29,0.53 2.29,9.12 3.15,15.13 3.15,15.58 0,1.08 -0.35,1.58 -0.74,1.81" /><path
         id="path128"
         style="fill:#ba3b31;fill-opacity:1;fill-rule:evenodd;stroke:none"
         d="m 1131.02,1371.43 c 0,0 -62.08,26.08 -96.39,-42.8 13.32,-14.18 31.48,-23.53 55.57,-22.68 62.35,1.69 83.91,45.07 91.28,69.73 -15.03,6.52 -35.44,10.21 -50.46,-4.25" /><path
         id="path130"
         style="fill:#000000;fill-opacity:1;fill-rule:evenodd;stroke:none"
         d="m 1131.86,1370.57 c 15.3,14.75 36.28,9.36 48.19,4.25 -7.64,-24.93 -29.48,-66.04 -89.85,-67.75 -21.54,-0.55 -39.7,6.82 -54.15,21.84 33.45,66.05 94.11,41.66 94.68,41.39 0.29,-0.29 0.86,0 1.13,0.27 m -0.84,2.28 c -4.27,1.7 -64.07,23.24 -97.52,-43.66 -0.29,-0.56 0,-1.14 0.27,-1.41 15.03,-16.16 34.03,-23.82 56.43,-23.25 62.64,1.99 84.75,45.07 92.39,70.86 0.3,0.57 0,1.14 -0.55,1.43 -12.2,5.1 -34.59,11.32 -51.02,-3.97" /><path
         id="path132"
         style="fill:#000000;fill-opacity:1;fill-rule:evenodd;stroke:none"
         d="m 1134.98,1372.56 c -7.09,-5.39 -7.94,-14.46 -7.94,-14.46 -0.85,-0.28 0,13.04 6.24,16.73 8.5,6.23 16.72,4.25 16.44,4.82 0.28,-0.57 -6.24,-1.14 -14.74,-7.09" /></g></g></svg>