<?xml version="1.0" encoding="UTF-8" standalone="no"?>
<svg
   xmlns:dc="http://purl.org/dc/elements/1.1/"
   xmlns:cc="http://creativecommons.org/ns#"
   xmlns:rdf="http://www.w3.org/1999/02/22-rdf-syntax-ns#"
   xmlns:svg="http://www.w3.org/2000/svg"
   xmlns="http://www.w3.org/2000/svg"
   viewBox="0 0 248.03751 248.03751"
   height="248.03751"
   width="248.03751"
   xml:space="preserve"
   version="1.1"
   id="svg2"><metadata
     id="metadata8"><rdf:RDF><cc:Work
         rdf:about=""><dc:format>image/svg+xml</dc:format><dc:type
           rdf:resource="http://purl.org/dc/dcmitype/StillImage" /></cc:Work></rdf:RDF></metadata><defs
     id="defs6" /><g
     transform="matrix(1.25,0,0,-1.25,0,248.0375)"
     id="g10"><g
       transform="scale(0.1,0.1)"
       id="g12"><path
         id="path14"
         style="fill:#000000;fill-opacity:1;fill-rule:evenodd;stroke:none"
         d="m 1471.43,927.031 c 3.96,3.68 148.82,115.649 100.91,377.009 0,0 19.28,-36 24.37,-89.86 0,0 45.65,112.54 -45.64,244.06 -90.98,131.25 -232.14,122.18 -266.16,105.45 0,0 55.28,95.53 212.6,46.21 0,0 -106.3,96.09 -236.69,-26.08 0,0 20.69,92.97 -119.34,160.15 0,0 102.04,-75.4 97.5,-160.72 0,0 -123.3,121.32 -364.246,111.4 -185.386,-7.65 -312.949,-101.76 -312.949,-101.76 0,0 29.199,-10.77 39.403,-24.38 0,0 -100.911,-23.53 -137.481,-89.57 0,0 52.16,36.28 100.07,44.5 0,0 -141.742,-106.02 -130.113,-249.45 l 26.07,19.28 c 0,0 -14.449,-83.91 31.192,-152.22 l 19.269,7.37 c 0,0 1.7,-60.1 34.301,-94.11 32.602,-33.74 635.804,-387.779 926.934,-127.279" /><path
         id="path16"
         style="fill:#000000;fill-opacity:1;fill-rule:evenodd;stroke:none"
         d="m 1426.36,1452.29 c 36.28,-15.87 72,-20.69 107.71,-25.23 -52.72,56.98 -109.41,109.42 -177.16,139.75 -4.25,-25.23 3.12,-54.99 18.99,-73.13 -52.72,5.67 -75.98,84.18 -105.17,11.33 0,16.73 -5.94,27.78 -11.9,44.79 -5.67,-11.34 -23.24,-17.01 -34.86,-22.39 0,16.72 -11.92,28.06 -11.92,44.79 -29.2,-5.67 -52.43,-33.74 -87.58,-22.4 17.57,16.73 11.62,39.12 11.62,56.13 -46.77,-17.01 -105.16,-17.01 -151.934,-33.73 17.574,16.72 46.774,28.06 64.344,50.45 -43.09,4.54 -82.492,35.72 -108.004,71.44 -20.969,1.13 -42.801,1.41 -65.758,0.56 -28.922,-1.13 -56.133,-4.53 -81.922,-9.07 0.852,-7.65 4.532,-14.17 10.2,-17.57 42.519,-27.22 107.722,-31.18 121.043,-76.26 7.089,-34.01 -21.543,-68.88 -38.274,-103.46 51.883,46.77 122.745,54.71 187.665,67.75 0.85,-28.35 13.59,-56.41 2.55,-85.04 40.82,23.81 81.64,47.62 123.02,48.75 23.8,0.85 19.56,-56.12 -3.4,-79.65 29.48,0.85 40.25,41.1 46.2,35.43 36.29,-21.54 26.07,-73.13 50.74,-106.58 10.78,34.58 3.68,73.99 38.26,103.47 37.15,-50.18 68.32,-100.35 99.79,-156.48 -19,45.07 3.11,91.28 -4.25,136.35" /><path
         id="path18"
         style="fill:#000000;fill-opacity:1;fill-rule:nonzero;stroke:none"
         d="m 1157.49,1733.47 c 0.95,-0.83 1.92,-1.7 2.93,-2.61 0.09,0.16 0.19,0.32 0.3,0.47 0.06,0.08 0.13,0.16 0.2,0.24 -1.14,0.64 -2.28,1.27 -3.43,1.9 M 510.199,1156.4 c 1.942,0 3.692,-0.68 4.922,-1.92 1.52,-0.9 2.867,-3.29 2.867,-5.78 0.024,-0.47 2.434,-57.98 32.34,-88.96 21.602,-22.72 334.524,-209.099 615.422,-219.599 125.39,-4.469 226.7,26.691 300.38,92.582 l 0.66,0.648 c 24.22,20.27 141.22,131.869 97.83,369.209 -0.77,3.89 1.63,7.89 5.38,8.82 0.32,0.18 1.32,0.37 2.33,0.37 3.08,0 5.79,-1.72 7.03,-4.41 2.47,-4.35 11.77,-24 18.6,-53.06 1.44,10.93 2.47,24.65 2.02,40.53 -1.81,55.13 -20.4,108.6 -55.25,158.89 -69.91,100.77 -165.32,111.65 -203.1,111.65 -26.16,0 -44.97,-4.68 -53.12,-8.68 -2.84,-1.42 -6.79,-0.81 -9.1,1.51 -2.39,1.74 -3.22,5.69 -1.49,9.13 4.36,7 42.9,64.04 135.59,64.04 11.61,0 23.66,-0.92 36.07,-2.73 -14.43,5.5 -32.14,9.79 -52.26,9.79 -44.26,0 -88.38,-20.26 -131.14,-60.22 -2.23,-2.24 -6.32,-2.81 -9.19,-1.02 -1.8,0.9 -3.21,2.67 -4,5.07 -0.17,0.51 -0.26,1.03 -0.26,1.56 0,0.7 0.17,1.4 0.45,2.06 0.61,3.94 0.83,8.34 0.69,13.09 -0.7,21.39 -8.95,58.4 -50.25,95.37 21.99,-27.51 42.31,-63.15 43.44,-101.87 l 0,-9.22 c 0,-0.41 -0.05,-0.81 -0.15,-1.2 -0.99,-3.99 -3.5,-5.46 -5,-5.98 -2.84,-1.2 -6.16,-0.56 -8.41,1.69 -13.01,11.86 -135.89,118.13 -358.57,109.1 -149.231,-6.17 -262.192,-70.25 -296.989,-92.37 13.918,-6.82 23.661,-13.76 29.039,-20.72 1.079,-0.95 2,-2.49 2,-4.97 l 0,-1.14 c 0,-0.98 -0.281,-1.94 -0.832,-2.75 -0.66,-1 -2.347,-3.53 -5.636,-3.87 -14.231,-3.8 -67.492,-19.6 -105.114,-53.28 18.293,9.28 41.911,19.31 64.93,23.4 0.293,0.05 1.141,0.13 1.434,0.13 3.058,0 5.918,-1.77 7.277,-4.5 0.16,-0.32 0.281,-0.64 0.371,-0.98 0.192,-0.5 0.442,-1.31 0.442,-2.37 0,-2.77 -1.622,-4.81 -2.59,-5.77 -0.282,-0.29 -0.602,-0.54 -0.953,-0.75 -1.071,-0.77 -128.278,-96.84 -127.239,-227.87 6.578,4.92 14.008,10.46 14.008,10.46 2.692,1.82 5.883,1.81 8.301,0.47 2.73,-1.26 4.152,-4.23 4.152,-6.71 0,-0.63 -0.011,-1.01 -0.101,-1.68 -1.5,-10.86 -2.078,-24.65 -1.602,-37.83 0.781,-27.31 6.422,-66.97 28.524,-103.17 5.199,2.1 12.808,5.25 12.82,5.25 1.187,0.41 2.129,0.56 3.027,0.56 M 1189.21,824.141 c -7.84,0 -15.79,0.14 -23.82,0.422 -289.269,10.8 -603.429,200.157 -626.73,224.317 -25.308,26.57 -33.172,66.95 -35.601,88.53 -4.559,-1.78 -9.25,-3.55 -9.25,-3.55 -0.59,-0.33 -1.789,-0.61 -3.008,-0.61 -2.871,0 -5.391,1.49 -6.59,3.89 -26.723,39.7 -33.402,85.22 -34.25,116.31 -0.352,9.08 -0.172,16.8 0.187,22.84 -5.886,-4.34 -11.539,-8.54 -11.539,-8.54 -2.597,-1.77 -5.668,-2.02 -8.019,-0.9 -2.891,1.03 -4.731,3.65 -4.731,6.86 -0.269,3.12 -0.558,6.95 -0.558,10.49 -3.211,101.53 67.347,183.91 106.801,221.82 -28.911,-11.07 -54.762,-27.41 -63.282,-33.05 -0.16,-0.11 -1.011,-0.65 -1.191,-0.74 -1.328,-1.19 -6.051,-1.66 -8.891,0.47 -1.488,1.42 -3.109,3.46 -3.109,6.24 0,1.51 0.66,2.91 1.391,3.91 29.48,53.11 97.421,79.73 128.39,89.45 -10.211,7.04 -23.609,12.42 -26.09,13.26 -1.66,0.45 -4.449,1.79 -5.461,5.84 -0.097,0.4 -0.148,0.8 -0.148,1.21 0,3.06 1.617,5.09 2.59,6.06 1.597,1.32 131.39,96.3 317.949,103.77 197.2,8.13 318.82,-72.31 356.28,-101.65 -8.67,72.38 -92.74,136.23 -93.62,136.87 -2.01,1.34 -3.23,3.67 -3.23,6.32 0,0.8 0,2.3 0.81,3.91 3.11,4.33 7.56,4.93 10.95,2.89 106.86,-51.26 122.5,-119.85 123.93,-149.12 41.03,34.12 83.89,51.4 127.53,51.4 63.31,0 105.73,-37.29 106.1,-37.67 1.06,-0.73 2.11,-2.48 2.42,-4.47 0.31,-2.02 -0.19,-4.1 -1.4,-5.7 -0.77,-1.73 -3.33,-3.22 -6.37,-3.22 -0.34,0 -1.65,0.14 -1.98,0.2 -29.47,9.24 -56.9,13.87 -82.05,13.87 -54.07,0 -87.89,-21.51 -105.83,-37.93 10.32,1.73 21.88,2.64 33.83,2.64 40.35,0 142.18,-11.52 216.09,-118.3 92.2,-132.71 46.92,-250.1 46.45,-251.27 -1.55,-3.16 -4.38,-4.82 -7.72,-4.82 -3.06,0.54 -5.3,2.03 -6.5,3.96 3.09,-177.16 -85.3,-265.69 -112.77,-288.807 -0.31,-0.25 -0.63,-0.461 -0.98,-0.641 -71.5,-64.058 -168.23,-96.761 -286.98,-96.761" /><path
         id="path20"
         style="fill:#000000;fill-opacity:1;fill-rule:nonzero;stroke:none"
         d="m 1450.18,1028.66 c -14.06,0 -26.14,-8.04 -30.68,-11.5 -28.27,-27.988 -45.82,-75.297 -44.59,-120.328 0.54,-15.309 3.35,-29.309 8.1,-40.422 8.22,-19.039 20.83,-28.816 37.45,-29.008 l 1.31,-0.019 c 22.37,0 43.64,13.89 59.94,39.129 22.13,34.129 33.16,89.39 11.45,129.011 -10.63,19.367 -23.07,30.347 -36.98,32.627 -2.06,0.35 -4.06,0.51 -6,0.51 m -28.41,-216.867 -1.47,0 c -22.84,0.32 -41.25,13.969 -51.79,38.449 -19.82,45.77 -8.32,130.18 39.88,178.108 0.43,0.42 0.93,0.75 1.47,1 4.28,3.51 19.85,15 40.08,15 2.93,0 5.86,-0.25 8.72,-0.74 18.98,-3.07 35.25,-16.79 48.3,-40.79 24.74,-44.769 12.79,-106.738 -11.8,-144.816 -19.21,-29.371 -45.96,-46.211 -73.39,-46.211" /><path
         id="path22"
         style="fill:#000000;fill-opacity:1;fill-rule:nonzero;stroke:none"
         d="m 573.977,1126.17 c -14.391,0 -28.622,-8.8 -42.301,-26.17 -28.582,-35.38 -27.981,-91.58 -12.641,-128.844 11.781,-28.097 30.649,-45.461 53.129,-48.859 20.813,-3.02 34.813,10.898 42.461,22.488 12.738,19.25 19.852,49.442 19.02,80.765 -1.192,31.75 -10.329,61.51 -25.758,83.76 -3.391,3.75 -16.442,16.86 -33.91,16.86 m 4.148,-219.994 0,0 c -2.719,0 -5.488,0.222 -8.289,0.64 -27.813,4.243 -51.633,25.481 -65.352,58.282 -17.218,41.452 -17.738,104.482 14.602,144.762 17.238,21.17 35.711,31.9 54.891,31.9 25.91,0 42.937,-18.95 46.109,-22.79 0.277,-0.27 0.519,-0.56 0.738,-0.88 l 0.02,0.02 c 38.672,-55.08 34.66,-140.083 6.871,-181.922 -12.91,-19.61 -30.059,-30.012 -49.59,-30.012" /><path
         id="path24"
         style="fill:#5b5b5b;fill-opacity:1;fill-rule:evenodd;stroke:none"
         d="m 1426.36,1452.29 c 36.28,-15.87 72,-20.69 107.71,-25.23 -52.72,56.98 -109.41,109.42 -177.16,139.75 -4.25,-25.23 3.12,-54.99 18.99,-73.13 -52.72,5.67 -75.98,84.18 -105.17,11.33 0,16.73 -5.94,27.78 -11.9,44.79 -5.67,-11.34 -23.24,-17.01 -34.86,-22.39 0,16.72 -11.92,28.06 -11.92,44.79 -29.2,-5.67 -52.43,-33.74 -87.58,-22.4 17.57,16.73 11.62,39.12 11.62,56.13 -46.77,-17.01 -105.16,-17.01 -151.934,-33.73 17.574,16.72 46.774,28.06 64.344,50.45 -43.09,4.54 -82.492,35.72 -108.004,71.44 -20.969,1.13 -42.801,1.41 -65.758,0.56 -28.922,-1.13 -56.133,-4.53 -81.922,-9.07 0.852,-7.65 4.532,-14.17 10.2,-17.57 42.519,-27.22 107.722,-31.18 121.043,-76.26 7.089,-34.01 -21.543,-68.88 -38.274,-103.46 51.883,46.77 122.745,54.71 187.665,67.75 0.85,-28.35 13.59,-56.41 2.55,-85.04 40.82,23.81 81.64,47.62 123.02,48.75 23.8,0.85 19.56,-56.12 -3.4,-79.65 29.48,0.85 40.25,41.1 46.2,35.43 36.29,-21.54 26.07,-73.13 50.74,-106.58 10.78,34.58 3.68,73.99 38.26,103.47 37.15,-50.18 68.32,-100.35 99.79,-156.48 -19,45.07 3.11,91.28 -4.25,136.35" /><path
         id="path26"
         style="fill:#f6d4b3;fill-opacity:1;fill-rule:evenodd;stroke:none"
         d="m 1414.17,1022.84 c 0,0 49.32,43.09 85.89,-23.527 36.56,-66.903 -10.77,-181.411 -79.65,-179.711 -68.9,1.41 -71.45,138.89 -6.24,203.238" /><path
         id="path28"
         style="fill:#f6d4b3;fill-opacity:1;fill-rule:evenodd;stroke:none"
         d="m 614.23,1113.83 c 0,0 -40.82,50.74 -89.011,-9.07 -47.899,-59.53 -22.391,-179.998 45.64,-190.205 68.309,-10.203 95.809,124.725 43.371,199.275" /><path
         id="path30"
         style="fill:#000000;fill-opacity:1;fill-rule:nonzero;stroke:none"
         d="m 1342.73,616.063 c -86.18,-82.481 -212.89,-141.731 -298.78,-159.59 l 0.05,-0.168 c -0.3,-0.063 -0.61,-0.02 -0.89,-0.102 l 2.54,-7.937 0.01,-0.043 0.09,-0.36 -2.64,8.34 c -59.247,-18.711 -157.325,-0.289 -251.715,48.18 -51.59,26.359 -101.77,61.801 -143.442,104.883 -41.668,42.808 -75.109,93.257 -92.969,149.949 -24.949,78.25 -20.98,168.949 30.329,269.005 55.48,108.23 33.882,203.32 27.773,225.17 7.988,7.7 35.687,29.94 114.527,56.6 47.051,16.15 90.422,12.47 132.09,9.35 46.77,-3.96 91.84,-7.64 140.031,14.46 55.876,25.6 98.966,36.16 122.976,40.47 -33.78,-32.39 -95.8,-56.91 -96.03,-56.91 l 0.06,-0.18 c -3.49,-1.54 -5.9,-5.05 -5.18,-8.89 0.57,-4.54 4.82,-7.93 9.35,-7.38 93.29,12.93 163.88,69.43 196.22,100.14 -1.73,-33.66 9.14,-73.48 26.6,-111.47 26.65,-58.68 68.88,-113.67 102.61,-134.65 26.93,-16.44 46.2,-38.27 57.54,-61.23 12.18,-24.66 15.59,-50.74 10.21,-73.7 -5.68,-24.375 -7.38,-50.734 -5.39,-82.477 1.98,-31.187 7.09,-67.468 14.73,-111.98 13.62,-76.801 -27.48,-149.098 -90.7,-209.48 m 107.72,212.32 c -7.66,43.941 -13.05,79.652 -14.75,109.98 -1.7,30.051 -0.27,55 5.11,77.957 6.24,26.36 2.26,56.41 -11.61,84.75 -12.77,25.81 -34.02,49.89 -63.79,68.32 -31.19,19.27 -70.86,71.43 -96.39,127.27 -20.68,45.93 -32.03,93.83 -20.68,127.29 l -7.86,2.6 -0.21,0.08 -0.16,0.14 0.25,-0.07 7.98,-2.75 c 1.41,4.52 -0.85,9.34 -5.39,10.76 -3.2,1 -6.49,0.1 -8.68,-2.08 l -0.09,0.1 c -0.13,-0.1 -0.16,-0.26 -0.27,-0.37 -0.07,-0.09 -0.14,-0.2 -0.21,-0.29 l -0.11,0.09 c -0.64,-0.87 -48.86,-57.57 -126.39,-91.6 17.46,11.8 33.86,25.59 43.64,40.57 2.54,3.98 1.41,9.08 -2.55,11.64 -1.59,1 -3.36,1.28 -5.11,1.19 l 0,0.22 c -0.29,0 -59.54,-3.41 -150.528,-45.07 -43.937,-20.13 -87.027,-16.45 -131.527,-13.05 -43.652,3.69 -88.723,7.09 -138.902,-9.92 -102.899,-34.85 -125.289,-65.48 -125.571,-65.48 l 6.852,-5.12 -0.012,0 -0.039,0.02 -6.801,5.1 c -1.726,-2.25 -1.937,-5.09 -1.117,-7.64 l -0.019,0 c 0,-0.29 34.589,-100.07 -25.231,-217.14 -53.57,-104.317 -57.82,-199.556 -31.742,-281.755 18.992,-59.531 53.57,-112.262 96.941,-156.762 43.371,-44.5 94.961,-80.789 148.25,-108 98.079,-50.461 201.262,-69.437 264.476,-49.328 l -0.06,0.188 c 0,0 0,-0.008 0,0 l 0.06,-0.188 c 0.22,0.07 0.4,0.25 0.6,0.34 88.42,18.488 217.87,79.207 305.82,163.5 66.91,63.777 110.27,141.449 95.82,224.508" /><path
         id="path32"
         style="fill:#f6d4b3;fill-opacity:1;fill-rule:nonzero;stroke:none"
         d="m 603.457,1255.57 c 0,0 36,-103.46 -25.512,-223.37 -198.429,-386.934 293.953,-639.216 467.715,-583.934 151.94,31.461 429.17,191.05 396.29,378.699 -15.31,88.441 -20.69,144 -9.64,191.065 11.34,47.34 -12.19,107.7 -71.43,144.27 -59.25,36.58 -147.12,185.4 -120.76,264.48 0,0 -83.9,-99.78 -210.33,-117.35 0,0 86.17,33.73 113.67,76.25 0,0 -57.83,-3.4 -147.124,-44.22 -89.57,-40.82 -170.93,10.77 -271.27,-23.25 -100.628,-34.29 -121.609,-62.64 -121.609,-62.64" /><path
         id="path34"
         style="fill:#000000;fill-opacity:1;fill-rule:nonzero;stroke:none"
         d="m 881.902,1033.82 c -6.367,9.72 -53.097,10.47 -67.269,10.47 -8.117,0 -16.098,-0.22 -23.09,-0.62 -39.207,-2.26 -65.82,-14.46 -88.98,-40.78 -0.79,-0.89 -0.809,-2.23 -0.028,-3.136 0.469,-0.563 1.149,-0.859 1.84,-0.859 0.43,0 0.867,0.117 1.258,0.359 0.332,0.211 33.34,20.256 74.941,20.256 6.801,0 13.551,-0.53 20.078,-1.6 15.703,-2.47 29.473,-3.73 40.934,-3.73 28.758,0 38.039,7.91 40.738,14.5 0.762,1.74 0.61,3.56 -0.422,5.14" /><path
         id="path36"
         style="fill:#000000;fill-opacity:1;fill-rule:nonzero;stroke:none"
         d="m 1314.96,1002.46 c -27.06,30.58 -80.92,38.06 -110.68,39.8 -2.86,0.19 -5.91,0.28 -9.09,0.28 -28.4,0 -75.89,-7.99 -83.31,-19.04 -1.52,-2.27 -1.23,-4.27 -0.7,-5.54 3.11,-7.57 13.03,-8.55 21.33,-8.55 13.06,0 32.26,2.8 62.33,7.37 6.35,0.95 13.27,1.45 20.57,1.45 46.62,0 96.73,-19.816 97.23,-20.015 0.29,-0.117 0.59,-0.168 0.89,-0.168 l 0.06,0 c 1.44,-0.281 2.47,1.051 2.47,2.403 0,0.85 -0.45,1.59 -1.1,2.01" /><path
         id="path38"
         style="fill:#fdfdfd;fill-opacity:1;fill-rule:nonzero;stroke:none"
         d="m 704.652,995.914 c 2.832,-17.012 -13.32,-34.019 -36,-37.699 -22.961,-3.692 -43.648,7.09 -46.488,24.09 -2.832,17.008 13.32,33.735 36.289,37.695 22.668,3.69 43.649,-7.08 46.199,-24.086" /><path
         id="path40"
         style="fill:#000000;fill-opacity:1;fill-rule:nonzero;stroke:none"
         d="m 667.336,1017.76 c -2.793,0 -5.621,-0.23 -8.41,-0.69 -21.172,-3.66 -36.363,-19.043 -33.821,-34.281 2.149,-12.941 16.688,-22.32 34.571,-22.32 2.808,0 5.668,0.219 8.5,0.679 12.047,1.961 22.84,8.153 28.867,16.563 4.051,5.648 5.672,11.758 4.672,17.719 -1.942,12.96 -16.402,22.33 -34.379,22.33 m -7.66,-63.24 c -21.133,0 -37.762,11.218 -40.442,27.3 -3.129,18.77 13.871,36.83 38.711,41.13 3.141,0.5 6.278,0.76 9.391,0.76 20.949,0 37.887,-11.5 40.258,-27.351 1.25,-7.5 -0.719,-15.16 -5.711,-22.121 -7.039,-9.808 -18.981,-16.718 -32.75,-18.968 -3.16,-0.5 -6.34,-0.75 -9.457,-0.75" /><path
         id="path42"
         style="fill:#fdfdfd;fill-opacity:1;fill-rule:nonzero;stroke:none"
         d="m 1375.05,970.398 c -4.82,-11.339 -22.96,-14.738 -40.54,-7.089 -17.85,7.371 -28.34,22.402 -23.52,33.742 4.82,11.329 22.96,14.739 40.52,7.079 17.87,-7.368 28.35,-22.392 23.54,-33.732" /><path
         id="path44"
         style="fill:#000000;fill-opacity:1;fill-rule:nonzero;stroke:none"
         d="m 1332.73,1005.27 c -9.41,0 -16.5,-3.51 -19,-9.375 -1.35,-3.18 -1.21,-6.911 0.36,-10.813 3.12,-7.617 11.18,-14.738 21.55,-19.008 5.86,-2.562 11.95,-3.902 17.66,-3.902 9.41,0 16.5,3.519 19.02,9.391 1.34,3.191 1.22,6.921 -0.37,10.789 -3.13,7.64 -11.2,14.75 -21.56,19.028 -5.87,2.55 -11.96,3.89 -17.66,3.89 m 20.57,-49.047 c -6.53,0 -13.42,1.511 -19.98,4.371 -11.75,4.847 -21.02,13.179 -24.75,22.25 -2.19,5.379 -2.3,10.699 -0.32,15.371 3.46,8.145 12.61,13.005 24.48,13.005 6.52,0 13.43,-1.51 19.98,-4.36 11.75,-4.85 21.02,-13.169 24.75,-22.239 2.2,-5.387 2.31,-10.699 0.34,-15.387 -3.48,-8.14 -12.64,-13.011 -24.5,-13.011" /><path
         id="path46"
         style="fill:#000000;fill-opacity:1;fill-rule:nonzero;stroke:none"
         d="m 967.164,987.742 0,0 z m 82.276,0.992 c -0.08,0.391 -11.68,38.836 -44.75,38.836 -0.74,0 -1.48,-0.02 -2.22,-0.05 -34.306,-1.53 -44.708,-36.727 -44.728,-36.895 -0.961,-3.32 0.699,-6.492 4.199,-7.789 3.243,-0.902 6.641,1.066 7.352,3.789 0.039,0.059 0.301,0.68 0.328,0.758 3.102,8.031 12.543,26.817 33.369,27.957 20.52,1.15 30.99,-20.485 34.52,-29.625 0.07,-0.242 0.15,-0.41 0.22,-0.582 0.81,-2.52 3.26,-4.258 6.03,-4.258 0.58,0 1.16,0.09 1.72,0.258 1.62,0.461 2.97,1.609 3.71,3.16 0.74,1.562 0.78,3.34 0.25,4.441" /><path
         id="path48"
         style="fill:#000000;fill-opacity:1;fill-rule:nonzero;stroke:none"
         d="m 787.992,1178.75 c 0,0 44.223,-17.01 77.102,-0.85 33.168,16.16 37.699,48.19 22.679,52.72 -21.832,6.81 -22.96,-42.23 -99.781,-51.87" /><path
         id="path50"
         style="fill:#000000;fill-opacity:1;fill-rule:nonzero;stroke:none"
         d="m 1211.2,1186.12 c 0,0 -44.49,-15.87 -77.1,0.85 -32.6,17.01 -36.56,49.04 -21.26,53.29 21.83,6.24 21.83,-42.8 98.36,-54.14" /><path
         id="path52"
         style="fill:#892720;fill-opacity:1;fill-rule:nonzero;stroke:none"
         d="M 990.105,921.648 C 846.676,897.559 749.445,721.238 765.887,636.77 c 16.441,-84.192 276.383,-104.598 360.273,-71.45 83.91,32.891 18.72,214.309 -10.19,261.942 -28.93,47.609 -70.02,103.738 -125.865,94.386" /><path
         id="path54"
         style="fill:#000000;fill-opacity:1;fill-rule:nonzero;stroke:none"
         d="m 1154.21,606.914 c -5.75,-17.281 -16.14,-28.891 -30.92,-34.531 -23.88,-9.438 -62.57,-14.641 -108.92,-14.641 -79.87,0 -159.593,15.383 -203.112,39.192 -22.168,12.05 -34.938,25.98 -37.91,41.421 -7.848,40.629 11.91,102.778 50.363,158.34 44.328,64.231 105.437,107.059 167.648,117.481 3.629,0.617 7.309,0.91 10.941,0.91 45.53,0 81.29,-48.961 107.35,-91.641 20.84,-34.359 66.11,-152.992 44.56,-216.531 m -31.65,224.149 c -28.05,46.21 -67.02,99.242 -119.97,99.242 -4.531,0 -9.152,-0.403 -13.731,-1.18 C 922.898,917.984 858.16,872.883 811.25,805.375 775.629,753.793 755.219,696.676 756.68,652.633 c 0,-5.641 0.781,-11.078 1.73,-17.18 3.789,-19.789 19.16,-37.23 45.719,-51.82 45.289,-24.82 128,-40.84 210.691,-40.84 l 0.01,0 c 48.28,0 88.75,5.492 113.94,15.48 19.2,7.68 32.64,22.403 39.93,43.7 23.28,69.281 -23.58,191.953 -46.14,229.09" /><path
         id="path56"
         style="fill:#6e251f;fill-opacity:1;fill-rule:nonzero;stroke:none"
         d="m 900.527,697.422 c 0,0 4.25,77.391 49.039,95.539 44.789,18.133 82.774,-3.398 96.384,-72.57 13.6,-69.45 -139.184,-104.028 -145.423,-22.969" /><path
         id="path58"
         style="fill:#b62524;fill-opacity:1;fill-rule:nonzero;stroke:none"
         d="m 1059.55,721.523 c -45.07,10.758 -88.159,-40.82 -88.159,-40.82 -14.739,30.61 -62.93,45.629 -107.43,18.43 -29.199,-17.86 -52.719,-69.738 -65.481,-103.192 75.969,-49.32 259.65,-57.539 327.68,-30.609 21.83,8.492 33.18,27.211 38.27,50.742 -23.24,58.391 -66.61,96.379 -104.88,105.449" /><path
         id="path60"
         style="fill:#000000;fill-opacity:1;fill-rule:nonzero;stroke:none"
         d="m 975.359,677.305 c 0.571,0.57 41.671,49.031 83.071,39.109 32.87,-7.648 76.52,-41.937 100.33,-100.617 -5.38,-23.543 -16.44,-38.563 -34.58,-45.652 -68.32,-26.918 -245.481,-16.43 -319.18,28.07 11.902,30.609 34.301,79.941 61.512,96.66 21.258,12.75 45.347,16.73 66.328,10.488 15.59,-4.527 28.062,-14.457 34.019,-26.937 0.852,-1.403 2.262,-2.551 3.961,-2.832 1.711,-0.27 3.41,0.582 4.539,1.711 m -3.679,11.05 c -7.938,12.18 -20.129,22.11 -35.719,26.93 -23.809,6.809 -51.031,2.828 -74.84,-11.621 -29.48,-18.148 -53,-67.758 -67.461,-106.019 -0.847,-2.258 0,-4.809 1.981,-6.239 80.218,-51.859 265.889,-57.25 332.219,-30.902 21.84,8.519 35.72,26.941 41.67,54.723 l 0,1.128 c 0,0.571 0,1.141 -0.27,1.7 -22.12,55.558 -64.64,98.082 -108.58,108.57 -41.37,9.641 -78.52,-26.641 -89,-38.27" /><path
         id="path62"
         style="fill:#000000;fill-opacity:1;fill-rule:nonzero;stroke:none"
         d="m 969.125,685.234 c -2.551,-1.121 -3.398,-4.25 -2.27,-6.8 0,0 1.993,-4.25 3.692,-11.329 1.41,-7.382 1.98,-37.14 4.82,-37.71 2.828,-0.282 7.078,29.769 5.379,37.98 -1.699,9.918 -4.531,15.309 -4.82,15.891 -1.129,2.25 -4.25,3.398 -6.801,1.968" /><path
         id="path64"
         style="fill:#fdfdfd;fill-opacity:1;fill-rule:nonzero;stroke:none"
         d="m 881.82,987.41 c 7.942,1.422 -13.039,-22.387 -17.289,-56.418 -4.539,-34.289 -23.808,-40.82 -37.699,-20.41 -14.18,20.699 17.289,70.02 54.988,76.828" /><path
         id="path66"
         style="fill:#000000;fill-opacity:1;fill-rule:nonzero;stroke:none"
         d="m 879.871,983.965 c -22.707,-5.309 -42.078,-26.11 -49.808,-44.629 -4.649,-11.133 -4.942,-20.992 -0.782,-27.07 4.512,-6.621 9.641,-10.243 14.461,-10.243 8.602,0 15.442,11.25 17.832,29.364 2.469,19.687 10.481,36.218 15.278,46.109 1.089,2.238 2.269,4.68 3.019,6.469 m -36.129,-87.91 c -6.847,0 -13.73,4.57 -19.379,12.859 -5.39,7.871 -5.32,19.492 0.211,32.731 8.641,20.66 30.899,44.031 56.719,48.691 0.172,0.027 0.961,0.109 1.129,0.109 1.512,0 2.793,-0.672 3.519,-1.84 1.641,-2.621 0.071,-5.871 -3.738,-13.71 -4.93,-10.18 -12.379,-25.532 -14.719,-44.27 -2.871,-21.648 -11.742,-34.57 -23.742,-34.57" /><path
         id="path68"
         style="fill:#fdfdfd;fill-opacity:1;fill-rule:nonzero;stroke:none"
         d="m 1114.26,1004.14 c -5.95,2.55 6.52,-19.574 4.54,-47.343 -2.26,-27.492 11.91,-36 26.36,-22.109 14.45,13.886 -2.27,58.109 -30.9,69.452" /><path
         id="path70"
         style="fill:#000000;fill-opacity:1;fill-rule:nonzero;stroke:none"
         d="m 1116.09,1000.07 c 0.29,-1.308 0.66,-2.847 1.04,-4.297 2.16,-8.621 5.8,-23 4.64,-39.191 -0.88,-10.48 0.77,-18.809 4.52,-22.879 4.01,-4.351 10.42,-3.019 16.8,3.129 4.11,3.941 5.41,11.582 3.57,20.981 -3.03,15.41 -14.39,34.289 -30.57,42.257 m 15.89,-74.925 0,0 c -3.87,0 -7.35,1.57 -10.08,4.519 -4.93,5.367 -7.09,15.09 -6.06,27.379 1.07,15.199 -2.27,28.469 -4.48,37.281 -1.71,6.746 -2.41,9.536 -0.82,11.576 0.57,0.73 2,1.41 2.92,1.41 0.63,0 1.27,-0.15 1.97,-0.44 19.66,-7.776 33.54,-29.999 37.07,-47.905 2.27,-11.594 0.4,-20.973 -5.29,-26.434 -5.03,-4.828 -10.3,-7.386 -15.23,-7.386" /><path
         id="path72"
         style="fill:#fdfdfd;fill-opacity:1;fill-rule:nonzero;stroke:none"
         d="m 1599.55,968.418 c -9.92,-3.68 29.77,-16.441 58.12,-52.441 28.34,-36 54.7,-30.329 56.97,2.55 1.98,33.172 -67.47,67.75 -115.09,49.891" /><path
         id="path74"
         style="fill:#000000;fill-opacity:1;fill-rule:nonzero;stroke:none"
         d="m 1602.14,966.191 c 1.96,-1.628 5.74,-4.101 9.17,-6.371 12.1,-7.949 32.34,-21.25 48.69,-42 11.77,-14.949 24.17,-23.5 34.04,-23.5 9.98,0 16.58,9.129 17.63,24.41 0.43,7.262 -3.1,15.129 -10.24,22.692 -16.02,17.019 -46.15,28.891 -73.25,28.891 -9.4,0 -18.15,-1.391 -26.04,-4.122 m 91.9,-77.832 0,0 c -11.87,0 -25.62,9.161 -38.71,25.774 -15.75,20 -35.48,32.976 -47.28,40.707 -9.49,6.242 -13.42,8.82 -13,12.519 0.14,1.223 0.85,2.871 3.47,3.852 8.94,3.352 18.92,5.059 29.66,5.059 28.62,0 60.52,-12.661 77.58,-30.75 8.29,-8.797 12.39,-18.207 11.85,-27.161 -1.29,-18.808 -10.11,-30 -23.57,-30" /><path
         id="path76"
         style="fill:#fdfdfd;fill-opacity:1;fill-rule:nonzero;stroke:none"
         d="m 1555.05,881.113 c -5.95,2.27 6.52,-19.558 4.54,-47.34 -2.27,-27.789 11.9,-36 26.36,-22.109 14.45,13.879 -2.27,57.828 -30.9,69.449" /><path
         id="path78"
         style="fill:#000000;fill-opacity:1;fill-rule:nonzero;stroke:none"
         d="m 1556.85,877.031 c 0.29,-1.351 0.7,-2.961 1.08,-4.461 2.16,-8.558 5.78,-22.859 4.62,-39.019 -0.86,-10.551 0.77,-18.93 4.5,-22.969 1.58,-1.691 3.47,-2.562 5.63,-2.562 l 0.01,0 c 3.33,0 7.29,2.062 11.2,5.8 4.06,3.891 5.38,11.422 3.59,20.653 -2.94,15.41 -14.3,34.398 -30.63,42.558 m 15.84,-74.968 -0.01,0 c -3.84,0 -7.29,1.546 -10,4.488 -4.99,5.41 -7.09,14.898 -6.06,27.461 1.08,15.16 -2.25,28.359 -4.46,37.09 -1.68,6.609 -2.43,9.628 -0.81,11.711 0.56,0.726 2.04,1.437 2.97,1.437 0.57,0 1.16,-0.129 1.8,-0.348 19.91,-8.101 33.79,-30.41 37.22,-48.312 2.19,-11.399 0.3,-20.668 -5.33,-26.078 -5.08,-4.86 -10.38,-7.449 -15.32,-7.449" /><path
         id="path80"
         style="fill:#fdfdfd;fill-opacity:1;fill-rule:nonzero;stroke:none"
         d="m 1421.53,920.801 c -2.55,-10.211 30.05,16.148 75.68,20.129 45.64,3.953 55.29,28.902 28.92,48.75 -26.36,19.84 -93.54,-19 -104.6,-68.879" /><path
         id="path82"
         style="fill:#000000;fill-opacity:1;fill-rule:nonzero;stroke:none"
         d="m 1508.19,991.992 c -30.08,0 -73.87,-32.172 -83.35,-70.121 2.31,0.742 6.04,2.371 9.9,4.063 13.35,5.847 35.69,15.648 62.22,17.949 22.2,1.93 37.21,9.23 40.17,19.519 2.12,7.469 -2.53,16.168 -12.79,23.899 -4.14,3.109 -9.57,4.691 -16.15,4.691 m -85.26,-76.5 -0.01,0 c -1.96,0 -3.04,0.871 -3.63,1.602 -0.89,1.136 -1.1,2.617 -0.65,4.429 9.37,42.297 56.66,76.418 89.55,76.418 7.9,0 14.54,-1.98 19.73,-5.89 12.34,-9.278 17.78,-20.321 14.92,-30.289 -3.71,-12.949 -20.25,-21.629 -45.37,-23.809 -25.55,-2.211 -47.33,-11.769 -60.33,-17.473 -7.11,-3.109 -11.4,-4.988 -14.21,-4.988" /><path
         id="path84"
         style="fill:#fdfdfd;fill-opacity:1;fill-rule:nonzero;stroke:none"
         d="m 1643.48,810.527 c -5.94,2.551 6.53,-19.558 4.55,-47.339 -1.99,-27.782 11.91,-36 26.36,-22.11 14.74,13.891 -2.27,57.828 -30.91,69.449" /><path
         id="path86"
         style="fill:#000000;fill-opacity:1;fill-rule:nonzero;stroke:none"
         d="m 1645.31,806.426 c 0.29,-1.301 0.68,-2.809 1.04,-4.258 2.17,-8.613 5.8,-23.012 4.64,-39.203 -0.76,-10.61 0.94,-19.02 4.68,-23.008 1.53,-1.672 3.4,-2.512 5.51,-2.512 3.3,0 7.26,2.051 11.14,5.789 4.11,3.864 5.49,11.313 3.78,20.411 -2.82,15.07 -14.42,34.55 -30.79,42.781 m 15.87,-74.949 0,0 c -3.77,0 -7.19,1.519 -9.87,4.398 -4.99,5.371 -7.16,14.902 -6.25,27.52 1.08,15.25 -2.26,28.523 -4.48,37.332 -1.7,6.738 -2.4,9.539 -0.81,11.57 0.57,0.73 2,1.418 2.92,1.418 0.63,0 1.27,-0.149 1.97,-0.438 20.02,-8.14 33.93,-30.589 37.29,-48.55 2.12,-11.301 0.16,-20.469 -5.53,-25.821 -5.07,-4.84 -10.33,-7.429 -15.24,-7.429" /><path
         id="path88"
         style="fill:#fdfdfd;fill-opacity:1;fill-rule:nonzero;stroke:none"
         d="m 468.531,1031.91 c 8.5,-6.23 -33.172,-7.09 -70.871,-33.168 -37.41,-26.359 -61.219,-13.316 -53.57,18.998 7.648,32.03 84.191,45.35 124.441,14.17" /><path
         id="path90"
         style="fill:#000000;fill-opacity:1;fill-rule:nonzero;stroke:none"
         d="m 410.215,1046.64 c -32.02,0 -59.199,-12.71 -63.231,-29.59 -2.429,-10.25 -1.539,-18.726 2.5,-23.843 2.93,-3.699 7.371,-5.582 13.192,-5.582 6.398,0 17.371,2.352 33.269,13.565 21.782,15.06 45.051,21.92 58.95,26.02 3.851,1.14 8.089,2.39 10.449,3.36 -14.348,10.46 -33.75,16.07 -55.129,16.07 m -47.539,-64.976 c -7.629,0 -13.801,2.723 -17.86,7.852 -5.269,6.672 -6.519,16.674 -3.621,28.914 5.352,22.44 38.782,34.17 69.02,34.17 23.519,0 44.879,-6.51 60.14,-18.33 2.192,-1.61 2.418,-3.39 2.211,-4.61 -0.64,-3.63 -5.132,-4.95 -15.992,-8.16 -13.558,-4 -36.25,-10.68 -57.219,-25.195 -13.57,-9.571 -26.269,-14.641 -36.679,-14.641" /><path
         id="path92"
         style="fill:#fdfdfd;fill-opacity:1;fill-rule:nonzero;stroke:none"
         d="m 376.684,828.953 c 7.941,1.422 -13.039,-22.387 -17.289,-56.687 -4.54,-34.02 -23.809,-40.821 -37.989,-20.141 -14.172,20.41 17.578,70.02 55.278,76.828" /><path
         id="path94"
         style="fill:#000000;fill-opacity:1;fill-rule:nonzero;stroke:none"
         d="m 374.734,825.496 c -22.918,-5.359 -42.41,-26.406 -50.168,-45.129 -4.55,-10.961 -4.808,-20.648 -0.711,-26.539 4.602,-6.73 9.821,-10.422 14.692,-10.422 8.641,0 15.488,11.211 17.898,29.242 2.461,19.872 10.493,36.469 15.289,46.391 1.09,2.25 2.262,4.68 3,6.457 m -36.187,-88.039 c -6.902,0 -13.852,4.609 -19.59,12.992 -5.34,7.699 -5.301,19.129 0.109,32.199 8.661,20.918 31.051,44.532 57.09,49.239 0.18,0.031 0.961,0.09 1.141,0.09 1.5,0 2.777,-0.661 3.508,-1.821 1.64,-2.629 0.082,-5.867 -3.707,-13.699 -4.942,-10.219 -12.403,-25.648 -14.75,-44.559 -2.871,-21.582 -11.774,-34.441 -23.801,-34.441" /><path
         id="path96"
         style="fill:#fdfdfd;fill-opacity:1;fill-rule:nonzero;stroke:none"
         d="m 543.363,951.688 c 8.5,-6.508 -33.449,-7.09 -70.871,-33.45 -37.406,-26.078 -61.219,-13.031 -53.566,19 7.367,32.313 84.187,45.629 124.437,14.45" /><path
         id="path98"
         style="fill:#000000;fill-opacity:1;fill-rule:nonzero;stroke:none"
         d="m 485.074,966.406 c -32.179,0 -59.371,-12.808 -63.25,-29.82 -2.429,-10.18 -1.551,-18.559 2.457,-23.648 2.953,-3.731 7.434,-5.622 13.313,-5.622 6.398,0 17.347,2.321 33.199,13.379 21.57,15.18 44.871,22.039 58.789,26.129 3.973,1.16 8.332,2.453 10.691,3.461 -14.32,10.481 -33.75,16.121 -55.199,16.121 m -47.48,-65.039 c -7.692,0 -13.91,2.738 -17.981,7.879 -5.242,6.641 -6.48,16.559 -3.59,28.68 5.161,22.59 38.641,34.441 69.051,34.441 23.52,0 44.867,-6.519 60.11,-18.312 2.218,-1.7 2.418,-3.52 2.199,-4.719 -0.692,-3.68 -5.211,-5.012 -16.121,-8.211 -13.571,-4.008 -36.278,-10.68 -57.047,-25.32 -13.563,-9.45 -26.223,-14.438 -36.621,-14.438" /><path
         id="path100"
         style="fill:#fdfdfd;fill-opacity:1;fill-rule:nonzero;stroke:none"
         d="m 351.172,928.445 c 6.238,-0.847 -15.309,-14.168 -26.93,-39.386 -11.34,-25.243 -27.781,-25.813 -33.73,-6.532 -5.949,19 29.761,49.602 60.66,45.918" /><path
         id="path102"
         style="fill:#000000;fill-opacity:1;fill-rule:nonzero;stroke:none"
         d="m 345.969,925.77 c -19.262,0 -38.473,-12.418 -47.492,-24.707 -4.809,-6.563 -6.641,-12.821 -5.122,-17.633 2.243,-7.289 6.083,-11.457 10.512,-11.457 5.91,0 12.512,6.847 17.66,18.289 6.782,14.718 16.899,25.597 22.95,32.078 1.058,1.14 2.199,2.383 3.109,3.402 -0.539,0.02 -1.078,0.028 -1.617,0.028 m -42.102,-59.758 c -7.23,0 -13.129,5.718 -16.199,15.64 -2.09,6.661 0.051,14.809 6.008,22.938 10.781,14.68 35.07,29.492 57.851,26.812 2.379,-0.332 3.219,-1.73 3.52,-2.55 1,-2.821 -1.262,-5.25 -6.219,-10.571 -6.18,-6.629 -15.512,-16.648 -21.883,-30.48 -6.218,-13.84 -14.629,-21.789 -23.078,-21.789" /></g></g></svg>