<?xml version="1.0" encoding="UTF-8" standalone="no"?>
<svg
   xmlns:dc="http://purl.org/dc/elements/1.1/"
   xmlns:cc="http://creativecommons.org/ns#"
   xmlns:rdf="http://www.w3.org/1999/02/22-rdf-syntax-ns#"
   xmlns:svg="http://www.w3.org/2000/svg"
   xmlns="http://www.w3.org/2000/svg"
   viewBox="0 0 248.03751 248.03751"
   height="248.03751"
   width="248.03751"
   xml:space="preserve"
   version="1.1"
   id="svg2"><metadata
     id="metadata8"><rdf:RDF><cc:Work
         rdf:about=""><dc:format>image/svg+xml</dc:format><dc:type
           rdf:resource="http://purl.org/dc/dcmitype/StillImage" /></cc:Work></rdf:RDF></metadata><defs
     id="defs6" /><g
     transform="matrix(1.25,0,0,-1.25,0,248.0375)"
     id="g10"><g
       transform="scale(0.1,0.1)"
       id="g12"><path
         id="path14"
         style="fill:#fdfdfd;fill-opacity:1;fill-rule:evenodd;stroke:none"
         d="m 1101.99,292.766 c -318.049,0 -577.127,1.699 -577.127,1.699 0,0 379.559,1.98 577.127,1.98 317.48,0 576.85,-1.98 576.85,-1.98 0,0 -206.36,-1.699 -576.85,-1.699" /><path
         id="path16"
         style="fill:#fdfdfd;fill-opacity:1;fill-rule:nonzero;stroke:none"
         d="m 1101.99,242.59 c -292.818,0 -576.568,2.277 -577.42,2.277 -27.488,0 -49.597,22.391 -49.597,49.891 0.281,27.48 22.39,49.601 49.597,49.601 1.422,0 414.711,1.981 577.42,1.981 292.54,0 576.28,-1.981 577.13,-1.981 27.5,0 49.61,-22.402 49.61,-49.902 -0.28,-27.488 -22.39,-49.59 -49.61,-49.59 -0.56,0 -226.77,-2.277 -577.13,-2.277" /><path
         id="path18"
         style="fill:#fdfdfd;fill-opacity:1;fill-rule:evenodd;stroke:none"
         d="M 700.891,411.816 594.02,288.234 l -79.653,6.243 89.012,119.621" /><path
         id="path20"
         style="fill:#fdfdfd;fill-opacity:1;fill-rule:evenodd;stroke:none"
         d="m 585.52,1624.77 1065.26,0 c 79.37,0 144.28,-64.91 144.28,-144 l 0,-989.575 c 0,-79.371 -64.91,-144.289 -144.28,-144.289 l -1065.26,0 c -79.372,0 -144.282,64.918 -144.282,144.289 l 0,989.575 c 0,79.09 64.91,144 144.282,144" /><path
         id="path22"
         style="fill:#fdfdfd;fill-opacity:1;fill-rule:nonzero;stroke:none"
         d="m 585.523,1622.22 c -78.152,0 -141.742,-63.46 -141.742,-141.45 l 0,-989.594 c 0,-78.129 63.59,-141.719 141.742,-141.719 l 1065.257,0 c 78.14,0 141.73,63.59 141.73,141.719 l 0,989.594 c 0,77.99 -63.59,141.45 -141.73,141.45 l -1065.257,0 z M 1650.78,344.355 l -1065.257,0 c -80.972,0 -146.839,65.872 -146.839,146.821 l 0,989.594 c 0,80.81 65.867,146.55 146.839,146.55 l 1065.257,0 c 80.96,0 146.82,-65.74 146.82,-146.55 l 0,-989.594 c 0,-80.949 -65.86,-146.821 -146.82,-146.821" /><path
         id="path24"
         style="fill:#e7e9eb;fill-opacity:1;fill-rule:evenodd;stroke:none"
         d="m 776.578,747.441 166.391,0 0,176.027 -166.391,0 0,-176.027 z" /><path
         id="path26"
         style="fill:#e7e9eb;fill-opacity:1;fill-rule:evenodd;stroke:none"
         d="m 624.07,1066.34 166.391,0 0,176.32 -166.391,0 0,-176.32 z" /><path
         id="path28"
         style="fill:#e7e9eb;fill-opacity:1;fill-rule:evenodd;stroke:none"
         d="m 1399.07,759.91 191.051,0 0,167.809 -191.051,0 0,-167.809 z" /><path
         id="path30"
         style="fill:#e7e9eb;fill-opacity:1;fill-rule:evenodd;stroke:none"
         d="m 609.891,653.051 169.801,0 0,122.461 -169.801,0 0,-122.461 z" /><path
         id="path32"
         style="fill:#a4a8ad;fill-opacity:1;fill-rule:evenodd;stroke:none"
         d="m 780.824,1325.99 c 0,131.53 1.981,238.96 1.981,238.96 0,0 1.699,-157.32 1.699,-238.96 0,-131.81 -1.699,-238.96 -1.699,-238.96 0,0 -1.981,85.32 -1.981,238.96" /><path
         id="path34"
         style="fill:#a4a8ad;fill-opacity:1;fill-rule:evenodd;stroke:none"
         d="m 1063.72,1297.08 c -305.29,0 -554.169,1.7 -554.169,1.7 0,0 364.539,1.98 554.169,1.98 305.01,0 554.17,-1.98 554.17,-1.98 0,0 -198.42,-1.7 -554.17,-1.7" /><path
         id="path36"
         style="fill:#a4a8ad;fill-opacity:1;fill-rule:evenodd;stroke:none"
         d="m 1515.28,1358.87 c 0,95.53 1.98,173.2 1.98,173.2 0,0 1.7,-113.96 1.7,-173.2 0,-95.24 -1.7,-173.2 -1.7,-173.2 0,0 -1.98,62.08 -1.98,173.2" /><path
         id="path38"
         style="fill:#c5c8ce;fill-opacity:1;fill-rule:evenodd;stroke:none"
         d="m 605.078,756.801 174.613,0 0,179.148 -174.613,0 0,-179.148 z" /><path
         id="path40"
         style="fill:#c5c8ce;fill-opacity:1;fill-rule:evenodd;stroke:none"
         d="m 757.578,528.891 138.332,0 0,121.039 -138.332,0 0,-121.039 z" /><path
         id="path42"
         style="fill:#a4a8ad;fill-opacity:1;fill-rule:evenodd;stroke:none"
         d="m 1118.44,754.813 c -300.202,0 -544.823,1.972 -544.823,1.972 0,0 358.301,1.988 544.823,1.988 299.9,0 544.81,-1.988 544.81,-1.988 0,0 -195.02,-1.972 -544.81,-1.972" /><path
         id="path44"
         style="fill:#a4a8ad;fill-opacity:1;fill-rule:evenodd;stroke:none"
         d="m 654.973,647.949 c -56.41,0 -102.614,1.969 -102.614,1.969 0,0 67.461,1.699 102.614,1.699 56.41,0 102.609,-1.699 102.609,-1.699 0,0 -36.562,-1.969 -102.609,-1.969" /><path
         id="path46"
         style="fill:#a4a8ad;fill-opacity:1;fill-rule:evenodd;stroke:none"
         d="m 1111.35,525.488 c -321.452,0 -583.373,1.7 -583.373,1.7 0,0 383.812,1.98 583.373,1.98 321.17,0 583.37,-1.98 583.37,-1.98 0,0 -208.91,-1.7 -583.37,-1.7" /><path
         id="path48"
         style="fill:#a4a8ad;fill-opacity:1;fill-rule:evenodd;stroke:none"
         d="m 607.914,684.512 c 0,83.058 1.981,150.801 1.981,150.801 0,0 1.699,-99.211 1.699,-150.801 0,-83.059 -1.699,-151.09 -1.699,-151.09 0,0 -1.981,54.148 -1.981,151.09" /><path
         id="path50"
         style="fill:#a4a8ad;fill-opacity:1;fill-rule:evenodd;stroke:none"
         d="m 1588.98,731.563 c 0,114.25 1.7,207.5 1.7,207.5 0,0 1.98,-136.348 1.98,-207.5 0,-114.239 -1.98,-207.5 -1.98,-207.5 0,0 -1.7,74.281 -1.7,207.5" /><path
         id="path52"
         style="fill:#a4a8ad;fill-opacity:1;fill-rule:evenodd;stroke:none"
         d="m 777.711,899.941 c 0,121.889 1.98,221.669 1.98,221.669 0,0 1.7,-145.977 1.7,-221.669 0,-122.171 -1.7,-221.671 -1.7,-221.671 0,0 -1.98,79.089 -1.98,221.671" /><path
         id="path54"
         style="fill:#c5c8ce;fill-opacity:1;fill-rule:evenodd;stroke:none"
         d="m 798.402,530.305 -95.238,-109.981 123.59,-4.261 69.16,112.82" /><path
         id="path56"
         style="fill:#c5c8ce;fill-opacity:1;fill-rule:evenodd;stroke:none"
         d="M 826.746,416.074 757.578,302.965 1002.78,288.234 984.066,416.074" /><path
         id="path58"
         style="fill:#c5c8ce;fill-opacity:1;fill-rule:evenodd;stroke:none"
         d="m 1300.42,529.453 136.35,-6.512 33.44,-108.847 -167.52,4.25" /><path
         id="path60"
         style="fill:#e7e9eb;fill-opacity:1;fill-rule:evenodd;stroke:none"
         d="m 895.914,528.887 -69.172,-112.809 215.998,0 -8.5,109.141" /><path
         id="path62"
         style="fill:#a4a8ad;fill-opacity:1;fill-rule:evenodd;stroke:none"
         d="m 682.184,393.113 c 63.211,76.25 116.218,137.203 116.218,137.203 0,0 -73.98,-92.132 -113.39,-139.48 -63.207,-76.25 -116.219,-137.18 -116.219,-137.18 0,0 39.691,50.739 113.391,139.457" /><path
         id="path64"
         style="fill:#a4a8ad;fill-opacity:1;fill-rule:evenodd;stroke:none"
         d="m 798.402,370.145 c 52.719,87.871 97.512,158.742 97.512,158.742 0,0 -61.512,-106.02 -94.391,-160.711 -52.73,-87.879 -97.511,-158.469 -97.511,-158.469 0,0 32.883,58.117 94.39,160.438" /><path
         id="path66"
         style="fill:#a4a8ad;fill-opacity:1;fill-rule:evenodd;stroke:none"
         d="m 1614.21,379.785 c -34.01,81.918 -60.09,149.668 -60.09,149.668 0,0 42.52,-97.226 63.5,-148.238 34.01,-81.93 60.1,-149.68 60.1,-149.68 0,0 -23.81,52.719 -63.51,148.25" /><path
         id="path68"
         style="fill:#a4a8ad;fill-opacity:1;fill-rule:evenodd;stroke:none"
         d="m 1484.1,368.445 c -31.75,88.16 -55.84,161.024 -55.84,161.024 0,0 39.68,-104.891 59.52,-159.891 31.75,-88.152 55.85,-161 55.85,-161 0,0 -22.4,56.699 -59.53,159.867" /><path
         id="path70"
         style="fill:#a4a8ad;fill-opacity:1;fill-rule:evenodd;stroke:none"
         d="m 1101.99,292.766 c -318.049,0 -577.127,1.699 -577.127,1.699 0,0 379.559,1.98 577.127,1.98 317.48,0 576.85,-1.98 576.85,-1.98 0,0 -206.36,-1.699 -576.85,-1.699" /><path
         id="path72"
         style="fill:#a4a8ad;fill-opacity:1;fill-rule:evenodd;stroke:none"
         d="m 1142.81,412.102 c -297.068,0 -539.427,1.976 -539.427,1.976 0,0 354.89,1.703 539.427,1.703 296.79,0 539.15,-1.703 539.15,-1.703 0,0 -192.76,-1.976 -539.15,-1.976" /><path
         id="path74"
         style="fill:#c5c8ce;fill-opacity:1;fill-rule:evenodd;stroke:none"
         d="M 700.891,411.816 594.02,288.234 l -79.653,6.243 89.012,119.621" /><path
         id="path76"
         style="fill:#e7e9ed;fill-opacity:1;fill-rule:evenodd;stroke:none"
         d="m 1890.3,1092.13 c 0,-13.61 -11.05,-24.38 -24.38,-24.38 l -203.53,0 c -13.32,0 -24.37,10.77 -24.37,24.38 l 0,164.69 c 0,13.33 11.05,24.38 24.37,24.38 l 203.53,0 c 13.33,0 24.38,-11.05 24.38,-24.38" /><path
         id="path78"
         style="fill:#acb0b8;fill-opacity:1;fill-rule:evenodd;stroke:none"
         d="m 1626.97,1083.92 0,180.85 c 0,14.17 11.34,25.8 25.51,25.8 l 223.37,0 c 14.18,0 25.8,-11.63 25.8,-25.8 l 0,-180.85 c 0,-14.17 -11.62,-25.51 -25.8,-25.51 l -223.37,0 c -14.17,0 -25.51,11.34 -25.51,25.51 m 25.51,208.9 c -15.31,0 -27.79,-12.46 -27.79,-28.05 l 0,-180.85 c 0,-15.31 12.48,-27.78 27.79,-27.78 l 223.37,0 c 15.31,0 28.05,12.47 28.05,27.78 l 0,180.85 c 0,15.59 -12.74,28.05 -28.05,28.05" /><path
         id="path80"
         style="fill:#d9dbe2;fill-opacity:1;fill-rule:evenodd;stroke:none"
         d="m 1881.52,1097.8 c 0,-12.47 -10.21,-22.68 -22.69,-22.68 l -189.34,0 c -12.47,0 -22.69,10.21 -22.69,22.68 l 0,153.35 c 0,12.48 10.22,22.68 22.69,22.68 l 189.34,0 c 12.48,0 22.69,-10.2 22.69,-22.68" /><path
         id="path82"
         style="fill:#acb0b8;fill-opacity:1;fill-rule:evenodd;stroke:none"
         d="m 1647.95,1097.8 0,153.35 c 0,11.91 9.64,21.55 21.53,21.55 l 189.37,0 c 11.89,0 21.53,-9.64 21.53,-21.55 l 0,-153.35 c 0,-11.91 -9.64,-21.54 -21.53,-21.54 l -189.37,0 c -11.89,0 -21.53,9.63 -21.53,21.54 m 21.53,177.17 c -13.03,0 -23.81,-10.78 -23.81,-23.82 l 0,-153.35 c 0,-13.32 10.78,-23.81 23.81,-23.81 l 189.37,0 c 13.32,0 23.81,10.49 23.81,23.81 l 0,153.35 c 0,13.04 -10.49,23.82 -23.81,23.82" /><path
         id="path84"
         style="fill:#acb0b8;fill-opacity:1;fill-rule:evenodd;stroke:none"
         d="m 1649.08,1164.7 0,24.66 c 0,3.12 11.9,7.37 30.9,7.37 l 170.08,0 c 8.22,0 16.15,-0.85 22.11,-2.27 6.23,-1.7 8.49,-3.68 8.49,-5.1 l 0,-24.66 c 0,-1.13 -2.26,-3.12 -8.49,-4.82 -5.96,-1.7 -13.89,-2.55 -22.11,-2.55 l -170.08,0 c -19,0 -30.9,4.25 -30.9,7.37 m 30.9,34.3 c -16.16,0 -32.88,-3.4 -32.88,-9.64 l 0,-24.66 c 0,-6.24 16.72,-9.64 32.88,-9.64 l 170.08,0 c 8.49,0 16.72,0.85 22.66,2.55 6.82,1.7 10.22,4.26 10.22,7.09 l 0,24.66 c 0,2.84 -3.4,5.39 -10.22,7.09 -5.94,1.7 -14.17,2.55 -22.66,2.55" /><path
         id="path86"
         style="fill:#f3f5f7;fill-opacity:1;fill-rule:evenodd;stroke:none"
         d="m 1858.85,1043.95 c 0,-14.75 -12.2,-26.93 -26.93,-26.93 l -142.87,0 c -14.74,0 -26.93,12.18 -26.93,26.93 l 0,171.78 c 0,14.73 12.19,26.93 26.93,26.93 l 142.87,0 c 14.73,0 26.93,-12.2 26.93,-26.93" /><path
         id="path88"
         style="fill:#d9dbe2;fill-opacity:1;fill-rule:evenodd;stroke:none"
         d="m 1858.85,1146.56 c 0,-13.61 -12.2,-24.66 -26.93,-24.66 l -142.87,0 c -14.74,0 -26.93,11.05 -26.93,24.66 l 0,71.43 c 0,13.61 12.19,24.66 26.93,24.66 l 142.87,0 c 14.73,0 26.93,-11.05 26.93,-24.66" /><path
         id="path90"
         style="fill:#acb0b8;fill-opacity:1;fill-rule:evenodd;stroke:none"
         d="m 1663.25,1043.95 0,171.78 c 0,14.16 11.62,25.79 25.8,25.79 l 142.86,0 c 14.17,0 25.8,-11.63 25.8,-25.79 l 0,-171.78 c 0,-14.18 -11.63,-25.81 -25.8,-25.81 l -142.86,0 c -14.18,0 -25.8,11.63 -25.8,25.81 m 25.8,199.84 c -15.31,0 -28.07,-12.75 -28.07,-28.06 l 0,-171.78 c 0,-15.31 12.76,-28.06 28.07,-28.06 l 142.86,0 c 15.59,0 28.06,12.75 28.06,28.06 l 0,171.78 c 0,15.31 -12.47,28.06 -28.06,28.06" /><path
         id="path92"
         style="fill:#f3f5f7;fill-opacity:1;fill-rule:evenodd;stroke:none"
         d="m 1858.85,1152.51 c 0,-12.76 -12.2,-23.24 -26.93,-23.24 l -142.87,0 c -14.74,0 -26.93,10.48 -26.93,23.24 l 0,66.9 c 0,12.75 12.19,23.24 26.93,23.24 l 142.87,0 c 14.73,0 26.93,-10.49 26.93,-23.24" /><path
         id="path94"
         style="fill:#fdfdfd;fill-opacity:1;fill-rule:evenodd;stroke:none"
         d="m 1829.36,1240.39 -139.18,0 c -14.45,0 -26.07,-10.5 -26.07,-23.25 l 0,-21.54 c 7.64,7.94 17.55,14.18 25.23,17.29 45.64,17.86 95.8,17.86 145.68,4.25 6.53,-1.13 13.62,-3.11 20.41,-5.95 l 0,5.95 c 0,12.75 -11.61,23.25 -26.07,23.25" /><path
         id="path96"
         style="fill:#acb0b8;fill-opacity:1;fill-rule:evenodd;stroke:none"
         d="m 1663.25,1152.51 0,66.9 c 0,12.19 11.62,22.11 25.8,22.11 l 142.86,0 c 14.17,0 25.8,-9.92 25.8,-22.11 l 0,-66.9 c 0,-12.19 -11.63,-22.11 -25.8,-22.11 l -142.86,0 c -14.18,0 -25.8,9.92 -25.8,22.11 m 25.8,91.28 c -15.31,0 -28.07,-11.06 -28.07,-24.38 l 0,-66.9 c 0,-13.32 12.76,-24.38 28.07,-24.38 l 142.86,0 c 15.59,0 28.06,11.06 28.06,24.38 l 0,66.9 c 0,13.32 -12.47,24.38 -28.06,24.38" /><path
         id="path98"
         style="fill:#000000;fill-opacity:1;fill-rule:evenodd;stroke:none"
         d="m 903.57,359.656 c -5.39,5.961 -8.222,12.762 -8.222,20.992 0,1.969 0.281,3.68 0.57,5.661 9.922,75.121 157.892,103.179 248.592,103.179 90.71,0 238.67,-28.058 248.6,-103.179 1.42,-10.782 -1.14,-19.563 -7.65,-26.653 -27.22,-30.047 -116.5,-26.648 -188.51,-23.808 -18.99,0.582 -37.13,1.129 -52.44,1.129 -15.3,0 -33.44,-0.547 -52.44,-1.129 -71.71,-2.84 -161.293,-6.239 -188.5,23.808 m 240.94,132.942 c -91.84,0 -241.51,-28.61 -251.709,-105.719 -1.703,-11.621 1.418,-21.551 8.5,-29.492 28.066,-30.891 118.489,-27.489 191.049,-24.938 19,0.848 36.86,1.41 52.16,1.41 15.31,0 33.17,-0.562 52.44,-1.41 72.57,-2.551 162.71,-5.953 190.78,24.938 7.37,7.941 10.2,17.871 8.5,29.492 -10.2,77.109 -159.87,105.719 -251.72,105.719" /><path
         id="path100"
         style="fill:#000000;fill-opacity:1;fill-rule:nonzero;stroke:none"
         d="m 1144.51,338.113 c 14.55,0 31.59,-0.508 49.63,-1.039 l 2.84,-0.078 c 21.3,-0.84 45.42,-1.801 68.62,-1.801 41.29,0 98.54,2.629 119.02,25.219 6.34,6.902 8.74,15.332 7.37,25.762 -9.83,74.429 -157.02,102.168 -247.48,102.168 -90.46,0 -237.639,-27.739 -247.479,-102.168 l -0.09,-0.711 c -0.25,-1.699 -0.461,-3.16 -0.461,-4.828 0,-7.711 2.59,-14.321 7.93,-20.223 20.473,-22.59 77.801,-25.219 119.13,-25.219 23.26,0 47.29,0.961 68.48,1.801 l 2.86,0.078 c 18.04,0.531 35.08,1.039 49.63,1.039 m 121.09,-5.187 c -23.25,0 -47.39,0.949 -68.7,1.789 l -2.83,0.09 c -18.02,0.55 -35.04,1.039 -49.56,1.039 -14.52,0 -31.54,-0.489 -49.56,-1.039 l -2.85,-0.09 c -21.2,-0.84 -45.25,-1.789 -68.56,-1.789 -41.767,0 -99.727,2.699 -120.81,25.969 -5.726,6.339 -8.519,13.449 -8.519,21.742 0,1.847 0.242,3.457 0.48,5.168 l 0.102,0.66 c 10.02,75.871 158.487,104.148 249.717,104.148 91.23,0 239.71,-28.277 249.73,-104.16 1.46,-11.117 -1.14,-20.148 -7.94,-27.566 -21.09,-23.262 -78.98,-25.961 -120.7,-25.961 m -121.09,2.07 c 13.78,0 30.96,-0.449 52.49,-1.422 l 1.52,-0.051 c 21.27,-0.75 43.28,-1.507 65.09,-1.507 l 0.01,0 c 42.73,0 101.96,2.687 123.26,26.14 7.11,7.668 9.88,17.258 8.23,28.547 -10.1,76.332 -159.08,104.774 -250.6,104.774 -91.52,0 -240.487,-28.442 -250.588,-104.75 -1.621,-11.043 1.148,-20.653 8.219,-28.582 21.293,-23.442 80.672,-26.129 123.489,-26.129 21.88,0 43.89,0.757 65.18,1.507 l 1.5,0.051 c 21.21,0.973 38.29,1.422 52.2,1.422 m 119.11,-5.262 -0.01,0 c -21.86,0 -43.88,0.77 -65.16,1.512 l -1.54,0.059 c -21.51,0.961 -38.65,1.429 -52.4,1.429 -13.88,0 -30.92,-0.468 -52.11,-1.429 l -1.5,-0.051 c -21.31,-0.75 -43.35,-1.52 -65.27,-1.52 -69.669,0 -108.278,8.289 -125.169,26.911 -7.551,8.441 -10.508,18.691 -8.789,30.41 10.289,77.711 160.548,106.691 252.838,106.691 92.29,0 242.55,-28.98 252.84,-106.711 1.76,-12.012 -1.2,-22.238 -8.8,-30.398 -16.88,-18.614 -55.42,-26.903 -124.93,-26.903" /><path
         id="path102"
         style="fill:#000000;fill-opacity:1;fill-rule:evenodd;stroke:none"
         d="m 1003.07,1362.84 c -48.195,23.81 -50.183,48.19 -44.793,74.83 0,0 -32.601,6.52 -38.832,37.14 -6.238,30.9 10.77,43.37 22.379,39.97 11.633,-3.12 9.653,-12.76 18.723,-12.19 8.777,0.56 5.391,16.44 2.539,30.61 -2.82,14.18 -12.18,109.14 90.144,197.58 0,0 -8.5,-31.75 -1.98,-34.3 6.53,-2.55 31.19,22.11 31.19,22.11 0,0 -10.78,-22.11 -2.27,-23.53 8.21,-1.42 52.44,13.04 78.22,30.9 0,0 -18.12,-24.1 -4.8,-24.66 13.32,-0.29 45.62,14.17 45.62,14.17 0,0 34.59,-22.39 91.27,7.37 0,0 -16.98,-48.76 2,-75.12 0,0 7.93,14.74 11.34,29.77 0,0 0.29,-26.37 25.23,-66.62 24.95,-39.97 38.56,-65.2 33.74,-86.17 0,0 21.81,15.31 36.28,9.35 14.46,-5.67 14.46,-34.86 5.09,-59.52 -9.63,-24.67 -38.27,-19.28 -38.27,-19.28 0,0 7.09,-42.52 -13.32,-77.67 -20.41,-34.87 -70.86,-53.01 -99.48,-60.94 -4.82,-9.08 -17.86,-17.86 -20.14,-27.78 -5.66,-25.8 -36.56,-40.82 -61.79,-60.1 -28.91,-19.56 -3.7,31.18 -19.86,1.7 0,9.64 -3.66,5.95 -10.18,9.36 -20.98,15.59 -54.99,41.95 -63.78,51.59 10.48,16.44 -66.33,62.64 -74.27,71.43" /><path
         id="path104"
         style="fill:#000000;fill-opacity:1;fill-rule:nonzero;stroke:none"
         d="m 1157.1,1242.46 c 0.74,0 1.53,-0.36 2.02,-0.92 0.96,-1.13 0.76,-2.33 0.35,-4.97 -0.37,-2.37 -1.25,-7.93 0.12,-9.52 0.24,-0.28 1.11,-2.28 10.15,3.83 5.59,4.28 11.64,8.47 17.48,12.5 20.09,13.89 39.06,27.01 43.24,46.03 1.47,6.46 6.71,12.14 11.78,17.63 3.45,3.75 6.74,7.3 8.58,10.8 0.33,0.62 0.9,1.07 1.57,1.26 28.09,7.78 78.16,25.9 97.99,59.78 19.68,33.9 13.07,75.53 13,75.96 -0.14,0.82 0.14,1.64 0.73,2.23 0.61,0.59 1.45,0.82 2.26,0.7 0.07,-0.02 26.55,-5.02 35.43,17.69 8.54,22.55 9.15,51.2 -3.66,56.23 -1.96,0.79 -4.16,1.19 -6.6,1.19 -12.51,0 -27.15,-10.17 -27.29,-10.26 -0.86,-0.62 -2.01,-0.64 -2.89,-0.03 -0.88,0.59 -1.3,1.66 -1.07,2.69 4.39,19.1 -7.27,42.38 -33.41,84.25 -15.32,24.7 -21.47,44.2 -23.95,55.86 -3.63,-10.32 -7.96,-18.43 -8.2,-18.87 -0.42,-0.77 -1.2,-1.29 -2.08,-1.34 -0.86,-0.07 -1.72,0.34 -2.24,1.05 -15.79,21.93 -8.04,57.66 -4.11,71.65 -18.02,-8.65 -35.61,-13.03 -52.33,-13.03 -19.07,0 -31.17,5.7 -34.92,7.77 -6.03,-2.64 -32.5,-13.87 -45.07,-13.87 -4.59,0.18 -6.36,2.16 -7.13,3.8 -1.83,3.86 0.41,9.91 3.21,15.14 -25.45,-14.73 -58.88,-25.28 -68.56,-25.28 -0.68,0 -1.27,0.05 -1.76,0.14 -2.01,0.33 -3.55,1.45 -4.46,3.23 -1.64,3.17 -0.83,8.34 0.59,13.1 -7.56,-6.79 -17.97,-15.13 -23.53,-15.13 -0.73,0 -1.41,0.12 -2.02,0.36 -6.09,2.39 -4.25,17.1 -1.52,29.35 -101.37,-91.94 -83.402,-188.76 -83.198,-189.75 l 0.207,-1.05 c 2.492,-12.43 4.832,-24.15 0.601,-29.66 -1.359,-1.79 -3.332,-2.8 -5.699,-2.95 l -0.91,-0.03 c -5.281,0 -7.641,3.08 -9.723,5.78 -1.949,2.56 -3.969,5.2 -8.898,6.52 -5.18,1.52 -10.77,-0.75 -14.68,-5.53 -3.27,-3.99 -8.199,-13.4 -4.559,-31.47 5.829,-28.62 36.528,-35.07 36.829,-35.14 0.671,-0.13 1.25,-0.52 1.628,-1.08 0.383,-0.57 0.512,-1.26 0.383,-1.92 -4.902,-24.24 -5.269,-47.99 43.419,-72.04 0.28,-0.16 0.55,-0.34 0.76,-0.59 1.93,-2.12 9.16,-7.29 17.55,-13.28 33.17,-23.68 62.48,-46.04 57.88,-59.38 10.15,-10.28 42.3,-35.19 62.25,-50.02 1.39,-0.69 2.94,-1.01 4.28,-1.3 2.51,-0.52 4.32,-1.25 5.46,-2.95 2.55,4.4 3.26,4.84 4.72,4.84 m 3.54,-20.86 c -2.56,0 -4.1,1.16 -4.93,2.13 -1.32,1.55 -1.83,3.66 -1.94,5.9 -0.08,-0.13 -0.15,-0.27 -0.21,-0.38 -0.57,-1.02 -1.72,-1.52 -2.88,-1.25 -1.12,0.29 -1.91,1.3 -1.91,2.46 0,4.52 -0.27,4.58 -2.87,5.11 -1.51,0.32 -3.59,0.75 -5.97,1.98 -18.37,13.63 -54.98,41.72 -64.48,52.15 -0.78,0.85 -0.89,2.12 -0.26,3.09 6.39,10.03 -35.5,39.94 -55.64,54.33 -8.9,6.34 -15.44,11.02 -18.03,13.65 -45.239,22.46 -51.629,45.51 -46.2,75.05 -7.98,2.32 -32.91,11.64 -38.379,38.48 -3.011,14.93 -1.019,27.61 5.61,35.72 5.199,6.37 13.168,9.21 20,7.21 6.551,-1.75 9.461,-5.54 11.578,-8.32 2.012,-2.62 3.019,-3.78 5.672,-3.78 1.738,0.08 2.25,0.56 2.558,0.97 2.832,3.68 0.391,15.81 -1.55,25.56 l -0.207,1.05 c -0.211,1.02 -19.442,104.57 90.958,200 0.86,0.74 2.07,0.82 3.03,0.24 0.95,-0.6 1.4,-1.74 1.1,-2.82 -3.9,-14.63 -5.55,-29.54 -3.45,-31.31 4.75,0.04 19.44,12.63 28.4,21.57 0.87,0.9 2.25,1.02 3.28,0.27 1.01,-0.71 1.35,-2.06 0.81,-3.18 -2.92,-6 -6.5,-16.3 -4.92,-19.37 0.15,-0.29 0.32,-0.45 0.78,-0.54 0.26,-0.03 0.56,-0.05 0.91,-0.05 10.59,0 51.3,13.83 75.44,30.55 1.02,0.71 2.42,0.57 3.29,-0.34 0.87,-0.91 0.96,-2.3 0.21,-3.3 -5.4,-7.18 -10.37,-16.77 -8.97,-19.7 0.24,-0.53 0.99,-0.82 2.22,-0.87 13.16,0 44.17,13.8 44.48,13.94 0.8,0.34 1.72,0.29 2.43,-0.18 0.12,-0.07 12.22,-7.67 33.37,-7.67 17.55,0 36.18,5.1 55.35,15.16 0.92,0.48 2.06,0.35 2.85,-0.33 0.79,-0.68 1.08,-1.78 0.74,-2.77 -0.16,-0.46 -14.85,-43.44 -0.69,-69.1 2.54,5.32 6.87,15.23 9.11,25.14 0.28,1.27 1.47,2.08 2.75,1.98 1.29,-0.14 2.27,-1.21 2.29,-2.5 0.01,-0.26 0.65,-26.26 24.84,-65.32 22.01,-35.25 36.74,-60.8 34.93,-82.41 5.8,3.32 15.91,8.18 25.4,8.18 3.12,0 5.97,-0.52 8.49,-1.57 16.29,-6.38 16.08,-37.56 6.52,-62.78 -8.33,-21.33 -29.53,-21.9 -37.68,-21.29 1.24,-10.86 3.46,-45.8 -14.08,-76.04 -19.53,-33.34 -64.94,-52 -100,-61.84 -2.21,-3.73 -5.56,-7.36 -8.8,-10.89 -4.61,-5 -9.38,-10.16 -10.55,-15.27 -4.61,-20.96 -24.38,-34.64 -45.32,-49.11 -5.79,-4.01 -11.79,-8.16 -17.4,-12.46 -5.16,-3.48 -9.07,-5.13 -12.08,-5.13" /><path
         id="path106"
         style="fill:#000000;fill-opacity:1;fill-rule:evenodd;stroke:none"
         d="m 1229.55,1298.5 c 16.45,8.5 23.54,18.14 23.24,18.14 1.42,-0.28 -9.92,-14.75 -22.11,-19.57 -17,-8.5 -31.74,-14.44 -32.88,-14.44 1.14,0.56 12.19,6.8 31.75,15.87" /><path
         id="path108"
         style="fill:#000000;fill-opacity:1;fill-rule:nonzero;stroke:none"
         d="m 1197.8,1277.66 c -2.29,0 -4.29,1.58 -4.81,3.81 -0.54,2.23 0.53,4.54 2.57,5.58 l 0.96,0.51 c 3.47,1.88 14.02,7.59 30.94,15.44 13.77,7.12 20.12,14.89 20.96,15.98 0.21,0.39 0.48,0.76 0.8,1.09 1.2,1.25 2.96,1.78 4.64,1.41 2.13,-0.47 3.82,-2.43 4,-4.6 0.45,-5.74 -14.47,-20.11 -25.35,-24.42 -9.73,-4.88 -31.13,-14.8 -34.71,-14.8" /><path
         id="path110"
         style="fill:#fdfdfd;fill-opacity:1;fill-rule:evenodd;stroke:none"
         d="m 1394.81,386.594 c -9.63,72.847 -150.79,104.316 -250.29,104.316 -99.5,0 -240.387,-31.469 -250.317,-104.316 -9.629,-72.852 162.997,-51.031 250.317,-51.031 87.59,0 259.93,-21.821 250.29,51.031" /><path
         id="path112"
         style="fill:#e2e3e8;fill-opacity:1;fill-rule:evenodd;stroke:none"
         d="m 1394.81,386.594 c -9.63,72.847 -150.79,104.316 -250.29,104.316 -56.41,0 -126.43,-10.207 -178.028,-32.316 12.192,-5.672 22.121,-2.274 33.16,-5.391 -31.449,-29.191 -65.75,-58.672 -105.718,-72.562 0.57,-65.77 165.536,-45.078 250.586,-45.078 87.59,0 259.93,-21.821 250.29,51.031" /><path
         id="path114"
         style="fill:#fdfdfd;fill-opacity:1;fill-rule:evenodd;stroke:none"
         d="m 877.207,690.188 c 0,0 -28.91,-235.571 245.483,-235.571 274.38,0 296.5,145.707 303.59,238.117 7.37,92.133 -519.874,72.84 -549.073,-2.546" /><path
         id="path116"
         style="fill:#e2e3e8;fill-opacity:1;fill-rule:evenodd;stroke:none"
         d="m 1184.77,754.531 c 14.74,-75.398 34.01,-160.441 -59.24,-167.531 -25.23,43.941 25.22,97.512 31.45,144.57 0,8.211 0.86,15.301 1.43,22.68 -113.68,-3.117 -229.324,-20.98 -268.445,-49.328 13.89,-52.442 55.84,-96.09 75.121,-140.031 13.32,-31.758 26.922,-65.489 46.484,-93.539 30.05,-10.493 66.62,-16.731 111.12,-16.731 79.36,0 137.76,12.192 180.57,31.75 52.72,69.168 97.51,144.281 111.12,229.891 -32.9,27.211 -128.15,38.84 -229.61,38.269" /><path
         id="path118"
         style="fill:#000000;fill-opacity:1;fill-rule:evenodd;stroke:none"
         d="m 1355.41,738.652 c 32.88,-7.648 71.15,-21.539 69.45,-45.922 -4.25,-52.726 -13.32,-108 -51.31,-152.789 -47.34,-55.558 -131.53,-83.898 -250.86,-83.898 -87.31,0 -152.792,24.09 -194.741,71.148 -43.937,49.891 -49.89,113.661 -49.89,144.571 0,10.761 0.562,17.281 0.851,18.129 22.391,56.703 335.62,80.793 476.5,48.761 m -284.32,11.911 C 959.129,740.082 886.281,717.672 875.789,690.742 l 0,-0.269 c -0.289,-1.141 -11.059,-96.102 49.891,-165.27 42.519,-47.902 108.56,-72.281 197.01,-72.281 286.29,0 299.05,161.859 305.29,239.531 1.7,21.258 -22.4,37.981 -71.72,49.027 -67.75,15.602 -179.43,19.012 -285.17,9.083" /><path
         id="path120"
         style="fill:#fdfdfd;fill-opacity:1;fill-rule:evenodd;stroke:none"
         d="m 1458.88,715.977 0,3.121 0,-3.121 z m -39.69,112.82 -528.374,0 c -38.269,0 -69.449,-33.449 -69.449,-74.551 0,-41.098 31.18,-74.551 69.449,-74.551 l 528.374,0 c 38.56,0 69.45,33.453 69.45,74.551 0,41.102 -30.89,74.551 -69.45,74.551" /><path
         id="path122"
         style="fill:#e2e3e8;fill-opacity:1;fill-rule:evenodd;stroke:none"
         d="m 1419.19,828.801 -528.381,0 c -10.2,0 -19.84,-2.551 -28.629,-6.813 2.55,-49.609 8.218,-104.019 38.84,-142.289 l 221.95,0 c 10.77,28.059 23.24,62.36 46.49,51.86 19.27,-6.508 20.97,-29.2 24.38,-51.86 l 226.77,0 c 16.44,22.11 25.51,49.602 44.5,64.629 5.95,4.82 14.17,9.922 23.53,14.172 -1.99,39.117 -32.32,70.301 -69.45,70.301" /><path
         id="path124"
         style="fill:#000000;fill-opacity:1;fill-rule:evenodd;stroke:none"
         d="m 1419.19,681.395 -528.381,0 c -37.418,0 -67.75,32.601 -67.75,72.851 0,40.25 30.332,72.84 67.75,72.84 l 528.381,0 c 37.42,0 68.03,-32.59 68.03,-72.84 0,-40.25 -30.61,-72.851 -68.03,-72.851 m 0,148.82 -528.381,0 c -39.121,0 -70.86,-34.027 -70.86,-75.969 0,-41.949 31.739,-76.25 70.86,-80.512 l 528.381,0 c 39.12,4.262 71.15,38.563 71.15,80.512 0,41.942 -32.03,75.969 -71.15,75.969" /><path
         id="path126"
         style="fill:#e8c09b;fill-opacity:1;fill-rule:evenodd;stroke:none"
         d="m 1128.36,672.891 c 22.68,48.468 52.43,106.582 50.17,160.441 -2.26,53.578 -55.56,81.07 -96.66,89.008 66.32,-60.379 49.61,-162.149 46.49,-249.449" /><path
         id="path128"
         style="fill:#000000;fill-opacity:1;fill-rule:evenodd;stroke:none"
         d="m 1145.64,448.672 c -2.26,7.09 -6.8,12.469 -6.8,12.469 0,0.57 8.79,-5.668 9.93,-11.618 2.27,-9.363 -4.25,-14.75 -3.7,-14.75 -0.55,0.29 2.56,5.387 0.57,13.899" /><path
         id="path130"
         style="fill:#000000;fill-opacity:1;fill-rule:evenodd;stroke:none"
         d="m 1119.57,434.773 c -1.98,6.243 -5.11,11.622 -5.11,11.622 0,0 3.68,-2.821 6.53,-6.801 1.4,-2.258 3.12,-6.52 2.83,-6.789 -1.13,-3.981 -7.08,-9.641 -6.23,-9.371 -0.57,0.293 4.25,3.98 1.98,11.339" /><path
         id="path132"
         style="fill:#000000;fill-opacity:1;fill-rule:evenodd;stroke:none"
         d="m 1082.15,438.469 c -1.42,4.808 -3.96,9.066 -3.96,9.066 0,0.281 5.94,-3.969 7.08,-8.219 1.98,-7.371 -5.67,-9.359 -4.82,-9.07 -0.57,0 3.4,3.121 1.7,8.223" /><path
         id="path134"
         style="fill:#000000;fill-opacity:1;fill-rule:evenodd;stroke:none"
         d="m 1171.45,491.758 c 6.8,12.191 17,17.57 16.71,17.57 -0.27,0.289 -10.77,-11.91 -13.89,-19 -7.36,-11.332 -2.25,-22.379 -1.97,-22.109 0.84,-0.84 -9.37,7.937 -0.85,23.539" /><path
         id="path136"
         style="fill:#000000;fill-opacity:1;fill-rule:evenodd;stroke:none"
         d="m 1198.37,465.676 c 0.28,8.789 4.82,14.75 4.54,14.75 0,0 -1.71,-9.934 -1.14,-14.75 -0.57,-7.942 3.69,-13.602 3.69,-13.602 0.57,-0.289 -6.81,2.551 -7.09,13.602" /><path
         id="path138"
         style="fill:#000000;fill-opacity:1;fill-rule:evenodd;stroke:none"
         d="m 1227.29,460.293 c -0.86,7.09 2.82,11.621 2.82,11.621 -0.27,0 -0.56,-7.66 0.3,-11.051 0.84,-5.672 3.97,-9.929 3.68,-9.929 0.57,0 -5.39,1.14 -6.8,9.359" /><path
         id="path140"
         style="fill:#f6d4b3;fill-opacity:1;fill-rule:evenodd;stroke:none"
         d="m 1666.09,889.453 c -2.28,-3.121 -10.21,0.578 -18.98,4.539 -11.64,5.379 -24.12,11.91 -25.52,12.75 1.97,-1.687 13.31,-6.519 24.66,-12.469 9.63,-4.539 19.27,-9.628 22.66,-15.308 2.56,-4.531 -1.7,-17.281 -7.64,-16.434 -8.5,0.852 -21.84,10.203 -28.91,14.453 l -13.9,8.508 c -1.69,0.84 -2.83,1.41 0,0.563 3.68,-0.852 9.35,-5.953 15.88,-11.051 47.34,-38.262 -8.8,-30.039 -34.3,-14.172 -22.4,14.172 -33.74,4.242 -44.5,-6.238 -9.08,-9.082 -31.48,-28.34 -39.41,-10.481 -8.2,17.282 31.46,35.141 9.07,63.782 -8.5,10.476 9.93,28.046 19.84,29.75 18.73,3.679 140.34,-20.411 121.05,-48.192" /><path
         id="path142"
         style="fill:#000000;fill-opacity:1;fill-rule:nonzero;stroke:none"
         d="m 1550.24,936.465 c -2.09,0 -3.72,-0.121 -4.88,-0.352 -6.41,-1.097 -16.82,-9.468 -19.91,-17.699 -1.43,-3.801 -1.09,-7.008 0.96,-9.551 13.97,-17.859 4.79,-32.066 -2.59,-43.468 -4.96,-7.711 -9.26,-14.36 -6.28,-20.622 1.93,-4.347 4.78,-6.437 8.75,-6.437 9.73,0 22.92,12.129 28.14,17.359 7.72,7.532 14.95,13.731 25.43,13.731 6.41,0 13.27,-2.371 21,-7.289 11.57,-7.172 30.25,-13.024 41.66,-13.024 4.8,0 7.82,1.012 8.47,2.883 0.64,1.758 0.16,7.41 -17.63,21.789 -1.32,1.039 -2.63,2.078 -3.9,3.102 l -11.81,7.289 c -1.84,0.89 -2.72,1.34 -2.43,2.64 l 0.28,1.2 1.3,0.019 c 0.31,0 0.74,-0.082 2.11,-0.488 3.16,-0.723 7.34,-4.07 12.16,-7.953 l 0.08,-0.047 2.01,-1.223 c 1.27,-0.769 2.73,-1.679 4.36,-2.699 7.28,-4.602 17.27,-10.879 23.91,-11.531 l 0.41,-0.039 c 1.34,0 2.8,1.199 4.04,3.3 2.07,3.551 2.89,8.719 1.68,10.848 -3.17,5.281 -12.9,10.383 -21.99,14.684 l -2.44,1.258 c -4.48,2.109 -8.95,4.32 -12.7,6.242 -5.34,2.539 -8.69,4.179 -9.87,5.179 l 1.82,2.52 c 0.69,-0.422 4.36,-2.352 9.44,-4.93 l 0.61,-0.269 c 3.59,-1.731 7.8,-3.75 12.12,-5.973 l 3.74,-1.738 c 6.03,-2.731 11.75,-5.332 14.93,-5.332 1.23,0 1.5,0.402 1.6,0.543 2.09,3 2.32,6.008 0.68,9.16 -10.54,20.137 -88.98,36.918 -115.26,36.918 m -23.95,-101.25 c -5.25,0 -9.16,2.769 -11.59,8.25 -3.71,7.801 1.25,15.48 6.51,23.621 7.54,11.668 15.34,23.758 2.76,39.84 -2.75,3.398 -3.26,7.75 -1.43,12.597 3.51,9.372 15.05,18.411 22.25,19.653 1.32,0.269 3.16,0.41 5.45,0.41 23.64,0 106.21,-16.02 118.03,-38.609 2.19,-4.204 1.89,-8.383 -0.91,-12.411 -0.89,-1.23 -2.27,-1.839 -4.14,-1.839 l -0.02,0 c 3.09,-2.18 5.59,-4.512 7.07,-6.961 1.96,-3.512 0.64,-9.981 -1.7,-13.969 -1.84,-3.141 -4.21,-4.871 -6.73,-4.871 l 0,0 c -0.25,0 -0.53,0.019 -0.8,0.058 -4.43,0.442 -10.02,3.039 -15.41,6.09 6.92,-7 9.66,-12.308 8.3,-16.14 -1.16,-3.278 -5,-4.95 -11.41,-4.95 -12.09,0 -31.13,5.942 -43.31,13.52 -7.23,4.59 -13.57,6.793 -19.35,6.793 -9.31,0 -16.02,-5.813 -23.23,-12.82 -6.82,-6.801 -19.84,-18.262 -30.34,-18.262" /><path
         id="path144"
         style="fill:#fdfdfd;fill-opacity:1;fill-rule:evenodd;stroke:none"
         d="m 1344.07,1265.05 c 0,0 46.2,-18.99 87.02,-70.87 41.11,-52.15 68.6,-130.39 99.78,-153.63 31.18,-22.96 37.7,-32.32 31.74,-48.48 0,0 25.52,-4.25 30.63,-23.519 3.68,-18.434 -41.96,-109.703 -153.36,-134.942 -111.68,-24.941 -169.51,229.331 -172.91,314.371 -3.69,84.76 47.9,122.74 77.1,117.07" /><path
         id="path146"
         style="fill:#d7d9d9;fill-opacity:1;fill-rule:evenodd;stroke:none"
         d="m 1266.97,1147.98 c -3.68,84.76 47.91,122.74 77.1,117.07 0,0 1.7,-0.85 5.1,-2.55 -2.27,-59.81 -55.55,-137.76 16.16,-168.95 -9.64,28.63 -19.28,57.55 -24.94,86.46 70.01,-29.76 54.14,-105.45 69.45,-163.27 10.48,27.21 29.19,51.3 27.48,80.78 26.65,-41.67 -2.82,-89.29 -0.56,-129.821 -1.99,-33.738 -3.4,-81.922 41.11,-84.761 22.39,0.273 45.07,0.273 67.46,5.671 -24.94,-22.961 -59.53,-44.5 -105.45,-55 -111.68,-24.941 -169.51,229.331 -172.91,314.371" /><path
         id="path148"
         style="fill:#d7d9d9;fill-opacity:1;fill-rule:evenodd;stroke:none"
         d="m 1558.09,1017.3 c 7.09,-8.79 7.94,-15.87 4.54,-25.23 0,0 3.96,-0.57 9.07,-2.55 -12.49,-32.598 -41.4,-57.258 -80.22,-64.348 41.09,14.18 65.48,53.297 66.61,92.128" /><path
         id="path150"
         style="fill:#ebebeb;fill-opacity:1;fill-rule:evenodd;stroke:none"
         d="m 1483.25,998.59 c 20.98,54.14 13.04,123.87 -40.82,151.37 -4.25,3.4 1.7,-29.48 -13.61,-42.24 -26.36,37.99 -28.63,78.81 -43.08,121.61 -1.99,4.54 -3.97,9.64 -6.52,14.74 15.59,-11.05 34.3,-27.5 51.87,-49.89 40.82,-51.87 68.32,-129.54 99.22,-153.07 -9.64,-18.43 -24.1,-34.3 -47.06,-42.52" /><path
         id="path152"
         style="fill:#fdfdfd;fill-opacity:1;fill-rule:evenodd;stroke:none"
         d="m 963.945,1238.12 c 0,0 -34.019,-42.52 -47.34,-74.27 -13.039,-32.03 -32.308,-86.45 -45.351,-95.81 0,0 -9.07,5.95 -19.559,-1.98 -10.492,-7.94 -9.359,-14.18 -15.59,-16.16 -5.96,-1.7 -14.46,21.26 -46.492,16.72 -32.027,-4.25 -31.75,-62.64 -36,-88.999 -4.25,-26.371 -10.207,-104.902 30.614,-128.41 40.539,-23.539 70.589,-19.852 113.109,34.578 42.23,54.41 136.344,94.961 136.624,200.981 0.29,106.01 -51.026,155.62 -70.015,153.35" /><path
         id="path154"
         style="fill:#ebebeb;fill-opacity:1;fill-rule:evenodd;stroke:none"
         d="m 807.473,854.309 c 24.937,21.257 14.168,73.418 42.797,94.109 8.511,11.059 25.23,25.23 33.171,28.348 90.989,30.894 63.782,159.024 70.301,233.004 3.399,7.94 7.078,17.86 9.071,26.93 0.847,1.14 1.128,1.42 1.128,1.42 18.989,2.27 70.299,-47.34 70.019,-153.35 -0.29,-106.024 -94.397,-146.551 -136.628,-200.985 -41.391,-53.008 -70.871,-57.828 -109.992,-36.277 7.09,-0.289 13.89,1.41 20.133,6.801" /><path
         id="path156"
         style="fill:#d7d9d9;fill-opacity:1;fill-rule:evenodd;stroke:none"
         d="m 836.105,1049.9 c 1.7,0.57 2.829,1.42 3.969,2.83 15.871,-24.66 28.629,-51.59 19.84,-81.632 -10.488,24.371 -15.309,58.672 -30.051,82.202 2.563,-2.27 4.539,-3.97 6.242,-3.4" /><path
         id="path158"
         style="fill:#d7d9d9;fill-opacity:1;fill-rule:evenodd;stroke:none"
         d="m 937.016,1105.46 c -6.239,-26.93 -29.758,-32.6 -45.918,-42.8 13.609,-17.01 19.558,-37.14 29.48,-57.83 -10.492,12.76 -17.012,25.23 -27.781,34.02 2.269,-15.88 0.57,-35.44 -0.57,-51.041 -3.68,28.081 -6.231,68.331 -29.481,82.501 5.102,0 8.512,-2.27 8.512,-2.27 6.801,4.82 15.019,21.83 23.519,41.39 13.328,-5.39 26.93,-8.22 42.239,-3.97" /><path
         id="path160"
         style="fill:#000000;fill-opacity:1;fill-rule:evenodd;stroke:none"
         d="m 896.48,884.355 c 12.188,15.872 28.629,30.329 45.918,45.629 42.52,37.141 90.432,79.656 90.722,154.786 0.27,72.28 -24.39,120.75 -47.35,141.73 -7.942,7.09 -15.872,11.34 -21.262,10.77 -2.828,-3.41 -34.578,-43.66 -47.047,-73.98 l -8.223,-20.99 c -12.48,-31.46 -26.648,-67.46 -37.418,-74.82 -0.281,-0.3 -0.57,-0.3 -0.851,-0.3 -0.571,0.3 -9.071,5.39 -18.711,-1.98 -5.098,-3.97 -7.367,-7.36 -9.348,-10.2 -1.711,-2.84 -3.121,-4.82 -6.519,-5.95 -2.274,-0.85 -4.821,1.41 -7.942,4.25 -6.519,5.66 -17.289,15.31 -38.84,12.47 -25.789,-3.39 -30.039,-43.09 -33.16,-71.997 l -1.988,-16.437 c -5.953,-37.141 -6.523,-106.02 30.047,-127.281 37.14,-21.539 67.472,-22.961 111.972,34.3 m 90.43,343.555 c 23.52,-21.25 48.18,-70.3 48.18,-143.14 -0.28,-76.25 -48.75,-118.774 -91.27,-156.473 -17.293,-15.031 -33.73,-29.481 -45.922,-45.07 -39.968,-51.59 -70.019,-60.672 -114.238,-34.872 -37.422,21.829 -37.133,91.559 -30.902,129.258 l 1.992,16.442 c 3.117,29.485 7.367,70.015 34.859,73.695 22.11,2.84 33.45,-7.07 39.969,-13.04 2.84,-2.26 4.82,-4.25 6.242,-3.67 2.828,0.85 3.969,2.55 5.668,5.1 1.7,2.82 4.25,6.52 9.641,10.77 9.351,7.09 17.57,3.68 20.121,2.54 10.211,7.66 24.379,44.23 36,73.71 l 8.508,20.98 c 13.031,31.75 47.051,74.27 47.621,74.82 0,0 0.281,0.29 0.559,0.29 5.96,0.57 14.46,-3.39 22.972,-11.34" /><path
         id="path162"
         style="fill:#000000;fill-opacity:1;fill-rule:evenodd;stroke:none"
         d="m 842.055,1032.89 c 12.472,-26.93 12.761,-52.441 13.043,-52.16 0.847,0 -0.571,36.57 -10.493,53.58 -13.32,29.76 -42.238,33.16 -41.097,32.88 -1.141,-0.85 22.68,-2.55 38.547,-34.3" /><path
         id="path164"
         style="fill:#000000;fill-opacity:1;fill-rule:evenodd;stroke:none"
         d="m 885.992,1041.11 c 7.09,-22.39 9.348,-41.946 9.641,-41.669 0.277,-0.277 -1.422,28.349 -6.813,42.519 -3.398,11.34 -9.347,21.26 -16.148,25.51 -7.09,4.25 -12.481,1.99 -12.192,2.27 -0.289,-0.28 4.25,0.85 10.2,-2.55 5.672,-3.97 11.34,-13.32 15.312,-26.08" /><path
         id="path166"
         style="fill:#000000;fill-opacity:1;fill-rule:evenodd;stroke:none"
         d="m 892.797,1050.46 c 15.59,-17.85 24.09,-36 24.383,-35.72 0.277,0 -11.34,26.65 -22.114,37.71 -16.16,20.98 -39.398,17.85 -38.269,17 -0.848,-0.27 17.859,3.41 36,-18.99" /><path
         id="path168"
         style="fill:#000000;fill-opacity:1;fill-rule:evenodd;stroke:none"
         d="m 909.805,1081.36 c 10.199,5.67 23.531,22.11 26.082,26.08 -1.703,-3.69 -8.793,-17.86 -24.383,-28.63 -18.988,-12.19 -33.449,-7.94 -36.277,-7.37 3.117,0 19.269,-0.85 34.578,9.92" /><path
         id="path170"
         style="fill:#f6d4b3;fill-opacity:1;fill-rule:evenodd;stroke:none"
         d="m 794.719,898.523 c -6.242,-5.097 -14.172,-8.789 -23.531,-12.187 4.82,6.238 15.308,9.07 17.578,17.008 -8.508,11.633 3.679,21.261 -7.938,33.16 6.801,5.973 6.238,22.402 -2.269,29.769 19.558,23.532 -20.411,61.227 -41.383,36.277 -7.09,2.27 -13.891,4.83 -22.399,4.25 9.641,-3.1 19.282,-6.23 27.782,-11.335 4.539,3.41 -4.25,4.535 0,8.235 25.796,12.75 42.238,-11.345 36.847,-31.473 -33.449,-16.43 -64.91,-6.243 -88.718,3.398 -15.032,35.145 13.89,48.195 46.769,51.305 10.199,26.93 -26.93,50.46 -15.59,81.64 4.821,13.04 20.692,26.36 40.25,19.57 5.102,-1.71 11.91,-7.09 13.039,-13.34 1.422,-6.8 -5.949,-15.87 -6.801,-26.07 -1.136,-10.48 -1.417,-35.16 7.083,-47.34 4.539,-6.51 12.48,-7.37 19.558,-11.62 6.52,-3.68 9.641,-6.23 14.742,-15.88 5.957,-15.585 12.188,-34.296 14.18,-49.035 1.699,-11.902 4.527,-19.839 1.98,-30.32 -0.57,-1.988 -2.832,-10.211 -2.55,-12.469 -1.981,-9.082 -19.84,-18.722 -28.629,-23.543" /><path
         id="path172"
         style="fill:#f6d4b3;fill-opacity:1;fill-rule:evenodd;stroke:none"
         d="m 777.426,965.996 c 3.972,-8.219 6.801,-17.859 3.121,-23.82 -30.328,-20.969 -66.621,-9.059 -91.281,-0.559 -7.649,10.207 -7.649,23.25 -1.129,30.039 24.66,-9.922 59.531,-19.269 89.289,-5.66" /><path
         id="path174"
         style="fill:#f6d4b3;fill-opacity:1;fill-rule:evenodd;stroke:none"
         d="m 778.559,937.078 c 15.589,-20.406 -9.348,-37.129 -27.778,-39.969 -17.011,-2.828 -76.531,15.032 -56.41,39.692 24.949,-7.371 54.141,-18.711 84.188,0.277" /><path
         id="path176"
         style="fill:#f6d4b3;fill-opacity:1;fill-rule:evenodd;stroke:none"
         d="m 713.648,900.227 c 16.161,-7.09 53.86,-11.051 67.18,10.5 1.699,-1.141 5.949,-6.243 3.688,-8.524 -3.118,-5.379 -9.637,-7.93 -14.457,-11.328 -4.821,-3.691 -9.641,-8.781 -14.743,-10.199 -17.859,-5.672 -28.91,10.199 -41.668,19.551" /><path
         id="path178"
         style="fill:#000000;fill-opacity:1;fill-rule:evenodd;stroke:none"
         d="m 755.316,880.676 c -17.859,-5.672 -28.628,10.199 -41.668,19.558 16.161,-7.089 53.86,-11.058 67.469,10.489 1.41,-1.141 5.66,-6.239 3.399,-8.52 -3.118,-5.379 -9.36,-7.93 -14.457,-11.328 -4.821,-3.691 -9.352,-8.781 -14.743,-10.199 m -60.937,56.117 c 24.937,-7.359 54.137,-18.418 84.18,0.289 15.879,-20.129 -9.071,-37.129 -27.782,-39.969 -16.718,-2.84 -76.531,15.02 -56.398,39.68 m -6.242,34.871 c 24.941,-9.93 59.808,-19.269 89.57,-5.68 3.691,-8.211 6.52,-17.851 2.84,-23.808 -30.051,-20.961 -66.328,-9.071 -90.988,-0.563 -7.661,10.2 -7.942,23.25 -1.422,30.051 m 125.011,35.146 c -6.812,24.94 -27.5,24.09 -36.293,38.84 -13.32,22.39 -4.25,49.05 2.274,67.18 -7.941,28.05 -42.524,23.81 -54.711,6.22 -6.52,-9.34 -8.5,-26.35 -4.25,-40.81 4.82,-16.44 19.277,-29.2 16.16,-48.19 -38.84,-4.25 -63.781,-21.25 -48.191,-55.277 -9.36,-7.089 -12.469,-28.621 1.98,-36.558 -10.769,-19.281 8.512,-27.492 18.141,-35.43 12.758,-10.769 27.219,-27.222 42.519,-25.801 5.391,0.571 8.508,4.258 14.461,5.661 13.039,6.238 18.141,3.128 29.77,16.16 -6.52,-5.09 -14.461,-9.071 -23.531,-12.473 4.82,6.242 15.019,9.082 17.57,17.023 -8.5,11.618 3.398,21.258 -7.93,33.161 6.801,5.957 5.949,22.386 -2.558,29.769 19.558,23.52 -20.411,61.505 -41.383,36.265 -7.09,2.28 -13.61,4.83 -22.399,4.26 9.641,-3.11 19.282,-6.23 27.782,-11.345 4.539,3.41 -3.961,4.555 0,8.235 25.796,12.75 42.238,-11.356 36.847,-31.477 -33.437,-16.43 -64.91,-6.239 -88.718,3.41 -14.743,35.157 13.89,48.177 46.769,51.297 10.488,26.95 -26.641,50.45 -15.59,81.65 4.821,13.03 20.692,26.37 40.25,19.55 5.391,-1.7 11.91,-7.08 13.039,-13.32 1.422,-6.81 -5.668,-15.86 -6.801,-26.08 -1.128,-10.49 -1.128,-35.15 7.09,-47.34 8.782,-12.46 29.762,-9.64 35.434,-32.87 17.566,-62.368 16.437,-47.344 2.269,-1.71" /><path
         id="path180"
         style="fill:#000000;fill-opacity:1;fill-rule:evenodd;stroke:none"
         d="m 1306.37,1252.01 c -12.47,-9.92 -41.09,-39.69 -38.54,-104.03 2.83,-64.91 41.1,-250.023 116.22,-301.613 17.56,-12.191 36.28,-16.16 55.55,-11.621 73.7,16.442 114.23,60.383 131.81,85.039 14.75,20.41 21.54,38.832 20.99,47.051 0,0.582 0,0.859 -0.3,1.422 -4.81,18.719 -29.48,22.961 -29.75,22.961 0,0 -0.3,0.289 -0.58,0.289 l 0,0.847 c 1.43,3.68 1.99,7.083 1.7,10.485 -0.56,10.21 -9.64,19.56 -33.45,37.14 -17.28,12.75 -32.88,41.38 -51.01,74.55 -14.75,27.5 -30.34,55.56 -48.76,79.09 -39.69,50.45 -85.04,69.73 -86.46,70.58 -11.34,1.98 -25.22,-2.55 -37.42,-12.19 m 37.99,13.89 0,0 c 0.56,-0.28 47.05,-19.56 87.59,-71.15 18.42,-23.53 34.01,-51.87 48.76,-79.09 17.28,-31.74 33.73,-61.79 50.74,-74.26 24.09,-17.86 33.73,-27.5 34.29,-38.27 0,-3.12 -0.56,-6.525 -1.69,-10.212 4.24,-1.133 25.5,-6.52 30.04,-24.09 0.29,-0.57 0.29,-1.133 0.29,-1.699 0.56,-8.793 -6.24,-27.203 -21.26,-48.191 -17.86,-24.95 -58.97,-69.442 -133.23,-86.172 -19.85,-4.258 -38.83,-0.289 -57.27,12.179 -75.4,51.883 -113.95,237.555 -116.79,302.755 -2.55,65.19 26.65,95.52 39.12,105.73 13.04,10.2 27.5,14.74 39.41,12.47" /><path
         id="path182"
         style="fill:#fdfdfd;fill-opacity:1;fill-rule:evenodd;stroke:none"
         d="m 1164.64,1301.05 c 102.61,-5.67 155.06,-10.77 207.5,-52.44 0,0 -40.54,-46.49 -34.02,-97.8 6.52,-51.3 37.7,-80.22 65.76,-158.74 28.06,-78.519 24.95,-122.742 36.85,-144.558 11.62,-21.84 23.82,-53.012 -8.5,-71.723 -32.6,-18.988 -82.49,-26.93 -101.48,-30.898 -19.28,-3.969 -68.88,-13.891 -100.07,0.57 -30.89,14.168 -94.95,55.559 -128.4,104.598 -29.77,43.921 -122.741,-26.09 -159.592,-22.957 -3.118,0.277 -14.739,14.449 -20.7,23.519 -2.258,3.399 -2.258,7.09 -2.828,7.66 -20.98,16.719 21.539,95.239 26.93,105.16 0,0 18.14,46.489 30.898,50.179 0,0 -17.008,93.54 6.52,134.36 0,0 -28.348,39.97 -28.918,77.39 9.64,37.41 104.32,81.35 210.05,75.68" /><path
         id="path184"
         style="fill:#ebebeb;fill-opacity:1;fill-rule:evenodd;stroke:none"
         d="m 1430.81,851.191 c -26.36,-11.05 -67.46,-58.961 -102.05,-19.558 34.02,7.937 60.1,40.816 67.18,62.648 18.15,51.02 1.7,148.819 -59.24,155.049 -30.33,7.09 -51.87,-83.9 -94.11,-51.869 -30.61,21.259 -23.81,64.909 -43.09,97.229 58.96,-27.22 120.19,-8.79 140.32,45.35 9.35,-45.07 37.98,-75.12 64.06,-147.97 26.08,-73.418 25.23,-116.5 34.58,-139.757 -2.55,0 -5.1,-0.27 -7.65,-1.122" /><path
         id="path186"
         style="fill:#d7d9d9;fill-opacity:1;fill-rule:evenodd;stroke:none"
         d="m 1084.41,911.855 c 13.61,30.321 -11.61,57.258 -34.01,80.79 1.41,-0.848 3.4,-1.418 6.24,-1.418 -3.98,1.687 -6.81,3.687 -9.93,5.66 -0.56,0.289 -0.83,0.847 -1.41,1.429 0.28,-0.582 0.85,-0.851 1.41,-1.429 -2.83,1.699 -5.67,3.413 -9.07,4.813 15.02,0.3 30.33,-6.786 41.97,-13.876 -36.59,30.606 -83.637,54.696 -65.48,107.426 0.55,-4.82 4.53,-9.34 7.08,-13.89 7.93,-18.13 38.54,-39.4 61.24,-24.66 44.76,44.23 -20.41,79.66 -47.36,111.98 -24.64,31.46 -11.05,74.82 1.14,115.37 36.29,12.18 81.35,19.54 128.4,17 62.93,-3.69 106.87,-6.8 143.43,-18.42 -15.86,-49.61 -14.45,-101.77 -6.79,-153.93 -19,14.18 -38.28,32.32 -64.91,28.07 -41.39,-11.36 -63.79,-44.23 -47.91,-83.91 15.87,-43.36 16.44,-97.805 47.34,-122.747 30.6,-24.937 67.75,30.043 97.79,59.547 0.57,-39.984 -33.15,-76.824 -74.83,-77.394 30.61,-10.5 64.63,-6.243 95.23,-13.051 -30.32,-18.711 -71.99,-11.899 -98.35,-30.328 -23.52,-17.582 -7.36,-47.621 8.21,-75.403 3.13,-25.507 5.39,-51.871 -1.7,-75.121 -11.33,0.582 -22.1,2.84 -31.46,7.09 -30.89,14.172 -94.95,55.57 -128.41,104.594 -12.19,18.156 -25.8,37.719 -39.39,56.418 9.34,-0.57 18.14,-1.418 21.53,5.39" /><path
         id="path188"
         style="fill:#000000;fill-opacity:1;fill-rule:evenodd;stroke:none"
         d="m 1164.64,1299.91 c -108.57,6.24 -200.41,-40.25 -209.202,-74.55 0.57,-36.85 28.632,-76.54 28.921,-77.1 l 0,-0.85 c -10.211,-17.58 -12.761,-45.64 -12.191,-71.15 0.562,-32.6 5.672,-61.8 5.672,-62.37 l 0,-0.28 c 0,0 0,-0.28 -0.289,-0.57 0,0 -0.281,-0.28 -0.563,-0.28 -11.629,-0.85 -38.84,-55.28 -52.437,-100.057 -1.992,-6.519 -8.793,-18.422 -9.082,-33.73 -0.281,-15.313 5.961,-34.289 18.429,-35.719 43.09,-4.25 149.952,35.719 169.232,7.367 32.88,-48.187 96.09,-89.578 128.12,-104.308 31.19,-14.461 82.49,-3.969 99.22,-0.571 l 7.93,1.699 c 22.68,4.25 64.63,12.469 93.26,29.192 15.31,8.789 20.41,20.699 20.41,33.168 -0.28,12.769 -6.23,26.359 -12.19,37.133 -5.1,9.636 -7.65,22.957 -10.77,41.668 -4.26,24.39 -10.2,58.121 -26.08,103.179 -12.47,34.869 -25.51,59.529 -36.85,81.359 -14.17,27.49 -25.51,49.04 -29.19,77.67 -0.29,3.4 -0.57,6.52 -0.57,9.92 -0.57,43.94 29.76,82.2 34.3,87.87 -52.44,41.11 -106.87,45.92 -206.08,51.31 m 0,1.98 c 100.35,-5.67 155.06,-10.48 208.06,-52.44 0.29,-0.28 0.29,-0.28 0.29,-0.56 0,-0.29 0,-0.57 -0.29,-0.85 -0.28,-0.29 -40.25,-46.78 -33.73,-96.95 3.69,-28.35 14.74,-49.89 28.91,-77.1 11.34,-21.83 24.38,-46.77 36.85,-81.638 16.16,-45.071 22.11,-78.801 26.37,-103.461 3.11,-18.418 5.38,-31.739 10.48,-41.11 11.91,-22.109 24.1,-53.558 -9.07,-72.847 -28.63,-16.723 -71.15,-24.942 -93.82,-29.481 l -7.66,-1.41 c -17.01,-3.41 -68.88,-14.18 -100.63,0.559 -32.31,14.742 -95.81,56.41 -128.97,105.171 -18.71,27.79 -125.582,-11.332 -168.379,-7.66 -12.762,1.141 -20.133,18.707 -19.281,36.86 1.988,49.039 46.21,133.787 62.078,135.487 -0.848,3.97 -5.098,31.18 -5.668,61.51 -0.282,25.8 2.269,53.86 12.187,71.72 -2.828,4.25 -28.34,42.24 -28.91,77.67 10.203,39.68 106.863,82.2 211.183,76.53" /><path
         id="path190"
         style="fill:#fdfdfd;fill-opacity:1;fill-rule:evenodd;stroke:none"
         d="m 1121.27,1078.53 c 0,0 -51.59,25.8 -108,21.26 0,0 -9.07,-77.95 39.69,-89.86 49.03,-12.192 72.56,44.22 68.31,68.6" /><path
         id="path192"
         style="fill:#000000;fill-opacity:1;fill-rule:evenodd;stroke:none"
         d="m 1014.12,1098.94 c -0.28,-1.71 -0.58,-7.37 -0.58,-15.59 0.3,-23.24 5.97,-64.35 39.7,-72.57 21.26,-5.39 36.28,3.11 45.07,11.34 14.45,13.61 22.68,35.72 22.38,50.74 0,1.69 -0.27,3.4 -0.27,4.82 -4.83,2.55 -53.86,25.23 -106.3,21.26 m 107.43,-19.56 c 0.28,-0.28 0.57,-0.58 0.57,-0.85 2.55,-15.32 -5.1,-41.67 -22.69,-57.83 -13.03,-11.9 -29.19,-16.15 -46.77,-11.9 -49.03,12.18 -40.52,90.41 -40.24,90.99 0,0.57 0.27,0.85 0.85,0.85 55.84,4.82 107.72,-21.26 108.28,-21.26" /><path
         id="path194"
         style="fill:#e22228;fill-opacity:1;fill-rule:evenodd;stroke:none"
         d="m 1240.89,1210.05 c 0,0 -3.96,-71.42 -68.88,-95.24 -65.2,-23.82 -114.52,34.01 -120.47,86.17 -5.96,52.16 21.26,33.45 30.33,27.22 9.07,-6.24 11.62,-90.15 57.82,-96.09 46.21,-5.68 68.32,52.14 68.04,80.21 -0.57,28.06 35.44,17.01 33.16,-2.27" /><path
         id="path196"
         style="fill:#be2525;fill-opacity:1;fill-rule:evenodd;stroke:none"
         d="m 1160.68,1130.97 c -37.43,-23.24 -64.91,29.2 -87.88,58.96 -4.53,5.67 -11.62,5.39 -19.85,2.55 -0.56,2.84 -1.14,5.67 -1.41,8.51 -5.97,52.15 21.26,33.44 30.32,27.21 9.07,-6.24 11.62,-90.14 57.82,-96.1 46.21,-5.67 68.32,52.16 68.05,80.22 -0.58,28.07 35.43,17.01 33.15,-2.26 0,0 -0.27,-7.09 -2.83,-17.58 -29.19,-5.95 -43.65,-44.22 -77.37,-61.51" /><path
         id="path198"
         style="fill:#000000;fill-opacity:1;fill-rule:evenodd;stroke:none"
         d="m 1139.41,1131.25 c -33.46,4.25 -44.5,48.76 -51.03,75.4 -2.54,10.49 -4.81,19.28 -7.09,20.98 -4.81,3.12 -16.16,11.05 -23.24,7.08 -5.66,-3.68 -7.65,-14.74 -5.66,-33.44 3.68,-32.04 22.97,-63.22 49.04,-79.37 21.25,-13.04 45.63,-15.31 70,-6.24 63.79,23.53 68.61,93.83 68.61,94.68 0.57,5.38 -2.27,10.77 -7.38,14.45 -5.66,3.69 -12.75,4.54 -17.28,1.99 -4.54,-2.27 -6.8,-7.37 -6.8,-14.46 0.28,-17.29 -8.79,-49.89 -29.2,-68.03 -11.61,-10.49 -25.23,-14.74 -39.97,-13.04 m -56.98,97.8 c 2.84,-1.99 4.81,-9.93 7.95,-21.83 6.23,-26.36 17.27,-70.02 49.3,-73.99 14.18,-1.7 27.23,2.27 38.27,12.19 20.13,18.15 28.91,49.89 28.64,66.9 0,9.92 4.25,14.17 7.64,16.16 5.4,2.83 13.33,1.98 19.56,-2.27 5.68,-3.97 8.79,-9.92 8.23,-16.16 -0.29,-0.56 -5.09,-72.28 -69.73,-96.09 -25.23,-9.36 -49.89,-7.09 -72,6.52 -26.36,16.16 -45.93,47.9 -49.59,80.5 -2.29,19.56 0,31.18 6.5,35.15 7.93,4.82 19.55,-3.12 25.23,-7.08" /><path
         id="path200"
         style="fill:#be2525;fill-opacity:1;fill-rule:evenodd;stroke:none"
         d="m 1163.22,1082.21 c 0,0 10.77,-18.43 25.8,-56.41 15.02,-37.698 23.81,-98.359 39.68,-136.347 16.16,-37.691 34.87,-44.223 17.01,-70.57 -17.86,-26.371 -59.53,-62.371 -74.84,-60.949 -15.59,1.41 -72.01,45.629 -80.78,65.757 -9.07,20.129 0.84,87.872 7.92,135.211 6.82,47.338 9.93,108.568 21.84,123.878 11.91,15.3 35.71,7.93 43.37,-0.57" /><path
         id="path202"
         style="fill:#e22228;fill-opacity:1;fill-rule:evenodd;stroke:none"
         d="m 1119.86,1081.64 c 11.89,17.3 35.7,8.8 43.36,-0.84 0,0 10.77,-20.69 25.8,-63.5 3.95,-11.05 7.36,-23.816 10.48,-37.413 -29.48,17 -59.82,32.883 -92.7,42.523 3.13,27.48 6.81,50.16 13.06,59.23" /><path
         id="path204"
         style="fill:#e22228;fill-opacity:1;fill-rule:evenodd;stroke:none"
         d="m 1092.36,915.535 c 0.84,9.352 1.69,17.293 2.54,24.094 1.42,11.34 2.55,23.527 3.98,35.707 37.69,-29.188 78.51,-53 122.16,-73.688 3.98,-17.293 8.51,-34.019 13.61,-47.91 4.25,-11.902 8.8,-26.359 13.05,-42.23 -61.52,18.988 -118.22,51.019 -155.34,104.027" /><path
         id="path206"
         style="fill:#000000;fill-opacity:1;fill-rule:evenodd;stroke:none"
         d="m 1138.27,1091 c -5.1,-0.28 -12.46,-1.98 -17.57,-8.5 -8.5,-11.06 -12.48,-45.64 -16.73,-82.21 l -5.09,-40.817 c -7.38,-49.891 -15.03,-119.903 -6.24,-139.184 8.78,-19.84 64.92,-63.207 79.94,-64.629 15.02,-1.418 56.12,34.02 73.97,60.102 5.12,7.648 7.09,19.269 6.82,32.59 -0.58,34.3 -15.31,18.148 -25.53,42.23 -8.21,19.57 -14.74,45.648 -20.97,70.59 -5.67,22.961 -11.62,46.768 -18.71,64.918 -14.73,36.56 -25.51,54.99 -25.8,55.84 -4.25,4.53 -14.17,9.35 -24.09,9.07 m 25.52,-8.22 0.28,0 c 0,-0.28 11.06,-18.99 25.79,-56.13 7.37,-18.14 13.32,-41.951 19,-65.189 5.95,-24.949 12.48,-51.031 20.7,-70.301 14.17,-33.449 37.4,-48.48 18.69,-76.25 -18.13,-26.648 -59.8,-62.66 -75.96,-60.949 -15.31,1.422 -72.56,45.641 -81.64,65.762 -9.07,20.976 -0.29,94.398 6.23,140.027 l 5.11,40.82 c 4.26,36.86 8.22,71.44 17,82.78 4.54,5.67 11.07,9.07 19.01,9.07 10.77,0.56 21.53,-4.54 25.79,-9.64" /><path
         id="path208"
         style="fill:#be2525;fill-opacity:1;fill-rule:evenodd;stroke:none"
         d="m 1145.64,1139.47 c 25.52,2.83 35.72,-0.85 30.34,-24.94 -5.39,-23.82 5.38,-37.99 -19.57,-44.23 -24.66,-5.95 -45.07,0.29 -44.5,38.56 0.29,38.26 30.61,29.48 33.73,30.61" /><path
         id="path210"
         style="fill:#000000;fill-opacity:1;fill-rule:evenodd;stroke:none"
         d="m 1145.64,1140.32 -0.28,0 0.28,0 z m 10.77,-69.17 c 16.45,4.26 16.45,11.63 16.73,24.1 0.29,5.67 0.29,11.9 1.99,19.56 2.26,9.92 1.69,16.44 -1.43,20.12 -3.97,4.26 -12.18,5.39 -28.06,3.69 l 0.29,0 -3.41,0 c -5.09,0.28 -14.73,0.85 -21.54,-5.67 -5.39,-4.82 -8.21,-13.04 -8.21,-24.09 -0.29,-16.73 3.68,-28.35 11.34,-34.3 7.07,-5.67 18.14,-6.81 32.3,-3.41 m 18.72,64.92 c 3.69,-4.25 4.25,-11.06 1.98,-21.83 -1.7,-7.09 -1.98,-13.61 -1.98,-19.27 -0.29,-12.19 -0.56,-21.26 -18.43,-25.52 -14.74,-3.68 -26.07,-2.55 -33.74,3.69 -8.21,6.52 -12.19,18.42 -12.19,35.72 0.3,11.62 3.12,20.4 8.8,25.51 7.36,7.08 17.86,6.23 22.95,5.95 l 3.12,0 c 16.45,1.98 24.95,0.85 29.49,-4.25" /><path
         id="path212"
         style="fill:#fdfdfd;fill-opacity:1;fill-rule:evenodd;stroke:none"
         d="m 1168.61,1331.66 c 91.27,-7.65 120.19,-25.8 131.52,-47.34 0,0 -20.97,-50.74 -14.73,-132.09 0,0 -34.02,51.59 -71.16,39.68 -36.85,-11.9 -73.4,-50.74 -73.4,-50.74 0,0 -25.8,89.01 -108.29,44.22 0,0 -2.55,89.29 37.69,129.55 40.55,39.96 98.37,16.72 98.37,16.72" /><path
         id="path214"
         style="fill:#000000;fill-opacity:1;fill-rule:evenodd;stroke:none"
         d="m 1168.61,1330.53 -0.27,0.28 c -0.59,0 -57.85,22.4 -97.25,-16.72 -37.14,-36.57 -37.7,-115.94 -37.7,-126.99 24.38,12.75 45.92,15.3 64.63,7.37 28.34,-11.91 40.82,-44.22 43.09,-51.59 6.23,6.23 39.69,39.11 72.84,49.89 32.34,10.48 62.66,-26.93 70.3,-37.42 -0.55,7.37 -0.85,14.46 -0.85,21.26 -1.13,63.21 13.89,103.46 15.59,107.72 -9.63,18.42 -33.15,38.26 -130.38,46.2 m 0.27,1.98 c 98.93,-8.22 122.18,-28.91 132.1,-47.62 l 0,-0.85 c -0.28,-0.57 -16.73,-41.38 -15.87,-107.43 0.29,-7.65 0.57,-15.88 1.14,-24.38 0,-0.57 -0.3,-0.85 -0.57,-0.85 -0.28,-0.28 -0.86,0 -1.13,0.28 -0.3,0.57 -34.03,51.03 -70.01,39.41 -36.3,-11.91 -72.59,-50.18 -73.15,-50.46 -0.28,-0.28 -0.55,-0.57 -0.85,-0.28 -0.29,0 -0.56,0.28 -0.56,0.56 -0.28,0.29 -11.62,38.84 -42.8,51.88 -18.43,7.65 -39.98,5.1 -64.36,-8.22 -0.27,0 -0.57,0 -0.85,0.28 -0.27,0 -0.27,0.28 -0.27,0.57 -0.3,0.85 -2.27,90.14 37.98,130.11 39.96,39.68 97.5,17.57 99.2,17" /><path
         id="path216"
         style="fill:#000000;fill-opacity:1;fill-rule:evenodd;stroke:none"
         d="m 1141.11,1167.25 c 0.85,14.17 3.12,25.8 3.12,25.8 -0.29,0.28 -5.95,-15.88 -6.24,-25.23 -0.85,-14.74 3.69,-27.5 3.39,-27.22 0.3,0 -1.12,9.64 -0.27,26.65" /><path
         id="path218"
         style="fill:#000000;fill-opacity:1;fill-rule:evenodd;stroke:none"
         d="m 1386.59,1026.09 c 0,4.54 3.12,36.28 -5.95,72.57 -2.84,21.26 -20.7,54.14 -27.5,63.78 6.24,-7.37 23.24,-30.33 30.62,-62.93 9.35,-42.81 3.11,-69.17 2.83,-73.42" /><path
         id="path220"
         style="fill:#000000;fill-opacity:1;fill-rule:evenodd;stroke:none"
         d="m 1427.98,1017.58 c 6.24,12.76 10.2,37.7 10.49,43.09 0.28,-4.54 0.56,-22.96 -7.66,-44.22 -10.2,-24.946 -26.07,-34.298 -29.19,-36.286 3.12,2.551 18.42,15.879 26.36,37.416" /><path
         id="path222"
         style="fill:#000000;fill-opacity:1;fill-rule:evenodd;stroke:none"
         d="m 1281.43,945.867 c 17.57,8.223 39.12,34.012 45.64,44.223 -4.82,-9.07 -18.14,-31.18 -44.22,-46.5 -34.59,-19.563 -59.81,-16.152 -65.48,-16.152 6.23,0.57 35.15,0.863 64.06,18.429" /><path
         id="path224"
         style="fill:#000000;fill-opacity:1;fill-rule:evenodd;stroke:none"
         d="m 1202.34,926.875 c 19.84,-6.52 49.61,-12.762 74.82,-12.191 25.24,-0.571 44.8,4.82 44.8,5.101 1.13,-0.851 -54.99,-17.57 -120.48,3.969 -65.48,22.402 -97.51,52.441 -105.17,58.402 8.8,-5.961 49.33,-37.422 106.03,-55.281" /><path
         id="path226"
         style="fill:#000000;fill-opacity:1;fill-rule:evenodd;stroke:none"
         d="m 1155.85,999.727 c 24.09,-12.192 42.52,-24.379 42.52,-24.379 0.28,0.289 -25.51,19.84 -41.09,27.212 -24.39,13.04 -47.63,13.89 -47.35,13.61 0,0 17.86,-1.7 45.92,-16.443" /><path
         id="path228"
         style="fill:#000000;fill-opacity:1;fill-rule:evenodd;stroke:none"
         d="m 1147.34,1023.54 c 0,23.53 -3.96,42.23 -3.96,42.23 0.3,0 1.41,-27.77 1.14,-42.23 0.55,-23.24 -2.28,-42.243 -2.28,-42.243 -0.29,0 5.39,14.738 5.1,42.243" /><path
         id="path230"
         style="fill:#000000;fill-opacity:1;fill-rule:evenodd;stroke:none"
         d="m 1168.04,1106.88 c -7.36,9.92 -18.13,9.92 -17.86,9.92 0.29,0.56 12.47,-5.67 15.59,-11.62 6.24,-8.5 6.52,-18.43 7.09,-18.14 -0.85,-0.29 3.12,7.92 -4.82,19.84" /><path
         id="path232"
         style="fill:#000000;fill-opacity:1;fill-rule:evenodd;stroke:none"
         d="m 1172.3,860.547 c 18.7,-14.168 57.25,-27.219 69.72,-29.77 -10.48,1.141 -40.82,7.078 -71.43,26.942 -39.96,26.636 -56.13,51.297 -59.25,54.699 3.68,-3.402 26.37,-29.762 60.96,-51.871" /><path
         id="path234"
         style="fill:#000000;fill-opacity:1;fill-rule:evenodd;stroke:none"
         d="m 1025.46,1001.43 c 37.13,-20.985 56.13,-52.723 56.41,-51.875 0.85,0 -29.2,43.371 -54.99,54.425 -20.41,7.65 -40.54,11.62 -54.712,7.37 -13.891,-5.39 -15.02,-17.014 -15.59,-15.873 0.57,-0.852 1.981,7.653 13.602,13.593 12.187,4.55 32.59,0.57 55.28,-7.64" /><path
         id="path236"
         style="fill:#000000;fill-opacity:1;fill-rule:evenodd;stroke:none"
         d="m 1276.04,744.895 c -9.06,0.847 -46.49,5.097 -89.56,18.429 -50.19,14.449 -75.69,35.43 -81.93,40.809 7.36,-5.379 39.4,-26.078 83.04,-37.711 26.95,-9.34 77.68,-19.828 88.45,-21.527" /><path
         id="path238"
         style="fill:#000000;fill-opacity:1;fill-rule:evenodd;stroke:none"
         d="m 944.949,1484.73 c 0,0 -13.609,19.84 -18.988,77.95 -5.102,58.11 -16.441,105.45 24.66,165.55 40.82,59.81 118.769,125.85 226.199,124.15 107.45,-1.7 152.22,-36.56 163,-44.5 0,0 -7.94,24.94 1.14,23.24 9.06,-1.7 21.26,-33.45 21.26,-33.45 0,0 31.45,-1.13 37.12,-11.9 5.96,-10.49 -18.99,-6.8 -18.99,-6.8 0,0 38.56,-21.83 48.19,-102.05 9.64,-80.5 -19.26,-128.13 -30.33,-155.06 -11.06,-26.93 -348.38,-221.95 -453.261,-37.13" /><path
         id="path240"
         style="fill:#f6d4b3;fill-opacity:1;fill-rule:evenodd;stroke:none"
         d="m 1003.07,1362.84 c -48.195,23.81 -50.183,48.19 -44.793,74.83 0,0 -32.601,6.52 -38.832,37.14 -6.238,30.9 10.77,43.37 22.379,39.97 11.633,-3.12 9.653,-12.76 18.723,-12.19 8.777,0.56 5.391,16.44 2.539,30.61 -2.82,14.18 -12.18,109.14 90.144,197.58 0,0 -8.5,-31.75 -1.98,-34.3 6.53,-2.55 31.19,22.11 31.19,22.11 0,0 -10.78,-22.11 -2.27,-23.53 8.21,-1.42 52.44,13.04 78.22,30.9 0,0 -18.12,-24.1 -4.8,-24.66 13.32,-0.29 45.62,14.17 45.62,14.17 0,0 34.59,-22.39 91.27,7.37 0,0 -16.98,-48.76 2,-75.12 0,0 7.93,14.74 11.34,29.77 0,0 0.29,-26.37 25.23,-66.62 24.95,-39.97 38.56,-65.2 33.74,-86.17 0,0 21.81,15.31 36.28,9.35 14.46,-5.67 14.46,-34.86 5.09,-59.52 -9.63,-24.67 -38.27,-19.28 -38.27,-19.28 0,0 7.09,-42.52 -13.32,-77.67 -20.41,-34.87 -70.86,-53.01 -99.48,-60.94 -4.82,-9.08 -17.86,-17.86 -20.14,-27.78 -5.66,-25.8 -36.56,-40.82 -61.79,-60.1 -28.91,-19.56 -3.7,31.18 -19.86,1.7 0,9.64 -3.66,5.95 -10.18,9.36 -20.98,15.59 -54.99,41.95 -63.78,51.59 10.48,16.44 -66.33,62.64 -74.27,71.43" /><path
         id="path242"
         style="fill:#e8c09b;fill-opacity:1;fill-rule:evenodd;stroke:none"
         d="m 1044.17,1681.45 c 9.91,1.98 16.72,9.93 28.06,16.44 -1.14,-4.53 -10.49,-21.25 3.96,-20.41 20.14,4.25 42.53,17.29 62.66,21.54 -1.14,-4.52 -1.14,-4.52 -2.28,-9.07 46.78,16.16 92.99,-6.22 140.03,9.94 -2.82,-28.35 -15.58,-58.69 13.05,-76.26 2.55,9.07 4.81,18.14 11.62,25.8 2.55,-26.09 21.26,-44.23 41.39,-60.95 -3.98,6.81 -8.51,14.45 -13.62,22.4 -24.94,40.25 -25.22,66.6 -25.22,66.6 -3.4,-15.02 -11.34,-29.75 -11.34,-29.75 -18.99,26.36 -1.98,75.11 -1.98,75.11 -56.69,-29.77 -91.27,-7.36 -91.27,-7.36 0,0 -32.33,-14.46 -45.65,-14.18 -13.33,0.56 4.83,24.65 4.83,24.65 -25.8,-17.84 -70.02,-32.31 -78.24,-30.88 -8.5,1.41 2.26,23.52 2.26,23.52 0,0 -24.66,-24.66 -31.17,-22.11 -6.52,2.54 1.97,34.29 1.97,34.29 -78.8,-68.02 -91.261,-140.02 -91.558,-176.02 13.328,53.86 47.628,95.8 72.848,144 3.13,-5.95 6.24,-11.62 9.65,-17.3" /><path
         id="path244"
         style="fill:#000000;fill-opacity:1;fill-rule:evenodd;stroke:none"
         d="m 941.555,1646.59 c 0,0 -54.141,-12.47 -80.223,36 0,0 17.859,-4.82 37.981,12.47 0,0 -45.918,12.19 -47.899,59.53 0,0 34.301,-4.54 51.309,15.31 0,0 -29.77,17.86 -33.168,51.02 0,0 40.25,-21.54 107.148,22.96 67.177,44.51 162.707,77.39 201.537,49.04 0,0 -10.77,30.05 -36,42.24 0,0 36,6.52 54.43,-40.82 0,0 40.52,45.35 81.64,19.84 0,0 -36,0.57 -55.56,-26.65 0,0 31.18,-3.96 53,-31.46 21.83,-27.5 101.2,-63.78 162.43,-14.46 0,0 14.46,-45.07 -2.55,-71.71 0,0 13.89,1.13 24.94,10.2 0,0 8.22,-32.31 -10.2,-59.81 0,0 12.19,-1.98 22.96,16.73 0,0 9.92,-19.56 -13.89,-56.41 -17.01,-26.08 -15.31,-57.26 -31.18,-89.01 -11.07,0.28 -26.36,-2.27 -46.5,-5.39 -56.68,-8.79 -30.89,51.59 -49.31,103.47 -9.64,26.93 -62.36,41.67 -78.52,64.34 -18.14,25.51 -120.19,40.82 -169.8,22.68 -63.78,-23.53 -64.91,-91.84 -94.107,-93.83 -25.23,-1.41 -36.558,-20.41 -46.492,-41.67 -0.847,1.71 -1.41,3.69 -1.976,5.39" /><path
         id="path246"
         style="fill:#5b5b5b;fill-opacity:1;fill-rule:evenodd;stroke:none"
         d="m 879.188,1793.71 c 9.921,-15.59 23.531,-23.81 23.531,-23.81 -0.289,-0.57 -0.852,-0.85 -1.141,-1.42 26.652,-18.99 60.379,-36.85 80.512,-7.94 -31.75,8.51 -73.141,13.61 -102.902,33.17" /><path
         id="path248"
         style="fill:#5b5b5b;fill-opacity:1;fill-rule:evenodd;stroke:none"
         d="m 1378.37,1751.19 c 8.22,29.2 26.93,54.14 45.07,80.5 -8.21,-4.81 -16.72,-8.22 -25.23,-10.48 -11.9,-19.85 -27.49,-36.57 -40.52,-51.59 -5.97,-14.46 -16.74,36.56 -33.18,31.18 -25.79,-5.96 -17.01,-37.14 -24.38,-57.55 -14.45,48.76 -48.75,89.86 -80.5,127.28 -49.03,-73.42 -108.28,-48.19 -176.32,-7.37 -21.82,12.19 -34.01,-16.73 -55.271,-30.33 -5.391,-3.4 -11.621,0.85 -17.578,7.08 -12.473,-7.65 -23.813,-13.03 -34.293,-16.72 25.512,-11.62 50.449,-23.81 70.582,-46.77 5.11,24.38 -9.359,57.26 10.49,64.63 50.46,21.83 81.92,-47.62 130.67,-63.78 40.54,-10.77 61.23,28.63 82.77,58.39 32.9,-47.34 49.61,-100.06 75.41,-151.93 18.99,17.57 13.6,51.02 24.66,73.7 22.96,-22.11 49.05,-57.83 83.05,-41.39 -24.37,0 -41.38,20.69 -35.43,35.15" /><path
         id="path250"
         style="fill:#5b5b5b;fill-opacity:1;fill-rule:evenodd;stroke:none"
         d="m 1396.8,1736.73 c 22.11,4.25 37.98,18.99 51.02,36.28 -6.8,-2.55 -12.19,-3.11 -12.19,-3.11 6.52,10.77 8.51,24.09 8.23,36.56 -12.48,-26.64 -20.13,-56.69 -47.06,-69.73" /><path
         id="path252"
         style="fill:#f6d4b3;fill-opacity:1;fill-rule:evenodd;stroke:none"
         d="m 1248.55,1310.68 c -7.94,-18.14 -53.3,-103.75 -104.6,-119.62 0,0 -62.36,38.83 -67.18,98.64 -0.29,0.85 0.57,2 0.57,2.55 0,0 5.66,-1.41 5.09,-1.12 49.89,-23.54 108,-25.52 166.12,19.55" /><path
         id="path254"
         style="fill:#000000;fill-opacity:1;fill-rule:evenodd;stroke:none"
         d="m 1173.71,1303.6 c 13.04,2.27 21.54,10.2 21.26,10.2 0.85,-0.56 -11.91,-11.62 -20.99,-12.18 -13.88,-2.56 -24.65,2.55 -24.36,2.26 0,0.57 8.78,-2.83 24.09,-0.28" /><path
         id="path256"
         style="fill:#000000;fill-opacity:1;fill-rule:evenodd;stroke:none"
         d="m 1229.55,1298.5 c 16.45,8.5 23.54,18.14 23.24,18.14 1.42,-0.28 -9.92,-14.75 -22.11,-19.57 -17,-8.5 -31.74,-14.44 -32.88,-14.44 1.14,0.56 12.19,6.8 31.75,15.87" /><path
         id="path258"
         style="fill:#000000;fill-opacity:1;fill-rule:evenodd;stroke:none"
         d="m 1074.21,1310.68 c -16.44,8.5 -23.23,18.43 -23.23,18.14 -1.43,0 9.91,-14.73 22.11,-19.55 17.28,-8.5 31.74,-14.46 32.88,-14.46 -1.14,0.57 -12.2,6.8 -31.76,15.87" /><path
         id="path260"
         style="fill:#000000;fill-opacity:1;fill-rule:evenodd;stroke:none"
         d="m 1286.52,1646.88 c 0,0 -12.75,19.55 -34.01,17.57 -21.26,-1.99 -19.27,-9.63 -26.36,-3.97 -7.37,5.38 40.24,28.91 60.37,-13.6" /><path
         id="path262"
         style="fill:#000000;fill-opacity:1;fill-rule:evenodd;stroke:none"
         d="m 1028.86,1650.84 c 0,0 11.91,15.87 27.78,11.91 15.59,-4.25 13.32,-10.77 19.56,-6.8 5.95,3.96 -27.5,30.62 -47.34,-5.11" /><path
         id="path264"
         style="fill:#000000;fill-opacity:1;fill-rule:evenodd;stroke:none"
         d="m 1171.73,1488.7 c 0,0 -7.94,16.16 -26.93,17.29 -18.71,1.14 -23.81,-17.86 -23.81,-17.86 0,0 1.98,24.66 24.37,22.96 22.68,-1.7 26.37,-22.39 26.37,-22.39" /><path
         id="path266"
         style="fill:#843e2d;fill-opacity:1;fill-rule:evenodd;stroke:none"
         d="m 1221.05,1443.63 c 0,0 -95.53,-11.91 -159.01,9.35 0,0 33.73,-72.85 45.05,-109.7 11.64,-36.85 63.23,-24.94 84.48,5.11 20.98,29.76 29.48,95.24 29.48,95.24" /><path
         id="path268"
         style="fill:#ba3b31;fill-opacity:1;fill-rule:evenodd;stroke:none"
         d="m 1160.39,1401.39 c 26.36,16.45 41.94,4.82 50.17,-7.93 -4.54,-16.44 -10.78,-33.45 -19,-45.07 -21.26,-30.05 -72.84,-41.95 -84.46,-5.1 -1.7,5.67 -3.98,12.47 -6.52,19.28 21.54,64.91 59.81,38.82 59.81,38.82" /><path
         id="path270"
         style="fill:#000000;fill-opacity:1;fill-rule:evenodd;stroke:none"
         d="m 1139.41,1323.44 c -23.82,-2.55 -32.61,22.11 -37.42,39.69 -6.22,18.14 -13.61,34.01 -19.27,47.33 -11.61,26.65 -19.56,43.09 -19.56,43.09 0,0 10.49,-24.38 22.97,-55.28 6.5,-15.59 12.46,-32.59 17.57,-49.6 4.25,-18.14 21.25,-30.9 35.71,-28.63 22.38,0 43.09,11.62 53.56,28.06 11.07,16.16 15.32,34.02 18.43,47.91 6.53,28.63 9.65,46.49 9.65,46.49 0,0 -3.12,-14.18 -9.92,-40.54 -3.68,-13.04 -6.82,-30.05 -17,-47.06 -9.65,-16.72 -29.5,-31.46 -54.72,-31.46" /><path
         id="path272"
         style="fill:#000000;fill-opacity:1;fill-rule:evenodd;stroke:none"
         d="m 1176.82,1407.06 c 20.98,4.82 33.18,-13.04 32.32,-12.47 0,0 -2.54,5.95 -9.35,10.77 -6.51,5.1 -17.01,6.52 -23.81,5.1 -23.25,-5.1 -26.93,-27.49 -26.93,-26.08 0.57,-1.41 4.25,16.44 27.77,22.68" /><path
         id="path274"
         style="fill:#000000;fill-opacity:1;fill-rule:evenodd;stroke:none"
         d="m 1122.97,1396.86 c 17.01,16.44 37.98,4.25 36.85,5.39 0,-0.29 -5.95,3.68 -14.46,5.1 -8.78,1.7 -19.56,-2.84 -24.37,-7.94 -17.86,-16.16 -20.41,-36.57 -20.41,-36 0.56,-0.57 3.96,15.31 22.39,33.45" /><path
         id="path276"
         style="fill:#fdfdfd;fill-opacity:1;fill-rule:evenodd;stroke:none"
         d="m 1212.55,1620.51 c 0,0 25.22,29.2 59.24,7.65 33.74,-21.26 40.54,-75.96 18.43,-128.69 0,0 -51.31,11.06 -78.8,7.94 0,0 -10.78,81.64 1.13,113.1" /><path
         id="path278"
         style="fill:#000000;fill-opacity:1;fill-rule:evenodd;stroke:none"
         d="m 1222.18,1530.09 c 0,-16.44 9.92,-29.48 22.12,-29.48 12.19,0 22.11,13.04 22.11,29.48 0,16.16 -9.92,29.2 -22.11,29.2 -12.2,0 -22.12,-13.04 -22.12,-29.2" /><path
         id="path280"
         style="fill:#fdfdfd;fill-opacity:1;fill-rule:evenodd;stroke:none"
         d="m 1240.89,1538.3 c 0,-6.51 3.68,-11.61 8.51,-11.61 4.81,0 8.78,5.1 8.78,11.61 0,6.25 -3.97,11.34 -8.78,11.34 -4.83,0 -8.51,-5.09 -8.51,-11.34" /><path
         id="path282"
         style="fill:#000000;fill-opacity:1;fill-rule:evenodd;stroke:none"
         d="m 1296.45,1600.95 c -11.34,27.5 -40.25,40.54 -58.4,34.87 -18.42,-4.82 -25.51,-15.88 -25.51,-15.31 -0.29,-0.57 12.19,14.46 33.44,14.74 21.56,0.28 41.97,-19.28 47.91,-35.72 20.13,-54.14 -5.66,-101.19 -3.69,-100.06 0,0 4.55,8.22 9.07,25.23 4.27,16.72 10.23,44.5 -2.82,76.25" /><path
         id="path284"
         style="fill:#000000;fill-opacity:1;fill-rule:evenodd;stroke:none"
         d="m 1300.14,1498.91 c 14.17,3.97 26.07,-1.98 26.07,-1.7 0.58,0.57 -16.72,8.5 -26.92,4.82 -15.6,-4.55 -20.69,-18.43 -20.99,-17.58 0.3,-0.85 5.97,9.35 21.84,14.46" /><path
         id="path286"
         style="fill:#fdfdfd;fill-opacity:1;fill-rule:evenodd;stroke:none"
         d="m 1096.32,1621.36 c 0,0 -25.22,29.2 -58.96,7.94 -34.02,-21.55 -40.532,-76.25 -18.71,-128.98 0,0 51.31,11.06 78.8,7.94 0,0 11.07,81.64 -1.13,113.1" /><path
         id="path288"
         style="fill:#000000;fill-opacity:1;fill-rule:evenodd;stroke:none"
         d="m 1086.69,1530.94 c 0,-16.44 -9.92,-29.48 -22.12,-29.48 -12.19,0 -22.11,13.04 -22.11,29.48 0,16.16 9.92,29.48 22.11,29.48 12.2,0 22.12,-13.32 22.12,-29.48" /><path
         id="path290"
         style="fill:#fdfdfd;fill-opacity:1;fill-rule:evenodd;stroke:none"
         d="m 1067.98,1539.16 c 0,-6.24 -3.69,-11.62 -8.51,-11.62 -4.81,0 -8.5,5.38 -8.5,11.62 0,6.24 3.69,11.62 8.5,11.62 4.82,0 8.51,-5.38 8.51,-11.62" /><path
         id="path292"
         style="fill:#000000;fill-opacity:1;fill-rule:evenodd;stroke:none"
         d="m 1012.42,1601.8 c 11.34,27.5 40.24,40.54 58.67,34.87 18.15,-4.82 25.24,-15.88 25.24,-15.31 0.28,-0.57 -11.92,14.46 -33.45,14.74 -21.55,0.28 -41.96,-19.28 -47.64,-35.43 -20.396,-54.43 5.39,-101.48 3.42,-100.35 0.27,0 -4.27,8.22 -9.07,25.23 -4.26,16.72 -9.93,44.5 2.83,76.25" /><path
         id="path294"
         style="fill:#000000;fill-opacity:1;fill-rule:evenodd;stroke:none"
         d="m 1008.73,1499.76 c -13.89,3.97 -26.082,-1.98 -25.8,-1.71 -0.852,0.58 16.73,8.8 26.65,4.83 15.6,-4.54 20.99,-18.15 20.99,-17.58 -0.3,-0.85 -5.68,9.36 -21.84,14.46" /><path
         id="path296"
         style="fill:#f6d4b3;fill-opacity:1;fill-rule:evenodd;stroke:none"
         d="m 1055.51,924.895 c -87.881,-2.551 -162.432,-98.09 -146.553,-196.161 14.461,-87.871 67.461,-158.179 94.383,-196.16 3.13,-4.543 -2.26,-22.109 9.07,-32.043 29.49,-26.066 35.73,-61.5 53.01,-68.867 17.59,-7.383 19,4.25 19,4.25 0,0 14.73,-15.871 25.23,-15.312 10.76,0.57 13.04,11.351 13.04,11.351 0,0 8.22,-12.199 18.43,-3.121 9.92,9.07 6.23,19.563 6.23,19.563 0,0 5.09,-3.704 10.21,-2.563 8.5,1.711 20.41,7.09 9.64,20.41 -14.46,17.582 -39.7,26.653 -53.02,54.43 -13.6,27.769 -21.26,66.601 0,119.891 20.98,53.3 67.19,126.441 64.35,192.769 -2.55,66.332 -83.63,92.41 -123.02,91.563" /><path
         id="path298"
         style="fill:#000000;fill-opacity:1;fill-rule:evenodd;stroke:none"
         d="m 1104.82,540.508 c 3.13,-9.91 7.09,-20.129 12.76,-28.91 5.69,-8.5 13.05,-15.879 20.97,-22.399 6.83,-5.66 14.47,-11.043 20.99,-17 4.25,-3.972 13.89,-12.191 9.34,-18.703 -3.4,-5.68 -12.75,-7.937 -18.42,-5.117 -2.26,0.848 -4.24,2.559 -6.24,3.98 2.85,-7.382 3.41,-13.89 -2.27,-20.41 -3.66,-4.543 -9.06,-6.801 -14.16,-2.84 -2.56,1.7 -3.98,3.981 -5.68,6.528 -1.68,-7.379 -6.52,-15.321 -15.31,-13.321 -9.34,1.704 -17.28,10.192 -23.51,17 -0.3,-2.558 -0.3,-5.109 -2.56,-7.078 -3.68,-3.129 -9.35,-1.429 -13.33,0.27 -8.5,3.129 -13.6,11.621 -18.13,19.289 -10.21,17.57 -19.84,35.152 -34.88,48.75 -3.68,3.68 -6.5,7.359 -7.08,12.461 -0.85,4.539 0,16.461 -2.84,20.41 -2.82,5.121 -4.517,7.672 -7.927,12.762 -9.641,13.886 -20.41,25.508 -29.48,40.258 -22.11,36.281 -40.821,75.402 -51.309,117.07 -5.949,22.961 -9.07,46.48 -6.52,70.289 2.27,21.84 8.789,43.101 18.989,62.359 12.761,24.961 31.472,46.782 54.429,62.653 11.063,7.66 23.238,13.609 35.998,17.859 6.23,2.281 12.75,3.98 19.28,4.828 3.39,0.551 6.52,1.121 9.93,1.402 1.69,0 7.35,-0.55 7.64,1.43 0.29,-1.98 5.68,-1.129 7.08,-1.129 4.82,-0.301 9.64,-0.851 14.47,-1.429 10.49,-1.704 20.97,-4.532 30.9,-8.211 20.96,-7.942 41.37,-20.411 54.7,-38.84 13.89,-19 16.15,-41.391 13.62,-64.063 -2.84,-24.937 -10.79,-49.047 -19.86,-72.289 -9.34,-22.961 -20.41,-45.359 -30.89,-68.027 -9.93,-20.973 -19,-42.231 -23.25,-65.192 -3.96,-21.539 -3.69,-43.652 2.55,-64.64 m 24.38,131.238 c 10.78,22.692 21.54,45.094 30.91,68.32 8.77,22.692 16.43,46.204 19,70.59 2.54,22.114 0.54,43.934 -11.93,62.934 -11.89,17.566 -30.04,30.328 -49.3,38.828 -19.3,8.781 -41.11,14.172 -62.67,13.891 -89.565,-2.563 -153.917,-94.391 -149.667,-178.871 1.141,-23.52 7.09,-47.059 14.742,-69.45 6.809,-20.679 15.598,-40.82 25.801,-60.09 15.867,-30.902 33.449,-53.851 53.289,-82.492 1.145,-1.41 3.125,-3.687 3.395,-5.386 0.29,-2.832 1.14,-11.043 1.43,-14.172 0,-5.66 1.98,-11.34 6.25,-15.301 9.61,-9.649 18.12,-19.277 25.2,-30.91 6.53,-11.039 11.91,-23.231 20.41,-32.879 5.98,-6.512 23.55,-15.301 28.93,-3.399 5.94,-5.953 13.32,-12.472 21.81,-13.89 7.09,-1.41 13.63,3.121 16.47,9.64 11.88,-12.472 27.47,2.547 26.05,16.45 10.49,-4.539 28.63,4.25 21.83,17.281 -6.24,11.629 -19.84,19.558 -30.04,27.789 -7.93,6.508 -15.3,13.598 -20.98,22.379 -5.67,8.801 -9.64,18.711 -12.75,28.93 -5.95,20.96 -6.24,43.07 -1.98,64.621 4.53,22.668 14.17,44.218 23.8,65.187" /><path
         id="path300"
         style="fill:#f6d4b3;fill-opacity:1;fill-rule:evenodd;stroke:none"
         d="m 1244.3,936.516 c -79.37,-14.172 -111.7,-83.34 -79.66,-185.391 31.75,-102.039 49.89,-154.199 42.24,-169.512 -7.37,-15.308 -32.03,-53.008 -53.87,-65.48 -21.82,-12.75 -8.78,-34.008 -1.41,-35.707 7.65,-1.422 17.02,1.129 17.02,1.129 0,0 -1.15,-15.02 10.47,-17.301 11.92,-2.539 21.26,3.41 21.26,3.41 0,0 -1.4,-15.019 10.49,-17.289 11.92,-2.551 18.71,6.23 18.71,6.23 0,0 3.98,-11.332 13.04,-5.382 9.36,5.941 28.63,20.691 39.41,35.14 10.77,14.75 23.24,52.442 31.18,62.653 7.65,9.929 12.18,21.828 7.37,31.179 -4.82,9.36 55.27,85.61 71.14,151.66 15.6,66.047 -25.51,226.489 -147.39,204.661" /><path
         id="path302"
         style="fill:#000000;fill-opacity:1;fill-rule:evenodd;stroke:none"
         d="m 1342.94,903.066 c 45.07,-47.898 56.69,-131.531 47.33,-170.941 -9.35,-39.391 -34.29,-81.91 -52.44,-112.809 -13.88,-23.82 -20.69,-35.429 -18.43,-39.691 3.98,-7.641 1.43,-18.707 -7.36,-29.758 -3.97,-4.82 -8.78,-15.871 -13.6,-27.492 -5.68,-13.039 -11.92,-27.5 -17.58,-35.148 -10.49,-14.172 -29.48,-28.922 -38.83,-34.872 -2.27,-1.417 -4.27,-1.699 -5.97,-1.14 -3.39,1.14 -5.09,5.953 -5.09,5.953 -0.29,0.578 -0.57,0.848 -1.14,0.848 -0.56,0 -1.13,0 -1.41,-0.559 -0.28,-0.289 -6.52,-8.23 -17.3,-5.949 -10.48,2.258 -9.64,15.578 -9.64,16.16 0.29,0.27 0,0.848 -0.56,1.117 -0.28,0.301 -0.85,0.301 -1.41,0 0,0 -8.8,-5.66 -20.13,-3.398 -10.49,2.281 -9.35,15.597 -9.35,16.168 0,0.281 -0.29,0.851 -0.58,1.133 -0.27,0.277 -0.85,0.277 -1.12,0.277 -0.29,0 -9.36,-2.547 -16.45,-1.129 -3.11,0.852 -8.23,6.238 -9.35,13.332 -0.85,5.656 0.27,13.316 11.05,19.559 21.83,12.738 46.21,49.32 54.71,66.328 6.81,13.89 -5.96,54.14 -31.18,134.351 l -11.34,36.012 c -17.29,56.109 -15.88,103.168 4.26,136.629 15.29,24.66 40.82,41.09 74.55,47.039 38.55,7.09 71.71,-3.961 98.36,-32.02 m -98.94,34.86 0,0 c -34.29,-6.238 -60.65,-22.961 -76.25,-48.461 -20.68,-34.027 -22.1,-81.938 -4.54,-138.899 l 11.35,-36.011 c 24.09,-76.809 37.41,-119.328 31.17,-132.379 -7.93,-16.149 -32.59,-52.711 -53.56,-64.899 -12.77,-7.371 -13.32,-17.312 -12.47,-22.402 1.4,-7.93 7.08,-14.738 11.62,-15.598 5.95,-1.422 12.74,-0.269 15.87,0.578 l 0,-1.14 c 0.29,-5.949 3.11,-14.18 11.62,-15.867 9.35,-1.993 16.73,0.84 20.13,2.539 l 0,-0.551 c 0.28,-5.969 3.12,-14.18 11.62,-15.879 9.64,-1.98 15.88,2.84 18.71,5.391 0.85,-1.993 2.84,-4.821 5.95,-5.672 2.54,-1.149 5.39,-0.571 8.22,1.41 9.64,5.961 28.91,21.25 39.69,35.711 5.67,7.668 11.9,21.84 17.56,35.43 5.12,11.339 9.94,22.41 13.33,26.941 9.63,11.898 12.47,24.098 7.93,32.598 -1.7,3.121 7.94,19.558 18.16,37.129 18.42,31.191 43.37,73.71 52.71,113.679 9.65,39.961 -1.97,124.711 -47.9,173.473 -26.92,28.34 -61.79,39.687 -100.92,32.879" /><path
         id="path304"
         style="fill:#e22228;fill-opacity:1;fill-rule:nonzero;stroke:none"
         d="m 252.168,1612.01 c 1.699,-0.57 3.398,-1.13 4.82,-1.98 7.942,7.93 17.008,14.74 27.489,20.41 13.043,6.8 26.082,11.05 39.972,12.47 12.188,1.13 24.379,0.28 36.571,-2.55 8.218,9.07 18.136,17 30.046,23.24 12.75,6.8 26.082,11.06 39.68,12.47 6.242,0.57 12.192,0.57 18.141,0.29 1.711,3.68 3.691,7.37 5.961,10.77 l 0,0.28 c 4.82,7.09 10.199,13.61 16.441,19.56 2.828,2.55 5.668,5.1 8.789,7.37 l -22.398,34.02 c -1.133,1.7 -2.274,3.68 -3.121,5.67 -8.5,19.55 0.57,42.23 20.129,51.02 l 52.16,22.96 0,-0.28 c 19.558,8.5 42.23,-0.29 50.742,-19.56 l 67.457,-151.66 c 5.391,2.84 8.223,4.26 8.793,4.54 3.398,1.7 6.238,2.83 8.789,3.68 11.051,4.26 23.238,3.12 33.449,-2.83 6.52,7.94 16.149,13.61 27.488,14.46 l 66.051,4.53 5.672,0 c 21.258,-1.7 37.129,-20.12 35.43,-41.38 l -7.942,-104.04 1.7,-2.55 c 4.261,-7.65 6.812,-15.87 7.941,-24.94 1.141,-8.79 0.57,-17.58 -1.699,-25.8 -2.27,-8.5 -6.242,-16.44 -11.903,-23.52 -5.668,-7.37 -12.187,-13.04 -19.847,-17.3 -7.371,-4.25 -15.59,-6.8 -24.66,-7.93 -7.653,-0.85 -15.02,-0.57 -22.391,1.13 -1.141,0.28 -2.27,0.28 -3.398,0.85 -8.512,2.27 -16.161,6.24 -23.25,11.62 -3.403,2.84 -6.524,5.67 -9.352,8.79 -3.969,-1.13 -7.66,-1.98 -11.621,-2.55 -7.66,-0.85 -15.027,-0.85 -22.109,0.85 -3.411,-8.5 -7.942,-15.87 -13.329,-22.39 -6.23,-7.94 -13.89,-14.46 -22.671,-19.85 -13.61,-8.22 -28.071,-12.75 -43.372,-13.32 l -3.687,0 c -6.52,-9.64 -14.742,-18.14 -25.231,-24.66 -0.851,-0.85 -1.699,-1.42 -2.55,-1.98 -11.051,-6.81 -22.68,-11.06 -34.871,-12.48 -2.829,-0.56 -5.661,-0.85 -8.5,-0.85 0.281,-5.95 -0.848,-12.19 -3.68,-17.86 -5.391,-11.05 -11.91,-20.41 -19.559,-28.63 -7.941,-7.93 -17.011,-14.74 -27.781,-20.69 -11.34,-5.95 -22.68,-9.92 -34.301,-11.62 -11.617,-1.98 -23.808,-1.7 -36.289,0.28 -1.98,0.29 -3.961,0.85 -5.66,1.14 l -26.367,-14.18 c -0.563,-0.28 -1.133,-0.56 -1.703,-0.85 -3.68,-1.98 -7.367,-3.11 -11.34,-3.4 -1.41,-1.7 -3.399,-3.12 -5.379,-4.53 l -28.629,-19.28 c -16.73,-11.05 -39.402,-7.65 -51.883,8.22 l -87.019,111.4 c -1.129,1.7 -2.547,3.4 -3.399,5.39 -2.84,4.82 -4.25,9.92 -4.539,15.31 -4.82,0.85 -9.351,1.98 -14.172,3.4 -15.871,5.1 -30.05,12.47 -42.238,22.67 -11.332,9.64 -20.973,21.26 -28.3398,34.87 -0.5703,0.85 -1.1406,1.98 -1.7031,2.84 -7.3672,14.74 -11.6289,30.04 -13.0391,45.92 -1.1406,15.87 0.8516,31.46 5.9493,47.33 5.3906,15.88 13.0429,29.77 23.5317,41.96 10.199,11.9 22.671,21.82 37.41,29.48 l 0.289,0 c 17.293,9.07 35.152,13.6 53.011,14.17 17,0.57 34.008,-2.83 51.02,-9.92" /><path
         id="path306"
         style="fill:#000000;fill-opacity:1;fill-rule:nonzero;stroke:none"
         d="m 235.906,1457.34 -18.226,-7.59 c 4.019,0.08 8,1.13 11.816,3.11 2.41,1.2 4.5,2.66 6.41,4.48 m 21.461,-21.26 2.539,-5.07 23.282,9.13 -20.09,36.22 20.359,8.39 -4.859,27.62 -74.418,-37.72 12.929,-17.16 24.258,10.1 17.75,-33.25 -1.75,1.74 z m -51.508,144.07 c -12.441,0 -24.89,-3.25 -37.011,-9.67 -19.93,-10.1 -33.418,-25.87 -40.16,-46.9 -6.989,-20.96 -5.45,-41.46 4.582,-60.97 9.898,-19.26 25.668,-32.48 46.886,-39.28 20.992,-6.45 41.782,-4.55 61.524,5.71 4.129,1.79 8.148,4.44 11.218,6.57 l 2.918,2.02 -14.609,14.58 c -2.488,-2.42 -5.219,-4.34 -8.367,-5.92 -8.293,-4.3 -17.344,-5.08 -26.551,-2.21 -9.391,2.92 -16.32,8.58 -20.601,16.85 -4.34,8.67 -4.981,17.55 -1.918,26.42 3.25,9.43 9.128,16.25 17.476,20.26 4.5,2.52 9.531,3.91 14.801,4.08 l 20.23,62.25 c -10.23,4.12 -20.449,6.21 -30.418,6.21 m -1.421,-167.97 c -8.711,0 -17.622,1.39 -26.489,4.12 -23.191,7.44 -40.41,21.87 -51.23,42.94 -10.973,21.34 -12.672,43.76 -5.039,66.63 7.347,22.93 22.09,40.16 43.777,51.16 24.672,13.06 50.801,13.91 76.859,2.35 l 3.043,-1.35 -24.011,-73.88 -4.231,0.19 c -4.39,0 -8.59,-1.1 -12.48,-3.27 -6.699,-3.23 -11.309,-8.62 -13.91,-16.12 -2.379,-6.93 -1.868,-13.89 1.519,-20.68 3.371,-6.49 8.684,-10.81 16.223,-13.15 1.699,-0.53 3.398,-0.9 5.058,-1.13 l -20.531,27.26 91.133,46.18 7.609,-43.24 -18.179,-7.49 20.148,-36.35 -37.379,-14.67 -2.75,5.51 c -2.672,-1.73 -5.699,-3.5 -8.738,-4.81 -12.91,-6.72 -26.594,-10.2 -40.402,-10.2" /><path
         id="path308"
         style="fill:#ffec00;fill-opacity:1;fill-rule:evenodd;stroke:none"
         d="m 281.363,1517.9 -82.769,-41.95 17.289,-22.96 23.808,9.92 4.539,-8.51 -3.117,3.12 c -2.84,-3.4 -5.953,-5.95 -9.922,-7.93 -7.66,-3.97 -15.589,-4.54 -23.808,-1.99 -8.223,2.55 -14.461,7.37 -18.43,15.02 -3.68,7.37 -4.531,15.31 -1.699,23.53 2.828,8.22 7.937,14.46 15.59,18.14 5.097,2.84 10.488,3.97 15.867,3.69 l 22.109,68.03 c -24.937,11.06 -49.597,10.49 -73.699,-2.27 -20.687,-10.49 -34.859,-26.93 -41.949,-49.04 -7.371,-22.11 -5.668,-43.37 4.82,-63.78 10.488,-20.41 26.93,-34.01 49.039,-41.1 22.11,-6.8 43.653,-4.82 64.352,5.95 3.961,1.7 7.93,4.26 11.621,6.81 l 3.117,-6.24 30.332,11.91 -20.133,36.28 19.282,7.94" /><path
         id="path310"
         style="fill:#000000;fill-opacity:1;fill-rule:nonzero;stroke:none"
         d="m 344.578,1542.29 c -3.527,0 -6.848,-0.88 -10.148,-2.68 -5.418,-2.95 -9.02,-7.36 -10.7,-13.11 -1.968,-5.93 -1.492,-11.41 1.372,-16.41 2.988,-5.5 7.398,-9.09 13.136,-10.75 5.621,-1.73 11.34,-1 16.762,1.95 5.441,2.73 9,7.03 10.699,12.82 1.992,5.98 1.52,11.41 -1.398,16.77 -2.992,5.23 -7.41,8.76 -13.102,10.41 -2.258,0.66 -4.488,1 -6.621,1 m -0.328,-51.24 c -2.738,0 -5.469,0.4 -8.121,1.22 -7.641,2.23 -13.539,7.02 -17.469,14.23 -3.851,6.75 -4.539,14.45 -1.961,22.2 2.199,7.55 7,13.44 14.199,17.37 6.961,3.79 14.512,4.59 22.364,2.29 7.476,-2.18 13.527,-6.97 17.468,-13.9 3.93,-7.19 4.598,-14.76 2,-22.55 -2.218,-7.59 -7.179,-13.59 -14.32,-17.14 -4.469,-2.45 -9.269,-3.72 -14.16,-3.72 m -7.969,110.4 c -10.441,0 -20.703,-2.68 -30.48,-7.99 -16.332,-8.69 -26.86,-21.44 -32.262,-38.94 -5.461,-17.5 -3.969,-33.63 4.539,-49.32 8.402,-16 21.031,-26.25 38.621,-31.38 6.301,-1.87 12.641,-2.82 18.852,-2.82 10.621,0 21.179,2.75 31.39,8.2 16.039,8.55 26.489,21.21 31.95,38.66 5.418,17.35 3.89,34.03 -4.539,49.59 -8.301,15.76 -20.922,25.93 -38.622,31.1 -6.589,1.93 -13.14,2.9 -19.449,2.9 m -0.73,-137.82 0,0 c -6.922,0 -13.973,1.05 -20.942,3.12 -19.32,5.64 -33.8,17.41 -43.031,34.98 -9.359,17.25 -11.078,35.77 -5.066,54.97 5.898,19.18 17.937,33.73 35.789,43.25 17.371,9.41 36.109,11.34 55.5,5.68 19.449,-5.68 33.929,-17.36 43.039,-34.7 9.398,-17.34 11.121,-35.93 5.082,-55.27 -5.981,-19.12 -17.934,-33.59 -35.512,-42.96 -11.289,-6.02 -23.012,-9.07 -34.859,-9.07" /><path
         id="path312"
         style="fill:#ffec00;fill-opacity:1;fill-rule:evenodd;stroke:none"
         d="m 356.762,1498.06 c -6.239,-3.4 -13.039,-4.25 -19.559,-2.27 -6.801,1.99 -11.898,6.24 -15.308,12.47 -3.403,5.96 -3.961,12.48 -1.704,19.28 1.993,6.8 6.243,11.91 12.481,15.31 6.23,3.4 12.75,3.97 19.551,1.98 6.808,-1.98 11.91,-6.23 15.308,-12.19 3.403,-6.23 3.973,-12.75 1.703,-19.56 -1.98,-6.8 -6.23,-11.9 -12.472,-15.02 m -52.719,98.65 c -17.012,-9.08 -28.352,-22.68 -34.02,-41.11 -5.671,-18.14 -4.25,-35.43 4.821,-52.15 8.789,-16.73 22.39,-27.78 40.82,-33.17 18.141,-5.39 36,-3.4 53.008,5.67 17,9.07 28.062,22.68 33.73,40.82 5.672,18.14 4.25,35.72 -4.82,52.44 -8.789,16.72 -22.391,27.5 -40.82,32.88 -18.43,5.39 -36,3.69 -52.719,-5.38" /><path
         id="path314"
         style="fill:#000000;fill-opacity:1;fill-rule:nonzero;stroke:none"
         d="m 451.16,1575.45 c -3.527,0 -6.84,-0.87 -10.148,-2.68 -5.692,-2.97 -9.27,-7.25 -10.981,-13.1 -1.738,-5.94 -1.179,-11.47 1.653,-16.41 3.07,-5.64 7.257,-9.14 12.847,-10.76 5.789,-1.7 11.282,-1.05 17.11,1.99 5.582,3.04 8.98,7.12 10.64,12.79 1.891,5.68 1.403,11.16 -1.461,16.88 -2.929,5.11 -7.347,8.64 -13.039,10.29 -2.258,0.67 -4.488,1 -6.621,1 m -0.476,-51.23 c -2.711,0 -5.473,0.4 -8.211,1.2 -7.571,2.2 -13.2,6.86 -17.231,14.24 -3.82,6.68 -4.601,14.13 -2.289,22.07 2.27,7.78 7.18,13.68 14.598,17.55 6.859,3.74 14.461,4.54 22.301,2.25 7.48,-2.18 13.519,-6.98 17.461,-13.9 3.828,-7.62 4.468,-15.15 2,-22.55 -2.161,-7.44 -6.833,-13.07 -14.2,-17.1 -4.82,-2.51 -9.652,-3.76 -14.429,-3.76 m -7.84,110.4 c -10.453,0 -20.813,-2.69 -30.774,-8 -16.297,-8.7 -26.84,-21.43 -32.226,-38.94 -5.364,-17.17 -3.871,-33.31 4.558,-49.36 8.661,-15.96 21.379,-26.23 38.879,-31.34 6.301,-1.87 12.641,-2.82 18.852,-2.82 10.621,0 21.18,2.76 31.39,8.2 15.86,8.61 26.618,21.63 31.95,38.67 5.32,17.04 3.789,33.74 -4.571,49.63 -8.57,15.81 -21.55,26.26 -38.55,31.04 -6.641,1.95 -13.192,2.92 -19.508,2.92 m -0.711,-137.83 0,0 c -6.922,0 -13.973,1.05 -20.942,3.12 -19.187,5.61 -33.757,17.37 -43.289,34.94 -9.281,17.67 -10.992,36.16 -5.089,55.01 5.89,19.18 17.941,33.73 35.789,43.26 17.679,9.42 36.402,11.34 55.781,5.67 18.949,-5.33 33.437,-16.99 43.019,-34.66 9.321,-17.73 11.032,-36.32 5.102,-55.3 -5.922,-18.94 -17.863,-33.39 -35.492,-42.96 -11.309,-6.03 -23.032,-9.08 -34.879,-9.08" /><path
         id="path316"
         style="fill:#ffec00;fill-opacity:1;fill-rule:evenodd;stroke:none"
         d="m 463.344,1531.22 c -6.52,-3.4 -13.039,-4.25 -19.84,-2.27 -6.809,1.99 -11.617,6.24 -15.027,12.47 -3.403,5.96 -3.961,12.48 -1.981,19.28 1.981,6.8 6.238,11.91 12.758,15.31 6.23,3.4 12.75,3.97 19.551,1.98 6.808,-1.98 11.91,-6.23 15.308,-12.19 3.121,-6.23 3.973,-12.75 1.703,-19.56 -1.98,-6.8 -6.23,-11.62 -12.472,-15.02 m -53.008,98.65 c -17.012,-9.08 -28.34,-22.68 -34.012,-41.11 -5.668,-18.14 -3.969,-35.43 4.821,-52.15 9.07,-16.73 22.671,-27.78 41.101,-33.17 18.141,-5.39 36,-3.4 53.008,5.67 16.723,9.07 28.062,22.68 33.73,40.82 5.672,18.14 3.969,35.72 -4.82,52.44 -9.07,16.72 -22.68,27.78 -40.82,32.88 -18.43,5.39 -36,3.69 -53.008,-5.38" /><path
         id="path318"
         style="fill:#000000;fill-opacity:1;fill-rule:nonzero;stroke:none"
         d="m 555.18,1644.51 c -2.938,0 -5.879,-0.83 -8.969,-2.56 -2.969,-1.73 -5.359,-3.95 -7.231,-6.76 -3.8,-6.17 -4.031,-12.4 -0.648,-18.94 1.699,-2.89 3.641,-4.99 6.43,-6.84 6.078,-3.73 12.078,-3.99 18.23,-0.45 3.059,1.43 5.438,3.61 7.559,6.79 3.82,6.22 3.969,12.15 0.41,18.56 -1.449,2.89 -3.551,5.3 -6.32,7.32 -3.078,1.88 -6.258,2.88 -9.461,2.88 m -0.867,-45.44 c -4.52,0 -9.071,1.39 -13.52,4.13 -3.852,2.56 -6.563,5.47 -8.91,9.5 -4.641,8.94 -4.301,18.03 0.887,26.47 2.589,3.87 5.761,6.84 9.793,9.19 8.828,4.91 17.628,4.64 26.179,-0.61 3.969,-2.88 6.84,-6.19 8.731,-10 4.789,-8.6 4.57,-17.38 -0.723,-25.97 -2.93,-4.4 -6.391,-7.51 -10.367,-9.35 -3.75,-2.18 -7.91,-3.36 -12.07,-3.36 m -13.864,92.59 c -9.679,0 -18.476,-2.17 -26.898,-6.65 -9.02,-4.78 -16.281,-11.5 -21.571,-19.96 -5.57,-8.76 -8.519,-18.43 -8.8,-28.76 -0.528,-10.21 1.613,-19.76 6.363,-28.46 4.477,-8.7 10.906,-15.55 19.699,-21.04 8.43,-5.27 17.457,-7.96 27.617,-8.23 l 1.684,-0.02 c 9.617,0 18.289,2.18 26.508,6.66 12.121,6.32 20.648,15.91 26.129,29.33 l 2.652,6.51 6.688,-10.24 16.043,10.01 -74.583,167.21 -45.089,-19.75 50.39,-76.61 -6.832,0 z m -1.906,-120.49 0,0 -1.883,0.02 c -11.508,0.31 -21.758,3.36 -31.328,9.35 -9.801,6.12 -17.312,14.14 -22.301,23.83 -5.371,9.85 -7.808,20.71 -7.211,32.21 0.301,11.59 3.641,22.52 9.93,32.4 5.973,9.56 14.172,17.15 24.352,22.54 7.55,4.01 15.359,6.39 23.718,7.19 l -47.89,72.81 59.8,26.18 80.18,-179.75 -27.609,-17.21 -3.16,4.82 c -6.149,-11.82 -15.078,-20.84 -26.629,-26.87 -9.262,-5.05 -19.082,-7.52 -29.969,-7.52" /><path
         id="path320"
         style="fill:#ffec00;fill-opacity:1;fill-rule:evenodd;stroke:none"
         d="m 573.613,1613.71 c -2.269,-3.4 -5.101,-6.24 -8.789,-7.94 -7.371,-4.25 -14.742,-3.97 -22.109,0.57 -3.402,2.27 -5.672,4.82 -7.652,8.22 -3.969,7.65 -3.692,15.31 0.851,22.68 2.27,3.4 5.098,5.95 8.5,7.93 7.66,4.26 15.027,3.97 22.399,-0.56 3.109,-2.27 5.671,-5.1 7.371,-8.51 4.25,-7.65 3.968,-15.02 -0.571,-22.39 m -82.199,156.19 49.027,-74.55 c -10.199,0 -19.546,-2.27 -28.628,-7.09 -9.629,-5.1 -17.29,-12.19 -22.961,-21.26 -5.95,-9.35 -9.071,-19.56 -9.348,-30.61 -0.57,-10.77 1.699,-20.98 6.801,-30.33 4.816,-9.36 11.91,-16.73 20.976,-22.4 9.071,-5.67 18.711,-8.5 29.481,-8.78 10.769,-0.29 20.691,1.98 30.051,7.08 13.039,6.81 22.109,17.29 27.781,31.18 l 4.82,-7.37 21.82,13.61 -77.382,173.48" /><path
         id="path322"
         style="fill:#000000;fill-opacity:1;fill-rule:nonzero;stroke:none"
         d="m 225.719,1381.52 82.23,-105.26 23.258,15.74 -34.289,61.67 8.34,-3.34 c 2.68,3.5 5.75,6.08 9.332,7.87 7.098,3.56 13.207,3.02 18.027,-1.44 2.852,-2.53 5.832,-7.38 9.922,-16.18 l 16.438,-34.44 21.761,11.89 c -3.84,21.2 -9.511,40.64 -16.879,57.82 -7.929,16.7 -18.351,27.7 -31.8,33.5 -13.891,6.29 -28.332,5.32 -43.59,-2.72 -4.242,-2.25 -8.211,-4.96 -11.789,-8.03 l -3.442,-2.95 -4.961,8.98 -42.558,-23.11 z m 80.648,-115.22 -91.82,117.54 56.652,30.76 4.188,-7.59 c 3.019,2.28 6.242,4.33 9.633,6.14 17.308,9.11 34.218,10.1 50.019,2.94 15.098,-6.51 26.738,-18.69 35.539,-37.21 7.949,-18.53 13.942,-39.41 17.879,-62.18 l 0.449,-2.6 -33.226,-18.15 -19.813,41.49 c -3.5,7.55 -6.179,12.07 -8.199,13.86 -2.711,2.49 -5.59,2.41 -9.789,0.31 -2.902,-1.45 -5.383,-3.69 -7.582,-6.85 l 30.633,-55.08" /><path
         id="path324"
         style="fill:#ffec00;fill-opacity:1;fill-rule:evenodd;stroke:none"
         d="m 286.746,1409.9 c -4.25,-2.27 -8.5,-5.1 -12.469,-8.5 l -4.539,8.22 -49.601,-26.93 87.019,-111.4 28.91,19.55 -30.886,55.56 1.41,-0.56 c 2.547,3.97 5.668,7.08 9.637,9.07 5.671,2.83 10.203,2.55 13.89,-0.85 2.551,-2.27 5.391,-7.09 9.071,-15.03 l 18.14,-37.98 27.5,15.02 c -3.969,22.96 -9.922,43.37 -17.582,61.23 -8.219,17.29 -19.269,29.2 -33.726,35.43 -15.024,6.81 -30.614,5.67 -46.774,-2.83" /><path
         id="path326"
         style="fill:#000000;fill-opacity:1;fill-rule:nonzero;stroke:none"
         d="m 437.938,1401.96 c -3.547,0 -7.098,-0.97 -10.84,-2.97 -5.848,-2.92 -9.489,-7.45 -11.219,-13.86 -1.27,-4.74 -1.191,-9.14 0.281,-13.34 l 27.86,29.2 c -2.032,0.65 -4.04,0.97 -6.082,0.97 m -23.43,-42.59 -2.5,4.11 c -4.41,7.25 -5.508,15.18 -3.238,23.57 2.269,8.44 7.3,14.66 14.941,18.49 9.406,5.01 19.117,5.03 28.379,-0.07 l 4.18,-2.31 -41.762,-43.79 z m 13.781,95.3 c -10.809,0 -21.422,-2.71 -31.531,-8.06 -4.379,-2.46 -8.688,-5.46 -12.367,-8.61 -12.321,-10.69 -19.621,-23.42 -22.293,-38.93 -2.969,-15.37 -0.809,-29.9 6.41,-43.26 2.41,-4.3 5.172,-8.43 8.16,-12.23 10.02,-11.61 22.941,-18.92 38.281,-21.62 15.43,-2.43 30.211,-0.04 43.512,7.27 10.977,5.71 19.859,14.11 26.5,25.02 l -18.981,0.59 c -2.621,-4.07 -6.191,-7.25 -10.621,-9.47 -10.55,-5.58 -21.261,-5.07 -31.211,1.66 l -3.75,2.54 68.469,66.46 c -3.328,6.35 -6.758,11.7 -10.226,15.9 -10.071,11.67 -22.993,18.99 -38.321,21.68 -4.05,0.7 -8.09,1.06 -12.031,1.06 m -1.609,-141.02 c -4.211,0 -8.563,0.36 -12.95,1.05 -17.113,3 -31.472,11.14 -42.742,24.19 -3.34,4.23 -6.308,8.68 -8.929,13.36 -8.079,14.95 -10.5,31.13 -7.211,48.14 2.91,16.94 11.242,31.5 24.73,43.19 4.063,3.48 8.77,6.76 13.652,9.5 15.348,8.12 31.598,10.74 48.36,7.78 17.051,-2.99 31.41,-11.12 42.687,-24.18 4.293,-5.21 8.453,-11.83 12.411,-19.75 l 1.21,-2.42 -65.609,-63.66 c 6.352,-2.95 12.781,-2.59 19.699,1.08 3.821,1.91 6.711,4.72 8.672,8.39 l 1.078,2.03 35.313,-1.11 -2.641,-5.17 c -7.57,-14.85 -18.5,-26.07 -32.48,-33.34 -10.93,-6.01 -22.821,-9.08 -35.25,-9.08" /><path
         id="path328"
         style="fill:#ffec00;fill-opacity:1;fill-rule:evenodd;stroke:none"
         d="m 415.156,1365.39 c -3.968,6.52 -4.82,13.32 -2.832,20.7 1.981,7.37 6.231,12.76 13.031,16.16 8.512,4.54 16.731,4.54 24.95,0 l -35.149,-36.86 z m 66.328,68.89 c -10.769,12.47 -24.379,20.13 -40.527,22.95 -16.16,2.84 -31.473,0.3 -45.93,-7.36 -4.531,-2.55 -9.07,-5.67 -13.043,-9.07 -12.75,-11.05 -20.687,-24.66 -23.519,-41.1 -3.117,-16.16 -0.848,-31.47 6.801,-45.65 2.55,-4.52 5.39,-8.78 8.5,-12.75 10.781,-12.48 24.379,-20.12 40.539,-22.96 16.16,-2.55 31.461,-0.29 45.922,7.66 13.609,7.09 23.808,17.86 30.898,31.75 l -27.211,0.85 c -2.269,-4.26 -5.668,-7.66 -10.207,-9.92 -9.641,-5.11 -18.711,-4.54 -27.492,1.41 l 67.18,65.2 c -3.969,7.94 -7.938,14.17 -11.911,18.99" /><path
         id="path330"
         style="fill:#000000;fill-opacity:1;fill-rule:nonzero;stroke:none"
         d="m 457.086,1486.18 c 4.609,-21.54 12.16,-40.91 22.437,-57.62 7.774,-12.86 18.774,-21.36 32.731,-25.31 13.84,-3.98 26.699,-2.32 38.121,4.95 13.031,7.81 20.539,19.86 22.41,35.87 l 0.61,5.14 4.66,-2.26 c 16.929,-8.19 32.75,-7.69 47.769,1.52 9.129,5.48 15.762,13.63 19.742,24.24 14.239,37.13 4.2,90.97 0.028,107.29 l -38.11,-20 20.243,-39.1 -0.012,-0.01 7.961,-15.39 c 1,-10.39 -2.641,-18.15 -10.84,-23.07 -5.52,-3.46 -11.82,-4.3 -18.031,-2.34 -6.461,2.04 -11.602,5.88 -15.282,11.39 -0.839,0.74 -1.738,2.35 -2.699,4.05 l -0.551,0.99 c -3.839,7.08 -7.66,17.35 -11.398,30.59 -1.922,7.09 -3.25,12.25 -3.988,15.92 l -40.684,-16.61 c 4.5,-20.91 12.051,-40.29 22.461,-57.65 1.102,-1.92 2.711,-4.04 4.57,-6.43 l 0.879,-1.14 -0.117,-1.44 c -0.652,-7.52 -4.262,-13.66 -10.41,-17.77 -6.039,-3.57 -11.801,-4.16 -18.18,-2.15 -5.601,1.55 -10.883,5.34 -15.14,10.91 l -0.731,1.16 c -0.851,1.37 -1.801,2.95 -2.57,4.73 -3.711,6.31 -7.539,16.23 -11.488,29.91 -1.942,7.36 -3.293,12.63 -4.09,16.29 l -40.301,-16.66 z m 69.488,-92.43 c -5.308,0 -10.801,0.81 -16.347,2.41 -15.793,4.47 -28.25,14.08 -36.993,28.56 -11.199,18.19 -19.269,39.39 -23.988,62.98 l -0.601,2.97 54.718,22.61 0.5,-4.93 c 0.282,-2.83 2.481,-11.35 4.711,-19.84 3.762,-13 7.36,-22.37 10.961,-28.56 0.82,-1.83 1.602,-3.08 2.27,-4.18 l 0.539,-0.88 c 3.062,-3.95 6.992,-6.83 11.152,-7.99 4.699,-1.47 8.188,-1.01 12.168,1.33 3.75,2.51 6.09,6.16 6.82,10.79 -1.8,2.34 -3.148,4.24 -4.179,6.03 -11.301,18.84 -19.371,40.02 -23.942,62.9 l -0.597,2.99 55.808,22.78 0,-5.48 c 0,-2.65 2.27,-11.28 4.403,-19.17 3.578,-12.68 7.199,-22.44 10.738,-28.97 l 0.539,-0.97 c 0.742,-1.3 1.371,-2.43 1.941,-3 3.219,-4.7 6.942,-7.47 11.828,-9.01 4.141,-1.33 8.18,-0.76 11.961,1.59 5.582,3.35 7.93,8.23 7.411,15.36 l -7.168,13.33 -4.313,2.16 1.922,2.49 -21.262,41.06 52.36,27.5 1.421,-4.01 c 2.739,-7.75 17.809,-72.95 1.11,-116.5 -4.57,-12.19 -12.25,-21.59 -22.82,-27.92 -15.739,-9.67 -32.692,-11.01 -50.282,-3.87 -3.039,-15.98 -11.468,-28.2 -25.117,-36.38 -8.492,-5.41 -17.832,-8.18 -27.672,-8.18" /><path
         id="path332"
         style="fill:#ffec00;fill-opacity:1;fill-rule:evenodd;stroke:none"
         d="m 602.527,1561.55 20.692,-39.97 -0.559,-0.57 c 0.559,-0.28 0.848,-0.56 1.41,-1.13 l 7.938,-14.74 c 0.851,-8.79 -1.981,-15.31 -9.07,-19.56 -4.54,-2.83 -9.637,-3.68 -15.02,-1.98 -5.391,1.7 -9.93,4.82 -13.328,9.92 -1.129,1.13 -1.981,2.83 -3.121,4.82 -3.68,6.8 -7.371,16.72 -11.051,29.76 -2.828,10.49 -4.539,17.29 -4.539,20.13 l -47.899,-19.56 c 4.528,-22.68 12.469,-43.37 23.528,-61.8 1.133,-1.98 2.832,-4.25 4.82,-6.8 -0.57,-6.52 -3.687,-11.62 -8.789,-15.02 -4.82,-2.84 -9.641,-3.41 -15.031,-1.7 -5.098,1.41 -9.629,4.81 -13.32,9.63 -0.848,1.42 -1.977,3.12 -2.829,5.11 -3.968,6.8 -7.66,16.72 -11.339,29.48 -2.84,10.77 -4.54,17.57 -4.821,20.41 l -47.34,-19.56 c 4.539,-22.68 12.192,-43.37 23.532,-61.8 8.218,-13.61 19.839,-22.68 34.859,-26.93 14.738,-4.25 28.629,-2.55 41.109,5.39 14.168,8.5 22.11,21.54 24.09,38.55 18.141,-8.79 35.149,-8.22 51.309,1.7 9.922,5.95 17.012,14.74 21.262,26.08 15.871,41.38 2.269,104.31 -1.141,113.95" /><path
         id="path334"
         style="fill:#000000;fill-opacity:1;fill-rule:nonzero;stroke:none"
         d="m 685.523,1498.12 c 1,-0.57 2.059,-1.05 3.118,-1.28 8.441,-2.84 15.371,-1.58 24.132,3.06 8.54,4.66 13.911,10.3 16.387,17.25 3.344,9.77 3.621,17.36 0.813,22.51 -1.2,2.16 -3.121,4.24 -5.403,5.84 -3.289,2.41 -8.797,2.93 -16.25,1.65 -4.519,-0.7 -7.179,-0.89 -9.168,-0.25 -3.308,0.56 -6.082,2.65 -8.218,6.24 -4.071,6.62 -2.192,11.1 0.109,13.7 1.66,1.98 5.109,4.36 11.469,7.86 4.82,2.41 8.871,4.09 12.261,5.09 l -38.293,44.91 c -3.339,-1.47 -10.07,-4.93 -14.437,-7.18 -11.031,-5.78 -18.633,-14.7 -22.57,-26.52 -3.7,-12.17 -2.762,-23.51 2.91,-34.57 10.371,-20.21 27.461,-27.79 52.168,-23.29 15.222,2.38 18.679,-4.15 19.562,-7.88 1.129,-3.33 0.867,-8.59 -7.25,-12.89 -5.402,-2.85 -11.09,-3.01 -16.269,-0.55 l -5.071,-13.7 z m 11.36,-10.08 c -3.481,0 -6.922,0.57 -10.231,1.71 -2.851,0.61 -5.539,2.32 -7.75,3.89 l -2.289,1.64 10.391,28.09 3.976,-3.15 c 4.012,-3.16 8.133,-3.6 12.454,-1.33 4.289,2.28 3.82,3.69 3.597,4.37 -0.269,1.07 -0.738,3.06 -6.238,3.06 -1.492,0 -3.16,-0.15 -5.012,-0.44 -27.398,-5 -48.148,4.15 -59.961,27.19 -6.578,12.85 -7.687,25.99 -3.367,40.17 4.59,13.78 13.399,24.12 26.188,30.82 12.793,6.57 16.402,8.26 18.402,8.59 l 2.051,0.35 51.328,-60.21 -8.84,0.68 c -2.539,0.05 -6.891,-0.91 -15.641,-5.29 -6.371,-3.51 -8.589,-5.29 -9.308,-6.15 -0.57,-0.64 -1.492,-1.68 0.59,-5.07 1.558,-2.59 2.847,-2.75 3.281,-2.8 l 0.898,-0.24 c 2.071,-0.08 3.692,0.19 5.731,0.5 9.41,1.64 16.808,0.67 21.73,-2.93 3.117,-2.18 5.821,-5.14 7.559,-8.28 3.91,-7.16 3.808,-16.48 -0.301,-28.49 -3.129,-8.77 -9.617,-15.73 -19.859,-21.32 -6.75,-3.57 -13.25,-5.36 -19.379,-5.36" /><path
         id="path336"
         style="fill:#ffec00;fill-opacity:1;fill-rule:evenodd;stroke:none"
         d="m 707.695,1550.78 c -3.679,-0.57 -6.242,-0.85 -7.648,-0.28 -2.274,0.28 -4.262,1.7 -5.961,4.53 -2.262,3.69 -2.551,6.81 -0.281,9.36 1.422,1.7 4.82,3.96 10.492,7.08 7.937,3.97 13.887,5.96 17.566,5.67 l -44.218,51.88 c -1.7,-0.29 -7.372,-3.12 -17.29,-8.22 -11.902,-6.24 -20.121,-15.88 -24.378,-28.63 -3.961,-13.04 -3.114,-25.23 3.117,-37.42 11.062,-21.54 29.769,-30.05 56.133,-25.23 9.07,1.42 14.168,-0.28 15.296,-5.1 1.141,-3.4 -0.558,-6.24 -5.378,-8.79 -5.391,-2.83 -11.059,-2.55 -16.442,1.7 l -7.656,-20.69 c 1.988,-1.42 4.258,-2.84 6.808,-3.4 8.219,-2.84 17.008,-1.7 26.641,3.4 9.359,5.1 15.309,11.34 18.141,19.27 3.687,10.78 3.968,19.28 0.566,25.52 -1.418,2.55 -3.68,5.1 -6.519,7.08 -4.25,3.12 -10.77,3.69 -18.989,2.27" /><path
         id="path338"
         style="fill:#000000;fill-opacity:1;fill-rule:nonzero;stroke:none"
         d="m 749.324,1538.57 32.633,-0.23 7.898,100.31 -57.96,-3.95 17.429,-96.13 z m 18.934,-13.84 c -1.192,0 -2.391,-0.09 -3.621,-0.27 -6.571,-0.73 -12.039,-3.81 -16.371,-9.16 -4.051,-5.24 -5.661,-11.23 -4.879,-18.25 0.718,-6.46 3.801,-11.93 9.148,-16.25 5.352,-4.14 11.551,-5.92 18.25,-5.16 6.77,1.01 12.11,4.07 16.199,9.37 4.34,5.61 5.903,11.39 4.934,18.19 -0.742,6.72 -3.813,12.02 -9.383,16.32 -4.289,3.47 -9.07,5.21 -14.277,5.21 m -0.473,-56.63 c -7.219,0 -13.89,2.33 -19.828,6.92 -6.973,5.64 -10.949,12.76 -11.891,21.22 -0.992,8.89 1.168,16.84 6.411,23.63 4.789,5.91 10.621,9.67 17.429,11.25 l -16.738,0.13 -19.992,110.24 74.699,5.1 -9.109,-115.68 -12.559,0.1 c 3.91,-1.11 7.59,-3.03 10.91,-5.71 7.059,-5.46 11.16,-12.6 12.11,-21.17 1.238,-8.67 -0.852,-16.44 -6.411,-23.64 -5.242,-6.77 -12.332,-10.86 -21.082,-12.16 -1.418,-0.16 -2.687,-0.23 -3.949,-0.23" /><path
         id="path340"
         style="fill:#ffec00;fill-opacity:1;fill-rule:evenodd;stroke:none"
         d="m 764.102,1528.11 c -7.649,-0.86 -13.891,-4.54 -18.711,-10.5 -4.821,-6.22 -6.52,-13.31 -5.668,-20.97 0.847,-7.66 4.539,-13.89 10.488,-18.71 6.242,-4.82 13.32,-6.8 20.98,-5.95 7.653,1.13 13.891,4.54 18.711,10.77 4.809,6.23 6.801,13.05 5.661,20.98 -0.852,7.66 -4.532,13.88 -10.77,18.7 -5.949,4.82 -13.039,6.8 -20.691,5.68 m 21.261,6.52 8.5,108 -66.332,-4.54 18.711,-103.18" /></g></g></svg>