<?xml version="1.0" encoding="UTF-8" standalone="no"?>
<!-- Created with Inkscape (http://www.inkscape.org/) -->

<svg
   xmlns:dc="http://purl.org/dc/elements/1.1/"
   xmlns:cc="http://creativecommons.org/ns#"
   xmlns:rdf="http://www.w3.org/1999/02/22-rdf-syntax-ns#"
   xmlns:svg="http://www.w3.org/2000/svg"
   xmlns="http://www.w3.org/2000/svg"
   xmlns:sodipodi="http://sodipodi.sourceforge.net/DTD/sodipodi-0.dtd"
   xmlns:inkscape="http://www.inkscape.org/namespaces/inkscape"
   width="46mm"
   height="53mm"
   viewBox="0 0 162.99213 187.79528"
   id="svg4327"
   version="1.1"
   inkscape:version="0.91 r13725"
   sodipodi:docname="boy30.svg">
  <defs
     id="defs4329" />
  <sodipodi:namedview
     id="base"
     pagecolor="#ffffff"
     bordercolor="#666666"
     borderopacity="1.0"
     inkscape:pageopacity="0.0"
     inkscape:pageshadow="2"
     inkscape:zoom="1.979899"
     inkscape:cx="-146.53505"
     inkscape:cy="175.29392"
     inkscape:document-units="px"
     inkscape:current-layer="layer1"
     showgrid="false"
     fit-margin-top="0"
     fit-margin-left="0"
     fit-margin-right="0"
     fit-margin-bottom="0"
     inkscape:window-width="1920"
     inkscape:window-height="1017"
     inkscape:window-x="1912"
     inkscape:window-y="-8"
     inkscape:window-maximized="1" />
  <metadata
     id="metadata4332">
    <rdf:RDF>
      <cc:Work
         rdf:about="">
        <dc:format>image/svg+xml</dc:format>
        <dc:type
           rdf:resource="http://purl.org/dc/dcmitype/StillImage" />
        <dc:title />
      </cc:Work>
    </rdf:RDF>
  </metadata>
  <g
     inkscape:label="Layer 1"
     inkscape:groupmode="layer"
     id="layer1"
     transform="translate(-608.35131,-775.72626)">
    <g
       transform="matrix(0.80690647,0,0,0.80690647,342.23067,754.25451)"
       id="g7">
      <path
         style="fill:#676766;fill-rule:evenodd"
         inkscape:connector-curvature="0"
         d="m 373.3,146.9 c -4.1,3.2 -9.4,11.2 -9.6,17.5 -0.5,11.6 5.7,12.1 5.4,26.8 -0.3,14.3 10.2,38.2 26.1,37.7 11,-0.3 16,-4.4 18.3,-9.6 8.6,2.8 16.6,3.5 22.1,1.8 19,-3.9 53.6,-23.8 50,-47.3 5.5,-1.9 9.3,-9.8 8.8,-16.7 4.3,-5.3 10.1,-15.6 10,-31.5 0.2,0.1 0.5,0.2 0.7,0.1 0.5,0 0.9,-0.3 1,-0.8 l 0,0 c 0,-0.1 6,-14.8 -5.9,-31.9 -4.6,-6.7 -10.3,-10.6 -15.7,-12.7 -5.8,-2.3 -11.4,-2.6 -15.3,-2.1 3.3,-2.9 10.4,-6.3 22.8,-2.4 0.7,0.2 1.4,-0.2 1.6,-0.8 0.2,-0.5 0,-1 -0.4,-1.3 -0.7,-0.6 -13.5,-11.4 -29.3,1.4 -0.3,-4.3 -2.9,-12.3 -15.8,-18.5 -0.2,-0.1 -0.3,-0.1 -0.5,-0.1 l 0,0 0,0 c -0.5,0 -0.9,0.3 -1.1,0.7 -0.3,0.6 0,1.4 0.6,1.6 0.3,0.1 0.6,0.3 0.9,0.5 0.8,0.7 2.7,2.5 4.9,5.1 2.5,2.9 5,6.7 5.7,10.8 -5.4,-4.1 -20.4,-13.5 -44.6,-12.5 -23.8,1 -40.1,13 -40.2,13 -0.5,0.4 -0.7,1.2 -0.3,1.7 0.1,0.2 0.3,0.4 0.6,0.5 l 0,0 c 0,0 1.6,0.6 2.9,1.4 -4,1.3 -12.2,4.7 -15.9,11.3 -0.1,0.2 -0.2,0.4 -0.2,0.6 l 0,0 0,0 c 0,0.4 0.3,0.9 0.7,1.1 0.6,0.3 1.4,0.1 1.7,-0.5 0.1,-0.2 0.3,-0.5 0.4,-0.7 0.7,-0.3 3,-1.2 5.6,-2.5 l 0.4,-0.1 c -5.3,5.4 -13.6,15.8 -12.6,28.7 0.1,0.7 0.7,1.2 1.4,1.1 0.3,0 0.5,-0.1 0.7,-0.3 l 1,-0.7 c -0.2,3.9 0.2,11 4.4,17.2 0.3,0.5 1,0.7 1.6,0.4 l 0.8,-0.3 c 0.3,2.6 1.4,7.7 4.5,11 0.4,0.2 1,0.7 1.8,1.3 l 0,0 z"
         id="path9" />
      <path
         style="fill:#676766"
         inkscape:connector-curvature="0"
         d="m 394.8,235 c -6.3,0 -12.4,-2.8 -17.7,-8.1 -9.5,-9.6 -14.2,-25.3 -14,-35.7 0.1,-6.4 -1.1,-9.3 -2.5,-12.6 -1.5,-3.5 -3.2,-7.5 -2.9,-14.4 0.2,-5.8 3.5,-12.5 7.3,-17.3 -1.4,-2.3 -2.4,-4.7 -3,-6.9 -0.9,-0.5 -1.7,-1.3 -2.3,-2.2 -3.3,-5 -4.7,-10.3 -5.2,-14.7 -1.8,-1.2 -3.1,-3.2 -3.3,-5.4 -0.7,-8.4 1.9,-15.9 5.4,-21.9 -1,-1.3 -1.6,-2.9 -1.6,-4.6 0,-1.2 0.3,-2.5 1,-3.6 2.7,-4.9 7.1,-8.3 11.4,-10.6 -0.1,-2.2 0.9,-4.4 2.8,-5.9 0.1,-0.1 0.2,-0.1 0.3,-0.2 2,-1.4 19.2,-13.1 43.3,-14.1 1.3,-0.1 2.5,-0.1 3.8,-0.1 9,0 16.7,1.3 23.2,3.3 -0.5,-1.6 -0.5,-3.5 0.3,-5.2 0,-0.1 0.1,-0.1 0.1,-0.2 1.2,-2.5 3.7,-4 6.5,-4 1.1,0 2.2,0.3 3.2,0.8 9.1,4.4 14,9.8 16.5,14.6 4,-2 8.2,-3 12.5,-3 9.5,0 15.9,5 17.3,6.3 2.3,1.9 3.2,5 2.2,7.8 -0.5,1.5 -1.4,2.8 -2.6,3.6 3.2,2.5 6,5.6 8.5,9.1 12.6,18.1 7.8,34.2 6.6,37.3 0,0.1 -0.1,0.2 -0.1,0.3 -0.3,0.8 -0.8,1.6 -1.4,2.3 -0.7,13.8 -5.4,23.5 -9.9,29.7 -0.2,6.6 -3.2,14 -8.6,18 0.1,25.5 -34,45.3 -54.8,49.7 -5.5,1.7 -12.9,1.5 -20.9,-0.5 -4.3,5.5 -11.3,8.4 -20.9,8.6 -0.1,-0.2 -0.3,-0.2 -0.5,-0.2 z m -18.1,-93 c 1.4,1 2.4,2.6 2.6,4.3 0.2,2 -0.6,4.1 -2.3,5.3 -3.2,2.5 -7.2,8.9 -7.3,13 -0.2,4.2 0.7,6.2 2,9.2 1.6,3.8 3.6,8.5 3.5,17.5 -0.1,7.9 3.8,20.2 10.6,27.1 3,3 6,4.5 9.1,4.5 l 0.3,0 c 10.5,-0.3 12.3,-4.5 13,-6 1.2,-2.8 4.4,-4.3 7.4,-3.3 4.8,1.6 9.4,2.4 13.3,2.4 2,0 3.8,-0.2 5.1,-0.7 0.2,-0.1 0.4,-0.1 0.6,-0.2 17.6,-3.6 48.1,-21.7 45.3,-40.5 -0.4,-2.8 1.2,-5.6 3.9,-6.6 2.4,-0.9 5.1,-5.9 4.8,-10.6 -0.1,-1.5 0.4,-3 1.3,-4.2 4,-5 8.8,-13.9 8.7,-27.8 0,-2.1 1,-4 2.8,-5.1 0.9,-4.2 1.5,-13.5 -5.8,-24.1 -3.5,-5 -7.8,-8.5 -12.9,-10.5 -3.9,-1.6 -7.4,-1.9 -9.6,-1.9 -1,0 -1.9,0.1 -2.7,0.2 -2.5,0.3 -4.9,-0.9 -6.1,-3.1 0,0 0,0 0,0 -0.8,0 -1.6,-0.2 -2.4,-0.5 -0.1,0 -0.2,-0.1 -0.3,-0.1 -2.1,1.1 -4.6,0.9 -6.5,-0.5 -4.5,-3.4 -17,-11.3 -37.4,-11.3 -1.1,0 -2.2,0 -3.3,0.1 -14.1,0.6 -25.3,5.3 -31.6,8.7 0.3,0.8 0.4,1.7 0.3,2.6 -0.3,2.3 -1.9,4.3 -4.1,5 -0.7,0.2 -2,0.7 -3.5,1.4 0.8,2.2 0.3,4.6 -1.4,6.3 -3.8,3.8 -9.6,10.9 -10.7,19.4 1.9,1.1 3,3.2 2.9,5.4 -0.1,2.5 0.1,7 2,11.2 0.6,0.1 1.2,0.4 1.8,0.7 1.6,1 2.7,2.6 2.9,4.4 0.3,2.5 1.2,5.7 2.8,7.5 0.2,0.2 0.4,0.4 0.9,0.8 z"
         id="path11" />
    </g>
    <g
       transform="matrix(0.80690647,0,0,0.80690647,342.23067,754.25451)"
       id="g13">
      <path
         style="fill:#fefefe;fill-rule:evenodd"
         inkscape:connector-curvature="0"
         d="m 373.3,146.9 c -4.1,3.2 -9.4,11.2 -9.6,17.5 -0.5,11.6 5.7,12.1 5.4,26.8 -0.3,14.3 10.2,38.2 26.1,37.7 11,-0.3 16,-4.4 18.3,-9.6 8.6,2.8 16.6,3.5 22.1,1.8 19,-3.9 53.6,-23.8 50,-47.3 5.5,-1.9 9.3,-9.8 8.8,-16.7 4.3,-5.3 10.1,-15.6 10,-31.5 0.2,0.1 0.5,0.2 0.7,0.1 0.5,0 0.9,-0.3 1,-0.8 l 0,0 c 0,-0.1 6,-14.8 -5.9,-31.9 -4.6,-6.7 -10.3,-10.6 -15.7,-12.7 -5.8,-2.3 -11.4,-2.6 -15.3,-2.1 3.3,-2.9 10.4,-6.3 22.8,-2.4 0.7,0.2 1.4,-0.2 1.6,-0.8 0.2,-0.5 0,-1 -0.4,-1.3 -0.7,-0.6 -13.5,-11.4 -29.3,1.4 -0.3,-4.3 -2.9,-12.3 -15.8,-18.5 -0.2,-0.1 -0.3,-0.1 -0.5,-0.1 l 0,0 0,0 c -0.5,0 -0.9,0.3 -1.1,0.7 -0.3,0.6 0,1.4 0.6,1.6 0.3,0.1 0.6,0.3 0.9,0.5 0.8,0.7 2.7,2.5 4.9,5.1 2.5,2.9 5,6.7 5.7,10.8 -5.4,-4.1 -20.4,-13.5 -44.6,-12.5 -23.8,1 -40.1,13 -40.2,13 -0.5,0.4 -0.7,1.2 -0.3,1.7 0.1,0.2 0.3,0.4 0.6,0.5 l 0,0 c 0,0 1.6,0.6 2.9,1.4 -4,1.3 -12.2,4.7 -15.9,11.3 -0.1,0.2 -0.2,0.4 -0.2,0.6 l 0,0 0,0 c 0,0.4 0.3,0.9 0.7,1.1 0.6,0.3 1.4,0.1 1.7,-0.5 0.1,-0.2 0.3,-0.5 0.4,-0.7 0.7,-0.3 3,-1.2 5.6,-2.5 l 0.4,-0.1 c -5.3,5.4 -13.6,15.8 -12.6,28.7 0.1,0.7 0.7,1.2 1.4,1.1 0.3,0 0.5,-0.1 0.7,-0.3 l 1,-0.7 c -0.2,3.9 0.2,11 4.4,17.2 0.3,0.5 1,0.7 1.6,0.4 l 0.8,-0.3 c 0.3,2.6 1.4,7.7 4.5,11 0.4,0.2 1,0.7 1.8,1.3 l 0,0 z"
         id="path15" />
      <path
         style="fill:#fefefe"
         inkscape:connector-curvature="0"
         d="m 394.8,234 c -6.1,0 -11.9,-2.7 -17,-7.8 -9.3,-9.4 -13.9,-24.7 -13.7,-35 0.1,-6.6 -1.2,-9.7 -2.6,-13 -1.5,-3.4 -3.1,-7.3 -2.8,-13.9 0.2,-5.9 3.6,-12.6 7.6,-17.3 -1.7,-2.5 -2.7,-5.2 -3.4,-7.6 -0.9,-0.5 -1.7,-1.2 -2.3,-2.1 -3.3,-5 -4.6,-10.4 -5.1,-14.8 -1.8,-1 -3,-2.8 -3.2,-4.9 -0.7,-8.5 2.1,-16 5.6,-21.9 -1.2,-1.2 -1.9,-2.8 -1.9,-4.4 0,-1.1 0.3,-2.1 0.8,-3.1 2.7,-4.9 7.3,-8.3 11.6,-10.6 -0.3,-2.1 0.6,-4.3 2.4,-5.7 0.1,-0.1 0.2,-0.1 0.2,-0.2 2,-1.4 19,-13 42.8,-13.9 1.3,-0.1 2.5,-0.1 3.8,-0.1 10,0 18.4,1.7 25.2,3.9 -1.4,-1.8 -1.8,-4.2 -0.8,-6.4 0,-0.1 0.1,-0.1 0.1,-0.2 1.1,-2.1 3.2,-3.5 5.6,-3.5 1,0 1.9,0.2 2.8,0.7 9.5,4.6 14.2,10.2 16.5,15 4.2,-2.2 8.5,-3.3 12.9,-3.3 9.3,0 15.6,5.1 16.7,6 2,1.6 2.7,4.3 1.9,6.7 -0.6,1.8 -1.8,3.1 -3.5,3.8 3.6,2.6 6.7,5.9 9.4,9.8 12.3,17.7 7.6,33.4 6.5,36.4 0,0.1 -0.1,0.1 -0.1,0.2 -0.3,0.8 -0.9,1.6 -1.5,2.2 -0.6,14 -5.4,23.7 -9.9,29.8 -0.1,6.6 -3.1,14 -8.6,17.9 0.5,25.2 -33.4,44.9 -54,49.3 -5.5,1.7 -13,1.4 -21,-0.7 -4.1,5.6 -11,8.5 -20.6,8.7 0,0 -0.2,0 -0.4,0 z m -18.7,-91.2 c 1.2,0.8 2,2.2 2.1,3.6 0.2,1.7 -0.5,3.4 -1.9,4.5 -3.4,2.6 -7.5,9.3 -7.7,13.7 -0.2,4.4 0.8,6.6 2,9.6 1.6,3.7 3.6,8.3 3.4,17.1 -0.1,8.1 3.9,20.7 10.9,27.8 3.1,3.2 6.5,4.8 9.8,4.8 l 0.3,0 c 10,-0.3 12.7,-3.9 13.9,-6.6 1,-2.4 3.7,-3.6 6.1,-2.7 4.9,1.6 9.6,2.5 13.6,2.5 2.1,0 4,-0.2 5.4,-0.7 0.2,-0.1 0.3,-0.1 0.5,-0.1 17.9,-3.7 49,-22.3 46.1,-41.6 -0.4,-2.4 1,-4.7 3.3,-5.5 2.8,-1 5.8,-6.3 5.5,-11.6 -0.1,-1.3 0.3,-2.5 1.1,-3.5 4.1,-5.1 9,-14.2 8.9,-28.4 0,-1.8 0.9,-3.5 2.5,-4.4 0.1,0 0.1,-0.1 0.2,-0.1 0.9,-4.2 1.9,-14.1 -5.9,-25.3 -3.6,-5.1 -8.1,-8.8 -13.4,-10.9 -4,-1.6 -7.6,-1.9 -10,-1.9 -1,0 -2,0.1 -2.9,0.2 -2.2,0.3 -4.3,-0.9 -5.2,-2.9 0,-0.1 -0.1,-0.2 -0.1,-0.3 -0.9,0.1 -1.8,0 -2.6,-0.4 -0.2,-0.1 -0.5,-0.2 -0.7,-0.4 -0.1,0 -0.1,0.1 -0.2,0.1 -1.8,1.1 -4,0.9 -5.6,-0.3 -4.5,-3.5 -17.3,-11.5 -38,-11.5 -1.1,0 -2.2,0 -3.3,0.1 -14.9,0.6 -26.6,5.8 -32.8,9.2 0.5,0.9 0.7,1.9 0.6,2.9 -0.2,1.9 -1.6,3.6 -3.4,4.2 -0.9,0.3 -2.6,0.9 -4.5,1.8 1.2,2 0.9,4.5 -0.8,6.1 -3.9,4 -10.1,11.5 -11.1,20.6 0.1,0.1 0.3,0.1 0.4,0.2 1.7,0.9 2.7,2.7 2.6,4.6 -0.1,2.7 0.1,7.6 2.4,12.2 0.7,0.1 1.4,0.3 2,0.7 1.3,0.8 2.2,2.2 2.4,3.7 0.2,1.3 0.8,5.6 3.1,8 0.2,0.2 0.5,0.4 1,0.9 z"
         id="path17" />
    </g>
    <g
       transform="matrix(0.80690647,0,0,0.80690647,342.23067,754.25451)"
       id="g95">
      <path
         style="fill:#f9d8b5;fill-rule:evenodd"
         inkscape:connector-curvature="0"
         d="m 482.1,148.7 c 0,0 6.2,-5.4 10.9,3 4.6,8.4 -1.4,22.8 -10.1,22.6 -8.6,-0.2 -8.9,-17.5 -0.8,-25.6 l 0,0 z"
         id="path97" />
      <path
         inkscape:connector-curvature="0"
         d="m 483.1,174.8 -0.2,0 c -2.8,-0.1 -5,-1.8 -6.2,-4.8 -2.3,-5.8 -0.8,-15.8 5,-21.7 0.1,-0.1 2.2,-1.9 4.9,-1.9 2.7,0 4.9,1.7 6.8,5 2.6,4.7 2.1,11.7 -1.1,17.2 -2.3,3.9 -5.7,6.2 -9.2,6.2 z m 3.6,-27.4 c -2.3,0 -4.2,1.6 -4.2,1.6 -5.6,5.5 -7,15.1 -4.8,20.6 0.8,1.9 2.3,4.1 5.3,4.2 l 0.2,0 c 3.1,0 6.2,-2.1 8.3,-5.7 3.1,-5.1 3.5,-11.8 1.1,-16.2 -1.7,-3 -3.6,-4.5 -5.9,-4.5 z"
         id="path99" />
    </g>
    <path
       inkscape:connector-curvature="0"
       d="m 649.66207,850.27637 c 0,0 3.71177,10.89325 -2.6628,23.4003 l -1.61381,-0.80691 c 6.05181,-11.86152 2.5821,-22.02855 2.5821,-22.02855 l 1.69451,-0.56484 z m -2.6628,23.4003 c -5.24489,10.16703 -5.64833,19.36575 -3.14693,27.35413 l -1.6945,0.56484 c -2.6628,-8.39184 -2.25934,-18.07471 3.22762,-28.64519 l 1.61381,0.72622 z m -3.06623,27.35413 c 1.85587,5.80973 5.24489,10.89323 9.4408,15.25053 l -1.29105,1.21036 c -4.3573,-4.51868 -7.90769,-9.92496 -9.84426,-15.97674 l 1.69451,-0.48415 z m 9.4408,15.25053 c 4.2766,4.35729 9.36011,7.98837 14.605,10.65116 l -0.8069,1.53314 c -5.40627,-2.74349 -10.65117,-6.45526 -15.08915,-10.97394 l 1.29105,-1.21036 z m 14.605,10.65116 c 9.6022,4.92213 19.52716,6.77803 25.57894,4.92213 l 0.56484,1.69451 c -6.45525,2.09796 -16.94503,0.0806 -26.95068,-5.00283 l 0.8069,-1.61381 z m 25.82102,5.72905 -0.24208,-0.80692 c 0.48415,-0.16137 0.96829,0.0807 1.12968,0.56483 0.16138,0.48415 -0.0807,0.9683 -0.56484,1.12968 l -0.32276,-0.88759 z m -0.16138,-0.88761 c 8.71459,-1.77518 21.6251,-7.82699 30.42038,-16.21881 l 1.21036,1.29104 c -9.03736,8.63391 -22.27063,14.84709 -31.22729,16.70297 l -0.40345,-1.7752 z m 30.42038,-16.21881 c 6.37455,-6.13249 10.57048,-13.47534 9.19873,-21.30234 l 1.7752,-0.32276 c 1.45243,8.47252 -2.90487,16.3802 -9.76357,22.83545 l -1.21036,-1.21035 z m 9.19873,-21.30234 c -0.8069,-4.51867 -1.29104,-8.14975 -1.53312,-11.37738 l 1.7752,-0.0806 c 0.16138,3.06624 0.72621,6.69732 1.45243,11.216 l -1.69451,0.24206 z m -1.53312,-11.37738 c -0.16138,-3.22762 0,-5.89042 0.56484,-8.39183 l 1.69451,0.40345 c -0.56485,2.34004 -0.72623,4.84144 -0.48415,7.9077 l -1.7752,0.0806 z m 0.56484,-8.39183 c 0.56483,-2.34002 0.24207,-5.00281 -1.04898,-7.42353 l 1.61381,-0.80691 c 1.45243,2.90487 1.7752,5.9711 1.12968,8.63389 l -1.69451,-0.40345 z m -1.04898,-7.42353 c -1.12968,-2.34004 -3.14693,-4.51868 -5.80972,-6.21319 l 0.96828,-1.53312 c 2.98555,1.85589 5.1642,4.35729 6.53595,6.9394 l -1.69451,0.80691 z m -5.80972,-6.29387 c -3.46971,-2.09795 -7.74632,-7.74632 -10.4898,-13.71743 l 1.61381,-0.72621 c 2.58212,5.72904 6.61665,10.97393 9.76358,12.91051 l -0.88759,1.53313 z m -10.4898,-13.71743 c -2.25933,-5.0028 -3.4697,-10.3284 -2.17866,-14.20154 l 1.69451,0.56483 c -1.12966,3.38901 0,8.31114 2.09796,12.9105 l -1.61381,0.72621 z m -1.37174,-13.95948 -0.80692,-0.24206 c 0.16139,-0.48415 0.64553,-0.72622 1.12968,-0.56484 0.48414,0.16138 0.72622,0.64552 0.56483,1.12967 l -0.88759,-0.32277 z m 0.64553,0.64553 0,0 -1.29106,-1.21036 0,0 1.29106,1.21036 z m -0.64553,-0.64553 0.64553,0.64553 c -0.40346,0.32276 -0.8876,0.32276 -1.29106,0 -0.32276,-0.32276 -0.32276,-0.88759 0,-1.21036 l 0.64553,0.56483 z m 0.72622,0.64553 c -0.0806,0.0807 -8.87598,10.4091 -21.94786,12.26497 l -0.24208,-1.77519 c 12.42637,-1.6945 20.7375,-11.53876 20.81819,-11.61945 l 1.37175,1.12967 z m -22.10924,11.29669 0.0806,0.8876 c -0.48414,0.0806 -0.96829,-0.24208 -0.96829,-0.72621 -0.0806,-0.48415 0.24207,-0.9683 0.72622,-0.9683 l 0.16138,0.80691 z m -0.32277,-0.80691 c 0,0 8.47252,-3.30831 11.13531,-7.42353 l 1.45244,0.96829 c -2.98555,4.59936 -11.94223,8.06905 -12.02291,8.14975 l -0.56484,-1.69451 z m 11.86153,-6.9394 -0.72622,-0.48413 c 0.24207,-0.40346 0.80691,-0.56485 1.21036,-0.24208 0.40346,0.24208 0.56484,0.80691 0.24208,1.21037 l -0.72622,-0.48416 z m 0.0806,0.8876 c 0,0 -5.72904,0.32276 -14.68569,4.43799 l -0.72622,-1.6138 c 9.27943,-4.19592 15.25052,-4.59938 15.33122,-4.59938 l 0.0806,1.77519 z m -14.68569,4.43799 c -4.92213,2.25934 -9.5215,1.85589 -14.28225,1.45243 l 0.16138,-1.77519 c 4.51867,0.40345 8.87597,0.72622 13.39465,-1.29104 l 0.72622,1.6138 z m -14.20156,1.45243 c -4.27661,-0.32277 -8.63391,-0.72621 -13.39466,0.96829 l -0.56483,-1.6945 c 5.08351,-1.7752 9.68288,-1.37174 14.12088,-0.96829 l -0.16139,1.6945 z m -13.47535,0.96829 c -9.92494,3.38901 -11.86152,6.0518 -11.86152,6.0518 L 648.1289,850.115 c 0,0 2.34003,-3.14694 12.74912,-6.69733 l 0.56483,1.61381 z m -12.58773,5.48697 0.72621,0.48414 c -0.32276,0.40345 -0.80691,0.48415 -1.29105,0.24206 -0.40346,-0.24206 -0.48414,-0.80689 -0.24208,-1.21035 l 0.80692,0.48415 z"
       id="path101" />
    <path
       inkscape:connector-curvature="0"
       style="fill:#f9d8b5"
       d="m 648.85517,850.51845 c 0,0 3.63108,10.48979 -2.66279,22.75476 -20.17268,39.37704 29.93623,65.03666 47.60748,59.38833 15.4926,-3.14694 43.65364,-19.44645 40.26464,-38.48945 -1.61381,-8.95666 -2.09795,-14.605 -0.96829,-19.44644 1.12967,-4.84144 -1.29105,-10.89324 -7.26216,-14.6857 -6.0518,-3.71178 -14.92777,-18.88162 -12.26498,-26.86999 0,0 -8.55321,10.16702 -21.38302,11.94221 0,0 8.71459,-3.4697 11.53876,-7.7463 0,0 -5.89042,0.32277 -15.00846,4.51868 -9.11804,4.11521 -17.34848,-1.12967 -27.59621,2.34002 -10.16702,3.38902 -12.26497,6.29388 -12.26497,6.29388 l 0,0 z"
       id="path103" />
    <path
       inkscape:connector-curvature="0"
       style="fill:#e1ba91"
       d="m 646.03099,873.59598 c -15.33123,30.42037 11.37738,52.6103 32.35695,58.33934 3.06625,-7.50423 -0.56483,-17.59056 2.74348,-18.80093 0.24208,-0.0806 5.2449,-2.09795 10.48979,-4.35729 3.71178,-1.61381 13.47534,-3.71177 12.82982,-8.79527 -0.32276,-2.17866 -1.61381,-4.03454 -7.18147,-2.50142 -8.79528,2.34003 -14.04018,5.24489 -20.89888,5.89041 0.72621,-0.48413 18.88161,-11.05461 22.432,-13.39464 3.38901,-2.17865 5.1642,-5.0835 4.43798,-7.42354 -2.17865,-7.34285 -30.01692,10.16702 -35.18112,10.16702 1.45243,-3.63107 17.18711,-11.78083 22.59339,-18.31677 1.45242,-1.7752 2.09796,-3.4697 1.37174,-5.00282 -4.19591,-7.90769 -27.35415,13.7174 -33.16387,15.65398 0.0806,-1.45243 10.65117,-17.83262 11.05462,-18.55885 4.03454,-5.80972 6.45526,-9.84427 4.11524,-11.86153 -4.438,-3.95385 -11.53878,2.09796 -14.20157,5.56766 -7.42354,9.76356 -13.95948,23.40029 -14.92777,26.14377 0.24207,-0.72622 0.56483,-2.5014 1.04898,-4.27661 0.88759,-3.14693 2.50141,-6.69732 2.82417,-7.02008 -0.64552,-0.40345 -1.61381,-1.04898 -2.42072,-1.6945 -0.0806,0.0806 -0.24207,0.16138 -0.32276,0.24207 l 0,0 z"
       id="path105" />
    <path
       inkscape:connector-curvature="0"
       d="m 696.38196,922.33313 c 0,0 -9.36012,-8.79529 -15.33122,-7.50423 l -0.16138,-0.40345 c 6.21318,-1.37174 15.81535,7.58492 15.81535,7.58492 l -0.32275,0.32276 z m -15.33122,-7.42354 c -5.80973,1.29105 -3.389,5.56765 -3.389,5.56765 l -0.48415,0.24208 c 0,0 -2.74349,-4.84144 3.71177,-6.21318 l 0.16138,0.40345 z m -3.55039,5.64835 0.24207,-0.0806 c 0.0807,0.0806 0,0.24207 -0.0806,0.32277 -0.16137,0.0806 -0.24207,0 -0.32276,-0.0806 l 0.16139,-0.16139 z m -0.24207,0.16138 c 0,0 -5.2449,-5.1642 2.82416,-7.34285 l 0.16139,0.40345 c -7.26215,1.93657 -2.66279,6.61664 -2.58209,6.61664 l -0.40346,0.32276 z m 2.90486,-7.34285 c 2.98556,-0.80691 5.97111,-0.0806 8.47251,1.29105 l -0.24206,0.40344 c -2.42073,-1.29104 -5.24489,-2.01725 -8.06907,-1.21035 l -0.16138,-0.48414 z m 8.47251,1.21035 c 4.11524,2.17865 7.26217,5.97112 8.14976,7.50423 l -0.48414,0.24208 c -0.8876,-1.45243 -3.95384,-5.1642 -7.98838,-7.34284 l 0.32276,-0.40347 z m 7.98839,7.58493 0.24206,-0.0807 c 0.0806,0.0807 0,0.24208 -0.0806,0.32277 -0.16137,0.0806 -0.32276,0 -0.40345,-0.0806 l 0.24208,-0.16138 z"
       id="path107" />
    <path
       inkscape:connector-curvature="0"
       d="m 696.62404,922.17175 c 0,0 -9.5215,-8.87597 -15.5733,-7.50423 -6.13249,1.29105 -3.55039,5.89042 -3.55039,5.89042 0,0 -5.00283,-4.92214 2.74348,-7.0201 7.66561,-2.01726 14.84707,6.21319 16.38021,8.63391 l 0,0 z"
       id="path109" />
    <path
       inkscape:connector-curvature="0"
       d="m 685.89218,924.67316 c -0.32277,-0.48415 -0.48415,-1.12966 -0.56484,-1.77519 l 0.40346,-0.0806 c 0.0806,0.64553 0.24206,1.21036 0.48413,1.61382 l -0.32275,0.24207 z m -0.56484,-1.77519 c -0.16138,-0.96829 -0.0806,-2.01727 0.0806,-2.34003 l 0.32277,0.0806 c -0.0806,0.24208 -0.16138,1.21036 0,2.17865 l -0.40346,0.0806 z m 0.16138,-2.17865 -0.16138,-0.0807 c 0,-0.0806 0.16138,-0.16139 0.24207,-0.0806 0.0806,0 0.16139,0.16138 0.0806,0.24208 l -0.16138,-0.0806 z m 0.16138,0 c -0.0806,0.24207 -0.48414,0.96828 -0.56483,2.01726 l -0.40345,0 c 0.0806,-1.12967 0.48414,-1.93657 0.56483,-2.17864 l 0.40345,0.16138 z m -0.56483,2.01726 c 0,0.56483 0.0806,1.29105 0.40345,2.09796 l -0.32276,0.16138 c -0.32276,-0.80691 -0.40345,-1.53312 -0.40345,-2.17864 l 0.32276,-0.0807 z m 0.24207,2.17865 0.16138,-0.0806 c 0.0806,0.0806 0,0.16138 -0.0806,0.24207 -0.0807,0.0806 -0.24207,0 -0.24207,-0.0806 l 0.16138,-0.0806 z m 0.16138,-0.0806 c 1.12967,2.09795 2.5821,2.66278 2.98556,2.82417 l -0.16139,0.40345 c -0.48413,-0.16138 -2.09796,-0.72621 -3.22762,-2.98555 l 0.40345,-0.24207 z m 2.98556,2.90487 0.0807,-0.16139 c 0.0806,0.0806 0.16138,0.16139 0.0806,0.24207 -0.0806,0.0806 -0.16137,0.16138 -0.24206,0.0806 l 0.0806,-0.16138 z m 0.0807,-0.16139 c 0.0806,0 0.16138,0.0806 0.16138,0.0806 l -0.24207,0.32276 -0.0806,0 0.16138,-0.40345 z m 0.0806,0.24207 0.0806,-0.16138 c 0.0806,0.0806 0.0806,0.16138 0.0806,0.24207 -0.0806,0.0806 -0.16139,0.0806 -0.24207,0.0806 l 0.0806,-0.16138 z m -0.16137,0.0806 c 0,0 -0.0806,-0.0806 -0.16138,-0.16138 l 0.24207,-0.24208 c 0.0806,0.0806 0.16138,0.16138 0.24207,0.16138 l -0.32276,0.24208 z m -0.16138,-0.0806 c -0.48414,-0.40345 -1.69451,-1.45243 -2.42072,-3.14693 l 0.32276,-0.16139 c 0.72622,1.53313 1.93658,2.58211 2.34003,2.98555 l -0.24207,0.32277 z m -2.34004,-3.22762 -0.16137,0.0806 c -0.0806,-0.0806 0,-0.24207 0.0806,-0.24207 0.0806,-0.0806 0.24206,0 0.24206,0.0806 l -0.16139,0.0807 z"
       id="path111" />
    <path
       inkscape:connector-curvature="0"
       d="m 685.97286,924.59247 c -0.72621,-1.12967 -0.64552,-3.5504 -0.48414,-3.95385 -0.24207,0.32277 -1.04898,2.09796 -0.16138,4.19592 1.29105,2.50141 3.14694,2.82417 3.30831,2.90487 -0.16137,-0.0806 -1.77518,-1.21037 -2.66279,-3.14694 l 0,0 z"
       id="path113" />
    <path
       inkscape:connector-curvature="0"
       d="m 674.59549,904.4198 c 0,0 0.40345,-4.43797 6.21318,-5.24489 l 0.0806,0.40346 c -5.56766,0.8069 -5.89042,4.92213 -5.89042,4.92213 l -0.40345,-0.0806 z m 6.21318,-5.24489 c 5.80972,-0.8069 7.7463,3.95385 7.7463,3.95385 l -0.32277,0.16137 c 0,0 -1.77519,-4.51867 -7.34284,-3.71176 l -0.0806,-0.40346 z m 7.58492,4.03454 0.16138,-0.0806 c 0.0806,0.0806 0,0.24206 -0.0806,0.24206 -0.0806,0 -0.24207,0 -0.24207,-0.0806 l 0.16139,-0.0807 z m -0.16139,0.16137 c 0,0 -3.30832,-3.06623 -7.26215,-2.74347 l -0.0806,-0.40346 c 4.11521,-0.32276 7.58491,2.82417 7.58491,2.82417 l -0.24207,0.32276 z m -7.26215,-2.74347 c -3.95384,0.32276 -6.0518,3.87315 -6.0518,3.87315 l -0.32276,-0.16139 c 0,0 2.17864,-3.79245 6.29387,-4.11522 l 0.0807,0.40346 z m -6.21319,3.87315 0.16139,0.0806 c -0.0806,0.0807 -0.16139,0.16138 -0.24207,0.0807 -0.0806,-0.0807 -0.0806,-0.16138 -0.0806,-0.24207 l 0.16137,0.0806 z"
       id="path115" />
    <path
       inkscape:connector-curvature="0"
       d="m 674.75686,904.5005 c 0,0 0.40346,-4.27661 6.05181,-5.08351 5.64834,-0.80691 7.50422,3.87314 7.50422,3.87314 0,0 -3.38901,-3.06624 -7.42353,-2.74347 -4.03454,0.24207 -6.1325,3.95384 -6.1325,3.95384 l 0,0 z"
       id="path117" />
    <path
       inkscape:connector-curvature="0"
       style="fill:#e7bd8e"
       d="m 702.43376,861.57307 c 4.76074,3.63108 11.78084,10.89325 12.42636,21.6251 -1.29105,-0.24207 -3.79245,5.64834 -10.57048,7.66561 -5.00281,1.45243 -14.44363,-1.29106 -15.97675,-2.25934 0,0 -5.40626,-8.39183 -0.96828,-22.35131 0.48415,0.40345 1.61381,-0.96829 2.90486,-0.8876 3.55039,0.48415 8.87597,-1.37174 12.18429,-3.79246 l 0,0 z"
       id="path119" />
    <path
       inkscape:connector-curvature="0"
       d="m 712.52009,883.52093 c 0,0 -0.32276,0.56483 -0.56483,0.72622 l -0.40346,-0.32277 c 0.48415,-0.56483 0.40346,-0.48415 0.40346,-0.48415 l 0.56483,0.0806 z m -0.48414,0.8069 c -0.32277,0.40346 -0.80691,0.96829 -1.37175,1.53313 l -0.40345,-0.40345 c 0.64553,-0.56483 1.04898,-1.12968 1.37175,-1.53313 l 0.40345,0.40345 z m -1.45243,1.53313 c -3.22763,3.14693 -10.65117,8.06906 -22.35132,3.14693 l 0.24208,-0.48414 c 11.37738,4.84144 18.63954,0.0806 21.78647,-2.98556 l 0.32277,0.32277 z m -22.27063,2.90486 -0.0806,0.24207 c -0.16138,-0.0806 -0.24207,-0.24207 -0.16138,-0.32276 0.0806,-0.16138 0.24207,-0.24207 0.40345,-0.16138 l -0.16138,0.24207 z m 0.16139,-0.24207 c 0.0807,0 16.78364,10.08633 26.14377,-5.40628 l 0.48414,0.24208 c -9.60218,15.89606 -26.86999,5.56765 -26.86999,5.56765 l 0.24208,-0.40345 z m 26.38584,-5.24489 -0.24207,-0.16139 c 0.0806,-0.16137 0.24207,-0.16137 0.40345,-0.0806 0.0806,0.0806 0.16138,0.24207 0.0806,0.40345 l -0.24207,-0.16138 z m 0,0.24207 -2.5821,0.24207 -0.0807,-0.56483 2.5821,-0.24207 0.0806,0.56483 z m -2.5821,0 0,0.24207 c -0.16138,0 -0.24207,-0.0806 -0.32276,-0.24207 0,-0.16138 0.0806,-0.24207 0.24207,-0.32276 l 0.0807,0.32276 z"
       id="path121" />
    <path
       inkscape:connector-curvature="0"
       d="m 712.27802,883.52093 c 0,0 -7.90769,12.02291 -23.96513,5.24489 0,0 17.02573,10.16703 26.54723,-5.48696 l -2.5821,0.24207 z"
       id="path123" />
    <path
       inkscape:connector-curvature="0"
       d="m 704.20895,861.65377 c -0.0806,0 -12.82981,-0.80692 -16.78365,2.74347 l 0.40346,0.40346 c 3.79245,-3.38902 16.38019,-2.5821 16.46088,-2.5821 l -0.0806,-0.56483 z m -16.78365,2.74347 c -1.21037,1.12968 -1.7752,2.09796 -1.6945,2.90486 l 0.56483,0 c 0,-0.64552 0.40345,-1.45242 1.53313,-2.5014 l -0.40346,-0.40346 z m -1.7752,2.82419 c 0,0.40344 0.16139,0.80689 0.40346,1.12965 l 0.40345,-0.32276 c -0.16138,-0.24206 -0.24208,-0.48414 -0.24208,-0.72622 l -0.56483,0 z m 0.40346,1.12965 c 0.24207,0.32277 0.56483,0.48416 0.96828,0.64553 l 0.16139,-0.48414 c -0.32276,-0.0806 -0.56484,-0.24207 -0.72622,-0.48415 l -0.40345,0.32276 z m 1.04898,0.64553 c 0.96828,0.32277 2.42071,0.16139 3.71176,-0.64553 l -0.32276,-0.48414 c -1.12967,0.72621 -2.34002,0.80691 -3.22763,0.56484 l -0.16137,0.56483 z m 3.46969,-0.88759 0.16139,0.24206 c 0.0806,-0.0806 0.16137,-0.24206 0.0806,-0.40345 -0.0806,-0.0807 -0.24208,-0.16137 -0.40346,-0.0807 l 0.16138,0.24208 z m 0.16139,0.24206 0.40345,-0.24206 -0.32277,-0.48415 -0.40345,0.24207 0.32277,0.48414 z m 0.48414,-0.24206 c 3.06625,-1.93657 7.90768,-4.92214 13.07188,-5.89042 l -0.0806,-0.56483 c -5.24489,1.04897 -10.16702,4.03452 -13.23325,6.05179 l 0.24207,0.40346 z m 12.99119,-6.21319 0.0807,0.24207 c 0.16139,-0.0806 0.24207,-0.16137 0.24207,-0.32275 0,-0.16138 -0.16138,-0.24208 -0.32276,-0.24208 l 0,0.32276 z"
       id="path125" />
    <path
       inkscape:connector-curvature="0"
       d="m 704.20895,861.89583 c 0,0 -12.74913,-0.80691 -16.62228,2.6628 -3.87314,3.46969 0,5.48696 3.06626,3.63108 2.98555,-2.01726 8.06906,-5.24489 13.55602,-6.29388 l 0,0 z"
       id="path127" />
    <g
       transform="matrix(0.80690647,0,0,0.80690647,342.23067,754.25451)"
       id="g129">
      <path
         style="fill:#f9d8b5"
         inkscape:connector-curvature="0"
         d="m 363.7,164.4 c -0.5,11.6 5.7,12.1 5.4,26.8 -0.3,14.3 10.2,38.2 26.1,37.7 30.5,-0.8 15.4,-31 21.9,-33.3 0.3,-0.1 6.5,-2.6 13,-5.4 4.6,-2 16.7,-4.6 15.9,-10.9 -0.4,-2.8 -2,-5 -8.9,-3.1 -10.9,2.9 -17.4,6.5 -25.9,7.3 0.9,-0.6 23.4,-13.8 27.8,-16.6 4.2,-2.7 6.4,-6.3 5.5,-9.3 -2.7,-9.1 -37.2,12.6 -43.6,12.7 1.8,-4.5 21.3,-14.6 28,-22.7 1.9,-2.2 2.7,-4.4 1.7,-6.2 -5.2,-9.8 -33.9,17 -41.1,19.4 0.1,-1.8 13.2,-22.1 13.7,-23 5,-7.2 8,-12.2 5.1,-14.7 -5.5,-4.9 -14.3,2.6 -17.6,6.9 -9.2,12.1 -17.3,29 -18.5,32.4 0.3,-0.9 0.7,-3.1 1.3,-5.3 1.2,-3.9 3.2,-8.3 3.5,-8.7 -0.7,-0.5 -1.9,-1.3 -3,-2.1 -4.1,2.8 -10,11.4 -10.3,18.1 l 0,0 z"
         id="path131" />
      <path
         inkscape:connector-curvature="0"
         d="m 394.8,229.5 c -4.9,0 -9.5,-2.2 -13.7,-6.5 -8.3,-8.5 -12.6,-22.7 -12.4,-31.8 0.1,-7.6 -1.4,-11.3 -3,-14.9 -1.4,-3.3 -2.7,-6.3 -2.5,-12 0.3,-7.1 6.5,-15.8 10.6,-18.4 0.2,-0.1 0.4,-0.1 0.6,0 1.1,0.8 2.3,1.6 3,2.1 0.1,0.1 0.2,0.2 0.2,0.3 0,0.1 0,0.3 -0.1,0.4 -0.3,0.4 -2.1,4.4 -3.3,8.1 3.3,-6.9 9.4,-18.3 16.2,-27.1 2.7,-3.5 8.5,-8.8 13.7,-8.8 1.7,0 3.3,0.6 4.6,1.7 3.3,2.9 0.1,8 -5,15.4 -0.7,1 -11.3,17.5 -13.3,21.8 2.4,-1.2 6.2,-3.9 10.5,-7 8.7,-6.3 19.6,-14.1 25.9,-14.1 2,0 3.5,0.8 4.3,2.4 1,1.8 0.4,4.1 -1.7,6.7 -3.5,4.2 -10.3,8.9 -16.3,13 -4.9,3.4 -9.5,6.6 -11.2,8.7 2.6,-0.6 7.8,-3 13.3,-5.6 9.2,-4.3 19.6,-9.2 25.4,-9.2 2.4,0 3.9,0.9 4.4,2.6 0.9,3.1 -1.3,6.9 -5.7,9.8 -3.6,2.3 -18.7,11.2 -25.1,15.1 -0.2,0.1 -0.4,0.3 -0.7,0.4 4.2,-0.6 8.1,-2 12.4,-3.5 3.2,-1.1 6.8,-2.4 11.1,-3.5 6,-1.6 9,-0.4 9.5,3.6 0.7,5.5 -7.1,8.2 -12.8,10.2 -1.4,0.5 -2.5,0.9 -3.4,1.3 -6.4,2.8 -12.6,5.3 -13,5.4 -1.7,0.6 -1.6,4.2 -1.5,8.3 0.2,6.3 0.4,14.1 -4.6,19.4 -3.4,3.6 -8.6,5.5 -16,5.7 -0.1,0 -0.2,0 -0.4,0 z M 374.1,147 c -3.9,2.8 -9.6,10.8 -9.8,17.4 -0.2,5.4 1.1,8.4 2.4,11.6 1.5,3.5 3.2,7.5 3,15.3 -0.2,8.9 4,22.8 12.2,31.1 4.1,4.2 8.7,6.3 13.4,6.2 7,-0.2 12.1,-2 15.3,-5.3 4.7,-5 4.5,-12.6 4.3,-18.7 -0.1,-4.7 -0.3,-8.4 2.1,-9.3 0.3,-0.1 6.3,-2.5 13,-5.4 0.9,-0.4 2.1,-0.8 3.5,-1.3 5.4,-1.9 12.7,-4.4 12.1,-9.1 -0.2,-1.7 -0.9,-3.4 -4.1,-3.4 -1.1,0 -2.5,0.2 -4.2,0.6 -4.2,1.1 -7.8,2.4 -11,3.5 -5.2,1.8 -9.7,3.4 -15,3.8 -0.2,0 -0.4,-0.1 -0.5,-0.3 -0.1,-0.2 0,-0.5 0.2,-0.6 0.2,-0.1 1.2,-0.7 2.7,-1.6 6.4,-3.8 21.6,-12.7 25.1,-15 4,-2.6 6.1,-6.1 5.3,-8.7 -0.4,-1.3 -1.5,-1.9 -3.5,-1.9 -5.6,0 -16.4,5 -25,9.1 -6.6,3.1 -12.3,5.8 -14.7,5.8 0,0 0,0 0,0 -0.2,0 -0.3,-0.1 -0.4,-0.2 -0.1,-0.1 -0.1,-0.3 0,-0.5 1,-2.3 6.1,-5.9 12,-10 6,-4.1 12.7,-8.8 16.1,-12.9 1.9,-2.3 2.4,-4.1 1.6,-5.6 -0.7,-1.3 -1.8,-1.9 -3.4,-1.9 -5.9,0 -16.7,7.7 -25.3,14 -5.1,3.7 -9.5,6.8 -11.8,7.6 -0.2,0.1 -0.3,0 -0.5,-0.1 -0.1,-0.1 -0.2,-0.3 -0.2,-0.4 0.1,-2.1 13.7,-23 13.8,-23.2 4.7,-6.8 7.8,-11.8 5.1,-14.1 -1.1,-1 -2.4,-1.5 -3.9,-1.5 -4.8,0 -10.5,5.1 -13,8.4 -9.1,11.9 -17.1,28.6 -18.4,32.3 -0.1,0.3 -0.4,0.4 -0.6,0.3 -0.3,-0.1 -0.4,-0.4 -0.3,-0.6 0.1,-0.4 0.3,-1 0.4,-1.7 0.2,-1 0.5,-2.3 0.9,-3.6 1,-3.2 2.6,-7.1 3.3,-8.4 -0.5,-0.6 -1.4,-1.1 -2.2,-1.7 z"
         id="path133" />
    </g>
    <path
       inkscape:connector-curvature="0"
       d="m 737.13075,883.92438 c 0.40345,-0.40345 15.16984,-11.78083 10.24771,-38.32806 0,0 1.93657,3.63108 2.50141,9.11804 0,0 4.59938,-11.45807 -4.68006,-24.85272 -9.27942,-13.39465 -23.64235,-12.42636 -27.11206,-10.73185 0,0 5.56766,-9.68289 21.62509,-4.68006 0,0 -10.81254,-9.76357 -24.04581,2.66279 0,0 2.09796,-9.4408 -12.1036,-16.29951 0,0 10.40909,7.66561 9.92494,16.3802 0,0 -12.58773,-12.34567 -37.037,-11.37739 -18.88162,0.80692 -31.79213,10.32841 -31.79213,10.32841 0,0 2.98556,1.04898 4.03454,2.50141 0,0 -10.24772,2.42073 -13.95948,9.11804 0,0 5.24489,-3.71176 10.16702,-4.51867 0,0 -14.44362,10.81254 -13.23326,25.41755 l 2.66279,-1.93658 c 0,0 -1.45244,8.55321 3.14693,15.49262 l 1.93657,-0.80692 c 0,0 0.24208,6.1325 3.46971,9.6022 0.40345,0.40346 1.53311,1.21035 3.30832,2.34003 l 0.0806,-0.0806 c 6.29387,-12.18429 2.66278,-22.75476 2.66278,-22.75476 0,0 2.09797,-2.90488 12.34568,-6.37456 10.24771,-3.4697 18.47817,1.77519 27.59621,-2.34004 9.11805,-4.19591 15.00847,-4.51868 15.00847,-4.51868 -2.82419,4.3573 -11.53877,7.74631 -11.53877,7.74631 12.82982,-1.77519 21.38303,-11.94222 21.38303,-11.94222 -2.66279,7.98837 6.21318,23.15822 12.26498,26.87 6.0518,3.71176 8.39182,9.84426 7.26215,14.6857 -0.8069,3.38899 -0.8069,7.26215 -0.16138,12.42636 1.37174,-0.8876 2.74348,-1.93658 4.03454,-3.14695 l 0,0 z"
       id="path135" />
    <path
       inkscape:connector-curvature="0"
       d="m 736.48522,883.19817 0,0 c 0.0806,-0.0806 0.0806,-0.0806 0.0806,-0.0806 1.45243,-1.12967 14.36294,-12.34566 9.76357,-37.27909 -0.0806,-0.56482 0.24207,-1.04898 0.8069,-1.12966 0.40346,-0.0806 0.88761,0.16138 1.04898,0.48415 l 0,0 c 0,0 0.88761,1.6945 1.69451,4.43797 0.40346,-4.35728 -0.16137,-11.37737 -5.56765,-19.04299 -3.4697,-5.00282 -7.66561,-7.90767 -11.70015,-9.52149 -6.29387,-2.50142 -12.10359,-1.85589 -14.04017,-0.8876 -0.48415,0.24207 -1.12967,0.0806 -1.37174,-0.48414 -0.16139,-0.32276 -0.0806,-0.72621 0.0806,-0.96829 0.40346,-0.64552 4.59937,-6.9394 14.84707,-6.53594 -4.03452,-0.72622 -9.60218,0 -15.73467,5.80972 -0.40346,0.40346 -1.04898,0.40346 -1.45244,-0.0806 -0.24206,-0.24207 -0.32276,-0.56483 -0.24206,-0.8876 l 0,0 c 0,0 0.96828,-4.35729 -3.30832,-9.27943 1.77519,2.58211 3.14693,5.64836 3.14693,8.95668 0,0.16137 0,0.40344 0,0.64552 -0.0807,0.56483 -0.48414,0.96829 -1.04898,0.96829 -0.24207,0 -0.48414,-0.0806 -0.64553,-0.32277 -0.48414,-0.48415 -12.66843,-12.02291 -36.31079,-11.05461 -14.84708,0.64552 -25.98239,6.77801 -29.77486,9.19872 0.9683,0.48415 2.09797,1.21037 2.74349,2.09796 0.32277,0.48415 0.24207,1.04898 -0.24207,1.37174 -0.0806,0.0807 -0.24208,0.16138 -0.40345,0.16138 -0.48416,0.0806 -5.32559,1.37174 -9.27943,4.27661 l 0.0806,-0.0806 c 1.61381,-0.7262 3.30831,-1.29104 5.08351,-1.61381 0.56483,-0.0806 1.04897,0.24208 1.12966,0.80691 0.0807,0.40346 -0.0806,0.8069 -0.40345,0.96829 -0.96829,0.72622 -12.74912,10.00563 -12.82981,22.59338 l 1.12967,-0.80691 c 0.40345,-0.32276 1.04898,-0.24207 1.37174,0.24208 0.16138,0.24206 0.24207,0.48414 0.24207,0.72621 l 0,0 c 0,0 -1.29105,7.58491 2.5821,14.12087 l 1.12967,-0.48414 c 0.56484,-0.24207 1.12967,0.0806 1.29105,0.56483 0.0806,0.0807 0.0806,0.24208 0.0806,0.32276 l 0,0 c 0,0 0.16138,5.72904 3.22763,8.95667 0.16138,0.16137 0.48414,0.40345 1.04898,0.8069 0.32277,0.24207 0.72621,0.48415 1.12966,0.80691 5.48697,-11.45807 2.09796,-21.06027 2.09796,-21.06027 -0.0806,-0.32276 0,-0.72622 0.24208,-0.96828 0.40345,-0.48415 3.14693,-3.38902 12.74911,-6.61664 5.1642,-1.77519 9.76358,-1.37174 14.20158,-0.96829 4.51866,0.40346 8.87596,0.72622 13.31395,-1.29105 9.27942,-4.19591 15.33121,-4.59936 15.33121,-4.59936 0.56484,-0.0807 1.04898,0.40345 1.04898,0.88759 0,0.24208 -0.0806,0.48414 -0.16137,0.64553 -0.80691,1.12967 -1.93659,2.25934 -3.30831,3.30831 7.10076,-3.4697 11.45806,-8.63389 11.53875,-8.71459 0,0 0.0806,-0.0806 0.0806,-0.0806 l 0,0 0,0 c 0.40345,-0.40345 1.04898,-0.40345 1.45243,0 0.32277,0.32277 0.40347,0.72622 0.24208,1.12967 -1.12967,3.38901 0.0806,8.14976 2.09796,12.74912 2.58211,5.64835 6.61664,10.89324 9.76358,12.91051 3.06623,1.8559 5.24489,4.3573 6.53594,7.02009 1.45242,2.90487 1.85588,6.0518 1.21035,8.71459 -0.40345,1.61381 -0.56483,3.38901 -0.56483,5.32558 0,1.53312 0.0806,3.22763 0.32276,5.08351 0.24207,-0.16137 0.40346,-0.32276 0.64553,-0.48413 0.48414,-0.64553 1.12966,-1.21036 1.77519,-1.7752 l 0,0 0,0 z m 1.37175,1.45242 0,0 0,0 c -0.72622,0.64553 -1.45245,1.21037 -2.09796,1.7752 -0.72622,0.56484 -1.37175,1.04898 -2.09796,1.45244 -0.16138,0.0806 -0.32276,0.16138 -0.48415,0.24207 -0.56483,0.0806 -1.04898,-0.32277 -1.12967,-0.8876 -0.32276,-2.58211 -0.48414,-4.84145 -0.48414,-6.9394 0,-2.09796 0.24207,-4.03453 0.64552,-5.72903 0.56484,-2.25934 0.16138,-4.92214 -1.04898,-7.42354 -1.12966,-2.34003 -3.06623,-4.51868 -5.80972,-6.21318 -3.4697,-2.09796 -7.7463,-7.74631 -10.48979,-13.71742 -1.6945,-3.71177 -2.82417,-7.66562 -2.74348,-11.05461 -3.4697,3.22762 -10.48979,8.71458 -19.76921,10.00563 l 0,0 c -0.48415,0.0806 -0.88761,-0.16139 -1.04898,-0.64552 -0.24207,-0.56484 0.0806,-1.12968 0.56483,-1.29106 0,0 5.89042,-2.34002 9.36012,-5.40627 -2.50141,0.48415 -6.69733,1.61381 -12.02291,4.03453 -4.92213,2.25934 -9.5215,1.85589 -14.28224,1.45244 -4.27661,-0.32276 -8.63391,-0.72622 -13.39466,0.8876 -7.82698,2.66279 -10.65117,4.84143 -11.53877,5.64834 0.64553,2.42072 2.74349,12.02292 -2.82416,22.91615 l -0.0806,0.0806 0,0 c 0,0 -0.0806,0.0806 -0.0806,0.0806 -0.32276,0.48415 -0.96828,0.64553 -1.37174,0.32277 -0.8876,-0.56483 -1.61381,-1.04898 -2.17864,-1.45243 -0.64553,-0.48415 -1.04898,-0.80691 -1.29106,-1.04898 -2.50141,-2.6628 -3.38901,-6.69732 -3.63107,-8.87597 l -0.64553,0.24206 c -0.40345,0.24209 -0.96829,0.0806 -1.29105,-0.32276 -3.38901,-5.00281 -3.71178,-10.81255 -3.55039,-13.87879 l -0.8069,0.56483 c -0.16138,0.16138 -0.40347,0.24207 -0.56484,0.24207 -0.56483,0.0806 -1.04898,-0.40345 -1.12967,-0.88759 -0.80691,-10.3284 5.80973,-18.80092 10.16702,-23.15822 l -0.32277,0.0806 c -2.17864,0.96828 -3.95383,1.77519 -4.51867,2.01726 -0.0806,0.16138 -0.24207,0.40345 -0.32276,0.56484 -0.24207,0.48413 -0.8876,0.64552 -1.37174,0.40345 -0.32276,-0.16138 -0.56484,-0.56484 -0.56484,-0.8876 l 0,0 0,0 c 0,-0.16138 0.0806,-0.32276 0.16138,-0.48414 2.90487,-5.24489 9.60219,-7.98838 12.82982,-9.11804 -1.04898,-0.64553 -2.25934,-1.12968 -2.34004,-1.12968 l 0,0 c -0.16137,-0.0806 -0.32275,-0.16138 -0.48413,-0.40345 -0.32276,-0.40345 -0.24208,-1.04897 0.24207,-1.37174 0.0806,0 13.23327,-9.76358 32.43764,-10.48978 19.52714,-0.80691 31.55005,6.69732 35.98803,10.08633 -0.56483,-3.30832 -2.5821,-6.37457 -4.59936,-8.7146 -1.77519,-2.09795 -3.30832,-3.55038 -3.95385,-4.11522 -0.24207,-0.0806 -0.48413,-0.24207 -0.72622,-0.40345 -0.48414,-0.24207 -0.7262,-0.8069 -0.48414,-1.29105 0.16138,-0.40346 0.56484,-0.56483 0.8876,-0.56483 l 0,0 0,0 c 0.16138,0 0.32276,0.0806 0.40346,0.0806 10.40908,5.00282 12.50705,11.45808 12.74912,14.92777 12.74913,-10.32841 23.07754,-1.61382 23.64237,-1.12967 0.32276,0.24207 0.48414,0.72621 0.32276,1.04897 -0.16138,0.56484 -0.72621,0.80692 -1.29105,0.64553 -10.00565,-3.14693 -15.65398,-0.32276 -18.39747,1.93658 3.14693,-0.40345 7.66562,-0.24208 12.34567,1.6945 4.3573,1.6945 8.95666,4.84144 12.66843,10.24771 9.6022,13.79811 4.76075,25.74031 4.76075,25.74031 l 0,0 c -0.16138,0.32277 -0.48414,0.56485 -0.8069,0.64553 -0.24208,0 -0.40346,0 -0.56484,-0.0806 0.0806,19.04299 -10.24771,27.91896 -11.53876,29.04864 l 0,0 z"
       id="path137" />
    <path
       inkscape:connector-curvature="0"
       style="fill:#343433"
       d="m 694.92953,844.30527 c 0.8069,-0.56485 1.69451,-1.21036 2.50141,-1.7752 -2.74348,1.53312 -5.24489,2.50141 -5.24489,2.50141 0.8069,-0.0806 1.61381,-0.24208 2.42071,-0.48414 0.0806,0 0.24208,-0.16139 0.32277,-0.24207 l 0,0 z m 8.6339,-7.0201 c 2.25934,-2.25933 4.11522,-4.84143 5.40628,-7.90768 -3.79246,3.30832 -7.74631,6.61664 -12.10361,9.27943 3.55039,-0.96828 5.97112,-1.29105 6.69733,-1.37175 l 0,0 z m -25.90169,6.1325 c 4.68004,-6.29387 14.04017,-8.31114 16.21881,-16.38021 -8.23045,6.61664 -17.75194,12.1036 -28.48381,14.68571 2.90486,-2.98555 4.03454,-7.02009 5.72905,-10.57048 -5.2449,4.76075 -11.86154,7.26216 -16.4609,12.58773 2.17865,-7.5849 6.21318,-14.60499 13.31395,-18.8816 -16.13812,3.95384 -23.48097,19.76921 -20.65681,34.69699 -7.34284,-2.6628 -7.02007,-13.0719 -4.84144,-18.96232 -4.68005,5.89042 -5.89041,14.04018 -5.00281,21.46372 0,0 0.0806,0.0806 0.0806,0.0806 l 1.93657,-0.8069 c 0,0 0.24209,6.13248 3.46971,9.60218 0.40345,0.40345 1.53312,1.21036 3.30831,2.34002 l 0.0807,-0.0806 c 6.29388,-12.18428 2.66279,-22.75476 2.66279,-22.75476 0,0 2.09796,-2.90487 12.34567,-6.37457 5.80973,-1.93658 11.05464,-0.96828 16.29953,-0.64552 l 0,0 z"
       id="path139" />
    <path
       inkscape:connector-curvature="0"
       style="fill:#4e4e4e"
       d="m 632.07151,848.25911 2.17864,-1.61381 c 0,0 0,0 0,0.0806 1.45244,-6.53595 4.438,-12.74912 9.03736,-17.83263 -6.53594,4.68005 -10.4091,11.70013 -11.216,19.36575 l 0,0 z"
       id="path141" />
    <path
       inkscape:connector-curvature="0"
       style="fill:#4e4e4e"
       d="m 646.99927,817.35459 c 0.56484,0.32276 1.04898,0.72622 1.45244,1.12967 5.56765,-0.80691 11.216,-0.9683 16.78366,-1.6945 -5.64835,-2.17865 -12.34568,-1.29105 -18.2361,0.56483 l 0,0 z"
       id="path143" />
    <path
       inkscape:connector-curvature="0"
       style="fill:#4e4e4e"
       d="m 732.53138,830.50717 c 3.71177,1.61381 7.26216,2.09795 10.89324,2.58209 -5.32559,-5.80972 -11.13531,-11.1353 -17.99401,-14.20155 -0.40346,2.5821 0.32276,5.56765 1.93657,7.42355 -5.32559,-0.56485 -7.74631,-8.55321 -10.73187,-1.12968 0,-1.6945 -0.56484,-2.82417 -1.21036,-4.51868 -0.56483,1.12967 -2.34003,1.69451 -3.55039,2.25934 0,-1.6945 -1.21036,-2.82417 -1.21036,-4.59936 -2.98555,0.56483 -5.32558,3.46969 -8.95666,2.25934 1.7752,-1.69451 1.21036,-4.03454 1.21036,-5.72904 -4.76074,1.6945 -10.73185,1.6945 -15.4926,3.4697 1.77519,-1.69451 4.76075,-2.82417 6.53594,-5.08351 -4.35729,-0.48415 -8.39183,-3.63108 -10.97393,-7.26216 -2.09795,-0.0806 -4.35729,-0.16139 -6.69732,-0.0806 -2.90486,0.16138 -5.72904,0.48414 -8.31115,0.96828 0.0806,0.72622 0.48415,1.45243 1.04898,1.77519 4.27662,2.82418 10.97393,3.14694 12.34568,7.74631 0.72622,3.4697 -2.17865,7.02008 -3.87315,10.57048 5.24489,-4.76075 12.50705,-5.56766 19.043,-6.93939 0.0806,2.90485 1.37173,5.72902 0.24206,8.63388 4.11523,-2.42071 8.31114,-4.84143 12.50705,-5.00281 2.42072,-0.0806 2.01727,5.72903 -0.40345,8.06906 2.98555,-0.0806 4.11523,-4.19591 4.68006,-3.63107 3.71178,2.17863 2.66279,7.42353 5.1642,10.81254 1.12968,-3.46969 0.40347,-7.50423 3.87316,-10.48978 3.79246,5.08351 6.93939,10.16702 10.16702,15.89606 -1.77519,-4.51868 0.48414,-9.19874 -0.24207,-13.7981 l 0,0 z"
       id="path145" />
    <path
       inkscape:connector-curvature="0"
       style="fill:#343433"
       d="m 750.04125,854.31091 c -0.96829,-7.58493 -2.66279,-14.7664 -10.65117,-18.80092 5.72904,10.24771 9.92495,28.64518 -4.35729,34.29353 0.24207,-10.40909 -0.72622,-22.51269 -11.13531,-28.08035 1.37174,5.72903 5.1642,10.81255 4.76075,17.18711 -6.13249,-6.53595 -13.71742,-13.0719 -15.49261,-22.18994 0.16138,8.31114 7.58493,20.01129 12.74912,23.23892 6.05181,3.71176 8.39183,9.84426 7.26216,14.6857 -0.80691,3.389 -0.80691,7.26216 -0.16137,12.42636 1.45242,-0.96829 2.82416,-2.01727 4.11522,-3.14694 0.40345,-0.40345 15.16984,-11.78083 10.24771,-38.32806 0,0 1.93657,3.63108 2.50141,9.11804 0,0 0,-0.16139 0.16138,-0.40345 l 0,0 z m -37.2791,-20.25336 c 0,-0.24206 0,-0.40345 0,-0.64552 -0.0806,0.32276 -0.16137,0.56483 -0.24206,0.88759 l 0.24206,-0.24207 z"
       id="path147" />
  </g>
</svg>
