<?xml version="1.0" encoding="UTF-8" standalone="no"?>
<svg
   xmlns:dc="http://purl.org/dc/elements/1.1/"
   xmlns:cc="http://creativecommons.org/ns#"
   xmlns:rdf="http://www.w3.org/1999/02/22-rdf-syntax-ns#"
   xmlns:svg="http://www.w3.org/2000/svg"
   xmlns="http://www.w3.org/2000/svg"
   viewBox="0 0 248.03751 248.03751"
   height="248.03751"
   width="248.03751"
   xml:space="preserve"
   version="1.1"
   id="svg2"><metadata
     id="metadata8"><rdf:RDF><cc:Work
         rdf:about=""><dc:format>image/svg+xml</dc:format><dc:type
           rdf:resource="http://purl.org/dc/dcmitype/StillImage" /></cc:Work></rdf:RDF></metadata><defs
     id="defs6" /><g
     transform="matrix(1.25,0,0,-1.25,0,248.0375)"
     id="g10"><g
       transform="scale(0.1,0.1)"
       id="g12"><path
         id="path14"
         style="fill:#000000;fill-opacity:1;fill-rule:evenodd;stroke:none"
         d="m 1548.72,1843.5 -848.978,-45.93 0,-1511.715 853.518,-61.23" /><path
         id="path16"
         style="fill:#f7e1ca;fill-opacity:1;fill-rule:evenodd;stroke:none"
         d="m 1560.63,1846.9 -574.306,-94.68 0,-1401.45 578.266,-130.672" /><path
         id="path18"
         style="fill:#f6c492;fill-opacity:1;fill-rule:evenodd;stroke:none"
         d="m 1400.19,1820.25 c 18.43,-11.91 36,-26.07 55.56,-38.82 41.1,-26.09 48.76,-63.5 58.11,-104.32 20.69,-102.91 1.69,-200.98 43.09,-299.06 1.69,-3.96 3.4,-7.94 4.81,-11.91 l -1.13,480.76" /><path
         id="path20"
         style="fill:#000000;fill-opacity:1;fill-rule:evenodd;stroke:none"
         d="m 1559.21,1845.2 c 0,-3.4 3.68,-1619.427 3.68,-1623.126 -4.25,0.852 -572.312,129.262 -574.863,129.832 l 0,1399.184 c 2.832,0.27 567.213,93.54 571.183,94.11 m 1.13,3.12 -574.301,-94.68 c -0.559,-0.28 -1.129,-0.85 -1.129,-1.43 l 0,-1401.437 c 0,-0.566 0.278,-1.136 1.129,-1.418 L 1564.03,218.957 c 0.57,-0.273 1.13,-0.273 1.42,0 0.28,0.289 0.56,0.848 0.56,1.137 l -3.68,1626.796 c 0,0.29 -0.29,0.86 -0.57,1.13 -0.28,0.3 -0.85,0.3 -1.42,0.3" /><path
         id="path22"
         style="fill:#000000;fill-opacity:1;fill-rule:evenodd;stroke:none"
         d="m 644.469,298.047 0,-5.391 1114.301,-90.418 0,5.668 c -222.52,19.563 -912.762,72.282 -1114.301,90.141" /><path
         id="path24"
         style="fill:#f6c492;fill-opacity:1;fill-rule:evenodd;stroke:none"
         d="m 1129.19,417.949 c -35.71,50.461 -112.81,94.692 -79.08,163.281 9.64,16.149 5.66,39.11 0,60.368 -1.71,4.832 -9.36,9.64 -11.06,16.16 -1.99,57.262 -32.03,108 -52.73,160.16 l 0,-467.148 153.37,-34.582 c 7.94,34.3 12.74,71.152 -10.5,101.761" /><path
         id="path26"
         style="fill:#70706f;fill-opacity:1;fill-rule:nonzero;stroke:none"
         d="m 1183.34,1116.41 c -8.22,-23.53 -39.12,-34.58 -69.18,-24.66 -29.76,9.92 -47.04,37.13 -38.83,60.66 8.22,23.53 39.12,34.87 69.17,24.94 29.77,-9.92 47.05,-37.13 38.84,-60.94" /><path
         id="path28"
         style="fill:#afafaf;fill-opacity:1;fill-rule:nonzero;stroke:none"
         d="m 1113.32,1093.73 c -7.37,0 -14.46,1.43 -21.54,3.68 -14.18,4.54 -25.8,13.34 -33.17,24.68 -7.09,11.05 -8.8,23.23 -4.82,34.3 5.67,16.72 23.81,27.49 45.64,27.49 7.09,0 14.46,-1.13 21.54,-3.4 14.18,-4.82 25.8,-13.62 32.89,-24.66 7.37,-11.07 9.07,-23.25 5.09,-34.3 -5.94,-16.72 -23.8,-27.79 -45.63,-27.79" /><path
         id="path30"
         style="fill:#272323;fill-opacity:1;fill-rule:nonzero;stroke:none"
         d="m 1099.43,1182.74 0,0 c 7.09,0 14.18,-1.42 20.98,-3.69 13.88,-4.53 25.5,-13.03 32.3,-24.09 7.09,-10.77 8.81,-22.39 5.11,-33.16 -5.96,-16.16 -23.24,-26.65 -44.5,-26.65 -7.09,0 -14.17,1.13 -21.26,3.4 -13.61,4.82 -25.24,13.32 -32.33,24.38 -6.78,10.77 -8.49,22.39 -4.8,33.16 5.66,16.16 23.23,26.65 44.5,26.65 m 0,2.55 c -21.84,0 -40.82,-10.49 -47.05,-28.35 -8.23,-23.81 9.07,-51.02 38.83,-60.94 7.36,-2.27 15.02,-3.4 22.11,-3.4 21.82,0 40.82,10.49 47.06,28.34 8.23,23.53 -9.08,50.74 -38.84,60.67 -7.66,2.55 -15.02,3.68 -22.11,3.68" /><path
         id="path32"
         style="fill:#ffffff;fill-opacity:1;fill-rule:nonzero;stroke:none"
         d="m 1097.16,1141.93 c -2.82,-7.66 -12.75,-11.35 -22.11,-8.23 -9.64,3.41 -15.3,11.91 -12.47,19.57 2.56,7.64 12.47,11.34 22.11,7.93 9.65,-3.12 15.03,-11.91 12.47,-19.27" /><path
         id="path34"
         style="fill:#000000;fill-opacity:1;fill-rule:nonzero;stroke:none"
         d="m 1088.38,953.137 -30.33,-94.684 104.3,-22.668 -33.16,110.262 c 0,0 21.84,5.387 20.99,24.098 -1.43,37.695 -53.59,58.675 -73.71,33.445 -21.26,-26.363 11.91,-50.453 11.91,-50.453" /><path
         id="path36"
         style="fill:#444343;fill-opacity:1;fill-rule:evenodd;stroke:none"
         d="m 796.406,1481.23 c 0,0 57.539,6.8 66.899,58.11 0,0 -16.16,-10.2 -41.391,-1.42 0,0 40.543,25.8 26.652,68.32 0,0 -32.031,-15.31 -55.558,-3.4 0,0 23.238,25.51 15.308,56.12 0,0 -32.32,-32.03 -113.109,-15.02 -80.781,17.29 -185.949,15.02 -214.582,-22.68 0,0 0.57,30.05 21.262,49.04 0,0 -37.422,-5.95 -39.68,-53.86 0,0 -55,26.65 -86.742,-9.35 0,0 35.14,12.19 63.492,-5.39 0,0 -29.199,-13.6 -41.383,-45.07 -12.187,-31.46 -77.668,-89.86 -154.488,-66.05 0,0 1.129,-44.78 26.93,-62.64 0,0 -14.18,-3.69 -28.071,0.57 0,0 2.84,-31.19 30.332,-49.33 0,0 -11.332,-5.95 -28.339,7.09 0,0 -2.84,-20.41 32.878,-45.07 36,-24.95 38.829,-70.58 105.161,-93.54 66.05,-22.68 424.347,44.22 414.429,233.57" /><path
         id="path38"
         style="fill:#000000;fill-opacity:1;fill-rule:evenodd;stroke:none"
         d="m 313.668,1347.71 c -4.25,0.86 -10.199,-6.51 -14.461,-5.66 21.551,-21.55 45.359,-34.59 75.969,-36.57 -7.367,27.22 -17.571,59.52 -1.699,90.7 -0.848,-42.79 24.101,-108 66.902,-94.95 9.637,2.54 -16.441,24.66 -11.621,45.36 13.039,57.54 63.211,103.46 32.027,161.29 67.75,-52.17 157.043,29.19 193.32,90.71 3.692,-22.11 -3.679,-55.29 4.821,-56.98 43.652,-21.54 116.222,-14.18 141.172,36.57 0,-36.29 -25.231,-63.79 5.66,-94.97 -5.66,-1.41 -9.352,-1.98 -9.352,-1.98 0.571,-11.34 0,-22.39 -1.98,-33.16 -8.219,-4.55 -17.578,-8.8 -26.078,-9.64 2.257,-11.07 6.519,-22.11 10.488,-33.18 -71.719,-131.23 -340.449,-176.87 -396.859,-157.59 -66.329,22.95 -69.161,68.59 -105.161,93.54 -15.589,10.76 -23.808,20.69 -28.347,28.62 20.41,-11.05 41.668,-19.55 65.199,-22.11" /><path
         id="path40"
         style="fill:#5b5b5b;fill-opacity:1;fill-rule:evenodd;stroke:none"
         d="m 808.027,1631.75 c -4.25,-17.01 -15.019,-28.91 -15.019,-28.91 0.558,-0.29 1.129,-0.57 1.699,-0.57 -19.852,-25.51 -46.769,-52.72 -76.539,-33.45 28.348,17.86 67.18,35.72 89.859,62.93" /><path
         id="path42"
         style="fill:#5b5b5b;fill-opacity:1;fill-rule:evenodd;stroke:none"
         d="m 332.371,1430.2 c -17.859,22.96 -44.789,38.84 -71.719,56.14 9.922,-1.43 19.563,-1.7 28.629,-0.86 18.153,-13.6 39.41,-23.25 57.262,-32.32 10.77,-10.77 4.262,37.7 22.109,38.55 27.219,3.13 29.2,-27.21 43.371,-43.07 -2.55,47.9 17.008,95.52 36,139.18 72.848,-48.77 122.18,-7.09 175.469,51.29 17.289,18.16 39.121,-3.4 64.34,-8.5 6.52,-1.41 11.063,4.53 15.031,11.91 14.739,-2.84 27.782,-3.68 39.121,-3.68 -20.98,-18.43 -41.39,-37.43 -53.582,-64.36 -13.039,19.86 -9.918,53.59 -32.031,53.86 -56.976,2.55 -64.348,-69.16 -106.578,-99.48 -36.289,-22.68 -69.73,5.37 -100.922,24.37 -16.437,-52.73 -14.738,-104.59 -22.668,-158.75 -24.66,9.07 -30.621,40.27 -49.039,56.98 -15.031,-27.21 -28.633,-67.46 -67.75,-64.05 24.09,8.22 33.731,32.02 22.957,42.79" /><path
         id="path44"
         style="fill:#5b5b5b;fill-opacity:1;fill-rule:evenodd;stroke:none"
         d="m 319.336,1411.21 c -23.238,-3.4 -43.648,4.25 -62.648,15.31 7.66,0 13.328,1.41 13.328,1.41 -10.211,7.09 -16.731,18.43 -20.411,29.48 21.262,-19.27 38.833,-43.37 69.731,-46.2" /><path
         id="path46"
         style="fill:#000000;fill-opacity:1;fill-rule:evenodd;stroke:none"
         d="m 792.438,1601.98 c -0.282,0 -0.571,0.28 -0.571,0.57 l 0,0.56 c 0,0 0,0.29 0.289,0.57 0,0 11.34,12.47 15.313,30.05 1.41,7.09 1.699,15.02 0,23.24 -7.66,-5.95 -41.672,-29.19 -112.543,-13.89 -83.34,17.58 -185.668,14.18 -213.449,-22.39 -0.282,-0.57 -0.571,-0.57 -1.129,-0.57 -0.289,0.29 -0.571,0.57 -0.571,1.14 0,0 0,5.67 1.7,13.6 2.269,9.92 7.371,22.96 17.289,33.45 -7.649,-1.98 -27.489,-10.2 -33.731,-37.98 -0.847,-4.25 -1.418,-8.79 -1.699,-13.89 l 0,-0.29 c 0,-0.28 -0.277,-0.56 -0.57,-0.56 -0.278,-0.29 -0.848,-0.29 -1.129,-0.29 -0.571,0.29 -51.032,24.1 -82.489,-6.23 10.2,2.83 37.7,7.65 60.379,-6.52 0.282,-0.29 0.571,-0.57 0.571,-0.85 0,-0.57 -0.289,-0.85 -0.571,-1.14 -0.289,0 -29.199,-13.6 -40.82,-44.22 -13.32,-34.58 -79.648,-89.29 -154.488,-67.18 0.277,-6.8 3.398,-44.5 26.359,-60.38 0.289,-0.28 0.57,-0.56 0.57,-1.13 -0.281,-0.28 -0.57,-0.57 -0.851,-0.85 -0.57,0 -13.609,-3.12 -27.211,0.28 1.133,-6.23 6.519,-31.46 29.762,-47.05 0.281,-0.29 0.57,-0.57 0.57,-0.85 l 0,-0.29 c -0.289,-0.28 -0.289,-0.56 -0.57,-0.85 -0.571,0 -11.34,-5.38 -27.782,6.24 0.282,-5.39 3.692,-22.39 32.321,-42.24 13.89,-9.63 22.672,-21.82 32.031,-34.86 15.59,-21.83 31.75,-44.22 72.848,-58.4 42.519,-14.74 222.23,8.79 331.652,88.16 43.367,31.18 69.449,66.62 78.238,105.73 2.832,12.48 3.973,25.23 3.403,38.55 l 0,0.29 c 0,0.28 0.277,0.57 0.847,0.85 0.571,0 54.43,6.8 65.199,53.86 l 0,1.13 c -4.82,-2.27 -19.277,-7.65 -40.257,-0.57 -0.282,0.29 -0.563,0.57 -0.563,0.85 l 0,0.57 c 0,0.28 0.281,0.28 0.563,0.57 0.289,0.28 22.121,14.45 27.781,38.83 1.707,8.22 1.707,17.29 -1.41,27.22 -5.961,-2.56 -33.742,-13.89 -55.281,-2.84 m 16.16,58.11 c 0.281,0 0.57,-0.28 0.57,-0.85 2.551,-9.07 1.98,-18.14 0.277,-25.79 -3.398,-15.31 -11.91,-26.65 -14.738,-30.05 22.68,-10.49 53.012,3.68 53.289,3.97 l 0.852,0 c 0.281,-0.29 0.57,-0.29 0.847,-0.57 3.403,-11.06 3.403,-20.98 1.422,-29.48 -4.82,-21.26 -21.539,-35.15 -26.929,-39.12 23.531,-7.09 38.269,1.99 38.55,1.99 0.278,0.28 0.848,0.28 1.129,0 0.289,-0.29 0.571,-0.57 0.571,-1.14 -0.282,-0.85 -0.571,-1.98 -0.852,-3.12 -10.199,-45.35 -58.68,-54.42 -66.051,-55.56 0.57,-13.03 -0.277,-25.79 -3.109,-37.98 -9.078,-39.68 -35.438,-75.68 -79.09,-107.15 -109.988,-79.65 -291.117,-103.18 -333.918,-88.44 -41.672,14.17 -58.68,38.27 -73.992,59.24 -9.071,12.76 -17.848,24.95 -31.18,34.3 -36,24.95 -33.449,45.36 -33.449,46.21 0.289,0.28 0.289,0.56 0.851,0.85 0.29,0 0.571,0 1.137,-0.29 12.473,-9.63 21.82,-8.5 25.231,-7.65 -25.797,18.43 -29.2,48.76 -29.2,49.04 l 0,0.28 c 0,0.29 0.282,0.57 0.571,0.57 0.281,0.28 0.558,0.28 0.851,0.28 10.481,-3.4 21.258,-1.98 25.508,-1.13 -24.098,18.71 -25.801,60.09 -25.801,62.08 0.293,0.28 0.293,0.57 0.571,0.85 0.281,0 0.57,0.28 0.851,0 79.371,-24.38 142.578,37.7 153.071,65.48 10.488,27.21 33.73,41.1 40.25,44.79 -27.211,15.59 -60.661,4.53 -60.942,4.25 -0.57,0 -0.848,0 -1.141,0.28 -0.277,0.57 -0.277,1.14 0,1.42 29.493,33.45 78.813,13.61 86.743,10.2 0.289,4.54 0.859,8.79 1.711,12.76 7.929,35.43 38.257,40.54 38.546,40.54 0.563,0.28 0.852,0 1.133,-0.57 0.278,0 0.278,-0.28 0.278,-0.57 -0.278,-0.28 -0.278,-0.28 -0.559,-0.56 -11.34,-10.49 -16.441,-24.67 -18.711,-34.87 -1.141,-4.54 -1.418,-7.94 -1.699,-10.49 30.609,35.15 131.238,38.27 213.449,20.98 79.082,-17.01 111.68,14.45 111.973,14.74 0.277,0.28 0.558,0.28 1.129,0.28" /><path
         id="path48"
         style="fill:#f6d4b3;fill-opacity:1;fill-rule:evenodd;stroke:none"
         d="m 771.742,1538.2 c 0,0 54.141,-46.2 56.129,-117.64 2.262,-71.43 -11.906,-82.2 18.422,-117.35 30.328,-34.87 31.18,-138.62 -73.422,-190.49 -39.957,-19.56 -75.398,-24.66 -102.328,-32.6 -43.93,-13.04 -70.012,-25.79 -92.691,-66.33 -36.278,-65.196 -80.5,44.22 -101.477,94.39 -20.98,49.89 -46.773,79.37 -49.043,101.48 0,0 -37.699,-11.9 -64.348,12.76 -26.929,24.66 -7.929,86.17 27.778,79.09 0,0 23.25,-40.82 70.871,-28.35 0,0 -21.828,35.72 -20.41,86.17 1.422,50.46 54.711,54.43 43.09,112.54 0,0 107.71,24.38 141.449,63.78 0,0 68.031,-33.73 145.98,2.55" /><path
         id="path50"
         style="fill:#f6c492;fill-opacity:1;fill-rule:evenodd;stroke:none"
         d="m 437.258,1228.66 c -2.551,-51.02 47.906,-82.49 83.058,-102.33 45.629,-29.48 98.918,-49.61 152.5,-44.5 -43.371,-15.6 -72.281,-27.5 -94.961,-68.04 -36.289,-65.188 -80.507,44.22 -101.48,94.4 -20.98,49.89 -46.77,79.37 -49.039,101.48 0,0 -4.82,-1.42 -11.91,-2.27 8.789,4.54 16.16,11.34 21.832,21.26" /><path
         id="path52"
         style="fill:#f6c492;fill-opacity:1;fill-rule:evenodd;stroke:none"
         d="m 676.781,1503.91 c -17.859,-0.86 -39.398,20.69 -45.64,13.32 -37.129,-27.21 -99.207,-27.78 -121.887,-49.04 -8.5,-9.07 -17.293,-18.42 -25.512,-28.34 2.551,8.5 3.121,18.99 0.571,32.03 0,0 107.71,24.38 141.449,63.78 0,0 68.031,-33.73 145.98,2.55 0,0 14.738,-12.76 29.481,-35.16 -35.153,23.25 -77.102,11.34 -124.442,0.86" /><path
         id="path54"
         style="fill:#000000;fill-opacity:1;fill-rule:evenodd;stroke:none"
         d="m 265.762,1386.84 c 5.949,-6.8 20.41,-15.02 24.379,-16.72 -3.399,0.84 -15.59,4.52 -26.36,15.02 -13.328,13.04 -16.16,24.09 -17.008,25.23 1.129,-1.14 7.649,-12.76 18.989,-23.53" /><path
         id="path56"
         style="fill:#000000;fill-opacity:1;fill-rule:evenodd;stroke:none"
         d="m 424.785,1634.87 c 24.379,-3.97 39.399,-17.86 38.551,-18.43 2.269,1.99 -21.832,19.85 -37.981,20.7 -24.66,4.82 -44.789,1.7 -44.789,1.98 0,-0.57 16.161,0.57 44.219,-4.25" /><path
         id="path58"
         style="fill:#000000;fill-opacity:1;fill-rule:evenodd;stroke:none"
         d="m 784.504,1596.6 c 10.769,6.8 19.84,25.8 22.109,32.6 -1.133,-5.95 -5.101,-21.83 -20.41,-34.58 -20.691,-15.59 -37.133,-14.74 -40.25,-15.03 3.117,0.85 22.11,3.12 38.551,17.01" /><path
         id="path60"
         style="fill:#000000;fill-opacity:1;fill-rule:evenodd;stroke:none"
         d="m 364.688,1295 c 6.8,6.52 16.16,9.91 26.359,7.93 l 0.57,-0.29 0.281,-0.28 0.29,-0.27 c 0.851,-1.43 4.531,-7.38 11.332,-13.61 6.808,-6.25 16.449,-12.77 29.199,-15.32 7.937,-1.41 16.73,-1.7 26.929,0.86 -4.25,7.37 -20.98,40.53 -19.839,85.32 0.281,4.54 0.847,8.79 1.699,12.75 3.68,15.59 12.469,26.36 21.262,36.86 8.789,10.21 17.289,20.41 20.41,34.59 1.699,7.64 1.976,16.71 -0.293,28.05 l -0.278,1.14 1.418,0.29 c 0,0 1.7,0.28 4.532,1.12 10.488,2.56 37.418,9.65 65.199,20.41 27.781,10.77 56.41,24.95 70.871,41.95 l 0.848,0.86 0.851,-0.56 c 0,0 0.281,0 0.559,-0.3 2.84,-1.12 15.031,-6.52 33.453,-10.2 26.93,-5.39 67.18,-7.09 110.84,13.04 l 0.566,0.29 0.852,-0.58 c 0,0 54.699,-46.48 56.691,-118.48 1.129,-35.71 -1.992,-56.41 -1.422,-72.28 0.281,-7.95 1.422,-14.47 4.25,-21.54 2.84,-6.82 7.66,-13.89 15.313,-22.68 14.738,-17.02 22.109,-47.62 14.738,-80.8 -8.219,-36 -33.73,-84.47 -88.719,-111.68 -52.441,-25.79 -92.98,-27.5 -123.59,-39.68 -1.421,-0.57 -6.242,-2.84 -7.66,-3.41 -0.851,0.86 -0.851,1.43 -1.703,1.7 1.992,0.85 6.242,3.12 8.223,3.98 31.179,12.46 71.148,13.89 123.59,39.68 54.429,26.94 79.371,74.55 87.308,109.98 7.371,32.32 -0.277,62.36 -14.461,78.52 -7.648,8.8 -12.468,16.16 -15.59,23.53 -4.527,10.77 -4.82,21.27 -4.25,35.43 0.571,14.18 1.981,32.61 1.422,59.25 -1.14,35.43 -15.031,64.34 -28.922,84.75 -6.796,10.22 -13.597,18.14 -18.699,23.54 -2.558,2.82 -4.539,4.82 -5.961,6.23 -0.847,0.57 -1.41,1.14 -1.699,1.41 -43.937,-19.84 -84.469,-18.14 -111.68,-12.75 -18.148,3.41 -30.328,8.79 -33.738,10.2 -17.57,-19.56 -52.441,-35.15 -83.332,-46.2 -27.219,-9.64 -51.309,-15.59 -56.98,-17 1.98,-10.77 1.98,-20.14 0,-27.79 -3.399,-15.03 -12.188,-25.23 -20.981,-35.71 -8.5,-10.2 -17.289,-20.7 -20.687,-35.71 -0.852,-3.7 -1.422,-7.95 -1.422,-12.2 -0.848,-24.95 4.25,-46.48 9.64,-61.52 2.551,-7.64 5.102,-13.59 7.09,-17.84 1.129,-2 1.981,-3.69 2.551,-4.55 0.281,-0.57 0.281,-1.13 0.57,-1.41 l 0.282,-0.29 0.847,-1.41 -1.699,-0.57 c -11.34,-2.84 -20.98,-2.84 -29.77,-1.14 -14.171,2.84 -24.941,10.5 -32.031,17.3 -5.668,5.66 -9.07,10.77 -10.199,12.48 -9.07,1.7 -17.012,-1.43 -23.25,-7.37 -6.52,-5.97 -11.328,-15.04 -13.602,-24.95 -3.687,-16.16 -0.847,-34.02 10.774,-44.5 8.789,-8.23 18.707,-12.19 28.058,-14.18 9.36,-1.71 18.141,-1.41 24.379,-0.57 3.403,0.57 5.95,0.86 7.653,1.41 1.136,0.29 1.699,0.29 2.269,0.57 l 0.571,0 0,0.29 1.699,0.29 0,-1.43 c 1.418,-10.77 8.219,-23.52 17.57,-39.97 3.688,-6.52 10.207,-17.57 14.457,-25.5 -0.848,-0.28 -1.418,-0.28 -2.269,-0.57 -4.25,7.66 -10.77,18.43 -14.45,24.95 -9.07,15.59 -15.879,28.05 -17.578,39.12 -4.531,-1.14 -18.711,-4.27 -34.859,-1.14 -9.934,1.98 -20.133,6.23 -29.481,14.73 -12.191,11.34 -15.031,30.34 -11.339,46.77 2.257,10.5 7.078,19.86 14.168,26.66" /><path
         id="path62"
         style="fill:#fdfdfd;fill-opacity:1;fill-rule:evenodd;stroke:none"
         d="m 618.105,1395.05 c 0,0 -28.351,12.19 -49.609,-8.78 -21.262,-20.7 -19.84,-72 -2.832,-96.95 0,0 45.07,14.17 69.731,17.29 0,0 3.402,75.68 -17.29,88.44" /><path
         id="path64"
         style="fill:#000000;fill-opacity:1;fill-rule:evenodd;stroke:none"
         d="m 559.711,1320.5 c -0.57,-13.32 7.652,-24.38 18.43,-24.66 10.48,0 19.55,10.49 20.121,23.81 0.57,13.04 -7.649,24.09 -18.141,24.38 -10.769,0.28 -19.84,-10.21 -20.41,-23.53" /><path
         id="path66"
         style="fill:#fdfdfd;fill-opacity:1;fill-rule:evenodd;stroke:none"
         d="m 568.785,1310.02 c -0.281,-5.11 2.828,-9.07 6.801,-9.36 3.969,0 7.367,3.97 7.656,8.79 0,5.1 -2.84,9.35 -6.808,9.35 -4.25,0 -7.649,-3.96 -7.649,-8.78" /><path
         id="path68"
         style="fill:#fdfdfd;fill-opacity:1;fill-rule:evenodd;stroke:none"
         d="m 732.91,1395.91 c 0,0 17.86,18.71 41.668,1.42 24.094,-17.29 7.371,-71.72 7.371,-71.72 0,0 -30.328,-1.13 -44.789,-9.35 0,0 -16.16,52.72 -4.25,79.65" /><path
         id="path70"
         style="fill:#000000;fill-opacity:1;fill-rule:evenodd;stroke:none"
         d="m 732.344,1340.91 c -0.852,-10.77 4.82,-19.56 13.039,-20.13 7.941,-0.56 15.019,7.66 15.871,18.43 0.851,10.49 -4.82,19.56 -13.039,19.84 -7.93,0.57 -15.02,-7.65 -15.871,-18.14" /><path
         id="path72"
         style="fill:#fdfdfd;fill-opacity:1;fill-rule:evenodd;stroke:none"
         d="m 736.598,1332.7 c -0.282,-4.54 2.269,-8.22 5.39,-8.5 3.399,0 6.52,3.39 6.797,7.64 0.281,4.55 -1.988,8.23 -5.387,8.5 -3.402,0.3 -6.23,-3.39 -6.8,-7.64" /><path
         id="path74"
         style="fill:#000000;fill-opacity:1;fill-rule:evenodd;stroke:none"
         d="m 695.492,1306.05 c 0,0 36,17.57 35.723,-24.09 0,0 8.219,20.41 -6.242,29.19 -14.739,8.51 -25.508,0.85 -29.481,-5.1" /><path
         id="path76"
         style="fill:#000000;fill-opacity:1;fill-rule:nonzero;stroke:none"
         d="m 600.723,1462.13 c -4.02,1.25 -8.981,1.94 -13.961,1.94 -6.399,0 -18.321,-1.19 -26.309,-9.27 -5.09,-5.15 -7.629,-12.09 -7.539,-20.65 0.008,-1.22 0.867,-2.25 2.051,-2.47 0.168,-0.04 0.34,-0.05 0.5,-0.05 1.008,0 1.937,0.59 2.34,1.55 0.078,0.18 7.566,17.34 28.027,17.34 7.473,0 15.852,-2.27 24.91,-6.73 0.711,-0.34 1.531,-0.34 2.242,0 0.707,0.34 1.219,1 1.379,1.76 0.032,0.11 2.289,11.69 -13.64,16.58" /><path
         id="path78"
         style="fill:#000000;fill-opacity:1;fill-rule:nonzero;stroke:none"
         d="m 755.52,1468.04 c -5.731,0 -11.872,-1.43 -16.454,-3.84 -9.847,-5.32 -9.707,-14.02 -8.257,-17.88 0.289,-0.77 0.929,-1.35 1.718,-1.56 0.77,-0.21 1.629,-0.04 2.27,0.47 7.66,6.2 15.101,9.35 22.101,9.35 14.77,0 23.34,-14.18 23.418,-14.33 0.473,-0.79 1.321,-1.25 2.204,-1.25 0.296,0 0.609,0.05 0.91,0.17 1.16,0.44 1.828,1.66 1.59,2.88 -4.704,23.46 -22.204,25.99 -29.5,25.99" /><path
         id="path80"
         style="fill:#000000;fill-opacity:1;fill-rule:nonzero;stroke:none"
         d="m 618.648,1397.6 c -9.351,4.3 -21.132,5.6 -30.589,3.68 -19.293,-2.14 -33.774,-22.12 -36.774,-35.61 -11.707,-44.02 11.781,-77.25 12.024,-77.56 0.308,-0.41 0.859,-0.85 1.418,-1.12 l -0.008,-0.03 c 0.136,-0.06 0.297,-0.11 0.457,-0.14 0.172,-0.05 0.332,-0.07 0.48,-0.07 0.371,0 0.742,0.08 1.071,0.23 0.492,0.22 0.921,0.59 1.199,1.05 0.793,1.34 0.222,2.38 -0.649,3.95 -13.699,24.89 -11.558,52.38 -7.351,71.04 4.39,19.09 21.902,31.49 35.711,32.05 8.16,0.65 14.879,-0.2 21.172,-2.29 0.257,-0.09 1.019,-0.28 1.289,-0.28 l 0,0.01 0.121,0 c 1.386,0.06 2.629,1.22 2.59,2.61 -0.032,1.31 -0.903,2.37 -2.161,2.48" /><path
         id="path82"
         style="fill:#000000;fill-opacity:1;fill-rule:nonzero;stroke:none"
         d="m 775.523,1402.79 c -5.23,3.82 -11.261,5.76 -17.921,5.76 -13.25,0 -26.629,-8.09 -27.34,-11.91 -0.219,-1.21 0.582,-2.68 1.742,-3.12 0.816,-0.32 1.75,-0.17 2.437,0.35 0.821,0.48 11.282,6.39 22.372,6.39 5.281,0 9.789,-1.39 13.441,-4.16 9.797,-7.05 19.418,-24.42 9.617,-67.13 l -0.129,-0.53 c -0.301,-1.34 0.52,-2.69 1.86,-3.04 0.211,-0.05 0.421,-0.08 0.628,-0.08 1.114,0 2.133,0.73 2.454,1.85 0.218,0.76 0.507,1.71 0.859,2.84 4.09,13.21 16.551,53.4 -10.02,72.78" /><path
         id="path84"
         style="fill:#000000;fill-opacity:1;fill-rule:evenodd;stroke:none"
         d="m 562.551,1287.62 c 18.707,4.54 34.297,-0.57 34.019,-0.85 0.848,1.42 -22.402,7.65 -34.59,3.68 -19.562,-4.25 -32.312,-14.74 -32.601,-14.17 0.289,-0.85 11.34,6.52 33.172,11.34" /><path
         id="path86"
         style="fill:#000000;fill-opacity:1;fill-rule:evenodd;stroke:none"
         d="m 787.336,1327.02 c 11.34,2.55 20.977,-1.42 20.977,-1.13 0.281,0.56 -13.61,6.23 -21.547,3.4 -12.75,-3.12 -17.864,-13.89 -17.864,-13.33 0.293,-0.56 5.391,7.09 18.434,11.06" /><path
         id="path88"
         style="fill:#843e2d;fill-opacity:1;fill-rule:evenodd;stroke:none"
         d="m 605.918,1236.88 c 0,0 -9.07,-71.72 67.75,-89.29 76.531,-17.58 110.551,88.72 100.629,112.53 -0.289,0 -103.469,26.08 -168.379,-23.24" /><path
         id="path90"
         style="fill:#000000;fill-opacity:1;fill-rule:evenodd;stroke:none"
         d="m 607.051,1236.31 c -0.571,-4.82 -5.668,-71.15 66.898,-87.87 34.582,-7.94 58.114,10.2 72,26.93 15.301,18.42 24.383,42.52 27.781,60.94 1.7,9.92 1.411,18.14 -0.289,22.96 -5.949,1.42 -104.308,24.1 -166.39,-22.96 m 167.242,24.95 c 0.566,-0.29 0.566,-0.29 0.848,-0.57 5.961,-14.18 -3.11,-56.98 -27.782,-86.74 -14.168,-17.01 -38.257,-35.72 -73.976,-27.5 -76.82,17.58 -68.602,89.86 -68.313,90.43 0,0.28 0,0.56 0.282,0.85 64.347,49.04 168.089,23.81 168.941,23.53" /><path
         id="path92"
         style="fill:#000000;fill-opacity:1;fill-rule:nonzero;stroke:none"
         d="m 609.48,1234.95 c -0.75,-9.04 -2.976,-68.34 65.043,-84.02 26.54,-6.07 50.168,2.83 69.457,26.07 13.043,15.7 23.223,38.05 27.243,59.78 1.39,8.11 1.461,15.56 0.218,20.34 -6.418,1.43 -30.48,6.3 -59.859,6.3 -42.34,0 -76.68,-9.57 -102.102,-28.47 m 80.883,-93.04 c -5.691,0 -11.601,0.69 -17.55,2.06 -29.86,6.83 -50.731,22.42 -62.02,46.33 -9.91,21.01 -8.941,41.53 -8.23,46.58 l -0.04,0 c 0,0.45 0,1.62 1.028,2.65 26.679,20.38 64.062,31.02 108.34,31.02 35.679,0 63.019,-6.81 63.222,-6.87 1.02,-0.49 1.289,-0.63 1.84,-1.19 0.231,-0.23 0.418,-0.5 0.551,-0.81 6.207,-14.79 -2.883,-58.82 -28.172,-89.35 -16.82,-20.19 -36.66,-30.42 -58.969,-30.42" /><path
         id="path94"
         style="fill:#fdfdfd;fill-opacity:1;fill-rule:evenodd;stroke:none"
         d="m 766.641,1242.84 c -3.969,-4.82 -7.942,5.1 -7.942,5.1 0,0 -62.359,5.39 -117.066,-13.04 -18.141,-5.95 -28.91,-9.63 -35.711,-11.34 -0.57,7.94 0,13.33 0,13.33 56.687,43.08 142.578,28.63 163.551,24.38 0.566,-5.39 0.847,-13.04 -2.832,-18.43" /><path
         id="path96"
         style="fill:#000000;fill-opacity:1;fill-rule:evenodd;stroke:none"
         d="m 607.051,1236.31 c -0.281,-1.13 -0.571,-5.39 -0.281,-11.34 7.082,1.7 17.851,5.39 34.582,10.77 54.14,18.14 117.07,13.33 117.64,13.33 0.278,0 0.559,-0.29 0.848,-0.57 0.851,-2.27 2.551,-5.67 4.25,-5.95 0.281,0 0.851,0 1.703,1.13 1.418,1.98 2.27,4.25 2.547,6.8 0.57,3.4 0.57,6.81 0.281,9.92 -24.941,5.11 -106.578,17.58 -161.57,-24.09 m 162.711,25.8 c 0.281,0 0.57,-0.29 0.847,-0.85 0.571,-5.67 0.571,-13.61 -3.117,-19 l -0.281,0 c -1.141,-1.7 -2.551,-1.7 -3.398,-1.7 -3.122,0.29 -5.114,5.1 -5.672,6.52 -5.961,0.29 -64.918,3.97 -116.219,-13.32 -17.582,-5.67 -28.922,-9.36 -35.723,-11.06 -0.277,-0.28 -0.566,0 -0.847,0 -0.282,0.29 -0.571,0.57 -0.571,0.85 -0.558,7.94 0.289,13.33 0.289,13.33 0,0.28 0,0.56 0.282,0.85 56.128,42.8 140.031,29.48 164.41,24.38" /><path
         id="path98"
         style="fill:#000000;fill-opacity:1;fill-rule:nonzero;stroke:none"
         d="m 609.41,1234.9 c -0.121,-1.17 -0.25,-3.44 -0.199,-6.65 5.098,1.4 11.867,3.6 20.637,6.45 l 10.722,3.48 c 34.59,11.59 72.539,14.02 98.278,14.02 7.16,0 14.062,-0.2 19.953,-0.56 1.527,-0.02 2.379,-0.88 2.84,-1.33 0.257,-0.26 0.457,-0.57 0.589,-0.91 0.618,-1.65 1.309,-2.9 1.829,-3.65 1.019,1.61 1.55,3.21 1.75,5.02 0.402,2.4 0.531,4.9 0.41,7.52 -11.008,2.16 -31.289,5.35 -54.91,5.35 -42,0 -76.27,-9.67 -101.899,-28.74 m -3.492,-14.87 c -0.27,0 -0.828,0.11 -1.09,0.19 -0.68,0 -0.801,0.21 -1.277,0.68 -0.461,0.46 -1.313,1.32 -1.313,2.66 -0.578,7.95 0.27,13.49 0.313,13.72 -0.031,0.05 -0.031,1.22 1,2.26 27.168,20.75 63.226,31.15 107.437,31.15 26.313,0 48.442,-3.81 59.289,-6.08 0.543,0.04 1.692,-0.35 2.621,-2.22 0.129,-0.27 0.219,-0.57 0.25,-0.88 0.891,-8.97 -0.3,-15.93 -3.55,-20.68 -0.239,-0.35 -0.559,-0.63 -0.918,-0.82 -1.801,-1.99 -3.992,-1.99 -4.871,-1.99 -3.02,0.26 -5.442,2.48 -7.379,6.6 -3.02,0.15 -9.379,0.44 -17.891,0.44 -25.148,0 -62.191,-2.38 -95.801,-13.71 l -2.89,-0.94 c -15.797,-5.09 -26.289,-8.48 -32.821,-10.12 -0.367,-0.16 -0.769,-0.26 -1.109,-0.26" /><path
         id="path100"
         style="fill:#ba3b31;fill-opacity:1;fill-rule:evenodd;stroke:none"
         d="m 649.855,1209.95 c 0,0 60.09,11.05 77.387,-53.01 -14.738,-9.64 -32.597,-14.17 -53.578,-9.35 -54.988,12.47 -65.762,52.72 -67.75,74.55 14.738,2.83 33.449,2.27 43.941,-12.19" /><path
         id="path102"
         style="fill:#000000;fill-opacity:1;fill-rule:evenodd;stroke:none"
         d="m 649.004,1209.1 c -10.77,15.31 -30.328,14.46 -41.949,12.19 2.258,-22.39 13.597,-60.66 66.89,-72.85 18.707,-4.25 36.289,-1.14 51.879,9.07 -17.011,61.23 -75.121,51.31 -75.691,51.31 -0.559,0 -0.848,0 -1.129,0.28 m 1.129,1.7 c 4.262,0.85 61.23,8.5 77.961,-53.57 0.281,-0.57 0,-0.85 -0.289,-1.14 -16.442,-10.77 -34.86,-14.17 -54.422,-9.64 -55.278,12.76 -66.617,52.73 -68.32,75.69 0,0.57 0.292,1.13 0.851,1.13 11.629,2.27 32.602,3.69 44.219,-12.47" /><path
         id="path104"
         style="fill:#000000;fill-opacity:1;fill-rule:evenodd;stroke:none"
         d="m 646.453,1211.37 c 5.391,-5.67 4.543,-13.61 4.543,-13.32 0.559,-0.29 2.258,10.77 -2.562,15.02 -6.231,6.8 -13.887,6.52 -13.598,6.8 -0.289,-0.28 5.379,-1.98 11.617,-8.5" /><path
         id="path106"
         style="fill:#b3b5ba;fill-opacity:1;fill-rule:evenodd;stroke:none"
         d="m 1014.96,903.809 c 29.47,16.718 9.64,46.199 17.29,66.05 6.24,14.45 14.46,28.34 24.1,41.951 l -56.991,-0.28 c -18.418,-31.741 -37.968,-62.651 -56.117,-94.671 l 1.981,0 0,-72.011 c 21.547,20.422 41.668,42.242 69.737,58.961" /><path
         id="path108"
         style="fill:#f6d6b5;fill-opacity:1;fill-rule:evenodd;stroke:none"
         d="m 945.227,849.668 c 22.109,17.859 39.968,32.602 46.199,37.711 18.434,15.578 34.024,39.391 32.324,57.25 -1.7,18.148 13.89,43.949 23.23,53.578 9.36,9.923 2.27,24.093 2.27,24.093 0,0 7.95,18.71 -3.68,20.69 0,0 -4.53,9.36 -18.14,5.67 0,0 -3.11,5.1 -17.29,0.29 -7.09,-2.56 -19.843,-8.79 -26.644,-15.31 -8.512,-8.22 -18.992,-19.28 -29.48,-33.734 -10.211,-14.457 -14.461,-72.558 -22.403,-83.058 l 13.614,0" /><path
         id="path110"
         style="fill:#f6c492;fill-opacity:1;fill-rule:evenodd;stroke:none"
         d="m 1007.3,917.422 c -18.136,-18.988 -39.116,-39.399 -62.073,-57.27 l 0,-10.48 c 22.109,17.859 39.968,32.59 46.207,37.691 18.426,15.598 33.996,39.41 32.316,57.27 -1.7,18.129 13.89,43.93 23.25,53.578 5.66,5.949 5.38,13.319 4.25,18.139 -35.73,-55.287 -51.04,-56.69 -43.95,-98.928" /><path
         id="path112"
         style="fill:#000000;fill-opacity:1;fill-rule:evenodd;stroke:none"
         d="m 1009.57,1050.64 c -6.8,-2.26 -20.129,-8.5 -27.5,-15.59 -11.332,-11.05 -20.968,-22.39 -29.48,-34.3 -5.949,-7.934 -9.629,-27.773 -13.32,-47.047 -2.829,-15.598 -5.95,-31.75 -9.348,-36 -0.293,-0.289 -0.57,-0.566 -0.852,-0.859 l 4.821,0 c 3.679,5.961 6.23,20.133 9.347,36 3.403,18.152 7.09,38.562 12.473,45.929 8.508,11.907 18.141,22.677 29.199,33.727 6.531,6.23 19.27,12.48 26.08,14.75 11.9,3.96 15.03,0.57 15.03,0.57 0.56,-0.57 1.41,-1.14 1.98,-0.86 11.62,3.11 15.59,-4.26 15.87,-4.53 0,-0.57 0.57,-1.13 1.13,-1.13 1.99,-0.3 3.12,-1.14 3.97,-2.28 2.55,-4.25 -0.28,-13.04 -1.42,-16.16 -0.27,-0.56 -0.27,-0.84 0,-1.41 0,0 6.52,-13.04 -1.98,-21.825 -9.07,-9.359 -25.79,-36 -23.81,-55 1.7,-17.852 -14.74,-41.66 -31.748,-55.84 l -3.403,-2.832 c -15.019,-12.476 -28.91,-23.808 -41.39,-33.738 l 0,-4.809 c 13.609,10.77 28.351,22.668 43.941,35.707 l 3.399,2.84 c 15.881,13.043 32.031,34.582 33.171,53.57 l 0,5.391 c -0.29,1.422 -0.29,3.121 -0.29,4.82 1.14,17 14.75,38.832 22.96,47.34 3.69,3.966 5.12,8.226 5.39,12.176 0.28,5.96 -1.7,11.34 -2.55,13.05 0.57,1.41 2.28,5.66 2.55,10.2 0,2.84 -0.27,5.95 -1.42,8.23 -1.41,1.97 -3.11,3.11 -5.38,3.68 -1.42,2.27 -6.8,9.07 -18.71,6.23 -1.99,1.7 -7.09,3.97 -18.71,0" /><path
         id="path114"
         style="fill:#000000;fill-opacity:1;fill-rule:evenodd;stroke:none"
         d="m 1003.61,985.168 c -2.55,0.277 2.83,16.152 15.88,31.752 12.19,15.59 24.67,27.21 25.79,26.36 1.43,-1.42 -10.21,-12.19 -21.83,-27.78 -11.89,-15.02 -18.71,-30.332 -19.84,-30.332" /><path
         id="path116"
         style="fill:#000000;fill-opacity:1;fill-rule:evenodd;stroke:none"
         d="m 1018.93,982.617 c -2.27,0.571 2.27,11.34 11.34,22.113 8.78,10.49 17.57,18.71 18.99,17.58 1.42,-1.14 -7.09,-7.66 -15.59,-18.43 -8.22,-10.493 -13.62,-21.544 -14.74,-21.263" /><path
         id="path118"
         style="fill:#000000;fill-opacity:1;fill-rule:evenodd;stroke:none"
         d="m 985.762,988.848 c -3.121,0.582 2.832,17.012 15.588,32.602 12.47,16.16 25.8,28.06 26.93,26.93 1.42,-1.14 -11.06,-11.61 -22.96,-27.5 -11.91,-15.58 -18.988,-31.45 -19.558,-32.032" /><path
         id="path120"
         style="fill:#000000;fill-opacity:1;fill-rule:evenodd;stroke:none"
         d="m 970.172,989.98 c -3.973,0.282 1.699,17.02 13.891,31.75 11.91,15.87 25.797,27.79 27.207,26.64 1.41,-1.12 -11.911,-12.47 -23.239,-28.34 -11.34,-15.03 -17.859,-29.202 -17.859,-30.05" /><path
         id="path122"
         style="fill:#000000;fill-opacity:1;fill-rule:evenodd;stroke:none"
         d="m 350.801,653.516 c 0,0 -33.168,-50.461 -15.59,-140.032 0,0 -14.168,-14.75 -1.981,-36.007 0,0 1.981,-35.719 -10.488,-89.582 -12.191,-53.559 -30.902,-156.457 -34.301,-168.079 -3.691,-11.339 -17.582,-19.289 -15.878,-30.898 1.699,-11.352 5.386,-22.691 5.386,-22.691 0,0 -7.09,-3.391 -8.789,-21.25 -1.699,-17.86 80.223,-48.7504 151.66,-64.9223 71.43,-16.4297 116.782,17.8594 126.993,32.3323 10.488,14.73 -12.192,27.781 -12.192,27.781 0,0 17.57,24.367 10.488,42.227 -6.808,18.132 -20.976,34.293 -17.289,60.382 3.403,26.071 43.082,111.969 45.922,150.797 0,0 42.801,-79.078 35.149,-123.019 -7.942,-44.231 -20.981,-75.981 -10.489,-95.239 10.489,-19.558 28.629,-14.742 31.18,-26.941 2.828,-12.18 -28.633,-22.109 -10.492,-43.93 18.43,-22.1091 83.621,-43.9489 128.133,-46.4997 44.5,-2.5508 115.078,46.4997 130.668,80.4997 15.589,34.313 -23.52,58.68 -23.52,58.68 0,0 31.18,56.992 8.219,87.32 -3.688,5.102 -5.668,11.621 -8.508,15.582 -1.699,2.278 -5.949,5.957 -7.371,8.231 -13.891,20.406 -15.301,27.777 -9.07,48.758 7.66,26.929 20.699,129.539 18.14,176.019 -2.551,46.199 -15.59,58.403 -15.59,58.403 0,0 23.532,22.109 -5.378,41.667 -28.633,19.559 -289.993,24.372 -331.661,31.75 -41.953,7.372 -113.382,43.083 -153.351,-11.339" /><path
         id="path124"
         style="fill:#444343;fill-opacity:1;fill-rule:evenodd;stroke:none"
         d="m 783.082,172.754 c 52.16,3.121 83.34,50.18 86.168,97.238 7.66,-32.879 -13.891,-72.859 -13.891,-72.859 0,0 39.121,-24.379 23.532,-58.68 -4.532,-9.918 -13.891,-21.258 -26.078,-32.308 3.398,13.597 4.539,27.488 4.539,40.539 0,30.32 -46.493,26.07 -74.27,26.07" /><path
         id="path126"
         style="fill:#444343;fill-opacity:1;fill-rule:evenodd;stroke:none"
         d="m 696.344,307.688 c -37.422,8.789 -65.199,52.16 -65.199,99.789 88.726,-37.141 164.699,0.558 223.937,64.339 -1.129,-11.058 -1.98,-22.109 -3.398,-33.171 -37.422,-72.278 -72.852,-161.29 -155.34,-130.957" /><path
         id="path128"
         style="fill:#444343;fill-opacity:1;fill-rule:evenodd;stroke:none"
         d="m 712.219,524.813 c 7.648,-33.45 8.789,-74.54 -25.231,-82.489 -46.492,-13.039 -74.269,39.121 -74.269,78.239 26.648,-33.45 78.808,-26.918 99.5,4.25" /><path
         id="path130"
         style="fill:#444343;fill-opacity:1;fill-rule:evenodd;stroke:none"
         d="m 699.465,133.645 c -23.242,0 -55.844,0 -69.731,-17.293 -5.961,-2.848 -8.511,-7.379 -8.793,-12.77 -0.277,0.289 -0.57,0.582 -0.847,0.852 -18.141,21.839 13.32,31.757 10.488,43.949 -2.551,12.18 -20.687,7.371 -31.18,26.93 -1.418,2.269 -2.269,4.808 -2.839,7.359 27.5,-23.809 67.75,-32.59 102.902,-49.027" /><path
         id="path132"
         style="fill:#444343;fill-opacity:1;fill-rule:evenodd;stroke:none"
         d="m 468.438,372.883 c -4.54,-26.07 -27.782,-43.371 -51.02,-47.91 -36.852,-12.473 -76.262,-18.133 -109.422,-5.653 5.102,23.801 10.492,48.75 14.742,68.582 2.828,11.629 4.821,22.11 6.239,31.75 26.363,-43.089 84.472,-57.261 139.461,-46.769" /><path
         id="path134"
         style="fill:#444343;fill-opacity:1;fill-rule:evenodd;stroke:none"
         d="m 384.813,468.406 c -37.129,4.25 -51.02,43.371 -51.02,77.953 4.82,-13.043 13.891,-25.793 23.242,-25.793 26.36,-8.507 65.481,-0.847 81.348,22.114 10.492,-20.981 1.422,-45.352 -11.617,-65.762 -9.352,-13.051 -27.782,-13.051 -41.953,-8.512" /><path
         id="path136"
         style="fill:#444343;fill-opacity:1;fill-rule:evenodd;stroke:none"
         d="m 330.957,586.609 c 1.981,17.582 5.391,31.762 9.07,42.801 24.661,-17.277 50.739,-35.14 82.211,-48.187 -34.3,-15.871 -63.222,-5.953 -91.281,5.386" /><path
         id="path138"
         style="fill:#444343;fill-opacity:1;fill-rule:evenodd;stroke:none"
         d="m 277.949,166.238 c 0,0 -3.679,11.34 -5.39,22.684 -0.848,5.668 2.269,10.476 5.671,15.297 14.739,-36.008 48.188,-58.969 91.278,-66.328 -33.449,-5.11 -68.32,2.269 -98.078,18.14 2.55,8.508 6.519,10.207 6.519,10.207" /><path
         id="path140"
         style="fill:#444343;fill-opacity:1;fill-rule:evenodd;stroke:none"
         d="m 519.746,446.582 c -23.238,17.289 -55.84,26.078 -65.199,56.41 13.891,4.531 23.25,-8.5 37.141,-13.039 -27.782,39.117 9.347,113.098 -23.25,108.57 -41.672,-2.55 -81.633,24.379 -123.02,44.508 3.117,6.789 5.387,10.481 5.387,10.481 39.961,54.422 111.402,18.711 153.351,11.34 41.668,-7.372 303.02,-12.192 331.649,-31.75 15.031,-10.2 15.883,-20.981 13.332,-28.911 l -4.262,-5.668 c -0.277,-1.14 -0.559,-2.269 -0.559,-3.691 -1.699,-1.98 -3.121,-3.398 -3.121,-3.398 0,0 0.852,-0.571 1.981,-2.551 -5.949,-41.102 2.84,-87.59 -39.969,-111.973 -9.352,30.613 0,78.242 -32.59,91.281 -74.269,34.86 -162.711,0 -241.519,21.821 -4.813,-65.192 27.777,-121.602 83.629,-160.719 -30.051,-2.84 -34.872,-21.832 -33.45,-43.09 -2.839,4.82 -4.543,7.367 -4.543,7.367 -2.828,-38.828 -42.519,-124.707 -45.918,-150.797 -3.679,-26.082 10.489,-42.23 17.289,-60.382 7.09,-17.86 -10.488,-42.239 -10.488,-42.239 0,0 22.68,-13.031 12.188,-27.769 -7.367,-10.492 -33.45,-31.4728 -74.258,-36.0002 4.25,15.8711 2.828,34.2892 2.828,48.4692 -18.43,0 -37.129,4.531 -51.02,13.039 13.891,8.781 41.672,8.781 41.672,26.082 0,82.48 52.719,169.789 47.899,248.031 0,30.328 -69.731,-4.543 -97.508,30.328 32.598,17.289 69.727,13.039 102.328,4.25" /><path
         id="path142"
         style="fill:#000000;fill-opacity:1;fill-rule:evenodd;stroke:none"
         d="m 877.758,139.023 c 15.312,32.879 -22.68,56.981 -22.957,57.258 -0.571,0.282 -0.571,0.864 -0.281,1.422 0,0.281 25.507,48.75 10.199,81.918 -5.949,13.32 -11.899,22.684 -18.418,28.633 -13.891,13.598 -13.891,32.309 -8.793,49.039 7.371,25.512 20.972,128.41 18.14,175.461 -2.55,45.359 -15.308,57.828 -15.308,58.109 -0.563,0.289 -0.563,0.86 0,1.418 0,0 9.64,9.071 8.789,20.41 -0.852,7.09 -5.391,13.622 -13.891,19.563 -18.418,12.469 -139.461,19.269 -227.621,24.09 -47.906,2.551 -89.289,4.82 -103.75,7.371 -8.5,1.418 -18.137,3.969 -28.347,6.808 -41.102,11.329 -92.122,25.219 -123.872,-17.859 -0.281,-0.293 -20.41,-32.031 -20.41,-88.73 0,-15.02 1.422,-32.032 5.102,-50.45 0,-0.293 -0.281,-0.57 -0.281,-0.851 -0.571,-0.289 -6.52,-7.09 -6.52,-17.57 0,-5.11 1.129,-10.782 4.82,-17.02 0,-0.281 0.282,-2.262 0.282,-6.23 0,-12.481 -1.422,-43.09 -10.774,-83.911 l -20.976,-105.73 c -6.524,-31.75 -11.621,-56.688 -13.321,-62.649 -1.703,-4.808 -5.101,-9.07 -8.222,-13.32 -3.969,-5.101 -7.649,-9.64 -7.649,-15.308 l 0,-1.704 c 1.699,-11.339 5.379,-22.668 5.379,-22.668 l 0,-0.289 c 0,-0.281 -0.277,-0.851 -0.558,-0.851 -0.29,-0.281 -6.52,-3.399 -8.219,-20.41 l 0,-0.559 c 0,-16.73 79.078,-47.0624 150.797,-63.4999 72.281,-16.4414 116.222,18.707 125.863,32.0269 2.258,3.403 3.117,6.801 2.258,10.211 -2.258,9.071 -13.891,16.153 -14.168,16.153 -0.281,0 -0.281,0.289 -0.571,0.566 0,0.281 0,0.57 0.29,0.852 0.281,0.281 17.007,24.101 10.199,41.39 l -6.231,13.602 c -6.808,13.609 -13.89,27.5 -11.058,47.058 1.418,11.34 10.488,43.649 18.988,65.481 11.91,29.48 25.23,63.211 26.93,85.598 0,0.293 0.293,0.863 0.851,0.863 0.289,0.277 0.852,0 1.141,-0.57 0.558,-0.571 43.078,-79.942 35.43,-123.883 l -7.372,-34.008 c -5.949,-26.082 -10.769,-46.77 -3.398,-60.66 5.668,-10.211 13.039,-13.332 19.559,-16.16 5.671,-2.551 10.769,-4.821 11.902,-11.063 1.137,-4.808 -2.832,-9.348 -7.082,-14.168 -7.09,-7.941 -14.461,-16.16 -3.41,-29.199 18.711,-22.672 85.039,-43.6524 127,-45.922 43.082,-2.5507 113.949,45.641 129.539,79.941 M 476.367,672.781 c 9.934,-2.828 19.563,-5.379 27.781,-6.797 14.461,-2.55 55.852,-4.82 103.469,-7.652 93.543,-5.109 210.051,-11.34 229.043,-24.379 9.07,-6.238 13.891,-13.32 14.738,-20.969 l 0,-1.992 c 0,-10.211 -6.808,-17.578 -8.789,-19.558 2.84,-3.121 13.039,-17.86 15.309,-58.391 0.281,-4.262 0.562,-8.789 0.562,-13.609 0,-51.313 -11.902,-139.469 -18.703,-162.7 -1.136,-3.98 -3.117,-20.703 -3.117,-23.543 0,-9.347 4.82,-15.296 11.34,-23.519 5.668,-7.09 12.75,-15.59 18.988,-28.918 3.68,-8.223 5.102,-17.012 5.102,-26.082 0,-26.641 -13.039,-53 -15.313,-57.258 3.973,-2.551 26.934,-18.992 26.934,-42.801 0,-5.101 -1.133,-10.769 -3.684,-16.441 C 863.59,102.453 792.719,54.2617 748.219,56.8242 705.41,59.082 638.52,80.6328 619.238,103.594 c -4.25,5.379 -5.949,9.918 -5.949,14.168 0,7.09 5.102,12.761 9.641,17.859 3.679,3.973 6.8,7.652 6.8,11.344 0,0.277 0,0.558 -0.281,1.129 -1.14,5.097 -5.109,6.801 -10.488,9.359 -6.813,2.828 -14.742,6.512 -20.703,17.289 -2.828,5.379 -3.957,11.621 -3.957,18.422 0,12.188 3.398,26.649 7.078,43.367 l 7.371,34.024 c 0.57,3.398 2.27,20.41 2.27,24.379 0,36.847 -28.352,83.898 -35.719,95.519 -2.262,-22.672 -15.024,-54.711 -26.363,-83.051 -8.79,-21.828 -17.571,-53.859 -18.989,-64.918 -0.281,-2.55 -0.57,-5.382 -0.57,-7.929 0,-15.032 5.672,-26.653 11.34,-37.703 l 6.519,-13.879 c 1.129,-3.129 1.7,-6.532 1.7,-9.93 0,-14.18 -9.071,-28.922 -11.618,-32.602 3.118,-1.988 12.188,-8.218 14.168,-16.726 0.289,-1.133 0.289,-2.262 0.289,-3.121 0,-3.11 -0.847,-5.949 -2.839,-8.781 -9.918,-13.8911 -54.989,-49.6099 -128.411,-32.8794 -64.629,14.7383 -152.5,45.3474 -152.5,65.4804 l 0,0.848 c 1.422,15.019 6.524,19.84 8.5,21.261 -0.847,2.829 -3.398,12.469 -5.097,22.391 l 0,1.981 c 0,6.25 3.968,11.628 7.937,16.726 3.113,3.973 6.524,7.942 7.934,12.473 1.699,5.949 7.09,32.027 13.328,62.359 l 20.969,105.738 c 9.64,41.954 10.769,73.133 10.769,84.473 0,3.117 -0.277,4.82 -0.277,4.82 -3.68,6.52 -4.82,12.188 -4.82,17.289 0,10.77 5.668,17.86 6.519,18.989 -3.398,18.14 -4.82,34.871 -4.82,49.89 0,57.539 20.41,89.86 20.699,90.43 32.59,44.223 84.75,30.039 126.699,18.699" /><path
         id="path144"
         style="fill:#000000;fill-opacity:1;fill-rule:evenodd;stroke:none"
         d="m 706.547,542.676 c 0,0 -54.707,-12.192 -96.66,4.82 0,0 -7.938,-85.32 53.57,-94.109 61.52,-8.5 51.031,69.73 43.09,89.289" /><path
         id="path146"
         style="fill:#000000;fill-opacity:1;fill-rule:evenodd;stroke:none"
         d="m 611.02,546.074 c 0,-1.422 -0.278,-3.961 -0.278,-7.09 0,-21.82 4.821,-77.671 53,-84.461 15.879,-2.281 28.071,1.411 36,10.77 8.789,10.199 11.629,25.512 11.629,40.242 0,14.469 -2.84,28.348 -5.672,35.731 -7.66,-1.422 -56.41,-10.211 -94.679,4.808 m -0.571,2.559 c 40.821,-16.731 95.25,-5.11 95.813,-4.828 0.57,0 1.14,-0.282 1.418,-0.852 5.953,-14.449 12.472,-57.82 -5.95,-79.078 -8.789,-9.93 -21.539,-13.883 -38.55,-11.34 -61.797,8.5 -54.43,94.117 -54.43,95.25 0,0.27 0.289,0.57 0.57,0.57 0.282,0.278 0.571,0.278 1.129,0.278" /><path
         id="path148"
         style="fill:#000000;fill-opacity:1;fill-rule:evenodd;stroke:none"
         d="m 435.84,561.105 c 0,0 -55.84,-7.941 -96.09,12.188 0,0 -15.309,-84.48 45.07,-97.809 60.66,-13.308 56.969,65.489 51.02,85.621" /><path
         id="path150"
         style="fill:#000000;fill-opacity:1;fill-rule:evenodd;stroke:none"
         d="m 340.879,571.875 c -0.57,-2.828 -1.422,-10.77 -1.422,-20.98 0,-25.79 6.523,-65.758 45.641,-74.258 15.871,-3.41 28.351,-0.852 37.132,7.929 11.911,11.629 15.59,32.028 15.59,49.598 0,10.5 -1.41,19.852 -2.832,25.52 -6.238,-0.571 -56.687,-6.239 -94.109,12.191 m -0.57,2.27 c 39.398,-19.84 94.679,-12.192 95.25,-12.192 0.558,0.281 1.129,0 1.41,-0.566 4.539,-15.024 7.09,-58.684 -13.031,-78.524 -9.36,-9.066 -22.68,-12.187 -39.118,-8.5 -60.953,13.321 -46.211,98.364 -46.211,99.211 0.289,0.281 0.289,0.571 0.848,0.852 0.293,0 0.57,0 0.852,-0.281" /><path
         id="path152"
         style="fill:#fdfdfd;fill-opacity:1;fill-rule:evenodd;stroke:none"
         d="m 432.719,1081.54 c 0,0 -45.348,-39.12 -73.129,-86.169 -28.07,-47.34 -54.149,-97.789 -73.418,-126.988 -18.992,-29.488 -22.684,-112.539 64.629,-167.82 87.019,-55.27 147.969,197.019 147.969,262.21 0,65.197 -66.051,118.767 -66.051,118.767" /><path
         id="path154"
         style="fill:#ebebeb;fill-opacity:1;fill-rule:evenodd;stroke:none"
         d="m 347.68,919.973 c 13.89,4.25 23.242,-13.043 23.242,-8.793 16.16,42.242 9.93,96.95 28.07,136.63 18.141,20.41 33.731,33.73 33.731,33.73 0,0 66.047,-53.57 66.047,-118.77 0,-65.188 -60.95,-317.477 -147.969,-262.2 -24.66,15.59 -41.949,33.45 -53.578,51.301 12.757,1.699 25.226,5.391 36.566,11.629 55.844,34.859 37.133,100.051 13.891,156.473" /><path
         id="path156"
         style="fill:#ebebeb;fill-opacity:1;fill-rule:evenodd;stroke:none"
         d="m 361.57,946.328 c -46.488,-30.332 -51.019,-82.488 -37.129,-125.859 0,-4.25 -9.359,-4.25 -13.89,-4.25 -11.059,10.211 -19.278,22.398 -25.797,35.429 1.699,4.829 3.687,9.372 5.949,12.77 17.578,26.641 40.82,70.859 65.77,114.219 5.949,-13.02 15.019,-26.071 5.097,-32.309" /><path
         id="path158"
         style="fill:#000000;fill-opacity:1;fill-rule:evenodd;stroke:none"
         d="m 393.887,698.301 c 61.801,30.609 103.75,211.461 103.75,264.469 0,60.1 -57.828,111.12 -64.918,117.36 -5.953,-5.39 -46.774,-41.96 -72.281,-85.329 l -34.012,-59.809 c -14.457,-25.793 -28.071,-50.172 -39.117,-67.179 -6.524,-9.922 -11.063,-25.793 -11.063,-44.223 0,-37.418 18.141,-85.899 75.121,-122.168 14.168,-8.789 28.352,-9.922 42.52,-3.121 m 39.398,384.089 c 0.852,-0.56 66.621,-54.7 66.621,-119.62 0,-55.27 -41.109,-234.707 -105.168,-266.45 -14.742,-7.09 -29.761,-6.238 -44.793,3.403 -86.449,54.988 -84.75,138.609 -64.629,169.218 11.063,16.731 24.661,41.11 39.122,67.192 l 34.019,59.808 c 27.781,46.769 72.852,86.169 73.41,86.449 0.289,0.29 1.141,0.29 1.418,0" /><path
         id="path160"
         style="fill:#ebebeb;fill-opacity:1;fill-rule:evenodd;stroke:none"
         d="m 707.965,1086.36 c 0,0 -8.789,53.86 -90.711,66.9 -81.918,13.04 -198.418,3.12 -179.43,-68.32 19.27,-71.71 278.641,-65.19 270.141,1.42" /><path
         id="path162"
         style="fill:#fdfdfd;fill-opacity:1;fill-rule:evenodd;stroke:none"
         d="m 619.527,1149.01 c 19.278,-3.12 34.297,-8.5 46.489,-14.74 -66.621,18.42 -140.602,23.81 -204.379,-5.95 -11.34,-4.54 -18.141,-12.19 -22.11,-21.55 13.039,47.63 109.418,53.3 180,42.24" /><path
         id="path164"
         style="fill:#000000;fill-opacity:1;fill-rule:evenodd;stroke:none"
         d="m 616.973,1152.13 c -60.09,9.64 -138.328,6.51 -167.809,-23.25 -11.34,-11.34 -14.742,-26.08 -10.211,-43.66 12.481,-46.49 124.731,-58.11 196.449,-45.63 45.629,7.93 71.43,23.81 71.43,43.65 l 0,3.12 c -0.289,0.57 -9.918,53 -89.859,65.77 m 0.57,2.26 c 81.629,-13.03 91.559,-67.18 91.559,-67.75 2.832,-22.68 -23.821,-40.82 -73.418,-49.32 -72.571,-12.48 -186.243,-0.28 -198.993,47.34 -4.82,18.14 -1.136,33.73 10.774,45.63 30.047,30.62 107.148,34.02 170.078,24.1" /><path
         id="path166"
         style="fill:#fdfdfd;fill-opacity:1;fill-rule:evenodd;stroke:none"
         d="m 711.367,1104.5 c 0,0 -27.781,29.2 -130.679,20.98 -102.891,-7.94 -142.86,-19.56 -158.45,-55.28 -15.883,-35.72 -36.57,-97.79 -38.269,-166.106 -1.992,-68.313 -12.192,-143.141 -43.66,-174.043 -31.461,-31.18 -27.774,-44.231 -3.403,-73.418 24.379,-29.199 75.692,-50.461 133.231,-45.641 57.539,4.821 117.64,-9.629 198.429,-19.558 81.071,-9.641 149.102,-2.274 198.711,34.296 49.602,36.571 -36.57,92.704 -49.609,185.672 -13.039,92.692 -11.34,241.788 -106.301,293.098" /><path
         id="path168"
         style="fill:#ebebeb;fill-opacity:1;fill-rule:evenodd;stroke:none"
         d="m 454.547,1063.12 c -32.313,-21.54 -46.492,-60.66 -37.129,-99.78 27.777,-138.899 148.816,-204.09 255.68,-282.328 -88.442,8.777 -162.711,65.199 -241.793,69.449 -23.25,4.527 9.351,-43.371 9.351,-77.949 -102.051,34.578 -32.601,169.218 -51.019,251.707 -1.422,2.84 -2.551,5.672 -3.969,8.5 5.668,56.691 22.957,106.591 36.566,137.491 15.59,35.71 55.551,47.34 158.454,55.27 46.488,3.69 77.386,-0.28 97.507,-5.67 -77.379,4.25 -161.57,-9.63 -223.648,-56.69" /><path
         id="path170"
         style="fill:#000000;fill-opacity:1;fill-rule:evenodd;stroke:none"
         d="m 866.703,626.582 c 27.5,20.129 12.192,46.77 -9.07,83.34 -15.867,27.211 -35.43,60.941 -41.098,101.199 l -5.672,49.031 c -9.359,89.301 -20.98,200.698 -100.07,243.218 0,0.28 -0.277,0.28 -0.277,0.28 -0.282,0.28 -28.911,28.91 -129.832,20.69 -107.149,-8.5 -142.579,-20.69 -157.321,-54.42 -13.597,-30.9 -36.57,-93.537 -38.269,-165.826 -1.699,-61.512 -10.481,-142.012 -43.93,-174.903 -30.328,-30.039 -28.07,-42.23 -3.41,-71.988 26.082,-31.473 79.379,-49.601 132.101,-45.082 40.821,3.41 83.34,-2.828 132.379,-10.199 20.969,-3.121 42.801,-6.52 66.61,-9.359 87.879,-10.481 152.511,0.57 197.859,34.019 M 712.215,1105.35 c 79.937,-43.37 91.558,-155.338 100.918,-244.909 l 5.66,-49.039 c 5.672,-39.691 25.23,-73.422 40.82,-100.629 12.762,-22.113 24.102,-41.39 24.102,-57.832 0,-10.488 -4.539,-19.839 -15.59,-28.058 -45.922,-33.731 -111.121,-45.07 -199.562,-34.582 -23.809,3.109 -45.637,6.23 -66.618,9.351 -49.043,7.371 -91.269,13.891 -131.812,10.211 -53.57,-4.543 -107.43,14.168 -134.36,46.2 -25.23,30.328 -27.781,43.648 3.692,74.55 32.879,32.598 41.668,112.25 43.078,173.481 1.992,72.847 24.949,135.496 38.551,166.396 15.308,34.86 51.031,47.62 159.59,56.12 100.629,7.94 129.55,-19.56 131.531,-21.26" /><path
         id="path172"
         style="fill:#000000;fill-opacity:1;fill-rule:evenodd;stroke:none"
         d="m 581.254,612.695 c -41.391,15.871 -70.867,36.571 -70.867,36.571 -0.852,-0.86 43.09,-30.063 69.738,-38.852 41.672,-16.711 79.078,-17.277 78.801,-17.559 0.277,0.848 -29.481,1.411 -77.672,19.84" /><path
         id="path174"
         style="fill:#000000;fill-opacity:1;fill-rule:evenodd;stroke:none"
         d="m 374.043,848.535 c -1.98,29.199 -9.922,51.871 -9.922,51.871 0.57,0 6.524,-34.011 7.094,-51.871 2.258,-28.629 0.848,-52.441 0.848,-52.441 -0.29,0 4.25,18.711 1.98,52.441" /><path
         id="path176"
         style="fill:#000000;fill-opacity:1;fill-rule:evenodd;stroke:none"
         d="m 515.777,505.266 c -25.23,51.867 -25.511,99.488 -25.511,99.207 -2.551,0 4.531,-68.309 22.961,-100.34 24.66,-53.008 66.328,-81.938 65.199,-82.207 1.699,0.847 -33.168,23.238 -62.649,83.34" /><path
         id="path178"
         style="fill:#000000;fill-opacity:1;fill-rule:evenodd;stroke:none"
         d="m 526.832,431.848 c 42.238,-5.114 75.398,-15.602 75.398,-15.602 0.29,0.852 -48.191,15.871 -75.121,18.149 -42.519,5.66 -77.379,-1.981 -77.097,-1.981 0,-0.566 27.5,5.094 76.82,-0.566" /><path
         id="path180"
         style="fill:#000000;fill-opacity:1;fill-rule:evenodd;stroke:none"
         d="m 529.379,458.203 c 30.902,-10.769 57.832,-12.469 57.543,-12.75 0,-0.289 -37.981,7.942 -56.692,15.301 -31.179,9.918 -50.46,28.07 -50.171,28.07 0,0.559 12.75,-17.859 49.32,-30.621" /><path
         id="path182"
         style="fill:#000000;fill-opacity:1;fill-rule:evenodd;stroke:none"
         d="m 842.328,204.785 c 3.402,19.289 -9.918,31.18 -9.348,30.899 0.848,0.562 10.77,-19.547 6.797,-30.321 -4.25,-17.297 -20.41,-24.668 -19.558,-24.957 -1.418,0.571 15.308,2.848 22.109,24.379" /><path
         id="path184"
         style="fill:#000000;fill-opacity:1;fill-rule:evenodd;stroke:none"
         d="m 855.367,146.113 c -11.91,16.16 -28.633,20.981 -28.062,21.258 0.281,0.274 20.121,-12.469 25.793,-22.687 11.34,-15.86 3.687,-32.032 4.25,-31.743 -1.41,-0.558 11.058,12.481 -1.981,33.172" /><path
         id="path186"
         style="fill:#000000;fill-opacity:1;fill-rule:evenodd;stroke:none"
         d="m 627.18,153.762 c 19.84,-9.063 37.418,-11.34 37.418,-11.34 0,-0.274 -24.379,7.668 -36,13.617 -20.129,8.223 -30.621,21.813 -30.328,22.102 0,0.558 5.378,-13.879 28.91,-24.379" /><path
         id="path188"
         style="fill:#000000;fill-opacity:1;fill-rule:evenodd;stroke:none"
         d="m 278.801,164.246 c 7.367,-11.898 20.976,-11.047 20.41,-11.047 -0.57,-1.14 -15.313,5.098 -18.141,12.481 -5.953,10.187 -5.39,20.957 -5.953,20.679 0.852,0.278 -3.687,-8.5 3.684,-22.113" /><path
         id="path190"
         style="fill:#000000;fill-opacity:1;fill-rule:evenodd;stroke:none"
         d="m 744.531,691.211 c 19.282,-9.07 56.692,-12.75 69.731,-12.469 -10.77,-1.133 -39.403,-1.703 -70.86,9.918 -41.961,15.602 -61.8,33.172 -65.203,35.43 3.973,-2.258 30.051,-20.117 66.332,-32.879" /><path
         id="path192"
         style="fill:#000000;fill-opacity:1;fill-rule:evenodd;stroke:none"
         d="m 730.93,775.969 c -13.614,34.019 -20.41,63.207 -20.41,63.207 -0.571,-0.278 8.5,-43.071 17.578,-64.059 13.32,-34.582 32.031,-59.238 32.031,-58.949 0.277,0 -13.609,20.109 -29.199,59.801" /><path
         id="path194"
         style="fill:#fdfdfd;fill-opacity:1;fill-rule:evenodd;stroke:none"
         d="m 874.078,1025.7 c -0.851,1.13 -9.351,5.95 -11.91,5.95 -7.082,0.85 -8.781,-2.55 -10.77,0 -39.679,24.95 -68.312,21.83 -108.281,43.66 -27.781,6.23 -48.469,8.22 -48.469,8.22 0,0 -1.992,-7.94 -3.121,-20.7 -2.839,-27.21 -2.55,-75.959 26.078,-111.396 41.383,-52.442 251.711,-220.532 286.305,-127.571 9.63,26.09 12.19,49.899 10.19,71.16 -2.26,12.758 -15.022,52.149 -21.823,60.661 -4.808,4.808 -18.992,22.679 -23.519,26.918 -13.332,11.921 -27.5,12.769 -37.992,17.868 -21.258,10.21 -33.45,16.73 -42.231,18.99 -6.808,1.7 -10.488,8.51 -14.457,6.24" /><path
         id="path196"
         style="fill:#ebebeb;fill-opacity:1;fill-rule:evenodd;stroke:none"
         d="m 838.074,1014.93 c 56.692,1.7 93.543,-37.707 110.274,-80.219 2.828,-3.398 10.199,1.691 13.886,4.25 2.274,14.461 0.852,28.91 -1.988,42.801 -4.531,3.121 -9.07,5.39 -13.039,7.09 -31.18,11.618 -77.949,34.018 -125.852,54.708 3.68,-13.89 4.532,-29.2 16.719,-28.63" /><path
         id="path198"
         style="fill:#ebebeb;fill-opacity:1;fill-rule:evenodd;stroke:none"
         d="m 847.434,943.777 c -13.891,-4.539 -10.204,-23.527 -13.043,-20.129 -39.969,24.95 -70.02,72.29 -109.7,94.112 -27.781,5.96 -34.871,19.28 -34.871,19.28 0,0 -41.379,-70.02 0.293,-122.462 22.391,-27.777 83.047,-37.98 138.039,-59.238 35.719,-13.891 64.629,-40.531 94.961,-51.02 10.207,-3.41 22.117,-3.121 30.899,-7.09 3.398,-1.703 30.051,-1.992 38.551,10.2 6.238,8.508 3.691,20.711 2.839,29.769 -11.339,-5.672 -23.531,-9.922 -36.851,-11.058 -66.899,-3.403 -93.547,59.25 -111.117,117.636" /><path
         id="path200"
         style="fill:#000000;fill-opacity:1;fill-rule:evenodd;stroke:none"
         d="m 970.738,798.074 c -69.172,-10.199 -218.269,111.41 -252.281,153.934 -28.922,35.988 -29.48,84.192 -26.93,109.412 3.121,16.45 1.7,14.74 19.559,15.31 22.672,-2.27 62.082,-7.66 96.941,-22.41 l 65.481,-28.9 c 28.058,-12.76 54.711,-24.66 74.269,-32.033 11.621,-4.539 25.231,-14.461 37.129,-29.481 23.814,-29.769 40.264,-78.808 17.864,-139.75 -5.672,-15.031 -16.442,-23.801 -32.032,-26.082 M 688.977,1060.28 c -1.989,-26.07 -1.141,-73.694 27.492,-109.706 35.437,-44.219 183.398,-164.969 254.84,-154.769 16.437,2.55 27.777,11.633 33.731,27.793 34.01,92.398 -20.692,158.449 -56.411,171.769 -19.563,7.363 -46.203,19.273 -74.274,32.023 l -65.476,28.93 c -35.434,15.02 -75.973,20.69 -98.363,22.96 -20.981,-0.57 -17.86,0.27 -21.539,-19" /><path
         id="path202"
         style="fill:#fdfdfd;fill-opacity:1;fill-rule:evenodd;stroke:none"
         d="m 680.469,1069.92 c 35.719,28.35 77.101,28.91 121.039,6.24 40.531,-20.7 51.312,-29.77 57.262,-42.81 l -3.122,-19.84 -4.82,-41.666 2.551,-20.41 -5.949,-68.313 2.55,-20.699 c -6.8,-3.68 -30.613,-14.168 -70.011,-0.281 -47.059,16.441 -100.071,62.929 -120.481,98.652 -20.687,35.43 11.34,101.477 20.981,109.127" /><path
         id="path204"
         style="fill:#ebebeb;fill-opacity:1;fill-rule:evenodd;stroke:none"
         d="m 739.996,1036.48 c -11.621,-36.855 11.91,-76.835 43.367,-98.945 -43.09,11.07 -98.078,21.84 -106.019,65.765 -5.66,36.58 24.672,75.13 63.781,89.02 19.559,0 39.691,-5.39 60.379,-16.16 8.223,-3.96 15.031,-7.66 20.691,-10.77 -35.429,3.97 -71.429,1.7 -82.199,-28.91" /><path
         id="path206"
         style="fill:#ebebeb;fill-opacity:1;fill-rule:evenodd;stroke:none"
         d="m 652.691,993.672 c 26.649,-68.309 95.528,-124.731 173.758,-114.52 15.59,3.692 -7.929,29.2 11.629,40.25 4.531,-10.199 6.231,-20.121 9.922,-29.761 l 11.621,-11.34 -1.133,-19.559 c -6.808,-3.679 -39.117,-10.488 -78.519,3.399 -47.059,16.441 -100.071,62.929 -120.481,98.652 -5.668,9.34 -7.367,20.687 -6.797,32.879" /><path
         id="path208"
         style="fill:#000000;fill-opacity:1;fill-rule:evenodd;stroke:none"
         d="m 802.074,1077.01 c 38.832,-19.84 50.742,-29.2 56.981,-41.95 l -0.571,-3.4 c -5.949,13.89 -16.437,22.96 -57.257,43.93 -45.352,22.96 -85.614,20.98 -120.192,-6.52 -6.801,-5.38 -27.5,-45.63 -27.5,-79.933 0,-10.211 1.988,-19.852 6.809,-28.071 19.562,-34.007 71.152,-81.07 119.902,-98.078 20.981,-7.371 45.641,-6.23 53.289,-9.07 l -3.961,-0.27 c -12.187,-1.71 -28.918,0.27 -49.89,7.637 -49.329,17.012 -101.481,64.633 -121.039,98.934 -21.258,36.847 11.902,102.901 21.261,110.271 35.149,28.06 76.25,30.05 122.168,6.52" /><path
         id="path210"
         style="fill:#fdfdfd;fill-opacity:1;fill-rule:nonzero;stroke:none"
         d="m 491.703,1855.42 -1.668,-0.16 c -10.101,-1.09 -18.062,-5.4 -24.73,-13.52 -6.742,-8.2 -9.231,-16.53 -8.102,-27.06 1.07,-10.61 3.981,-18.39 9.43,-24.07 1.109,13.5 7.972,24.49 19.512,31.07 4.25,2.37 8.968,4.05 15.097,5.31 l -9.539,28.43 z m -5.777,-188.54 -0.012,0 c -18.32,0 -34.129,5.62 -47,16.69 -5.84,4.79 -9.851,10.1 -12.379,13.72 -7.851,11.21 -7.133,26.3 1.738,36.71 l 5.082,5.97 c -20.511,15.66 -32.96,38.98 -35.921,68.5 -2.809,26.18 4.589,50.95 21.441,71.42 16.559,20.18 39.07,32.36 65.059,35.15 l 5.019,0.49 c 16.039,1.55 20.379,1.96 23.699,1.96 12.911,0 24.383,-8.26 28.493,-20.5 l 28.98,-86.38 c 1.809,-3.87 2.828,-8.19 2.828,-12.75 0,-10.08 -4.961,-18.99 -12.578,-24.45 0.07,-0.1 0.117,-0.2 0.18,-0.3 4.527,-7.91 7.218,-15.48 8.25,-23.16 2.211,-18.13 -4.473,-36.7 -19.813,-55.53 -12.066,-14.49 -29.328,-23.6 -50.148,-26.64 -4.711,-0.62 -8.899,-0.9 -12.918,-0.9" /><path
         id="path212"
         style="fill:#fdfdfd;fill-opacity:1;fill-rule:nonzero;stroke:none"
         d="m 608.715,1674.21 c -1.301,0 -2.617,0.03 -3.93,0.08 -23.199,0.82 -43.75,8.98 -61,24.23 -17.18,14.79 -28.129,33.93 -32.258,56.64 -1.562,7.27 -2.101,14.65 -1.66,22.54 0.789,22.55 8.688,43.2 23.449,60.75 15.09,17.94 34.36,29.28 57.282,33.69 8.316,1.86 16.457,2.15 22.047,1.95 22.543,-0.79 43,-8.79 60.8,-23.75 18.051,-15.95 28.95,-35.32 32.93,-58.07 1.563,-8.56 1.98,-18.22 1.242,-29.31 -0.871,-12.94 -9.953,-23.87 -22.519,-27.08 l -12.223,-3.14 c 2.949,-4.61 4.641,-10.01 4.762,-15.65 0.187,-10.1 -4.699,-19.61 -13.012,-25.34 -16.898,-11.64 -35.711,-17.54 -55.91,-17.54" /><path
         id="path214"
         style="fill:#fdfdfd;fill-opacity:1;fill-rule:nonzero;stroke:none"
         d="m 741.047,1793.61 c -8.281,0 -15.641,-2.52 -23.192,-7.95 -3.492,-2.52 -6.402,-5.22 -8.781,-8.2 8.961,5.63 19.289,8.36 30.551,8.29 l 3.711,7.8 c -0.77,0.04 -1.531,0.06 -2.289,0.06 m 1.59,-145.58 c -6.41,0 -12.184,0.51 -17.614,1.54 -26.558,4.62 -49.378,18.98 -65.546,41.46 -16.223,22.94 -22.153,48.65 -17.762,76.62 4.379,27.88 18.191,50.35 41.051,66.79 22.789,16.39 48.847,22.47 76.269,17.69 16.102,-2.9 30.578,-9.14 43.211,-18.6 11.449,-8.59 15.258,-24.06 9.098,-36.97 l -28.629,-60.09 c -3.059,-6.42 -8.262,-11.48 -14.59,-14.38 3.73,-4.31 6.219,-9.59 7.02,-15.32 l 3.402,-24.38 c 1.168,-8.37 -1.25,-16.85 -6.652,-23.36 -5.411,-6.5 -13.301,-10.42 -21.75,-10.81 -2.54,-0.11 -5.04,-0.19 -7.508,-0.19" /><path
         id="path216"
         style="fill:#fdfdfd;fill-opacity:1;fill-rule:nonzero;stroke:none"
         d="m 836.477,1766.51 c 5.207,-0.13 10.468,-1.06 15.628,-2.78 4.18,-1.29 7.989,-3.13 11.372,-5.43 -2.231,3 -5.821,5.8 -12.223,7.94 -1.707,0.53 -4.59,1.07 -8.277,1.48 -8.922,0.99 -16.93,5.91 -21.84,13.43 -0.012,0.01 -0.024,0.03 -0.032,0.04 l -2.14,-15.29 c 1.68,0.58 3.43,1.01 5.219,1.28 4.179,0.65 8.351,0.38 12.293,-0.67 m -25.602,-120.02 c -0.41,0 -0.828,0.01 -1.238,0.02 l -34.59,1.42 c -8.473,0.35 -16.41,4.26 -21.844,10.78 -5.43,6.51 -7.859,15.02 -6.68,23.42 l 20.411,145.42 c 1.23,8.77 6.261,16.55 13.761,21.26 7.5,4.71 16.7,5.88 25.129,3.19 l 52.442,-16.73 c 7.531,-2.4 13.461,-7.5 17.058,-13.89 22.961,-9.16 39.121,-25.49 47.34,-47.67 7.859,-21.51 7.32,-44.76 -1.57,-69.24 -1.598,-4.98 -4.489,-9.5 -8.438,-13.08 -6.301,-5.7 -14.652,-8.44 -23.172,-7.61 l -42.23,4.25 c -0.559,0.06 -1.098,0.13 -1.649,0.21 l -5.91,-20.15 c -3.761,-12.84 -15.531,-21.6 -28.82,-21.6" /><path
         id="path218"
         style="fill:#fdfdfd;fill-opacity:1;fill-rule:nonzero;stroke:none"
         d="m 945.305,1581.1 c -17.242,0 -33.75,4.46 -49.063,13.26 -19.5,11.14 -33.937,27.68 -42.828,49.12 -8.973,22.02 -10.043,44.41 -3.269,66.74 1.679,5.72 4.109,11.72 7.546,18.6 11.563,21.45 28.18,36.24 49.821,44.82 20.75,8.61 43.82,9.85 65.859,3.04 6.461,-1.78 13.731,-4.96 20.781,-9.19 19.228,-10.97 33.758,-27.51 42.608,-48.81 8.75,-21.45 9.86,-43.69 3.39,-66.28 -2.49,-8.74 -6.75,-18.04 -12.66,-27.63 -6.84,-11.08 -20.06,-16.48 -32.685,-13.43 l -11.121,2.71 c 0.429,-5.4 -0.59,-10.9 -3.102,-15.9 -4.559,-9.09 -13.41,-15.26 -23.527,-16.39 -3.981,-0.44 -7.891,-0.66 -11.75,-0.66" /><path
         id="path220"
         style="fill:#fdfdfd;fill-opacity:1;fill-rule:nonzero;stroke:none"
         d="m 1013.54,1495.68 c -5.9,0 -11.72,1.75 -16.696,5.06 -6.348,4.25 -12.16,9.46 -17.27,15.47 -15.609,17.56 -24.308,39.77 -24.711,63.74 -0.418,25.14 7.621,46.77 23.903,64.3 0.25,0.29 0.507,0.55 0.769,0.81 2.36,2.35 4.762,4.69 7.121,6.66 l 14.644,12.34 c -3.855,9.49 -2.753,20.68 3.83,29.42 l 19,25.22 c 5.16,6.86 13.01,11.18 21.57,11.89 8.62,0.64 17,-2.32 23.21,-8.25 l 0.57,-0.55 9.09,7.71 c 12.29,10.43 30.61,9.3 41.54,-2.57 l 16.46,-17.86 c 10.31,-11.19 10.61,-28.36 0.68,-39.92 l -6.3,-7.34 c 5.76,-9.74 5.69,-22.18 -0.86,-31.99 l -14.16,-21.26 c -4.7,-7.04 -12.16,-11.79 -20.52,-13.04 -6.52,-1 -13.09,0.19 -18.8,3.29 l -5.11,-5.97 c 6.11,-9.75 6.27,-22.39 -0.04,-32.27 l -32.6,-51.02 c -4.36,-6.8 -11.25,-11.57 -19.16,-13.23 -2.04,-0.43 -4.11,-0.64 -6.16,-0.64" /><path
         id="path222"
         style="fill:#fdfdfd;fill-opacity:1;fill-rule:nonzero;stroke:none"
         d="m 1110.53,1548.34 c 7.42,-11.68 8.27,-25.16 3.11,-36.88 1.06,0.5 2.13,1.11 3.22,1.81 1.83,1.14 3.88,2.78 6.5,5.19 5.08,5.22 7.74,10.77 8.6,17.93 0.71,7.02 -0.76,13.54 -4.67,20.02 -0.82,1.39 -2,2.89 -3.72,4.8 -1.47,1.58 -2.85,3.06 -4.16,4.45 l -11,-14.07 c 0.78,-1.11 1.49,-2.18 2.12,-3.25 m -96.63,-62.84 0.2,-0.27 3.68,2.04 -4.21,6.21 c -0.25,-0.46 -0.45,-0.93 -0.62,-1.41 -0.42,-2.05 -0.05,-4.57 0.95,-6.57 m 0.55,-0.68 c 1.04,-1.18 2.69,-2.39 4.33,-2.89 l 0.79,2.66 -1.4,2.09 -3.72,-1.86 z m 7.36,-46.41 0,0 c -4.57,0 -9.17,0.64 -13.68,1.95 -13.282,3.5 -24.294,12.12 -31.064,24.3 -0.199,0.38 -0.398,0.75 -0.589,1.13 -6.02,12.01 -7.36,25.03 -3.872,37.67 3.372,12.97 11.411,23.65 23.282,30.9 5.333,3.14 10.793,5.23 16.453,6.28 6.5,6.25 14.3,10.61 23.22,13 1,0.27 2.05,0.54 3.13,0.75 0.86,4.7 2.85,9.2 5.88,13.09 l 48.47,62.07 c 4.91,6.29 12.13,10.38 20.05,11.34 7.91,0.95 15.91,-1.26 22.19,-6.19 4.43,-3.49 11.68,-10.41 32.63,-32.93 3.23,-3.59 7.44,-8.52 11.03,-14.66 10.5,-17.36 14.85,-36.77 12.74,-57.36 -2.55,-21.25 -11.36,-39.3 -26.21,-54.18 -0.29,-0.28 -0.58,-0.57 -0.88,-0.84 -4,-3.68 -9.39,-8.41 -15.65,-12.28 -13.17,-8.5 -28.04,-12.99 -43.7,-12.99 -13.72,0 -27.8,3.5 -41.96,10.43 -4.3,-6.03 -9.96,-11.09 -16.72,-14.85 -7.93,-4.4 -16.25,-6.63 -24.75,-6.63" /><path
         id="path224"
         style="fill:#000000;fill-opacity:1;fill-rule:nonzero;stroke:none"
         d="m 457.68,1714.32 c 1.269,-1.53 2.48,-2.75 3.742,-3.75 6.629,-5.79 14.578,-8.53 24.5,-8.53 2.527,0 5.168,0.17 7.937,0.53 12.192,1.78 21.614,6.53 27.922,14.09 8.899,10.94 13.129,20.88 12.168,28.71 -0.41,3.06 -1.648,6.34 -3.898,10.27 -3.039,4.78 -9.66,8.31 -19.531,10.29 -6.43,1.52 -9.918,2.87 -12.18,4.76 -3.141,2.36 -5.469,6.34 -6.551,11.36 -1.93,10.62 2.594,15.62 6.723,17.98 3.347,1.86 9.027,3.1 18.461,4.04 2.949,0.3 7.367,0.31 13.257,0.31 1.903,-0.08 3.54,-0.17 4.993,-0.25 l -26.16,77.98 c -3.622,-0.31 -9.5,-0.88 -16.731,-1.56 l -4.691,-0.46 c -16.828,-1.81 -30.84,-9.39 -41.621,-22.54 -11.02,-13.38 -15.469,-28.27 -13.61,-45.53 3.192,-31.95 20.781,-50.7 53.762,-57.34 5.34,-1.18 9.07,-2.13 11.488,-3.15 5.621,-2.41 9.02,-6.73 9.84,-12.48 0.051,-1.7 0.051,-3.05 -0.379,-4.79 -0.109,-3.33 -2.422,-10.74 -15.09,-12.33 -8.211,-1.13 -15.609,1.43 -21.461,7.52 l -12.89,-15.13 z m 28.242,-22.5 0,0 c -12.332,0 -22.77,3.69 -31.051,10.93 -3.422,2.73 -6.031,6.17 -7.898,8.85 l -2.262,3.22 26.519,31.16 3.743,-5.7 c 4.308,-6.57 9.316,-9.08 15.75,-8.23 6.179,0.77 6.308,2.93 6.347,3.75 0.27,1.43 0.282,1.79 0.282,2.54 -0.172,0.82 -0.789,2.55 -3.711,3.8 -1.782,0.77 -5.661,1.68 -9.578,2.56 -37.333,7.51 -58.161,29.82 -61.801,66.26 -2.129,19.82 3.199,37.68 15.871,53.08 12.527,15.26 28.84,24.09 48.469,26.19 l 4.75,0.47 c 13.55,1.31 19.128,1.84 21.308,1.84 l 3.672,0 35.141,-104.76 -11.051,5.52 c -1.289,0.49 -7.68,0.77 -10.41,0.88 -5.223,0 -9.301,0.01 -12.032,-0.26 -10.41,-1.04 -13.578,-2.3 -14.468,-2.78 -0.91,-0.53 -2.711,-1.57 -1.711,-7.1 0.519,-2.43 1.519,-4.33 2.871,-5.34 0.59,-0.49 2.168,-1.42 8.019,-2.81 12.539,-2.5 21.379,-7.55 26.098,-14.98 3.051,-5.31 4.691,-9.78 5.293,-14.25 1.309,-10.86 -3.543,-23.12 -14.43,-36.49 -8,-9.6 -19.562,-15.54 -34.402,-17.71 -3.301,-0.42 -6.379,-0.64 -9.328,-0.64" /><path
         id="path226"
         style="fill:#e22228;fill-opacity:1;fill-rule:evenodd;stroke:none"
         d="m 511.523,1770.93 c -4.82,1.13 -8.218,2.27 -9.921,3.68 -2.27,1.71 -3.969,4.54 -4.821,8.51 -1.129,6.24 0.282,10.2 4.25,12.47 2.551,1.42 7.942,2.55 16.442,3.4 2.84,0.29 7.09,0.29 12.761,0.29 6.52,-0.29 10.77,-0.57 12.469,-1.42 l -30.051,89.57 c -2.257,0 -10.769,-0.85 -25.507,-2.26 -18.422,-1.99 -33.454,-10.21 -45.071,-24.38 -11.902,-14.46 -16.722,-30.9 -14.742,-49.32 3.402,-34.02 22.68,-54.71 57.832,-61.8 5.098,-1.13 8.5,-1.98 10.488,-2.83 3.961,-1.71 6.231,-4.54 6.801,-8.51 0,-0.85 0,-1.7 -0.281,-2.83 -0.289,-4.82 -3.969,-7.66 -10.777,-8.51 -8.5,-1.13 -15.301,2.27 -20.692,10.49 l -19.558,-22.96 c 1.988,-2.83 4.25,-5.67 7.089,-7.94 9.071,-7.93 20.969,-11.05 36.278,-9.07 13.609,1.99 24.101,7.37 31.179,15.88 9.922,12.19 14.461,23.24 13.332,32.6 -0.57,4.25 -2.269,8.22 -4.539,12.18 -3.972,6.24 -11.621,10.49 -22.961,12.76" /><path
         id="path228"
         style="fill:#000000;fill-opacity:1;fill-rule:nonzero;stroke:none"
         d="m 612.926,1782.58 c -5.781,0 -10.379,-1.9 -14.071,-5.8 -2.699,-2.7 -4.48,-5.53 -5.441,-8.68 l 32.981,9.82 c -3.34,2.99 -7.399,4.48 -12.418,4.64 l -1.051,0.02 z m -30.289,-28.33 -0.242,6.57 c -0.34,9.04 2.652,16.58 9.14,23.08 5.559,5.86 12.781,8.89 21.391,8.89 l 1.41,-0.03 c 10.859,-0.33 19.328,-5.35 25.141,-14.93 l 3.429,-5.65 -60.269,-17.93 z m 28.769,84.72 c -5.59,0 -9.972,-0.4 -14.019,-1.3 -14.942,-2.89 -27.403,-10.22 -37.172,-21.83 -9.578,-11.4 -14.711,-24.85 -15.25,-39.98 -0.281,-5.04 0.051,-9.38 1.019,-13.74 2.641,-15.02 9.7,-27.46 21.032,-37.21 11.039,-9.76 24.179,-14.96 39.078,-15.49 l 2.621,-0.05 c 10.488,0 20.109,2.37 29.211,7.21 l -12.961,8.21 c -4.32,-2.01 -8.879,-2.89 -13.68,-2.61 -12.379,0.34 -21.691,6.59 -26.762,18.06 l -2.429,5.51 90.64,23.25 c 0.25,6.51 -0.078,12.28 -0.968,17.17 -2.621,14.95 -9.5,27.15 -21.039,37.35 -11.711,9.85 -24.614,14.93 -39.321,15.45 m -2.691,-139.81 c -0.988,0 -1.988,0.02 -2.988,0.06 -17.321,0.62 -32.614,6.68 -45.422,18 -13.11,11.28 -21.321,25.74 -24.321,42.91 -1.14,5.07 -1.539,10.29 -1.211,16.19 0.614,17.36 6.551,32.9 17.633,46.08 11.309,13.46 25.75,21.95 42.91,25.26 4.661,1.04 9.719,1.51 16.27,1.51 17.258,-0.6 32.18,-6.47 45.809,-17.92 13.242,-11.71 21.429,-26.24 24.41,-43.28 1.199,-6.58 1.519,-14.45 0.922,-23.33 l -0.25,-3.68 -85.43,-21.91 c 3.488,-4.31 8.34,-6.5 14.68,-6.67 l 1.289,-0.04 c 3.379,0 6.5,0.89 9.558,2.72 l 2.692,1.61 31.578,-19.98 -6.36,-4.39 c -12.668,-8.71 -26.718,-13.14 -41.769,-13.14" /><path
         id="path230"
         style="fill:#e22228;fill-opacity:1;fill-rule:evenodd;stroke:none"
         d="m 587.496,1761.01 c -0.281,7.65 2.27,13.88 7.649,19.28 5.109,5.37 11.628,7.65 19,7.37 9.351,-0.29 16.152,-4.54 20.968,-12.48 l -47.617,-14.17 z m 89.289,26.08 c -2.832,16.16 -10.488,29.48 -22.68,40.25 -12.468,10.48 -26.359,16.16 -42.519,16.73 -5.102,0 -10.199,-0.29 -15.301,-1.43 -16.16,-3.11 -29.48,-11.05 -39.969,-23.52 -10.492,-12.48 -15.882,-26.93 -16.441,-43.09 -0.289,-5.1 0,-9.92 1.129,-15.02 2.84,-16.16 10.492,-29.48 22.68,-39.97 12.191,-10.77 26.363,-16.16 42.242,-16.72 15.019,-0.57 28.91,3.39 41.66,12.19 l -22.391,14.17 c -4.25,-2.55 -8.789,-3.7 -13.609,-3.4 -10.481,0.27 -18.141,5.38 -22.391,15.02 l 88.442,22.68 c 0.566,8.5 0.289,15.87 -0.852,22.11" /><path
         id="path232"
         style="fill:#000000;fill-opacity:1;fill-rule:nonzero;stroke:none"
         d="m 741.047,1818.55 c -13.383,0 -26.082,-4.25 -37.75,-12.64 -15.172,-10.91 -23.953,-25.21 -26.863,-43.71 -2.957,-18.88 0.839,-35.45 11.601,-50.68 10.82,-15.04 25.449,-24.27 43.481,-27.41 3.449,-0.66 6.949,-1 11.429,-0.93 l -1.898,13.59 c -2.543,-0.22 -4.953,-0.13 -7.281,0.25 -8.891,1.71 -15.871,6.12 -20.879,13.12 -5.102,7.15 -7.032,15.27 -5.723,24.13 1.813,9.09 6.25,15.98 13.231,20.75 6.82,4.89 14.718,6.71 23.5,5.37 3.558,-0.64 6.789,-1.75 9.691,-3.34 l 24.168,50.74 c -7.379,4.82 -15.688,8.07 -24.77,9.71 -4.019,0.7 -8.05,1.05 -11.937,1.05 m 1.59,-145.57 c -4.903,0 -9.012,0.34 -12.953,1.09 -20.668,3.61 -37.5,14.22 -49.95,31.52 -12.23,17.3 -16.73,36.86 -13.379,58.2 3.309,21.03 13.731,38 30.981,50.39 17.301,12.46 36.699,16.96 57.43,13.37 12.097,-2.17 23.031,-6.87 32.519,-13.98 l 3.34,-2.52 -33.398,-70.09 -5.09,4.68 c -2.633,2.41 -5.973,3.99 -9.903,4.68 -5.539,0.84 -11.187,-0.23 -15.988,-3.66 -4.859,-3.32 -7.781,-7.91 -9.019,-14.14 -0.891,-6 0.398,-11.47 3.957,-16.45 3.429,-4.8 8.269,-7.84 14.39,-9 2.321,-0.39 5.43,-0.23 8.66,0.52 l 5.43,1.25 4.949,-35.45 -5.597,-0.25 c -2.153,-0.09 -4.282,-0.16 -6.379,-0.16" /><path
         id="path234"
         style="fill:#e22228;fill-opacity:1;fill-rule:evenodd;stroke:none"
         d="m 734.609,1702.05 c -7.371,1.41 -13.32,5.09 -17.57,11.05 -4.262,5.95 -5.961,12.76 -4.82,20.41 1.41,7.09 4.82,13.04 11.051,17.29 5.949,4.25 12.468,5.68 19.839,4.54 4.821,-0.86 9.071,-2.83 12.481,-5.95 l 28.629,60.09 c -9.071,6.81 -19.281,11.06 -30.328,13.04 -19.563,3.4 -37.422,-0.85 -53.582,-12.47 -16.161,-11.62 -25.789,-27.21 -28.911,-47.07 -3.121,-19.84 0.852,-37.97 12.469,-54.41 11.621,-16.16 27.211,-26.09 46.774,-29.48 5.949,-1.13 11.91,-1.13 18.136,-0.86 l -3.398,24.39 c -3.68,-0.85 -7.371,-1.14 -10.77,-0.57" /><path
         id="path236"
         style="fill:#000000;fill-opacity:1;fill-rule:nonzero;stroke:none"
         d="m 782.113,1682.82 24.981,-1.03 19.808,67.62 5.332,-8 c 3.899,0.45 7.942,0 11.989,-1.36 8.203,-2.51 12.382,-8.8 11.902,-17.59 l 32.867,-3.31 c 5.184,15.62 5.403,29.5 0.703,42.37 -5.172,13.96 -15.172,23.25 -30.55,28.38 -3.75,1.17 -8.04,2.01 -13.411,2.6 l -6.16,0.69 3.168,10.13 -41.84,13.35 -18.789,-133.85 z m 32.52,-11.55 -44.188,1.81 22.028,156.99 63.043,-20.11 -2.551,-8.16 c 3.398,-0.57 6.437,-1.29 9.308,-2.19 18.352,-6.12 30.762,-17.73 36.993,-34.56 5.769,-15.79 5.207,-33.36 -1.672,-52.23 l -0.031,-4.72 -5.579,0.49 -48.101,4.85 1.43,5.72 c 2.3,9.18 -1.93,10.48 -4.2,11.17 -3.258,1.09 -6.121,1.3 -8.949,0.75" /><path
         id="path238"
         style="fill:#e22228;fill-opacity:1;fill-rule:evenodd;stroke:none"
         d="m 892.781,1714.52 c 6.524,17.86 7.09,34.02 1.703,48.76 -5.671,15.3 -16.722,25.79 -33.73,31.46 -4.539,1.42 -9.359,2.27 -14.461,2.84 l 2.84,9.07 -52.442,16.72 -20.41,-145.42 34.582,-1.41 17.86,60.94 1.129,-1.7 c 4.25,1.13 8.5,0.85 12.761,-0.57 7.371,-2.26 9.918,-8.22 7.649,-17.29 l 42.242,-4.25 c 0,0.28 0,0.57 0.277,0.85" /><path
         id="path240"
         style="fill:#000000;fill-opacity:1;fill-rule:nonzero;stroke:none"
         d="m 928.57,1682.88 33.707,-6.67 c -1.617,4.29 -4.597,7.59 -9.027,10.04 -5.25,3.1 -10.531,3.66 -16.109,1.87 -3.391,-1.08 -6.231,-2.82 -8.571,-5.24 m 45.668,-19.42 -61.8,12.2 2.992,5.98 c 4.039,8.09 10.3,13.55 18.597,16.2 8.352,2.66 16.731,1.71 24.282,-2.73 9.441,-5.22 14.859,-13.9 15.531,-25.06 l 0.398,-6.59 z m -29.679,82.5 c -7.989,0 -16.079,-1.67 -24.02,-4.96 -13.828,-5.48 -24.391,-14.91 -31.48,-28.05 -2.45,-4.9 -4.098,-8.91 -5.27,-12.9 -4.449,-14.66 -3.762,-28.75 2.102,-43.14 5.828,-14.03 15.199,-24.84 27.859,-32.07 10,-5.74 20.258,-8.55 31.359,-8.59 l -7.91,13.51 c -4.469,0.22 -8.871,1.47 -13.09,3.72 -11.16,6.43 -16.398,16.11 -15.73,28.87 l 0.332,6.15 90.75,-22.11 c 3.219,5.64 5.539,10.9 6.909,15.68 4.28,15.04 3.62,29.16 -2.09,43.16 -5.78,13.91 -15.253,24.72 -28.139,32.07 -4.43,2.66 -8.774,4.58 -13,5.75 -6.301,1.95 -12.5,2.91 -18.582,2.91 m 0.742,-139.91 c -13,0 -24.992,3.25 -36.633,9.93 -14.648,8.38 -25.488,20.84 -32.219,37.06 -6.789,16.67 -7.582,32.98 -2.441,49.92 1.32,4.5 3.23,9.18 6,14.7 8.332,15.45 20.652,26.44 36.691,32.79 16.039,6.66 32.781,7.51 49.309,2.4 4.98,-1.39 10.172,-3.66 15.293,-6.74 14.797,-8.45 25.739,-20.92 32.419,-36.99 6.61,-16.24 7.41,-32.53 2.45,-49.85 -1.86,-6.57 -5.2,-13.77 -9.91,-21.4 l -1.95,-3.16 -85.33,20.77 c 1.129,-5.57 4.43,-9.82 10.079,-13.07 3.089,-1.64 6.281,-2.48 9.609,-2.48 l 4.27,0.21 19.171,-32.71 -7.808,-0.88 c -3.051,-0.34 -6.051,-0.5 -9,-0.5" /><path
         id="path242"
         style="fill:#e22228;fill-opacity:1;fill-rule:evenodd;stroke:none"
         d="m 919.996,1679.37 c 3.399,6.8 8.5,11.34 15.59,13.61 7.09,2.26 13.891,1.41 20.129,-2.27 8.219,-4.54 12.469,-11.62 13.039,-20.98 l -48.758,9.64 z m 91.274,-18.71 c 4.55,15.88 3.96,31.18 -2.27,46.49 -6.23,15.02 -16.434,26.65 -30.324,34.58 -4.25,2.55 -9.071,4.82 -14.18,6.24 -15.59,4.82 -30.891,3.97 -45.922,-2.27 -15.019,-5.95 -26.359,-16.16 -34.008,-30.33 -2.269,-4.54 -4.261,-9.07 -5.671,-13.89 -4.821,-15.87 -3.969,-31.18 2.269,-46.49 6.231,-15.02 16.152,-26.64 30.039,-34.58 13.332,-7.65 27.223,-10.49 42.524,-8.79 l -13.602,23.25 c -4.82,-0.29 -9.359,0.85 -13.609,3.11 -9.352,5.39 -13.61,13.33 -13.039,24.1 l 88.433,-21.54 c 4.54,7.37 7.66,14.17 9.36,20.12" /><path
         id="path244"
         style="fill:#000000;fill-opacity:1;fill-rule:nonzero;stroke:none"
         d="m 1036.17,1676.27 17.4,-14.11 -44.39,-37.43 c -1.61,-1.34 -3.21,-2.94 -4.8,-4.52 -9.888,-10.67 -14.638,-23.69 -14.368,-39.68 0.261,-15.66 5.742,-29.62 16.288,-41.49 1.85,-2.19 3.83,-4.16 5.9,-5.92 l 27.74,43.4 c -3.73,5.52 -5.41,11.45 -5.14,18.02 0.34,7.87 3.55,14.86 9.26,20.24 l 27.79,32.58 17.94,-14.63 8.69,13.04 -15.13,14.56 24.28,28.28 -10.06,10.92 -29.52,-25.04 -19.3,18.48 -12.58,-16.7 z m -21.14,-157.67 -4.33,2.89 c -4.43,2.96 -8.5,6.61 -12.106,10.86 -12.141,13.66 -18.481,29.84 -18.781,48.01 -0.309,18.49 5.48,34.27 17.23,46.93 1.937,1.94 3.767,3.76 5.587,5.26 l 34.93,29.45 -15.47,12.54 25.41,33.75 20.96,-20.07 29.99,25.43 22.83,-24.81 -23.91,-27.84 14.34,-13.79 -19.65,-29.48 -18.92,15.42 -21.71,-25.41 c -4.17,-3.96 -6.21,-8.41 -6.43,-13.63 -0.22,-5.21 1.38,-9.69 5.06,-14.09 l 2.39,-2.86" /><path
         id="path246"
         style="fill:#e22228;fill-opacity:1;fill-rule:evenodd;stroke:none"
         d="m 1046.14,1576.76 c -4.26,5.1 -6.51,10.77 -6.24,17.57 0.28,6.52 2.83,12.19 7.66,16.73 l 24.94,29.2 18.43,-15.03 14.17,21.26 -14.74,14.18 24.08,28.06 -16.43,17.86 -29.76,-25.23 -20.14,19.27 -18.98,-25.22 16.43,-13.33 -39.67,-33.45 c -1.7,-1.41 -3.4,-3.11 -5.1,-4.81 -11.067,-11.91 -16.157,-26.37 -15.888,-43.37 0.301,-17.01 6.25,-32.04 17.588,-44.79 3.1,-3.69 6.79,-7.09 11.04,-9.92" /><path
         id="path248"
         style="fill:#000000;fill-opacity:1;fill-rule:nonzero;stroke:none"
         d="m 1060.59,1498.97 c 0.96,0 1.89,-0.08 2.83,-0.23 2.5,-0.36 5.63,-1.76 10.34,-4.66 11.02,-6.25 21.65,-9.47 31.47,-9.47 8.79,0 17.25,2.6 25.16,7.71 2.99,1.84 6.16,4.36 10.38,8.25 9.14,9.15 14.41,19.95 15.94,32.86 1.34,12.91 -1.3,24.67 -8.07,35.87 -2.01,3.42 -4.68,6.54 -6.52,8.59 -11.69,12.56 -19.87,21.07 -24.73,25.73 l -41.57,-53.23 c 1.64,-1.35 3.46,-3.09 5.52,-5.3 4.17,-4.47 6.66,-7.56 8.07,-10.02 4.59,-6.85 3.29,-14.28 -3.74,-20.07 -4.03,-2.84 -7.16,-4.05 -10.21,-4.05 l -1.33,0.09 c -2.52,-0.2 -6.34,1.33 -11.19,4.44 -2.56,1.39 -5.16,2.43 -7.24,3.21 -4.11,1.51 -7.93,1.87 -11,1 -1.9,-0.5 -3.53,-1.18 -5.02,-2.08 l 13.66,-20.19 c 2.36,1.03 4.78,1.55 7.25,1.55 m -38.96,7.39 c -2.72,0 -5.17,-0.67 -7.49,-2.03 -4.02,-2.46 -6.51,-5.7 -7.55,-9.88 -1.29,-4.52 -0.86,-8.58 1.3,-12.92 2.11,-3.77 5.23,-6.2 9.45,-7.25 1.7,-0.51 3.08,-0.73 4.46,-0.73 2.49,0 5,0.73 7.68,2.22 3.97,2.2 6.4,5.32 7.46,9.53 1.38,4.66 0.9,8.8 -1.39,12.55 -2.35,4.23 -5.36,6.71 -9.59,7.98 -1.34,0.33 -2.89,0.53 -4.33,0.53 m 0.17,-43.01 0,0 c -2.35,0 -4.76,0.37 -7.18,1.09 -6.67,1.66 -12.19,5.95 -15.745,12.33 -3.398,6.77 -4.09,13.54 -2.148,20.32 1.648,6.64 5.753,12.08 12.163,15.99 5.96,3.5 12.66,4.37 19.79,2.58 l -2.47,3.62 3,2.98 c 3.56,3.55 7.74,5.92 12.77,7.27 4.93,1.4 11.05,1.01 17.25,-1.27 2.39,-0.89 5.5,-2.14 8.91,-4 4.74,-3.03 6.13,-3.04 6.89,-3.06 0.93,0 2.1,0.26 4.47,1.91 3.34,2.77 2.57,4.57 1.23,6.6 -1.16,1.97 -3.38,4.7 -6.85,8.42 -4.9,5.23 -6.68,5.85 -6.86,5.9 l -7.33,2.06 4.54,6.03 51.62,66.11 4.03,-3.16 c 4.05,-3.18 13.23,-12.52 29.76,-30.3 2.21,-2.45 5.32,-6.09 7.78,-10.25 7.79,-12.92 10.99,-27.15 9.45,-42.22 -1.82,-15.15 -8.23,-28.27 -19.05,-39.09 -4.86,-4.49 -8.52,-7.38 -11.98,-9.52 -9.5,-6.14 -19.82,-9.28 -30.61,-9.28 -11.6,0 -23.94,3.66 -36.66,10.89 -4.59,2.82 -6.21,3.28 -6.71,3.35 -2.84,0.45 -4.63,-0.32 -6.93,-2.11 l -4.3,-3.3 -2.85,4.2 c -0.19,-1.6 -0.52,-3.22 -1.01,-4.84 -1.66,-6.68 -5.95,-12.2 -12.32,-15.75 -4.24,-2.36 -8.38,-3.5 -12.65,-3.5" /><path
         id="path250"
         style="fill:#e22228;fill-opacity:1;fill-rule:evenodd;stroke:none"
         d="m 1039.9,1500.5 c -2.83,5.1 -6.8,8.5 -12.47,10.2 -5.67,1.42 -11.07,0.85 -15.88,-1.98 -5.1,-3.12 -8.5,-7.37 -9.92,-13.04 -1.696,-5.95 -0.85,-11.34 1.7,-16.44 2.84,-5.1 7.09,-8.5 12.76,-9.92 5.67,-1.7 10.77,-0.85 15.87,1.98 5.11,2.84 8.51,7.09 9.92,12.76 1.71,5.67 1.14,11.34 -1.98,16.44 m 104.32,-3.69 c 9.92,9.93 15.87,21.83 17.56,36 1.43,13.89 -1.41,26.93 -8.78,39.12 -1.98,3.4 -4.53,6.52 -7.08,9.36 -15.31,16.44 -25.23,26.64 -29.2,29.76 l -48.47,-62.08 c 2.26,-0.56 5.38,-3.12 9.35,-7.37 3.97,-4.25 6.24,-7.08 7.37,-9.07 3.4,-5.1 2.27,-9.64 -2.55,-13.6 -2.83,-1.99 -5.39,-3.12 -7.65,-2.84 -2.27,0 -5.11,1.13 -9.07,3.69 -3.12,1.7 -5.96,2.83 -8.23,3.68 -5.38,1.98 -10.2,2.27 -14.17,1.13 -4.25,-1.13 -7.65,-3.11 -10.49,-5.95 l 19,-28.06 c 3.68,2.83 7.37,3.68 10.77,3.12 1.98,-0.29 4.82,-1.7 8.5,-3.97 22.96,-13.04 43.65,-13.61 62.08,-1.7 3.68,2.27 7.37,5.38 11.06,8.78" /></g></g></svg>