<?xml version="1.0" encoding="UTF-8" standalone="no"?>
<!-- Created with Inkscape (http://www.inkscape.org/) -->

<svg
   xmlns:dc="http://purl.org/dc/elements/1.1/"
   xmlns:cc="http://creativecommons.org/ns#"
   xmlns:rdf="http://www.w3.org/1999/02/22-rdf-syntax-ns#"
   xmlns:svg="http://www.w3.org/2000/svg"
   xmlns="http://www.w3.org/2000/svg"
   xmlns:sodipodi="http://sodipodi.sourceforge.net/DTD/sodipodi-0.dtd"
   xmlns:inkscape="http://www.inkscape.org/namespaces/inkscape"
   id="svg6018"
   height="56mm"
   width="47mm"
   version="1.1"
   viewBox="0 0 166.53544 198.42517"
   inkscape:version="0.91 r13725"
   sodipodi:docname="boy_1.svg">
  <defs
     id="defs65" />
  <sodipodi:namedview
     pagecolor="#ffffff"
     bordercolor="#666666"
     borderopacity="1"
     objecttolerance="10"
     gridtolerance="10"
     guidetolerance="10"
     inkscape:pageopacity="0"
     inkscape:pageshadow="2"
     inkscape:window-width="1301"
     inkscape:window-height="864"
     id="namedview63"
     showgrid="false"
     inkscape:zoom="1.1893651"
     inkscape:cx="-60.086078"
     inkscape:cy="99.2126"
     inkscape:window-x="730"
     inkscape:window-y="12"
     inkscape:window-maximized="0"
     inkscape:current-layer="svg6018" />
  <metadata
     id="metadata6023">
    <rdf:RDF>
      <cc:Work
         rdf:about="">
        <dc:format>image/svg+xml</dc:format>
        <dc:type
           rdf:resource="http://purl.org/dc/dcmitype/StillImage" />
        <dc:title />
      </cc:Work>
    </rdf:RDF>
  </metadata>
  <g
     id="g131"
     transform="matrix(0.86347567,0,0,0.86347567,-30.588866,11.683987)">
    <path
       id="path133"
       d="m 99.5,166 c -0.2,-1.9 -0.5,-5.3 -0.2,-7.7 -10.7,-6.5 -17.7,-16 -17.5,-25.9 0,0 -8,-1.6 -9.5,-9 -1.2,-5.9 1.1,-9 3.6,-9.6 l -0.1,0 c -0.7,-2.8 -1.4,-6.6 -1.9,-11.6 -0.7,-7 -1.7,-13.4 -1.2,-19.9 -4.4,-0.3 -10.7,-2 -14.6,-9 0,0 4.4,1.2 9.3,-3 0,0 -11.1,-2.9 -11.7,-14.4 0,0 8,1 12.2,-3.3 l 0.3,-0.3 c -0.7,-0.5 -7.3,-4.7 -8.1,-12.4 0,0 5.9,3.2 16.3,-0.5 2.5,-0.9 5.3,-2.2 8.3,-4 0.5,-0.3 1,-0.6 1.6,-1 16.3,-10.7 39.7,-18.7 49.2,-11.8 0,0 -2.7,-7.3 -8.8,-10.1 0,0 8.5,-1.6 13.1,9.3 0.6,-1.7 3.7,-6.2 6.6,-7.5 5,-3.1 9.7,-4 9.7,-4.1 0.1,0.1 -3.6,1.2 -9.3,4.6 -4.2,2.4 -6.4,5.9 -6.9,7.1 0.1,0.1 0.1,0.2 0.1,0.4 0,0 9.9,-10.9 19.9,-4.8 0,0 -8.8,-0.1 -13.5,6.4 0,0 7.6,0.9 12.9,7.5 2.5,3.1 8.1,6.7 14.9,8.4 -0.4,-3.6 1.7,-2.9 3.9,0.7 6,0.8 12,-0.2 17.3,-3.2 1.2,-0.7 2.4,-1.5 3.6,-2.4 1.2,3.9 2.6,12.3 -0.7,17.3 2,-0.2 4.6,-1.2 6.1,-2.4 0,0 2,7.8 -2.5,14.4 0,0 3,0.5 5.6,-4 0,0 2.4,4.7 -3.4,13.6 -2.6,4 -10.3,28.1 -13.9,35.8 l -0.1,-0.1 c 2.7,2.1 2.6,8.5 0.5,13.9 -2.3,6 -9.3,4.6 -9.3,4.6 -5,23 -21.4,35.1 -39.6,38.3 1,3.1 -0.7,6.3 -1.1,7.2 0,0.1 0,0.3 -0.1,0.4 3.5,8.2 -0.7,13.9 -4.3,14.3 -3.1,0.3 -3.8,-2 -4,-2.6 l -0.1,0 c -0.5,0.8 -3.1,4.6 -9,6.6 -16.5,5.7 -29,-13.1 -23.6,-26.2 z"
       inkscape:connector-curvature="0"
       style="fill:#717170" />
    <path
       id="path135"
       d="m 117.1,199.3 c -8,0 -15.3,-4.1 -20.1,-11.3 -4.7,-6.9 -6,-15.5 -3.6,-22.8 -0.1,-1.1 -0.2,-2.4 -0.2,-3.7 -9.8,-6.8 -15.8,-15.6 -17.1,-24.8 -4,-2 -8.4,-5.8 -9.6,-12.1 -1.2,-5.9 0.2,-10.4 2.7,-13.3 -0.5,-2.6 -0.9,-5.5 -1.2,-8.5 -0.1,-1.6 -0.3,-3.1 -0.5,-4.7 -0.4,-3.7 -0.8,-7.2 -0.9,-10.7 -5.9,-1.7 -10.7,-5.5 -13.8,-11.1 -1.2,-2.2 -1.2,-5 0.5,-6.9 l 0.9,-0.9 c -2.4,-3.1 -4.3,-7.1 -4.5,-12.2 -0.1,-1.8 0.6,-3.5 1.9,-4.7 1.3,-1.2 3.1,-1.8 4.8,-1.5 0,0 0.5,0 1.1,0.1 -1.7,-2.5 -3.1,-5.7 -3.4,-9.6 -0.2,-2.3 0.7,-4.6 2.6,-5.8 1.9,-1.2 4.2,-1.3 6.1,-0.2 0.3,0.1 1.7,0.6 4,0.6 2.3,0 4.8,-0.5 7.5,-1.4 2.3,-0.8 4.7,-2 7.2,-3.5 l 0.1,-0.1 c 0.5,-0.3 0.8,-0.5 1.2,-0.8 0,0 0.1,0 0.1,-0.1 9.6,-6.3 24.7,-13.6 38,-15.1 -0.3,-0.8 -0.4,-1.7 -0.3,-2.6 0.3,-2.6 2.3,-4.6 4.8,-5.1 0.3,-0.1 1.1,-0.2 2.3,-0.2 2,0 7.4,0.5 12.1,5.1 1.1,-1 2.3,-1.9 3.5,-2.5 4.6,-2.9 9,-4.1 10.5,-4.5 0.3,-0.1 0.7,-0.2 1.1,-0.3 3.1,-0.5 6.1,1.5 6.8,4.6 0,0.2 0.1,0.5 0.1,0.8 l 0,0.5 c 0,0.5 -0.1,1 -0.2,1.6 0.4,0.2 0.8,0.4 1.2,0.7 2.3,1.4 3.4,4.2 2.6,6.8 -0.8,2.6 -3.2,4.4 -5.9,4.3 l -0.1,0 c 1.5,1.2 2.9,2.6 4.3,4.2 1,1.2 3.6,3.3 7.3,4.9 1.1,-0.7 2.4,-1.1 3.7,-1.1 2.3,0 4.5,1.1 6.4,3.4 3.9,0.1 7.5,-0.7 10.7,-2.5 0.1,-0.1 0.2,-0.1 0.4,-0.2 1,-0.5 1.9,-1.1 2.7,-1.8 1.5,-1.2 3.6,-1.6 5.5,-1.1 1.9,0.6 3.4,2 4,3.9 0.3,0.8 1.7,5.5 1.7,11 1.9,0.6 3.4,2.2 3.9,4.2 0.1,0.5 0.8,3.2 0.6,6.9 0.9,0.6 1.6,1.4 2.1,2.3 0.7,1.3 3.5,8.3 -3.8,19.5 -1.1,1.8 -4.6,11.3 -6.8,17.7 -1.9,5.4 -3.8,10.5 -5.3,14.3 2,4.8 1.3,11.3 -0.8,16.6 -1.7,4.5 -5.4,7.4 -10.2,8.3 -5.6,19.1 -19.2,32.4 -38.3,37.3 -0.2,0.9 -0.4,1.9 -0.8,2.8 1.5,5.1 1.1,10.1 -1.2,14 -2,3.4 -5.3,5.7 -8.8,6.1 -0.5,0 -0.9,0.1 -1.2,0.1 -1.1,0 -2.1,-0.2 -3.1,-0.5 -1.9,1.5 -4.3,3 -7.4,4.1 -2.6,1 -5.2,1.5 -7.9,1.5 z M 78.2,119.4 c -0.1,0.4 -0.2,1.3 0.1,2.9 0.7,3.3 4.7,4.3 4.7,4.3 2.9,0.6 4.9,3.1 4.8,6 -0.1,7.3 5.3,15 14.6,20.7 2,1.2 3.1,3.4 2.8,5.7 -0.1,1.4 -0.1,3.9 0.2,6.5 0.1,1 0,2 -0.4,2.9 -1.6,3.8 -0.8,9 1.9,13.1 2.5,3.8 6.2,6 10.1,6 1.3,0 2.7,-0.2 4.1,-0.7 4.1,-1.4 5.7,-4 5.8,-4.1 1.1,-1.8 3.1,-2.8 5.1,-2.8 0.6,0 1.2,0.1 1.8,0.3 0.7,0.2 1.3,0.5 1.8,0.9 0.2,-1 0,-2.5 -0.8,-4.5 -0.4,-1 -0.6,-2.2 -0.4,-3.3 0,-0.2 0.1,-0.4 0.1,-0.6 0.1,-0.6 0.3,-1.1 0.6,-1.6 0.7,-1.3 0.8,-2.3 0.7,-2.6 -0.5,-1.6 -0.3,-3.4 0.6,-4.9 0.9,-1.5 2.4,-2.5 4.1,-2.8 18.2,-3.1 30.9,-15.4 34.8,-33.6 0.3,-1.6 1.2,-3 2.5,-3.8 1.3,-0.9 2.9,-1.2 4.4,-0.8 l 0.6,0 c 1.7,0 1.9,-0.6 2.1,-0.9 1.3,-3.3 1.3,-6.3 1,-7.4 l -0.1,-0.1 c -2,-2 -2.3,-5.1 -0.9,-7.4 1.5,-3.4 3.7,-9.7 5.9,-15.7 3.9,-10.8 6.3,-17.5 8.1,-20.2 0.2,-0.3 0.3,-0.5 0.5,-0.8 -1.4,-0.6 -2.5,-1.7 -3.1,-3.1 -0.8,-1.9 -0.6,-4 0.5,-5.7 0.6,-0.9 1,-1.8 1.3,-2.7 -2.1,0 -4,-1.1 -5.1,-2.9 -1.2,-2 -1.1,-4.4 0.1,-6.3 0.7,-1 1,-2.6 1,-4.4 -3.9,1.5 -8,2.3 -12.3,2.3 -1.5,0 -3.1,-0.1 -4.7,-0.3 -0.8,-0.1 -1.6,-0.4 -2.2,-0.8 -0.8,0.1 -1.6,0.1 -2.3,-0.1 -7.5,-1.9 -14.4,-5.9 -18.1,-10.4 -3.6,-4.5 -8.9,-5.4 -8.9,-5.4 -1.5,-0.2 -2.8,-0.9 -3.7,-1.9 -1.1,0.4 -2.3,0.4 -3.5,0.1 -0.1,0 -0.2,0 -0.2,-0.1 -2,1 -4.4,0.8 -6.2,-0.5 -1.3,-0.9 -3.4,-1.4 -6.2,-1.4 -9.2,0 -24,5.5 -36.1,13.4 l -1.8,1.2 c -3.2,1.9 -6.3,3.5 -9.4,4.5 -2.5,0.9 -5,1.5 -7.4,1.8 0.2,0.2 0.4,0.3 0.5,0.3 1.5,1 2.5,2.6 2.7,4.4 0.2,1.8 -0.4,3.6 -1.7,4.8 l -0.3,0.3 c -2.4,2.5 -5.4,3.9 -8.3,4.6 2.1,2.4 4.9,3.2 5,3.2 2.2,0.6 3.8,2.3 4.3,4.5 0.5,2.2 -0.3,4.4 -1.9,5.9 -0.4,0.4 -0.8,0.7 -1.2,1 0.9,0.3 1.9,0.4 3,0.5 1.6,0.1 3.1,0.8 4.1,2 1.1,1.2 1.6,2.8 1.5,4.4 -0.3,4.5 0.2,9.1 0.7,14.1 0.2,1.6 0.3,3.2 0.5,4.9 0.3,3.7 0.9,7 1.5,9.8 0.2,0.5 0.3,1 0.4,1.5 0.3,2.6 -1,5.1 -3.3,6.2 -0.2,-0.5 -0.3,-0.5 -0.4,-0.4 z"
       inkscape:connector-curvature="0"
       style="fill:#676766" />
  </g>
  <path
     style="fill:#fefefe"
     inkscape:connector-curvature="0"
     d="m 55.326963,155.02095 c -0.172695,-1.64061 -0.431738,-4.57642 -0.172695,-6.64876 -9.23919,-5.6126 -15.283519,-13.81562 -15.110824,-22.36402 0,0 -6.907806,-1.38157 -8.203019,-7.77129 -1.036171,-5.0945 0.949823,-7.77128 3.108512,-8.28936 l -0.08635,0 C 34.258157,107.52979 33.653724,104.24858 33.221986,99.9312 32.617553,93.886871 31.754077,88.360626 32.185815,82.748035 28.386522,82.488992 22.946626,81.021083 19.57907,74.976754 c 0,0 3.799293,1.03617 8.030324,-2.590427 0,0 -9.58458,-2.50408 -10.102665,-12.43405 0,0 6.907805,0.863476 10.534403,-2.84947 l 0.259043,-0.259042 c -0.604433,-0.431738 -6.303373,-4.058336 -6.994153,-10.707099 0,0 5.094506,2.763122 14.074653,-0.431738 2.158689,-0.777128 4.576421,-1.899646 7.166848,-3.453902 0.431738,-0.259043 0.863476,-0.518086 1.381561,-0.863476 14.074654,-9.23919 34.279984,-16.146995 42.483003,-10.189013 0,0 -2.331384,-6.303372 -7.598586,-8.721104 0,0 7.339544,-1.381561 11.311532,8.030324 0.518085,-1.467909 3.19486,-5.35355 5.698939,-6.476068 4.317378,-2.676774 8.375718,-3.453903 8.375718,-3.54025 0.0863,0.08635 -3.10852,1.036171 -8.030328,3.971988 -3.626597,2.072342 -5.526244,5.094506 -5.957982,6.130677 0.08635,0.08635 0.08635,0.172695 0.08635,0.34539 0,0 8.548409,-9.411884 17.183162,-4.144683 0,0 -7.598582,-0.08635 -11.656918,5.526245 0,0 6.562418,0.777128 11.138838,6.476067 2.15869,2.676775 6.99415,5.785287 12.86579,7.253196 -0.34539,-3.108513 1.4679,-2.50408 3.36755,0.604433 5.18085,0.69078 10.36171,-0.172695 14.93813,-2.763123 1.03617,-0.604432 2.07234,-1.295213 3.10851,-2.072341 1.03617,3.367555 2.24504,10.620751 -0.60443,14.938129 1.72695,-0.172695 3.97199,-1.036171 5.2672,-2.072342 0,0 1.72695,6.735111 -2.15869,12.43405 0,0 2.59043,0.431738 4.83547,-3.453903 0,0 2.07234,4.058336 -2.93582,11.743269 -2.24504,3.453903 -8.8938,24.263667 -12.00231,30.912429 l -0.0863,-0.0863 c 2.33138,1.8133 2.24504,7.33955 0.43174,12.00231 -1.986,5.18086 -8.03033,3.97199 -8.03033,3.97199 -4.31738,19.85994 -18.47838,30.308 -34.193634,33.07112 0.863476,2.67678 -0.604433,5.4399 -0.949823,6.21703 0,0.0863 0,0.25904 -0.08635,0.34539 3.022164,7.0805 -0.604433,12.00231 -3.712946,12.3477 -2.676774,0.25904 -3.281207,-1.72695 -3.453902,-2.24504 l -0.08635,0 c -0.431738,0.69078 -2.676775,3.97199 -7.771281,5.69894 -14.247349,4.92181 -25.040794,-11.31153 -20.378026,-22.62306 z"
     id="path139" />
  <path
     style="fill:#fefefe"
     inkscape:connector-curvature="0"
     d="m 70.524135,182.91121 c -6.562415,0 -12.606745,-3.36755 -16.66508,-9.32553 -3.885641,-5.87164 -5.008159,-13.03849 -2.935818,-19.08282 -0.08635,-1.03617 -0.172695,-2.41773 -0.172695,-3.79929 -8.634757,-5.87163 -13.815611,-13.47022 -14.851781,-21.50054 -3.367556,-1.55426 -7.166848,-4.66277 -8.289367,-10.01632 -1.036171,-5.09451 0.259043,-8.80745 2.417732,-11.05249 -0.431738,-2.33138 -0.777128,-4.92181 -1.036171,-7.68493 -0.08635,-1.381565 -0.259042,-2.763126 -0.431738,-4.05834 -0.34539,-3.367555 -0.69078,-6.562415 -0.777128,-9.843622 -5.180854,-1.295214 -9.325537,-4.576421 -12.002312,-9.411885 -0.863475,-1.554256 -0.777128,-3.54025 0.345391,-4.921812 0.431738,-0.518085 0.949823,-0.863475 1.467908,-1.122518 -2.331384,-2.590427 -4.144683,-6.130677 -4.403726,-10.793446 -0.08635,-1.295213 0.431738,-2.504079 1.381562,-3.367555 0.949823,-0.863476 2.245036,-1.295213 3.453902,-1.122518 0,0 0.518086,0.08635 1.295214,0.08635 0.518085,0 1.036171,0 1.467908,-0.08635 -1.813299,-2.245037 -3.367555,-5.353549 -3.712945,-9.152842 -0.172695,-1.640604 0.518085,-3.281208 1.899646,-4.144684 1.381562,-0.863475 3.022165,-0.949823 4.403726,-0.172695 0.259043,0.08635 1.640604,0.604433 3.885641,0.604433 2.072341,0 4.403726,-0.431738 6.73511,-1.295213 2.072342,-0.690781 4.144683,-1.726952 6.38972,-3.108513 0,0 0.08635,0 0.08635,-0.08635 0.431737,-0.259043 0.777128,-0.431738 1.122518,-0.690781 0,0 0.08635,0 0.08635,-0.08635 8.548409,-5.612592 22.104977,-12.08866 33.589203,-13.038483 -0.518085,-0.863476 -0.777128,-1.899646 -0.69078,-2.935817 0.259042,-1.813299 1.640603,-3.367555 3.453902,-3.712946 0.259043,-0.08635 0.863476,-0.172695 1.813299,-0.172695 1.726952,0 6.38972,0.431738 10.448056,4.749116 1.036171,-1.03617 2.245037,-1.985994 3.453902,-2.590427 3.885641,-2.417731 7.68493,-3.453902 8.8938,-3.799293 l 0.0863,0 c 0.25904,-0.08635 0.51808,-0.172695 0.77713,-0.172695 2.24503,-0.34539 4.31737,1.122519 4.83546,3.281208 0,0.172695 0.0863,0.34539 0.0863,0.604433 l 0,0.08635 c 0,0.604433 0,1.295214 -0.34539,2.072342 0.51808,0.259043 1.12251,0.518085 1.6406,0.863476 1.6406,1.036171 2.41773,3.022165 1.89965,4.835463 -0.51809,1.899647 -2.33139,3.108513 -4.23103,3.108513 0,0 -1.03617,0 -2.41774,0.34539 1.8133,1.122519 3.6266,2.676775 5.26721,4.749116 1.12251,1.381561 3.71294,3.281208 7.0805,4.662769 0.86347,-0.690781 1.89964,-1.036171 3.02216,-1.036171 1.8133,0 3.54025,0.949823 5.09451,2.935817 3.71294,0.172696 7.0805,-0.604433 10.10266,-2.245036 0.0864,-0.08635 0.1727,-0.08635 0.25905,-0.172695 0.86347,-0.518086 1.72695,-1.036171 2.50408,-1.640604 1.12251,-0.863476 2.59042,-1.208866 3.97198,-0.777128 1.38156,0.431738 2.41774,1.467908 2.84947,2.763122 0.77713,2.331384 1.46791,6.04433 1.38156,9.92997 0.1727,0 0.43174,0.08635 0.60444,0.172695 1.38156,0.431738 2.41773,1.554256 2.84947,3.022165 0.0863,0.172695 0.69078,2.763122 0.43173,6.217025 0.77713,0.431738 1.46791,1.036171 1.89965,1.899646 0.51809,1.036171 2.84947,6.735111 -3.19486,15.9743 -0.94982,1.467909 -3.97199,9.92997 -5.95798,15.456215 -1.72695,4.749116 -3.36756,9.325537 -4.66277,12.606747 1.8133,3.88564 1.20887,9.49823 -0.60443,14.07465 -1.46791,3.71295 -4.57642,6.13068 -8.72111,6.73511 -4.66277,16.66508 -16.49238,28.14931 -33.157463,32.20764 -0.172695,1.03617 -0.431738,2.07235 -0.863475,3.10852 1.381561,4.23103 1.03617,8.46206 -0.863476,11.74327 -1.640604,2.76312 -4.231031,4.57642 -6.994153,4.83546 -0.34539,0 -0.690781,0.0863 -0.949823,0.0863 -1.036171,0 -1.985994,-0.1727 -2.763122,-0.51809 -1.554257,1.29521 -3.712946,2.67678 -6.562416,3.6266 -2.072341,0.86347 -4.317378,1.29521 -6.476067,1.29521 z M 36.244151,114.0922 c -0.172695,0.25904 -0.518086,1.29521 -0.172695,3.36756 0.69078,3.4539 4.749116,4.40372 4.749116,4.40372 2.072342,0.43174 3.54025,2.24504 3.453903,4.31738 -0.08635,6.56242 4.749116,13.55657 13.038482,18.56473 1.381561,0.86347 2.158689,2.41773 2.072342,4.05833 -0.08635,1.29522 -0.08635,3.45391 0.172695,5.78529 0.08635,0.69078 0,1.38156 -0.259043,2.07234 -1.467908,3.54025 -0.777128,8.28937 1.726952,12.08866 2.331384,3.54025 5.785287,5.52625 9.498232,5.52625 1.208866,0 2.504079,-0.25905 3.799293,-0.69078 3.799293,-1.29522 5.353549,-3.6266 5.439897,-3.88565 0.777128,-1.29521 2.158689,-2.07234 3.626597,-2.07234 l 0.08635,0 c 0.431738,0 0.863476,0.0864 1.208866,0.1727 0.863476,0.25904 1.640604,0.77713 2.158689,1.46791 0.518086,-0.94983 0.949823,-2.84947 -0.259043,-5.78529 -0.34539,-0.77713 -0.431737,-1.55426 -0.259042,-2.41773 0,-0.1727 0,-0.34539 0.08635,-0.51809 0.08635,-0.43174 0.259043,-0.77713 0.431738,-1.20886 0.604433,-1.12252 0.863476,-2.24504 0.690781,-2.84947 -0.345391,-1.20887 -0.172695,-2.50408 0.431737,-3.54025 0.604433,-1.03617 1.726952,-1.8133 2.935818,-1.986 16.060649,-2.76312 27.285829,-13.64291 30.739729,-29.70356 0.51809,-2.24504 2.67678,-3.79929 5.00816,-3.36756 l 0.60444,0 c 2.07234,0 2.41773,-0.94982 2.59042,-1.38156 1.38156,-3.54025 1.20887,-6.38972 0.86348,-7.16684 l -0.1727,-0.1727 c -1.4679,-1.46791 -1.72695,-3.71295 -0.60443,-5.4399 1.29521,-3.02216 3.28121,-8.462058 5.18086,-13.72926 3.2812,-9.239189 5.43989,-15.024476 6.9078,-17.269513 0.34539,-0.604433 0.69078,-1.122519 0.94982,-1.640604 -1.4679,-0.259043 -2.67677,-1.208866 -3.19486,-2.504079 -0.60443,-1.381561 -0.43173,-2.935818 0.34539,-4.144684 0.86348,-1.208866 1.29522,-2.504079 1.55426,-3.712945 -0.25904,0 -0.51809,0.08635 -0.77713,0.08635 -1.6406,0.172695 -3.19486,-0.690781 -4.05833,-2.072342 -0.86348,-1.381561 -0.77713,-3.19486 0.0863,-4.576421 0.86348,-1.295214 1.12252,-3.453903 1.03617,-5.612592 -3.54025,1.640604 -7.42589,2.417732 -11.48422,2.417732 -1.29522,0 -2.59043,-0.08635 -3.88564,-0.259043 -0.69078,-0.08635 -1.29522,-0.34539 -1.89965,-0.69078 -0.60443,0.172695 -1.29521,0.172695 -1.98599,0 -6.21703,-1.554256 -12.17501,-5.008159 -15.19717,-8.721105 -3.36756,-4.23103 -8.289371,-4.921811 -8.375718,-4.921811 -1.208866,-0.172695 -2.331385,-0.863476 -3.022165,-1.899646 -0.949824,0.518085 -2.072342,0.604433 -3.108513,0.34539 -0.172695,-0.08635 -0.34539,-0.08635 -0.518085,-0.172695 -1.467909,0.863475 -3.367555,0.863475 -4.749116,-0.172695 -1.208866,-0.863476 -3.281208,-1.381561 -5.871635,-1.381561 -8.203019,0 -20.896111,4.662768 -31.603209,11.656921 -0.518086,0.34539 -0.949824,0.604433 -1.554257,0.949823 -2.676774,1.640604 -5.353549,2.935818 -7.943976,3.885641 -2.763122,0.949823 -5.526244,1.554256 -8.203019,1.726951 0.949824,0.949823 1.813299,1.554256 2.072342,1.726952 1.122518,0.69078 1.813299,1.899646 1.985994,3.19486 0.172695,1.295213 -0.34539,2.590427 -1.208866,3.54025 -0.08635,0.08635 -0.172695,0.172695 -0.172695,0.259043 -2.331384,2.417731 -5.439897,3.54025 -8.116671,3.971988 1.899646,3.022164 5.094506,4.058335 5.612592,4.144683 1.554256,0.431738 2.676774,1.640604 3.022164,3.19486 0.345391,1.554256 -0.172695,3.19486 -1.381561,4.231031 -0.777128,0.69078 -1.640603,1.295213 -2.417732,1.726951 1.295214,0.604433 2.763123,0.949823 4.403726,1.036171 1.122519,0.08635 2.245037,0.604433 3.022165,1.467908 0.777128,0.863476 1.122519,1.985994 1.036171,3.108513 -0.259043,3.88564 0.172695,8.030324 0.604433,12.347702 0.172695,1.381561 0.259043,2.763122 0.431738,4.144683 0.259042,3.281205 0.777128,6.217025 1.381561,8.634755 0.172695,0.34539 0.259043,0.77713 0.34539,1.12252 0.259043,1.89965 -0.777128,3.6266 -2.417732,4.40373 -0.08635,0.34539 -0.34539,0.43173 -0.518085,0.51808 z m 63.638157,-93.600761 0,0.34539 0,-0.518085 0,0.172695 z"
     id="path141" />
  <g
     id="g143"
     transform="matrix(0.86347567,0,0,0.86347567,-30.588866,11.683987)">
    <path
       id="path145"
       d="m 81.8,132.4 c 0,0 -8,-1.6 -9.5,-9 -1.5,-7.4 2.6,-10.4 5.4,-9.6 2.8,0.8 2.4,3.1 4.6,3 2.2,-0.1 1.3,-4 0.7,-7.4 -0.7,-3.4 -3,-26.3 21.9,-47.6 0,0 -2,7.7 -0.5,8.2 1.6,0.6 7.6,-5.3 7.6,-5.3 0,0 -2.6,5.3 -0.5,5.7 2,0.3 12.8,-3.1 19.1,-7.5 0,0 -4.5,5.8 -1.2,5.9 3.3,0.1 11.1,-3.4 11.1,-3.4 0,0 8.4,5.4 22.3,-1.8 0,0 -4.2,11.7 0.5,18.1 0,0 2,-3.6 2.7,-7.1 0,0 0.1,6.3 6.2,16 6.1,9.7 9.4,15.7 8.2,20.8 0,0 5.3,-3.7 8.8,-2.3 3.5,1.4 3.5,8.4 1.2,14.4 -2.3,6 -9.3,4.6 -9.3,4.6 -6.1,28.4 -29.7,40.1 -52.5,39 -25.1,-1.2 -47.1,-17.2 -46.8,-34.7 z"
       inkscape:connector-curvature="0"
       style="fill:#f6d5b3" />
    <path
       id="path147"
       d="m 131.7,167.4 c -1,0 -2,0 -2.9,-0.1 -12.1,-0.6 -24.2,-4.7 -33.2,-11.3 -9,-6.6 -14,-15.1 -14,-23.5 -1.1,-0.3 -8.1,-2.2 -9.5,-9.1 -0.7,-3.4 -0.2,-6.4 1.3,-8.2 0.9,-1.1 2.2,-1.8 3.5,-1.8 0.3,0 0.6,0 0.9,0.1 1.5,0.4 2.1,1.2 2.6,1.9 0.5,0.7 0.9,1.2 1.9,1.1 0.4,0 0.6,-0.2 0.8,-0.4 0.8,-1 0.2,-3.9 -0.3,-6.5 l -0.1,-0.3 c -0.1,-0.3 -1.4,-7.2 1.4,-17.2 3.1,-11.3 10.1,-21.6 20.6,-30.6 0.1,-0.1 0.1,-0.1 0.2,0 0.1,0 0.1,0.1 0.1,0.2 -0.8,2.9 -1.6,7.6 -0.6,8 l 0.2,0 c 1.5,0 5.7,-3.8 7.2,-5.3 0.1,-0.1 0.2,-0.1 0.2,0 0.1,0.1 0.1,0.1 0.1,0.2 -0.5,1.1 -1.7,4 -1.2,5.1 0.1,0.2 0.3,0.3 0.5,0.4 l 0.3,0 c 2.6,0 12.7,-3.4 18.7,-7.5 0.1,-0.1 0.2,0 0.2,0 0.1,0.1 0.1,0.2 0,0.2 -0.8,1.1 -2.8,4 -2.3,5.2 0.1,0.3 0.4,0.4 0.9,0.5 3.2,0.1 11,-3.4 11,-3.4 l 0.2,0 c 0,0 3.1,1.9 8.4,1.9 4.4,0 9,-1.2 13.7,-3.7 l 0.2,0 c 0.1,0 0.1,0.1 0.1,0.2 0,0.1 -4,11.4 0.3,17.7 0.5,-0.9 1.9,-3.9 2.6,-6.8 0,-0.1 0.1,-0.1 0.2,-0.1 0.1,0 0.2,0.1 0.2,0.2 0,0.1 0.1,6.4 6.1,15.9 5.6,8.9 9.3,15.3 8.3,20.5 1,-0.7 4,-2.4 6.8,-2.4 0.7,0 1.3,0.1 1.9,0.3 3.7,1.5 3.6,8.7 1.4,14.6 -1.6,4.2 -5.6,4.9 -7.8,4.9 -0.7,0 -1.3,-0.1 -1.5,-0.1 -6.2,29 -29.7,39.2 -49.6,39.2 z M 76.9,113.9 c -1.2,0 -2.3,0.6 -3.2,1.6 -1.4,1.8 -1.9,4.6 -1.2,7.9 1.5,7.2 9.2,8.8 9.3,8.8 0.1,0 0.1,0.1 0.1,0.2 -0.1,8.3 4.9,16.8 13.8,23.3 8.9,6.6 20.9,10.7 33,11.3 1,0 2,0.1 2.9,0.1 19.8,0 43.2,-10.2 49.4,-39 0,-0.1 0.1,-0.2 0.2,-0.1 0,0 0.7,0.1 1.6,0.1 2.1,0 5.9,-0.6 7.5,-4.6 2.2,-5.7 2.3,-12.8 -1.1,-14.1 -0.5,-0.2 -1.1,-0.3 -1.7,-0.3 -3.2,0 -6.9,2.5 -6.9,2.6 l -0.2,0 c -0.1,0 -0.1,-0.1 -0.1,-0.2 1.2,-5.2 -2.4,-11.5 -8.2,-20.7 -4.6,-7.3 -5.8,-12.8 -6.1,-15 -0.9,3.2 -2.5,6.1 -2.5,6.1 0,0.1 -0.1,0.1 -0.1,0.1 -0.1,0 -0.1,0 -0.2,-0.1 -4.2,-5.7 -1.4,-15.7 -0.7,-17.9 -4.6,2.3 -9.2,3.5 -13.5,3.5 -5,0 -8,-1.6 -8.5,-1.9 -0.9,0.4 -7.7,3.4 -10.9,3.4 l -0.2,0 c -0.6,0 -1,-0.2 -1.2,-0.7 -0.5,-1.1 0.9,-3.5 1.7,-4.7 -6.1,3.9 -15.5,7 -18.1,7 l -0.4,0 c -0.3,-0.1 -0.6,-0.3 -0.8,-0.6 -0.5,-1 0.3,-3.3 0.8,-4.5 -1.5,1.4 -5.2,4.8 -6.8,4.8 -0.1,0 -0.2,0 -0.3,-0.1 -1.5,-0.6 -0.3,-5.9 0.2,-7.9 -10.2,8.9 -17,19 -20.1,30 -2.7,9.8 -1.4,16.7 -1.4,17 l 0.1,0.3 c 0.5,2.7 1.1,5.6 0.2,6.8 -0.3,0.3 -0.6,0.5 -1.1,0.5 l -0.2,0 c -1.1,0 -1.5,-0.6 -2,-1.2 -0.5,-0.6 -1.1,-1.4 -2.4,-1.7 -0.1,-0.1 -0.4,-0.1 -0.7,-0.1 z"
       inkscape:connector-curvature="0" />
  </g>
  <path
     id="path149"
     d="m 58.176433,75.235796 c 2.072341,-0.431738 3.54025,-2.072341 5.871634,-3.453902 -0.259042,0.949823 -2.158689,4.490073 0.863476,4.317378 4.231031,-0.863476 8.8938,-3.626598 13.211178,-4.490074 l -0.518086,1.899647 c 9.929971,-3.367555 19.600898,1.295213 29.530865,-2.072342 -0.60443,5.871635 -3.2812,12.261355 2.76313,15.887953 0.51808,-1.899647 1.03617,-3.799293 2.41773,-5.439897 0.51808,5.439897 4.49007,9.23919 8.7211,12.77944 -0.86347,-1.467909 -1.8133,-3.022165 -2.84947,-4.749116 -5.2672,-8.375714 -5.35355,-13.815611 -5.35355,-13.815611 -0.69078,3.108512 -2.33138,6.130677 -2.33138,6.130677 -4.05834,-5.526244 -0.43174,-15.628909 -0.43174,-15.628909 -11.915964,6.130677 -19.255507,1.554256 -19.255507,1.554256 0,0 -6.821458,3.022165 -9.58458,2.935817 -2.849469,-0.08635 1.036171,-5.094506 1.036171,-5.094506 -5.439897,3.712945 -14.765434,6.73511 -16.492385,6.476067 -1.726952,-0.34539 0.431738,-4.921811 0.431738,-4.921811 0,0 -5.180854,5.180854 -6.562415,4.576421 -1.381562,-0.518086 0.431737,-7.080501 0.431737,-7.080501 -16.578733,14.161001 -19.16916,29.09913 -19.255507,36.611367 2.84947,-11.225182 10.102665,-19.859939 15.369867,-29.962604 0.604433,1.208866 1.295213,2.417732 1.985994,3.54025 z"
     inkscape:connector-curvature="0"
     style="fill:#e8c09b" />
  <path
     id="path151"
     d="M 32.185815,82.834382 C 28.386522,82.57534 22.946626,81.107431 19.57907,75.063101 c 0,0 3.799293,1.036171 8.030324,-2.590427 0,0 -9.58458,-2.504079 -10.102665,-12.434049 0,0 7.253195,0.949823 10.793446,-3.19486 0,0 -6.303373,-3.712946 -6.994153,-10.707099 0,0 8.462061,4.490074 22.623062,-4.749116 14.074654,-9.23919 34.279984,-16.146995 42.483003,-10.189013 0,0 -2.331384,-6.303372 -7.598586,-8.721104 0,0 7.339544,-1.381561 11.311532,8.030324 0.518085,-1.467909 3.19486,-5.35355 5.698939,-6.476068 4.317378,-2.676774 8.375718,-3.453903 8.375718,-3.54025 0.0863,0.08635 -3.10852,1.036171 -8.030328,3.971988 -3.626597,2.072342 -5.526244,5.094506 -5.957982,6.130677 0.08635,0.08635 0.08635,0.172695 0.08635,0.34539 0,0 8.548409,-9.411884 17.183162,-4.144683 0,0 -7.598582,-0.08635 -11.656918,5.526245 0,0 6.562418,0.777128 11.138838,6.476067 2.15869,2.676775 6.99415,5.785287 12.86579,7.253196 -0.0863,-1.122519 0,-2.15869 0.86347,-2.072342 0.77713,0.172695 1.64061,1.295214 2.41773,2.676775 5.78529,0.777128 12.26136,-0.259043 18.04664,-4.835464 0,0 3.02217,9.411885 -0.60443,14.938129 0,0 2.93582,-0.259043 5.2672,-2.072342 0,0 1.72695,6.735111 -2.15869,12.43405 0,0 2.59043,0.431738 4.83547,-3.453903 0,0 2.07234,4.058336 -2.93582,11.743269 -2.24504,3.453903 -8.8938,24.263667 -12.00231,30.912429 -0.25904,-0.17269 -0.43174,-0.34539 -0.77713,-0.43174 -3.02216,-1.20886 -7.59859,1.986 -7.59859,1.986 1.03618,-4.40373 -1.81329,-9.584583 -7.0805,-17.960297 -5.2672,-8.375714 -5.35354,-13.815611 -5.35354,-13.815611 -0.69079,3.108512 -2.33139,6.130677 -2.33139,6.130677 -4.05833,-5.526244 -0.43174,-15.628909 -0.43174,-15.628909 -11.915961,6.130677 -19.255504,1.554256 -19.255504,1.554256 0,0 -6.821458,3.022165 -9.58458,2.935817 -2.84947,-0.08635 1.036171,-5.094506 1.036171,-5.094506 -5.439897,3.712945 -14.765434,6.73511 -16.492386,6.476067 -1.726951,-0.34539 0.431738,-4.921811 0.431738,-4.921811 0,0 -5.180854,5.180854 -6.562415,4.576421 -1.381561,-0.518086 0.431738,-7.080501 0.431738,-7.080501 -21.500544,18.392032 -19.51455,38.079277 -18.910117,41.015097 0.604433,2.93582 1.295213,6.30337 -0.604433,6.38972 -1.899647,0.0863 -1.467909,-1.89965 -3.971988,-2.59043 -0.518086,-0.17269 -1.122519,-0.17269 -1.640604,0 -0.604433,-2.41773 -1.208866,-5.69894 -1.640604,-10.016317 -0.518085,-5.957982 -1.381561,-11.484227 -1.036171,-17.010471 z"
     inkscape:connector-curvature="0" />
  <g
     id="g17"
     style="fill:#5b5b5b"
     transform="matrix(0.86347567,0,0,0.86347567,-30.588866,11.683987)">
    <path
       id="path153"
       d="m 62.5,46.5 c 2.4,3.8 5.8,5.8 5.8,5.8 L 68,52.6 c 6.5,4.6 14.7,8.9 19.6,1.9 -7.7,-2 -17.8,-3.2 -25.1,-8 z"
       inkscape:connector-curvature="0" />
    <path
       id="path155"
       d="m 184.3,56.8 c 2,-7 6.6,-13.1 11,-19.4 -2,1.1 -4.1,2 -6.2,2.5 -2.9,4.8 -6.7,8.8 -9.9,12.5 -1.5,3.5 -4.1,-8.8 -8.1,-7.6 -6.3,1.4 -4.1,9 -5.9,13.9 C 161.7,47 153.4,37 145.6,28 c -12,17.7 -26.4,11.6 -43,1.8 -5.4,-2.9 -8.3,4 -13.5,7.3 -1.3,0.8 -2.8,-0.2 -4.3,-1.7 -3,1.8 -5.8,3.1 -8.3,4 6.2,2.8 12.3,5.8 17.2,11.3 1.2,-5.9 -2.3,-13.8 2.5,-15.6 12.3,-5.3 20,11.5 31.9,15.4 9.9,2.6 14.9,-6.9 20.2,-14 8.1,11.4 12.1,24.1 18.4,36.6 4.6,-4.2 3.3,-12.3 6,-17.8 5.6,5.4 12,14 20.3,10 -6,0 -10.2,-5 -8.7,-8.5 z"
       inkscape:connector-curvature="0" />
    <path
       id="path157"
       d="m 188.8,60.3 c 5.4,-1 9.3,-4.6 12.5,-8.7 -1.7,0.6 -3,0.7 -3,0.7 1.7,-2.6 2.1,-5.8 2,-8.8 -3.1,6.4 -4.9,13.7 -11.5,16.8 z"
       inkscape:connector-curvature="0" />
  </g>
  <path
     id="path159"
     d="m 109.20784,82.661687 c -0.0863,0 -0.17269,0 -0.17269,-0.08635 0,0 -2.67677,-3.971989 -6.99415,-3.540251 -2.072345,0.172695 -3.108515,0.690781 -3.712948,0.949823 -0.777129,0.345391 -1.122519,0.431738 -1.985995,-0.172695 -0.259042,-0.172695 -0.259042,-0.431737 -0.172695,-0.69078 0.345391,-0.949823 2.763123,-2.072342 5.353548,-2.072342 1.986,0 5.61259,0.690781 7.85763,5.353549 0.0864,0.08635 0,0.259043 -0.0863,0.259043 l -0.0863,0 z m -6.56241,-4.058336 c 2.33138,0 4.14468,1.122519 5.2672,2.15869 -1.98599,-2.676775 -4.49007,-3.281208 -6.38972,-3.281208 -2.676773,0 -4.749115,1.208866 -5.008157,1.813299 0,0.08635 0,0.172695 0.08635,0.172695 0.690781,0.518085 0.863476,0.431738 1.554256,0.08635 0.690781,-0.345391 1.726952,-0.777128 3.885644,-0.949824 l 0.60443,0 z"
     inkscape:connector-curvature="0" />
  <path
     id="path161"
     d="m 109.20784,82.488992 c 0,0 -2.67677,-4.058336 -7.16684,-3.626598 -4.403729,0.431738 -3.971991,1.985994 -5.526247,0.863476 -1.554257,-1.208866 8.462057,-6.130677 12.693087,2.763122 z"
     inkscape:connector-curvature="0" />
  <path
     id="path163"
     d="m 54.981573,81.884559 -0.08635,0 c -0.08635,-0.08635 -0.08635,-0.172695 -0.08635,-0.259043 1.813299,-3.281207 4.144683,-3.971988 5.698939,-3.971988 2.331384,0 4.403726,1.467909 4.749116,2.50408 0.08635,0.259042 0,0.518085 -0.172695,0.69078 -0.34539,0.172695 -0.518085,0.259043 -0.777128,0.259043 -0.259043,0 -0.518085,-0.172695 -0.777128,-0.34539 -0.431738,-0.345391 -1.122518,-0.863476 -2.763122,-1.295214 -0.34539,-0.08635 -0.690781,-0.172695 -1.036171,-0.172695 -2.590427,0 -4.490073,2.504079 -4.576421,2.504079 -0.08635,0 -0.172695,0.08635 -0.172695,0.08635 z m 4.662769,-3.108512 c 0.431737,0 0.777128,0.08635 1.208865,0.172695 1.640604,0.431738 2.417732,1.03617 2.84947,1.381561 0.259043,0.172695 0.431738,0.34539 0.518086,0.34539 0.08635,0 0.34539,-0.08635 0.518085,-0.259043 0,0 0.08635,-0.08635 0,-0.259042 -0.259043,-0.777128 -2.072342,-2.15869 -4.317378,-2.15869 -1.122519,0 -2.676775,0.345391 -4.144684,1.985994 0.949824,-0.604432 2.072342,-1.208865 3.367556,-1.208865 z"
     inkscape:connector-curvature="0" />
  <path
     id="path165"
     d="m 54.981573,81.625516 c 0,0 2.504079,-3.367555 5.785287,-2.504079 3.367555,0.863475 2.84947,2.245037 4.144683,1.381561 1.295214,-0.777128 -5.785287,-6.303372 -9.92997,1.122518 z"
     inkscape:connector-curvature="0" />
  <path
     id="path167"
     d="m 72.164739,116.0782 -0.08635,0 c -0.08635,-0.0863 -0.172695,-0.1727 -0.08635,-0.25905 0.08635,-0.25904 2.849469,-6.30337 7.684933,-5.95798 4.576421,0.34539 7.771281,5.2672 8.116671,5.78529 0,0 0.08635,0.0863 0.08635,0.17269 0,0.0864 -0.08635,0.25905 -0.172695,0.1727 -0.08635,0 -0.08635,0 -0.172695,-0.0863 0,-0.0864 -4.144684,-4.40373 -7.943977,-4.57642 -3.799292,-0.1727 -7.166848,4.66277 -7.166848,4.66277 -0.08635,0.0863 -0.172695,0.0863 -0.259042,0.0863 z m 7.0805,-5.18086 0.259043,0 c 2.417732,0.1727 4.921811,1.8133 6.476067,3.10851 -1.381561,-1.55425 -3.626597,-3.62659 -6.38972,-3.79929 -2.676774,-0.17269 -4.749116,1.8133 -5.957982,3.54025 1.381561,-1.29521 3.367555,-2.84947 5.612592,-2.84947 z"
     inkscape:connector-curvature="0" />
  <path
     id="path169"
     d="m 87.620953,115.73281 c 0,0 -4.144683,-4.49008 -8.116671,-4.66277 -3.971988,-0.1727 -7.339543,4.74911 -7.339543,4.74911 0,0 2.763122,-6.21702 7.42589,-5.87163 4.749117,0.43174 8.030324,5.78529 8.030324,5.78529 z"
     inkscape:connector-curvature="0" />
  <path
     id="path171"
     d="m 93.665283,87.928889 c 0,0 5.353549,-6.04433 12.434047,-1.640604 7.16685,4.403726 8.54841,15.887955 3.88564,26.854095 0,0 -10.87979,-2.33139 -16.57873,-1.64061 0,0 -2.331384,-17.010466 0.259043,-23.572881 z"
     inkscape:connector-curvature="0"
     style="fill:#fefefe" />
  <path
     id="path173"
     d="m 95.651277,106.83901 c 0,3.36755 2.072342,6.13067 4.662773,6.13067 2.59042,0 4.66276,-2.76312 4.66276,-6.13067 0,-3.36756 -2.07234,-6.13068 -4.66276,-6.13068 -2.590431,0 -4.662773,2.67677 -4.662773,6.13068 z"
     inkscape:connector-curvature="0" />
  <path
     id="path175"
     d="m 99.623265,105.02571 c 0,1.29521 0.777125,2.41773 1.813295,2.41773 1.03617,0 1.8133,-1.03617 1.8133,-2.41773 0,-1.29522 -0.86347,-2.41773 -1.8133,-2.41773 -1.03617,0.0863 -1.813295,1.12251 -1.813295,2.41773 z"
     inkscape:connector-curvature="0"
     style="fill:#fefefe" />
  <path
     id="path177"
     d="m 109.98497,113.40142 c -0.0863,0 -0.17269,0 -0.17269,-0.0863 -0.0863,-0.0863 -0.0863,-0.17269 0.17269,-0.86347 2.76313,-7.0805 2.93582,-13.815613 0.51809,-20.032638 -1.20887,-3.453903 -5.52625,-7.253195 -9.75728,-7.253195 l -0.0863,0 c -3.626602,0.08635 -5.957986,2.072341 -6.821462,2.935817 -0.08635,0.08635 -0.172695,0.172695 -0.259043,0.172695 -0.08635,0 -0.172695,0 -0.172695,-0.08635 l 0,-0.172695 c 0,0 0,-0.08635 0.08635,-0.08635 l 0.08635,-0.08635 c 1.640604,-1.899646 3.799293,-2.763122 5.353549,-3.19486 0.604433,-0.172695 1.208866,-0.259043 1.899646,-0.259043 3.71295,0 8.54841,2.676775 10.7071,7.684934 2.84947,6.994153 1.38156,13.038478 0.60443,15.974298 -0.77713,2.76312 -1.55425,4.40373 -1.8133,5.00816 0,0.0863 -0.0863,0.1727 -0.0863,0.1727 0,0.0863 -0.0864,0.0863 -0.0864,0.17269 -0.0863,-0.0863 -0.0863,0 -0.1727,0 z m -6.9078,-28.408349 c 3.54025,1.036171 6.82146,4.231031 7.85763,7.253196 1.4679,3.885641 1.98599,7.943973 1.4679,12.175003 0.51809,-3.19486 0.60444,-7.512234 -1.29521,-12.261351 -1.6406,-3.971988 -4.92181,-6.38972 -8.03032,-7.166848 z"
     inkscape:connector-curvature="0" />
  <path
     id="path179"
     d="m 111.28019,91.987224 c -2.41774,-5.698939 -8.46206,-8.462061 -12.347705,-7.253195 -3.885641,1.03617 -5.35355,3.367555 -5.35355,3.19486 -0.08635,0.08635 2.50408,-3.022165 7.080505,-3.108513 4.57642,-0.08635 8.80745,4.058336 10.10266,7.425891 4.31738,11.311533 -1.12252,21.068803 -0.77713,20.896113 -0.0863,0 0.86348,-1.72695 1.89965,-5.2672 0.86348,-3.45391 2.15869,-9.239193 -0.60443,-15.887956 z"
     inkscape:connector-curvature="0" />
  <path
     id="path181"
     d="m 112.14366,113.22873 c 2.93582,-0.77713 5.4399,0.43173 5.4399,0.43173 0.0863,-0.17269 -3.54025,-1.8133 -5.61259,-1.03617 -3.28121,0.94983 -4.40373,3.7993 -4.49008,3.6266 0.0863,0.1727 1.20887,-1.89965 4.66277,-3.02216 z"
     inkscape:connector-curvature="0" />
  <path
     id="path183"
     d="m 69.142574,87.756194 c 0,0 -5.353549,-6.04433 -12.43405,-1.640604 -7.166848,4.403726 -8.548409,15.88795 -3.88564,26.85409 0,0 10.879793,-2.33138 16.578733,-1.6406 0,0 2.331384,-17.010471 -0.259043,-23.572886 z"
     inkscape:connector-curvature="0"
     style="fill:#fefefe" />
  <path
     id="path185"
     d="m 67.15658,106.57996 c 0,3.36756 -2.072342,6.13068 -4.662769,6.13068 -2.590427,0 -4.662768,-2.76312 -4.662768,-6.13068 0,-3.36755 2.072341,-6.13067 4.662768,-6.13067 2.590427,0 4.662769,2.76312 4.662769,6.13067 z"
     inkscape:connector-curvature="0" />
  <path
     id="path187"
     d="m 63.184592,104.85301 c 0,1.38156 -0.777128,2.41773 -1.813299,2.41773 -1.036171,0 -1.813299,-1.03617 -1.813299,-2.41773 0,-1.29521 0.777128,-2.33138 1.813299,-2.33138 1.036171,0 1.813299,1.03617 1.813299,2.33138 z"
     inkscape:connector-curvature="0"
     style="fill:#fefefe" />
  <path
     id="path189"
     d="m 52.822884,113.22873 -0.08635,0 c -0.08635,0 -0.08635,-0.0863 -0.08635,-0.1727 0,0 0,-0.0864 -0.08635,-0.17269 -0.259043,-0.51809 -1.036171,-2.24504 -1.813299,-5.09451 -1.122518,-4.40373 -1.899646,-9.757276 0.604433,-15.974301 2.072342,-5.008159 6.994153,-7.684933 10.620751,-7.684933 0.69078,0 1.295213,0.08635 1.899646,0.259042 2.158689,0.604433 3.885641,1.640604 5.267202,3.108513 l 0.08635,0.08635 0.08635,0.08635 0.08635,0 c 0.08635,0 0.08635,0.08635 0.08635,0.172695 0,0.08635 -0.08635,0.08635 -0.08635,0.172695 l -0.08635,0 c -0.08635,0 -0.172695,-0.08635 -0.259043,-0.172695 -1.985994,-1.899646 -4.317378,-2.84947 -6.821457,-2.935817 l -0.08635,0 c -4.144683,0 -8.462062,3.799293 -9.757275,7.253195 -2.331384,6.217025 -2.158689,12.952131 0.518085,20.032631 0.259043,0.60444 0.259043,0.69079 0.172695,0.86348 -0.172695,0.0863 -0.172695,0.1727 -0.259042,0.1727 z m 6.821458,-28.408354 c -3.022165,0.863476 -6.303373,3.19486 -7.943977,7.080501 -1.899646,4.576421 -1.899646,8.721103 -1.295213,12.261353 -0.431738,-4.23103 0,-8.289365 1.467908,-12.175006 0.949824,-2.590427 3.971989,-6.044329 7.771282,-7.166848 z"
     inkscape:connector-curvature="0" />
  <path
     id="path191"
     d="m 51.52767,91.814529 c 2.417732,-5.698939 8.462062,-8.462061 12.347702,-7.253195 3.885641,1.03617 5.353549,3.367555 5.353549,3.19486 0.08635,0.172695 -2.504079,-3.022165 -7.0805,-3.022165 -4.490074,-0.08635 -8.807452,4.058335 -10.102665,7.42589 -4.317379,11.311531 1.122518,21.068811 0.777128,20.896111 0,0 -0.863476,-1.72695 -1.899647,-5.2672 -0.949823,-3.54025 -2.158689,-9.325538 0.604433,-15.974301 z"
     inkscape:connector-curvature="0" />
  <path
     id="path193"
     d="m 50.750542,113.05603 c -2.935817,-0.77713 -5.526244,0.43174 -5.439897,0.34539 -0.172695,-0.17269 3.540251,-1.8133 5.612592,-0.94982 3.367555,0.94982 4.403726,3.79929 4.490074,3.6266 -0.172695,0.17269 -1.295214,-1.89965 -4.662769,-3.02217 z"
     inkscape:connector-curvature="0" />
  <g
     id="g195"
     transform="matrix(0.86347567,0,0,0.86347567,-30.588866,11.683987)">
    <path
       id="path197"
       d="m 155.1,126.1 c -0.8,7.1 -11.2,11.4 -16.6,12.1 l -13.2,3.7 c -0.3,0.6 -4.2,-6 -7.6,-5.4 -8,1.5 -13.7,-6.7 -13.7,-6.8 l -0.1,0 -0.1,0 0,0.1 0,0.1 c 0.1,0.1 5.9,8.4 14,6.9 l 7.8,5.2 c -7.5,-8 1.7,1.8 12.9,-3.5 4.9,-0.6 16,-4.6 16.8,-12.4 0,-0.1 -0.1,-0.2 -0.1,-0.2 0,0.1 -0.1,0.1 -0.1,0.2 z"
       inkscape:connector-curvature="0" />
    <path
       id="path199"
       d="m 125.7,142.4 c -0.1,0 -0.2,0 -0.2,-0.1 l -0.1,0 c -0.3,0 -0.5,-0.1 -0.9,-0.6 l -6.7,-4.5 c -0.6,0.1 -1.3,0.2 -1.9,0.2 -6.6,0 -11.4,-6 -12.3,-7.2 0,0 -0.1,-0.1 -0.1,-0.2 l 0,-0.1 0,-0.2 0,-0.1 c 0,-0.1 0.1,-0.2 0.3,-0.3 l 0.1,0 0.2,0 0.1,0 c 0.1,0 0.1,0 0.2,0.1 l 0.1,0.1 c 0.8,1.1 5.3,6.8 11.4,6.8 0.6,0 1.3,-0.1 1.9,-0.2 1.7,-0.3 3.5,1 4.9,2.4 0.1,-0.1 0.2,-0.2 0.4,-0.2 0.3,0 0.7,0.1 1.3,0.3 1.4,0.4 3.8,1.1 6.7,1.1 l 0.2,0 7.1,-2 c 5.2,-0.7 15.5,-4.9 16.3,-11.8 0,-0.2 0.2,-0.5 0.5,-0.5 l 0.1,0 c 0.3,0 0.5,0.3 0.5,0.5 -0.9,8 -12.1,12.1 -17.1,12.7 -2.3,1.1 -4.7,1.6 -7.2,1.7 l -5.4,1.5 c -0.1,0.5 -0.2,0.6 -0.4,0.6 z m -2.1,-3.2 c 0.4,0.5 1.1,1.3 2,2.2 l 3.5,-1 c -2.1,-0.2 -3.8,-0.7 -4.9,-1.1 -0.2,0 -0.4,0 -0.6,-0.1 z m -5.1,-2.3 4,2.7 c -1.1,-1.3 -2.6,-2.6 -4,-2.7 z"
       inkscape:connector-curvature="0" />
  </g>
  <g
     id="g201"
     transform="matrix(0.86347567,0,0,0.86347567,-30.588866,11.683987)">
    <path
       id="path203"
       d="m 138.5,138.5 c 0,0 -2.7,13.2 -9.6,13.5 -11.3,0.5 -11.3,-12.5 -8.6,-14.7 1.5,-1 6.3,1.1 9.8,1.5 3.1,0.4 7.6,-1.3 8.4,-0.3 z"
       inkscape:connector-curvature="0"
       style="fill:#7d302d" />
    <path
       id="path205"
       d="m 128.4,152.5 c -6.1,0 -8.4,-3.9 -9.3,-6.2 -1.4,-3.8 -0.7,-8.1 0.9,-9.4 0.4,-0.3 0.9,-0.4 1.5,-0.4 1.2,0 2.8,0.4 4.5,0.9 1.4,0.4 2.8,0.8 4.1,0.9 1.4,0.2 3.1,-0.1 4.6,-0.3 1,-0.2 1.9,-0.3 2.6,-0.3 0.5,0 1.2,0.1 1.5,0.5 0.1,0.1 0.1,0.3 0.1,0.4 -0.1,0.6 -2.8,13.6 -10.1,13.9 l -0.4,0 z m -6.9,-15 c -0.4,0 -0.7,0.1 -0.9,0.2 -1.1,0.9 -1.9,4.7 -0.6,8.3 0.9,2.5 3.1,5.5 8.3,5.5 l 0.6,0 c 5.9,-0.2 8.6,-10.8 9.1,-12.8 -0.4,-0.1 -1.7,0 -3.1,0.2 -1.2,0.2 -2.5,0.4 -3.8,0.4 -0.4,0 -0.8,0 -1.1,-0.1 -1.3,-0.2 -2.8,-0.6 -4.2,-0.9 -1.7,-0.4 -3.2,-0.8 -4.3,-0.8 z"
       inkscape:connector-curvature="0" />
  </g>
  <g
     id="g207"
     transform="matrix(0.86347567,0,0,0.86347567,-30.588866,11.683987)">
    <path
       id="path209"
       d="m 149.3,125.5 c -0.1,0 -0.1,0.1 -0.1,0.2 0,0.1 0.1,0.1 0.2,0.1 0.1,0 5.6,-1.2 8.1,2 0.1,0.1 0.1,0.1 0.2,0 0.1,-0.1 0.1,-0.1 0,-0.2 -2.7,-3.3 -8.2,-2.2 -8.4,-2.1 z"
       inkscape:connector-curvature="0" />
    <path
       id="path211"
       d="m 157.6,128.2 c -0.2,0 -0.3,-0.1 -0.4,-0.2 -1.4,-1.7 -3.7,-2 -5.4,-2 -0.5,0 -1.4,0 -2.3,0.2 -0.3,0.1 -0.5,-0.1 -0.6,-0.4 l 0,-0.4 c 0.1,-0.1 0.2,-0.2 0.3,-0.2 l 0.2,0 c 0.3,-0.1 1.3,-0.2 2.5,-0.2 1.9,0 4.5,0.4 6.2,2.4 0.2,0.3 0.1,0.5 -0.1,0.7 -0.2,0 -0.3,0.1 -0.4,0.1 z"
       inkscape:connector-curvature="0" />
  </g>
  <path
     id="path213"
     d="m 55.499658,156.31616 c 0,0 -1.122518,-8.8938 0.345391,-10.27536 1.554256,-1.38156 10.966141,-2.50408 11.570574,-1.03617 1.295213,3.02217 1.985994,7.16685 -0.431738,9.84362 -1.899647,2.07234 -4.490074,1.20887 -7.598586,0.86348 l -3.885641,0.60443 z"
     inkscape:connector-curvature="0"
     style="fill:#f6d5b3" />
  <path
     id="path215"
     d="m 55.154268,156.5752 c 0,0 -0.604433,-4.14468 -0.518085,-7.25319 l 0.777128,0 c -0.08635,3.02216 0.34539,6.73511 0.34539,6.73511 l -0.604433,0.51808 z m -0.431738,-7.33954 c 0.08635,-1.6406 0.259043,-3.02216 0.863476,-3.54025 l 0.518085,0.60443 c -0.431738,0.34539 -0.604433,1.55426 -0.604433,2.93582 l -0.777128,0 z m 0.863476,-3.4539 c 0.172695,-0.1727 0.518085,-0.34539 0.863476,-0.51809 l 0.34539,0.69078 c -0.259043,0.0863 -0.518086,0.25905 -0.604433,0.34539 l -0.604433,-0.51808 z m 0.863476,-0.51809 c 1.381561,-0.60443 3.88564,-1.03617 6.130677,-1.20886 l 0.08635,0.77713 c -2.245036,0.17269 -4.576421,0.60443 -5.871634,1.20886 l -0.34539,-0.77713 z m 6.044329,-1.29521 c 2.331385,-0.1727 4.490074,-0.0863 5.094507,0.60443 l -0.604433,0.51809 c -0.431738,-0.43174 -2.331385,-0.51809 -4.403726,-0.34539 l -0.08635,-0.77713 z m 5.180854,0.60443 c 0.08635,0.0864 0.08635,0.1727 0.172695,0.25905 l -0.777128,0.34539 0.604433,-0.60444 z m 0.08635,0.25905 c 0.777128,1.72695 1.295213,3.79929 1.208866,5.78528 l -0.777128,-0.0864 c 0.08635,-1.89964 -0.431738,-3.88564 -1.122519,-5.43989 l 0.690781,-0.25904 z m 1.208866,5.87163 c -0.08635,1.6406 -0.604433,3.19486 -1.726952,4.49007 l -0.604433,-0.51808 c 1.036171,-1.12252 1.467909,-2.50408 1.554257,-3.97199 l 0.777128,0 z m -1.726952,4.40373 c -1.726951,1.89964 -3.88564,1.55425 -6.38972,1.20886 l 0.08635,-0.77713 c 2.331384,0.25905 4.317378,0.60444 5.698939,-0.94982 l 0.604433,0.51809 z m -6.303372,0.86347 -0.08635,0.43174 c -0.259042,0 -0.34539,-0.25904 -0.34539,-0.43174 0,-0.25904 0.259043,-0.34539 0.431738,-0.34539 l 0,0.34539 z m 0,0.34539 c -0.518085,-0.0864 -1.036171,-0.0864 -1.554256,-0.17269 l 0.08635,-0.77713 c 0.518086,0.0863 1.036171,0.0863 1.640604,0.17269 l -0.172695,0.77713 z m -1.554256,-0.51808 -0.08635,0.43173 c -0.259042,0 -0.431738,-0.25904 -0.34539,-0.43173 0,-0.25905 0.259043,-0.34539 0.431738,-0.34539 l 0,0.34539 z m 0,0.34539 -3.799293,0.51808 -0.08635,-0.77713 3.799293,-0.51808 0.08635,0.77713 z m -3.885641,0.17269 0.08635,0.43174 c -0.259043,0 -0.431738,-0.0863 -0.431738,-0.34539 0,-0.25904 0.08635,-0.43174 0.34539,-0.43174 l 0,0.34539 z"
     inkscape:connector-curvature="0" />
  <path
     id="path217"
     d="m 75.704989,177.64401 c 5.698939,-1.98599 7.771281,-5.87163 7.771281,-5.87163 0,0 0.259043,2.76312 3.453903,2.41773 3.108512,-0.34539 6.73511,-5.35355 3.626598,-12.5204 0,0 4.23103,-6.82146 -2.331385,-10.10266 0,0 1.381561,-3.36756 -0.172695,-5.87164 -1.554256,-2.50408 -10.27536,-2.33138 -13.383873,-0.0864 0,0 7.512239,-23.22749 5.439897,-27.97661 -2.072342,-4.74911 -9.152842,-6.13068 -9.92997,-0.77713 -0.863476,5.35355 -5.69894,25.38619 -8.980147,31.17148 -15.28352,9.75727 -3.022165,35.66154 14.506391,29.61721 z"
     inkscape:connector-curvature="0"
     style="fill:#f6d5b3" />
  <path
     id="path219"
     d="m 75.618641,177.29862 c 5.526245,-1.89965 7.598586,-5.61259 7.598586,-5.61259 l 0.777128,0.34539 c 0,0 -2.158689,4.05833 -8.030323,6.04433 l -0.345391,-0.77713 z m 7.943977,-5.4399 -0.345391,-0.17269 c 0.08635,-0.1727 0.345391,-0.25904 0.604433,-0.1727 0.172695,0.0864 0.259043,0.34539 0.172695,0.51809 l -0.431737,-0.1727 z m 0.431737,-0.0863 c 0,0 0.259043,2.33138 3.022165,2.07234 l 0.08635,0.77713 c -3.54025,0.34539 -3.885641,-2.76313 -3.885641,-2.76313 l 0.777128,-0.0863 z m 3.022165,2.50408 -0.08635,-0.43174 c 0.259042,0 0.431738,0.17269 0.431738,0.34539 0,0.25904 -0.08635,0.43174 -0.345391,0.43174 l 0,-0.34539 z m -0.08635,-0.43174 c 0.34539,0 0.69078,-0.0863 0.949823,-0.25904 l 0.34539,0.69078 c -0.431738,0.17269 -0.777128,0.25904 -1.208866,0.34539 l -0.08635,-0.77713 z m 1.122518,0.0864 -0.172695,-0.34539 c 0.172695,-0.0864 0.431738,0 0.518085,0.17269 0.08635,0.1727 0,0.43174 -0.259042,0.51809 l -0.08635,-0.34539 z m -0.172695,-0.34539 c 0.949823,-0.43174 1.899646,-1.38157 2.590427,-2.67678 l 0.69078,0.34539 c -0.777128,1.46791 -1.899646,2.50408 -3.022164,3.02217 l -0.259043,-0.69078 z m 2.676775,-2.67678 c 0.69078,-1.29521 1.03617,-3.02216 0.777128,-5.00816 l 0.777128,-0.0864 c 0.259042,2.15869 -0.172695,4.05834 -0.863476,5.4399 l -0.69078,-0.34539 z m 0.777128,-5.00816 c -0.08635,-1.20886 -0.431738,-2.50408 -1.122519,-3.97199 l 0.777128,-0.34539 c 0.604433,1.55426 1.036171,2.93582 1.122519,4.23103 l -0.777128,0.0864 z m -0.690781,-4.14468 -0.34539,0.17269 c -0.08635,-0.17269 0,-0.43173 0.259043,-0.51808 0.172695,-0.0864 0.431737,0 0.518085,0.17269 l -0.431738,0.1727 z m -0.34539,-0.25904 c 0,0 4.058335,-6.47607 -2.158689,-9.49824 l 0.34539,-0.69078 c 6.994153,3.45391 2.504079,10.62075 2.504079,10.62075 l -0.69078,-0.43173 z m -1.985994,-9.84363 -0.172695,0.34539 c -0.172696,-0.0863 -0.259043,-0.34539 -0.172696,-0.51808 0.08635,-0.1727 0.345391,-0.25904 0.604433,-0.1727 l -0.259042,0.34539 z m -0.431738,0 0.777128,0.0864 -0.777128,-0.0864 z m 0.431738,0 -0.431738,0 c 0,-0.25904 0.259043,-0.43173 0.431738,-0.34539 0.259042,0 0.431738,0.25905 0.34539,0.43174 l -0.34539,-0.0864 z m -0.431738,-0.17269 c 0,-0.0864 1.295213,-3.19486 -0.172695,-5.4399 l 0.69078,-0.43174 c 1.640604,2.67678 0.259043,6.13068 0.172695,6.21703 l -0.69078,-0.34539 z m -0.08635,-5.4399 c 0,-0.0863 -0.08635,-0.0863 -0.08635,-0.0863 l 0.604433,-0.51808 c 0.08635,0.0863 0.08635,0.0863 0.08635,0.17269 l -0.604433,0.43174 z m 0.259043,-0.34539 -0.34539,0.25904 c -0.172695,-0.17269 -0.08635,-0.43173 0.08635,-0.60443 0.172695,-0.0864 0.431738,-0.0864 0.604433,0.0864 l -0.34539,0.25904 z m -0.34539,0.25904 c -0.777128,-1.03617 -3.108513,-1.55425 -5.612592,-1.55425 l 0,-0.77713 c 2.763122,0 5.267202,0.60443 6.217025,1.89965 l -0.604433,0.43173 z m -5.526244,-1.55425 c -2.50408,0 -5.267202,0.51808 -6.821458,1.46791 l -0.431738,-0.69078 c 1.726951,-1.03618 4.576421,-1.64061 7.253196,-1.64061 l 0,0.86348 z m -7.080501,1.12252 0.172695,0.34539 c -0.172695,0.0863 -0.431738,0.0863 -0.518085,-0.0864 -0.08635,-0.1727 -0.08635,-0.43174 0.08635,-0.51809 l 0.259043,0.25905 z m 0.172695,0.34539 -0.259043,0.25904 -0.518085,-0.60443 c 0.08635,-0.0863 0.259043,-0.1727 0.34539,-0.25905 l 0.431738,0.60444 z m -0.518085,-0.0864 0.259042,0.34539 c -0.172695,0.0864 -0.431737,0.0864 -0.604433,-0.0864 -0.172695,-0.17269 -0.08635,-0.43174 0.08635,-0.60443 l 0.259043,0.34539 z m -0.431738,-0.1727 c 0,-0.0863 7.512238,-23.14114 5.439897,-27.71757 l 0.777128,-0.34539 c 2.158689,4.92182 -5.353549,28.23566 -5.439897,28.23566 l -0.777128,-0.1727 z m 5.871634,-27.80391 -0.34539,0.17269 c -0.08635,-0.17269 0,-0.43174 0.259043,-0.51808 0.172695,-0.0863 0.431738,0 0.518085,0.17269 l -0.431738,0.1727 z m -0.34539,0.0863 c -0.69078,-1.55425 -1.985994,-2.76312 -3.367555,-3.36755 l 0.34539,-0.77713 c 1.554257,0.77713 3.022165,2.07234 3.712946,3.79929 l -0.690781,0.34539 z m -3.367555,-3.36755 c -0.863476,-0.43174 -1.726951,-0.60443 -2.504079,-0.60443 l 0,-0.77713 c 0.949823,0 1.985994,0.17269 2.935817,0.60443 l -0.431738,0.77713 z m -2.590427,-0.51809 c -0.777128,0 -1.554256,0.25905 -2.072342,0.77713 l -0.518085,-0.60443 c 0.690781,-0.60443 1.640604,-0.86348 2.590427,-0.94982 l 0,0.77712 z m -2.072342,0.69078 c -0.604433,0.51809 -1.03617,1.29522 -1.208865,2.33139 l -0.777129,-0.0863 c 0.172696,-1.29521 0.777129,-2.24504 1.467909,-2.84947 l 0.518085,0.60443 z m -1.208865,2.41774 c -0.518086,3.19486 -2.331385,11.31153 -4.490074,18.73742 l -0.777128,-0.25904 c 2.072342,-7.33955 3.971988,-15.45622 4.490073,-18.65108 l 0.777129,0.1727 z m -4.490074,18.73742 c -1.554256,5.2672 -3.19486,10.18901 -4.576421,12.60674 l -0.690781,-0.34539 c 1.381562,-2.33138 2.935818,-7.16685 4.490074,-12.43405 l 0.777128,0.1727 z m -4.921811,12.3477 0.34539,0.1727 c -0.08635,0.17269 -0.34539,0.25904 -0.518085,0.17269 -0.172696,-0.0864 -0.259043,-0.34539 -0.172696,-0.51808 l 0.345391,0.17269 z m 0.259042,0.34539 c -4.835463,3.02217 -6.821457,7.68493 -6.821457,12.43405 l -0.777128,0 c -0.08635,-5.00816 2.072341,-9.92997 7.166848,-13.12483 l 0.431737,0.69078 z m -6.821457,12.43405 c 0.08635,2.59043 0.69078,5.18085 1.813299,7.51224 l -0.690781,0.34539 c -1.208866,-2.50408 -1.813299,-5.18086 -1.899646,-7.85763 l 0.777128,0 z m 1.813299,7.59859 c 1.122518,2.33138 2.763122,4.49007 4.749116,6.13067 l -0.518086,0.60444 c -2.072341,-1.72695 -3.799293,-3.97199 -5.008159,-6.47607 l 0.777129,-0.25904 z m 4.749116,6.13067 c 3.712945,3.10852 8.807452,4.49008 14.420043,2.59043 l 0.259043,0.77713 c -5.957982,2.07234 -11.225184,0.51808 -15.197172,-2.67678 l 0.518086,-0.69078 z"
     inkscape:connector-curvature="0" />
  <g
     id="g221"
     transform="matrix(0.86347567,0,0,0.86347567,-30.588866,11.683987)">
    <path
       id="path223"
       d="m 130.6,169.9 -0.1,0.1 -0.1,0.1 c 0,0.1 0.1,0.2 0.2,0.2 8,0 9.6,3.5 9.6,3.6 0,0.1 0.1,0.1 0.3,0.1 0.1,-0.1 0.2,-0.1 0.1,-0.3 -0.1,-0.1 -1.7,-3.8 -10,-3.8 z"
       inkscape:connector-curvature="0" />
    <path
       id="path225"
       d="m 140.4,174.3 c -0.2,0 -0.4,-0.1 -0.5,-0.3 -0.3,-0.6 -2.2,-3.4 -9.3,-3.4 -0.3,0 -0.5,-0.3 -0.5,-0.5 l 0,-0.1 0.1,-0.1 c 0,-0.1 0.1,-0.1 0.2,-0.2 l 0.1,-0.1 0.1,0 c 8.5,0 10.2,3.9 10.2,4 0.1,0.1 0.1,0.3 0,0.4 0,0.1 -0.1,0.2 -0.3,0.2 0,0.1 -0.1,0.1 -0.1,0.1 z"
       inkscape:connector-curvature="0" />
  </g>
  <g
     id="g227"
     transform="matrix(0.86347567,0,0,0.86347567,-30.588866,11.683987)">
    <path
       id="path229"
       d="m 126.9,160.8 c -0.1,0 -0.2,0.1 -0.2,0.2 l 0,0.1 c 0,0.1 0.1,0.2 0.2,0.2 6.7,-1.1 10.5,1 10.6,1 0.1,0.1 0.2,0 0.3,-0.1 0.1,-0.1 0,-0.2 -0.1,-0.3 -0.1,0 -4,-2.2 -10.8,-1.1 z"
       inkscape:connector-curvature="0" />
    <path
       id="path231"
       d="m 137.7,162.6 c -0.1,0 -0.2,0 -0.3,-0.1 -0.2,-0.1 -2.6,-1.3 -6.6,-1.3 -1.2,0 -2.5,0.1 -3.8,0.3 -0.2,0 -0.5,-0.1 -0.6,-0.4 l 0,-0.1 c 0,-0.2 0.2,-0.4 0.4,-0.5 1.3,-0.2 2.6,-0.3 3.9,-0.3 4.1,0 6.5,1.1 7.2,1.4 0.2,0.1 0.2,0.2 0.3,0.3 0,0.1 0,0.3 -0.1,0.4 -0.1,0.2 -0.3,0.3 -0.4,0.3 z"
       inkscape:connector-curvature="0" />
  </g>
  <g
     id="g233"
     transform="matrix(0.86347567,0,0,0.86347567,-30.588866,11.683987)">
    <path
       id="path235"
       d="m 133,181.6 -0.1,0.1 0,0.1 c 0.4,1.8 -0.8,3.5 -0.9,3.5 0.1,-0.1 0,0.1 0,0.1 l 0.1,0.1 c 0.1,0.1 0.2,0.1 0.3,0 0,0 1.3,-1.8 0.9,-3.8 -0.1,0 -0.2,-0.1 -0.3,-0.1 z"
       inkscape:connector-curvature="0" />
    <path
       id="path237"
       d="m 132.2,185.9 c -0.1,0 -0.2,0 -0.3,-0.1 0,0 -0.1,0 -0.1,-0.1 l -0.1,-0.1 c 0,0 -0.1,-0.1 -0.1,-0.2 l 0,-0.1 c 0,-0.1 0,-0.1 0.1,-0.2 0.2,-0.2 1.1,-1.7 0.8,-3.3 l 0,-0.1 0,-0.1 c 0,-0.1 0.1,-0.2 0.1,-0.2 l 0.1,-0.1 0.1,0 0.1,0 c 0.2,0 0.4,0.1 0.5,0.4 0.5,2.3 -0.9,4.1 -1,4.1 0.1,0.1 0,0.1 -0.2,0.1 z"
       inkscape:connector-curvature="0" />
  </g>
  <path
     id="path239"
     d="m 82.267404,113.83316 c 1.122518,0 2.158689,0.51808 2.331384,1.20886 0.172696,0.60444 -0.604433,1.12252 -1.726951,1.12252 -1.122518,0 -2.158689,-0.51808 -2.331384,-1.12252 -0.172695,-0.69078 0.604433,-1.20886 1.726951,-1.20886 z"
     inkscape:connector-curvature="0" />
</svg>
