<?xml version="1.0" encoding="UTF-8" standalone="no"?>
<svg
   xmlns:dc="http://purl.org/dc/elements/1.1/"
   xmlns:cc="http://creativecommons.org/ns#"
   xmlns:rdf="http://www.w3.org/1999/02/22-rdf-syntax-ns#"
   xmlns:svg="http://www.w3.org/2000/svg"
   xmlns="http://www.w3.org/2000/svg"
   viewBox="0 0 248.03751 248.03751"
   height="248.03751"
   width="248.03751"
   xml:space="preserve"
   version="1.1"
   id="svg2"><metadata
     id="metadata8"><rdf:RDF><cc:Work
         rdf:about=""><dc:format>image/svg+xml</dc:format><dc:type
           rdf:resource="http://purl.org/dc/dcmitype/StillImage" /></cc:Work></rdf:RDF></metadata><defs
     id="defs6" /><g
     transform="matrix(1.25,0,0,-1.25,0,248.0375)"
     id="g10"><g
       transform="scale(0.1,0.1)"
       id="g12"><path
         id="path14"
         style="fill:#fad7c8;fill-opacity:1;fill-rule:evenodd;stroke:none"
         d="m 1599.49,1515.35 c 5.67,5.39 13.89,21.54 5.95,20.98 -70.3,-26.37 -163.56,15.02 -228.19,7.93 -22.96,-14.45 20.7,-118.2 48.48,-119.62 87.02,-40.25 148.53,-24.09 173.76,90.71" /><path
         id="path16"
         style="fill:#000000;fill-opacity:1;fill-rule:nonzero;stroke:none"
         d="m 1615.64,1525.55 c -1.69,-4.82 -5.09,-10.49 -8.5,-14.17 -13.32,-58.96 -36.28,-92.98 -68.03,-107.44 -31.74,-14.17 -70.58,-8.5 -115.93,12.48 -11.63,1.41 -24.38,14.45 -34.88,32.03 -7.64,12.47 -14.45,27.49 -19.26,42.23 -4.83,14.74 -7.38,29.2 -6.52,40.26 0.55,9.35 3.96,16.72 10.48,20.69 l 3.69,1.42 c 27.2,2.83 58.38,-2.56 91.27,-7.94 46.2,-7.65 94.97,-15.59 134.65,-0.57 l 2.55,0.57 c 2.84,0 4.82,-0.57 6.8,-1.7 3.68,-2.27 5.39,-5.67 5.39,-9.92 0,-2.55 -0.57,-5.39 -1.71,-7.94 m -22.1,-4.25 c 0.85,0.85 1.69,1.98 2.55,3.12 -41.11,-11.06 -87.59,-3.41 -131.54,3.96 -30.32,4.82 -59.51,9.64 -83.89,7.66 -0.57,-1.14 -0.86,-3.12 -1.14,-5.95 -0.56,-8.51 1.69,-20.7 5.96,-33.74 4.25,-13.32 10.77,-27.21 17.57,-38.55 8.5,-14.17 17.29,-24.09 23.25,-24.38 l 3.11,-0.85 c 41.39,-19.27 76.25,-25.22 103.18,-13.04 26.64,12.19 46.78,43.09 58.39,97.23" /><path
         id="path18"
         style="fill:#fad7c8;fill-opacity:1;fill-rule:evenodd;stroke:none"
         d="m 473.852,1483.6 c -6.52,5.39 -16.161,21.83 -7.372,22.11 78.243,-21.54 179.719,33.17 251.153,32.32 25.789,-13.33 -18.711,-130.68 -49.32,-134.65 -94.403,-52.72 -162.711,-41.67 -194.461,80.22" /><path
         id="path20"
         style="fill:#000000;fill-opacity:1;fill-rule:nonzero;stroke:none"
         d="m 455.426,1492.95 c 2.269,-5.1 6.238,-10.77 9.922,-14.46 16.726,-62.64 43.367,-97.23 78.797,-109.41 35.441,-12.19 78.242,-1.7 127.281,25.22 13.039,3.12 26.359,18.43 37.129,38.56 7.941,14.45 15.031,31.46 19.851,47.62 4.821,16.72 7.371,32.6 5.949,44.5 -1.128,9.92 -4.82,17.58 -12.191,21.26 l -4.25,1.14 c -30.047,0.28 -64.348,-8.51 -100.059,-17.86 -50.738,-13.04 -104.32,-26.93 -148.539,-14.74 l -3.121,0.28 c -2.828,0 -5.097,-0.85 -7.078,-2.27 -4.262,-2.83 -5.672,-6.8 -5.672,-11.34 0,-2.83 0.852,-5.67 1.981,-8.5 m 24.66,-2.27 c -1.129,0.85 -1.981,1.99 -2.828,3.12 45.629,-7.94 96.367,5.39 144.558,17.86 33.168,8.5 65.2,16.72 92.129,17.01 0.852,-1.14 1.422,-3.41 1.7,-6.24 0.851,-9.35 -1.129,-22.96 -5.387,-37.42 -4.25,-14.74 -10.774,-30.33 -18.141,-43.65 -8.781,-15.87 -17.859,-27.78 -24.66,-28.91 l -3.402,-1.14 c -44.789,-24.94 -83.059,-35.15 -113.098,-24.66 -30.051,10.49 -53.012,41.67 -68.031,99.5" /><path
         id="path22"
         style="fill:#000000;fill-opacity:1;fill-rule:evenodd;stroke:none"
         d="m 738.039,1509.68 c -156.187,30.61 -154.769,104.03 -111.969,191.06 2.27,3.68 13.891,6.8 13.61,2.55 -2.551,-63.78 12.191,-90.15 168.09,-96.1 -20.122,-19.84 -49.598,-77.38 -69.731,-97.51" /><path
         id="path24"
         style="fill:#000000;fill-opacity:1;fill-rule:evenodd;stroke:none"
         d="m 1122.98,796.48 c 69.45,170.083 193.9,320.32 208.91,509.67 4.82,57.83 -72.28,118.77 -89.57,215.15 -47.91,-119.91 -566.644,-679.468 -869.664,-679.468 0,0 132.938,76.82 188.219,129.258 222.52,210.9 533.195,374.74 636.085,575.44 -32.58,-34.3 -138.89,-0.57 -167.23,-39.4 -80.796,-111.12 -427.753,-667.849 -727.945,-549.931 26.078,-10.199 220.82,69.171 247.75,126.151 -9.922,-20.98 -187.371,-42.24 -207.781,-39.41 -18.141,2.56 -134.078,39.41 -56.41,30.62 97.511,-10.77 177.453,53.29 161.859,45.64 -55.269,-28.07 -120.469,3.11 -175.75,36.85 -13.887,8.5 -14.449,5.38 -13.598,8.22 0.559,2.83 89,-9.92 118.77,-9.64 105.449,1.13 128.41,35.15 178.859,82.2 70.871,133.52 128.7,274.68 230.18,408.76 149.949,196.72 405.066,47.34 477.636,-59.24 95.25,-49.04 163,-181.7 109.99,-308.7 -67.47,-162.14 -168.95,-315.209 -250.31,-482.17" /><path
         id="path26"
         style="fill:#000000;fill-opacity:1;fill-rule:evenodd;stroke:none"
         d="m 1348.05,974.215 c -30.32,187.645 -6.51,394.015 -90.42,562.675 -25.79,51.59 -118.49,53.29 -180.85,123.3 C 1150.77,977.043 618.984,619.883 601.695,590.684 c 13.602,26.929 33.731,78.808 49.321,131.531 -17.86,-16.16 -37.7,-30.613 -55.559,-41.391 -15.59,-9.633 -127.269,-53 -60.383,-10.48 83.633,53.289 128.703,142.008 118.492,126.14 -13.039,-20.703 -87.589,-43.941 -149.101,-51.031 -15.59,-1.699 -75.688,-2.832 -76.539,0 -0.852,2.84 108,58.68 131.531,77.961 84.188,68.879 92.981,85.598 109.418,157.598 -10.77,157.608 -36,313.508 -22.391,491.528 20.692,261.35 301.321,299.91 413.566,256.82 101.21,19.56 222.81,-48.19 244.64,-189.07 28.06,-179.43 24.09,-373.61 43.36,-566.075" /><path
         id="path28"
         style="fill:#000000;fill-opacity:1;fill-rule:evenodd;stroke:none"
         d="m 1192.72,666.652 -21.54,123.313 -213.453,-44.512 26.082,-148.25 c 23.521,9.641 45.071,15.02 59.521,13.039 32.89,-4.25 42.24,-21.828 73.99,-5.097 31.75,15.019 56.69,36.57 75.4,61.507" /><path
         id="path30"
         style="fill:#000000;fill-opacity:1;fill-rule:evenodd;stroke:none"
         d="m 1007.33,1721.71 c -116.498,9.35 -208.908,-101.76 -209.478,-232.44 -1.129,-263.06 31.75,-523.559 47.621,-785.762 46.207,8.781 92.129,17.851 138.047,26.64 168.94,28.911 337.61,58.391 506.55,87.59 -66.61,255.402 -44.5,542.842 -127.28,799.092 -61.51,189.64 -271.55,193.6 -355.46,104.88" /><path
         id="path32"
         style="fill:#000000;fill-opacity:1;fill-rule:evenodd;stroke:none"
         d="m 1342.1,1580.26 c 147.97,65.76 134.65,137.48 77.95,212.88 -2.83,3.12 -14.74,3.69 -13.89,-0.57 13.33,-62.07 3.4,-90.99 -148.82,-132.94 23.25,-14.74 61.8,-64.35 84.76,-79.37" /><path
         id="path34"
         style="fill:#000000;fill-opacity:1;fill-rule:evenodd;stroke:none"
         d="m 1074.8,1740.13 0,0 c -155.913,-18.43 -272.984,-161 -259.945,-317.2 l 61.231,-728.215 c 13.32,-156.192 151.944,-269.012 307.844,-250.86 156.48,18.137 273.55,161 260.51,317.188 l -61.23,728.227 c -13.32,156.18 -151.94,269 -308.41,250.86" /><path
         id="path36"
         style="fill:#fdfdfd;fill-opacity:1;fill-rule:evenodd;stroke:none"
         d="m 1075.93,1725.68 0,0 C 927.391,1708.39 816.281,1572.89 828.75,1424.64 l 61.23,-728.222 c 12.469,-148.539 144.28,-255.68 292.82,-238.391 148.53,17.289 259.93,152.782 247.46,301.321 l -61.51,728.222 c -12.47,148.25 -144,255.4 -292.82,238.11" /><path
         id="path38"
         style="fill:#000000;fill-opacity:1;fill-rule:evenodd;stroke:none"
         d="m 1043.9,1401.11 c -18.99,6.8 -61.232,-35.43 -68.603,-12.76 -4.82,15.59 -29.481,79.37 -15.309,95.82 20.7,23.81 72.292,37.13 100.072,55.84 18.99,10.49 10.49,28.06 18.71,37.98 12.19,13.32 60.09,5.95 68.03,-1.7 33.45,-24.38 5.95,-87.02 -16.16,-113.95 -12.19,-13.32 -23.24,-32.03 -36,-45.36 -16.44,-17.85 -28.63,-6.23 -50.74,-15.87 m 161.57,309.83 c -37.41,13.04 -78.51,19.27 -122.17,15.59 2.84,-7.66 5.95,-15.03 9.92,-21.55 1.99,-6.8 28.63,-10.48 37.14,-10.48 8.5,0 20.41,-1.14 28.91,-1.14 5.39,-0.85 37.7,13.61 42.52,15.31 1.42,1.13 2.83,1.7 3.68,2.27 M 1173.73,584.172 c 41.67,5.098 80.78,19.269 114.8,39.109 2.55,6.239 4.25,13.328 5.67,21.551 3.97,36.559 -6.8,75.398 -2.55,114.231 6.52,58.679 13.6,141.449 -27.21,183.687 -36.29,37.98 -112.26,76.25 -163.56,48.191 C 1079.9,980.172 939.59,886.34 937.027,862.813 c -4.82,-41.102 15.59,-97.231 39.969,-132.09 1.992,-4.543 85.894,-112.821 117.364,-125.582 21.54,-8.5 50.74,-17.008 79.37,-20.969 M 964.246,1691.38 c -42.808,-22.4 -78.808,-54.71 -104.598,-92.98 34.86,22.96 65.758,50.17 97.231,77.67 3.398,2.84 5.949,8.79 7.367,15.31" /><path
         id="path40"
         style="fill:#000000;fill-opacity:1;fill-rule:evenodd;stroke:none"
         d="m 807.773,942.18 c -1.703,182.27 -5.953,368.5 45.918,545.39 15.879,53.85 102.332,75.96 149.949,155.33 26.37,-152.22 165.83,-56.12 176.89,-102.89 227.33,-262.21 264.75,-453.26 294.52,-724.537 23.24,1.699 120.75,-71.153 144,-70.012 -17.01,22.391 -92.13,104.031 -115.09,149.949 19.27,-11.34 77.95,-43.937 97.23,-42.519 26.64,1.699 70.86,15.871 70.86,15.871 -87.02,31.468 -167.81,139.468 -157.04,125.859 37.7,-48.469 112.54,-76.25 171.22,-69.449 14.74,1.699 78.8,25.508 80.78,26.93 -58.39,33.449 -104.31,30.328 -138.89,62.358 -73.99,68.6 -97.23,155.63 -124.16,219.41 -15.02,150.23 -26.36,164.12 -67.47,327.96 -60.94,240.38 -329.95,214.59 -428.31,149.67 -98.078,-3.97 -201.258,-94.39 -199.278,-231.3 2.27,-174.34 -13.89,-353.48 -1.129,-538.02" /><path
         id="path42"
         style="fill:#f6ae94;fill-opacity:1;fill-rule:evenodd;stroke:none"
         d="m 1121.85,172.574 c 269.57,31.461 475.09,228.192 457.51,437.949 -17.57,209.204 -252,354.622 -521.57,323.153 C 788.211,902.215 582.699,705.773 600.281,496.297 c 17.571,-209.774 252,-355.184 521.569,-323.723" /><path
         id="path44"
         style="fill:#000000;fill-opacity:1;fill-rule:evenodd;stroke:none"
         d="m 1020.65,1173.77 c -24.377,148.25 -108.564,247.46 -187.646,231.59 -79.09,-16.16 -123.031,-141.45 -98.649,-289.7 24.661,-159.867 43.938,-213.449 185.668,-191.34 102.907,15.883 129.837,113.39 100.627,249.45" /><path
         id="path46"
         style="fill:#fdfdfd;fill-opacity:1;fill-rule:evenodd;stroke:none"
         d="m 898.48,944.449 c 140.88,21.539 120.19,105.451 98.083,238.681 -21.833,133.23 -88.161,197.29 -160.161,182.55 C 765.25,1351.22 715.93,1263.91 738.039,1130.69 759.871,997.457 778.57,925.738 898.48,944.449" /><path
         id="path48"
         style="fill:#009646;fill-opacity:1;fill-rule:evenodd;stroke:none"
         d="m 897.063,956.07 c 51.019,10.2 82.492,80.5 70.3,155.34 -12.761,75.68 -64.629,128.12 -115.371,117.92 -51.019,-10.2 -82.769,-79.65 -70.301,-155.34 12.473,-74.83 64.633,-128.408 115.372,-117.92" /><path
         id="path50"
         style="fill:#000000;fill-opacity:1;fill-rule:evenodd;stroke:none"
         d="m 898.195,954.652 c 34.582,7.09 55.84,54.708 47.063,106.868 -8.512,51.3 -43.66,88.44 -78.242,81.36 -34.578,-6.81 -55.559,-55.57 -47.059,-106.88 8.512,-52.145 43.66,-88.145 78.238,-81.348" /><path
         id="path52"
         style="fill:#fdfdfd;fill-opacity:1;fill-rule:evenodd;stroke:none"
         d="m 838.672,1024.39 c 15.59,2.82 25.508,20.41 22.109,38.55 -3.402,18.99 -18.992,31.75 -34.582,29.2 -15.308,-2.84 -24.379,-20.13 -20.98,-39.12 3.402,-18.14 17.859,-31.18 33.453,-28.63" /><path
         id="path54"
         style="fill:#fdfdfd;fill-opacity:1;fill-rule:evenodd;stroke:none"
         d="m 871.836,1058.68 c 28.348,5.11 46.769,37.43 40.539,71.73 -6.238,34 -35.148,57.82 -63.219,52.72 -28.34,-5.11 -46.769,-37.43 -40.531,-71.43 6.23,-34.31 35.148,-58.11 63.211,-53.02" /><path
         id="path56"
         style="fill:#fad7c8;fill-opacity:1;fill-rule:evenodd;stroke:none"
         d="m 829.883,1366.53 c -70.582,-16.44 -113.949,-97.23 -96.379,-193.32 l 0,-3.69 256.816,59.81 -0.277,3.97 c -18.141,81.64 -93.551,147.12 -160.16,133.23" /><path
         id="path58"
         style="fill:#000000;fill-opacity:1;fill-rule:nonzero;stroke:none"
         d="m 783.109,1185.11 -32.597,-7.09 c -1.699,0.57 -11.903,-17 -26.641,-5.95 -29.769,22.39 -67.469,62.36 -51.031,135.78 -18.141,-81.92 106.301,-121.32 110.269,-122.74" /><path
         id="path60"
         style="fill:#000000;fill-opacity:1;fill-rule:nonzero;stroke:none"
         d="m 833,1192.48 -29.48,0 c -1.129,0.85 -15.872,-13.89 -24.09,-0.28 -16.731,28.06 -34.02,74.55 5.101,142.01 -43.371,-75.12 45.641,-139.46 48.469,-141.73" /><path
         id="path62"
         style="fill:#000000;fill-opacity:1;fill-rule:nonzero;stroke:none"
         d="m 913.223,1214.31 -28.91,-4.54 c -1.422,0.85 -13.333,-15.02 -23.532,-3.68 -20.98,22.68 -45.359,62.36 -17.582,130.11 -30.886,-75.4 66.903,-120.19 70.024,-121.89" /><path
         id="path64"
         style="fill:#000000;fill-opacity:1;fill-rule:nonzero;stroke:none"
         d="m 712.527,1162.72 c 0,0 9.071,15.87 29.762,20.13 20.41,4.25 121.891,38.26 143.149,36.56 21.261,-1.7 113.39,16.44 113.39,16.44 0,0 18.422,-4.82 7.092,-18.7 -11.342,-13.61 -161.861,-21.83 -193.041,-32.89 -31.18,-11.34 -82.781,-31.46 -94.402,-32.31 -11.34,-1.14 -5.95,10.77 -5.95,10.77" /><path
         id="path66"
         style="fill:#fad7c8;fill-opacity:1;fill-rule:evenodd;stroke:none"
         d="m 1107.68,323.66 c 252.85,29.481 448.44,185.953 434.83,347.531 -13.89,162.141 -231.59,269.86 -484.44,240.379 C 804.656,881.801 609.348,726.184 622.957,564.043 636.559,402.461 854.258,294.184 1107.68,323.66" /><path
         id="path68"
         style="fill:#f6ae94;fill-opacity:1;fill-rule:evenodd;stroke:none"
         d="m 1238.64,601.457 c 90.43,18.988 151.94,102.051 137.48,185.102 -14.74,82.769 -100.06,135.5 -190.77,116.507 -90.43,-18.711 -151.94,-102.328 -137.2,-185.109 14.46,-83.051 99.78,-135.488 190.49,-116.5" /><path
         id="path70"
         style="fill:#f6ae94;fill-opacity:1;fill-rule:evenodd;stroke:none"
         d="m 838.387,541.645 c 85.039,17.57 143.429,94.96 130.109,171.781 -13.609,76.531 -94.109,124.719 -179.148,107.148 -85.321,-17.859 -143.434,-95.25 -130.114,-171.777 13.614,-76.82 93.832,-125.012 179.153,-107.152" /><path
         id="path72"
         style="fill:#fad7c8;fill-opacity:1;fill-rule:evenodd;stroke:none"
         d="m 1240.62,637.176 c 83.91,17.289 142.3,90.429 129.54,162.707 -12.75,72.281 -91.84,117.07 -175.46,99.492 -84.19,-17.57 -142.58,-90.992 -129.83,-163.27 12.47,-72.281 91.56,-116.792 175.75,-98.929" /><path
         id="path74"
         style="fill:#fcebe3;fill-opacity:1;fill-rule:evenodd;stroke:none"
         d="m 1263.3,627.254 c 65.2,13.609 108.57,82.769 96.09,153.918 -12.75,71.43 -76.25,118.488 -141.73,104.879 -64.91,-13.598 -108,-83.047 -95.53,-154.488 12.48,-71.141 76.26,-117.922 141.17,-104.309" /><path
         id="path76"
         style="fill:#a65f4a;fill-opacity:1;fill-rule:evenodd;stroke:none"
         d="m 1272.65,657.582 c 47.62,9.922 79.65,57.832 70.87,106.871 -8.5,49.039 -54.43,80.5 -102.32,70.578 -47.34,-9.918 -79.09,-57.828 -70.59,-106.578 8.78,-49.332 54.43,-80.789 102.04,-70.871" /><path
         id="path78"
         style="fill:#fad7c8;fill-opacity:1;fill-rule:evenodd;stroke:none"
         d="m 839.805,573.68 c 81.64,17.008 137.758,88.16 125.289,158.738 -12.469,70.301 -88.719,113.672 -170.078,96.66 -81.641,-17.012 -137.481,-88.16 -125.293,-158.461 12.472,-70.578 88.73,-113.949 170.082,-96.937" /><path
         id="path80"
         style="fill:#fcebe3;fill-opacity:1;fill-rule:evenodd;stroke:none"
         d="m 848.875,568.574 c 62.93,13.039 104.602,78.242 92.691,145.699 -11.621,67.18 -72.851,111.122 -135.492,98.082 -62.648,-13.039 -103.75,-78.519 -92.129,-145.699 11.91,-67.472 72.282,-111.402 134.93,-98.082" /><path
         id="path82"
         style="fill:#a65f4a;fill-opacity:1;fill-rule:evenodd;stroke:none"
         d="m 849.441,592.672 c 53.289,11.34 89.571,61.226 80.5,111.687 -8.781,50.45 -59.519,82.77 -112.808,71.43 -53.301,-11.059 -89.582,-61.508 -80.512,-111.969 8.789,-50.461 59.25,-82.211 112.82,-71.148" /><path
         id="path84"
         style="fill:#000000;fill-opacity:1;fill-rule:evenodd;stroke:none"
         d="m 1278.61,680.543 c 31.18,6.52 52.44,37.422 46.77,69.449 -5.67,31.75 -35.71,52.442 -66.9,45.922 -30.89,-6.238 -51.87,-37.699 -46.2,-69.449 5.39,-32.031 35.72,-52.442 66.33,-45.922" /><path
         id="path86"
         style="fill:#000000;fill-opacity:1;fill-rule:evenodd;stroke:none"
         d="m 838.672,615.629 c 35.43,7.371 59.808,41.391 53.859,74.832 -5.953,34.019 -39.972,55 -75.402,47.629 -35.438,-7.371 -59.527,-40.539 -53.578,-74.551 5.949,-33.449 39.398,-55.277 75.121,-47.91" /><path
         id="path88"
         style="fill:#fdfdfd;fill-opacity:1;fill-rule:evenodd;stroke:none"
         d="m 1071.39,1679.19 c 34.31,-21.83 93.26,-39.4 115.65,-116.22 128.98,-184.82 257.39,-359.72 322.3,-612.572 -26.36,248.032 -187.93,441.922 -306.71,616.822 -27.2,100.06 -98.07,110.27 -131.24,111.97" /><path
         id="path90"
         style="fill:#fdfdfd;fill-opacity:1;fill-rule:evenodd;stroke:none"
         d="m 1071.68,1708.39 c 90.14,17.86 166.11,-21.84 196.16,-130.39 -14.18,54.41 -29.2,110.55 -79.66,132.94 -35.15,15.88 -83.9,10.77 -116.5,-2.55" /><path
         id="path92"
         style="fill:#fdfdfd;fill-opacity:1;fill-rule:evenodd;stroke:none"
         d="m 1003.36,1673.24 c -91.555,-3.12 -159.305,-59.81 -170.645,-173.2 4.816,56.7 10.207,115.37 56.129,149.11 31.75,23.52 80.5,29.48 114.516,24.09" /><path
         id="path94"
         style="fill:#e22228;fill-opacity:1;fill-rule:evenodd;stroke:none"
         d="m 828.465,433.363 c 0,0 47.621,78.797 116.219,93.258 68.316,14.461 114.516,-29.758 114.516,-29.758 0,0 28.64,75.68 102.91,74.258 92.41,-2.258 93.82,-24.66 148.82,-13.039 96.09,20.699 93.25,88.449 93.25,88.449 C 1407.59,432.512 998.824,363.91 828.465,433.363" /><path
         id="path96"
         style="fill:#fdfdfd;fill-opacity:1;fill-rule:nonzero;stroke:none"
         d="m 1241.29,1213.41 c -5.05,-12.81 -13.88,-25.58 -26.47,-38.01 -1.04,-1.02 -2.29,-1.81 -3.66,-2.3 -44.6,-16.11 -76.04,-58.5 -93.45,-126 -0.15,-0.56 -0.12,-1.12 -0.01,-1.59 58.96,92.87 159.11,120.32 294.14,80.65 -0.14,2.14 -0.71,3.45 -1.03,3.72 -7.95,4.72 -15.66,8.67 -22.19,11.93 -2.88,1.44 -4.9,4.18 -5.43,7.36 -0.51,3.19 0.51,6.42 2.78,8.72 16.25,16.43 25.67,33.36 28.36,51.38 -10.81,-17.24 -28.85,-33.99 -53.83,-49.69 -2.75,-1.74 -6.17,-2.02 -9.2,-0.78 -8.78,3.63 -16.5,6.5 -23.61,8.79 -4.8,1.54 -7.72,6.38 -6.84,11.34 2.24,12.58 1.35,25.3 -2.63,38.12 -1.85,-11.69 -6.18,-23.67 -12.98,-35.75 -2.12,-3.75 -6.39,-5.74 -10.65,-4.95 -16.03,3.05 -30.79,4.33 -44.22,3.81 -3.12,-0.1 -6.13,1.21 -8.12,3.61 -2,2.4 -2.78,5.6 -2.08,8.65 1.52,6.78 1.89,13.78 1.12,20.99 m -124.03,-188.96 c -3.72,0 -6.74,1.3 -8.69,2.28 -8.81,5.23 -12.89,15.78 -10.35,25.44 18.9,73.25 53.88,120.03 103.96,139.06 28.32,28.75 31.66,55.57 10.22,81.93 -3.49,4.31 -2.85,10.64 1.46,14.15 4.31,3.51 10.64,2.85 14.15,-1.44 24.28,-29.73 35.55,-58.44 33.6,-85.55 9.28,-0.27 19.11,-1.24 29.36,-2.9 14.75,30.5 9.74,57.79 -14.94,81.21 -0.03,0.03 -0.05,0.05 -0.08,0.08 l 0,0 c -4.04,3.83 -4.22,10.19 -0.4,14.23 3.83,4.05 10.18,4.21 14.23,0.4 37.84,-35.79 55.32,-72.51 52.04,-109.3 3.9,-1.39 7.98,-2.93 12.28,-4.65 33.55,22.01 66.6,55.29 45.05,93.38 -0.01,0.02 -0.02,0.04 -0.03,0.06 l 0,0.01 c -2.74,4.83 -1.04,10.97 3.79,13.71 4.83,2.74 10.98,1.04 13.71,-3.78 l 0,-0.01 c 0.02,-0.02 0.03,-0.05 0.05,-0.08 26.86,-47.42 24.39,-90.73 -7.28,-128.92 3.72,-1.99 7.6,-4.15 11.55,-6.49 8.46,-4.74 12.61,-15.79 9.65,-26.15 -3.25,-10.82 -14.06,-17.14 -24.28,-14.31 -126.45,37.14 -218.52,12.55 -271.96,-72.75 -3.71,-5.84 -9.53,-9.35 -15.69,-9.52 -0.54,-0.05 -1.1,-0.09 -1.4,-0.09" /><path
         id="path98"
         style="fill:#000000;fill-opacity:1;fill-rule:nonzero;stroke:none"
         d="m 1118.17,1034.59 c 2.83,0 5.67,1.7 7.65,4.82 56.13,89.57 151.94,115.65 283.18,77.1 5.11,-1.42 10.21,1.7 11.91,7.37 1.7,5.95 -0.57,12.19 -5.11,14.74 -7.66,4.54 -15.3,8.51 -22.67,12.19 24.66,24.95 49.6,65.48 14.74,126.99 27.5,-48.47 -18.42,-88.15 -52.73,-109.7 -8.21,3.4 -16.43,6.52 -24.37,9.07 4.82,27.22 -1.14,64.63 -47.91,108.85 37.14,-35.15 28.62,-73.13 13.6,-99.78 -16.43,3.12 -32.02,4.54 -46.48,3.97 5.09,22.68 0.57,52.16 -29.77,89.29 32.04,-39.4 9.93,-74.83 -12.48,-96.94 -47.89,-17.29 -81.34,-61.51 -99.77,-132.95 -1.41,-5.38 0.86,-11.34 5.11,-13.89 1.7,-0.85 3.39,-1.41 5.1,-1.13" /><path
         id="path100"
         style="fill:#000000;fill-opacity:1;fill-rule:evenodd;stroke:none"
         d="m 833.285,432.797 c 83.91,-126.992 127.559,-223.09 311.235,-215.723 157.89,6.524 217.7,169.801 233.59,348.66 C 1230.13,477.586 1004.79,401.617 833.285,432.797" /><path
         id="path102"
         style="fill:#e22228;fill-opacity:1;fill-rule:evenodd;stroke:none"
         d="m 965.379,255.348 c 44.221,-25.231 117.071,-47.063 202.681,-36.571 74.26,9.36 108.56,51.309 143.71,103.18 -45.07,39.121 -147.11,25.52 -170.08,-29.48 -40.81,37.699 -104.59,26.929 -149.381,-3.399 -15.309,-10.492 -22.68,-19.269 -26.93,-33.73" /><path
         id="path104"
         style="fill:#ffffff;fill-opacity:1;fill-rule:evenodd;stroke:none"
         d="m 890.828,429.676 c 4.25,-7.649 25.231,-49.321 33.168,-50.168 56.973,-7.09 248.034,33.449 306.424,54.711 21.26,7.648 123.87,47.328 128.41,79.078 3.97,27.211 11.06,42.238 -9.92,35.719 -18.71,-5.098 -48.19,-31.469 -70.02,-37.137 -39.68,-10.481 -72.85,-25.793 -110.26,-39.113 -31.47,-11.34 -53.58,-14.457 -85.61,-20.129 -37.99,-6.52 -49.04,-18.418 -98.653,-20.981 -19.269,-1.129 -18.422,-4.808 -41.101,-0.558 -3.118,0.558 -53.571,1.129 -52.438,-1.422" /><path
         id="path106"
         style="fill:#e22228;fill-opacity:1;fill-rule:nonzero;stroke:none"
         d="m 848.895,422.688 c 4.179,-6.43 8.281,-12.75 12.3,-18.977 70.192,-108.563 120.121,-185.57 283.035,-179.121 157.48,6.5 209.57,178.168 225,327.258 -115,-65.989 -290.12,-133.688 -452.066,-133.688 -23.769,0 -46.656,1.52 -68.269,4.528 m 276.295,-213.52 c -156.124,0 -209.295,82.25 -276.604,186.371 -6.961,10.762 -14.102,21.82 -21.57,33.121 -1.661,2.508 -1.661,5.77 0,8.278 1.66,2.511 4.629,3.75 7.609,3.25 25.582,-4.649 53.352,-7.008 82.539,-7.008 164.976,0 344.296,71.808 457.096,139.019 2.44,1.442 5.45,1.418 7.84,-0.101 2.4,-1.489 3.74,-4.2 3.49,-7.02 C 1365.45,338.18 1282.2,215.25 1144.85,209.57 c -6.75,-0.261 -13.28,-0.402 -19.66,-0.402" /></g></g></svg>