<?xml version="1.0" encoding="UTF-8" standalone="no"?>
<svg
   xmlns:dc="http://purl.org/dc/elements/1.1/"
   xmlns:cc="http://creativecommons.org/ns#"
   xmlns:rdf="http://www.w3.org/1999/02/22-rdf-syntax-ns#"
   xmlns:svg="http://www.w3.org/2000/svg"
   xmlns="http://www.w3.org/2000/svg"
   viewBox="0 0 248.03751 248.03751"
   height="248.03751"
   width="248.03751"
   xml:space="preserve"
   version="1.1"
   id="svg2"><metadata
     id="metadata8"><rdf:RDF><cc:Work
         rdf:about=""><dc:format>image/svg+xml</dc:format><dc:type
           rdf:resource="http://purl.org/dc/dcmitype/StillImage" /></cc:Work></rdf:RDF></metadata><defs
     id="defs6" /><g
     transform="matrix(1.25,0,0,-1.25,0,248.0375)"
     id="g10"><g
       transform="scale(0.1,0.1)"
       id="g12"><path
         id="path14"
         style="fill:#fad7c8;fill-opacity:1;fill-rule:evenodd;stroke:none"
         d="m 1525.77,1613.64 c 2.27,7.66 0.85,26.09 -6.24,21.84 -48.47,-60.1 -155.33,-72 -209.76,-111.41 -12.76,-24.66 83.91,-93.82 109.42,-80.5 100.34,9.36 147.12,55.56 106.58,170.07" /><path
         id="path16"
         style="fill:#fad7c8;fill-opacity:1;fill-rule:evenodd;stroke:none"
         d="m 469.582,1630.09 c -1.98,8.79 0.281,28.63 7.652,23.53 50.739,-67.75 166.957,-85.33 224.789,-130.96 12.758,-27.78 -95.808,-98.93 -123.308,-83.34 -109.41,15.02 -158.453,67.46 -109.133,190.77" /><path
         id="path18"
         style="fill:#000000;fill-opacity:1;fill-rule:evenodd;stroke:none"
         d="m 1266.4,916.891 c -15.02,198.429 27.5,409.609 -44.5,594.989 -21.83,56.7 -117.07,69.73 -175.47,149.95 C 1063.44,943.539 484.602,637.109 464.48,609.051 c 16.161,26.078 41.383,77.668 62.083,130.668 -19.559,-14.739 -41.102,-27.489 -60.661,-36.559 -17.011,-7.941 -135.5,-39.691 -63.218,-3.398 90.707,45.066 132.66,150.797 122.179,134.359 -36.293,-57.262 -107.441,-65.48 -171.5,-65.48 -15.871,0 -15.019,-3.121 -15.871,0 -0.57,3.121 83.34,41.379 109.129,58.679 92.692,61.219 97.801,106.008 121.039,178.58 2.551,165.26 -9.918,329.95 19.563,513.07 43.937,269.01 335.898,274.96 447.867,216.57 106.02,8.22 225.36,-76.82 235.56,-225.64 13.61,-189.92 -7.37,-390.9 -4.25,-593.009" /><path
         id="path20"
         style="fill:#000000;fill-opacity:1;fill-rule:evenodd;stroke:none"
         d="m 980.387,1734.12 c -119.34,23.53 -224.223,-80.5 -235.84,-216 -24.102,-272.98 -13.039,-547.37 -18.992,-821.483 47.902,3.679 96.09,7.09 144.281,10.769 176.604,9.922 352.624,20.133 528.944,29.774 -46.48,273.26 1.7,568.91 -61.23,845 -47.05,204.38 -263.05,233.86 -357.163,151.94" /><path
         id="path22"
         style="fill:#000000;fill-opacity:1;fill-rule:evenodd;stroke:none"
         d="m 1051.54,1744.89 0,0 c -162.435,0 -295.372,-133.8 -295.372,-297.64 l 0,-763.648 c 0,-163.563 132.937,-297.641 295.372,-297.641 162.71,0 295.65,134.078 295.65,297.641 l 0,763.648 c 0,163.84 -132.94,297.64 -295.65,297.64" /><path
         id="path24"
         style="fill:#fdfdfd;fill-opacity:1;fill-rule:evenodd;stroke:none"
         d="m 1051.54,1729.87 0,0 c -154.774,0 -280.915,-127.28 -280.915,-282.61 l 0,-763.662 c 0,-155.34 126.141,-282.614 280.915,-282.614 154.49,0 280.91,127.274 280.91,282.614 l 0,763.662 c 0,155.33 -126.42,282.61 -280.91,282.61" /><path
         id="path26"
         style="fill:#000000;fill-opacity:1;fill-rule:evenodd;stroke:none"
         d="m 993.711,1425.14 c -18.992,9.35 -66.051,-29.2 -71.723,-5.1 -3.679,17.01 -28.058,74.83 -12.187,90.14 23.527,22.11 78.808,12.76 109.139,28.91 20.41,8.79 13.32,27.78 22.39,37.14 13.89,12.19 62.36,-1.14 70.02,-9.92 32.31,-29.2 -1.42,-91.28 -26.65,-116.51 -13.6,-12.19 -26.36,-30.33 -40.82,-42.52 -18.42,-16.72 -26.64,25.23 -50.169,17.86 m 211.749,-231.02 c -19.56,47.05 -66.9,93.26 -118.21,45.92 -27.49,-25.23 -31.74,-68.88 -22.39,-107.72 6.52,-29.2 15.87,-55.56 37.13,-76.53 25.23,-23.25 102.9,-16.16 113.11,23.52 5.67,24.38 14.45,35.72 7.65,64.92 -2.84,11.9 -5.95,49.6 -17.29,49.89 M 1052.95,532.793 c 43.37,0.57 85.04,10.211 121.89,26.648 3.12,6.243 5.67,13.61 7.66,21.832 7.08,37.411 -0.57,79.368 7.08,119.047 11.91,60.102 26.37,145.133 -11.9,193.891 -34.3,43.941 -108.85,92.691 -164.13,70.019 -34.3,-13.328 -22.671,-46.488 -78.8,-49.609 -37.98,-0.848 -93.539,-24.66 -101.199,-63.777 -8.781,-42.242 7.66,-102.614 29.476,-142.024 1.703,-5.097 78.813,-127.547 109.993,-144.558 21.539,-11.34 50.74,-23.809 79.93,-31.469 m -289.13,816.947 0,-434.549 c 30.328,17.289 58.957,37.411 87.59,54.993 100.629,62.926 0,277.786 -87.59,379.556" /><path
         id="path28"
         style="fill:#000000;fill-opacity:1;fill-rule:evenodd;stroke:none"
         d="m 707.125,948.637 c 14.172,189.643 26.082,383.533 94.68,560.983 20.972,53.85 111.972,66.33 167.812,143.15 13.891,-161.3 370.493,-670.961 351.493,-956.133 17.85,1.133 31.19,1.422 49.03,1.98 -2.25,356.323 -313.78,666.713 -351.48,951.883 12.75,-48.19 117.07,-75.97 124.14,-126.14 48.2,-338.46 195.04,-520.73 259.09,-797.962 24.11,-0.851 99.79,-78.23 123.59,-79.929 -15.29,25.23 -39.39,74.258 -59.23,125 18.71,-14.172 39.39,-26.36 58.11,-34.86 16.16,-7.652 129.53,-37.992 60.37,-3.402 -86.73,43.371 -126.7,144.281 -116.78,128.691 34.58,-54.992 102.9,-62.652 163.84,-62.652 15.31,0 14.46,-2.828 15.31,0 0.57,2.844 -79.66,39.41 -104.32,55.852 -88.73,58.672 -93.26,101.48 -115.65,170.932 -2.56,157.6 9.35,315.21 -18.72,490.11 -41.95,257.1 -321.15,262.77 -428.023,207.21 -101.481,7.65 -215.43,-73.7 -225.352,-216 -12.758,-181.14 -44.789,-365.39 -47.91,-558.713" /><path
         id="path30"
         style="fill:#000000;fill-opacity:1;fill-rule:evenodd;stroke:none"
         d="M 705.711,1546.46 C 466.75,1623 478.367,1738.09 556.32,1866.5 c 3.969,5.39 22.399,8.5 21.828,1.7 -12.468,-99.79 6.801,-143.43 248.879,-181.43 -34.007,-27.2 -87.297,-112.25 -121.316,-140.31" /><path
         id="path32"
         style="fill:#000000;fill-opacity:1;fill-rule:evenodd;stroke:none"
         d="m 1245.43,1546.46 c 238.96,76.54 227.34,191.63 149.39,320.04 -3.97,5.39 -22.4,8.5 -21.84,1.7 12.48,-99.79 -6.79,-143.43 -248.87,-181.43 34.01,-27.2 87.3,-112.25 121.32,-140.31" /><path
         id="path34"
         style="fill:#000000;fill-opacity:1;fill-rule:nonzero;stroke:none"
         d="m 1534.84,1630.94 c 1.13,-5.1 1.13,-11.62 0.28,-16.72 20.41,-58.97 18.15,-101.2 -2.55,-130.11 -20.41,-29.2 -58.96,-44.23 -110.83,-49.33 -11.62,-4.53 -30.05,0.29 -49.33,10.21 -13.6,7.37 -28.06,17.01 -40.25,27.49 -12.75,10.49 -22.96,21.83 -28.34,32.03 -4.54,8.51 -5.67,16.73 -1.99,23.82 l 2.84,2.83 c 22.67,16.72 53.85,28.35 86.17,40.54 45.92,17.29 94.39,35.43 121.89,69.44 l 1.98,1.71 c 2.27,1.41 4.54,2.26 6.81,2.26 l 0,-0.28 c 4.82,0 8.22,-2.27 10.49,-5.95 1.41,-2.27 2.26,-4.82 2.83,-7.94 m -17.57,-15.02 c 0.28,1.13 0.56,2.55 0.56,3.96 -30.9,-31.18 -76.82,-48.47 -120.47,-64.63 -30.05,-11.33 -58.96,-22.39 -79.94,-36.56 0.29,-1.42 0.85,-3.69 2.27,-5.95 4.25,-7.94 13.04,-17.58 23.81,-26.93 11.34,-9.36 24.66,-18.43 37.14,-24.95 15.3,-7.94 28.63,-12.47 34.29,-9.35 l 3.41,0.85 c 47.62,4.53 82.2,17.29 99.78,41.95 17.57,24.66 18.42,62.08 -0.57,116.22" /><path
         id="path36"
         style="fill:#000000;fill-opacity:1;fill-rule:evenodd;stroke:none"
         d="m 1111.63,881.176 c 60.94,0 110.55,89.566 110.55,199.274 0,109.7 -49.61,199.27 -110.55,199.27 -60.09,0 -109.98,-89.57 -109.98,-199.27 0,-109.708 49.89,-199.274 109.98,-199.274" /><path
         id="path38"
         style="fill:#fdfdfd;fill-opacity:1;fill-rule:evenodd;stroke:none"
         d="m 1106.81,911.789 c 49.89,0 90.14,77.668 90.14,172.911 0,94.96 -40.25,172.63 -90.14,172.63 -49.04,0 -89.29,-77.67 -89.29,-172.63 0,-95.243 40.25,-172.911 89.29,-172.911" /><path
         id="path40"
         style="fill:#009646;fill-opacity:1;fill-rule:evenodd;stroke:none"
         d="m 1096.61,918.309 c 38.83,0 70.87,47.058 70.87,103.751 0,57.26 -32.04,103.46 -70.87,103.46 -38.83,0 -70.87,-46.2 -70.87,-103.46 0,-56.693 32.04,-103.751 70.87,-103.751" /><path
         id="path42"
         style="fill:#000000;fill-opacity:1;fill-rule:evenodd;stroke:none"
         d="m 1104.26,948.637 c 26.36,0 47.91,31.461 47.91,70.583 0,38.55 -21.55,70.87 -47.91,70.87 -26.36,0 -47.91,-32.32 -47.91,-70.87 0,-39.122 21.55,-70.583 47.91,-70.583" /><path
         id="path44"
         style="fill:#fdfdfd;fill-opacity:1;fill-rule:evenodd;stroke:none"
         d="m 1068.83,1008.16 c 11.91,0 21.54,13.89 21.54,30.62 0,17.58 -9.63,31.47 -21.54,31.47 -11.91,0 -20.98,-13.89 -20.98,-31.47 0,-16.73 9.07,-30.62 20.98,-30.62" /><path
         id="path46"
         style="fill:#fdfdfd;fill-opacity:1;fill-rule:evenodd;stroke:none"
         d="m 1098.02,1033.11 c 21.54,0 39.69,26.08 39.69,57.54 0,31.47 -18.15,57.26 -39.69,57.26 -21.54,0.29 -39.69,-25.79 -39.69,-57.26 0,-31.46 18.15,-57.54 39.69,-57.54" /><path
         id="path48"
         style="fill:#fdfdfd;fill-opacity:1;fill-rule:evenodd;stroke:none"
         d="m 1042.75,1681.96 c 33.17,-26.65 92.69,-51.87 108.85,-134.36 48.76,-247.18 143.15,-483.31 246.61,-657.92 -109.13,235.84 -192.75,454.39 -230.17,660.47 -19.27,107.15 -91.56,126.14 -125.29,131.81" /><path
         id="path50"
         style="fill:#fdfdfd;fill-opacity:1;fill-rule:evenodd;stroke:none"
         d="m 1045.3,1712.57 c 94.68,7.66 169.23,-42.8 190.77,-159.3 -9.64,58.11 -20.41,118.48 -70.58,147.96 -34.87,20.41 -85.32,20.98 -120.19,11.34" /><path
         id="path52"
         style="fill:#fdfdfd;fill-opacity:1;fill-rule:evenodd;stroke:none"
         d="m 972.168,1684.23 c -94.684,7.65 -169.512,-42.8 -190.773,-159.02 9.64,58.11 20.41,118.48 70.582,147.68 34.578,20.69 85.32,21.26 120.191,11.34" /><path
         id="path54"
         style="fill:#000000;fill-opacity:1;fill-rule:nonzero;stroke:none"
         d="m 460.512,1649.64 c -1.418,-5.66 -1.699,-13.03 -0.852,-18.43 -24.949,-63.76 -24.379,-109.69 -3.117,-142.57 21.258,-32.6 62.359,-50.75 119.059,-58.68 12.468,-5.66 32.878,-1.14 54.14,9.08 15.309,7.08 31.75,17.28 45.641,28.06 14.168,11.04 26.07,22.95 32.027,33.72 5.383,9.07 7.082,18.14 3.403,25.81 l -2.84,3.67 c -24.09,19 -57.821,33.18 -92.692,47.91 -49.32,20.98 -101.48,43.09 -130.109,81.36 l -2.27,1.98 c -2.261,1.71 -4.82,2.56 -7.371,2.84 l 0,-0.28 c -4.82,0.28 -8.777,-1.99 -11.621,-6.24 -1.418,-2.27 -2.547,-5.1 -3.398,-8.23 m 18.711,-17.28 c -0.282,1.12 -0.571,2.83 -0.571,4.25 32.321,-35.43 81.918,-56.41 128.981,-76.25 32.308,-13.61 63.488,-26.65 85.597,-43.38 0,-1.69 -1.128,-3.96 -2.546,-6.52 -4.821,-8.5 -15.024,-18.42 -27.493,-28.05 -12.48,-9.93 -27.5,-19 -41.668,-25.8 -17.011,-7.95 -31.75,-12.2 -37.703,-8.79 l -3.687,1.14 c -51.871,7.08 -89.289,22.67 -107.43,50.45 -17.859,27.78 -17.293,68.6 5.949,127" /><path
         id="path56"
         style="fill:#000000;fill-opacity:1;fill-rule:evenodd;stroke:none"
         d="m 856.23,885.141 c 62.36,0 113.387,94.113 113.387,208.909 0,115.09 -51.027,208.92 -113.387,208.92 -62.652,0 -112.82,-93.83 -112.82,-208.92 0,-114.796 50.168,-208.909 112.82,-208.909" /><path
         id="path58"
         style="fill:#fdfdfd;fill-opacity:1;fill-rule:evenodd;stroke:none"
         d="m 849.711,912.07 c 56.977,0 102.609,84.192 102.609,187.65 0,103.47 -45.632,187.94 -102.609,187.94 -56.133,0 -101.762,-84.47 -101.762,-187.94 0,-103.458 45.629,-187.65 101.762,-187.65" /><path
         id="path60"
         style="fill:#009646;fill-opacity:1;fill-rule:evenodd;stroke:none"
         d="m 862.184,919.727 c 40.25,0 73.129,48.468 73.129,106.863 0,59.52 -32.879,107.16 -73.129,107.16 -40.25,0 -73.422,-47.64 -73.422,-107.16 0,-58.395 33.172,-106.863 73.422,-106.863" /><path
         id="path62"
         style="fill:#000000;fill-opacity:1;fill-rule:evenodd;stroke:none"
         d="m 870.117,950.906 c 27.211,0 49.321,32.321 49.321,72.854 0,39.69 -22.11,73.13 -49.321,73.13 -27.5,0 -49.609,-33.44 -49.609,-73.13 0,-40.533 22.109,-72.854 49.609,-72.854" /><path
         id="path64"
         style="fill:#fdfdfd;fill-opacity:1;fill-rule:evenodd;stroke:none"
         d="m 833.27,1012.13 c 12.468,0 22.386,14.46 22.386,32.03 0,17.86 -9.918,32.32 -22.386,32.32 -12.192,0 -21.543,-14.46 -21.543,-32.32 0,-17.57 9.351,-32.03 21.543,-32.03" /><path
         id="path66"
         style="fill:#fdfdfd;fill-opacity:1;fill-rule:evenodd;stroke:none"
         d="m 863.598,1038.21 c 22.113,0 40.82,26.93 40.82,59.24 0,32.6 -18.707,59.25 -40.82,59.25 -22.387,0 -41.098,-26.65 -41.098,-59.25 0,-32.31 18.711,-59.24 41.098,-59.24" /><path
         id="path68"
         style="fill:#000000;fill-opacity:1;fill-rule:evenodd;stroke:none"
         d="m 668.574,1271.5 c 38.27,5.68 76.25,121.61 129.832,109.43 109.699,-25.23 250.574,-107.45 178.297,-160.45 -53.297,-39.41 -96.949,32.04 -104.887,52.45 -15.589,19.27 -59.519,6.52 -89.57,9.06 -57.832,4.53 -127.84,-76.54 -113.672,-10.49" /><path
         id="path70"
         style="fill:#000000;fill-opacity:1;fill-rule:evenodd;stroke:none"
         d="m 1348.89,1308.07 c -41.95,7.65 -157.61,117.35 -188.79,85.32 -64.91,-66.61 -199.561,-113.1 -143.43,-163.84 45.64,-41.1 75.12,17.29 83.05,37.13 45.93,11.34 97.52,-8.78 139.75,6.52 46.77,17.01 93.55,0 109.42,34.87" /><path
         id="path72"
         style="fill:#000000;fill-opacity:1;fill-rule:evenodd;stroke:none"
         d="m 1072.51,600.828 0,130.68 -225.069,0 0,-157.039 c 25.512,4.816 48.762,5.668 62.93,0.558 32.883,-11.332 38.832,-31.461 74.27,-21.261 35.149,8.793 64.339,25.519 87.869,47.062" /><path
         id="path74"
         style="fill:#f6ae94;fill-opacity:1;fill-rule:evenodd;stroke:none"
         d="m 963.945,111.852 c 280.355,0 509.105,179.429 509.105,399.398 0,219.402 -228.75,398.551 -509.105,398.551 -280.351,0 -509.101,-179.149 -509.101,-398.551 0,-219.969 228.75,-399.398 509.101,-399.398" /><path
         id="path76"
         style="fill:#fad7c8;fill-opacity:1;fill-rule:evenodd;stroke:none"
         d="m 962.527,270.59 c 262.773,0 477.923,138.609 477.923,308.133 0,169.789 -215.15,307.84 -477.923,307.84 -263.621,0 -478.488,-138.051 -478.488,-307.84 0,-169.524 214.867,-308.133 478.488,-308.133" /><path
         id="path78"
         style="fill:#f6ae94;fill-opacity:1;fill-rule:evenodd;stroke:none"
         d="m 1201.77,511.82 c 95.53,0 172.91,71.719 172.91,159.59 0,88.16 -77.38,160.16 -172.91,160.16 -95.81,0 -173.2,-72 -173.2,-160.16 0,-87.871 77.39,-159.59 173.2,-159.59" /><path
         id="path80"
         style="fill:#f6ae94;fill-opacity:1;fill-rule:evenodd;stroke:none"
         d="m 751.629,511.82 c 89.57,0 163.281,66.328 163.281,147.688 0,81.633 -73.711,147.961 -163.281,147.961 -90.141,0 -162.988,-66.328 -162.988,-147.961 0,-81.36 72.847,-147.688 162.988,-147.688" /><path
         id="path82"
         style="fill:#fad7c8;fill-opacity:1;fill-rule:evenodd;stroke:none"
         d="m 1210.28,547.535 c 88.43,0 161.01,62.082 161.01,138.903 0,76.82 -72.58,139.457 -161.01,139.457 -89.01,0 -161.57,-62.637 -161.57,-139.457 0,-76.821 72.56,-138.903 161.57,-138.903" /><path
         id="path84"
         style="fill:#fcebe3;fill-opacity:1;fill-rule:evenodd;stroke:none"
         d="m 1231.54,532.512 c 68.87,0 125.28,61.801 125.28,137.199 0,75.68 -56.41,137.48 -125.28,137.48 -68.6,0 -125.01,-61.8 -125.01,-137.48 0,-75.398 56.41,-137.199 125.01,-137.199" /><path
         id="path86"
         style="fill:#a65f4a;fill-opacity:1;fill-rule:evenodd;stroke:none"
         d="m 1246.28,561.711 c 50.45,0 91.56,42.238 91.56,94.387 0,51.59 -41.11,93.832 -91.56,93.832 -50.17,0 -90.99,-42.242 -90.99,-93.832 0,-52.149 40.82,-94.387 90.99,-94.387" /><path
         id="path88"
         style="fill:#fad7c8;fill-opacity:1;fill-rule:evenodd;stroke:none"
         d="m 759,544.133 c 85.891,0 155.91,60.941 155.91,135.5 0,74.832 -70.019,135.492 -155.91,135.492 -85.891,0 -155.91,-60.66 -155.91,-135.492 0,-74.559 70.019,-135.5 155.91,-135.5" /><path
         id="path90"
         style="fill:#fcebe3;fill-opacity:1;fill-rule:evenodd;stroke:none"
         d="m 767.223,537.047 c 66.328,0 120.468,57.543 120.468,129.262 0,71.148 -54.14,129.257 -120.468,129.257 -66.051,0 -119.621,-58.109 -119.621,-129.257 0,-71.719 53.57,-129.262 119.621,-129.262" /><path
         id="path92"
         style="fill:#a65f4a;fill-opacity:1;fill-rule:evenodd;stroke:none"
         d="m 772.039,561.711 c 56.133,0 102.051,43.367 102.051,96.937 0,53.582 -45.918,97.231 -102.051,97.231 -56.41,0 -102.051,-43.649 -102.051,-97.231 0,-53.57 45.641,-96.937 102.051,-96.937" /><path
         id="path94"
         style="fill:#000000;fill-opacity:1;fill-rule:evenodd;stroke:none"
         d="m 1256.77,583.82 c 32.87,0 59.8,27.207 59.8,61.231 0,33.726 -26.93,61.508 -59.8,61.508 -32.61,0 -59.54,-27.782 -59.54,-61.508 0,-34.024 26.93,-61.231 59.54,-61.231" /><path
         id="path96"
         style="fill:#000000;fill-opacity:1;fill-rule:evenodd;stroke:none"
         d="m 765.238,587.504 c 37.418,0 68.309,29.199 68.309,64.91 0,36 -30.891,64.922 -68.309,64.922 -37.422,0 -67.75,-28.922 -67.75,-64.922 0,-35.711 30.328,-64.91 67.75,-64.91" /><path
         id="path98"
         style="fill:#e22228;fill-opacity:1;fill-rule:evenodd;stroke:none"
         d="m 656.102,406.371 c 0,0 16.16,28.91 84.761,60.09 74.551,34.019 117.071,47.059 142.008,34.301 26.082,-13.321 53.012,-32.313 53.012,-32.313 0,0 56.41,21.539 76.817,19.27 48.47,-5.379 168.09,-159.867 183.97,-198.699 0,0 -25.51,45.351 -98.65,67.179 -54.99,16.723 -94.96,13.321 -176.028,-19.277 -83.34,-33.453 -146.269,-13.891 -196.437,10.207 -47.063,22.672 -69.453,59.242 -69.453,59.242" /><path
         id="path100"
         style="fill:#e22228;fill-opacity:1;fill-rule:evenodd;stroke:none"
         d="m 673.395,306.875 c 0,0 17.859,47.059 86.46,78.238 74.547,33.731 111.969,14.172 136.911,1.41 26.078,-13.32 36.57,-27.488 36.57,-27.488 0,0 46.769,15.02 67.184,12.75 39.39,-4.25 68.02,-20.972 93.53,-39.109 64.06,-45.082 135.79,-120.192 135.79,-120.192 0,0 -41.39,22.391 -114.53,44.5 -54.99,16.442 -94.95,13.039 -176.025,-19.281 -83.34,-33.437 -146.269,-13.89 -196.441,10.211 -47.059,22.391 -69.449,58.961 -69.449,58.961" /><path
         id="path102"
         style="fill:#e22228;fill-opacity:1;fill-rule:evenodd;stroke:none"
         d="m 868.699,442.652 c -122.457,3.121 -205.508,-28.058 -205.508,-28.058 6.801,-121.891 90.711,-194.461 90.711,-194.461 298.768,136.633 473.668,-8.789 473.668,-8.789 -30.05,161.859 -200.98,224.511 -347.527,231.031 -3.691,0.277 -7.652,0.277 -11.344,0.277" /><path
         id="path104"
         style="fill:#fdfdfd;fill-opacity:1;fill-rule:evenodd;stroke:none"
         d="m 882.023,431.883 c -121.039,4.82 -214.578,-30.051 -214.578,-30.051 11.899,-135.781 75.969,-168.941 75.969,-168.941 323.716,143.429 484.146,-21.547 484.146,-21.547 -45.35,159.308 -200.41,214.019 -342.415,220.258 -1.141,0 -2.27,0.281 -3.122,0.281" /><path
         id="path106"
         style="fill:#000000;fill-opacity:1;fill-rule:evenodd;stroke:none"
         d="m 681.047,329.27 c 0,0 30.051,-60.383 30.332,-60.942 0,0 136.91,96.09 284.027,75.68 180.574,-25.231 230.184,-128.981 230.184,-128.981 0,0 -53.01,114.243 -233.582,139.18 -13.61,1.992 -27.5,3.121 -41.102,3.973 -134.359,5.957 -269.859,-28.91 -269.859,-28.91" /><path
         id="path108"
         style="fill:#e22228;fill-opacity:1;fill-rule:evenodd;stroke:none"
         d="m 781.68,200.293 c 0,0 -122.742,86.738 -115.653,261.348 0,0 -57.828,-179.43 115.653,-261.348" /></g></g></svg>