<?xml version="1.0" encoding="UTF-8" standalone="no"?>
<svg
   xmlns:dc="http://purl.org/dc/elements/1.1/"
   xmlns:cc="http://creativecommons.org/ns#"
   xmlns:rdf="http://www.w3.org/1999/02/22-rdf-syntax-ns#"
   xmlns:svg="http://www.w3.org/2000/svg"
   xmlns="http://www.w3.org/2000/svg"
   viewBox="0 0 248.03751 248.03751"
   height="248.03751"
   width="248.03751"
   xml:space="preserve"
   version="1.1"
   id="svg2"><metadata
     id="metadata8"><rdf:RDF><cc:Work
         rdf:about=""><dc:format>image/svg+xml</dc:format><dc:type
           rdf:resource="http://purl.org/dc/dcmitype/StillImage" /></cc:Work></rdf:RDF></metadata><defs
     id="defs6" /><g
     transform="matrix(1.25,0,0,-1.25,0,248.0375)"
     id="g10"><g
       transform="scale(0.1,0.1)"
       id="g12"><path
         id="path14"
         style="fill:#fad7c8;fill-opacity:1;fill-rule:evenodd;stroke:none"
         d="m 1603.16,1423.43 c 6.52,4.82 17.29,19.55 9.07,20.69 -75.68,-14.74 -165.54,44.51 -232.44,48.76 -25.51,-10.77 4.25,-125.58 32.31,-131.81 83.34,-56.98 148.82,-51.31 191.06,62.36" /><path
         id="path16"
         style="fill:#fad7c8;fill-opacity:1;fill-rule:evenodd;stroke:none"
         d="m 460.797,1491.18 c -7.371,5.09 -18.992,21.53 -10.199,22.68 83.047,-16.16 181.129,48.75 254.547,53.57 28.062,-11.91 -4.54,-137.77 -35.438,-144.57 -91.269,-62.37 -162.711,-56.41 -208.91,68.32" /><path
         id="path18"
         style="fill:#000000;fill-opacity:1;fill-rule:evenodd;stroke:none"
         d="m 1266.4,944.652 c -15.02,198.438 27.5,409.618 -44.5,595.278 -21.83,56.41 -117.07,69.45 -175.47,149.66 C 1063.44,971.305 484.602,664.875 464.48,636.813 c 16.161,26.363 41.383,77.671 62.083,130.671 -19.559,-14.742 -41.102,-27.492 -60.661,-36.558 -17.011,-7.942 -135.5,-39.692 -63.218,-3.403 90.707,45.352 132.66,150.801 122.179,134.641 -36.293,-57.539 -107.441,-65.762 -171.5,-65.762 -15.871,0 -15.019,-2.839 -15.871,0 -0.57,3.121 83.34,41.383 109.129,58.684 92.692,61.219 97.801,106.008 121.039,178.574 2.551,165.27 -9.918,329.95 19.563,513.07 43.937,269.01 335.898,274.97 447.867,216.86 106.02,7.93 225.36,-77.11 235.56,-225.93 13.61,-189.64 -7.37,-390.89 -4.25,-593.008" /><path
         id="path20"
         style="fill:#000000;fill-opacity:1;fill-rule:evenodd;stroke:none"
         d="m 1072.51,628.59 0,130.961 -225.069,0 0,-157.321 c 25.512,4.821 48.762,5.672 62.93,0.559 32.883,-11.328 38.832,-31.457 74.27,-20.969 35.149,8.789 64.339,25.231 87.869,46.77" /><path
         id="path22"
         style="fill:#000000;fill-opacity:1;fill-rule:evenodd;stroke:none"
         d="m 980.387,1761.88 c -119.34,23.81 -224.223,-80.22 -235.84,-215.72 -24.102,-272.97 -13.039,-547.648 -18.992,-821.758 47.902,3.68 96.09,7.371 144.281,10.77 176.604,9.922 354.894,11.34 531.484,21.262 -46.47,272.976 -0.84,577.416 -63.77,853.506 -47.05,204.38 -263.05,233.86 -357.163,151.94" /><path
         id="path24"
         style="fill:#000000;fill-opacity:1;fill-rule:evenodd;stroke:none"
         d="m 1051.54,1772.65 0,0 c -162.435,0 -295.372,-133.79 -295.372,-297.63 l 0,-763.375 c 0,-163.84 132.937,-297.922 295.372,-297.922 162.71,0 295.65,134.082 295.65,297.922 l 0,763.375 c 0,163.84 -132.94,297.63 -295.65,297.63" /><path
         id="path26"
         style="fill:#fdfdfd;fill-opacity:1;fill-rule:evenodd;stroke:none"
         d="m 1051.54,1757.91 0,0 c -154.774,0 -280.915,-127.28 -280.915,-282.89 l 0,-763.375 c 0,-155.622 126.141,-282.903 280.915,-282.903 154.49,0 280.91,127.281 280.91,282.903 l 0,763.375 c 0,155.61 -126.42,282.89 -280.91,282.89" /><path
         id="path28"
         style="fill:#000000;fill-opacity:1;fill-rule:evenodd;stroke:none"
         d="m 993.711,1452.91 c -18.992,9.35 -66.051,-29.2 -71.723,-5.11 -3.679,17.02 -28.058,74.84 -12.187,90.15 23.527,22.1 78.808,13.03 109.139,28.91 20.41,8.78 13.32,27.78 22.39,37.14 13.89,12.19 62.36,-1.14 70.02,-9.93 32.31,-29.19 -1.42,-91 -26.65,-116.22 -13.6,-12.47 -26.36,-30.62 -40.82,-42.8 -18.42,-16.44 -26.64,25.23 -50.169,17.86 m 211.749,-230.74 c -19.56,46.77 -66.9,93.26 -118.21,45.63 -27.49,-25.23 -31.74,-68.87 -22.39,-107.43 6.52,-29.48 15.87,-55.84 37.13,-76.82 25.23,-23.25 102.9,-16.16 113.11,23.52 5.67,24.39 14.45,35.73 7.65,64.93 -2.84,11.89 -5.95,49.6 -17.29,50.17 M 1052.95,560.555 c 43.37,0.57 85.04,10.492 121.89,26.929 3.12,5.961 5.67,13.332 7.66,21.551 7.08,37.699 -0.57,79.371 7.08,119.051 11.91,60.102 26.37,145.141 -11.9,194.172 -34.3,43.656 -108.85,92.402 -164.13,69.738 -34.3,-13.328 -22.671,-46.488 -78.8,-49.328 -37.98,-1.133 -93.539,-24.66 -101.199,-63.781 -8.781,-42.231 7.66,-102.891 29.476,-142.012 1.703,-5.098 78.813,-127.84 109.993,-144.848 21.539,-11.339 50.74,-23.812 79.93,-31.472 m -289.13,817.235 0,-434.833 c 30.328,17.57 58.957,37.41 87.59,54.988 100.629,62.935 0,277.785 -87.59,379.845" /><path
         id="path30"
         style="fill:#000000;fill-opacity:1;fill-rule:evenodd;stroke:none"
         d="m 707.125,976.684 c 14.172,189.356 26.082,383.526 94.68,560.696 20.972,54.14 111.972,66.33 167.812,143.14 13.891,-161.29 370.493,-670.95 351.493,-956.114 17.85,1.129 31.19,1.699 49.03,1.981 -2.25,356.313 -313.78,666.993 -351.48,952.163 12.75,-48.48 117.07,-76.25 124.14,-126.44 48.2,-338.16 183.98,-519.29 248.05,-796.247 24.09,-1.129 110.83,-79.937 134.63,-81.347 -15.29,24.941 -39.39,74.257 -59.23,124.718 18.71,-14.168 39.39,-26.078 58.11,-34.859 16.16,-7.66 129.53,-37.988 60.37,-3.41 -86.73,43.371 -126.7,144.289 -116.78,128.699 34.58,-55 102.9,-62.648 163.84,-62.648 15.31,0 14.46,-2.832 15.31,0 0.57,2.839 -79.66,39.398 -104.32,55.839 -88.73,58.68 -93.26,101.481 -115.65,170.935 -2.56,157.6 9.35,315.21 -18.72,490.1 -41.95,257.11 -321.15,262.77 -428.023,207.22 -101.481,7.66 -215.43,-73.7 -225.352,-215.72 -12.758,-181.41 -44.789,-365.66 -47.91,-558.706" /><path
         id="path32"
         style="fill:#f6ae94;fill-opacity:1;fill-rule:evenodd;stroke:none"
         d="m 963.945,139.613 c 280.355,0 509.105,179.434 509.105,399.403 0,219.398 -228.75,398.55 -509.105,398.55 -280.351,0 -509.101,-179.152 -509.101,-398.55 0,-219.969 228.75,-399.403 509.101,-399.403" /><path
         id="path34"
         style="fill:#fad7c8;fill-opacity:1;fill-rule:evenodd;stroke:none"
         d="m 962.527,298.355 c 262.773,0 477.923,138.61 477.923,308.129 0,170.071 -215.15,308.121 -477.923,308.121 -263.621,0 -478.488,-138.05 -478.488,-308.121 0,-169.519 214.867,-308.129 478.488,-308.129" /><path
         id="path36"
         style="fill:#f6ae94;fill-opacity:1;fill-rule:evenodd;stroke:none"
         d="m 1201.77,539.582 c 95.53,0 172.91,71.723 172.91,159.59 0,88.16 -77.38,160.441 -172.91,160.441 -95.81,0 -173.2,-72.281 -173.2,-160.441 0,-87.867 77.39,-159.59 173.2,-159.59" /><path
         id="path38"
         style="fill:#f6ae94;fill-opacity:1;fill-rule:evenodd;stroke:none"
         d="m 751.629,539.582 c 89.57,0 163.281,66.332 163.281,147.973 0,81.347 -73.711,147.679 -163.281,147.679 -90.141,0 -162.988,-66.332 -162.988,-147.679 0,-81.641 72.847,-147.973 162.988,-147.973" /><path
         id="path40"
         style="fill:#fad7c8;fill-opacity:1;fill-rule:evenodd;stroke:none"
         d="m 1210.28,575.301 c 88.43,0 161.01,62.359 161.01,138.898 0,76.821 -72.58,139.461 -161.01,139.461 -89.01,0 -161.57,-62.64 -161.57,-139.461 0,-76.539 72.56,-138.898 161.57,-138.898" /><path
         id="path42"
         style="fill:#fcebe3;fill-opacity:1;fill-rule:evenodd;stroke:none"
         d="m 1231.54,560.559 c 68.87,0 125.28,61.511 125.28,136.91 0,75.691 -56.41,137.48 -125.28,137.48 -68.6,0 -125.01,-61.789 -125.01,-137.48 0,-75.399 56.41,-137.188 125.01,-136.91" /><path
         id="path44"
         style="fill:#a65f4a;fill-opacity:1;fill-rule:evenodd;stroke:none"
         d="m 1246.28,589.473 c 50.45,0 91.56,42.242 91.56,94.39 0,51.879 -41.11,93.828 -91.56,93.828 -50.17,0 -90.99,-41.949 -90.99,-93.828 0,-52.148 40.82,-94.39 90.99,-94.39" /><path
         id="path46"
         style="fill:#fad7c8;fill-opacity:1;fill-rule:evenodd;stroke:none"
         d="m 759,571.898 c 85.891,0 155.91,60.942 155.91,135.5 0,74.829 -70.019,135.782 -155.91,135.782 -85.891,0 -155.91,-60.953 -155.91,-135.782 0,-74.558 70.019,-135.5 155.91,-135.5" /><path
         id="path48"
         style="fill:#fcebe3;fill-opacity:1;fill-rule:evenodd;stroke:none"
         d="m 767.223,564.813 c 66.328,0 120.468,57.539 120.468,129.257 0,71.153 -54.14,129.543 -120.468,129.543 -66.051,0 -119.621,-58.39 -119.621,-129.543 0,-71.718 53.57,-129.257 119.621,-129.257" /><path
         id="path50"
         style="fill:#a65f4a;fill-opacity:1;fill-rule:evenodd;stroke:none"
         d="m 772.039,589.473 c 56.133,0 102.051,43.371 102.051,96.941 0,53.578 -45.918,97.52 -102.051,97.52 -56.41,0 -102.051,-43.942 -102.051,-97.52 0,-53.57 45.641,-96.941 102.051,-96.941" /><path
         id="path52"
         style="fill:#000000;fill-opacity:1;fill-rule:evenodd;stroke:none"
         d="m 1256.77,611.582 c 32.87,0 59.8,27.211 59.8,61.512 0,33.449 -26.93,61.23 -59.8,61.23 -32.61,0 -59.54,-27.781 -59.54,-61.23 0,-34.301 26.93,-61.512 59.54,-61.512" /><path
         id="path54"
         style="fill:#000000;fill-opacity:1;fill-rule:evenodd;stroke:none"
         d="m 765.238,615.27 c 37.418,0 68.309,29.476 68.309,64.91 0,36 -30.891,64.918 -68.309,64.918 -37.422,0 -67.75,-28.918 -67.75,-64.918 0,-35.434 30.328,-64.91 67.75,-64.91" /><path
         id="path56"
         style="fill:#000000;fill-opacity:1;fill-rule:evenodd;stroke:none"
         d="m 684.449,1574.51 c -157.89,50.46 -150.242,126.71 -98.648,211.75 2.558,3.4 14.738,5.67 14.457,0.85 -8.219,-65.77 4.543,-94.68 164.691,-119.91 -22.672,-18.14 -57.82,-74.26 -80.5,-92.69" /><path
         id="path58"
         style="fill:#000000;fill-opacity:1;fill-rule:evenodd;stroke:none"
         d="m 1312.89,1574.51 c 158.17,50.46 150.52,126.71 98.65,211.75 -2.56,3.4 -14.74,5.67 -14.18,0.85 8.22,-65.77 -4.53,-94.68 -164.69,-119.91 22.39,-18.14 57.83,-74.26 80.22,-92.69" /><path
         id="path60"
         style="fill:#000000;fill-opacity:1;fill-rule:nonzero;stroke:none"
         d="m 1621.02,1431.08 c -2.27,-4.54 -6.81,-9.64 -10.49,-13.04 -22.12,-58.39 -50.74,-89.29 -85.32,-98.36 -34.3,-9.36 -73.42,3.97 -116.8,33.16 -11.89,3.97 -22.68,19.56 -30.89,39.41 -5.95,14.17 -11.06,30.89 -13.61,46.77 -3.11,16.15 -3.68,31.46 -1.41,42.8 2.27,9.35 6.52,16.44 13.89,19.56 l 3.97,0.57 c 28.05,-1.99 59.53,-12.76 92.41,-24.1 45.92,-16.16 94.96,-33.45 137.76,-24.94 l 2.84,0 c 2.54,-0.29 4.82,-1.14 6.52,-2.55 3.4,-3.12 4.82,-7.09 3.96,-11.34 -0.28,-2.55 -1.41,-5.39 -2.83,-7.94 m -22.97,-0.28 c 0.86,0.56 1.99,1.7 2.84,2.83 -43.66,-4.25 -90.14,11.91 -134.07,27.21 -30.34,10.49 -59.25,20.7 -84.77,22.96 -0.84,-1.13 -1.41,-3.11 -1.98,-5.95 -1.98,-8.79 -1.13,-21.54 1.14,-35.71 2.55,-14.46 7.09,-29.77 12.47,-43.09 6.8,-15.88 14.17,-27.78 20.41,-29.2 l 3.12,-1.42 c 39.4,-26.92 74.27,-39.4 103.45,-31.46 29.21,7.65 54.16,35.72 74,89.57" /><path
         id="path62"
         style="fill:#fdfdfd;fill-opacity:1;fill-rule:evenodd;stroke:none"
         d="m 1042.75,1710.01 c 33.17,-26.93 92.69,-52.16 108.85,-134.65 48.76,-247.18 143.15,-483.3 246.61,-657.922 -109.13,235.852 -192.75,454.402 -230.17,660.482 -19.27,107.15 -91.56,126.42 -125.29,132.09" /><path
         id="path64"
         style="fill:#fdfdfd;fill-opacity:1;fill-rule:evenodd;stroke:none"
         d="m 1045.3,1740.34 c 94.68,7.65 169.23,-42.8 190.77,-159.31 -9.64,58.4 -20.41,118.49 -70.58,147.97 -34.87,20.69 -85.32,20.98 -120.19,11.34" /><path
         id="path66"
         style="fill:#fdfdfd;fill-opacity:1;fill-rule:evenodd;stroke:none"
         d="m 972.168,1711.99 c -94.684,7.94 -169.512,-42.52 -190.773,-159.02 9.64,58.11 20.41,118.48 70.582,147.68 34.578,20.69 85.32,21.26 120.191,11.34" /><path
         id="path68"
         style="fill:#000000;fill-opacity:1;fill-rule:nonzero;stroke:none"
         d="m 440.953,1499.68 c 2.828,-5.1 7.371,-10.77 11.621,-14.46 24.098,-64.06 55.559,-97.79 93.258,-107.71 37.699,-9.92 80.512,4.25 127.84,36.28 13.043,4.25 24.949,21.54 34.019,43.09 6.524,15.59 11.911,34.01 15.024,51.3 3.117,17.86 3.687,34.59 1.137,46.78 -2.27,10.48 -7.09,18.14 -15.028,21.26 l -4.25,0.85 c -30.902,-1.99 -65.191,-13.89 -101.191,-26.37 -50.461,-17.85 -104.039,-36.56 -150.809,-27.21 l -3.121,0 c -2.832,-0.28 -5.379,-1.42 -7.082,-2.83 l 0,-0.29 c -3.969,-3.12 -5.098,-7.37 -4.539,-12.19 0.289,-2.83 1.422,-5.67 3.121,-8.5 m 25.231,-0.57 c -0.852,0.85 -1.993,1.7 -3.121,3.12 47.621,-4.53 98.652,13.04 146.832,29.76 33.168,11.63 64.918,22.68 92.699,25.23 0.847,-1.13 1.699,-3.4 2.269,-6.52 1.981,-9.35 1.41,-23.81 -1.422,-39.11 -2.839,-15.88 -7.66,-32.6 -13.609,-47.06 -7.367,-17.29 -15.309,-30.61 -22.109,-32.03 l -3.399,-1.42 c -43.371,-29.76 -81.64,-43.09 -113.672,-34.58 -31.75,8.22 -58.961,39.12 -80.789,98.08" /><path
         id="path70"
         style="fill:#e22228;fill-opacity:1;fill-rule:evenodd;stroke:none"
         d="m 674.813,474.672 c 0,0 79.648,-65.762 146.269,-67.75 41.098,-1.422 119.051,-6.524 151.078,-3.402 31.75,3.121 84.76,-18.418 84.76,-18.418 0,0 47.34,43.648 70.02,48.179 22.39,4.821 108.56,34.867 144.28,45.36 58.96,17.289 92.98,60.937 92.98,60.937 0,0 -45.93,-180.848 -92.98,-256.527 C 1209.14,182.98 1068.26,152.941 971.883,172.211 875.223,191.488 831,245.352 778.84,311.68 724.422,380.84 674.813,474.672 674.813,474.672" /><path
         id="path72"
         style="fill:#000000;fill-opacity:1;fill-rule:nonzero;stroke:none"
         d="m 919.156,307.141 -0.277,5.39 c 0,0 -0.289,-2.558 0.277,-5.39" /><path
         id="path74"
         style="fill:#fdfdfd;fill-opacity:1;fill-rule:nonzero;stroke:none"
         d="m 889.395,316.215 c 12.757,-7.371 30.328,-14.742 30.328,-14.742 l -0.571,5.672 c -0.558,2.828 -0.277,5.378 -0.277,5.378 l 0.277,-5.378 c 1.141,-4.821 4.262,-11.34 14.184,-13.891 16.437,-4.539 43.648,-6.242 43.648,-6.242 l -1.699,24.383 7.649,-23.532 c 0,0 22.406,-4.531 42.246,-0.558 19.84,3.679 26.36,11.34 26.36,11.34 l -3.41,45.07 c -7.65,-1.422 -15.59,-2.563 -22.95,-3.121 -58.965,-5.672 -116.797,5.097 -153.926,14.738 2.269,-10.488 8.5,-33.73 18.141,-39.117" /><path
         id="path76"
         style="fill:#fdfdfd;fill-opacity:1;fill-rule:nonzero;stroke:none"
         d="m 1068.54,301.188 c 0,0 2.55,-9.918 31.18,-3.68 28.64,6.512 39.98,17 39.98,17 l -1.71,25.512 7.65,-22.391 c 0,0 -0.85,-3.399 16.74,4.539 17.28,8.223 30.32,22.391 30.32,22.391 l -1.41,18.711 7.36,-15.879 c 0,0 12.19,11.91 14.17,23.25 1.42,6.519 4.82,24.379 7.66,38.828 -34.87,-18.711 -96.37,-48.192 -155.62,-62.078" /><path
         id="path78"
         style="fill:#000000;fill-opacity:1;fill-rule:nonzero;stroke:none"
         d="m 1220.48,409.473 c -2.83,-14.461 -6.24,-32.309 -7.65,-38.828 -1.99,-11.34 -14.18,-23.25 -14.18,-23.25 l -7.37,15.878 0,-15.878 c 0,0 -11.05,-14.172 -28.63,-22.391 -17.29,-7.941 -17,-7.371 -17,-7.371 l -7.66,22.39 1.7,-25.511 c 0,0 -11.34,-10.489 -39.97,-17.008 -28.63,-6.231 -31.18,3.687 -31.18,3.687 l -3.68,46.204 c -5.39,-1.422 -11.06,-2.551 -16.73,-3.68 l 3.4,-45.07 c 0,0 -6.51,-7.661 -26.36,-11.34 -19.84,-3.973 -42.229,0.558 -42.229,0.558 l -7.66,23.532 1.699,-24.383 c 0,0 -27.21,1.703 -43.648,6.242 -9.922,2.551 -13.039,9.07 -14.172,13.891 l 0.563,-5.672 c 0,0 -17.571,7.371 -30.332,14.742 -9.629,5.387 -15.871,28.629 -18.141,39.117 -25.23,6.52 -96.937,43.941 -96.937,43.941 0,0 72.277,-113.96 158.167,-132.378 29.2,-6.243 65.481,-16.731 122.17,-1.704 61.51,16.442 104.32,30.043 139.18,52.723 57.26,37.418 106.02,141.168 106.02,141.168 0,0 -61.23,-39.969 -79.37,-49.609" /><path
         id="path80"
         style="fill:#fdfdfd;fill-opacity:1;fill-rule:nonzero;stroke:none"
         d="m 1127.22,226.07 c 0.57,-7.648 -7.65,-15.019 -18.43,-16.718 -10.77,-1.422 -19.84,3.679 -20.4,11.328 -0.57,7.66 7.65,15.031 18.42,16.453 10.77,1.406 19.84,-3.41 20.41,-11.063" /><path
         id="path82"
         style="fill:#fdfdfd;fill-opacity:1;fill-rule:nonzero;stroke:none"
         d="m 1146.78,247.898 c 0,-2.832 -2.83,-5.39 -6.8,-5.949 -3.69,-0.57 -7.09,1.129 -7.09,3.969 -0.28,2.551 2.55,5.379 6.52,5.949 3.69,0.571 7.09,-1.418 7.37,-3.969" /><path
         id="path84"
         style="fill:#fdfdfd;fill-opacity:1;fill-rule:nonzero;stroke:none"
         d="m 1079.32,215.867 c 0.57,-5.672 -3.41,-11.058 -8.5,-11.91 -5.12,-0.559 -9.37,3.691 -9.93,9.359 -0.28,5.95 3.41,11.051 8.5,11.903 5.11,0.566 9.65,-3.403 9.93,-9.352" /><path
         id="path86"
         style="fill:#000000;fill-opacity:1;fill-rule:evenodd;stroke:none"
         d="m 668.293,1166.32 c 28.348,-125.29 102.328,-219.968 196.437,-195.586 80.5,20.688 119.063,128.976 89.864,261.066 l -183.973,218.27 c -79.367,-26.08 -130.68,-158.46 -102.328,-283.75" /><path
         id="path88"
         style="fill:#fdfdfd;fill-opacity:1;fill-rule:evenodd;stroke:none"
         d="M 695.223,1143.64 C 720.449,1031.96 798.121,960.527 868.422,983.777 939,1007.02 950.902,1092.63 937.871,1185.6 l -167.25,190.77 c -70.582,-23.24 -100.629,-121.32 -75.398,-232.73" /><path
         id="path90"
         style="fill:#fdfdfd;fill-opacity:1;fill-rule:evenodd;stroke:none"
         d="m 710.813,1255.9 c 3.968,-62.93 47.058,-110.27 96.66,-105.73 41.386,3.4 73.988,41.95 81.636,91.27 l -115.367,131.25 c -39.121,-15.31 -66.051,-62.93 -62.929,-116.79" /><path
         id="path92"
         style="fill:#000000;fill-opacity:1;fill-rule:evenodd;stroke:none"
         d="m 1048.7,1228.4 c -19.84,-127.84 17.57,-238.959 105.73,-253.978 81.36,-13.609 163.84,71.148 183.97,216.558 17.58,128.13 -39.97,254.27 -120.76,272.7" /><path
         id="path94"
         style="fill:#fdfdfd;fill-opacity:1;fill-rule:evenodd;stroke:none"
         d="m 1068.26,1184.18 c -6.8,-94.11 11.06,-178.3 82.77,-194.739 71.72,-16.437 144.29,62.359 162.14,176.029 17.58,113.67 -18.71,208.35 -90.42,224.79" /><path
         id="path96"
         style="fill:#fdfdfd;fill-opacity:1;fill-rule:evenodd;stroke:none"
         d="m 1113.33,1244.28 c 10.77,-48.19 45.92,-83.62 87.31,-83.07 49.89,0.3 89.86,51.89 89.29,114.82 -0.28,53.86 -30.33,98.93 -70.3,110.27" /><path
         id="path98"
         style="fill:#009646;fill-opacity:1;fill-rule:evenodd;stroke:none"
         d="m 799.82,1014.67 c 39.969,-6.8 75.68,49.89 79.368,125.57 3.691,76.26 -26.079,143.44 -65.758,150.24 -39.969,6.8 -75.692,-49.04 -79.371,-125.57 -3.692,-75.41 26.07,-143.44 65.761,-150.24" /><path
         id="path100"
         style="fill:#000000;fill-opacity:1;fill-rule:evenodd;stroke:none"
         d="m 809.742,1053.22 c 26.93,-4.54 51.02,33.73 53.571,85.89 2.558,51.31 -17.571,97.8 -44.5,102.61 -26.93,4.54 -51.024,-34.58 -53.571,-85.89 -2.562,-52.15 17.289,-97.79 44.5,-102.61" /><path
         id="path102"
         style="fill:#fdfdfd;fill-opacity:1;fill-rule:evenodd;stroke:none"
         d="m 777.141,1138.83 c 12.191,-2.27 22.961,14.74 24.089,37.13 1.141,23.25 -7.929,43.66 -19.839,45.64 -12.188,2.27 -22.387,-14.74 -23.528,-38.27 -1.133,-22.39 7.367,-42.52 19.278,-44.5" /><path
         id="path104"
         style="fill:#fdfdfd;fill-opacity:1;fill-rule:evenodd;stroke:none"
         d="m 808.891,1167.18 c 21.828,-3.69 41.949,27.5 44.218,69.45 1.981,41.94 -14.738,79.64 -36.847,83.61 -22.114,3.69 -42.242,-27.78 -44.223,-69.72 -1.98,-41.96 14.742,-79.66 36.852,-83.34" /><path
         id="path106"
         style="fill:#fad7c8;fill-opacity:1;fill-rule:evenodd;stroke:none"
         d="m 901.301,1107.36 -1.699,0 c -54.993,0 -135.211,-4.82 -181.422,-30.33 0,0 40.82,-106.018 122.742,-99.499 85.887,-3.679 118.488,127.849 118.488,127.849 0,0 -24.09,1.98 -58.109,1.98" /><path
         id="path108"
         style="fill:#000000;fill-opacity:1;fill-rule:evenodd;stroke:none"
         d="m 730.371,1083.55 c 133.231,28.35 222.238,0.28 222.238,0.28 3.961,4.82 6.801,21.55 6.801,21.55 -26.648,3.4 -51.308,4.82 -73.699,4.82 -97.801,0 -155.34,-26.65 -155.34,-26.65" /><path
         id="path110"
         style="fill:#009646;fill-opacity:1;fill-rule:evenodd;stroke:none"
         d="m 1206.59,1008.43 c 39.68,-6.8 75.4,49.89 79.09,125.57 3.97,76.27 -25.8,143.45 -65.77,150.24 -39.68,6.8 -75.4,-49.04 -79.08,-125.56 -3.69,-75.41 26.07,-143.45 65.76,-150.25" /><path
         id="path112"
         style="fill:#000000;fill-opacity:1;fill-rule:evenodd;stroke:none"
         d="m 1216.23,1046.98 c 27.21,-4.53 51.31,33.73 53.86,85.9 2.27,51.3 -17.58,97.8 -44.51,102.6 -27.21,4.54 -51.3,-34.57 -53.57,-85.89 -2.55,-52.14 17.29,-97.79 44.22,-102.61" /><path
         id="path114"
         style="fill:#fdfdfd;fill-opacity:1;fill-rule:evenodd;stroke:none"
         d="m 1183.91,1132.59 c 12.2,-2.27 22.97,14.74 24.09,37.13 1.14,23.25 -7.93,43.66 -20.12,45.64 -11.91,2.27 -22.11,-14.74 -23.25,-38.27 -1.13,-22.39 7.37,-42.52 19.28,-44.5" /><path
         id="path116"
         style="fill:#fdfdfd;fill-opacity:1;fill-rule:evenodd;stroke:none"
         d="m 1215.38,1160.94 c 22.11,-3.69 42.24,27.5 44.22,69.45 2.27,41.95 -14.74,79.65 -36.57,83.62 -22.11,3.69 -42.23,-27.78 -44.5,-69.73 -1.98,-41.95 15.02,-79.66 36.85,-83.34" /><path
         id="path118"
         style="fill:#fad7c8;fill-opacity:1;fill-rule:evenodd;stroke:none"
         d="m 1069.11,1105.38 c 0,0 6.24,-130.392 111.4,-121.04 76.54,-5.953 129.83,92.69 129.83,92.69 -46.21,25.52 -126.43,30.33 -181.7,30.33 -34.87,0 -59.53,-1.98 -59.53,-1.98" /><path
         id="path120"
         style="fill:#000000;fill-opacity:1;fill-rule:evenodd;stroke:none"
         d="m 1069.11,1105.38 0,0 c 0,-0.57 0.57,-16.72 4.25,-26.08 0,0 91.56,32.6 224.79,4.25 0,0 -57.54,26.65 -155.34,26.65 -22.68,0 -47.34,-1.42 -73.7,-4.82" /></g></g></svg>