<?xml version="1.0" encoding="UTF-8" standalone="no"?>
<svg
   xmlns:dc="http://purl.org/dc/elements/1.1/"
   xmlns:cc="http://creativecommons.org/ns#"
   xmlns:rdf="http://www.w3.org/1999/02/22-rdf-syntax-ns#"
   xmlns:svg="http://www.w3.org/2000/svg"
   xmlns="http://www.w3.org/2000/svg"
   viewBox="0 0 248.03751 248.03751"
   height="248.03751"
   width="248.03751"
   xml:space="preserve"
   version="1.1"
   id="svg2"><metadata
     id="metadata8"><rdf:RDF><cc:Work
         rdf:about=""><dc:format>image/svg+xml</dc:format><dc:type
           rdf:resource="http://purl.org/dc/dcmitype/StillImage" /></cc:Work></rdf:RDF></metadata><defs
     id="defs6" /><g
     transform="matrix(1.25,0,0,-1.25,0,248.0375)"
     id="g10"><g
       transform="scale(0.1,0.1)"
       id="g12"><path
         id="path14"
         style="fill:#51669c;fill-opacity:1;fill-rule:evenodd;stroke:none"
         d="m 724.699,961.68 c -12.187,-73.981 -66.047,-117.641 -66.047,-188.5 0,-38.84 14.739,-36.852 26.649,-79.942 -53.86,-12.468 -87.879,-18.429 -72.289,-85.609 -24.66,-35.711 -15.02,-29.191 -7.93,-77.672 -18.992,-64.91 7.367,-125.57 49.039,-180.277 72.281,-95.242 160.149,-166.114 241.512,-206.653 41.097,-20.687 85.316,-32.308 126.417,-46.7692 116.51,-40.25 227.63,-59.5195 320.32,-35.4297 65.48,17.0117 134.64,76.8199 196.44,151.0899 54.14,64.91 66.05,92.41 85.32,130.961 35.72,42.801 107.44,134.641 134.93,216.559 28.63,84.761 -34.86,184.261 -98.08,239.25 -46.2,93.261 -91.84,140.308 -159.87,180.558 -76.25,44.794 -116.22,52.454 -168.38,42.524 -26.64,-4.81 -52.16,-18.14 -95.53,-26.071 L 941.551,955.727" /><path
         id="path16"
         style="fill:#344776;fill-opacity:1;fill-rule:evenodd;stroke:none"
         d="m 683.883,697.488 c 0.57,-1.129 0.847,-2.55 1.418,-4.25 -53.86,-12.468 -87.879,-18.429 -72.289,-85.609 -24.66,-35.711 -15.02,-29.199 -7.93,-77.668 -19,-64.91 7.371,-125.57 49.039,-180.281 72.281,-95.25 160.152,-166.11 241.512,-206.653 41.097,-20.687 85.32,-32.308 126.417,-46.7692 116.51,-40.25 227.63,-59.5273 320.32,-35.4297 65.48,17.0117 134.64,76.8199 196.44,151.0899 54.14,64.91 66.05,92.402 85.32,130.961 35.72,42.801 107.43,134.641 134.93,216.559 24.1,71.441 -17.29,153.363 -68.6,210.332 26.36,-49.321 43.66,-96.942 39.12,-115.93 -19.56,-81.922 -177.16,-233.86 -248.31,-277.801 -102.33,-63.211 -235.85,-85.891 -348.67,-77.672 -56.69,3.973 -109.41,16.16 -166.389,34.582 20.98,-23.519 94.389,-103.461 127.279,-99.211 80.22,10.211 73.7,7.66 158.74,11.34 76.53,3.692 172.91,23.813 253.7,68.031 32.03,17.289 92.69,74.27 134.08,117.071 38.26,39.121 62.07,63.781 54.14,45.918 -22.11,-51.297 -69.73,-103.18 -128.98,-149.098 -48.47,-37.699 -104.88,-71.43 -161.57,-97.23 -16.73,-7.372 -50.74,-24.09 -55.85,-17.571 -5.1,6.52 33.45,28.629 20.13,41.379 -5.67,5.391 -83.06,-30.89 -121.89,-39.109 -56.41,-11.91 -111.12,-7.942 -162.71,5.101 C 914.344,262.938 768.641,419.41 661.203,522.59 773.172,386.809 843.473,271.438 948.641,213.051 1144.51,104.48 1371,157.211 1506.78,232.891 1505.93,167.98 1379.22,112.699 1318.84,93.7109 1180.51,49.4883 1026.59,119.508 940.703,158.34 845.742,201.141 773.742,249.051 714.492,319.918 666.594,377.18 610.754,418.559 624.352,499.059 650.711,454.84 683.883,394.469 738.594,332.949 793.582,270.879 853.391,226.09 883.441,207.66 853.961,239.41 838.652,268.891 774.594,346.84 709.113,426.5 643.91,499.918 633.992,538.18 c -5.672,21.55 -16.719,17.859 -5.39,40.25 31.468,-24.66 43.941,-47.621 73.711,-73.41 38.55,-33.172 98.917,-83.911 155.328,-131.809 32.043,-26.934 68.89,-47.633 90.429,-63.781 17.293,-12.762 14.743,11.34 9.071,24.379 -2.27,4.531 -35.43,30.039 -82.489,66.609 -64.629,50.461 -144,123.871 -160.16,138.609 -39.398,35.723 -75.109,63.782 -77.379,91.563 -1.703,23.808 28.629,31.469 49.321,44.219 5.949,3.691 -4.25,15.031 2.839,18.429" /><path
         id="path18"
         style="fill:#344776;fill-opacity:1;fill-rule:evenodd;stroke:none"
         d="m 689.836,871.254 c -16.16,-30.613 -31.18,-60.66 -31.18,-98.082 0,-38.828 14.739,-36.852 26.641,-79.942 l -9.633,-2.257 c 7.652,-20.41 17,-39.969 32.313,-56.981 31.179,-34.582 82.207,-43.941 123.878,-79.09 12.75,-10.769 22.961,-30.332 36,-40.531 36.848,-29.199 67.739,9.641 83.622,-63.5 5.668,-25.789 47.898,-65.758 51.863,-60.09 5.39,7.082 -3.965,27.492 -14.445,47.051 -9.641,18.43 -9.93,25.801 22.965,21.828 135.48,-16.719 174.03,-61.226 359.43,-33.449 113.37,17.012 233.28,58.391 278.07,138.051 32.03,57.539 30.34,120.468 17.87,172.629 -13.89,57.543 -72.57,147.121 -106.87,200.121 -17.86,15.59 -37.43,29.199 -59.25,42.242 -19,11.059 -35.72,19.84 -50.73,26.926 l 7.92,-7.938 c 67.18,-53.57 138.06,-127.269 171.5,-212.601 34.59,-88.719 30.06,-186.52 -47.05,-253.7 -16.16,-13.89 -35.16,-26.64 -57.55,-37.41 -24.38,-11.91 -8.5,39.961 5.96,79.93 23.52,65.48 -8.5,41.391 -54.14,4.543 -24.95,-19.844 -42.25,-37.703 -66.61,-51.031 -108.57,-60.09 -249.18,-73.129 -371.07,-35.711 -187.074,57.261 -324.844,133.511 -358.856,260.218 -9.929,36 -1.711,74.274 9.352,118.774" /><path
         id="path20"
         style="fill:#344776;fill-opacity:1;fill-rule:evenodd;stroke:none"
         d="m 1532.01,790.746 c -16.44,-71.148 3.12,-183.117 -15.02,-249.449 9.63,30.332 24.09,94.961 26.93,125.012 10.2,109.129 12.18,205.23 -73.42,270.711 11.34,-48.473 39.4,-87.883 29.2,-117.364 -23.25,-67.457 -115.94,-100.91 -255.97,-130.109 -114.24,-24.09 -216.85,-31.457 -290.55,1.422 -107.723,47.91 -193.043,153.07 -229.891,263.621 -2.84,-13.602 -7.09,-26.363 -11.91,-38.551 15.59,-56.98 54.141,-123.019 105.449,-176.031 120.192,-123.871 289.422,-155.34 436.252,-129.539 134.36,23.519 193.04,94.668 278.93,180.277" /><path
         id="path22"
         style="fill:#172952;fill-opacity:1;fill-rule:evenodd;stroke:none"
         d="m 1532.01,790.746 c -16.44,-71.148 0.57,-182.547 -15.02,-249.449 -7.37,-30.609 18.14,112.82 20.97,142.871 10.21,109.41 -5.67,181.98 -67.46,252.852 24.94,-39.692 51.59,-93.832 41.38,-123.59 -22.96,-67.184 -121.89,-129.262 -261.63,-158.461 -114.24,-23.813 -242.37,-3.973 -316.352,28.91 -107.718,47.91 -173.199,142.867 -209.761,253.418 -2.84,-13.891 -3.969,3.402 -8.789,-8.789 15.59,-56.969 59.531,-130.961 110.832,-183.961 120.187,-123.879 276.38,-138.051 422.93,-112.258 134.36,23.527 197.01,72.848 282.9,158.457" /><path
         id="path24"
         style="fill:#172952;fill-opacity:1;fill-rule:evenodd;stroke:none"
         d="m 685.301,693.238 c -53.86,-12.472 -87.871,-18.429 -72.281,-85.609 -24.661,-35.711 -15.032,-29.191 -7.942,-77.672 -18.988,-64.91 7.371,-125.57 49.043,-180.281 72.277,-95.238 160.16,-166.11 241.508,-206.641 41.101,-20.699 85.32,-32.316 126.431,-46.7772 116.5,-40.25 227.62,-59.5195 320.31,-35.4297 65.48,17.0078 134.65,76.8199 196.44,151.0899 54.14,64.91 66.05,92.687 85.32,130.961 35.72,43.078 107.44,134.637 134.93,216.559 18.71,55.847 -2.26,117.929 -36.85,169.519 22.68,-37.699 30.05,-56.41 25.23,-75.41 -19.84,-80.219 -183.4,-263.621 -254.83,-307.551 -102.33,-63.219 -247.75,-77.668 -360.57,-69.738 -56.98,3.969 -86.46,27.777 -143.431,46.211 20.971,-23.531 99.781,-62.364 132.661,-58.114 80.22,10.204 48.47,-8.789 133.51,-5.097 76.54,3.398 166.68,30.039 247.46,73.98 97.23,53.008 204.38,212.309 257.96,300.758 4.53,-94.961 -100.35,-254.84 -196.16,-328.258 -41.1,-31.179 -100.91,-80.222 -176.31,-102.332 -17.58,-5.097 -49.89,-6.23 -55,0.289 -5.1,6.524 48.48,37.133 35.15,49.891 -5.67,5.383 -57.26,-53.859 -96.09,-62.078 -56.41,-11.621 -161.01,0.847 -212.32,13.89 C 890.238,248.477 762.691,414.586 661.211,522.586 773.172,386.809 850.559,290.996 955.73,232.605 c 113.1,-62.648 258.51,-69.449 367.65,-49.886 142.58,25.226 239.53,95.527 286.3,147.398 -15.03,-21.262 -51.31,-82.769 -98.65,-134.64 -41.95,-45.641 -94.67,-97.8012 -156.47,-116.2192 -101.48,-30.3398 -236.13,-17.582 -414.99,63.2112 -94.679,42.797 -189.07,108 -248.32,179.148 -47.898,57.262 -96.379,112.531 -75.398,197.012 26.359,-44.223 79.089,-115.094 133.796,-176.602 55.274,-62.082 103.743,-115.941 133.793,-134.082 -29.48,31.461 -64.062,58.391 -128.121,136.34 -65.48,79.383 -134.648,163.852 -144.851,202.403 -5.391,21.539 -3.969,34.578 7.652,56.98 31.18,-24.672 58.68,-64.07 88.719,-89.859 38.269,-32.891 96.66,-79.661 152.789,-127.282 4.25,-3.679 80.223,-63.781 93.832,-66.609 5.098,-1.141 -39.691,37.98 -86.461,74.551 -64.629,50.457 -142.012,123.019 -158.172,137.758 -39.117,36 -87.027,77.39 -89.008,105.171 -2.269,28.629 16.442,33.45 54.141,50.739 3.687,1.699 7.367,3.398 11.34,5.101" /><path
         id="path26"
         style="fill:#172952;fill-opacity:1;fill-rule:evenodd;stroke:none"
         d="m 689.836,871.254 c -16.16,-30.613 -31.18,-60.66 -31.18,-98.082 0,-38.828 14.739,-36.852 26.641,-79.942 37.418,-75.398 64.066,-60.937 146.558,-130.109 12.469,-10.769 26.641,-36.558 39.68,-46.769 36.852,-28.911 71.43,30.332 87.309,-42.801 5.672,-25.797 40.531,-88.438 44.496,-82.77 5.39,7.082 -13.317,34.301 -23.524,53.86 -9.921,18.422 -13.32,37.41 19.559,33.441 135.505,-16.719 189.075,-66.039 374.465,-38.262 113.39,17 198.71,33.16 243.21,112.821 32.31,57.543 36,138.89 23.25,191.332 -13.62,57.257 -45.64,140.039 -79.94,193.039 -17.86,15.59 -37.43,29.199 -59.25,42.242 45.35,-41.102 61.8,-63.211 111.96,-192.473 34.59,-88.437 25.52,-195.027 -45.62,-268.16 -15.31,-15.867 -33.45,-32.027 -56.13,-42.801 -24.39,-11.91 -12.19,54.141 1.98,93.821 23.81,65.769 19.56,55.281 -9.64,4.261 -15.59,-27.5 -52.16,-58.109 -76.53,-71.718 -108.86,-59.813 -265.33,-57.543 -387.22,-20.133 -186.797,57.262 -336.465,145.992 -370.765,272.41 -9.641,36.293 9.628,72.293 20.691,116.793" /><path
         id="path28"
         style="fill:#15274d;fill-opacity:1;fill-rule:evenodd;stroke:none"
         d="m 1360.8,839.504 c 27.5,32.031 47.62,44.5 49.61,80.5 2.55,41.391 -19.56,68.039 -42.52,92.976 -59.25,64.63 -174.34,85.61 -257.96,81.07 -143.434,-7.37 -388.914,-33.73 -382.672,-138.898 8.5,-136.058 236.687,-276.66 481.882,-226.476 70.59,14.168 93.55,43.078 151.66,110.828" /><path
         id="path30"
         style="fill:#5f77b3;fill-opacity:1;fill-rule:evenodd;stroke:none"
         d="m 812.859,805.773 c 81.641,-80.5 114.801,-88.16 168.661,-107.722 88.16,-32.309 225.92,-17.289 333.64,22.109 136.35,49.613 198.42,78.813 156.19,187.66 -25.51,66.332 -4.25,47.051 25.23,5.953 92.12,-129.261 76.25,-202.96 45.92,-343.281 -7.09,-32.59 -11.34,-42.519 -8.22,-44.781 3.68,-2.84 15.3,4.82 25.23,39.121 36.56,122.738 34.29,238.672 -43.09,349.219 -44.22,62.929 -80.79,42.242 -123.87,94.399 12.47,-31.177 21.82,-47.618 27.21,-72.567 8.22,-36.852 -10.21,-63.781 -27.78,-92.129 -18.99,-30.891 -39.4,-73.981 -104.6,-102.043 -72.28,-31.18 -202.96,-55.277 -312.38,-17.859 -47.34,16.16 -76.82,9.351 -162.141,81.921" /><path
         id="path32"
         style="fill:#5f77b3;fill-opacity:1;fill-rule:evenodd;stroke:none"
         d="m 715.348,852.543 c -13.61,-55.277 -5.672,-101.758 17.007,-140.879 119.34,-208.351 431.435,-211.469 553.325,-198.711 108,11.34 173.48,60.942 203.24,112.25 31.47,54.43 22.4,86.461 23.53,109.699 -44.79,-53.859 -102.61,-95.808 -172.91,-121.316 -320.32,-117.363 -539.724,67.75 -624.192,238.957" /><path
         id="path34"
         style="fill:#5f77b3;fill-opacity:1;fill-rule:evenodd;stroke:none"
         d="M 846.875,450.875 C 1045.59,292.984 1191,285.613 1373.84,344.574 c 113.09,36.281 162.43,81.36 243.77,154.489 -90.43,-48.758 -155.62,-76.25 -259.09,-95.528 -56.97,-10.769 -114.8,-10.492 -193.59,0 -74.28,9.918 -140.04,37.988 -144.3,35.149 -21.817,-13.61 32.89,-72.848 27.78,-73.981 -9.92,-2.84 -19.27,-3.398 -27.78,-2.551 -55.556,6.801 -57.536,107.153 -101.185,125.293 -67.472,28.34 -60.382,13.598 -107.441,53.86 -46.481,39.961 -115.649,76.531 -125,100.058 -17.859,2.27 -33.738,-11.621 -25.231,-31.75 15.59,-36.57 147.403,-132.09 185.102,-158.738" /><path
         id="path36"
         style="fill:#5f77b3;fill-opacity:1;fill-rule:evenodd;stroke:none"
         d="M 635.41,466.746 C 676.512,324.168 835.25,196.887 973.301,140.77 1147.06,69.8984 1391.69,77.5469 1484.67,206.809 1321.11,120.918 1075.63,97.1094 889.68,246.496 825.609,298.09 772.32,372.637 697.488,461.93 769.77,365.547 825.328,276.828 913.77,189.238 806.059,225.809 700.32,362.996 635.41,466.746" /><path
         id="path38"
         style="fill:#0f1c39;fill-opacity:1;fill-rule:evenodd;stroke:none"
         d="m 1360.8,839.504 c 27.5,32.031 47.62,44.5 49.61,80.5 0.85,15.879 -1.7,29.769 -6.81,42.238 -8.78,-13.609 -22.12,-25.508 -37.71,-43.648 -58.1,-67.75 -81.07,-96.66 -151.64,-111.121 -223.094,-45.36 -431.723,66.613 -474.242,189.64 -9.07,-12.48 -13.602,-26.078 -12.75,-41.961 8.5,-136.058 236.687,-276.66 481.882,-226.476 70.59,14.168 93.55,43.078 151.66,110.828" /><path
         id="path40"
         style="fill:#344776;fill-opacity:1;fill-rule:evenodd;stroke:none"
         d="m 1447.54,981.52 c 53.85,-35.149 81.07,-42.801 108.85,-107.43 22.39,-51.59 35.72,-98.078 39.68,-142.871 7.38,-78.52 -13.32,-152.5 -64.34,-239.239 89.57,32.032 140.03,128.969 132.66,221.098 -5.95,74.832 -57.26,135.5 -102.05,193.043 -42.52,54.418 -66.04,59.809 -125.57,94.679 l -32.04,21.54 c -15.87,2.27 -25.22,3.4 -30.04,3.12 17.57,-9.36 31.45,-17.01 72.85,-43.94" /><path
         id="path42"
         style="fill:#000000;fill-opacity:1;fill-rule:nonzero;stroke:none"
         d="m 660.922,1207.73 2.551,10.77 c 5.668,-1.43 9.359,-7.09 8.218,-13.05 -1.418,-5.95 -7.371,-9.63 -13.039,-8.22 l 2.27,10.5 z m -36.57,14.73 c 12.48,0.29 25.511,-1.12 39.121,-3.96 l -4.821,-21.27 c -12.191,2.27 -23.531,3.7 -34.3,3.41 l 0,21.82 z m -57.821,-15.87 c 15.59,9.93 35.43,15.3 57.821,15.87 l 0,-21.82 c -18.141,-0.28 -34.008,-4.53 -45.918,-12.19 l -11.903,18.14 z m -31.75,-46.48 c 4.25,20.12 15.59,35.71 31.75,46.48 l 11.903,-18.14 c -11.34,-7.65 -19.274,-18.43 -22.391,-32.88 l -21.262,4.54 z m 10.492,-2.27 -10.492,1.98 c 1.129,5.95 6.801,9.93 12.75,8.79 5.961,-1.43 9.641,-7.09 8.512,-13.04 l -10.77,2.27 z m -12.48,-18.43 c -0.281,7.38 0.57,14.18 1.988,20.41 l 21.262,-4.25 c -1.141,-4.53 -1.422,-9.64 -1.422,-15.3 l -21.828,-0.86 z M 346.844,988.035 c 89.578,1.418 187.937,31.195 185.949,151.375 l 21.828,0.86 c 2.27,-138.34 -107.43,-172.356 -207.777,-174.055 l 0,21.82 z m -80.793,5.11 c 23.812,-3.122 51.883,-5.668 80.793,-5.11 l 0,-21.82 c -30.051,-0.289 -59.242,1.98 -83.903,5.379 l 3.11,21.551 z m -54.988,10.495 c 11.91,-3.12 31.179,-7.093 54.988,-10.495 l -3.11,-21.551 c -24.668,3.41 -45.078,7.66 -57.55,10.781 l 5.672,21.265 z m -5.102,-9.085 c -1.418,-5.102 3.402,9.355 5.102,9.085 l -5.672,-21.265 c -15.02,3.68 -22.11,11.328 -20.688,17.289 l 21.258,-5.109 z m 141.16,253.425 c -60.09,-47.05 -109.41,-127.84 -141.16,-253.425 l -21.258,5.109 c 33.16,130.676 85.32,215.426 149.098,265.606 l 13.32,-17.29 z m 238.68,47.34 c -87.02,17 -170.078,6.79 -238.68,-47.34 l -13.32,17.29 c 74.269,58.39 163.562,69.44 256.543,51.3 l -4.543,-21.25 z m 77.101,-34.3 c -7.929,13.89 -30.89,25.23 -77.101,34.3 l 4.543,21.25 c 53.008,-10.19 80.5,-25.23 91.558,-44.5 l -19,-11.05 z m -11.05,-47.63 c 12.191,19.56 18.14,35.72 11.05,47.63 l 19,11.05 c 11.899,-20.69 4.821,-43.93 -11.629,-70.02" /><path
         id="path44"
         style="fill:#863a1f;fill-opacity:1;fill-rule:nonzero;stroke:none"
         d="m 660.922,1207.73 c 28.629,45.34 26.359,78.79 -72.852,98.36 -167.808,32.59 -322.578,-32.61 -392.879,-308.977 -0.57,-3.41 352.34,-94.398 348.379,142.867 -0.847,57.25 52.723,81.63 117.352,67.75" /><path
         id="path46"
         style="fill:#da5840;fill-opacity:1;fill-rule:nonzero;stroke:none"
         d="m 284.195,1089.8 c 21.832,68.88 136.633,155.34 278.934,150.24 C 386.246,1163.22 459.656,1027.72 284.195,1089.8" /><path
         id="path48"
         style="fill:#4b1d17;fill-opacity:1;fill-rule:nonzero;stroke:none"
         d="m 574.746,1225.87 c -149.949,10.2 -256.816,-78.8 -319.18,-177.73 49.891,138.9 259.372,269.01 319.18,177.73" /><path
         id="path50"
         style="fill:#000000;fill-opacity:1;fill-rule:nonzero;stroke:none"
         d="m 1334.43,1417.21 -7.94,7.36 c -4.25,-4.25 -3.97,-11.05 0.29,-15.3 4.25,-4.25 11.33,-3.97 15.3,0.28 l -7.65,7.66 z m 24.09,34.29 c -11.05,-7.09 -21.82,-16.16 -32.03,-26.93 l 15.59,-15.02 c 9.07,9.63 18.43,17.29 28.07,23.52 l -11.63,18.43 z m 55.28,18.43 c -17.86,-0.29 -36.85,-6.8 -55.28,-18.43 l 11.63,-18.43 c 15.02,9.64 30.04,14.75 43.93,15.04 l -0.28,21.82 z m 51.02,-20.13 c -14.74,13.9 -32.03,20.41 -51.02,20.13 l 0.28,-21.82 c 13.04,0 25.23,-4.25 35.44,-14.18 l 15.3,15.87 z m 13.33,-16.16 c -4.26,6.25 -8.51,11.63 -13.33,16.16 l -15.3,-15.87 c 3.68,-3.41 7.08,-7.38 10.2,-12.18 l 18.43,11.89 z m 231.87,-23.53 c -74.55,-47.61 -168.94,-75.11 -231.87,23.53 l -18.43,-11.89 c 72.28,-113.11 178.58,-83.34 261.92,-30.05 l -11.62,18.41 z m 65.48,50.19 c -18.42,-16.44 -41.1,-34.3 -65.48,-50.19 l 11.62,-18.41 c 25.51,16.44 49.04,35.14 68.32,52.44 l -14.46,16.16 z m 42.52,41.66 c -9.07,-10.21 -23.81,-25.23 -42.52,-41.66 l 14.46,-16.16 c 19.56,17.29 34.86,32.88 44.22,43.09 l -16.16,14.73 z m 10.77,-2.83 c 3.69,-3.13 -8.5,5.39 -10.77,2.83 l 16.16,-14.73 c 11.34,12.75 13.6,24.36 9.35,28.06 l -14.74,-16.16 z m -256.53,130.1 c 75.68,-5.09 161,-43.93 256.53,-130.1 l 14.74,16.16 c -99.49,89.57 -189.35,130.1 -269.57,135.48 l -1.7,-21.54 z m -223.94,-96.66 c 62.93,63.22 137.48,102.34 223.94,96.66 l 1.7,21.54 c -93.83,6.25 -174.05,-35.43 -240.95,-103.18 l 15.31,-15.02 z m -45.07,-72.27 c -1.13,15.86 11.9,38.54 45.07,72.27 l -15.31,15.02 c -38.27,-38.54 -53.01,-66.88 -51.59,-89 l 21.83,1.71 z m 35.43,-33.17 c -20.69,9.07 -34.58,19.28 -35.43,33.17 l -21.83,-1.71 c 1.7,-24.09 20.41,-39.11 48.47,-51.3" /><path
         id="path52"
         style="fill:#863a1f;fill-opacity:1;fill-rule:nonzero;stroke:none"
         d="m 1334.43,1417.21 c -48.76,21.25 -65.2,50.45 6.24,122.74 121.04,122.46 285.45,156.46 495.49,-32.61 2.55,-2.27 -240.09,-278.63 -367.37,-79.64 -30.61,48.19 -88.44,37.69 -134.36,-10.49" /><path
         id="path54"
         style="fill:#da5840;fill-opacity:1;fill-rule:nonzero;stroke:none"
         d="m 1711.44,1533.71 c -55.84,44.79 -198.71,51.02 -313.8,-34.3 188.79,36.85 202.4,-117.07 313.8,34.3" /><path
         id="path56"
         style="fill:#4b1d17;fill-opacity:1;fill-rule:nonzero;stroke:none"
         d="m 1395.66,1481.27 c 118.77,93.83 256.25,80.79 362.55,34.02 -117.92,87.02 -363.12,75.68 -362.55,-34.02" /><path
         id="path58"
         style="fill:#000000;fill-opacity:1;fill-rule:nonzero;stroke:none"
         d="m 1331.6,1521.24 -6.8,8.5 c -4.54,-3.68 -5.39,-10.48 -1.7,-15.3 3.68,-4.54 10.48,-5.39 15.3,-1.7 l -6.8,8.5 z m 145.42,162.43 c -39.69,-58.11 -91.85,-105.74 -152.22,-153.93 l 13.6,-17 c 61.8,49.6 115.66,98.64 156.76,158.74 l -18.14,12.19 z m 76.82,216 c -10.21,-89.86 -37.14,-158.18 -76.82,-216 l 18.14,-12.19 c 41.38,60.66 69.73,132.09 80.5,225.92 l -21.82,2.27 z m 7.65,12.47 c 4.25,-0.29 -6.52,-2.84 -7.65,-12.47 l 21.82,-2.27 c 2.84,25.51 -1.13,35.43 -11.34,36.56 l -2.83,-21.82 z m -5.1,-8.51 c 4.53,4.82 2.55,8.79 5.1,8.51 l 2.83,21.82 c -8.5,0.85 -15.02,-6.23 -23.81,-15.59 l 15.88,-14.74 z m -7.66,-8.22 c 2.55,2.84 5.39,5.67 7.66,8.22 l -15.88,14.74 c -2.26,-2.55 -4.53,-5.1 -7.37,-7.93 l 15.59,-15.03 z m -191.05,-152.78 c 75.68,50.45 145.98,106.58 191.05,152.78 l -15.59,15.03 c -43.93,-45.07 -113.1,-100.07 -187.37,-149.67 l 11.91,-18.14 z m -206.65,-112.26 c 62.65,24.1 136.92,65.77 206.65,112.26 l -11.91,18.14 c -68.6,-45.64 -141.16,-86.46 -202.39,-110.27 l 7.65,-20.13 z m -3.68,10.21 5.95,9.07 c -5.1,3.12 -11.9,1.7 -15.02,-3.12 -3.4,-5.1 -1.99,-11.9 2.83,-15.31 l 6.24,9.36 z m 67.46,-24.66 c -22.67,11.62 -44.5,22.67 -61.51,33.73 l -12.19,-18.43 c 18.14,-11.9 40.54,-22.96 63.78,-34.86 l 9.92,19.56 z m 126.14,-88.73 c -24.37,37.42 -77.1,64.07 -126.14,88.73 l -9.92,-19.56 c 46.49,-23.25 96.66,-48.76 117.64,-81.07" /><path
         id="path60"
         style="fill:#dcdcd6;fill-opacity:1;fill-rule:nonzero;stroke:none"
         d="m 1331.6,1521.24 c -33.45,51.59 -130.39,83.91 -184.25,119.34 128.69,49.89 308.12,174.61 393.73,262.49 18.14,18.42 28.35,35.71 23.81,-4.54 -20.98,-183.68 -111.12,-279.49 -233.29,-377.29" /><path
         id="path62"
         style="fill:#e8e8e1;fill-opacity:1;fill-rule:nonzero;stroke:none"
         d="m 1256.77,1577.93 c -31.75,28.06 -77.39,41.39 -108.57,61.8 l -0.57,0.85 c 128.69,49.89 307.84,174.61 393.46,262.48 10.47,10.78 18.41,21.26 22.11,19.85 -62.09,-158.18 -191.34,-259.66 -306.43,-344.98" /><path
         id="path64"
         style="fill:#000000;fill-opacity:1;fill-rule:nonzero;stroke:none"
         d="m 561.711,1281.99 1.129,10.77 c 5.961,-0.28 10.488,-5.67 9.93,-11.62 -0.571,-5.95 -5.961,-10.49 -11.911,-10.21 l 0.852,11.06 z m -209.762,51.87 c 64.629,-25.51 134.36,-35.43 210.891,-41.1 l -1.981,-21.83 c -78.242,5.96 -149.949,15.88 -217.129,42.52 l 8.219,20.41 z m -182.551,135.22 c 58.11,-68.89 117.922,-109.99 182.551,-135.22 l -8.219,-20.41 c -67.75,26.65 -130.679,69.74 -191.062,141.45 l 16.73,14.18 z m -13.328,5.95 c -3.121,-2.55 7.09,1.42 13.328,-5.95 l -16.73,-14.18 c -16.438,19.56 -18.418,30.05 -10.488,36.85 l 13.89,-16.72 z m -7.082,8.5 7.082,-8.5 c -4.531,-3.97 -11.621,-3.4 -15.3,1.42 -3.969,4.53 -3.411,11.34 1.41,15.3 l 6.808,-8.22 z m 16.153,-12.47 c -6.231,1.42 -7.082,5.67 -9.071,3.97 l -13.89,16.72 c 6.519,5.39 15.879,3.12 28.07,0.29 l -5.109,-20.98 z m 10.769,-2.55 c -3.109,0.57 -7.082,1.7 -10.769,2.55 l 5.109,20.98 c 2.828,-0.57 5.949,-1.42 10.199,-2.27 l -4.539,-21.26 z m 242.367,-17.86 c -90.136,-1.42 -179.437,5.1 -242.367,17.86 l 4.539,21.26 c 61.512,-12.19 149.102,-18.71 237.828,-17.29 l 0,-21.83 z m 233.293,24.38 c -65.48,-15.59 -149.953,-23.24 -233.293,-24.38 l 0,21.83 c 81.922,1.13 164.692,8.5 228.473,23.53 l 4.82,-20.98 z m -2.55,10.49 -9.922,4.25 c 2.261,5.39 8.781,8.22 14.172,5.95 5.668,-2.27 8.218,-8.79 5.949,-14.45 l -10.199,4.25 z m -42.52,-58.68 c 12.469,22.39 24.66,43.94 32.598,62.93 l 20.121,-8.5 c -8.5,-19.85 -20.692,-41.96 -33.731,-64.92 l -18.988,10.49 z m -55.562,-145.13 c -0.571,44.5 28.632,96.66 55.562,145.13 l 18.988,-10.49 c -25.508,-45.92 -53.289,-95.24 -52.718,-134.08" /><path
         id="path66"
         style="fill:#dcdcd6;fill-opacity:1;fill-rule:nonzero;stroke:none"
         d="m 561.711,1281.99 c -0.57,61.8 62.078,143.72 87.309,203.53 -134.372,-32.03 -351.5,-30.33 -470.84,-6.24 -25.231,5.1 -43.082,13.32 -17.289,-17.29 118.488,-140.6 246.047,-168.66 400.82,-180" /><path
         id="path68"
         style="fill:#e8e8e1;fill-opacity:1;fill-rule:nonzero;stroke:none"
         d="m 592.891,1371.57 c 10.769,41.1 41.097,78.24 55.839,112.82 l 0,1.13 c -134.082,-32.03 -351.21,-30.33 -470.55,-6.23 -14.739,2.83 -26.93,7.08 -29.481,3.68 138.621,-95.81 301.891,-106.3 444.192,-111.4" /><path
         id="path70"
         style="fill:#000000;fill-opacity:1;fill-rule:nonzero;stroke:none"
         d="m 1612.8,896.766 -7.66,7.367 c 4.25,4.543 11.06,4.543 15.31,0.281 4.26,-3.961 4.53,-11.051 0.28,-15.301 l -7.93,7.653 z m -112.82,-12.192 c 49.89,-7.941 74.27,-11.898 105.16,19.559 l 15.59,-15.02 c -39.11,-39.687 -67.18,-35.148 -124.43,-26.078 l 3.68,21.539 z m -200.41,11.34 c 96.66,5.391 157.32,-4.25 200.41,-11.34 l -3.68,-21.539 c -42.25,6.797 -101.77,16.438 -195.59,11.047 l -1.14,21.832 z m -83.34,-9.07 c 27.78,4.25 55.56,7.371 83.34,9.07 l 1.14,-21.832 c -27.23,-1.406 -54.16,-4.527 -81.08,-8.777 l -3.4,21.539 z m -82.2,-15.879 c 26.93,6.238 54.42,11.629 82.2,15.879 l 3.4,-21.539 c -26.92,-3.973 -53.85,-9.36 -81.08,-15.879 l -4.52,21.539 z m 2.27,-10.77 -3.98,10.207 c 5.68,2.274 11.91,-0.57 14.18,-5.949 2.27,-5.668 -0.57,-12.187 -6.24,-14.461 l -3.96,10.203 z m -88.16,-27.781 c 27.78,13.891 55.84,26.371 84.18,37.988 l 7.94,-20.41 c -28.06,-11.34 -55.55,-23.527 -82.48,-37.137 l -9.64,19.559 z m -80.222,-45.351 c 25.508,16.441 52.442,31.46 80.222,45.351 l 9.64,-19.559 c -26.65,-13.32 -53.01,-27.773 -78.245,-43.929 l -11.617,18.137 z m -71.434,-71.149 c 17,22.68 37.411,49.609 71.434,71.149 l 11.617,-18.137 c -30.898,-19.563 -49.609,-44.793 -65.48,-65.774 l -17.571,12.762 z m -38.269,-38.269 c 13.601,5.39 24.941,20.41 38.269,38.269 l 17.571,-12.762 c -15.59,-20.687 -28.629,-37.976 -47.91,-45.629 l -7.93,20.122 z m -157.328,-63.211 157.328,63.211 7.93,-20.122 -157.321,-63.218 -7.937,20.129 z m 3.968,-10.211 3.969,10.211 c 5.672,-1.981 8.223,-8.5 6.242,-13.891 -2.269,-5.668 -8.511,-8.5 -14.179,-6.52 l 3.968,10.2 z m -6.23,14.179 10.199,-3.968 -7.937,-20.411 -10.199,3.969 7.937,20.41 z M 483.477,845.176 C 477.234,703.152 584.957,661.773 698.625,618.402 l -7.937,-20.41 c -121.321,46.203 -235.84,90.141 -229.043,248.031 l 21.832,-0.847 z m 22.961,133.508 C 494.246,917.453 484.324,868.133 483.477,845.176 l -21.832,0.847 c 1.132,24.379 11.062,74.551 23.242,136.629 l 21.551,-3.968 z m 51.589,361.696 c -0.851,-106.58 -30.05,-252.84 -51.589,-361.696 l -21.551,3.968 c 21.551,107.998 50.461,252.848 51.308,357.728 l 21.832,0 z m -72.851,149.39 c 55.558,-0.57 73.699,-62.64 72.851,-149.39 l -21.832,0 c 0.571,74.27 -12.187,127.28 -51.59,127.57 l 0.571,21.82 z m -0.289,-11.06 11.058,0 c 0,-5.94 -5.097,-10.76 -11.058,-10.76 -5.949,0 -11.051,4.82 -10.77,10.76 l 10.77,0 z m 14.461,19.85 c -2.274,-5.38 -3.403,-11.91 -3.403,-19.85 l -21.828,0 c 0,10.77 1.699,20.13 5.11,28.08 l 20.121,-8.23 z m 12.757,14.74 c -5.667,-3.12 -9.917,-7.94 -12.757,-14.74 l -20.121,8.23 c 4.531,11.32 12.179,19.84 21.82,25.21 l 11.058,-18.7 z m 21.54,5.1 c -8.5,0 -15.868,-1.7 -21.54,-5.1 l -11.058,18.7 c 9.359,5.68 20.699,8.22 32.879,7.95 l -0.281,-21.55 z m 34.023,-7.94 c -12.191,5.1 -23.813,7.65 -34.023,7.94 l 0.281,21.55 c 13.039,0 27.5,-3.13 42.242,-9.36 l -8.5,-20.13 z m 4.25,10.22 8.789,-6.53 c -3.41,-4.81 -10.211,-5.95 -15.031,-2.56 -4.821,3.7 -5.949,10.21 -2.551,15.31 l 8.793,-6.22 z m 314.93,90.41 c -45.641,11.06 -201.262,48.47 -306.141,-96.94 l -17.582,12.75 c 113.672,157.32 280.063,117.07 328.82,105.46 l -5.097,-21.27 z m 15.019,-2.82 c -3.121,0 -7.941,1.12 -15.019,2.82 l 5.097,21.27 c 5.672,-1.43 9.641,-2.27 10.2,-2.27 l -0.278,-21.82 z m 0,10.77 6.238,-9.08 c -5.109,-3.12 -11.91,-1.99 -15.308,3.13 -3.402,4.8 -1.981,11.61 3.121,15.02 l 5.949,-9.07 z m 13.61,-0.86 c -3.403,-4.25 -5.391,-6.8 -7.372,-8.22 l -12.187,18.15 c 0.566,0.57 0.566,1.12 2.828,3.68 l 16.731,-13.61 z m 304.443,102.91 c -170.65,59.52 -280.065,-73.14 -304.443,-102.91 l -16.731,13.61 c 26.078,32.03 143.444,174.32 328.544,109.98 l -7.37,-20.68 z m 3.68,10.2 9.07,-5.68 c -3.12,-5.09 -9.92,-6.52 -15.03,-3.4 -5.09,3.13 -6.51,9.92 -3.39,15.02 l 9.35,-5.94 z m 34.59,22.1 c -8.8,-5.94 -17.58,-15.59 -25.52,-27.78 l -18.42,11.62 c 9.64,14.74 20.41,26.36 31.75,34.31 l 12.19,-18.15 z m 19.54,7.65 c -6.22,-0.56 -13.02,-3.11 -19.54,-7.65 l -12.19,18.15 c 9.92,6.51 20.12,10.48 30.32,11.34 l 1.41,-21.84 z m 17.31,-4.52 c -5.4,3.39 -11.34,4.82 -17.31,4.52 l -1.41,21.84 c 10.5,0.57 20.98,-1.7 30.62,-7.95 l -11.9,-18.41 z m 13.89,-14.18 c -4.26,6.23 -9.07,11.05 -13.89,14.18 l 11.9,18.41 c 7.36,-4.82 14.17,-11.34 20.13,-20.41 l -18.14,-12.18 z m 9.07,6.23 -6.52,8.51 c 5.09,3.69 11.9,2.55 15.3,-2.27 3.68,-4.82 2.56,-11.61 -2.26,-15.02 l -6.52,8.78 z m 26.07,-169.51 c -55.84,76.53 -80.78,142.87 -32.59,178.02 l 13.04,-17.29 c -34.88,-25.52 -11.06,-81.36 37.41,-147.97 l -17.86,-12.76 z m 204.1,-226.77 c -70.58,72.28 -151.1,154.5 -204.1,226.77 l 17.86,12.76 c 51.59,-70.87 131.8,-152.51 201.83,-224.23 l -15.59,-15.3 z m 139.46,-157.61 c -15.02,30.62 -72.85,89.59 -139.46,157.61 l 15.59,15.3 c 68.03,-69.44 126.99,-129.54 143.72,-163.27 l -19.85,-9.64 z m -74.26,-277.785 c 62.93,92.125 122.45,179.995 74.26,277.785 l 19.85,9.64 c 53.57,-109.12 -9.64,-201.83 -75.97,-299.617 l -18.14,12.192 z m -9.64,-14.18 9.64,14.18 18.14,-12.192 -9.64,-14.18" /><path
         id="path72"
         style="fill:#863a1f;fill-opacity:1;fill-rule:nonzero;stroke:none"
         d="m 1612.8,896.766 c 68.02,100.058 138.33,194.164 84.75,302.734 -48.75,99.5 -502.29,459.21 -379.55,549.07 -26.65,38.84 -66.33,26.65 -94.4,-17.28 -197.3,68.59 -314.932,-107.73 -321.733,-112.25 -15.312,0 -206.082,73.41 -329.949,-98.36 -47.063,19.27 -86.461,5.95 -87.031,-41.97 144.859,-1.12 -8.219,-536.026 -12.469,-633.257 -6.523,-154.199 111.117,-194.738 232.437,-241.23 l 157.333,63.5 c 35.148,13.89 50.449,71.429 111.398,110.269 51.024,32.602 106.304,59.242 162.714,82.203 54.14,12.481 109.13,21.547 163.84,24.66 215.43,12.188 250,-52.152 312.66,11.911" /><path
         id="path74"
         style="fill:#000000;fill-opacity:1;fill-rule:nonzero;stroke:none"
         d="m 844.32,551.281 c 64.95,-26.386 82.993,-67.468 100.469,-107.258 17.672,-40.25 34.371,-78.281 99.621,-97.871 28.44,-8.461 57.7,-12.757 86.97,-12.757 200.51,-0.024 366.9,199.296 378.8,372.82 l -3.55,-1.91 c -0.36,-0.184 -0.76,-0.282 -1.16,-0.301 l -7.91,-3.949 c -0.12,-0.063 -0.81,-0.391 -0.94,-0.434 l -1.7,-0.566 -2.66,-1.5 -2.54,-0.922 c -0.3,-0.32 -0.65,-0.559 -1.04,-0.692 l -7.67,-3.207 c -0.24,-0.191 -0.48,-0.363 -0.67,-0.429 l -16.8,-7.274 c -0.36,-0.179 -0.75,-0.269 -1.15,-0.289 l -7.57,-3.219 c -0.21,-0.07 -0.44,-0.128 -0.66,-0.16 l -7.73,-3.289 c -0.18,-0.09 -0.56,-0.293 -0.77,-0.34 l -2.61,-0.793 -0.86,-0.589 -4.13,-1.629 c -0.47,-0.309 -1.02,-0.469 -1.58,-0.469 l -0.07,0 -0.75,-0.449 -14.84,-5.5 c -0.35,-0.242 -0.75,-0.461 -1.08,-0.532 l -1.04,-0.199 -8.25,-3.101 -33.73,-11.621 c -0.3,-0.098 -0.6,-0.137 -0.9,-0.137 l -46.34,-13.942 c -0.31,-0.199 -0.65,-0.39 -0.93,-0.46 l -4.81,-1.129 -8.64,-2.512 c -0.26,-0.07 -0.53,-0.109 -0.79,-0.109 l -27,-7.258 -7.2,-1.731 c -0.22,-0.062 -0.73,-0.082 -0.95,-0.082 l -55.01,-12.449 c -0.38,-0.191 -0.78,-0.301 -1.12,-0.301 l -0.01,0.012 c -0.38,-0.18 -0.78,-0.301 -1.13,-0.301 l -0.34,0 c -0.36,-0.172 -0.74,-0.281 -1.07,-0.281 l -0.01,0.019 c -0.38,-0.187 -0.78,-0.296 -1.13,-0.296 l -0.62,0 c -0.36,-0.18 -0.74,-0.293 -1.07,-0.293 l -1.34,-0.207 c -0.4,-0.223 -0.84,-0.352 -1.21,-0.352 l -0.63,0 c -0.36,-0.18 -0.74,-0.289 -1.07,-0.289 l -0.07,0 c -0.36,-0.172 -0.74,-0.281 -1.08,-0.281 l -0.05,0.148 c -0.45,-0.258 -0.94,-0.43 -1.36,-0.43 l -0.34,0 c -0.36,-0.179 -0.75,-0.289 -1.08,-0.289 l -0.32,0 c -0.37,-0.168 -0.76,-0.289 -1.09,-0.289 l -0.35,0 c -0.36,-0.179 -0.74,-0.281 -1.07,-0.281 l -0.34,0 c -0.36,-0.18 -0.74,-0.289 -1.08,-0.289 l -0.01,0.02 c -0.38,-0.18 -0.78,-0.301 -1.12,-0.301 l -0.85,0 -30.67,-5.91 -17.84,-3.387 c -0.18,-0.043 -0.64,-0.051 -0.81,-0.051 l -20.47,-3.652 c -0.17,-0.028 -0.91,-0.039 -1.08,-0.039 l -13.15,-2.231 c -0.15,-0.019 -0.87,-0.027 -1.02,-0.027 l -26.73,-4.492 c -0.16,-0.032 -0.88,-0.039 -1.05,-0.039 l -34.98,-5.653 c -0.15,-0.019 -0.59,-0.027 -0.73,-0.027 l -54.57,-8.191 -55,-7.942 c -30.457,-4.437 -63.508,-9.637 -100.77,-15.84 m 287.08,-223.558 -0.02,0 c -29.82,0 -59.62,4.371 -88.59,13 -67.759,20.351 -84.97,59.531 -103.188,101.019 -17.852,40.629 -36.301,82.653 -107.012,107.949 -1.207,0.43 -1.981,1.633 -1.86,2.922 0.11,1.282 1.083,2.321 2.352,2.539 41.551,6.969 77.91,12.719 111.18,17.582 l 109.928,16.149 c 0.15,0.031 0.59,0.039 0.75,0.039 l 34.98,5.641 c 0.15,0.019 0.87,0.031 1.02,0.031 l 26.73,4.488 c 0.16,0.031 0.89,0.039 1.05,0.039 l 13.13,2.231 c 0.16,0.031 0.88,0.043 1.04,0.043 l 20.53,3.66 c 0.14,0.019 0.58,0.027 0.73,0.027 l 48.49,9.301 c 0.12,0.019 0.39,0.031 0.6,0.039 0.37,0.18 0.75,0.293 1.08,0.293 l 0.06,0 c 0.36,0.168 0.75,0.277 1.08,0.277 l 0.06,-0.148 c 0.45,0.258 0.93,0.429 1.35,0.429 l 0.33,0 c 0.37,0.18 0.76,0.301 1.09,0.301 l 0.34,0 c 0.36,0.168 0.74,0.278 1.08,0.278 l 0.34,0 c 0.36,0.179 0.74,0.281 1.07,0.281 l 0.34,0 c 0.36,0.18 0.75,0.289 1.08,0.289 l 0.01,-0.027 c 0.38,0.187 0.78,0.308 1.13,0.308 l 0.63,0 c 0.36,0.18 0.74,0.281 1.07,0.281 l 1.34,0.219 c 0.4,0.211 0.84,0.352 1.21,0.352 l 0.62,0 c 0.36,0.179 0.75,0.277 1.08,0.277 l 0.06,0 c 0.36,0.18 0.74,0.289 1.07,0.289 l 0.06,-0.148 c 0.45,0.25 0.94,0.429 1.36,0.429 l 0.06,0 c 0.36,0.172 0.74,0.282 1.07,0.282 l 2.16,0.257 25.58,5.571 c 0.31,0.14 0.69,0.312 0.82,0.332 l 26.68,6.25 c 0.21,0.039 0.69,0.058 0.89,0.058 l 33.79,8.969 c 0.26,0.07 0.53,0.113 0.79,0.113 l 12.65,3.457 c 0.26,0.192 0.55,0.332 0.77,0.403 l 26.88,7.64 20.42,6.528 c 0.26,0.07 0.52,0.109 0.8,0.109 l 40.96,14.442 c 0.23,0.109 0.47,0.199 0.72,0.25 l 0.76,0.14 c 0.21,0.149 0.43,0.27 0.59,0.328 l 15.61,5.981 c 0.44,0.269 0.94,0.402 1.44,0.402 l 0.14,0.098 c 0.21,0.14 0.44,0.242 0.67,0.32 l 15.88,6.41 c 0.28,0.129 0.57,0.199 0.87,0.242 l 7.25,3.118 c 0.36,0.179 0.76,0.281 1.17,0.3 l 16.22,7 c 0.29,0.219 0.62,0.422 0.85,0.5 l 7.23,3.071 c 0.24,0.25 0.52,0.449 0.84,0.57 l 3.27,1.191 2.65,1.5 10.86,5.149 c 0.37,0.172 0.77,0.281 1.17,0.289 l 7.41,3.711 c 0.9,0.41 1.95,0.34 2.78,-0.219 0.83,-0.551 1.3,-1.5 1.25,-2.5 -4.78,-91.293 -48.71,-186.449 -120.51,-261.062 -75.63,-78.59 -169.48,-121.879 -264.22,-121.879" /><path
         id="path76"
         style="fill:#fad4c5;fill-opacity:1;fill-rule:nonzero;stroke:none"
         d="m 833.551,552.355 c 142.582,-51.019 75.969,-168.66 210.049,-208.91 234.14,-69.742 458.64,156.469 469.7,367.371 l -4.82,-2.269 -1.42,-0.852 -1.7,-0.851 -0.57,0 -1.13,-0.571 -1.42,-0.847 -1.7,-0.852 -1.7,-0.57 -1.42,-0.848 -1.13,-0.562 -0.57,-0.289 -1.7,-0.559 -3.12,-1.699 -1.7,-0.57 -1.41,-0.571 0,-0.281 -1.7,-0.57 -1.71,-0.852 -1.7,-0.566 -1.41,-0.852 -1.7,-0.558 -0.29,-0.293 -1.41,-0.559 -1.42,-0.57 -4.82,-2.27 -0.85,-0.281 -0.85,-0.289 -1.7,-0.852 -1.7,-0.558 -1.42,-0.852 -1.7,-0.566 -1.14,-0.571 -0.56,0 -1.7,-0.851 -1.42,-0.559 -3.4,-1.422 -1.42,-0.57 -0.28,0 -3.12,-1.418 -1.7,-0.562 -1.42,-0.848 -1.7,-0.57 -0.57,-0.282 -1.13,-0.289 -1.7,-0.558 -1.42,-0.852 -1.7,-0.57 -1.7,-0.57 -0.85,-0.571 -0.85,0 -1.42,-0.847 -1.7,-0.563 -1.7,-0.57 -1.7,-0.571 -1.42,-0.558 -1.7,-0.852 -1.7,-0.566 -3.12,-1.133 -1.7,-0.57 -0.28,-0.289 -1.42,-0.282 -1.7,-0.847 -1.42,-0.571 -1.7,-0.558 -1.7,-0.57 -0.85,-0.282 -0.85,-0.289 -6.8,-2.261 -5.11,-1.989 -1.7,-0.57 -2.83,-0.852 -8.79,-3.109 -8.5,-2.84 -0.29,0 -6.8,-1.98 -1.7,-0.852 -5.1,-1.418 -6.24,-1.988 -0.57,-0.281 -5.66,-1.7 -1.14,-0.281 -6.8,-1.988 -13.32,-3.684 -0.29,-0.289 -4.82,-1.129 -8.78,-2.55 -0.29,0 -6.8,-1.981 -5.95,-1.418 -1.14,-0.293 -3.4,-0.848 -3.4,-0.851 -6.8,-1.981 -7.09,-1.699 -0.28,0 -6.52,-1.418 -2.27,-0.57 -4.54,-1.133 -4.53,-1.129 -2.55,-0.57 -6.24,-1.418 -0.57,-0.281 -7.08,-1.418 -13.89,-3.121 -5.1,-1.129 -1.99,-0.282 -0.57,0 -0.28,-0.289 -0.85,0 -0.28,-0.281 -1.14,0 -0.28,-0.281 -0.85,0 -0.28,-0.289 -1.42,0 -0.29,-0.281 -0.28,0 -1.7,-0.278 -0.28,0 -0.29,-0.293 -1.41,0 -0.29,-0.277 -0.85,0 -0.28,-0.289 -1.14,0 -0.28,-0.281 -1.13,0 -0.29,-0.282 -1.13,0 -0.28,-0.289 -1.14,0 -0.28,-0.281 -1.13,0 -0.29,-0.277 -0.85,0 -0.28,-0.293 -0.85,0 -4.25,-0.848 -8.79,-1.699 -1.14,-0.281 -7.08,-1.422 -0.85,0 -5.96,-1.129 -3.11,-0.57 -17.86,-3.399 -0.28,0 -7.09,-1.133 -10.77,-1.988 -3.12,-0.57 -0.57,0 -5.1,-0.852 -1.42,-0.277 -7.08,-1.129 -0.57,0 -18.14,-3.121 -2.55,-0.281 -6.52,-1.141 -0.57,0 -7.09,-1.129 -1.42,-0.289 -9.07,-1.41 -9.07,-1.422 -1.7,-0.277 -7.08,-1.141 -0.29,0 -6.8,-1.133 -2.27,-0.289 -9.35,-1.41 -2.84,-0.289 -6.23,-0.852 -0.85,-0.277 -7.09,-1.133 -1.13,0 -9.08,-1.418 -9.35,-1.422 -9.07,-1.129 -7.09,-1.14 -1.98,-0.278 -9.36,-1.421 -3.109,-0.559 -5.961,-0.852 -1.129,0 -7.941,-1.14 -9.348,-1.418 C 907.82,564.547 870.68,558.594 833.551,552.355" /><path
         id="path78"
         style="fill:#000000;fill-opacity:1;fill-rule:nonzero;stroke:none"
         d="m 932.195,558.59 c 102.335,-36.57 54.434,-121.039 150.525,-149.668 167.53,-49.891 328.25,111.969 336.19,263.058 -129.54,-63.218 -266.46,-80.218 -407.06,-100.917 -26.362,-3.973 -53.002,-7.93 -79.655,-12.473" /><path
         id="path80"
         style="fill:#ff0000;fill-opacity:1;fill-rule:nonzero;stroke:none"
         d="m 1028.01,445.773 c 32.31,58.11 162.14,80.219 181.7,34.579 4.25,54.14 109.99,92.128 159.02,50.179 -61.79,-91.847 -172.34,-155.629 -286.01,-121.609 -28.06,8.5 -43.94,21.539 -54.71,36.851" /><path
         id="path82"
         style="fill:#000000;fill-opacity:1;fill-rule:nonzero;stroke:none"
         d="m 932.195,558.59 0.852,-6.52 c -3.399,-0.57 -6.52,1.981 -7.09,5.391 -0.281,3.398 1.988,6.801 5.672,7.371 l 0.566,-6.242 z m 40.821,0 c -12.758,-1.981 -26.078,-4.25 -39.969,-6.52 l -1.418,12.762 c 12.758,2.258 26.078,4.527 39.969,6.52 l 1.418,-12.762 z m 39.684,5.949 c -12.47,-1.699 -25.512,-3.68 -39.684,-5.949 l -1.418,12.762 c 11.91,1.98 25.507,3.961 39.692,5.949 l 1.41,-12.762 z m 28.63,4.25 -28.63,-4.25 -1.41,12.762 c 16.72,2.551 22.67,3.398 28.91,4.25 l 1.13,-12.762 z m 380.13,97.231 c -121.61,-59.239 -249.17,-77.95 -380.13,-97.231 l -1.13,12.762 c 129.83,19.281 256.25,37.699 376.16,96.101 l 5.1,-11.632 z m -2.55,5.96 -6.24,0 c 0.29,3.68 3.12,6.52 6.81,6.52 3.4,-0.289 5.95,-3.117 5.66,-6.809 l -6.23,0.289 z m -16.16,-56.699 c 5.67,18.989 9.07,37.989 9.92,56.699 l 12.47,-0.289 c -0.85,-19.839 -4.53,-39.968 -10.48,-59.808 l -11.91,3.398 z M 1302.12,466.18 c 47.62,38.84 83.62,92.691 100.63,149.101 l 11.91,-3.398 C 1397.08,552.922 1359.38,496.789 1309.77,455.98 l -7.65,10.2 z m -167.53,-59.809 c 61.8,-3.121 120.19,20.981 167.53,59.809 l 7.65,-10.2 c -49.6,-40.82 -111.11,-65.769 -176.03,-62.371 l 0.85,12.762 z m -49.89,8.789 c 16.73,-5.109 33.45,-7.937 49.89,-8.789 l -0.85,-12.762 c -17.57,0.852 -35.15,3.973 -53,9.071 l 3.96,12.48 z m -68.88,67.742 c 12.19,-27.492 23.81,-54.14 68.88,-67.742 l -3.96,-12.48 c -50.18,15.031 -63.22,44.222 -76.26,74.562 l 11.34,5.66 z m -81.351,81.637 c 53.859,-19.269 68.031,-51.019 81.351,-81.637 l -11.34,-5.66 c -12.472,28.34 -25.511,57.539 -74.554,75.11" /><path
         id="path84"
         style="fill:#fdfdfd;fill-opacity:1;fill-rule:nonzero;stroke:none"
         d="m 1290.5,665.176 39.69,13.609 c 8.22,2.828 16.72,-2.84 18.99,-12.48 l 11.89,-50.172 c -18.7,-15.309 -40.52,-29.199 -65.18,-41.668 l -16.16,68.027 c -2.27,9.922 2.55,20.133 10.77,22.684" /><path
         id="path86"
         style="fill:#fdfdfd;fill-opacity:1;fill-rule:nonzero;stroke:none"
         d="m 1059.47,622.371 -44.79,-9.351 c -8.5,-1.989 -13.04,-11.629 -11.05,-21.551 l 11.05,-58.668 c 25.23,-5.391 53.29,-7.942 83.06,-7.371 0,1.129 0,2.261 -0.29,3.398 l -18.7,79.652 c -2.27,9.918 -11.06,15.872 -19.28,13.891" /><path
         id="path88"
         style="fill:#fdfdfd;fill-opacity:1;fill-rule:nonzero;stroke:none"
         d="m 1400.48,714.496 -34.87,-33.73 c -6.52,-6.239 -19.27,7.082 -17.29,0.558 l 16.73,-62.066 c 34.58,29.187 57.26,62.359 63.21,94.957 l -7.37,18.711 c -2.55,6.23 -13.61,-12.192 -20.41,-18.43" /><path
         id="path90"
         style="fill:#fdfdfd;fill-opacity:1;fill-rule:nonzero;stroke:none"
         d="m 937.867,593.742 40.821,9.918 c 8.218,1.992 19.558,3.121 21.257,-6.801 l 11.345,-63.207 c -39.122,9.071 -70.872,25.219 -91.282,47.047 l 2.269,11.063 c 1.981,9.07 7.371,0 15.59,1.98" /><path
         id="path92"
         style="fill:#fdfdfd;fill-opacity:1;fill-rule:nonzero;stroke:none"
         d="m 1094.62,624.07 63.5,15.313 c 8.22,1.976 17,-4.25 19.27,-13.891 l 18.99,-83.621 c 0.29,-1.141 0.57,-2.269 0.57,-3.121 -32.6,-7.937 -64.91,-12.187 -95.24,-13.039 l -18.14,77.102 c -2.27,9.636 2.83,19.277 11.05,21.257" /><path
         id="path94"
         style="fill:#fdfdfd;fill-opacity:1;fill-rule:nonzero;stroke:none"
         d="m 1258.46,656.102 -66.32,-16.161 c -7.66,-1.976 -11.91,-11.339 -9.64,-20.968 l 18.98,-75.969 c 0.29,-1.141 0.57,-1.992 1.15,-2.84 32.03,8.219 61.78,19.277 88.71,32.32 0,0.848 -0.27,1.7 -0.27,2.547 l -14.75,66.614 c -1.98,9.636 -10.21,16.16 -17.86,14.457" /><path
         id="path96"
         style="fill:#000000;fill-opacity:1;fill-rule:nonzero;stroke:none"
         d="m 858.863,1059.13 c -75.883,0 -170.75,-30.27 -211.633,-97.888 -32.75,-54.187 -27.07,-124.129 16.891,-207.898 1.262,-2.391 1.641,-5.149 1.082,-7.781 -12.121,-57.758 -6.121,-102.008 17.828,-131.508 28.242,-34.762 81.313,-51.672 162.282,-51.672 98.91,0 222.847,26.133 319.787,48.91 4.01,1 8.2,1.992 12.36,2.98 4.82,1.129 9.62,2.262 14.32,3.469 0.13,0.043 0.25,0.071 0.38,0.102 0.11,0.031 0.23,0.07 0.35,0.109 0.88,0.32 1.79,0.551 2.7,0.66 l 25.48,6.512 c 192.2,48.969 393.72,113.23 431.47,218.609 14.64,40.911 3.62,85.489 -33.71,136.289 -1.61,2.2 -2.4,4.891 -2.23,7.622 5.01,79.535 -10.02,138.585 -44.67,175.485 -34.08,36.3 -81.41,43.92 -115.1,43.92 -85.29,0 -178.95,-46.82 -199.64,-85.59 -2.31,-4.33 -7.02,-6.74 -11.98,-6.01 -54.3,8.14 -106.44,7.02 -154.58,-3.27 -0.05,-0.02 -0.09,-0.03 -0.14,-0.04 -0.07,-0.01 -0.14,-0.03 -0.22,-0.07 -0.33,-0.12 -0.67,-0.23 -1.03,-0.33 -46.93,-12.65 -94.309,-35.9 -140.837,-69.1 -4.089,-2.92 -9.613,-2.87 -13.652,0.11 -13.91,10.25 -42.141,16.38 -75.508,16.38 m -13.55,-519.985 c -88.411,0 -147.403,19.718 -180.321,60.257 -27.98,34.473 -35.832,83.852 -23.371,146.832 -46.219,89.86 -51.027,166.239 -14.277,227.039 45.558,75.367 149.109,109.107 231.519,109.107 34.539,0 63.231,-5.75 82.078,-16.29 46.039,31.91 92.999,54.61 139.719,67.52 0.91,0.46 1.89,0.82 2.91,1.03 1.41,0.56 2.79,0.9 4.38,0.81 47.88,9.93 99.29,11.3 152.73,4.07 30.29,43.48 126.11,90.77 215.77,90.77 54.91,0 100.56,-17.72 132.04,-51.25 38.59,-41.09 55.79,-104.55 51.18,-188.665 39.66,-55.43 51.23,-107.383 34.37,-154.473 -41.42,-115.648 -249.49,-182.816 -447.57,-233.289 l -26.62,-6.8 c -0.13,-0.04 -0.24,-0.071 -0.37,-0.098 -0.12,-0.031 -0.23,-0.07 -0.35,-0.11 -0.88,-0.32 -1.79,-0.55 -2.71,-0.66 -4.48,-1.14 -9.04,-2.222 -13.63,-3.3 -4.05,-0.961 -8.13,-1.922 -12.21,-2.942 -98.32,-23.098 -223.978,-49.558 -325.267,-49.558" /><path
         id="path98"
         style="fill:#fad4c5;fill-opacity:1;fill-rule:nonzero;stroke:none"
         d="m 1087.82,1123.82 -1.13,-0.57 -0.85,0 0,-0.28 c -43.09,-11.62 -92.133,-33.45 -144.57,-70.87 -74.551,55 -446.172,-1.7 -287.43,-304.151 -53.012,-252.57 232.719,-214.019 513.92,-147.969 9.07,2.27 18.14,4.25 26.93,6.52 l 0.56,0 0.29,0.277 0.56,0 0.29,0.282 0.56,0 c 8.79,2.269 17.86,4.539 26.65,6.808 280.35,71.434 553.32,170.082 404.22,373.043 21.83,346.67 -336.19,224.5 -381.26,140.03 -62.36,9.35 -115.09,5.95 -158.74,-3.4" /><path
         id="path100"
         style="fill:#000000;fill-opacity:1;fill-rule:nonzero;stroke:none"
         d="m 883.156,937.867 c 60.942,-44.5 85.043,-115.371 53.571,-157.89 -31.18,-42.801 -106.289,-41.391 -167.239,3.398 -60.941,44.512 -85.039,115.094 -53.859,157.891 31.469,42.8 106.301,41.101 167.527,-3.399" /><path
         id="path102"
         style="fill:#391f17;fill-opacity:1;fill-rule:nonzero;stroke:none"
         d="m 861.613,875.223 c -5.949,15.867 -5.949,37.699 7.653,50.168 5.39,4.82 12.48,6.808 19.847,7.66 -1.988,1.699 -3.968,3.398 -5.957,4.82 -61.23,44.5 -136.062,46.199 -167.519,3.399 -31.192,-42.809 -7.09,-113.387 53.847,-157.887 60.95,-44.793 136.071,-46.211 167.25,-3.403 4.532,5.95 7.653,12.469 9.922,19.27 -36,14.461 -71.722,39.973 -85.043,75.973" /><path
         id="path104"
         style="fill:#57281a;fill-opacity:1;fill-rule:nonzero;stroke:none"
         d="m 880.891,799.254 c -24.661,16.719 -52.161,39.687 -58.68,70.867 -8.781,42.52 18.141,68.031 51.59,73.981 -59.242,38.269 -128.41,37.699 -158.172,-2.829 -31.18,-42.812 -7.09,-113.39 53.859,-157.89 57.262,-41.961 126.992,-45.93 161.293,-10.781 -17.582,7.371 -34.301,16.16 -49.89,26.652" /><path
         id="path106"
         style="fill:#863a1f;fill-opacity:1;fill-rule:nonzero;stroke:none"
         d="m 840.355,790.465 c -28.628,23.808 -57.832,58.68 -59.531,98.359 -2.269,42.242 32.602,59.531 69.449,68.321 -53.007,24.378 -108.57,19.269 -134.636,-15.879 -31.192,-42.801 -7.09,-113.379 53.847,-157.891 43.661,-31.738 94.11,-41.672 130.68,-29.191 -21.539,9.351 -41.949,21.543 -59.809,36.281" /><path
         id="path108"
         style="fill:#000000;fill-opacity:1;fill-rule:nonzero;stroke:none"
         d="m 893.645,748.23 c -37.981,-9.351 -86.457,2.829 -126.43,32.028 -30.039,21.832 -52.438,50.742 -62.918,81.359 -10.492,31.184 -7.371,60.094 8.5,81.922 10.488,14.449 26.648,24.66 45.918,29.481 38.269,9.347 86.742,-2.84 126.711,-32.032 62.359,-45.64 87.019,-119.058 54.422,-163.277 -10.774,-14.461 -26.641,-24.66 -46.203,-29.481 M 760.414,965.648 c -17.859,-4.25 -32.027,-13.609 -41.668,-26.648 -14.449,-19.562 -17.012,-45.922 -7.371,-74.551 9.922,-29.199 31.473,-56.98 60.383,-78.238 38.269,-27.781 84.469,-39.684 120.469,-30.613 17.578,4.25 32.031,13.32 41.668,26.363 30.05,41.098 6.242,109.418 -53.008,152.789 -38.262,28.059 -84.473,39.68 -120.473,30.898" /><path
         id="path110"
         style="fill:#000000;fill-opacity:1;fill-rule:nonzero;stroke:none"
         d="m 1339.82,1049.84 c -37.13,-68.606 -30.33,-143.434 15.02,-167.535 45.36,-23.809 112.26,12.468 149.39,81.359 37.13,68.606 30.61,143.426 -15.02,167.516 -45.36,23.82 -112.26,-12.47 -149.39,-81.34" /><path
         id="path112"
         style="fill:#391f17;fill-opacity:1;fill-rule:nonzero;stroke:none"
         d="m 1384.32,1003.35 c -0.85,17.29 -9.92,36.85 -26.93,41.67 -6.8,1.98 -13.89,0.28 -21.26,-2.27 1.42,2.27 2.27,4.82 3.69,7.09 37.13,68.88 104.03,105.16 149.38,81.35 45.64,-24.09 52.16,-98.93 15.03,-167.534 -37.14,-68.879 -104.04,-105.16 -149.39,-81.347 -6.52,3.398 -11.91,7.937 -16.72,13.039 26.64,29.757 48.47,69.449 46.2,108.002" /><path
         id="path114"
         style="fill:#57281a;fill-opacity:1;fill-rule:nonzero;stroke:none"
         d="m 1397.36,925.961 c 15.59,26.648 31.18,60.09 24.38,91.279 -8.79,42.23 -43.37,53 -76.25,42.52 38.26,62.36 100.63,94.11 143.71,71.43 45.64,-24.1 52.16,-98.93 15.03,-167.53 -34.87,-64.629 -96.1,-100.629 -140.89,-85.039 12.76,14.738 24.38,30.621 34.02,47.34" /><path
         id="path116"
         style="fill:#863a1f;fill-opacity:1;fill-rule:nonzero;stroke:none"
         d="m 1437.33,937.016 c 16.44,34.871 28.63,79.644 14.46,116.504 -15.03,39.12 -53.29,38.55 -90.15,29.19 37.99,46.77 90.15,68.04 127.56,48.48 45.64,-24.09 52.16,-98.93 15.03,-167.526 -26.36,-49.039 -68.03,-81.359 -106.3,-87.309 15.87,18.422 29.2,38.833 39.4,60.661" /><path
         id="path118"
         style="fill:#000000;fill-opacity:1;fill-rule:nonzero;stroke:none"
         d="m 1406.43,873.805 c 37.98,9.347 76.82,43.09 101.2,87.871 18.14,34.019 26.64,70.594 23.81,102.894 -2.84,32.88 -17.29,57.83 -40.25,69.73 -15.59,8.22 -34.02,9.93 -53.58,5.11 -37.98,-9.36 -76.82,-42.8 -100.91,-87.87 -38.27,-70.306 -30.9,-147.685 16.16,-172.638 15.59,-7.929 34.01,-9.636 53.57,-5.097 m 32.88,258.515 c 17.58,4.25 34.3,2.56 48.19,-4.53 20.98,-11.06 33.73,-33.74 36.57,-64.07 2.83,-30.9 -5.39,-66.044 -23.25,-98.357 -23.24,-43.09 -60.09,-75.398 -96.09,-84.187 -17.58,-4.25 -34.3,-2.832 -48.19,4.539 -43.37,22.961 -49.61,95.808 -13.32,162.415 23.24,43.09 60.09,75.12 96.09,84.19" /><path
         id="path120"
         style="fill:#000000;fill-opacity:1;fill-rule:nonzero;stroke:none"
         d="m 1318.84,1455.19 c -34.87,60.94 -96.94,109.7 -170.08,111.69 -38.83,1.13 -68.03,-38.84 -82.77,-91.85 -8.22,-30.33 -11.62,-64.63 -9.64,-98.08 2.27,-33.73 9.92,-66.61 23.81,-94.11 24.95,-48.47 70.02,-80.22 140.03,-68.59 64.07,10.77 101.48,41.66 117.93,81.07 l 0.28,0.56 c 9.64,23.53 12.19,50.18 8.79,77.39 -3.69,27.78 -13.61,55.84 -28.35,81.92 m -167.81,133.51 c 81.35,-2.27 149.67,-55.27 187.65,-121.89 16.16,-28.06 26.93,-58.96 30.9,-89.01 3.97,-30.89 0.85,-61.51 -10.2,-88.72 -0.29,-0.28 -0.29,-0.57 -0.57,-0.85 -19.56,-46.49 -62.93,-83.06 -136.35,-95.24 -81.35,-13.61 -133.79,23.24 -162.42,79.08 -15.31,30.05 -23.81,65.77 -26.08,101.77 -2.27,36 1.42,72.85 10.49,105.16 17.29,63.5 54.7,111.12 106.58,109.7" /><path
         id="path122"
         style="fill:#fdfdfd;fill-opacity:1;fill-rule:nonzero;stroke:none"
         d="m 1149.9,1577.64 c 198.14,-5.38 318.33,-332.78 71.43,-373.88 -236.123,-39.69 -210.04,377.86 -71.43,373.88" /><path
         id="path124"
         style="fill:#000000;fill-opacity:1;fill-rule:nonzero;stroke:none"
         d="m 1178.53,1447.25 c -54.14,-18.14 -83.62,-81.07 -65.2,-140.03 18.14,-59.25 76.82,-92.41 130.96,-73.99 54.43,18.15 83.63,80.79 65.48,139.75 -18.14,59.25 -76.81,92.41 -131.24,74.27" /><path
         id="path126"
         style="fill:#863a1f;fill-opacity:1;fill-rule:nonzero;stroke:none"
         d="m 1186.18,1422.88 c -42.24,-13.9 -64.91,-62.36 -50.74,-108.29 14.17,-45.64 59.53,-71.44 101.48,-57.25 42.24,14.16 64.63,62.63 50.74,108.27 -14.17,45.93 -59.53,71.43 -101.48,57.27" /><path
         id="path128"
         style="fill:#000000;fill-opacity:1;fill-rule:nonzero;stroke:none"
         d="m 1197.52,1385.46 c -22.68,-7.94 -35.15,-34.3 -27.5,-59.24 7.66,-24.95 32.6,-38.84 55.28,-31.19 22.96,7.66 35.43,34.02 27.78,58.97 -7.65,24.94 -32.6,39.11 -55.56,31.46" /><path
         id="path130"
         style="fill:#fdfdfd;fill-opacity:1;fill-rule:nonzero;stroke:none"
         d="m 1234.37,1388.29 c 8.5,-2.55 13.04,-12.47 10.2,-21.83 -2.83,-9.35 -12.18,-14.74 -20.69,-11.9 -8.5,2.55 -13.04,12.19 -10.2,21.54 2.83,9.36 12.19,15.02 20.69,12.19" /><path
         id="path132"
         style="fill:#000000;fill-opacity:1;fill-rule:nonzero;stroke:none"
         d="m 543.285,1664.95 c 1.129,0.28 2.27,0.85 3.399,1.13 9.921,38.56 39.402,71.15 80.218,83.91 24.102,7.65 48.473,7.09 70.871,-0.28 9.352,19.27 23.243,36.56 40.25,50.17 5.102,45.35 36.571,85.89 83.063,100.35 54.137,16.72 110.547,-6.81 136.629,-53.86 13.598,30.04 39.68,54.42 73.415,64.91 62.35,19.28 128.12,-15.31 146.55,-77.39 0.56,-1.41 0.84,-2.83 1.41,-4.25 62.36,19.28 127.84,-15.3 146.55,-77.38 18.72,-62.08 -16.71,-128.13 -78.8,-147.4 -57.25,-17.86 -117.07,9.92 -141.16,62.64 -9.93,-38.55 -39.12,-71.43 -80.23,-84.19 -30.036,-9.35 -61.227,-5.95 -87.298,7.09 -17.578,-20.13 -40.539,-35.43 -67.75,-43.94 -0.566,-0.28 -1.136,-0.57 -1.699,-0.57 -6.808,-43.65 -37.699,-82.2 -82.769,-96.09 -43.371,-13.61 -88.161,-0.85 -117.93,28.91 -14.168,-17.57 -33.731,-31.18 -56.969,-38.55 -62.359,-19.27 -127.84,15.31 -146.551,77.39 -18.711,62.08 16.719,128.12 78.801,147.4" /><path
         id="path134"
         style="fill:#000000;fill-opacity:1;fill-rule:nonzero;stroke:none"
         d="m 957.992,1172.29 c 0,0 -208.058,85.89 -344.687,-119.34 0,0 20.117,58.4 70.578,107.15 -74.828,-12.47 -120.192,-44.5 -120.192,-44.5 31.75,46.49 106.301,60.94 144,65.76 56.411,43.94 139.18,65.76 250.301,-9.07" /></g></g></svg>