<?xml version="1.0" encoding="UTF-8" standalone="no"?>
<svg
   xmlns:dc="http://purl.org/dc/elements/1.1/"
   xmlns:cc="http://creativecommons.org/ns#"
   xmlns:rdf="http://www.w3.org/1999/02/22-rdf-syntax-ns#"
   xmlns:svg="http://www.w3.org/2000/svg"
   xmlns="http://www.w3.org/2000/svg"
   viewBox="0 0 248.03751 248.03751"
   height="248.03751"
   width="248.03751"
   xml:space="preserve"
   version="1.1"
   id="svg2"><metadata
     id="metadata8"><rdf:RDF><cc:Work
         rdf:about=""><dc:format>image/svg+xml</dc:format><dc:type
           rdf:resource="http://purl.org/dc/dcmitype/StillImage" /></cc:Work></rdf:RDF></metadata><defs
     id="defs6" /><g
     transform="matrix(1.25,0,0,-1.25,0,248.0375)"
     id="g10"><g
       transform="scale(0.1,0.1)"
       id="g12"><path
         id="path14"
         style="fill:#51669c;fill-opacity:1;fill-rule:evenodd;stroke:none"
         d="M 583.961,1021.2 C 571.199,943.254 514.23,897.047 514.23,822.215 c 0,-40.82 15.59,-38.84 28.059,-84.192 -56.976,-13.32 -92.687,-19.558 -76.25,-90.429 -26.078,-37.699 -15.59,-30.61 -8.508,-81.918 -19.84,-68.602 7.942,-132.66 51.879,-190.199 76.25,-100.352 169.231,-175.18 254.832,-218.274 43.367,-21.539 89.86,-34.019 133.231,-49.039 123.027,-42.5195 240.377,-62.6406 337.887,-37.4179 69.45,18.1484 142.3,80.7889 207.5,159.3089 56.97,68.601 69.73,97.8 89.86,138.332 37.7,45.359 113.38,141.726 142.58,228.468 30.05,89.29 -36.85,194.461 -103.47,252.571 -49.04,98.359 -96.94,147.969 -168.94,190.214 -80.22,47.32 -122.74,55.54 -177.45,45.06 -28.06,-5.38 -54.99,-19.27 -100.63,-27.5 l -312.087,-42.24" /><path
         id="path16"
         style="fill:#344776;fill-opacity:1;fill-rule:evenodd;stroke:none"
         d="m 540.875,742.559 c 0.57,-1.418 0.848,-2.829 1.418,-4.539 -56.98,-13.321 -92.699,-19.551 -76.25,-90.141 -26.078,-37.981 -15.598,-30.891 -8.508,-82.199 -19.84,-68.602 7.938,-132.66 51.879,-190.211 76.25,-100.34 169.219,-175.18 254.828,-217.981 43.371,-21.828 89.863,-34.297 133.231,-49.316 123.017,-42.5236 240.387,-62.6525 337.887,-37.422 69.45,18.1406 142.3,80.789 207.5,159.309 56.98,68.589 69.73,97.793 89.85,138.332 37.7,45.347 113.4,141.73 142.59,228.468 25.22,75.403 -18.15,161.86 -72.57,221.95 27.79,-52.161 46.2,-102.329 41.38,-122.168 -20.68,-86.743 -186.8,-246.903 -261.91,-293.391 -108,-66.609 -248.89,-90.422 -367.93,-81.922 -60.106,4.25 -115.665,17.012 -175.477,36.57 22.109,-24.949 99.5,-109.418 134.082,-104.878 84.755,10.769 77.945,8.218 167.805,12.191 80.79,3.68 182.27,24.937 267.31,71.43 33.73,18.711 97.8,78.8 141.73,123.871 40.25,41.109 65.21,67.468 56.98,48.187 -23.25,-53.859 -73.41,-108.57 -136.07,-157.32 -51.29,-39.688 -110.83,-75.117 -170.64,-102.328 -17.29,-7.942 -53.58,-25.512 -58.68,-18.43 -5.38,6.809 35.15,30.051 21.26,43.367 -6.24,5.961 -87.59,-32.597 -128.69,-41.097 -59.52,-12.469 -117.07,-8.5 -171.497,5.39 C 783.805,283.91 630.445,448.891 516.785,557.738 634.984,414.59 709.254,292.988 820.082,231.469 c 206.648,-114.52 445.888,-58.957 588.758,20.703 -0.85,-68.32 -134.36,-126.434 -198.14,-146.844 -145.99,-46.4882 -308.407,27.211 -399.118,68.031 -99.777,45.36 -176.027,95.813 -238.398,170.93 -50.739,60.383 -109.7,104.031 -95.239,189.07 27.778,-46.769 62.649,-110.55 120.469,-175.461 58.399,-65.476 121.328,-112.82 152.789,-132.097 -30.898,33.449 -47.051,64.347 -114.801,146.84 -68.879,83.898 -137.476,161.289 -148.25,201.828 -5.957,22.672 -17.578,18.703 -5.668,42.519 33.161,-26.078 46.481,-50.457 77.95,-77.668 40.25,-34.871 104.308,-88.73 163.558,-138.898 34.012,-28.633 72.852,-50.461 95.531,-67.184 18.141,-13.886 15.59,11.621 9.629,25.512 -2.257,4.82 -37.41,31.75 -87.019,70.301 -68.028,53.289 -151.938,130.679 -169.231,146.269 -41.379,37.7 -79.089,67.18 -81.347,96.371 -1.992,25.231 30.039,33.45 51.871,46.778 6.519,3.679 -4.25,15.871 3.117,19.269" /><path
         id="path18"
         style="fill:#344776;fill-opacity:1;fill-rule:evenodd;stroke:none"
         d="m 547.109,925.961 c -17.007,-32.602 -32.879,-64.059 -32.879,-103.75 0,-40.82 15.59,-38.828 28.063,-84.191 l -10.203,-2.258 c 7.93,-21.832 18.14,-42.242 34.012,-60.102 33.168,-36.847 86.738,-46.769 130.961,-83.617 13.328,-11.344 24.097,-32.031 37.988,-42.801 38.832,-30.621 71.429,10.199 88.148,-67.191 5.961,-26.918 50.461,-69.16 54.711,-63.211 5.672,7.371 -4.25,29.203 -15.301,49.609 -10.207,19.274 -10.488,27.211 24.371,22.961 142.87,-17.578 183.41,-64.347 379.28,-35.148 119.34,17.859 245.76,61.789 293.1,145.699 34.02,60.66 32.03,126.988 18.71,182.269 -14.46,60.379 -76.25,155.051 -112.53,210.903 -19,16.717 -39.41,30.887 -62.65,44.497 -19.84,11.9 -37.42,21.26 -53.58,28.35 l 8.51,-7.94 c 70.86,-56.98 145.7,-134.36 180.85,-224.79 36.57,-93.258 31.75,-196.437 -49.61,-267.59 -16.72,-14.461 -36.85,-27.777 -60.66,-39.398 -25.79,-12.469 -8.79,42.238 6.24,84.187 24.94,69.453 -8.79,43.942 -56.98,5.102 -26.36,-21.258 -44.5,-39.969 -70.3,-54.141 -114.8,-63.211 -263.05,-76.82 -391.458,-37.418 -197.293,60.379 -342.711,140.879 -378.711,274.399 -10.492,37.98 -1.699,78.511 9.918,125.57" /><path
         id="path20"
         style="fill:#344776;fill-opacity:1;fill-rule:evenodd;stroke:none"
         d="m 1435.77,840.922 c -17.57,-75.121 3.12,-193.039 -16.16,-263.051 10.21,31.742 25.8,100.063 28.63,131.52 10.77,115.371 12.76,216.57 -77.38,285.73 11.9,-51.019 41.38,-92.687 30.61,-123.867 -24.38,-70.871 -122.46,-106.301 -269.86,-137.203 -120.47,-25.219 -228.747,-33.16 -306.708,1.703 -113.672,50.457 -203.519,161.297 -242.359,278.076 -3.121,-14.736 -7.371,-28.057 -12.75,-40.818 16.437,-60.09 57.258,-129.539 111.398,-185.66 126.711,-130.68 305.289,-163.848 460.059,-136.629 141.73,24.937 203.81,99.769 294.52,190.199" /><path
         id="path22"
         style="fill:#172952;fill-opacity:1;fill-rule:evenodd;stroke:none"
         d="m 1435.77,840.922 c -17.57,-75.121 0.57,-192.469 -16.16,-263.051 -7.65,-32.598 19.28,119.051 22.4,150.801 10.48,115.082 -5.96,191.621 -71.15,266.449 26.08,-41.949 54.14,-98.918 43.65,-130.109 -24.38,-71.149 -128.69,-136.629 -276.09,-167.52 -120.48,-25.23 -255.69,-3.969 -333.639,30.61 -113.668,50.461 -182.84,150.8 -221.668,267.308 -2.84,-14.457 -3.972,3.403 -9.07,-9.359 16.437,-60.09 62.641,-138.039 117.07,-193.891 126.707,-130.668 291.399,-145.699 446.167,-118.476 141.45,24.937 207.78,76.808 298.49,167.238" /><path
         id="path24"
         style="fill:#172952;fill-opacity:1;fill-rule:evenodd;stroke:none"
         d="m 542.293,738.023 c -56.98,-13.32 -92.691,-19.558 -76.25,-90.429 -26.082,-37.699 -15.59,-30.61 -8.512,-81.918 -19.84,-68.59 7.942,-132.66 51.879,-190.203 76.25,-100.348 169.231,-175.18 254.832,-217.989 43.371,-21.82 89.86,-34.289 133.231,-49.32 123.017,-42.5195 240.377,-62.6406 337.887,-37.4218 69.45,18.1523 142.3,80.7928 207.5,159.3128 56.97,68.597 69.73,97.8 89.86,138.328 37.7,45.359 113.38,142.019 142.58,228.472 19.84,58.68 -2.27,124.45 -38.84,178.868 23.53,-39.68 31.75,-59.528 26.65,-79.649 -20.98,-84.48 -193.61,-278.082 -269.01,-324.57 -108,-66.609 -261.64,-81.918 -380.41,-73.418 -60.088,4.25 -91.268,29.199 -151.37,48.758 22.403,-24.949 105.172,-65.758 140.03,-61.231 84.76,10.77 51.03,-9.64 140.88,-5.39 80.79,3.691 175.75,31.472 261.08,77.961 102.61,55.839 215.71,224.218 272.12,317.48 4.82,-100.351 -106.01,-269.012 -207.21,-346.398 -43.09,-33.161 -106.3,-84.75 -185.95,-108 -18.43,-5.672 -52.44,-6.801 -57.83,0 -5.39,7.089 51.02,39.117 37.13,52.726 -6.23,5.953 -60.37,-56.687 -101.48,-65.199 -59.52,-12.469 -169.789,0.57 -224.219,14.461 C 758.57,268.895 623.934,444.074 516.781,557.742 634.98,414.594 716.902,313.676 827.742,252.164 c 119.34,-66.328 272.688,-73.422 388.058,-53.012 149.95,26.934 252.57,100.922 301.89,155.911 -15.87,-22.68 -54.14,-87.59 -104.03,-142.297 C 1369.44,164.574 1313.6,109.586 1248.4,90.0234 1141.25,58.2734 999.23,71.5938 810.73,156.926 710.672,201.992 611.172,270.875 548.813,345.703 c -50.743,60.672 -102.051,118.781 -79.942,208.07 28.07,-46.769 83.621,-121.32 141.449,-186.238 58.114,-65.48 109.422,-122.449 140.883,-141.73 -30.89,33.449 -67.461,61.789 -134.93,144 -69.16,83.898 -142.293,172.91 -152.781,213.73 -5.961,22.399 -4.262,36.289 7.93,59.809 32.891,-25.789 62.082,-67.461 93.551,-94.668 40.531,-34.871 102.039,-83.91 161.289,-134.371 4.531,-3.68 84.75,-67.461 99.211,-70.301 5.097,-1.129 -41.95,39.969 -91.563,78.809 -68.308,53.292 -149.668,129.82 -166.68,145.41 -41.378,37.711 -91.839,81.64 -94.109,110.84 -2.258,30.05 17.301,35.152 57.262,53.57 3.969,1.711 7.66,3.41 11.91,5.39" /><path
         id="path26"
         style="fill:#172952;fill-opacity:1;fill-rule:evenodd;stroke:none"
         d="m 547.109,925.961 c -17.007,-32.602 -32.879,-64.059 -32.879,-103.75 0,-40.82 15.59,-38.828 28.063,-84.191 39.687,-79.649 67.75,-64.34 154.488,-137.477 13.321,-11.051 28.352,-38.551 41.949,-49.32 39.122,-30.614 75.403,32.308 92.411,-45.071 5.949,-27.211 42.519,-93.261 46.769,-87.312 5.672,7.371 -14.168,36.293 -24.937,56.98 -10.211,19.27 -14.172,39.403 20.687,35.153 143.15,-17.864 199.56,-69.731 395.15,-40.25 119.62,17.847 209.48,34.859 256.82,119.047 33.73,60.382 37.7,146.269 24.38,201.543 -14.46,60.667 -48.19,147.968 -84.47,203.82 -19,16.717 -39.41,30.887 -62.65,44.497 47.9,-43.368 65.2,-66.61 118.2,-202.958 36.57,-93.539 26.93,-205.801 -48.18,-282.902 -16.16,-16.719 -35.15,-33.727 -58.97,-45.348 -25.79,-12.481 -13.03,57.258 1.99,99.211 24.94,69.156 20.69,58.109 -10.21,4.25 -16.44,-28.91 -54.99,-61.231 -80.78,-75.403 -114.81,-63.21 -279.78,-60.66 -408.479,-21.257 -197.289,60.379 -354.891,153.918 -391.18,287.429 -10.199,38.27 10.211,76.25 21.828,123.309" /><path
         id="path28"
         style="fill:#15274d;fill-opacity:1;fill-rule:evenodd;stroke:none"
         d="m 1254.92,892.23 c 28.91,33.731 50.17,47.059 52.44,85.04 2.55,43.37 -20.69,71.72 -44.79,98.08 -62.36,68.31 -183.97,90.14 -272.41,85.6 -151.078,-7.93 -410.168,-35.71 -403.367,-146.55 8.789,-143.712 249.449,-291.97 508.257,-239.24 74.55,15.309 98.93,45.641 159.87,117.07" /><path
         id="path30"
         style="fill:#5f77b3;fill-opacity:1;fill-rule:evenodd;stroke:none"
         d="m 676.938,856.512 c 86.167,-84.758 121.039,-92.692 178.019,-113.668 92.969,-33.731 238.393,-17.864 352.063,23.527 143.72,52.442 209.2,83.051 164.69,197.859 -26.93,70.01 -4.53,49.6 26.36,6.524 97.23,-136.352 80.79,-214.301 48.48,-362.274 -7.37,-34.296 -11.63,-44.789 -8.51,-47.339 3.69,-2.828 15.88,5.101 26.65,41.39 38.55,129.262 36.28,251.711 -45.64,368.5 -46.49,66.329 -85.04,44.499 -130.39,99.499 12.75,-32.89 22.67,-50.18 28.63,-76.538 8.5,-38.832 -10.78,-67.461 -29.2,-97.23 -20.13,-32.602 -41.95,-77.949 -110.55,-107.711 -76.25,-32.598 -214.302,-58.11 -329.392,-18.707 -49.89,17 -81.351,9.918 -171.21,86.168" /><path
         id="path32"
         style="fill:#5f77b3;fill-opacity:1;fill-rule:evenodd;stroke:none"
         d="M 574.039,906.117 C 559.871,847.727 568.09,798.688 591.898,757.297 717.762,537.617 1047.14,534.5 1175.84,547.816 c 113.95,11.911 182.83,64.063 214.29,118.493 33.17,57.257 23.82,91.269 24.95,115.648 C 1367.74,724.988 1306.51,681.047 1232.53,653.84 894.641,529.957 663.328,725.547 574.039,906.117" /><path
         id="path34"
         style="fill:#5f77b3;fill-opacity:1;fill-rule:evenodd;stroke:none"
         d="m 712.938,482.34 c 209.48,-166.391 363.122,-174.332 555.872,-112.25 119.06,38.551 171.5,85.89 257.11,163.269 -95.25,-51.589 -164.13,-80.781 -273.26,-101.191 -60.1,-11.34 -121.33,-11.059 -204.38,0 -78.245,10.77 -147.694,40.25 -152.221,37.133 -22.961,-14.172 34.859,-76.531 29.476,-77.953 -10.769,-2.84 -20.406,-3.688 -29.476,-2.547 -58.403,6.797 -60.661,112.816 -106.582,132.09 -71.149,29.757 -63.782,14.168 -113.391,56.687 -49.039,42.242 -122.168,80.789 -132.09,105.742 -18.711,2.258 -35.437,-12.191 -26.648,-33.453 16.437,-38.547 155.621,-139.469 195.59,-167.527" /><path
         id="path36"
         style="fill:#5f77b3;fill-opacity:1;fill-rule:evenodd;stroke:none"
         d="M 489.852,499.063 C 533.223,348.824 700.75,214.465 846.449,154.934 1029.57,80.3828 1287.52,88.3242 1385.6,224.672 1212.97,134.242 954.172,109.012 758.012,266.621 690.543,321.043 634.133,399.563 555.051,493.965 631.301,392.191 689.98,298.652 783.242,206.242 669.57,244.793 558.16,389.645 489.852,499.063" /><path
         id="path38"
         style="fill:#0f1c39;fill-opacity:1;fill-rule:evenodd;stroke:none"
         d="m 1254.92,892.23 c 28.91,33.731 50.17,47.059 52.44,85.04 1.13,16.718 -1.98,31.46 -7.09,44.5 -9.35,-14.17 -23.52,-26.93 -39.96,-46.2 -61.23,-71.429 -85.61,-101.769 -160.16,-117.07 -234.99,-47.621 -455.248,70.301 -500.029,200.12 -9.641,-13.04 -14.461,-27.78 -13.328,-44.22 8.789,-143.712 249.449,-291.97 508.257,-239.24 74.55,15.309 98.93,45.641 159.87,117.07" /><path
         id="path40"
         style="fill:#344776;fill-opacity:1;fill-rule:evenodd;stroke:none"
         d="m 1346.48,1042.18 c 56.98,-37.13 85.61,-45.348 115.09,-113.387 23.24,-54.422 37.41,-103.461 41.67,-150.801 7.65,-82.769 -14.18,-160.719 -68.04,-252.281 94.68,33.73 147.69,136.062 140.04,233.012 -6.24,79.371 -60.38,143.148 -107.72,203.808 -44.5,57.539 -69.73,63.209 -132.1,100.059 l -34.29,22.39 c -16.45,2.55 -26.37,3.69 -31.47,3.69 18.43,-9.92 33.45,-18.14 76.82,-46.49" /><path
         id="path42"
         style="fill:#000000;fill-opacity:1;fill-rule:nonzero;stroke:none"
         d="m 622.512,1305.24 5.39,9.92 c 5.668,-2.83 7.649,-9.92 4.809,-15.31 -3.109,-5.67 -9.918,-7.65 -15.59,-4.81 l 5.391,10.2 z m -34.301,26.08 c 13.043,-3.4 26.359,-8.79 39.691,-16.16 l -10.781,-20.12 c -11.617,6.52 -23.519,11.05 -34.859,14.17 l 5.949,22.11 z m -61.231,0.57 c 18.141,5.66 39.403,5.38 61.231,-0.57 l -5.949,-22.11 c -17.86,4.82 -34.578,5.1 -48.758,0.85 l -6.524,21.83 z m 3.403,-10.78 -3.403,10.78 c 5.961,1.98 12.473,-1.42 14.18,-7.37 1.981,-5.96 -1.418,-12.48 -7.367,-14.46 l -3.41,11.05 z m -48.18,-25.79 c 10.199,18.71 25.789,30.9 44.777,36.57 l 6.813,-21.83 c -13.332,-3.97 -24.383,-12.47 -31.473,-25.51 l -20.117,10.77 z m -8.23,-20.69 c 2.269,7.65 4.82,14.45 8.23,20.69 l 20.117,-10.77 c -2.547,-4.54 -4.527,-9.92 -6.238,-15.88 l -22.109,5.96 z m -225.629,-98.65 c 89.566,-23.81 193.597,-21.26 225.629,98.65 l 22.109,-5.96 C 459.523,1130.91 342.453,1127.22 242.383,1153.87 l 5.961,22.11 z m -79.66,28.63 c 23.25,-10.2 50.457,-20.69 79.66,-28.63 l -5.961,-22.11 c -30.039,8.22 -58.672,18.99 -83.051,29.76 l 9.352,20.98 z m -54.422,27.21 c 11.898,-7.08 31.179,-17.01 54.422,-27.21 l -9.352,-20.98 c -24.102,10.49 -43.941,21.26 -56.691,28.35 l 11.621,19.84 z m -10.489,-5.95 c -2.55,-4.25 7.09,7.94 10.489,5.95 l -11.621,-19.84 c -15.8793,9.35 -21.8285,20.13 -18.7074,25.23 l 19.8394,-11.34 z m -9.9214,5.67 9.6404,-5.67 c -3.121,-5.39 -10.2107,-7.37 -15.5897,-4.25 -5.3906,3.12 -7.371,10.2 -3.9687,15.59 l 9.918,-5.67 z M 318.641,1439.6 c -73.989,-29.76 -146.84,-96.66 -215.149,-213.73 l -19.5584,11.34 c 70.8594,122.17 147.6794,191.9 226.1994,223.65 l 8.508,-21.26 z m 253.41,-23.81 c -82.481,43.09 -168.938,57.83 -253.41,23.81 l -8.508,21.26 c 91.558,36.85 184.539,21.26 272.687,-24.66 l -10.769,-20.41 z m 67.75,-57.54 c -3.969,16.44 -23.809,34.86 -67.75,57.54 l 10.769,20.41 c 50.461,-26.36 73.993,-49.61 79.383,-72.28 l -22.402,-5.67 z m -24.938,-44.51 c 17.848,15.88 28.629,30.33 24.938,44.51 l 22.402,5.67 c 5.949,-24.66 -7.941,-45.92 -32.043,-67.18" /><path
         id="path44"
         style="fill:#863a1f;fill-opacity:1;fill-rule:nonzero;stroke:none"
         d="m 622.512,1305.24 c 41.949,37.13 49.039,71.72 -45.071,120.76 -159.308,83.05 -333.918,63.49 -483.5894,-194.46 -1.9883,-3.12 327.1214,-200.13 391.1794,40.25 15.59,58.11 76.539,66.62 137.481,33.45" /><path
         id="path46"
         style="fill:#da5840;fill-opacity:1;fill-rule:nonzero;stroke:none"
         d="m 209.789,1298.72 c 41.668,62.93 181.981,115.94 323.719,68.31 -199.852,-24.94 -164.981,-183.4 -323.719,-68.31" /><path
         id="path48"
         style="fill:#4b1d17;fill-opacity:1;fill-rule:nonzero;stroke:none"
         d="m 541.156,1349.18 c -147.679,55.27 -280.91,-2.84 -372.187,-84.2 90.14,125.58 338.168,194.17 372.187,84.2" /><path
         id="path50"
         style="fill:#000000;fill-opacity:1;fill-rule:nonzero;stroke:none"
         d="m 1360.09,1315.44 -5.95,9.92 c -5.39,-3.12 -7.37,-10.2 -3.97,-15.59 3.12,-5.67 10.2,-7.37 15.59,-4.25 l -5.67,9.92 z m 33.45,26.93 c -12.76,-3.69 -26.08,-9.36 -39.4,-17.01 l 11.62,-19.84 c 11.34,6.52 22.96,11.62 34.3,15.02 l -6.52,21.83 z m 61.23,2.55 c -18.14,5.1 -39.4,3.97 -61.23,-2.55 l 6.52,-21.83 c 17.86,5.39 34.58,6.24 48.75,2.27 l 5.96,22.11 z m -3.12,-11.05 3.12,11.05 c -5.96,1.7 -12.48,-1.98 -13.89,-7.94 -1.7,-6.23 1.7,-12.47 7.93,-14.17 l 2.84,11.06 z m 48.75,-24.38 c -10.48,18.42 -26.36,30.04 -45.63,35.43 l -5.96,-22.11 c 13.33,-3.69 24.38,-11.91 32.04,-24.66 l 19.55,11.34 z m 8.79,-20.7 c -2.27,7.66 -5.1,14.46 -8.79,20.7 l -19.55,-11.34 c 2.55,-4.54 4.81,-9.92 6.52,-15.59 l 21.82,6.23 z m 28.07,-57.54 c -11.34,15.02 -20.98,34.02 -28.07,57.54 l -21.82,-6.23 c 7.93,-26.65 18.7,-48.19 31.74,-65.2 l 18.15,13.89 z m 87.59,-48.19 c -33.74,3.97 -64.63,18.14 -87.59,48.19 l -18.15,-13.89 c 27.22,-35.72 63.5,-52.16 102.9,-56.98 l 2.84,22.68 z m 109.13,12.76 c -36,-10.77 -74.27,-17.01 -109.13,-12.76 l -2.84,-22.68 c 38.55,-4.81 79.94,1.99 118.49,13.61 l -6.52,21.83 z m 149.67,69.73 c -2.84,-2.27 -70.58,-46.2 -149.67,-69.73 l 6.52,-21.83 c 82.49,24.38 153.92,70.87 157.04,73.42 l -13.89,18.14 z m 7.09,-9.07 -9.93,-5.95 c 3.41,-5.39 10.49,-7.09 15.88,-3.69 5.38,3.12 7.08,10.21 3.68,15.59 l -9.63,-5.95 z m -230.46,201.54 c 74.55,-27.49 149.38,-92.41 220.53,-207.49 l 19.56,11.9 c -74.26,119.91 -153.07,187.66 -232.15,217.14 l -7.94,-21.55 z m -252.85,-30.61 c 81.07,45.35 167.24,62.36 252.85,30.61 l 7.94,21.55 c -92.7,34.3 -185.11,16.15 -272.13,-32.04 l 11.34,-20.12 z m -66.33,-59.25 c 3.68,16.16 22.96,35.15 66.33,59.25 l -11.34,20.12 c -49.61,-27.78 -72.57,-51.87 -77.39,-74.55 l 22.4,-4.82 z m 26.36,-43.93 c -18.43,15.3 -29.48,29.48 -26.36,43.93 l -22.4,4.82 c -5.38,-24.66 9.36,-45.63 34.02,-66.33" /><path
         id="path52"
         style="fill:#863a1f;fill-opacity:1;fill-rule:nonzero;stroke:none"
         d="m 1360.09,1315.44 c -43.09,36 -51.31,70.3 41.67,121.89 156.76,87.59 331.94,72.85 488.98,-180.85 -6.81,-5.1 -321.74,-209.2 -392.32,29.2 -17.29,57.82 -78.24,64.63 -138.33,29.76" /><path
         id="path54"
         style="fill:#da5840;fill-opacity:1;fill-rule:nonzero;stroke:none"
         d="m 1772.81,1320.54 c -43.37,61.51 -185.1,110.84 -325.7,58.96 200.69,-19.27 170.08,-178.57 325.7,-58.96" /><path
         id="path56"
         style="fill:#4b1d17;fill-opacity:1;fill-rule:nonzero;stroke:none"
         d="m 1440.31,1361.64 c 145.98,59.25 280.63,5.11 374.17,-73.98 -93.54,123.03 -343.27,184.82 -374.17,73.98" /><path
         id="path58"
         style="fill:#000000;fill-opacity:1;fill-rule:nonzero;stroke:none"
         d="m 1387.3,1421.18 -4.54,10.77 c -5.66,-2.56 -8.5,-9.07 -6.23,-15.02 2.55,-5.96 9.07,-8.52 15.02,-6.25 l -4.25,10.5 z m 192.76,120.46 c -56.41,-46.76 -122.74,-79.08 -197.3,-109.69 l 8.79,-21.27 c 76.25,31.47 144.57,64.93 203.25,113.39 l -14.74,17.57 z m 139.46,195.04 c -36,-87.89 -83.05,-148.55 -139.46,-195.04 l 14.74,-17.57 c 58.96,48.75 108.28,112.25 145.98,203.81 l -21.26,8.8 z m 11.34,10.2 c 3.97,-1.7 -7.37,-0.86 -11.34,-10.2 l 21.26,-8.8 c 10.2,24.94 8.79,36 -1.13,40.25 l -8.79,-21.25 z m -7.65,-7.09 c 5.66,3.41 5.1,8.21 7.65,7.09 l 8.79,21.25 c -8.22,3.41 -17.01,-1.98 -28.35,-8.79 l 11.91,-19.55 z m -10.21,-5.95 c 3.4,1.7 6.8,3.96 10.21,5.95 l -11.91,19.55 c -2.83,-1.7 -5.67,-3.39 -9.64,-5.66 l 11.34,-19.84 z m -235.84,-96.95 c 90.42,28.06 177.45,63.79 235.84,96.95 l -11.34,19.84 c -57.26,-32.32 -142.58,-67.19 -231.3,-94.97 l 6.8,-21.82 z m -240.1,-51.87 c 70.02,5.95 156.48,25.79 240.1,51.87 l -6.8,21.82 c -82.21,-25.78 -166.97,-45.07 -235.28,-50.74 l 1.98,-22.95 z m -1.13,11.34 8.79,7.64 c -3.97,4.82 -11.34,5.39 -16.16,1.14 -4.82,-3.96 -5.39,-11.34 -1.13,-16.16 l 8.5,7.38 z m 60.94,-44.8 c -19.55,18.43 -38.26,36 -52.15,52.44 l -17.29,-15.02 c 14.74,-17.28 34.01,-35.43 53.85,-54.14 l 15.59,16.72 z m 101.2,-126.99 c -13.32,44.79 -58.96,87.59 -101.2,126.99 l -15.59,-16.72 c 39.97,-37.41 83.06,-77.95 94.96,-116.79" /><path
         id="path60"
         style="fill:#dcdcd6;fill-opacity:1;fill-rule:nonzero;stroke:none"
         d="m 1387.3,1421.18 c -18.99,62.07 -107.15,123.59 -151.37,175.18 144,11.91 360,84.46 471.4,147.39 23.81,13.34 38.84,27.79 22.68,-11.62 -73.7,-179.15 -192.19,-248.88 -342.71,-310.95" /><path
         id="path62"
         style="fill:#e8e8e1;fill-opacity:1;fill-rule:nonzero;stroke:none"
         d="m 1328.05,1500.83 c -23.52,37.7 -65.75,64.91 -91.27,94.68 l -0.57,1.13 c 144,11.91 360,84.19 471.13,147.12 13.89,7.94 24.66,15.87 28.34,13.61 -108,-141.17 -267.31,-204.95 -407.63,-256.54" /><path
         id="path64"
         style="fill:#000000;fill-opacity:1;fill-rule:nonzero;stroke:none"
         d="m 544.277,1409.55 3.969,10.77 c 5.949,-2.27 8.789,-8.79 6.801,-14.74 -2.27,-5.95 -9.07,-8.79 -15.02,-6.52 l 4.25,10.49 z m -196.16,115.09 c 57.828,-45.07 125.008,-75.69 200.129,-104.32 l -8.219,-21.26 c -77.101,29.2 -146.269,60.66 -206.082,107.43 l 14.172,18.15 z m -144.851,191.05 c 38.55,-86.74 87.031,-146.27 144.851,-191.05 l -14.172,-18.15 c -60.379,47.06 -111.398,109.42 -151.648,199.85 l 20.969,9.35 z m -11.621,9.92 c -3.969,-1.7 7.652,-0.85 11.621,-9.92 l -20.969,-9.35 c -10.781,24.66 -9.641,35.71 0,40.25 l 9.348,-20.98 z m 7.941,-6.8 c -5.961,3.12 -5.391,7.94 -7.941,6.8 l -9.348,20.98 c 8.219,3.4 17,-1.42 28.629,-7.94 l -11.34,-19.84 z m 10.199,-5.67 c -3.121,1.7 -6.801,3.69 -10.199,5.67 l 11.34,19.84 c 2.832,-1.7 5.949,-3.4 9.629,-5.38 l -10.77,-20.13 z m 238.68,-90.42 c -91.277,25.51 -179.149,58.96 -238.68,90.42 l 10.77,20.13 c 58.109,-30.9 144.57,-63.5 234.152,-88.73 l -6.242,-21.82 z m 241.512,-45.08 c -70.301,3.69 -157.321,21.26 -241.512,45.08 l 6.242,21.82 c 82.77,-23.24 168.09,-40.53 236.398,-44.22 l -1.128,-22.68 z m 0.57,11.34 -9.07,7.09 c 3.968,5.1 11.339,5.67 16.148,1.7 5.109,-3.97 5.672,-11.05 1.711,-15.87 l -8.789,7.08 z m -59.813,-46.49 c 18.993,18.71 37.411,37.14 50.743,53.58 l 17.859,-14.17 c -14.18,-17.86 -32.891,-36.57 -52.449,-55.85 l -16.153,16.44 z m -97.519,-129.82 c 12.191,45.07 56.699,89.01 97.519,129.82 l 16.153,-16.44 c -38.832,-38.55 -80.782,-80.22 -91.551,-119.33" /><path
         id="path66"
         style="fill:#dcdcd6;fill-opacity:1;fill-rule:nonzero;stroke:none"
         d="m 544.277,1409.55 c 17.008,62.65 103.75,126.43 146.27,179.43 -144.289,7.94 -362.27,74.27 -475.371,134.08 -24.102,12.76 -39.399,26.65 -22.399,-12.19 78.809,-176.88 199,-243.49 351.5,-301.32" /><path
         id="path68"
         style="fill:#e8e8e1;fill-opacity:1;fill-rule:nonzero;stroke:none"
         d="m 600.969,1490.91 c 22.679,37.98 64.058,66.61 88.719,96.94 l 0.57,1.13 c -144.278,7.95 -361.981,74.28 -475.09,134.09 -13.891,7.37 -24.938,15.3 -28.34,12.75 111.68,-138.04 272.692,-197.29 414.141,-244.91" /><path
         id="path70"
         style="fill:#000000;fill-opacity:1;fill-rule:nonzero;stroke:none"
         d="m 1175.84,605.645 c 62.64,-19.278 113.39,-34.868 147.68,0.851 l 16.44,-15.871 c -43.94,-45.641 -100.91,-28.348 -170.92,-6.809 l 6.8,21.829 z m -172.36,30.902 c 64.63,2.269 121.9,-15.313 172.36,-30.902 l -6.8,-21.829 c -48.49,15.032 -104.04,32.032 -164.7,29.77 l -0.86,22.961 z m -149.945,-31.18 c 41.949,13.598 89.289,28.629 149.945,31.18 l 0.86,-22.961 c -57.266,-2.27 -103.184,-17.012 -144.004,-30.051 l -6.801,21.832 z m -165.539,-1.422 c 57.82,-33.168 106.008,-17.859 165.539,1.422 l 6.801,-21.832 c -64.629,-20.687 -117.07,-37.699 -183.961,0.852 l 11.621,19.558 z m -64.922,53.86 c 20.41,-21.258 35.153,-36.571 64.922,-53.86 l -11.621,-19.558 c -32.32,18.711 -48.191,35.148 -69.738,57.539 l 16.437,15.879 z m -58.109,56.121 c 26.93,-23.238 43.941,-41.102 58.109,-56.121 l -16.437,-15.879 c -14.172,15.031 -30.891,32.32 -56.692,54.711 l 15.02,17.289 z m -116.5,75.969 c 37.699,-20.688 78.801,-43.368 116.5,-75.969 l -15.02,-17.289 c -35.718,30.898 -75.679,53.008 -112.25,73.14 l 10.77,20.118 z m -108.57,202.679 c -40.25,-120.758 25.511,-156.758 108.57,-202.679 l -10.77,-20.118 c -92.691,51.02 -165.55,91.27 -119.621,229.891 l 21.821,-7.094 z m 61.511,127.566 c -30.043,-58.11 -54.14,-105.18 -61.511,-127.566 l -21.821,7.094 c 8.223,24.652 32.59,72.002 62.93,130.962 l 20.402,-10.49 z m 153.641,342.41 C 522.445,1355.98 453.285,1221.32 401.406,1120.14 l -20.402,10.49 c 51.301,100.33 120.18,234.14 152.223,338.44 l 21.82,-6.52 z M 526.707,1642 c 57.258,-17.29 56.117,-88.73 28.34,-179.45 l -21.82,6.52 c 23.808,78.25 27.488,138.63 -13.043,151.1 l 6.523,21.83 z m -3.121,-10.79 10.769,-3.1 c -1.699,-6.24 -7.941,-9.65 -14.171,-7.94 -5.957,1.97 -9.36,8.22 -7.661,14.17 l 11.063,-3.13 z m 20.41,15.89 c -3.973,-4.82 -7.09,-11.06 -9.641,-18.99 l -21.832,6.23 c 3.122,11.05 7.942,20.12 13.614,26.93 l 17.859,-14.17 z m 16.438,10.77 c -6.239,-1.42 -11.911,-5.1 -16.438,-10.77 l -17.859,14.17 c 7.648,9.92 17.57,16.16 28.91,18.71 l 5.387,-22.11 z m 22.679,-1.14 c -8.218,2.27 -15.879,2.84 -22.679,1.14 l -5.387,22.11 c 10.488,2.84 22.398,2.27 34.59,-1.43 l -6.524,-21.82 z m 32.594,-18.43 c -11.051,9.08 -22.113,15.32 -32.594,18.43 l 6.524,21.82 c 13.027,-3.96 26.918,-11.34 40.527,-22.38 l -14.457,-17.87 z m 7.367,9.08 7.09,-9.08 c -5.098,-3.96 -12.187,-3.11 -16.16,2 -3.969,4.81 -3.109,12.18 1.992,15.87 l 7.078,-8.79 z m 352.071,50.17 c -30.622,10.77 -186.239,65.2 -344.981,-59.25 l -14.168,17.87 c 168.379,132.09 334.199,74.27 366.52,62.93 l -7.371,-21.55 z m 4.82,-1.41 c -0.852,0 -2.559,0.84 -4.82,1.41 l 7.371,21.55 c 1.699,-0.57 3.121,-0.85 3.968,-1.14 l -6.519,-21.82 z m 3.109,10.77 3.692,-10.77 c -6.243,-2 -12.469,1.41 -14.461,7.37 -1.981,5.95 1.422,12.47 7.371,14.45 l 3.398,-11.05 z m 7.66,-9.36 c -1.699,-0.57 -2.839,-1.13 -3.968,-1.41 l -7.09,21.82 c 0.289,0 0.57,0.29 2.269,0.86 l 8.789,-21.27 z m 341.566,-41.38 c -162.71,116.79 -317.48,51.59 -341.566,41.38 l -8.789,21.27 c 25.805,10.77 190.485,80.22 363.695,-43.94 l -13.34,-18.71 z m 6.52,9.35 7.66,-8.5 c -4.82,-4.25 -11.91,-3.7 -16.16,0.85 -4.25,4.82 -3.68,11.91 0.86,16.16 l 7.64,-8.51 z m 41.11,11.62 c -10.77,-3.41 -22.11,-10.2 -33.45,-20.12 l -15.3,17.01 c 13.89,12.18 28.05,20.41 41.66,24.93 l 7.09,-21.82 z m 21.82,1.99 c -6.52,1.42 -13.89,0.85 -21.82,-1.99 l -7.09,21.82 c 11.62,3.98 22.96,4.83 33.46,2.56 l -4.55,-22.39 z m 16.16,-9.65 c -4.53,5.4 -10.2,8.52 -16.16,9.65 l 4.55,22.39 c 11.04,-2.26 20.68,-7.93 28.91,-17 l -17.3,-15.04 z m 9.93,-18.41 c -2.55,7.64 -5.95,13.89 -9.93,18.41 l 17.3,15.04 c 5.95,-6.81 10.77,-15.59 14.45,-26.38 l -21.82,-7.07 z m 11.05,3.39 -3.96,10.77 c 5.95,1.98 12.46,-0.84 14.73,-6.79 1.98,-5.96 -1.14,-12.48 -7.09,-14.74 l -3.68,10.76 z m -23.53,-176.32 c -33.45,92.71 -38.54,166.12 19.57,187.09 l 7.64,-21.53 c -41.66,-15.03 -34.57,-77.4 -5.39,-157.9 l -21.82,-7.66 z m 140.89,-291.95 c -50.75,94.67 -108.57,202.95 -140.89,291.95 l 21.82,7.66 c 31.48,-87.59 89.02,-195.02 139.48,-288.84 l -20.41,-10.77 z m 95.23,-200.706 c -6.52,35.446 -47.62,111.976 -95.23,200.706 l 20.41,10.77 c 48.47,-90.43 90.41,-168.66 97.23,-207.503 l -22.41,-3.973 z M 1552,830.715 c 65.18,37.703 115.07,66.621 99.48,154.769 l 22.41,3.973 c 18.7,-103.75 -37.14,-136.352 -110.28,-178.582 l -11.61,19.84 z m -98.93,-66.899 c 33.16,28.918 67.75,48.758 98.93,66.899 l 11.61,-19.84 c -30.32,-17.578 -64.06,-36.848 -95.52,-64.348 l -15.02,17.289 z m -68.61,-65.761 c 19.56,22.679 42.25,43.09 68.61,65.761 l 15.02,-17.289 c -25.79,-22.113 -47.91,-41.953 -66.34,-63.211 l -17.29,14.739 z m -49.03,-80.5 c 12.75,32.312 29.2,57.543 49.03,80.5 l 17.29,-14.739 c -18.14,-21.261 -33.16,-44.5 -45.07,-73.992 l -21.25,8.231 z m 10.48,-4.258 -8.21,7.937 c 4.53,4.543 11.62,4.821 16.16,0.571 4.8,-4.539 4.8,-11.617 0.55,-16.16 l -8.5,7.652 z m -22.39,-6.801 14.18,14.738 16.71,-15.589 -14.45,-15.02" /><path
         id="path72"
         style="fill:#863a1f;fill-opacity:1;fill-rule:nonzero;stroke:none"
         d="m 1331.74,598.559 14.17,14.742 c 24.95,62.078 62.65,96.949 114.52,141.73 105.45,91.559 227.06,93.828 202.11,232.438 -20.41,114.811 -373.04,613.141 -223.65,667.001 -15.59,47.33 -59.24,46.77 -100.06,11.05 -178.59,128.13 -347.529,43.94 -355.748,41.39 -15.312,4.53 -185.949,76.82 -360,-59.53 -41.949,33.73 -85.32,32.03 -99.5,-16.16 145.141,-44.5 -162.422,-538.3 -194.449,-635.24 -61.524,-184.25 104.879,-183.691 228.18,-290.55 64.917,-56.41 72.57,-81.071 125.007,-111.121 104.032,-60.098 174.621,25.23 321.45,30.613 147.12,5.668 259.66,-97.231 327.97,-26.363" /><path
         id="path74"
         style="fill:#000000;fill-opacity:1;fill-rule:nonzero;stroke:none"
         d="m 671.887,1338.31 c -44.492,0 -125.961,-9.11 -171.742,-70.14 -36.18,-48.22 -41.27,-118.15 -15.129,-207.83 0.711,-2.48 0.558,-5.13 -0.45,-7.5 -31.171,-73.539 -31.613,-149.531 -1.211,-208.5 26.258,-50.922 73.918,-86.313 134.2,-99.629 5.39,-1.191 9.109,-6.133 8.761,-11.633 -0.261,-4.308 -0.261,-8.89 -0.261,-13.187 0.84,-75.114 31.16,-175.5 87.48,-221.813 12.59,-10.437 28.719,-15.5 49.34,-15.5 31.891,0 69.84,11.781 110.012,24.242 43,13.34 87.468,27.129 129.273,27.809 l 3.04,0.031 c 40.73,0 82.91,-13.871 123.71,-27.301 36.23,-11.929 70.45,-23.179 99.34,-23.179 18.16,0 32.64,4.558 44.3,13.968 59.95,48.09 94.81,164.282 93.93,248.832 -0.02,1.489 -0.07,2.93 -0.14,4.387 -0.07,1.863 -0.16,3.75 -0.16,5.653 0,5.179 3.57,9.691 8.62,10.878 65.81,15.661 115.88,52.672 141.02,104.231 26.95,55.32 24,124.519 -8.3,194.861 -1.09,2.36 -1.31,5.01 -0.66,7.51 23.41,89.41 16.78,158.68 -19.68,205.9 -45.02,58.33 -123.09,67.05 -165.61,67.05 -73.3,0 -137.21,-24.37 -156.66,-47.92 -3.09,-3.76 -8.27,-5.07 -12.78,-3.28 -53.31,21.28 -106.81,32.55 -159.044,33.51 l -2.07,0 c -51.25,-2.22 -104.371,-14.98 -157.411,-37.92 -4.449,-1.93 -9.652,-0.76 -12.859,2.89 -18.551,21.13 -77.019,43.58 -148.859,43.58 m 90.988,-878.122 c -26.051,0 -46.852,6.75 -63.602,20.621 -64.437,52.992 -94.738,161.019 -95.609,238.949 0,1.742 0,3.5 0.012,5.25 -62.621,16.25 -112.199,54.722 -140.223,109.07 -32.949,63.883 -33.277,145.262 -1.039,223.812 -26.949,95.01 -20.277,170.26 19.82,223.72 51.629,68.82 140.981,79.09 189.653,79.09 66.367,0 130.168,-18.35 159.879,-45.31 53.218,22.15 106.597,34.51 158.769,36.75 l 2.75,0.01 c 52.805,-0.96 106.535,-11.83 160.015,-32.3 30.43,29.31 98.99,49.99 168.27,49.99 46.63,0 132.47,-9.85 183.34,-75.76 40.38,-52.29 48.64,-126.76 24.61,-221.39 33.59,-75.323 35.89,-149.881 6.41,-210.362 -26.95,-55.32 -78.97,-95.551 -147.09,-113.961 0.02,-0.429 0.02,-0.859 0.02,-1.277 0.8,-75.82 -30.4,-208.723 -102.27,-266.391 -15.77,-12.73 -34.88,-18.91 -58.34,-18.91 -32.48,0 -68.36,11.801 -106.34,24.301 -39.11,12.871 -79.57,26.18 -116.71,26.18 l -2.65,-0.02 C 963.926,511.617 921.016,498.309 879.523,485.43 837.684,472.461 798.156,460.188 762.875,460.188" /><path
         id="path76"
         style="fill:#fad4c5;fill-opacity:1;fill-rule:nonzero;stroke:none"
         d="m 993.285,1340.95 -2.269,0 c -46.203,-1.98 -100.911,-12.47 -161.864,-38.82 -65.187,74.25 -456.66,104.3 -354.886,-244.93 -63.223,-149.098 -1.422,-291.966 140.879,-323.427 -0.29,-4.539 -0.29,-9.359 -0.29,-13.89 0.86,-75.692 30.899,-180.57 91.559,-230.461 66.051,-54.707 192.481,32.32 295.946,34.019 98.07,1.704 212.87,-85.886 277.23,-34.019 66.04,53.012 98.93,177.453 98.07,257.672 0,3.121 -0.28,6.519 -0.28,9.918 145.41,34.59 208.91,165.261 140.32,314.648 92.12,352.06 -298.5,311.24 -361.43,234.99 -61.79,24.66 -116.5,33.45 -162.985,34.3" /><path
         id="path78"
         style="fill:#000000;fill-opacity:1;fill-rule:nonzero;stroke:none"
         d="m 746.672,1220.48 c 53.289,-60.38 63.777,-138.9 23.238,-175.46 -40.531,-36.57 -116.781,-17.3 -170.359,43.37 -53.571,60.37 -63.781,138.89 -23.242,175.46 40.531,36.28 116.793,17.01 170.363,-43.37" /><path
         id="path80"
         style="fill:#391f17;fill-opacity:1;fill-rule:nonzero;stroke:none"
         d="m 712.086,1160.95 c -2.828,17.86 1.699,40.25 17.859,49.89 6.524,3.68 14.172,3.97 22.114,3.12 -1.704,2.27 -3.403,4.25 -5.391,6.52 -53.57,60.38 -129.82,79.65 -170.359,43.37 -40.532,-36.57 -30.332,-115.09 23.238,-175.47 53.582,-60.66 129.832,-79.93 170.371,-43.37 5.668,5.11 10.199,11.06 13.891,17.58 -34.024,23.53 -65.204,58.11 -71.723,98.36" /><path
         id="path82"
         style="fill:#57281a;fill-opacity:1;fill-rule:nonzero;stroke:none"
         d="m 716.621,1078.18 c -21.828,22.96 -45.348,53.29 -45.641,86.74 -0.847,45.92 32.032,66.05 67.473,64.06 -52.73,53.58 -123.59,69.45 -162.14,34.87 -40.54,-36.57 -30.34,-115.09 23.238,-175.47 50.172,-56.97 120.472,-77.38 162.422,-49.32 -16.153,11.62 -31.743,24.66 -45.352,39.12" /><path
         id="path84"
         style="fill:#863a1f;fill-opacity:1;fill-rule:nonzero;stroke:none"
         d="m 673.535,1078.75 c -24.66,31.46 -47.34,73.98 -41.39,115.65 6.519,43.94 45.363,53.58 84.761,53.86 -49.32,37.7 -107.148,45.64 -140.601,15.59 -40.528,-36.56 -30.328,-115.08 23.25,-175.46 37.98,-43.09 87.59,-65.2 127.84,-61.23 -20.129,14.74 -38.547,32.03 -53.86,51.59" /><path
         id="path86"
         style="fill:#000000;fill-opacity:1;fill-rule:nonzero;stroke:none"
         d="m 719.457,1022.62 c -40.82,-0.57 -87.871,23.53 -122.738,62.93 -26.364,29.76 -43.371,64.91 -47.91,98.93 -4.532,34.58 4.257,63.78 24.949,82.2 13.609,12.48 32.027,19.28 53.008,19.56 40.82,0.57 87.871,-23.81 122.742,-63.21 54.988,-61.8 65.187,-143.15 22.961,-181.13 -13.891,-12.19 -32.031,-19 -53.012,-19.28 m -92.691,255.68 c -19,-0.28 -35.438,-6.23 -47.911,-17.57 -18.707,-16.72 -26.636,-43.37 -22.386,-75.12 4.25,-32.6 20.687,-66.05 45.918,-94.68 33.449,-37.7 78.242,-60.94 117.07,-60.37 18.988,0.28 35.43,6.23 47.91,17.29 38.828,35.15 28.34,111.4 -23.531,170.08 -33.449,37.7 -78.238,60.94 -117.07,60.37" /><path
         id="path88"
         style="fill:#000000;fill-opacity:1;fill-rule:nonzero;stroke:none"
         d="m 1236.21,1227.29 c -51.87,-61.81 -60.09,-140.89 -18.43,-176.04 41.67,-35.43 117.36,-13.89 168.95,47.9 51.87,61.8 60.09,140.6 18.42,176.05 -41.38,35.43 -117.35,13.89 -168.94,-47.91" /><path
         id="path90"
         style="fill:#391f17;fill-opacity:1;fill-rule:nonzero;stroke:none"
         d="m 1272.21,1168.89 c 2.55,17.57 -2.55,39.97 -19.28,49.04 -6.52,3.68 -14.17,3.68 -22.11,2.55 1.99,2.27 3.41,4.54 5.39,6.8 51.59,61.8 127.56,83.34 168.94,47.91 41.67,-35.43 33.45,-114.24 -18.42,-176.03 -51.59,-61.8 -127.28,-83.34 -168.95,-47.91 -5.95,4.82 -10.48,10.77 -14.45,17.29 33.16,24.38 63.49,59.81 68.88,100.35" /><path
         id="path92"
         style="fill:#57281a;fill-opacity:1;fill-rule:nonzero;stroke:none"
         d="m 1269.95,1085.84 c 21.25,23.8 43.94,54.43 43.37,88.16 -0.57,45.91 -33.73,64.91 -69.18,62.07 51.31,55 121.61,72.86 161.02,39.11 41.66,-35.43 33.45,-114.22 -18.43,-176.02 -48.48,-58.11 -118.21,-80.5 -161,-53.86 15.86,12.18 30.9,25.79 44.22,40.54" /><path
         id="path94"
         style="fill:#863a1f;fill-opacity:1;fill-rule:nonzero;stroke:none"
         d="m 1313.32,1087.82 c 23.52,31.75 45.07,75.12 37.98,116.5 -7.66,43.94 -46.78,52.16 -86.17,51.31 48.19,39.12 105.73,48.76 140.03,19.56 41.66,-35.43 33.45,-114.24 -18.43,-176.03 -36.84,-44.22 -85.89,-67.47 -125.85,-64.63 19.55,15.31 37.69,33.16 52.44,53.29" /><path
         id="path96"
         style="fill:#000000;fill-opacity:1;fill-rule:nonzero;stroke:none"
         d="m 1268.81,1030.28 c 40.82,0.57 87.31,25.79 121.04,66.33 25.51,30.6 41.67,66.05 45.07,100.05 3.69,34.6 -5.95,63.5 -27.21,81.64 -14.18,11.91 -32.6,18.15 -53.58,17.87 -40.82,-0.57 -87.02,-26.08 -121.04,-66.33 -53,-63.5 -60.94,-144.86 -17.85,-181.7 14.17,-11.91 32.59,-18.14 53.57,-17.86 m 85.61,257.95 c 18.99,0.29 35.71,-5.1 48.19,-16.16 19.27,-16.16 27.77,-42.52 24.66,-74.55 -3.4,-32.59 -19,-66.61 -43.37,-95.81 -32.32,-38.83 -76.54,-63.21 -115.09,-63.5 -18.99,-0.28 -35.72,5.11 -48.47,15.88 -39.97,34.02 -31.47,110.55 18.71,170.64 32.59,38.56 76.53,62.94 115.37,63.5" /><path
         id="path98"
         style="fill:#000000;fill-opacity:1;fill-rule:nonzero;stroke:none"
         d="m 647.457,1807.54 c 1.422,0 2.551,0 3.68,-0.28 20.41,27.49 57.832,45.92 101.199,46.2 25.512,0.27 49.043,-5.67 68.602,-16.16 14.738,12.75 32.597,22.68 53.007,29.2 17.864,33.73 59.532,57.54 108.852,58.11 56.973,0.57 105.163,-30.33 117.643,-72.29 21.54,19.84 53.57,32.61 89.29,33.16 65.76,0.57 119.9,-40.82 121.04,-92.41 l 0,-3.68 c 65.76,0.57 119.9,-40.53 120.75,-92.41 1.14,-51.87 -51.59,-94.38 -117.63,-94.95 -60.38,-0.57 -110.84,34.01 -119.34,79.93 -20.7,-27.5 -58.11,-45.92 -101.2,-46.2 -32.03,-0.57 -61.51,9.06 -83.06,24.95 -22.673,-11.07 -49.321,-17.86 -77.954,-18.16 l -1.981,0 c -18.429,-32.02 -59.25,-54.41 -106.867,-54.98 -45.922,-0.28 -85.89,19.56 -106.582,49.04 -18.711,-10.2 -41.39,-16.44 -66.051,-16.44 -65.757,-0.85 -119.898,40.54 -120.75,92.13 -1.136,51.86 51.59,94.39 117.352,95.24" /><path
         id="path100"
         style="fill:#000000;fill-opacity:1;fill-rule:nonzero;stroke:none"
         d="m 997.254,1041.33 c 235.556,0 278.646,-292.818 278.646,-422.928 0,-129.832 -116.51,-3.402 -270.43,-3.402 -153.919,0 -286.579,-126.43 -286.579,3.402 0,130.11 42.8,422.928 278.363,422.928" /><path
         id="path102"
         style="fill:#ff0000;fill-opacity:1;fill-rule:nonzero;stroke:none"
         d="m 1267.68,725.551 c 5.95,-40.539 8.22,-77.949 8.22,-107.149 0,-129.832 -116.5,-3.398 -270.42,-3.398 -153.933,0 -286.593,-126.434 -286.593,3.398 0,31.75 2.551,72.852 9.64,117.352 80.5,46.207 262.211,54.148 274.393,-0.563 18.15,61.789 191.91,52.442 264.76,-9.64" /><path
         id="path104"
         style="fill:#fdfdfd;fill-opacity:1;fill-rule:nonzero;stroke:none"
         d="m 1124.81,1001.64 c 13.04,-9.066 25.23,-18.984 36.85,-29.753 -11.62,-3.692 -23.81,-7.09 -36.28,-9.93" /><path
         id="path106"
         style="fill:#fdfdfd;fill-opacity:1;fill-rule:nonzero;stroke:none"
         d="m 832.844,970.75 c 14.168,14.457 29.758,27.777 46.769,38.55 l 0.571,-50.741 c -16.442,3.398 -32.321,7.371 -47.34,12.191" /><path
         id="path108"
         style="fill:#fdfdfd;fill-opacity:1;fill-rule:nonzero;stroke:none"
         d="m 994.133,1045.02 5.101,0 c 0,-0.86 0.289,-1.98 0.289,-2.83 l 0.557,-94.682 c -40.525,-0.293 -79.646,3.398 -115.646,10.199 l -0.852,54.433 c 32.883,20.41 70.301,32.88 110.551,32.88" /><path
         id="path110"
         style="fill:#fdfdfd;fill-opacity:1;fill-rule:nonzero;stroke:none"
         d="m 1006.04,1044.73 c 40.54,-2.55 79.37,-17.29 113.95,-39.97 l -0.28,-43.936 -3.12,-0.851 -1.7,-0.282 -1.7,-0.277 c -1.42,-0.57 -3.12,-0.851 -4.82,-1.141 l -0.28,0 -1.7,-0.281 -4.54,-0.847 -0.57,-0.282 -1.7,-0.289 -3.4,-0.562 -1.7,-0.289 -1.7,-0.282 c -1.7,-0.277 -3.12,-0.57 -4.82,-0.847 l -0.28,0 -1.7,-0.289 c -1.7,-0.282 -3.4,-0.563 -5.11,-0.852 l -1.98,0 -5.1,-0.851 -1.7,-0.278 c -1.99,-0.281 -3.69,-0.281 -5.39,-0.57 l -1.7,-0.281 c -1.98,-0.282 -3.68,-0.282 -5.39,-0.571 l -1.98,-0.281 c -1.7,0 -3.4,-0.277 -5.1,-0.566 l -1.99,0 c -1.7,-0.282 -3.68,-0.282 -5.38,-0.563 l -1.99,0 c -1.7,-0.289 -3.4,-0.289 -5.38,-0.57 l -1.7,0 c -4.82,-0.277 -9.92,-0.57 -14.74,-0.848 -1.99,0 -3.69,-0.281 -5.67,-0.281 l -1.7,0 c -2.55,0 -5.11,-0.289 -7.66,-0.289 l -2.55,85.886 c 0,3.97 0.85,7.94 2.27,11.34" /><path
         id="path112"
         style="fill:#000000;fill-opacity:1;fill-rule:nonzero;stroke:none"
         d="m 793.727,934.465 c 43.089,65.48 107.718,112.825 203.527,112.825 l 0,-12.2 c -91.559,0 -153.359,-45.344 -194.457,-107.715 l -9.07,7.09 z m -80.5,-316.059 c 0,79.078 15.867,217.981 80.5,316.059 l 9.07,-7.09 c -62.934,-95.52 -78.524,-231.59 -78.524,-308.969 l -11.046,0 z m 47.046,-64.633 c -29.757,0 -47.046,16.153 -47.046,64.633 l 11.046,0 c 0,-39.402 13.321,-52.441 36,-52.441 l 0,-12.192 z m 84.473,20.973 c -33.73,-11.34 -62.359,-20.973 -84.473,-20.973 l 0,12.192 c 20.411,0 48.473,9.351 81.071,20.41 l 3.402,-11.629 z m 160.734,34.301 c -58.683,0 -114.527,-18.711 -160.734,-34.301 l -3.402,11.629 c 47.062,15.59 103.75,34.859 164.136,34.859 l 0,-12.187 z m 158.16,-35.434 c -43.94,15.871 -98.35,35.434 -158.16,35.434 l 0,12.187 c 61.79,0 117.07,-19.839 161.57,-36 l -3.41,-11.621 z m 75.13,-19.84 c -19.57,0 -45.07,9.071 -75.13,19.84 l 3.41,11.621 c 29.47,-10.488 53.86,-19.269 71.72,-19.269 l 0,-12.192 z m 42.52,64.633 c 0,-48.48 -15.31,-64.633 -42.52,-64.633 l 0,12.192 c 20.12,0 31.46,13.039 31.46,52.441 l 11.06,0 z m -80.22,316.059 c 64.63,-98.078 80.22,-236.981 80.22,-316.059 l -11.06,0 c 0,77.379 -15.3,213.449 -78.53,308.969 l 9.37,7.09 z M 997.254,1047.29 c 95.816,0 160.726,-47.345 203.816,-112.825 l -9.37,-7.09 c -41.09,62.371 -102.88,107.715 -194.446,107.715" /><path
         id="path114"
         style="fill:#000000;fill-opacity:1;fill-rule:nonzero;stroke:none"
         d="m 860.906,1509.33 c -100.351,29.2 -152.218,27.78 -225.64,20.69 35.441,22.68 128.41,29.2 238.679,16.16 11.34,-3.4 17.289,-14.17 13.61,-24.38 -3.688,-10.2 -15.59,-15.87 -26.649,-12.47" /><path
         id="path116"
         style="fill:#000000;fill-opacity:1;fill-rule:nonzero;stroke:none"
         d="m 550.512,1381.49 c 3.398,83.91 410.461,148.82 327.121,29.48 -3.692,-5.1 -3.692,-4.82 -8.789,-4.82 -35.434,74.27 -231.024,12.76 -318.332,-24.66" /><path
         id="path118"
         style="fill:#000000;fill-opacity:1;fill-rule:nonzero;stroke:none"
         d="m 1431.52,1381.49 c -3.68,83.91 -410.74,148.82 -327.4,29.48 3.68,-5.1 3.97,-4.82 8.79,-4.82 35.43,74.27 231.02,12.76 318.61,-24.66" /><path
         id="path120"
         style="fill:#000000;fill-opacity:1;fill-rule:nonzero;stroke:none"
         d="m 470.238,1327.71 c 3.762,0 7.481,-0.51 11.039,-1.5 4.383,-1.22 8.012,-4.29 9.93,-8.41 1.934,-4.11 1.973,-8.86 0.102,-13 -0.481,-1.08 -48.641,-111.48 7.351,-197.41 13.481,-20.72 29.469,-32.13 45,-32.13 l 0,0 c 13.36,0 25.301,8.89 30.43,22.64 7.668,20.54 -1.473,44.69 -24.442,64.6 -44.468,38.55 -65.5,89.53 -57.668,139.83 4.25,27.31 16.54,52.49 35.969,74.53 -65.23,-21.3 -152.148,-52.88 -219.25,-88.77 -67.172,-35.86 -89.371,-109.15 -79.582,-148.27 1.75,-6.99 6.063,-18.72 15.301,-18.72 5.82,0 13.711,3.77 22.211,10.61 32.039,25.8 63.629,65.19 91.512,99.95 43.027,53.66 77.019,96.05 112.097,96.05 m 73.422,-283.63 0,0 c -15.312,0 -44.922,6.02 -71.133,46.3 -47.148,72.35 -32.527,155.8 -19.839,198.66 -20.11,-14.39 -46.368,-47.13 -70.227,-76.89 -28.871,-36 -61.602,-76.81 -96.281,-104.72 -14.43,-11.62 -28.481,-17.51 -41.762,-17.51 -21.891,0 -38.918,15.83 -45.551,42.34 -11.797,47.14 10.281,138.02 95.133,183.33 125.699,67.25 311.789,117.68 319.648,119.79 7.903,2.16 16.09,-2.21 18.77,-9.94 2.691,-7.73 -1.059,-16.21 -8.57,-19.44 -58.18,-24.98 -94.071,-63.5 -101.059,-108.46 -6.141,-39.47 11.102,-80.1 47.289,-111.48 33.211,-28.79 45.633,-65.83 33.231,-99.06 -9.739,-26.08 -33.141,-42.92 -59.649,-42.92" /><path
         id="path122"
         style="fill:#00caff;fill-opacity:1;fill-rule:nonzero;stroke:none"
         d="m 617.691,1420.32 c 0,0 -190.769,-51.31 -316.347,-118.49 -125.289,-66.9 -106.301,-247.75 -24.942,-182.27 81.352,65.48 151.942,205.23 200.692,191.63 0,0 -53.012,-117.93 8.508,-212.32 61.793,-94.96 157.32,3.4 74.261,75.4 -83.05,72 -74.832,189.07 57.828,246.05" /><path
         id="path124"
         style="fill:#000000;fill-opacity:1;fill-rule:nonzero;stroke:none"
         d="m 381.438,1090.49 c -12.114,-15.08 -22.512,-35.85 -26.071,-64.14 -3.902,-31.108 3.86,-43.741 7.379,-47.741 1.629,-1.847 4.281,-4.058 7.57,-4.058 2.622,0 5.282,1.398 7.469,3.922 4.539,5.238 6.289,14.218 4.789,24.637 -5.058,35.09 -8.039,61.45 -1.136,87.38 m -11.122,-147.119 0,0 c -11.64,0 -22.628,5.199 -30.949,14.621 -9.59,10.86 -19.961,32.207 -14.941,72.238 12.781,101.56 97.301,126.05 100.89,127.04 6.668,1.84 13.711,-0.92 17.372,-6.75 3.66,-5.85 3.046,-13.4 -1.5,-18.57 -36.211,-41.16 -36.442,-64.11 -27.75,-124.39 2.828,-19.677 -1.473,-37.259 -12.09,-49.509 -8.09,-9.328 -19.403,-14.68 -31.032,-14.68" /><path
         id="path126"
         style="fill:#00caff;fill-opacity:1;fill-rule:nonzero;stroke:none"
         d="m 429.473,1142.25 c 0,0 -77.95,-21.55 -89.571,-113.95 -11.629,-92.706 66.891,-84.195 58.11,-22.96 -8.789,60.93 -9.93,89.84 31.461,136.91" /><path
         id="path128"
         style="fill:#fdfdfd;fill-opacity:1;fill-rule:nonzero;stroke:none"
         d="m 437.691,1326.78 c 0,0 -143.718,-51.87 -165.539,-94.96 -21.828,-43.37 11.051,-20.98 36.563,14.17 25.797,35.44 128.976,80.79 128.976,80.79" /><path
         id="path130"
         style="fill:#fdfdfd;fill-opacity:1;fill-rule:nonzero;stroke:none"
         d="m 485.316,1295.6 c 0,0 -30.902,-102.33 -15.589,-132.66 15.308,-30.05 16.437,-2.55 7.367,26.64 -9.348,29.2 8.222,106.02 8.222,106.02" /><path
         id="path132"
         style="fill:#ffffff;fill-opacity:1;fill-rule:nonzero;stroke:none"
         d="m 361.156,1029.71 c 6.242,0 11.91,-13.04 12.192,-29.2 0.281,-16.44 -4.821,-29.483 -11.059,-29.76 -6.519,0 -11.902,13.039 -12.18,29.199 -0.293,16.441 4.528,29.481 11.047,29.761" /><path
         id="path134"
         style="fill:#ffffff;fill-opacity:1;fill-rule:nonzero;stroke:none"
         d="m 254.859,1200.64 c 12.758,-3.97 17.86,-27.21 11.911,-52.16 -6.243,-24.66 -21.262,-41.67 -34.02,-37.98 -12.473,3.97 -17.859,27.21 -11.621,52.16 5.949,24.66 21.262,41.95 33.73,37.98" /><path
         id="path136"
         style="fill:#ffffff;fill-opacity:1;fill-rule:nonzero;stroke:none"
         d="m 485.316,1152.45 c 7.649,5.1 24.661,-7.94 37.7,-28.63 13.32,-20.69 17.578,-41.67 9.64,-46.49 -7.941,-5.1 -24.953,7.94 -37.992,28.63 -13.027,20.69 -17.289,41.67 -9.348,46.49" /><path
         id="path138"
         style="fill:#000000;fill-opacity:1;fill-rule:nonzero;stroke:none"
         d="m 1647.53,1133.21 c 6.31,-27.24 1.35,-53.46 -6.59,-89.01 -2.41,-10.64 -1.22,-19.93 3.25,-25.54 4.41,-5.51 11.03,-5.72 16.39,-0.1 3.62,3.79 11.89,15.84 10.49,45.63 -1.44,30.54 -11.51,52.94 -23.54,69.02 m 4.66,-147.23 c -11.55,0 -22.54,5.469 -30.16,15 -10.02,12.56 -13.13,30.12 -8.74,49.44 12.96,58.04 14.45,80.45 -17.67,123.62 -3.74,5.02 -3.74,11.9 0,16.92 3.74,5.03 10.33,7.01 16.21,4.86 3.39,-1.24 82.91,-31.3 87.56,-130.3 1.74,-37.3 -8.99,-56.77 -18.31,-66.528 -8,-8.39 -18.27,-13.012 -28.89,-13.012" /><path
         id="path140"
         style="fill:#00caff;fill-opacity:1;fill-rule:nonzero;stroke:none"
         d="m 1606.98,1182.5 c 0,0 73.98,-26.93 78.25,-117.64 4.25,-90.422 -71.44,-76.255 -58.12,-17.57 13.05,58.39 16.16,86.45 -20.13,135.21" /><path
         id="path142"
         style="fill:#000000;fill-opacity:1;fill-rule:nonzero;stroke:none"
         d="m 1698.47,1217.76 c 7.37,-8.51 13.88,-18.7 21.23,-30.68 3.74,-6.1 7.87,-8.26 10.27,-8.26 1.21,0 1.39,0.46 1.53,0.8 0.92,2.33 0.14,11.35 -14.28,24.84 -5.94,5.51 -12.19,9.95 -18.75,13.3 m 31.5,-67.29 c -13.38,0 -25.94,7.94 -34.43,21.78 -19.23,31.35 -27.61,42.46 -61.57,47.84 -6.18,0.98 -11,5.9 -11.83,12.11 -0.84,6.2 2.5,12.23 8.21,14.8 1.55,0.7 15.7,6.83 36.06,6.83 25.7,0 49.95,-9.9 70.13,-28.63 28.63,-26.77 24.45,-48.07 21.31,-55.99 -4.48,-11.38 -15.42,-18.74 -27.88,-18.74" /><path
         id="path144"
         style="fill:#00caff;fill-opacity:1;fill-rule:nonzero;stroke:none"
         d="m 1636.18,1234.09 c 0,0 47.06,21.26 90.71,-19.28 43.65,-40.81 1.42,-68.88 -19.28,-35.15 -20.69,33.74 -32.03,48.19 -71.43,54.43" /><path
         id="path146"
         style="fill:#000000;fill-opacity:1;fill-rule:nonzero;stroke:none"
         d="m 1370.29,1413.24 -3.97,-10.2 c -5.38,1.98 -8.22,8.22 -6.23,13.88 2.26,5.67 8.5,8.51 14.17,6.52 l -3.97,-10.2 z m 85.89,-67.75 c -18.14,22.96 -44.79,40.54 -89.86,57.55 l 7.94,20.4 c 48.75,-18.7 78.23,-38.26 99.21,-64.63 l -17.29,-13.32 z m 43.09,-95.53 c -13.33,41.67 -24.38,72 -43.09,95.53 l 17.29,13.32 c 20.69,-26.36 32.6,-58.11 46.77,-102.33 l -20.97,-6.52 z m 56.41,-53.29 c -22.96,3.69 -45.93,20.7 -56.41,53.29 l 20.97,6.52 c 7.66,-23.52 23.53,-36 39.12,-38.26 l -3.68,-21.55 z m 34.58,5.11 c -10.21,-5.39 -22.4,-7.09 -34.58,-5.11 l 3.68,21.55 c 7.37,-1.42 14.74,-0.29 21.26,2.83 l 9.64,-19.27 z m 24.66,26.36 c -5.39,-12.19 -13.89,-20.98 -24.66,-26.36 l -9.64,19.27 c 5.95,3.12 11.06,8.51 14.17,15.31 l 20.13,-8.22 z m -23.53,98.64 c 29.77,-42.23 32.88,-76.25 23.53,-98.64 l -20.13,8.22 c 6.81,16.44 3.41,42.8 -21.26,77.95 l 17.86,12.47 z m -222.8,97.23 c 0.57,0 139.18,22.4 222.8,-97.23 l -17.86,-12.47 c -75.68,108.57 -201.26,88.16 -201.54,88.16" /><path
         id="path148"
         style="fill:#00caff;fill-opacity:1;fill-rule:nonzero;stroke:none"
         d="m 1370.29,1413.24 c 0,0 132.66,21.26 212.31,-92.69 79.66,-113.96 -45.07,-153.07 -72.85,-67.18 -27.77,85.6 -45.63,124.44 -139.46,159.87" /><path
         id="path150"
         style="fill:#fdfdfd;fill-opacity:1;fill-rule:nonzero;stroke:none"
         d="m 1454.77,1388.86 c 0,0 117.34,-65.48 127.27,-103.75 9.64,-37.98 -14.74,-14.74 -29.77,17.86 -15.02,32.32 -97.5,85.89 -97.5,85.89" /><path
         id="path152"
         style="fill:#ffffff;fill-opacity:1;fill-rule:nonzero;stroke:none"
         d="m 1529.6,1257.9 c 5.39,5.67 19.56,1.42 31.75,-9.64 11.9,-11.05 17.57,-24.66 12.19,-30.61 -5.39,-5.67 -19.56,-1.42 -31.47,9.64 -12.19,11.05 -17.86,24.66 -12.47,30.61" /><path
         id="path154"
         style="fill:#ffffff;fill-opacity:1;fill-rule:nonzero;stroke:none"
         d="m 1649.5,1075.63 c 6.24,-1.13 9.36,-13.89 7.09,-28.63 -2.27,-14.74 -9.36,-26.08 -15.59,-24.94 -6.52,0.85 -9.64,13.88 -7.37,28.62 2.55,14.75 9.64,25.8 15.87,24.95" /><path
         id="path156"
         style="fill:#ffffff;fill-opacity:1;fill-rule:nonzero;stroke:none"
         d="m 1711.58,1194.12 c 2.83,3.12 10.49,0.28 16.72,-5.95 6.24,-6.24 8.79,-13.89 5.96,-16.73 -2.84,-3.12 -10.49,-0.28 -16.73,5.96 -6.23,6.23 -9.07,13.89 -5.95,16.72" /><path
         id="path158"
         style="fill:#000000;fill-opacity:1;fill-rule:nonzero;stroke:none"
         d="m 1116.59,1509.33 c 100.35,29.2 152.22,27.78 225.64,20.69 -35.72,22.68 -128.41,29.2 -238.96,16.16 -11.06,-3.4 -17.01,-14.17 -13.33,-24.38 3.69,-10.2 15.6,-15.87 26.65,-12.47" /></g></g></svg>