<?xml version="1.0" encoding="UTF-8" standalone="no"?>
<svg
   xmlns:dc="http://purl.org/dc/elements/1.1/"
   xmlns:cc="http://creativecommons.org/ns#"
   xmlns:rdf="http://www.w3.org/1999/02/22-rdf-syntax-ns#"
   xmlns:svg="http://www.w3.org/2000/svg"
   xmlns="http://www.w3.org/2000/svg"
   viewBox="0 0 248.03751 248.03751"
   height="248.03751"
   width="248.03751"
   xml:space="preserve"
   version="1.1"
   id="svg2"><metadata
     id="metadata8"><rdf:RDF><cc:Work
         rdf:about=""><dc:format>image/svg+xml</dc:format><dc:type
           rdf:resource="http://purl.org/dc/dcmitype/StillImage" /></cc:Work></rdf:RDF></metadata><defs
     id="defs6" /><g
     transform="matrix(1.25,0,0,-1.25,0,248.0375)"
     id="g10"><g
       transform="scale(0.1,0.1)"
       id="g12"><path
         id="path14"
         style="fill:#6685d0;fill-opacity:1;fill-rule:evenodd;stroke:none"
         d="m 586.309,1707.39 c 0,0 156.757,230.17 427.461,189.92 81.64,25.51 157.89,0.28 157.89,0.28 0,0 158.46,3.41 241.23,-64.05 83.06,-67.75 96.38,-118.5 81.07,-127.57 -15.59,-9.07 -72,45.36 -97.51,20.98 -25.79,-24.38 -3.12,-50.74 -23.81,-72.27 7.65,-58.12 1.7,-85.62 1.7,-85.62 0,0 -80.79,58.12 -417.262,107.43 -336.469,49.62 -370.769,30.9 -370.769,30.9" /><path
         id="path16"
         style="fill:#282825;fill-opacity:1;fill-rule:evenodd;stroke:none"
         d="m 559.66,1680.75 21.262,30.33 c 1.699,2.55 40.539,58.96 113.672,111.69 42.797,30.61 88.719,53.57 136.058,68.03 58.68,17.57 120.192,22.11 182.268,13.04 77.67,23.81 149.39,3.4 159.59,0 15.59,0.28 163.56,0.56 244.63,-65.48 26.93,-21.83 48.19,-43.66 63.78,-64.35 18.43,-24.38 27.21,-46.77 24.38,-61.23 -1.14,-7.09 -5.1,-10.49 -7.94,-12.19 -9.35,-5.38 -22.96,1.7 -39.97,10.49 -20.69,10.77 -44.22,22.68 -56.41,11.34 -11.62,-11.06 -11.62,-22.11 -11.9,-34.87 0,-11.34 -0.29,-23.81 -9.64,-35.15 7.09,-56.69 1.42,-83.62 1.13,-85.04 l -1.98,-9.35 -8.22,5.95 c -0.85,0.57 -84.47,57.83 -414.14,106.3 -313.226,46.21 -362.546,32.88 -366.808,31.47 l -29.762,-20.98 z m 910.77,86.17 c -14.74,19.85 -35.43,40.54 -61.51,61.8 -79.94,65.2 -235.28,62.64 -236.98,62.64 l -1.13,0 -1.13,0.29 c -0.57,0.28 -75.12,24.09 -153.93,-0.29 l -1.41,-0.56 -1.42,0.28 c -137.479,20.41 -244.35,-31.46 -310.107,-78.52 -51.309,-36.85 -85.891,-76.53 -101.481,-96.09 32.602,2.55 121.039,0.85 356.602,-33.74 278.926,-40.81 382.386,-87.59 411.016,-103.18 1.14,12.19 2.27,36.85 -2.83,74.27 l -0.29,3.12 1.99,1.98 c 7.93,8.51 8.22,18.15 8.22,29.2 0.28,13.32 0.28,28.91 15.87,43.37 18.71,17.86 47.62,2.83 71.15,-9.35 8.51,-4.26 24.38,-12.48 27.21,-10.78 1.42,0.85 1.99,2.84 2.27,4.26 1.7,8.22 -3.4,26.07 -22.11,51.3" /><path
         id="path18"
         style="fill:#344776;fill-opacity:1;fill-rule:evenodd;stroke:none"
         d="m 1616.13,1659.49 c -6.24,-46.2 -49.89,-77.39 -97.79,-70.02 -47.91,7.66 -81.64,51.03 -75.41,97.23 6.25,46.21 49.89,77.39 97.8,70.02 47.9,-7.66 81.65,-51.03 75.4,-97.23" /><path
         id="path20"
         style="fill:#282825;fill-opacity:1;fill-rule:evenodd;stroke:none"
         d="m 1454.28,1621.5 c -14.74,19.29 -20.98,42.8 -17.87,66.34 6.53,49.31 53.87,83.05 105.18,75.11 25.51,-3.97 47.89,-17.57 63.21,-37.99 14.74,-19.55 20.98,-43.08 17.86,-66.6 -6.52,-49.32 -53.86,-83.06 -105.18,-75.13 -25.5,3.97 -47.89,17.58 -63.2,38.27 m 140.02,96.09 c -13.03,17.59 -32.59,29.2 -54.41,32.89 -44.23,6.81 -84.76,-22.1 -90.43,-64.92 -2.83,-19.84 2.84,-40.25 15.31,-56.97 13.03,-17.57 32.6,-29.2 54.42,-32.89 44.22,-6.8 84.76,22.11 90.43,64.93 2.83,20.11 -2.55,40.25 -15.32,56.96" /><path
         id="path22"
         style="fill:#6685d0;fill-opacity:1;fill-rule:evenodd;stroke:none"
         d="m 690.34,1772.02 c 0,0 -108.281,-0.28 -146.27,-108 -37.98,-107.72 73.418,91 385.797,30.34 312.663,-60.39 441.353,-183.98 464.033,-208.07 22.68,-24.09 1.98,77.1 -12.19,103.18 -14.17,26.08 -76.54,71.16 -117.35,92.41" /><path
         id="path24"
         style="fill:#282825;fill-opacity:1;fill-rule:evenodd;stroke:none"
         d="m 690.34,1772.02 c 0,0 -1.422,-0.28 -3.973,-0.57 -2.547,-0.27 -6.519,-0.56 -11.617,-1.7 -10.211,-1.98 -24.949,-5.67 -41.949,-13.6 -8.793,-3.97 -17.582,-9.07 -26.653,-15.59 -9.07,-6.81 -18.14,-14.74 -26.078,-24.67 -8.222,-9.62 -15.59,-20.96 -21.261,-34.01 -0.848,-1.42 -1.411,-3.11 -2.27,-4.82 -0.559,-1.7 -1.41,-3.11 -2.262,-4.82 -0.566,-1.7 -1.136,-3.4 -1.988,-5.1 -0.559,-1.69 -1.41,-3.4 -1.98,-5.1 -1.418,-3.68 -2.551,-7.36 -3.692,-10.77 -1.129,-3.69 -2.258,-7.38 -2.828,-11.06 l -0.281,-2.26 0,-1.99 c 0,0 0,-0.28 0,0 -0.289,0.28 -0.289,0.56 -0.57,0.85 l -1.418,0.85 -0.571,0 0.289,0 0.282,0.29 0.847,0 2.274,0.84 c 1.699,0.57 3.679,1.42 5.386,2.27 7.371,3.4 15.024,7.65 22.961,11.62 15.59,8.22 32.313,16.16 49.891,23.53 35.43,14.47 74.551,25.51 116.219,31.18 41.672,5.95 85.601,6.52 129.82,2.27 22.109,-1.98 44.223,-5.39 66.621,-9.92 10.77,-2.27 21.82,-4.54 32.602,-7.09 l 16.437,-3.4 c 2.832,-0.57 5.383,-1.14 8.223,-1.98 l 8.219,-1.98 c 11.05,-2.84 21.82,-5.68 32.88,-8.5 2.55,-0.58 5.38,-1.15 8.22,-2 l 7.94,-2.55 c 5.38,-1.42 10.77,-3.11 16.15,-4.81 5.39,-1.43 10.78,-3.13 16.16,-4.54 2.55,-0.85 5.39,-1.69 7.94,-2.56 l 7.94,-2.83 c 10.77,-3.39 21.26,-7.09 31.74,-10.77 41.67,-15.03 81.92,-32.32 119.63,-51.59 37.7,-19.56 72.56,-41.39 103.74,-64.92 15.31,-11.9 29.77,-24.09 42.81,-37.13 l 2.26,-2.55 0.57,-0.57 0.57,-0.27 0.57,-0.57 0.28,-0.29 -0.85,0.29 -0.29,0 -0.85,-0.29 -1.13,-0.28 -0.57,-0.57 -0.28,-0.29 0.28,1.14 0.57,2.27 0,5.68 c 0,7.64 -1.13,15.86 -2.55,23.8 -1.42,7.65 -2.84,15.3 -4.82,22.96 -1.98,7.38 -3.68,14.74 -5.67,21.83 -1.98,6.8 -3.97,13.6 -6.52,19.55 l -0.85,2 -1.42,2.27 -1.41,2.25 -1.42,2 c -0.85,1.41 -1.7,2.54 -2.55,3.68 -1.14,1.41 -2.27,2.55 -3.12,3.96 -8.5,9.93 -17.86,18.43 -26.65,26.09 -8.78,7.64 -17.29,14.45 -25.22,20.4 -15.31,11.62 -28.07,20.12 -37.14,25.8 -2.27,1.41 -3.97,2.55 -5.67,3.68 -1.7,1.14 -3.4,1.98 -4.53,2.55 -2.27,1.43 -3.4,2.27 -3.4,2.27 0,0 1.13,-0.84 3.68,-1.99 1.13,-0.56 2.55,-1.12 4.54,-2.26 1.7,-0.84 3.68,-1.99 6.23,-3.11 9.07,-4.82 22.68,-12.48 39.12,-23.25 8.5,-5.39 17.29,-11.63 26.93,-18.71 9.35,-7.09 19.56,-15.31 29.48,-25.23 1.13,-1.42 2.27,-2.54 3.68,-3.97 1.14,-1.41 2.27,-2.84 3.41,-4.54 l 1.98,-1.98 1.42,-2.27 1.42,-2.27 0.28,-0.56 0.28,-0.29 0.29,-0.56 0.85,-1.42 c 3.4,-6.79 5.95,-13.89 8.5,-20.98 1.42,-3.68 2.55,-7.36 3.69,-11.04 0.85,-3.7 1.7,-7.66 2.55,-11.34 1.98,-7.95 3.68,-15.89 5.1,-24.11 1.13,-8.21 2.55,-16.44 2.55,-25.51 0.28,-2.27 0,-4.53 0,-7.08 -0.28,-1.14 -0.57,-2.55 -0.85,-3.96 -0.28,-1.43 -0.57,-2.84 -1.98,-4.82 l -1.14,-1.43 -1.98,-1.7 -2.55,-0.85 -1.42,-0.27 -1.42,0 c -1.7,0.27 -3.12,0.55 -3.97,1.12 l -1.41,0.86 -1.14,0.84 -1.98,1.43 -0.57,0.84 -0.57,0.57 -2.55,2.55 c -12.19,12.47 -26.36,24.37 -41.38,36 -30.33,22.96 -64.63,44.22 -101.48,63.21 -37.14,19.28 -77.11,36 -118.21,51.31 -10.2,3.41 -20.69,7.09 -31.18,10.48 l -7.94,2.84 c -2.55,0.86 -5.1,1.43 -7.93,2.27 -5.39,1.7 -10.49,3.12 -15.88,4.82 -5.38,1.41 -10.77,3.11 -15.87,4.81 l -8.22,2.28 c -2.55,0.84 -5.39,1.41 -7.94,1.98 -10.77,2.84 -21.54,5.68 -32.311,8.22 l -8.219,2.27 c -2.562,0.56 -5.391,1.41 -7.941,1.71 l -16.442,3.67 c -11.058,2.27 -21.828,4.54 -32.879,6.81 -21.258,4.53 -43.371,7.66 -64.918,9.93 -43.082,4.25 -86.172,3.39 -126.711,-2.27 -40.531,-5.68 -78.519,-16.45 -113.101,-30.34 -17.008,-7.09 -33.16,-15.03 -48.75,-23.25 -7.938,-3.96 -15.309,-7.93 -23.528,-11.89 -1.992,-0.86 -3.972,-1.71 -6.242,-2.56 -1.418,-0.57 -2.55,-0.85 -3.968,-1.14 -1.129,-0.28 -2.832,-0.55 -4.821,-0.55 -1.129,0 -2.261,0.27 -3.679,0.84 -1.422,0.28 -3.122,1.41 -3.969,2.55 l -1.422,1.7 -0.852,1.7 c -0.277,1.14 -0.558,2.28 -0.558,2.83 -0.289,1.7 0,3.13 0,4.54 l 0.558,3.41 c 0.571,4.53 1.993,8.5 3.121,12.46 1.129,3.7 2.27,7.66 3.692,11.34 1.41,3.7 2.551,7.38 4.25,10.77 1.418,3.7 3.121,7.09 4.82,10.49 7.367,13.32 16.149,24.96 25.231,34.87 9.347,9.63 19.547,17.57 29.476,23.82 9.922,6.22 19.844,10.77 28.91,14.16 18.141,6.8 33.453,9.36 43.942,10.5 5.101,0.56 9.07,0.56 11.898,0.84" /><path
         id="path26"
         style="fill:#000000;fill-opacity:1;fill-rule:nonzero;stroke:none"
         d="m 787,1768.62 c 0.57,0.28 160.16,7.65 353.48,-59.24 l -7.09,-19.85 c -189.07,65.48 -344.968,58.11 -345.261,58.11 L 787,1768.62 Z m 0.57,-10.49 -0.57,10.77 c 5.949,0 11.059,-4.53 11.059,-10.48 0.281,-5.67 -4.258,-10.78 -10.207,-10.78 l -0.282,10.49 z m -165.55,-22.68 c 42.519,17.3 97.519,30.9 164.98,33.45 l 0.852,-21.26 c -64.911,-2.26 -117.352,-15.3 -157.614,-31.74 l -8.218,19.55 z m -113.098,-82.2 c 7.648,16.44 44.789,54.71 113.098,82.2 l 8.218,-19.55 c -62.636,-25.23 -95.808,-58.11 -102.328,-71.72 l -18.988,9.07 z m 9.359,-4.54 -9.082,5.39 c 3.121,5.1 9.641,6.8 14.461,3.69 5.102,-2.84 6.801,-9.36 3.969,-14.46 l -9.348,5.38 z m -41.672,-77.66 c 10.481,34.29 24.661,69.73 32.59,83.05 l 18.43,-10.77 c -7.367,-12.19 -20.688,-45.64 -30.609,-78.52 l -20.411,6.24 z m -13.89,-69.45 c -0.571,15.59 5.672,42.52 13.89,69.45 l 20.411,-6.24 c -7.942,-25.23 -13.61,-49.61 -13.04,-62.36 l -21.261,-0.85 z m 31.461,-43.66 c 0,0 -29.758,1.42 -31.461,43.66 l 21.261,0.85 c 0.848,-22.96 11.622,-23.25 11.622,-23.25 l -1.422,-21.26 z m 0.851,10.49 9.641,-4.25 c -2.274,-5.39 -8.5,-7.65 -13.891,-5.39 -5.39,2.27 -7.941,8.51 -5.672,13.89 l 9.922,-4.25 z m 11.34,0.57 c -1.133,-3.12 -1.699,-4.82 -1.699,-4.82 l -19.563,8.5 c 0,0 0.282,1.42 1.129,3.69 L 506.371,1469 Z M 617.77,1572.46 C 538.398,1536.75 511.762,1484.02 506.371,1469 l -20.133,7.37 c 6.242,17.01 36,76.53 122.742,115.37 l 8.79,-19.28 z m 198.429,32.88 c -88.16,2.56 -152.219,-12.18 -198.429,-32.88 l -8.79,19.28 c 48.758,21.82 115.942,37.42 207.782,34.86 l -0.563,-21.26 z m 0.281,10.49 -0.281,-10.49 c -5.668,0 -10.488,4.82 -10.488,10.78 0.277,5.95 5.098,10.48 10.769,10.48 l 0,-10.77 z m 360.85,-121.6 c -116.5,61.51 -256.529,109.41 -361.131,111.11 l 0.281,21.26 c 108,-1.98 251.72,-51.02 370.49,-113.67 l -9.64,-18.7 z m 215.72,-189.07 c -5.67,52.72 -98.36,127.27 -215.72,189.07 l 9.64,18.7 c 123.31,-64.91 220.53,-145.41 227.05,-205.51 l -20.97,-2.26 z m 10.49,1.13 10.2,-2.84 c -1.7,-5.66 -7.65,-8.78 -13.32,-7.08 -5.39,1.7 -8.79,7.37 -7.09,13.04 l 10.21,-3.12 z m 20.97,180 c 27.78,-59.81 -10.49,-182.55 -10.77,-182.84 l -20.41,5.96 c 0.28,0.28 36.28,115.93 11.91,168.09 l 19.27,8.79 z m -114.23,131.24 c 60.37,-47.34 98.64,-97.79 114.23,-131.24 l -19.27,-8.79 c -14.46,31.18 -50.46,78.52 -108,123.31 l 13.04,16.72 z m -169.8,91.85 c 68.6,-23.53 125.29,-56.98 169.8,-91.85 l -13.04,-16.72 c -42.81,33.73 -97.52,65.76 -163.85,88.72" /><path
         id="path28"
         style="fill:#344776;fill-opacity:1;fill-rule:nonzero;stroke:none"
         d="m 1137.08,1699.46 c 158.17,-54.71 251.72,-161.29 277.8,-217.42 26.07,-56.12 -11.34,-175.75 -11.34,-175.75 -11.91,111.41 -372.19,306.15 -587.06,309.55 -246.613,6.8 -310.96,-117.92 -320.312,-143.15 -0.848,-2.84 -1.141,-4.25 -1.141,-4.25 0,0 -20.41,0.85 -21.816,33.45 -1.141,32.59 31.457,124.15 45.066,146.83 11.621,24.38 98.364,103.75 269.293,109.42 0,0 158.168,7.65 349.51,-58.68" /><path
         id="path30"
         style="fill:#282825;fill-opacity:1;fill-rule:nonzero;stroke:none"
         d="m 1371.5,1340.59 0,1.7 c 0.29,-0.57 0.29,-1.13 0.57,-1.42 -0.28,0 -0.57,0 -0.57,-0.28" /><path
         id="path32"
         style="fill:#282825;fill-opacity:1;fill-rule:nonzero;stroke:none"
         d="m 1369.8,1611.58 c -0.57,11.62 -1.42,25.8 -3.69,42.24 l -0.28,3.11 1.99,1.99 c 7.93,8.5 8.22,18.14 8.22,29.2 0.28,13.32 0.28,28.91 15.87,43.37 15.88,15.3 39.4,6.52 60.66,-3.97 -1.42,-1.7 -2.55,-3.69 -3.96,-5.67 -46.78,25.79 -73.71,0 -69.16,-25.23 4.82,-25.51 -7.38,-44.22 -7.38,-44.22 l 2.27,-45.07 c -1.71,1.42 -3.12,2.83 -4.54,4.25" /><path
         id="path34"
         style="fill:#282825;fill-opacity:1;fill-rule:nonzero;stroke:none"
         d="m 1448.61,1721.85 c 1.42,1.98 2.55,3.97 3.97,5.67 6.52,8.79 14.74,16.44 24.09,22.39 3.12,0.85 5.11,1.7 5.11,1.7 l 1.98,-1.13 c 0,0 -6.52,-4.54 -33.45,-29.48 -0.57,0.28 -1.13,0.57 -1.7,0.85" /><path
         id="path36"
         style="fill:#282825;fill-opacity:1;fill-rule:nonzero;stroke:none"
         d="m 1270.59,1678.2 c 0.57,0 1.42,-0.28 1.98,-0.57 1.7,-0.85 3.69,-1.98 6.24,-3.12 9.07,-4.81 22.68,-12.47 39.12,-23.24 8.5,-5.39 17.29,-11.62 26.93,-18.71 7.93,-5.95 16.44,-12.75 24.94,-20.97 1.42,-1.42 2.84,-2.84 4.54,-4.26 l 0,-4.25 c 0,0 -43.09,39.4 -103.75,75.12" /><path
         id="path38"
         style="fill:#282825;fill-opacity:1;fill-rule:nonzero;stroke:none"
         d="m 1402.12,1516.62 c -1.7,2.55 -3.4,4.82 -5.1,7.37 -0.29,0.28 -0.57,0.57 -0.85,0.85 -0.85,1.42 -1.99,2.55 -2.84,3.97 -1.13,5.1 -2.27,9.92 -3.4,14.74 -1.98,7.37 -3.68,14.74 -5.67,21.83 -1.98,6.8 -3.97,13.6 -6.52,19.55 l -0.85,1.99 -1.42,2.27 -0.56,0.85 c 0,3.4 -1.42,6.23 -1.42,6.23 2.83,-2.55 5.67,-5.38 8.22,-8.78 15.87,-21.26 19.56,-56.98 20.41,-70.87" /><path
         id="path40"
         style="fill:#cdcaca;fill-opacity:1;fill-rule:nonzero;stroke:none"
         d="m 1193.49,1676.21 c 0.57,-0.28 1.42,-0.57 1.98,-1.13 8.79,-4.26 17.58,-8.79 26.08,-13.61 -9.07,5.1 -18.42,9.92 -28.06,14.74" /><path
         id="path42"
         style="fill:#282825;fill-opacity:1;fill-rule:nonzero;stroke:none"
         d="m 1175.35,1685 5.95,-2.55 c 4.82,-2.27 9.64,-4.25 14.46,-6.52 9.64,-4.25 19.28,-9.07 28.63,-13.89 l 7.09,-3.4 6.8,-3.97 c 4.82,-2.55 9.35,-5.1 13.89,-7.65 4.82,-2.56 9.07,-5.39 13.61,-8.22 l 13.6,-8.51 c 8.79,-5.95 17.58,-11.9 26.08,-18.14 8.5,-6.24 17.01,-12.76 25.23,-19.56 8.22,-6.8 15.87,-13.89 23.81,-21.26 7.65,-7.37 15.02,-15.02 22.11,-22.96 5.67,-6.24 11.34,-12.76 16.72,-19.56 0.85,-1.42 1.99,-2.55 2.84,-3.97 0.28,-0.28 0.57,-0.56 0.85,-0.85 1.7,-2.55 3.4,-4.82 5.1,-7.37 0.29,-3.68 0.29,-5.67 0.29,-5.67 0,0 -1.99,3.12 -6.24,8.79 -16.73,22.39 -69.17,84.19 -174.62,141.73 -8.5,4.82 -17.29,9.36 -26.07,13.61 -0.57,0.57 -1.42,0.85 -1.99,1.13 -5.95,2.84 -11.9,5.67 -18.14,8.79" /><path
         id="path44"
         style="fill:#282825;fill-opacity:1;fill-rule:nonzero;stroke:none"
         d="m 1461.08,1626.32 c -0.28,0.57 -0.57,1.13 -1.13,1.7 2.83,-1.7 5.95,-3.12 8.78,-4.53 13.04,-14.74 30.62,-24.67 50.46,-27.78 44.22,-6.81 84.76,22.11 90.43,64.91 2.83,20.13 -2.56,40.25 -15.31,56.98 -3.69,5.1 -8.22,9.92 -13.04,13.89 -2.27,4.81 -4.82,9.35 -7.94,13.89 10.49,-6.24 19.28,-14.18 26.36,-23.82 13.04,-17 19.28,-38.83 16.45,-60.94 -5.96,-45.64 -49.33,-76.54 -96.67,-69.17 -24.37,3.69 -44.78,17.01 -58.39,34.87" /><path
         id="path46"
         style="fill:#282825;fill-opacity:1;fill-rule:nonzero;stroke:none"
         d="m 885.078,1897.03 c 0,0 0.852,0.28 2.832,0.85 1.988,0.57 4.539,1.42 8.231,2.55 3.679,0.85 7.929,1.99 13.027,2.84 5.109,0.85 10.781,1.98 17.301,2.55 3.109,0.56 6.519,0.85 9.922,1.13 3.398,0.28 7.078,0.57 10.769,0.57 3.68,0.28 7.367,0.28 11.34,0.28 3.969,0 7.93,0 11.898,-0.28 8.219,-0.29 16.442,-1.14 24.95,-2.27 2.269,-0.28 4.25,-0.57 6.522,-0.85 1.98,-0.57 4.25,-0.85 6.23,-1.42 4.26,-0.56 8.51,-1.7 12.76,-2.55 4.25,-1.13 8.5,-2.55 12.76,-3.68 3.96,-1.14 8.22,-2.55 12.18,-3.97 8.22,-3.12 15.88,-6.24 23.25,-9.92 7.37,-3.69 14.17,-7.66 20.69,-11.63 3.12,-1.98 5.95,-3.96 9.07,-5.95 2.84,-2.27 5.39,-4.25 7.94,-6.23 l 1.98,-1.42 1.7,-1.42 c 1.42,-1.13 2.56,-1.98 3.69,-3.12 0.85,-0.85 1.98,-1.7 3.12,-2.83 1.13,-0.85 1.98,-1.7 3.12,-2.55 3.68,-3.69 6.8,-6.81 9.35,-9.64 2.55,-2.84 4.54,-5.1 5.67,-6.52 1.42,-1.7 1.98,-2.27 1.98,-2.27 0,0 -0.85,0.57 -2.55,1.7 -1.42,1.14 -3.97,2.84 -6.8,5.11 -1.42,1.41 -3.12,2.55 -5.1,3.68 -1.7,1.13 -3.69,2.55 -5.67,4.25 -1.14,0.57 -2.27,1.42 -3.4,2.27 -1.14,0.57 -2.27,1.42 -3.69,1.98 -2.27,1.7 -4.82,3.41 -7.65,5.11 -2.55,1.41 -5.39,3.11 -8.51,4.82 -2.83,1.7 -5.95,3.4 -9.07,4.81 -6.52,3.41 -13.32,6.52 -20.41,9.64 l -2.83,1.14 -2.84,1.13 c -1.7,0.85 -3.68,1.42 -5.38,2.27 -1.99,0.85 -3.97,1.41 -5.67,1.98 -1.99,0.57 -3.97,1.42 -5.95,1.99 -3.69,1.41 -7.66,2.55 -11.63,3.68 -3.96,1.13 -7.93,2.27 -12.19,3.12 -3.96,1.13 -7.93,1.98 -12.18,2.83 -1.99,0.57 -3.97,0.85 -5.961,1.14 -1.981,0.56 -3.969,0.85 -6.231,1.13 -3.968,0.85 -7.941,1.42 -11.91,1.99 -1.98,0.28 -3.968,0.56 -5.949,0.56 -1.988,0.29 -3.969,0.57 -5.949,0.85 -7.66,0.85 -15.313,1.42 -22.402,1.7 -7.079,0.29 -13.887,0.57 -20.411,0.57 l -8.777,0 c -3.121,0 -5.672,-0.28 -8.23,-0.28 -5.102,-0.29 -9.629,-0.29 -13.321,-0.57 -3.679,-0.28 -6.519,-0.57 -8.5,-0.57 -1.992,-0.28 -3.121,-0.28 -3.121,-0.28" /><path
         id="path48"
         style="fill:#282825;fill-opacity:1;fill-rule:nonzero;stroke:none"
         d="m 1026.81,1902.7 c 0,0 1.13,0.57 2.83,1.13 1.99,0.57 4.82,1.42 8.23,2.27 3.68,1.14 8.22,1.99 13.03,3.12 5.11,0.85 11.06,1.98 17.3,2.55 3.4,0.57 6.52,0.57 9.92,1.13 3.68,0.29 7.08,0.57 10.77,0.57 3.68,0.29 7.65,0.29 11.34,0.29 3.97,0 7.93,-0.29 11.9,-0.29 8.22,-0.57 16.73,-1.13 24.95,-2.55 2.27,-0.28 4.25,-0.57 6.52,-0.85 1.98,-0.28 4.25,-0.85 6.23,-1.13 4.54,-0.85 8.51,-1.7 12.76,-2.84 4.25,-0.85 8.5,-2.27 12.76,-3.4 4.25,-1.42 8.22,-2.55 12.18,-3.97 8.23,-3.12 16.16,-6.52 23.25,-10.2 7.37,-3.4 14.46,-7.37 20.69,-11.34 3.12,-2.27 6.24,-3.97 9.07,-5.95 2.84,-2.27 5.39,-4.26 7.94,-6.24 l 1.98,-1.42 1.99,-1.7 c 1.13,-0.85 2.27,-1.98 3.4,-2.83 1.13,-0.85 2.27,-1.99 3.12,-2.84 1.13,-0.85 2.27,-1.7 3.12,-2.83 3.68,-3.69 7.08,-6.81 9.35,-9.64 2.55,-2.55 4.54,-4.82 5.95,-6.52 1.14,-1.42 1.99,-2.27 1.99,-2.27 0,0 -0.85,0.57 -2.55,1.99 -1.71,1.13 -3.97,2.83 -7.09,5.1 -1.42,1.13 -3.12,2.27 -4.82,3.68 -1.98,1.14 -3.97,2.55 -5.95,3.97 -1.14,0.85 -2.27,1.7 -3.4,2.27 -1.14,0.85 -2.27,1.42 -3.41,2.27 -2.55,1.41 -5.1,3.4 -7.65,4.82 -2.83,1.7 -5.67,3.4 -8.5,5.1 -3.12,1.42 -6.24,3.12 -9.36,4.82 -6.52,3.4 -13.32,6.52 -20.41,9.64 l -2.55,1.13 -2.83,1.13 c -1.99,0.57 -3.69,1.42 -5.67,1.99 -1.7,0.85 -3.69,1.41 -5.67,2.27 -1.99,0.56 -3.97,1.13 -5.67,1.98 -3.97,1.13 -7.94,2.27 -11.91,3.68 -3.96,0.86 -7.93,2.27 -11.9,3.12 -4.25,0.85 -8.22,1.99 -12.19,2.84 -1.98,0.28 -4.25,0.85 -6.24,1.13 -1.98,0.28 -3.97,0.85 -5.95,1.14 -3.97,0.56 -8.22,1.13 -12.19,1.7 -1.98,0.56 -3.97,0.56 -5.95,0.85 -1.99,0.28 -3.69,0.56 -5.67,0.56 -7.94,0.85 -15.31,1.42 -22.68,1.99 -7.08,0.28 -13.89,0.56 -20.12,0.56 l -4.82,0 c -1.42,-0.28 -2.84,-0.28 -4.25,-0.28 l -8.23,0 c -5.1,-0.28 -9.63,-0.57 -13.32,-0.85 -3.68,0 -6.52,-0.28 -8.5,-0.57 -1.99,0 -3.12,-0.28 -3.12,-0.28" /><path
         id="path50"
         style="fill:#51669c;fill-opacity:1;fill-rule:nonzero;stroke:none"
         d="m 557.109,974.355 c -12.187,-75.121 -66.898,-119.339 -66.898,-191.339 0,-39.403 14.738,-37.422 26.93,-81.071 -54.711,-12.761 -89.289,-18.711 -73.418,-87.019 -24.942,-36.289 -15.024,-29.481 -7.93,-78.813 -19.281,-66.039 7.367,-127.558 49.598,-183.109 73.422,-96.668 162.711,-168.668 245.48,-209.77 41.672,-20.968 86.461,-32.879 128.129,-47.3395 118.199,-40.8203 231.31,-60.3711 325.13,-36 66.62,17.2891 136.92,77.6715 199.56,153.0705 54.99,66.332 67.18,94.109 86.46,133.23 36.57,43.66 109.13,136.629 137.2,219.969 28.91,85.891 -35.44,187.09 -99.5,242.93 -47.05,94.679 -93.26,142.301 -162.43,183.121 -77.38,45.645 -118.2,53.285 -170.92,43.375 -26.93,-5.11 -53.01,-18.43 -96.95,-26.66 L 777.359,968.406" /><path
         id="path52"
         style="fill:#344776;fill-opacity:1;fill-rule:nonzero;stroke:none"
         d="m 515.727,706.195 c 0.57,-1.418 0.847,-2.828 1.418,-4.25 -54.711,-12.757 -89.29,-18.707 -73.418,-87.027 -24.942,-36.281 -15.024,-29.48 -7.942,-78.801 -19.269,-66.051 7.371,-127.558 49.61,-183.121 73.421,-96.66 162.71,-168.66 245.48,-209.758 41.672,-20.98 86.461,-32.883 128.129,-47.3396 118.199,-40.8203 231.296,-60.3828 325.136,-36 66.61,17.2891 136.91,77.6676 199.56,153.0706 54.98,66.328 67.18,94.109 86.46,133.226 36.55,43.653 109.13,136.633 137.18,219.973 24.39,72.277 -17.57,155.617 -69.73,213.449 26.66,-50.179 44.23,-98.359 39.69,-117.64 -19.55,-83.34 -179.71,-237.539 -252,-282.329 -104.03,-64.062 -239.53,-87.019 -353.765,-78.8 -57.832,3.961 -111.398,16.437 -169.23,35.429 21.55,-24.101 95.808,-105.449 129.261,-100.91 81.364,10.199 75.114,7.649 161.294,11.621 77.66,3.399 175.46,24.09 257.39,68.879 32.3,17.571 94.11,75.399 136.34,118.77 38.55,39.691 62.64,64.91 54.71,46.769 -22.39,-51.871 -70.59,-104.879 -130.67,-151.371 -49.33,-38.269 -106.88,-72.558 -164.42,-98.637 -16.73,-7.66 -51.3,-24.382 -56.41,-17.863 -5.1,6.801 34.02,28.91 20.41,41.953 -5.94,5.391 -84.46,-31.461 -123.87,-39.679 -57.27,-11.911 -112.817,-7.942 -164.977,5.379 C 749.586,264.848 601.895,423.867 492.484,528.469 606.434,390.695 677.586,273.629 784.445,214.387 983.156,104.117 1213.34,157.695 1351.09,234.508 1350.25,168.746 1221.55,112.629 1160.32,93.0664 1020,48.2773 863.535,119.137 776.227,158.547 c -96.09,43.648 -169.223,92.41 -229.602,164.41 -48.469,58.109 -105.172,100.059 -91.281,181.981 26.652,-45.071 60.383,-106.301 115.941,-168.942 55.84,-62.93 116.5,-108.57 146.828,-127 -29.758,32.32 -45.066,62.082 -110.258,141.172 -66.332,80.789 -132.671,155.34 -142.871,194.461 -5.668,21.539 -17.007,17.848 -5.39,40.809 32.043,-24.942 44.511,-48.469 74.84,-74.833 39.121,-33.449 100.632,-85.039 157.613,-133.507 32.59,-27.782 70.289,-48.469 91.84,-64.922 17.566,-13.039 15.019,11.633 9.066,24.672 -1.988,4.808 -36,30.609 -83.34,67.738 -65.758,51.312 -146.547,125.582 -162.988,140.602 -39.691,36.289 -76.25,64.917 -78.238,92.98 -1.981,24.09 28.91,32.027 49.886,44.789 6.243,3.68 -4.25,15.59 2.84,18.699" /><path
         id="path54"
         style="fill:#344776;fill-opacity:1;fill-rule:nonzero;stroke:none"
         d="m 521.68,882.797 c -16.16,-31.461 -31.461,-61.801 -31.461,-99.781 0,-39.399 14.738,-37.418 26.918,-81.071 l -9.918,-2.269 c 7.937,-20.969 17.578,-40.531 32.89,-57.821 31.739,-35.437 83.618,-44.789 125.848,-80.507 13.039,-10.774 23.25,-30.903 36.57,-41.102 37.422,-29.48 68.602,9.922 85.039,-64.629 5.672,-26.082 48.473,-66.621 52.723,-60.949 5.109,7.367 -4.25,28.066 -14.742,47.906 -9.918,18.711 -10.199,26.364 23.25,22.114 137.48,-17.012 176.603,-62.083 364.823,-34.02 115.08,17.297 236.69,59.527 282.33,140.316 32.6,58.391 30.9,122.172 17.86,175.184 -13.89,58.387 -73.42,149.387 -108.29,203.238 -18.14,15.879 -37.98,29.77 -60.38,42.809 -18.99,11.335 -36,20.415 -51.3,27.215 l 7.93,-7.95 c 68.32,-54.414 140.32,-129.253 174.34,-215.996 34.86,-89.859 30.33,-189.066 -47.91,-257.379 -16.16,-14.179 -35.43,-26.929 -58.39,-37.988 -24.67,-12.191 -8.51,40.539 5.95,81.071 24.09,66.617 -8.51,41.957 -54.71,4.82 -25.23,-20.41 -42.8,-38.551 -67.75,-52.153 -110.27,-60.667 -252.85,-73.988 -376.722,-36 -189.922,58.11 -329.672,135.493 -364.539,263.903 -9.922,36.847 -1.422,75.687 9.641,121.039" /><path
         id="path56"
         style="fill:#344776;fill-opacity:1;fill-rule:nonzero;stroke:none"
         d="m 1376.89,800.875 c -16.72,-72 2.83,-185.949 -15.59,-253.133 9.92,30.613 24.66,96.094 27.5,126.703 10.48,110.84 12.47,208.348 -74.56,274.68 11.63,-49.039 39.97,-89.012 29.77,-119.051 -23.53,-68.32 -117.92,-102.332 -259.66,-132.101 -116.221,-24.09 -220.248,-31.75 -295.37,1.703 -109.41,48.476 -195.871,155.34 -233.289,267.59 -2.832,-14.172 -7.082,-26.93 -12.191,-39.403 15.879,-57.82 55.281,-124.718 107.441,-178.3 121.887,-126.137 293.668,-157.887 442.769,-131.809 136.06,24.101 195.87,96.101 283.18,183.121" /><path
         id="path58"
         style="fill:#172952;fill-opacity:1;fill-rule:nonzero;stroke:none"
         d="m 1376.89,800.875 c -16.72,-72 0.57,-185.391 -15.59,-253.133 -7.09,-31.179 18.71,114.524 21.54,145.133 10.21,110.828 -5.67,184.539 -68.6,256.25 25.23,-39.973 52.45,-95.242 41.96,-125.012 -23.25,-68.308 -123.59,-131.519 -265.33,-161 -116.222,-24.379 -246.331,-4.258 -321.159,29.192 -109.422,48.48 -175.75,145.14 -213.172,257.39 -2.828,-14.172 -3.961,3.118 -9.07,-9.07 15.883,-57.832 60.66,-132.66 112.82,-186.52 121.891,-125.863 280.352,-140.32 429.451,-114.242 136.06,24.102 199.84,73.992 287.15,161.012" /><path
         id="path60"
         style="fill:#172952;fill-opacity:1;fill-rule:nonzero;stroke:none"
         d="m 517.141,701.945 c -54.707,-12.761 -89.289,-18.711 -73.418,-87.019 -24.942,-36.289 -15.02,-29.481 -7.93,-78.813 -19.281,-66.039 7.367,-127.558 49.598,-183.117 73.422,-96.66 162.711,-168.66 245.48,-209.762 41.672,-20.98 86.461,-32.879 128.133,-47.3395 118.199,-40.8203 231.306,-60.3789 325.126,-36 66.62,17.2891 136.92,77.6715 199.56,153.0705 54.99,66.332 67.18,94.109 86.74,133.23 36.28,43.66 108.85,136.629 136.91,219.969 19,56.41 -2.26,119.621 -37.41,172.063 22.96,-38.262 30.61,-57.262 25.79,-76.532 -20.41,-81.64 -186.52,-267.879 -258.8,-312.379 -104.03,-64.351 -251.72,-78.8 -366.236,-70.871 -57.821,4.262 -87.871,28.071 -145.411,47.059 21.258,-24.098 101.188,-63.207 134.637,-58.957 81.36,10.199 49.04,-9.07 135.5,-5.391 77.67,3.688 169.23,30.617 251.15,75.117 98.64,53.864 207.78,215.723 261.92,305.582 4.82,-96.671 -102.05,-258.808 -199.28,-333.359 -41.67,-31.75 -102.61,-81.351 -179.15,-104.031 -17.57,-5.102 -50.45,-6.238 -55.56,0.281 -5.1,6.52 49.33,37.699 35.72,50.461 -5.95,5.668 -58.11,-54.434 -97.79,-62.652 -56.98,-11.899 -163.279,0.851 -215.44,14.179 -171.777,43.653 -301.32,212.313 -404.5,321.731 113.954,-137.758 192.473,-234.988 299.34,-294.238 114.801,-63.493 262.2,-70.582 373.32,-50.743 144.57,25.801 243.21,96.95 290.55,149.672 -15.31,-21.543 -52.16,-84.191 -100.06,-136.633 C 1313.11,150.035 1259.25,97.0352 1196.6,78.3242 1093.71,47.7031 956.793,60.4648 775.383,142.664 c -96.102,43.66 -191.91,109.711 -252,181.711 -48.762,58.391 -98.082,114.23 -76.82,200.121 26.929,-44.793 80.5,-116.5 136.058,-179.152 55.84,-62.93 105.172,-117.918 135.5,-136.34 -29.769,32.312 -64.918,59.242 -129.828,138.609 -66.609,80.793 -136.91,166.391 -147.121,205.512 -5.668,21.828 -3.969,34.871 7.66,57.828 31.738,-25.226 59.809,-64.918 90.141,-91.277 38.828,-33.449 98.078,-80.789 155.34,-129.262 4.25,-3.68 81.347,-64.91 95.238,-67.75 5.101,-1.129 -40.539,38.563 -87.867,75.973 -65.774,51.027 -144.293,124.726 -160.731,139.75 -39.68,36.566 -88.16,78.519 -90.422,106.867 -2.269,28.91 16.723,33.73 55.27,51.301 3.691,1.711 7.371,3.41 11.34,5.39" /><path
         id="path62"
         style="fill:#172952;fill-opacity:1;fill-rule:nonzero;stroke:none"
         d="m 521.68,882.797 c -16.16,-31.461 -31.461,-61.801 -31.461,-99.781 0,-39.399 14.738,-37.418 26.918,-81.071 37.992,-76.82 65.203,-62.078 148.543,-132.09 13.039,-11.058 27.5,-37.14 40.539,-47.628 37.41,-29.481 72.558,30.898 88.719,-43.372 5.671,-26.359 41.101,-89.859 45.351,-84.187 5.109,7.367 -13.601,35.148 -24.371,54.707 -9.641,18.711 -13.328,37.992 20.121,34.02 137.77,-17.008 191.911,-66.899 380.131,-38.84 115.08,17.3 201.54,33.742 247.18,114.519 32.6,58.403 36.28,141.172 23.53,194.184 -14.18,58.109 -46.49,142.297 -81.36,196.148 -18.14,15.879 -37.98,29.77 -60.38,42.809 46.21,-41.957 62.93,-64.348 113.96,-195.59 35.15,-89.578 26.08,-197.859 -46.49,-272.129 -15.59,-16.16 -34.02,-32.308 -56.69,-43.371 -24.95,-12.187 -12.48,54.711 1.98,95.242 24.09,66.617 19.84,55.848 -9.92,4.258 -15.87,-27.777 -53.01,-58.957 -77.67,-72.57 -110.55,-60.95 -269.29,-58.387 -393.173,-20.688 -189.629,58.391 -341.571,148.25 -376.438,276.66 -9.922,36.848 9.918,73.418 20.981,118.77" /><path
         id="path64"
         style="fill:#15274d;fill-opacity:1;fill-rule:nonzero;stroke:none"
         d="m 1202.84,850.195 c 28.06,32.602 48.47,45.352 50.46,81.922 2.55,41.949 -19.85,68.883 -43.09,94.403 -60.09,65.76 -176.88,86.74 -261.917,82.2 -145.699,-7.37 -394.871,-34.3 -388.352,-140.884 8.512,-138.328 240.102,-280.918 488.979,-230.18 71.72,14.461 95.24,43.942 153.92,112.539" /><path
         id="path66"
         style="fill:#5f77b3;fill-opacity:1;fill-rule:nonzero;stroke:none"
         d="m 646.684,815.898 c 83.062,-81.351 116.5,-89.289 171.211,-109.128 89.582,-32.891 229.335,-17.582 338.745,22.386 138.61,50.461 201.25,79.942 158.74,190.492 -26.08,67.18 -4.25,47.899 25.23,6.231 93.53,-131.242 77.66,-206.359 46.77,-348.66 -7.38,-33.16 -11.34,-43.082 -8.22,-45.641 3.68,-2.551 15.3,5.11 25.5,39.692 37.14,124.718 34.88,242.359 -43.93,354.898 -44.5,63.781 -81.91,42.52 -125.57,95.532 12.47,-31.473 22.11,-48.192 27.77,-73.423 8.23,-37.418 -10.48,-64.918 -28.34,-93.828 -19.27,-31.179 -39.96,-74.832 -106.29,-103.461 -73.42,-31.468 -206.085,-55.851 -316.925,-17.859 -48.191,16.437 -78.23,9.348 -164.691,82.769" /><path
         id="path68"
         style="fill:#5f77b3;fill-opacity:1;fill-rule:nonzero;stroke:none"
         d="M 547.473,863.52 C 533.863,807.391 542.082,760.34 564.762,720.371 686.082,508.91 1003,506.07 1126.87,518.828 c 109.42,11.621 175.76,61.793 206.08,113.953 31.75,55.278 22.96,87.867 23.81,111.399 C 1311.41,689.469 1252.73,646.949 1181.3,620.871 856.164,501.82 633.363,689.762 547.473,863.52" /><path
         id="path70"
         style="fill:#5f77b3;fill-opacity:1;fill-rule:nonzero;stroke:none"
         d="m 681.27,455.613 c 201.539,-159.867 349.51,-167.527 534.9,-107.718 114.8,36.851 164.97,82.781 247.46,157.039 -91.56,-49.598 -157.89,-77.668 -262.77,-97.231 -57.83,-11.047 -116.79,-10.769 -197.01,0 -75.123,10.211 -142.01,38.563 -146.26,35.723 -22.121,-13.891 33.437,-73.981 28.34,-75.121 -10.203,-2.828 -19.563,-3.399 -28.34,-2.551 -56.41,6.801 -58.402,108.57 -102.621,126.992 -68.602,28.918 -61.512,13.891 -109.129,55 -47.344,40.25 -117.641,77.668 -127,101.481 -17.852,2.257 -34.293,-11.911 -25.793,-32.043 15.871,-37.129 149.949,-134.36 188.223,-161.571" /><path
         id="path72"
         style="fill:#5f77b3;fill-opacity:1;fill-rule:nonzero;stroke:none"
         d="M 466.684,471.773 C 508.355,327.203 669.363,197.941 809.676,140.973 985.996,68.9727 1234.3,76.6211 1328.7,207.863 1162.59,120.844 913.426,96.7539 724.637,248.402 659.727,300.563 605.297,376.242 529.613,466.953 602.746,369.16 659.445,279.012 749.016,190.012 639.594,227.141 532.445,366.602 466.684,471.773" /><path
         id="path74"
         style="fill:#0f1c39;fill-opacity:1;fill-rule:nonzero;stroke:none"
         d="m 1202.84,850.195 c 28.06,32.602 48.47,45.352 50.46,81.922 1.13,16.16 -1.7,30.328 -6.81,42.801 -9.07,-13.602 -22.67,-25.789 -38.55,-44.5 -58.67,-68.602 -82.2,-97.789 -153.92,-112.531 -226.196,-45.93 -437.946,67.461 -481.317,192.473 -9.07,-12.473 -13.89,-26.653 -12.762,-42.524 8.512,-138.328 240.102,-280.918 488.979,-230.18 71.72,14.461 95.24,43.942 153.92,112.539" /><path
         id="path76"
         style="fill:#344776;fill-opacity:1;fill-rule:nonzero;stroke:none"
         d="m 1291,994.48 c 54.71,-35.718 82.2,-43.371 110.55,-109.128 22.68,-52.161 36.28,-99.5 40.25,-145.141 7.37,-79.648 -13.6,-154.488 -65.48,-242.641 91.28,32.59 142.3,130.961 134.65,224.219 -5.95,76.25 -57.83,137.762 -103.47,196.152 -43.08,55.282 -67.18,60.668 -127.27,96.379 l -32.88,21.55 c -15.88,2.26 -25.52,3.4 -30.33,3.4 17.85,-9.64 32.03,-17.29 73.98,-44.79" /><path
         id="path78"
         style="fill:#000000;fill-opacity:1;fill-rule:nonzero;stroke:none"
         d="m 1477.24,1410.89 -11.34,0.85 c 0.28,6.24 5.67,10.77 11.91,10.49 6.23,-0.57 11.05,-5.95 10.49,-12.19 l -11.06,0.85 z m -9.64,-41.39 c -2.27,13.04 -2.83,27.22 -1.7,42.24 l 22.4,-1.7 c -0.86,-13.04 -0.29,-25.51 1.7,-36.85 l -22.4,-3.69 z m 24.38,-55.55 c -12.47,14.17 -20.69,33.16 -24.38,55.55 l 22.4,3.69 c 2.83,-18.14 9.35,-33.45 18.99,-44.22 l -17.01,-15.02 z m 51.02,-25.23 c -20.69,1.41 -37.98,10.48 -51.02,25.23 l 17.01,15.02 c 9.07,-10.21 20.97,-16.73 35.71,-17.86 l -1.7,-22.39 z m 22.11,1.13 c -7.65,-1.42 -15.02,-1.7 -22.11,-1.13 l 1.7,22.39 c 5.11,-0.28 10.78,0 16.73,0.85 l 3.68,-22.11 z m 178.59,-157.61 c -14.74,88.73 -58.4,177.45 -178.59,157.61 l -3.68,22.11 c 138.05,23.24 187.94,-76.53 204.38,-176.03 l -22.11,-3.69 z m 4.53,-157.041 c 1.7,23.821 6.52,90.431 -4.53,157.041 l 22.11,3.69 c 11.62,-69.17 6.8,-137.758 5.1,-162.43 l -22.68,1.699 z m -0.28,-11.898 c -0.28,2.269 0,5.949 0.28,11.898 l 22.68,-1.699 c -0.57,-4.25 -0.85,-5.379 -0.85,-6.23 l -22.11,-3.969 z m 11.05,1.98 1.14,11.34 c 6.23,-0.851 10.77,-6.23 10.2,-12.473 -0.56,-6.238 -6.23,-10.769 -12.47,-10.199 l 1.13,11.332 z m -278.64,117.359 c 56.69,-54.43 146.55,-92.691 279.78,-106.019 l -2.27,-22.672 c -138.61,14.172 -232.72,54.701 -293.1,112.531 l 15.59,16.16 z m -82.21,237.82 c -5.1,-91.84 17.01,-175.74 82.21,-237.82 l -15.59,-16.16 c -70.59,67.18 -94.68,157.04 -89.29,255.12 l 22.67,-1.14 z m 24.1,84.48 c -13.04,-10.21 -21.55,-35.72 -24.1,-84.48 l -22.67,1.14 c 3.11,56.12 14.74,86.74 32.59,100.91 l 14.18,-17.57 z m 50.17,-4.25 c -21.26,9.35 -38.83,13.03 -50.17,4.25 l -14.18,17.57 c 19.85,15.59 44.51,11.62 73.71,-1.13" /><path
         id="path80"
         style="fill:#863a1f;fill-opacity:1;fill-rule:nonzero;stroke:none"
         d="m 1477.24,1410.89 c -50.74,22.68 -84.76,15.02 -90.43,-89.86 -9.63,-177.16 79.09,-326.268 372.19,-355.749 -1.41,7.938 46.49,376.159 -195.59,335.629 -58.96,-9.64 -91.27,41.67 -86.17,109.98" /><path
         id="path82"
         style="fill:#da5840;fill-opacity:1;fill-rule:nonzero;stroke:none"
         d="m 1651.29,1042.39 c -73.7,11.62 -178.59,116.22 -193.33,263.34 103.75,-169.8 232.15,-73.7 193.33,-263.34" /><path
         id="path84"
         style="fill:#4b1d17;fill-opacity:1;fill-rule:nonzero;stroke:none"
         d="m 1470.72,1319.61 c 10.77,-155.34 117.07,-251.43 227.62,-300.18 -149.67,29.75 -312.66,224.78 -227.62,300.18" /><path
         id="path86"
         style="fill:#000000;fill-opacity:1;fill-rule:nonzero;stroke:none"
         d="m 423.031,1410.89 11.34,0.85 c -0.57,6.24 -5.949,10.77 -12.187,10.49 -6.243,-0.57 -10.774,-5.95 -10.493,-12.19 l 11.34,0.85 z m 9.641,-41.39 c 1.98,13.04 2.551,27.22 1.699,42.24 l -22.68,-1.7 c 0.852,-13.04 0.571,-25.51 -1.418,-36.85 l 22.399,-3.69 z m -24.66,-55.55 c 12.468,14.17 20.968,33.16 24.66,55.55 l -22.399,3.69 c -3.113,-18.14 -9.632,-33.45 -18.992,-44.22 l 16.731,-15.02 z m -51.032,-25.23 c 20.981,1.41 38.274,10.48 51.032,25.23 l -16.731,15.02 c -9.07,-10.21 -21.258,-16.73 -36,-17.86 l 1.699,-22.39 z m -22.109,1.13 c 7.66,-1.42 15.031,-1.7 22.109,-1.13 l -1.699,22.39 c -5.097,-0.28 -10.769,0 -16.718,0.85 l -3.692,-22.11 z m -63.211,0 c 18.141,3.69 39.121,3.97 63.211,0 l 3.692,22.11 c -26.93,4.54 -50.461,4.25 -71.442,0.28 l 4.539,-22.39 z m -80.789,-56.69 c 18.43,28.34 44.223,49.6 80.789,56.69 l -4.539,22.39 c -43.078,-8.78 -73.699,-33.73 -95.238,-66.89 l 18.988,-12.19 z M 155.16,1130.54 c 5.953,36.85 17,73.42 35.711,102.62 l -18.988,12.19 c -20.692,-32.03 -32.602,-71.72 -39.121,-111.12 l 22.398,-3.69 z m -3.117,-162.989 c -0.57,3.687 -10.492,82.769 3.117,162.989 l -22.398,3.69 c -13.891,-83.62 -3.68,-167.25 -2.828,-171.21 l 22.109,4.531 z m -11.063,-2.27 -1.128,11.34 c -6.239,-0.851 -10.77,-6.23 -9.918,-12.473 0.558,-6.238 5.949,-10.769 12.187,-10.199 l -1.141,11.332 z M 419.91,1082.64 C 362.941,1028.21 273.082,989.949 139.852,976.621 l 2.269,-22.672 c 138.609,14.172 233,54.701 293.383,112.531 l -15.594,16.16 z m 82.211,237.82 c 4.82,-91.84 -17.289,-175.74 -82.211,-237.82 l 15.594,-16.16 c 70.297,67.18 94.398,157.04 89.008,255.12 l -22.391,-1.14 z m -24.098,84.48 c 13.04,-10.21 21.258,-35.72 24.098,-84.48 l 22.391,1.14 c -3.121,56.12 -14.461,86.74 -32.602,100.91 l -13.887,-17.57 z m -50.453,-4.25 c 21.543,9.35 38.832,13.03 50.453,4.25 l 13.887,17.57 c -19.558,15.59 -44.5,11.62 -73.418,-1.13" /><path
         id="path88"
         style="fill:#863a1f;fill-opacity:1;fill-rule:nonzero;stroke:none"
         d="m 423.031,1410.89 c 50.461,22.68 84.473,15.02 90.141,-89.86 9.922,-177.16 -79.078,-326.268 -372.192,-355.749 -1.699,8.219 -46.4878,376.159 195.883,335.629 58.668,-9.64 90.989,41.67 86.168,109.98" /><path
         id="path90"
         style="fill:#da5840;fill-opacity:1;fill-rule:nonzero;stroke:none"
         d="m 248.984,1042.39 c 73.422,11.62 178.301,116.22 193.321,263.34 -104.032,-169.8 -232.442,-73.7 -193.321,-263.34" /><path
         id="path92"
         style="fill:#4b1d17;fill-opacity:1;fill-rule:nonzero;stroke:none"
         d="m 429.27,1319.61 c -10.493,-155.34 -117.071,-251.43 -227.34,-300.18 149.386,29.75 312.379,224.78 227.34,300.18" /><path
         id="path94"
         style="fill:#000000;fill-opacity:1;fill-rule:nonzero;stroke:none"
         d="m 1331.82,1273.13 -4.25,10.49 c -5.95,-2.27 -8.51,-9.07 -6.24,-14.74 2.55,-5.67 9.07,-8.51 14.74,-6.24 l -4.25,10.49 z m 190.49,119.06 c -55.84,-46.21 -121.32,-78.24 -194.74,-108.57 l 8.5,-20.98 c 75.4,31.18 142.87,64.06 200.69,111.97 l -14.45,17.58 z m 137.76,192.47 c -35.71,-86.75 -82.2,-146.84 -137.76,-192.47 l 14.45,-17.58 c 58.4,48.19 106.87,110.83 144,201.26 l -20.69,8.79 z m 11.06,10.2 c 3.97,-1.7 -7.37,-0.85 -11.06,-10.2 l 20.69,-8.79 c 10.21,24.66 8.79,35.72 -0.85,39.68 l -8.78,-20.69 z m -7.37,-7.08 c 5.67,3.4 5.1,7.93 7.37,7.08 l 8.78,20.69 c -8.22,3.41 -16.72,-1.7 -28.06,-8.5 l 11.91,-19.27 z m -10.21,-5.96 c 3.4,1.98 6.81,3.97 10.21,5.96 l -11.91,19.27 c -2.55,-1.7 -5.67,-3.41 -9.35,-5.39 l 11.05,-19.84 z m -233.01,-95.81 c 89.3,28.06 175.19,63.2 233.01,95.81 l -11.05,19.84 c -56.7,-32.03 -140.88,-66.61 -228.76,-94.11 l 6.8,-21.54 z m -236.97,-51.03 c 69.16,5.68 154.49,25.23 236.97,51.03 l -6.8,21.54 c -81.07,-25.23 -164.69,-44.5 -232.16,-50.17 l 1.99,-22.4 z m -1.14,11.34 8.79,7.38 c -4.25,4.53 -11.34,5.1 -16.16,1.12 -4.53,-3.96 -5.1,-11.04 -1.13,-15.86 l 8.5,7.36 z m 60.38,-44.5 c -19.56,18.14 -37.98,35.72 -51.59,51.88 l -17.29,-14.74 c 14.74,-17.3 33.45,-34.87 53.29,-53.58 l 15.59,16.44 z m 99.78,-125.29 c -13.32,44.22 -58.39,86.45 -99.78,125.29 l -15.59,-16.44 c 39.4,-36.85 82.21,-77.1 93.83,-115.37" /><path
         id="path96"
         style="fill:#dcdcd6;fill-opacity:1;fill-rule:nonzero;stroke:none"
         d="m 1331.82,1273.13 c -18.43,61.23 -105.73,122.17 -149.39,173.19 142.3,11.63 355.75,83.06 465.74,145.41 23.24,13.05 38.26,27.23 22.39,-11.32 -72.85,-177.18 -189.92,-246.05 -338.74,-307.28" /><path
         id="path98"
         style="fill:#e8e8e1;fill-opacity:1;fill-rule:nonzero;stroke:none"
         d="m 1273.43,1351.93 c -23.24,36.85 -64.91,63.78 -90.14,93.26 l -0.58,1.13 c 142.02,11.63 355.48,83.34 465.46,145.42 13.61,7.65 24.38,15.59 27.78,13.32 -106.58,-139.46 -263.91,-202.39 -402.52,-253.13" /><path
         id="path100"
         style="fill:#000000;fill-opacity:1;fill-rule:nonzero;stroke:none"
         d="m 499.285,1261.79 3.969,10.49 c 5.949,-2.27 8.789,-8.79 6.519,-14.74 -2.269,-5.67 -8.789,-8.51 -14.46,-6.52 l 3.972,10.77 z m -193.89,113.39 c 57.257,-44.51 123.589,-74.84 197.859,-102.9 l -7.941,-21.26 c -76.25,28.91 -144.571,60.09 -203.809,106.3 l 13.891,17.86 z m -142.872,188.78 c 37.993,-85.6 86.18,-144.28 142.872,-188.78 l -13.891,-17.86 c -59.531,46.49 -109.699,108 -149.391,197.29 l 20.41,9.35 z m -11.328,9.92 c -3.972,-1.7 7.368,-0.85 11.328,-9.92 l -20.41,-9.35 c -10.769,24.38 -9.918,35.43 0,39.68 l 9.082,-20.41 z m 7.649,-6.8 c -5.668,3.12 -5.391,7.94 -7.649,6.8 l -9.082,20.41 c 7.942,3.69 16.45,-1.13 27.782,-7.65 l -11.051,-19.56 z m 10.199,-5.67 c -3.109,1.7 -6.801,3.69 -10.199,5.67 l 11.051,19.56 c 2.839,-1.7 5.96,-3.4 9.64,-5.39 l -10.492,-19.84 z m 235.562,-89.29 c -90.14,25.23 -176.882,58.11 -235.562,89.29 l 10.492,19.84 c 57.551,-30.33 142.867,-62.64 231.309,-87.59 l -6.239,-21.54 z m 238.399,-44.5 c -69.168,3.68 -155.34,20.97 -238.399,44.5 l 6.239,21.54 c 81.64,-22.96 166.109,-39.96 233.57,-43.65 l -1.41,-22.39 z m 0.851,11.05 -8.792,7.09 c 3.679,5.1 11.05,5.67 15.871,1.7 4.82,-3.69 5.671,-10.77 1.699,-15.87 l -8.778,7.08 z m -58.96,-45.92 c 18.699,18.71 36.847,36.85 50.168,53.01 l 17.57,-14.17 c -14.168,-17.3 -32.59,-35.72 -51.867,-54.71 l -15.871,15.87 z m -96.672,-128.13 c 12.191,44.51 56.132,88.16 96.672,128.13 l 15.871,-15.87 c -38.551,-38.27 -79.942,-79.37 -90.422,-118.21" /><path
         id="path102"
         style="fill:#dcdcd6;fill-opacity:1;fill-rule:nonzero;stroke:none"
         d="m 499.285,1261.79 c 16.719,61.51 102.328,124.72 144.57,176.88 -142.589,7.94 -357.742,73.42 -469.421,132.66 -23.809,12.48 -39.121,26.08 -22.11,-12.19 77.668,-174.61 196.442,-240.37 346.961,-297.35" /><path
         id="path104"
         style="fill:#e8e8e1;fill-opacity:1;fill-rule:nonzero;stroke:none"
         d="m 555.41,1341.73 c 22.391,37.97 63.211,66.04 87.59,96.09 l 0.57,1.13 c -142.59,7.66 -357.73,73.14 -469.14,132.39 -13.891,7.36 -24.942,15.02 -28.34,12.46 110.551,-136.35 269.57,-195.01 409.32,-242.07" /><path
         id="path106"
         style="fill:#000000;fill-opacity:1;fill-rule:nonzero;stroke:none"
         d="m 1116.95,330.324 10.49,-4.25 c -2.27,-5.672 -9.07,-8.511 -14.74,-6.242 -5.67,2.27 -8.79,8.789 -6.24,14.461 l 10.49,-3.969 z m 15.02,8.219 c -1.7,-4.25 -3.11,-8.5 -4.53,-12.469 l -20.98,8.219 c 1.42,3.969 2.84,7.648 3.97,11.34 l 21.54,-7.09 z m 3.97,11.91 c -1.13,-3.121 -2.27,-6.808 -3.97,-11.91 l -21.54,7.09 c 1.13,2.832 2.55,7.082 3.97,11.898 l 21.54,-7.078 z m 22.11,54.418 c -9.35,-16.437 -15.87,-35.719 -22.11,-54.418 l -21.54,7.078 c 6.52,19.852 13.61,39.973 24.09,58.403 l 19.56,-11.063 z m 37.42,38.844 c -16.72,-9.363 -28.35,-23.25 -37.42,-38.844 l -19.56,11.063 c 10.78,18.988 25.23,35.711 45.92,47.328 l 11.06,-19.547 z m 55.28,19.269 c -22.4,-6.519 -43.09,-12.472 -55.28,-19.269 l -11.06,19.547 c 14.18,7.941 36.29,14.461 60.1,21.261 l 6.24,-21.539 z m 99.77,45.918 c -18.42,-22.109 -61.22,-34.578 -99.77,-45.918 l -6.24,21.539 c 35.43,10.489 74.55,21.829 88.72,38.84 l 17.29,-14.461 z m 24.95,20.7 c -7.09,-4.258 -15.59,-9.36 -24.95,-20.7 l -17.29,14.461 c 11.91,14.461 22.11,20.692 30.62,25.508 l 11.62,-19.269 z m 25.51,48.75 c -0.28,-33.45 -9.92,-39.399 -25.51,-48.75 l -11.62,19.269 c 8.79,5.391 14.45,8.793 14.45,29.481 l 22.68,0 z m -4.25,10.492 c 2.55,-2.551 4.25,-6.242 4.25,-10.492 l -22.68,0 c 0,2.269 3.97,-7.09 2.56,-5.668 l 15.87,16.16 z m -7.94,-8.223 7.94,8.223 c 4.25,-4.539 4.25,-11.621 0,-16.16 -4.54,-4.25 -11.62,-4.25 -15.87,0 l 7.93,7.937 z m 0.57,11.902 c 2.83,-0.558 5.39,-1.699 7.37,-3.679 l -15.87,-16.16 c -1.42,1.14 5.38,-2.27 3.96,-1.981 l 4.54,21.82 z m -7.09,0 c 2.27,0.571 4.82,0.571 7.09,0 l -4.54,-21.82 c -1.13,0 4.54,0.281 3.41,0 l -5.96,21.82 z m -9.35,-7.652 c 1.98,3.973 5.38,6.524 9.35,7.652 l 5.96,-21.82 c -1.99,-0.57 5.66,5.949 4.81,3.969 l -20.12,10.199 z m 9.92,-5.098 1.13,11.34 c 6.24,-0.851 10.78,-6.242 10.21,-12.48 -0.57,-6.231 -6.24,-10.77 -12.47,-10.199 l 1.13,11.339 z m -161.01,50.739 c 53.29,-16.731 106.3,-33.731 162.14,-39.399 l -2.26,-22.679 c -57.83,6.238 -112.26,23.531 -166.68,40.539 l 6.8,21.539 z m -99.49,28.91 c 33.44,-7.93 66.61,-18.418 99.49,-28.91 l -6.8,-21.539 c -32.32,10.48 -64.63,20.691 -97.8,28.34 l 5.11,22.109 z m -85.04,15.59 c 28.63,-3.969 56.97,-9.071 85.04,-15.59 l -5.11,-22.109 c -27.21,6.519 -54.99,11.621 -83.05,15.308 l 3.12,22.391 z m -86.456,8.222 c 28.91,-1.703 57.826,-4.25 86.456,-8.222 l -3.12,-22.391 c -28.06,3.973 -56.407,6.524 -84.758,8.223 l 1.422,22.39 z m -0.571,-11.05 -1.128,11.05 c 6.238,0.848 11.617,-3.679 12.187,-9.921 0.852,-6.231 -3.969,-11.899 -9.918,-12.469 l -1.141,11.34 z m -95.519,-1.7 c 31.461,5.379 62.918,9.637 94.391,12.75 l 2.269,-22.39 c -31.473,-3.121 -62.371,-7.371 -92.699,-12.762 l -3.961,22.402 z m -92.699,-21.55 c 30.617,8.789 61.508,15.879 92.699,21.55 l 3.961,-22.402 c -30.613,-5.379 -60.942,-12.187 -90.422,-20.687 l -6.238,21.539 z m -98.641,-33.731 c 32.598,11.91 64.91,24.102 98.641,33.731 l 6.238,-21.539 c -32.32,-9.352 -64.629,-21.543 -96.949,-33.454 l -7.93,21.262 z M 502.402,567.305 c 55.563,8.777 108.282,28.34 161.012,47.898 l 7.93,-21.262 C 617.492,574.102 563.633,553.973 505.805,544.902 l -3.403,22.403 z m 1.7,-11.063 9.921,5.391 c 3.122,-5.391 1.129,-12.192 -4.25,-15.309 -5.39,-3.121 -12.191,-1.133 -15.308,4.25 l 9.637,5.668 z m 0.57,12.473 c 3.68,-0.852 7.371,-3.113 9.351,-7.082 l -19.558,-11.059 c -1.133,1.989 6.808,-4.25 4.816,-3.679 l 5.391,21.82 z m -2.551,-10.774 2.551,10.774 c 5.949,-1.41 9.633,-7.371 8.223,-13.602 -1.422,-5.961 -7.372,-9.64 -13.614,-8.218 l 2.84,11.046 z m -4.816,10.774 c 2.258,0.566 4.816,0.566 7.367,0 l -5.391,-21.82 c -1.129,0.277 4.543,0.277 3.403,0 l -5.379,21.82 z m 2.828,-10.774 -2.828,10.774 c 5.949,1.418 12.187,-1.981 13.597,-8.223 1.7,-5.949 -1.98,-12.187 -8.218,-13.597 l -2.551,11.046 z m -9.918,6.813 c 1.976,1.98 4.539,3.398 7.09,3.961 l 5.379,-21.82 c -1.129,-0.293 4.82,3.398 3.968,2.257 l -16.437,15.602 z m -3.973,-10.781 c -0.277,4.539 1.422,7.941 3.973,10.781 l 16.437,-15.602 c -1.418,-1.699 1.993,7.942 2.27,5.672 l -22.68,-0.851 z m 26.93,-47.621 c -15.867,8.793 -25.789,14.171 -26.93,47.621 l 22.68,0.851 c 0.57,-20.691 6.23,-23.519 15.019,-28.34 l -10.769,-20.132 z m 25.512,-19.27 c -9.922,11.051 -18.422,15.59 -25.512,19.27 l 10.769,20.132 c 8.512,-4.82 19.282,-10.492 31.473,-24.101 l -16.73,-15.301 z m 74.839,-47.34 c -26.929,11.903 -53.289,23.242 -74.839,47.34 l 16.73,15.301 c 18.418,-20.692 42.52,-31.18 67.18,-41.949 l -9.071,-20.692 z m 26.93,-12.187 c -8.789,4.527 -17.859,8.5 -26.93,12.187 l 9.071,20.692 c 9.07,-3.969 18.418,-7.942 27.777,-12.469 l -9.918,-20.41 z m 68.879,-39.692 c -23.527,16.442 -50.461,30.328 -68.879,39.692 l 9.918,20.41 c 19.274,-9.641 47.051,-24.383 72,-41.391 l -13.039,-18.711 z m 47.902,-49.32 c -5.671,16.441 -25.222,33.73 -47.902,49.32 l 13.039,18.711 c 25.793,-18.14 48.473,-38.832 56.41,-60.383 l -21.547,-7.648 z m 4.539,-11.898 c -1.992,5.097 -3.121,8.5 -4.539,11.898 l 21.547,7.648 c 1.41,-4.527 3.114,-8.777 4.25,-11.617 l -21.258,-7.929 z m 4.821,-11.911 c -1.699,3.969 -3.403,7.938 -4.821,11.911 l 21.258,7.929 c 1.422,-3.679 2.832,-7.371 4.25,-11.051 l -20.687,-8.789 z m 10.488,4.25 1.699,11.059 c 6.231,-0.852 10.492,-6.809 9.352,-12.762 -1.129,-6.238 -6.801,-10.488 -13.039,-9.347 l 1.988,11.05 z m -44.508,16.161 c 15.879,-1.133 31.469,-2.551 46.207,-5.102 l -3.687,-22.109 c -14.172,2.55 -28.91,3.398 -43.942,4.531 l 1.422,22.68 z m -99.211,28.628 c 24.09,-22.96 61.789,-25.8 99.211,-28.628 l -1.422,-22.68 c -41.66,3.117 -83.621,6.238 -113.379,34.867 l 15.59,16.441 z m -14.461,13.891 14.461,-13.891 -15.59,-16.441 -14.46,13.891 15.589,16.441 z m -7.648,-8.223 10.199,4.532 c 2.559,-5.95 0,-12.469 -5.949,-15.02 -5.672,-2.269 -12.191,0.281 -14.742,5.949 l 10.492,4.539 z M 446.844,560.215 C 515.723,507.492 587.152,453.063 621.453,373.973 l -20.691,-9.071 c -32.028,73.993 -101.199,126.43 -167.528,177.45 l 13.61,17.863 z M 297.453,849.633 c -46.48,-139.75 48.762,-212.602 149.391,-289.418 l -13.61,-17.863 c -107.429,81.921 -208.91,159.312 -157.32,314.363 l 21.539,-7.082 z m 60.668,126.14 c -29.476,-57.261 -53.297,-103.75 -60.668,-126.14 l -21.539,7.082 c 8.219,24.379 32.32,71.148 62.078,129.547 l 20.129,-10.489 z M 510.055,1313.94 C 477.742,1208.78 409.422,1075.83 358.121,975.773 l -20.129,10.489 c 51.02,98.928 118.77,231.298 150.242,334.198 l 21.821,-6.52 z m -28.063,177.45 c 56.41,-17.29 55.563,-87.87 28.063,-177.45 l -21.821,6.52 c 23.809,77.1 27.489,136.92 -12.761,149.39 l 6.519,21.54 z m -3.117,-10.76 10.77,-3.13 c -1.704,-6.24 -7.93,-9.64 -13.891,-7.65 -6.231,1.7 -9.633,7.93 -7.652,13.89 l 10.773,-3.11 z m 20.129,15.58 c -3.973,-4.82 -7.09,-11.06 -9.359,-18.71 l -21.543,6.24 c 3.121,10.77 7.652,19.56 13.32,26.64 l 17.582,-14.17 z m 16.148,10.77 c -5.949,-1.7 -11.621,-5.1 -16.148,-10.77 l -17.582,14.17 c 7.66,9.64 17.293,15.59 28.351,18.43 l 5.379,-21.83 z m 22.403,-1.42 c -7.942,2.57 -15.59,2.84 -22.403,1.42 l -5.379,21.83 c 10.77,2.55 22.391,1.98 34.301,-1.42 l -6.519,-21.83 z m 32.597,-17.85 c -11.058,8.78 -22.109,15.02 -32.597,17.85 l 6.519,21.83 c 13.039,-3.97 26.641,-11.34 40.25,-22.11 l -14.172,-17.57 z m 7.082,8.78 6.809,-9.07 c -4.82,-3.68 -11.91,-2.83 -15.879,1.99 -3.68,4.82 -2.832,11.9 1.988,15.87 l 7.082,-8.79 z m 338.18,-2.55 c -42.242,24.38 -185.961,107.44 -331.371,-6.52 l -13.891,17.86 c 157.321,123.31 311.243,34.3 356.602,7.94 l -11.34,-19.28 z m 14.168,-7.37 c -3.117,0.85 -7.648,3.4 -14.168,7.37 l 11.34,19.28 c 5.098,-2.84 8.777,-4.82 9.348,-5.09 l -6.52,-21.56 z m 3.121,10.77 3.68,-10.77 c -5.949,-1.98 -12.469,1.42 -14.449,7.37 -1.7,5.95 1.41,12.19 7.371,14.19 l 3.398,-10.79 z m 13.32,-5.1 c -4.531,-2.83 -7.371,-4.82 -9.64,-5.67 l -7.078,21.56 c 0.847,0.27 1.129,0.84 3.968,2.82 l 12.75,-18.71 z m 331.367,13.04 c -152.5,109.42 -298.769,9.36 -331.367,-13.04 l -12.75,18.71 c 35.141,24.09 191.897,131.24 357.437,12.47 l -13.32,-18.14 z m 6.8,9.07 7.37,-8.5 c -4.81,-3.97 -11.9,-3.69 -15.87,1.13 -4.25,4.54 -3.68,11.91 0.85,15.88 l 7.65,-8.51 z m 40.26,11.62 c -10.49,-3.4 -21.83,-10.2 -32.89,-20.12 l -15.02,17.01 c 13.61,11.9 27.5,20.12 41.1,24.66 l 6.81,-21.55 z m 21.54,1.99 c -6.24,1.42 -13.61,0.56 -21.54,-1.99 l -6.81,21.55 c 11.34,3.68 22.68,4.53 33.17,2.55 l -4.82,-22.11 z m 16.16,-9.64 c -4.54,5.1 -9.92,8.22 -16.16,9.64 l 4.82,22.11 c 10.77,-2.27 20.41,-7.94 28.34,-17.01 l -17,-14.74 z m 9.92,-18.43 c -2.55,7.94 -5.95,13.89 -9.92,18.43 l 17,14.74 c 5.96,-6.8 10.78,-15.31 14.46,-26.08 l -21.54,-7.09 z m 10.77,3.69 -3.97,10.49 c 5.95,2.27 12.47,-0.85 14.46,-6.81 2.27,-5.66 -0.85,-12.18 -6.81,-14.45 l -3.68,10.77 z m -22.96,-174.33 c -33.17,91.84 -38.27,164.13 18.99,184.82 l 7.65,-21.26 c -41.38,-14.74 -34.01,-76.54 -5.38,-155.91 l -21.26,-7.65 z m 138.9,-288.28 c -50.18,93.54 -107.44,200.41 -138.9,288.28 l 21.26,7.65 c 31.18,-86.45 87.87,-192.47 137.76,-285.16 l -20.12,-10.77 z m 93.82,-198.146 c -6.23,34.867 -46.77,110.559 -93.82,198.146 l 20.12,10.77 c 47.91,-89.287 89.29,-166.677 96.1,-204.947 l -22.4,-3.969 z M 1440.1,587.992 c 88.44,73.129 172.63,142.871 152.5,254.832 l 22.4,3.969 c 22.39,-124.719 -66.62,-198.711 -160.44,-276.379 l -14.46,17.578 z M 1270.59,393.254 c 32.31,80.789 102.33,138.609 169.51,194.738 l 14.46,-17.578 c -65.2,-53.851 -132.67,-109.98 -162.71,-185.66 l -21.26,8.5 z m 10.77,-4.25 -8.22,7.648 c 4.25,4.539 11.34,4.821 15.87,0.571 4.54,-4.25 4.82,-11.621 0.29,-16.16 l -7.94,7.941 z m -22.39,-6.813 14.17,14.461 16.16,-15.589 -13.89,-14.461 -16.44,15.589 z m -98.65,-33.726 c 37.42,4.816 75.4,9.637 98.65,33.726 l 16.44,-15.589 c -28.92,-30.039 -70.87,-35.43 -112.26,-40.528 l -2.83,22.391 z m -45.92,-7.082 c 15.02,3.109 30.61,5.101 45.92,7.082 l 2.83,-22.391 c -15.02,-1.992 -30.04,-3.691 -43.93,-6.801" /><path
         id="path108"
         style="fill:#863a1f;fill-opacity:1;fill-rule:nonzero;stroke:none"
         d="m 1116.95,330.324 c 51.31,11.34 113.95,6.52 150.24,43.938 l 14.17,14.742 c 73.98,185.668 359.15,251.43 322.58,455.809 -20.41,113.378 -368.79,605.477 -221.1,658.767 -15.59,46.77 -58.39,46.2 -98.65,10.77 -176.31,126.43 -343.268,-14.46 -351.487,-17.01 -15.031,4.54 -183.691,133.8 -355.469,-0.85 -41.382,33.17 -84.472,31.47 -98.359,-15.86 C 622.305,1436.4 318.434,948.844 286.684,853.313 205.613,609.824 526.781,563.613 611.254,369.441 l 14.461,-13.886 c 37.129,-35.723 99.488,-27.782 151.367,-36.571 -3.41,7.661 -6.238,15.59 -9.07,23.25 -13.61,37.981 -84.758,76.528 -122.75,95.52 -34.86,17.578 -71.141,26.648 -98.36,56.98 -28.629,32.028 -47.898,15.868 -49.32,59.528 -0.277,4.25 5.102,4.82 6.52,1.98 90.992,14.172 173.48,56.41 261.07,81.922 60.09,17.289 122.461,27.5 185.101,34.02 57.257,-3.692 114.237,-10.77 169.507,-23.813 88.45,-20.699 171.78,-58.957 263.06,-68.598 1.7,2.829 6.8,2.551 6.8,-1.421 -0.28,-43.938 -19.84,-28.629 -47.9,-62.079 -26.36,-31.75 -117.36,-43.652 -151.66,-62.929 -37.41,-20.692 -52.15,-60.66 -64.91,-99.492 -2.55,-7.661 -5.1,-15.879 -8.22,-23.528" /><path
         id="path110"
         style="fill:#000000;fill-opacity:1;fill-rule:nonzero;stroke:none"
         d="m 625.348,920.168 c -43.782,0 -123.961,-8.957 -169.012,-68.957 -35.598,-47.453 -40.617,-116.301 -14.93,-204.66 0.762,-2.602 0.602,-5.383 -0.461,-7.883 -27.886,-65.73 -25.179,-124.527 8.082,-174.758 65.758,-99.359 255.871,-163.543 484.328,-163.543 242.655,0 443.675,68.883 512.125,175.481 33.12,51.59 34.67,111.031 4.62,176.703 -1.13,2.457 -1.38,5.25 -0.68,7.867 23.03,88 16.55,156.172 -19.29,202.59 -44.29,57.383 -121.16,65.953 -163.04,65.953 -72.23,0 -135.22,-23.973 -154.39,-47.141 -3.25,-3.941 -8.69,-5.34 -13.43,-3.422 -53.48,21.391 -106.141,32.54 -156.512,33.172 -0.34,0.02 -0.653,0 -0.981,0 l -1.14,0 c -50,-2.179 -102.41,-14.742 -155.25,-37.332 -4.699,-1.98 -10.121,-0.758 -13.469,3.071 -18.211,20.781 -75.77,42.859 -146.57,42.859 M 933.355,276.84 c -187.917,0 -418.988,45.73 -503.949,174.078 -37.211,56.223 -41.148,121.16 -11.738,193.07 -26.539,93.95 -19.871,168.41 19.859,221.34 51.18,68.192 139.641,78.383 187.821,78.383 65.531,0 128.539,-18.113 158.16,-44.742 52.969,21.761 105.629,33.91 156.621,36.109 l 0.168,0.012 c 1.769,0.41 3.609,0.379 5.359,-0.039 50.11,-0.953 102.164,-11.672 154.874,-31.883 30.43,28.93 98.17,49.312 166.56,49.312 46.2,0 131.23,-9.75 181.67,-75.089 39.94,-51.762 48.17,-125.383 24.46,-218.883 31.79,-71.918 29.13,-137.641 -7.94,-195.36 C 1376.99,325.629 1123.56,276.84 933.355,276.84" /><path
         id="path112"
         style="fill:#fad4c5;fill-opacity:1;fill-rule:nonzero;stroke:none"
         d="m 942.906,923.613 -1.129,-0.277 -1.14,0 c -45.641,-1.992 -99.492,-12.481 -159.871,-38.27 -64.352,73.418 -450.989,103.18 -350.649,-241.8 -206.082,-485.571 1249.793,-464.59 1030.683,14.179 90.99,347.515 -294.8,307.27 -357.17,231.871 -60.94,24.379 -115.083,33.45 -160.724,34.02" /><path
         id="path114"
         style="fill:#000000;fill-opacity:1;fill-rule:nonzero;stroke:none"
         d="m 699.125,810.23 c 53.012,-59.812 63.211,-137.48 22.961,-173.48 -39.969,-36 -115.371,-16.723 -168.09,42.801 -53.012,59.808 -63.219,137.199 -22.961,173.199 39.961,36.277 115.371,17.008 168.09,-42.52" /><path
         id="path116"
         style="fill:#391f17;fill-opacity:1;fill-rule:nonzero;stroke:none"
         d="m 665.109,751.551 c -2.828,17.293 1.422,39.691 17.864,49.043 6.226,3.679 13.597,3.969 21.539,3.117 -1.699,1.98 -3.403,4.25 -5.379,6.519 -52.731,59.524 -128.133,78.801 -168.102,42.524 -40.25,-36 -30.051,-113.672 22.961,-173.203 52.731,-59.528 128.129,-78.797 168.098,-42.797 5.672,5.098 10.203,11.047 13.89,17.566 -33.449,22.961 -64.347,57.262 -70.871,97.231" /><path
         id="path118"
         style="fill:#57281a;fill-opacity:1;fill-rule:nonzero;stroke:none"
         d="m 669.645,669.629 c -21.54,22.68 -44.79,52.441 -45.348,85.891 -0.57,45.07 31.738,64.91 66.891,62.929 -52.153,53.012 -122.172,68.602 -160.153,34.301 -40.258,-36 -30.051,-113.672 22.961,-173.199 49.602,-56.121 119.051,-76.25 160.442,-48.75 -16.161,11.621 -31.18,24.66 -44.793,38.828" /><path
         id="path120"
         style="fill:#863a1f;fill-opacity:1;fill-rule:nonzero;stroke:none"
         d="m 626.844,670.195 c -24.09,30.903 -46.77,73.133 -40.821,113.953 6.52,43.661 44.79,53.008 83.911,53.29 -48.762,37.14 -105.743,45.07 -138.903,15.308 -40.25,-36 -30.047,-113.668 22.961,-173.199 37.422,-42.52 86.461,-64.34 126.141,-60.371 -19.84,14.742 -37.981,31.742 -53.289,51.019" /><path
         id="path122"
         style="fill:#000000;fill-opacity:1;fill-rule:nonzero;stroke:none"
         d="m 672.48,614.637 c -40.539,-0.571 -87.019,23.242 -121.32,62.359 -26.078,29.481 -43.09,64.07 -47.34,97.512 -4.539,34.019 4.25,62.93 24.66,81.359 13.61,12.192 31.75,18.711 52.161,18.992 40.531,0.571 87.019,-23.242 121.32,-62.082 54.141,-61.23 64.352,-141.449 22.68,-178.859 -13.61,-12.191 -31.75,-19 -52.161,-19.281 m -91.558,252.57 c -18.711,-0.289 -35.152,-6.238 -47.34,-17.289 -18.422,-16.449 -26.359,-42.809 -22.109,-74.27 4.25,-32.031 20.41,-65.199 45.359,-93.55 32.879,-37.129 77.098,-60.09 115.367,-59.52 18.711,0.281 35.153,6.231 47.344,17 38.547,34.59 28.059,109.988 -23.25,167.82 -33.16,37.411 -77.383,60.372 -115.371,59.809" /><path
         id="path124"
         style="fill:#000000;fill-opacity:1;fill-rule:nonzero;stroke:none"
         d="m 1182.72,816.746 c -51.31,-60.937 -59.24,-138.898 -18.14,-173.758 41.1,-34.871 115.65,-13.89 166.96,47.328 51.02,61.231 59.24,138.903 18.14,173.774 -41.1,35.148 -115.94,13.887 -166.96,-47.344" /><path
         id="path126"
         style="fill:#391f17;fill-opacity:1;fill-rule:nonzero;stroke:none"
         d="m 1218.43,759.203 c 2.27,17.57 -2.82,39.402 -19.28,48.473 -6.22,3.398 -13.88,3.687 -21.54,2.551 1.7,2.269 3.12,4.539 5.1,6.519 51.03,61.231 125.86,82.488 166.97,47.34 41.11,-34.859 32.88,-112.531 -18.14,-173.762 -51.31,-61.23 -125.86,-82.211 -166.97,-47.34 -5.94,4.821 -10.49,10.493 -14.44,17.012 32.87,24.09 62.91,59.238 68.3,99.207" /><path
         id="path128"
         style="fill:#57281a;fill-opacity:1;fill-rule:nonzero;stroke:none"
         d="m 1216.17,677.285 c 20.97,23.238 43.09,53.57 42.79,86.738 -0.55,45.352 -33.44,64.352 -68.59,61.512 50.74,54.141 120.18,72 159.31,38.551 41.1,-34.863 32.87,-112.531 -18.14,-173.762 -48.19,-57.539 -117.08,-79.648 -159.31,-53.011 15.88,11.91 30.62,25.23 43.94,39.972" /><path
         id="path130"
         style="fill:#863a1f;fill-opacity:1;fill-rule:nonzero;stroke:none"
         d="m 1258.68,678.984 c 23.25,31.461 44.8,74.27 37.71,115.09 -7.66,43.371 -46.21,51.59 -85.05,50.742 47.34,38.829 104.32,48.188 138.34,19.27 41.09,-34.859 32.87,-112.531 -18.14,-173.762 -36.58,-43.648 -84.77,-66.621 -124.72,-63.777 19.56,15.019 37.41,32.598 51.86,52.437" /><path
         id="path132"
         style="fill:#000000;fill-opacity:1;fill-rule:nonzero;stroke:none"
         d="m 1214.75,622.293 c 40.54,0.57 86.17,25.508 119.62,65.48 25.23,30.047 41.1,65.2 44.51,98.93 3.68,34.02 -5.96,62.649 -26.65,80.5 -14.17,11.91 -32.31,17.86 -53.01,17.578 -40.25,-0.57 -86.17,-25.508 -119.62,-65.48 -52.44,-62.649 -60.38,-143.149 -17.57,-179.438 13.89,-11.902 32.31,-17.851 52.72,-17.57 m 84.47,254.828 c 18.99,0.289 35.44,-5.379 47.91,-15.867 18.99,-16.16 27.49,-42.242 24.09,-73.703 -3.4,-32.028 -18.42,-65.758 -42.8,-94.68 -32.03,-38.258 -75.4,-62.359 -113.67,-62.93 -18.71,-0.281 -35.15,5.391 -47.91,15.879 -39.4,33.453 -30.89,109.133 18.71,168.383 32.03,38.258 75.69,62.36 113.67,62.918" /><path
         id="path134"
         style="fill:#000000;fill-opacity:1;fill-rule:nonzero;stroke:none"
         d="m 589.711,1648.72 3.687,0 c 20.692,35.43 59.243,59.53 103.461,60.09 25.789,0.57 50.168,-7.37 70.02,-20.97 15.019,16.44 33.441,29.48 54.422,37.98 17.859,43.66 60.66,74.84 111.117,75.4 58.391,0.85 107.722,-39.4 120.472,-94.11 21.83,26.08 54.71,42.52 91.28,43.09 67.46,1.13 122.74,-52.72 123.59,-120.19 l 0,-4.82 c 67.46,1.14 122.74,-52.72 123.59,-120.19 1.13,-67.18 -52.73,-122.74 -120.19,-123.59 -61.8,-0.85 -113.39,44.51 -122.17,104.03 -20.98,-35.43 -59.25,-59.52 -103.47,-60.09 -32.88,-0.57 -62.641,11.91 -85.04,32.6 -22.96,-14.74 -50.171,-23.53 -79.652,-23.81 l -1.988,0 c -18.992,-41.67 -60.66,-70.59 -109.41,-71.44 -46.782,-0.56 -87.879,25.23 -108.852,63.78 -19,-13.32 -42.238,-21.26 -67.469,-21.54 -67.461,-0.85 -122.742,53.01 -123.589,120.19 -1.129,67.46 52.73,122.74 120.191,123.59" /><path
         id="path136"
         style="fill:#fad4c5;fill-opacity:1;fill-rule:nonzero;stroke:none"
         d="m 1221.27,587.426 c 0,0 101.76,48.469 152.79,-25.801 50.74,-74.258 7.37,-145.41 -32.6,-183.68 -40.25,-38.269 -121.89,-80.218 -195.31,-41.668 -73.42,38.27 -77.67,111.688 -18.42,176.879" /><path
         id="path138"
         style="fill:#000000;fill-opacity:1;fill-rule:nonzero;stroke:none"
         d="m 1086.99,427.777 c -0.09,-0.961 -0.17,-1.922 -0.23,-2.898 -0.57,-8.883 0.36,-17.731 2.77,-26.313 4.49,-18.23 16.14,-35.589 32.82,-48.949 2.01,-1.711 4.24,-3.379 6.48,-5.058 l 6.71,-4.481 c 1.41,-1.051 2.89,-1.859 4.32,-2.652 0.93,-0.52 1.85,-1.028 2.73,-1.571 l 7.5,-3.878 c 10.24,-4.84 21.16,-8.418 32.41,-10.622 5.25,-0.988 11.01,-1.628 17.6,-1.949 6.07,-0.269 12.52,-0.211 17.88,0.282 10.91,0.507 22.55,2.621 35.65,6.449 23.85,7.101 46.07,18.261 66.03,33.148 5,3.633 9.8,7.57 14.45,11.391 4.76,4.453 9.22,8.922 13.37,13.351 8.71,9.289 16.15,18.75 22.76,28.942 13.99,21.707 22.21,44.949 23.8,67.148 1.99,27.77 -6.94,50.531 -14.79,64.75 -1.29,2.051 -2.81,4.481 -4.01,6.871 -0.5,0.789 -1.14,1.719 -1.77,2.641 -0.89,1.316 -1.76,2.598 -2.44,3.777 -0.4,0.52 -0.92,1.18 -1.43,1.852 -1.19,1.527 -2.34,3 -3.34,4.621 -0.66,0.726 -1.49,1.617 -2.31,2.508 -0.88,0.949 -1.75,1.91 -2.64,2.941 -7.27,7.551 -15.01,13.438 -22.94,17.399 -7.17,3.949 -15.31,6.91 -24.25,8.808 8.64,-2.078 16.59,-5.137 23.97,-9.226 8.11,-4.641 15.6,-10.672 22.3,-17.942 0.82,-1.129 1.57,-2.012 2.31,-2.89 0.81,-0.961 1.62,-1.93 2.37,-2.95 0.69,-1 1.47,-1.968 2.24,-2.961 0.79,-1 1.57,-2 2.3,-3 0.92,-1.82 1.85,-3.238 2.81,-4.73 l 1.21,-1.879 c 1.47,-2.352 2.64,-4.699 3.77,-6.961 10.41,-19.59 15.12,-42.098 13.23,-63.348 -1.62,-21.402 -9.86,-43.96 -23.83,-65.203 -13.6,-20.687 -30.81,-38.886 -49.77,-52.629 -19.09,-14.308 -41.34,-25.679 -64.32,-32.871 -24.96,-7.179 -48.78,-8.84 -69.5,-4.867 -10.77,1.66 -21.62,4.949 -32.16,9.77 l -5.34,2.55 -2,1.278 c -2.4,1.043 -4.76,2.512 -7.04,3.941 l -6.54,3.969 c -1.61,1.019 -3.09,2.16 -4.62,3.359 -0.66,0.512 -1.32,1.032 -2.01,1.551 -16.6,12.801 -28.72,30.102 -33.28,47.492 -3.01,10.18 -3.71,20.141 -3.23,29.039 m 120.52,-112.242 c -2.55,0 -5.1,0.07 -7.59,0.203 -6.76,0.309 -12.69,0.981 -18.12,2.008 -11.56,2.25 -22.77,5.922 -33.33,10.91 l -7.68,3.981 c -0.98,0.609 -1.84,1.082 -2.71,1.558 -1.54,0.864 -3.14,1.731 -4.66,2.883 l -6.72,4.469 c -2.38,1.781 -4.68,3.512 -6.69,5.219 -17.27,13.832 -29.38,31.902 -34.05,50.863 -2.51,8.918 -3.48,18.187 -2.88,27.488 0.57,8.61 2.03,16.762 4.33,24.231 2.18,6.808 4.96,13.66 8.05,19.847 2.84,5.961 5.94,11.043 8.87,15.743 6.41,9.75 11.98,16.328 15.52,20.128 3.64,4.2 5.91,6.469 6.01,6.563 0.69,0.687 1.84,0.719 2.56,0.047 0.72,-0.688 0.78,-1.821 0.12,-2.559 -0.01,-0.019 -1.98,-2.269 -5.63,-6.762 -2.68,-3.097 -8,-9.757 -14.01,-20.167 -3.25,-5.219 -5.89,-10.231 -8.12,-15.403 -2.61,-5.488 -4.89,-11.789 -6.99,-19.316 -3.02,-11.571 -5.47,-29.262 -0.01,-47.75 4.36,-16.66 16,-33.242 31.95,-45.543 0.69,-0.52 1.38,-1.047 2.04,-1.578 1.44,-1.11 2.81,-2.192 4.33,-3.141 l 6.47,-3.941 c 2.33,-1.438 4.47,-2.789 6.91,-3.86 l 1.98,-1.289 1.68,-0.699 3.5,-1.742 c 10.18,-4.649 20.7,-7.848 31.21,-9.481 20.34,-3.879 43.45,-2.207 67.81,4.782 22.54,7.05 44.4,18.218 63.18,32.3 18.63,13.5 35.53,31.371 48.88,51.7 13.62,20.718 21.66,42.671 23.24,63.468 1.82,20.571 -2.74,42.352 -12.84,61.364 -1.16,2.328 -2.25,4.5 -3.61,6.699 l -1.18,1.828 c -1.04,1.602 -2.02,3.121 -2.88,4.84 -0.52,0.703 -1.29,1.66 -2.04,2.609 -0.81,1.031 -1.62,2.063 -2.35,3.102 -0.68,0.949 -1.43,1.832 -2.17,2.699 -0.81,0.961 -1.62,1.93 -2.36,2.949 -6.29,6.832 -13.49,12.621 -21.24,17.051 -13.26,7.352 -28.48,11.262 -46.5,11.949 -0.92,0.024 -1.86,0.031 -2.8,0.031 -11.41,0 -22.53,-1.25 -35,-3.949 -11.76,-2.558 -19.99,-5.32 -23.86,-6.738 -5.33,-1.961 -8.14,-3.094 -8.16,-3.094 -0.93,-0.359 -1.96,0.063 -2.36,0.953 -0.41,0.899 -0.03,1.957 0.85,2.41 0,0 2.87,1.43 8.32,3.731 0.01,0.008 0.44,0.168 0.46,0.168 5.19,2.019 13.03,5.058 23.35,7.57 12.41,3.352 25.62,5.192 39.24,5.442 8.74,0 16.74,-0.75 24.49,-2.301 9.54,-1.981 18.19,-5.09 25.76,-9.27 8.24,-4.109 16.32,-10.25 23.96,-18.179 0.92,-1.082 1.77,-2 2.62,-2.911 0.86,-0.929 1.71,-1.863 2.56,-2.851 1.1,-1.731 2.17,-3.102 3.29,-4.531 0.52,-0.68 1.06,-1.36 1.6,-2.09 0.76,-1.297 1.57,-2.488 2.41,-3.731 0.66,-0.957 1.32,-1.929 1.93,-2.91 1.21,-2.387 2.67,-4.726 3.97,-6.797 8.14,-14.742 17.35,-38.222 15.29,-66.883 -1.63,-22.82 -10.06,-46.648 -24.37,-68.898 -6.74,-10.379 -14.32,-20.012 -23.17,-29.449 -4.21,-4.492 -8.71,-9 -13.4,-13.41 -5.01,-4.121 -9.86,-8.102 -14.93,-11.782 -20.29,-15.14 -42.9,-26.488 -67.16,-33.718 -13.4,-3.91 -25.32,-6.071 -36.44,-6.582 -3.24,-0.309 -6.88,-0.481 -10.73,-0.481" /><path
         id="path140"
         style="fill:#000000;fill-opacity:1;fill-rule:nonzero;stroke:none"
         d="m 1219.29,583.742 c 0,0 2.82,1.418 8.21,3.68 5.11,1.988 13.04,5.109 23.54,7.66 10.48,2.828 23.52,5.098 38.82,5.379 7.66,0 15.59,-0.559 24.1,-2.262 8.22,-1.699 17.01,-4.539 25.24,-9.066 8.5,-4.262 16.43,-10.492 23.51,-17.863 1.7,-1.989 3.4,-3.688 5.11,-5.668 1.41,-2.27 3.11,-4.25 4.81,-6.52 1.14,-1.992 2.84,-4.25 4.26,-6.519 1.13,-2.274 2.56,-4.543 3.97,-6.801 10.48,-19 16.72,-41.961 15.02,-65.77 -1.7,-23.812 -10.77,-47.34 -24.09,-68.031 -6.81,-10.488 -14.46,-20.129 -22.97,-29.199 -4.25,-4.532 -8.78,-9.071 -13.32,-13.321 -4.82,-3.968 -9.64,-7.941 -14.73,-11.621 -20.14,-15.019 -42.81,-26.359 -66.62,-33.449 -11.63,-3.398 -23.81,-5.949 -36,-6.519 -5.95,-0.571 -12.19,-0.571 -18.15,-0.282 -5.95,0.282 -11.89,0.852 -17.85,1.981 -11.63,2.269 -22.68,5.949 -32.88,10.769 l -3.97,1.993 -1.99,1.128 -1.7,0.848 c -2.27,1.422 -4.82,2.551 -7.09,4.25 l -3.39,2.274 -3.41,2.269 c -2.27,1.699 -4.52,3.398 -6.52,5.098 -17,13.609 -28.91,31.472 -33.45,49.89 -2.55,9.071 -3.39,18.141 -2.82,26.93 0.55,8.5 1.97,16.441 4.25,23.813 2.27,7.089 5.09,13.886 7.93,19.558 2.84,5.949 5.95,11.059 8.78,15.59 5.97,9.07 11.34,15.59 15.31,19.84 3.69,4.262 5.95,6.519 5.95,6.519 0,0 -1.97,-2.257 -5.67,-6.8 -3.68,-4.25 -8.78,-11.059 -14.17,-20.411 -2.83,-4.539 -5.67,-9.636 -8.22,-15.589 -2.82,-5.95 -5.1,-12.469 -7.09,-19.559 -3.68,-14.172 -5.1,-31.461 0,-48.762 4.54,-17.289 16.45,-34.008 32.61,-46.476 2.27,-1.703 4.25,-3.41 6.52,-4.821 l 3.11,-1.992 3.4,-1.98 c 2.27,-1.418 4.54,-2.84 7.09,-3.969 l 1.7,-1.129 1.98,-0.852 3.41,-1.699 c 9.92,-4.539 20.7,-7.941 31.74,-9.64 22.12,-4.25 45.92,-1.7 68.6,4.82 22.68,7.078 44.52,18.141 63.79,32.59 19.55,14.179 36.27,32.32 49.32,52.16 13.03,19.84 21.82,41.961 23.52,64.352 2,22.386 -3.4,44.218 -13.04,62.359 -1.12,2.269 -2.27,4.539 -3.68,6.801 -1.42,2.269 -2.84,4.257 -3.96,6.519 -1.43,1.988 -3.13,3.969 -4.55,5.957 -1.41,1.981 -3.11,3.684 -4.52,5.672 -6.52,7.078 -13.9,13.039 -21.84,17.57 -15.87,8.789 -32.59,11.622 -47.34,12.192 -15.02,0.277 -27.78,-1.703 -38.27,-3.973 -10.48,-2.269 -18.7,-4.82 -24.09,-6.801 -5.39,-1.988 -8.21,-3.117 -8.21,-3.117" /><path
         id="path142"
         style="fill:#d2b093;fill-opacity:1;fill-rule:nonzero;stroke:none"
         d="m 1235.44,368.875 c -3.12,-1.98 -93.54,-1.133 -54.43,72.57 39.12,73.41 170.65,110.828 146.27,21.258" /><path
         id="path144"
         style="fill:#1f1f20;fill-opacity:1;fill-rule:nonzero;stroke:none"
         d="m 1235.44,368.875 c 0,-0.281 -1.42,-0.57 -3.68,-0.852 -2.56,-0.281 -6.24,-0.281 -10.78,-0.281 -4.82,0.281 -10.48,0.852 -16.72,2.262 -6.24,1.699 -13.61,3.969 -20.41,8.512 -3.69,2.547 -7.09,5.379 -9.92,9.347 -2.84,3.692 -4.82,8.223 -5.95,13.039 -1.99,9.922 -0.29,20.692 3.4,30.332 3.4,9.641 8.5,18.989 14.74,27.782 6.52,8.507 13.89,16.437 22.11,23.527 7.93,7.09 17.01,13.32 26.08,18.711 9.35,5.379 18.99,9.641 28.63,12.75 9.63,3.121 19.56,4.82 28.91,5.109 4.82,0 9.35,-0.289 13.89,-1.418 4.53,-0.851 8.79,-2.55 12.47,-5.101 3.69,-2.27 6.52,-5.391 8.79,-8.508 1.98,-3.402 3.12,-7.082 3.97,-10.203 1.41,-6.809 0.85,-12.469 0,-17.008 -0.57,-4.82 -1.7,-8.223 -2.55,-10.492 -0.85,-2.27 -1.14,-3.68 -1.14,-3.68 0,0 0.29,1.41 0.57,3.68 0.28,2.551 0.85,5.953 1.13,10.492 0,4.539 -0.28,10.199 -1.98,15.867 -1.7,5.672 -5.67,11.344 -11.91,14.742 -6.23,3.121 -14.45,4.258 -22.96,3.692 -8.5,-0.852 -17.29,-2.84 -26.08,-6.242 -9.07,-3.121 -17.85,-7.649 -26.36,-12.469 -8.79,-5.102 -17.01,-11.051 -24.66,-17.86 -7.65,-6.519 -14.74,-13.89 -20.69,-21.82 -5.96,-7.941 -10.77,-16.449 -14.46,-24.949 -3.4,-8.5 -5.38,-17.293 -3.97,-25.231 1.14,-7.929 5.67,-14.453 11.34,-18.992 5.67,-4.82 12.19,-7.648 18.14,-9.64 5.96,-1.981 11.34,-3.399 15.88,-3.969 4.25,-0.852 7.93,-1.129 10.49,-1.41 2.26,0 3.68,0 3.68,0.281" /><path
         id="path146"
         style="fill:#66251f;fill-opacity:1;fill-rule:nonzero;stroke:none"
         d="m 1179.32,438.039 c 0,0 26.93,54.141 85.32,69.172 58.4,15.019 64.34,-2.27 54.99,-27.5 -9.08,-24.949 -64.34,-87.59 -98.36,-96.66 -34.31,-9.36 -61.79,9.07 -41.95,54.988" /><path
         id="path148"
         style="fill:#1f1f20;fill-opacity:1;fill-rule:nonzero;stroke:none"
         d="m 1204.83,377.945 c -13.32,0 -23.81,5.102 -29.76,13.891 -5.11,7.648 -9.07,22.391 1.98,47.34 0.28,0.57 28.06,55.558 86.74,70.859 14.74,3.692 26.65,5.391 36,5.391 11.34,0 18.99,-2.551 22.96,-8.5 4.25,-5.961 3.97,-15.313 -0.57,-28.071 -9.07,-24.941 -64.91,-89 -100.34,-98.359 -5.95,-1.699 -11.62,-2.551 -17.01,-2.551 m 94.96,132.379 c -8.79,0 -20.41,-1.988 -34.58,-5.668 -56.41,-14.461 -83.06,-67.179 -83.34,-67.75 -7.94,-17.859 -8.79,-32.601 -2.27,-42.242 4.82,-7.367 13.61,-11.328 25.23,-11.328 4.82,0 10.2,0.848 15.59,2.258 33.45,8.793 88.16,71.722 96.66,95.25 4.25,10.769 4.54,18.422 1.42,23.242 -3.12,3.969 -9.35,6.238 -18.71,6.238" /><path
         id="path150"
         style="fill:#000000;fill-opacity:1;fill-rule:nonzero;stroke:none"
         d="m 1233.18,368.59 -1.43,0 c -2.55,0.281 -6.23,0.57 -10.48,1.422 -4.54,0.558 -9.93,1.98 -15.88,3.968 -3.96,1.411 -7.94,3.11 -11.91,5.379 -1.41,0.293 -2.83,0.852 -3.96,1.141 -1.98,1.133 -3.97,2.262 -5.96,3.402 7.09,-1.14 13.33,-1.703 19.28,-1.703 31.75,0 50.74,15.024 76.82,44.223 35.72,39.969 48.47,50.168 42.52,78.519 0,0 1.43,-1.421 3.12,-4.261 0.28,-1.7 0.56,-3.11 0.56,-4.809 0.57,-0.851 0.85,-1.988 1.14,-3.121 1.7,-5.668 1.98,-11.34 1.98,-15.879 -0.28,-4.531 -0.85,-7.93 -1.12,-10.48 -0.3,-1.141 -0.3,-2.27 -0.57,-2.84 0,-0.281 0,-0.571 -0.29,-1.129 l -91.55,-93.551 -0.3,-0.281 0.3,0.281 91.55,93.551 c -3.69,-10.492 -10.77,-23.531 -23.25,-38.551 -28.05,-34.019 -46.77,-53.012 -69.45,-55.281 0.85,0 1.15,0.281 1.15,0.281 l -0.3,-0.281" /><path
         id="path152"
         style="fill:#1f1f20;fill-opacity:1;fill-rule:nonzero;stroke:none"
         d="m 1327.29,463.551 c 0.27,0.57 0.27,1.703 0.57,2.832 0.27,2.558 0.84,5.961 1.12,10.488 0,4.539 -0.28,10.211 -1.98,15.883 -0.29,1.129 -0.57,2.258 -1.14,3.109 0,1.707 -0.28,3.117 -0.56,4.821 3.68,-5.954 8.22,-18.141 1.99,-37.133 m -97.81,-95.238 c -11.62,0 -24.37,3.96 -39.96,12.179 1.13,-0.281 2.55,-0.851 3.96,-1.129 3.97,-2.269 7.95,-3.972 11.91,-5.383 5.95,-1.988 11.34,-3.41 15.88,-3.968 4.25,-0.852 7.93,-1.141 10.48,-1.418 l 3.4,0 0.3,0.277 c 0,0 -0.3,-0.277 -1.15,-0.277 -1.41,-0.281 -3.1,-0.281 -4.82,-0.281" /><path
         id="path154"
         style="fill:#000000;fill-opacity:1;fill-rule:nonzero;stroke:none"
         d="m 556.543,1196.31 c 31.461,71.72 101.762,137.2 194.742,153.64 56.981,10.2 104.598,-28.07 132.379,-83.91 13.32,-27.21 22.109,-58.67 24.941,-90.71 2.84,-32.31 0,-64.91 -10.492,-94.67 -21.82,-62.08 -75.679,-110.551 -173.187,-111.691 -83.34,-0.852 -136.352,26.078 -163.84,66.621 -15.313,22.39 -22.684,48.75 -22.973,76.53 -0.277,27.5 5.961,56.41 18.43,84.19 m 200.133,135.78 c -83.91,-14.74 -147.973,-75.12 -177.172,-141.45 -11.34,-25.79 -17.289,-52.72 -17.012,-78.24 0.293,-24.94 6.813,-48.47 20.41,-68.31 23.532,-34.58 69.172,-57.543 142.024,-56.981 83.898,1.137 130.387,43.371 149.379,98.081 9.929,27.5 12.758,58.4 9.929,88.73 -2.558,30.33 -10.781,59.81 -23.531,85.6 -23.527,47.34 -61.23,80.22 -104.027,72.57" /><path
         id="path156"
         style="fill:#863a1f;fill-opacity:1;fill-rule:nonzero;stroke:none"
         d="m 753.836,1341.16 c -218.551,-38.83 -307.84,-366.242 -28.91,-363.121 266.738,3.117 181.98,390.051 28.91,363.121" /><path
         id="path158"
         style="fill:#000000;fill-opacity:1;fill-rule:nonzero;stroke:none"
         d="m 554.559,1078.95 c 14.461,-57.83 67.179,-102.048 170.359,-100.907 77.102,0.852 125.012,34.007 150.242,79.927 -49.32,-26.36 -110.84,-34.01 -176.32,-27.21 -55.563,5.95 -105.449,21.54 -144.281,48.19" /><path
         id="path160"
         style="fill:#000000;fill-opacity:1;fill-rule:nonzero;stroke:none"
         d="m 1301.77,1197.44 c -31.18,66.33 -97.8,125.86 -182.83,138.61 -42.52,6.52 -78.52,-26.07 -100.35,-72.85 -12.19,-25.79 -19.559,-55.56 -21.539,-85.89 -1.707,-30.33 1.98,-60.94 12.179,-88.44 20.7,-55.27 68.89,-97.511 153.93,-96.659 72,0.852 116.78,24.379 139.18,58.959 13.04,19.84 18.99,43.37 18.42,68.32 -0.28,25.51 -7.08,52.15 -18.99,77.95 m -177.73,156.76 c 94.11,-14.46 166.96,-78.81 200.69,-150.52 13.04,-27.5 20.13,-56.13 20.69,-83.63 0.29,-27.78 -6.52,-54.14 -21.26,-76.81 -26.36,-40.54 -77.95,-68.318 -161,-69.447 -98.37,-1.141 -153.93,47.047 -177.449,109.697 -11.059,29.48 -15.027,62.36 -13.039,94.39 1.98,32.03 9.922,63.78 22.672,90.99 25.796,55.85 71.996,94.11 128.696,85.33" /><path
         id="path162"
         style="fill:#863a1f;fill-opacity:1;fill-rule:nonzero;stroke:none"
         d="m 1121.49,1345.13 c 219.97,-33.74 320.6,-358.872 41.67,-361.985 -266.742,-3.118 -195.312,385.515 -41.67,361.985" /><path
         id="path164"
         style="fill:#000000;fill-opacity:1;fill-rule:nonzero;stroke:none"
         d="m 1328.7,1082.64 c -14.17,-55.84 -65.48,-98.363 -165.54,-99.503 -70.02,-0.848 -116.51,25.233 -144.57,63.783 45.35,-13.89 97.51,-17.29 152.5,-12.19 61.23,5.67 115.94,21.26 157.61,47.91" /><path
         id="path166"
         style="fill:#fdfdfd;fill-opacity:1;fill-rule:nonzero;stroke:none"
         d="m 1650.12,604.047 c 5.19,-1.59 9.87,-4.852 13.17,-9.539 3.09,-4.391 4.6,-9.481 4.58,-14.551 l 2.5,3.219 2.4,25.199 -22.65,-4.328 z m -89.05,-17.039 7.3,-9.871 53.33,21.468 -60.63,-11.597 z m 24.74,-108.903 -3.01,-22.058 103.65,6.93 -6.91,15.961 -42.24,-12.262 c -10.44,-3.039 -21.65,1.012 -27.76,10.012 -5.78,8.507 -5.74,19.648 -0.04,28.097 l -23.69,-26.68 z m -32.04,-74.23 c -6.93,0 -13.58,2.883 -18.34,7.98 -5.14,5.512 -7.54,13.04 -6.51,20.512 l 8.22,60.098 c 0.68,4.93 2.79,9.543 6.1,13.262 l 14.12,15.898 c -6.93,0.66 -13.46,4.191 -17.81,10.07 l -42.52,57.551 c -5.12,6.942 -6.32,16.012 -3.19,24.039 3.15,8.039 10.19,13.891 18.65,15.512 l 183.68,35.141 c 7.77,1.5 15.75,-0.762 21.61,-6.083 5.84,-5.308 8.83,-13.058 8.08,-20.917 l -6.23,-65.762 c -0.45,-4.75 -2.23,-9.27 -5.16,-13.039 l -18.62,-23.93 c 9.01,-0.75 17.21,-6.34 20.98,-15.062 l 29.76,-68.887 c 3.24,-7.481 2.63,-16.063 -1.61,-23.031 -4.24,-6.95 -11.61,-11.411 -19.74,-11.95 l -169.8,-11.339 c -0.55,-0.043 -1.11,-0.063 -1.67,-0.063" /><path
         id="path168"
         style="fill:#70706f;fill-opacity:1;fill-rule:nonzero;stroke:none"
         d="m 1630.31,490.766 64.35,82.769 6.23,65.77 -183.68,-35.153 42.52,-57.547 83.05,33.45 -80.78,-90.992 -8.23,-60.098 169.8,11.34 -29.76,68.89" /><path
         id="path170"
         style="fill:#70706f;fill-opacity:1;fill-rule:nonzero;stroke:none"
         d="m 1756.45,716.117 49.04,40.25 12.76,37.992 -113.39,3.68 17.57,-39.68 53.3,8.782 -59.82,-43.082 -13.03,-34.301 101.76,-16.16 -8.22,44.793" /><path
         id="path172"
         style="fill:#70706f;fill-opacity:1;fill-rule:nonzero;stroke:none"
         d="m 1842.05,886.766 17.86,34.019 -1.98,24.09 -63.79,-24.66 19,-17.86 27.79,17.29 -23.25,-37.981 0.85,-22.109 60.66,15.019 -15.3,22.961" /></g></g></svg>