<?xml version="1.0" encoding="UTF-8" standalone="no"?>
<svg
   xmlns:dc="http://purl.org/dc/elements/1.1/"
   xmlns:cc="http://creativecommons.org/ns#"
   xmlns:rdf="http://www.w3.org/1999/02/22-rdf-syntax-ns#"
   xmlns:svg="http://www.w3.org/2000/svg"
   xmlns="http://www.w3.org/2000/svg"
   viewBox="0 0 248.03751 248.03751"
   height="248.03751"
   width="248.03751"
   xml:space="preserve"
   version="1.1"
   id="svg2"><metadata
     id="metadata8"><rdf:RDF><cc:Work
         rdf:about=""><dc:format>image/svg+xml</dc:format><dc:type
           rdf:resource="http://purl.org/dc/dcmitype/StillImage" /></cc:Work></rdf:RDF></metadata><defs
     id="defs6" /><g
     transform="matrix(1.25,0,0,-1.25,0,248.0375)"
     id="g10"><g
       transform="scale(0.1,0.1)"
       id="g12"><path
         id="path14"
         style="fill:#fad7c8;fill-opacity:1;fill-rule:evenodd;stroke:none"
         d="m 553.363,1449.22 c -7.371,5.1 -19.558,21.54 -10.492,22.68 84.762,-16.44 184.82,48.47 259.942,53.29 28.351,-11.62 -4.821,-137.48 -36.282,-144.28 -92.976,-62.37 -166.109,-56.41 -213.168,68.31" /><path
         id="path16"
         style="fill:#000000;fill-opacity:1;fill-rule:nonzero;stroke:none"
         d="m 532.953,1457.44 c 2.828,-4.82 7.649,-10.49 12.192,-14.17 24.378,-64.07 56.41,-97.8 94.957,-107.72 38.55,-10.2 82.203,4.25 130.39,36.28 13.332,4.26 25.52,21.55 34.871,43.09 6.801,15.59 12.192,34.02 15.309,51.31 3.109,17.57 3.973,34.58 1.133,46.77 -2.274,10.2 -7.09,17.86 -15.313,21.26 l -4.527,0.85 c -31.473,-1.98 -66.621,-14.17 -102.902,-26.65 -51.59,-17.57 -106.301,-36.28 -154.2,-26.93 l -3.121,0 c -2.84,-0.28 -5.39,-1.41 -7.371,-3.11 -3.969,-3.12 -5.098,-7.37 -4.539,-12.48 0.57,-2.55 1.699,-5.67 3.121,-8.5 m 26.078,-0.28 c -1.136,0.85 -2.269,1.7 -3.398,3.11 48.75,-4.81 100.629,13.04 149.672,29.77 34.008,11.62 66.609,22.68 94.668,25.23 1.14,-1.14 1.699,-3.4 2.55,-6.52 1.989,-9.64 1.141,-23.81 -1.41,-39.12 -3.121,-15.87 -7.941,-32.6 -14.179,-47.06 -7.371,-17.29 -15.59,-30.61 -22.391,-32.03 l -3.68,-1.41 c -43.941,-29.77 -83.058,-43.37 -115.66,-34.87 -32.601,8.5 -60.379,39.4 -82.488,98.36" /><path
         id="path18"
         style="fill:#fad7c8;fill-opacity:1;fill-rule:evenodd;stroke:none"
         d="m 1718.97,1439.02 c 6.8,4.82 17.86,19.55 9.35,20.69 -77.38,-14.75 -168.66,44.5 -237.26,48.75 -26.07,-10.76 4.54,-125.57 33.17,-131.8 85.04,-56.98 151.65,-51.31 194.74,62.36" /><path
         id="path20"
         style="fill:#000000;fill-opacity:1;fill-rule:nonzero;stroke:none"
         d="m 1737.39,1446.67 c -2.55,-4.54 -6.8,-9.64 -10.76,-13.04 -22.68,-58.39 -51.89,-89.29 -87.04,-98.36 -35.14,-9.36 -75.11,3.97 -119.05,33.16 -12.18,3.97 -23.52,19.56 -31.75,39.41 -6.23,14.17 -11.05,30.89 -13.89,46.77 -3.11,16.15 -3.68,31.46 -1.42,42.8 2.27,9.35 6.81,16.44 14.18,19.56 l 3.97,0.57 c 28.91,-1.99 60.94,-12.76 94.11,-24.1 47.33,-16.16 97.22,-33.45 140.89,-24.94 l 2.82,0 c 2.55,-0.29 4.82,-1.14 6.82,-2.55 3.39,-3.12 4.52,-7.09 3.95,-11.34 -0.27,-2.55 -1.41,-5.39 -2.83,-7.94 m -23.53,-0.28 c 0.85,0.56 2,1.7 3.12,2.83 -44.78,-4.25 -92.12,11.91 -136.91,27.21 -30.89,10.49 -60.66,20.7 -86.46,22.96 -0.84,-1.13 -1.7,-3.11 -2.27,-5.95 -1.98,-8.79 -1.13,-21.54 1.43,-35.71 2.54,-14.46 7.09,-29.77 12.75,-43.09 6.52,-15.88 14.18,-27.78 20.69,-29.2 l 3.12,-1.42 c 40.25,-26.92 75.69,-39.4 105.73,-31.46 29.76,7.65 54.99,35.72 75.4,89.57" /><path
         id="path22"
         style="fill:#000000;fill-opacity:1;fill-rule:evenodd;stroke:none"
         d="m 1144.1,676.781 c 88.16,168.09 232.44,308.981 265.04,503.719 9.64,59.52 -65.76,132.09 -75.4,234.14 -60.66,-118.49 -850.107,-600.378 -932.318,-534.902 47.621,54.711 64.07,60.953 131.531,101.762 246.61,148.54 629.577,269.3 755.427,464.89 -37.41,-31.47 -146.26,16.44 -179.43,-20.41 -94.68,-106.02 -635.235,-591.308 -813.259,-471.968 27.211,10.488 75.403,35.148 120.192,63.778 -24.379,1.13 -49.61,5.1 -70.871,10.49 -18.707,4.82 -137.481,56.97 -56.41,38.55 101.203,-23.25 191.062,34.01 174.05,27.49 -60.66,-22.11 -126.418,18.15 -181.418,59.81 -13.89,10.49 -14.742,7.37 -13.601,10.21 0.851,2.83 92.691,-21.26 123.871,-24.38 111.117,-11.62 138.328,20.98 195.309,63.78 86.171,129.83 159.589,269.58 278.082,396.57 174.885,185.95 430.005,0 496.905,-119.34 95.53,-62.65 155.06,-208.63 88.16,-333.92 C 1364.92,986.891 1244.45,840.059 1144.1,676.781" /><path
         id="path24"
         style="fill:#000000;fill-opacity:1;fill-rule:evenodd;stroke:none"
         d="m 1375.41,960.242 c -15.31,198.438 28.06,409.618 -45.35,595.278 -22.4,56.41 -119.63,69.44 -179.15,149.66 C 1168.48,986.895 577.738,680.465 557.332,652.402 c 16.438,26.364 42.238,77.672 63.207,130.672 -20.117,-14.738 -42.23,-27.488 -61.789,-36.558 -17.578,-7.942 -138.621,-39.692 -64.629,-3.403 92.688,45.352 135.207,150.801 124.719,134.641 -37.129,-57.539 -109.699,-65.762 -175.18,-65.762 -16.16,0 -15.308,-2.84 -16.16,0 -0.559,3.121 85.039,41.383 111.41,58.684 94.672,61.219 99.781,106.008 123.301,178.574 2.84,165.27 -9.922,329.95 20.129,513.07 44.789,269.02 342.99,274.97 457.23,216.86 108,7.93 229.89,-77.11 240.38,-225.93 13.6,-189.64 -7.66,-390.89 -4.54,-593.008" /><path
         id="path26"
         style="fill:#000000;fill-opacity:1;fill-rule:evenodd;stroke:none"
         d="m 1177.55,644.184 0,130.957 -229.609,0 0,-157.321 c 26.082,4.821 49.61,5.672 64.069,0.563 33.45,-11.332 39.68,-31.461 75.97,-20.973 36,8.793 65.76,25.231 89.57,46.774" /><path
         id="path28"
         style="fill:#000000;fill-opacity:1;fill-rule:evenodd;stroke:none"
         d="M 1083.44,1777.47 C 961.832,1801.28 854.68,1697.25 842.781,1561.75 818.121,1288.78 829.742,1014.1 823.5,739.992 c 49.043,3.68 98.082,7.371 147.121,10.77 180.279,9.922 359.719,20.133 539.999,30.051 -47.62,272.967 1.42,568.627 -62.64,844.717 -48.19,204.38 -268.45,233.86 -364.54,151.94" /><path
         id="path30"
         style="fill:#000000;fill-opacity:1;fill-rule:evenodd;stroke:none"
         d="m 1156.01,1788.24 0,0 c -165.541,0 -301.322,-133.79 -301.322,-297.63 l 0,-763.376 c 0,-163.839 135.781,-297.921 301.322,-297.921 166.11,0 301.89,134.082 301.89,297.921 l 0,763.376 c 0,163.84 -135.78,297.63 -301.89,297.63" /><path
         id="path32"
         style="fill:#fdfdfd;fill-opacity:1;fill-rule:evenodd;stroke:none"
         d="m 1156.01,1773.5 0,0 c -157.612,0 -286.58,-127.28 -286.58,-282.89 l 0,-763.376 c 0,-155.621 128.968,-282.898 286.58,-282.898 157.89,0 286.58,127.277 286.58,282.898 l 0,763.376 c 0,155.61 -128.69,282.89 -286.58,282.89" /><path
         id="path34"
         style="fill:#000000;fill-opacity:1;fill-rule:evenodd;stroke:none"
         d="m 1103.85,1441.29 c -19.28,9.34 -67.46,-29.2 -73.13,-5.11 -3.69,17.02 -21.83,77.11 -5.67,92.41 24.09,22.11 66.89,37.98 97.79,53.86 20.98,8.78 13.61,27.77 22.96,37.14 14.18,12.18 63.78,-1.14 71.44,-9.93 32.88,-29.2 -1.42,-90.98 -27.22,-116.21 -13.89,-12.48 -26.93,-30.63 -41.67,-42.82 -18.7,-16.43 -20.69,-1.98 -44.5,-9.34 m 209.48,-203.54 c -19.84,46.77 -68.6,93.27 -120.76,45.64 -28.06,-25.23 -32.31,-68.87 -22.96,-107.43 6.81,-29.48 16.16,-55.85 38.27,-76.82 25.51,-23.25 104.88,-16.16 115.37,23.54 5.67,24.36 14.46,35.7 7.66,64.91 -3.12,11.89 -6.24,49.61 -17.58,50.16 M 1157.71,576.152 c 44.22,0.563 86.74,10.481 124.16,26.934 3.11,5.949 5.66,13.316 7.93,21.539 7.37,37.699 -0.56,79.367 7.37,119.051 11.91,60.097 26.93,145.137 -12.19,194.179 -35.15,43.649 -111.4,92.415 -167.81,69.735 -34.86,-13.324 -22.96,-46.496 -80.22,-49.324 -38.829,-1.141 -95.528,-24.672 -103.18,-63.782 -9.071,-42.242 7.652,-102.898 30.05,-142.019 1.7,-5.102 80.5,-127.84 112.25,-144.852 22.11,-11.34 51.87,-23.808 81.64,-31.461 m -295.089,817.228 0,-434.837 c 30.899,17.57 60.102,37.422 89.289,54.997 102.9,62.92 0,277.8 -89.289,379.84" /><path
         id="path36"
         style="fill:#000000;fill-opacity:1;fill-rule:evenodd;stroke:none"
         d="m 804.512,992.277 c 14.742,189.353 26.929,383.523 96.66,560.683 21.539,54.15 114.518,66.34 171.498,143.16 14.17,-161.3 378.14,-670.96 358.58,-956.124 18.43,1.129 31.75,1.699 49.89,1.981 -2.27,356.323 -320.03,666.983 -358.58,952.163 13.04,-48.48 119.62,-76.25 126.71,-126.43 49.32,-338.17 189.07,-510.23 254.26,-787.464 24.67,-0.851 111.97,-88.73 136.35,-90.141 -15.59,24.942 -40.25,74.262 -60.38,124.719 18.99,-14.168 40.25,-26.078 58.96,-34.859 16.73,-7.66 132.38,-37.988 61.8,-3.41 -88.44,43.371 -129.26,144.293 -119.34,128.703 35.43,-55 105.16,-62.653 167.53,-62.653 15.59,0 14.74,-2.828 15.3,0 0.85,2.84 -81.07,39.403 -106.3,55.84 -90.42,58.68 -95.24,101.481 -117.92,170.935 -2.55,157.6 9.64,315.21 -19.27,490.1 -42.81,257.11 -327.69,262.78 -436.82,207.23 C 979.973,1774.36 863.754,1693 853.832,1550.98 840.793,1369.57 807.91,1185.32 804.512,992.277" /><path
         id="path38"
         style="fill:#f6ae94;fill-opacity:1;fill-rule:evenodd;stroke:none"
         d="m 1066.72,155.203 c 286.3,0 519.59,179.434 519.59,399.402 0,219.399 -233.29,398.551 -519.59,398.551 -286.025,0 -519.591,-179.152 -519.591,-398.551 0,-219.968 233.566,-399.402 519.591,-399.402" /><path
         id="path40"
         style="fill:#fad7c8;fill-opacity:1;fill-rule:evenodd;stroke:none"
         d="m 1065.3,313.945 c 268.44,0 487.56,138.61 487.56,308.129 0,170.071 -219.12,308.121 -487.56,308.121 -269.011,0 -488.409,-138.05 -488.409,-308.121 0,-169.519 219.398,-308.129 488.409,-308.129" /><path
         id="path42"
         style="fill:#f6ae94;fill-opacity:1;fill-rule:evenodd;stroke:none"
         d="m 1309.36,555.176 c 97.51,0 176.6,71.719 176.6,159.59 0,88.16 -79.09,160.437 -176.6,160.437 -97.51,0 -176.6,-72.277 -176.6,-160.437 0,-87.871 79.09,-159.59 176.6,-159.59" /><path
         id="path44"
         style="fill:#f6ae94;fill-opacity:1;fill-rule:evenodd;stroke:none"
         d="m 850.148,555.176 c 91.563,0 166.392,66.328 166.392,147.969 0,81.347 -74.829,147.679 -166.392,147.679 -91.839,0 -166.386,-66.332 -166.386,-147.679 0,-81.641 74.547,-147.969 166.386,-147.969" /><path
         id="path46"
         style="fill:#fad7c8;fill-opacity:1;fill-rule:evenodd;stroke:none"
         d="m 1318.15,590.891 c 90.14,0 164.13,62.359 164.13,138.898 0,76.82 -73.99,139.461 -164.13,139.461 -90.71,0 -164.69,-62.641 -164.69,-139.461 0,-76.539 73.98,-138.898 164.69,-138.898" /><path
         id="path48"
         style="fill:#fcebe3;fill-opacity:1;fill-rule:evenodd;stroke:none"
         d="m 1339.69,576.148 c 70.3,0 127.84,61.512 127.84,136.911 0,75.691 -57.54,137.48 -127.84,137.48 -70.02,0 -127.28,-61.789 -127.28,-137.48 0,-75.399 57.26,-137.188 127.28,-136.911" /><path
         id="path50"
         style="fill:#a65f4a;fill-opacity:1;fill-rule:evenodd;stroke:none"
         d="m 1355,605.063 c 51.31,0 93.26,42.242 93.26,94.39 0,51.879 -41.95,93.828 -93.26,93.828 -51.02,0 -92.98,-41.949 -92.98,-93.828 0,-52.148 41.96,-94.39 92.98,-94.39" /><path
         id="path52"
         style="fill:#fad7c8;fill-opacity:1;fill-rule:evenodd;stroke:none"
         d="m 857.52,587.488 c 87.871,0 159.02,60.942 159.02,135.5 0,74.832 -71.149,135.782 -159.02,135.782 -87.59,0 -158.739,-60.95 -158.739,-135.782 0,-74.558 71.149,-135.5 158.739,-135.5" /><path
         id="path54"
         style="fill:#fcebe3;fill-opacity:1;fill-rule:evenodd;stroke:none"
         d="m 866.023,580.402 c 67.75,0 123.02,57.539 123.02,129.258 0,71.153 -55.27,129.543 -123.02,129.543 -67.46,0 -122.168,-58.39 -122.168,-129.543 0,-71.719 54.708,-129.258 122.168,-129.258" /><path
         id="path56"
         style="fill:#a65f4a;fill-opacity:1;fill-rule:evenodd;stroke:none"
         d="m 870.844,605.063 c 57.539,0 104.32,43.371 104.32,96.941 0,53.578 -46.781,97.519 -104.32,97.519 -57.262,0 -104.031,-43.941 -104.031,-97.519 0,-53.57 46.769,-96.941 104.031,-96.941" /><path
         id="path58"
         style="fill:#000000;fill-opacity:1;fill-rule:evenodd;stroke:none"
         d="m 1365.49,627.176 c 33.45,0 61.23,27.207 61.23,61.508 0,33.449 -27.78,61.23 -61.23,61.23 -33.17,0 -60.66,-27.781 -60.66,-61.23 0,-34.301 27.49,-61.508 60.66,-61.508" /><path
         id="path60"
         style="fill:#000000;fill-opacity:1;fill-rule:evenodd;stroke:none"
         d="m 864.039,630.859 c 38.27,0 69.731,29.481 69.731,64.911 0,36 -31.461,64.918 -69.731,64.918 -38.269,0 -69.168,-28.918 -69.168,-64.918 0,-35.43 30.899,-64.911 69.168,-64.911" /><path
         id="path62"
         style="fill:#000000;fill-opacity:1;fill-rule:nonzero;stroke:none"
         d="m 1106.4,543.27 c 0,0 -96.66,20.687 -186.517,-69.172 -89.57,-89.852 -100.91,-136.629 -122.742,-208.629 -22.11,-71.711 -47.059,-121.321 -7.09,-121.321 40.262,0 12.48,19.282 80.222,26.079 67.75,7.089 396.287,23.531 448.727,27.781 52.72,3.969 60.94,2.551 60.94,2.551 0,0 19.28,1.418 16.44,29.199 -2.55,27.488 -80.78,206.359 -182.26,273.262 -69.17,45.636 -107.72,40.25 -107.72,40.25" /><path
         id="path64"
         style="fill:#fdfdfd;fill-opacity:1;fill-rule:nonzero;stroke:none"
         d="m 1096.77,544.402 1.41,-45.351 c 0,0 -5.66,-22.11 24.95,-22.11 30.32,0 124.16,-1.418 124.16,-1.418 0,0 -53.86,73.129 -150.52,68.879" /><path
         id="path66"
         style="fill:#fdfdfd;fill-opacity:1;fill-rule:nonzero;stroke:none"
         d="m 1066.43,543.27 -1.42,-45.641 c 0,0 5.67,-22.109 -25.79,-22.109 -31.75,0 -119.337,-1.422 -119.337,-1.422 0,0 45.922,73.14 146.547,69.172" /><path
         id="path68"
         style="fill:#e22228;fill-opacity:1;fill-rule:nonzero;stroke:none"
         d="m 873.961,233.156 c 0,0 -11.91,-25.797 -18.988,-41.668 -7.09,-15.871 -11.621,-24.66 1.129,-22.109 12.757,2.269 78.238,1.129 176.878,8.219 98.37,7.09 213.17,14.742 280.63,17.859 67.75,3.121 75.69,6.242 72.29,11.902 -3.12,5.668 -22.68,38.84 -30.9,41.668 -8.22,2.84 -255.4,-3.109 -255.4,-3.109 l 2.27,-16.73 c 0,0 -3.12,8.218 -9.93,7.089 -6.52,-1.14 -8.22,-7.089 -11.33,-9.07 -3.12,-1.988 -152.219,1.981 -152.219,1.981" /><path
         id="path70"
         style="fill:#e2dfdf;fill-opacity:1;fill-rule:nonzero;stroke:none"
         d="m 1098.46,295.238 236.99,-0.57 13.6,-43.082 c 0,0 -39.69,-17.859 -50.75,-6.809 -6.8,6.809 -15.59,3.121 -19.84,-1.699 -4.53,-4.82 -42.51,-7.652 -51.3,-0.281 -8.78,7.09 -16.73,9.07 -16.73,9.07 0,0 -6.23,2.828 -5.95,-4.82 0.29,-7.371 -85.89,-20.981 -94.1,-10.199 -8.52,10.769 -11.92,58.39 -11.92,58.39" /><path
         id="path72"
         style="fill:#ccc9c8;fill-opacity:1;fill-rule:nonzero;stroke:none"
         d="m 879.629,294.102 208.061,1.132 c 0,0 2.84,-60.089 -3.68,-65.191 -6.24,-5.109 -89.291,-6.809 -95.248,-3.691 -5.953,3.402 -7.934,0.851 -12.192,-2.547 -4.531,-3.684 -59.519,-0.571 -59.519,-0.571 0,0 -2.551,8.789 -10.492,4.821 -7.938,-3.973 -28.629,45.066 -26.93,66.047" /><path
         id="path74"
         style="fill:#fdfdfd;fill-opacity:1;fill-rule:nonzero;stroke:none"
         d="m 879.629,294.102 c 0,0 -9.641,-76.539 -4.82,-87.59 4.82,-11.059 15.871,-26.93 28.632,6.519 12.758,33.16 9.637,81.352 9.637,81.352" /><path
         id="path76"
         style="fill:#fdfdfd;fill-opacity:1;fill-rule:nonzero;stroke:none"
         d="M 920.449,294.672 914.5,222.391 c 0,0 0,-25.52 11.34,-25.52 11.051,0 52.719,-12.473 53.848,41.391 1.421,56.41 1.14,56.41 1.14,56.41" /><path
         id="path78"
         style="fill:#fdfdfd;fill-opacity:1;fill-rule:nonzero;stroke:none"
         d="m 984.797,294.387 c 0,0 -7.652,-66.332 12.758,-86.461 20.975,-21.258 77.385,-11.34 87.015,13.039 9.36,24.101 3.13,74.269 3.13,74.269" /><path
         id="path80"
         style="fill:#fdfdfd;fill-opacity:1;fill-rule:nonzero;stroke:none"
         d="m 1098.46,295.238 -0.85,-65.48 c 0,0 7.94,-25.231 38.84,-33.449 31.19,-8.223 64.07,18.136 68.32,32.027 0,0 1.12,1.992 0.84,26.082 -0.27,23.527 -3.97,39.398 -3.97,39.398" /><path
         id="path82"
         style="fill:#fdfdfd;fill-opacity:1;fill-rule:nonzero;stroke:none"
         d="m 1207.6,292.402 c 0,0 2.55,-35.429 2.83,-43.371 0.57,-7.937 8.23,-28.629 30.62,-30.898 22.11,-2.551 36,11.91 39.4,27.777 3.12,15.883 0.57,45.922 0.57,45.922 0,0 1.98,3.691 -11.34,3.398 -13.61,-0.558 -53.29,0.293 -53.29,0.293 0,0 -8.79,-1.14 -8.79,-3.121" /><path
         id="path84"
         style="fill:#fdfdfd;fill-opacity:1;fill-rule:nonzero;stroke:none"
         d="m 1288.67,294.672 c 0,0 -5.95,1.699 -3.68,-9.352 2.55,-11.34 14.45,-43.371 29.76,-60.379 15.59,-17.011 33.73,-19.839 40.25,-4.543 6.24,15.59 1.98,59.25 -8.5,68.883 -10.21,9.36 -15.31,6.809 -31.75,6.809 -16.16,0 -26.08,-1.418 -26.08,-1.418" /><path
         id="path86"
         style="fill:#e22228;fill-opacity:1;fill-rule:nonzero;stroke:none"
         d="m 1096.48,578.699 c 0,0 -120.191,8.5 -204.66,-113.668 -84.757,-121.89 -131.531,-256.25 -134.359,-295.09 -2.551,-39.109 -7.941,-52.441 32.309,-43.082 40.25,9.352 69.171,2.551 188.511,12.192 119.619,9.351 329.379,38.832 344.119,40.25 14.74,1.422 16.16,16.16 16.16,16.16 0,0 -187.94,-6.238 -292.54,-11.629 -104.598,-5.102 -179.707,-12.75 -204.09,-16.723 -24.098,-3.968 -28.059,-18.707 -56.129,-18.707 -28.34,0 20.129,151.649 79.09,245.758 58.961,93.832 127.558,147.41 215.999,146.27 88.72,-1.418 181.13,-51.02 245.76,-166.391 64.35,-115.648 79.66,-169.508 53.29,-173.476 l -26.64,-3.692 -3.97,-16.148 c 0,0 22.96,-9.641 32.32,-6.813 9.35,2.84 41.38,8.223 32.03,48.473 -9.36,39.969 -49.61,157.039 -138.05,249.449 -88.72,92.699 -153.64,101.481 -179.15,106.867" /><path
         id="path88"
         style="fill:#e22228;fill-opacity:1;fill-rule:nonzero;stroke:none"
         d="m 1392.42,177.883 c 0,0 -125.01,-5.391 -222.8,-20.129 -98.08,-14.742 -96.66,-17.293 -216.292,-18.703 -119.34,-1.418 -140.879,-2.559 -140.879,-2.559 0,0 24.379,14.738 191.911,32.039 167.81,17.571 302.17,29.481 347.81,29.481 45.64,0 40.25,-20.129 40.25,-20.129" /><path
         id="path90"
         style="fill:#000000;fill-opacity:1;fill-rule:evenodd;stroke:none"
         d="m 781.836,1590.1 c -161.57,50.46 -153.641,126.71 -100.91,211.75 2.551,3.4 15.019,5.67 14.738,0.85 -8.508,-65.77 4.531,-94.68 168.09,-119.91 -22.957,-18.14 -58.957,-74.26 -81.918,-92.69" /><path
         id="path92"
         style="fill:#000000;fill-opacity:1;fill-rule:evenodd;stroke:none"
         d="m 1423.03,1590.1 c 161.29,50.46 153.35,126.71 100.63,211.75 -2.55,3.4 -15.02,5.67 -14.74,0.85 8.5,-65.77 -4.54,-94.68 -168.09,-119.91 22.96,-18.14 58.96,-74.26 82.2,-92.69" /><path
         id="path94"
         style="fill:#000000;fill-opacity:1;fill-rule:evenodd;stroke:none"
         d="m 1265.14,1116.15 c 56.41,0 102.33,87.31 102.33,194.17 0,106.87 -45.92,194.18 -102.33,194.18 -55.84,0 -101.76,-87.31 -101.76,-194.18 0,-106.86 45.92,-194.17 101.76,-194.17" /><path
         id="path96"
         style="fill:#fdfdfd;fill-opacity:1;fill-rule:evenodd;stroke:none"
         d="m 1260.89,1112.18 c 51.87,0 93.54,83.06 93.54,185.1 0,101.77 -41.67,184.82 -93.54,184.82 -51.31,0 -92.98,-83.05 -92.98,-184.82 0,-102.04 41.67,-185.1 92.98,-185.1" /><path
         id="path98"
         style="fill:#009646;fill-opacity:1;fill-rule:evenodd;stroke:none"
         d="m 1260.04,1212.53 c 33.73,0 61.51,32.88 61.51,72.85 0,40.25 -27.78,72.57 -61.51,72.57 -33.73,0 -61.51,-32.32 -61.51,-72.57 0,-39.97 27.78,-72.85 61.51,-72.85" /><path
         id="path100"
         style="fill:#000000;fill-opacity:1;fill-rule:evenodd;stroke:none"
         d="m 1266.56,1233.79 c 22.96,0 41.67,22.11 41.67,49.61 0,26.93 -18.71,49.6 -41.67,49.6 -22.68,0 -41.39,-22.67 -41.39,-49.6 0,-27.5 18.71,-49.61 41.39,-49.61" /><path
         id="path102"
         style="fill:#fdfdfd;fill-opacity:1;fill-rule:evenodd;stroke:none"
         d="m 1235.95,1275.46 c 10.19,0 18.71,9.92 18.71,21.54 0,12.19 -8.52,22.11 -18.71,22.11 -10.2,0 -18.15,-9.92 -18.15,-22.11 0,-11.62 7.95,-21.54 18.15,-21.54" /><path
         id="path104"
         style="fill:#fdfdfd;fill-opacity:1;fill-rule:evenodd;stroke:none"
         d="m 1261.18,1293.03 c 18.7,0 34.29,18.14 34.29,40.25 0,22.11 -15.59,40.25 -34.29,40.25 -18.72,0 -34.3,-18.14 -34.3,-40.25 0,-22.11 15.58,-40.25 34.3,-40.25" /><path
         id="path106"
         style="fill:#fdfdfd;fill-opacity:1;fill-rule:evenodd;stroke:none"
         d="m 1147.22,1725.6 c 34.02,-26.93 94.39,-52.16 111.12,-134.65 49.6,-247.18 145.98,-483.3 251.43,-657.923 -111.12,235.853 -196.44,454.403 -234.71,660.483 -19.84,107.15 -93.54,126.42 -127.84,132.09" /><path
         id="path108"
         style="fill:#fdfdfd;fill-opacity:1;fill-rule:evenodd;stroke:none"
         d="m 1149.77,1755.93 c 96.66,7.65 172.91,-42.8 194.74,-159.31 -9.92,58.4 -20.69,118.49 -72,147.97 -35.43,20.69 -87.31,20.98 -122.74,11.34" /><path
         id="path110"
         style="fill:#fdfdfd;fill-opacity:1;fill-rule:evenodd;stroke:none"
         d="m 1075.22,1727.58 c -96.657,7.94 -172.907,-42.52 -194.74,-159.02 9.922,58.11 20.692,118.48 72,147.68 35.43,20.69 87.31,21.26 122.74,11.34" /><path
         id="path112"
         style="fill:#000000;fill-opacity:1;fill-rule:evenodd;stroke:none"
         d="m 954.746,1062.57 c 64.914,0 117.924,100.63 117.924,223.66 0,123.31 -53.01,223.93 -117.924,223.93 -64.906,0 -117.348,-100.62 -117.348,-223.93 0,-123.03 52.442,-223.66 117.348,-223.66" /><path
         id="path114"
         style="fill:#fdfdfd;fill-opacity:1;fill-rule:evenodd;stroke:none"
         d="m 948.23,1096.59 c 59.24,0 106.58,90.43 106.58,201.26 0,110.55 -47.34,200.98 -106.58,200.98 -58.39,0 -106.019,-90.43 -106.019,-200.98 0,-110.83 47.629,-201.26 106.019,-201.26" /><path
         id="path116"
         style="fill:#009646;fill-opacity:1;fill-rule:evenodd;stroke:none"
         d="m 942.844,1219.61 c 34.871,0 63.496,34.03 63.496,74.84 0,41.66 -28.625,75.12 -63.496,75.12 -34.871,0 -63.5,-33.46 -63.5,-75.12 0,-40.81 28.629,-74.84 63.5,-74.84" /><path
         id="path118"
         style="fill:#000000;fill-opacity:1;fill-rule:evenodd;stroke:none"
         d="m 949.645,1241.44 c 23.812,0 43.089,22.68 43.089,51.02 0,28.07 -19.277,51.31 -43.089,51.31 -23.528,0 -42.797,-23.24 -42.797,-51.31 0,-28.34 19.269,-51.02 42.797,-51.02" /><path
         id="path120"
         style="fill:#fdfdfd;fill-opacity:1;fill-rule:evenodd;stroke:none"
         d="m 917.898,1284.53 c 10.77,0 19.282,9.92 19.282,22.11 0,12.76 -8.512,22.96 -19.282,22.96 -10.492,0 -18.71,-10.2 -18.71,-22.96 0,-12.19 8.218,-22.11 18.71,-22.11" /><path
         id="path122"
         style="fill:#fdfdfd;fill-opacity:1;fill-rule:evenodd;stroke:none"
         d="m 944.262,1302.67 c 19.277,0 35.429,18.71 35.429,41.67 0,22.68 -16.152,41.39 -35.429,41.39 -19.282,0 -35.723,-18.71 -35.723,-41.39 0,-22.96 16.441,-41.67 35.723,-41.67" /><path
         id="path124"
         style="fill:#fdfdfd;fill-opacity:1;fill-rule:nonzero;stroke:none"
         d="m 828.324,1493.44 4.821,-6.52 c -3.692,-2.83 -8.793,-1.98 -11.34,1.98 -2.551,3.69 -1.703,8.79 1.976,11.34 l 4.543,-6.8 z m 47.059,31.46 c -14.738,-14.45 -28.629,-28.63 -42.238,-37.98 l -9.364,13.32 c 12.481,9.07 26.082,22.4 39.973,36.57 l 11.629,-11.91 z m 94.961,58.68 c -31.192,4.82 -64.629,-28.34 -94.961,-58.68 l -11.629,11.91 c 33.449,33.17 69.738,69.17 109.141,62.93 l -2.551,-16.16 z m 33.156,0 c -11.898,-3.4 -25.785,-1.42 -33.156,0 l 2.551,16.16 c 5.949,-0.85 17.57,-2.84 25.789,-0.28 l 4.816,-15.88 z m 18.99,39.97 c 5.11,-24.94 -5.1,-35.72 -18.99,-39.97 l -4.816,15.88 c 5.956,1.98 10.486,7.37 7.656,20.97 l 16.15,3.12 z m -12.75,22.96 c 5.95,-4.82 10.49,-12.19 12.75,-22.96 l -16.15,-3.12 c -1.42,6.24 -3.69,10.49 -6.516,13.04 l 9.916,13.04 z m -37.697,2.84 c 14.738,5.1 27.781,4.81 37.697,-2.84 l -9.916,-13.04 c -5.109,3.69 -13.043,3.4 -22.679,0.28 l -5.102,15.6 z m -43.09,-24.38 c 15.02,11.34 29.762,19.84 43.09,24.38 l 5.102,-15.6 c -11.34,-3.96 -24.661,-11.62 -38.551,-22.11 l -9.641,13.33 z m -108.281,-128.7 c 11.902,35.44 62.082,94.68 108.281,128.7 l 9.641,-13.33 c -43.942,-32.31 -91.281,-87.87 -102.332,-120.75" /><path
         id="path126"
         style="fill:#000000;fill-opacity:1;fill-rule:nonzero;stroke:none"
         d="m 828.324,1493.44 c 21.539,63.5 170.078,205.8 185.946,128.41 7.94,-38.27 -29.188,-32.32 -42.797,-30.33 -51.02,8.22 -101.2,-68.03 -143.149,-98.08" /><path
         id="path128"
         style="fill:#fdfdfd;fill-opacity:1;fill-rule:nonzero;stroke:none"
         d="m 1396.67,1484.37 -4.82,-6.52 c 3.69,-2.83 8.79,-1.98 11.62,1.98 2.55,3.69 1.7,8.79 -1.98,11.34 l -4.82,-6.8 z m -46.77,31.46 c 14.45,-14.45 28.63,-28.63 41.95,-37.98 l 9.64,13.32 c -12.47,9.07 -26.08,22.4 -40.25,36.57 l -11.34,-11.91 z m -94.96,58.68 c 31.18,4.82 64.34,-28.34 94.96,-58.68 l 11.34,11.91 c -33.17,33.17 -69.45,69.17 -108.85,62.93 l 2.55,-16.16 z m -33.17,0 c 11.62,-3.4 25.51,-1.42 33.17,0 l -2.55,16.16 c -6.24,-0.85 -17.58,-2.84 -26.08,-0.28 l -4.54,-15.88 z m -19.27,39.97 c -5.11,-24.94 5.38,-35.72 19.27,-39.97 l 4.54,15.88 c -5.96,1.98 -10.49,7.37 -7.66,20.97 l -16.15,3.12 z m 13.04,22.96 c -6.24,-4.82 -10.78,-12.19 -13.04,-22.96 l 16.15,-3.12 c 1.42,6.24 3.69,10.49 6.81,13.04 l -9.92,13.04 z m 37.7,2.84 c -15.03,5.1 -28.07,4.81 -37.7,-2.84 l 9.92,-13.04 c 4.82,3.69 12.75,3.4 22.39,0.28 l 5.39,15.6 z m 43.08,-24.38 c -15.3,11.34 -30.04,19.84 -43.08,24.38 l -5.39,-15.6 c 11.62,-3.96 24.95,-11.62 38.84,-22.11 l 9.63,13.33 z m 108,-128.7 c -11.9,35.44 -62.08,94.68 -108,128.7 l -9.63,-13.33 c 43.65,-32.31 90.99,-87.87 102.04,-120.75" /><path
         id="path130"
         style="fill:#000000;fill-opacity:1;fill-rule:nonzero;stroke:none"
         d="m 1396.67,1484.37 c -21.54,63.21 -170.08,205.8 -185.95,128.41 -7.94,-38.27 29.19,-32.32 42.8,-30.33 51.31,8.22 101.2,-68.03 143.15,-98.08" /></g></g></svg>