<?xml version="1.0" encoding="UTF-8" standalone="no"?>
<svg
   xmlns:dc="http://purl.org/dc/elements/1.1/"
   xmlns:cc="http://creativecommons.org/ns#"
   xmlns:rdf="http://www.w3.org/1999/02/22-rdf-syntax-ns#"
   xmlns:svg="http://www.w3.org/2000/svg"
   xmlns="http://www.w3.org/2000/svg"
   viewBox="0 0 248.03751 248.03751"
   height="248.03751"
   width="248.03751"
   xml:space="preserve"
   version="1.1"
   id="svg2"><metadata
     id="metadata8"><rdf:RDF><cc:Work
         rdf:about=""><dc:format>image/svg+xml</dc:format><dc:type
           rdf:resource="http://purl.org/dc/dcmitype/StillImage" /></cc:Work></rdf:RDF></metadata><defs
     id="defs6" /><g
     transform="matrix(1.25,0,0,-1.25,0,248.0375)"
     id="g10"><g
       transform="scale(0.1,0.1)"
       id="g12"><path
         id="path14"
         style="fill:#51669c;fill-opacity:1;fill-rule:evenodd;stroke:none"
         d="m 605.078,987.188 c -11.91,-73.977 -65.758,-117.637 -66.051,-188.5 0,-38.84 14.743,-36.848 26.653,-79.938 -53.86,-12.473 -87.879,-18.43 -72.289,-85.609 -24.661,-35.711 -14.743,-29.192 -7.93,-77.672 -18.711,-64.91 7.367,-125.571 49.039,-180.281 72.277,-95.239 160.438,-166.11 241.789,-206.649 40.82,-20.691 85.039,-32.309 126.141,-46.769 116.51,-40.2505 227.91,-59.52 320.32,-35.4302 65.76,17.0082 134.64,76.8202 196.44,151.0902 54.14,64.91 66.33,92.41 85.32,130.961 35.72,42.797 107.72,134.636 135.22,216.558 28.34,84.762 -34.87,184.262 -98.08,239.25 -46.49,93.262 -92.13,140.309 -160.16,180.561 -75.97,44.79 -116.22,52.45 -168.38,42.52 -26.36,-4.81 -51.87,-18.14 -95.24,-26.07 L 821.93,981.238" /><path
         id="path16"
         style="fill:#344776;fill-opacity:1;fill-rule:evenodd;stroke:none"
         d="m 564.543,723 c 0.281,-1.129 0.852,-2.551 1.133,-4.25 -53.852,-12.469 -87.871,-18.43 -72.281,-85.609 -24.661,-35.711 -14.743,-29.2 -7.942,-77.672 -18.711,-64.91 7.371,-125.571 49.039,-180.278 72.293,-95.25 160.442,-166.113 241.801,-206.652 40.82,-20.687 85.043,-32.309 126.141,-46.769 116.496,-40.2505 227.906,-59.5317 320.306,-35.4302 65.78,17.0122 134.65,76.8202 196.46,151.0902 54.14,64.91 66.32,92.398 85.32,130.961 35.7,42.8 107.7,134.64 135.2,216.558 24.1,71.442 -17.29,153.36 -68.59,210.332 26.07,-49.32 43.36,-96.941 38.83,-115.929 -19.28,-81.922 -176.87,-233.864 -248.32,-277.801 -102.33,-63.211 -235.55,-85.891 -348.37,-77.672 -56.977,3.973 -109.707,16.16 -166.676,34.582 21.261,-23.52 94.39,-103.461 127.269,-99.211 80.517,10.211 73.997,7.66 159.027,11.34 76.54,3.691 172.63,23.808 253.41,68.031 32.04,17.289 92.7,74.27 134.38,117.07 37.97,39.118 61.78,63.778 54.13,45.918 -22.11,-51.3 -69.72,-103.179 -128.97,-149.097 -48.75,-37.703 -105.16,-71.434 -161.87,-97.231 -16.43,-7.371 -50.74,-24.09 -55.84,-17.57 -4.82,6.519 33.73,28.629 20.41,41.379 -5.95,5.39 -83.34,-30.891 -122.16,-39.11 -56.42,-11.91 -110.84,-7.941 -162.435,5.098 C 794.715,288.449 649.305,444.922 541.586,548.102 653.555,412.32 723.855,296.949 829.016,238.559 1024.89,129.988 1251.66,182.719 1387.15,258.398 1386.3,193.488 1259.61,138.211 1199.5,119.219 1061.18,75 906.973,145.02 821.086,183.852 726.402,226.648 654.113,274.559 594.875,345.43 c -47.902,57.25 -103.75,98.64 -90.141,179.14 26.36,-44.218 59.532,-104.59 114.239,-166.109 55.269,-62.07 114.8,-106.859 144.851,-125.289 -29.199,31.75 -44.511,61.226 -108.851,139.18 -65.2,79.66 -130.399,153.078 -140.598,191.339 -5.391,21.547 -16.73,17.86 -5.109,40.25 31.187,-24.66 43.66,-47.621 73.707,-73.41 38.261,-33.172 98.922,-83.91 155.05,-131.812 32.032,-26.93 69.172,-47.629 90.43,-63.778 17.289,-12.761 14.742,11.34 9.07,24.368 -1.988,4.543 -35.437,30.05 -82.21,66.621 -64.629,50.461 -144.278,123.871 -160.438,138.609 -39.121,35.723 -75.121,63.781 -77.102,91.563 -1.988,23.808 28.629,31.468 49.321,44.218 5.949,3.692 -4.25,15.032 2.551,18.43" /><path
         id="path18"
         style="fill:#344776;fill-opacity:1;fill-rule:evenodd;stroke:none"
         d="m 570.215,896.766 c -15.871,-30.614 -30.902,-60.661 -31.184,-98.082 0,-38.829 14.742,-36.848 26.641,-79.942 l -9.629,-2.258 c 7.648,-20.41 17,-39.968 32.309,-56.98 31.472,-34.578 82.211,-43.941 124.16,-79.09 12.472,-10.769 22.961,-30.328 36,-40.531 36.851,-29.199 67.461,9.64 83.621,-63.5 5.672,-25.789 47.91,-65.758 51.879,-60.09 5.101,7.082 -4.258,27.492 -14.457,47.051 -9.922,18.429 -10.211,25.801 22.957,21.832 135.498,-16.723 173.758,-61.231 359.428,-33.453 113.1,17.011 233.01,58.39 277.8,138.05 32.31,57.54 30.61,120.469 17.86,172.629 -13.89,57.543 -72.29,147.121 -106.59,200.121 -18.14,15.59 -37.7,29.2 -59.52,42.247 -19,11.05 -35.44,19.84 -50.74,26.93 l 7.93,-7.95 c 67.18,-53.566 138.33,-127.266 171.5,-212.598 34.58,-88.718 30.05,-186.519 -47.05,-253.699 -15.88,-13.89 -34.87,-26.64 -57.55,-37.41 -24.38,-11.91 -8.22,39.961 5.95,79.93 23.81,65.48 -8.22,41.39 -54.14,4.543 -24.66,-19.84 -41.95,-37.703 -66.33,-51.032 -108.85,-60.089 -249.45,-73.129 -371.337,-35.711 -187.078,57.262 -324.571,133.512 -358.86,260.219 -9.929,36 -1.422,74.274 9.352,118.774" /><path
         id="path20"
         style="fill:#344776;fill-opacity:1;fill-rule:evenodd;stroke:none"
         d="m 1412.67,816.262 c -16.72,-71.153 2.83,-183.121 -15.31,-249.453 9.64,30.332 24.38,94.961 27.22,125.011 10.2,109.129 12.18,205.231 -73.71,270.711 11.63,-48.472 39.41,-87.883 29.2,-117.359 C 1357.11,777.711 1264.13,744.262 1124.39,715.059 1010.15,690.969 907.539,683.602 833.551,716.48 725.84,764.391 640.801,869.551 603.949,980.102 601.109,966.5 596.859,953.738 591.762,941.551 607.352,884.57 646.18,818.531 697.488,765.52 817.68,641.648 986.91,610.18 1133.46,635.98 c 134.36,23.52 193.32,94.668 279.21,180.282" /><path
         id="path22"
         style="fill:#172952;fill-opacity:1;fill-rule:evenodd;stroke:none"
         d="m 1412.67,816.262 c -16.72,-71.153 0.57,-182.551 -15.31,-249.453 -7.08,-30.61 18.14,112.82 20.98,142.871 10.2,109.41 -5.39,181.98 -67.47,252.851 24.95,-39.691 51.6,-93.832 41.39,-123.59 -22.96,-67.179 -121.61,-129.261 -261.35,-158.461 -114.24,-23.808 -242.648,-3.968 -316.351,28.911 -107.719,47.91 -173.2,142.871 -210.047,253.418 -2.832,-13.887 -3.684,3.402 -8.782,-8.789 15.59,-56.969 59.52,-130.961 111.11,-183.961 119.91,-123.879 276.101,-138.047 422.93,-112.258 134.08,23.527 197.01,72.847 282.9,158.461" /><path
         id="path24"
         style="fill:#172952;fill-opacity:1;fill-rule:evenodd;stroke:none"
         d="m 565.68,718.75 c -53.864,-12.473 -87.871,-18.434 -72,-85.613 -24.942,-35.707 -15.024,-29.188 -8.223,-77.668 -18.711,-64.91 7.371,-125.571 49.039,-180.281 72.281,-95.239 160.442,-166.11 241.793,-206.641 40.82,-20.699 85.039,-32.32 126.149,-46.777 116.502,-40.2505 227.902,-59.52 320.312,-35.4302 65.76,17.0082 134.65,76.8162 196.44,151.0902 54.14,64.91 66.33,92.687 85.32,130.957 35.72,43.082 107.72,134.64 135.22,216.562 18.71,55.848 -2.27,117.93 -36.85,169.52 22.39,-37.699 30.04,-56.41 25.23,-75.41 -20.13,-80.219 -183.69,-263.621 -254.84,-307.551 -102.33,-63.219 -248.03,-77.668 -360.85,-69.738 -56.982,3.968 -86.463,27.777 -143.15,46.207 20.976,-23.528 99.5,-62.36 132.66,-58.11 80.22,10.199 48.19,-8.789 133.23,-5.097 76.54,3.398 166.96,30.039 247.75,73.98 97.23,53.008 204.38,212.309 257.67,300.758 4.82,-94.961 -100.35,-254.84 -196.16,-328.258 -41.1,-31.184 -100.91,-80.223 -176.31,-102.332 -17.3,-5.102 -49.89,-6.23 -55,0.289 -4.82,6.52 48.76,37.133 35.44,49.891 -5.96,5.379 -57.26,-53.86 -96.38,-62.078 -56.13,-11.622 -160.732,0.847 -212.322,13.886 -168.942,43.082 -296.5,209.192 -398.258,317.192 111.957,-135.782 189.629,-231.59 294.797,-289.981 113.101,-62.648 258.233,-69.449 367.653,-49.89 142.3,25.23 239.53,95.531 286.3,147.402 -15.02,-21.262 -51.31,-82.77 -98.64,-134.641 -41.96,-45.64 -94.97,-97.8 -156.76,-116.218 -101.48,-30.3403 -236.131,-17.5825 -414.713,63.207 -94.68,42.8 -189.071,108 -248.309,179.152 -47.91,57.258 -96.672,112.527 -75.691,197.008 26.363,-44.219 79.371,-115.09 134.082,-176.598 54.988,-62.082 103.461,-115.941 133.507,-134.082 -29.199,31.461 -63.777,58.391 -128.117,136.352 -65.48,79.371 -134.652,163.839 -144.57,202.39 -5.672,21.539 -3.973,34.578 7.367,56.981 31.461,-24.672 58.961,-64.071 88.723,-89.864 38.269,-32.878 96.66,-79.66 153.07,-127.277 4.258,-3.68 80.219,-63.781 93.828,-66.609 5.102,-1.141 -39.969,37.976 -86.738,74.547 C 682.746,470.438 605.648,543 589.207,557.738 c -39.117,36 -86.738,77.391 -89.008,105.168 -2.269,28.633 16.438,33.453 54.418,50.742 3.41,1.7 7.371,3.399 11.063,5.102" /><path
         id="path26"
         style="fill:#172952;fill-opacity:1;fill-rule:evenodd;stroke:none"
         d="m 570.215,896.766 c -15.871,-30.614 -30.902,-60.661 -31.184,-98.082 0,-38.829 14.742,-36.848 26.641,-79.942 37.711,-75.398 64.351,-60.937 146.562,-130.109 12.75,-10.77 26.918,-36.559 39.957,-46.77 36.852,-28.91 71.153,30.332 87.313,-42.8 5.668,-25.797 40.539,-88.438 44.508,-82.77 5.101,7.082 -13.328,34.301 -23.821,53.859 -9.628,18.422 -13.32,37.411 19.852,33.442 135.487,-16.719 188.777,-66.039 374.447,-38.262 113.11,17.004 198.43,33.16 243.22,112.82 32.31,57.543 36,138.891 23.24,191.332 -13.89,57.258 -45.64,140.039 -79.94,193.039 -18.14,15.59 -37.7,29.2 -59.52,42.247 45.35,-41.106 61.79,-63.215 112.25,-192.477 34.3,-88.438 25.51,-195.027 -45.92,-268.16 -15.31,-15.867 -33.44,-32.028 -55.85,-42.797 -24.37,-11.91 -12.47,54.137 1.99,93.816 23.53,65.774 19.56,55.282 -9.64,4.262 -15.87,-27.5 -52.44,-58.109 -76.82,-71.719 -108.57,-59.812 -265.04,-57.543 -386.926,-20.132 -187.082,57.261 -336.472,145.992 -370.769,272.41 -9.922,36.293 9.636,72.293 20.41,116.793" /><path
         id="path28"
         style="fill:#15274d;fill-opacity:1;fill-rule:evenodd;stroke:none"
         d="m 1241.18,865.016 c 27.5,32.031 47.61,44.5 49.88,80.5 2.28,41.39 -19.84,68.034 -42.52,92.984 -59.24,64.63 -174.33,85.61 -258.235,81.07 -143.153,-7.37 -388.91,-33.73 -382.391,-138.906 8.5,-136.059 236.41,-276.656 481.606,-226.476 70.86,14.167 93.82,43.078 151.66,110.828" /><path
         id="path30"
         style="fill:#5f77b3;fill-opacity:1;fill-rule:evenodd;stroke:none"
         d="m 693.238,831.285 c 81.918,-80.5 114.797,-88.16 168.66,-107.722 88.438,-32.309 226.212,-17.29 333.922,22.113 136.35,49.609 198.14,78.808 156.19,187.66 -25.79,66.328 -4.25,47.047 24.95,5.949 92.12,-129.262 76.53,-202.961 45.92,-343.281 -7.09,-32.59 -11.06,-42.52 -7.94,-44.781 3.4,-2.84 15.02,4.82 25.23,39.121 36.57,122.742 34.3,238.672 -43.37,349.219 -43.94,62.927 -80.79,42.242 -123.59,94.397 12.19,-31.17 21.54,-47.616 27.21,-72.565 7.94,-36.852 -10.49,-63.782 -27.78,-92.129 -18.99,-30.891 -39.68,-73.981 -104.88,-102.043 -72.28,-31.18 -202.963,-55.278 -312.092,-17.86 -47.34,16.16 -77.109,9.352 -162.43,81.922" /><path
         id="path32"
         style="fill:#5f77b3;fill-opacity:1;fill-rule:evenodd;stroke:none"
         d="m 595.727,878.055 c -13.321,-55.282 -5.391,-101.758 17.007,-140.879 119.34,-208.352 431.716,-211.473 553.606,-198.711 108,11.34 173.2,60.941 202.96,112.25 31.47,54.43 22.68,86.461 23.52,109.699 -44.78,-53.859 -102.61,-95.809 -172.62,-121.32 -320.606,-117.36 -539.716,67.75 -624.473,238.961" /><path
         id="path34"
         style="fill:#5f77b3;fill-opacity:1;fill-rule:evenodd;stroke:none"
         d="M 727.535,476.387 C 925.965,318.496 1071.66,311.125 1254.5,370.086 c 112.82,36.281 162.43,81.359 243.5,154.488 -90.15,-48.758 -155.34,-76.25 -258.81,-95.527 -56.98,-10.77 -115.08,-10.492 -193.89,0 -73.984,9.918 -139.745,37.988 -144.284,35.148 -21.828,-13.609 32.879,-72.847 28.058,-73.98 -10.199,-2.84 -19.558,-3.399 -28.058,-2.551 -55.282,6.801 -57.258,107.152 -100.911,125.293 -67.468,28.34 -60.66,13.598 -107.718,53.859 -46.492,39.961 -115.653,76.532 -125.012,100.059 -17.57,2.27 -33.73,-11.617 -25.23,-31.75 15.589,-36.57 147.691,-132.09 185.39,-158.738" /><path
         id="path36"
         style="fill:#5f77b3;fill-opacity:1;fill-rule:evenodd;stroke:none"
         d="M 516.07,492.262 C 557.172,349.68 715.91,222.398 853.961,166.281 1027.72,95.4102 1272.07,103.059 1365.05,232.32 1201.49,146.43 956.293,122.621 770.051,272.012 706.27,323.602 652.699,398.148 577.871,487.441 650.152,391.059 705.711,302.34 794.152,214.75 686.43,251.32 580.699,388.512 516.07,492.262" /><path
         id="path38"
         style="fill:#0f1c39;fill-opacity:1;fill-rule:evenodd;stroke:none"
         d="m 1241.18,865.016 c 27.5,32.031 47.61,44.5 49.88,80.5 0.85,15.879 -1.97,29.769 -7.09,42.242 -8.77,-13.613 -22.11,-25.512 -37.7,-43.653 -57.82,-67.75 -81.07,-96.66 -151.64,-111.121 -222.806,-45.359 -431.435,66.614 -473.954,189.646 -9.071,-12.49 -13.613,-26.083 -12.762,-41.966 8.5,-136.059 236.41,-276.656 481.606,-226.476 70.86,14.167 93.82,43.078 151.66,110.828" /><path
         id="path40"
         style="fill:#344776;fill-opacity:1;fill-rule:evenodd;stroke:none"
         d="m 1328.2,1007.03 c 53.57,-35.147 80.79,-42.8 108.85,-107.428 22.11,-51.59 35.43,-98.079 39.69,-142.872 7.08,-78.519 -13.61,-152.5 -64.63,-239.238 89.85,32.031 140.03,128.969 132.66,221.102 -5.96,74.828 -56.98,135.5 -102.05,193.039 -42.24,54.418 -66.05,59.808 -125.29,94.677 l -32.32,21.54 c -15.59,2.27 -25.22,3.4 -30.04,3.12 17.57,-9.36 31.74,-17.01 73.13,-43.94" /><path
         id="path42"
         style="fill:#000000;fill-opacity:1;fill-rule:nonzero;stroke:none"
         d="m 641.93,1291.63 5.101,9.35 c 5.391,-2.83 7.09,-9.35 4.25,-14.45 -2.832,-5.39 -9.351,-7.37 -14.742,-4.54 l 5.391,9.64 z m -32.602,24.66 c 12.473,-3.12 24.953,-8.22 37.703,-15.31 l -10.492,-18.99 c -11.051,5.95 -22.109,10.49 -32.879,13.32 l 5.668,20.98 z m -58.109,0.57 c 17.293,5.38 37.14,5.1 58.109,-0.57 l -5.668,-20.98 c -17.012,4.54 -32.879,5.11 -46.199,0.86 l -6.242,20.69 z m 3.121,-10.21 -3.121,10.21 c 5.672,1.98 11.621,-1.42 13.609,-7.09 1.703,-5.67 -1.418,-11.62 -7.09,-13.6 l -3.398,10.48 z m -45.352,-24.37 c 9.633,17.85 24.371,29.19 42.231,34.58 l 6.519,-20.69 c -12.75,-3.69 -22.957,-11.91 -29.758,-24.1 l -18.992,10.21 z m -7.937,-19.85 c 1.98,7.37 4.527,13.89 7.937,19.85 l 18.992,-10.21 c -2.55,-4.53 -4.539,-9.35 -5.96,-15.02 l -20.969,5.38 z m -214.02,-93.26 c 85.039,-22.67 183.688,-20.12 214.02,93.26 l 20.969,-5.38 C 487.16,1126.37 376.609,1122.97 281.648,1148.2 l 5.383,20.97 z m -75.402,26.93 c 21.832,-9.64 47.91,-19.56 75.402,-26.93 l -5.383,-20.97 c -28.628,7.65 -55.847,17.86 -78.808,28.06 l 8.789,19.84 z m -51.59,25.8 c 11.34,-6.52 29.481,-16.16 51.59,-25.8 l -8.789,-19.84 c -22.961,10.2 -41.668,20.13 -53.852,26.93 l 11.051,18.71 z m -9.918,-5.39 c -2.551,-4.25 6.801,7.37 9.918,5.39 l -11.051,-18.71 c -15.027,8.79 -20.699,18.99 -17.859,24.09 l 18.992,-10.77 z m -9.641,5.39 9.641,-5.67 c -3.121,-5.1 -9.922,-6.8 -15.019,-3.69 -5.114,2.84 -6.813,9.64 -3.973,14.74 l 9.351,-5.38 z m 213.168,197.01 c -70.019,-28.07 -139.179,-91.56 -203.527,-202.68 l -18.992,11.05 c 67.461,115.66 140.031,181.99 214.582,211.75 l 7.937,-20.12 z m 240.372,-22.4 c -78.231,40.82 -160.149,54.71 -240.372,22.4 l -7.937,20.12 c 86.738,34.87 174.898,20.13 258.519,-23.24 l -10.21,-19.28 z m 64.351,-54.42 c -3.68,15.3 -22.68,32.88 -64.351,54.42 l 10.21,19.28 c 47.622,-24.95 70.008,-47.06 75.122,-68.6 l -20.981,-5.1 z m -23.812,-42.52 c 17.011,15.02 26.929,28.91 23.812,42.52 l 20.981,5.1 c 5.668,-23.25 -7.372,-43.65 -30.332,-63.78" /><path
         id="path44"
         style="fill:#863a1f;fill-opacity:1;fill-rule:nonzero;stroke:none"
         d="m 641.93,1291.63 c 39.679,35.15 46.492,68.03 -42.801,114.52 -150.809,78.52 -316.348,60.09 -458.649,-184.25 -1.699,-3.12 310.391,-189.92 371.059,37.98 14.742,55.28 72.563,63.21 130.391,31.75" /><path
         id="path46"
         style="fill:#da5840;fill-opacity:1;fill-rule:nonzero;stroke:none"
         d="m 250.746,1285.39 c 39.402,59.81 172.352,109.99 306.711,64.63 -189.359,-23.53 -156.469,-173.75 -306.711,-64.63" /><path
         id="path48"
         style="fill:#4b1d17;fill-opacity:1;fill-rule:nonzero;stroke:none"
         d="m 564.543,1333.3 c -140.027,52.16 -266.168,-2.55 -352.629,-79.94 85.609,119.06 320.602,183.97 352.629,79.94" /><path
         id="path50"
         style="fill:#000000;fill-opacity:1;fill-rule:nonzero;stroke:none"
         d="m 1340.67,1301.27 -5.39,9.35 c -5.1,-3.11 -6.8,-9.63 -3.96,-14.74 3.11,-5.38 9.63,-7.08 15.02,-3.96 l -5.67,9.35 z m 31.75,25.8 c -11.91,-3.69 -24.66,-9.36 -37.14,-16.45 l 11.06,-18.7 c 10.77,6.23 21.83,11.05 32.31,14.17 l -6.23,20.98 z m 58.39,1.98 c -17.57,4.82 -37.42,3.97 -58.39,-1.98 l 6.23,-20.98 c 17.01,5.1 32.89,5.95 46.21,2.27 l 5.95,20.69 z m 43.09,-33.45 c -9.92,17.58 -25.23,28.63 -43.09,33.45 l -5.95,-20.69 c 12.75,-3.69 23.24,-11.34 30.33,-23.53 l 18.71,10.77 z m 8.5,-19.56 c -2.27,7.37 -5.1,13.89 -8.5,19.56 l -18.71,-10.77 c 2.55,-4.25 4.54,-9.36 6.24,-14.74 l 20.97,5.95 z m 216.29,-87.31 c -84.19,-24.94 -182.84,-25.22 -216.29,87.31 l -20.97,-5.95 c 38.55,-129.54 149.38,-130.11 243.49,-102.05 l -6.23,20.69 z m 74.83,28.92 c -21.83,-10.21 -47.34,-20.69 -74.83,-28.92 l 6.23,-20.69 c 28.35,8.22 55.28,19.28 77.95,30.05 l -9.35,19.56 z m 50.74,27.49 c -11.05,-7.08 -28.91,-17 -50.74,-27.49 l 9.35,-19.56 c 22.68,10.77 41.11,21.26 53.01,28.63 l -11.62,18.42 z m 10.21,-5.38 c 2.55,-4.25 -7.09,7.08 -10.21,5.38 l 11.62,-18.42 c 14.74,9.07 20.13,19.56 17.01,24.38 l -18.42,-11.34 z m -209.2,196.72 c 70.86,-26.08 141.73,-87.59 209.2,-196.72 l 18.42,11.34 c -70.3,113.67 -144.85,178.01 -219.97,205.79 l -7.65,-20.41 z m -239.53,-28.91 c 76.82,42.8 158.74,58.96 239.53,28.91 l 7.65,20.41 c -87.87,32.32 -175.46,15.31 -257.95,-30.61 l 10.77,-18.71 z m -62.93,-56.41 c 3.4,15.59 21.83,33.45 62.93,56.41 l -10.77,18.71 c -47.06,-26.08 -68.6,-49.04 -73.13,-70.58 l 20.97,-4.54 z m 24.95,-41.67 c -17.29,14.46 -27.78,28.06 -24.95,41.67 l -20.97,4.54 c -5.11,-23.25 8.5,-43.09 32.03,-62.93" /><path
         id="path52"
         style="fill:#863a1f;fill-opacity:1;fill-rule:nonzero;stroke:none"
         d="m 1340.67,1301.27 c -40.54,34.02 -48.19,66.61 39.69,115.65 148.53,82.78 314.64,68.89 463.46,-171.49 1.7,-3.12 -305.01,-198.43 -371.91,27.78 -16.15,54.71 -74.26,60.94 -131.24,28.06" /><path
         id="path54"
         style="fill:#da5840;fill-opacity:1;fill-rule:nonzero;stroke:none"
         d="m 1732.13,1306.09 c -41.39,58.39 -175.75,104.88 -308.68,55.84 190.19,-18.14 161.28,-169.23 308.68,-55.84" /><path
         id="path56"
         style="fill:#4b1d17;fill-opacity:1;fill-rule:nonzero;stroke:none"
         d="m 1416.92,1344.92 c 138.33,56.13 266.17,4.82 354.61,-69.73 -88.72,116.22 -325.41,174.9 -354.61,69.73" /><path
         id="path58"
         style="fill:#000000;fill-opacity:1;fill-rule:nonzero;stroke:none"
         d="m 1366.46,1401.61 -3.96,9.93 c -5.68,-2.27 -8.23,-8.5 -5.95,-14.18 2.27,-5.39 8.79,-7.93 14.16,-5.66 l -4.25,9.91 z m 183.13,113.95 C 1496,1471.34 1433.07,1440.73 1362.5,1411.54 l 8.21,-19.84 c 72.29,29.75 136.93,61.23 192.77,107.14 l -13.89,16.72 z m 132.09,184.82 c -34.3,-83.04 -78.8,-140.59 -132.09,-184.82 l 13.89,-16.72 c 55.84,46.2 102.32,106.59 138.04,193.32 l -19.84,8.22 z m 10.77,9.92 c 3.69,-1.69 -7.09,-0.85 -10.77,-9.92 l 19.84,-8.22 c 9.93,23.54 8.5,34.3 -0.86,37.99 l -8.21,-19.85 z m -7.38,-6.8 c 5.39,3.4 4.82,7.65 7.38,6.8 l 8.21,19.85 c -7.93,3.4 -16.14,-1.7 -26.91,-8.22 l 11.32,-18.43 z m -9.62,-5.66 c 3.1,1.7 6.51,3.68 9.62,5.66 l -11.32,18.43 c -2.57,-1.41 -5.39,-3.12 -9.09,-5.11 l 10.79,-18.98 z m -223.66,-91.85 c 85.89,26.64 168.1,60.39 223.66,91.85 l -10.79,18.98 c -54.14,-30.89 -135.21,-64.05 -219.39,-90.14 l 6.52,-20.69 z m -227.63,-49.04 c 66.34,5.39 148.54,24.09 227.63,49.04 l -6.52,20.69 c -77.68,-24.38 -158.18,-42.8 -222.81,-48.19 l 1.7,-21.54 z m -0.84,10.77 8.22,7.09 c -3.97,4.53 -10.77,5.1 -15.31,1.14 -4.53,-3.98 -5.1,-10.77 -1.14,-15.32 l 8.23,7.09 z m 57.82,-42.52 c -18.71,17.29 -36.57,34.02 -49.6,49.61 l -16.45,-14.18 c 13.89,-16.43 32.32,-33.45 51.02,-51.29 l 15.03,15.86 z m 95.81,-120.47 c -12.75,42.52 -55.84,83.06 -95.81,120.47 l -15.03,-15.86 c 38,-35.45 78.82,-74 90.16,-110.85" /><path
         id="path60"
         style="fill:#dcdcd6;fill-opacity:1;fill-rule:nonzero;stroke:none"
         d="m 1366.46,1401.61 c -17.57,58.68 -101.48,117.07 -143.14,166.11 136.34,11.34 341.29,79.94 446.73,139.46 22.4,12.77 36.86,26.37 21.54,-10.77 -70,-170.07 -181.98,-236.12 -325.13,-294.8" /><path
         id="path62"
         style="fill:#e8e8e1;fill-opacity:1;fill-rule:nonzero;stroke:none"
         d="m 1310.62,1477.02 c -22.39,35.71 -62.36,61.51 -86.46,89.86 l -0.56,0.85 c 136.34,11.34 341,79.93 446.45,139.46 13.04,7.36 23.53,15.02 26.65,12.76 -102.05,-133.51 -253.14,-194.17 -386.08,-242.93" /><path
         id="path64"
         style="fill:#000000;fill-opacity:1;fill-rule:nonzero;stroke:none"
         d="m 567.66,1390.56 3.684,10.2 c 5.668,-2.26 8.508,-8.5 6.519,-14.17 -2.261,-5.38 -8.5,-8.22 -14.172,-6.23 l 3.969,10.2 z m -185.949,108.85 c 54.711,-42.8 118.492,-71.72 189.633,-98.65 l -7.653,-20.4 c -73.128,27.77 -138.609,57.82 -195.589,102.04 l 13.609,17.01 z m -137.199,181.13 c 36.57,-82.2 82.492,-138.61 137.199,-181.13 l -13.609,-17.01 c -56.981,44.51 -105.45,103.47 -143.43,189.36 l 19.84,8.78 z m -11.051,9.64 c -3.688,-1.7 7.082,-0.85 11.051,-9.64 l -19.84,-8.78 c -10.211,23.24 -9.359,34.01 0,37.98 l 8.789,-19.56 z m 7.371,-6.52 c -5.391,3.12 -5.109,7.37 -7.371,6.52 l -8.789,19.56 c 7.648,3.4 15.871,-1.13 26.93,-7.37 l -10.77,-18.71 z m 9.922,-5.67 c -3.121,1.7 -6.813,3.69 -9.922,5.67 l 10.77,18.71 c 2.55,-1.42 5.671,-3.12 9.351,-5.1 l -10.199,-19.28 z m 225.918,-85.6 c -86.461,24.37 -169.801,55.84 -225.918,85.6 l 10.199,19.28 c 54.988,-29.2 136.91,-60.1 221.668,-83.91 l -5.949,-20.97 z m 229.039,-42.81 c -66.617,3.69 -149.109,20.41 -229.039,42.81 l 5.949,20.97 c 78.52,-22.39 159.313,-38.55 224.223,-41.95 l -1.133,-21.83 z m 0.562,11.06 -8.5,6.8 c 3.688,4.54 10.489,5.39 15.309,1.42 4.531,-3.69 5.379,-10.49 1.699,-15.02 l -8.508,6.8 z m -56.691,-44.22 c 18.141,17.86 35.43,35.15 48.191,51.02 l 17.008,-13.6 c -13.609,-17.01 -31.468,-34.59 -49.89,-52.73 l -15.309,15.31 z m -92.41,-123.03 c 11.621,42.81 53.582,84.48 92.41,123.03 l 15.309,-15.31 c -36.848,-36.57 -76.821,-76.25 -86.739,-113.38" /><path
         id="path66"
         style="fill:#dcdcd6;fill-opacity:1;fill-rule:nonzero;stroke:none"
         d="m 567.66,1390.56 c 16.16,59.24 98.082,119.91 138.613,170.08 -136.632,7.37 -343.269,70.3 -450.421,126.99 -22.961,12.19 -37.7,25.23 -21.258,-11.62 74.547,-167.81 188.5,-230.74 333.066,-285.45" /><path
         id="path68"
         style="fill:#e8e8e1;fill-opacity:1;fill-rule:nonzero;stroke:none"
         d="m 621.52,1467.38 c 21.539,36.28 60.66,63.21 83.91,92.13 l 0.558,1.13 c -136.629,7.37 -342.988,70.3 -450.136,126.99 -13.321,7.09 -23.813,14.46 -27.211,12.19 106.007,-130.96 258.8,-187.09 392.879,-232.44" /><path
         id="path70"
         style="fill:#000000;fill-opacity:1;fill-rule:nonzero;stroke:none"
         d="m 1160.39,496.512 9.91,-3.969 c -2.26,-5.383 -8.5,-8.223 -13.89,-5.949 -5.66,2.269 -8.5,8.5 -6.22,13.886 l 10.2,-3.968 z m 14.46,7.941 c -1.42,-3.973 -2.84,-7.941 -4.55,-11.91 l -20.11,7.937 c 1.41,3.68 2.83,7.372 3.95,11.051 l 20.71,-7.078 z m 3.68,11.617 c -0.85,-3.117 -1.98,-6.519 -3.68,-11.617 l -20.71,7.078 c 0.86,2.551 2.27,6.813 3.7,11.063 l 20.69,-6.524 z m 21.26,52.16 c -8.79,-15.878 -15.31,-34.296 -21.26,-52.16 l -20.69,6.524 c 6.23,19.269 13.04,38.547 23.23,56.117 l 18.72,-10.481 z m 36,37.133 c -16.16,-8.793 -27.22,-22.109 -36,-37.133 l -18.72,10.481 c 10.5,18.43 24.11,34.59 44.23,45.641 l 10.49,-18.989 z m 53.01,18.707 c -21.26,-6.238 -41.39,-12.187 -53.01,-18.707 l -10.49,18.989 c 13.61,7.66 34.86,13.89 57.55,20.41 l 5.95,-20.692 z m 95.81,43.942 c -17.86,-21.258 -58.68,-33.168 -95.81,-43.942 l -5.95,20.692 c 34.01,9.922 71.43,20.98 85.04,37.14 l 16.72,-13.89 z m 23.8,19.84 c -6.52,-3.969 -14.73,-8.789 -23.8,-19.84 l -16.72,13.89 c 11.32,13.891 21.25,19.84 29.48,24.661 l 11.04,-18.711 z m 24.39,46.769 c 0,-32.027 -9.35,-37.699 -24.39,-46.769 l -11.04,18.711 c 8.5,5.097 13.59,8.218 13.89,28.058 l 21.54,0 z m -3.98,10.199 c 2.56,-2.547 4.25,-5.949 3.98,-10.199 l -21.54,0 c 0,2.27 3.68,-6.801 2.26,-5.391 l 15.3,15.59 z m -6.79,3.692 c 2.54,-0.571 4.82,-1.981 6.79,-3.692 l -15.3,-15.59 c -1.13,1.141 5.11,-2.257 3.96,-1.976 l 4.55,21.258 z m -2.27,-10.77 1.97,10.77 c 5.97,-1.418 9.65,-7.09 8.52,-12.758 -1.14,-5.953 -7.09,-9.633 -12.77,-8.5 l 2.28,10.488 z m -4.82,10.488 c 2.27,0.563 4.54,0.563 6.79,0.282 l -4.25,-21.258 c -1.12,0.277 4.25,0.277 3.13,0 l -5.67,20.976 z m -9.07,-7.089 c 1.98,3.679 5.39,5.953 9.07,7.089 l 5.67,-20.976 c -1.7,-0.281 5.67,5.668 4.53,3.969 l -19.27,9.918 z m 9.64,-5.098 1.13,10.77 c 5.95,-0.571 10.49,-5.95 9.64,-11.911 -0.57,-5.949 -5.96,-10.199 -11.91,-9.629 l 1.14,10.77 z m -154.49,48.75 c 51.02,-16.152 102.05,-32.313 155.62,-37.98 l -2.27,-21.54 c -55.27,5.95 -107.43,22.387 -159.87,38.829 l 6.52,20.691 z m -95.54,27.777 c 32.04,-7.648 63.79,-17.566 95.54,-27.777 l -6.52,-20.691 c -30.9,9.921 -61.79,19.839 -93.84,27.211 l 4.82,21.257 z m -81.63,15.032 c 27.5,-3.969 55,-8.789 81.63,-15.032 l -4.82,-21.257 c -26.07,6.238 -52.71,11.058 -79.64,14.738 l 2.83,21.551 z m -82.78,7.929 c 27.5,-1.699 55.29,-4.25 82.78,-7.929 l -2.83,-21.551 c -26.93,3.691 -54.14,6.242 -81.356,7.66 l 1.406,21.82 z m -0.84,-10.769 -1.132,10.769 c 6.222,0.571 11.342,-3.961 11.902,-9.918 0.85,-5.953 -3.68,-11.05 -9.63,-11.621 l -1.14,10.77 z m -91.566,-1.699 c 30.332,5.39 60.383,9.359 90.434,12.468 l 2.272,-21.539 c -30.054,-3.121 -59.534,-7.09 -88.733,-12.191 l -3.973,21.262 z m -88.719,-20.692 c 29.2,8.5 58.961,15.313 88.719,20.692 l 3.973,-21.262 c -29.481,-5.379 -58.391,-11.899 -86.742,-20.117 l -5.95,20.687 z m -94.679,-32.32 c 30.898,11.633 62.082,22.961 94.679,32.32 l 5.95,-20.687 c -31.18,-9.082 -62.079,-20.411 -93.258,-32.043 l -7.371,20.41 z M 570.777,724.133 c 53.008,8.219 103.75,26.93 154.489,45.918 l 7.371,-20.41 c -51.59,-18.989 -103.18,-38.258 -158.742,-47.047 l -3.118,21.539 z m 1.7,-10.77 9.359,5.391 c 2.832,-5.113 1.129,-11.91 -4.25,-14.742 -5.109,-2.84 -11.629,-1.141 -14.738,4.25 l 9.629,5.101 z m 0.289,12.188 c 3.679,-0.848 7.082,-3.117 9.07,-6.797 l -18.988,-10.492 c -1.141,1.98 6.797,-4.25 4.82,-3.692 l 5.098,20.981 z m -2.551,-10.488 2.551,10.488 c 5.672,-1.418 9.351,-7.367 7.929,-13.039 -1.41,-5.949 -7.078,-9.352 -13.027,-7.942 l 2.547,10.493 z m -4.539,10.488 c 2.269,0.57 4.82,0.57 7.09,0 l -5.098,-20.981 c -1.141,0.293 4.25,0.293 3.398,0 l -5.39,20.981 z m -6.801,-3.969 c 1.98,1.988 4.25,3.398 6.801,3.969 l 5.39,-20.981 c -1.421,-0.277 4.532,3.121 3.399,1.993 l -15.59,15.019 z m 7.941,-7.371 -7.941,7.371 c 3.973,4.25 11.051,4.539 15.313,0.281 4.25,-3.961 4.527,-10.769 0.558,-15.3 l -7.93,7.648 z m -11.628,-2.828 c -0.282,4.25 1.136,7.648 3.687,10.199 l 15.871,-15.019 c -1.422,-1.422 1.988,7.648 1.988,5.378 l -21.546,-0.558 z m 25.796,-45.641 c -15.308,8.219 -24.66,13.321 -25.796,45.641 l 21.546,0.558 c 0.563,-19.558 5.954,-22.39 14.743,-27.211 l -10.493,-18.988 z m 24.383,-18.429 c -9.359,10.21 -17.582,14.738 -24.383,18.429 l 10.493,18.988 c 7.929,-4.25 18.14,-9.917 30.039,-22.957 l -16.149,-14.46 z m 71.707,-45.629 c -25.789,11.328 -51.019,22.386 -71.707,45.629 l 16.149,14.46 c 17.582,-19.839 40.539,-29.761 64.351,-39.972 l -8.793,-20.117 z m 25.801,-11.633 c -8.219,4.262 -17.008,7.941 -25.801,11.633 l 8.793,20.117 c 8.789,-3.969 17.578,-7.938 26.649,-12.469 l -9.641,-19.281 z m 66.332,-38.258 c -22.68,15.867 -48.191,29.187 -66.332,38.258 l 9.641,19.281 c 18.699,-9.07 45.351,-23.25 69.16,-39.691 l -12.469,-17.848 z m 46.199,-47.34 c -5.672,15.867 -24.66,32.598 -46.199,47.34 l 12.469,17.848 c 24.66,-17 46.488,-37.129 54.14,-57.821 l -20.41,-7.367 z m 3.969,-11.34 c -1.699,5.098 -3.117,8.5 -3.969,11.34 l 20.41,7.367 c 1.418,-4.257 3.122,-8.507 3.969,-11.058 l -20.41,-7.649 z m 4.82,-11.621 c -1.699,3.961 -3.398,7.93 -4.82,11.621 l 20.41,7.649 c 1.422,-3.68 2.84,-7.371 4.25,-10.77 l -19.84,-8.5 z m 9.922,4.25 1.699,10.77 c 5.961,-1.129 9.918,-6.52 9.071,-12.469 -1.129,-5.961 -6.801,-9.922 -12.473,-8.789 l 1.703,10.488 z m -42.519,15.59 c 15.027,-1.141 30.047,-2.269 44.218,-4.82 l -3.402,-21.258 c -13.598,2.269 -28.059,3.398 -42.519,4.539 l 1.703,21.539 z m -95.243,27.211 c 22.961,-21.832 59.243,-24.66 95.243,-27.211 l -1.703,-21.539 c -39.68,2.828 -79.938,5.949 -108.571,33.16 l 15.031,15.59 z m -13.89,13.32 13.89,-13.32 -15.031,-15.59 -13.879,13.32 15.02,15.59 z m -7.649,-7.652 10.2,4.25 c 2.269,-5.379 -0.282,-11.898 -5.668,-14.168 -5.672,-2.551 -11.903,0 -14.461,5.668 l 9.929,4.25 z M 517.207,717.332 C 583.258,666.871 651.848,614.434 685.016,538.461 l -20.129,-8.5 c -30.61,70.859 -96.942,121.32 -160.723,170.082 l 13.043,17.289 z m -143.43,277.789 c -44.511,-134.07 46.77,-204.09 143.43,-277.789 l -13.043,-17.289 c -102.898,78.52 -200.406,153.07 -150.797,301.887 l 20.41,-6.809 z m 58.391,121.039 c -28.352,-54.99 -51.023,-99.49 -58.391,-121.039 l -20.41,6.809 c 7.649,23.24 30.891,68.31 59.52,124.15 l 19.281,-9.92 z m 145.699,324.57 c -30.902,-100.91 -96.66,-228.76 -145.699,-324.57 l -19.281,9.92 c 48.758,95.25 113.961,221.96 144.289,320.89 l 20.691,-6.24 z m -26.652,170.08 c 54.152,-16.44 53.012,-84.19 26.652,-170.08 l -20.691,6.24 c 22.672,73.98 26.082,131.52 -12.469,143.15 l 6.508,20.69 z m -3.399,-10.21 10.489,-3.11 c -1.7,-5.67 -7.649,-9.07 -13.321,-7.37 -5.949,1.7 -9.066,7.65 -7.367,13.6 l 10.199,-3.12 z m 19.559,15.03 c -3.68,-4.54 -6.801,-10.49 -9.07,-18.14 l -20.688,6.23 c 3.117,10.21 7.367,18.71 12.75,25.51 l 17.008,-13.6 z m 15.59,10.2 c -5.949,-1.41 -11.34,-4.82 -15.59,-10.2 l -17.008,13.6 c 7.367,9.08 16.731,15.03 27.5,17.58 l 5.098,-20.98 z m 21.551,-1.13 c -7.942,2.27 -15.309,2.83 -21.551,1.13 l -5.098,20.98 c 9.918,2.55 21.258,1.98 32.598,-1.42 l -5.949,-20.69 z m 30.89,-17.29 c -10.48,8.5 -20.968,14.45 -30.89,17.29 l 5.949,20.69 c 12.75,-3.68 25.793,-10.77 38.551,-21.26 l -13.61,-16.72 z m 6.809,8.5 6.801,-8.5 c -4.821,-3.69 -11.621,-3.12 -15.309,1.7 -3.68,4.82 -2.832,11.62 1.988,15.31 l 6.52,-8.51 z m 324.851,-2.55 c -40.539,23.53 -178.589,103.18 -318.05,-5.95 l -13.321,17.01 c 150.801,118.2 298.77,32.88 342.141,7.65 l -10.77,-18.71 z m 13.598,-7.09 c -3.109,0.85 -7.367,3.41 -13.598,7.09 l 10.77,18.71 c 5.102,-2.84 8.219,-4.82 8.789,-5.1 l -5.961,-20.7 z m 3.121,10.49 3.121,-10.49 c -5.672,-1.7 -11.621,1.42 -13.609,7.09 -1.699,5.67 1.418,11.91 7.09,13.61 l 3.398,-10.21 z m 12.473,-4.82 c -4.25,-3.12 -7.082,-4.82 -9.352,-5.67 l -6.519,20.7 c 0.57,0.28 0.847,0.85 3.679,2.83 l 12.192,-17.86 z m 318.042,12.48 c -146.26,104.88 -286.57,9.07 -318.042,-12.48 l -12.192,17.86 c 33.734,22.96 184.254,125.86 343.004,11.91 l -12.77,-17.29 z m 6.52,8.78 7.09,-8.22 c -4.53,-3.97 -11.34,-3.68 -15.3,0.85 -3.97,4.54 -3.4,11.34 1.12,15.31 l 7.09,-7.94 z m 38.84,11.06 c -10.2,-3.4 -20.97,-9.92 -31.75,-19.28 l -14.18,16.16 c 12.77,11.34 26.38,19.56 39.13,23.81 l 6.8,-20.69 z m 20.7,1.7 c -6.24,1.42 -13.32,0.85 -20.7,-1.7 l -6.8,20.69 c 11.05,3.4 21.83,4.25 32.03,2.27 l -4.53,-21.26 z m 15.3,-9.07 c -4.25,4.82 -9.63,7.93 -15.3,9.07 l 4.53,21.26 c 10.21,-2.27 19.56,-7.37 27.22,-16.16 l -16.45,-14.17 z m 9.36,-17.58 c -2.27,7.37 -5.39,13.33 -9.36,17.58 l 16.45,14.17 c 5.67,-6.52 10.19,-14.74 13.6,-24.94 l -20.69,-6.81 z m 10.49,3.4 -3.69,10.21 c 5.66,1.98 11.91,-1.13 13.89,-6.52 1.99,-5.67 -0.85,-11.91 -6.52,-13.89 l -3.68,10.2 z m -22.12,-167.24 c -31.75,87.87 -36.84,157.32 18.43,177.45 l 7.37,-20.41 c -39.68,-14.46 -32.89,-73.7 -5.39,-149.67 l -20.41,-7.37 z m 133.52,-276.66 c -48.2,89.86 -103.18,192.19 -133.52,276.66 l 20.41,7.37 c 30.05,-83.05 84.48,-184.82 132.39,-273.83 l -19.28,-10.2 z m 90.14,-190.208 c -5.95,33.448 -45.07,106.018 -90.14,190.208 l 19.28,10.2 c 45.92,-85.6 85.6,-159.87 92.11,-196.717 l -21.25,-3.691 z M 1470.5,743.973 c 85.04,70.3 165.82,137.199 146.55,244.629 l 21.25,3.691 c 21.55,-119.621 -64.05,-190.492 -153.91,-265.039 l -13.89,16.719 z M 1308.07,556.891 c 30.89,77.672 97.8,133.23 162.43,187.082 l 13.89,-16.719 C 1421.73,675.383 1357.11,621.523 1328.2,548.953 l -20.13,7.938 z m 9.93,-3.969 -7.66,7.648 c 3.96,4.25 10.77,4.25 15.3,0.293 4.25,-4.261 4.25,-11.062 0.29,-15.312 l -7.93,7.371 z m -21.27,-6.52 13.61,14.168 15.59,-15.019 -13.61,-14.168 -15.59,15.019 z m -94.68,-32.32 c 36,4.539 72.29,9.078 94.68,32.32 l 15.59,-15.019 c -27.77,-28.629 -67.75,-33.742 -107.43,-38.84 l -2.84,21.539 z m -44.21,-6.801 c 14.46,3.121 29.48,4.821 44.21,6.801 l 2.84,-21.539 c -14.45,-1.699 -28.91,-3.68 -42.23,-6.52" /><path
         id="path72"
         style="fill:#863a1f;fill-opacity:1;fill-rule:nonzero;stroke:none"
         d="m 1160.39,496.512 c 49.32,11.051 109.41,6.242 144,42.519 l 13.61,13.891 c 71.14,178.301 344.96,241.23 309.82,437.391 -19.56,108.847 -353.77,581.377 -212.31,632.397 -14.74,44.79 -56.13,44.23 -94.69,10.49 -169.22,121.33 -329.375,-14.17 -337.035,-16.44 -14.738,4.25 -176.597,128.13 -341.57,-0.85 -39.688,31.75 -80.789,30.33 -94.399,-15.31 138.051,-42.23 -153.628,-510.23 -184.25,-602.069 -77.671,-233.859 230.461,-278.078 311.25,-464.32 l 13.879,-13.32 c 36.012,-34.297 95.821,-26.649 145.422,-35.149 -3.121,7.371 -5.953,15.02 -8.5,22.391 -13.32,36.57 -81.359,73.418 -117.922,91.558 -33.449,16.731 -68.32,25.801 -94.398,54.711 -27.492,30.899 -45.922,15.309 -47.34,57.258 -0.281,3.973 4.82,4.543 6.52,1.703 87.031,13.61 166.109,54.43 250.3,78.797 57.547,16.442 117.637,26.371 177.453,32.602 54.98,-3.399 109.98,-10.199 162.98,-22.68 84.77,-20.121 164.99,-56.969 252.3,-66.039 1.7,2.828 6.52,2.551 6.52,-1.422 -0.3,-41.949 -18.99,-27.211 -45.92,-59.527 -25.23,-30.332 -112.54,-41.672 -145.7,-60.09 -35.72,-20.133 -49.89,-58.684 -62.09,-95.531 -2.54,-7.653 -5.11,-15.313 -7.93,-22.961" /><path
         id="path74"
         style="fill:#000000;fill-opacity:1;fill-rule:nonzero;stroke:none"
         d="m 688.484,1062.9 c -42.027,0 -118.988,-8.6 -162.226,-66.232 -34.203,-45.578 -39.024,-111.719 -14.313,-196.598 0.711,-2.453 0.563,-5.07 -0.437,-7.41 -22.903,-53.801 -25.524,-98.543 -7.774,-133.012 21.442,-41.628 71.883,-70.687 154.184,-88.839 4.957,-1.098 8.539,-5.43 8.668,-10.508 2.441,-94.391 39.449,-315.59 332.34,-310.692 292.864,4.239 326.034,224.289 326.714,318.7 0.05,5.082 3.54,9.492 8.49,10.671 85,20.29 136.49,51.008 157.39,93.95 17.03,34.968 13.25,79.73 -11.22,133.05 -1.07,2.329 -1.29,4.938 -0.66,7.411 22.15,84.589 15.89,150.129 -18.57,194.769 -42.61,55.18 -116.5,63.42 -156.75,63.42 -69.32,0 -129.78,-23 -148.18,-45.23 -3.07,-3.7 -8.18,-5.01 -12.6,-3.23 -50.62,20.16 -101.19,30.86 -150.325,31.82 l -2.059,0 c -48.019,-2.18 -98.308,-14.37 -148.968,-36.23 -4.43,-1.9 -9.543,-0.74 -12.704,2.87 -17.539,20.03 -72.918,41.32 -141,41.32 M 990.117,227.438 c -295.793,0 -340.699,219.671 -345.332,323.691 -84.23,19.84 -136.84,52.07 -160.699,98.398 -20.481,39.762 -18.609,89.59 5.551,148.141 -25.512,90.141 -19.141,161.531 18.929,212.272 49.02,65.32 133.77,75.07 179.918,75.07 62.973,0 123.524,-17.43 151.883,-43.06 50.801,21.08 101.321,32.87 150.289,35.09 l 2.77,0.01 c 49.714,-0.97 100.514,-11.27 151.264,-30.65 29.07,27.74 94.02,47.29 159.63,47.29 44.32,0 125.88,-9.35 174.25,-72.02 38.32,-49.643 46.22,-120.311 23.46,-210.072 25.86,-58.09 29.02,-107.981 9.36,-148.348 -23.25,-47.75 -76.86,-81.723 -163.78,-103.723 -2.73,-105.058 -44.57,-327.617 -348.352,-332.027 -3.082,-0.039 -6.113,-0.062 -9.141,-0.062" /><path
         id="path76"
         style="fill:#fad4c5;fill-opacity:1;fill-rule:nonzero;stroke:none"
         d="m 993.426,1065.99 -2.27,0 c -43.929,-1.98 -95.531,-12.19 -153.351,-37.13 -61.797,70.58 -432.848,99.21 -336.469,-231.88 -60.102,-141.16 19.269,-207.207 154.199,-236.968 1.981,-76.821 26.93,-326.27 343.563,-321.449 313.512,4.531 337.042,250.3 337.612,329.667 137.75,32.883 218.55,100.911 153.63,242.364 87.3,333.636 -282.89,295.086 -342.71,222.796 -58.4,23.25 -110.56,31.75 -154.204,32.6" /><path
         id="path78"
         style="fill:#000000;fill-opacity:1;fill-rule:nonzero;stroke:none"
         d="m 759.566,930.781 c 50.461,-57.261 60.379,-131.812 21.832,-166.39 -38.269,-34.59 -110.839,-16.161 -161.293,41.097 -50.738,57.262 -60.667,131.813 -22.109,166.391 38.551,34.591 110.832,16.16 161.57,-41.098" /><path
         id="path80"
         style="fill:#391f17;fill-opacity:1;fill-rule:nonzero;stroke:none"
         d="m 726.684,874.371 c -2.829,17.008 1.421,38.27 17.011,47.34 5.95,3.398 13.321,3.68 20.969,2.828 -1.699,2.27 -3.398,4.262 -5.098,6.242 -50.742,57.258 -123.019,75.679 -161.57,41.098 -38.551,-34.578 -28.633,-109.129 22.109,-166.391 50.45,-57.258 123.02,-75.687 161.29,-41.097 5.378,4.808 9.921,10.48 13.32,16.718 -32.031,22.391 -61.789,55.282 -68.031,93.262" /><path
         id="path82"
         style="fill:#57281a;fill-opacity:1;fill-rule:nonzero;stroke:none"
         d="M 730.938,795.852 C 710.25,817.68 688.137,846.313 687.566,878.34 687,921.711 717.898,940.699 751.629,939 701.738,989.742 634.559,1004.76 598,971.883 559.438,937.301 569.367,862.75 620.109,805.492 c 47.618,-53.859 114.231,-73.14 153.918,-46.769 -15.308,11.047 -30.05,23.519 -43.089,37.129" /><path
         id="path84"
         style="fill:#863a1f;fill-opacity:1;fill-rule:nonzero;stroke:none"
         d="M 690.117,796.699 C 666.879,826.18 645.328,866.723 651,906.121 c 5.949,41.668 42.801,50.738 80.219,50.738 -46.489,36 -101.481,43.651 -133.231,15.024 -38.55,-34.582 -28.629,-109.133 22.11,-166.391 36,-40.82 83.062,-61.801 121.043,-57.832 -18.993,13.891 -36.563,30.332 -51.024,49.039" /><path
         id="path86"
         style="fill:#000000;fill-opacity:1;fill-rule:nonzero;stroke:none"
         d="m 733.773,743.125 c -38.832,-0.277 -83.339,22.391 -116.5,59.813 -24.953,28.347 -41.113,61.507 -45.363,93.828 -4.25,32.601 3.973,60.379 23.531,77.949 13.039,11.621 30.61,18.14 50.461,18.43 38.551,0.281 83.328,-22.399 116.219,-59.821 52.152,-58.668 61.789,-135.769 21.82,-171.769 -13.039,-11.629 -30.328,-18.149 -50.168,-18.43 m -87.871,242.359 c -17.859,-0.277 -33.742,-5.949 -45.359,-16.437 -17.859,-15.871 -25.23,-41.383 -21.262,-71.43 3.973,-30.621 19.563,-62.652 43.371,-89.582 31.75,-36 74.27,-57.82 110.84,-57.258 18.141,0.289 33.731,5.957 45.629,16.438 36.852,33.172 26.93,105.449 -22.391,161.012 -31.75,36 -74.269,57.828 -110.828,57.257" /><path
         id="path88"
         style="fill:#000000;fill-opacity:1;fill-rule:nonzero;stroke:none"
         d="m 1223.32,937.301 c -49.05,-58.684 -56.69,-133.512 -17.3,-166.961 39.41,-33.449 111.12,-13.039 160.16,45.348 49.05,58.679 56.98,133.519 17.57,166.96 -39.39,33.452 -111.11,13.332 -160.43,-45.347" /><path
         id="path90"
         style="fill:#391f17;fill-opacity:1;fill-rule:nonzero;stroke:none"
         d="m 1257.61,881.738 c 2.28,17.012 -2.54,38.274 -18.13,46.774 -6.25,3.398 -13.62,3.398 -20.98,2.269 1.7,2.27 3.11,4.25 4.82,6.52 49.32,58.679 121.04,78.799 160.43,45.347 39.41,-33.449 31.48,-108.277 -17.57,-166.957 -49.04,-58.39 -120.75,-78.8 -160.16,-45.351 -5.66,4.531 -9.91,10.199 -13.61,16.441 31.48,22.957 60.11,56.688 65.2,94.957" /><path
         id="path92"
         style="fill:#57281a;fill-opacity:1;fill-rule:nonzero;stroke:none"
         d="m 1255.63,803.223 c 20.13,22.386 41.39,51.59 41.1,83.34 -0.56,43.648 -32.31,61.789 -65.76,58.957 48.47,52.16 115.37,69.16 152.79,37.132 39.4,-33.453 31.46,-108.281 -17.58,-166.961 -45.92,-54.992 -112.25,-76.25 -152.79,-50.742 15.31,11.34 29.48,24.102 42.24,38.274" /><path
         id="path94"
         style="fill:#863a1f;fill-opacity:1;fill-rule:nonzero;stroke:none"
         d="m 1296.45,804.922 c 22.39,30.332 42.8,71.43 36,110.551 -7.09,41.668 -44.22,49.609 -81.64,48.757 45.64,37.13 100.35,46.2 132.95,18.422 39.4,-33.449 31.46,-108.281 -17.58,-166.961 -34.86,-41.668 -81.35,-63.781 -119.34,-61.23 18.71,14.742 35.72,31.473 49.61,50.461" /><path
         id="path96"
         style="fill:#000000;fill-opacity:1;fill-rule:nonzero;stroke:none"
         d="m 1254.5,750.496 c 38.55,0.57 82.48,24.66 114.52,62.93 24.37,28.91 39.39,62.64 42.8,94.961 3.39,32.597 -5.68,60.09 -25.79,77.097 -13.33,11.34 -30.9,17.296 -50.74,17.016 -38.56,-0.57 -82.77,-24.664 -114.81,-62.934 -50.18,-60.089 -57.82,-137.199 -17,-172.058 13.59,-11.344 31.18,-17.293 51.02,-17.012 m 81.07,244.629 c 17.86,0.281 33.73,-5.098 45.64,-15.309 18.14,-15.3 26.36,-40.531 23.24,-70.859 -3.13,-30.621 -17.86,-62.93 -41.1,-90.711 -30.62,-36.851 -72.57,-59.808 -109.14,-60.379 -17.85,-0.281 -33.73,5.098 -45.91,15.309 -37.71,32.031 -29.77,104.601 17.84,161.57 30.91,36.852 72.57,59.809 109.43,60.379" /><path
         id="path98"
         style="fill:#000000;fill-opacity:1;fill-rule:nonzero;stroke:none"
         d="m 652.133,1349.46 c 28.351,80.79 91.84,154.2 176.031,172.63 47.059,10.49 86.738,-24.38 112.539,-78.24 14.742,-30.89 24.942,-68.59 28.91,-107.43 3.692,-39.12 1.422,-79.09 -8.5,-115.37 -19.558,-70.3 -68.039,-125.01 -156.48,-126.42 -70.297,-0.85 -116.778,25.79 -142.86,66.33 -16.437,25.51 -24.66,56.12 -25.8,89 -1.129,32.32 4.543,66.62 16.16,99.5 m 180.851,150.24 c -75.679,-16.44 -133.23,-83.91 -159.308,-157.89 -10.774,-30.33 -15.871,-61.8 -15.024,-91 1.133,-28.91 8.223,-55.55 22.391,-77.66 22.109,-34.02 61.801,-56.41 123.312,-55.56 75.969,1.13 117.637,48.47 134.649,109.7 9.351,33.16 11.332,70.58 7.648,106.86 -3.687,36 -13.039,71.15 -26.648,100.07 -21.262,44.22 -52.149,73.13 -87.02,65.48" /><path
         id="path100"
         style="fill:#fdfdfd;fill-opacity:1;fill-rule:nonzero;stroke:none"
         d="m 830.434,1511.03 c -196.719,-43.37 -276.942,-408.47 -26.079,-404.79 240.375,3.12 163.84,434.84 26.079,404.79" /><path
         id="path102"
         style="fill:#000000;fill-opacity:1;fill-rule:nonzero;stroke:none"
         d="m 822.781,1427.69 c 54.989,-8.5 90.707,-66.9 79.938,-130.68 -10.489,-63.49 -63.778,-108 -118.77,-99.49 -54.711,8.5 -90.711,66.89 -79.937,130.67 10.769,63.5 64.058,108 118.769,99.5" /><path
         id="path104"
         style="fill:#9f3e25;fill-opacity:1;fill-rule:nonzero;stroke:none"
         d="m 818.527,1401.61 c 42.52,-6.52 70.301,-51.87 61.801,-100.91 -8.23,-49.32 -49.332,-83.91 -91.851,-77.11 -42.52,6.52 -70.297,51.88 -62.079,100.93 8.508,49.32 49.61,83.89 92.129,77.09" /><path
         id="path106"
         style="fill:#000000;fill-opacity:1;fill-rule:nonzero;stroke:none"
         d="m 811.727,1361.08 c 22.957,-3.4 38.269,-28.06 33.726,-54.99 -4.527,-26.93 -26.93,-45.64 -50.168,-41.95 -23.25,3.4 -38.269,28.06 -33.73,54.99 4.531,26.93 26.929,45.64 50.172,41.95" /><path
         id="path108"
         style="fill:#fdfdfd;fill-opacity:1;fill-rule:nonzero;stroke:none"
         d="m 781.961,1364.48 c 8.5,-1.42 14.172,-10.49 12.469,-20.69 -1.7,-9.92 -9.918,-17.01 -18.707,-15.59 -8.5,1.41 -14.172,10.48 -12.473,20.41 1.699,10.2 9.922,17 18.711,15.87" /><path
         id="path110"
         style="fill:#000000;fill-opacity:1;fill-rule:nonzero;stroke:none"
         d="m 1302.68,1350.88 c -28.05,73.12 -87.59,138.6 -163.55,153.07 -35.15,6.79 -65.2,-22.97 -85.33,-68.04 -12.75,-29.2 -21.25,-64.35 -23.8,-100.62 -2.55,-36.29 0.55,-73.7 10.77,-106.59 18.71,-60.66 61.78,-106.86 137.75,-105.74 61.23,0.85 100.64,24.38 121.62,58.97 13.61,22.39 19.84,49.32 20.11,78.23 0,29.2 -5.95,60.38 -17.57,90.72 m -159.3,175.75 c 84.48,-16.17 150.23,-87.89 180.85,-167.82 12.47,-32.6 19,-66.61 18.7,-98.93 0,-32.88 -7.64,-63.77 -23.23,-89.58 -24.95,-41.37 -70.59,-69.44 -140.88,-70.3 -88.44,-1.41 -138.34,52.16 -159.89,121.89 -11.04,36 -14.73,75.97 -11.89,115.09 2.82,38.83 11.89,76.82 25.78,108.29 24.38,54.43 63.22,90.43 110.56,81.36" /><path
         id="path112"
         style="fill:#fdfdfd;fill-opacity:1;fill-rule:nonzero;stroke:none"
         d="m 1141.11,1515.29 c 198.14,-37.71 288.57,-400.25 37.42,-403.95 -240.1,-3.39 -175.75,430.3 -37.42,403.95" /><path
         id="path114"
         style="fill:#000000;fill-opacity:1;fill-rule:nonzero;stroke:none"
         d="m 1151.88,1432.51 c -54.43,-10.2 -88.72,-69.73 -76.25,-132.94 12.47,-63.22 66.9,-106.3 121.6,-96.1 54.71,9.92 88.73,69.45 76.26,132.66 -12.48,63.21 -66.9,106.3 -121.61,96.38" /><path
         id="path116"
         style="fill:#9f3e25;fill-opacity:1;fill-rule:nonzero;stroke:none"
         d="m 1156.98,1406.43 c -42.23,-7.65 -68.59,-53.57 -58.96,-102.61 9.64,-49.04 51.87,-82.49 94.12,-74.56 42.24,7.66 68.59,53.86 58.95,102.9 -9.64,48.76 -51.59,82.21 -94.11,74.27" /><path
         id="path118"
         style="fill:#000000;fill-opacity:1;fill-rule:nonzero;stroke:none"
         d="m 1164.92,1366.18 c -22.96,-4.25 -37.42,-29.2 -32.03,-56.13 5.38,-26.64 28.34,-44.78 51.31,-40.53 22.96,4.25 37.41,29.48 32.03,56.12 -5.11,26.65 -28.07,44.79 -51.31,40.54" /><path
         id="path120"
         style="fill:#fdfdfd;fill-opacity:1;fill-rule:nonzero;stroke:none"
         d="m 1187.32,1364.48 c -8.5,-1.7 -13.89,-11.06 -11.91,-20.98 1.98,-9.92 10.48,-16.72 19,-15.02 8.77,1.42 14.16,10.77 12.18,20.69 -1.98,9.92 -10.48,16.73 -19.27,15.31" /><path
         id="path122"
         style="fill:#000000;fill-opacity:1;fill-rule:nonzero;stroke:none"
         d="m 654.402,1762.18 c 1.129,0 2.27,0 3.399,-0.28 20.133,34.3 56.98,57.26 99.211,57.82 24.949,0.29 48.48,-7.08 67.468,-20.12 14.461,15.59 32.032,28.06 52.161,36.28 17.293,41.95 58.39,71.72 106.582,72.57 56.117,0.85 103.457,-37.99 115.647,-90.43 20.98,24.95 52.44,40.82 87.59,41.39 64.63,0.85 117.92,-50.74 118.77,-115.37 l 0,-4.54 c 64.63,0.85 117.64,-50.74 118.49,-115.37 1.14,-64.63 -50.74,-117.64 -115.37,-118.77 -59.24,-0.57 -108.85,42.8 -117.35,99.78 -20.13,-34.02 -56.69,-56.98 -99.21,-57.54 -31.47,-0.57 -60.1,11.34 -81.64,31.46 -21.83,-14.17 -48.189,-22.68 -76.248,-22.96 l -1.992,0 c -18.137,-39.97 -58.109,-68.03 -104.879,-68.6 -45.07,-0.56 -84.468,24.38 -104.597,61.23 -18.422,-12.75 -40.821,-20.41 -64.911,-20.69 -64.632,-0.85 -117.64,50.74 -118.492,115.37 -0.847,64.63 50.742,117.64 115.371,118.77" /><path
         id="path124"
         style="fill:#000000;fill-opacity:1;fill-rule:nonzero;stroke:none"
         d="m 989.176,705.992 c 128.404,0 240.374,-143.148 240.374,-249.449 0,-106.301 -111.97,-135.492 -240.374,-135.492 -128.692,0 -224.793,29.191 -224.793,135.492 0,106.301 96.101,249.449 224.793,249.449" /><path
         id="path126"
         style="fill:#fdfdfd;fill-opacity:1;fill-rule:nonzero;stroke:none"
         d="m 1108.8,664.891 c 11.91,-8.5 23.24,-18.141 33.73,-28.352 -10.77,-3.398 -21.82,-6.519 -33.16,-9.348" /><path
         id="path128"
         style="fill:#fdfdfd;fill-opacity:1;fill-rule:nonzero;stroke:none"
         d="m 841.203,635.41 c 13.043,13.891 27.211,26.36 42.801,36.852 l 0.57,-48.192 c -15.019,3.121 -29.48,7.09 -43.371,11.34" /><path
         id="path130"
         style="fill:#fdfdfd;fill-opacity:1;fill-rule:nonzero;stroke:none"
         d="m 989.176,705.992 4.539,0 0,-2.832 0.848,-89.578 c -37.418,-0.57 -73.137,3.121 -106.02,9.641 l -0.848,51.59 c 30.047,19.269 64.348,31.179 101.481,31.179" /><path
         id="path132"
         style="fill:#fdfdfd;fill-opacity:1;fill-rule:nonzero;stroke:none"
         d="M 999.945,705.711 C 1037.07,703.16 1072.8,689.27 1104.27,667.73 l 0,-41.671 -3.13,-0.571 -1.41,-0.57 -1.71,-0.277 c -1.41,-0.282 -2.84,-0.571 -4.25,-0.852 l -0.29,0 -1.41,-0.281 -4.53,-0.86 -0.29,-0.281 -1.41,-0.277 -0.29,0 -2.84,-0.57 -1.69,-0.282 -1.43,-0.289 c -1.7,0 -3.11,-0.281 -4.82,-0.558 l -1.7,-0.293 c -1.41,-0.278 -3.11,-0.559 -4.82,-0.848 l -1.41,-0.281 -4.82,-0.571 -1.7,-0.281 c -1.69,-0.277 -3.12,-0.277 -4.82,-0.566 l -1.7,-0.281 c -1.69,-0.282 -3.12,-0.282 -4.82,-0.571 l -1.69,0 c -1.7,-0.281 -3.13,-0.558 -4.83,-0.558 l -1.69,-0.293 c -1.7,0 -3.41,-0.278 -5.11,-0.278 l -1.7,-0.293 c -1.69,0 -3.12,-0.277 -4.82,-0.277 l -1.69,-0.281 c -4.54,-0.289 -9.07,-0.571 -13.61,-0.571 -1.7,-0.281 -3.41,-0.281 -5.11,-0.281 l -1.69,0 c -2.27,-0.289 -4.54,-0.289 -6.81,-0.289 l -2.554,81.36 c 0,3.972 0.847,7.652 2.269,10.773" /><path
         id="path134"
         style="fill:#ff0000;fill-opacity:1;fill-rule:nonzero;stroke:none"
         d="m 1221.61,411.473 c -28.06,-69.731 -124.43,-90.43 -232.434,-90.43 -116.789,0 -206.93,24.102 -222.52,108.289 53.289,59.813 219.68,50.449 233.008,-8.508 20.126,69.449 191.046,80.789 221.946,-9.351" /><path
         id="path136"
         style="fill:#000000;fill-opacity:1;fill-rule:nonzero;stroke:none"
         d="m 833.551,635.41 c 40.25,44.789 94.39,76.25 155.34,76.25 l 0.281,-11.621 c -58.109,0 -109.418,-30.051 -147.969,-72.57 l -7.652,7.941 z M 759.004,456.539 c 0,58.402 28.348,127.563 74.547,178.871 l 7.652,-7.941 c -44.5,-49.321 -71.43,-115.367 -71.43,-170.93 l -10.769,0 z m 67.18,-112.82 c -41.954,21.551 -67.18,56.98 -67.18,112.82 l 10.769,0 c 0,-50.449 22.957,-82.769 60.95,-102.328 l -4.539,-10.492 z m 162.988,-28.617 c -65.192,0 -122.168,7.648 -162.988,28.617 l 4.539,10.492 c 39.398,-20.121 94.668,-27.492 158.168,-27.492 l 0.281,-11.617 z m 170.358,28.339 C 1114.75,322.469 1053.8,315.102 989.172,315.102 l -0.281,11.617 c 63.779,0 123.309,7.371 166.389,27.492 l 4.25,-10.77 z m 75.41,113.098 c 0,-55.84 -29.2,-91.559 -75.41,-113.098 l -4.25,10.77 c 42.24,19.559 69.17,51.879 69.17,102.328 l 10.49,0 z m -81.08,176.891 c 49.33,-51.309 81.08,-119.34 81.08,-176.891 l -10.49,0 c 0,54.43 -30.62,119.34 -78.24,168.383 l 7.65,8.508 z m -164.969,78.23 c 62.359,0 120.749,-32.601 164.969,-78.23 l -7.65,-8.508 c -42.23,43.937 -98.08,75.117 -157.038,75.117" /></g></g></svg>