<?xml version="1.0" encoding="UTF-8" standalone="no"?>
<svg
   xmlns:dc="http://purl.org/dc/elements/1.1/"
   xmlns:cc="http://creativecommons.org/ns#"
   xmlns:rdf="http://www.w3.org/1999/02/22-rdf-syntax-ns#"
   xmlns:svg="http://www.w3.org/2000/svg"
   xmlns="http://www.w3.org/2000/svg"
   viewBox="0 0 248.03751 248.03751"
   height="248.03751"
   width="248.03751"
   xml:space="preserve"
   version="1.1"
   id="svg2"><metadata
     id="metadata8"><rdf:RDF><cc:Work
         rdf:about=""><dc:format>image/svg+xml</dc:format><dc:type
           rdf:resource="http://purl.org/dc/dcmitype/StillImage" /></cc:Work></rdf:RDF></metadata><defs
     id="defs6" /><g
     transform="matrix(1.25,0,0,-1.25,0,248.0375)"
     id="g10"><g
       transform="scale(0.1,0.1)"
       id="g12"><path
         id="path14"
         style="fill:#51669c;fill-opacity:1;fill-rule:evenodd;stroke:none"
         d="M 674.527,975.711 C 662.34,901.16 607.918,856.938 607.918,785.219 c 0,-39.121 14.738,-37.129 26.641,-80.5 -54.422,-12.758 -88.719,-18.711 -72.852,-86.461 -24.937,-36.278 -15.019,-29.481 -7.937,-78.52 -19.274,-65.758 7.367,-126.988 49.328,-182.269 73.129,-96.09 162.14,-167.52 244.058,-208.629 41.391,-20.692 86.172,-32.59 127.563,-47.051 117.921,-40.8202 230.171,-60.1015 323.721,-35.9999 66.33,17.289 136.06,77.6719 198.42,152.4999 54.43,65.77 66.9,93.551 86.17,132.379 36,43.371 108.57,136.062 136.35,218.84 28.63,85.601 -35.43,186.23 -99.21,241.793 -46.77,94.109 -92.7,141.449 -161.58,182.269 -76.82,45.07 -117.35,53.01 -170.08,43.08 -26.64,-5.1 -52.44,-18.42 -96.37,-26.36 L 893.359,969.758" /><path
         id="path16"
         style="fill:#344776;fill-opacity:1;fill-rule:evenodd;stroke:none"
         d="m 633.426,708.969 c 0.57,-1.418 0.851,-2.828 1.129,-4.25 -54.418,-12.758 -88.719,-18.711 -72.848,-86.461 -24.941,-36.278 -15.019,-29.481 -7.93,-78.52 -19.281,-65.758 7.368,-126.988 49.321,-182.269 73.129,-96.09 162.136,-167.52 244.058,-208.629 41.391,-20.692 86.18,-32.59 127.559,-47.051 117.925,-40.8202 230.175,-60.1015 323.725,-35.9999 66.33,17.289 136.06,77.6719 198.42,152.4999 54.71,65.77 66.9,93.551 86.18,132.379 36,43.371 108.56,136.062 136.34,218.84 24.1,72.281 -17.58,154.769 -69.45,212.312 26.64,-49.89 43.94,-97.793 39.41,-116.793 -19.56,-83.047 -178.59,-236.41 -250.59,-280.91 -103.46,-63.777 -238.11,-86.457 -352.06,-78.519 -57.55,4.25 -110.835,16.441 -168.092,35.152 21.257,-23.812 94.952,-104.602 128.402,-100.352 81.07,10.211 74.55,7.661 160.45,11.629 77.37,3.684 174.6,24.09 255.96,68.59 32.32,17.582 93.82,75.121 135.78,118.211 38.27,39.402 62.36,64.633 54.43,46.492 -22.11,-51.882 -70.3,-104.32 -130.11,-150.812 -49.05,-37.981 -106.03,-72 -163.28,-97.789 -16.72,-7.66 -51.3,-24.379 -56.41,-17.86 -5.11,6.52 33.73,28.629 20.41,41.668 -5.95,5.383 -83.91,-31.179 -123.3,-39.398 -56.98,-11.91 -111.97,-8.219 -164.13,5.101 C 866.145,269.879 719.035,428.059 610.188,532.09 723.566,395.168 794.438,278.668 900.734,219.711 1098.3,110.008 1327.35,163.301 1464.26,239.551 1463.41,174.07 1335.57,118.508 1274.63,98.9492 c -139.75,-44.5 -295.372,26.0778 -382.114,65.1988 -95.532,43.372 -168.379,91.84 -228.192,163.563 -48.469,57.828 -104.879,99.5 -91.277,180.848 26.648,-44.5 60.098,-105.731 115.371,-167.809 55.84,-62.652 115.937,-108 146.27,-126.43 -29.481,32.039 -45.071,61.52 -109.704,140.321 -66.046,80.5 -131.808,154.488 -142.019,193.32 -5.668,21.828 -17,18.137 -5.379,40.816 31.75,-24.937 44.219,-48.187 74.551,-74.269 38.551,-33.449 99.781,-84.75 156.75,-132.938 32.32,-27.5 69.738,-48.472 91.281,-64.632 17.289,-13.04 14.738,11.339 9.066,24.66 -1.976,4.543 -35.718,30.332 -83.046,67.179 -65.481,51.024 -145.704,125.012 -162.153,140.032 -39.68,36.289 -75.68,64.351 -77.949,92.41 -1.699,24.101 28.91,32.031 49.891,44.789 5.949,3.68 -4.25,15.312 2.55,18.422" /><path
         id="path18"
         style="fill:#344776;fill-opacity:1;fill-rule:evenodd;stroke:none"
         d="m 639.379,884.434 c -16.16,-30.903 -31.461,-61.231 -31.461,-99.211 0,-39.121 14.738,-37.141 26.641,-80.508 l -9.641,-2.262 c 7.66,-20.699 17.289,-40.539 32.602,-57.551 31.75,-35.148 83.058,-44.5 125.289,-79.929 12.757,-10.782 23.25,-30.899 36.289,-41.11 37.41,-29.191 68.308,9.918 84.468,-64.058 5.672,-26.082 48.473,-66.332 52.442,-60.66 5.39,7.089 -3.969,27.777 -14.461,47.617 -9.918,18.429 -10.199,26.082 22.961,21.832 136.922,-17.012 175.752,-61.801 363.122,-33.731 114.52,17 235.56,59.239 280.63,139.739 32.6,57.832 30.9,121.332 18.14,174.332 -13.89,57.828 -73.13,148.257 -107.71,201.828 -18.14,15.871 -37.99,29.761 -60.1,42.801 -18.99,11.057 -36,20.127 -51.3,26.927 l 8.22,-7.65 c 67.74,-54.426 139.46,-128.688 173.19,-215.149 34.87,-89.289 30.33,-187.937 -47.62,-255.968 -16.16,-14.168 -35.43,-26.93 -58.11,-37.981 -24.66,-11.91 -8.5,40.531 5.95,80.781 24.1,66.34 -8.5,41.961 -54.71,4.821 -24.94,-20.121 -42.23,-38.262 -66.89,-51.871 -109.99,-60.379 -252,-73.7 -375.031,-35.719 -188.781,57.551 -327.973,134.648 -362.551,262.488 -9.922,36.571 -1.422,75.403 9.641,120.192" /><path
         id="path20"
         style="fill:#344776;fill-opacity:1;fill-rule:evenodd;stroke:none"
         d="m 1490.05,803.078 c -16.71,-71.719 2.84,-184.82 -15.3,-252 9.64,30.61 24.38,95.813 27.21,126.141 10.49,110.551 12.48,207.5 -74.26,273.551 11.62,-48.762 39.68,-88.731 29.48,-118.493 C 1433.93,764.25 1340.11,730.23 1198.94,700.75 1083.57,676.648 979.816,669.277 905.266,702.449 796.418,750.641 710.527,856.938 673.117,968.617 670.277,954.73 666.027,941.688 660.926,929.508 676.797,871.957 715.918,805.348 767.785,752.059 889.117,626.77 1060.04,595.02 1208.3,621.098 c 135.49,23.812 195.02,95.519 281.75,181.98" /><path
         id="path22"
         style="fill:#172952;fill-opacity:1;fill-rule:evenodd;stroke:none"
         d="m 1490.05,803.078 c -16.71,-71.719 0.58,-184.25 -15.3,-252 -7.37,-30.898 18.43,114.242 21.26,144.57 10.2,110.262 -5.67,183.68 -68.31,255.122 25.23,-39.969 52.16,-94.68 41.94,-124.731 -23.23,-67.75 -123.01,-130.68 -264.18,-160.16 -115.37,-24.09 -244.913,-3.969 -319.464,29.199 -108.851,48.192 -174.898,144.281 -212.031,255.973 -3.117,-13.891 -3.969,3.398 -9.078,-8.793 15.879,-57.828 60.379,-132.09 112.258,-185.668 121.32,-125.289 278.925,-139.75 427.175,-113.672 135.5,23.812 199,73.699 285.73,160.16" /><path
         id="path24"
         style="fill:#172952;fill-opacity:1;fill-rule:evenodd;stroke:none"
         d="m 634.559,704.719 c -54.43,-12.762 -88.719,-18.711 -72.852,-86.461 -24.949,-36.281 -15.019,-29.481 -7.937,-78.52 -19.27,-65.761 7.371,-126.992 49.328,-182.261 73.132,-96.098 162.14,-167.532 244.062,-208.629 41.668,-20.7 86.168,-32.602 127.559,-47.063 117.921,-40.8162 230.171,-60.0897 323.711,-35.9998 66.33,17.2929 136.07,77.6718 198.43,152.4998 54.71,65.774 66.9,93.551 86.17,132.383 36,43.367 108.57,136.07 136.35,218.84 18.99,56.41 -2.27,119.051 -37.14,171.211 22.68,-37.981 30.05,-56.981 25.52,-76.25 -20.41,-80.793 -185.39,-266.184 -257.39,-310.684 -103.46,-63.777 -250.58,-78.519 -364.53,-70.297 -57.55,3.969 -87.313,27.778 -144.852,46.77 21.539,-24.09 100.912,-62.93 134.072,-58.672 81.07,10.199 49.04,-9.07 134.93,-5.391 77.11,3.692 168.38,30.332 250.02,74.84 98.08,53.57 206.36,214.582 260.22,303.871 4.82,-96.097 -101.2,-257.668 -198.14,-331.648 -41.39,-31.75 -101.77,-81.082 -178.02,-103.473 -17.57,-5.097 -50.45,-6.238 -55.27,0.281 -5.11,6.52 48.75,37.422 35.43,50.461 -5.95,5.391 -57.83,-54.422 -97.23,-62.64 -56.98,-11.91 -162.42,0.851 -214.58,14.172 -170.65,43.367 -299.619,211.179 -402.24,320.027 113.097,-136.91 191.621,-233.859 297.64,-292.539 114.52,-63.488 261.07,-70.289 371.62,-50.738 143.72,25.796 241.8,96.668 289.14,149.109 -15.31,-21.551 -51.88,-83.91 -99.78,-136.07 -42.24,-46.2 -95.81,-98.93 -158.18,-117.3519 -102.33,-30.6094 -238.39,-17.8594 -418.96,63.7809 -95.812,43.371 -191.051,109.129 -250.859,180.852 -48.192,57.828 -97.524,113.668 -76.262,198.988 26.649,-44.5 79.941,-115.941 135.219,-178.301 55.84,-62.64 104.601,-117.07 134.93,-135.488 -29.481,32.027 -64.348,58.957 -129.258,137.758 -66.051,80.5 -136.071,165.832 -146.27,204.66 -5.672,21.539 -3.972,34.582 7.649,57.262 31.75,-24.66 59.531,-64.629 89.582,-90.422 38.828,-33.449 97.789,-80.508 154.488,-128.699 4.25,-3.68 81.07,-64.629 94.672,-67.461 5.387,-1.141 -39.973,38.551 -87.313,75.402 -65.48,51.02 -143.429,124.16 -159.871,139.18 -39.398,36.277 -87.59,78.238 -89.859,106.301 -2.258,28.629 16.73,33.726 54.992,51.019 3.41,1.707 7.379,3.41 11.059,5.391" /><path
         id="path26"
         style="fill:#172952;fill-opacity:1;fill-rule:evenodd;stroke:none"
         d="m 639.379,884.434 c -16.16,-30.903 -31.461,-61.231 -31.461,-99.211 0,-39.121 14.738,-37.141 26.641,-80.508 37.988,-76.25 64.91,-61.793 147.968,-131.524 12.762,-10.777 27.211,-36.847 40.25,-47.339 37.422,-29.2 72.282,30.89 88.442,-43.09 5.668,-26.078 40.82,-89.289 44.789,-83.617 5.39,7.089 -13.32,34.578 -23.809,54.418 -9.922,18.429 -13.609,37.699 19.84,33.742 136.911,-17.012 190.771,-66.621 378.141,-38.551 114.52,17 200.7,33.437 245.77,113.949 32.6,57.82 36.28,140.309 23.52,193.039 -14.17,57.821 -46.2,141.449 -80.78,195.02 -18.14,15.871 -37.99,29.761 -60.1,42.801 45.92,-41.668 62.36,-64.059 113.1,-194.45 34.87,-89.582 25.8,-197.011 -45.92,-271 -15.59,-15.871 -34.01,-32.031 -56.69,-43.082 -24.66,-12.187 -12.47,54.422 1.99,94.684 24.09,66.328 19.84,55.84 -9.64,4.25 -15.88,-27.781 -52.73,-58.684 -77.39,-72.293 -109.98,-60.367 -267.87,-58.109 -391.181,-20.41 -188.793,57.832 -339.871,147.41 -374.461,275.25 -9.921,36.57 9.918,73.133 20.981,117.922" /><path
         id="path28"
         style="fill:#15274d;fill-opacity:1;fill-rule:evenodd;stroke:none"
         d="m 1316.86,852.117 c 27.78,32.313 48.19,45.352 50.17,81.352 2.55,41.961 -19.84,68.891 -42.8,94.111 -59.81,65.48 -176.03,86.46 -260.79,81.93 -144.561,-7.66 -392.6,-34.3 -386.081,-140.322 8.508,-137.477 238.68,-279.208 486.431,-229.04 71.43,14.743 94.68,43.661 153.07,111.969" /><path
         id="path30"
         style="fill:#5f77b3;fill-opacity:1;fill-rule:evenodd;stroke:none"
         d="m 763.535,818.102 c 82.77,-81.071 115.942,-89.008 170.36,-108.848 89.015,-32.32 228.195,-17.012 337.045,22.391 137.77,50.179 200.13,79.66 157.88,189.636 -26.07,66.903 -4.25,47.621 25.23,6.242 92.99,-130.679 77.11,-205.23 46.5,-346.96 -7.37,-32.891 -11.34,-42.809 -8.23,-45.36 3.69,-2.551 15.31,5.102 25.52,39.692 36.85,123.867 34.58,240.937 -43.95,352.628 -44.21,63.489 -81.34,42.801 -124.71,95.237 12.46,-31.455 21.82,-47.897 27.49,-73.127 8.22,-37.141 -10.48,-64.352 -28.06,-92.981 -19.27,-31.179 -39.97,-74.828 -105.73,-103.179 -73.15,-31.18 -205.24,-55.559 -315.505,-17.86 -47.617,16.442 -77.668,9.36 -163.84,82.489" /><path
         id="path32"
         style="fill:#5f77b3;fill-opacity:1;fill-rule:evenodd;stroke:none"
         d="M 664.891,865.441 C 651.57,809.602 659.5,762.832 682.18,723.141 802.941,512.813 1118.15,509.691 1241.17,522.73 c 109.14,11.34 175.18,61.231 205.23,113.391 31.75,54.711 22.68,87.02 23.81,110.551 C 1424.86,692.242 1366.46,650.012 1295.6,623.93 971.879,505.441 750.5,692.813 664.891,865.441" /><path
         id="path34"
         style="fill:#5f77b3;fill-opacity:1;fill-rule:evenodd;stroke:none"
         d="M 797.836,459.805 C 998.523,300.492 1145.64,293.121 1330.18,352.371 c 113.96,36.852 164.12,82.203 246.05,156.192 -91,-49.04 -157.05,-77.11 -261.35,-96.668 -57.54,-10.774 -116.22,-10.774 -195.88,0 -74.84,10.207 -141.164,38.269 -145.703,35.718 -21.82,-13.89 33.453,-73.699 28.343,-74.832 -10.195,-2.84 -19.554,-3.41 -28.343,-2.547 -55.844,6.797 -57.82,108 -102.043,126.418 -68.027,28.629 -60.949,13.61 -108.57,54.43 -47.047,40.25 -116.789,77.383 -126.137,101.191 -18.141,2.27 -34.301,-11.902 -25.801,-32.031 15.879,-36.847 149.109,-133.508 187.09,-160.437" /><path
         id="path36"
         style="fill:#5f77b3;fill-opacity:1;fill-rule:evenodd;stroke:none"
         d="M 584.387,475.676 C 626.055,331.957 786.215,203.547 925.676,146.578 1101.14,75.1367 1348.04,82.7969 1442.14,213.188 1276.89,126.445 1029.14,102.637 841.207,253.438 776.574,305.316 722.438,380.719 647.035,470.855 719.887,373.629 776.297,284.059 865.297,195.617 756.734,232.469 649.867,371.078 584.387,475.676" /><path
         id="path38"
         style="fill:#0f1c39;fill-opacity:1;fill-rule:evenodd;stroke:none"
         d="m 1316.86,852.117 c 27.78,32.313 48.19,45.352 50.17,81.352 1.14,16.449 -1.7,30.34 -6.8,42.808 -9.07,-13.609 -22.39,-25.797 -38.27,-44.218 -58.39,-68.321 -81.64,-97.508 -153.07,-111.969 -225.07,-45.922 -435.972,67.18 -478.773,191.34 -9.066,-12.481 -13.887,-26.371 -12.758,-42.242 8.508,-137.477 238.68,-279.208 486.431,-229.04 71.43,14.743 94.68,43.661 153.07,111.969" /><path
         id="path40"
         style="fill:#344776;fill-opacity:1;fill-rule:evenodd;stroke:none"
         d="m 1404.73,995.836 c 54.14,-35.723 81.64,-43.371 109.98,-108.57 22.4,-51.871 35.72,-98.93 39.97,-144.563 7.37,-79.09 -13.6,-153.637 -65.19,-241.226 90.7,32.308 141.44,130.109 134.07,223.078 -5.95,75.691 -57.82,136.922 -102.89,195.031 -43.09,54.988 -66.9,60.379 -126.71,95.804 l -32.6,21.54 c -15.87,2.27 -25.51,3.41 -30.33,3.41 17.57,-9.64 32.03,-17.29 73.7,-44.504" /><path
         id="path42"
         style="fill:#15274d;fill-opacity:1;fill-rule:evenodd;stroke:none"
         d="m 1284.54,603.238 c 36.85,19.278 60.09,23.528 75.12,55.84 17.29,37.418 6.52,70.301 -5.39,102.051 -30.89,81.918 -129.54,144.277 -208.06,171.777 -134.92,46.77 -370.765,114.244 -403.085,14.742 -41.672,-129.261 117.07,-344.41 361.145,-390.332 70.29,-13.039 102.32,5.102 180.27,45.922" /><path
         id="path44"
         style="fill:#0f1c39;fill-opacity:1;fill-rule:evenodd;stroke:none"
         d="m 1284.54,603.238 c 36.85,19.278 60.09,23.528 75.12,55.84 6.52,14.457 9.07,28.348 9.07,41.668 -13.32,-9.07 -29.76,-15.308 -50.74,-26.359 -78.24,-40.821 -109.99,-58.961 -180.28,-45.641 -221.667,41.391 -373.327,223.09 -367.655,352.922 -12.75,-8.23 -22.11,-19.281 -26.93,-34.02 -41.672,-129.261 117.07,-344.41 361.145,-390.332 70.29,-13.039 102.32,5.102 180.27,45.922" /><path
         id="path46"
         style="fill:#000000;fill-opacity:1;fill-rule:nonzero;stroke:none"
         d="m 643.629,1321.82 5.391,9.35 c 5.101,-3.11 7.082,-9.63 3.96,-14.74 -3.109,-5.1 -9.628,-7.08 -14.742,-3.96 l 5.391,9.35 z m -31.75,25.8 c 12.191,-3.69 24.66,-9.08 37.141,-16.45 l -10.782,-18.7 c -11.047,6.23 -21.816,11.05 -32.59,14.17 l 6.231,20.98 z m -58.109,1.98 c 17.289,4.82 37.421,3.97 58.109,-1.98 l -6.231,-20.98 c -17.007,5.1 -32.886,5.95 -46.207,2.27 l -5.671,20.69 z m -43.372,-33.45 c 10.211,17.58 25.231,28.63 43.372,33.45 l 5.671,-20.69 c -12.472,-3.69 -23.242,-11.34 -30.332,-23.53 l -18.711,10.77 z m -8.218,-19.56 c 1.992,7.37 4.82,13.89 8.218,19.56 l 18.711,-10.77 c -2.55,-4.25 -4.539,-9.36 -6.238,-14.74 l -20.691,5.95 z m -216.571,-87.31 c 84.192,-24.94 183.121,-25.22 216.571,87.31 l 20.691,-5.95 C 484.32,1161.1 373.77,1160.53 279.379,1188.59 l 6.23,20.69 z m -74.828,29.2 c 21.539,-10.49 47.34,-20.97 74.828,-29.2 l -6.23,-20.69 c -28.348,8.22 -55.277,19.56 -77.949,30.33 l 9.351,19.56 z m -51.019,27.21 c 11.328,-6.8 28.91,-17 51.019,-27.21 l -9.351,-19.56 c -22.68,10.77 -41.391,21.26 -53.008,28.35 l 11.34,18.42 z m -9.934,-5.38 c -2.547,-4.25 7.094,7.37 9.934,5.38 l -11.34,-18.42 c -14.742,9.07 -20.133,19.56 -17.012,24.38 l 18.418,-11.34 z m 209.203,196.72 c -70.859,-26.08 -141.453,-87.59 -209.203,-196.72 l -18.418,11.34 c 70.301,113.67 145.129,178.01 220.25,205.79 l 7.371,-20.41 z m 239.809,-28.91 c -77.102,42.8 -158.738,58.96 -239.809,28.91 l -7.371,20.41 c 87.59,32.6 175.469,15.31 257.668,-30.61 l -10.488,-18.71 z m 62.648,-56.41 c -3.398,15.59 -21.828,33.45 -62.648,56.41 l 10.488,18.71 c 47.063,-26.08 68.883,-49.04 73.422,-70.58 l -21.262,-4.54 z m -24.949,-41.67 c 17.289,14.46 27.781,28.06 24.949,41.67 l 21.262,4.54 c 5.102,-23.25 -8.789,-43.09 -32.031,-62.65" /><path
         id="path48"
         style="fill:#863a1f;fill-opacity:1;fill-rule:nonzero;stroke:none"
         d="m 643.629,1321.82 c 40.82,34.02 48.473,66.61 -39.688,115.65 -148.531,82.78 -314.64,68.89 -463.461,-171.49 -1.699,-2.84 305.008,-198.43 371.911,27.78 16.437,54.71 74.257,61.23 131.238,28.06" /><path
         id="path50"
         style="fill:#da5840;fill-opacity:1;fill-rule:nonzero;stroke:none"
         d="m 252.449,1326.64 c 41.102,58.39 175.461,105.17 308.41,56.13 -189.921,-18.43 -161.289,-169.52 -308.41,-56.13" /><path
         id="path52"
         style="fill:#4b1d17;fill-opacity:1;fill-rule:nonzero;stroke:none"
         d="m 567.66,1365.47 c -138.609,56.41 -266.168,4.82 -354.898,-69.73 88.73,116.5 325.422,174.9 354.898,69.73" /><path
         id="path54"
         style="fill:#000000;fill-opacity:1;fill-rule:nonzero;stroke:none"
         d="m 1342.65,1312.18 -5.38,9.35 c -5.11,-2.83 -7.09,-9.35 -4.25,-14.74 2.84,-5.1 9.36,-7.08 14.73,-4.25 l -5.1,9.64 z m 32.31,24.66 c -12.17,-3.12 -24.94,-8.5 -37.69,-15.31 l 10.48,-18.99 c 11.06,5.95 22.11,10.49 32.88,13.32 l -5.67,20.98 z m 58.4,0.57 c -17.29,5.38 -37.41,5.1 -58.4,-0.57 l 5.67,-20.98 c 17.01,4.54 32.89,4.82 46.21,0.86 l 6.52,20.69 z m 42.23,-34.58 c -9.63,17.57 -24.37,29.19 -42.23,34.58 l -6.52,-20.69 c 12.47,-3.97 22.96,-11.91 29.77,-24.38 l 18.98,10.49 z m 7.66,-19.85 c -1.98,7.37 -4.54,13.89 -7.66,19.85 l -18.98,-10.49 c 2.27,-4.25 4.25,-9.36 5.66,-14.74 l 20.98,5.38 z m 22.68,-52.44 c -9.36,14.18 -17,31.47 -22.68,52.44 l -20.98,-5.38 c 6.25,-23.53 15.03,-43.09 25.8,-58.96 l 17.86,11.9 z m 81.63,-51.3 c -32.02,5.38 -60.93,20.69 -81.63,51.3 l -17.86,-11.9 c 24.38,-36.57 58.39,-54.43 96.09,-60.95 l 3.4,21.55 z m 104.89,8.5 c -34.87,-9.07 -71.72,-14.17 -104.89,-8.5 l -3.4,-21.55 c 36.57,-5.95 76.54,-0.85 113.95,9.07 l -5.66,20.98 z m 145.41,63.5 c -5.38,-3.69 -70.57,-43.38 -145.41,-63.5 l 5.66,-20.98 c 77.68,20.98 146.27,62.65 151.66,66.33 l -11.91,18.15 z m 5.96,-9.08 -9.36,-5.38 c 3.12,-5.1 9.65,-6.8 14.74,-3.97 5.39,3.12 7.09,9.64 3.98,14.74 l -9.36,-5.39 z m -212.89,197.3 c 69.75,-28.35 138.9,-91.56 203.53,-202.68 l 18.72,10.77 c -67.19,115.65 -140.04,181.98 -214.3,212.03 l -7.95,-20.12 z m -240.66,-22.4 c 78.25,40.82 160.44,54.71 240.66,22.4 l 7.95,20.12 c -86.75,34.87 -174.91,20.13 -258.52,-23.24 l 9.91,-19.28 z m -64.06,-54.71 c 3.68,15.59 22.68,32.89 64.06,54.71 l -9.91,19.28 c -47.91,-24.95 -70.02,-47.34 -75.41,-68.6 l 21.26,-5.39 z m 23.53,-42.23 c -16.72,15.02 -26.93,28.91 -23.53,42.23 l -21.26,5.39 c -5.66,-23.25 7.66,-43.65 30.34,-63.78" /><path
         id="path56"
         style="fill:#863a1f;fill-opacity:1;fill-rule:nonzero;stroke:none"
         d="m 1342.65,1312.18 c -39.69,35.15 -46.49,67.75 42.8,114.52 150.82,78.52 316.35,60.09 458.37,-184.54 -11.91,-7.93 -310.12,-189.63 -371.05,37.99 -14.75,55.27 -72.29,63.49 -130.12,32.03" /><path
         id="path58"
         style="fill:#da5840;fill-opacity:1;fill-rule:nonzero;stroke:none"
         d="m 1733.84,1305.95 c -39.7,59.53 -172.64,109.98 -307,64.62 189.64,-23.52 156.48,-173.75 307,-64.62" /><path
         id="path60"
         style="fill:#4b1d17;fill-opacity:1;fill-rule:nonzero;stroke:none"
         d="m 1419.76,1353.85 c 140.03,52.16 266.17,-2.83 352.63,-79.94 -85.32,119.06 -320.32,183.97 -352.63,79.94" /><path
         id="path62"
         style="fill:#000000;fill-opacity:1;fill-rule:nonzero;stroke:none"
         d="m 1371.29,1411.68 -3.98,10.2 c -5.67,-2.26 -8.5,-8.5 -6.22,-14.17 1.97,-5.38 8.21,-8.22 13.87,-6.23 l -3.67,10.2 z m 185.94,108.85 c -54.99,-42.8 -118.77,-71.72 -189.92,-98.65 l 7.65,-20.4 c 73.15,27.77 138.63,57.82 195.6,102.04 l -13.33,17.01 z m 137.2,181.13 c -36.57,-82.2 -82.77,-138.61 -137.2,-181.13 l 13.33,-17.01 c 57.26,44.51 105.44,103.47 143.43,189.36 l -19.56,8.78 z m 11.05,9.64 c 3.7,-1.7 -7.37,-0.85 -11.05,-9.64 l 19.56,-8.78 c 10.49,23.24 9.64,34.01 0,37.98 l -8.51,-19.56 z m -7.64,-6.8 c 5.66,3.4 5.09,7.65 7.64,6.8 l 8.51,19.56 c -7.65,3.4 -15.88,-1.13 -26.65,-7.37 l 10.5,-18.99 z m -9.64,-5.39 c 3.11,1.7 6.51,3.69 9.64,5.39 l -10.5,18.99 c -2.82,-1.42 -5.66,-3.12 -9.35,-5.1 l 10.21,-19.28 z m -226.21,-85.6 c 86.46,24.37 169.8,55.84 226.21,85.6 l -10.21,19.28 c -55.28,-29.2 -136.9,-60.1 -221.95,-83.91 l 5.95,-20.97 z m -228.76,-42.52 c 66.33,3.4 149.11,20.12 228.76,42.52 l -5.95,20.97 c -78.24,-22.11 -159.31,-38.55 -224.22,-41.95 l 1.41,-21.54 z m -0.55,10.77 8.21,6.8 c -3.69,4.54 -10.49,5.39 -15.03,1.42 -4.82,-3.69 -5.66,-10.49 -1.7,-15.02 l 8.52,6.8 z m 56.41,-44.22 c -18.16,17.86 -35.45,35.15 -48.2,51.02 l -16.73,-13.6 c 13.61,-17.01 31.18,-34.59 49.61,-52.73 l 15.32,15.31 z m 92.68,-123.03 c -11.91,42.81 -53.86,84.48 -92.68,123.03 l -15.32,-15.31 c 36.86,-36.57 76.82,-76.25 87.02,-113.38" /><path
         id="path64"
         style="fill:#dcdcd6;fill-opacity:1;fill-rule:nonzero;stroke:none"
         d="m 1371.29,1411.68 c -16.16,59.24 -98.36,119.91 -138.61,170.08 136.62,7.37 343.27,70.3 450.41,126.99 22.68,12.19 37.43,25.23 21.27,-11.62 -74.84,-167.81 -188.8,-230.74 -333.07,-285.45" /><path
         id="path66"
         style="fill:#e8e8e1;fill-opacity:1;fill-rule:nonzero;stroke:none"
         d="m 1317.43,1488.5 c -21.54,36.28 -60.95,63.21 -84.2,92.13 l -0.56,1.13 c 136.63,7.37 343.28,70.29 450.43,126.99 13.32,7.09 23.81,14.46 26.93,12.19 -105.73,-130.96 -258.52,-187.09 -392.6,-232.44" /><path
         id="path68"
         style="fill:#000000;fill-opacity:1;fill-rule:nonzero;stroke:none"
         d="m 572.195,1422.73 3.973,10.2 c 5.668,-2.55 8.219,-8.78 5.949,-14.17 -2.269,-5.67 -8.5,-8.22 -14.172,-5.95 l 4.25,9.92 z m -182.828,114.24 c 53.571,-44.22 116.5,-75.12 186.801,-104.04 l -8.223,-20.12 c -72.289,29.76 -136.918,61.51 -192.468,107.43 l 13.89,16.73 z m -132.101,184.82 c 34.019,-83.06 78.519,-140.89 132.101,-184.82 l -13.89,-16.73 c -56.129,46.21 -102.622,106.3 -138.34,193.32 l 20.129,8.23 z m -10.77,9.63 c -3.969,-1.41 7.09,-0.85 10.77,-9.63 l -20.129,-8.23 c -9.629,23.53 -8.5,34.02 1.14,37.99 l 8.219,-20.13 z m 7.09,-6.8 c -5.391,3.4 -4.82,7.94 -7.09,6.8 l -8.219,20.13 c 7.649,3.12 15.871,-1.7 26.641,-8.22 l -11.332,-18.71 z m 9.633,-5.67 c -3.114,1.98 -6.524,3.97 -9.633,5.67 l 11.332,18.71 c 2.559,-1.7 5.668,-3.4 9.078,-5.39 l -10.777,-18.99 z m 223.66,-91.84 c -85.613,26.93 -168.102,60.66 -223.66,91.84 l 10.777,18.99 c 54.141,-30.61 135.211,-63.78 219.402,-90.14 l -6.519,-20.69 z m 227.617,-49.04 c -66.328,5.38 -148.539,24.38 -227.617,49.04 l 6.519,20.69 c 77.95,-24.38 158.168,-42.8 222.797,-48.19 l -1.699,-21.54 z m 0.852,10.77 -8.219,7.09 c 3.969,4.53 10.769,5.1 15.309,1.13 4.531,-3.97 5.097,-10.77 1.128,-15.31 l -8.218,7.09 z m -57.832,-42.52 c 18.711,17.58 36.57,34.3 49.613,49.61 l 16.437,-14.18 c -13.89,-16.44 -32.031,-33.45 -51.019,-51.3 l -15.031,15.87 z m -95.809,-120.47 c 12.762,42.52 56.129,83.05 95.809,120.47 l 15.031,-15.87 c -37.988,-35.44 -78.809,-73.99 -89.859,-110.84" /><path
         id="path70"
         style="fill:#dcdcd6;fill-opacity:1;fill-rule:nonzero;stroke:none"
         d="m 572.195,1422.73 c 17.864,58.96 101.481,117.07 143.153,166.11 -136.352,11.34 -341.012,79.94 -446.743,139.75 -22.386,12.47 -36.847,26.08 -21.539,-11.06 70.012,-169.79 182.262,-235.84 325.129,-294.8" /><path
         id="path72"
         style="fill:#e8e8e1;fill-opacity:1;fill-rule:nonzero;stroke:none"
         d="m 628.039,1498.13 c 22.68,35.73 62.652,61.51 86.742,89.86 l 0.278,0.85 c -136.34,11.34 -341,79.95 -446.45,139.75 -13.039,7.37 -23.25,15.02 -26.648,12.75 102.328,-133.79 253.418,-194.16 386.078,-243.21" /><path
         id="path74"
         style="fill:#000000;fill-opacity:1;fill-rule:nonzero;stroke:none"
         d="m 1139.69,512.813 10.2,-4.25 c -2.55,-5.672 -8.78,-8.223 -14.45,-5.672 -5.39,2.269 -7.94,8.5 -5.67,14.172 l 9.92,-4.25 z m 14.74,7.367 c -1.42,-3.969 -3.12,-7.938 -4.54,-11.617 l -20.12,8.5 c 1.7,3.687 3.12,7.089 4.25,10.769 l 20.41,-7.652 z m 4.25,11.34 c -1.13,-2.84 -2.27,-6.239 -4.25,-11.34 l -20.41,7.652 c 1.13,2.27 2.55,6.52 4.25,11.059 l 20.41,-7.371 z m 22.68,51.589 C 1172,567.52 1164.92,549.383 1158.68,531.52 l -20.41,7.371 c 6.52,18.711 13.89,37.98 24.66,55.558 l 18.43,-11.34 z m 36.85,36.282 c -16.16,-8.5 -27.78,-21.258 -36.85,-36.282 l -18.43,11.34 c 10.78,17.864 24.95,33.731 45.36,44.223 l 9.92,-19.281 z m 53.57,17.011 c -21.54,-5.39 -41.66,-10.769 -53.57,-17.011 l -9.92,19.281 c 13.89,7.078 35.15,12.75 58.11,18.711 l 5.38,-20.981 z m 96.95,41.668 c -18.14,-20.98 -59.53,-31.75 -96.95,-41.668 l -5.38,20.981 c 34.3,9.066 72,18.988 86.17,34.859 l 16.16,-14.172 z m 24.38,18.993 c -6.52,-3.68 -15.03,-8.5 -24.38,-18.993 l -16.16,14.172 c 11.62,13.61 21.83,19.278 30.05,23.809 l 10.49,-18.988 z m 25.79,45.917 c -1.13,-32.031 -10.49,-37.128 -25.79,-45.917 l -10.49,18.988 c 8.5,4.82 13.89,7.941 14.74,27.781 l 21.54,-0.852 z m -10.77,0.571 10.77,-0.281 c 0,-5.957 -5.1,-10.77 -11.05,-10.489 -5.96,0 -10.77,5.102 -10.49,11.051 l 10.77,-0.281 z m 7.09,9.64 c 2.27,-2.55 3.97,-5.949 3.68,-9.921 l -21.54,0.562 c 0,1.988 3.4,-6.801 1.98,-5.383 l 15.88,14.742 z m -7.94,-7.371 7.94,7.371 c 3.97,-4.25 3.97,-11.058 -0.29,-15.308 -4.53,-3.973 -11.33,-3.973 -15.59,0.566 l 7.94,7.371 z m 1.13,11.34 c 2.56,-0.57 4.82,-1.988 6.81,-3.969 l -15.88,-14.742 c -0.85,1.133 5.11,-2.547 3.97,-2.269 l 5.1,20.98 z m -2.55,-10.488 2.55,10.488 c 5.67,-1.418 9.36,-7.09 7.94,-13.039 -1.42,-5.672 -7.37,-9.359 -13.04,-7.941 l 2.55,10.492 z m -4.53,10.488 c 2.27,0.563 4.82,0.563 7.08,0 l -5.1,-20.98 c -1.13,0.281 4.25,0.281 3.12,0 l -5.1,20.98 z m 2.55,-10.488 -2.55,10.488 c 5.95,1.41 11.62,-1.988 13.04,-7.937 1.41,-5.672 -1.99,-11.621 -7.94,-13.043 l -2.55,10.492 z m -11.62,3.68 c 1.98,3.691 5.38,5.961 9.07,6.808 l 5.1,-20.98 c -1.7,-0.571 5.95,5.672 4.82,3.691 l -18.99,10.481 z m 9.35,-5.379 1.42,10.769 c 5.95,-0.851 10.2,-6.242 9.35,-12.191 -0.85,-5.949 -6.23,-9.918 -12.19,-9.352 l 1.42,10.774 z m -153.07,53.007 c 50.74,-17.578 101.2,-35.148 154.49,-42.238 l -2.84,-21.543 c -55.27,7.371 -106.86,25.512 -158.74,43.371 l 7.09,20.41 z m -94.68,30.333 c 31.75,-8.512 63.22,-19.282 94.68,-30.333 l -7.09,-20.41 c -30.61,10.77 -61.51,21.539 -93.26,29.762 l 5.67,20.981 z m -81.35,17.289 c 27.49,-4.539 54.71,-10.211 81.35,-17.289 l -5.67,-20.981 c -25.79,7.09 -52.44,12.469 -79.08,17.008 l 3.4,21.262 z m -82.487,10.199 c 27.497,-2.27 55.277,-5.668 82.487,-10.199 l -3.4,-21.262 c -26.93,4.25 -53.86,7.652 -81.067,9.922 l 1.98,21.539 z m -1.128,-10.77 -0.571,10.77 c 5.949,0.57 11.059,-3.969 11.617,-9.918 0.289,-5.953 -4.25,-11.051 -10.199,-11.621 l -0.847,10.769 z m -91.563,0.852 c 30.332,4.816 60.66,7.937 90.992,9.918 l 1.418,-21.539 c -30.051,-2.27 -59.808,-5.391 -89.008,-9.641 l -3.402,21.262 z M 808.043,828.02 c 29.48,7.66 59.238,13.332 89.289,17.863 l 3.402,-21.262 c -29.761,-4.531 -58.961,-10.199 -87.312,-17.57 l -5.379,20.969 z m -95.531,-29.758 c 31.461,10.488 62.64,21.258 95.531,29.758 l 5.379,-20.969 c -31.18,-8.219 -62.641,-18.711 -94.109,-29.481 l -6.801,20.692 z M 556.602,756.59 c 53.582,6.801 104.601,24.09 155.91,41.672 l 6.801,-20.692 C 667.152,759.992 615.004,742.133 559.441,735.051 l -2.839,21.539 z m 1.421,-10.77 9.641,5.102 c 2.828,-5.391 0.848,-11.91 -4.543,-14.742 -5.379,-2.828 -11.898,-0.848 -14.738,4.543 l 9.64,5.097 z m 0.848,12.192 c 3.402,-1.141 6.801,-3.403 8.793,-7.09 l -19.281,-10.199 c -0.852,1.976 6.519,-4.262 4.82,-3.692 l 5.668,20.981 z m -2.828,-10.492 2.828,10.492 c 5.672,-1.699 9.07,-7.66 7.652,-13.332 -1.699,-5.668 -7.652,-9.348 -13.32,-7.649 l 2.84,10.489 z m -4.262,10.492 c 2.274,0.558 4.821,0.558 7.09,0 l -5.668,-20.981 c -1.129,0.282 4.25,0 3.121,0 l -4.543,20.981 z m -6.797,-3.692 c 1.7,1.993 4.25,3.121 6.797,3.692 l 4.543,-20.981 c -1.133,-0.281 4.821,2.84 3.68,1.981 l -15.02,15.308 z m -4.25,-10.199 c 0,4.25 1.7,7.649 4.25,10.199 l 15.02,-15.308 c -1.41,-1.41 2.269,7.371 2.559,5.39 l -21.829,-0.281 z m 24.661,-46.211 c -15.024,8.789 -24.383,14.18 -24.661,46.211 l 21.829,0.281 c 0,-19.839 5.101,-22.961 13.601,-27.781 L 565.395,697.91 Z m 23.808,-19.269 c -9.07,10.769 -17.289,15.3 -23.808,19.269 l 10.769,18.711 c 8.219,-4.531 18.141,-10.488 29.77,-24.09 l -16.731,-13.89 z m 8.219,7.082 -8.219,-7.082 c -3.969,4.531 -3.398,11.339 1.141,15.3 4.808,3.969 11.621,3.411 15.59,-1.128 l -8.512,-7.09 z m 62.359,-54.422 c -25.508,11.898 -50.449,23.531 -70.578,47.34 l 16.731,14.172 c 17,-20.411 39.679,-30.903 62.929,-41.954 l -9.082,-19.558 z m 25.524,-12.469 c -8.223,4.527 -17.012,8.5 -25.524,12.469 l 9.082,19.558 c 8.782,-3.968 17.571,-8.218 26.641,-13.039 l -10.199,-18.988 z m 65.187,-39.973 c -22.39,16.442 -47.621,30.614 -65.187,39.973 l 10.199,18.988 c 18.141,-9.64 44.5,-24.379 67.75,-41.39 l -12.762,-17.571 z m 44.512,-48.757 c -5.109,16.16 -23.531,33.168 -44.512,48.757 l 12.762,17.571 c 24.379,-17.86 45.641,-38.547 52.437,-59.528 l -20.687,-6.8 z m 3.969,-11.34 c -1.711,5.109 -2.84,8.508 -3.969,11.34 l 20.687,6.8 c 1.704,-4.25 2.832,-8.5 3.973,-11.05 l -20.691,-7.09 z m 4.25,-11.621 c -1.418,3.968 -2.84,7.652 -4.25,11.621 l 20.691,7.09 c 1.129,-3.692 2.551,-7.372 3.969,-10.77 l -20.41,-7.941 z m 10.199,3.968 1.992,10.493 c 5.949,-1.141 9.918,-6.809 8.777,-12.762 -1.128,-5.668 -7.078,-9.641 -12.75,-8.5 l 1.981,10.769 z m -41.949,16.442 c 15.019,-1.418 30.05,-3.121 43.941,-5.949 l -3.973,-21.262 c -13.609,2.832 -27.777,4.25 -42.238,5.672 l 2.27,21.539 z m -94.68,30.051 c 22.398,-22.68 58.68,-26.36 94.68,-30.051 l -2.27,-21.539 c -39.68,4.25 -79.941,8.218 -107.711,36.558 l 15.301,15.032 z m -13.32,13.89 13.32,-13.89 -15.301,-15.032 -13.609,13.61 15.59,15.312 z m -7.942,-7.66 10.211,3.969 c 2.262,-5.668 -0.57,-11.899 -5.961,-14.168 -5.66,-2.274 -11.898,0.566 -14.168,6.238 l 9.918,3.961 z m -152.5,187.367 c 64.91,-52.437 131.813,-106.578 162.711,-183.398 l -20.129,-7.93 c -28.91,71.43 -93.539,123.871 -156.191,174.328 l 13.609,17 z m -135.5,281.771 c -48.468,-132.95 41.102,-205.228 135.5,-281.771 l -13.609,-17 C 388.793,815.832 293.555,892.941 347.121,1040.34 l 20.41,-7.37 z m 61.512,119.34 c -29.762,-54.43 -53.852,-98.08 -61.512,-119.34 l -20.41,7.37 c 8.512,22.96 32.883,67.46 62.934,122.45 l 18.988,-10.48 z m 154.781,320.31 C 550.082,1372.56 480.922,1246.7 429.043,1152.31 l -18.988,10.48 c 51.59,93.83 120.187,218.84 153.066,316.63 l 20.703,-6.8 z m -22.109,170.93 c 53.848,-18.14 50.738,-85.61 22.109,-170.93 l -20.703,6.8 c 24.953,73.42 30.051,130.68 -8.219,143.72 l 6.813,20.41 z m -3.41,-10.2 10.207,-3.41 c -1.699,-5.67 -7.938,-8.78 -13.61,-6.8 -5.668,1.7 -8.781,7.94 -6.8,13.61 l 10.203,-3.4 z m 19.847,14.45 c -3.968,-4.53 -7.089,-10.49 -9.64,-17.86 l -20.41,6.81 c 3.121,10.2 7.941,18.42 13.32,25.23 l 16.73,-14.18 z m 15.871,9.92 c -5.949,-1.41 -11.339,-4.53 -15.871,-9.92 l -16.73,14.18 c 7.941,8.78 17.293,14.45 28.07,16.72 l 4.531,-20.98 z m 21.54,-1.98 c -7.93,2.55 -15.02,3.4 -21.54,1.98 l -4.531,20.98 c 10.199,2.27 21.262,1.42 32.59,-2.27 l -6.519,-20.69 z m 30.332,-18.14 c -10.204,9.07 -20.692,15.02 -30.332,18.14 l 6.519,20.69 c 12.481,-3.97 25.52,-11.62 37.992,-22.39 l -14.179,-16.44 z m 7.089,8.22 6.52,-8.51 c -4.82,-3.68 -11.621,-2.55 -15.313,2.27 -3.398,4.82 -2.546,11.62 2.274,15.03 l 6.519,-8.79 z m 324.571,-11.34 c -39.973,24.38 -175.473,108 -318.051,2.83 l -13.039,17.3 c 154.488,114.23 299.906,24.66 342.43,-1.71 l -11.34,-18.42 z m 13.316,-7.37 c -2.828,0.85 -7.09,3.4 -13.316,7.37 l 11.34,18.42 c 4.82,-3.11 8.218,-5.1 8.777,-5.38 l -6.801,-20.41 z m 3.402,10.2 3.122,-10.48 c -5.672,-1.71 -11.903,1.7 -13.614,7.37 -1.699,5.95 1.711,11.9 7.371,13.6 l 3.121,-10.49 z m 12.477,-5.1 c -4.26,-2.83 -7.086,-4.53 -9.355,-5.38 l -6.243,20.97 c 0.852,0 1.141,0.85 3.969,2.55 l 11.629,-18.14 z m 318.33,3.4 c -143.44,109.14 -286.3,17.29 -318.33,-3.4 l -11.629,18.14 c 34.299,22.11 187.659,120.76 343.279,2.55 l -13.32,-17.29 z m 6.8,8.79 6.8,-8.5 c -4.53,-3.69 -11.34,-3.12 -15.31,1.41 -3.68,4.82 -3.11,11.63 1.42,15.31 l 7.09,-8.22 z m 39.12,9.92 c -10.21,-2.83 -21.26,-9.07 -32.32,-18.42 l -13.89,16.72 c 13.33,11.06 26.93,18.71 39.97,22.68 l 6.24,-20.98 z m 20.69,1.42 c -6.24,1.42 -13.04,0.85 -20.69,-1.42 l -6.24,20.98 c 11.06,3.12 22.11,3.68 32.03,1.42 l -5.1,-20.98 z m 15.02,-9.64 c -3.96,5.1 -9.35,8.22 -15.02,9.64 l 5.1,20.98 c 10.21,-2.56 19.28,-7.94 26.65,-17.01 l -16.73,-13.61 z m 9.07,-17.86 c -2.26,7.37 -5.38,13.33 -9.07,17.86 l 16.73,13.61 c 5.67,-6.52 9.92,-15.03 13.04,-25.23 l -20.7,-6.24 z m 10.49,3.12 -3.4,10.21 c 5.67,1.7 11.62,-1.14 13.61,-6.81 1.7,-5.67 -1.14,-11.9 -6.81,-13.89 l -3.4,10.49 z m -26.93,-166.68 c -29.19,89.01 -32.31,158.46 23.53,176.89 l 6.8,-20.7 c -40.25,-13.04 -34.86,-72.56 -9.63,-149.38 l -20.7,-6.81 z m 125.86,-280.06 c -45.64,90.99 -97.79,195.02 -125.86,280.06 l 20.7,6.81 c 27.78,-83.91 79.37,-187.09 124.72,-277.23 l -19.56,-9.64 z m 84.76,-192.749 c -5.1,33.439 -41.96,107.429 -84.76,192.749 l 19.56,9.64 c 43.37,-87.02 81.07,-162.14 86.74,-199.28 l -21.54,-3.109 z M 1456.89,751.199 c 86.74,68.043 169.51,132.66 153.07,240.672 l 21.54,3.109 c 18.14,-120.187 -69.16,-188.781 -161.29,-260.781 l -13.32,17 z M 1289.08,568.941 c 33.16,76.809 101.76,130.391 167.81,182.258 l 13.32,-17 C 1406.15,684.02 1339.82,632.152 1308.92,560.43 l -19.84,8.511 z m 9.92,-4.261 -7.66,7.66 c 4.26,4.25 11.34,4.25 15.31,0 4.25,-4.25 4.25,-11.059 0,-15.309 l -7.65,7.649 z m -21.55,-5.95 13.89,13.61 15.31,-15.309 -13.89,-13.609 -15.31,15.308 z m -95.24,-29.757 c 36,3.679 72.28,7.078 95.24,29.757 l 15.31,-15.308 c -28.63,-28.063 -68.88,-32.031 -108.57,-36 l -1.98,21.551 z m -44.5,-5.672 c 14.45,2.832 29.48,4.25 44.5,5.672 l 1.98,-21.551 c -14.45,-1.41 -28.91,-2.832 -42.23,-5.379" /><path
         id="path76"
         style="fill:#863a1f;fill-opacity:1;fill-rule:nonzero;stroke:none"
         d="m 1139.69,512.813 c 49.61,9.636 109.7,3.117 145.42,38.269 L 1299,564.68 c 75.97,176.32 351.49,231.59 321.73,428.601 -16.44,109.419 -337.61,590.739 -194.46,638.079 -13.6,45.07 -54.71,45.92 -94.39,13.04 -165.83,125.86 -329.95,-4.82 -337.607,-7.09 -14.449,4.82 -172.91,133.23 -341.289,8.51 -38.55,33.16 -79.941,32.6 -94.679,-12.47 136.629,-46.21 -167.813,-505.71 -200.973,-596.7 -84.187,-231.587 222.52,-284.31 298.199,-472.818 l 13.614,-13.891 c 34.867,-35.148 94.957,-28.91 144.277,-38.832 -2.828,7.371 -5.379,15.024 -7.93,22.391 -12.187,36.852 -79.371,75.691 -115.09,94.961 -33.168,17.582 -67.75,27.5 -92.98,57.262 -26.641,31.468 -45.641,16.437 -45.918,58.679 0,3.688 5.098,4.25 6.519,1.418 87.59,11.051 167.809,49.602 252.571,71.711 58.109,15.032 118.199,23.25 178.301,27.5 54.985,-4.82 109.695,-13.039 162.135,-27.211 84.19,-22.398 163.56,-61.23 250.58,-72.847 1.7,2.828 6.52,2.269 6.52,-1.422 -1.42,-42.238 -19.84,-26.93 -47.62,-58.391 -26.08,-29.769 -113.67,-38.551 -147.4,-56.129 -36.29,-18.988 -51.59,-56.98 -64.63,-93.832 -2.84,-7.367 -5.39,-15.019 -8.79,-22.386" /><path
         id="path78"
         style="fill:#000000;fill-opacity:1;fill-rule:nonzero;stroke:none"
         d="m 1340.95,610.891 3.4,-10.2 c -6.22,-1.992 -12.47,1.129 -14.17,7.079 -1.7,5.671 1.7,11.621 7.65,13.609 l 3.12,-10.488 z m 158.74,84.187 c -28.91,-43.09 -84.76,-73.129 -155.34,-94.387 l -6.52,20.688 c 65.77,19.84 117.07,47.051 142.58,85.043 l 19.28,-11.344 z m -8.22,172.91 c 38.83,-72.558 37.42,-128.968 8.22,-172.91 l -19.28,11.344 c 24.95,37.406 25.52,86.449 -9.35,151.648 l 20.41,9.918 z m -10.21,-4.816 11.34,-1.981 c -1.41,-5.953 -7.37,-9.921 -13.32,-8.793 -6.24,0.852 -10.2,6.524 -9.07,12.473 l 11.05,-1.699 z m -10.48,191.338 c 27.49,-42.8 39.11,-105.158 21.82,-193.319 l -22.39,3.68 c 16.17,82.207 5.95,139.469 -18.99,178.019 l 19.56,11.62 z m -88.73,66.9 c 35.44,-12.19 66.9,-33.45 88.73,-66.9 l -19.56,-11.62 c -18.71,28.91 -46.21,47.62 -77.39,58.11 l 8.22,20.41 z m -110.83,11.91 c 37.13,3.11 75.97,0 110.83,-11.91 l -8.22,-20.41 c -31.45,10.77 -66.9,13.32 -100.91,10.77 l -1.7,21.55 z m -155.06,-63.22 c 21.55,29.77 85.89,57.26 155.06,63.22 l 1.7,-21.55 c -62.93,-5.38 -119.91,-28.91 -138.33,-53.86 l -18.43,12.19 z m 9.36,-5.95 3.68,10.2 c 5.95,-1.98 9.07,-8.22 6.81,-13.89 -1.99,-5.66 -8.51,-8.5 -14.46,-6.8 l 3.97,10.49 z m -77.39,29.48 c 25.23,-3.68 52.44,-9.92 81.07,-19.28 l -7.65,-20.69 c -27.5,9.07 -53.29,15.03 -77.39,18.71 l 3.97,21.26 z m -79.087,4.25 c 23.82,1.14 50.177,0 79.087,-4.25 l -3.97,-21.26 c -26.93,3.97 -51.867,4.82 -74.547,3.69 l -0.57,21.82 z m 0.289,-10.77 11.34,1.13 c 0.562,-5.95 -3.969,-11.33 -10.488,-11.9 -6.243,-0.85 -11.621,3.68 -12.192,9.64 l 11.34,1.13 z m 11.34,1.13 0,0 -22.68,-2.26 22.68,2.26 z m -11.34,-1.13 -0.848,10.77 c 6.231,0.57 11.618,-3.68 12.188,-9.64 0.562,-5.95 -4.258,-11.33 -10.488,-11.9 l -0.852,10.77 z m -1.988,10.77 1.14,0 1.7,-21.54 -1.141,-0.28 -1.699,21.82 z m 0.847,-10.77 -0.277,10.77 c 6.238,0.29 11.617,-4.25 11.617,-10.2 0.293,-5.96 -4.527,-11.34 -10.769,-11.62 l -0.571,11.05 z m -1.41,10.77 1.133,0 0.848,-21.82 -1.129,0 -0.852,21.82 z m 0.282,-11.05 -11.34,0 c 0.289,6.23 5.39,11.05 11.621,11.05 6.238,0 11.34,-5.1 11.058,-11.05 l -11.339,0 z m -11.34,0 22.679,0 -22.679,0 z m 11.34,0 -0.848,10.77 c 6.238,0.85 11.617,-3.69 12.187,-9.64 0.571,-5.95 -3.968,-11.05 -10.211,-11.9 l -1.128,10.77 z m -78.52,-5.11 c 27.781,8.51 53.859,13.33 77.672,15.88 l 1.976,-21.54 c -22.386,-2.27 -47.046,-7.09 -73.128,-15.03 l -6.52,20.69 z m -77.391,-31.46 c 26.93,13.61 53.012,23.81 77.391,31.46 l 6.52,-20.69 c -23.239,-7.09 -47.622,-17.01 -73.7,-30.05 l -10.211,19.28 z m 5.11,-9.64 8.5,7.37 c 4.25,-4.25 3.972,-11.05 -0.571,-15.3 -4.808,-3.97 -11.898,-3.97 -16.148,0.28 l 8.219,7.65 z m -154.207,46.21 c 69.168,4.82 136.629,-12.76 162.707,-38.84 l -16.719,-15.02 c -21.828,22.11 -81.918,36.57 -144.852,32.31 l -1.136,21.55 z m -107.711,-28.35 c 32.59,17.29 70.578,26.08 107.711,28.35 l 1.136,-21.55 c -34.019,-2.26 -68.597,-10.2 -98.367,-25.79 l -10.48,18.99 z m -77.672,-79.652 c 16.152,36.562 44.223,62.362 77.672,79.652 l 10.48,-18.99 c -28.91,-15.03 -53.293,-37.42 -67.461,-68.881 l -20.691,8.219 z m 7.371,-194.457 c -30.328,84.469 -28.352,147.969 -7.371,194.457 l 20.691,-8.219 c -18.711,-41.961 -20.129,-100.07 8.219,-178.871 l -21.539,-7.367 z m 10.77,3.688 -10.77,3.402 c 1.98,5.668 8.5,8.777 14.449,7.078 5.961,-1.98 9.071,-7.93 7.09,-13.598 l -10.769,3.118 z m 1.699,-162.149 c -30.899,38.551 -38.27,92.129 -12.469,165.551 l 21.539,-6.52 c -23.238,-65.769 -17.289,-112.82 9.07,-145.703 L 496.512,625.91 Z M 646.184,553.059 C 579.852,565.25 526.844,587.93 496.512,625.91 l 18.14,13.328 c 26.653,-33.449 75.121,-53.578 136.352,-64.629 l -4.82,-21.55 z m 2.55,10.769 -10.492,-4.527 c -2.551,5.668 0.281,11.898 5.949,14.461 5.961,2.258 12.481,0 15.032,-5.672 l -10.489,-4.262 z M 777.422,442.512 c -66.899,26.078 -117.07,66.898 -139.18,116.789 l 20.981,8.789 c 19.84,-44.512 65.48,-81.641 127.269,-105.449 l -9.07,-20.129 z M 1009.01,412.75 c -86.447,-7.09 -166.955,4.531 -231.588,29.762 l 9.07,20.129 c 61.52,-24.102 138.332,-35.153 220.818,-28.352 l 1.7,-21.539 z M 1227,476.238 c -59.53,-33.437 -134.93,-56.687 -217.99,-63.488 l -1.7,21.539 c 79.66,6.52 151.66,28.633 208.35,60.66 L 1227,476.238 Z m 124.72,131.25 C 1333.3,557.031 1288.79,511.109 1227,476.238 l -11.34,18.711 c 56.98,32.031 98.08,73.992 114.8,119.34" /><path
         id="path80"
         style="fill:#fad4c5;fill-opacity:1;fill-rule:nonzero;stroke:none"
         d="M 1340.95,610.891 C 1306.38,515.93 1172.57,437.129 1008.16,423.52 837.805,409.352 690.125,470.012 648.734,563.828 521.172,587.359 445.773,648.871 494.813,788.059 c -116.79,324.561 255.402,319.181 321.449,252.561 56.41,28.35 107.152,41.67 150.801,46.21 l 1.128,0.28 1.141,0 c 43.928,1.98 96.378,-3.4 156.188,-22.96 54.99,75.68 422.08,137.2 355.74,-200.978 73.71,-138.043 -3.68,-210.891 -140.31,-252.281" /><path
         id="path82"
         style="fill:#000000;fill-opacity:1;fill-rule:nonzero;stroke:none"
         d="m 744.262,937.727 c 54.136,-54.141 68.597,-127.84 32.308,-164.692 -36.281,-36.851 -109.41,-22.961 -163.55,30.891 -54.149,54.148 -68.598,127.847 -32.321,164.699 36.281,36.855 109.422,22.961 163.563,-30.898" /><path
         id="path84"
         style="fill:#391f17;fill-opacity:1;fill-rule:nonzero;stroke:none"
         d="m 715.063,879.332 c -3.692,16.719 -0.848,38.27 14.171,48.188 5.668,3.972 13.039,4.82 20.411,4.25 -1.704,1.992 -3.403,3.972 -5.383,5.953 -54.141,53.859 -127.278,67.747 -163.559,30.898 -36.289,-36.851 -21.832,-110.551 32.309,-164.691 54.14,-53.86 127.281,-67.75 163.562,-30.899 5.098,5.102 9.071,11.059 12.188,17.578 -33.449,20.121 -65.199,51.301 -73.699,88.723" /><path
         id="path86"
         style="fill:#57281a;fill-opacity:1;fill-rule:nonzero;stroke:none"
         d="m 724.418,801.379 c -22.109,20.41 -46.199,47.621 -48.469,79.371 -3.402,43.367 26.36,64.348 60.09,64.629 C 683.027,993 614.996,1003.77 580.699,968.617 544.418,931.77 558.879,858.066 613.02,803.93 c 50.738,-50.742 118.488,-66.051 156.468,-37.133 -16.16,10.203 -31.461,21.82 -45.07,34.582" /><path
         id="path88"
         style="fill:#7e3c22;fill-opacity:1;fill-rule:nonzero;stroke:none"
         d="m 683.316,799.395 c -24.941,28.347 -49.043,67.179 -45.64,106.871 3.398,41.949 39.687,53.289 76.82,55.839 -48.75,32.879 -104.031,37.129 -133.793,6.52 -36.289,-36.852 -21.828,-110.551 32.313,-164.691 38.55,-38.559 86.738,-56.411 124.437,-50.18 -20.117,12.762 -38.547,28.07 -54.137,45.641" /><path
         id="path90"
         style="fill:#000000;fill-opacity:1;fill-rule:nonzero;stroke:none"
         d="m 730.086,748.938 c -38.551,-2.833 -84.469,17.007 -119.91,52.441 -26.641,26.648 -44.778,58.68 -51.02,90.707 -6.238,32.312 0.282,60.383 18.711,79.09 12.469,12.75 29.481,20.121 49.039,21.543 38.832,3.117 84.75,-17.012 119.903,-52.442 55.558,-55.281 70.019,-131.531 32.32,-169.8 -12.191,-12.75 -29.203,-20.122 -49.043,-21.539 m -102.609,236.41 c -17.86,-1.422 -33.168,-7.942 -44.219,-19.282 -16.731,-17 -22.68,-42.8 -16.731,-72.558 5.95,-30.332 23.25,-61.231 49.039,-86.742 33.731,-34.02 77.672,-53.289 113.95,-50.457 18.14,1.418 33.453,8.218 44.511,19.277 34.86,35.43 20.121,106.859 -32.32,159.59 -34.012,33.73 -77.672,53 -114.23,50.172" /><path
         id="path92"
         style="fill:#000000;fill-opacity:1;fill-rule:nonzero;stroke:none"
         d="m 1206.88,972.875 c -45.36,-61.512 -48.48,-136.633 -7.09,-167.812 41.66,-30.899 111.96,-6.239 157.32,55.562 45.35,61.508 48.48,136.629 7.09,167.525 -41.39,30.89 -111.98,6.23 -157.32,-55.275" /><path
         id="path94"
         style="fill:#391f17;fill-opacity:1;fill-rule:nonzero;stroke:none"
         d="m 1244.57,919.582 c 1.43,17.012 -4.82,37.981 -20.98,45.641 -6.52,2.832 -13.59,2.55 -20.96,1.129 1.41,1.992 2.82,4.25 4.25,6.519 45.35,61.509 115.94,86.169 157.32,55.279 41.39,-30.896 38.26,-106.017 -7.09,-167.529 -45.36,-61.797 -115.66,-86.457 -157.32,-55.558 -5.68,4.539 -10.49,9.64 -14.45,15.589 30.04,24.95 56.41,60.379 59.23,98.93" /><path
         id="path96"
         style="fill:#57281a;fill-opacity:1;fill-rule:nonzero;stroke:none"
         d="m 1247.41,841.063 c 18.71,23.531 38.27,54.14 35.72,85.89 -3.12,43.371 -35.72,59.531 -69.17,54.711 45.36,54.986 110.84,75.966 150.24,46.486 41.38,-30.896 38.27,-106.017 -7.09,-167.529 -42.52,-57.828 -107.15,-83.34 -149.39,-60.379 14.46,12.473 28.07,26.082 39.69,40.821" /><path
         id="path98"
         style="fill:#7e3c22;fill-opacity:1;fill-rule:nonzero;stroke:none"
         d="m 1288.23,845.316 c 20.41,31.75 38.27,73.981 28.91,112.539 -9.63,41.098 -47.05,46.775 -84.47,43.645 43.37,39.68 97.23,52.16 131.53,26.64 41.38,-30.886 38.27,-106.003 -7.09,-167.515 -32.31,-43.941 -77.38,-68.879 -115.65,-68.602 17.86,15.59 33.73,33.454 46.77,53.293" /><path
         id="path100"
         style="fill:#000000;fill-opacity:1;fill-rule:nonzero;stroke:none"
         d="m 1249.39,788.34 c 38.56,2.828 81.07,29.758 110.56,70.019 22.39,30.329 35.71,64.911 36.84,97.219 1.42,32.891 -9.34,59.822 -30.33,75.692 -14.17,10.49 -32.03,15.31 -51.87,13.61 -38.55,-2.84 -81.07,-29.48 -110.55,-69.739 -46.49,-63.211 -49.33,-140.883 -6.24,-172.911 13.9,-10.492 32.04,-15.312 51.59,-13.89 m 65.76,249.17 c 17.87,1.41 34.3,-2.84 46.78,-12.48 19,-14.17 28.91,-38.55 27.5,-69.163 -1.14,-30.898 -13.89,-64.066 -35.44,-92.976 -28.35,-38.551 -68.6,-64.352 -105.17,-67.18 -17.86,-1.133 -34.01,3.117 -46.77,12.469 -39.67,29.769 -36,102.621 7.94,162.429 28.35,38.551 68.6,64.061 105.16,66.901" /><path
         id="path102"
         style="fill:#000000;fill-opacity:1;fill-rule:nonzero;stroke:none"
         d="m 669.141,1791.8 3.402,0 c 20.98,33.45 58.68,55.29 100.91,54.72 24.949,-0.29 48.188,-8.52 66.899,-22.12 14.742,15.31 32.878,27.49 53.011,35.15 18.43,41.38 60.379,70.01 108.567,69.45 56.12,-0.85 102.33,-40.82 113.1,-93.55 21.83,24.39 53.57,39.41 88.72,38.84 64.63,-0.84 116.51,-53.86 115.37,-118.49 l 0,-4.53 c 64.63,-0.86 116.22,-54.14 115.37,-118.78 -0.85,-64.63 -53.85,-116.22 -118.48,-115.36 -59.53,0.84 -107.72,45.64 -114.81,102.89 -20.97,-33.45 -58.39,-55.56 -100.63,-54.98 -31.46,0.57 -59.81,13.32 -80.78,33.73 -22.399,-13.32 -48.759,-20.98 -76.817,-20.7 l -1.993,0 c -19.269,-39.39 -60.089,-66.05 -106.859,-65.48 -45.07,0.56 -83.629,26.64 -102.617,64.06 -18.992,-12.19 -41.383,-19.27 -65.481,-18.99 -64.632,0.86 -116.5,54.14 -115.371,118.77 0.852,64.63 53.86,116.22 118.489,115.37" /><path
         id="path104"
         style="fill:#000000;fill-opacity:1;fill-rule:nonzero;stroke:none"
         d="m 1191.57,716.055 c -5.39,0 -9.64,4.25 -9.64,9.64 0,5.379 4.25,9.641 9.36,9.641 12.47,0 24.09,-1.711 34.3,-5.672 0.85,0 1.98,-0.289 2.83,-0.566 1.7,-0.282 3.12,-1.422 3.97,-2.551 l 1.98,-0.852 c 12.76,-6.808 23.53,-17.289 31.75,-31.468 2.84,-4.532 1.13,-10.493 -3.4,-13.039 -4.54,-2.833 -10.49,-1.133 -13.04,3.41 -5.39,8.777 -11.62,15.867 -18.71,20.968 -13.04,-37.98 -31.46,-70.011 -53.29,-95.808 -29.76,-35.153 -66.05,-58.961 -104.31,-71.434 -62.93,-20.41 -130.401,-9.359 -180.862,33.731 -4.25,3.402 -4.531,9.351 -1.129,13.32 3.398,4.25 9.359,4.539 13.316,1.141 165.265,-26.649 299.915,52.148 308.705,126.992 -6.52,1.976 -13.89,2.828 -21.83,2.547" /><path
         id="path106"
         style="fill:#000000;fill-opacity:1;fill-rule:nonzero;stroke:none"
         d="m 1333.02,1429.54 c 1.42,42.24 -22.68,95.53 -64.06,95.81 -83.07,0.56 -165.55,-162.42 -230.75,-166.12 -18.7,-1.12 -31.17,6.25 -43.933,15.03 -0.281,-26.92 15.863,-74.26 52.163,-71.15 92.41,8.23 143.43,136.35 224.77,166.12 35.45,13.03 29.77,-26.93 61.81,-39.69" /><path
         id="path108"
         style="fill:#000000;fill-opacity:1;fill-rule:nonzero;stroke:none"
         d="m 638.813,1208.43 c 84.261,0 163.75,-28.16 219.261,-77.46 25.379,22.93 45.719,58.93 55.41,98.24 -21.14,17.27 -74.062,55.75 -121.062,89.92 -31.57,22.96 -61.391,44.65 -75.899,55.81 -27.281,20.86 -47.089,32.74 -60.39,36.19 -41.969,-32.18 -66.93,-83.43 -66.93,-137.78 0,-23 4.328,-45.37 12.879,-66.61 11.031,1.14 23.109,1.69 36.731,1.69 m 219.121,-94.67 c -1.821,0 -3.629,0.66 -5.039,1.98 -52.973,49.54 -131,77.95 -214.082,77.95 -15.34,0 -28.571,-0.72 -40.469,-2.21 -3.25,-0.41 -6.36,1.38 -7.672,4.36 -10.758,24.58 -16.207,50.66 -16.207,77.51 0,60.15 28.25,116.83 75.578,151.63 1.609,1.19 3.641,1.67 5.621,1.33 15.848,-2.76 38.039,-15.37 69.828,-39.68 14.36,-11.05 44.11,-32.68 75.602,-55.57 50.019,-36.38 106.719,-77.61 125.39,-93.48 2.09,-1.78 3.02,-4.57 2.418,-7.24 -10.488,-46.57 -35.281,-89.53 -66.308,-114.92 -1.36,-1.11 -3.012,-1.66 -4.66,-1.66" /><path
         id="path110"
         style="fill:#fdfdfd;fill-opacity:1;fill-rule:nonzero;stroke:none"
         d="m 921.711,1231.96 c -9.641,-42.8 -32.602,-85.32 -63.781,-110.83 -52.442,49.03 -131.242,79.93 -219.121,79.93 -13.891,0 -27.782,-0.56 -41.379,-2.27 -9.922,22.68 -15.59,47.91 -15.59,74.56 0,60.09 28.629,113.38 72.558,145.7 13.04,-2.27 32.879,-12.48 66.622,-38.27 36.847,-28.35 170.359,-123.02 200.691,-148.82" /><path
         id="path112"
         style="fill:#000000;fill-opacity:1;fill-rule:nonzero;stroke:none"
         d="m 757.016,1354.13 c 43.371,-31.75 107.148,-77.67 143.429,-105.17 -22.668,-42.51 -68.031,-65.19 -109.129,-52.15 -46.492,15.03 -69.449,70.87 -51.308,124.44 3.969,12.2 9.918,23.24 17.008,32.88" /><path
         id="path114"
         style="fill:#863a1f;fill-opacity:1;fill-rule:nonzero;stroke:none"
         d="m 773.457,1342.23 c 35.43,-25.8 78.801,-57.26 110.551,-81.07 -17.012,-34.02 -53.012,-52.73 -85.32,-42.24 -36,11.62 -53.86,54.71 -39.692,96.1 3.41,10.2 8.223,19.27 14.461,27.21" /><path
         id="path116"
         style="fill:#000000;fill-opacity:1;fill-rule:nonzero;stroke:none"
         d="m 799.613,1318.31 c -3.347,-4.31 -5.871,-8.95 -7.5,-13.86 -3.699,-10.95 -3.078,-22.63 1.692,-32.07 3.847,-7.59 10.121,-13.11 17.668,-15.52 16.031,-5.34 34.32,4.64 42.32,22 -12.527,9.16 -25.75,18.77 -38.93,28.35 l -15.25,11.1 z m 20.942,-70.58 c -3.922,0 -7.77,0.63 -11.461,1.86 -9.461,3.02 -17.34,9.89 -22.121,19.34 -5.688,11.25 -6.457,25.09 -2.118,37.95 2.297,6.91 6.09,13.37 11.25,19.18 1.321,1.48 3.54,1.71 5.118,0.55 l 18.152,-13.21 c 14.039,-10.22 28.117,-20.47 41.379,-30.16 1.398,-1.03 1.941,-2.86 1.309,-4.47 -7.168,-18.57 -23.86,-31.04 -41.508,-31.04" /><path
         id="path118"
         style="fill:#000000;fill-opacity:1;fill-rule:nonzero;stroke:none"
         d="m 798.969,1323.52 c 19.84,-14.46 40.539,-29.48 59.531,-43.37 -8.223,-21.26 -29.48,-33.17 -48.191,-26.93 -19.559,6.24 -29.481,29.76 -21.829,52.44 2.27,6.8 5.95,12.76 10.489,17.86" /><path
         id="path120"
         style="fill:#fdfdfd;fill-opacity:1;fill-rule:nonzero;stroke:none"
         d="m 793.301,1327.49 10.769,-7.65 c 0.852,-1.14 1.418,-2.27 1.7,-3.69 2.839,-8.5 -0.848,-17.29 -7.93,-19.56 -7.371,-2.27 -15.59,2.55 -18.43,11.06 -2.832,8.5 0.852,17.29 7.942,19.56 1.976,0.56 3.968,0.85 5.949,0.28" /><path
         id="path122"
         style="fill:#000000;fill-opacity:1;fill-rule:nonzero;stroke:none"
         d="m 613.016,1437.19 c -1.418,42.24 50.172,69.73 91.558,70.02 83.051,0.56 157.614,-144.29 223.09,-147.97 18.422,-1.14 31.184,6.23 43.934,15.02 0,-26.93 -16.153,-74.27 -52.153,-71.15 -92.41,8.22 -135.781,117.92 -217.418,147.97 -35.152,13.04 -56.98,-1.13 -89.011,-13.89" /><path
         id="path124"
         style="fill:#000000;fill-opacity:1;fill-rule:nonzero;stroke:none"
         d="m 1039.93,1229.23 c 9.95,-39.32 30.28,-75.32 55.42,-98.24 55.51,49.29 134.98,77.44 219.24,77.44 13.83,0 25.66,-0.54 36.73,-1.69 8.54,21.23 12.87,43.61 12.87,66.61 0,54.34 -24.95,105.59 -66.91,137.77 -13.16,-3.48 -32.89,-15.37 -60.14,-36.2 -14.08,-10.74 -41.18,-30.43 -72.57,-53.22 -48.45,-35.18 -102.99,-74.79 -124.64,-92.47 m 55.54,-115.47 c -1.66,0 -3.33,0.55 -4.7,1.68 -30.69,25.36 -55.47,68.3 -66.26,114.85 -0.62,2.69 0.3,5.5 2.4,7.28 19.11,16.25 77.49,58.65 129,96.05 30.01,21.8 58.35,42.38 72.28,53.02 31.76,24.27 53.85,36.88 69.52,39.66 2,0.36 4.04,-0.12 5.66,-1.32 47.31,-34.8 75.56,-91.48 75.56,-151.63 0,-26.86 -5.46,-52.93 -16.21,-77.51 -1.31,-2.99 -4.32,-4.8 -7.66,-4.36 -12.06,1.51 -24.92,2.21 -40.47,2.21 -83.08,0 -161.12,-28.41 -214.09,-77.95 -1.41,-1.32 -3.22,-1.98 -5.03,-1.98" /><path
         id="path126"
         style="fill:#fdfdfd;fill-opacity:1;fill-rule:nonzero;stroke:none"
         d="m 1031.69,1231.96 c 9.92,-42.8 32.88,-85.32 63.78,-110.83 52.44,49.03 131.24,79.93 219.12,79.93 14.17,0 27.78,-0.56 41.38,-2.27 9.92,22.68 15.59,47.91 15.59,74.56 0,60.09 -28.63,113.38 -72.56,145.7 -12.76,-2.27 -32.6,-12.48 -66.33,-38.27 -37.14,-28.35 -170.65,-123.02 -200.98,-148.82" /><path
         id="path128"
         style="fill:#000000;fill-opacity:1;fill-rule:nonzero;stroke:none"
         d="m 1196.39,1354.13 c -43.37,-31.75 -107.16,-77.67 -143.16,-105.17 22.4,-42.51 68.04,-65.19 108.86,-52.15 46.48,15.03 69.45,70.87 51.59,124.44 -4.25,12.2 -9.92,23.24 -17.29,32.88" /><path
         id="path130"
         style="fill:#863a1f;fill-opacity:1;fill-rule:nonzero;stroke:none"
         d="m 1180.23,1342.23 c -35.43,-25.8 -79.09,-57.26 -110.83,-81.07 17,-34.02 53,-52.73 85.32,-42.24 36,11.62 53.86,54.71 39.68,96.1 -3.11,10.2 -8.22,19.27 -14.17,27.21" /><path
         id="path132"
         style="fill:#000000;fill-opacity:1;fill-rule:nonzero;stroke:none"
         d="m 1099.64,1278.87 c 8.24,-17.38 26.63,-27.26 42.25,-22.02 7.63,2.4 13.92,7.86 17.75,15.39 4.79,9.41 5.39,21.15 1.66,32.2 -1.64,4.91 -4.16,9.56 -7.51,13.87 l -15.81,-11.51 c -12.99,-9.44 -26,-18.91 -38.34,-27.93 m 33.23,-31.13 c -17.42,0 -34.1,12.45 -41.52,30.99 -0.65,1.62 -0.12,3.47 1.3,4.51 13.07,9.57 26.96,19.67 40.83,29.76 l 18.7,13.61 c 1.6,1.16 3.81,0.93 5.12,-0.55 5.16,-5.82 8.95,-12.27 11.26,-19.19 4.37,-12.97 3.61,-26.86 -2.1,-38.1 -4.77,-9.38 -12.66,-16.2 -22.22,-19.2 -3.62,-1.21 -7.46,-1.83 -11.37,-1.83" /><path
         id="path134"
         style="fill:#000000;fill-opacity:1;fill-rule:nonzero;stroke:none"
         d="m 1154.43,1323.52 c -19.84,-14.46 -40.54,-29.48 -59.53,-43.37 8.51,-21.26 29.48,-33.17 48.19,-26.93 19.84,6.24 29.48,29.76 21.83,52.44 -2.27,6.8 -5.95,12.76 -10.49,17.86" /><path
         id="path136"
         style="fill:#fdfdfd;fill-opacity:1;fill-rule:nonzero;stroke:none"
         d="m 1160.1,1327.49 -10.77,-7.65 c -0.57,-1.14 -1.14,-2.27 -1.7,-3.69 -2.84,-8.5 0.85,-17.29 8.22,-19.56 7.08,-2.27 15.31,2.55 18.14,11.06 2.83,8.5 -0.57,17.29 -7.94,19.56 -1.98,0.56 -3.97,0.85 -5.95,0.28" /></g></g></svg>