<?xml version="1.0" encoding="UTF-8" standalone="no"?>
<svg
   xmlns:dc="http://purl.org/dc/elements/1.1/"
   xmlns:cc="http://creativecommons.org/ns#"
   xmlns:rdf="http://www.w3.org/1999/02/22-rdf-syntax-ns#"
   xmlns:svg="http://www.w3.org/2000/svg"
   xmlns="http://www.w3.org/2000/svg"
   viewBox="0 0 248.03751 248.03751"
   height="248.03751"
   width="248.03751"
   xml:space="preserve"
   version="1.1"
   id="svg2"><metadata
     id="metadata8"><rdf:RDF><cc:Work
         rdf:about=""><dc:format>image/svg+xml</dc:format><dc:type
           rdf:resource="http://purl.org/dc/dcmitype/StillImage" /></cc:Work></rdf:RDF></metadata><defs
     id="defs6" /><g
     transform="matrix(1.25,0,0,-1.25,0,248.0375)"
     id="g10"><g
       transform="scale(0.1,0.1)"
       id="g12"><path
         id="path14"
         style="fill:#fad7c8;fill-opacity:1;fill-rule:evenodd;stroke:none"
         d="m 1380.36,1458.09 c 7.37,5.1 19.55,21.54 10.19,22.68 -84.46,-16.16 -184.8,48.47 -259.64,53.29 -28.64,-11.62 4.82,-137.48 36.27,-144.28 92.98,-62.37 166.12,-56.41 213.18,68.31" /><path
         id="path16"
         style="fill:#000000;fill-opacity:1;fill-rule:nonzero;stroke:none"
         d="m 1400.48,1466.59 c -2.55,-5.1 -7.37,-10.77 -11.91,-14.46 -24.66,-64.06 -56.69,-97.79 -94.96,-107.71 -38.55,-9.92 -82.2,4.25 -130.67,36.28 -13.04,4.25 -25.52,21.54 -34.59,43.09 -6.8,15.59 -12.18,34.01 -15.3,51.3 -3.12,17.86 -3.97,34.59 -1.14,46.78 2.27,10.48 7.09,18.14 15.31,21.26 l 4.25,0.85 c 31.75,-1.99 66.62,-14.18 103.18,-26.65 51.59,-17.57 106.3,-36.28 154.21,-26.93 l 2.83,0 c 3.12,-0.28 5.67,-1.42 7.37,-3.12 3.97,-3.12 5.39,-7.37 4.54,-12.19 -0.29,-2.83 -1.42,-5.67 -3.12,-8.5 m -25.8,-0.57 c 1.14,0.85 2.27,1.7 3.41,3.12 -48.76,-4.82 -100.63,13.04 -149.96,29.76 -33.73,11.63 -66.33,22.68 -94.39,25.23 -1.13,-1.13 -1.98,-3.4 -2.55,-6.52 -1.99,-9.63 -1.42,-23.81 1.42,-39.11 2.83,-15.88 7.93,-32.6 13.89,-47.06 7.65,-17.29 15.87,-30.61 22.67,-32.03 l 3.69,-1.42 c 43.94,-29.76 83.05,-43.09 115.65,-34.86 32.6,8.5 60.38,39.4 82.49,98.36" /><path
         id="path18"
         style="fill:#000000;fill-opacity:1;fill-rule:evenodd;stroke:none"
         d="m 893.645,1801.64 c 121.045,23.82 227.625,-81.07 239.815,-217.98 24.38,-275.52 13.04,-552.75 19.27,-829.414 -49.03,3.68 -97.79,7.371 -146.84,11.051 -179.425,9.918 -358.292,20.41 -537.445,30.051 47.34,275.812 -1.699,574.022 62.371,852.952 47.622,206.36 267.301,235.84 362.829,153.34" /><path
         id="path20"
         style="fill:#000000;fill-opacity:1;fill-rule:evenodd;stroke:none"
         d="m 555.758,1612.29 c -160.723,51.02 -153.07,127.84 -100.352,213.73 2.551,3.69 15.032,5.67 14.461,1.14 -8.222,-66.62 4.821,-95.81 167.528,-121.33 -22.957,-18.14 -58.957,-74.83 -81.637,-93.54" /><path
         id="path22"
         style="fill:#000000;fill-opacity:1;fill-rule:evenodd;stroke:none"
         d="m 1061.74,1582.53 c 160.44,50.46 152.79,127.56 100.35,213.45 -2.27,3.97 -15.31,5.67 -14.74,1.42 8.5,-66.62 -4.26,-96.1 -167.248,-121.61 22.678,-18.14 58.678,-74.83 81.638,-93.26" /><path
         id="path24"
         style="fill:#000000;fill-opacity:1;fill-rule:evenodd;stroke:none"
         d="m 821.363,1812.42 0,0 c 164.981,0 299.907,-135.21 299.907,-300.47 l 0,-770.462 c 0,-165.539 -134.926,-300.761 -299.907,-300.761 -165.261,0 -300.468,135.222 -300.468,300.761 l 0,770.462 c 0,165.26 135.207,300.47 300.468,300.47" /><path
         id="path26"
         style="fill:#fdfdfd;fill-opacity:1;fill-rule:evenodd;stroke:none"
         d="m 821.363,1797.39 0,0 c 157.039,0 285.447,-128.41 285.447,-285.44 l 0,-770.466 c 0,-157.031 -128.408,-285.441 -285.447,-285.441 -157.039,0 -285.449,128.41 -285.449,285.441 l 0,770.466 c 0,157.03 128.41,285.44 285.449,285.44" /><path
         id="path28"
         style="fill:#000000;fill-opacity:1;fill-rule:evenodd;stroke:none"
         d="m 881.742,1437.68 c 19.278,9.35 66.899,15.59 72.848,39.97 3.402,17.01 23.812,41.67 7.652,57.26 -23.812,22.39 -79.082,30.05 -109.699,46.2 -20.691,8.79 -13.602,28.07 -22.961,37.42 -13.891,12.47 -63.211,-1.13 -71.152,-9.92 -32.598,-29.48 1.703,-91.84 27.222,-117.36 13.891,-12.47 26.918,-30.89 41.379,-43.37 18.711,-16.44 30.621,-3.11 54.711,-10.2 M 664.891,1256.55 c 19.839,47.33 68.031,94.11 120.191,46.48 28.059,-25.51 32.027,-69.73 22.68,-108.85 -6.52,-29.48 -15.879,-56.12 -37.992,-77.38 -25.227,-23.53 -104.309,-16.16 -114.797,23.81 -5.672,24.66 -14.461,36 -7.66,65.48 3.117,12.19 6.238,50.17 17.578,50.46 m 155.05,-667.562 c -44.218,0.559 -86.449,10.489 -123.871,27.207 -3.121,6.243 -5.668,13.321 -7.937,21.832 -7.082,37.7 0.566,79.93 -7.082,119.899 -11.91,60.953 -26.93,146.551 12.191,196.16 34.578,43.941 110.551,93.264 166.668,70.304 34.871,-13.32 22.961,-46.773 80.223,-49.894 38.269,-1.141 94.957,-24.949 102.617,-64.348 9.07,-42.519 -7.66,-103.75 -30.05,-143.429 -1.42,-5.102 -79.938,-128.692 -111.68,-145.981 -21.829,-11.34 -51.59,-23.82 -81.079,-31.75 m 293.669,869.952 0,-438.8 c -30.61,17.57 -59.81,37.98 -89,55.56 -102.329,63.49 0,280.34 89,383.24" /><path
         id="path30"
         style="fill:#000000;fill-opacity:1;fill-rule:evenodd;stroke:none"
         d="m 1035.95,1160.45 c -52.165,0 -94.684,77.95 -94.684,173.2 0,95.24 42.519,173.19 94.684,173.19 52.16,0 94.1,-77.95 94.1,-173.19 0,-95.25 -41.94,-173.2 -94.1,-173.2" /><path
         id="path32"
         style="fill:#fdfdfd;fill-opacity:1;fill-rule:evenodd;stroke:none"
         d="m 1043.03,1186.81 c -48.467,0 -87.589,72 -87.589,160.16 0,87.87 39.122,159.87 87.589,159.87 47.91,0 87.02,-72 87.02,-159.87 0,-88.16 -39.11,-160.16 -87.02,-160.16" /><path
         id="path34"
         style="fill:#009646;fill-opacity:1;fill-rule:evenodd;stroke:none"
         d="m 1028.01,1207.22 c -33.451,0 -60.944,40.25 -60.944,88.72 0,49.04 27.493,88.73 60.944,88.73 33.73,0 61.23,-39.69 61.23,-88.73 0,-48.47 -27.5,-88.72 -61.23,-88.72" /><path
         id="path36"
         style="fill:#000000;fill-opacity:1;fill-rule:evenodd;stroke:none"
         d="m 1021.49,1233.02 c -22.681,0 -41.392,26.93 -41.392,60.37 0,33.16 18.711,60.66 41.392,60.66 22.68,0 41.39,-27.5 41.39,-60.66 0,-33.44 -18.71,-60.37 -41.39,-60.37" /><path
         id="path38"
         style="fill:#fdfdfd;fill-opacity:1;fill-rule:evenodd;stroke:none"
         d="m 1052.1,1284.04 c -10.2,0 -18.71,11.91 -18.71,26.36 0,14.74 8.51,26.93 18.71,26.93 10.2,0 17.86,-12.19 17.86,-26.93 0,-14.45 -7.66,-26.36 -17.86,-26.36" /><path
         id="path40"
         style="fill:#fdfdfd;fill-opacity:1;fill-rule:evenodd;stroke:none"
         d="m 1026.88,1305.58 c -18.43,0 -34.025,22.11 -34.025,49.04 0,26.93 15.595,49.04 34.025,49.04 18.71,0 34.3,-22.11 34.3,-49.04 0,-26.93 -15.59,-49.04 -34.3,-49.04" /><path
         id="path42"
         style="fill:#000000;fill-opacity:1;fill-rule:evenodd;stroke:none"
         d="m 1040.77,1506.84 c 54.43,0 98.93,-77.39 98.93,-173.2 l 0,-3.68 -198.434,0 0,3.68 c 0,95.81 44.218,173.2 99.504,173.2" /><path
         id="path44"
         style="fill:#000000;fill-opacity:1;fill-rule:evenodd;stroke:none"
         d="m 692.953,1187.38 c -45.351,0 -82.199,67.75 -82.199,150.52 0,82.49 36.848,150.24 82.199,150.24 44.789,0 81.641,-67.75 81.641,-150.24 0,-82.77 -36.852,-150.52 -81.641,-150.52" /><path
         id="path46"
         style="fill:#fdfdfd;fill-opacity:1;fill-rule:evenodd;stroke:none"
         d="m 705.992,1184.26 c -47.058,0 -84.758,69.73 -84.758,155.06 0,85.32 37.7,155.05 84.758,155.05 46.492,0 84.192,-69.73 84.192,-155.05 0,-85.33 -37.7,-155.06 -84.192,-155.06" /><path
         id="path48"
         style="fill:#009646;fill-opacity:1;fill-rule:evenodd;stroke:none"
         d="m 691.535,1204.1 c -32.597,0 -59.238,38.83 -59.238,85.89 0,47.62 26.641,85.89 59.238,85.89 32.602,0 59.242,-38.27 59.242,-85.89 0,-47.06 -26.64,-85.89 -59.242,-85.89" /><path
         id="path50"
         style="fill:#000000;fill-opacity:1;fill-rule:evenodd;stroke:none"
         d="m 685.301,1229.05 c -22.11,0 -40.25,26.08 -40.25,58.68 0,32.03 18.14,58.67 40.25,58.67 21.828,0 39.969,-26.64 39.969,-58.67 0,-32.6 -18.141,-58.68 -39.969,-58.68" /><path
         id="path52"
         style="fill:#fdfdfd;fill-opacity:1;fill-rule:evenodd;stroke:none"
         d="m 714.781,1278.37 c -9.922,0 -17.859,11.62 -17.859,25.51 0,14.46 7.937,26.08 17.859,26.08 9.918,0 17.289,-11.62 17.289,-26.08 0,-13.89 -7.371,-25.51 -17.289,-25.51" /><path
         id="path54"
         style="fill:#fdfdfd;fill-opacity:1;fill-rule:evenodd;stroke:none"
         d="m 690.402,1299.35 c -18.14,0 -33.172,21.54 -33.172,47.62 0,26.08 15.032,47.62 33.172,47.62 17.86,0 33.168,-21.54 33.168,-47.62 0,-26.08 -15.308,-47.62 -33.168,-47.62" /><path
         id="path56"
         style="fill:#000000;fill-opacity:1;fill-rule:evenodd;stroke:none"
         d="m 703.727,1494.37 c 52.718,0 95.808,-74.83 95.808,-167.81 l 0,-3.4 -192.191,0 0,3.4 c 0,92.98 43.09,167.81 96.383,167.81" /><path
         id="path58"
         style="fill:#fad7c8;fill-opacity:1;fill-rule:evenodd;stroke:none"
         d="m 703.727,1450.72 c 52.718,0 95.808,-56.13 95.808,-125.29 l 0,-2.27 -192.191,0 0,2.27 c 0,69.16 43.09,125.29 96.383,125.29" /><path
         id="path60"
         style="fill:#000000;fill-opacity:1;fill-rule:evenodd;stroke:none"
         d="m 478.938,1327.13 0,0 c 0,2.83 4.25,5.39 8.789,5.39 l 304.718,0 c 4.821,0 8.793,-2.56 8.793,-5.39 0,-2.83 -3.972,-5.67 -8.793,-5.67 l -304.718,0 c -4.539,0 -8.789,2.84 -8.789,5.67" /><path
         id="path62"
         style="fill:#000000;fill-opacity:1;fill-rule:evenodd;stroke:none"
         d="m 1118.15,1000.86 c -14.46,191.34 26.65,395.15 -43.09,574.02 -21.26,54.7 -113.951,67.18 -170.361,144.56 15.02,-181.41 -338.461,-701.57 -357.449,-965.19 -18.141,1.129 -31.461,1.699 -49.602,2.258 C 542.43,1099.79 853.961,1415 854.531,1717.46 841.77,1668.42 735.762,1640.36 728.391,1589.9 679.629,1248.32 530.238,1064.36 465.332,784.578 c -24.383,-1.14 -101.203,-79.09 -125.863,-80.789 15.883,25.512 40.25,75.121 60.383,126.141 -18.993,-14.172 -40.25,-26.36 -58.961,-35.153 -16.442,-7.648 -131.809,-38.269 -61.512,-3.398 88.16,43.648 128.691,145.422 118.769,129.832 C 363,865.648 293.551,857.988 231.469,857.988 c -15.297,0 -14.449,-3.109 -15.297,0 -0.57,2.84 80.777,39.692 106.008,56.41 89.859,58.961 94.679,102.332 117.359,172.352 2.551,159.31 -9.641,318.33 18.992,494.93 42.797,259.37 326.547,265.04 435.117,208.91 102.891,7.94 218.832,-74.27 228.752,-217.7 13.04,-183.12 -7.37,-377.01 -4.25,-572.03" /><path
         id="path64"
         style="fill:#f6ae94;fill-opacity:1;fill-rule:evenodd;stroke:none"
         d="m 910.371,164.355 c -284.883,0 -517.32,180.848 -517.32,402.801 0,221.668 232.437,402.52 517.32,402.52 284.879,0 517.319,-180.852 517.319,-402.52 0,-221.953 -232.44,-402.801 -517.319,-402.801" /><path
         id="path66"
         style="fill:#fad7c8;fill-opacity:1;fill-rule:evenodd;stroke:none"
         d="m 911.789,324.512 c -267.312,0 -485.57,139.75 -485.57,310.679 0,171.782 218.258,310.961 485.57,310.961 267.871,0 486.141,-139.179 486.141,-310.961 0,-170.929 -218.27,-310.679 -486.141,-310.679" /><path
         id="path68"
         style="fill:#f6ae94;fill-opacity:1;fill-rule:evenodd;stroke:none"
         d="m 668.859,567.727 c -97.23,0 -176.031,72.277 -176.031,161.289 0,89.007 78.801,161.578 176.031,161.578 96.942,0 175.75,-72.571 175.75,-161.578 0,-89.012 -78.808,-161.289 -175.75,-161.289" /><path
         id="path70"
         style="fill:#f6ae94;fill-opacity:1;fill-rule:evenodd;stroke:none"
         d="m 1167.47,567.727 c -90.99,0 -165.83,67.179 -165.83,149.386 0,82.203 74.84,149.102 165.83,149.102 91.56,0 165.83,-66.899 165.83,-149.102 0,-82.207 -74.27,-149.386 -165.83,-149.386" /><path
         id="path72"
         style="fill:#fad7c8;fill-opacity:1;fill-rule:evenodd;stroke:none"
         d="m 660.07,604.008 c -89.859,0 -163.558,62.648 -163.558,140.031 0,77.391 73.699,140.598 163.558,140.598 90.141,0 163.84,-63.207 163.84,-140.598 0,-77.383 -73.699,-140.031 -163.84,-140.031" /><path
         id="path74"
         style="fill:#fcebe3;fill-opacity:1;fill-rule:evenodd;stroke:none"
         d="m 638.527,588.699 c -70.019,0 -127.281,62.364 -127.281,138.614 0,76.257 57.262,138.617 127.281,138.617 69.731,0 126.993,-62.36 126.993,-138.617 0,-76.25 -57.262,-138.614 -126.993,-138.614" /><path
         id="path76"
         style="fill:#a65f4a;fill-opacity:1;fill-rule:evenodd;stroke:none"
         d="m 623.504,618.18 c -51.309,0 -92.981,42.519 -92.981,95.242 0,52.16 41.672,94.961 92.981,94.961 50.738,0 92.41,-42.801 92.41,-94.961 0,-52.723 -41.672,-95.242 -92.41,-95.242" /><path
         id="path78"
         style="fill:#fad7c8;fill-opacity:1;fill-rule:evenodd;stroke:none"
         d="m 1160.1,600.605 c -87.31,0 -158.46,61.231 -158.46,136.633 0,75.399 71.15,136.91 158.46,136.91 87.31,0 158.17,-61.511 158.17,-136.91 0,-75.402 -70.86,-136.633 -158.17,-136.633" /><path
         id="path80"
         style="fill:#fcebe3;fill-opacity:1;fill-rule:evenodd;stroke:none"
         d="m 1151.6,593.238 c -67.18,0 -122.17,58.391 -122.17,130.68 0,71.711 54.99,130.391 122.17,130.391 67.18,0 121.89,-58.68 121.89,-130.391 0,-72.289 -54.71,-130.68 -121.89,-130.68" /><path
         id="path82"
         style="fill:#a65f4a;fill-opacity:1;fill-rule:evenodd;stroke:none"
         d="m 1146.78,618.18 c -56.98,0 -103.75,43.652 -103.75,97.8 0,54.141 46.77,98.36 103.75,98.36 57.26,0 103.75,-44.219 103.75,-98.36 0,-54.148 -46.49,-97.8 -103.75,-97.8" /><path
         id="path84"
         style="fill:#000000;fill-opacity:1;fill-rule:evenodd;stroke:none"
         d="m 612.734,640.574 c -33.453,0 -60.941,27.5 -60.941,61.801 0,34.012 27.488,61.789 60.941,61.789 33.168,0 60.661,-27.777 60.661,-61.789 0,-34.301 -27.493,-61.801 -60.661,-61.801" /><path
         id="path86"
         style="fill:#000000;fill-opacity:1;fill-rule:evenodd;stroke:none"
         d="m 1153.87,644.262 c -38.27,0 -69.45,29.476 -69.45,65.476 0,36.282 31.18,65.481 69.45,65.481 37.98,0 68.6,-29.199 68.6,-65.481 0,-36 -30.62,-65.476 -68.6,-65.476" /><path
         id="path88"
         style="fill:#fdfdfd;fill-opacity:1;fill-rule:evenodd;stroke:none"
         d="M 830.148,1748.92 C 796.422,1721.99 736.039,1696.48 719.602,1613.42 669.988,1363.69 574.18,1125.3 469.02,949.273 c 110.832,238.107 195.871,458.637 233.851,666.707 19.848,108 92.981,127.27 127.277,132.94" /><path
         id="path90"
         style="fill:#fdfdfd;fill-opacity:1;fill-rule:evenodd;stroke:none"
         d="m 827.598,1779.82 c -96.09,7.65 -172.059,-43.37 -193.887,-160.72 9.918,58.67 20.687,119.62 71.719,149.1 35.429,20.97 86.738,21.54 122.168,11.62" /><path
         id="path92"
         style="fill:#fad7c8;fill-opacity:1;fill-rule:evenodd;stroke:none"
         d="m 1040.77,1463.76 c 54.43,0 98.93,-58.69 98.93,-130.69 l 0,-3.11 -198.434,0 0,3.11 c 0,72 44.218,130.69 99.504,130.69" /><path
         id="path94"
         style="fill:#fdfdfd;fill-opacity:1;fill-rule:evenodd;stroke:none"
         d="m 901.867,1751.19 c 96.379,7.94 172.063,-43.09 193.893,-160.44 -9.64,58.68 -20.69,119.62 -71.72,149.1 -35.153,20.69 -86.743,21.26 -122.173,11.34" /><path
         id="path96"
         style="fill:#000000;fill-opacity:1;fill-rule:nonzero;stroke:none"
         d="m 1101.14,1333.36 25.23,0.28 c 1.13,0.85 9.92,-11.05 20.41,0.29 21.82,23.24 48.75,62.08 32.88,117.63 17.57,-61.79 -75.4,-116.22 -78.52,-118.2" /><path
         id="path98"
         style="fill:#000000;fill-opacity:1;fill-rule:nonzero;stroke:none"
         d="m 1062.88,1329.96 22.39,5.39 c 0.84,0.85 12.47,-7.94 18.43,4.25 11.61,25.51 22.39,65.76 -10.22,112.25 36.57,-51.87 -28.62,-119.62 -30.6,-121.89" /><path
         id="path100"
         style="fill:#000000;fill-opacity:1;fill-rule:nonzero;stroke:none"
         d="m 1000.51,1332.51 22.39,1.7 c 0.85,0.85 10.78,-9.64 18.15,1.13 15.02,22.11 31.74,58.4 7.37,106.87 26.92,-54.14 -45.64,-107.72 -47.91,-109.7" /><path
         id="path102"
         style="fill:#000000;fill-opacity:1;fill-rule:evenodd;stroke:none"
         d="m 939.852,1333.64 0,0 c 0,3.13 2.55,5.96 5.39,5.96 l 190.478,0 c 3.12,0 5.67,-2.83 5.67,-5.96 0,-3.11 -2.55,-5.38 -5.67,-5.38 l -190.478,0 c -2.84,0 -5.39,2.27 -5.39,5.38" /><path
         id="path104"
         style="fill:#fad7c8;fill-opacity:1;fill-rule:evenodd;stroke:none"
         d="m 277.109,1447.88 c -6.796,4.82 -17.57,19.84 -9.347,20.69 77.379,-14.74 168.937,44.51 237.258,49.04 26.07,-11.05 -4.258,-125.86 -33.168,-132.09 -85.039,-56.98 -151.653,-51.31 -194.743,62.36" /><path
         id="path106"
         style="fill:#000000;fill-opacity:1;fill-rule:nonzero;stroke:none"
         d="m 258.684,1455.54 c 2.55,-4.54 6.8,-9.65 10.769,-13.04 22.684,-58.39 51.883,-89.29 87.031,-98.36 35.141,-9.07 75.11,3.97 119.051,33.16 12.192,3.97 23.531,19.56 31.75,39.41 6.231,14.17 11.051,31.18 13.891,46.77 3.121,16.15 3.679,31.75 1.418,42.8 -2.27,9.35 -6.809,16.43 -14.18,19.56 l -3.969,0.57 c -28.91,-1.7 -60.941,-12.77 -94.109,-24.11 -47.34,-16.16 -97.223,-33.16 -140.883,-24.93 l -2.828,0.27 c -2.551,-0.57 -4.82,-1.41 -6.809,-2.82 l 0.289,0 c -3.691,-3.12 -4.82,-7.09 -4.25,-11.34 0.282,-2.55 1.411,-5.39 2.829,-7.94 m 23.531,-0.28 c -0.852,0.56 -1.988,1.7 -2.84,2.83 44.512,-4.25 91.852,11.91 136.629,27.21 30.902,10.49 60.66,20.7 86.461,22.96 0.851,-1.13 1.699,-3.12 2.269,-5.96 1.981,-8.78 1.129,-21.53 -1.418,-35.7 -2.55,-14.46 -7.089,-29.78 -12.761,-43.09 -6.52,-15.88 -14.168,-27.78 -20.692,-29.21 l -3.117,-1.41 c -40.25,-26.93 -75.68,-39.41 -105.73,-31.46 -29.762,7.64 -54.993,35.71 -75.403,89.57" /><path
         id="path108"
         style="fill:#e22228;fill-opacity:1;fill-rule:evenodd;stroke:none"
         d="m 1388.29,417.203 c -66.05,-3.398 -65.76,127.563 -142.3,161.57 -29.2,-28.339 -53.01,-64.339 -85.32,-64.628 -45.36,-15.59 -74.27,15.878 -104.88,35.441 -52.44,-113.391 -152.22,-183.121 -246.618,-162.711 24.949,-25.23 147.969,-130.109 185.101,-149.949 18.997,-10.492 63.777,-85.332 83.627,-95.531 79.93,-38.27 163.84,-26.36 230.17,41.101 15.59,15.02 -9.92,104.598 6.52,122.738 30.33,35.43 56.69,78.243 73.7,111.969" /><path
         id="path110"
         style="fill:#fdfdfd;fill-opacity:1;fill-rule:evenodd;stroke:none"
         d="m 1101.43,234.938 c -17.57,-2.551 -30.61,-18.993 -28.36,-35.719 1.71,-17 17.59,-29.192 34.88,-26.641 17.57,2.551 30.9,18.141 28.62,35.707 -1.69,17.012 -17.57,29.203 -35.14,26.653" /><path
         id="path112"
         style="fill:#fdfdfd;fill-opacity:1;fill-rule:evenodd;stroke:none"
         d="m 1050.12,237.773 c -8.79,-0.57 -15.02,-8.793 -13.61,-16.722 0.57,-7.938 7.94,-13.61 16.44,-11.91 7.94,0.57 14.18,8.5 13.61,16.441 -0.85,8.219 -8.79,13.891 -16.44,12.191" /><path
         id="path114"
         style="fill:#fdfdfd;fill-opacity:1;fill-rule:evenodd;stroke:none"
         d="m 1157.84,216.23 c -9.07,-1.98 -15.32,-9.921 -14.46,-18.14 0.85,-8.789 8.78,-14.461 17.85,-13.61 8.22,1.7 15.32,9.071 14.47,18.137 -1.43,8.512 -8.79,14.461 -17.86,13.613" /><path
         id="path116"
         style="fill:#000000;fill-opacity:1;fill-rule:evenodd;stroke:none"
         d="m 1262.43,367.883 c -21.26,-1.129 -34.02,46.769 -58.96,59.808 -9.35,-10.769 -17.01,-23.808 -27.5,-23.808 -14.45,-5.672 -23.81,5.949 -33.73,13.32 -16.72,-41.949 -48.75,-67.461 -79.37,-59.519 8.22,-9.364 48.47,-48.762 60.38,-56.411 6.24,-3.972 20.98,-32.043 27.49,-35.722 25.8,-14.457 53.01,-10.488 74.27,14.461 4.82,5.379 8.79,39.679 13.89,46.48 9.64,13.039 18.14,28.918 23.53,41.391" /><path
         id="path118"
         style="fill:#dc2c1f;fill-opacity:1;fill-rule:nonzero;stroke:none"
         d="m 1623.57,503.094 c 26.08,24.941 48.47,34.871 85.04,25.23 40.53,-10.769 66.61,-45.918 57.83,-78.801 -15.59,-59.25 -104.6,-99.5 -193.61,-139.75 -57.83,78.801 -115.65,157.602 -100.06,217.133 8.78,32.598 48.75,50.739 89,39.969 36.86,-9.641 51.31,-29.199 61.8,-63.781" /></g></g></svg>