<?xml version="1.0" encoding="UTF-8" standalone="no"?>
<svg
   xmlns:dc="http://purl.org/dc/elements/1.1/"
   xmlns:cc="http://creativecommons.org/ns#"
   xmlns:rdf="http://www.w3.org/1999/02/22-rdf-syntax-ns#"
   xmlns:svg="http://www.w3.org/2000/svg"
   xmlns="http://www.w3.org/2000/svg"
   viewBox="0 0 248.03751 248.03751"
   height="248.03751"
   width="248.03751"
   xml:space="preserve"
   version="1.1"
   id="svg2"><metadata
     id="metadata8"><rdf:RDF><cc:Work
         rdf:about=""><dc:format>image/svg+xml</dc:format><dc:type
           rdf:resource="http://purl.org/dc/dcmitype/StillImage" /></cc:Work></rdf:RDF></metadata><defs
     id="defs6" /><g
     transform="matrix(1.25,0,0,-1.25,0,248.0375)"
     id="g10"><g
       transform="scale(0.1,0.1)"
       id="g12"><path
         id="path14"
         style="fill:#51669c;fill-opacity:1;fill-rule:evenodd;stroke:none"
         d="m 572.766,971.176 c -12.192,-74.274 -66.051,-117.922 -66.051,-189.071 -0.281,-39.121 14.461,-37.132 26.648,-80.222 -54.14,-12.469 -88.16,-18.43 -72.57,-85.891 -24.66,-35.719 -15.02,-29.199 -7.938,-77.949 -18.992,-65.199 7.368,-125.859 49.04,-180.848 72.57,-95.25 161.007,-166.402 242.371,-207.222 41.097,-20.688 85.597,-32.598 126.699,-46.77 117.078,-40.5272 228.485,-59.8085 321.445,-35.7186 65.77,17.3008 134.93,77.1096 197.02,151.3706 54.13,65.489 66.32,92.981 85.61,131.528 35.7,43.09 107.7,134.93 135.48,217.422 28.36,84.758 -35.14,184.82 -98.64,239.808 -46.49,93.539 -92.13,140.879 -160.43,181.129 -76.25,45.078 -116.52,52.728 -168.66,42.808 -26.66,-5.1 -52.45,-18.42 -95.83,-26.35 L 790.184,965.223" /><path
         id="path16"
         style="fill:#344776;fill-opacity:1;fill-rule:evenodd;stroke:none"
         d="m 531.945,706.133 c 0.571,-1.129 0.852,-2.547 1.418,-4.25 -54.136,-12.469 -88.437,-18.43 -72.566,-85.891 -24.66,-35.719 -15.024,-29.199 -7.942,-77.949 -18.992,-65.199 7.372,-125.859 49.04,-180.848 72.57,-95.25 161.011,-166.402 242.359,-207.222 41.109,-20.688 85.609,-32.598 126.711,-46.77 117.07,-40.5272 228.485,-59.8085 321.445,-35.7186 65.77,17.3008 134.93,77.1096 197.02,151.3706 54.14,65.481 66.32,92.981 85.61,131.528 35.71,43.09 107.71,134.93 135.48,217.422 24.11,71.429 -17.57,153.64 -68.88,210.898 26.09,-49.609 43.66,-97.23 39.13,-116.219 -19.57,-82.492 -177.73,-234.711 -249.18,-278.929 -102.61,-63.219 -236.41,-85.891 -349.504,-77.961 -56.973,4.261 -109.981,16.449 -166.961,35.148 20.98,-23.808 94.391,-104.027 127.559,-99.777 80.496,10.211 73.976,7.66 159.316,11.629 76.82,3.398 173.48,23.808 254.25,67.742 32.05,17.578 92.98,74.84 134.66,117.637 38.27,39.121 62.07,64.07 54.43,45.922 -22.11,-51.301 -70.02,-103.461 -129.27,-149.379 -49.03,-37.993 -105.44,-71.723 -162.43,-97.512 -16.44,-7.371 -50.73,-24.102 -55.84,-17.578 -5.1,6.519 33.45,28.629 20.13,41.387 -5.68,5.382 -83.34,-30.899 -122.45,-39.118 -56.41,-11.91 -111.125,-7.941 -162.996,5.098 -169.519,43.371 -315.5,200.41 -423.5,303.883 112.532,-136.071 182.832,-251.723 288.282,-310.403 196.437,-108.847 423.784,-56.121 559.844,19.84 -0.86,-64.91 -127.84,-120.468 -188.22,-139.738 -138.89,-44.2227 -293.386,25.789 -379.554,64.91 -94.961,43.09 -167.25,90.988 -226.781,162.141 -47.899,57.539 -104.032,98.929 -90.418,179.719 26.359,-44.219 59.527,-104.879 114.519,-166.68 55.559,-62.082 115.09,-107.152 145.418,-125.57 -29.48,31.738 -44.789,61.218 -109.14,139.46 -65.758,79.938 -130.957,153.348 -141.161,192.188 -5.668,21.262 -16.726,17.859 -5.109,40.25 31.191,-24.66 43.941,-47.898 73.711,-73.699 38.551,-33.16 99.211,-84.192 155.621,-132.09 32.309,-27.219 69.449,-47.91 90.707,-64.07 17.293,-13.039 15.024,11.339 9.07,24.379 -1.988,4.82 -35.437,30.05 -82.488,66.902 -64.91,50.738 -144.57,124.16 -160.73,138.898 -39.399,36 -75.399,64.063 -77.379,91.84 -1.992,23.813 28.629,31.75 49.32,44.223 5.949,3.679 -4.25,15.308 2.84,18.418" /><path
         id="path18"
         style="fill:#344776;fill-opacity:1;fill-rule:evenodd;stroke:none"
         d="m 537.898,880.465 c -16.16,-30.899 -31.179,-60.942 -31.179,-98.36 -0.281,-39.121 14.738,-37.14 26.64,-80.218 l -9.632,-2.274 c 7.371,-20.41 17,-39.968 32.312,-56.976 31.469,-34.864 82.488,-44.5 124.438,-79.653 12.761,-10.488 22.961,-30.328 36,-40.539 37.14,-29.191 67.75,9.641 83.91,-63.781 5.672,-25.789 47.902,-65.758 52.16,-60.367 5.101,7.367 -4.258,27.777 -14.738,47.34 -9.641,18.418 -9.93,26.066 22.961,21.816 136.058,-16.719 174.61,-61.226 360.56,-33.449 113.67,17.012 233.86,58.68 278.93,138.621 32.32,57.539 30.62,120.75 17.86,173.191 -13.89,57.547 -72.57,147.411 -107.15,200.7 -17.86,15.589 -37.7,29.187 -59.53,42.23 -18.99,11.059 -35.71,20.134 -50.74,26.934 l 7.94,-7.66 c 67.18,-54.133 138.61,-127.836 172.06,-213.723 34.59,-88.731 30.05,-186.813 -47.34,-254.274 -15.87,-13.886 -35.15,-26.648 -57.54,-37.418 -24.66,-12.191 -8.5,40.25 5.67,79.942 23.81,66.047 -8.22,41.668 -54.14,4.816 -24.95,-20.129 -42.24,-37.988 -66.62,-51.308 -109.13,-60.09 -250.01,-73.129 -372.472,-35.719 -187.371,57.258 -325.418,133.801 -360,260.789 -9.641,36.281 -1.418,74.84 9.64,119.34" /><path
         id="path20"
         style="fill:#344776;fill-opacity:1;fill-rule:evenodd;stroke:none"
         d="m 1382.62,799.68 c -16.72,-71.153 2.83,-183.684 -15.31,-250.024 9.64,30.051 24.38,94.961 27.22,125.012 10.2,109.699 12.18,206.078 -73.71,271.559 11.63,-48.469 39.41,-87.868 29.2,-117.637 -22.96,-67.461 -116.22,-101.192 -256.53,-130.391 -114.517,-24.09 -217.42,-31.461 -291.689,1.418 -108,47.903 -193.321,153.629 -230.168,264.473 -2.84,-13.891 -7.09,-26.652 -12.192,-38.844 15.59,-57.258 54.422,-123.297 106.012,-176.308 120.481,-124.442 290.27,-155.911 437.387,-130.11 134.65,23.809 193.61,94.961 279.78,180.852" /><path
         id="path22"
         style="fill:#172952;fill-opacity:1;fill-rule:evenodd;stroke:none"
         d="m 1382.62,799.68 c -16.72,-71.153 0.57,-183.121 -15.31,-250.024 -7.08,-30.886 18.43,113.114 21.26,143.153 10.21,109.699 -5.67,182.55 -67.75,253.418 24.95,-39.68 51.6,-94.11 41.39,-123.59 -22.96,-67.457 -121.89,-129.828 -262.2,-159.309 -114.518,-23.808 -243.217,-3.68 -317.197,29.199 -108,47.911 -173.762,143.153 -210.622,253.981 -2.828,-13.891 -3.679,3.41 -8.777,-8.781 15.59,-57.258 59.809,-131.25 111.117,-184.25 120.75,-124.45 277.223,-138.618 424.339,-112.821 134.65,23.813 197.58,73.133 283.75,159.024" /><path
         id="path24"
         style="fill:#172952;fill-opacity:1;fill-rule:evenodd;stroke:none"
         d="m 533.363,701.883 c -54.14,-12.473 -88.441,-18.43 -72.57,-85.891 -24.66,-35.719 -15.02,-29.199 -7.93,-77.949 -19,-65.199 7.371,-125.859 49.039,-180.852 72.563,-95.25 161,-166.398 242.36,-207.218 41.383,-20.692 85.601,-32.59 126.711,-46.77 117.07,-40.5311 228.467,-59.8124 321.447,-35.7108 65.76,17.2891 134.92,77.1018 197,151.3708 54.14,65.481 66.33,92.969 85.61,131.52 35.72,43.09 107.72,134.93 135.5,217.418 18.7,55.84 -2.27,118.211 -37.14,169.801 22.68,-37.7 30.05,-56.411 25.51,-75.411 -20.12,-80.5 -184.25,-264.75 -255.68,-308.687 -102.62,-63.211 -248.88,-77.953 -361.986,-69.731 -56.972,3.969 -86.453,27.5 -143.711,46.2 21.258,-23.813 100.059,-62.36 133.231,-58.11 80.496,10.207 48.466,-9.07 133.786,-5.383 76.82,3.68 167.25,30.051 248.32,74.274 97.51,53.289 204.94,213.156 258.52,301.887 4.81,-95.528 -100.63,-255.688 -196.73,-329.387 -41.1,-31.461 -101.2,-80.5 -176.88,-102.613 -17.58,-5.387 -49.89,-6.52 -54.99,0 -5.11,6.8 48.47,37.41 35.15,50.172 -5.67,5.667 -57.26,-53.86 -96.38,-62.083 -56.41,-11.91 -161.288,0.852 -213.167,13.891 -169.512,43.371 -297.352,209.762 -399.399,318.051 112.539,-136.07 190.207,-232.16 295.661,-290.84 113.378,-62.93 259.075,-69.73 368.775,-50.172 142.87,25.512 240.38,95.813 287.15,147.973 -15.02,-21.551 -51.3,-83.063 -98.93,-134.93 C 1319.69,156.781 1266.4,104.344 1204.6,85.9102 1102.84,55.582 967.633,68.3438 788.484,149.41 c -94.961,43.082 -189.64,108.563 -249.171,179.711 -47.899,57.551 -96.661,112.82 -75.68,197.582 26.359,-44.223 79.371,-115.371 134.359,-176.883 55.281,-62.367 103.75,-116.507 134.082,-134.929 -29.48,32.031 -64.351,58.679 -128.691,136.91 -65.481,79.941 -134.93,164.41 -145.141,203.25 -5.379,21.262 -3.969,34.293 7.66,56.972 31.461,-24.66 58.961,-64.062 89,-89.863 38.551,-33.156 96.95,-79.93 153.36,-127.84 4.25,-3.679 80.5,-64.058 94.109,-66.898 5.102,-1.129 -39.969,37.988 -87.027,74.84 -64.629,50.449 -142.301,123.301 -158.449,138.051 -39.403,36 -87.313,77.66 -89.293,105.73 -2.27,28.34 16.441,33.16 54.421,50.738 3.692,1.699 7.372,3.403 11.34,5.102" /><path
         id="path26"
         style="fill:#172952;fill-opacity:1;fill-rule:evenodd;stroke:none"
         d="m 537.898,880.465 c -16.16,-30.899 -31.179,-60.942 -31.179,-98.36 -0.281,-39.121 14.738,-37.14 26.64,-80.218 37.707,-75.692 64.348,-61.231 146.84,-130.684 12.758,-10.488 26.93,-36.566 39.969,-46.769 37.129,-29.2 71.711,30.613 87.59,-43.09 5.672,-25.789 40.531,-88.438 44.789,-83.047 5.101,7.367 -13.609,34.578 -23.82,54.137 -9.918,18.421 -13.598,37.703 19.562,33.453 136.07,-16.731 189.641,-66.051 375.591,-38.274 113.67,17.012 199.28,33.453 244.07,113.391 32.31,57.543 36,139.18 23.24,191.621 -13.89,57.539 -45.64,140.602 -80.22,193.891 -17.86,15.589 -37.7,29.187 -59.53,42.23 45.64,-41.383 62.08,-63.492 112.54,-193.043 34.58,-88.719 25.51,-195.59 -45.92,-269 -15.31,-15.879 -33.73,-32.039 -56.13,-43.09 -24.38,-11.91 -12.47,54.422 1.99,94.114 23.81,66.046 19.55,55.558 -9.64,4.25 -15.88,-27.493 -52.44,-58.114 -76.82,-71.711 -109.13,-60.102 -266.17,-57.551 -388.351,-20.129 -187.652,57.258 -337.601,146.269 -371.902,273.258 -9.918,36.281 9.633,72.57 20.691,117.07" /><path
         id="path28"
         style="fill:#15274d;fill-opacity:1;fill-rule:evenodd;stroke:none"
         d="m 1210.84,848.434 c 27.5,32.031 47.62,44.789 49.89,80.789 2.27,41.382 -19.84,68.312 -42.8,93.257 -59.25,64.91 -174.9,85.9 -258.809,81.35 -143.707,-7.37 -390.039,-33.72 -383.519,-139.178 8.5,-136.629 236.972,-277.507 483.018,-227.339 70.87,14.46 94.11,43.371 152.22,111.121" /><path
         id="path30"
         style="fill:#5f77b3;fill-opacity:1;fill-rule:evenodd;stroke:none"
         d="m 661.203,814.699 c 82.203,-80.5 115.094,-88.437 169.231,-108 88.441,-32.308 226.496,-17.289 334.766,22.114 136.64,49.886 198.71,79.089 156.48,188.218 -25.52,66.61 -3.98,47.34 25.23,6.239 92.41,-129.829 76.82,-203.809 46.2,-344.411 -7.36,-32.879 -11.34,-42.519 -8.22,-45.07 3.68,-2.547 15.31,4.82 25.22,39.113 36.85,123.309 34.59,239.528 -43.36,350.368 -44.23,63.21 -80.79,42.23 -124.16,94.67 12.48,-31.178 21.82,-47.62 27.5,-72.557 8.21,-37.141 -10.5,-64.07 -27.79,-92.703 -19.26,-30.891 -39.67,-73.981 -105.16,-102.039 -72.57,-31.18 -203.527,-55.559 -313.226,-17.86 -47.34,16.16 -77.098,9.352 -162.711,81.918" /><path
         id="path32"
         style="fill:#5f77b3;fill-opacity:1;fill-rule:evenodd;stroke:none"
         d="M 563.41,861.473 C 549.801,806.191 558.02,759.422 580.422,720.305 700.32,511.395 1013.27,508.273 1135.44,521.031 c 108.57,11.621 174.05,60.942 203.81,112.821 31.47,54.421 22.68,86.453 23.53,109.98 -44.79,-54.141 -102.9,-96.09 -173.2,-121.891 C 868.129,504.305 648.172,689.973 563.41,861.473" /><path
         id="path34"
         style="fill:#5f77b3;fill-opacity:1;fill-rule:evenodd;stroke:none"
         d="M 695.504,458.672 C 894.492,300.5 1040.77,293.129 1223.88,352.09 c 113.39,36.558 163,81.64 244.64,155.051 -90.72,-48.75 -156.2,-76.532 -259.95,-95.813 -56.98,-10.769 -115.37,-10.769 -194.17,0 -74.545,9.922 -140.314,37.992 -144.845,35.152 -21.832,-13.609 33.16,-72.851 28.058,-74.269 -10.199,-2.551 -19.558,-3.402 -28.058,-2.262 -55.563,6.52 -57.551,107.153 -101.2,125.571 -67.75,28.351 -60.66,13.609 -108,53.859 -46.492,39.973 -115.941,76.82 -125.292,100.633 -17.86,1.976 -34.02,-11.91 -25.508,-32.032 15.59,-36.57 147.968,-132.378 185.949,-159.308" /><path
         id="path36"
         style="fill:#5f77b3;fill-opacity:1;fill-rule:evenodd;stroke:none"
         d="M 483.473,474.543 C 524.574,331.676 683.883,204.113 822.215,147.715 996.543,76.5625 1241.74,84.2148 1335,214.043 1170.87,127.863 924.824,104.055 738.305,254.004 c -64.063,51.309 -117.922,126.148 -192.75,215.719 72.566,-96.66 128.117,-185.668 216.847,-273.539 -108,36.851 -214.019,174.332 -278.929,278.359" /><path
         id="path38"
         style="fill:#0f1c39;fill-opacity:1;fill-rule:evenodd;stroke:none"
         d="m 1210.84,848.434 c 27.5,32.031 47.62,44.789 49.89,80.789 0.85,16.152 -1.98,30.043 -7.09,42.519 -8.78,-13.609 -22.11,-25.797 -37.7,-43.937 -58.11,-68.032 -81.35,-96.942 -152.22,-111.121 -223.646,-45.641 -432.849,66.621 -475.368,189.926 -9.071,-12.477 -13.887,-26.368 -12.75,-41.958 8.5,-136.629 236.972,-277.507 483.018,-227.339 70.87,14.46 94.11,43.371 152.22,111.121" /><path
         id="path40"
         style="fill:#344776;fill-opacity:1;fill-rule:evenodd;stroke:none"
         d="m 1297.87,991.016 c 54.14,-35.149 81.35,-43.09 109.13,-107.719 22.4,-51.59 35.72,-98.359 39.97,-143.43 7.09,-78.801 -13.6,-152.793 -64.91,-239.812 90.14,32.031 140.6,129.261 133.23,221.672 -5.96,75.121 -57.26,136.058 -102.33,193.597 -42.52,54.711 -66.33,60.102 -125.86,95.246 l -32.32,21.27 c -15.87,2.27 -25.22,3.39 -30.04,3.39 17.57,-9.63 31.74,-17.28 73.13,-44.214" /><path
         id="path42"
         style="fill:#000000;fill-opacity:1;fill-rule:nonzero;stroke:none"
         d="m 633.426,1170.17 1.98,10.77 c 5.961,-1.14 9.93,-6.8 8.789,-12.75 -1.129,-5.96 -6.8,-9.93 -12.75,-8.8 l 1.981,10.78 z m -37.418,12.76 c 12.476,0.85 25.797,0.28 39.398,-1.99 l -3.961,-21.55 c -11.91,1.99 -23.527,2.56 -34.3,1.71 l -1.137,21.83 z m -57.262,-18.43 c 15.309,10.77 34.871,17.01 57.262,18.43 l 1.137,-21.83 c -18.149,-1.14 -34.02,-5.96 -45.637,-14.46 l -12.762,17.86 z m -29.762,-48.2 c 3.403,20.7 14.172,36.86 29.762,48.2 l 12.762,-17.86 c -11.063,-7.93 -18.434,-19.27 -20.692,-33.73 l -21.832,3.39 z m 10.774,-1.69 -10.774,1.69 c 1.133,5.96 6.801,10.22 12.75,9.08 5.961,-0.85 9.934,-6.52 8.793,-12.47 l -10.769,1.7 z m -11.621,-18.72 c -0.571,7.09 0,13.9 0.847,20.41 l 21.543,-3.39 c -0.562,-4.54 -0.851,-9.93 -0.562,-15.59 l -21.828,-1.43 z M 328.707,935.457 c 89.848,5.668 187.078,39.688 179.43,160.433 l 21.828,1.43 C 538.746,958.984 430.188,919.867 329.836,913.625 l -1.129,21.832 z m -80.789,1.418 c 24.09,-1.988 52.156,-3.117 80.789,-1.418 l 1.129,-21.832 c -30.051,-1.699 -59.238,-0.848 -84.191,1.422 l 2.273,21.828 z m -55.563,7.652 c 11.903,-2.269 31.75,-5.382 55.563,-7.652 l -2.273,-21.828 c -24.938,2.269 -45.348,5.668 -58.11,8.219 l 4.82,21.261 z m -5.097,-9.07 c -0.852,-5.102 3.109,9.641 5.097,9.07 l -4.82,-21.261 c -15.308,3.121 -22.68,10.492 -21.539,16.16 l 21.262,-3.969 z m -10.774,1.988 10.774,-1.988 c -1.141,-5.949 -6.813,-9.922 -12.762,-8.789 -5.949,1.137 -9.922,6.809 -8.5,12.758 l 10.488,-1.981 z m 140.59,258.515 C 259.258,1146.07 213.336,1062.73 187.258,935.457 l -21.262,3.969 c 27.211,132.664 75.399,219.964 136.91,272.984 l 14.168,-16.45 z m 236.981,58.4 c -87.867,12.75 -170.649,-1.13 -236.981,-58.4 l -14.168,16.45 c 71.719,62.07 160.719,77.38 254.551,63.48 l -3.402,-21.53 z m 79.09,-30.9 c -8.508,13.61 -32.321,23.81 -79.09,30.9 l 3.402,21.53 c 53.859,-7.93 82.211,-21.53 94.109,-40.52 l -18.421,-11.91 z m -9.071,-48.19 c 11.332,20.12 16.442,36.57 9.071,48.19 l 18.421,11.91 c 12.758,-20.14 6.801,-43.94 -8.789,-70.59" /><path
         id="path44"
         style="fill:#863a1f;fill-opacity:1;fill-rule:nonzero;stroke:none"
         d="m 633.426,1170.17 c 26.648,46.49 22.679,80.22 -77.668,94.96 -169.512,24.94 -321.731,-47.62 -379.274,-327.685 -0.566,-3.41 357.442,-78.238 342.704,159.015 -3.68,57.55 48.757,84.48 114.238,73.71" /><path
         id="path46"
         style="fill:#da5840;fill-opacity:1;fill-rule:nonzero;stroke:none"
         d="m 261.238,1034.67 c 18.707,70.02 129.828,161.86 272.981,163.28 -173.774,-85.33 -94.114,-217.712 -272.981,-163.28" /><path
         id="path48"
         style="fill:#4b1d17;fill-opacity:1;fill-rule:nonzero;stroke:none"
         d="m 546.402,1184.05 c -150.8,3.68 -253.699,-90.42 -311.808,-192.753 43.648,141.743 247.457,281.473 311.808,192.753" /><path
         id="path50"
         style="fill:#000000;fill-opacity:1;fill-rule:nonzero;stroke:none"
         d="m 1298.43,1410.83 -8.22,7.09 c -3.97,-4.54 -3.4,-11.34 1.13,-15.31 4.54,-3.97 11.34,-3.4 15.31,1.13 l -8.22,7.09 z m 22.68,35.43 c -10.77,-7.65 -20.98,-17 -30.9,-28.34 l 16.44,-14.18 c 8.8,9.92 17.87,18.15 26.93,24.66 l -12.47,17.86 z m 54.71,20.98 c -18.14,-1.13 -36.85,-8.5 -54.71,-20.98 l 12.47,-17.86 c 14.46,10.21 29.48,16.16 43.37,17.01 l -1.13,21.83 z m 51.88,-17.58 c -15.32,13.33 -33.18,18.71 -51.88,17.58 l 1.13,-21.83 c 13.04,0.85 25.51,-3.12 36.28,-12.19 l 14.47,16.44 z m 14.16,-15.87 c -4.53,6.24 -9.07,11.62 -14.16,15.87 l -14.47,-16.44 c 3.7,-3.4 7.38,-7.37 10.77,-12.19 l 17.86,12.76 z m 233.29,-12.76 c -72.27,-51.02 -165.82,-82.77 -233.29,12.76 L 1424,1421.03 c 77.68,-109.98 182.84,-75.11 263.63,-17.85 l -12.48,17.85 z m 63.5,53.3 c -17.86,-17.3 -39.68,-36.29 -63.5,-53.3 l 12.48,-17.85 c 24.94,17.57 47.62,37.41 66.33,55.56 l -15.31,15.59 z m 40.55,43.65 c -8.8,-10.49 -22.68,-26.36 -40.55,-43.65 l 15.31,-15.59 c 18.42,18.14 33.17,34.58 41.95,45.35 l -16.71,13.89 z m 8.21,-7.09 -8.21,7.09 c -3.98,-4.82 -3.41,-11.62 1.41,-15.31 4.53,-3.97 11.34,-3.12 15.3,1.42 l -8.5,6.8 z m 2.83,4.82 c 3.69,-3.12 -9.06,4.82 -11.04,2.27 l 16.71,-13.89 c 11.06,13.32 12.77,24.94 8.22,28.63 l -13.89,-17.01 z M 1527.2,1634.2 c 75.95,-1.7 163.26,-36.57 263.04,-118.49 l 13.89,17.01 c -103.75,85.04 -195.59,121.61 -276.38,123.31 l -0.55,-21.83 z m -219.98,-107.15 c 60.09,66.33 132.94,108.85 219.98,107.15 l 0.55,21.83 c -94.11,1.98 -172.62,-43.37 -236.69,-114.52 l 16.16,-14.46 z m -41.95,-74.55 c -1.71,15.87 10.2,39.12 41.95,74.55 l -16.16,14.46 c -36.57,-40.54 -49.88,-69.45 -47.34,-91.56 l 21.55,2.55 z m 37.13,-31.47 c -20.97,8.23 -35.43,17.58 -37.13,31.47 l -21.55,-2.55 c 2.55,-24.1 22.11,-38.27 50.74,-49.32" /><path
         id="path52"
         style="fill:#863a1f;fill-opacity:1;fill-rule:nonzero;stroke:none"
         d="m 1298.43,1410.83 c -49.89,18.99 -67.46,47.62 0.86,123.31 115.64,128.41 278.64,170.08 498.04,-9.92 2.55,-2.27 -227.9,-289.99 -364.54,-96.67 -33.16,46.78 -90.41,33.74 -134.36,-16.72" /><path
         id="path54"
         style="fill:#da5840;fill-opacity:1;fill-rule:nonzero;stroke:none"
         d="m 1670.91,1544.91 c -58.11,42.23 -201.27,42.23 -312.95,-48.77 187.66,45.65 208.63,-108 312.95,48.77" /><path
         id="path56"
         style="fill:#4b1d17;fill-opacity:1;fill-rule:nonzero;stroke:none"
         d="m 1357.11,1477.73 c 114.52,99.5 252.85,92.98 361.42,51.02 -121.89,81.64 -367.09,58.96 -361.42,-51.02" /><path
         id="path58"
         style="fill:#000000;fill-opacity:1;fill-rule:nonzero;stroke:none"
         d="m 1291.06,1515.14 -7.09,8.22 c -4.82,-3.97 -5.1,-11.05 -1.13,-15.59 3.97,-4.54 10.77,-4.82 15.31,-0.85 l -7.09,8.22 z m 138.33,169.23 c -37.13,-59.81 -87.59,-109.99 -145.42,-161.01 l 14.18,-16.44 c 59.52,52.44 111.4,104.03 149.67,166.11 l -18.43,11.34 z m 66.9,219.97 c -5.95,-90.43 -30.05,-160.16 -66.9,-219.97 l 18.43,-11.34 c 38.83,62.65 64.06,135.5 70.3,230.17 l -21.83,1.14 z m 7.08,13.04 c 4.26,-0.29 -6.51,-3.12 -7.08,-13.04 l 21.83,-1.14 c 1.7,25.51 -2.84,35.15 -13.04,36 l -1.71,-21.82 z m -4.53,-8.79 c 3.97,4.82 1.98,8.79 4.53,8.79 l 1.71,21.82 c -8.51,0.57 -14.74,-7.08 -22.96,-16.72 l 16.72,-13.89 z m -7.37,-8.79 c 2.27,2.84 4.82,5.95 7.37,8.79 l -16.72,13.89 c -2.27,-2.55 -4.54,-5.1 -7.09,-8.22 l 16.44,-14.46 z m -184.54,-161.57 c 73.42,53.85 141.45,113.38 184.54,161.57 l -16.44,14.46 c -41.95,-47.06 -108.85,-105.45 -180.85,-158.46 l 12.75,-17.57 z m -201.82,-122.18 c 61.51,27.22 134.08,72.29 201.82,122.18 l -12.75,17.57 c -66.62,-49.04 -137.48,-93.26 -197.58,-119.9 l 8.51,-19.85 z m -4.25,9.92 5.66,9.36 c -5.38,3.12 -11.9,1.42 -15.02,-3.69 -3.12,-5.38 -1.42,-12.19 3.69,-15.02 l 5.67,9.35 z m 68.88,-21.54 c -23.53,10.49 -45.92,20.69 -63.22,30.9 l -11.33,-18.71 c 18.7,-11.05 41.67,-21.54 65.48,-32.03 l 9.07,19.84 z m 130.11,-83.05 c -25.8,36.28 -79.94,60.66 -130.11,83.05 l -9.07,-19.84 c 47.33,-21.26 98.93,-44.51 121.32,-75.97" /><path
         id="path60"
         style="fill:#dcdcd6;fill-opacity:1;fill-rule:nonzero;stroke:none"
         d="m 1291.06,1515.14 c -36,50.17 -134.65,77.95 -190.2,110.83 126.7,55.85 300.47,189.08 382.39,281.2 17.29,19.28 26.64,37.14 24.09,-3.4 -12.47,-185.1 -98.64,-285.17 -216.28,-388.63" /><path
         id="path62"
         style="fill:#e8e8e1;fill-opacity:1;fill-rule:nonzero;stroke:none"
         d="m 1213.39,1568.43 c -32.87,26.65 -79.37,37.98 -111.69,56.98 l -0.56,0.56 c 126.72,56.14 300.2,189.36 382.11,281.21 9.93,11.34 17.57,22.11 21.27,20.97 -54.72,-161.29 -179.73,-269.01 -291.13,-359.72" /><path
         id="path64"
         style="fill:#000000;fill-opacity:1;fill-rule:nonzero;stroke:none"
         d="m 530.813,1239.9 0.277,10.77 c 6.242,0 10.781,-5.1 10.492,-11.05 -0.281,-6.24 -5.383,-11.06 -11.34,-10.78 l 0.571,11.06 z m -212.883,42.24 c 66.05,-22.68 136.34,-29.2 213.16,-31.47 l -0.848,-21.83 c -78.801,2.27 -150.801,9.08 -219.679,32.6 l 7.367,20.7 z m -189.071,126.99 c 61.231,-66.05 123.301,-104.6 189.071,-126.99 l -7.367,-20.7 c -68.883,23.53 -134.083,63.78 -197.864,132.95 l 16.16,14.74 z m -13.609,5.67 c -3.117,-3.12 7.09,1.42 13.609,-5.67 l -16.16,-14.74 c -17.2888,18.71 -19.8396,29.19 -12.187,36.28 l 14.738,-15.87 z m -7.367,7.93 7.367,-8.22 c -4.527,-3.96 -11.34,-3.68 -15.3086,0.57 -4.25,4.54 -3.9609,11.62 0.5706,15.59 l 7.371,-7.94 z m 16.726,-11.9 c -6.238,1.13 -7.367,5.39 -9.359,3.68 l -14.738,16.16 c 6.238,5.67 15.59,3.97 28.058,1.7 l -3.961,-21.54 z m 1.981,10.77 -2.27,-10.77 c -5.668,1.13 -9.64,6.8 -8.5,12.75 1.129,5.96 6.801,9.93 12.75,8.79 l -1.98,-10.77 z m 9.07,-12.76 c -4.25,0.86 -7.937,1.42 -11.34,1.99 l 4.25,21.54 c 3.41,-0.56 7.09,-1.13 10.493,-1.7 l -3.403,-21.83 z m 243.5,-6.8 c -90.43,-5.38 -180,-2.83 -243.5,6.8 l 3.403,21.83 c 62.078,-9.64 150.238,-11.9 238.957,-6.8 l 1.14,-21.83 z m 232.442,35.15 c -64.629,-18.42 -148.821,-30.05 -232.442,-35.15 l -1.14,21.83 c 82.21,5.1 164.703,16.44 227.91,34.58 l 5.672,-21.26 z m -2.84,10.49 -10.199,3.68 c 1.98,5.96 8.218,8.79 13.886,6.81 5.672,-1.99 8.793,-8.22 6.524,-14.18 l -10.211,3.69 z m -39.969,-60.66 c 11.629,22.96 22.68,45.07 29.77,64.34 l 20.41,-7.37 c -7.371,-20.12 -18.711,-43.08 -30.621,-66.61 l -19.559,9.64 z M 519.75,1239.05 c -2.551,44.5 24.383,98.36 49.043,147.97 l 19.559,-9.64 c -23.52,-47.05 -49.039,-98.08 -46.77,-136.91" /><path
         id="path66"
         style="fill:#dcdcd6;fill-opacity:1;fill-rule:nonzero;stroke:none"
         d="m 530.813,1239.9 c -3.68,61.8 55.558,146.83 77.949,207.78 -133.231,-37.98 -350.641,-46.49 -471.403,-27.78 -25.507,3.97 -43.9371,11.34 -16.437,-18.14 125.008,-135.21 254.269,-157.61 409.891,-161.86" /><path
         id="path68"
         style="fill:#e8e8e1;fill-opacity:1;fill-rule:nonzero;stroke:none"
         d="m 557.457,1330.89 c 9.07,41.67 37.981,80.5 51.02,115.65 l 0,1.14 c -132.942,-37.99 -350.641,-46.49 -471.11,-27.78 -15.031,2.27 -27.219,5.67 -29.769,2.55 143.148,-89.86 307.281,-92.98 449.859,-91.56" /><path
         id="path70"
         style="fill:#000000;fill-opacity:1;fill-rule:nonzero;stroke:none"
         d="m 1610.24,866.293 -7.94,7.367 c 3.97,4.543 10.77,4.82 15.31,0.852 4.54,-3.969 4.82,-10.77 0.85,-15.309 l -8.22,7.09 z M 1497.7,849.281 c 50.46,-5.949 75.12,-8.789 104.6,24.379 l 16.16,-14.457 c -37.12,-41.672 -65.48,-38.262 -123.58,-31.742 l 2.82,21.82 z m -201.25,1.699 c 96.66,9.922 157.89,3.122 201.25,-1.699 l -2.82,-21.82 c -42.52,4.812 -102.34,11.621 -196.45,1.98 l -1.98,21.539 z m -82.77,-12.75 c 27.5,5.672 55,9.922 82.77,12.75 l 1.98,-21.539 c -26.93,-2.839 -53.86,-7.089 -80.79,-12.468 l -3.96,21.257 z m -81.93,-19.847 c 26.65,7.66 54.14,14.461 81.93,19.847 l 3.96,-21.257 c -26.64,-5.391 -53.28,-12.192 -80.21,-19.563 l -5.68,20.973 z m 2.84,-10.481 -4.54,9.918 c 5.67,2.551 11.91,0.282 14.47,-5.386 2.54,-5.383 0,-11.903 -5.39,-14.454 l -4.54,9.922 z m -87.03,-31.75 c 27.23,15.02 54.71,28.911 82.49,41.668 l 9.08,-19.84 c -27.79,-12.757 -54.72,-26.367 -81.08,-41.109 l -10.49,19.281 z m -78.517,-49.039 c 24.949,17.571 51.317,33.731 78.517,49.039 l 10.49,-19.281 c -26.08,-14.449 -51.59,-30.328 -76.527,-47.617 l -12.48,17.859 z m -68.027,-74.55 c 15.879,23.238 34.867,51.019 68.027,74.55 l 12.48,-17.859 c -29.769,-20.981 -47.628,-47.051 -62.371,-68.883 l -18.136,12.192 z m -36.571,-40.25 c 13.328,5.949 23.821,21.539 36.571,40.25 l 18.136,-12.192 c -14.738,-21.539 -26.929,-39.398 -45.918,-47.91 l -8.789,19.852 z m -154.769,-70.59 154.769,70.59 8.789,-19.852 -154.769,-70.578 -8.789,19.84 z m 4.258,-9.922 3.679,10.211 c 5.672,-1.699 8.789,-7.942 6.801,-13.61 -1.98,-5.949 -8.219,-9.07 -13.891,-7.089 l 3.411,10.488 z M 548.676,630.73 c 46.476,-41.097 108.277,-68.597 168.937,-88.718 l -7.09,-20.699 c -62.929,20.98 -127.269,49.609 -176.308,92.98 l 14.461,16.437 z m -76.543,167.813 c 0.281,-73.699 31.18,-127.563 76.543,-167.813 l -14.461,-16.437 c -49.891,43.937 -83.621,103.18 -83.91,183.969 l 21.828,0.281 z m 17.012,134.93 c -9.36,-62.082 -17.012,-111.969 -17.012,-134.93 l -21.828,-0.281 c 0,24.66 7.66,75.398 17.289,138.051 l 21.551,-2.84 z m 35.148,364.537 c 3.973,-106.87 -18.43,-254.55 -35.148,-364.537 l -21.551,2.84 c 16.449,109.127 38.558,255.677 34.871,360.847 l 21.828,0.85 z m -79.938,146.55 c 55.559,1.98 76.821,-59.25 79.938,-146.55 l -21.828,-0.85 c -2.832,74.26 -18.141,126.99 -57.539,125.57 l -0.571,21.83 z m 0.278,-11.06 11.062,0.57 c 0,-5.95 -4.543,-11.06 -10.769,-11.34 -5.961,-0.28 -11.063,4.25 -11.34,10.21 l 11.047,0.56 z m 13.609,20.41 c -1.976,-5.38 -2.828,-11.9 -2.547,-19.84 l -22.109,-1.13 c -0.281,10.77 1.129,20.12 3.969,28.34 l 20.687,-7.37 z m -10.199,3.69 10.199,-3.69 c -1.976,-5.67 -8.219,-8.5 -14.168,-6.52 -5.672,1.99 -8.511,8.22 -6.519,13.89 l 10.488,-3.68 z m 22.109,11.62 c -5.386,-3.4 -9.359,-8.5 -11.91,-15.31 l -20.687,7.37 c 4.25,11.34 11.34,20.41 20.968,26.36 l 11.629,-18.42 z m 21.543,6.24 c -8.511,-0.57 -15.882,-2.56 -21.543,-6.24 l -11.629,18.42 c 9.071,5.96 20.129,9.08 32.602,9.36 l 0.57,-21.54 z m 34.297,-6.52 c -12.469,4.53 -24.097,6.8 -34.297,6.52 l -0.57,21.54 c 12.758,0.57 27.5,-1.99 42.52,-7.37 l -7.653,-20.69 z m 3.973,10.48 9.07,-5.95 c -3.402,-5.1 -10.211,-6.52 -15.031,-3.4 -5.102,3.4 -6.52,10.2 -3.109,15.02 l 9.07,-5.67 z m 311.238,105.17 c -46.199,8.79 -203.808,39.4 -302.168,-111.12 l -18.14,11.62 c 106.3,163 274.96,130.4 324.558,121.04 l -4.25,-21.54 z m 15.313,-2.27 c -3.121,0 -8.223,0.85 -15.313,2.27 l 4.25,21.54 c 5.672,-1.13 9.641,-1.98 10.211,-1.98 l 0.852,-21.83 z m -0.571,11.06 6.52,-8.79 c -4.82,-3.69 -11.621,-2.84 -15.313,1.98 -3.679,4.82 -2.547,11.91 2.274,15.31 l 6.519,-8.5 z m 13.61,-0.57 c -3.121,-3.97 -5.11,-6.8 -7.09,-8.22 l -13.039,17.29 c 0.847,0.57 0.566,1.42 2.547,3.97 l 17.582,-13.04 z m 300.185,117.35 c -173.474,51.59 -276.947,-86.45 -300.185,-117.35 l -17.582,13.04 c 24.953,33.16 135.781,181.13 324.297,125.29 l -6.53,-20.98 z m 3.4,10.49 9.35,-5.38 c -3.11,-5.39 -9.63,-7.09 -15.02,-4.26 -5.09,3.12 -7.09,9.64 -3.97,15.03 l 9.64,-5.39 z m 33.74,23.53 c -8.79,-6.52 -17.02,-16.16 -24.39,-28.91 l -18.99,10.77 c 8.79,15.31 19.29,27.21 30.34,35.71 l 13.04,-17.57 z m 19.27,8.5 c -6.52,-0.85 -13.04,-3.68 -19.27,-8.5 l -13.04,17.57 c 9.34,7.09 19.55,11.34 29.75,12.76 l 2.56,-21.83 z m 17.3,-3.68 c -5.68,3.4 -11.64,4.53 -17.3,3.68 l -2.56,21.83 c 10.5,1.13 20.98,-0.85 31.2,-6.52 L 1243.45,1749 Z m 14.73,-13.61 c -4.82,6.24 -9.64,10.77 -14.73,13.61 l 11.34,18.99 c 7.36,-4.25 14.44,-10.77 20.96,-19.27 l -17.57,-13.33 z m 8.78,6.52 -6.8,8.51 c 4.54,3.96 11.63,3.11 15.31,-1.42 3.68,-4.82 2.83,-11.62 -1.7,-15.59 l -6.81,8.5 z m 34.02,-168.66 c -59.53,74.27 -87.59,139.75 -40.82,177.17 l 13.61,-17.01 c -33.73,-26.93 -7.37,-81.92 44.22,-146.27 l -17.01,-13.89 z m 214.58,-217.42 c -73.97,68.89 -158.45,147.69 -214.58,217.42 l 17.01,13.89 c 55.28,-68.6 139.19,-146.83 212.6,-215.15 l -15.03,-16.16 z m 147.12,-151.65 c -16.44,30.05 -77.09,86.46 -147.12,151.65 l 15.03,16.16 c 71.43,-66.61 133.22,-124.16 151.37,-157.04 l -19.28,-10.77 z m 13.89,-164.69 c 14.17,56.97 13.89,114.23 -13.89,164.69 l 19.28,10.77 c 30.9,-56.12 31.18,-118.49 15.88,-180.57 l -21.27,5.11 z m -75.39,-167.529 c 31.18,51.019 60.66,109.133 75.39,167.529 l 21.27,-5.11 c -15.32,-60.939 -45.93,-121.028 -78.25,-173.478" /><path
         id="path72"
         style="fill:#863a1f;fill-opacity:1;fill-rule:nonzero;stroke:none"
         d="m 1610.24,866.293 c 63.5,103.75 120.76,236.687 62.08,343.277 -53.58,97.22 -524.41,436.81 -405.36,532.34 -28.62,37.99 -67.74,23.81 -93.82,-21.26 -200.695,59.53 -310.675,-122.45 -317.195,-127.27 -15.312,-0.85 -209.761,63.78 -325.98,-113.96 -48.192,17.3 -87.031,1.99 -85.332,-45.92 145.14,5.39 16.441,-537.449 16.73,-634.957 0.282,-155.051 128.973,-225.922 252.571,-266.742 l 155.05,70.582 c 34.301,15.879 47.059,73.988 106.301,115.66 49.895,34.859 103.755,64.34 159.305,89.859 53.57,15.02 108.29,26.641 163,32.309 215.14,22.109 252.84,-40.82 312.65,26.082" /><path
         id="path74"
         style="fill:#000000;fill-opacity:1;fill-rule:nonzero;stroke:none"
         d="m 830.289,1037.76 c -75.961,0 -176.582,-32.92 -218.031,-105.197 -32.281,-56.301 -23.891,-127.172 24.961,-210.629 1.371,-2.34 1.871,-5.071 1.437,-7.75 -8.468,-51.852 4.684,-98.672 39.082,-139.141 71.258,-83.852 237.551,-138.02 423.662,-138.02 78.26,0 153.62,9.68 217.95,28.008 9.79,2.52 18.52,5.032 26.24,7.532 0.33,0.109 0.67,0.199 1,0.269 0.91,0.379 1.87,0.648 2.87,0.77 167.15,49.699 307.38,190.671 326.44,328.39 7.66,55.309 -1.79,132.91 -90.26,188.539 -3.45,2.172 -5.51,5.981 -5.44,10.049 1.4,78.35 -15.61,136.12 -50.56,171.71 -26.76,27.24 -63.45,41.05 -109.03,41.05 -91.99,0 -188.77,-57.77 -206.64,-95.24 -2.12,-4.45 -6.64,-7.16 -11.75,-6.55 -54.25,5.89 -106.6,2.44 -154.52,-10.17 l -0.95,-0.24 c -0.13,-0.05 -0.26,-0.09 -0.4,-0.14 -47.381,-15.47 -93.76,-41.04 -137.83,-76 -3.961,-3.14 -9.493,-3.37 -13.692,-0.55 -12.621,8.46 -36.14,13.31 -64.539,13.31 M 1101.4,413.781 c -153.302,0 -349.752,38.41 -441.373,146.199 -38.097,44.84 -53.218,96.543 -44.949,153.793 -51.488,89.661 -59.23,167.137 -22.98,230.348 46.05,80.309 155.75,116.879 238.191,116.879 28.77,0 53.188,-4.55 70,-12.93 43.891,33.81 90.008,58.85 137.221,74.49 0.68,0.33 1.4,0.59 2.16,0.77 l 2.25,0.56 c 48.19,12.69 100.64,16.63 155.13,11.55 29.88,47.51 130.94,101.15 223.56,101.15 51.33,0 94.76,-16.61 125.61,-48.01 38.47,-39.17 57.74,-100.36 57.3,-181.93 73.41,-48.619 107.26,-122.189 95.41,-207.837 -20.27,-146.372 -167.89,-295.743 -343.54,-347.7 -0.86,-0.371 -1.77,-0.64 -2.7,-0.8 -0.41,-0.11 -0.82,-0.211 -1.22,-0.282 -7.85,-2.5 -16.6,-5 -26.04,-7.429 -66.08,-18.829 -143.65,-28.821 -224.03,-28.821" /><path
         id="path76"
         style="fill:#fad4c5;fill-opacity:1;fill-rule:nonzero;stroke:none"
         d="m 1044.73,1112.62 -1.13,-0.28 -1.14,-0.29 0.29,0 c -42.52,-13.89 -90.707,-37.7 -141.445,-77.95 -77.391,51.87 -447.313,-22.11 -274.114,-318.049 -41.668,-255.11 416.689,-341.571 695.339,-262.199 8.78,2.269 17.85,4.82 26.64,7.652 l 0.57,0 0.28,0.289 0.85,0 0,0.277 0.57,0 c 280.35,82.493 459.49,400.532 240.38,538.3 6.23,348.38 -346.96,209.48 -388.35,122.74 -62.65,6.8 -115.65,0.85 -158.74,-10.49" /><path
         id="path78"
         style="fill:#000000;fill-opacity:1;fill-rule:nonzero;stroke:none"
         d="m 857.645,924.969 c 63.21,-41.668 90.429,-111.399 60.941,-155.621 -29.191,-44.219 -104.309,-46.207 -167.52,-4.539 -63.5,41.961 -90.711,111.691 -61.23,155.91 29.48,44.219 104.602,46.199 167.809,4.25" /><path
         id="path80"
         style="fill:#391f17;fill-opacity:1;fill-rule:nonzero;stroke:none"
         d="m 838.938,861.188 c -6.801,15.589 -7.653,37.703 5.39,50.742 5.098,4.82 12.18,7.371 19.551,8.5 -1.981,1.418 -3.961,3.121 -6.231,4.539 -63.21,41.949 -138.332,39.969 -167.812,-4.25 -29.481,-44.219 -2.27,-113.961 61.23,-155.91 63.211,-41.668 138.332,-39.68 167.52,4.539 4.262,5.953 7.09,12.75 9.07,19.84 -36.847,12.761 -73.699,36.57 -88.718,72" /><path
         id="path82"
         style="fill:#57281a;fill-opacity:1;fill-rule:nonzero;stroke:none"
         d="m 861.898,786.07 c -25.511,15.59 -54.14,37.422 -62.082,68.313 -11.046,41.957 14.743,69.168 48.192,76.539 -60.942,35.719 -130.11,31.75 -158.168,-10.199 -29.481,-44.223 -2.274,-113.961 61.226,-155.91 59.243,-39.122 129.262,-39.973 161.852,-3.122 -17.852,6.52 -35.148,14.461 -51.02,24.379" /><path
         id="path84"
         style="fill:#863a1f;fill-opacity:1;fill-rule:nonzero;stroke:none"
         d="m 821.645,775.301 c -29.758,22.679 -60.661,56.129 -64.348,95.808 -3.961,42.52 30.051,61.231 66.328,71.719 -54.141,22.113 -109.41,14.453 -133.789,-22.109 -29.481,-44.219 -2.27,-113.957 61.23,-155.91 44.782,-29.758 95.809,-37.129 132.379,-22.957 -22.109,8.218 -43.09,19.558 -61.8,33.449" /><path
         id="path86"
         style="fill:#000000;fill-opacity:1;fill-rule:nonzero;stroke:none"
         d="m 876.922,735.613 c -37.699,-11.34 -86.738,-1.129 -128.129,26.082 -31.18,20.692 -54.992,48.75 -66.609,78.801 -12.192,30.617 -10.493,59.809 4.539,82.207 9.918,15.024 25.507,26.082 44.781,31.742 37.699,11.059 87.027,1.141 128.129,-26.07 64.91,-43.09 92.687,-115.371 62.078,-161.301 -9.918,-15.019 -25.508,-25.789 -44.789,-31.461 m -143.43,211.75 c -17.582,-5.386 -31.75,-15.027 -40.539,-28.629 -13.601,-20.41 -15.019,-47.058 -3.973,-75.398 11.34,-28.633 34.024,-55.281 64.071,-75.121 39.679,-26.36 86.453,-36 122.172,-25.512 17.289,5.102 31.461,15.024 40.531,28.633 28.066,42.23 1.137,109.98 -60.371,150.519 -39.403,26.071 -86.18,36 -121.891,25.508" /><path
         id="path88"
         style="fill:#000000;fill-opacity:1;fill-rule:nonzero;stroke:none"
         d="m 1310.05,1058.48 c -34.01,-70.578 -23.8,-145.417 22.68,-167.238 46.5,-21.832 111.98,17.571 145.98,88.149 34.02,70.589 24.11,145.419 -22.67,167.249 -46.49,21.82 -111.97,-17.86 -145.99,-88.16" /><path
         id="path90"
         style="fill:#391f17;fill-opacity:1;fill-rule:nonzero;stroke:none"
         d="m 1356.83,1013.69 c -1.7,17.29 -11.62,36.57 -28.91,40.54 -6.81,1.41 -13.89,-0.29 -20.98,-3.41 0.85,2.56 1.98,5.11 3.12,7.66 34.01,70.3 99.49,109.98 145.98,88.15 46.77,-21.82 56.7,-96.94 22.68,-167.235 -34.02,-70.582 -99.5,-109.981 -145.98,-88.161 -6.52,3.118 -12.19,7.09 -17.3,12.188 25.52,30.902 45.36,71.723 41.39,110.268" /><path
         id="path92"
         style="fill:#57281a;fill-opacity:1;fill-rule:nonzero;stroke:none"
         d="m 1373.55,936.59 c 14.17,27.5 28.35,61.801 20.13,92.69 -10.78,42.24 -45.93,51.03 -78.24,39.12 35.15,64.06 96.38,98.93 140.6,78.24 46.77,-21.83 56.69,-96.95 22.68,-167.249 -32.04,-66.328 -91.56,-105.161 -137.2,-91.559 11.9,15.309 22.96,31.75 32.03,48.758" /><path
         id="path94"
         style="fill:#863a1f;fill-opacity:1;fill-rule:nonzero;stroke:none"
         d="m 1412.95,949.629 c 14.74,35.723 25.23,81.071 9.07,117.351 -17.01,38.56 -54.99,36.29 -91.56,25.23 36,48.47 87.31,72.29 125.58,54.43 46.77,-21.83 56.69,-96.95 22.67,-167.249 -24.09,-50.45 -64.34,-84.75 -102.33,-92.411 14.74,19.282 27.5,40.54 36.57,62.649" /><path
         id="path96"
         style="fill:#000000;fill-opacity:1;fill-rule:nonzero;stroke:none"
         d="m 1384.89,885 c 37.7,11.059 75.12,46.77 97.23,92.691 16.72,34.869 23.81,71.719 19.27,104.029 -4.53,32.89 -19.84,57.26 -43.65,68.32 -15.87,7.37 -34.3,8.22 -53.57,2.55 -37.99,-11.05 -75.12,-46.49 -97.52,-92.69 -34.86,-72.291 -23.81,-149.388 24.38,-172.072 15.88,-7.648 34.58,-8.5 53.86,-2.828 m 20.98,260.5 c 17.57,5.11 34.3,4.26 48.75,-2.55 21.26,-9.92 35.15,-32.03 39.4,-62.36 4.26,-30.9 -2.55,-66.33 -18.7,-99.781 -21.26,-43.938 -56.7,-77.95 -92.41,-88.438 -17.58,-5.101 -34.3,-4.543 -48.48,2.27 -44.78,20.968 -54.14,93.539 -20.97,162.139 21.26,44.22 56.69,77.95 92.41,88.72" /><path
         id="path98"
         style="fill:#000000;fill-opacity:1;fill-rule:nonzero;stroke:none"
         d="m 494.527,1622.86 c 1.129,0.28 2.27,0.57 3.403,1.13 8.218,39.12 36,73.14 76.539,87.88 23.519,8.5 48.187,9.07 70.859,3.12 8.512,19.56 21.551,37.41 37.988,51.87 3.122,45.64 32.883,87.87 78.801,104.31 53.289,19.28 110.84,-1.7 139.473,-47.62 12.18,30.62 37.129,56.13 70.578,68.32 61.512,22.39 128.692,-9.36 150.232,-70.58 0.57,-1.42 1.14,-2.84 1.42,-4.26 l 0.28,0 c 61.52,22.11 128.7,-9.35 150.24,-70.86 21.54,-61.23 -10.77,-128.98 -72.28,-151.37 -56.41,-20.41 -117.64,4.53 -144,56.41 -8.51,-39.12 -36.29,-73.42 -76.54,-88.16 -30.051,-10.77 -61.231,-8.79 -87.872,3.12 -16.73,-20.7 -39.121,-37.42 -65.769,-47.06 -0.563,-0.28 -1.41,-0.57 -1.981,-0.85 -4.539,-43.94 -33.73,-83.9 -78.242,-100.06 -42.797,-15.31 -88.437,-4.82 -119.617,23.81 -13.601,-18.43 -32.312,-32.88 -55.269,-41.39 -61.524,-22.11 -128.981,9.36 -150.524,70.87 -21.547,61.23 10.774,128.98 72.281,151.37" /><path
         id="path100"
         style="fill:#000000;fill-opacity:1;fill-rule:nonzero;stroke:none"
         d="m 952.605,1132.75 c 0,0 -204.66,95.81 -350.929,-103.75 0,0 22.961,57.55 75.691,104.03 -75.691,-8.78 -122.461,-39.11 -122.461,-39.11 34.02,45.07 109.129,56.4 147.403,59.24 58.679,41.67 142.578,59.81 250.296,-20.41" /><path
         id="path102"
         style="fill:#000000;fill-opacity:1;fill-rule:nonzero;stroke:none"
         d="m 1113.9,1185.19 c 0,0 121.61,190.49 352.06,100.35 0,0 -50.17,36.28 -119.62,47.33 68.6,33.17 124.16,32.6 124.16,32.6 -52.73,19.85 -122.46,-10.77 -155.91,-28.91 -72,3.68 -152.5,-26.08 -200.69,-151.37" /><path
         id="path104"
         style="fill:#ff0000;fill-opacity:1;fill-rule:nonzero;stroke:none"
         d="m 425.645,670.418 0,0 c -0.278,0.281 -7.938,4.539 -21.258,0.57 0,0 -12.469,-2.269 -50.742,17.571 0,0 -30.61,19.281 -68.598,8.789 0,0 -26.082,-2.27 -38.551,11.34 0,0 -37.422,36.558 -61.789,38.269 0,0 -15.312,4.813 -29.769,1.981 0,0 -17.012,1.98 -27.493,9.64 0,0 -7.09,3.969 -10.777,-0.851 0,0 -4.25,-1.989 -2.262,-7.661 0,0 1.981,-15.019 3.961,-17.289 1.988,-2.269 13.039,-30.328 17.008,-32.308 3.973,-1.992 10.77,-15.59 10.77,-15.59 l 7.089,-10.492 c 0,0 21.262,-32.028 37.704,-38.547 0,0 35.429,-23.813 69.73,-29.774 34.297,-5.949 73.988,-8.777 107.719,5.672 0,0 36.57,16.442 55.84,41.391 0,0 4.539,9.918 4.539,13.891 l -3.121,3.398 z m -54.137,147.121 -0.293,0 c -10.77,7.367 -28.059,7.367 -28.059,7.367 0,0 -10.488,-1.418 -19.84,0.282 -9.07,1.699 -17.582,11.91 -17.582,11.91 -21.257,18.711 -34.578,17.859 -34.578,17.859 -22.109,5.383 -45.351,-9.359 -45.351,-9.359 -1.7,0.57 -17.86,-13.321 -17.86,-13.321 l -11.34,-9.64 -14.167,-10.199 c -18.43,-10.211 -33.172,-10.782 -35.442,-11.34 -2.262,-0.289 -19.269,-0.289 -19.269,-0.289 -5.672,-0.852 -7.942,-5.672 -7.942,-5.672 0.289,-9.918 26.653,-25.508 26.653,-25.508 16.148,-16.441 64.339,-7.371 64.339,-7.371 10.207,7.09 31.75,15.308 31.75,15.308 7.368,0 20.688,-18.988 20.688,-18.988 27.5,-24.949 64.351,-16.73 64.351,-16.73 5.391,0.851 12.758,4.539 16.161,-6.231 3.398,-11.058 17.007,-29.48 17.007,-29.48 l 33.454,-17.008 28.91,-1.422 c 0,0 10.769,-0.848 13.039,0.57 2.551,1.422 0.281,5.379 0.281,5.379 -1.133,2.563 -9.352,5.672 -11.051,6.524 -1.699,0.566 -9.922,10.777 -9.922,10.777 -1.14,1.133 -6.238,20.973 -6.238,20.973 l -3.121,23.25 -3.969,14.168 c -1.133,9.922 -11.902,27.211 -11.902,27.211 -1.141,3.687 -13.61,15.879 -13.61,15.879 -1.417,1.98 -3.121,3.679 -5.097,5.101" /><path
         id="path106"
         style="fill:#ff0000;fill-opacity:1;fill-rule:nonzero;stroke:none"
         d="m 358.465,1626.26 0,0 c -0.281,0 -5.102,-0.57 -10.199,-6.8 0,0 -5.391,-5.11 -30.051,-7.94 0,0 -20.692,-1.13 -35.43,-18.43 0,0 -11.629,-9.63 -22.121,-7.08 0,0 -29.758,5.1 -41.949,-1.99 0,0 -8.789,-2.55 -14.738,-8.78 0,0 -8.793,-4.54 -16.442,-4.26 0,0 -4.531,-0.56 -4.82,-3.96 0,0 -1.418,-2.27 1.422,-4.26 0,0 5.949,-6.52 7.648,-7.08 1.699,-0.57 16.16,-10.21 18.711,-9.92 2.27,0.56 10.207,-3.97 10.207,-3.97 l 6.524,-2.55 c 0,0 20.687,-8.51 30.609,-6.24 0,0 24.66,0.28 43.09,8.5 18.14,8.51 37.98,20.13 49.597,37.99 0,0 11.911,19.84 13.043,37.98 0,0 -1.132,6.24 -2.55,8.22 l -2.551,0.57 z m -73.699,52.16 0,0 c -7.653,0 -15.871,-5.39 -15.871,-5.39 0,0 -4.54,-4.25 -9.641,-6.52 -4.82,-1.98 -12.188,0 -12.188,0 -16.16,1.99 -22.402,-2.83 -22.402,-2.83 -12.18,-4.54 -18.418,-19.28 -18.418,-19.28 -1.133,-0.28 -4.25,-12.19 -4.25,-12.19 l -2.269,-8.22 -3.403,-9.64 c -5.39,-10.77 -12.187,-15.87 -13.32,-16.72 -0.848,-0.85 -9.078,-6.52 -9.078,-6.52 -2.262,-2.27 -1.699,-5.1 -1.699,-5.1 3.117,-4.82 20.976,-3.69 20.976,-3.69 13.043,-2.55 32.883,17.58 32.883,17.58 2.551,6.52 10.211,17.57 10.211,17.57 3.398,2.55 15.867,-2.27 15.867,-2.27 21.262,-2.83 36.281,13.04 36.281,13.04 2.27,2.27 4.821,6.24 9.93,2.27 5.102,-4.25 17.57,-8.5 17.57,-8.5 l 21.539,2.83 14.18,8.79 c 0,0 5.383,3.12 5.949,4.54 0.852,1.41 -1.418,2.55 -1.418,2.55 -1.41,0.85 -6.519,-0.29 -7.371,-0.57 -1.129,-0.28 -8.219,1.98 -8.219,1.98 -1.128,0.29 -9.921,7.94 -9.921,7.94 l -9.071,10.21 -6.519,5.38 c -3.688,4.25 -14.739,9.07 -14.739,9.07 -1.421,1.42 -11.621,3.12 -11.621,3.12 -1.14,0.57 -2.55,0.57 -3.968,0.57" /><path
         id="path108"
         style="fill:#ff0000;fill-opacity:1;fill-rule:nonzero;stroke:none"
         d="m 1884.36,1054.23 0,0 c -0.29,0 -3.97,1.42 -9.93,-1.42 0,0 -5.66,-2.26 -24.95,4.25 0,0 -15.59,6.24 -32.3,-1.41 0,0 -11.91,-3.12 -18.72,2.26 0,0 -20.41,13.89 -31.75,12.76 0,0 -7.37,1.13 -13.89,-1.42 0,0 -7.93,-0.28 -13.59,2.27 0,0 -3.41,1.42 -4.82,-1.13 0,0 -1.71,-1.14 -0.57,-3.69 0,0 2.27,-6.8 3.39,-7.65 0.86,-1.14 8.22,-13.04 10.22,-13.61 1.98,-0.56 6.23,-6.52 6.23,-6.52 l 3.96,-4.25 c 0,0 12.47,-13.32 20.7,-15.02 0,0 18.14,-8.22 34.59,-8.22 16.43,0 34.86,1.7 49.59,11.05 0,0 15.59,10.49 22.41,23.53 0,0 1.41,4.82 1.12,6.8 l -1.69,1.42 z m -36.57,63.78 0,0 c -5.68,2.55 -13.9,1.13 -13.9,1.13 0,0 -4.82,-1.41 -9.07,-1.41 -4.25,0.28 -9.07,4.25 -9.07,4.25 -11.34,6.8 -17.29,5.38 -17.29,5.38 -10.76,0.85 -20.41,-7.65 -20.41,-7.65 -0.85,0 -7.37,-7.65 -7.37,-7.65 l -4.25,-5.39 -5.95,-5.67 c -7.66,-6.23 -14.46,-7.65 -15.3,-8.22 -1.13,-0.28 -9.07,-1.7 -9.07,-1.7 -2.56,-0.85 -3.13,-3.12 -3.13,-3.12 0.86,-4.53 14.47,-9.64 14.47,-9.64 8.5,-6.52 30.03,1.42 30.03,1.42 4.27,4.25 13.61,9.64 13.61,9.64 3.41,0.57 11.07,-7.09 11.07,-7.09 14.73,-9.35 31.18,-2.83 31.18,-2.83 2.25,0.85 5.66,3.12 7.93,-1.7 2.55,-4.54 10.21,-12.19 10.21,-12.19 l 16.72,-5.39 13.6,1.7 c 0,0 4.83,0.57 5.95,1.42 1.14,0.85 -0.27,2.55 -0.27,2.55 -0.57,1.14 -4.82,1.7 -5.68,1.99 -0.85,0.28 -5.39,4.25 -5.39,4.25 -0.55,0.57 -4.52,9.35 -4.52,9.35 l -3.12,10.49 -3.13,6.24 c -1.12,4.53 -7.64,11.62 -7.64,11.62 -0.86,1.7 -7.37,6.24 -7.37,6.24 -0.86,0.85 -1.99,1.41 -2.84,1.98" /><path
         id="path110"
         style="fill:#ff0000;fill-opacity:1;fill-rule:nonzero;stroke:none"
         d="m 1873.58,1810.8 0,0 c -0.28,-0.28 -8.22,-0.85 -16.44,-10.77 0,0 -8.22,-8.23 -47.34,-12.76 0,0 -32.88,-1.41 -56.13,-28.91 0,0 -18.42,-15.02 -34.86,-11.34 0,0 -47.06,8.21 -66.33,-3.13 0,0 -14.18,-4.25 -23.53,-13.88 0,0 -13.89,-7.08 -25.8,-6.8 0,0 -7.37,-0.85 -7.65,-6.25 0,0 -2.27,-3.67 2.27,-6.79 0,0 9.35,-10.49 11.9,-11.06 2.56,-0.85 25.52,-16.15 29.48,-15.59 3.97,0.57 16.16,-6.52 16.16,-6.52 l 10.49,-3.96 c 0,0 32.88,-13.33 48.47,-9.65 0,0 39.12,0.29 68.03,13.61 28.92,13.04 60.38,31.46 78.52,59.82 0,0 19,31.18 20.7,60.09 0,0 -1.7,9.64 -3.97,12.76 l -3.97,1.13 z m -116.79,82.77 0,0 c -12.19,0 -25.23,-9.07 -25.23,-9.07 0,0 -7.08,-6.52 -15.02,-9.93 -7.65,-3.39 -19.56,-0.27 -19.56,-0.27 -25.51,3.11 -35.15,-4.26 -35.15,-4.26 -19.27,-7.08 -29.48,-30.61 -29.48,-30.61 -1.42,-0.29 -6.52,-19.29 -6.52,-19.29 l -3.4,-13.03 -5.67,-15.02 c -8.5,-17.02 -19.27,-25.23 -20.69,-26.64 -1.7,-1.42 -14.46,-10.22 -14.46,-10.22 -3.97,-3.68 -3.12,-8.21 -3.12,-8.21 5.39,-7.65 33.45,-5.67 33.45,-5.67 20.41,-4.25 52.16,27.5 52.16,27.5 3.97,10.77 16.16,28.06 16.16,28.06 5.38,3.97 25.23,-3.68 25.23,-3.68 33.73,-4.54 57.26,20.4 57.26,20.4 3.68,3.69 7.37,10.21 15.59,3.69 7.93,-6.25 28.06,-13.32 28.06,-13.32 l 34.01,4.53 22.4,13.61 c 0,0 8.22,5.09 9.64,7.37 1.13,2.54 -2.84,4.25 -2.84,4.25 -1.98,1.42 -9.92,-0.57 -11.62,-0.85 -1.7,-0.28 -13.04,3.12 -13.04,3.12 -1.42,0 -15.59,12.47 -15.59,12.47 l -14.17,16.16 -10.21,8.5 c -5.95,6.8 -23.24,14.46 -23.24,14.46 -2.55,1.98 -18.43,4.82 -18.43,4.82 -1.98,0.85 -4.25,1.13 -6.52,1.13" /><path
         id="path112"
         style="fill:#deac97;fill-opacity:1;fill-rule:nonzero;stroke:none"
         d="m 1238.91,759.711 c 8.22,6.238 17.29,13.887 27.5,22.68 1.41,1.129 2.55,2.257 3.68,3.398 39.96,27.781 64.62,20.981 74.27,-20.41 -4.82,-17.859 -5.1,-37.418 -1.42,-58.68 l -10.21,-3.398 c -5.66,-1.703 -10.48,-3.684 -14.73,-6.524 -1.7,10.774 -1.43,21.832 0.85,32.602 0.56,1.98 0.85,3.68 1.41,5.672 2.84,15.308 -2.55,24.379 -16.15,28.058 -1.7,0.571 -3.13,0.852 -5.11,1.141 -9.63,0.277 -18.99,-6.812 -28.34,-21.551 -7.37,-11.621 -15.03,-28.34 -22.4,-49.89 l -1.13,0.289 c -3.68,-0.289 -7.65,-0.571 -11.34,-1.137 -18.15,-2.273 -34.86,-9.922 -50.74,-22.961 -0.28,-0.281 -0.57,-0.852 -1.14,-1.133 -0.84,-0.847 -1.7,-1.418 -2.54,-2.269 -24.96,-20.129 -48.48,-27.207 -70.87,-21.828 51.87,28.347 94.68,67.179 128.41,115.941" /><path
         id="path114"
         style="fill:#000000;fill-opacity:1;fill-rule:nonzero;stroke:none"
         d="m 1249.96,692.813 -1.7,0 c 7.37,21.539 15.02,38.269 22.39,49.886 16.73,-1.976 19.85,-20.687 9.36,-55.84 -9.07,3.403 -18.99,5.672 -30.05,5.954" /><path
         id="path116"
         style="fill:#a10000;fill-opacity:1;fill-rule:nonzero;stroke:none"
         d="m 1280.01,686.859 c 10.49,35.149 7.37,53.86 -9.35,55.84 9.35,14.739 18.7,21.828 28.34,21.551 1.99,-0.289 3.4,-0.57 5.1,-1.141 13.61,-3.679 19,-12.75 16.16,-28.058 -0.56,-1.992 -0.85,-3.692 -1.42,-5.672 -2.26,-10.77 -2.55,-21.828 -0.85,-32.602 -7.65,-5.379 -13.32,-12.468 -16.15,-21.828 -6.81,5.11 -13.89,9.078 -21.83,11.91" /><path
         id="path118"
         style="fill:#deac97;fill-opacity:1;fill-rule:nonzero;stroke:none"
         d="m 1366.18,552.215 c -3.68,-3.121 -7.09,-5.953 -11.06,-8.5 -35.43,-24.672 -77.95,-16.16 -127.55,25.219 -1.7,1.711 -3.69,3.687 -5.39,5.39 -24.66,24.379 -55.84,39.117 -94.39,44.219 45.35,0.57 86.74,-9.352 124.44,-30.328 2.55,-1.422 4.82,-2.832 7.08,-3.973 64.35,-35.711 109.14,-17.289 134.37,54.43 9.07,-29.199 -0.29,-57.828 -27.5,-86.457" /><path
         id="path120"
         style="fill:#000000;fill-opacity:1;fill-rule:nonzero;stroke:none"
         d="m 1138.84,714.07 c 9.35,5.102 17.57,10.77 25.23,17.012 11.05,8.5 21.26,18.418 30.9,29.481 0.28,0.277 0.56,0.57 1.13,0.57 -0.57,0 -0.85,-0.293 -1.13,-0.57 4.25,4.82 8.5,9.917 13.32,16.437 0,0.281 0.28,0.57 0.57,0.57 0.28,0.563 0.56,0.563 0.56,0.852 0,0.277 0.29,0.277 0.29,0.558 4.25,5.11 8.78,10.77 12.75,17.012 5.39,7.09 11.06,13.891 16.73,20.41 6.23,6.52 11.9,11.911 17.57,16.161 6.24,4.82 11.34,8.218 16.16,10.769 21.26,11.617 41.67,11.91 60.94,0.57 l -0.56,0 c 0.85,-0.293 1.41,-0.851 2.26,-1.14 34.59,-28.91 42.81,-70.301 24.95,-123.301 l -0.28,-0.852 c -3.69,-11.629 -1.14,-22.968 7.37,-33.738 l 0,0.289 c 1.13,-1.14 1.98,-2.269 2.83,-3.398 12.47,-14.18 20.98,-28.629 25.23,-42.52 9.35,-29.492 0,-59.25 -27.78,-88.453 -4.54,-3.957 -7.94,-6.519 -11.62,-9.066 -36,-24.942 -79.94,-16.442 -130.11,25.519 l -2.84,2.828 c -0.85,0.852 -1.7,1.981 -2.55,2.832 -24.09,23.821 -55.56,38.27 -93.26,43.661 -1.42,0 -1.98,1.128 -1.98,2.269 0.28,1.41 1.41,2.258 2.55,1.981 38.83,-5.391 70.86,-20.411 95.53,-44.793 1.13,-0.848 1.98,-1.981 2.83,-2.829 0.85,-0.851 1.7,-1.992 2.84,-2.839 48.18,-40.25 90.42,-48.75 124.72,-24.942 3.4,2.27 6.52,4.82 10.77,8.5 26.93,28.07 35.72,55.563 26.65,84.192 -3.97,13.32 -12.19,26.929 -24.38,40.82 -0.85,1.129 -1.7,1.98 -2.55,2.84 0,0.277 0,0.277 -0.29,0.277 -9.63,11.902 -12.18,24.66 -8.22,37.703 0,0.278 0.29,1.129 0.29,1.129 17.57,51.879 9.92,90.43 -23.53,118.488 -0.28,0 -0.57,0.282 -0.85,0.571 l -0.28,0 c -18.15,10.769 -36.57,10.492 -56.7,-0.571 -4.53,-2.269 -9.35,-5.379 -15.3,-10.199 -5.67,-4.258 -11.34,-9.359 -17.01,-15.59 -5.67,-6.519 -11.34,-13.328 -16.44,-20.129 -4.25,-6.242 -8.51,-11.91 -13.04,-17.289 0,0 0.28,0.278 0.28,0.571 -0.28,-0.852 -0.85,-1.422 -1.13,-1.993 -0.29,0 -0.29,-0.281 -0.57,-0.57 -4.82,-6.519 -9.07,-11.621 -13.32,-16.719 -0.29,-0.281 -0.85,-0.57 -1.42,-0.57 0.57,0 0.85,0.289 1.13,0.57 -9.63,-11.058 -20.12,-20.98 -31.18,-29.761 -7.93,-6.52 -16.44,-12.188 -25.79,-17.578 -1.14,-0.571 -2.55,0 -3.12,0.847 -0.57,1.141 -0.28,2.551 0.85,3.121" /><path
         id="path122"
         style="fill:#000000;fill-opacity:1;fill-rule:nonzero;stroke:none"
         d="m 1312.77,520.969 c -27.79,0 -58.41,13.812 -90.99,41.051 l -3.26,3.218 c -0.56,0.563 -1.11,1.192 -1.65,1.821 -0.31,0.363 -0.61,0.73 -0.93,1.031 -22.72,22.461 -52.81,36.512 -89.4,41.73 l -0.11,0 c -4.01,0 -7.72,3.879 -7.72,9.008 0,0.453 0.05,0.902 0.13,1.344 0.88,4.406 4.5,7.5 8.79,7.5 0.55,0 1.55,-0.121 2.08,-0.25 39.54,-5.453 72.97,-21.16 98.68,-46.551 0.43,-0.269 1.39,-1.269 2.25,-2.223 l 1.67,-1.789 c 0.31,-0.347 0.63,-0.75 1.04,-1.07 45.93,-38.348 85.13,-46.75 116.76,-24.789 3.27,2.18 6.2,4.602 10.2,8.059 24.63,25.711 32.83,51.043 24.61,76.992 -3.65,12.25 -11.38,25.129 -23.01,38.379 -0.94,1.23 -1.57,1.84 -2.19,2.461 -0.06,0.058 -0.11,0.121 -0.17,0.179 -0.23,0.219 -0.44,0.45 -0.64,0.7 -10.74,13.25 -14.05,28.269 -9.59,43.46 0.09,0.489 0.25,1.079 0.48,1.79 16.64,49.109 10.06,84.25 -20.72,110.519 -0.16,0.09 -0.3,0.172 -0.44,0.27 -0.19,0.082 -0.35,0.171 -0.52,0.269 -16.12,9.594 -31.68,9.352 -49.95,-0.687 -4.62,-2.313 -9.08,-5.301 -14.29,-9.52 -5.85,-4.383 -11.1,-9.199 -16.27,-14.883 -6.54,-7.539 -11.67,-13.808 -16.01,-19.629 -4.16,-6.097 -8.39,-11.73 -12.79,-16.988 -0.18,-0.312 -0.37,-0.601 -0.56,-0.859 -0.39,-0.801 -0.92,-1.473 -1.55,-2.012 -4.72,-6.34 -8.91,-11.379 -13.11,-16.422 -0.32,-0.367 -0.8,-0.789 -1.33,-1.18 -9.4,-10.668 -19.87,-20.597 -31.12,-29.539 -7.67,-6.3 -16.4,-12.257 -26.63,-18.16 -5.12,-2.578 -9.74,-0.699 -12.19,2.981 -1.53,2.949 -1.73,5.558 -0.95,7.871 0.76,2.258 2.34,4.07 4.46,5.121 8.23,4.5 16.14,9.828 23.94,16.18 10.4,8.007 20.18,17.339 30.05,28.66 0.02,0.008 0.03,0.027 0.05,0.047 4.86,5.519 8.86,10.453 12.94,15.992 l 0.04,-0.031 c 0.2,0.281 0.42,0.558 0.65,0.808 0.02,0.031 0.04,0.051 0.06,0.082 0.25,0.512 0.55,0.988 0.92,1.442 3.88,4.636 8.37,10.207 12.24,16.289 5.27,6.961 10.84,13.757 17.34,21.23 7.44,7.801 13.12,13.008 18.62,17.129 6.47,5 11.91,8.621 17.05,11.352 23.2,12.668 46.43,12.859 67.58,0.41 0.38,-0.223 0.73,-0.481 1.06,-0.75 0.57,-0.262 1.03,-0.582 1.56,-1.032 36.79,-30.761 45.88,-74.73 27.02,-130.691 -3.07,-9.66 -1.37,-18.258 5,-26.91 0.16,-0.117 0.3,-0.258 0.46,-0.41 1.38,-1.379 2.42,-2.75 3.46,-4.129 12.73,-14.418 21.69,-29.578 26.29,-44.61 10.15,-31.96 0.28,-63.98 -29.35,-95.121 -5.57,-4.91 -9.35,-7.66 -12.67,-9.968 -14.53,-10.071 -30.46,-15.172 -47.37,-15.172" /><path
         id="path124"
         style="fill:#000000;fill-opacity:1;fill-rule:nonzero;stroke:none"
         d="m 1315.57,652.895 c -2.46,0 -4.89,1.031 -6.66,2.82 -3.87,4.711 -8.27,8.488 -12.86,12.32 -1.34,0.86 -2.69,2.957 -3.1,5.32 -0.42,2.469 0.22,5.059 1.75,7.098 4.1,4.289 8.81,4.223 12.33,1.86 6.5,-5.09 11.25,-9.649 15.36,-14.649 2.98,-2.93 2.87,-8.641 -0.7,-12.238 -1.64,-1.641 -3.8,-2.531 -6.12,-2.531" /><path
         id="path126"
         style="fill:#000000;fill-opacity:1;fill-rule:nonzero;stroke:none"
         d="m 1313.74,660.496 c -3.68,4.539 -8.22,8.5 -13.32,12.762 -0.85,0.558 -1.14,1.98 -0.29,3.109 0.85,0.852 2.27,0.852 3.12,0.289 5.39,-4.25 9.92,-8.508 13.89,-13.328 0.85,-0.851 0.57,-2.262 -0.28,-3.109 -0.85,-0.852 -2.27,-0.571 -3.12,0.277" /><path
         id="path128"
         style="fill:#000000;fill-opacity:1;fill-rule:nonzero;stroke:none"
         d="m 1301.85,665.813 c -0.56,0 -1.69,0.14 -2.23,0.269 -0.48,0.121 -0.94,0.301 -1.39,0.523 -1.82,0.899 -3.27,2.258 -4.21,3.918 -1.29,2.243 -1.49,4.922 -0.58,7.29 3.27,10.871 9.77,19.71 19.27,26.261 3.52,2.692 9.89,1.852 12.56,-2.219 1.24,-1.632 1.85,-3.671 1.71,-5.761 -0.19,-2.629 -1.57,-5.078 -3.77,-6.739 -6.42,-4.453 -10.57,-10.07 -12.91,-17.339 -0.85,-3.473 -4.39,-6.203 -8.45,-6.203" /><path
         id="path130"
         style="fill:#000000;fill-opacity:1;fill-rule:nonzero;stroke:none"
         d="m 1299.85,675.52 c 2.83,9.64 8.5,17.289 16.72,22.96 1.14,0.848 2.56,0.571 3.12,-0.57 0.85,-0.851 0.57,-2.262 -0.56,-3.109 -7.37,-5.11 -12.48,-11.91 -15.31,-20.699 -0.28,-1.133 -1.42,-1.704 -2.55,-1.411 -1.14,0.559 -1.99,1.7 -1.42,2.829" /><path
         id="path132"
         style="fill:#000000;fill-opacity:1;fill-rule:nonzero;stroke:none"
         d="m 1317.93,687.699 c -2.5,0 -4.89,1.02 -6.74,2.852 -0.52,0.519 -0.95,1.109 -1.27,1.769 -2.08,4.168 -0.82,9.348 2.88,11.828 5.67,3.661 11.44,6.172 17.72,7.743 0.53,0.136 1.7,0.269 2.25,0.269 4.22,0 7.86,-2.73 8.83,-6.64 1.04,-5.172 -1.91,-9.911 -6.65,-11.09 -4.69,-1.301 -8.68,-3.051 -12.05,-5.289 -2.09,-1.102 -3.51,-1.442 -4.97,-1.442" /><path
         id="path134"
         style="fill:#000000;fill-opacity:1;fill-rule:nonzero;stroke:none"
         d="m 1316.57,698.48 c 4.82,3.122 9.93,5.391 15.59,6.801 1.14,0.289 2.55,-0.281 2.84,-1.41 0.29,-1.422 -0.57,-2.558 -1.7,-2.84 -5.1,-1.422 -9.92,-3.398 -14.17,-6.242 -1.13,-0.559 -2.27,-0.277 -3.13,0.57 -0.55,1.141 -0.27,2.551 0.57,3.121" /><path
         id="path136"
         style="fill:#000000;fill-opacity:1;fill-rule:nonzero;stroke:none"
         d="m 1248.02,683.949 c -0.56,0 -1.72,0.141 -2.26,0.27 -4.74,1.191 -7.59,6.172 -6.36,11.101 7.9,22.59 15.87,39.957 23.85,52.219 10.76,17.078 22.62,25.789 35.21,25.789 0.28,0 1.11,-0.019 1.39,-0.058 1.62,-0.2 2.99,-0.52 4.27,-0.821 0.58,-0.14 1.13,-0.281 1.67,-0.371 18.71,-5 26.82,-18.469 23.51,-38.121 -0.09,-0.957 -0.32,-2.078 -0.68,-2.809 -0.34,-0.66 -0.54,-1.949 -0.73,-3.078 -2.17,-10.441 -2.53,-20.332 -1.17,-30.07 0.43,-1.543 0.07,-3.891 -1.15,-5.91 -1.24,-2.082 -3.3,-3.59 -5.66,-4.18 -0.53,-0.133 -1.53,-0.25 -2.09,-0.25 -4.1,0 -7.68,2.84 -8.7,6.91 -2,12.508 -1.59,24.618 1.1,36.59 0.29,1.899 0.65,4.149 1.51,6.41 1.53,11.43 -2.69,15.008 -9.98,17 l -1.03,0.231 c -0.71,0.168 -1.58,0.367 -2,0.367 l -0.01,0 c -6.25,0 -13.29,-6.117 -20.32,-17.25 -7.42,-11.527 -14.92,-28.07 -21.71,-47.879 -0.8,-3.351 -4.43,-6.09 -8.66,-6.09" /><path
         id="path138"
         style="fill:#000000;fill-opacity:1;fill-rule:nonzero;stroke:none"
         d="m 1315.73,696.215 c -1.71,10.769 -1.43,22.109 1.13,33.449 0.28,1.699 0.57,3.969 1.41,5.949 l 0,-0.281 c 2.28,14.172 -2.27,22.391 -14.73,25.789 -1.43,0.293 -3.13,0.852 -4.83,0.852 -8.5,0.289 -17.28,-6.52 -26.07,-20.41 -7.66,-11.899 -15.3,-28.629 -22.39,-49.321 -0.29,-1.129 -1.7,-1.699 -2.84,-1.418 -1.14,0.289 -1.71,1.707 -1.41,2.84 7.36,20.981 15.02,37.981 22.95,50.168 9.64,15.313 19.85,22.961 30.05,22.68 2.27,-0.278 3.96,-0.848 5.66,-1.129 14.75,-3.969 20.7,-14.461 17.86,-30.621 l 0,-0.571 c -0.84,-1.699 -1.13,-3.679 -1.41,-5.378 -2.27,-10.77 -2.56,-21.54 -1.13,-31.75 0.29,-1.129 -0.57,-2.27 -1.71,-2.551 -1.13,-0.278 -2.27,0.57 -2.54,1.703" /><path
         id="path140"
         style="fill:#000000;fill-opacity:1;fill-rule:nonzero;stroke:none"
         d="m 1125.31,633.02 c -5.76,0 -11.5,0.73 -17.09,2.191 -2.1,0.519 -3.99,1.82 -5.26,3.66 -1.46,2.102 -1.94,4.692 -1.33,7.121 1.01,4.059 4.68,6.899 8.89,6.899 0.44,0 1.44,-0.09 1.88,-0.18 4.39,-1.102 8.58,-1.602 12.77,-1.602 15.76,0 32.74,7.313 50.47,21.743 0.29,0.238 0.58,0.437 0.89,0.621 0.37,0.316 0.7,0.578 1.04,0.828 0.42,0.422 0.89,0.781 1.41,1.082 l 0.12,0.129 c 17.65,14.847 35.68,23.058 55.59,25.48 3.78,0.578 8.04,0.899 12.44,0.899 l 1.13,0 c 5,0 9.07,-4.078 9.07,-9.078 0,-0.543 -0.07,-1.102 -0.2,-1.641 -1.07,-4.301 -4.57,-7.192 -8.72,-7.192 -0.2,0 -0.48,0.02 -0.78,0.04 l -0.79,0 c -2.01,0 -4.12,-0.231 -6.27,-0.45 -1.31,-0.14 -2.64,-0.281 -3.98,-0.379 -15.45,-1.968 -30.24,-8.652 -44.83,-20.371 -0.59,-0.82 -1.34,-1.507 -2.22,-2.007 -0.34,-0.293 -0.66,-0.543 -0.95,-0.774 l -0.99,-0.957 c -21.78,-17.461 -42.54,-26.062 -62.29,-26.062" /><path
         id="path142"
         style="fill:#000000;fill-opacity:1;fill-rule:nonzero;stroke:none"
         d="m 1247.98,690.828 -1.13,0 c -3.41,0 -7.09,-0.57 -10.78,-0.851 -17.85,-2.27 -34.01,-9.918 -49.6,-22.68 0,-0.281 -0.29,-0.281 -0.29,-0.559 -0.28,0 -0.56,-0.293 -0.85,-0.57 l 0.29,0.277 c -0.85,-0.847 -1.42,-1.129 -1.99,-1.699 -0.28,-0.277 -0.56,-0.57 -0.85,-0.848 -25.51,-20.41 -49.89,-28.062 -72.85,-22.113 -1.13,0.281 -1.98,1.422 -1.7,2.551 0.29,1.141 1.42,1.992 2.84,1.699 21.54,-5.379 44.5,1.703 68.88,21.551 0.28,0 0.57,0.281 0.85,0.562 0.57,0.571 1.13,0.848 1.7,1.418 l 0.28,0 c 0,0.282 0,0.282 0.29,0.282 0.28,0.289 0.56,0.57 0.85,0.847 15.87,13.332 32.88,21.262 51.59,23.532 3.68,0.57 7.65,0.851 11.62,0.851 l 1.13,0 c 1.42,0 2.27,-1.133 2.27,-2.269 -0.28,-1.133 -1.13,-2.262 -2.55,-1.981" /><path
         id="path144"
         style="fill:#000000;fill-opacity:1;fill-rule:nonzero;stroke:none"
         d="m 1301.91,665.941 c -2.01,0 -3.95,0.641 -5.57,1.872 -6.21,4.648 -12.43,8.046 -19.55,10.687 -8.84,3.109 -17.16,4.859 -26.08,5.461 -1.82,-0.309 -2.76,-0.129 -4.39,0.262 -4.85,1.207 -7.83,6.07 -6.64,10.808 1.02,4.059 4.59,6.91 8.7,6.91 0.23,0 0.53,-0.019 0.84,-0.05 l 0.74,0 c 10.97,-0.301 21.7,-2.469 32.99,-6.668 8.43,-3.012 16.41,-7.301 24.32,-13.082 0.27,-0.2 0.54,-0.43 0.79,-0.668 1.5,-1.5 2.46,-3.461 2.73,-5.532 0.3,-2.48 -0.41,-4.89 -2,-6.73 -1.64,-2.059 -4.16,-3.27 -6.88,-3.27" /><path
         id="path146"
         style="fill:#000000;fill-opacity:1;fill-rule:nonzero;stroke:none"
         d="m 1300.42,673.254 c -6.8,5.098 -13.61,8.789 -21.26,11.617 -9.64,3.402 -18.99,5.391 -29.2,5.949 l 0.29,0 c -0.57,-0.277 -1.14,-0.277 -2.27,0 -1.13,0.293 -1.99,1.422 -1.7,2.563 0.28,1.129 1.42,1.98 2.55,1.699 l 1.13,0 c 10.77,-0.289 20.7,-2.551 30.62,-6.238 7.93,-2.832 15.3,-6.801 22.67,-12.192 0.85,-0.851 1.14,-2.269 0.29,-3.121 -0.57,-0.847 -1.99,-1.129 -3.12,-0.277" /><path
         id="path148"
         style="fill:#000000;fill-opacity:1;fill-rule:nonzero;stroke:none"
         d="m 1361.08,245.223 c -23.24,33.168 -39.97,64.058 -38.55,83.058 l 22.68,-1.711 c -0.85,-12.468 14.17,-38.55 34.3,-67.461 l -18.43,-13.886 z m 106.58,-128.692 c -19.56,20.41 -71.15,77.949 -106.58,128.692 l 18.43,13.886 C 1414.37,209.5 1464.54,153.09 1483.54,133.25 l -15.88,-16.719 z m 41.67,-33.449 c -16.44,9.918 -30.05,21.258 -41.67,33.449 l 15.88,16.719 c 10.48,-10.77 22.67,-20.969 37.41,-29.758 l -11.62,-20.41 z m 57.26,-25.2304 c -22.11,6.5195 -41.1,15.3086 -57.26,25.2304 l 11.62,20.41 c 14.46,-9.0701 31.75,-16.7303 51.88,-22.9607 l -6.24,-22.6797 z m 37.42,-6.2422 c -13.61,0.5703 -26.93,2.8398 -37.42,6.2422 l 6.24,22.6797 c 8.79,-2.5508 20.12,-4.5391 32.31,-5.1094 l -1.13,-23.8125 z m 56.13,7.6601 c -17.01,-6.8086 -37.42,-8.5078 -56.13,-7.6601 l 1.13,23.8125 c 15.88,-0.8516 32.88,0.8594 47.06,6.2383 l 7.94,-22.3907 z m 39.68,39.9727 c -5.95,-20.1328 -20.98,-32.8906 -39.68,-39.9727 l -7.94,22.3907 c 12.19,4.8203 22.11,12.4726 25.79,24.6598 l 21.83,-7.0778 z m 2.55,15.5898 c -0.28,-5.672 -1.13,-11.062 -2.55,-15.5898 l -21.83,7.0778 c 0.85,3.121 1.42,6.243 1.7,9.922 l 22.68,-1.41 z m -11.34,0.559 11.34,-0.559 c -0.28,-6.519 -5.67,-11.633 -11.9,-11.34 -6.24,0.559 -11.06,5.949 -10.78,12.469 l 11.34,-0.57 z m 0.85,36.57 c 6.81,-10.77 11.34,-23.531 10.49,-37.129 l -22.68,1.129 c 0.29,8.219 -2.55,16.16 -6.8,22.961 l 18.99,13.039 z m -30.61,28.91 c 10.77,-5.949 22.39,-16.148 30.61,-28.91 l -18.99,-13.039 c -5.95,9.359 -14.46,16.73 -22.39,20.98 l 10.77,20.969 z m -34.87,14.461 c 11.91,-3.402 23.25,-7.941 34.87,-14.461 l -10.77,-20.969 c -9.92,5.668 -19.85,9.629 -30.05,12.75 l 5.95,22.68 z m -36.56,7.648 c 13.04,-1.98 24.94,-4.25 36.56,-7.648 l -5.95,-22.68 c -10.49,2.84 -21.54,5.11 -33.45,6.809 l 2.84,23.519 z m -0.57,24.379 c -1.7,-11.339 -2.84,-23.808 0.57,-24.379 L 1587,179.461 c -22.68,3.109 -23.53,28.91 -20.41,51.59 l 22.68,-3.692 z m 3.12,17.582 c -0.85,-4.539 -2.27,-10.492 -3.12,-17.582 l -22.68,3.692 c 1.14,6.801 2.55,13.89 3.69,18.988 l 22.11,-5.098 z m 1.13,5.379 c -0.28,-1.418 -0.57,-3.121 -1.13,-5.379 l -22.11,5.098 c 0.28,1.981 0.56,3.684 0.85,4.82 l 22.39,-4.539 z m -11.05,2.27 -10.78,-3.969 c -2.26,6.238 0.85,13.039 6.81,15.309 5.95,2.269 12.47,-1.141 14.45,-7.367 l -10.48,-3.973 z m -9.36,-19.84 c 0,5.949 0,11.902 -1.42,15.871 l 21.26,7.942 c 2.84,-7.372 2.84,-15.59 3.12,-23.25 l -22.96,-0.563 z m 18.43,-38.551 c -17.58,6.801 -17.86,22.391 -18.43,38.551 l 22.96,0.563 c 0.29,-7.93 0.29,-15.59 3.12,-16.723 l -7.65,-22.391 z m 27.78,-7.66 c -9.36,1.992 -18.43,4.25 -27.78,7.66 l 7.65,22.391 c 7.94,-3.117 16.44,-4.82 24.66,-6.801 l -4.53,-23.25 z m 34.01,-11.047 c -10.77,5.949 -22.39,8.5 -34.01,11.047 l 4.53,23.25 c 13.32,-2.84 26.93,-5.957 40.25,-13.328 l -10.77,-20.969 z m 30.05,-28.07 c -7.09,11.058 -17.29,20.98 -30.05,28.07 l 10.77,20.969 c 16.16,-9.07 29.2,-21.82 38.27,-36 l -18.99,-13.039 z m 9.35,-33.442 c 0.57,11.333 -2.83,22.961 -9.35,33.442 l 18.99,13.039 c 9.36,-14.738 14.17,-31.461 13.32,-47.898 l -22.96,1.417 z m -3.11,-15.0308 c 1.7,4.8208 2.83,9.9218 3.11,15.0308 l 22.96,-1.417 c -0.56,-7.653 -1.98,-15.0317 -4.81,-22.4028 l -21.26,8.789 z m -7.94,-14.7383 c 3.12,4.5391 5.95,9.6407 7.94,14.7383 l 21.26,-8.789 c -2.56,-7.0782 -6.52,-14.168 -11.06,-20.3985 l -18.14,14.4492 z m 9.07,-7.3711 -7.37,-9.0703 c -4.82,3.9727 -5.67,11.6211 -1.7,16.7305 3.97,5.1016 11.05,5.6602 16.16,1.6992 l -7.09,-9.3594 z m 17.57,-24.6601 c -8.5,3.6914 -17,9.0703 -24.94,15.5898 l 14.46,18.4297 c 5.95,-5.1094 12.47,-9.0664 19.27,-12.1875 l -8.79,-21.832 z m 27.22,-6.7969 c -9.36,0.5586 -18.43,3.1172 -27.22,6.7969 l 8.79,21.832 c 6.52,-2.5508 13.32,-4.539 19.84,-5.1094 l -1.41,-23.5195 z m 39.68,7.9297 c -11.9,-6.2305 -25.79,-9.0703 -39.68,-7.9297 l 1.41,23.5195 c 9.93,-0.5625 19.85,1.418 28.07,5.668 l 10.2,-21.2578 z m 28.06,27.7773 c -5.95,-11.8984 -15.87,-21.539 -28.06,-27.7773 l -10.2,21.2578 c 7.93,3.9727 14.45,10.211 18.14,17.582 l 20.12,-11.0625 z m 0.57,80.7932 c 10.49,-26.082 13.04,-54.141 -0.57,-80.7932 l -20.12,11.0625 c 9.64,19.2697 7.65,40.5277 -0.57,60.6607 l 21.26,9.07 z m -63.49,82.207 c 22.67,-18.707 49.89,-48.758 63.49,-82.207 l -21.26,-9.07 c -11.62,29.199 -36,55.839 -56.41,72.57 l 14.18,18.707 z m -13.61,10.769 c 5.1,-3.968 9.64,-7.66 13.61,-10.769 l -14.18,-18.707 c -4.82,3.969 -9.35,7.648 -13.32,10.769 l 13.89,18.707 z m -14.17,10.774 c 4.25,-2.844 9.07,-6.524 14.17,-10.774 l -13.89,-18.707 c -3.97,3.118 -8.22,6.52 -13.32,9.918 l 13.04,19.563 z m -6.52,-9.641 6.52,9.641 c 5.38,-3.692 6.52,-11.063 2.83,-16.442 -3.4,-5.39 -10.49,-6.8 -15.87,-3.121 l 6.52,9.922 z m -5.67,19.84 c 4.25,-3.961 9.07,-7.93 12.19,-10.199 l -13.04,-19.563 c -3.97,3.121 -9.92,7.653 -15.03,12.762 l 15.88,17 z m -4.54,5.668 c 0.57,-1.41 2.27,-3.398 4.54,-5.668 l -15.88,-17 c -3.97,3.957 -7.37,8.5 -9.35,13.039 l 20.69,9.629 z m -1.98,7.09 c 0,-1.699 0.56,-3.969 1.98,-7.09 l -20.69,-9.629 c -2.84,6.52 -4.25,11.899 -4.25,17.57 l 22.96,-0.851 z m 1.98,4.543 c -1.42,-1.711 -1.98,-3.41 -1.98,-4.543 l -22.96,0.851 c 0.28,5.95 2.26,11.34 5.95,17.008 l 18.99,-13.316 z m -9.64,6.797 9.64,-6.797 c -3.4,-5.391 -10.49,-6.813 -15.87,-3.121 -5.39,3.679 -6.81,11.051 -3.12,16.437 l 9.35,-6.519 z m 11.34,-4.25 c -0.85,-0.848 -1.41,-1.7 -1.7,-2.547 l -18.99,13.316 c 0.28,0.852 1.13,1.703 1.98,3.121 l 18.71,-13.89 z m 11.91,31.179 c 2.27,-9.918 -6.81,-23.527 -11.91,-31.179 l -18.71,13.89 c 2.84,4.25 8.51,11.051 8.51,11.621 l 22.11,5.668 z m -23.53,-21.546 c 1.42,5.386 2.55,10.488 1.42,15.878 l 22.11,5.668 c 2.55,-11.617 0.56,-19.558 -1.7,-28.07 l -21.83,6.524 z m -2.27,-9.633 c 0.57,3.679 1.42,6.519 2.27,9.633 l 21.83,-6.524 c -0.57,-2.547 -1.14,-5.098 -1.7,-7.648 l -22.4,4.539 z m 11.06,-2.27 -11.06,2.27 c 1.14,6.519 7.09,10.769 13.33,9.351 6.23,-1.129 10.2,-7.371 9.07,-13.89 l -11.34,2.269 z m 0.28,-26.359 c -14.17,10.48 -14.74,10.769 -11.34,28.629 l 22.4,-4.539 c -0.57,-2.828 -0.57,-2.828 1.98,-4.821 L 1695,267.051 Z m 6.52,9.629 -6.52,-9.629 c -5.38,3.679 -6.52,11.34 -2.83,16.441 3.68,5.379 10.77,6.797 15.87,2.828 l -6.52,-9.64 z m -4.82,-11.047 -1.7,1.418 13.04,19.269 1.7,-1.129 -13.04,-19.558 z m 5.95,-4.25 -5.95,4.25 13.04,19.558 5.95,-4.539 -13.04,-19.269 z m 40.54,-32.031 c -12.76,11.328 -26.65,21.539 -40.54,32.031 l 13.04,19.269 c 14.46,-10.492 28.63,-21.261 42.24,-33.453 l -14.74,-17.847 z m 36.85,-40.262 c -10.77,14.742 -23.53,28.07 -36.85,40.262 l 14.74,17.847 c 14.74,-13.039 28.63,-27.777 40.25,-43.648 l -18.14,-14.461 z m 23.53,-46.77 c -5.1,17.012 -13.32,32.602 -23.53,46.77 l 18.14,14.461 c 11.91,-16.442 21.26,-34.578 27.22,-54.418 l -21.83,-6.813 z m 11.05,3.403 -11.05,-3.684 c -1.7,6.524 1.42,13.043 7.65,15.024 5.95,1.988 12.19,-1.704 14.18,-7.93 l -10.78,-3.41 z m -10.2,-5.953 c -0.28,0.851 -0.57,1.703 -0.85,2.269 l 21.83,7.094 c 0.28,-0.852 0.56,-1.992 0.85,-3.121 l -21.83,-6.242 z m 11.05,3.121 -11.05,-3.121 c -1.7,6.242 1.7,12.761 7.94,14.46 5.95,1.981 12.18,-1.988 13.89,-8.218 l -10.78,-3.121 z m -10.48,-5.95 -0.57,2.829 21.83,6.242 c 0.56,-1.422 0.85,-2.551 0.85,-3.121 l -22.11,-5.95 z m 11.05,3.11 -0.28,-11.899 c -6.24,0 -11.06,5.668 -11.06,12.188 0,6.519 5.39,11.621 11.62,11.621 l -0.28,-11.91 z m 23.81,-6.801 c -7.65,-3.68 -15.87,-5.379 -24.09,-5.098 l 0.56,23.809 c 4.54,-0.281 9.36,0.852 13.89,3.121 l 9.64,-21.832 z m 19.28,15.313 c -5.11,-6.524 -11.91,-11.911 -19.28,-15.313 l -9.64,21.832 c 4.26,1.981 8.22,4.82 11.34,8.789 l 17.58,-15.308 z m 13.6,31.457 c -1.98,-11.899 -6.52,-22.668 -13.6,-31.457 l -17.58,15.308 c 4.25,5.379 7.37,12.469 8.51,20.41 l 22.67,-4.261 z m -1.7,36.293 c 3.12,-12.481 3.4,-24.954 1.7,-36.293 l -22.67,4.261 c 1.41,8.219 1.13,17.289 -1.14,26.36 l 22.11,5.672 z m -14.17,34.578 c 5.95,-10.77 11.34,-22.11 14.17,-34.578 l -22.11,-5.672 c -2.55,9.922 -6.8,19.558 -11.62,28.339 l 19.56,11.911 z M 1839,278.102 c 5.67,-7.942 12.19,-17.289 17.86,-27.211 L 1837.3,238.98 c -5.39,9.071 -11.05,17.583 -16.44,24.672 l 18.14,14.45 z m -44.5,49.609 c 15.3,-13.891 30.04,-30.328 44.5,-49.609 l -18.14,-14.45 c -13.32,17.848 -27.21,33.161 -41.39,46.2 l 15.03,17.859 z m -48.19,34.301 c 16.72,-8.789 32.88,-20.129 48.19,-34.301 l -15.03,-17.859 c -13.89,12.757 -28.34,22.961 -43.37,31.179 l 10.21,20.981 z m -18.43,9.347 c 5.96,-3.117 12.19,-5.949 18.43,-9.347 l -10.21,-20.981 c -5.38,2.84 -11.62,5.668 -17.57,8.5 l 9.35,21.828 z m -4.82,-11.046 4.54,11.046 c 5.67,-2.546 8.5,-9.636 5.95,-15.589 -2.55,-6.239 -9.07,-8.79 -15.02,-6.239 l 4.53,10.782 z m 4.26,11.046 0.28,0 -9.07,-21.828 8.79,21.828 z m -4.26,-10.769 4.54,10.769 c 5.67,-2.828 8.22,-9.918 5.67,-15.867 -2.55,-5.961 -9.07,-8.512 -15.02,-5.961 l 4.81,11.059 z m 4.54,10.769 0,0 -9.35,-21.828 9.35,21.828 z m -34.87,18.993 c 10.78,-7.653 22.96,-13.321 34.87,-18.993 l -9.35,-21.828 c -12.76,6.239 -26.08,12.481 -38.56,21.258 l 13.04,19.563 z m -18.14,17.859 c 4.82,-6.52 10.77,-12.469 18.14,-17.859 l -13.04,-19.563 c -9.35,6.813 -17.29,14.742 -23.24,23.254 l 18.14,14.168 z m -9.35,19.84 c 1.7,-6.801 4.82,-13.321 9.35,-19.84 l -18.14,-14.168 c -6.52,9.066 -11.05,18.707 -13.32,28.629 l 22.11,5.379 z m -11.06,-2.828 3.12,11.617 c 6.24,-1.981 9.64,-8.5 7.94,-14.738 -1.7,-6.52 -7.94,-9.922 -14.18,-8.219 l 3.12,11.34 z m -1.13,13.039 c 1.42,-0.571 2.83,-1.129 4.25,-1.422 l -6.24,-22.957 c -1.7,0.566 -3.4,1.137 -5.1,1.699 l 7.09,22.68 z m -3.97,1.418 c 1.13,-0.571 2.55,-0.848 3.97,-1.418 l -7.09,-22.68 c -1.7,0.57 -3.4,1.418 -5.38,2.27 l 8.5,21.828 z m -4.25,-11.059 -10.49,5.102 c 2.83,5.957 9.64,8.507 15.31,5.668 5.67,-2.551 8.22,-9.629 5.38,-15.59 l -10.2,4.82 z m -123.59,-61.512 c 37.13,-5.668 77.67,-11.91 113.1,66.614 l 20.69,-9.922 c -42.52,-94.668 -91.84,-87.02 -136.91,-80.219 l 3.12,23.527 z m -23.53,3.121 c 7.65,-0.57 15.59,-1.988 23.53,-3.121 l -3.12,-23.527 c -7.37,1.141 -14.74,2.27 -21.83,2.84 l 1.42,23.808 z m -0.57,-11.91 -1.13,-11.898 c -6.24,0.558 -10.77,6.23 -10.21,12.75 0.29,6.519 5.96,11.617 12.19,10.769 l -0.85,-11.621 z m 43.37,-13.89 c -15.59,-0.559 -30.89,0.57 -44.5,1.992 l 1.98,23.519 c 12.76,-1.128 27.5,-2.261 41.39,-1.699 l 1.13,-23.812 z m 45.36,11.34 c -13.33,-7.368 -29.2,-10.489 -45.36,-11.34 l -1.13,23.812 c 13.04,0.571 25.51,2.84 35.43,8.508 l 11.06,-20.98 z m 37.98,33.73 c -9.92,-13.598 -23.24,-25.219 -37.98,-33.73 l -11.06,20.98 c 11.91,6.801 22.68,16.152 30.9,27.492 l 18.14,-14.742 z m 19.56,45.359 c -2.83,-16.726 -9.64,-32.027 -19.56,-45.359 l -18.14,14.742 c 7.65,10.488 13.04,22.11 15.31,34.59 l 22.39,-3.973 z m -0.28,-0.847 c -0.29,-0.289 0.28,1.129 0.28,0.847 l -22.39,3.973 c 0.56,3.961 1.98,7.367 4.25,10.199 l 17.86,-15.019 z m -0.57,-0.289 c 0,-0.282 0.57,0.289 0.57,0.289 l -17.86,15.019 c 2.27,2.84 5.1,5.102 8.5,6.52 l 8.79,-21.828 z m -0.28,-0.282 c 0,0 0.56,0.282 0.28,0.282 l -8.79,21.828 c 3.4,1.422 6.81,1.98 10.21,1.699 l -1.7,-23.809 z m 0.85,11.911 -0.85,-11.911 c -6.24,0.571 -10.77,6.239 -10.49,12.758 0.57,6.801 5.95,11.621 12.19,11.051 l -0.85,-11.898 z m -1.14,-11.629 c -0.28,0 0.57,-0.282 0.29,-0.282 l 1.7,23.809 c 3.68,-0.277 7.08,-1.418 10.2,-3.398 l -12.19,-20.129 z m 5.96,9.929 -5.96,-9.929 c -5.38,3.41 -7.08,10.777 -3.68,16.437 3.4,5.391 10.49,7.09 15.59,3.692 l -5.95,-10.2 z m 56.12,-16.16 c -21.26,-7.09 -43.37,-6.242 -62.08,6.231 l 11.91,20.129 c 12.75,-8.219 28.06,-8.5 43.09,-3.692 l 7.08,-22.668 z m 58.4,43.649 c -15.03,-20.411 -36.29,-36.282 -58.4,-43.649 l -7.08,22.668 c 17.85,5.961 35.15,19 47.33,35.442 l 18.15,-14.461 z m 22.67,63.5 c -1.98,-23.532 -9.63,-45.641 -22.67,-63.5 l -18.15,14.461 c 10.49,14.168 16.45,32.031 18.15,51.308 l 22.67,-2.269 z m -11.34,72 c 9.36,-23.809 13.04,-48.481 11.34,-72 l -22.67,2.269 c 1.41,19.551 -1.7,40.25 -9.93,60.66 l 21.26,9.071 z m -25.79,36.851 c 11.05,-9.359 20.13,-23.25 25.79,-36.851 l -21.26,-9.071 c -4.25,10.481 -10.77,20.692 -18.7,27.211 l 14.17,18.711 z m -35.72,10.77 c 13.04,2.551 25.23,-2.27 35.72,-10.77 l -14.17,-18.711 c -5.39,4.821 -11.63,7.371 -17.58,6.239 l -3.97,23.242 z m 1.99,-11.621 -1.99,11.621 c 6.24,1.129 12.19,-3.121 13.33,-9.641 1.13,-6.23 -3.12,-12.469 -9.36,-13.601 l -1.98,11.621 z m -26.65,-2.27 c 7.09,7.09 15.02,12.192 24.66,13.891 l 3.97,-23.242 c -4.53,-0.86 -8.79,-3.969 -12.75,-7.938 l -15.88,17.289 z m -17.01,-21.262 c 5.39,7.371 10.49,14.743 17.01,21.262 l 15.88,-17.289 c -4.82,-4.82 -9.64,-11.34 -14.74,-18.43 l -18.15,14.457 z m -8.22,-11.058 c 2.55,3.121 5.39,7.09 8.22,11.058 l 18.15,-14.457 c -2.56,-3.679 -5.11,-7.371 -8.51,-11.621 l -17.86,15.02 z m -8.22,-9.629 c 2.84,3.109 5.67,6.23 8.22,9.629 l 17.86,-15.02 c -3.12,-3.968 -6.52,-7.941 -9.92,-11.621 l -16.16,17.012 z m -30.33,-20.129 c 12.19,5.098 22.4,11.906 30.33,20.129 l 16.16,-17.012 c -10.2,-10.488 -22.68,-18.711 -37.7,-25.23 l -8.79,22.113 z m -43.94,-11.344 c 16.73,2.274 31.47,5.953 43.94,11.344 l 8.79,-22.113 c -14.46,-6.239 -31.18,-10.489 -49.89,-12.758 l -2.84,23.527 z m 1.42,-11.617 -1.42,11.617 c 6.24,0.852 11.91,-3.969 12.76,-10.488 0.57,-6.52 -3.68,-12.18 -9.92,-13.039 l -1.42,11.91 z m -36,8.789 c 11.06,0.852 22.96,1.41 34.58,2.828 l 2.84,-23.527 c -12.19,-1.41 -24.38,-2.262 -36,-2.832 l -1.42,23.531 z m -0.57,0 0.57,0 1.42,-23.531 -0.28,0 -1.71,23.531 z m -0.28,0 0.28,0 1.71,-23.531 -0.57,0 -1.42,23.531 z m -47.05,-4.539 c 15.3,2.84 30.61,3.688 47.05,4.539 l 1.42,-23.531 c -15.59,-1.129 -30.33,-1.981 -44.51,-4.539 l -3.96,23.531 z m 1.98,-11.621 -1.98,11.621 c 6.23,1.141 12.19,-3.402 13.32,-9.641 0.85,-6.519 -3.12,-12.75 -9.36,-13.89 l -1.98,11.91 z m -43.94,-2.551 c 14.18,7.653 29.2,11.903 41.96,14.172 l 3.96,-23.531 c -10.77,-1.981 -23.52,-5.379 -34.86,-11.621 l -11.06,20.98 z m -28.91,-25.801 c 7.65,11.34 17.86,19.563 28.91,25.801 l 11.06,-20.98 c -8.51,-4.821 -15.88,-10.77 -21.54,-18.707 l -18.43,13.886 z m 9.07,-7.078 -9.35,7.078 c 3.68,5.114 11.05,6.524 16.15,2.551 5.11,-3.68 6.24,-11.051 2.56,-16.437 l -9.36,6.808 z m -13.61,-0.57 c 1.42,2.832 2.84,5.391 4.26,7.648 l 18.71,-13.886 c -0.85,-1.703 -1.71,-3.114 -2.56,-4.532 l -20.41,10.77 z m -3.11,-8.219 c 0.85,2.551 1.7,5.391 3.11,8.219 l 20.41,-10.77 c -0.56,-1.421 -1.41,-3.121 -1.98,-5.101 l -21.54,7.652 z m -3.12,-30.332 c -0.28,9.922 -0.57,19.84 3.12,30.332 l 21.54,-7.652 c -2.27,-6.809 -1.98,-14.738 -1.98,-22.399 l -22.68,-0.281 z m 11.34,0.281 -11.34,-0.281 c -0.28,6.52 4.82,11.903 11.05,12.192 6.52,0 11.63,-5.391 11.63,-11.911 l -11.34,0 z m -16.73,-28.91 c 5.67,7.942 5.39,18.141 5.39,28.629 l 22.68,0.281 c 0.28,-14.449 0.56,-28.91 -9.93,-43.371 l -18.14,14.461 z m 9.07,-7.371 -9.07,7.09 c 3.69,5.383 10.77,6.52 15.88,2.551 5.1,-3.969 6.23,-11.34 2.26,-16.731 l -9.07,7.09 z m -36,-12.758 c 10.49,5.668 20.98,11.629 26.93,19.848 l 18.14,-14.18 c -8.78,-12.468 -21.54,-19.558 -34.01,-26.64 l -11.06,20.972 z m -24.66,-16.441 c 7.37,6.519 16.16,11.34 24.66,16.441 l 11.06,-20.972 c -7.37,-4.258 -15.02,-8.508 -20.69,-13.61 l -15.03,18.141 z m 7.66,-9.07 -7.66,9.07 c 4.82,4.25 12.19,3.691 16.16,-1.422 4.25,-5.098 3.68,-12.469 -1.13,-16.719 l -7.37,9.071 z m -32.89,-25.789 c 6.24,13.32 14.74,25.218 25.23,34.859 l 15.03,-18.141 c -8.22,-7.09 -14.74,-16.437 -19.56,-27.211 l -20.7,10.493 z m -11.05,-45.071 c 1.13,16.149 4.82,31.461 11.05,45.071 l 20.7,-10.493 c -4.82,-11.058 -7.94,-23.25 -9.07,-36.289" /><path
         id="path150"
         style="fill:#444343;fill-opacity:1;fill-rule:nonzero;stroke:none"
         d="m 1333.87,327.426 c 2.27,28.91 13.61,54.988 32.6,71.719 15.87,14.171 40.25,20.691 53.01,38.261 13.89,19.282 3.4,41.668 10.2,62.371 1.42,4.528 3.4,9.071 5.95,12.75 15.59,22.399 43.09,31.469 63.78,35.438 15.03,2.551 30.05,3.402 46.21,4.531 11.62,0.57 23.81,1.129 35.71,2.84 35.44,4.25 62.93,15.871 80.79,34.578 6.52,6.801 12.19,14.453 17.58,21.82 10.48,14.75 20.12,28.352 34.58,30.903 20.69,3.968 39.97,-18.422 48.76,-40.532 17.85,-43.941 13.89,-91.558 -9.64,-123.878 -25.8,-35.153 -72.57,-56.122 -105.45,-34.582 -2.84,1.98 -6.52,2.269 -9.64,0.851 -3.4,-1.422 -5.67,-4.25 -6.24,-7.648 -4.81,-29.774 -25.51,-55.563 -51.87,-70.59 -22.96,-13.031 -56.98,-10.481 -83.05,-7.934 46.48,-3.398 101.19,-32.316 147.68,70.301 3.12,-1.141 6.24,-2.27 9.35,-3.398 3.97,-16.45 15.31,-32.321 32.04,-44.512 11.62,-8.5 24.37,-14.457 36.85,-20.117 5.95,-3.121 12.19,-5.961 18.14,-9.082 31.75,-17 60.94,-43.371 88.72,-80.782 11.06,-15.027 24.66,-35.148 30.05,-57.257 5.1,-21.551 1.7,-43.09 -9.64,-57.262 -8.5,-10.77 -21.82,-16.438 -34.3,-16.16 -0.56,1.98 -0.85,3.679 -1.41,5.672 -11.06,36.847 -35.72,67.179 -64.07,92.687 -15.02,13.32 -31.18,24.953 -47.34,36.852 -9.92,7.66 -10.48,7.089 -8.5,18.14 1.98,11.059 6.52,18.711 3.69,30.621 1.13,-5.39 -9.08,-19.562 -12.19,-24.101 -4.82,-7.649 -4.82,-13.891 -0.85,-23.238 3.11,-7.09 14.74,-16.161 20.69,-20.692 9.07,-6.519 18.42,-14.18 27.21,-21.262 37.7,-30.898 87.31,-93.828 60.1,-148.2496 -9.64,-19.2774 -33.17,-31.1875 -57.26,-29.4883 -15.88,1.4219 -31.75,8.5117 -45.36,19.8516 7.94,11.0468 12.76,23.5193 13.32,36.5583 1.42,27.782 -16.44,56.129 -45.35,72.571 -20.41,11.339 -42.24,11.339 -63.21,19.281 -16.16,6.226 -7.66,31.738 -13.04,47.34 -2.27,-11.91 -14.74,-58.403 5.95,-61.524 24.95,-3.398 45.92,-8.5 67.47,-20.687 17,-9.352 36.28,-30.61 35.15,-54.992 -2.84,-56.688 -82.49,-57.8286 -121.33,-46.2075 -42.52,12.7578 -72,32.8865 -94.11,55.8475 -31.18,32.313 -144.56,161 -141.73,202.391" /><path
         id="path152"
         style="fill:#ff0000;fill-opacity:1;fill-rule:nonzero;stroke:none"
         d="m 1808.1,1343.08 0,0 c -0.28,0 -2.83,-0.57 -5.1,-4.54 0,0 -2.55,-3.4 -16.16,-7.08 0,0 -11.62,-2.55 -18.43,-13.61 0,0 -5.66,-6.23 -11.62,-5.95 0,0 -17.29,0.28 -23.52,-4.82 0,0 -4.54,-2.27 -7.37,-6.24 0,0 -4.54,-3.4 -8.79,-3.68 0,0 -2.55,-0.85 -2.27,-2.84 0,0 -0.57,-1.41 1.13,-2.26 0,0 3.69,-3.12 4.82,-3.12 0.85,-0.29 9.92,-4.25 11.34,-3.97 1.42,0.57 5.95,-1.42 5.95,-1.42 l 3.97,-0.85 c 0,0 12.48,-2.83 17.86,-0.56 0,0 13.89,2.26 23.25,8.5 9.63,6.24 19.55,14.46 24.37,25.79 0,0 5.11,11.91 3.97,22.4 0,0 -1.13,3.4 -1.98,4.25 l -1.42,0 z m -46.2,22.96 0,0 c -4.26,-0.57 -8.23,-4.53 -8.23,-4.53 0,0 -2.26,-2.84 -4.81,-4.54 -2.56,-1.42 -6.81,-1.13 -6.81,-1.13 -9.35,-0.29 -12.47,-3.41 -12.47,-3.41 -6.52,-3.68 -8.5,-12.47 -8.5,-12.47 -0.57,-0.28 -1.42,-7.37 -1.42,-7.37 l -0.57,-4.82 -1.13,-5.67 c -1.99,-6.52 -5.39,-9.92 -5.67,-10.48 -0.57,-0.57 -4.54,-4.54 -4.54,-4.54 -1.13,-1.42 -0.56,-3.12 -0.56,-3.12 2.26,-2.27 11.9,0 11.9,0 7.66,-0.28 17.01,12.76 17.01,12.76 0.85,3.97 4.25,10.77 4.25,10.77 1.7,1.7 9.07,0 9.07,0 12.19,0.28 19.28,10.49 19.28,10.49 0.85,1.42 1.98,3.97 5.1,2.27 3.4,-1.71 10.77,-3.12 10.77,-3.12 l 11.91,3.4 7.08,6.23 c 0,0 2.84,2.27 3.12,3.12 0.29,0.85 -1.41,1.42 -1.41,1.42 -0.85,0.28 -3.41,-0.85 -3.97,-1.13 -0.57,-0.29 -4.82,0.28 -4.82,0.28 -0.57,0 -6.24,3.68 -6.24,3.68 l -5.95,4.82 -3.97,2.56 c -2.55,1.98 -9.07,3.68 -9.07,3.68 -1.13,0.85 -6.8,0.85 -6.8,0.85" /></g></g></svg>