<?xml version="1.0" encoding="UTF-8" standalone="no"?>
<svg
   xmlns:dc="http://purl.org/dc/elements/1.1/"
   xmlns:cc="http://creativecommons.org/ns#"
   xmlns:rdf="http://www.w3.org/1999/02/22-rdf-syntax-ns#"
   xmlns:svg="http://www.w3.org/2000/svg"
   xmlns="http://www.w3.org/2000/svg"
   viewBox="0 0 248.03751 248.03751"
   height="248.03751"
   width="248.03751"
   xml:space="preserve"
   version="1.1"
   id="svg2"><metadata
     id="metadata8"><rdf:RDF><cc:Work
         rdf:about=""><dc:format>image/svg+xml</dc:format><dc:type
           rdf:resource="http://purl.org/dc/dcmitype/StillImage" /></cc:Work></rdf:RDF></metadata><defs
     id="defs6" /><g
     transform="matrix(1.25,0,0,-1.25,0,248.0375)"
     id="g10"><g
       transform="scale(0.1,0.1)"
       id="g12"><path
         id="path14"
         style="fill:#fad7c8;fill-opacity:1;fill-rule:evenodd;stroke:none"
         d="m 1477.73,1716.12 c 1.7,6.8 0.57,22.39 -5.68,18.71 -44.21,-51.03 -141.44,-61.23 -191.05,-94.96 -11.34,-20.98 76.25,-79.66 99.5,-68.6 91.55,8.22 134.07,47.62 97.23,144.85" /><path
         id="path16"
         style="fill:#000000;fill-opacity:1;fill-rule:nonzero;stroke:none"
         d="m 1485.95,1731.14 c 0.85,-4.54 0.85,-10.2 0,-14.46 18.71,-50.17 16.71,-86.17 -2.27,-110.83 -18.72,-24.66 -53.57,-37.42 -100.91,-41.95 -10.5,-3.97 -27.22,0.28 -44.52,8.78 -12.46,6.24 -25.79,14.46 -36.84,23.25 -11.34,9.07 -20.98,18.71 -25.8,27.21 -3.97,7.37 -5.09,14.46 -1.7,20.41 l 2.27,2.55 c 20.98,14.17 49.32,24.1 78.8,34.58 41.68,14.46 85.61,30.05 110.84,58.96 l 1.7,1.42 c 1.98,1.42 4.25,1.99 6.23,1.99 4.25,0 7.38,-1.99 9.36,-5.39 1.41,-1.7 2.27,-3.97 2.84,-6.52 m -16.16,-12.76 c 0.28,0.85 0.57,1.99 0.57,3.41 -28.06,-26.65 -70.02,-41.39 -109.7,-55.28 -27.21,-9.64 -53.59,-18.99 -72.57,-31.18 0,-1.13 0.84,-3.12 1.98,-5.1 3.68,-6.81 11.91,-14.74 21.82,-22.68 10.22,-8.22 22.11,-15.59 33.75,-21.26 13.88,-6.8 26.06,-10.77 31.18,-8.22 l 2.82,0.85 c 43.38,3.97 75.13,14.74 91,35.72 15.88,20.97 16.72,53 -0.57,99.21" /><path
         id="path18"
         style="fill:#fad7c8;fill-opacity:1;fill-rule:evenodd;stroke:none"
         d="m 516.781,1730.29 c -1.703,7.37 0.278,24.38 7.09,20.13 45.918,-57.83 151.93,-72.85 204.367,-111.69 11.633,-23.53 -87.297,-84.19 -112.25,-70.87 -99.488,12.76 -144,57.26 -99.207,162.43" /><path
         id="path20"
         style="fill:#000000;fill-opacity:1;fill-rule:nonzero;stroke:none"
         d="m 508.559,1747.02 c -1.129,-4.82 -1.418,-11.06 -0.848,-15.88 -22.684,-54.14 -22.113,-93.54 -2.832,-121.32 19.269,-27.78 56.969,-43.09 108.281,-49.89 11.34,-4.82 30.051,-0.86 49.32,7.66 13.887,6.23 28.911,14.73 41.387,23.8 13.043,9.36 23.813,19.57 29.481,28.91 4.82,7.66 6.23,15.32 2.832,21.84 l -2.551,3.12 c -22.109,16.44 -52.441,28.34 -84.191,41.1 -45.071,17.57 -92.411,36.28 -118.489,68.87 l -1.98,1.98 c -2.27,1.43 -4.539,2 -6.801,2.27 l 0,-0.27 c -4.539,0.27 -7.938,-1.7 -10.488,-5.1 -1.422,-1.99 -2.551,-4.54 -3.121,-7.09 m 17.011,-14.74 c -0.293,0.85 -0.57,2.27 -0.57,3.68 29.48,-30.33 74.551,-48.18 117.359,-64.91 29.481,-11.62 57.821,-22.96 77.95,-37.14 -0.289,-1.41 -1.141,-3.11 -2.551,-5.38 -4.258,-7.37 -13.61,-15.87 -24.66,-24.09 -11.629,-8.23 -25.231,-16.16 -37.989,-21.83 -15.589,-6.81 -29.199,-10.49 -34.582,-7.65 l -3.117,1.13 c -47.34,5.95 -81.351,19.28 -97.793,42.8 -16.449,23.82 -15.879,58.68 5.383,108.29" /><path
         id="path22"
         style="fill:#000000;fill-opacity:1;fill-rule:evenodd;stroke:none"
         d="m 1241.6,1123.11 c -13.61,168.95 24.94,348.66 -40.25,506.55 -20.13,48.19 -106.87,59.25 -159.88,127.56 15.59,-611.43 -519.591,-858.611 -538.009,-882.708 14.738,22.398 46.488,52.437 65.199,97.508 -17.859,-12.469 -37.711,-23.239 -55.281,-30.887 -15.309,-6.813 -123.309,-33.742 -57.539,-3.121 82.769,38.551 120.75,128.408 111.398,114.798 -33.168,-49.04 -98.078,-55.837 -156.187,-55.837 -14.461,0 -13.891,-2.551 -14.461,0 -0.563,2.547 75.687,35.147 99.211,49.597 84.476,52.16 89.008,90.43 109.988,152.23 2.551,140.59 -8.789,280.91 17.859,436.81 39.969,229.04 305.86,234.15 407.622,184.54 96.38,6.8 204.94,-65.76 214.3,-192.19 12.19,-161.57 -6.8,-332.79 -3.97,-504.85" /><path
         id="path24"
         style="fill:#000000;fill-opacity:1;fill-rule:evenodd;stroke:none"
         d="m 981.379,1818.73 c -108.57,20.13 -203.813,-68.31 -214.582,-183.68 -21.828,-232.45 -11.617,-466.3 -17.289,-699.597 43.93,3.121 87.59,6.238 131.242,9.36 160.72,8.218 320.88,17.011 481.32,25.23 -42.23,232.437 1.42,484.437 -55.84,719.427 -42.8,174.05 -239.24,198.99 -324.851,129.26" /><path
         id="path26"
         style="fill:#000000;fill-opacity:1;fill-rule:evenodd;stroke:none"
         d="m 1046.01,1828.09 0,0 c -147.401,0 -268.444,-114.24 -268.444,-253.7 l 0,-649.984 c 0,-139.468 121.043,-253.418 268.444,-253.418 147.97,0 269.01,113.95 269.01,253.418 l 0,649.984 c 0,139.46 -121.04,253.7 -269.01,253.7" /><path
         id="path28"
         style="fill:#fdfdfd;fill-opacity:1;fill-rule:evenodd;stroke:none"
         d="m 1046.01,1815.33 0,0 c -140.604,0 -255.401,-108.28 -255.401,-240.94 l 0,-649.988 c 0,-132.382 114.797,-240.66 255.401,-240.66 140.6,0 255.68,108.278 255.68,240.66 l 0,649.988 c 0,132.66 -115.08,240.94 -255.68,240.94" /><path
         id="path30"
         style="fill:#000000;fill-opacity:1;fill-rule:evenodd;stroke:none"
         d="m 993.285,1555.96 c -17.012,7.65 -59.812,-25.23 -64.91,-4.54 -3.402,14.46 -25.52,63.5 -11.34,76.82 21.539,18.71 72,10.78 99.485,24.38 18.43,7.66 11.91,23.81 20.41,31.75 12.48,10.49 56.7,-0.85 63.78,-8.5 29.2,-24.95 -1.41,-77.39 -24.37,-98.93 -12.48,-10.49 -24.1,-26.08 -37.14,-36.57 -16.72,-13.89 -24.38,21.54 -45.915,15.59 m 192.755,-196.72 c -17.58,39.96 -60.95,79.37 -107.43,38.83 -25.23,-21.26 -28.91,-58.68 -20.41,-91.56 5.95,-24.94 14.45,-47.34 34.01,-65.2 22.68,-19.84 93.54,-13.6 102.9,20.13 5.1,20.41 13.04,30.33 6.8,55.28 -2.82,9.92 -5.39,41.95 -15.87,42.52 M 1047.43,795.992 c 39.68,0.571 77.38,8.789 110.84,22.957 2.82,5.102 5.09,11.34 7.07,18.434 6.52,32.027 -0.55,67.457 6.52,101.187 10.5,51.313 23.82,123.59 -11.05,165.26 -31.18,37.42 -98.93,78.81 -149.38,59.53 -31.188,-11.34 -20.414,-39.4 -71.715,-42.23 -34.301,-0.85 -85.039,-20.98 -91.852,-54.15 -7.929,-36 6.813,-87.589 26.93,-121.039 1.422,-4.25 71.723,-108.558 100.062,-123.019 19.559,-9.922 46.205,-20.41 72.575,-26.93" /><path
         id="path32"
         style="fill:#000000;fill-opacity:1;fill-rule:evenodd;stroke:none"
         d="m 732.781,1150.32 c 13.039,161.29 23.809,326.27 86.168,477.35 19,45.93 101.77,56.41 152.512,121.89 12.75,-137.19 337.319,-571.46 320.029,-814.107 16.16,0.852 28.06,1.418 44.5,1.699 -1.98,303.308 -285.45,567.778 -319.75,810.708 11.63,-41.38 106.59,-64.91 113.11,-107.43 43.65,-288.28 169.23,-434.55 227.34,-670.676 21.82,-0.852 98.92,-75.68 120.75,-76.82 -14.17,21.257 -36,63.218 -53.86,106.3 17.01,-11.902 35.72,-22.39 52.44,-29.761 15.03,-6.52 118.21,-32.321 55.28,-2.828 -79.09,36.845 -115.37,122.735 -106.3,109.405 31.46,-46.77 93.54,-53.29 149.1,-53.29 13.89,0 13.04,-2.27 13.61,0 0.85,2.55 -72.28,33.73 -94.68,47.62 -80.5,49.89 -85.04,86.46 -105.16,145.42 -2.27,134.36 8.5,268.44 -17.01,417.54 -38.27,218.84 -292.25,223.66 -389.481,176.32 -92.129,6.52 -195.879,-62.65 -204.949,-183.97 -11.621,-154.2 -40.821,-310.96 -43.649,-475.37" /><path
         id="path34"
         style="fill:#000000;fill-opacity:1;fill-rule:evenodd;stroke:none"
         d="m 731.645,1659.14 c -217.418,64.91 -206.93,162.99 -135.778,272.41 3.399,4.53 20.41,7.37 19.559,1.42 -11.34,-85.04 6.238,-121.89 226.488,-154.49 -30.898,-23.25 -79.367,-95.53 -110.269,-119.34" /><path
         id="path36"
         style="fill:#000000;fill-opacity:1;fill-rule:evenodd;stroke:none"
         d="m 1222.61,1659.14 c 217.42,64.91 206.65,162.99 135.78,272.41 -3.69,4.53 -20.41,7.37 -19.84,1.42 11.34,-85.04 -6.24,-121.89 -226.49,-154.49 30.9,-23.25 79.65,-95.53 110.55,-119.34" /><path
         id="path38"
         style="fill:#fdfdfd;fill-opacity:1;fill-rule:evenodd;stroke:none"
         d="m 1038.07,1774.51 c 30.33,-22.68 84.19,-44.22 99.21,-114.52 44.22,-210.33 130.11,-411.59 224.22,-560.13 -99.21,200.7 -175.46,386.93 -209.19,562.4 -17.86,91.27 -83.34,107.43 -114.24,112.25" /><path
         id="path40"
         style="fill:#fdfdfd;fill-opacity:1;fill-rule:evenodd;stroke:none"
         d="m 1040.34,1800.31 c 86.17,6.8 154.2,-36.28 173.76,-135.5 -8.78,49.61 -18.7,100.92 -64.34,125.86 -31.47,17.58 -77.67,18.14 -109.42,9.64" /><path
         id="path42"
         style="fill:#fdfdfd;fill-opacity:1;fill-rule:evenodd;stroke:none"
         d="m 974.008,1776.5 c -86.168,6.52 -154.199,-36.57 -173.758,-135.5 8.777,49.33 18.699,100.63 64.34,125.86 31.469,17.58 77.668,17.86 109.418,9.64" /><path
         id="path44"
         style="fill:#f6ae94;fill-opacity:1;fill-rule:evenodd;stroke:none"
         d="m 966.355,437.691 c 255.125,0 463.185,152.5 463.185,339.872 0,186.808 -208.06,339.587 -463.185,339.587 -254.832,0 -463.179,-152.779 -463.179,-339.587 0,-187.372 208.347,-339.872 463.179,-339.872" /><path
         id="path46"
         style="fill:#fad7c8;fill-opacity:1;fill-rule:evenodd;stroke:none"
         d="m 964.938,572.906 c 239.242,0 434.832,117.918 434.832,262.199 0,144.571 -195.59,262.215 -434.832,262.215 -239.532,0 -435.122,-117.644 -435.122,-262.215 0,-144.281 195.59,-262.199 435.122,-262.199" /><path
         id="path48"
         style="fill:#f6ae94;fill-opacity:1;fill-rule:evenodd;stroke:none"
         d="m 1173.85,831.141 c 86.74,0 157.32,60.941 157.32,135.781 0,75.118 -70.58,136.628 -157.32,136.628 -87.02,0 -157.61,-61.51 -157.61,-136.628 0,-74.84 70.59,-135.781 157.61,-135.781" /><path
         id="path50"
         style="fill:#f6ae94;fill-opacity:1;fill-rule:evenodd;stroke:none"
         d="m 764.527,831.141 c 81.352,0 148.25,56.41 148.25,125.863 0,69.156 -66.898,125.856 -148.25,125.856 -82.199,0 -148.539,-56.7 -148.539,-125.856 0,-69.453 66.34,-125.863 148.539,-125.863" /><path
         id="path52"
         style="fill:#fad7c8;fill-opacity:1;fill-rule:evenodd;stroke:none"
         d="m 1181.5,861.473 c 80.5,0 146.55,53.011 146.55,118.199 0,65.478 -66.05,118.778 -146.55,118.778 -80.79,0 -146.82,-53.3 -146.82,-118.778 0,-65.188 66.03,-118.199 146.82,-118.199" /><path
         id="path54"
         style="fill:#fcebe3;fill-opacity:1;fill-rule:evenodd;stroke:none"
         d="m 1200.78,848.719 c 62.93,0 113.95,52.719 113.95,116.789 0,64.632 -51.02,117.072 -113.95,117.072 -62.36,0 -113.67,-52.44 -113.67,-117.072 0,-64.07 51.31,-116.789 113.67,-116.789" /><path
         id="path56"
         style="fill:#a65f4a;fill-opacity:1;fill-rule:evenodd;stroke:none"
         d="m 1214.39,873.66 c 45.91,0 83.34,35.723 83.34,80.223 0,44.219 -37.43,79.937 -83.34,79.937 -45.64,0 -82.77,-35.718 -82.77,-79.937 0,-44.5 37.13,-80.223 82.77,-80.223" /><path
         id="path58"
         style="fill:#fad7c8;fill-opacity:1;fill-rule:evenodd;stroke:none"
         d="m 771.047,858.637 c 78.242,0 141.73,51.871 141.73,115.371 0,63.782 -63.488,115.372 -141.73,115.372 -78.238,0 -141.731,-51.59 -141.731,-115.372 0,-63.5 63.493,-115.371 141.731,-115.371" /><path
         id="path60"
         style="fill:#fcebe3;fill-opacity:1;fill-rule:evenodd;stroke:none"
         d="m 778.699,852.402 c 60.094,0 109.422,49.321 109.422,110.27 0,60.658 -49.328,109.978 -109.422,109.978 -60.09,0 -109.129,-49.32 -109.129,-109.978 0,-60.949 49.039,-110.27 109.129,-110.27" /><path
         id="path62"
         style="fill:#a65f4a;fill-opacity:1;fill-rule:evenodd;stroke:none"
         d="m 782.953,873.66 c 51.309,0 92.981,36.852 92.981,82.492 0,45.638 -41.672,82.768 -92.981,82.768 -51.308,0 -92.98,-37.13 -92.98,-82.768 0,-45.64 41.672,-82.492 92.98,-82.492" /><path
         id="path64"
         style="fill:#000000;fill-opacity:1;fill-rule:evenodd;stroke:none"
         d="m 1223.74,892.371 c 30.05,0 54.71,23.238 54.71,52.16 0,28.629 -24.66,52.149 -54.71,52.149 -29.48,0 -54.14,-23.52 -54.14,-52.149 0,-28.922 24.66,-52.16 54.14,-52.16" /><path
         id="path66"
         style="fill:#000000;fill-opacity:1;fill-rule:evenodd;stroke:none"
         d="m 776.719,895.488 c 34.297,0 62.078,24.942 62.078,55.282 0,30.609 -27.781,55.27 -62.078,55.27 -34.024,0 -61.512,-24.661 -61.512,-55.27 0,-30.34 27.488,-55.282 61.512,-55.282" /><path
         id="path68"
         style="fill:#e22228;fill-opacity:1;fill-rule:evenodd;stroke:none"
         d="m 1212.97,698.195 c -35.72,2.551 -77.95,53.293 -125.29,65.481 -22.11,5.672 -41.1,-45.918 -64.06,-43.367 -30.62,-5.102 -70.022,39.398 -91.28,34.578 -63.5,-14.168 -168.09,-49.602 -217.981,-34.578 l 139.461,-41.672 144,-16.442 147.69,11.063" /><path
         id="path70"
         style="fill:#e22228;fill-opacity:1;fill-rule:evenodd;stroke:none"
         d="m 900.875,541.727 c 24.938,-6.801 47.91,-18.141 68.309,-34.024 5.961,-4.808 11.058,-9.348 16.449,-14.449 16.727,-16.438 30.327,-35.149 39.677,-56.129 -9.35,20.98 -22.95,39.691 -39.677,56.129 16.727,14.172 36.567,19.562 59.817,16.16 6.79,-0.859 13.89,-2.84 21.25,-5.109 11.62,-3.969 24.66,-10.77 38.26,-20.121 5.11,-3.399 10.22,-6.809 15.88,-11.34 25.23,-19.84 41.95,-38.547 50.46,-55.84 10.77,-21.828 17.85,-41.391 20.97,-59.25 3.12,-19.84 2,-39.969 -3.39,-60.379 -8.23,-30.328 -22.97,-54.988 -44.23,-73.699 -28.06,-24.66 -63.77,-34.86 -107.72,-31.18 -39.676,3.688 -71.707,18.43 -95.516,44.508 -19.559,20.691 -30.898,45.07 -34.59,73.133 -2.269,35.148 -5.101,61.508 -8.219,78.519 0,1.129 -0.281,1.981 -0.562,3.117 -28.629,26.641 -57.828,69.161 -87.598,128.692 15.598,19.281 38.27,27.211 68.891,24.66 6.797,-0.852 13.887,-1.98 21.539,-3.398" /><path
         id="path72"
         style="fill:#fdfdfd;fill-opacity:1;fill-rule:evenodd;stroke:none"
         d="m 924.688,672.117 c 73.417,-10.199 140.312,-10.199 201.262,0.281 3.4,0.571 6.51,0.852 9.92,1.7 -0.85,-1.7 25.51,-7.649 24.66,-9.071 -24.39,-34.007 -82.49,-62.636 -135.78,-69.16 -59.242,-6.519 -154.492,-9.359 -216.285,4.821 -31.75,6.8 -32.598,35.429 -54.141,48.75 -4.539,9.921 -9.918,19.562 -15.308,29.203 -11.621,21.257 -25.508,41.668 -41.102,61.507 32.883,-32.308 108.852,-54.71 226.774,-68.031" /><path
         id="path74"
         style="fill:#000000;fill-opacity:1;fill-rule:evenodd;stroke:none"
         d="m 1104.97,484.184 c -13.61,9.347 -26.65,16.16 -38.27,20.129 -7.37,2.257 -14.45,4.25 -21.26,5.097 -23.24,3.403 -43.08,-1.988 -59.811,-16.156 -5.379,5.098 -10.488,9.637 -16.441,14.457 -20.411,15.871 -43.368,27.211 -68.309,34.012 -41.668,9.07 -71.441,1.988 -90.43,-21.262 -2.832,5.391 -5.672,10.781 -8.5,16.441 -7.371,16.45 -15.308,33.739 -23.25,52.45 l 0.289,0.281 c -6.808,20.687 -15.308,40.527 -24.668,59.808 21.547,-13.32 48.758,-22.961 80.508,-29.757 61.789,-14.18 122.461,-17.864 181.422,-11.34 53.29,6.519 92.12,26.636 116.5,60.66 0.85,1.699 2.27,3.398 3.12,5.098 34.3,6.242 61.51,13.89 81.07,23.531 -60.38,-73.422 -97.8,-144.281 -111.97,-213.449" /><path
         id="path76"
         style="fill:#e22228;fill-opacity:1;fill-rule:nonzero;stroke:none"
         d="m 897.188,387.805 c 1.421,0 2.832,0.281 4.25,0.847 2.55,1.422 3.121,3.692 1.421,5.391 -28.351,26.359 -57.832,69.16 -87.019,127.84 -3.121,5.672 -5.672,10.769 -8.512,16.441 l -3.969,9.071 c -6.23,13.609 -12.468,27.781 -18.711,42.519 0,0.281 -0.281,0.57 -0.281,0.852 -6.519,20.129 -14.738,40.25 -24.656,59.808 -4.543,10.77 -10.203,20.981 -15.313,29.481 -7.078,12.758 -14.738,25.23 -23.519,37.699 40.809,-22.391 107.43,-38.828 202.672,-49.602 73.418,-10.207 142.019,-9.918 203.529,0.563 1.7,0.289 3.4,0.57 4.82,0.57 1.7,0.278 3.4,0.57 5.1,1.129 25.51,4.539 47.34,10.211 64.91,16.449 -54.42,-68.89 -89,-136.629 -102.61,-202.121 -0.57,-2.258 1.7,-4.25 4.82,-4.25 3.12,-0.277 5.95,1.422 6.52,3.403 14.17,68.32 51.31,139.191 110.55,211.191 28.06,13.887 41.67,31.457 40.82,51.867 39.68,-5.668 72,-17.008 96.38,-33.449 2.26,-1.418 5.95,-1.418 8.22,0.281 2.27,1.418 2.27,3.688 0.28,5.391 -27.5,18.429 -64.35,30.609 -109.7,36.277 l -0.28,0.289 c -23.25,2.832 -51.31,3.973 -83.06,3.113 -3.12,0 -5.67,-1.98 -5.67,-3.96 0,-2.27 2.55,-3.692 5.67,-3.692 29.2,0.852 54.71,-0.277 76.54,-2.551 1.98,-19.277 -9.92,-35.148 -36.57,-47.91 l 0,-0.277 c -18.99,-9.07 -45.64,-16.723 -79.09,-22.68 -1.98,-0.281 -3.4,-0.562 -4.82,-0.851 -1.7,-0.282 -3.4,-0.559 -5.38,-0.848 -59.53,-10.203 -126.432,-10.203 -198.432,-0.281 -116.5,13.32 -191.618,35.429 -223.368,66.609 l -0.281,0 c -16.719,16.16 -21.832,34.301 -15.871,55.281 20.973,0 43.652,-1.703 66.891,-4.82 3.121,-0.281 6.242,0.848 6.808,2.84 0.852,2.258 -0.847,4.25 -3.968,4.527 -25.801,3.692 -50.739,5.391 -74.27,5.102 l -0.281,0 c -64.918,-1.129 -106.59,-15.871 -124.16,-43.371 -1.129,-1.981 0.281,-3.969 3.121,-4.821 2.832,-0.847 6.23,0.293 7.371,2.274 15.019,23.527 49.89,36 106.859,37.988 -5.949,-22.109 0.289,-42.238 18.149,-59.531 15.59,-20.129 29.191,-40.539 40.531,-60.66 5.101,-8.789 10.769,-18.707 15.309,-29.2 9.64,-19.281 17.57,-39.121 24.089,-58.679 0,-0.559 0,-0.852 0.293,-1.129 6.231,-15.313 12.75,-29.481 18.989,-43.371 l 4.25,-9.071 c 2.55,-5.668 5.39,-11.058 8.218,-16.437 29.762,-59.531 59.532,-103.184 88.731,-129.832 0.851,-0.852 1.98,-1.418 3.68,-1.699" /><path
         id="path78"
         style="fill:#e22228;fill-opacity:1;fill-rule:nonzero;stroke:none"
         d="m 680.992,800.219 -1.109,-4.141 c -4.75,-17.629 -1.031,-33.879 11.047,-48.39 -11.52,15.23 -14.641,32.46 -9.258,51.402 l 0.328,1.148 c -0.34,0 -0.668,-0.011 -1.008,-0.019 m 574.328,-49.68 0.15,-1.359 c 0.93,-9.071 -0.87,-17.473 -5.37,-25.184 4.87,7.07 7.14,14.66 6.81,22.742 l -0.14,3.629 c -0.08,0.012 -0.15,0.02 -0.22,0.031 l -1.23,0.141 z m -87.19,-119.422 c -32.09,-49.629 -53.36,-98.39 -63.44,-145.539 0.52,0.012 0.89,0.11 1.13,0.219 9.95,47.332 30.84,95.992 62.31,145.32 M 778.133,589.918 c 5.18,-12.719 10.597,-24.73 15.84,-36.34 l 7.207,-15.64 c 2.543,-5.641 5.32,-10.93 8.109,-16.231 23.781,-47.551 47.492,-84.777 70.711,-111.098 -22.937,26.77 -46,63.309 -68.73,108.989 -3.059,5.558 -5.637,10.711 -8.508,16.441 l -4.071,9.32 c -6.199,13.489 -12.511,27.84 -18.742,42.571 l -0.566,1.668 c -6.551,20.148 -14.703,39.89 -24.223,58.679 -3.82,9.032 -8.719,18.461 -15.129,29.153 -7.621,13.699 -15.218,25.886 -23.332,37.386 l -12.687,18.012 6.258,-3.43 c -3.5,2.571 -6.7,5.2 -9.59,7.918 l -0.008,0 -1.762,1.43 c -0.129,0.121 -0.25,0.242 -0.379,0.363 15.301,-19.89 28.449,-39.691 39.539,-59.39 5.371,-9.25 11.032,-19.211 15.551,-29.68 9.02,-18 17.219,-37.973 24.25,-59.082 l 0.262,-1.039 z m 119.058,-207.211 -0.839,0.07 c -2.692,0.442 -4.801,1.461 -6.45,3.121 -29.339,26.758 -59.582,70.942 -89.691,131.149 -2.828,5.402 -5.711,10.871 -8.309,16.641 l -7.23,15.691 c -5.231,11.598 -10.641,23.59 -15.859,36.359 -0.583,0.969 -0.782,1.942 -0.852,2.68 -6.828,20.391 -14.762,39.68 -23.59,57.32 -4.422,10.219 -9.691,19.5 -15.16,28.918 -11.34,20.133 -24.828,40.332 -40.148,60.102 -16.891,16.281 -24.024,36.09 -20.5,57.269 -51.161,-2.589 -82.661,-14.179 -96.172,-35.347 -2.121,-3.731 -8.149,-5.903 -13.141,-4.403 -3.219,0.961 -5.57,2.922 -6.598,5.512 -0.882,2.207 -0.703,4.59 0.52,6.719 18.777,29.39 61.969,44.781 128.5,45.93 l 5.43,0.039 c 22.32,0 45.847,-1.739 69.929,-5.18 3.059,-0.277 5.84,-1.828 7.352,-4.238 1.34,-2.121 1.578,-4.719 0.68,-7.141 -1.032,-3.609 -5.25,-6.191 -10.641,-6.191 l -1.41,0.07 c -22.289,2.98 -43.223,4.582 -62.473,4.762 -3.777,-17.121 0.731,-31.582 14.063,-45.09 l 1.711,-1.41 c 30.57,-30.032 104.718,-51.961 220.367,-65.192 71.742,-9.871 138.54,-9.758 196.99,0.25 2.08,0.301 3.74,0.571 5.4,0.852 1.34,0.269 2.84,0.57 4.94,0.871 31.35,5.578 56.62,12.656 75.05,21.027 l 2.55,1.481 c 22.44,10.75 33.57,23.422 33.88,38.672 -22.28,2.109 -45.69,2.808 -71.5,2.089 -6.38,0 -10.91,3.688 -10.91,8.778 0,5.011 4.83,9.07 10.77,9.07 31.1,0.859 59.74,-0.219 83.67,-3.141 l 2.09,-0.527 c 45.3,-5.859 82.34,-18.262 110.13,-36.883 2.71,-2.277 3.88,-4.886 3.69,-7.519 -0.2,-2.559 -1.69,-4.91 -4.11,-6.418 -3.1,-2.371 -9.64,-2.789 -13.65,-0.281 -22.87,15.41 -52.64,26.101 -88.69,31.859 -1.7,-19.848 -15.98,-36.668 -42.54,-50.051 -58.28,-71.008 -94.88,-141.039 -108.81,-208.129 -1.28,-4.508 -5.78,-7.5 -10.81,-7.5 l -1.18,0.063 c -2.88,-0.192 -5.98,1.367 -7.81,3.707 -1.54,1.972 -2.08,4.472 -1.49,6.851 12.79,61.52 44.21,125.739 93.44,190.93 -14.92,-4.41 -31.63,-8.281 -49.88,-11.52 -1.24,-0.48 -3.2,-0.82 -5.18,-1.152 -2,-0.066 -3.4,-0.328 -4.8,-0.558 -61.98,-10.59 -131.799,-10.77 -205.068,-0.598 -83.493,9.437 -145.063,23.148 -187.2,41.726 4.489,-7.07 8.868,-14.449 13.219,-22.289 6.57,-10.961 11.692,-20.82 15.539,-29.968 9.68,-19.051 18.082,-39.422 24.813,-60.219 l 0.398,-1.07 c 6.102,-14.411 12.281,-28.454 18.379,-41.743 l 4.012,-9.16 c 2.687,-5.371 5.211,-10.41 8.301,-16.027 28.648,-57.57 57.558,-100.102 86.019,-126.563 2,-1.988 2.867,-4.468 2.527,-6.937 -0.379,-2.731 -2.136,-5.094 -4.949,-6.652 -2.59,-1.079 -4.66,-1.481 -6.719,-1.481" /><path
         id="path80"
         style="fill:#000000;fill-opacity:1;fill-rule:nonzero;stroke:none"
         d="m 816.402,520.465 c 17.86,21.832 43.09,26.082 82.2,17.57 24.378,-6.519 46.492,-17.57 66.05,-32.879 5.668,-4.82 11.059,-9.351 16.161,-13.89 0,-0.282 0.281,-0.282 0.281,-0.282 17.008,-17.007 29.766,-35.148 38.836,-54.988 0.85,-1.992 3.97,-3.121 7.08,-2.551 3.12,0.852 4.82,3.11 3.97,5.102 -9.07,19.84 -21.54,37.699 -38.257,54.707 14.447,11.34 31.177,15.301 51.297,12.473 6.81,-0.852 13.89,-3.122 20.13,-4.821 10.49,-3.679 22.96,-10.203 36.56,-19.269 5.39,-3.692 10.49,-7.09 15.6,-11.34 24.37,-19 41.1,-37.422 49.6,-54.711 10.77,-22.109 17.58,-41.102 20.69,-58.402 3.12,-19.27 1.99,-39.399 -3.4,-59.239 -8.22,-29.761 -22.67,-53.859 -43.08,-72 -26.65,-23.531 -60.1,-33.172 -102.33,-29.48 -37.989,3.398 -68.888,17.859 -91.56,42.801 -18.707,19.847 -30.046,43.937 -33.738,71.437 -2.262,32.883 -4.531,51.871 -7.648,70.301 l -0.571,3.109 -11.332,-1.41 0.563,-3.117 c 3.117,-18.141 5.387,-36.852 7.656,-69.731 3.961,-28.921 15.871,-54.152 35.434,-74.839 24.379,-26.93 57.828,-42.52 99.206,-46.2 45.92,-3.972 84.19,6.797 113.39,32.59 21.54,19.278 36.85,44.508 45.07,75.41 5.67,20.688 6.8,41.379 3.68,61.508 -3.11,17.86 -10.2,37.422 -21.26,60.09 -9.07,18.141 -26.36,37.422 -51.59,56.981 -5.38,4.25 -10.77,8.218 -16.15,11.621 -14.46,9.918 -27.78,16.73 -39.41,20.687 -7.08,2.274 -15.02,4.543 -22.67,5.391 -23.25,3.402 -43.66,-1.129 -60.657,-13.61 -3.973,3.692 -8.23,7.09 -12.48,10.782 -20.969,16.148 -44.5,28.058 -70.582,34.859 -44.5,9.922 -70.868,8.219 -91.278,-16.719" /><path
         id="path82"
         style="fill:#e22228;fill-opacity:1;fill-rule:evenodd;stroke:none"
         d="m 684.59,1431.52 c -18.707,-7.09 -32.598,-18.71 -41.391,-34.87 -0.847,-2.26 -1.699,-3.68 -3.398,-5.1 -2.27,-5.67 -3.969,-12.19 -5.102,-19.27 -3.117,-26.93 3.973,-54.43 20.41,-82.78 30.903,-54.99 70.301,-97.22 117.922,-126.7 13.61,-9.36 27.5,-10.49 41.391,-3.12 61.789,35.43 111.68,84.75 149.949,148.53 2.828,6.52 5.102,13.89 7.09,21.26 0.559,2.84 1.129,6.24 1.699,9.64 2.551,33.73 -7.66,60.1 -30.898,78.8 -14.742,11.34 -32.879,17.3 -54.141,17.3 -30.621,-1.14 -58.68,-15.31 -84.191,-42.81 -1.7,2.84 -3.117,5.39 -4.25,7.66 -2.27,3.68 -5.391,6.8 -8.508,10.48 -8.5,7.94 -18.141,14.46 -28.34,19 -20.41,7.08 -40.262,9.35 -58.961,6.52 -6.519,-0.85 -13.039,-2.27 -19.281,-4.54" /><path
         id="path84"
         style="fill:#7b0023;fill-opacity:1;fill-rule:nonzero;stroke:none"
         d="m 638.387,1398.92 c 9.64,16.44 24.66,28.91 44.789,36.57 25.512,8.5 53.012,7.93 81.64,-2.27 10.481,-4.54 20.969,-11.34 30.039,-19.84 l 1.7,-2.27 c 2.55,-2.84 5.109,-5.67 7.371,-9.36 0.289,-0.56 0.57,-1.41 0.851,-1.98 24.95,25.23 52.438,38.55 83.34,39.69 22.399,0 41.668,-6.24 56.981,-18.15 24.09,-19.56 35.148,-47.33 32.597,-82.77 -0.289,-2.27 -0.847,-4.53 -1.14,-6.52 l -0.848,-3.68 c -2.262,-8.51 -4.531,-15.59 -7.652,-22.4 -37.7,-63.49 -88.731,-113.95 -151.367,-149.95 -3.692,-1.98 -7.372,-3.4 -11.063,-4.25 -11.898,-2.84 -23.809,-0.28 -34.859,7.37 -48.469,30.05 -88.731,73.42 -119.621,128.41 -17.008,28.91 -24.098,57.54 -20.981,85.32 1.133,7.37 2.832,14.17 5.391,20.13 0,0 1.98,4.25 2.832,5.95 m 231.019,29.48 c -22.109,-5.1 -43.082,-18.14 -62.082,-38.83 -1.129,-0.85 -2.547,-1.42 -3.957,-1.42 -1.422,0.28 -2.84,1.13 -3.41,2.27 l -1.133,1.7 c -1.129,2.26 -2.547,4.25 -3.117,5.95 -1.699,2.55 -3.68,5.1 -6.23,7.94 l -1.422,1.7 c -7.938,7.37 -17.578,13.6 -26.93,17.86 -22.68,7.93 -44.789,9.63 -65.758,4.53 -3.121,-0.57 -6.242,-1.42 -9.07,-2.55 -17.582,-6.8 -30.902,-17.86 -38.84,-32.03 -1.98,-2.27 -2.551,-4.25 -3.68,-6.24 -2.269,-5.38 -3.691,-11.05 -4.543,-17.29 -2.828,-26.08 3.692,-53.01 19.84,-80.5 30.332,-53.86 69.453,-96.1 116.793,-125.29 11.91,-8.22 24.66,-9.08 36.278,-3.12 61.23,35.43 111.121,84.75 147.972,146.55 2.551,5.95 4.821,12.75 6.809,20.41 0.281,1.13 0.558,2.27 0.558,3.4 0.571,1.98 0.852,3.97 1.141,5.95 2.551,32.88 -7.09,57.55 -29.48,75.4 -13.61,10.49 -30.899,16.16 -51.028,16.16 -6.23,0 -12.75,-0.85 -18.711,-2.55" /><path
         id="path86"
         style="fill:#000000;fill-opacity:1;fill-rule:nonzero;stroke:none"
         d="m 802.797,1146.64 c -11.91,-1.7 -23.813,1.13 -34.871,8.79 -49.039,30.33 -89.571,74.27 -121.039,130.11 -17.571,29.48 -24.66,59.24 -21.539,87.87 1.129,7.66 3.117,14.74 5.668,21.26 0,0 1.98,4.82 3.121,6.24 10.488,17.86 26.359,30.9 47.051,38.83 27.5,9.07 55.558,8.22 85.328,-2.27 11.621,-5.1 22.109,-11.9 31.742,-20.97 l 1.988,-2.55 c 1.981,-1.99 3.68,-4.25 5.672,-6.81 24.937,23.82 51.867,35.72 81.918,36.85 23.809,-0.28 44.219,-6.8 60.379,-19.27 25.512,-20.69 36.851,-49.61 34.301,-86.46 -0.289,-2.55 -0.848,-4.82 -1.418,-7.08 l -0.571,-3.69 c -2.55,-9.07 -4.82,-16.44 -7.929,-23.24 -38.563,-64.63 -90.153,-115.66 -153.364,-152.22 -4.25,-2.27 -8.218,-3.69 -12.468,-4.82 -1.418,-0.29 -2.551,-0.57 -3.969,-0.57 m -97.801,280.91 c -2.828,-0.56 -5.66,-1.13 -8.5,-1.7 -2.828,-0.56 -5.949,-1.41 -8.5,-2.55 -16.441,-6.23 -28.629,-16.44 -36.289,-30.05 -1.41,-1.7 -1.699,-2.55 -2.262,-3.68 -0.57,-0.85 -1.14,-1.7 -1.711,-2.55 -1.41,-4.25 -2.828,-9.92 -3.957,-15.88 -2.55,-24.66 3.957,-50.74 19.559,-77.38 30.039,-53.29 68.59,-94.96 115.082,-123.88 7.367,-5.1 14.738,-6.8 21.828,-5.95 3.399,0.57 6.52,1.7 9.641,3.12 60.09,34.87 109.41,83.62 145.98,144.85 2.27,5.1 4.25,11.62 6.52,19.28 0,0.56 0.281,1.41 0.281,2.55 l 0.289,1.41 c 0.277,1.42 0.559,3.12 0.848,4.54 2.269,31.18 -6.809,54.71 -27.778,71.72 -12.472,9.92 -28.632,15.02 -47.91,15.3 -5.672,-0.28 -11.621,-1.13 -17.57,-2.55 -21.262,-4.82 -41.102,-17.57 -59.531,-37.42 -1.981,-2.26 -5.098,-3.4 -8.219,-3.11 -3.121,0.56 -5.672,2.26 -7.09,4.82 l -1.133,1.7 c -1.418,2.26 -2.547,4.53 -3.398,6.23 -0.852,1.7 -3.121,3.97 -5.391,6.52 l -1.418,1.99 c -7.371,6.8 -16.152,12.75 -25.222,16.72 -18.43,6.24 -36.571,8.22 -54.149,5.95" /><path
         id="path88"
         style="fill:#fdfdfd;fill-opacity:1;fill-rule:evenodd;stroke:none"
         d="m 795.426,1175.27 c 0,0 81.64,30.05 125.289,120.19 0,0 -89.008,-101.76 -125.289,-120.19" /><path
         id="path90"
         style="fill:#e22228;fill-opacity:1;fill-rule:evenodd;stroke:none"
         d="m 703.582,1425.29 -0.57,0 c -3.399,-0.58 -6.797,-1.14 -10.489,-1.99 -6.8,-1.42 -14.742,-6.81 -18.421,-9.08 -23.809,-15.29 -34.02,-59.81 -26.079,-73.7 0,0 114.52,19.86 153.36,19.28 39.961,-0.57 161,-16.72 161,-16.72 0,0 -0.559,32.03 -13.602,51.03 -19.558,28.91 -76.258,54.98 -134.367,-4.25 -3.109,-3.41 -12.75,-11.64 -18.422,-3.7 -13.609,19.56 -35.719,47.34 -92.41,39.13" /><path
         id="path92"
         style="fill:#fdfdfd;fill-opacity:1;fill-rule:evenodd;stroke:none"
         d="m 889.254,1376.25 c 1.976,-12.2 15.867,-20.14 31.18,-18.14 15.308,2.27 26.078,13.89 24.097,26.07 -1.988,12.2 -15.879,20.41 -31.187,18.14 -15.301,-2.27 -26.071,-13.89 -24.09,-26.07" /><path
         id="path94"
         style="fill:#fdfdfd;fill-opacity:1;fill-rule:evenodd;stroke:none"
         d="m 921.566,1336.28 c 1.129,-6.52 8.5,-10.77 16.442,-9.64 7.937,1.41 13.609,7.37 12.758,13.89 -1.137,6.24 -8.508,10.77 -16.731,9.36 -7.93,-1.14 -13.597,-7.09 -12.469,-13.61" /><path
         id="path96"
         style="fill:#e22228;fill-opacity:1;fill-rule:evenodd;stroke:none"
         d="m 1185.47,1424.15 c -10.77,-3.97 -21.26,-10.2 -30.61,-17.86 -3.41,-3.68 -6.52,-6.8 -9.08,-10.49 -1.41,-2.55 -3.11,-4.82 -4.81,-7.65 -24.67,29.48 -52.73,45.64 -83.91,48.19 -21.83,1.13 -40.82,-3.97 -56.69,-14.74 -24.948,-18.14 -36.847,-44.79 -36.288,-79.65 0.289,-3.41 0.852,-6.81 1.141,-9.93 1.422,-7.65 3.398,-15.3 5.949,-22.11 35.428,-67.46 83.908,-120.47 145.128,-160.44 13.89,-7.93 28.35,-7.65 42.81,1.14 50.45,28.06 93.54,69.45 128.69,124.15 18.43,28.07 27.21,56.13 25.8,83.91 -0.85,7.37 -1.99,14.17 -4.26,20.13 -1.7,1.7 -2.26,3.11 -3.11,5.38 -8.22,17.01 -21.83,29.77 -40.54,37.99 -6.24,2.55 -12.76,4.25 -19.28,5.66 -19.27,3.69 -39.68,2.56 -60.94,-3.68" /><path
         id="path98"
         style="fill:#7b0023;fill-opacity:1;fill-rule:nonzero;stroke:none"
         d="m 1313.88,1379.93 c 1.98,-6.24 3.68,-13.32 4.25,-20.69 1.7,-28.63 -7.37,-57.83 -26.36,-86.74 -35.15,-55 -79.09,-97.23 -130.39,-125.58 -11.91,-7.37 -24.38,-9.35 -36.29,-5.95 -3.97,1.13 -7.65,2.83 -11.05,4.82 -62.36,40.53 -111.69,94.96 -146.837,162.14 -2.551,6.8 -4.82,14.46 -6.519,23.24 l -0.563,3.69 c -0.289,2.27 -0.57,4.53 -0.848,6.8 -0.57,36.57 12.469,64.63 38.258,83.34 16.439,11.34 36.569,16.73 59.809,15.87 31.75,-2.83 58.97,-18.14 83.06,-45.07 0.57,0.57 0.85,1.14 1.13,1.99 2.55,3.68 5.11,6.23 7.94,9.35 l 1.98,1.99 c 9.93,8.22 20.98,14.74 32.04,18.99 30.04,8.79 58.11,8.22 84.19,-1.99 19.84,-8.78 34.58,-22.39 43.65,-39.96 0.85,-1.42 2.55,-6.24 2.55,-6.24 m -238.11,48.76 c -6.24,1.7 -12.47,2.83 -18.99,3.4 -20.98,0.85 -38.84,-3.69 -53.58,-14.18 -23.809,-17 -35.149,-41.95 -34.579,-75.96 0.281,-1.7 0.57,-3.97 0.852,-5.96 0,-1.13 0.281,-2.26 0.281,-3.4 1.699,-8.22 3.687,-15.31 5.957,-21.26 34.299,-65.48 82.479,-118.77 143.429,-158.17 11.34,-6.8 24.38,-6.8 37.42,1.13 50.17,27.5 92.69,68.88 127.27,122.74 18.14,27.5 26.65,54.71 25.23,81.64 -0.85,6.24 -1.98,12.47 -3.68,17.86 -1.42,2.27 -1.99,4.25 -3.41,6.52 -7.65,15.31 -20.4,27.21 -38.26,35.15 -2.84,1.13 -5.96,2.27 -9.07,3.12 -21.26,6.23 -43.94,5.67 -67.75,-1.42 -9.92,-3.69 -20.13,-9.64 -28.92,-17.01 l -1.41,-1.7 c -2.55,-2.55 -5.11,-5.1 -6.81,-7.65 -0.85,-1.7 -2.26,-3.69 -3.68,-5.96 l -1.13,-1.7 c -0.86,-1.13 -2.27,-1.98 -3.69,-1.98 -1.42,-0.28 -3.12,0.28 -3.97,1.42 -18.42,22.39 -39.12,36.85 -61.51,43.37" /><path
         id="path100"
         style="fill:#000000;fill-opacity:1;fill-rule:nonzero;stroke:none"
         d="m 1127.64,1135.58 c -1.41,0.28 -2.82,0.57 -3.96,1.13 -4.25,1.14 -8.5,2.84 -12.47,5.39 -62.93,40.82 -112.823,95.81 -148.546,163.84 -2.828,7.37 -4.816,15.03 -6.797,24.38 l -0.57,3.97 c -0.281,2.27 -0.563,4.82 -0.852,7.09 -0.558,38.26 13.039,67.46 40.262,87.3 17.293,12.19 38.553,17.86 62.923,16.73 4.26,-0.29 8.78,-0.85 12.76,-1.7 25.8,-5.11 48.47,-18.43 69.45,-40.26 1.98,2.56 4.25,4.54 6.23,6.81 l 1.71,1.98 c 10.77,8.79 22.11,15.59 34.01,20.13 31.47,9.35 60.66,8.5 87.59,-1.99 21.26,-9.35 36.85,-23.52 46.49,-42.23 0.84,-1.7 2.54,-6.52 2.54,-6.52 2.28,-6.81 3.98,-14.18 4.55,-22.11 1.7,-29.77 -7.37,-59.81 -27.23,-89.29 -35.43,-55.85 -79.93,-98.65 -131.8,-127.28 -11.9,-7.09 -24.09,-9.64 -36.29,-7.37 m -61.23,290.55 c -3.39,0.57 -6.79,1.14 -10.2,1.42 -19.55,0.85 -36.28,-3.69 -49.89,-13.32 -22.675,-16.16 -33.164,-39.69 -32.875,-72 0.282,-1.42 0.563,-3.41 0.852,-5.11 0.277,-1.98 0.277,-3.11 0.277,-4.25 1.703,-7.65 3.684,-14.46 5.672,-20.12 34.014,-64.35 81.644,-117.08 141.454,-155.91 9.62,-5.39 21.26,-5.39 32.03,1.13 49.61,27.5 91.84,68.32 125.86,121.61 17.57,26.36 25.79,53.01 24.37,78.8 -0.57,5.96 -1.7,11.63 -3.41,16.73 -0.27,0.28 -0.55,1.41 -1.12,2.27 -0.29,1.13 -0.86,1.98 -1.7,3.4 -7.37,14.74 -19.28,25.79 -36,33.45 -2.55,0.85 -5.68,1.98 -8.52,2.83 -20.11,5.67 -42.23,5.39 -64.91,-1.42 -9.34,-3.4 -18.7,-9.07 -26.92,-16.15 l -1.13,-1.14 c -2.84,-2.83 -5.11,-5.38 -6.52,-7.37 -0.28,-1.13 -1.7,-3.4 -3.41,-5.67 l -1.13,-1.7 c -1.71,-2.55 -4.53,-4.25 -7.65,-4.53 -3.4,0 -6.24,1.41 -8.22,3.68 -17.59,21.26 -37.43,35.15 -58.96,41.39 -2.56,0.85 -5.4,1.41 -7.95,1.98 M 1304.25,1389 c 0.85,-1.42 1.41,-2.55 1.98,-3.97 0.29,-0.28 0.57,-0.85 0.84,-1.42 l 0,0.57 c -0.84,1.7 -1.97,3.12 -2.82,4.82" /><path
         id="path102"
         style="fill:#fdfdfd;fill-opacity:1;fill-rule:evenodd;stroke:none"
         d="m 1136.72,1161.09 c 100.63,37.98 137.76,128.98 137.76,128.98 -21.82,-34.3 -137.76,-128.98 -137.76,-128.98" /><path
         id="path104"
         style="fill:#e22228;fill-opacity:1;fill-rule:evenodd;stroke:none"
         d="m 1246.42,1416.5 -0.28,0 -0.29,0.28 c -57.82,11.34 -81.92,-16.15 -97.23,-35.71 -6.23,-7.66 -15.59,1.41 -18.7,4.82 -56.13,63.78 -115.94,40.25 -137.772,11.33 -14.449,-18.7 -17.011,-51.59 -17.011,-51.59 0,0 123.033,9.36 164.133,7.66 39.97,-1.42 158.74,-26.36 158.74,-26.36 9.07,13.6 1.13,60.09 -22.39,76.81 -3.69,2.56 -11.63,8.51 -18.43,10.21 -3.68,1.13 -7.37,1.98 -10.77,2.55" /><path
         id="path106"
         style="fill:#fdfdfd;fill-opacity:1;fill-rule:evenodd;stroke:none"
         d="m 1225.16,1387.02 c -2.55,-12.2 7.65,-24.66 22.96,-27.79 15.59,-2.82 30.33,4.55 33.17,17.02 2.55,12.19 -7.66,24.66 -22.96,27.78 -15.6,2.83 -30.34,-4.55 -33.17,-17.01" /><path
         id="path108"
         style="fill:#fdfdfd;fill-opacity:1;fill-rule:evenodd;stroke:none"
         d="m 1255.49,1326.64 c -1.42,-6.52 3.97,-13.04 11.91,-14.74 8.22,-1.42 15.87,2.55 17.57,9.07 1.42,6.52 -3.97,13.04 -12.19,14.46 -8.22,1.7 -15.87,-2.27 -17.29,-8.79" /><path
         id="path110"
         style="fill:#000000;fill-opacity:1;fill-rule:nonzero;stroke:none"
         d="m 917.539,217.113 c -8.41,-12.148 -9.371,-19.55 -8.41,-22.14 0.398,-1.071 2.07,-1.192 2.769,-1.192 1.7,0 3.411,0.684 4.442,1.782 1.199,1.269 1.719,3.281 1.57,5.992 -0.332,5.508 -0.43,10.699 -0.371,15.558 m -5.641,-53.379 c -14.109,0 -26.257,8.168 -30.937,20.797 -6.043,16.274 -2.391,44.992 49.238,89.383 5.321,4.57 13.102,4.84 18.731,0.668 5.64,-4.168 7.64,-11.699 4.808,-18.109 -0.027,-0.078 -7.828,-19.078 -5.828,-53.18 0.617,-11 -2.832,-21.059 -9.722,-28.359 -6.719,-7.121 -16.297,-11.2 -26.29,-11.2" /><path
         id="path112"
         style="fill:#009fe2;fill-opacity:1;fill-rule:evenodd;stroke:none"
         d="m 932.906,202.418 c 2.551,-44.789 -93.832,-26.648 7.09,60.09 0,0 -9.359,-21.262 -7.09,-60.09" /><path
         id="path114"
         style="fill:#000000;fill-opacity:1;fill-rule:nonzero;stroke:none"
         d="m 938.766,93.6641 c -9.993,0 -18.86,5.25 -23.719,14.0629 -8.25,14.968 -3.852,36.168 13.098,63.027 3.66,5.812 10.789,8.383 17.308,6.281 6.531,-2.109 10.813,-8.371 10.391,-15.219 0,0 -0.25,-11.461 7.41,-30.261 3.769,-9.008 3.101,-18.539 -1.891,-26.032 -4.937,-7.4292 -13.386,-11.8589 -22.597,-11.8589" /><path
         id="path116"
         style="fill:#009fe2;fill-opacity:1;fill-rule:evenodd;stroke:none"
         d="m 949.348,125.883 c 10.769,-25.801 -50.172,-29.1994 -8.5,36.847 0,0 -0.852,-13.886 8.5,-36.847" /><path
         id="path118"
         style="fill:#000000;fill-opacity:1;fill-rule:nonzero;stroke:none"
         d="m 1137.91,112.23 c 0.06,-4.859 -0.05,-10.058 -0.37,-15.5816 -0.16,-2.6875 0.37,-4.6992 1.56,-5.957 1.04,-1.1133 2.75,-1.793 4.44,-1.793 0.71,0 2.38,0.1211 2.78,1.1914 0.96,2.5899 0,9.9882 -8.41,22.1402 m 5.63,-53.3784 0,0 c -9.99,0 -19.57,4.0781 -26.28,11.1992 -6.89,7.3008 -10.35,17.3594 -9.72,28.3281 2,34.1331 -5.8,53.1331 -5.88,53.3121 -2.71,6.43 -0.65,13.918 4.98,18.028 5.62,4.082 13.31,3.851 18.61,-0.688 51.63,-44.39 55.28,-73.1091 49.24,-89.3904 -4.69,-12.6211 -16.82,-20.789 -30.95,-20.789" /><path
         id="path120"
         style="fill:#009fe2;fill-opacity:1;fill-rule:evenodd;stroke:none"
         d="m 1122.54,97.5352 c -2.55,-44.7891 93.84,-26.6485 -7.09,60.0898 0,0 9.36,-21.258 7.09,-60.0898" /><path
         id="path122"
         style="fill:#000000;fill-opacity:1;fill-rule:nonzero;stroke:none"
         d="m 985.152,226.664 c 26.158,-47.801 31.828,-83.973 17.358,-110.531 -12.748,-25.84 -10.998,-34.6017 -10.518,-36.0783 0.469,-1.3906 6.129,-2.4609 12.938,-2.1016 12.87,1.1289 22.3,3.7188 28.3,7.8594 0.6,0.4297 5.83,5.6094 7.12,35.6215 2.33,31.437 15.11,56.789 38.01,75.82 23.88,19.57 35.61,27.84 43.74,30.758 0.31,0.16 0.58,0.32 0.87,0.48 0.82,0.449 1.65,0.879 2.58,1.332 6.6,4.36 11.08,11.02 13.71,20.328 0.68,2.391 1.94,4.582 3.67,6.36 1.39,1.953 3.23,3.562 5.44,4.672 22.9,11.558 37.33,38.25 42.91,79.32 0.14,2.73 -0.35,4.918 -0.97,5.43 -4.88,3.98 -7.85,4.461 -9.66,4.461 -1.36,0 -1.67,0 -2.33,-1.372 -6.56,-16.789 -18.91,-19.32 -25.73,-19.32 -2.73,0 -4.97,0.602 -8.08,1.43 l -3.78,1 c -0.1,0.019 -0.2,0.051 -0.3,0.082 -0.85,-1.5 -1.9,-3.402 -3.17,-5.82 -5.29,-10.59 -9.94,-18.672 -13.68,-23.743 -2.24,-2.879 -6.45,-11.121 -11.32,-20.66 l -1.57,-3.07 c -9.93,-18.277 -26.16,-27.75 -47.11,-27.75 -5.44,0 -15.71,1.23 -41.93,11.871 -6.29,2.309 -12.15,3.57 -16.99,3.57 -7.73,0 -12.32,-3.148 -15.847,-10.898 -4.172,-9.801 -5.411,-19.434 -3.661,-29.051 M 1001.97,47.8242 c -26.7,0 -35.568,14.2305 -38.49,22.7188 -4.609,14.25 -0.66,33.059 12.36,59.441 9.383,17.231 3.031,46.118 -18.09,84.129 -0.699,1.25 -1.211,2.61 -1.52,4.008 -3.679,16.402 -1.968,33.133 5.09,49.703 12.219,26.797 37.789,35.559 71.18,23.231 23.12,-9.371 29.94,-9.84 31.08,-9.84 10.06,0 16.01,3.398 20.54,11.719 l 1.38,2.718 c 6.48,12.7 10.4,20.371 14.16,25.172 1.26,1.719 4.74,7.047 10.87,19.289 6.46,12.289 13,24.719 25.9,24.719 4.28,0 8.69,-1.309 13.74,-4.117 l 0.41,-0.102 c 0.08,0.192 0.17,0.399 0.26,0.59 5.62,12.219 16.48,19.231 29.81,19.231 10.04,0 19.46,-3.7 28.78,-11.332 8.76,-7.289 12.67,-17.911 11.72,-31.661 -6.74,-49.867 -25.07,-83.386 -54.59,-100.558 -5.12,-14.449 -13.81,-25.551 -25.89,-33.051 -0.64,-0.398 -1.32,-0.75 -2.01,-1.051 -0.49,-0.199 -0.86,-0.429 -1.24,-0.636 -1.17,-0.653 -2.36,-1.274 -3.86,-1.922 -0.45,-0.192 -0.91,-0.36 -1.36,-0.5 -2.25,-0.809 -9.81,-5.239 -34.72,-25.649 -16.53,-13.742 -25.44,-31.562 -27.14,-54.402 -1.42,-33.0978 -7.6,-50.879 -20.65,-59.0001 -9.96,-6.8672 -23.7,-11.0274 -42.63,-12.6875 -2.07,-0.1211 -3.6,-0.1602 -5.09,-0.1602" /><path
         id="path124"
         style="fill:#009fe2;fill-opacity:1;fill-rule:evenodd;stroke:none"
         d="m 1199.93,357.473 c 5.1,-4.25 6.8,-10.77 6.24,-18.989 -6.24,-45.921 -22.96,-76.543 -51.03,-90.711 0,-0.57 -0.56,-0.851 -1.41,-1.699 -3.69,-13.043 -10.49,-22.961 -20.98,-29.48 -1.99,-0.852 -3.12,-1.699 -5.1,-2.551 -6.24,-1.988 -19.28,-11.629 -39.69,-28.352 -20.12,-16.718 -30.61,-38.269 -32.6,-64.91 -1.13,-26.3669 -5.38,-42.238 -13.6,-47.3396 -8.22,-5.668 -19.85,-9.0703 -36,-10.4883 -15.588,-0.8515 -24.951,3.3985 -28.069,12.4688 -3.113,9.6406 0.571,25.5121 11.629,47.9101 11.9,21.832 5.668,54.711 -18.429,98.082 -3.121,13.891 -1.422,27.207 4.25,40.527 8.789,19.282 26.079,24.661 52.159,15.032 18.14,-7.371 30.05,-10.782 36.28,-10.782 15.59,0 26.65,6.524 33.74,19.563 6.8,13.328 11.05,21.828 14.17,25.801 3.12,4.25 7.37,11.617 12.47,21.828 5.67,10.769 9.36,16.441 12.47,16.441 1.7,0 4.26,-0.851 7.94,-3.121 4.54,-1.14 7.09,-1.988 8.22,-1.988 5.67,0 9.36,3.406 11.91,10.207 3.12,6.801 8.5,10.492 16.15,10.492 6.81,0 13.04,-2.84 19.28,-7.941" /></g></g></svg>