<?xml version="1.0" encoding="UTF-8" standalone="no"?>
<svg
   xmlns:dc="http://purl.org/dc/elements/1.1/"
   xmlns:cc="http://creativecommons.org/ns#"
   xmlns:rdf="http://www.w3.org/1999/02/22-rdf-syntax-ns#"
   xmlns:svg="http://www.w3.org/2000/svg"
   xmlns="http://www.w3.org/2000/svg"
   viewBox="0 0 248.03751 248.03751"
   height="248.03751"
   width="248.03751"
   xml:space="preserve"
   version="1.1"
   id="svg2"><metadata
     id="metadata8"><rdf:RDF><cc:Work
         rdf:about=""><dc:format>image/svg+xml</dc:format><dc:type
           rdf:resource="http://purl.org/dc/dcmitype/StillImage" /></cc:Work></rdf:RDF></metadata><defs
     id="defs6" /><g
     transform="matrix(1.25,0,0,-1.25,0,248.0375)"
     id="g10"><g
       transform="scale(0.1,0.1)"
       id="g12"><path
         id="path14"
         style="fill:#51669c;fill-opacity:1;fill-rule:evenodd;stroke:none"
         d="m 573.898,996.543 c -12.468,-76.25 -68.031,-121.32 -68.031,-194.168 0,-39.973 15.02,-37.699 27.492,-82.211 -55.55,-12.75 -90.703,-18.988 -74.55,-87.871 -25.219,-36.848 -15.301,-30.051 -8.219,-80.219 -19.274,-66.898 7.656,-129.261 50.457,-185.39 74.551,-98.079 164.98,-170.93 248.601,-212.879 42.231,-20.981 87.872,-33.172 130.11,-47.91 119.898,-41.3794 234.422,-61.2192 329.672,-36.2817 67.46,17.289 138.61,78.8007 202.11,155.0627 55.56,67.179 68.03,95.519 87.87,134.929 36.57,44.219 110.55,138.61 138.9,223.079 29.2,87.031 -36,189.359 -100.91,246.05 -47.91,96.09 -94.68,144.282 -164.7,185.666 -78.23,46.21 -119.62,54.14 -173.19,43.94 -27.5,-5.11 -53.58,-18.71 -98.37,-26.93 L 796.988,990.305" /><path
         id="path16"
         style="fill:#344776;fill-opacity:1;fill-rule:evenodd;stroke:none"
         d="m 531.945,724.699 c 0.571,-1.418 0.852,-2.828 1.418,-4.539 -55.558,-12.75 -90.707,-18.988 -74.547,-87.871 -25.23,-36.848 -15.312,-30.047 -8.222,-80.219 -19.278,-66.898 7.652,-129.257 50.453,-185.39 74.547,-98.071 164.976,-170.918 248.598,-212.879 42.242,-20.969 87.871,-33.16 130.109,-47.899 119.91,-41.3903 234.426,-61.2301 329.676,-36.2926 67.46,17.2929 138.61,78.8126 202.11,155.0626 55.55,67.18 68.03,95.527 87.87,134.93 36.57,44.218 110.55,138.609 138.89,223.078 24.66,73.422 -17.85,157.609 -70.57,216.293 26.93,-50.743 44.79,-99.782 39.97,-119.34 -19.84,-84.473 -182,-240.66 -255.4,-286.024 -105.46,-64.91 -242.66,-88.148 -358.597,-79.929 -58.668,4.25 -112.816,16.722 -171.207,36 21.539,-24.379 96.949,-106.867 130.68,-102.328 82.774,10.48 76.254,7.929 163.554,11.898 78.81,3.402 177.73,24.383 260.79,69.73 32.89,17.86 95.53,76.54 138.34,120.481 39.1,40.25 63.48,65.762 55.55,47.051 C 1548.73,444.07 1499.7,390.5 1438.75,343.16 c -49.89,-38.84 -108,-73.418 -166.39,-99.777 -17.02,-7.66 -52.16,-24.953 -57.54,-18.141 -5.12,6.801 34.57,29.188 20.97,42.52 -5.95,5.66 -85.61,-31.75 -125.58,-40.262 -58.1,-12.187 -114.233,-8.219 -167.245,5.391 C 768.926,277.391 619.254,438.402 508.414,544.422 623.504,404.949 696.074,286.18 804.074,226.09 1005.61,114.402 1238.91,168.539 1378.38,246.5 1377.52,179.883 1247.13,122.902 1185.34,103.063 1042.75,57.7109 884.297,129.711 796.137,169.68 c -97.801,44.222 -171.782,93.261 -232.731,166.39 -49.32,58.961 -106.859,101.481 -92.972,184.539 27.211,-45.636 61.23,-107.718 117.64,-171.218 56.692,-63.782 118.199,-109.981 149.102,-128.692 -30.332,32.602 -45.922,62.653 -111.973,143.153 -67.457,81.64 -134.359,157.32 -144.848,196.718 -5.671,22.11 -17.011,18.43 -5.39,41.672 32.32,-25.512 45.07,-49.32 75.969,-75.679 39.402,-34.024 101.769,-86.461 159.589,-135.5 32.883,-28.063 71.153,-49.321 92.981,-65.762 17.859,-13.321 15.312,11.621 9.351,24.941 -1.98,4.821 -36.281,30.899 -84.75,68.598 -66.332,51.883 -148.25,127.281 -164.98,142.582 -40.25,36.848 -77.102,65.769 -79.371,94.109 -1.981,24.668 29.48,32.602 50.742,45.641 6.238,3.687 -4.25,15.59 2.84,18.988" /><path
         id="path18"
         style="fill:#344776;fill-opacity:1;fill-rule:evenodd;stroke:none"
         d="m 537.898,903.566 c -16.441,-31.75 -32.031,-62.648 -32.031,-101.199 0,-39.969 15.02,-37.699 27.492,-82.199 l -9.921,-2.27 c 7.66,-20.98 17.582,-41.101 33.171,-58.679 32.028,-35.711 84.469,-45.352 127.559,-81.352 13.039,-11.058 23.531,-31.179 37.129,-41.672 37.992,-30.047 69.449,9.922 85.891,-65.476 5.949,-26.364 49.32,-67.461 53.582,-61.801 5.378,7.367 -4.262,28.348 -15.032,48.48 -9.922,18.707 -10.492,26.637 23.532,22.387 139.46,-17.289 179.15,-62.93 369.92,-34.297 116.51,17.289 240.1,60.098 286.02,142.02 33.16,59.238 31.46,123.871 18.42,177.73 -14.45,58.957 -74.55,151.09 -109.98,205.789 -18.43,16.161 -38.55,30.053 -60.95,43.373 -19.56,11.63 -36.56,20.7 -52.15,27.78 l 8.22,-7.93 c 68.88,-55.562 142.01,-131.254 176.31,-219.121 35.43,-90.992 30.9,-191.621 -48.47,-260.793 -16.44,-14.449 -36,-27.488 -58.96,-38.828 -25.23,-12.192 -8.79,41.379 5.95,82.199 24.38,67.75 -8.5,42.801 -55.56,4.82 -25.51,-20.41 -43.37,-38.55 -68.6,-52.441 -111.97,-61.801 -256.53,-75.117 -381.823,-36.57 -192.48,58.679 -334.211,137.203 -369.359,267.589 -10.199,37.141 -1.418,76.543 9.64,122.461" /><path
         id="path20"
         style="fill:#344776;fill-opacity:1;fill-rule:evenodd;stroke:none"
         d="m 1404.73,820.512 c -17.29,-73.129 2.83,-188.219 -15.87,-256.539 9.92,30.898 25.22,97.519 28.06,128.41 10.49,112.539 12.47,211.187 -75.69,278.648 11.91,-49.89 40.54,-90.429 30.05,-120.758 -23.81,-69.16 -119.34,-103.742 -263.34,-134.07 -117.346,-24.383 -223.077,-32.043 -299.045,1.699 -110.84,49.321 -198.43,157.602 -236.411,271.27 -2.839,-14.168 -7.371,-27.211 -12.472,-39.68 16.152,-58.679 55.84,-126.429 108.851,-181.14 123.59,-127.559 297.629,-159.872 448.717,-133.231 138.05,24.102 198.71,97.231 287.15,185.391" /><path
         id="path22"
         style="fill:#172952;fill-opacity:1;fill-rule:evenodd;stroke:none"
         d="m 1404.73,820.512 c -17.29,-73.129 0.57,-187.649 -15.87,-256.539 -7.37,-31.743 18.99,116.23 21.82,147.121 10.49,112.25 -5.67,187.09 -69.45,259.937 25.52,-40.82 53.01,-96.66 42.52,-126.988 -23.52,-69.172 -125.29,-133.23 -269,-163.281 -117.637,-24.66 -249.738,-3.969 -325.695,29.769 -110.563,49.321 -178.024,147.11 -216.012,260.782 -2.828,-14.172 -3.68,3.398 -8.781,-9.071 15.871,-58.672 61.23,-134.64 113.953,-189.07 123.59,-127.559 284.316,-142.301 435.395,-115.649 138.05,24.09 202.68,74.829 291.12,162.989" /><path
         id="path24"
         style="fill:#172952;fill-opacity:1;fill-rule:evenodd;stroke:none"
         d="m 533.363,720.168 c -55.558,-12.762 -90.711,-18.992 -74.55,-87.871 -25.231,-36.852 -15.309,-30.051 -8.219,-80.223 -19.281,-66.898 7.648,-129.258 50.461,-185.386 74.547,-98.083 164.968,-170.93 248.59,-212.883 42.238,-20.981 87.878,-33.168 130.109,-47.91 119.91,-41.3794 234.426,-61.227 329.666,-36.5591 67.47,17.5704 138.62,79.0821 202.11,155.3321 55.56,67.187 68.03,95.527 87.88,134.93 36.56,44.218 110.55,138.617 138.89,223.09 19.28,57.257 -2.26,121.039 -37.98,174.328 23.24,-38.828 30.9,-58.11 26.08,-77.668 -20.69,-82.493 -188.79,-271.274 -262.21,-316.633 -105.44,-64.91 -255.11,-79.938 -371.327,-71.43 -58.679,3.973 -89.011,28.34 -147.41,47.34 21.551,-24.379 102.621,-64.07 136.352,-59.809 82.765,10.481 49.885,-9.082 137.475,-5.109 78.8,3.398 171.5,30.617 254.84,75.969 99.78,54.711 210.33,218.551 265.32,309.551 4.82,-97.801 -103.47,-262.211 -202.11,-337.61 -42.24,-32.32 -103.75,-82.769 -181.42,-105.449 -17.86,-5.391 -51.31,-6.523 -56.41,0.277 -5.1,6.52 49.89,37.993 36.29,51.313 -5.96,5.668 -58.97,-55.281 -99.22,-63.781 -57.82,-12.192 -165.257,0.847 -218.265,14.168 C 744.262,262.656 613.012,433.586 508.422,544.418 623.504,404.957 703.441,306.305 811.723,246.215 c 116.218,-64.348 265.887,-71.438 378.427,-51.309 146.27,26.078 246.33,98.078 294.52,151.649 -15.59,-22.11 -53.01,-85.321 -101.77,-138.61 -43.08,-47.058 -97.51,-100.629 -161,-119.6208 C 1117.58,57.1445 978.973,70.1875 795.004,153.516 697.492,197.457 600.543,264.637 539.602,337.777 c -49.329,58.957 -99.5,115.649 -77.957,202.668 27.218,-45.347 81.636,-118.199 138.046,-181.699 56.692,-63.781 106.582,-119.34 137.481,-138.039 -30.328,32.59 -65.758,60.09 -131.809,140.309 -67.461,81.922 -138.609,168.949 -149.101,208.351 -5.668,22.11 -3.969,35.43 7.929,58.668 32.043,-25.508 60.383,-65.758 91.282,-92.41 39.398,-34.008 99.5,-81.918 157.32,-130.957 4.262,-3.684 82.488,-65.762 96.379,-68.594 5.391,-1.136 -40.82,39.114 -89.008,76.531 -66.609,52.161 -145.98,126.711 -162.711,142.02 -40.25,36.852 -89.57,79.652 -91.551,108.281 -2.269,29.199 16.719,34.02 55.84,51.871 3.68,1.707 7.371,3.688 11.621,5.391" /><path
         id="path26"
         style="fill:#172952;fill-opacity:1;fill-rule:evenodd;stroke:none"
         d="m 537.898,903.566 c -16.441,-31.75 -32.031,-62.648 -32.031,-101.199 0,-39.969 15.02,-37.699 27.492,-82.199 38.559,-77.672 65.77,-62.652 150.52,-133.801 13.039,-11.051 27.777,-37.699 41.109,-48.191 37.981,-29.758 73.41,31.191 89.852,-44.219 5.957,-26.359 41.668,-90.699 45.93,-85.039 5.378,7.367 -13.891,35.437 -24.672,55.559 -9.918,18.711 -13.602,38.55 20.41,34.3 139.469,-17.289 194.462,-68.031 385.232,-39.398 116.79,17.578 204.38,34.297 250.59,116.219 32.88,58.961 36.85,142.871 23.81,196.73 -14.18,58.957 -47.06,144 -82.49,198.699 -18.43,16.161 -38.55,30.053 -60.95,43.373 46.77,-42.232 63.5,-64.912 115.37,-198.142 35.44,-90.992 26.08,-200.41 -47.05,-275.813 -15.88,-16.437 -34.58,-32.879 -57.55,-44.218 -25.22,-12.192 -12.75,55.839 1.99,96.66 24.38,67.75 20.12,56.98 -9.92,4.25 -16.16,-28.059 -53.86,-59.52 -78.81,-73.41 -111.96,-61.508 -272.97,-59.25 -398.55,-20.7 -192.473,58.68 -346.114,149.961 -381.543,280.352 -9.918,37.129 10.203,74.269 21.261,120.187" /><path
         id="path28"
         style="fill:#15274d;fill-opacity:1;fill-rule:evenodd;stroke:none"
         d="m 1228.42,870.684 c 28.06,32.882 48.76,45.921 51.02,82.769 2.55,42.524 -20.12,70.027 -43.65,95.817 -60.94,66.62 -179.43,87.87 -265.61,83.34 -147.403,-7.66 -400.25,-34.86 -393.453,-142.864 8.511,-140.043 243.222,-284.601 495.503,-233.301 72.85,14.739 96.38,44.508 156.19,114.239" /><path
         id="path30"
         style="fill:#5f77b3;fill-opacity:1;fill-rule:evenodd;stroke:none"
         d="m 664.605,835.82 c 84.192,-82.492 117.922,-90.711 173.481,-110.832 90.711,-32.89 232.444,-17.578 343.564,22.961 140.03,51.02 203.81,80.781 160.44,193.039 -26.36,68.032 -4.25,48.473 25.8,6.231 94.96,-133.231 78.8,-208.91 47.33,-353.199 -7.37,-33.731 -11.62,-43.93 -8.22,-46.2 3.69,-2.832 15.59,5.098 26.08,40.25 37.42,126.141 35.15,245.481 -44.79,359.438 -45.35,64.632 -83.05,43.371 -127.27,96.942 12.76,-32.03 22.39,-48.762 28.06,-74.552 8.51,-37.988 -10.49,-65.757 -28.63,-94.96 -19.56,-31.75 -40.53,-75.969 -107.71,-104.879 -74.27,-32.039 -208.924,-56.7 -321.174,-18.43 -48.757,16.73 -79.371,9.922 -166.961,84.191" /><path
         id="path32"
         style="fill:#5f77b3;fill-opacity:1;fill-rule:evenodd;stroke:none"
         d="m 563.977,884.008 c -13.61,-56.981 -5.391,-104.602 17.57,-144.852 123.031,-214.578 444.193,-217.418 569.493,-204.379 111.11,11.621 178.58,62.36 209.19,115.661 32.32,55.839 22.96,88.718 24.1,112.812 -45.92,-55.562 -105.74,-98.641 -177.74,-125 C 876.637,517.488 651.285,707.977 563.977,884.008" /><path
         id="path34"
         style="fill:#5f77b3;fill-opacity:1;fill-rule:evenodd;stroke:none"
         d="M 699.473,470.719 C 903.852,308.578 1053.8,300.918 1242.02,361.297 c 115.94,37.422 166.96,83.91 250.58,159.308 -92.97,-50.167 -159.87,-78.796 -266.45,-98.648 -58.68,-11.051 -118.49,-10.769 -199.56,0 -76.246,10.488 -143.719,39.121 -148.246,36.289 -22.403,-14.18 33.73,-74.84 28.629,-76.25 -10.211,-2.84 -19.852,-3.41 -28.629,-2.269 -56.981,6.519 -59.25,109.98 -104.039,128.691 -69.442,29.199 -62.364,13.891 -110.551,55.559 -47.902,40.82 -119.34,78.519 -128.691,102.902 -18.418,2.269 -34.872,-11.91 -26.079,-32.602 16.161,-37.699 151.938,-136.058 190.489,-163.558" /><path
         id="path36"
         style="fill:#5f77b3;fill-opacity:1;fill-rule:evenodd;stroke:none"
         d="M 482.055,487.156 C 524.297,340.609 687.566,209.648 829.867,151.539 1008.45,78.6875 1260.16,86.6172 1355.7,219.566 1187.32,131.406 935.035,106.746 743.695,260.668 677.645,313.398 622.656,390.219 545.836,482.059 620.105,382.848 677.367,291.566 768.355,201.43 657.516,239.129 548.664,380.289 482.055,487.156" /><path
         id="path38"
         style="fill:#0f1c39;fill-opacity:1;fill-rule:evenodd;stroke:none"
         d="m 1228.42,870.684 c 28.06,32.882 48.76,45.921 51.02,82.769 0.85,16.442 -1.98,30.902 -7.08,43.371 -9.07,-13.89 -22.68,-26.078 -38.84,-44.789 -59.53,-69.73 -83.34,-99.488 -156.19,-114.23 -229.322,-46.77 -443.9,68.308 -487.56,195.015 -9.352,-12.75 -14.172,-26.93 -13.043,-43.074 8.511,-140.043 243.222,-284.601 495.503,-233.301 72.85,14.739 96.38,44.508 156.19,114.239" /><path
         id="path40"
         style="fill:#344776;fill-opacity:1;fill-rule:evenodd;stroke:none"
         d="m 1317.71,1016.67 c 55.28,-35.998 83.34,-43.94 111.97,-110.549 22.96,-52.73 36.57,-100.633 40.82,-147.121 7.65,-80.5 -13.89,-156.469 -66.33,-245.762 92.41,32.883 144,132.66 136.63,227.34 -6.24,77.102 -58.96,139.461 -105.17,198.703 -43.65,55.848 -68.03,61.519 -128.98,97.519 l -33.16,21.82 c -16.16,2.55 -26.08,3.69 -30.9,3.4 18.14,-9.63 32.6,-17.57 75.12,-45.35" /><path
         id="path42"
         style="fill:#000000;fill-opacity:1;fill-rule:nonzero;stroke:none"
         d="m 638.242,1307.5 5.672,9.64 c 5.102,-3.12 7.09,-9.64 3.969,-15.03 -3.117,-5.38 -9.641,-7.07 -15.028,-3.96 l 5.387,9.35 z m -32.308,25.8 c 12.468,-3.41 25.218,-9.08 37.98,-16.16 l -11.059,-18.99 c -11.05,6.23 -22.113,11.05 -32.882,14.17 l 5.961,20.98 z m -58.969,1.99 c 17.578,4.82 37.988,4.25 58.969,-1.99 l -5.961,-20.98 c -17.289,4.82 -33.45,5.67 -46.77,1.7 l -6.238,21.27 z m -43.652,-34.31 c 10.21,17.86 25.511,28.91 43.652,34.31 l 6.238,-21.27 c -13.039,-3.69 -23.527,-11.34 -30.609,-23.81 l -19.281,10.77 z m -8.219,-19.84 c 1.98,7.38 4.82,13.9 8.219,19.84 l 19.281,-10.77 c -2.551,-4.53 -4.821,-9.35 -6.239,-15.03 l -21.261,5.96 z M 276.266,1191 c 85.597,-24.67 185.668,-24.37 218.828,90.14 l 21.261,-5.96 C 478.086,1143.38 365.836,1142.24 270.023,1170.02 l 6.243,20.98 z m -75.973,29.2 c 22.109,-10.5 48.191,-20.98 75.973,-29.2 l -6.243,-20.98 c -28.628,8.22 -56.128,19.28 -79.089,30.05 l 9.359,20.13 z m -51.879,27.21 c 11.34,-6.8 29.481,-17.01 51.879,-27.21 l -9.359,-20.13 c -22.961,10.77 -41.95,21.26 -53.86,28.63 l 11.34,18.71 z m -10.199,-5.67 c -2.551,-3.97 7.09,7.65 10.199,5.67 l -11.34,-18.71 c -15.019,9.07 -20.691,19.57 -17.57,24.66 l 18.711,-11.62 z m 210.898,200.97 c -71.718,-26.92 -143.148,-89.57 -210.898,-200.97 l -18.711,11.62 c 70.582,115.66 145.699,181.43 221.672,210.05 l 7.937,-20.7 z m 243.211,-27.78 c -78.519,43.09 -161.289,58.68 -243.211,27.78 l -7.937,20.7 c 88.719,33.45 177.726,16.72 261.637,-29.2 l -10.489,-19.28 z m 63.781,-56.69 c -3.402,15.87 -22.402,34.03 -63.781,56.69 l 10.489,19.28 c 47.902,-26.35 70.011,-49.32 74.832,-71.15 l -21.54,-4.82 z M 631.152,1316 c 17.582,14.74 28.071,28.63 24.953,42.24 l 21.54,4.82 c 5.097,-23.81 -8.5,-43.93 -32.032,-63.77" /><path
         id="path44"
         style="fill:#863a1f;fill-opacity:1;fill-rule:nonzero;stroke:none"
         d="m 638.242,1307.5 c 41.102,34.88 48.762,68.04 -40.816,117.07 -151.09,83.06 -319.461,67.75 -468.571,-176.87 -1.703,-3.13 310.399,-199 376.731,30.32 16.156,55.84 74.828,62.66 132.656,29.48" /><path
         id="path46"
         style="fill:#da5840;fill-opacity:1;fill-rule:nonzero;stroke:none"
         d="m 241.68,1309.77 c 41.386,59.53 177.168,107.72 312.379,58.96 C 361.59,1348.89 391.918,1195.82 241.68,1309.77" /><path
         id="path48"
         style="fill:#4b1d17;fill-opacity:1;fill-rule:nonzero;stroke:none"
         d="m 561.141,1351.44 c -140.879,56.13 -270.137,3.12 -359.149,-73.13 89.012,118.48 328.539,179.43 359.149,73.13" /><path
         id="path50"
         style="fill:#000000;fill-opacity:1;fill-rule:nonzero;stroke:none"
         d="m 1346.91,1302.4 -5.39,9.64 c -5.11,-2.84 -7.08,-9.64 -4.25,-15.03 2.84,-5.1 9.64,-7.08 15.03,-4.25 l -5.39,9.64 z m 32.88,25.23 c -12.47,-3.4 -25.24,-8.51 -38.27,-15.59 l 10.78,-19.28 c 11.05,6.24 22.39,10.77 33.16,13.89 l -5.67,20.98 z m 58.96,1.13 c -17.57,5.1 -37.98,4.82 -58.96,-1.13 l 5.67,-20.98 c 17.29,4.54 33.45,5.1 46.77,1.14 l 6.52,20.97 z m 43.09,-34.86 c -9.93,17.85 -24.95,29.48 -43.09,34.86 l -6.52,-20.97 c 12.75,-3.97 23.53,-11.91 30.32,-24.38 l 19.29,10.49 z m 7.94,-20.13 c -1.99,7.37 -4.55,14.17 -7.94,20.13 l -19.29,-10.49 c 2.56,-4.54 4.55,-9.64 5.97,-15.31 l 21.26,5.67 z m 212.02,-94.11 c -84.46,-22.96 -180.57,-20.41 -212.02,94.11 l -21.26,-5.67 c 36.28,-131.81 144.28,-135.5 238.96,-109.7 l -5.68,21.26 z m 143.16,62.08 c -17.58,-10.21 -76.82,-43.94 -143.16,-62.08 l 5.68,-21.26 c 68.88,18.99 130.11,53.86 148.25,64.35 l -10.77,18.99 z m 5.38,-9.64 -5.38,9.64 c -5.39,-3.12 -7.09,-9.92 -3.98,-15.02 2.84,-5.39 9.65,-7.09 15.03,-4.26 l -5.67,9.64 z m 0.57,12.76 c -1.13,-0.57 -3.12,-1.42 -5.95,-3.12 l 11.05,-19.28 c 2.27,1.7 3.97,2.55 4.25,2.55 l -9.35,19.85 z m 4.54,-9.92 -9.36,-5.67 c 3.12,-5.11 9.92,-6.81 15.02,-3.69 5.1,3.12 6.81,9.64 3.96,15.02 l -9.62,-5.66 z m -217.15,198.42 c 71.16,-28.06 141.46,-91.84 207.79,-204.09 l 18.98,11.33 c -68.87,116.79 -143.14,183.41 -218.82,213.17 l -7.95,-20.41 z m -243.77,-24.38 c 79.09,41.96 162.13,56.7 243.77,24.38 l 7.95,20.41 c -88.16,34.87 -177.45,19.56 -261.93,-25.23 l 10.21,-19.56 z m -64.64,-55.56 c 3.7,15.59 22.68,33.45 64.64,55.56 l -10.21,19.56 c -48.18,-25.51 -70.59,-48.19 -75.96,-70.01 l 21.53,-5.11 z m 24.39,-42.8 c -17.3,15.02 -27.5,28.91 -24.39,42.8 l -21.53,5.11 c -5.4,-23.82 7.94,-43.94 31.46,-64.35" /><path
         id="path52"
         style="fill:#863a1f;fill-opacity:1;fill-rule:nonzero;stroke:none"
         d="m 1346.91,1302.4 c -40.54,35.43 -47.62,68.6 42.52,116.5 152.5,80.79 320.3,62.93 466.02,-183.96 -10.49,-4.82 -313.24,-194.46 -376.16,36 -15.31,56.12 -73.99,63.77 -132.38,31.46" /><path
         id="path54"
         style="fill:#da5840;fill-opacity:1;fill-rule:nonzero;stroke:none"
         d="m 1743.47,1298.72 c -40.54,60.38 -175.46,110.27 -311.53,63.5 192.47,-22.4 159.88,-175.18 311.53,-63.5" /><path
         id="path56"
         style="fill:#4b1d17;fill-opacity:1;fill-rule:nonzero;stroke:none"
         d="m 1424.86,1345.2 c 141.73,53.87 269.86,-0.84 358.02,-78.52 -87.31,119.91 -325.99,184.25 -358.02,78.52" /><path
         id="path58"
         style="fill:#000000;fill-opacity:1;fill-rule:nonzero;stroke:none"
         d="m 1375.25,1403.6 -3.97,10.2 c -5.67,-2.26 -8.5,-8.5 -6.23,-14.17 2.26,-5.67 8.5,-8.5 14.17,-6.23 l -3.97,10.2 z m 187.94,111.69 c -55.56,-43.66 -119.91,-73.71 -191.91,-101.49 l 7.94,-20.4 c 73.98,28.63 140.03,59.24 197.57,104.59 l -13.6,17.3 z m 137.76,184.25 c -36.57,-83.34 -82.77,-140.88 -137.76,-184.25 l 13.6,-17.3 c 57.55,45.64 106.02,105.74 144.29,192.76 l -20.13,8.79 z m 11.06,9.92 c 3.68,-1.7 -7.37,-0.85 -11.06,-9.92 l 20.13,-8.79 c 10.2,23.81 9.07,34.58 -0.29,38.83 l -8.78,-20.12 z m -7.66,-6.8 c 5.67,3.4 5.39,7.93 7.66,6.8 l 8.78,20.12 c -7.93,3.41 -16.15,-1.41 -27.21,-7.93 l 10.77,-18.99 z m -9.64,-5.39 c 3.12,1.7 6.52,3.68 9.64,5.39 l -10.77,18.99 c -2.83,-1.42 -5.67,-3.12 -9.35,-5.11 l 10.48,-19.27 z m -228.75,-88.44 c 87.59,25.23 171.78,57.83 228.75,88.44 l -10.48,19.27 c -55.85,-30.04 -138.33,-61.79 -224.22,-86.74 l 5.95,-20.97 z m -231.59,-44.79 c 67.18,3.97 150.8,21.26 231.59,44.79 l -5.95,20.97 c -79.66,-22.96 -161.58,-39.96 -227.06,-43.93 l 1.42,-21.83 z m -0.85,10.77 8.5,7.09 c -3.68,4.82 -10.77,5.39 -15.31,1.42 -4.81,-3.69 -5.38,-10.77 -1.7,-15.31 l 8.51,6.8 z m 57.82,-44.22 c -18.42,18.14 -36.28,35.44 -49.32,51.31 l -17.01,-13.89 c 13.89,-17.01 32.04,-34.58 50.74,-53.01 l 15.59,15.59 z m 94.4,-124.16 c -11.91,43.37 -54.99,85.33 -94.4,124.16 L 1275.75,1515 c 37.7,-36.85 78.24,-76.82 89.01,-114.23" /><path
         id="path60"
         style="fill:#dcdcd6;fill-opacity:1;fill-rule:nonzero;stroke:none"
         d="m 1375.25,1403.6 c -16.72,59.81 -100.35,120.76 -141.73,171.21 138.61,8.51 347.53,73.7 455.81,132.1 22.96,12.19 37.98,25.79 21.54,-11.62 -74.55,-170.65 -189.64,-235.28 -335.62,-291.69" /><path
         id="path62"
         style="fill:#e8e8e1;fill-opacity:1;fill-rule:nonzero;stroke:none"
         d="m 1319.98,1481.27 c -21.83,36.57 -61.8,63.5 -85.61,92.69 l -0.56,1.14 c 138.61,8.5 347.52,73.41 455.52,131.81 13.33,7.08 24.1,14.74 27.5,12.47 -106.58,-133.51 -261.07,-191.62 -396.85,-238.11" /><path
         id="path64"
         style="fill:#000000;fill-opacity:1;fill-rule:nonzero;stroke:none"
         d="m 565.109,1409.55 4.25,10.2 c 5.672,-2.55 8.223,-8.78 5.954,-14.45 -2.262,-5.67 -8.5,-8.22 -14.172,-5.95 l 3.968,10.2 z M 379.16,1523.79 c 54.422,-44.51 118.492,-75.12 190.199,-104.04 l -8.218,-20.4 c -73.7,29.76 -139.461,61.22 -196.161,107.43 l 14.18,17.01 z M 243.941,1710.31 C 279.09,1626.4 324.73,1568.29 379.16,1523.79 l -14.18,-17.01 c -56.968,46.49 -104.589,107.43 -141.16,195.02 l 20.121,8.51 z m -11.05,9.92 c -3.692,-1.7 7.371,-0.85 11.05,-9.92 l -20.121,-8.51 c -10.211,23.81 -8.789,34.58 0.571,38.55 l 8.5,-20.12 z m 7.371,-6.81 c -5.391,3.41 -4.821,7.66 -7.371,6.81 l -8.5,20.12 c 7.929,3.4 16.152,-1.7 27.211,-7.93 l -11.34,-19 z m 9.918,-5.67 c -3.117,1.71 -6.52,3.69 -9.918,5.67 l 11.34,19 c 2.55,-1.7 5.668,-3.41 9.347,-5.39 l -10.769,-19.28 z m 227.34,-91.84 c -87.02,26.65 -170.93,60.38 -227.34,91.84 l 10.769,19.28 c 55.281,-30.9 137.481,-64.06 223.094,-90.14 l -6.523,-20.98 z m 231.023,-48.19 c -67.461,5.11 -150.801,23.81 -231.023,48.19 l 6.523,20.98 c 78.797,-24.1 160.719,-42.24 226.199,-47.06 l -1.699,-22.11 z m 0.848,11.06 -8.5,7.09 c 3.968,4.53 11.05,5.1 15.589,1.41 4.54,-3.97 5.102,-11.05 1.422,-15.59 l -8.511,7.09 z M 651,1535.12 c 18.711,17.86 36.852,35.15 49.891,50.75 l 17.011,-14.18 c -14.179,-16.72 -32.601,-34.3 -51.589,-52.44 L 651,1535.12 Z m -96.379,-122.74 c 12.762,43.37 56.129,84.76 96.379,122.74 l 15.313,-15.87 c -38.27,-36.28 -79.372,-75.4 -90.43,-112.82" /><path
         id="path66"
         style="fill:#dcdcd6;fill-opacity:1;fill-rule:nonzero;stroke:none"
         d="m 565.109,1409.55 c 17.864,59.53 102.332,119.34 144.282,169.23 -138.328,10.49 -346.391,78.8 -453.821,138.61 -22.961,12.48 -37.418,26.36 -21.828,-11.34 72,-171.78 186.238,-237.82 331.367,-296.5" /><path
         id="path68"
         style="fill:#e8e8e1;fill-opacity:1;fill-rule:nonzero;stroke:none"
         d="m 621.52,1486.37 c 22.39,36.28 62.929,62.65 87.019,91.56 l 0.57,0.85 c -138.328,10.49 -346.109,78.8 -453.539,138.61 -13.332,7.37 -23.808,15.03 -27.218,12.76 104.597,-134.93 258.238,-195.31 393.168,-243.78" /><path
         id="path70"
         style="fill:#000000;fill-opacity:1;fill-rule:nonzero;stroke:none"
         d="m 1146.78,490.844 10.2,-4.25 c -2.55,-5.672 -8.78,-8.223 -14.45,-5.949 -5.67,2.257 -8.22,8.777 -5.95,14.449 l 10.2,-4.25 z m 14.74,7.648 c -1.42,-4.25 -3.12,-8.219 -4.54,-11.898 l -20.4,8.5 c 1.7,3.687 3.11,7.371 4.25,10.769 l 20.69,-7.371 z m 4.25,11.629 c -1.13,-3.117 -2.27,-6.519 -4.25,-11.629 l -20.69,7.371 c 1.13,2.551 2.55,6.809 4.25,11.34 l 20.69,-7.082 z m 22.68,52.442 c -9.64,-15.879 -16.44,-34.301 -22.68,-52.442 l -20.69,7.082 c 6.52,19.281 13.89,38.84 24.38,56.41 l 18.99,-11.05 z m 37.13,36.851 c -16.44,-8.793 -28.06,-21.832 -37.13,-36.851 l -18.99,11.05 c 11.05,18.43 25.51,34.301 45.92,45.36 l 10.2,-19.559 z m 54.14,17.859 c -21.82,-5.96 -42.23,-11.628 -54.14,-17.859 l -10.2,19.559 c 13.89,7.371 35.43,13.039 58.68,19.269 l 5.66,-20.969 z m 98.08,42.52 c -18.42,-21.262 -60.37,-32.32 -98.08,-42.52 l -5.66,20.969 c 34.58,9.36 73.13,19.84 87.02,36 l 16.72,-14.449 z m 24.66,19.551 c -6.8,-3.961 -15.3,-8.781 -24.66,-19.551 l -16.72,14.449 c 11.9,13.61 22.11,19.563 30.33,24.102 l 11.05,-19 z m 25.8,46.777 c -1.13,-32.598 -10.49,-37.988 -25.8,-46.777 l -11.05,19 c 8.79,5.097 14.17,8.219 14.74,28.34 l 22.11,-0.563 z m -3.97,10.481 c 2.55,-2.829 3.97,-6.231 3.97,-10.481 l -22.11,0.563 c 0,2.269 3.69,-6.801 2.27,-5.379 l 15.87,15.297 z m -7.08,3.691 c 2.55,-0.57 5.1,-1.699 7.08,-3.691 l -15.87,-15.297 c -1.14,1.129 5.1,-2.551 3.68,-2.274 l 5.11,21.262 z m -2.56,-10.488 2.56,10.488 c 5.95,-1.129 9.63,-7.09 8.22,-13.039 -1.42,-5.949 -7.09,-9.641 -13.04,-8.223 l 2.26,10.774 z m -4.25,10.488 c 2.27,0.57 4.54,0.57 6.81,0 l -4.82,-21.262 c -1.14,0.282 4.25,0.282 3.11,0 l -5.1,21.262 z m 2.55,-10.488 -2.83,10.488 c 5.95,1.422 11.9,-1.988 13.32,-7.941 1.7,-5.95 -1.98,-11.899 -7.94,-13.321 l -2.55,10.774 z m -11.9,3.398 c 1.98,3.969 5.38,6.238 9.07,7.09 l 5.38,-21.262 c -1.7,-0.566 5.96,5.672 4.82,3.684 l -19.27,10.488 z m 9.64,-5.101 1.41,10.769 c 5.96,-0.848 10.21,-6.226 9.36,-12.187 -0.57,-5.95 -6.24,-10.2 -12.19,-9.641 l 1.42,11.059 z m -155.63,52.722 c 51.31,-17.57 102.9,-35.152 157.04,-41.953 l -2.83,-21.828 c -56.13,7.09 -108.57,24.949 -161.29,42.809 l 7.08,20.972 z m -96.09,30.047 c 32.31,-8.5 64.06,-19.269 96.09,-30.047 l -7.08,-20.972 c -31.18,10.769 -62.37,21.261 -94.68,29.761 l 5.67,21.258 z m -82.49,17.012 c 27.78,-4.539 55.28,-9.918 82.49,-17.012 l -5.67,-21.258 c -26.36,6.801 -53.01,12.192 -80.22,16.442 l 3.4,21.828 z m -83.902,9.64 c 28.062,-2.269 56.122,-5.39 83.902,-9.64 l -3.4,-21.828 c -27.21,4.25 -54.71,7.367 -82.209,9.636 l 1.707,21.832 z m -0.859,-10.769 -0.848,10.769 c 5.957,0.559 11.339,-3.968 11.629,-9.921 0.56,-6.239 -3.969,-11.34 -9.922,-11.911 l -0.859,11.063 z m -92.969,0.277 c 30.898,4.821 61.512,8.223 92.121,10.492 l 1.707,-21.832 c -30.617,-2.269 -60.668,-5.668 -90.43,-10.488 l -3.398,21.828 z m -90.43,-18.988 c 29.77,7.93 60.102,14.172 90.43,18.988 l 3.398,-21.828 c -29.757,-4.531 -59.238,-10.769 -88.16,-18.422 l -5.668,21.262 z m -96.66,-30.898 c 31.75,11.046 63.5,22.109 96.66,30.898 l 5.668,-21.262 C 782.238,778.563 750.5,767.504 718.75,756.453 l -7.09,20.692 z m -157.601,-43.09 c 54.14,7.09 105.73,25.226 157.601,43.09 l 7.09,-20.692 c -52.73,-18.43 -105.449,-36.57 -161.859,-44.219 l -2.832,21.821 z m 1.41,-11.051 9.64,5.379 c 3.121,-5.379 1.129,-12.192 -4.25,-15.02 -5.39,-2.832 -12.187,-0.851 -15.019,4.539 l 9.629,5.102 z m 0.57,12.469 c 3.68,-1.129 7.09,-3.399 9.07,-7.09 L 545.84,717.902 c -1.141,1.981 6.801,-4.257 4.808,-3.687 l 5.391,21.258 z m -2.551,-10.77 2.551,10.77 c 5.949,-1.7 9.641,-7.649 7.941,-13.61 -1.421,-5.672 -7.66,-9.351 -13.332,-7.648 l 2.84,10.488 z m -4.539,10.77 c 2.551,0.57 4.821,0.57 7.09,0 l -5.391,-21.258 c -1.128,0.277 4.262,0 3.122,0 l -4.821,21.258 z m 2.551,-10.77 -2.551,10.77 c 5.961,1.422 11.91,-2.27 13.332,-8.219 1.129,-5.949 -2.562,-11.91 -8.222,-13.039 l -2.559,10.488 z m -9.352,7.078 c 1.981,1.711 4.25,3.121 6.801,3.692 l 5.11,-21.258 c -1.418,-0.281 4.531,3.117 3.679,1.976 l -15.59,15.59 z m 7.653,-7.929 -7.653,7.652 c 4.25,4.539 11.063,4.539 15.313,0.277 4.527,-4.25 4.527,-11.328 0.277,-15.59 l -7.937,7.661 z m -11.903,-2.547 c 0,4.25 1.704,7.929 4.25,10.199 l 15.59,-15.313 c -1.418,-1.41 2.274,7.661 2.274,5.391 l -22.114,-0.277 z m 25.231,-46.774 c -15.309,8.782 -24.66,14.172 -25.231,46.774 l 22.114,0.277 c 0.277,-19.84 5.379,-22.961 14.168,-27.777 L 563.129,674.531 Z M 587.5,655.254 c -9.07,10.769 -17.57,15.59 -24.371,19.277 l 11.051,19.274 c 8.218,-4.821 18.429,-10.492 30.05,-24.09 L 587.5,655.254 Z m 8.512,7.09 -8.512,-7.09 c -3.961,4.539 -3.398,11.617 1.141,15.59 4.82,3.969 11.621,3.398 15.589,-1.129 l -8.218,-7.371 z M 659.5,607.633 c -26.07,12.191 -51.301,23.531 -72,47.621 l 16.73,14.461 c 17.571,-20.41 40.532,-31.184 64.348,-41.961 L 659.5,607.633 Z m 25.801,-12.469 c -8.5,4.527 -17.289,8.5 -25.801,12.469 l 9.078,20.121 c 8.781,-4.25 17.852,-8.223 26.922,-13.039 l -10.199,-19.551 z m 66.328,-39.973 c -22.68,16.442 -48.469,30.614 -66.328,39.973 l 10.199,19.551 c 18.43,-9.633 45.359,-24.66 68.891,-41.672 l -12.762,-17.852 z m 45.641,-49.039 c -5.391,16.153 -24.098,33.45 -45.641,49.039 l 12.762,17.852 c 24.937,-18.141 46.769,-38.828 53.847,-59.809 l -20.968,-7.082 z m 3.968,-11.621 c -1.699,5.102 -2.84,8.5 -3.968,11.621 l 20.968,7.082 c 1.422,-4.531 2.84,-8.781 3.692,-11.332 l -20.692,-7.371 z m 4.532,-11.91 c -1.7,3.973 -3.122,7.942 -4.532,11.91 l 20.692,7.371 c 1.422,-3.687 2.832,-7.371 4.25,-11.058 l -20.41,-8.223 z m 10.21,4.25 1.981,10.774 c 5.949,-1.133 9.918,-6.801 8.789,-12.75 -1.141,-5.961 -6.801,-9.922 -12.762,-8.793 l 1.992,10.769 z m -42.808,16.442 c 15.308,-1.411 30.328,-2.829 44.789,-5.668 l -3.973,-21.543 c -13.597,2.55 -28.34,3.972 -42.797,5.39 l 1.981,21.821 z m -95.813,29.769 c 22.68,-22.68 59.532,-26.367 95.813,-29.769 l -1.981,-21.821 c -40.543,3.961 -81.07,7.93 -109.421,36.281 l 15.589,15.309 z m -13.89,13.891 13.89,-13.891 -15.589,-15.309 -13.891,13.61 15.59,15.59 z m -7.93,-7.66 10.199,3.968 c 2.274,-5.379 -0.277,-11.898 -5.949,-14.168 -5.668,-2.269 -11.91,0.282 -14.461,5.95 l 10.211,4.25 z M 499.91,728.102 C 565.68,675.664 633.988,621.234 665.738,543.281 l -20.41,-8.218 c -29.476,72.57 -95.527,125.011 -159.308,176.031 l 13.89,17.008 z M 360.449,1012.98 C 312.262,877.773 403.539,805.203 499.91,728.102 L 486.02,711.094 C 383.41,793.012 286.469,870.402 339.762,1020.07 l 20.687,-7.09 z m 61.512,121.32 c -29.762,-55.27 -53.859,-99.77 -61.512,-121.32 l -20.687,7.09 c 8.218,23.53 32.59,68.6 62.929,124.72 l 19.27,-10.49 z M 576.73,1460.01 C 543.281,1358.53 473.84,1230.4 421.961,1134.3 l -19.27,10.49 c 51.59,95.25 120.18,222.52 153.071,322.02 l 20.968,-6.8 z m -23.519,173.19 c 54.418,-18.14 52.148,-86.45 23.519,-173.19 l -20.968,6.8 c 24.66,74.55 29.476,132.66 -9.364,145.42 l 6.813,20.97 z m -3.41,-10.49 10.488,-3.4 c -1.699,-5.67 -7.937,-8.78 -13.891,-7.08 -5.668,1.98 -8.789,7.93 -7.078,13.9 l 10.481,-3.42 z m 19.847,14.74 c -3.687,-4.53 -7.089,-10.48 -9.359,-18.14 l -20.969,6.82 c 3.399,10.47 7.93,18.98 13.602,25.5 l 16.726,-14.18 z m 16.153,10.21 c -5.949,-1.42 -11.621,-4.82 -16.153,-10.21 l -16.726,14.18 c 7.656,9.35 17.289,15.02 28.058,17.57 l 4.821,-21.54 z m 21.828,-1.7 c -7.938,2.55 -15.309,3.12 -21.828,1.7 l -4.821,21.54 c 10.489,2.27 21.551,1.43 33.168,-2.27 l -6.519,-20.97 z m 30.902,-18.14 c -10.492,8.78 -20.98,15.02 -30.902,18.14 l 6.519,20.97 c 12.762,-3.96 25.801,-11.62 38.551,-22.39 l -14.168,-16.72 z m 7.078,8.5 6.813,-8.79 c -4.82,-3.68 -11.91,-2.83 -15.594,1.99 -3.398,4.82 -2.547,11.9 2.262,15.3 l 6.519,-8.5 z m 329.11,-9.64 c -40.539,24.66 -178.59,108.57 -322.297,0.85 l -13.332,17.29 c 155.629,116.79 303.601,26.93 346.969,0.57 l -11.34,-18.71 z m 13.601,-7.37 c -2.832,0.85 -7.082,3.4 -13.601,7.37 l 11.34,18.71 c 5.101,-2.83 8.5,-5.1 9.07,-5.1 l -6.809,-20.98 z m 3.399,10.49 3.121,-10.49 c -5.668,-1.7 -11.899,1.42 -13.602,7.37 -1.699,5.67 1.41,11.91 7.371,13.61 l 3.11,-10.49 z m 12.761,-5.1 c -4.531,-2.84 -7.371,-4.82 -9.64,-5.39 l -6.231,20.98 c 0.852,0.28 0.852,0.85 3.68,2.84 l 12.191,-18.43 z m 322.58,5.68 c -145.98,109.69 -290.26,15.29 -322.58,-5.68 l -12.191,18.43 c 34.871,22.67 189.641,123.58 348.101,4.81 l -13.33,-17.56 z m 6.81,8.77 7.08,-8.5 c -4.82,-3.68 -11.62,-3.12 -15.59,1.42 -3.97,4.53 -3.4,11.62 1.42,15.59 l 7.09,-8.51 z m 39.4,10.49 c -10.21,-3.11 -21.26,-9.63 -32.32,-18.99 l -14.17,17.01 c 13.32,11.05 26.93,18.99 40.25,22.97 l 6.24,-20.99 z m 21.26,1.42 c -6.24,1.42 -13.61,0.85 -21.26,-1.42 l -6.24,20.99 c 11.34,3.39 22.11,4.25 32.32,1.69 l -4.82,-21.26 z m 15.31,-9.64 c -4.26,5.11 -9.64,8.22 -15.31,9.64 l 4.82,21.26 c 10.49,-2.27 19.84,-7.94 27.21,-16.72 l -16.72,-14.18 z m 9.07,-18.14 c -2.27,7.65 -5.39,13.61 -9.07,18.14 l 16.72,14.18 c 5.67,-6.81 10.2,-15.31 13.61,-25.8 l -21.26,-6.52 z m 10.48,3.12 -3.4,10.49 c 5.67,1.99 11.91,-1.14 13.89,-6.81 1.99,-5.95 -1.13,-11.9 -6.8,-13.89 l -3.69,10.21 z m -25.79,-168.95 c -30.33,89.86 -34.02,160.45 22.39,179.44 l 7.09,-20.7 c -40.54,-13.6 -34.87,-73.98 -8.5,-151.65 l -20.98,-7.09 z m 129.26,-283.18 c -46.77,92.13 -100.35,197.29 -129.26,283.18 l 20.98,7.09 c 28.34,-84.75 81.63,-189.07 128.12,-280.35 l -19.84,-9.92 z m 87.31,-194.739 c -5.39,34.019 -43.37,108.569 -87.31,194.739 l 19.84,9.92 c 44.51,-87.87 83.34,-163.84 89.29,-201.256 l -21.82,-3.403 z m -153.64,-244.91 c 87.59,69.731 170.93,135.781 153.64,244.91 l 21.82,3.403 c 19.28,-121.891 -69.16,-191.903 -161.86,-265.321 l -13.6,17.008 z M 1297.58,548.672 c 33.17,78.23 102.33,132.941 168.95,185.949 l 13.6,-17.008 C 1415.79,666.305 1348.89,613.012 1317.99,540.164 l -20.41,8.508 z m 10.21,-4.258 -7.66,7.938 c 4.26,4.25 11.06,4.25 15.59,0 4.26,-4.25 4.26,-11.34 0,-15.59 l -7.93,7.652 z m -21.83,-5.949 14.17,13.887 15.59,-15.59 -14.17,-13.891 -15.59,15.594 z m -96.38,-30.902 c 36.57,3.968 73.42,7.66 96.38,30.902 l 15.59,-15.594 c -28.63,-28.629 -69.45,-32.879 -109.7,-37.129 l -2.27,21.821 z m -45.07,-5.95 c 14.74,2.84 29.77,4.539 45.07,5.95 l 2.27,-21.821 c -14.74,-1.418 -29.48,-3.121 -42.8,-5.668" /><path
         id="path72"
         style="fill:#863a1f;fill-opacity:1;fill-rule:nonzero;stroke:none"
         d="m 1146.78,490.844 c 50.17,9.918 111.12,3.969 147.12,39.687 l 13.89,13.883 c 75.97,179.149 354.61,237.258 323.15,436.82 -17.29,110.546 -346.11,596.696 -201.55,645.166 -13.89,45.92 -55.55,46.2 -95.52,12.75 -168.95,126.71 -334.21,-7.08 -342.151,-9.35 -14.739,4.54 -176.028,133.8 -346.11,6.52 -39.398,33.17 -81.07,32.32 -95.808,-13.61 C 688.422,1577.08 383.129,1108.79 349.961,1016.67 266.34,781.395 577.582,729.805 655.539,539.313 l 13.891,-13.891 c 35.711,-35.43 96.371,-28.91 146.55,-38.551 -3.121,7.371 -5.671,15.313 -8.218,22.684 -12.481,37.418 -80.793,76.25 -117.364,95.527 -33.726,17.57 -68.597,27.492 -94.386,57.262 -27.5,32.027 -46.492,16.437 -47.063,59.238 0,3.973 5.11,4.25 6.52,1.422 88.73,11.898 169.801,51.59 255.691,74.551 58.68,15.59 119.621,24.379 180.559,29.199 55.561,-4.539 111.121,-12.762 164.411,-26.652 85.61,-22.11 166.11,-60.938 254.56,-72 1.41,2.832 6.52,2.269 6.52,-1.7 -1.14,-42.519 -19.85,-27.211 -47.91,-59.531 -26.08,-30.047 -114.8,-39.68 -148.82,-57.828 -36.85,-19.551 -52.16,-58.109 -65.2,-95.238 -2.55,-7.653 -5.38,-15.59 -8.5,-22.961" /><path
         id="path74"
         style="fill:#000000;fill-opacity:1;fill-rule:nonzero;stroke:none"
         d="M 982.938,685.301 C 1180.8,683.879 1313.18,624.359 1318,562.559 c 5.1,-64.629 -112.82,-131.528 -337.043,-130.11 -182.84,1.422 -334.488,61.512 -333.93,131.242 0.571,70.02 137.77,123.028 335.911,121.61" /><path
         id="path76"
         style="fill:#fdfdfd;fill-opacity:1;fill-rule:nonzero;stroke:none"
         d="m 1132.61,607.348 52.44,11.91 c 10.77,2.258 20.98,-5.961 22.68,-18.711 l 9.92,-73.699 c 1.7,-12.481 -5.67,-24.95 -16.44,-27.219 l -52.44,-11.902 c -10.77,-2.551 -17.86,-15.879 -19.56,-3.122 l -13.04,95.243 c -1.7,12.757 5.67,24.949 16.44,27.5" /><path
         id="path78"
         style="fill:#fdfdfd;fill-opacity:1;fill-rule:nonzero;stroke:none"
         d="m 833.27,584.102 -58.114,-6.239 c -11.058,-1.129 -17.859,-13.039 -16.718,-25.789 l 7.929,-89.582 c 1.141,-12.469 16.16,-21.539 27.211,-22.668 l 59.531,-5.672 c 11.059,-1.14 18.43,13.039 16.731,25.512 l -13.891,104.027 c -1.703,12.762 -11.91,21.543 -22.679,20.411" /><path
         id="path80"
         style="fill:#fdfdfd;fill-opacity:1;fill-rule:nonzero;stroke:none"
         d="m 1279.16,655.254 -49.04,-38.274 c -9.07,-7.367 -23.24,11.622 -21.83,3.122 l 14.46,-86.739 c 1.42,-8.793 7.94,-1.422 18.43,1.418 l 44.78,12.75 c 10.49,2.84 36.85,73.992 34.59,82.211 l -13.33,46.199 c -2.55,8.219 -18.99,-13.597 -28.06,-20.687" /><path
         id="path82"
         style="fill:#fdfdfd;fill-opacity:1;fill-rule:nonzero;stroke:none"
         d="m 672.543,573.613 53.57,-0.277 c 11.063,0 25.231,-2.27 24.379,-15.031 l -5.097,-82.77 c -0.852,-12.75 -10.493,-29.48 -20.129,-22.961 l -53.852,36 c -9.641,6.52 -32.891,57.832 -27.781,68.602 l 9.07,18.711 c 5.102,10.769 8.781,-1.992 19.84,-2.274" /><path
         id="path84"
         style="fill:#fdfdfd;fill-opacity:1;fill-rule:nonzero;stroke:none"
         d="m 878.34,581.27 82.769,11.058 c 10.77,1.41 21.258,-7.66 22.68,-20.41 L 997.68,462.777 c 1.699,-12.75 -5.95,-18.14 -16.731,-19.839 L 898.18,431.879 c -10.77,-1.41 -20.969,7.937 -22.672,20.41 l -13.891,103.469 c -1.707,12.469 5.953,24.09 16.723,25.512" /><path
         id="path86"
         style="fill:#fdfdfd;fill-opacity:1;fill-rule:nonzero;stroke:none"
         d="m 1090.94,599.691 -86.74,-11.339 c -9.641,-1.418 -16.442,-12.75 -14.743,-25.508 l 15.023,-99.211 c 1.7,-12.762 6.52,-9.641 16.16,-8.512 l 86.74,11.633 c 9.92,1.41 16.16,12.75 14.74,25.508 l -10.2,87.019 c -1.7,12.473 -11.06,21.832 -20.98,20.41" /><path
         id="path88"
         style="fill:#000000;fill-opacity:1;fill-rule:nonzero;stroke:none"
         d="m 1318.84,675.094 -10.77,1.703 c 1.13,5.949 6.8,9.918 12.75,9.066 5.96,-1.129 9.93,-6.519 9.08,-12.468 l -11.06,1.699 z m -108.57,-121.61 c 54.43,35.153 90.43,78.813 97.8,123.313 l 21.83,-3.402 c -8.51,-51.02 -47.91,-99.782 -107.72,-138.329 l -11.91,18.418 z m -211.739,-73.41 c 83.049,11.051 156.749,37.981 211.739,73.41 l 11.91,-18.418 c -57.83,-37.14 -134.65,-65.203 -220.82,-76.82 l -2.829,21.828 z m -223.66,15.301 c 62.363,-19.84 140.32,-26.359 223.66,-15.301 l 2.829,-21.828 c -86.458,-11.34 -167.805,-4.543 -233.286,16.16 l 6.797,20.969 z m -126.988,93.262 c 18.988,-41.102 64.91,-73.703 126.988,-93.262 l -6.797,-20.969 c -67.75,21.539 -118.492,58.11 -140.32,105.16 l 20.129,9.071 z m -9.918,-4.532 -11.063,0 c 0,6.231 5.11,11.051 11.34,10.77 5.949,0 10.77,-5.102 10.492,-11.059 l -10.769,0.289 z m -10.774,-11.621 c -0.289,3.68 -0.289,7.653 -0.289,11.621 l 21.832,-0.289 c 0,-3.113 0,-6.519 0.278,-9.921 l -21.821,-1.411 z m 1.133,-11.629 c -0.57,4.258 -1.133,7.942 -1.133,11.629 l 21.821,1.411 c 0.293,-3.68 0.57,-7.079 0.851,-10.2 l -21.539,-2.84 z m 10.77,1.418 -11.051,-1.418 c -0.57,5.961 3.68,11.629 9.629,12.481 5.961,0.559 11.633,-3.41 12.48,-9.641 l -11.058,-1.422 z M 755.031,412.605 c -70.578,32.598 -118.488,84.469 -126.988,148.25 l 22.109,2.84 c 7.371,-55.84 50.45,-101.769 114.231,-131.25 l -9.352,-19.84 z m 4.821,9.918 -4.821,-9.918 c -5.386,2.551 -7.937,9.071 -5.386,14.461 2.546,5.668 9.359,7.938 14.738,5.379 l -4.531,-9.922 z m 251.708,-41.949 c -96.369,-12.758 -187.369,0.281 -256.529,32.031 l 9.352,19.84 c 65.48,-30.039 151.941,-42.519 244.347,-30.039 l 2.83,-21.832 z m -1.41,11.063 1.41,-11.063 c -5.95,-0.57 -11.33,3.403 -12.177,9.352 -0.852,6.238 3.397,11.629 9.347,12.48 l 1.42,-10.769 z m 240.66,87.297 c -58.11,-48.75 -142.58,-85.321 -239.25,-98.36 l -2.83,21.832 c 92.41,12.188 172.63,47.047 227.91,93.258 l 14.17,-16.73 z m 83.62,176.32 c 8.5,-63.777 -24.09,-126.43 -83.62,-176.32 l -14.17,16.73 c 53.85,45.07 83.33,100.91 75.96,156.75 l 21.83,2.84 z m -1.98,11.621 c 0.85,-3.969 1.41,-7.941 1.98,-11.621 l -21.83,-2.84 c -0.56,3.402 -1.13,6.813 -1.7,9.922 l 21.55,4.539 z m -2.84,11.34 c 1.14,-3.692 1.99,-7.371 2.84,-11.34 l -21.55,-4.539 c -0.85,3.117 -1.41,6.238 -2.55,9.641" /><path
         id="path90"
         style="fill:#fad4c5;fill-opacity:1;fill-rule:nonzero;stroke:none"
         d="m 1318.84,675.094 c 2.27,-7.09 3.68,-14.168 4.54,-21.258 16.15,-119.621 -124.16,-236.981 -313.23,-262.199 -188.787,-25.524 -355.177,51.019 -371.056,170.636 -0.852,7.372 -1.422,14.461 -1.129,21.832 39.969,-87.308 191.047,-137.769 361.976,-114.808 170.649,22.68 303.309,111.117 318.899,205.797" /><path
         id="path92"
         style="fill:#000000;fill-opacity:1;fill-rule:nonzero;stroke:none"
         d="m 689.551,1456.89 c 138.051,9.35 252.281,-17.86 259.941,-134.65 7.93,-116.78 -93.551,-278.64 -231.308,-288 -138.051,-9.35 -260.223,137.48 -268.161,254.27 -7.929,116.79 101.481,159.31 239.528,168.38" /><path
         id="path94"
         style="fill:#000000;fill-opacity:1;fill-rule:nonzero;stroke:none"
         d="m 1246.56,1494.59 c -138.05,-9.35 -247.462,-51.87 -239.53,-168.38 7.66,-116.79 130.11,-263.62 267.88,-254.27 138.04,9.08 239.52,171.22 231.59,287.72 -7.94,116.79 -121.89,144.28 -259.94,134.93" /><path
         id="path96"
         style="fill:#000000;fill-opacity:1;fill-rule:nonzero;stroke:none"
         d="m 939.43,1331.63 -12.2,27.15 c 28.047,12.59 59.219,14.75 95.27,6.61 l -6.56,-29.03 c -29.53,6.69 -54.561,5.13 -76.51,-4.73" /><path
         id="path98"
         style="fill:#70706f;fill-opacity:1;fill-rule:nonzero;stroke:none"
         d="m 811.156,1424.01 c 60.942,-13.61 102.614,-46.77 107.153,-111.69 6.519,-98.64 -76.539,-234.7 -191.621,-250.01 1.98,20.98 14.742,54.71 44.5,111.12 58.402,110.27 -30.899,63.21 -41.95,73.41 -43.371,41.39 58.961,151.09 81.918,177.17" /><path
         id="path100"
         style="fill:#70706f;fill-opacity:1;fill-rule:nonzero;stroke:none"
         d="m 1371.29,1461.71 c 60.66,-13.61 102.6,-46.77 107.14,-111.4 6.52,-98.93 -76.54,-234.99 -191.62,-250.3 1.98,20.98 14.46,54.71 44.5,111.4 58.12,109.99 -31.18,62.93 -41.95,73.13 -43.37,41.39 58.96,151.09 81.93,177.17" /><path
         id="path102"
         style="fill:#000000;fill-opacity:1;fill-rule:nonzero;stroke:none"
         d="m 674.273,1074.59 c -41.171,0 -116.691,-8.42 -159.98,-64.82 -34.832,-45.391 -40.852,-111.872 -17.891,-197.59 0.7,-2.614 0.469,-5.391 -0.66,-7.84 -27.16,-59.332 -28.672,-108.5 -4.488,-146.16 39.867,-62.102 151.957,-96.301 315.609,-96.301 279.187,0 633.837,100.98 677.637,192.93 6.81,14.289 5.08,26.98 -5.45,39.949 -2.38,2.941 -3.19,6.859 -2.16,10.5 24.39,85.82 19.19,152.582 -15.46,198.442 -43.57,57.69 -120.77,66.31 -162.91,66.31 -69.76,0 -126.46,-21.92 -144.39,-42.54 -3.3,-3.78 -8.66,-5.04 -13.27,-3.09 -51.39,21.6 -102.39,33.51 -151.567,35.39 l -1.82,-0.01 c -49.02,-1.26 -100.211,-12.42 -151.852,-33.18 -4.687,-1.87 -10.008,-0.53 -13.23,3.31 -18.481,21.97 -78.93,44.7 -148.118,44.7 m 132.59,-535.953 c -121.57,0 -278.402,18.551 -335.172,106.98 -28.179,43.903 -27.781,99.25 1.192,164.571 -23.641,91.16 -15.922,163.05 22.969,213.732 49.359,64.31 132.968,73.91 178.421,73.91 65.508,0 130.54,-19.33 160,-46.8 51.75,19.95 103.149,30.7 152.899,31.97 l 2.57,0 c 50.068,-1.91 101.318,-13.4 152.838,-34.19 29.18,26.46 91.3,44.44 155.94,44.44 46.46,0 131.81,-9.82 181.47,-75.54 38.48,-50.952 45.48,-122.671 20.81,-213.241 12.82,-18.621 14.47,-39.121 4.69,-59.653 C 1452.6,633.77 1077.14,538.637 806.863,538.637" /><path
         id="path104"
         style="fill:#fad4c5;fill-opacity:1;fill-rule:nonzero;stroke:none"
         d="m 989.742,1071.38 -2.269,0 c -44.5,-1.13 -96.942,-10.2 -156.192,-34.02 -61.23,72.85 -436.531,109.42 -346.109,-228.18 -213.731,-466.871 1156.818,-196.731 1002.898,-7.09 95.53,336.19 -280.35,304.72 -342.71,233.01 -58.68,24.66 -111.12,34.58 -155.618,36.28" /><path
         id="path106"
         style="fill:#000000;fill-opacity:1;fill-rule:nonzero;stroke:none"
         d="m 749.93,939.285 c 49.89,-58.961 58.39,-134.652 18.711,-168.941 -39.692,-34.301 -112.821,-14.18 -162.711,45.07 -50.168,58.961 -58.68,134.93 -18.989,168.941 39.969,34.295 112.821,14.168 162.989,-45.07" /><path
         id="path108"
         style="fill:#391f17;fill-opacity:1;fill-rule:nonzero;stroke:none"
         d="m 715.348,882.875 c -2.27,17.289 2.55,38.828 18.429,47.617 6.231,3.403 13.321,3.403 20.969,2.551 -1.699,1.992 -3.117,4.262 -4.82,6.242 -50.168,59.238 -123.02,79.365 -162.988,45.07 -39.68,-34.019 -31.18,-109.98 18.988,-168.941 49.89,-59.25 123.031,-79.371 162.711,-45.078 5.672,4.816 9.922,10.488 13.609,16.727 -32.027,23.242 -61.23,57.261 -66.898,95.812" /><path
         id="path110"
         style="fill:#57281a;fill-opacity:1;fill-rule:nonzero;stroke:none"
         d="m 718.18,803.223 c -20.688,22.679 -42.52,52.16 -42.239,84.468 0.289,43.942 32.039,62.649 66.329,60.098 -49.887,52.441 -117.348,69.161 -155.329,36.563 C 547.25,950.34 555.75,874.371 605.93,815.41 c 47.05,-55.558 114.23,-76.82 155.05,-50.738 -15.3,11.617 -30.039,24.379 -42.8,38.551" /><path
         id="path112"
         style="fill:#7e3c22;fill-opacity:1;fill-rule:nonzero;stroke:none"
         d="m 676.512,804.922 c -22.68,30.609 -43.942,72 -37.129,111.691 7.078,42.231 44.5,50.45 82.48,49.879 -46.48,37.418 -102.043,46.208 -134.922,17.86 -39.687,-34.008 -31.187,-109.981 18.993,-168.942 35.707,-42.238 82.769,-64.347 121.32,-61.226 -18.992,14.457 -36.281,31.457 -50.742,50.738" /><path
         id="path114"
         style="fill:#000000;fill-opacity:1;fill-rule:nonzero;stroke:none"
         d="m 719.598,749.93 c -39.118,0.281 -83.91,24.379 -116.789,62.929 -24.661,29.2 -40.25,63.211 -43.93,96.09 -3.691,33.172 5.379,60.949 25.789,78.242 13.32,11.911 31.18,17.859 51.312,17.859 39.118,-0.29 83.899,-24.659 116.79,-63.21 51.3,-60.668 59.519,-138.899 18.14,-174.34 -13.332,-11.621 -31.18,-17.852 -51.312,-17.57 M 635.98,997.391 c -18.429,0 -34.3,-5.379 -46.492,-15.871 -18.14,-15.59 -26.359,-41.098 -22.961,-71.719 3.403,-31.18 18.422,-64.063 42.243,-91.84 31.179,-37.133 73.699,-60.383 111.109,-60.383 18.148,-0.277 34.019,5.113 46.211,15.594 38.269,32.887 29.48,106.297 -19.281,163.848 -31.18,36.851 -73.7,60.089 -110.829,60.371" /><path
         id="path116"
         style="fill:#000000;fill-opacity:1;fill-rule:nonzero;stroke:none"
         d="m 1217.36,947.504 c -48.19,-60.66 -54.14,-136.629 -13.32,-169.512 40.82,-32.879 113.1,-10.488 161.29,50.172 48.19,60.66 54.14,136.629 13.32,169.801 -40.82,32.875 -113.1,10.195 -161.29,-50.461" /><path
         id="path118"
         style="fill:#391f17;fill-opacity:1;fill-rule:nonzero;stroke:none"
         d="m 1253.64,892.23 c 1.71,17.29 -3.68,38.547 -19.84,46.77 -6.23,3.398 -13.6,3.398 -21.25,1.988 1.41,2.262 3.11,4.532 4.82,6.52 48.18,60.662 120.47,83.332 161.29,50.453 40.82,-33.16 34.86,-109.133 -13.32,-169.793 -48.2,-60.66 -120.48,-83.059 -161.3,-50.18 -5.67,4.539 -10.49,10.211 -14.45,16.16 31.46,24.379 59.8,59.25 64.05,98.082" /><path
         id="path120"
         style="fill:#57281a;fill-opacity:1;fill-rule:nonzero;stroke:none"
         d="m 1253.36,812.574 c 19.84,23.242 40.82,53.571 39.4,85.61 -1.7,44.222 -34.01,61.793 -68.03,58.113 47.91,53.843 115.09,72.843 153.92,41.668 40.82,-33.168 34.87,-109.141 -13.32,-169.801 -45.36,-56.98 -111.97,-80.219 -153.64,-55.559 15.02,12.192 29.2,25.508 41.67,39.969" /><path
         id="path122"
         style="fill:#7e3c22;fill-opacity:1;fill-rule:nonzero;stroke:none"
         d="m 1294.75,815.41 c 21.83,31.18 41.67,73.418 33.73,112.82 -8.5,41.95 -46.2,49.321 -84.19,47.34 45.36,38.83 100.63,49.6 134.37,22.391 40.81,-33.16 34.86,-109.133 -13.33,-169.789 -34.58,-43.094 -81.07,-66.902 -119.62,-65.203 18.71,15.312 35.43,32.883 49.04,52.441" /><path
         id="path124"
         style="fill:#000000;fill-opacity:1;fill-rule:nonzero;stroke:none"
         d="m 1253.64,759 c 39.13,1.699 83.07,27.211 114.52,66.898 23.82,30.043 38.28,64.34 40.82,97.231 2.84,33.441 -7.36,60.941 -28.05,77.671 -13.89,11.33 -31.75,16.72 -51.88,15.87 -39.12,-1.42 -83.05,-27.209 -114.52,-66.611 -49.6,-62.368 -55.27,-140.887 -13.05,-174.899 13.9,-11.34 32.04,-16.73 52.16,-16.16 m 75.68,250.02 c 18.16,0.85 34.31,-3.97 46.79,-14.18 18.99,-15.02 27.78,-40.25 25.51,-71.149 -2.55,-31.179 -16.44,-64.339 -39.41,-92.972 -30.05,-37.989 -72,-62.649 -109.14,-64.071 -18.13,-0.558 -34.29,4.262 -46.77,14.18 -39.11,31.742 -32.87,105.453 13.9,164.41 30.33,37.981 72,62.362 109.12,63.782" /><path
         id="path126"
         style="fill:#000000;fill-opacity:1;fill-rule:nonzero;stroke:none"
         d="m 1254.06,596.828 0.62,-3.39 c 31.01,2.421 185.4,14.66 203.99,17.929 6.62,1.024 14.5,3.5 23.61,6.363 l 1.69,0.528 c 10.21,3.269 21.86,12.082 31.21,19.16 9.52,7.18 14.56,10.859 19.08,11.25 l 12.41,11.531 c -9.99,6.442 -24.02,9.93 -40.32,9.93 -12.52,0 -26.01,-2.109 -37.97,-5.941 l -2.61,-0.79 c -8.5,-2.589 -15.84,-4.808 -20.59,-5.648 -18.41,-3.109 -162.51,-51.031 -191.12,-60.922 m -4.38,-15.988 c -2.94,0 -5.46,2.098 -6,4.988 l -2.55,13.891 c -0.07,0.371 -0.1,0.73 -0.1,1.101 0,5.028 0,5.028 94.51,35.989 61.89,20.261 98.08,31.351 107.57,32.949 3.99,0.699 11,2.832 19.12,5.301 l 2.52,0.761 c 13.23,4.239 27.64,6.5 41.6,6.5 15.91,0 38.18,-2.98 53.84,-17.16 1.27,-1.152 1.99,-2.769 2,-4.48 0.01,-1.711 -0.69,-3.34 -1.94,-4.5 l -19.84,-18.43 c -1.6,-1.492 -3.81,-1.973 -5.77,-1.422 -1.99,-0.988 -7.56,-5.199 -12.1,-8.64 -10.1,-7.637 -22.67,-17.137 -34.89,-21.047 l -1.71,-0.543 c -9.59,-3.008 -17.88,-5.618 -25.29,-6.758 -20.91,-3.68 -209.92,-18.5 -210.97,-18.5" /><path
         id="path128"
         style="fill:#00903e;fill-opacity:1;fill-rule:nonzero;stroke:none"
         d="m 1556.1,660.637 c -20.98,18.992 -60.38,18.711 -89.57,9.351 -9.36,-2.832 -17.58,-5.379 -22.4,-6.23 -21.83,-3.692 -197.01,-62.649 -197.01,-62.93 l 2.55,-13.89 c 0.29,0 189.08,14.742 210.05,18.421 7.37,1.137 16.16,3.969 26.08,7.09 21.26,6.797 45.92,33.731 50.46,29.758" /><path
         id="path130"
         style="fill:#000000;fill-opacity:1;fill-rule:nonzero;stroke:none"
         d="m 750.215,541.301 9.637,-0.852 c -0.289,4.821 -5.098,9.352 -10.207,9.641 -5.383,0.558 -9.352,-3.121 -9.071,-7.942 l 9.641,-0.847 z m 11.058,-16.723 c -0.289,4.813 -0.859,9.352 -1.421,15.871 l -19.278,1.699 c 0.571,-3.398 0.848,-9.64 1.418,-15.589 l 19.281,-1.981 z m 1.129,-16.449 c -0.281,3.969 -0.57,10.211 -1.129,16.449 l -19.281,1.981 c 0.281,-5.098 0.571,-10.2 1.422,-16.719 l 18.988,-1.711 z m -9.359,0.859 5.109,-8.23 c 4.532,1.992 5.672,7.371 2.832,11.633 -2.832,4.527 -8.793,6.797 -13.32,4.82 l 5.379,-8.223 z m 1.711,-9.359 c 1.41,0.57 2.551,0.851 3.398,1.129 l -10.488,16.453 c -0.57,-0.293 -1.133,-0.57 -1.699,-0.57 l 8.789,-17.012 z M 638.523,498.5 c 46.489,-3.691 97.52,-4.539 116.231,1.129 l -8.789,17.012 c -16.442,-5.102 -64.352,-3.973 -109.141,-0.282 l 1.699,-17.859 z m -99.492,23.52 c 4.25,-10.2 50.172,-19.27 99.492,-23.52 l -1.699,17.859 c -41.672,3.399 -79.082,7.371 -79.929,9.352 l -17.864,-3.691 z m 8.793,1.71 -9.07,-1.14 c 1.699,-4.82 7.078,-8.223 12.18,-7.371 5.109,0.57 7.937,5.101 6.238,9.922 l -9.348,-1.411 z m -9.07,-1.14 0,0 18.418,2.551 -0.277,0.289 -18.141,-2.84 z m 9.07,1.418 -8.793,-1.988 c 1.981,-4.809 7.653,-7.653 12.473,-6.801 5.098,1.14 7.367,5.949 5.391,10.769 l -9.071,-1.98 z m -25.801,41.101 c 7.372,-18.992 14.739,-37.98 17.008,-43.089 l 17.864,3.968 c -1.993,4.262 -9.364,23.25 -16.442,42.242 l -18.43,-3.121 z m -16.441,42.52 c 1.981,-4.531 9.352,-23.531 16.441,-42.52 l 18.43,3.121 c -7.371,19.27 -14.738,38.27 -17.012,43.368 l -17.859,-3.969 z m 9.07,1.98 9.36,0.571 c -1.141,4.82 -6.52,8.508 -11.629,8.218 -5.379,-0.281 -8.5,-4.531 -7.078,-9.347 l 9.347,0.558 z m 125.86,-37.41 c -58.11,17.012 -115.938,35.711 -116.5,37.981 l -18.707,-1.129 c 1.976,-8.512 67.738,-34.871 132.367,-53.582 l 2.84,16.73 z M 747.941,550.09 c -18.988,-0.852 -62.929,9.348 -107.429,22.109 l -2.84,-16.73 c 46.492,-13.321 93.262,-24.09 114.812,-22.961" /><path
         id="path132"
         style="fill:#00903e;fill-opacity:1;fill-rule:nonzero;stroke:none"
         d="m 750.215,541.301 c -47.621,-2.551 -233.293,58.957 -235.563,68.308 3.969,-9.351 29.2,-76.25 33.172,-85.601 3.68,-12.469 175.457,-27.5 205.219,-15.02 -1.129,10.2 -1.699,22.11 -2.828,32.313" /><path
         id="path134"
         style="fill:#000000;fill-opacity:1;fill-rule:nonzero;stroke:none"
         d="m 1520.1,940.418 3.12,11.059 c 5.95,-1.989 9.35,-8.231 7.94,-14.457 -1.71,-5.954 -7.94,-9.364 -13.89,-7.661 l 2.83,11.059 z m -47.62,15.59 c 12.47,3.121 29.19,1.699 50.74,-4.531 l -5.95,-22.118 c -17.3,5.11 -30.05,6.239 -39.12,4.258 l -5.67,22.391 z m -31.75,-32.309 c 3.97,16.719 13.89,28.059 31.75,32.309 l 5.67,-22.391 c -8.51,-1.988 -13.33,-7.66 -15.31,-15.879 l -22.11,5.961 z m 3.12,-52.16 c -5.1,19.84 -6.52,37.981 -3.12,52.16 l 22.11,-5.961 c -2.55,-10.492 -1.13,-24.66 2.83,-41.101 l -21.82,-5.098 z m 79.08,-163.281 c -30.61,45.359 -66.61,111.969 -79.08,163.281 l 21.82,5.098 c 11.91,-48.469 46.49,-112.25 75.97,-155.91 l -18.71,-12.469 z m 9.36,6.242 7.94,7.938 c 4.53,-4.54 4.53,-11.911 0,-16.161 -4.54,-4.539 -11.63,-4.25 -16.16,0.282 l 8.22,7.941 z m -126.71,95.238 c 45.35,-11.34 98.08,-49.601 134.65,-87.3 l -16.16,-15.879 c -34.02,35.148 -82.49,70.578 -123.31,80.789 l 4.82,22.39 z m -37.98,2.27 c 11.9,1.98 24.66,0.851 37.98,-2.27 l -4.82,-22.39 c -10.49,2.55 -20.41,3.398 -29.2,1.98 l -3.96,22.68 z m -33.17,-15.871 c 9.36,8.781 20.69,13.89 33.17,15.871 l 3.96,-22.68 c -7.93,-1.129 -15.3,-4.531 -20.97,-10.199 l -16.16,17.008 z m -21.26,-40.539 c 4.54,17.859 11.91,31.179 21.26,40.539 l 16.16,-17.008 c -6.8,-6.52 -11.91,-16.16 -15.31,-29.481 l -22.11,5.95 z m 11.06,-2.828 -11.06,2.828 c 1.42,5.949 7.37,9.64 13.61,8.218 6.23,-1.699 9.92,-7.937 8.5,-14.168 l -11.05,3.122 z m -13.89,-51.59 c -2.55,15.867 -1.99,34.008 2.83,54.418 l 22.11,-5.95 c -3.97,-17.289 -4.53,-32.32 -2.55,-45.359 l -22.39,-3.109 z m 31.74,-57.262 c -16.15,14.172 -27.78,33.16 -31.74,57.262 l 22.39,3.109 c 3.12,-18.141 11.91,-32.59 24.09,-43.371 l -14.74,-17 z m 58.11,-28.352 c -22.11,5.102 -42.23,14.461 -58.11,28.352 l 14.74,17 c 12.76,-11.051 29.2,-18.699 47.91,-22.961 l -4.54,-22.391 z m 83.06,-1.976 c -27.78,-4.543 -56.98,-4.262 -83.06,1.976 l 4.54,22.391 c 23.24,-5.379 49.04,-5.668 73.98,-1.699 l 4.54,-22.668 z m -2.27,11.328 -7.08,9.359 c 5.1,3.68 12.18,2.832 16.15,-2.55 3.69,-5.11 2.84,-12.188 -1.98,-15.879 l -7.09,9.07 z m -46.77,-85.32 c -7.94,30.05 0.85,64.91 39.69,94.679 l 14.17,-18.429 c -30.62,-23.239 -37.7,-49.039 -32.03,-70.86 l -21.83,-5.39 z m 53.58,-62.641 c -24.67,11.332 -46.49,34.859 -53.58,62.641 l 21.83,5.39 c 5.38,-20.699 21.82,-38.269 40.82,-47.058 l -9.07,-20.973 z m 76.81,10.199 c -21.26,-21.258 -50.74,-22.109 -76.81,-10.199 l 9.07,20.973 c 17.85,-8.223 37.7,-7.942 51.59,5.668 l 16.15,-16.442 z m 21.26,144.282 C 1599.19,554.059 1587,509.27 1564.6,487.156 l -16.15,16.442 c 17.57,17.582 26.93,55.84 15.3,124.441 l 22.11,3.399 z m -11.05,-1.7 -10.77,-3.679 c -1.99,6.23 0.85,12.75 6.8,14.738 5.95,1.98 12.47,-1.141 14.74,-7.367 l -10.77,-3.692 z m 44.22,-104.601 c -23.53,27.781 -43.09,68.043 -54.99,100.922 l 21.54,7.371 c 11.06,-30.903 29.2,-68.321 50.46,-93.551 l -17.01,-14.742 z m 35.15,-29.188 c -12.47,5.949 -24.38,16.438 -35.15,29.188 l 17.01,14.742 c 9.07,-10.481 18.14,-18.699 27.49,-23.242 l -9.35,-20.688 z m 41.95,-3.402 c -14.17,-5.109 -28.34,-3.41 -41.95,3.402 l 9.35,20.688 c 8.22,-4.25 16.44,-5.387 24.66,-2.547 l 7.94,-21.543 z m 19.28,11.332 c -6.24,-5.383 -12.76,-9.07 -19.28,-11.332 l -7.94,21.543 c 3.97,1.699 8.23,3.969 12.48,7.648 l 14.74,-17.859 z m -7.37,8.789 6.8,-9.352 c -5.1,-3.687 -12.19,-2.269 -15.87,2.832 -3.97,5.102 -2.84,12.469 2.26,15.879 l 6.81,-9.359 z m 23.81,9.641 c -3.69,-6.801 -9.36,-13.321 -17.01,-18.993 l -13.61,18.711 c 5.11,3.961 8.51,7.653 10.78,11.903 l 19.84,-11.621 z m 4.25,35.718 c 2.83,-12.48 1.98,-24.379 -4.25,-35.718 l -19.84,11.621 c 3.11,5.949 3.68,12.468 1.98,19.277 l 22.11,4.82 z m -16.72,34.301 c 7.93,-11.34 13.89,-22.969 16.72,-34.301 l -22.11,-4.82 c -1.7,8.223 -6.52,16.723 -13.04,25.793 l 18.43,13.328 z m -97.23,79.371 c 34.01,-18.429 74.55,-48.761 97.23,-79.371 L 1700.95,579 c -20.13,27.777 -57.54,55.277 -89.01,72.566 l 10.21,20.133 z m -5.11,-10.211 -1.13,-11.34 c -6.24,0.852 -10.77,6.52 -10.2,12.758 0.56,6.524 6.23,10.774 12.47,9.922 l -1.14,-11.34 z m 102.34,-6.242 c -31.47,-9.066 -70.02,-9.629 -103.47,-5.098 l 2.27,22.68 c 30.9,-3.969 66.05,-3.398 94.39,4.531 l 6.81,-22.113 z m 44.22,22.973 c -11.91,-10.492 -26.93,-17.86 -44.22,-22.973 l -6.81,22.113 c 14.18,4.258 26.65,9.93 35.72,18.149 l 15.31,-17.289 z m 22.96,42.801 c -2.55,-17.864 -10.77,-32.032 -22.96,-42.801 l -15.31,17.289 c 8.5,7.648 14.17,17.289 15.59,29.191 l 22.68,-3.679 z m -3.97,39.968 c 4.25,-15.031 5.38,-28.07 3.97,-39.968 l -22.68,3.679 c 1.13,8.789 0.28,18.707 -2.84,30.328 l 21.55,5.961 z m -10.77,-3.121 11.06,2.832 c 1.41,-6.23 -1.99,-12.472 -7.95,-13.89 -6.23,-1.411 -12.47,2.269 -14.17,8.507 l 11.06,2.551 z m -17.01,51.59 c 12.19,-10.488 21.83,-26.359 28.07,-48.758 l -22.12,-5.383 c -4.53,17.293 -11.62,29.192 -20.41,36.852 l 14.46,17.289 z m -35.72,16.16 c 13.04,-1.988 25.23,-7.09 35.72,-16.16 l -14.46,-17.289 c -6.8,5.949 -15.02,9.352 -23.81,10.488 l 2.55,22.961 z m -39.4,-3.398 c 13.61,3.679 26.65,5.097 39.4,3.398 l -2.55,-22.961 c -9.35,1.41 -19.84,0.282 -30.33,-2.547 l -6.52,22.11 z m -103.18,-68.602 c 25.51,29.481 65.2,58.391 103.18,68.602 l 6.52,-22.11 c -33.73,-9.082 -69.45,-35.441 -92.69,-61.8 l -17.01,15.308 z m 8.5,-7.66 11.34,-1.699 c -0.85,-6.231 -6.52,-10.488 -12.75,-9.641 -6.24,0.86 -10.49,6.813 -9.93,13.039 l 11.34,-1.699 z m 2.55,131.813 c 13.33,-39.961 13.89,-89.293 8.79,-133.512 l -22.68,3.398 c 4.82,41.114 4.54,87.032 -7.65,123.313 l 21.54,6.801 z m -63.49,73.136 c 32.6,-12.758 52.44,-39.687 63.49,-73.136 l -21.54,-6.801 c -8.79,26.929 -24.38,48.758 -49.89,58.679" /><path
         id="path136"
         style="fill:#fdfdfd;fill-opacity:1;fill-rule:nonzero;stroke:none"
         d="m 1520.1,940.418 c 65.76,-26.359 73.7,-118.199 64.91,-194.461 50.74,58.109 159.03,114.52 186.81,11.91 25.51,-89.008 -77.39,-106.578 -154.78,-96.379 62.08,-33.73 147.12,-107.718 91,-148.82 -53.29,-45.07 -109.42,50.738 -133.23,117.07 46.77,-271.558 -230.17,-108.558 -93.83,-4.82 -84.75,-13.891 -181.7,20.41 -156.75,127.852 24.37,98.078 142.58,29.187 208.06,-38.27 -60.66,90.418 -143.15,265.609 -12.19,225.918" /><path
         id="path138"
         style="fill:#000000;fill-opacity:1;fill-rule:nonzero;stroke:none"
         d="m 1563.14,742.316 c -2.32,0 -4.69,-0.168 -7.03,-0.507 -12.18,-1.77 -22.9,-8.43 -30.16,-18.762 -8.5,-12.09 -11.54,-28.117 -8.31,-43.988 5.91,-27.801 29.86,-48.84 55.68,-48.84 2.34,0 4.7,0.179 7.07,0.539 11.84,1.941 22.38,8.738 29.57,19.129 8.49,12.242 11.56,28.269 8.42,43.953 -5.7,28.078 -28.93,48.476 -55.24,48.476 m 10.18,-131.937 0,0 c -34.98,0 -67.27,27.789 -75.12,64.648 -4.31,21.27 -0.11,42.911 11.51,59.442 10.45,14.828 25.9,24.418 43.56,26.98 3.27,0.481 6.59,0.707 9.87,0.707 35.7,0 67.11,-27.09 74.7,-64.398 4.18,-20.961 -0.04,-42.52 -11.57,-59.168 -10.27,-14.852 -25.47,-24.594 -42.77,-27.434 -3.43,-0.519 -6.82,-0.777 -10.18,-0.777" /><path
         id="path140"
         style="fill:#fdc600;fill-opacity:1;fill-rule:nonzero;stroke:none"
         d="m 1554.68,751.629 c -33.16,-4.82 -54.13,-38.27 -46.77,-74.551 7.66,-36 40.82,-61.226 73.98,-56.129 32.88,5.391 53.29,39.403 46.22,74.84 -7.38,36.281 -39.97,60.66 -73.43,55.84" /><path
         id="path142"
         style="fill:#000000;fill-opacity:1;fill-rule:nonzero;stroke:none"
         d="m 661.203,1784.01 3.402,0 c 20.981,34.02 58.961,56.69 101.77,56.41 25.512,-0.28 48.75,-8.22 68.031,-22.11 14.739,15.59 33.16,28.06 53.571,36 18.429,42.24 60.66,71.43 109.699,71.15 56.704,-0.57 103.754,-40.82 115.094,-94.11 21.82,24.94 54.14,40.25 89.86,39.97 65.48,-0.29 118.19,-53.86 117.64,-119.34 l 0,-4.54 c 65.48,-0.56 118.19,-54.14 117.62,-119.62 -0.28,-65.48 -53.85,-118.2 -119.34,-117.64 -60.09,0.29 -109.41,45.36 -116.78,103.47 -21.25,-34.02 -58.95,-56.7 -102.04,-56.41 -31.75,0.28 -60.66,13.04 -81.93,33.73 -22.675,-13.89 -49.316,-21.83 -77.663,-21.54 l -2.274,0 c -19.269,-39.97 -60.379,-67.47 -107.718,-67.18 -45.629,0.28 -85.032,26.36 -104.59,64.34 -19,-12.75 -41.668,-19.84 -66.051,-19.84 -65.758,0.57 -118.488,54.14 -117.918,119.62 0.559,65.48 53.859,118.21 119.617,117.64" /></g></g></svg>