<?xml version="1.0" encoding="UTF-8" standalone="no"?>
<!-- Created with Inkscape (http://www.inkscape.org/) -->

<svg
   xmlns:dc="http://purl.org/dc/elements/1.1/"
   xmlns:cc="http://creativecommons.org/ns#"
   xmlns:rdf="http://www.w3.org/1999/02/22-rdf-syntax-ns#"
   xmlns:svg="http://www.w3.org/2000/svg"
   xmlns="http://www.w3.org/2000/svg"
   xmlns:sodipodi="http://sodipodi.sourceforge.net/DTD/sodipodi-0.dtd"
   xmlns:inkscape="http://www.inkscape.org/namespaces/inkscape"
   id="svg6018"
   height="47mm"
   width="51mm"
   version="1.1"
   viewBox="0 0 180.70867 166.53541"
   inkscape:version="0.91 r13725"
   sodipodi:docname="cow_1.svg">
  <defs
     id="defs68" />
  <sodipodi:namedview
     pagecolor="#ffffff"
     bordercolor="#666666"
     borderopacity="1"
     objecttolerance="10"
     gridtolerance="10"
     guidetolerance="10"
     inkscape:pageopacity="0"
     inkscape:pageshadow="2"
     inkscape:window-width="1679"
     inkscape:window-height="923"
     id="namedview66"
     showgrid="false"
     inkscape:zoom="1.4171158"
     inkscape:cx="-150.27526"
     inkscape:cy="83.267713"
     inkscape:window-x="0"
     inkscape:window-y="0"
     inkscape:window-maximized="0"
     inkscape:current-layer="svg6018" />
  <metadata
     id="metadata6023">
    <rdf:RDF>
      <cc:Work
         rdf:about="">
        <dc:format>image/svg+xml</dc:format>
        <dc:type
           rdf:resource="http://purl.org/dc/dcmitype/StillImage" />
        <dc:title />
      </cc:Work>
    </rdf:RDF>
  </metadata>
  <g
     transform="matrix(0.90109599,0,0,0.90109599,-2.3463663,-5.6822574)"
     id="g3">
    <path
       style="fill:#717170;fill-rule:evenodd"
       inkscape:connector-curvature="0"
       d="m 52,44 c -0.5,-3 0.5,-6.4 2.3,-10.1 0.2,-0.4 1.3,-0.7 1.3,-0.3 -0.2,4.4 0.4,7 5.5,8.4 7.7,-11.4 22.6,-13.9 31.7,-12 6,-4.7 15.8,-5.6 23.4,-0.5 3.1,1 6,2.6 8.6,4.9 5.3,-2.7 5.5,-5.5 4.6,-9.9 -0.1,-0.5 1,-0.4 1.3,-0.1 1.4,2 2.5,3.9 3.2,5.8 0.2,-0.1 0.5,-0.1 0.8,0 0.2,0.1 0.5,0.2 0.7,0.4 0.4,0.3 0.8,0.9 1,1.3 4.9,3.3 7.2,6.7 7.4,10.2 0.2,3.5 -1.6,7 -5,10.6 -0.5,1.1 -2.2,1.8 -4.1,2.2 -0.2,0.1 -0.4,0.1 -0.6,0.1 2.6,10.2 3.5,13.4 4.7,26 2.6,6.5 4.8,15.3 12,22.2 3.3,3.2 7.8,2.9 13.4,6.3 0.3,0.1 -6.3,2.6 -7.8,2.7 -5.7,0.7 -12.9,-2.1 -16.5,-7 -1,-1.4 6.8,9.6 15.2,12.8 -6.4,2.1 -8.4,1.9 -12.7,-0.6 1.5,1.9 2.8,3.9 3.8,6.1 3,2.6 6.1,4.9 7.8,5.9 -2,0.5 -3.8,0.5 -5.4,0.4 0.3,1.2 0.6,2.4 0.8,3.6 3.7,22.5 -11.3,34.3 -36.9,40.2 -25.6,5.9 -52.3,3.6 -56,-18.9 -0.7,-4.4 -0.6,-8.8 0.2,-13 -2.7,2.5 -4.5,4 -4.7,4.5 1.3,-2.7 3.3,-8 4.8,-13.3 -1.7,1.6 -3.6,3.1 -5.4,4.2 -1.5,1 -12.3,5.4 -5.8,1.1 8.1,-5.4 12.4,-14.4 11.5,-12.8 -1.3,2.1 -8.5,4.5 -14.4,5.2 -1.5,0.2 -7.3,0.3 -7.4,0 -0.1,-0.3 10.4,-5.9 12.7,-7.9 6.8,-5.9 8.5,-8 9.8,-12.9 -9.9,6.6 -19.7,11 -27.8,11 0,0 12.8,-7.8 18.2,-13.1 3.1,-3.1 6.4,-6.1 9.8,-9 l -0.1,-1.3 c -11,9.5 -23.2,15.4 -34.7,10.6 2.5,1 21.3,-5.9 24,-11.7 -1,2.1 -18.1,4.3 -20,4 -1.8,-0.3 -12.9,-4 -5.4,-3.1 9.4,1.1 17.1,-5.4 15.6,-4.6 C 32,95.4 25.8,92.3 20.4,88.9 19.1,88 19,88.3 19.1,88 c 0.1,-0.3 8.6,1 11.5,1 10.2,-0.1 12.4,-3.6 17.3,-8.3 2.9,-5.8 5.6,-11.7 8.5,-17.6 0,-0.9 0.1,-1.9 0.1,-2.8 -0.9,0.2 -1.8,0.4 -2.7,0.5 -2.2,0.3 -4.1,0.1 -5.1,-0.9 -4.8,-2.5 -8.1,-5.4 -9,-9 -1,-3.7 0.2,-7.9 4.3,-12.9 0.1,-0.5 0.3,-1.2 0.6,-1.6 0.1,-0.3 0.3,-0.5 0.5,-0.7 0.4,-0.3 0.8,-0.4 1.2,-0.2 0.2,0.1 0.4,0.3 0.6,0.5 l 0.1,0.3 c 0.5,2.8 2.6,5.4 5,7.7 z m 129,16.1 c 0.1,0.4 0.2,1 0.3,1.7 0.1,0.7 0.3,1.5 0.4,2.3 0.1,0.8 0.2,1.7 0.2,2.6 0,0.9 2,8.8 2,9.6 -0.1,0.7 -0.2,1.4 -0.4,1.9 -0.2,0.5 -0.5,0.9 -0.9,1 -0.5,0.2 -1,0 -1.4,-0.4 -0.5,-0.5 -0.9,-1 -1.4,-1.8 -0.4,-0.8 -2.8,-8.8 -3.2,-9.8 -0.4,-1 -0.7,-2 -1,-2.9 -0.3,-1 -0.6,-1.9 -0.8,-2.7 -0.2,-0.9 -0.4,-1.5 -0.5,-2 -0.1,-0.5 -0.3,-1 -0.4,-1.8 -0.2,-0.7 -0.3,-1.4 -0.5,-2.2 l -0.3,-2.4 c -0.1,-0.8 -0.1,-1.6 0,-2.3 0.1,-0.7 0.3,-1.4 0.6,-1.9 0.3,-0.5 0.7,-0.9 1.3,-1.1 0.5,-0.2 1,-0.1 1.5,0.3 0.5,0.4 0.9,1 1.3,1.7 0.4,0.8 0.8,1.6 1.1,2.6 0.3,1 0.7,2 0.9,2.9 0.3,1 0.5,1.9 0.7,2.7 0.2,0.8 0.4,1.5 0.5,2 z m -10.4,22 c -1.1,0.4 -2.1,0.4 -3.1,0 -1,-0.4 -1.9,-1 -2.7,-1.9 -0.8,-0.9 -1.5,-1.9 -2.1,-3.1 -0.6,-1.2 -1,-2.4 -1.4,-3.7 -0.3,-1.4 -0.5,-2.8 -0.6,-4.3 -0.1,-1.5 0,-3 0.3,-4.4 0.3,-1.4 0.8,-2.6 1.5,-3.6 0.7,-1.1 1.7,-1.8 2.9,-2.2 1.2,-0.4 2.3,-0.4 3.4,0.1 1,0.5 2,1.2 2.7,2.2 0.8,1 1.5,2.1 2,3.4 0.5,1.3 0.9,2.6 1.2,3.8 0.3,1.4 0.4,2.8 0.5,4.3 0,1.4 -0.1,2.8 -0.4,4.1 -0.3,1.3 -0.8,2.4 -1.5,3.4 -0.5,0.8 -1.5,1.5 -2.7,1.9 z M 158.3,67.5 c 0.1,0.5 0.3,1.3 0.5,2.4 0.2,1 0.4,2.2 0.6,3.5 0.2,1.3 0.3,2.6 0.4,3.9 0.1,1.4 0.1,2.6 0,3.8 -0.1,1.2 -0.3,2.2 -0.7,3 -0.3,0.8 -0.9,1.4 -1.5,1.6 -0.7,0.2 -1.3,0.2 -1.9,-0.1 -0.7,-0.3 -1.3,-0.7 -1.9,-1.2 -0.6,-0.5 -1.1,-1.1 -1.6,-1.7 -0.5,-0.6 -0.9,-1.2 -1.3,-1.7 -0.8,-1.2 -1.5,-2.3 -2.3,-3.4 -0.8,-1.1 -1.5,-2.2 -2.2,-3.4 l 0.3,1.1 c 0.3,1.1 0.5,2.2 0.8,3.3 0.3,1.1 0.4,2.2 0.6,3.3 0.1,0.5 0.1,1 0.2,1.6 0.1,0.6 0.1,1.2 0.2,1.8 0,0.6 0,1.2 -0.1,1.7 -0.1,0.5 -0.3,1 -0.6,1.3 -0.1,0.2 -0.3,0.3 -0.5,0.4 -0.2,0.1 -0.3,0.2 -0.5,0.3 l -0.1,0.1 c -0.5,0.2 -1,0.1 -1.4,-0.2 -0.5,-0.3 -0.9,-0.7 -1.2,-1.2 -0.4,-0.5 -0.7,-1.2 -1.1,-1.9 -0.3,-0.7 -0.6,-1.4 -0.9,-2.2 -0.3,-0.7 -0.5,-1.4 -0.7,-2 -0.2,-0.6 -0.3,-1.1 -0.4,-1.5 -0.1,-0.6 -0.3,-1.4 -0.6,-2.6 -0.2,-1.2 -0.5,-2.4 -0.7,-3.9 -0.2,-1.5 -0.3,-2.9 -0.5,-4.4 -0.1,-1.5 -0.1,-2.9 -0.1,-4.3 0.1,-1.3 0.3,-2.4 0.6,-3.3 0.3,-0.9 0.9,-1.5 1.6,-1.8 0.7,-0.2 1.3,-0.1 2,0.3 0.7,0.4 1.3,1 1.9,1.7 0.6,0.7 1.2,1.4 1.7,2.3 0.5,0.8 0.9,1.5 1.3,2 0.7,1.1 1.3,2.2 1.9,3.2 0.7,1.1 1.3,2.2 1.9,3.3 l 0.2,0.4 c 0.1,0.2 0.3,0.4 0.4,0.7 l 0.6,0.9 c -0.1,-0.3 -0.1,-0.6 -0.2,-0.7 0,-0.1 -0.1,-0.3 -0.1,-0.4 0,-0.1 -0.1,-0.3 -0.1,-0.5 0,-0.2 -0.1,-0.5 -0.2,-0.8 -0.2,-0.9 -0.5,-1.7 -0.7,-2.5 -0.2,-0.8 -0.4,-1.6 -0.6,-2.5 -0.1,-0.4 -0.2,-0.9 -0.4,-1.5 -0.1,-0.6 -0.3,-1.3 -0.4,-2.1 -0.1,-0.7 -0.2,-1.5 -0.3,-2.3 -0.1,-0.8 -0.1,-1.5 0,-2.2 0.1,-0.7 0.2,-1.2 0.4,-1.7 0.2,-0.5 0.5,-0.8 1,-1 0.5,-0.2 1,-0.1 1.6,0.3 0.5,0.3 1,0.9 1.4,1.5 0.5,0.7 0.9,1.4 1.2,2.3 0.4,0.9 0.7,1.8 1,2.6 0.3,0.9 0.5,1.7 0.8,2.4 0.4,0.9 0.6,1.5 0.7,2 z"
       id="path5" />
    <path
       style="fill:#676766"
       inkscape:connector-curvature="0"
       d="m 90,182.5 c -22.7,0 -36.7,-9.5 -39.5,-26.6 -0.2,-1.3 -0.4,-2.5 -0.4,-3.8 -0.3,-0.1 -0.6,-0.2 -0.9,-0.4 -2.2,-1.1 -3.4,-3.5 -3.2,-5.9 -0.8,0.2 -1.6,0.3 -2.2,0.3 -2.8,0 -5.2,-1.7 -6,-4.3 -0.6,-2 -0.2,-3.6 0.6,-4.9 l -0.5,0 c -2.8,0 -7.1,0 -8.5,-4.5 -0.7,-2.4 0,-4.2 1.1,-5.5 l -0.7,0 c -2.7,0 -5,-1.8 -5.8,-4.4 -0.7,-2.6 0.4,-5.3 2.7,-6.7 0.1,-0.1 0.3,-0.2 0.5,-0.3 -2.2,-0.3 -4.4,-0.9 -6.5,-1.8 -3.1,-1.3 -4.5,-4.8 -3.3,-7.8 0.3,-0.7 0.7,-1.3 1.2,-1.8 -2.9,-1.1 -6,-3 -5.7,-7.1 0.1,-1.5 0.8,-3 2,-4.1 -1.7,-1.4 -2.5,-3.6 -2,-5.9 0,-0.2 0.1,-0.4 0.1,-0.5 0.6,-2 2.5,-4.3 6,-4.3 0.9,0 2.3,0.2 4.8,0.4 2.1,0.2 5.2,0.6 6.3,0.6 6.7,-0.1 8,-1.4 11.6,-5.1 l 0.8,-0.8 c 1.5,-3.1 3,-6.2 4.6,-9.5 0.2,-0.5 0.4,-0.9 0.7,-1.4 C 46.8,66.1 45.9,65.6 45,65.1 38.7,61.8 34.8,57.6 33.5,52.6 32,47.2 33.6,41.4 38.1,35.4 c 0.2,-0.6 0.5,-1.2 0.8,-1.9 0.5,-1 1.2,-1.8 2.1,-2.4 2,-1.6 4.6,-2 7,-1.1 0.5,0.2 0.9,0.4 1.3,0.7 1.4,-2.1 4,-3.1 6,-3.1 3.2,0 5.8,2.2 6.2,5.2 6.6,-5.8 15.6,-9.2 25.5,-9.2 1.5,0 3,0.1 4.5,0.3 3.9,-2.4 8.5,-3.6 13.4,-3.6 5.1,0 9.9,1.4 14.1,4 1.7,0.6 3.3,1.3 4.8,2.1 0,-0.2 -0.1,-0.3 -0.1,-0.5 -0.4,-1.9 0.1,-3.8 1.3,-5.2 1.2,-1.5 3.1,-2.3 5.1,-2.3 2.2,0 4.1,0.9 5.4,2.4 0.1,0.1 0.2,0.2 0.3,0.4 1.1,1.6 2,3 2.7,4.5 0.4,0.3 0.8,0.6 1.1,0.9 0.4,0.4 0.8,0.9 1.2,1.4 5.6,4.1 8.7,8.8 9.1,14.1 0.3,4.2 -1.2,8.3 -4.4,12.5 0,0 0.1,0 0.1,0.1 0.9,-1.6 2.3,-2.9 4.1,-3.6 0.1,0 0.2,-0.1 0.3,-0.1 2.2,-0.7 4.7,-0.4 6.7,1 1.2,0.8 2.2,1.9 3.1,3.2 0,0 0,0.1 0.1,0.1 1.1,-0.9 2.3,-1.6 3.7,-2.1 1.2,-0.4 2.4,-0.6 3.5,-0.6 0,-0.9 0,-1.7 0.1,-2.5 0.2,-1.6 0.6,-2.9 1.3,-4.1 1,-1.8 2.5,-3.1 4.5,-3.8 0.8,-0.3 1.6,-0.4 2.5,-0.4 1.3,0 3.1,0.3 5,1.9 0.9,0.8 1.7,1.8 2.5,3.2 0,0.1 0.1,0.2 0.1,0.2 0.5,0.9 0.9,1.9 1.4,3.2 0,0.1 0,0.1 0.1,0.2 0.4,1.2 0.7,2.3 1,3.3 0.3,0.9 0.5,1.9 0.8,3 0.1,0.5 0.2,1 0.3,1.4 l 0.1,0.5 c 0.2,0.6 0.3,1.2 0.4,2.1 0.2,0.8 0.3,1.7 0.4,2.6 0.1,1 0.2,2 0.3,2.9 0.1,0.7 0.5,2.4 0.8,3.6 1.1,4.8 1.3,5.7 1.2,6.9 -0.1,1.4 -0.3,2.5 -0.7,3.6 -0.8,2.1 -2.3,3.7 -4.3,4.5 0,0 -0.1,0 -0.2,0.1 -2.2,0.8 -4.6,0.4 -6.5,-0.9 -1.4,1.8 -3.3,3.2 -5.5,3.9 -2.4,0.9 -5,0.8 -7.3,-0.1 -0.3,-0.1 -0.7,-0.3 -1,-0.4 -1,1.9 -2.6,3.3 -4.6,4.1 0,0 -0.1,0 -0.1,0.1 -2,0.7 -4.2,0.6 -6.2,-0.2 0,0 -0.1,0 -0.1,-0.1 -0.1,0 -0.1,-0.1 -0.2,-0.1 -0.2,0.4 -0.5,0.7 -0.7,1 -0.5,0.6 -1.1,1.1 -1.7,1.6 1.2,1.9 2.6,3.8 4.3,5.5 0.8,0.8 2,1.2 4.2,1.9 2.2,0.7 5,1.7 8.1,3.6 2.2,1.3 3.3,3.8 2.8,6.3 -0.7,3.5 -3.3,4.5 -7.3,5.9 -0.7,0.2 -1.3,0.4 -1.8,0.6 0,0.3 0.1,0.6 0,0.9 -0.1,2.5 -1.7,4.8 -4.1,5.6 -0.2,0.1 -0.4,0.1 -0.5,0.2 0.3,0.2 0.5,0.3 0.7,0.4 2.1,1.3 3.2,3.7 2.8,6.1 -0.4,2.3 -2,4.2 -4.3,4.8 2.4,22.4 -11.7,37.3 -41.9,44.2 -8.5,1.7 -16.5,2.6 -23.8,2.6 z M 61.3,138.2 c 1,1.3 1.5,3 1.2,4.8 -0.7,3.7 -0.8,7.4 -0.2,11 1.8,11 11.1,16.6 27.6,16.6 6.4,0 13.5,-0.9 21.1,-2.6 32.3,-7.4 34.3,-21.7 32.4,-33.4 l -0.6,-3 c -0.3,-1 -0.3,-2 0,-2.9 -0.2,-0.1 -0.3,-0.3 -0.4,-0.4 -0.6,-0.5 -1.1,-1.2 -1.5,-2 -0.8,-1.7 -1.9,-3.4 -3.2,-5 -1.8,-2.3 -1.7,-5.5 0.2,-7.6 l 0.6,-0.6 c -1.2,-1.3 -2.2,-2.5 -2.9,-3.3 -0.1,-0.2 -0.3,-0.4 -0.5,-0.6 -2.1,-2.8 -1,-5.6 -0.7,-6.4 1,-2 3.1,-3.3 5.4,-3.3 l 0.3,0 c -2.5,-4.3 -4.1,-8.6 -5.5,-12.3 -0.5,-1.3 -0.9,-2.5 -1.4,-3.6 -0.2,-0.5 -0.4,-1.1 -0.4,-1.7 -1,-11 -1.9,-14.3 -3.9,-22.4 l -0.7,-2.7 c -0.4,-1.7 -0.1,-3.4 0.9,-4.8 1,-1.4 2.5,-2.3 4.2,-2.6 0.1,0 0.2,0 0.3,-0.1 0.3,-0.1 0.5,-0.1 0.6,-0.1 0.1,-0.1 0.2,-0.2 0.2,-0.3 1.6,-1.7 3.5,-4.1 3.4,-6.1 -0.2,-2.1 -2.7,-4.2 -4.8,-5.7 -0.2,-0.2 -0.5,-0.4 -0.7,-0.6 -1.2,1.2 -2.7,2.3 -4.7,3.3 -2.2,1.2 -5,0.8 -6.8,-0.9 -1.7,-1.6 -3.9,-2.8 -6.4,-3.6 -0.5,-0.2 -1.1,-0.4 -1.5,-0.7 -2.4,-1.6 -5.2,-2.5 -8.1,-2.5 -3.1,0 -6.1,1 -8.2,2.7 -1.4,1.1 -3.2,1.5 -4.9,1.2 -1.4,-0.3 -3,-0.4 -4.7,-0.4 -6.8,0 -15.9,2.6 -20.9,10 -1.4,2.1 -4.1,3.1 -6.6,2.4 -0.9,-0.2 -1.6,-0.5 -2.4,-0.8 -0.6,1 -1.4,1.8 -2.4,2.3 -2.3,1.2 -5.1,0.7 -7,-1.1 C 47,47.7 46.3,46.9 45.5,46 45,47.2 44.7,48.5 45,49.5 c 0.5,1.7 2.6,3.5 6,5.3 0.2,0.1 0.4,0.2 0.5,0.3 0.3,0 0.7,0 1.2,-0.1 0.6,-0.1 1.2,-0.2 1.9,-0.3 1.9,-0.5 3.8,0 5.3,1.2 1.5,1.2 2.3,3.1 2.2,5 -0.1,0.9 -0.1,1.8 -0.1,2.6 0,0.8 -0.2,1.7 -0.6,2.5 -1.2,2.4 -2.3,4.7 -3.4,7.1 -1.6,3.5 -3.4,7.1 -5.1,10.6 -0.3,0.6 -0.7,1.1 -1.1,1.6 l -1.4,1.4 c -1.4,1.4 -2.8,2.8 -4.4,4.1 1.1,-0.2 2.4,-0.1 3.5,0.4 1.4,0.6 2.5,1.8 3.1,3.1 0.4,-0.4 0.9,-0.7 1.3,-1.1 1.7,-1.5 4.1,-1.9 6.2,-1 2.1,0.8 3.5,2.8 3.7,5 l 0.1,1.3 c 0.2,1.9 -0.6,3.8 -2,5.1 -0.5,0.4 -0.9,0.8 -1.4,1.2 0.3,0.1 0.6,0.3 0.8,0.5 2,1.5 2.9,4 2.3,6.4 -0.9,3.4 -2.1,5.9 -4,8.3 1.6,0.7 2.8,2 3.4,3.8 0.5,1.5 0.6,2.9 -1.2,6 1,1.4 1.3,3.3 0.8,5.1 -0.5,0.9 -0.9,2.1 -1.3,3.3 z M 166.9,65.9 c -0.2,0.9 -0.2,1.8 -0.2,2.8 l 0,0.1 c 0,1.1 0.2,2.1 0.4,3.1 0.2,0.9 0.5,1.7 0.9,2.5 0.3,0.6 0.6,1.1 0.9,1.5 0.1,-0.2 0.1,-0.4 0.2,-0.6 0.1,-0.7 0.2,-1.5 0.2,-2.5 0,-1.2 -0.2,-2.3 -0.4,-3.3 l 0,-0.1 c -0.1,-0.8 -0.4,-1.6 -0.8,-2.6 -0.3,-0.7 -0.6,-1.3 -1,-1.8 -0.1,0.3 -0.1,0.6 -0.2,0.9 z"
       id="path7" />
  </g>
  <path
     id="path11"
     d="m 44.510625,33.965966 c -0.450548,-2.703288 0.450548,-5.767014 2.072521,-9.101069 0.180219,-0.360439 1.171425,-0.630768 1.171425,-0.270329 -0.180219,3.964822 0.360438,6.307672 4.956028,7.569206 6.938439,-10.272494 20.364769,-12.525234 28.564743,-10.813152 5.406576,-4.235151 14.237316,-5.046137 21.085648,-0.450548 2.7934,0.901096 5.40657,2.34285 7.74942,4.415371 4.77581,-2.43296 4.95603,-4.956028 4.14504,-8.920851 -0.0901,-0.450548 0.9011,-0.360438 1.17143,-0.09011 1.26153,1.802192 2.25274,3.514274 2.88351,5.226356 0.18022,-0.09011 0.45054,-0.09011 0.72087,0 0.18022,0.09011 0.45055,0.18022 0.63077,0.360439 0.36044,0.270329 0.72088,0.810986 0.9011,1.171425 4.41537,2.973616 6.48789,6.037343 6.66811,9.191179 0.18022,3.153836 -1.44176,6.307672 -4.50548,9.551617 -0.45055,0.991206 -1.98241,1.621973 -3.6945,1.982411 -0.18022,0.09011 -0.36043,0.09011 -0.54065,0.09011 2.34285,9.191179 3.15383,12.074686 4.23515,23.428496 2.34285,5.857124 4.32526,13.786768 10.81315,20.004331 2.97362,2.883507 7.02855,2.613178 12.07469,5.676905 0.27032,0.09011 -5.67691,2.342849 -7.02855,2.432959 -5.13625,0.630767 -11.62414,-1.892302 -14.86809,-6.307672 -0.90109,-1.261535 6.12746,8.650521 13.69666,11.534029 -5.76701,1.8923 -7.5692,1.71208 -11.44392,-0.54066 1.35165,1.71208 2.52307,3.51428 3.42417,5.49669 2.70329,2.34285 5.49668,4.41537 7.02855,5.31646 -1.8022,0.45055 -3.42417,0.45055 -4.86592,0.36044 0.27033,1.08132 0.54066,2.16263 0.72087,3.24395 3.33406,20.27466 -10.18238,30.90759 -33.250437,36.22406 -23.068058,5.31646 -47.127321,3.24394 -50.461376,-17.03072 -0.630767,-3.96482 -0.540657,-7.92964 0.180219,-11.71425 -2.432959,2.25274 -4.054932,3.60439 -4.235151,4.05494 1.171425,-2.43296 2.973617,-7.20877 4.325261,-11.98458 -1.531863,1.44175 -3.243946,2.7934 -4.865918,3.7846 -1.351644,0.9011 -11.083481,4.86592 -5.226357,0.99121 7.298877,-4.86592 11.17359,-12.97578 10.362604,-11.53403 -1.171425,1.8923 -7.659316,4.05493 -12.975783,4.6857 -1.351644,0.18022 -6.578,0.27033 -6.66811,0 -0.09011,-0.27033 9.371398,-5.31647 11.443919,-7.11866 6.127453,-5.316466 7.659316,-7.208767 8.830741,-11.624138 -8.92085,5.947234 -17.751591,9.912058 -25.050469,9.912058 0,0 11.534029,-7.028551 16.399947,-11.804359 2.793398,-2.793398 5.767015,-5.496686 8.830741,-8.109864 l -0.09011,-1.171425 C 39.915036,90.644904 28.921665,95.96137 18.559061,91.63611 20.811801,92.537206 37.752405,86.319643 40.185364,81.093286 39.284268,82.985588 23.875527,84.967999 22.163445,84.69767 20.541472,84.427342 10.539306,81.093286 17.297526,81.904273 25.767829,82.895478 32.706268,77.038354 31.354624,77.759231 26.488705,80.2823 20.90191,77.488902 16.035992,74.425176 14.864567,73.61419 14.774458,73.884519 14.864567,73.61419 c 0.09011,-0.270329 7.749426,0.901096 10.362604,0.901096 9.191179,-0.09011 11.17359,-3.243946 15.588961,-7.479097 2.613178,-5.226357 5.046137,-10.542823 7.659316,-15.859289 0,-0.810987 0.09011,-1.712083 0.09011,-2.523069 -0.810986,0.180219 -1.621973,0.360438 -2.432959,0.450548 -1.982411,0.270329 -3.694494,0.09011 -4.59559,-0.810987 -4.32526,-2.25274 -7.298877,-4.865918 -8.109863,-8.109864 -0.901096,-3.334055 0.180219,-7.118658 3.874712,-11.624138 0.09011,-0.450548 0.270329,-1.081315 0.540658,-1.441753 0.09011,-0.270329 0.270329,-0.450548 0.450548,-0.630768 0.360438,-0.270328 0.720877,-0.360438 1.081315,-0.180219 0.180219,0.09011 0.360438,0.270329 0.540658,0.450548 l 0.09011,0.270329 c 0.450548,2.523069 2.34285,4.865918 4.50548,6.938439 z M 160.75201,48.473612 c 0.0901,0.360438 0.18022,0.901096 0.27033,1.531863 0.0901,0.630767 0.27033,1.351644 0.36044,2.072521 0.0901,0.720876 0.18021,1.531863 0.18021,2.342849 0,0.810987 1.8022,7.929645 1.8022,8.650522 -0.0901,0.630767 -0.18022,1.261534 -0.36044,1.712082 -0.18022,0.450548 -0.45055,0.810986 -0.81099,0.901096 -0.45055,0.180219 -0.90109,0 -1.26153,-0.360438 -0.45055,-0.450548 -0.81099,-0.901096 -1.26154,-1.621973 -0.36044,-0.720877 -2.52307,-7.929645 -2.8835,-8.830741 -0.36044,-0.901096 -0.63077,-1.802192 -0.9011,-2.613178 -0.27033,-0.901096 -0.54066,-1.712083 -0.72088,-2.432959 -0.18022,-0.810987 -0.36044,-1.351644 -0.45055,-1.802192 -0.0901,-0.450548 -0.27032,-0.901096 -0.36043,-1.621973 -0.18022,-0.630767 -0.27033,-1.261535 -0.45055,-1.982411 l -0.27033,-2.162631 c -0.0901,-0.720877 -0.0901,-1.441753 0,-2.072521 0.0901,-0.630767 0.27033,-1.261534 0.54066,-1.712082 0.27033,-0.450548 0.63076,-0.810986 1.17142,-0.991205 0.45055,-0.18022 0.9011,-0.09011 1.35165,0.270328 0.45054,0.360439 0.81098,0.901096 1.17142,1.531864 0.36044,0.720876 0.72088,1.441753 0.99121,2.342849 0.27033,0.901096 0.63076,1.802192 0.81098,2.613178 0.27033,0.901096 0.45055,1.712083 0.63077,2.43296 0.18022,0.720876 0.36044,1.351644 0.45055,1.802192 z m -9.3714,19.824111 c -0.99121,0.360439 -1.8923,0.360439 -2.7934,0 -0.90109,-0.360438 -1.71208,-0.901096 -2.43296,-1.712082 -0.72087,-0.810986 -1.35164,-1.712082 -1.8923,-2.793398 -0.54066,-1.081315 -0.90109,-2.16263 -1.26153,-3.334055 -0.27033,-1.261534 -0.45055,-2.523069 -0.54066,-3.874712 -0.0901,-1.351644 0,-2.703288 0.27033,-3.964823 0.27033,-1.261534 0.72087,-2.342849 1.35164,-3.243945 0.63077,-0.991206 1.53187,-1.621973 2.61318,-1.982412 1.08132,-0.360438 2.07252,-0.360438 3.06373,0.09011 0.90109,0.450548 1.80219,1.081315 2.43296,1.982411 0.72087,0.901096 1.35164,1.892302 1.80219,3.063727 0.45055,1.171424 0.81098,2.342849 1.08131,3.424164 0.27033,1.261535 0.36044,2.523069 0.45055,3.874713 0,1.261534 -0.0901,2.523069 -0.36044,3.694494 -0.27033,1.171424 -0.72087,2.16263 -1.35164,3.063726 -0.45055,0.720877 -1.35165,1.351644 -2.43296,1.712082 z M 140.29713,55.141722 c 0.0901,0.450548 0.27033,1.171425 0.45055,2.16263 0.18022,0.901096 0.36044,1.982411 0.54065,3.153836 0.18022,1.171425 0.27033,2.34285 0.36044,3.514275 0.0901,1.261534 0.0901,2.342849 0,3.424164 -0.0901,1.081316 -0.27033,1.982412 -0.63076,2.703288 -0.27033,0.720877 -0.81099,1.261535 -1.35165,1.441754 -0.63077,0.180219 -1.17142,0.180219 -1.71208,-0.09011 -0.63077,-0.270328 -1.17143,-0.630767 -1.71208,-1.081315 -0.54066,-0.450548 -0.99121,-0.991205 -1.44176,-1.531863 -0.45054,-0.540658 -0.81098,-1.081315 -1.17142,-1.531863 -0.72088,-1.081315 -1.35165,-2.072521 -2.07252,-3.063727 -0.72088,-0.991205 -1.35165,-1.982411 -1.98241,-3.063726 l 0.27033,0.991206 c 0.27032,0.991205 0.45054,1.982411 0.72087,2.973616 0.27033,0.991206 0.36044,1.982412 0.54066,2.973617 0.0901,0.450548 0.0901,0.901096 0.18022,1.441754 0.0901,0.540657 0.0901,1.081315 0.18022,1.621973 0,0.540657 0,1.081315 -0.0901,1.531863 -0.0901,0.450548 -0.27033,0.901096 -0.54066,1.171425 -0.0901,0.180219 -0.27033,0.270328 -0.45055,0.360438 -0.18022,0.09011 -0.27033,0.180219 -0.45054,0.270329 l -0.0901,0.09011 c -0.45055,0.18022 -0.9011,0.09011 -1.26154,-0.180219 -0.45055,-0.270329 -0.81099,-0.630767 -1.08131,-1.081315 -0.36044,-0.450548 -0.63077,-1.081315 -0.99121,-1.712082 -0.27033,-0.630768 -0.54066,-1.261535 -0.81099,-1.982412 -0.27032,-0.630767 -0.45054,-1.261534 -0.63076,-1.802192 -0.18022,-0.540657 -0.27033,-0.991205 -0.36044,-1.351644 -0.0901,-0.540657 -0.27033,-1.261534 -0.54066,-2.342849 -0.18022,-1.081315 -0.45055,-2.162631 -0.63077,-3.514275 -0.18022,-1.351644 -0.27033,-2.613178 -0.45054,-3.964822 -0.0901,-1.351644 -0.0901,-2.613178 -0.0901,-3.874713 0.0901,-1.171424 0.27032,-2.16263 0.54065,-2.973616 0.27033,-0.810987 0.81099,-1.351644 1.44176,-1.621973 0.63076,-0.180219 1.17142,-0.09011 1.80219,0.270329 0.63077,0.360438 1.17142,0.901096 1.71208,1.531863 0.54066,0.630767 1.08132,1.261534 1.53186,2.072521 0.45055,0.720876 0.81099,1.351644 1.17143,1.802192 0.63077,0.991205 1.17142,1.982411 1.71208,2.883507 0.63077,0.991205 1.17143,1.982411 1.71208,2.973616 l 0.18022,0.360439 c 0.0901,0.180219 0.27033,0.360438 0.36044,0.630767 l 0.54066,0.810986 c -0.0901,-0.270328 -0.0901,-0.540657 -0.18022,-0.630767 0,-0.09011 -0.0901,-0.270329 -0.0901,-0.360438 0,-0.09011 -0.0901,-0.270329 -0.0901,-0.450548 0,-0.180219 -0.0901,-0.450548 -0.18022,-0.720877 -0.18022,-0.810986 -0.45055,-1.531863 -0.63077,-2.25274 -0.18021,-0.720877 -0.36043,-1.441753 -0.54065,-2.25274 -0.0901,-0.360438 -0.18022,-0.810986 -0.36044,-1.351644 -0.0901,-0.540657 -0.27033,-1.171425 -0.36044,-1.892301 -0.0901,-0.630768 -0.18022,-1.351644 -0.27033,-2.072521 -0.0901,-0.720877 -0.0901,-1.351644 0,-1.982411 0.0901,-0.630768 0.18022,-1.081316 0.36044,-1.531864 0.18022,-0.450548 0.45055,-0.720876 0.9011,-0.901096 0.45054,-0.180219 0.90109,-0.09011 1.44175,0.270329 0.45055,0.270329 0.9011,0.810987 1.26153,1.351644 0.45055,0.630767 0.81099,1.261535 1.08132,2.072521 0.36044,0.810986 0.63077,1.621973 0.90109,2.34285 0.27033,0.810986 0.45055,1.531863 0.72088,2.16263 0.36044,0.810986 0.54066,1.351644 0.63077,1.802192 z"
     inkscape:connector-curvature="0"
     style="fill:#fefefe;fill-rule:evenodd" />
  <path
     style="fill:#fefefe"
     id="path13"
     d="m 78.752273,157.86666 c -19.914222,0 -32.259237,-8.29008 -34.692196,-23.24827 -0.180219,-1.35165 -0.360438,-2.70329 -0.450548,-3.96482 -0.450548,-0.0901 -0.901096,-0.18022 -1.261534,-0.45055 -2.072521,-1.08132 -2.973617,-3.60439 -2.072521,-5.76702 -1.261534,0.45055 -2.432959,0.72088 -3.243946,0.72088 -2.07252,0 -3.964822,-1.35164 -4.505479,-3.24395 -0.720877,-2.25274 0.360438,-3.96482 1.621972,-5.13624 l -2.342849,0 c -2.523069,0 -5.767015,0 -6.75822,-3.33406 -0.810987,-2.70329 0.360438,-4.14504 3.063726,-5.85712 -1.171425,0.18022 -2.342849,0.27033 -3.514274,0.27033 -1.982411,0 -3.784603,-1.35165 -4.325261,-3.24395 -0.540658,-1.98241 0.270329,-3.96482 1.982411,-5.046136 0.630767,-0.360438 1.621973,-0.991205 2.703288,-1.712082 -2.883507,-0.09011 -5.586795,-0.720877 -8.290083,-1.802192 -2.25274,-0.901096 -3.424165,-3.604384 -2.432959,-5.857124 0.450548,-0.991206 1.171425,-1.802192 2.072521,-2.25274 -2.703288,-0.991206 -6.3076722,-2.25274 -6.037343,-6.037343 0.09011,-1.171425 0.720876,-2.883507 2.523068,-3.784603 -1.982411,-0.991206 -2.9736164,-2.973617 -2.523068,-5.136247 0,-0.18022 0.09011,-0.270329 0.09011,-0.450548 0.450548,-1.531864 1.892302,-3.243946 4.50548,-3.243946 0.810986,0 1.982411,0.09011 4.235151,0.360438 1.982411,0.270329 4.685699,0.540658 5.767015,0.540658 6.397781,-0.09011 7.749425,-1.441754 11.08348,-4.865918 L 36.7612,64.51312 c 1.441753,-2.793397 2.793397,-5.676905 4.145041,-8.650521 0.360439,-0.720877 0.720877,-1.531863 1.081315,-2.25274 -1.261534,-0.270329 -2.342849,-0.720877 -3.243945,-1.351644 -5.586795,-2.883507 -8.830741,-6.397782 -10.002166,-10.723043 -1.261534,-4.595589 0.09011,-9.641727 4.054932,-14.868083 0.18022,-0.630768 0.450548,-1.171425 0.720877,-1.621973 0.450548,-0.720877 0.991206,-1.441754 1.621973,-1.892302 1.531863,-1.261534 3.604384,-1.531863 5.406576,-0.901096 0.630767,0.270329 1.261534,0.630767 1.802192,1.171425 0,-0.09011 0.09011,-0.180219 0.09011,-0.270329 0,-0.09011 0.09011,-0.180219 0.09011,-0.180219 1.081315,-1.892301 3.153836,-2.793397 4.865918,-2.793397 2.703288,0 4.775809,2.07252 4.775809,4.685699 l 0,0.180219 0,0.991205 c 5.857124,-5.947233 14.417536,-9.461507 23.788934,-9.461507 1.441754,0 2.883507,0.09011 4.235151,0.270328 3.424165,-2.16263 7.569207,-3.334055 11.894467,-3.334055 4.415371,0 8.650517,1.261535 12.345017,3.604384 2.07252,0.720877 4.05493,1.621973 5.76701,2.793398 0.0901,-0.450548 0,-1.171425 -0.27033,-2.34285 -0.27032,-1.441753 0.0901,-2.793397 0.99121,-3.874713 0.9011,-1.171424 2.34285,-1.802192 3.87471,-1.802192 1.71208,0 3.15384,0.720877 4.14504,1.892302 0.0901,0.09011 0.18022,0.180219 0.18022,0.270329 0.99121,1.441753 1.8923,2.793397 2.52307,4.145041 l 1.08132,0.810987 c 0.36044,0.360438 0.72087,0.810986 1.08131,1.261534 4.95603,3.514274 7.56921,7.659316 7.92965,12.074686 0.27033,3.874713 -1.26154,7.749426 -4.50548,11.624139 0.72087,0.180219 1.44175,0.450548 2.07252,0.901096 0.0901,-0.09011 0.0901,-0.270329 0.18022,-0.360439 0.63076,-1.531863 1.8923,-2.703288 3.42416,-3.243945 0.0901,0 0.18022,-0.09011 0.18022,-0.09011 1.80219,-0.540658 3.69449,-0.270329 5.22636,0.810986 0.9912,0.630768 1.80219,1.531864 2.52307,2.613179 0.18022,0.270329 0.45054,0.630767 0.63076,0.991205 1.08132,-1.081315 2.34285,-1.892301 3.87472,-2.432959 1.35164,-0.450548 2.61317,-0.540657 3.7846,-0.450548 l 0,-0.180219 c -0.0901,-1.081315 -0.0901,-2.072521 0.0901,-2.883507 0.18022,-1.261534 0.54066,-2.432959 1.08131,-3.334055 0.81099,-1.441754 1.98242,-2.432959 3.60439,-2.973617 0.63077,-0.270329 1.26153,-0.360438 1.98241,-0.360438 0.99121,0 2.43296,0.270328 3.87471,1.531863 0.72088,0.630767 1.44176,1.531863 2.07252,2.703288 0,0.09011 0.0901,0.09011 0.0901,0.180219 0.36044,0.810986 0.81099,1.621973 1.26154,2.793397 0,0.09011 0,0.09011 0.0901,0.18022 0.36044,1.081315 0.63076,1.982411 0.90109,2.883507 0.27033,0.810986 0.45055,1.621973 0.72088,2.613178 0.0901,0.450548 0.18022,0.901096 0.27033,1.261535 l 0.0901,0.450548 c 0.0901,0.450548 0.27033,1.081315 0.36044,1.802192 0.18022,0.720876 0.27033,1.531863 0.36043,2.25274 0.0901,0.901096 0.18022,1.712082 0.27033,2.523068 0.0901,0.540658 0.45055,2.25274 0.72088,3.334055 0.9011,4.145042 1.08132,4.956028 0.99121,5.947234 -0.0901,1.171425 -0.27033,2.16263 -0.63077,2.973617 -0.63077,1.621973 -1.80219,2.883507 -3.33406,3.424165 l -0.0901,0 c -0.63076,0.180219 -1.26153,0.360438 -1.8923,0.360438 -0.9912,0 -2.52307,-0.270329 -3.87471,-1.531863 -0.0901,0.180219 -0.18022,0.360438 -0.36044,0.450548 -1.17142,1.621973 -2.70329,2.793397 -4.6857,3.514274 -1.98241,0.720877 -4.05493,0.630767 -5.94723,-0.09011 l -1.62197,-0.810987 c 0,0 0,0.09011 -0.0901,0.09011 -0.72088,1.892301 -2.16263,3.334055 -3.96483,3.964822 l -0.0901,0 c -1.62197,0.540658 -3.33405,0.540658 -4.95602,-0.180219 l -0.0901,0 c -0.36044,-0.180219 -0.63077,-0.270329 -0.99121,-0.450548 -0.27033,0.540657 -0.54066,1.081315 -0.9912,1.621973 -0.45055,0.540657 -0.99121,1.081315 -1.62198,1.441753 -0.0901,0.09011 -0.18022,0.09011 -0.27033,0.180219 l -0.0901,0 -0.0901,0.09011 c 1.17143,2.072521 2.61318,4.145042 4.50548,5.947234 0.9011,0.810986 1.98242,1.261534 4.05494,1.982411 1.98241,0.630767 4.41537,1.441753 7.11865,3.153836 1.62198,0.991205 2.52307,2.883507 2.07253,4.775808 -0.54066,2.703288 -2.43296,3.334056 -5.94724,4.59559 -0.9912,0.360438 -1.71208,0.630767 -2.34285,0.810986 0.18022,0.450547 0.18022,0.901097 0.18022,1.441757 0,1.8923 -1.26153,3.60438 -3.06372,4.14504 -0.81099,0.27033 -1.53187,0.45055 -2.25274,0.72088 0.90109,0.63076 1.62197,1.17142 2.16263,1.53186 1.53186,0.9912 2.34285,2.7934 2.07252,4.59559 -0.27033,1.80219 -1.62198,3.24394 -3.42417,3.69449 -0.18022,0 -0.36044,0.0901 -0.54066,0.0901 2.52307,20.09444 -9.91205,33.43066 -36.944931,39.64822 -7.569207,1.44176 -14.687865,2.25274 -21.175756,2.25274 z M 51.899612,119.02943 c 0.991206,0.9912 1.441754,2.52307 1.171425,3.96482 -0.630767,3.51427 -0.720877,6.93844 -0.180219,10.18238 1.712082,10.45272 10.362604,15.67907 25.771345,15.67907 5.857124,0 12.345015,-0.81098 19.193345,-2.34284 29.826282,-6.84833 31.628472,-20.18455 29.826282,-31.08782 -0.18022,-0.90109 -0.36044,-1.8923 -0.63077,-2.79339 -0.27033,-0.9011 -0.18022,-1.89231 0.0901,-2.70329 -0.27033,-0.27033 -0.54066,-0.45055 -0.81099,-0.72088 -0.45055,-0.36044 -0.81099,-0.90109 -1.08131,-1.44175 -0.72088,-1.62198 -1.71209,-3.15384 -2.97362,-4.6857 -1.35164,-1.71208 -1.26154,-4.054933 0.18022,-5.676906 0.36044,-0.450548 0.81098,-0.810987 1.26153,-0.991206 -1.44175,-1.441753 -2.52307,-2.793397 -3.24394,-3.694493 -0.0901,-0.180219 -0.27033,-0.360439 -0.45055,-0.540658 -1.62197,-2.16263 -0.81099,-4.235151 -0.54066,-4.775809 0.72088,-1.531863 2.34285,-2.523068 4.05493,-2.523068 0.54066,0 1.44176,0.09011 2.34285,0.630767 -2.97361,-4.415371 -4.6857,-9.01096 -6.12745,-12.885673 -0.45055,-1.171425 -0.81099,-2.25274 -1.26153,-3.243945 -0.18022,-0.360439 -0.27033,-0.810987 -0.27033,-1.261535 -0.9011,-10.002165 -1.71209,-12.975782 -3.51428,-20.27466 l -0.63076,-2.432959 c -0.27033,-1.261534 -0.0901,-2.613178 0.63076,-3.604384 0.72088,-1.081315 1.8923,-1.802192 3.15384,-1.892301 0.0901,0 0.18022,0 0.27033,-0.09011 0.45055,-0.09011 0.72087,-0.180219 0.90109,-0.270329 0.0901,-0.09011 0.18022,-0.270328 0.36044,-0.360438 2.25274,-2.432959 3.42417,-4.50548 3.24395,-6.127453 -0.0901,-1.802192 -1.71208,-3.784603 -4.77581,-5.767014 -0.45055,-0.270329 -0.81099,-0.630767 -1.08132,-0.991206 l -0.0901,0 c -1.08131,1.261535 -2.52306,2.432959 -4.6857,3.514275 -1.71208,0.901096 -3.69449,0.630767 -5.13624,-0.720877 -1.62198,-1.531863 -3.6945,-2.703288 -6.03735,-3.424165 -0.45054,-0.09011 -0.81098,-0.360438 -1.17142,-0.540658 -2.25274,-1.531863 -4.956028,-2.342849 -7.839535,-2.342849 -2.973617,0 -5.947234,0.901096 -8.019755,2.613178 -1.081315,0.810987 -2.432959,1.171425 -3.694493,0.901096 -1.351644,-0.270329 -2.793398,-0.450548 -4.415371,-0.450548 -6.397781,0 -14.868083,2.432959 -19.553783,9.371399 -1.081315,1.621972 -3.063726,2.342849 -4.956027,1.802192 -1.081316,-0.270329 -1.982412,-0.630768 -2.793398,-1.081316 -0.360438,0.991206 -1.171425,1.892302 -2.16263,2.43296 -1.712083,0.901096 -3.874713,0.540657 -5.226357,-0.810987 -0.810987,-0.810986 -1.802192,-1.892301 -2.793398,-3.153836 -1.171425,1.982411 -1.531863,3.694494 -1.171425,5.046138 0.630768,2.25274 3.514275,4.145041 5.857124,5.316466 0.18022,0.09011 0.360439,0.180219 0.540658,0.360438 l 1.441754,0 c 0.540657,-0.09011 1.171424,-0.180219 1.802192,-0.360438 1.351644,-0.360438 2.883507,0 3.964822,0.901096 1.081315,0.901096 1.712082,2.25274 1.621973,3.694494 -0.09011,0.810986 -0.09011,1.621972 -0.09011,2.342849 0,0.630767 -0.180219,1.351644 -0.450548,1.892302 -1.081315,2.16263 -2.072521,4.235151 -3.063726,6.397781 -1.441754,3.153836 -2.973617,6.397782 -4.59559,9.551618 -0.180219,0.450548 -0.540657,0.810986 -0.901096,1.171425 l -1.261534,1.261534 c -1.982411,1.982411 -3.874713,3.964822 -6.668111,5.316466 0.09011,0.270329 0.09011,0.540658 0.09011,0.901096 l 0,0.540658 c 0.450548,-0.09011 0.810986,-0.270329 1.171425,-0.360439 1.261534,-1.261534 3.243945,-1.621972 4.956028,-0.810986 1.531863,0.630767 2.432959,2.072521 2.613178,3.604384 0.720877,-0.630767 1.531863,-1.261534 2.34285,-1.892302 1.261534,-1.081315 3.063726,-1.351644 4.595589,-0.720876 1.531863,0.630767 2.613179,2.07252 2.793398,3.784603 l 0.09011,1.171425 c 0.09011,1.441753 -0.450548,2.883507 -1.531863,3.784603 -0.810986,0.720877 -1.712082,1.441753 -2.432959,2.16263 0.720877,0.09011 1.441754,0.360439 2.072521,0.810987 1.531863,1.081315 2.16263,2.973616 1.712082,4.775808 -0.901096,3.424165 -2.07252,5.767016 -4.32526,8.290086 1.712082,0.18022 3.243945,1.44175 3.784603,3.15383 0.360438,1.08132 0.630767,2.16263 -1.351644,5.22636 0.991205,1.08132 1.441753,2.70329 0.991205,4.23515 -0.09011,0.63077 -0.540657,1.8923 -0.901096,3.06373 z M 147.14546,53.42964 c -0.18022,0.901096 -0.27033,1.802192 -0.18022,2.793397 0,1.171425 0.18022,2.072521 0.45055,3.063726 0.18022,0.901096 0.54065,1.621973 0.90109,2.43296 0.36044,0.720876 0.72088,1.351644 1.17143,1.802192 0.18022,0.270328 0.45055,0.450548 0.63077,0.540657 0.0901,-0.09011 0.0901,-0.09011 0.18021,-0.09011 l 0.0901,-0.09011 c 0.27033,-0.360438 0.45055,-0.810986 0.63077,-1.441754 0.18022,-0.720876 0.27033,-1.621972 0.18022,-2.613178 0,-1.081315 -0.18022,-2.16263 -0.36044,-3.063726 -0.18022,-0.810987 -0.45055,-1.712083 -0.81098,-2.613179 -0.36044,-0.810986 -0.72088,-1.441753 -1.17143,-1.982411 -0.27033,-0.270329 -0.45055,-0.540657 -0.72088,-0.630767 -0.18022,0.09011 -0.18022,0.180219 -0.27032,0.180219 -0.36044,0.540658 -0.54066,1.081315 -0.72088,1.712083 z m -19.46367,3.153836 c 0,0.180219 0,0.360438 0.0901,0.450548 l 0.0901,0 c 0.0901,0 0.0901,0 0.18022,-0.09011 -0.18022,-0.09011 -0.27033,-0.180219 -0.36043,-0.360438 z"
     inkscape:connector-curvature="0" />
  <path
     inkscape:connector-curvature="0"
     d="m 56.224873,42.346159 c -13.51644,-2.793398 -13.42633,-9.461508 -9.731837,-17.481262 0.18022,-0.360439 1.171425,-0.630768 1.171425,-0.270329 -0.270329,5.857124 1.081315,8.199973 14.597755,8.740631 -1.712082,1.892302 -4.325261,7.118658 -6.037343,9.01096 z"
     id="path15" />
  <path
     inkscape:connector-curvature="0"
     d="M 89.655534,107.40529 C 95.692877,91.906438 106.50603,78.11967 107.85767,60.908736 108.30822,55.59227 101.55,50.095584 100.10825,41.264844 95.873097,52.168105 50.818297,103.26025 24.506294,103.26025 c 0,0 11.534029,-7.028551 16.399947,-11.80436 C 60.189695,72.262546 87.222575,57.214243 96.143425,38.921994 93.350028,42.07583 84.068739,39.012104 81.63578,42.526378 74.607231,52.708763 44.420516,102.53937 18.378841,91.816329 c 2.25274,0.901096 19.193345,-5.316467 21.626304,-10.542823 -0.901096,1.892301 -16.309837,3.874712 -18.02192,3.604384 -1.621972,-0.270329 -11.624138,-3.604384 -4.865918,-2.793398 8.470302,0.991206 15.408741,-4.865918 14.057097,-4.145042 -4.865918,2.523069 -10.452713,-0.270328 -15.318631,-3.334055 -1.171425,-0.810986 -1.261535,-0.540657 -1.171425,-0.810986 0.09011,-0.270329 7.749425,0.901096 10.362604,0.901096 9.191179,-0.09011 11.17359,-3.243946 15.58896,-7.479097 5.857124,-12.254905 10.903262,-25.140578 19.734003,-37.395483 13.065891,-17.931811 35.232853,-4.325261 41.540525,5.406576 8.29008,4.50548 14.14721,16.580166 9.55162,28.204304 -5.85713,14.777974 -14.687867,28.744962 -21.806526,43.973485 z"
     id="path17" />
  <path
     inkscape:connector-curvature="0"
     d="m 109.20932,91.185562 c -2.61318,-17.120824 -0.63077,-35.95373 -7.83954,-51.362472 -2.252738,-4.685699 -10.272492,-4.865918 -15.679068,-11.2637 6.397781,62.355843 -39.738333,94.97552 -41.270196,97.5887 1.171424,-2.43296 2.973616,-7.20877 4.32526,-11.98458 -1.531863,1.44175 -3.243945,2.7934 -4.865918,3.7846 -1.351644,0.9011 -11.083481,4.86592 -5.226357,0.99121 7.298878,-4.86592 11.17359,-12.97578 10.362604,-11.53403 -1.171425,1.8923 -7.659316,4.05493 -12.975782,4.6857 -1.351644,0.18022 -6.578001,0.27033 -6.66811,0 -0.09011,-0.27033 9.371398,-5.31647 11.443919,-7.11866 7.298877,-6.307672 8.109863,-7.839535 9.461507,-14.417536 C 49.376543,76.137259 47.123804,61.899942 48.295228,45.680214 50.09742,21.80117 74.427012,18.286896 84.248958,22.251718 c 8.830741,-1.802192 19.373562,4.415371 21.265862,17.210934 2.34285,16.490056 2.07252,34.151538 3.6945,51.72291 z"
     id="path19" />
  <path
     inkscape:connector-curvature="0"
     d="M 79.653369,22.972595 C 69.470984,22.161609 61.45123,32.253884 61.45123,44.148351 c -0.09011,23.969153 2.793397,47.758087 4.145041,71.727239 3.964823,-0.81098 7.929645,-1.62197 11.984577,-2.43296 14.687865,-2.61318 29.285622,-5.31646 43.973482,-8.01975 C 115.78732,82.084492 117.67962,55.862599 110.56096,32.524213 105.15439,15.22317 86.952246,14.862731 79.653369,22.972595 Z"
     id="path21" />
  <path
     inkscape:connector-curvature="0"
     d="m 108.75877,35.948377 c 12.88567,-6.037343 11.71425,-12.525234 6.75822,-19.463673 -0.27033,-0.270329 -1.26154,-0.360438 -1.17143,0.09011 1.08132,5.676904 0.27033,8.290083 -12.88567,12.164795 1.8923,1.261535 5.22636,5.767015 7.29888,7.208768 z"
     id="path23" />
  <path
     style="fill:#fbd8c9"
     inkscape:connector-curvature="0"
     d="m 120.02247,23.783582 c -0.27033,-0.630768 -1.35164,-1.892302 -1.53186,-1.171425 0.0901,6.848329 -6.12746,13.51644 -7.4791,19.283454 0.45055,2.432959 10.27249,1.982411 11.17359,-0.360438 5.85712,-6.127453 6.39778,-11.984577 -2.16263,-17.751591 z"
     id="path25" />
  <path
     inkscape:connector-curvature="0"
     d="m 119.30159,24.14402 c 0,-0.09011 -0.0901,-0.180219 -0.18022,-0.270329 -0.36044,3.874713 -2.34285,7.569206 -4.32526,11.17359 -1.26153,2.43296 -2.61318,4.775809 -3.15383,6.938439 0.0901,0.09011 0.27033,0.18022 0.45054,0.270329 0.72088,0.360439 1.8022,0.540658 2.97362,0.540658 1.17143,0.09011 2.52307,-0.09011 3.69449,-0.270329 1.35165,-0.270329 2.43296,-0.720877 2.70329,-1.261534 l 0.18022,-0.270329 c 2.7934,-2.883507 4.32526,-5.676905 4.14504,-8.380193 -0.18022,-2.703288 -2.07252,-5.406576 -6.12745,-8.109864 l -0.36044,-0.360438 z m 0.36044,-2.072521 c 0.36044,0.270329 0.72088,0.810987 0.9011,1.171425 4.41537,2.973617 6.48789,6.037343 6.75822,9.191179 0.18022,3.153836 -1.44176,6.307672 -4.50548,9.551617 -0.45055,0.991206 -1.98241,1.621973 -3.6945,1.982412 -1.26153,0.270328 -2.70328,0.360438 -4.05493,0.360438 -1.35164,-0.09011 -2.61318,-0.270329 -3.51427,-0.720877 -0.72088,-0.360438 -1.26154,-0.901096 -1.35165,-1.531863 l 0,-0.360438 c 0.63077,-2.432959 1.98241,-4.956028 3.33406,-7.569207 1.98241,-3.694493 4.14504,-7.659316 4.14504,-11.534028 l 0.0901,-0.270329 c 0.0901,-0.270329 0.18022,-0.450548 0.27033,-0.540658 0.27033,-0.270328 0.63077,-0.270328 0.9912,-0.09011 0.18022,0.09011 0.45055,0.180219 0.63077,0.360438 z"
     id="path27" />
  <path
     inkscape:connector-curvature="0"
     d="m 85.510493,21.350622 c -13.51644,1.621973 -23.698825,14.687865 -22.61751,28.925182 l 5.316467,66.410776 c 1.081315,14.23731 13.156001,24.59992 26.762551,22.88784 13.606549,-1.62198 23.788929,-14.68787 22.617509,-28.92519 L 112.27304,44.148351 C 111.10162,30.001144 99.117042,19.63854 85.510493,21.350622 Z"
     id="path29" />
  <path
     style="fill:#fefefe"
     inkscape:connector-curvature="0"
     d="M 85.600602,22.612157 C 72.71493,24.14402 63.073203,36.579145 64.154518,50.095584 l 5.316466,66.500886 c 1.081315,13.51644 12.525234,23.33838 25.410907,21.71641 12.885669,-1.62197 22.617509,-13.96699 21.536199,-27.48343 L 111.10162,44.32857 C 109.93019,30.81213 98.486275,21.080294 85.600602,22.612157 Z"
     id="path31" />
  <path
     inkscape:connector-curvature="0"
     d="m 82.807205,52.258215 c -1.621973,-0.630767 -5.316467,3.243945 -5.947234,1.171425 -0.450548,-1.441754 -2.523069,-7.208768 -1.351644,-8.740632 1.802192,-2.16263 6.307672,-3.424164 8.740631,-5.136247 1.621973,-0.991205 0.901096,-2.523068 1.621973,-3.424164 1.081315,-1.261535 5.226357,-0.540658 5.947234,0.09011 2.883507,2.25274 0.540657,7.929645 -1.441754,10.452714 -1.081315,1.171424 -1.982411,2.883507 -3.153836,4.145041 -1.441754,1.621973 -2.523069,0.540658 -4.41537,1.441754 z"
     id="path33" />
  <path
     inkscape:connector-curvature="0"
     d="m 62.262216,94.159178 c -0.09011,-16.670275 -0.540657,-33.70099 3.964823,-49.740498 1.351643,-4.956028 8.92085,-6.938439 13.065891,-14.147207 2.25274,13.876878 35.59329,54.606417 36.04384,79.656887 1.44175,-0.27033 2.61318,-0.45055 4.05493,-0.63077 -2.61318,-30.997701 -30.817481,-54.876745 -35.953728,-79.296446 1.441753,4.054932 10.362604,5.406576 11.2637,9.731837 6.397778,29.01529 19.914218,43.342717 27.213098,66.861319 0.36044,0.99121 5.85712,6.75822 14.50765,4.77581 -3.15384,-1.8923 -11.62414,-8.56041 -13.60655,-12.705452 6.39778,3.964822 7.5692,4.775812 14.59775,2.432962 -7.5692,-2.88351 -14.59775,-12.705456 -13.69666,-11.534031 3.33406,4.41537 9.82195,6.938439 14.86809,6.307672 1.26153,-0.180219 7.20876,-2.34285 7.02855,-2.432959 -5.04614,-3.063727 -9.01096,-2.793398 -12.07469,-5.676905 -6.39778,-6.217563 -8.4703,-14.237317 -10.81315,-20.004331 -1.26154,-13.696659 -2.34285,-14.958194 -5.85713,-29.916387 -5.31646,-21.896633 -28.654849,-19.553783 -37.215261,-13.60655 -8.560412,0.360439 -17.481262,8.650522 -17.301043,21.085647 0.270329,15.58896 -1.171425,31.988907 -0.09011,48.839402 z"
     id="path35" />
  <path
     style="fill:#f6af95"
     inkscape:connector-curvature="0"
     d="m 98.936823,150.92823 c 23.068057,-5.31647 36.584497,-15.9494 33.250437,-36.22406 -3.24394,-20.274663 -24.78013,-32.439459 -47.848192,-27.122992 -23.068057,5.316466 -39.197676,26.131782 -35.86362,46.316332 3.334055,20.27466 27.393318,22.25707 50.461375,17.03072 z"
     id="path37" />
  <path
     style="fill:#fbd8c9"
     inkscape:connector-curvature="0"
     d="M 94.521453,144.0799 C 121.64444,138.85354 131.10595,124.70633 128.49277,109.11737 125.9697,93.438302 106.2357,84.78778 84.609397,89.743808 62.892983,94.699836 47.304023,111.46022 49.827091,127.13929 c 2.613179,15.58896 22.977948,21.98674 44.694362,16.94061 z"
     id="path39" />
  <path
     style="fill:#f6af95"
     inkscape:connector-curvature="0"
     d="m 110.20052,113.53274 c 7.83954,-1.71208 13.24611,-9.28129 11.98458,-16.850493 -1.26153,-7.569206 -8.74063,-12.345015 -16.58017,-10.632933 -7.839532,1.712083 -13.246108,9.371399 -11.894464,16.940606 1.261535,7.56921 8.650524,12.2549 16.490054,10.54282 z"
     id="path41" />
  <path
     style="fill:#f6af95"
     inkscape:connector-curvature="0"
     d="m 71.363286,118.03822 c 7.388987,-1.62197 12.435124,-8.65052 11.2637,-15.67907 -1.171425,-7.028547 -8.199974,-11.353808 -15.588961,-9.731835 -7.388987,1.621973 -12.435125,8.650525 -11.2637,15.679075 1.261534,6.93843 8.199974,11.3538 15.588961,9.73183 z"
     id="path43" />
  <path
     style="fill:#fbd8c9"
     inkscape:connector-curvature="0"
     d="m 110.38074,110.2888 c 7.29888,-1.62198 12.34502,-8.29009 11.2637,-14.868087 -1.08131,-6.578001 -7.92964,-10.632933 -15.22852,-9.01096 -7.298878,1.621973 -12.345015,8.290083 -11.2637,14.868087 1.081315,6.578 7.92964,10.63293 15.22852,9.01096 z"
     id="path45" />
  <path
     style="fill:#fdebe4"
     inkscape:connector-curvature="0"
     d="m 112.36315,111.18989 c 5.67691,-1.26153 9.46151,-7.5692 8.29009,-14.057095 -1.08132,-6.487891 -6.578,-10.813152 -12.25491,-9.551617 -5.6769,1.261534 -9.371397,7.569206 -8.29008,14.057102 1.08131,6.578 6.578,10.81315 12.2549,9.55161 z"
     id="path47" />
  <path
     style="fill:#a65f4b"
     inkscape:connector-curvature="0"
     d="m 113.17414,108.4866 c 4.14504,-0.90109 6.93844,-5.31646 6.12745,-9.821942 -0.72087,-4.50548 -4.6857,-7.388987 -8.92085,-6.397781 -4.14504,0.901096 -6.84833,5.316466 -6.12745,9.731833 0.81099,4.50548 4.77581,7.38899 8.92085,6.48789 z"
     id="path49" />
  <path
     style="fill:#fbd8c9"
     inkscape:connector-curvature="0"
     d="m 71.543505,115.15471 c 7.118658,-1.62197 11.894467,-8.10986 10.813152,-14.50764 -1.081315,-6.397782 -7.749426,-10.362604 -14.777975,-8.830741 -7.028548,1.531863 -11.894467,8.019754 -10.813151,14.507641 1.081315,6.39779 7.659316,10.36261 14.777974,8.83074 z"
     id="path51" />
  <path
     style="fill:#fdebe4"
     inkscape:connector-curvature="0"
     d="m 72.354491,115.60526 c 5.406576,-1.17142 9.10107,-7.11866 8.019755,-13.33622 -0.991206,-6.127451 -6.307672,-10.182382 -11.804358,-8.920848 -5.406576,1.171425 -9.01096,7.208768 -8.019754,13.246108 1.081315,6.21757 6.307672,10.18239 11.804357,9.01096 z"
     id="path53" />
  <path
     style="fill:#a65f4b"
     inkscape:connector-curvature="0"
     d="m 72.354491,113.35252 c 4.59559,-0.9912 7.749426,-5.58679 7.028549,-10.18238 -0.810986,-4.595591 -5.226357,-7.569208 -9.821946,-6.487893 -4.685699,0.991206 -7.749426,5.586793 -7.028549,10.182383 0.810986,4.59559 5.136247,7.4791 9.821946,6.48789 z"
     id="path55" />
  <path
     inkscape:connector-curvature="0"
     d="m 113.7148,106.32397 c 2.70329,-0.63076 4.50548,-3.42416 4.05493,-6.397777 -0.45055,-2.883508 -3.15384,-4.775809 -5.85712,-4.145042 -2.61318,0.630767 -4.50548,3.424165 -4.05494,6.307669 0.54066,2.97362 3.15384,4.86592 5.85713,4.23515 z"
     id="path57" />
  <path
     inkscape:connector-curvature="0"
     d="m 71.453395,111.28 c 3.063727,-0.63077 5.226357,-3.7846 4.685699,-6.84833 -0.540657,-3.06372 -3.424164,-5.046135 -6.578,-4.32526 -3.063727,0.72088 -5.136247,3.6945 -4.685699,6.84833 0.540657,2.97362 3.424164,4.95603 6.578,4.32526 z"
     id="path59" />
  <g
     style="fill:#fefefe"
     id="g34"
     transform="matrix(0.90109599,0,0,0.90109599,-205.33626,-388.90036)">
    <path
       inkscape:connector-curvature="0"
       d="m 322.47,461.38 c 3.3,2.2 9,4 11.1,11.8 6.4,23.3 17,45.1 27.9,60.8 -11.9,-21.6 -21.4,-41.7 -26.4,-61.2 -2.6,-10.2 -9.5,-11.2 -12.6,-11.4 z"
       id="path61" />
    <path
       inkscape:connector-curvature="0"
       d="m 322.47,458.48 c 8.7,-1.8 16,2.2 18.9,13.2 -1.4,-5.5 -2.8,-11.2 -7.7,-13.5 -3.4,-1.6 -8.1,-1.1 -11.2,0.3 z"
       id="path63" />
    <path
       inkscape:connector-curvature="0"
       d="m 315.87,461.98 c -8.8,0.3 -15.4,6.1 -16.5,17.5 0.5,-5.7 1,-11.7 5.4,-15.1 3.1,-2.3 7.8,-2.9 11.1,-2.4 z"
       id="path65" />
  </g>
  <path
     style="fill:#fbd8c9"
     inkscape:connector-curvature="0"
     d="m 37.572186,29.009938 c 0.09011,-0.810986 0.720877,-2.342849 1.261534,-1.712082 2.34285,6.938439 11.35381,11.714248 14.868084,17.030714 0.360439,2.613178 -10.182384,5.496686 -12.074686,3.424165 -8.470302,-4.325261 -11.17359,-10.002166 -4.054932,-18.742797 z"
     id="path67" />
  <path
     inkscape:connector-curvature="0"
     d="m 38.383172,29.100048 c 0,-0.09011 0,-0.270329 0.09011,-0.360439 1.712082,3.874713 5.226357,6.93844 8.470302,9.912056 2.25274,1.982412 4.415371,3.964823 5.857124,5.947234 -0.09011,0.09011 -0.180219,0.270329 -0.360438,0.450548 -0.630767,0.540657 -1.712083,1.081315 -2.973617,1.531863 -1.261534,0.450548 -2.703288,0.810986 -4.054932,0.901096 -1.531863,0.180219 -2.883507,0.09011 -3.243945,-0.360438 l -0.270329,-0.18022 c -4.054932,-2.07252 -6.668111,-4.32526 -7.388987,-7.118658 -0.810987,-2.793397 0.270328,-6.127453 3.694493,-10.272494 l 0.180219,-0.450548 z m -1.081315,-1.982411 c -0.270329,0.450548 -0.450548,0.991205 -0.540657,1.441753 -3.604384,4.50548 -4.6857,8.380193 -3.874713,11.624139 0.901096,3.243945 3.784603,5.947233 8.109864,8.109863 0.901096,0.810987 2.613178,0.991206 4.595589,0.810987 1.441754,-0.180219 2.973617,-0.540658 4.325261,-1.081315 1.441754,-0.540658 2.703288,-1.171425 3.424165,-1.892302 0.630767,-0.630767 0.991205,-1.261534 0.901096,-2.072521 l 0.09011,-0.180219 C 52.890818,41.625282 50.457859,39.552761 48.0249,37.300021 44.600735,34.236295 40.906241,30.90224 39.554597,27.027527 l -0.09011,-0.270329 c -0.18022,-0.180219 -0.360439,-0.360438 -0.540658,-0.450548 -0.450548,-0.180219 -0.810986,-0.09011 -1.081315,0.180219 -0.180219,0.18022 -0.360439,0.360439 -0.540658,0.630768 z"
     id="path69" />
  <path
     inkscape:connector-curvature="0"
     d="m 103.17197,127.77006 c -5.676901,-9.28129 -24.509807,2.34285 -25.591122,10.00216 2.072521,-15.85929 23.338382,-20.7252 25.591122,-10.00216 z"
     id="path71" />
  <path
     inkscape:connector-curvature="0"
     d="m 72.53471,87.851506 c 4.865919,-0.450548 8.380193,-8.92085 7.659316,-18.923015 C 79.47315,58.926325 74.96767,51.1769 70.101751,51.627448 c -4.865918,0.450548 -8.290083,8.92085 -7.659316,18.923015 0.810987,9.912056 5.226357,17.751591 10.092275,17.301043 z"
     id="path73" />
  <path
     style="fill:#fefefe"
     inkscape:connector-curvature="0"
     d="M 71.723724,85.148218 C 76.229204,84.69767 79.47315,76.858135 78.842382,67.666956 78.211615,58.385668 74.066574,51.1769 69.561094,51.627448 c -4.50548,0.360438 -7.659316,8.290083 -7.028549,17.481262 0.540658,9.191179 4.685699,16.399947 9.191179,16.039508 z"
     id="path75" />
  <path
     style="fill:#009747"
     inkscape:connector-curvature="0"
     d="m 72.895149,81.904273 c 2.793397,-0.270329 4.865918,-4.235151 4.595589,-8.830741 -0.270328,-4.595589 -2.883507,-8.109864 -5.676904,-7.839535 -2.793398,0.270329 -4.865919,4.145042 -4.59559,8.830741 0.270329,4.595589 2.883507,8.109864 5.676905,7.839535 z"
     id="path77" />
  <path
     inkscape:connector-curvature="0"
     d="m 73.345697,79.471314 c 1.892301,-0.18022 3.334055,-2.793398 3.153836,-6.037343 -0.270329,-3.063727 -1.982411,-5.586796 -3.874713,-5.406576 -1.892302,0.180219 -3.334055,2.883507 -3.063726,6.037343 0.09011,3.153836 1.802192,5.586795 3.784603,5.406576 z"
     id="path79" />
  <path
     style="fill:#fefefe"
     inkscape:connector-curvature="0"
     d="m 72.444601,72.622984 c 1.712082,-0.180219 3.063726,-2.613178 2.883507,-5.406576 -0.180219,-2.793397 -1.802192,-5.046137 -3.514274,-4.865918 -1.712083,0.180219 -3.063727,2.613178 -2.883508,5.406576 0.09011,2.793397 1.712083,4.956028 3.514275,4.865918 z"
     id="path81" />
  <path
     inkscape:connector-curvature="0"
     d="m 69.741313,51.627448 c -5.136247,0.450548 -8.740631,8.92085 -8.109864,19.013125 l 0,0.360438 18.652687,-1.621972 0,-0.360439 C 80.194026,67.666956 80.013807,66.315312 79.743478,64.963668 78.301725,56.853804 74.156683,51.1769 69.741313,51.627448 Z"
     id="path83" />
  <path
     style="fill:#fbd8c9"
     inkscape:connector-curvature="0"
     d="m 70.011642,56.132928 c -4.145042,0.450548 -7.298878,6.037343 -8.199974,13.246111 -0.270329,1.802192 -0.270329,3.694493 -0.180219,5.676904 l 0,0.450548 18.652687,-2.16263 0,-0.450548 C 79.743478,63.071367 75.147889,55.50216 70.011642,56.132928 Z"
     id="path85" />
  <path
     inkscape:connector-curvature="0"
     d="m 66.407258,74.875724 -2.34285,0.180219 c -0.180219,-0.09011 -0.901096,1.261535 -1.982411,0.18022 -2.16263,-2.25274 -5.046138,-6.127453 -3.874713,-12.074687 -1.261534,6.578001 7.929645,11.534029 8.199974,11.714248 z"
     id="path87" />
  <path
     inkscape:connector-curvature="0"
     d="m 70.011642,74.875724 -2.162631,-0.360438 c -0.09011,-0.09011 -1.081315,0.901096 -1.802192,-0.270329 -1.261534,-2.523069 -2.613178,-6.66811 0.18022,-11.804358 -2.973617,5.676905 3.604383,12.254906 3.784603,12.435125 z"
     id="path89" />
  <path
     inkscape:connector-curvature="0"
     d="m 75.868766,74.154847 -2.162631,0 c -0.09011,-0.09011 -0.901096,1.081316 -1.712082,0 -1.531863,-2.16263 -3.334055,-5.857124 -1.441754,-11.08348 -2.16263,5.857124 5.046138,10.813152 5.316467,11.08348 z"
     id="path91" />
  <path
     inkscape:connector-curvature="0"
     d="m 80.374246,73.52408 c 0,-0.360438 -0.270329,-0.630767 -0.540658,-0.630767 l -17.841701,1.621973 c -0.270328,0 -0.540657,0.360438 -0.450548,0.630767 0,0.270329 0.270329,0.540658 0.540658,0.540658 l 17.841701,-1.531864 c 0.270328,-0.09011 0.450548,-0.360438 0.450548,-0.630767 z"
     id="path93" />
  <path
     inkscape:connector-curvature="0"
     d="M 96.684083,85.688876 C 101.55,85.238328 104.97417,76.768026 104.3434,66.76586 103.71263,56.763695 99.117042,48.92416 94.251124,49.374708 c -4.865919,0.450548 -8.290083,8.92085 -7.569207,18.923015 0.630768,10.002166 5.136248,17.841701 10.002166,17.391153 z"
     id="path95" />
  <path
     style="fill:#fefefe"
     inkscape:connector-curvature="0"
     d="m 95.873097,82.985588 c 4.595593,-0.450548 7.749423,-8.290083 7.118653,-17.481262 -0.63076,-9.191179 -4.775804,-16.490057 -9.281284,-16.039509 -4.50548,0.450548 -7.659316,8.290083 -7.028549,17.481262 0.540658,9.281289 4.6857,16.490057 9.19118,16.039509 z"
     id="path97" />
  <path
     style="fill:#009747"
     inkscape:connector-curvature="0"
     d="m 97.044521,79.831752 c 2.793398,-0.270329 4.865919,-4.235151 4.595589,-8.830741 -0.27033,-4.595589 -2.883506,-8.109864 -5.676904,-7.929644 -2.793397,0.270328 -4.865918,4.145041 -4.595589,8.83074 0.270328,4.59559 2.883507,8.109864 5.676904,7.929645 z"
     id="path99" />
  <path
     inkscape:connector-curvature="0"
     d="m 97.495069,77.308683 c 1.892302,-0.180219 3.334051,-2.793397 3.063731,-6.037343 -0.18022,-3.063726 -1.982415,-5.586795 -3.874717,-5.406576 -1.892302,0.180219 -3.334055,2.883507 -3.063726,6.037343 0.180219,3.153836 1.892301,5.586796 3.874712,5.406576 z"
     id="path101" />
  <path
     style="fill:#fefefe"
     inkscape:connector-curvature="0"
     d="m 94.341233,72.893313 c 0.901096,-0.09011 1.621973,-1.441754 1.531864,-2.973617 -0.09011,-1.531863 -0.991206,-2.793397 -1.982412,-2.613178 -0.901096,0.09011 -1.621972,1.441753 -1.531863,2.973617 0.180219,1.531863 0.991206,2.703288 1.982411,2.613178 z"
     id="path103" />
  <path
     style="fill:#fefefe"
     inkscape:connector-curvature="0"
     d="m 96.503864,70.460354 c 1.802192,-0.180219 3.063726,-2.613179 2.883507,-5.406576 -0.180219,-2.793398 -1.802192,-5.046138 -3.514274,-4.865919 -1.712083,0.18022 -3.063727,2.613179 -2.883508,5.406576 0.18022,2.793398 1.802192,5.046138 3.514275,4.865919 z"
     id="path105" />
  <path
     inkscape:connector-curvature="0"
     d="m 94.611562,49.374708 c 5.136247,-0.450548 9.821948,7.298877 10.452718,17.301043 l 0,0.360438 -18.562582,1.621973 0,-0.360439 C 85.780821,58.295558 89.385205,49.825256 94.611562,49.374708 Z"
     id="path107" />
  <path
     style="fill:#fbd8c9"
     inkscape:connector-curvature="0"
     d="m 94.972001,52.708763 c 5.136249,-0.450548 9.551619,6.578001 10.092279,14.147207 l 0.63076,4.595589 -18.652684,1.621973 -0.810987,0.09011 c -1.171424,-8.199974 0.270329,-20.635098 8.740632,-20.454879 z"
     id="path109" />
  <path
     inkscape:connector-curvature="0"
     d="m 99.928029,71.811998 2.342851,-0.270329 c 0.0901,-0.09011 0.9912,1.081315 1.98241,-0.180219 1.8923,-2.613179 4.14504,-6.938439 2.25274,-12.525234 2.07252,6.307671 -6.21756,12.795563 -6.578001,12.975782 z"
     id="path111" />
  <path
     inkscape:connector-curvature="0"
     d="m 96.413754,72.532875 2.072521,-0.720877 c 0.09011,-0.09011 1.261534,0.720877 1.712085,-0.630767 0.90109,-2.793398 1.62197,-7.118659 -1.712085,-11.624139 3.694495,5.046138 -1.892302,12.705454 -2.072521,12.975783 z"
     id="path113" />
  <path
     inkscape:connector-curvature="0"
     d="m 90.55663,72.713094 2.072521,-0.360439 c 0.09011,-0.09011 1.081315,0.901096 1.712082,-0.270328 1.261535,-2.43296 2.523069,-6.307672 -0.09011,-11.2637 2.973617,5.496685 -3.514275,11.714248 -3.694494,11.894467 z"
     id="path115" />
  <path
     inkscape:connector-curvature="0"
     d="m 86.321479,73.163642 c 0,-0.360439 0.180219,-0.630767 0.450548,-0.720877 l 17.841703,-1.621973 c 0.27033,0 0.54066,0.270329 0.63076,0.630767 0,0.270329 -0.18021,0.630768 -0.45054,0.630768 L 86.862137,73.61419 c -0.18022,0.09011 -0.450548,-0.180219 -0.540658,-0.450548 z"
     id="path117" />
  <path
     style="fill:#e32328"
     inkscape:connector-curvature="0"
     d="m 140.29713,55.141722 c 0.72088,2.883507 3.15383,15.138413 -0.54066,16.399947 -3.15383,1.081315 -6.66811,-5.046138 -8.10986,-7.208768 -0.72088,-0.991206 -1.35165,-1.982411 -1.98241,-3.063726 0.45054,1.892301 3.24394,11.804357 0.81098,13.065892 -0.9912,0.450548 -1.71208,0.810986 -2.97361,-0.991206 -3.33406,-4.685699 -6.4879,-23.698825 -2.34285,-25.050469 2.43296,-0.810986 5.22635,4.054932 6.21756,5.676905 l 4.50548,7.659316 C 135.16088,58.836216 131.19606,46.4912 134.44,45.319776 c 2.97362,-1.081316 5.31647,7.749425 5.85713,9.821946 z m 11.08348,13.156001 c -6.578,2.25274 -11.80436,-12.345015 -7.29888,-19.013125 1.98241,-2.793398 5.49669,-3.153836 8.19998,0.09011 4.05493,4.865918 5.22635,16.850495 -0.9011,18.923015 z m -3.51427,-15.58896 c -1.26154,0.450548 -0.81099,4.50548 -0.54066,5.676905 1.44175,5.857123 4.86592,6.758219 3.96482,0.720876 -0.27033,-1.802192 -1.08132,-4.865918 -2.52307,-6.127452 -0.27033,-0.270329 -0.54066,-0.360439 -0.90109,-0.270329 z m 12.88567,-4.235151 c 0.45055,1.802192 1.8923,10.002165 -0.27033,10.723042 -3.24395,1.081315 -6.48789,-13.966988 -6.75822,-17.120824 -0.36044,-4.145041 1.62197,-5.586795 3.06373,-4.41537 1.98241,1.802192 3.24394,8.019754 3.96482,10.813152 z m 2.61318,13.246111 c 0.63076,2.703288 -3.60439,4.595589 -4.14505,2.16263 -0.63076,-2.523069 3.51428,-4.956028 4.14505,-2.16263 z"
     id="path119" />
</svg>
