<?xml version="1.0" encoding="UTF-8" standalone="no"?>
<!-- Created with Inkscape (http://www.inkscape.org/) -->

<svg
   xmlns:dc="http://purl.org/dc/elements/1.1/"
   xmlns:cc="http://creativecommons.org/ns#"
   xmlns:rdf="http://www.w3.org/1999/02/22-rdf-syntax-ns#"
   xmlns:svg="http://www.w3.org/2000/svg"
   xmlns="http://www.w3.org/2000/svg"
   xmlns:sodipodi="http://sodipodi.sourceforge.net/DTD/sodipodi-0.dtd"
   xmlns:inkscape="http://www.inkscape.org/namespaces/inkscape"
   width="37mm"
   height="49mm"
   viewBox="0 0 131.10236 173.62203"
   id="svg6018"
   version="1.1"
   inkscape:version="0.91 r13725"
   sodipodi:docname="cat_10.svg">
  <defs
     id="defs6020" />
  <sodipodi:namedview
     id="base"
     pagecolor="#ffffff"
     bordercolor="#666666"
     borderopacity="1.0"
     inkscape:pageopacity="0.0"
     inkscape:pageshadow="2"
     inkscape:zoom="2.9346503"
     inkscape:cx="-51.901002"
     inkscape:cy="86.250003"
     inkscape:document-units="px"
     inkscape:current-layer="layer1"
     showgrid="false"
     showborder="true"
     fit-margin-top="0"
     fit-margin-left="0"
     fit-margin-right="0"
     fit-margin-bottom="0"
     inkscape:window-width="1286"
     inkscape:window-height="817"
     inkscape:window-x="2098"
     inkscape:window-y="93"
     inkscape:window-maximized="0"
     showguides="true"
     inkscape:guide-bbox="true" />
  <metadata
     id="metadata6023">
    <rdf:RDF>
      <cc:Work
         rdf:about="">
        <dc:format>image/svg+xml</dc:format>
        <dc:type
           rdf:resource="http://purl.org/dc/dcmitype/StillImage" />
        <dc:title />
      </cc:Work>
    </rdf:RDF>
  </metadata>
  <g
     inkscape:label="Layer 1"
     inkscape:groupmode="layer"
     id="layer1"
     transform="translate(-262.30649,-433.99069)">
    <g
       transform="matrix(0.93066904,0,0,0.93066904,197.01628,-364.74457)"
       id="g1543">
      <path
         style="fill:#676766;fill-rule:evenodd"
         inkscape:connector-curvature="0"
         d="m 144.4,942.7 c -2.8,10.2 -5.8,21.2 -10.4,25.8 -4.6,4.6 -5.4,8.4 -5.8,14.1 -0.3,3.9 0.1,7.3 1.1,10.3 -4.6,-0.6 -9.3,-0.2 -9.8,3.5 -0.3,2.6 5.8,3.2 12.3,5.3 -5,1.3 -9.1,3.9 -11.2,7 -0.7,-0.5 -1.6,-0.7 -2.5,-0.5 -8.7,1.9 -6,11.7 -2,16.7 5.8,7.3 15.5,9.2 24.3,7.4 10.8,-2.2 22,-10.9 25.4,-21.7 12.8,-0.5 32.5,-5.7 31.5,-28 -1.8,-13.9 -8.6,-53.9 -27,-66.7 0.2,-0.4 0.3,-0.8 0.5,-1.2 l -2.7,-1.1 c 0.8,-6.7 -0.1,-13.4 -2.9,-18.7 5.9,2.2 9.5,-1.6 9.7,-2.1 -2.2,1.3 -6.1,-0.3 -7.4,-1.6 0.1,-0.1 0.2,-0.2 0.3,-0.4 2.7,0.2 5,-1 5.1,-1.5 0,0 -2,-0.1 -3.4,-0.3 4.8,-5.2 13,-13.1 12.6,-13.9 -0.7,-1.4 -26.1,-3.3 -28.8,-2.4 -0.9,0.3 -2.5,1.6 -4.3,3.2 l -11.7,10.8 c -3.9,1.1 -8,2.8 -12,5 -4.4,2.3 -8.4,5 -11.7,7.9 l 0,0 0,0 -14.6,3.8 c -2.3,0.7 -4.3,1.4 -5,2 -2.2,1.8 -14.1,24.3 -13.3,25.6 0.5,0.8 11.5,-1.8 18.5,-3.2 -0.5,1.4 -1.5,3.1 -1.5,3.1 0.6,-0.1 2.8,-1.2 4,-3.5 l 0.5,-0.1 c 0.4,1.8 -0.3,6 -2.5,7.1 0,0 5.1,-0.8 6.7,-6.3 3.6,5.8 10,10.6 17.3,13.2 -1.1,1.8 -1.9,3.7 -2.2,5.7 l 0.4,0.9 0,0 0.6,0.1 0.3,-0.5 c 0.5,-2 1.3,-3.9 2.4,-5.7 1.2,0.4 2.5,0.7 3.8,1 -1.6,3.4 -2.7,7.2 -2.8,11 l 0,0 c 0,0.6 0.6,1 1,0.9 l 0,0 c 1,-0.5 -0.5,-3.5 3,-11 0.1,-0.2 0.2,-0.4 0.3,-0.6 1.5,0.3 3,0.4 4.5,0.5 -0.2,1.7 -0.3,3.5 -0.2,5.2 0,0.2 0.1,0.4 0.3,0.5 l 0,0 c 0.1,0.1 0.3,0.2 0.6,0.2 l 0.3,-0.1 0.4,-0.4 c 0,-0.1 0.1,-0.2 0,-0.3 l 0,0 0,0 c 0,-1.8 0.1,-3.5 0.2,-5 2.6,-0.1 5.2,-0.4 7.8,-1 l 0,0 z"
         id="path1545" />
      <path
         style="fill:#676766"
         inkscape:connector-curvature="0"
         d="m 134.3,1038.9 c -9.4,0 -17.5,-3.7 -22.8,-10.3 -3.7,-4.7 -6.5,-12.1 -4.3,-18.3 1.4,-4 4.7,-6.8 9.1,-7.9 -2,-1.5 -3.2,-3.7 -2.8,-6.8 0.2,-1.8 1.5,-7.1 8.6,-8.5 -0.1,-1.6 -0.1,-3.2 0,-4.9 0.4,-5.9 1.3,-11.7 7.6,-17.9 1.6,-1.6 3.1,-4.9 4.5,-8.8 -0.3,-0.1 -0.6,-0.1 -0.8,-0.2 -0.3,1.7 -1.2,3.8 -3.8,5 -0.8,0.4 -1.8,0.6 -2.7,0.6 -1.8,0 -3.6,-0.8 -4.9,-2.1 -1.3,-1.3 -2,-3.1 -1.9,-5 -1.7,-0.5 -3.1,-1.7 -3.8,-3.4 l -0.4,-0.9 c -0.5,-1.1 -0.6,-2.3 -0.4,-3.4 0.1,-0.5 0.2,-1 0.3,-1.6 -3.5,-1.8 -6.7,-4.1 -9.4,-6.7 -2.1,1.5 -4.4,2.3 -5.9,2.6 -2.9,0.5 -5.8,-1.3 -6.7,-4.1 -0.1,-0.3 -0.2,-0.6 -0.2,-0.9 -0.1,-0.1 -0.2,-0.2 -0.3,-0.3 -6,1.3 -9.8,2 -12,2 -3.3,0 -5,-1.8 -5.7,-2.9 -2,-3.2 -1.6,-5.7 5.2,-18.7 6.6,-12.6 8.6,-14.3 9.3,-14.8 1.3,-1.1 3.4,-2 7.1,-3.1 0,0 0.1,0 0.1,0 l 13.1,-3.5 c 3.4,-2.8 7.4,-5.4 11.8,-7.7 3.9,-2.1 7.9,-3.8 11.8,-5 l 10.6,-9.9 c 0,0 0.1,-0.1 0.1,-0.1 3.4,-3 5,-3.9 6.4,-4.4 1,-0.3 2.3,-0.6 5.5,-0.6 4,0 10.2,0.3 15.9,0.9 10.1,1 13.1,1.7 14.7,5.1 0,0 0,0.1 0,0.1 1.9,4 -0.9,7.1 -3.4,9.9 -1.5,1.6 -3.4,3.6 -5.3,5.6 0,0.1 0.1,0.2 0.1,0.4 1.8,1.6 2.5,4.2 1.7,6.5 -0.8,2.3 -3.4,4.7 -7,6 0.6,2.9 0.9,6 0.8,9.1 1.1,0.8 1.9,2.1 2.3,3.4 18.1,15.7 24.6,52.8 26.7,68.6 0,0.2 0,0.3 0,0.5 0.4,9.1 -2.1,16.7 -7.4,22.6 -7.3,8 -18.1,10.6 -25.8,11.4 -5,10.6 -16.1,19.3 -28.4,21.8 -2.3,0.3 -4.7,0.6 -7.2,0.6 z m -15.8,-24.6 c -0.1,0 -0.1,0.1 -0.1,0.1 -0.4,0.8 0.3,4.1 2.4,6.8 4,5 10.2,5.8 13.5,5.8 1.6,0 3.3,-0.2 4.9,-0.5 9.4,-1.9 18.4,-9.5 20.9,-17.6 0.8,-2.4 2.9,-4.1 5.5,-4.2 4.5,-0.2 15.5,-1.3 21.4,-7.8 3.1,-3.4 4.5,-7.9 4.3,-13.7 -3.1,-24.1 -11.2,-53 -24.5,-62.3 -0.8,-0.6 -1.4,-1.3 -1.9,-2.1 -2,-1.2 -3.2,-3.5 -2.9,-5.9 0.7,-5.7 -0.1,-11.1 -2.3,-15.1 -1.2,-2.2 -0.9,-4.9 0.8,-6.8 0.3,-0.3 0.6,-0.6 0.9,-0.9 0.2,-0.9 0.5,-1.8 1.1,-2.5 0.1,-0.2 0.3,-0.4 0.4,-0.5 0.4,-0.4 0.8,-0.8 1.2,-1.1 0.2,-0.4 0.5,-0.7 0.8,-1 1.3,-1.4 2.8,-3 4.4,-4.5 0.3,-0.4 0.7,-0.7 1.1,-1.1 -4.6,-0.4 -10,-0.7 -13.8,-0.7 -0.8,0 -1.3,0 -1.6,0 -0.4,0.3 -1.1,0.8 -2.3,1.8 L 141.3,891 c -0.7,0.6 -1.5,1.1 -2.4,1.4 -3.5,1 -7.2,2.5 -10.9,4.5 -4.1,2.1 -7.6,4.5 -10.6,7.1 -0.7,0.6 -1.5,1 -2.4,1.2 l -14.3,3.9 c -1.5,0.4 -2.3,0.7 -2.7,0.9 -1.5,2.2 -4.9,8.2 -7.6,13.4 0.7,-0.2 1.4,-0.3 2,-0.4 2,-0.4 3.9,-0.8 5.7,-1.2 0.4,-0.1 0.9,-0.1 1.3,-0.1 0.4,-0.2 0.8,-0.3 1.3,-0.4 l 0.5,-0.1 c 1.5,-0.3 3.1,0.1 4.3,0.9 0.1,0 0.1,0 0.2,0 2.3,-0.3 4.6,0.8 5.9,2.8 2.9,4.6 8.1,8.6 14.3,10.8 0.2,0.1 0.4,0.2 0.7,0.3 0.2,0 0.4,0.1 0.6,0.2 1.1,0.3 2.2,0.6 3.2,0.8 0.2,0 0.5,0.1 0.7,0.2 0.2,0 0.4,0 0.7,0.1 1.3,0.2 2.5,0.4 3.7,0.4 0.2,0 0.5,0 0.7,0.1 0.2,0 0.4,0 0.7,0 2.2,0 4.3,-0.3 6.3,-0.8 2.1,-0.5 4.3,0.1 5.8,1.6 1.5,1.5 2.1,3.7 1.5,5.8 l -0.3,1 c -3.1,11.3 -6.1,21.9 -11.6,27.5 -3.1,3.1 -3.7,5.2 -4.1,10.3 -0.2,3 0.1,5.6 0.8,7.9 0.6,1.8 0.3,3.7 -0.7,5.2 2.2,1 3.5,3.2 3.5,5.6 -0.1,2.7 -1.9,5 -4.5,5.7 -3.5,0.9 -6.4,2.6 -7.7,4.6 -0.9,1.3 -2.3,2.2 -3.8,2.5 -1.4,0 -2.6,0 -3.6,-0.4 z"
         id="path1547" />
    </g>
    <path
       id="path1551"
       d="m 331.40489,512.59713 c -2.60587,9.49283 -5.39788,19.73019 -9.67896,24.01127 -4.28108,4.28107 -5.02561,7.81762 -5.39788,13.12243 -0.2792,3.62961 0.0931,6.79388 1.02374,9.58589 -4.28108,-0.5584 -8.65523,-0.18613 -9.12056,3.25734 -0.2792,2.41974 5.39788,2.97814 11.44723,4.93255 -4.65335,1.20987 -8.46909,3.62961 -10.42349,6.51468 -0.65147,-0.46533 -1.48907,-0.65147 -2.32668,-0.46533 -8.09682,1.76827 -5.58401,10.88882 -1.86133,15.54217 5.39788,6.79388 14.42537,8.56215 22.61525,6.88695 10.05123,-2.04747 20.47472,-10.14429 23.639,-20.19552 11.91256,-0.46533 30.24674,-5.30481 29.31607,-26.05873 -1.6752,-12.9363 -8.00375,-50.16306 -25.12806,-62.07563 0.18613,-0.37226 0.2792,-0.74453 0.46533,-1.1168 l -2.5128,-1.02374 c 0.74453,-6.23548 -0.0931,-12.47096 -2.69894,-17.40351 5.49094,2.04748 8.84135,-1.48907 9.02749,-1.9544 -2.04748,1.20987 -5.67709,-0.2792 -6.88696,-1.48907 0.0931,-0.0931 0.18614,-0.18614 0.2792,-0.37227 2.51281,0.18613 4.65335,-0.93067 4.74642,-1.396 0,0 -1.86134,-0.0931 -3.16428,-0.2792 4.46721,-4.83948 12.0987,-12.19177 11.72643,-12.9363 -0.65147,-1.30294 -24.29046,-3.07121 -26.80327,-2.23361 -0.8376,0.2792 -2.32667,1.48907 -4.00187,2.97814 l -10.88883,10.05123 c -3.62961,1.02373 -7.44535,2.60587 -11.16803,4.65334 -4.09494,2.14054 -7.81762,4.65335 -10.88883,7.35229 l 0,0 0,0 -13.58777,3.53654 c -2.14053,0.65147 -4.00187,1.30294 -4.65334,1.86134 -2.04747,1.6752 -13.12243,22.61526 -12.3779,23.82513 0.46534,0.74453 10.7027,-1.67521 17.21738,-2.97814 -0.46534,1.30293 -1.396,2.88507 -1.396,2.88507 0.5584,-0.0931 2.60587,-1.1168 3.72267,-3.25734 l 0.46534,-0.0931 c 0.37226,1.67521 -0.2792,5.58402 -2.32668,6.60775 0,0 4.74642,-0.74453 6.23549,-5.86321 3.3504,5.39788 9.30669,9.86509 16.10057,12.28483 -1.02374,1.6752 -1.76827,3.44347 -2.04747,5.30481 l 0.37227,0.8376 0,0 0.5584,0.0931 0.2792,-0.46533 c 0.46533,-1.86134 1.20987,-3.62961 2.2336,-5.30482 1.11681,0.37227 2.32668,0.65147 3.53655,0.93067 -1.48907,3.16428 -2.51281,6.70082 -2.60588,10.23736 l 0,0 c 0,0.5584 0.5584,0.93067 0.93067,0.8376 l 0,0 c 0.93067,-0.46533 -0.46533,-3.25734 2.79201,-10.23736 0.0931,-0.18613 0.18613,-0.37226 0.2792,-0.5584 1.396,0.2792 2.79201,0.37227 4.18801,0.46534 -0.18613,1.58213 -0.2792,3.25734 -0.18613,4.83948 0,0.18613 0.0931,0.37226 0.2792,0.46533 l 0,0 c 0.0931,0.0931 0.2792,0.18613 0.5584,0.18613 l 0.2792,-0.0931 0.37227,-0.37227 c 0,-0.0931 0.0931,-0.18613 0,-0.2792 l 0,0 0,0 c 0,-1.67521 0.0931,-3.25734 0.18613,-4.65335 2.41974,-0.0931 4.83948,-0.37226 7.25922,-0.93067 l 0,0 z"
       inkscape:connector-curvature="0"
       style="fill:#fefefe;fill-rule:evenodd" />
    <path
       id="path1553"
       d="m 322.00513,601.19683 c -8.46909,0 -15.7283,-3.25735 -20.56778,-9.21363 -3.35041,-4.18801 -5.77015,-10.70269 -3.90881,-16.10057 1.30293,-3.53654 4.28107,-5.95628 8.37602,-6.88695 0.46533,-0.0931 1.02373,-0.18614 1.58214,-0.18614 0,0 0,0 0,0 0.0931,-0.0931 0.0931,-0.0931 0.18613,-0.18613 -2.69894,-1.30294 -4.56028,-3.25734 -4.09494,-6.70082 0.2792,-1.9544 1.58213,-6.32855 8.09682,-7.35228 -0.18614,-1.67521 -0.18614,-3.44348 0,-5.21175 0.37226,-5.49095 1.20987,-10.51656 6.79388,-16.10057 1.76827,-1.76827 3.35041,-5.39788 4.83948,-9.67896 -1.02374,0 -1.95441,-0.2792 -2.79201,-0.74454 -0.0931,1.39601 -0.46533,3.90881 -3.16427,5.11868 -0.65147,0.2792 -1.39601,0.46534 -2.14054,0.46534 -1.39601,0 -2.88508,-0.65147 -3.81574,-1.67521 -1.02374,-1.1168 -1.58214,-2.5128 -1.48908,-4.00187 0,-0.18614 0,-0.46534 0,-0.65147 -1.58213,-0.18614 -2.97814,-1.20987 -3.6296,-2.79201 l -0.37227,-0.8376 c -0.37227,-0.8376 -0.46534,-1.76827 -0.2792,-2.60587 0.0931,-0.65147 0.2792,-1.39601 0.46533,-2.04748 -3.72267,-1.86133 -6.98002,-4.28107 -9.77202,-6.98001 -2.04748,1.6752 -4.28108,2.5128 -5.77015,2.69894 -2.23361,0.37226 -4.46721,-1.02374 -5.21175,-3.16428 -0.0931,-0.37227 -0.18613,-0.65147 -0.18613,-1.02373 0,0 -0.0931,0 -0.0931,-0.0931 -0.2792,-0.18614 -0.46533,-0.46534 -0.74453,-0.74454 -5.77015,1.20987 -9.49283,1.95441 -11.5403,1.95441 -2.51281,0 -3.90881,-1.20987 -4.56028,-2.23361 -1.396,-2.2336 -1.76827,-3.72267 4.93255,-16.47284 4.00187,-7.72455 6.88695,-12.19176 8.37602,-13.4947 0.8376,-0.74454 2.14054,-1.48907 6.32855,-2.69894 0,0 0.0931,0 0.0931,0 l 12.37789,-3.35041 c 3.16428,-2.60587 6.88695,-5.02561 10.9819,-7.16615 3.62961,-1.95441 7.35228,-3.53654 10.98189,-4.65335 l 10.05123,-9.30669 c 0,0 0.0931,-0.0931 0.0931,-0.0931 3.25734,-2.79201 4.65334,-3.53655 5.67708,-3.90881 0.8376,-0.2792 1.9544,-0.46534 4.83948,-0.46534 3.6296,0 9.58589,0.37227 14.70457,0.8376 9.49282,0.93067 11.72643,1.58214 12.9363,4.18802 1.48907,3.25734 -0.74454,5.77014 -2.97814,8.28295 -1.48908,1.58214 -3.35041,3.62961 -5.30482,5.58401 0.0931,0.37227 0.18614,0.74454 0.18614,1.11681 0,0 0.0931,0 0.0931,0.0931 1.58214,1.20987 2.14054,3.35041 1.48907,5.21175 -0.65147,1.86134 -3.16427,4.18801 -6.70081,5.21175 0.74453,2.97814 1.02373,6.23548 0.93066,9.58589 1.20987,0.74453 1.95441,1.86134 2.23361,3.16427 16.75204,14.23924 22.80139,48.76706 24.7558,63.47163 0,0.0931 0,0.2792 0,0.37227 0.37226,8.28295 -1.86134,15.07684 -6.70082,20.38165 -6.79388,7.35229 -16.93818,9.67896 -23.91819,10.42349 -4.37415,9.77203 -14.61151,17.96192 -25.96567,20.28859 -2.23361,0.18613 -4.46721,0.37227 -6.70082,0.37227 z M 307.30056,578.2093 c -0.74453,0.2792 -0.93067,0.5584 -0.93067,0.74454 -0.46533,1.396 0.37227,4.65334 2.41974,7.16615 4.00188,5.02561 10.05123,5.77015 13.2155,5.77015 1.58214,0 3.16428,-0.18614 4.74641,-0.46534 9.02749,-1.86134 17.68272,-9.21362 20.10246,-17.03124 0.5584,-1.86134 2.32667,-3.16428 4.28107,-3.25734 5.30482,-0.18614 14.98377,-1.48907 20.56779,-7.53842 3.07121,-3.35041 4.46721,-7.81762 4.28108,-13.4947 -2.97814,-22.61526 -10.51656,-49.88386 -23.17366,-58.63215 -0.74454,-0.46534 -1.20987,-1.11681 -1.58214,-1.86134 -1.6752,-0.93067 -2.69894,-2.79201 -2.41974,-4.65335 0.65147,-5.49094 -0.0931,-10.70269 -2.23361,-14.6115 -0.93066,-1.6752 -0.65146,-3.81574 0.65147,-5.30481 0.2792,-0.37227 0.65147,-0.65147 1.02374,-0.83761 0.0931,-0.8376 0.37227,-1.6752 0.93067,-2.32667 0.0931,-0.18613 0.2792,-0.2792 0.37227,-0.46533 0.2792,-0.37227 0.65146,-0.74454 1.1168,-1.02374 0.18613,-0.37227 0.46533,-0.65147 0.74453,-1.02374 1.20987,-1.30293 2.60588,-2.69894 4.09495,-4.18801 0.74453,-0.74453 1.48907,-1.58213 2.32667,-2.41974 -4.65335,-0.46533 -10.70269,-0.8376 -14.79764,-0.8376 -0.93067,0 -1.48907,0 -1.86134,0.0931 -0.37226,0.2792 -1.1168,0.8376 -2.41974,1.9544 l -10.79576,10.05123 c -0.5584,0.46533 -1.20987,0.8376 -1.86133,1.02374 -3.35041,0.93067 -6.79389,2.41974 -10.33043,4.28107 -3.81574,2.04748 -7.25922,4.28108 -10.05123,6.70082 -0.5584,0.46534 -1.1168,0.74454 -1.86133,0.93067 l -13.30857,3.62961 c -1.67521,0.46533 -2.51281,0.8376 -2.88508,1.02373 -1.58213,2.04748 -5.49094,9.12056 -8.09682,14.51844 1.30294,-0.2792 2.60588,-0.5584 3.72268,-0.8376 1.86134,-0.37227 3.62961,-0.74454 5.21175,-1.1168 0.37226,-0.0931 0.8376,-0.0931 1.20987,-0.0931 0.37226,-0.18613 0.74453,-0.2792 1.1168,-0.37227 l 0.46533,-0.0931 c 1.30294,-0.27921 2.60588,0.0931 3.62961,0.8376 0.18614,0 0.2792,-0.0931 0.46534,-0.0931 1.76827,-0.2792 3.62961,0.5584 4.56028,2.14054 2.792,4.46721 7.81762,8.28295 13.7739,10.42349 0.18613,0.0931 0.46533,0.18614 0.65147,0.2792 0.18613,0 0.37226,0.0931 0.5584,0.18614 1.02373,0.37226 2.04747,0.5584 3.07121,0.8376 0.18613,0 0.46533,0.0931 0.65146,0.18613 0.18614,0 0.46534,0 0.65147,0.0931 1.20987,0.18613 2.41974,0.37227 3.53654,0.37227 0.18614,0 0.46534,0 0.65147,0.0931 0.18614,0 0.46534,-0.0931 0.65147,-0.0931 2.14054,0 4.18801,-0.2792 6.14242,-0.74454 1.58213,-0.37226 3.35041,0.0931 4.46721,1.20987 1.1168,1.20987 1.58214,2.88508 1.1168,4.46721 l -0.2792,0.93067 c -2.69894,9.86509 -5.58401,20.10245 -10.60963,25.12807 -3.0712,3.0712 -3.72267,5.21174 -4.09494,10.14429 -0.18613,2.88507 0.0931,5.49095 0.8376,7.72455 0.46534,1.48907 0.18614,3.16428 -0.8376,4.46721 -0.18613,0.18614 -0.37227,0.37227 -0.5584,0.55841 0.18613,0.0931 0.46533,0.0931 0.65147,0.18613 1.9544,0.65147 3.3504,2.51281 3.25734,4.56028 -0.0931,2.04747 -1.48907,3.90881 -3.44348,4.37414 -3.53654,0.93067 -6.42161,2.60588 -7.72455,4.65335 -0.65147,1.02373 -1.76827,1.76827 -2.97814,1.9544 -0.93067,0.2792 -1.86134,0.0931 -2.79201,-0.2792 z"
       inkscape:connector-curvature="0"
       style="fill:#fefefe" />
    <path
       inkscape:connector-curvature="0"
       style="fill-rule:evenodd"
       d="M 347.78466,484.30479 334.4761,501.9875 c -3.81575,11.16803 -6.79388,28.47848 -12.75017,34.52783 -4.28108,4.28108 -5.02561,7.81762 -5.39788,13.12244 -1.58214,22.14991 21.12618,26.15179 32.75955,26.15179 11.63336,0 32.57342,-3.90881 31.54968,-26.15179 -1.95441,-14.61151 -9.77202,-60.67963 -32.85262,-65.33298 l 0,0 z"
       id="path1555" />
    <path
       inkscape:connector-curvature="0"
       style="fill-rule:evenodd"
       d="m 325.82087,561.17806 c 0,0 -16.75204,-5.49095 -17.58964,1.30294 -0.46534,3.3504 10.70269,3.16427 18.52032,7.91068 2.32667,1.396 2.04747,-3.53655 1.48907,-5.49095 l -2.41975,-3.72267 z"
       id="path1557" />
    <path
       inkscape:connector-curvature="0"
       style="fill-rule:evenodd"
       d="m 350.85588,562.481 c -1.30295,-3.25735 -5.30482,-1.30294 -4.83948,1.76827 1.76826,11.72643 -7.16615,21.21925 -17.03125,24.38352 -5.02561,1.58214 -12.56403,1.02374 -16.65898,-2.69893 -1.20986,-1.1168 -2.69893,-2.79202 -2.32666,-4.56028 0.093,-0.74454 0.8376,-1.30294 1.1168,-2.04747 0.46533,-1.48908 -0.2792,-2.79201 -0.74454,-4.09495 -0.46533,-1.30293 -2.04748,-2.04747 -3.35041,-1.76827 -8.09682,1.76827 -5.58402,10.88882 -1.86134,15.54217 5.39789,6.79388 14.42537,8.56216 22.61526,6.88695 14.14617,-2.88507 29.22301,-17.77578 23.0806,-33.41101 l 0,0 z"
       id="path1559" />
    <path
       inkscape:connector-curvature="0"
       style="fill:#ff0000"
       d="m 336.05823,503.10431 c 3.07122,-1.48907 5.86322,-3.81574 8.28296,-6.88695 2.51281,-3.16427 4.65334,-7.16615 6.51469,-11.72643 l 5.11868,2.04747 c -2.04748,5.02562 -4.46722,9.39976 -7.3523,13.02937 -2.88507,3.72268 -6.23548,6.60775 -10.14428,8.46908 l -2.41975,-4.93254 z"
       id="path1561" />
    <path
       inkscape:connector-curvature="0"
       style="fill-rule:evenodd"
       d="m 294.64346,500.5915 -0.46533,-2.60587 c -3.07121,-0.093 -21.31233,4.74641 -21.96379,3.72267 -0.8376,-1.30293 10.33043,-22.14991 12.37789,-23.82512 0.65147,-0.5584 2.51282,-1.20987 4.65335,-1.86134 l 15.82138,-4.28108 -10.4235,28.85074 z"
       id="path1563" />
    <path
       inkscape:connector-curvature="0"
       style="fill-rule:evenodd"
       d="m 353.46174,468.01809 -1.9544,-1.76828 c 1.58214,-2.69893 15.35604,-15.63523 14.8907,-16.65897 -0.65146,-1.30294 -24.29046,-3.07121 -26.80326,-2.23361 -0.8376,0.2792 -2.32668,1.48907 -4.00188,2.97815 l -12.00563,11.16802 29.87447,6.51469 z"
       id="path1565" />
    <path
       inkscape:connector-curvature="0"
       style="fill-rule:evenodd"
       d="m 286.36051,488.21361 c 1.48907,2.69893 3.25734,6.60774 0.8376,10.33042 3.07121,-2.69894 3.44347,-6.04934 2.32667,-0.5584 -0.2792,1.30294 -1.6752,3.53654 -1.6752,3.53654 0.65147,-0.18613 2.88507,-1.20987 4.00188,-3.81574 0.74453,1.30294 0.18613,5.95628 -2.14054,7.16615 0,0 4.74641,-0.74453 6.23548,-5.86321 7.35228,11.72643 26.7102,18.98564 41.41477,11.16803 15.26297,-8.09683 19.91632,-29.50221 13.21551,-42.06624 5.49094,2.04747 8.84135,-1.48908 9.02748,-1.95441 -2.2336,1.396 -6.42162,-0.65147 -7.16615,-1.9544 2.792,0.46533 5.30482,-0.83761 5.39788,-1.30294 0,0 -2.69894,-0.0931 -3.90881,-0.46533 -5.30482,-1.95441 -2.2336,-0.46535 1.6752,-1.67521 -4.09494,0.093 -6.42162,-3.07121 -8.00375,-5.58402 l -22.05686,5.11868 c -3.9088,1.02374 -8.00375,2.69895 -12.19176,4.93255 -4.09494,2.14053 -7.81762,4.65335 -10.88883,7.35228 l 0,0 -16.10057,15.63525 z"
       id="path1567" />
    <path
       inkscape:connector-curvature="0"
       style="fill:#6c6c6c;fill-rule:evenodd"
       d="m 335.22063,506.36165 0,0 0.093,-0.0931 c 17.31044,-8.93441 17.12431,-35.27235 5.21175,-40.7633 -6.32855,-2.88507 -16.19365,-1.20987 -21.59153,10.70269 -12.93629,-2.2336 -19.35791,4.65335 -20.38164,11.5403 -1.95442,12.84323 19.91631,27.73394 36.66835,18.61338 l 0,0 z"
       id="path1569" />
    <path
       inkscape:connector-curvature="0"
       d="m 329.07822,494.44909 c 0,-1.1168 0.2792,-1.76827 1.20987,-2.32667 1.02373,-0.5584 2.32667,-0.2792 2.79201,0.5584 0.93067,1.6752 -0.0931,4.37415 -1.11681,7.07308 -2.79201,-0.5584 -5.67708,-1.1168 -6.51469,-2.79201 -0.5584,-0.93067 -0.093,-2.14054 1.02374,-2.69894 0.93068,-0.46533 1.67521,-0.37226 2.60588,0.18614 l 0,0 z"
       id="path1571" />
    <polygon
       transform="matrix(0.93066904,0,0,0.93066904,197.01628,-364.74457)"
       points="144.6,926.8 146.6,930.4 145.4,931.1 143.4,927.5 "
       id="polygon1573" />
    <path
       inkscape:connector-curvature="0"
       d="m 330.93955,506.17552 c 0.18614,0.2792 0.0931,0.65146 -0.2792,0.8376 -0.2792,0.18613 -0.74453,0.0931 -0.8376,-0.2792 -0.46533,-0.93067 -0.37227,-2.04747 0.18614,-3.07121 0.5584,-0.93067 1.48906,-1.95441 2.69894,-2.60587 l 0,0 c 1.20987,-0.65147 2.5128,-1.02374 3.6296,-0.93067 1.20987,0.0931 2.23362,0.5584 2.69895,1.48907 0.18613,0.2792 0.0931,0.74453 -0.2792,0.8376 -0.2792,0.18613 -0.74454,0.093 -0.93068,-0.2792 -0.2792,-0.46534 -0.8376,-0.74454 -1.6752,-0.8376 -0.93067,-0.0931 -1.9544,0.18613 -2.97814,0.74453 l 0,0 c -1.02374,0.5584 -1.76827,1.30294 -2.23361,2.14055 -0.18613,0.8376 -0.37226,1.48906 0,1.9544 l 0,0 z"
       id="path1575" />
    <path
       inkscape:connector-curvature="0"
       style="fill:#00cbff;fill-rule:evenodd"
       d="m 305.43922,496.86882 c 0,0 5.77015,4.18802 11.44723,0.65148 5.58402,-3.53655 6.04935,-9.5859 6.04935,-9.5859 -10.60963,-11.81949 -18.89258,4.65335 -17.49658,8.93442 l 0,0 z"
       id="path1577" />
    <path
       inkscape:connector-curvature="0"
       style="fill-rule:evenodd"
       d="m 314.55978,498.54403 c 0.74454,-0.2792 1.58214,-0.5584 2.32667,-1.02373 1.30294,-0.83761 2.41974,-1.86135 3.25734,-2.88508 -0.18613,-1.20987 -0.5584,-2.5128 -1.20987,-3.81575 -1.48907,-2.792 -4.28108,-4.37413 -6.23548,-5.21173 -0.93067,0.2792 -1.6752,0.65146 -2.41973,1.1168 -0.2792,2.04747 -0.46534,5.39788 1.1168,8.37601 0.74453,1.39601 1.86133,2.60588 3.16427,3.44348 l 0,0 z"
       id="path1579" />
    <path
       inkscape:connector-curvature="0"
       style="fill-rule:evenodd"
       d="m 306.92829,496.21736 c -0.74453,0.65146 -2.88507,3.07121 -4.74641,2.60587 2.79201,1.20987 4.93255,-1.6752 5.21175,-2.04747 l -0.46534,-0.5584 z"
       id="path1581" />
    <path
       inkscape:connector-curvature="0"
       style="fill-rule:evenodd"
       d="m 306.74216,497.42723 c -0.65147,0.74454 -2.60587,3.25734 -4.56028,2.97814 2.88508,1.02373 4.74641,-2.04747 5.02561,-2.41974 l -0.46533,-0.5584 z"
       id="path1583" />
    <path
       inkscape:connector-curvature="0"
       style="fill-rule:evenodd"
       d="m 307.76589,494.72829 c -0.8376,0.65146 -3.0712,2.88508 -4.93254,2.2336 2.69894,1.39601 5.02561,-1.30294 5.30481,-1.6752 l -0.37227,-0.5584 z"
       id="path1585" />
    <path
       inkscape:connector-curvature="0"
       style="fill:#ffffff;fill-rule:evenodd"
       d="m 310.27871,489.51654 c 1.396,-0.93067 3.25733,-0.65147 4.188,0.74453 0.83761,1.30295 0.46533,3.16428 -0.93067,4.09495 -1.396,0.93067 -3.25733,0.65147 -4.188,-0.74453 -0.83761,-1.30294 -0.46535,-3.16428 0.93067,-4.09495 l 0,0 z"
       id="path1587" />
    <path
       inkscape:connector-curvature="0"
       style="fill:#ffffff;fill-rule:evenodd"
       d="m 317.91019,491.93628 c 0.74453,-0.46533 1.6752,-0.2792 2.2336,0.37227 0.46533,0.74454 0.2792,1.6752 -0.46533,2.14054 -0.74454,0.46533 -1.6752,0.37226 -2.23361,-0.37227 -0.5584,-0.74453 -0.2792,-1.6752 0.46534,-2.14054 l 0,0 z"
       id="path1589" />
    <path
       inkscape:connector-curvature="0"
       style="fill:#00cbff;fill-rule:evenodd"
       d="m 343.68972,475.74264 c 0,0 0.46534,7.16615 -5.58402,10.05123 -6.04935,2.88507 -11.35415,0 -11.35415,0 -4.37415,-15.26298 14.0531,-13.49471 16.93817,-10.05123 l 0,0 z"
       id="path1591" />
    <path
       inkscape:connector-curvature="0"
       style="fill-rule:evenodd"
       d="m 340.24625,484.30479 c -0.65147,0.5584 -1.30294,1.02375 -2.14055,1.39601 -1.48907,0.65147 -2.88507,1.02374 -4.188,1.20987 -0.93067,-0.8376 -1.86135,-1.86134 -2.51281,-3.07121 -1.48907,-2.792 -1.396,-5.95628 -1.1168,-8.00375 0.74453,-0.65147 1.48906,-1.1168 2.23361,-1.48907 1.86133,0.8376 4.83947,2.41974 6.42161,5.39788 0.8376,1.48907 1.20987,3.0712 1.30294,4.56027 l 0,0 z"
       id="path1593" />
    <path
       inkscape:connector-curvature="0"
       style="fill-rule:evenodd"
       d="m 341.54918,475.37037 c 0.93067,-0.2792 4.18801,-0.8376 4.74642,-2.60587 -0.46534,2.97814 -4.00188,3.25734 -4.46722,3.25734 l -0.2792,-0.65147 z"
       id="path1595" />
    <path
       inkscape:connector-curvature="0"
       style="fill-rule:evenodd"
       d="m 342.75905,475.83571 c 0.93067,-0.18614 4.18801,-0.46534 4.83948,-2.23361 -0.65147,2.97814 -4.28108,2.88508 -4.65335,2.88508 l -0.18613,-0.65147 z"
       id="path1597" />
    <path
       inkscape:connector-curvature="0"
       style="fill-rule:evenodd"
       d="m 339.87398,475.27731 c 0.93067,-0.2792 4.09494,-1.1168 4.56028,-2.97815 -0.2792,3.07121 -3.81575,3.53655 -4.18801,3.62961 l -0.37227,-0.65146 z"
       id="path1599" />
    <path
       inkscape:connector-curvature="0"
       style="fill:#b2b2b2"
       d="m 311.02324,517.52968 0.2792,-0.46533 c 1.76827,-7.63149 8.84135,-12.9363 12.84323,-15.35605 l 0.18613,-0.93066 -0.8376,-0.2792 c -3.81574,2.2336 -12.00563,8.65522 -13.30856,16.10057 l 0.37227,0.8376 0,0 0.46533,0.0931 z m 4.37415,6.23548 c 0.93066,-0.46533 -0.46535,-3.25733 2.792,-10.23736 4.00188,-8.65522 7.72455,-9.49282 6.42161,-10.79576 l -0.37226,-0.18614 -0.46534,0.18614 0,0 c -3.62961,3.72268 -9.02749,11.91257 -9.30669,20.19552 l 0,0 c 0,0.65147 0.55841,1.02374 0.93068,0.8376 l 0,0 z m 8.09681,-4.83948 0.37227,-0.37227 c 0,-0.093 0.0931,-0.18613 0,-0.2792 l 0,0 0,0 c 0,-5.21174 0.46533,-9.02748 3.25735,-13.77389 l 0,0 c 0.093,-0.18614 0.093,-0.37227 0.093,-0.55841 l 0,0 c -0.18613,-0.65146 -1.02374,-0.74453 -1.39601,-0.18613 -2.5128,4.37414 -3.72267,9.58589 -3.44347,14.6115 0,0.18613 0.0931,0.37227 0.2792,0.46533 l 0,0 c 0.0931,0.093 0.2792,0.18614 0.5584,0.18614 l 0.2792,-0.093 z"
       id="path1601" />
    <path
       inkscape:connector-curvature="0"
       style="fill:#b2b2b2"
       d="m 358.02203,491.37788 -0.46534,0.0931 c -7.35228,-2.60588 -15.72831,0.37227 -19.82325,2.41974 l -0.93067,-0.37227 0.18613,-0.93067 c 4.00188,-2.04748 13.77391,-5.39788 20.84699,-2.41974 l 0.46534,0.8376 0,0 -0.2792,0.37228 z m 2.88506,7.07309 c -0.93066,0.5584 -2.41973,-2.14055 -10.05121,-3.25735 -9.49283,-1.30293 -12.19177,1.30294 -12.56404,-0.46533 l 0.093,-0.37227 0.37227,-0.2792 0,0 c 5.11867,-1.02373 14.8907,-1.1168 22.05685,3.16428 l 0,0 c 0.37227,0.2792 0.46533,1.02373 0.0931,1.20987 l 0,0 z m -8.56215,4.188 -0.5584,0.0931 c -0.093,0 -0.18613,-0.0931 -0.2792,-0.0931 l 0,0 0,0 c -4.37414,-2.88507 -7.81762,-4.4672 -13.30857,-4.7464 l 0,0 c -0.18613,0 -0.37227,-0.0931 -0.46533,-0.2792 l 0,0 c -0.46534,-0.46534 -0.093,-1.30295 0.5584,-1.20988 5.02561,0.2792 10.05122,2.04748 14.14617,5.02561 0.18613,0.0931 0.2792,0.2792 0.2792,0.46534 l 0,0 c 0,0.18613 0,0.37226 -0.0931,0.5584 l -0.2792,0.18613 z"
       id="path1603" />
    <path
       inkscape:connector-curvature="0"
       style="fill:#00cbff;fill-rule:evenodd"
       d="m 322.47047,487.6552 c 0,0 2.04747,0.55841 2.04747,2.41974 0.093,1.86134 -2.04747,1.58214 -1.6752,0.37227 0.18613,-1.20987 0.2792,-1.76827 -0.37227,-2.79201 l 0,0 z"
       id="path1605" />
    <path
       inkscape:connector-curvature="0"
       style="fill:#ffffff;fill-rule:evenodd"
       d="m 323.86647,489.79574 c 0.0931,0 0.2792,0.2792 0.2792,0.5584 0,0.2792 -0.0931,0.5584 -0.18613,0.5584 -0.0931,0 -0.2792,-0.2792 -0.2792,-0.5584 0,-0.2792 0.093,-0.5584 0.18613,-0.5584 l 0,0 z"
       id="path1607" />
    <path
       inkscape:connector-curvature="0"
       style="fill-rule:evenodd"
       d="m 305.43922,496.86882 1.02374,0.65148 1.396,0.5584 c 0.2792,-1.86134 2.23361,-14.70458 12.56403,-12.56403 -9.95815,-8.00376 -16.5659,6.79388 -14.98377,11.35415 l 0,0 z"
       id="path1609" />
    <path
       inkscape:connector-curvature="0"
       style="fill:#00cbff;fill-rule:evenodd"
       d="m 309.53417,496.40349 c 0,0 -3.07121,1.48908 -2.51281,4.46721 0.5584,2.97815 3.72268,1.86134 2.88508,0.0931 -0.83761,-1.86134 -1.11681,-2.69894 -0.37227,-4.56028 l 0,0 z"
       id="path1611" />
    <path
       inkscape:connector-curvature="0"
       style="fill:#ffffff;fill-rule:evenodd"
       d="m 307.85896,500.3123 c -0.18613,0.0931 -0.2792,0.46534 -0.2792,0.93067 0.0931,0.46533 0.2792,0.8376 0.5584,0.8376 0.18613,0 0.2792,-0.46533 0.18613,-0.93067 0,-0.5584 -0.18613,-0.93066 -0.46533,-0.8376 l 0,0 z"
       id="path1613" />
    <path
       inkscape:connector-curvature="0"
       style="fill:#00cbff;fill-rule:evenodd"
       d="m 343.03825,479.27918 c 0,0 3.44348,1.76828 2.79201,5.11868 -0.65147,3.35041 -4.28108,2.04748 -3.25734,0 1.02373,-1.9544 1.396,-2.97814 0.46533,-5.11868 l 0,0 z"
       id="path1615" />
    <path
       inkscape:connector-curvature="0"
       style="fill:#ffffff;fill-rule:evenodd"
       d="m 344.89959,483.83946 c 0.2792,0.0931 0.37227,0.5584 0.2792,1.1168 -0.093,0.55841 -0.37226,0.93068 -0.65146,0.93068 -0.2792,-0.0931 -0.37227,-0.5584 -0.2792,-1.11681 0.093,-0.5584 0.37226,-1.02374 0.65146,-0.93067 l 0,0 z"
       id="path1617" />
    <path
       inkscape:connector-curvature="0"
       style="fill:#00cbff;fill-rule:evenodd"
       d="m 307.95203,497.98563 c 0.5584,0.37227 2.60588,0.65147 3.07121,0.2792 0,0 2.69894,0.0931 3.6296,-0.46533 3.44348,-2.04748 4.09495,-2.88508 6.60776,-6.23548 0.0931,-0.0931 2.41974,-5.86322 1.76827,-2.51281 -0.0931,0.65146 -0.0931,0.74453 -0.2792,1.86133 -0.46533,2.23361 -3.44348,5.77015 -7.07308,7.53843 -1.95441,0.93066 -3.90882,1.20986 -5.30482,0.93066 -0.2792,-0.093 -1.20987,-0.37226 -1.48908,-0.37226 -0.093,0 -1.02373,-1.02374 -0.93066,-1.02374 l 0,0 z"
       id="path1619" />
    <path
       inkscape:connector-curvature="0"
       style="fill:#00cbff;fill-rule:evenodd"
       d="m 321.2606,492.21549 c 0,0 2.32667,0.93066 2.04747,3.0712 -0.2792,2.14054 -2.60588,1.48907 -2.04747,0.18613 0.46533,-1.30293 0.65147,-1.9544 0,-3.25733 l 0,0 z"
       id="path1621" />
    <path
       inkscape:connector-curvature="0"
       style="fill:#ffffff;fill-rule:evenodd"
       d="m 322.6566,495.00749 c 0.18614,0 0.2792,0.2792 0.18614,0.65146 0,0.37227 -0.18614,0.65147 -0.37227,0.65147 -0.0931,0 -0.2792,-0.2792 -0.18613,-0.65147 0.093,-0.46533 0.2792,-0.65146 0.37226,-0.65146 l 0,0 z"
       id="path1623" />
    <path
       inkscape:connector-curvature="0"
       style="fill:#ffffff;fill-rule:evenodd"
       d="m 331.87022,484.21173 c 0.74454,-0.46534 1.76828,-0.37227 2.23361,0.37226 0.46534,0.74455 0.2792,1.67521 -0.46533,2.23361 -0.74454,0.46534 -1.67521,0.2792 -2.23361,-0.37226 -0.46534,-0.8376 -0.2792,-1.76828 0.46533,-2.23361 l 0,0 z"
       id="path1625" />
    <path
       inkscape:connector-curvature="0"
       style="fill:#00cbff;fill-rule:evenodd"
       d="m 311.86084,497.5203 c 0,0 -1.6752,1.02373 -1.30293,2.69894 0.46533,1.6752 2.2336,0.93066 1.6752,-0.0931 -0.5584,-1.02374 -0.74454,-1.48907 -0.37227,-2.60587 l 0,0 z"
       id="path1627" />
    <path
       inkscape:connector-curvature="0"
       style="fill:#00cbff;fill-rule:evenodd"
       d="m 343.31745,478.44158 c 0,0.65146 -0.8376,2.60588 -1.30293,2.88508 0,0 -0.74454,1.20986 -1.48907,2.04746 -3.90882,4.37415 -13.7739,2.32668 -13.7739,2.32668 1.1168,0.37227 1.9544,0.8376 3.25734,1.1168 5.02561,0.8376 10.88882,0.093 13.21549,-5.49094 0.8376,-1.95442 0.0931,-2.88508 0.0931,-2.88508 l 0,0 z"
       id="path1629" />
    <path
       inkscape:connector-curvature="0"
       style="fill:#00cbff;fill-rule:evenodd"
       d="m 340.33931,484.39786 c 0,0 1.76827,0.8376 1.58214,2.97814 -0.18613,2.14054 -2.04747,1.58214 -1.6752,0.2792 0.46533,-1.396 0.65146,-2.04746 0.093,-3.25734 l 0,0 z"
       id="path1631" />
    <path
       inkscape:connector-curvature="0"
       style="fill:#ffffff;fill-rule:evenodd"
       d="m 341.45611,487.0968 c 0.093,0 0.18614,0.2792 0.18614,0.65147 0,0.37227 -0.0931,0.65147 -0.2792,0.65147 -0.0931,0 -0.18614,-0.2792 -0.18614,-0.65147 0,-0.46533 0.18614,-0.74453 0.2792,-0.65147 l 0,0 z"
       id="path1633" />
    <path
       inkscape:connector-curvature="0"
       style="fill:#ffffff;fill-rule:evenodd"
       d="m 334.84837,475.37037 c 1.396,-0.93066 3.25733,-0.65146 4.18801,0.74454 0.8376,1.30293 0.46533,3.16427 -0.93068,4.09494 -1.396,0.93067 -3.25733,0.65147 -4.188,-0.74454 -0.8376,-1.396 -0.46534,-3.16427 0.93067,-4.09494 l 0,0 z"
       id="path1635" />
    <path
       inkscape:connector-curvature="0"
       style="fill-rule:evenodd"
       d="m 326.19314,482.35039 c -1.48907,-13.2155 14.61151,-10.51656 17.49658,-6.60775 l 0,1.6752 -0.2792,1.1168 c -1.76827,-1.20986 -13.58777,-6.79388 -17.21738,3.81575 l 0,0 z"
       id="path1637" />
    <path
       inkscape:connector-curvature="0"
       style="fill:#fa8973;fill-rule:evenodd"
       d="m 276.68155,497.61337 c -0.5584,-0.83761 7.44535,-14.51845 8.93442,-15.63525 1.39601,-1.1168 10.51656,-2.69894 10.51656,-2.69894 l -3.16427,13.30857 -16.28671,5.02562 z"
       id="path1639" />
    <path
       inkscape:connector-curvature="0"
       style="fill:#fa8973;fill-rule:evenodd"
       d="m 360.44176,451.17298 c -0.46533,-0.93068 -16.2867,-1.39601 -17.96191,-0.8376 -1.6752,0.65147 -7.81762,7.44535 -7.81762,7.44535 l 12.9363,4.37415 12.84323,-10.9819 z"
       id="path1641" />
    <path
       inkscape:connector-curvature="0"
       style="fill:#ffffff;fill-rule:evenodd"
       d="m 311.02324,500.40537 c -0.0931,0.0931 0,0.18613 0.0931,0.37227 0.093,0.093 0.2792,0.18613 0.2792,0.18613 0.093,-0.0931 0,-0.18613 -0.0931,-0.37227 -0.0931,-0.0931 -0.18613,-0.18613 -0.2792,-0.18613 l 0,0 z"
       id="path1643" />
    <path
       inkscape:connector-curvature="0"
       style="fill:#00cbff;fill-rule:evenodd"
       d="m 328.24062,484.39786 c 0,0 -2.41975,1.30294 -1.95441,3.72268 0.46534,2.41973 3.07121,1.396 2.32667,0 -0.74453,-1.48907 -1.02373,-2.14054 -0.37226,-3.72268 l 0,0 z"
       id="path1645" />
    <path
       inkscape:connector-curvature="0"
       style="fill:#ffffff;fill-rule:evenodd"
       d="m 326.93768,487.6552 c -0.18613,0 -0.2792,0.37227 -0.18613,0.74454 0.0931,0.46533 0.2792,0.74453 0.46533,0.65147 0.18614,-0.0931 0.2792,-0.37227 0.18614,-0.8376 -0.0931,-0.27921 -0.2792,-0.55841 -0.46534,-0.55841 l 0,0 z"
       id="path1647" />
  </g>
</svg>
