<?xml version="1.0" encoding="UTF-8" standalone="no"?>
<!-- Created with Inkscape (http://www.inkscape.org/) -->

<svg
   xmlns:dc="http://purl.org/dc/elements/1.1/"
   xmlns:cc="http://creativecommons.org/ns#"
   xmlns:rdf="http://www.w3.org/1999/02/22-rdf-syntax-ns#"
   xmlns:svg="http://www.w3.org/2000/svg"
   xmlns="http://www.w3.org/2000/svg"
   xmlns:sodipodi="http://sodipodi.sourceforge.net/DTD/sodipodi-0.dtd"
   xmlns:inkscape="http://www.inkscape.org/namespaces/inkscape"
   id="svg6018"
   height="45mm"
   width="37mm"
   version="1.1"
   viewBox="0 0 131.10236 159.44881"
   inkscape:version="0.91 r13725"
   sodipodi:docname="cat_7.svg">
  <defs
     id="defs50" />
  <sodipodi:namedview
     pagecolor="#ffffff"
     bordercolor="#666666"
     borderopacity="1"
     objecttolerance="10"
     gridtolerance="10"
     guidetolerance="10"
     inkscape:pageopacity="0"
     inkscape:pageshadow="2"
     inkscape:window-width="1221"
     inkscape:window-height="766"
     id="namedview48"
     showgrid="false"
     inkscape:zoom="1.4800988"
     inkscape:cx="-164.83885"
     inkscape:cy="79.724413"
     inkscape:window-x="0"
     inkscape:window-y="0"
     inkscape:window-maximized="0"
     inkscape:current-layer="svg6018" />
  <metadata
     id="metadata6023">
    <rdf:RDF>
      <cc:Work
         rdf:about="">
        <dc:format>image/svg+xml</dc:format>
        <dc:type
           rdf:resource="http://purl.org/dc/dcmitype/StillImage" />
        <dc:title />
      </cc:Work>
    </rdf:RDF>
  </metadata>
  <g
     style="fill:#676766"
     transform="matrix(0.93361656,0,0,0.93361656,-73.834566,-558.99842)"
     id="g461">
    <path
       style="fill-rule:evenodd"
       inkscape:connector-curvature="0"
       d="m 148.9,756.8 c 1,0.1 1.9,0.1 2.7,0.1 5.5,-0.2 8.6,-1.5 15.8,-1 10.3,0.7 23.4,3 31.1,-0.3 0.5,-0.2 1.7,-0.7 2.1,-0.9 4.7,-2.4 6.7,-5 6.7,-7.9 0.1,-2.4 -2.7,-6.7 -5.3,-9.6 2.8,0.3 5,-0.4 5.5,-2 0.6,-2.1 -2.4,-4.9 -6.6,-6.3 -1.6,-0.5 -3.2,-0.8 -4.6,-0.7 -8.9,-6.3 -13.9,-7.5 -16.8,-14.3 4,-10.6 7.9,-24.6 10.3,-40.1 0.6,-4 0.5,-9.6 -1.6,-12.3 -0.8,-1 -2.5,-1.8 -3.6,-1.2 -0.6,0.3 -1,0.7 -1.5,1.1 -2.1,-1.1 -4.5,-1.8 -6.8,-2.2 0.6,-1.2 1.1,-2.3 1.5,-3.5 0.8,0.1 1.6,0.3 2.3,0.5 l 0.5,-0.1 0.2,-0.5 -0.5,-0.7 c -0.7,-0.2 -1.4,-0.4 -2.1,-0.5 0.7,-2.2 1,-4.3 1.1,-6.4 l 0,-0.2 c 3.6,4.3 8.1,2.9 8.4,2.6 -2.5,0.1 -5.1,-3.5 -5.1,-4.9 2.1,1.7 4.8,1.8 5.1,1.4 0,-0.1 -2.2,-1.3 -3,-2.2 -3.5,-4.1 -1.6,-1.4 2.2,-0.6 -3.5,-1.8 -4,-5.5 -4.1,-8.4 0.6,-1.8 1,-3.3 0.9,-3.9 -0.2,-2.3 -4.9,-20.2 -6.2,-20.2 -0.6,0.1 -3.4,3.3 -6.5,7 -0.9,1.1 -1.9,2.3 -2.8,3.4 l -0.3,0.4 -0.3,0.4 -0.3,0.3 -0.1,0.1 -0.5,0.7 -0.1,0.1 -0.2,0.2 -0.1,0.2 -0.1,0.2 -0.2,0.2 -0.1,0.1 -0.2,0.3 -0.1,0.1 -0.2,0.3 -0.1,0.1 -0.2,0.3 -0.3,0.3 -0.2,0.3 -0.1,0 -0.2,0.3 -0.1,0.1 -0.2,0.2 -0.1,0.1 -0.1,0.2 -0.1,0.1 -0.1,0.1 -0.1,0.1 -0.1,0.1 -0.1,0.2 -0.1,0.1 -0.1,0.2 -0.1,0.1 -0.1,0.2 -0.2,0.2 -0.1,0.2 -0.1,0.1 -0.1,0.1 0,0.1 -0.1,0.1 -0.1,0.1 0,0.1 0,0.1 -0.1,0.1 c -3.8,-0.9 -8,-1.4 -12.4,-1.5 -4.5,-0.1 -8.7,0.3 -12.5,1.1 l 0,-0.1 0,-0.1 -0.3,-0.3 -0.1,-0.1 0,-0.1 -0.1,-0.1 -0.3,-0.4 c -0.5,-0.7 -1.3,-1.8 -2.2,-3 l 0,-0.1 -0.2,-0.3 -0.7,-0.9 -0.1,-0.2 -0.3,-0.4 -0.2,-0.3 -0.1,-0.1 -0.9,-1.1 -0.3,-0.4 -0.3,-0.4 -0.1,-0.1 -0.3,-0.3 -0.6,-0.8 -0.1,-0.2 -0.2,-0.2 -0.3,-0.4 -0.2,-0.3 -0.1,-0.1 -0.3,-0.3 -0.1,-0.1 -0.3,-0.4 c -3,-3.8 -5.7,-7.2 -6.2,-7.2 -1.3,-0.1 -6.7,17.6 -6.9,19.9 -0.1,0.8 0.3,2.5 0.9,4.5 0,2.9 -0.3,7.1 -4.1,9 3.8,-0.8 5.7,-3.5 2.2,0.6 -0.8,1 -3,2.2 -3,2.2 -0.3,0.3 3,0.3 5.1,-1.4 0,1.4 -2.6,5 -5.1,4.9 -0.5,0 4.3,1.6 7.9,-2 0.1,2 0.5,4 1.1,6 -0.7,0.1 -1.5,0.3 -2.2,0.6 l -0.5,0.7 0.2,0.5 0.5,0.1 c 0.8,-0.3 1.6,-0.4 2.4,-0.5 0.4,1.2 0.9,2.4 1.5,3.5 -2.5,0.5 -5,1.2 -7.3,2.5 -0.5,0.3 -0.5,0.9 -0.2,1.1 0.8,0.5 2.2,-1.5 8.1,-2.4 0.8,1.4 1.6,2.7 2.6,4 -1,0.5 -1.9,1 -2.8,1.6 -0.2,0.1 -0.3,0.3 -0.3,0.5 0,0.2 0,0.4 0.1,0.5 l 0.2,0.2 0.5,0.1 c 0.1,0 0.2,-0.1 0.3,-0.1 1,-0.6 2,-1.1 3,-1.6 2.9,3.5 6.5,6.5 10.7,8.5 l -1.7,3.3 c 0.5,0.2 0.9,0.5 1.3,0.7 -1.6,0.7 -3.6,1.6 -6.3,2.9 -8.7,4.2 -9,11.2 -9.8,19.4 -1.9,20.5 -6.7,18.8 -19.7,28.1 -1,0.1 -2.1,0.3 -3.2,0.7 -4.3,1.4 -7.2,4.2 -6.6,6.3 0.3,1.3 2,2 4.1,2 -7.4,5.9 -7.6,12.8 1.5,17.4 0.4,0.2 1.6,0.6 2.1,0.9 7.8,3.3 20.8,1 31.1,0.3 7.1,-0.5 10.3,0.9 15.8,1 1.2,-0.3 2.1,-0.3 3.1,-0.4 z"
       id="path463" />
    <path
       inkscape:connector-curvature="0"
       d="m 187.2,763.3 c -4.6,0 -9.3,-0.4 -13.9,-0.9 -2.2,-0.2 -4.4,-0.4 -6.4,-0.6 -0.9,-0.1 -1.8,-0.1 -2.6,-0.1 -2.4,0 -4.3,0.3 -6.4,0.5 -1.9,0.3 -3.8,0.5 -6.2,0.6 -1,0 -2,0 -2.9,-0.1 -1,0.1 -2,0.1 -2.9,0.1 -2.4,-0.1 -4.3,-0.4 -6.2,-0.6 -2,-0.3 -3.9,-0.5 -6.4,-0.5 -0.8,0 -1.7,0 -2.6,0.1 -2,0.1 -4.1,0.3 -6.4,0.6 -4.6,0.4 -9.3,0.9 -13.8,0.9 -5.7,0 -10.1,-0.7 -13.7,-2.2 -0.1,-0.1 -0.4,-0.1 -0.6,-0.2 -0.9,-0.3 -1.4,-0.5 -1.9,-0.8 -7.7,-4 -9.8,-9.1 -10.1,-12.7 -0.2,-2.3 0.1,-5.4 2.2,-8.8 -0.3,-0.6 -0.5,-1.1 -0.7,-1.7 -1.5,-5.5 2.8,-11 10.5,-13.6 l 0.1,0 c 0.9,-0.3 1.8,-0.5 2.6,-0.7 2.2,-1.5 4.1,-2.7 5.8,-3.8 7.4,-4.6 9,-5.6 10.2,-19.2 l 0.1,-0.9 c 0.7,-8 1.6,-17.9 13,-23.4 0.1,0 0.1,-0.1 0.2,-0.1 -1,-0.8 -1.9,-1.6 -2.8,-2.4 -1,0.4 -2.2,0.4 -3.2,0.2 l -0.5,-0.1 c -1.1,-0.2 -2.2,-0.8 -3,-1.6 l -0.2,-0.2 c -0.3,-0.3 -0.5,-0.6 -0.7,-0.9 -0.3,-0.5 -0.6,-1.1 -0.8,-1.7 -0.5,0.1 -1,0.2 -1.7,0.2 -1.3,0 -2.6,-0.4 -3.7,-1.1 -1.8,-1.3 -2.9,-3.5 -2.8,-5.7 0.1,-2.2 1.3,-4.2 3.1,-5.4 -5.9,-0.7 -6.4,-4.9 -6.4,-6.2 0,-0.6 0.1,-1.2 0.3,-1.8 -0.2,-0.8 -0.3,-1.6 -0.2,-2.4 0.1,-0.9 0.3,-1.7 0.8,-2.4 l 0,-0.1 c 0.1,-2.1 1.2,-4 3.2,-5.1 0.5,-0.3 0.8,-1.2 0.9,-3 -0.8,-2.8 -1,-4.5 -0.8,-5.9 0.3,-2.7 3.3,-11.9 3.3,-12 2.6,-8 4.3,-13.2 9.6,-13.2 l 0.3,0 c 3.2,0.2 4.9,2.1 10.6,9.4 0.1,0.1 0.2,0.3 0.3,0.4 l 0.3,0.4 c 0,0.1 0.1,0.1 0.1,0.2 l 0.2,0.3 c 0.1,0.1 0.1,0.2 0.2,0.3 l 0.1,0.2 c 0.1,0.1 0.2,0.3 0.3,0.4 l 0.8,1 c 0.1,0.2 0.2,0.3 0.3,0.5 l 0.4,0.5 0.1,0.1 0.8,1.1 c 0.1,0.1 0.2,0.3 0.3,0.4 l 0.2,0.3 c 0,0.1 0.1,0.1 0.1,0.2 l 0.8,1.1 c 0.1,0.2 0.2,0.3 0.3,0.5 0.3,0.4 0.5,0.7 0.8,1 3.1,-0.4 6.5,-0.6 10,-0.5 3.5,0.1 6.8,0.4 9.9,0.9 l 0.1,-0.2 0.3,-0.3 0.1,-0.1 0.3,-0.4 c 0.1,-0.1 0.2,-0.3 0.3,-0.4 0,-0.1 0.1,-0.1 0.1,-0.2 l 0.2,-0.3 0.3,-0.3 c 0,-0.1 0.1,-0.1 0.1,-0.2 0.1,-0.1 0.2,-0.3 0.3,-0.4 l 0.6,-0.7 c 0.1,-0.1 0.2,-0.2 0.2,-0.3 l 0.3,-0.3 0.4,-0.6 c 0,-0.1 0.1,-0.1 0.1,-0.2 l 0.4,-0.4 c 0.8,-1 1.6,-2 2.4,-2.9 0.1,-0.1 0.1,-0.2 0.2,-0.2 6.1,-7.4 7.7,-8.7 10.4,-9 l 0.3,0 0.3,0 c 5.4,0 7,5.4 9.3,13.5 0,0.1 2.7,9.4 2.9,12.2 l 0,0.2 c 0,0.5 0.1,1.9 -0.9,5 0.1,1.2 0.4,2 0.7,2.2 1.9,1 3.3,2.9 3.3,5.2 0.1,0.1 0.1,0.2 0.2,0.4 0.7,1.4 0.8,3 0.4,4.5 0.7,2.2 0,4.6 -1.7,6.1 -0.4,0.4 -0.9,0.7 -1.3,0.9 1,0.6 1.9,1.4 2.6,2.4 3.9,5.5 3,14.2 2.6,16.7 -2,13.1 -5.4,26.8 -9.7,38.7 1.2,1.7 3.1,3 6.8,5.3 1.6,1 3.4,2.1 5.4,3.5 1.4,0.1 2.9,0.5 4.3,0.9 7.8,2.6 12.1,8.2 10.6,13.6 -0.3,1.1 -0.9,2.3 -1.9,3.3 1.1,2.2 2,4.6 1.9,6.8 -0.1,3.7 -1.9,8.9 -10,13 -0.5,0.3 -1,0.5 -1.8,0.8 -0.2,0.1 -0.5,0.2 -0.6,0.2 -3.3,1.5 -7.7,2.2 -13.4,2.2 z m -22.8,-13.5 c 1.1,0 2.2,0 3.4,0.1 2.2,0.1 4.4,0.4 6.7,0.6 4.3,0.4 8.7,0.8 12.7,0.8 4,0 7,-0.4 9,-1.3 0.2,-0.1 0.7,-0.3 1.1,-0.4 0.2,-0.1 0.5,-0.2 0.7,-0.3 2.5,-1.3 3.2,-2.2 3.4,-2.5 -0.4,-1.1 -1.7,-3.4 -3.7,-5.7 -1.6,-1.8 -2,-4.5 -0.8,-6.7 0,-0.1 0.1,-0.1 0.1,-0.2 l -0.4,0 c -1.2,0 -2.5,-0.4 -3.6,-1.1 -2.4,-1.7 -4.5,-3 -6.3,-4.2 -5.2,-3.3 -9.7,-6.1 -12.5,-12.7 -0.6,-1.4 -0.6,-3 -0.1,-4.5 4.4,-11.8 8,-25.6 10,-38.9 0.3,-2.2 0.3,-4.2 0.1,-5.7 -1.2,0.2 -2.4,0 -3.6,-0.6 -1.4,-0.8 -3.2,-1.3 -5.1,-1.7 -1.9,-0.3 -3.5,-1.5 -4.3,-3.2 -0.8,-1.7 -0.8,-3.7 0,-5.4 0.5,-1 0.9,-1.9 1.2,-2.8 0.1,-0.2 0.1,-0.3 0.2,-0.5 0,-0.2 0.1,-0.4 0.1,-0.6 0.5,-1.6 0.8,-3.2 0.8,-4.7 l 0,-0.1 c 0,-2.4 1.4,-4.5 3.5,-5.5 0,-0.7 0.2,-1.5 0.5,-2.3 -0.3,-1.3 -0.5,-2.7 -0.5,-4.3 0,-0.7 0.1,-1.4 0.3,-2.1 0.3,-0.9 0.5,-1.6 0.6,-1.9 -0.3,-1.7 -1.3,-5.5 -2.3,-9.1 -0.7,0.9 -1.5,1.8 -2.2,2.7 l -0.9,1.1 c -0.1,0.1 -0.2,0.2 -0.2,0.3 -0.1,0.1 -0.1,0.2 -0.2,0.3 l -0.6,0.7 c 0,0.1 -0.1,0.1 -0.1,0.2 l -0.3,0.3 -0.1,0.1 c -0.1,0.1 -0.2,0.3 -0.3,0.4 0,0.1 -0.1,0.1 -0.1,0.2 l -0.2,0.3 c 0,0 0,0.1 -0.1,0.1 l 0,0.1 c -0.1,0.2 -0.2,0.3 -0.3,0.4 l -0.2,0.2 c -0.1,0.2 -0.3,0.4 -0.4,0.5 -0.1,0.1 -0.1,0.2 -0.2,0.2 l 0,0.1 c 0,0.1 -0.1,0.1 -0.2,0.2 l -0.1,0.1 -0.1,0.2 c -0.1,0.2 -0.3,0.4 -0.5,0.6 -0.1,0.2 -0.3,0.4 -0.5,0.6 l 0,0.1 -0.1,0.1 c -0.1,0.1 -0.1,0.2 -0.2,0.2 -0.2,0.3 -0.4,0.6 -0.7,0.9 -1.5,1.5 -3.8,2.1 -5.8,1.6 -3.2,-0.8 -7,-1.2 -11.1,-1.3 -4.1,-0.1 -7.8,0.2 -11.1,0.9 -2.4,0.5 -4.9,-0.5 -6.2,-2.5 l -0.2,-0.2 -0.1,-0.1 c -0.1,-0.1 -0.1,-0.1 -0.1,-0.2 l -0.1,-0.1 -0.1,-0.2 c 0,-0.1 -0.1,-0.1 -0.1,-0.2 -0.5,-0.7 -1.3,-1.8 -2.2,-3 0,-0.1 -0.1,-0.1 -0.1,-0.2 0,-0.1 -0.1,-0.1 -0.1,-0.2 l -0.7,-0.9 c 0,0 0,-0.1 -0.1,-0.1 l -0.3,-0.4 c -0.1,-0.1 -0.2,-0.2 -0.2,-0.3 0,0 0,-0.1 -0.1,-0.1 l -1,-1.3 c -0.1,-0.1 -0.2,-0.3 -0.3,-0.4 l -0.3,-0.4 -0.2,-0.2 -0.6,-0.8 c 0,0 0,-0.1 -0.1,-0.1 -0.1,-0.1 -0.2,-0.3 -0.3,-0.4 l -0.3,-0.4 -0.1,-0.1 -0.1,-0.1 c -0.1,-0.1 -0.2,-0.2 -0.3,-0.4 -1.2,3.6 -2.3,7.4 -2.6,9 0.1,0.4 0.2,1.1 0.6,2.4 0.2,0.6 0.3,1.2 0.2,1.8 0,1 0,2.9 -0.5,5 0.5,1.2 0.6,2.2 0.5,3.2 1.8,1 2.9,2.8 3,4.9 0.1,1.5 0.4,3 0.8,4.6 0.1,0.2 0.1,0.4 0.1,0.6 0.1,0.2 0.1,0.3 0.2,0.5 0.3,0.9 0.7,1.8 1.2,2.7 l 0.3,0.6 c 0.1,0.2 0.2,0.3 0.3,0.5 0.6,1.1 1.4,2.2 2.2,3.3 0.1,0.2 0.2,0.3 0.3,0.5 0.2,0.1 0.3,0.3 0.4,0.5 2.5,3 5.5,5.4 8.7,7 1.5,0.7 2.6,2 3.1,3.5 0.5,1.5 0.4,3 -0.3,4.4 0.1,0.4 0.2,0.9 0.2,1.4 0,2.3 -1.4,4.5 -3.5,5.4 -0.5,0.2 -1,0.4 -1.5,0.7 -1.3,0.6 -2.8,1.2 -4.7,2.1 -5.1,2.5 -5.6,5.8 -6.3,13.6 l -0.1,0.9 c -1.7,18.7 -6.3,22.3 -15.8,28.2 -1.9,1.2 -4,2.5 -6.4,4.2 -0.8,0.6 -1.8,1 -2.8,1.1 -0.3,0 -0.7,0.1 -1,0.2 0.1,0.3 0.3,0.6 0.4,0.9 0.8,2.4 0,5 -1.9,6.6 -2.7,2.1 -3.3,3.7 -3.2,4.2 0,0.5 0.9,1.7 3.6,3.2 0.2,0.1 0.5,0.2 0.7,0.3 0.4,0.2 0.8,0.3 1,0.4 2,0.9 5,1.3 9,1.3 4,0 8.4,-0.4 12.7,-0.8 2.2,-0.2 4.5,-0.4 6.7,-0.6 1.2,-0.1 2.3,-0.1 3.4,-0.1 3.3,0 5.8,0.3 8,0.7 1.6,0.2 3.2,0.4 5,0.5 0.5,0 1.2,0 1.8,-0.1 0.5,-0.1 0.9,-0.1 1.4,0 0.6,0.1 1.2,0.1 1.8,0.1 1.8,-0.1 3.3,-0.3 5,-0.5 2.1,-0.2 4.6,-0.5 7.9,-0.5 z"
       id="path465" />
  </g>
  <path
     id="path469"
     d="m 65.18094,147.56259 c 0.933616,0.0934 1.773871,0.0934 2.520764,0.0934 5.134892,-0.18672 8.029103,-1.40042 14.751142,-0.93361 9.616251,0.65353 21.846624,2.80085 29.035474,-0.28009 0.46681,-0.18672 1.58715,-0.65353 1.9606,-0.84025 4.38799,-2.24068 6.25523,-4.66808 6.25523,-7.37557 0.0934,-2.24068 -2.52077,-6.25523 -4.94817,-8.96272 2.61413,0.28008 4.66808,-0.37345 5.13489,-1.86724 0.56017,-1.96059 -2.24068,-4.57472 -6.16187,-5.88178 -1.49379,-0.46681 -2.98757,-0.74689 -4.29464,-0.65353 -8.30918,-5.88179 -12.977265,-7.00213 -15.684753,-13.35072 3.734466,-9.896333 7.375573,-22.966965 9.616253,-37.438022 0.56017,-3.734466 0.46681,-8.962719 -1.49379,-11.483484 -0.74689,-0.933616 -2.334041,-1.680509 -3.361019,-1.120339 -0.56017,0.280085 -0.933617,0.653531 -1.400425,1.026978 -1.960595,-1.026978 -4.201274,-1.68051 -6.348592,-2.053957 0.560169,-1.12034 1.026978,-2.147318 1.400424,-3.267658 0.746894,0.09336 1.493787,0.280085 2.147318,0.466809 l 0.466809,-0.09336 0.186723,-0.466808 -0.466808,-0.653532 c -0.653532,-0.186723 -1.307063,-0.373446 -1.960595,-0.466808 0.653532,-2.053957 0.933617,-4.014551 1.026978,-5.975146 l 0,-0.186723 c 3.36102,4.014551 7.562297,2.707488 7.842377,2.427403 -2.334039,0.09336 -4.761442,-3.267658 -4.761442,-4.574722 1.960595,1.587149 4.481362,1.68051 4.761442,1.307064 0,-0.09336 -2.053954,-1.213702 -2.800847,-2.053957 -3.267658,-3.827828 -1.493787,-1.307063 2.053957,-0.56017 -3.267659,-1.68051 -3.734467,-5.134891 -3.827829,-7.842379 0.56017,-1.68051 0.933617,-3.080934 0.840255,-3.641104 -0.186723,-2.147318 -4.574721,-18.859055 -5.788423,-18.859055 -0.56017,0.09336 -3.174296,3.080935 -6.068507,6.535316 -0.840255,1.026978 -1.773872,2.147318 -2.614127,3.174296 l -0.280085,0.373447 -0.280085,0.373447 -0.280085,0.280085 -0.09336,0.09336 -0.466808,0.653532 -0.09336,0.09336 -0.186723,0.186724 -0.09336,0.186723 -0.09336,0.186723 -0.186723,0.186724 -0.09336,0.09336 -0.186723,0.280085 -0.09336,0.09336 -0.186723,0.280085 -0.09336,0.09336 -0.186723,0.280085 -0.280085,0.280085 -0.186723,0.280084 -0.09336,0 -0.186723,0.280085 -0.09336,0.09336 -0.186723,0.186723 -0.09336,0.09336 -0.09336,0.186723 -0.09336,0.09336 -0.09336,0.09336 -0.09336,0.09336 -0.09336,0.09336 -0.09336,0.186723 -0.09336,0.09336 -0.09336,0.186723 -0.09336,0.09336 -0.09336,0.186723 -0.186724,0.186724 -0.09336,0.186723 -0.09336,0.09336 -0.09336,0.09336 0,0.09336 -0.09336,0.09336 -0.09336,0.09336 0,0.09336 0,0.09336 -0.09336,0.09336 c -3.547743,-0.840255 -7.468932,-1.307063 -11.576845,-1.400425 -4.201274,-0.09336 -8.122464,0.280085 -11.670207,1.026979 l 0,-0.09336 0,-0.09336 -0.280085,-0.280085 -0.09336,-0.09336 0,-0.09336 -0.09336,-0.09336 -0.280085,-0.373446 c -0.466808,-0.653532 -1.213702,-1.68051 -2.053957,-2.80085 l 0,-0.09336 -0.186723,-0.280085 -0.653532,-0.840255 -0.09336,-0.186723 -0.280085,-0.373446 -0.186723,-0.280085 -0.09336,-0.09336 -0.840255,-1.026978 -0.280085,-0.373447 -0.280085,-0.373447 -0.09336,-0.09336 -0.280085,-0.280085 -0.56017,-0.746893 -0.09336,-0.186724 -0.186724,-0.186723 -0.280084,-0.373447 -0.186724,-0.280085 -0.09336,-0.09336 -0.280085,-0.280085 -0.09336,-0.09336 -0.280085,-0.373447 c -2.80085,-3.547743 -5.321614,-6.722039 -5.788423,-6.722039 -1.213701,-0.09336 -6.255231,16.431652 -6.441954,18.57897 -0.09336,0.746893 0.280085,2.334041 0.840255,4.201274 0,2.707488 -0.280085,6.628678 -3.827828,8.402549 3.547743,-0.746893 5.321614,-3.267658 2.053956,0.56017 -0.746893,0.933617 -2.800849,2.053957 -2.800849,2.053957 -0.280085,0.280085 2.800849,0.280085 4.761444,-1.307064 0,1.307064 -2.427403,4.668083 -4.761444,4.574722 -0.466808,0 4.014551,1.493786 7.375571,-1.867233 0.09336,1.867233 0.466808,3.734466 1.026978,5.601699 -0.653532,0.09336 -1.400425,0.280085 -2.053957,0.56017 l -0.466808,0.653531 0.186723,0.466809 0.466809,0.09336 c 0.746893,-0.280085 1.493786,-0.373446 2.240679,-0.466808 0.373447,1.12034 0.840255,2.24068 1.400425,3.267658 -2.334041,0.466808 -4.668083,1.12034 -6.815401,2.334041 -0.466808,0.280085 -0.466808,0.840255 -0.186723,1.026979 0.746893,0.466808 2.053957,-1.400425 7.562294,-2.24068 0.746893,1.307063 1.493787,2.520765 2.427403,3.734466 -0.933616,0.466808 -1.773871,0.933617 -2.614126,1.493787 -0.186723,0.09336 -0.280085,0.280085 -0.280085,0.466808 0,0.186723 0,0.373447 0.09336,0.466808 l 0.186723,0.186723 0.466808,0.09336 c 0.09336,0 0.186724,-0.09336 0.280085,-0.09336 0.933617,-0.560169 1.867233,-1.026978 2.80085,-1.493786 2.707488,3.267658 6.068507,6.068508 9.989697,7.935741 l -1.587148,3.080934 c 0.466808,0.186724 0.840255,0.466809 1.213701,0.653532 -1.493786,0.653532 -3.361019,1.493786 -5.881784,2.707488 -8.122464,3.92119 -8.402549,10.456505 -9.149442,18.112161 -1.773872,19.13914 -6.255231,17.55199 -18.392246,26.23463 -0.933617,0.0934 -1.960595,0.28008 -2.987573,0.65353 -4.014552,1.30706 -6.72204,3.92119 -6.16187,5.88178 0.280085,1.2137 1.867233,1.86723 3.827828,1.86723 -6.9087624,5.50834 -7.0954857,11.9503 1.400425,16.24493 0.373447,0.18673 1.493787,0.56017 1.960595,0.84026 7.282209,3.08093 19.419224,0.93361 29.035475,0.28008 6.628677,-0.46681 9.61625,0.84026 14.751141,0.93362 1.12034,-0.28009 1.960595,-0.28009 2.894212,-0.37345 z"
     inkscape:connector-curvature="0"
     style="fill:#fefefe;fill-rule:evenodd" />
  <path
     style="fill:#fefefe"
     id="path471"
     d="m 100.93845,152.69748 c -4.20127,0 -8.589268,-0.37344 -12.883904,-0.84025 -2.147319,-0.18672 -4.107913,-0.37345 -5.975146,-0.56017 -0.840255,-0.0934 -1.68051,-0.0934 -2.520765,-0.0934 -2.334042,0 -4.107913,0.28008 -6.068508,0.46681 -1.68051,0.28008 -3.547743,0.4668 -5.695061,0.56017 -0.933616,0 -1.773871,0 -2.707488,-0.0934 -0.933616,0.0934 -1.867233,0.0934 -2.707488,0.0934 -2.147318,-0.0934 -4.014551,-0.28009 -5.695061,-0.56017 -1.960595,-0.28009 -3.734466,-0.46681 -6.068508,-0.46681 -0.840254,0 -1.587148,0 -2.520764,0.0934 -1.867233,0.0934 -3.92119,0.28008 -5.975146,0.56017 -4.201275,0.37345 -8.589273,0.84025 -12.790547,0.84025 -5.228253,0 -9.149442,-0.65353 -12.4171,-2.05395 -0.09336,-0.0934 -0.373447,-0.0934 -0.56017,-0.18673 -0.746894,-0.28008 -1.307063,-0.4668 -1.68051,-0.74689 -6.815401,-3.54774 -8.6826341,-7.93574 -8.9627191,-11.11004 -0.1867233,-2.14731 0.093362,-4.94816 2.2406798,-8.12246 -0.3734467,-0.65353 -0.6535316,-1.2137 -0.8402549,-1.86723 -1.3070632,-4.48136 2.5207647,-9.24281 9.2428042,-11.48349 0.933616,-0.28008 1.773871,-0.46681 2.614126,-0.65353 2.053956,-1.40042 3.92119,-2.61413 5.508338,-3.6411 6.908762,-4.29464 8.775995,-5.50834 9.989697,-18.578973 l 0.09336,-0.840255 c 0.653531,-7.562294 1.400424,-16.151566 11.670207,-21.099734 0.56017,-0.280085 1.120339,-0.56017 1.587148,-0.746893 -1.493787,-1.026979 -2.894212,-2.24068 -4.201275,-3.547743 -0.933616,0.466808 -2.053956,0.56017 -3.080934,0.373446 l -0.466809,-0.09336 C 39.133038,68.111823 38.386145,67.645015 37.732613,66.991483 L 37.54589,66.80476 c -0.186724,-0.186723 -0.373447,-0.466808 -0.56017,-0.746893 -0.466809,-0.653532 -0.746894,-1.400425 -0.840255,-2.24068 -0.653532,0.280085 -1.307063,0.466808 -2.24068,0.466808 -1.026978,0 -2.053956,-0.280085 -2.894211,-0.933616 -1.493787,-1.026978 -2.334042,-2.707488 -2.24068,-4.574721 0.09336,-1.867233 1.213701,-3.641105 2.894211,-4.48136 0.09336,0 0.09336,-0.09336 0.186724,-0.09336 -0.09336,-0.466809 -0.186724,-0.933617 -0.186724,-1.307064 -5.321614,-0.280085 -5.975146,-3.547743 -5.975146,-4.948167 0,-0.56017 0.09336,-1.12034 0.280085,-1.68051 -0.280085,-0.653532 -0.373446,-1.400425 -0.280085,-2.147318 0.09336,-0.840255 0.373447,-1.493787 0.653532,-1.960595 l 0.09336,-0.09336 c 0,-1.680509 0.933616,-3.361019 2.427403,-4.201274 0.653531,-0.373447 1.213701,-1.026978 1.307063,-3.734466 -0.840255,-2.894212 -0.933617,-4.294637 -0.840255,-5.321615 0.280085,-2.427403 2.987573,-10.923314 2.987573,-11.016675 C 34.931763,9.85415 36.332188,6.1196838 40.346739,6.1196838 l 0.280085,0 c 2.520765,0.093362 3.827828,1.4937865 9.149443,8.4025492 0.09336,0.09336 0.186723,0.186723 0.280085,0.373446 l 0.280084,0.373447 c 0,0 0.09336,0.09336 0.09336,0.186723 l 0.186723,0.280085 0.186724,0.186724 0.186723,0.280085 0.280085,0.280085 0.746893,0.933616 c 0.09336,0.09336 0.186724,0.280085 0.280085,0.373447 l 0.373447,0.56017 c 0,0 0,0.09336 0.09336,0.09336 l 0.840254,1.12034 c 0.09336,0.09336 0.186724,0.186724 0.280085,0.373447 l 0.280085,0.280085 c 0,0 0.09336,0.09336 0.09336,0.186723 l 0.840255,1.026978 c 0.09336,0.09336 0.186723,0.280085 0.280085,0.373447 0.373447,0.466808 0.746893,1.026978 1.026978,1.400425 2.987573,-0.466808 6.255231,-0.653532 9.709612,-0.56017 3.454382,0.09336 6.628678,0.373447 9.616251,0.933616 0.09336,-0.09336 0.09336,-0.186723 0.186723,-0.280085 0,0 0,-0.09336 0.09336,-0.09336 l 0.186723,-0.280085 0.280085,-0.280085 0.09336,-0.09336 0.280085,-0.373446 c 0.09336,-0.09336 0.186723,-0.280085 0.280085,-0.373447 0,-0.09336 0.09336,-0.09336 0.09336,-0.186723 l 0.186724,-0.280085 c 0.09336,-0.09336 0.186723,-0.186724 0.186723,-0.280085 0,-0.09336 0.09336,-0.09336 0.09336,-0.186724 l 0,-0.09336 c 0.09336,-0.09336 0.186723,-0.186724 0.280085,-0.373447 l 0.56017,-0.653531 c 0.09336,-0.09336 0.09336,-0.186724 0.186723,-0.280085 l 0.280085,-0.280085 0,-0.09336 0.466808,-0.56017 0.09336,-0.09336 0.373446,-0.373446 c 0.746894,-0.933617 1.493787,-1.867233 2.24068,-2.707488 l 0.186723,-0.186724 c 5.788423,-7.0954855 7.002125,-7.8423787 9.056081,-8.1224637 l 0.280085,0 0.186723,0 c 4.201275,0 5.508338,3.9211897 7.84238,11.9502917 0.653527,2.427403 2.520767,9.056081 2.707487,11.203399 l 0,0.186723 c 0,0.466809 0.0934,1.587148 -0.84025,4.48136 0.18672,2.147318 0.74689,2.707488 1.12034,2.987573 1.58714,0.746893 2.70748,2.334041 2.70748,4.201274 l 0,0.09336 c 0.0934,0.186723 0.18673,0.280085 0.28009,0.466808 0.56017,1.213702 0.65353,2.614127 0.18672,3.734467 0.65353,1.773871 0.18673,3.734466 -1.2137,5.041529 -0.84025,0.746893 -1.96059,1.213701 -2.98757,1.400425 1.58715,0.56017 3.08093,1.493786 4.01455,2.894211 3.45438,4.761445 2.61412,12.697185 2.33404,14.937865 -1.86723,12.323739 -5.13489,25.207647 -9.149442,36.411042 1.213702,1.9606 3.080932,3.26766 6.908762,5.6017 1.58715,0.93362 3.26766,2.05396 5.22825,3.36102 1.30707,0.0934 2.70749,0.37345 4.10792,0.84026 6.8154,2.24068 10.54986,7.00212 9.2428,11.57684 -0.37345,1.30707 -1.02698,2.33404 -1.9606,3.1743 1.12034,2.05396 2.05396,4.388 1.9606,6.44195 -0.0934,4.57472 -3.08093,8.40255 -8.86936,11.39013 -0.37344,0.18672 -0.84025,0.37344 -1.58715,0.65353 -0.28008,0.0934 -0.4668,0.18672 -0.65353,0.28008 -3.17429,1.68051 -7.09548,2.33404 -12.32374,2.33404 z M 79.651996,141.96089 c 1.026979,0 2.053957,0 3.080935,0.0934 2.053957,0.0934 4.014551,0.37345 6.255231,0.56017 4.014551,0.37345 8.215826,0.7469 11.950288,0.7469 3.92119,0 6.72204,-0.37345 8.68264,-1.30707 0.18672,-0.0934 0.56017,-0.28008 1.02698,-0.37344 0.28008,-0.0934 0.4668,-0.18673 0.65353,-0.28009 2.61412,-1.30706 3.6411,-2.52076 3.73446,-3.17429 -0.18672,-0.84026 -1.49378,-3.36102 -3.73446,-5.88179 -1.30707,-1.40042 -1.49379,-3.54774 -0.65353,-5.22825 0.28008,-0.46681 0.56017,-0.93362 0.93361,-1.30706 -0.65353,-0.18673 -1.40042,-0.28009 -1.96059,-0.28009 l -0.0934,0 c -1.02698,0 -1.9606,-0.28008 -2.80085,-0.84025 -2.24068,-1.58715 -4.20128,-2.80085 -5.97515,-3.92119 -4.948167,-3.08094 -8.775995,-5.50834 -11.29676,-11.39012 -0.466808,-1.12034 -0.466808,-2.33405 -0.09336,-3.45439 4.107913,-11.110033 7.468932,-23.993942 9.336165,-36.504403 0.373447,-2.614127 0.280085,-5.04153 -0.09336,-6.535316 -1.213702,0.373446 -2.520765,0.280085 -3.641105,-0.280085 -1.400425,-0.746894 -3.174296,-1.307064 -5.041529,-1.68051 -1.493787,-0.280085 -2.707488,-1.213702 -3.36102,-2.520765 -0.653532,-1.307063 -0.653532,-2.894211 0,-4.201274 0.466808,-0.933617 0.840255,-1.867234 1.213702,-2.707488 0.09336,-0.186724 0.09336,-0.373447 0.186723,-0.466809 0,-0.186723 0.09336,-0.373446 0.09336,-0.56017 0.466808,-1.587148 0.746893,-3.174296 0.746893,-4.668082 l 0,-0.09336 c 0,-1.960595 1.213701,-3.734466 3.080934,-4.387998 0.09336,0 0.186724,-0.09336 0.280085,-0.09336 -0.09336,-0.746893 0,-1.587148 0.373447,-2.520764 0,-0.09336 0.09336,-0.09336 0.09336,-0.186724 -0.280085,-1.213701 -0.466809,-2.614126 -0.56017,-4.107912 0,-0.56017 0.09336,-1.12034 0.280085,-1.68051 0.373446,-1.026978 0.56017,-1.773872 0.56017,-2.053957 -0.280085,-1.68051 -1.493787,-6.441954 -2.707488,-10.456505 -0.280085,0.373446 -0.56017,0.653531 -0.840255,1.026978 l -0.09336,0.09336 c -0.746893,0.933616 -1.493786,1.773871 -2.24068,2.707488 L 86.187312,25.0721 c -0.09336,0.09336 -0.09336,0.186723 -0.186723,0.280085 -0.09336,0.09336 -0.09336,0.186723 -0.186723,0.186723 l -0.56017,0.653532 -0.09336,0.09336 c -0.09336,0.09336 -0.186723,0.186724 -0.186723,0.280085 l -0.09336,0.186724 c -0.09336,0.09336 -0.186723,0.280085 -0.280085,0.373446 0,0.09336 -0.09336,0.09336 -0.09336,0.186724 l -0.186724,0.280085 -0.09336,0.09336 -0.09336,0.09336 c -0.09336,0.09336 -0.186723,0.280085 -0.280085,0.373447 l -0.186723,0.280085 c -0.09336,0.186723 -0.186724,0.280085 -0.373447,0.466808 l -0.186723,0.186723 -0.09336,0.09336 c 0,0.09336 -0.09336,0.09336 -0.09336,0.186723 l -0.09336,0.09336 -0.09336,0.09336 -0.186723,0.186724 c -0.09336,0.186723 -0.280085,0.373446 -0.373447,0.56017 -0.09336,0.186723 -0.280085,0.373446 -0.466808,0.56017 0,0 0,0.09336 -0.09336,0.09336 l -0.09336,0.09336 c -0.09336,0.09336 -0.09336,0.186723 -0.186724,0.186723 -0.186723,0.280085 -0.373446,0.466809 -0.56017,0.653532 -1.12034,1.12034 -2.894211,1.68051 -4.481359,1.307063 -3.080935,-0.746893 -6.628678,-1.213702 -10.549867,-1.307063 -3.92119,-0.09336 -7.468933,0.186723 -10.549867,0.933616 -1.867234,0.373447 -3.827828,-0.373446 -4.854807,-1.960594 l -0.09336,-0.09336 c 0,-0.09336 -0.09336,-0.09336 -0.09336,-0.186723 l -0.09336,-0.09336 c 0,-0.09336 -0.09336,-0.09336 -0.09336,-0.186723 l -0.09336,-0.09336 -0.186723,-0.186723 -0.09336,-0.09336 c -0.466808,-0.653532 -1.213701,-1.68051 -2.053956,-2.80085 0,-0.09336 -0.09336,-0.09336 -0.09336,-0.186723 l -0.09336,-0.09336 -0.933616,-1.307063 c -0.09336,-0.09336 -0.09336,-0.186723 -0.186723,-0.280085 l 0,-0.09336 c 0,0 0,-0.09336 -0.09336,-0.09336 l -0.933617,-1.213702 c -0.09336,-0.09336 -0.186723,-0.280085 -0.280085,-0.373446 l -0.280085,-0.373447 c 0,-0.09336 -0.09336,-0.09336 -0.09336,-0.186723 l -0.56017,-0.746893 c 0,0 0,-0.09336 -0.09336,-0.09336 l 0,-0.09336 -0.280085,-0.280085 -0.280085,-0.466808 -0.09336,-0.09336 -0.09336,-0.186723 c -0.09336,-0.186723 -0.280085,-0.280085 -0.373447,-0.466808 l -0.09336,-0.186724 c -0.280085,-0.373446 -0.56017,-0.746893 -0.840255,-1.120339 -1.307063,3.921189 -2.707488,8.775995 -3.080935,10.363143 0.09336,0.280085 0.186723,1.026979 0.653532,2.520765 0.09336,0.466808 0.186723,0.933617 0.186723,1.400425 0,0.933617 0,2.80085 -0.56017,4.761444 0,0.09336 0.09336,0.09336 0.09336,0.186724 0.466808,1.12034 0.56017,2.147318 0.280085,3.080934 0,0.09336 0.09336,0.09336 0.09336,0.186724 1.68051,0.653531 2.80085,2.240679 2.894212,4.014551 0.09336,1.493786 0.373446,2.987573 0.840255,4.481359 0.09336,0.186724 0.09336,0.373447 0.09336,0.56017 0.09336,0.186724 0.186724,0.280085 0.186724,0.466809 0.280085,0.933616 0.746893,1.773871 1.120339,2.614126 l 0.280085,0.56017 c 0.09336,0.186723 0.186724,0.280085 0.280085,0.466808 0.56017,1.12034 1.307064,2.147318 2.147318,3.174297 0.09336,0.186723 0.186724,0.280084 0.280085,0.466808 0.186724,0.09336 0.280085,0.280085 0.373447,0.466808 2.427403,2.894211 5.321614,5.228253 8.495911,6.722039 1.12034,0.56017 2.053956,1.587148 2.427403,2.707488 0.373446,1.12034 0.280085,2.520765 -0.280085,3.641105 l -0.09336,0.09336 c 0.09336,0.466808 0.186724,0.933616 0.186724,1.400424 0,1.867234 -1.12034,3.454382 -2.707489,4.201275 -0.466808,0.186723 -0.933616,0.373447 -1.400424,0.653532 -1.213702,0.560169 -2.614127,1.213701 -4.387998,2.053956 -5.228253,2.520765 -5.695061,5.975146 -6.441954,13.444078 l -0.09336,0.840255 c -1.587148,16.991825 -5.508338,20.166115 -14.284333,25.674455 -1.773872,1.12034 -3.734467,2.33404 -5.975146,3.92119 -0.653532,0.46681 -1.400425,0.74689 -2.147319,0.84026 -0.653531,0.0934 -1.307063,0.18672 -2.147318,0.4668 -0.09336,0 -0.186723,0.0934 -0.280085,0.0934 0.466809,0.4668 0.746894,1.02697 1.026979,1.6805 0.653531,1.86724 0,3.92119 -1.493787,5.1349 -2.614126,2.05395 -3.454381,3.82782 -3.361019,4.76144 0.09336,1.12034 1.587148,2.52077 3.921189,3.73447 0.186723,0.0934 0.466808,0.18672 0.746893,0.28008 0.373447,0.0934 0.746894,0.28009 0.933617,0.37345 2.053956,0.84025 4.854806,1.30706 8.775996,1.30706 3.734466,0 7.93574,-0.37345 11.950292,-0.74689 2.147318,-0.18673 4.201274,-0.37345 6.25523,-0.56017 1.026979,-0.0934 2.147319,-0.0934 3.080935,-0.0934 2.987573,0 5.321614,0.28008 7.375571,0.56017 1.587148,0.18672 3.080935,0.37344 4.761444,0.4668 0.56017,0 1.213702,0 1.867234,-0.0934 l 1.120339,0 c 0.653532,0.0934 1.213702,0.0934 1.867233,0.0934 1.68051,-0.0934 3.174297,-0.28008 4.761445,-0.4668 1.867233,0.0934 4.201274,-0.18673 7.188847,-0.18673 z"
     inkscape:connector-curvature="0" />
  <path
     style="fill-rule:evenodd"
     inkscape:connector-curvature="0"
     d="m 65.180939,147.56259 c 0.933617,0.0934 1.773872,0.0934 2.520765,0.0934 5.134891,-0.18672 8.029103,-1.40043 14.751142,-0.93362 9.61625,0.65353 21.846624,2.80085 29.035474,-0.28008 0.46681,-0.18673 1.58715,-0.65353 1.9606,-0.84026 4.38799,-2.24068 6.25523,-4.66808 6.25523,-7.37557 0.0934,-2.52076 -3.08094,-7.18885 -5.69506,-9.80297 1.86723,-2.05396 0.74689,-7.00213 -2.33405,-5.88179 C 97.857519,112.08516 93.002713,114.97937 91.13548,94.71989 90.481948,87.064235 90.201863,80.528919 81.986038,76.607729 72.929957,72.219731 72.55651,73.526795 68.075151,65.591054 c -1.026978,0.933616 -2.053957,1.773871 -2.987573,2.520765 -0.933617,-0.840255 -1.960595,-1.68051 -2.987573,-2.520765 -4.574721,8.029102 -4.948168,6.722039 -14.004249,11.016675 -8.122464,3.92119 -8.402549,10.456506 -9.149442,18.112161 -1.867233,20.25948 -6.722039,17.36527 -20.632926,27.82177 -1.307063,2.14732 -4.201274,1.77388 -5.134891,3.08094 -0.653532,1.02698 1.400425,2.61412 2.24068,3.54774 -7.095486,5.50834 -7.2822093,12.04366 1.213701,16.33829 0.373447,0.18672 1.493787,0.56017 1.960595,0.84026 7.282209,3.08093 19.419225,0.93361 29.035475,0.28008 6.628678,-0.46681 9.616251,0.84026 14.751142,0.93362 1.026978,0.0934 1.867233,0.0934 2.800849,0 z M 45.014822,124.50226 c -0.56017,-0.28009 -11.016676,-2.14732 -11.950292,-2.24068 10.456505,-5.69506 12.137015,-10.54987 14.844503,-21.28646 4.668083,9.24281 -2.334041,17.64535 -2.894211,23.52714 z m 40.238874,0 c 0.560169,-0.28009 11.016675,-2.14732 11.950291,-2.24068 -10.456505,-5.69506 -12.137015,-10.54987 -14.844503,-21.28646 -7.562294,9.05608 4.294636,18.76569 2.894212,23.52714 z"
     id="path1145" />
  <path
     style="fill:#ff0000"
     inkscape:connector-curvature="0"
     d="m 55.377966,68.671988 c 2.894211,1.493787 6.255231,2.24068 9.989697,2.334042 3.827828,0.09336 8.029102,-0.466808 12.603823,-1.68051 l 1.307064,5.041529 c -5.04153,1.307064 -9.709613,1.960595 -14.097611,1.867234 -4.481359,-0.09336 -8.589272,-1.026979 -12.230376,-2.894212 l 2.427403,-4.668083 z"
     id="path1147" />
  <g
     style="fill-rule:evenodd"
     id="g13"
     transform="matrix(0.93361656,0,0,0.93361656,-239.90628,-407.29507)">
    <path
       inkscape:connector-curvature="0"
       d="m 297.38,485.81 c 0.7,13.2 13.5,28.2 29.5,28.5 16.6,0.3 30.3,-15.4 30.5,-28.9 l 0,-0.2 c 3.6,4.3 8.1,2.9 8.4,2.6 -2.5,0.1 -5.1,-3.5 -5.1,-4.9 2.1,1.7 4.8,1.8 5.1,1.4 0,-0.1 -2.2,-1.3 -3,-2.2 -3.5,-4.1 -1.6,-1.4 2.2,-0.6 -3.5,-1.8 -4,-5.5 -4.1,-8.4 0.6,-1.8 1,-3.3 0.9,-3.9 -0.2,-2.3 -4.9,-20.2 -6.2,-20.2 -0.6,0.1 -3.4,3.3 -6.5,7 -0.9,1.1 -1.9,2.3 -2.8,3.4 l -0.3,0.4 -0.3,0.4 -0.3,0.3 -0.1,0.1 -0.5,0.7 -0.1,0.1 -0.2,0.2 -0.1,0.2 -0.1,0.2 -0.2,0.2 -0.1,0.1 -0.2,0.3 -0.1,0.1 -0.2,0.3 -0.1,0.1 -0.2,0.3 -0.3,0.3 -0.2,0.3 -0.1,0 -0.2,0.3 -0.1,0.1 -0.2,0.2 -0.1,0.1 -0.1,0.2 -0.1,0.1 -0.1,0.1 -0.1,0.1 -0.1,0.1 -0.1,0.2 -0.1,0.1 -0.1,0.2 -0.1,0.1 -0.1,0.2 -0.2,0.2 -0.1,0.2 -0.1,0.1 -0.1,0.1 0,0.1 -0.1,0.1 -0.1,0.1 0,0.1 0,0.1 -0.1,0.1 c -3.8,-0.9 -8,-1.4 -12.4,-1.5 -4.5,-0.1 -8.7,0.3 -12.5,1.1 l 0,-0.1 0,-0.1 -0.3,-0.3 -0.1,-0.1 0,-0.1 -0.1,-0.1 -0.3,-0.4 c -0.5,-0.7 -1.3,-1.8 -2.2,-3 l 0,-0.1 -0.2,-0.3 -0.7,-0.9 -0.1,-0.2 -0.3,-0.4 -0.2,-0.3 -0.1,-0.1 -0.9,-1.1 -0.3,-0.4 -0.3,-0.4 -0.1,-0.1 -0.3,-0.3 -0.6,-0.8 -0.1,-0.2 -0.2,-0.2 -0.3,-0.4 -0.2,-0.3 -0.1,-0.1 -0.3,-0.3 -0.1,-0.1 -0.3,-0.4 c -3,-3.8 -5.7,-7.2 -6.2,-7.2 -1.3,-0.1 -6.7,17.6 -6.9,19.9 -0.1,0.8 0.3,2.5 0.9,4.5 0,2.9 -0.3,7.1 -4.1,9 3.8,-0.8 5.7,-3.5 2.2,0.6 -0.8,1 -3,2.2 -3,2.2 -0.3,0.3 3,0.3 5.1,-1.4 0,1.4 -2.6,5 -5.1,4.9 -0.6,0 4.3,1.6 7.9,-2 z"
       id="path1149" />
    <path
       style="fill:#fa8973"
       inkscape:connector-curvature="0"
       d="m 301.58,453.31 c -0.9,-0.1 -4.5,11.9 -4.7,13.5 -0.2,1.6 2.9,9.6 2.9,9.6 l 8.8,-7.7 -7,-15.4 z"
       id="path1151" />
    <path
       style="fill:#6c6c6c"
       inkscape:connector-curvature="0"
       d="m 326.78,510.01 0.1,0 c 18.5,0.6 30.6,-21.5 23.2,-31.7 -3.9,-5.4 -13,-8.5 -23,-1 -9.8,-7.9 -18.3,-5.1 -22.4,0.2 -7.5,9.9 3.8,32.4 22.1,32.5 z"
       id="path1153" />
  </g>
  <path
     inkscape:connector-curvature="0"
     d="m 65.461024,60.922971 c -0.933616,0.653532 -2.240679,0.933617 -3.641104,1.026978 -1.960595,0.09336 -4.201275,-0.186723 -4.294636,-2.614126 0,-0.373447 0.280085,-0.653532 0.653531,-0.653532 0.373447,0 0.653532,0.280085 0.653532,0.653532 0.09336,1.587148 1.68051,1.587148 3.080935,1.493786 1.307063,-0.186723 2.240679,-0.373446 2.894211,-0.840255 l 0,-1.307063 0,-1.026978 0.653531,0 0.653532,0 0,1.026978 0,1.307063 c 0.653532,0.466809 1.68051,0.746894 2.894211,0.840255 1.400425,0.186724 3.080935,0.186724 3.080935,-1.493786 0,-0.373447 0.280085,-0.653532 0.653532,-0.653532 0.373446,0 0.653531,0.280085 0.653531,0.653532 -0.09336,2.427403 -2.334041,2.80085 -4.294636,2.614126 -1.493786,-0.09336 -2.707488,-0.373446 -3.641105,-1.026978 z"
     id="path1155" />
  <path
     style="fill:#fa8973;fill-rule:evenodd"
     inkscape:connector-curvature="0"
     d="m 90.855395,16.016014 c 0.840255,0 3.267658,11.390123 3.267658,12.883909 0.09336,1.493786 -3.36102,8.682634 -3.36102,8.682634 l -7.655656,-7.842379 7.749018,-13.724164 z"
     id="path1157" />
  <path
     style="fill:#b2b2b2"
     inkscape:connector-curvature="0"
     d="m 94.869946,53.5474 -0.466808,0.09336 C 87.681099,51.586805 80.398889,54.66774 76.851146,56.628335 l -0.840254,-0.280085 0.09336,-0.840255 C 79.558635,53.5474 88.147907,50.093019 94.496499,52.42706 l 0.466809,0.653532 -0.09336,0.466808 z m 2.894211,6.161869 c -0.746893,0.56017 -2.240679,-1.773871 -9.149442,-2.427403 -8.495911,-0.840254 -10.73659,1.68051 -11.203399,0.09336 l 0,-0.373447 0.373447,-0.280085 c 4.48136,-1.120339 13.257355,-1.680509 19.699309,1.867234 0.56017,0.280085 0.653532,0.933616 0.280085,1.120339 z m -7.37557,4.107913 -0.466809,0.09336 c -0.09336,0 -0.186723,-0.09336 -0.280085,-0.09336 -4.014551,-2.334041 -7.188847,-3.641104 -12.043653,-3.641104 -0.186724,0 -0.373447,-0.09336 -0.466809,-0.186724 -0.373446,-0.466808 -0.09336,-1.120339 0.466809,-1.120339 4.481359,0 9.05608,1.400424 12.790547,3.921189 0.09336,0.09336 0.280085,0.280085 0.280085,0.466808 0,0.186724 0,0.373447 -0.09336,0.466809 l -0.186723,0.09336 z"
     id="path1159" />
  <path
     style="fill:#b2b2b2"
     inkscape:connector-curvature="0"
     d="m 36.425549,53.5474 0.466809,0.09336 c 6.722039,-2.053957 14.004248,1.026978 17.551991,2.987573 L 55.284604,56.34825 55.097881,55.507995 C 51.643499,53.5474 43.054227,50.093019 36.705634,52.42706 l -0.466808,0.653532 0.186723,0.466808 z M 33.6247,59.709269 c 0.746893,0.56017 2.240679,-1.773871 9.149442,-2.427403 8.495911,-0.840254 10.73659,1.68051 11.203399,0.09336 l 0,-0.373447 -0.280085,-0.280085 c -4.48136,-1.120339 -13.257355,-1.680509 -19.792671,1.867234 -0.56017,0.280085 -0.653532,0.933616 -0.280085,1.120339 z m 7.375571,4.107913 0.466808,0.09336 c 0.09336,0 0.186723,-0.09336 0.280085,-0.09336 4.014551,-2.334041 7.188847,-3.641104 12.043653,-3.641104 0.186724,0 0.373447,-0.09336 0.466809,-0.186724 0.466808,-0.466808 0.09336,-1.120339 -0.466809,-1.120339 -4.481359,0 -9.05608,1.400424 -12.790546,3.921189 -0.186724,0.09336 -0.280085,0.280085 -0.280085,0.466808 0,0.186724 0,0.373447 0.09336,0.466809 l 0.186724,0.09336 z"
     id="path1161" />
  <path
     inkscape:connector-curvature="0"
     d="m 65.461024,53.080592 c 0.466809,-0.840255 0.933617,-1.213702 1.960595,-1.213702 1.026978,0 1.960595,0.746894 1.960595,1.68051 0,1.68051 -1.960595,3.36102 -3.92119,5.04153 -1.960594,-1.68051 -3.921189,-3.36102 -3.921189,-5.04153 0,-0.933616 0.840255,-1.68051 1.960595,-1.68051 1.026978,0 1.493786,0.373447 1.960594,1.213702 z"
     id="path1163" />
  <path
     style="fill-rule:evenodd"
     inkscape:connector-curvature="0"
     d="m 101.96543,58.682291 c -0.74689,-0.933616 -2.334039,-1.68051 -3.361018,-1.12034 -3.547743,1.773872 -4.387998,7.28221 -4.668082,11.483484 -1.68051,25.207647 -11.576846,50.041845 -12.043654,55.736905 -0.09336,1.12034 0.653531,1.86724 1.587148,1.68051 3.827828,-1.02697 15.311312,-25.58109 19.886036,-56.203713 0.65353,-3.827828 0.46681,-9.056081 -1.40043,-11.576846 z"
     id="path1165" />
  <path
     inkscape:connector-curvature="0"
     d="m 70.969362,48.132424 c -0.280085,0.280085 -0.653531,0.280085 -0.933616,0.09336 -0.280085,-0.186724 -0.280085,-0.653532 -0.09336,-0.933617 0.373447,-0.466808 0.933616,-0.933616 1.493786,-1.307063 1.493787,-1.026978 3.454382,-1.68051 5.508338,-1.68051 2.053957,0 4.014551,0.56017 5.695061,1.960595 0.466808,0.466808 0.933617,0.933617 1.400425,1.493787 0.186723,0.280084 0.09336,0.653531 -0.186723,0.933616 -0.280085,0.186723 -0.653532,0.09336 -0.933617,-0.186723 -0.373447,-0.466809 -0.746893,-0.933617 -1.12034,-1.307063 -1.307063,-1.12034 -3.080934,-1.68051 -4.854806,-1.68051 -1.68051,0 -3.454381,0.56017 -4.761444,1.493786 -0.466809,0.373447 -0.840255,0.746894 -1.213702,1.12034 z"
     id="path1167" />
  <path
     inkscape:connector-curvature="0"
     d="m 60.979665,47.292169 c 0.280085,0.280085 0.186723,0.653532 -0.09336,0.933617 -0.280085,0.280085 -0.653531,0.186723 -0.933616,-0.09336 -0.373447,-0.373446 -0.746894,-0.746893 -1.213702,-1.12034 -1.307063,-0.933616 -3.080934,-1.493786 -4.761444,-1.493786 -1.68051,0 -3.454382,0.466808 -4.854806,1.68051 -0.466809,0.373446 -0.840255,0.746893 -1.12034,1.307063 -0.186724,0.280085 -0.653532,0.373446 -0.933617,0.186723 -0.280085,-0.186723 -0.373446,-0.653532 -0.186723,-0.933616 0.373447,-0.653532 0.840255,-1.12034 1.400425,-1.493787 1.587148,-1.400425 3.641104,-1.960595 5.695061,-1.960595 2.053956,0 4.014551,0.653532 5.508337,1.68051 0.56017,0.373447 1.026979,0.840255 1.493787,1.307063 z"
     id="path1169" />
  <path
     style="fill:#6c6c6c;fill-rule:evenodd"
     inkscape:connector-curvature="0"
     d="m 119.98423,127.39647 c 0.56017,-1.96059 -2.24068,-4.57472 -6.16187,-5.88178 -4.01455,-1.30707 -7.65565,-0.7469 -8.21582,1.12034 -0.56017,1.86723 2.24068,4.57472 6.16187,5.88178 3.92119,1.40042 7.65565,0.84025 8.21582,-1.12034 z"
     id="path1171" />
  <g
     style="fill:#fa8973;fill-rule:evenodd"
     id="g27"
     transform="matrix(0.93361656,0,0,0.93361656,-239.90628,-407.29507)">
    <path
       inkscape:connector-curvature="0"
       d="m 377.08,567.71 c -1.8,-0.4 -3.4,0.2 -3.5,1.4 -0.1,1.2 1.4,2.5 3.2,2.9 1.8,0.4 3.4,-0.2 3.5,-1.4 0.1,-1.2 -1.3,-2.5 -3.2,-2.9 z"
       id="path1173" />
    <path
       inkscape:connector-curvature="0"
       d="m 380.78,572.31 c -0.6,-0.2 -1.2,0 -1.3,0.5 -0.1,0.5 0.3,1 0.9,1.2 0.6,0.2 1.2,0 1.3,-0.5 0.2,-0.4 -0.3,-1 -0.9,-1.2 z"
       id="path1175" />
    <path
       inkscape:connector-curvature="0"
       d="m 381.08,569.71 c -0.6,-0.2 -1.3,-0.9 -0.9,-1.2 0.4,-0.3 2.3,0.1 2.2,0.9 -0.1,0.4 -0.7,0.5 -1.3,0.3 z"
       id="path1177" />
    <path
       inkscape:connector-curvature="0"
       d="m 382.38,570.31 c -0.7,-0.2 -1.4,0 -1.5,0.6 -0.1,0.6 0.4,1.2 1.1,1.4 0.7,0.2 1.4,0 1.5,-0.6 0.1,-0.5 -0.3,-1.2 -1.1,-1.4 z"
       id="path1179" />
  </g>
  <path
     style="fill:#6c6c6c;fill-rule:evenodd"
     inkscape:connector-curvature="0"
     d="m 11.591349,127.39647 c -0.56017,-1.96059 2.24068,-4.57472 6.161869,-5.88178 4.014551,-1.30707 7.655656,-0.7469 8.215826,1.12034 0.56017,1.86723 -2.24068,4.57472 -6.161869,5.88178 -4.014552,1.40042 -7.749018,0.84025 -8.215826,-1.12034 z"
     id="path1181" />
  <g
     style="fill:#fa8973;fill-rule:evenodd"
     id="g34"
     transform="matrix(0.93361656,0,0,0.93361656,-239.90628,-407.29507)">
    <path
       inkscape:connector-curvature="0"
       d="m 277.68,567.71 c 1.8,-0.4 3.4,0.2 3.5,1.4 0.1,1.2 -1.4,2.5 -3.2,2.9 -1.8,0.4 -3.4,-0.2 -3.5,-1.4 -0.1,-1.2 1.4,-2.5 3.2,-2.9 z"
       id="path1183" />
    <path
       inkscape:connector-curvature="0"
       d="m 273.98,572.31 c 0.6,-0.2 1.2,0 1.3,0.5 0.1,0.5 -0.3,1 -0.9,1.2 -0.6,0.2 -1.2,0 -1.3,-0.5 -0.1,-0.4 0.3,-1 0.9,-1.2 z"
       id="path1185" />
    <path
       inkscape:connector-curvature="0"
       d="m 273.68,569.71 c 0.6,-0.2 1.3,-0.9 0.9,-1.2 -0.4,-0.3 -2.3,0.1 -2.2,0.9 0.1,0.4 0.7,0.5 1.3,0.3 z"
       id="path1187" />
    <path
       inkscape:connector-curvature="0"
       d="m 272.38,570.31 c 0.7,-0.2 1.4,0 1.5,0.6 0.1,0.6 -0.4,1.2 -1.1,1.4 -0.7,0.2 -1.4,0 -1.5,-0.6 -0.1,-0.5 0.4,-1.2 1.1,-1.4 z"
       id="path1189" />
  </g>
  <g
     style="fill-rule:evenodd"
     id="g40"
     transform="matrix(0.93361656,0,0,0.93361656,-239.90628,-407.29507)">
    <path
       inkscape:connector-curvature="0"
       d="m 344.78,485.61 c 1,-0.1 4,-0.3 4.8,-1.9 -0.8,2.8 -4.2,2.6 -4.6,2.6 l -0.2,-0.7 z"
       id="path1191" />
    <path
       inkscape:connector-curvature="0"
       d="m 345.88,486.21 c 1,0 4,0.1 4.9,-1.5 -1,2.7 -4.4,2.2 -4.8,2.2 l -0.1,-0.7 z"
       id="path1193" />
    <path
       inkscape:connector-curvature="0"
       d="m 343.18,485.31 c 0.9,-0.2 4,-0.6 4.6,-2.3 -0.6,2.8 -4,2.9 -4.5,2.9 l -0.1,-0.6 z"
       id="path1195" />
    <path
       inkscape:connector-curvature="0"
       d="m 309.48,485.61 c -1,-0.1 -4,-0.3 -4.8,-1.9 0.8,2.8 4.2,2.6 4.6,2.6 l 0.2,-0.7 z"
       id="path1197" />
    <path
       inkscape:connector-curvature="0"
       d="m 308.48,486.21 c -1,0 -4,0.1 -4.9,-1.5 1,2.7 4.4,2.2 4.8,2.2 l 0.1,-0.7 z"
       id="path1199" />
    <path
       inkscape:connector-curvature="0"
       d="m 311.08,485.31 c -0.9,-0.2 -4,-0.6 -4.7,-2.3 0.6,2.8 4.1,2.9 4.5,2.9 l 0.2,-0.6 z"
       id="path1201" />
  </g>
</svg>
