<?xml version="1.0" encoding="UTF-8" standalone="no"?>
<!-- Created with Inkscape (http://www.inkscape.org/) -->

<svg
   xmlns:dc="http://purl.org/dc/elements/1.1/"
   xmlns:cc="http://creativecommons.org/ns#"
   xmlns:rdf="http://www.w3.org/1999/02/22-rdf-syntax-ns#"
   xmlns:svg="http://www.w3.org/2000/svg"
   xmlns="http://www.w3.org/2000/svg"
   xmlns:sodipodi="http://sodipodi.sourceforge.net/DTD/sodipodi-0.dtd"
   xmlns:inkscape="http://www.inkscape.org/namespaces/inkscape"
   id="svg6018"
   height="48mm"
   width="37mm"
   version="1.1"
   viewBox="0 0 131.10236 170.07873"
   inkscape:version="0.91 r13725"
   sodipodi:docname="cat_6.svg">
  <defs
     id="defs203" />
  <sodipodi:namedview
     pagecolor="#ffffff"
     bordercolor="#666666"
     borderopacity="1"
     objecttolerance="10"
     gridtolerance="10"
     guidetolerance="10"
     inkscape:pageopacity="0"
     inkscape:pageshadow="2"
     inkscape:window-width="1509"
     inkscape:window-height="855"
     id="namedview201"
     showgrid="false"
     inkscape:zoom="1.3875926"
     inkscape:cx="-180.19819"
     inkscape:cy="85.03937"
     inkscape:window-x="0"
     inkscape:window-y="0"
     inkscape:window-maximized="0"
     inkscape:current-layer="svg6018" />
  <metadata
     id="metadata6023">
    <rdf:RDF>
      <cc:Work
         rdf:about="">
        <dc:format>image/svg+xml</dc:format>
        <dc:type
           rdf:resource="http://purl.org/dc/dcmitype/StillImage" />
        <dc:title />
      </cc:Work>
    </rdf:RDF>
  </metadata>
  <g
     style="fill:#676766"
     transform="matrix(0.92269825,0,0,0.92269825,-584.34542,-300.0514)"
     id="g449">
    <path
       style="fill-rule:evenodd"
       inkscape:connector-curvature="0"
       d="m 723.1,455.2 c 7.5,0 13.9,4.6 16.6,11.1 0.2,-3.4 3.3,-6.1 7.1,-6.1 3.9,0 7.1,2.8 7.1,6.4 0,2.2 -1.2,4.1 -3,5.2 2,-1 3.7,-2.5 4.9,-5.2 1.9,-4.1 0.7,-7.6 -3.4,-7.5 -5,0.2 -10.1,-4.1 -6.3,-7.3 11.3,-9.5 24.9,8 15.6,20.6 -4.9,6.7 -14.3,7.8 -22.2,8.1 -2.8,6.4 -9.2,10.9 -16.6,10.9 -5.2,0 -9.9,-2.2 -13.2,-5.7 -4.7,-0.5 -10.1,-0.8 -14.4,-0.3 3.6,2.7 1.6,8.3 -5.7,7.4 -3.5,-0.5 -5.2,-4.5 -2.5,-6.8 l -3.1,0 c -9.1,0.4 -13.9,5.4 -22.1,5.9 -1.8,1.5 -4.7,2.7 -7.6,2.5 -8.6,-0.4 -11.5,-8.2 -2.1,-14.1 5.7,-3.6 13.4,-6.6 16.6,-7.9 l 1.7,-0.7 c -2,-3.1 -3.2,-7.1 -2.8,-12.2 0.7,-9.8 7.7,-26.8 13.3,-40.9 l 1,-4 c -5.4,0.2 -5,-5.4 -2.5,-12.1 -2.9,-1.8 -5.6,-4.1 -7.8,-6.7 l -2,1.1 c -0.4,0.3 -1.3,0 -1.2,-0.8 0.1,-0.5 1.5,-1.2 2.1,-1.5 -1.2,-1.5 -2.2,-3 -3.1,-4.6 -5.2,1 -6.5,2.8 -7.3,2.2 -0.4,-0.2 -0.3,-0.9 0.2,-1.2 2,-1 4.2,-1.8 6.4,-2.3 -0.6,-1.2 -1.2,-2.5 -1.6,-3.7 -1.1,0.3 -0.8,0.3 -1.6,0.2 l -0.3,-0.5 c 0.7,-0.9 0.4,-0.7 1.1,-0.9 -14.5,-4.4 -6.2,-15.6 -5.1,-25.6 0.2,-2.4 5.9,-21.1 7.3,-20.9 0.9,0.1 10.2,12.2 14.1,17.5 0.9,0.1 2.2,0.5 2.5,2 3.7,-0.7 7.9,-1 12.2,-1 3.5,0.1 7,0.4 10.1,1 1.1,-0.7 2.2,0 2.6,0.5 l 0.4,0.1 c 3.2,-4 15,-19 16.3,-19.1 1.4,-0.1 6.4,18.7 6.6,21.2 0,0.7 -0.4,2.3 -1,4.1 0.1,3 0.6,6.9 4.3,8.8 -4,-0.9 -6,-3.7 -2.3,0.7 0.9,1 3.1,2.3 3.2,2.3 -0.3,0.4 -3.1,0.3 -5.4,-1.4 0,1.5 2.7,5.3 5.4,5.2 -0.3,0.3 -5,1.8 -8.9,-2.7 0.7,1.1 -0.1,2 -0.1,2 -0.2,1.9 -0.6,3.8 -1.2,5.7 l 0.4,0.6 -0.3,0.5 -0.6,0.1 c -0.5,1.2 -1,2.5 -1.7,3.7 1.9,0.5 3.7,1.1 5.4,2 0.5,0.3 0.6,1 0.2,1.2 -0.7,0.5 -2,-1 -6.3,-2 -1,1.7 -2.1,3.3 -3.4,4.8 0.5,0.3 1.3,0.7 1.4,1.1 0.1,0.8 -0.8,1 -1.2,0.8 l -1.2,-0.7 c -2.9,3.1 -6.3,5.8 -10.2,7.8 l 1,3.6 c -0.5,0.2 -1.1,0.4 -1.6,0.5 l 2.6,10 c 4.8,12.4 11.1,27 12.9,37.2 0.1,-0.2 0.2,-0.2 0.3,-0.2 z m 17.8,14.8 c 0.2,1.3 0.3,2.7 0.3,4.1 1.2,-0.1 2.3,-0.3 3.5,-0.5 1,-0.2 2,-0.4 2.9,-0.6 -0.3,0 -0.5,0.1 -0.7,0.1 -2.6,-0.1 -4.8,-1.3 -6,-3.1 z"
       id="path451" />
    <path
       inkscape:connector-curvature="0"
       d="m 654.8,500.4 -0.8,0 c -6.6,-0.3 -11.8,-3.9 -13.3,-9.3 -1.5,-5.8 1.6,-11.7 8.3,-16 4.3,-2.7 9.6,-5.1 13.6,-6.7 -0.8,-2.9 -1.1,-6.1 -0.8,-9.4 0.7,-9.9 6.6,-24.7 12.2,-39 l 0.8,-2.1 c -0.5,-0.5 -0.9,-1 -1.2,-1.4 -2.4,-3.4 -2.1,-7.8 -1.1,-11.8 -0.8,-0.6 -1.5,-1.3 -2.2,-1.9 -0.3,0 -0.6,0.1 -0.9,0.1 -2.1,0 -4,-0.9 -5.3,-2.5 -0.6,-0.7 -1.1,-1.6 -1.3,-2.5 -0.6,0.2 -1.4,0.3 -2.2,0.3 -1.3,0 -2.5,-0.4 -3.6,-1.1 -1.9,-1.2 -3,-3.4 -3,-5.7 0.1,-1.9 0.9,-3.7 2.3,-4.9 -9,-6.1 -6.1,-16.5 -4.4,-22.5 0.7,-2.4 1.3,-4.6 1.5,-6.6 0.3,-2.8 3.4,-12.5 3.4,-12.6 3,-9.3 4.7,-13.7 9.8,-13.7 l 0.6,0 c 2.5,0.2 3.9,0.4 17.2,18.3 0.4,0.2 0.8,0.4 1.2,0.7 3,-0.4 6.4,-0.6 9.9,-0.5 3.3,0.1 6.5,0.3 9.6,0.8 0.4,-0.1 0.8,-0.1 1.2,-0.1 14.2,-17.9 15.1,-18 18,-18.2 l 0.2,0 0.2,0 c 5.5,0 7.1,5.6 9.5,14 0,0.1 2.8,9.8 3,12.8 l 0,0.2 c 0,1 -0.1,2.3 -0.9,5.2 0.2,2.3 0.8,2.6 1,2.8 1.9,1 3.1,3 3.2,5.1 1,1.5 1.2,3.4 0.6,5.1 0.7,2.2 0.1,4.7 -1.7,6.3 -2,1.9 -5.2,2.1 -6.5,2.1 -0.5,0 -1,0 -1.5,-0.1 l 0,0.3 c 2,1.2 3.3,3.3 3.4,5.6 0.1,2.3 -1,4.5 -2.9,5.8 -1.1,0.7 -2.3,1.1 -3.6,1.1 -0.8,0 -1.6,-0.1 -2.2,-0.4 -0.2,0.9 -0.7,1.8 -1.3,2.6 -1.3,1.5 -3.1,2.4 -5.2,2.5 -1.5,1.4 -3.2,2.7 -4.9,3.9 0.2,1.3 -0.1,2.6 -0.7,3.7 l 1.5,5.8 c 0.8,2 1.6,4.1 2.5,6.2 3.7,9.4 7.6,19.1 9.7,27.3 4.2,0.8 8.1,2.7 11.2,5.5 -0.3,-2.9 0.9,-5.8 3.4,-7.9 3.2,-2.7 6.9,-4.1 10.7,-4.1 6.3,0 12.3,4 15.5,10.3 3.7,7.2 3,15.8 -1.9,22.4 -6,8.2 -16.6,9.9 -23.3,10.4 -4.4,6.8 -12,11.1 -20.2,11.1 -5.8,0 -11.5,-2.1 -15.8,-5.9 -1.5,-0.1 -3,-0.2 -4.4,-0.3 0,0.2 -0.1,0.3 -0.2,0.5 -1.2,3.5 -4.8,7.2 -11.4,7.2 -0.8,0 -1.5,-0.1 -2.3,-0.2 -3.7,-0.5 -6.9,-2.9 -8.3,-6.2 -2.2,0.5 -4.1,1.3 -6.3,2.2 -3,1.2 -6.3,2.6 -10.4,3.1 -2.7,1.3 -6,2.3 -9.2,2.3 z M 652.5,488 c 0.4,0.2 1,0.4 2,0.4 l 0.2,0 c 1.3,0 2.6,-0.6 3.3,-1.2 1,-0.8 2.2,-1.3 3.4,-1.3 3,-0.2 5.5,-1.2 8.5,-2.4 3.7,-1.5 8,-3.2 13.7,-3.5 l 0.2,0 3.4,-0.1 c 1.4,0 2.8,0.5 3.9,1.3 1,-1.1 2.3,-1.7 3.8,-1.9 4.3,-0.5 10.1,-0.3 15.7,0.3 1.4,0.2 2.7,0.8 3.7,1.9 2.3,2.4 5.4,3.8 8.8,3.8 4.8,0 9.2,-2.9 11.1,-7.3 0.3,-0.7 0.8,-1.4 1.4,-1.9 -0.3,-0.7 -0.4,-1.5 -0.4,-2.3 0,-0.9 0,-1.8 -0.2,-2.8 -0.1,-0.4 -0.1,-0.8 -0.1,-1.2 -0.3,-0.4 -0.5,-0.8 -0.7,-1.2 -1.9,-4.5 -6.2,-7.4 -11.1,-7.4 l -0.3,0 c -2.9,0 -5.4,-2.1 -5.9,-4.9 -1.4,-7.9 -6,-19.3 -10,-29.5 -0.9,-2.3 -1.8,-4.5 -2.6,-6.6 -0.1,-0.2 -0.2,-0.5 -0.2,-0.7 l -2.6,-10 c -0.4,-1.5 -0.2,-3 0.5,-4.3 -0.6,-2.7 0.7,-5.4 3.2,-6.6 3.1,-1.5 6,-3.8 8.4,-6.4 0.1,-0.2 0.3,-0.3 0.4,-0.4 0.1,-0.2 0.3,-0.4 0.4,-0.6 1.1,-1.3 2,-2.6 2.8,-4 0.1,-0.1 0.2,-0.3 0.3,-0.4 l 0.3,-0.6 c 0.5,-0.9 1,-1.9 1.4,-3 0.1,-0.1 0.1,-0.3 0.2,-0.4 0,-0.1 0.1,-0.3 0.1,-0.4 0.5,-1.5 0.8,-3 1,-4.5 0,-0.2 0.1,-0.5 0.1,-0.7 -0.2,-2.1 0.6,-4.2 2.4,-5.5 0.4,-0.3 0.9,-0.5 1.3,-0.7 0,-0.8 0.1,-1.7 0.5,-2.6 -0.3,-1.4 -0.5,-2.9 -0.5,-4.6 0,-0.7 0.1,-1.3 0.3,-2 0.4,-1.2 0.6,-1.9 0.6,-2.2 -0.3,-1.8 -1.5,-6.2 -2.6,-10.2 -2.2,2.6 -5.2,6.4 -9.5,11.8 -1.4,1.8 -3.8,2.6 -6.1,2.1 l -0.4,-0.1 c -0.4,-0.1 -0.8,-0.2 -1.1,-0.4 -0.4,0 -0.7,0 -1.1,-0.1 -3,-0.5 -6,-0.8 -9.2,-0.9 l -1,0 c -3.7,0 -7.1,0.3 -9.9,0.9 -1.6,0.3 -3.2,0 -4.5,-0.9 -0.6,-0.4 -1.1,-0.9 -1.5,-1.4 -1,-0.4 -1.8,-1.1 -2.5,-2 -2.2,-3 -5.1,-6.8 -7.6,-9.9 -1.4,4.3 -2.8,9 -3,10.5 -0.3,3 -1.1,5.8 -1.9,8.5 -2.5,8.8 -2,9.3 2.7,10.7 1.7,0.5 3,1.7 3.7,3.3 0.4,0.5 0.7,1 0.9,1.6 0.3,0.9 0.8,1.9 1.3,3 0.1,0.1 0.1,0.3 0.2,0.4 0.1,0.2 0.2,0.4 0.3,0.5 0.7,1.3 1.6,2.6 2.6,3.8 0.1,0.2 0.3,0.4 0.4,0.6 l 0.5,0.5 c 1.9,2.2 4,4 6.5,5.6 2.4,1.5 3.4,4.5 2.4,7.1 -0.7,2 -1.1,3.4 -1.3,4.4 1.1,0.4 2,1 2.7,1.9 1.2,1.5 1.7,3.4 1.2,5.3 l -1,4 c -0.1,0.2 -0.1,0.5 -0.2,0.7 l -1.5,3.7 c -4.8,12.2 -10.8,27.4 -11.4,35.4 -0.2,3.5 0.4,6.3 1.8,8.5 1,1.5 1.2,3.3 0.7,5 -0.5,1.7 -1.8,3.1 -3.4,3.8 l -2,0.8 c -3.1,1.2 -10.3,4.1 -15.4,7.3 -1.4,1.1 -2.2,2.1 -2.5,2.6 z m 93.3,-21.4 c 0.1,0.2 0.5,0.4 1,0.4 l 0.1,0 0.6,0 c 0.1,-0.1 0.2,-0.1 0.2,-0.2 0.1,-0.1 0.2,-0.1 0.2,-0.2 -0.1,-0.1 -0.5,-0.4 -1.1,-0.4 -0.5,0 -0.9,0.2 -1,0.4 z"
       id="path453" />
  </g>
  <path
     id="path457"
     d="m 82.857685,119.96084 c 6.920236,0 12.825505,4.24442 15.316791,10.24195 0.184539,-3.13717 3.044904,-5.62846 6.551154,-5.62846 3.59853,0 6.55116,2.58356 6.55116,5.90527 0,2.02994 -1.10724,3.78307 -2.76809,4.79803 1.84539,-0.92269 3.41398,-2.30674 4.52122,-4.79803 1.75312,-3.78306 0.64589,-7.0125 -3.13718,-6.92023 -4.61349,0.18454 -9.31925,-3.78307 -5.813,-6.7357 10.42649,-8.76563 22.97519,7.38159 14.3941,19.00758 -4.52122,6.18208 -13.19459,7.19705 -20.483904,7.47386 -2.583555,5.90527 -8.488824,10.05741 -15.316791,10.05741 -4.798031,0 -9.134713,-2.02994 -12.179617,-5.25938 -4.336682,-0.46135 -9.319252,-0.73816 -13.286855,-0.27681 3.321714,2.49129 1.476317,7.6584 -5.25938,6.82797 -3.229444,-0.46135 -4.798031,-4.15214 -2.306745,-6.27435 l -2.860365,0 c -8.396554,0.36908 -12.825506,4.98257 -20.391631,5.44392 -1.660857,1.38405 -4.336682,2.49128 -7.012507,2.30674 -7.935205,-0.36907 -10.6110299,-7.56612 -1.937666,-13.01004 5.25938,-3.32171 12.364156,-6.08981 15.316791,-7.28932 l 1.568587,-0.64589 C 32.47836,132.325 31.371122,128.63421 31.740202,123.92845 32.38609,114.886 38.844978,99.200133 44.012088,86.190087 l 0.922699,-3.690793 c -4.982571,0.18454 -4.613492,-4.98257 -2.306746,-11.164648 -2.675825,-1.660857 -5.16711,-3.783063 -7.197046,-6.182079 l -1.845397,1.014968 c -0.369079,0.27681 -1.199508,0 -1.107238,-0.738158 0.09227,-0.461349 1.384048,-1.107238 1.937666,-1.384048 -1.107237,-1.384047 -2.029936,-2.768094 -2.860364,-4.244412 -4.798031,0.922699 -5.997539,2.583556 -6.735697,2.029937 -0.36908,-0.18454 -0.27681,-0.830429 0.184539,-1.107238 1.845397,-0.922699 3.875333,-1.660857 5.905269,-2.122206 -0.553619,-1.107238 -1.107238,-2.306746 -1.476317,-3.413984 -1.014968,0.27681 -0.738159,0.27681 -1.476317,0.18454 l -0.27681,-0.461349 c 0.645889,-0.830429 0.36908,-0.645889 1.014968,-0.830429 -13.379124,-4.059872 -5.720729,-14.394092 -4.705761,-23.621075 0.18454,-2.214476 5.44392,-19.468933 6.735697,-19.284393 0.830429,0.09227 9.411523,11.256918 13.010046,16.147219 0.830428,0.09227 2.029936,0.461349 2.306745,1.845397 3.413984,-0.645889 7.289317,-0.922699 11.256919,-0.922699 3.229444,0.09227 6.458888,0.36908 9.319252,0.922699 1.014968,-0.645889 2.029937,0 2.399016,0.461349 l 0.369079,0.09227 c 2.952635,-3.690793 13.840474,-17.531267 15.039982,-17.623537 1.291777,-0.09227 5.905268,17.254457 6.089808,19.561203 0,0.645889 -0.369079,2.122206 -0.922698,3.783063 0.09227,2.768094 0.553619,6.366618 3.967602,8.119744 -3.690793,-0.830428 -5.536189,-3.413983 -2.122206,0.645889 0.830429,0.922698 2.860365,2.122206 2.952635,2.122206 -0.27681,0.369079 -2.860365,0.27681 -4.982571,-1.291777 0,1.384047 2.491285,4.8903 4.982571,4.79803 -0.27681,0.27681 -4.613492,1.660857 -8.212015,-2.491285 0.645889,1.014968 -0.09227,1.845397 -0.09227,1.845397 -0.184539,1.753126 -0.553618,3.506253 -1.107237,5.25938 l 0.369079,0.553619 -0.27681,0.461349 -0.553619,0.09227 c -0.461349,1.107237 -0.922698,2.306745 -1.568587,3.413983 1.753127,0.461349 3.413984,1.014968 4.982571,1.845397 0.461349,0.276809 0.553619,0.922698 0.18454,1.107237 -0.645889,0.46135 -1.845397,-0.922698 -5.812999,-1.845396 -0.922699,1.568587 -1.937667,3.044904 -3.137174,4.428952 0.461349,0.276809 1.199507,0.645888 1.291777,1.014968 0.09227,0.738158 -0.738158,0.922698 -1.107238,0.738158 l -1.107238,-0.645889 c -2.675825,2.860365 -5.812999,5.35165 -9.411522,7.197047 l 0.922698,3.321714 c -0.461349,0.184539 -1.014968,0.369079 -1.476317,0.461349 l 2.399016,9.226982 c 4.428951,11.441458 10.24195,24.912852 11.902807,34.324372 0.09227,-0.18454 0.18454,-0.18454 0.27681,-0.18454 z m 16.424028,13.65594 c 0.18454,1.19951 0.27681,2.49128 0.27681,3.78306 1.107237,-0.0923 2.122207,-0.27681 3.229447,-0.46135 0.9227,-0.18454 1.84539,-0.36908 2.67582,-0.55362 -0.27681,0 -0.46135,0.0923 -0.64589,0.0923 -2.39901,-0.0923 -4.42895,-1.19951 -5.536187,-2.86036 z"
     inkscape:connector-curvature="0"
     style="fill:#fefefe;fill-rule:evenodd" />
  <path
     style="fill:#fefefe"
     id="path459"
     d="m 19.837394,160.74411 -0.645889,0 c -5.812999,-0.27681 -10.1496804,-3.22945 -11.441458,-7.84294 -1.2917775,-4.8903 1.3840474,-10.05741 7.289316,-13.7482 4.244412,-2.67583 9.503792,-4.98257 13.102315,-6.45889 -0.922698,-2.7681 -1.199507,-5.90527 -1.014968,-9.22698 0.645889,-8.95018 6.274348,-23.15973 11.164649,-35.708426 l 1.014968,-2.583555 C 38.660438,84.6215 38.199089,84.067881 37.92228,83.698802 c -1.753127,-2.491285 -2.029936,-5.997538 -0.738159,-10.7033 -1.014968,-0.738158 -1.937666,-1.568587 -2.768095,-2.399015 -0.369079,0.09227 -0.738158,0.09227 -1.107237,0.09227 -1.660857,0 -3.137174,-0.738159 -4.152143,-1.937666 -0.738158,-0.830429 -1.107237,-1.937667 -1.199507,-3.044905 -0.738159,0.36908 -1.660857,0.645889 -2.768095,0.645889 -1.014968,0 -1.937666,-0.276809 -2.860365,-0.830428 -1.476317,-0.922699 -2.399015,-2.675825 -2.306745,-4.428952 0.09227,-1.937666 1.199507,-3.690793 2.860364,-4.613491 -9.134712,-5.16711 -6.551157,-14.578633 -4.8903,-20.483901 0.645888,-2.214476 1.199507,-4.336682 1.384047,-6.182079 0.276809,-2.491285 3.137174,-11.349188 3.137174,-11.441458 2.860365,-8.6733635 4.244412,-11.9950772 8.119745,-11.9950772 l 0.461349,0 c 1.937666,0.1845397 3.229444,0.2768095 15.316791,16.7008382 0.553619,0.18454 1.014968,0.461349 1.476317,0.830429 2.860364,-0.36908 5.997539,-0.553619 9.319252,-0.46135 3.044904,0.09227 5.997539,0.27681 8.857903,0.738159 0.46135,-0.09227 1.014969,-0.18454 1.568587,-0.09227 C 80.735479,7.5761966 81.565907,7.4839267 83.872653,7.2993871 l 0.09227,0 0.18454,0 c 4.152142,0 5.53619,3.9676029 7.935205,12.2718869 0.738159,2.491285 2.583555,9.411522 2.768095,11.625998 l 0,0.184539 c 0,0.830429 -0.09227,1.937667 -0.830429,4.613492 0.18454,2.768094 1.014968,3.229444 1.476318,3.506253 1.568587,0.830428 2.491285,2.491285 2.491285,4.152142 0.922698,1.291778 1.107238,2.952635 0.461349,4.428952 0.738159,1.753126 0.276809,3.783063 -1.199508,5.07484 -1.660857,1.476317 -4.336681,1.660857 -5.35165,1.660857 -0.738158,0 -1.476317,-0.09227 -2.214475,-0.18454 0,0.553619 0,1.199508 -0.27681,1.753127 0.09227,0.09227 0.27681,0.18454 0.369079,0.18454 1.660857,0.922698 2.768095,2.583555 2.860365,4.521221 0.09227,1.845397 -0.830428,3.598523 -2.306746,4.521221 -0.830428,0.553619 -1.753126,0.830429 -2.768094,0.830429 -1.107238,0 -1.937667,-0.369079 -2.768095,-0.645889 -0.09227,1.107238 -0.461349,2.214476 -1.199508,3.044904 -1.107238,1.291778 -2.675825,2.029936 -4.428951,1.937667 -1.660857,1.476317 -3.321714,2.860364 -5.167111,4.059872 0.27681,1.291778 0.09227,2.583555 -0.645888,3.690793 l 1.476317,5.720729 c 0.738158,1.845397 1.476317,3.783063 2.306745,5.812999 3.506254,8.857903 7.197047,17.99262 9.042443,25.65101 4.613492,0.73816 8.673364,2.95264 11.902808,6.27435 0.184539,-0.0923 0.369079,-0.27681 0.553619,-0.36908 -1.107238,-2.95263 -0.09227,-6.08981 2.399015,-8.21201 2.76809,-2.30675 5.99754,-3.59853 9.31925,-3.59853 5.53619,0 10.7033,3.50626 13.4714,9.04245 3.22944,6.36661 2.58355,13.93274 -1.66086,19.74574 -4.98257,6.92023 -13.65593,8.67336 -21.31433,9.22698 -3.875332,6.27435 -10.703299,10.14968 -18.177155,10.14968 -5.25938,0 -10.33422,-1.93767 -14.209553,-5.44392 -1.753127,-0.18454 -3.506253,-0.27681 -5.16711,-0.27681 l -0.27681,1.10724 c -1.014968,2.95263 -4.059872,5.99754 -9.596062,5.99754 -0.645888,0 -1.384047,0 -2.029936,-0.0923 -3.413983,-0.46135 -6.182078,-2.7681 -7.197046,-5.90527 -2.399016,0.46135 -4.428952,1.29178 -6.735697,2.21448 -2.768095,1.10723 -5.812999,2.30674 -9.596062,2.76809 -2.214476,1.56859 -5.16711,2.39902 -8.027475,2.39902 z M 45.672945,77.885803 c 1.107238,0.18454 2.122206,0.738159 2.860365,1.660857 0.922698,1.107238 1.291777,2.675825 0.922698,4.059872 l -0.922698,3.690793 c -0.09227,0.18454 -0.09227,0.36908 -0.18454,0.553619 l -1.384047,3.413984 c -4.705761,11.902812 -10.057411,25.374202 -10.61103,32.940332 -0.27681,3.41398 0.369079,6.18207 1.845396,8.39655 0.738159,1.10724 0.922699,2.58355 0.553619,3.87533 -0.369079,1.29178 -1.384047,2.39902 -2.675825,2.86037 l -1.845396,0.73816 c -2.860365,1.10723 -9.596062,3.78306 -14.301823,6.82796 -2.952634,1.8454 -3.321714,3.32172 -3.229444,3.50626 0.09227,0.18454 0.830428,0.92269 2.860365,1.01496 l 0.276809,0 c 1.384047,0 2.860365,-0.64589 3.690793,-1.29177 0.738159,-0.64589 1.660857,-1.01497 2.675825,-1.01497 2.860365,-0.18454 5.25938,-1.10724 8.119745,-2.30675 3.413983,-1.38404 7.197046,-2.86036 12.364156,-3.13717 l 0.18454,0 3.137174,-0.0923 c 1.476317,0 2.768095,0.64589 3.690793,1.75313 0.738158,-1.19951 2.029936,-2.12221 3.506253,-2.21448 3.967603,-0.36908 9.134713,-0.27681 14.301823,0.27681 1.107238,0.0923 2.122206,0.64589 2.860365,1.47632 2.306745,2.49128 5.443919,3.78306 8.765633,3.78306 4.798031,0 9.134713,-2.86037 11.072379,-7.28932 0.369079,-0.73816 0.830428,-1.38404 1.568587,-1.93766 -0.369079,-0.73816 -0.553619,-1.56859 -0.553619,-2.39902 0,-0.83043 0,-1.8454 -0.18454,-2.76809 -0.09227,-0.46135 -0.09227,-0.83043 0,-1.29178 -0.276809,-0.36908 -0.553618,-0.73816 -0.738158,-1.19951 -1.845397,-4.52122 -6.274348,-7.38158 -11.072379,-7.38158 l -0.27681,0 c -2.214475,0 -4.152142,-1.56859 -4.521221,-3.78307 -1.291778,-7.38158 -5.53619,-17.99261 -9.226983,-27.311866 -0.830428,-2.122206 -1.660856,-4.152142 -2.399015,-6.089808 -0.09227,-0.18454 -0.09227,-0.36908 -0.18454,-0.553619 L 64.21918,77.424454 c -0.369079,-1.291777 -0.09227,-2.583555 0.553619,-3.598523 l 0,-0.09227 c -0.645889,-2.122206 0.369079,-4.428952 2.399015,-5.35165 2.952635,-1.476317 5.720729,-3.598523 8.027475,-6.182078 0.09227,-0.18454 0.27681,-0.27681 0.461349,-0.369079 0.09227,-0.18454 0.27681,-0.36908 0.36908,-0.553619 1.014968,-1.199508 1.937666,-2.491286 2.675824,-3.875333 0.09227,-0.09227 0.18454,-0.276809 0.27681,-0.369079 l 0.276809,-0.553619 c 0.46135,-0.830429 0.922699,-1.845397 1.291778,-2.860365 0.09227,-0.09227 0.09227,-0.276809 0.18454,-0.369079 0,-0.09227 0.09227,-0.27681 0.09227,-0.369079 0.46135,-1.476318 0.830429,-2.952635 0.922699,-4.336682 0,-0.27681 0.09227,-0.461349 0.09227,-0.738159 -0.276809,-1.660857 0.46135,-3.321713 1.845397,-4.336682 0.553619,-0.369079 1.107238,-0.645888 1.660857,-0.738158 -0.18454,-0.830429 -0.09227,-1.660857 0.369079,-2.675825 0,-0.09227 0.09227,-0.18454 0.09227,-0.27681 -0.369079,-1.291777 -0.461349,-2.768094 -0.553619,-4.336681 0,-0.553619 0.09227,-1.014968 0.18454,-1.476317 0.461349,-1.291778 0.553619,-2.029937 0.645888,-2.306746 -0.276809,-1.753127 -1.660856,-7.104777 -2.952634,-11.349189 -2.122206,2.491286 -5.16711,6.274349 -9.872871,12.179617 -1.107238,1.384048 -2.952635,2.029936 -4.705761,1.660857 l -0.36908,-0.09227 c -0.369079,-0.09227 -0.738158,-0.184539 -1.014968,-0.369079 -0.369079,0 -0.738158,0 -1.107238,-0.09227 -2.768094,-0.461349 -5.720729,-0.738158 -8.581093,-0.830428 l -0.922699,0 c -3.506253,0 -6.643427,0.276809 -9.319252,0.830428 -1.199508,0.27681 -2.491285,0 -3.506253,-0.738158 C 43.18166,32.489049 42.812581,32.0277 42.443501,31.566351 41.613073,31.289542 40.874914,30.735923 40.321295,29.997764 37.92228,26.76832 34.785106,22.616178 32.29382,19.479004 c -1.476317,4.428952 -3.137174,10.057411 -3.321713,11.441458 -0.27681,2.675825 -1.014968,5.25938 -1.660857,7.750666 -2.214476,8.027474 -2.214476,9.411522 3.137174,10.980109 1.384047,0.369079 2.399015,1.384047 2.952634,2.583555 0.27681,0.369079 0.553619,0.830428 0.738159,1.384047 0.276809,0.922698 0.738159,1.845397 1.291778,2.860365 0.09227,0.184539 0.184539,0.276809 0.184539,0.461349 0.09227,0.18454 0.27681,0.369079 0.369079,0.461349 0.738159,1.199508 1.568587,2.491285 2.491286,3.598523 0.09227,0.18454 0.276809,0.36908 0.369079,0.553619 l 0.461349,0.461349 c 1.753127,2.029936 3.875333,3.875333 6.182078,5.25938 1.845397,1.199508 2.583556,3.413984 1.845397,5.44392 -1.291778,2.675825 -1.568587,4.244412 -1.660857,5.16711 z m 57.115025,52.778337 c 0.0923,0.0923 0.18454,0.18454 0.18454,0.27681 0.27681,0.36908 0.83042,0.73816 1.75312,0.73816 l 0.0923,0 0.73816,0 c 0.0923,-0.0923 0.27681,-0.18454 0.46135,-0.27681 0.18454,-0.0923 0.64589,-0.46135 0.64589,-0.9227 0,-0.64589 -0.83043,-1.29177 -1.93767,-1.29177 -1.10723,0 -1.93766,0.64588 -1.93766,1.1995 l 0,0.27681 z"
     inkscape:connector-curvature="0" />
  <g
     style="fill-rule:evenodd"
     id="g11"
     transform="matrix(0.92269825,0,0,0.92269825,-234.65201,-397.49756)">
    <path
       inkscape:connector-curvature="0"
       d="m 367.21,557.51 c -3.8,3.2 1.3,7.5 6.3,7.3 4.1,-0.1 5.2,3.4 3.4,7.5 -2.3,5.1 -6.1,6 -11.2,6.9 -10.5,2 -19.8,0.1 -29.5,-0.3 -5.8,-0.3 -5.4,6.4 -0.5,6.6 8.8,0.4 19.6,1.2 28.4,0.5 6.9,-0.6 14.4,-2 18.7,-7.9 9.3,-12.7 -4.2,-30.1 -15.6,-20.6 z"
       id="path793" />
    <path
       inkscape:connector-curvature="0"
       d="m 326.71,512.11 -20.2,0 c -5.2,15.1 -16.9,40.1 -17.8,53 -1.3,19.1 18.3,22.5 28.3,22.5 10,0 28.1,-3.4 27.3,-22.6 -0.6,-13 -12.9,-38 -17.6,-52.9 z"
       id="path795" />
    <polygon
       transform="translate(-378.99,105.61)"
       points="680.3,432.7 693.3,435.7 693.3,482.1 687.5,482.1 "
       id="polygon797" />
    <polygon
       transform="translate(-378.99,105.61)"
       points="710.7,432.7 697.7,435.7 697.7,482.1 703.6,482.1 "
       id="polygon799" />
  </g>
  <g
     style="fill:#6c6c6c;fill-rule:evenodd"
     id="g17"
     transform="matrix(0.92269825,0,0,0.92269825,-234.65201,-397.49756)">
    <path
       inkscape:connector-curvature="0"
       d="m 318.31,587.91 c 0.3,-2.9 1.6,-5.8 5.6,-6.1 2.9,-0.2 5.2,2.1 4.6,6.1 l -10.2,0 z"
       id="path801" />
    <path
       inkscape:connector-curvature="0"
       d="m 302.41,585.71 c -0.1,-2.6 -2.3,-4.6 -5.1,-4.6 -2.8,0 -5,2 -5.1,4.6 l 10.2,0 z"
       id="path803" />
    <path
       inkscape:connector-curvature="0"
       d="m 340.91,585.71 c -0.1,-2.6 -2.3,-4.6 -5.1,-4.6 -2.8,0 -5,2 -5.1,4.6 l 10.2,0 z"
       id="path805" />
  </g>
  <g
     style="fill-rule:evenodd"
     id="g22"
     transform="matrix(0.92269825,0,0,0.92269825,-234.65201,-397.49756)">
    <path
       inkscape:connector-curvature="0"
       d="m 332.71,532.81 c 0,8 -7.3,14.5 -16.2,14.5 -9,0 -16.2,-6.5 -16.2,-14.5 0,-8 7.3,-16.5 16.2,-16.5 9,0 16.2,8.5 16.2,16.5 z"
       id="path807" />
    <polygon
       transform="translate(-378.99,105.61)"
       points="684.4,405.3 706.6,405.3 711.7,425.1 679.3,425.1 "
       id="polygon809" />
    <path
       inkscape:connector-curvature="0"
       d="m 306.51,511.41 c -1.6,15.6 9.9,26.1 9.9,26.1 0,0 12.2,-12.9 9.9,-26.1 l -19.8,0 z"
       id="path811" />
  </g>
  <path
     style="fill:#ff0000"
     inkscape:connector-curvature="0"
     d="m 47.149263,71.426918 c 2.768094,1.384047 5.997538,1.937666 9.411522,1.845396 3.598523,-0.09227 7.473856,-1.014968 11.718267,-2.491285 l 1.476318,5.16711 c -4.613492,1.660857 -9.042443,2.583555 -13.102315,2.768095 -4.152143,0.09227 -8.119745,-0.553619 -11.625998,-2.306746 l 2.122206,-4.98257 z"
     id="path813" />
  <g
     style="fill-rule:evenodd"
     id="g28"
     transform="matrix(0.92269825,0,0,0.92269825,-234.65201,-397.49756)">
    <path
       inkscape:connector-curvature="0"
       d="m 284.61,482.61 c 0.7,13.9 14.2,29.7 31,30 17.4,0.3 31.9,-16.2 32.1,-30.6 3.9,4.5 8.6,3 8.9,2.7 -2.6,0.1 -5.4,-3.7 -5.4,-5.2 2.2,1.8 5,1.9 5.4,1.4 0,0 -2.3,-1.3 -3.2,-2.3 -3.7,-4.3 -1.8,-1.5 2.3,-0.7 -3.6,-1.9 -4.2,-5.8 -4.3,-8.8 0.6,-1.8 1,-3.4 1,-4.1 -0.2,-2.4 -5.2,-21.3 -6.6,-21.2 -1.2,0.1 -12.2,13.9 -15.3,17.9 l -0.9,1.2 c -4,-1 -8.4,-1.5 -13.1,-1.6 -4.7,-0.1 -9.1,0.3 -13.1,1.1 -1.7,-2.5 -14.5,-19.6 -15.6,-19.6 -1.4,-0.1 -7,18.5 -7.3,20.9 -0.1,0.8 0.3,2.6 1,4.7 0,3 -0.4,7.4 -4.3,9.5 4,-0.9 6,-3.7 2.3,0.7 -0.9,1 -3.1,2.3 -3.2,2.3 -0.3,0.3 3.1,0.3 5.4,-1.4 0,1.5 -2.7,5.3 -5.4,5.2 -0.6,0 4.5,1.6 8.3,-2.1 z"
       id="path815" />
    <path
       style="fill:#fa8973"
       inkscape:connector-curvature="0"
       d="m 289.01,448.41 c -0.9,-0.1 -4.8,12.5 -4.9,14.2 -0.2,1.6 3,10 3,10 l 9.3,-8.1 -7.4,-16.1 z"
       id="path817" />
    <path
       style="fill:#6c6c6c"
       inkscape:connector-curvature="0"
       d="m 315.51,508.11 0.1,0 c 19.5,0.6 32.2,-22.6 24.3,-33.3 -4.1,-5.6 -13.6,-9 -24.2,-1 -10.2,-8.2 -19.2,-5.3 -23.5,0.2 -7.9,10.3 4.1,34 23.3,34.1 z"
       id="path819" />
    <path
       style="fill:#fa8973"
       inkscape:connector-curvature="0"
       d="m 344.41,448.51 c 0.9,0 3.7,12.9 3.7,14.6 0,1.7 -3.9,9.8 -3.9,9.8 l -8.6,-8.8 8.8,-15.6 z"
       id="path821" />
  </g>
  <path
     style="fill:#b2b2b2"
     inkscape:connector-curvature="0"
     d="m 84.979891,55.371968 -0.461349,0.09227 C 77.321495,53.342032 69.47856,56.571476 65.603228,58.601412 l -0.922699,-0.27681 0.18454,-0.830428 c 3.690793,-2.029936 12.917775,-5.536189 19.838012,-3.229444 l 0.553619,0.738159 -0.276809,0.369079 z m 3.137174,6.366618 c -0.830429,0.553619 -2.491285,-1.845396 -9.780602,-2.491285 -9.134712,-0.830429 -11.625998,1.753126 -11.995077,0.09227 l 0,-0.36908 0.369079,-0.276809 c 4.890301,-1.199508 14.209553,-1.753127 21.22206,1.937666 0.369079,0.27681 0.461349,0.922698 0.18454,1.107238 z m -8.027475,4.336682 -0.553619,0.09227 c -0.09227,0 -0.18454,-0.09227 -0.276809,-0.09227 -4.336682,-2.399016 -7.658396,-3.783063 -12.917776,-3.783063 -0.18454,0 -0.369079,-0.09227 -0.553619,-0.18454 -0.461349,-0.461349 -0.09227,-1.107238 0.553619,-1.107238 4.798031,0 9.688332,1.384048 13.748204,4.059873 0.18454,0.09227 0.27681,0.276809 0.27681,0.461349 0,0.184539 0,0.369079 -0.09227,0.553619 l -0.18454,0 z"
     id="path823" />
  <path
     style="fill:#b2b2b2"
     inkscape:connector-curvature="0"
     d="m 27.957139,55.371968 0.461349,0.09227 c 7.197046,-2.122206 15.039982,1.107238 18.823044,3.137174 l 0.922699,-0.27681 -0.18454,-0.830428 C 44.288898,55.464238 35.061915,51.957985 28.141679,54.26473 l -0.553619,0.738159 0.369079,0.369079 z m -3.044904,6.366618 c 0.830428,0.553619 2.399015,-1.845396 9.780601,-2.491285 9.134713,-0.830429 11.533728,1.753126 11.995077,0.09227 l 0,-0.36908 -0.369079,-0.276809 c -4.798031,-1.199508 -14.209553,-1.753127 -21.22206,1.937666 -0.461349,0.27681 -0.553619,0.922698 -0.184539,1.107238 z m 7.935205,4.336682 0.553619,0.09227 c 0.09227,0 0.184539,-0.09227 0.276809,-0.09227 4.336682,-2.399016 7.658396,-3.783063 12.917776,-3.783063 0.184539,0 0.369079,-0.09227 0.553619,-0.18454 0.461349,-0.461349 0.09227,-1.107238 -0.46135,-1.107238 -4.8903,0 -9.688331,1.384048 -13.748204,4.059873 -0.184539,0.09227 -0.276809,0.276809 -0.276809,0.461349 0,0.184539 0,0.369079 0.09227,0.553619 l 0.09227,0 z"
     id="path825" />
  <path
     inkscape:connector-curvature="0"
     d="m 56.745324,54.910619 c 0.461349,-0.830428 1.014968,-1.291778 2.029936,-1.291778 1.107238,0 2.029937,0.738159 2.029937,1.753127 0,1.753127 -2.029937,3.506253 -4.059873,5.25938 -2.029936,-1.753127 -4.059872,-3.506253 -4.059872,-5.25938 0,-0.922698 0.922698,-1.753127 2.029936,-1.753127 1.014968,0 1.568587,0.46135 2.029936,1.291778 z"
     id="path827" />
  <path
     inkscape:connector-curvature="0"
     d="m 49.271469,64.137601 c -0.36908,0.18454 -0.738159,0 -0.922699,-0.276809 -0.184539,-0.369079 0,-0.738159 0.27681,-0.922698 2.675825,-1.291778 4.8903,-1.660857 6.920237,-1.291778 2.029936,0.369079 3.875332,1.568587 5.628459,3.506254 0.276809,0.276809 0.276809,0.738158 -0.09227,0.922698 -0.276809,0.276809 -0.738158,0.276809 -0.922698,-0.09227 -1.476317,-1.660857 -3.044904,-2.768095 -4.798031,-3.044904 -1.753127,-0.27681 -3.783063,0.09227 -6.089808,1.199507 z"
     id="path829" />
  <path
     style="fill-rule:evenodd"
     inkscape:connector-curvature="0"
     d="m 57.206673,69.212442 c 2.029937,0 3.413984,-0.922698 4.059873,-1.753127 1.014968,-1.199508 -1.291778,0.830429 -4.059873,0.738159 -2.583555,-0.09227 -4.98257,-1.937667 -3.967602,-0.738159 0.645889,0.830429 2.029936,1.753127 3.967602,1.753127 z"
     id="path831" />
  <path
     inkscape:connector-curvature="0"
     d="m 56.099436,59.80092 c 0,-0.36908 0.276809,-0.645889 0.645888,-0.645889 0.36908,0 0.645889,0.276809 0.645889,0.645889 l 0,2.675825 c 0,0.369079 -0.276809,0.645888 -0.645889,0.645888 -0.369079,0 -0.645888,-0.276809 -0.645888,-0.645888 l 0,-2.675825 z"
     id="path833" />
  <g
     style="fill-rule:evenodd"
     id="g40"
     transform="matrix(0.92269825,0,0,0.92269825,-234.65201,-397.49756)">
    <path
       style="fill:#00cbff"
       inkscape:connector-curvature="0"
       d="m 292.91,479.71 c 0,0 -0.2,6.4 6.2,8.5 6.5,2.2 11.4,0.3 11.4,0.3 0,0 -0.5,-2.2 0,-4.2 l 0.1,-0.7 c -2.3,-5 -12.3,-7.1 -17.7,-3.9 z"
       id="path835" />
    <path
       inkscape:connector-curvature="0"
       d="m 298.91,488.21 0.2,0.1 c 1.7,0.5 3.2,0.8 4.6,0.9 0.8,-1.5 1.4,-3.3 1.6,-5.4 0.1,-1.7 -0.1,-3.3 -0.6,-4.7 -1.5,-0.5 -3.2,-0.9 -4.9,-0.9 -0.7,1.4 -1.4,3.2 -1.5,5.1 -0.1,1.8 0.2,3.4 0.6,4.9 z"
       id="path837" />
    <path
       style="fill:#ffffff"
       inkscape:connector-curvature="0"
       d="m 300.41,480.81 c 1.1,0.4 1.7,1.6 1.3,2.6 -0.4,1 -1.6,1.5 -2.7,1.1 -1.1,-0.4 -1.7,-1.6 -1.3,-2.6 0.4,-1 1.6,-1.5 2.7,-1.1 z"
       id="path839" />
    <path
       inkscape:connector-curvature="0"
       d="m 292.91,479.71 c 0,0 0,1 0.3,2.4 3.1,0.9 10.9,0.6 17.2,6.4 0.3,-1.8 0.5,-3.1 0.1,-4.8 -2.2,-5.1 -12.2,-7.2 -17.6,-4 z"
       id="path841" />
    <path
       inkscape:connector-curvature="0"
       d="m 297.91,478.51 c -1,-0.1 -4.5,-0.3 -5.3,-2.1 0.9,3.1 4.7,2.9 5.2,2.9 l 0.1,-0.8 z"
       id="path843" />
    <path
       inkscape:connector-curvature="0"
       d="m 296.71,479.11 c -1,0 -4.5,0.1 -5.4,-1.7 1.1,3 4.8,2.5 5.3,2.4 l 0.1,-0.7 z"
       id="path845" />
    <path
       inkscape:connector-curvature="0"
       d="m 299.61,478.21 c -1,-0.2 -4.4,-0.7 -5.2,-2.6 0.7,3.1 4.5,3.2 4.9,3.2 l 0.3,-0.6 z"
       id="path847" />
    <path
       style="fill:#00cbff"
       inkscape:connector-curvature="0"
       d="m 338.71,479.71 c 0,0 0.2,6.4 -6.2,8.5 -6.5,2.2 -11.4,0.3 -11.4,0.3 0,0 0.5,-2.2 0,-4.2 l -0.1,-0.7 c 2.3,-5 12.4,-7.1 17.7,-3.9 z"
       id="path849" />
    <path
       inkscape:connector-curvature="0"
       d="m 332.71,488.21 -0.2,0.1 c -1.7,0.5 -3.2,0.8 -4.6,0.9 -0.7,-1.5 -1.4,-3.3 -1.6,-5.4 -0.1,-1.7 0.1,-3.3 0.6,-4.7 1.5,-0.5 3.2,-0.9 4.9,-0.9 0.7,1.4 1.3,3.2 1.5,5.1 0.2,1.8 -0.1,3.4 -0.6,4.9 z"
       id="path851" />
    <path
       style="fill:#ffffff"
       inkscape:connector-curvature="0"
       d="m 331.11,480.81 c -1.1,0.4 -1.6,1.6 -1.2,2.6 0.4,1 1.6,1.5 2.7,1.1 1.1,-0.4 1.7,-1.6 1.3,-2.6 -0.4,-1 -1.7,-1.5 -2.8,-1.1 z"
       id="path853" />
    <path
       inkscape:connector-curvature="0"
       d="m 338.71,479.71 c 0,0 0,1 -0.3,2.4 -2.7,0.6 -9.8,0.1 -17.2,6.4 -0.3,-1.8 -0.5,-3.1 -0.1,-4.8 2.2,-5.1 12.3,-7.2 17.6,-4 z"
       id="path855" />
    <path
       inkscape:connector-curvature="0"
       d="m 307.81,475.11 c 1.9,0.8 3.3,1.9 3,2.6 -0.3,0.7 -2,0.5 -3.9,-0.2 -1.9,-0.8 -3.3,-1.9 -3,-2.6 0.2,-0.7 1.9,-0.5 3.9,0.2 z"
       id="path857" />
    <path
       inkscape:connector-curvature="0"
       d="m 323.91,475.11 c -1.9,0.8 -3.3,1.9 -3,2.6 0.3,0.7 2,0.5 3.9,-0.2 1.9,-0.8 3.3,-1.9 3,-2.6 -0.2,-0.7 -2,-0.5 -3.9,0.2 z"
       id="path859" />
  </g>
  <g
     style="fill:#970000"
     id="g55"
     transform="matrix(0.92269825,0,0,0.92269825,-234.65201,-397.49756)">
    <path
       style="fill-rule:evenodd"
       inkscape:connector-curvature="0"
       d="m 312.01,596.41 c 2.2,0.1 3.9,-0.6 4.5,-1.8 0.2,-0.3 0.2,-0.7 0,-1 -0.3,-0.7 -1.1,-1.4 -2,-1.6 -0.6,-0.1 -1.4,-0.3 -2.2,-0.3 -1.5,0.5 -2.7,1 -3.3,1.9 -0.2,0.3 -0.3,0.7 -0.1,1.2 0.3,0.8 1.1,1.4 2.2,1.5 0.2,0.1 0.6,0.1 0.9,0.1 z m -7.1,-6.8 0.6,0 c 1.6,-0.1 4.3,-0.1 6.7,0.1 3.2,-0.9 7.4,-1.1 11.7,-1 6.7,0.2 13.5,1.3 16.5,2.3 l -0.4,2 c -4.7,-1.5 -15.7,-2.8 -23.4,-2 0.7,0.5 1.2,1.2 1.5,1.9 0.4,1 0.4,2 -0.1,2.8 -1,2.1 -3.7,3.1 -7.1,2.7 -1.7,-0.2 -3.1,-1.3 -3.6,-2.9 -0.4,-1.2 -0.2,-2.4 0.5,-3.3 0.2,-0.3 0.4,-0.5 0.7,-0.7 l -2.8,0 -0.6,0 c -9.1,0.4 -13.9,5.4 -22.1,5.9 -1.8,1.5 -4.7,2.7 -7.6,2.5 -2.4,-0.1 -4.4,-0.8 -5.8,-1.9 -1,-0.8 -1.7,-1.8 -2,-3 -0.3,-1.2 -0.2,-2.4 0.4,-3.7 0.8,-1.8 2.5,-3.8 5.3,-5.5 5.7,-3.6 13.4,-6.6 16.6,-7.9 0.8,-0.3 1.6,-0.7 1.7,-0.7 0.4,0.6 0.8,1.2 1.3,1.7 -0.2,0.1 -1.5,0.5 -2.3,0.9 -3.2,1.3 -10.8,4.3 -16.3,7.7 -2.4,1.5 -3.9,3.1 -4.5,4.6 -0.4,0.9 -0.5,1.7 -0.3,2.5 0.2,0.7 0.6,1.4 1.3,1.9 1,0.8 2.6,1.4 4.6,1.4 1.5,0.1 3,-0.3 4.3,-0.9 -1.3,-0.4 -2.2,-1.2 -2.6,-2.1 -0.4,-0.7 -0.5,-1.4 -0.5,-2.2 0.1,-0.7 0.4,-1.4 1,-1.9 0.9,-0.9 2.5,-1.3 4.5,-0.6 1.5,0.5 2.4,1.3 2.8,2.2 0.3,0.8 0.3,1.6 0,2.4 0,0.1 -0.1,0.1 -0.1,0.2 9.1,-1.3 10.2,-4.9 20.1,-5.4 z m -22.9,5.9 0.1,0 c 0.4,-0.4 0.7,-0.8 0.9,-1.2 0.1,-0.3 0.2,-0.7 0.1,-0.9 -0.2,-0.4 -0.7,-0.8 -1.6,-1.1 -1.2,-0.4 -2.1,-0.3 -2.5,0.2 -0.2,0.2 -0.3,0.5 -0.4,0.7 0,0.3 0,0.6 0.2,0.9 0.4,0.8 1.4,1.4 3.2,1.4 z"
       id="path861" />
    <path
       inkscape:connector-curvature="0"
       d="m 302.31,461.81 -0.2,-1 -0.3,-0.5 c 0.9,0.1 2.2,0.5 2.5,2 0,0.7 -0.4,2.7 -0.6,3.6 -1.6,9 -4.3,24.5 -15.3,24 -1.2,-0.1 -2.3,-0.3 -3.3,-0.6 -2.3,-0.8 -4.1,-2.3 -5.4,-4.5 -1.2,-2.1 -1.8,-4.9 -1.7,-8.3 0.1,-2 0.5,-4.2 1.1,-6.6 0.2,-0.8 1.2,-3.5 1.5,-4.3 l 0.8,2.9 c 0.1,0.3 0,0.6 0,0.9 -0.8,2.7 -1.2,5 -1.3,7.2 -0.1,3 0.4,5.4 1.5,7.2 1,1.8 2.5,3 4.3,3.6 0.9,0.3 1.8,0.5 2.7,0.5 9.2,0.4 11.7,-14 13.2,-22.3 0.2,-1.2 0.4,-2.2 0.6,-3.2 -0.1,-0.3 -0.1,-0.4 -0.1,-0.6 z"
       id="path863" />
    <path
       inkscape:connector-curvature="0"
       d="m 302.21,461.21 c 0.3,-0.5 0.6,-0.4 1.1,-0.2 0.5,0.3 0.9,0.6 0.7,1.1 -0.1,0.3 0.3,0.8 0.7,1.4 0.2,0.3 0.5,0.6 0.7,0.9 2.5,3.9 8.2,7.3 14.7,10.2 9,3.9 19.6,6.5 26,7.3 0.7,0.1 1.2,0.1 1.5,0 0.4,0.7 0.4,1.3 -0.1,2 -0.4,0.1 -0.9,0.1 -1.6,0 -6.6,-0.8 -17.4,-3.5 -26.6,-7.5 -6.9,-3 -12.9,-6.7 -15.6,-10.9 -0.2,-0.3 -0.4,-0.5 -0.6,-0.8 -0.9,-1 -1.6,-2 -0.9,-3.5 z"
       id="path865" />
    <path
       inkscape:connector-curvature="0"
       d="m 329.11,462.81 c -0.3,-0.1 -0.4,-0.1 -0.6,-0.1 0,0 -13.9,22.3 -14.7,23.7 -1.8,3.2 -19.9,33 -10.3,31.7 l -0.5,2 c -12.6,0.5 6.6,-30.6 9,-34.8 4.6,-7.9 9.4,-15.5 14.5,-23.1 1.2,-0.7 2.3,0.1 2.6,0.6 z"
       id="path867" />
    <path
       inkscape:connector-curvature="0"
       d="m 330.91,526.31 c -0.8,3.7 -2.6,8.4 -5.8,12.9 -3.1,4.5 -7.7,8.6 -13.8,10.9 -5.2,1.9 -11.7,2.5 -19.4,0.9 -1,-1.4 0.1,-2.4 0.9,-2.5 -0.1,0.2 -0.2,0.5 -0.2,0.6 7.4,1.6 13.2,1 18.1,-0.8 5.7,-2.1 9.9,-6 12.8,-10.1 3,-4.2 4.7,-8.7 5.4,-12.2 0.6,-2.4 1.4,-3.8 0.9,-6.3 0.9,0.7 1.3,1.7 1.4,2.8 0.2,1.1 0,2.6 -0.3,3.8 z"
       id="path869" />
    <path
       inkscape:connector-curvature="0"
       d="m 339.41,545.71 c 0.4,0 0.9,0.1 1.4,0.5 1.4,1 1.2,4.1 -0.3,7.3 -1,2.2 -2.6,4.5 -4.6,6.4 -2.1,1.9 -4.7,3.4 -7.7,3.9 -5.7,0.8 -12.7,-2.2 -20.4,-13.1 -1,-1.5 -4.6,-6.5 -7.1,-11.4 -2.7,-5.4 -4.3,-10.7 -0.5,-12 0.3,-0.1 0.5,-0.1 0.7,0 -0.4,0.9 -0.9,2.1 -1,2.6 -0.6,1.6 0.8,5.1 2.6,8.6 2.5,4.8 5.9,9.7 6.9,11.1 7.2,10.1 13.5,13 18.5,12.2 2.6,-0.4 4.8,-1.6 6.6,-3.3 1.9,-1.7 3.3,-3.8 4.2,-5.8 0.6,-1.2 1.4,-3.6 1.6,-4.5 -0.4,-1.3 -0.7,-1.7 -0.9,-2.5 z"
       id="path871" />
    <path
       inkscape:connector-curvature="0"
       d="m 329.01,509.41 c -0.1,8.6 -2.3,14 -5.2,16.4 -1.2,1 -2.6,1.6 -3.9,1.6 -1.3,0 -2.7,-0.5 -3.8,-1.4 -2.6,-2.2 -4.6,-6.8 -4.6,-13.7 0.7,0.1 1.3,0.2 2,0.3 0,6.1 1.7,10.1 3.8,11.9 0.8,0.7 1.7,1 2.5,1 0.9,0 1.8,-0.4 2.6,-1.1 2.4,-2 4.3,-6.6 4.5,-14 0.7,-0.3 1.4,-0.6 2.1,-1 z"
       id="path873" />
    <path
       inkscape:connector-curvature="0"
       d="m 342.31,561.21 c 1.5,0.4 2.4,1.3 2.6,2.6 0.3,1.6 -0.5,3.8 -2.6,5.6 -15.2,14 -38.9,-3.1 -50.9,-16.9 -0.6,-1.4 0.9,-1.8 1,-1.6 11.2,13 33.9,30.4 48.4,17 1.5,-1.4 2.2,-2.9 2,-3.9 -0.1,-1.4 -0.1,-1.4 -0.5,-2.8 z"
       id="path875" />
    <path
       inkscape:connector-curvature="0"
       d="m 306.21,585.81 c -0.6,0 -1,-0.5 -1,-1 0,-0.5 0.5,-1 1,-0.9 0.9,0 3.2,-1.1 6,-2.6 6.1,-3.1 14.3,-7.2 18,-3.4 0.6,0.6 1.3,2.5 1.7,4.3 0.2,0.8 0.3,1.6 0.3,2.3 0,0.9 -0.2,1.7 -0.8,2 -0.2,0.1 -0.4,0.2 -0.7,0.2 -0.5,0 -1,-0.4 -1,-0.9 0,-0.5 0.3,-0.9 0.7,-1 0,-0.1 -0.1,-0.1 -0.1,-0.3 0,-0.5 -0.1,-1.2 -0.3,-2 -0.3,-1.5 -0.8,-3 -1.1,-3.3 -2.7,-2.7 -10.1,1 -15.6,3.8 -3.2,1.6 -5.7,2.8 -7.1,2.8 z"
       id="path877" />
  </g>
  <path
     style="fill:#6c6c6c;fill-rule:evenodd"
     inkscape:connector-curvature="0"
     d="m 55.730356,144.96597 c -0.276809,-2.67583 -1.476317,-5.35165 -5.16711,-5.62846 -2.675825,-0.18454 -4.798031,1.93767 -4.244412,5.62846 l 9.411522,0 z"
     id="path879" />
  <path
     style="fill:#970000"
     inkscape:connector-curvature="0"
     d="m 98.728095,138.23027 c -0.461349,0.18454 -1.014968,-0.0923 -1.199508,-0.55362 -0.09227,-0.27681 -0.09227,-0.64589 0.09227,-0.9227 0,-0.0923 0.09227,-0.0923 0.09227,-0.0923 0.184539,-0.18454 0.369079,-0.27681 0.645888,-0.36908 0.18454,-0.0923 0.46135,-0.0923 0.738159,0 l 0.09227,0 c 0.461349,0.18454 1.107236,0.64589 2.122206,1.66086 1.66086,1.8454 2.49129,2.12221 3.0449,1.66086 0.46135,-0.46135 0.9227,-1.38405 1.38405,-2.39902 0.73816,-1.75312 1.56859,-3.32171 5.16711,-3.69079 -0.64589,0.64589 -1.01497,0.9227 -1.84539,1.29178 -0.46135,0.27681 -0.9227,1.19951 -1.66086,3.13717 -0.55362,1.10724 -1.01497,2.30675 -1.8454,2.95264 -1.29178,1.10723 -3.0449,1.10723 -5.720727,-1.8454 -0.553619,-0.36908 -0.922699,-0.64589 -1.107238,-0.83043 z"
     id="path881" />
  <g
     transform="matrix(0.92269825,0,0,0.92269825,-584.34542,-300.0514)"
     id="g883">
    <path
       style="fill:#ff0000;fill-rule:evenodd"
       inkscape:connector-curvature="0"
       d="m 729.8,458.7 c 0.5,0.9 1,1.8 1.3,2.7 0.3,1 0.4,2 0.3,3.1 l 0,0.3 c 0.7,0.8 1.2,1.6 1.7,2.5 0,-1.9 -0.3,-3.8 -0.9,-5.6 -0.3,-1 -0.7,-1.9 -1.2,-2.8 -0.4,-0.7 -1.2,-2.4 -2.1,-2.4 0.1,0.2 0.1,0.5 0.2,0.7 0.2,0.4 0.5,0.9 0.7,1.5 z"
       id="path885" />
    <path
       style="fill:#970000"
       inkscape:connector-curvature="0"
       d="m 733.2,467.6 c -0.1,0 -0.3,-0.1 -0.3,-0.2 -0.5,-0.8 -1,-1.5 -1.7,-2.4 -0.1,-0.1 -0.1,-0.2 -0.1,-0.2 l 0,-0.3 c 0.1,-1.1 0,-2 -0.3,-2.9 -0.2,-0.7 -0.5,-1.3 -0.9,-1.9 -0.1,-0.3 -0.3,-0.5 -0.4,-0.8 -0.3,-0.5 -0.5,-1.1 -0.7,-1.7 l -0.2,-0.7 c 0,-0.1 0,-0.2 0.1,-0.3 0.1,-0.1 0.2,-0.1 0.3,-0.1 1.1,0 1.8,1.5 2.3,2.4 l 0.1,0.3 c 0.5,0.9 0.9,1.8 1.2,2.8 0.6,1.8 0.9,3.7 1,5.7 0,0.2 -0.1,0.3 -0.3,0.4 l -0.1,-0.1 z m -1.4,-3 c 0.3,0.4 0.6,0.8 0.9,1.2 -0.1,-1.4 -0.4,-2.8 -0.8,-4.1 -0.3,-1 -0.7,-1.9 -1.2,-2.7 l -0.1,-0.3 c -0.2,-0.4 -0.6,-1.2 -1,-1.6 0.2,0.5 0.4,1 0.6,1.4 0.1,0.3 0.3,0.5 0.4,0.8 0.3,0.6 0.7,1.3 0.9,2 0.3,1 0.4,2.1 0.3,3.3 z"
       id="path887" />
  </g>
  <g
     transform="matrix(0.92269825,0,0,0.92269825,-584.34542,-300.0514)"
     id="g889">
    <path
       style="fill:#ff0000;fill-rule:evenodd"
       inkscape:connector-curvature="0"
       d="m 717.1,487.1 0.3,1.2 c 0.2,0 0.5,0.1 0.8,0.1 0.5,0.1 0.9,0.2 1.4,0.3 1,0.2 2.1,0.3 3.2,0.4 2.1,0.2 4.5,0.1 6.2,-1.2 0.1,0 0.1,-0.1 0.1,-0.1 0.1,-0.3 0.2,-0.5 0.3,-0.8 0.1,-0.3 0.1,-0.5 0.1,-0.8 -1.1,0.9 -4,1.5 -5.6,1.6 -2.3,0.2 -4.6,-0.1 -6.8,-0.7 z"
       id="path891" />
    <path
       style="fill:#970000"
       inkscape:connector-curvature="0"
       d="m 724.2,489.6 c -0.5,0 -1,0 -1.5,-0.1 -1.1,-0.1 -2.2,-0.2 -3.2,-0.4 l -1.4,-0.3 c -0.2,-0.1 -0.5,-0.1 -0.7,-0.1 -0.2,0 -0.3,-0.1 -0.4,-0.2 l -0.3,-0.9 c 0,-0.1 -0.1,-0.2 -0.1,-0.4 0,-0.1 0,-0.3 0.1,-0.4 0.1,-0.1 0.2,-0.1 0.4,-0.1 2.3,0.6 4.6,0.8 6.7,0.7 1.5,-0.1 4.3,-0.7 5.4,-1.5 0.1,-0.1 0.3,-0.1 0.4,0 0.1,0.1 0.2,0.2 0.2,0.4 0,0.1 0,0.2 -0.1,0.4 0,0.1 0,0.3 -0.1,0.4 -0.1,0.3 -0.1,0.5 -0.3,0.8 0,0.1 -0.1,0.2 -0.2,0.2 0,0 -0.1,0.1 -0.2,0.1 -1,0.9 -2.6,1.4 -4.7,1.4 z m -6.5,-1.6 c 0.2,0 0.4,0.1 0.6,0.1 l 1.4,0.3 c 1,0.2 2.1,0.3 3.1,0.4 0.5,0 0.9,0.1 1.4,0.1 2,0 3.5,-0.4 4.6,-1.2 0.1,-0.2 0.1,-0.4 0.2,-0.6 -1.4,0.7 -3.7,1.2 -5,1.2 -2.1,0.1 -4.2,-0.1 -6.4,-0.6 0,0.1 0,0.2 0.1,0.3 z"
       id="path893" />
  </g>
  <g
     transform="matrix(0.92269825,0,0,0.92269825,-584.34542,-300.0514)"
     id="g895">
    <path
       style="fill:#ff0000;fill-rule:evenodd"
       inkscape:connector-curvature="0"
       d="m 713.2,486.6 c -0.1,-2.4 -0.4,-5 0.3,-7.2 0.4,-1.3 0.7,-2.6 1,-3.9 0.3,-1.2 0.8,-2.3 1.4,-3.4 1.1,-2.2 2.3,-4.4 4.2,-6.1 -0.4,-0.2 -0.8,-0.5 -1.1,-0.7 l -0.1,0 c -1.4,1.8 -2.9,3.5 -3.9,5.5 -1,1.8 -1.6,3.9 -2.1,5.9 -0.3,1 -0.5,2 -0.7,3 -0.2,1 -0.2,2.1 -0.2,3.2 0,1 -0.1,2.1 -0.1,3.1 0,0.4 0,0.8 0.1,1.2 0,0.1 0.1,0.1 0.1,0.3 0,0.1 0.1,0.1 0.1,0.2 0.3,0.5 0.9,0.7 1.4,0.7 -0.3,-0.7 -0.4,-1.3 -0.4,-1.8 z"
       id="path897" />
    <path
       style="fill:#970000"
       inkscape:connector-curvature="0"
       d="m 713.5,488.6 c -0.8,0 -1.4,-0.4 -1.8,-0.9 l -0.1,-0.2 c -0.1,-0.1 -0.1,-0.2 -0.1,-0.3 -0.1,-0.5 -0.1,-1 -0.1,-1.3 l 0,-2.1 0,-1.4 c 0,-0.9 0,-1.9 0.2,-2.8 0.1,-0.8 0.3,-1.6 0.5,-2.4 l 0.2,-0.7 c 0.4,-1.7 1.1,-3.9 2.2,-6 0.9,-1.7 2.2,-3.2 3.3,-4.7 l 0.6,-0.8 c 0.1,-0.1 0.3,-0.2 0.5,-0.1 l 0.1,0 1.1,0.7 c 0.1,0.1 0.2,0.2 0.2,0.3 0,0.1 0,0.2 -0.1,0.3 -1.8,1.7 -3,3.8 -4.1,6 -0.5,1 -1,2.1 -1.4,3.3 -0.2,0.6 -0.3,1.2 -0.5,1.8 -0.2,0.7 -0.3,1.4 -0.6,2.1 -0.6,2 -0.5,4.3 -0.3,6.6 l 0,0.5 c 0,0.6 0.1,1.1 0.3,1.5 l 0,0.4 c 0.1,0.1 0,0.2 -0.1,0.2 z m 5.5,-22.9 -0.4,0.6 c -1.2,1.5 -2.4,3 -3.3,4.6 -1,1.9 -1.7,4.1 -2.1,5.8 l -0.2,0.7 c -0.2,0.8 -0.4,1.5 -0.5,2.3 -0.2,0.9 -0.2,1.8 -0.2,2.7 l 0,1.4 c 0,0.7 -0.1,1.4 -0.1,2.1 0,0.3 0,0.7 0.1,1.1 0,0.1 0,0.1 0.1,0.2 l 0.1,0.2 c 0.1,0.2 0.3,0.3 0.6,0.4 -0.1,-0.3 -0.1,-0.7 -0.1,-1.1 l 0,-0.5 c -0.1,-2.2 -0.3,-4.7 0.4,-6.8 l 0.6,-2.1 c 0.1,-0.6 0.3,-1.2 0.5,-1.8 0.3,-1.3 0.9,-2.4 1.4,-3.5 1.1,-2.1 2.2,-4.2 3.9,-5.9 l -0.8,-0.4 z"
       id="path899" />
  </g>
  <g
     transform="matrix(0.92269825,0,0,0.92269825,-584.34542,-300.0514)"
     id="g901">
    <path
       style="fill:#ff0000;fill-rule:evenodd"
       inkscape:connector-curvature="0"
       d="m 709.6,483.7 c 0,-2.3 0.6,-4.6 1.1,-6.8 1.1,-4.7 1.3,-6.1 4.4,-9.7 0.8,-0.9 1.4,-2 2.4,-2.9 -0.5,-0.3 -0.9,-0.5 -1.3,-0.7 -0.1,0.3 -0.3,0.6 -0.5,0.9 -2.7,4.2 -6.3,5.4 -7.2,17.3 l 0,0.3 c -0.1,1.4 0.1,2.9 1.3,3 -0.2,-0.5 -0.2,-1 -0.2,-1.4 z"
       id="path903" />
    <path
       style="fill:#970000"
       inkscape:connector-curvature="0"
       d="m 709.7,485.5 c -1.9,-0.2 -1.7,-2.6 -1.7,-3.4 l 0,-0.2 0,-0.1 c 0.7,-9.4 3.1,-12.2 5.4,-15 0.7,-0.8 1.3,-1.6 1.9,-2.5 0.2,-0.2 0.4,-0.5 0.5,-0.8 0.1,-0.2 0.3,-0.3 0.5,-0.2 l 0.3,0.2 c 0.3,0.2 0.7,0.3 1,0.5 0.1,0.1 0.2,0.2 0.2,0.3 0,0.1 0,0.2 -0.1,0.3 -0.6,0.5 -1,1.1 -1.5,1.7 -0.3,0.4 -0.6,0.8 -0.9,1.1 -2.9,3.3 -3.2,4.7 -4.1,8.7 l -0.2,1 c -0.5,2.1 -1.1,4.3 -1,6.5 0,0.5 0,0.9 0.1,1.3 0,0.1 0,0.2 -0.1,0.3 0,0.3 -0.2,0.3 -0.3,0.3 z m 6.6,-21.3 c -0.1,0.2 -0.2,0.4 -0.4,0.6 -0.6,0.9 -1.3,1.7 -1.9,2.5 -2.2,2.7 -4.5,5.5 -5.2,14.6 l 0,0.2 0,0.1 c -0.1,1.4 0.1,2.1 0.4,2.4 l 0,-0.8 c 0,-2.3 0.5,-4.5 1.1,-6.7 l 0.2,-1 c 0.9,-4.1 1.3,-5.6 4.3,-9 0.3,-0.3 0.6,-0.7 0.8,-1.1 0.4,-0.5 0.7,-1 1.2,-1.5 -0.1,-0.1 -0.3,-0.2 -0.5,-0.3 z"
       id="path905" />
  </g>
  <g
     transform="matrix(0.92269825,0,0,0.92269825,-584.34542,-300.0514)"
     id="g907">
    <path
       style="fill:#ff0000;fill-rule:evenodd"
       inkscape:connector-curvature="0"
       d="m 711.5,484.8 c 0,-1.2 0.1,-2.5 0.1,-3.7 0.1,-1.1 0.3,-2.2 0.6,-3.3 0.6,-2.3 1.2,-4.6 2.2,-6.7 1.1,-2.2 2.7,-4.1 4.2,-6 -0.3,-0.2 -0.6,-0.3 -0.9,-0.5 0,0 0,0.1 -0.1,0.1 -0.8,0.7 -1.4,1.6 -2,2.4 -2.8,3.6 -3.1,3.5 -4.3,8.4 -0.5,2 -1,4.1 -1.3,6.1 -0.1,0.7 -0.3,2.3 -0.1,3.6 l 0,0.3 c 0.2,0.9 0.7,1.7 1.6,1.6 -0.1,-0.8 0,-1.6 0,-2.3 z"
       id="path909" />
    <path
       style="fill:#970000"
       inkscape:connector-curvature="0"
       d="m 711.5,487.4 c -0.5,0 -1.5,-0.3 -1.8,-1.9 l 0,-0.3 c -0.2,-1.4 0,-3 0,-3.7 0.3,-2.2 0.8,-4.3 1.3,-6.2 1.1,-4.4 1.5,-4.8 3.5,-7.4 l 0.8,-1.1 c 0.1,-0.2 0.3,-0.4 0.4,-0.6 0.5,-0.7 1,-1.3 1.6,-1.9 0,0 0,-0.1 0.1,-0.1 0.1,-0.1 0.3,-0.1 0.5,-0.1 l 0.9,0.5 c 0.1,0.1 0.2,0.1 0.2,0.3 0,0.2 0,0.2 -0.1,0.3 -0.3,0.4 -0.6,0.7 -0.9,1.1 -1.2,1.5 -2.4,3.1 -3.3,4.8 -1.1,2.2 -1.7,4.7 -2.2,6.7 -0.2,1 -0.5,2.1 -0.6,3.2 -0.1,1.2 -0.1,2.5 -0.1,3.7 l 0,0.5 c 0,0.6 -0.1,1.2 0.1,1.7 0,0.1 0,0.2 -0.1,0.3 -0.1,0.1 -0.2,0.2 -0.3,0.2 z m 6.3,-22.4 c -0.5,0.5 -1,1.1 -1.4,1.7 -0.1,0.2 -0.3,0.4 -0.4,0.6 l -0.8,1.1 c -2,2.6 -2.3,2.9 -3.4,7.2 -0.5,1.9 -1,4 -1.3,6.1 -0.1,0.7 -0.3,2.3 -0.1,3.5 l 0,0.3 c 0.2,0.8 0.5,1 0.7,1.2 l 0,-1.4 0,-0.4 c 0,-1.2 0.1,-2.5 0.1,-3.7 0.1,-1.2 0.3,-2.3 0.6,-3.3 0.5,-2.1 1.1,-4.6 2.3,-6.8 0.9,-1.8 2.1,-3.4 3.3,-4.9 0.2,-0.3 0.4,-0.5 0.6,-0.8 l -0.2,-0.4 z"
       id="path911" />
  </g>
  <g
     transform="matrix(0.92269825,0,0,0.92269825,-584.34542,-300.0514)"
     id="g913">
    <path
       style="fill:#ff0000;fill-rule:evenodd"
       inkscape:connector-curvature="0"
       d="m 716.3,485 c -0.3,-2 0.1,-3.9 0.4,-5.8 0.2,-1.1 0.3,-2.2 0.7,-3.3 0.3,-0.9 0.7,-1.8 1.2,-2.7 1,-2 2.4,-3.8 3.6,-5.7 -0.3,-0.3 -0.6,-0.5 -0.9,-0.7 -2.5,3.8 -4.9,7.5 -5.9,12 -0.5,2 -0.6,4.1 -0.5,6.2 0.1,1.2 0.3,2.4 0.5,3.6 0,0.2 0.1,0.4 0.1,0.5 0.1,0.1 0.1,0.2 0.1,0.3 0.1,0.4 0.4,0.7 0.8,0.8 0.5,0.1 1.1,-0.2 1.5,-0.5 0,0 -0.1,0 -0.1,-0.1 -0.5,-0.5 -0.8,-1.2 -1,-1.9 -0.1,-0.8 -0.3,-1.7 -0.5,-2.7 z"
       id="path915" />
    <path
       style="fill:#970000"
       inkscape:connector-curvature="0"
       d="m 716.8,490.7 -0.4,0 c -0.5,-0.1 -0.8,-0.5 -1,-1.1 l 0,-0.1 c 0,0 0,-0.1 -0.1,-0.1 -0.1,-0.2 -0.1,-0.4 -0.1,-0.6 -0.2,-1.1 -0.4,-2.4 -0.5,-3.7 -0.2,-2.1 0,-4.2 0.5,-6.3 1,-4.6 3.5,-8.4 5.9,-12.1 0.1,-0.1 0.2,-0.2 0.3,-0.2 0.1,0 0.2,0 0.3,0.1 0.3,0.2 0.6,0.5 0.9,0.7 0.1,0.1 0.2,0.3 0.1,0.5 -0.3,0.4 -0.5,0.7 -0.8,1.1 -1,1.4 -2.1,2.9 -2.8,4.5 -0.5,1 -0.9,1.9 -1.1,2.7 -0.3,0.8 -0.4,1.7 -0.6,2.6 l -0.2,1.4 c -0.3,1.7 -0.5,3.2 -0.3,4.9 0.1,0.8 0.3,1.7 0.6,2.7 0.2,0.7 0.4,1.3 0.9,1.7 0,0 0,0.1 0.1,0.1 0.1,0.1 0.2,0.2 0.1,0.3 0,0.1 0,0.2 -0.1,0.3 -0.7,0.3 -1.2,0.6 -1.7,0.6 z m 4.7,-23.3 c -2.3,3.5 -4.7,7.2 -5.6,11.5 -0.5,2.1 -0.6,4.1 -0.4,6.1 0.1,1.3 0.3,2.5 0.5,3.6 0,0.2 0.1,0.4 0.1,0.5 0,0.1 0.1,0.1 0.1,0.2 0.2,0.5 0.4,0.6 0.5,0.6 0.2,0.1 0.5,0 0.8,-0.2 -0.4,-0.5 -0.7,-1.2 -0.8,-1.8 -0.3,-1.1 -0.5,-2 -0.6,-2.8 -0.3,-1.7 0,-3.4 0.3,-5.1 l 0.2,-1.4 c 0.2,-0.9 0.3,-1.8 0.6,-2.7 0.3,-0.8 0.7,-1.7 1.2,-2.8 0.8,-1.7 1.8,-3.2 2.9,-4.6 0.2,-0.3 0.4,-0.6 0.6,-0.8 -0.3,-0.2 -0.3,-0.2 -0.4,-0.3 z"
       id="path917" />
  </g>
  <g
     transform="matrix(0.92269825,0,0,0.92269825,-584.34542,-300.0514)"
     id="g919">
    <path
       style="fill:#ff0000;fill-rule:evenodd"
       inkscape:connector-curvature="0"
       d="m 715.1,487.7 c -0.4,-2.4 -0.5,-4.7 -0.2,-7.1 0.3,-2.4 1,-4.6 2,-6.8 1.2,-2.5 2.7,-4.8 4.3,-7.2 l -0.9,-0.6 c -1.6,1.6 -2.7,3.4 -3.8,5.4 -0.5,1 -1,2 -1.4,3 -0.4,1 -0.6,2.2 -0.8,3.2 -0.3,1 -0.7,2 -0.8,3 -0.1,1 -0.1,2.1 -0.1,3.1 0,1.1 0,2.2 0.1,3.3 0.1,0.9 0.8,2.2 1.8,2.1 -0.1,-0.3 -0.1,-0.9 -0.2,-1.4 z"
       id="path921" />
    <path
       style="fill:#970000"
       inkscape:connector-curvature="0"
       d="m 715.3,489.6 c -1.1,0 -1.9,-1.3 -2.1,-2.4 -0.1,-0.8 -0.1,-1.6 -0.1,-2.3 l 0,-1 0,-0.4 c 0,-0.9 -0.1,-1.9 0.1,-2.8 0.1,-0.7 0.3,-1.3 0.5,-2 0.1,-0.4 0.2,-0.7 0.3,-1.1 0.1,-0.3 0.1,-0.6 0.2,-0.9 0.2,-0.8 0.3,-1.6 0.6,-2.4 0.4,-1.1 0.9,-2.1 1.4,-3 1.1,-2 2.2,-3.9 3.9,-5.5 0.1,-0.1 0.3,-0.1 0.5,0 0.1,0.1 0.3,0.2 0.4,0.3 0.1,0.1 0.3,0.2 0.4,0.3 0.2,0.1 0.2,0.4 0.1,0.5 l -0.4,0.7 c -1.4,2.1 -2.8,4.2 -3.8,6.5 -1,2.2 -1.6,4.4 -2,6.7 -0.3,2.1 -0.2,4.4 0.2,6.9 0,0.2 0.1,0.4 0.1,0.6 0,0.3 0.1,0.7 0.2,0.9 0,0.1 0,0.2 -0.1,0.3 -0.1,0.1 -0.2,0.2 -0.3,0.2 0,-0.1 -0.1,-0.1 -0.1,-0.1 z m 5.1,-23 c -1.5,1.5 -2.5,3.2 -3.5,5.1 -0.5,0.9 -1,1.9 -1.4,3 -0.3,0.7 -0.4,1.5 -0.6,2.3 -0.1,0.3 -0.1,0.6 -0.2,0.9 -0.1,0.4 -0.2,0.8 -0.3,1.1 -0.2,0.6 -0.4,1.2 -0.5,1.9 -0.1,0.9 -0.1,1.8 -0.1,2.7 l 0,0.4 0,1 c 0,0.7 0,1.5 0.1,2.2 0.1,0.6 0.5,1.4 1,1.7 0,-0.2 0,-0.3 -0.1,-0.5 0,-0.2 0,-0.4 -0.1,-0.5 -0.4,-2.6 -0.5,-5 -0.2,-7.2 0.3,-2.4 1,-4.7 2,-6.9 1.1,-2.3 2.5,-4.5 3.9,-6.6 l 0.2,-0.3 c 0,0 -0.1,0 -0.1,-0.1 0,-0.1 -0.1,-0.2 -0.1,-0.2 z"
       id="path923" />
  </g>
  <g
     transform="matrix(0.92269825,0,0,0.92269825,-584.34542,-300.0514)"
     id="g925">
    <path
       style="fill:#ff0000;fill-rule:evenodd"
       inkscape:connector-curvature="0"
       d="m 729.7,482.7 c -1.8,1.1 -4,1.7 -6.1,1.9 -2.4,0.3 -4.8,-0.3 -7.1,-0.5 l 0,0.1 c 0,0.3 0.1,0.6 0.1,0.9 2.1,0.9 4.2,1 6.5,0.9 1.2,-0.1 2.3,-0.3 3.4,-0.7 1.1,-0.3 2.3,-0.3 3.1,-1.3 0.1,-0.5 0.1,-0.9 0.1,-1.3 z"
       id="path927" />
    <path
       style="fill:#970000"
       inkscape:connector-curvature="0"
       d="m 721.9,486.3 c -2.2,0 -3.9,-0.3 -5.4,-0.9 -0.1,0 -0.3,-0.2 -0.3,-0.3 -0.1,-0.3 -0.1,-0.6 -0.1,-0.9 0,-0.1 0,-0.3 0.1,-0.3 0.1,-0.1 0.2,-0.1 0.3,-0.1 0.5,0.1 1,0.1 1.5,0.2 1.8,0.3 3.8,0.5 5.5,0.3 2.2,-0.2 4.3,-0.9 5.9,-1.8 0.1,-0.1 0.3,-0.1 0.4,0 0.1,0.1 0.2,0.2 0.2,0.3 l 0,0.6 0,0.6 c 0,0.1 0,0.2 -0.1,0.2 -0.7,0.9 -1.7,1.1 -2.6,1.3 -0.2,0.1 -0.5,0.1 -0.7,0.2 -0.9,0.3 -2.1,0.6 -3.5,0.7 -0.4,-0.1 -0.8,-0.1 -1.2,-0.1 z m -5,-1.6 c 1.4,0.6 3,0.8 5,0.8 l 1.1,0 c 1,0 2,-0.2 3.3,-0.6 0.3,-0.1 0.5,-0.1 0.8,-0.2 0.8,-0.2 1.5,-0.3 2.1,-0.9 l 0,-0.4 c -1.6,0.9 -3.6,1.4 -5.7,1.6 -0.4,0 -0.9,0.1 -1.4,0.1 -1.4,0 -2.9,-0.2 -4.3,-0.4 -0.4,-0.1 -0.7,-0.1 -1.1,-0.1 0.2,-0.1 0.2,0 0.2,0.1 z"
       id="path929" />
  </g>
  <g
     transform="matrix(0.92269825,0,0,0.92269825,-584.34542,-300.0514)"
     id="g931">
    <path
       style="fill:#ff0000;fill-rule:evenodd"
       inkscape:connector-curvature="0"
       d="m 729.5,485.9 c 0.1,-0.5 0.1,-1 0.1,-1.6 -0.7,0.7 -1.9,0.9 -2.8,1.2 -1.1,0.3 -2.3,0.6 -3.5,0.7 -2.3,0.1 -4.5,0 -6.7,-0.9 l 0.3,1.5 0.1,0 c 2.1,0.5 4.2,0.8 6.3,0.7 1.6,0.1 5.1,-0.6 6.2,-1.6 z"
       id="path933" />
    <path
       style="fill:#970000"
       inkscape:connector-curvature="0"
       d="m 722.8,488 c -1.9,0 -3.9,-0.3 -5.8,-0.8 -0.2,0 -0.3,-0.1 -0.4,-0.3 -0.2,-0.6 -0.3,-1.1 -0.3,-1.6 0,-0.1 0,-0.3 0.1,-0.4 0.1,-0.1 0.3,-0.1 0.4,-0.1 1.5,0.6 3.1,0.9 5,0.9 0.5,0 1,0 1.5,-0.1 1.2,-0.1 2.3,-0.4 3.4,-0.7 0.2,-0.1 0.4,-0.1 0.6,-0.2 0.8,-0.2 1.5,-0.4 2,-0.9 0.1,-0.1 0.3,-0.1 0.4,-0.1 0.1,0.1 0.2,0.2 0.2,0.4 0,0.5 -0.1,1.1 -0.1,1.6 0,0.1 -0.1,0.2 -0.1,0.2 l -0.1,0.1 c -1.2,1.1 -4.7,1.7 -6.3,1.8 -0.1,0.2 -0.3,0.2 -0.5,0.2 z m -5.5,-1.5 c 2,0.5 4.1,0.7 6.1,0.7 1.4,0 4.7,-0.7 5.8,-1.6 0,-0.2 0,-0.4 0.1,-0.6 -0.5,0.3 -1.1,0.4 -1.7,0.6 -0.2,0.1 -0.4,0.1 -0.6,0.2 -1.1,0.3 -2.3,0.6 -3.6,0.7 -0.5,0 -1.1,0.1 -1.6,0.1 -1.8,0 -3.2,-0.2 -4.6,-0.7 0,0.2 0,0.4 0.1,0.6 z"
       id="path935" />
  </g>
  <g
     transform="matrix(0.92269825,0,0,0.92269825,-584.34542,-300.0514)"
     id="g937">
    <path
       style="fill:#ff0000;fill-rule:evenodd"
       inkscape:connector-curvature="0"
       d="m 729.7,481.9 0,-0.7 c -0.3,0.3 -1.9,0.8 -2.4,1 -1,0.4 -2.2,0.7 -3.3,0.8 -1.2,0.1 -2.5,0 -3.7,-0.1 -1.2,-0.1 -2.5,-0.3 -3.7,-0.5 0,0.4 -0.1,0.9 0,1.3 l 0.1,0 c 2.2,0.3 4.5,0.7 6.8,0.6 2.2,-0.2 4.5,-0.9 6.3,-2 -0.1,-0.1 -0.1,-0.2 -0.1,-0.4 z"
       id="path939" />
    <path
       style="fill:#970000"
       inkscape:connector-curvature="0"
       d="m 722.3,484.7 c -1.5,0 -3,-0.2 -4.4,-0.4 -0.5,-0.1 -0.9,-0.1 -1.4,-0.2 -0.2,0 -0.4,-0.2 -0.4,-0.4 l 0,-1.4 c 0,-0.1 0.1,-0.2 0.2,-0.3 0.1,-0.1 0.2,-0.1 0.3,-0.1 1.3,0.3 2.5,0.5 3.7,0.5 0.3,0 0.5,0 0.8,0.1 1,0.1 1.9,0.2 2.8,0.1 1.2,-0.1 2.4,-0.4 3.2,-0.8 0.2,-0.1 0.4,-0.2 0.7,-0.3 0.5,-0.2 1.4,-0.5 1.6,-0.7 0.1,-0.1 0.3,-0.1 0.4,-0.1 0.1,0.1 0.2,0.2 0.2,0.3 l 0,0.3 0,0.4 0,0.4 c 0,0.1 -0.1,0.3 -0.2,0.3 -1.8,1.1 -4.2,1.9 -6.5,2 -0.3,0.3 -0.6,0.3 -1,0.3 z m -5.4,-1.3 c 0.4,0 0.8,0.1 1.1,0.2 1.8,0.2 3.6,0.5 5.3,0.4 2.1,-0.2 4.3,-0.8 6,-1.8 l 0,-0.2 c -0.3,0.1 -0.7,0.3 -1.3,0.5 -0.3,0.1 -0.5,0.2 -0.7,0.3 -1.2,0.5 -2.7,0.7 -3.4,0.8 -1,0.1 -2,0 -3,-0.1 -0.3,0 -0.5,0 -0.8,-0.1 -1,-0.1 -2.1,-0.2 -3.3,-0.5 0.1,0.2 0.1,0.3 0.1,0.5 z"
       id="path941" />
  </g>
  <g
     transform="matrix(0.92269825,0,0,0.92269825,-584.34542,-300.0514)"
     id="g943">
    <path
       style="fill:#ff0000;fill-rule:evenodd"
       inkscape:connector-curvature="0"
       d="m 727.1,460 c -0.2,-1.1 -0.6,-2.1 -1.2,-2.9 -0.4,-0.6 -0.9,-1.2 -1.5,-1.7 -0.1,0 -0.1,0 -0.2,-0.1 -0.4,-0.2 -0.9,-0.3 -1.3,-0.2 0.3,0.2 0.6,0.5 0.8,0.8 0.7,0.8 1.3,1.7 1.5,2.7 0.6,0.4 1.3,0.8 1.9,1.4 z"
       id="path945" />
    <path
       style="fill:#970000"
       inkscape:connector-curvature="0"
       d="m 727.1,460.4 c -0.1,0 -0.2,0 -0.3,-0.1 -0.6,-0.6 -1.3,-1 -1.9,-1.4 -0.1,-0.1 -0.2,-0.1 -0.2,-0.3 -0.2,-0.8 -0.6,-1.6 -1.4,-2.5 -0.2,-0.3 -0.5,-0.5 -0.7,-0.7 -0.1,-0.1 -0.2,-0.2 -0.2,-0.4 0,-0.1 0.1,-0.3 0.3,-0.3 0.5,-0.2 1,-0.1 1.6,0.2 l 0.1,0.1 c 0,0 0.1,0 0.1,0.1 0.7,0.4 1.2,1.1 1.6,1.8 0.7,1 1.1,2 1.3,3.1 0,0.2 -0.1,0.3 -0.2,0.4 0.1,-0.1 0,0 -0.1,0 z m -1.6,-2.1 c 0.3,0.2 0.7,0.4 1,0.7 -0.2,-0.6 -0.5,-1.2 -0.9,-1.7 -0.4,-0.6 -0.9,-1.2 -1.4,-1.6 0,0 -0.1,0 -0.2,-0.1 0.8,1 1.3,1.8 1.5,2.7 z"
       id="path947" />
  </g>
  <g
     transform="matrix(0.92269825,0,0,0.92269825,-584.34542,-300.0514)"
     id="g949">
    <path
       style="fill:#ff0000;fill-rule:evenodd"
       inkscape:connector-curvature="0"
       d="m 721.3,455.4 c -0.3,-0.3 -0.8,-0.6 -1.2,-0.2 -0.1,0.1 -0.3,0.3 -0.4,0.5 0.9,0.2 1.7,0.5 2.4,0.9 -0.2,-0.5 -0.5,-0.9 -0.8,-1.2 z"
       id="path951" />
    <path
       style="fill:#970000"
       inkscape:connector-curvature="0"
       d="m 722.1,456.9 -0.2,0 c -0.8,-0.4 -1.6,-0.7 -2.3,-0.8 -0.1,0 -0.2,-0.1 -0.3,-0.2 l 0,-0.4 c 0.1,-0.2 0.3,-0.4 0.5,-0.6 0.2,-0.2 0.4,-0.3 0.7,-0.3 0.4,0 0.8,0.3 1.1,0.5 0.4,0.3 0.7,0.7 0.9,1.2 0.1,0.1 0,0.3 -0.1,0.4 -0.1,0.1 -0.2,0.2 -0.3,0.2 z m -1.8,-1.5 c 0.2,0.1 0.4,0.1 0.6,0.2 -0.2,-0.2 -0.4,-0.2 -0.5,-0.2 l -0.1,0 z"
       id="path953" />
  </g>
  <g
     transform="matrix(0.92269825,0,0,0.92269825,-584.34542,-300.0514)"
     id="g955">
    <path
       style="fill:#ff0000;fill-rule:evenodd"
       inkscape:connector-curvature="0"
       d="m 708.2,481.3 c 1.3,-12.4 4.6,-12.4 7.7,-17.7 -0.3,-0.1 -0.6,-0.3 -0.9,-0.4 l -0.1,0.1 c -1.6,1.4 -2.9,3 -4.1,4.7 -1.2,1.9 -2.3,4.1 -2.9,6.2 -0.4,1.3 -0.6,2.6 -0.8,4 -0.2,0.9 -0.7,1.8 -0.3,2.7 0.3,0.7 0.7,0.7 1.3,0.8 0.1,-0.1 0.1,-0.3 0.1,-0.4 z"
       id="path957" />
    <path
       style="fill:#970000"
       inkscape:connector-curvature="0"
       d="m 708.1,482.1 c -0.2,0 -0.3,-0.1 -0.4,-0.1 -0.5,-0.1 -1,-0.2 -1.3,-1 -0.3,-0.8 -0.1,-1.6 0.1,-2.3 0.1,-0.2 0.1,-0.4 0.2,-0.6 0.2,-1.1 0.4,-2.5 0.8,-4 0.6,-2.1 1.7,-4.3 3,-6.3 1.2,-1.8 2.6,-3.4 4.2,-4.8 0.1,-0.2 0.3,-0.2 0.5,-0.1 0.3,0.1 0.6,0.2 0.9,0.4 0.1,0 0.2,0.1 0.2,0.2 l 0,0.3 c -0.9,1.5 -1.7,2.6 -2.6,3.6 -2.2,2.7 -4.1,5.1 -5.1,14 l 0,0.2 0,0.2 c 0,0.1 -0.1,0.2 -0.2,0.3 l -0.3,0 z m 7,-18.4 c -1.5,1.4 -2.8,2.9 -3.9,4.6 -1.3,2 -2.3,4.1 -2.9,6.1 -0.4,1.4 -0.6,2.8 -0.8,3.9 -0.1,0.2 -0.1,0.5 -0.2,0.7 -0.2,0.7 -0.4,1.3 -0.2,1.8 0.1,0.4 0.3,0.4 0.7,0.5 0.9,-9 3,-11.6 5.2,-14.3 0.8,-0.9 1.5,-1.9 2.3,-3.2 0,-0.1 -0.1,-0.1 -0.2,-0.1 z"
       id="path959" />
  </g>
  <g
     transform="matrix(0.92269825,0,0,0.92269825,-584.34542,-300.0514)"
     id="g961">
    <path
       style="fill:#ff0000;fill-rule:evenodd"
       inkscape:connector-curvature="0"
       d="m 729.6,479.9 c -2.7,1 -3.3,1.5 -6.2,1.4 -2.2,-0.1 -4.4,-0.5 -6.5,-0.9 -0.1,0.6 -0.2,1.1 -0.3,1.7 2.2,0.5 4.6,0.7 6.9,0.7 1,0 2.2,-0.3 3.2,-0.7 0.6,-0.2 2.8,-1 2.9,-1.3 l 0,-0.9 z"
       id="path963" />
    <path
       style="fill:#970000"
       inkscape:connector-curvature="0"
       d="m 723.1,483.2 c -2.2,0 -4.5,-0.2 -6.6,-0.7 -0.1,0 -0.2,0 -0.3,-0.1 -0.1,-0.1 -0.1,-0.2 -0.1,-0.3 0.1,-0.6 0.1,-1.2 0.3,-1.8 0,-0.2 0.2,-0.3 0.4,-0.3 l 0.1,0 c 2.2,0.4 4.2,0.8 6.4,0.8 2.4,0.1 3.1,-0.2 4.9,-0.9 0.3,-0.1 0.7,-0.3 1.2,-0.5 l 0.3,0 c 0.1,0.1 0.2,0.2 0.2,0.3 l 0.1,1 0,0.2 c -0.3,0.5 -3.1,1.4 -3.2,1.5 -1,0.3 -2.3,0.7 -3.3,0.7 l -0.4,0.1 z m -6.1,-1.4 c 2,0.4 4.1,0.6 6.1,0.6 l 0.4,0 c 1,0 2.2,-0.3 3.1,-0.6 0.6,-0.2 2.2,-0.8 2.7,-1.1 l 0,-0.3 c -0.2,0.1 -0.5,0.2 -0.7,0.3 -1.8,0.7 -2.6,1 -5.2,1 -2.1,-0.1 -4.2,-0.4 -6.2,-0.8 -0.2,0.3 -0.2,0.6 -0.2,0.9 z"
       id="path965" />
  </g>
  <g
     transform="matrix(0.92269825,0,0,0.92269825,-584.34542,-300.0514)"
     id="g967">
    <path
       style="fill:#ff0000;fill-rule:evenodd"
       inkscape:connector-curvature="0"
       d="m 727.5,460.3 1.8,1.8 c -0.5,-1.9 -2.4,-8 -4.6,-6.9 0.4,0.3 0.8,0.7 1.1,1.1 0.8,1.1 1.5,2.5 1.7,4 z"
       id="path969" />
    <path
       style="fill:#970000"
       inkscape:connector-curvature="0"
       d="m 729.2,462.5 c -0.1,0 -0.2,0 -0.3,-0.1 l -0.1,-0.1 c -0.6,-0.6 -1.1,-1.2 -1.7,-1.7 -0.1,-0.1 -0.1,-0.2 -0.1,-0.3 -0.1,-1.3 -0.7,-2.6 -1.7,-3.8 -0.3,-0.4 -0.7,-0.8 -1,-1 -0.1,-0.1 -0.2,-0.2 -0.2,-0.3 0,-0.1 0.1,-0.3 0.2,-0.3 0.2,-0.1 0.5,-0.2 0.7,-0.2 2.5,0 4.1,6.1 4.4,7.3 0,0.2 0,0.3 -0.2,0.4 0.2,0.1 0.1,0.1 0,0.1 z m -1.4,-2.4 0.6,0.6 c -0.7,-2.2 -1.8,-4.7 -2.9,-5.2 0.1,0.2 0.3,0.3 0.4,0.5 1.2,1.3 1.8,2.7 1.9,4.1 z"
       id="path971" />
  </g>
  <g
     transform="matrix(0.92269825,0,0,0.92269825,-584.34542,-300.0514)"
     id="g973">
    <path
       style="fill:#ff0000;fill-rule:evenodd"
       inkscape:connector-curvature="0"
       d="m 723.6,457.5 c 0.4,0.3 0.8,0.6 1.2,0.8 -0.2,-0.6 -0.5,-1.2 -0.9,-1.7 -0.3,-0.4 -0.6,-0.9 -1.1,-1.2 -0.1,-0.1 -0.2,-0.2 -0.4,-0.3 l -0.1,0 c -0.4,-0.2 -0.8,-0.3 -1.1,-0.1 0.5,0.4 0.9,1 1.1,1.7 0.5,0.2 0.9,0.5 1.3,0.8 z"
       id="path975" />
    <path
       style="fill:#970000"
       inkscape:connector-curvature="0"
       d="m 724.8,458.7 c -0.1,0 -0.1,0 -0.2,-0.1 -0.4,-0.3 -0.8,-0.5 -1.2,-0.8 -0.4,-0.3 -0.7,-0.5 -1.1,-0.8 -0.1,0 -0.1,-0.1 -0.2,-0.2 -0.2,-0.6 -0.5,-1.2 -1,-1.5 -0.1,-0.1 -0.2,-0.2 -0.2,-0.3 0,-0.1 0.1,-0.2 0.2,-0.3 0.4,-0.2 0.8,-0.2 1.4,0.1 l 0.1,0 c 0.2,0.1 0.3,0.2 0.4,0.3 0.4,0.3 0.8,0.7 1,1.1 l 0.1,0.1 c 0.4,0.5 0.7,1.1 0.9,1.8 0,0.2 0,0.3 -0.1,0.4 0,0.2 0,0.2 -0.1,0.2 z m -2,-2.2 c 0.4,0.2 0.8,0.5 1.1,0.7 -0.1,-0.1 -0.2,-0.2 -0.2,-0.4 l -0.1,-0.1 c -0.3,-0.4 -0.5,-0.8 -0.9,-1 -0.1,-0.1 -0.2,-0.2 -0.3,-0.2 0.1,0.3 0.2,0.6 0.4,1 z"
       id="path977" />
  </g>
  <g
     transform="matrix(0.92269825,0,0,0.92269825,-584.34542,-300.0514)"
     id="g979">
    <path
       style="fill:#ff0000;fill-rule:evenodd"
       inkscape:connector-curvature="0"
       d="m 708.9,470.9 c 0.5,-1 1,-2 1.6,-2.9 1.2,-1.8 2.6,-3.4 4.2,-4.9 -0.5,-0.2 -0.9,-0.3 -1.4,-0.5 -1.1,1 -2,2.3 -2.9,3.4 -0.9,1.2 -1.6,2.4 -2.4,3.8 -0.6,1.2 -1.5,2.8 -1.9,4.4 0,0.1 0,0.1 -0.1,0.3 -0.3,1.3 -0.2,2.6 0.7,3.7 0.1,-0.2 0.1,-0.4 0.1,-0.6 0.4,-2.3 1.2,-4.6 2.1,-6.7 z"
       id="path981" />
    <path
       style="fill:#970000"
       inkscape:connector-curvature="0"
       d="m 706.8,478.6 c -0.1,0 -0.2,0 -0.3,-0.1 -0.9,-1 -1.2,-2.4 -0.8,-4 l 0,-0.1 0,-0.2 c 0.4,-1.5 1.1,-2.9 1.8,-4.1 l 0.2,-0.4 c 0.7,-1.3 1.4,-2.6 2.4,-3.8 0.2,-0.3 0.5,-0.6 0.7,-0.9 0.7,-0.9 1.4,-1.8 2.2,-2.6 0.1,-0.1 0.2,-0.1 0.4,-0.1 0.5,0.1 1,0.3 1.4,0.5 0.1,0 0.2,0.2 0.2,0.3 0,0.1 0,0.3 -0.1,0.4 -1.6,1.5 -3,3.1 -4.2,4.8 -0.6,1 -1.1,1.9 -1.6,2.9 -1.1,2.4 -1.8,4.6 -2,6.6 0,0.2 -0.1,0.4 -0.1,0.7 0.2,-0.1 0.1,0 -0.2,0.1 0.1,0 0.1,0 0,0 z m 6.7,-15.5 c -0.7,0.7 -1.4,1.6 -2,2.4 -0.2,0.3 -0.5,0.6 -0.7,0.9 -0.9,1.1 -1.6,2.4 -2.3,3.7 l -0.2,0.4 c -0.6,1.1 -1.3,2.5 -1.7,3.9 l -0.1,0.3 c -0.2,1 -0.2,1.8 0.1,2.5 0.2,-1.9 0.9,-4 2,-6.4 0.4,-1 1,-1.9 1.6,-3 1.1,-1.6 2.3,-3.1 3.8,-4.5 -0.2,-0.1 -0.3,-0.2 -0.5,-0.2 z"
       id="path983" />
  </g>
  <g
     transform="matrix(0.92269825,0,0,0.92269825,-584.34542,-300.0514)"
     id="g985">
    <path
       style="fill:#ff0000;fill-rule:evenodd"
       inkscape:connector-curvature="0"
       d="m 709.8,466.5 c 1,-1.3 2,-2.7 3.3,-3.9 -0.6,-0.1 -1.1,-0.2 -1.7,-0.3 -1.8,1.5 -3,3.5 -4,5.6 -0.5,1 -1,2.1 -1.3,3.2 -0.3,0.9 -0.6,2 0,2.9 0.3,-1.2 0.9,-2.4 1.4,-3.3 0.6,-1.5 1.3,-3 2.3,-4.2 z"
       id="path987" />
    <path
       style="fill:#970000"
       inkscape:connector-curvature="0"
       d="m 706,474.4 c -0.1,0 -0.2,-0.1 -0.3,-0.2 -0.7,-1 -0.4,-2.2 -0.1,-3.2 0.3,-1.1 0.8,-2.1 1.3,-3.2 1,-2.1 2.2,-4.3 4.1,-5.8 0.1,-0.1 0.2,-0.1 0.3,-0.1 0.7,0.1 1.2,0.2 1.8,0.3 0.1,0 0.2,0.1 0.3,0.3 0,0.1 0,0.3 -0.1,0.4 -1,1 -1.9,2.1 -2.8,3.3 l -0.4,0.5 c -0.9,1.2 -1.6,2.6 -2.4,4.1 -0.5,1 -1,2.1 -1.4,3.3 0,0.2 -0.1,0.3 -0.3,0.3 z m 5.4,-11.7 c -1.7,1.4 -2.8,3.4 -3.8,5.4 -0.5,1 -1,2.1 -1.3,3.1 -0.2,0.5 -0.3,1 -0.3,1.5 0.3,-0.8 0.7,-1.5 1,-2.3 0.8,-1.6 1.5,-3 2.4,-4.3 l 0.4,-0.5 c 0.7,-1 1.5,-2 2.4,-2.9 -0.2,0.1 -0.5,0 -0.8,0 z"
       id="path989" />
  </g>
  <g
     transform="matrix(0.92269825,0,0,0.92269825,-584.34542,-300.0514)"
     id="g991">
    <path
       style="fill:#ff0000;fill-rule:evenodd"
       inkscape:connector-curvature="0"
       d="m 710.9,462.3 -0.3,0 c -0.3,0 -0.6,-0.1 -0.8,-0.3 -1,0.9 -2,2 -2.6,3.3 -0.6,1.1 -1.4,2.9 -0.9,4.3 0.2,-0.3 0.3,-0.7 0.5,-0.9 1,-2.5 2.2,-4.8 4.1,-6.4 z"
       id="path993" />
    <path
       style="fill:#970000"
       inkscape:connector-curvature="0"
       d="m 706.3,469.8 c -0.2,0 -0.3,-0.1 -0.4,-0.3 -0.4,-1.1 -0.1,-2.6 0.9,-4.6 0.6,-1.2 1.5,-2.4 2.7,-3.4 0.2,-0.1 0.4,-0.1 0.5,0 0.1,0.1 0.3,0.2 0.5,0.2 l 0.3,0 c 0.2,0 0.3,0.1 0.4,0.2 0.1,0.1 0,0.3 -0.1,0.4 -1.9,1.7 -3.1,4 -4.1,6.1 l -0.3,0.6 -0.2,0.3 c 0.1,0.4 0,0.5 -0.2,0.5 z m 3.5,-7.4 c -0.9,0.9 -1.7,1.9 -2.2,2.9 -0.5,1 -0.8,1.9 -0.9,2.6 0.8,-1.8 1.9,-3.8 3.5,-5.4 -0.2,0 -0.3,0 -0.4,-0.1 z"
       id="path995" />
  </g>
  <g
     transform="matrix(0.92269825,0,0,0.92269825,-584.34542,-300.0514)"
     id="g997">
    <path
       style="fill:#ff0000;fill-rule:evenodd"
       inkscape:connector-curvature="0"
       d="m 728.9,477 c -0.1,-0.3 -0.3,-0.7 -0.4,-1 -0.1,0.5 -0.1,1 -0.1,1.4 0,0.4 0,0.8 -0.1,1.2 0.4,-0.1 0.7,-0.2 1,-0.3 -0.1,-0.4 -0.2,-0.9 -0.4,-1.3 z"
       id="path999" />
    <path
       style="fill:#970000"
       inkscape:connector-curvature="0"
       d="m 728.3,479 c -0.1,0 -0.2,0 -0.3,-0.1 -0.1,-0.1 -0.1,-0.2 -0.1,-0.4 0,-0.2 0.1,-0.5 0.1,-0.7 l 0,-0.4 c 0,-0.5 0.1,-1 0.1,-1.5 0,-0.2 0.2,-0.3 0.3,-0.3 0.2,0 0.3,0.1 0.4,0.2 0.1,0.3 0.3,0.6 0.4,1 0.2,0.5 0.3,1 0.4,1.4 0,0.2 -0.1,0.4 -0.2,0.4 -0.3,0.2 -0.6,0.3 -1.1,0.4 z m 0.4,-1.3 0,0.2 0,0.3 0.1,0 c 0,-0.2 0,-0.4 -0.1,-0.5 z"
       id="path1001" />
  </g>
  <g
     transform="matrix(0.92269825,0,0,0.92269825,-584.34542,-300.0514)"
     id="g1003">
    <path
       style="fill:#ff0000;fill-rule:evenodd"
       inkscape:connector-curvature="0"
       d="m 728.9,488.3 c -1.6,1 -3.5,1.2 -5.4,1.2 -1,0 -1.9,-0.1 -2.9,-0.3 -0.5,-0.1 -1,-0.1 -1.4,-0.2 -0.1,0 -1.3,-0.3 -1.8,-0.4 0,0 0,0.1 0.1,0.2 0.2,0.5 0.7,0.9 0.8,1 1.5,0.8 3.4,0.9 5,0.9 1.7,-0.1 3.4,-0.4 5.1,-0.9 0,-0.2 0,-0.4 0.1,-0.6 0.2,-0.3 0.3,-0.6 0.4,-0.9 z"
       id="path1005" />
    <path
       style="fill:#970000"
       inkscape:connector-curvature="0"
       d="m 723,491 c -2.1,0 -3.6,-0.3 -4.8,-0.9 -0.2,-0.1 -0.7,-0.6 -1,-1.1 -0.1,-0.1 -0.1,-0.3 -0.1,-0.4 0,-0.1 0.1,-0.2 0.1,-0.3 0.1,-0.1 0.2,-0.1 0.3,-0.1 0.3,0.1 0.9,0.2 1.3,0.3 0.2,0.1 0.4,0.1 0.5,0.1 0.4,0.1 0.9,0.2 1.4,0.2 1.1,0.2 2,0.3 2.8,0.3 l 0.5,0 c 2,0 3.5,-0.4 4.6,-1.1 0.1,-0.1 0.3,-0.1 0.5,0 0.1,0.1 0.2,0.3 0.1,0.4 l -0.3,0.8 c 0,0.1 -0.1,0.3 -0.1,0.4 0,0.2 -0.1,0.3 -0.3,0.4 -1.7,0.6 -3.4,0.9 -5.2,1 l -0.3,0 z m -4.7,-1.8 c 0.1,0.2 0.3,0.3 0.3,0.3 1,0.5 2.4,0.8 4.4,0.8 l 0.4,0 c 1.6,-0.1 3.2,-0.3 4.7,-0.8 0,-0.1 0,-0.2 0.1,-0.3 -1.1,0.5 -2.5,0.7 -4.1,0.7 l -0.6,0 c -0.9,0 -1.8,-0.1 -2.9,-0.3 -0.5,-0.1 -1,-0.1 -1.4,-0.2 -0.1,0 -0.2,-0.1 -0.5,-0.1 -0.1,-0.1 -0.2,-0.1 -0.4,-0.1 z"
       id="path1007" />
  </g>
  <g
     transform="matrix(0.92269825,0,0,0.92269825,-584.34542,-300.0514)"
     id="g1009">
    <path
       style="fill:#ff0000;fill-rule:evenodd"
       inkscape:connector-curvature="0"
       d="m 730.3,473.6 c -1.2,-2.5 -2.5,-5.1 -4.4,-7.1 -1,-1 -2.2,-1.8 -3.3,-2.7 -1.2,-0.9 -2.4,-1.9 -3.7,-2.6 -1.3,-0.7 -2.8,-1.1 -4.2,-1.7 -0.7,-0.3 -1.3,-0.6 -2,-0.7 l -0.4,0 c -0.1,0 -0.1,0 -0.3,0.1 -0.5,0.2 -0.9,0.6 -1,1.2 0.5,0 1,0.1 1.4,0.1 1.5,0.2 2.9,0.7 4.3,1.2 2.1,0.8 6,3.9 7.5,5.4 1.1,1.1 2.2,2.3 3.1,3.6 1.5,2.1 2.6,4.5 3.2,7 0.6,2.4 0.9,5 0.7,7.5 -0.1,0.9 -0.2,2.7 -0.7,3.9 0.8,0.1 1.2,-0.5 1.5,-1.4 0,-0.1 0,-0.1 0.1,-0.2 0.6,-2 0.4,-5.5 0.3,-6.5 -0.4,-2.4 -1,-4.8 -2.1,-7.1 z"
       id="path1011" />
    <path
       style="fill:#970000"
       inkscape:connector-curvature="0"
       d="m 730.6,489.3 -0.2,0 c -0.1,0 -0.2,-0.1 -0.3,-0.2 -0.1,-0.1 -0.1,-0.2 0,-0.3 0.5,-1.2 0.6,-2.9 0.7,-3.7 0.2,-2.4 0,-5 -0.6,-7.4 -0.6,-2.4 -1.7,-4.8 -3.2,-6.9 -0.9,-1.2 -1.9,-2.4 -3,-3.5 -1.6,-1.6 -5.5,-4.5 -7.4,-5.3 -1.5,-0.6 -2.8,-1 -4.2,-1.2 -0.4,-0.1 -0.9,-0.1 -1.3,-0.1 -0.1,0 -0.2,0 -0.3,-0.1 -0.1,-0.1 -0.1,-0.2 -0.1,-0.3 0.1,-0.8 0.5,-1.4 1.2,-1.6 0.2,-0.1 0.2,-0.1 0.4,-0.1 l 0.5,0 c 0.6,0.1 1.2,0.3 1.7,0.5 0.2,0.1 0.3,0.1 0.5,0.2 0.4,0.2 0.9,0.3 1.3,0.5 1,0.4 2,0.7 2.9,1.2 1,0.5 1.9,1.2 2.7,1.9 0.3,0.3 0.6,0.5 1,0.7 1.1,0.8 2.3,1.7 3.3,2.7 2,2 3.3,4.7 4.5,7.2 1.1,2.4 1.8,4.9 2,7.4 0.1,1.2 0.3,4.6 -0.3,6.7 l -0.1,0.2 c -0.4,1.3 -1.2,1.5 -1.7,1.5 z m -19,-29.5 c 0.3,0 0.6,0.1 0.9,0.1 1.5,0.2 2.9,0.6 4.4,1.2 2.2,0.9 6.2,4 7.7,5.5 1.2,1.2 2.2,2.4 3.1,3.7 1.5,2.2 2.6,4.6 3.3,7.1 0.7,2.6 0.9,5.2 0.7,7.7 0,0.7 -0.1,2.1 -0.5,3.3 0.2,-0.1 0.4,-0.4 0.6,-0.9 l 0.1,-0.2 c 0.6,-1.9 0.4,-5.3 0.3,-6.4 -0.3,-2.5 -0.9,-4.9 -2,-7.2 -1.1,-2.5 -2.4,-5 -4.3,-7 -1,-1 -2.2,-1.9 -3.2,-2.6 -0.3,-0.2 -0.7,-0.5 -1,-0.8 -0.8,-0.7 -1.7,-1.3 -2.6,-1.8 -0.9,-0.5 -1.9,-0.8 -2.8,-1.2 -0.4,-0.2 -0.9,-0.3 -1.3,-0.5 -0.2,-0.1 -0.3,-0.1 -0.5,-0.2 -0.5,-0.2 -0.9,-0.4 -1.4,-0.5 l -0.4,0 -0.2,0.1 c -0.6,0.2 -0.8,0.4 -0.9,0.6 z"
       id="path1013" />
  </g>
  <g
     transform="matrix(0.92269825,0,0,0.92269825,-584.34542,-300.0514)"
     id="g1015">
    <path
       style="fill:#ff0000;fill-rule:evenodd"
       inkscape:connector-curvature="0"
       d="m 730.9,482 c -0.2,-2.7 -0.8,-5.3 -1.9,-7.8 -1.1,-2.4 -2.6,-4.6 -4.5,-6.5 -1.2,-1.3 -5.3,-4.5 -6.8,-5.4 -1.2,-0.7 -2.7,-1.2 -4.1,-1.5 -0.8,-0.2 -1.5,-0.3 -2.3,-0.4 -0.3,0 -0.7,0 -0.9,0.1 -0.9,0.3 -0.8,1.2 0.1,1.4 0.2,0 0.3,0.1 0.5,0.1 l 0.3,0 0.9,0 c 0.6,0.1 1.2,0.3 1.8,0.5 1.1,0.4 2.2,0.9 3.3,1.5 2.4,1.3 4.6,2.7 6.5,4.7 0.9,1 1.7,2 2.4,3.1 0.8,1.2 1.5,2.4 2.1,3.6 1.2,2.3 1.5,4.7 1.4,7.2 0,1.2 -0.1,2.5 -0.2,3.7 -0.1,0.7 -0.2,1.3 -0.5,1.9 -0.1,0.4 -0.7,1.1 -0.5,1.6 1.6,0.1 1.8,-2.7 2,-3.7 0.5,-1.3 0.5,-2.7 0.4,-4.1 z"
       id="path1017" />
    <path
       style="fill:#970000"
       inkscape:connector-curvature="0"
       d="m 728.9,490.2 -0.1,0 c -0.1,0 -0.3,-0.1 -0.3,-0.2 -0.2,-0.5 0.1,-1.1 0.3,-1.5 0.1,-0.1 0.1,-0.2 0.2,-0.3 0.3,-0.6 0.4,-1.2 0.4,-1.8 0.1,-1.1 0.2,-2.3 0.2,-3.6 0.1,-2.8 -0.4,-5.1 -1.4,-7 -0.6,-1.2 -1.3,-2.4 -2,-3.5 l -0.1,-0.1 c -0.7,-1.1 -1.5,-2.1 -2.4,-3.1 -1.9,-2 -4.3,-3.5 -6.4,-4.7 -1.2,-0.7 -2.2,-1.1 -3.2,-1.4 -0.5,-0.2 -1.1,-0.3 -1.7,-0.4 l -0.8,0 -0.2,0 c -0.2,0 -0.4,0 -0.7,-0.1 -0.6,-0.1 -1,-0.5 -1,-1 0,-0.5 0.3,-0.9 0.8,-1.1 0.3,-0.1 0.7,-0.1 1.1,-0.1 0.7,0.1 1.5,0.2 2.4,0.4 1.7,0.4 3.1,0.9 4.2,1.5 1.6,0.9 5.7,4.1 6.9,5.4 2,2.1 3.5,4.3 4.5,6.6 1.1,2.4 1.7,5.2 1.9,7.9 0.1,1.6 0,2.9 -0.2,4.1 l 0,0.3 c -0.3,1.2 -0.7,3.7 -2.4,3.7 z m -2.3,-18.6 c 0,0 0.1,0 0,0 0.9,1.2 1.6,2.5 2.2,3.8 1.1,2.1 1.6,4.4 1.5,7.4 0,1.3 -0.1,2.6 -0.2,3.7 -0.1,0.6 -0.2,1.3 -0.5,2 0,0.1 -0.1,0.3 -0.2,0.4 l -0.3,0.6 c 0.8,-0.3 1.1,-2.2 1.2,-3.1 l 0,-0.3 c 0.2,-1.2 0.2,-2.5 0.2,-4 -0.2,-2.6 -0.8,-5.3 -1.8,-7.6 -1,-2.2 -2.4,-4.3 -4.4,-6.4 -1.2,-1.2 -5.2,-4.4 -6.7,-5.3 -1,-0.6 -2.3,-1.1 -4,-1.4 -0.8,-0.2 -1.5,-0.3 -2.2,-0.4 -0.3,0 -0.6,0 -0.7,0.1 -0.3,0.1 -0.4,0.3 -0.4,0.4 0,0.1 0.1,0.2 0.4,0.3 0.2,0 0.5,0 0.7,0.1 l 1,0 c 0.7,0.1 1.3,0.3 1.9,0.5 1,0.3 2.1,0.8 3.3,1.5 2.2,1.2 4.6,2.7 6.6,4.8 0.9,0.7 1.7,1.8 2.4,2.9 z"
       id="path1019" />
  </g>
  <g
     transform="matrix(0.92269825,0,0,0.92269825,-584.34542,-300.0514)"
     id="g1021">
    <path
       style="fill:#ff0000;fill-rule:evenodd"
       inkscape:connector-curvature="0"
       d="m 729.4,478.6 c -1.1,0.4 -2.2,0.4 -3.3,0.7 -1,0.3 -1.9,0.5 -2.9,0.5 -2.2,0 -4.1,-0.1 -6.2,-0.9 -0.1,0.4 -0.2,0.8 -0.2,1.2 2.2,0.4 4.3,0.8 6.5,0.9 2.9,0.1 3.6,-0.4 6.2,-1.4 0,-0.3 -0.1,-0.7 -0.1,-1 z"
       id="path1023" />
    <path
       style="fill:#970000"
       inkscape:connector-curvature="0"
       d="m 723.9,481.4 -0.6,0 c -2.2,-0.1 -4.4,-0.5 -6.4,-0.8 l -0.1,0 c -0.2,0 -0.3,-0.2 -0.3,-0.4 0,-0.3 0.1,-0.7 0.2,-1 l 0,-0.2 c 0,-0.1 0.1,-0.2 0.2,-0.3 0.1,-0.1 0.2,-0.1 0.3,0 2,0.7 3.9,0.8 6,0.8 l 0.1,0 c 0.8,0 1.5,-0.2 2.3,-0.4 l 0.3,-0.1 c 0.4,-0.1 0.9,-0.2 1.3,-0.2 0.7,-0.1 1.3,-0.2 2,-0.4 l 0.3,0 c 0.1,0.1 0.2,0.2 0.2,0.3 0.1,0.3 0.1,0.7 0.1,1 0,0.2 -0.1,0.3 -0.2,0.4 -0.4,0.2 -0.8,0.3 -1.1,0.4 -1.6,0.5 -2.5,0.9 -4.6,0.9 z m -6.6,-1.6 c 2.1,0.4 4,0.7 6.1,0.8 2.3,0.1 3.1,-0.2 4.9,-0.9 0.3,-0.1 0.6,-0.2 0.9,-0.3 l 0,-0.2 c -0.6,0.2 -1.1,0.2 -1.7,0.3 -0.4,0.1 -0.8,0.1 -1.2,0.2 l -0.3,0.1 c -0.8,0.2 -1.6,0.4 -2.5,0.4 l -0.1,0 c -2,0 -3.9,-0.1 -5.9,-0.7 -0.2,0.1 -0.2,0.2 -0.2,0.3 z"
       id="path1025" />
  </g>
  <g
     transform="matrix(0.92269825,0,0,0.92269825,-584.34542,-300.0514)"
     id="g1027">
    <path
       style="fill:#ff0000;fill-rule:evenodd"
       inkscape:connector-curvature="0"
       d="m 733.7,479.2 c -0.1,-1.3 -0.5,-2.6 -0.9,-3.8 -1.3,-3.4 -3.7,-7.9 -6.2,-10.4 -2,-2 -4.4,-3.8 -6.9,-5.2 -1.2,-0.7 -2.6,-1.3 -3.9,-1.7 -0.4,-0.1 -0.8,-0.3 -1.2,-0.3 l -0.1,0 c -0.2,-0.1 -0.5,-0.1 -0.7,0 -0.5,0.1 -0.9,0.4 -1.1,0.9 0.2,0 0.4,0 0.6,0.1 0.9,0.2 1.8,0.7 2.7,1 0.8,0.3 1.7,0.7 2.5,1 1.5,0.6 2.7,1.7 4.1,2.7 1.4,1 2.9,2.1 4.1,3.4 2.1,2.3 3.6,5.3 4.7,8.2 1,2.7 1.6,5.6 1.6,8.4 0,1.4 -0.1,2.8 -0.4,4.1 1.8,-0.1 1.6,-2.7 1.6,-3.9 -0.3,-1.6 -0.3,-3.1 -0.5,-4.5 z"
       id="path1029" />
    <path
       style="fill:#970000"
       inkscape:connector-curvature="0"
       d="m 732.3,487.8 c -0.1,0 -0.2,-0.1 -0.3,-0.1 -0.1,-0.1 -0.1,-0.2 -0.1,-0.3 0.3,-1.1 0.4,-2.4 0.4,-4.1 0,-2.8 -0.5,-5.7 -1.5,-8.3 -1.3,-3.4 -2.9,-6.1 -4.6,-8 -1.1,-1.2 -2.4,-2.1 -3.8,-3.1 l -0.3,-0.2 c -0.3,-0.2 -0.5,-0.4 -0.8,-0.6 -1,-0.8 -2,-1.6 -3.2,-2 -0.5,-0.2 -1,-0.4 -1.6,-0.6 l -1.5,-0.6 c -0.7,-0.3 -1.4,-0.6 -2.1,-0.8 -0.3,-0.1 -0.7,0 -0.8,-0.2 -0.1,-0.1 -0.1,-0.3 0,-0.4 0.3,-0.6 0.8,-0.9 1.4,-1.1 0.3,-0.1 0.6,-0.1 0.9,0 l 1.2,0.3 0.2,0.1 c 1.4,0.4 2.7,1 4,1.8 2.6,1.4 5,3.2 7,5.2 2.6,2.6 4.9,7.1 6.3,10.6 0.5,1.2 0.8,2.6 1,3.9 0.2,1.4 0.2,2.7 0.2,4.3 l 0,0.2 c 0,1.2 0.1,3.9 -2,4 z m -19.1,-29.5 c 0.7,0.2 1.5,0.5 2.2,0.8 l 1.5,0.6 c 0.5,0.2 1,0.4 1.6,0.6 1.3,0.5 2.4,1.4 3.4,2.1 0.3,0.2 0.5,0.4 0.8,0.6 l 0.2,0.2 c 1.3,1 2.7,2 3.9,3.2 1.8,2 3.4,4.8 4.8,8.3 1.1,2.7 1.6,5.7 1.6,8.6 0,1.4 -0.1,2.6 -0.3,3.6 0.7,-0.4 0.8,-1.8 0.7,-3.2 l 0,-0.3 c 0,-1.6 0,-2.9 -0.2,-4.2 -0.1,-1.3 -0.4,-2.6 -0.9,-3.7 -1.3,-3.3 -3.6,-7.8 -6.1,-10.3 -2,-2 -4.3,-3.7 -6.9,-5.1 -1.3,-0.7 -2.6,-1.3 -3.9,-1.7 l -0.2,-0.1 c -0.3,-0.1 -0.7,-0.2 -1,-0.3 l -0.1,0 c -0.3,-0.1 -0.5,-0.1 -0.6,0 -0.2,0.1 -0.4,0.2 -0.5,0.3 z"
       id="path1031" />
  </g>
  <g
     transform="matrix(0.92269825,0,0,0.92269825,-584.34542,-300.0514)"
     id="g1033">
    <path
       style="fill:#ff0000;fill-rule:evenodd"
       inkscape:connector-curvature="0"
       d="m 737.4,480.2 c 0.1,0.7 0,1.4 -0.1,2.1 0.9,-1 1.4,-2.4 1.9,-3.6 0.3,-0.7 0.5,-1.4 0.7,-2.2 0.1,-0.6 0.3,-1.1 0.2,-1.7 -0.1,0.6 -0.3,1.2 -0.5,1.7 -0.6,1.4 -1.4,2.5 -2.2,3.7 z"
       id="path1035" />
    <path
       style="fill:#970000"
       inkscape:connector-curvature="0"
       d="m 737.3,482.7 -0.2,0 c -0.2,-0.1 -0.2,-0.2 -0.2,-0.4 0.1,-0.8 0.2,-1.4 0.1,-2 0,-0.1 0,-0.2 0.1,-0.3 0.8,-1.1 1.6,-2.3 2.1,-3.6 0.2,-0.5 0.4,-1 0.5,-1.6 0,-0.2 0.2,-0.3 0.4,-0.3 0.2,0 0.3,0.1 0.4,0.3 0.1,0.6 -0.1,1.3 -0.2,1.9 -0.2,0.7 -0.4,1.3 -0.6,1.9 l -0.1,0.3 c -0.5,1.3 -1,2.7 -2,3.7 -0.1,0.1 -0.2,0.1 -0.3,0.1 z m 0.5,-2.4 0,0.6 c 0.4,-0.6 0.6,-1.3 0.9,-1.9 -0.3,0.4 -0.6,0.9 -0.9,1.3 z"
       id="path1037" />
  </g>
  <g
     transform="matrix(0.92269825,0,0,0.92269825,-584.34542,-300.0514)"
     id="g1039">
    <path
       style="fill:#ff0000;fill-rule:evenodd"
       inkscape:connector-curvature="0"
       d="m 736.2,476.7 c -0.3,-1.1 -0.2,-2.4 -0.5,-3.5 -0.4,-1.2 -1,-2.3 -1.5,-3.5 -1.1,-2.4 -2.6,-4.5 -4.3,-6.5 -0.9,-1 -1.7,-2 -2.7,-2.9 -0.7,-0.7 -1.2,-1 -2,-1.5 -0.1,-0.1 -0.2,-0.1 -0.3,-0.1 -0.3,-0.1 -0.5,-0.3 -0.7,-0.4 -1.1,-0.8 -2.1,-1.6 -3.4,-2.1 -0.8,-0.3 -3,-1 -3.7,-0.1 1.3,0.3 2.6,1 3.7,1.7 2.7,1.7 5.5,3.4 7.5,5.9 2,2.4 3.8,5.1 5,8 0.6,1.4 1,2.8 1.4,4.3 0.4,1.5 0.9,2.9 1,4.5 0.1,1.4 0.1,2.8 -0.1,4.2 0.7,-0.1 1.1,-0.9 1.3,-1.8 l 0,-0.2 c 0.2,-0.9 0.2,-1.7 0.2,-2.2 0,-1.3 -0.6,-2.5 -0.9,-3.8 z"
       id="path1041" />
    <path
       style="fill:#970000"
       inkscape:connector-curvature="0"
       d="m 735.6,485.1 c -0.1,0 -0.2,0 -0.3,-0.1 -0.1,-0.1 -0.1,-0.2 -0.1,-0.3 0.2,-1.4 0.2,-2.8 0.1,-4.1 -0.1,-1.3 -0.5,-2.6 -0.8,-3.8 l -0.2,-0.6 c -0.5,-1.7 -0.9,-3 -1.4,-4.2 -1.1,-2.6 -2.8,-5.2 -5,-7.9 -1.9,-2.4 -4.7,-4.2 -7.4,-5.8 -1,-0.6 -2.2,-1.3 -3.6,-1.6 -0.1,0 -0.2,-0.1 -0.3,-0.2 0,-0.1 0,-0.3 0.1,-0.4 0.6,-0.7 2,-0.7 4.1,0 1.3,0.4 2.2,1.2 3.2,1.9 l 0.4,0.3 c 0.2,0.1 0.3,0.2 0.5,0.3 l 0.1,0.1 c 0,0 0.1,0 0.2,0.1 0.9,0.5 1.4,0.9 2.1,1.6 0.9,0.8 1.7,1.8 2.7,2.9 1.8,2.1 3.3,4.3 4.4,6.6 0.1,0.3 0.3,0.6 0.4,0.9 0.4,0.9 0.8,1.7 1.1,2.7 0.2,0.7 0.3,1.4 0.3,2 0.1,0.5 0.1,1 0.2,1.5 0.1,0.4 0.2,0.8 0.4,1.2 0.3,0.8 0.5,1.7 0.6,2.6 0,0.5 0,1.4 -0.2,2.2 l 0,0.1 0,0.1 c 0,0.2 -0.4,1.8 -1.6,1.9 z m -17.3,-29 c 1,0.4 1.9,0.9 2.6,1.4 2.8,1.7 5.6,3.5 7.6,6 2.2,2.7 3.9,5.4 5.1,8 0.5,1.2 1,2.6 1.5,4.3 l 0.2,0.6 c 0.3,1.3 0.7,2.6 0.8,3.9 0.1,1.1 0.1,2.3 0,3.5 0.2,-0.3 0.4,-0.7 0.5,-1.2 l 0,-0.1 0,-0.1 c 0.2,-0.8 0.2,-1.7 0.2,-2.1 0,-0.8 -0.3,-1.6 -0.5,-2.4 -0.1,-0.4 -0.3,-0.8 -0.4,-1.3 -0.1,-0.5 -0.2,-1.1 -0.2,-1.6 -0.1,-0.6 -0.1,-1.3 -0.3,-1.9 -0.3,-0.9 -0.7,-1.7 -1.1,-2.6 -0.1,-0.3 -0.3,-0.6 -0.4,-0.9 -1.1,-2.3 -2.5,-4.4 -4.2,-6.4 -0.9,-1.1 -1.8,-2 -2.6,-2.8 -0.7,-0.6 -1.1,-1 -2,-1.5 -0.1,0 -0.1,-0.1 -0.1,-0.1 0,0 -0.1,0 -0.1,-0.1 -0.2,-0.1 -0.3,-0.2 -0.5,-0.3 l -0.5,-0.3 c -1,-0.7 -1.9,-1.4 -3,-1.8 -1.2,0 -2,-0.2 -2.6,-0.2 z"
       id="path1043" />
  </g>
  <g
     transform="matrix(0.92269825,0,0,0.92269825,-584.34542,-300.0514)"
     id="g1045">
    <path
       style="fill:#ff0000;fill-rule:evenodd"
       inkscape:connector-curvature="0"
       d="m 723.3,468.5 -0.2,-0.2 c -0.2,-0.2 -0.4,-0.4 -0.6,-0.5 l -0.6,0.9 c 1.8,3.3 2.3,7.1 2.2,10.9 0.4,-0.1 0.8,-0.1 1.2,-0.3 0.1,-1.8 -0.1,-3.6 -0.3,-5.4 -0.2,-1.8 -1,-3.5 -1.6,-5.1 -0.1,-0.2 -0.1,-0.2 -0.1,-0.3 z"
       id="path1047" />
    <path
       style="fill:#970000"
       inkscape:connector-curvature="0"
       d="m 724.1,479.9 c -0.1,0 -0.2,0 -0.3,-0.1 -0.1,-0.1 -0.1,-0.2 -0.1,-0.3 0,-4.5 -0.7,-7.9 -2.2,-10.7 -0.1,-0.1 -0.1,-0.3 0,-0.4 l 0.6,-0.9 c 0.1,-0.1 0.2,-0.1 0.3,-0.2 0.1,0 0.2,0 0.3,0.1 l 0.6,0.6 0.2,0.2 c 0.1,0.1 0.1,0.2 0.1,0.3 l 0,0.1 c 0.1,0.4 0.3,0.8 0.4,1.2 0.5,1.3 1,2.6 1.2,4 0.3,2 0.4,3.8 0.3,5.5 0,0.2 -0.1,0.3 -0.3,0.4 -0.3,0 -0.7,0.1 -1.1,0.2 z m -1.8,-11.2 c 1.5,2.8 2.2,6.1 2.2,10.4 0.2,0 0.3,-0.1 0.5,-0.1 0.1,-1.6 -0.1,-3.2 -0.3,-5.1 -0.2,-1.3 -0.7,-2.6 -1.2,-3.8 -0.2,-0.4 -0.3,-0.8 -0.5,-1.2 l 0,-0.1 -0.1,-0.1 c -0.1,-0.1 -0.2,-0.2 -0.3,-0.2 l -0.3,0.2 z"
       id="path1049" />
  </g>
  <g
     transform="matrix(0.92269825,0,0,0.92269825,-584.34542,-300.0514)"
     id="g1051">
    <path
       style="fill:#ff0000;fill-rule:evenodd"
       inkscape:connector-curvature="0"
       d="m 734.9,477.6 c -0.7,-2.5 -1.4,-5 -2.6,-7.3 -1.2,-2.3 -2.7,-4.6 -4.4,-6.6 -1.8,-2.1 -4.1,-3.5 -6.3,-5 -1,-0.7 -2.1,-1.3 -3.2,-1.8 -0.3,-0.1 -0.8,-0.3 -1.3,-0.4 -0.2,0 -0.1,0 -0.3,-0.1 -0.9,-0.1 -1.9,0 -2,1 1.6,0.3 3.3,1 4.7,1.8 2.8,1.5 5.6,3.5 7.8,5.9 2.7,2.8 5.6,8.4 6.5,12 0.3,1.4 0.5,2.9 0.5,4.3 0.1,1.4 0.2,3 -0.1,4.3 0,0.1 -0.1,0.3 -0.1,0.4 0.7,0.1 1.1,-0.5 1.3,-1.3 0,-0.1 0,-0.1 0.1,-0.3 0.2,-1 0.1,-2.2 0.2,-2.8 -0.2,-1.3 -0.5,-2.7 -0.8,-4.1 z"
       id="path1053" />
    <path
       style="fill:#970000"
       inkscape:connector-curvature="0"
       d="m 734.1,486.6 -0.1,0 c -0.1,0 -0.2,-0.1 -0.3,-0.2 -0.1,-0.1 -0.1,-0.2 -0.1,-0.3 l 0,-0.2 0,-0.1 c 0.2,-1.1 0.2,-2.3 0.1,-3.5 l 0,-0.8 c -0.1,-1.7 -0.2,-3 -0.5,-4.3 -0.9,-3.8 -3.9,-9.2 -6.4,-11.9 -2.1,-2.2 -4.8,-4.2 -7.7,-5.8 -1.8,-0.9 -3.3,-1.5 -4.6,-1.8 -0.2,0 -0.3,-0.2 -0.3,-0.4 0.1,-0.9 0.8,-1.4 1.9,-1.4 l 0.6,0 0.2,0 0.1,0 c 0.5,0.1 1,0.2 1.4,0.4 1.3,0.5 2.4,1.2 3.3,1.8 l 0.9,0.6 c 2,1.3 4,2.6 5.6,4.5 1.6,2 3.2,4.3 4.5,6.7 1.3,2.4 2,5 2.6,7.4 0.5,1.6 0.7,3 0.7,4.4 l 0,0.6 c 0,0.6 0,1.5 -0.2,2.3 l 0,0.2 0,0.2 c -0.5,1.4 -1.2,1.6 -1.7,1.6 z m -19,-29.4 c 1.3,0.3 2.7,0.9 4.4,1.8 3,1.6 5.8,3.7 7.9,5.9 2.6,2.7 5.6,8.3 6.6,12.2 0.3,1.3 0.5,2.7 0.5,4.4 l 0,0.8 c 0.1,1.1 0.1,2.3 -0.1,3.4 0.1,-0.1 0.3,-0.4 0.4,-0.8 l 0,-0.2 0,-0.1 c 0.1,-0.7 0.1,-1.5 0.2,-2.2 l 0,-0.6 c 0,-1.3 -0.2,-2.7 -0.6,-4.2 -0.6,-2.4 -1.3,-4.9 -2.6,-7.2 -1.3,-2.4 -2.8,-4.6 -4.4,-6.5 -1.5,-1.8 -3.5,-3.1 -5.4,-4.4 l -0.9,-0.6 c -0.8,-0.6 -2,-1.3 -3.2,-1.7 -0.3,-0.1 -0.8,-0.3 -1.2,-0.3 l -0.2,0 -0.1,0 -0.5,0 c -0.4,-0.2 -0.7,0.1 -0.8,0.3 z"
       id="path1055" />
  </g>
  <g
     transform="matrix(0.92269825,0,0,0.92269825,-584.34542,-300.0514)"
     id="g1057">
    <path
       style="fill:#ff0000;fill-rule:evenodd"
       inkscape:connector-curvature="0"
       d="m 722.8,479.5 0.4,0 0.6,0 c 0,-3.6 -0.4,-7.4 -2.2,-10.6 -0.3,0.4 -0.5,0.8 -0.8,1.2 0.7,1.6 1.1,3.2 1.4,4.9 0.4,1.5 0.8,3 0.6,4.5 z"
       id="path1059" />
    <path
       style="fill:#970000"
       inkscape:connector-curvature="0"
       d="m 723.2,479.9 -0.4,0 c -0.1,0 -0.2,0 -0.3,-0.1 -0.1,-0.1 -0.1,-0.2 -0.1,-0.3 0.1,-1.3 -0.1,-2.7 -0.4,-4.1 l -0.1,-0.4 c -0.4,-2 -0.8,-3.5 -1.4,-4.8 -0.1,-0.1 0,-0.3 0,-0.4 0.3,-0.4 0.5,-0.8 0.8,-1.1 0.1,-0.1 0.2,-0.2 0.3,-0.2 0.1,0 0.3,0.1 0.3,0.2 1.5,2.8 2.2,6.3 2.2,10.8 0,0.2 -0.1,0.3 -0.3,0.4 l -0.6,0 z m 0,-0.7 0.2,0 c 0,-3.9 -0.6,-7 -1.8,-9.5 -0.1,0.2 -0.2,0.3 -0.3,0.5 0.6,1.3 1,2.8 1.4,4.8 l 0.1,0.4 c 0.2,1.1 0.5,2.4 0.4,3.8 z"
       id="path1061" />
  </g>
  <g
     transform="matrix(0.92269825,0,0,0.92269825,-584.34542,-300.0514)"
     id="g1063">
    <path
       style="fill:#ff0000;fill-rule:evenodd"
       inkscape:connector-curvature="0"
       d="m 723.7,469 c 0.6,1.6 1.3,3.3 1.5,5 0.3,1.7 0.4,3.5 0.3,5.2 0.2,-0.1 0.5,-0.1 0.7,-0.2 0.1,0 0.2,0 0.3,-0.1 0.2,-2.3 0.2,-4.6 -0.5,-6.8 -0.6,-1.1 -1.4,-2.1 -2.3,-3.1 z"
       id="path1065" />
    <path
       style="fill:#970000"
       inkscape:connector-curvature="0"
       d="m 725.6,479.6 c -0.1,0 -0.2,0 -0.2,-0.1 -0.1,-0.1 -0.2,-0.2 -0.2,-0.3 0.1,-1.5 0,-3.2 -0.3,-5.1 -0.2,-1.4 -0.7,-2.8 -1.2,-4.1 l -0.3,-0.8 c -0.1,-0.2 0,-0.4 0.2,-0.5 0.2,-0.1 0.4,-0.1 0.5,0.1 0.8,0.8 1.5,1.8 2.4,3.2 0,0 0,0.1 0.1,0.1 0.8,2.5 0.7,5 0.5,7 0,0.2 -0.1,0.3 -0.3,0.3 -0.1,0 -0.3,0.1 -0.4,0.1 -0.1,0 -0.3,0.1 -0.5,0.2 -0.2,-0.2 -0.3,-0.1 -0.3,-0.1 z m -0.7,-8.6 c 0.3,1 0.6,1.9 0.8,3 0.3,1.7 0.4,3.3 0.3,4.7 l 0.2,0 0.1,0 c 0.2,-2.6 0.1,-4.5 -0.4,-6.3 -0.4,-0.6 -0.7,-1 -1,-1.4 z"
       id="path1067" />
  </g>
  <g
     transform="matrix(0.92269825,0,0,0.92269825,-584.34542,-300.0514)"
     id="g1069">
    <path
       style="fill:#ff0000;fill-rule:evenodd"
       inkscape:connector-curvature="0"
       d="m 720,471.7 c 0.4,1.3 0.9,2.6 1.1,3.9 0.2,1.3 0.2,2.6 0.2,3.9 0.4,0.1 0.8,0.1 1.2,0.1 0.2,-1.6 -0.2,-3.2 -0.6,-4.7 -0.3,-1.5 -0.7,-3 -1.3,-4.5 -0.3,0.4 -0.5,0.7 -0.7,1.1 0.1,0.1 0.1,0.2 0.1,0.2 z"
       id="path1071" />
    <path
       style="fill:#970000"
       inkscape:connector-curvature="0"
       d="m 722.5,479.9 -0.4,0 c -0.3,0 -0.6,0 -0.9,-0.1 -0.2,0 -0.3,-0.2 -0.3,-0.4 l 0,-0.8 c 0,-1 0,-2 -0.2,-3 -0.2,-1 -0.5,-2 -0.8,-3 -0.1,-0.3 -0.2,-0.5 -0.3,-0.8 l 0,-0.1 0,-0.1 0,-0.3 0.6,-0.9 0.2,-0.2 c 0.1,-0.1 0.2,-0.2 0.4,-0.2 0.1,0 0.3,0.1 0.3,0.2 0.6,1.6 1,3.2 1.3,4.5 l 0.1,0.5 c 0.3,1.4 0.6,2.9 0.5,4.3 -0.1,0.3 -0.3,0.4 -0.5,0.4 z m -0.8,-0.8 0.5,0 c 0.1,-1.2 -0.2,-2.5 -0.5,-3.7 l -0.1,-0.5 c -0.2,-1.1 -0.5,-2.4 -1,-3.7 -0.1,0.1 -0.2,0.2 -0.2,0.4 l 0,0.1 c 0.1,0.3 0.2,0.5 0.2,0.8 0.3,1 0.7,2.1 0.8,3.1 0.2,1 0.2,2.1 0.2,3.1 l 0.1,0.4 z"
       id="path1073" />
  </g>
  <g
     transform="matrix(0.92269825,0,0,0.92269825,-584.34542,-300.0514)"
     id="g1075">
    <path
       style="fill:#ff0000;fill-rule:evenodd"
       inkscape:connector-curvature="0"
       d="m 718.5,479.1 c 0.4,0.1 0.8,0.2 1.2,0.2 0,-2 0,-3.9 -0.9,-5.8 -0.3,0.7 -0.6,1.3 -0.9,2 0.3,1.2 0.5,2.4 0.6,3.6 z"
       id="path1077" />
    <path
       style="fill:#970000"
       inkscape:connector-curvature="0"
       d="m 719.7,479.7 c -0.1,0 -0.1,0 0,0 -0.4,-0.1 -0.8,-0.1 -1.2,-0.2 -0.2,0 -0.3,-0.2 -0.3,-0.4 -0.1,-1.1 -0.2,-2.3 -0.6,-3.5 l 0,-0.2 c 0.3,-0.7 0.5,-1.3 0.9,-2 0.1,-0.1 0.2,-0.2 0.3,-0.2 0.1,0 0.3,0.1 0.3,0.2 0.9,2 0.9,4.2 0.9,5.9 0,0.1 0,0.2 -0.1,0.3 -0.1,0.1 -0.2,0.1 -0.2,0.1 z m -0.8,-0.9 c 0.1,0 0.3,0.1 0.4,0.1 0,-1.4 -0.1,-2.9 -0.5,-4.3 -0.1,0.3 -0.3,0.7 -0.4,1 0.2,1.1 0.4,2.1 0.5,3.2 z"
       id="path1079" />
  </g>
  <g
     transform="matrix(0.92269825,0,0,0.92269825,-584.34542,-300.0514)"
     id="g1081">
    <path
       style="fill:#ff0000;fill-rule:evenodd"
       inkscape:connector-curvature="0"
       d="m 719.9,479.3 c 0.3,0.1 0.7,0.1 1,0.1 0,-1.3 0,-2.6 -0.2,-3.8 -0.2,-1.3 -0.7,-2.6 -1,-3.8 -0.3,0.5 -0.5,0.9 -0.8,1.4 1,1.9 1,4.1 1,6.1 z"
       id="path1083" />
    <path
       style="fill:#970000"
       inkscape:connector-curvature="0"
       d="m 721,479.8 0,-0.4 -0.1,0.4 c -0.3,0 -0.7,-0.1 -1,-0.1 -0.2,0 -0.3,-0.2 -0.3,-0.4 0,-2.1 -0.1,-4.1 -1,-5.9 -0.1,-0.1 -0.1,-0.2 0,-0.3 0.3,-0.5 0.5,-0.9 0.8,-1.4 0.1,-0.1 0.2,-0.2 0.4,-0.2 0.2,0 0.3,0.1 0.3,0.3 0.1,0.3 0.2,0.7 0.3,1 0.3,0.9 0.6,1.9 0.8,2.9 0.2,1 0.2,2.1 0.2,3.1 l 0,0.8 c 0,0.1 0,0.2 -0.1,0.3 -0.1,-0.1 -0.2,-0.1 -0.3,-0.1 z m -0.7,-0.8 0.3,0 0,-0.3 c 0,-1 0,-2 -0.2,-3 -0.1,-0.9 -0.4,-1.9 -0.7,-2.8 l 0,-0.2 c -0.1,0.2 -0.2,0.3 -0.3,0.5 0.8,1.8 0.9,3.8 0.9,5.8 z"
       id="path1085" />
  </g>
  <g
     transform="matrix(0.92269825,0,0,0.92269825,-584.34542,-300.0514)"
     id="g1087">
    <path
       style="fill:#ff0000;fill-rule:evenodd"
       inkscape:connector-curvature="0"
       d="m 728.2,475.5 c -0.5,-0.9 -1,-1.8 -1.6,-2.7 0.5,2 0.4,3.9 0.2,6 0.4,-0.1 0.7,-0.1 1.1,-0.2 0.2,-0.5 0.1,-1.1 0.1,-1.6 0.1,-0.4 0.2,-0.9 0.2,-1.5 z"
       id="path1089" />
    <path
       style="fill:#970000"
       inkscape:connector-curvature="0"
       d="m 726.9,479.2 c -0.1,0 -0.2,0 -0.3,-0.1 -0.1,-0.1 -0.1,-0.2 -0.1,-0.3 0.2,-2.4 0.2,-4.2 -0.2,-5.9 0,-0.2 0.1,-0.4 0.2,-0.4 0.2,-0.1 0.4,0 0.5,0.1 0.6,0.8 1.1,1.8 1.6,2.7 l 0,0.2 c -0.1,0.6 -0.1,1.1 -0.1,1.5 l 0,0.6 c 0,0.4 0,0.8 -0.1,1.2 0,0.1 -0.2,0.2 -0.3,0.3 l -1.2,0.1 z m 0.4,-4.5 c 0.1,1.1 0.1,2.3 0,3.7 l 0.3,-0.1 0,-0.7 0,-0.6 c 0,-0.4 0,-0.9 0.1,-1.4 0,-0.3 -0.2,-0.6 -0.4,-0.9 z"
       id="path1091" />
  </g>
  <g
     transform="matrix(0.92269825,0,0,0.92269825,-584.34542,-300.0514)"
     id="g1093">
    <path
       style="fill:#ff0000;fill-rule:evenodd"
       inkscape:connector-curvature="0"
       d="m 717.1,478.7 c 0.4,0.1 0.7,0.2 1.1,0.3 -0.1,-1 -0.2,-2 -0.5,-3 -0.2,0.7 -0.4,1.4 -0.6,2.2 0.1,0.2 0,0.3 0,0.5 z"
       id="path1095" />
    <path
       style="fill:#970000"
       inkscape:connector-curvature="0"
       d="m 718.2,479.4 -0.1,0 -0.3,-0.1 c -0.3,-0.1 -0.5,-0.1 -0.8,-0.2 -0.1,0 -0.2,-0.1 -0.2,-0.1 -0.1,-0.1 -0.1,-0.2 -0.1,-0.3 l 0.1,-0.5 c 0.1,-0.7 0.3,-1.5 0.6,-2.3 0.1,-0.2 0.2,-0.3 0.4,-0.3 0.2,0 0.3,0.1 0.4,0.3 0.2,0.9 0.4,2 0.5,3.1 0,0.1 0,0.2 -0.1,0.3 -0.2,0.1 -0.3,0.1 -0.4,0.1 z m -0.7,-1 c 0.1,0 0.2,0.1 0.2,0.1 0,-0.3 -0.1,-0.6 -0.1,-0.8 0,0.2 -0.1,0.4 -0.1,0.6 l 0,0.1 z"
       id="path1097" />
  </g>
  <g
     transform="matrix(0.92269825,0,0,0.92269825,-584.34542,-300.0514)"
     id="g1099">
    <path
       style="fill:#ff0000;fill-rule:evenodd"
       inkscape:connector-curvature="0"
       d="m 739.7,467.6 c 0,0.9 -0.1,1.8 -0.1,2.6 -0.3,4.1 -0.7,4.3 -2.5,7.9 0,0.1 -0.1,0.1 -0.1,0.2 0.1,0.4 0.2,0.7 0.3,1.2 l 0,0.3 c 0.6,-0.9 1.2,-1.7 1.6,-2.6 0.5,-1 0.8,-2.1 1,-3.1 0.3,-1.1 0.5,-2.2 0.5,-3.4 0.1,-1.1 0.1,-2.4 -0.7,-3.1 z"
       id="path1101" />
    <path
       style="fill:#970000"
       inkscape:connector-curvature="0"
       d="m 737.3,480.1 -0.1,0 c -0.2,-0.1 -0.3,-0.2 -0.3,-0.4 l 0,-0.1 0,-0.2 c -0.1,-0.3 -0.1,-0.6 -0.3,-1.1 l 0,-0.3 c 0,0 0,-0.1 0.1,-0.1 l 0.5,-1 c 1.4,-2.7 1.7,-3.2 2,-6.8 l 0,-0.3 c 0.1,-0.7 0.1,-1.5 0.1,-2.2 0,-0.1 0.1,-0.3 0.2,-0.3 0.1,-0.1 0.3,-0.1 0.4,0 1,0.7 1,2.1 1,3 l 0,0.2 c 0,1.2 -0.2,2.3 -0.5,3.5 -0.3,1.1 -0.5,2.2 -1.1,3.2 -0.5,1 -1.1,1.8 -1.7,2.7 0,0.2 -0.2,0.2 -0.3,0.2 z m 0.1,-1.7 c 0.1,0.2 0.1,0.3 0.1,0.4 0.4,-0.6 0.8,-1.2 1.1,-1.8 0.5,-1 0.8,-2.1 1,-3.1 0.3,-1.2 0.5,-2.2 0.4,-3.3 l 0,-0.3 c 0,-0.4 0,-0.9 -0.1,-1.3 0,0.3 0,0.6 -0.1,0.8 l 0,0.3 c -0.3,3.8 -0.6,4.4 -2,7.1 l -0.4,1.2 0,0 z"
       id="path1103" />
  </g>
  <g
     transform="matrix(0.92269825,0,0,0.92269825,-584.34542,-300.0514)"
     id="g1105">
    <path
       style="fill:#ff0000;fill-rule:evenodd"
       inkscape:connector-curvature="0"
       d="m 729.6,462.3 0,0.2 c 0.4,0.4 0.7,0.8 1,1.2 0.2,0.2 0.4,0.5 0.6,0.7 0.1,-1.9 -0.5,-3.5 -1.4,-5.2 -0.4,-0.7 -0.7,-1.4 -1,-2.1 -0.1,-0.3 -0.1,-0.5 -0.2,-0.7 0,-0.1 0,-0.1 -0.1,-0.2 -0.1,-0.2 -0.3,-0.3 -0.5,-0.5 -0.4,-0.2 -0.9,-0.1 -1.4,-0.1 0.4,0.4 0.7,0.9 0.9,1.3 1,1.7 1.6,3.5 2.1,5.4 z"
       id="path1107" />
    <path
       style="fill:#970000"
       inkscape:connector-curvature="0"
       d="m 731.2,464.8 c -0.1,0 -0.2,0 -0.3,-0.1 -0.1,-0.1 -0.2,-0.2 -0.3,-0.4 l -0.3,-0.3 c -0.3,-0.4 -0.7,-0.8 -1,-1.2 -0.1,-0.1 -0.1,-0.2 -0.1,-0.3 l 0,-0.2 c -0.4,-1.9 -1.1,-3.6 -2,-5.2 -0.2,-0.4 -0.5,-0.9 -0.9,-1.2 -0.1,-0.1 -0.1,-0.3 -0.1,-0.4 0,-0.1 0.2,-0.2 0.3,-0.3 0.6,-0.1 1.2,-0.1 1.6,0.1 0.3,0.1 0.6,0.3 0.7,0.7 0.1,0.1 0.1,0.1 0.1,0.3 0.1,0.2 0.1,0.5 0.2,0.8 0.2,0.7 0.6,1.4 0.9,2 0.8,1.5 1.6,3.2 1.4,5.4 0,0.2 -0.1,0.3 -0.3,0.3 l 0.1,0 z m -1.3,-2.5 c 0.3,0.3 0.6,0.6 0.8,1 -0.1,-1.5 -0.7,-2.8 -1.3,-3.9 -0.4,-0.6 -0.7,-1.4 -1,-2.2 -0.1,-0.3 -0.1,-0.5 -0.2,-0.7 0,-0.1 0,-0.1 -0.1,-0.2 -0.1,-0.1 -0.1,-0.2 -0.4,-0.3 -0.1,0 -0.3,-0.1 -0.5,-0.1 0.2,0.3 0.4,0.5 0.5,0.8 0.9,1.7 1.6,3.5 2.1,5.5 l 0.1,0.1 z"
       id="path1109" />
  </g>
  <g
     transform="matrix(0.92269825,0,0,0.92269825,-584.34542,-300.0514)"
     id="g1111">
    <path
       style="fill:#ff0000;fill-rule:evenodd"
       inkscape:connector-curvature="0"
       d="m 731.2,458.5 c 0.3,0.6 0.6,1.2 0.9,1.9 0.9,2.2 1.4,4.6 1.3,7 l 0,0.2 c 0.5,0.9 0.9,1.8 1.4,2.7 0.1,-0.8 0.2,-2 0.3,-3 0.1,-1.3 -0.8,-5.3 -1.2,-6.8 0,-0.1 -0.1,-0.2 -0.1,-0.4 0,-0.1 0,-0.1 -0.1,-0.2 -0.4,-0.9 -1.2,-1.8 -2.5,-1.4 0.1,0 0,0 0,0 z"
       id="path1113" />
    <path
       style="fill:#970000"
       inkscape:connector-curvature="0"
       d="m 734.8,470.8 c -0.1,0 -0.3,-0.1 -0.4,-0.2 -0.4,-1 -0.8,-1.8 -1.3,-2.7 -0.1,-0.1 -0.1,-0.3 0,-0.4 l 0,-0.1 c 0,-2.4 -0.4,-4.7 -1.3,-6.9 -0.3,-0.6 -0.5,-1.2 -0.9,-1.9 -0.1,-0.1 -0.1,-0.3 0.1,-0.5 0,0 0.1,-0.1 0.2,-0.1 0.2,-0.1 0.5,-0.1 0.7,-0.1 1.1,0 1.9,1 2.3,1.9 0,0.1 0.1,0.2 0.1,0.3 0.1,0.1 0.1,0.2 0.1,0.4 0.6,2.5 1.2,5.7 1.2,6.9 0,0.6 -0.1,1.3 -0.2,1.9 0,0.4 -0.1,0.8 -0.1,1.1 -0.1,0.2 -0.3,0.4 -0.5,0.4 z m -1,-3.2 c 0.3,0.5 0.5,0.9 0.7,1.4 0.1,-0.5 0.1,-1.1 0.1,-1.6 0,-0.9 -0.4,-3.3 -1.2,-6.7 0,-0.1 0,-0.2 -0.1,-0.3 l 0,-0.1 0,-0.1 c -0.3,-0.7 -0.8,-1.4 -1.6,-1.4 0.3,0.5 0.5,1 0.7,1.5 0.9,2.3 1.4,4.7 1.4,7.2 l 0,0.1 z"
       id="path1115" />
  </g>
  <g
     transform="matrix(0.92269825,0,0,0.92269825,-584.34542,-300.0514)"
     id="g1117">
    <path
       style="fill:#ff0000;fill-rule:evenodd"
       inkscape:connector-curvature="0"
       d="m 735.3,466.4 c 0.1,0.6 -0.1,2.4 -0.3,4.5 0.1,0.2 0.1,0.3 0.3,0.6 0.1,0.3 0.2,0.5 0.3,0.8 0.7,-2 0.8,-4 0.8,-6.1 0,-1 0,-2 -0.2,-3.1 -0.2,-0.8 -0.9,-3.4 -2,-2.9 0.3,1.2 1,5.1 1.1,6.2 z"
       id="path1119" />
    <path
       style="fill:#970000"
       inkscape:connector-curvature="0"
       d="m 735.6,472.7 c -0.2,0 -0.3,-0.1 -0.4,-0.2 l -0.1,-0.2 c -0.1,-0.2 -0.1,-0.4 -0.2,-0.6 -0.1,-0.1 -0.1,-0.2 -0.1,-0.3 0,-0.1 -0.1,-0.2 -0.1,-0.3 l 0,-0.2 c 0.3,-2.1 0.4,-3.8 0.3,-4.4 -0.1,-1.1 -0.9,-5 -1.2,-6.2 -0.1,-0.2 0,-0.4 0.2,-0.5 0.1,-0.1 0.3,-0.1 0.4,-0.1 1.2,0 1.9,2.1 2.1,3.3 0.2,1 0.2,2 0.2,3.1 0,2.5 -0.2,4.4 -0.8,6.2 0,0.3 -0.1,0.4 -0.3,0.4 z m -0.2,-1.9 c 0,0.1 0.1,0.2 0.1,0.2 l 0,0.1 c 0.4,-1.5 0.5,-3 0.5,-5 0,-1.1 0,-2.1 -0.2,-3 -0.3,-1.3 -0.8,-2.3 -1.2,-2.6 0.4,1.5 1,4.7 1.1,5.8 0.1,0.8 -0.1,2.8 -0.3,4.5 z"
       id="path1121" />
  </g>
  <g
     transform="matrix(0.92269825,0,0,0.92269825,-584.34542,-300.0514)"
     id="g1123">
    <path
       style="fill:#ff0000;fill-rule:evenodd"
       inkscape:connector-curvature="0"
       d="m 736.6,464.5 c 0.2,2.7 0.1,5.3 -0.8,7.9 0,0.1 -0.1,0.2 -0.1,0.3 0.3,0.9 0.4,1.5 0.5,2.5 0,0.2 0,0.4 0.1,0.5 0.5,-1 0.9,-2.1 1.1,-3.2 0.8,-3.9 0.1,-4.6 0.1,-8.2 l 0,-0.2 c 0,-0.3 0,-0.6 -0.1,-0.9 -0.2,-0.8 -0.7,-1.4 -1.4,-1.6 0.4,1.2 0.6,2.4 0.6,2.9 z"
       id="path1125" />
    <path
       style="fill:#970000"
       inkscape:connector-curvature="0"
       d="m 736.3,476.2 c -0.2,0 -0.4,-0.2 -0.4,-0.3 l 0.4,-0.1 -0.4,0 c 0,-0.2 -0.1,-0.4 -0.1,-0.6 -0.1,-0.9 -0.2,-1.5 -0.5,-2.4 l 0,-0.2 0,-0.1 c 0,-0.1 0,-0.2 0.1,-0.3 0.7,-2.2 1,-4.7 0.7,-7.7 0,-0.5 -0.2,-1.7 -0.5,-2.8 0,-0.1 0,-0.3 0.1,-0.4 0.1,-0.1 0.3,-0.1 0.4,-0.1 0.8,0.3 1.4,1 1.6,1.9 0.1,0.3 0.1,0.7 0.1,1 l 0,0.2 c 0,1.2 0.1,2.1 0.2,2.9 0.1,1.6 0.3,2.8 -0.3,5.4 -0.3,1.2 -0.6,2.3 -1.1,3.3 0,0.2 -0.1,0.3 -0.3,0.3 z m -0.1,-3.5 c 0.2,0.6 0.3,1.1 0.4,1.6 0.2,-0.6 0.4,-1.1 0.5,-1.8 0.5,-2.5 0.4,-3.7 0.3,-5.1 -0.1,-0.8 -0.2,-1.7 -0.2,-2.9 l 0,-0.2 c 0,-0.3 0,-0.6 -0.1,-0.8 -0.1,-0.3 -0.2,-0.5 -0.4,-0.8 0.2,0.8 0.3,1.5 0.3,1.9 0.2,3.2 0,5.7 -0.8,8 l 0,0.1 z"
       id="path1127" />
  </g>
  <g
     transform="matrix(0.92269825,0,0,0.92269825,-584.34542,-300.0514)"
     id="g1129">
    <path
       style="fill:#ff0000;fill-rule:evenodd"
       inkscape:connector-curvature="0"
       d="m 737.7,472.3 c -0.3,1.4 -0.7,2.7 -1.3,3.9 0.1,0.6 0.3,1.1 0.5,1.6 1.4,-2.8 2.1,-3.6 2.3,-6.9 0.1,-1.8 0.9,-5.5 -1.4,-6.4 0.1,3.4 0.7,4.2 -0.1,7.8 z"
       id="path1131" />
    <path
       style="fill:#970000"
       inkscape:connector-curvature="0"
       d="m 736.9,478.3 c 0,0 -0.1,0 0,0 -0.2,0 -0.3,-0.1 -0.4,-0.3 -0.1,-0.2 -0.1,-0.5 -0.2,-0.7 l -0.3,-0.9 0,-0.3 c 0.6,-1.1 1,-2.3 1.3,-3.8 0.5,-2.5 0.4,-3.6 0.2,-5.2 -0.1,-0.7 -0.1,-1.4 -0.2,-2.4 0,-0.1 0.1,-0.3 0.2,-0.3 0.1,-0.1 0.2,-0.1 0.4,0 2.3,0.9 1.9,4 1.7,6 0,0.3 -0.1,0.6 -0.1,0.8 -0.2,2.9 -0.8,3.9 -1.8,5.9 -0.2,0.3 -0.4,0.7 -0.6,1.1 0,0 -0.1,0.1 -0.2,0.1 z m -0.1,-2 c 0,0.2 0.1,0.4 0.2,0.5 0,-0.1 0.1,-0.1 0.1,-0.2 1,-2 1.5,-2.9 1.7,-5.7 0,-0.2 0,-0.5 0.1,-0.8 0.2,-1.6 0.4,-3.8 -0.7,-4.9 0,0.6 0.1,1.2 0.1,1.7 0.2,1.6 0.3,2.8 -0.2,5.5 -0.3,1.5 -0.7,2.8 -1.3,3.9 z"
       id="path1133" />
  </g>
  <path
     style="fill:#970000"
     inkscape:connector-curvature="0"
     d="m 120.96512,131.03322 c 0.46135,0.18454 0.83043,0.64589 0.9227,1.10724 0.0923,0.46135 0.18454,0.83043 0.0923,1.29178 -0.0923,0.46135 -0.36908,0.9227 -0.83043,1.29178 -0.55362,0.46135 -1.38405,0.83043 -2.58355,0.9227 -0.64589,0.0923 -1.29178,0 -1.8454,-0.0923 -1.47632,-0.18454 -2.86036,-0.83043 -3.9676,-1.75313 -2.95264,-2.67583 -4.24441,-6.82797 0.9227,-7.84294 0.18454,0.55362 0.27681,1.19951 0.0923,1.8454 -3.41399,0.9227 -1.47632,3.32171 0.18454,4.61349 0.83042,0.73816 1.84539,1.19951 3.0449,1.38405 0.46135,0.0923 0.9227,0.0923 1.47632,0.0923 0.83043,-0.0923 1.29177,-0.27681 1.47631,-0.46135 l 0.27681,-0.27681 0.36908,-0.9227 0.36908,-1.19951 z"
     id="path1135" />
  <path
     style="fill:#970000"
     inkscape:connector-curvature="0"
     d="m 114.41396,115.34735 c -4.61349,-0.92269 -4.05987,3.04491 -2.86036,5.99754 2.02994,4.61349 2.49129,6.82797 2.58356,8.39656 0.0923,2.76809 -1.29178,3.32171 0.46134,10.14968 0.0923,0.46135 -0.18454,1.01497 -0.64588,1.10724 -0.46135,0.0923 -1.01497,-0.18454 -1.10724,-0.64589 -1.8454,-7.19705 0.0923,-7.47386 -0.18454,-10.51876 -0.0923,-1.47632 -1.01497,-3.6908 -2.7681,-7.75067 -1.01496,-2.39901 -2.30674,-5.813 0.55362,-7.65839 2.49129,-0.27681 4.05987,0.92269 3.9676,0.92269 z"
     id="path1137" />
  <g
     style="fill-rule:evenodd"
     id="g196"
     transform="matrix(0.92269825,0,0,0.92269825,-234.65201,-397.49756)">
    <path
       inkscape:connector-curvature="0"
       d="m 334.21,478.51 c 1,-0.2 4.5,-0.6 5.2,-2.5 -0.7,3.1 -4.5,3.2 -4.9,3.2 l -0.3,-0.7 z"
       id="path1139" />
    <path
       inkscape:connector-curvature="0"
       d="m 335.41,479.11 c 1,-0.1 4.5,-0.3 5.3,-2.1 -0.9,3.1 -4.7,2.8 -5.1,2.8 l -0.2,-0.7 z"
       id="path1141" />
    <path
       inkscape:connector-curvature="0"
       d="m 332.41,478.41 c 1,-0.3 4.4,-1 5,-2.9 -0.4,3.2 -4.2,3.5 -4.7,3.6 l -0.3,-0.7 z"
       id="path1143" />
  </g>
</svg>
