<?xml version="1.0" encoding="UTF-8" standalone="no"?>
<!-- Created with Inkscape (http://www.inkscape.org/) -->

<svg
   xmlns:dc="http://purl.org/dc/elements/1.1/"
   xmlns:cc="http://creativecommons.org/ns#"
   xmlns:rdf="http://www.w3.org/1999/02/22-rdf-syntax-ns#"
   xmlns:svg="http://www.w3.org/2000/svg"
   xmlns="http://www.w3.org/2000/svg"
   xmlns:sodipodi="http://sodipodi.sourceforge.net/DTD/sodipodi-0.dtd"
   xmlns:inkscape="http://www.inkscape.org/namespaces/inkscape"
   id="svg6018"
   height="45mm"
   width="54mm"
   version="1.1"
   viewBox="0 0 191.33858 159.44881"
   inkscape:version="0.91 r13725"
   sodipodi:docname="cat_8.svg">
  <defs
     id="defs54" />
  <sodipodi:namedview
     pagecolor="#ffffff"
     bordercolor="#666666"
     borderopacity="1"
     objecttolerance="10"
     gridtolerance="10"
     guidetolerance="10"
     inkscape:pageopacity="0"
     inkscape:pageshadow="2"
     inkscape:window-width="1282"
     inkscape:window-height="806"
     id="namedview52"
     showgrid="false"
     inkscape:zoom="1.4800988"
     inkscape:cx="-134.72074"
     inkscape:cy="79.724413"
     inkscape:window-x="0"
     inkscape:window-y="0"
     inkscape:window-maximized="0"
     inkscape:current-layer="svg6018" />
  <metadata
     id="metadata6023">
    <rdf:RDF>
      <cc:Work
         rdf:about="">
        <dc:format>image/svg+xml</dc:format>
        <dc:type
           rdf:resource="http://purl.org/dc/dcmitype/StillImage" />
        <dc:title />
      </cc:Work>
    </rdf:RDF>
  </metadata>
  <g
     style="fill:#676766"
     transform="matrix(0.94242305,0,0,0.94242305,-304.9595,-564.73913)"
     id="g491">
    <path
       style="fill-rule:evenodd"
       inkscape:connector-curvature="0"
       d="m 382.4,694.6 c 0,1.1 0.1,2.2 0.3,3.3 l -0.1,0 c 0.9,8.7 4,14.1 3.8,19.1 -0.4,9.6 -5.5,14.7 -9.8,18.8 -1.6,6.8 3.3,18.1 4.5,20.7 0.1,0.2 0.1,0.4 0.1,0.6 l 10.2,0 c 0.6,-3.6 -2.5,-5.7 -5.1,-5.6 l -0.1,0 c -1.8,-4 -1.6,-7.5 0.4,-12.6 1.3,-3.2 9.7,-7.5 15.5,-17.7 -0.1,6.3 -1.2,11.8 -4.1,14.5 -1.8,7.1 9.4,19.4 11,21.1 l 0,0.2 10.2,0 c 0.6,-3.6 -2.5,-5.7 -5.1,-5.6 -0.4,0 -0.8,0.1 -1.2,0.1 -3.6,-4.1 -6.5,-7.5 -4.9,-12.7 1.2,-3.9 10,-9.2 14.9,-23.8 2.9,-0.2 5.9,-0.3 8.8,-0.5 -2.2,13.9 -7.3,27.9 -4.3,41.6 l 0.1,0 0,0.1 10.2,0 c 0.5,-3.1 -1.7,-5.2 -4.1,-5.5 1,-11 7.1,-28.1 13.8,-37.4 0.7,-0.1 1.5,-0.2 2.2,-0.3 -0.7,14.3 5.1,28.9 8.2,43.1 l 0.1,0 0,0.1 10.2,0 c 0.5,-3.6 -2.4,-5.6 -5,-5.6 -2,-11.3 -5.6,-28.7 3.6,-45.5 1,-1.3 1.9,-2.7 2.4,-4.5 1.3,-3.7 0.8,-8.2 -0.3,-12.8 l 0.5,0.1 0.3,-2.8 c 3.1,0.1 6.3,-0.4 9.3,-1.2 l 1.5,3 c 0.2,0.4 1,0.7 1.3,0 0.3,-0.6 -1,-2.8 -1.4,-3.4 1.5,-0.5 3,-1.1 4.5,-1.8 3.9,3.7 4.8,6.9 5.2,6.5 0.4,0 0.7,-0.6 0.5,-1 -1.1,-2.3 -2.7,-4.3 -4.5,-6.1 1.1,-0.6 2.2,-1.3 3.2,-2 1,1 1.3,1.6 2,2 l 0.5,-0.3 0,-0.9 c -0.4,-0.6 -0.9,-1.1 -1.4,-1.6 1.8,-1.4 3.3,-3 4.6,-4.8 0.6,5.5 5,6.9 5.5,6.9 -2.1,-1.3 -2.2,-5.8 -1.4,-6.9 0.8,2.6 2.9,4.1 3.4,4 0,0 -1.1,-2.3 -1.2,-3.5 -0.6,-5.3 -0.5,-2.1 2.1,0.7 -1.8,-3.5 -0.1,-6.8 1.4,-9.2 1.5,-1.1 2.6,-2.1 3,-2.7 1.2,-2 7.4,-19.3 6.3,-20 -1,-0.6 -18.3,4.7 -22.9,6.1 -2.6,-2.9 -5.7,-5.7 -9.3,-8.2 -3.6,-2.6 -7.2,-4.7 -10.8,-6.2 0.1,-2.9 -0.7,-23 -1.5,-23.6 -1,-0.9 -15.4,10.6 -16.9,12.4 -0.5,0.6 -1.1,2.2 -1.8,4.2 -1.7,2.4 -4.3,5.6 -8.4,5.1 3.6,1.5 6.6,0.4 1.4,1.7 -1.2,0.3 -3.7,0.1 -3.7,0.1 -0.4,0.1 2.3,2 5,1.8 -0.8,1.1 -5,2.7 -7,1.2 -0.4,-0.3 2.7,3.7 7.6,2.9 -1,1.7 -1.9,3.5 -2.5,5.5 -2,-0.9 -1.9,-0.8 -2.9,-0.5 l -0.1,0.5 c 0.6,0.6 1.3,0.6 2.6,1.2 -0.3,1.2 -0.6,2.5 -0.7,3.7 -2.3,-1 -4.8,-1.8 -7.3,-2.1 -0.2,-0.1 -1,0.3 -0.8,0.8 0.3,0.9 2.6,0 8,2.6 -0.1,1.6 -0.2,3.1 -0.1,4.7 -0.7,-0.1 -3.3,-0.5 -3.7,-0.1 -0.5,0.5 0.1,1.2 0.5,1.2 l 3.3,0.4 c 0.5,5.9 2.6,11.8 6.3,16.5 -1,0.7 -2,1.6 -3.2,2 -8.8,2.2 -19.3,1.6 -26.9,0.8 -19.4,-2 -29.1,1.9 -33.3,7.8 -1.5,0.8 -3.1,1.5 -4.8,2.1 -4.1,1.4 -8.4,2.6 -12.8,3.1 -4.8,0.6 -11.7,1 -16.7,-1.2 -3.2,-1.4 -5.6,-5.1 -3.3,-7.3 3.3,-3.2 -3.9,-6.9 -7.3,-5.8 -6.1,2.2 -4.7,9.2 -0.9,13.9 8.5,10.7 30.9,8 41.8,4 0.5,-0.2 0.9,-0.3 1.4,-0.5 0.1,0.6 0.1,0.8 0.1,1 z"
       id="path493" />
    <path
       inkscape:connector-curvature="0"
       d="m 419.4,763.1 -10.2,0 c -2.2,0 -4.1,-1.1 -5.1,-2.9 -4.2,-4.7 -10,-12 -11.6,-19.1 l -0.3,0.3 c -0.9,2.2 -1.2,3.7 -1.1,5 1.5,0.7 2.9,1.6 3.9,2.9 2,2.4 2.9,5.5 2.4,8.7 -0.5,2.9 -3,5.1 -5.9,5.1 l -10.2,0 c -2.7,0 -5,-1.8 -5.8,-4.3 0,-0.1 0,-0.2 -0.1,-0.2 -2.7,-5.9 -6.5,-16.4 -4.6,-24.1 0.3,-1.1 0.9,-2.1 1.7,-2.9 4.3,-4.1 7.6,-7.8 7.9,-14.7 0.1,-1.6 -0.6,-3.8 -1.3,-6.4 -0.6,-2.3 -1.4,-5.1 -2,-8.3 -5.4,1.3 -11.3,2.1 -16.7,2.1 -11.8,0 -20.7,-3.4 -25.8,-9.8 -3.9,-4.9 -5.4,-10.6 -4.1,-15.3 1,-3.7 3.8,-6.6 7.7,-8 1.1,-0.4 2.3,-0.6 3.5,-0.6 4.5,0 10.3,2.7 12.1,7.2 0.9,2.2 0.7,4.6 -0.3,6.7 1.3,0.5 3.4,1 7,1 1.8,0 3.9,-0.1 6.3,-0.4 3.4,-0.4 7.1,-1.3 11.6,-2.9 0.9,-0.3 1.9,-0.7 2.9,-1.2 6.6,-7.9 19.2,-10.9 37.8,-9 2.9,0.3 7.3,0.7 11.9,0.7 3.2,0 6.1,-0.2 8.8,-0.5 -1.2,-2.6 -2.1,-5.3 -2.7,-8.2 -1.9,-0.6 -3.5,-2 -4.3,-4 -0.6,-1.4 -0.6,-2.9 -0.2,-4.3 -1.4,-0.5 -3,-1.6 -3.8,-3.8 -0.7,-1.9 -0.5,-4.1 0.7,-5.9 1.3,-1.9 3.5,-3.1 5.8,-3 -1.7,-1.5 -2.8,-3.3 -2.8,-5.3 0,-1.6 0.6,-3.1 1.8,-4.2 0.2,-0.2 0.4,-0.3 0.6,-0.5 0.3,-0.9 0.8,-1.7 1.5,-2.4 0.2,-0.2 0.5,-0.5 0.8,-0.7 0.3,-0.2 0.6,-0.4 1,-0.5 1.2,-1.7 3.3,-2.6 5.5,-2.3 l 0.1,0 c 0.4,0 1,-0.4 2.2,-2 1,-2.8 1.7,-4.2 2.6,-5.2 1.8,-2.1 8.9,-7.5 9.2,-7.7 8.3,-6.3 10.1,-6.8 12.2,-6.8 1.5,0 2.9,0.5 4,1.4 2.3,1.9 2.6,3.6 3.2,15.3 0.2,3.2 0.3,6.5 0.4,9.1 2.8,1.4 5.6,3.2 8.4,5.2 2.8,2 5.3,4.1 7.6,6.3 16.2,-4.9 19.2,-5.3 20.8,-5.3 1.3,0 2.4,0.3 3.4,0.9 4.9,2.9 3,8.3 0.3,16.5 0,0.1 -3.1,9.2 -4.5,11.6 -0.7,1.1 -1.7,2.2 -3.6,3.7 -0.6,1 -0.8,1.7 -0.7,2.2 0.5,0.9 0.7,1.8 0.7,2.9 0,1.2 -0.3,2.3 -0.9,3.2 -0.1,1.7 -1,3.2 -2.3,4.3 -0.7,2.2 -2.6,3.9 -5,4.2 l -0.8,0 c -1.1,0 -2.6,-0.4 -4.2,-1.2 0.7,1.9 0.5,4 -0.6,5.8 -1,1.6 -2.5,2.7 -4.2,3 -0.5,0.1 -1,0.2 -1.5,0.2 -2.3,0 -3.8,-1.2 -4.8,-2.3 -1.1,0.9 -2.5,1.3 -4,1.3 -2.1,0 -4.1,-1 -5.4,-2.6 l -0.3,0 c 0.5,3.7 0.6,7.9 -0.7,11.9 -0.7,2 -1.7,4 -3.1,5.8 -7,13.2 -5.3,26.9 -3.4,37.5 1.2,0.6 2.4,1.5 3.3,2.6 2,2.4 2.9,5.4 2.4,8.6 -0.4,2.9 -3,5.1 -5.9,5.1 l -10.2,0 c -1.8,0 -3.6,-0.9 -4.7,-2.3 l -0.1,-0.1 c -0.5,-0.7 -0.9,-1.5 -1.1,-2.4 -0.9,-3.9 -1.9,-7.8 -3,-11.9 -1.4,-5 -2.7,-10 -3.7,-15.1 -2.3,5.6 -4.1,11.7 -5.1,17 0.6,0.5 1.1,1.1 1.5,1.7 1.7,2.3 2.4,5.1 1.9,8.1 -0.4,2.9 -3,5.1 -5.9,5.1 l -10.2,0 c -1.4,0 -2.7,-0.5 -3.7,-1.3 -1.5,0.9 -3.1,1.7 -4.9,1.7 z m -3.5,-17.5 c 1.7,0.2 3.3,0.8 4.8,1.7 0,-6 1,-11.9 2.1,-17.7 -2.3,3.6 -4.7,6.3 -6.5,8.4 -0.9,1 -2,2.3 -2.3,2.8 -0.4,1.3 -0.2,2.3 1.9,4.8 z m -13.7,-30.3 c 0.5,0 1.1,0.1 1.6,0.2 2.6,0.7 4.4,3.2 4.4,5.9 -0.1,3.3 -0.4,6.1 -0.9,8.7 3.1,-3.6 7.3,-8.4 10.1,-16.8 0.8,-2.3 2.9,-3.9 5.3,-4.1 2.9,-0.2 5.9,-0.3 8.7,-0.5 l 0.2,0 c 1.8,-0.1 3.5,0.6 4.8,2 1.2,1.3 1.7,3.2 1.5,4.9 -0.2,1.4 -0.5,2.7 -0.7,4.1 1.8,-3.7 3.7,-7.1 5.7,-9.8 0.9,-1.3 2.4,-2.2 3.9,-2.4 0.4,-0.1 0.8,-0.1 1.1,-0.2 0.3,0 0.7,-0.1 1,-0.1 1.8,-0.3 3.6,0.3 5,1.5 1.3,1.2 2.1,3 2,4.8 -0.1,1.8 -0.1,3.6 0,5.5 1,-5.4 2.8,-11 5.8,-16.5 l 0.6,-0.9 c 0.7,-0.8 1.1,-1.7 1.4,-2.6 0.7,-2.1 0.6,-5.2 -0.4,-9.6 -0.3,-1.5 -0.1,-3 0.6,-4.3 l 0,-0.4 c 0.3,-3.1 3,-5.4 6.1,-5.3 l 0.4,0 c 2.4,0 4.8,-0.3 7.1,-1 0.2,-0.1 0.4,-0.1 0.6,-0.1 0.2,-0.1 0.4,-0.2 0.6,-0.2 1.3,-0.4 2.5,-0.9 3.7,-1.4 0.1,-0.1 0.3,-0.1 0.4,-0.2 l 0.6,-0.3 c 0.8,-0.4 1.7,-0.9 2.6,-1.6 0.1,-0.1 0.2,-0.2 0.3,-0.2 l 0.4,-0.4 c 1.4,-1.1 2.6,-2.3 3.4,-3.5 1.4,-1.9 3.7,-2.9 6,-2.4 0.1,-0.2 0.3,-0.3 0.4,-0.5 0.4,-0.4 0.8,-0.8 1.3,-1.1 0.5,-1.3 1.2,-2.5 2.1,-3.8 0.4,-0.6 0.8,-1 1.3,-1.4 0.9,-0.7 1.4,-1.1 1.6,-1.3 0.7,-1.6 2.1,-5.2 3.2,-8.7 -3.1,0.9 -7.2,2.1 -13,3.9 -2.3,0.7 -4.8,0 -6.3,-1.7 -2.3,-2.6 -5.1,-5.1 -8.3,-7.3 -3.3,-2.4 -6.5,-4.2 -9.7,-5.5 -2.3,-1 -3.7,-3.2 -3.7,-5.7 0,-1.6 -0.2,-7.8 -0.5,-13.3 -2.9,2.2 -5.9,4.7 -7.2,5.8 -0.2,0.4 -0.4,1.1 -0.9,2.4 -0.2,0.6 -0.5,1.1 -0.8,1.6 -0.6,0.9 -1.7,2.4 -3.2,3.8 -0.2,1 -0.6,1.9 -1.4,2.8 0.9,1.8 0.8,4 -0.3,5.8 -0.8,1.3 -1.4,2.7 -1.9,4.2 -0.1,0.2 -0.1,0.3 -0.2,0.5 0,0.2 -0.1,0.4 -0.1,0.6 -0.2,0.8 -0.4,1.8 -0.6,2.9 0,0.2 -0.1,0.4 -0.1,0.6 l 0,0.5 c -0.1,1.2 -0.1,2.6 -0.1,4 l 0,0.5 c 0,0.2 0.1,0.4 0.1,0.7 0.5,5.1 2.2,9.7 5,13.4 1,1.3 1.4,2.9 1.2,4.5 -0.2,1.6 -1.1,3.1 -2.4,4 -0.2,0.1 -0.4,0.3 -0.5,0.4 -1,0.8 -2.4,1.9 -4.4,2.5 -0.1,0 -0.2,0.1 -0.3,0.1 -4.6,1.1 -9.8,1.7 -15.8,1.7 -3.9,0 -8.1,-0.2 -13.1,-0.7 -14.6,-1.5 -24.4,0.5 -27.8,5.3 -0.6,0.8 -1.3,1.4 -2.1,1.9 -0.1,0 -0.1,0.1 -0.2,0.1 0.5,0.9 0.8,1.9 0.8,3 l 0,0.6 c 0,0.8 0.1,1.5 0.2,2.3 0.1,0.5 0.1,0.9 0.1,1.4 0.4,3.3 1.2,6.1 2,8.8 1,3.4 1.9,6.6 1.7,10.1 -0.2,3.6 -0.9,6.7 -1.9,9.4 2.2,-2.2 4.6,-4.9 6.5,-8.3 1.3,-2.5 3.3,-3.6 5.4,-3.6 z"
       id="path495" />
  </g>
  <path
     id="path499"
     d="m 55.423074,89.867921 c 0,1.036665 0.09424,2.07333 0.282727,3.109996 l -0.09424,0 c 0.848181,8.199083 3.769692,13.288163 3.581208,18.000283 -0.37697,9.04726 -5.183327,13.85362 -9.235746,17.71755 -1.507877,6.40848 3.109996,17.05786 4.240903,19.50816 0.09424,0.18848 0.09424,0.37697 0.09424,0.56545 l 9.612715,0 c 0.565454,-3.39272 -2.356058,-5.37181 -4.806358,-5.27757 l -0.09424,0 c -1.696362,-3.76969 -1.507877,-7.06817 0.376969,-11.87453 1.22515,-3.01575 9.141504,-7.06817 14.607557,-16.68089 -0.09424,5.93727 -1.130907,11.1206 -3.863934,13.66514 -1.696362,6.6912 8.858777,18.28301 10.366653,19.88512 l 0,0.18849 9.612716,0 c 0.565453,-3.39272 -2.356058,-5.37181 -4.806358,-5.27757 -0.376969,0 -0.753938,0.0942 -1.130908,0.0942 -3.392723,-3.86393 -6.125749,-7.06817 -4.617873,-11.96877 1.130908,-3.67545 9.424231,-8.67029 14.042104,-22.42967 2.733027,-0.18848 5.560296,-0.28273 8.293322,-0.47121 -2.07333,13.09968 -6.879688,26.2936 -4.052418,39.2048 l 0.09424,0 0,0.0942 9.612716,0 c 0.47121,-2.92151 -1.60212,-4.9006 -3.86394,-5.18333 0.94243,-10.36665 6.69121,-26.48208 13.00544,-35.24662 0.6597,-0.0942 1.41364,-0.18848 2.07333,-0.28273 -0.65969,13.47665 4.80636,27.23603 7.72787,40.61844 l 0.0942,0 0,0.0942 9.61272,0 c 0.47121,-3.39272 -2.26182,-5.27757 -4.71212,-5.27757 -1.88484,-10.64938 -5.27756,-27.04754 3.39273,-42.880247 0.94242,-1.22515 1.7906,-2.544543 2.26181,-4.240904 1.22515,-3.486965 0.75394,-7.727869 -0.28272,-12.063015 l 0.47121,0.09424 0.28272,-2.638784 c 2.92152,0.09424 5.93727,-0.37697 8.76454,-1.130908 l 1.41363,2.827269 c 0.18849,0.376969 0.94243,0.659696 1.22515,0 0.28273,-0.565454 -0.94242,-2.638784 -1.31939,-3.204238 1.41364,-0.471212 2.82727,-1.036666 4.2409,-1.696362 3.67545,3.486965 4.52364,6.502719 4.9006,6.12575 0.37697,0 0.6597,-0.565454 0.47122,-0.942423 -1.03667,-2.167573 -2.54455,-4.052419 -4.24091,-5.748781 1.03667,-0.565453 2.07333,-1.22515 3.01576,-1.884846 0.94242,0.942423 1.22515,1.507877 1.88484,1.884846 l 0.47121,-0.282727 0,-0.84818 c -0.37697,-0.565454 -0.84818,-1.036666 -1.31939,-1.507877 1.69636,-1.319392 3.11,-2.827269 4.33515,-4.523631 0.56545,5.183327 4.71211,6.502719 5.18332,6.502719 -1.97908,-1.22515 -2.07333,-5.466053 -1.31939,-6.502719 0.75394,2.4503 2.73303,3.863935 3.20424,3.769692 0,0 -1.03667,-2.167573 -1.13091,-3.29848 -0.56545,-4.994842 -0.47121,-1.979089 1.97909,0.659696 -1.69636,-3.298481 -0.0942,-6.408477 1.31939,-8.670292 1.41364,-1.036666 2.4503,-1.979089 2.82727,-2.544542 1.13091,-1.884847 6.97393,-18.188765 5.93727,-18.848461 -0.94243,-0.565454 -17.24634,4.429388 -21.58149,5.74878 -2.4503,-2.733027 -5.37181,-5.371811 -8.76453,-7.727869 -3.39273,-2.4503 -6.78545,-4.429388 -10.17817,-5.843023 0.0942,-2.733027 -0.6597,-21.67573 -1.41364,-22.241184 -0.94242,-0.84818 -14.51331,9.989685 -15.92695,11.686046 -0.47121,0.565454 -1.03666,2.073331 -1.69636,3.958177 -1.60212,2.261815 -4.05242,5.277569 -7.91635,4.806357 3.39272,1.413635 6.21999,0.37697 1.31939,1.60212 -1.13091,0.282727 -3.48697,0.09424 -3.48697,0.09424 -0.37696,0.09424 2.16758,1.884846 4.71212,1.696361 -0.75394,1.036666 -4.71212,2.544543 -6.59696,1.130908 -0.37697,-0.282727 2.54454,3.486965 7.16241,2.733027 -0.94242,1.602119 -1.7906,3.298481 -2.35605,5.183327 -1.88485,-0.848181 -1.79061,-0.753939 -2.73303,-0.471212 l -0.0942,0.471212 c 0.56545,0.565454 1.22515,0.565454 2.4503,1.130907 -0.28273,1.130908 -0.56546,2.356058 -0.6597,3.486966 -2.16757,-0.942423 -4.52363,-1.696362 -6.87969,-1.979089 -0.18848,-0.09424 -0.94242,0.282727 -0.75394,0.753939 0.28273,0.84818 2.4503,0 7.53939,2.4503 -0.0942,1.507876 -0.18849,2.921511 -0.0942,4.429388 -0.6597,-0.09424 -3.11,-0.471212 -3.48697,-0.09424 -0.47121,0.471211 0.0942,1.130907 0.47121,1.130907 l 3.11,0.37697 c 0.47121,5.560296 2.4503,11.120592 5.93726,15.54998 -0.94242,0.659696 -1.88484,1.507877 -3.01575,1.884846 -8.29332,2.073331 -18.188765,1.507877 -25.35118,0.753938 -18.283008,-1.884846 -27.424511,1.790604 -31.382688,7.3509 -1.413635,0.753939 -2.921512,1.413635 -4.523631,1.979089 -3.863934,1.319392 -7.916353,2.4503 -12.063015,2.921511 -4.52363,0.565454 -11.026349,0.942423 -15.738465,-1.130908 -3.015753,-1.319392 -5.277569,-4.806357 -3.109996,-6.879688 3.109996,-3.015754 -3.67545,-6.502719 -6.879688,-5.466054 -5.7487806,2.073331 -4.429388,8.670292 -0.848181,13.099681 8.010596,10.083926 29.120872,7.539384 39.393284,3.769692 0.471211,-0.188485 0.84818,-0.282727 1.319392,-0.471212 0.09424,0.565454 0.09424,0.753939 0.09424,0.942424 z"
     inkscape:connector-curvature="0"
     style="fill:#fefefe;fill-rule:evenodd" />
  <path
     style="fill:#fefefe"
     id="path501"
     d="m 90.292727,153.48148 -9.612715,0 c -1.696361,0 -3.204238,-0.94243 -4.052419,-2.35606 -4.240904,-4.71212 -10.272411,-12.34574 -11.120592,-19.22543 -0.753938,0.65969 -1.413635,1.31939 -1.696362,1.69636 -1.036665,2.63878 -1.319392,4.33515 -1.130907,5.84302 1.507877,0.56546 2.827269,1.50788 3.863934,2.63879 1.696362,2.07333 2.4503,4.61787 1.979089,7.44514 -0.37697,2.26181 -2.356058,3.95818 -4.617873,3.95818 l -9.612715,0 c -2.073331,0 -3.958177,-1.41364 -4.523631,-3.39273 0,-0.0942 -0.09424,-0.18848 -0.09424,-0.28272 -2.4503,-5.46606 -6.031508,-15.17301 -4.335146,-22.14695 0.188484,-0.84818 0.659696,-1.69636 1.319392,-2.35605 4.240904,-3.95818 7.445142,-7.63363 7.822111,-14.51332 0.09424,-1.60212 -0.471211,-3.67545 -1.22515,-6.31423 -0.659696,-2.4503 -1.507877,-5.277571 -1.979088,-8.764537 -5.277569,1.413635 -11.120592,2.167573 -16.586646,2.167573 -10.837865,0 -18.942703,-3.109996 -23.560576,-8.858776 C 7.6422257,84.684594 6.3228334,79.595509 7.4537411,75.448848 8.3961641,72.244609 10.752222,69.79431 14.050702,68.56916 c 0.942423,-0.37697 1.884847,-0.471212 3.015754,-0.471212 3.958177,0 8.953019,2.356058 10.460896,6.219992 0.848181,2.167573 0.565454,4.429389 -0.753938,6.314235 0.188484,0.188484 0.376969,0.282727 0.659696,0.376969 1.790604,0.753938 4.240903,1.130908 7.256657,1.130908 1.790604,0 3.769692,-0.09424 6.031508,-0.37697 3.29848,-0.376969 6.879688,-1.319392 11.120592,-2.733027 0.942423,-0.376969 1.979088,-0.753938 3.015753,-1.22515 5.937266,-7.256657 17.623312,-10.083926 34.963896,-8.293322 2.733026,0.282727 6.879688,0.659696 11.309074,0.659696 3.58121,0 6.78545,-0.282727 9.61272,-0.753939 -1.41364,-2.827269 -2.54454,-5.937265 -3.20424,-9.235746 -1.7906,-0.376969 -3.29848,-1.602119 -3.95818,-3.29848 -0.56545,-1.413635 -0.47121,-3.015754 0.18849,-4.335146 -1.3194,-0.282727 -3.20424,-1.130908 -3.95818,-3.298481 -0.565454,-1.507877 -0.376969,-3.298481 0.56545,-4.712115 1.13091,-1.790604 3.29848,-2.733027 5.37182,-2.356058 0.0942,-0.376969 0.37696,-0.848181 0.56545,-1.22515 -1.69636,-1.319392 -2.92151,-3.015754 -2.92151,-4.806357 0,-1.22515 0.47121,-2.4503 1.41363,-3.298481 0.18849,-0.188485 0.47121,-0.376969 0.6597,-0.565454 0.18848,-0.848181 0.65969,-1.602119 1.22515,-2.167573 0.18848,-0.188484 0.37697,-0.376969 0.65969,-0.565454 0.28273,-0.188484 0.56546,-0.376969 0.94243,-0.471211 0.94242,-1.413635 2.63878,-2.261816 4.42939,-2.073331 l 0.28272,0 c 1.03667,0 2.07333,-1.130908 2.92151,-2.356058 0.84818,-2.544542 1.50788,-3.863934 2.26182,-4.806357 1.31939,-1.507877 6.12575,-5.277569 8.48181,-7.162415 7.53938,-5.7487809 9.23574,-6.2199924 10.9321,-6.2199924 1.13091,0 2.26182,0.3769692 3.20424,1.1309077 1.79061,1.5078768 2.16758,2.6387847 2.73303,13.7593767 0.18848,3.204238 0.28273,6.596961 0.37697,9.141503 2.73303,1.413635 5.56029,3.015754 8.29332,4.994843 2.73303,1.884846 5.18333,4.052419 7.44514,6.219992 15.54998,-4.712116 18.4715,-5.183327 19.88513,-5.183327 1.03667,0 1.97909,0.282727 2.73303,0.753938 3.95817,2.356058 2.4503,6.879689 -0.0943,14.513315 -0.75393,2.356058 -3.10999,8.953019 -4.2409,10.743623 -0.56545,0.942423 -1.50788,1.884846 -3.29848,3.392723 -1.03667,1.790604 -0.94242,2.638785 -0.84818,3.015754 0.37697,0.659696 0.6597,1.507877 0.6597,2.356057 0,1.036666 -0.28273,1.979089 -0.84819,2.733027 0,1.507877 -0.84818,2.921512 -2.07333,3.769692 -0.47121,1.884847 -2.07333,3.298481 -3.95817,3.581208 l -0.6597,0 c -1.13091,0 -2.73303,-0.471211 -4.33514,-1.507877 -0.18849,0.282727 -0.47122,0.565454 -0.84819,0.848181 0,0.09424 0.0943,0.09424 0.0943,0.188485 0.84818,1.696361 0.75394,3.675449 -0.18849,5.277569 -0.75394,1.22515 -1.97909,2.167573 -3.39272,2.4503 -0.37697,0.09424 -0.75394,0.188484 -1.22515,0.188484 -2.35606,0 -3.67545,-1.507877 -4.33515,-2.638784 -0.94242,1.036665 -2.35605,1.696361 -3.86393,1.696361 -1.88485,0 -3.67545,-1.036665 -4.61787,-2.544542 -0.56546,0.09424 -1.22515,0.188485 -1.79061,0.282727 0.56546,3.581207 0.84818,7.822111 -0.47121,11.686046 -0.56545,1.790603 -1.50788,3.581207 -2.82727,5.183327 -6.97393,12.9112 -5.08908,26.2936 -3.29848,36.47177 1.22515,0.56546 2.35606,1.41364 3.20424,2.35606 1.69636,1.97909 2.4503,4.61787 2.07333,7.3509 -0.37697,2.26181 -2.35606,4.05242 -4.61787,4.05242 l -9.61272,0 c -1.41363,0 -2.82727,-0.6597 -3.67545,-1.79061 l -0.0942,-0.0942 c -0.37697,-0.56545 -0.75394,-1.13091 -0.84818,-1.88484 -0.84818,-3.67545 -1.79061,-7.3509 -2.82727,-11.21484 -1.50788,-5.65454 -3.11,-11.40332 -4.05242,-17.24634 -2.82727,6.31423 -5.08908,13.57089 -6.12575,19.6024 0.6597,0.47121 1.22515,1.13091 1.69636,1.7906 1.41364,1.97909 1.97909,4.42939 1.60212,6.87969 -0.37697,2.26182 -2.35606,3.95818 -4.61787,3.95818 l -9.612717,0 c -1.413634,0 -2.733027,-0.6597 -3.67545,-1.69636 -1.036665,1.50787 -2.544542,2.4503 -4.335146,2.4503 z m -3.769692,-14.7018 c 2.261815,0.18848 4.335146,1.1309 5.937265,2.73302 -0.282727,-7.91635 1.319392,-15.8327 3.015754,-23.46633 0.09424,-0.28273 0.09424,-0.56545 0.188485,-0.94242 -3.015754,6.12575 -6.502719,10.08392 -9.047262,13.00543 -0.942423,1.03667 -2.07333,2.35606 -2.356057,2.92152 -0.471212,1.88484 0,3.10999 2.261815,5.74878 z m -32.230868,-7.82211 0,0.94242 c 0.188484,-0.47121 0.376969,-0.94242 0.565453,-1.50788 -0.188484,0.28273 -0.376969,0.47121 -0.565453,0.56546 z m 20.45058,-0.28273 c 0,0.28273 0.09424,0.56545 0.188484,0.84818 0.09424,-0.37697 0.188485,-0.84818 0.282727,-1.22515 0.09424,-0.18849 0.188485,-0.47121 0.188485,-0.6597 -0.09424,0.37697 -0.376969,0.6597 -0.659696,1.03667 z M 74.083051,110.3185 c 0.376969,0 0.84818,0.0942 1.22515,0.18849 2.07333,0.56545 3.486965,2.4503 3.486965,4.61787 -0.09424,5.27757 -0.848181,9.42423 -2.261815,12.53422 0.753938,-1.22515 1.790603,-2.35605 3.015753,-3.67545 3.015754,-3.39272 7.068173,-8.10483 9.8012,-16.20967 0.565454,-1.79061 2.261815,-3.11 4.146662,-3.20424 2.733026,-0.18848 5.466053,-0.28273 8.199084,-0.47121 l 0.18848,0 c 1.41364,-0.0942 2.82727,0.47121 3.76969,1.60212 0.94243,1.03666 1.41364,2.4503 1.13091,3.86393 -0.56545,3.58121 -1.31939,7.06818 -2.07333,10.55514 -0.18848,0.84818 -0.37697,1.69636 -0.56545,2.4503 2.54454,-6.78545 5.74878,-13.19392 8.95301,-17.71755 0.75394,-1.03667 1.88485,-1.69636 3.11,-1.88485 0.37697,-0.0942 0.6597,-0.0942 1.03667,-0.18848 0.28272,0 0.65969,-0.0943 0.94242,-0.0943 1.41363,-0.18848 2.82727,0.18849 3.86393,1.13091 1.03667,0.94242 1.60212,2.35606 1.60212,3.76969 -0.18848,4.24091 0.28273,8.57605 1.03667,13.00544 0.28273,-7.25666 1.88484,-15.17301 6.21999,-22.99512 0.0942,-0.282727 0.28273,-0.471212 0.47121,-0.659697 0.6597,-0.84818 1.13091,-1.790603 1.50788,-2.733026 0.75394,-2.167573 0.6597,-5.27757 -0.37697,-9.518473 -0.28273,-1.22515 -0.0942,-2.4503 0.56545,-3.581208 l 0.0942,-0.565454 c 0.28272,-2.356057 2.26181,-4.146661 4.71211,-4.146661 l 0.0942,0 0.47122,0 c 2.26181,0 4.71211,-0.376969 6.97393,-0.942423 0.18848,-0.09424 0.37696,-0.09424 0.65969,-0.09424 0.18849,-0.09424 0.37697,-0.188485 0.56546,-0.188485 1.22515,-0.376969 2.4503,-0.848181 3.5812,-1.413635 0.18849,-0.09424 0.28273,-0.09424 0.47121,-0.188484 0.18849,-0.09424 0.37697,-0.188485 0.56546,-0.376969 0.75394,-0.37697 1.60212,-0.942424 2.54454,-1.60212 0.0942,-0.09424 0.28273,-0.188484 0.37697,-0.188484 l 0.37697,-0.376969 c 1.41363,-1.130908 2.54454,-2.261816 3.39272,-3.486966 1.13091,-1.602119 3.11,-2.356057 5.08909,-1.790604 0.0942,0 0.18848,0.09424 0.28272,0.09424 0.18849,-0.282727 0.37697,-0.659696 0.6597,-0.942423 0.37697,-0.37697 0.75394,-0.753939 1.22515,-1.036666 0.47121,-1.22515 1.13091,-2.4503 1.97909,-3.67545 0.28272,-0.471211 0.65969,-0.84818 1.03666,-1.130907 1.03667,-0.753939 1.50788,-1.22515 1.69636,-1.413635 0.6597,-1.413634 2.4503,-6.12575 3.67545,-10.083926 -3.01575,0.84818 -7.44514,2.07333 -13.94786,4.146661 -1.7906,0.565454 -3.76969,0 -4.99484,-1.319392 -2.16757,-2.4503 -4.9006,-4.9006 -7.91635,-7.068173 -3.11,-2.261815 -6.21999,-4.052419 -9.23575,-5.277569 -1.7906,-0.753939 -2.92151,-2.544542 -2.92151,-4.523631 0.0942,-1.696361 -0.18848,-8.858777 -0.56545,-14.32483 -3.29848,2.4503 -7.06818,5.560296 -8.38757,6.691203 -0.0942,0.282727 -0.47121,1.036666 -0.94242,2.544543 -0.18849,0.471211 -0.37697,0.84818 -0.6597,1.22515 -0.56545,0.84818 -1.60212,2.261815 -3.10999,3.67545 -0.18849,1.319392 -0.75394,2.167573 -1.50788,2.827269 0,0.09424 0,0.188484 -0.0942,0.188484 0.94242,1.507877 1.03666,3.486966 0.0942,4.994842 -0.75394,1.319393 -1.41364,2.638785 -1.88485,4.146662 -0.0942,0.188484 -0.0942,0.282727 -0.18848,0.471211 0,0.188485 -0.0942,0.37697 -0.0942,0.659697 -0.18849,0.84818 -0.37697,1.790603 -0.56546,2.827269 0,0.188484 -0.0942,0.376969 -0.0942,0.565454 l 0,0.471211 c -0.0942,1.22515 -0.0942,2.544542 -0.0942,3.863935 l 0,0.565453 c 0,0.188485 0.0942,0.37697 0.0942,0.659697 0.47121,4.994842 2.16757,9.518472 4.99484,13.09968 0.75394,1.036665 1.13091,2.261815 0.94243,3.581207 -0.18849,1.22515 -0.84819,2.4503 -1.88485,3.204239 -0.18849,0.09424 -0.37697,0.282727 -0.56545,0.376969 -0.94243,0.659696 -2.16758,1.696362 -3.86394,2.167573 -0.0942,0 -0.18848,0 -0.18848,0.09424 -4.14666,1.036666 -9.14151,1.60212 -14.7018,1.60212 -3.675453,0 -7.539388,-0.188485 -12.251503,-0.659697 -14.136346,-1.413634 -23.654818,0.471212 -27.047541,5.371812 -0.471212,0.659696 -1.036666,1.130907 -1.696362,1.507877 -0.376969,0.188484 -0.753938,0.376969 -1.22515,0.565454 0.753939,0.84818 1.22515,1.979088 1.22515,3.204238 l 0,0.565454 c 0,0.753938 0.09424,1.507877 0.188485,2.356057 0.09424,0.37697 0.09424,0.753939 0,1.130908 0.376969,3.204238 1.22515,6.031508 1.884846,8.481805 0.848181,3.11 1.696361,6.12575 1.602119,9.23575 -0.282727,5.46605 -1.884846,9.61271 -3.863934,13.00544 0.09424,-0.0942 0.188484,-0.18849 0.282726,-0.18849 3.015754,-2.73302 6.785446,-6.03151 9.706958,-11.21483 0.753938,-1.88485 2.261815,-2.73303 3.958177,-2.73303 z M 17.066456,77.427936 c -0.565454,0.188485 -0.565454,0.376969 -0.565454,0.565454 -0.09424,0.471212 0,1.413635 0.37697,2.544542 0,-1.036665 0.188484,-2.07333 0.565453,-3.015753 -0.09424,-0.09424 -0.188484,-0.09424 -0.376969,-0.09424 z"
     inkscape:connector-curvature="0" />
  <g
     style="fill-rule:evenodd"
     id="g11"
     transform="matrix(0.94242305,0,0,0.94242305,-211.817,-411.22784)">
    <path
       inkscape:connector-curvature="0"
       d="m 283.57,531.71 c 0,10.2 8.2,23.1 37,20.8 21,-1.7 44.8,0.3 49.9,-14.6 2.5,-7.3 -1.8,-17.7 -3.5,-25.2 l -17.2,0 -3.4,1.4 c -8.8,2.2 -19.3,1.6 -26.9,0.8 -28.1,-2.8 -35.9,6.6 -35.9,16.8 z"
       id="path1203" />
    <path
       inkscape:connector-curvature="0"
       d="m 351.27,547.61 c -9,9.4 -17.5,35.1 -16.3,45.7 l -6.2,0 c -3.3,-15 3.2,-30.5 4.9,-45.7 l 17.6,0 z"
       id="path1205" />
    <path
       style="fill:#6c6c6c"
       inkscape:connector-curvature="0"
       d="m 328.87,593.41 c 0.3,-2.6 1.4,-5.3 5.1,-5.6 2.6,-0.2 5.7,1.9 5.1,5.6 l -10.2,0 z"
       id="path1207" />
    <path
       inkscape:connector-curvature="0"
       d="m 368.87,541.11 c -11.9,20.2 -4.7,41.6 -3.5,52.2 l -6.2,0 c -3.3,-15 -9.7,-30.5 -8,-45.7 l 17.7,-6.5 z"
       id="path1209" />
    <path
       style="fill:#6c6c6c"
       inkscape:connector-curvature="0"
       d="m 359.27,593.41 c 0.3,-2.6 1.4,-5.3 5.1,-5.6 2.6,-0.2 5.7,1.9 5.1,5.6 l -10.2,0 z"
       id="path1211" />
    <path
       inkscape:connector-curvature="0"
       d="m 301.07,535.11 c 0,0 25.8,6.5 24.9,10.6 -3.9,19.7 -15.3,25.9 -16.6,30.3 -2.2,7.2 4.4,11.1 9.4,18.1 l -8.2,0 c 0,0 -13.1,-13.6 -11.2,-21.3 6.5,-6.1 3.6,-27 1.7,-37.7 z"
       id="path1213" />
    <path
       inkscape:connector-curvature="0"
       d="m 283.77,535.01 c 0,0 25.1,6.6 24.3,10.8 -4,19.7 -18.5,26.1 -20.2,30.3 -2.9,7.2 -2,11.1 2.9,18.1 l -8.2,0 c 0,0 -6.7,-13.6 -4.8,-21.3 4.3,-4.1 9.4,-9.2 9.8,-18.8 0.2,-5 -2.9,-10.4 -3.8,-19.1 z"
       id="path1215" />
    <path
       style="fill:#6c6c6c"
       inkscape:connector-curvature="0"
       d="m 310.37,594.21 c -0.9,-3.6 1.4,-5.3 5.1,-5.6 2.6,-0.2 5.7,1.9 5.1,5.6 l -10.2,0 z"
       id="path1217" />
    <path
       style="fill:#6c6c6c"
       inkscape:connector-curvature="0"
       d="m 282.37,594.21 c -1,-3.6 1.4,-5.3 5.1,-5.6 2.6,-0.2 5.7,1.9 5.1,5.6 l -10.2,0 z"
       id="path1219" />
  </g>
  <path
     style="fill:#ff0000"
     inkscape:connector-curvature="0"
     d="m 119.60491,69.888551 c 1.79061,2.4503 4.24091,4.335146 7.25666,5.748781 3.20424,1.413634 6.97393,2.356057 11.30908,2.921511 l -0.6597,5.183327 c -4.9006,-0.565454 -9.23574,-1.602119 -12.91119,-3.298481 -3.86394,-1.790603 -6.97393,-4.146661 -9.32999,-7.350899 l 4.33514,-3.204239 z"
     id="path1221" />
  <g
     style="fill-rule:evenodd"
     id="g23"
     transform="matrix(0.94242305,0,0,0.94242305,-211.817,-411.22784)">
    <path
       inkscape:connector-curvature="0"
       d="m 347.07,477.41 c -6.9,11.1 -4.9,30.6 7.9,39.9 13.4,9.6 33.4,4.5 41.3,-6.5 0.6,5.5 5,6.9 5.5,6.9 -2.1,-1.3 -2.2,-5.8 -1.4,-6.9 0.8,2.6 2.9,4.1 3.4,4 0,0 -1.1,-2.3 -1.2,-3.5 -0.6,-5.3 -0.5,-2.1 2.1,0.7 -1.8,-3.5 -0.1,-6.8 1.4,-9.2 1.5,-1.1 2.6,-2.1 3,-2.7 1.2,-2 7.4,-19.3 6.3,-20 -1,-0.6 -16.9,4.3 -21.5,5.7 l -1.4,0.4 c -2.6,-2.9 -5.7,-5.7 -9.3,-8.2 -3.6,-2.6 -7.2,-4.7 -10.8,-6.2 0.1,-2.9 -0.7,-23 -1.5,-23.6 -1,-0.9 -15.4,10.6 -16.9,12.4 -0.5,0.6 -1.1,2.2 -1.8,4.2 -1.7,2.4 -4.3,5.6 -8.4,5.1 3.6,1.5 6.6,0.4 1.4,1.7 -1.2,0.3 -3.7,0.1 -3.7,0.1 -0.4,0.1 2.3,2 5,1.8 -0.8,1.1 -5,2.7 -7,1.2 -0.4,-0.5 2.7,3.5 7.6,2.7 z"
       id="path1223" />
    <path
       style="fill:#fa8973"
       inkscape:connector-curvature="0"
       d="m 368.97,453.21 c -0.7,-0.6 -10.4,7.2 -11.5,8.4 -1,1.2 -3.1,9.4 -3.1,9.4 l 11.6,-1.3 3,-16.5 z"
       id="path1225" />
    <path
       style="fill:#6c6c6c"
       inkscape:connector-curvature="0"
       d="m 357.47,513.81 0.1,0.1 c 14.8,10.9 37.1,-0.3 36.8,-12.8 -0.2,-6.6 -5.8,-14.3 -18.2,-13.8 -3.5,-11.9 -12.1,-14.5 -18.4,-12.5 -11.7,3.8 -15.2,28.6 -0.3,39 z"
       id="path1227" />
  </g>
  <path
     inkscape:connector-curvature="0"
     d="m 139.11307,67.061282 c 0.28273,0.188485 0.37697,0.565454 0.28273,0.848181 -0.94243,1.507877 -2.26182,2.544542 -4.14666,2.356057 -1.88485,-0.282726 -3.7697,-1.696361 -4.71212,-3.29848 -1.13091,0.188484 -2.54454,0.09424 -3.95818,-0.376969 -2.82726,-1.036666 -3.48696,-3.392723 -2.4503,-6.12575 0.18849,-0.376969 0.47122,-0.471212 0.84819,-0.376969 0.28272,0.09424 0.47121,0.471211 0.37696,0.84818 -0.75393,1.979089 -0.37696,3.67545 1.69637,4.429389 1.1309,0.471211 2.54454,0.471211 3.29848,0.376969 l 0.94242,-2.167573 1.22515,0.471211 c -0.0942,0.09424 -0.94242,1.979089 -1.03667,2.073331 0.56546,1.22515 2.4503,2.733027 3.86394,2.921512 2.54454,0.376969 2.63878,-2.638785 3.76969,-1.979089 z"
     id="path1229" />
  <path
     style="fill:#fa8973;fill-rule:evenodd"
     inkscape:connector-curvature="0"
     d="m 176.33878,44.06616 c 0.6597,0.471211 -3.76969,11.309076 -4.61787,12.534226 -0.84818,1.22515 -7.72787,5.183327 -7.72787,5.183327 l -1.7906,-10.837865 14.13634,-6.879688 z"
     id="path1231" />
  <path
     style="fill:#b2b2b2"
     inkscape:connector-curvature="0"
     d="m 158.3385,77.333693 -0.37697,-0.188484 c -4.33514,-5.466054 -12.15726,-7.068173 -16.20967,-7.539385 l -0.47122,-0.659696 0.56546,-0.565454 c 3.95817,0.282727 13.00544,2.4503 16.96361,7.916354 l 0,0.848181 -0.47121,0.188484 z m -1.22515,6.691204 c -0.94242,0 -0.84818,-2.733027 -6.12575,-7.162415 -6.50272,-5.466054 -9.89544,-4.712115 -9.32999,-6.314235 l 0.18849,-0.282727 0.47121,-0.09424 c 4.33515,1.602119 11.87453,6.12575 15.17301,12.816954 0.37697,0.471211 0.0942,1.036665 -0.37697,1.036665 z m -8.38756,-0.848181 -0.47122,-0.188484 c -0.0942,-0.09424 -0.0942,-0.188485 -0.18848,-0.282727 -1.97909,-4.240904 -3.76969,-7.068173 -7.82211,-9.895442 -0.18849,-0.09424 -0.28273,-0.282727 -0.28273,-0.471212 -0.0942,-0.565454 0.56546,-1.036665 1.03667,-0.659696 3.76969,2.544542 6.6912,6.314234 8.29332,10.460896 0.0942,0.188485 0.0942,0.376969 0,0.471211 -0.0942,0.188485 -0.18848,0.282727 -0.37697,0.37697 l -0.18848,0.188484 z"
     id="path1233" />
  <path
     style="fill:#b2b2b2"
     inkscape:connector-curvature="0"
     d="m 110.08644,43.971917 0.28273,0.282727 c 6.6912,2.167573 10.93211,8.858777 12.72271,12.534227 l 0.84818,0.188484 0.37697,-0.753938 C 122.62067,52.642209 117.43734,44.91434 110.84038,43.217979 l -0.75394,0.282727 0,0.471211 z m -5.84302,3.486966 c 0.28273,0.84818 2.92151,-0.188485 8.85877,3.204238 7.44515,4.146661 7.91636,7.539384 9.14151,6.502719 l 0.18848,-0.282727 -0.0942,-0.471211 c -3.11,-3.486966 -9.98968,-8.953019 -17.34058,-9.706958 -0.47121,-0.09424 -0.94243,0.376969 -0.75394,0.753939 z m 3.76969,7.539384 0.37697,0.376969 c 0.0942,0.09424 0.18848,0.09424 0.28273,0.09424 4.61787,0.376969 8.01059,1.036665 12.06301,3.863934 0.18849,0.09424 0.37697,0.09424 0.47121,0.09424 0.56546,-0.09424 0.75394,-0.84818 0.28273,-1.22515 -3.76969,-2.544542 -8.29332,-4.052419 -12.72271,-4.052419 -0.18849,0 -0.37697,0.09424 -0.47121,0.188485 -0.0942,0.09424 -0.18849,0.282727 -0.18849,0.471211 l -0.0942,0.188485 z"
     id="path1235" />
  <path
     inkscape:connector-curvature="0"
     d="m 134.30671,60.181594 c 0.84818,-0.376969 1.50788,-0.471212 2.35606,0.09424 0.84818,0.659696 1.13091,1.696362 0.6597,2.544542 -0.94243,1.319393 -3.48697,1.60212 -6.12575,1.884846 -0.6597,-2.450299 -1.31939,-4.994842 -0.37697,-6.314234 0.56545,-0.753938 1.69636,-0.848181 2.54454,-0.282727 0.84818,0.471212 1.03667,1.036665 0.94242,2.073331 z"
     id="path1237" />
  <path
     inkscape:connector-curvature="0"
     d="m 138.07641,59.144928 c 5.18332,-2.167573 12.91119,-2.450299 13.85361,5.748781 0.0942,0.376969 -1.50787,1.319392 -1.7906,1.319392 -0.37697,0.09424 -0.6597,-0.188484 -0.6597,-0.565453 -0.0942,-0.659697 -0.18848,-1.130908 -0.47121,-1.696362 -0.65969,-1.696361 -1.97909,-2.921511 -3.48696,-3.769692 -1.03667,-0.565454 -2.16758,-0.848181 -3.20424,-0.942423 -1.13091,-0.188485 -3.20424,-0.09424 -4.2409,-0.09424 z"
     id="path1239" />
  <g
     style="fill-rule:evenodd"
     id="g34"
     transform="matrix(0.94242305,0,0,0.94242305,-211.817,-411.22784)">
    <path
       style="fill:#00cbff"
       inkscape:connector-curvature="0"
       d="m 363.67,479.01 c -3.2,-1.1 -6.1,0.1 -6.1,0.1 0,0 -3.9,5.6 -0.4,10.9 3.4,5.3 9.2,5.6 9.2,5.6 0,0 2.6,-2.2 3.5,-5.6 0.6,-2.1 0.5,-4.6 -1.4,-7.3 -1.6,-2 -3.2,-3.1 -4.8,-3.7 z"
       id="path1241" />
    <path
       inkscape:connector-curvature="0"
       d="m 357.27,490.21 c 0.7,1.1 1.6,1.9 2.4,2.6 1.6,-0.7 3.7,-2 5.3,-3.9 1.9,-2.3 2.6,-5.2 2.8,-7 -0.5,-0.6 -0.9,-1 -1.4,-1.4 -1.7,0.6 -4.5,1.9 -6.5,4.3 -1.4,1.7 -2.2,3.8 -2.6,5.4 z"
       id="path1243" />
    <path
       style="fill:#ffffff"
       inkscape:connector-curvature="0"
       d="m 364.67,482.21 c 0.6,0.9 0.4,2.1 -0.4,2.7 -0.9,0.6 -2.1,0.3 -2.7,-0.6 -0.6,-0.9 -0.4,-2.1 0.4,-2.7 0.9,-0.5 2.1,-0.3 2.7,0.6 z"
       id="path1245" />
    <path
       inkscape:connector-curvature="0"
       d="m 363.67,479.01 c -3.2,-1.1 -6.1,0.1 -6.1,0.1 0,0 -0.8,0.7 -0.4,0.6 2.4,-0.5 13.5,2.9 9.3,15.6 0.6,-0.6 2.5,-2.6 3.3,-5.4 0.6,-2.1 0.5,-4.6 -1.4,-7.3 -1.5,-1.9 -3.1,-3 -4.7,-3.6 z"
       id="path1247" />
    <path
       style="fill:#ffffff"
       inkscape:connector-curvature="0"
       d="m 361.47,491.21 c 0.3,0.5 0.2,1.1 -0.2,1.4 -0.5,0.3 -1.1,0.2 -1.4,-0.3 -0.3,-0.5 -0.2,-1.1 0.2,-1.4 0.5,-0.3 1.1,-0.1 1.4,0.3 z"
       id="path1249" />
    <path
       style="fill:#ff0000"
       inkscape:connector-curvature="0"
       d="m 363.27,507.21 3.1,2.6 c -0.3,0.6 -0.7,1.1 -1.2,1.5 -1.8,1.3 -4.2,0.9 -5.5,-0.9 -0.8,-1.1 -1,-2.6 -0.5,-3.9 l 4.1,0.7 z"
       id="path1251" />
  </g>
  <path
     inkscape:connector-curvature="0"
     d="m 130.91399,66.213101 2.92151,2.4503 c 0.28273,0.188485 0.28273,0.565454 0.0942,0.848181 l -0.56545,0.848181 -0.75394,0.753938 c -0.94242,0.753939 -2.16757,0.942423 -3.29848,0.848181 -1.13091,-0.188485 -2.16757,-0.753938 -2.82727,-1.696362 -0.47121,-0.659696 -0.75394,-1.319392 -0.84818,-2.07333 -0.0942,-0.753939 0,-1.507877 0.28273,-2.261816 0.0942,-0.282726 0.37697,-0.471211 0.65969,-0.376969 l 3.86394,0.565454 c 0.28273,0 0.37697,0 0.47121,0.09424 z m 1.69636,3.109996 -2.35606,-1.979088 -3.10999,-0.471212 c -0.0942,0.37697 -0.0942,0.753939 -0.0942,1.036666 0.0942,0.565454 0.28272,1.036665 0.56545,1.507877 0.47121,0.659696 1.22515,1.130907 1.97909,1.22515 0.75394,0.09424 1.60212,-0.09424 2.26181,-0.565454 0.18849,-0.188485 0.37697,-0.282727 0.56546,-0.471212 0.0942,-0.188484 0.0942,-0.188484 0.18848,-0.282727 z m -5.84302,-3.863934"
     id="path1253" />
  <g
     style="fill-rule:evenodd"
     id="g43"
     transform="matrix(0.94242305,0,0,0.94242305,-211.817,-411.22784)">
    <path
       inkscape:connector-curvature="0"
       d="m 384.57,504.01 c 0.8,0.5 3.4,2.1 5,1.2 -2.2,1.8 -4.9,-0.4 -5.2,-0.6 l 0.2,-0.6 z"
       id="path1255" />
    <path
       inkscape:connector-curvature="0"
       d="m 385.17,505.11 c 0.8,0.5 3.2,2.4 4.8,1.6 -2.4,1.6 -4.8,-0.7 -5.1,-1 l 0.3,-0.6 z"
       id="path1257" />
    <path
       inkscape:connector-curvature="0"
       d="m 383.47,502.91 c 0.9,0.4 3.5,1.8 5.1,0.9 -2.1,2 -4.9,0 -5.3,-0.2 l 0.2,-0.7 z"
       id="path1259" />
    <path
       inkscape:connector-curvature="0"
       d="m 361.57,479.21 c -0.7,-0.7 -3.1,-2.6 -2.7,-4.3 -1,2.7 1.9,4.5 2.2,4.8 l 0.5,-0.5 z"
       id="path1261" />
    <path
       inkscape:connector-curvature="0"
       d="m 360.37,479.01 c -0.7,-0.6 -3.3,-2.3 -3.1,-4.1 -0.8,2.7 2.2,4.3 2.6,4.6 l 0.5,-0.5 z"
       id="path1263" />
    <path
       inkscape:connector-curvature="0"
       d="m 362.97,479.91 c -0.7,-0.7 -2.9,-2.7 -2.4,-4.5 -1.2,2.6 1.6,4.7 1.9,4.9 l 0.5,-0.4 z"
       id="path1265" />
    <path
       inkscape:connector-curvature="0"
       d="m 241.37,513.71 c 3.3,-1.2 10.6,2.6 7.3,5.8 -2.4,2.2 0.1,6 3.3,7.3 5,2.2 11.8,1.8 16.7,1.2 4.5,-0.6 8.8,-1.8 12.8,-3.1 5.8,-2 10.2,-5.4 15.3,-8.1 2.4,-1.3 3.9,2.3 3.2,3.7 -3,5.7 -11.3,8.9 -17.6,11.2 -7.2,2.6 -15.4,3.8 -23.6,3.4 -6.4,-0.3 -14,-2.2 -18.2,-7.4 -3.9,-4.8 -5.3,-11.8 0.8,-14 z"
       id="path1267" />
  </g>
</svg>
