<?xml version="1.0" encoding="UTF-8" standalone="no"?>
<!-- Created with Inkscape (http://www.inkscape.org/) -->

<svg
   xmlns:dc="http://purl.org/dc/elements/1.1/"
   xmlns:cc="http://creativecommons.org/ns#"
   xmlns:rdf="http://www.w3.org/1999/02/22-rdf-syntax-ns#"
   xmlns:svg="http://www.w3.org/2000/svg"
   xmlns="http://www.w3.org/2000/svg"
   xmlns:sodipodi="http://sodipodi.sourceforge.net/DTD/sodipodi-0.dtd"
   xmlns:inkscape="http://www.inkscape.org/namespaces/inkscape"
   id="svg6018"
   height="37mm"
   width="56mm"
   version="1.1"
   viewBox="0 0 198.4252 131.10236"
   inkscape:version="0.91 r13725"
   sodipodi:docname="cat_1.svg">
  <defs
     id="defs184" />
  <sodipodi:namedview
     pagecolor="#ffffff"
     bordercolor="#666666"
     borderopacity="1"
     objecttolerance="10"
     gridtolerance="10"
     guidetolerance="10"
     inkscape:pageopacity="0"
     inkscape:pageshadow="2"
     inkscape:window-width="1182"
     inkscape:window-height="822"
     id="namedview182"
     showgrid="false"
     inkscape:zoom="1.5522222"
     inkscape:cx="-120.47244"
     inkscape:cy="65.551179"
     inkscape:window-x="0"
     inkscape:window-y="0"
     inkscape:window-maximized="0"
     inkscape:current-layer="svg6018" />
  <metadata
     id="metadata6023">
    <rdf:RDF>
      <cc:Work
         rdf:about="">
        <dc:format>image/svg+xml</dc:format>
        <dc:type
           rdf:resource="http://purl.org/dc/dcmitype/StillImage" />
        <dc:title />
      </cc:Work>
    </rdf:RDF>
  </metadata>
  <g
     style="fill:#676766"
     transform="matrix(0.93272173,0,0,0.93272173,-39.783688,-99.118257)"
     id="g29">
    <path
       style="fill-rule:evenodd"
       inkscape:connector-curvature="0"
       d="m 162.5,223.8 c 9.4,0.9 19.4,1.2 26.8,1.4 0.3,1.2 0.8,2.3 1.4,3.3 -0.8,0.1 -1.5,0.2 -2.2,0.3 -9.7,-1.1 -18.5,-2.2 -26,-5 z m 26.3,-3.9 -0.2,0 c -7.5,-0.8 -14.3,-1.6 -20.5,-3.2 l 0.3,-2.4 c 13.3,2.4 27.6,-5.9 31.9,-16.5 1.7,5 6.2,5.4 6.6,5.2 -2.3,-0.8 -3.3,-4.9 -2.8,-6.2 1.3,2.2 3.6,3.3 4.1,3 0,0 -1.5,-1.9 -1.9,-3 -1.7,-4.9 -1,-1.8 2.2,0.2 -2.4,-2.8 -1.6,-6.3 -0.7,-8.9 1.1,-1.4 2,-2.6 2.2,-3.2 0.7,-2.1 2.8,-19.6 1.6,-20 -1.1,-0.3 -14.9,7.6 -19,9.9 l -1.2,0.7 c -3,-2.2 -6.6,-4.1 -10.5,-5.7 -3.9,-1.6 -7.8,-2.8 -11.4,-3.5 -0.5,-2.7 -5.6,-21.3 -6.5,-21.8 -1,-0.5 -12,13.3 -13,15.3 -0.3,0.6 -0.6,2.3 -0.8,4.3 -1,2.6 -2.8,6.2 -6.8,6.6 3.7,0.6 6.3,-1 1.7,1.3 -1,0.5 -3.4,0.9 -3.5,0.9 -0.3,0.2 2.6,1.3 5,0.6 -0.5,1.2 -4.1,3.5 -6.3,2.6 -0.5,-0.2 3.3,2.9 7.7,1 -1.8,5.4 -1.6,11.9 0.5,18 l -2.6,1 c -2.5,-2.7 -4.6,-5.7 -6.1,-8.9 -9.6,-21.4 -4.4,-36.2 -26.1,-44.4 -5.4,-2 -10.3,-2.3 -14.4,-1.1 -0.6,-7 -4,-15.8 -10.7,-20.2 -6.6,-4.3 -14.7,-3.9 -20.8,1 -5.6,4.5 -10.2,11.9 -10.8,19.2 -0.4,4.5 1.6,16.1 8.3,10.4 1.3,-1.1 1.6,-2.9 0.7,-4.3 -4.1,-7 0.9,-20 8.8,-22.4 5.4,-1.6 10.5,0.6 14.1,4.4 4,4.2 4.8,9.7 5.6,13.9 -6.9,4.4 -10.9,13.5 -10.6,24.4 0.2,6.5 0.8,11.1 1.8,14.3 1.5,8.1 3,15.9 -1.8,20.5 -1.6,6.6 5.3,25.9 6.9,30.3 l 0,0.1 0,0.1 0,0.1 0,0.1 c 0,0.2 0.1,0.4 0.1,0.6 l 9,0 c 0,-0.1 0,-0.2 0.1,-0.3 l 0,0.1 0,-0.1 0,-0.1 0,-0.1 0,-0.1 0,-0.1 c 0,-0.2 0,-0.4 -0.1,-0.6 l 0,-0.2 0,-0.1 0,-0.1 -0.1,-0.1 c -0.1,-0.2 -0.1,-0.4 -0.2,-0.5 l -0.1,-0.1 -0.1,-0.1 0,-0.1 -0.1,-0.1 -0.1,-0.1 c -0.2,-0.3 -0.3,-0.5 -0.6,-0.7 l -0.1,-0.1 c -0.8,-0.8 -1.8,-1.2 -2.9,-1.3 -2.5,-9.1 -4,-17.1 -2.2,-23 0.2,-0.7 0.6,-1.5 1.1,-2.4 -0.9,7.4 8.4,26.4 10.2,30 l 0,0.1 0,0.1 0,0.1 0,0.2 9,0 0,-0.3 0,-0.1 0,-0.1 0,-0.1 0,-0.1 0,-0.1 0,-0.1 0,-0.1 0,-0.1 0,-0.1 0,-0.1 0,-0.1 0,-0.1 0,-0.1 c 0,-0.1 0,-0.2 -0.1,-0.3 l 0,-0.1 0,-0.1 0,-0.1 0,-0.1 0,-0.1 0,-0.1 0,-0.1 0,-0.1 0,-0.1 0,-0.1 0,-0.1 0,-0.1 0,-0.1 0,-0.1 0,-0.1 0,-0.1 0,-0.1 0,-0.1 0,-0.1 c -0.1,-0.1 -0.1,-0.2 -0.2,-0.3 l -0.1,-0.1 0,-0.1 -0.1,-0.1 -0.1,-0.1 -0.1,-0.1 -0.1,-0.1 -0.1,-0.1 -0.1,-0.1 -0.1,-0.1 -0.1,-0.1 c -0.2,-0.1 -0.4,-0.3 -0.6,-0.4 l -0.1,-0.1 c -0.1,0 -0.1,-0.1 -0.2,-0.1 l -0.1,0 -0.1,0 c -0.6,-0.3 -1.2,-0.4 -1.8,-0.5 -3.2,-9.1 -6.9,-17.1 -5.1,-23 0.7,-2.4 3.4,-5.2 6,-8.1 3.7,11.1 13.5,17.6 23.3,21.5 2.9,3.5 6.9,7.3 10.9,10.5 14.6,3.3 41.2,4.2 52.2,4 2.4,1.4 5.1,2.3 8.1,2.3 3.9,0 7.5,-1.5 10.3,-3.9 2.3,0.4 5.2,0.8 8.2,0.9 3,0.1 5.8,-0.1 8,-0.7 1.6,0.1 3.4,0.1 4.5,0.1 l 0.4,0 c 2.6,-0.1 3,-0.1 6.3,-1.2 l -0.4,-1.3 c -3.1,1 -3.5,1.1 -6,1.2 l -0.4,0 -1.9,0 c 0.2,-0.1 0.3,-0.3 0.4,-0.5 0.5,-0.6 0.6,-1.4 0.3,-2.2 -0.3,-1 -1.3,-1.8 -2.5,-1.9 -2.4,-0.3 -4.2,0.4 -4.8,1.8 -0.3,0.6 -0.3,1.3 0,2 0.2,0.5 0.5,0.9 1,1.3 -3.7,0.4 -8.4,0.1 -12,-0.5 2.5,-2.7 4,-6.4 4,-10.3 0,-8.5 -6.9,-15.4 -15.4,-15.4 -8,0.7 -14.7,7 -15.2,15.1 z m 41.9,8.1 c -1.5,-0.1 -2.7,0.4 -3.1,1.2 -0.1,0.2 -0.1,0.4 0,0.7 0.2,0.5 0.7,0.9 1.3,1.1 0.5,0.1 1,0.2 1.6,0.2 1,-0.3 1.8,-0.7 2.2,-1.3 0.1,-0.2 0.2,-0.5 0.1,-0.8 -0.2,-0.6 -0.7,-1 -1.5,-1 -0.1,0 -0.4,-0.1 -0.6,-0.1 z"
       id="path31" />
    <path
       inkscape:connector-curvature="0"
       d="m 204.1,242.3 c -3.4,0 -6.6,-0.8 -9.6,-2.3 l -0.8,0 c -11.2,0 -36.4,-0.9 -51.2,-4.2 -0.9,-0.2 -1.7,-0.6 -2.4,-1.2 -3.8,-3 -7.7,-6.7 -10.8,-10.2 -8.8,-3.7 -15.6,-8.6 -20.2,-14.7 0.1,3.3 2,8.3 3.7,13.1 0.2,0.4 0.3,0.9 0.5,1.3 l 0.1,0 c 0.3,0.1 0.6,0.3 0.8,0.5 l 0.1,0.1 c 0.1,0.1 0.2,0.1 0.3,0.2 0.1,0.1 0.3,0.2 0.4,0.3 0.2,0.1 0.3,0.2 0.4,0.4 0.2,0.1 0.4,0.3 0.5,0.5 l 0.1,0.1 0.1,0.1 c 0.1,0.1 0.3,0.3 0.4,0.5 0.2,0.2 0.3,0.4 0.5,0.6 0,0.1 0.1,0.1 0.1,0.2 0.3,0.3 0.5,0.7 0.7,1 l -0.2,0.1 0,0.1 0.2,-0.1 0.1,0.1 0.1,0.1 -0.3,0.1 0,0.1 0.3,-0.1 0.1,0.1 -0.3,0.2 0,0.1 0.3,-0.2 c 0.2,0.3 0.3,0.6 0.4,1 l 0,0.1 c 0.1,0.2 0.1,0.4 0.2,0.6 l 0,0.1 0,0.1 c 0.1,0.2 0.1,0.5 0.1,0.7 0.1,0.3 0.1,0.5 0.1,0.8 l 0,0.7 0,0.4 0,0.7 0,0.4 c -0.2,3.1 -2.8,5.5 -6,5.5 l -9,0 c -0.9,0 -1.8,-0.2 -2.6,-0.6 -0.8,0.4 -1.7,0.6 -2.6,0.6 l -9,0 c -2.9,0 -5.3,-2 -5.9,-4.7 -0.1,-0.2 -0.1,-0.4 -0.2,-0.7 -6,-16.4 -8.4,-27.7 -7,-33.3 0.3,-1.1 0.9,-2.1 1.7,-2.9 2.4,-2.3 1.3,-8.6 0.1,-14.8 -1.1,-3.9 -1.7,-9 -1.9,-15.5 -0.4,-11.2 3.3,-21 10,-27.1 -0.6,-2.7 -1.5,-5.3 -3.4,-7.4 -1.1,-1.2 -3.3,-3.1 -6.1,-3.1 -0.6,0 -1.2,0.1 -1.9,0.3 -1.8,0.6 -3.8,2.9 -5,5.9 -1.2,3 -1.3,6.1 -0.3,7.7 2.3,3.9 1.5,9 -2,11.9 -2.3,2 -4.7,3 -7.2,3 -2.5,0 -4.9,-1.1 -6.8,-3.1 -4.1,-4.5 -4.4,-12.6 -4.2,-15.4 0.7,-8.5 5.7,-17.5 13,-23.4 4.3,-3.5 9.4,-5.3 14.8,-5.3 4.5,0 9,1.4 13,3.9 6.7,4.3 10.6,11.7 12.4,18.6 3.7,-0.1 7.6,0.7 11.6,2.2 17.2,6.5 20.6,17.3 23.5,29 0.9,-0.8 2.1,-1.4 3.4,-1.5 0.4,0 0.9,-0.8 1.6,-2.1 0.3,-2.6 0.6,-4.2 1.4,-5.6 1.2,-2.3 6.9,-9.2 7,-9.3 6.1,-7.4 8.2,-9 11.4,-9 0.9,0 1.9,0.2 2.7,0.6 2.7,1.3 3.4,2.7 6.5,13.8 0.8,2.9 1.7,5.9 2.3,8.3 2.8,0.7 5.8,1.7 8.8,3 3,1.3 5.8,2.7 8.4,4.2 16.7,-9.6 18.1,-9.6 19.8,-9.6 0.6,0 1.3,0.1 1.9,0.3 0.1,0 0.1,0 0.2,0.1 5.2,1.9 4.7,7.3 3.8,15.6 0,0.1 -0.9,9.3 -1.8,11.9 -0.4,1.2 -1.1,2.5 -2.6,4.3 -0.2,0.7 -0.4,1.6 -0.2,1.9 1,1.1 1.5,2.5 1.5,4 0,0.7 -0.1,1.4 -0.3,2 0.1,0.5 0.1,1 0,1.6 -0.1,0.4 -0.2,0.9 -0.3,1.3 6.9,3.6 11.7,10.8 11.7,19.1 l 0,0.8 c 1.9,-0.9 4.2,-1.2 6.7,-0.9 2.7,0.3 5,1.8 6.4,4 0.2,-0.1 0.5,-0.2 0.9,-0.3 1.6,-0.5 3.3,-0.4 4.7,0.4 1.5,0.8 2.5,2.1 3,3.7 l 0.4,1.3 c 0.8,3.1 -0.8,6.2 -3.8,7.3 -3.6,1.2 -4.6,1.4 -7.7,1.6 l -0.2,0 -0.3,0 -0.3,0 -1.7,0 c -0.6,0 -1.5,0 -2.5,-0.1 -2,0.4 -4.4,0.6 -7.1,0.6 l -1.6,0 c -2.4,-0.1 -4.6,-0.3 -6.4,-0.5 -3.1,2.2 -7.2,3.4 -11.5,3.4 z m -91,-10.5 2.4,-1.2 -0.1,0 -2.3,1.2 z m 0,-0.3 1.8,-0.9 -0.1,0 -1.7,0.9 z m 0,-0.4 1,-0.5 -0.1,0 -0.9,0.5 z m 83.6,-3 c 0.9,0.1 1.7,0.4 2.5,0.9 1.5,0.9 3.2,1.4 5,1.4 2.3,0 4.6,-0.8 6.3,-2.4 0.1,-0.1 0.2,-0.2 0.4,-0.3 0.1,-0.1 0.2,-0.3 0.4,-0.4 1.6,-1.7 2.4,-4 2.4,-6.3 0,-5.2 -4.2,-9.4 -9.4,-9.4 -4.9,0 -9.1,3.8 -9.4,8.8 0,0.6 -0.2,1.2 -0.4,1.7 0.3,0.5 0.5,1 0.7,1.5 0.2,0.7 0.5,1.4 0.8,1.9 0.4,0.8 0.6,1.7 0.7,2.6 z m -50.2,-3.6 c 3.1,0.6 6.7,1.2 10.5,1.6 -0.5,-1.1 -0.6,-2.4 -0.3,-3.6 0.6,-2.6 2.9,-4.5 5.5,-4.7 -0.1,-0.6 -0.1,-1.3 0,-2 l 0.3,-2.4 c 0.2,-1.6 1.1,-3.1 2.4,-4 1.3,-1 3,-1.3 4.6,-1 1.2,0.2 2.4,0.3 3.6,0.3 9.1,0 18.7,-5.8 21.8,-13.2 0.9,-2.1 2.9,-3.5 5.1,-3.7 0.2,-0.3 0.4,-0.7 0.6,-1 0.2,-0.3 0.4,-0.5 0.6,-0.7 0.2,-1.3 0.6,-2.6 1.1,-3.9 0.2,-0.6 0.6,-1.2 1,-1.8 0.6,-0.8 1,-1.2 1.2,-1.5 0.3,-1.5 0.8,-4.9 1.1,-8.3 -2.4,1.3 -5.6,3.1 -9.8,5.5 l -1.1,0.7 c -2,1.2 -4.6,1.1 -6.5,-0.3 -2.6,-1.9 -5.7,-3.6 -9.3,-5.1 -3.6,-1.5 -7,-2.5 -10.1,-3.1 -2.4,-0.4 -4.4,-2.3 -4.9,-4.7 -0.3,-1.4 -1.8,-6.9 -3.2,-11.9 -2.1,2.6 -4.3,5.3 -5.1,6.6 -0.1,0.4 -0.2,1.1 -0.3,2.4 -0.1,0.6 -0.2,1.1 -0.4,1.7 -0.4,0.9 -1,2.5 -2.2,4.2 0,1 -0.2,2 -0.7,2.9 1.2,1.6 1.6,3.6 0.9,5.6 -1.4,4 -1.2,9.2 0.5,14.2 1,3 -0.5,6.3 -3.5,7.5 l -2.6,1 c -2.3,0.9 -4.9,0.3 -6.6,-1.5 -3.1,-3.4 -5.6,-6.9 -7.2,-10.6 -3.2,-7.2 -4.8,-13.5 -6.3,-19.1 -2.9,-11.3 -4.5,-17.6 -16.5,-22.1 -3.9,-1.5 -7.6,-1.8 -10.7,-1 -0.6,0.2 -1.3,0.2 -1.9,0.2 -0.4,0.5 -0.9,0.9 -1.4,1.2 -5.1,3.3 -8.1,10.4 -7.8,19.2 0.2,5.6 0.7,9.9 1.5,12.8 0.1,0.2 0.1,0.4 0.1,0.6 1,5.5 2.1,11.3 1.2,16.7 1.2,-0.4 2.6,-0.5 3.9,0 1.6,0.6 2.9,1.8 3.5,3.3 1.4,-2.4 3.4,-4.6 5.6,-7 l 0.4,-0.4 c 1.4,-1.6 3.6,-2.3 5.7,-1.8 2.1,0.4 3.8,2 4.4,4 2.5,7.6 9.2,13.6 19.8,17.8 0.9,0.4 1.7,1 2.4,1.7 2.6,2.8 5.8,6 9.1,8.7 z"
       id="path33" />
  </g>
  <path
     id="path37"
     d="m 111.78359,109.62487 c 8.76759,0.83945 18.0948,1.11926 24.99695,1.30581 0.27981,1.11926 0.74617,2.14526 1.30581,3.07798 -0.74618,0.0933 -1.39909,0.18654 -2.05199,0.27981 -9.0474,-1.02599 -17.25535,-2.05198 -24.25077,-4.6636 z m 24.53058,-3.63762 -0.18654,0 c -6.99541,-0.74618 -13.33792,-1.49235 -19.1208,-2.98471 l 0.27982,-2.23853 c 12.4052,2.23853 25.74312,-5.503058 29.75382,-15.389909 1.58563,4.663609 5.78288,5.036698 6.15597,4.850153 -2.14526,-0.746177 -3.07798,-4.570336 -2.61162,-5.782875 1.21254,2.051988 3.3578,3.077982 3.82416,2.798166 0,0 -1.39909,-1.772172 -1.77218,-2.798166 -1.58562,-4.570336 -0.93272,-1.678899 2.05199,0.186545 -2.23853,-2.611621 -1.49235,-5.876147 -0.6529,-8.301224 1.02599,-1.30581 1.86544,-2.425076 2.05199,-2.984709 0.6529,-1.958716 2.61162,-18.281346 1.49235,-18.654435 -1.02599,-0.279816 -13.89755,7.088685 -17.72171,9.233945 l -1.11927,0.652906 c -2.79816,-2.051988 -6.15596,-3.824159 -9.79358,-5.316514 -3.63761,-1.492355 -7.27523,-2.611621 -10.63302,-3.264526 -0.46637,-2.518349 -5.22325,-19.866973 -6.0627,-20.333334 -0.93272,-0.466361 -11.19266,12.405199 -12.12538,14.270642 -0.279815,0.559633 -0.559632,2.14526 -0.746176,4.010704 -0.932722,2.425076 -2.611621,5.782875 -6.342508,6.155963 3.451071,0.559633 5.876147,-0.932721 1.585627,1.212539 -0.932721,0.46636 -3.171254,0.839449 -3.264526,0.839449 -0.279816,0.186544 2.425077,1.212538 4.663609,0.559633 -0.466361,1.119266 -3.824159,3.264526 -5.876147,2.425077 -0.466361,-0.186545 3.077982,2.704893 7.181957,0.932721 -1.678899,5.036698 -1.492354,11.099389 0.466361,16.788992 l -2.425076,0.932721 C 93.035886,81.270126 91.077171,78.47196 89.678088,75.487251 80.72396,55.527006 85.574113,41.722724 65.334051,34.074406 60.297354,32.208963 55.727017,31.929146 51.902858,33.048412 51.343225,26.51936 48.171971,18.311409 41.922736,14.207433 35.766772,10.19673 28.211726,10.569818 22.522124,15.140155 c -5.223242,4.197248 -9.513762,11.099389 -10.073395,17.908257 -0.373089,4.197248 1.492355,15.01682 7.74159,9.700306 1.212538,-1.025994 1.492355,-2.704893 0.652905,-4.010703 -3.824159,-6.529052 0.83945,-18.654435 8.207952,-20.892967 5.036697,-1.492355 9.793578,0.559633 13.151376,4.103976 3.730887,3.917431 4.477064,9.0474 5.223242,12.964832 -6.43578,4.103975 -10.166667,12.591743 -9.886851,22.75841 0.186545,6.062691 0.746178,10.353211 1.6789,13.337921 1.399082,7.555046 2.798165,14.830275 -1.6789,19.120795 -1.492354,6.155963 4.943426,24.157488 6.43578,28.261468 l 0,0.0933 0,0.0933 0,0.0933 0,0.0933 c 0,0.18654 0.09327,0.37309 0.09327,0.55963 l 8.394495,0 c 0,-0.0933 0,-0.18654 0.09327,-0.27981 l 0,0.0933 0,-0.0933 0,-0.0933 0,-0.0933 0,-0.0933 0,-0.0933 c 0,-0.18655 0,-0.37309 -0.09327,-0.55964 l 0,-0.18654 0,-0.0933 0,-0.0933 -0.09327,-0.0933 c -0.09327,-0.18654 -0.09327,-0.37309 -0.186544,-0.46636 l -0.09327,-0.0933 -0.09327,-0.0933 0,-0.0933 -0.09327,-0.0933 -0.09327,-0.0933 c -0.186544,-0.27982 -0.279817,-0.46636 -0.559633,-0.6529 l -0.09327,-0.0933 c -0.746178,-0.74617 -1.678899,-1.11926 -2.704893,-1.21253 -2.331805,-8.48777 -3.730887,-15.949546 -2.051988,-21.452604 0.186544,-0.652905 0.559633,-1.399083 1.025994,-2.238532 -0.83945,6.902141 7.834862,24.623856 9.513761,27.981656 l 0,0.0933 0,0.0933 0,0.0933 0,0.18655 8.394496,0 0,-0.27982 0,-0.0933 0,-0.0933 0,-0.0933 0,-0.0933 0,-0.0933 0,-0.0933 0,-0.0933 0,-0.0933 0,-0.0933 0,-0.0933 0,-0.0933 0,-0.0933 0,-0.0933 c 0,-0.0933 0,-0.18654 -0.09327,-0.27981 l 0,-0.0933 0,-0.0933 0,-0.0933 0,-0.0933 0,-0.0933 0,-0.0933 0,-0.0933 0,-0.0933 0,-0.0933 0,-0.0933 0,-0.0933 0,-0.0933 0,-0.0933 0,-0.0933 0,-0.0933 0,-0.0933 0,-0.0933 0,-0.0933 0,-0.0933 c -0.09327,-0.0933 -0.09327,-0.18654 -0.186545,-0.27981 l -0.09327,-0.0933 0,-0.0933 -0.09327,-0.0933 -0.09327,-0.0933 -0.09327,-0.0933 -0.09327,-0.0933 -0.09327,-0.0933 -0.09327,-0.0933 -0.09327,-0.0933 -0.09327,-0.0933 c -0.186544,-0.0933 -0.373089,-0.27982 -0.559633,-0.37309 l -0.09327,-0.0933 c -0.09327,0 -0.09327,-0.0933 -0.186545,-0.0933 l -0.09327,0 -0.09327,0 c -0.559633,-0.27981 -1.119266,-0.37309 -1.678899,-0.46636 -2.98471,-8.48777 -6.43578,-15.94954 -4.756881,-21.452598 0.652905,-2.238532 3.171254,-4.850153 5.59633,-7.555046 3.451071,10.353211 12.591744,16.415904 21.732417,20.053514 2.704893,3.26453 6.43578,6.80887 10.166667,9.79358 13.617735,3.07798 38.428135,3.91743 48.688075,3.73089 2.23853,1.30581 4.75688,2.14526 7.55504,2.14526 3.63762,0 6.99542,-1.39908 9.60704,-3.63762 2.14526,0.37309 4.85015,0.74618 7.64832,0.83945 2.79816,0.0933 5.40978,-0.0933 7.46177,-0.6529 1.49236,0.0933 3.17125,0.0933 4.19725,0.0933 l 0.37309,0 c 2.42507,-0.0933 2.79816,-0.0933 5.87614,-1.11927 l -0.37308,-1.21253 c -2.89144,0.93272 -3.26453,1.02599 -5.59633,1.11926 l -0.37309,0 -1.77217,0 c 0.18654,-0.0933 0.27981,-0.27981 0.37308,-0.46636 0.46636,-0.55963 0.55964,-1.30581 0.27982,-2.05199 -0.27982,-0.93272 -1.21254,-1.6789 -2.3318,-1.77217 -2.23854,-0.27981 -3.91744,0.37309 -4.47707,1.6789 -0.27981,0.55963 -0.27981,1.21254 0,1.86544 0.18655,0.46637 0.46636,0.83945 0.93272,1.21254 -3.45107,0.37309 -7.83486,0.0933 -11.19266,-0.46636 2.33181,-2.51835 3.73089,-5.96942 3.73089,-9.60703 0,-7.928137 -6.43578,-14.363917 -14.36392,-14.363917 -7.46177,0.652906 -13.711,6.529052 -14.17737,14.084097 z m 39.08105,7.55505 c -1.39909,-0.0933 -2.51835,0.37309 -2.89144,1.11926 -0.0933,0.18655 -0.0933,0.37309 0,0.65291 0.18654,0.46636 0.6529,0.83945 1.21254,1.02599 0.46636,0.0933 0.93272,0.18655 1.49235,0.18655 0.93272,-0.27982 1.6789,-0.65291 2.05199,-1.21254 0.0933,-0.18655 0.18654,-0.46636 0.0933,-0.74618 -0.18654,-0.55963 -0.6529,-0.93272 -1.39908,-0.93272 -0.0933,0 -0.37309,-0.0933 -0.55963,-0.0933 z"
     inkscape:connector-curvature="0"
     style="fill:#fefefe;fill-rule:evenodd" />
  <path
     style="fill:#fefefe"
     id="path39"
     d="m 150.58482,126.04077 c -3.07798,0 -6.06269,-0.74618 -8.76759,-2.14526 l -0.93272,0 c -10.44648,0 -33.76453,-0.83945 -47.568807,-3.91743 -0.652905,-0.18655 -1.305811,-0.46636 -1.865444,-0.93272 -3.544342,-2.79817 -7.181957,-6.24924 -10.073394,-9.60704 -9.047401,-3.73089 -15.762998,-8.95413 -19.960245,-15.296635 -0.09327,0.09327 -0.09327,0.186545 -0.09327,0.373089 -0.932722,3.171254 1.119266,8.767586 3.357798,14.643736 0.186544,0.55963 0.373088,1.02599 0.559633,1.58562 0.09327,0 0.09327,0.0933 0.186544,0.0933 0.09327,0 0.186544,0.0933 0.186544,0.0933 0.186545,0.0933 0.466361,0.18654 0.652906,0.37309 l 0.09327,0.0933 c 0.09327,0.0933 0.186544,0.0933 0.279816,0.18654 0.09327,0.0933 0.279817,0.18655 0.373089,0.27982 0.09327,0.0933 0.279817,0.18654 0.373089,0.27981 0.186544,0.0933 0.279816,0.27982 0.466361,0.37309 0,0 0.09327,0 0.09327,0.0933 l 0.09327,0.0933 0.373089,0.37309 c 0.186544,0.18654 0.279816,0.37309 0.373088,0.55963 0,0.0933 0.09327,0.0933 0.09327,0.18654 l 0.559633,0.83945 -0.186545,0.0933 0,0.0933 0.186545,-0.0933 0.279816,0.55963 c 0.09327,0.18654 0.186544,0.46636 0.279817,0.74618 0,0.0933 0.09327,0.0933 0.09327,0.18654 0.09327,0.18654 0.09327,0.27982 0.09327,0.46636 l 0,0.0933 0,0.0933 c 0,0.18654 0.09327,0.37308 0.09327,0.6529 0,0.18655 0.09327,0.46636 0.09327,0.65291 l 0,0.55963 0,0.37309 0,0.55963 0,0.37309 c -0.186544,2.42508 -2.14526,4.29052 -4.663608,4.29052 l -8.394496,0 c -0.839449,0 -1.678899,-0.27982 -2.425076,-0.65291 -0.746178,0.46637 -1.492355,0.65291 -2.425077,0.65291 l -8.394495,0 c -2.238533,0 -4.103976,-1.58563 -4.570337,-3.63762 -0.09327,-0.18654 -0.09327,-0.46636 -0.186544,-0.74617 -3.824159,-10.53976 -8.021407,-24.250768 -6.529052,-30.686548 0.186544,-0.839449 0.652905,-1.678899 1.30581,-2.331804 2.611621,-2.518349 1.585627,-8.394495 0.373089,-14.643731 -1.025994,-3.544343 -1.585627,-8.207951 -1.772172,-14.270642 -0.279816,-10.446484 3.171254,-19.493885 9.42049,-24.903671 -0.559633,-2.891437 -1.492355,-5.689602 -3.544343,-7.834862 -2.518348,-2.611621 -5.503058,-3.730887 -8.394495,-2.891438 -1.958716,0.559633 -4.010704,2.98471 -5.223242,6.062692 -1.212538,2.984709 -1.30581,6.249235 -0.279816,8.021407 1.958715,3.264526 1.212538,7.461773 -1.6789,9.980122 -1.958715,1.678899 -4.010703,2.518349 -6.155963,2.518349 -2.14526,0 -4.103976,-0.932722 -5.59633,-2.611621 C 7.9716646,42.84199 7.3187594,36.126394 7.5985759,32.768596 8.2514811,25.027005 12.728545,16.912326 19.444142,11.595812 23.268301,8.5178306 27.838637,6.8389315 32.68879,6.8389315 c 4.103976,0 8.114679,1.2125383 11.659022,3.5443425 6.249236,4.010704 9.793578,11.006117 11.379205,17.535169 3.544343,-0.09327 7.368502,0.559633 11.192661,1.958715 16.229358,6.155964 18.747707,16.136086 21.732416,27.701836 0,0.186544 0.09327,0.373088 0.09327,0.559633 0.652906,-1.399083 2.051988,-2.331805 3.637615,-2.518349 0.652905,-0.09327 1.305811,-0.559633 2.238532,-2.704893 0.279817,-2.704893 0.559633,-4.010703 1.212539,-5.036697 0.839449,-1.678899 4.570338,-6.342508 6.435778,-8.487768 5.78288,-6.995413 7.46178,-8.114679 9.88685,-8.114679 0.74618,0 1.49236,0.186544 2.14526,0.466361 2.05199,1.025994 2.61162,1.958715 5.59633,12.311927 0.83945,2.891437 1.6789,5.969419 2.23853,8.301223 2.79817,0.652905 5.68961,1.678899 8.67432,2.891437 2.98471,1.212539 5.6896,2.611621 8.11468,4.197248 15.85626,-9.140673 17.0688,-9.140673 18.56116,-9.140673 0.46636,0 1.02599,0.09327 1.49235,0.186544 0.0933,0 0.0933,0 0.18655,0.09327 4.19724,1.492354 3.73088,6.062691 2.98471,13.617737 -0.27982,2.331804 -1.026,8.954129 -1.58563,10.912844 -0.27982,0.932722 -0.83945,1.865444 -2.3318,3.824159 -0.55964,1.772172 -0.37309,2.425077 -0.0933,2.798165 0.74618,0.83945 1.30581,1.958716 1.30581,3.171254 0,0.652906 -0.0933,1.212539 -0.37309,1.772172 0.0933,0.46636 0.0933,0.932721 0.0933,1.399082 -0.0933,0.652905 -0.27982,1.212538 -0.55964,1.772171 6.62233,2.98471 11.19266,9.607034 11.19266,17.348625 0,0.83945 -0.0933,1.6789 -0.18654,2.42508 1.86544,-1.39909 4.38379,-2.05199 7.18196,-1.6789 2.42507,0.27981 4.57033,1.77217 5.6896,3.91743 0.37309,-0.0933 0.83945,-0.27982 1.49236,-0.46636 1.21253,-0.37309 2.51834,-0.27982 3.73088,0.27981 1.11927,0.55964 1.95872,1.6789 2.33181,2.89144 l 0.37308,1.21254 c 0.65291,2.42508 -0.6529,4.85015 -2.9847,5.6896 -3.3578,1.11927 -4.29052,1.21254 -6.90215,1.39908 l -0.18654,0 -0.27982,0 -0.27981,0 -1.58563,0 c -0.6529,0 -1.49235,0 -2.3318,-0.0933 -1.86545,0.37309 -4.01071,0.65291 -6.52906,0.65291 l -1.39908,0 c -2.3318,-0.0933 -4.57034,-0.27982 -6.24923,-0.55964 -3.3578,1.95872 -7.18196,3.17126 -11.09939,3.17126 z m -7.55505,-11.47248 c 0.83945,0 1.6789,0.27982 2.42508,0.65291 1.58562,0.93272 3.3578,1.49235 5.12997,1.49235 2.42507,0 4.66361,-0.83945 6.43578,-2.42508 0.0933,-0.0933 0.27981,-0.18654 0.37309,-0.27981 0.0933,-0.18655 0.18654,-0.27982 0.37308,-0.46636 1.58563,-1.77217 2.51835,-4.10398 2.51835,-6.52905 0,-5.31652 -4.38379,-9.700311 -9.7003,-9.700311 -5.12997,0 -9.32722,4.010701 -9.70031,9.047401 0,0.65291 -0.18654,1.21254 -0.46636,1.77217 0.37309,0.46636 0.65291,1.026 0.83945,1.58563 0.18654,0.74618 0.46636,1.39908 0.83945,2.05199 0.55963,0.93272 0.74618,1.86544 0.55963,2.89143 0.18655,-0.0933 0.27982,-0.0933 0.37309,-0.0933 z m -77.32263,1.86544 0.932721,-0.46636 -0.09327,0 -0.839449,0.46636 z m 30.686545,-5.31651 c 3.45107,0.74618 7.555045,1.30581 12.032105,1.77217 -1.02599,-1.11926 -1.58562,-2.70489 -1.21253,-4.29052 0.55963,-2.23853 2.61162,-3.82416 4.94342,-3.63761 0.18655,0 0.37309,0 0.55963,0.0933 -0.37308,-0.83945 -0.55963,-1.77217 -0.46636,-2.70489 l 0.27982,-2.23854 c 0.18654,-1.212534 0.83945,-2.3318 1.86544,-3.077977 1.026,-0.746178 2.33181,-1.025994 3.54435,-0.83945 1.11926,0.186545 2.3318,0.279817 3.54434,0.279817 8.86086,0 18.18807,-5.689603 21.17278,-12.87156 0.74618,-1.772171 2.51835,-2.98471 4.47707,-2.891437 l 0.0933,0 c 0.0933,-0.466361 0.37309,-0.932722 0.6529,-1.399083 0.18655,-0.279817 0.46636,-0.559633 0.65291,-0.746177 0.18654,-1.212539 0.46636,-2.425077 1.02599,-3.82416 0.18655,-0.46636 0.46636,-0.932721 0.83945,-1.399082 0.74618,-0.932722 1.11927,-1.399083 1.21254,-1.585627 0.37309,-1.492355 0.93272,-5.969419 1.21254,-9.700306 -2.42508,1.30581 -5.87615,3.264526 -10.7263,6.062691 l -1.02599,0.652905 c -1.58563,0.932722 -3.54435,0.83945 -5.0367,-0.279816 -2.42508,-1.772171 -5.40979,-3.357798 -8.86086,-4.850153 -3.45107,-1.399083 -6.62232,-2.425077 -9.60703,-2.891437 -1.86545,-0.279817 -3.45107,-1.772172 -3.82416,-3.730887 -0.27982,-1.492355 -2.05199,-7.834863 -3.45107,-12.778288 -2.42508,2.891437 -5.12997,6.342508 -6.06269,7.74159 -0.0933,0.279817 -0.18655,1.025994 -0.27982,2.425077 0,0.466361 -0.18654,0.932721 -0.37309,1.30581 -0.37309,0.83945 -1.02599,2.425077 -2.14526,4.010704 0.0933,1.212538 -0.27981,2.238532 -0.83945,2.984709 l 0,0.09327 c 1.21254,1.212539 1.6789,3.077982 1.11927,4.756881 -1.30581,4.010704 -1.21254,9.047401 0.46636,13.804282 0.83945,2.331804 -0.37309,4.943425 -2.704894,5.876147 L 97.04659,88.172266 C 95.274419,88.918444 93.222431,88.452083 91.91662,87.053 89.025183,83.975019 86.879923,80.710493 85.387568,77.445966 82.402859,70.823642 80.910504,64.947495 79.604693,59.724254 76.806528,48.811409 75.314173,42.84199 63.655152,38.458198 59.737721,37.059116 56.193378,36.686027 53.115396,37.525476 c -0.652905,0.186545 -1.30581,0.186545 -1.958715,0.09327 -0.373089,0.559633 -0.83945,0.932721 -1.399083,1.30581 -5.036697,3.171254 -7.928135,10.166667 -7.648318,18.654435 0.186544,5.316514 0.652905,9.420489 1.492355,12.218654 0,0.186545 0.09327,0.279817 0.09327,0.466361 1.119266,5.782875 2.238532,12.03211 0.652905,17.348624 1.212538,-1.212538 3.077982,-1.678899 4.756881,-1.025994 2.051988,0.746178 3.357798,2.798166 3.077982,4.943426 l 0,0.839449 c 0,-0.186544 0.09327,-0.373089 0.186544,-0.559633 0.932722,-3.171254 3.544342,-5.969419 6.249236,-8.954128 l 0.373088,-0.373089 c 1.119266,-1.212538 2.798165,-1.772171 4.383792,-1.399083 1.585627,0.373089 2.891438,1.492355 3.451071,3.077982 2.425076,7.368502 8.860856,13.151376 19.027523,17.162077 0.746177,0.27982 1.399083,0.74618 1.865443,1.30581 2.425077,2.79817 5.596331,5.87615 8.674313,8.48777 z m -54.470949,-18.747706 0,0.373089 c 0,-0.186544 0.09327,-0.373089 0.09327,-0.466361 -0.09327,0 -0.09327,0 -0.09327,0.09327 z"
     inkscape:connector-curvature="0" />
  <path
     inkscape:connector-curvature="0"
     d="m 141.07106,111.8634 c -11.93884,0 -34.32416,-1.026 -46.915908,-3.73089 -0.186544,0 -0.279817,-0.0933 -0.373089,-0.18654 -6.062691,-4.85016 -12.218654,-11.565753 -14.270642,-15.576456 -0.186544,-0.279817 -0.09327,-0.652905 0.09327,-0.932722 0.186544,-0.279816 0.559633,-0.466361 0.932722,-0.373088 l 20.240065,2.891437 c 0.18654,0 0.37308,0.09327 0.46636,0.186544 8.76758,7.648315 20.05351,9.420485 34.97706,10.912845 0.83945,-0.0933 1.77217,-0.18654 2.7049,-0.37309 1.39908,-0.18654 2.9847,-0.46636 4.57033,-0.46636 3.45107,0 5.87615,1.21254 7.46178,3.73089 0.0933,0.0933 0.0933,0.18654 0.0933,0.27981 0.18654,1.026 0.0933,1.86545 -0.37309,2.51835 -0.83945,1.026 -2.51835,1.11927 -4.29052,1.11927 l -1.11927,0 -1.30581,0 -2.89143,0 z m -46.263003,-5.50306 c 12.405203,2.70489 34.417433,3.63761 46.263003,3.63761 l 2.89143,0 1.30581,0 1.11927,0 c 0.74618,0 2.51835,0 2.89144,-0.46636 0.0933,-0.18654 0.0933,-0.46636 0.0933,-0.74617 -1.30581,-1.86545 -3.07798,-2.7049 -5.78288,-2.7049 -1.39908,0 -2.89143,0.18655 -4.29052,0.46636 -1.02599,0.18655 -2.05198,0.27982 -2.98471,0.37309 l -0.18654,0 c -14.737,-1.49235 -26.67584,-3.3578 -35.81651,-11.192658 L 82.309586,93.115691 c 2.331804,3.824159 7.461774,9.140669 12.498471,13.244649 z"
     id="path111" />
  <g
     style="fill-rule:evenodd"
     id="g12"
     transform="matrix(0.93272173,0,0,0.93272173,-215.75097,-502.20328)">
    <path
       inkscape:connector-curvature="0"
       d="m 317.36,636.96 c 2.1,4 8.4,11.1 15.1,16.4 15,3.3 42.7,4.2 53.1,4 4.2,0 7.3,0.4 6.6,-2.7 -3.7,-5.6 -10.6,-2.9 -15.1,-2.7 -15.6,-1.6 -28.3,-3.4 -38.1,-12 l -21.6,-3 z"
       id="path113" />
    <path
       style="fill:#989798"
       inkscape:connector-curvature="0"
       d="m 383.86,651.16 c 3.1,-0.2 6.3,0.3 8.4,3.5 0.7,3.1 -2.4,2.7 -6.6,2.7 l -1.8,0 c -1.1,-2 -1.8,-4 0,-6.2 z"
       id="path115" />
    <path
       inkscape:connector-curvature="0"
       d="m 283.26,600.96 c 0,0 -0.7,-5 -0.5,-11 l 26.4,0 c -0.7,10.8 -2.7,26.8 -5.9,33.6 -2.3,4.9 -9.7,10.4 -11,14.7 -2.1,7 3.5,17 6.9,28.2 l -6.2,0 c 0,0 -12.2,-23.8 -10.4,-31.3 7.6,-7.2 2.2,-23.1 0.7,-34.2 z"
       id="path117" />
    <path
       inkscape:connector-curvature="0"
       d="m 244.66,573.96 c 0.6,-7.3 5.2,-14.7 10.8,-19.2 6.1,-4.9 14.2,-5.3 20.8,-1 8.7,5.6 11.8,18.7 10.6,25.6 -0.2,1.2 -1.4,2.3 -2.6,1.4 -1.7,-1.3 -1.8,-2.5 -2.2,-4.7 -0.8,-4.3 -1.6,-9.7 -5.6,-13.9 -3.6,-3.9 -8.7,-6 -14.1,-4.4 -7.8,2.4 -12.9,15.4 -8.8,22.4 0.9,1.4 0.6,3.2 -0.7,4.3 -6.6,5.6 -8.6,-6.1 -8.2,-10.5 z"
       id="path119" />
    <path
       style="fill:#663500"
       inkscape:connector-curvature="0"
       d="m 292.76,666.56 c -0.9,-3.5 0.5,-5.1 4.1,-5.3 2.6,-0.1 5.5,1.8 5,5.3 l -9.1,0 z"
       id="path121" />
    <path
       style="fill:#970000"
       inkscape:connector-curvature="0"
       d="m 419.36,660.16 c -1.5,-0.1 -2.7,0.4 -3.1,1.2 -0.1,0.2 -0.1,0.4 0,0.7 0.2,0.5 0.7,0.9 1.3,1.1 0.5,0.1 1,0.2 1.6,0.2 1,-0.3 1.8,-0.7 2.2,-1.3 0.1,-0.2 0.2,-0.5 0.1,-0.8 -0.2,-0.6 -0.7,-1 -1.5,-1 -0.1,0 -0.4,-0.1 -0.6,-0.1 z m -8.1,5.3 c -4.6,-0.1 -9.2,-0.9 -11.2,-1.6 l 0.3,-1.3 c 3.2,1 10.7,1.9 15.9,1.4 -0.5,-0.3 -0.8,-0.8 -1,-1.3 -0.3,-0.7 -0.3,-1.4 0,-2 0.7,-1.4 2.5,-2.1 4.8,-1.8 1.2,0.1 2.1,0.9 2.5,1.9 0.3,0.8 0.1,1.7 -0.3,2.2 -0.1,0.2 -0.3,0.3 -0.4,0.5 l 1.9,0 0.4,0 c 2.5,-0.1 2.9,-0.1 6,-1.2 l 0.4,1.3 c -3.2,1.1 -3.7,1.1 -6.3,1.2 l -0.4,0 c -1.1,0.1 -2.9,0.1 -4.5,-0.1 -2.3,0.7 -5.1,0.9 -8.1,0.8 z"
       id="path123" />
  </g>
  <g
     transform="matrix(0.93272173,0,0,0.93272173,-39.783688,-99.118257)"
     id="g125">
    <path
       style="fill:#ff0000;fill-rule:evenodd"
       inkscape:connector-curvature="0"
       d="m 198.3,209.1 c -0.4,0.7 -0.8,1.4 -1.1,2.3 -0.3,0.8 -0.3,1.7 -0.3,2.5 l 0,0.2 c -0.6,0.7 -1,1.3 -1.4,2 0,-1.6 0.3,-3.1 0.8,-4.6 0.3,-0.8 0.6,-1.6 1,-2.3 0.3,-0.6 1,-2 1.7,-2 -0.1,0.2 -0.1,0.4 -0.1,0.6 -0.1,0.4 -0.3,0.8 -0.6,1.3 z"
       id="path127" />
    <path
       style="fill:#970000"
       inkscape:connector-curvature="0"
       d="m 195.6,216.5 c 0,0 -0.1,0 0,0 -0.3,-0.1 -0.4,-0.2 -0.4,-0.4 0,-1.6 0.3,-3.2 0.8,-4.8 0.2,-0.8 0.6,-1.6 1,-2.4 l 0,-0.1 c 0.4,-0.7 1.1,-2.1 2,-2.1 0.1,0 0.2,0.1 0.3,0.2 0.1,0.1 0.1,0.2 0.1,0.3 0,0.1 0,0.2 -0.1,0.3 0,0.1 0,0.2 -0.1,0.3 -0.2,0.5 -0.4,1 -0.6,1.4 l -0.2,0.4 c -0.3,0.6 -0.7,1.2 -0.9,1.8 -0.2,0.8 -0.3,1.6 -0.2,2.4 l 0,0.2 c 0,0.1 0,0.2 -0.1,0.2 -0.6,0.7 -1,1.3 -1.4,2 0.1,0.2 -0.1,0.3 -0.2,0.3 z m 2.8,-8.4 c -0.2,0.3 -0.4,0.7 -0.7,1.1 l 0,0.1 c -0.4,0.8 -0.7,1.5 -1,2.2 -0.3,1 -0.6,2.1 -0.7,3.1 0.2,-0.2 0.4,-0.5 0.6,-0.8 l 0,-0.1 c -0.1,-0.9 0,-1.8 0.3,-2.6 0.2,-0.7 0.6,-1.4 0.9,-2 l 0.2,-0.3 c 0.1,-0.2 0.3,-0.4 0.4,-0.7 z"
       id="path129" />
  </g>
  <g
     transform="matrix(0.93272173,0,0,0.93272173,-39.783688,-99.118257)"
     id="g131">
    <path
       style="fill:#ff0000;fill-rule:evenodd"
       inkscape:connector-curvature="0"
       d="m 208.9,232.6 c -0.1,0.4 -0.1,0.7 -0.3,1 -0.2,0 -0.5,0.1 -0.7,0.1 -0.4,0.1 -0.8,0.1 -1.2,0.2 -0.9,0.1 -1.7,0.3 -2.6,0.3 -1.7,0.1 -3.7,0.1 -5.2,-1 l -0.1,-0.1 c -0.1,-0.3 -0.2,-0.4 -0.2,-0.7 -0.1,-0.2 -0.1,-0.4 -0.1,-0.6 0.9,0.7 3.3,1.3 4.6,1.3 2,0.2 4,0 5.8,-0.5 z"
       id="path133" />
    <path
       style="fill:#970000"
       inkscape:connector-curvature="0"
       d="m 203,234.7 c -1.8,0 -3.2,-0.4 -4.2,-1.1 -0.1,0 -0.2,-0.1 -0.2,-0.2 -0.1,-0.3 -0.2,-0.5 -0.3,-0.8 0,-0.2 -0.1,-0.4 -0.1,-0.6 0,-0.2 0,-0.3 0.2,-0.4 0.1,-0.1 0.3,-0.1 0.4,0 0.8,0.6 3.1,1.2 4.4,1.3 1.8,0.1 3.7,-0.1 5.6,-0.6 0.1,0 0.3,0 0.4,0.1 0.1,0.1 0.1,0.2 0.1,0.4 l -0.1,0.2 c -0.1,0.3 -0.1,0.5 -0.2,0.8 -0.1,0.2 -0.2,0.3 -0.4,0.3 -0.1,0 -0.2,0 -0.3,0.1 -0.1,0 -0.2,0 -0.3,0.1 -0.2,0 -0.3,0.1 -0.5,0.1 -0.2,0 -0.4,0.1 -0.7,0.1 -0.9,0.2 -1.8,0.3 -2.6,0.3 -0.3,-0.1 -0.7,-0.1 -1.2,-0.1 z m -3.7,-1.8 0,0 c 0.9,0.7 2.2,1 3.8,1 0.4,0 0.8,0 1.2,-0.1 0.8,-0.1 1.7,-0.2 2.6,-0.3 0.2,0 0.4,-0.1 0.6,-0.1 0.2,0 0.4,-0.1 0.5,-0.1 l 0.2,0 0.2,0 0,-0.2 c -1.5,0.3 -2.9,0.5 -4.4,0.5 l -0.8,0 c -1.1,0 -2.9,-0.4 -4.1,-1 0.1,0.2 0.1,0.2 0.2,0.3 z"
       id="path135" />
  </g>
  <g
     transform="matrix(0.93272173,0,0,0.93272173,-39.783688,-99.118257)"
     id="g137">
    <path
       style="fill:#ff0000;fill-rule:evenodd"
       inkscape:connector-curvature="0"
       d="m 212.1,232.2 c 0.1,-2 0.3,-4.1 -0.3,-6 -0.3,-1.1 -0.5,-2.2 -0.9,-3.2 -0.3,-1 -0.7,-1.9 -1.1,-2.8 -0.9,-1.8 -2,-3.6 -3.5,-5.1 l 0.9,-0.6 0.1,0 c 1.2,1.5 2.4,2.9 3.3,4.6 0.9,1.5 1.4,3.2 1.8,4.8 0.2,0.8 0.4,1.7 0.6,2.5 0.1,0.9 0.1,1.8 0.2,2.6 0,0.9 0.1,1.7 0.1,2.6 0,0.3 0,0.7 -0.1,1 0,0.1 -0.1,0.1 -0.1,0.2 0,0.1 -0.1,0.1 -0.1,0.1 -0.3,0.5 -0.7,0.6 -1.2,0.6 0.2,-0.4 0.3,-0.9 0.3,-1.3 z"
       id="path139" />
    <path
       style="fill:#970000"
       inkscape:connector-curvature="0"
       d="m 211.9,233.9 c -0.1,0 -0.2,-0.1 -0.3,-0.2 -0.1,-0.1 -0.1,-0.2 0,-0.4 0.2,-0.4 0.2,-0.8 0.2,-1.2 l 0,-0.5 c 0.1,-1.8 0.2,-3.7 -0.3,-5.4 -0.2,-0.5 -0.3,-1.1 -0.4,-1.6 -0.1,-0.5 -0.3,-1.1 -0.4,-1.6 -0.3,-1 -0.7,-1.9 -1.1,-2.7 -1,-2 -2,-3.6 -3.4,-5 -0.1,-0.1 -0.1,-0.2 -0.1,-0.3 0,-0.1 0.1,-0.2 0.2,-0.3 l 0.9,-0.6 0.1,0 c 0.1,0 0.1,-0.1 0.2,-0.1 0.1,0 0.2,0.1 0.3,0.1 l 0.5,0.6 c 1,1.3 2,2.6 2.8,4 0.9,1.6 1.4,3.4 1.8,4.9 l 0.2,0.8 c 0.1,0.6 0.3,1.2 0.4,1.8 0.1,0.8 0.1,1.5 0.2,2.3 l 0.1,3 c 0,0.4 0,0.7 -0.1,1.1 l -0.1,0.1 c 0,0 0,0.1 -0.1,0.1 0,0.1 -0.1,0.1 -0.1,0.2 -0.3,0.6 -0.9,0.9 -1.5,0.9 z M 207,215.1 c 1.4,1.4 2.3,3.2 3.2,4.8 0.4,0.8 0.9,1.8 1.2,2.9 0.2,0.5 0.3,1.1 0.4,1.6 0.1,0.5 0.3,1.1 0.4,1.6 0.5,1.8 0.4,3.8 0.3,5.6 l 0,0.5 c 0,0.2 0,0.5 -0.1,0.8 l 0.3,-0.3 c 0,0 0,-0.1 0.1,-0.1 l 0,-0.1 c 0,0 0,-0.1 0.1,-0.1 l 0,-0.8 -0.1,-3 c 0,-0.7 0,-1.4 -0.2,-2.1 -0.1,-0.6 -0.3,-1.1 -0.4,-1.7 l -0.2,-0.8 c -0.4,-1.5 -0.9,-3.2 -1.7,-4.7 -0.7,-1.4 -1.8,-2.7 -2.7,-3.9 l -0.3,-0.3 -0.3,0.1 z"
       id="path141" />
  </g>
  <g
     transform="matrix(0.93272173,0,0,0.93272173,-39.783688,-99.118257)"
     id="g143">
    <path
       style="fill:#ff0000;fill-rule:evenodd"
       inkscape:connector-curvature="0"
       d="m 215.1,229.8 c 0,-1.9 -0.5,-3.8 -0.9,-5.6 -0.9,-3.9 -1,-5 -3.7,-8 -0.7,-0.8 -1.2,-1.7 -2,-2.4 0.4,-0.2 0.7,-0.4 1.1,-0.6 0.1,0.3 0.3,0.5 0.4,0.7 2.2,3.4 5.2,4.5 6,14.3 l 0,0.3 c 0.1,1.2 -0.1,2.4 -1,2.5 0.1,-0.4 0.1,-0.9 0.1,-1.2 z"
       id="path145" />
    <path
       style="fill:#970000"
       inkscape:connector-curvature="0"
       d="m 215,231.4 c -0.1,0 -0.2,0 -0.3,-0.1 -0.1,-0.1 -0.1,-0.2 -0.1,-0.3 0.1,-0.4 0.1,-0.8 0.1,-1.1 0,-1.9 -0.4,-3.7 -0.9,-5.5 l -0.2,-0.7 c -0.8,-3.3 -1,-4.4 -3.4,-7.2 -0.3,-0.3 -0.5,-0.6 -0.7,-0.9 -0.4,-0.5 -0.8,-1 -1.2,-1.4 -0.1,-0.1 -0.1,-0.2 -0.1,-0.3 0,-0.1 0.1,-0.2 0.2,-0.3 l 0.6,-0.3 c 0.2,-0.1 0.4,-0.2 0.5,-0.3 0.1,-0.1 0.2,-0.1 0.3,0 0.1,0 0.2,0.1 0.2,0.2 l 0.3,0.6 0.1,0.1 c 0.5,0.7 1,1.4 1.5,2 1.9,2.3 3.9,4.7 4.5,12.4 l 0,0.3 c 0.2,1.7 -0.3,2.7 -1.4,2.8 z m -5.8,-17.5 c 0.4,0.4 0.7,0.8 1,1.2 0.2,0.3 0.4,0.6 0.7,0.9 2.5,2.9 2.8,4.1 3.6,7.5 l 0.2,0.7 c 0.5,1.9 0.9,3.8 0.9,5.7 l 0,0.5 c 0.2,-0.3 0.3,-0.8 0.2,-1.8 l 0,-0.2 c -0.6,-7.5 -2.5,-9.8 -4.3,-12 -0.5,-0.6 -1.1,-1.3 -1.6,-2.1 l -0.1,-0.1 c -0.1,-0.1 -0.1,-0.2 -0.2,-0.3 -0.2,-0.1 -0.3,-0.1 -0.4,0 z"
       id="path147" />
  </g>
  <g
     transform="matrix(0.93272173,0,0,0.93272173,-39.783688,-99.118257)"
     id="g149">
    <path
       style="fill:#ff0000;fill-rule:evenodd"
       inkscape:connector-curvature="0"
       d="m 213.5,230.7 c 0,-1 -0.1,-2.1 -0.1,-3.1 -0.1,-0.9 -0.3,-1.8 -0.5,-2.7 -0.5,-1.9 -1,-3.8 -1.8,-5.6 -0.9,-1.8 -2.2,-3.4 -3.5,-4.9 0.2,-0.1 0.5,-0.3 0.7,-0.4 l 0,0.1 c 0.7,0.6 1.2,1.3 1.7,2 2.4,3 2.5,2.9 3.6,6.9 0.4,1.7 0.8,3.4 1.1,5.1 0.1,0.6 0.2,1.9 0.1,3 l 0,0.2 c -0.2,0.8 -0.5,1.4 -1.3,1.4 0.1,-0.7 0,-1.4 0,-2 z"
       id="path151" />
    <path
       style="fill:#970000"
       inkscape:connector-curvature="0"
       d="m 213.5,232.9 c 0,0 -0.1,0 0,0 -0.2,0 -0.3,-0.1 -0.4,-0.2 -0.1,-0.1 -0.1,-0.2 -0.1,-0.3 0.1,-0.4 0.1,-0.9 0.1,-1.4 l 0,-0.3 -0.1,-3.1 c -0.1,-0.9 -0.3,-1.8 -0.5,-2.6 -0.4,-1.8 -0.9,-3.7 -1.8,-5.5 -0.8,-1.5 -1.8,-2.8 -2.9,-4.2 l -0.6,-0.7 c -0.1,-0.1 -0.1,-0.2 -0.1,-0.3 0,-0.1 0.1,-0.2 0.2,-0.3 0.1,-0.1 0.2,-0.1 0.4,-0.2 0.1,-0.1 0.2,-0.1 0.3,-0.2 0.1,-0.1 0.3,-0.1 0.4,0 0.1,0 0.1,0.1 0.1,0.1 0.5,0.4 0.9,1 1.3,1.5 0.1,0.2 0.3,0.4 0.4,0.5 l 0.6,0.8 c 1.8,2.2 2,2.6 3,6.2 0.4,1.6 0.8,3.3 1.1,5.1 0,0.3 0.3,1.8 0.1,3.1 l 0,0.2 c -0.2,1.6 -0.9,1.8 -1.5,1.8 z m -5.3,-18.5 0.3,0.4 c 1.1,1.3 2.2,2.7 2.9,4.3 0.9,1.8 1.4,3.9 1.9,5.7 0.2,0.9 0.4,1.8 0.5,2.8 l 0.1,3.4 0,1.1 c 0.2,-0.1 0.3,-0.4 0.5,-0.9 l 0,-0.2 c 0.2,-1.1 0,-2.7 -0.1,-2.8 -0.3,-1.8 -0.7,-3.5 -1.1,-5.1 -0.9,-3.5 -1.1,-3.7 -2.9,-5.9 l -0.7,-0.8 c -0.1,-0.2 -0.3,-0.4 -0.4,-0.6 -0.2,-0.6 -0.5,-1.1 -1,-1.4 0.1,0 0,0 0,0 z"
       id="path153" />
  </g>
  <g
     transform="matrix(0.93272173,0,0,0.93272173,-39.783688,-99.118257)"
     id="g155">
    <path
       style="fill:#ff0000;fill-rule:evenodd"
       inkscape:connector-curvature="0"
       d="m 209.5,230.9 c 0.3,-1.6 -0.1,-3.2 -0.4,-4.8 -0.1,-0.9 -0.3,-1.8 -0.6,-2.7 -0.3,-0.8 -0.6,-1.5 -1,-2.3 -0.8,-1.7 -2,-3.2 -3,-4.7 0.2,-0.2 0.5,-0.4 0.7,-0.6 2,3.1 4.1,6.2 4.9,9.9 0.4,1.7 0.5,3.5 0.4,5.2 -0.1,1 -0.3,2 -0.4,3 0,0.1 -0.1,0.3 -0.1,0.5 0,0.1 0,0.1 -0.1,0.2 -0.1,0.3 -0.3,0.6 -0.7,0.7 -0.4,0.1 -0.9,-0.1 -1.2,-0.4 0,0 0.1,0 0.1,-0.1 0.4,-0.4 0.6,-1 0.8,-1.6 0.3,-0.8 0.5,-1.5 0.6,-2.3 z"
       id="path157" />
    <path
       style="fill:#970000"
       inkscape:connector-curvature="0"
       d="m 209.1,235.6 c -0.4,0 -0.8,-0.2 -1.2,-0.5 -0.1,-0.1 -0.2,-0.2 -0.2,-0.3 0,-0.1 0,-0.2 0.1,-0.3 l 0.1,-0.1 c 0.4,-0.4 0.5,-0.9 0.7,-1.4 0.2,-0.7 0.4,-1.5 0.5,-2.3 0.2,-1.4 0,-2.8 -0.3,-4.3 l -0.1,-0.4 c -0.1,-0.8 -0.3,-1.8 -0.6,-2.7 -0.3,-0.8 -0.6,-1.6 -0.9,-2.2 -0.6,-1.3 -1.4,-2.5 -2.3,-3.6 -0.2,-0.3 -0.5,-0.7 -0.7,-1 -0.1,-0.2 -0.1,-0.4 0.1,-0.5 0.2,-0.2 0.5,-0.4 0.7,-0.6 0.1,-0.1 0.2,-0.1 0.3,-0.1 0.1,0 0.2,0.1 0.2,0.2 2,3.1 4.1,6.2 4.9,10 0.4,1.7 0.5,3.5 0.4,5.3 -0.1,1 -0.3,2.1 -0.4,3 0,0.2 -0.1,0.4 -0.1,0.5 l 0,0.2 c -0.2,0.4 -0.4,0.8 -0.9,0.9 -0.1,0.2 -0.2,0.2 -0.3,0.2 z m -0.4,-0.8 c 0.3,0.1 0.4,0.1 0.5,0.1 0.2,0 0.3,-0.2 0.4,-0.4 l 0,-0.2 c 0.1,-0.1 0.1,-0.3 0.1,-0.4 0.2,-1 0.3,-2 0.4,-3 0.1,-1.7 0,-3.4 -0.4,-5.1 -0.4,-1.9 -1.2,-3.6 -2,-5.2 0.1,0.1 0.1,0.3 0.2,0.4 0.3,0.7 0.7,1.5 1,2.3 0.3,0.9 0.5,1.9 0.6,2.8 l 0.1,0.4 c 0.3,1.5 0.5,3 0.3,4.5 -0.1,0.8 -0.3,1.6 -0.5,2.4 -0.2,0.4 -0.3,0.9 -0.7,1.4 z m -3.6,-18.3 c 0.2,0.2 0.3,0.5 0.5,0.7 0.5,0.7 1,1.4 1.4,2.1 -0.6,-1 -1.2,-2 -1.8,-2.9 l -0.1,0.1 z"
       id="path159" />
  </g>
  <g
     transform="matrix(0.93272173,0,0,0.93272173,-39.783688,-99.118257)"
     id="g161">
    <path
       style="fill:#ff0000;fill-rule:evenodd"
       inkscape:connector-curvature="0"
       d="m 210.5,233.1 c 0.3,-2 0.4,-3.9 0.2,-5.9 -0.3,-1.9 -0.8,-3.8 -1.6,-5.6 -1,-2.1 -2.3,-4 -3.5,-5.9 0.2,-0.2 0.5,-0.3 0.7,-0.5 1.4,1.3 2.3,2.8 3.1,4.5 0.4,0.8 0.9,1.6 1.2,2.5 0.3,0.9 0.5,1.8 0.7,2.7 0.2,0.8 0.5,1.6 0.7,2.5 0.1,0.9 0.1,1.7 0.1,2.6 0,0.9 0,1.8 -0.1,2.7 -0.1,0.8 -0.7,1.8 -1.5,1.8 -0.1,-0.6 0,-1 0,-1.4 z"
       id="path163" />
    <path
       style="fill:#970000"
       inkscape:connector-curvature="0"
       d="m 210.4,234.8 c 0,0 -0.1,0 0,0 -0.2,0 -0.3,-0.1 -0.4,-0.2 -0.1,-0.1 -0.1,-0.2 -0.1,-0.3 0.1,-0.3 0.1,-0.7 0.2,-1 l 0,-0.3 c 0.3,-2.2 0.4,-4 0.2,-5.8 -0.2,-1.8 -0.8,-3.7 -1.6,-5.5 -0.8,-1.7 -1.8,-3.3 -2.9,-4.9 l -0.6,-1 c -0.1,-0.2 -0.1,-0.4 0.1,-0.5 0.2,-0.2 0.5,-0.4 0.7,-0.5 0.1,-0.1 0.3,-0.1 0.5,0 1.4,1.3 2.4,3 3.2,4.6 0.4,0.8 0.9,1.7 1.2,2.5 0.2,0.6 0.4,1.3 0.5,1.9 0.1,0.3 0.1,0.6 0.2,0.8 0.1,0.3 0.2,0.7 0.3,1 0.2,0.5 0.3,1 0.4,1.5 0.1,0.9 0.1,1.8 0.1,2.7 l 0,0.8 c 0,0.6 0,1.3 -0.1,2 -0.2,0.9 -0.8,2.2 -1.9,2.2 z m -4.3,-19 0.5,0.7 c 1,1.6 2.1,3.2 2.9,5 0.8,1.9 1.4,3.8 1.6,5.7 0.2,1.9 0.2,3.7 -0.2,6 l 0,0.2 c 0,0.1 0,0.3 -0.1,0.4 0.3,-0.3 0.6,-0.8 0.7,-1.3 0.1,-0.6 0.1,-1.2 0.1,-1.9 l 0,-0.8 c 0,-0.8 0.1,-1.7 -0.1,-2.5 -0.1,-0.5 -0.2,-1 -0.4,-1.4 -0.1,-0.3 -0.2,-0.7 -0.3,-1 -0.1,-0.3 -0.1,-0.6 -0.2,-0.9 -0.1,-0.6 -0.3,-1.2 -0.5,-1.8 -0.3,-0.8 -0.7,-1.6 -1.1,-2.4 -0.8,-1.4 -1.6,-2.9 -2.9,-4.2 l 0,0.2 z"
       id="path165" />
  </g>
  <g
     transform="matrix(0.93272173,0,0,0.93272173,-39.783688,-99.118257)"
     id="g167">
    <path
       style="fill:#ff0000;fill-rule:evenodd"
       inkscape:connector-curvature="0"
       d="m 198.5,228.9 c 1.5,0.9 3.3,1.4 5,1.6 2,0.2 4,-0.2 5.9,-0.5 l 0,0.1 c 0,0.3 -0.1,0.5 -0.1,0.7 -1.7,0.7 -3.5,0.8 -5.4,0.7 -1,-0.1 -1.9,-0.3 -2.8,-0.5 -0.9,-0.3 -1.9,-0.3 -2.6,-1.1 l 0,-1 z"
       id="path169" />
    <path
       style="fill:#970000"
       inkscape:connector-curvature="0"
       d="m 204.9,232 -1,0 c -0.9,-0.1 -1.9,-0.2 -2.9,-0.6 -0.2,-0.1 -0.4,-0.1 -0.6,-0.1 -0.8,-0.2 -1.6,-0.3 -2.2,-1.1 -0.1,-0.1 -0.1,-0.2 -0.1,-0.2 l 0,-1 c 0,-0.1 0.1,-0.3 0.2,-0.3 0.1,-0.1 0.3,-0.1 0.4,0 1.4,0.8 3.1,1.3 4.9,1.5 1.6,0.2 3.2,-0.1 4.8,-0.3 0.4,-0.1 0.7,-0.1 1.1,-0.1 0.1,0 0.2,0 0.3,0.1 0.1,0.1 0.1,0.2 0.1,0.3 l 0,0.1 c 0,0.3 -0.1,0.5 -0.1,0.7 0,0.1 -0.1,0.2 -0.1,0.2 l -0.1,0.1 c -1.5,0.4 -2.9,0.7 -4.7,0.7 z m -6,-2.2 c 0.4,0.5 1,0.6 1.7,0.7 0.2,0 0.4,0.1 0.6,0.1 1,0.3 1.9,0.5 2.8,0.5 l 1,0 c 1.6,0 2.9,-0.2 4,-0.7 l 0,-0.1 c -0.2,0 -0.4,0.1 -0.6,0.1 -1.6,0.2 -3.3,0.5 -4.9,0.3 -1.7,-0.2 -3.2,-0.6 -4.6,-1.3 l 0,0.4 z"
       id="path171" />
  </g>
  <g
     transform="matrix(0.93272173,0,0,0.93272173,-39.783688,-99.118257)"
     id="g173">
    <path
       style="fill:#ff0000;fill-rule:evenodd"
       inkscape:connector-curvature="0"
       d="m 198.6,231.6 c -0.1,-0.4 -0.1,-0.9 -0.1,-1.3 0.6,0.6 1.6,0.7 2.3,0.9 1,0.3 1.9,0.5 2.9,0.6 1.9,0.1 3.7,0 5.5,-0.7 l -0.3,1.2 -0.1,0 c -1.7,0.5 -3.5,0.7 -5.2,0.6 -1.2,0.1 -4.1,-0.5 -5,-1.3 z"
       id="path175" />
    <path
       style="fill:#970000"
       inkscape:connector-curvature="0"
       d="m 204,233.4 -0.3,0 c -1.3,0 -4.2,-0.6 -5.2,-1.5 0,0 -0.1,0 -0.1,-0.1 -0.1,-0.1 -0.1,-0.1 -0.1,-0.2 -0.1,-0.4 -0.1,-0.9 -0.1,-1.3 0,-0.2 0.1,-0.3 0.2,-0.4 0.1,-0.1 0.3,0 0.4,0.1 0.4,0.4 1,0.5 1.6,0.7 0.2,0 0.4,0.1 0.5,0.1 0.8,0.2 1.8,0.5 2.8,0.6 l 1.1,0 c 1.7,0 3,-0.2 4.3,-0.7 0.1,-0.1 0.3,0 0.4,0.1 0.1,0.1 0.2,0.2 0.1,0.4 0,0.3 -0.1,0.6 -0.2,0.8 0,0.1 -0.1,0.3 -0.1,0.4 0,0.2 -0.2,0.3 -0.4,0.3 -1.6,0.5 -3.2,0.7 -4.9,0.7 z m -5,-2 c 0.8,0.7 3.4,1.2 4.7,1.3 l 0.3,0 c 1.6,0 3.2,-0.2 4.7,-0.6 l 0,-0.2 0,-0.1 c -1.1,0.4 -2.4,0.5 -3.9,0.5 l -1.1,0 c -1.2,-0.1 -2.2,-0.4 -3,-0.6 -0.2,0 -0.3,-0.1 -0.5,-0.1 -0.4,-0.1 -0.9,-0.2 -1.3,-0.4 0,-0.1 0,0.1 0.1,0.2 z"
       id="path177" />
  </g>
  <g
     transform="matrix(0.93272173,0,0,0.93272173,-39.783688,-99.118257)"
     id="g179">
    <path
       style="fill:#ff0000;fill-rule:evenodd"
       inkscape:connector-curvature="0"
       d="m 198.5,228.3 0,-0.6 c 0.3,0.2 1.6,0.7 2,0.9 0.8,0.3 1.9,0.5 2.7,0.7 1,0.1 2.1,0 3,-0.1 1,-0.1 2.1,-0.2 3.1,-0.4 0,0.3 0.1,0.7 0,1.1 -1.9,0.2 -3.8,0.6 -5.6,0.5 -1.8,-0.2 -3.7,-0.7 -5.3,-1.6 0.1,-0.3 0.1,-0.4 0.1,-0.5 z"
       id="path181" />
    <path
       style="fill:#970000"
       inkscape:connector-curvature="0"
       d="m 204.5,230.7 -0.8,0 c -2,-0.2 -3.9,-0.8 -5.4,-1.7 -0.1,-0.1 -0.2,-0.2 -0.2,-0.3 l 0,-0.3 0,-0.3 0,-0.2 c 0,-0.2 0.1,-0.3 0.2,-0.3 0.1,-0.1 0.3,0 0.4,0.1 0.1,0.1 0.8,0.4 1.2,0.5 0.3,0.1 0.6,0.2 0.7,0.3 0.6,0.3 1.6,0.5 2.6,0.6 0.8,0.1 1.7,0 2.5,-0.1 l 0.5,0 c 1,-0.1 2,-0.2 3,-0.4 0.1,0 0.2,0 0.3,0.1 0.1,0.1 0.1,0.2 0.2,0.3 0,0.3 0.1,0.7 0,1.1 0,0.2 -0.2,0.4 -0.4,0.4 -0.4,0.1 -0.9,0.1 -1.3,0.2 -1.1,-0.2 -2.3,0 -3.5,0 z m -5.7,-2.3 c 1.4,0.8 3.1,1.3 4.9,1.5 1.4,0.1 2.8,-0.1 4.2,-0.3 0.4,0 0.7,-0.1 1,-0.1 l 0,-0.3 c -0.9,0.2 -1.8,0.3 -2.7,0.3 l -0.4,0 c -0.9,0.1 -1.8,0.2 -2.7,0.1 -1.2,-0.2 -2.1,-0.4 -2.9,-0.7 -0.2,-0.1 -0.4,-0.2 -0.7,-0.3 -0.2,0 -0.4,-0.1 -0.7,-0.2 z"
       id="path183" />
  </g>
  <g
     transform="matrix(0.93272173,0,0,0.93272173,-39.783688,-99.118257)"
     id="g185">
    <path
       style="fill:#ff0000;fill-rule:evenodd"
       inkscape:connector-curvature="0"
       d="m 200.6,210.1 c 0.1,-0.9 0.5,-1.7 1,-2.4 0.3,-0.5 0.8,-1 1.3,-1.4 0.1,0 0.1,0 0.2,-0.1 0.3,-0.2 0.7,-0.3 1.1,-0.2 -0.3,0.2 -0.5,0.4 -0.7,0.6 -0.5,0.7 -1,1.4 -1.2,2.2 -0.6,0.5 -1.2,0.9 -1.7,1.3 z"
       id="path187" />
    <path
       style="fill:#970000"
       inkscape:connector-curvature="0"
       d="m 200.6,210.5 -0.2,0 c -0.1,-0.1 -0.2,-0.2 -0.2,-0.4 0.1,-0.9 0.5,-1.7 1.1,-2.6 0.5,-0.7 0.9,-1.2 1.4,-1.5 l 0.2,-0.1 c 0.4,-0.3 0.9,-0.3 1.4,-0.2 0.1,0 0.2,0.2 0.3,0.3 0.1,0.1 0,0.3 -0.1,0.4 -0.3,0.2 -0.5,0.4 -0.6,0.6 -0.6,0.8 -1,1.4 -1.1,2.1 0,0.1 -0.1,0.2 -0.2,0.2 -0.6,0.4 -1.1,0.7 -1.6,1.2 l -0.4,0 z m 2.3,-3.7 c -0.3,0.2 -0.6,0.6 -1,1.1 -0.3,0.4 -0.5,0.8 -0.7,1.2 0.2,-0.1 0.4,-0.3 0.6,-0.4 0.2,-0.6 0.6,-1.2 1.1,-1.9 z"
       id="path189" />
  </g>
  <g
     transform="matrix(0.93272173,0,0,0.93272173,-39.783688,-99.118257)"
     id="g191">
    <path
       style="fill:#ff0000;fill-rule:evenodd"
       inkscape:connector-curvature="0"
       d="m 205.4,206.3 c 0.3,-0.2 0.7,-0.5 1,-0.2 0.1,0.1 0.2,0.3 0.3,0.4 -0.7,0.1 -1.4,0.4 -2,0.7 0.2,-0.3 0.4,-0.6 0.7,-0.9 z"
       id="path193" />
    <path
       style="fill:#970000"
       inkscape:connector-curvature="0"
       d="m 204.8,207.7 c -0.1,0 -0.2,0 -0.3,-0.1 -0.1,-0.1 -0.2,-0.3 -0.1,-0.4 0.2,-0.5 0.4,-0.8 0.8,-1.1 0.2,-0.2 0.5,-0.4 0.9,-0.4 0.2,0 0.4,0.1 0.6,0.2 0.2,0.1 0.3,0.3 0.4,0.5 0.1,0.1 0.1,0.2 0,0.4 -0.1,0.2 -0.2,0.2 -0.3,0.2 -0.7,0.1 -1.3,0.4 -1.9,0.7 0,-0.1 -0.1,0 -0.1,0 z"
       id="path195" />
  </g>
  <g
     transform="matrix(0.93272173,0,0,0.93272173,-39.783688,-99.118257)"
     id="g197">
    <path
       style="fill:#ff0000;fill-rule:evenodd"
       inkscape:connector-curvature="0"
       d="m 216.3,227.8 c -1,-10.2 -3.8,-10.3 -6.3,-14.7 0.2,-0.1 0.5,-0.2 0.7,-0.3 l 0,0.1 c 1.3,1.2 2.4,2.5 3.4,3.9 1,1.6 1.9,3.3 2.4,5.2 0.3,1.1 0.5,2.2 0.7,3.3 0.1,0.7 0.6,1.5 0.3,2.3 -0.2,0.6 -0.6,0.5 -1.1,0.7 -0.1,-0.3 -0.1,-0.4 -0.1,-0.5 z"
       id="path199" />
    <path
       style="fill:#970000"
       inkscape:connector-curvature="0"
       d="m 216.3,228.5 c -0.1,0 -0.2,0 -0.2,-0.1 -0.1,-0.1 -0.1,-0.2 -0.1,-0.3 l 0,-0.2 c -0.8,-7.3 -2.3,-9.3 -4.2,-11.6 -0.7,-0.9 -1.4,-1.8 -2.1,-3 -0.1,-0.1 -0.1,-0.2 0,-0.3 0.1,-0.1 0.1,-0.2 0.2,-0.2 0.2,-0.1 0.3,-0.1 0.5,-0.2 l 0.3,-0.1 c 0.1,-0.1 0.3,0 0.4,0 0.1,0 0.1,0.1 0.1,0.1 1.3,1.2 2.5,2.5 3.4,4 1,1.6 1.9,3.4 2.5,5.3 0.3,1.2 0.5,2.3 0.7,3.3 0,0.2 0.1,0.4 0.1,0.6 0.2,0.6 0.4,1.3 0.1,1.9 -0.3,0.7 -0.7,0.8 -1.1,0.8 l -0.6,0 z m -5.8,-15.2 c 0.6,1 1.2,1.8 1.9,2.6 1.8,2.3 3.5,4.4 4.3,11.9 0.2,0 0.3,-0.1 0.4,-0.3 0.2,-0.4 0,-0.9 -0.1,-1.4 -0.1,-0.2 -0.1,-0.4 -0.2,-0.6 -0.1,-1 -0.3,-2.1 -0.7,-3.2 -0.5,-1.8 -1.4,-3.6 -2.4,-5.1 -0.9,-1.6 -1.9,-2.8 -3.2,-3.9 z"
       id="path201" />
  </g>
  <g
     transform="matrix(0.93272173,0,0,0.93272173,-39.783688,-99.118257)"
     id="g203">
    <path
       style="fill:#ff0000;fill-rule:evenodd"
       inkscape:connector-curvature="0"
       d="m 198.6,226.6 c 2.2,0.8 2.7,1.2 5.2,1.1 1.8,0 3.6,-0.4 5.4,-0.7 0.1,0.5 0.2,1 0.2,1.4 -1.9,0.4 -3.8,0.6 -5.7,0.6 -0.9,0 -1.9,-0.3 -2.7,-0.5 -0.5,-0.2 -2.3,-0.9 -2.4,-1.1 -0.1,-0.2 -0.1,-0.5 0,-0.8 z"
       id="path205" />
    <path
       style="fill:#970000"
       inkscape:connector-curvature="0"
       d="m 203.6,229.5 c -0.8,0 -1.7,-0.2 -2.8,-0.6 -2.5,-0.9 -2.6,-1.1 -2.7,-1.3 0,-0.1 -0.1,-0.1 0,-0.2 l 0.1,-0.8 c 0,-0.1 0.1,-0.2 0.2,-0.3 0.1,-0.1 0.2,-0.1 0.3,0 0.4,0.1 0.7,0.3 1,0.4 1.5,0.6 2.1,0.8 4,0.7 1.5,0 3,-0.3 4.5,-0.6 l 0.9,-0.2 c 0.2,0 0.4,0.1 0.4,0.3 0.1,0.5 0.2,1 0.2,1.4 0,0.1 0,0.2 -0.1,0.3 -0.1,0.1 -0.2,0.1 -0.3,0.1 -1.6,0.5 -3.6,0.8 -5.7,0.8 z m -4.7,-2.2 c 0.2,0.1 1,0.4 2.2,0.9 1,0.3 1.9,0.5 2.6,0.5 1.9,0 3.7,-0.2 5.3,-0.5 0,-0.2 -0.1,-0.4 -0.1,-0.7 l -0.5,0.1 c -1.5,0.3 -3,0.5 -4.6,0.6 -2.1,0 -2.8,-0.2 -4.3,-0.8 -0.2,-0.1 -0.3,-0.1 -0.5,-0.2 l -0.1,0.1 z"
       id="path207" />
  </g>
  <g
     transform="matrix(0.93272173,0,0,0.93272173,-39.783688,-99.118257)"
     id="g209">
    <path
       style="fill:#ff0000;fill-rule:evenodd"
       inkscape:connector-curvature="0"
       d="m 200.3,210.4 c -0.5,0.5 -1,1 -1.4,1.5 0.4,-1.6 2,-6.6 3.8,-5.7 -0.3,0.2 -0.7,0.6 -0.9,0.9 -0.8,0.9 -1.4,2 -1.5,3.3 z"
       id="path211" />
    <path
       style="fill:#970000"
       inkscape:connector-curvature="0"
       d="m 198.8,212.3 -0.2,0 c -0.2,-0.1 -0.2,-0.3 -0.2,-0.4 0.4,-1.4 1.7,-6.1 3.7,-6.1 0.2,0 0.4,0.1 0.6,0.2 0.1,0.1 0.2,0.2 0.2,0.3 0,0.1 -0.1,0.3 -0.2,0.3 -0.2,0.2 -0.5,0.4 -0.8,0.8 -0.8,1 -1.3,2 -1.4,3.1 0,0.1 0,0.2 -0.1,0.3 -0.5,0.5 -1,1 -1.4,1.5 0.1,-0.1 0,0 -0.2,0 z m 1.4,-3.3 c -0.2,0.5 -0.4,0.9 -0.5,1.5 l 0.3,-0.3 c 0,-0.4 0.1,-0.8 0.2,-1.2 z"
       id="path213" />
  </g>
  <g
     transform="matrix(0.93272173,0,0,0.93272173,-39.783688,-99.118257)"
     id="g215">
    <path
       style="fill:#ff0000;fill-rule:evenodd"
       inkscape:connector-curvature="0"
       d="m 203.5,208.1 c -0.3,0.3 -0.7,0.5 -1,0.7 0.1,-0.5 0.4,-1 0.7,-1.4 0.3,-0.4 0.5,-0.7 0.9,-1 0.1,-0.1 0.2,-0.1 0.3,-0.2 0,0 0.1,0 0.1,-0.1 0.3,-0.1 0.7,-0.2 0.9,-0.1 -0.5,0.3 -0.8,0.9 -0.9,1.4 -0.4,0.2 -0.7,0.4 -1,0.7 z"
       id="path217" />
    <path
       style="fill:#970000"
       inkscape:connector-curvature="0"
       d="m 202.5,209.1 c -0.1,0 -0.2,0 -0.2,-0.1 -0.1,-0.1 -0.2,-0.3 -0.1,-0.4 0.2,-0.6 0.5,-1.1 0.8,-1.5 0.2,-0.4 0.6,-0.8 1,-1.1 0.1,-0.1 0.2,-0.1 0.3,-0.2 l 0.1,-0.1 c 0.5,-0.2 1,-0.2 1.3,0 0.1,0.1 0.2,0.2 0.2,0.3 0,0.1 -0.1,0.2 -0.2,0.3 -0.4,0.3 -0.6,0.7 -0.8,1.2 0,0.1 -0.1,0.2 -0.2,0.2 l -0.9,0.6 c -0.2,0.2 -0.5,0.4 -0.7,0.5 l -0.3,0.2 c -0.1,0.1 -0.2,0.1 -0.3,0.1 z m 1.9,-2.5 c -0.3,0.2 -0.6,0.6 -0.8,0.9 0.2,-0.1 0.4,-0.2 0.5,-0.3 l 0.3,-0.6 z"
       id="path219" />
  </g>
  <g
     transform="matrix(0.93272173,0,0,0.93272173,-39.783688,-99.118257)"
     id="g221">
    <path
       style="fill:#ff0000;fill-rule:evenodd"
       inkscape:connector-curvature="0"
       d="m 215.6,219.1 c -0.4,-0.8 -0.8,-1.6 -1.3,-2.4 -1,-1.5 -2.2,-2.9 -3.5,-4.1 0.4,-0.1 0.7,-0.3 1.1,-0.4 0.9,0.9 1.6,1.9 2.4,2.8 0.8,1 1.4,2 1.9,3.1 0.5,1 1.3,2.3 1.6,3.7 0,0.1 0,0.1 0.1,0.2 0.2,1.1 0.1,2.2 -0.6,3 0,-0.2 -0.1,-0.3 -0.1,-0.5 -0.1,-1.7 -0.7,-3.6 -1.6,-5.4 z"
       id="path223" />
    <path
       style="fill:#970000"
       inkscape:connector-curvature="0"
       d="m 217.4,225.6 -0.1,0 c -0.1,0 -0.2,-0.2 -0.3,-0.3 l -0.1,-0.5 c -0.1,-1.7 -0.7,-3.5 -1.6,-5.5 -0.3,-0.7 -0.7,-1.5 -1.3,-2.3 -1,-1.5 -2.1,-2.8 -3.4,-4 -0.1,-0.1 -0.1,-0.2 -0.1,-0.4 0,-0.1 0.1,-0.2 0.2,-0.3 0.4,-0.1 0.8,-0.3 1.2,-0.4 0.1,0 0.3,0 0.4,0.1 0.8,0.7 1.4,1.5 2,2.3 l 0.4,0.6 c 0.8,1.1 1.5,2.2 2,3.2 l 0.1,0.1 c 0.5,1 1.3,2.3 1.6,3.6 l 0,0.1 0,0.1 c 0.3,1.4 0,2.5 -0.7,3.4 -0.1,0.2 -0.2,0.2 -0.3,0.2 z m -5.8,-12.7 c 1.1,1.1 2.2,2.3 3.1,3.7 0.6,0.9 1,1.7 1.3,2.4 0.9,1.8 1.4,3.5 1.6,5.1 0.2,-0.5 0.2,-1.1 0,-1.8 l 0,-0.1 0,-0.1 c -0.3,-1.2 -1,-2.5 -1.5,-3.5 l -0.1,-0.1 c -0.5,-1 -1.1,-2.1 -1.9,-3.1 l -0.4,-0.6 c -0.6,-0.7 -1.1,-1.4 -1.8,-2.1 -0.1,0.1 -0.2,0.1 -0.3,0.2 z"
       id="path225" />
  </g>
  <g
     transform="matrix(0.93272173,0,0,0.93272173,-39.783688,-99.118257)"
     id="g227">
    <path
       style="fill:#ff0000;fill-rule:evenodd"
       inkscape:connector-curvature="0"
       d="m 214.9,215.5 c -0.8,-1.1 -1.7,-2.2 -2.7,-3.2 0.5,-0.1 0.9,-0.2 1.4,-0.2 1.5,1.2 2.4,2.9 3.3,4.7 0.4,0.8 0.8,1.7 1.1,2.6 0.3,0.8 0.5,1.7 0,2.4 -0.3,-1 -0.8,-2 -1.2,-2.8 -0.5,-1.2 -1.1,-2.4 -1.9,-3.5 z"
       id="path229" />
    <path
       style="fill:#970000"
       inkscape:connector-curvature="0"
       d="m 218.1,222.1 c -0.2,0 -0.3,-0.1 -0.4,-0.3 -0.3,-0.9 -0.7,-1.9 -1.1,-2.7 l -0.1,-0.2 c -0.6,-1.1 -1.1,-2.3 -1.9,-3.3 l -0.3,-0.4 c -0.7,-1 -1.5,-2 -2.4,-2.8 -0.1,-0.1 -0.1,-0.2 -0.1,-0.4 0,-0.1 0.1,-0.2 0.3,-0.3 0.6,-0.1 1,-0.2 1.5,-0.2 0.1,0 0.2,0 0.3,0.1 1.6,1.3 2.5,3.1 3.4,4.8 0.4,0.9 0.8,1.8 1.2,2.6 0.2,0.6 0.6,1.8 0,2.8 -0.2,0.3 -0.3,0.3 -0.4,0.3 z m -5.1,-9.6 c 0.7,0.8 1.3,1.6 1.9,2.4 l 0.3,0.4 c 0.8,1.1 1.4,2.2 2,3.4 l 0.1,0.2 c 0.2,0.4 0.4,0.9 0.7,1.4 -0.1,-0.2 -0.1,-0.5 -0.2,-0.7 -0.3,-0.8 -0.7,-1.7 -1.1,-2.5 -0.8,-1.6 -1.7,-3.3 -3.1,-4.5 -0.2,-0.1 -0.4,-0.1 -0.6,-0.1 z"
       id="path231" />
  </g>
  <g
     transform="matrix(0.93272173,0,0,0.93272173,-39.783688,-99.118257)"
     id="g233">
    <path
       style="fill:#ff0000;fill-rule:evenodd"
       inkscape:connector-curvature="0"
       d="m 214,212 0.2,0 c 0.3,0 0.5,-0.1 0.7,-0.3 0.9,0.7 1.6,1.6 2.2,2.7 0.5,0.9 1.1,2.5 0.7,3.5 -0.1,-0.3 -0.3,-0.5 -0.4,-0.8 -0.8,-1.8 -1.8,-3.7 -3.4,-5.1 z"
       id="path235" />
    <path
       style="fill:#970000"
       inkscape:connector-curvature="0"
       d="m 217.8,218.3 c -0.2,0 -0.3,-0.1 -0.4,-0.2 l -0.3,-0.6 -0.1,-0.2 c -0.9,-1.9 -1.8,-3.7 -3.3,-5 -0.1,-0.1 -0.2,-0.3 -0.1,-0.4 0.1,-0.1 0.2,-0.2 0.4,-0.2 l 0.2,0 c 0.2,0 0.3,-0.1 0.4,-0.1 0.1,-0.2 0.4,-0.2 0.5,-0.1 1,0.8 1.7,1.7 2.3,2.8 0.8,1.6 1.1,2.9 0.8,3.8 -0.1,0.1 -0.2,0.2 -0.4,0.2 z m -3,-6 c 1.1,1.1 1.9,2.5 2.6,3.9 -0.1,-0.5 -0.4,-1 -0.7,-1.6 -0.4,-0.9 -1,-1.7 -1.9,-2.3 0.1,0 0.1,0 0,0 z"
       id="path237" />
  </g>
  <g
     transform="matrix(0.93272173,0,0,0.93272173,-39.783688,-99.118257)"
     id="g239">
    <path
       style="fill:#ff0000;fill-rule:evenodd"
       inkscape:connector-curvature="0"
       d="m 199.1,224.2 c 0.1,-0.3 0.2,-0.5 0.3,-0.8 0.1,0.4 0.1,0.8 0.1,1.2 0,0.3 0,0.7 0.1,1 -0.3,-0.1 -0.6,-0.1 -0.9,-0.2 0.2,-0.4 0.3,-0.8 0.4,-1.2 z"
       id="path241" />
    <path
       style="fill:#970000"
       inkscape:connector-curvature="0"
       d="m 199.6,226 c -0.4,-0.1 -0.7,-0.2 -1,-0.2 -0.2,-0.1 -0.3,-0.3 -0.3,-0.5 0.1,-0.4 0.2,-0.8 0.4,-1.2 0,-0.2 0.1,-0.3 0.2,-0.5 0,-0.1 0.1,-0.2 0.1,-0.3 0.1,-0.2 0.2,-0.3 0.4,-0.2 0.2,0 0.3,0.2 0.3,0.3 0.1,0.4 0.1,0.8 0.1,1.3 l 0,0.4 0,0.4 0,0.2 c 0.2,0.1 0,0.3 -0.2,0.3 z"
       id="path243" />
  </g>
  <g
     transform="matrix(0.93272173,0,0,0.93272173,-39.783688,-99.118257)"
     id="g245">
    <path
       style="fill:#ff0000;fill-rule:evenodd"
       inkscape:connector-curvature="0"
       d="m 199.1,233.6 c 1.3,0.9 2.9,1 4.5,1 0.8,0 1.6,-0.1 2.4,-0.2 0.4,-0.1 0.8,-0.1 1.2,-0.2 0.1,0 1,-0.2 1.4,-0.3 0,0 0,0.1 -0.1,0.2 -0.2,0.4 -0.6,0.7 -0.7,0.8 -1.2,0.7 -2.8,0.8 -4.1,0.7 -1.4,0 -2.9,-0.3 -4.2,-0.8 0,-0.1 0,-0.3 -0.1,-0.5 -0.1,-0.2 -0.2,-0.5 -0.3,-0.7 z"
       id="path247" />
    <path
       style="fill:#970000"
       inkscape:connector-curvature="0"
       d="m 204,235.9 -0.4,0 c -1.4,0 -2.9,-0.3 -4.3,-0.8 -0.2,-0.1 -0.3,-0.2 -0.3,-0.4 0,-0.1 0,-0.2 -0.1,-0.3 l -0.3,-0.6 c -0.1,-0.2 0,-0.3 0.1,-0.5 0.1,-0.1 0.3,-0.1 0.5,0 0.9,0.6 2.2,0.9 3.9,0.9 l 0.3,0 c 0.7,0 1.4,-0.1 2.3,-0.2 0.4,-0.1 0.7,-0.1 1.1,-0.2 0.2,0 1,-0.2 1.4,-0.3 0.1,0 0.2,0 0.3,0.1 0.1,0.1 0.2,0.2 0.2,0.3 0,0.1 0,0.2 -0.1,0.4 -0.2,0.4 -0.6,0.8 -0.8,0.9 -0.8,0.5 -2.1,0.7 -3.8,0.7 z m -4.2,-1.4 c 1.3,0.4 2.6,0.7 3.8,0.7 l 0.4,0 c 1.5,0 2.7,-0.2 3.6,-0.7 -0.3,0.1 -0.5,0.1 -0.6,0.1 -0.3,0.1 -0.7,0.1 -1.1,0.2 -0.9,0.1 -1.7,0.2 -2.4,0.2 l -0.4,0 c -0.8,0 -2.1,-0.1 -3.3,-0.5 l 0,0 z"
       id="path249" />
  </g>
  <g
     transform="matrix(0.93272173,0,0,0.93272173,-39.783688,-99.118257)"
     id="g251">
    <path
       style="fill:#ff0000;fill-rule:evenodd"
       inkscape:connector-curvature="0"
       d="m 197.9,221.4 c 1,-2.1 2,-4.2 3.7,-5.8 0.8,-0.9 1.8,-1.5 2.7,-2.2 1,-0.7 2,-1.6 3,-2.1 1.1,-0.6 2.3,-0.9 3.5,-1.4 0.5,-0.2 1.1,-0.5 1.6,-0.6 l 0.4,0 c 0.1,0 0.1,0 0.3,0.1 0.4,0.1 0.8,0.5 0.8,1 -0.4,0 -0.8,0.1 -1.1,0.1 -1.2,0.2 -2.4,0.5 -3.5,1 -1.7,0.7 -5,3.2 -6.2,4.5 -0.9,0.9 -1.8,1.9 -2.5,3 -1.2,1.8 -2.1,3.7 -2.7,5.8 -0.5,2 -0.7,4.2 -0.5,6.3 0.1,0.7 0.1,2.2 0.6,3.2 -0.6,0.1 -1,-0.4 -1.2,-1.1 0,-0.1 0,-0.1 -0.1,-0.1 -0.5,-1.7 -0.3,-4.6 -0.2,-5.4 0,-2.3 0.6,-4.4 1.4,-6.3 z"
       id="path253" />
    <path
       style="fill:#970000"
       inkscape:connector-curvature="0"
       d="m 197.7,234.5 c -0.4,0 -1.1,-0.2 -1.5,-1.4 l 0,-0.1 c -0.6,-2.1 -0.3,-5.5 -0.3,-5.6 0.2,-2.1 0.8,-4.2 1.7,-6.2 0.9,-2 2,-4.2 3.7,-5.9 0.7,-0.7 1.5,-1.4 2.3,-2 L 204,213 c 0.3,-0.2 0.6,-0.4 0.9,-0.7 0.7,-0.5 1.4,-1.1 2.2,-1.5 0.8,-0.4 1.6,-0.7 2.4,-1 0.4,-0.1 0.8,-0.3 1.1,-0.4 0.2,-0.1 0.3,-0.1 0.5,-0.2 0.4,-0.2 0.8,-0.3 1.3,-0.4 l 0.4,0 c 0.2,0 0.3,0 0.4,0.1 0.6,0.2 1,0.7 1,1.4 0,0.1 0,0.2 -0.1,0.3 -0.1,0.1 -0.2,0.1 -0.3,0.1 -0.3,0 -0.7,0 -1,0.1 -1.2,0.2 -2.3,0.5 -3.5,1 -1.7,0.7 -4.9,3.2 -6.1,4.4 -0.9,0.9 -1.8,1.9 -2.5,2.9 -1.2,1.6 -2,3.5 -2.6,5.7 -0.5,2 -0.7,4.1 -0.5,6.1 l 0,0.2 c 0.1,0.7 0.2,2 0.5,2.9 0.1,0.1 0,0.2 0,0.4 -0.1,0.1 -0.2,0.2 -0.3,0.2 0,-0.1 0,-0.1 -0.1,-0.1 z m 15.2,-24.9 -0.4,0 c -0.3,0 -0.7,0.2 -1,0.4 -0.2,0.1 -0.3,0.1 -0.5,0.2 -0.4,0.1 -0.7,0.3 -1.1,0.4 -0.8,0.3 -1.6,0.6 -2.3,0.9 -0.7,0.4 -1.4,0.9 -2.1,1.4 -0.3,0.2 -0.6,0.5 -0.9,0.7 l -0.4,0.3 c -0.8,0.6 -1.6,1.2 -2.3,1.9 -1.6,1.6 -2.7,3.8 -3.6,5.7 -0.9,1.9 -1.4,3.9 -1.6,5.9 -0.1,1.2 -0.2,3.8 0.2,5.3 0.1,0.2 0.1,0.4 0.3,0.6 -0.2,-0.8 -0.3,-1.7 -0.3,-2.3 l 0,-0.2 c -0.2,-2.1 0,-4.2 0.5,-6.4 0.6,-2.2 1.5,-4.2 2.8,-5.9 0.7,-1.1 1.6,-2.1 2.6,-3 1.2,-1.2 4.5,-3.8 6.4,-4.6 1.2,-0.5 2.4,-0.8 3.6,-1 0.2,0 0.5,-0.1 0.7,-0.1 -0.2,0 -0.4,-0.1 -0.6,-0.2 0.1,0 0,0 0,0 z"
       id="path255" />
  </g>
  <g
     transform="matrix(0.93272173,0,0,0.93272173,-39.783688,-99.118257)"
     id="g257">
    <path
       style="fill:#ff0000;fill-rule:evenodd"
       inkscape:connector-curvature="0"
       d="m 197.4,228.4 c 0.1,-2.2 0.7,-4.4 1.6,-6.4 0.9,-2 2.2,-3.8 3.7,-5.4 1,-1 4.4,-3.7 5.6,-4.5 1,-0.6 2.2,-0.9 3.4,-1.2 0.6,-0.1 1.2,-0.3 1.9,-0.3 0.3,0 0.5,0 0.8,0.1 0.7,0.3 0.6,1 -0.1,1.1 -0.1,0 -0.3,0.1 -0.4,0.1 l -0.3,0 c -0.2,0 -0.5,0 -0.7,0.1 -0.5,0.1 -1,0.2 -1.5,0.4 -0.9,0.3 -1.8,0.7 -2.7,1.2 -2,1.1 -3.9,2.3 -5.4,3.9 -0.7,0.8 -1.4,1.7 -2,2.6 -0.7,1 -1.2,2 -1.8,3 -1,1.9 -1.2,3.9 -1.2,6 0,1 0.1,2 0.2,3.1 0.1,0.5 0.2,1 0.4,1.6 0.1,0.3 0.6,0.9 0.4,1.3 -1.3,0.1 -1.5,-2.3 -1.6,-3.1 -0.3,-1.3 -0.3,-2.5 -0.3,-3.6 z"
       id="path259" />
    <path
       style="fill:#970000"
       inkscape:connector-curvature="0"
       d="m 199.1,235.2 c -1.6,0 -1.8,-2.4 -1.9,-3.4 -0.2,-1.1 -0.2,-2.2 -0.2,-3.5 0.1,-2.2 0.7,-4.5 1.6,-6.6 0.8,-1.9 2.1,-3.8 3.8,-5.5 1,-1.1 4.5,-3.8 5.7,-4.5 1.1,-0.6 2.3,-1 3.5,-1.3 0.6,-0.1 1.3,-0.3 2,-0.3 0.2,0 0.6,0 0.9,0.1 0.5,0.2 0.8,0.6 0.7,1 0,0.4 -0.4,0.8 -0.9,0.9 -0.2,0 -0.3,0.1 -0.5,0.1 l -0.3,0 -0.6,0 c -0.5,0.1 -0.9,0.2 -1.4,0.4 -0.9,0.3 -1.7,0.7 -2.6,1.2 -1.7,1 -3.7,2.2 -5.3,3.8 -0.6,0.7 -1.2,1.5 -2,2.5 l -0.1,0.1 c -0.6,0.9 -1.2,1.9 -1.7,2.9 -0.8,1.6 -1.2,3.4 -1.2,5.8 0,1 0.1,2 0.2,3 l 0.3,1.5 c 0,0.1 0.1,0.2 0.1,0.3 0.2,0.4 0.5,0.9 0.3,1.3 0,0.1 -0.1,0.2 -0.4,0.2 0.1,0 0,0 0,0 z m -1.2,-7.5 0,0.7 c -0.1,1.2 0,2.3 0.1,3.3 l 0,0.1 c 0.1,0.6 0.2,2.1 0.8,2.5 -0.1,-0.1 -0.1,-0.2 -0.2,-0.3 -0.1,-0.1 -0.1,-0.3 -0.2,-0.4 -0.2,-0.5 -0.3,-1.1 -0.4,-1.6 -0.1,-1 -0.2,-2.1 -0.2,-3.1 0,-0.4 0,-0.8 0.1,-1.2 z m 15.9,-16.7 -0.2,0 c -0.6,0 -1.2,0.2 -1.8,0.3 -1.1,0.3 -2.3,0.6 -3.3,1.2 -1.2,0.7 -4.5,3.3 -5.5,4.4 -1.6,1.6 -2.8,3.4 -3.6,5.3 -0.2,0.4 -0.3,0.8 -0.5,1.2 0.1,-0.2 0.2,-0.3 0.2,-0.5 0.5,-1 1.1,-2.1 1.8,-3 l 0.1,-0.1 c 0.7,-1.1 1.3,-1.8 2,-2.5 1.6,-1.7 3.7,-3 5.5,-4 0.9,-0.5 1.9,-0.9 2.8,-1.2 0.4,-0.1 1,-0.3 1.6,-0.4 0.2,-0.1 0.5,-0.1 0.8,-0.1 l 0.3,0 0.4,0 c 0.2,0 0.3,-0.1 0.3,-0.2 0,-0.1 -0.1,-0.1 -0.2,-0.2 -0.4,-0.2 -0.5,-0.2 -0.7,-0.2 z"
       id="path261" />
  </g>
  <g
     transform="matrix(0.93272173,0,0,0.93272173,-39.783688,-99.118257)"
     id="g263">
    <path
       style="fill:#ff0000;fill-rule:evenodd"
       inkscape:connector-curvature="0"
       d="m 198.7,225.6 c 0.9,0.3 1.8,0.4 2.7,0.6 0.8,0.2 1.5,0.5 2.4,0.4 1.8,0 3.4,-0.1 5.1,-0.7 0.1,0.3 0.1,0.6 0.2,1 -1.8,0.3 -3.6,0.7 -5.4,0.7 -2.4,0.1 -3,-0.4 -5.1,-1.2 0,-0.3 0.1,-0.6 0.1,-0.8 z"
       id="path265" />
    <path
       style="fill:#970000"
       inkscape:connector-curvature="0"
       d="m 203.3,227.9 c -1.8,0 -2.6,-0.3 -3.9,-0.8 -0.3,-0.1 -0.6,-0.2 -1,-0.4 -0.2,-0.1 -0.3,-0.2 -0.2,-0.4 0,-0.3 0.1,-0.6 0.1,-0.8 0,-0.1 0.1,-0.2 0.2,-0.3 0.1,-0.1 0.2,-0.1 0.3,0 0.5,0.2 1.1,0.3 1.7,0.4 0.3,0.1 0.7,0.1 1,0.2 l 0.5,0.1 c 0.6,0.2 1.1,0.3 1.7,0.3 l 0.1,0 c 1.7,0 3.3,-0.1 5,-0.7 l 0.3,0 c 0.1,0 0.2,0.2 0.2,0.3 0.1,0.3 0.1,0.6 0.2,0.9 0,0.1 0,0.2 -0.1,0.3 -0.1,0.1 -0.2,0.2 -0.3,0.2 l -0.5,0.1 c -1.6,0.3 -3.3,0.6 -5,0.6 l -0.3,0 z m -4.3,-1.8 c 0.2,0.1 0.5,0.2 0.7,0.3 1.3,0.5 2,0.8 3.6,0.8 l 0.4,0 c 1.6,-0.1 3.3,-0.3 4.9,-0.6 l 0.1,0 0,-0.2 c -1.6,0.5 -3.2,0.6 -4.8,0.6 l -0.1,0 c -0.7,0 -1.3,-0.2 -1.9,-0.3 l -0.4,-0.1 c -0.3,-0.1 -0.6,-0.1 -0.9,-0.2 -0.6,-0.1 -1.1,-0.2 -1.6,-0.3 z"
       id="path267" />
  </g>
  <g
     transform="matrix(0.93272173,0,0,0.93272173,-39.783688,-99.118257)"
     id="g269">
    <path
       style="fill:#ff0000;fill-rule:evenodd"
       inkscape:connector-curvature="0"
       d="m 195.2,226.1 c 0.1,-1.1 0.4,-2.2 0.8,-3.2 1.1,-2.8 3,-6.5 5.1,-8.6 1.7,-1.7 3.7,-3.1 5.8,-4.3 1,-0.6 2.1,-1.1 3.3,-1.4 0.3,-0.1 0.7,-0.2 1,-0.3 l 0.1,0 0.6,0 c 0.4,0.1 0.8,0.4 0.9,0.7 -0.1,0 -0.3,0 -0.5,0.1 -0.8,0.2 -1.5,0.5 -2.2,0.9 -0.7,0.3 -1.4,0.5 -2.1,0.8 -1.2,0.5 -2.3,1.4 -3.4,2.2 -1.2,0.9 -2.4,1.7 -3.4,2.8 -1.7,1.9 -3,4.4 -3.9,6.7 -0.9,2.2 -1.3,4.6 -1.3,7 0,1.1 0.1,2.3 0.3,3.4 -1.5,0 -1.3,-2.2 -1.3,-3.3 0,-1.2 0,-2.4 0.2,-3.5 z"
       id="path271" />
    <path
       style="fill:#970000"
       inkscape:connector-curvature="0"
       d="m 196.3,233.2 c -1.8,0 -1.8,-2.2 -1.7,-3.4 l 0,-0.3 c 0,-1.2 0.1,-2.4 0.2,-3.6 0.2,-1.3 0.4,-2.3 0.8,-3.3 1.1,-2.8 3.1,-6.6 5.2,-8.8 1.6,-1.6 3.6,-3.1 5.8,-4.3 1.3,-0.7 2.3,-1.1 3.3,-1.5 0.1,0 0.2,-0.1 0.3,-0.1 0.2,-0.1 0.5,-0.2 0.7,-0.2 l 0.2,0 0.7,0 c 0.5,0.1 0.9,0.4 1.2,0.9 0.1,0.1 0.1,0.3 0,0.4 -0.1,0.2 -0.4,0.2 -0.7,0.2 -0.5,0.1 -1.1,0.4 -1.7,0.6 l -0.5,0.2 c -0.4,0.1 -0.7,0.3 -1.1,0.4 -0.4,0.1 -0.7,0.3 -1.1,0.4 -0.9,0.4 -1.7,1 -2.5,1.6 -0.3,0.2 -0.5,0.4 -0.8,0.6 l -0.3,0.2 c -1,0.8 -2.1,1.6 -3,2.5 -1.5,1.6 -2.7,3.8 -3.8,6.6 -0.8,2.1 -1.3,4.5 -1.3,6.9 0,1.2 0.1,2.3 0.3,3.2 0,0.1 0.1,0.1 0.1,0.2 0.1,0.5 -0.1,0.6 -0.3,0.6 z m 15,-24.6 -0.2,0 c -0.1,0 -0.3,0.1 -0.5,0.2 -0.1,0 -0.2,0.1 -0.4,0.1 -1,0.3 -1.9,0.7 -3.2,1.4 -2.2,1.2 -4.1,2.7 -5.7,4.2 -2,2.1 -3.9,5.8 -5,8.5 -0.4,0.9 -0.6,1.9 -0.8,3.1 -0.1,1.1 -0.2,2.3 -0.2,3.4 l 0,0.3 c 0,1 0,2 0.4,2.4 -0.1,-0.8 -0.2,-1.8 -0.2,-2.8 0,-2.5 0.5,-5 1.3,-7.1 1.1,-2.9 2.4,-5.2 4,-6.9 0.9,-1 2,-1.8 3.1,-2.6 l 0.3,-0.2 c 0.3,-0.2 0.5,-0.4 0.8,-0.6 0.8,-0.6 1.7,-1.3 2.7,-1.7 0.4,-0.1 0.7,-0.3 1.1,-0.4 0.4,-0.1 0.7,-0.3 1.1,-0.4 l 0.4,-0.2 c 0.5,-0.2 1.1,-0.5 1.6,-0.6 -0.1,0 -0.1,-0.1 -0.2,-0.1 l -0.4,0 z"
       id="path273" />
  </g>
  <g
     transform="matrix(0.93272173,0,0,0.93272173,-39.783688,-99.118257)"
     id="g275">
    <path
       style="fill:#ff0000;fill-rule:evenodd"
       inkscape:connector-curvature="0"
       d="m 192.1,226.9 c 0,0.6 0,1.2 0.1,1.8 -0.7,-0.8 -1.2,-2 -1.6,-3 l -0.6,-1.8 c -0.1,-0.5 -0.3,-0.9 -0.2,-1.4 0.1,0.5 0.3,1 0.5,1.4 0.4,1 1.1,2 1.8,3 z"
       id="path277" />
    <path
       style="fill:#970000"
       inkscape:connector-curvature="0"
       d="m 192.2,229 c -0.1,0 -0.2,0 -0.3,-0.1 -0.8,-0.9 -1.3,-2.1 -1.7,-3.1 l -0.6,-1.8 0,-0.2 c -0.1,-0.4 -0.2,-0.9 -0.1,-1.4 0,-0.2 0.2,-0.3 0.4,-0.3 0.2,0 0.3,0.1 0.4,0.3 0.1,0.5 0.3,1 0.4,1.4 0.4,1 1.1,2 1.7,2.9 0.1,0.1 0.1,0.2 0.1,0.3 -0.1,0.6 0,1.1 0.1,1.6 l 0,0.2 c 0,0 -0.2,0.2 -0.4,0.2 z m -0.8,-2.5 c 0.1,0.2 0.2,0.5 0.3,0.7 l 0,-0.2 c -0.1,-0.2 -0.2,-0.3 -0.3,-0.5 z"
       id="path279" />
  </g>
  <g
     transform="matrix(0.93272173,0,0,0.93272173,-39.783688,-99.118257)"
     id="g281">
    <path
       style="fill:#ff0000;fill-rule:evenodd"
       inkscape:connector-curvature="0"
       d="m 193.1,224 c 0.2,-0.9 0.2,-1.9 0.5,-2.9 0.3,-1 0.8,-1.9 1.2,-2.9 0.9,-2 2.1,-3.7 3.6,-5.4 0.7,-0.8 1.4,-1.6 2.2,-2.4 0.6,-0.6 1,-0.9 1.7,-1.3 0.1,-0.1 0.1,-0.1 0.3,-0.1 0.2,-0.1 0.4,-0.2 0.5,-0.3 0.9,-0.7 1.8,-1.3 2.8,-1.7 0.7,-0.3 2.5,-0.8 3.1,-0.1 -1.1,0.2 -2.2,0.8 -3.1,1.4 -2.2,1.4 -4.6,2.8 -6.2,4.9 -1.6,2 -3.1,4.3 -4.1,6.6 -0.5,1.1 -0.9,2.3 -1.2,3.5 -0.3,1.2 -0.7,2.5 -0.8,3.7 -0.1,1.2 -0.1,2.4 0.1,3.5 -0.6,0 -0.9,-0.7 -1.1,-1.5 l 0,-0.2 c -0.1,-0.7 -0.1,-1.4 -0.1,-1.8 -0.1,-1 0.3,-2 0.6,-3 z"
       id="path283" />
    <path
       style="fill:#970000"
       inkscape:connector-curvature="0"
       d="m 193.6,231 c -0.5,0 -1.2,-0.4 -1.5,-1.8 l 0,-0.1 c -0.2,-0.8 -0.2,-1.5 -0.2,-1.9 0,-0.8 0.3,-1.4 0.5,-2.1 0.1,-0.4 0.2,-0.7 0.3,-1.1 0.1,-0.4 0.2,-0.9 0.2,-1.3 0.1,-0.5 0.1,-1.1 0.3,-1.6 0.2,-0.8 0.6,-1.5 0.9,-2.2 0.1,-0.2 0.2,-0.5 0.3,-0.7 0.9,-1.9 2.1,-3.7 3.6,-5.5 0.8,-0.9 1.5,-1.7 2.2,-2.4 0.6,-0.6 1,-0.9 1.7,-1.3 0.2,-0.1 0.2,-0.1 0.3,-0.1 0,0 0.1,-0.1 0.2,-0.1 0.1,-0.1 0.2,-0.1 0.3,-0.2 l 0.1,-0.1 c 0.9,-0.7 1.8,-1.3 2.9,-1.7 0.4,-0.1 1.3,-0.5 2.2,-0.5 0.6,0 1.1,0.2 1.3,0.5 0.1,0.1 0.1,0.2 0.1,0.4 0,0.1 -0.2,0.2 -0.3,0.2 -1,0.2 -2,0.7 -2.9,1.3 -2.2,1.4 -4.5,2.8 -6.1,4.8 -1.8,2.3 -3.2,4.4 -4.1,6.5 -0.5,1.1 -0.8,2.3 -1.2,3.5 l -0.1,0.3 c -0.3,1.1 -0.6,2.2 -0.7,3.4 -0.1,1 -0.1,2.1 0.1,3.3 l 0,0.2 c 0,0.1 -0.2,0.3 -0.4,0.3 z m 13.9,-24 c -0.6,0.1 -1.3,0.3 -1.5,0.4 -1,0.3 -1.8,0.9 -2.7,1.6 l -0.1,0.1 c -0.1,0.1 -0.2,0.2 -0.4,0.2 -0.1,0 -0.1,0.1 -0.2,0.1 -0.2,0.1 -0.2,0.1 -0.3,0.2 -0.6,0.4 -1,0.6 -1.5,1.2 -0.7,0.7 -1.4,1.5 -2.2,2.3 -1.5,1.8 -2.6,3.4 -3.5,5.3 -0.1,0.2 -0.2,0.5 -0.3,0.8 -0.3,0.7 -0.6,1.4 -0.9,2.1 -0.1,0.4 -0.2,0.9 -0.2,1.4 -0.1,0.5 -0.1,0.9 -0.2,1.4 l -0.3,1.2 c -0.2,0.6 -0.4,1.2 -0.4,1.9 0,0.3 0,1 0.1,1.7 l 0,0.3 c 0.1,0.3 0.1,0.5 0.2,0.7 -0.1,-0.9 -0.1,-1.8 0,-2.7 0.1,-1.2 0.4,-2.4 0.8,-3.5 l 0.1,-0.3 c 0.3,-1.2 0.7,-2.4 1.2,-3.6 0.9,-2.1 2.3,-4.3 4.2,-6.7 1.7,-2.1 4.1,-3.6 6.3,-5 0.5,-0.4 1.1,-0.8 1.8,-1.1 z"
       id="path285" />
  </g>
  <g
     transform="matrix(0.93272173,0,0,0.93272173,-39.783688,-99.118257)"
     id="g287">
    <path
       style="fill:#ff0000;fill-rule:evenodd"
       inkscape:connector-curvature="0"
       d="m 203.8,217.2 0.2,-0.2 0.5,-0.5 c 0.2,0.2 0.4,0.5 0.5,0.7 -1.5,2.7 -1.9,5.9 -1.9,9 -0.3,-0.1 -0.7,-0.1 -1,-0.2 -0.1,-1.5 0,-3 0.3,-4.5 0.3,-1.5 0.9,-2.9 1.4,-4.3 l 0,0 z"
       id="path289" />
    <path
       style="fill:#970000"
       inkscape:connector-curvature="0"
       d="m 203.1,226.7 c -0.4,-0.1 -0.6,-0.1 -0.9,-0.2 l -0.2,0 c -0.2,0 -0.3,-0.2 -0.3,-0.3 -0.1,-1.4 0,-2.9 0.3,-4.6 0.2,-1.1 0.6,-2.2 1,-3.2 0.1,-0.4 0.3,-0.7 0.4,-1.1 0,-0.1 0.1,-0.2 0.1,-0.2 0.1,-0.1 0.2,-0.2 0.3,-0.2 l 0.2,-0.2 0.2,-0.2 c 0.1,-0.1 0.2,-0.1 0.3,-0.1 0.1,0 0.2,0.1 0.3,0.1 0.2,0.2 0.4,0.5 0.6,0.8 0.1,0.1 0.1,0.3 0,0.4 -1.3,2.2 -1.8,5 -1.8,8.7 l 0,0.1 c -0.1,0 -0.3,0.2 -0.5,0.2 z m -0.6,-0.9 c 0.1,0 0.2,0 0.2,0.1 0,-3.5 0.6,-6.2 1.8,-8.5 0,-0.1 -0.1,-0.1 -0.1,-0.2 l -0.2,0.2 -0.1,0 0,0.1 0,0.1 c -0.1,0.4 -0.3,0.7 -0.4,1.1 -0.4,1 -0.8,2 -0.9,3.1 -0.3,1.3 -0.4,2.7 -0.3,4 z"
       id="path291" />
  </g>
  <g
     transform="matrix(0.93272173,0,0,0.93272173,-39.783688,-99.118257)"
     id="g293">
    <path
       style="fill:#ff0000;fill-rule:evenodd"
       inkscape:connector-curvature="0"
       d="m 194.2,224.7 c 0.6,-2.1 1.1,-4.1 2.2,-6.1 1,-1.9 2.3,-3.8 3.7,-5.4 1.4,-1.8 3.4,-2.9 5.3,-4.2 0.9,-0.6 1.7,-1.1 2.7,-1.5 0.3,-0.1 0.7,-0.2 1.1,-0.3 l 0.3,0 c 0.8,-0.1 1.6,0 1.7,0.9 -1.4,0.3 -2.7,0.9 -3.9,1.5 -2.4,1.2 -4.6,2.9 -6.5,4.8 -2.2,2.4 -4.6,7 -5.4,10 -0.3,1.2 -0.4,2.4 -0.5,3.6 -0.1,1.2 -0.2,2.5 0,3.6 0,0.1 0.1,0.2 0.1,0.3 -0.6,0.1 -0.9,-0.4 -1,-1.1 0,0 0,-0.1 -0.1,-0.2 -0.2,-0.8 -0.1,-1.8 -0.1,-2.3 -0.2,-1.2 0.1,-2.4 0.4,-3.6 z"
       id="path295" />
    <path
       style="fill:#970000"
       inkscape:connector-curvature="0"
       d="m 194.8,232.3 c -0.4,0 -1,-0.2 -1.3,-1.4 l 0,-0.1 0,-0.1 c -0.2,-0.7 -0.1,-1.6 -0.1,-2.1 l 0,-0.3 c 0,-1.4 0.3,-2.7 0.5,-3.7 0.6,-2.1 1.1,-4.2 2.2,-6.2 1,-1.9 2.3,-3.9 3.7,-5.5 1.3,-1.6 3,-2.7 4.6,-3.8 l 0.7,-0.5 c 0.8,-0.6 1.7,-1.1 2.7,-1.5 0.3,-0.1 0.7,-0.2 1.1,-0.3 l 0.3,0 0.5,0 c 1.3,0 1.5,0.8 1.6,1.2 0,0.2 -0.1,0.4 -0.3,0.4 -1.4,0.3 -2.8,0.9 -3.8,1.4 -2.4,1.3 -4.6,2.9 -6.4,4.8 -2.1,2.3 -4.5,6.8 -5.3,9.8 -0.2,1 -0.4,2.1 -0.4,3.5 l 0,0.6 c -0.1,1 -0.1,2 0.1,2.9 0,0.1 0,0.2 0.1,0.3 l 0,0.3 c -0.1,0.1 -0.2,0.2 -0.3,0.2 -0.1,0.1 -0.2,0.1 -0.2,0.1 z m -0.6,-1.6 c 0,0.1 0.1,0.3 0.1,0.4 -0.1,-0.8 0,-1.7 0,-2.5 l 0,-0.6 c 0.1,-1.5 0.2,-2.6 0.5,-3.6 0.8,-3.2 3.3,-7.8 5.5,-10.2 1.8,-1.9 4,-3.6 6.6,-4.9 1,-0.5 2.3,-1.1 3.6,-1.4 -0.1,-0.1 -0.3,-0.2 -0.7,-0.2 l -0.4,0 -0.3,0 c -0.3,0.1 -0.7,0.2 -0.9,0.3 -0.9,0.4 -1.8,0.9 -2.6,1.4 l -0.7,0.5 c -1.6,1 -3.2,2.1 -4.4,3.6 -1.3,1.6 -2.6,3.5 -3.6,5.4 -1,1.9 -1.6,4 -2.2,6 -0.4,1.4 -0.5,2.5 -0.5,3.5 l 0,0.3 c 0,0.5 0,1.3 0.1,1.9 l 0,0.1 c -0.1,-0.1 -0.1,0 -0.1,0 z"
       id="path297" />
  </g>
  <g
     transform="matrix(0.93272173,0,0,0.93272173,-39.783688,-99.118257)"
     id="g299">
    <path
       style="fill:#ff0000;fill-rule:evenodd"
       inkscape:connector-curvature="0"
       d="m 204.1,226.3 -0.3,0 -0.5,0 c 0,-3 0.3,-6.1 1.8,-8.8 0.2,0.3 0.5,0.7 0.7,1 -0.5,1.3 -0.9,2.7 -1.2,4.1 -0.3,1.2 -0.6,2.4 -0.5,3.7 z"
       id="path301" />
    <path
       style="fill:#970000"
       inkscape:connector-curvature="0"
       d="m 203.8,226.7 -0.3,0 -0.2,0 c -0.2,0 -0.4,-0.2 -0.4,-0.4 0,-3.8 0.5,-6.6 1.8,-9 0.1,-0.1 0.2,-0.2 0.3,-0.2 0.1,0 0.3,0.1 0.3,0.2 0.2,0.3 0.5,0.7 0.7,1 0.1,0.1 0.1,0.2 0,0.4 -0.5,1.2 -0.8,2.5 -1.2,4 l -0.1,0.4 c -0.2,1.1 -0.5,2.2 -0.3,3.2 0,0.1 0,0.2 -0.1,0.3 -0.1,0.1 -0.3,0.1 -0.4,0.1 l -0.1,0 z m 1.4,-8.4 c -0.9,1.9 -1.3,4.1 -1.4,6.9 0,-0.8 0.2,-1.6 0.4,-2.3 l 0.1,-0.4 c 0.3,-1.5 0.7,-2.7 1.1,-3.9 -0.1,-0.1 -0.2,-0.2 -0.2,-0.3 z"
       id="path303" />
  </g>
  <g
     transform="matrix(0.93272173,0,0,0.93272173,-39.783688,-99.118257)"
     id="g305">
    <path
       style="fill:#ff0000;fill-rule:evenodd"
       inkscape:connector-curvature="0"
       d="m 203.4,217.6 c -0.5,1.4 -1,2.7 -1.3,4.1 -0.2,1.4 -0.3,2.9 -0.3,4.3 -0.2,0 -0.4,-0.1 -0.6,-0.1 -0.1,0 -0.2,0 -0.3,-0.1 -0.2,-1.9 -0.2,-3.8 0.4,-5.6 0.7,-0.9 1.3,-1.8 2.1,-2.6 z"
       id="path307" />
    <path
       style="fill:#970000"
       inkscape:connector-curvature="0"
       d="m 201.9,226.4 c -0.1,0 -0.1,0 0,0 -0.2,0 -0.4,-0.1 -0.6,-0.1 -0.1,0 -0.2,0 -0.3,-0.1 -0.1,0 -0.2,-0.2 -0.3,-0.3 -0.2,-1.7 -0.3,-3.7 0.4,-5.8 l 0,-0.1 c 0.7,-1 1.4,-1.9 2,-2.6 0.1,-0.1 0.3,-0.2 0.5,-0.1 0.2,0.1 0.2,0.3 0.2,0.5 l -0.3,0.8 c -0.4,1.1 -0.8,2.2 -1,3.3 -0.2,1.5 -0.3,2.9 -0.3,4.1 l 0,0.1 c 0.1,0.1 -0.1,0.3 -0.3,0.3 z m -0.5,-0.9 c 0.1,-1.1 0.1,-2.4 0.3,-3.8 0.1,-0.7 0.3,-1.4 0.5,-2.1 -0.2,0.2 -0.3,0.5 -0.5,0.7 -0.5,1.8 -0.5,3.6 -0.3,5.2 z"
       id="path309" />
  </g>
  <g
     transform="matrix(0.93272173,0,0,0.93272173,-39.783688,-99.118257)"
     id="g311">
    <path
       style="fill:#ff0000;fill-rule:evenodd"
       inkscape:connector-curvature="0"
       d="m 206.5,219.9 c -0.3,1 -0.7,2.1 -0.9,3.2 -0.2,1 -0.1,2.2 -0.2,3.2 -0.3,0 -0.7,0.1 -1,0.1 -0.2,-1.3 0.2,-2.6 0.5,-3.9 0.3,-1.2 0.6,-2.5 1.1,-3.7 0.2,0.4 0.4,0.6 0.6,0.9 -0.1,0 -0.1,0.1 -0.1,0.2 z"
       id="path313" />
    <path
       style="fill:#970000"
       inkscape:connector-curvature="0"
       d="m 204.4,226.7 c -0.2,0 -0.4,-0.1 -0.4,-0.3 -0.2,-1.3 0.1,-2.5 0.4,-3.7 l 0.1,-0.3 c 0.2,-1.1 0.5,-2.5 1.1,-3.8 0.1,-0.1 0.2,-0.2 0.3,-0.2 0.1,0 0.3,0.1 0.4,0.2 0.2,0.4 0.4,0.6 0.6,0.9 0.1,0.1 0.1,0.2 0,0.3 0,0.1 0,0.2 -0.1,0.2 -0.1,0.2 -0.1,0.5 -0.2,0.7 -0.2,0.8 -0.5,1.6 -0.6,2.3 -0.1,0.8 -0.1,1.6 -0.2,2.4 l 0,0.7 c 0,0.2 -0.2,0.4 -0.4,0.4 -0.3,0.2 -0.6,0.2 -1,0.2 z m 1.6,-7.1 c -0.4,1 -0.6,2 -0.8,2.9 l -0.1,0.3 c -0.2,1 -0.5,2.1 -0.4,3.1 l 0.3,0 0,-0.4 c 0,-0.8 0,-1.7 0.2,-2.5 0.1,-0.8 0.4,-1.7 0.6,-2.5 0.1,-0.3 0.2,-0.5 0.2,-0.8 0.1,0 0,-0.1 0,-0.1 z"
       id="path315" />
  </g>
  <g
     transform="matrix(0.93272173,0,0,0.93272173,-39.783688,-99.118257)"
     id="g317">
    <path
       style="fill:#ff0000;fill-rule:evenodd"
       inkscape:connector-curvature="0"
       d="m 207.7,226 c -0.3,0.1 -0.6,0.1 -1,0.2 0,-1.6 0.1,-3.3 0.7,-4.7 0.3,0.5 0.5,1.1 0.7,1.6 -0.2,0.9 -0.3,1.9 -0.4,2.9 z"
       id="path319" />
    <path
       style="fill:#970000"
       inkscape:connector-curvature="0"
       d="m 206.8,226.5 c -0.1,0 -0.2,0 -0.3,-0.1 -0.1,-0.1 -0.1,-0.2 -0.1,-0.3 0,-1.6 0.1,-3.4 0.8,-4.9 0.1,-0.1 0.2,-0.2 0.3,-0.2 0.1,0 0.3,0.1 0.3,0.2 0.3,0.5 0.5,1.1 0.7,1.6 l 0,0.3 c -0.3,0.9 -0.4,1.8 -0.5,2.9 0,0.2 -0.1,0.3 -0.3,0.3 -0.2,0.1 -0.6,0.2 -0.9,0.2 z m 0.7,-4.1 c -0.3,1 -0.4,2.2 -0.4,3.3 l 0.2,0 c 0.1,-1 0.2,-1.8 0.4,-2.6 0,-0.3 -0.1,-0.5 -0.2,-0.7 z"
       id="path321" />
  </g>
  <g
     transform="matrix(0.93272173,0,0,0.93272173,-39.783688,-99.118257)"
     id="g323">
    <path
       style="fill:#ff0000;fill-rule:evenodd"
       inkscape:connector-curvature="0"
       d="m 206.5,226.2 c -0.3,0 -0.6,0.1 -0.9,0.1 0,-1 0,-2.1 0.1,-3.1 0.2,-1.1 0.6,-2.1 0.9,-3.2 0.2,0.4 0.5,0.8 0.7,1.2 -0.7,1.5 -0.8,3.2 -0.8,5 z"
       id="path325" />
    <path
       style="fill:#970000"
       inkscape:connector-curvature="0"
       d="m 205.7,226.6 c -0.1,0 -0.2,0 -0.3,-0.1 -0.1,-0.1 -0.1,-0.2 -0.1,-0.3 l 0,-0.4 c 0,-0.9 0,-1.9 0.1,-2.8 0.1,-0.8 0.4,-1.6 0.6,-2.4 0.1,-0.3 0.2,-0.6 0.3,-0.8 0,-0.1 0.2,-0.3 0.3,-0.3 0.2,0 0.3,0.1 0.4,0.2 0.2,0.4 0.5,0.8 0.7,1.2 0.1,0.1 0.1,0.2 0,0.4 -0.7,1.4 -0.8,3 -0.8,4.9 0,0.2 -0.1,0.4 -0.3,0.4 l -0.9,0 z m 1.1,-5.7 c -0.2,0.7 -0.5,1.5 -0.6,2.3 -0.1,0.9 -0.1,1.8 -0.1,2.7 l 0.1,0 c 0,-1.4 0.1,-3.2 0.8,-4.7 -0.1,-0.2 -0.2,-0.2 -0.2,-0.3 z"
       id="path327" />
  </g>
  <g
     transform="matrix(0.93272173,0,0,0.93272173,-39.783688,-99.118257)"
     id="g329">
    <path
       style="fill:#ff0000;fill-rule:evenodd"
       inkscape:connector-curvature="0"
       d="m 199.7,223 c 0.4,-0.8 0.8,-1.5 1.3,-2.2 -0.4,1.6 -0.4,3.3 -0.2,5 -0.3,-0.1 -0.6,-0.1 -0.9,-0.1 -0.1,-0.4 -0.1,-0.9 -0.1,-1.4 0,-0.4 -0.1,-0.8 -0.1,-1.3 z"
       id="path331" />
    <path
       style="fill:#970000"
       inkscape:connector-curvature="0"
       d="m 200.8,226.2 c 0,0 -0.1,0 0,0 -0.3,-0.1 -0.6,-0.1 -0.9,-0.1 -0.1,0 -0.3,-0.1 -0.3,-0.3 -0.1,-0.4 -0.1,-0.7 -0.1,-1.1 l 0,-0.4 c 0,-0.4 -0.1,-0.8 -0.1,-1.2 l 0,-0.2 c 0.3,-0.7 0.8,-1.4 1.3,-2.3 0.1,-0.2 0.3,-0.2 0.5,-0.1 0.2,0.1 0.3,0.3 0.2,0.4 -0.4,1.7 -0.3,3.4 -0.2,4.7 l 0,0.2 c 0,0.2 -0.2,0.4 -0.4,0.4 z m -0.6,-0.9 0.1,0 c -0.1,-0.8 -0.1,-1.7 0,-2.7 -0.1,0.2 -0.2,0.3 -0.2,0.5 0,0.4 0.1,0.8 0.1,1.2 l 0,0.4 0,0.6 z"
       id="path333" />
  </g>
  <g
     transform="matrix(0.93272173,0,0,0.93272173,-39.783688,-99.118257)"
     id="g335">
    <path
       style="fill:#ff0000;fill-rule:evenodd"
       inkscape:connector-curvature="0"
       d="m 208.9,225.6 c -0.3,0.1 -0.6,0.2 -0.9,0.3 0,-0.9 0.2,-1.7 0.4,-2.5 0.2,0.6 0.3,1.2 0.5,1.8 -0.1,0.2 0,0.3 0,0.4 z"
       id="path337" />
    <path
       style="fill:#970000"
       inkscape:connector-curvature="0"
       d="m 208,226.3 c -0.1,0 -0.2,0 -0.2,-0.1 -0.1,-0.1 -0.1,-0.2 -0.1,-0.3 0,-0.8 0.1,-1.6 0.4,-2.6 0,-0.2 0.2,-0.3 0.4,-0.3 0.2,0 0.3,0.1 0.4,0.3 0.2,0.5 0.3,1.2 0.5,1.9 l 0.1,0.3 c 0,0.1 0.1,0.1 0.1,0.2 0,0.2 -0.2,0.4 -0.4,0.4 l -0.2,0.1 c -0.5,0 -0.7,0 -1,0.1 z"
       id="path339" />
  </g>
  <g
     transform="matrix(0.93272173,0,0,0.93272173,-39.783688,-99.118257)"
     id="g341">
    <path
       style="fill:#ff0000;fill-rule:evenodd"
       inkscape:connector-curvature="0"
       d="m 190.2,216.5 c 0,0.7 0.1,1.5 0.1,2.1 0.3,3.4 0.5,3.6 2,6.5 0,0.1 0.1,0.1 0.1,0.2 -0.1,0.4 -0.2,0.6 -0.3,1 l 0,0.2 c -0.5,-0.7 -1,-1.4 -1.4,-2.2 -0.4,-0.8 -0.7,-1.7 -0.9,-2.6 -0.2,-0.9 -0.4,-1.8 -0.4,-2.8 0.2,-0.8 0.1,-1.9 0.8,-2.4 z"
       id="path343" />
    <path
       style="fill:#970000"
       inkscape:connector-curvature="0"
       d="m 192.1,226.9 c -0.1,0 -0.2,0 -0.3,-0.1 l -0.2,-0.3 c -0.4,-0.6 -0.9,-1.3 -1.2,-1.9 -0.4,-0.9 -0.7,-1.8 -0.9,-2.7 -0.2,-1 -0.4,-1.9 -0.4,-2.9 l 0,-0.3 c 0,-0.8 0,-1.9 0.8,-2.5 0.1,-0.1 0.3,-0.1 0.4,0 0.1,0.1 0.2,0.2 0.2,0.3 0,0.5 0,0.9 0.1,1.4 l 0,0.7 c 0.2,3 0.4,3.4 1.6,5.5 l 0.4,0.8 c 0,0.1 0.1,0.1 0.1,0.2 l 0,0.2 c -0.1,0.4 -0.2,0.6 -0.2,1 0,0.2 -0.1,0.4 -0.3,0.4 0,0.1 -0.1,0.2 -0.1,0.2 z m -2.2,-8.2 0,0.3 c 0,0.9 0.2,1.8 0.4,2.7 0.2,0.8 0.4,1.7 0.8,2.5 0.2,0.5 0.5,1 0.8,1.4 0,-0.1 0,-0.1 0.1,-0.2 l -0.4,-0.8 c -1.2,-2.3 -1.4,-2.9 -1.7,-5.9 z"
       id="path345" />
  </g>
  <g
     transform="matrix(0.93272173,0,0,0.93272173,-39.783688,-99.118257)"
     id="g347">
    <path
       style="fill:#ff0000;fill-rule:evenodd"
       inkscape:connector-curvature="0"
       d="m 198.6,212.1 0,0.2 c -0.3,0.3 -0.5,0.6 -0.8,1 -0.2,0.2 -0.3,0.4 -0.5,0.6 -0.1,-1.6 0.4,-2.9 1.1,-4.3 0.3,-0.6 0.6,-1.1 0.8,-1.8 0.1,-0.2 0.1,-0.4 0.2,-0.6 0,-0.1 0,-0.1 0.1,-0.2 0.1,-0.1 0.2,-0.3 0.5,-0.4 0.4,-0.1 0.8,-0.1 1.2,-0.1 -0.3,0.3 -0.6,0.7 -0.8,1.1 -0.9,1.4 -1.5,2.9 -1.8,4.5 z"
       id="path349" />
    <path
       style="fill:#970000"
       inkscape:connector-curvature="0"
       d="m 197.2,214.2 -0.1,0 c -0.1,0 -0.3,-0.2 -0.3,-0.3 -0.1,-1.8 0.5,-3.3 1.2,-4.5 0.3,-0.6 0.6,-1.1 0.8,-1.7 l 0,-0.2 c 0,-0.2 0.1,-0.3 0.1,-0.5 0,-0.1 0,-0.1 0.1,-0.3 0.1,-0.2 0.3,-0.4 0.6,-0.5 0.4,-0.2 0.9,-0.2 1.4,-0.1 0.1,0 0.3,0.1 0.3,0.3 0,0.1 0,0.3 -0.1,0.4 -0.3,0.3 -0.6,0.7 -0.7,1 -0.8,1.3 -1.3,2.8 -1.7,4.4 l -0.4,0.1 0.4,0.1 c 0,0.1 0,0.1 -0.1,0.2 -0.1,0.2 -0.3,0.3 -0.4,0.5 -0.1,0.2 -0.3,0.3 -0.4,0.5 -0.1,0.1 -0.2,0.2 -0.2,0.3 l -0.3,0.3 c 0,-0.1 -0.1,0 -0.2,0 z m 3.1,-7.3 c -0.1,0 -0.2,0 -0.3,0.1 -0.1,0.1 -0.2,0.1 -0.3,0.2 0,0 0,0.1 -0.1,0.1 -0.1,0.1 -0.1,0.2 -0.1,0.4 0,0.1 0,0.2 -0.1,0.2 -0.2,0.7 -0.5,1.3 -0.8,1.8 -0.5,0.9 -0.9,1.9 -1.1,3 0.1,-0.1 0.1,-0.2 0.2,-0.2 0.1,-0.1 0.2,-0.3 0.3,-0.4 l 0,-0.1 c 0.4,-1.7 1,-3.2 1.7,-4.6 0.3,-0.2 0.4,-0.4 0.6,-0.5 z"
       id="path351" />
  </g>
  <g
     transform="matrix(0.93272173,0,0,0.93272173,-39.783688,-99.118257)"
     id="g353">
    <path
       style="fill:#ff0000;fill-rule:evenodd"
       inkscape:connector-curvature="0"
       d="m 197.2,208.9 c -0.3,0.5 -0.5,1 -0.8,1.6 -0.8,1.8 -1.1,3.8 -1.1,5.8 l 0,0.2 c -0.5,0.8 -0.8,1.5 -1.1,2.3 -0.1,-0.7 -0.2,-1.6 -0.2,-2.5 -0.1,-1.1 0.7,-4.4 1,-5.6 0,-0.1 0,-0.2 0.1,-0.3 0,-0.1 0,-0.1 0.1,-0.2 0.2,-0.9 1,-1.7 2,-1.3 z"
       id="path355" />
    <path
       style="fill:#970000"
       inkscape:connector-curvature="0"
       d="m 194.2,219.2 c -0.2,0 -0.4,-0.2 -0.4,-0.3 0,-0.2 0,-0.5 -0.1,-0.7 -0.1,-0.6 -0.1,-1.2 -0.2,-1.8 -0.1,-1.1 0.6,-4 1,-5.7 0,-0.1 0,-0.2 0.1,-0.3 0,-0.1 0,-0.1 0.1,-0.2 0.5,-1.3 1.5,-1.9 2.5,-1.6 l 0.1,0 c 0.1,0 0.1,0.1 0.2,0.2 0.1,0.1 0.1,0.3 0,0.4 -0.3,0.6 -0.5,1 -0.7,1.5 -0.7,1.8 -1.1,3.7 -1.1,5.7 0.1,0.1 0.1,0.3 0,0.4 -0.4,0.7 -0.7,1.4 -1.1,2.1 l -0.1,0.1 c 0,0.1 -0.1,0.2 -0.3,0.2 z m 2.4,-10 c -0.7,0.1 -1.1,0.9 -1.2,1.1 l 0,0.1 0,0.1 0,0.1 c -0.6,2.8 -1,4.9 -1,5.6 0,0.3 0,0.7 0.1,1.1 0.2,-0.3 0.3,-0.6 0.5,-0.9 l 0,-0.1 c 0,-2.1 0.4,-4.1 1.1,-6 0.1,-0.3 0.3,-0.7 0.5,-1.1 z"
       id="path357" />
  </g>
  <g
     transform="matrix(0.93272173,0,0,0.93272173,-39.783688,-99.118257)"
     id="g359">
    <path
       style="fill:#ff0000;fill-rule:evenodd"
       inkscape:connector-curvature="0"
       d="m 193.8,215.5 c 0,0.5 0.1,2 0.3,3.7 -0.1,0.2 -0.1,0.3 -0.2,0.5 -0.1,0.2 -0.2,0.5 -0.3,0.7 -0.6,-1.6 -0.7,-3.3 -0.7,-5.1 0,-0.8 0.1,-1.7 0.2,-2.5 0.1,-0.7 0.7,-2.8 1.7,-2.4 -0.3,0.9 -0.9,4.1 -1,5.1 z"
       id="path361" />
    <path
       style="fill:#970000"
       inkscape:connector-curvature="0"
       d="m 193.6,220.7 c -0.2,0 -0.3,-0.1 -0.4,-0.3 -0.6,-1.8 -0.7,-3.6 -0.7,-5.2 0,-0.9 0.1,-1.7 0.2,-2.6 0,-0.3 0.5,-2.8 1.8,-2.8 0.1,0 0.2,0 0.4,0.1 0.2,0.1 0.3,0.3 0.2,0.5 -0.3,1 -0.9,4.2 -1,5.1 0,0.4 0.1,1.8 0.3,3.6 l 0,0.2 c -0.1,0.1 -0.1,0.2 -0.2,0.3 l 0,0.1 c -0.1,0.2 -0.2,0.4 -0.3,0.7 0,0.2 -0.2,0.3 -0.3,0.3 z m 0.7,-9.8 c -0.3,0.4 -0.6,1.2 -0.8,1.9 -0.2,0.8 -0.2,1.7 -0.2,2.5 0,1.3 0.1,2.6 0.4,3.9 l 0,-0.1 c -0.2,-1.6 -0.3,-3.1 -0.3,-3.6 0.1,-0.9 0.5,-3.3 0.9,-4.6 z"
       id="path363" />
  </g>
  <g
     transform="matrix(0.93272173,0,0,0.93272173,-39.783688,-99.118257)"
     id="g365">
    <path
       style="fill:#ff0000;fill-rule:evenodd"
       inkscape:connector-curvature="0"
       d="m 192.7,213.9 c -0.2,2.2 -0.1,4.4 0.6,6.5 0,0.1 0.1,0.2 0.1,0.3 -0.3,0.7 -0.3,1.2 -0.4,2 0,0.2 0,0.3 -0.1,0.5 -0.4,-0.8 -0.7,-1.7 -0.9,-2.6 -0.7,-3.2 -0.1,-3.9 -0.1,-6.8 l 0,-0.2 c 0,-0.3 0,-0.5 0.1,-0.7 0.1,-0.7 0.6,-1.1 1.2,-1.4 -0.3,1 -0.4,2 -0.5,2.4 z"
       id="path367" />
    <path
       style="fill:#970000"
       inkscape:connector-curvature="0"
       d="m 193,223.6 c -0.1,0 -0.3,-0.1 -0.3,-0.2 -0.4,-0.7 -0.7,-1.6 -0.9,-2.7 -0.5,-2.2 -0.4,-3.2 -0.2,-4.5 0.1,-0.7 0.1,-1.4 0.1,-2.4 l 0,-0.2 c 0,-0.3 0,-0.6 0.1,-0.8 0.2,-0.8 0.7,-1.3 1.4,-1.6 0.1,-0.1 0.3,0 0.4,0.1 0.1,0.1 0.1,0.3 0.1,0.4 -0.3,0.8 -0.4,1.8 -0.5,2.3 -0.2,2.5 0,4.6 0.6,6.4 0,0.1 0.1,0.2 0.1,0.3 l 0,0.2 c -0.2,0.7 -0.3,1.2 -0.4,2 0,0.2 0,0.3 -0.1,0.5 -0.1,0.1 -0.2,0.2 -0.4,0.2 z m -0.7,-7.7 0,0.4 c -0.1,1.2 -0.2,2.2 0.2,4.2 l 0.3,1.2 c 0.1,-0.3 0.1,-0.7 0.3,-1 l 0,-0.2 c -0.6,-1.3 -0.8,-2.8 -0.8,-4.6 z m 0.2,-3.2 c 0,0.1 -0.1,0.2 -0.1,0.3 l 0,0.6 c 0,-0.3 0,-0.6 0.1,-0.9 z"
       id="path369" />
  </g>
  <g
     transform="matrix(0.93272173,0,0,0.93272173,-39.783688,-99.118257)"
     id="g371">
    <path
       style="fill:#ff0000;fill-rule:evenodd"
       inkscape:connector-curvature="0"
       d="m 191.8,220.4 c 0.2,1.1 0.5,2.2 1.1,3.2 -0.1,0.5 -0.3,0.9 -0.4,1.4 -1.2,-2.4 -1.7,-3 -1.9,-5.7 -0.1,-1.5 -0.7,-4.5 1.1,-5.3 -0.1,2.7 -0.5,3.3 0.1,6.4 z"
       id="path373" />
    <path
       style="fill:#970000"
       inkscape:connector-curvature="0"
       d="m 192.5,225.4 c -0.1,0 -0.3,-0.1 -0.3,-0.2 -0.2,-0.3 -0.3,-0.7 -0.5,-0.9 -0.9,-1.7 -1.3,-2.5 -1.5,-4.9 0,-0.2 0,-0.3 -0.1,-0.5 -0.2,-1.6 -0.5,-4.4 1.4,-5.2 0.1,-0.1 0.3,0 0.4,0 0.1,0.1 0.2,0.2 0.2,0.3 0,0.8 -0.1,1.5 -0.2,2 -0.1,1.3 -0.2,2.2 0.2,4.3 0.2,1.2 0.6,2.2 1.1,3.1 0,0.1 0.1,0.2 0,0.3 -0.1,0.5 -0.3,1 -0.4,1.4 0,0.2 -0.1,0.3 -0.3,0.3 z m -1.2,-10.7 c -0.7,0.9 -0.5,2.7 -0.4,3.9 0,0.2 0,0.4 0.1,0.6 0.2,2.2 0.5,3 1.4,4.6 l 0,0.1 c 0,-0.1 0.1,-0.2 0.1,-0.3 -0.5,-0.9 -0.9,-2 -1.1,-3.2 -0.4,-2.2 -0.4,-3.2 -0.2,-4.5 0,-0.4 0.1,-0.7 0.1,-1.2 z"
       id="path375" />
  </g>
  <path
     style="fill-rule:evenodd"
     inkscape:connector-curvature="0"
     d="m 84.175029,105.61416 c 2.704894,3.26453 6.43578,6.80887 10.166667,9.79358 13.990824,3.07798 39.827214,3.91743 49.527524,3.73089 3.91743,0 6.80887,0.46636 6.15596,-2.51835 -3.45107,-5.22324 -9.88685,-2.70489 -14.08409,-2.42508 -9.98013,-1.02599 -18.65444,-2.14526 -26.11621,-5.31651 3.82416,-1.77217 6.24923,-5.96942 7.08868,-10.726301 C 106.84017,93.861869 94.341696,86.213551 89.584816,75.580523 80.630687,55.620278 85.48084,41.815996 65.240778,34.167678 48.171971,27.731898 36.886038,40.323641 37.445671,57.85881 c 0.186544,6.062691 0.746177,10.353211 1.678899,13.337921 1.399083,7.555046 2.798165,14.830275 -1.678899,19.120795 -1.492355,6.155964 4.943425,24.157494 6.43578,28.261464 0.09327,0.27982 0.09327,0.65291 0.186544,0.93273 l 8.394496,0 c 0.466361,-2.89144 -1.678899,-4.66361 -3.824159,-4.94343 -2.331805,-8.48777 -3.730887,-15.94954 -2.051988,-21.452599 1.212538,-4.010703 8.954128,-11.285933 11.752294,-15.949541 0.746177,-1.305811 1.399082,-2.891438 1.958715,-4.663609 0.559633,0.279817 0.932722,0.83945 0.83945,1.865444 -1.025994,17.441896 11.099388,26.489295 23.038226,31.246175 z"
     id="path377" />
  <g
     style="fill:#6c6c6c;fill-rule:evenodd"
     id="g147"
     transform="matrix(0.93272173,0,0,0.93272173,-215.75097,-502.20328)">
    <path
       inkscape:connector-curvature="0"
       d="m 383.86,660.06 c 3.1,-0.2 6.3,0.3 8.4,3.5 0.7,3.1 -2.4,2.7 -6.6,2.7 l -1.8,0 c -1.5,-2 -1.8,-4 0,-6.2 z"
       id="path379" />
    <path
       inkscape:connector-curvature="0"
       d="m 292.76,666.56 c -0.9,-3.5 0.5,-5.1 4.1,-5.3 2.6,-0.1 5.5,1.8 5,5.3 l -9.1,0 z"
       id="path381" />
    <path
       inkscape:connector-curvature="0"
       d="m 278.66,666.56 c -0.9,-3.5 0.5,-5.1 4.1,-5.3 2.6,-0.1 5.5,1.8 4.9,5.3 l -9,0 z"
       id="path383" />
  </g>
  <path
     style="fill:#ff0000"
     inkscape:connector-curvature="0"
     d="m 99.378394,82.296119 c 1.585626,4.010704 3.824156,7.555046 6.715596,10.166667 2.89144,2.611621 6.7156,4.570337 11.56575,5.503058 l -0.74618,5.129966 c -5.78287,-1.02599 -11.47248,-3.637611 -15.01682,-6.902137 -3.451068,-3.171254 -4.756878,-7.648318 -6.622322,-12.405199 l 4.103976,-1.492355 z"
     id="path385" />
  <g
     style="fill-rule:evenodd"
     id="g153"
     transform="matrix(0.93272173,0,0,0.93272173,-215.75097,-502.20328)">
    <path
       inkscape:connector-curvature="0"
       d="m 335.76,609.26 c -4,11.9 2,29.8 16,35.6 14.6,6.1 32.3,-2.9 37.3,-15 1.7,5 6.2,5.4 6.6,5.2 -2.3,-0.8 -3.3,-4.9 -2.8,-6.2 1.3,2.2 3.6,3.3 4.1,3 0,0 -1.5,-1.9 -1.9,-3 -1.7,-4.9 -1,-1.8 2.2,0.2 -2.4,-2.8 -1.6,-6.3 -0.7,-8.9 1.1,-1.4 2,-2.6 2.2,-3.2 0.7,-2.1 2.8,-19.6 1.6,-20 -1.1,-0.3 -14.9,7.6 -19,9.9 l -1.2,0.7 c -3,-2.2 -6.6,-4.1 -10.5,-5.7 -3.9,-1.6 -7.8,-2.8 -11.4,-3.5 -0.5,-2.7 -5.6,-21.3 -6.5,-21.8 -1.1,-0.4 -12.1,13.4 -13.1,15.4 -0.3,0.6 -0.6,2.3 -0.8,4.3 -1,2.6 -2.8,6.2 -6.8,6.6 3.7,0.6 6.3,-1 1.7,1.3 -1,0.5 -3.4,0.9 -3.5,0.9 -0.3,0.2 2.6,1.3 5,0.6 -0.5,1.2 -4.1,3.5 -6.3,2.6 -0.4,-0.3 3.4,2.9 7.8,1 z"
       id="path387" />
    <path
       style="fill:#fa8973"
       inkscape:connector-curvature="0"
       d="m 350.96,581.96 c -0.8,-0.4 -8.2,9 -8.9,10.3 -0.7,1.3 -0.8,9.5 -0.8,9.5 l 10.5,-3.7 -0.8,-16.1 z"
       id="path389" />
    <path
       style="fill:#6c6c6c"
       inkscape:connector-curvature="0"
       d="m 353.26,641.06 0.1,0.1 c 16.2,7 34.7,-8.3 31.7,-19.9 -1.6,-6.2 -8.5,-12.1 -20,-9 -5.8,-10.4 -14.4,-10.9 -19.9,-7.7 -10.1,6 -8,30 8.1,36.5 z"
       id="path391" />
  </g>
  <path
     inkscape:connector-curvature="0"
     d="m 125.02824,88.638627 c 0.27982,0.186544 0.37309,0.466361 0.27982,0.83945 -0.83945,1.492354 -2.05199,2.518348 -3.91743,2.425076 -1.77217,-0.186544 -3.63762,-1.492355 -4.57034,-2.984709 -1.02599,0.279816 -2.51835,0.186544 -3.73089,-0.279817 -2.70489,-0.932722 -3.45107,-3.171254 -2.51835,-5.689602 0.0933,-0.279817 0.46637,-0.466361 0.74618,-0.373089 0.27982,0.09327 0.46636,0.466361 0.37309,0.746177 -0.6529,1.958716 -0.27982,3.451071 1.77217,4.197248 1.11927,0.373089 2.42508,0.373089 3.17126,0.186544 l 0.83945,-2.14526 1.11926,0.466361 c -0.0933,0.09327 -0.83945,1.958716 -0.83945,2.051988 0.55963,1.119266 2.42508,2.518349 3.73089,2.611621 2.42508,0.186544 2.42508,-2.704893 3.54434,-2.051988 z"
     id="path393" />
  <path
     style="fill:#fa8973;fill-rule:evenodd"
     inkscape:connector-curvature="0"
     d="m 155.06188,58.045354 c 0.74618,0.279817 -1.11927,11.285933 -1.58563,12.591744 -0.46636,1.30581 -6.06269,6.43578 -6.06269,6.43578 l -4.0107,-9.607034 11.65902,-9.42049 z"
     id="path395" />
  <path
     style="fill:#b2b2b2"
     inkscape:connector-curvature="0"
     d="m 145.45485,92.649331 -0.46636,-0.09327 c -5.22325,-4.197247 -12.77829,-4.010703 -16.60245,-3.544342 -0.65291,0.09327 -0.83945,-1.119266 -0.18654,-1.212538 3.73088,-0.559634 12.49847,-0.559634 17.44189,3.730886 l 0.18655,0.83945 -0.37309,0.279817 z m 0.37309,6.435779 c -0.83945,0.279817 -1.39909,-2.331804 -7.18196,-5.316513 -7.27523,-3.637615 -10.16667,-2.238533 -9.98012,-3.824159 l 0.18654,-0.279817 0.37309,-0.186544 c 4.38379,0.559633 12.31193,3.171254 16.78899,8.58104 0.37309,0.46636 0.18654,1.025993 -0.18654,1.025993 z m -8.02141,1.02599 -0.46636,-0.0933 c -0.0933,0 -0.0933,-0.09327 -0.18655,-0.186542 -2.70489,-3.451071 -5.03669,-5.782875 -9.42049,-7.555046 -0.18654,-0.09327 -0.27981,-0.186545 -0.37308,-0.373089 -0.27982,-0.466361 0.27981,-1.025994 0.83945,-0.839449 4.0107,1.585627 7.55504,4.383792 9.98012,7.928134 0.0933,0.09327 0.0933,0.279817 0.0933,0.466361 0,0.186544 -0.0933,0.279817 -0.27982,0.466361 l -0.18654,0.18654 z"
     id="path397" />
  <path
     style="fill:#b2b2b2"
     inkscape:connector-curvature="0"
     d="m 93.688791,72.03618 0.373089,0.186545 c 6.62232,0.559633 12.03211,5.876147 14.45719,8.860856 l 0.83945,0 0.18654,-0.839449 c -2.3318,-2.891438 -8.76758,-8.954129 -15.203364,-9.233946 l -0.652905,0.466361 0,0.559633 z m -4.663609,4.477065 c 0.466361,0.746177 2.611621,-0.746178 8.954129,1.119266 7.741589,2.331804 8.954129,5.316514 9.793579,4.010703 l 0.0933,-0.279816 -0.18654,-0.373089 C 104.042,78.378688 96.580229,74.834345 89.491543,75.673795 c -0.373088,0 -0.652905,0.466361 -0.466361,0.83945 z m 5.036698,6.249235 0.373089,0.279817 0.279816,0 c 4.383792,-0.652906 7.648315,-0.746178 11.938835,1.025994 0.18655,0.09327 0.37309,0.09327 0.46636,0 0.46636,-0.186545 0.46636,-0.932722 0,-1.119266 -4.0107,-1.585627 -8.487764,-1.958716 -12.685011,-1.025994 -0.186545,0 -0.279817,0.09327 -0.373089,0.279816 -0.09327,0.09327 -0.09327,0.279817 -0.09327,0.466361 l 0.09327,0.09327 z"
     id="path399" />
  <path
     inkscape:connector-curvature="0"
     d="m 119.33864,82.669208 c 0.74618,-0.559633 1.30581,-0.746177 2.23853,-0.373089 0.93272,0.373089 1.39908,1.399083 1.02599,2.238532 -0.6529,1.492355 -2.9847,2.14526 -5.31651,2.891438 -1.02599,-2.238532 -2.14526,-4.383792 -1.49235,-5.876147 0.37308,-0.83945 1.39908,-1.119266 2.3318,-0.746177 0.83945,0.373088 1.11927,0.932721 1.21254,1.865443 z"
     id="path401" />
  <g
     style="fill-rule:evenodd"
     id="g163"
     transform="matrix(0.93272173,0,0,0.93272173,-215.75097,-502.20328)">
    <path
       inkscape:connector-curvature="0"
       d="m 350.36,609.16 c -0.8,-0.5 -3.3,-1.9 -3.3,-3.7 -0.5,2.7 2.6,4 2.9,4.1 l 0.4,-0.4 z"
       id="path403" />
    <path
       inkscape:connector-curvature="0"
       d="m 349.26,609.16 c -0.8,-0.5 -3.5,-1.7 -3.6,-3.4 -0.3,2.7 2.8,3.8 3.2,3.9 l 0.4,-0.5 z"
       id="path405" />
    <path
       inkscape:connector-curvature="0"
       d="m 351.86,609.56 c -0.7,-0.5 -3.2,-2.2 -3,-3.9 -0.7,2.7 2.2,4.2 2.6,4.4 l 0.4,-0.5 z"
       id="path407" />
    <path
       style="fill:#00cafd"
       inkscape:connector-curvature="0"
       d="m 347.46,620.56 c 1.7,1.1 4.1,2 6.4,2.1 l 1,0 c 7.5,-0.4 5.9,-10.4 1.2,-13.5 -5.8,-4 -18.1,5 -8.6,11.4 z"
       id="path409" />
    <path
       inkscape:connector-curvature="0"
       d="m 359.76,614.56 c -0.6,-2.2 -1.9,-4.3 -3.6,-5.5 -1.4,-0.9 -3.1,-1.1 -4.7,-0.8 -1,1 -1.6,2.3 -1.6,3.8 0,2.9 2.4,5.3 5.3,5.3 1.9,0 3.7,-1.1 4.6,-2.8 z"
       id="path411" />
    <path
       inkscape:connector-curvature="0"
       d="m 355.86,608.96 c -0.9,-0.5 -1.8,-0.8 -2.8,-0.8 -0.3,0.3 -0.5,0.7 -0.5,1.2 0,0.9 0.7,1.7 1.6,1.7 0.9,0 1.7,-0.8 1.7,-1.7 l 0,-0.4 z"
       id="path413" />
    <path
       style="fill:#ffffff"
       inkscape:connector-curvature="0"
       d="m 353.26,612.26 c 1.1,0 2.1,-0.9 2.1,-2 0,-1.1 -0.9,-2.1 -2.1,-2.1 -1.1,0 -2,0.9 -2,2.1 0,1.1 0.9,2 2,2 z"
       id="path415" />
    <path
       style="fill:#ffffff"
       inkscape:connector-curvature="0"
       d="m 353.96,618.06 c 0.6,0 1,-0.5 1,-1 0,-0.5 -0.5,-1 -1,-1 -0.6,0 -1,0.5 -1,1 0,0.5 0.4,1 1,1 z"
       id="path417" />
    <path
       style="fill:#00cafd"
       inkscape:connector-curvature="0"
       d="m 367.06,628.56 c 1.7,1.1 4.1,2 6.4,2.1 l 1,0 c 7.5,-0.4 5.9,-10.4 1.2,-13.5 -5.9,-3.9 -18.2,5 -8.6,11.4 z"
       id="path419" />
    <path
       inkscape:connector-curvature="0"
       d="m 379.56,624.26 c -0.3,-2.8 -1.8,-5.7 -3.9,-7.1 -0.9,-0.6 -1.9,-0.9 -3,-0.9 -1,0.8 -1.8,2 -2,3.4 -0.5,2.9 1.6,5.6 4.5,6 1.7,0.2 3.2,-0.4 4.4,-1.4 z"
       id="path421" />
    <path
       style="fill:#ffffff"
       inkscape:connector-curvature="0"
       d="m 374.26,617.06 c 1.1,0.2 1.9,1.2 1.7,2.3 -0.2,1.1 -1.2,1.9 -2.4,1.7 -1.1,-0.2 -1.9,-1.2 -1.7,-2.3 0.2,-1.1 1.2,-1.9 2.4,-1.7 z"
       id="path423" />
    <path
       style="fill:#ffffff"
       inkscape:connector-curvature="0"
       d="m 374.26,624.06 c 0.6,0.1 0.9,0.6 0.9,1.2 -0.1,0.6 -0.6,1 -1.2,0.9 -0.6,-0.1 -1,-0.6 -0.9,-1.2 0.1,-0.6 0.7,-1 1.2,-0.9 z"
       id="path425" />
    <path
       inkscape:connector-curvature="0"
       d="m 370.56,612.86 c -1.9,0.1 -3.4,0.7 -3.4,1.3 0,0.6 1.6,1 3.5,1 1.9,-0.1 3.4,-0.7 3.4,-1.3 -0.1,-0.6 -1.6,-1.1 -3.5,-1 z"
       id="path427" />
    <path
       inkscape:connector-curvature="0"
       d="m 360.16,608.46 c 1.4,1.3 2.2,2.7 1.7,3.2 -0.4,0.5 -1.9,-0.2 -3.3,-1.5 -1.4,-1.3 -2.2,-2.7 -1.7,-3.1 0.5,-0.6 1.9,0.1 3.3,1.4 z"
       id="path429" />
    <path
       inkscape:connector-curvature="0"
       d="m 377.96,620.66 c 0.9,0.3 3.6,1.5 4.9,0.4 -1.8,2 -4.7,0.4 -5,0.2 l 0.1,-0.6 z"
       id="path431" />
    <path
       inkscape:connector-curvature="0"
       d="m 378.66,621.56 c 0.9,0.4 3.4,1.7 4.9,0.7 -2,1.9 -4.7,0.1 -5,-0.1 l 0.1,-0.6 z"
       id="path433" />
    <path
       inkscape:connector-curvature="0"
       d="m 376.76,619.76 c 0.9,0.3 3.7,1.2 5,0 -1.7,2.2 -4.7,0.8 -5,0.6 l 0,-0.6 z"
       id="path435" />
  </g>
</svg>
