<?xml version="1.0" encoding="UTF-8" standalone="no"?>
<!-- Created with Inkscape (http://www.inkscape.org/) -->

<svg
   xmlns:dc="http://purl.org/dc/elements/1.1/"
   xmlns:cc="http://creativecommons.org/ns#"
   xmlns:rdf="http://www.w3.org/1999/02/22-rdf-syntax-ns#"
   xmlns:svg="http://www.w3.org/2000/svg"
   xmlns="http://www.w3.org/2000/svg"
   xmlns:sodipodi="http://sodipodi.sourceforge.net/DTD/sodipodi-0.dtd"
   xmlns:inkscape="http://www.inkscape.org/namespaces/inkscape"
   id="svg6018"
   height="49mm"
   width="57mm"
   version="1.1"
   viewBox="0 0 201.96851 173.62203"
   inkscape:version="0.91 r13725"
   sodipodi:docname="cat_12.svg">
  <defs
     id="defs45" />
  <sodipodi:namedview
     pagecolor="#ffffff"
     bordercolor="#666666"
     borderopacity="1"
     objecttolerance="10"
     gridtolerance="10"
     guidetolerance="10"
     inkscape:pageopacity="0"
     inkscape:pageshadow="2"
     inkscape:window-width="1466"
     inkscape:window-height="789"
     id="namedview43"
     showgrid="false"
     inkscape:zoom="1.3592744"
     inkscape:cx="-149.88489"
     inkscape:cy="86.811028"
     inkscape:window-x="0"
     inkscape:window-y="0"
     inkscape:window-maximized="0"
     inkscape:current-layer="svg6018" />
  <metadata
     id="metadata6023">
    <rdf:RDF>
      <cc:Work
         rdf:about="">
        <dc:format>image/svg+xml</dc:format>
        <dc:type
           rdf:resource="http://purl.org/dc/dcmitype/StillImage" />
        <dc:title />
      </cc:Work>
    </rdf:RDF>
  </metadata>
  <g
     style="fill:#676766"
     transform="matrix(0.88839519,0,0,0.88839519,-518.75931,-760.4127)"
     id="g527">
    <path
       style="fill-rule:evenodd"
       inkscape:connector-curvature="0"
       d="m 789.1,945.3 c 6.3,31.3 -63.7,66.3 -119.3,82.4 -3.4,1 -9.6,2.5 -13.1,2.2 l -1.6,-0.3 c -2,5.8 -10.1,4.3 -10.9,0.5 -1.1,-5.4 0.4,-2.4 -3.7,-7.3 -8.9,-10.6 -9.5,-15.4 -13.1,-27.7 -5.6,-0.9 -19.1,-3.7 -19.1,-4.8 0,-1.1 10.8,-10.9 13.4,-13.4 l -6.1,-20.7 c -2.3,-4.3 1.6,-12 7.1,-9.2 0,-0.1 0,-0.3 0.1,-0.4 -4.3,-2.8 -19.1,-12.2 -19.3,-13.4 -0.2,-1.4 17.8,-8.1 20.2,-8.5 0.7,-0.1 2.3,0.1 4.2,0.5 2.9,-0.4 6.7,-1.3 8.2,-5.1 -0.5,4.1 -3,6.3 0.9,2.2 0.9,-0.9 2,-3.3 2,-3.3 0.5,0.3 0.7,3.1 -0.9,5.4 1.4,-0.2 4.9,-3.2 4.6,-5.8 0.4,0.3 2.3,4.8 -1.8,9 l 0.6,-0.1 c 20.9,-13.2 54.6,-26.1 76.6,-30.5 2.3,-1.4 4.9,-2.7 7.3,-3.6 5.8,-2.1 9.7,-3.6 14.5,-2.3 -0.7,-1.6 -2.8,-3.4 -4.1,-4.2 -2.9,-1.9 -16.7,-5.7 -9.6,-12.5 6.2,-6 9.2,5.4 18.1,10 1.6,0.8 3.1,1.6 4.8,2.2 2.7,1.2 4.3,1.1 4.8,2.4 0.9,2.3 -1.4,3.4 -3,4.6 -1.6,1.2 -5.4,4.2 -8.3,6.9 6.7,3.9 15.9,9.2 24.1,15 3.7,-1.5 7.1,-3.9 9.9,-6.7 4,-4.1 7.2,-11.7 5.5,-17.5 -1.8,-6 -4.5,-4.2 -5.8,-4.4 -1.8,-0.3 -6,-3.9 -3.7,-6.9 5.7,-7 13.3,-0.1 16,5.8 3.9,8.6 1.3,18.2 -4.3,25.3 -2.9,3.6 -6.7,6.8 -11.1,9.2 5,4 9.1,8.1 11,11.9 1.7,-0.3 4.5,0.2 5.7,3.1 0.7,1.5 0.1,2.8 0.1,2.8 1.5,3.3 0.8,5.6 -0.9,7.2 z"
       id="path529" />
    <path
       inkscape:connector-curvature="0"
       d="m 649.6,1039.6 c -5.6,0 -10.3,-3.4 -11.2,-8.2 -0.2,-1 -0.3,-1.7 -0.4,-2.3 -0.5,-0.5 -1.1,-1.3 -2.1,-2.4 -8.7,-10.4 -10.4,-16.3 -13.2,-26.1 l 0,-0.1 c -2.7,-0.5 -5.7,-1.1 -8.3,-1.7 -6.7,-1.6 -12,-2.8 -12.1,-8.2 l 0,-0.1 c 0,-2.7 0,-3.6 12.6,-15.2 L 610,958.6 c -1.7,-3.7 -1.3,-8.5 1,-12.3 -12.8,-8.4 -12.9,-9.3 -13.4,-11.9 -0.9,-5.6 4.5,-7.8 12.8,-11.1 2.6,-1 9.8,-3.8 12.2,-4.3 l 0.1,0 c 1.3,-0.2 2.7,-0.1 5.3,0.4 2.2,-0.4 2.4,-1 2.5,-1.2 0.8,-2.1 2.7,-3.4 4.8,-3.7 1.4,-1.1 3.2,-1.4 4.9,-1.1 2.2,-1 4.7,-0.5 6.5,1.1 0.7,0.7 1.3,1.5 1.7,2.4 20.1,-10.8 47.4,-21.1 67.5,-25.3 2.5,-1.5 5.1,-2.7 7.4,-3.6 l 0.7,-0.3 c -2.7,-1.9 -5,-4.3 -5.6,-7.8 -0.4,-2.4 -0.1,-6 3.7,-9.7 2.3,-2.2 4.9,-3.4 7.6,-3.4 4.8,0 8,3.5 10.8,6.6 2,2.2 4.1,4.4 6.6,5.7 1.7,0.9 3.1,1.5 4.4,2 l 0.1,0 c 0.7,0.3 1.3,0.5 1.8,0.7 1.8,0.6 4.8,1.6 6.1,5 1.6,4.3 0.1,8 -4.4,11.2 -0.2,0.1 -0.4,0.3 -0.6,0.4 -0.4,0.3 -0.9,0.7 -1.6,1.2 4.5,2.7 9.5,5.7 14.2,8.9 1.9,-1.1 3.6,-2.4 5,-3.9 2.7,-2.8 5,-8.4 4,-11.7 l 0,-0.1 c -0.3,0 -0.6,0 -0.8,-0.1 -3.6,-0.5 -7.4,-3.7 -8.9,-7.4 -1.3,-3.2 -0.8,-6.5 1.3,-9.2 3.5,-4.3 7.4,-5.2 10.1,-5.2 7.1,0 13.3,6.3 16,12.2 4.5,9.8 2.6,21.9 -5,31.5 -1.7,2.2 -3.8,4.3 -6.1,6.1 1.9,1.9 3.5,3.7 4.7,5.5 3.5,0.8 6.3,3.1 7.8,6.5 0.6,1.4 0.9,3 0.8,4.6 1.2,3.4 0.9,6.7 -0.7,9.5 1.5,16.2 -11.8,33.1 -39.6,50.4 -22.5,14 -53.3,27.2 -84.3,36.2 -2.5,0.7 -8.6,2.4 -13.3,2.5 -2,2.4 -5.1,3.7 -8.5,3.7 z m -30.4,-52.1 c 3.1,0.7 6.5,1.3 9.1,1.7 2.3,0.4 4.2,2 4.9,4.3 0.4,1.3 0.8,2.6 1.1,3.8 2.7,9.4 3.8,13.3 10.8,21.7 1,1.1 1.6,1.8 2,2.3 1.6,1.8 2.3,2.9 2.6,5.5 l 0,0.3 c 1.2,-2.3 3.7,-3.6 6.3,-3.2 l 1.3,0.2 c 2.4,0.1 7.2,-1 10.7,-2 59.2,-17.2 120,-50.9 115.1,-75.5 -0.4,-1.9 0.2,-3.9 1.5,-5.3 0,-0.1 -0.1,-0.3 -0.2,-0.5 -0.4,-0.8 -0.6,-1.7 -0.6,-2.6 -2.2,0 -4.1,-1.3 -5.1,-3.3 -0.9,-1.8 -3.3,-5.1 -9.4,-9.9 -1.1,-0.9 -1.9,-2.2 -2.1,-3.6 -1.4,0.1 -2.8,-0.2 -4,-1.1 -7.7,-5.4 -16.5,-10.6 -23,-14.3 l -0.6,-0.4 c -1.6,-1 -2.7,-2.6 -2.9,-4.5 -0.2,-1.5 0.3,-3.1 1.2,-4.3 -0.5,-0.1 -1,-0.2 -1.5,-0.2 -2.1,0 -4.6,0.9 -8.1,2.2 l -0.7,0.3 c -1.9,0.7 -4.1,1.8 -6.3,3.1 -0.6,0.4 -1.3,0.6 -1.9,0.8 -22.5,4.5 -55.3,17.5 -74.6,29.7 -0.8,0.5 -1.7,0.8 -2.6,0.9 l -0.6,0.1 c -2.4,0.2 -4.7,-1 -5.9,-3.1 -0.8,0.1 -1.8,0 -2.6,-0.3 -1.3,0.4 -2.8,0.8 -4.4,1 -0.7,0.1 -1.3,0.1 -2,-0.1 -1.2,-0.3 -1.9,-0.4 -2.2,-0.4 -1.8,0.5 -5.9,2 -9.6,3.5 2.5,1.6 5.8,3.8 10.2,6.6 l 1.1,0.7 c 2,1.3 3.1,3.7 2.7,6 -0.2,1.9 -1.2,3.5 -2.8,4.5 -1.5,0.9 -3.2,1.1 -4.8,0.6 -0.1,0.3 -0.1,0.5 -0.1,0.7 0.2,0.3 0.3,0.7 0.4,1.1 l 6.1,20.7 c 0.6,2.2 0,4.6 -1.7,6.1 -3,2.6 -5.1,4.6 -6.8,6.2 z"
       id="path531" />
  </g>
  <path
     id="path535"
     d="m 182.27333,79.387273 c 5.59689,27.806767 -56.59077,58.900597 -105.985542,73.203767 -3.020543,0.88839 -8.528594,2.22098 -11.637977,1.95447 l -1.421432,-0.26652 c -1.77679,5.15269 -8.972791,3.8201 -9.683508,0.4442 -0.977234,-4.79734 0.355358,-2.13215 -3.287062,-6.48529 -7.906717,-9.41699 -8.439754,-13.68129 -11.637977,-24.60855 -4.975013,-0.79955 -16.968348,-3.28706 -16.968348,-4.26429 0,-0.97724 9.594668,-9.68351 11.904496,-11.9045 L 28.136769,89.070781 c -2.043309,-3.8201 1.421432,-10.660743 6.307606,-8.173236 0,-0.08884 0,-0.266519 0.08884,-0.355358 C 30.713115,78.05468 17.564866,69.703766 17.387187,68.637691 17.209508,67.393938 33.200622,61.44169 35.33277,61.086332 c 0.621877,-0.08884 2.043309,0.08884 3.73126,0.444198 2.576346,-0.355358 5.952248,-1.154914 7.28484,-4.530816 -0.444197,3.642421 -2.665185,5.59689 0.799556,1.95447 0.799556,-0.799556 1.77679,-2.931704 1.77679,-2.931704 0.444198,0.266518 0.621877,2.754025 -0.799555,4.797334 1.243753,-0.177679 4.353136,-2.842865 4.086618,-5.152692 0.355358,0.266518 2.043309,4.264296 -1.599112,7.995556 l 0.533037,-0.08884 c 18.56746,-11.726817 48.506378,-23.187115 68.051076,-27.096054 2.0433,-1.243753 4.35313,-2.398667 6.48528,-3.198222 5.15269,-1.86563 8.61743,-3.198223 12.88173,-2.043309 -0.62188,-1.421432 -2.48751,-3.020544 -3.64242,-3.73126 -2.57635,-1.687951 -14.8362,-5.063853 -8.52859,-11.10494 5.50805,-5.330371 8.17323,4.797334 16.07995,8.883952 1.42143,0.710716 2.75403,1.421432 4.2643,1.954469 2.39866,1.066075 3.8201,0.977235 4.26429,2.132149 0.79956,2.043309 -1.24375,3.020544 -2.66518,4.086618 -1.42143,1.066074 -4.79734,3.73126 -7.37368,6.129927 5.95225,3.464741 14.12548,8.173235 21.41032,13.325927 3.28706,-1.332592 6.30761,-3.464741 8.79511,-5.952247 3.55359,-3.642421 6.39645,-10.394224 4.88618,-15.546916 -1.59911,-5.330371 -3.99778,-3.73126 -5.15269,-3.908939 -1.59912,-0.266519 -5.33038,-3.464741 -3.28707,-6.129927 5.06386,-6.218766 11.81566,-0.08884 14.21433,5.152692 3.46474,7.640199 1.15491,16.168793 -3.8201,22.476399 -2.57635,3.198222 -5.95225,6.041087 -9.86119,8.173235 4.44198,3.553581 8.0844,7.196001 9.77235,10.571903 1.51027,-0.266518 3.99778,0.177679 5.06385,2.754025 0.62188,1.332593 0.0888,2.487507 0.0888,2.487507 1.33259,2.931704 0.71072,4.975013 -0.79956,6.396445 z"
     inkscape:connector-curvature="0"
     style="fill:#fefefe;fill-rule:evenodd" />
  <path
     style="fill:#fefefe"
     id="path537"
     d="m 58.342205,162.27454 c -4.530815,0 -8.350914,-2.75402 -9.15047,-6.57412 -0.177679,-1.06607 -0.355358,-1.77679 -0.355358,-2.30983 -0.444198,-0.4442 -1.066074,-1.15491 -1.95447,-2.30983 -7.640198,-9.15047 -9.06163,-14.03664 -11.549137,-22.92059 -0.08884,-0.17768 -0.08884,-0.4442 -0.177679,-0.62188 -2.487507,-0.4442 -5.419211,-1.06607 -7.906717,-1.59911 -5.774569,-1.33259 -9.950026,-2.30983 -10.038866,-6.48528 l 0,-0.0888 c 0,-2.13215 0,-2.84287 11.371459,-13.23709 L 24.050151,90.758732 C 22.628719,87.649348 22.895237,83.74041 24.849707,80.631026 25.027386,80.364508 25.116225,80.186829 25.293904,79.92031 13.567088,72.191272 13.389409,71.480556 13.034051,69.437247 c -0.710716,-4.353136 3.64242,-6.041087 10.838421,-8.972791 3.198223,-1.243754 8.883952,-3.375902 10.660742,-3.73126 0.444198,-0.08884 0.799556,-0.08884 1.154914,-0.08884 0.799556,0 1.86563,0.08884 3.464741,0.444198 2.576346,-0.444198 2.931704,-1.243753 3.109383,-1.687951 0.621877,-1.599111 2.132149,-2.665186 3.73126,-2.754025 1.154914,-0.977235 2.665186,-1.243753 4.086618,-0.888395 1.687951,-0.888395 3.73126,-0.621877 5.063853,0.710716 0.799555,0.710716 1.243753,1.687951 1.599111,2.754025 17.945583,-9.683508 42.642969,-19.189336 60.766236,-22.831756 2.22098,-1.332593 4.53081,-2.398667 6.57412,-3.198223 l 0.71072,-0.266519 c 0.53303,-0.177679 1.15491,-0.444197 1.68795,-0.621876 -2.84287,-1.599112 -5.50805,-3.908939 -6.12993,-7.284841 -0.35536,-1.86563 -0.0888,-4.797334 3.02054,-7.817878 1.86563,-1.865629 3.90894,-2.754025 6.12993,-2.754025 3.90894,0 6.48529,2.842865 8.97279,5.59689 1.86563,1.954469 3.73126,4.086618 6.12993,5.241532 1.51027,0.799555 2.75402,1.332592 3.90894,1.86563 0.71071,0.266518 1.24375,0.444197 1.77679,0.621876 1.42143,0.444198 3.8201,1.243753 4.88617,3.908939 1.95447,5.063853 -2.22099,7.906717 -3.64242,8.883952 -0.17768,0.08884 -0.35536,0.266519 -0.53304,0.355358 -0.53303,0.355358 -1.42143,1.066074 -2.39866,1.86563 4.44197,2.576346 9.41699,5.685729 14.12548,8.883952 1.86563,-1.066074 3.64242,-2.398667 5.15269,-3.908939 2.57635,-2.665186 4.79734,-7.906717 3.8201,-11.193779 -0.0888,-0.266519 -0.17768,-0.533038 -0.26652,-0.710717 l -1.24375,0 c -2.84286,-0.355358 -5.95225,-3.020543 -7.196,-6.041087 -0.97724,-2.487506 -0.62188,-5.152692 0.97723,-7.28484 2.84287,-3.553581 6.12993,-4.264297 8.35092,-4.264297 5.95225,0 11.10494,5.330371 13.41477,10.305384 3.90893,8.439754 2.22098,18.833978 -4.35314,27.096053 -1.68795,2.132149 -3.73126,4.175458 -6.04109,5.952248 2.04331,1.954469 3.73126,3.908939 4.97502,5.685729 2.9317,0.533037 5.41921,2.487507 6.57412,5.330371 0.53304,1.243754 0.71072,2.487507 0.62188,3.8201 1.06607,2.931704 0.79955,5.774568 -0.62188,8.084396 1.51027,14.125483 -10.12771,28.961683 -34.73625,44.242083 -19.98889,12.34869 -47.17379,24.07551 -74.714038,32.07106 -2.220988,0.62188 -7.817878,2.13215 -11.993335,2.22099 -1.599111,2.04331 -4.175457,3.19822 -7.107162,3.19822 z m -0.533037,-8.97279 c 0.177679,0 0.355358,0.0888 0.533037,0.0888 0.533038,0 0.621877,-0.17768 0.710717,-0.4442 0.710716,-2.0433 2.754025,-3.28706 4.886173,-2.9317 l 1.243753,0.17768 c 2.398667,0.0888 6.840643,-0.97723 9.861187,-1.86563 C 127.99239,132.9575 182.36217,102.57439 177.9202,80.275668 c -0.26652,-1.510272 0.17768,-3.020543 1.33259,-4.086618 l 0.17768,-0.177679 c 0,0 0,-0.355358 -0.35536,-1.066074 -0.26652,-0.621876 -0.4442,-1.332593 -0.4442,-1.954469 0,-0.266519 0,-0.621877 0.0888,-0.888395 -1.86563,0.266518 -3.8201,-0.621877 -4.70849,-2.398667 -0.8884,-1.687951 -3.10938,-4.708495 -8.61743,-9.150471 -1.06608,-0.888395 -1.68796,-2.132148 -1.68796,-3.553581 -1.33259,0.355358 -2.75402,0.177679 -3.82009,-0.621876 -6.84065,-4.797334 -14.74736,-9.416989 -20.52193,-12.792891 l -0.53304,-0.355358 c -1.24375,-0.710716 -2.04331,-1.95447 -2.22099,-3.375902 -0.17768,-1.421432 0.35536,-2.842864 1.42143,-3.73126 0.17768,-0.177679 0.35536,-0.355358 0.62188,-0.533037 -0.35536,0 -0.79956,-0.08884 -1.15491,-0.177679 -0.71072,-0.177679 -1.3326,-0.266518 -2.04331,-0.266518 -2.04331,0 -4.35314,0.799555 -7.55136,1.954469 l -0.62188,0.266519 c -1.77679,0.621876 -3.8201,1.68795 -5.68573,2.842864 -0.44419,0.266519 -0.97723,0.444198 -1.42143,0.533037 -20.07773,3.997779 -49.305932,15.635756 -66.540799,26.563017 -0.621877,0.355358 -1.243753,0.621876 -1.95447,0.621876 l -0.533037,0.08884 c -1.86563,0.177679 -3.64242,-0.799556 -4.441976,-2.487507 -0.08884,-0.177679 -0.08884,-0.266518 -0.177679,-0.444197 -0.799555,0.177679 -1.954469,0.177679 -2.842864,-0.177679 -1.243753,0.444197 -2.576346,0.710716 -3.997779,0.888395 -0.533037,0.08884 -0.977234,0 -1.510271,-0.08884 -1.332593,-0.266518 -1.95447,-0.355358 -2.220988,-0.355358 -1.687951,0.444198 -6.485285,2.220988 -10.394224,3.820099 2.309827,1.599112 5.59689,3.73126 10.394224,6.840643 l 0.977234,0.621877 c 1.510272,0.977235 2.309828,2.754025 1.95447,4.530815 -0.08884,1.421433 -0.888395,2.665186 -2.132149,3.375902 -1.332592,0.799556 -2.931704,0.888395 -4.264297,0.177679 -0.444197,0.444198 -0.710716,1.599112 -0.444197,2.043309 0.177679,0.266519 0.266518,0.533037 0.355358,0.799556 l 5.419211,18.389781 c 0.444197,1.59911 0,3.3759 -1.243754,4.53081 -3.198222,2.93171 -5.41921,4.97502 -7.018322,6.57413 3.109383,0.71072 6.929483,1.51027 9.772347,1.95447 1.687951,0.26652 3.109384,1.51027 3.642421,3.10938 0.355358,1.15492 0.621876,2.30983 0.977234,3.3759 2.398667,8.43976 3.375902,11.99334 9.772347,19.63354 0.888396,1.06607 1.421433,1.59911 1.776791,2.04331 1.332593,1.51027 1.86563,2.30982 2.132148,4.35313 0,0.71072 0.08884,1.15492 0.177679,1.77679 z M 142.91743,30.436698 c 0.0888,0.533037 0.0888,1.066074 0,1.599111 0.4442,-0.355358 0.88839,-0.710716 1.24375,-0.977234 -0.35536,-0.266519 -0.79955,-0.444198 -1.24375,-0.621877 z M 129.50266,19.687116 c 0.17768,0.08884 0.35536,0.266519 0.53304,0.444198 -0.17768,-0.266519 -0.35536,-0.355358 -0.53304,-0.444198 l 0,0 z"
     inkscape:connector-curvature="0" />
  <path
     style="fill:#6b6baa;fill-rule:evenodd"
     inkscape:connector-curvature="0"
     d="m 182.18449,79.031913 c 6.12993,27.895607 -56.32425,59.167117 -105.896704,73.559117 -3.020543,0.8884 -8.528593,2.22099 -11.637977,1.95447 l -1.421432,-0.26651 c -1.77679,5.15269 -8.972791,3.8201 -9.683507,0.44419 -0.977235,-4.79733 0.355349,-2.13215 -3.287063,-6.48528 -4.175457,-4.97501 -7.196001,-9.59467 -9.061631,-15.81344 L 36.221163,115.1896 c 2.931704,9.50583 7.817878,15.99111 14.392002,23.36479 l 1.776791,1.86563 0.710725,4.97501 c 0.355349,0.62188 2.842864,1.42144 3.997778,1.42144 3.109383,0.26651 5.685729,-1.15492 6.751804,-4.2643 2.487506,0.4442 3.908938,0.35536 6.485285,0 17.234866,-2.39867 49.128252,-17.41255 64.586332,-25.94114 2.57634,-1.42143 15.10272,-8.61743 16.79067,-10.03887 l 22.29872,-23.364789 c 1.15491,-1.154914 5.24153,-1.510272 8.17323,-4.175458 z M 31.24615,90.936409 37.287238,113.05745 c -1.421433,-0.4442 -2.309828,-1.06608 -2.754026,-2.57635 L 27.870249,87.738186 c 0.533028,1.86563 1.421432,2.665186 3.375901,3.198223 z"
     id="path1343" />
  <path
     style="fill:#9898ff;fill-rule:evenodd"
     inkscape:connector-curvature="0"
     d="m 138.29777,37.988055 c 11.81566,7.018322 37.84564,21.410324 40.42198,32.071067 2.30983,0.444197 2.66519,-0.177679 4.2643,2.931704 3.99778,7.995557 -7.6402,9.061631 -8.97279,10.660742 1.24375,18.833982 -93.992214,63.875612 -110.161006,59.344802 -2.132149,7.46252 -15.191558,4.17545 -11.460298,-2.22099 C 33.289459,120.16461 36.487682,114.12352 31.24615,91.291767 24.316668,89.870334 28.225607,77.69932 34.533212,80.897543 36.132324,60.730972 133.94463,24.750967 138.29777,37.988055 Z"
     id="path1345" />
  <g
     style="fill:#6b6baa"
     id="g13"
     transform="matrix(0.88839519,0,0,0.88839519,-189.60001,-380.65041)">
    <path
       inkscape:connector-curvature="0"
       d="m 401.89,493.33 c 1.6,1.4 3.1,2.7 4.4,4.1 -4.8,-1.8 -13.1,1 -17.2,2.5 l -3.7,-2.3 c 0.2,-0.6 0.4,-0.7 1,-0.8 4.3,-0.9 10.5,-3.6 15.5,-3.5 z"
       id="path1347" />
    <path
       inkscape:connector-curvature="0"
       d="m 387.09,491.93 c 7.7,6 16.2,19.8 6,27 -3.8,2.7 -2.3,3.5 -9.4,4.6 -3.1,0.5 -14.9,-12.4 -10.6,-21.7 0.2,-0.3 1.7,-3 1.7,-2.9 l 12.3,-7 z"
       id="path1349" />
    <path
       inkscape:connector-curvature="0"
       d="m 258.39,548.43 c 1.5,1 1.6,6.2 2.3,8.4 2,6.5 -0.30001,14.1 10,12.5 5,-0.8 4.8,-2.6 7.5,-5.2 0.19999,2.7 2.6,9.5 3.3,10.4 -0.29999,-4.5 -0.9,-7.4 -0.7,-9 0.3,-2 0.5,-2.3 1.1,-4.5 0.2,-0.4 0.4,-0.9 1,-1.6 0.5,-0.6 0.9,-1.3 1.4,-1.8 3.7,-3.8 7.3,-7.1 12.8,-8 4.7,-0.9 15.3,-1.9 16.1,-1.5 9,-0.1 16.2,4.6 16.3,10.3 3.1,3.5 15.2,1.6 18.7,0.5 5.5,-1.7 11.9,-1.9 6.8,-9.1 -4.4,-6.3 -14,-6.4 0.2,-11.6 6.7,-2.4 10.7,0.2 15.6,1.9 1.9,-1.9 5.7,-3.7 9.9,-4.9 0.7,-0.2 1.3,-0.4 2,-0.5 5.8,-1.5 12,-1.9 14.8,-0.4 3.3,-2.2 6.2,-4.8 7.4,-7.7 2.8,-6.5 3.1,-5.5 9.2,-9.4 2.9,-1.8 4.5,-3.7 4.5,-3.8 -0.4,-5.8 -17.7,7.8 -19.4,8.8 -8.2,4.5 -12.4,8.2 -22.5,7 -11.3,-1.3 -44.7,-5.3 -55.1,-1 -11.9,4.8 -13.8,10.1 -27.6,8.3 -10.9,-1.4 -15.3,1.6 -25.6,4.7 -1.9,0.6 -10.5,4.5 -10.2,6.8 -0.1,0.1 0.1,0.4 0.2,0.4 z"
       id="path1351" />
  </g>
  <g
     style="fill-rule:evenodd"
     id="g18"
     transform="matrix(0.88839519,0,0,0.88839519,-189.60001,-380.65041)">
    <path
       inkscape:connector-curvature="0"
       d="m 302.09,543.53 c 3.2,-1.2 10.5,2.4 15.1,4.7 6.4,1 11.4,4.6 12.1,8.9 4.1,0.5 9.1,0.4 13.3,-0.6 l 2.2,-0.6 c -2.1,-0.5 -3.5,-1.6 -3.9,-3 -0.8,-2.5 0.7,-4.7 3.1,-6.5 l 0.1,0 c -1.5,0.1 -3.3,0.5 -5.5,1 -0.3,0.1 -0.6,0.1 -0.9,0.2 -4.1,-2.5 7,-12.6 20.9,-13.7 3.6,0.6 8.9,2.9 14.8,4.1 2,-1.1 4.5,-2.2 7.2,-2.9 0.7,-0.2 1.3,-0.4 2,-0.6 4.8,-1.2 9.8,-1.7 13,-1 2.1,-1.8 4.1,-4.2 5.9,-7.2 3.9,-6.4 3.3,-6.1 11.7,-10 5.2,-2.5 7.3,-5.9 6.2,-8.5 -1.3,-3.1 -4.4,-3.4 -6,-3 -3.3,0.8 -15.5,9 -16.1,12.1 -0.9,4.6 -1.7,2.2 -6.5,2.2 3.1,-7.7 3.8,-16.8 -0.8,-25.1 -4.5,-8.1 -13.3,-12.6 -21.8,-16.4 0.7,-2.3 9.6,-9.4 12.3,-11.4 1.6,-1.2 3.9,-2.3 3,-4.6 -0.5,-1.2 -2.1,-1.2 -4.8,-2.4 -1.6,-0.7 -3.2,-1.4 -4.8,-2.2 -8.9,-4.6 -11.9,-16 -18.1,-10 -2.6,2.5 -3.9,5.8 3.7,9.8 2,1 4.2,1.7 5.9,2.8 1.2,0.8 3.3,2.6 4.1,4.2 -4.8,-1.3 -8.7,0.2 -14.5,2.3 -4.5,1.6 -9.5,4.8 -12.6,7.1 -3.7,2.8 -6.1,5.7 -6.4,10.2 -0.4,5.6 8.7,9.4 10.3,10.5 -3.2,6.1 -11.9,5.6 -18.5,6.5 -5.9,0.8 -2.8,-2.6 -4.6,-5 -1.9,-2.4 -7.5,-2.3 -11.2,-0.1 -21.5,12.6 -12,13.6 -17.5,20.6 -2.3,2.9 -6.4,8.1 -4.1,11.3 l 11.7,16.3 z"
       id="path1353" />
    <path
       style="fill:#6c6c6c"
       inkscape:connector-curvature="0"
       d="m 368.89,453.33 c -4.9,-4.5 -7.7,-9.9 -11.7,-7.5 -0.9,2 0.7,5 3.6,7 3.2,2.2 6.8,2.4 8.1,0.5 z"
       id="path1355" />
    <path
       style="fill:#6c6c6c"
       inkscape:connector-curvature="0"
       d="m 417.79,513.03 c 1.7,-1.8 2.2,-3.7 1.5,-5.3 -1.3,-3.1 -4.4,-3.4 -6,-3 -0.4,0.1 -1,0.3 -1.6,0.7 -2.8,1.4 -2.3,5.8 -1.7,7 0.6,1.1 5,2.5 7.8,0.6 z"
       id="path1357" />
  </g>
  <path
     style="fill:#ff0000"
     inkscape:connector-curvature="0"
     d="M 76.731984,101.68599 C 77.176182,97.865891 76.643144,93.779273 75.488231,89.514976 74.244477,85.073 72.112329,80.364506 69.358304,75.478332 l 4.441976,-3.020543 c 3.109383,5.41921 5.419211,10.660742 6.840643,15.724595 1.510272,5.241531 2.043309,10.216544 1.510272,15.013876 l -5.419211,-1.51027 z"
     id="path1359" />
  <g
     style="fill-rule:evenodd"
     id="g24"
     transform="matrix(0.88839519,0,0,0.88839519,-189.60001,-380.65041)">
    <path
       inkscape:connector-curvature="0"
       d="m 277.19,562.03 c 1.5,-0.2 3.1,-0.6 4.6,-1.2 2.5,-4.8 9.6,-10 15.2,-11.4 4.5,-5.8 7.2,-13.2 6.5,-20.8 -1.4,-17.1 -19.1,-29.7 -33,-28.5 l -0.2,0 c 4,-4.2 2.1,-8.7 1.8,-9 0.4,2.6 -3.1,5.6 -4.6,5.8 1.5,-2.4 1.3,-5.2 0.9,-5.4 0,0 -1.1,2.4 -2,3.3 -3.8,4.1 -1.3,1.9 -0.9,-2.2 -1.5,3.8 -5.3,4.7 -8.2,5.1 -1.9,-0.4 -3.5,-0.7 -4.2,-0.5 -2.4,0.4 -20.4,7.2 -20.2,8.5 0.1,0.6 3.7,3.2 7.9,6 l 0.1,0 c 1.2,0.8 2.6,1.7 3.8,2.5 l 0.39999,0.3 0.4,0.3 0.1,0 0.4,0.2 0.1,0.1 0.7,0.5 0.2,0.1 0.20001,0.1 0.19999,0.1 0.2,0.1 0.3,0.2 0.1,0.1 0.3,0.2 0.1,0.1 0.30001,0.2 0.1,0.1 0.3,0.2 0.3,0.2 0.30001,0.2 0.1,0 0.3,0.2 0.10001,0.1 0.19999,0.1 0.1,0.1 0.20001,0.1 0.1,0.1 0.1,0.1 0.2,0.1 0.10001,0.1 0.19999,0.1 0.10001,0.1 0.2,0.1 0.1,0.1 0.20001,0.1 0.2,0.1 0.19999,0.1 0.2,0.1 0.10001,0.1 0.1,0.1 0.1,0 0.10001,0.1 0.1,0 0.10001,0 0.1,0 0.1,0.1 c -0.59999,4 -0.59999,8.4 -0.3,13 0.40001,4.6 1.2,8.9 2.4,12.8 l -0.10001,0 -0.3,0.3 -0.1,0.1 -0.10001,0.1 -0.39999,0.3 c -0.70001,0.7 -1.8,1.6 -2.9,2.6 l -0.1,0.1 -0.3,0.3 -0.80001,0.8 -0.19999,0.2 -0.30001,0.3 -0.3,0.2 -0.1,0.1 -1.1,1 -0.39999,0.3 -0.3,0.3 -0.10001,0.1 -0.3,0.3 -0.7,0.7 -0.2,0.2 -0.19999,0.2 -0.40001,0.3 -0.29999,0.3 -0.10001,0.1 -0.3,0.3 -0.1,0.1 -0.29999,0.3 c -3.7,3.5 -6.8,6.6 -6.8,7.2 0,1.4 18.9,5.1 21.3,5.1 0.79999,0 2.5,-0.6 4.5,-1.4 3,-0.3 7.3,-0.4 9.8,3.3 -1.2,-3.9 -4.2,-5.6 0.4,-2.3 1,0.7 2.6,2.9 2.6,2.9 0.3,0.2 0,-3.1 -2,-5.2 1.4,-0.1 5.5,2.2 5.6,4.8 0,0.7 1.1,-4.5 -2.9,-7.8 z"
       id="path1361" />
    <path
       style="fill:#fa8973"
       inkscape:connector-curvature="0"
       d="m 243.09,561.03 c 0,0.9 12.8,3.4 14.4,3.4 1.6,0 9.6,-4 9.6,-4 l -8.9,-8.3 -15.1,8.9 z"
       id="path1363" />
    <path
       style="fill:#6c6c6c"
       inkscape:connector-curvature="0"
       d="m 299.19,529.13 0,-0.1 c -1.3,-19.2 -25.4,-29.3 -35.1,-20.6 -5.1,4.6 -7.5,14.3 1.4,23.8 -7.1,10.9 -3.3,19.4 2.6,23.1 10.8,6.7 32.8,-7.4 31.1,-26.2 z"
       id="path1365" />
  </g>
  <path
     inkscape:connector-curvature="0"
     d="m 68.29223,89.959174 c 0.799564,0.888395 1.066074,2.043309 1.332592,3.464741 0.355359,1.95447 0.26651,4.175458 -2.132148,4.441976 -0.355349,0.08884 -0.621868,-0.177679 -0.710716,-0.533037 -0.08884,-0.355358 0.177688,-0.621877 0.533046,-0.710716 1.599111,-0.266519 1.421432,-1.86563 1.066074,-3.198223 -0.266518,-1.243753 -0.621868,-2.220988 -1.154914,-2.842864 l -1.332592,0.08884 c -0.533029,0.08884 -0.977235,0.08884 -1.066075,0.177679 l -0.08884,-0.710716 -0.08884,-0.621877 c 0.08884,0 0.533037,0 1.066075,-0.08884 l 1.332592,-0.177679 c 0.444198,-0.710716 0.533046,-1.687951 0.533046,-2.931704 0,-1.421433 -0.177679,-3.020544 -1.77679,-2.931704 -0.355367,0 -0.621877,-0.266519 -0.621877,-0.621877 0,-0.355358 0.26651,-0.621877 0.621877,-0.621877 2.398667,-0.177679 2.931704,1.95447 3.020544,3.997779 0.177679,1.599111 0,2.754025 -0.533029,3.820099 z"
     id="path1367" />
  <path
     style="fill:#fa8973;fill-rule:evenodd"
     inkscape:connector-curvature="0"
     d="m 21.651482,69.437245 c -0.08884,-0.799556 10.927261,-4.353136 12.348693,-4.530815 1.421433,-0.177679 8.795113,2.487506 8.795113,2.487506 l -6.929483,8.262075 -14.214323,-6.218766 z"
     id="path1369" />
  <path
     inkscape:connector-curvature="0"
     d="m 60.563192,90.66989 c -0.888396,-0.355358 -1.332593,-0.799556 -1.421433,-1.77679 -0.08884,-1.066074 0.533037,-1.95447 1.421433,-2.043309 1.68795,-0.177679 3.464741,1.599111 5.330371,3.287062 -1.421433,2.132148 -2.931704,4.175457 -4.530816,4.353136 -0.888395,0.08884 -1.77679,-0.710716 -1.86563,-1.77679 0,-0.977235 0.355358,-1.421432 1.066075,-2.043309 z"
     id="path1371" />
  <path
     inkscape:connector-curvature="0"
     d="m 55.143981,85.783717 c 0.26651,0.177679 0.355349,0.621876 0.177679,0.888395 -0.177679,0.266518 -0.621877,0.355358 -0.888395,0.177679 -0.533046,-0.355358 -0.977235,-0.799556 -1.421433,-1.332593 -1.154913,-1.332593 -1.954469,-3.287062 -2.220988,-5.241532 -0.266509,-1.954469 0.177688,-3.997778 1.332593,-5.774568 0.355367,-0.533037 0.799565,-1.066075 1.332593,-1.510272 0.266519,-0.266519 0.710716,-0.177679 0.888395,0.08884 0.266519,0.266519 0.177688,0.710717 -0.08884,0.888396 -0.444198,0.355358 -0.799565,0.799555 -1.154914,1.243753 -0.977235,1.421432 -1.332593,3.198223 -1.066074,4.886173 0.177679,1.687951 0.888395,3.375902 1.954469,4.530816 0.355349,0.444197 0.799547,0.799556 1.154914,1.154914 z"
     id="path1373" />
  <path
     inkscape:connector-curvature="0"
     d="m 55.32166,95.644903 c 0.26651,-0.266518 0.621868,-0.266518 0.888395,0 0.26651,0.266519 0.26651,0.621877 0,0.888395 -0.355367,0.355358 -0.621885,0.799556 -0.888395,1.243754 -0.799565,1.332592 -1.066074,3.109378 -0.977235,4.797338 0.177679,1.68795 0.799556,3.3759 2.132149,4.61965 0.355358,0.35536 0.799555,0.71072 1.332592,0.97724 0.266519,0.17767 0.444198,0.53303 0.266519,0.88839 -0.177679,0.26652 -0.533028,0.4442 -0.888395,0.26652 -0.621877,-0.35536 -1.154914,-0.79956 -1.599112,-1.24375 -1.510271,-1.42144 -2.309827,-3.37591 -2.398667,-5.41921 -0.177679,-1.95447 0.266519,-3.997783 1.066075,-5.596894 0.266518,-0.444198 0.621885,-0.977235 1.066074,-1.421433 z"
     id="path1375" />
  <g
     style="fill-rule:evenodd"
     id="g34"
     transform="matrix(0.88839519,0,0,0.88839519,-189.60001,-380.65041)">
    <path
       style="fill:#6c6c6c"
       inkscape:connector-curvature="0"
       d="m 343.89,546.53 c 4.9,-0.5 6.8,0.5 7.5,2.6 0.8,2.6 0.3,4.9 -6.6,6.9 -2.1,-0.5 -3.5,-1.6 -3.9,-3 -0.9,-2.5 0.6,-4.7 3,-6.5 z"
       id="path1377" />
    <path
       style="fill:#6c6c6c"
       inkscape:connector-curvature="0"
       d="m 326.19,504.63 c 4.9,0.3 6.6,1.6 6.9,3.9 0.3,2.6 -0.6,4.9 -7.7,5.6 -2,-0.9 -3.2,-2.2 -3.4,-3.6 -0.29999,-2.6 1.5,-4.5 4.2,-5.9 z"
       id="path1379" />
    <path
       inkscape:connector-curvature="0"
       d="m 369.89,489.83 c -2.6,-2.8 1.3,-5.7 4.1,-3.8 10.5,7.4 24.1,3.4 32,-4.7 4,-4.1 7.2,-11.7 5.5,-17.5 -0.5,-1.7 -1.4,-3.9 -3.3,-4.5 -0.8,-0.2 -1.7,0.2 -2.5,0.1 -1.6,-0.3 -2.6,-1.6 -3.6,-2.7 -1,-1.1 -1,-3 -0.1,-4.1 5.7,-7 13.3,-0.1 16,5.8 3.9,8.6 1.3,18.2 -4.3,25.3 -9.8,12.3 -31.5,19.6 -43.8,6.1 z"
       id="path1381" />
  </g>
  <path
     style="fill:#6b6baa"
     inkscape:connector-curvature="0"
     d="m 102.8508,114.21236 c 1.59911,0.79956 2.30983,0.97724 3.64242,2.66519 1.3326,1.51027 2.93171,2.4875 3.28707,5.59689 -0.53304,-0.62188 -6.84065,-7.196 -6.84065,-7.196 0,-0.17768 -0.0888,-0.53304 -0.0888,-1.06608 z"
     id="path1383" />
  <path
     style="fill:#b2b2b2"
     inkscape:connector-curvature="0"
     d="m 58.075685,61.708207 0.08884,0.444198 c -1.332593,6.840643 2.398667,13.681285 4.708494,16.968348 l -0.177688,0.799555 -0.799556,-0.08884 C 59.585948,76.722086 55.410491,68.54885 57.009602,62.063565 l 0.621877,-0.533037 0.444197,0.177679 z m 5.863408,-3.464741 c 0.621877,0.710716 -1.510272,2.398667 -1.421432,9.15047 0.08884,8.439754 2.754025,10.394224 1.243753,11.016101 l -0.355367,0 -0.355358,-0.266519 c -1.599111,-4.353136 -2.931704,-12.88173 -0.08884,-19.633534 0.08884,-0.444197 0.710716,-0.533037 0.977234,-0.266518 z m 4.708495,6.929482 0.17767,0.444198 c 0,0.08884 0,0.177679 -0.08884,0.266518 -1.865629,4.175458 -2.931704,7.37368 -2.398667,12.259854 0,0.177679 0,0.355358 -0.177679,0.444198 -0.355358,0.444197 -1.066074,0.266518 -1.154913,-0.355359 -0.444198,-4.441975 0.444197,-8.972791 2.576346,-12.970569 0.08884,-0.177679 0.266518,-0.266519 0.355358,-0.266519 0.177679,-0.08884 0.355358,-0.08884 0.533037,0 l 0.177688,0.177679 z"
     id="path1385" />
  <path
     style="fill:#b2b2b2"
     inkscape:connector-curvature="0"
     d="m 63.939093,119.18738 0,-0.4442 c -2.665185,-6.39645 -0.355349,-13.85897 1.243754,-17.59023 l -0.355359,-0.79955 -0.799546,0.26652 c -1.599112,3.55358 -4.086618,12.34869 -1.154914,18.38978 l 0.710716,0.44419 0.355349,-0.26651 z m 6.307606,2.13214 c 0.444198,-0.79955 -1.954469,-2.0433 -3.287062,-8.70627 -1.599111,-8.26207 0.621877,-10.74958 -0.977235,-11.0161 l -0.355367,0.0888 -0.266518,0.35536 c -0.710708,4.53081 -0.355358,13.14825 3.820099,19.18933 0.266519,0.4442 0.888395,0.4442 1.066074,0.0888 z m 3.287062,-7.64019 0.08884,-0.53304 c 0,-0.0888 -0.08884,-0.17768 -0.08884,-0.26652 -2.665185,-3.73126 -4.264297,-6.66296 -4.797334,-11.54914 0,-0.17768 -0.08884,-0.35536 -0.266509,-0.4442 -0.444198,-0.35535 -1.066075,0 -1.066075,0.62188 0.444198,4.44198 2.309828,8.70627 5.063853,12.17102 0.08884,0.0888 0.266519,0.17767 0.444198,0.26651 0.177687,0 0.355358,0 0.444197,-0.17767 l 0.177688,-0.0888 z"
     id="path1387" />
  <path
     style="fill:#6b6baa"
     inkscape:connector-curvature="0"
     d="m 132.9674,107.28288 c -0.35536,-1.95447 0.17768,-3.64242 0.35536,-3.99778 0.26652,-0.4442 0.4442,-0.88839 0.79955,-1.24375 1.51028,-2.309829 3.02055,-3.642422 5.50805,-4.886175 0.53304,-0.266519 0.79956,0.177679 1.77679,0.177679 0.26652,0.533037 0.53304,0.266519 0.0888,0.533037 -2.39866,1.599112 -7.81787,6.485289 -8.52859,9.416989 z"
     id="path1389" />
</svg>
