<?xml version="1.0" encoding="UTF-8" standalone="no"?>
<!-- Created with Inkscape (http://www.inkscape.org/) -->

<svg
   xmlns:dc="http://purl.org/dc/elements/1.1/"
   xmlns:cc="http://creativecommons.org/ns#"
   xmlns:rdf="http://www.w3.org/1999/02/22-rdf-syntax-ns#"
   xmlns:svg="http://www.w3.org/2000/svg"
   xmlns="http://www.w3.org/2000/svg"
   xmlns:sodipodi="http://sodipodi.sourceforge.net/DTD/sodipodi-0.dtd"
   xmlns:inkscape="http://www.inkscape.org/namespaces/inkscape"
   id="svg6018"
   height="43mm"
   width="36mm"
   version="1.1"
   viewBox="0 0 127.55906 152.3622"
   inkscape:version="0.91 r13725"
   sodipodi:docname="cat_3.svg">
  <defs
     id="defs55" />
  <sodipodi:namedview
     pagecolor="#ffffff"
     bordercolor="#666666"
     borderopacity="1"
     objecttolerance="10"
     gridtolerance="10"
     guidetolerance="10"
     inkscape:pageopacity="0"
     inkscape:pageshadow="2"
     inkscape:window-width="1123"
     inkscape:window-height="758"
     id="namedview53"
     showgrid="false"
     inkscape:zoom="1.5489406"
     inkscape:cx="-156.37095"
     inkscape:cy="76.181106"
     inkscape:window-x="0"
     inkscape:window-y="0"
     inkscape:window-maximized="0"
     inkscape:current-layer="svg6018" />
  <metadata
     id="metadata6023">
    <rdf:RDF>
      <cc:Work
         rdf:about="">
        <dc:format>image/svg+xml</dc:format>
        <dc:type
           rdf:resource="http://purl.org/dc/dcmitype/StillImage" />
        <dc:title />
      </cc:Work>
    </rdf:RDF>
  </metadata>
  <g
     style="fill:#676766"
     transform="matrix(0.91809003,0,0,0.91809003,-589.75458,-74.562388)"
     id="g503">
    <path
       style="fill-rule:evenodd"
       inkscape:connector-curvature="0"
       d="m 750.7,205.7 c -3.6,3 1.2,7.1 6,6.9 3.8,-0.1 5,3.2 3.2,7.1 -2.2,4.8 -5.8,5.6 -10.6,6.6 -6.5,1.3 -12.5,0.9 -18.4,0.4 3.2,-3 5.4,-7.4 5.5,-13.7 0.6,-27.8 -19.1,-32.8 -26.9,-47.8 0.8,-0.2 1.6,-0.5 2.3,-0.7 l -1.6,-4.9 c 3.8,-2 7.2,-4.9 9.9,-8.1 l 3,1.6 c 0.4,0.3 1.2,0 1.1,-0.7 -0.1,-0.7 -2.6,-1.8 -3.1,-2.1 1,-1.3 1.9,-2.7 2.7,-4.1 6,0.9 7.5,3 8.3,2.5 0.3,-0.3 0.3,-0.9 -0.2,-1.2 -2.3,-1.2 -4.8,-2 -7.4,-2.5 0.6,-1.2 1.1,-2.4 1.6,-3.6 1.5,0.2 2,0.6 2.9,0.5 l 0.2,-0.5 c -0.7,-0.9 -0.5,-0.9 -2.7,-1.3 0.7,-2.3 1.1,-4.5 1.1,-6.8 3.7,4.4 8.3,2.9 8.7,2.6 -2.6,0.1 -5.3,-3.7 -5.3,-5.1 2.2,1.7 5,1.8 5.3,1.4 0,-0.1 -2.3,-1.3 -3.1,-2.3 -3.7,-4.2 -1.7,-1.5 2.2,-0.6 -3.5,-1.9 -4.1,-5.7 -4.2,-8.6 0.6,-1.8 1,-3.3 0.9,-4.1 -0.1,-2.4 -5,-20.8 -6.4,-20.7 -1.2,0.1 -12.8,14.7 -15.9,18.7 -3.9,-1 -8.2,-1.5 -12.8,-1.6 -3.3,-0.1 -10.5,0.3 -12.8,1.1 -1.6,-2.5 -14.2,-19.1 -15.3,-19.2 -1.4,-0.1 -6.9,18.1 -7.1,20.5 -0.1,0.8 0.3,2.6 1,4.6 0,3 -0.3,7.3 -4.2,9.3 3.9,-0.9 5.9,-3.6 2.2,0.6 -0.9,1 -3.1,2.2 -3.1,2.3 -0.3,0.3 3.1,0.3 5.3,-1.4 0,1.4 -2.7,5.2 -5.2,5.1 -0.6,0 4.4,1.6 8.1,-2 0.1,2 0.5,4.1 1.1,6.2 -2.2,0.4 -2.1,0.5 -2.8,1.4 l 0.2,0.5 c 0.9,0.1 1.5,-0.3 3,-0.5 0.5,1.2 1,2.4 1.6,3.6 -2.6,0.5 -5.2,1.2 -7.5,2.5 -0.5,0.3 -0.5,0.9 -0.2,1.2 0.8,0.5 2.3,-1.6 8.4,-2.5 0.8,1.4 1.7,2.8 2.7,4.1 -0.6,0.3 -3.1,1.5 -3.2,2.1 -0.2,0.8 0.7,1 1.1,0.7 l 3.1,-1.6 c 3.1,3.7 6.9,6.8 11.3,8.9 l -2.1,4.6 c 1,0.5 2.1,0.9 3.2,1.2 -0.3,1.7 -0.5,3.3 -0.8,4.2 -1.9,6.9 -4.8,10.8 -2.2,16.5 6.5,16.2 8,26.9 8.5,40.1 -1.4,0.1 -2.6,0.9 -3.2,2.2 0.4,-2.9 -4.9,-3.9 -7.2,-4.1 -0.4,-2.6 -1.3,-4.5 -2.8,-5.2 -2.5,-1.3 -5.8,-0.8 -9.1,0.4 -0.5,-4.5 -7.3,-4.2 -7.3,0.4 0,1.1 0.5,2 1.2,2.7 -2.3,1.4 -4.2,2.9 -5.4,4.1 -0.7,-1.4 -2.8,-0.9 -2.8,0.7 0,1.5 1.4,1.4 1.8,1.4 3.4,1.3 24.9,1.3 24.9,0.5 0,-1.1 0,-2.2 -0.1,-3.2 1.4,0.1 5.7,1.1 5.2,2.3 -0.6,1.3 -3.6,1.7 -2.7,3.3 0.4,0.6 2.1,1.1 4.1,1.2 5.1,0.2 8.5,-0.2 11.5,-0.9 l 5,0 c 4.5,0.1 9.8,0.2 14.9,-0.8 0.4,0.2 0.9,0.3 1.5,0.3 8.4,0.4 18.6,1.2 27,0.5 6.5,-0.5 13.7,-1.9 17.8,-7.5 8.7,-12.1 -4.2,-28.7 -14.9,-19.7 z"
       id="path505" />
    <path
       inkscape:connector-curvature="0"
       d="m 690.6,239.6 c -1,0 -2,0 -3,-0.1 -2.7,-0.1 -6.2,-0.8 -8.3,-3.2 l -0.3,0 c -1.8,0.1 -4.1,0.2 -6.8,0.2 -4.8,0 -12.9,-0.2 -16.8,-1.1 -4.6,-0.5 -6.7,-4.1 -6.7,-7.4 0,-4 3.1,-7.2 7.1,-7.5 0,-5.4 4.3,-9.6 9.7,-9.6 2.4,0 4.6,0.8 6.3,2.3 3.5,-0.6 6.6,-0.2 9.2,1.2 1.6,0.8 2.9,2 3.9,3.6 -0.9,-8.9 -2.8,-17.3 -7.4,-28.8 -2.9,-6.4 -1.1,-11.6 0.5,-16.2 0.4,-1.1 0.8,-2.2 1.1,-3.4 -0.9,-0.7 -1.5,-1.6 -1.9,-2.6 -0.5,-1.4 -0.5,-2.9 0,-4.3 -1.7,-1.2 -3.4,-2.5 -4.9,-4 -0.7,0.2 -1.4,0.4 -2.2,0.4 -2.1,0 -4,-0.9 -5.3,-2.5 -0.5,-0.7 -0.9,-1.4 -1.2,-2.3 -0.5,0.1 -1.1,0.2 -1.8,0.2 -1.3,0 -2.6,-0.4 -3.7,-1.2 l -0.1,-0.1 c -1.8,-1.4 -2.8,-3.5 -2.6,-5.8 0.2,-2.2 1.4,-4.1 3.2,-5.3 l 0,-0.2 c -6.1,-0.6 -6.6,-4.9 -6.6,-6.2 0,-0.6 0.1,-1.2 0.3,-1.8 -0.5,-1.5 -0.3,-3.1 0.4,-4.5 0.1,-0.2 0.2,-0.3 0.3,-0.5 0.1,-2.1 1.2,-4.1 3.2,-5.1 0.4,-0.2 0.9,-0.8 1,-3.2 -0.9,-3.3 -1,-4.8 -0.9,-6 0.3,-2.8 3.4,-12.2 3.4,-12.3 2.7,-8.4 4.4,-13.5 9.7,-13.5 l 0.5,0 c 3,0.2 4.3,1.5 11.7,11 2,2.6 4.1,5.4 5.8,7.6 4.4,-0.5 9.4,-0.6 9.5,-0.6 l 0.8,0 c 3.6,0.1 7.1,0.4 10.3,0.9 14.1,-17.8 15.1,-17.9 18,-18 l 0.3,0 c 5.4,0 7,5.5 9.4,13.8 0,0.1 2.7,9.5 2.9,12.4 0.1,1.4 -0.1,2.9 -0.9,5.3 0.2,1.8 0.6,2.3 0.8,2.5 1.9,1 3.2,2.9 3.3,5.2 0.1,0.1 0.2,0.3 0.2,0.4 0.7,1.4 0.8,3 0.3,4.5 0.7,2.3 0,4.8 -1.8,6.4 -1.5,1.3 -3.6,1.7 -5.1,1.8 l 0,0.1 c 1.8,1.1 3,3 3.2,5.3 0.2,2.3 -0.8,4.5 -2.6,5.8 l -0.1,0.1 c -1.1,0.8 -2.4,1.2 -3.7,1.2 -0.7,0 -1.3,-0.1 -1.8,-0.3 -0.3,0.8 -0.7,1.6 -1.3,2.3 -1.3,1.5 -3.2,2.4 -5.2,2.4 -0.7,0 -1.5,-0.1 -2.1,-0.3 -1.3,1.2 -2.6,2.3 -4,3.3 l 0.1,0.5 c 0.4,1.3 0.4,2.6 -0.1,3.8 2,2.5 4.4,4.9 6.9,7.4 8.2,8.1 18.5,18.2 18,39.2 -0.1,2.9 -0.5,5.6 -1.2,8.1 2.5,-0.1 4.8,-0.3 7,-0.7 3.6,-0.7 4.9,-1.1 5.6,-2 -4.5,-0.8 -8.4,-3.7 -9.7,-7.4 -1.3,-3.5 -0.2,-7.3 2.9,-9.8 3.1,-2.6 6.7,-4 10.3,-4 6.1,0 11.9,3.8 15,10 3.5,7 2.8,15.3 -1.8,21.6 -5.6,7.7 -14.8,9.3 -22.1,9.9 -2.3,0.2 -4.9,0.3 -7.9,0.3 -5,0 -10,-0.3 -14.9,-0.5 -1.7,-0.1 -3.4,-0.2 -5,-0.2 -0.5,0 -1,-0.1 -1.5,-0.2 -3.1,0.5 -6.5,0.7 -10.4,0.7 -1.7,0 -3.2,0 -4.4,-0.1 l -4.6,0 c -2.9,0.8 -5.9,1.1 -9.4,1.1 z m -0.1,-77.4 c 1.1,1.3 1.6,3 1.4,4.8 -0.3,2.2 -0.6,3.8 -0.9,4.9 -0.5,2 -1.1,3.6 -1.7,5.1 -1.5,4.3 -1.8,5.4 -0.9,7.3 0,0.1 0.1,0.2 0.1,0.3 6.8,16.9 8.4,28.2 8.9,42.1 l 0,0.3 c 0.2,0 0.4,-0.1 0.6,-0.1 0.4,-0.1 0.9,-0.2 1.3,-0.2 l 5,0 0.2,0 c 1.1,0 2.6,0.1 4.1,0.1 3.7,0 6.9,-0.2 9.5,-0.8 1,-0.2 2.1,-0.1 3.1,0.2 1.1,0.1 2.3,0.1 3.5,0.2 0.1,-1.5 0.7,-3 1.9,-4.1 2.3,-2.1 3.5,-5.2 3.6,-9.5 0.3,-15.8 -6.5,-22.6 -14.4,-30.4 -4.3,-4.2 -8.7,-8.6 -11.8,-14.5 -0.8,-1.6 -0.9,-3.5 -0.2,-5.2 0.2,-0.4 0.4,-0.7 0.6,-1.1 l -0.1,-0.3 c -0.9,-2.8 0.3,-5.7 2.9,-7.1 3,-1.6 5.8,-3.9 8.2,-6.7 0.1,-0.2 0.3,-0.3 0.5,-0.5 0.1,-0.2 0.2,-0.3 0.3,-0.5 0.8,-1.1 1.6,-2.2 2.3,-3.4 0.1,-0.2 0.2,-0.3 0.3,-0.5 l 0.3,-0.6 c 0.5,-0.9 0.9,-1.8 1.3,-2.9 0,-0.1 0.1,-0.3 0.2,-0.4 0,-0.2 0.1,-0.4 0.1,-0.6 0.5,-1.8 0.8,-3.5 0.9,-5.1 0,-2.4 1.5,-4.5 3.6,-5.4 0,-0.8 0.1,-1.6 0.5,-2.5 -0.3,-1.4 -0.5,-2.8 -0.5,-4.4 0,-0.7 0.1,-1.4 0.3,-2 0.4,-1.1 0.5,-1.7 0.6,-2.1 -0.3,-1.7 -1.4,-5.9 -2.5,-9.7 -2.3,2.8 -5.4,6.6 -9.1,11.3 -1.5,1.9 -3.9,2.7 -6.2,2.1 -3.4,-0.8 -7.2,-1.3 -11.5,-1.4 l -0.6,0 c -4,0 -9,0.5 -10.2,0.8 -2.6,0.9 -5.4,-0.1 -6.9,-2.4 -1,-1.5 -5,-6.9 -8.5,-11.4 -1.2,3.8 -2.4,7.9 -2.8,9.6 0.1,0.4 0.3,1.2 0.7,2.5 0.2,0.6 0.3,1.2 0.3,1.8 0,1.1 0,3 -0.5,5.2 0.5,1.2 0.6,2.3 0.4,3.3 1.8,1 3,2.8 3.2,5 0.1,1.6 0.4,3.1 0.9,4.7 0.1,0.2 0.1,0.5 0.2,0.7 0,0.1 0.1,0.2 0.1,0.3 0.4,1.2 0.9,2.2 1.3,3 0.1,0.1 0.1,0.3 0.2,0.4 0.1,0.2 0.3,0.4 0.4,0.6 0.6,1.1 1.4,2.2 2.3,3.5 0.1,0.1 0.2,0.3 0.3,0.4 l 0.5,0.5 c 2.6,3.1 5.8,5.7 9.3,7.3 2.7,1.5 4,4.7 3.1,7.5 z"
       id="path507" />
  </g>
  <path
     id="path511"
     d="m 99.455606,114.28873 c -3.305125,2.75427 1.101704,6.51844 5.508544,6.33482 3.48874,-0.0918 4.59045,2.93789 2.93788,6.51844 -2.01979,4.40683 -5.32492,5.14131 -9.731751,6.0594 -5.967585,1.19351 -11.476125,0.82628 -16.892856,0.36723 2.937888,-2.75427 4.957686,-6.79386 5.049495,-12.57783 C 86.877772,95.467886 68.791399,90.877435 61.630296,77.106085 62.364768,76.922467 63.09924,76.64704 63.741903,76.463422 l -1.468944,-4.498641 c 3.488742,-1.83618 6.610249,-4.498641 9.089092,-7.436529 l 2.75427,1.468944 c 0.367236,0.275427 1.101708,0 1.009899,-0.642663 -0.09181,-0.642663 -2.387034,-1.652562 -2.846079,-1.927989 0.91809,-1.193518 1.744371,-2.478844 2.478843,-3.76417 5.50854,0.826281 6.885675,2.75427 7.620147,2.295225 0.275427,-0.275427 0.275427,-0.826281 -0.183618,-1.101708 -2.111607,-1.101708 -4.406832,-1.83618 -6.793866,-2.295225 0.550854,-1.101708 1.009899,-2.203416 1.468944,-3.305124 1.377135,0.183618 1.83618,0.550854 2.662461,0.459045 l 0.183618,-0.459045 c -0.642663,-0.826281 -0.459045,-0.826281 -2.478843,-1.193517 0.642663,-2.111607 1.009899,-4.131405 1.009899,-6.243012 3.396933,4.039596 7.620147,2.662461 7.987383,2.387034 -2.387034,0.09181 -4.865877,-3.396933 -4.865877,-4.682259 2.019798,1.560753 4.59045,1.652562 4.865877,1.285326 0,-0.09181 -2.111607,-1.193517 -2.846079,-2.111607 -3.396933,-3.855978 -1.560753,-1.377135 2.019798,-0.550854 -3.213315,-1.744371 -3.764169,-5.233113 -3.855978,-7.895574 0.550854,-1.652562 0.91809,-3.029697 0.826281,-3.76417 -0.09181,-2.203416 -4.59045,-19.096272 -5.875776,-19.004463 -1.101708,0.09181 -11.751553,13.495923 -14.597632,17.168283 -3.580551,-0.91809 -7.528338,-1.377135 -11.751552,-1.468944 -3.029697,-0.09181 -9.639945,0.275427 -11.751552,1.009899 C 36.933674,27.896459 25.36574,12.656165 24.355841,12.564356 c -1.285326,-0.09181 -6.334821,16.617429 -6.518439,18.820845 -0.09181,0.734472 0.275427,2.387035 0.91809,4.223215 0,2.75427 -0.275427,6.702057 -3.855978,8.538237 3.580551,-0.826281 5.416731,-3.305124 2.019798,0.550854 -0.826281,0.91809 -2.846079,2.019798 -2.846079,2.111607 -0.275427,0.275427 2.846079,0.275427 4.865877,-1.285326 0,1.285326 -2.478843,4.774068 -4.774068,4.682259 -0.550854,0 4.039596,1.468944 7.436529,-1.83618 0.09181,1.83618 0.459045,3.764169 1.009899,5.692158 -2.019798,0.367236 -1.927989,0.459045 -2.570652,1.285326 l 0.183618,0.459045 c 0.826281,0.09181 1.377135,-0.275427 2.75427,-0.459045 0.459045,1.101708 0.91809,2.203416 1.468944,3.305124 -2.387034,0.459045 -4.774068,1.101708 -6.885675,2.295225 -0.459045,0.275427 -0.459045,0.826281 -0.183618,1.101708 0.734472,0.459045 2.111607,-1.468944 7.711956,-2.295225 0.734472,1.285326 1.560753,2.570652 2.478843,3.76417 -0.550854,0.275427 -2.846079,1.377135 -2.937888,1.927989 -0.183618,0.734472 0.642663,0.91809 1.009899,0.642663 l 2.846079,-1.468944 c 2.846079,3.396933 6.334821,6.243012 10.374418,8.171001 l -1.92799,4.223214 c 0.918091,0.459045 1.92799,0.826281 2.937889,1.101708 -0.275427,1.560753 -0.459045,3.029697 -0.734472,3.855978 -1.744372,6.334821 -4.406833,9.915372 -2.019799,15.148486 5.967586,14.873062 7.344721,24.696622 7.803766,36.815412 -1.285326,0.0918 -2.387034,0.82628 -2.937888,2.0198 0.367236,-2.66247 -4.498642,-3.58056 -6.610249,-3.76417 -0.367236,-2.38704 -1.193517,-4.13141 -2.570652,-4.77407 -2.295225,-1.19352 -5.324922,-0.73447 -8.354619,0.36723 -0.459045,-4.1314 -6.702057,-3.85597 -6.702057,0.36724 0,1.0099 0.459045,1.83618 1.101708,2.47884 -2.111607,1.28533 -3.855978,2.66246 -4.957686,3.76417 -0.642663,-1.28532 -2.570652,-0.82628 -2.570652,0.64267 0,1.37713 1.285326,1.28532 1.652562,1.28532 3.121506,1.19352 22.860441,1.19352 22.860441,0.45905 0,-1.0099 0,-2.0198 -0.09181,-2.93789 1.285326,0.0918 5.233114,1.0099 4.774069,2.11161 -0.550854,1.19351 -3.305125,1.56075 -2.478843,3.02969 0.367236,0.55086 1.927989,1.0099 3.764169,1.10171 4.682259,0.18362 7.803765,-0.18362 10.558035,-0.82628 l 4.59045,0 c 4.131405,0.0918 8.997282,0.18362 13.679542,-0.73447 0.367236,0.18362 0.826281,0.27542 1.377135,0.27542 7.711956,0.36724 17.076474,1.10171 24.78843,0.45905 5.967586,-0.45905 12.577836,-1.74437 16.342006,-6.88568 7.98738,-11.10888 -3.85598,-26.34918 -13.679544,-18.08637 z"
     inkscape:connector-curvature="0"
     style="fill:#fefefe;fill-rule:evenodd" />
  <path
     style="fill:#fefefe"
     id="path513"
     d="m 44.278395,144.49389 c -0.826281,0 -1.744371,0 -2.75427,-0.0918 -2.387034,-0.0918 -5.60035,-0.73447 -7.252912,-2.93788 -0.275427,0 -0.550854,0 -0.734472,0.0918 -1.560753,0.0918 -3.764169,0.18361 -6.151203,0.18361 -3.488742,0 -11.659743,-0.0918 -15.240294,-1.0099 -3.7641695,-0.36723 -5.4167315,-3.30512 -5.4167315,-5.87577 0,-3.30513 2.6624611,-5.96759 5.9675855,-5.96759 l 0.459045,0 c 0,0 0.09181,0 0.09181,-0.0918 l 0,-0.82628 c 0,-4.40683 3.488742,-7.89557 7.987383,-7.89557 2.111607,0 4.039596,0.82628 5.50854,2.11161 3.213315,-0.64267 5.967585,-0.27543 8.26281,0.91809 1.83618,0.91809 3.213316,2.57065 4.131406,4.86587 0.367236,0.0918 0.642663,0.18362 1.009899,0.27543 -0.734472,-9.36452 -2.387034,-17.62733 -7.161103,-29.47069 -2.570652,-5.60035 -1.009899,-9.915373 0.459045,-14.230396 0.459045,-1.193517 0.826281,-2.387034 1.193517,-3.764169 -0.91809,-0.550854 -1.652562,-1.377135 -2.019798,-2.295225 -0.459045,-1.101708 -0.367236,-2.387034 0.09181,-3.580551 l 0.183618,-0.367236 c -1.927989,-1.285326 -3.764169,-2.75427 -5.50854,-4.406832 -0.642663,0.275427 -1.468944,0.459045 -2.203416,0.459045 -1.652562,0 -3.121506,-0.734472 -4.131405,-1.927989 -0.642663,-0.826281 -1.009899,-1.744371 -1.101708,-2.662461 -0.642663,0.275427 -1.468944,0.550854 -2.387034,0.550854 -1.009899,0 -2.019798,-0.275427 -2.937888,-0.91809 l -0.09181,-0.09181 c -1.377135,-1.009899 -2.203416,-2.754271 -2.019798,-4.498642 0.183618,-1.83618 1.193517,-3.396933 2.846079,-4.315023 0.09181,-0.09181 0.183618,-0.09181 0.275427,-0.183618 -0.183618,-0.459045 -0.275427,-1.009899 -0.183618,-1.560753 -5.416731,-0.183618 -5.9675854,-3.488742 -5.9675854,-4.865877 0,-0.550854 0.091809,-1.101708 0.275427,-1.652562 -0.459045,-1.193517 -0.367236,-2.570652 0.183618,-3.764169 0.091809,-0.183618 0.1836184,-0.367236 0.3672364,-0.550854 0,-1.652562 0.91809,-3.305124 2.478843,-4.131405 0.734472,-0.367236 1.285326,-1.285326 1.377135,-3.855978 -0.91809,-3.121506 -0.91809,-4.406833 -0.826281,-5.324923 0.183618,-2.111607 2.295225,-8.721855 3.029697,-11.108889 2.570652,-7.895574 4.039596,-11.7515523 7.987383,-11.7515523 l 0.367236,0 c 2.295225,0.183618 3.213315,0.91809 10.09899,9.7317543 1.927989,2.478843 4.039597,5.324922 5.60035,7.436529 3.396933,-0.459045 7.528338,-0.550854 9.089091,-0.550854 l 0.642663,0 c 3.488742,0.09181 6.793866,0.367236 9.823563,0.91809 C 73.106422,8.9838047 74.116321,8.9838047 76.319737,8.8001867 l 0.183618,0 c 4.131405,0 5.416731,3.8559783 7.803765,12.0269793 0,0.09181 2.478843,8.813664 2.662461,11.292507 0.09181,0.918091 0,2.111608 -0.826281,4.590451 0.183618,2.111607 0.642663,2.846079 1.193517,3.213315 1.560753,0.734472 2.570652,2.295225 2.570652,4.131405 l 0,0.09181 0.275427,0.550854 c 0.550854,1.193517 0.642663,2.570652 0.183618,3.764169 0.734472,1.83618 0.183618,3.947787 -1.285326,5.141304 -1.468944,1.285326 -3.855978,1.468944 -4.865877,1.560753 0,0.459045 -0.09181,0.91809 -0.183618,1.377135 0.09181,0.09181 0.183618,0.09181 0.275427,0.183618 1.560753,0.826281 2.662461,2.478843 2.75427,4.223214 0.183618,1.744371 -0.642663,3.488743 -2.019798,4.498642 l -0.09181,0.09181 c -0.826281,0.642663 -1.83618,0.91809 -2.937888,0.91809 -0.91809,0 -1.744371,-0.275427 -2.387034,-0.550854 -0.09181,1.009899 -0.459045,2.019798 -1.193517,2.75427 -1.009899,1.193517 -2.478843,1.927989 -4.131405,1.927989 -0.734472,0 -1.468944,-0.183618 -2.203416,-0.459045 -1.468944,1.377135 -2.937888,2.662461 -4.590451,3.764169 l 0.367236,1.009899 c 0.367237,1.193517 0.275427,2.387034 -0.275427,3.396933 1.92799,2.570652 4.315024,4.865877 6.793867,7.34472 7.803765,7.711956 16.709238,16.433808 16.250193,35.346468 -0.09181,3.0297 -0.550854,5.87577 -1.468944,8.35462 2.846079,0 5.416731,-0.27543 7.895574,-0.73447 4.315019,-0.82629 5.416729,-1.28533 6.518439,-3.48875 -4.406831,-0.36723 -8.26281,-2.93788 -9.548136,-6.33482 -1.009899,-2.84608 -0.09181,-5.96758 2.387034,-7.98738 2.662462,-2.20342 5.783972,-3.39693 8.905472,-3.39693 5.23311,0 10.28261,3.30512 12.94507,8.63004 3.12151,6.0594 2.47884,13.31231 -1.56075,18.91266 -4.95769,6.79386 -13.12869,8.26281 -19.647129,8.72185 -2.111607,0.18362 -4.498641,0.27543 -7.161102,0.27543 -4.498641,0 -9.089091,-0.27543 -13.587732,-0.45905 -1.560753,-0.0918 -3.121506,-0.18361 -4.59045,-0.18361 -0.459045,0 -0.91809,-0.0918 -1.377135,-0.18362 -2.754271,0.45904 -5.967586,0.73447 -9.548137,0.73447 -1.560753,0 -2.937888,0 -4.039596,-0.0918 l -4.039596,0 c -2.570652,0.45905 -5.324922,0.73447 -8.446428,0.73447 z M 43.084878,74.535433 c 1.101708,1.009899 1.652562,2.478843 1.377135,4.039596 -0.275427,1.927989 -0.550854,3.396933 -0.826281,4.406832 -0.459045,1.744371 -1.009899,3.305124 -1.468944,4.59045 -1.377135,3.855978 -1.744371,5.233113 -0.734472,7.344721 0,0.09181 0.09181,0.183618 0.09181,0.275427 6.151203,15.332101 7.620147,25.706521 8.171001,38.376161 0,0.45905 0,0.91809 -0.183618,1.37714 0.642663,-0.0918 1.193517,-0.18362 1.83618,-0.36724 0.367236,-0.0918 0.642663,-0.0918 1.009899,-0.0918 l 4.59045,0 0.183618,0 c 1.009899,0 2.387034,0.0918 3.764169,0.0918 3.488742,0 6.42663,-0.27543 8.905474,-0.73447 0.826281,-0.18362 1.652562,-0.0918 2.478843,0.18362 1.377135,0.0918 2.846079,0.0918 4.406832,0.18361 -0.275427,-1.46894 0.275427,-3.02969 1.468944,-4.03959 2.295225,-2.11161 3.488742,-5.14131 3.580551,-9.36452 C 82.011895,105.8423 75.309838,99.232055 68.240545,92.25457 64.384566,88.398592 60.34497,84.450805 57.5907,79.217692 c -0.642663,-1.285326 -0.734472,-2.75427 -0.09181,-3.947787 0.183618,-0.459045 0.459045,-0.826281 0.734472,-1.193517 l -0.183618,-0.734472 c -0.642663,-2.111607 0.275427,-4.406832 2.203416,-5.416731 2.846079,-1.560753 5.50854,-3.764169 7.803765,-6.334822 0.09181,-0.183618 0.275428,-0.275427 0.459046,-0.459045 0.09181,-0.183618 0.183618,-0.367236 0.367236,-0.459045 0.826281,-1.009899 1.468944,-2.111607 2.111607,-3.213315 0.09181,-0.183618 0.183618,-0.275427 0.275427,-0.459045 l 0.275427,-0.550854 c 0.459045,-0.826281 0.826281,-1.744371 1.193517,-2.75427 0.09181,-0.09181 0.09181,-0.275427 0.183618,-0.367236 0,-0.183618 0.09181,-0.367236 0.09181,-0.550854 0.550854,-1.744371 0.826281,-3.396933 0.826281,-4.957686 0,-1.927989 1.193517,-3.580551 3.029697,-4.223214 0.09181,0 0.275427,-0.09181 0.367236,-0.09181 -0.09181,-0.734472 -0.09181,-1.652562 0.367236,-2.570652 0,-0.09181 0.09181,-0.183618 0.09181,-0.275427 -0.275427,-1.285326 -0.459045,-2.662461 -0.550854,-4.131405 0,-0.550854 0.09181,-1.101708 0.183618,-1.560753 0.367236,-1.193517 0.550854,-1.927989 0.642663,-2.203416 -0.275427,-1.652563 -1.560753,-6.793867 -2.75427,-10.833463 -2.295225,2.662461 -5.416731,6.610248 -9.456328,11.659744 -1.101708,1.468944 -2.937888,2.019798 -4.682259,1.652562 -3.213315,-0.826281 -6.793866,-1.193517 -10.741653,-1.285326 l -0.550854,0 c -3.855978,0 -8.630046,0.459045 -9.639945,0.826281 -1.927989,0.642663 -4.131406,-0.09181 -5.324923,-1.83618 -1.009899,-1.560754 -5.50854,-7.528339 -8.905473,-11.843362 -1.377135,4.039596 -2.846079,8.997282 -3.213315,10.741653 0.09181,0.275427 0.183618,1.101709 0.642663,2.570653 0.09181,0.459045 0.183618,0.91809 0.183618,1.377135 0,1.009899 0,2.846079 -0.550854,4.865877 0,0.09181 0.09181,0.183618 0.09181,0.183618 0.550854,1.101708 0.550854,2.111607 0.275427,3.029697 0,0.09181 0.09181,0.183618 0.09181,0.275427 1.652562,0.642663 2.75427,2.203416 2.937888,4.039596 0.09181,1.560753 0.367236,3.029697 0.826281,4.498641 0.09181,0.183618 0.09181,0.459045 0.183618,0.642663 0.09181,0.09181 0.09181,0.275427 0.183618,0.367236 0.459045,1.101708 0.826281,2.019798 1.285326,2.846079 0.09181,0.09181 0.09181,0.275427 0.183618,0.367236 0.09181,0.183618 0.275427,0.367236 0.367236,0.550854 0.550854,1.009899 1.285326,2.111607 2.111607,3.305124 0.09181,0.183618 0.183618,0.275427 0.275427,0.459045 0.183618,0.183618 0.367236,0.275427 0.459045,0.459045 2.478843,2.937889 5.508541,5.416732 8.813665,6.977485 2.111607,0.91809 3.029697,3.580551 2.019798,5.875776 z M 23.070515,132.46691 c 1.377135,0 2.75427,0.0918 4.406832,0.0918 l 3.488742,0 c -0.09181,-0.73447 -0.275427,-1.10171 -0.367236,-1.28532 -0.183618,-0.0918 -0.459045,-0.0918 -0.826281,-0.0918 -0.642663,0 -1.744371,0.18362 -3.488742,0.82628 -0.91809,0.36723 -1.927989,0.36723 -2.937888,0.0918 -0.09181,0.0918 -0.183618,0.18362 -0.275427,0.36723 z"
     inkscape:connector-curvature="0" />
  <g
     style="fill-rule:evenodd"
     id="g11"
     transform="matrix(0.91809003,0,0,0.91809003,-260.58258,-487.28058)">
    <path
       inkscape:connector-curvature="0"
       d="m 392.16,655.24 c -3.6,3 1.2,7.1 6,6.9 3.8,-0.1 5,3.2 3.2,7.1 -2.2,4.8 -5.8,5.6 -10.6,6.6 -9.9,1.9 -18.8,0.1 -27.9,-0.3 -5.5,-0.2 -5.1,6.1 -0.5,6.3 8.4,0.4 18.6,1.2 27,0.5 6.5,-0.5 13.7,-1.9 17.8,-7.5 8.6,-12 -4.3,-28.6 -15,-19.6 z"
       id="path539" />
    <path
       inkscape:connector-curvature="0"
       d="m 377.76,662.44 c 0.7,-31.4 -24.6,-33.8 -29.3,-54.2 l -13.9,1.9 0,71.5 c 1.7,0.2 3.3,0.3 4.7,0.3 9.5,0.1 38,4.5 38.5,-19.5 z"
       id="path541" />
    <path
       inkscape:connector-curvature="0"
       d="m 338.66,682.14 -5.6,0 c -0.4,-16 -1.3,-27.3 -8.7,-45.7 -0.9,-1.6 -1.2,-3.5 -1,-5.5 0.4,-3.1 2.3,-7.6 3.2,-11 0.7,-2.6 1.7,-10.8 1.7,-10.8 l 21.1,0 c 0,0 2.2,9.3 3.3,12.4 0.9,2.3 2.5,7.8 2.5,8.5 -0.1,1.5 -0.4,3 -1,4.4 -4.5,16.2 -6.6,32.1 -7.7,47.8 l -5.6,0 c 0.1,-4.7 0.9,-38.5 -2.1,-38.5 -3.6,-0.1 -0.4,33.2 -0.1,38.4 z"
       id="path543" />
  </g>
  <path
     style="fill:#ff0000"
     inkscape:connector-curvature="0"
     d="m 39.2289,72.05659 c 3.029697,1.377135 6.42663,1.927989 10.1908,1.83618 3.855978,-0.09181 8.079192,-1.009899 12.669642,-2.387034 l 1.652562,4.957686 c -4.957686,1.652562 -9.731754,2.570652 -14.138586,2.662461 -4.498642,0.09181 -8.721856,-0.550854 -12.486025,-2.295225 L 39.2289,72.05659 Z"
     id="path545" />
  <g
     style="fill-rule:evenodd"
     id="g17"
     transform="matrix(0.91809003,0,0,0.91809003,-260.58258,-487.28058)">
    <path
       inkscape:connector-curvature="0"
       d="m 310.46,544.34 c -1.4,-0.1 -6.9,18.1 -7.1,20.5 -0.1,0.8 0.3,2.6 1,4.6 0,3 -0.3,7.3 -4.2,9.3 3.9,-0.9 5.9,-3.6 2.2,0.6 -0.9,1 -3.1,2.2 -3.1,2.3 0.6,0.1 3.1,0.3 5.3,-1.4 0,1.4 -2.7,5.2 -5.2,5.1 0,0 4.4,1.6 8.1,-2 0.7,13.5 13.8,29 30.2,29.3 17,0.3 31.2,-15.8 31.4,-29.9 3.7,4.4 8.3,2.9 8.7,2.6 -2.6,0.1 -5.3,-3.7 -5.3,-5.1 2.2,1.7 5,1.8 5.3,1.4 0,-0.1 -2.3,-1.3 -3.1,-2.3 -3.7,-4.2 -1.7,-1.5 2.2,-0.6 -3.5,-1.9 -4.1,-5.7 -4.2,-8.6 0.6,-1.8 1,-3.3 0.9,-4.1 -0.1,-2.4 -5,-20.8 -6.4,-20.7 -1.2,0.1 -11.9,13.6 -15,17.5 l -0.9,1.1 c -3.9,-1 -8.2,-1.5 -12.8,-1.6 -4.6,-0.1 -8.9,0.3 -12.8,1.1 -1.6,-2.3 -14.1,-19 -15.2,-19.1 z"
       id="path547" />
    <path
       style="fill:#fa8973"
       inkscape:connector-curvature="0"
       d="m 311.76,549.84 c -0.9,-0.1 -4.6,12.3 -4.8,13.9 -0.2,1.6 2.9,9.8 2.9,9.8 l 9.1,-7.9 -7.2,-15.8 z"
       id="path549" />
    <path
       style="fill:#6c6c6c"
       inkscape:connector-curvature="0"
       d="m 337.56,608.24 0.1,0 c 19.1,0.6 31.5,-22.1 23.8,-32.6 -4.1,-5.5 -13.3,-8.7 -23.6,-1 -10,-8.1 -18.8,-5.2 -23,0.2 -7.7,10.1 4,33.2 22.7,33.4 z"
       id="path551" />
  </g>
  <path
     inkscape:connector-curvature="0"
     d="m 57.68251,59.662374 c 0.367236,0.09181 0.642663,0.367236 0.550854,0.734472 -0.183618,1.836181 -1.101708,3.305125 -2.846079,3.855979 -1.83618,0.550854 -4.223214,-0.09181 -5.692158,-1.193517 -0.91809,0.642663 -2.387035,1.193517 -3.76417,1.285326 -3.029697,0.09181 -4.59045,-1.744371 -4.774068,-4.590451 0,-0.367236 0.275427,-0.642663 0.642663,-0.642663 0.367236,0 0.642663,0.275427 0.642663,0.642663 0.09181,2.203417 1.101708,3.488743 3.396933,3.396934 1.285326,-0.09181 2.570652,-0.550854 3.213316,-1.009899 l 0,-2.387035 1.285326,0 c 0,0.183618 -0.09181,2.203417 -0.09181,2.387035 1.009899,0.91809 3.396933,1.468944 4.682259,1.101708 2.478843,-0.91809 1.468944,-3.76417 2.75427,-3.580552 z"
     id="path553" />
  <path
     style="fill:#fa8973;fill-rule:evenodd"
     inkscape:connector-curvature="0"
     d="m 75.309838,17.70566 c 0.826281,0 3.305124,11.567934 3.396933,13.036879 0,1.468944 -3.396933,8.721855 -3.396933,8.721855 L 67.597882,31.56882 75.309838,17.70566 Z"
     id="path555" />
  <path
     style="fill:#b2b2b2"
     inkscape:connector-curvature="0"
     d="m 79.441244,55.530969 -0.459046,0.09181 C 72.188332,53.60298 64.843612,56.632677 61.263061,58.652475 l -0.826281,-0.275427 0.183618,-0.826281 c 3.488742,-2.019798 12.118788,-5.416731 18.637228,-3.121506 l 0.459045,0.734472 -0.275427,0.367236 z m 2.846079,6.334822 c -0.826281,0.550854 -2.295225,-1.836181 -9.180901,-2.478844 -8.538237,-0.826281 -10.833462,1.744372 -11.292507,0.09181 l 0,-0.367236 0.367236,-0.275427 c 4.59045,-1.101708 13.404114,-1.652562 20.014363,1.92799 0.367236,0.183618 0.459045,0.826281 0.09181,1.101708 z m -7.43653,4.131405 -0.459045,0.09181 c -0.09181,0 -0.183618,-0.09181 -0.275427,-0.09181 -4.039596,-2.387034 -7.252911,-3.67236 -12.210597,-3.67236 -0.183618,0 -0.367236,-0.09181 -0.459045,-0.183618 -0.459045,-0.459045 -0.09181,-1.101708 0.459045,-1.101708 4.59045,0 9.089091,1.377135 12.945069,3.947787 0.183618,0.09181 0.275427,0.275427 0.275427,0.459045 0,0.183618 0,0.367236 -0.09181,0.459045 l -0.183618,0.09181 z"
     id="path557" />
  <path
     style="fill:#b2b2b2"
     inkscape:connector-curvature="0"
     d="m 20.316246,55.530969 0.459045,0.09181 c 6.793866,-2.019798 14.138586,1.009899 17.719137,3.029697 l 0.826281,-0.275427 -0.183618,-0.826281 C 35.648349,55.530969 27.018303,52.134036 20.499864,54.429261 l -0.459045,0.734472 0.275427,0.367236 z m -2.84608,6.334822 c 0.826282,0.550854 2.295226,-1.836181 9.180901,-2.478844 8.538237,-0.826281 10.833462,1.744372 11.292507,0.09181 l 0,-0.367236 -0.367236,-0.275427 c -4.59045,-1.101708 -13.404114,-1.652562 -20.014363,1.92799 -0.367236,0.183618 -0.459045,0.826281 -0.09181,1.101708 z m 7.43653,4.131405 0.459045,0.09181 c 0.09181,0 0.183618,-0.09181 0.275427,-0.09181 4.039596,-2.387034 7.252911,-3.67236 12.210597,-3.67236 0.183618,0 0.367236,-0.09181 0.459045,-0.183618 0.459045,-0.459045 0.09181,-1.101708 -0.459045,-1.101708 -4.59045,0 -9.089091,1.377135 -12.945069,3.947787 -0.183618,0.09181 -0.275427,0.275427 -0.275427,0.459045 -0.09181,0.183618 0,0.367236 0.09181,0.459045 l 0.183618,0.09181 z"
     id="path559" />
  <path
     inkscape:connector-curvature="0"
     d="m 49.695127,55.163733 c 0.459045,-0.826281 0.91809,-1.285326 1.927989,-1.285326 1.101708,0 2.019798,0.734472 2.019798,1.652562 0,1.652562 -2.019798,3.396933 -3.947787,5.049496 -2.019799,-1.652563 -3.947788,-3.396934 -3.947788,-5.049496 0,-0.91809 0.91809,-1.652562 2.019798,-1.652562 0.918091,0 1.468945,0.367236 1.92799,1.285326 z"
     id="path561" />
  <g
     style="fill-rule:evenodd"
     id="g27"
     transform="matrix(0.91809003,0,0,0.91809003,-260.58258,-487.28058)">
    <path
       style="fill:#00cbff"
       inkscape:connector-curvature="0"
       d="m 321.46,575.54 c -3.3,1.2 -4.9,4.1 -4.9,4.1 0,0 0.5,7 6.7,9 6.2,2.1 11.1,-1.4 11.1,-1.4 0,0 0.6,-3.5 -0.8,-6.7 -0.9,-2 -2.6,-4 -5.9,-4.9 -2.6,-0.9 -4.6,-0.7 -6.2,-0.1 z"
       id="path563" />
    <path
       inkscape:connector-curvature="0"
       d="m 323.56,588.74 c 1.3,0.4 2.5,0.6 3.6,0.6 0.9,-1.6 1.7,-4 1.7,-6.6 0,-3.1 -1.3,-5.8 -2.3,-7.5 -0.7,-0.1 -1.4,-0.2 -2.1,-0.2 -1,1.6 -2.4,4.5 -2.4,7.7 0,2.3 0.7,4.4 1.5,6 z"
       id="path565" />
    <path
       style="fill:#ffffff"
       inkscape:connector-curvature="0"
       d="m 324.36,577.44 c 1.1,0.3 1.7,1.4 1.4,2.5 -0.3,1 -1.4,1.6 -2.5,1.3 -1.1,-0.3 -1.7,-1.4 -1.4,-2.5 0.3,-1 1.4,-1.6 2.5,-1.3 z"
       id="path567" />
    <path
       inkscape:connector-curvature="0"
       d="m 321.46,575.54 c -3.3,1.2 -4.9,4.1 -4.9,4.1 0,0 -0.2,1.1 0.1,0.7 1.6,-1.9 12.8,-6.4 17.6,6.6 0.1,-0.9 0.3,-3.8 -0.9,-6.5 -0.9,-2 -2.6,-4 -5.9,-4.9 -2.4,-0.8 -4.4,-0.6 -6,0 z"
       id="path569" />
    <path
       style="fill:#ffffff"
       inkscape:connector-curvature="0"
       d="m 327.56,586.74 c 0.6,0.2 0.9,0.7 0.7,1.3 -0.2,0.5 -0.8,0.8 -1.3,0.7 -0.6,-0.1 -0.9,-0.7 -0.7,-1.2 0.2,-0.6 0.8,-0.9 1.3,-0.8 z"
       id="path571" />
    <path
       style="fill:#00cbff"
       inkscape:connector-curvature="0"
       d="m 354.46,575.54 c 3.3,1.2 4.9,4.1 4.9,4.1 0,0 -0.5,7 -6.7,9 -6.2,2.1 -11.1,-1.4 -11.1,-1.4 0,0 -0.6,-3.5 0.8,-6.7 0.9,-2 2.6,-4 5.9,-4.9 2.5,-0.9 4.6,-0.7 6.2,-0.1 z"
       id="path573" />
    <path
       inkscape:connector-curvature="0"
       d="m 352.36,588.74 c -1.3,0.4 -2.5,0.6 -3.6,0.6 -0.9,-1.6 -1.7,-4 -1.7,-6.6 0,-3.1 1.3,-5.8 2.3,-7.5 0.7,-0.1 1.4,-0.2 2.1,-0.2 1,1.6 2.4,4.5 2.4,7.7 0,2.3 -0.7,4.4 -1.5,6 z"
       id="path575" />
    <path
       style="fill:#ffffff"
       inkscape:connector-curvature="0"
       d="m 351.56,577.44 c -1.1,0.3 -1.7,1.4 -1.4,2.5 0.3,1 1.4,1.6 2.5,1.3 1.1,-0.3 1.7,-1.4 1.4,-2.5 -0.3,-1 -1.4,-1.6 -2.5,-1.3 z"
       id="path577" />
    <path
       inkscape:connector-curvature="0"
       d="m 354.46,575.54 c 3.3,1.2 4.9,4.1 4.9,4.1 0,0 0.2,1.1 -0.1,0.7 -1.7,-1.9 -12.9,-6.4 -17.7,6.6 -0.1,-0.9 -0.3,-3.8 0.9,-6.5 0.9,-2 2.6,-4 5.9,-4.9 2.4,-0.8 4.5,-0.6 6.1,0 z"
       id="path579" />
    <path
       style="fill:#ffffff"
       inkscape:connector-curvature="0"
       d="m 348.26,586.74 c -0.6,0.2 -0.9,0.7 -0.7,1.3 0.1,0.5 0.7,0.8 1.3,0.7 0.6,-0.1 0.9,-0.7 0.7,-1.2 -0.1,-0.6 -0.7,-0.9 -1.3,-0.8 z"
       id="path581" />
    <path
       inkscape:connector-curvature="0"
       d="m 357.26,577.94 c 1,-0.1 4.1,-0.3 4.9,-2 -0.8,2.9 -4.3,2.7 -4.8,2.6 l -0.1,-0.6 z"
       id="path583" />
    <path
       inkscape:connector-curvature="0"
       d="m 358.36,578.44 c 1,0 4.1,0.1 5,-1.6 -1,2.8 -4.5,2.3 -4.9,2.3 l -0.1,-0.7 z"
       id="path585" />
    <path
       inkscape:connector-curvature="0"
       d="m 355.66,577.64 c 1,-0.2 4.1,-0.6 4.8,-2.4 -0.6,2.9 -4.1,3 -4.6,3 l -0.2,-0.6 z"
       id="path587" />
    <path
       inkscape:connector-curvature="0"
       d="m 319.06,577.94 c -1,-0.1 -4.1,-0.3 -4.9,-2 0.8,2.9 4.3,2.7 4.8,2.6 l 0.1,-0.6 z"
       id="path589" />
    <path
       inkscape:connector-curvature="0"
       d="m 317.96,578.44 c -1,0 -4.1,0.1 -5,-1.6 1,2.8 4.5,2.3 4.9,2.3 l 0.1,-0.7 z"
       id="path591" />
    <path
       inkscape:connector-curvature="0"
       d="m 320.66,577.64 c -1,-0.2 -4.1,-0.6 -4.8,-2.4 0.6,2.9 4.1,3 4.6,3 l 0.2,-0.6 z"
       id="path593" />
    <path
       inkscape:connector-curvature="0"
       d="m 306.96,666.44 c 1.9,0 3.5,1.4 3.7,3.3 3.3,-1.2 6.6,-1.7 9.1,-0.4 2.4,1.2 3.2,5.1 3.2,10.2 0,0.9 -21.5,0.8 -24.9,-0.5 l -0.3,0 c -0.8,0 -1.5,-0.7 -1.5,-1.5 0,-0.8 0.7,-1.5 1.5,-1.5 0.6,0 1.1,0.3 1.3,0.8 1.2,-1.1 3.2,-2.6 5.4,-4.1 -0.8,-0.7 -1.2,-1.6 -1.2,-2.7 0,-1.9 1.6,-3.6 3.7,-3.6 z"
       id="path595" />
  </g>
  <path
     inkscape:connector-curvature="0"
     d="m 34.271214,131.91606 c 2.111607,0 4.498641,0.45904 6.059394,1.28533 0.642663,0.36723 1.101708,0.73447 1.468944,1.28532 0.367236,0.64266 0.459045,1.19352 0.09181,1.92799 -0.275427,0.55085 -0.826281,1.10171 -1.744371,1.74437 1.285326,1.19352 11.476126,1.0099 11.751553,0.45905 l 0.367236,0.27542 0,0.18362 0.367236,0 c -2.846079,0.64267 -5.967586,1.10171 -10.833463,0.82628 -1.83618,-0.0918 -3.396933,-0.55085 -3.764169,-1.1017 -0.367236,-0.64267 -0.09181,-1.19352 0.91809,-1.83619 0.91809,-0.45904 1.377135,-0.91809 1.560753,-1.28532 0.09181,-0.18362 0.09181,-0.27543 0,-0.45905 -0.09181,-0.18361 -0.459045,-0.45904 -0.826281,-0.64266 -1.285326,-0.64266 -3.396933,-1.10171 -5.233113,-1.10171 l -0.183618,-1.56075 z"
     id="path597" />
  <g
     style="fill-rule:evenodd"
     id="g47"
     transform="matrix(0.91809003,0,0,0.91809003,-260.58258,-487.28058)">
    <path
       style="fill:#6c6c6c"
       inkscape:connector-curvature="0"
       d="m 338.96,682.24 c -0.3,-2.7 -1.5,-5.5 -5.4,-5.8 -2.8,-0.2 -5,2 -4.4,5.8 l 9.8,0 z"
       id="path599" />
    <path
       style="fill:#ffffff"
       inkscape:connector-curvature="0"
       d="m 304.16,677.34 c 0.6,0 1.1,-0.5 1.1,-1.1 0,-0.6 -0.5,-1.1 -1.1,-1.1 -0.6,0 -1.1,0.5 -1.1,1.1 -0.1,0.6 0.5,1.1 1.1,1.1 z"
       id="path601" />
    <path
       inkscape:connector-curvature="0"
       d="m 304.16,676.84 c 0.3,0 0.6,-0.3 0.6,-0.6 0,-0.3 -0.3,-0.6 -0.6,-0.6 -0.3,0 -0.6,0.3 -0.6,0.6 0,0.4 0.2,0.6 0.6,0.6 z"
       id="path603" />
    <path
       style="fill:#6c6c6c"
       inkscape:connector-curvature="0"
       d="m 348.06,682.24 c -0.3,-2.7 -1.5,-5.5 -5.4,-5.8 -2.8,-0.2 -5,2 -4.4,5.8 l 9.8,0 z"
       id="path605" />
  </g>
</svg>
