<?xml version="1.0" encoding="UTF-8" standalone="no"?>
<!-- Created with Inkscape (http://www.inkscape.org/) -->

<svg
   xmlns:dc="http://purl.org/dc/elements/1.1/"
   xmlns:cc="http://creativecommons.org/ns#"
   xmlns:rdf="http://www.w3.org/1999/02/22-rdf-syntax-ns#"
   xmlns:svg="http://www.w3.org/2000/svg"
   xmlns="http://www.w3.org/2000/svg"
   xmlns:sodipodi="http://sodipodi.sourceforge.net/DTD/sodipodi-0.dtd"
   xmlns:inkscape="http://www.inkscape.org/namespaces/inkscape"
   id="svg6018"
   height="57mm"
   width="35mm"
   version="1.1"
   viewBox="0 0 124.01575 201.96849"
   inkscape:version="0.91 r13725"
   sodipodi:docname="cat_9.svg">
  <defs
     id="defs91" />
  <sodipodi:namedview
     pagecolor="#ffffff"
     bordercolor="#666666"
     borderopacity="1"
     objecttolerance="10"
     gridtolerance="10"
     guidetolerance="10"
     inkscape:pageopacity="0"
     inkscape:pageshadow="2"
     inkscape:window-width="1510"
     inkscape:window-height="747"
     id="namedview89"
     showgrid="false"
     inkscape:zoom="1.168499"
     inkscape:cx="-229.8195"
     inkscape:cy="100.98425"
     inkscape:window-x="0"
     inkscape:window-y="0"
     inkscape:window-maximized="0"
     inkscape:current-layer="svg6018" />
  <metadata
     id="metadata6023">
    <rdf:RDF>
      <cc:Work
         rdf:about="">
        <dc:format>image/svg+xml</dc:format>
        <dc:type
           rdf:resource="http://purl.org/dc/dcmitype/StillImage" />
        <dc:title />
      </cc:Work>
    </rdf:RDF>
  </metadata>
  <g
     style="fill:#676766"
     transform="matrix(0.92404066,0,0,0.92404066,-581.94565,-515.49076)"
     id="g1391">
    <path
       style="fill-rule:evenodd"
       inkscape:connector-curvature="0"
       d="m 675.7,598.1 c 0,-0.2 0.2,-0.4 0.4,-0.4 l 0.2,0 c 2.6,-1.8 5.5,-3.2 8.5,-4.3 0,-2.9 0.1,-5.7 0.5,-8.5 0.2,-1.4 0.6,-9.9 1,-10 1.2,0.2 0.1,8.5 -0.1,10 -0.3,2.7 -0.4,5.4 -0.4,8.2 3.7,-1.2 7.5,-1.8 11.6,-1.8 3.8,0 7.5,0.5 10.9,1.6 0,-2.7 -0.1,-5.3 -0.4,-7.9 -0.2,-1.5 -1.4,-9.8 -0.1,-10 0.4,0.1 0.9,8.6 1,10 0.3,2.7 0.4,5.5 0.5,8.2 12.8,4.2 22.4,15 24.5,28.2 l 11.1,0 1.1,0 0,28.7 c 0.1,1.7 0.2,3.4 0.2,5.1 1.9,2.1 2.9,4.4 2.9,6.7 0,2.4 -1.1,4.8 -3.1,6.9 l 0,0.1 c 0.1,0.1 0.2,0.2 0.2,0.3 l 0,0.8 0,0.7 0,0.1 c 0,0.1 0,0.1 -0.1,0.2 0.8,0.4 1.3,1.3 1.3,2.2 0.5,0 1,0 1.4,0.3 l 0.6,-0.3 0.6,-0.4 c 0.1,-0.1 0.3,-0.1 0.4,0 0.2,0.1 0.3,0.4 0.1,0.6 l -0.4,0.6 -0.3,0.5 c 0.5,1.1 0.3,2.6 -0.7,3.6 l 0,0.1 c 0.1,0.1 0.1,0.2 0.2,0.3 0.1,0.2 0.2,0.3 0.2,0.5 l 0.6,-0.1 0.7,-0.1 c 0.1,0 0.3,0 0.4,0.1 0.1,0.2 0.1,0.5 0,0.6 l -0.6,0.5 -0.5,0.5 -0.1,0.1 c -0.1,0.1 -0.3,0 -0.5,-0.1 -0.2,0.7 -0.6,1.3 -1.2,1.7 -0.5,0.3 -0.9,0.5 -1.4,0.5 -0.1,0 -0.1,0.1 -0.2,0.1 -4.2,5.3 -10.7,14.1 -17,22.9 -0.3,4.6 -2.6,10.6 -5.2,13.5 -4.4,4.8 -17.5,9.4 -25.7,9.6 -0.3,11.7 1.7,23.2 9.3,25.4 4.1,1.2 7.7,-0.5 5.5,-5.6 -1.8,-4.1 3,-8.1 5.9,-5.1 15,15.5 -23.6,30.9 -26.9,1.4 -0.3,-2.9 -0.2,-9.3 0.4,-16.2 -8.1,-1 -18.8,-5.1 -22.6,-9.4 -2.6,-2.9 -4.8,-8.9 -5.2,-13.5 -6.3,-8.8 -12.8,-17.6 -17,-22.9 -0.1,-0.1 -0.1,-0.1 -0.2,-0.1 -0.5,-0.1 -1,-0.2 -1.4,-0.5 -0.6,-0.4 -1,-1 -1.2,-1.7 -0.1,0.1 -0.3,0.1 -0.4,0.1 -0.1,0 -0.1,-0.1 -0.1,-0.1 l -0.5,-0.5 -0.5,-0.5 c -0.2,-0.1 -0.2,-0.4 -0.1,-0.6 0.1,-0.1 0.3,-0.1 0.4,-0.1 l 0.7,0.1 0.6,0.1 c 0.1,-0.2 0.1,-0.3 0.2,-0.5 0.1,-0.1 0.1,-0.2 0.2,-0.3 l -0.1,-0.1 c -1,-1 -1.2,-2.5 -0.7,-3.6 l -0.3,-0.5 -0.4,-0.6 c -0.1,-0.2 -0.1,-0.5 0.1,-0.6 0.1,-0.1 0.3,-0.1 0.4,0 l 0.6,0.4 0.6,0.3 c 0.4,-0.2 0.9,-0.3 1.4,-0.3 0.1,-1 0.5,-1.8 1.3,-2.2 0,-0.1 -0.1,-0.1 -0.1,-0.2 l 0,-0.1 0,-0.7 0,-0.8 c 0,-0.1 0.1,-0.3 0.2,-0.3 l 0,-2.5 c -0.3,-0.5 -0.4,-3 -0.4,-3.3 0,-4.4 0.2,-8.7 0.4,-13 l 0,-28.7 1.1,0 11,0 c 1.5,-9.7 7,-18 14.7,-23.4 z M 651.8,672 Z m 61,-93.4 c 0.1,-1.7 0.3,-4.5 0.7,-4.6 0.3,0.1 0.1,2.9 0.1,4.6 -0.2,4.7 0.6,9.3 0.3,14.2 0,0.1 -0.1,1.2 -0.5,1.5 l -0.1,0 c -0.5,0 -0.4,-1.4 -0.4,-1.5 0.3,-4.8 -0.4,-9.5 -0.1,-14.2 z m 5,-3.1 c 0.4,0.1 0.8,8.3 1,9.7 0.4,3.2 0.5,6.4 0.5,9.6 0,0.1 -0.1,1.3 -0.4,1.5 l -0.1,0.1 c -0.5,0 -0.5,-1.4 -0.5,-1.6 0,-3.3 0,-6.4 -0.4,-9.6 -0.2,-1.5 -1.4,-9.5 -0.1,-9.7 z m 4.1,2.4 c 0.4,0.1 0.2,8.6 0.2,10 0.2,3.3 0,6.6 -0.3,10 0,0.1 -0.1,1.3 -0.5,1.6 l -0.1,0 c -0.4,0 -0.4,-1.4 -0.4,-1.6 0.3,-3.5 0.5,-6.7 0.4,-10 0,-1.5 -0.6,-9.8 0.7,-10 z m -76.2,57.2 c -0.4,0.1 -0.9,13.6 -1,15.9 -0.4,5.3 -0.5,10.5 -0.5,15.9 0,0.2 0.1,2.1 0.4,2.5 l 0.1,0.1 c 0.4,0 0.5,-2.3 0.5,-2.6 0,-5.5 0,-10.6 0.4,-15.9 0.1,-2.4 1.3,-15.5 0.1,-15.9 z m -4.1,-5.7 c -0.4,0.2 -0.2,17.9 -0.3,20.9 -0.1,6.9 0.1,13.8 0.3,20.8 0,0.3 0.2,2.7 0.5,3.3 0,0.1 0.1,0.1 0.1,0.1 0.4,0 0.4,-3 0.3,-3.3 -0.3,-7.2 -0.5,-13.9 -0.4,-20.8 0.2,-3.3 0.7,-20.5 -0.5,-21 z m 107.5,-5 c 0.4,0.1 0.9,15.3 1,17.8 0.4,5.9 0.5,11.8 0.5,17.8 0,0.3 -0.1,2.3 -0.4,2.8 0,0.1 -0.1,0.1 -0.1,0.1 -0.4,0 -0.5,-2.6 -0.5,-2.9 0,-6.2 0,-11.8 -0.4,-17.8 -0.1,-2.7 -1.3,-17.4 -0.1,-17.8 z m 4.1,5 c 0.4,0.2 0.2,17.9 0.3,20.9 0.1,6.9 -0.1,13.8 -0.3,20.8 0,0.3 -0.1,2.7 -0.5,3.3 l -0.1,0.1 c -0.4,0 -0.4,-3 -0.4,-3.3 0.3,-7.2 0.5,-13.9 0.4,-20.8 -0.1,-3.3 -0.6,-20.5 0.6,-21 z m -71.8,-51.1 c -0.1,-1.6 -0.4,-4.2 -0.8,-4.3 -0.3,0.1 -0.1,2.7 0,4.3 0.3,4.4 -0.5,8.7 -0.1,13.2 0,0.1 0.1,1.1 0.5,1.4 l 0.1,0 c 0.4,0 0.4,-1.2 0.4,-1.4 -0.4,-4.5 0.3,-8.8 -0.1,-13.2 z m -5.1,-2.8 c -0.4,0.1 -0.9,7.9 -1,9.2 -0.4,3.1 -0.5,6.1 -0.5,9.2 0,0.1 0.1,1.2 0.4,1.4 l 0.1,0.1 c 0.4,0 0.5,-1.4 0.5,-1.5 0,-3.2 0,-6.2 0.4,-9.2 0.2,-1.4 1.4,-9 0.1,-9.2 z m -4.1,2.4 c -0.4,0.1 -0.2,8.6 -0.3,10 -0.1,3.3 0.1,6.6 0.3,10 0,0.1 0.1,1.3 0.5,1.6 l 0.1,0 c 0.4,0 0.4,-1.4 0.4,-1.6 -0.3,-3.5 -0.5,-6.7 -0.4,-10 0.2,-1.5 0.7,-9.8 -0.6,-10 z"
       id="path1393" />
    <path
       inkscape:connector-curvature="0"
       d="m 708.5,767.5 c -9,0 -20.1,-5.8 -21.9,-22.1 -0.3,-2.5 -0.3,-6.8 0,-12 -7.9,-1.9 -16.6,-5.7 -20.7,-10.2 -3.5,-3.9 -5.8,-10.3 -6.5,-15.3 -5.9,-8.3 -11.2,-15.4 -14.8,-20 -0.5,-0.2 -1,-0.5 -1.4,-0.8 -0.7,-0.5 -1.4,-1.1 -2,-1.8 -0.2,-0.1 -0.3,-0.3 -0.5,-0.4 l -1,-0.9 c -1.7,-1.5 -2.4,-3.6 -2.1,-5.7 l -0.6,-0.9 c -0.8,-1.4 -1.1,-3 -1.3,-5.6 l 0,-0.1 0,-0.3 c -0.2,-6.4 -0.5,-13.8 -0.3,-21.2 l 0,-6.2 0,-9.6 c 0.1,-5.8 0.1,-8.9 4,-10.5 1.1,-0.4 2.3,-0.5 3.5,-0.3 l 0,-2.2 c 0,-3.3 2.7,-6 6,-6 l 7.4,0 c 1.9,-6.5 5.4,-12.3 10.1,-17.1 -0.3,-3.3 -0.5,-6.8 -0.3,-10.6 l 0,-0.1 0,-2.6 0,-4.7 c 0,-2 0.2,-7.5 5.4,-8.2 0.8,-1.2 2.1,-2.1 4.1,-2.4 0.3,0 0.7,-0.1 1,0 0.7,-0.6 1.6,-1.1 2.8,-1.3 0.7,-0.2 1.5,-0.2 2.2,-0.1 1.2,0.2 2.1,0.6 2.8,1.1 0.3,-0.1 0.5,-0.2 0.8,-0.2 0.7,-0.1 1.5,-0.2 2.2,0 5.9,1.1 5.6,7.8 5.4,10 -0.1,2.2 -0.4,4.6 -0.6,5.9 l -0.1,0.7 c 3.2,-0.4 6.6,-0.4 9.8,-0.1 l -0.1,-0.6 c -0.2,-1.3 -0.5,-3.7 -0.6,-5.9 -0.1,-2.2 -0.5,-8.9 5.4,-10 0.7,-0.1 1.5,-0.1 2.2,0 0.3,0.1 0.6,0.1 0.8,0.2 0.6,-0.5 1.4,-0.8 2.4,-1.1 0.9,-0.2 1.8,-0.2 2.6,0 1.2,0.3 2.1,0.7 2.8,1.3 0.3,0 0.7,0 1,0.1 2,0.3 3.2,1.2 4,2.4 5.3,0.7 5.4,6.1 5.4,8.4 l 0,4.9 0,2.3 c 0.2,3.4 0,6.8 -0.3,9.9 5,4.9 8.8,11 10.7,17.8 l 7.4,0 c 2.4,0 4.5,1.4 5.5,3.5 2.3,0.9 3.2,2.6 3.7,4.9 0.1,0 0.3,0.1 0.4,0.1 3.9,1.6 4,4.7 4,10.5 l 0,9.6 0,6.2 c 0.2,7.4 -0.1,14.5 -0.3,21.1 0,1.3 -0.2,4.4 -1.4,6.3 -0.2,0.2 -0.3,0.5 -0.5,0.7 0.2,1.9 -0.4,3.9 -1.8,5.4 -0.1,0.1 -0.2,0.2 -0.4,0.3 l -0.9,0.8 c -0.2,0.2 -0.3,0.3 -0.5,0.4 -0.6,0.7 -1.3,1.4 -2.1,1.9 -0.4,0.3 -0.9,0.5 -1.4,0.8 -3.6,4.6 -8.7,11.6 -14.8,20 -0.8,5.6 -3.4,11.8 -6.5,15.3 -4.7,5.2 -15.3,9.4 -24.1,11 0.3,5.5 1.2,9.4 2.4,11.7 0.1,-1.7 0.7,-3.4 1.7,-4.9 1.9,-2.9 5,-4.6 8.2,-4.6 2.5,0 4.8,1 6.6,2.8 5,5.1 6.4,11.3 4,16.9 -2.4,6.7 -10.4,11.4 -18.9,11.4 z M 651.8,678 c 0.2,0.2 0.4,0.3 0.6,0.5 l 0.5,0.5 c 5.2,6.6 13,17.3 17.1,23.1 0.6,0.9 1,1.9 1.1,3 0.3,3.7 2.2,8.3 3.7,10 2.4,2.6 11.2,6.5 18.9,7.4 0.9,0.1 1.7,0.4 2.4,0.8 0.8,-0.4 1.7,-0.6 2.6,-0.7 7.3,-0.1 18.5,-4.5 21.4,-7.6 1.5,-1.6 3.4,-6.3 3.6,-9.9 0.1,-1.1 0.5,-2.2 1.1,-3.1 4.2,-5.8 12,-16.6 17.2,-23.2 0.3,-0.4 0.7,-0.8 1.2,-1.1 l 0,-0.4 c -0.6,-0.7 -1.1,-1.5 -1.4,-2.3 -0.8,-0.9 -1.3,-1.9 -1.5,-3.1 -0.1,-0.6 -0.1,-1.1 0,-1.7 -0.1,-0.5 -0.2,-1 -0.2,-1.5 0,-1.5 0.6,-3.1 1.6,-4.2 0.7,-0.7 1.5,-1.8 1.5,-2.9 0,-1 -0.7,-2 -1.4,-2.7 -0.9,-1 -1.5,-2.4 -1.5,-3.8 -0.1,-1.6 -0.1,-3.2 -0.2,-4.7 l 0,-0.2 0,-0.3 0,-22.7 -6.2,0 c -3,0 -5.5,-2.1 -5.9,-5.1 -1.7,-10.8 -9.5,-19.8 -20.4,-23.4 -0.1,0 -0.3,-0.1 -0.4,-0.2 -0.1,0 -0.3,-0.1 -0.4,-0.1 -6.1,-1.8 -12.9,-1.8 -19,0.2 -0.1,0 -0.2,0.1 -0.4,0.1 -0.2,0.1 -0.3,0.1 -0.5,0.2 -2.5,0.9 -4.9,2.1 -7.1,3.6 l -0.1,0 c -0.1,0.1 -0.2,0.2 -0.4,0.3 -6.7,4.7 -11,11.5 -12.3,19.3 -0.5,2.9 -3,5 -5.9,5 l -6.2,0 0,22.7 0,0.3 c -0.2,4.1 -0.4,8.4 -0.4,12.7 0,0.3 0,1 0.1,1.4 0.2,0.6 0.3,1.2 0.3,1.8 l 0,0.4 c 1.1,0.6 2,1.7 2.5,2.9 0.9,2.2 0.4,4.8 -1.3,6.5 -1.2,1.6 -2.7,2.2 -4.3,2.2 z"
       id="path1395" />
  </g>
  <path
     id="path1399"
     d="m 42.428624,37.177959 c 0,-0.184808 0.184808,-0.369617 0.369616,-0.369617 l 0.184808,0 c 2.402506,-1.663273 5.082224,-2.95693 7.854346,-3.973374 0,-2.679718 0.0924,-5.267032 0.46202,-7.854346 0.184808,-1.293657 0.554425,-9.148002 0.924041,-9.240407 1.108849,0.184809 0.0924,7.854346 -0.0924,9.240407 -0.277212,2.49491 -0.369616,4.98982 -0.369616,7.577133 3.41895,-1.108848 6.930305,-1.663273 10.718871,-1.663273 3.511355,0 6.930305,0.462021 10.072043,1.478465 0,-2.494909 -0.0924,-4.897415 -0.369616,-7.299921 -0.184808,-1.386061 -1.293657,-9.055598 -0.0924,-9.240406 0.369616,0.0924 0.831637,7.946749 0.924041,9.240406 0.277212,2.49491 0.369616,5.082224 0.46202,7.577134 11.827721,3.88097 20.698511,13.860609 22.638996,26.057946 l 10.256854,0 1.01644,0 0,26.519967 c 0.0924,1.570869 0.18481,3.141738 0.18481,4.712607 1.75568,1.940486 2.67972,4.065779 2.67972,6.191073 0,2.217697 -1.01645,4.435397 -2.86453,6.375877 l 0,0.0924 c 0.0924,0.0924 0.18481,0.18481 0.18481,0.27721 l 0,0.73923 0,0.64683 0,0.0924 c 0,0.0924 0,0.0924 -0.0924,0.18481 0.73923,0.36962 1.20125,1.20126 1.20125,2.03289 0.46202,0 0.92404,0 1.29366,0.27721 l 0.55442,-0.27721 0.55443,-0.36961 c 0.0924,-0.0924 0.27721,-0.0924 0.36961,0 0.18481,0.0924 0.27721,0.36961 0.0924,0.55442 l -0.36962,0.55442 -0.27721,0.46203 c 0.46202,1.01644 0.27721,2.4025 -0.64683,3.32654 l 0,0.0924 c 0.0924,0.0924 0.0924,0.1848 0.18481,0.27721 0.0924,0.18481 0.1848,0.27721 0.1848,0.46202 l 0.55443,-0.0924 0.64683,-0.0924 c 0.0924,0 0.27721,0 0.36961,0.0924 0.0924,0.18481 0.0924,0.46202 0,0.55443 l -0.55442,0.46202 -0.46202,0.46202 -0.0924,0.0924 c -0.0924,0.0924 -0.27722,0 -0.46203,-0.0924 -0.1848,0.64683 -0.55442,1.20125 -1.10884,1.57087 -0.46202,0.27721 -0.83164,0.46202 -1.29366,0.46202 -0.0924,0 -0.0924,0.0924 -0.18481,0.0924 -3.88097,4.89742 -9.887234,13.02898 -15.70869,21.16053 -0.277213,4.25059 -2.402506,9.79483 -4.805012,12.47455 -4.065779,4.4354 -16.170711,8.68598 -23.747845,8.87079 -0.277212,10.81128 1.570869,21.43775 8.593578,23.47064 3.788567,1.10884 7.115113,-0.46202 5.082224,-5.17463 -1.663273,-3.78857 2.772122,-7.48473 5.45184,-4.71261 13.86061,14.32263 -21.80736,28.55286 -24.856694,1.29366 -0.277212,-2.67972 -0.184808,-8.59358 0.369616,-14.96946 -7.484729,-0.92404 -17.371964,-4.71261 -20.883319,-8.68598 -2.402505,-2.67972 -4.435395,-8.22397 -4.805011,-12.47455 -5.821456,-8.13156 -11.82772,-16.26312 -15.708691,-21.16053 -0.0924,-0.0924 -0.0924,-0.0924 -0.184808,-0.0924 -0.462021,-0.0924 -0.924041,-0.18481 -1.293657,-0.46202 -0.554425,-0.36961 -0.924041,-0.92404 -1.108849,-1.57087 -0.0924,0.0924 -0.277212,0.0924 -0.369616,0.0924 -0.0924,0 -0.0924,-0.0924 -0.0924,-0.0924 l -0.462021,-0.46202 -0.46202,-0.46202 c -0.184808,-0.0924 -0.184808,-0.36961 -0.0924,-0.55442 0.0924,-0.0924 0.277212,-0.0924 0.369616,-0.0924 l 0.646829,0.0924 0.554424,0.0924 c 0.0924,-0.18481 0.0924,-0.27721 0.184808,-0.46202 0.0924,-0.0924 0.0924,-0.18481 0.184808,-0.27721 l -0.0924,-0.0924 c -0.92404,-0.92405 -1.108849,-2.31011 -0.646828,-3.32655 l -0.277212,-0.46202 -0.369617,-0.55443 c -0.0924,-0.1848 -0.0924,-0.46202 0.0924,-0.55442 0.0924,-0.0924 0.277213,-0.0924 0.369617,0 l 0.554424,0.36962 0.554424,0.27721 c 0.369617,-0.18481 0.831637,-0.27721 1.293657,-0.27721 0.0924,-0.92404 0.462021,-1.66328 1.201253,-2.03289 0,-0.0924 -0.0924,-0.0924 -0.0924,-0.18481 l 0,-0.0924 0,-0.64682 0,-0.73924 c 0,-0.0924 0.0924,-0.27721 0.184808,-0.27721 l 0,-2.3101 c -0.277212,-0.46202 -0.369616,-2.772122 -0.369616,-3.049334 0,-4.065779 0.184808,-8.039154 0.369616,-12.012529 l 0,-26.519967 1.016445,0 10.164447,0 C 30.231287,49.837316 35.313511,42.167778 42.428624,37.177959 Z M 20.344052,105.46456 Z m 56.36648,-86.305394 c 0.0924,-1.570869 0.277213,-4.158183 0.646829,-4.250587 0.277212,0.0924 0.0924,2.679718 0.0924,4.250587 -0.184808,4.342991 0.554424,8.593578 0.277212,13.121377 0,0.0924 -0.0924,1.108849 -0.46202,1.386061 l -0.0924,0 c -0.462021,0 -0.369616,-1.293657 -0.369616,-1.386061 0.277212,-4.435395 -0.369617,-8.778386 -0.0924,-13.121377 z m 4.620204,-2.864526 c 0.369616,0.0924 0.739232,7.669537 0.92404,8.963194 0.369617,2.95693 0.462021,5.91386 0.462021,8.870791 0,0.0924 -0.0924,1.201252 -0.369617,1.386061 l -0.0924,0.0924 c -0.46202,0 -0.46202,-1.293657 -0.46202,-1.478465 0,-3.049335 0,-5.913861 -0.369616,-8.870791 -0.184808,-1.386061 -1.293657,-8.778386 -0.0924,-8.963194 z m 3.788566,2.217697 c 0.369617,0.0924 0.184809,7.94675 0.184809,9.240407 0.184808,3.049334 0,6.098668 -0.277213,9.240407 0,0.0924 -0.0924,1.201252 -0.46202,1.478465 l -0.0924,0 c -0.369616,0 -0.369616,-1.293657 -0.369616,-1.478465 0.277212,-3.234143 0.46202,-6.191073 0.369616,-9.240407 0,-1.386061 -0.554424,-9.055598 0.646828,-9.240407 z M 14.707404,71.367463 c -0.369616,0.0924 -0.831636,12.566953 -0.92404,14.692247 -0.369617,4.897415 -0.462021,9.702427 -0.462021,14.69225 0,0.1848 0.0924,1.94048 0.369616,2.3101 l 0.09241,0.0924 c 0.369616,0 0.46202,-2.12529 0.46202,-2.4025 0,-5.082227 0,-9.794835 0.369616,-14.69225 0.0924,-2.217698 1.201253,-14.322631 0.0924,-14.692247 z m -3.788567,-5.267032 c -0.369616,0.184809 -0.184808,16.540328 -0.277212,19.31245 -0.0924,6.375881 0.0924,12.751761 0.277212,19.220049 0,0.27721 0.184809,2.49491 0.462021,3.04933 0,0.0924 0.0924,0.0924 0.0924,0.0924 0.369616,0 0.369616,-2.77213 0.277212,-3.04934 -0.277212,-6.653092 -0.46202,-12.844164 -0.369616,-19.220045 0.184808,-3.049334 0.646828,-18.942833 -0.462021,-19.404854 z m 99.334373,-4.620203 c 0.36961,0.0924 0.83163,14.137822 0.92404,16.447924 0.36962,5.45184 0.46202,10.90368 0.46202,16.447924 0,0.277212 -0.0924,2.125293 -0.36962,2.587313 0,0.0924 -0.0924,0.0924 -0.0924,0.0924 -0.36962,0 -0.46202,-2.402506 -0.46202,-2.679718 0,-5.729052 0,-10.90368 -0.36962,-16.447924 -0.0924,-2.49491 -1.20125,-16.078308 -0.0924,-16.447924 z m 3.78857,4.620203 c 0.36961,0.184809 0.1848,16.540328 0.27721,19.31245 0.0924,6.375881 -0.0924,12.751761 -0.27721,19.220049 0,0.27721 -0.0924,2.49491 -0.46203,3.04933 l -0.0924,0.0924 c -0.36962,0 -0.36962,-2.77213 -0.36962,-3.04934 0.27722,-6.653092 0.46202,-12.844164 0.36962,-19.220045 -0.0924,-3.049334 -0.55442,-18.942833 0.55443,-19.404854 z M 47.695656,18.881954 c -0.0924,-1.478465 -0.369617,-3.880971 -0.739233,-3.973375 -0.277212,0.0924 -0.0924,2.49491 0,3.973375 0.277212,4.065779 -0.46202,8.039153 -0.0924,12.197336 0,0.0924 0.0924,1.016445 0.46202,1.293657 l 0.0924,0 c 0.369616,0 0.369616,-1.108848 0.369616,-1.293657 -0.369616,-4.158183 0.277212,-8.131557 -0.0924,-12.197336 z M 42.983048,16.29464 c -0.369616,0.0924 -0.831636,7.299921 -0.92404,8.501174 -0.369617,2.864526 -0.462021,5.636648 -0.462021,8.501174 0,0.0924 0.0924,1.108849 0.369617,1.293657 l 0.0924,0.0924 c 0.369616,0 0.46202,-1.293657 0.46202,-1.386061 0,-2.95693 0,-5.729052 0.369616,-8.501174 0.184808,-1.293657 1.293657,-8.316366 0.0924,-8.501174 z m -3.788566,2.217697 c -0.369617,0.0924 -0.184808,7.94675 -0.277213,9.240407 -0.0924,3.049334 0.0924,6.098668 0.277213,9.240407 0,0.0924 0.0924,1.201252 0.46202,1.478465 l 0.0924,0 c 0.369616,0 0.369616,-1.293657 0.369616,-1.478465 -0.277212,-3.234143 -0.46202,-6.191073 -0.369616,-9.240407 0.184808,-1.386061 0.646829,-9.055598 -0.554424,-9.240407 z"
     inkscape:connector-curvature="0"
     style="fill:#fefefe;fill-rule:evenodd" />
  <path
     style="fill:#fefefe"
     id="path1401"
     d="m 72.737158,192.78641 c -8.316366,0 -17.741581,-5.17463 -19.31245,-19.58967 -0.277212,-2.3101 -0.277212,-6.56068 0.0924,-11.73531 -7.299921,-1.66328 -15.616287,-5.17463 -19.404854,-9.33281 -2.772122,-3.14174 -5.174628,-8.77839 -5.821456,-13.86061 -5.636648,-7.85435 -10.626468,-14.59985 -13.953014,-18.94284 -0.46202,-0.1848 -0.924041,-0.46202 -1.386061,-0.73923 -0.646829,-0.46202 -1.201253,-1.01644 -1.663273,-1.57087 -0.184808,-0.0924 -0.369617,-0.27721 -0.462021,-0.36961 l -0.9240403,-0.83164 c -0.9240406,-0.83164 -1.5708691,-2.03289 -1.6632732,-3.32655 -0.092404,-0.55442 0,-1.01644 0.092404,-1.57087 -0.2772122,-0.27721 -0.5544244,-0.64683 -0.7392325,-1.01644 -0.6468285,-1.10885 -0.9240407,-2.49491 -1.0164447,-4.80501 l 0,-0.0924 0,-0.27721 C 6.3910382,98.811471 6.113826,91.97357 6.2986342,85.228073 l 0,-5.729052 0,-8.87079 c 0.092404,-5.359436 0.092404,-7.669538 3.1417382,-8.870791 1.1088486,-0.46202 2.3101016,-0.46202 3.4189506,0 0.184808,0.0924 0.277212,0.0924 0.46202,0.184808 l 0,-3.326546 c 0,-2.587314 2.03289,-4.620203 4.620203,-4.620203 l 7.48473,0 c 1.663273,-6.191073 4.989819,-11.827721 9.610023,-16.447924 l 0,-0.369616 c -0.277213,-3.049334 -0.462021,-6.283477 -0.277213,-9.702427 l 0,-2.587314 0,-4.342991 c 0,-2.03289 0.0924,-6.098668 4.250588,-6.653093 l 0.46202,0 c 0.646828,-1.108849 1.663273,-1.940485 3.326546,-2.217697 0.369616,-0.0924 0.739233,-0.0924 1.108849,0 0.554424,-0.554425 1.386061,-1.016445 2.402506,-1.293657 0.554424,-0.0924 1.108849,-0.184809 1.663273,-0.0924 1.108849,0.184808 1.940485,0.554424 2.587314,1.201252 0.369616,-0.184808 0.739232,-0.277212 1.108849,-0.369616 0.554424,-0.0924 1.201252,-0.0924 1.755677,0 5.359436,0.924041 4.527799,7.115113 3.696162,13.675802 l -0.0924,0.646828 c 0,0.369617 -0.0924,0.831637 -0.0924,1.201253 3.696163,-0.554424 7.392326,-0.554424 11.088488,-0.0924 0,-0.369616 -0.0924,-0.739232 -0.0924,-1.108849 l -0.0924,-0.646828 c -0.831636,-6.560689 -1.570869,-12.659357 3.696163,-13.675802 0.554424,-0.0924 1.201253,-0.0924 1.755677,0 0.46202,0.0924 0.831637,0.184808 1.108849,0.369616 0.554424,-0.554424 1.293657,-0.92404 2.217697,-1.108848 0.646829,-0.184809 1.386061,-0.184809 2.03289,0 1.108849,0.277212 1.848081,0.646828 2.402506,1.293657 0.369616,-0.0924 0.831636,0 1.201252,0 1.663274,0.277212 2.679718,1.108848 3.326547,2.217697 l 0.46202,0 c 4.158183,0.554425 4.158183,4.712607 4.250587,6.837901 l 0,4.527799 0,2.217698 c 0.184808,3.234142 0,6.468284 -0.277212,9.425215 4.897415,4.620203 8.40877,10.441659 10.164452,17.002348 l 7.48472,0 c 2.03289,0 3.69617,1.293657 4.343,3.049334 2.21769,0.646828 2.95693,2.125293 3.32654,4.527799 0.27721,0.0924 0.55443,0.0924 0.83164,0.277212 3.04933,1.201253 3.04933,3.418951 3.14174,8.870791 l 0,8.87079 0,5.729052 c 0.18481,6.837901 -0.0924,13.39859 -0.27722,19.497257 0,0.92404 -0.0924,3.69616 -1.20125,5.35944 -0.18481,0.27721 -0.36961,0.55442 -0.64683,0.83163 l -0.0924,0.0924 c 0.36962,1.66327 -0.0924,3.41895 -1.38606,4.6202 l -0.27721,0.27721 -0.83164,0.73924 c -0.18481,0.1848 -0.27721,0.27721 -0.46202,0.36961 -0.46202,0.64683 -1.10885,1.20125 -1.75568,1.66327 -0.46202,0.27722 -0.83163,0.55443 -1.29365,0.73924 -3.32655,4.25058 -8.22397,10.90368 -13.953019,18.85043 -0.646828,5.08222 -3.049334,10.71887 -5.821456,13.86061 -4.342991,4.7126 -14.507438,8.68598 -22.546592,9.97964 0.277212,7.48473 1.755677,12.75176 4.250587,14.32263 -0.554425,-2.31011 -0.0924,-4.71261 1.201253,-6.7455 1.570869,-2.40251 4.158183,-3.88097 6.837901,-3.88097 2.032889,0 3.973374,0.83164 5.451839,2.3101 4.342992,4.4354 5.636648,9.79483 3.511355,14.69225 -2.772122,5.91386 -9.702427,9.97964 -17.27956,9.97964 z M 19.327607,111.37842 c 0.277213,0.18481 0.646829,0.36962 0.924041,0.73924 l 0.369616,0.36961 c 4.805012,6.09867 11.920125,15.98591 15.801096,21.34534 0.46202,0.64683 0.739232,1.47847 0.831636,2.3101 0.277212,3.60376 2.125294,8.13156 3.603759,9.70243 2.587314,2.86453 11.3657,6.28348 18.018793,7.11511 0.831636,0.0924 1.663273,0.46202 2.310101,0.92404 0.739233,-0.46202 1.570869,-0.73923 2.49491,-0.73923 6.468285,-0.0924 17.371965,-4.06578 20.421299,-7.39232 1.478465,-1.66328 3.326546,-6.09867 3.603758,-9.70243 0.0924,-0.83164 0.369617,-1.66327 0.831637,-2.3101 3.880971,-5.35944 11.088488,-15.33908 15.801097,-21.34534 0.36961,-0.46202 0.73923,-0.83164 1.29366,-1.10885 0,-0.36962 0,-0.83164 0.0924,-1.20125 l -0.18481,-0.18481 c -0.64683,-0.55443 -1.10885,-1.38606 -1.29366,-2.2177 -0.64682,-0.64683 -1.20125,-1.57087 -1.29365,-2.49491 -0.0924,-0.46202 -0.0924,-1.01644 0,-1.47846 -0.0924,-0.36962 -0.18481,-0.83164 -0.18481,-1.29366 0,-1.20125 0.46202,-2.40251 1.20125,-3.234143 1.10885,-1.201253 1.66328,-2.217698 1.66328,-3.234142 0,-0.924041 -0.46203,-2.03289 -1.47847,-3.141739 -0.73923,-0.831636 -1.10885,-1.848081 -1.20125,-2.95693 -0.0924,-1.478465 -0.0924,-2.95693 -0.18481,-4.435395 l 0,-0.184808 0,-0.184808 0,-21.899764 -6.653094,0 c -2.310101,0 -4.250587,-1.663273 -4.527799,-3.88097 -1.663273,-10.349256 -9.148002,-18.942834 -19.497258,-22.361784 -0.0924,0 -0.277212,-0.0924 -0.369616,-0.184809 -0.0924,0 -0.277212,-0.0924 -0.369616,-0.0924 -5.821457,-1.755677 -12.289741,-1.663273 -18.111197,0.184808 -0.0924,0 -0.277213,0.0924 -0.369617,0.0924 -0.184808,0.0924 -0.277212,0.0924 -0.46202,0.184808 -2.402506,0.831636 -4.712607,1.940485 -6.837901,3.41895 0,0 -0.0924,0 -0.0924,0.0924 -0.0924,0.0924 -0.184808,0.184808 -0.369616,0.277212 -6.375881,4.435396 -10.534064,10.996084 -11.735317,18.480814 -0.369616,2.217697 -2.310101,3.88097 -4.527799,3.88097 l -6.653092,0 0,21.899764 0,0.184808 c -0.184809,3.788567 -0.369617,7.761942 -0.369617,11.827721 0,0.369616 0,1.108848 0.0924,1.478465 0.184808,0.46202 0.277213,1.016444 0.277213,1.478467 l 0,1.01644 c 1.108848,0.46202 1.940485,1.38606 2.402505,2.49491 0.739233,1.75568 0.277212,3.69616 -1.016445,5.08223 -1.108848,1.10884 -2.679717,1.57086 -4.250587,1.29365 -0.0924,0.0924 -0.184808,0.18481 -0.277212,0.18481 0.184808,0.46202 0.277212,0.83164 0.277212,1.20125 z"
     inkscape:connector-curvature="0" />
  <path
     style="fill-rule:evenodd"
     inkscape:connector-curvature="0"
     d="m 58.137313,95.577333 -7.392326,7.484727 c 0,0 -5.821456,-42.598272 -8.87079,-57.475326 -0.46202,-2.125294 0.924041,-6.837901 4.250587,-7.207517 5.821456,-0.646829 5.729052,8.039153 5.729052,8.039153 l 6.283477,49.158963 z"
     id="path1403" />
  <path
     style="fill:#6c6c6c;fill-rule:evenodd"
     inkscape:connector-curvature="0"
     d="m 41.874197,46.510774 c 2.125293,2.125294 9.702427,-0.554424 9.702427,-2.587313 0.277212,-0.277213 0.46202,-0.646829 0.646828,-0.924041 0.646829,-1.386061 0.277212,-2.95693 -0.92404,-3.603759 -0.646829,-0.277212 -1.293657,-0.277212 -1.848082,0.0924 -0.184808,-1.201253 -1.108848,-2.125293 -2.125293,-2.125293 -0.831637,0 -1.570869,0.46202 -2.03289,1.293657 -0.554424,-0.369617 -1.293657,-0.554425 -1.940485,-0.277212 -1.293657,0.46202 -1.940485,2.032889 -1.478465,3.603758 -0.0924,0.0924 -0.184808,0.0924 -0.277212,0.184808 -1.016445,0.646829 -1.386061,2.217698 -0.646829,3.418951 0.277212,0.277212 0.554425,0.646828 0.924041,0.92404 z"
     id="path1405" />
  <path
     inkscape:connector-curvature="0"
     d="m 43.167854,36.993156 0.369616,0.554424 0.369616,0.554424 c 0.0924,0.184808 0.0924,0.369617 -0.0924,0.554425 0,0 -0.0924,0 -0.0924,0.0924 l -0.369616,0.0924 -0.277212,0.0924 c -0.184808,0.0924 -0.369617,-0.0924 -0.462021,-0.277212 l 0,-0.0924 -0.0924,-0.646829 0,-0.646828 c 0,-0.184808 0.0924,-0.369617 0.369617,-0.462021 0.0924,0 0.184808,0 0.277212,0.184809 z"
     id="path1407" />
  <path
     inkscape:connector-curvature="0"
     d="m 48.250077,35.976711 0,0.739232 0,0.646829 c 0,0.184808 -0.184808,0.369616 -0.369616,0.369616 l -0.0924,0 -0.369616,-0.0924 -0.277212,-0.0924 c -0.184808,-0.0924 -0.277213,-0.277212 -0.277213,-0.46202 0,-0.0924 0,-0.0924 0.0924,-0.0924 l 0.277212,-0.646829 0.369616,-0.646828 c 0.0924,-0.184809 0.277212,-0.277213 0.46202,-0.184809 0.0924,0.277213 0.184808,0.369617 0.184808,0.462021 z"
     id="path1409" />
  <path
     inkscape:connector-curvature="0"
     d="m 52.777877,38.748833 -0.277213,0.646828 -0.369616,0.646829 c -0.0924,0.184808 -0.277212,0.277212 -0.46202,0.184808 l -0.0924,-0.0924 -0.277212,-0.184808 -0.277213,-0.277213 c -0.0924,-0.184808 -0.0924,-0.369616 0,-0.554424 l 0.0924,-0.0924 0.554424,-0.369616 0.554424,-0.369617 c 0.184808,-0.0924 0.369617,-0.0924 0.462021,0.0924 0.184808,0.184808 0.184808,0.277212 0.0924,0.369616 z"
     id="path1411" />
  <path
     inkscape:connector-curvature="0"
     d="m 40.303328,41.705763 0.554424,0.46202 0.554425,0.462021 c 0.184808,0.0924 0.184808,0.369616 0.0924,0.554424 l -0.0924,0.0924 -0.277213,0.184808 -0.277212,0.277212 c -0.184808,0.0924 -0.369616,0.0924 -0.46202,-0.0924 0,0 0,-0.0924 -0.0924,-0.0924 l -0.277212,-0.646828 -0.277213,-0.646829 c -0.0924,-0.184808 0,-0.46202 0.184809,-0.46202 0.0924,-0.184808 0.277212,-0.184808 0.369616,-0.0924 z"
     id="path1413" />
  <path
     style="fill-rule:evenodd"
     inkscape:connector-curvature="0"
     d="m 66.453678,95.577333 7.392326,7.484727 c 0,0 5.821456,-42.598272 8.87079,-57.475326 0.46202,-2.125294 -0.924041,-6.837901 -4.250587,-7.207517 -5.821456,-0.646829 -5.729052,8.039153 -5.729052,8.039153 l -6.283477,49.158963 z"
     id="path1415" />
  <path
     style="fill:#6c6c6c;fill-rule:evenodd"
     inkscape:connector-curvature="0"
     d="m 82.62439,46.510774 c -2.125294,2.125294 -9.702427,-0.554424 -9.702427,-2.587313 -0.277212,-0.277213 -0.46202,-0.646829 -0.646828,-0.924041 -0.646829,-1.386061 -0.277213,-2.95693 0.92404,-3.603759 0.646829,-0.277212 1.293657,-0.277212 1.848082,0.0924 0.184808,-1.201253 1.108848,-2.125293 2.125293,-2.125293 0.831637,0 1.570869,0.46202 2.03289,1.293657 0.554424,-0.369617 1.293656,-0.554425 1.940485,-0.277212 1.293657,0.46202 1.940485,2.032889 1.478465,3.603758 0.0924,0.0924 0.184808,0.0924 0.277212,0.184808 1.016445,0.646829 1.293657,2.217698 0.646829,3.418951 -0.184808,0.277212 -0.554425,0.646828 -0.924041,0.92404 z"
     id="path1417" />
  <path
     inkscape:connector-curvature="0"
     d="m 81.330733,36.993156 -0.369616,0.554424 -0.369616,0.554424 c -0.0924,0.184808 -0.0924,0.369617 0.0924,0.554425 0,0 0.0924,0 0.0924,0.0924 l 0.277212,0.0924 0.277212,0.0924 c 0.184808,0.0924 0.46202,-0.0924 0.46202,-0.277212 l 0,-0.0924 0,-0.646829 0.0924,-0.646828 c 0,-0.184808 -0.184808,-0.369617 -0.369616,-0.462021 0.0924,0 -0.0924,0 -0.184808,0.184809 z"
     id="path1419" />
  <path
     inkscape:connector-curvature="0"
     d="m 76.248509,35.976711 0,0.739232 0,0.646829 c 0,0.184808 0.184809,0.369616 0.369617,0.369616 l 0.0924,0 0.277212,-0.0924 0.369616,-0.0924 c 0.184808,-0.0924 0.277212,-0.277212 0.277212,-0.46202 0,-0.0924 0,-0.0924 -0.0924,-0.0924 L 77.17255,36.346327 76.895338,35.699499 c -0.0924,-0.184809 -0.277212,-0.277213 -0.46202,-0.184809 -0.0924,0.277213 -0.184809,0.369617 -0.184809,0.462021 z"
     id="path1421" />
  <path
     inkscape:connector-curvature="0"
     d="m 71.72071,38.748833 0.369616,0.646828 0.277213,0.646829 c 0.0924,0.184808 0.369616,0.277212 0.46202,0.184808 0.0924,0 0.0924,-0.0924 0.0924,-0.0924 l 0.184808,-0.184808 0.277212,-0.277213 c 0.0924,-0.184808 0.0924,-0.369616 0,-0.554424 l -0.0924,-0.0924 -0.554424,-0.369616 -0.554424,-0.369617 c -0.184809,-0.0924 -0.369617,-0.0924 -0.462021,0.0924 -0.0924,0.184808 -0.0924,0.277212 0,0.369616 z"
     id="path1423" />
  <path
     inkscape:connector-curvature="0"
     d="m 84.195259,41.705763 -0.46202,0.46202 -0.554425,0.462021 c -0.184808,0.0924 -0.184808,0.369616 -0.0924,0.554424 l 0.0924,0.0924 0.277213,0.184808 0.277212,0.277212 c 0.184808,0.0924 0.369616,0.0924 0.554424,-0.0924 0,0 0,-0.0924 0.0924,-0.0924 l 0.277212,-0.646828 0.277213,-0.646829 c 0.0924,-0.184808 0,-0.46202 -0.184808,-0.46202 -0.277213,-0.184808 -0.462021,-0.184808 -0.554425,-0.0924 z"
     id="path1425" />
  <path
     style="fill-rule:evenodd"
     inkscape:connector-curvature="0"
     d="m 82.901602,171.44107 c -2.679718,-2.67972 -7.022709,0.92404 -5.45184,4.71261 2.03289,4.71261 -1.293657,6.28348 -5.082223,5.17463 -13.121378,-3.78857 -8.131558,-38.07048 -4.897416,-46.84886 1.848082,-3.97338 -3.788567,-3.51136 -5.267032,-0.18481 -2.864526,6.19107 -4.897415,31.787 -4.158183,38.34768 3.049335,27.35161 38.717304,13.12138 24.856694,-1.20125 z"
     id="path1427" />
  <path
     style="fill-rule:evenodd"
     inkscape:connector-curvature="0"
     d="m 69.965033,88.647028 -14.692247,0 c -3.788566,11.550512 -12.28974,36.314802 -12.936569,46.294442 -1.016444,14.69224 13.306186,22.8238 20.606107,22.8238 7.299921,0 20.513703,-8.13156 19.866874,-22.8238 -0.46202,-10.07205 -9.517619,-34.83634 -12.844165,-46.294442 z"
     id="path1429" />
  <g
     style="fill:#6c6c6c;fill-rule:evenodd"
     id="g25"
     transform="matrix(0.92404066,0,0,0.92404066,-239.40378,-380.15576)">
    <path
       inkscape:connector-curvature="0"
       d="m 310.7,431.84 c -0.1,-1.6 -0.4,-4.2 -0.8,-4.3 -0.3,0.1 -0.1,2.7 0,4.3 0.3,4.4 -0.5,8.7 -0.1,13.2 0,0.1 0.1,1.1 0.5,1.4 l 0.1,0 c 0.4,0 0.4,-1.2 0.4,-1.4 -0.4,-4.5 0.3,-8.8 -0.1,-13.2 z"
       id="path1431" />
    <path
       inkscape:connector-curvature="0"
       d="m 305.6,429.04 c -0.4,0.1 -0.9,7.9 -1,9.2 -0.4,3.1 -0.5,6.1 -0.5,9.2 0,0.1 0.1,1.2 0.4,1.4 l 0.1,0.1 c 0.4,0 0.5,-1.4 0.5,-1.5 0,-3.2 0,-6.2 0.4,-9.2 0.2,-1.4 1.4,-9 0.1,-9.2 z"
       id="path1433" />
    <path
       inkscape:connector-curvature="0"
       d="m 301.5,431.44 c -0.4,0.1 -0.2,8.6 -0.3,10 -0.1,3.3 0.1,6.6 0.3,10 0,0.1 0.1,1.3 0.5,1.6 l 0.1,0 c 0.4,0 0.4,-1.4 0.4,-1.6 -0.3,-3.5 -0.5,-6.7 -0.4,-10 0.2,-1.5 0.7,-9.8 -0.6,-10 z"
       id="path1435" />
    <path
       inkscape:connector-curvature="0"
       d="m 315.6,428.44 c -0.4,0.1 -0.9,8.6 -1,10 -0.4,3.3 -0.5,6.6 -0.5,10 0,0.1 0.1,1.3 0.4,1.5 l 0.1,0.1 c 0.4,0 0.5,-1.4 0.5,-1.6 0,-3.5 0,-6.7 0.4,-10 0.2,-1.5 1.4,-9.7 0.1,-10 z"
       id="path1437" />
    <path
       inkscape:connector-curvature="0"
       d="m 279.7,485.14 c 0,-3.8 -0.1,-10.1 -0.5,-10.2 -0.3,0.1 -0.3,6.4 -0.3,10.2 -0.1,10.5 -1.2,20.7 -1.1,31.5 0,0.3 0.1,2.7 0.4,3.3 0,0.1 0.1,0.1 0.1,0.1 0.5,0 0.5,-3 0.5,-3.4 -0.1,-10.7 0.9,-21.1 0.9,-31.5 z"
       id="path1439" />
    <path
       inkscape:connector-curvature="0"
       d="m 275,488.64 c -0.4,0.1 -0.9,13.6 -1,15.9 -0.4,5.3 -0.5,10.5 -0.5,15.9 0,0.2 0.1,2.1 0.4,2.5 l 0.1,0.1 c 0.4,0 0.5,-2.3 0.5,-2.6 0,-5.5 0,-10.6 0.4,-15.9 0.1,-2.4 1.3,-15.5 0.1,-15.9 z"
       id="path1441" />
    <path
       inkscape:connector-curvature="0"
       d="m 270.9,482.94 c -0.4,0.2 -0.2,17.9 -0.3,20.9 -0.1,6.9 0.1,13.8 0.3,20.8 0,0.3 0.2,2.7 0.5,3.3 0,0.1 0.1,0.1 0.1,0.1 0.4,0 0.4,-3 0.3,-3.3 -0.3,-7.2 -0.5,-13.9 -0.4,-20.8 0.2,-3.3 0.7,-20.5 -0.5,-21 z"
       id="path1443" />
    <path
       inkscape:connector-curvature="0"
       d="m 284.9,476.74 c -0.4,0.2 -0.9,17.9 -1,20.9 -0.4,6.9 -0.5,13.8 -0.5,20.8 0,0.3 0.1,2.7 0.4,3.3 0,0.1 0.1,0.1 0.1,0.1 0.4,0 0.5,-3.1 0.5,-3.4 0,-7.2 0,-13.9 0.4,-20.8 0.2,-3.2 1.4,-20.4 0.1,-20.9 z"
       id="path1445" />
    <path
       inkscape:connector-curvature="0"
       d="m 373.7,485.14 c 0,-3.8 0.1,-10.1 0.5,-10.2 0.3,0.1 0.3,6.4 0.4,10.2 0.1,10.5 1.1,20.7 1.1,31.5 0,0.3 -0.1,2.7 -0.4,3.3 l -0.1,0.1 c -0.4,0 -0.5,-3 -0.5,-3.4 0,-10.7 -1,-21.1 -1,-31.5 z"
       id="path1447" />
    <path
       inkscape:connector-curvature="0"
       d="m 378.4,477.94 c 0.4,0.1 0.9,15.3 1,17.8 0.4,5.9 0.5,11.8 0.5,17.8 0,0.3 -0.1,2.3 -0.4,2.8 0,0.1 -0.1,0.1 -0.1,0.1 -0.4,0 -0.5,-2.6 -0.5,-2.9 0,-6.2 0,-11.8 -0.4,-17.8 -0.1,-2.7 -1.3,-17.4 -0.1,-17.8 z"
       id="path1449" />
    <path
       inkscape:connector-curvature="0"
       d="m 382.5,482.94 c 0.4,0.2 0.2,17.9 0.3,20.9 0.1,6.9 -0.1,13.8 -0.3,20.8 0,0.3 -0.1,2.7 -0.5,3.3 l -0.1,0.1 c -0.4,0 -0.4,-3 -0.4,-3.3 0.3,-7.2 0.5,-13.9 0.4,-20.8 -0.1,-3.3 -0.6,-20.5 0.6,-21 z"
       id="path1451" />
    <path
       inkscape:connector-curvature="0"
       d="m 368.5,476.74 c 0.4,0.2 0.9,17.9 1,20.9 0.4,6.9 0.5,13.8 0.5,20.8 0,0.3 -0.1,2.7 -0.4,3.3 0,0.1 -0.1,0.1 -0.1,0.1 -0.4,0 -0.5,-3.1 -0.5,-3.4 0,-7.2 0,-13.9 -0.4,-20.8 -0.2,-3.2 -1.4,-20.4 -0.1,-20.9 z"
       id="path1453" />
  </g>
  <path
     style="fill:#ff0000"
     inkscape:connector-curvature="0"
     d="m 50.375371,99.82792 c 3.880971,0.73923 7.854346,1.01645 11.920124,1.01645 4.065779,0 8.223962,-0.36962 12.382145,-0.924046 l 0.554425,4.250586 c -4.342991,0.64683 -8.685982,0.92404 -13.028974,0.92404 -4.250587,0 -8.501174,-0.27721 -12.659357,-1.10885 l 0.831637,-4.15818 z"
     id="path1455" />
  <g
     style="fill-rule:evenodd"
     id="g40"
     transform="matrix(0.92404066,0,0,0.92404066,-239.40378,-380.15576)">
    <path
       inkscape:connector-curvature="0"
       d="m 301,503.84 c 0.6,-11.2 11.5,-24 25,-24.2 14.1,-0.3 25.7,13.1 25.9,24.7 3.1,-3.6 6.9,-2.4 7.2,-2.2 -2.2,-0.1 -4.3,3 -4.3,4.2 1.8,-1.4 4.1,-1.5 4.3,-1.2 0,0 -1.9,1.1 -2.6,1.9 -3,3.5 -1.4,1.2 1.8,0.5 -2.9,1.6 -3.4,4.7 -3.5,7.1 0.5,1.5 0.8,2.8 0.8,3.3 -0.1,2 -4.2,17.2 -5.3,17.1 -1,-0.1 -9.8,-11.2 -12.4,-14.5 l -0.8,-1 c -3.2,0.8 -6.8,1.2 -10.5,1.3 -3.8,0.1 -7.4,-0.2 -10.6,-0.9 -1.4,2 -11.7,15.8 -12.6,15.9 -1.1,0.1 -5.7,-14.9 -5.9,-16.9 -0.1,-0.6 0.3,-2.1 0.8,-3.8 0,-2.5 -0.3,-6 -3.5,-7.7 3.2,0.7 4.8,2.9 1.8,-0.5 -0.7,-0.8 -2.6,-1.8 -2.6,-1.9 -0.2,-0.3 2.6,-0.3 4.4,1.2 0,-1.2 -2.2,-4.3 -4.3,-4.2 -0.2,0.2 3.9,-1.2 6.9,1.8 z"
       id="path1457" />
    <path
       style="fill:#fa8973"
       inkscape:connector-curvature="0"
       d="m 304.6,531.54 c -0.8,0.1 -3.9,-10.1 -4,-11.5 -0.1,-1.3 2.4,-8.1 2.4,-8.1 l 7.5,6.5 -5.9,13.1 z"
       id="path1459" />
    <path
       style="fill:#6c6c6c"
       inkscape:connector-curvature="0"
       d="m 326,482.54 0.1,0 c 15.8,-0.5 26,17.6 19.7,26.2 -3.3,4.6 -11,7.2 -19.5,0.9 -8.2,6.7 -15.5,4.3 -19,-0.2 -6.4,-8.3 3.2,-26.8 18.7,-26.9 z"
       id="path1461" />
    <path
       style="fill:#fa8973"
       inkscape:connector-curvature="0"
       d="m 349.4,531.34 c 0.8,0 3,-10.4 3,-11.7 0,-1.4 -3.1,-7.9 -3.1,-7.9 l -6.9,7.1 7,12.5 z"
       id="path1463" />
  </g>
  <path
     style="fill:#b2b2b2"
     inkscape:connector-curvature="0"
     d="m 86.874977,73.030741 -0.369616,-0.0924 C 80.868713,74.60161 74.770044,72.014297 71.72071,70.443427 l -0.646828,0.277213 0.0924,0.739232 c 2.864526,1.663273 10.072043,4.527799 15.523883,2.587314 l 0.46202,-0.554424 -0.277212,-0.462021 z m 2.402506,-5.267031 c -0.646829,-0.462021 -1.940486,1.478465 -7.669538,2.032889 -7.115113,0.646828 -9.055598,-1.478465 -9.425214,-0.0924 l 0,0.277212 0.277212,0.277212 c 3.788566,0.924041 11.088488,1.386061 16.632732,-1.570869 0.369616,-0.184808 0.46202,-0.739232 0.184808,-0.92404 z m -6.283477,-3.418951 -0.46202,-0.0924 c -0.0924,0 -0.0924,0 -0.184808,0.0924 -3.418951,1.940485 -6.006264,3.049334 -10.164447,3.049334 -0.184809,0 -0.277213,0.0924 -0.369617,0.184808 -0.369616,0.369617 -0.0924,0.924041 0.369617,0.924041 3.788566,0 7.577133,-1.108849 10.811275,-3.234142 0.0924,-0.0924 0.184808,-0.184808 0.277212,-0.369617 0,-0.184808 0,-0.277212 -0.0924,-0.46202 l -0.184808,-0.0924 z"
     id="path1465" />
  <path
     style="fill:#b2b2b2"
     inkscape:connector-curvature="0"
     d="m 37.716014,73.030741 0.369616,-0.0924 c 5.636648,1.663273 11.735317,-0.92404 14.784651,-2.49491 l 0.646828,0.277213 -0.0924,0.739232 c -2.864526,1.663273 -10.072043,4.527799 -15.523883,2.587314 l -0.46202,-0.554424 0.277212,-0.462021 z M 35.313508,67.76371 c 0.646829,-0.462021 1.940486,1.478465 7.669538,2.032889 7.115113,0.646828 9.055598,-1.478465 9.425214,-0.0924 l 0,0.277212 -0.277212,0.277212 C 48.342482,71.18266 41.04256,71.64468 35.498316,68.68775 c -0.46202,-0.184808 -0.46202,-0.739232 -0.184808,-0.92404 z m 6.191073,-3.418951 0.46202,-0.0924 c 0.0924,0 0.184808,0 0.184808,0.0924 3.418951,1.940485 6.006264,3.049334 10.164447,3.049334 0.184808,0 0.277213,0.0924 0.369617,0.184808 0.369616,0.369617 0.0924,0.924041 -0.369617,0.924041 -3.788566,0 -7.577133,-1.108849 -10.811275,-3.234142 -0.0924,-0.0924 -0.184808,-0.184808 -0.277213,-0.369617 0,-0.184808 0,-0.277212 0.0924,-0.46202 l 0.184808,-0.0924 z"
     id="path1467" />
  <path
     inkscape:connector-curvature="0"
     d="m 62.110687,70.258619 c 0.462021,0.739233 0.924041,1.108849 1.755678,1.108849 0.92404,0 1.755677,-0.646828 1.755677,-1.478465 0,-1.478465 -1.755677,-3.049334 -3.603759,-4.620203 -1.755677,1.478465 -3.603758,3.049334 -3.603758,4.620203 0,0.831637 0.831636,1.478465 1.755677,1.478465 1.016445,0.0924 1.478465,-0.277212 1.940485,-1.108849 z"
     id="path1469" />
  <g
     style="fill-rule:evenodd"
     id="g49"
     transform="matrix(0.92404066,0,0,0.92404066,-239.40378,-380.15576)">
    <path
       inkscape:connector-curvature="0"
       d="m 353.8,572.74 c 2.7,-3 5,-9.3 5.2,-14 0.3,-5.6 0.4,-11.2 -2.1,-9.1 -1,0.8 -9,6.4 -13.9,6.5 -3.3,0 -4.3,-4.7 -4.2,-6.7 0.2,-3.6 4.7,3.2 0.9,7.4 -5.9,6.5 -21.9,19.6 -17.6,23.9 4.3,4.3 25.8,-1.6 31.7,-8 z"
       id="path1471" />
    <path
       inkscape:connector-curvature="0"
       d="m 336.7,574.94 -1.5,-1.6 c 0,0 10.5,4.7 17.4,-5 8.3,-11.7 18.6,-26 24.2,-32.9 1.4,-1.8 2.4,-6.9 -0.7,-9 -5.3,-3.6 -9.4,4.7 -9.4,4.7 l -15.4,22.6 -14.6,21.2 z"
       id="path1473" />
    <path
       style="fill:#6c6c6c"
       inkscape:connector-curvature="0"
       d="m 376.2,536.14 c -2.2,1.4 -8.5,-6.2 -8.1,-7.5 -0.1,-0.4 -0.2,-0.8 -0.2,-1.3 0.1,-1.7 1.2,-3 2.6,-2.9 0.7,0 1.4,0.4 1.8,1 0.8,-1.1 2.1,-1.5 3.1,-1 0.8,0.4 1.3,1.3 1.3,2.3 0.8,-0.1 1.5,0.2 2,0.7 1,1 0.9,2.9 -0.3,4.1 l 0,0.1 c 0.1,0.1 0.1,0.2 0.2,0.3 0.7,1.2 0.2,2.8 -1,3.6 -0.5,0.4 -0.9,0.6 -1.4,0.6 z"
       id="path1475" />
    <path
       inkscape:connector-curvature="0"
       d="m 379.3,526.34 -0.6,0.4 -0.6,0.4 c -0.2,0.1 -0.3,0.3 -0.1,0.6 0,0 0,0.1 0.1,0.1 l 0.3,0.3 0.2,0.3 c 0.2,0.2 0.4,0.2 0.6,0 l 0.1,-0.1 0.4,-0.7 0.4,-0.6 c 0.1,-0.2 0.1,-0.5 -0.1,-0.6 -0.4,-0.2 -0.5,-0.2 -0.7,-0.1 z"
       id="path1477" />
    <path
       inkscape:connector-curvature="0"
       d="m 374.7,522.64 -0.3,0.7 -0.3,0.7 c -0.1,0.2 0,0.5 0.2,0.6 l 0.1,0 0.3,0.1 0.4,0.1 c 0.2,0.1 0.4,-0.1 0.5,-0.3 l 0,-0.1 0,-0.7 0,-0.8 c 0,-0.2 -0.2,-0.4 -0.4,-0.4 -0.3,-0.2 -0.4,-0.1 -0.5,0.1 z"
       id="path1479" />
    <path
       inkscape:connector-curvature="0"
       d="m 369,523.44 0,0.8 0,0.7 c 0,0.3 0.2,0.4 0.4,0.4 l 0.1,0 0.3,-0.1 0.4,-0.1 c 0.2,-0.1 0.3,-0.3 0.3,-0.5 l 0,-0.1 -0.4,-0.7 -0.4,-0.7 c -0.1,-0.2 -0.3,-0.3 -0.5,-0.1 -0.2,0.1 -0.3,0.2 -0.2,0.4 z"
       id="path1481" />
    <path
       inkscape:connector-curvature="0"
       d="m 380.1,532.34 -0.7,0.1 -0.7,0.1 c -0.2,0.1 -0.3,0.3 -0.3,0.5 0,0.1 0,0.1 0.1,0.1 l 0.1,0.3 0.2,0.3 c 0.1,0.2 0.3,0.3 0.5,0.2 l 0.1,-0.1 0.5,-0.5 0.6,-0.5 c 0.1,-0.1 0.2,-0.4 0,-0.6 -0.1,0.1 -0.2,0 -0.4,0.1 z"
       id="path1483" />
    <path
       inkscape:connector-curvature="0"
       d="m 299.6,572.74 c -2.7,-3 -5,-9.3 -5.2,-14 -0.3,-5.6 -0.4,-11.2 2.1,-9.1 0.9,0.8 9,6.4 13.9,6.5 3.3,0 4.3,-4.7 4.2,-6.7 -0.2,-3.6 -4.7,3.2 -0.9,7.4 5.9,6.5 21.9,19.6 17.6,23.9 -4.3,4.3 -25.8,-1.6 -31.7,-8 z"
       id="path1485" />
    <path
       inkscape:connector-curvature="0"
       d="m 316.7,574.94 1.5,-1.6 c 0,0 -10.5,4.7 -17.4,-5 -8.2,-11.7 -18.6,-26 -24.1,-32.9 -1.4,-1.8 -2.4,-6.9 0.7,-9 5.3,-3.6 9.4,4.7 9.4,4.7 l 15.4,22.6 14.5,21.2 z"
       id="path1487" />
    <path
       style="fill:#6c6c6c"
       inkscape:connector-curvature="0"
       d="m 277.2,536.14 c 3.4,2.1 9,-4.9 8.1,-7.5 0.1,-0.4 0.2,-0.8 0.2,-1.3 -0.1,-1.7 -1.2,-3 -2.6,-2.9 -0.7,0 -1.3,0.4 -1.8,1 -0.8,-1.1 -2,-1.5 -3.1,-1 -0.8,0.4 -1.3,1.3 -1.4,2.3 -0.7,-0.1 -1.5,0.2 -2,0.7 -1,1 -0.9,2.9 0.3,4.1 l 0.1,0.1 c -0.1,0.1 -0.2,0.2 -0.2,0.3 -0.7,1.2 -0.2,2.8 1,3.6 0.4,0.4 1,0.6 1.4,0.6 z"
       id="path1489" />
    <path
       inkscape:connector-curvature="0"
       d="m 274.1,526.34 0.6,0.4 0.6,0.4 c 0.2,0.1 0.3,0.3 0.2,0.6 0,0 0,0.1 -0.1,0.1 l -0.3,0.3 -0.3,0.3 c -0.1,0.2 -0.4,0.2 -0.5,0 l -0.1,-0.1 -0.4,-0.7 -0.4,-0.6 c -0.1,-0.2 -0.1,-0.5 0.1,-0.6 0.3,-0.2 0.5,-0.2 0.6,-0.1 z"
       id="path1491" />
    <path
       inkscape:connector-curvature="0"
       d="m 278.7,522.64 0.3,0.7 0.3,0.7 c 0.1,0.2 0,0.5 -0.2,0.6 l -0.1,0 -0.4,0.1 -0.3,0.1 c -0.2,0.1 -0.4,-0.1 -0.5,-0.3 l 0,-0.1 0,-0.7 0,-0.8 c 0,-0.2 0.2,-0.4 0.4,-0.4 0.3,-0.2 0.4,-0.1 0.5,0.1 z"
       id="path1493" />
    <path
       inkscape:connector-curvature="0"
       d="m 284.4,523.44 0,0.8 0,0.7 c 0,0.3 -0.2,0.4 -0.4,0.4 l -0.1,0 -0.3,-0.1 -0.3,-0.1 c -0.2,-0.1 -0.3,-0.3 -0.3,-0.5 0,0 0,-0.1 0.1,-0.1 l 0.4,-0.7 0.3,-0.7 c 0.1,-0.2 0.4,-0.3 0.5,-0.1 0.1,0.1 0.1,0.2 0.1,0.4 z"
       id="path1495" />
    <path
       inkscape:connector-curvature="0"
       d="m 273.3,532.34 0.7,0.1 0.7,0.1 c 0.2,0.1 0.4,0.3 0.3,0.5 l 0,0.1 -0.1,0.3 -0.2,0.3 c -0.1,0.2 -0.3,0.3 -0.5,0.2 -0.1,0 -0.1,-0.1 -0.1,-0.1 l -0.5,-0.5 -0.5,-0.5 c -0.2,-0.1 -0.2,-0.4 -0.1,-0.6 0,0.1 0.1,0 0.3,0.1 z"
       id="path1497" />
    <path
       style="fill:#00cbff"
       inkscape:connector-curvature="0"
       d="m 313.6,500.84 c -2.6,-0.9 -3.8,-3.1 -3.8,-3.1 0,0 0.4,-5.4 5.2,-7 4.8,-1.6 8.6,1.1 8.6,1.1 0,0 0.5,2.7 -0.6,5.2 -0.7,1.6 -2,3.1 -4.6,3.8 -1.9,0.6 -3.5,0.4 -4.8,0 z"
       id="path1499" />
    <path
       inkscape:connector-curvature="0"
       d="m 314.4,490.84 c 0.2,-0.1 0.4,-0.1 0.6,-0.2 1.4,-0.5 2.7,-0.6 3.9,-0.5 0.3,0.9 0.5,2 0.5,3.1 0,2.4 -1,4.5 -1.8,5.8 -0.6,0.1 -1.1,0.2 -1.6,0.2 -0.8,-1.2 -1.9,-3.5 -1.9,-6 0,-0.8 0.1,-1.6 0.3,-2.4 z"
       id="path1501" />
    <path
       style="fill:#ffffff"
       inkscape:connector-curvature="0"
       d="m 315.9,497.34 c 0.9,-0.3 1.3,-1.1 1.1,-1.9 -0.3,-0.8 -1.1,-1.3 -2,-1 -0.9,0.3 -1.3,1.1 -1.1,1.9 0.2,0.8 1.1,1.2 2,1 z"
       id="path1503" />
    <path
       inkscape:connector-curvature="0"
       d="m 313.6,500.84 c -2.6,-0.9 -3.8,-3.1 -3.8,-3.1 0,0 -0.1,-0.8 0.1,-0.6 1.3,1.5 10,5 13.7,-5.1 0.1,0.7 0.3,2.9 -0.7,5 -0.7,1.6 -2,3.1 -4.6,3.8 -1.8,0.6 -3.4,0.4 -4.7,0 z"
       id="path1505" />
    <path
       style="fill:#ffffff"
       inkscape:connector-curvature="0"
       d="m 318.4,491.84 c 0.4,-0.1 0.7,-0.6 0.6,-1 -0.1,-0.4 -0.6,-0.7 -1,-0.5 -0.4,0.1 -0.7,0.6 -0.5,1 0,0.4 0.5,0.6 0.9,0.5 z"
       id="path1507" />
    <path
       style="fill:#00cbff"
       inkscape:connector-curvature="0"
       d="m 339.3,500.84 c 2.6,-0.9 3.8,-3.1 3.8,-3.1 0,0 -0.4,-5.4 -5.2,-7 -4.8,-1.6 -8.6,1.1 -8.6,1.1 0,0 -0.5,2.7 0.7,5.2 0.7,1.6 2,3.1 4.6,3.8 1.9,0.6 3.4,0.4 4.7,0 z"
       id="path1509" />
    <path
       inkscape:connector-curvature="0"
       d="m 338.5,490.84 c -0.2,-0.1 -0.4,-0.1 -0.6,-0.2 -1.4,-0.5 -2.7,-0.6 -3.9,-0.5 -0.3,0.9 -0.5,2 -0.5,3.1 0,2.4 1,4.5 1.8,5.8 0.6,0.1 1.1,0.2 1.6,0.2 0.8,-1.2 1.9,-3.5 1.9,-6 0,-0.8 -0.1,-1.6 -0.3,-2.4 z"
       id="path1511" />
    <path
       style="fill:#ffffff"
       inkscape:connector-curvature="0"
       d="m 337.1,497.34 c -0.9,-0.3 -1.4,-1.1 -1.1,-1.9 0.2,-0.8 1.1,-1.3 2,-1 0.8,0.3 1.3,1.1 1.1,1.9 -0.3,0.8 -1.2,1.2 -2,1 z"
       id="path1513" />
    <path
       inkscape:connector-curvature="0"
       d="m 339.3,500.84 c 2.6,-0.9 3.8,-3.1 3.8,-3.1 0,0 0.1,-0.8 -0.1,-0.6 -1.3,1.5 -10,5 -13.7,-5.1 -0.1,0.7 -0.3,2.9 0.7,5 0.7,1.6 2,3.1 4.6,3.8 1.9,0.6 3.4,0.4 4.7,0 z"
       id="path1515" />
    <path
       style="fill:#ffffff"
       inkscape:connector-curvature="0"
       d="m 334.5,491.84 c -0.5,-0.1 -0.7,-0.6 -0.6,-1 0.1,-0.4 0.6,-0.7 1,-0.5 0.5,0.1 0.7,0.6 0.6,1 -0.1,0.4 -0.5,0.6 -1,0.5 z"
       id="path1517" />
    <path
       inkscape:connector-curvature="0"
       d="m 316.8,505.24 c 1.2,0 2.2,-0.5 2.2,-1 0,-0.5 -1,-1 -2.2,-1 -1.2,0 -2.3,0.5 -2.3,1 0,0.5 1,1 2.3,1 z"
       id="path1519" />
    <path
       inkscape:connector-curvature="0"
       d="m 336.2,505.24 c 1.2,0 2.3,-0.5 2.3,-1 0,-0.5 -1,-1 -2.3,-1 -1.3,0 -2.2,0.5 -2.2,1 -0.1,0.5 0.9,1 2.2,1 z"
       id="path1521" />
    <path
       inkscape:connector-curvature="0"
       d="m 340.6,499.54 c 1,0.1 4.2,0.3 5,2 -0.8,-2.9 -4.4,-2.7 -4.8,-2.7 l -0.2,0.7 z"
       id="path1523" />
    <path
       inkscape:connector-curvature="0"
       d="m 341.7,498.94 c 1,0.1 4.2,0 5.1,1.6 -1,-2.8 -4.6,-2.3 -5,-2.3 l -0.1,0.7 z"
       id="path1525" />
    <path
       inkscape:connector-curvature="0"
       d="m 339,499.74 c 1,0.2 4.1,0.6 4.8,2.4 -0.6,-2.9 -4.2,-3 -4.6,-3 l -0.2,0.6 z"
       id="path1527" />
    <path
       inkscape:connector-curvature="0"
       d="m 312.3,499.54 c -1,0.1 -4.2,0.3 -5,2 0.8,-2.9 4.4,-2.7 4.8,-2.7 l 0.2,0.7 z"
       id="path1529" />
    <path
       inkscape:connector-curvature="0"
       d="m 311.2,498.94 c -1,0.1 -4.2,0 -5.1,1.6 1,-2.8 4.6,-2.3 5,-2.3 l 0.1,0.7 z"
       id="path1531" />
    <path
       inkscape:connector-curvature="0"
       d="m 313.9,499.74 c -1,0.2 -4.1,0.6 -4.8,2.4 0.6,-2.9 4.2,-3 4.6,-3 l 0.2,0.6 z"
       id="path1533" />
  </g>
  <g
     style="fill:#6c6c6c;fill-rule:evenodd"
     id="g83"
     transform="matrix(0.92404066,0,0,0.92404066,-239.40378,-380.15576)">
    <path
       inkscape:connector-curvature="0"
       d="m 342.1,432.14 c 0.1,-1.7 0.3,-4.5 0.7,-4.6 0.3,0.1 0.1,2.9 0.1,4.6 -0.2,4.7 0.6,9.3 0.3,14.2 0,0.1 -0.1,1.2 -0.5,1.5 l -0.1,0 c -0.5,0 -0.4,-1.4 -0.4,-1.5 0.3,-4.8 -0.4,-9.5 -0.1,-14.2 z"
       id="path1535" />
    <path
       inkscape:connector-curvature="0"
       d="m 347.1,429.04 c 0.4,0.1 0.8,8.3 1,9.7 0.4,3.2 0.5,6.4 0.5,9.6 0,0.1 -0.1,1.3 -0.4,1.5 l -0.1,0.1 c -0.5,0 -0.5,-1.4 -0.5,-1.6 0,-3.3 0,-6.4 -0.4,-9.6 -0.2,-1.5 -1.4,-9.5 -0.1,-9.7 z"
       id="path1537" />
    <path
       inkscape:connector-curvature="0"
       d="m 351.2,431.44 c 0.4,0.1 0.2,8.6 0.2,10 0.2,3.3 0,6.6 -0.3,10 0,0.1 -0.1,1.3 -0.5,1.6 l -0.1,0 c -0.4,0 -0.4,-1.4 -0.4,-1.6 0.3,-3.5 0.5,-6.7 0.4,-10 0,-1.5 -0.6,-9.8 0.7,-10 z"
       id="path1539" />
    <path
       inkscape:connector-curvature="0"
       d="m 337.1,428.44 c 0.4,0.1 0.9,8.6 1,10 0.4,3.3 0.5,6.6 0.5,10 0,0.1 -0.1,1.3 -0.4,1.5 -0.1,0 -0.1,0.1 -0.1,0.1 -0.4,0 -0.5,-1.4 -0.5,-1.6 0,-3.5 0,-6.7 -0.4,-10 -0.1,-1.5 -1.3,-9.7 -0.1,-10 z"
       id="path1541" />
  </g>
</svg>
