<?xml version="1.0" encoding="UTF-8" standalone="no"?>
<!-- Created with Inkscape (http://www.inkscape.org/) -->

<svg
   xmlns:dc="http://purl.org/dc/elements/1.1/"
   xmlns:cc="http://creativecommons.org/ns#"
   xmlns:rdf="http://www.w3.org/1999/02/22-rdf-syntax-ns#"
   xmlns:svg="http://www.w3.org/2000/svg"
   xmlns="http://www.w3.org/2000/svg"
   xmlns:sodipodi="http://sodipodi.sourceforge.net/DTD/sodipodi-0.dtd"
   xmlns:inkscape="http://www.inkscape.org/namespaces/inkscape"
   id="svg6018"
   height="47mm"
   width="34mm"
   version="1.1"
   viewBox="0 0 120.47244 166.53543"
   inkscape:version="0.91 r13725"
   sodipodi:docname="cat_5.svg">
  <defs
     id="defs87" />
  <sodipodi:namedview
     pagecolor="#ffffff"
     bordercolor="#666666"
     borderopacity="1"
     objecttolerance="10"
     gridtolerance="10"
     guidetolerance="10"
     inkscape:pageopacity="0"
     inkscape:pageshadow="2"
     inkscape:window-width="1551"
     inkscape:window-height="823"
     id="namedview85"
     showgrid="false"
     inkscape:zoom="1.4171158"
     inkscape:cx="-180.39337"
     inkscape:cy="83.267713"
     inkscape:window-x="0"
     inkscape:window-y="0"
     inkscape:window-maximized="0"
     inkscape:current-layer="svg6018" />
  <metadata
     id="metadata6023">
    <rdf:RDF>
      <cc:Work
         rdf:about="">
        <dc:format>image/svg+xml</dc:format>
        <dc:type
           rdf:resource="http://purl.org/dc/dcmitype/StillImage" />
        <dc:title />
      </cc:Work>
    </rdf:RDF>
  </metadata>
  <g
     style="fill:#676766"
     transform="matrix(0.93296722,0,0,0.93296722,-333.5319,-276.17489)"
     id="g437">
    <path
       style="fill-rule:evenodd"
       inkscape:connector-curvature="0"
       d="m 471.1,409.1 c -3.8,-3 -9.9,1.4 -6.1,5.4 2.9,2.9 3.5,7.2 2.6,11.2 -1.2,-3.3 -4.2,-5.6 -7.6,-5.6 -1.8,0 -3.4,0.6 -4.7,1.6 1,-2.2 1.9,-4.2 2.4,-5.8 0.6,-1.8 2.4,-7.1 -1,-7 -5.2,0.1 -9.3,8.8 -10.7,11.9 -1,-9.2 -5,-18.3 -13.5,-21 -6,-1.9 -7.2,4.8 -7.5,8 -3.5,-1.5 -5.6,-1.5 -9.4,-5.1 -3.5,-3.3 -5.2,-6.7 -6,-10.1 13,-4.5 42.1,-14.1 56.9,-17.1 1.3,0.1 2.5,0 3.1,0 3.4,-0.1 7.1,-4.6 5.7,-8.5 -3.1,-8.4 -11.8,-2.9 -11.8,-2.9 L 427.7,376 c 6.2,-3.1 11.3,-8.1 13.5,-13.7 1.8,5 6.2,5.3 6.6,5.1 -2.2,-0.8 -3.3,-4.9 -2.8,-6.1 1.3,2.2 3.6,3.2 4.1,2.9 0,0 -1.5,-1.9 -1.9,-3 -1.7,-4.8 -1,-1.8 2.2,0.2 -2.4,-2.8 -1.6,-6.3 -0.7,-8.8 1.1,-1.4 2,-2.6 2.2,-3.2 0.7,-2.1 2.6,-19.5 1.4,-19.9 -1.1,-0.3 -15.9,8.4 -19.9,10.8 -3,-2.1 -6.5,-4 -10.5,-5.6 -2.6,-1.1 -9.4,-3.3 -11.4,-3.3 -0.6,-2.7 -5.8,-21.1 -6.7,-21.6 -1.1,-0.5 -11.9,13.3 -12.9,15.2 -0.3,0.7 -0.6,2.3 -0.7,4.3 -0.8,2 -2,4.6 -4.4,5.9 l -3.3,-14.5 c 0,0 0.5,-10.3 -8.3,-8.8 -4.1,0.7 -6.3,6.1 -4.6,9.1 0.3,0.6 0.8,1.6 1.6,2.8 5.5,16.6 13.4,52.8 15.1,60.8 -7.8,14.5 -7,33.3 4.8,45.2 1.9,1.9 3.9,3.6 6.1,5 -2.4,1.3 -4.7,3.4 -2.8,6.7 1.9,3.4 8.9,6 14.6,7.5 -4.7,2.2 -10,5.7 -9.7,10.8 0.3,6.2 27.2,-9.1 27,-11.1 -0.1,-1.1 -2.5,-3.8 -4.6,-6 -0.3,-0.6 -0.5,-1.1 -0.7,-1.7 3.2,-0.3 6.1,-1.1 8.5,-2.3 5.2,10.2 24.2,8 32.7,4 11.2,-5.3 20.9,-24.1 8.9,-33.6 z m -13.8,28.7 c -6.5,1.7 -17.7,2.7 -23.5,-2.2 1.8,-1.8 3.2,-3.9 4.1,-6 l 1.1,0.8 c 2.4,2.3 6.1,5.8 7.5,5.9 0.9,0.1 3.1,-3.3 5.4,-7.5 l 0,0.5 c -0.1,3.8 2.2,7.2 5.4,8.5 z"
       id="path439" />
    <path
       inkscape:connector-curvature="0"
       d="m 401.2,467.3 c -5.3,0 -7.9,-3.7 -8.1,-7.2 -0.1,-2.7 0.5,-6 3.2,-9.4 -4.5,-2.3 -6.3,-4.6 -7.3,-6.3 -1.9,-3.2 -1.6,-6.1 -1.1,-7.9 0.1,-0.4 0.2,-0.7 0.4,-1.1 -0.5,-0.5 -1.1,-1 -1.6,-1.5 -12.5,-12.6 -15.2,-33 -6.9,-50.3 -2,-9.2 -9.2,-41.8 -14.3,-57.4 -0.7,-1.1 -1.1,-2 -1.4,-2.5 l -0.1,-0.1 c -1.7,-3.2 -1.6,-7.3 0.2,-11 1.8,-3.7 5,-6.2 8.8,-6.8 4.7,-0.8 8.6,0.5 11.4,3.4 2.6,2.8 3.5,6.3 3.8,8.8 1.9,-2.5 4,-5.1 4.2,-5.3 6,-7.4 8.1,-9.1 11.3,-9.1 0.9,0 1.8,0.2 2.6,0.6 0.1,0 0.1,0.1 0.2,0.1 2.5,1.3 3.2,2.8 6.5,13.6 0.8,2.8 1.7,5.8 2.4,8.2 3.8,1 8,2.6 8.8,2.9 3,1.2 5.8,2.6 8.3,4.1 16.6,-9.7 17.9,-9.7 19.7,-9.7 0.6,0 1.3,0.1 1.8,0.3 l 0.1,0 c 5.3,1.8 4.8,7.2 4.1,15.5 0,0.1 -0.8,9.3 -1.6,11.8 -0.3,0.9 -0.8,2.1 -2.5,4.3 -0.3,0.9 -0.3,1.6 -0.2,1.9 0.8,0.9 1.3,2 1.5,3.2 l 5.9,-1.9 c 1.5,-0.8 4.6,-2.3 8.2,-2.3 5.4,0 9.6,3.1 11.6,8.6 1.3,3.6 0.7,7.6 -1.6,11 -2.3,3.4 -5.8,5.4 -9.5,5.6 l -0.1,0 c -0.7,0 -1.8,0.1 -2.8,0 -12.9,2.8 -36.4,10.4 -49.1,14.7 0.6,0.7 1.2,1.5 2,2.2 0.5,0.4 0.9,0.8 1.3,1.1 2.8,-5.5 7.7,-6 9.5,-6 1.2,0 2.5,0.2 3.7,0.6 6,1.9 10.8,6.2 13.9,12.5 2.6,-2.4 5.4,-3.6 8.4,-3.7 l 0.2,0 c 1.8,0 3.4,0.5 4.7,1.5 1.9,-1.5 4.3,-2.4 6.8,-2.4 2.4,0 4.6,0.8 6.5,2.3 5.8,4.6 8.5,11.3 7.6,18.9 -1.2,10.1 -8.7,20.5 -17.9,24.9 -5.1,2.4 -12.4,4 -18.9,4 -5.3,0 -9.9,-1 -13.6,-2.8 -0.1,1.2 -0.6,2.6 -1.9,4.1 -3.5,3.8 -21,14 -29.1,14 z m -0.5,-27.7 c 1.6,0.9 4.5,2.3 9.6,3.7 2.4,0.7 4.2,2.8 4.4,5.3 l 0,1 c 1.2,-0.6 2.2,-1.3 3.2,-1.9 l -0.7,-0.7 c -0.5,-0.5 -0.9,-1.1 -1.2,-1.7 -0.4,-0.8 -0.6,-1.5 -0.9,-2.3 -0.6,-1.7 -0.3,-3.7 0.7,-5.2 1,-1.5 2.7,-2.5 4.5,-2.7 2.3,-0.2 4.4,-0.7 6.2,-1.7 0.6,-0.3 1.2,-0.5 1.9,-0.6 0.3,-0.6 0.7,-1.1 1.1,-1.5 1.2,-1.2 2.1,-2.5 2.7,-4 0.7,-1.7 2.1,-3 3.8,-3.5 1.7,-0.5 3.6,-0.2 5.1,0.8 l 0.2,0.2 c -0.8,-0.9 -1.3,-2 -1.4,-3.2 -0.3,-3 -1.9,-12.9 -8.5,-15.6 -0.2,0.6 -0.3,1.4 -0.4,2.5 -0.2,1.9 -1.2,3.6 -2.9,4.6 -1.6,1 -3.7,1.1 -5.4,0.4 -0.7,-0.3 -1.3,-0.5 -2,-0.8 -2.5,-0.9 -5.4,-1.9 -9.2,-5.6 -4.1,-4 -6.6,-8.3 -7.7,-13.1 -0.6,-3 1,-6 3.9,-6.9 4.1,-1.4 10.3,-3.5 17.2,-5.7 -1.2,-0.6 -2.3,-1.7 -2.8,-3.1 -1.2,-2.9 0,-6.2 2.9,-7.6 5,-2.5 9,-6.5 10.7,-10.7 0.9,-2.1 2.8,-3.5 5,-3.7 0.2,-0.3 0.3,-0.7 0.6,-1 0.2,-0.3 0.4,-0.5 0.6,-0.7 0.2,-1.2 0.5,-2.5 1,-3.8 0.2,-0.7 0.6,-1.3 1.1,-1.9 0.6,-0.7 0.9,-1.2 1.1,-1.4 0.3,-1.5 0.7,-4.9 1,-8.2 -2.6,1.5 -6.1,3.5 -10.8,6.3 -2,1.2 -4.6,1.1 -6.5,-0.3 -2.6,-1.8 -5.7,-3.5 -9.3,-4.9 -2.5,-1 -7.9,-2.7 -9.3,-2.9 -2.7,-0.1 -5.1,-2 -5.7,-4.7 -0.3,-1.6 -1.9,-6.9 -3.3,-11.7 -2.1,2.6 -4.1,5.3 -5,6.5 -0.1,0.4 -0.2,1 -0.2,2.2 0,0.6 -0.2,1.2 -0.4,1.8 -1.2,3.1 -3.1,6.8 -7.2,9 -1.6,0.9 -3.6,0.9 -5.3,0.2 -0.5,-0.2 -1,-0.6 -1.5,-1 4.6,17.6 9.1,38.4 10.2,43.6 0.3,1.4 0.1,2.9 -0.6,4.1 -7,13.1 -5.5,28.8 3.8,38.2 1.7,1.7 3.4,3.1 5.1,4.2 1.8,1.2 2.8,3.2 2.7,5.3 0.1,1.7 -0.8,3.3 -2.1,4.4 z m 57.1,-10.3 c 0,1.6 0.9,2.6 1.7,2.9 1.5,0.6 2.6,1.7 3.2,3.1 1.3,-1 2.5,-2.3 3.5,-3.7 -1.9,-0.5 -3.5,-1.8 -4.2,-3.7 -0.3,-0.8 -1,-1.7 -2,-1.7 -0.4,0 -0.7,0.1 -1.1,0.4 -0.4,0.3 -0.9,0.6 -1.3,0.8 0.2,0.5 0.3,1.2 0.2,1.9 z m -14.4,-3 c 0.7,0.7 1.4,1.3 1.9,1.8 0.2,-0.4 0.4,-0.7 0.7,-1.2 -0.3,0 -0.5,0 -0.8,-0.1 -0.7,-0.1 -1.3,-0.2 -1.8,-0.5 z m 23.2,-56.6 0.5,0 c 0.9,0.1 1.6,0 2.1,0 0.2,-0.2 0.4,-0.5 0.5,-0.7 -0.1,-0.3 -0.2,-0.5 -0.3,-0.6 -0.8,0 -2,0.5 -2.6,0.9 -0.2,0.2 -0.5,0.3 -0.7,0.4 l 0.5,0 z m -91.8,-51.1 c 0.3,0.5 0.6,1.2 1.1,1.9 0.2,0.3 0.4,0.6 0.5,0.9 l 0,-0.9 c 0,-0.9 -0.2,-2.2 -0.5,-2.6 l -0.7,0 c -0.2,0.1 -0.3,0.4 -0.4,0.7 z"
       id="path441" />
  </g>
  <path
     id="path445"
     d="m 105.98896,105.502 c -3.54528,-2.7989 -9.236378,1.30615 -5.6911,5.03802 2.7056,2.70561 3.26538,6.71737 2.42571,10.44924 -1.11956,-3.0788 -3.91846,-5.22462 -7.090549,-5.22462 -1.679341,0 -3.172088,0.55978 -4.384946,1.49275 0.932967,-2.05253 1.772638,-3.91847 2.239122,-5.41121 0.55978,-1.67934 2.239121,-6.62407 -0.932968,-6.53077 -4.851429,0.0933 -8.676595,8.21011 -9.982749,11.10231 -0.932967,-8.5833 -4.664836,-17.073304 -12.595057,-19.592315 -5.597804,-1.772638 -6.717364,4.478245 -6.997254,7.463735 -3.265386,-1.39945 -5.224617,-1.39945 -8.769892,-4.758131 -3.265386,-3.078791 -4.85143,-6.25088 -5.597804,-9.422968 12.128574,-4.198353 39.27792,-13.154838 53.085837,-15.95374 1.21286,0.0933 2.33242,0 2.8922,0 3.17209,-0.0933 6.62406,-4.291649 5.31791,-7.930221 -2.8922,-7.836925 -11.009014,-2.705605 -11.009014,-2.705605 L 65.49818,74.620785 c 5.784397,-2.892199 10.54253,-7.557035 12.595057,-12.781651 1.679341,4.664836 5.784397,4.944726 6.157584,4.758133 -2.052528,-0.746374 -3.078792,-4.57154 -2.612308,-5.6911 1.212857,2.052527 3.358682,2.985495 3.825166,2.705605 0,0 -1.399451,-1.772638 -1.772638,-2.798902 -1.586044,-4.478243 -0.932967,-1.679341 2.052528,0.186593 -2.239122,-2.612308 -1.492748,-5.877693 -0.653077,-8.210111 1.026264,-1.306154 1.865934,-2.425715 2.052527,-2.985495 0.653078,-1.959231 2.425715,-18.192861 1.306155,-18.566048 C 87.42291,30.957919 73.614995,39.074734 69.883126,41.313855 67.084224,39.354624 63.818839,37.581986 60.08697,36.089239 57.661255,35.062975 51.317078,33.010447 49.451144,33.010447 48.891363,30.491435 44.039934,13.324838 43.200263,12.858355 42.173999,12.391871 32.097954,25.266819 31.164986,27.039456 c -0.27989,0.653078 -0.55978,2.145825 -0.653077,4.01176 -0.746374,1.865934 -1.865934,4.291649 -4.105056,5.504506 L 23.328062,23.027697 c 0,0 0.466483,-9.609562 -7.743628,-8.210111 -3.825166,0.653077 -5.8776938,5.6911 -4.291649,8.490002 0.27989,0.55978 0.746373,1.492747 1.492747,2.612308 5.13132,15.487256 12.501761,49.260669 14.087805,56.724407 -7.277144,13.528025 -6.53077,31.067807 4.478243,42.170117 1.772637,1.77264 3.638572,3.35868 5.6911,4.66484 -2.239122,1.21285 -4.384946,3.17209 -2.612308,6.25088 1.772637,3.17209 8.303408,5.5978 13.621321,6.99725 -4.384946,2.05253 -9.329672,5.31791 -9.049782,10.07605 0.27989,5.78439 25.376708,-8.49 25.190115,-10.35594 -0.0933,-1.02626 -2.332418,-3.54527 -4.291649,-5.5978 -0.27989,-0.55978 -0.466484,-1.02627 -0.653077,-1.58605 2.985495,-0.27989 5.6911,-1.02626 7.930221,-2.14582 4.85143,9.51627 22.577807,7.46374 30.508028,3.73187 10.449231,-4.94473 19.499011,-22.48451 8.303411,-31.3477 z m -12.87495,26.77616 c -6.064287,1.58604 -16.51352,2.51901 -21.92473,-2.05253 1.679341,-1.67934 2.985495,-3.63857 3.825166,-5.5978 l 1.026264,0.74637 c 2.239121,2.14583 5.6911,5.41121 6.997254,5.50451 0.83967,0.0933 2.892198,-3.07879 5.038023,-6.99726 l 0,0.46649 c -0.0933,3.54527 2.052528,6.71736 5.038023,7.93022 z"
     inkscape:connector-curvature="0"
     style="fill:#fefefe;fill-rule:evenodd" />
  <path
     style="fill:#fefefe"
     id="path447"
     d="m 40.774549,158.96102 c -4.384946,0 -6.530771,-2.98549 -6.624068,-5.7844 -0.186593,-2.51901 0.559781,-5.78439 3.545276,-8.95648 -5.597803,-2.61231 -6.903958,-5.03802 -7.463738,-5.97099 -1.586044,-2.70561 -1.399451,-5.13132 -0.932967,-6.62407 0.186593,-0.55978 0.373187,-1.02626 0.55978,-1.49275 -0.653077,-0.55978 -1.306154,-1.21285 -1.959231,-1.86593 C 16.424104,116.69761 14.091686,97.944965 21.742017,82.177819 19.689489,72.941444 13.065422,42.806603 8.3072894,28.159017 7.6542124,27.132753 7.2810255,26.293083 7.0011353,25.826599 l -0.093297,-0.0933 c -1.3994509,-2.705605 -1.3994509,-6.25088 0.1865934,-9.422969 1.5860443,-3.172088 4.291649,-5.317913 7.557035,-5.877693 4.011759,-0.6530771 7.463737,0.373187 9.796155,2.892198 2.985495,3.172089 3.358682,7.557035 3.358682,9.422969 l 0.186594,0.653077 c 1.865934,-2.705605 5.224616,-6.81066 5.224616,-6.81066 5.6911,-6.9972545 7.370441,-8.1168152 9.796156,-8.1168152 0.653077,0 1.492748,0.1865935 2.052528,0.4664836 0.0933,0 0.0933,0 0.0933,0.093297 1.959231,1.0262638 2.519011,1.9592308 5.597803,12.1285738 0.83967,2.798902 1.679341,5.877693 2.332418,8.116815 3.638572,0.932967 7.930221,2.519011 8.676595,2.798901 2.892198,1.212858 5.6911,2.519012 8.116815,4.01176 15.673849,-9.236376 16.980003,-9.236376 18.379454,-9.236376 0.466484,0 1.026264,0.0933 1.399451,0.186593 l 0.0933,0 c 4.291649,1.399451 3.825165,5.970991 3.172088,13.528025 -0.186593,2.332418 -0.932967,8.956486 -1.492747,10.82242 -0.27989,0.746374 -0.746374,1.865934 -2.332418,3.825166 -0.466484,1.679341 -0.373187,2.332418 -0.0933,2.798901 0.746374,0.839671 1.306154,1.959231 1.306154,3.172089 l 0,0.466483 6.810661,-2.239121 c 1.212857,-0.653077 4.105051,-2.052528 7.277141,-2.052528 4.57154,0 8.21011,2.705605 9.98275,7.463738 1.11956,3.078792 0.65308,6.53077 -1.39945,9.422969 -1.95923,2.892198 -5.03802,4.664836 -8.11681,4.758133 l -0.0933,0 c -0.65308,0 -1.67934,0.0933 -2.61231,0 -12.501759,2.612308 -35.546049,10.169342 -47.20814,14.087805 0.653077,1.11956 1.586045,2.145824 2.705605,3.172088 0.839671,0.839671 1.586045,1.399451 2.239122,1.772638 2.332418,-5.504507 6.81066,-6.064287 8.490001,-6.064287 1.026264,0 2.145825,0.186593 3.172089,0.55978 5.6911,1.772638 10.169343,6.157584 12.968244,12.315165 2.519012,-2.7056 5.224617,-4.01176 8.116815,-4.10505 l 0.0933,0 c 1.679341,0 3.265385,0.55978 4.384946,1.67934 1.679341,-1.58605 3.918461,-2.519014 6.344181,-2.519014 2.05252,0 3.91846,0.653074 5.5045,1.959234 5.13132,4.10505 7.55704,9.98275 6.71737,16.79341 -1.02627,9.14308 -7.83693,18.56605 -16.140336,22.48451 -4.664837,2.23912 -11.288904,3.63857 -17.259894,3.63857 -5.504507,0 -10.169343,-1.11956 -13.714618,-3.35868 0,0.18659 0.0933,0.37318 0.0933,0.55978 0.0933,1.58604 -0.373187,2.98549 -1.492748,4.19835 -3.078792,3.35868 -19.219125,12.78165 -26.402972,12.78165 z M 38.628724,133.8642 c 1.026264,0.93297 4.011759,2.61231 10.355936,4.38495 1.865935,0.55978 3.265385,2.14582 3.451979,4.10505 0.0933,0.93297 -0.186594,1.95924 -0.653077,2.70561 2.239121,-1.21286 4.384946,-2.42571 5.97099,-3.45198 -0.373187,-0.46648 -0.83967,-0.93297 -1.399451,-1.49275 -0.373187,-0.37318 -0.653077,-0.83967 -0.932967,-1.30615 -0.27989,-0.74637 -0.55978,-1.39945 -0.83967,-2.05253 -0.466484,-1.39945 -0.279891,-2.8922 0.55978,-4.01176 0.746374,-1.21285 2.052528,-1.95923 3.545275,-2.05253 2.239122,-0.18659 4.384946,-0.74637 6.157584,-1.67934 0.653077,-0.27989 1.306154,-0.46648 1.959231,-0.46648 0.27989,-0.65308 0.55978,-1.21286 1.119561,-1.67934 1.212857,-1.21286 2.145824,-2.51901 2.705605,-4.01176 0.55978,-1.30615 1.586044,-2.33242 2.985495,-2.7056 1.399451,-0.37319 2.798901,-0.1866 4.011759,0.65307 l 1.026264,0.74638 c 0.186593,0.18659 0.373187,0.27989 0.55978,0.46648 1.212858,1.21286 2.145825,2.05253 2.892199,2.7056 0.466483,-0.83967 1.11956,-1.86593 1.865934,-3.07879 0.0933,-0.27989 0.27989,-0.46648 0.466484,-0.65307 -0.746374,0.27989 -1.586045,0.37318 -2.425715,0.27989 -2.052528,-0.27989 -3.731869,-1.95924 -3.918463,-4.10506 -0.466483,-3.91846 -2.239121,-13.43473 -9.329672,-15.67385 l -0.0933,0 c -0.279891,0.46648 -0.653078,1.58604 -0.839671,3.45198 -0.0933,1.49275 -0.932967,2.7989 -2.239121,3.63857 -1.306154,0.74638 -2.892199,0.93297 -4.198353,0.27989 -0.653077,-0.27989 -1.306154,-0.46648 -1.959231,-0.74637 -2.239121,-0.83967 -4.851429,-1.77264 -8.210111,-5.03803 -3.731869,-3.545271 -5.970991,-7.463733 -6.903958,-11.755382 -0.466484,-2.332418 0.839671,-4.664836 3.078792,-5.41121 11.288903,-3.825166 39.184623,-13.154838 53.645614,-16.140333 0.46648,-0.0933 0.93297,-0.0933 1.30616,-0.0933 0.83967,0.0933 1.58604,0 2.05252,0 l 0.1866,0 c 0.18659,-0.0933 0.65307,-0.466483 0.93296,-1.026263 0.1866,-0.373187 0.1866,-0.559781 0.1866,-0.653078 -0.46649,-1.306154 -0.83967,-1.306154 -1.21286,-1.306154 -1.02626,0 -2.42571,0.653077 -2.8922,0.932968 -0.27989,0.186593 -0.65308,0.373186 -1.02626,0.466483 L 67.084224,79.099027 c -2.332418,0.746374 -4.851429,-0.373187 -5.784396,-2.612308 -0.932968,-2.239121 0,-4.851429 2.239121,-5.97099 4.851429,-2.425715 8.769892,-6.344177 10.449233,-10.449233 0.746373,-1.772638 2.519011,-2.892198 4.478242,-2.892198 l 0.0933,0 c 0.0933,-0.466484 0.373187,-0.932968 0.653077,-1.306154 0.186594,-0.279891 0.373187,-0.466484 0.653077,-0.746374 0.186594,-1.679341 0.653077,-2.985495 0.932967,-3.731869 0.186594,-0.55978 0.466484,-1.026264 0.839671,-1.492748 0.653077,-0.83967 1.026264,-1.306154 1.212857,-1.586044 0.373187,-1.586044 0.839671,-5.877693 1.119561,-9.609562 -2.519012,1.399451 -6.25088,3.545275 -11.66209,6.717364 -1.586045,0.932967 -3.545276,0.83967 -5.038023,-0.186594 -2.425715,-1.772637 -5.41121,-3.358682 -8.863189,-4.664836 -2.425715,-1.026264 -7.650331,-2.612308 -8.956485,-2.705605 -2.145825,0 -4.011759,-1.586044 -4.478243,-3.638572 -0.373187,-1.679341 -2.145824,-7.836925 -3.638572,-12.688354 -2.425715,2.892198 -5.038023,6.344177 -5.877693,7.650331 -0.0933,0.27989 -0.186594,1.026264 -0.279891,2.332418 0,0.466484 -0.186593,0.932967 -0.27989,1.399451 -1.11956,2.705605 -2.798901,6.064287 -6.25088,7.930221 -1.306154,0.653077 -2.798902,0.746374 -4.105056,0.0933 -1.306154,-0.55978 -2.239121,-1.772638 -2.612308,-3.172088 L 18.849819,24.240555 c -0.0933,-0.466484 -0.0933,-0.839671 -0.0933,-1.306154 0,-0.932967 -0.27989,-2.612308 -0.83967,-3.265386 -0.0933,-0.0933 -0.186594,-0.186593 -0.746374,-0.186593 -0.186593,0 -0.466484,0 -0.746374,0.0933 -0.0933,0 -0.27989,0.186593 -0.466483,0.466483 -0.373187,0.559781 -0.466484,1.119561 -0.466484,1.306154 l 0.0933,0.186594 c 0.27989,0.466484 0.55978,1.212857 1.026264,1.865934 0.27989,0.373187 0.466483,0.746374 0.55978,1.119561 5.224616,15.953739 12.781651,50.473527 14.274398,57.190891 0.279891,1.11956 0.0933,2.239121 -0.466483,3.172088 -6.717364,12.501761 -5.224617,27.615826 3.731869,36.758906 1.679341,1.67934 3.265385,2.9855 4.851429,4.10506 1.399451,0.93297 2.145825,2.42571 2.145825,4.10505 -0.0933,1.67935 -1.026264,3.17209 -2.519012,3.91847 -0.27989,0 -0.466483,0.0933 -0.55978,0.0933 z m 54.018802,-9.60956 c 0,1.67934 0.932967,3.17209 2.145825,3.63857 1.492747,0.65308 2.612308,1.95923 2.892198,3.54528 2.145825,-1.49275 4.011761,-3.45198 5.504511,-5.7844 l -0.0933,0 c -2.05253,0.1866 -4.01176,-1.11956 -4.664837,-3.07879 -0.466484,-1.30615 -1.586044,-2.14582 -2.705605,-2.14582 -0.55978,0 -1.119561,0.18659 -1.586044,0.55978 -0.559781,0.46648 -1.212858,0.74637 -1.865935,0.83967 0.373187,0.83967 0.466484,1.58604 0.373187,2.42571 z m -5.877693,-5.6911 -0.559781,0.83967 c 0.27989,-0.0933 0.466484,-0.18659 0.746374,-0.27989 0,-0.0933 -0.0933,-0.27989 -0.186593,-0.55978 z"
     inkscape:connector-curvature="0" />
  <g
     style="fill-rule:evenodd"
     id="g11"
     transform="matrix(0.93296722,0,0,0.93296722,-183.98658,-411.98693)">
    <path
       inkscape:connector-curvature="0"
       d="m 310.81,554.67 c -3.8,-3 -9.9,1.4 -6.1,5.4 6.7,6.9 1.4,20.7 -7.7,23.2 -7.1,1.9 -19.5,2.9 -24.8,-3.3 -1.8,-2.2 -4.6,1.1 -3.9,3.1 4.2,11.7 24.5,9.5 33.3,5.3 11.5,-5.4 21.2,-24.2 9.2,-33.7 z"
       id="path685" />
    <path
       inkscape:connector-curvature="0"
       d="m 246.91,528.37 -4.1,12.3 c 0,0 48.7,-17 66.3,-19.9 2.5,-0.4 7,-3.9 5.7,-7.9 -2.1,-6.8 -11.5,-3 -11.5,-3 l -56.4,18.5 z"
       id="path687" />
    <path
       style="fill:#6c6c6c"
       inkscape:connector-curvature="0"
       d="m 315.11,512.67 c -3.1,-8.4 -11.8,-2.9 -11.8,-2.9 0,0 -5.1,2.5 -3.5,7.1 1.7,5.1 7.9,4.4 9.6,4.4 3.5,-0.1 7.2,-4.7 5.7,-8.6 z"
       id="path689" />
  </g>
  <g
     style="fill:#fa8973;fill-rule:evenodd"
     id="g16"
     transform="matrix(0.93296722,0,0,0.93296722,-183.98658,-411.98693)">
    <path
       inkscape:connector-curvature="0"
       d="m 309.01,514.87 c 0.4,1.8 -0.9,3.6 -2.8,3.9 -1.9,0.4 -3.7,-0.8 -4.1,-2.6 -0.3,-1.8 0.9,-3.6 2.8,-4 1.9,-0.3 3.8,0.9 4.1,2.7 z"
       id="path691" />
    <path
       inkscape:connector-curvature="0"
       d="m 309.31,511.17 c -0.6,0.6 -1.5,0.7 -2,0.2 -0.5,-0.5 -0.5,-1.4 0.1,-2 0.6,-0.7 1.5,-0.7 2,-0.3 0.5,0.6 0.5,1.5 -0.1,2.1 z"
       id="path693" />
    <path
       inkscape:connector-curvature="0"
       d="m 312.81,513.47 c -0.8,0.4 -1.7,0.1 -2,-0.6 -0.3,-0.7 0.1,-1.5 0.9,-1.9 0.8,-0.4 1.6,-0.1 2,0.6 0.3,0.7 -0.1,1.5 -0.9,1.9 z"
       id="path695" />
    <path
       inkscape:connector-curvature="0"
       d="m 312.71,517.37 c -0.9,0.1 -1.6,-0.5 -1.7,-1.2 -0.1,-0.8 0.6,-1.4 1.5,-1.5 0.9,-0.1 1.7,0.5 1.7,1.3 0.1,0.7 -0.6,1.3 -1.5,1.4 z"
       id="path697" />
    <path
       inkscape:connector-curvature="0"
       d="m 309.91,520.27 c -0.8,-0.1 -1.4,-0.8 -1.3,-1.4 0.1,-0.7 0.8,-1.2 1.6,-1 0.8,0.2 1.4,0.8 1.3,1.4 -0.1,0.6 -0.8,1.1 -1.6,1 z"
       id="path699" />
  </g>
  <path
     style="fill-rule:evenodd"
     inkscape:connector-curvature="0"
     d="m 35.083453,75.180563 -8.116815,8.956486 c 0,0 -9.609562,-45.155614 -15.300662,-60.736166 -0.839671,-2.239122 0,-7.463738 3.825165,-8.303409 6.530771,-1.399451 7.743628,7.930222 7.743628,7.930222 l 11.848684,52.152867 z"
     id="path701" />
  <path
     style="fill:#6c6c6c;fill-rule:evenodd"
     inkscape:connector-curvature="0"
     d="m 15.397845,14.817584 c 8.303408,-1.306154 7.743628,8.210112 7.743628,8.210112 0,0 0.27989,5.317913 -4.198353,6.064287 -4.944726,0.932967 -7.183848,-4.384946 -7.930221,-5.784397 -1.4927479,-2.798902 0.55978,-7.836925 4.384946,-8.490002 z"
     id="path703" />
  <g
     style="fill:#fa8973;fill-rule:evenodd"
     id="g25"
     transform="matrix(0.93296722,0,0,0.93296722,-183.98658,-411.98693)">
    <path
       inkscape:connector-curvature="0"
       d="m 214.81,463.87 c -1.8,0.6 -2.7,2.5 -2.1,4.4 0.6,1.8 2.6,2.8 4.3,2.2 1.7,-0.6 2.7,-2.6 2.1,-4.4 -0.6,-1.8 -2.6,-2.8 -4.3,-2.2 z"
       id="path705" />
    <path
       inkscape:connector-curvature="0"
       d="m 217.91,461.77 c -0.3,0.8 0.1,1.6 0.8,1.9 0.7,0.2 1.5,-0.3 1.8,-1 0.3,-0.8 -0.1,-1.7 -0.8,-1.9 -0.8,-0.3 -1.6,0.2 -1.8,1 z"
       id="path707" />
    <path
       inkscape:connector-curvature="0"
       d="m 214.21,459.87 c 0.1,0.9 0.7,1.5 1.4,1.4 0.8,-0.1 1.3,-0.8 1.2,-1.7 -0.1,-0.9 -0.7,-1.5 -1.5,-1.4 -0.7,0.1 -1.2,0.8 -1.1,1.7 z"
       id="path709" />
    <path
       inkscape:connector-curvature="0"
       d="m 210.81,461.87 c 0.4,0.8 1.2,1.2 1.9,0.9 0.7,-0.3 1,-1.2 0.6,-2.1 -0.4,-0.8 -1.2,-1.2 -1.9,-0.9 -0.7,0.4 -1,1.3 -0.6,2.1 z"
       id="path711" />
    <path
       inkscape:connector-curvature="0"
       d="m 209.71,465.77 c 0.5,0.6 1.3,0.8 1.9,0.4 0.5,-0.4 0.6,-1.3 0.1,-1.9 -0.5,-0.7 -1.3,-0.8 -1.9,-0.4 -0.5,0.4 -0.6,1.2 -0.1,1.9 z"
       id="path713" />
  </g>
  <g
     style="fill-rule:evenodd"
     id="g32"
     transform="matrix(0.93296722,0,0,0.93296722,-183.98658,-411.98693)">
    <path
       inkscape:connector-curvature="0"
       d="m 250.41,523.27 c -1.9,9.6 -3.2,17.2 5,25.1 6.2,5.9 7.9,2.2 18.5,10.9 10.9,8.9 2.4,30.8 -20.9,27 -10.7,-1.8 -16.9,-5.3 -22.5,-10.9 -16.6,-16.8 -11.5,-47 8.8,-60.1 l 11.1,8 z"
       id="path715" />
    <path
       inkscape:connector-curvature="0"
       d="m 264.81,555.07 c 0,0 -0.3,-12 7.5,-9.6 12.8,4 15.5,23 12.8,34.6 l -13.4,-8.9 -6.9,-16.1 z"
       id="path717" />
    <path
       inkscape:connector-curvature="0"
       d="m 283.81,571.47 c 0,0 5.6,-17.5 13,-16.8 6.3,0.5 -8.8,27.3 -10.8,27.2 -2,-0.1 -9.4,-7.8 -9.4,-7.8 l 7.2,-2.6 z"
       id="path719" />
    <path
       style="fill:#6c6c6c"
       inkscape:connector-curvature="0"
       d="m 292.91,555.97 c 1.2,-0.9 2.6,-1.5 4,-1.4 2.9,0.3 1.3,6 -1.5,12.2 -0.5,0.4 -1.1,0.6 -1.7,0.6 -2.1,0 -3.2,-3.1 -2.5,-7 0.3,-1.7 0.9,-3.2 1.7,-4.4 z"
       id="path721" />
  </g>
  <g
     style="fill:#fa8973;fill-rule:evenodd"
     id="g38"
     transform="matrix(0.93296722,0,0,0.93296722,-183.98658,-411.98693)">
    <path
       inkscape:connector-curvature="0"
       d="m 296.31,562.17 c -0.6,1.5 -1.8,2.3 -2.7,1.8 -0.9,-0.5 -1,-2.2 -0.5,-3.7 0.6,-1.5 1.8,-2.3 2.7,-1.8 0.9,0.6 1.1,2.2 0.5,3.7 z"
       id="path723" />
    <path
       inkscape:connector-curvature="0"
       d="m 294.91,557.37 c -0.2,0.5 -0.6,0.8 -1,0.7 -0.4,-0.1 -0.6,-0.7 -0.4,-1.2 0.2,-0.5 0.6,-0.8 1,-0.7 0.3,0.1 0.5,0.6 0.4,1.2 z"
       id="path725" />
    <path
       inkscape:connector-curvature="0"
       d="m 296.81,558.37 c -0.1,0.5 0,1.4 0.4,1.3 0.4,-0.2 1,-1.7 0.4,-2 -0.3,-0.2 -0.6,0.2 -0.8,0.7 z"
       id="path727" />
    <path
       inkscape:connector-curvature="0"
       d="m 297.11,557.17 c -0.2,0.6 -0.7,0.9 -1.1,0.8 -0.4,-0.2 -0.7,-0.8 -0.5,-1.4 0.2,-0.6 0.7,-1 1.1,-0.8 0.4,0.1 0.6,0.8 0.5,1.4 z"
       id="path729" />
  </g>
  <g
     style="fill-rule:evenodd"
     id="g44"
     transform="matrix(0.93296722,0,0,0.93296722,-183.98658,-411.98693)">
    <path
       inkscape:connector-curvature="0"
       d="m 255.41,592.17 c 0,0 -17.2,4.1 -16.7,13.2 0.3,6.2 27.2,-9.1 27,-11.1 -0.2,-2 -7.9,-9.3 -7.9,-9.3 l -2.4,7.2 z"
       id="path731" />
    <path
       style="fill:#6c6c6c"
       inkscape:connector-curvature="0"
       d="m 239.81,601.37 c -0.9,1.1 -1.1,2.6 -1,4.1 0.2,3.1 7.1,0.8 13.9,-2.5 3,-5.4 -10.5,-4.8 -12.9,-1.6 z"
       id="path733" />
    <path
       inkscape:connector-curvature="0"
       d="m 240.71,578.97 c 0,0 -10.2,2.3 -6.8,8.2 3.4,5.9 22.3,9.4 22.3,9.4 l 9.3,-1.8 c 0,0 -6.3,-6.8 -5.2,-11.6 1.1,-4.9 -19.6,-4.2 -19.6,-4.2 z"
       id="path735" />
  </g>
  <polygon
     style="fill:#ff0000"
     transform="matrix(0.93296722,0,0,0.93296722,-333.5319,-276.17489)"
     points="410,382.9 393.7,374.6 396.8,370.9 410.7,378.2 "
     id="polygon737" />
  <g
     style="fill-rule:evenodd"
     id="g50"
     transform="matrix(0.93296722,0,0,0.93296722,-183.98658,-411.98693)">
    <path
       inkscape:connector-curvature="0"
       d="m 227.81,487.87 c -3.9,11.9 2.2,29.6 16.2,35.3 14.5,5.9 32,-3.2 36.9,-15.3 1.8,5 6.2,5.3 6.6,5.1 -2.2,-0.8 -3.3,-4.9 -2.8,-6.1 1.3,2.2 3.6,3.2 4.1,2.9 0,0 -1.5,-1.9 -1.9,-3 -1.7,-4.8 -1,-1.8 2.2,0.2 -2.4,-2.8 -1.6,-6.3 -0.7,-8.8 1.1,-1.4 2,-2.6 2.2,-3.2 0.7,-2.1 2.6,-19.5 1.4,-19.9 -1,-0.3 -14.7,7.7 -18.7,10.1 l -1.2,0.7 c -3,-2.1 -6.5,-4 -10.5,-5.6 -3.9,-1.6 -7.7,-2.7 -11.4,-3.3 -0.6,-2.7 -5.8,-21.1 -6.7,-21.6 -1.1,-0.5 -11.9,13.3 -12.9,15.2 -0.3,0.7 -0.6,2.3 -0.7,4.3 -1,2.6 -2.7,6.1 -6.7,6.6 3.7,0.6 6.2,-1.1 1.7,1.3 -1,0.6 -3.4,0.9 -3.4,0.9 -0.3,0.2 2.5,1.3 5,0.5 -0.5,1.2 -4,3.6 -6.2,2.6 -0.6,-0.1 3.1,3 7.5,1.1 z"
       id="path739" />
    <path
       style="fill:#fa8973"
       inkscape:connector-curvature="0"
       d="m 242.71,460.57 c -0.8,-0.4 -8.1,9 -8.8,10.3 -0.7,1.3 -0.7,9.4 -0.7,9.4 l 10.4,-3.8 -0.9,-15.9 z"
       id="path741" />
    <path
       style="fill:#6c6c6c"
       inkscape:connector-curvature="0"
       d="m 245.51,519.27 0.1,0.1 c 16.2,6.8 34.4,-8.6 31.3,-20.1 -1.6,-6.1 -8.6,-11.9 -20,-8.7 -5.9,-10.3 -14.5,-10.7 -19.8,-7.5 -10,6.1 -7.7,29.9 8.4,36.2 z"
       id="path743" />
    <path
       style="fill:#fa8973"
       inkscape:connector-curvature="0"
       d="m 289.21,478.67 c 0.8,0.3 -1.1,12 -1.6,13.4 -0.5,1.4 -6.4,7 -6.4,7 l -4.3,-10.2 12.3,-10.2 z"
       id="path745" />
  </g>
  <path
     style="fill:#b2b2b2"
     inkscape:connector-curvature="0"
     d="m 78.279835,69.489463 -0.466483,-0.0933 C 72.215548,65.104517 64.285327,65.291111 60.180271,65.850891 l -0.653077,-0.55978 0.466484,-0.746374 C 63.91214,63.89166 73.241812,63.89166 78.466429,68.369903 l 0.186593,0.83967 -0.373187,0.27989 z m 0.466484,6.810661 c -0.932967,0.27989 -1.492748,-2.519012 -7.650331,-5.597803 -7.650332,-3.825166 -10.729123,-2.332418 -10.54253,-4.011759 l 0.186593,-0.279891 0.466484,-0.186593 c 4.664836,0.55978 12.968244,3.265385 17.819674,8.956485 0.27989,0.466484 0.0933,1.026264 -0.27989,1.119561 z m -8.396705,1.212857 -0.55978,-0.0933 -0.186594,-0.186594 c -2.892198,-3.638572 -5.41121,-6.064287 -9.982749,-7.836924 -0.186594,-0.0933 -0.27989,-0.186594 -0.373187,-0.373187 -0.27989,-0.559781 0.27989,-1.119561 0.83967,-0.839671 4.198353,1.679341 8.023519,4.571539 10.635827,8.303408 0.0933,0.0933 0.0933,0.279891 0.0933,0.466484 0,0.186593 -0.0933,0.27989 -0.27989,0.466484 l -0.186593,0.0933 z"
     id="path747" />
  <path
     style="fill:#b2b2b2"
     inkscape:connector-curvature="0"
     d="m 23.421363,48.217811 0.373187,0.27989 c 6.997254,0.55978 12.78165,6.064287 15.393959,9.236375 l 0.83967,0 0.186594,-0.83967 C 37.695761,53.815614 30.8851,47.471437 24.07444,47.284843 l -0.746374,0.466484 0.0933,0.466484 z m -4.944727,4.758132 c 0.559781,0.839671 2.798902,-0.83967 9.422969,1.026264 8.210112,2.332418 9.516266,5.504507 10.449233,4.198353 l 0.0933,-0.373187 -0.186594,-0.466484 c -3.825165,-2.705605 -11.848683,-6.344177 -19.219124,-5.41121 -0.559781,0.186594 -0.746374,0.746374 -0.559781,1.026264 z m 5.41121,6.530771 0.466484,0.27989 0.27989,0 c 4.664836,-0.746374 8.023518,-0.83967 12.595058,0.932967 0.186593,0.0933 0.373186,0.0933 0.55978,0 0.55978,-0.27989 0.466483,-1.026264 0,-1.212857 -4.198353,-1.679341 -8.956485,-2.052528 -13.434728,-1.026264 -0.186594,0 -0.373187,0.0933 -0.466484,0.27989 -0.0933,0.0933 -0.0933,0.27989 -0.0933,0.466484 l 0.0933,0.27989 z"
     id="path749" />
  <path
     inkscape:connector-curvature="0"
     d="m 50.197522,60.066494 c 0.746374,-0.55978 1.306154,-0.746373 2.145824,-0.466483 0.932968,0.373187 1.492748,1.306154 1.119561,2.145824 -0.55978,1.492748 -2.892198,2.239122 -5.224616,3.078792 -1.119561,-2.145824 -2.239122,-4.291649 -1.679341,-5.784397 0.27989,-0.83967 1.306154,-1.212857 2.332418,-0.83967 0.83967,0.466483 1.11956,1.026264 1.306154,1.865934 z"
     id="path751" />
  <path
     inkscape:connector-curvature="0"
     d="m 56.541699,66.690562 c 0.27989,0.186593 0.373187,0.466483 0.27989,0.83967 -0.83967,1.586044 -2.798902,2.612308 -4.571539,2.519012 -1.772638,-0.0933 -3.825166,-1.492748 -4.758133,-2.892199 -1.026264,0.27989 -2.519012,0.27989 -3.825166,-0.186593 -2.798901,-0.839671 -5.038023,-3.078792 -4.198352,-5.6911 0.0933,-0.373187 0.466483,-0.466484 0.746374,-0.373187 0.27989,0.0933 0.466483,0.466483 0.373187,0.746374 -0.653078,1.959231 1.306154,3.545275 3.358682,4.198352 1.11956,0.373187 2.519011,0.27989 3.265385,0.0933 l 1.492747,-4.011759 1.212858,0.466483 c -0.0933,0.0933 -1.492748,3.731869 -1.492748,3.918463 0.653077,1.11956 2.519012,2.425714 3.918462,2.519011 2.425715,0.186594 3.078792,-2.705605 4.198353,-2.145824 z"
     id="path753" />
  <path
     style="fill:#ff0000;fill-rule:evenodd"
     inkscape:connector-curvature="0"
     d="m 41.054443,63.89166 c 0.186594,-0.186594 0.373187,-0.373187 0.55978,-0.466484 0.559781,-0.373187 1.306155,-0.466483 1.959232,-0.373187 0.653077,0.186594 1.212857,0.653077 1.586044,1.119561 0.373187,0.55978 0.466484,1.212857 0.373187,1.865935 -0.466484,0 -1.026264,-0.0933 -1.492748,-0.279891 -1.212857,-0.27989 -2.425715,-1.026264 -2.985495,-1.865934 z"
     id="path755" />
  <path
     inkscape:connector-curvature="0"
     d="m 43.760048,61.932429 c 1.119561,0.27989 1.959231,0.83967 2.425715,1.679341 0.466483,0.653077 0.653077,1.586044 0.55978,2.425715 -0.373187,0.0933 -0.746374,0.0933 -1.212857,0.0933 0.0933,-0.653077 0,-1.306154 -0.373187,-1.865934 -0.373187,-0.559781 -0.932967,-0.932967 -1.586044,-1.119561 -0.653077,-0.186593 -1.399451,0 -1.959232,0.373187 -0.186593,0.0933 -0.373186,0.27989 -0.55978,0.466484 -0.27989,-0.373187 -0.466483,-0.746374 -0.466483,-1.212858 0.0933,-0.0933 0.27989,-0.186593 0.373186,-0.27989 0.746374,-0.55978 1.772638,-0.83967 2.798902,-0.55978 z"
     id="path757" />
  <g
     style="fill-rule:evenodd"
     id="g62"
     transform="matrix(0.93296722,0,0,0.93296722,-183.98658,-411.98693)">
    <path
       style="fill:#00cbff"
       inkscape:connector-curvature="0"
       d="m 241.81,485.57 c -3.3,-0.1 -5.6,1.9 -5.6,1.9 0,0 -0.8,2.6 -0.1,5.5 4.5,0.1 10.1,2.3 13,6.5 0.5,-0.9 1.5,-3.1 1.4,-5.7 -0.1,-2.1 -0.9,-4.3 -3.4,-6.2 -1.9,-1.4 -3.7,-2 -5.3,-2 z"
       id="path759" />
    <path
       inkscape:connector-curvature="0"
       d="m 245.11,495.57 c 0.2,-0.4 0.4,-0.9 0.6,-1.3 1,-2.7 1,-5.5 0.9,-7.1 -0.3,-0.2 -0.7,-0.3 -1.1,-0.5 l -0.2,-0.1 c -1.1,1 -3,3.1 -4.1,5.9 -0.1,0.4 -0.3,0.7 -0.4,1.1 1.5,0.6 3,1.2 4.3,2 z"
       id="path761" />
    <path
       style="fill:#ffffff"
       inkscape:connector-curvature="0"
       d="m 244.61,487.97 c 0.9,0.7 1.1,2 0.4,2.9 -0.7,0.9 -2,1 -2.9,0.3 -0.9,-0.7 -1.1,-2 -0.5,-2.9 0.8,-0.9 2.1,-1 3,-0.3 z"
       id="path763" />
    <path
       inkscape:connector-curvature="0"
       d="m 241.81,485.57 c -3.3,-0.1 -5.6,1.9 -5.6,1.9 0,0 -0.3,1.4 -0.3,2 4.6,-4.9 13.2,-0.1 13.2,10.1 0.4,-0.7 1.6,-3.1 1.4,-5.8 -0.1,-2.1 -0.9,-4.3 -3.4,-6.2 -1.9,-1.4 -3.7,-2 -5.3,-2 z"
       id="path765" />
    <path
       style="fill:#00cbff"
       inkscape:connector-curvature="0"
       d="m 271.51,497.07 c 2.5,2.2 2.8,5.1 2.8,5.1 0,0 -1.2,2.5 -3.7,4.1 -3.3,-2.9 -9,-5.1 -14,-3.9 0.3,-0.9 1,-3.3 2.8,-5.1 1.4,-1.5 3.6,-2.6 6.7,-2.3 2.5,0.2 4.2,1 5.4,2.1 z"
       id="path767" />
    <path
       inkscape:connector-curvature="0"
       d="m 262.31,502.27 c 0.1,-0.5 0.3,-0.9 0.4,-1.4 1.1,-2.7 3,-4.8 4.1,-5.8 0.4,0.1 0.7,0.2 1.1,0.4 l 0.1,0.1 c 0.1,1.5 0.1,4.3 -1,7.1 -0.1,0.4 -0.3,0.7 -0.5,1.1 -1.2,-0.7 -2.7,-1.2 -4.2,-1.5 z"
       id="path769" />
    <path
       style="fill:#ffffff"
       inkscape:connector-curvature="0"
       d="m 267.81,496.97 c -1.2,-0.1 -2.2,0.7 -2.3,1.8 -0.1,1.1 0.8,2.1 2,2.2 1.2,0.1 2.2,-0.7 2.3,-1.8 0.1,-1.1 -0.8,-2.1 -2,-2.2 z"
       id="path771" />
    <path
       inkscape:connector-curvature="0"
       d="m 271.51,497.07 c 2.5,2.2 2.8,5.1 2.8,5.1 0,0 -0.7,1.2 -1.1,1.8 -0.1,-6.7 -9.8,-8.9 -16.6,-1.4 0.2,-0.8 1,-3.3 2.9,-5.2 1.4,-1.5 3.6,-2.6 6.7,-2.3 2.4,0.1 4.1,0.9 5.3,2 z"
       id="path773" />
  </g>
  <g
     style="fill:#fa8973;fill-rule:evenodd"
     id="g72"
     transform="matrix(0.93296722,0,0,0.93296722,-183.98658,-411.98693)">
    <path
       inkscape:connector-curvature="0"
       d="m 247.31,604.67 c 1.5,-0.7 2.2,-2 1.7,-2.9 -0.6,-0.9 -2.2,-1 -3.7,-0.3 -1.5,0.7 -2.2,2 -1.7,2.9 0.5,0.9 2.2,1 3.7,0.3 z"
       id="path775" />
    <path
       inkscape:connector-curvature="0"
       d="m 242.41,603.67 c 0.5,-0.2 0.8,-0.7 0.6,-1 -0.2,-0.4 -0.7,-0.6 -1.3,-0.4 -0.5,0.2 -0.8,0.7 -0.6,1 0.2,0.4 0.8,0.6 1.3,0.4 z"
       id="path777" />
    <path
       inkscape:connector-curvature="0"
       d="m 242.31,605.97 c 0.6,-0.2 0.9,-0.7 0.7,-1.2 -0.2,-0.5 -0.9,-0.6 -1.4,-0.4 -0.6,0.2 -0.9,0.7 -0.7,1.2 0.2,0.4 0.8,0.6 1.4,0.4 z"
       id="path779" />
  </g>
  <g
     style="fill-rule:evenodd"
     id="g77"
     transform="matrix(0.93296722,0,0,0.93296722,-183.98658,-411.98693)">
    <path
       inkscape:connector-curvature="0"
       d="m 272.21,499.07 c 0.9,0.2 3.6,1.2 4.8,0 -1.7,2.1 -4.6,0.7 -4.9,0.6 l 0.1,-0.6 z"
       id="path781" />
    <path
       inkscape:connector-curvature="0"
       d="m 272.91,499.97 c 0.8,0.3 3.5,1.5 4.8,0.4 -1.8,2 -4.6,0.4 -4.9,0.2 l 0.1,-0.6 z"
       id="path783" />
    <path
       inkscape:connector-curvature="0"
       d="m 270.91,498.27 c 0.9,0.2 3.7,0.9 4.8,-0.3 -1.5,2.2 -4.5,1.1 -4.9,1 l 0.1,-0.7 z"
       id="path785" />
    <path
       inkscape:connector-curvature="0"
       d="m 239.71,486.57 c -0.8,-0.4 -3.4,-1.6 -3.5,-3.3 -0.3,2.7 2.8,3.7 3.1,3.9 l 0.4,-0.6 z"
       id="path787" />
    <path
       inkscape:connector-curvature="0"
       d="m 238.51,486.67 c -0.8,-0.4 -3.5,-1.4 -3.7,-3.1 -0.1,2.7 3,3.5 3.4,3.6 l 0.3,-0.5 z"
       id="path789" />
    <path
       inkscape:connector-curvature="0"
       d="m 241.11,486.87 c -0.8,-0.5 -3.3,-1.9 -3.3,-3.6 -0.5,2.7 2.5,3.9 2.8,4.1 l 0.5,-0.5 z"
       id="path791" />
  </g>
</svg>
