<?xml version="1.0" encoding="UTF-8" standalone="no"?>
<!-- Created with Inkscape (http://www.inkscape.org/) -->

<svg
   xmlns:dc="http://purl.org/dc/elements/1.1/"
   xmlns:cc="http://creativecommons.org/ns#"
   xmlns:rdf="http://www.w3.org/1999/02/22-rdf-syntax-ns#"
   xmlns:svg="http://www.w3.org/2000/svg"
   xmlns="http://www.w3.org/2000/svg"
   xmlns:sodipodi="http://sodipodi.sourceforge.net/DTD/sodipodi-0.dtd"
   xmlns:inkscape="http://www.inkscape.org/namespaces/inkscape"
   id="svg6018"
   height="42mm"
   width="42mm"
   version="1.1"
   viewBox="0 0 148.8189 148.81888"
   inkscape:version="0.91 r13725"
   sodipodi:docname="cat_11.svg">
  <defs
     id="defs58" />
  <sodipodi:namedview
     pagecolor="#ffffff"
     bordercolor="#666666"
     borderopacity="1"
     objecttolerance="10"
     gridtolerance="10"
     guidetolerance="10"
     inkscape:pageopacity="0"
     inkscape:pageshadow="2"
     inkscape:window-width="1920"
     inkscape:window-height="1017"
     id="namedview56"
     showgrid="false"
     inkscape:zoom="1.5858201"
     inkscape:cx="-248.1366"
     inkscape:cy="74.409449"
     inkscape:window-x="1912"
     inkscape:window-y="-8"
     inkscape:window-maximized="1"
     inkscape:current-layer="svg6018" />
  <metadata
     id="metadata6023">
    <rdf:RDF>
      <cc:Work
         rdf:about="">
        <dc:format>image/svg+xml</dc:format>
        <dc:type
           rdf:resource="http://purl.org/dc/dcmitype/StillImage" />
        <dc:title />
      </cc:Work>
    </rdf:RDF>
  </metadata>
  <path
     id="path517"
     d="m 57.216125,50.229455 c -0.700573,-1.401146 -1.401145,-2.71472 -2.101718,-3.85315 -0.08757,-1.576289 -0.700573,-2.977434 -1.839003,-3.940722 -3.678007,-2.889862 -6.918156,-6.480297 -9.720446,-9.98316 l 0,-0.08757 -0.437858,-0.437858 -0.08757,-0.08757 -0.350286,-0.52543 -0.08757,-0.175143 -0.262715,-0.350286 -0.08757,-0.08757 C 41.803526,30.175562 41.45324,29.650132 41.015382,29.124703 l -0.08757,-0.08757 -0.350286,-0.437858 c -3.590435,-4.728866 -6.480298,-8.84473 -8.84473,-10.50859 l -0.08757,0 c -0.175143,-0.08757 -0.350286,-0.262715 -0.525429,-0.262715 l -0.52543,-0.262715 c -0.175143,-0.08757 -0.350286,-0.08757 -0.437858,-0.08757 l -0.437858,0 -0.08757,0 -0.175144,0 c -0.175143,0 -0.437857,0.08757 -0.613001,0.175143 -9.282588,4.378579 14.536883,30.737626 16.375887,32.751773 -0.52543,2.539576 -1.138431,5.779724 -1.839004,8.669587 -4.904008,20.229036 -0.350286,42.034365 13.486025,53.768955 -0.175144,0.96329 -0.437858,1.839 -0.613002,2.71472 -0.175143,0 -0.437857,-0.0876 -0.613001,-0.0876 -3.502863,-0.17515 -7.531156,2.53957 -6.743012,7.26844 l 13.486024,0 0,-0.17515 0.175144,0 c 0.700572,-1.66386 1.401145,-3.32772 2.101718,-4.90401 1.926574,0.87572 3.853149,1.57629 6.042439,2.18929 -2.627148,1.66386 -5.341867,3.24015 -8.494444,4.20344 -4.378579,1.48872 -9.282588,2.45201 -14.011453,2.97743 -5.166724,0.61301 -12.435165,0.96329 -17.689461,-1.40114 -3.415291,-1.48872 -5.867296,-5.42944 -3.415291,-7.79387 3.590435,-3.32772 -4.115865,-7.44359 -7.618728,-6.21758 -6.567869,2.36443 -5.079152,9.72044 -1.138431,14.79959 11.822164,15.06232 58.585391,5.69216 64.1024,-5.25429 1.751432,0 3.678007,-0.0876 5.604582,-0.35029 l 0,0.613 c -3.240149,0.17515 -6.655441,2.88987 -5.954868,7.26844 l 13.486024,0 0,-0.17514 0.175143,0 c 0.788145,-3.50286 1.488717,-6.91815 2.101718,-10.24587 0.788145,-0.43786 1.576289,-0.78815 2.18929,-1.22601 2.452,2.36444 10.1583,2.18929 17.60189,2.18929 9.5453,0 18.65275,0.87572 16.72617,-1.839 -2.88986,-4.20344 -7.00573,-4.64129 -12.69788,-5.25429 2.80229,-3.4153 4.99158,-6.74302 6.13001,-10.07074 1.92658,-5.69215 -1.92657,-15.850454 -7.0933,-20.754463 0.52543,0.08757 0.96329,0 1.05086,-0.08757 -2.36443,-0.52543 -3.94072,-4.553723 -3.678,-5.954868 1.57629,2.101718 4.11586,2.889862 4.55372,2.539576 0,0 -1.75143,-1.751432 -2.27686,-2.802291 -2.36444,-4.728866 -1.226,-1.751432 2.18929,-0.08757 -2.80229,-2.627147 -2.45201,-6.217582 -1.83901,-8.932301 0.96329,-1.576289 1.75144,-2.889863 1.83901,-3.502864 0.43786,-2.276861 0.26271,-20.316607 -0.96329,-20.579322 -1.05086,-0.175143 -12.08488,8.056586 -16.81374,11.734592 -1.13844,0.262715 -2.27687,0.700573 -3.50287,1.050859 -3.065003,-1.576288 -6.480295,-2.80229 -10.158302,-3.853149 -4.203436,-1.138431 -8.3193,-1.839004 -12.084878,-2.014147 -0.875716,-2.627147 -8.582016,-21.01718 -9.545303,-21.279895 -1.226002,-0.437858 -10.596162,15.062313 -11.384306,17.164031 -0.262715,0.700572 -0.262715,2.364432 -0.175143,4.46615 -0.52543,0.350287 -0.613002,0.700573 -0.700573,1.05086 z"
     inkscape:connector-curvature="0"
     style="fill:#676766;fill-rule:evenodd" />
  <path
     style="fill:#676766"
     id="path519"
     d="m 41.978669,139.55247 c -9.282588,0 -21.630181,-1.75143 -28.022907,-9.80802 -3.85315,-4.90401 -5.3418668,-10.68373 -4.028293,-15.32502 1.050859,-3.59044 3.678007,-6.30516 7.531156,-7.7063 0.963288,-0.35029 2.101718,-0.52543 3.240149,-0.52543 4.466151,0 10.070732,2.62714 11.822164,7.00572 0.963287,2.45201 0.613001,4.99158 -0.875716,7.0933 0.175143,0.17515 0.437858,0.35029 0.788144,0.52543 2.539576,1.13843 6.305154,1.57629 11.121592,1.31358 -0.175144,-2.88987 0.788144,-5.69216 2.627147,-7.88145 0.700573,-0.87571 1.576289,-1.57629 2.627148,-2.27686 C 37.512518,98.831684 33.396654,78.339933 38.300663,57.673039 c 0.437857,-1.839003 0.788144,-3.678006 1.226002,-5.604581 0,-0.08757 0.08757,-0.262715 0.08757,-0.350287 C 31.470079,42.523155 19.998201,27.723557 21.662061,19.05397 c 0.52543,-2.80229 2.276862,-5.079152 4.904009,-6.305154 0.52543,-0.262715 1.138431,-0.437858 1.839003,-0.613001 0.437858,-0.08757 0.788145,-0.08757 1.226003,-0.08757 0.262714,0 0.788144,0 1.401145,0.08757 0.262715,0 0.525429,0.08757 0.788144,0.175143 0.08757,0 0.175143,0.08757 0.262715,0.08757 0.350286,0.08757 0.700573,0.175143 0.963287,0.350286 0.08757,0 0.08757,0.08757 0.175144,0.08757 0.262714,0.08757 0.525429,0.262714 0.788144,0.437858 0.08757,0.08757 0.175143,0.08757 0.262715,0.175143 0.175143,0.08757 0.350286,0.175143 0.437858,0.262715 2.714719,1.839003 5.254295,5.254295 8.406872,9.545302 0.525429,0.700573 1.050859,1.401146 1.66386,2.18929 l 0.437858,0.613001 c 0.350286,0.437858 0.700572,0.963287 1.13843,1.401145 l 0.437858,0.613002 c 0.08757,0.08757 0.08757,0.175143 0.175143,0.175143 l 0.350287,0.525429 0.262715,0.262715 c 0.08757,0.08757 0.175143,0.262715 0.262714,0.350286 2.802291,3.502864 5.341867,6.130011 7.793871,8.231729 1.576289,-2.627147 3.065006,-5.079152 3.152577,-5.079152 5.341867,-8.406872 7.18087,-10.245875 10.333447,-10.245875 0.613002,0 1.226003,0.08757 1.751432,0.262715 2.452005,0.875715 3.240149,1.839003 7.881443,12.697879 1.313574,2.977434 2.627147,6.217583 3.590435,8.669587 3.152577,0.350287 6.392726,1.050859 9.808017,1.926575 3.327721,0.875716 6.392726,2.014147 9.107443,3.240149 0.26272,-0.08757 0.52543,-0.175143 0.78815,-0.262715 16.0256,-12.17245 17.2516,-12.17245 19.17817,-12.17245 0.35029,0 0.70058,0 1.05086,0.08757 4.99158,0.963288 5.16673,6.392726 5.34187,14.536884 0,0.08757 0.26271,9.545302 -0.26272,12.17245 -0.17514,0.875716 -0.52543,2.101718 -2.01414,4.553722 -0.35029,2.014147 0,2.627148 0.26271,2.977434 1.13843,0.963288 1.83901,2.364433 1.83901,4.028293 0,0.437858 -0.0876,0.875716 -0.17515,1.313574 0.17515,0.437858 0.26272,0.963287 0.26272,1.576288 0,0.963288 -0.26272,1.926575 -0.78815,2.802291 4.81644,6.392726 8.05659,16.200743 5.69216,23.118894 -0.52543,1.57629 -1.22601,3.15258 -2.10172,4.72887 2.97743,0.96329 5.77972,2.71472 8.05658,6.04244 1.40115,2.01415 1.57629,4.37858 0.52543,6.39273 -2.01414,3.85314 -6.83058,3.85314 -11.12159,3.85314 -1.40114,0 -3.065,0 -4.72886,-0.0876 -1.83901,0 -3.76558,-0.0876 -5.69216,-0.0876 l -2.53957,0 c -5.16673,0 -9.5453,-0.0876 -12.9606,-0.87571 -0.43785,2.01414 -0.78814,4.02829 -1.31357,6.04244 -0.17514,0.96328 -0.613002,1.75143 -1.226003,2.452 -0.963287,1.13843 -2.364433,1.839 -4.028293,1.839 l -13.486024,0 c -1.751431,0 -3.32772,-0.87571 -4.291007,-2.27686 -9.983161,4.99158 -24.870331,7.7063 -35.554064,7.7063 z m 22.505897,-27.23476 c 0.788145,0 1.576289,0.17514 2.276862,0.52543 1.576288,0.78814 3.240148,1.40114 5.079152,1.839 2.014146,0.52543 3.502863,2.18929 3.853149,4.29101 0.08757,0.52543 0.08757,1.13843 0,1.66386 0.963288,-0.70057 1.576289,-1.31357 1.839004,-1.839 0.875715,-1.75144 2.627147,-2.8023 4.641294,-2.88987 1.751431,0 3.415291,-0.0876 5.079152,-0.35028 1.576288,-0.17515 3.240148,0.35028 4.291007,1.48871 0.262715,0.26272 0.52543,0.613 0.700573,0.87572 0,-0.26272 0.08757,-0.43786 0.08757,-0.70057 0.262715,-1.57629 1.313574,-2.97744 2.802291,-3.76558 0.52543,-0.26272 1.138431,-0.613 1.66386,-0.87572 2.014147,-1.31357 4.553719,-1.13843 6.392729,0.43786 1.75143,0.87572 8.66958,0.87572 11.64702,0.87572 l 1.66386,0 c -0.70057,-1.75143 -0.35029,-3.76558 0.87571,-5.2543 2.53958,-3.065 4.29101,-5.95487 5.16673,-8.40687 1.05086,-3.152578 -1.57629,-11.296735 -5.69216,-15.237456 -0.52543,-0.437858 -0.87571,-1.050859 -1.13843,-1.66386 -0.43785,-0.437858 -0.78814,-0.963288 -1.13843,-1.488717 -1.31357,-2.101718 -2.452,-5.254295 -1.839,-7.969015 0.17514,-0.613001 0.43786,-1.226002 0.78814,-1.751431 0,-0.788145 0.26272,-1.66386 0.78815,-2.539576 0.17514,-0.262715 0.26271,-0.437858 0.43786,-0.613001 0,-1.313574 0.17514,-2.802291 0.52543,-4.291008 0.17514,-0.613001 0.35028,-1.138431 0.70057,-1.66386 0.613,-1.050859 0.96329,-1.576289 1.13843,-1.839003 0.17514,-1.751432 0.17514,-6.480298 0,-10.596162 -2.36443,1.66386 -5.42944,3.940721 -9.5453,7.093298 -0.52543,0.437858 -1.13843,0.700573 -1.83901,0.875716 -0.87571,0.262715 -1.839,0.52543 -2.80229,0.875716 l -0.35028,0.08757 c -1.31358,0.437857 -2.802295,0.350286 -4.028297,-0.262715 -2.627148,-1.313574 -5.779725,-2.539576 -9.195016,-3.415292 -3.85315,-1.050859 -7.531157,-1.66386 -10.946449,-1.839003 -2.189289,-0.08757 -4.028292,-1.488717 -4.728865,-3.502864 -0.613001,-1.751431 -3.240149,-8.231729 -5.51701,-13.310881 -2.18929,3.415292 -4.641294,7.443585 -5.429438,9.019874 0,0.350286 -0.08757,1.13843 0,2.714719 0,0.525429 -0.08757,1.13843 -0.175143,1.66386 -0.08757,0.350286 -0.175144,0.613001 -0.262715,0.963287 -0.52543,2.101718 -2.364433,3.678007 -4.553723,3.85315 -2.189289,0.262715 -4.203436,-0.875716 -5.254295,-2.802291 -0.700572,-1.401145 -1.313573,-2.539576 -1.926575,-3.590435 -0.437857,-0.700572 -0.613001,-1.488717 -0.700572,-2.276861 0,-0.175143 0,-0.262715 -0.08757,-0.350286 -1.66386,-1.401146 -3.415292,-2.889863 -5.079152,-4.641294 1.313574,1.576288 2.802291,3.240148 4.291008,4.904009 1.138431,1.226002 1.576288,2.977433 1.226002,4.641294 -0.175143,0.875715 -0.350286,1.839003 -0.613001,2.889862 -0.350286,1.839003 -0.788144,4.028293 -1.313574,6.042439 -4.641294,19.178177 0.08757,38.706641 11.822164,48.514655 1.226002,1.05086 1.926575,2.62715 1.839003,4.29101 l 0.52543,-0.26271 c 0.788144,-0.26272 1.401145,-0.43786 2.014146,-0.43786 z m -43.69822,4.37858 c -0.700573,0.26271 -0.700573,0.52543 -0.788145,0.613 -0.175143,0.613 0,1.75143 0.613001,3.24015 -0.08757,-1.31358 0.175144,-2.62715 0.700573,-3.76558 -0.175143,-0.0876 -0.350286,-0.0876 -0.525429,-0.0876 z"
     inkscape:connector-curvature="0" />
  <path
     id="path523"
     d="m 57.216125,50.229455 c -0.700573,-1.401146 -1.401145,-2.71472 -2.101718,-3.85315 -0.08757,-1.576289 -0.700573,-2.977434 -1.839003,-3.940722 -3.678007,-2.889862 -6.918156,-6.480297 -9.720446,-9.98316 l 0,-0.08757 -0.437858,-0.437858 -0.08757,-0.08757 -0.350286,-0.52543 -0.08757,-0.175143 -0.262715,-0.350286 -0.08757,-0.08757 C 41.803526,30.175562 41.45324,29.650132 41.015382,29.124703 l -0.08757,-0.08757 -0.350286,-0.437858 c -3.590435,-4.728866 -6.480298,-8.84473 -8.84473,-10.50859 l -0.08757,0 c -0.175143,-0.08757 -0.350286,-0.262715 -0.525429,-0.262715 l -0.52543,-0.262715 c -0.175143,-0.08757 -0.350286,-0.08757 -0.437858,-0.08757 l -0.437858,0 -0.08757,0 -0.175144,0 c -0.175143,0 -0.437857,0.08757 -0.613001,0.175143 -9.282588,4.378579 14.536883,30.737626 16.375887,32.751773 -0.52543,2.539576 -1.138431,5.779724 -1.839004,8.669587 -4.904008,20.229036 -0.350286,42.034365 13.486025,53.768955 -0.175144,0.96329 -0.437858,1.839 -0.613002,2.71472 -0.175143,0 -0.437857,-0.0876 -0.613001,-0.0876 -3.502863,-0.17515 -7.531156,2.53957 -6.743012,7.26844 l 13.486024,0 0,-0.17515 0.175144,0 c 0.700572,-1.66386 1.401145,-3.32772 2.101718,-4.90401 1.926574,0.87572 3.853149,1.57629 6.042439,2.18929 -2.627148,1.66386 -5.341867,3.24015 -8.494444,4.20344 -4.378579,1.48872 -9.282588,2.45201 -14.011453,2.97743 -5.166724,0.61301 -12.435165,0.96329 -17.689461,-1.40114 -3.415291,-1.48872 -5.867296,-5.42944 -3.415291,-7.79387 3.590435,-3.32772 -4.115865,-7.44359 -7.618728,-6.21758 -6.567869,2.36443 -5.079152,9.72044 -1.138431,14.79959 11.822164,15.06232 58.585391,5.69216 64.1024,-5.25429 1.751432,0 3.678007,-0.0876 5.604582,-0.35029 l 0,0.613 c -3.240149,0.17515 -6.655441,2.88987 -5.954868,7.26844 l 13.486024,0 0,-0.17514 0.175143,0 c 0.788145,-3.50286 1.488717,-6.91815 2.101718,-10.24587 0.788145,-0.43786 1.576289,-0.78815 2.18929,-1.22601 2.452,2.36444 10.1583,2.18929 17.60189,2.18929 9.5453,0 18.65275,0.87572 16.72617,-1.839 -2.88986,-4.20344 -7.00573,-4.64129 -12.69788,-5.25429 2.80229,-3.4153 4.99158,-6.74302 6.13001,-10.07074 1.92658,-5.69215 -1.92657,-15.850454 -7.0933,-20.754463 0.52543,0.08757 0.96329,0 1.05086,-0.08757 -2.36443,-0.52543 -3.94072,-4.553723 -3.678,-5.954868 1.57629,2.101718 4.11586,2.889862 4.55372,2.539576 0,0 -1.75143,-1.751432 -2.27686,-2.802291 -2.36444,-4.728866 -1.226,-1.751432 2.18929,-0.08757 -2.80229,-2.627147 -2.45201,-6.217582 -1.83901,-8.932301 0.96329,-1.576289 1.75144,-2.889863 1.83901,-3.502864 0.43786,-2.276861 0.26271,-20.316607 -0.96329,-20.579322 -1.05086,-0.175143 -12.08488,8.056586 -16.81374,11.734592 -1.13844,0.262715 -2.27687,0.700573 -3.50287,1.050859 -3.065003,-1.576288 -6.480295,-2.80229 -10.158302,-3.853149 -4.203436,-1.138431 -8.3193,-1.839004 -12.084878,-2.014147 -0.875716,-2.627147 -8.582016,-21.01718 -9.545303,-21.279895 -1.226002,-0.437858 -10.596162,15.062313 -11.384306,17.164031 -0.262715,0.700572 -0.262715,2.364432 -0.175143,4.46615 -0.52543,0.350287 -0.613002,0.700573 -0.700573,1.05086 z"
     inkscape:connector-curvature="0"
     style="fill:#fefefe;fill-rule:evenodd" />
  <path
     style="fill:#fefefe"
     id="path525"
     d="m 41.978669,138.67676 c -9.019873,0 -21.104752,-1.66386 -27.322334,-9.54531 -3.678007,-4.72886 -5.1667239,-10.1583 -3.85315,-14.53688 0.963287,-3.32772 3.415292,-5.8673 7.005727,-7.0933 0.875716,-0.35029 1.926575,-0.52543 2.977434,-0.52543 4.028292,0 9.370159,2.45201 10.946448,6.4803 0.963287,2.36443 0.437858,4.90401 -1.226003,6.83058 0.262715,0.43786 0.875716,0.87572 1.576289,1.226 2.802291,1.22601 7.005727,1.75144 12.347593,1.31358 -0.350286,-3.06501 0.437858,-5.8673 2.364433,-8.14416 0.875716,-1.05086 2.014147,-1.92657 3.240149,-2.53957 -11.647021,-12.873028 -16.0256,-33.45235 -10.946448,-54.294388 0.437858,-1.839003 0.788144,-3.765578 1.226002,-5.604581 0.08757,-0.262715 0.08757,-0.52543 0.175143,-0.788144 -8.056586,-9.019874 -19.616035,-23.819471 -17.952175,-32.226344 0.52543,-2.539576 2.101718,-4.641294 4.466151,-5.779724 0.437858,-0.262715 0.963288,-0.437858 1.576289,-0.52543 0.350286,-0.08757 0.700572,-0.08757 1.050859,-0.08757 0.262714,0 0.700572,0 1.226002,0.08757 0.262715,0 0.437858,0.08757 0.700572,0.175143 0.08757,0 0.175144,0.08757 0.262715,0.08757 0.262715,0.08757 0.613001,0.175143 0.875716,0.350286 0.08757,0 0.175143,0.08757 0.262715,0.08757 0.262715,0.08757 0.437858,0.262715 0.700573,0.350286 0.08757,0.08757 0.175143,0.08757 0.262714,0.175143 0.175143,0.08757 0.262715,0.175144 0.437858,0.262715 2.539576,1.751432 5.079152,5.079152 8.231729,9.282588 0.52543,0.700573 1.050859,1.401146 1.66386,2.18929 l 0.437858,0.613001 c 0.350287,0.437858 0.700573,0.963287 1.138431,1.401145 l 0.525429,0.613001 0.175144,0.175144 0.350286,0.525429 0.262715,0.350286 c 0.08757,0.08757 0.175143,0.175144 0.262714,0.350287 3.152577,3.940721 5.954868,6.830583 8.757159,9.019873 1.313574,-2.276861 2.802291,-4.728866 3.590435,-5.954868 5.429438,-8.582015 7.005727,-9.808017 9.632874,-9.808017 0.52543,0 1.050859,0.08757 1.488717,0.262714 2.014147,0.700573 2.627148,1.313574 7.356013,12.172451 1.313574,3.152577 2.802291,6.65544 3.765578,9.107445 3.240149,0.350286 6.655441,0.963287 10.158304,2.014146 3.415292,0.963288 6.480298,2.014147 9.282593,3.32772 0.43785,-0.08757 0.78814,-0.262714 1.226,-0.350286 15.93803,-12.084879 17.07646,-12.084879 18.74032,-12.084879 0.26271,0 0.613,0 0.87571,0.08757 4.11587,0.788144 4.46615,4.99158 4.6413,13.748739 0.0876,2.627147 0.17514,9.895589 -0.26272,11.997307 -0.17514,0.788144 -0.52543,1.926575 -2.01414,4.378579 -0.43786,2.364433 -0.0876,3.32772 0.52542,3.940721 0.96329,0.788145 1.57629,2.014147 1.57629,3.327721 0,0.437858 -0.0876,0.875715 -0.17514,1.313573 0.17514,0.437858 0.26271,0.963288 0.26271,1.576289 0,0.963287 -0.35028,1.926575 -0.96328,2.714719 l 0,0.08757 0,0.08757 c 4.81643,6.217583 8.14415,15.938029 5.86729,22.681041 -0.613,1.839 -1.48871,3.67801 -2.62714,5.51701 3.32772,0.87572 6.30515,2.53958 8.66958,5.95487 1.13843,1.66386 1.31358,3.76558 0.43786,5.42944 -1.66386,3.15257 -5.51701,3.41529 -10.42102,3.41529 -1.40114,0 -2.97743,0 -4.72886,-0.0876 -1.83901,0 -3.76558,-0.0876 -5.77973,-0.0876 l -2.53957,0 c -5.60459,0 -10.15831,-0.0876 -13.66117,-1.05085 -0.43786,2.27686 -0.96329,4.64129 -1.488718,6.91815 -0.175143,0.78814 -0.525429,1.48872 -1.050859,2.01415 -0.788144,0.96328 -2.014146,1.57629 -3.32772,1.57629 l -13.486024,0 c -1.751432,0 -3.240149,-1.05086 -3.940722,-2.53958 -9.107444,4.99158 -23.556756,8.05659 -35.816778,8.05659 z M 20.611202,115.82057 c -1.226002,0.43786 -1.401145,0.96329 -1.401145,1.226 -0.350286,1.31358 0.262715,4.0283 2.364433,6.65544 0.525429,0.61301 1.050859,1.22601 1.751432,1.75144 -0.875716,-1.22601 -1.488717,-2.62715 -1.751432,-4.0283 -0.350287,-1.839 0,-3.678 0.963287,-5.16672 -0.613001,-0.26272 -1.226002,-0.43786 -1.839003,-0.43786 l -0.08757,0 z m 70.495126,8.58202 0.788145,0 c 0.525429,-2.27686 0.963287,-4.6413 1.313573,-6.83059 0.262715,-1.31357 1.138431,-2.53957 2.364433,-3.15257 0.52543,-0.26272 1.226002,-0.613 1.751432,-0.96329 1.66386,-1.13843 3.940719,-0.96329 5.429439,0.43786 1.66386,1.05086 8.9323,1.05086 12.08488,1.05086 l 2.53957,0 0.613,0 c -0.26271,-0.35029 -0.52542,-0.70058 -0.70057,-1.13843 -0.613,-1.48872 -0.35028,-3.15258 0.70057,-4.46616 2.62715,-3.15257 4.46616,-6.13001 5.34187,-8.75715 1.31358,-3.765582 -1.839,-12.260026 -5.95487,-16.113176 -0.43785,-0.437858 -0.78814,-0.963287 -1.05086,-1.488717 -0.43785,-0.437858 -0.78814,-0.963287 -1.13843,-1.488717 -1.13843,-1.839003 -2.27686,-4.816437 -1.66386,-7.268441 0.17515,-0.613001 0.43786,-1.226002 0.87572,-1.66386 0,-0.700573 0.17514,-1.576289 0.613,-2.364433 0.17514,-0.262715 0.35029,-0.52543 0.613,-0.788144 0,-1.401146 0.17515,-2.802291 0.52543,-4.37858 0.0876,-0.525429 0.35029,-0.963287 0.613,-1.401145 0.78815,-1.226002 1.13843,-1.839003 1.226,-2.101718 0.17515,-1.751432 0.17515,-7.793871 0,-12.435165 -2.452,1.751432 -5.95486,4.291008 -10.85887,8.056586 -0.43786,0.350286 -0.96329,0.613001 -1.57629,0.788144 -0.87572,0.262715 -1.839,0.525429 -2.88986,0.875716 l -0.35029,0.08757 c -1.13843,0.350287 -2.27686,0.262715 -3.327719,-0.262714 -2.714719,-1.401146 -5.867296,-2.539576 -9.37016,-3.502864 -3.940721,-1.050859 -7.706299,-1.751431 -11.121591,-1.926575 -1.751432,-0.08757 -3.32772,-1.226002 -3.940721,-2.977433 -0.700573,-2.014147 -3.85315,-9.545303 -6.217583,-14.799598 -2.539576,3.853149 -5.604581,8.932301 -6.392726,10.596161 0,0.350287 -0.08757,1.138431 0,2.977434 0,0.437858 0,0.963288 -0.175143,1.401146 -0.08757,0.350286 -0.175143,0.613001 -0.262714,0.963287 -0.437858,1.751432 -2.014147,3.065006 -3.765579,3.240149 -1.839003,0.175143 -3.502863,-0.788145 -4.378579,-2.364433 -0.700573,-1.401145 -1.401145,-2.627148 -1.926575,-3.590435 -0.350286,-0.613001 -0.525429,-1.226002 -0.613001,-1.839003 0,-0.52543 -0.175143,-0.788145 -0.175143,-0.875716 -3.415292,-2.714719 -6.743012,-6.04244 -10.421019,-10.683734 -0.08757,-0.08757 -0.08757,-0.175143 -0.175143,-0.175143 l -0.175143,-0.262714 c -0.08757,-0.08757 -0.175143,-0.262715 -0.262715,-0.350287 l -0.262714,-0.350286 c 0,0 0,-0.08757 -0.08757,-0.08757 l -0.437858,-0.525429 c -0.437858,-0.52543 -0.875716,-1.050859 -1.313574,-1.66386 L 37.07466,31.226421 c -0.525429,-0.700573 -1.050859,-1.401146 -1.576288,-2.101718 -1.226002,-1.576289 -2.364433,-3.152578 -3.502864,-4.553723 2.18929,4.904009 8.144158,13.573596 16.55103,22.768612 0.963287,1.050859 1.313574,2.452005 1.050859,3.85315 -0.175143,0.875716 -0.350286,1.839003 -0.613001,2.889862 -0.350286,1.839004 -0.788144,3.940722 -1.313574,5.954868 -4.641294,19.528463 0.175143,39.319642 12.084879,49.302798 1.226002,1.05086 1.839003,2.71472 1.488717,4.29101 -0.08757,0.613 -0.262715,1.226 -0.437858,1.75143 0.525429,-0.87571 1.313574,-1.48871 2.18929,-1.839 1.13843,-0.43786 2.364432,-0.35029 3.502863,0.0876 1.66386,0.78815 3.32772,1.40115 5.254295,1.92658 1.66386,0.43785 2.977434,1.839 3.240149,3.59043 0.262714,1.48872 -0.350287,2.97744 -1.488717,3.94072 2.539576,-1.31357 4.291007,-2.71472 4.904008,-3.85315 0.700573,-1.48871 2.18929,-2.36443 3.85315,-2.36443 1.839003,0 3.502864,-0.0876 5.166724,-0.35029 1.313573,-0.17514 2.627147,0.35029 3.590435,1.22601 0.963287,0.96328 1.401145,2.27686 1.226002,3.50286 l 0,0.17514 c -0.08757,1.13843 -0.52543,2.18929 -1.138431,2.97744 z"
     inkscape:connector-curvature="0" />
  <path
     style="fill-rule:evenodd"
     id="path1269"
     d="m 83.833506,58.986611 c 4.99158,-4.028293 -6.130011,5.779725 -7.969014,9.895589 -3.678007,8.406873 -5.867296,10.158304 -9.632874,10.070733 -0.08757,-4.37858 -0.963288,-9.107445 -2.452005,-13.573596 -2.539576,-7.356013 -11.384306,-26.796905 -12.435165,-22.243183 -1.488717,6.392726 -2.276861,6.305154 -3.415292,3.765579 -1.926575,-4.115865 -2.80229,4.904008 -4.553722,11.997307 -7.7063,31.876057 7.881442,67.60526 46.675655,61.56282 20.316611,-3.15257 17.601891,-19.7036 24.169761,-37.743349 2.27686,-6.130011 9.01987,-19.703607 2.36443,-26.183904 -8.66959,-8.582015 -16.20074,0.963287 -27.760194,0.613001 -1.488717,0 -5.779724,2.452004 -4.99158,1.839003 z"
     inkscape:connector-curvature="0" />
  <path
     style="fill-rule:evenodd"
     id="path1271"
     d="m 121.40172,112.14256 c 5.69215,0.70058 9.80801,1.05086 12.69788,5.2543 1.92657,2.71472 -7.18087,1.839 -16.72618,1.839 -10.85887,0 -22.155608,0.26272 -17.16403,-7.0933 -2.539573,3.4153 3.59044,-5.77972 3.59044,-13.573592 0.0876,-12.084879 10.50859,-19.440892 11.47188,-19.966322 7.35601,0.700573 14.79959,15.938029 12.26002,23.469184 -1.13843,3.32772 -3.32772,6.65544 -6.13001,10.07073 z"
     inkscape:connector-curvature="0" />
  <path
     style="fill-rule:evenodd"
     id="path1273"
     d="m 45.302009,50.404596 c 0,0 -26.183904,-28.285622 -16.55103,-32.839344 4.728866,-2.18929 12.084879,15.149884 24.432472,24.957901 3.678007,2.889863 1.401146,11.209163 -1.839003,11.296735 l -6.042439,-3.415292 z"
     inkscape:connector-curvature="0" />
  <path
     id="path1275"
     d="m 29.451552,17.302537 c 3.415292,-0.437858 7.969014,7.531156 14.536883,15.587742 -0.262715,0.525429 -0.788136,0.875716 -1.576289,0.875716 -2.276861,0.175143 -9.720446,-8.056586 -10.771305,-9.983161 -1.926574,-3.502863 -2.539576,-5.429438 -2.189289,-6.480297 z"
     inkscape:connector-curvature="0"
     style="fill:#6c6c6c;fill-rule:evenodd" />
  <path
     style="fill-rule:evenodd"
     id="path1277"
     d="m 82.432361,70.896347 c 5.079152,20.404179 6.480297,43.785793 4.816437,57.709673 l 8.231729,0 c 4.378579,-19.61603 6.480293,-36.604921 4.291008,-56.483671 L 82.432361,70.896347 Z"
     inkscape:connector-curvature="0" />
  <path
     style="fill-rule:evenodd"
     id="path1279"
     d="m 61.152466,64.766336 c 0.963287,20.404179 -2.452005,43.785794 -6.918156,57.709674 l 8.231729,0 C 70.78534,102.85998 76.30235,85.783516 78.141353,65.992338 L 61.152466,64.766336 Z"
     inkscape:connector-curvature="0" />
  <path
     style="fill:#ff0000"
     inkscape:connector-curvature="0"
     d="m 72.536772,89.023665 c 2.714719,2.014146 5.954867,3.32772 9.632874,4.028293 3.85315,0.788144 8.231729,0.788144 13.048166,0.350286 l 0.525438,5.341867 C 90.488955,99.181969 85.584947,99.094397 81.206367,98.306253 76.652645,97.430537 72.711924,95.854249 69.384203,93.402244 l 3.152577,-4.378579 z"
     id="path1281" />
  <g
     style="fill-rule:evenodd"
     id="g20"
     transform="matrix(0.87571585,0,0,0.87571585,-211.48415,-380.76286)">
    <path
       style="fill:#6c6c6c"
       inkscape:connector-curvature="0"
       d="m 312.63,574.86 c -0.5,-3.9 -2.2,-8 -7.7,-8.3 -4,-0.2 -8.6,2.9 -7.7,8.3 l 15.4,0 z"
       id="path1283" />
    <path
       inkscape:connector-curvature="0"
       d="m 263.43,562.26 c 4,-1.4 12.8,3.2 8.7,7.1 -2.9,2.7 0,7.2 3.9,8.9 6,2.7 14.3,2.3 20.2,1.6 5.5,-0.6 11.1,-1.7 16,-3.4 4.1,-1.4 7.5,-3.4 10.9,-5.6 2.4,-1.5 4.8,-3.1 7.4,-4.5 2.9,-1.6 6.4,2.8 5.5,4.5 -0.3,13.3 -59.6,26.5 -73.8,8.2 -4.6,-5.7 -6.3,-14.1 1.2,-16.8 z"
       id="path1285" />
    <path
       inkscape:connector-curvature="0"
       d="m 320.43,466.26 c -1.4,-0.5 -12.1,17.2 -13,19.6 -0.3,0.8 -0.3,2.7 -0.2,5.1 -0.89999,3.1 -2.3,7.6 -6.9,8.7 4.4,0.2 7.2,-2.2 2.2,1.3 -1.1,0.8 -3.9,1.5 -3.9,1.6 -0.4,0.3 3.1,1.2 5.9,-0.1 -0.4,1.5 -4.2,4.7 -6.9,3.9 -0.6,-0.2 4.2,2.9 9.1,0.1 -2.9,14.5 6.7,34.3 24,39.1 17.8,4.9 37.1,-8.2 41.1,-23 2.7,5.6 8,5.4 8.4,5.1 -2.7,-0.6 -4.5,-5.2 -4.2,-6.8 1.8,2.4 4.7,3.3 5.2,2.9 0,0 -2,-2 -2.6,-3.2 -2.7,-5.4 -1.4,-2 2.5,-0.1 -3.2,-3 -2.8,-7.1 -2.1,-10.2 1.1,-1.8 2,-3.3 2.1,-4 0.5,-2.6 0.3,-23.2 -1.1,-23.5 -1.3,-0.3 -16.2,11.1 -20.5,14.4 l -1.3,1 c -3.8,-2.1 -8.2,-3.8 -13,-5.1 -4.8,-1.3 -9.5,-2.1 -13.8,-2.3 -1.2,-3.2 -9.9,-24.1 -11,-24.5 z"
       id="path1287" />
    <path
       style="fill:#fa8973"
       inkscape:connector-curvature="0"
       d="m 320.33,472.36 c -1,-0.3 -8.2,11.7 -8.8,13.3 -0.6,1.7 0.5,11.2 0.5,11.2 l 11.7,-5.9 -3.4,-18.6 z"
       id="path1289" />
    <path
       style="fill:#6c6c6c"
       inkscape:connector-curvature="0"
       d="m 331.73,540.76 0.10001,0 c 19.9,5.8 39.1,-14.8 33.9,-27.8 -2.8,-6.9 -11.7,-12.8 -24.6,-7.5 -8.4,-11.2 -18.4,-10.6 -24.3,-6 -10.8,8.6 -4.8,36.1 14.9,41.3 z"
       id="path1291" />
    <path
       style="fill:#fa8973"
       inkscape:connector-curvature="0"
       d="m 377.33,487.16 c 1,0.3 0.4,14.3 0,16 -0.4,1.7 -6.5,9 -6.5,9 l -6.5,-11.4 13,-13.6 z"
       id="path1293" />
  </g>
  <path
     inkscape:connector-curvature="0"
     d="m 80.418214,80.44165 c 0.700564,-0.700573 1.313574,-1.050859 2.276861,-0.788145 1.05086,0.262715 1.751432,1.226002 1.576289,2.18929 -0.437858,1.751432 -2.889862,2.889862 -5.254295,4.115864 -1.576289,-2.189289 -3.065006,-4.378579 -2.627148,-6.130011 0.262715,-0.963287 1.313574,-1.488716 2.364433,-1.226002 0.963288,0.350287 1.401146,0.875716 1.66386,1.839004 z"
     id="path1295" />
  <g
     style="fill-rule:evenodd"
     id="g29"
     transform="matrix(0.87571585,0,0,0.87571585,-211.48415,-380.76286)">
    <path
       style="fill:#00cbff"
       inkscape:connector-curvature="0"
       d="m 320.63,504.56 c -3.8,0.7 -6,3.4 -6,3.4 0,0 -0.79999,7.6 5.4,10.9 6.19999,3.3 12.1,0.5 12.1,0.5 0,0 1.3,-3.6 0.4,-7.4 -0.59999,-2.4 -2.1,-4.8 -5.4,-6.4 -2.4,-1.1 -4.6,-1.3 -6.5,-1 z"
       id="path1297" />
    <path
       inkscape:connector-curvature="0"
       d="m 317.83,504.76 c -1.1,0.1 -4.5,0.5 -5.7,-1.2 1.4,2.9 5.2,2 5.6,2 l 0.1,-0.8 z"
       id="path1299" />
    <path
       inkscape:connector-curvature="0"
       d="m 316.73,505.56 c -1.1,0.1 -4.4,0.8 -5.7,-0.8 1.6,2.8 5.3,1.6 5.7,1.5 l 0,-0.7 z"
       id="path1301" />
    <path
       inkscape:connector-curvature="0"
       d="m 319.53,504.16 c -1.1,0 -4.5,0.1 -5.6,-1.6 1.2,3 5,2.4 5.5,2.4 l 0.1,-0.8 z"
       id="path1303" />
  </g>
  <path
     style="fill:#b2b2b2"
     inkscape:connector-curvature="0"
     d="m 100.12182,93.664959 c -0.613,-0.08757 -3.415291,-4.115865 -10.158303,-5.429438 -0.175143,0 -0.262715,-0.08757 -0.350278,-0.262715 -0.262723,-0.437858 0.08757,-1.050859 0.612993,-0.963288 4.028293,0.788145 7.881442,2.802291 10.771308,5.692153 0.0876,0.08757 0.17514,0.262715 0.17514,0.437858 -0.0876,0.613001 -0.78814,0.788145 -1.05086,0.52543 z m 7.96902,-2.276861 c -0.78815,0.350286 -1.75144,-2.014147 -7.7063,-3.765578 -5.604586,-1.663861 -8.406876,-1.050859 -9.457736,-1.226003 -0.875715,-0.175143 -0.875715,-1.13843 1.05086,-1.13843 4.378579,0 11.384306,1.226002 16.113176,5.166723 0.35028,0.262715 0.35028,0.788145 0,0.963288 z m -1.22601,-5.779725 c -0.613,0.52543 -1.92657,-1.576288 -7.793868,-1.926575 -5.429438,-0.350286 -7.881443,0.875716 -8.84473,0.963288 -0.875716,0.08757 -1.050859,-0.875716 0.788144,-1.401146 4.028293,-0.963287 10.596164,-1.401145 15.675314,1.313574 0.35029,0.262715 0.43786,0.875716 0.17514,1.050859 z"
     id="path1305" />
  <path
     style="fill:#b2b2b2"
     inkscape:connector-curvature="0"
     d="m 57.737174,82.981226 c 0.613001,0.08757 4.728865,-2.539576 11.471877,-1.138431 0.175144,0 0.350287,0 0.437858,-0.08757 0.437858,-0.262714 0.262724,-0.963287 -0.262714,-1.050859 -4.028293,-0.788144 -8.319301,-0.350286 -12.172451,1.226003 -0.175152,0.08757 -0.262723,0.175143 -0.350295,0.350286 -0.08757,0.350286 0.52543,0.875716 0.875716,0.700573 z m -6.480298,-5.166724 c 0.613002,0.613001 2.364433,-1.226002 8.582016,-0.613001 5.867296,0.613001 8.231729,2.276861 9.282588,2.452004 0.875716,0.175143 1.226002,-0.788144 -0.613001,-1.488717 -4.115865,-1.66386 -11.03402,-3.152577 -16.901316,-1.313573 -0.437858,0.175143 -0.613001,0.700572 -0.350287,0.963287 z m 3.327721,-4.816437 c 0.437858,0.788144 2.364433,-0.700573 7.881442,1.226002 5.166724,1.751432 6.918156,3.85315 7.881443,4.291008 0.788136,0.350286 1.313574,-0.437858 -0.175152,-1.576289 -3.32772,-2.452004 -9.282588,-5.341867 -15.062313,-4.728865 -0.437857,0 -0.700572,0.437857 -0.525429,0.788144 z"
     id="path1307" />
  <polygon
     transform="matrix(0.87571585,0,0,0.87571585,-287.81592,-768.82758)"
     points="417.5,978.7 418.4,975.1 419.7,975.4 418.8,979 "
     id="polygon1309" />
  <path
     style="fill-rule:evenodd"
     inkscape:connector-curvature="0"
     d="m 79.980356,85.871088 c 2.539576,1.226002 4.028293,4.466151 3.152577,7.18087 -0.875715,2.714719 -3.678006,3.85315 -6.217582,2.627147 -2.539576,-1.226002 -4.028293,-4.46615 -3.152577,-7.18087 0.788144,-2.714719 3.590435,-3.940721 6.217582,-2.627147 z"
     id="path1311" />
  <path
     style="fill:#ff0000;fill-rule:evenodd"
     inkscape:connector-curvature="0"
     d="m 75.864492,93.75253 -0.613001,-0.08757 c 0.262715,-0.875716 0.437858,-1.751432 0.788153,-2.452004 0.262706,-0.700573 0.525421,-1.226003 0.875716,-1.839004 l -0.175152,-0.175143 c -0.08757,-0.08757 -0.175143,-0.262715 -0.262706,-0.350286 -0.788153,-0.52543 -1.401146,-0.613001 -2.101718,-0.52543 -0.700573,0.175143 -1.313574,0.613001 -2.014147,1.401146 -0.08757,0.08757 -0.262706,0.262714 -0.350286,0.350286 -0.08757,0.175143 -0.262715,0.262715 -0.350278,0.437858 -0.61301,0.700573 -1.050859,1.401145 -1.401145,2.101718 -0.350278,0.700573 -0.613001,1.401145 -0.788136,2.014146 -0.350295,1.313574 -0.525438,2.714719 -0.437857,4.028293 0.08757,2.101721 0.52542,4.115861 1.488716,5.692151 0.963297,1.57629 2.364433,2.71472 4.203437,3.24015 0.612992,0.17514 1.401145,0.26272 2.189289,0.26272 4.904009,-0.26272 4.728866,-5.34187 4.553723,-10.158308 -0.08757,-2.627148 -0.175135,-5.166724 0.525429,-6.918155 -0.262706,-0.175144 -0.437858,-0.350287 -0.613001,-0.52543 -0.788144,-0.700573 -1.401145,-1.138431 -2.714719,-1.226002 l -0.175152,0.175143 c -0.08757,0.08757 -0.262706,0.262715 -0.350286,0.437858 -0.350287,0.613001 -0.700573,1.313574 -0.963288,2.014146 -0.262706,0.700573 -0.525429,1.488717 -0.700564,2.276862 l -0.61301,-0.175144 z"
     id="path1313" />
  <path
     inkscape:connector-curvature="0"
     d="m 78.579211,88.936093 -0.175143,0.175143 c -0.08757,0.08757 -0.262715,0.262715 -0.350287,0.437858 -0.350286,0.613001 -0.700563,1.313574 -0.963287,2.014147 -0.262715,0.700573 -0.525429,1.488717 -0.700573,2.276861 -0.700572,0.875716 -1.050859,0.875716 -1.13843,-0.262715 0.262715,-0.875716 0.437858,-1.751431 0.788153,-2.452004 0.262706,-0.700573 0.525421,-1.226002 0.875716,-1.839003 l -0.175152,-0.175144 c -0.08757,-0.08757 -0.175143,-0.262714 -0.262706,-0.350286 -0.788153,-0.525429 -1.401146,-0.613001 -2.101718,-0.525429 -0.700573,0.175143 -1.313574,0.613001 -2.014147,1.401145 -0.08757,0.08757 -0.262706,0.262715 -0.350286,0.350286 -0.08757,0.175143 -0.262715,0.262715 -0.350278,0.437858 -0.61301,0.700573 -1.050859,1.401146 -1.401145,2.101718 -0.350278,0.700573 -0.613001,1.401146 -0.788136,2.014147 -0.350295,1.313574 -0.525438,2.714719 -0.437857,4.028293 0.08757,2.101722 0.52542,4.115862 1.488716,5.692152 0.963297,1.57629 2.364433,2.71472 4.203437,3.24015 0.612992,0.17514 1.401145,0.26271 2.189289,0.26271 4.904009,-0.26271 4.728866,-5.34186 4.553723,-10.1583 -0.08757,-2.627147 -0.175135,-5.166723 0.525429,-6.918155 -0.262706,-0.175143 -0.437858,-0.350286 -0.613001,-0.52543 -0.875716,-0.613001 -1.401145,-1.050859 -2.802291,-1.226002 z m -0.963287,-0.700572 c 0.08757,-0.08757 0.175151,-0.175144 0.175151,-0.262715 0.08757,-0.175143 0.262706,-0.262715 0.525421,-0.262715 1.926575,0.08757 2.714719,0.700573 3.765578,1.576289 0.262715,0.262714 0.613001,0.525429 0.963288,0.788144 0.262706,0.175143 0.262706,0.437858 0.175134,0.700573 -0.788144,1.576288 -0.700572,4.203436 -0.612992,6.830583 0.175134,5.42944 0.350277,11.12159 -5.692153,11.38431 -0.875716,0 -1.751432,-0.0876 -2.452004,-0.26272 -2.18929,-0.613 -3.765579,-1.92657 -4.904009,-3.76558 -1.050859,-1.75143 -1.576289,-4.02829 -1.66386,-6.305151 0,-1.401145 0.175143,-2.889862 0.525429,-4.378579 l 0,-0.08757 c 0.175152,-0.788144 0.52543,-1.488717 0.875716,-2.276861 0.437858,-0.788144 0.875716,-1.488717 1.488717,-2.276861 0.08757,-0.175143 0.262706,-0.350286 0.350278,-0.437858 0.08758,-0.175143 0.262714,-0.262715 0.350286,-0.437858 0.875716,-0.963287 1.751432,-1.576288 2.627147,-1.751432 0.963288,-0.175143 1.926575,0 2.977434,0.700573 l 0.08757,0.08757 c 0.262715,0.175143 0.350286,0.350286 0.437858,0.437858 z"
     id="path1315" />
  <g
     style="fill-rule:evenodd"
     id="g41"
     transform="matrix(0.87571585,0,0,0.87571585,-211.48415,-380.76286)">
    <path
       style="fill:#00cbff"
       inkscape:connector-curvature="0"
       d="m 356.33,513.06 c 3.1,2.2 3.9,5.7 3.9,5.7 0,0 -2.6,7.1 -9.7,7.4 -7.1,0.3 -11.1,-4.8 -11.1,-4.8 0,0 0.40001,-3.8 2.9,-6.8 1.6,-1.9 4,-3.4 7.6,-3.4 2.8,0 4.8,0.8 6.4,1.9 z"
       id="path1317" />
    <path
       inkscape:connector-curvature="0"
       d="m 358.73,514.46 c 0.9,0.5 3.8,2.4 5.6,1.4 -2.5,2 -5.5,-0.4 -5.9,-0.7 l 0.3,-0.7 z"
       id="path1319" />
    <path
       inkscape:connector-curvature="0"
       d="m 359.33,515.66 c 0.9,0.6 3.6,2.7 5.5,1.8 -2.7,1.8 -5.4,-0.9 -5.8,-1.1 l 0.3,-0.7 z"
       id="path1321" />
    <path
       inkscape:connector-curvature="0"
       d="m 357.53,513.16 c 1,0.5 4,2.1 5.7,1 -2.4,2.2 -5.6,0 -6,-0.3 l 0.3,-0.7 z"
       id="path1323" />
    <path
       inkscape:connector-curvature="0"
       d="m 327.93,505.46 c 0.90001,0.1 2.8,2.4 2.5,5 -0.3,2.6 -2.8,4.3 -3.7,4.2 -0.89999,-0.1 -2.8,-2.5 -2.5,-5 0.3,-2.5 2.8,-4.3 3.7,-4.2 z"
       id="path1325" />
    <path
       style="fill:#ffffff"
       inkscape:connector-curvature="0"
       d="m 325.33,504.76 c 1,-0.1 1.9,0.6 2,1.6 0.1,1 -0.60001,1.9 -1.6,2 -1,0.1 -1.9,-0.6 -2,-1.6 -0.2,-1 0.60001,-1.9 1.6,-2 z"
       id="path1327" />
    <path
       inkscape:connector-curvature="0"
       d="m 348.73,510.26 c -0.89999,-0.1 -3.4,1.6 -3.7,4.2 -0.3,2.6 1.6,4.9 2.4,5 0.90001,0.1 3.3,-1.6 3.7,-4.2 0.4,-2.5 -1.5,-4.9 -2.4,-5 z"
       id="path1329" />
    <path
       style="fill:#ffffff"
       inkscape:connector-curvature="0"
       d="m 351.33,510.66 c -1,-0.4 -2,0.1 -2.4,1 -0.4,0.9 0.1,2 1,2.4 1,0.4 2,-0.1 2.4,-1 0.4,-0.9 0,-2 -0.99999,-2.4 z"
       id="path1331" />
    <path
       inkscape:connector-curvature="0"
       d="m 321.83,502.46 c -3.8,0.7 -7.2,5.6 -7.2,5.6 0,0 -0.4,1.1 0,0.8 7.4,-7.3 21,-3.5 17.6,10.6 0.3,-0.9 2.2,-7.1 1.4,-10.2 l 0.20001,0.7 c -0.60001,-2.4 -2.1,-4.8 -5.4,-6.4 -2.5,-1.3 -4.7,-1.5 -6.6,-1.1 z"
       id="path1333" />
    <path
       inkscape:connector-curvature="0"
       d="m 356.13,510.56 c 3.1,2.2 4,8.2 4,8.2 0,0 -0.2,1.2 -0.3,0.7 -3.4,-9.8 -17.3,-12.4 -20.5,1.8 0.19999,-1 1.2,-7.3 3.2,-9.8 l -0.5,0.5 c 1.6,-1.9 4,-3.4 7.6,-3.4 2.9,0.1 5,0.9 6.5,2 z"
       id="path1335" />
    <path
       style="fill:#ffffff"
       inkscape:connector-curvature="0"
       d="m 346.33,516.66 c -0.5,-0.2 -1,0.1 -1.2,0.5 -0.2,0.5 0.1,1 0.5,1.2 0.5,0.2 1,-0.1 1.2,-0.5 0.19999,-0.5 0,-1 -0.5,-1.2 z"
       id="path1337" />
    <path
       style="fill:#ffffff"
       inkscape:connector-curvature="0"
       d="m 329.03,512.26 c -0.5,-0.2 -1,0 -1.2,0.5 -0.20001,0.5 0.1,1 0.5,1.2 0.5,0.2 1,0 1.2,-0.5 0.2,-0.4 0,-1 -0.5,-1.2 z"
       id="path1339" />
    <path
       style="fill:#6c6c6c"
       inkscape:connector-curvature="0"
       d="m 350.33,581.86 c -0.5,-3.9 -2.2,-8 -7.7,-8.3 -4,-0.3 -8.6,2.9 -7.7,8.3 l 15.4,0 z"
       id="path1341" />
  </g>
</svg>
