<?xml version="1.0" encoding="UTF-8" standalone="no"?>
<!-- Created with Inkscape (http://www.inkscape.org/) -->

<svg
   xmlns:dc="http://purl.org/dc/elements/1.1/"
   xmlns:cc="http://creativecommons.org/ns#"
   xmlns:rdf="http://www.w3.org/1999/02/22-rdf-syntax-ns#"
   xmlns:svg="http://www.w3.org/2000/svg"
   xmlns="http://www.w3.org/2000/svg"
   xmlns:sodipodi="http://sodipodi.sourceforge.net/DTD/sodipodi-0.dtd"
   xmlns:inkscape="http://www.inkscape.org/namespaces/inkscape"
   id="svg6018"
   height="57mm"
   width="42mm"
   version="1.1"
   viewBox="0 0 148.8189 201.9685"
   inkscape:version="0.91 r13725"
   sodipodi:docname="cat_2.svg">
  <defs
     id="defs54" />
  <sodipodi:namedview
     pagecolor="#ffffff"
     bordercolor="#666666"
     borderopacity="1"
     objecttolerance="10"
     gridtolerance="10"
     guidetolerance="10"
     inkscape:pageopacity="0"
     inkscape:pageshadow="2"
     inkscape:window-width="1260"
     inkscape:window-height="754"
     id="namedview52"
     showgrid="false"
     inkscape:zoom="1.168499"
     inkscape:cx="-217.41792"
     inkscape:cy="100.98425"
     inkscape:window-x="0"
     inkscape:window-y="0"
     inkscape:window-maximized="0"
     inkscape:current-layer="svg6018" />
  <metadata
     id="metadata6023">
    <rdf:RDF>
      <cc:Work
         rdf:about="">
        <dc:format>image/svg+xml</dc:format>
        <dc:type
           rdf:resource="http://purl.org/dc/dcmitype/StillImage" />
        <dc:title />
      </cc:Work>
    </rdf:RDF>
  </metadata>
  <g
     style="fill:#676766"
     transform="matrix(0.94230973,0,0,0.94230973,-323.78905,-32.489472)"
     id="g17">
    <path
       style="fill-rule:evenodd"
       inkscape:connector-curvature="0"
       d="m 460.5,202.1 c -2.7,-2.1 -4.2,-4.8 -4.8,-8 4.3,4.1 9,8.4 10,11.2 2.4,6.3 0.4,14.8 -2.9,24.5 -3.1,0.3 -6.2,2.3 -5.5,5.6 l 11.9,0 c 0.1,-0.4 0.2,-0.8 0.3,-1.1 2.2,-4.8 11.3,-25.3 9.2,-32.3 -7.8,-6 -6,-17.5 -3.9,-27.8 1.5,-3.6 2.8,-8.7 4.1,-15.9 1.4,-8.1 0.1,-15.3 -3.1,-21.3 l 0.1,-0.1 -0.1,-0.1 c 1.2,-0.3 2.2,-0.7 2.9,-1.2 2,-1.4 4.9,-4.1 5.7,-6.4 -0.9,0.1 -1.9,0.4 -2.7,0.1 0.2,-0.4 0.1,-0.2 0.4,-0.5 3.5,-3.7 8.3,-12.6 7.9,-18.2 -0.5,0 -2.1,1 -2.8,1.1 1,-2.7 1.6,-3.3 2.8,-7.6 1,-3.6 1.2,-8.2 1.4,-8.9 l 0,-4.2 c -0.4,0.1 -2,1.5 -3.1,1.9 0.2,-0.9 0.5,-1.8 0.7,-2.7 0.9,-4.5 1.1,-10.5 0.4,-15 -0.5,-3.1 -1,-3.5 -1.4,-5.2 -0.5,0.3 -1.8,2.6 -2.5,2.9 -0.8,-6.8 -3,-16.3 -6.7,-22.1 -0.9,-1.5 -1.1,-1.3 -1.9,-2.2 l -0.1,0 c -0.6,1.4 -1.6,2.9 -2.2,4.4 -4.8,10.9 -3.1,14.5 -3.6,15.9 -0.4,-0.8 -1,-1.7 -1.5,-2.7 l -1.3,-2.8 c -0.8,1.2 -1.4,6.9 -1.4,8.7 -0.1,2.1 0.3,7.2 1.1,8.8 l 0.1,0.5 c -2,-1 -2.8,-3.2 -4.2,-4.3 0,4.5 0.6,11.8 1.9,16.1 l 1.4,4.3 -3.3,-4.1 c -0.1,3.5 1.8,9.5 3.1,12.9 0.5,1.3 1.1,2.4 1.6,3.6 l -3,-2.3 c -0.8,5.3 0.3,11.3 1.8,17 -1.8,-1.6 -6,-3 -6.2,-3.1 0.8,-1.2 1.5,-2.1 2.4,-3.5 -2.8,-0.3 -7.3,0.2 -10.4,0.9 l 1.8,-3.7 c -3.7,0.1 -7.8,0.9 -11.3,1.8 l 0.4,-4.5 c -5.5,1.6 -9.2,3.6 -12.1,4.9 l 0.2,-5.3 c -2.7,-0.5 -12.6,6 -15.4,7.5 0,-0.4 1,-3.1 0.6,-3.6 -7.5,2.8 -10.2,6.9 -14,12.3 -0.6,-1.4 -1.1,-4.5 -2,-6.1 -1.9,1.7 -5.3,10 -8.4,18.3 -2,0 -9.6,0.5 -10.5,1.1 l -0.5,0.1 c -5.3,-1.4 -26.5,-7.4 -27.1,-6.9 -0.6,0.5 4.1,10.1 6.5,14.4 -0.2,2.6 -1,5.6 -4.1,7.2 3.9,-0.8 5.8,-3.5 2.2,0.6 -0.9,0.9 -3,2.2 -3.1,2.2 -0.3,0.3 3,0.3 5.2,-1.4 0,1.4 -2.6,5.1 -5.1,5 -0.6,0 4.3,1.6 8,-2 0.1,2 0.5,4 1.1,6 -2.1,0.4 -2.1,0.4 -2.7,1.3 l 0.2,0.5 c 0.9,0.1 1.4,-0.2 2.9,-0.5 0.4,1.2 0.9,2.4 1.5,3.5 -2.5,0.5 -5,1.2 -7.2,2.4 -0.5,0.3 -0.6,0.9 -0.2,1.1 0.7,0.6 2.2,-1.5 8,-2.4 0.7,1.4 1.6,2.8 2.5,4.2 -0.6,0.3 -2.7,1.3 -2.8,1.9 -0.2,0.7 0.7,1 1.1,0.7 l 2.6,-1.4 c 3.3,4.3 7.5,8 12.4,10.3 0.6,4 2.2,6.1 9.9,6.2 1.7,12.2 2.8,25.4 3.3,35 -3.1,0.2 -6.3,2.3 -5.6,5.6 l 13,0 0,-0.1 0.7,0 1.7,-47.4 c 0.5,-0.3 1,-0.5 1.5,-0.9 2.3,14.3 3.9,31.2 4.5,42.8 -2.9,0.4 -5.6,2.4 -5,5.6 l 13.1,0 0,-0.1 0.1,0 c 0.5,-20.9 0.7,-42.1 3.9,-61.6 1.6,0.5 2.6,1 3.3,1.3 1.2,5.9 2.9,11.3 4.8,14.6 3,5.2 12.8,11.1 14.5,15.6 2.3,6.3 1.2,14.8 -1.8,24.5 -3,0.3 -6,2.4 -5.4,5.6 l 11.9,0 c 0.1,-0.5 0.3,-0.9 0.3,-1.3 2.1,-4.6 10.1,-24.8 8,-31.7 z"
       id="path19" />
    <path
       inkscape:connector-curvature="0"
       d="m 469.2,241.5 -11.9,0 c -0.9,0 -1.8,-0.2 -2.5,-0.6 -0.8,0.4 -1.6,0.6 -2.5,0.6 l -11.9,0 c -2.9,0 -5.4,-2 -5.9,-4.9 -0.5,-2.8 0.1,-5.7 1.8,-8 1.2,-1.6 2.8,-2.8 4.7,-3.7 2.1,-7.7 2.5,-13.6 1,-17.5 -0.5,-1.1 -3.7,-3.9 -5.6,-5.6 -2.8,-2.5 -5.7,-5.1 -7.7,-7.8 -0.9,11.9 -1.2,24.1 -1.5,36.1 l -0.1,5.4 c 0,1.4 -0.6,2.7 -1.4,3.7 -1.1,1.4 -2.8,2.2 -4.7,2.2 l -13,0 c -0.5,0 -1.1,-0.1 -1.6,-0.2 -0.2,0 -0.4,0.1 -0.5,0.1 -0.4,0.1 -0.8,0.1 -1.3,0.1 l -13,0 c -2.9,0 -5.3,-2 -5.9,-4.8 -0.6,-2.9 0.1,-5.8 1.8,-8.1 0.9,-1.2 2.1,-2.2 3.4,-3 -0.5,-8 -1.4,-17 -2.4,-25.2 -4.1,-0.8 -7.9,-2.8 -9.7,-7.7 -3.2,-1.8 -6.1,-4.2 -8.8,-7 -0.5,0.1 -0.9,0.1 -1.4,0.1 -2.1,0 -4.1,-1 -5.3,-2.5 -0.5,-0.6 -0.9,-1.4 -1.1,-2.1 -0.5,0.1 -1.1,0.2 -1.7,0.2 -1.4,0 -2.6,-0.4 -3.7,-1.2 -1.8,-1.2 -2.9,-3.4 -2.8,-5.6 0.1,-2.2 1.3,-4.3 3.2,-5.5 l 0,-0.1 c -6,-0.7 -6.5,-4.9 -6.5,-6.2 0,-0.6 0.1,-1.2 0.3,-1.8 -0.5,-1.6 -0.3,-3.4 0.6,-4.9 0.1,-2.1 1.3,-4 3.2,-5.1 0.1,-0.1 0.4,-0.2 0.6,-0.9 -1.2,-2.2 -2.5,-4.9 -3.6,-7.1 -2.4,-5.2 -4.5,-9.7 -0.5,-13 0.7,-0.6 2,-1.4 3.9,-1.4 1.7,0 4.7,0.7 21.2,5.2 2.3,0.6 4.3,1.2 5.8,1.6 2,-0.5 4.6,-0.7 6.8,-0.8 5.4,-14 7.4,-15.9 8.6,-16.9 1.3,-1.2 3.2,-1.8 5,-1.5 0.8,0.1 1.6,0.4 2.2,0.8 2.6,-2.6 5.9,-4.9 10.7,-6.7 1.7,-0.6 3.4,-0.5 4.9,0.3 6.3,-3.6 9.9,-5 13,-4.5 1.6,0.3 2.9,1.1 3.8,2.4 1.6,-0.6 3.4,-1.3 5.4,-1.8 1.9,-0.5 4,-0.1 5.5,1.2 0.6,0.5 1.1,1.1 1.5,1.8 2,-0.3 3.8,-0.5 5.4,-0.5 1.7,0 3.2,0.6 4.4,1.8 0,-1.4 0.1,-2.9 0.3,-4.3 0.1,-0.6 0.3,-1.2 0.5,-1.7 -1.2,-3.6 -2.4,-8.2 -2.3,-11.8 0,-1.1 0.4,-2.2 1,-3.1 -0.8,-4.4 -1.1,-9.4 -1.1,-13.1 0,-2.1 1.2,-4.1 3,-5.2 0,-0.4 0.3,-8.5 2.4,-11.8 0.8,-1.2 2,-2.1 3.3,-2.5 0.6,-2 1.4,-4.4 2.7,-7.1 0.4,-0.9 0.9,-1.8 1.3,-2.6 0.3,-0.6 0.7,-1.2 0.9,-1.7 0.9,-2.2 3.1,-3.6 5.5,-3.6 l 0.1,0 c 1.8,0 3.4,0.8 4.6,2.1 l 0.2,0.2 c 0.7,0.7 1.3,1.4 2.2,2.7 2.9,4.6 5,11 6.3,16.8 0.1,0 0.2,0.1 0.4,0.2 1.7,0.8 2.9,2.3 3.3,4.1 0,0.2 0.1,0.4 0.2,0.7 0.4,1.2 0.9,2.5 1.2,4.9 0.5,3.8 0.6,8.3 0.2,12.4 1.2,1.1 1.8,2.7 1.8,4.3 l 0,4.5 c 0,0.5 -0.1,0.9 -0.2,1.4 0,0.3 -0.1,0.6 -0.1,1.1 -0.2,2 -0.6,5.2 -1.4,8.1 -0.2,0.7 -0.4,1.3 -0.6,1.8 0.4,0.8 0.7,1.6 0.8,2.5 0.4,5.5 -2.5,12.5 -5.7,17.7 0.2,1 0.2,2.1 -0.2,3.2 -1.2,3.7 -4.6,6.8 -6.6,8.5 2.1,6 2.6,12.7 1.4,19.7 -1.2,7.1 -2.6,12.6 -4.2,16.6 -2.2,10.7 -2.6,18 1.7,21.3 1,0.8 1.7,1.8 2.1,3 1.9,6.2 -1.2,18.3 -9.2,35.9 -0.1,0.3 -0.1,0.5 -0.2,0.7 l 0,0.2 c -0.8,2.7 -3.1,4.5 -5.8,4.5 z M 453.1,203 c 0,0.1 0.1,0.2 0.1,0.3 0.6,1.6 1.1,3.4 1.3,5.3 0.3,-1.4 0.4,-2.6 0.4,-3.4 -0.6,-0.7 -1.3,-1.4 -1.8,-2.2 z m 18.1,0.1 c 0,0.1 0.1,0.2 0.1,0.2 0.6,1.6 1,3.3 1.2,5 0.3,-1.3 0.4,-2.4 0.5,-3.2 -0.7,-0.6 -1.2,-1.3 -1.8,-2 z M 390,188.5 c 0.5,0.1 1.6,0.4 3.9,0.4 3,0.1 5.4,2.3 5.8,5.2 0.3,2.1 0.6,4.3 0.8,6.5 l 0.5,-12.9 c 0.1,-2.2 1.3,-4.2 3.3,-5.1 0.3,-0.1 0.6,-0.3 0.9,-0.5 1.7,-1.1 3.8,-1.3 5.7,-0.4 1.9,0.8 3.2,2.5 3.5,4.5 0.7,4.4 1.3,8.9 1.9,13.4 0.5,-9.1 1.4,-18.1 2.8,-26.7 0.3,-1.7 1.3,-3.2 2.8,-4.1 1.5,-0.9 3.3,-1.1 4.9,-0.6 1.7,0.5 2.9,1.1 3.7,1.5 l 0.3,0.1 c 1.7,0.8 3,2.4 3.4,4.2 1.6,7.8 3.3,11.4 4.1,12.9 0.9,1.6 3.6,4 6,6.1 2.6,2.3 5.1,4.5 6.9,6.9 -0.6,-1.4 -1.1,-2.9 -1.4,-4.5 -0.5,-2.6 0.7,-5.2 3,-6.5 2.3,-1.3 5.1,-0.9 7,0.9 l 0.9,0.9 c 3.7,3.5 6.5,6.2 8.3,8.7 -3.8,-8.5 -1.6,-19.2 -0.2,-26.3 0.1,-0.4 0.2,-0.7 0.3,-1.1 1.4,-3.3 2.6,-8 3.7,-14.6 1.1,-6.5 0.3,-12.3 -2.5,-17.4 -0.8,-1.4 -0.9,-3.1 -0.5,-4.7 0.2,-0.7 0.6,-1.4 1.1,-2 0.8,-1 1.8,-1.7 3,-2.1 l 1.2,-0.4 c 0.1,-0.1 0.3,-0.2 0.4,-0.3 -0.2,-1.1 -0.1,-2.3 0.4,-3.4 0.3,-0.7 0.8,-1.6 1.7,-2.4 1.8,-2 3.8,-5.4 5,-8.5 l -0.2,-0.2 c -1.5,-1.6 -1.9,-3.9 -1.2,-6 0.4,-1.3 0.8,-2.2 1.2,-3 0.5,-1.1 0.9,-2 1.5,-4.3 0.4,-1.5 0.7,-3.3 0.9,-4.8 -0.2,-0.1 -0.4,-0.2 -0.5,-0.4 -1.7,-1.4 -2.5,-3.6 -2.1,-5.7 0.1,-0.6 0.3,-1.2 0.4,-1.8 0.1,-0.3 0.2,-0.7 0.3,-1 0.6,-3 0.8,-7 0.6,-10.4 -0.4,-0.1 -0.8,-0.3 -1.1,-0.5 -1.7,-0.9 -2.8,-2.6 -3,-4.5 -0.4,-3.2 -1.1,-7 -2.1,-10.6 -0.4,2.1 -0.4,3.4 -0.4,4.3 0,1 0.1,2.1 -0.4,3.5 -0.6,1.8 -2.1,3.3 -3.8,3.8 0.1,1.6 0.3,3.3 0.5,4 0.2,0.5 0.4,1.1 0.5,1.7 l 0.1,0.5 c 0.2,2.2 -0.7,4.3 -2.5,5.6 -0.3,0.2 -0.6,0.4 -0.9,0.5 0.3,1.7 0.6,3.3 0.9,4.5 l 1.4,4.2 c 0.7,2.1 0.2,4.3 -1.2,5.9 0.3,0.9 0.6,1.8 1,2.7 0.2,0.5 0.4,1 0.7,1.6 0.3,0.6 0.6,1.3 0.9,2 1,2.5 0.2,5.4 -2,7 -0.2,0.2 -0.4,0.3 -0.7,0.4 0.3,2.8 1,5.6 1.6,8 0.7,2.6 -0.4,5.3 -2.7,6.6 -2.3,1.4 -5.1,1.1 -7.1,-0.6 -0.1,-0.1 -1,-0.7 -4,-1.9 -0.5,-0.2 -0.8,-0.3 -0.9,-0.4 -1.1,-0.5 -1.9,-1.4 -2.5,-2.4 l -1.5,0.3 c -2.3,0.5 -4.6,-0.4 -6,-2.2 -0.1,-0.1 -0.2,-0.3 -0.3,-0.4 -1,0.2 -1.9,0.4 -3,0.7 -1.9,0.5 -3.9,0 -5.4,-1.3 -0.3,-0.2 -0.5,-0.5 -0.7,-0.8 -1.1,0.5 -2,0.9 -3,1.4 -0.5,0.3 -1,0.5 -1.5,0.7 -1.9,0.9 -4.1,0.7 -5.8,-0.4 -0.7,-0.5 -1.3,-1.1 -1.7,-1.8 -1.7,1 -3.4,2 -4.4,2.5 -1.3,0.7 -2.3,1.3 -3,1.7 -1.8,1 -4,0.9 -5.7,-0.1 -1.9,1.7 -3.4,3.8 -5.3,6.6 l -0.2,0.3 c -1.2,1.8 -3.4,2.8 -5.5,2.5 -0.3,0 -0.6,-0.1 -0.9,-0.1 -0.9,2.2 -2,5 -3.3,8.5 -0.9,2.3 -3.1,3.9 -5.6,3.9 -1.8,0 -6.9,0.4 -8.4,0.7 -0.2,0.1 -0.4,0.1 -0.6,0.2 l -0.5,0.1 c -1,0.3 -2,0.3 -3,0 -1.5,-0.4 -4.2,-1.1 -7.4,-2 -2.2,-0.6 -5.1,-1.4 -8,-2.2 0.5,1 1.1,2 1.6,2.9 0.6,1 0.8,2.2 0.7,3.4 -0.1,1 -0.2,1.9 -0.4,2.8 0.5,1.2 0.6,2.2 0.4,3.1 1.8,1 3,2.9 3.1,5 0.1,1.4 0.3,3 0.8,4.5 0.1,0.2 0.1,0.4 0.2,0.7 0.1,0.1 0.1,0.2 0.1,0.4 0.4,1.1 0.8,2.1 1.2,2.9 0.1,0.2 0.2,0.4 0.2,0.6 0.1,0.2 0.2,0.3 0.3,0.5 0.6,1.2 1.4,2.4 2.1,3.5 0.1,0.2 0.2,0.4 0.4,0.6 0.1,0.1 0.3,0.3 0.4,0.5 2.9,3.8 6.4,6.7 10.2,8.5 1.8,0.9 3.1,2.6 3.3,4.5 0.2,0.4 0.3,0.6 0.3,0.8 z M 497.2,96.9 c 0,0.1 -0.1,0.3 -0.1,0.4 0,0 0.1,-0.2 0.1,-0.4 z"
       id="path21" />
  </g>
  <path
     id="path25"
     d="m 110.14458,157.95132 c -2.54424,-1.97885 -3.9577,-4.52308 -4.52309,-7.53847 4.05194,3.86347 8.48079,7.9154 9.4231,10.55387 2.26154,5.93655 0.37693,13.94618 -2.7327,23.08658 -2.92116,0.2827 -5.84232,2.16732 -5.1827,5.27694 l 11.21349,0 c 0.0942,-0.37693 0.18846,-0.75385 0.28269,-1.03654 2.07308,-4.52309 10.6481,-23.84044 8.66925,-30.43661 -7.35002,-5.65385 -5.65386,-16.49042 -3.67501,-26.19621 1.41346,-3.39231 2.63847,-8.19809 3.86347,-14.98272 1.31923,-7.63271 0.0942,-14.41734 -2.92116,-20.071199 l 0.0942,-0.09423 -0.0942,-0.09423 c 1.13077,-0.282693 2.07308,-0.659617 2.7327,-1.130772 1.88462,-1.319233 4.61732,-3.86347 5.37116,-6.030782 -0.84808,0.09423 -1.79039,0.376924 -2.54423,0.09423 0.18846,-0.376924 0.0942,-0.188462 0.37692,-0.471155 3.29808,-3.486546 7.82117,-11.873102 7.44425,-17.150037 -0.47116,0 -1.97885,0.94231 -2.63847,1.036541 0.94231,-2.544236 1.5077,-3.109622 2.63847,-7.161554 0.94231,-3.392315 1.13077,-7.72694 1.31923,-8.386557 l 0,-3.957701 c -0.37692,0.09423 -1.88462,1.413465 -2.92116,1.790389 0.18846,-0.848079 0.47116,-1.696158 0.65962,-2.544236 0.84808,-4.240394 1.03654,-9.894253 0.37692,-14.134646 -0.47115,-2.92116 -0.94231,-3.298084 -1.31923,-4.900011 -0.47116,0.282693 -1.69616,2.450005 -2.35578,2.732698 -0.75384,-6.407706 -2.82693,-15.359648 -6.31347,-20.825045 -0.84808,-1.413464 -1.03654,-1.225002 -1.79039,-2.073081 l -0.0942,0 c -0.56539,1.319233 -1.5077,2.732698 -2.07308,4.146163 -4.52309,10.271176 -2.92116,13.663491 -3.39232,14.982724 -0.37692,-0.753847 -0.94231,-1.601926 -1.41346,-2.544236 l -1.225,-2.638467 c -0.75385,1.130772 -1.31924,6.501937 -1.31924,8.198095 -0.0942,1.97885 0.28269,6.78463 1.03654,8.292325 l 0.0942,0.471155 c -1.88462,-0.94231 -2.63846,-3.015391 -3.9577,-4.051932 0,4.240394 0.56539,11.119255 1.79039,15.171187 l 1.31923,4.051932 -3.10962,-3.86347 c -0.0942,3.298084 1.69616,8.951942 2.92116,12.155795 0.47116,1.225003 1.03654,2.261544 1.5077,3.392315 l -2.82693,-2.167312 c -0.75385,4.994242 0.28269,10.6481 1.69616,16.019265 -1.69616,-1.507695 -5.65386,-2.826929 -5.84232,-2.92116 0.75384,-1.130771 1.41346,-1.97885 2.26154,-3.298084 -2.63847,-0.282693 -6.87886,0.188462 -9.80002,0.848079 l 1.69616,-3.486546 c -3.48655,0.09423 -7.35002,0.848079 -10.648104,1.696157 l 0.376924,-4.240393 c -5.182703,1.507695 -8.669249,3.392315 -11.401948,4.617317 l 0.188462,-4.994241 c -2.544236,-0.471155 -11.873102,5.653858 -14.51157,7.067323 0,-0.376924 0.94231,-2.92116 0.565386,-3.392315 -7.067323,2.638467 -9.611559,6.501937 -13.192336,11.590409 -0.565386,-1.319233 -1.036541,-4.240393 -1.884619,-5.748089 -1.790389,1.601927 -4.994242,9.423097 -7.915402,17.244268 -1.88462,0 -9.046173,0.471155 -9.894252,1.036545 l -0.471155,0.0942 c -4.994242,-1.319237 -24.971208,-6.973095 -25.536594,-6.50194 -0.5653856,0.471154 3.86347,9.51733 6.125013,13.56926 -0.188461,2.45001 -0.942309,5.27693 -3.863469,6.78463 3.675008,-0.75385 5.465396,-3.29808 2.073081,0.56539 -0.848079,0.84807 -2.826929,2.07308 -2.92116,2.07308 -0.282693,0.28269 2.826929,0.28269 4.90001,-1.31924 0,1.31924 -2.450005,4.80578 -4.805779,4.71155 -0.565386,0 4.051932,1.5077 7.538478,-1.88462 0.09423,1.88462 0.471154,3.76924 1.03654,5.65386 -1.97885,0.37692 -1.97885,0.37692 -2.544236,1.225 l 0.188462,0.47116 c 0.848079,0.0942 1.319234,-0.18846 2.732698,-0.47116 0.376924,1.13078 0.848079,2.26155 1.413465,3.29809 -2.355775,0.47115 -4.711549,1.13077 -6.78463,2.26154 -0.471155,0.28269 -0.565386,0.84808 -0.188462,1.03654 0.659617,0.56539 2.073081,-1.41346 7.538478,-2.26154 0.659616,1.31923 1.507695,2.63847 2.355774,3.9577 -0.565386,0.28269 -2.544236,1.225 -2.638467,1.79039 -0.188462,0.65961 0.659617,0.94231 1.03654,0.65961 l 2.450006,-1.31923 c 3.109622,4.05193 7.067323,7.53848 11.68464,9.70579 0.565386,3.76924 2.073082,5.74809 9.328867,5.84232 1.601926,11.49618 2.638467,23.93467 3.109622,32.98084 -2.92116,0.18846 -5.936551,2.16731 -5.276935,5.27694 l 12.250027,0 0,-0.0942 0.659617,0 1.601926,-44.66549 c 0.471155,-0.28269 0.94231,-0.47115 1.413465,-0.84807 2.167312,13.47502 3.675008,29.40006 4.240394,40.33085 -2.732699,0.37693 -5.276935,2.26155 -4.711549,5.27694 l 12.344257,0 0,-0.0942 0.09423,0 c 0.471155,-19.69428 0.659617,-39.67124 3.675008,-58.04628 1.507696,0.47115 2.450006,0.94231 3.109622,1.225 1.130772,5.55963 2.732699,10.6481 4.523087,13.75772 2.826929,4.90001 12.061565,10.45964 13.663491,14.70003 2.167316,5.93655 1.130772,13.94619 -1.696157,23.08659 -2.82693,0.28269 -5.653859,2.26154 -5.088473,5.27694 l 11.213486,0 c 0.0942,-0.47116 0.28269,-0.84808 0.28269,-1.22501 1.97885,-4.33462 9.51733,-23.36928 7.53848,-29.87122 z"
     inkscape:connector-curvature="0"
     style="fill:#fefefe;fill-rule:evenodd" />
  <path
     style="fill:#fefefe"
     id="path27"
     d="m 118.34268,194.13602 -11.21349,0 c -0.84808,0 -1.69616,-0.18846 -2.35577,-0.65962 -0.65962,0.37693 -1.5077,0.65962 -2.35578,0.65962 l -11.213485,0 c -2.261543,0 -4.240394,-1.60193 -4.617318,-3.86347 -0.471154,-2.45001 0.09423,-4.80578 1.507696,-6.78463 1.130772,-1.5077 2.638467,-2.63847 4.428856,-3.29809 2.167312,-7.6327 2.544236,-13.56926 1.03654,-17.52696 -0.471154,-1.13077 -3.580777,-3.9577 -5.465396,-5.65386 -3.015391,-2.63846 -6.030782,-5.37116 -7.821171,-8.38655 -0.282693,-0.47116 -0.471155,-0.84808 -0.753848,-1.41347 -1.03654,12.06157 -1.319233,24.68852 -1.601926,37.03278 l -0.09423,5.08847 c 0,1.13077 -0.471155,2.16731 -1.130772,2.92116 -0.848079,1.03654 -2.167312,1.79039 -3.675008,1.79039 l -12.344257,0 c -0.471155,0 -1.036541,-0.0942 -1.413465,-0.18846 -0.188462,0.0942 -0.471155,0.0942 -0.659617,0.0942 -0.376923,0.0942 -0.659616,0.0942 -1.03654,0.0942 l -12.250027,0 c -2.261543,0 -4.146163,-1.60193 -4.617317,-3.76924 -0.471155,-2.45001 0,-4.90001 1.507695,-6.87886 0.848079,-1.13077 2.073082,-2.07308 3.486546,-2.82693 -0.471155,-7.9154 -1.413464,-16.86735 -2.450005,-25.06544 -4.051932,-0.65962 -7.632709,-2.35578 -9.234636,-7.06732 -3.203853,-1.79039 -6.125013,-4.14617 -8.76348,-6.9731 -0.471155,0.18847 -1.036541,0.2827 -1.601927,0.2827 -1.696157,0 -3.298084,-0.75385 -4.334624,-2.07308 -0.565386,-0.75385 -0.94231,-1.69616 -1.130772,-2.63847 -0.659617,0.28269 -1.413465,0.47115 -2.261543,0.47115 -1.036541,0 -2.073082,-0.28269 -3.015391,-0.94231 -1.413465,-1.03654 -2.261544,-2.63846 -2.261544,-4.42885 0.09423,-1.97885 1.225003,-3.76924 2.92116,-4.61732 0.09423,0 0.09423,-0.0942 0.188462,-0.0942 -0.09423,-0.47116 -0.188462,-0.94231 -0.188462,-1.41347 -5.4653961,-0.28269 -6.0307819,-3.58077 -6.0307819,-4.99424 0,-0.56538 0.094231,-1.13077 0.2826929,-1.69615 -0.5653859,-1.41347 -0.3769239,-3.10963 0.4711549,-4.33463 0,-1.69616 0.9423097,-3.39231 2.5442361,-4.24039 0.282693,-0.18846 0.848079,-0.47116 1.130772,-1.79039 -1.130772,-2.16731 -2.4500055,-4.80578 -3.4865462,-6.97309 C 6.2078174,97.266578 4.5116599,93.497339 7.715513,90.858872 8.2808989,90.387717 9.3174396,89.7281 10.825135,89.7281 c 1.413465,0 4.334625,0.659617 19.694273,4.900011 2.261544,0.659616 4.240394,1.130771 5.653859,1.507695 1.97885,-0.471155 4.90001,-0.753848 7.067323,-0.848079 5.182703,-13.475029 7.067323,-15.265417 8.009633,-16.113496 1.03654,-0.94231 2.544236,-1.413465 3.9577,-1.225003 0.848079,0.09423 1.696158,0.565386 2.355775,1.130772 2.450005,-2.638467 5.559627,-4.994242 10.271176,-6.690399 1.507695,-0.565386 3.109622,-0.376924 4.334625,0.471155 6.030782,-3.486546 9.328866,-4.80578 12.061564,-4.428856 1.507696,0.282693 2.732698,1.225003 3.392315,2.450005 1.696158,-0.659616 3.580777,-1.413464 5.748089,-1.97885 1.507696,-0.471155 3.109623,-0.09423 4.334625,0.94231 0.659617,0.565386 1.130772,1.225002 1.413465,1.97885 2.073083,-0.376924 3.957703,-0.565386 5.748093,-0.565386 1.69615,0 3.20385,0.753848 4.05193,2.167313 0.0942,0.09423 0.18846,0.282693 0.18846,0.376924 l 0.75385,0 c -0.0942,-1.88462 0,-3.86347 0.28269,-5.74809 0.0942,-0.565386 0.28269,-1.130771 0.56539,-1.696157 -1.03654,-3.203853 -2.35578,-7.821171 -2.26155,-11.119255 0,-1.036541 0.37693,-1.978851 0.94231,-2.732698 -0.75384,-4.146163 -1.13077,-9.046174 -1.03654,-12.53272 0,-1.790388 1.03654,-3.486546 2.7327,-4.240394 0,0 0.0942,0 0.0942,-0.09423 l 0,-0.565385 c 0,-0.09423 0.28269,-7.821171 2.07308,-10.6481 0.65962,-1.130772 1.79039,-1.88462 3.10962,-2.073082 0.56539,-1.97885 1.41347,-4.334624 2.63847,-7.067323 0.37693,-0.848078 0.84808,-1.696157 1.225,-2.450005 0.2827,-0.565386 0.65962,-1.225003 0.84808,-1.696158 0.75385,-1.696157 2.45001,-2.8269287 4.33463,-2.8269287 l 0.0942,0 c 1.41346,0 2.7327,0.5653858 3.58078,1.6961577 l 0.28269,0.282693 c 0.56538,0.565386 1.13077,1.03654 1.88462,2.355774 2.82693,4.428856 4.71155,10.459638 5.93655,16.113496 0.28269,0.09423 0.47115,0.188462 0.75385,0.282693 1.31923,0.659617 2.26154,1.790389 2.54423,3.203853 0.0942,0.282693 0.0942,0.471155 0.2827,0.848079 0.28269,0.848079 0.75384,2.073082 1.13077,4.428856 0.56538,3.675008 0.56538,8.009633 0.18846,11.967334 1.13077,0.848078 1.79039,2.261543 1.79039,3.675007 l 0,4.240394 c 0,0.376924 0,0.753848 -0.0942,1.130772 0,0.282693 -0.0942,0.659617 -0.0942,1.036541 -0.18846,1.790388 -0.56539,4.805779 -1.31924,7.538477 -0.18846,0.848079 -0.47115,1.507696 -0.65961,2.073082 0.47115,0.659617 0.75384,1.507695 0.84808,2.355774 0.37692,5.182704 -2.45001,11.684641 -5.4654,16.49042 0.28269,0.94231 0.28269,1.88462 0,2.82693 -1.225,3.675008 -4.71155,6.596168 -6.50194,7.915401 2.07308,5.748087 2.63847,12.061567 1.5077,18.657737 -1.13077,6.6904 -2.45001,11.77887 -3.9577,15.54811 -1.79039,8.66925 -3.01539,17.3385 1.97885,21.10773 0.75384,0.56539 1.31923,1.41347 1.60192,2.35578 1.69616,5.65386 -1.225,16.77311 -8.66925,33.26353 -0.0942,0.2827 -0.0942,0.47116 -0.18846,0.65962 l 0,0.18846 c -0.56538,2.16731 -2.45,3.58078 -4.52308,3.58078 z M 76.786816,126.57241 c 0.471155,0 0.94231,0.0942 1.413465,0.18846 1.507695,0.47116 2.638467,0.94231 3.298084,1.31924 l 0.282693,0.18846 c 1.319233,0.65961 2.355774,1.88462 2.638467,3.29808 1.130772,5.55963 2.544236,9.98849 3.957701,12.34426 0.94231,1.60193 3.580777,3.9577 5.84232,6.03078 3.486546,3.10962 6.878864,6.03078 8.103864,9.4231 1.225,3.29808 1.69616,7.16155 1.41346,11.68464 1.41347,-4.90001 2.07309,-8.66925 2.07309,-10.6481 -2.45001,-2.35577 -4.05194,-5.37117 -4.80578,-9.04617 -0.37693,-1.97885 0.56538,-4.05194 2.35577,-5.08848 1.79039,-1.03654 4.05193,-0.75384 5.55963,0.75385 l 0.84808,0.84808 c 5.27693,4.99424 8.48078,8.29233 9.70579,11.49618 1.31923,3.48655 1.50769,7.44425 1.03654,11.40195 1.69616,-5.18271 2.35577,-8.66925 2.35577,-10.45964 -8.29232,-8.00963 -5.55963,-21.39043 -3.86347,-29.58853 l 0.2827,-0.84808 c 1.31923,-3.10962 2.45,-7.72694 3.48654,-13.94618 1.03654,-6.31347 0.28269,-12.06156 -2.45,-16.961575 -0.65962,-1.130771 -0.75385,-2.450005 -0.37693,-3.675008 0.18846,-0.565385 0.47116,-1.130771 0.84808,-1.601926 0.56539,-0.753848 1.41347,-1.413465 2.35577,-1.696158 1.03655,-0.282693 1.31924,-0.471155 1.41347,-0.565386 0.37692,-0.188461 0.65962,-0.471154 0.94231,-0.753847 -0.28269,-1.036541 -0.28269,-2.167313 0.18846,-3.203853 0.18846,-0.376924 0.56539,-1.225003 1.41347,-1.978851 1.88462,-2.073081 3.9577,-5.748089 5.1827,-8.951942 l -0.56539,-0.565386 c -1.13077,-1.319234 -1.50769,-3.109622 -0.94231,-4.711549 0.37693,-1.130771 0.75385,-1.97885 1.13078,-2.732698 0.47115,-1.036541 0.84807,-1.97885 1.50769,-4.146163 0.47116,-1.696157 0.75385,-3.769239 0.94231,-5.276934 -0.28269,-0.188462 -0.65962,-0.376924 -0.94231,-0.565386 -1.31923,-1.130772 -1.97885,-2.826929 -1.60193,-4.523087 0.0942,-0.565386 0.2827,-1.03654 0.37693,-1.601926 0.0942,-0.376924 0.18846,-0.659617 0.28269,-1.036541 0.65962,-3.109622 0.84808,-7.255785 0.56539,-10.742331 -0.47116,-0.09423 -1.03654,-0.282693 -1.5077,-0.565386 -1.31923,-0.753848 -2.16731,-2.073081 -2.35577,-3.580777 -0.47116,-3.957701 -1.5077,-8.951942 -3.01539,-13.192336 -1.31924,3.957701 -1.22501,6.030782 -1.22501,7.350016 0,0.848079 0.0942,1.884619 -0.28269,2.92116 -0.56539,1.696158 -1.97885,2.92116 -3.67501,3.203853 0.0942,1.790389 0.37693,4.051932 0.56539,4.80578 0.18846,0.471155 0.28269,0.94231 0.37692,1.413464 l 0.0942,0.471155 c 0.18847,1.696158 -0.56538,3.392315 -1.97885,4.334625 -0.37692,0.282693 -0.84808,0.471155 -1.31923,0.659617 0.28269,1.97885 0.65962,3.86347 1.03654,5.182703 l 1.31923,3.957701 c 0.56539,1.790389 0.0942,3.769239 -1.31923,4.994242 0.28269,1.03654 0.65962,2.073081 1.13077,3.109622 0.18846,0.565386 0.47116,1.036541 0.65962,1.601926 0.28269,0.565386 0.56538,1.130772 0.84808,1.790389 0.75384,1.97885 0.0942,4.240394 -1.60193,5.465396 -0.37692,0.282693 -0.65962,0.471155 -1.03654,0.565386 0.28269,2.92116 1.03654,5.84232 1.60193,8.292326 0.56538,1.97885 -0.2827,4.146163 -2.07308,5.182703 -1.79039,1.130772 -4.05194,0.848079 -5.55963,-0.471155 -0.0942,-0.09423 -0.94231,-0.753847 -4.05193,-1.97885 -0.47116,-0.188462 -0.65962,-0.282693 -0.75385,-0.282693 -1.03654,-0.471155 -1.79039,-1.413465 -2.26155,-2.450005 -0.75384,0.09423 -1.50769,0.282693 -2.16731,0.376924 -1.79039,0.376924 -3.58077,-0.282693 -4.711546,-1.696158 l -0.565386,-0.848079 c -1.130772,0.188462 -2.261544,0.471155 -3.486546,0.753848 -1.507696,0.376924 -3.015391,0 -4.240394,-1.036541 -0.376924,-0.376923 -0.753848,-0.753847 -0.94231,-1.130771 -1.319233,0.565386 -2.450005,1.130771 -3.486546,1.601926 -0.471155,0.282693 -0.942309,0.471155 -1.413464,0.659617 -1.507696,0.659617 -3.203853,0.565386 -4.617318,-0.376924 -0.848079,-0.565386 -1.413465,-1.319233 -1.790388,-2.167312 -1.88462,1.036541 -3.957701,2.261543 -4.994242,2.826929 -1.225003,0.659617 -2.073081,1.225003 -2.826929,1.601927 -1.507696,0.848078 -3.298084,0.753847 -4.80578,-0.188462 -0.09423,-0.09423 -0.188462,-0.09423 -0.282693,-0.188462 -2.167312,1.790388 -3.675008,3.957701 -5.748089,6.878861 l -0.188462,0.282693 c -0.94231,1.413464 -2.638467,2.167312 -4.334625,1.97885 -0.471155,-0.09423 -0.94231,-0.188462 -1.413464,-0.376924 -0.94231,2.167313 -2.073082,5.088473 -3.486546,8.857713 -0.659617,1.88462 -2.450006,3.10962 -4.428856,3.10962 -1.790389,0 -6.78463,0.37692 -8.198095,0.65962 -0.188462,0.0942 -0.376924,0.0942 -0.471155,0.18846 l -0.471155,0.0942 c -0.753847,0.18846 -1.601926,0.18846 -2.355774,0 -1.413464,-0.37692 -3.957701,-1.03654 -6.973092,-1.88462 -2.544236,-0.75385 -6.219244,-1.69616 -9.517328,-2.54424 0.848079,1.60193 1.696157,3.29809 2.450005,4.61732 0.471155,0.84808 0.659617,1.79039 0.565386,2.7327 -0.09423,0.94231 -0.188462,1.88462 -0.471155,2.82693 0,0.0942 0.09423,0.0942 0.09423,0.18846 0.565386,1.13077 0.565386,2.16731 0.282693,3.10962 0,0.0942 0.09423,0.0942 0.09423,0.18847 1.696158,0.65961 2.92116,2.35577 2.92116,4.14616 0.09423,1.41346 0.376924,2.92116 0.848079,4.52309 0.09423,0.18846 0.09423,0.37692 0.188462,0.65961 0.09423,0.0942 0.09423,0.2827 0.188462,0.37693 0.376924,1.03654 0.753848,1.97885 1.225002,2.82693 0.09423,0.18846 0.188462,0.37692 0.188462,0.56538 0.09423,0.18846 0.188462,0.28269 0.282693,0.47116 0.659617,1.225 1.319234,2.35577 2.073082,3.39231 0.09423,0.18846 0.282693,0.37692 0.376924,0.56539 0.09423,0.0942 0.282693,0.28269 0.376924,0.47115 2.826929,3.67501 6.219244,6.59617 9.988483,8.29233 1.413464,0.65961 2.355774,1.97885 2.638467,3.58077 0.09423,0.94231 0.282693,1.22501 0.282693,1.22501 0,-0.0942 0.753848,0.56538 4.428856,0.56538 2.355774,0 4.240393,1.79039 4.617317,4.05193 0.848079,6.12502 1.601927,12.81542 2.167313,19.31735 l 0.942309,-25.34813 c 0.09423,-1.69616 1.036541,-3.29808 2.638468,-4.05193 0.282692,-0.18846 0.565385,-0.28269 0.942309,-0.56539 1.319234,-0.84807 3.015391,-1.03654 4.428856,-0.37692 1.413465,0.65962 2.450005,1.97885 2.732698,3.58078 1.319234,8.10386 2.355775,16.77311 3.109622,24.68851 0.471155,-12.62695 1.225003,-25.2539 3.203853,-37.22123 0.188462,-1.31924 1.036541,-2.54424 2.167313,-3.20385 0.376924,-0.18847 1.225002,-0.47116 2.073081,-0.47116 z"
     inkscape:connector-curvature="0" />
  <path
     style="fill-rule:evenodd"
     id="path41"
     d="m 110.14553,157.95132 c -9.4231,-7.25578 -2.7327,-23.18082 -0.84808,-34.30007 0,0 4.33462,-26.384673 -9.23464,-29.400064 -8.575016,-1.884619 -23.46351,-1.225002 -23.46351,11.025024 0,8.76348 2.732698,32.32122 7.72694,41.0847 2.826929,4.90001 12.061564,10.45964 13.663491,14.70004 2.638469,7.06732 0.659617,16.96157 -3.580777,28.26929 l 7.726936,0 c 0,0 10.36541,-23.93467 8.00964,-31.37892 z"
     inkscape:connector-curvature="0" />
  <path
     id="path43"
     d="m 102.32436,189.42447 c 1.13077,-3.48655 -0.65962,-5.08847 -5.088477,-5.37117 -3.203853,-0.0942 -6.878861,1.88462 -6.125013,5.37117 l 11.21349,0 z"
     inkscape:connector-curvature="0"
     style="fill:#6c6c6c;fill-rule:evenodd" />
  <path
     style="fill-rule:evenodd"
     id="path45"
     d="m 49.837704,140.80129 18.563501,0 c 2.073082,-19.41158 14.323108,-21.76736 25.442363,-15.73658 4.711549,2.54424 7.444252,9.04618 14.228882,12.43849 8.85771,2.92116 14.88849,5.08848 19.31734,-20.63658 1.31924,-7.63271 0.0942,-14.41734 -2.92116,-20.071198 l 0.0942,-0.09423 -0.47116,-0.659616 c -1.31923,-2.261544 -2.92116,-4.334625 -4.90001,-6.125014 l -1.31923,-1.696157 c 0.0942,-0.188462 0.18846,-0.376924 -0.2827,-0.753848 l -0.18846,-1.319233 c -0.18846,-2.073082 -6.4077,-4.051932 -6.6904,-4.240394 0.75385,-1.130772 1.41347,-1.978851 2.26155,-3.298084 -2.63847,-0.282693 -6.87887,0.188462 -9.80003,0.848078 l 1.69616,-3.486546 c -3.48654,0.09423 -7.350014,0.848079 -10.648098,1.696158 l 0.376924,-4.240394 c -5.182704,1.507696 -8.66925,3.392315 -11.401948,4.617318 l 0.188462,-4.994242 c -2.544236,-0.471155 -11.873102,5.653859 -14.51157,7.067323 0,-0.376924 0.94231,-2.92116 0.565386,-3.392315 -7.067323,2.638467 -9.611559,6.501937 -13.192336,11.59041 -0.565386,-1.319234 -1.036541,-4.240394 -1.88462,-5.748089 -3.392315,3.203853 -12.532719,29.682754 -13.663491,34.111614 -1.97885,8.95194 3.580777,17.3385 9.140405,24.12313 z"
     inkscape:connector-curvature="0" />
  <path
     style="fill-rule:evenodd"
     id="path47"
     d="m 73.112754,189.33024 -7.444247,0 c -0.471155,-15.17119 -3.486546,-48.0578 -8.292325,-63.04052 l 21.296199,-4.52309 c -4.90001,21.01351 -5.088472,44.38279 -5.559627,67.56361 z"
     inkscape:connector-curvature="0" />
  <path
     style="fill-rule:evenodd"
     id="path49"
     d="m 58.130029,189.33024 -7.444246,0 c -0.471155,-15.17119 -3.486546,-48.0578 -8.292326,-63.04052 l 17.903885,2.63846 -2.167313,60.40206 z"
     inkscape:connector-curvature="0" />
  <path
     id="path51"
     d="m 57.470413,189.42447 c -0.376924,-2.45001 -1.696158,-5.08847 -6.125014,-5.27694 -3.203853,-0.18846 -6.878861,1.88462 -6.125013,5.27694 l 12.250027,0 z"
     inkscape:connector-curvature="0"
     style="fill:#6c6c6c;fill-rule:evenodd" />
  <path
     id="path53"
     d="m 73.018523,189.42447 c -0.376924,-2.45001 -1.696157,-5.08847 -6.125013,-5.27694 -3.109622,-0.18846 -6.78463,1.88462 -6.125013,5.27694 l 12.250026,0 z"
     inkscape:connector-curvature="0"
     style="fill:#6c6c6c;fill-rule:evenodd" />
  <path
     style="fill-rule:evenodd"
     id="path55"
     d="m 127.29556,157.95132 c -9.42309,-7.25578 -3.86347,-23.18082 -1.97885,-34.30007 0,0 4.33463,-26.384673 -9.23463,-29.400064 -8.57502,-1.884619 -23.463515,-1.225002 -23.463515,11.025024 0,8.76348 0.282693,29.58853 6.878862,38.6347 3.675003,4.99424 14.040413,12.90964 15.642343,17.15004 2.63847,7.06732 -0.37693,16.96157 -4.61732,28.26929 l 7.72694,0 c -0.0942,0 11.30772,-23.93467 9.04617,-31.37892 z"
     inkscape:connector-curvature="0" />
  <path
     id="path57"
     d="m 118.34362,189.42447 c 1.13077,-3.48655 -0.65962,-5.08847 -5.08847,-5.37117 -3.20385,-0.0942 -6.87886,1.88462 -6.12501,5.37117 l 11.21348,0 z"
     inkscape:connector-curvature="0"
     style="fill:#6c6c6c;fill-rule:evenodd" />
  <path
     style="fill-rule:evenodd"
     id="path59"
     d="m 125.69364,13.212549 -0.0942,0 c -0.56539,1.319234 -1.5077,2.732699 -2.07309,4.146163 -1.79038,3.957701 -3.10962,7.72694 -3.29808,12.155796 0,0.659617 0.0942,2.355774 -0.0942,2.826929 -0.37692,-0.753848 -0.94231,-1.601927 -1.41346,-2.544236 l -1.22501,-2.638468 c -0.75385,1.130772 -1.31923,6.501938 -1.31923,8.198095 -0.0942,1.978851 0.28269,6.78463 1.03654,8.292326 l 0.0942,0.471155 c -1.88462,-0.94231 -2.63847,-3.015392 -3.9577,-4.051932 0,3.298084 0.28269,7.255785 0.84808,10.459638 0.28269,1.601926 0.56538,3.203853 1.03654,4.711548 l 1.31923,4.051932 -1.50769,-1.884619 c -0.2827,-0.282693 -1.22501,-1.790389 -1.5077,-1.978851 -0.0942,3.298084 1.69616,8.951943 2.92116,12.155796 0.47116,1.225002 1.03654,2.261543 1.5077,3.392315 l -1.41347,-1.130772 c -0.37692,-0.282693 -1.03654,-0.94231 -1.50769,-1.130771 -0.94231,6.501937 1.03654,14.040414 3.01539,20.636583 l -1.03654,9.140404 c 2.7327,-1.225003 8.10386,-1.601927 10.27117,-3.203853 1.88462,-1.319234 4.61732,-3.86347 5.37117,-6.030782 -0.84808,0.09423 -1.79039,0.376924 -2.54424,0.09423 0.18846,-0.376924 0.0942,-0.188462 0.37693,-0.471155 1.50769,-1.601927 3.76924,-5.276935 4.71155,-7.161554 1.31923,-2.450006 2.92116,-6.690399 2.73269,-9.988483 -0.47115,0 -1.97885,0.942309 -2.63846,1.03654 0.37692,-1.130771 1.03654,-2.261543 1.50769,-3.486546 0.47116,-1.225002 0.84808,-2.450005 1.225,-3.675008 0.94231,-3.392315 1.13078,-7.726939 1.31924,-8.386556 l 0,-3.957701 c -0.37693,0.09423 -1.88462,1.413465 -2.92116,1.790388 0.18846,-0.848078 0.47115,-1.696157 0.65961,-2.544236 0.84808,-4.240394 1.03655,-9.894252 0.37693,-14.134646 -0.47116,-2.92116 -0.94231,-3.298084 -1.31923,-4.90001 -0.47116,0.282693 -1.69616,2.450005 -2.35578,2.732698 -0.65962,-5.653859 -2.45,-13.286567 -4.90001,-18.37504 -0.47115,-0.94231 -0.84808,-1.601926 -1.41346,-2.450005 -0.94231,-1.507696 -1.03655,-1.319234 -1.79039,-2.167313 z"
     inkscape:connector-curvature="0" />
  <path
     style="fill-rule:evenodd"
     id="path61"
     d="m 19.778023,119.12816 c 0.471155,9.61156 7.915402,21.2962 18.186578,26.19621 0.565386,3.86347 2.167313,5.84232 10.082714,5.84232 7.821171,0 9.423098,-1.88462 10.082714,-5.65385 10.836562,-4.90002 18.563502,-16.86735 18.657733,-26.85583 3.486546,4.05193 7.72694,2.7327 8.009633,2.45 -2.355775,0.0942 -4.80578,-3.39231 -4.80578,-4.71155 1.978851,1.60193 4.523087,1.69616 4.900011,1.31924 0,0 -2.073082,-1.225 -2.92116,-2.07308 -3.392315,-3.86347 -1.507696,-1.31924 2.073081,-0.56539 -3.298084,-1.69616 -3.769239,-5.27693 -3.86347,-7.9154 l -19.788504,-5.65386 c -3.580777,-0.84808 -7.632709,-1.31923 -11.873103,-1.41346 -4.240394,-0.09423 -8.292325,0.28269 -11.873102,1.03654 l -19.788505,5.37116 c 0,2.7327 -0.282693,6.6904 -3.86347,8.57502 3.675008,-0.75385 5.465397,-3.29808 2.073082,0.56539 -0.848079,0.84808 -2.826929,2.07308 -2.92116,2.07308 -0.282693,0.28269 2.826929,0.28269 4.90001,-1.31924 0,1.31924 -2.450005,4.80578 -4.805779,4.71155 -0.471155,-0.0942 4.146162,1.41347 7.538477,-1.97885 z"
     inkscape:connector-curvature="0" />
  <path
     style="fill-rule:evenodd"
     id="path63"
     d="m 37.210753,101.31851 c -1.97885,-0.37692 -25.913517,-7.255786 -26.478903,-6.784631 -0.7538478,0.659617 6.219244,14.228881 7.255785,15.453881 0.282693,0.37692 1.413464,1.03654 2.638467,1.69616 l 16.584651,-10.36541 z"
     inkscape:connector-curvature="0" />
  <path
     id="path65"
     d="m 31.556895,102.26082 -1.036541,-0.28269 c -1.130771,-0.18847 -14.51157,-4.051936 -14.888493,-3.769243 -0.471155,0.376924 4.523086,10.742333 5.276934,10.082713 2.073081,-1.79039 6.407706,-4.80578 10.6481,-6.03078 z"
     inkscape:connector-curvature="0"
     style="fill:#fa8973;fill-rule:evenodd" />
  <path
     style="fill-rule:evenodd"
     id="path67"
     d="m 60.203111,100.56466 c 1.97885,-0.37692 25.913517,-7.255784 26.478903,-6.784629 0.753848,0.565386 -6.219244,14.228879 -7.255785,15.453879 -0.282693,0.37692 -1.413464,1.03654 -2.638467,1.69616 L 60.203111,100.56466 Z"
     inkscape:connector-curvature="0" />
  <path
     id="path69"
     d="m 65.856969,101.41274 1.036541,-0.28269 c 1.130772,-0.2827 14.51157,-4.051935 14.888494,-3.863473 0.471154,0.376924 -4.523087,10.836563 -5.276935,10.082713 -2.073081,-1.60193 -6.313475,-4.71155 -10.6481,-5.93655 z"
     inkscape:connector-curvature="0"
     style="fill:#fa8973;fill-rule:evenodd" />
  <path
     id="path71"
     d="m 56.622334,142.68591 c 12.438488,-5.55963 19.128887,-22.61544 13.286567,-30.53084 -3.769239,-5.08847 -12.344257,-8.10386 -21.861586,-0.94231 -9.234635,-7.44425 -17.43273,-4.80578 -21.2962,0.18846 -5.936551,7.72694 0.471155,25.2539 12.721182,31.19046 0.376924,4.33462 0.942309,6.50193 8.575018,6.50193 7.632709,-0.0942 8.198095,-2.26154 8.575019,-6.4077 z"
     inkscape:connector-curvature="0"
     style="fill:#6c6c6c;fill-rule:evenodd" />
  <path
     style="fill:#b2b2b2"
     inkscape:connector-curvature="0"
     d="m 78.106996,126.47818 -0.471155,0.0942 c -6.878861,-2.07308 -14.228877,1.03654 -17.903885,3.01539 l -0.848079,-0.28269 0.188462,-0.84808 c 3.486546,-1.97885 12.250027,-5.4654 18.751964,-3.10962 l 0.471155,0.65961 -0.188462,0.47116 z m 2.92116,6.31347 c -0.753848,0.56539 -2.355775,-1.79038 -9.234636,-2.45 -8.669249,-0.84808 -11.025023,1.69616 -11.401947,0.0942 l 0,-0.37692 0.376924,-0.2827 c 4.617317,-1.13077 13.475029,-1.69615 20.165428,1.88462 0.282693,0.2827 0.376924,0.94231 0.09423,1.13077 z m -7.538478,4.14617 -0.471155,0.0942 c -0.09423,0 -0.188462,-0.0942 -0.282693,-0.0942 -4.146163,-2.35578 -7.350016,-3.76924 -12.344257,-3.67501 -0.188462,0 -0.376924,-0.0942 -0.471155,-0.18846 -0.376924,-0.37693 -0.09423,-1.13077 0.471155,-1.13077 4.617317,0 9.234635,1.41346 13.098105,3.9577 0.09423,0.0942 0.282693,0.28269 0.282693,0.47115 0.09423,0.18846 0,0.37693 -0.09423,0.47116 l -0.188462,0.0942 z"
     id="path73" />
  <path
     style="fill:#b2b2b2"
     inkscape:connector-curvature="0"
     d="m 18.45879,126.47818 0.471155,0.0942 c 6.878861,-2.07308 14.228877,1.03654 17.903884,3.01539 l 0.848079,-0.28269 -0.188462,-0.84808 C 34.0069,126.47818 25.24342,122.99163 18.741483,125.34741 l -0.471155,0.65961 0.188462,0.47116 z m -2.92116,6.31347 c 0.753847,0.56539 2.355774,-1.79038 9.234635,-2.45 8.669249,-0.84808 11.025024,1.69616 11.401948,0.0942 l 0,-0.37692 -0.376924,-0.2827 c -4.617318,-1.13077 -13.475029,-1.69615 -20.165428,1.88462 -0.282693,0.2827 -0.376924,0.94231 -0.09423,1.13077 z m 7.538477,4.14617 0.471155,0.0942 c 0.09423,0 0.188462,-0.0942 0.282693,-0.0942 4.146163,-2.35578 7.350016,-3.76924 12.344258,-3.67501 0.188462,0 0.376924,-0.0942 0.471155,-0.18846 0.376923,-0.37693 0.09423,-1.13077 -0.471155,-1.13077 -4.617318,0 -9.234636,1.41346 -13.098106,3.9577 -0.188462,0.0942 -0.282693,0.28269 -0.282693,0.47115 -0.09423,0.18846 0,0.37693 0.09423,0.47116 l 0.188462,0.0942 z"
     id="path75" />
  <path
     inkscape:connector-curvature="0"
     d="m 48.047315,124.59356 c 0.471155,-0.84808 0.94231,-1.225 1.978851,-1.225 1.130771,0 1.97885,0.75384 1.97885,1.69615 0,1.69616 -1.97885,3.39232 -3.957701,5.08848 -1.97885,-1.69616 -3.957701,-3.39232 -3.957701,-5.08848 0,-0.94231 0.848079,-1.69615 1.978851,-1.69615 1.036541,0 1.507695,0.47115 1.97885,1.225 z"
     id="path77" />
  <g
     style="fill-rule:evenodd"
     id="g32"
     transform="matrix(0.94230973,0,0,0.94230973,-257.817,-477.06178)">
    <path
       style="fill:#00cbff"
       inkscape:connector-curvature="0"
       d="m 308.99,626.59 c -3.4,0.6 -5.2,2.5 -5.2,2.5 0,0 -0.1,4.6 5.8,6.3 5.9,1.7 11,-0.4 11,-0.4 0,0 0.9,-2.3 -0.2,-4.5 -0.7,-1.4 -2.2,-2.8 -5.3,-3.6 -2.4,-0.7 -4.4,-0.6 -6.1,-0.3 z"
       id="path79" />
    <path
       inkscape:connector-curvature="0"
       d="m 307.09,634.29 c 0.7,0.4 1.5,0.8 2.5,1 2.9,0.8 5.6,0.7 7.6,0.4 0.5,-1.1 0.9,-2.2 0.9,-3.5 0,-1.8 -0.9,-3.5 -1.8,-4.9 l -1.2,-0.3 c -2.4,-0.5 -4.4,-0.3 -6,0 -0.2,0.1 -0.3,0.1 -0.5,0.1 -1,1.4 -1.8,3.1 -1.8,5 0,0.9 0.1,1.5 0.3,2.2 z"
       id="path81" />
    <path
       style="fill:#ffffff"
       inkscape:connector-curvature="0"
       d="m 308.89,632.29 c 1.5,0 2.7,-1.2 2.7,-2.7 0,-1.5 -1.2,-2.7 -2.7,-2.7 -1.5,0 -2.7,1.2 -2.7,2.7 -0.1,1.5 1.2,2.7 2.7,2.7 z"
       id="path83" />
    <path
       inkscape:connector-curvature="0"
       d="m 309.09,626.29 c -3.4,0.7 -5.2,2.7 -5.2,2.7 0,0 0.1,1 0.3,1.5 5.5,-2.3 13.2,-2.1 16.5,4.2 0.2,-0.6 0.7,-2.5 -0.2,-4.3 -0.7,-1.4 -2.2,-3.1 -5.3,-3.8 -2.5,-0.7 -4.5,-0.6 -6.1,-0.3 z"
       id="path85" />
    <path
       style="fill:#00cbff"
       inkscape:connector-curvature="0"
       d="m 340.19,626.59 c 3.4,0.6 5.2,2.5 5.2,2.5 0,0 0.1,4.6 -5.7,6.3 -5.9,1.7 -11,-0.4 -11,-0.4 0,0 -0.9,-2.3 0.2,-4.5 0.7,-1.4 2.2,-2.8 5.3,-3.6 2.4,-0.7 4.4,-0.6 6,-0.3 z"
       id="path87" />
    <path
       inkscape:connector-curvature="0"
       d="m 342.19,634.29 c -0.7,0.4 -1.5,0.8 -2.5,1 -2.9,0.8 -5.6,0.7 -7.6,0.4 -0.5,-1.1 -0.9,-2.2 -0.9,-3.5 0,-1.8 0.8,-3.5 1.8,-4.9 0.3,-0.1 0.7,-0.2 1.2,-0.3 2.4,-0.5 4.4,-0.3 6,0 0.1,0.1 0.3,0.1 0.5,0.1 1,1.4 1.8,3.1 1.8,5 0,0.9 -0.1,1.5 -0.3,2.2 z"
       id="path89" />
    <path
       style="fill:#ffffff"
       inkscape:connector-curvature="0"
       d="m 340.49,632.29 c 1.5,0 2.8,-1.2 2.8,-2.7 0,-1.5 -1.2,-2.7 -2.8,-2.7 -1.5,0 -2.7,1.2 -2.7,2.7 0,1.5 1.2,2.7 2.7,2.7 z"
       id="path91" />
    <path
       inkscape:connector-curvature="0"
       d="m 340.19,626.49 c 3.4,0.6 5.2,2.6 5.2,2.6 0,0 -0.1,1 -0.3,1.5 -5.5,-2.3 -13.1,-2.1 -16.5,4.2 -0.2,-0.6 -0.7,-2.5 0.3,-4.3 0.7,-1.4 2.2,-2.9 5.3,-3.7 2.3,-0.7 4.4,-0.7 6,-0.3 z"
       id="path93" />
  </g>
  <path
     inkscape:connector-curvature="0"
     d="m 46.351158,122.42625 c -0.188462,0.18846 -0.471155,0.18846 -0.659617,0 -0.188462,-0.18846 -0.188462,-0.47116 0,-0.65962 0.282693,-0.28269 0.753848,-0.56539 1.130772,-0.75385 0.471154,-0.18846 0.848078,-0.28269 1.319233,-0.28269 0.471155,0 0.848079,0.0942 1.319234,0.28269 0.471155,0.18846 0.848079,0.37693 1.130772,0.75385 0.188461,0.18846 0.188461,0.47116 0,0.65962 -0.188462,0.18846 -0.471155,0.18846 -0.659617,0 -0.282693,-0.18846 -0.471155,-0.37693 -0.848079,-0.47116 -0.282693,-0.0942 -0.659617,-0.18846 -0.94231,-0.18846 -0.282693,0 -0.659617,0.0942 -0.942309,0.18846 -0.376924,0.0942 -0.565386,0.2827 -0.848079,0.47116 z"
     id="path95" />
  <rect
     width="1.2250026"
     height="4.3346248"
     x="47.387711"
     y="129.39937"
     id="rect97" />
  <g
     style="fill-rule:evenodd"
     id="g44"
     transform="matrix(0.94230973,0,0,0.94230973,-257.817,-477.06178)">
    <path
       inkscape:connector-curvature="0"
       d="m 324.59,644.29 c -4.1,2.2 -6.3,3.3 -9.4,2.7 4.6,9.9 -1.3,15.1 9.5,15.1 10.7,0 4.8,-5.2 9.5,-15.1 -3.2,0.7 -5.5,-0.4 -9.6,-2.7 z"
       id="path99" />
    <path
       style="fill:#ff0000"
       inkscape:connector-curvature="0"
       d="m 318.49,654.19 c 0.6,4.4 -0.3,6.6 6.1,6.6 6.4,0 5.5,-2.3 6.1,-6.8 -2.4,-1 -5.6,0 -6.1,2.4 -0.3,-2 -3.5,-2.8 -6.1,-2.2 z"
       id="path101" />
    <path
       style="fill:#ffffff"
       inkscape:connector-curvature="0"
       d="m 320.39,647.59 c -0.7,0.3 -1.3,0.5 -1.9,0.6 0.6,1.6 1.4,3.9 1.6,3.9 l 0.1,0 0.2,-4.5 z"
       id="path103" />
    <path
       style="fill:#ffffff"
       inkscape:connector-curvature="0"
       d="m 330.59,648.19 c -0.6,-0.1 -1.2,-0.3 -1.9,-0.6 l 0.3,4.5 c 0,0 0,0.1 0.1,0 0.2,0 1,-2.3 1.5,-3.9 z"
       id="path105" />
    <path
       inkscape:connector-curvature="0"
       d="m 331.49,621.99 c -2,0.8 -3.5,2 -3.2,2.7 0.3,0.7 2.1,0.5 4.2,-0.3 2,-0.8 3.5,-2 3.2,-2.7 -0.3,-0.7 -2.1,-0.6 -4.2,0.3 z"
       id="path107" />
    <path
       inkscape:connector-curvature="0"
       d="m 317.69,621.99 c 2,0.8 3.5,2 3.2,2.7 -0.3,0.7 -2.2,0.5 -4.2,-0.3 -2,-0.8 -3.5,-2 -3.2,-2.7 0.3,-0.7 2.2,-0.6 4.2,0.3 z"
       id="path109" />
  </g>
</svg>
