
<svg xmlns="http://www.w3.org/2000/svg" version="1.1" xmlns:xlink="http://www.w3.org/1999/xlink" preserveAspectRatio="none" x="0px" y="0px" width="59px" height="50px" viewBox="0 0 60 51">
<defs>
<g id="Layer0_0_FILL">
<path fill="#93A2AE" stroke="none" d="
M 9.8 11.4
L 5.9 11.4 5.9 17.3 0 17.3 0 21.2 5.9 21.2 5.9 27.1 9.8 27.1 9.8 21.2 15.7 21.2 15.7 17.3 9.8 17.3 9.8 11.4
M 42.35 2.25
Q 41.75 1.9 41.5 1.75 39.8 0.7 38.8 0.4 36.7 -0.25 33.05 0.2 29.65 0.6 27.35 2.55 25.05 4.5 24.35 7.65 23.5 11.15 24.55 16.35 24.8 17.2 24.55 17.75 22.95 20.7 25 23.25 26.05 24.55 27.15 27.3 27.7 28.25 27.8 28.4 28.55 29.1 28.75 30.25 28.85 30.8 28.85 32.35 29 34.95 26.65 36
L 22.4 37.9
Q 17.3 40.3 16.25 40.95 11.65 44 11.85 50
L 59.75 50
Q 59.75 45.2 56.95 42.4 54.7 40.05 49.65 38.1 46.25 36.65 44.65 35.8 42.45 34.7 42.75 32.55
L 42.8 30.45
Q 42.8 30.05 43.05 29.5
L 45.2 25
Q 45.5 24.4 45.9 24.1 47 23.05 47.4 21.2 47.75 19.35 47.1 18 46.85 17.3 47.05 16.7 48.15 11.65 47.65 8.55 46.8 3.6 42.35 2.25 Z"/>
</g>
</defs>

<g transform="matrix( 1, 0, 0, 1, 0,0) ">
<use xlink:href="#Layer0_0_FILL"/>
</g>
</svg>
