
<svg xmlns="http://www.w3.org/2000/svg" version="1.1" xmlns:xlink="http://www.w3.org/1999/xlink" preserveAspectRatio="none" x="0px" y="0px" width="384px" height="344px" viewBox="0 0 384 344">
<defs>
<linearGradient id="Gradient_1" gradientUnits="userSpaceOnUse" x1="231.3" y1="238.15" x2="-37" y2="238.15" spreadMethod="pad">
<stop  offset="0%" stop-color="#AB88B3"/>

<stop  offset="100%" stop-color="#86548F"/>
</linearGradient>

<linearGradient id="Gradient_2" gradientUnits="userSpaceOnUse" x1="232.575" y1="268.4" x2="-36.97500000000001" y2="268.4" spreadMethod="pad">
<stop  offset="0%" stop-color="#AB88B3"/>

<stop  offset="100%" stop-color="#86548F"/>
</linearGradient>

<linearGradient id="Gradient_3" gradientUnits="userSpaceOnUse" x1="197.25" y1="232.45" x2="197.25" y2="-43.55" spreadMethod="pad">
<stop  offset="0%" stop-color="#D3ADD1"/>

<stop  offset="100%" stop-color="#9C6B9E"/>
</linearGradient>

<linearGradient id="Gradient_4" gradientUnits="userSpaceOnUse" x1="45.85" y1="287.025" x2="45.85" y2="59.474999999999994" spreadMethod="pad">
<stop  offset="0%" stop-color="#9D6E9C"/>

<stop  offset="100%" stop-color="#7A477B"/>
</linearGradient>

<linearGradient id="Gradient_5" gradientUnits="userSpaceOnUse" x1="37.8" y1="76.6" x2="37.8" y2="282.20000000000005" spreadMethod="pad">
<stop  offset="0%" stop-color="#808BB2"/>

<stop  offset="100%" stop-color="#98A5C5"/>
</linearGradient>

<linearGradient id="Gradient_6" gradientUnits="userSpaceOnUse" x1="89.5" y1="273.375" x2="89.5" y2="-32.17500000000001" spreadMethod="pad">
<stop  offset="0%" stop-color="#D3ADD1"/>

<stop  offset="100%" stop-color="#9C6B9E"/>
</linearGradient>

<linearGradient id="Gradient_7" gradientUnits="userSpaceOnUse" x1="144.95" y1="-36.7375" x2="144.95" y2="251.6375" spreadMethod="pad">
<stop  offset="0%" stop-color="#643D59"/>

<stop  offset="100%" stop-color="#966B91"/>
</linearGradient>

<linearGradient id="Gradient_8" gradientUnits="userSpaceOnUse" x1="364.925" y1="197.1125" x2="366.47499999999997" y2="66.58749999999999" spreadMethod="pad">
<stop  offset="0%" stop-color="#86558F"/>

<stop  offset="100%" stop-color="#3C1934"/>
</linearGradient>

<linearGradient id="Gradient_9" gradientUnits="userSpaceOnUse" x1="221.6" y1="228.38750000000002" x2="221.6" y2="-43.587500000000006" spreadMethod="pad">
<stop  offset="0%" stop-color="#A574A3"/>

<stop  offset="100%" stop-color="#804C81"/>
</linearGradient>

<linearGradient id="Gradient_10" gradientUnits="userSpaceOnUse" x1="187.4625" y1="357.9375" x2="197.5375" y2="-269.5375" spreadMethod="pad">
<stop  offset="0%" stop-color="#86558F"/>

<stop  offset="100%" stop-color="#3C1934"/>
</linearGradient>

<linearGradient id="Gradient_11" gradientUnits="userSpaceOnUse" x1="356.1" y1="117.65" x2="356.1" y2="-50.75" spreadMethod="pad">
<stop  offset="0%" stop-color="#78507B"/>

<stop  offset="100%" stop-color="#5C3A5E"/>
</linearGradient>

<g id="Layer0_0_FILL">
<path fill="#3C1934" stroke="none" d="
M 0 263.55
L 0 285.95 231.9 231.65 231.95 231.65 231.95 231.7 275.75 256.6
Q 274.0248046875 255.1232421875 272.5 253.6 269.3650390625 250.49296875 267.2 247.4 263.5 242.15 261.45 234.8 260.45 230.8 259.9 228.85 259.5357421875 227.5748046875 259.15 226.4
L 231.3 209.7 215.7 213.3 215.55 213.35 0 263.55
M 384.95 318.8
L 384.95 301.9 285.45 242.15
Q 284.756640625 244.8896484375 284.3 247.95 284.20234375 248.8359375 284.1 249.75 283.655859375 253.8283203125 283.55 259.75 283.5556640625 260.4080078125 283.55 261.05
L 384.95 318.8
M 285.3 185.8
Q 283.9 188.1 284.1 190.2 284.3 192.35 286.15 193.7 288.15 195.15 292.85 196.1 292.8953125 196.1087890625 292.95 196.1 295.805078125 196.6626953125 302.3 197.45 306.977734375 198.0169921875 309.75 198.45 310.919921875 198.63984375 311.75 198.8 316.5 199.75 318.5 201.15 318.85 201.4 319.2 201.7 311.5 193.95 308.95 191.5 308.081640625 190.6974609375 307.2 189.9 300.78359375 184.093359375 294.05 178.9 291.1724609375 180.079296875 289.05 181.65 286.6998046875 183.4755859375 285.3 185.8
M 46.05 71.6
L 74.5 61.1 90.75 0 47.7 0
Q 28.75 44.5 0 112.2
L 0 176.8 38.25 80.25 43.4 78.35 46.05 71.6 Z"/>

<path fill="url(#Gradient_1)" stroke="none" d="
M 160.85 220.5
L 158.45 221.1 148.5 223.4 126.2 228.6 116.95 230.75 110.7 232.2 106.3 233.25 100.15 234.7 88.15 237.45 82.15 238.85 77.9 239.85 71.9 241.25 60.3 243.95 54.5 245.3 50.4 246.3 44.6 247.65 37.05 249.4 0 258.05 0 263.55 215.55 213.35 215.7 213.3 231.3 209.7 231 204.2 219.8 206.8 207.75 209.6 204.5 210.35 191.3 213.4 184.6 214.95 178.25 216.45 161.2 220.45 160.85 220.5 Z"/>

<path fill="#ADBBD4" stroke="none" d="
M 184.1 198.65
Q 183.9693359375 198.9697265625 183.8 199.3
L 183.55 199.85
Q 179.6 208 178.25 216.45
L 178.25 216.45 184.6 214.95 184.1 198.65
M 168.05 190.65
Q 167.7275390625 189.424609375 167.45 188.25
L 167.45 211.35
Q 168.81796875 209.5314453125 169.85 206.55 170.7 200.15 169 193.75 168.45 192.15 168.05 190.65
M 168.5 128.55
Q 167.996875 127.436328125 167.5 126.5
L 167.5 144.9
Q 167.78984375 144.296484375 168.05 143.65
L 168.05 128.85 168.5 128.55
M 177.75 0
L 174 0 175.5 77.35
Q 175.68046875 77.4732421875 175.8 77.55
L 175.3 51.9 179.3 49.1 177.75 0
M 171.35 0
L 167.65 0 167.55 72.4
Q 167.8580078125 72.5134765625 168.1 72.6
L 168.15 57 171.95 54.35 171.35 0
M 189.15 0
L 185.25 0
Q 186.45 21.55 187.7 43.15
L 191.8 40.2 194.35 77.6
Q 194.4640625 77.6453125 194.55 77.65 191.830078125 38.5642578125 189.15 0
M 196 0
L 192 0 195 37.9 198.8 35.2 203 81.05
Q 203.2349609375 81.1716796875 203.45 81.3
L 196 0
M 209.6 191.4
Q 209.6 191.65 209.45 192.05
L 209.35 192.6
Q 209.7 192.1 209.85 191.8
L 209.6 191.4 Z"/>

<path fill="url(#Gradient_2)" stroke="none" d="
M 231.9 231.65
L 231.95 231.7 231.95 231.65 231.9 231.65
M 0 285.95
L 0 296.85 232.55 244.25 231.9 231.65 0 285.95 Z"/>

<path fill="url(#Gradient_3)" stroke="none" d="
M 204.6 208.75
L 204.5 210.35 207.75 209.6
Q 206.215234375 209.1025390625 204.6 208.75
M 188.1 192.55
L 185.45 191.05
Q 185.55 194.45 185.15 196.05 184.8591796875 197.1298828125 184.1 198.65
L 184.6 214.95 191.3 213.4
Q 191.3046875 213.1361328125 191.35 213 191.5 211 191.45 209.2 191.4 206.8 191.05 203.5
L 190.7 201.2 190.2 199.85
Q 188.8 195.95 188.1 192.55
M 163.7 115.9
Q 163.7 114.5 163.25 112.6 163 111.4 162.35 108.95 161.2 104.7 160.9 102.55 160.4 98.95 161.2 96.25 161.6 94.75 162.25 93.15 161.9 92.1 161.45 91.05 161 90.4 159.3 86.95 158.65 85.6 158.15 84.75
L 157.25 83.55 157.15 83.45 157.15 83.4 154.6 84.75 148.5 223.4 158.45 221.1
Q 158.394140625 218.871484375 159.5 217 160.9 214.65 163.4 214.25 164.25 214.1 165.25 213.5 166.44453125 212.7533203125 167.45 211.35
L 167.45 188.25
Q 167.32421875 187.5890625 167.2 186.95 166.05 180.9 166.9 175.85 167.05 174.85 167.2 174.4 167.3 173.65 167.3 172.55 167.3 171.95 167.35 171.45 167.35 170.75 167.45 170.3 167.4 170.1 167.4 170 167 167.45 166.5 165.3 166.15 163.95 165.75 162.5
L 165 159.95
Q 163.3 153.15 166.05 147.9 166.83359375 146.419921875 167.5 144.9
L 167.5 126.5
Q 166.877734375 125.2166015625 166.3 124.35 165 122.35 164.55 121.05 163.8 119 163.7 115.9
M 212.1 125.4
Q 211.05 126.8 210.15 128.65
L 210.15 128.75
Q 210 128.95 209.9 129.2 212.99453125 128.4609375 218.05 127.2
L 216.7 116.7
Q 215.61328125 121.364453125 213.35 124.35 213.1 124.65 212.55 125.1
L 212.1 125.4
M 165.45 72.3
Q 166.545703125 72.12890625 167.55 72.4
L 167.65 0 158.4 0 154.95 77.6
Q 155.096484375 77.5828125 155.25 77.55 156.05 77.3 156.35 77.1 160.15 74.6 161.8 73.7 164 72.5 165.45 72.3
M 179.3 49.1
L 179.5 48.95 180.4 76.85 180.45 76.85
Q 182.05 76.7 184.85 76.65 187.2306640625 76.5896484375 189.55 76.8
L 187.65 43.15 187.7 43.15
Q 186.45 21.55 185.25 0
L 177.75 0 179.3 49.1
M 174 0
L 171.35 0 171.95 54.35 172.35 54.05 172.55 75.55
Q 173.0361328125 75.8607421875 173.75 76.3 174.7953125 76.8841796875 175.5 77.35
L 174 0
M 201.9 0
L 196 0 203.45 81.3
Q 204.1654296875 81.71875 204.95 82.2 206.4 83.1 207.15 83.65 208.3 84.45 209.2 85.35
L 209.45 85.35
Q 211.03203125 84.2666015625 212.5 83.5
L 201.9 0
M 192 0
L 189.15 0
Q 191.830078125 38.5642578125 194.55 77.65 196.4578125 78.108984375 197.9 78.6
L 194.7 38.1 195 37.9 192 0 Z"/>

<path fill="#664160" stroke="none" d="
M 257.75 222.7
Q 256.938671875 220.8970703125 255.85 219.1
L 242.9 211.35 231 204.2 231.3 209.7 259.15 226.4
Q 258.4810546875 224.3845703125 257.75 222.7
M 341.35 270.45
L 329.25 263.15 307.5 250.1 297.3 244 290.45 239.85 286.85 237.7
Q 286.05625 239.8197265625 285.45 242.15
L 384.95 301.9 384.95 296.6 364.1 284.1 350.55 275.95 341.35 270.45 Z"/>

<path fill="#B9C7DE" stroke="none" d="
M 293.2 227.8
Q 295.236328125 235.8572265625 297.3 244
L 307.5 250.1
Q 303.658984375 235.874609375 299.9 221.95 296.158203125 224.515625 293.2 227.8
M 286.85 237.7
L 290.45 239.85
Q 289.687109375 236.744140625 288.9 233.6 287.8994140625 235.3546875 287 237.2
L 287.05 237.25
Q 286.9552734375 237.4857421875 286.85 237.7
M 350.55 275.95
L 364.1 284.1 323.25 167.5
Q 319.9470703125 169.3712890625 316 171.05 329.876171875 213.2220703125 345.15 259.5 347.8421875 267.6740234375 350.55 275.95
M 341.35 270.45
Q 339.6314453125 264.9505859375 337.9 259.5 329.458984375 232.92734375 321.35 207.4 320.755859375 209.0529296875 318.85 210.8 317.3380859375 212.178515625 314.4 213.95 321.1501953125 236.28203125 328.15 259.5 328.7009765625 261.333203125 329.25 263.15
L 341.35 270.45
M 307.2 189.9
Q 308.081640625 190.6974609375 308.95 191.5 311.5 193.95 319.2 201.7 319.45 201.90546875 319.65 202.1 315.0470703125 187.51015625 310.5 173.25 307.4037109375 174.41640625 303 175.85 305.0822265625 182.843359375 307.2 189.9
M 226.1 100.2
Q 226.0392578125 100.1779296875 225.95 100.15 227.9341796875 112.14921875 230 125 232.9095703125 124.7037109375 235.25 124.75 233.5572265625 115.11875 231.9 105.7 231.098828125 104.794921875 229.85 103.1
L 229 102.05
Q 227.65 100.65 226.1 100.2
M 213.35 0
L 209.65 0
Q 215.1001953125 33.4138671875 223.15 82.95 224.25546875 83.61328125 225.85 84.8 227.3556640625 86.1232421875 228.8 88.1 220.51171875 40.987890625 213.35 0
M 220.1 0
L 216.15 0
Q 225.176171875 49.3701171875 234.8 101.3
L 235.5 102.65
Q 235.6 102.85 235.6 103.1 235.58984375 104.1736328125 235.45 104.95 237.335546875 115.031640625 239.2 125.2 242.0296875 125.7068359375 245 126.35 243.0005859375 116.16015625 241 106.1 230 50.8 220.1 0
M 232.7 0
L 228.25 0
Q 240.35 54.4 254.2 115.7 255.74765625 122.55 257.3 129.45 260.650390625 130.423828125 264.15 131.5 262.9029296875 126.2580078125 261.65 121.05 246.05 56.4 232.7 0
M 240.65 0
L 236 0
Q 250.4 58.3 267.25 125.1 268.255859375 129.1076171875 269.25 133.15 270.179296875 133.4431640625 271.1 133.75 273.4328125 134.5046875 276.7 135.6 276.1021484375 133.3525390625 275.5 131.1 256.65 60.7 240.65 0
M 255.85 0
L 250.55 0
Q 269.6451171875 64.482421875 292.5 140.95 296.4876953125 142.2072265625 299.55 143.05 300.3271484375 143.2626953125 301.1 143.45 276.709375 66.3796875 255.85 0
M 265.3 0
L 259.8 0
Q 280.88125 64.4130859375 307.35 144.9 311.8068359375 145.765234375 315.75 146.05
L 292 78.4
Q 276.8 33.65 265.3 0 Z"/>

<path fill="#401C39" stroke="none" d="
M 293.2 227.8
Q 290.80234375 230.478125 288.9 233.6 289.687109375 236.744140625 290.45 239.85
L 297.3 244
Q 295.236328125 235.8572265625 293.2 227.8
M 384.95 345.4
L 384.95 329.15 232.6 244.25 232.55 244.25 0 296.85 0 345.4 384.95 345.4
M 329.25 263.15
Q 328.7009765625 261.333203125 328.15 259.5 321.1501953125 236.28203125 314.4 213.95 310.8029296875 216.16796875 305 219 302.293359375 220.3259765625 299.9 221.95 303.658984375 235.874609375 307.5 250.1
L 329.25 263.15
M 337.9 259.5
Q 339.6314453125 264.9505859375 341.35 270.45
L 350.55 275.95
Q 347.8421875 267.6740234375 345.15 259.5 329.876171875 213.2220703125 316 171.05 314.6833984375 171.6498046875 313.3 172.2 312.0701171875 172.6943359375 310.5 173.25 315.0470703125 187.51015625 319.65 202.1 322.38203125 204.6158203125 321.35 207.4 329.458984375 232.92734375 337.9 259.5
M 303 175.85
Q 300.1400390625 176.8255859375 296.75 177.9 295.35 178.35 294.05 178.9 300.78359375 184.093359375 307.2 189.9 305.0822265625 182.843359375 303 175.85
M 269.25 133.15
Q 268.255859375 129.1076171875 267.25 125.1
L 261.65 121.05
Q 262.9029296875 126.2580078125 264.15 131.5 266.6734375 132.2974609375 269.25 133.15
M 245 126.35
Q 250.8037109375 127.643359375 257.3 129.45 255.74765625 122.55 254.2 115.7
L 241 106.1
Q 243.0005859375 116.16015625 245 126.35
M 285.8 138.75
Q 285.99765625 138.8166015625 286.2 138.85
L 275.5 131.1
Q 276.1021484375 133.3525390625 276.7 135.6 280.5912109375 136.932421875 285.8 138.75
M 232.8 106.55
Q 232.45546875 106.3068359375 231.9 105.7 233.5572265625 115.11875 235.25 124.75 236.9119140625 124.8205078125 238.3 125.05 238.7564453125 125.12890625 239.2 125.2 237.335546875 115.031640625 235.45 104.95 234.99296875 108.0251953125 232.8 106.55
M 259.8 0
L 256.15 0 306 144.6
Q 306.7060546875 144.769140625 307.35 144.9 280.88125 64.4130859375 259.8 0 Z"/>

<path fill="#B9C7DD" stroke="none" d="
M 55.65 201.95
L 55.8 201.25
Q 50.4513671875 223.385546875 44.6 247.65
L 50.4 246.3 61.5 198.15 55.65 201.95
M 124.7 156.65
L 119.1 160.3 110.7 232.2 116.95 230.75
Q 121.0689453125 191.386328125 124.7 156.65
M 88.55 180.35
L 82.8 184.1
Q 77.4994140625 211.8828125 71.9 241.25
L 77.9 239.85
Q 83.4810546875 208.790234375 88.7 179.75
L 88.55 180.35
M 115.1 162.9
L 109.45 166.6
Q 104.36171875 203.752734375 100.15 234.7
L 106.3 233.25 115.1 162.9
M 105.35 129.9
L 100.3 132.95
Q 91.1140625 186.4857421875 82.15 238.85
L 88.15 237.45
Q 93.408203125 204.703515625 98.35 173.95
L 92.65 177.65 97.35 150.25 102.6 147.1
Q 104 138.4 105.35 129.9
M 71.45 191.55
L 65.7 195.35 54.5 245.3 60.3 243.95 71.45 191.55
M 72.35 165.35
L 77.7 162.05 81.5 144.35 76.35 147.4 72.35 165.35
M 67.55 152.75
Q 65.40234375 161.6044921875 63.15 170.9
L 68.5 167.65 72.65 149.6 67.55 152.75
M 109.8 77.45
L 114.25 74.3
Q 119.05 44.3 123.5 16.8
L 119.7 19.75
Q 114.7 48.75 109.8 77.45
M 117 21.95
L 113.15 25
Q 107.844140625 52.7693359375 102.1 82.95
L 106.6 79.7 96.65 135.15 91.55 138.2
Q 89.9 146.9 88.2 155.75
L 93.55 152.55
Q 106.45 80.6 117 21.95
M 101.6 34.25
L 101.7 33.75 88.6 92.55 93.15 89.35 105.5 31.15 101.6 34.25
M 98.75 36.5
L 94.75 39.7
Q 93 46.95 91.1 55 90.3 58.1 89.55 61.3 85.5 78.1 80.65 98.15
L 85.25 94.95 85.3 94.9 85.3 94.95 98.75 36.5
M 107.9 19.7
L 107.95 19.65 107.95 19.7 112.1 0 109.2 0 104.1 23.1 107.9 19.7
M 107.15 0.05
L 104 1.3
Q 101.25 12.85 97.3 29.1
L 101.25 25.65 107.15 0.05
M 119.2 9.6
L 119.1 10.45
Q 120 5.15 120.95 0
L 117.95 0
Q 116.7 6.4 115.45 12.95
L 119.2 9.6
M 134.5 8
L 130.85 10.85
Q 126.75 40.65 123 68.1
L 115.3 123.9
Q 114.1 132.5 113 140.8
L 118.25 137.6 134.5 8
M 121.85 7.2
L 125.55 4
Q 125.85 2 126.2 0
L 123.1 0
Q 122.45 3.6 121.85 7.2
M 140.75 2.95
L 137.1 5.85 122 135.35 127.25 132.25 127.25 132.2
Q 128.1025390625 123.7763671875 128.95 115.7
L 123.95 118.7 130.5 62.75 134.8 59.7
Q 138.1 28.35 140.75 2.95 Z"/>

<path fill="#231F20" stroke="none" d="
M 160.85 220.5
L 161.2 220.45
Q 161.9892578125 218.503125 163.65 217.05 163.75 216.9 163.65 216.75 163.55 216.6 163.45 216.7 161.6171875 218.3494140625 160.85 220.5
M 211.75 193.6
L 209.85 191.8
Q 209.7 192.1 209.35 192.6
L 209.25 193.15
Q 208.65 196 208 198.05 207.8353515625 198.57109375 207.65 199.05 207.2216796875 200.430078125 206.75 201.7
L 206 203.5
Q 205.55 204.55 205.35 205.25 205.05 206.05 204.85 207.25
L 204.6 208.75
Q 206.215234375 209.1025390625 207.75 209.6
L 219.8 206.8
Q 218.573828125 204.546875 217.75 201.65 217.55 200.9 217.45 200.5 216.75 197.15 216.9 194.05 215.75 194.35 214.75 194.4 214.4 194.4 214.1 194.35 214 194.35 213.95 194.35 213.88046875 194.34140625 213.8 194.3 212.6921875 194.165234375 211.75 193.6
M 189.05 144.05
Q 189.85 144 191.3 143.7 190.1 143.8 188.9 143.85 185.85 143.9 183.15 143.35 186.55 144.25 189.05 144.05 Z"/>

<path fill="url(#Gradient_4)" stroke="none" d="
M 43.4 78.35
L 38.25 80.25 0 176.8 0 199.1 0.85 196.9 8.25 194.45 4.65 204.1
Q 2.05 204.95 0 205.65
L 0 208.15 3.65 206.9 0 216.85 0 233.4 0.4 232.25 8.65 229.65 4.65 241.45 0 242.9 0 245.9 3.5 244.8 0 255.2 0 258.05 37.05 249.4 84.5 63.2 43.4 78.35
M 52.15 86.15
L 57.65 84.15 55.95 89.3 50.3 91.35 52.15 86.15
M 47.85 98.2
L 49.55 93.4 49.75 92.8 51.7 92.1 51.75 92.1 55.45 90.75 53.65 96.1 47.85 98.2
M 41.95 89.85
L 47.45 87.85 45.55 93.05 39.95 95.1 41.95 89.85
M 45 94.55
L 44.25 96.6 43 99.95 37.25 102.05 37.9 100.4 39.4 96.6
Q 41.75 95.7 45 94.55
M 58.55 94.35
L 60.25 89 66 86.95 64.35 92.25
Q 60.5 93.65 58.55 94.35
M 71.25 83.75
L 72.45 79.7 72.75 78.65 76.45 77.35 76.45 77.3 78.4 76.6 77 81.65 71.25 83.75
M 68 80.4
L 67.25 82.8 67.15 83.1 67.15 83.25 66.45 85.5 60.75 87.55 61.1 86.5 62.4 82.4 68 80.4
M 67.25 97.5
L 68.9 91.95 74.75 89.85 73.25 95.4 67.25 97.5
M 63.55 95
L 63.55 95.05 62.2 99.35 56.25 101.45 57.05 99 58.05 95.85 63.9 93.75 63.55 95
M 75.2 88.35
L 73.1 89.1 73 89.15 69.3 90.45 70.85 85.2 76.65 83.1 75.6 86.85 75.2 88.35
M 62.35 114.45
L 68.7 112.2 66.95 118.6 60.5 120.9 62.35 114.45
M 65.1 104.95
L 66.8 99.1 72.85 96.95 71.25 102.75 65.1 104.95
M 69.15 110.5
Q 66.4 111.45 62.85 112.75
L 64.65 106.6 70.8 104.4 69.15 110.5
M 51.55 102.4
L 51.25 103.25 48.75 104.15 48.65 104.2 45.35 105.35 47.3 99.75 53.15 97.65 51.55 102.4
M 53.85 108.95
L 55.75 103.05 61.7 100.95 59.95 106.8 53.85 108.95
M 53.3 110.65
L 59.45 108.45 57.55 114.6 51.3 116.8 53.3 110.65
M 48.15 112.45
L 46.05 118.65 39.85 120.85 42.05 114.6 48.15 112.45
M 50.75 118.55
Q 56.5 116.5 57.05 116.3
L 55.05 122.8 48.65 125.05 50.75 118.55
M 42.65 112.95
L 44.75 107 50.7 104.85 48.7 110.75 42.65 112.95
M 57.4 131.45
L 60.35 130.45 60.4 130.4 64.1 129.15 62.15 136.25 55.35 138.6 57.15 132.4 57.4 131.45
M 54.45 124.65
L 52.4 131.45 45.85 133.75 48.05 126.9 54.45 124.65
M 49 142.65
L 48.5 144.25 46.65 150.2 39.75 152.55 41.1 148.45 42.25 144.95 49 142.65
M 49.6 140.55
L 42.9 142.9 43.6 140.7 45.2 135.7 51.8 133.4 50.95 136.2 49.6 140.55
M 55.1 140.5
L 55.05 140.55 61.6 138.3 60.55 142.2 59.55 145.8 52.55 148.2 52.95 146.9 54.75 140.65 55.1 140.5
M 59.95 122.75
L 66.45 120.45 64.6 127.2 58 129.5 59.95 122.75
M 45.45 120.4
L 43.25 126.95
Q 40.45 127.95 36.9 129.15 37.7 126.95 39.2 122.6
L 45.45 120.4
M 33.85 110.9
L 39.75 108.8 37.55 114.75 31.6 116.85 32.65 114.05 33.85 110.9
M 34.5 109.25
L 36.7 103.55
Q 40.5 102.2 42.45 101.5
L 40.35 107.15 34.5 109.25
M 36.95 116.45
L 34.65 122.7 28.5 124.85 30.9 118.55 36.95 116.45
M 34 124.45
L 31.55 131 25.3 133.25 27.85 126.6 34 124.45
M 21.15 144.05
L 27.6 141.8 24.9 149.05 18.3 151.35 21.15 144.05
M 28.3 139.8
L 21.9 142.05 24.55 135.1 30.9 132.9 28.3 139.8
M 39.65 137.6
L 37.3 144.55 37.2 144.85 36.3 145.15 30.55 147.15 33.1 139.9 39.65 137.6
M 33.8 137.95
L 36.25 131 42.6 128.8 40.3 135.65 33.8 137.95
M 34.8 152
L 33.95 154.55 27.1 156.9 27.35 156.2 29.8 149.25 36.5 146.95 34.8 152
M 38.65 156.05
L 39.05 154.75 41.55 153.9 46 152.4 43.55 160.4 36.45 162.8 38.65 156.05
M 33.2 156.75
L 32 160.3 30.45 164.85 23.45 167.2 24.4 164.45 24.45 164.45 26.3 159.1 33.2 156.75
M 24.15 151.15
L 23.45 153.05 23.5 153 21.3 158.85 14.55 161.15 15.9 157.6 15.95 157.6 17.5 153.45 24.15 151.15
M 22.6 169.5
L 29.7 167.1 26.8 175.7 19.55 178.15 22.6 169.5
M 13.45 164
L 13.7 163.4 15.9 162.65 20.5 161.05 17.75 168.65 17.75 168.6 17.7 168.65 17.5 169.2 15.7 169.85 15.8 169.8 10.55 171.6 13.5 164 13.45 164
M 6.35 182.55
L 9.65 173.9 16.65 171.55 13.5 180.15 6.35 182.55
M 9.2 191.75
L 1.85 194.2 5.4 185 12.55 182.6 9.2 191.75
M 15.45 189.7
L 18.7 180.55 26 178.15 22.9 187.2 15.45 189.7
M 39.55 173.65
L 36.75 182.65 29.25 185.15 32.2 176.1 39.55 173.65
M 26.55 193.45
L 28.4 187.75 36 185.25 34.85 189 33.05 194.85 25.3 197.35 26.55 193.45
M 22.05 189.85
L 19.7 196.9 18.8 199.5 11.15 202 11.3 201.7 11.2 201.7 14.55 192.35 22.05 189.85
M 32.95 173.65
L 35.7 165.1 42.85 162.7 40.25 171.2 32.95 173.65
M 49.6 158.35
L 51.95 150.4 58.95 147.95 56.8 155.95 49.6 158.35
M 46.5 169.15
L 48.95 160.65 56.2 158.2 53.9 166.65 46.5 169.15
M 45.8 171.55
L 53.25 169.05 50.8 178 43.2 180.55 45.8 171.55
M 50.1 180.6
L 50.05 180.8 47.5 190.1 39.65 192.7 41.8 185.25 42.4 183.15 50.1 180.6
M 38.85 195.45
L 46.75 192.9 44 203.05 35.9 205.65 38.85 195.45
M 31 222.6
L 39.4 219.9 36.2 231.6 27.6 234.3 31 222.6
M 29.1 207.8
L 21.1 210.4 24.4 200.15 32.2 197.6 29.1 207.8
M 31.9 219.5
L 35.05 208.55 43.2 205.95 40.25 216.8 31.9 219.5
M 28.2 210.75
L 24.85 221.7 16.6 224.3 20.15 213.35 28.2 210.75
M 10.15 204.8
L 17.85 202.3 14.4 212.55 6.5 215.15 10.15 204.8
M 5.45 218.1
L 13.4 215.5 9.7 226.55 1.55 229.1 5.45 218.1
M 10.75 242.55
L 19.3 239.9 15.5 252.4
Q 13.6 253 6.7 255.1
L 10.75 242.55
M 11.85 239.2
L 15.6 227.45 23.9 224.8 20.35 236.55 11.85 239.2
M 26.65 237.6
L 35.3 234.9 31.95 247.4 23 250.1 26.65 237.6 Z"/>

<path fill="url(#Gradient_5)" stroke="none" d="
M 35.3 234.9
L 26.65 237.6 23 250.1 31.95 247.4 35.3 234.9
M 15.6 227.45
L 11.85 239.2 20.35 236.55 23.9 224.8 15.6 227.45
M 19.3 239.9
L 10.75 242.55 6.7 255.1
Q 13.6 253 15.5 252.4
L 19.3 239.9
M 13.4 215.5
L 5.45 218.1 1.55 229.1 9.7 226.55 13.4 215.5
M 17.85 202.3
L 10.15 204.8 6.5 215.15 14.4 212.55 17.85 202.3
M 24.85 221.7
L 28.2 210.75 20.15 213.35 16.6 224.3 24.85 221.7
M 35.05 208.55
L 31.9 219.5 40.25 216.8 43.2 205.95 35.05 208.55
M 21.1 210.4
L 29.1 207.8 32.2 197.6 24.4 200.15 21.1 210.4
M 39.4 219.9
L 31 222.6 27.6 234.3 36.2 231.6 39.4 219.9
M 46.75 192.9
L 38.85 195.45 35.9 205.65 44 203.05 46.75 192.9
M 50.05 180.8
L 41.8 185.25 39.65 192.7 47.5 190.1 50.05 180.8
M 19.7 196.9
L 19.55 197.25 11.3 201.7 11.15 202 18.8 199.5 19.7 196.9
M 26.55 193.45
L 25.3 197.35 33.05 194.85 34.85 189 26.55 193.45
M 15.8 169.8
L 17.7 168.65 17.75 168.6 17.75 168.65 20.5 161.05 15.9 162.65 13.5 164 10.55 171.6 15.8 169.8
M 23.45 153.05
L 24.15 151.15 17.5 153.45 15.95 157.6 23.45 153.05
M 32.2 159.65
L 32 160.3 33.2 156.75 26.3 159.1 24.45 164.45 32.2 159.65
M 38.65 156.05
L 38.8 155.6 41.55 153.9 39.05 154.75 38.65 156.05
M 33.95 154.55
L 34.8 152 27.35 156.2 27.1 156.9 33.95 154.55
M 36.25 131
L 33.8 137.95 40.3 135.65 42.6 128.8 36.25 131
M 37.3 144.55
L 39.65 137.6 33.1 139.9 30.55 147.15 36.3 145.15 37.3 144.55
M 21.9 142.05
L 28.3 139.8 30.9 132.9 24.55 135.1 21.9 142.05
M 27.6 141.8
L 21.15 144.05 18.3 151.35 24.9 149.05 27.6 141.8
M 31.55 131
L 34 124.45 27.85 126.6 25.3 133.25 31.55 131
M 34.65 122.7
L 36.95 116.45 30.9 118.55 28.5 124.85 34.65 122.7
M 39.75 108.8
L 39.3 109.95 32.65 114.05 31.6 116.85 37.55 114.75 39.75 108.8
M 43.25 126.95
L 45.45 120.4 39.2 122.6
Q 37.7 126.95 36.9 129.15 40.45 127.95 43.25 126.95
M 66.45 120.45
L 59.95 122.75 58 129.5 64.6 127.2 66.45 120.45
M 54.75 140.75
L 54.75 140.65 52.95 146.9 60.55 142.2 61.6 138.3 55.05 140.55 54.75 140.75
M 50.95 136.2
L 51.8 133.4 45.2 135.7 43.6 140.7 50.95 136.2
M 48.5 144.25
L 41.1 148.45 39.75 152.55 46.65 150.2 48.5 144.25
M 52.4 131.45
L 54.45 124.65 48.05 126.9 45.85 133.75 52.4 131.45
M 60.35 130.45
L 57.4 131.45 57.15 132.4 60.35 130.45
M 44.75 107
L 42.65 112.95 48.7 110.75 50.7 104.85 44.75 107
M 57.05 116.3
Q 56.5 116.5 50.75 118.55
L 48.65 125.05 55.05 122.8 57.05 116.3
M 46.05 118.65
L 48.15 112.45 42.05 114.6 39.85 120.85 46.05 118.65
M 59.45 108.45
L 53.3 110.65 51.3 116.8 57.55 114.6 59.45 108.45
M 55.75 103.05
L 53.85 108.95 59.95 106.8 61.7 100.95 55.75 103.05
M 51.25 103.25
L 51.55 102.4 48.75 104.15 51.25 103.25
M 62.85 112.75
Q 66.4 111.45 69.15 110.5
L 70.8 104.4 64.65 106.6 62.85 112.75
M 66.8 99.1
L 65.1 104.95 71.25 102.75 72.85 96.95 66.8 99.1
M 68.7 112.2
L 62.35 114.45 60.5 120.9 66.95 118.6 68.7 112.2
M 75.35 87.7
L 73.1 89.1 75.2 88.35 75.6 86.85 75.35 87.7
M 57.05 99
L 56.25 101.45 62.2 99.35 63.55 95.05 57.05 99
M 68.9 91.95
L 67.25 97.5 73.25 95.4 74.75 89.85 68.9 91.95
M 67.25 82.8
L 68 80.4 62.4 82.4 61.1 86.5 67.25 82.8
M 76.45 77.35
L 72.75 78.65 72.45 79.7 76.45 77.35
M 44.25 96.6
L 45 94.55
Q 41.75 95.7 39.4 96.6
L 37.9 100.4 44.25 96.6
M 47.45 87.85
L 41.95 89.85 39.95 95.1 45.55 93.05 47.45 87.85
M 49.75 92.8
L 49.55 93.4 51.7 92.1 49.75 92.8
M 57.65 84.15
L 52.15 86.15 50.3 91.35 55.95 89.3 57.65 84.15
M 3.5 244.8
L 0 245.9 0 255.2 3.5 244.8
M 8.65 229.65
L 0.4 232.25 0 233.4 0 242.9 4.65 241.45 8.65 229.65
M 3.65 206.9
L 0 208.15 0 216.85 3.65 206.9 Z"/>

<path fill="#B7C5DF" stroke="none" d="
M 50.05 180.8
L 50.1 180.6 42.4 183.15 41.8 185.25 50.05 180.8
M 53.25 169.05
L 45.8 171.55 43.2 180.55 50.8 178 53.25 169.05
M 48.95 160.65
L 46.5 169.15 53.9 166.65 56.2 158.2 48.95 160.65
M 51.95 150.4
L 49.6 158.35 56.8 155.95 58.95 147.95 51.95 150.4
M 35.7 165.1
L 32.95 173.65 40.25 171.2 42.85 162.7 35.7 165.1
M 19.55 197.25
L 19.7 196.9 22.05 189.85 14.55 192.35 11.2 201.7 11.3 201.7 19.55 197.25
M 28.4 187.75
L 26.55 193.45 34.85 189 36 185.25 28.4 187.75
M 36.75 182.65
L 39.55 173.65 32.2 176.1 29.25 185.15 36.75 182.65
M 18.7 180.55
L 15.45 189.7 22.9 187.2 26 178.15 18.7 180.55
M 1.85 194.2
L 9.2 191.75 12.55 182.6 5.4 185 1.85 194.2
M 9.65 173.9
L 6.35 182.55 13.5 180.15 16.65 171.55 9.65 173.9
M 15.7 169.85
L 17.5 169.2 17.7 168.65 15.8 169.8 15.7 169.85
M 13.7 163.4
L 13.45 164 13.5 164 15.9 162.65 13.7 163.4
M 29.7 167.1
L 22.6 169.5 19.55 178.15 26.8 175.7 29.7 167.1
M 21.3 158.85
L 23.5 153 23.45 153.05 15.95 157.6 15.9 157.6 14.55 161.15 21.3 158.85
M 32 160.3
L 32.2 159.65 24.45 164.45 24.4 164.45 23.45 167.2 30.45 164.85 32 160.3
M 38.8 155.6
L 38.65 156.05 36.45 162.8 43.55 160.4 46 152.4 41.55 153.9 38.8 155.6
M 29.8 149.25
L 27.35 156.2 34.8 152 36.5 146.95 29.8 149.25
M 37.3 144.55
L 36.3 145.15 37.2 144.85 37.3 144.55
M 36.7 103.55
L 34.5 109.25 40.35 107.15 42.45 101.5
Q 40.5 102.2 36.7 103.55
M 39.3 109.95
L 39.75 108.8 33.85 110.9 32.65 114.05 39.3 109.95
M 52.95 146.9
L 52.55 148.2 59.55 145.8 60.55 142.2 52.95 146.9
M 54.75 140.65
L 54.75 140.75 55.05 140.55 55.1 140.5 54.75 140.65
M 42.9 142.9
L 49.6 140.55 50.95 136.2 43.6 140.7 42.9 142.9
M 48.5 144.25
L 49 142.65 42.25 144.95 41.1 148.45 48.5 144.25
M 60.4 130.4
L 60.35 130.45 57.15 132.4 55.35 138.6 62.15 136.25 64.1 129.15 60.4 130.4
M 48.65 104.2
L 48.75 104.15 51.55 102.4 53.15 97.65 47.3 99.75 45.35 105.35 48.65 104.2
M 73.1 89.1
L 75.35 87.7 75.6 86.85 76.65 83.1 70.85 85.2 69.3 90.45 73 89.15 73.1 89.1
M 63.55 95.05
L 63.55 95 63.9 93.75 58.05 95.85 57.05 99 63.55 95.05
M 66.45 85.5
L 67.15 83.25 67.15 83.1 67.25 82.8 61.1 86.5 60.75 87.55 66.45 85.5
M 72.45 79.7
L 71.25 83.75 77 81.65 78.4 76.6 76.45 77.3 76.45 77.35 72.45 79.7
M 60.25 89
L 58.55 94.35
Q 60.5 93.65 64.35 92.25
L 66 86.95 60.25 89
M 37.9 100.4
L 37.25 102.05 43 99.95 44.25 96.6 37.9 100.4
M 49.55 93.4
L 47.85 98.2 53.65 96.1 55.45 90.75 51.75 92.1 51.7 92.1 49.55 93.4
M 8.25 194.45
L 0.85 196.9 0 199.1 0 205.65
Q 2.05 204.95 4.65 204.1
L 8.25 194.45 Z"/>

<path fill="url(#Gradient_6)" stroke="none" d="
M 104 1.3
L 107.15 0.05 101.25 25.65 101.3 25.6 98.75 36.5 85.3 94.95 85.3 94.9 85.25 94.95 72.65 149.6 68.5 167.65 61.5 198.1 61.5 198.15 50.4 246.3 54.5 245.3 65.7 195.35 65.65 195.35 72.35 165.35 76.35 147.4 88.6 92.55 101.7 33.75 104.05 23.1 104.1 23.1 109.2 0 100.6 0 86.1 56.85 84.5 63.2 37.05 249.4 44.6 247.65
Q 50.4513671875 223.385546875 55.8 201.25
L 63.15 170.9
Q 65.40234375 161.6044921875 67.55 152.75
L 80.65 98.15
Q 85.5 78.1 89.55 61.3 90.3 58.1 91.1 55 93 46.95 94.75 39.7 96.1 34.15 97.3 29.1 101.25 12.85 104 1.3
M 117.95 0
L 112.1 0 107.95 19.7 107.95 19.65 107.9 19.7 105.55 31.1 105.5 31.15 93.15 89.35 93.2 89.3 81.5 144.3 81.5 144.35 77.7 162.05 71.45 191.55 60.3 243.95 71.9 241.25
Q 77.4994140625 211.8828125 82.8 184.1 85.55 169.7 88.2 155.75 89.9 146.9 91.55 138.2
L 102 83.45
Q 102.0478515625 83.1990234375 102.1 82.95 107.844140625 52.7693359375 113.15 25 114.3 18.9 115.45 12.95 116.7 6.4 117.95 0
M 121.85 7.2
Q 122.45 3.6 123.1 0
L 120.95 0
Q 120 5.15 119.1 10.45
L 117 21.95
Q 106.45 80.6 93.55 152.55
L 88.7 179.75
Q 83.4810546875 208.790234375 77.9 239.85
L 82.15 238.85
Q 91.1140625 186.4857421875 100.3 132.95
L 109.8 77.45
Q 114.7 48.75 119.7 19.75 120.75 13.5 121.85 7.2
M 130.85 10.85
L 131.05 9.25
Q 131.7 4.65 132.35 0
L 126.2 0
Q 125.85 2 125.55 4
L 123.5 16.75 123.5 16.8
Q 119.05 44.3 114.25 74.3
L 114.3 74.25 105.35 129.9
Q 104 138.4 102.6 147.1
L 102.65 147.05 98.35 173.9 98.35 173.95
Q 93.408203125 204.703515625 88.15 237.45
L 100.15 234.7
Q 104.36171875 203.752734375 109.45 166.6
L 113 140.8
Q 114.1 132.5 115.3 123.9
L 123 68.1
Q 126.75 40.65 130.85 10.85
M 137.1 5.85
L 137.8 0 135.55 0 134.55 7.95 134.5 8 118.25 137.6 115.1 162.9 106.3 233.25 110.7 232.2 119.1 160.3 122 135.35 137.1 5.85
M 140.75 2.9
L 140.75 2.95
Q 138.1 28.35 134.8 59.7
L 134.85 59.65 129 115.65 128.95 115.7
Q 128.1025390625 123.7763671875 127.25 132.2
L 127.25 132.25 124.7 156.6 124.7 156.65
Q 121.0689453125 191.386328125 116.95 230.75
L 126.2 228.6 145.35 0 141.05 0 140.75 2.9 Z"/>

<path fill="url(#Gradient_7)" stroke="none" d="
M 158.4 0
L 145.35 0 126.2 228.6 148.5 223.4 154.6 84.75 153.6 85.3
Q 152.45 85.95 151.95 86.05 150.9 86.35 150.15 85.75 149.95 85.6 149.9 85.3 149.8 85 150 84.75
L 150.9 83.3 150.95 83.25
Q 151.45 82.6 152.2 81 152.9 79.75 153.15 79.3 153.7 78.4 154.2 78 154.4732421875 77.7658203125 154.95 77.6
L 158.4 0 Z"/>

<path fill="#0F0E0F" stroke="none" d="
M 167.55 170.65
Q 167.50234375 170.60234375 167.5 170.5
L 167.5 170.65
Q 167.4916015625 170.6248046875 167.45 170.6 167.45 170.46640625 167.45 170.3 167.35 170.75 167.35 171.45 167.3 171.95 167.3 172.55 167.3 173.65 167.2 174.4 167.05 174.85 166.9 175.85 166.05 180.9 167.2 186.95 167.32421875 187.5890625 167.45 188.25 167.7275390625 189.424609375 168.05 190.65 168.45 192.15 169 193.75 170.7 200.15 169.85 206.55 168.81796875 209.5314453125 167.45 211.35 166.44453125 212.7533203125 165.25 213.5 164.25 214.1 163.4 214.25 160.9 214.65 159.5 217 158.394140625 218.871484375 158.45 221.1
L 160.85 220.5
Q 161.6171875 218.3494140625 163.45 216.7 163.55 216.6 163.65 216.75 163.75 216.9 163.65 217.05 161.9892578125 218.503125 161.2 220.45
L 178.25 216.45 178.25 216.45
Q 179.6 208 183.55 199.85
L 183.8 199.3
Q 183.9693359375 198.9697265625 184.1 198.65 184.8591796875 197.1298828125 185.15 196.05 185.55 194.45 185.45 191.05 184.634375 191.05 183.85 190.85 182.45859375 190.5890625 181.2 189.75 180.2130859375 189.118359375 177.65 186.55 176.989453125 185.8708984375 176.2 185.05 174.474609375 183.2361328125 173.3 181.95 173.18828125 181.80546875 173.05 181.65 172.25 180.8 171.6 179.95
L 171.35 179.65
Q 170 177.8 169.15 176.05 169.1 175.95 169.05 175.85
L 168.8 175.25
Q 167.85 173 167.55 170.65
M 208.75 139.35
Q 207.670703125 137.709765625 206.7 136.3 204.8 138.75 203.05 140.2
L 203 140.2
Q 202.9462890625 140.257421875 202.9 140.35 202.75 140.4 202.65 140.5
L 202.2 140.85
Q 200.6732421875 141.5486328125 199.05 142.1 197.5162109375 142.5880859375 195.9 142.95 194.628125 143.220703125 193.35 143.4 192.3322265625 143.5853515625 191.3 143.7 189.85 144 189.05 144.05 186.55 144.25 183.15 143.35 182.7453125 143.2763671875 182.35 143.2 181.13203125 142.9150390625 180 142.5 179.512890625 142.3208984375 179.05 142.1 178.0197265625 141.6833984375 177.1 141.15 176.9341796875 141.0513671875 176.75 140.95 174.740234375 139.6759765625 173.25 137.9 173.184375 137.805859375 173.1 137.7 171.95 136.2 170.9 134.1 170.75 134.05 170.65 134
L 170.65 135.3
Q 170.65 135.4 170.7 135.55
L 170.65 135.6
Q 169.7083984375 139.7232421875 168.05 143.65 167.78984375 144.296484375 167.5 144.9 166.83359375 146.419921875 166.05 147.9 163.3 153.15 165 159.95
L 165.75 162.5
Q 166.15 163.95 166.5 165.3 167 167.45 167.4 170 167.4 170.1 167.45 170.3 167.45 170.46640625 167.45 170.6 167.4916015625 170.6248046875 167.5 170.65
L 167.5 170.5
Q 167.50234375 170.60234375 167.55 170.65 167.85 173 168.8 175.25
L 169.05 175.85
Q 169.1 175.95 169.15 176.05 170 177.8 171.35 179.65
L 171.6 179.95
Q 172.25 180.8 173.05 181.65 173.18828125 181.80546875 173.3 181.95 174.474609375 183.2361328125 176.2 185.05 176.989453125 185.8708984375 177.65 186.55 180.2130859375 189.118359375 181.2 189.75 182.45859375 190.5890625 183.85 190.85 184.634375 191.05 185.45 191.05
L 188.1 192.55
Q 188.8 195.95 190.2 199.85
L 190.7 201.2 191.05 203.5
Q 191.4 206.8 191.45 209.2 191.5 211 191.35 213 191.3046875 213.1361328125 191.3 213.4
L 204.5 210.35 204.6 208.75 204.85 207.25
Q 205.05 206.05 205.35 205.25 205.55 204.55 206 203.5
L 206.75 201.7
Q 207.2216796875 200.430078125 207.65 199.05 207.8353515625 198.57109375 208 198.05 208.65 196 209.25 193.15
L 209.35 192.6 209.45 192.05
Q 209.6 191.65 209.6 191.4
L 209.85 191.8 211.75 193.6
Q 212.6921875 194.165234375 213.8 194.3 213.88046875 194.34140625 213.95 194.35 214 194.35 214.1 194.35 214.4 194.4 214.75 194.4 215.75 194.35 216.9 194.05 216.75 197.15 217.45 200.5 217.55 200.9 217.75 201.65 218.573828125 204.546875 219.8 206.8
L 231 204.2 242.9 211.35 243.55 209.85
Q 243.6705078125 209.5736328125 243.75 209.3 245.2818359375 205.6310546875 245.7 201.45 246.6 192.95 242.35 186
L 242.35 186.05 241.95 185.1
Q 241.35 183.7 240.75 182.6 240.0314453125 181.33203125 239 180.1 238.843359375 179.91640625 238.65 179.7
L 235.35 176.5 235 176.05
Q 234 174.95 233.3 173.6
L 232.85 172.8 232.2 171.15
Q 229.35 164.5 224.3 160.4
L 224.35 160.4 224.25 160.3 223.8 159.95 223.8 159.9 220.25 155.85
Q 217.15 152.15 211.55 143.55 210.07109375 141.29140625 208.75 139.35
M 168.55 72.8
Q 168.3439453125 72.696875 168.1 72.6 167.8580078125 72.5134765625 167.55 72.4 166.545703125 72.12890625 165.45 72.3 164 72.5 161.8 73.7 160.15 74.6 156.35 77.1 156.05 77.3 155.25 77.55 155.096484375 77.5828125 154.95 77.6 154.4732421875 77.7658203125 154.2 78 153.7 78.4 153.15 79.3 152.9 79.75 152.2 81 151.45 82.6 150.95 83.25
L 150.9 83.3 150 84.75
Q 149.8 85 149.9 85.3 149.95 85.6 150.15 85.75 150.9 86.35 151.95 86.05 152.45 85.95 153.6 85.3
L 154.6 84.75 157.15 83.4 157.15 83.45 157.25 83.55 158.15 84.75
Q 158.65 85.6 159.3 86.95 161 90.4 161.45 91.05 161.9 92.1 162.25 93.15 161.6 94.75 161.2 96.25 160.4 98.95 160.9 102.55 161.2 104.7 162.35 108.95 163 111.4 163.25 112.6 163.7 114.5 163.7 115.9 163.8 119 164.55 121.05 165 122.35 166.3 124.35 166.877734375 125.2166015625 167.5 126.5 167.996875 127.436328125 168.5 128.55 169.0052734375 129.7306640625 169.55 131.1 170.2 132.7 170.9 134.1 171.95 136.2 173.1 137.7 173.184375 137.805859375 173.25 137.9 174.740234375 139.6759765625 176.75 140.95 176.9341796875 141.0513671875 177.1 141.15 178.0197265625 141.6833984375 179.05 142.1 179.512890625 142.3208984375 180 142.5 181.13203125 142.9150390625 182.35 143.2 182.7453125 143.2763671875 183.15 143.35 185.85 143.9 188.9 143.85 190.1 143.8 191.3 143.7 192.3322265625 143.5853515625 193.35 143.4 194.628125 143.220703125 195.9 142.95 197.5162109375 142.5880859375 199.05 142.1 200.6732421875 141.5486328125 202.2 140.85
L 202.65 140.5
Q 202.75 140.4 202.9 140.35 202.9462890625 140.257421875 203 140.2
L 203.05 140.2
Q 204.8 138.75 206.7 136.3 207.3 135.4 207.95 134.45
L 208 134.35 208.05 134.15
Q 208.1490234375 133.8447265625 208.25 133.55 208.7078125 132.1515625 209 131.4 209.15 131 209.3 130.6
L 209.45 130.25
Q 209.65 129.7 209.9 129.2 210 128.95 210.15 128.75
L 210.15 128.65
Q 211.05 126.8 212.1 125.4
L 212.55 125.1
Q 213.1 124.65 213.35 124.35 215.61328125 121.364453125 216.7 116.7 216.759375 116.530859375 216.8 116.35
L 217.6 110.85
Q 217.7 109.7 217.8 108.4 217.875 107.687109375 217.95 107.1 217.975 106.9248046875 218 106.75
L 218.05 106.3
Q 218.2 104.95 218.3 104.55 219.55 102.65 219.85 102.3 220.65 101.2 220.95 100.95 221.4 100.55 222.5 100.15 223.35 99.85 224.15 99.85 224.6 99.85 225.05 99.95 225.4947265625 99.99453125 225.95 100.15 226.0392578125 100.1779296875 226.1 100.2 227.65 100.65 229 102.05
L 229.85 103.1
Q 231.098828125 104.794921875 231.9 105.7 232.45546875 106.3068359375 232.8 106.55 234.99296875 108.0251953125 235.45 104.95 235.58984375 104.1736328125 235.6 103.1 235.6 102.85 235.5 102.65
L 234.8 101.3 233.7 99.25
Q 232.5 96.75 232.5 95.5 232.5 94.4 232.2 93.75 230.5416015625 90.4603515625 228.8 88.1 227.3556640625 86.1232421875 225.85 84.8 224.25546875 83.61328125 223.15 82.95 222.8099609375 82.755078125 222.5 82.6
L 221.7 82.25
Q 221.1 82.35 217.75 81.85 215.3224609375 82.0796875 212.5 83.5 211.03203125 84.2666015625 209.45 85.35
L 209.2 85.35
Q 208.3 84.45 207.15 83.65 206.4 83.1 204.95 82.2 204.1654296875 81.71875 203.45 81.3 203.2349609375 81.1716796875 203 81.05 200.6 79.6544921875 199 79 198.4857421875 78.7921875 197.9 78.6 196.4578125 78.108984375 194.55 77.65 194.4640625 77.6453125 194.35 77.6 193.5373046875 77.43515625 192.6 77.25 191.0904296875 76.971875 189.55 76.8 187.2306640625 76.5896484375 184.85 76.65 182.05 76.7 180.45 76.85
L 180.4 76.85
Q 177.4388671875 77.1580078125 176.35 77.95
L 176.3 77.95
Q 176.0880859375 77.7755859375 175.8 77.55 175.68046875 77.4732421875 175.5 77.35 174.7953125 76.8841796875 173.75 76.3 173.0361328125 75.8607421875 172.55 75.55 172.2029296875 75.3078125 172 75.15 169.85 73.4 168.55 72.8 Z"/>

<path fill="#603A59" stroke="none" d="
M 384.95 329.15
L 384.95 318.8 283.55 261.05
Q 283.55 261.8734375 283.55 262.7 279.20234375 259.644921875 275.75 256.6
L 231.95 231.7 231.9 231.65 232.55 244.25 232.6 244.25 384.95 329.15 Z"/>

<path fill="#27001D" stroke="none" d="
M 346.85 135.8
Q 336.9 144.75 324.5 146.05 320.4837890625 146.4654296875 315.75 146.05 311.8068359375 145.765234375 307.35 144.9 306.7060546875 144.769140625 306 144.6 303.6296875 144.1208984375 301.1 143.45 300.3271484375 143.2626953125 299.55 143.05 296.4876953125 142.2072265625 292.5 140.95 289.6080078125 140.025390625 286.2 138.85 285.99765625 138.8166015625 285.8 138.75 280.5912109375 136.932421875 276.7 135.6 273.4328125 134.5046875 271.1 133.75 270.179296875 133.4431640625 269.25 133.15 266.6734375 132.2974609375 264.15 131.5 260.650390625 130.423828125 257.3 129.45 250.8037109375 127.643359375 245 126.35 242.0296875 125.7068359375 239.2 125.2 238.7564453125 125.12890625 238.3 125.05 236.9119140625 124.8205078125 235.25 124.75 232.9095703125 124.7037109375 230 125 225.21328125 125.48984375 218.9 127 218.469140625 127.1068359375 218.05 127.2 212.99453125 128.4609375 209.9 129.2 209.65 129.7 209.45 130.25
L 209.3 130.6
Q 209.15 131 209 131.4 208.7078125 132.1515625 208.25 133.55 208.1490234375 133.8447265625 208.05 134.15
L 208 134.35 207.95 134.45
Q 207.3 135.4 206.7 136.3 207.670703125 137.709765625 208.75 139.35 210.07109375 141.29140625 211.55 143.55 217.15 152.15 220.25 155.85
L 223.8 159.9 223.8 159.95 224.25 160.3 224.35 160.4 224.3 160.4
Q 229.35 164.5 232.2 171.15
L 232.85 172.8 233.3 173.6
Q 234 174.95 235 176.05
L 235.35 176.5 238.65 179.7
Q 238.843359375 179.91640625 239 180.1 240.0314453125 181.33203125 240.75 182.6 241.35 183.7 241.95 185.1
L 242.35 186.05 242.35 186
Q 246.6 192.95 245.7 201.45 245.2818359375 205.6310546875 243.75 209.3 243.6705078125 209.5736328125 243.55 209.85
L 242.9 211.35 255.85 219.1
Q 256.938671875 220.8970703125 257.75 222.7 258.4810546875 224.3845703125 259.15 226.4 259.5357421875 227.5748046875 259.9 228.85 260.45 230.8 261.45 234.8 263.5 242.15 267.2 247.4 269.3650390625 250.49296875 272.5 253.6 274.0248046875 255.1232421875 275.75 256.6 279.20234375 259.644921875 283.55 262.7 283.55 261.8734375 283.55 261.05 283.5556640625 260.4080078125 283.55 259.75 283.655859375 253.8283203125 284.1 249.75 284.20234375 248.8359375 284.3 247.95 284.756640625 244.8896484375 285.45 242.15 286.05625 239.8197265625 286.85 237.7 286.9552734375 237.4857421875 287.05 237.25
L 287 237.2
Q 287.8994140625 235.3546875 288.9 233.6 290.80234375 230.478125 293.2 227.8 296.158203125 224.515625 299.9 221.95 302.293359375 220.3259765625 305 219 310.8029296875 216.16796875 314.4 213.95 317.3380859375 212.178515625 318.85 210.8 320.755859375 209.0529296875 321.35 207.4 322.38203125 204.6158203125 319.65 202.1 319.45 201.90546875 319.2 201.7 318.85 201.4 318.5 201.15 316.5 199.75 311.75 198.8 310.919921875 198.63984375 309.75 198.45 306.977734375 198.0169921875 302.3 197.45 295.805078125 196.6626953125 292.95 196.1 292.8953125 196.1087890625 292.85 196.1 288.15 195.15 286.15 193.7 284.3 192.35 284.1 190.2 283.9 188.1 285.3 185.8 286.6998046875 183.4755859375 289.05 181.65 291.1724609375 180.079296875 294.05 178.9 295.35 178.35 296.75 177.9 300.1400390625 176.8255859375 303 175.85 307.4037109375 174.41640625 310.5 173.25 312.0701171875 172.6943359375 313.3 172.2 314.6833984375 171.6498046875 316 171.05 319.9470703125 169.3712890625 323.25 167.5 325.6154296875 166.170703125 327.65 164.75 341.75 154.9 346.85 135.8 Z"/>

<path fill="#412A37" stroke="none" d="
M 324.5 146.05
Q 336.9 144.75 346.85 135.8 341.75 154.9 327.65 164.75 325.6154296875 166.170703125 323.25 167.5
L 364.1 284.1 384.95 296.6 384.95 168.9 337.15 77.3 318.6 41.8 291 0 265.3 0
Q 276.8 33.65 292 78.4
L 315.75 146.05
Q 320.4837890625 146.4654296875 324.5 146.05 Z"/>

<path fill="#D6E1F3" stroke="none" d="
M 93.55 152.55
L 88.2 155.75
Q 85.55 169.7 82.8 184.1
L 88.55 180.35 88.7 179.75 93.55 152.55
M 118.25 137.6
L 113 140.8 109.45 166.6 115.1 162.9 118.25 137.6
M 102.65 147.05
L 102.6 147.1 97.35 150.25 92.65 177.65 98.35 173.95 98.35 173.9 102.65 147.05
M 127.25 132.25
L 122 135.35 119.1 160.3 124.7 156.65 124.7 156.6 127.25 132.25
M 68.5 167.65
L 63.15 170.9 55.8 201.25 55.65 201.95 61.5 198.15 61.5 198.1 68.5 167.65
M 77.7 162.05
L 72.35 165.35 65.65 195.35 65.7 195.35 71.45 191.55 77.7 162.05
M 114.25 74.3
L 109.8 77.45 100.3 132.95 105.35 129.9 114.3 74.25 114.25 74.3
M 67.55 152.75
L 72.65 149.6 85.25 94.95 80.65 98.15 67.55 152.75
M 134.8 59.7
L 130.5 62.75 123.95 118.7 128.95 115.7 129 115.65 134.85 59.65 134.8 59.7
M 106.6 79.7
L 102.1 82.95
Q 102.0478515625 83.1990234375 102 83.45
L 91.55 138.2 96.65 135.15 106.6 79.7
M 93.2 89.3
L 93.15 89.35 88.6 92.55 76.35 147.4 81.5 144.35 81.5 144.3 93.2 89.3
M 94.75 39.7
L 98.75 36.5 101.3 25.6 101.25 25.65 97.3 29.1
Q 96.1 34.15 94.75 39.7
M 107.9 19.7
L 104.1 23.1 104.05 23.1 101.7 33.75 101.6 34.25 105.5 31.15 105.55 31.1 107.9 19.7
M 119.1 10.45
L 119.2 9.6 115.45 12.95
Q 114.3 18.9 113.15 25
L 117 21.95 119.1 10.45
M 125.55 4
L 121.85 7.2
Q 120.75 13.5 119.7 19.75
L 123.5 16.8 123.5 16.75 125.55 4
M 135.55 0
L 132.35 0
Q 131.7 4.65 131.05 9.25
L 130.85 10.85 134.5 8 134.55 7.95 135.55 0
M 140.75 2.95
L 140.75 2.9 141.05 0 137.8 0 137.1 5.85 140.75 2.95 Z"/>

<path fill="#734274" stroke="none" d="
M 84.5 63.2
L 86.1 56.85 74.5 61.1 46.05 71.6 43.4 78.35 84.5 63.2 Z"/>

<path fill="url(#Gradient_8)" stroke="none" d="
M 353.55 69.15
L 337.15 77.3 384.95 168.9 384.95 100.5 375.1 82.5 353.55 69.15 Z"/>

<path fill="#966698" stroke="none" d="
M 286.2 138.85
Q 289.6080078125 140.025390625 292.5 140.95 269.6451171875 64.482421875 250.55 0
L 240.65 0
Q 256.65 60.7 275.5 131.1
L 286.2 138.85
M 216.15 0
L 213.35 0
Q 220.51171875 40.987890625 228.8 88.1 230.5416015625 90.4603515625 232.2 93.75 232.5 94.4 232.5 95.5 232.5 96.75 233.7 99.25
L 234.8 101.3
Q 225.176171875 49.3701171875 216.15 0
M 256.15 0
L 255.85 0
Q 276.709375 66.3796875 301.1 143.45 303.6296875 144.1208984375 306 144.6
L 256.15 0
M 228.25 0
L 220.1 0
Q 230 50.8 241 106.1
L 254.2 115.7
Q 240.35 54.4 228.25 0
M 236 0
L 232.7 0
Q 246.05 56.4 261.65 121.05
L 267.25 125.1
Q 250.4 58.3 236 0 Z"/>

<path fill="#E0EDF8" stroke="none" d="
M 168.5 128.55
L 168.05 128.85 168.05 143.65
Q 169.7083984375 139.7232421875 170.65 135.6
L 170.7 135.55
Q 170.65 135.4 170.65 135.3
L 170.65 134
Q 170.75 134.05 170.9 134.1 170.2 132.7 169.55 131.1 169.0052734375 129.7306640625 168.5 128.55
M 172.35 54.05
L 171.95 54.35 168.15 57 168.1 72.6
Q 168.3439453125 72.696875 168.55 72.8 169.85 73.4 172 75.15 172.2029296875 75.3078125 172.55 75.55
L 172.35 54.05
M 187.7 43.15
L 187.65 43.15 189.55 76.8
Q 191.0904296875 76.971875 192.6 77.25 193.5373046875 77.43515625 194.35 77.6
L 191.8 40.2 187.7 43.15
M 198.8 35.2
L 195 37.9 194.7 38.1 197.9 78.6
Q 198.4857421875 78.7921875 199 79 200.6 79.6544921875 203 81.05
L 198.8 35.2
M 179.5 48.95
L 179.3 49.1 175.3 51.9 175.8 77.55
Q 176.0880859375 77.7755859375 176.3 77.95
L 176.35 77.95
Q 177.4388671875 77.1580078125 180.4 76.85
L 179.5 48.95 Z"/>

<path fill="url(#Gradient_9)" stroke="none" d="
M 225.95 100.15
Q 225.4947265625 99.99453125 225.05 99.95 223.7 99.75 222.5 100.15 221.4 100.55 220.95 100.95 220.65 101.2 219.85 102.3 219.55 102.65 218.3 104.55 218.2 104.95 218.05 106.3
L 218 106.75
Q 217.975 106.9248046875 217.95 107.1 217.8875 107.6875 217.85 108.4 217.75 109.7 217.6 110.85
L 216.8 116.35
Q 216.759375 116.530859375 216.7 116.7
L 218.05 127.2
Q 218.469140625 127.1068359375 218.9 127 225.21328125 125.48984375 230 125 227.9341796875 112.14921875 225.95 100.15
M 217.75 81.85
Q 221.1 82.35 221.7 82.25
L 222.5 82.6
Q 222.8099609375 82.755078125 223.15 82.95 215.1001953125 33.4138671875 209.65 0
L 201.9 0 212.5 83.5
Q 215.3224609375 82.0796875 217.75 81.85
M 217.85 108.4
Q 217.8875 107.6875 217.95 107.1 217.875 107.687109375 217.8 108.4 217.7 109.7 217.6 110.85 217.75 109.7 217.85 108.4
M 225.05 99.95
Q 224.6 99.85 224.15 99.85 223.35 99.85 222.5 100.15 223.7 99.75 225.05 99.95 Z"/>

<path fill="url(#Gradient_10)" stroke="none" d="
M 47.7 0
L 0 0 0 112.2
Q 28.75 44.5 47.7 0
M 100.6 0
L 90.75 0 74.5 61.1 86.1 56.85 100.6 0
M 337.15 77.3
L 353.55 69.15 375.1 82.5 384.95 100.5 384.95 91.5 337.5 0 291 0 318.6 41.8 337.15 77.3
M 384.95 3.4
L 384.95 0 382.4 0 384.95 3.4 Z"/>

<path fill="url(#Gradient_11)" stroke="none" d="
M 342.6 0
L 337.5 0 384.95 91.5 384.95 79.4
Q 360.25 33.15 342.6 0
M 355.65 0
L 350.15 0 384.95 60.75 384.95 48.7 355.65 0
M 384.95 33.35
L 384.95 24.95 368.2 0 363.55 0 384.95 33.35 Z"/>

<path fill="#7D88AB" stroke="none" d="
M 350.15 0
L 342.6 0
Q 360.25 33.15 384.95 79.4
L 384.95 60.75 350.15 0
M 384.95 48.7
L 384.95 33.35 363.55 0 355.65 0 384.95 48.7 Z"/>

<path fill="#402537" stroke="none" d="
M 382.4 0
L 368.2 0 384.95 24.95 384.95 3.4 382.4 0 Z"/>
</g>

<path id="Layer0_0_1_STROKES" stroke="#3C1934" stroke-width="1" stroke-linejoin="round" stroke-linecap="round" fill="none" d="
M 175.825 77.575
Q 176.0880859375 77.7755859375 176.3 77.95
L 176.35 77.95
Q 177.4388671875 77.1580078125 180.4 76.85
L 180.45 76.85
Q 182.05 76.7 184.85 76.65 187.2306640625 76.5896484375 189.55 76.825
M 197.9 78.6
Q 198.4857421875 78.7921875 199 79 200.6 79.6544921875 203.025 81.05 203.2349609375 81.1716796875 203.45 81.3
M 168.125 72.625
Q 168.3439453125 72.696875 168.55 72.8 169.85 73.4 172 75.15 172.2029296875 75.3078125 172.575 75.55 173.0361328125 75.8607421875 173.75 76.3 174.7953125 76.8841796875 175.525 77.375
M 168.125 72.625
Q 167.8580078125 72.5134765625 167.575 72.425 166.545703125 72.12890625 165.45 72.3 164 72.5 161.8 73.7 160.15 74.6 156.35 77.1 156.05 77.3 155.25 77.55 155.096484375 77.5828125 154.95 77.625 154.4732421875 77.7658203125 154.2 78 153.7 78.4 153.15 79.3 152.9 79.75 152.2 81 151.45 82.6 150.95 83.25
L 150.9 83.3 150 84.75
Q 149.8 85 149.9 85.3 149.95 85.6 150.15 85.75 150.9 86.35 151.95 86.05 152.45 85.95 153.6 85.3
L 154.625 84.75 157.15 83.4 157.15 83.45 157.25 83.55
M 161.45 91.05
Q 161.9 92.1 162.25 93.15 161.6 94.75 161.2 96.25 160.4 98.95 160.9 102.55 161.2 104.7 162.35 108.95 163 111.4 163.25 112.6 163.7 114.5 163.7 115.9 163.8 119 164.55 121.05 165 122.35 166.3 124.35 166.877734375 125.2166015625 167.525 126.525 167.996875 127.436328125 168.5 128.575 169.0052734375 129.7306640625 169.55 131.1 170.2 132.7 170.9 134.1 171.95 136.2 173.1 137.7 173.184375 137.805859375 173.275 137.9 174.740234375 139.6759765625 176.775 140.95 176.9341796875 141.0513671875 177.1 141.15 178.0197265625 141.6833984375 179.05 142.125 179.512890625 142.3208984375 180 142.5 181.13203125 142.9150390625 182.35 143.2 182.7453125 143.2763671875 183.15 143.35 185.85 143.9 188.9 143.85 190.1 143.8 191.3 143.7 192.3322265625 143.5853515625 193.375 143.425 194.628125 143.220703125 195.9 142.95 197.5162109375 142.5880859375 199.05 142.1 200.6732421875 141.5486328125 202.2 140.85
L 202.65 140.5
Q 202.75 140.4 202.9 140.35 202.9462890625 140.257421875 203.025 140.2
L 203.05 140.2
Q 204.8 138.75 206.7 136.3 207.3 135.4 207.95 134.45
L 208 134.35 208.05 134.15
Q 208.1490234375 133.8447265625 208.25 133.575 208.7078125 132.1515625 209 131.4 209.15 131 209.3 130.6
L 209.45 130.25
Q 209.65 129.7 209.9 129.2 210 128.95 210.15 128.75
L 210.15 128.65
Q 211.05 126.8 212.1 125.4
L 212.55 125.1
Q 213.1 124.65 213.35 124.35 215.61328125 121.364453125 216.725 116.7 216.759375 116.530859375 216.8 116.35
L 217.6 110.85
M 217.95 107.125
Q 217.975 106.9248046875 218 106.75
L 218.05 106.3
Q 218.2 104.95 218.3 104.55 219.55 102.65 219.85 102.3 220.65 101.2 220.95 100.95 221.4 100.55 222.5 100.15
M 229.85 103.1
Q 231.098828125 104.794921875 231.9 105.7 232.45546875 106.3068359375 232.8 106.55 234.99296875 108.0251953125 235.475 104.95 235.58984375 104.1736328125 235.6 103.1 235.6 102.85 235.5 102.65
L 234.8 101.325 233.7 99.25
Q 232.5 96.75 232.5 95.5 232.5 94.4 232.2 93.75 230.5416015625 90.4603515625 228.8 88.1 227.3556640625 86.1232421875 225.85 84.8 224.25546875 83.61328125 223.175 82.975 222.8099609375 82.755078125 222.5 82.6
L 221.7 82.25
Q 221.1 82.35 217.75 81.85 215.3224609375 82.0796875 212.5 83.525 211.03203125 84.2666015625 209.45 85.35
L 209.2 85.35
Q 208.3 84.45 207.15 83.65 206.4 83.1 204.95 82.2 204.1654296875 81.71875 203.45 81.3
M 175.825 77.575
Q 175.68046875 77.4732421875 175.525 77.375
M 197.9 78.6
Q 196.4578125 78.108984375 194.55 77.675 194.4640625 77.6453125 194.375 77.625 193.5373046875 77.43515625 192.6 77.25 191.0904296875 76.971875 189.55 76.825
M 217.6 110.85
Q 217.75 109.7 217.85 108.4 217.8875 107.6875 217.95 107.125
M 242.925 211.35
L 243.55 209.85
Q 243.6705078125 209.5736328125 243.775 209.3 245.2818359375 205.6310546875 245.7 201.45 246.6 192.95 242.35 186
L 242.35 186.05 241.95 185.1
Q 241.35 183.7 240.75 182.6 240.0314453125 181.33203125 239.025 180.125 238.843359375 179.91640625 238.65 179.7
L 235.35 176.5 235 176.05
Q 234 174.95 233.3 173.6
L 232.85 172.8 232.2 171.15
Q 229.35 164.5 224.3 160.4
L 224.35 160.4 224.25 160.3 223.8 159.95 223.8 159.9 220.25 155.85
Q 217.15 152.15 211.55 143.55 210.07109375 141.29140625 208.775 139.375 207.670703125 137.709765625 206.7 136.3
M 222.5 100.15
Q 223.7 99.75 225.05 99.95
M 168.05 143.675
Q 169.7083984375 139.7232421875 170.65 135.6
L 170.7 135.55
Q 170.65 135.4 170.65 135.3
L 170.65 134
Q 170.75 134.05 170.9 134.1
M 167.5 144.925
Q 166.83359375 146.419921875 166.05 147.9 163.3 153.15 165 159.95
L 165.75 162.5
Q 166.15 163.95 166.5 165.3 167 167.45 167.4 170 167.4 170.1 167.45 170.3 167.45 170.46640625 167.475 170.6 167.4916015625 170.6248046875 167.5 170.65
L 167.5 170.5
Q 167.50234375 170.60234375 167.55 170.65 167.85 173 168.8 175.25
L 169.05 175.85
Q 169.1 175.95 169.15 176.05 170 177.8 171.35 179.65
L 171.6 179.95
Q 172.25 180.8 173.05 181.65 173.18828125 181.80546875 173.325 181.975 174.474609375 183.2361328125 176.2 185.05 176.989453125 185.8708984375 177.675 186.55 180.2130859375 189.118359375 181.2 189.75 182.45859375 190.5890625 183.875 190.875 184.634375 191.05 185.45 191.05
L 188.1 192.55
Q 188.8 195.95 190.2 199.85
L 190.7 201.2
M 191.05 203.5
Q 191.4 206.8 191.45 209.2 191.5 211 191.35 213 191.3046875 213.1361328125 191.3 213.425
M 204.525 210.35
L 204.6 208.75 204.85 207.25
Q 205.05 206.05 205.35 205.25 205.55 204.55 206 203.5
L 206.75 201.7
Q 207.2216796875 200.430078125 207.675 199.075 207.8353515625 198.57109375 208 198.05 208.65 196 209.25 193.15
L 209.35 192.6 209.45 192.05
Q 209.6 191.65 209.6 191.4
L 209.85 191.8 211.75 193.6
M 216.9 194.05
Q 216.75 197.15 217.45 200.5 217.55 200.9 217.75 201.65 218.573828125 204.546875 219.8 206.8
M 168.05 143.675
Q 167.78984375 144.296484375 167.5 144.925
M 167.45 170.3
Q 167.35 170.75 167.35 171.45 167.3 171.95 167.3 172.55 167.3 173.65 167.2 174.4 167.05 174.85 166.9 175.85 166.05 180.9 167.2 186.95 167.32421875 187.5890625 167.475 188.25 167.7275390625 189.424609375 168.05 190.65 168.45 192.15 169 193.75 170.7 200.15 169.85 206.55 168.81796875 209.5314453125 167.45 211.375 166.44453125 212.7533203125 165.25 213.5 164.25 214.1 163.4 214.25 160.9 214.65 159.5 217 158.394140625 218.871484375 158.475 221.1
M 178.25 216.45
Q 179.6 208 183.55 199.85
L 183.8 199.3
Q 183.9693359375 198.9697265625 184.125 198.65 184.8591796875 197.1298828125 185.15 196.05 185.55 194.45 185.45 191.05"/>

<path id="Layer0_0_2_STROKES" stroke="#231F20" stroke-width="1" stroke-linejoin="round" stroke-linecap="round" fill="none" d="
M 211.75 193.6
Q 212.6921875 194.165234375 213.8 194.325 213.88046875 194.34140625 213.95 194.35 214 194.35 214.1 194.35 214.4 194.4 214.75 194.4
M 209.85 191.8
Q 209.7 192.1 209.35 192.6
M 204.6 208.75
Q 206.215234375 209.1025390625 207.775 209.6"/>

<path id="Layer0_0_3_STROKES" stroke="#231F20" stroke-width="1" stroke-linejoin="round" stroke-linecap="round" fill="none" d="
M 160.85 220.525
Q 161.6171875 218.3494140625 163.45 216.7 163.55 216.6 163.65 216.75 163.75 216.9 163.65 217.05 161.9892578125 218.503125 161.225 220.45"/>
</defs>

<g transform="matrix( 1, 0, 0, 1, 0,0) ">
<use xlink:href="#Layer0_0_FILL"/>

<use xlink:href="#Layer0_0_1_STROKES"/>

<use xlink:href="#Layer0_0_2_STROKES"/>

<use xlink:href="#Layer0_0_3_STROKES"/>
</g>
</svg>
