
<svg xmlns="http://www.w3.org/2000/svg" version="1.1" xmlns:xlink="http://www.w3.org/1999/xlink" preserveAspectRatio="none" x="0px" y="0px" width="39px" height="50px" viewBox="0 0 40 51">
<defs>
<g id="Layer0_0_FILL">
<path fill="#93A2AE" stroke="none" d="
M 39 21.35
Q 39 16.55 34.2 16.55
L 34.1 16.55 34.1 14.9
Q 34.1 14.7 34.1 14.5 34.1 8.45 29.85 4.25 25.6 0 19.55 0 13.6 0 9.35 4.25 5.1 8.45 5.1 14.5 5.1 14.75 5.15 15.05
L 5.25 16.55 4.8 16.55
Q 0 16.55 0 21.35
L 0 45.25
Q 0 50 4.8 50
L 34.2 50
Q 39 50 39 45.25
L 39 21.35
M 29.5 14.9
L 29.5 16.55 9.8 16.55 9.65 14.75
Q 9.6 14.6 9.6 14.5 9.6 10.4 12.55 7.45 15.45 4.55 19.55 4.55 23.7 4.55 26.65 7.45 29.5 10.4 29.5 14.5 29.5 14.7 29.5 14.9
M 12.1 30.7
Q 13.3 31.8 13.3 33.45 13.3 35.1 12.1 36.3 11 37.45 9.35 37.45 7.7 37.45 6.5 36.3 5.35 35.1 5.35 33.45 5.35 31.8 6.5 30.7 7.7 29.5 9.35 29.5 11 29.5 12.1 30.7
M 16.25 36.3
Q 15.1 35.1 15.1 33.45 15.1 31.8 16.25 30.7 17.4 29.5 19.05 29.5 20.7 29.5 21.8 30.7 23.05 31.8 23.05 33.45 23.05 35.1 21.8 36.3 20.7 37.45 19.05 37.45 17.4 37.45 16.25 36.3
M 32.75 33.45
Q 32.75 35.1 31.55 36.3 30.45 37.45 28.8 37.45 27.1 37.45 25.95 36.3 24.8 35.1 24.8 33.45 24.8 31.8 25.95 30.7 27.1 29.5 28.8 29.5 30.45 29.5 31.55 30.7 32.75 31.8 32.75 33.45 Z"/>
</g>
</defs>

<g transform="matrix( 1, 0, 0, 1, 0,0) ">
<use xlink:href="#Layer0_0_FILL"/>
</g>
</svg>
