
<svg xmlns="http://www.w3.org/2000/svg" version="1.1" xmlns:xlink="http://www.w3.org/1999/xlink" preserveAspectRatio="none" x="0px" y="0px" width="37px" height="48px" viewBox="0 0 37 48">
<defs>
<g id="Layer0_0_FILL">
<path fill="#FFFFFF" stroke="none" d="
M 37.45 21.6
Q 37.45 19 36.45 17.8 35.45 16.55 32.8 15.95 33.15 9.1 29.55 4.95 25.35 0.1 18.9 0 13.75 -0.05 9.7 3.2 4.25 7.85 4.7 15.95 2.1 16.5 1.1 17.8 0.05 19.05 0.05 21.6 0.05 40.6 0 43 -0.05 45.2 1.4 46.6 2.85 48.15 5.3 48.1 18.65 47.95 32.1 48.1 34.6 48.15 36.1 46.6 37.55 45.15 37.5 42.85 37.45 40.5 37.45 21.6
M 27.35 9.85
Q 28.45 12.5 28 16.05
L 9.5 16.05
Q 8.7 9.3 13.2 6.3 18.2 2.85 23.65 5.85 26.25 7.25 27.35 9.85
M 10.35 28.75
Q 11.75 28.75 12.75 29.75 13.75 30.8 13.75 32.2 13.75 33.6 12.75 34.6 11.75 35.6 10.35 35.6 8.9 35.6 7.85 34.6 6.85 33.6 6.85 32.2 6.85 30.8 7.85 29.75 8.9 28.75 10.35 28.75
M 16.6 34.6
Q 15.6 33.6 15.6 32.2 15.6 30.8 16.6 29.75 17.65 28.75 19.1 28.75 20.5 28.75 21.5 29.75 22.5 30.8 22.5 32.2 22.5 33.6 21.5 34.6 20.5 35.6 19.1 35.6 17.65 35.6 16.6 34.6
M 27.85 28.75
Q 29.25 28.75 30.25 29.75 31.25 30.8 31.25 32.2 31.25 33.6 30.25 34.6 29.25 35.6 27.85 35.6 26.4 35.6 25.35 34.6 24.35 33.6 24.35 32.2 24.35 30.8 25.35 29.75 26.4 28.75 27.85 28.75 Z"/>
</g>
</defs>

<g transform="matrix( 1, 0, 0, 1, 0,0) ">
<use xlink:href="#Layer0_0_FILL"/>
</g>
</svg>
