
<svg xmlns="http://www.w3.org/2000/svg" version="1.1" xmlns:xlink="http://www.w3.org/1999/xlink" preserveAspectRatio="none" x="0px" y="0px" width="35px" height="45px" viewBox="0 0 35 45">
<defs>
<g id="Layer0_0_FILL">
<path fill="#FFFFFF" stroke="none" d="
M 29.75 17.7
L 29.75 13.15
Q 29.65 10.3 29.4 9.3 28.4 4.9 24.75 2.25 21.1 -0.35 16.5 0.05 12.2 0.45 9.1 3.45 6 6.55 5.65 10.75 5.55 11.8 5.55 16.9
L 5.55 17.7 2.7 17.7
Q 0 17.7 0 20.3
L 0.05 43.15
Q 0.05 44.35 0.75 45.05 1.4 45.7 2.6 45.7
L 32.75 45.7
Q 33.9 45.7 34.6 45.05 35.25 44.35 35.25 43.2
L 35.25 20.3
Q 35.25 17.7 32.65 17.7
L 29.75 17.7
M 22.1 7.55
Q 23.9 9.25 23.95 11.7
L 23.95 17.65 11.4 17.65 11.35 17.4
Q 11.35 12.6 11.4 11.65 11.5 9.15 13.35 7.45 15.2 5.75 17.85 5.8 20.3 5.8 22.1 7.55
M 16.8 23.8
Q 18.2 23.5 19.5 24.15 20.75 24.8 21.35 26.1 21.9 27.4 21.55 28.75 21.2 30.2 20 30.95 19.35 31.45 19.55 32.3
L 21.2 39.45 13.9 39.45 15.8 31.3
Q 13.6 29.95 13.65 27.65 13.65 26.25 14.55 25.15 15.45 24.05 16.8 23.8 Z"/>
</g>
</defs>

<g transform="matrix( 1, 0, 0, 1, 0,0) ">
<use xlink:href="#Layer0_0_FILL"/>
</g>
</svg>
