
<svg xmlns="http://www.w3.org/2000/svg" version="1.1" xmlns:xlink="http://www.w3.org/1999/xlink" preserveAspectRatio="none" x="0px" y="0px" width="35px" height="45px" viewBox="0 0 35 45">
<defs>
<g id="Layer0_0_FILL">
<path fill="#000000" stroke="none" d="
M 29.35 9.3
Q 28.4 4.95 24.75 2.2 21 -0.4 16.5 0.05 12.1 0.45 9.1 3.45 5.95 6.5 5.65 10.7 5.55 11.4 5.55 16.85
L 5.55 17.7 2.7 17.7
Q 0 17.7 0 20.25
L 0.05 43.15
Q 0.05 44.4 0.75 44.95 1.35 45.65 2.55 45.65
L 32.75 45.65
Q 33.85 45.65 34.55 44.95 35.25 44.35 35.25 43.2
L 35.25 20.25
Q 35.25 17.7 32.65 17.7
L 29.75 17.7 29.75 13.1
Q 29.6 10.1 29.35 9.3
M 22.1 7.55
Q 23.85 9.2 23.95 11.65
L 23.95 17.6 11.35 17.6 11.35 11.6
Q 11.5 9.1 13.35 7.4 15.2 5.75 17.85 5.8 20.3 5.8 22.1 7.55
M 16.75 23.75
Q 18.2 23.5 19.5 24.1 20.7 24.75 21.35 26.1 21.9 27.4 21.5 28.7 21.2 30.2 20 30.95 19.35 31.4 19.5 32.25
L 21.2 39.45 13.85 39.45 15.8 31.25
Q 13.6 29.95 13.6 27.6 13.6 26.2 14.55 25.1 15.45 24.05 16.75 23.75 Z"/>
</g>
</defs>

<g transform="matrix( 1, 0, 0, 1, 0,0) ">
<use xlink:href="#Layer0_0_FILL"/>
</g>
</svg>
