
<svg xmlns="http://www.w3.org/2000/svg" version="1.1" xmlns:xlink="http://www.w3.org/1999/xlink" preserveAspectRatio="none" x="0px" y="0px" width="42px" height="50px" viewBox="0 0 43 51">
<defs>
<g id="Layer0_0_FILL">
<path fill="#96A4B0" stroke="none" d="
M 42.55 40.7
Q 42.25 39.05 40.55 37.65 38.4 35.8 37.25 32.65 35.65 28.35 35.1 22.45 34.7 18.65 33.9 16.45 31.65 10.3 25.8 8.4
L 24.6 8.1
Q 26.2 6.4 26.05 4.3 25.85 2.5 24.65 1.3 23.4 0.1 21.65 0 19.9 -0.1 18.5 0.95 17.1 1.9 16.7 3.65 16.2 6.05 18.05 8.1
L 17.75 8.15
Q 12.65 9.35 9.9 13.95 8.15 16.8 7.55 22.45 7.05 26.8 6.35 29.5 4.9 35.4 1.35 38.3 0 39.4 0 41.9 0 43.85 1.9 44.4 2.3 44.55 3.05 44.55
L 15.75 44.55
Q 15.9 47.1 17.65 48.65 19.25 50 21.4 50 23.45 50 25.05 48.6 26.75 47.05 26.85 44.55
L 39.7 44.55
Q 42.45 44.55 42.65 42.05
L 42.55 40.7 Z"/>
</g>
</defs>

<g transform="matrix( 1, 0, 0, 1, 0,0) ">
<use xlink:href="#Layer0_0_FILL"/>
</g>
</svg>
