
<svg xmlns="http://www.w3.org/2000/svg" version="1.1" xmlns:xlink="http://www.w3.org/1999/xlink" preserveAspectRatio="none" x="0px" y="0px" width="46px" height="46px" viewBox="0 0 46 46">
<defs>
<g id="Layer0_0_FILL">
<path fill="#FFFFFF" stroke="none" d="
M 28.75 24.1
Q 28.85 22.25 27.8 20.65 26.8 19.1 25.1 18.4 23.8 17.85 22.35 18
L 22.35 21
Q 24 20.8 25 21.85 26 22.9 25.75 24.45
L 28.5 24.45
Q 28.75 24.45 28.75 24.1
M 22.45 8.95
L 22.45 11.9
Q 27.6 11.8 31.25 15.45 34.85 19.15 34.7 24.35
L 37.6 24.35
Q 37.6 17.2 32.75 12.8 28.55 8.95 22.45 8.95
M 43.6 24.25
L 46.45 24.25
Q 46.75 14.05 39.35 6.75 32.1 -0.4 22.55 0
L 22.55 2.9
Q 31.5 3 37.5 9.1 43.5 15.1 43.6 24.25
M 42.15 44.4
Q 44.95 42.4 45.6 39.15 45.85 37.75 45.4 35.75 45.05 34.25 43.25 33.65
L 33.7 30.45
Q 33.2 30.25 32.65 30.7
L 28.55 34.9
Q 28.05 35.4 27.55 35.2 16.3 29.9 11.9 19.5 11.6 18.75 12.2 18.1
L 15.6 14.65
Q 15.95 14.2 15.85 13.7
L 13.1 2.5
Q 12.9 1.55 12.1 0.9 11.3 0.2 10.35 0.1 6.05 -0.35 2.95 2.85 -1.2 7.1 0.45 14.05 1.95 20.4 6.85 27.15 15 38.15 25.8 43.65 31.25 46.45 35.4 46.45 39.3 46.45 42.15 44.4 Z"/>
</g>
</defs>

<g transform="matrix( 1, 0, 0, 1, 0,0) ">
<use xlink:href="#Layer0_0_FILL"/>
</g>
</svg>
