
<svg xmlns="http://www.w3.org/2000/svg" version="1.1" xmlns:xlink="http://www.w3.org/1999/xlink" preserveAspectRatio="none" x="0px" y="0px" width="142px" height="105px" viewBox="0 0 142 105">
<defs>
<g id="Layer0_0_FILL">
<path fill="#91A0AC" stroke="none" d="
M 138.05 15.25
Q 134.3 11.3 128.2 11.3 115.2 11.1 102.4 11.3 100.8 11.3 100.2 10.1
L 96.45 4.95
Q 92.7 0 86.8 0
L 55.2 0
Q 49.3 0 45.35 4.95
L 41.8 10.1
Q 41 11.3 39.65 11.3 26.8 11.1 14 11.3 7.7 11.3 3.75 15.25 0 19.05 0 25.35
L 0 90.95
Q 0 97.25 3.75 101.05 7.7 105 13.8 105
L 128.2 105
Q 134.3 105 138.05 101.05 142 97.25 142 91.15
L 142 25.15
Q 142 19.05 138.05 15.25
M 106.5 58.45
Q 106.3 73.3 95.85 83.6 85.4 94.1 70.4 93.9 56 93.7 45.55 83.2 35.3 72.7 35.5 58.05 35.5 43 46.15 32.7 56.6 22.2 71.45 22.4 86 22.6 96.45 33.1 106.7 43.6 106.5 58.45
M 89.75 77.05
Q 97.65 69.35 97.65 58.25 97.65 47.15 89.95 39.25 82.25 31.3 71.2 31.3 60.15 31.3 52.25 39.05 44.35 46.95 44.35 58.05 44.35 69.15 52.05 77.05 59.95 85 70.8 85 81.9 85 89.75 77.05 Z"/>
</g>
</defs>

<g transform="matrix( 1, 0, 0, 1, 0,0) ">
<use xlink:href="#Layer0_0_FILL"/>
</g>
</svg>
