
<svg xmlns="http://www.w3.org/2000/svg" version="1.1" xmlns:xlink="http://www.w3.org/1999/xlink" preserveAspectRatio="none" x="0px" y="0px" width="72px" height="72px" viewBox="0 0 72 72">
<defs>
<g id="Layer0_0_FILL">
<path fill="#FFFFFF" stroke="none" d="
M 72.3 36.2
Q 72.3 21.15 61.75 10.6 51.15 0 36.15 0 21.1 0 10.55 10.6 0 21.15 0 36.2 0 51.2 10.55 61.8 21.1 72.35 36.15 72.35 51.15 72.35 61.75 61.8 72.3 51.2 72.3 36.2
M 58.2 14.15
Q 67.3 23.25 67.3 36.2 67.3 49.1 58.2 58.25 49.05 67.35 36.15 67.35 23.2 67.35 14.1 58.25 5 49.1 5 36.2 5 23.25 14.1 14.15 23.2 5 36.15 5 49.05 5 58.2 14.15
M 54.7 28
L 51.15 24.45 32.9 42.65 24.2 33.95 20.65 37.5 32.9 49.75 54.7 28 Z"/>

<path fill="#79BF41" stroke="none" d="
M 67.3 36.2
Q 67.3 23.25 58.2 14.15 49.05 5 36.15 5 23.2 5 14.1 14.15 5 23.25 5 36.2 5 49.1 14.1 58.25 23.2 67.35 36.15 67.35 49.05 67.35 58.2 58.25 67.3 49.1 67.3 36.2
M 51.15 24.45
L 54.7 28 32.9 49.75 20.65 37.5 24.2 33.95 32.9 42.65 51.15 24.45 Z"/>
</g>
</defs>

<g transform="matrix( 1, 0, 0, 1, 0,0) ">
<use xlink:href="#Layer0_0_FILL"/>
</g>
</svg>
