
<svg xmlns="http://www.w3.org/2000/svg" version="1.1" xmlns:xlink="http://www.w3.org/1999/xlink" preserveAspectRatio="none" x="0px" y="0px" width="43px" height="43px" viewBox="0 0 43 43">
<defs>
<g id="Layer0_0_FILL">
<path fill="#FFFFFF" stroke="none" d="
M 43.4 24.3
Q 43.7 21.85 43.4 19.35 43.35 18.9 42.9 18.55 42.5 18.25 42 18.25 40.5 18.25 39.3 17.45 38.05 16.65 37.5 15.25 36.95 13.9 37.25 12.4 37.6 10.9 38.75 9.9 39.05 9.55 39.1 9.1 39.15 8.65 38.85 8.25 37.3 6.3 35.4 4.8 35 4.45 34.55 4.5 34.05 4.55 33.75 4.9 32.75 6 31.2 6.35 29.65 6.65 28.3 6.1 26.9 5.5 26.1 4.25 25.3 2.9 25.35 1.4 25.4 0.9 25.1 0.55 24.8 0.15 24.3 0.15 21.85 -0.15 19.4 0.1 18.95 0.15 18.6 0.5 18.3 0.9 18.3 1.35 18.4 2.85 17.55 4.15 16.75 5.45 15.35 6 14 6.55 12.45 6.2 10.9 5.85 9.95 4.8 9.65 4.45 9.15 4.4 8.7 4.35 8.3 4.65 6.3 6.2 4.8 8.1 4.5 8.5 4.5 8.95 4.55 9.45 4.9 9.75 6.05 10.8 6.4 12.3 6.7 13.8 6.15 15.2 5.55 16.55 4.3 17.35 3 18.15 1.4 18.15 0.85 18.15 0.55 18.45 0.2 18.75 0.15 19.2 -0.15 21.65 0.1 24.2 0.15 24.6 0.65 24.95 1.05 25.25 1.55 25.25 2.95 25.2 4.2 26.05 5.45 26.85 6.05 28.25 6.6 29.6 6.25 31.1 5.95 32.6 4.8 33.65 4.45 33.95 4.4 34.4 4.4 34.9 4.7 35.25 6.2 37.2 8.1 38.75 8.5 39.05 8.95 39 9.45 39 9.8 38.6 10.75 37.55 12.3 37.2 13.85 36.85 15.2 37.4 16.65 38 17.45 39.3 18.25 40.6 18.15 42.15 18.15 42.6 18.45 42.95 18.75 43.35 19.2 43.4 20.45 43.55 21.75 43.55 22.85 43.55 24.15 43.4 24.6 43.35 24.9 43 25.25 42.65 25.2 42.15 25.15 40.65 25.95 39.35 26.8 38.1 28.2 37.5 29.55 36.95 31.05 37.35 32.6 37.65 33.6 38.75 33.9 39.1 34.4 39.15 34.85 39.2 35.2 38.9 37.2 37.35 38.75 35.4 39.05 35 39 34.55 38.95 34.05 38.6 33.75 37.5 32.7 37.15 31.2 36.8 29.7 37.4 28.3 37.95 27 39.2 26.15 40.4 25.35 41.85 25.35
L 42.15 25.35
Q 42.6 25.4 42.95 25.1 43.35 24.75 43.4 24.3
M 26.95 16.65
Q 29.05 18.8 29.05 21.8 29.05 24.8 26.95 26.95 24.8 29.05 21.8 29.05 18.8 29.05 16.65 26.95 14.55 24.8 14.55 21.8 14.55 18.8 16.65 16.65 18.8 14.55 21.8 14.55 24.8 14.55 26.95 16.65 Z"/>
</g>
</defs>

<g transform="matrix( 1, 0, 0, 1, 0,0) ">
<use xlink:href="#Layer0_0_FILL"/>
</g>
</svg>
