
<svg xmlns="http://www.w3.org/2000/svg" version="1.1" xmlns:xlink="http://www.w3.org/1999/xlink" preserveAspectRatio="none" x="0px" y="0px" width="140px" height="140px" viewBox="0 0 140 140">
<defs>
<g id="Layer0_0_FILL">
<path fill="#FFFFFF" stroke="none" d="
M 140.9 70.45
Q 140.9 41.25 120.3 20.6 99.65 0 70.45 0 41.25 0 20.6 20.6 0 41.25 0 70.45 0 99.65 20.6 120.3 41.25 140.9 70.45 140.9 99.65 140.9 120.3 120.3 140.9 99.65 140.9 70.45
M 93.9 30.4
Q 95.4 30.2 96.8 31.25 103.1 36.15 107.85 43.95 114.15 54.65 115 67.35
L 115.2 70.6
Q 115 87.25 107 98.75 102.75 105 96.7 109 95.2 109.85 93.75 109.75 91.4 109.2 90.85 106.95 90.2 104.55 92.25 103.15 104.7 94.95 107.2 79.1 110.75 56.05 95.7 40.05 94.65 38.95 92.45 37.1 91.15 36.05 90.85 34.55 90.55 33.1 91.5 31.8 92.5 30.5 93.9 30.4
M 83.05 44.8
Q 84.55 44.6 85.85 45.55 90.85 49.15 94.4 55.55 98 62.45 98.1 72 97.8 85 88.05 93 86.85 94.15 85.25 94.95 84.05 95.7 82.65 95.25 81.3 94.85 80.55 93.55 79.8 92.35 80.05 90.85 80.35 89.5 81.55 88.75 89.75 83.45 90.55 73.4 91.85 61.05 83.15 52.8
L 81.55 51.5
Q 80.35 50.55 80.05 49.05 79.8 47.6 80.7 46.3 81.55 45 83.05 44.8
M 66.5 33.35
Q 67.7 32.45 68.55 32.05 70.5 31.15 71.15 33.25 71.45 34.3 71.45 35.2
L 71.45 104.8
Q 71.45 106 71.05 107.05 70.5 108.8 68.65 108.15 67.6 107.7 66.7 106.95 62.25 103.25 55 95.8 47.75 88.35 43.3 84.65 42.7 84.1 41.8 84.1
L 30.65 84.1
Q 28.5 84.1 27.2 82.8 26 81.5 26 79.35
L 26 60.7
Q 26 58.55 27.2 57.35 28.5 56.05 30.55 56.05
L 41.7 56.05
Q 42.7 56.05 43.3 55.5 47.75 51.85 54.9 44.4 62.15 37.1 66.5 33.35 Z"/>

<path fill="#93A2AE" stroke="none" d="
M 68.55 32.05
Q 67.7 32.45 66.5 33.35 62.15 37.1 54.9 44.4 47.75 51.85 43.3 55.5 42.7 56.05 41.7 56.05
L 30.55 56.05
Q 28.5 56.05 27.2 57.35 26 58.55 26 60.7
L 26 79.35
Q 26 81.5 27.2 82.8 28.5 84.1 30.65 84.1
L 41.8 84.1
Q 42.7 84.1 43.3 84.65 47.75 88.35 55 95.8 62.25 103.25 66.7 106.95 67.6 107.7 68.65 108.15 70.5 108.8 71.05 107.05 71.45 106 71.45 104.8
L 71.45 35.2
Q 71.45 34.3 71.15 33.25 70.5 31.15 68.55 32.05
M 85.85 45.55
Q 84.55 44.6 83.05 44.8 81.55 45 80.7 46.3 79.8 47.6 80.05 49.05 80.35 50.55 81.55 51.5
L 83.15 52.8
Q 91.85 61.05 90.55 73.4 89.75 83.45 81.55 88.75 80.35 89.5 80.05 90.85 79.8 92.35 80.55 93.55 81.3 94.85 82.65 95.25 84.05 95.7 85.25 94.95 86.85 94.15 88.05 93 97.8 85 98.1 72 98 62.45 94.4 55.55 90.85 49.15 85.85 45.55
M 96.8 31.25
Q 95.4 30.2 93.9 30.4 92.5 30.5 91.5 31.8 90.55 33.1 90.85 34.55 91.15 36.05 92.45 37.1 94.65 38.95 95.7 40.05 110.75 56.05 107.2 79.1 104.7 94.95 92.25 103.15 90.2 104.55 90.85 106.95 91.4 109.2 93.75 109.75 95.2 109.85 96.7 109 102.75 105 107 98.75 115 87.25 115.2 70.6
L 115 67.35
Q 114.15 54.65 107.85 43.95 103.1 36.15 96.8 31.25 Z"/>
</g>
</defs>

<g transform="matrix( 1, 0, 0, 1, 0,0) ">
<use xlink:href="#Layer0_0_FILL"/>
</g>
</svg>
