
<svg xmlns="http://www.w3.org/2000/svg" version="1.1" xmlns:xlink="http://www.w3.org/1999/xlink" preserveAspectRatio="none" x="0px" y="0px" width="40px" height="40px" viewBox="0 0 40 40">
<defs>
<g id="Layer0_0_FILL">
<path fill="#D92626" stroke="none" d="
M 40 20
Q 40 11.7 34.15 5.85 28.3 0 20 0 11.7 0 5.85 5.85 0 11.7 0 20 0 24.157421875 1.45 27.7 2.9302734375 31.2302734375 5.85 34.15 11.7 40 20 40 28.3 40 34.15 34.15 37.0697265625 31.2302734375 38.5 27.7 40 24.157421875 40 20
M 21.65 18.45
Q 22.35 19.15 22.35 20.15 22.35 21.15 21.65 21.85 20.95 22.55 19.95 22.55 18.95 22.55 18.25 21.85 17.55 21.15 17.55 20.15 17.55 19.15 18.25 18.45 18.95 17.75 19.95 17.75 20.95 17.75 21.65 18.45
M 29.2 23.25
Q 27.95 21.95 27.95 20.15 27.95 18.3 29.2 17 30.5 15.75 32.35 15.75 34.15 15.75 35.45 17 36.75 18.3 36.75 20.15 36.75 21.95 35.45 23.25 34.15 24.55 32.35 24.55 30.5 24.55 29.2 23.25
M 7.95 17.75
Q 8.95 17.75 9.65 18.45 10.35 19.15 10.35 20.15 10.35 21.15 9.65 21.85 8.95 22.55 7.95 22.55 6.95 22.55 6.25 21.85 5.55 21.15 5.55 20.15 5.55 19.15 6.25 18.45 6.95 17.75 7.95 17.75 Z"/>

<path fill="#FFFFFF" stroke="none" d="
M 9.65 18.45
Q 8.95 17.75 7.95 17.75 6.95 17.75 6.25 18.45 5.55 19.15 5.55 20.15 5.55 21.15 6.25 21.85 6.95 22.55 7.95 22.55 8.95 22.55 9.65 21.85 10.35 21.15 10.35 20.15 10.35 19.15 9.65 18.45
M 27.95 20.15
Q 27.95 21.95 29.2 23.25 30.5 24.55 32.35 24.55 34.15 24.55 35.45 23.25 36.75 21.95 36.75 20.15 36.75 18.3 35.45 17 34.15 15.75 32.35 15.75 30.5 15.75 29.2 17 27.95 18.3 27.95 20.15
M 22.35 20.15
Q 22.35 19.15 21.65 18.45 20.95 17.75 19.95 17.75 18.95 17.75 18.25 18.45 17.55 19.15 17.55 20.15 17.55 21.15 18.25 21.85 18.95 22.55 19.95 22.55 20.95 22.55 21.65 21.85 22.35 21.15 22.35 20.15 Z"/>
</g>
</defs>

<g transform="matrix( 1, 0, 0, 1, 0,0) ">
<use xlink:href="#Layer0_0_FILL"/>
</g>
</svg>
