
<svg xmlns="http://www.w3.org/2000/svg" version="1.1" xmlns:xlink="http://www.w3.org/1999/xlink" preserveAspectRatio="none" x="0px" y="0px" width="18px" height="18px" viewBox="0 0 18 18">
<defs>
<g id="Layer0_0_FILL">
<path fill="#77C043" stroke="none" d="
M 18 9
Q 18 5.3 15.35 2.65 12.75 0 9 0 5.3 0 2.65 2.65 0.1 5.2 0 8.8
L 0 9.25
Q 0.1 12.85 2.65 15.35 5.3 18 9 18 12.75 18 15.35 15.35 18 12.75 18 9
M 5 8.65
L 7.9 12.65 13 5.45 7.9 12.65 5 8.65 Z"/>
</g>

<path id="Layer0_0_1_STROKES" stroke="#FFFFFF" stroke-width="2" stroke-linejoin="round" stroke-linecap="round" fill="none" d="
M 5 8.65
L 7.9 12.65 13 5.45"/>
</defs>

<g transform="matrix( 1, 0, 0, 1, 0,0) ">
<use xlink:href="#Layer0_0_FILL"/>

<use xlink:href="#Layer0_0_1_STROKES"/>
</g>
</svg>
