
<svg xmlns="http://www.w3.org/2000/svg" version="1.1" xmlns:xlink="http://www.w3.org/1999/xlink" preserveAspectRatio="none" x="0px" y="0px" width="18px" height="18px" viewBox="0 0 18 18">
<defs>
<g id="Layer0_0_FILL">
<path fill="#000000" fill-opacity="0.2980392156862745" stroke="none" d="
M 17.95 10
L 17.95 8
Q 17.63671875 4.93671875 15.35 2.65 12.75 0 9 0 5.3 0 2.65 2.65 0 5.3 0 9 0 12.75 2.65 15.35 5.3 18 9 18 12.75 18 15.35 15.35 17.63671875 13.10625 17.95 10
M 14.05 3.9
Q 16.2 6 16.2 9 16.2 12 14.05 14.1 11.95 16.25 9 16.25 6 16.25 3.9 14.1 1.75 12 1.75 9 1.75 6 3.9 3.9 6 1.8 9 1.8 11.95 1.8 14.05 3.9
M 17.95 8
L 17.95 10
Q 18 9.5138671875 18 9 18 8.49296875 17.95 8 Z"/>
</g>
</defs>

<g transform="matrix( 1, 0, 0, 1, 0,0) ">
<use xlink:href="#Layer0_0_FILL"/>
</g>
</svg>
