
<svg xmlns="http://www.w3.org/2000/svg" version="1.1" xmlns:xlink="http://www.w3.org/1999/xlink" preserveAspectRatio="none" x="0px" y="0px" width="48px" height="48px" viewBox="0 0 48 48">
<defs>
<g id="Layer0_0_FILL">
<path fill="#FFFFFF" stroke="none" d="
M 48.1 43.55
L 48.1 20.6
Q 48.1 18.75 46.8 17.4 45.4 16.05 43.55 16.05
L 22.9 16.05 22.9 11.45
Q 22.9 6.65 19.6 3.35 16.3 0 11.45 0 6.65 0 3.35 3.35 0 6.65 0 11.45
L 0 15.35 4.6 15.35 4.6 11.45
Q 4.6 8.55 6.55 6.45 8.55 4.35 11.45 4.35 14.35 4.35 16.35 6.45 18.35 8.55 18.35 11.45
L 18.35 16.05 16.05 16.05
Q 14.1 16.05 12.8 17.4 11.45 18.75 11.45 20.6
L 11.45 43.55
Q 11.45 45.45 12.8 46.8 14.1 48.1 16.05 48.1
L 43.55 48.1
Q 45.4 48.1 46.8 46.8 48.1 45.45 48.1 43.55
M 41.85 31.6
Q 41.85 33 40.85 34 39.85 35 38.4 35 37 35 36 34 35 33 35 31.6 35 30.15 36 29.1 37 28.1 38.4 28.1 39.85 28.1 40.85 29.1 41.85 30.15 41.85 31.6
M 17.5 31.6
Q 17.5 30.15 18.5 29.1 19.5 28.1 20.9 28.1 22.35 28.1 23.35 29.1 24.35 30.15 24.35 31.6 24.35 33 23.35 34 22.35 35 20.9 35 19.5 35 18.5 34 17.5 33 17.5 31.6
M 33.1 31.6
Q 33.1 33 32.1 34 31.1 35 29.65 35 28.25 35 27.25 34 26.25 33 26.25 31.6 26.25 30.15 27.25 29.1 28.25 28.1 29.65 28.1 31.1 28.1 32.1 29.1 33.1 30.15 33.1 31.6 Z"/>
</g>
</defs>

<g transform="matrix( 1, 0, 0, 1, 0,0) ">
<use xlink:href="#Layer0_0_FILL"/>
</g>
</svg>
