<?xml version="1.0" encoding="UTF-8" standalone="no"?>
<svg
   xmlns:dc="http://purl.org/dc/elements/1.1/"
   xmlns:cc="http://creativecommons.org/ns#"
   xmlns:rdf="http://www.w3.org/1999/02/22-rdf-syntax-ns#"
   xmlns:svg="http://www.w3.org/2000/svg"
   xmlns="http://www.w3.org/2000/svg"
   xmlns:sodipodi="http://sodipodi.sourceforge.net/DTD/sodipodi-0.dtd"
   xmlns:inkscape="http://www.inkscape.org/namespaces/inkscape"
   viewBox="0 0 1662.5 1662.5"
   height="1662.5"
   width="1662.5"
   xml:space="preserve"
   version="1.1"
   id="svg2"
   inkscape:version="0.91 r13725"
   sodipodi:docname="012.svg"><sodipodi:namedview
     pagecolor="#ffffff"
     bordercolor="#666666"
     borderopacity="1"
     objecttolerance="10"
     gridtolerance="10"
     guidetolerance="10"
     inkscape:pageopacity="0"
     inkscape:pageshadow="2"
     inkscape:window-width="1564"
     inkscape:window-height="950"
     id="namedview9269"
     showgrid="false"
     inkscape:zoom="0.14195489"
     inkscape:cx="831.25"
     inkscape:cy="831.25"
     inkscape:window-x="0"
     inkscape:window-y="0"
     inkscape:window-maximized="0"
     inkscape:current-layer="svg2" /><metadata
     id="metadata8"><rdf:RDF><cc:Work
         rdf:about=""><dc:format>image/svg+xml</dc:format><dc:type
           rdf:resource="http://purl.org/dc/dcmitype/StillImage" /></cc:Work></rdf:RDF></metadata><defs
     id="defs6" /><g
     transform="matrix(2.3934452,0,0,-2.3934452,-760.2499,2410.4693)"
     id="g10"><g
       transform="scale(0.1,0.1)"
       id="g12"><path
         id="path16"
         style="fill:#ec2929;fill-opacity:1;fill-rule:nonzero;stroke:none"
         d="m 6461.34,3890.06 c -337.69,199.97 -848.95,528.55 -1366.83,958.27 -650.16,539.48 -1132.47,1091.1 -1433.54,1639.52 l -2.58,4.71 -2.45,4.79 c -137.88,269.54 -210.77,572.96 -210.77,877.45 0,1063.57 865.29,1928.86 1928.87,1928.86 473.28,0 925.91,-174.88 1274.73,-481.62 348.82,306.74 801.45,481.62 1274.74,481.62 1063.56,0 1928.85,-865.28 1928.85,-1928.86 0,-304.53 -72.89,-607.95 -210.78,-877.47 l -2.44,-4.78 -2.59,-4.7 C 9335.5,5939.43 8853.19,5387.81 8203.03,4848.33 7685.14,4418.61 7173.89,4090.03 6836.2,3890.06 l -187.43,-110.99"
         inkscape:connector-curvature="0" /><path
         id="path18"
         style="fill:#4b173e;fill-opacity:1;fill-rule:nonzero;stroke:none"
         d="m 7923.51,8935.81 c -526.44,0 -991.99,-260.61 -1274.74,-659.84 -282.75,399.23 -748.31,659.84 -1274.73,659.84 -862.13,0 -1561.02,-698.89 -1561.02,-1561.02 0,-255.65 61.46,-496.95 170.41,-709.92 642.95,-1171.22 2057.87,-2098.57 2665.34,-2458.3 607.46,359.73 2022.39,1287.08 2665.34,2458.3 108.96,212.97 170.41,454.27 170.41,709.92 0,862.13 -698.89,1561.02 -1561.01,1561.02"
         inkscape:connector-curvature="0" /><path
         id="path20"
         style="fill:#924582;fill-opacity:1;fill-rule:nonzero;stroke:none"
         d="m 4132.12,8320.49 c -17.13,-22.46 -33.62,-45.43 -49.53,-68.83 33.77,-599.64 36.95,-1202.06 29.6,-1802.25 7.73,-12.01 15.36,-24.05 23.23,-35.99 -9.93,635.69 -2.65,1271.38 -3.3,1907.07 M 3881.66,7833.3 c 3.44,-334.32 14.27,-667.56 28.37,-1001.34 21.28,-57.36 45.8,-113.14 73.39,-167.09 6.35,-11.55 12.9,-23.02 19.39,-34.52 4.02,504.1 4.26,1006.93 12.04,1512.27 -55,-97.11 -99.81,-200.71 -133.19,-309.32 m 5461.41,191.24 c -21.59,47.05 -45.39,92.86 -71.37,137.26 32.63,-480.66 51.29,-963.82 67.29,-1445.7 18.77,40.25 35.79,81.47 51.14,123.5 -56.57,401.27 -50.6,789.88 -47.06,1184.94 m -59.96,-1414.6 c -14.3,-24.88 -28.85,-49.68 -43.79,-74.35 -12.53,605.89 -48.4,1208.73 -94.36,1811.16 21.03,-26.38 41.17,-53.49 60.48,-81.22 -9.84,-554.5 34.23,-1105.5 77.67,-1655.59"
         inkscape:connector-curvature="0" /><path
         id="path22"
         style="fill:#ffffff;fill-opacity:1;fill-rule:nonzero;stroke:none"
         d="m 4201.46,8159.79 0,-1843.54 C 4905.32,5311.34 6102.93,4529.8 6648.77,4206.57 c 545.82,323.23 1743.44,1104.77 2447.3,2109.68 l 0,1843.54 c -2605.23,-725.33 -4894.61,0 -4894.61,0"
         inkscape:connector-curvature="0" /><path
         id="path24"
         style="fill:#4b173e;fill-opacity:1;fill-rule:nonzero;stroke:none"
         d="m 8541.33,5656.35 0,307.68 c 0,60.48 49.04,109.55 109.55,109.55 l 262.69,0 c -116.4,-144.79 -241.75,-284.12 -372.24,-417.23 m -200.18,417.22 -1399.53,0 c -60.51,0 -109.55,-49.06 -109.55,-109.54 l 0,-603.59 c -32.48,36.34 -65.03,72.79 -90.62,104.12 l 0,499.47 c 0,60.48 -49.06,109.54 -109.55,109.54 l -5.2,0 c -1.33,11.49 -5.68,23.11 -14.01,35.07 -27.82,39.96 -50.93,83.14 -78.51,123.26 -8.44,12.27 -24.39,19.88 -37.84,28.1 -37.95,23.2 -78.83,36.36 -123.91,37.47 -17.03,0.41 -35.56,3.72 -50.53,11.34 -45.52,23.22 -95.27,32.05 -143.79,43.62 -91.41,21.78 -166.07,70.68 -231.81,134.78 -22.62,22.06 -43.9,47.2 -59.25,74.61 -15.9,28.35 -29.97,59.2 -28.45,94.1 0.52,11.97 -5.47,24.42 -4.03,36.12 2.25,18.32 8.3,36.19 13.27,56.42 16.2,-26 31.04,-49.83 45.89,-73.67 1.63,0.73 3.27,1.46 4.92,2.19 -24.23,29.36 -18.85,65.93 -26.83,99.25 -3.32,13.84 -7.11,27.57 -9.06,42.38 17.05,-8.62 23.8,-26.82 36.87,-38.78 1.55,0.53 3.1,1.08 4.65,1.62 -4.71,15.04 -7.06,31.41 -14.65,44.82 -12.14,21.46 -28.55,40.44 -41.64,61.42 -9.63,15.4 -17.15,32.18 -25.04,48.62 -7.82,16.3 -14.94,32.96 -22.37,49.44 1.29,0.73 2.57,1.44 3.86,2.16 7.92,-12.99 14.99,-26.59 23.99,-38.78 10.29,-13.94 22.96,-26.12 33.3,-40.03 5.54,-7.47 10.42,-16.58 11.98,-25.59 4.45,-25.55 15.3,-46.76 36.78,-65.17 0,4.11 0.4,5.98 -0.06,7.6 -10.16,36.36 -21.68,72.38 -30.36,109.07 -17.97,75.92 -94.33,134.71 -146.16,156.23 14.55,-10.72 26.97,-19.25 38.67,-28.65 11.34,-9.12 21.93,-19.14 32.85,-28.77 -1.36,-1.51 -2.73,-3.02 -4.09,-4.53 -3.97,2.45 -7.98,4.83 -11.89,7.36 -31.48,20.44 -62.11,41.93 -87.26,70.24 -2.22,2.5 -5.44,4.64 -8.61,5.69 -38.49,12.79 -74.72,32.58 -117.93,29.44 -19.29,-1.4 -39.12,7.75 -58.94,9.78 -24.01,2.45 -48.63,5.5 -72.34,2.72 -33.14,-3.88 -65.67,-12.91 -102.68,-20.61 7.58,20.32 9.71,44.03 22.64,56.61 20.49,19.91 11.78,47.01 25.4,67.18 6.94,10.29 12.9,21.22 19.06,32.02 2.94,5.16 6.02,10.45 7.76,16.07 3.87,12.49 5.42,25.9 10.67,37.72 8.6,19.39 2,36.25 -3.7,54.45 -5.8,18.53 -6.25,38.85 -12.98,56.93 -5.87,15.77 0.89,33.65 -12.1,48.28 -11.74,13.23 -20.45,29.32 -29.58,44.68 -13.03,21.93 -33.88,34.63 -54.12,48.28 -3.62,2.45 -8.63,5.6 -9.35,9.16 -4.31,21.46 -22.08,25.8 -38.61,29.23 -17.73,3.7 -33.35,9.95 -49.22,18.89 -19.87,11.19 -42.39,17.67 -64.81,26.58 -0.83,-3.22 -1.56,-6 -2.3,-8.87 -15.15,4.19 -29.41,8.13 -43.69,12.08 l -8.97,0 c -24.11,-14.39 -50.03,-6.9 -75.49,-6.85 -19.23,0.06 -41.14,2.92 -57.01,-5.08 -20.62,-10.4 -43.47,-18.89 -60.35,-37.32 -10.16,-11.08 -25.21,-17.64 -37.97,-26.37 -29.98,-20.51 -53.69,-46.82 -73.59,-77.17 -28.72,-43.8 -48.72,-91.71 -58.34,-142.41 -3.86,-20.4 -13.6,-33.32 -23.45,-49.15 -20.18,-32.43 -22.5,-69.2 -19.1,-106.77 2.52,-27.96 3.96,-56.1 4.16,-84.18 0.23,-30.61 -2.61,-61.26 -2.02,-91.85 0.37,-19.61 5.05,-39.1 6.85,-58.73 1.81,-19.71 2.46,-39.53 3.74,-61.5 -7.24,1.63 -13.68,3.14 -20.15,4.53 -12.11,2.59 -24.14,6.2 -36.38,7.41 -23.12,2.29 -37.57,-8.73 -43.68,-31.34 -7.27,-26.87 -14.61,-53.72 -21.99,-80.55 -0.79,-2.86 -1.93,-5.65 -3.1,-8.4 -8.39,-19.63 -16.84,-39.24 -26.15,-60.93 0.14,-0.04 -4.15,0.61 -7.91,2.4 -11.5,5.48 -21.01,2.78 -32.2,-3.08 -21.56,-11.3 -45.28,-15.06 -69.9,-14.31 -33.15,1 -66.42,2.28 -99.51,0.61 -20.63,-1.02 -41.74,-5.05 -61.32,-11.64 -39.03,-13.13 -78.06,-26.97 -115.49,-44.03 -62.2,-28.35 -114.86,-66.51 -155.11,-117.46 663.22,-1130.55 2023.9,-2021.57 2616.44,-2372.46 400.54,237.19 1152.08,721.2 1801.94,1359.12 l 0,398.34 c 0,60.48 -49.04,109.54 -109.56,109.54"
         inkscape:connector-curvature="0" /><path
         id="path26"
         style="fill:#ffffff;fill-opacity:1;fill-rule:nonzero;stroke:none"
         d="m 9035.89,8469.95 c -1342.18,-461.9 -2587.04,-431.59 -3409,-320.11 -639.09,86.67 -1124.34,233.87 -1367.13,318.23 l -21.03,-21.87 c 239.98,-84.07 732.29,-235.17 1383.49,-323.56 547.83,-74.37 1099.46,-90.54 1639.57,-48.03 616.58,48.5 1219.65,174.02 1795.24,373.44"
         inkscape:connector-curvature="0" /><path
         id="path28"
         style="fill:#ffffff;fill-opacity:1;fill-rule:nonzero;stroke:none"
         d="m 4843.07,8454.07 c -7.84,-32.98 40.69,-72.74 108.37,-88.81 67.67,-16.07 128.91,-2.37 136.72,30.62 7.84,32.98 -40.68,72.75 -108.36,88.81 -67.69,16.07 -128.91,2.36 -136.73,-30.62 m 1026.57,-176.66 c -3.09,-33.77 50.56,-66.27 119.84,-72.58 69.27,-6.33 127.95,15.9 131.03,49.66 3.09,33.75 -50.56,66.25 -119.85,72.58 -69.28,6.34 -127.95,-15.9 -131.02,-49.66 m 2430.86,207.28 c -67.7,-16.06 -116.2,-55.83 -108.37,-88.81 7.82,-32.99 69.06,-46.69 136.73,-30.62 67.68,16.07 116.21,55.83 108.37,88.81 -7.84,32.98 -69.04,46.7 -136.73,30.62 m -889.84,-207.28 c 3.09,-33.77 -50.56,-66.27 -119.86,-72.58 -69.25,-6.33 -127.93,15.9 -131,49.66 -3.1,33.75 50.55,66.25 119.84,72.58 69.29,6.34 127.93,-15.89 131.02,-49.66"
         inkscape:connector-curvature="0" /></g></g></svg>