<?xml version="1.0" encoding="UTF-8" standalone="no"?>
<svg
   xmlns:dc="http://purl.org/dc/elements/1.1/"
   xmlns:cc="http://creativecommons.org/ns#"
   xmlns:rdf="http://www.w3.org/1999/02/22-rdf-syntax-ns#"
   xmlns:svg="http://www.w3.org/2000/svg"
   xmlns="http://www.w3.org/2000/svg"
   xmlns:sodipodi="http://sodipodi.sourceforge.net/DTD/sodipodi-0.dtd"
   xmlns:inkscape="http://www.inkscape.org/namespaces/inkscape"
   viewBox="0 0 1662.5 1662.5"
   height="1662.5"
   width="1662.5"
   xml:space="preserve"
   version="1.1"
   id="svg2"
   inkscape:version="0.91 r13725"
   sodipodi:docname="019.svg"><sodipodi:namedview
     pagecolor="#ffffff"
     bordercolor="#666666"
     borderopacity="1"
     objecttolerance="10"
     gridtolerance="10"
     guidetolerance="10"
     inkscape:pageopacity="0"
     inkscape:pageshadow="2"
     inkscape:window-width="1541"
     inkscape:window-height="908"
     id="namedview13360"
     showgrid="false"
     inkscape:zoom="0.14195489"
     inkscape:cx="831.25"
     inkscape:cy="831.25"
     inkscape:window-x="0"
     inkscape:window-y="0"
     inkscape:window-maximized="0"
     inkscape:current-layer="svg2" /><metadata
     id="metadata8"><rdf:RDF><cc:Work
         rdf:about=""><dc:format>image/svg+xml</dc:format><dc:type
           rdf:resource="http://purl.org/dc/dcmitype/StillImage" /></cc:Work></rdf:RDF></metadata><defs
     id="defs6" /><g
     transform="matrix(2.0980791,0,0,-2.0980791,-578.23008,2226.9717)"
     id="g10"><g
       transform="scale(0.1,0.1)"
       id="g12"><path
         id="path16"
         style="fill:#c46905;fill-opacity:1;fill-rule:nonzero;stroke:none"
         d="m 10373,6700.39 c 172.8,-296.1 167.5,-645.46 -390.62,-960.64 -355.38,-200.57 -782.64,-226.57 -1158.66,-374.36 -237.98,-93.48 -439.75,-234.77 -697.44,-282.94 -222.94,-41.6 -438.85,-27.74 -653.5,-125.52 -294.71,-134.29 -597.92,-158.45 -912.26,-251.66 -267.55,-79.29 -506.27,-200.06 -769.8,-285.98 -242,-78.9 -505.99,10.67 -751.27,-99.24 -188.64,-84.57 -312.24,-253.23 -532.17,-283.96 -283.41,-39.5 -580.33,-55.29 -870.4,-96.06 -194.48,-27.37 -537.92,-85.21 -600.77,175.32 -2.73,11.5 -5.01,22.61 -6.75,33.29 151.52,-179.78 538.28,57.11 705.76,101.81 179.06,47.69 372.26,17.23 548.31,59.19 163.01,38.96 288.43,174.96 456.73,218.11 273.29,70.14 556.52,95.32 827.9,172.04 265.9,75.25 522.86,188.83 801.72,208.24 262.16,18.25 506.44,121.42 749.18,213.72 191.64,72.89 410.1,218.02 617.55,225.14 96.41,3.27 192.73,-12.04 290.06,-0.27 205.24,25 381.75,166.48 561.81,257.13 175.97,88.68 372,113.94 547.04,199.78 160.64,78.82 487.67,300.01 487.67,300.01 20.97,291.07 98.59,449.9 215.08,578.06 135.64,149.22 391.73,238.99 534.73,18.97 0,-0.09 0.1,-0.09 0.1,-0.18"
         inkscape:connector-curvature="0" /><path
         id="path18"
         style="fill:#e88b1f;fill-opacity:1;fill-rule:nonzero;stroke:none"
         d="m 10372.9,6700.57 c -143,220.01 -399.09,130.26 -534.74,-18.97 -116.48,-128.16 -194.1,-286.99 -215.07,-578.07 -451,416.25 -1006.97,833.93 -1542.79,1135.5 -318.44,179.24 -526.97,357.66 -780.28,622.38 -217.1,226.87 -630.86,341.8 -822.7,580.42 -7.85,9.67 -15.23,19.53 -22.25,29.56 -139.21,199.95 -15.6,436.75 129.53,673 139.65,227.5 433.83,178.7 720.99,-6.2 313.05,-201.68 727.74,-353.38 1004.49,-606.87 458.65,-420.06 844.77,-732.3 1311.26,-1141.23 30.47,-26.64 533.06,-315.53 751.56,-689.52"
         inkscape:connector-curvature="0" /><path
         id="path20"
         style="fill:#fbe35b;fill-opacity:1;fill-rule:nonzero;stroke:none"
         d="m 9690.58,6145.82 c -74.1,114.31 -273.53,158.66 -394.62,244.32 -379.16,316 -803.36,616.83 -1215.66,848.89 -318.43,179.24 -526.97,357.66 -780.28,622.38 -217.1,226.87 -630.86,341.8 -822.69,580.42 l -0.1,-0.09 c 0,0 -57.8,72.12 -72.52,138.36 0,0 -96.58,-118.71 -136,-278.42 -9.71,-39.39 -21.33,-71.82 -33.32,-98.36 -286.73,-254.75 -617.84,-475.44 -895.46,-729.96 -156.17,-143.11 -218.2,-368.6 -342.16,-536.63 -40.24,-54.37 -86.48,-103.53 -129.07,-155.89 -137.84,-168.94 -390.88,-402.46 -496.87,-520.13 -300.29,-333.48 -543.66,-720.9 -735.95,-1127.18 -87.76,-185.45 -176.97,-381.29 -307.86,-541.01 -113.31,-138.39 -340.07,-191.29 -298.66,-443.88 151.52,-179.78 538.28,57.1 705.76,101.81 179.06,47.69 372.26,17.23 548.32,59.2 163,38.94 323.39,-80.81 491.69,-37.67 273.29,70.15 521.55,351.09 792.92,427.8 265.91,75.26 476.82,-42.44 755.68,-23.01 262.16,18.25 552.48,352.67 795.23,444.99 191.64,72.89 410.11,218.01 617.55,225.12 96.41,3.29 192.72,-12.04 290.07,-0.27 205.22,25 381.74,166.49 561.8,257.15 88.76,44.72 182.6,73.32 276.3,101.68 185.17,35.61 376.25,52.71 556.45,103.76 148.69,42.11 394.44,143.75 269.45,336.62"
         inkscape:connector-curvature="0" /><path
         id="path22"
         style="fill:#d7bb31;fill-opacity:1;fill-rule:nonzero;stroke:none"
         d="m 9690.58,6145.82 c -74.1,114.31 -273.53,158.66 -394.62,244.32 -379.16,316 -803.36,616.83 -1215.66,848.89 -318.43,179.24 -526.97,357.66 -780.28,622.38 -217.1,226.87 -630.86,341.8 -822.69,580.42 l -0.1,-0.09 c 0,0 -57.8,72.12 -72.52,138.36 0,0 -40.07,-49.29 -79.11,-127.01 188.11,-98.49 377.2,-204 515.5,-374.85 501.7,-583.8 1194.95,-793.6 1815.24,-1240.57 346.62,-246.29 693.26,-446.98 957.79,-775.36 31.69,-42.24 38.83,-96.71 28.44,-153.96 74.94,55.92 115.45,133.42 48.01,237.47"
         inkscape:connector-curvature="0" /><path
         id="path24"
         style="fill:#d7bb31;fill-opacity:1;fill-rule:nonzero;stroke:none"
         d="m 9690.58,6145.82 c -23.79,36.71 -60.55,66.18 -103.44,92.14 24.57,-75.25 12.38,-155.63 -36.85,-221.26 -237.17,-291.9 -611.17,-200.68 -930.43,-264.53 -282.78,-301.02 -693.25,-401.36 -1103.74,-373.99 -63.85,9.11 -136.83,-36.5 -200.69,-63.85 -355.74,-200.69 -693.25,-456.11 -1085.49,-456.11 -547.3,-9.11 -1021.64,-191.55 -1495.98,-437.83 -63.85,-27.37 -127.7,-36.49 -191.56,-36.49 -410.48,-18.25 -820.96,-9.13 -1204.08,-209.8 -76.79,-42.67 -166.87,-64.02 -260.03,-65.79 173.79,-96.35 505.2,101.67 656.83,142.14 179.06,47.69 372.26,17.23 548.32,59.2 163,38.94 323.39,-80.81 491.69,-37.67 273.29,70.15 521.55,351.09 792.92,427.8 265.91,75.26 476.82,-42.44 755.68,-23.01 262.16,18.25 552.48,352.67 795.23,444.99 191.64,72.89 410.11,218.01 617.55,225.12 96.41,3.29 192.72,-12.04 290.07,-0.27 205.22,25 381.74,166.49 561.8,257.15 88.76,44.72 182.6,73.32 276.3,101.68 185.17,35.61 376.25,52.71 556.45,103.76 148.69,42.11 394.44,143.75 269.45,336.62"
         inkscape:connector-curvature="0" /><path
         id="path26"
         style="fill:#e88b1f;fill-opacity:1;fill-rule:nonzero;stroke:none"
         d="m 3757.93,5186.62 c 127.71,145.94 191.55,328.39 237.16,501.7 17.77,56.87 36.27,112.7 56.23,167.03 -158.8,-227.98 -296.87,-471.28 -415.44,-721.83 -21.24,-44.89 -42.58,-90.38 -64.58,-135.83 65.68,56.75 128.61,118.29 186.63,188.93"
         inkscape:connector-curvature="0" /><path
         id="path28"
         style="fill:#e88b1f;fill-opacity:1;fill-rule:nonzero;stroke:none"
         d="m 5609.65,7494.44 c 78.85,121.3 125.48,258.71 204.16,366.68 -163.28,-126.48 -326.16,-252.33 -473.89,-387.75 -121.58,-111.43 -186.12,-272.78 -267.23,-418.07 138.01,97.9 280.11,193.38 418.38,302.31 45.61,45.61 91.22,91.22 118.58,136.83"
         inkscape:connector-curvature="0" /><path
         id="path30"
         style="fill:#ffc536;fill-opacity:1;fill-rule:nonzero;stroke:none"
         d="m 7178.79,9013.88 c -86.35,40.9 -175.04,73.63 -269.68,82.46 -175.44,16.36 -316.69,-97.16 -309.78,-279.88 7.84,-207.09 206.59,-205.03 378.08,-253.24 229.29,-64.47 389,-191.8 503.06,-403.96 167.11,-310.81 284.34,-499.6 613.95,-664.95 363.09,-182.14 703.75,-349.72 1029.07,-611.97 148.2,-119.47 241.37,-322.77 455.17,-264.12 255.05,69.96 207.76,279.18 117.12,446.9 -169.8,314.24 -436.72,531.51 -724.87,718.12 -496.63,321.6 -856.74,842.96 -1423.55,1050.31 -125.03,45.73 -244.35,121.48 -368.57,180.33"
         inkscape:connector-curvature="0" /><path
         id="path32"
         style="fill:#e88b1f;fill-opacity:1;fill-rule:nonzero;stroke:none"
         d="m 10022.3,6036.33 c -71.68,-1.68 -246.07,41.19 -218.85,141.42 35.28,129.81 283.15,56.23 350.45,169.18 54.9,92.14 -27.1,210.01 6.3,298.5 27.2,72.24 101.4,50.52 142.6,-1.17 165,-206.85 -21.8,-601.87 -280.5,-607.93"
         inkscape:connector-curvature="0" /><path
         id="path34"
         style="fill:#e88b1f;fill-opacity:1;fill-rule:nonzero;stroke:none"
         d="m 7341.38,5077.99 c -103.34,-46.19 -203.87,-97.84 -302.54,-152.59 -22.1,-12.26 -155.93,-90.74 -143.29,-15.24 5.06,30.23 103.4,97.15 130.02,114.71 95.66,63.12 210.23,81.15 314.49,124.58 100.6,41.9 187.07,81.97 297.15,100.25 43.46,7.21 357.7,53.88 246.17,-63.67 -54.08,-56.99 -432.42,-59.05 -542,-108.04"
         inkscape:connector-curvature="0" /><path
         id="path36"
         style="fill:#e88b1f;fill-opacity:1;fill-rule:nonzero;stroke:none"
         d="m 8283.42,5274.23 c -41.37,-31.48 -159.66,-71.21 -209.24,-45.24 -116.81,61.2 131.86,122.92 178.55,134.24 97.8,23.71 100.91,-35.56 30.69,-89"
         inkscape:connector-curvature="0" /><path
         id="path38"
         style="fill:#e88b1f;fill-opacity:1;fill-rule:nonzero;stroke:none"
         d="m 5588.8,4564.6 c 5.91,1.04 11.88,1.93 17.9,2.69 54.41,6.91 111.75,1.64 166.55,4.15 59.45,2.71 270.7,15.77 141.68,103.54 -122.86,83.58 -394.2,5.34 -506.64,-66.29 -28.5,-18.16 -257.81,-148.77 -200.99,-181.46 22.15,-12.73 69.97,17.06 89.58,24.51 97.85,37.19 187.92,94.76 291.92,112.86"
         inkscape:connector-curvature="0" /><path
         id="path40"
         style="fill:#e88b1f;fill-opacity:1;fill-rule:nonzero;stroke:none"
         d="m 4333.3,4143.96 c 57.25,-3.66 118.99,-5.58 175.22,7.17 58.53,13.24 96.08,69.5 23.96,105.41 -53.57,26.66 -145.64,-2.18 -199.78,-13.66 -51.79,-11 -108.99,-34.99 -162.18,-36.31 -71.46,-1.78 -673.42,71.11 -636.21,-115.61 14.69,-73.73 249.6,-22 298.37,-10.83 115.91,26.53 223.07,71.23 343.66,76.08 16.22,0.63 82.66,-7.48 156.96,-12.25"
         inkscape:connector-curvature="0" /><path
         id="path42"
         style="fill:#797440;fill-opacity:1;fill-rule:nonzero;stroke:none"
         d="m 8882.29,5966.71 c 108.19,-6.29 315.53,16.6 322.64,223.76 -0.38,-90.24 -29.55,-154.73 -74.29,-198.99 -35.55,-35.15 -155.18,-46.99 -203.75,-59.46 -97.53,-25.06 -133.68,-20.55 -203.41,12.08 -115.19,54 -179.62,164.28 -171.12,294.82 -6.02,-169.77 231.05,-266.56 329.93,-272.21"
         inkscape:connector-curvature="0" /><path
         id="path44"
         style="fill:#797440;fill-opacity:1;fill-rule:nonzero;stroke:none"
         d="m 9019.39,6224.04 c 0.27,-3.55 0.27,-7.12 0.2,-10.49 -7.5,109.1 -237.82,95.87 -254.43,-0.09 -4.66,15.78 -4.2,33.56 3.2,53.19 35.48,94.86 242.91,76.98 251.03,-42.61"
         inkscape:connector-curvature="0" /><path
         id="path46"
         style="fill:#a29e5a;fill-opacity:1;fill-rule:nonzero;stroke:none"
         d="m 9019.58,6213.55 c 0.09,3.38 0.09,6.93 -0.2,10.5 -8.11,119.59 -215.53,137.47 -251.02,42.61 -7.39,-19.64 -7.85,-37.43 -3.19,-53.2 l 0,-0.1 c 1.46,-4.91 3.45,-9.65 5.84,-14.22 44.69,-85.12 244.55,-98.34 248.57,14.22 l 0,0.19 z m -435.48,128.81 c 93.22,164.91 630.69,137.19 620.83,-151.9 -7.11,-207.14 -214.45,-230.03 -322.64,-223.75 -98.88,5.65 -335.95,102.45 -329.94,272.2 1.19,31.93 10.86,66.41 31.75,103.45"
         inkscape:connector-curvature="0" /><path
         id="path48"
         style="fill:#773629;fill-opacity:1;fill-rule:nonzero;stroke:none"
         d="m 7242,5745.69 c 478.9,-228.04 1335.07,148.41 1232.18,726.74 -2.73,15.51 -6.02,30.55 -9.76,45.24 143.02,-541.56 -335.14,-753.38 -601.03,-845.87 -93.83,-32.67 -185.83,-15.83 -295.1,-9.02 -95.06,5.93 -207.14,-3.37 -295.2,36.75 -163.03,74.28 -299.14,210.6 -353.09,421.71 41.96,-161.01 161.55,-299.19 322,-375.55"
         inkscape:connector-curvature="0" /><path
         id="path50"
         style="fill:#9b3723;fill-opacity:1;fill-rule:nonzero;stroke:none"
         d="M 8474.18,6472.43 C 8577.07,5894.1 7720.9,5517.65 7242,5745.69 c -160.45,76.36 -280.04,214.54 -322,375.55 -39.22,150.59 -10.58,321.26 115.95,480.09 328.64,412.38 1275.59,519.39 1428.47,-83.66 3.74,-14.69 7.04,-29.73 9.76,-45.24"
         inkscape:connector-curvature="0" /><path
         id="path52"
         style="fill:#a29e5a;fill-opacity:1;fill-rule:nonzero;stroke:none"
         d="m 7299.65,7308.26 c 8.04,13.78 11.77,30.65 9.49,50.72 -11.21,97.42 -210.44,129.16 -246.11,18.61 -1.09,-3.38 -1.99,-6.66 -2.55,-9.86 -0.09,-0.08 -0.09,-0.08 -0.09,-0.18 -22.44,-106.81 168.58,-141.02 230.5,-71.51 3.29,3.74 6.21,7.75 8.76,12.13 l 0,0.09 z m 205.98,-26.36 c -34.3,-160.64 -279.58,-196.03 -373.81,-178.33 -103.18,19.33 -292.73,89.39 -250.95,285.78 58.29,274.21 570.03,174.6 619.2,-2.36 11.04,-39.87 12.13,-74.72 5.56,-105.09"
         inkscape:connector-curvature="0" /><path
         id="path54"
         style="fill:#797440;fill-opacity:1;fill-rule:nonzero;stroke:none"
         d="M 7505.63,7281.91 C 7483,7157.38 7396.63,7069 7275.84,7045.2 c -155.43,-30.57 -465.39,56.36 -394.98,344.16 -41.77,-196.4 147.78,-266.45 250.96,-285.79 94.23,-17.71 339.5,17.7 373.81,178.34"
         inkscape:connector-curvature="0" /><path
         id="path56"
         style="fill:#797440;fill-opacity:1;fill-rule:nonzero;stroke:none"
         d="m 7309.14,7358.98 c 2.28,-20.06 -1.46,-36.94 -9.49,-50.72 6.84,94.14 -206.6,160.46 -239.17,59.47 0.55,3.2 1.46,6.48 2.55,9.86 35.67,110.56 234.9,78.81 246.11,-18.61"
         inkscape:connector-curvature="0" /><path
         id="path58"
         style="fill:#747e0c;fill-opacity:1;fill-rule:nonzero;stroke:none"
         d="m 7014.43,6774.54 -156.82,-182.43 c -80.18,121.86 -219.47,299.92 -310.96,222.11 -109.27,-92.94 72.14,-325.74 65.76,-434.75 -10.48,-179.97 -224.03,-180.78 -360.68,-214.17 -142.21,-34.67 -208.87,-130.72 -128.05,-223.76 94.59,-108.73 484.45,-103.82 625.93,-80.82 l 49.18,-265.08 c -213.83,-2.28 -395.18,45.06 -582.36,140.66 -273.64,139.74 -304.39,433.1 -18.61,577.6 143.95,72.69 293.18,85.84 280.59,281.59 -7.66,118.94 -47.78,215.72 48.8,314.78 129.17,132.37 379.84,-3.83 487.22,-135.73"
         inkscape:connector-curvature="0" /><path
         id="path60"
         style="fill:#b0c823;fill-opacity:1;fill-rule:nonzero;stroke:none"
         d="m 6757.85,5651.64 c -195.92,1.04 -356.46,26.53 -533.12,100.91 -136.03,57.25 -209.78,173.88 -209.56,285.6 0.21,103.67 69.79,198.23 190.89,259.46 27.89,14.1 56.19,25.98 83.57,37.48 112.07,47.1 217.93,91.57 207,261.56 -1.61,24.84 -4.57,48.52 -7.42,71.41 -41.9,335.13 343.77,285.87 501.24,106.58 l -135.86,-128.53 c -103.1,152.16 -186.55,205.39 -257.79,205.39 -22.88,0 -43.73,-7.87 -61.97,-23.38 -78.89,-67.1 -29.09,-189.23 14.88,-297.03 84.62,-207.55 -83.12,-210.81 -230.51,-270.93 -120.97,-49.35 -375.55,-200.36 -199.32,-340.81 111.69,-89.02 286.6,-90.31 423.18,-90.31 70.14,0 140.14,4.09 191.81,11.06"
         inkscape:connector-curvature="0" /><path
         id="path62"
         style="fill:#aa9f8f;fill-opacity:1;fill-rule:nonzero;stroke:none"
         d="m 6818.03,7673.14 c 20.86,-103.66 -2.16,-197.66 -52.32,-272.71 -25.48,-38.11 -59.31,-47.48 -96.62,-74.57 -40.67,-29.56 -85.74,-75.7 -135.02,-89.11 -52.24,-14.21 -107.7,-18.46 -163.01,-10.86 l -0.18,0 c -2.84,18.61 -6.3,37.22 -9.67,55.56 -0.19,0.82 -0.28,1.64 -0.47,2.46 140.76,-78 340.25,45.43 410.94,173.13 40.05,72.35 55.1,145.87 46.35,216.1"
         inkscape:connector-curvature="0" /><path
         id="path64"
         style="fill:#cec4b3;fill-opacity:1;fill-rule:nonzero;stroke:none"
         d="m 6817.93,7673.59 c 0,-0.09 0,-0.28 0.1,-0.46 8.75,-70.23 -6.3,-143.75 -46.35,-216.09 -70.69,-127.71 -270.19,-251.13 -410.94,-173.14 0.18,-0.82 0.28,-1.63 0.47,-2.45 3.37,-18.34 6.83,-36.95 9.66,-55.56 3.47,-22.08 6.21,-44.06 7.3,-65.59 l 0,-0.17 c 4.1,-78.91 -13.96,-151.52 -99.34,-196.59 -116.3,-61.48 -347.99,5.84 -412.03,124.88 -20.61,38.31 -28.73,70.6 -28,98.71 0.08,2.91 0.17,5.75 0.45,8.48 1.73,20.43 8.21,38.5 17.88,55.18 17.42,29.92 44.97,55.01 74.07,79.64 -173.95,-90.3 -330.21,88.66 -341.34,246.2 -1.55,22.25 -1.1,43.68 1.37,64.39 31.65,274.12 393.97,415.23 637.8,418.88 160.72,2.37 304.76,-37.02 434.29,-138.01 90.59,-70.6 142.93,-156.72 154.61,-248.3"
         inkscape:connector-curvature="0" /><path
         id="path66"
         style="fill:#797440;fill-opacity:1;fill-rule:nonzero;stroke:none"
         d="m 6463.91,5360.84 c 9.72,-77.39 -4.99,-149.41 -40.37,-209.28 -29.04,-49.15 -128.38,-67.68 -183.2,-96.67 -66.31,-35.09 -113.05,-78.8 -210.63,-65.98 -130.26,17.12 -250.66,94.96 -260.51,281.81 18.33,-221.01 241.17,-234.79 356.47,-222.39 106.37,11.31 357.95,128.8 338.24,312.51"
         inkscape:connector-curvature="0" /><path
         id="path68"
         style="fill:#a29e5a;fill-opacity:1;fill-rule:nonzero;stroke:none"
         d="m 6463.91,5360.84 c 19.71,-183.71 -231.87,-301.2 -338.24,-312.51 -115.3,-12.4 -338.14,1.38 -356.47,222.39 -25.64,308.59 547.58,366.16 655.76,194.65 23.27,-36.84 35.39,-71.78 38.95,-104.53 m -497.78,-55.36 c 9.49,-120.86 223.12,-96.23 266.54,-2.93 2.37,5.02 4.2,10.22 5.47,15.6 l 0,0.09 c 4.11,17.15 2.65,36.13 -6.19,56.65 -42.79,99.61 -263.72,69.69 -266.18,-58.65 -0.1,-3.74 0,-7.29 0.36,-10.76"
         inkscape:connector-curvature="0" /><path
         id="path70"
         style="fill:#aa9f8f;fill-opacity:1;fill-rule:nonzero;stroke:none"
         d="m 6378.17,7160.12 c 8.02,-45.06 11.22,-93.5 0.82,-138.47 -20.43,-88.29 -122.42,-131.45 -204.51,-135.82 -59.57,-3.2 -106.32,48.72 -159.3,71.28 -37.11,15.8 -66.13,22.64 -127.28,47.41 -55.23,22.37 -52.21,121.22 -49.1,182.6 -0.73,-28.09 7.39,-60.38 28,-98.69 64.04,-119.05 295.73,-186.37 412.03,-124.89 85.38,45.07 103.44,117.68 99.34,196.58"
         inkscape:connector-curvature="0" /><path
         id="path72"
         style="fill:#797440;fill-opacity:1;fill-rule:nonzero;stroke:none"
         d="m 6231.95,5374.89 c 8.84,-20.53 10.31,-39.5 6.2,-56.65 -22.71,101.62 -269.1,103.98 -272.02,-12.76 -0.36,3.46 -0.45,7.02 -0.36,10.76 2.46,128.34 223.39,158.26 266.18,58.65"
         inkscape:connector-curvature="0" /><path
         id="path74"
         style="fill:#aa9f8f;fill-opacity:1;fill-rule:nonzero;stroke:none"
         d="m 5931.2,7330.43 c -29.1,-24.63 -56.65,-49.72 -74.07,-79.63 -196.67,-15.24 -299.01,191.19 -265.99,390.23 l 0.09,0 c -2.46,-20.71 -2.93,-42.14 -1.37,-64.4 11.12,-157.53 167.39,-336.5 341.34,-246.2"
         inkscape:connector-curvature="0" /><path
         id="path76"
         style="fill:#773629;fill-opacity:1;fill-rule:nonzero;stroke:none"
         d="m 4554.63,5777.44 c 376.46,-356.48 1314.26,9.31 1295.21,539.55 -3.12,87.48 -17.34,163.29 -40.5,228.5 56.18,-150.77 114.38,-398.52 -83.57,-622.74 -20.82,-23.58 -43.03,-46.14 -66.43,-67.6 -48.98,-44.86 -106.96,-48.26 -164.23,-83.64 -71.5,-44.17 -134.82,-102.59 -168.36,-118.04 -276.55,-127.6 -533.57,-103.34 -763.01,78.35 -123.42,97.71 -191.65,250.84 -199.49,388.69 12.41,-113.21 70.88,-229.88 190.38,-343.07"
         inkscape:connector-curvature="0" /><path
         id="path78"
         style="fill:#9b3723;fill-opacity:1;fill-rule:nonzero;stroke:none"
         d="m 5849.83,6316.99 c 19.07,-530.24 -918.75,-896.04 -1295.21,-539.55 -119.49,113.19 -177.96,229.86 -190.37,343.07 -66.77,607.51 1191.77,1113.77 1442.99,430.64 0.72,-1.84 1.36,-3.75 2.1,-5.66 23.16,-65.21 37.39,-141.02 40.49,-228.5"
         inkscape:connector-curvature="0" /><path
         id="path80"
         style="fill:#ae1808;fill-opacity:1;fill-rule:nonzero;stroke:none"
         d="m 5675.33,5684.12 c 0,0 -40.55,-297.77 -274.4,-555.06 -104.21,-114.65 -374.57,-169.92 -569.07,-238.54 -236.37,-83.39 -281.65,-122.21 -405.63,-73.95 -202.75,78.94 -274.3,253.48 -277.07,260.49 108.91,-201.32 407.92,-186.82 689.06,-90.85 567.65,193.56 762.76,487.46 837.11,697.91"
         inkscape:connector-curvature="0" /><path
         id="path82"
         style="fill:#ea2d1b;fill-opacity:1;fill-rule:nonzero;stroke:none"
         d="m 5675.33,5684.12 c -74.35,-210.45 -269.46,-504.35 -837.11,-697.91 -281.14,-95.97 -580.15,-110.47 -689.06,90.85 -0.1,0.1 -0.1,0.18 -0.1,0.18 0,0 1526.09,606.79 1526.27,606.88"
         inkscape:connector-curvature="0" /><path
         id="path84"
         style="fill:#ae1808;fill-opacity:1;fill-rule:nonzero;stroke:none"
         d="m 5357.72,5557.82 c -7.08,-26.26 -16.4,-51.81 -27.68,-76.47 -12.24,-26.8 -12.9,-74.55 -29.4,-99.19 -23.72,-35.4 -65.34,-46.49 -95.99,-76.68 -49.15,-48.45 -93.57,-113.29 -153.26,-145.41 -31.18,-16.79 -75.44,-7.47 -107.63,-19.06 -69.56,-25.29 -143.41,-58.93 -217.56,-62.58 -66.66,-3.29 -147.33,2.7 -211.29,19.81 -35.16,9.4 -55.71,40.58 -88.64,56.8 -11.71,5.77 -23.26,11.99 -34.61,18.65 -52.09,-20.7 -98.06,-38.99 -135.52,-53.88 21.45,-18.23 44.3,-34.85 68.27,-49.76 32.16,-20.02 82.37,-11.36 117.88,-24.93 27.94,-10.68 40.68,-44.87 69.94,-51.25 81.59,-17.79 159.95,31.7 242.03,51.25 58.15,14.18 124.25,-17.07 182.21,6.22 31.8,12.76 47.77,43.02 78.6,58.45 59.03,29.54 131.2,47.75 183.22,86.72 43.13,32.3 61.93,77.78 97.39,116.32 29.54,32.09 77.13,56.31 99.72,92.58 37.64,60.46 64.61,126.61 77.43,198.19 -35.11,-13.97 -73.78,-29.33 -115.11,-45.78"
         inkscape:connector-curvature="0" /><path
         id="path86"
         style="fill:#747e0c;fill-opacity:1;fill-rule:nonzero;stroke:none"
         d="m 4426.28,5560.43 -135.46,-139.84 c -245.19,222.21 -226.77,-315.06 -312.43,-435.01 -72.15,-101.08 -237.25,-85.66 -297.09,-203.25 -43.05,-84.63 -7.84,-207.42 38.4,-283.6 l -228.41,-91.93 c -111.1,165.09 66.13,297.55 165.01,410.38 129.26,147.5 271.02,345.62 340.89,528.79 72.88,190.83 193.38,423.63 429.09,214.46"
         inkscape:connector-curvature="0" /><path
         id="path88"
         style="fill:#b0c823;fill-opacity:1;fill-rule:nonzero;stroke:none"
         d="m 3504.25,4444.69 c -61.01,122.02 11.36,201.89 105.29,299.81 18.36,19.16 44.06,47.59 59.86,65.62 74.74,85.3 249.09,179.49 344.83,529.36 37.51,137.04 123.79,285.08 240.01,285.08 43.96,0 92.82,-21.97 145.43,-65.36 l -109.94,-113.49 c -152.35,238.41 -206.66,-22.97 -247.78,-199.88 -23.65,-101.7 -68.72,-201.26 -142.54,-277.22 -70.05,-72.1 -186.25,-83.41 -234.37,-178 -42.14,-82.84 -35.68,-184.46 -7.98,-277"
         inkscape:connector-curvature="0" /><path
         id="path90"
         style="fill:#e4c7c3;fill-opacity:1;fill-rule:nonzero;stroke:none"
         d="m 7434.43,6088.24 c 38.4,137.78 -131.23,221.42 -235.03,133.68 -144.83,-122.39 182.87,-320.81 235.03,-133.68 m 504.56,581.25 c 9.99,138.17 -175.54,62.82 -225.81,4.48 -121.72,-141.24 216.96,-126.95 225.81,-4.48 m 437.72,-454.84 c 22.81,68.51 29.18,162.54 -46.05,198.89 -125.86,60.81 -165.64,-140.38 -131.59,-222.24 47.36,-113.84 143.66,-78.8 177.64,23.35 m -673.3,-198.99 c 12.04,54.71 -102.16,42.28 -120.66,11.06 -40.05,-67.64 106.97,-73.44 120.66,-11.06 m -498.11,441.19 c 61.72,54.49 53.04,146.3 -45.57,123.16 -122.64,-28.8 -67.28,-222.74 45.57,-123.16 m 308.61,-307.56 c 122.55,-141.06 608.8,125.56 403.79,270.73 -125.68,88.98 -538.32,-115.88 -403.79,-270.73 M 5606.3,6573.84 c 96.5,199.05 -314.37,211.09 -410.03,113.71 -221.14,-225.1 304.16,-332.07 410.03,-113.71 m 51.06,-291.82 c 54.36,72.74 14.73,197.55 -92.43,157.07 -132.2,-49.94 -7.75,-291.17 92.43,-157.07 m -309.71,-228.73 c -6.4,8.38 -19.59,4.07 -31.59,-2.62 -13.36,-7.44 -72.59,-74.2 -31.82,-77.36 25.72,-2 69.25,41.74 67.19,68.07 -0.44,5.41 -1.78,9.28 -3.78,11.91 M 5143.7,5891.18 c 135.54,208.08 -259.66,221.36 -325.41,54.83 -69.39,-175.71 250.01,-170.57 325.41,-54.83 m -472.71,617.27 c 81.75,76.84 254.31,43.06 126.44,-78.86 -86.62,-82.56 -232.21,-20.56 -126.44,78.86"
         inkscape:connector-curvature="0" /><path
         id="path92"
         style="fill:#fff1e0;fill-opacity:1;fill-rule:nonzero;stroke:none"
         d="m 5667.79,7679.5 c 77.78,235.71 341.97,341.35 561.76,333.7 220.77,-7.7 547.6,-70.77 529.71,-363.93 -10.03,-164.54 -89.42,-290.98 -252.19,-340.55 -53.34,-16.25 -122.44,-23.8 -167.6,16.29 -115.39,102.41 85.66,209.47 92.63,75.49 23.49,47.03 32.42,104.39 -20.02,134.17 -46.07,26.15 -115.99,23.58 -149.78,-21.16 -87.31,-115.62 55.3,-274.24 20.63,-397.47 -45.74,-162.55 -373.53,-101.97 -395.85,54.29 -13.84,96.93 108.11,158.54 116.23,254.52 5.21,61.63 -4.55,140.22 -79.97,148.81 -78.73,8.96 -117.53,-53.72 -90.41,-130.26 41.94,125.43 199.44,-3.85 62.31,-61.67 -172.29,-72.65 -265.58,182.22 -227.45,297.77"
         inkscape:connector-curvature="0" /><path
         id="path94"
         style="fill:#ff7b76;fill-opacity:1;fill-rule:nonzero;stroke:none"
         d="m 4595.86,5104.32 c -53.54,5.93 -85.11,80.91 -138.89,75.3 -23.88,-2.49 -9.88,-26.66 1.01,-37.53 26.56,-26.5 71.67,-35.18 107.16,-42.59 42.51,-8.91 89.26,-11.2 132.42,-6.63 65.78,6.93 128.76,33.86 191.6,52.24 51.75,15.12 110.74,11.96 158.8,37.44 77.54,41.14 122.27,115.22 189.77,163.34 20.29,14.48 39.63,31.5 53.45,52.43 14.02,21.22 13.43,41.07 20.95,63.52 4.67,13.89 43.07,73.96 1.3,64.57 -26.38,-5.93 -28.87,-38 -27.3,-58.95 2.55,-33.87 9.92,-59.68 -21,-82.34 -28.7,-21.03 -63.83,-32.67 -89.63,-57.76 -38.75,-37.68 -74.96,-72.58 -121.48,-100.67 -23.61,-14.26 -51.21,-33.25 -79.05,-37.53 -30.84,-4.72 -61.97,8.46 -93.2,4.68 -99.88,-12.02 -179.16,-101.34 -285.91,-89.52"
         inkscape:connector-curvature="0" /></g></g></svg>