
<svg xmlns="http://www.w3.org/2000/svg" version="1.1" xmlns:xlink="http://www.w3.org/1999/xlink" preserveAspectRatio="none" x="0px" y="0px" width="200px" height="200px" viewBox="0 0 200 200">
<defs>
<filter id="Filter_1" x="-20%" y="-20%" width="140%" height="140%" color-interpolation-filters="sRGB">
<feColorMatrix in="SourceGraphic" type="matrix" values="1 0 0 0 0 0 1 0 0 0 0 0 1 0 0 0 0 0 0 0" result="result1"/>
</filter>

<g id="Symbol_1_0_Layer0_0_FILL">
<path fill="#93A2AE" fill-opacity="0" stroke="none" d="
M 0 0
L 0 200 200 200 200 0 0 0 Z"/>
</g>

<g id="stiker_222222_0_Layer5_1_FILL">
<path fill="#4D4D4D" stroke="none" d="
M 177.65 86.6
Q 177.4 86.4 177.15 86.6 174.75 88.55 173.55 93.3 172.15 92.8 170.35 92.3 170.6 91.8 171.35 89.8 172.25 87.5 172.45 86.9 172.8 86 172.95 85.5 173.2 84.65 173.15 84 173.05 83.6 172.8 83.45 172.45 83.3 172.25 83.6 171.75 84.15 171.15 86 170.65 87.4 170.15 89.2
L 169.35 92
Q 164.95 90.85 158.75 89.8 157.7 88 156.95 85.9 155.65 81.85 153.35 69.25
L 151.35 57.5 150.65 61.3
Q 149.7 65.9 148.15 70.2 143.35 83.95 135.15 89 132.55 89.2 131.25 89.4 131.05 86 130.85 84.4
L 130.35 80.5
Q 129.95 78 129.45 77.1 129.2 76.7 128.75 76.8 128.25 76.85 128.15 77.3 127.85 78.75 128.2 81 128.45 82.3 128.95 84.7 129.35 86.7 130.05 89.6
L 128.05 89.9 127.35 87.8
Q 126.7 85.75 126.25 84.7 125.55 82.85 124.65 81.9 124.45 81.7 124.15 81.8 123.85 81.9 123.85 82.2 123.8 83.55 124.55 85.5 125 86.6 125.95 88.6
L 126.55 90
Q 122.15 90.8 120.05 91.3 112.85 89.75 108.05 84.2
L 91.75 63.3 98.95 88.7
Q 100.1 93.9 100.55 95.7 100.65 96.5 100.85 98 89.95 103.45 82.15 111.1
L 59.75 108 73.65 121.5
Q 72.6 123.15 71.35 125.8 69.4 125.15 67.65 125 67.35 125 67.3 125.3 67.2 125.55 67.45 125.7 68.6 126.4 70.75 127.1 69.85 129.4 69.65 130 67.95 130 67.15 130.1 66.9 130.2 66.9 130.45 66.85 130.75 67.05 130.8 68.15 131.35 69.15 131.5 67.45 137.2 67.45 143 67.45 145.8 67.95 149.3
L 56.55 154.9 70.65 158.7
Q 73.7 166.05 79.55 172.6 85.3 179.05 93.25 184.1 90.75 191.3 89.95 193.9
L 85.95 206.5 97.45 200.1
Q 101.95 197.55 102.65 197.2 102.1 197.6 100.95 198.4 99.95 199.1 99.45 199.7
L 98.75 200.2
Q 98.45 200.5 98.4 201.05 98.4 201.6 98.75 201.9 99.6 202.55 100.8 202.55 101.1 202.55 102.95 202.3 105.65 201.8 107.85 201 111.25 199.85 114.85 197.9 113.45 200.5 113.15 201.9 113.15 202.15 113.4 202.3 113.6 202.4 113.75 202.2 114.5 201.25 115.25 199.7 115.35 199.45 116.35 197
L 116.95 196.7
Q 117.85 196.2 119.45 195
L 120.65 195.3
Q 119.05 198.9 118.15 200.7 117.25 202.5 115.15 206 115.05 206.15 115.25 206.3 115.4 206.45 115.55 206.3 118.9 202.4 120.95 195.4
L 123.35 195.9
Q 126.55 198.35 128.25 202.2
L 137.85 224.4 142.8 214
Q 146.6 205.9 148 202.9 149.95 198.7 154.35 197.3 155.8 197.2 158.5 196.8 162.5 196.95 165.35 199.9 168.35 203 173 207.6
L 183.5 218.3 181.6 197
Q 181.3 192.85 183.7 189.7
L 185 189.1 185.7 190.4
Q 187.65 194.1 188.7 195.4 188.85 195.55 189.05 195.45 189.25 195.3 189.2 195.1 188.75 193.9 187.9 192.45 186.9 190.75 186.4 189.9
L 185.7 188.7 187.4 187.8
Q 188.95 190.4 190.4 192.1 190.55 192.25 190.7 192.1 190.9 191.95 190.8 191.8 190.05 190.1 188.1 187.4 190.5 186.1 191.6 185.4 194.3 185.25 197 186.6 204.7 190.65 206.85 191.8
L 226 201.9 213.6 184.25
Q 210.6 180.1 206.3 173.55 210.35 169.05 213.15 164.05 217.15 166.1 219 166.75 219.2 166.8 219.25 166.6 219.3 166.35 219.15 166.25 217.25 164.8 213.65 163.1
L 215.15 160
Q 217.85 161.25 219.8 161.5 220.25 161.5 220.35 161.1 220.4 160.75 220.1 160.5 218.95 159.55 215.8 158.5 218.65 151.1 218.65 143.4
L 218.55 141.4
Q 220.55 140.5 224.35 139
L 243.75 131.1 216.75 128.4
Q 216.05 128.4 215.75 128.3 212.6 120.4 206.35 113.6 206.45 113.35 206.35 113.15 206.2 112.95 206 113
L 205.85 113
Q 203.4 110.25 199.5 107 199.75 103.9 201 101.2 201.35 100.3 203 96.5
L 209.85 80.8 195.35 90.1
Q 190.3 93.25 185.85 96.2 185 96.9 183.85 97.4 180.05 95.5 174.35 93.6 175.35 91.2 175.95 90.1 177.25 88.2 177.75 87.1 177.9 86.8 177.65 86.6 Z"/>
</g>

<g id="stiker_222222_0_Layer5_3_FILL">
<path fill="#FFFFFF" stroke="none" d="
M 177.65 86.6
Q 177.4 86.4 177.15 86.6 174.75 88.55 173.55 93.3 172.15 92.8 170.35 92.3 170.6 91.8 171.35 89.8 172.25 87.5 172.45 86.9 172.8 86 172.95 85.5 173.2 84.65 173.15 84 173.05 83.6 172.8 83.45 172.45 83.3 172.25 83.6 171.75 84.15 171.15 86 170.65 87.4 170.15 89.2
L 169.35 92
Q 164.95 90.85 158.75 89.8 157.7 88 156.95 85.9 155.65 81.85 153.35 69.25
L 151.35 57.5 150.65 61.3
Q 149.7 65.9 148.15 70.2 143.35 83.95 135.15 89 132.55 89.2 131.25 89.4 131.05 86 130.85 84.4
L 130.35 80.5
Q 129.95 78 129.45 77.1 129.2 76.7 128.75 76.8 128.25 76.85 128.15 77.3 127.85 78.75 128.2 81 128.45 82.3 128.95 84.7 129.35 86.7 130.05 89.6
L 128.05 89.9 127.35 87.8
Q 126.7 85.75 126.25 84.7 125.55 82.85 124.65 81.9 124.45 81.7 124.15 81.8 123.85 81.9 123.85 82.2 123.8 83.55 124.55 85.5 125 86.6 125.95 88.6
L 126.55 90
Q 122.15 90.8 120.05 91.3 112.85 89.75 108.05 84.2
L 91.75 63.3 98.95 88.7
Q 100.1 93.9 100.55 95.7 100.65 96.5 100.85 98 89.95 103.45 82.15 111.1
L 59.75 108 73.65 121.5
Q 72.6 123.15 71.35 125.8 69.4 125.15 67.65 125 67.35 125 67.3 125.3 67.2 125.55 67.45 125.7 68.6 126.4 70.75 127.1 69.85 129.4 69.65 130 67.95 130 67.15 130.1 66.9 130.2 66.9 130.45 66.85 130.75 67.05 130.8 68.15 131.35 69.15 131.5 67.45 137.2 67.45 143 67.45 145.8 67.95 149.3
L 56.55 154.9 70.65 158.7
Q 73.7 166.05 79.55 172.6 85.3 179.05 93.25 184.1 90.75 191.3 89.95 193.9
L 85.95 206.5 97.45 200.1
Q 101.95 197.55 102.65 197.2 102.1 197.6 100.95 198.4 99.95 199.1 99.45 199.7
L 98.75 200.2
Q 98.45 200.5 98.4 201.05 98.4 201.6 98.75 201.9 99.6 202.55 100.8 202.55 101.1 202.55 102.95 202.3 105.65 201.8 107.85 201 111.25 199.85 114.85 197.9 113.45 200.5 113.15 201.9 113.15 202.15 113.4 202.3 113.6 202.4 113.75 202.2 114.5 201.25 115.25 199.7 115.35 199.45 116.35 197
L 116.95 196.7
Q 117.85 196.2 119.45 195
L 120.65 195.3
Q 119.05 198.9 118.15 200.7 117.25 202.5 115.15 206 115.05 206.15 115.25 206.3 115.4 206.45 115.55 206.3 118.9 202.4 120.95 195.4
L 123.35 195.9
Q 126.55 198.35 128.25 202.2
L 137.85 224.4 142.8 214
Q 146.6 205.9 148 202.9 149.95 198.7 154.35 197.3 155.8 197.2 158.5 196.8 162.5 196.95 165.35 199.9 168.35 203 173 207.6
L 183.5 218.3 181.6 197
Q 181.3 192.85 183.7 189.7
L 185 189.1 185.7 190.4
Q 187.65 194.1 188.7 195.4 188.85 195.55 189.05 195.45 189.25 195.3 189.2 195.1 188.75 193.9 187.9 192.45 186.9 190.75 186.4 189.9
L 185.7 188.7 187.4 187.8
Q 188.95 190.4 190.4 192.1 190.55 192.25 190.7 192.1 190.9 191.95 190.8 191.8 190.05 190.1 188.1 187.4 190.5 186.1 191.6 185.4 194.3 185.25 197 186.6 204.7 190.65 206.85 191.8
L 226 201.9 213.6 184.25
Q 210.6 180.1 206.3 173.55 210.35 169.05 213.15 164.05 217.15 166.1 219 166.75 219.2 166.8 219.25 166.6 219.3 166.35 219.15 166.25 217.25 164.8 213.65 163.1
L 215.15 160
Q 217.85 161.25 219.8 161.5 220.25 161.5 220.35 161.1 220.4 160.75 220.1 160.5 218.95 159.55 215.8 158.5 218.65 151.1 218.65 143.4
L 218.55 141.4
Q 220.55 140.5 224.35 139
L 243.75 131.1 216.75 128.4
Q 216.05 128.4 215.75 128.3 212.6 120.4 206.35 113.6 206.45 113.35 206.35 113.15 206.2 112.95 206 113
L 205.85 113
Q 203.4 110.25 199.5 107 199.75 103.9 201 101.2 201.35 100.3 203 96.5
L 209.85 80.8 195.35 90.1
Q 190.3 93.25 185.85 96.2 185 96.9 183.85 97.4 180.05 95.5 174.35 93.6 175.35 91.2 175.95 90.1 177.25 88.2 177.75 87.1 177.9 86.8 177.65 86.6 Z"/>
</g>

<g id="stiker_222222_0_Layer5_4_FILL">
<path fill="#000000" stroke="none" d="
M 195.5 90.2
Q 190.45 93.35 186 96.3 182.2 98.75 177.75 99.3 173.3 99.8 169 98.3 164.7 96.8 161.55 93.6 158.45 90.4 157 86 155.7 81.95 153.4 69.35
L 151.4 57.6
Q 150.4 65.45 146.95 73.65 140.1 90 128.1 91.7 122.4 92.5 117.15 90.55 111.85 88.6 108.1 84.3
L 91.8 63.4 99 88.8 100.55 95.8
Q 101.3 98.95 100.55 102.05 99.75 105.1 97.55 107.5 95.3 109.95 92.3 111.05 89.3 112.15 86.05 111.7
L 59.75 108 70.95 119
Q 71.95 119.9 73.85 121.8 76.8 124.75 78.05 128.55 79.3 132.35 78.65 136.4 77.95 140.55 75.6 143.75 73.2 147 69.45 148.8
L 56.65 155.1 70.15 158.7
Q 80.35 161.4 83.55 162.2 86.7 162.95 89.25 164.95 91.75 166.95 93.25 169.8 94.8 172.65 95.05 175.85 95.3 179 94.15 182.1 92.1 187.6 90.05 194
L 86.05 206.6 97.55 200.2
Q 102.9 197.15 107.25 194.8 110.1 193.25 113.25 193 116.35 192.75 119.35 193.8 122.35 194.85 124.7 197.05 127.05 199.3 128.25 202.2
L 137.85 224.4 142.8 214
Q 146.6 205.9 148 202.9 149.15 200.5 151.2 198.95 153.25 197.35 155.85 196.9 158.5 196.45 161 197.25 163.5 198.05 165.35 199.9 168.35 203 173 207.6
L 183.05 218.1 181.15 196.8
Q 180.95 193.85 182.15 191.3 183.4 188.75 185.85 187.1 188.3 185.45 191.2 185.3 194 185.15 196.65 186.5 203.25 189.9 206.55 191.7
L 225.65 201.8 213.25 184.1
Q 208.25 176.85 204.85 171.6 202.55 168 202 163.8 201.4 159.6 202.65 155.5 203.95 151.35 206.8 148.15 209.7 144.95 213.65 143.3
L 243.65 131 216.65 128.3
Q 211.95 127.85 208.1 125.35 204.2 122.85 201.8 118.7 199.55 114.65 199.35 110.05 199.15 105.4 201 101.2 201.35 100.3 203 96.5
L 210 80.9 195.5 90.2
M 165.3 108.2
Q 171.15 110.2 177.25 109.8 183.3 109.4 188.8 106.6 187.8 115.65 192.8 124.2 197.35 132 205.5 135.9 200.9 138.75 197.6 143.05 194.25 147.3 192.65 152.5 190.95 158.15 191.5 164.05 192.05 169.95 194.8 175.1 186.9 173.85 180.1 178.4 172.9 183.15 171.2 191.2 167.65 188.2 163.15 187 158.65 185.8 154 186.6 149 187.45 144.85 190.6 140.7 193.75 138.5 198.4
L 138.2 199 137.9 198.2
Q 135.8 193.25 131.85 189.55 127.9 185.8 122.8 184 118.5 182.6 114.5 182.6 108.95 182.6 104.5 184.8 106.05 179.95 105.6 174.8 105.1 169.7 102.7 165.1 100.15 160.3 95.85 156.95 91.55 153.55 86.3 152.2
L 83.2 151.4
Q 88 145.7 89.2 138.2 90.4 129.8 86.9 122.3 92.1 122.55 96.95 120.5 101.8 118.5 105.3 114.6 108.05 111.55 109.6 107.65 111.15 103.75 111.3 99.6 119.8 103.45 129.4 102.1 134.8 101.3 139.6 98.8 144.4 96.35 148.1 92.5 150.65 98 155.1 102.1 159.55 106.2 165.3 108.2 Z"/>
</g>

<g id="stiker_222222_0_Layer5_5_FILL">
<path fill="#9833CB" stroke="none" d="
M 211.65 138.6
L 222.35 134.1 216.15 133.5
Q 203.7 132.3 197.35 121.55 191.05 110.75 196.05 99.3
L 198.15 94.4 188.8 100.5
Q 178.55 107.1 167.15 103.1 155.75 99.05 152 87.5 151.45 86.05 149.8 80.9 146.75 87.6 141 91.8 135.5 95.8 128.75 96.8 121.95 97.75 115.55 95.5 108.85 93.1 104.05 87.6
L 105.65 94.5
Q 107.8 103.85 101.35 111 94.9 118.15 85.35 117.1
L 74.65 115.6
Q 75.25 116.3 77.5 118.4 85.7 126.35 83.9 137.55 82.05 148.8 71.8 153.8 71.55 153.9 71.5 153.9 72.75 154.25 84.8 157.4 93.6 159.65 97.85 167.65 102.05 175.65 99 184.2 97.65 187.7 95 195.9
L 104.8 190.5
Q 112.7 186.15 121.15 189.1 129.65 192.1 133.1 200.4
L 138.1 211.9 143.3 200.8
Q 146.9 193.3 155.1 191.9 163.25 190.45 169.1 196.3
L 176.8 204 176.15 197.3
Q 175.3 187.95 183.05 182.75 190.8 177.55 199.15 181.9 205.75 185.3 209.05 187.1 203.8 179.7 200.55 174.5 194.35 164.9 197.75 153.95 201.15 143.05 211.65 138.6 Z"/>
</g>

<g id="stiker_222222_0_Layer5_6_FILL">
<path fill="#000000" stroke="none" d="
M 123.8 82.1
Q 123.75 83.45 124.5 85.4 124.95 86.5 125.9 88.5 127.7 92.7 128.85 94.6 129.05 94.8 129.15 94.8 129.3 94.75 129.3 94.6 128.65 91.55 127.3 87.7 126.65 85.65 126.25 84.6 125.55 82.75 124.6 81.8 124.4 81.6 124.1 81.7 123.8 81.8 123.8 82.1 Z"/>
</g>

<g id="stiker_222222_0_Layer5_7_FILL">
<path fill="#000000" stroke="none" d="
M 128.05 81
Q 128.25 82.3 128.8 84.7 129.6 88.85 130.65 92.5 130.75 92.65 130.9 92.65 131.05 92.6 131.05 92.4 131.2 87.7 130.65 84.4
L 130.15 80.5
Q 129.85 78.1 129.3 77.1 129.05 76.7 128.6 76.8 128.1 76.85 128 77.3 127.7 78.75 128.05 81 Z"/>
</g>

<g id="stiker_222222_0_Layer5_8_FILL">
<path fill="#000000" stroke="none" d="
M 172.85 85.5
Q 173.15 84.65 173.1 84.1 173.1 83.8 172.75 83.65 172.4 83.5 172.2 83.7 171.7 84.25 171.1 86.1
L 170.1 89.3
Q 169 93.1 168.4 95.8 168.35 96.1 168.6 96.15 168.85 96.2 168.9 95.9
L 172.4 87
Q 172.7 86 172.85 85.5 Z"/>
</g>

<g id="stiker_222222_0_Layer5_9_FILL">
<path fill="#000000" stroke="none" d="
M 177.6 86.6
Q 177.4 86.4 177.1 86.6 174.95 88.4 173.5 93.4 173.4 93.8 173.75 93.9 174.15 94 174.3 93.6 174.65 92.4 175.9 90.1
L 177.7 87.1
Q 177.8 86.8 177.6 86.6 Z"/>
</g>

<g id="stiker_222222_0_Layer5_10_FILL">
<path fill="#000000" stroke="none" d="
M 206.25 113
Q 206.15 112.75 205.85 112.8 204.75 113.2 203.3 114.15 201.7 115.2 200.85 115.7 196.6 118.05 195.55 118.8 195.4 118.85 195.45 119 195.5 119.1 195.65 119.1 198.1 118.75 201.3 116.9 203.45 115.65 203.9 115.35 205.35 114.4 206.15 113.4 206.3 113.25 206.25 113 Z"/>
</g>

<g id="stiker_222222_0_Layer5_11_FILL">
<path fill="#000000" stroke="none" d="
M 207.5 117.95
Q 207.4 117.6 207.1 117.6 203.15 117.25 197.6 120.8 197.45 120.9 197.5 121.05 197.6 121.2 197.8 121.2 199.4 120.8 202.65 120.1 205.5 119.4 207.3 118.5 207.55 118.3 207.5 117.95 Z"/>
</g>

<g id="stiker_222222_0_Layer5_12_FILL">
<path fill="#000000" stroke="none" d="
M 204.15 158.7
Q 204.1 158.85 204.3 159 208.3 161.4 211.6 163.1 212.8 163.7 215.15 164.95 217.25 166.05 218.8 166.6 219 166.6 219.05 166.4 219.15 166.2 219 166.1 217.65 165.1 215.5 164 213.1 162.75 211.85 162.1 208.1 160.2 204.5 158.6 204.25 158.55 204.15 158.7 Z"/>
</g>

<g id="stiker_222222_0_Layer5_13_FILL">
<path fill="#000000" stroke="none" d="
M 213 159.2
Q 214.05 159.6 216.25 160.55 218.2 161.3 219.6 161.5 220 161.45 220.1 161 220.2 160.55 219.85 160.4 218.75 159.55 216.85 158.9 214.6 158.15 213.55 157.8 209.6 156.35 206.65 156 206.4 156 206.3 156.25 206.2 156.45 206.5 156.6 208.6 157.6 213 159.2 Z"/>
</g>

<g id="stiker_222222_0_Layer5_14_FILL">
<path fill="#000000" stroke="none" d="
M 182.6 184.15
Q 182.4 184.25 182.5 184.5
L 185.5 190.1
Q 186 190.95 186.95 192.7 187.75 194.2 188.5 195.1 188.6 195.25 188.9 195.15 189.15 195 189.1 194.8 188.6 193.5 186.3 189.6
L 183 184.2
Q 182.85 184 182.6 184.15 Z"/>
</g>

<g id="stiker_222222_0_Layer5_15_FILL">
<path fill="#000000" stroke="none" d="
M 190.5 191.9
Q 190.65 191.75 190.6 191.6 189.65 189.55 186.2 185 186.15 184.85 186 184.95 185.85 185.05 185.9 185.2 187.6 188.2 187.9 188.7 189.1 190.65 190.2 191.9 190.3 192.05 190.5 191.9 Z"/>
</g>

<g id="stiker_222222_0_Layer5_16_FILL">
<path fill="#000000" stroke="none" d="
M 118.7 191.2
Q 118.5 191.15 118.4 191.3
L 115.55 196.7
Q 115.15 197.5 114.2 199.25 113.45 200.8 113.25 201.9 113.15 202.15 113.4 202.3 113.65 202.4 113.85 202.2 114.6 201.25 115.35 199.65 116.1 197.75 116.45 196.9 118.05 193.3 118.75 191.4 118.85 191.25 118.7 191.2 Z"/>
</g>

<g id="stiker_222222_0_Layer5_17_FILL">
<path fill="#000000" stroke="none" d="
M 121.2 195
Q 120.9 194.6 120.9 194.9 118.95 199.55 118.2 200.8 117.3 202.6 115.2 206.1 115.1 206.25 115.3 206.4 115.45 206.55 115.6 206.4 119.15 202.5 121.2 195 Z"/>
</g>

<g id="stiker_222222_0_Layer5_18_FILL">
<path fill="#000000" stroke="none" d="
M 79.6 131.85
Q 79.7 131.45 79.4 131.4 78.4 131.2 73.4 130.7 71.45 130.45 70.4 130.3 68.6 130.1 67.4 130.3 67.15 130.4 67.1 130.65 67.05 130.95 67.3 131 68.3 131.55 70.05 131.8 71 131.95 72.9 132.1 76.65 132.45 79.3 132.2 79.5 132.2 79.6 131.85 Z"/>
</g>

<g id="stiker_222222_0_Layer5_19_FILL">
<path fill="#000000" stroke="none" d="
M 77.5 128.8
Q 77.6 128.6 77.4 128.5 73.7 126.9 72.7 126.55 69.9 125.5 67.8 125.3 67.5 125.3 67.45 125.6 67.35 125.85 67.6 126 69.45 127.1 72.25 127.85 73.65 128.25 77.2 128.9 77.4 128.95 77.5 128.8 Z"/>
</g>

<g id="stiker_222222_0_Layer5_20_FILL">
<path fill="#FFFF00" stroke="none" d="
M 187.55 174.5
Q 205.95 161.45 205.8 143 205.8 124.65 187.4 111.6 168.95 98.6 143 98.6 117.05 98.6 98.65 111.6 80.2 124.65 80.2 143 80.2 155.55 89.45 166.15 98.4 176.45 113.5 182.2 113.9 181.2 114.5 179.2 114.6 179.05 114.8 179.05 115 179.1 115 179.3 114.6 186.15 109.9 193 107.25 196.9 105 198.9
L 104.9 199
Q 106 198.9 107.5 198.5 112.15 197.4 115.9 195.1 120.3 192.5 123.4 189.4 124.7 188.05 126.35 186 128.15 183.6 129.1 182.4 129.25 182.25 129.45 182.35 129.7 182.5 129.6 182.7 129 184.45 127.9 186.2 135.85 187.5 143.1 187.5 169.15 187.5 187.55 174.5 Z"/>
</g>

<g id="stiker_222222_0_Layer5_21_FILL">
<path fill="#000000" stroke="none" d="
M 208.6 143.1
Q 208.55 133.6 203.5 125 198.5 116.4 189.15 109.7 179.95 103.1 168.05 99.6 156.15 96.1 143.1 96.1 130.05 96.1 118.2 99.6 106.3 103.1 97 109.7 87.7 116.4 82.7 124.95 77.7 133.55 77.7 143 77.7 152.45 82.7 161.1 87.7 169.7 97 176.3 104.35 181.45 112.6 184.5 110.8 188.95 108.3 192 106.45 194.25 103.6 196.6 103.25 196.9 101.55 198.05 100.1 198.95 99.6 199.7 99.3 199.8 98.9 200.2 98.6 200.5 98.55 201.05 98.55 201.6 98.9 201.9 99.75 202.55 100.95 202.55 101.25 202.55 103.1 202.3 105.8 201.8 108 201 113.15 199.15 117 196.7 122.75 193.05 126.4 188.4 135.05 190 143.2 190 156.25 190 168.15 186.5 180 183 189.3 176.4 198.6 169.7 203.6 161.15 208.6 152.55 208.6 143.1
M 205.8 143
Q 205.95 161.45 187.55 174.5 169.15 187.5 143.1 187.5 135.85 187.5 127.9 186.2 129 184.45 129.6 182.7 129.7 182.5 129.45 182.35 129.25 182.25 129.1 182.4 128.15 183.6 126.35 186 124.7 188.05 123.4 189.4 120.3 192.5 115.9 195.1 112.15 197.4 107.5 198.5 106 198.9 104.9 199
L 105 198.9
Q 107.25 196.9 109.9 193 114.6 186.15 115 179.3 115 179.1 114.8 179.05 114.6 179.05 114.5 179.2 113.9 181.2 113.5 182.2 98.4 176.45 89.45 166.15 80.2 155.55 80.2 143 80.2 124.65 98.65 111.6 117.05 98.6 143 98.6 168.95 98.6 187.4 111.6 205.8 124.65 205.8 143 Z"/>
</g>

<g id="stiker_222222_0_Layer5_23_FILL">
<path fill="#FF0000" stroke="none" d="
M 147.6 174.9
L 155.7 176.3 167.8 135.1 145.1 134 147.6 174.9
M 145.9 113.7
L 132 109.9 126.9 133.4 118.05 131 123.4 105.8 100.6 103.8 94.5 163.2 110.8 165.1 114.6 147.3 123.7 148.6 119.7 166.8 130.4 168.8 145.9 113.7
M 190.35 171.3
Q 190.65 167.2 188.15 164.1 185.45 161.1 181.85 160.8 178.05 160.5 175.35 163.2 172.65 165.85 172.25 170 171.95 174.1 174.45 177.2 176.8 180.3 180.65 180.6 184.4 180.9 187.25 178.2 190.05 175.55 190.35 171.3
M 168.9 123
Q 169.65 118.25 167 114.2 164.45 110.15 159.9 109.4 155.45 108.65 151.9 111.6 148.2 114.55 147.6 119.4 146.85 124.2 149.6 128.3 151.85 131.95 156.5 132.9 160.95 133.65 164.6 130.8 168.15 128 168.9 123
M 198.35 123.3
L 177.25 120.3 176.65 157.2 189 160 198.35 123.3 Z"/>
</g>

<g id="stiker_222222_0_Layer5_25_FILL">
<path fill="#000000" stroke="none" d="
M 150.3 179.8
L 158.65 181.3 171.3 138.3 147.65 137.2 150.3 179.8
M 148.5 116.2
L 134.1 112.1 128.8 136.7 119.6 134.2 125.2 108 101.4 106 95 167.7 111.9 169.7 115.8 151.1 125.3 152.5 121.2 171.5 132.3 173.6 148.5 116.2
M 180.65 161.4
L 193.5 164.3 203.3 126.1 181.3 123 180.65 161.4
M 192.45 168.7
Q 190 165.4 186.1 165.1 182.1 164.8 179.3 167.6 176.45 170.3 176 174.7 175.7 178.85 178.3 182.2 180.75 185.35 184.65 185.8 188.6 186.1 191.55 183.3 194.6 180.4 194.75 176.2 195.05 172.05 192.45 168.7
M 170.55 116.5
Q 167.95 112.45 163.15 111.5 158.45 110.75 154.8 113.8 151.05 116.8 150.3 121.9 149.55 126.95 152.3 131.2 155 135.25 159.65 136 164.35 136.75 168.05 133.8 171.8 130.8 172.55 125.7 173.3 120.75 170.55 116.5 Z"/>
</g>

<g id="stiker_222222_0_Layer5_27_FILL">
<path fill="#FF3398" stroke="none" d="
M 147.6 176.2
L 156 177.7 168.6 134.7 145 133.6 147.6 176.2
M 145.8 112.7
L 131.3 108.4 126 133 116.8 130.5 122.4 104.3 98.6 102.3 92.3 164.2 109.2 166.2 113.1 147.6 122.6 149 118.5 168 129.6 170.1 145.8 112.7
M 192.05 172.6
Q 192.35 168.45 189.75 165.1 187.3 161.8 183.35 161.5 179.45 161.2 176.55 164 173.7 166.7 173.25 171.1 172.95 175.25 175.55 178.6 178 181.75 181.95 182.2 185.9 182.5 188.85 179.7 191.9 176.8 192.05 172.6
M 169.75 122.1
Q 170.5 117.15 167.75 112.9 165.15 108.85 160.35 107.9 155.65 107.15 152 110.2 148.25 113.2 147.5 118.3 146.75 123.45 149.5 127.6 152.3 131.5 156.85 132.4 161.55 133.15 165.25 130.2 169 127.2 169.75 122.1
M 200.6 122.5
L 178.6 119.4 178 157.8 190.8 160.7 200.6 122.5 Z"/>
</g>

<g id="stiker_222222_0_Layer5_28_FILL">
<path fill="#FF75B9" stroke="none" d="
M 152.65 115.9
Q 153.3 116.9 153.85 117 154.4 117.1 154.85 116.7 155.55 116.1 156 114.5 156.2 112.9 155.35 111.7 154.9 110.9 154.15 110.8 153.7 110.7 153.15 111.1 152.2 112 152.05 113.2 151.75 114.6 152.65 115.9 Z"/>
</g>

<g id="stiker_222222_0_Layer5_29_FILL">
<path fill="#FF75B9" stroke="none" d="
M 102.5 106.1
L 98.65 143.1 106.5 106.5 102.5 106.1 Z"/>
</g>

<g id="stiker_222222_0_Layer5_30_FILL">
<path fill="#FF75B9" stroke="none" d="
M 152.5 136.5
L 148.35 136.1 149.85 173 150.65 160.8 150.8 160.8 152.5 136.5 Z"/>
</g>

<g id="stiker_222222_0_Layer5_31_FILL">
<path fill="#FF75B9" stroke="none" d="
M 182.35 146.4
L 182.5 146.4 185.3 124.8 181.15 124.5 181 157.4 182.35 146.4 Z"/>
</g>

<g id="stiker_222222_0_Layer5_32_FILL">
<path fill="#FF75B9" stroke="none" d="
M 177.8 169.5
Q 178.5 170.5 179.1 170.6 179.6 170.7 180.1 170.3 180.85 169.65 181.2 168.1 181.45 166.6 180.6 165.3 180.15 164.5 179.4 164.4 178.95 164.3 178.4 164.7 177.45 165.5 177.3 166.8 177.05 168.1 177.8 169.5 Z"/>
</g>

<path id="stiker_222222_0_Layer5_0_1_STROKES" stroke="#4D4D4D" stroke-width="11.95" stroke-linejoin="round" stroke-linecap="round" fill="none" d="
M 137.85 224.4
L 128.25 202.2
Q 126.55 198.35 123.35 195.9
L 120.95 195.4
Q 118.9 202.4 115.55 206.3 115.4 206.45 115.25 206.3 115.05 206.15 115.15 206 117.25 202.5 118.15 200.7 119.05 198.9 120.65 195.3
L 119.45 195
Q 117.85 196.2 116.95 196.7
L 116.35 197
Q 115.35 199.45 115.25 199.7 114.5 201.25 113.75 202.2 113.6 202.4 113.4 202.3 113.15 202.15 113.15 201.9 113.45 200.5 114.85 197.9 111.25 199.85 107.85 201 105.65 201.8 102.95 202.3 101.1 202.55 100.8 202.55 99.6 202.55 98.75 201.9 98.4 201.6 98.4 201.05 98.45 200.5 98.75 200.2
L 99.45 199.7
Q 99.95 199.1 100.95 198.4 102.1 197.6 102.65 197.2 101.95 197.55 97.45 200.1
L 85.95 206.5 89.95 193.9
Q 90.75 191.3 93.25 184.1 85.3 179.05 79.55 172.6 73.7 166.05 70.65 158.7
L 56.55 154.9 67.95 149.3
Q 67.45 145.8 67.45 143 67.45 137.2 69.15 131.5 68.15 131.35 67.05 130.8 66.85 130.75 66.9 130.45 66.9 130.2 67.15 130.1 67.95 130 69.65 130 69.85 129.4 70.75 127.1 68.6 126.4 67.45 125.7 67.2 125.55 67.3 125.3 67.35 125 67.65 125 69.4 125.15 71.35 125.8 72.6 123.15 73.65 121.5
L 59.75 108 82.15 111.1
Q 89.95 103.45 100.85 98 100.65 96.5 100.55 95.7 100.1 93.9 98.95 88.7
L 91.75 63.3 108.05 84.2
Q 112.85 89.75 120.05 91.3 122.15 90.8 126.55 90
L 125.95 88.6
Q 125 86.6 124.55 85.5 123.8 83.55 123.85 82.2 123.85 81.9 124.15 81.8 124.45 81.7 124.65 81.9 125.55 82.85 126.25 84.7 126.7 85.75 127.35 87.8
L 128.05 89.9 130.05 89.6
Q 129.35 86.7 128.95 84.7 128.45 82.3 128.2 81 127.85 78.75 128.15 77.3 128.25 76.85 128.75 76.8 129.2 76.7 129.45 77.1 129.95 78 130.35 80.5
L 130.85 84.4
Q 131.05 86 131.25 89.4 132.55 89.2 135.15 89 143.35 83.95 148.15 70.2 149.7 65.9 150.65 61.3
L 151.35 57.5 153.35 69.25
Q 155.65 81.85 156.95 85.9 157.7 88 158.75 89.8 164.95 90.85 169.35 92
L 170.15 89.2
Q 170.65 87.4 171.15 86 171.75 84.15 172.25 83.6 172.45 83.3 172.8 83.45 173.05 83.6 173.15 84 173.2 84.65 172.95 85.5 172.8 86 172.45 86.9 172.25 87.5 171.35 89.8 170.6 91.8 170.35 92.3 172.15 92.8 173.55 93.3 174.75 88.55 177.15 86.6 177.4 86.4 177.65 86.6 177.9 86.8 177.75 87.1 177.25 88.2 175.95 90.1 175.35 91.2 174.35 93.6 180.05 95.5 183.85 97.4 185 96.9 185.85 96.2 190.3 93.25 195.35 90.1
L 209.85 80.8 203 96.5
Q 201.35 100.3 201 101.2 199.75 103.9 199.5 107 203.4 110.25 205.85 113
L 206 113
Q 206.2 112.95 206.35 113.15 206.45 113.35 206.35 113.6 212.6 120.4 215.75 128.3 216.05 128.4 216.75 128.4
L 243.75 131.1 224.35 139
Q 220.55 140.5 218.55 141.4
L 218.65 143.4
Q 218.65 151.1 215.8 158.5 218.95 159.55 220.1 160.5 220.4 160.75 220.35 161.1 220.25 161.5 219.8 161.5 217.85 161.25 215.15 160
L 213.65 163.1
Q 217.25 164.8 219.15 166.25 219.3 166.35 219.25 166.6 219.2 166.8 219 166.75 217.15 166.1 213.15 164.05 210.35 169.05 206.3 173.55 210.6 180.1 213.6 184.25
L 226 201.9 206.85 191.8
Q 204.7 190.65 197 186.6 194.3 185.25 191.6 185.4 190.5 186.1 188.1 187.4 190.05 190.1 190.8 191.8 190.9 191.95 190.7 192.1 190.55 192.25 190.4 192.1 188.95 190.4 187.4 187.8
L 185.7 188.7 186.4 189.9
Q 186.9 190.75 187.9 192.45 188.75 193.9 189.2 195.1 189.25 195.3 189.05 195.45 188.85 195.55 188.7 195.4 187.65 194.1 185.7 190.4
L 185 189.1 183.7 189.7
Q 181.3 192.85 181.6 197
L 183.5 218.3 173 207.6
Q 168.35 203 165.35 199.9 162.5 196.95 158.5 196.8 155.8 197.2 154.35 197.3 149.95 198.7 148 202.9 146.6 205.9 142.8 214
L 137.85 224.4 Z"/>

<path id="stiker_222222_0_Layer5_2_1_STROKES" stroke="#FFFFFF" stroke-width="10" stroke-linejoin="round" stroke-linecap="round" fill="none" d="
M 137.85 224.4
L 128.25 202.2
Q 126.55 198.35 123.35 195.9
L 120.95 195.4
Q 118.9 202.4 115.55 206.3 115.4 206.45 115.25 206.3 115.05 206.15 115.15 206 117.25 202.5 118.15 200.7 119.05 198.9 120.65 195.3
L 119.45 195
Q 117.85 196.2 116.95 196.7
L 116.35 197
Q 115.35 199.45 115.25 199.7 114.5 201.25 113.75 202.2 113.6 202.4 113.4 202.3 113.15 202.15 113.15 201.9 113.45 200.5 114.85 197.9 111.25 199.85 107.85 201 105.65 201.8 102.95 202.3 101.1 202.55 100.8 202.55 99.6 202.55 98.75 201.9 98.4 201.6 98.4 201.05 98.45 200.5 98.75 200.2
L 99.45 199.7
Q 99.95 199.1 100.95 198.4 102.1 197.6 102.65 197.2 101.95 197.55 97.45 200.1
L 85.95 206.5 89.95 193.9
Q 90.75 191.3 93.25 184.1 85.3 179.05 79.55 172.6 73.7 166.05 70.65 158.7
L 56.55 154.9 67.95 149.3
Q 67.45 145.8 67.45 143 67.45 137.2 69.15 131.5 68.15 131.35 67.05 130.8 66.85 130.75 66.9 130.45 66.9 130.2 67.15 130.1 67.95 130 69.65 130 69.85 129.4 70.75 127.1 68.6 126.4 67.45 125.7 67.2 125.55 67.3 125.3 67.35 125 67.65 125 69.4 125.15 71.35 125.8 72.6 123.15 73.65 121.5
L 59.75 108 82.15 111.1
Q 89.95 103.45 100.85 98 100.65 96.5 100.55 95.7 100.1 93.9 98.95 88.7
L 91.75 63.3 108.05 84.2
Q 112.85 89.75 120.05 91.3 122.15 90.8 126.55 90
L 125.95 88.6
Q 125 86.6 124.55 85.5 123.8 83.55 123.85 82.2 123.85 81.9 124.15 81.8 124.45 81.7 124.65 81.9 125.55 82.85 126.25 84.7 126.7 85.75 127.35 87.8
L 128.05 89.9 130.05 89.6
Q 129.35 86.7 128.95 84.7 128.45 82.3 128.2 81 127.85 78.75 128.15 77.3 128.25 76.85 128.75 76.8 129.2 76.7 129.45 77.1 129.95 78 130.35 80.5
L 130.85 84.4
Q 131.05 86 131.25 89.4 132.55 89.2 135.15 89 143.35 83.95 148.15 70.2 149.7 65.9 150.65 61.3
L 151.35 57.5 153.35 69.25
Q 155.65 81.85 156.95 85.9 157.7 88 158.75 89.8 164.95 90.85 169.35 92
L 170.15 89.2
Q 170.65 87.4 171.15 86 171.75 84.15 172.25 83.6 172.45 83.3 172.8 83.45 173.05 83.6 173.15 84 173.2 84.65 172.95 85.5 172.8 86 172.45 86.9 172.25 87.5 171.35 89.8 170.6 91.8 170.35 92.3 172.15 92.8 173.55 93.3 174.75 88.55 177.15 86.6 177.4 86.4 177.65 86.6 177.9 86.8 177.75 87.1 177.25 88.2 175.95 90.1 175.35 91.2 174.35 93.6 180.05 95.5 183.85 97.4 185 96.9 185.85 96.2 190.3 93.25 195.35 90.1
L 209.85 80.8 203 96.5
Q 201.35 100.3 201 101.2 199.75 103.9 199.5 107 203.4 110.25 205.85 113
L 206 113
Q 206.2 112.95 206.35 113.15 206.45 113.35 206.35 113.6 212.6 120.4 215.75 128.3 216.05 128.4 216.75 128.4
L 243.75 131.1 224.35 139
Q 220.55 140.5 218.55 141.4
L 218.65 143.4
Q 218.65 151.1 215.8 158.5 218.95 159.55 220.1 160.5 220.4 160.75 220.35 161.1 220.25 161.5 219.8 161.5 217.85 161.25 215.15 160
L 213.65 163.1
Q 217.25 164.8 219.15 166.25 219.3 166.35 219.25 166.6 219.2 166.8 219 166.75 217.15 166.1 213.15 164.05 210.35 169.05 206.3 173.55 210.6 180.1 213.6 184.25
L 226 201.9 206.85 191.8
Q 204.7 190.65 197 186.6 194.3 185.25 191.6 185.4 190.5 186.1 188.1 187.4 190.05 190.1 190.8 191.8 190.9 191.95 190.7 192.1 190.55 192.25 190.4 192.1 188.95 190.4 187.4 187.8
L 185.7 188.7 186.4 189.9
Q 186.9 190.75 187.9 192.45 188.75 193.9 189.2 195.1 189.25 195.3 189.05 195.45 188.85 195.55 188.7 195.4 187.65 194.1 185.7 190.4
L 185 189.1 183.7 189.7
Q 181.3 192.85 181.6 197
L 183.5 218.3 173 207.6
Q 168.35 203 165.35 199.9 162.5 196.95 158.5 196.8 155.8 197.2 154.35 197.3 149.95 198.7 148 202.9 146.6 205.9 142.8 214
L 137.85 224.4 Z"/>

<path id="stiker_222222_0_Layer5_22_1_STROKES" stroke="#000000" stroke-width="4" stroke-linejoin="round" stroke-linecap="round" fill="none" d="
M 189 160
L 198.35 123.3 177.25 120.3 176.65 157.2 189 160 Z
M 156.5 132.9
Q 160.95 133.65 164.6 130.8 168.15 128 168.9 123 169.65 118.25 167 114.2 164.45 110.15 159.9 109.4 155.45 108.65 151.9 111.6 148.2 114.55 147.6 119.4 146.85 124.2 149.6 128.3 151.85 131.95 156.5 132.9 Z
M 181.85 160.8
Q 178.05 160.5 175.35 163.2 172.65 165.85 172.25 170 171.95 174.1 174.45 177.2 176.8 180.3 180.65 180.6 184.4 180.9 187.25 178.2 190.05 175.55 190.35 171.3 190.65 167.2 188.15 164.1 185.45 161.1 181.85 160.8 Z
M 132 109.9
L 126.9 133.4 118.05 131 123.4 105.8 100.6 103.8 94.5 163.2 110.8 165.1 114.6 147.3 123.7 148.6 119.7 166.8 130.4 168.8 145.9 113.7 132 109.9 Z
M 145.1 134
L 147.6 174.9 155.7 176.3 167.8 135.1 145.1 134 Z"/>

<path id="stiker_222222_0_Layer5_24_1_STROKES" stroke="#000000" stroke-width="4" stroke-linejoin="round" stroke-linecap="round" fill="none" d="
M 159.65 136
Q 164.35 136.75 168.05 133.8 171.8 130.8 172.55 125.7 173.3 120.75 170.55 116.5 167.95 112.45 163.15 111.5 158.45 110.75 154.8 113.8 151.05 116.8 150.3 121.9 149.55 126.95 152.3 131.2 155 135.25 159.65 136 Z
M 186.1 165.1
Q 182.1 164.8 179.3 167.6 176.45 170.3 176 174.7 175.7 178.85 178.3 182.2 180.75 185.35 184.65 185.8 188.6 186.1 191.55 183.3 194.6 180.4 194.75 176.2 195.05 172.05 192.45 168.7 190 165.4 186.1 165.1 Z
M 193.5 164.3
L 203.3 126.1 181.3 123 180.65 161.4 193.5 164.3 Z
M 134.1 112.1
L 128.8 136.7 119.6 134.2 125.2 108 101.4 106 95 167.7 111.9 169.7 115.8 151.1 125.3 152.5 121.2 171.5 132.3 173.6 148.5 116.2 134.1 112.1 Z
M 147.65 137.2
L 150.3 179.8 158.65 181.3 171.3 138.3 147.65 137.2 Z"/>

<path id="stiker_222222_0_Layer5_26_1_STROKES" stroke="#000000" stroke-width="4" stroke-linejoin="round" stroke-linecap="round" fill="none" d="
M 190.8 160.7
L 200.6 122.5 178.6 119.4 178 157.8 190.8 160.7 Z
M 156.85 132.4
Q 161.55 133.15 165.25 130.2 169 127.2 169.75 122.1 170.5 117.15 167.75 112.9 165.15 108.85 160.35 107.9 155.65 107.15 152 110.2 148.25 113.2 147.5 118.3 146.75 123.45 149.5 127.6 152.3 131.5 156.85 132.4 Z
M 183.35 161.5
Q 179.45 161.2 176.55 164 173.7 166.7 173.25 171.1 172.95 175.25 175.55 178.6 178 181.75 181.95 182.2 185.9 182.5 188.85 179.7 191.9 176.8 192.05 172.6 192.35 168.45 189.75 165.1 187.3 161.8 183.35 161.5 Z
M 131.3 108.4
L 126 133 116.8 130.5 122.4 104.3 98.6 102.3 92.3 164.2 109.2 166.2 113.1 147.6 122.6 149 118.5 168 129.6 170.1 145.8 112.7 131.3 108.4 Z
M 145 133.6
L 147.6 176.2 156 177.7 168.6 134.7 145 133.6 Z"/>
</defs>

<g transform="matrix( 1, 0, 0, 1, 0,0) ">
<g transform="matrix( 1, 0, 0, 1, 0,0) ">
<g transform="matrix( 1, 0, 0, 1, 0,0) ">
<use filter="url(#Filter_1)" xlink:href="#Symbol_1_0_Layer0_0_FILL"/>
</g>
</g>

<g transform="matrix( 1, 0, 0, 1, -50.15,-36.95) ">
<use xlink:href="#stiker_222222_0_Layer5_0_1_STROKES"/>
</g>

<g transform="matrix( 1, 0, 0, 1, -50.15,-36.95) ">
<use xlink:href="#stiker_222222_0_Layer5_1_FILL"/>
</g>

<g transform="matrix( 1, 0, 0, 1, -50.15,-36.95) ">
<use xlink:href="#stiker_222222_0_Layer5_2_1_STROKES"/>
</g>

<g transform="matrix( 1, 0, 0, 1, -50.15,-36.95) ">
<use xlink:href="#stiker_222222_0_Layer5_3_FILL"/>
</g>

<g transform="matrix( 1, 0, 0, 1, -50.15,-36.95) ">
<use xlink:href="#stiker_222222_0_Layer5_4_FILL"/>
</g>

<g transform="matrix( 1, 0, 0, 1, -50.15,-36.95) ">
<use xlink:href="#stiker_222222_0_Layer5_5_FILL"/>
</g>

<g transform="matrix( 1, 0, 0, 1, -50.15,-36.95) ">
<use xlink:href="#stiker_222222_0_Layer5_6_FILL"/>
</g>

<g transform="matrix( 1, 0, 0, 1, -50.15,-36.95) ">
<use xlink:href="#stiker_222222_0_Layer5_7_FILL"/>
</g>

<g transform="matrix( 1, 0, 0, 1, -50.15,-36.95) ">
<use xlink:href="#stiker_222222_0_Layer5_8_FILL"/>
</g>

<g transform="matrix( 1, 0, 0, 1, -50.15,-36.95) ">
<use xlink:href="#stiker_222222_0_Layer5_9_FILL"/>
</g>

<g transform="matrix( 1, 0, 0, 1, -50.15,-36.95) ">
<use xlink:href="#stiker_222222_0_Layer5_10_FILL"/>
</g>

<g transform="matrix( 1, 0, 0, 1, -50.15,-36.95) ">
<use xlink:href="#stiker_222222_0_Layer5_11_FILL"/>
</g>

<g transform="matrix( 1, 0, 0, 1, -50.15,-36.95) ">
<use xlink:href="#stiker_222222_0_Layer5_12_FILL"/>
</g>

<g transform="matrix( 1, 0, 0, 1, -50.15,-36.95) ">
<use xlink:href="#stiker_222222_0_Layer5_13_FILL"/>
</g>

<g transform="matrix( 1, 0, 0, 1, -50.15,-36.95) ">
<use xlink:href="#stiker_222222_0_Layer5_14_FILL"/>
</g>

<g transform="matrix( 1, 0, 0, 1, -50.15,-36.95) ">
<use xlink:href="#stiker_222222_0_Layer5_15_FILL"/>
</g>

<g transform="matrix( 1, 0, 0, 1, -50.15,-36.95) ">
<use xlink:href="#stiker_222222_0_Layer5_16_FILL"/>
</g>

<g transform="matrix( 1, 0, 0, 1, -50.15,-36.95) ">
<use xlink:href="#stiker_222222_0_Layer5_17_FILL"/>
</g>

<g transform="matrix( 1, 0, 0, 1, -50.15,-36.95) ">
<use xlink:href="#stiker_222222_0_Layer5_18_FILL"/>
</g>

<g transform="matrix( 1, 0, 0, 1, -50.15,-36.95) ">
<use xlink:href="#stiker_222222_0_Layer5_19_FILL"/>
</g>

<g transform="matrix( 1, 0, 0, 1, -50.15,-36.95) ">
<use xlink:href="#stiker_222222_0_Layer5_20_FILL"/>
</g>

<g transform="matrix( 1, 0, 0, 1, -50.15,-36.95) ">
<use xlink:href="#stiker_222222_0_Layer5_21_FILL"/>
</g>

<g transform="matrix( 1, 0, 0, 1, -50.15,-36.95) ">
<use xlink:href="#stiker_222222_0_Layer5_22_1_STROKES"/>
</g>

<g transform="matrix( 1, 0, 0, 1, -50.15,-36.95) ">
<use xlink:href="#stiker_222222_0_Layer5_23_FILL"/>
</g>

<g transform="matrix( 1, 0, 0, 1, -50.15,-36.95) ">
<use xlink:href="#stiker_222222_0_Layer5_24_1_STROKES"/>
</g>

<g transform="matrix( 1, 0, 0, 1, -50.15,-36.95) ">
<use xlink:href="#stiker_222222_0_Layer5_25_FILL"/>
</g>

<g transform="matrix( 1, 0, 0, 1, -50.15,-36.95) ">
<use xlink:href="#stiker_222222_0_Layer5_26_1_STROKES"/>
</g>

<g transform="matrix( 1, 0, 0, 1, -50.15,-36.95) ">
<use xlink:href="#stiker_222222_0_Layer5_27_FILL"/>
</g>

<g transform="matrix( 1, 0, 0, 1, -50.15,-36.95) ">
<use xlink:href="#stiker_222222_0_Layer5_28_FILL"/>
</g>

<g transform="matrix( 1, 0, 0, 1, -50.15,-36.95) ">
<use xlink:href="#stiker_222222_0_Layer5_29_FILL"/>
</g>

<g transform="matrix( 1, 0, 0, 1, -50.15,-36.95) ">
<use xlink:href="#stiker_222222_0_Layer5_30_FILL"/>
</g>

<g transform="matrix( 1, 0, 0, 1, -50.15,-36.95) ">
<use xlink:href="#stiker_222222_0_Layer5_31_FILL"/>
</g>

<g transform="matrix( 1, 0, 0, 1, -50.15,-36.95) ">
<use xlink:href="#stiker_222222_0_Layer5_32_FILL"/>
</g>
</g>
</svg>
