
<svg xmlns="http://www.w3.org/2000/svg" version="1.1" xmlns:xlink="http://www.w3.org/1999/xlink" preserveAspectRatio="none" x="0px" y="0px" width="200px" height="200px" viewBox="0 0 200 200">
<defs>
<radialGradient id="Gradient_1" gradientUnits="userSpaceOnUse" cx="0" cy="0" r="84.125" fx="0" fy="0" gradientTransform="matrix( 1, 0, 0, 1, 113.35,100.2) " spreadMethod="pad">
<stop  offset="12.941176470588236%" stop-color="#FFFF66"/>

<stop  offset="30.58823529411765%" stop-color="#FFFF00"/>

<stop  offset="45.490196078431374%" stop-color="#FFFF00"/>

<stop  offset="100%" stop-color="#FFCC00"/>
</radialGradient>

<radialGradient id="Gradient_2" gradientUnits="userSpaceOnUse" cx="0" cy="0" r="36.787499999999994" fx="0" fy="0" gradientTransform="matrix( 1.0000000000000002, 0, 0, 1.0000000000000002, 171,91.75) " spreadMethod="pad">
<stop  offset="0%" stop-color="#FF9933"/>

<stop  offset="9.019607843137255%" stop-color="#FF9933"/>

<stop  offset="24.313725490196077%" stop-color="#FF9933"/>

<stop  offset="76.07843137254902%" stop-color="#FF5100"/>
</radialGradient>

<radialGradient id="Gradient_3" gradientUnits="userSpaceOnUse" cx="0" cy="0" r="40.650000000000006" fx="0" fy="0" gradientTransform="matrix( 0.9999999999999999, 0, 0, 0.9999999999999999, 102.75,92.95) " spreadMethod="pad">
<stop  offset="0%" stop-color="#FFFF00"/>

<stop  offset="80%" stop-color="#FFCC00"/>

<stop  offset="91.37254901960785%" stop-color="#FF9933"/>

<stop  offset="100%" stop-color="#FF9933"/>
</radialGradient>

<radialGradient id="Gradient_4" gradientUnits="userSpaceOnUse" cx="0" cy="0" r="26.912499999999994" fx="0" fy="0" gradientTransform="matrix( 1.0000000000000002, 0, 0, 1.0000000000000002, 102.35,105.75) " spreadMethod="pad">
<stop  offset="0%" stop-color="#000000"/>

<stop  offset="100%" stop-color="#990000"/>
</radialGradient>

<radialGradient id="Gradient_5" gradientUnits="userSpaceOnUse" cx="0" cy="0" r="40.18750000000001" fx="0" fy="0" gradientTransform="matrix( 0.9999999999999999, 0, 0, 0.9999999999999999, 55.9,102.65) " spreadMethod="pad">
<stop  offset="0%" stop-color="#FF9933"/>

<stop  offset="9.019607843137255%" stop-color="#FF9933"/>

<stop  offset="24.313725490196077%" stop-color="#FF9933"/>

<stop  offset="76.07843137254902%" stop-color="#FF5100"/>
</radialGradient>

<filter id="Filter_1" x="-20%" y="-20%" width="140%" height="140%" color-interpolation-filters="sRGB">
<feColorMatrix in="SourceGraphic" type="matrix" values="1 0 0 0 0 0 1 0 0 0 0 0 1 0 0 0 0 0 0 0" result="result1"/>
</filter>

<g id="Symbol_1_0_Layer0_0_FILL">
<path fill="#93A2AE" fill-opacity="0" stroke="none" d="
M 0 0
L 0 200 200 200 200 0 0 0 Z"/>
</g>

<g id="stiker_222222_copy_5_0_Layer5_1_FILL">
<path fill="#FFFFFF" stroke="none" d="
M 206.35 84.45
Q 197.6 77.2 185.25 76.05 184.15 58.5 178.35 48.1 169.6 32.15 152.35 29.05 135.15 26 122 37.85 109.7 34.35 96.95 35.9 84.2 37.45 73.05 43.85 61 31.4 44.15 33 27.2 34.65 17.35 49.3 10.15 60.15 8.5 84.3 7.2 102.8 9.25 119.1 12.35 143.4 18.4 154.1 27.8 170.75 49.2 171.7 61.45 172.15 77.45 166.9 85.45 164.3 91 161.55 96.7 162.9 102.5 163.05 119.65 163.75 135.15 155.35 139.75 156.95 143.35 157.3 145.6 157.5 150.45 157.5 155.6 157.6 164.15 156 179.5 152.9 190.95 147.6 206.2 140.55 212.95 130.2 216.8 124.3 218.1 117.4 219.3 110.7 217.95 103.95 215.45 92 206.35 84.45
M 172.05 65.55
Q 173.45 72.35 174 88 180.95 87.85 181.65 87.9 185.85 88 189.3 88.9 201.25 92 205.35 103.05 209.4 113.85 203 123.7 197.7 131.7 184.25 137.55 174.55 141.75 161.85 144.3 157.3 145.2 154.45 145.35 150.75 145.45 147.65 145.5 143.85 145.5 140.75 144.6 138.8 144 134.35 142 130.75 144.25 129 145.15 126.35 146.55 123.15 147.8 111.8 152.1 99.8 151 96.05 150.65 92.55 149.8 89.8 149 89.65 149 79 154.65 66.45 157.75 41.35 163.9 30.9 151.3 28.55 148.5 27 144.3 26.45 142.8 24.7 136.5
L 24.6 136.5 23.3 130 23.2 130 21.2 117.6
Q 19.5 103.8 20.35 86.9 21.55 64.55 27.4 55.8 33.05 47.3 42.55 45.25 52.1 43.15 60.4 48.7 63.4 50.7 65.95 53.85 66.6 54.65 70.4 60
L 75.3 56.7
Q 85.5 49.65 97.8 47.95 110.1 46.3 121.8 50.4
L 125.6 51.7 128.3 48.7
Q 134.8 41.4 144.45 40.65 154.25 39.85 161.8 46.2 169.35 52.65 172.05 65.55 Z"/>
</g>

<g id="stiker_222222_copy_5_0_Layer5_2_FILL">
<path fill="#FFFFFF" stroke="none" d="
M 199.75 87.2
Q 191.7 81.85 179.55 82 179.2 72.65 178 66.05 176.4 57.25 173.05 51.1 170.1 45.55 165.35 41.6 160.8 37.85 155.15 36 146.8 33.3 138.15 35.75 129.55 38.2 123.65 44.8 110.65 40.2 96.9 42.1 83.25 43.95 71.85 51.8 62.45 38.65 46.95 38.9 31.4 39.15 22.35 52.7 15.9 62.35 14.45 85.35 13.35 103.15 15.25 118.5 16.3 126.85 18.65 137.3 19.25 140.3 20.55 144 21.05 145.9 21.55 146.95 21.85 147.7 22.65 149.4 25.55 155.95 31.35 160 38.85 165.35 49.35 165.8 57.9 166.15 69.35 163.2 80.05 160.4 90.25 155.4 102.75 158.6 115.15 156.3 125.75 154.3 134.65 148.8 137.8 150 138.85 150.5 142.5 151.5 145.25 151.65 146.9 151.7 150.65 151.7 155.1 151.85 163 150.3 177.05 147.5 187.75 142.65 201.9 136.2 207.85 127.1 214.35 117.15 212.05 105.5 209.75 93.75 199.75 87.2 Z"/>
</g>

<g id="stiker_222222_copy_5_0_Layer5_3_FILL">
<path fill="url(#Gradient_1)" stroke="none" d="
M 199.75 87.2
Q 191.7 81.85 179.55 82 179.2 72.65 178 66.05 176.4 57.25 173.05 51.1 170.1 45.55 165.35 41.6 160.8 37.85 155.15 36 146.8 33.3 138.15 35.75 129.55 38.2 123.65 44.8 110.65 40.2 96.9 42.1 83.25 43.95 71.85 51.8 62.45 38.65 46.95 38.9 31.4 39.15 22.35 52.7 15.9 62.35 14.45 85.35 13.35 103.15 15.25 118.5 16.3 126.85 18.65 137.3 19.25 140.3 20.55 144 21.05 145.9 21.55 146.95 21.85 147.7 22.65 149.4 25.55 155.95 31.35 160 38.85 165.35 49.35 165.8 57.9 166.15 69.35 163.2 80.05 160.4 90.25 155.4 102.75 158.6 115.15 156.3 125.75 154.3 134.65 148.8 137.8 150 138.85 150.5 142.5 151.5 145.25 151.65 146.9 151.7 150.65 151.7 155.1 151.85 163 150.3 177.05 147.5 187.75 142.65 201.9 136.2 207.85 127.1 214.35 117.15 212.05 105.5 209.75 93.75 199.75 87.2 Z"/>
</g>

<g id="stiker_222222_copy_5_0_Layer5_4_FILL">
<path fill="#000000" stroke="none" d="
M 99.35 182.6
L 93.15 181.9 90.65 176.3 89.05 179
Q 88.4 180.35 87.55 181.7 87.15 181.8 86.55 181.8 85.2 181.9 84.4 181.9
L 81.3 182 84.7 186 85.4 186.7 83.55 192.7 84.55 192.4
Q 85.15 192.1 86.75 191.5 88.35 190.9 88.95 190.6
L 89.95 190.2 92.95 191.7
Q 93.65 192.1 95.05 192.7
L 96.05 193.1 94.85 187.1 99.35 182.6 Z"/>
</g>

<g id="stiker_222222_copy_5_0_Layer5_5_FILL">
<path fill="#FFFF00" stroke="none" d="
M 96.75 183.75
Q 95.65 183.7 94.65 183.55
L 92.55 183.35 90.5 178.6 88.5 182.65 84 182.95 85.6 184.65
Q 86.5 185.45 87.3 186.35
L 85.7 190.35 88 189.35
Q 89.1 188.85 89.5 188.65
L 90.2 188.35 92.4 189.75
Q 92.9 190.15 93.9 190.75 94.25 191.05 94.55 191.15
L 93.3 186.35 96.75 183.75 Z"/>
</g>

<g id="stiker_222222_copy_5_0_Layer5_6_FILL">
<path fill="#000000" stroke="none" d="
M 159 29.3
L 156.6 27.5 137.3 52.4 159 29.3 Z"/>
</g>

<g id="stiker_222222_copy_5_0_Layer5_7_FILL">
<path fill="#000000" stroke="none" d="
M 165.35 30.1
Q 169.8 26.8 174.5 23.8
L 172.5 21.2 170 23.6
Q 165.85 27.5 164.35 28.8
L 156.35 36.5 165.35 30.1 Z"/>
</g>

<g id="stiker_222222_copy_5_0_Layer5_8_FILL">
<path fill="#000000" stroke="none" d="
M 149.8 28.6
Q 145.1 36 140.15 43.3 135.3 50.6 130.3 57.7
L 152.5 29.7 149.8 28.6 Z"/>
</g>

<g id="stiker_222222_copy_5_0_Layer5_9_FILL">
<path fill="#000000" stroke="none" d="
M 100.25 18.4
L 100 18.4 102.55 49.3
Q 102.896875 51.920703125 103.05 53.9
L 102.75 49.3
Q 102.4 43 102.25 36.7 102.15 32.1 102.15 24
L 102.25 18.2 100.25 18.4 Z"/>
</g>

<g id="stiker_222222_copy_5_0_Layer5_10_FILL">
<path fill="#000000" stroke="none" d="
M 99.75 29.7
L 99.15 22.5 96.55 22.3 96.9 24.3
Q 97 25.5 97.55 29.5 98 33.35 99.75 45.1 100.8 52.7 102.15 60.7
L 103.35 67.8 102.45 60.8
Q 101.6 53.75 100.85 45.3 100.05 36.55 99.75 29.7 Z"/>
</g>

<g id="stiker_222222_copy_5_0_Layer5_11_FILL">
<path fill="#000000" stroke="none" d="
M 107.65 18.3
Q 108 15.5 108.15 13.6 107.55 13.7 107 13.9
L 105.75 14.2 105.65 18.6
Q 105.55 21.3 105.55 28.4 105.55 35.5 105.65 38.2 105.65 40.8 105.75 42.6
L 105.95 38.1
Q 106.05 35.4 106.65 28.2 106.75 26.2 107.15 22.9
L 107.65 18.3 Z"/>
</g>

<g id="stiker_222222_copy_5_0_Layer5_12_FILL">
<path fill="#000000" stroke="none" d="
M 16.7 46.8
L 16 49.3
Q 15.85 49.7 15.85 49.9
L 23.2 52.1
Q 32.7 54.9 39.2 56.7 49.85 59.65 55.3 61 59.7 62.2 62.6 62.9
L 55.3 60.7
Q 50.9 59.4 39.5 55.4 33.5 53.3 23.8 49.6
L 16.7 46.8 Z"/>
</g>

<g id="stiker_222222_copy_5_0_Layer5_13_FILL">
<path fill="#000000" stroke="none" d="
M 37.3 59
L 28.5 56.1 27 59.2 56.5 66
Q 71.3 69.2 76.9 70.3
L 86.2 72.1 77.1 70
Q 68.7 68 57.1 64.8 45.4 61.55 37.3 59 Z"/>
</g>

<g id="stiker_222222_copy_5_0_Layer5_14_FILL">
<path fill="#000000" stroke="none" d="
M 27.7 46.3
L 17 40.7 16.55 43.4
Q 16.55 43.7 16.45 43.9
L 46 55.3
Q 49.25 56.5 51.5 57.2
L 46 54.9
Q 39.85 52.3 34 49.4 33.1 49 27.7 46.3 Z"/>
</g>

<g id="stiker_222222_copy_5_0_Layer5_15_FILL">
<path fill="#000000" stroke="none" d="
M 97 43.8
L 88.05 5.4 84.9 7 87 12.7
Q 88.15 16.1 91.3 25.3 91.55 26.05 95.3 38
L 97 43.8 Z"/>
</g>

<g id="stiker_222222_copy_5_0_Layer5_16_FILL">
<path fill="#000000" stroke="none" d="
M 195.25 48.1
Q 194.85 48.5 194.05 49.1
L 190.85 51.8
Q 185.65 56.2 180.85 59.7 179.85 60.45 170.55 67.1 168.3 68.7 167.05 69.4
L 165.75 70.3 170.75 67.3
Q 176.45 63.75 181.45 60.3 186 57.2 191.85 52.8 194.2 51.15 195.25 50.2
L 196.35 49.3 195.25 48.1 Z"/>
</g>

<g id="stiker_222222_copy_5_0_Layer5_17_FILL">
<path fill="#000000" stroke="none" d="
M 50.55 32.8
L 48.35 34.6 72.65 56.7 50.55 32.8 Z"/>
</g>

<g id="stiker_222222_copy_5_0_Layer5_18_FILL">
<path fill="#000000" stroke="none" d="
M 57.65 37.7
L 44.05 17.5 43.25 20.8 50.35 29.3
Q 53.95 33.6 57.65 37.7 Z"/>
</g>

<g id="stiker_222222_copy_5_0_Layer5_19_FILL">
<path fill="#000000" stroke="none" d="
M 55.4 43.6
L 44.25 33.9 43.75 34.1 41.35 35.3 54 44.1
Q 59.6 48.1 62.55 50.4
L 66.5 53.3
Q 60.9 48.5 55.4 43.6 Z"/>
</g>

<g id="stiker_222222_copy_5_0_Layer5_20_FILL">
<path fill="#000000" stroke="none" d="
M 173.5 71.1
L 199 61.2 198.05 59.3
Q 191.95 62.4 185.85 65.3
L 173.5 71.1 Z"/>
</g>

<g id="stiker_222222_copy_5_0_Layer5_21_FILL">
<path fill="#000000" stroke="none" d="
M 188.5 67.3
L 195.5 66.1
Q 199 65.5 202.6 65 202.15 64.5 202.1 64.2
L 201.1 63.5
Q 198 64.35 194.8 65.35
L 188.5 67.3 Z"/>
</g>

<g id="stiker_222222_copy_5_0_Layer5_22_FILL">
<path fill="#000000" stroke="none" d="
M 177.55 66
L 195.5 56.4
Q 195.35 56.3 195.35 56.1
L 194.65 54.5
Q 193.65 55.3 192.05 56.4
L 177.55 66 Z"/>
</g>

<g id="stiker_222222_copy_5_0_Layer5_23_FILL">
<path fill="#000000" stroke="none" d="
M 183.4 98.1
L 170.6 97.1 196.1 101.3 196.1 100.9 196.2 100 196.2 98.7
Q 194.6 98.6 192.2 98.6 189.8 98.5 183.4 98.1 Z"/>
</g>

<g id="stiker_222222_copy_5_0_Layer5_24_FILL">
<path fill="#000000" stroke="none" d="
M 183.1 118.7
L 185.8 119.7
Q 185.9 119.6 185.9 119.3
L 186.1 118.35 186.5 117.2 168.7 114.1 171.4 114.9
Q 173 115.4 177.3 116.7 182.1 118.3 183.1 118.7 Z"/>
</g>

<g id="stiker_222222_copy_5_0_Layer5_25_FILL">
<path fill="#000000" stroke="none" d="
M 182.3 95.45
L 187 95.2 186.6 93.85 186.1 92.7
Q 184.3 93.1 181.6 93.5 177.2 94.2 177 94.2 173.5 94.7 171.8 94.85 170.9 94.95 162 95.8
L 157.5 95.95 172.15 95.95
Q 177.35 95.8 182.3 95.45 Z"/>
</g>

<g id="stiker_222222_copy_5_0_Layer5_26_FILL">
<path fill="#000000" stroke="none" d="
M 65.65 151.15
L 48.55 174 49.75 174.7
Q 50.35 175 50.55 175.2
L 51 175.35
Q 54.55 169.25 58.25 163.25
L 65.65 151.15 Z"/>
</g>

<g id="stiker_222222_copy_5_0_Layer5_27_FILL">
<path fill="#000000" stroke="none" d="
M 35.25 180.6
L 37.25 182.7 50 167.4 42.7 174
Q 39.2 177.5 35.25 180.6 Z"/>
</g>

<g id="stiker_222222_copy_5_0_Layer5_28_FILL">
<path fill="#000000" stroke="none" d="
M 62.65 159.3
Q 58.5 166.2 54.25 173
L 56.85 173.7
Q 60.25 166.55 63.85 159.5
L 71.15 145.6 62.65 159.3 Z"/>
</g>

<g id="stiker_222222_copy_5_0_Layer5_29_FILL">
<path fill="#000000" stroke="none" d="
M 107.3 137.55
L 107.7 143.25
Q 108.05 149.35 108.2 155.85 108.3 160.5 108.3 168.55 108.3 172.05 108.2 174.35
L 110.2 174.15 110.5 174.2
Q 110.4 171.85 110.05 168.5 109.85 164.35 109.05 155.85 108.15 146.7 107.9 143.25
L 107.3 137.55 Z"/>
</g>

<g id="stiker_222222_copy_5_0_Layer5_30_FILL">
<path fill="#000000" stroke="none" d="
M 108.1 131.85
Q 109.35 142.45 109.8 147.35 110.6 156.1 110.9 162.85
L 111.3 170.1 113.9 170.4 113 163.2
Q 111 148.7 110.8 147.6 109.95 141.4 108.4 132
L 107.2 124.9 108.1 131.85 Z"/>
</g>

<g id="stiker_222222_copy_5_0_Layer5_31_FILL">
<path fill="#000000" stroke="none" d="
M 104.9 163.95
Q 104.9 156.85 104.8 154.25
L 104.7 149.85 104.5 154.35
Q 104.4 157.25 103.8 164.25
L 103.3 169.55
Q 103.1 171.25 102.8 174.2 102.55 177.1 102.3 178.85
L 104.7 178.25 104.8 173.75
Q 104.9 171.05 104.9 163.95 Z"/>
</g>

<g id="stiker_222222_copy_5_0_Layer5_32_FILL">
<path fill="#000000" stroke="none" d="
M 123.5 172.5
Q 122.55 170.2 121.5 166.8 118.35 157.8 117.15 154.2
L 111.5 135.7 120.3 174.1 123.5 172.5 Z"/>
</g>

<g id="stiker_222222_copy_5_0_Layer5_33_FILL">
<path fill="#000000" stroke="none" d="
M 143.55 139.1
Q 145 140.5 145.85 141.6
L 146.05 141.4 147.25 140.4 130.85 125.6 138.45 133.5
Q 141 136.15 143.55 139.1 Z"/>
</g>

<g id="stiker_222222_copy_5_0_Layer5_34_FILL">
<path fill="#000000" stroke="none" d="
M 142.7 140.35
Q 144.35 142.5 145.9 144.95
L 149 149.65
Q 149.65 151 150.3 151.85 150.4 151.25 150.6 150.75 150.7 150.15 150.8 149.95
L 150.9 149.65 141.2 138.25 142.7 140.35 Z"/>
</g>

<g id="stiker_222222_copy_5_0_Layer5_35_FILL">
<path fill="#000000" stroke="none" d="
M 142.65 134.3
Q 146.35 137.6 150.1 140.8
L 150.4 140.7 152.1 139.85
Q 147.8 137 143.6 134
L 135.15 127.8 142.65 134.3 Z"/>
</g>

<g id="stiker_222222_copy_5_0_Layer5_36_FILL">
<path fill="#FFFFFF" stroke="none" d="
M 163.35 122.2
L 164.35 122.2 161.85 119.2
Q 161.25 118.45 160.65 117.3 160.45 116.9 160.35 116.8 161.2 118.6 161.25 118.7
L 162.35 120.6
Q 162.65 121.1 163.35 122.2 Z"/>
</g>

<g id="stiker_222222_copy_5_0_Layer5_37_FILL">
<path fill="#000000" stroke="none" d="
M 79.55 149.85
Q 77.45 149.25 75.45 148.55
L 71.45 147.25 74.75 154.85 70.15 161.05 78.45 161.45 82.65 167.35
Q 83.15 167.95 83.45 168.45 83.45 168.25 83.55 168.05
L 84.75 164.35
Q 85.5 161.9 85.55 161.55 85.8 160.85 85.9 160.65
L 86 160.25 94 157.25 86.55 152.85 86.5 151.6
Q 86.35 151 86.15 148.8
L 85.55 144.8 79.55 149.85 Z"/>
</g>

<g id="stiker_222222_copy_5_0_Layer5_38_FILL">
<path fill="#FFFFFF" stroke="none" d="
M 80.25 152.7
Q 79 152.1 77.55 151.6
L 74.9 150.5 76.05 153.2
Q 76.65 154.5 77.15 155.9
L 76.55 156.5
Q 76.15 156.8 75.25 157.7
L 73.45 159.5 76.65 159.7
Q 78.25 159.7 78.85 159.8
L 79.85 159.8 82.75 165.2 83.45 158.8 89.95 157.1 84.75 155 84.55 151.4
Q 84.4 149.05 84.4 148.9
L 84.3 147.8 83.75 148.8 80.25 152.7 Z"/>
</g>

<g id="stiker_222222_copy_5_0_Layer5_39_FILL">
<path fill="#000000" stroke="none" d="
M 171.5 23.6
L 171.1 20.9 175.5 17
Q 174 16.9 172.6 16.7
L 169.7 16.4 167.7 11.4 164.5 16.3
Q 163.1 16.5 161.6 16.6 160.2 16.8 159.6 16.8
L 158.7 16.9 158.9 17.1 162.8 21.2 162.6 22.1
Q 162.6 22.7 162.3 24.1
L 162 26.1
Q 162 26.6 161.85 27
L 167.05 24.1 171.5 26.1
Q 171.7 26.2 172.1 26.3 172.15 26.4 172.3 26.4
L 171.9 25.4
Q 171.6 24.3 171.5 23.6 Z"/>
</g>

<g id="stiker_222222_copy_5_0_Layer5_40_FILL">
<path fill="#FFFFFF" stroke="none" d="
M 168.9 17.3
Q 168.6 16.5 168.4 15.6
L 168 13.9 165.5 17.7
Q 164.5 17.6 163.4 17.6
L 161.3 17.5 164.9 20.2 164.7 20.9
Q 164.5 21.3 164.2 22.4
L 163.7 24 163.6 24.5 163.5 24.7 166.6 22.3 167.3 22.7
Q 168.45 23.35 168.8 23.5
L 171 24.5
Q 170.85 24.3 170.95 23.7 170.65 22.8 170.45 22.3
L 169.75 20.3 173 17.9 168.9 17.3 Z"/>
</g>

<g id="stiker_222222_copy_5_0_Layer5_41_FILL">
<path fill="#000000" stroke="none" d="
M 129.55 17.2
L 129.35 18.1
Q 129.3 18.7 129 20.1
L 128.8 21.2
Q 128.8 21.8 128.65 22.1 128.65 22.6 128.55 23
L 133.75 20.1 138.15 22.1
Q 138.75 22.3 138.8 22.3 138.85 22.4 139 22.4 138.85 22.1 138.8 21.5 138.5 20.4 138.4 19.7
L 138 17.1 142.35 13.1 136.6 12.4 134.6 7.5 131.35 12.4
Q 129.85 12.6 128.35 12.7 126.85 12.8 126.35 12.9
L 125.45 13 129.55 17.2 Z"/>
</g>

<g id="stiker_222222_copy_5_0_Layer5_42_FILL">
<path fill="#FFFF00" stroke="none" d="
M 135.05 11.6
L 134.65 9.9
Q 134.55 10.2 134.25 10.5
L 132.15 13.7
Q 131.05 13.7 130.05 13.6
L 127.85 13.5 129.65 14.9
Q 130.6 15.5 131.5 16.2
L 130.3 19.9
Q 130.3 20.3 130.15 20.4
L 130.15 20.6 133.15 18.2 133.85 18.6
Q 134.25 18.9 135.35 19.4
L 137.65 20.5
Q 137.65 20.2 137.45 19.8 137.15 18.9 136.95 18.4
L 136.35 16.3 139.55 13.9
Q 139.35 13.8 138.95 13.8
L 135.55 13.3
Q 135.25 12.5 135.05 11.6 Z"/>
</g>

<g id="stiker_222222_copy_5_0_Layer5_43_FILL">
<path fill="#000000" stroke="none" d="
M 167.3 46.5
L 170.65 49.4 169.65 50.5
Q 169.55 50.7 169.15 51.1
L 167.65 52.7 173.85 51.7 174.55 52.1
Q 174.75 52.2 175.25 52.5
L 178.15 54.4 179.2 50.2 182 49
Q 183.4 48.4 183.9 48.1 184.5 47.9 184.8 47.7
L 179 46.4
Q 179 46.2 178.8 45.8 178.5 44.9 178.3 44.4
L 177.8 43 177.5 42.4 176.9 43
Q 176.1 43.6 175.5 44.2
L 173.5 46
Q 172 46 170.4 46.2
L 167.3 46.5 Z"/>
</g>

<g id="stiker_222222_copy_5_0_Layer5_44_FILL">
<path fill="#FFFF00" stroke="none" d="
M 169.15 47
L 169.25 47.1
Q 169.35 47.2 169.3 47.3 169.9 47.7 170.2 48
L 171.4 49 171.1 49.4
Q 170.7 50 170.4 50.3
L 169.4 51.5 174.1 50.5 176.7 52.5 177.3 49.5 182.1 47.9 177.3 47.1 177.3 46.7
Q 177.3 46.1 177.2 45.8
L 177 44.4 174.5 46.7
Q 174.5 46.8 174.4 46.8
L 173.6 46.8
Q 172.5 46.9 171.8 46.9
L 169.15 47 Z"/>
</g>

<g id="stiker_222222_copy_5_0_Layer5_45_FILL">
<path fill="#000000" stroke="none" d="
M 130.15 134.8
Q 129.15 135.2 128.1 135.5 128.05 135.5 126.55 135.85
L 125.9 136.05 121.9 132.45 122 133.25 122.05 135.05
Q 122.15 136.35 122.15 137.7 122 137.85 121.55 138.05
L 118.3 139.95 122.05 142.05
Q 122.45 142.35 122.75 142.45
L 122.95 143.25
Q 123.05 143.75 123.35 145.05
L 123.95 147.75 127.05 143.75 127.85 143.85
Q 129 143.85 129.65 144
L 132.3 144.2 129.1 139.7 130.15 134.8 Z"/>
</g>

<g id="stiker_222222_copy_5_0_Layer5_46_FILL">
<path fill="#FFFFFF" stroke="none" d="
M 127.6 140.35
L 128.85 136.2 125.5 137.65 123 134.95 123.1 138.55 120.7 139.55 120.2 139.7 122 140.7
Q 122.9 141.05 123.8 141.55
L 124.2 145.55 126 142.2 126.6 142.3
Q 127.2 142.45 127.3 142.5
L 130 143 127.6 140.35 Z"/>
</g>

<g id="stiker_222222_copy_5_0_Layer5_47_FILL">
<path fill="#000000" stroke="none" d="
M 144.75 173.1
Q 144.95 171 144.95 168.8
L 144.95 164.5 138.95 168.6 137.95 167.9
Q 136.55 166.9 135.75 166.3
L 134.55 165.5
Q 133.85 165 133.55 164.8
L 132.55 164 133.75 172.8 130.85 175.55
Q 129.35 176.95 127.75 178.25
L 131.65 179.45
Q 132.15 179.65 133.15 179.85
L 135.65 180.45 139.25 188.55
Q 140.35 186.7 141.25 184.7
L 141.95 183.3
Q 142.4 182.55 142.55 182
L 143.05 180.8 145.65 180.3
Q 146.15 180.3 146.35 180.2
L 147.15 180
Q 147.6 179.85 150 179.3 150.35 179.2 150.85 179.1
L 151.15 179
Q 150.8 178.7 150.25 177.9 149.55 177.4 147.95 176
L 144.75 173.1 Z"/>
</g>

<g id="stiker_222222_copy_5_0_Layer5_48_FILL">
<path fill="#FFFFFF" stroke="none" d="
M 143.2 173.15
L 143.4 167.95 139 171.05 138.8 171.15
Q 137.6 170.25 136.6 169.35
L 134.6 167.55 135.8 173.95 135.6 174.15 135 174.65
Q 134.5 174.95 133.3 175.95 132.6 176.35 131.5 177.25
L 130.7 177.85 133.6 178.75
Q 135 179.25 136.5 179.65
L 136.9 180.75
Q 137.1 181.45 137.8 183.25
L 139.15 186.85 140.15 183.05
Q 140.65 181.15 140.85 180.45 140.95 179.75 141.05 179.55
L 141.15 179.25 144.65 178.75
Q 145.35 178.7 147.05 178.35
L 148.15 178.2 143.8 174.85 143.1 174.15
Q 143.2 173.75 143.2 173.15 Z"/>
</g>

<g id="stiker_222222_copy_5_0_Layer5_49_FILL">
<path fill="#000000" stroke="none" d="
M 88.3 37
L 87.5 36.8
Q 86.4 36.5 85.7 36.4
L 83.1 36
Q 82.5 34.7 81.8 33.5
L 80.4 31 80 31.8 78.3 36.2 77.4 36.4 73 37.8 77.6 41 77.7 43.7
Q 77.7 45.1 77.8 45.6
L 77.9 46.5 79.7 45
Q 80.2 44.6 81 44
L 81.6 43.5 82.3 43.9
Q 82.9 44.35 83.8 44.8 84.9 45.4 85.9 46.1
L 84.7 40.6 86.4 38.7
Q 86.75 38.2 87.55 37.4 88 37 88.3 37 Z"/>
</g>

<g id="stiker_222222_copy_5_0_Layer5_50_FILL">
<path fill="#FFFFFF" stroke="none" d="
M 81.25 42.1
L 84 44 83 40.3 83.5 39.8 86 37.7 84.15 37.3
Q 83.3 37.1 83 37
L 82.4 36.9 80.4 32.9 79.5 37.5 78.9 37.6
Q 78.25 37.6 77.5 37.9
L 75.4 38.4 78.45 40.5 78.45 42.4
Q 78.45 43.3 78.55 44.2
L 81.25 42.1 Z"/>
</g>

<g id="stiker_222222_copy_5_0_Layer5_51_FILL">
<path fill="#000000" stroke="none" d="
M 28.75 157.85
L 25.35 160.45 21.85 158.75 22.05 160.95
Q 22.15 162.05 22.35 163.05
L 19.35 166.35 21.55 166.55
Q 22.65 166.55 23.65 166.7
L 24.65 168.6
Q 25.15 169.6 25.75 170.5
L 27.35 166.2 29.35 165.5
Q 30.35 165.2 31.35 164.8
L 29.7 163.55
Q 29 162.85 28.7 162.65
L 28.2 162.25 28.75 157.85 Z"/>
</g>

<g id="stiker_222222_copy_5_0_Layer5_52_FILL">
<path fill="#FFFFFF" stroke="none" d="
M 27.55 159.8
L 26.35 160.7
Q 25.75 161.2 25.15 161.55 24.55 161.25 24.05 160.85
L 23.35 160.35 23.05 160.05 23.45 163.45 21.05 165.45 24.25 165.15 24.45 165.65
Q 24.65 165.95 24.95 166.75
L 25.65 168.35 26.25 165.5 29.75 164.5 26.85 162.8 27.55 159.8 Z"/>
</g>

<g id="stiker_222222_copy_5_0_Layer5_53_FILL">
<path fill="#000000" stroke="none" d="
M 45.5 34.9
L 45.7 32.3 45 32.4 41.5 33.4 36.7 29.6 36.9 30.5
Q 37 31.1 37.4 32.5 37.65 33.75 38 34.4 38.2 35 38.4 35.2
L 36.9 36.8
Q 36.55 36.95 36.4 37.3
L 35.5 38.3 36.3 38.6
Q 37.05 38.75 38.1 39.2
L 40.6 40.2 43.9 45.4 44.2 44.8
Q 44.2 44.3 44.3 44.1 44.3 43.6 44.4 43.4
L 44.7 42 44.9 41.4 47.1 41.8
Q 47.7 41.9 48.6 42.2
L 49.3 42.4
Q 48.3 41.2 47.4 39.9
L 45.4 37.4
Q 45.4 36.1 45.5 34.9 Z"/>
</g>

<g id="stiker_222222_copy_5_0_Layer5_54_FILL">
<path fill="#FFFF00" stroke="none" d="
M 44.3 36.7
Q 44.3 36 44.4 35.6
L 44.7 34 44.2 34.1
Q 43.6 34.3 43.2 34.4
L 41.75 34.9 38.2 31.5 39.75 36.1 39.7 36.2 39.4 36.4
Q 38.8 36.7 38.6 36.9
L 37.9 37.4 37.6 37.7 40.75 38.9 43.4 43.5 43.7 41.8
Q 43.7 41.3 43.9 40.7
L 44 40.2 44.5 40.3
Q 44.8 40.3 45.6 40.5 46 40.6 46.7 40.7
L 47.2 40.8 44.2 37.2 44.3 36.7 Z"/>
</g>

<g id="stiker_222222_copy_5_0_Layer5_55_FILL">
<path fill="#000000" stroke="none" d="
M 167.5 87.55
Q 167.05 77.5 166.55 73.3 165.5 64.35 163 59.65 160.35 54.8 155.7 54.5 151.2 54.25 148.35 58.15 144.85 63.25 143.5 79.55
L 143 88.45
Q 142.85 96.75 143.15 101.3 143.4 106.1 144.6 113.85 144.9 116.35 145.85 120.7 146.65 124.55 147.5 127.45
L 149.3 132.75
Q 150.2 135 151.6 135.85 153.7 137.2 156.5 137.35
L 161.65 137.35
Q 169.9 136.85 181.85 133.1 194.5 129.15 200.5 124.8 206.1 120.8 205.85 116.6 205.8 115.4 205.35 114.35 203.75 110.05 197 109.85 190.7 109.65 182.6 111.45 177.15 112.65 168.5 115.45
L 167.5 87.55 Z"/>
</g>

<g id="stiker_222222_copy_5_0_Layer5_56_FILL">
<path fill="#970000" stroke="none" d="
M 166.6 86.65
Q 166.25 76.95 165.7 72.4 164.65 63.45 162.1 58.75 159.4 53.9 154.75 53.65 150.3 53.4 147.5 57.25 144 62.3 142.6 78.65
L 142.2 87.55
Q 142.05 95.85 142.35 100.4 142.6 105.2 143.8 112.95 144.1 115.45 145.05 119.8 145.85 123.65 146.7 126.55
L 148.5 131.85
Q 149.4 134.1 150.8 135 152.75 136.2 155.7 136.35
L 160.9 136.5
Q 169.25 135.9 181.1 132.2 193.8 128.25 199.7 123.85 205.35 120 205.1 115.7 204.95 114.35 204.6 113.45 202.95 109.15 196.2 108.95 189.8 108.75 181.7 110.55 176.25 111.75 167.6 114.55
L 166.6 86.65 Z"/>
</g>

<g id="stiker_222222_copy_5_0_Layer5_57_FILL">
<path fill="url(#Gradient_2)" stroke="none" d="
M 164.1 83.25
Q 163.75 73.55 163.2 69 162.15 60.05 159.6 55.35 156.9 50.5 152.25 50.25 147.8 50 145 53.85 141.45 59.05 140.1 75.35
L 139.6 84.25
Q 139.45 92.55 139.75 97.1 140 101.9 141.2 109.65 141.5 112.15 142.45 116.5 143.25 120.35 144.1 123.25
L 145.9 128.55
Q 146.8 130.8 148.2 131.7 150.3 132.95 153.1 133.2
L 158.3 133.3
Q 166.55 132.7 178.5 128.95 191.15 125 197.1 120.7 202.7 116.75 202.5 112.5 202.5 111.4 202.1 110.05 200.45 105.75 193.7 105.55 187.3 105.35 179.2 107.15 173.75 108.35 165.1 111.15
L 164.1 83.25 Z"/>
</g>

<g id="stiker_222222_copy_5_0_Layer5_58_FILL">
<path fill="#FF9835" stroke="none" d="
M 150.5 98.6
Q 147.6 88.45 147.85 77.6 148.1 64.95 152.85 57 153.6 56.25 153.35 55.35 153.1 54.4 152 53.9 150.9 53.4 149.55 53.55 148.25 53.75 147.5 54.5 141.9 63.65 141.25 77.75 140.55 91.85 145.3 101.3 146.1 102.05 147.4 102.2 148.75 102.3 149.85 101.7 150.95 101.2 151.15 100.25 151.35 99.35 150.5 98.6 Z"/>
</g>

<g id="stiker_222222_copy_5_0_Layer5_59_FILL">
<path fill="url(#Gradient_3)" stroke="none" d="
M 143.3 92.4
Q 140.45 75.8 126.7 66.1 112.95 56.35 96.4 59.2 79.8 62 70.1 75.7 60.35 89.45 63.2 106.1 66.05 122.7 79.8 132.4 93.55 142.15 110.1 139.3 126.65 136.45 136.4 122.7 146.15 108.95 143.3 92.4 Z"/>
</g>

<g id="stiker_222222_copy_5_0_Layer5_60_FILL">
<path fill="#FF9835" stroke="none" d="
M 98.85 128.5
Q 97.45 127.9 97.25 127.9 96.95 127.9 97.65 128.7 98.85 130.05 100.55 130.95 102.85 132.1 105.5 132.1 110.35 132.2 113.55 128.8 114.25 128 113.9 128.05 113.8 128.05 112.35 128.7 108.5 130.3 105.5 130.2 102.75 130.1 98.85 128.5 Z"/>
</g>

<g id="stiker_222222_copy_5_0_Layer5_61_FILL">
<path fill="url(#Gradient_4)" stroke="none" d="
M 103.05 89.45
Q 93.35 89.7 81.15 88.55 70.85 87.3 70.65 87.3 70.35 87.3 70.15 87.55 69.95 87.85 70 88.2 69.5 88.95 70.8 95 72.4 102.5 75.7 108.75 85.9 128 106.75 125.5 125.9 125.05 132.15 105.85 134.1 99.8 134.5 92.6 134.55 86.65 134.55 86.6 134.55 86.3 134.3 86.05 134 85.8 133.65 85.8 129.95 86.6 124.25 87.5 112.85 89.2 103.05 89.45 Z"/>
</g>

<g id="stiker_222222_copy_5_0_Layer5_62_FILL">
<path fill="#FFFFFF" stroke="none" d="
M 100.55 98.4
L 102.75 93.5 105.15 98.4 127.9 97.3
Q 130.55 97.15 131.3 93.65 131.8 91.25 131.5 86.5
L 130.65 86.5
Q 116.5 89.25 103.05 89.6 90.05 89.85 74 87.8 75.3 92.5 75.5 93 76.5 95.05 78.8 95.4
L 100.55 98.4 Z"/>
</g>

<g id="stiker_222222_copy_5_0_Layer5_63_FILL">
<path fill="#FF0000" stroke="none" d="
M 127.05 116.1
Q 125.9 113.15 123.2 112.15 120.95 111.25 117 111.6 108.75 112.25 107.5 116.9 107.55 114.9 104.3 113.7 101.3 112.6 96.9 112.6 86.05 112.65 83.25 117.9 84.15 118.45 86.9 120.3 89.6 122 91.25 122.6 94.35 123.85 98.9 124.45 103.15 125.05 106.85 124.9 119.95 124.35 127.05 116.1 Z"/>
</g>

<g id="stiker_222222_copy_5_0_Layer5_64_FILL">
<path fill="#000000" stroke="none" d="
M 95 69.85
Q 91.6 68.9 88.3 69.6 84.25 70.5 80.9 74.05 77.65 77.4 78.4 77.4 78.7 77.4 82.2 75.2 86.35 72.85 89.55 72.2 93.05 71.5 97.75 72.5 99.4 72.85 99.65 72.8 100.05 72.75 99.25 71.9 97.75 70.6 95 69.85 Z"/>
</g>

<g id="stiker_222222_copy_5_0_Layer5_65_FILL">
<path fill="#000000" stroke="none" d="
M 117.3 68.7
Q 114.35 68.35 111.05 69.55 108.2 70.6 106.9 71.95 106.05 72.8 106.4 72.85 106.6 72.85 108.2 72.4 112.7 71.05 115.8 71.3 118.7 71.55 122.15 73.25 123.9 74.1 125.3 74.85 124.8 73.45 123.5 72 120.9 69.1 117.3 68.7 Z"/>
</g>

<g id="stiker_222222_copy_5_0_Layer5_68_FILL">
<path fill="#00CBFF" stroke="none" d="
M 59.2 84
Q 53.6 86.9 53.5 92.75 53.45 95 54.6 95.9 55.8 96.85 57.6 95.4 59.4 93.95 64.7 87.6 68.5 83 70.2 83.5
L 69 87.9
Q 68.25 93.05 70.7 96.8 72.05 98.9 73.75 99.25 75.3 99.5 76.4 98.4 77.5 97.25 77.3 95.6 77.15 93.7 75.3 92.1 71.2 88.5 72.05 84 72.95 79.25 79 76.7 76 77.5 72.05 78.8 64.1 81.4 59.2 84 Z"/>
</g>

<g id="stiker_222222_copy_5_0_Layer5_70_FILL">
<path fill="#00CBFF" stroke="none" d="
M 63.65 97.85
Q 63.7 95.9 65.15 93.6
L 62.85 95.35
Q 60.6 97.8 60.65 101.5 60.7 105.6 63 105.5 63.9 105.5 64.35 104.65 64.85 103.7 64.5 102.4 63.65 99.2 63.65 97.85 Z"/>
</g>

<g id="stiker_222222_copy_5_0_Layer5_71_FILL">
<path fill="#FEFEFE" stroke="none" d="
M 64.55 82.9
Q 66.4 81.9 68 81.2 65.75 82 63.3 83.1 58.45 85.4 57.55 87.1 56.55 89 57.6 88.5 58.55 87.95 59.85 86.2 60.9 84.85 64.55 82.9 Z"/>
</g>

<g id="stiker_222222_copy_5_0_Layer5_72_FILL">
<path fill="#FEFEFE" stroke="none" d="
M 70.45 85.85
L 70.9 83.2 70.05 86.65
Q 69.3 90.3 69.9 91.5 70.55 92.85 70.7 92.1 70.8 91.35 70.4 89.9 70.05 88.7 70.45 85.85 Z"/>
</g>

<g id="stiker_222222_copy_5_0_Layer5_74_FILL">
<path fill="#00CBFF" stroke="none" d="
M 141.65 87.1
Q 143.65 88.85 144.2 90.65 144.65 92.05 144.55 95.2 144.5 96.5 145.15 97.25 145.8 97.95 146.6 97.75 148.75 97.25 147.85 93.4 147 89.95 144.25 88.2
L 141.65 87.1 Z"/>
</g>

<g id="stiker_222222_copy_5_0_Layer5_76_FILL">
<path fill="#00CBFF" stroke="none" d="
M 142.85 83.5
Q 144.6 83.5 145.65 84.1 146.45 84.5 147.85 86 149.25 87.45 150.05 86.25 150.85 85 148.65 83.6 146.7 82.4 144.55 82.85
L 142.85 83.5 Z"/>
</g>

<g id="stiker_222222_copy_5_0_Layer5_78_FILL">
<path fill="#00CBFF" stroke="none" d="
M 124.5 75.7
Q 128.8 76.5 130.95 78.35 132.65 79.75 134.9 83.85 135.9 85.6 137.55 86 139.05 86.35 140.15 85.45 143 83.1 138.6 78.85 134.7 75.05 129.2 75
L 124.5 75.7 Z"/>
</g>

<g id="stiker_222222_copy_5_0_Layer5_79_FILL">
<path fill="#FEFEFE" stroke="none" d="
M 129.85 76.2
L 132.9 77.6
Q 136.05 79.2 136.85 80.3 137.9 81.75 138.7 82.15 139.55 82.55 138.85 81 138.25 79.65 134 77.8
L 129.85 76.2 Z"/>
</g>

<g id="stiker_222222_copy_5_0_Layer5_80_FILL">
<path fill="#FFFFFF" stroke="none" d="
M 136.1 83.3
Q 135.9 83.65 136.2 84.2 136.5 84.7 137.1 85 138.7 85.9 139.2 85.2 139.45 84.9 139.1 84.4 138.75 83.85 138.1 83.5 137.5 83.1 136.9 83.05 136.35 83 136.1 83.3 Z"/>
</g>

<g id="stiker_222222_copy_5_0_Layer5_81_FILL">
<path fill="#FFFFFF" stroke="none" d="
M 145.6 93.6
Q 145.25 93.6 145.05 94.1 144.85 94.6 144.9 95.3 145.05 96.95 145.7 96.95 146 96.95 146.2 96.45 146.4 96 146.4 95.3 146.4 94.6 146.15 94.1 145.9 93.6 145.6 93.6 Z"/>
</g>

<g id="stiker_222222_copy_5_0_Layer5_82_FILL">
<path fill="#FFFFFF" stroke="none" d="
M 148 85.1
Q 147.85 85.25 148.05 85.55 148.25 85.9 148.6 86.1 148.9 86.3 149.25 86.35 149.65 86.4 149.7 86.3 149.85 85.75 149.1 85.3 148.75 85.1 148.4 85 148.1 84.95 148 85.1 Z"/>
</g>

<g id="stiker_222222_copy_5_0_Layer5_83_FILL">
<path fill="#FFFFFF" stroke="none" d="
M 62.05 101.2
Q 61.4 101.4 61.65 103.1 61.7 103.85 62.05 104.35 62.35 104.85 62.65 104.8 62.95 104.8 63.1 104.2 63.2 103.6 63.05 102.85 63 102.1 62.7 101.6 62.4 101.15 62.05 101.2 Z"/>
</g>

<g id="stiker_222222_copy_5_0_Layer5_84_FILL">
<path fill="#FFFFFF" stroke="none" d="
M 56.5 89
Q 55.9 88.85 55.3 89.55 54.65 90.2 54.4 91.4 54.1 92.6 54.3 93.55 54.5 94.5 55.1 94.7 55.7 94.85 56.3 94.2 56.85 93.5 57.2 92.3 57.45 91.1 57.25 90.15 57.05 89.25 56.5 89 Z"/>
</g>

<g id="stiker_222222_copy_5_0_Layer5_85_FILL">
<path fill="#FFFFFF" stroke="none" d="
M 70.55 93.3
Q 70.2 93.6 70.4 94.45 70.55 95.25 71.15 96.2 71.8 97.2 72.5 97.7 73.2 98.25 73.55 98 73.9 97.75 73.75 96.95 73.6 96.05 73 95.1 72.35 94.15 71.65 93.6 70.95 93.1 70.55 93.3 Z"/>
</g>

<g id="stiker_222222_copy_5_0_Layer5_86_FILL">
<path fill="#000000" stroke="none" d="
M 40.15 59.6
Q 35.65 59.3 32.9 63.7 30.7 67.35 29.45 75.5 28.5 81.25 28.2 88 27.35 101.8 27.9 111.7 28.45 122 30.8 135
L 34.3 148.6 35.3 150.8
Q 36.95 153.45 42.05 153.95 45.5 154.25 49.8 153.6 59.95 152 70.4 147.95 83.3 142.95 88.4 137 91.1 134 90.8 130.6 90.45 124.45 84.15 123.3 74.45 121.4 53.4 129.2
L 52.5 106.7
Q 52.65 103.4 52.1 92.8 51.5 82 50.9 77.8 49.75 70 47.6 65.5 44.85 59.95 40.15 59.6 Z"/>
</g>

<g id="stiker_222222_copy_5_0_Layer5_87_FILL">
<path fill="#970000" stroke="none" d="
M 39.25 58.45
Q 34.8 58.15 32 62.55 28.35 68.65 27.25 86.95 26.5 100.8 27.05 110.65 27.6 121 30 133.95
L 33.5 147.7 34.5 149.85
Q 36.15 152.5 41.2 153 44.7 153.35 49 152.7 59.1 151.1 69.6 147 82.45 142 87.55 136.05 90.1 133.3 90 129.7 89.7 123.55 83.3 122.15 73.45 120.25 52.5 128.05
L 51.55 105.55
Q 51.7 102.3 51.15 91.65 50.55 80.9 50 76.65 48.85 68.85 46.7 64.35 43.95 58.8 39.25 58.45 Z"/>
</g>

<g id="stiker_222222_copy_5_0_Layer5_88_FILL">
<path fill="url(#Gradient_5)" stroke="none" d="
M 36.75 55.35
Q 32.3 55.05 29.5 59.45 25.9 65.5 24.75 83.85 24 97.7 24.55 107.55 25.1 117.95 27.5 130.85
L 29.2 138.5 31 144.5 32 146.7
Q 33.65 149.35 38.7 149.85 42.15 150.15 46.5 149.5 56.65 147.9 67.1 143.85 79.95 138.85 85.05 132.85 87.6 130.1 87.5 126.5 87 120.4 80.8 119.1 70.95 117.2 50 125
L 49.05 102.45
Q 49.2 99.2 48.65 88.55 48.05 77.8 47.5 73.55 46.35 65.75 44.2 61.25 41.45 55.7 36.75 55.35 Z"/>
</g>

<g id="stiker_222222_copy_5_0_Layer5_89_FILL">
<path fill="#FF9835" stroke="none" d="
M 33.9 96.25
Q 34.15 78 38.9 66.6 39.55 65.45 39.35 64.15 39.1 62.85 38 62.1 36.9 61.35 35.55 61.6 34.25 61.9 33.5 63 27.9 76.2 27.2 96.5 26.55 116.75 31.25 130.5 32.1 131.5 33.45 131.7 34.75 131.85 35.9 131.1 36.9 130.25 37.1 128.95 37.3 127.65 36.5 126.6 33.6 111.85 33.9 96.25 Z"/>
</g>

<g id="stiker_222222_copy_5_0_Layer5_90_FILL">
<path fill="#FF9835" stroke="none" d="
M 163.85 130.35
Q 167.5 129.9 174.65 127.4
L 174.75 127.4
Q 175.65 127.5 176.2 126.55 176.75 125.65 176.65 124.3 176.5 123 175.85 122.05 175.15 121.1 174.25 121 173.75 121 173.25 121.1 165.8 123.4 163.2 123.85 159.75 124.45 152.35 123.5 151.45 123.3 150.9 124.05 150.3 124.8 150.35 126.1 150.35 127.45 150.95 128.5 151.55 129.6 152.45 129.8 160 130.75 163.85 130.35 Z"/>
</g>

<g id="stiker_222222_copy_5_0_Layer5_91_FILL">
<path fill="#FF9835" stroke="none" d="
M 56.35 144.7
Q 61.9 143.5 72.55 139.5
L 72.75 139.5
Q 74.1 139.35 74.95 138.35 75.8 137.35 75.65 136 75.55 134.7 74.55 133.9 73.5 133.05 72.15 133.2 70.9 133.4 70.65 133.5 59.45 137.35 55.55 138.3 50.4 139.6 39.25 140.2 37.95 140.2 37 141.1 36.05 142 35.95 143.3 35.95 144.65 36.9 145.6 37.8 146.5 39.15 146.5 50.6 145.9 56.35 144.7 Z"/>
</g>

<g id="stiker_222222_copy_5_0_Layer5_92_FILL">
<path fill="#000000" stroke="none" d="
M 177.15 135.6
L 175.35 128.3
Q 175.05 128.6 174.65 129.2 174.3 129.8 174 130.1 173.9 130.3 173.6 130.6
L 170.7 133.8 169.6 133.7
Q 169.55 133.7 167 133.4
L 163.3 132.8 166 137.3 167 139.3 163.2 145.8 170.65 144.8 173.15 147.7
Q 173.85 148.4 174.85 149.7
L 175.65 150.6 175.8 150.2
Q 175.85 149.7 176 149.3 176.4 147.5 176.6 146.5
L 177.3 142.6 180.8 140.5
Q 182.5 139.5 184.15 138.4
L 177.15 135.6 Z"/>
</g>

<g id="stiker_222222_copy_5_0_Layer5_93_FILL">
<path fill="#FFFF00" stroke="none" d="
M 174.7 131.7
Q 174 132.7 173.2 133.6 172.5 134.5 172.2 134.9
L 171.9 135.3 171.8 135.5 165.5 134.35 167 136.65
Q 167.05 136.75 168 138.35
L 168.5 139.15 165.9 143.85 166.1 143.85 171.5 142.75 174.5 146.95 175.4 141.2 179.3 139.35
Q 179.6 139.3 180.2 139
L 181.1 138.6
Q 179.6 138.2 178.2 137.7
L 175.3 136.7 174.7 131.7 Z"/>
</g>

<g id="stiker_222222_copy_5_0_Layer5_94_FILL">
<path fill="#000000" stroke="none" d="
M 28.3 98.1
L 24.3 96.35 22.85 92 20.5 95.5 16.15 95.5 19.05 99 18.65 101.1
Q 18.6 102.1 18.35 103.1
L 22.1 101.65 23.85 103.05
Q 24.7 103.8 25.6 104.45
L 25.1 100.2 28.3 98.1 Z"/>
</g>

<g id="stiker_222222_copy_5_0_Layer5_95_FILL">
<path fill="#FFFFFF" stroke="none" d="
M 26.6 98.25
L 23.6 96.85 23 93.65 22.3 95.15
Q 21.85 95.95 21.6 96.65
L 18.15 96.3 20.35 98.3 19.5 101.9 20.1 101.45 22.3 100.25 24.6 102.35 24.3 99.35 26.6 98.25 Z"/>
</g>

<g id="stiker_222222_copy_5_0_Layer5_96_FILL">
<path fill="#000000" stroke="none" d="
M 32.35 59.6
L 32.95 56.4 26.75 60.3
Q 25.25 59.8 23.65 59.1
L 20.55 57.7 21.75 64.5 16.95 70 24.25 70.2 26.35 73.1
Q 27.05 73.85 27.85 75
L 28.6 75.9 28.95 74.6
Q 29.1 73.55 29.55 72.2
L 30.55 68.8 37.05 66 36.25 65.5
Q 36.1 65.45 34.45 64.5
L 31.85 62.9
Q 32.05 61.2 32.35 59.6 Z"/>
</g>

<g id="stiker_222222_copy_5_0_Layer5_97_FILL">
<path fill="#FFF02C" stroke="none" d="
M 30.65 61.4
L 31.25 59.2 26.85 62.3
Q 25.7 61.8 24.5 61.1 23.35 60.35 22.85 60.15
L 22.15 59.75 22.25 60.55
Q 22.25 61.25 22.5 62.25
L 22.75 64.05
Q 22.75 64.55 22.85 64.85
L 20.65 67.05
Q 19.55 68.3 18.45 69.35
L 21.65 68.85
Q 22.5 68.8 23.85 68.45
L 24.85 68.3 28.2 73.2 29.5 67.8 34.25 65.9 33.55 65.6 30.15 63.6
Q 30.35 62.5 30.65 61.4 Z"/>
</g>

<g id="stiker_222222_copy_5_0_Layer5_98_FILL">
<path fill="#000000" stroke="none" d="
M 17.35 127.8
L 13.65 128.6
Q 11.85 129 9.95 129.3
L 13.05 132
Q 13.35 132.3 15.15 133.8
L 16.15 134.6 16.35 142.6 22.15 137.8 29.45 140 27.55 135.2
Q 27.25 134.35 27.15 134.05
L 26.75 132.95
Q 27.85 131.45 29 130.05
L 31.35 127.2 23.85 127.2 21.55 123.4 20.15 120.8 17.35 127.8 Z"/>
</g>

<g id="stiker_222222_copy_5_0_Layer5_99_FILL">
<path fill="#FFFF00" stroke="none" d="
M 18.35 129.25
Q 17.1 129.45 15.85 129.55
L 13.3 129.85 14 130.45
Q 14.4 130.85 15.6 131.75
L 18 133.45 17.45 139.75 21.95 135.75 24.25 136.85
Q 24.85 137.2 25.85 137.55
L 26.55 137.85
Q 26.5 137.55 26.25 137.2 25.85 136.2 25.65 135.55
L 24.75 133.25 28.75 128.35 23.05 128.45 22.95 128.25
Q 22.75 127.95 22.65 127.75 21.95 126.75 21.65 126.15
L 20.25 123.85 18.35 129.25 Z"/>
</g>

<path id="stiker_222222_copy_5_0_Layer5_0_1_STROKES" stroke="#4E4E4D" stroke-width="2" stroke-linejoin="miter" stroke-linecap="butt" stroke-miterlimit="10" fill="none" d="
M 109.18424835205079 147.66909790039065
Q 112.06422882080076 146.54410552978518 114.44921264648437 145.28411407470705 116.02420196533203 144.4741195678711 119.26417999267576 142.44913330078126 123.26915283203125 144.24912109375 125.02414093017578 144.78911743164062 127.81412200927733 145.59911193847657 131.23409881591797 145.59911193847657 134.02407989501953 145.55411224365233 137.3540573120117 145.4641128540039 139.9190399169922 145.32911376953123 144.01401214599608 144.51911926269534 155.44393463134767 142.22413482666016 164.1738754272461 138.44416046142578 176.2787933349609 133.17919616699217 181.04876098632812 125.9792449951172 186.80872192382813 117.11430511474609 183.1637466430664 107.39437103271484 179.47377166748046 97.4494384765625 168.7188446044922 94.65945739746095 165.61386566162108 93.849462890625 161.83389129638672 93.75946350097658 161.20389556884763 93.71446380615234 154.94893798828124 93.849462890625 154.45394134521482 79.76455841064453 153.19394989013674 73.64459991455078 150.7639663696289 62.03467864990234 143.9690124511719 56.22971801757813 137.17405853271484 50.514756774902345 128.35411834716794 51.23475189208984 119.66917724609375 51.90974731445312 113.81921691894532 58.47970275878907
L 111.38923339843748 61.17968444824219 107.96925659179686 60.009692382812496
Q 97.43932800292967 56.319717407226555 86.36940307617186 57.804707336425786 75.29947814941406 59.334696960449214 66.11954040527343 65.67965393066407
L 61.709570312500006 68.6496337890625
Q 58.28959350585937 63.83466644287109 57.70459747314454 63.114671325683595 55.409613037109374 60.27969055175782 52.70963134765625 58.47970275878907 45.23968200683594 53.48473663330078 36.64474029541015 55.37472381591797 28.094798278808593 57.21971130371093 23.009832763671874 64.86965942382812 17.744868469238284 72.7446060180664 16.664875793457036 92.8594696044922 15.899880981445312 108.06936645507812 17.42987060546875 120.4892822265625
L 19.2298583984375 131.64920654296876 19.31985778808594 131.64920654296876 20.48984985351563 137.4991668701172 20.579849243164062 137.4991668701172
Q 22.15483856201172 143.16912841796878 22.649835205078126 144.51911926269534 24.04482574462891 148.2990936279297 26.159811401367186 150.81907653808597 35.56474761962891 162.15899963378908 58.154594421386726 156.62403717041016 69.44951782226562 153.8340560913086 79.03445281982422 148.74909057617188 79.16945190429686 148.74909057617188 81.6444351196289 149.4690856933594 84.79441375732421 150.2340805053711 88.16939086914061 150.54907836914063 98.96931762695311 151.53907165527343 109.18424835205079 147.66909790039065 Z
M 119.98417510986329 154.46405181884765
Q 106.03426971435547 162.0240005493164 90.59937438964843 161.39400482177737 85.37940979003906 161.2590057373047 80.24944458007812 160.0440139770508 75.25447845458984 162.51899719238284 68.05452728271484 164.8589813232422 53.65462493896485 169.58394927978517 42.62969970703126 169.17895202636717 23.369830322265628 168.32395782470704 14.909887695312497 153.33905944824218 9.46492462158203 143.7091247558594 6.674943542480468 121.83927307128906 4.8299560546875 107.16937255859375 5.999948120117187 90.51948547363281 7.484938049316407 68.78463287353516 13.964894104003907 59.01969909667968 22.829833984375 45.83478851318359 38.084730529785155 44.349798583984374 53.249627685546876 42.90980834960937 64.09455413818358 54.114732360839845 74.12948608398438 48.35477142333985 85.60440826416016 46.95978088378906 97.07933044433594 45.56479034423828 108.14925537109374 48.714768981933595 119.98417510986329 38.04984130859375 135.4640701293945 40.794822692871094 150.98896484374998 43.58480377197265 158.86391143798826 57.93970642089844 164.08387603759766 67.29964294433594 165.07386932373046 83.09453582763672 176.18879394531248 84.12952880859376 184.06374053955076 90.65448455810548 192.25368499755857 97.4494384765625 194.5036697387695 108.20436553955079 195.71866149902345 114.27932434082032 194.63866882324217 120.30928344726564 193.46867675781252 126.51924133300781 190.00370025634763 131.8292053222656 183.9287414550781 141.1441421508789 170.20383453369138 147.48909912109374 159.8989044189453 152.25906677246095 146.08399810791016 155.0490478515625 138.38905029296873 156.4890380859375 133.7540817260742 156.39903869628907 129.38911132812498 156.39903869628907 127.36412506103514 156.21903991699222 124.1241470336914 155.90404205322264 119.98417510986329 154.46405181884765 Z"/>

<path id="stiker_222222_copy_5_0_Layer5_59_1_STROKES" stroke="#970000" stroke-width="1.5" stroke-linejoin="miter" stroke-linecap="butt" stroke-miterlimit="10" fill="none" d="
M 85.10941162109376 67.92963867187501
Q 100.00431060791016 65.36465606689454 112.37922668457031 74.13959655761718 124.75414276123045 82.86953735351562 127.31912536621095 97.80943603515627 129.8841079711914 112.70433502197267 121.10916748046876 125.07925109863282 112.3342269897461 137.45416717529295 97.43932800292967 140.01914978027344 82.54442901611327 142.58413238525392 70.16951293945311 133.80919189453127 57.794596862792964 125.07925109863282 55.22961425781251 110.13935241699218 52.664631652832036 95.15445404052736 61.439572143554685 82.7795379638672 70.16951293945311 70.44962158203126 85.10941162109376 67.92963867187501 Z"/>

<path id="stiker_222222_copy_5_0_Layer5_66_1_STROKES" stroke="#970000" stroke-width="1.55" stroke-linejoin="round" stroke-linecap="round" fill="none" d="
M 61.34957275390625 94.02946166992189
Q 61.30457305908204 93.71446380615234 61.48457183837891 93.44446563720703 61.66457061767578 93.21946716308594 61.9345687866211 93.21946716308594 62.114567565917966 93.21946716308594 71.38450469970704 94.3444595336914 82.36443023681639 95.37945251464845 91.09437103271483 95.15445404052736 99.9143112182617 94.92945556640626 110.17424163818359 93.39946594238282 115.30420684814452 92.58947143554687 118.63418426513672 91.86947631835938 118.94918212890624 91.86947631835938 119.21918029785157 92.09447479248047 119.44417877197266 92.31947326660156 119.44417877197266 92.58947143554687 119.44417877197266 92.63447113037111 119.39917907714843 97.98943481445312 119.03918151855467 104.46939086914062 117.28419342041016 109.91435394287109 111.65923156738282 127.1942367553711 94.42434844970703 127.59923400878907 75.29947814941406 128.8592254638672 66.16454010009764 111.75934143066408 63.23955993652343 106.22437896728516 61.88956909179687 99.78942260742187 60.7645767211914 94.38945922851562 61.34957275390625 94.02946166992189 Z"/>

<path id="stiker_222222_copy_5_0_Layer5_67_1_STROKES" stroke="#0000FF" stroke-width="0.95" stroke-linejoin="round" stroke-linecap="round" fill="none" d="
M 69.44951782226562 83.67953186035157
Q 66.7495361328125 84.39952697753907 63.194560241699214 85.56951904296875 56.039608764648435 87.90950317382814 51.62963867187501 90.2494873046875 46.589672851562504 92.8594696044922 46.499673461914064 98.12443389892579 46.45467376708985 100.14942016601563 47.48966674804688 100.95941467285158 48.56965942382812 101.81440887451171 50.189648437500004 100.50941772460939 51.809637451171874 99.20442657470704 56.57960510253907 93.48946533203124 59.99958190917969 89.34949340820313 61.52957153320313 89.79949035644532
L 60.449578857421876 93.75946350097658
Q 59.774583435058595 98.3944320678711 61.97956848144532 101.7694091796875 63.194560241699214 103.6593963623047 64.72454986572265 103.97439422607422 66.11954040527343 104.19939270019532 67.10953369140626 103.20939941406252 68.09952697753906 102.17440643310547 67.91952819824218 100.68941650390624 67.78452911376954 98.97942810058595 66.11954040527343 97.53943786621093 62.42956542968751 94.2994598388672 63.194560241699214 90.2494873046875 64.00455474853516 85.97451629638672 69.44951782226562 83.67953186035157 Z"/>

<path id="stiker_222222_copy_5_0_Layer5_69_1_STROKES" stroke="#0000FF" stroke-width="0.95" stroke-linejoin="round" stroke-linecap="round" fill="none" d="
M 56.98460235595704 98.8894287109375
L 54.91461639404297 100.46441802978515
Q 52.88963012695313 102.66940307617188 52.93462982177734 105.99938049316407 52.97962951660157 109.68935546875 55.049615478515626 109.59935607910157 55.85960998535156 109.59935607910157 56.26460723876953 108.83436126708986 56.714604187011716 107.9793670654297 56.39960632324219 106.80937500000002 55.63461151123047 103.92939453125001 55.63461151123047 102.71440277099609 55.679611206054695 100.95941467285158 56.98460235595704 98.8894287109375 Z"/>

<path id="stiker_222222_copy_5_0_Layer5_73_1_STROKES" stroke="#0000FF" stroke-width="0.95" stroke-linejoin="round" stroke-linecap="round" fill="none" d="
M 125.83413543701172 93.03946838378906
L 128.1741195678711 94.02946166992189
Q 130.64910278320312 95.60445098876954 131.41409759521483 98.70942993164064 132.22409210205078 102.17440643310547 130.28910522460936 102.62440338134766 129.5691101074219 102.80440216064454 128.98411407470704 102.17440643310547 128.39911804199218 101.4994110107422 128.44411773681642 100.32941894531251 128.53411712646485 97.49443817138672 128.12911987304685 96.23444671630861 127.63412322998047 94.61445770263671 125.83413543701172 93.03946838378906 Z"/>

<path id="stiker_222222_copy_5_0_Layer5_75_1_STROKES" stroke="#0000FF" stroke-width="0.95" stroke-linejoin="round" stroke-linecap="round" fill="none" d="
M 126.91412811279295 89.79949035644532
L 128.44411773681642 89.21449432373046
Q 130.37910461425778 88.80949707031252 132.13409271240235 89.88948974609374 134.11407928466795 91.14948120117188 133.3940841674805 92.27447357177735 132.67408905029296 93.3544662475586 131.41409759521483 92.04947509765626 130.1541061401367 90.6994842529297 129.43411102294922 90.33948669433593 128.4891174316406 89.79949035644532 126.91412811279295 89.79949035644532 Z"/>

<path id="stiker_222222_copy_5_0_Layer5_77_1_STROKES" stroke="#0000FF" stroke-width="0.95" stroke-linejoin="round" stroke-linecap="round" fill="none" d="
M 110.39924011230468 82.7795379638672
L 114.62921142578124 82.14954223632813
Q 119.5791778564453 82.19454193115234 123.08915405273436 85.61451873779296 127.04912719726562 89.43949279785156 124.48414459228516 91.55447845458986 123.49415130615235 92.36447296142578 122.14416046142578 92.04947509765626 120.65917053222657 91.6894775390625 119.7591766357422 90.11448822021484 117.73419036865235 86.42451324462891 116.20420074462889 85.16452178955078 114.2692138671875 83.4995330810547 110.39924011230468 82.7795379638672 Z"/>
</defs>

<g transform="matrix( 1, 0, 0, 1, 0,0) ">
<g transform="matrix( 1, 0, 0, 1, 0,0) ">
<g transform="matrix( 1, 0, 0, 1, 0,0) ">
<use filter="url(#Filter_1)" xlink:href="#Symbol_1_0_Layer0_0_FILL"/>
</g>
</g>

<g transform="matrix( 0.899993896484375, 0, 0, 0.899993896484375, -1.65,14.65) ">
<use xlink:href="#stiker_222222_copy_5_0_Layer5_0_1_STROKES" transform="matrix( 1.111114501953125, 0, 0, 1.111114501953125, 1.8,-16.25) "/>
</g>

<g transform="matrix( 0.899993896484375, 0, 0, 0.899993896484375, -1.65,14.65) ">
<use xlink:href="#stiker_222222_copy_5_0_Layer5_1_FILL"/>
</g>

<g transform="matrix( 0.899993896484375, 0, 0, 0.899993896484375, -1.65,14.65) ">
<use xlink:href="#stiker_222222_copy_5_0_Layer5_2_FILL"/>
</g>

<g transform="matrix( 0.899993896484375, 0, 0, 0.899993896484375, -1.65,14.65) ">
<use xlink:href="#stiker_222222_copy_5_0_Layer5_3_FILL"/>
</g>

<g transform="matrix( 0.899993896484375, 0, 0, 0.899993896484375, -1.65,14.65) ">
<use xlink:href="#stiker_222222_copy_5_0_Layer5_4_FILL"/>
</g>

<g transform="matrix( 0.899993896484375, 0, 0, 0.899993896484375, -1.65,14.65) ">
<use xlink:href="#stiker_222222_copy_5_0_Layer5_5_FILL"/>
</g>

<g transform="matrix( 0.899993896484375, 0, 0, 0.899993896484375, -1.65,14.65) ">
<use xlink:href="#stiker_222222_copy_5_0_Layer5_6_FILL"/>
</g>

<g transform="matrix( 0.899993896484375, 0, 0, 0.899993896484375, -1.65,14.65) ">
<use xlink:href="#stiker_222222_copy_5_0_Layer5_7_FILL"/>
</g>

<g transform="matrix( 0.899993896484375, 0, 0, 0.899993896484375, -1.65,14.65) ">
<use xlink:href="#stiker_222222_copy_5_0_Layer5_8_FILL"/>
</g>

<g transform="matrix( 0.899993896484375, 0, 0, 0.899993896484375, -1.65,14.65) ">
<use xlink:href="#stiker_222222_copy_5_0_Layer5_9_FILL"/>
</g>

<g transform="matrix( 0.899993896484375, 0, 0, 0.899993896484375, -1.65,14.65) ">
<use xlink:href="#stiker_222222_copy_5_0_Layer5_10_FILL"/>
</g>

<g transform="matrix( 0.899993896484375, 0, 0, 0.899993896484375, -1.65,14.65) ">
<use xlink:href="#stiker_222222_copy_5_0_Layer5_11_FILL"/>
</g>

<g transform="matrix( 0.899993896484375, 0, 0, 0.899993896484375, -1.65,14.65) ">
<use xlink:href="#stiker_222222_copy_5_0_Layer5_12_FILL"/>
</g>

<g transform="matrix( 0.899993896484375, 0, 0, 0.899993896484375, -1.65,14.65) ">
<use xlink:href="#stiker_222222_copy_5_0_Layer5_13_FILL"/>
</g>

<g transform="matrix( 0.899993896484375, 0, 0, 0.899993896484375, -1.65,14.65) ">
<use xlink:href="#stiker_222222_copy_5_0_Layer5_14_FILL"/>
</g>

<g transform="matrix( 0.899993896484375, 0, 0, 0.899993896484375, -1.65,14.65) ">
<use xlink:href="#stiker_222222_copy_5_0_Layer5_15_FILL"/>
</g>

<g transform="matrix( 0.899993896484375, 0, 0, 0.899993896484375, -1.65,14.65) ">
<use xlink:href="#stiker_222222_copy_5_0_Layer5_16_FILL"/>
</g>

<g transform="matrix( 0.899993896484375, 0, 0, 0.899993896484375, -1.65,14.65) ">
<use xlink:href="#stiker_222222_copy_5_0_Layer5_17_FILL"/>
</g>

<g transform="matrix( 0.899993896484375, 0, 0, 0.899993896484375, -1.65,14.65) ">
<use xlink:href="#stiker_222222_copy_5_0_Layer5_18_FILL"/>
</g>

<g transform="matrix( 0.899993896484375, 0, 0, 0.899993896484375, -1.65,14.65) ">
<use xlink:href="#stiker_222222_copy_5_0_Layer5_19_FILL"/>
</g>

<g transform="matrix( 0.899993896484375, 0, 0, 0.899993896484375, -1.65,14.65) ">
<use xlink:href="#stiker_222222_copy_5_0_Layer5_20_FILL"/>
</g>

<g transform="matrix( 0.899993896484375, 0, 0, 0.899993896484375, -1.65,14.65) ">
<use xlink:href="#stiker_222222_copy_5_0_Layer5_21_FILL"/>
</g>

<g transform="matrix( 0.899993896484375, 0, 0, 0.899993896484375, -1.65,14.65) ">
<use xlink:href="#stiker_222222_copy_5_0_Layer5_22_FILL"/>
</g>

<g transform="matrix( 0.899993896484375, 0, 0, 0.899993896484375, -1.65,14.65) ">
<use xlink:href="#stiker_222222_copy_5_0_Layer5_23_FILL"/>
</g>

<g transform="matrix( 0.899993896484375, 0, 0, 0.899993896484375, -1.65,14.65) ">
<use xlink:href="#stiker_222222_copy_5_0_Layer5_24_FILL"/>
</g>

<g transform="matrix( 0.899993896484375, 0, 0, 0.899993896484375, -1.65,14.65) ">
<use xlink:href="#stiker_222222_copy_5_0_Layer5_25_FILL"/>
</g>

<g transform="matrix( 0.899993896484375, 0, 0, 0.899993896484375, -1.65,14.65) ">
<use xlink:href="#stiker_222222_copy_5_0_Layer5_26_FILL"/>
</g>

<g transform="matrix( 0.899993896484375, 0, 0, 0.899993896484375, -1.65,14.65) ">
<use xlink:href="#stiker_222222_copy_5_0_Layer5_27_FILL"/>
</g>

<g transform="matrix( 0.899993896484375, 0, 0, 0.899993896484375, -1.65,14.65) ">
<use xlink:href="#stiker_222222_copy_5_0_Layer5_28_FILL"/>
</g>

<g transform="matrix( 0.899993896484375, 0, 0, 0.899993896484375, -1.65,14.65) ">
<use xlink:href="#stiker_222222_copy_5_0_Layer5_29_FILL"/>
</g>

<g transform="matrix( 0.899993896484375, 0, 0, 0.899993896484375, -1.65,14.65) ">
<use xlink:href="#stiker_222222_copy_5_0_Layer5_30_FILL"/>
</g>

<g transform="matrix( 0.899993896484375, 0, 0, 0.899993896484375, -1.65,14.65) ">
<use xlink:href="#stiker_222222_copy_5_0_Layer5_31_FILL"/>
</g>

<g transform="matrix( 0.899993896484375, 0, 0, 0.899993896484375, -1.65,14.65) ">
<use xlink:href="#stiker_222222_copy_5_0_Layer5_32_FILL"/>
</g>

<g transform="matrix( 0.899993896484375, 0, 0, 0.899993896484375, -1.65,14.65) ">
<use xlink:href="#stiker_222222_copy_5_0_Layer5_33_FILL"/>
</g>

<g transform="matrix( 0.899993896484375, 0, 0, 0.899993896484375, -1.65,14.65) ">
<use xlink:href="#stiker_222222_copy_5_0_Layer5_34_FILL"/>
</g>

<g transform="matrix( 0.899993896484375, 0, 0, 0.899993896484375, -1.65,14.65) ">
<use xlink:href="#stiker_222222_copy_5_0_Layer5_35_FILL"/>
</g>

<g transform="matrix( 0.899993896484375, 0, 0, 0.899993896484375, -1.65,14.65) ">
<use xlink:href="#stiker_222222_copy_5_0_Layer5_36_FILL"/>
</g>

<g transform="matrix( 0.899993896484375, 0, 0, 0.899993896484375, -1.65,14.65) ">
<use xlink:href="#stiker_222222_copy_5_0_Layer5_37_FILL"/>
</g>

<g transform="matrix( 0.899993896484375, 0, 0, 0.899993896484375, -1.65,14.65) ">
<use xlink:href="#stiker_222222_copy_5_0_Layer5_38_FILL"/>
</g>

<g transform="matrix( 0.899993896484375, 0, 0, 0.899993896484375, -1.65,14.65) ">
<use xlink:href="#stiker_222222_copy_5_0_Layer5_39_FILL"/>
</g>

<g transform="matrix( 0.899993896484375, 0, 0, 0.899993896484375, -1.65,14.65) ">
<use xlink:href="#stiker_222222_copy_5_0_Layer5_40_FILL"/>
</g>

<g transform="matrix( 0.899993896484375, 0, 0, 0.899993896484375, -1.65,14.65) ">
<use xlink:href="#stiker_222222_copy_5_0_Layer5_41_FILL"/>
</g>

<g transform="matrix( 0.899993896484375, 0, 0, 0.899993896484375, -1.65,14.65) ">
<use xlink:href="#stiker_222222_copy_5_0_Layer5_42_FILL"/>
</g>

<g transform="matrix( 0.899993896484375, 0, 0, 0.899993896484375, -1.65,14.65) ">
<use xlink:href="#stiker_222222_copy_5_0_Layer5_43_FILL"/>
</g>

<g transform="matrix( 0.899993896484375, 0, 0, 0.899993896484375, -1.65,14.65) ">
<use xlink:href="#stiker_222222_copy_5_0_Layer5_44_FILL"/>
</g>

<g transform="matrix( 0.899993896484375, 0, 0, 0.899993896484375, -1.65,14.65) ">
<use xlink:href="#stiker_222222_copy_5_0_Layer5_45_FILL"/>
</g>

<g transform="matrix( 0.899993896484375, 0, 0, 0.899993896484375, -1.65,14.65) ">
<use xlink:href="#stiker_222222_copy_5_0_Layer5_46_FILL"/>
</g>

<g transform="matrix( 0.899993896484375, 0, 0, 0.899993896484375, -1.65,14.65) ">
<use xlink:href="#stiker_222222_copy_5_0_Layer5_47_FILL"/>
</g>

<g transform="matrix( 0.899993896484375, 0, 0, 0.899993896484375, -1.65,14.65) ">
<use xlink:href="#stiker_222222_copy_5_0_Layer5_48_FILL"/>
</g>

<g transform="matrix( 0.899993896484375, 0, 0, 0.899993896484375, -1.65,14.65) ">
<use xlink:href="#stiker_222222_copy_5_0_Layer5_49_FILL"/>
</g>

<g transform="matrix( 0.899993896484375, 0, 0, 0.899993896484375, -1.65,14.65) ">
<use xlink:href="#stiker_222222_copy_5_0_Layer5_50_FILL"/>
</g>

<g transform="matrix( 0.899993896484375, 0, 0, 0.899993896484375, -1.65,14.65) ">
<use xlink:href="#stiker_222222_copy_5_0_Layer5_51_FILL"/>
</g>

<g transform="matrix( 0.899993896484375, 0, 0, 0.899993896484375, -1.65,14.65) ">
<use xlink:href="#stiker_222222_copy_5_0_Layer5_52_FILL"/>
</g>

<g transform="matrix( 0.899993896484375, 0, 0, 0.899993896484375, -1.65,14.65) ">
<use xlink:href="#stiker_222222_copy_5_0_Layer5_53_FILL"/>
</g>

<g transform="matrix( 0.899993896484375, 0, 0, 0.899993896484375, -1.65,14.65) ">
<use xlink:href="#stiker_222222_copy_5_0_Layer5_54_FILL"/>
</g>

<g transform="matrix( 0.899993896484375, 0, 0, 0.899993896484375, -1.65,14.65) ">
<use xlink:href="#stiker_222222_copy_5_0_Layer5_55_FILL"/>
</g>

<g transform="matrix( 0.899993896484375, 0, 0, 0.899993896484375, -1.65,14.65) ">
<use xlink:href="#stiker_222222_copy_5_0_Layer5_56_FILL"/>
</g>

<g transform="matrix( 0.899993896484375, 0, 0, 0.899993896484375, -1.65,14.65) ">
<use xlink:href="#stiker_222222_copy_5_0_Layer5_57_FILL"/>
</g>

<g transform="matrix( 0.899993896484375, 0, 0, 0.899993896484375, -1.65,14.65) ">
<use xlink:href="#stiker_222222_copy_5_0_Layer5_58_FILL"/>
</g>

<g transform="matrix( 0.899993896484375, 0, 0, 0.899993896484375, -1.65,14.65) ">
<use xlink:href="#stiker_222222_copy_5_0_Layer5_59_FILL"/>

<use xlink:href="#stiker_222222_copy_5_0_Layer5_59_1_STROKES" transform="matrix( 1.111114501953125, 0, 0, 1.111114501953125, 1.8,-16.25) "/>
</g>

<g transform="matrix( 0.899993896484375, 0, 0, 0.899993896484375, -1.65,14.65) ">
<use xlink:href="#stiker_222222_copy_5_0_Layer5_60_FILL"/>
</g>

<g transform="matrix( 0.899993896484375, 0, 0, 0.899993896484375, -1.65,14.65) ">
<use xlink:href="#stiker_222222_copy_5_0_Layer5_61_FILL"/>
</g>

<g transform="matrix( 0.899993896484375, 0, 0, 0.899993896484375, -1.65,14.65) ">
<use xlink:href="#stiker_222222_copy_5_0_Layer5_62_FILL"/>
</g>

<g transform="matrix( 0.899993896484375, 0, 0, 0.899993896484375, -1.65,14.65) ">
<use xlink:href="#stiker_222222_copy_5_0_Layer5_63_FILL"/>
</g>

<g transform="matrix( 0.899993896484375, 0, 0, 0.899993896484375, -1.65,14.65) ">
<use xlink:href="#stiker_222222_copy_5_0_Layer5_64_FILL"/>
</g>

<g transform="matrix( 0.899993896484375, 0, 0, 0.899993896484375, -1.65,14.65) ">
<use xlink:href="#stiker_222222_copy_5_0_Layer5_65_FILL"/>
</g>

<g transform="matrix( 0.899993896484375, 0, 0, 0.899993896484375, -1.65,14.65) ">
<use xlink:href="#stiker_222222_copy_5_0_Layer5_66_1_STROKES" transform="matrix( 1.111114501953125, 0, 0, 1.111114501953125, 1.8,-16.25) "/>
</g>

<g transform="matrix( 0.899993896484375, 0, 0, 0.899993896484375, -1.65,14.65) ">
<use xlink:href="#stiker_222222_copy_5_0_Layer5_67_1_STROKES" transform="matrix( 1.111114501953125, 0, 0, 1.111114501953125, 1.8,-16.25) "/>
</g>

<g transform="matrix( 0.899993896484375, 0, 0, 0.899993896484375, -1.65,14.65) ">
<use xlink:href="#stiker_222222_copy_5_0_Layer5_68_FILL"/>
</g>

<g transform="matrix( 0.899993896484375, 0, 0, 0.899993896484375, -1.65,14.65) ">
<use xlink:href="#stiker_222222_copy_5_0_Layer5_69_1_STROKES" transform="matrix( 1.111114501953125, 0, 0, 1.111114501953125, 1.8,-16.25) "/>
</g>

<g transform="matrix( 0.899993896484375, 0, 0, 0.899993896484375, -1.65,14.65) ">
<use xlink:href="#stiker_222222_copy_5_0_Layer5_70_FILL"/>
</g>

<g transform="matrix( 0.899993896484375, 0, 0, 0.899993896484375, -1.65,14.65) ">
<use xlink:href="#stiker_222222_copy_5_0_Layer5_71_FILL"/>
</g>

<g transform="matrix( 0.899993896484375, 0, 0, 0.899993896484375, -1.65,14.65) ">
<use xlink:href="#stiker_222222_copy_5_0_Layer5_72_FILL"/>
</g>

<g transform="matrix( 0.899993896484375, 0, 0, 0.899993896484375, -1.65,14.65) ">
<use xlink:href="#stiker_222222_copy_5_0_Layer5_73_1_STROKES" transform="matrix( 1.111114501953125, 0, 0, 1.111114501953125, 1.8,-16.25) "/>
</g>

<g transform="matrix( 0.899993896484375, 0, 0, 0.899993896484375, -1.65,14.65) ">
<use xlink:href="#stiker_222222_copy_5_0_Layer5_74_FILL"/>
</g>

<g transform="matrix( 0.899993896484375, 0, 0, 0.899993896484375, -1.65,14.65) ">
<use xlink:href="#stiker_222222_copy_5_0_Layer5_75_1_STROKES" transform="matrix( 1.111114501953125, 0, 0, 1.111114501953125, 1.8,-16.25) "/>
</g>

<g transform="matrix( 0.899993896484375, 0, 0, 0.899993896484375, -1.65,14.65) ">
<use xlink:href="#stiker_222222_copy_5_0_Layer5_76_FILL"/>
</g>

<g transform="matrix( 0.899993896484375, 0, 0, 0.899993896484375, -1.65,14.65) ">
<use xlink:href="#stiker_222222_copy_5_0_Layer5_77_1_STROKES" transform="matrix( 1.111114501953125, 0, 0, 1.111114501953125, 1.8,-16.25) "/>
</g>

<g transform="matrix( 0.899993896484375, 0, 0, 0.899993896484375, -1.65,14.65) ">
<use xlink:href="#stiker_222222_copy_5_0_Layer5_78_FILL"/>
</g>

<g transform="matrix( 0.899993896484375, 0, 0, 0.899993896484375, -1.65,14.65) ">
<use xlink:href="#stiker_222222_copy_5_0_Layer5_79_FILL"/>
</g>

<g transform="matrix( 0.899993896484375, 0, 0, 0.899993896484375, -1.65,14.65) ">
<use xlink:href="#stiker_222222_copy_5_0_Layer5_80_FILL"/>
</g>

<g transform="matrix( 0.899993896484375, 0, 0, 0.899993896484375, -1.65,14.65) ">
<use xlink:href="#stiker_222222_copy_5_0_Layer5_81_FILL"/>
</g>

<g transform="matrix( 0.899993896484375, 0, 0, 0.899993896484375, -1.65,14.65) ">
<use xlink:href="#stiker_222222_copy_5_0_Layer5_82_FILL"/>
</g>

<g transform="matrix( 0.899993896484375, 0, 0, 0.899993896484375, -1.65,14.65) ">
<use xlink:href="#stiker_222222_copy_5_0_Layer5_83_FILL"/>
</g>

<g transform="matrix( 0.899993896484375, 0, 0, 0.899993896484375, -1.65,14.65) ">
<use xlink:href="#stiker_222222_copy_5_0_Layer5_84_FILL"/>
</g>

<g transform="matrix( 0.899993896484375, 0, 0, 0.899993896484375, -1.65,14.65) ">
<use xlink:href="#stiker_222222_copy_5_0_Layer5_85_FILL"/>
</g>

<g transform="matrix( 0.899993896484375, 0, 0, 0.899993896484375, -1.65,14.65) ">
<use xlink:href="#stiker_222222_copy_5_0_Layer5_86_FILL"/>
</g>

<g transform="matrix( 0.899993896484375, 0, 0, 0.899993896484375, -1.65,14.65) ">
<use xlink:href="#stiker_222222_copy_5_0_Layer5_87_FILL"/>
</g>

<g transform="matrix( 0.899993896484375, 0, 0, 0.899993896484375, -1.65,14.65) ">
<use xlink:href="#stiker_222222_copy_5_0_Layer5_88_FILL"/>
</g>

<g transform="matrix( 0.899993896484375, 0, 0, 0.899993896484375, -1.65,14.65) ">
<use xlink:href="#stiker_222222_copy_5_0_Layer5_89_FILL"/>
</g>

<g transform="matrix( 0.899993896484375, 0, 0, 0.899993896484375, -1.65,14.65) ">
<use xlink:href="#stiker_222222_copy_5_0_Layer5_90_FILL"/>
</g>

<g transform="matrix( 0.899993896484375, 0, 0, 0.899993896484375, -1.65,14.65) ">
<use xlink:href="#stiker_222222_copy_5_0_Layer5_91_FILL"/>
</g>

<g transform="matrix( 0.899993896484375, 0, 0, 0.899993896484375, -1.65,14.65) ">
<use xlink:href="#stiker_222222_copy_5_0_Layer5_92_FILL"/>
</g>

<g transform="matrix( 0.899993896484375, 0, 0, 0.899993896484375, -1.65,14.65) ">
<use xlink:href="#stiker_222222_copy_5_0_Layer5_93_FILL"/>
</g>

<g transform="matrix( 0.899993896484375, 0, 0, 0.899993896484375, -1.65,14.65) ">
<use xlink:href="#stiker_222222_copy_5_0_Layer5_94_FILL"/>
</g>

<g transform="matrix( 0.899993896484375, 0, 0, 0.899993896484375, -1.65,14.65) ">
<use xlink:href="#stiker_222222_copy_5_0_Layer5_95_FILL"/>
</g>

<g transform="matrix( 0.899993896484375, 0, 0, 0.899993896484375, -1.65,14.65) ">
<use xlink:href="#stiker_222222_copy_5_0_Layer5_96_FILL"/>
</g>

<g transform="matrix( 0.899993896484375, 0, 0, 0.899993896484375, -1.65,14.65) ">
<use xlink:href="#stiker_222222_copy_5_0_Layer5_97_FILL"/>
</g>

<g transform="matrix( 0.899993896484375, 0, 0, 0.899993896484375, -1.65,14.65) ">
<use xlink:href="#stiker_222222_copy_5_0_Layer5_98_FILL"/>
</g>

<g transform="matrix( 0.899993896484375, 0, 0, 0.899993896484375, -1.65,14.65) ">
<use xlink:href="#stiker_222222_copy_5_0_Layer5_99_FILL"/>
</g>
</g>
</svg>
