<?xml version="1.0" encoding="UTF-8" standalone="no"?>
<!-- Created with Inkscape (http://www.inkscape.org/) -->

<svg
   xmlns:dc="http://purl.org/dc/elements/1.1/"
   xmlns:cc="http://creativecommons.org/ns#"
   xmlns:rdf="http://www.w3.org/1999/02/22-rdf-syntax-ns#"
   xmlns:svg="http://www.w3.org/2000/svg"
   xmlns="http://www.w3.org/2000/svg"
   xmlns:sodipodi="http://sodipodi.sourceforge.net/DTD/sodipodi-0.dtd"
   xmlns:inkscape="http://www.inkscape.org/namespaces/inkscape"
   width="200"
   height="200"
   viewBox="0 0 200 200"
   id="svg6143"
   version="1.1"
   inkscape:version="0.91 r13725"
   sodipodi:docname="6.svg">
  <defs
     id="defs6145">
    <clipPath
       id="clipPath3436"
       clipPathUnits="userSpaceOnUse">
      <path
         inkscape:connector-curvature="0"
         id="path3438"
         d="m 165.128,221.109 1.529,0 0,2.296 -1.529,0 0,-2.296 z" />
    </clipPath>
    <clipPath
       id="clipPath3392"
       clipPathUnits="userSpaceOnUse">
      <path
         inkscape:connector-curvature="0"
         id="path3394"
         d="m 0,425.197 850.394,0 L 850.394,0 0,0 0,425.197 Z" />
    </clipPath>
    <radialGradient
       id="radialGradient3380"
       spreadMethod="pad"
       gradientTransform="matrix(92.993691,0,0,-92.993691,142.78966,220.33636)"
       gradientUnits="userSpaceOnUse"
       r="1"
       cy="0"
       cx="0"
       fy="0"
       fx="0">
      <stop
         id="stop3382"
         offset="0"
         style="stop-opacity:1;stop-color:#7dafc3" />
      <stop
         id="stop3384"
         offset="1"
         style="stop-opacity:1;stop-color:#000000" />
    </radialGradient>
    <linearGradient
       id="linearGradient3836"
       spreadMethod="pad"
       gradientTransform="matrix(0,54.626778,54.626778,0,401.89151,190.34109)"
       gradientUnits="userSpaceOnUse"
       y2="0"
       x2="1"
       y1="0"
       x1="0">
      <stop
         id="stop3838"
         offset="0"
         style="stop-opacity:1;stop-color:#ffb21a" />
      <stop
         id="stop3840"
         offset="0.145"
         style="stop-opacity:1;stop-color:#ffb21a" />
      <stop
         id="stop3842"
         offset="1"
         style="stop-opacity:1;stop-color:#ff491a" />
    </linearGradient>
    <clipPath
       id="clipPath3736"
       clipPathUnits="userSpaceOnUse">
      <path
         inkscape:connector-curvature="0"
         id="path3738"
         d="m 0,425.197 850.394,0 L 850.394,0 0,0 0,425.197 Z" />
    </clipPath>
    <clipPath
       id="clipPath3736-8"
       clipPathUnits="userSpaceOnUse">
      <path
         inkscape:connector-curvature="0"
         id="path3738-3"
         d="m 0,425.197 850.394,0 L 850.394,0 0,0 0,425.197 Z" />
    </clipPath>
    <radialGradient
       id="radialGradient9763"
       spreadMethod="pad"
       gradientTransform="matrix(110.56008,0,0,-110.56008,129.95924,276.93332)"
       gradientUnits="userSpaceOnUse"
       r="1"
       cy="0"
       cx="0"
       fy="0"
       fx="0">
      <stop
         id="stop9765"
         offset="0"
         style="stop-opacity:1;stop-color:#e90000" />
      <stop
         id="stop9767"
         offset="0.375"
         style="stop-opacity:1;stop-color:#e90000" />
      <stop
         id="stop9769"
         offset="0.89"
         style="stop-opacity:1;stop-color:#000000" />
      <stop
         id="stop9771"
         offset="1"
         style="stop-opacity:1;stop-color:#000000" />
    </radialGradient>
    <linearGradient
       id="linearGradient8596"
       spreadMethod="pad"
       gradientTransform="matrix(0,60.303028,60.303028,0,402.79126,200.26089)"
       gradientUnits="userSpaceOnUse"
       y2="0"
       x2="1"
       y1="0"
       x1="0">
      <stop
         id="stop8598"
         offset="0"
         style="stop-opacity:1;stop-color:#c73535" />
      <stop
         id="stop8600"
         offset="1"
         style="stop-opacity:1;stop-color:#ff9999" />
    </linearGradient>
    <clipPath
       id="clipPath11357"
       clipPathUnits="userSpaceOnUse">
      <path
         inkscape:connector-curvature="0"
         id="path11359"
         d="m 0,425.197 850.394,0 L 850.394,0 0,0 0,425.197 Z" />
    </clipPath>
    <linearGradient
       id="linearGradient8788"
       spreadMethod="pad"
       gradientTransform="matrix(0,83.291306,83.291306,0,674.1618,244.18092)"
       gradientUnits="userSpaceOnUse"
       y2="0"
       x2="1"
       y1="0"
       x1="0">
      <stop
         id="stop8790"
         offset="0"
         style="stop-opacity:1;stop-color:#2e2e01" />
      <stop
         id="stop8792"
         offset="0.490076"
         style="stop-opacity:1;stop-color:#969632" />
      <stop
         id="stop8794"
         offset="1"
         style="stop-opacity:1;stop-color:#999933" />
    </linearGradient>
  </defs>
  <sodipodi:namedview
     id="base"
     pagecolor="#ffffff"
     bordercolor="#666666"
     borderopacity="1.0"
     inkscape:pageopacity="0.0"
     inkscape:pageshadow="2"
     inkscape:zoom="1.9328025"
     inkscape:cx="151.817"
     inkscape:cy="85.680773"
     inkscape:document-units="px"
     inkscape:current-layer="layer1"
     showgrid="false"
     units="px"
     inkscape:window-width="1920"
     inkscape:window-height="1017"
     inkscape:window-x="-8"
     inkscape:window-y="-8"
     inkscape:window-maximized="1" />
  <metadata
     id="metadata6148">
    <rdf:RDF>
      <cc:Work
         rdf:about="">
        <dc:format>image/svg+xml</dc:format>
        <dc:type
           rdf:resource="http://purl.org/dc/dcmitype/StillImage" />
        <dc:title></dc:title>
      </cc:Work>
    </rdf:RDF>
  </metadata>
  <g
     inkscape:label="Layer 1"
     inkscape:groupmode="layer"
     id="layer1"
     transform="translate(0,-852.36222)">
    <g
       id="g11187"
       transform="matrix(1.0652348,0,0,-1.0652345,95.183545,872.63035)">
      <path
         d="m 0,0 c 20.495,1.587 34.072,13.89 34.072,13.89 2.353,-13.181 10.375,-23.67 21.374,-32.173 9.921,-7.711 24.236,-11.622 37.049,-12.898 0.538,-0.057 3.571,-0.624 4.025,-0.17 -17.178,-16.243 -18.227,-47.707 -18.227,-47.707 -0.539,-27.156 14.768,-50.287 14.768,-50.287 -24.491,3.458 -47.111,-6.52 -47.111,-6.52 -24.52,-11.055 -29.566,-30.982 -29.566,-30.982 -4.422,8.73 -21.741,14.513 -31.181,15.76 -12.642,1.644 -24.661,-0.368 -35.49,-6.604 -0.481,-0.255 -2.126,-0.964 -2.296,-1.531 4.592,13.89 0.426,27.496 -8.957,38.863 -5.613,6.803 -14.485,11.537 -23.358,13.776 -0.34,0.085 -2.239,0.737 -2.579,0.482 11.849,8.731 12.784,27.581 12.075,40.281 -0.396,7.228 -2.324,14.144 -5.442,20.777 -1.191,2.552 -2.41,5.301 -4.224,7.541 0,0 4.479,0.793 6.01,1.02 22.62,3.232 33.789,16.923 33.789,16.923 10.516,9.213 9.978,24.973 9.978,24.973 C -26.731,-0.17 -8.731,-0.624 0,0"
         style="fill:#bb0a00;fill-opacity:1;fill-rule:evenodd;stroke:none"
         id="path11189"
         inkscape:connector-curvature="0" />
    </g>
    <g
       id="g11191"
       transform="matrix(1.0652348,0,0,-1.0652345,3.1472623,984.7768)">
      <path
         d="m 0,0 c 4.649,3.912 7.483,9.496 9.099,15.562 2.183,7.739 2.353,16.073 1.899,23.896 -0.396,7.229 -2.324,14.145 -5.442,20.778 -1.191,2.551 -2.41,5.301 -4.224,7.54 l 0.029,0 0.028,0 0.028,0.029 0.029,0 0.113,0 0.028,0.028 0.029,0 0.056,0 0.057,0 0.029,0.028 0.028,0 0.198,0.029 0.029,0 0.141,0.028 0.029,0 0.085,0.028 0.085,0 0.113,0.029 0.085,0.028 0.057,0 0.113,0.028 L 95.669,34.299 11.254,3.798 0,0 Z m 103.209,-60.208 -0.028,-0.085 -0.028,-0.057 -0.057,-0.141 0,-0.029 0,-0.028 -0.028,-0.113 -0.029,-0.057 -0.056,-0.142 -0.085,-0.227 0,-0.028 -0.029,-0.085 0,-0.028 -0.028,-0.085 0,-0.029 0,-0.028 -0.028,-0.057 0,-0.028 0,-0.028 -0.029,-0.029 0,-0.028 0,-0.029 c -0.056,0.142 -0.141,0.256 -0.198,0.397 l -0.057,0.085 c -0.057,0.085 -0.085,0.17 -0.142,0.256 -0.595,0.992 -1.389,1.955 -2.267,2.891 -0.794,0.765 -1.616,1.502 -2.466,2.126 l -0.085,0.057 c -3.175,2.437 -7.257,4.478 -11.424,6.094 -4.621,1.871 -9.553,3.175 -14.542,3.855 l -0.538,0.057 -0.17,0.028 -0.341,0.029 -0.283,0.028 -0.142,0.028 c -2.806,0.312 -5.584,0.425 -8.305,0.34 l -0.057,0 -0.227,0 c -6.236,-0.17 -12.444,-1.332 -18.227,-3.656 -2.324,-0.907 -4.62,-1.985 -6.831,-3.232 -0.142,-0.085 -0.255,-0.142 -0.369,-0.227 -0.481,-0.255 -2.126,-0.963 -2.296,-1.53 0.057,0.198 0.114,0.368 0.17,0.538 l 12.076,17.688 c 22.932,32.372 49.606,70.016 49.606,70.016 l 7.54,-94.507 z m 78.69,133.965 0,0 0.114,0 0.028,0 0.028,0 0.029,0 0.056,0 0.114,0 0.028,0 0.142,0 0.085,0.029 0.057,0 0.028,0 0.028,0 0.029,0.028 0.028,0 c 0.028,0 0.057,0 0.085,0.028 l 0.028,0 0.029,0.029 0.028,0 0.028,0.028 0.029,0 0,0.029 C 165.742,57.685 164.693,26.22 164.693,26.22 c 0,-0.396 -0.028,-0.793 -0.028,-1.19 l 0,-0.397 c 0,-0.283 0.028,-0.539 0.028,-0.794 l 0,-0.453 c 0,-0.255 0,-0.482 0.028,-0.737 l 0,-0.482 c 0,-0.227 0.029,-0.482 0.029,-0.709 l 0.028,-0.453 c 0,-0.255 0.028,-0.539 0.057,-0.794 l 0,-0.369 c 0.028,-0.34 0.056,-0.651 0.085,-0.963 l 0,-0.199 c 0.056,-0.397 0.085,-0.793 0.113,-1.19 l 0.028,-0.142 c 0.029,-0.34 0.057,-0.68 0.114,-0.992 l 0.028,-0.369 c 0.029,-0.255 0.057,-0.51 0.085,-0.765 l 0.057,-0.425 c 0.028,-0.255 0.085,-0.51 0.113,-0.737 l 0.057,-0.397 c 0.028,-0.255 0.057,-0.51 0.113,-0.737 l 0.057,-0.397 c 0.028,-0.255 0.085,-0.538 0.142,-0.822 l 0.028,-0.283 c 0.142,-0.737 0.284,-1.474 0.425,-2.211 l 0.029,-0.17 c 0.056,-0.312 0.141,-0.596 0.198,-0.908 l 0.057,-0.34 c 0.056,-0.255 0.113,-0.482 0.17,-0.737 l 0.085,-0.368 c 0.057,-0.227 0.113,-0.454 0.17,-0.681 l 0.085,-0.368 c 0.057,-0.255 0.113,-0.51 0.17,-0.737 l 0.085,-0.312 c 0.085,-0.312 0.142,-0.595 0.227,-0.907 l 0.028,-0.113 c 0.199,-0.709 0.397,-1.389 0.596,-2.07 l 0.056,-0.17 c 0.057,-0.283 0.142,-0.538 0.227,-0.822 l 0.085,-0.255 c 0.057,-0.255 0.142,-0.482 0.227,-0.709 l 0.085,-0.311 c 0.057,-0.227 0.142,-0.454 0.227,-0.681 l 0.085,-0.283 c 0.085,-0.255 0.17,-0.51 0.255,-0.765 l 0.056,-0.171 c 0.312,-0.963 0.652,-1.87 0.964,-2.778 l 0.085,-0.198 c 0.085,-0.255 0.17,-0.482 0.255,-0.737 l 0.057,-0.142 c 0.114,-0.255 0.199,-0.482 0.284,-0.708 l 0.085,-0.227 0.255,-0.624 0.085,-0.227 c 0.085,-0.226 0.17,-0.453 0.283,-0.68 l 0.057,-0.142 c 0.227,-0.566 0.453,-1.105 0.68,-1.615 l 0.085,-0.199 0.227,-0.567 0.113,-0.226 0.256,-0.567 0.085,-0.17 0.226,-0.539 0.114,-0.227 0.227,-0.482 0.085,-0.226 0.283,-0.596 0.057,-0.085 c 0.085,-0.227 0.198,-0.453 0.312,-0.68 l 0.056,-0.113 0.255,-0.511 0.114,-0.255 0.17,-0.312 0.142,-0.311 0.198,-0.341 0.085,-0.198 0.198,-0.369 0.114,-0.226 0.198,-0.369 0.085,-0.17 0.142,-0.255 c 0.113,-0.227 0.227,-0.425 0.34,-0.624 l 0.029,-0.085 0.17,-0.283 0.085,-0.199 0.17,-0.311 0.056,-0.085 0.199,-0.341 0.028,-0.085 0.199,-0.34 0.198,-0.34 0.028,-0.028 c 0.312,-0.567 0.596,-1.049 0.822,-1.418 L 95.669,34.299 c 0,0 37.644,17.093 68.457,31.068 l 17.575,8.39 M 86.4,105.279 c 20.495,1.587 34.072,13.889 34.072,13.889 l 0.029,-0.028 c 0.028,-0.283 0.085,-0.567 0.142,-0.85 L 95.669,34.299 c 0,0 -17.404,29.849 -33.08,56.75 l -10.488,19.049 c 4.592,-2.637 11.14,-3.912 17.263,-4.507 6.406,-0.652 12.756,-0.624 16.979,-0.312 l 0.057,0 z"
         style="fill:#7f0f00;fill-opacity:1;fill-rule:evenodd;stroke:none"
         id="path11193"
         inkscape:connector-curvature="0" />
    </g>
    <g
       id="g11195"
       transform="matrix(1.0652348,0,0,-1.0652345,123.7788,885.31249)">
      <path
         d="m 0,0 c 10.998,-24.832 40.167,-32.854 40.167,-32.854 -9.326,-34.752 -2.778,-64.063 -2.778,-64.063 -34.328,0.936 -50.032,-23.896 -50.032,-23.896 -15.703,13.833 -44.617,5.726 -44.617,5.726 0.425,20.75 -14.173,35.207 -14.173,35.207 7.313,20.636 -0.284,41.952 -0.284,41.952 25.115,12.983 23.074,32.145 23.074,32.145 5.188,-2.437 11.878,-2.891 17.178,-2.891 C -15.931,-8.674 0,0 0,0"
         style="fill:#900f00;fill-opacity:1;fill-rule:evenodd;stroke:none"
         id="path11197"
         inkscape:connector-curvature="0" />
    </g>
    <g
       id="g11199"
       transform="matrix(1.0652348,0,0,-1.0652345,48.229276,968.7732)">
      <path
         d="M 0,0 C 5.329,16.696 1.276,33.477 -0.255,38.721 L 53.348,19.276 0,0 Z m 58.224,-41.839 c -0.284,-0.454 -0.426,-0.681 -0.426,-0.681 -15.704,13.833 -44.645,5.046 -44.645,5.046 0.595,0.85 3.401,4.45 3.373,4.791 l 36.822,51.959 4.876,-61.115 z m 52.866,87.335 c -6.633,-27.128 -4.422,-55.616 -2.778,-64.063 L 53.348,19.276 111.09,45.496 Z M 70.951,78.435 69.987,75.175 53.348,19.276 23.329,70.781 c -0.709,1.219 -1.134,1.956 -1.134,1.956 5.188,-2.438 11.962,-3.061 17.263,-3.061 15.534,0 31.493,8.759 31.493,8.759"
         style="fill:#6d0a00;fill-opacity:1;fill-rule:evenodd;stroke:none"
         id="path11201"
         inkscape:connector-curvature="0" />
    </g>
    <g
       id="g11203"
       transform="matrix(1.0652348,0,0,-1.0652345,114.68991,916.77632)">
      <path
         d="m 0,0 c 4.082,-14.258 18.822,-17.206 18.822,-17.206 -6.945,-14.74 -1.417,-30.643 -1.417,-30.643 -15.648,1.616 -23.811,-10.006 -23.811,-10.006 -9.411,5.896 -20.24,2.608 -20.24,2.608 0.199,11.82 -9.042,15.59 -9.042,15.59 3.742,11.481 0.368,19.333 0.368,19.333 12.246,5.414 10.829,16.554 10.829,16.554 3.543,-1.219 6.746,-1.701 9.581,-1.701 C -5.301,-5.471 0,0 0,0"
         style="fill:#6f0a00;fill-opacity:1;fill-rule:evenodd;stroke:none"
         id="path11205"
         inkscape:connector-curvature="0" />
    </g>
    <g
       id="g11207"
       transform="matrix(1.0652348,0,0,-1.0652345,89.174556,920.97356)">
      <path
         d="m 0,0 c 3.345,-1.105 6.35,-1.531 9.042,-1.531 8.193,0 13.267,3.969 14.571,5.159 L 14.91,-25.597 0,0 Z m -11.565,-35.15 c 3.458,11.169 0.198,18.766 0.198,18.766 0.113,0.056 0.255,0.113 0.397,0.198 l 25.88,-9.411 -26.475,-9.553 z M 17.15,-53.688 c -9.298,5.584 -19.843,2.381 -19.843,2.381 0.028,0.312 0.028,0.595 0,0.879 l 17.603,24.831 2.24,-28.091 z m 25.143,40.535 c 0.312,-0.085 0.482,-0.113 0.482,-0.113 -6.52,-13.862 -2.041,-28.715 -1.474,-30.473 l -26.391,18.142 27.383,12.444 z"
         style="fill:#5c0a00;fill-opacity:1;fill-rule:evenodd;stroke:none"
         id="path11209"
         inkscape:connector-curvature="0" />
    </g>
    <g
       id="g11211"
       transform="matrix(1.0652348,0,0,-1.0652345,72.053464,965.7688)">
      <path
         d="m 0,0 c 0.009,0 0.018,0 0.026,0 0.431,-0.012 0.807,-0.296 0.935,-0.708 1.322,-4.261 3.868,-7.993 7.566,-11.092 5.202,-4.362 11.305,-6.296 18.182,-5.749 6.81,0.542 12.522,3.421 16.979,8.557 2.147,2.47 3.751,5.201 4.77,8.119 0.131,0.374 0.468,0.636 0.862,0.671 0.393,0.032 0.773,-0.165 0.966,-0.511 1.378,-2.458 3.222,-4.639 5.636,-6.665 5.201,-4.361 11.322,-6.293 18.21,-5.75 6.79,0.541 12.493,3.42 16.951,8.558 4.463,5.112 6.45,11.129 5.908,17.883 -0.551,6.801 -3.374,12.25 -8.63,16.658 -5.2,4.36 -11.297,6.292 -18.123,5.749 -6.893,-0.545 -12.634,-3.424 -17.063,-8.555 -2.174,-2.5 -3.768,-5.219 -4.741,-8.085 -0.127,-0.374 -0.461,-0.64 -0.855,-0.678 -0.405,-0.037 -0.772,0.157 -0.97,0.498 -1.425,2.468 -3.281,4.643 -5.671,6.649 -5.201,4.361 -11.275,6.29 -18.095,5.749 C 15.949,30.753 10.209,27.875 5.779,22.742 3.419,20.056 1.743,17.101 0.794,13.954 0.669,13.541 0.296,13.253 -0.135,13.238 c -0.424,-0.009 -0.824,0.246 -0.976,0.65 -1.346,3.555 -3.647,6.514 -7.032,9.047 -0.276,0.206 -0.427,0.541 -0.4,0.885 0.027,0.344 0.23,0.65 0.535,0.811 3.716,1.953 6.601,4.754 8.573,8.326 2.013,3.569 2.867,7.487 2.542,11.653 -0.404,4.981 -2.451,9.336 -6.084,12.942 -3.646,3.593 -8.107,5.64 -13.254,6.084 l -27.44,-1.36 10.497,-77.597 10.588,0.833 c 1.122,0.113 2.323,0.198 3.552,0.284 5.78,0.461 10.444,2.815 14.249,7.196 1.74,1.985 2.996,4.061 3.841,6.35 C -0.798,-0.262 -0.421,0 0,0 m 24.432,-19.653 c -6.417,0 -12.203,2.123 -17.198,6.31 -3.298,2.765 -5.753,6.005 -7.318,9.656 -0.84,-1.63 -1.906,-3.186 -3.185,-4.644 -4.107,-4.729 -9.362,-7.381 -15.615,-7.88 -1.219,-0.085 -2.398,-0.169 -3.523,-0.282 l -11.558,-0.909 c -0.546,-0.04 -1.005,0.34 -1.076,0.869 l -10.772,79.625 c -0.038,0.279 0.043,0.561 0.224,0.778 0.18,0.216 0.443,0.348 0.724,0.361 l 28.601,1.418 c 0.045,0.001 0.09,0.002 0.134,-0.002 5.657,-0.472 10.559,-2.714 14.568,-6.664 C 2.425,55.027 4.67,50.245 5.113,44.769 5.47,40.195 4.53,35.892 2.323,31.977 0.402,28.499 -2.309,25.685 -5.744,23.6 c 2.326,-1.956 4.157,-4.193 5.471,-6.683 1.069,2.537 2.588,4.932 4.535,7.147 4.782,5.541 10.982,8.652 18.422,9.24 7.36,0.583 13.932,-1.506 19.547,-6.213 1.977,-1.659 3.664,-3.492 5.032,-5.467 1.057,2.417 2.528,4.717 4.39,6.858 4.786,5.545 10.986,8.656 18.426,9.244 7.36,0.59 13.963,-1.506 19.575,-6.213 5.612,-4.705 8.754,-10.774 9.343,-18.038 0.587,-7.317 -1.564,-13.832 -6.396,-19.367 -4.814,-5.547 -10.974,-8.657 -18.31,-9.242 -7.426,-0.59 -14.048,1.506 -19.662,6.214 -2.025,1.699 -3.681,3.504 -5.022,5.481 -1.082,-2.447 -2.556,-4.752 -4.4,-6.873 -4.813,-5.547 -10.983,-8.658 -18.339,-9.244 -0.819,-0.065 -1.639,-0.097 -2.436,-0.097"
         style="fill:#000000;fill-opacity:1;fill-rule:nonzero;stroke:none"
         id="path11213"
         inkscape:connector-curvature="0" />
    </g>
    <g
       id="g11215"
       transform="matrix(1.0652348,0,0,-1.0652345,76.432005,918.16528)">
      <path
         d="m 0,0 c -0.425,5.244 -2.551,9.78 -6.378,13.578 -3.855,3.798 -8.504,5.924 -13.946,6.378 l -28.602,-1.417 10.772,-79.626 11.537,0.907 c 1.134,0.114 2.324,0.199 3.543,0.284 6.038,0.482 10.998,3.005 14.939,7.54 1.814,2.069 3.146,4.28 4.025,6.662 1.389,-4.479 4.025,-8.334 7.88,-11.566 5.443,-4.564 11.735,-6.548 18.907,-5.981 7.115,0.567 13.011,3.543 17.66,8.901 2.268,2.608 3.912,5.442 4.961,8.447 1.445,-2.579 3.401,-4.876 5.867,-6.945 5.443,-4.564 11.764,-6.548 18.936,-5.981 7.115,0.567 12.982,3.543 17.631,8.901 4.677,5.357 6.718,11.565 6.151,18.624 -0.566,7.001 -3.543,12.784 -8.985,17.348 -5.443,4.563 -11.736,6.548 -18.851,5.981 -7.171,-0.567 -13.096,-3.515 -17.745,-8.901 -2.267,-2.608 -3.911,-5.414 -4.932,-8.419 -1.474,2.551 -3.43,4.847 -5.896,6.916 -5.443,4.564 -11.707,6.549 -18.822,5.982 -7.172,-0.567 -13.096,-3.515 -17.745,-8.901 -2.466,-2.807 -4.195,-5.868 -5.187,-9.156 -1.418,3.742 -3.884,6.888 -7.37,9.496 3.883,2.041 6.888,4.932 8.985,8.731 C -0.539,-8.447 0.34,-4.365 0,0"
         style="fill:#000000;fill-opacity:1;fill-rule:evenodd;stroke:none"
         id="path11217"
         inkscape:connector-curvature="0" />
    </g>
    <g
       id="g11219"
       transform="matrix(1.0652348,0,0,-1.0652345,74.590112,911.40148)">
      <path
         d="m 0,0 c 3.232,-1.984 5.159,-5.754 6.236,-8.957 0.567,-1.701 0.851,-3.459 0.766,-5.16 -0.057,-1.048 -2.41,-8.107 -3.629,-8.447 -0.198,-0.056 -0.425,0.114 -0.397,0.312 0.057,0.34 0.227,0.624 0.426,0.935 0.822,1.304 2.664,5.755 2.778,7.626 0.113,1.7 -0.312,3.486 -0.879,5.13 -0.964,2.92 -2.778,6.293 -5.613,8.193 C -0.624,-0.142 -0.284,0.198 0,0"
         style="fill:#000000;fill-opacity:1;fill-rule:evenodd;stroke:none"
         id="path11221"
         inkscape:connector-curvature="0" />
    </g>
    <g
       id="g11223"
       transform="matrix(1.0652348,0,0,-1.0652345,75.85838,910.97879)">
      <path
         d="m 0,0 c 0.595,-0.425 1.049,-1.02 1.587,-1.531 0.879,-0.85 1.786,-1.672 2.693,-2.494 1.531,-1.389 3.005,-2.835 4.507,-4.224 1.843,-1.701 3.714,-3.373 5.5,-5.102 0.765,-0.737 1.53,-1.503 2.267,-2.296 0.425,-0.454 1.191,-1.191 1.219,-1.786 0.029,-0.312 -0.368,-0.624 -0.68,-0.312 -0.482,0.482 -0.822,1.134 -1.276,1.644 -0.85,0.992 -1.814,1.899 -2.749,2.835 -1.786,1.729 -3.629,3.43 -5.443,5.159 C 6.066,-6.605 4.535,-5.102 2.948,-3.6 2.154,-2.863 1.361,-2.126 0.652,-1.332 0.312,-0.964 -0.227,-0.482 -0.057,0 L 0,0 Z"
         style="fill:#000000;fill-opacity:1;fill-rule:evenodd;stroke:none"
         id="path11225"
         inkscape:connector-curvature="0" />
    </g>
    <g
       id="g11227"
       transform="matrix(1.0652348,0,0,-1.0652345,75.375181,910.6164)">
      <path
         d="m 0,0 c 1.928,-0.51 3.855,-1.616 5.698,-2.466 2.182,-0.992 4.365,-2.069 6.548,-3.118 4.365,-2.126 8.702,-4.281 13.039,-6.52 8.391,-4.309 11.424,-6.208 19.729,-10.715 0.68,-0.368 0.284,-1.304 -0.397,-0.935 -8.334,4.507 -11.338,6.406 -19.729,10.743 -4.167,2.154 -8.334,4.309 -12.529,6.406 -2.154,1.077 -4.337,2.155 -6.491,3.232 -1.956,0.992 -4.196,1.842 -5.981,3.118 C -0.283,-0.17 -0.17,0.057 0,0"
         style="fill:#000000;fill-opacity:1;fill-rule:evenodd;stroke:none"
         id="path11229"
         inkscape:connector-curvature="0" />
    </g>
    <g
       id="g11231"
       transform="matrix(1.0652348,0,0,-1.0652345,102.30964,924.17427)">
      <path
         d="m 0,0 c -0.624,0.057 -1.304,0.595 -1.928,0.765 -1.077,0.255 -2.211,0.17 -3.203,0 -1.729,-0.283 -4.138,-1.162 -4.45,-2.948 -0.057,-0.425 -0.822,-0.255 -0.737,0.17 0.368,2.07 2.863,3.033 4.875,3.43 C -4.28,1.644 -3.09,1.644 -1.871,1.332 -1.247,1.191 0,0.737 0.028,0.028 L 0,0 Z"
         style="fill:#000000;fill-opacity:1;fill-rule:evenodd;stroke:none"
         id="path11233"
         inkscape:connector-curvature="0" />
    </g>
    <g
       id="g11235"
       transform="matrix(1.0652348,0,0,-1.0652345,91.650588,926.65031)">
      <path
         d="M 0,0 C -1.332,0.142 -2.891,1.219 -4.167,1.729 -6.094,2.494 -7.909,2.466 -9.326,1.276 -9.638,0.992 -10.233,1.474 -9.921,1.757 -8.646,2.891 -7.058,3.232 -5.187,2.778 -4.224,2.58 -3.288,2.154 -2.409,1.729 -1.587,1.332 -0.51,0.907 0.142,0.283 0.255,0.142 0.198,-0.028 0,0"
         style="fill:#000000;fill-opacity:1;fill-rule:evenodd;stroke:none"
         id="path11237"
         inkscape:connector-curvature="0" />
    </g>
    <g
       id="g11239"
       transform="matrix(1.0652348,0,0,-1.0652345,70.876056,920.42997)">
      <path
         d="M 0,0 C 3.685,-0.794 7.37,-2.098 10.035,-4.904 10.318,-5.216 9.808,-5.528 9.524,-5.216 8.22,-3.827 6.746,-2.806 4.961,-2.013 3.345,-1.276 1.587,-0.879 -0.057,-0.227 -0.198,-0.17 -0.142,0.028 0,0"
         style="fill:#000000;fill-opacity:1;fill-rule:evenodd;stroke:none"
         id="path11241"
         inkscape:connector-curvature="0" />
    </g>
    <g
       id="g11243"
       transform="matrix(1.0652348,0,0,-1.0652345,71.812082,916.92727)">
      <path
         d="M 0,0 C 0.992,0.935 3.061,0.255 4.337,-0.198 5.159,-0.51 8.504,-1.729 8.419,-2.835 8.391,-2.976 8.221,-3.118 8.079,-3.061 7.767,-2.948 7.569,-2.75 7.313,-2.551 6.576,-1.984 5.754,-1.559 4.904,-1.162 4.11,-0.794 3.288,-0.482 2.438,-0.255 1.616,-0.057 0.879,-0.198 0.085,-0.113 0,-0.113 -0.057,-0.057 0,0"
         style="fill:#000000;fill-opacity:1;fill-rule:evenodd;stroke:none"
         id="path11245"
         inkscape:connector-curvature="0" />
    </g>
    <g
       id="g11247"
       transform="matrix(1.0652348,0,0,-1.0652345,84.464088,919.13156)">
      <path
         d="m 0,0 c -0.737,0.085 -1.502,0.057 -2.183,-0.142 -0.368,-0.113 -0.68,-0.312 -0.935,-0.567 -0.199,-0.17 -0.227,-0.396 -0.539,-0.396 -0.085,0 -0.17,0.056 -0.198,0.141 -0.34,0.596 0.85,1.106 1.304,1.247 0.822,0.256 1.729,0.171 2.579,-0.141 C 0.085,0.113 0.085,0 0,0"
         style="fill:#000000;fill-opacity:1;fill-rule:evenodd;stroke:none"
         id="path11249"
         inkscape:connector-curvature="0" />
    </g>
    <g
       id="g11251"
       transform="matrix(1.0652348,0,0,-1.0652345,86.60798,916.62538)">
      <path
         d="m 0,0 c -0.227,-0.113 -0.567,-0.142 -0.822,-0.198 -0.454,-0.142 -0.907,-0.341 -1.304,-0.567 -0.368,-0.227 -0.794,-0.539 -0.765,-1.021 0,-0.17 -0.142,-0.34 -0.341,-0.283 -0.113,0.056 -0.255,0.141 -0.255,0.283 -0.085,0.737 0.511,1.219 1.134,1.531 0.482,0.283 1.588,0.794 2.24,0.567 C 0.028,0.283 0.142,0.085 0,0"
         style="fill:#000000;fill-opacity:1;fill-rule:evenodd;stroke:none"
         id="path11253"
         inkscape:connector-curvature="0" />
    </g>
    <g
       id="g11255"
       transform="matrix(1.0652348,0,0,-1.0652345,85.702104,913.45482)">
      <path
         d="m 0,0 c 0.142,-0.567 0.17,-0.992 0.595,-1.502 0.312,-0.397 0.964,-0.681 1.077,-1.191 0,-0.085 -0.028,-0.142 -0.113,-0.17 -0.68,-0.198 -1.361,0.737 -1.644,1.191 -0.312,0.538 -0.624,1.36 -0.085,1.729 C -0.113,0.113 0,0.057 0,0"
         style="fill:#000000;fill-opacity:1;fill-rule:evenodd;stroke:none"
         id="path11257"
         inkscape:connector-curvature="0" />
    </g>
    <g
       id="g11259"
       transform="matrix(1.0652348,0,0,-1.0652345,112.78761,974.9633)">
      <path
         d="m 0,0 c 3.6,-2.183 7.568,-3.94 11.565,-5.074 2.098,-0.595 4.252,-0.964 6.378,-0.85 1.673,0.085 5.896,1.814 6.86,3.259 0.057,0.114 -0.057,0.284 -0.198,0.227 -1.559,-0.822 -5.131,-2.749 -6.974,-2.834 -2.069,-0.114 -4.195,0.34 -6.207,0.907 C 7.512,-3.26 3.855,-1.389 0.198,0.397 -0.028,0.51 -0.227,0.142 0,0"
         style="fill:#000000;fill-opacity:1;fill-rule:evenodd;stroke:none"
         id="path11261"
         inkscape:connector-curvature="0" />
    </g>
    <g
       id="g11263"
       transform="matrix(1.0652348,0,0,-1.0652345,130.54262,969.9206)">
      <path
         d="m 0,0 c -0.624,-0.822 -0.822,-1.956 -1.106,-2.948 -0.34,-1.106 -0.623,-2.239 -1.02,-3.345 -0.397,-1.19 -0.935,-2.324 -1.474,-3.458 -0.198,-0.369 -0.255,-1.021 -0.425,-1.389 l 0.142,-0.709 c 0.34,0.624 0.68,1.304 0.992,1.956 0.396,0.794 0.737,1.587 1.048,2.41 0.454,1.19 0.794,2.437 1.078,3.713 0.311,1.19 0.822,2.466 0.878,3.713 C 0.113,0 0.028,0.028 0,0"
         style="fill:#000000;fill-opacity:1;fill-rule:evenodd;stroke:none"
         id="path11265"
         inkscape:connector-curvature="0" />
    </g>
    <g
       id="g11267"
       transform="matrix(1.0652348,0,0,-1.0652345,126.88897,980.1569)">
      <path
         d="m 0,0 c 1.134,0.17 2.239,0.794 3.288,1.247 l 3.317,1.616 c 1.105,0.51 2.239,0.992 3.43,1.389 1.332,0.425 0.708,0.113 2.069,0.482 0.17,0.057 0.113,0.312 -0.057,0.34 C 10.857,5.159 11.679,5.216 10.602,4.932 9.326,4.564 8.079,4.054 6.888,3.515 5.669,2.948 4.507,2.353 3.345,1.786 2.211,1.219 0.964,0.822 -0.085,0.17 -0.142,0.113 -0.085,0 0,0"
         style="fill:#000000;fill-opacity:1;fill-rule:evenodd;stroke:none"
         id="path11269"
         inkscape:connector-curvature="0" />
    </g>
    <g
       id="g11271"
       transform="matrix(1.0652348,0,0,-1.0652345,126.49633,980.2474)">
      <path
         d="m 0,0 c -1.304,-1.02 -2.495,-2.069 -3.969,-2.863 -1.7,-0.907 -3.543,-1.502 -5.442,-1.899 -1.758,-0.397 -3.6,-0.567 -5.414,-0.539 -1.814,0 -3.543,0.369 -5.329,0.822 -0.284,0.057 -0.369,-0.368 -0.114,-0.482 1.644,-0.708 3.515,-0.85 5.216,-0.907 2.041,-0.056 4.054,0.17 5.981,0.596 1.956,0.425 3.799,1.105 5.528,2.012 1.389,0.737 2.919,1.729 3.685,3.147 C 0.17,-0.028 0.057,0.057 0,0"
         style="fill:#000000;fill-opacity:1;fill-rule:evenodd;stroke:none"
         id="path11273"
         inkscape:connector-curvature="0" />
    </g>
    <g
       id="g11275"
       transform="matrix(1.0652348,0,0,-1.0652345,123.35602,979.553)">
      <path
         d="M 0,0 C 0.057,-0.283 0.198,-0.51 0.198,-0.822 0.17,-1.191 0.057,-1.587 -0.085,-1.956 -0.34,-2.721 -0.822,-3.288 -1.417,-3.798 c -0.057,-0.057 -0.029,-0.171 0.056,-0.171 0.851,0.029 1.333,1.219 1.588,1.9 0.17,0.397 0.567,1.927 -0.142,2.126 C 0.057,0.085 0,0.057 0,0"
         style="fill:#000000;fill-opacity:1;fill-rule:evenodd;stroke:none"
         id="path11277"
         inkscape:connector-curvature="0" />
    </g>
    <g
       id="g11279"
       transform="matrix(1.0652348,0,0,-1.0652345,123.62775,979.5227)">
      <path
         d="M 0,0 C 0.907,0.057 2.013,0.255 2.835,0.624 3.77,1.077 5.074,2.183 5.102,3.345 5.102,3.43 4.989,3.458 4.932,3.402 4.479,2.863 4.224,2.268 3.685,1.757 3.26,1.361 2.721,1.02 2.154,0.822 1.502,0.624 0.34,0.737 -0.142,0.198 -0.227,0.113 -0.113,-0.028 0,0"
         style="fill:#000000;fill-opacity:1;fill-rule:evenodd;stroke:none"
         id="path11281"
         inkscape:connector-curvature="0" />
    </g>
    <g
       id="g11283"
       transform="matrix(1.0652348,0,0,-1.0652345,128.70062,976.2919)">
      <path
         d="M 0,0 C -0.198,-0.595 0.255,-1.304 0.68,-1.701 1.077,-2.098 2.126,-2.381 2.353,-1.729 2.381,-1.672 2.324,-1.587 2.268,-1.587 2.069,-1.559 1.928,-1.616 1.729,-1.644 1.446,-1.701 1.162,-1.531 0.907,-1.361 0.454,-1.02 0.312,-0.51 0.113,-0.028 0.085,0.028 0.028,0.028 0,0"
         style="fill:#000000;fill-opacity:1;fill-rule:evenodd;stroke:none"
         id="path11285"
         inkscape:connector-curvature="0" />
    </g>
    <g
       id="g11287"
       transform="matrix(1.0652348,0,0,-1.0652345,131.29745,978.0432)">
      <path
         d="m 0,0 c -0.397,-0.312 -0.737,-0.907 -0.935,-1.417 -0.142,-0.34 -0.227,-1.163 0.311,-1.276 0.057,0 0.085,0.028 0.114,0.085 0.028,0.142 0.028,0.199 -0.057,0.369 -0.17,0.311 -0.085,0.623 0.028,0.935 0.171,0.425 0.567,0.822 0.567,1.304 L 0,0 Z"
         style="fill:#000000;fill-opacity:1;fill-rule:evenodd;stroke:none"
         id="path11289"
         inkscape:connector-curvature="0" />
    </g>
    <g
       id="g11291"
       transform="matrix(1.0652348,0,0,-1.0652345,126.01324,983.9012)">
      <path
         d="M 0,0 C 0.85,0.51 1.247,1.162 2.126,1.644 2.948,2.098 3.855,2.324 4.762,2.58 4.904,2.636 4.819,2.835 4.677,2.806 2.75,2.693 1.077,1.531 -0.142,0.142 -0.227,0.057 -0.085,-0.057 0,0"
         style="fill:#000000;fill-opacity:1;fill-rule:evenodd;stroke:none"
         id="path11293"
         inkscape:connector-curvature="0" />
    </g>
    <g
       id="g11295"
       transform="matrix(1.0652348,0,0,-1.0652345,122.1784,983.6898)">
      <path
         d="m 0,0 c 0.17,0 0.283,0.057 0.425,0.085 1.332,0.482 1.814,-0.51 2.58,-0.822 0.17,-0.057 0.283,-0.17 0.453,-0.142 0.029,0.029 0.057,0.057 0.057,0.085 C 3.543,0.255 0.198,1.077 -0.057,0.113 -0.057,0.057 -0.057,0 0,0"
         style="fill:#000000;fill-opacity:1;fill-rule:evenodd;stroke:none"
         id="path11297"
         inkscape:connector-curvature="0" />
    </g>
    <g
       id="g11299"
       transform="matrix(1.0652348,0,0,-1.0652345,120.81958,978.7075)">
      <path
         d="m 0,0 c 0.453,-1.446 0.255,-2.608 -0.51,-3.798 -0.284,-0.482 -0.681,-0.908 -1.106,-1.276 -0.368,-0.34 -0.879,-0.539 -1.134,-0.964 -0.028,-0.085 0.029,-0.17 0.114,-0.17 1.105,0 2.352,1.673 2.778,2.551 0.567,1.106 0.822,2.552 0,3.714 C 0.057,0.17 -0.028,0.085 0,0"
         style="fill:#000000;fill-opacity:1;fill-rule:evenodd;stroke:none"
         id="path11301"
         inkscape:connector-curvature="0" />
    </g>
    <g
       id="g11303"
       transform="matrix(1.0652348,0,0,-1.0652345,120.87999,978.315)">
      <path
         d="M 0,0 C 0.624,-0.227 1.276,-0.085 1.899,-0.028 2.665,0.057 3.43,0.198 4.167,0.425 5.499,0.822 6.945,1.559 7.597,2.835 7.625,2.863 7.569,2.891 7.54,2.863 6.548,1.814 5.386,1.219 3.969,0.85 3.26,0.652 2.551,0.539 1.814,0.425 1.219,0.34 0.567,0.397 0,0.142 -0.057,0.113 -0.057,0.028 0,0"
         style="fill:#000000;fill-opacity:1;fill-rule:evenodd;stroke:none"
         id="path11305"
         inkscape:connector-curvature="0" />
    </g>
    <g
       id="g11307"
       transform="matrix(1.0652348,0,0,-1.0652345,129.57635,974.3292)">
      <path
         d="M 0,0 0,0.028 0,0 Z"
         style="fill:#000000;fill-opacity:1;fill-rule:evenodd;stroke:none"
         id="path11309"
         inkscape:connector-curvature="0" />
    </g>
    <g
       id="g11311"
       transform="matrix(1.0652348,0,0,-1.0652345,128.97236,975.1747)">
      <path
         d="m 0,0 c -0.113,-1.814 3.43,-2.239 4.394,-1.474 0.085,0.057 0.028,0.17 -0.085,0.17 C 3.6,-1.361 2.891,-1.446 2.154,-1.304 1.219,-1.134 0.737,-0.652 0.113,0.028 0.085,0.057 0,0.057 0,0"
         style="fill:#000000;fill-opacity:1;fill-rule:evenodd;stroke:none"
         id="path11313"
         inkscape:connector-curvature="0" />
    </g>
    <g
       id="g11315"
       transform="matrix(1.0652348,0,0,-1.0652345,117.34703,977.4393)">
      <path
         d="m 0,0 c -0.17,-0.595 -0.057,-1.304 -0.113,-1.899 -0.057,-0.879 -0.199,-1.758 -0.426,-2.58 -0.481,-1.757 -1.36,-2.948 -3.203,-3.231 -0.056,-0.029 -0.085,-0.142 0,-0.17 1.729,-0.567 2.863,1.134 3.402,2.466 C 0,-4.507 0.17,-3.515 0.284,-2.523 0.34,-1.786 0.51,-0.737 0.198,-0.028 0.17,0.057 0.028,0.085 0,0"
         style="fill:#000000;fill-opacity:1;fill-rule:evenodd;stroke:none"
         id="path11317"
         inkscape:connector-curvature="0" />
    </g>
    <g
       id="g11319"
       transform="matrix(1.0652348,0,0,-1.0652345,129.84809,972.8193)">
      <path
         d="M 0,0 C 0.198,-1.105 1.587,-1.899 2.523,-2.296 3.543,-2.778 4.932,-3.175 5.981,-2.778 6.066,-2.75 6.038,-2.636 5.953,-2.636 4.904,-2.523 3.912,-2.381 2.891,-1.984 1.729,-1.502 0.992,-0.794 0.113,0.057 0.057,0.113 -0.028,0.057 0,0"
         style="fill:#000000;fill-opacity:1;fill-rule:evenodd;stroke:none"
         id="path11321"
         inkscape:connector-curvature="0" />
    </g>
    <g
       id="g11323"
       transform="matrix(1.0652348,0,0,-1.0652345,79.119482,989.1853)">
      <path
         d="m 0,0 c 0.369,-0.68 0.822,-1.332 1.332,-1.928 0.312,-0.368 0.652,-0.68 0.992,-0.992 -1.955,0.029 -3.855,0.34 -5.811,0.879 0.596,0.085 1.163,0.17 1.729,0.369 C -1.106,-1.474 -0.113,-0.822 0,0 m -1.871,5.556 c 0.199,-1.389 0.567,-2.75 1.134,-4.054 0.113,-0.283 0.255,-0.567 0.397,-0.85 L -0.369,0.624 c -0.198,-0.539 -0.226,-1.021 -0.737,-1.389 -0.481,-0.369 -1.133,-0.511 -1.7,-0.596 -0.539,-0.113 -1.106,-0.141 -1.644,-0.198 -0.057,-0.028 -0.17,-0.057 -0.312,-0.085 -2.211,0.68 -4.394,1.502 -6.548,2.409 0.397,0.029 0.765,0.114 1.105,0.199 1.276,0.34 2.495,0.879 3.714,1.332 1.162,0.454 2.296,0.964 3.259,1.729 0.454,0.34 1.021,0.907 1.361,1.531 m 0.142,9.042 c -0.057,-0.51 -0.114,-1.02 -0.17,-1.53 -0.114,-1.333 -0.227,-2.637 -0.227,-3.969 0,-0.708 0.028,-1.417 0.085,-2.126 0,-0.028 0,-0.028 -0.028,-0.056 C -2.239,6.435 -2.268,5.981 -2.551,5.528 -2.863,5.046 -3.345,4.649 -3.798,4.309 -4.706,3.685 -5.754,3.231 -6.775,2.835 -8.617,2.126 -10.573,1.134 -12.614,1.332 c -1.701,0.737 -3.373,1.588 -4.904,2.693 -0.199,0.17 -0.425,0.34 -0.624,0.51 1.503,-0.368 3.203,0.171 4.592,0.596 2.098,0.652 4.082,1.587 5.868,2.834 0.822,0.596 1.559,1.276 2.239,2.041 0.681,0.737 1.219,1.616 1.871,2.381 0.596,0.681 1.219,1.333 1.729,2.098 l 0.114,0.113 z M -29.877,-2.438 c -0.482,0.17 -0.992,0.397 -1.474,0.595 0.198,0.029 0.397,0.029 0.538,0.057 0.681,0.029 1.333,0.17 1.985,0.369 1.275,0.425 2.466,1.105 3.543,1.927 1.984,1.503 3.827,3.685 4.394,6.236 0.198,-0.283 0.425,-0.595 0.652,-0.878 -0.567,-2.183 -2.013,-4.025 -3.6,-5.5 -1.531,-1.417 -3.657,-2.919 -5.868,-2.777 -0.057,0 -0.113,0 -0.17,-0.029 m 15.194,-3.118 c -1.956,0.057 -3.912,0.255 -5.868,0.539 -2.296,0.34 -4.564,0.963 -6.803,1.672 -0.454,0.142 -0.907,0.312 -1.361,0.482 1.956,0.227 3.713,1.531 5.102,2.806 1.531,1.389 3.317,3.459 3.572,5.698 0.539,-0.652 1.191,-1.219 1.814,-1.729 1.134,-0.936 2.41,-1.673 3.742,-2.325 0.085,-0.198 0.17,-0.396 0.227,-0.623 0.227,-0.794 0.255,-1.616 0.255,-2.41 0.028,-0.85 -0.028,-1.729 -0.17,-2.579 -0.114,-0.539 -0.227,-1.106 -0.51,-1.531 m 3.968,0 c -1.105,-0.057 -2.211,-0.057 -3.316,-0.028 0.226,0.453 0.283,1.077 0.368,1.502 0.142,0.992 0.17,1.984 0.142,3.005 -0.029,0.765 -0.114,1.616 -0.397,2.353 0.482,-0.199 0.935,-0.426 1.389,-0.624 0.255,-0.397 0.538,-0.794 0.765,-1.219 0.312,-0.539 0.51,-1.134 0.681,-1.729 0.283,-1.077 0.368,-2.183 0.368,-3.26 m 5.046,0.454 c -1.446,-0.199 -2.892,-0.341 -4.337,-0.426 -0.029,1.191 -0.17,2.382 -0.539,3.544 -0.227,0.68 -0.567,1.502 -1.02,2.211 2.126,-0.936 4.308,-1.729 6.491,-2.495 -0.085,-0.397 -0.057,-0.85 -0.113,-1.247 -0.057,-0.482 -0.114,-1.247 -0.482,-1.587 m 6.746,1.417 c -1.672,-0.482 -3.401,-0.879 -5.131,-1.191 -0.311,-0.028 -0.623,-0.085 -0.907,-0.141 0.142,0.368 0.199,0.765 0.255,1.105 0.057,0.482 0.114,0.992 0.086,1.503 l 0.226,-0.085 c 1.304,-0.426 2.58,-0.823 3.94,-1.021 0.511,-0.085 1.021,-0.142 1.531,-0.17 m 4.649,1.672 C 4.989,-2.324 4.224,-2.636 3.43,-2.92 l -0.255,0 C 2.806,-2.636 2.466,-2.324 2.126,-1.984 1.701,-1.559 1.304,-1.077 0.935,-0.567 L 1.02,-0.624 c 0.794,-0.538 1.758,-0.822 2.637,-1.048 0.68,-0.171 1.389,-0.284 2.069,-0.341 m 7.115,4.196 C 12.132,1.729 11.424,1.247 10.715,0.765 9.524,-0.057 8.277,-0.765 6.973,-1.417 6.803,-1.446 6.633,-1.446 6.463,-1.474 5.613,-1.502 4.762,-1.389 3.912,-1.191 3.061,-0.992 2.239,-0.709 1.474,-0.283 1.162,-0.113 0.85,0.057 0.595,0.312 0.397,0.454 0.283,0.68 0.113,0.85 -0.482,2.098 -0.907,3.458 -1.191,4.762 -1.219,4.876 -1.247,5.017 -1.247,5.131 -0.539,4.365 0.794,3.855 1.531,3.572 3.203,2.92 4.932,2.58 6.661,2.296 8.702,1.984 10.828,1.843 12.841,2.183 M 15.817,4.025 14.882,3.458 C 14.258,3.175 13.635,2.976 12.983,2.835 11.027,2.438 8.929,2.608 6.945,2.863 5.329,3.061 3.742,3.373 2.154,3.855 1.02,4.224 -0.567,4.734 -1.361,5.811 c -0.255,1.672 -0.226,3.345 -0.17,5.017 0.029,1.163 0.17,2.353 0.284,3.515 0.056,-0.198 0.141,-0.425 0.227,-0.595 0.425,-0.992 0.963,-1.928 1.587,-2.806 C 1.928,9.014 3.798,7.682 5.839,6.633 8.107,5.443 10.545,4.649 13.011,4.337 13.805,4.224 14.627,4.167 15.42,4.054 L 15.817,4.025 Z M 13.068,1.446 c 0.226,0.113 0.425,0.255 0.652,0.397 0.878,0.538 1.757,1.105 2.636,1.644 -0.51,-0.822 -0.851,-1.786 -1.162,-2.722 -0.397,-1.19 -0.652,-2.437 -0.794,-3.713 -0.113,-1.276 -0.142,-2.608 0.057,-3.912 0.113,-0.737 0.311,-1.531 0.765,-2.154 -0.822,0.085 -1.672,0.312 -2.438,0.567 l -0.283,0.085 -0.029,0 c -0.368,0.142 -0.737,0.283 -1.105,0.425 l -0.028,0.028 c -0.596,0.681 -0.681,1.673 -0.681,2.523 0,1.077 0.227,2.154 0.539,3.175 0.34,1.02 0.765,2.013 1.332,2.92 0.17,0.283 0.34,0.51 0.539,0.737 M 8.277,-1.587 c 1.304,0.708 2.551,1.559 3.827,2.381 -0.567,-0.879 -0.992,-1.871 -1.332,-2.863 -0.511,-1.616 -0.964,-3.855 -0.17,-5.528 -0.907,0.397 -1.815,0.879 -2.693,1.389 -0.142,0.199 -0.284,0.369 -0.341,0.624 -0.113,0.538 -0.028,1.134 0.086,1.644 0.113,0.538 0.255,1.049 0.425,1.559 l 0.17,0.595 0.028,0.199 z M 3.912,-3.543 c 0.964,0.34 1.899,0.737 2.806,1.162 0.369,0.17 0.737,0.34 1.106,0.538 C 7.767,-2.013 7.71,-2.183 7.654,-2.353 7.427,-2.948 7.228,-3.6 7.115,-4.252 7.03,-4.734 7.002,-5.216 7.087,-5.698 l -0.341,0.227 c -0.963,0.595 -1.927,1.219 -2.834,1.928 m -9.751,-2.325 c 1.729,0.227 3.401,0.539 5.074,0.936 1.389,0.312 2.749,0.708 4.082,1.162 1.247,-0.964 2.522,-1.843 3.855,-2.636 -0.907,0.056 -1.871,0.056 -2.778,0.113 -1.276,0.085 -2.551,0.113 -3.799,-0.113 -1.162,-0.199 -2.296,-0.425 -3.515,-0.34 -0.595,0.028 -1.19,0.17 -1.786,0.368 -0.396,0.142 -0.765,0.312 -1.133,0.51 m -4.281,-0.397 c 1.248,0.057 2.495,0.171 3.742,0.312 1.758,-1.474 4.337,-1.389 6.35,-1.02 1.417,0.227 2.778,0.312 4.223,0.227 1.191,-0.085 2.495,-0.284 3.629,-0.057 l 0.396,-0.227 0.029,0 C 6.945,-7.087 5.613,-7.597 4.535,-7.909 2.466,-8.504 0.227,-8.901 -1.956,-9.043 c -1.502,-0.113 -3.061,-0.028 -4.564,0.341 -0.765,0.198 -1.502,0.482 -2.182,0.935 -0.624,0.369 -1.021,0.936 -1.418,1.502 m -3.883,-0.028 c 1.162,-0.028 2.296,-0.028 3.458,0 l 0.057,0 c 0.283,-1.332 1.757,-2.211 2.92,-2.664 1.474,-0.567 3.118,-0.681 4.648,-0.709 2.155,0 4.309,0.425 6.378,0.85 1.106,0.227 2.155,0.624 3.232,0.907 0.878,0.227 1.984,0.454 2.919,0.142 0.341,-0.17 0.681,-0.312 1.049,-0.482 -3.685,-0.17 -6.973,-2.551 -10.516,-3.231 -2.41,-0.482 -4.706,0.141 -7.002,1.134 -1.304,0.595 -2.608,1.275 -3.855,1.984 -1.134,0.652 -2.183,1.389 -3.288,2.041 l 0,0.028 z M -41.244,6.038 c 1.446,-4.422 6.123,-6.973 10.035,-8.646 4.507,-1.927 9.24,-3.09 14.003,-3.515 0.793,-0.085 1.587,-0.113 2.352,-0.142 -1.19,-1.87 -0.935,-4.592 -0.85,-6.774 0.454,-11.367 -3.203,-8.731 -2.466,-15.846 0.028,-0.397 0.113,-0.822 0.198,-1.219 0.085,-0.34 0.596,-0.198 0.511,0.113 -1.531,6.52 2.607,5.556 2.182,16.045 -0.056,1.36 -0.141,2.692 -0.113,4.025 0.057,1.247 0.198,2.608 0.879,3.628 l 0.113,0 c 0.68,-0.794 1.757,-1.361 2.608,-1.899 1.19,-0.765 2.438,-1.474 3.713,-2.098 2.183,-1.077 4.479,-1.984 6.888,-1.871 4.423,0.17 7.937,3.374 12.388,3.43 0.227,0.029 0.425,0 0.652,0 0.623,-0.255 1.275,-0.453 1.927,-0.623 0.681,-0.142 1.446,-0.284 2.155,-0.255 0.085,-0.029 0.141,-0.029 0.198,0 1.644,0.113 3.147,0.198 4.762,1.275 4.621,3.09 7.796,10.885 8.334,13.436 -0.028,0.142 -0.227,0.199 -0.34,0.057 -1.616,-3.572 -4.564,-14.343 -12.586,-14.173 -0.085,0.028 -0.198,0.028 -0.283,0.057 -0.709,0.566 -0.907,1.672 -1.021,2.522 -0.17,1.163 -0.113,2.325 -0.028,3.487 0.17,2.353 0.765,4.819 2.013,6.803 3.429,2.069 0.822,-0.283 3.855,2.353 0.34,0.312 -0.17,0.822 -0.511,0.538 C 17.376,4.224 20.154,6.633 16.838,4.649 16.356,4.535 15.704,4.706 15.279,4.734 14.57,4.819 13.89,4.904 13.181,4.989 10.828,5.216 8.476,6.009 6.321,7.058 4.422,7.994 2.665,9.156 1.276,10.828 c -0.624,0.766 -1.134,1.616 -1.616,2.523 -0.34,0.68 -0.652,1.361 -0.822,2.069 0.028,0.454 0.028,0.908 0.028,1.389 0,0.142 -0.255,0.199 -0.283,0.029 -0.029,-0.17 -0.057,-0.34 -0.114,-0.51 -0.113,0.056 -0.283,0 -0.255,-0.171 0.085,-0.708 -0.595,-1.445 -0.992,-1.927 -0.51,-0.595 -1.105,-1.134 -1.587,-1.758 -1.191,-1.502 -2.41,-2.948 -3.997,-4.025 -1.616,-1.105 -3.402,-1.927 -5.216,-2.551 -1.587,-0.539 -3.487,-1.219 -5.216,-0.822 -0.397,0.369 -0.765,0.737 -1.105,1.134 -0.709,0.822 -1.219,1.757 -1.758,2.693 -0.056,0.085 -0.17,0.028 -0.141,-0.057 0.113,-0.624 0.396,-1.247 0.737,-1.814 -0.908,-2.353 -2.467,-4.394 -4.394,-5.925 -1.049,-0.85 -2.239,-1.53 -3.543,-1.955 -0.596,-0.17 -1.219,-0.312 -1.843,-0.369 -0.51,-0.028 -1.219,0.17 -1.701,-0.057 l -0.028,0 c -0.567,0.256 -1.106,0.539 -1.644,0.822 -2.721,1.474 -5.499,3.572 -6.718,6.577 -0.085,0.198 -0.397,0.142 -0.312,-0.085"
         style="fill:#000000;fill-opacity:1;fill-rule:evenodd;stroke:none"
         id="path11325"
         inkscape:connector-curvature="0" />
    </g>
    <g
       id="g11327"
       transform="matrix(1.0652348,0,0,-1.0652345,47.580011,919.79413)">
      <path
         d="m 0,0 0,-8.824 c 1.535,0.184 2.571,0.986 3.231,2.482 0.384,0.77 0.528,1.492 0.458,2.253 C 3.596,-2.893 3.127,-1.938 2.213,-1.072 1.574,-0.5 0.842,-0.143 0,0 m -0.726,-10.877 c -0.103,0 -0.209,0.002 -0.314,0.005 -0.542,0.019 -0.972,0.463 -0.972,1.006 l 0,10.942 c 0,0.548 0.439,0.995 0.988,1.006 l 0.15,0.001 C 0.841,2.083 2.338,1.52 3.577,0.407 4.876,-0.823 5.562,-2.232 5.694,-3.92 5.796,-5.036 5.58,-6.144 5.052,-7.199 3.998,-9.59 1.993,-10.877 -0.726,-10.877 m 1.805,-10.692 0.399,-15.788 c 2.372,0.139 4.025,1.563 5.047,4.339 0.428,1.134 0.584,2.356 0.479,3.744 -0.255,3.251 -1.602,5.532 -4.115,6.969 -0.601,0.347 -1.2,0.591 -1.81,0.736 m 0.005,-17.812 c -0.215,0 -0.434,0.007 -0.656,0.023 -0.518,0.035 -0.925,0.459 -0.938,0.978 l -0.453,17.943 c -0.007,0.28 0.103,0.55 0.303,0.746 0.2,0.195 0.47,0.305 0.752,0.285 1.307,-0.064 2.587,-0.452 3.8,-1.155 3.087,-1.764 4.811,-4.645 5.119,-8.559 0.126,-1.667 -0.076,-3.213 -0.6,-4.601 -1.722,-4.676 -4.935,-5.66 -7.327,-5.66 m 91.541,12.496 c -0.247,0 -0.497,-0.01 -0.75,-0.029 -2.439,-0.203 -4.387,-1.184 -5.944,-2.997 -1.545,-1.797 -2.208,-3.811 -2.029,-6.155 0.177,-2.347 1.181,-4.296 2.986,-5.795 1.826,-1.543 3.907,-2.186 6.33,-1.982 2.357,0.177 4.319,1.166 5.841,2.94 1.548,1.779 2.229,3.864 2.028,6.204 -0.18,2.341 -1.149,4.219 -2.963,5.752 -1.617,1.389 -3.413,2.062 -5.499,2.062 m -0.26,-19.007 c -2.538,0 -4.816,0.837 -6.77,2.489 -2.234,1.855 -3.48,4.274 -3.699,7.184 -0.22,2.863 0.624,5.427 2.508,7.619 1.893,2.204 4.353,3.446 7.312,3.693 0.312,0.023 0.613,0.034 0.909,0.034 2.552,0 4.841,-0.855 6.805,-2.542 2.209,-1.867 3.444,-4.265 3.663,-7.121 0.249,-2.895 -0.596,-5.483 -2.512,-7.683 -1.876,-2.188 -4.302,-3.412 -7.203,-3.63 -0.336,-0.028 -0.677,-0.043 -1.013,-0.043 m -47.163,14.585 c -0.247,0 -0.497,-0.01 -0.751,-0.029 -2.448,-0.206 -4.385,-1.185 -5.911,-2.991 -1.55,-1.804 -2.213,-3.818 -2.033,-6.161 0.178,-2.364 1.173,-4.312 2.957,-5.795 1.825,-1.544 3.903,-2.189 6.33,-1.982 2.383,0.178 4.301,1.141 5.874,2.947 1.542,1.769 2.204,3.799 2.022,6.208 -0.178,2.336 -1.155,4.213 -2.985,5.737 -1.622,1.393 -3.418,2.066 -5.503,2.066 m -0.261,-19.007 c -2.539,0 -4.816,0.837 -6.77,2.489 -2.213,1.839 -3.45,4.258 -3.671,7.184 -0.22,2.862 0.624,5.426 2.508,7.62 1.857,2.197 4.309,3.441 7.284,3.691 0.312,0.024 0.614,0.036 0.91,0.036 2.551,0 4.84,-0.856 6.803,-2.543 2.226,-1.854 3.473,-4.253 3.692,-7.121 0.221,-2.933 -0.624,-5.518 -2.511,-7.683 -1.913,-2.194 -4.346,-3.415 -7.233,-3.63 -0.335,-0.028 -0.677,-0.043 -1.012,-0.043 m -25.113,10.301 c 0.009,0 0.018,0 0.026,0 0.431,-0.011 0.807,-0.296 0.935,-0.708 1.322,-4.26 3.868,-7.992 7.566,-11.092 5.203,-4.362 11.302,-6.297 18.182,-5.749 6.81,0.542 12.523,3.421 16.979,8.557 2.207,2.539 3.81,5.266 4.766,8.109 0.127,0.377 0.465,0.644 0.861,0.681 0.395,0.038 0.777,-0.163 0.971,-0.511 1.334,-2.38 3.232,-4.624 5.641,-6.669 5.195,-4.356 11.313,-6.285 18.205,-5.746 6.877,0.549 12.432,3.349 16.981,8.56 4.441,5.119 6.419,11.135 5.878,17.881 -0.514,6.684 -3.418,12.287 -8.63,16.658 -5.199,4.36 -11.296,6.293 -18.123,5.749 -6.893,-0.545 -12.633,-3.423 -17.063,-8.555 -2.174,-2.5 -3.768,-5.219 -4.741,-8.085 -0.127,-0.374 -0.461,-0.639 -0.855,-0.678 -0.405,-0.042 -0.772,0.157 -0.969,0.498 -1.427,2.468 -3.282,4.644 -5.671,6.649 -5.202,4.361 -11.276,6.29 -18.096,5.749 -6.894,-0.545 -12.634,-3.423 -17.064,-8.556 -2.36,-2.686 -4.036,-5.641 -4.985,-8.788 -0.125,-0.413 -0.498,-0.7 -0.929,-0.715 -0.422,-0.013 -0.824,0.246 -0.976,0.649 -1.332,3.518 -3.696,6.55 -7.028,9.015 -0.278,0.206 -0.431,0.541 -0.404,0.886 0.027,0.346 0.229,0.653 0.535,0.814 3.696,1.942 6.58,4.744 8.576,8.329 2.009,3.591 2.863,7.519 2.54,11.678 -0.405,4.981 -2.452,9.336 -6.084,12.942 -3.647,3.593 -8.108,5.641 -13.255,6.084 l -27.44,-1.36 10.497,-77.596 10.588,0.833 c 0.493,0.036 0.993,0.078 1.502,0.121 0.671,0.056 1.356,0.114 2.05,0.162 5.78,0.462 10.444,2.816 14.249,7.196 1.74,1.985 2.996,4.061 3.841,6.351 0.146,0.396 0.523,0.657 0.944,0.657 M 44.26,-59.666 c -6.417,0 -12.203,2.123 -17.198,6.311 -3.298,2.764 -5.752,6.004 -7.318,9.655 -0.84,-1.63 -1.906,-3.185 -3.184,-4.644 -4.108,-4.728 -9.363,-7.381 -15.616,-7.88 -0.694,-0.048 -1.37,-0.105 -2.032,-0.161 -0.515,-0.043 -1.02,-0.085 -1.516,-0.122 l -11.533,-0.908 c -0.551,-0.034 -1.005,0.34 -1.076,0.869 l -10.771,79.625 c -0.038,0.279 0.043,0.562 0.223,0.778 0.18,0.217 0.443,0.348 0.724,0.362 l 28.601,1.417 c 0.046,0.002 0.09,0.002 0.134,-0.002 5.657,-0.471 10.559,-2.714 14.569,-6.664 3.986,-3.956 6.231,-8.738 6.674,-14.214 0.356,-4.565 -0.583,-8.877 -2.789,-12.818 -1.94,-3.487 -4.648,-6.299 -8.062,-8.375 2.321,-1.937 4.15,-4.166 5.465,-6.658 1.069,2.536 2.589,4.931 4.535,7.146 4.782,5.541 10.982,8.652 18.422,9.241 7.358,0.585 13.932,-1.507 19.548,-6.214 1.976,-1.659 3.662,-3.491 5.031,-5.468 1.057,2.418 2.528,4.718 4.39,6.86 4.787,5.544 10.986,8.655 18.426,9.243 7.363,0.589 13.963,-1.505 19.575,-6.213 5.643,-4.731 8.787,-10.802 9.343,-18.042 0.586,-7.301 -1.555,-13.816 -6.366,-19.36 -4.846,-5.552 -11.016,-8.661 -18.34,-9.244 -7.426,-0.59 -14.049,1.505 -19.662,6.213 -2.004,1.701 -3.682,3.535 -5.01,5.474 -1.051,-2.399 -2.53,-4.701 -4.412,-6.866 -4.813,-5.547 -10.983,-8.657 -18.339,-9.243 -0.819,-0.065 -1.639,-0.098 -2.436,-0.098"
         style="fill:#000000;fill-opacity:1;fill-rule:nonzero;stroke:none"
         id="path11329"
         inkscape:connector-curvature="0" />
    </g>
    <g
       id="g11331"
       transform="matrix(1.0652348,0,0,-1.0652345,-621.06593,1249.8472)">
      <g
         id="g11333">
        <g
           id="g11339">
          <g
             id="g11341">
            <path
               d="m 602.711,333.055 10.771,-79.625 11.537,0.906 c 1.134,0.086 2.325,0.199 3.544,0.284 l 0,0 c 6.038,0.482 10.999,3.005 14.939,7.54 l 0,0 c 1.813,2.07 3.146,4.28 4.025,6.662 l 0,0 c 1.388,-4.478 4.024,-8.334 7.88,-11.565 l 0,0 c 5.442,-4.564 11.735,-6.549 18.907,-5.982 l 0,0 c 7.115,0.567 13.012,3.544 17.66,8.901 l 0,0 c 2.268,2.608 3.94,5.414 4.961,8.447 l 0,0 c 1.445,-2.579 3.43,-4.875 5.867,-6.944 l 0,0 c 5.443,-4.564 11.764,-6.549 18.936,-5.982 l 0,0 c 7.114,0.567 12.982,3.543 17.66,8.901 l 0,0 c 4.648,5.358 6.689,11.565 6.122,18.624 l 0,0 c -0.539,7.001 -3.543,12.784 -8.985,17.347 l 0,0 c -5.443,4.564 -11.736,6.549 -18.851,5.982 l 0,0 c -7.172,-0.567 -13.096,-3.515 -17.745,-8.901 l 0,0 c -2.267,-2.608 -3.911,-5.414 -4.932,-8.419 l 0,0 c -1.474,2.552 -3.43,4.848 -5.896,6.917 l 0,0 c -5.443,4.564 -11.707,6.548 -18.822,5.981 l 0,0 c -7.172,-0.567 -13.096,-3.515 -17.745,-8.901 l 0,0 c -2.466,-2.806 -4.196,-5.868 -5.187,-9.156 l 0,0 c -1.418,3.742 -3.884,6.888 -7.371,9.467 l 0,0 c 3.884,2.042 6.889,4.961 8.986,8.731 l 0,0 c 2.127,3.799 3.005,7.881 2.665,12.247 l 0,0 c -0.425,5.243 -2.552,9.779 -6.378,13.577 l 0,0 c -3.855,3.799 -8.504,5.925 -13.947,6.378 l 0,0 -28.601,-1.417 z m 23.981,-33.081 0,10.943 c 1.503,0.028 2.807,-0.426 3.912,-1.418 l 0,0 c 1.077,-1.02 1.672,-2.211 1.785,-3.657 l 0,0 c 0.086,-0.936 -0.084,-1.842 -0.538,-2.749 l 0,0 c -0.927,-2.1 -2.561,-3.123 -4.879,-3.123 l 0,0 c -0.093,0 -0.186,10e-4 -0.28,0.004 m 1.503,-28.487 -0.454,17.943 c 1.162,-0.057 2.267,-0.397 3.344,-1.021 l 0,0 c 2.779,-1.587 4.337,-4.167 4.621,-7.767 l 0,0 c 0.113,-1.503 -0.057,-2.891 -0.538,-4.167 l 0,0 c -1.226,-3.331 -3.355,-5.008 -6.385,-5.009 l 0,0 c -0.192,0 -0.389,0.007 -0.588,0.021 m 85.747,-4.281 c -2.012,1.673 -3.146,3.855 -3.344,6.491 l 0,0 c -0.199,2.58 0.538,4.876 2.267,6.889 l 0,0 c 1.73,2.012 3.912,3.117 6.634,3.344 l 0,0 c 2.636,0.199 4.96,-0.538 6.973,-2.267 l 0,0 c 2.012,-1.701 3.117,-3.856 3.316,-6.435 l 0,0 c 0.227,-2.636 -0.539,-4.961 -2.268,-6.945 l 0,0 c -1.701,-1.984 -3.883,-3.09 -6.519,-3.288 l 0,0 c -0.317,-0.027 -0.629,-0.04 -0.937,-0.04 l 0,0 c -2.305,0 -4.346,0.75 -6.122,2.251 m -47.424,-4.422 c -2.012,1.673 -3.117,3.855 -3.316,6.491 l 0,0 c -0.198,2.58 0.539,4.876 2.268,6.888 l 0,0 c 1.701,2.013 3.912,3.119 6.605,3.345 l 0,0 c 2.636,0.198 4.96,-0.539 6.973,-2.268 l 0,0 c 2.041,-1.701 3.147,-3.854 3.345,-6.434 l 0,0 c 0.198,-2.636 -0.539,-4.96 -2.268,-6.945 l 0,0 c -1.729,-1.984 -3.883,-3.09 -6.548,-3.288 l 0,0 c -0.317,-0.026 -0.629,-0.04 -0.937,-0.04 l 0,0 c -2.305,0 -4.345,0.75 -6.122,2.251"
               style="fill:url(#linearGradient8788);stroke:none"
               id="path11351"
               inkscape:connector-curvature="0" />
          </g>
        </g>
      </g>
    </g>
    <g
       id="g11353"
       transform="matrix(1.0652348,0,0,-1.0652345,-621.06593,1249.8472)">
      <g
         id="g11355"
         clip-path="url(#clipPath11357)">
        <g
           id="g11361"
           transform="translate(736.0809,297.4801)">
          <path
             d="m 0,0 c -1.276,1.871 -3.373,3.855 -5.386,4.932 l -0.057,0 c 0,0.029 -0.028,0.029 -0.056,0.057 -0.057,0.028 -0.255,0.113 -0.284,0.142 -2.182,0.963 -4.365,1.389 -6.774,1.389 -0.823,-0.029 -3.884,-0.114 -3.827,-1.474 0.113,-1.219 2.749,-1.361 3.628,-1.531 2.041,-0.34 3.543,-0.652 5.414,-1.587 0.029,-0.029 0.17,-0.114 0.227,-0.114 0,-0.028 0.028,-0.028 0.028,-0.028 0.029,0 0.029,-0.029 0.057,-0.029 1.984,-1.048 3.118,-2.097 4.706,-3.656 0.567,-0.539 1.672,-1.729 2.296,-2.098 0.028,0 0.113,-0.113 0.113,-0.113 0.454,-0.114 0.68,-0.142 1.021,0.198 0.34,0.312 0.368,0.539 0.283,0.964 0,0.028 0.085,-0.028 0.085,-0.028 C 1.247,-1.984 0.567,-0.85 0,0"
             style="fill:#cbcb35;fill-opacity:1;fill-rule:nonzero;stroke:none"
             id="path11363"
             inkscape:connector-curvature="0" />
        </g>
        <g
           id="g11365"
           transform="translate(713.2337,262.1321)">
          <path
             d="m 0,0 c -1.587,0.567 -2.665,1.049 -4.11,1.956 0,0.028 -0.029,0.028 -0.029,0.028 l -0.028,0.029 c -0.028,0 -0.113,0.056 -0.113,0.056 -1.474,0.907 -2.41,1.701 -3.685,2.807 -0.737,0.623 -1.446,1.389 -2.41,0.85 -1.134,-0.624 -0.425,-1.956 0.114,-2.778 1.02,-1.531 2.522,-2.863 4.053,-3.883 0.028,0 0.114,-0.085 0.142,-0.085 0.028,-0.029 0.028,-0.029 0.057,-0.029 0,-0.028 0.028,-0.028 0.028,-0.028 1.446,-0.879 3.742,-1.786 5.414,-1.871 0.964,-0.057 2.665,-0.028 2.608,1.276 C 2.013,-0.567 0.879,-0.312 0,0"
             style="fill:#cbcb35;fill-opacity:1;fill-rule:nonzero;stroke:none"
             id="path11367"
             inkscape:connector-curvature="0" />
        </g>
        <g
           id="g11369"
           transform="translate(646.1376,323.2187)">
          <path
             d="M 0,0 C -0.227,0.68 -0.51,1.276 -0.85,1.899 -1.843,3.657 -2.976,5.046 -4.535,6.35 l -0.029,0 c 0,0.028 -0.028,0.028 -0.056,0.056 l -0.057,0.057 c -1.871,1.474 -4.734,2.806 -7.087,3.118 -0.879,0.113 -3.685,0.369 -3.685,-1.077 0.029,-1.162 2.013,-1.531 3.005,-1.871 2.211,-0.794 3.685,-1.502 5.556,-2.976 0,-0.029 0.028,-0.029 0.057,-0.029 0,-0.028 0.028,-0.028 0.028,-0.056 l 0.028,0 c 1.276,-1.021 2.211,-2.013 3.147,-3.374 0.311,-0.453 0.595,-0.907 0.85,-1.389 0.51,-0.907 1.162,-2.749 2.296,-2.636 C 0.992,-3.628 0.255,-0.822 0,0"
             style="fill:#cbcb35;fill-opacity:1;fill-rule:nonzero;stroke:none"
             id="path11371"
             inkscape:connector-curvature="0" />
        </g>
        <g
           id="g11373"
           transform="translate(613.0857,300.2864)">
          <path
             d="m 0,0 c -0.283,1.956 -0.68,3.997 -0.68,5.953 0,1.814 -0.142,3.741 -0.284,5.527 -0.028,0.057 -0.028,0.085 -0.028,0.142 l 0,0.142 c -0.255,2.664 -0.567,5.301 -0.907,7.965 -0.312,2.268 -0.652,4.621 -1.162,6.86 -0.114,0.397 -0.227,0.822 -0.312,1.247 -0.284,0.992 -0.567,2.041 -1.077,2.948 -0.227,0.539 -0.964,2.013 -1.758,1.361 -0.623,-0.567 -0.397,-1.219 -0.283,-1.984 -0.057,-0.256 0.311,-2.467 0.34,-2.863 0.028,-0.426 0.085,-0.822 0.113,-1.248 0.255,-2.239 0.539,-4.478 0.766,-6.718 0.34,-2.579 0.481,-5.272 0.708,-7.88 0,-0.057 0,-0.085 0.029,-0.142 l 0,-0.113 c 0.141,-1.786 0.283,-3.6 0.481,-5.358 0.142,-2.296 0.539,-4.223 1.106,-6.406 0.255,-0.964 1.105,-5.839 2.239,-5.924 1.644,0 0.822,5.754 0.709,6.491"
             style="fill:#cbcb35;fill-opacity:1;fill-rule:nonzero;stroke:none"
             id="path11375"
             inkscape:connector-curvature="0" />
        </g>
        <g
           id="g11377"
           transform="translate(674.4274,298.1604)">
          <path
             d="m 0,0 c -2.211,0.227 -4.337,0.255 -6.548,0.057 -1.644,-0.199 -3.175,-0.482 -4.734,-1.049 -0.028,-0.028 -0.057,-0.028 -0.113,-0.057 -0.029,0 -0.057,-0.028 -0.085,-0.028 -0.624,-0.255 -1.191,-0.539 -1.786,-0.851 -2.693,-1.559 -4.564,-3.458 -6.463,-5.896 -0.539,-0.708 -3.685,-4.705 -2.608,-5.669 1.105,-0.709 4.252,3.062 4.876,3.713 1.899,1.928 3.43,3.459 5.867,4.734 0.17,0.142 1.134,0.511 1.418,0.624 0.028,0.028 0.056,0.028 0.085,0.057 0.028,0 0.056,0 0.085,0.028 1.304,0.51 2.466,0.765 3.883,0.992 2.041,0.284 3.912,0.312 5.981,0.34 0.766,0 1.559,0.029 2.353,0.029 1.729,0.141 2.098,-0.766 3.033,0.453 C 6.066,-1.389 3.09,-0.539 2.438,-0.34 2.268,-0.283 0.283,-0.028 0,0"
             style="fill:#cbcb35;fill-opacity:1;fill-rule:nonzero;stroke:none"
             id="path11379"
             inkscape:connector-curvature="0" />
        </g>
        <g
           id="g11381"
           transform="translate(694.1282,210.3147)">
          <path
             d="m 0,0 c 1.843,0.142 0.879,-2.863 -0.51,-1.701 -0.199,0.17 -0.312,0.369 -0.34,0.624 -1.418,0.765 -3.799,2.721 -3.827,4.422 -0.029,0.68 1.984,4.762 2.863,6.576 l 0.255,0.482 c -3.147,-0.17 -6.69,-0.34 -5.783,-4.309 0.057,-0.17 0.085,-0.311 0.114,-0.453 1.389,-0.425 0.368,-2.608 -0.879,-1.644 -0.51,0.425 -0.454,1.19 0.085,1.531 -1.02,4.11 1.162,5.272 5.046,5.584 l 1.587,0.113 0.284,-0.113 -0.029,-0.624 0.227,-0.538 -0.425,-0.907 -2.551,-5.67 c 0.028,-1.304 2.211,-3.061 3.288,-3.685 L 0,0 Z m -11.112,9.156 c 1.559,-0.34 0.397,-2.75 -0.822,-1.644 -0.453,0.397 -0.397,1.077 0.057,1.445 -0.992,3.459 4.025,6.804 4.45,6.86 l 0.681,-0.198 c 1.785,-0.822 4.053,-1.588 5.414,-3.288 0.34,-0.425 -0.312,-0.907 -0.624,-0.511 -0.255,0.312 -0.567,0.596 -0.907,0.879 l 0,-0.028 c -1.049,0.822 -2.58,1.559 -3.827,2.041 -0.68,0.283 -0.595,0.397 -0.992,0.057 -1.02,-0.794 -1.757,-1.503 -2.296,-2.126 -0.935,-1.106 -1.502,-2.211 -1.134,-3.487 M 1.701,8.816 2.438,8.787 C 2.721,8.05 0.17,5.443 1.162,4.054 L 2.409,3.26 C 3.118,4.365 4.791,3.146 3.94,2.126 3.43,1.531 2.495,1.729 2.296,2.466 L 0.964,3.09 C 0,3.855 -0.113,4.961 0.397,6.038 l 1.304,2.778 z"
             style="fill:#000000;fill-opacity:1;fill-rule:nonzero;stroke:none"
             id="path11383"
             inkscape:connector-curvature="0" />
        </g>
        <g
           id="g11385"
           transform="translate(700.9597,234.2108)">
          <path
             d="m 0,0 c -1.531,3.912 -5.556,4.11 -5.556,4.11 1.276,-0.595 2.183,-1.672 2.438,-2.523 0.283,-1.02 0.737,-1.672 0.737,-1.672 -1.219,1.276 -2.976,1.502 -2.976,1.502 0.765,-0.453 1.814,-2.069 1.814,-2.069 -5.188,3.742 -9.185,0.879 -9.185,0.879 1.701,0.368 3.289,-0.17 4.224,-0.907 0.794,-0.567 1.587,-0.936 1.587,-0.936 -3.996,0.567 -5.612,-3.061 -5.612,-3.061 2.211,1.531 4.082,1.162 4.082,1.162 -1.899,-1.049 -2.24,-2.976 -2.24,-2.976 1.134,0.765 2.466,0.878 2.466,0.878 -1.729,-0.85 -1.955,-2.891 -1.955,-2.891 0.878,0.964 1.899,0.652 1.814,0.34 -0.057,-0.255 -0.142,-0.652 -0.17,-0.822 -0.227,-0.765 -0.312,-1.531 -0.255,-2.296 0.34,-4.053 4.96,-5.641 10.374,-4.762 5.726,0.907 9.468,4.734 7.937,8.334 -0.141,0.368 -0.765,1.701 -1.757,2.778 -0.113,0.056 -0.397,0.595 0.765,1.36 1.191,0.766 2.863,0.766 2.863,0.766 -1.927,1.814 -4.535,0.963 -4.535,0.963 0.595,0.199 0.879,0.539 1.814,1.531 1.332,1.417 2.75,0.567 2.75,0.567 C 8.05,2.693 5.187,0.312 5.187,0.312 5.584,2.013 6.718,2.58 6.718,2.58 4.932,2.92 3.798,1.786 3.798,1.786 4.195,4.252 5.641,5.556 5.641,5.556 1.587,5.074 0,0 0,0"
             style="fill:#000000;fill-opacity:1;fill-rule:evenodd;stroke:none"
             id="path11387"
             inkscape:connector-curvature="0" />
        </g>
        <g
           id="g11389"
           transform="translate(707.4227,227.3226)">
          <path
             d="M 0,0 C -0.737,2.296 -2.75,3.713 -4.507,3.175 -5.471,2.863 -6.208,2.013 -6.491,0.907 c -0.794,0.85 -1.871,1.276 -3.033,1.106 -1.956,-0.341 -3.26,-2.353 -2.92,-4.507 0.368,-2.183 2.239,-3.686 4.224,-3.345 l 0.056,0 0.029,0 c 0.311,0.028 1.048,0.17 1.785,0.765 0.652,0.539 0.794,0.765 1.616,0.312 1.077,-0.624 1.899,-0.595 2.268,-0.567 0.198,0.028 0.425,0.057 0.624,0.113 C -0.085,-4.649 0.737,-2.324 0,0"
             style="fill:#ffffff;fill-opacity:1;fill-rule:nonzero;stroke:none"
             id="path11391"
             inkscape:connector-curvature="0" />
        </g>
        <g
           id="g11393"
           transform="translate(699.5424,221.6817)">
          <path
             d="m 0,0 -0.057,0 c -1.899,-0.312 -3.685,1.106 -4.025,3.175 -0.34,2.069 0.907,3.997 2.778,4.308 C -0.539,7.597 0.17,7.427 0.822,7.03 0.085,7.54 -0.737,7.795 -1.644,7.654 -3.6,7.313 -4.904,5.301 -4.564,3.146 c 0.369,-2.182 2.24,-3.685 4.224,-3.344 l 0.057,0 0.028,0 C 0.057,-0.17 0.737,-0.028 1.446,0.539 0.85,0.142 0.284,0.028 0.028,0 L 0,0 Z"
             style="fill:#d2d2d2;fill-opacity:1;fill-rule:nonzero;stroke:none"
             id="path11395"
             inkscape:connector-curvature="0" />
        </g>
        <g
           id="g11397"
           transform="translate(700.5629,224.9415)">
          <path
             d="m 0,0 c 0.057,-0.567 -0.255,-1.049 -0.709,-1.077 -0.425,-0.057 -0.793,0.397 -0.85,0.964 -0.057,0.567 0.255,1.048 0.68,1.105 C -0.454,1.02 -0.057,0.595 0,0"
             style="fill:#000000;fill-opacity:1;fill-rule:nonzero;stroke:none"
             id="path11399"
             inkscape:connector-curvature="0" />
        </g>
        <g
           id="g11401"
           transform="translate(703.9928,225.4801)">
          <path
             d="m 0,0 c 0.057,-0.709 -0.397,-1.332 -1.021,-1.389 -0.623,-0.057 -1.19,0.482 -1.247,1.191 -0.085,0.737 0.397,1.36 1.021,1.417 C -0.624,1.276 -0.057,0.737 0,0"
             style="fill:#000000;fill-opacity:1;fill-rule:nonzero;stroke:none"
             id="path11403"
             inkscape:connector-curvature="0" />
        </g>
        <g
           id="g11405"
           transform="translate(703.0007,224.5163)">
          <path
             d="m 0,0 c 0.028,-0.283 -0.17,-0.539 -0.454,-0.539 -0.283,-0.028 -0.51,0.17 -0.538,0.454 -0.029,0.255 0.17,0.51 0.453,0.539 C -0.255,0.482 -0.028,0.255 0,0"
             style="fill:#ffffff;fill-opacity:1;fill-rule:nonzero;stroke:none"
             id="path11407"
             inkscape:connector-curvature="0" />
        </g>
        <g
           id="g11409"
           transform="translate(699.7408,224.0911)">
          <path
             d="m 0,0 c 0,-0.17 -0.113,-0.312 -0.283,-0.34 -0.171,0 -0.312,0.113 -0.341,0.283 0,0.17 0.114,0.312 0.284,0.34 C -0.17,0.283 -0.028,0.17 0,0"
             style="fill:#ffffff;fill-opacity:1;fill-rule:nonzero;stroke:none"
             id="path11411"
             inkscape:connector-curvature="0" />
        </g>
        <g
           id="g11413"
           transform="translate(703.4258,226.614)">
          <path
             d="M 0,0 C 0,-0.113 -0.113,-0.255 -0.255,-0.255 -0.397,-0.283 -0.51,-0.17 -0.51,-0.028 -0.539,0.113 -0.425,0.227 -0.283,0.255 -0.142,0.255 -0.028,0.142 0,0"
             style="fill:#ffffff;fill-opacity:1;fill-rule:nonzero;stroke:none"
             id="path11415"
             inkscape:connector-curvature="0" />
        </g>
        <g
           id="g11417"
           transform="translate(700.2794,225.8203)">
          <path
             d="m 0,0 c 0,-0.085 -0.085,-0.17 -0.17,-0.17 -0.085,0 -0.17,0.057 -0.17,0.142 0,0.085 0.057,0.17 0.142,0.17 C -0.113,0.17 -0.028,0.085 0,0"
             style="fill:#ffffff;fill-opacity:1;fill-rule:nonzero;stroke:none"
             id="path11419"
             inkscape:connector-curvature="0" />
        </g>
        <g
           id="g11421"
           transform="translate(707.4227,227.3226)">
          <path
             d="M 0,0 C -0.737,2.296 -2.75,3.713 -4.507,3.175 -4.564,3.146 -4.62,3.146 -4.649,3.118 -5.528,2.778 -6.18,1.984 -6.463,0.992 l 0,-0.113 c 0.057,-0.085 0.198,-0.34 0.255,-0.709 0,0.312 0,1.928 1.474,2.636 -0.028,-0.028 -0.057,-0.028 -0.057,-0.028 1.701,0.539 3.657,-0.822 4.394,-3.005 0.709,-2.182 -0.113,-4.393 -1.814,-4.932 -0.198,-0.057 -0.425,-0.085 -0.624,-0.113 -0.141,0 -0.368,0 -0.652,0.056 0.454,-0.113 0.822,-0.113 1.021,-0.113 0.198,0.028 0.425,0.057 0.624,0.113 C -0.085,-4.649 0.737,-2.324 0,0"
             style="fill:#d2d2d2;fill-opacity:1;fill-rule:nonzero;stroke:none"
             id="path11423"
             inkscape:connector-curvature="0" />
        </g>
        <g
           id="g11425"
           transform="translate(712.1566,213.0077)">
          <path
             d="m 0,0 c -1.956,-0.425 0,-3.26 1.077,-1.587 0.142,0.226 0.227,0.481 0.17,0.765 1.219,1.247 3.09,4.082 2.58,5.839 -0.199,0.737 -3.629,4.337 -5.131,5.953 l -0.425,0.425 C 1.644,12.217 5.386,13.181 5.698,8.759 5.726,8.561 5.726,8.419 5.754,8.249 4.422,7.342 6.18,5.414 7.2,6.831 c 0.397,0.567 0.085,1.361 -0.595,1.56 -0.255,4.62 -2.92,5.13 -7.059,4.223 l -1.729,-0.425 -0.226,-0.198 0.226,-0.624 -0.056,-0.652 0.737,-0.794 4.478,-5.13 C 3.373,3.43 1.644,0.879 0.709,-0.113 L 0,0 Z m 8.674,13.181 c -1.531,-0.85 0.482,-2.976 1.389,-1.474 0.34,0.567 0.085,1.276 -0.51,1.531 -0.085,3.912 -6.407,5.811 -6.86,5.726 L 2.041,18.539 c -1.616,-1.446 -3.742,-2.977 -4.621,-5.188 -0.226,-0.567 0.624,-0.85 0.822,-0.34 0.171,0.397 0.397,0.794 0.652,1.191 0.851,1.218 2.24,2.466 3.374,3.373 0.623,0.51 0.482,0.595 1.02,0.397 1.304,-0.511 2.325,-1.021 3.09,-1.503 1.332,-0.85 2.268,-1.842 2.296,-3.288 M -4.62,8.702 -5.386,8.447 C -5.443,7.54 -1.928,5.641 -2.523,3.883 L -3.572,2.665 C -4.677,3.572 -6.009,1.757 -4.791,0.964 -4.082,0.51 -3.175,1.02 -3.175,1.843 l 1.162,1.077 c 0.766,1.105 0.511,2.324 -0.34,3.288 L -4.62,8.702 Z"
             style="fill:#000000;fill-opacity:1;fill-rule:nonzero;stroke:none"
             id="path11427"
             inkscape:connector-curvature="0" />
        </g>
        <g
           id="g11429"
           transform="translate(702.462,252.4943)">
          <path
             d="m 0,0 c -0.085,-0.397 -0.227,-0.822 -0.425,-1.332 -0.822,-2.353 -2.098,-5.981 3.94,-8.873 3.742,-1.786 6.151,-0.056 7.682,1.021 0.368,0.283 0.709,0.51 0.992,0.652 0.283,0.141 0.539,0.198 0.737,0.17 0.51,-0.085 0.68,-0.567 0.68,-0.992 C 13.521,-13.068 2.835,-19.389 0.765,-20.636 0.652,-20.693 0.539,-20.75 0.425,-20.778 l -2.353,0.17 c 0.114,0.057 0.199,0.085 0.312,0.142 4.196,1.19 16.47,10.97 14.514,11.792 -0.341,0.17 -0.879,-0.312 -1.134,-0.482 -6.832,-4.904 -15.733,-0.567 -12.699,8.022 0.17,0.482 0.311,0.907 0.368,1.247 L 0,0 Z"
             style="fill:#000000;fill-opacity:1;fill-rule:nonzero;stroke:none"
             id="path11431"
             inkscape:connector-curvature="0" />
        </g>
      </g>
    </g>
  </g>
</svg>
