<?xml version="1.0" encoding="UTF-8" standalone="no"?>
<!-- Created with Inkscape (http://www.inkscape.org/) -->

<svg
   xmlns:dc="http://purl.org/dc/elements/1.1/"
   xmlns:cc="http://creativecommons.org/ns#"
   xmlns:rdf="http://www.w3.org/1999/02/22-rdf-syntax-ns#"
   xmlns:svg="http://www.w3.org/2000/svg"
   xmlns="http://www.w3.org/2000/svg"
   xmlns:sodipodi="http://sodipodi.sourceforge.net/DTD/sodipodi-0.dtd"
   xmlns:inkscape="http://www.inkscape.org/namespaces/inkscape"
   width="200"
   height="200"
   viewBox="0 0 200 200"
   id="svg6143"
   version="1.1"
   inkscape:version="0.91 r13725"
   sodipodi:docname="5.svg">
  <defs
     id="defs6145">
    <clipPath
       id="clipPath3436"
       clipPathUnits="userSpaceOnUse">
      <path
         inkscape:connector-curvature="0"
         id="path3438"
         d="m 165.128,221.109 1.529,0 0,2.296 -1.529,0 0,-2.296 z" />
    </clipPath>
    <clipPath
       id="clipPath3392"
       clipPathUnits="userSpaceOnUse">
      <path
         inkscape:connector-curvature="0"
         id="path3394"
         d="m 0,425.197 850.394,0 L 850.394,0 0,0 0,425.197 Z" />
    </clipPath>
    <radialGradient
       id="radialGradient3380"
       spreadMethod="pad"
       gradientTransform="matrix(92.993691,0,0,-92.993691,142.78966,220.33636)"
       gradientUnits="userSpaceOnUse"
       r="1"
       cy="0"
       cx="0"
       fy="0"
       fx="0">
      <stop
         id="stop3382"
         offset="0"
         style="stop-opacity:1;stop-color:#7dafc3" />
      <stop
         id="stop3384"
         offset="1"
         style="stop-opacity:1;stop-color:#000000" />
    </radialGradient>
    <linearGradient
       id="linearGradient3836"
       spreadMethod="pad"
       gradientTransform="matrix(0,54.626778,54.626778,0,401.89151,190.34109)"
       gradientUnits="userSpaceOnUse"
       y2="0"
       x2="1"
       y1="0"
       x1="0">
      <stop
         id="stop3838"
         offset="0"
         style="stop-opacity:1;stop-color:#ffb21a" />
      <stop
         id="stop3840"
         offset="0.145"
         style="stop-opacity:1;stop-color:#ffb21a" />
      <stop
         id="stop3842"
         offset="1"
         style="stop-opacity:1;stop-color:#ff491a" />
    </linearGradient>
    <clipPath
       id="clipPath3736"
       clipPathUnits="userSpaceOnUse">
      <path
         inkscape:connector-curvature="0"
         id="path3738"
         d="m 0,425.197 850.394,0 L 850.394,0 0,0 0,425.197 Z" />
    </clipPath>
    <clipPath
       id="clipPath3736-8"
       clipPathUnits="userSpaceOnUse">
      <path
         inkscape:connector-curvature="0"
         id="path3738-3"
         d="m 0,425.197 850.394,0 L 850.394,0 0,0 0,425.197 Z" />
    </clipPath>
    <radialGradient
       id="radialGradient9763"
       spreadMethod="pad"
       gradientTransform="matrix(110.56008,0,0,-110.56008,129.95924,276.93332)"
       gradientUnits="userSpaceOnUse"
       r="1"
       cy="0"
       cx="0"
       fy="0"
       fx="0">
      <stop
         id="stop9765"
         offset="0"
         style="stop-opacity:1;stop-color:#e90000" />
      <stop
         id="stop9767"
         offset="0.375"
         style="stop-opacity:1;stop-color:#e90000" />
      <stop
         id="stop9769"
         offset="0.89"
         style="stop-opacity:1;stop-color:#000000" />
      <stop
         id="stop9771"
         offset="1"
         style="stop-opacity:1;stop-color:#000000" />
    </radialGradient>
    <linearGradient
       id="linearGradient8596"
       spreadMethod="pad"
       gradientTransform="matrix(0,60.303028,60.303028,0,402.79126,200.26089)"
       gradientUnits="userSpaceOnUse"
       y2="0"
       x2="1"
       y1="0"
       x1="0">
      <stop
         id="stop8598"
         offset="0"
         style="stop-opacity:1;stop-color:#c73535" />
      <stop
         id="stop8600"
         offset="1"
         style="stop-opacity:1;stop-color:#ff9999" />
    </linearGradient>
  </defs>
  <sodipodi:namedview
     id="base"
     pagecolor="#ffffff"
     bordercolor="#666666"
     borderopacity="1.0"
     inkscape:pageopacity="0.0"
     inkscape:pageshadow="2"
     inkscape:zoom="1.9328025"
     inkscape:cx="151.817"
     inkscape:cy="85.680773"
     inkscape:document-units="px"
     inkscape:current-layer="layer1"
     showgrid="false"
     units="px"
     inkscape:window-width="1920"
     inkscape:window-height="1017"
     inkscape:window-x="-8"
     inkscape:window-y="-8"
     inkscape:window-maximized="1" />
  <metadata
     id="metadata6148">
    <rdf:RDF>
      <cc:Work
         rdf:about="">
        <dc:format>image/svg+xml</dc:format>
        <dc:type
           rdf:resource="http://purl.org/dc/dcmitype/StillImage" />
        <dc:title></dc:title>
      </cc:Work>
    </rdf:RDF>
  </metadata>
  <g
     inkscape:label="Layer 1"
     inkscape:groupmode="layer"
     id="layer1"
     transform="translate(0,-852.36222)">
    <g
       id="g10663"
       transform="matrix(1.0803779,0,0,-1.0803757,28.67453,983.90615)">
      <path
         d="M 0,0 C 4.252,9.581 8.504,18.567 12.161,25.427 9.128,28.063 6.435,30.983 4.082,34.186 0.17,39.572 -2.721,45.638 -4.479,52.214 -11.168,54 -16.469,58.252 -18.085,66.813 l 0.028,0 c -0.737,3.94 -0.028,8.192 2.353,11.735 3.77,5.641 7.795,6.917 11.764,8.192 0.227,0.057 -0.397,-0.142 0.368,0.114 0.794,2.806 1.815,5.584 2.977,8.333 2.324,5.443 5.414,10.942 9.269,16.385 l 0.028,0 c 3.175,4.478 8.618,7.03 14.315,6.122 14.032,-2.239 6.265,-41.272 54.482,-2.324 6.52,5.273 15.903,4.082 20.977,-2.665 1.389,-1.814 2.636,-3.628 3.77,-5.414 5.896,-0.226 11.99,-2.409 15.108,-10.403 3.09,-7.908 0.539,-14.343 -4.422,-19.446 0.794,-7.511 0.255,-14.91 -1.53,-21.911 -1.191,-4.763 -2.977,-9.298 -5.244,-13.55 0.992,-1.19 2.04,-2.466 3.146,-3.827 11.622,-14.173 42.463,-81.552 47.424,-99.666 l -181.418,0 C -21.572,-46.715 -6.35,-14.315 0,0"
         style="fill:#4e4e4d;fill-opacity:1;fill-rule:evenodd;stroke:none"
         id="path10665"
         inkscape:connector-curvature="0" />
    </g>
    <g
       id="g10671"
       transform="matrix(1.0803779,0,0,-1.0803757,28.67453,983.90615)">
      <path
         d="M 0,0 C 4.252,9.581 8.504,18.567 12.161,25.427 9.128,28.063 6.435,30.983 4.082,34.186 0.17,39.572 -2.721,45.638 -4.479,52.214 -11.168,54 -16.469,58.252 -18.085,66.813 l 0.028,0 c -0.737,3.94 -0.028,8.192 2.353,11.735 3.77,5.641 7.795,6.917 11.764,8.192 0.227,0.057 -0.397,-0.142 0.368,0.114 0.794,2.806 1.815,5.584 2.977,8.333 2.324,5.443 5.414,10.942 9.269,16.385 l 0.028,0 c 3.175,4.478 8.618,7.03 14.315,6.122 14.032,-2.239 6.265,-41.272 54.482,-2.324 6.52,5.273 15.903,4.082 20.977,-2.665 1.389,-1.814 2.636,-3.628 3.77,-5.414 5.896,-0.226 11.99,-2.409 15.108,-10.403 3.09,-7.908 0.539,-14.343 -4.422,-19.446 0.794,-7.511 0.255,-14.91 -1.53,-21.911 -1.191,-4.763 -2.977,-9.298 -5.244,-13.55 0.992,-1.19 2.04,-2.466 3.146,-3.827 11.622,-14.173 42.463,-81.552 47.424,-99.666 l -181.418,0 C -21.572,-46.715 -6.35,-14.315 0,0"
         style="fill:#273b63;fill-opacity:1;fill-rule:evenodd;stroke:none"
         id="path10673"
         inkscape:connector-curvature="0" />
    </g>
    <g
       id="g10675"
       transform="matrix(1.0803779,0,0,-1.0803757,37.555772,995.69665)">
      <path
         d="m 0,0 c 0,-0.255 0.17,-0.482 0.397,-0.482 0.198,0 0.368,0.227 0.368,0.482 0,0.255 -0.17,0.482 -0.368,0.482 C 0.17,0.482 0,0.255 0,0"
         style="fill:#ffffff;fill-opacity:1;fill-rule:nonzero;stroke:none"
         id="path10677"
         inkscape:connector-curvature="0" />
    </g>
    <g
       id="g10679"
       transform="matrix(1.0803779,0,0,-1.0803757,25.581511,1001.8829)">
      <path
         d="m 0,0 c 0,-0.255 0.17,-0.482 0.368,-0.482 0.227,0 0.397,0.227 0.397,0.482 0,0.255 -0.17,0.482 -0.397,0.482 C 0.17,0.482 0,0.255 0,0"
         style="fill:#ffffff;fill-opacity:1;fill-rule:nonzero;stroke:none"
         id="path10681"
         inkscape:connector-curvature="0" />
    </g>
    <g
       id="g10683"
       transform="matrix(1.0803779,0,0,-1.0803757,12.902741,1031.0684)">
      <path
         d="m 0,0 c 0,-0.198 0.142,-0.368 0.312,-0.368 0.17,0 0.312,0.17 0.312,0.368 0,0.227 -0.142,0.397 -0.312,0.397 C 0.142,0.397 0,0.227 0,0"
         style="fill:#ffffff;fill-opacity:1;fill-rule:nonzero;stroke:none"
         id="path10685"
         inkscape:connector-curvature="0" />
    </g>
    <g
       id="g10687"
       transform="matrix(1.0803779,0,0,-1.0803757,19.18092,1037.0096)">
      <path
         d="m 0,0 c 0,-0.198 0.142,-0.369 0.312,-0.369 0.17,0 0.283,0.171 0.283,0.369 0,0.227 -0.113,0.368 -0.283,0.368 C 0.142,0.368 0,0.227 0,0"
         style="fill:#ffffff;fill-opacity:1;fill-rule:nonzero;stroke:none"
         id="path10689"
         inkscape:connector-curvature="0" />
    </g>
    <g
       id="g10691"
       transform="matrix(1.0803779,0,0,-1.0803757,20.895912,1021.2072)">
      <path
         d="m 0,0 c 0,-0.198 0.142,-0.369 0.312,-0.369 0.17,0 0.312,0.171 0.312,0.369 0,0.227 -0.142,0.368 -0.312,0.368 C 0.142,0.368 0,0.227 0,0"
         style="fill:#ffffff;fill-opacity:1;fill-rule:nonzero;stroke:none"
         id="path10693"
         inkscape:connector-curvature="0" />
    </g>
    <g
       id="g10695"
       transform="matrix(1.0803779,0,0,-1.0803757,40.189517,977.35235)">
      <path
         d="m 0,0 c 0,-0.198 0.142,-0.368 0.312,-0.368 0.17,0 0.312,0.17 0.312,0.368 0,0.227 -0.142,0.397 -0.312,0.397 C 0.142,0.397 0,0.227 0,0"
         style="fill:#ffffff;fill-opacity:1;fill-rule:nonzero;stroke:none"
         id="path10697"
         inkscape:connector-curvature="0" />
    </g>
    <g
       id="g10699"
       transform="matrix(1.0803779,0,0,-1.0803757,34.523912,980.69045)">
      <path
         d="M 0,0 0,0 C 0,0.17 0.113,0.312 0.227,0.312 0.368,0.312 0.482,0.17 0.482,0 0.482,-0.17 0.368,-0.312 0.227,-0.312 0.113,-0.312 0,-0.17 0,0"
         style="fill:#ffffff;fill-opacity:1;fill-rule:nonzero;stroke:none"
         id="path10701"
         inkscape:connector-curvature="0" />
    </g>
    <g
       id="g10703"
       transform="matrix(1.0803779,0,0,-1.0803757,23.774584,897.51355)">
      <path
         d="m 0,0 c 0,-0.227 0.142,-0.397 0.312,-0.397 0.17,0 0.283,0.17 0.283,0.397 0,0.198 -0.113,0.368 -0.283,0.368 C 0.142,0.368 0,0.198 0,0"
         style="fill:#ffffff;fill-opacity:1;fill-rule:nonzero;stroke:none"
         id="path10705"
         inkscape:connector-curvature="0" />
    </g>
    <g
       id="g10707"
       transform="matrix(1.0803779,0,0,-1.0803757,50.265122,960.53945)">
      <path
         d="m 0,0 c 0,-0.198 0.113,-0.369 0.283,-0.369 0.171,0 0.312,0.171 0.312,0.369 0,0.198 -0.141,0.368 -0.312,0.368 C 0.113,0.368 0,0.198 0,0"
         style="fill:#ffffff;fill-opacity:1;fill-rule:nonzero;stroke:none"
         id="path10709"
         inkscape:connector-curvature="0" />
    </g>
    <g
       id="g10711"
       transform="matrix(1.0803779,0,0,-1.0803757,33.544009,887.83608)">
      <path
         d="m 0,0 c 0,-0.198 0.113,-0.397 0.283,-0.397 0.171,0 0.312,0.199 0.312,0.397 0,0.198 -0.141,0.369 -0.312,0.369 C 0.113,0.369 0,0.198 0,0"
         style="fill:#ffffff;fill-opacity:1;fill-rule:nonzero;stroke:none"
         id="path10713"
         inkscape:connector-curvature="0" />
    </g>
    <g
       id="g10715"
       transform="matrix(1.0803779,0,0,-1.0803757,34.768941,929.21025)">
      <path
         d="m 0,0 c 0,-0.198 0.113,-0.368 0.283,-0.368 0.171,0 0.312,0.17 0.312,0.368 0,0.227 -0.141,0.397 -0.312,0.397 C 0.113,0.397 0,0.227 0,0"
         style="fill:#ffffff;fill-opacity:1;fill-rule:nonzero;stroke:none"
         id="path10717"
         inkscape:connector-curvature="0" />
    </g>
    <g
       id="g10719"
       transform="matrix(1.0803779,0,0,-1.0803757,43.129554,890.22478)">
      <path
         d="m 0,0 c 0,-0.198 0.142,-0.369 0.312,-0.369 0.17,0 0.283,0.171 0.283,0.369 0,0.227 -0.113,0.397 -0.283,0.397 C 0.142,0.397 0,0.227 0,0"
         style="fill:#ffffff;fill-opacity:1;fill-rule:nonzero;stroke:none"
         id="path10721"
         inkscape:connector-curvature="0" />
    </g>
    <g
       id="g10723"
       transform="matrix(1.0803779,0,0,-1.0803757,31.247126,923.72843)">
      <path
         d="m 0,0 c 0,-0.198 0.142,-0.368 0.312,-0.368 0.17,0 0.312,0.17 0.312,0.368 0,0.198 -0.142,0.368 -0.312,0.368 C 0.142,0.368 0,0.198 0,0"
         style="fill:#ffffff;fill-opacity:1;fill-rule:nonzero;stroke:none"
         id="path10725"
         inkscape:connector-curvature="0" />
    </g>
    <g
       id="g10727"
       transform="matrix(1.0803779,0,0,-1.0803757,47.631376,948.8101)">
      <path
         d="m 0,0 c 0,-0.227 0.142,-0.368 0.312,-0.368 0.17,0 0.312,0.141 0.312,0.368 0,0.198 -0.142,0.368 -0.312,0.368 C 0.142,0.368 0,0.198 0,0"
         style="fill:#ffffff;fill-opacity:1;fill-rule:nonzero;stroke:none"
         id="path10729"
         inkscape:connector-curvature="0" />
    </g>
    <g
       id="g10731"
       transform="matrix(1.0803779,0,0,-1.0803757,31.522726,931.72148)">
      <path
         d="m 0,0 c 0,-0.198 0.142,-0.368 0.312,-0.368 0.17,0 0.283,0.17 0.283,0.368 0,0.198 -0.113,0.368 -0.283,0.368 C 0.142,0.368 0,0.198 0,0"
         style="fill:#ffffff;fill-opacity:1;fill-rule:nonzero;stroke:none"
         id="path10733"
         inkscape:connector-curvature="0" />
    </g>
    <g
       id="g10735"
       transform="matrix(1.0803779,0,0,-1.0803757,39.025846,944.5532)">
      <path
         d="m 0,0 0,0 c 0,-0.17 -0.085,-0.312 -0.227,-0.312 -0.141,0 -0.255,0.142 -0.255,0.312 0,0.17 0.114,0.312 0.255,0.312 C -0.085,0.312 0,0.17 0,0"
         style="fill:#ffffff;fill-opacity:1;fill-rule:nonzero;stroke:none"
         id="path10737"
         inkscape:connector-curvature="0" />
    </g>
    <g
       id="g10739"
       transform="matrix(1.0803779,0,0,-1.0803757,36.116492,989.08175)">
      <path
         d="m 0,0 c 0,-0.227 0.142,-0.397 0.312,-0.397 0.17,0 0.312,0.17 0.312,0.397 0,0.198 -0.142,0.368 -0.312,0.368 C 0.142,0.368 0,0.198 0,0"
         style="fill:#ffffff;fill-opacity:1;fill-rule:nonzero;stroke:none"
         id="path10741"
         inkscape:connector-curvature="0" />
    </g>
    <g
       id="g10743"
       transform="matrix(1.0803779,0,0,-1.0803757,34.309565,1000.6578)">
      <path
         d="m 0,0 c 0,-0.198 0.142,-0.368 0.312,-0.368 0.142,0 0.283,0.17 0.283,0.368 0,0.198 -0.141,0.397 -0.283,0.397 C 0.142,0.397 0,0.198 0,0"
         style="fill:#ffffff;fill-opacity:1;fill-rule:nonzero;stroke:none"
         id="path10745"
         inkscape:connector-curvature="0" />
    </g>
    <g
       id="g10747"
       transform="matrix(1.0803779,0,0,-1.0803757,33.513326,907.49719)">
      <path
         d="M 0,0 0,0 C 0,0.17 0.113,0.312 0.255,0.312 0.397,0.312 0.51,0.17 0.51,0 0.51,-0.17 0.397,-0.312 0.255,-0.312 0.113,-0.312 0,-0.17 0,0"
         style="fill:#ffffff;fill-opacity:1;fill-rule:nonzero;stroke:none"
         id="path10749"
         inkscape:connector-curvature="0" />
    </g>
    <g
       id="g10751"
       transform="matrix(1.0803779,0,0,-1.0803757,54.001397,877.82175)">
      <path
         d="m 0,0 c 0,-0.255 0.17,-0.482 0.397,-0.482 0.198,0 0.368,0.227 0.368,0.482 0,0.255 -0.17,0.482 -0.368,0.482 C 0.17,0.482 0,0.255 0,0"
         style="fill:#ffffff;fill-opacity:1;fill-rule:nonzero;stroke:none"
         id="path10753"
         inkscape:connector-curvature="0" />
    </g>
    <g
       id="g10755"
       transform="matrix(1.0803779,0,0,-1.0803757,18.690861,903.27097)">
      <path
         d="m 0,0 c 0,-0.198 0.142,-0.369 0.312,-0.369 0.17,0 0.283,0.171 0.283,0.369 0,0.198 -0.113,0.368 -0.283,0.368 C 0.142,0.368 0,0.198 0,0"
         style="fill:#ffffff;fill-opacity:1;fill-rule:nonzero;stroke:none"
         id="path10757"
         inkscape:connector-curvature="0" />
    </g>
    <g
       id="g10759"
       transform="matrix(1.0803779,0,0,-1.0803757,33.819609,997.19725)">
      <path
         d="m 0,0 c 0,-0.198 0.142,-0.368 0.312,-0.368 0.17,0 0.283,0.17 0.283,0.368 0,0.227 -0.113,0.397 -0.283,0.397 C 0.142,0.397 0,0.227 0,0"
         style="fill:#ffffff;fill-opacity:1;fill-rule:nonzero;stroke:none"
         id="path10761"
         inkscape:connector-curvature="0" />
    </g>
    <g
       id="g10763"
       transform="matrix(1.0803779,0,0,-1.0803757,40.55707,984.24295)">
      <path
         d="m 0,0 c 0,-0.198 0.142,-0.369 0.312,-0.369 0.17,0 0.312,0.171 0.312,0.369 0,0.227 -0.142,0.397 -0.312,0.397 C 0.142,0.397 0,0.227 0,0"
         style="fill:#ffffff;fill-opacity:1;fill-rule:nonzero;stroke:none"
         id="path10765"
         inkscape:connector-curvature="0" />
    </g>
    <g
       id="g10767"
       transform="matrix(1.0803779,0,0,-1.0803757,35.932725,874.88172)">
      <path
         d="m 0,0 c 0,-0.368 0.227,-0.652 0.51,-0.652 0.284,0 0.539,0.284 0.539,0.652 0,0.368 -0.255,0.652 -0.539,0.652 C 0.227,0.652 0,0.368 0,0"
         style="fill:#ffffff;fill-opacity:1;fill-rule:nonzero;stroke:none"
         id="path10769"
         inkscape:connector-curvature="0" />
    </g>
    <g
       id="g10771"
       transform="matrix(1.0803779,0,0,-1.0803757,136.53546,919.6553)">
      <path
         d="m 0,0 c 0,-0.283 0.17,-0.482 0.368,-0.482 0.227,0 0.397,0.199 0.397,0.482 0,0.255 -0.17,0.482 -0.397,0.482 C 0.17,0.482 0,0.255 0,0"
         style="fill:#ffffff;fill-opacity:1;fill-rule:nonzero;stroke:none"
         id="path10773"
         inkscape:connector-curvature="0" />
    </g>
    <g
       id="g10775"
       transform="matrix(1.0803779,0,0,-1.0803757,134.02424,941.33758)">
      <path
         d="m 0,0 c 0,-0.255 0.17,-0.482 0.368,-0.482 0.227,0 0.397,0.227 0.397,0.482 0,0.255 -0.17,0.482 -0.397,0.482 C 0.17,0.482 0,0.255 0,0"
         style="fill:#ffffff;fill-opacity:1;fill-rule:nonzero;stroke:none"
         id="path10777"
         inkscape:connector-curvature="0" />
    </g>
    <g
       id="g10779"
       transform="matrix(1.0803779,0,0,-1.0803757,92.221278,875.52487)">
      <path
         d="m 0,0 c 0,-0.198 0.113,-0.368 0.283,-0.368 0.171,0 0.312,0.17 0.312,0.368 0,0.198 -0.141,0.368 -0.312,0.368 C 0.113,0.368 0,0.198 0,0"
         style="fill:#ffffff;fill-opacity:1;fill-rule:nonzero;stroke:none"
         id="path10781"
         inkscape:connector-curvature="0" />
    </g>
    <g
       id="g10783"
       transform="matrix(1.0803779,0,0,-1.0803757,141.80295,959.65125)">
      <path
         d="m 0,0 c 0,-0.227 0.113,-0.397 0.283,-0.397 0.171,0 0.312,0.17 0.312,0.397 0,0.198 -0.141,0.369 -0.312,0.369 C 0.113,0.369 0,0.198 0,0"
         style="fill:#ffffff;fill-opacity:1;fill-rule:nonzero;stroke:none"
         id="path10785"
         inkscape:connector-curvature="0" />
    </g>
    <g
       id="g10787"
       transform="matrix(1.0803779,0,0,-1.0803757,144.34476,879.7205)">
      <path
         d="m 0,0 c 0,-0.198 0.142,-0.368 0.312,-0.368 0.17,0 0.312,0.17 0.312,0.368 0,0.227 -0.142,0.397 -0.312,0.397 C 0.142,0.397 0,0.227 0,0"
         style="fill:#ffffff;fill-opacity:1;fill-rule:nonzero;stroke:none"
         id="path10789"
         inkscape:connector-curvature="0" />
    </g>
    <g
       id="g10791"
       transform="matrix(1.0803779,0,0,-1.0803757,144.34476,949.39195)">
      <path
         d="m 0,0 c 0,-0.198 0.142,-0.368 0.312,-0.368 0.17,0 0.312,0.17 0.312,0.368 0,0.227 -0.142,0.397 -0.312,0.397 C 0.142,0.397 0,0.227 0,0"
         style="fill:#ffffff;fill-opacity:1;fill-rule:nonzero;stroke:none"
         id="path10793"
         inkscape:connector-curvature="0" />
    </g>
    <g
       id="g10795"
       transform="matrix(1.0803779,0,0,-1.0803757,149.42847,966.87875)">
      <path
         d="m 0,0 c 0,-0.198 0.142,-0.368 0.312,-0.368 0.17,0 0.283,0.17 0.283,0.368 0,0.198 -0.113,0.368 -0.283,0.368 C 0.142,0.368 0,0.198 0,0"
         style="fill:#ffffff;fill-opacity:1;fill-rule:nonzero;stroke:none"
         id="path10797"
         inkscape:connector-curvature="0" />
    </g>
    <g
       id="g10799"
       transform="matrix(1.0803779,0,0,-1.0803757,139.13852,938.88761)">
      <path
         d="m 0,0 0,0 c 0,-0.17 -0.113,-0.312 -0.255,-0.312 -0.113,0 -0.227,0.142 -0.227,0.312 0,0.17 0.114,0.312 0.227,0.312 C -0.113,0.312 0,0.17 0,0"
         style="fill:#ffffff;fill-opacity:1;fill-rule:nonzero;stroke:none"
         id="path10801"
         inkscape:connector-curvature="0" />
    </g>
    <g
       id="g10803"
       transform="matrix(1.0803779,0,0,-1.0803757,156.41096,974.56565)">
      <path
         d="m 0,0 c 0,-0.283 0.17,-0.482 0.368,-0.482 0.227,0 0.397,0.199 0.397,0.482 0,0.255 -0.17,0.482 -0.397,0.482 C 0.17,0.482 0,0.255 0,0"
         style="fill:#ffffff;fill-opacity:1;fill-rule:nonzero;stroke:none"
         id="path10805"
         inkscape:connector-curvature="0" />
    </g>
    <g
       id="g10807"
       transform="matrix(1.0803779,0,0,-1.0803757,52.010805,860.79438)">
      <path
         d="m 0,0 c 0,-0.255 0.17,-0.482 0.368,-0.482 0.227,0 0.397,0.227 0.397,0.482 0,0.255 -0.17,0.482 -0.397,0.482 C 0.17,0.482 0,0.255 0,0"
         style="fill:#ffffff;fill-opacity:1;fill-rule:nonzero;stroke:none"
         id="path10809"
         inkscape:connector-curvature="0" />
    </g>
    <g
       id="g10811"
       transform="matrix(1.0803779,0,0,-1.0803757,135.67797,949.66755)">
      <path
         d="m 0,0 c 0,-0.198 0.113,-0.368 0.283,-0.368 0.171,0 0.312,0.17 0.312,0.368 0,0.227 -0.141,0.397 -0.312,0.397 C 0.113,0.397 0,0.227 0,0"
         style="fill:#ffffff;fill-opacity:1;fill-rule:nonzero;stroke:none"
         id="path10813"
         inkscape:connector-curvature="0" />
    </g>
    <g
       id="g10815"
       transform="matrix(1.0803779,0,0,-1.0803757,161.28033,980.96615)">
      <path
         d="m 0,0 c 0,-0.198 0.113,-0.368 0.283,-0.368 0.171,0 0.312,0.17 0.312,0.368 0,0.227 -0.141,0.397 -0.312,0.397 C 0.113,0.397 0,0.227 0,0"
         style="fill:#ffffff;fill-opacity:1;fill-rule:nonzero;stroke:none"
         id="path10817"
         inkscape:connector-curvature="0" />
    </g>
    <g
       id="g10819"
       transform="matrix(1.0803779,0,0,-1.0803757,134.26915,974.96375)">
      <path
         d="m 0,0 c 0,-0.198 0.142,-0.368 0.312,-0.368 0.17,0 0.312,0.17 0.312,0.368 0,0.227 -0.142,0.397 -0.312,0.397 C 0.142,0.397 0,0.227 0,0"
         style="fill:#ffffff;fill-opacity:1;fill-rule:nonzero;stroke:none"
         id="path10821"
         inkscape:connector-curvature="0" />
    </g>
    <g
       id="g10823"
       transform="matrix(1.0803779,0,0,-1.0803757,161.28033,996.00305)">
      <path
         d="m 0,0 c 0,-0.227 0.113,-0.397 0.283,-0.397 0.171,0 0.312,0.17 0.312,0.397 0,0.198 -0.141,0.368 -0.312,0.368 C 0.113,0.368 0,0.198 0,0"
         style="fill:#ffffff;fill-opacity:1;fill-rule:nonzero;stroke:none"
         id="path10825"
         inkscape:connector-curvature="0" />
    </g>
    <g
       id="g10827"
       transform="matrix(1.0803779,0,0,-1.0803757,152.67479,964.27565)">
      <path
         d="m 0,0 c 0,-0.198 0.142,-0.368 0.312,-0.368 0.17,0 0.283,0.17 0.283,0.368 0,0.198 -0.113,0.368 -0.283,0.368 C 0.142,0.368 0,0.198 0,0"
         style="fill:#ffffff;fill-opacity:1;fill-rule:nonzero;stroke:none"
         id="path10829"
         inkscape:connector-curvature="0" />
    </g>
    <g
       id="g10831"
       transform="matrix(1.0803779,0,0,-1.0803757,62.637609,874.39177)">
      <path
         d="M 0,0 0,0 C 0,0.17 0.113,0.312 0.227,0.312 0.368,0.312 0.482,0.17 0.482,0 0.482,-0.17 0.368,-0.312 0.227,-0.312 0.113,-0.312 0,-0.17 0,0"
         style="fill:#ffffff;fill-opacity:1;fill-rule:nonzero;stroke:none"
         id="path10833"
         inkscape:connector-curvature="0" />
    </g>
    <g
       id="g10835"
       transform="matrix(1.0803779,0,0,-1.0803757,103.73617,894.17539)">
      <path
         d="m 0,0 c 0,-0.255 0.17,-0.482 0.368,-0.482 0.227,0 0.397,0.227 0.397,0.482 0,0.283 -0.17,0.482 -0.397,0.482 C 0.17,0.482 0,0.283 0,0"
         style="fill:#ffffff;fill-opacity:1;fill-rule:nonzero;stroke:none"
         id="path10837"
         inkscape:connector-curvature="0" />
    </g>
    <g
       id="g10839"
       transform="matrix(1.0803779,0,0,-1.0803757,73.264423,884.22232)">
      <path
         d="m 0,0 c 0,-0.255 0.17,-0.482 0.368,-0.482 0.227,0 0.397,0.227 0.397,0.482 0,0.283 -0.17,0.482 -0.397,0.482 C 0.17,0.482 0,0.283 0,0"
         style="fill:#ffffff;fill-opacity:1;fill-rule:nonzero;stroke:none"
         id="path10841"
         inkscape:connector-curvature="0" />
    </g>
    <g
       id="g10843"
       transform="matrix(1.0803779,0,0,-1.0803757,112.28054,882.07865)">
      <path
         d="m 0,0 c 0,-0.227 0.142,-0.397 0.312,-0.397 0.17,0 0.283,0.17 0.283,0.397 0,0.198 -0.113,0.369 -0.283,0.369 C 0.142,0.369 0,0.198 0,0"
         style="fill:#ffffff;fill-opacity:1;fill-rule:nonzero;stroke:none"
         id="path10845"
         inkscape:connector-curvature="0" />
    </g>
    <g
       id="g10847"
       transform="matrix(1.0803779,0,0,-1.0803757,143.70161,917.11339)">
      <path
         d="m 0,0 c 0,-0.198 0.113,-0.368 0.283,-0.368 0.171,0 0.312,0.17 0.312,0.368 0,0.227 -0.141,0.397 -0.312,0.397 C 0.113,0.397 0,0.227 0,0"
         style="fill:#ffffff;fill-opacity:1;fill-rule:nonzero;stroke:none"
         id="path10849"
         inkscape:connector-curvature="0" />
    </g>
    <g
       id="g10851"
       transform="matrix(1.0803779,0,0,-1.0803757,116.41493,883.73238)">
      <path
         d="m 0,0 c 0,-0.227 0.142,-0.368 0.312,-0.368 0.142,0 0.283,0.141 0.283,0.368 0,0.198 -0.141,0.368 -0.283,0.368 C 0.142,0.368 0,0.198 0,0"
         style="fill:#ffffff;fill-opacity:1;fill-rule:nonzero;stroke:none"
         id="path10853"
         inkscape:connector-curvature="0" />
    </g>
    <g
       id="g10855"
       transform="matrix(1.0803779,0,0,-1.0803757,142.53793,926.454)">
      <path
         d="m 0,0 c 0,-0.198 0.142,-0.368 0.312,-0.368 0.17,0 0.312,0.17 0.312,0.368 0,0.227 -0.142,0.368 -0.312,0.368 C 0.142,0.368 0,0.227 0,0"
         style="fill:#ffffff;fill-opacity:1;fill-rule:nonzero;stroke:none"
         id="path10857"
         inkscape:connector-curvature="0" />
    </g>
    <g
       id="g10859"
       transform="matrix(1.0803779,0,0,-1.0803757,93.293117,885.72297)">
      <path
         d="M 0,0 0,0 C 0,0.17 0.113,0.312 0.227,0.312 0.368,0.312 0.482,0.17 0.482,0 0.482,-0.17 0.368,-0.312 0.227,-0.312 0.113,-0.312 0,-0.17 0,0"
         style="fill:#ffffff;fill-opacity:1;fill-rule:nonzero;stroke:none"
         id="path10861"
         inkscape:connector-curvature="0" />
    </g>
    <g
       id="g10863"
       transform="matrix(1.0803779,0,0,-1.0803757,117.94616,862.72372)">
      <path
         d="m 0,0 c 0,-0.255 0.17,-0.482 0.397,-0.482 0.198,0 0.368,0.227 0.368,0.482 0,0.255 -0.17,0.482 -0.368,0.482 C 0.17,0.482 0,0.255 0,0"
         style="fill:#ffffff;fill-opacity:1;fill-rule:nonzero;stroke:none"
         id="path10865"
         inkscape:connector-curvature="0" />
    </g>
    <g
       id="g10867"
       transform="matrix(1.0803779,0,0,-1.0803757,126.79672,865.17368)">
      <path
         d="m 0,0 c 0,-0.255 0.17,-0.482 0.368,-0.482 0.227,0 0.397,0.227 0.397,0.482 0,0.255 -0.17,0.482 -0.397,0.482 C 0.17,0.482 0,0.255 0,0"
         style="fill:#ffffff;fill-opacity:1;fill-rule:nonzero;stroke:none"
         id="path10869"
         inkscape:connector-curvature="0" />
    </g>
    <g
       id="g10871"
       transform="matrix(1.0803779,0,0,-1.0803757,132.76861,866.27621)">
      <path
         d="m 0,0 c 0,-0.198 0.142,-0.369 0.283,-0.369 0.171,0 0.312,0.171 0.312,0.369 0,0.227 -0.141,0.397 -0.312,0.397 C 0.142,0.397 0,0.227 0,0"
         style="fill:#ffffff;fill-opacity:1;fill-rule:nonzero;stroke:none"
         id="path10873"
         inkscape:connector-curvature="0" />
    </g>
    <g
       id="g10875"
       transform="matrix(1.0803779,0,0,-1.0803757,94.824345,899.6879)">
      <path
         d="m 0,0 c 0,-0.227 0.142,-0.397 0.312,-0.397 0.17,0 0.312,0.17 0.312,0.397 0,0.198 -0.142,0.368 -0.312,0.368 C 0.142,0.368 0,0.198 0,0"
         style="fill:#ffffff;fill-opacity:1;fill-rule:nonzero;stroke:none"
         id="path10877"
         inkscape:connector-curvature="0" />
    </g>
    <g
       id="g10879"
       transform="matrix(1.0803779,0,0,-1.0803757,151.23541,883.273)">
      <path
         d="m 0,0 0,-0.028 c 0,-0.17 -0.113,-0.312 -0.255,-0.312 -0.142,0 -0.255,0.142 -0.255,0.312 0,0.17 0.113,0.311 0.255,0.311 C -0.113,0.283 0,0.17 0,0"
         style="fill:#ffffff;fill-opacity:1;fill-rule:nonzero;stroke:none"
         id="path10881"
         inkscape:connector-curvature="0" />
    </g>
    <g
       id="g10883"
       transform="matrix(1.0803779,0,0,-1.0803757,46.161414,945.16578)">
      <path
         d="m 0,0 c 0,-0.255 0.17,-0.482 0.368,-0.482 0.227,0 0.397,0.227 0.397,0.482 0,0.255 -0.17,0.482 -0.397,0.482 C 0.17,0.482 0,0.255 0,0"
         style="fill:#ffffff;fill-opacity:1;fill-rule:nonzero;stroke:none"
         id="path10885"
         inkscape:connector-curvature="0" />
    </g>
    <g
       id="g10887"
       transform="matrix(1.0803779,0,0,-1.0803757,111.05551,871.48243)">
      <path
         d="m 0,0 c 0,-0.283 0.198,-0.482 0.397,-0.482 0.198,0 0.368,0.199 0.368,0.482 0,0.255 -0.17,0.482 -0.368,0.482 C 0.198,0.482 0,0.255 0,0"
         style="fill:#ffffff;fill-opacity:1;fill-rule:nonzero;stroke:none"
         id="path10889"
         inkscape:connector-curvature="0" />
    </g>
    <g
       id="g10891"
       transform="matrix(1.0803779,0,0,-1.0803757,117.0274,872.58496)">
      <path
         d="m 0,0 c 0,-0.198 0.142,-0.368 0.312,-0.368 0.17,0 0.312,0.17 0.312,0.368 0,0.198 -0.142,0.368 -0.312,0.368 C 0.142,0.368 0,0.198 0,0"
         style="fill:#ffffff;fill-opacity:1;fill-rule:nonzero;stroke:none"
         id="path10893"
         inkscape:connector-curvature="0" />
    </g>
    <g
       id="g10895"
       transform="matrix(1.0803779,0,0,-1.0803757,63.280763,885.66171)">
      <path
         d="m 0,0 c 0,-0.198 0.142,-0.368 0.312,-0.368 0.17,0 0.312,0.17 0.312,0.368 0,0.198 -0.142,0.368 -0.312,0.368 C 0.142,0.368 0,0.198 0,0"
         style="fill:#ffffff;fill-opacity:1;fill-rule:nonzero;stroke:none"
         id="path10897"
         inkscape:connector-curvature="0" />
    </g>
    <g
       id="g10899"
       transform="matrix(1.0803779,0,0,-1.0803757,79.818107,874.57554)">
      <path
         d="m 0,0 c 0,-0.198 0.142,-0.368 0.312,-0.368 0.17,0 0.283,0.17 0.283,0.368 0,0.227 -0.113,0.397 -0.283,0.397 C 0.142,0.397 0,0.227 0,0"
         style="fill:#ffffff;fill-opacity:1;fill-rule:nonzero;stroke:none"
         id="path10901"
         inkscape:connector-curvature="0" />
    </g>
    <g
       id="g10903"
       transform="matrix(1.0803779,0,0,-1.0803757,141.06797,900.821)">
      <path
         d="m 0,0 c 0,-0.198 0.142,-0.368 0.312,-0.368 0.142,0 0.283,0.17 0.283,0.368 0,0.198 -0.141,0.368 -0.283,0.368 C 0.142,0.368 0,0.198 0,0"
         style="fill:#ffffff;fill-opacity:1;fill-rule:nonzero;stroke:none"
         id="path10905"
         inkscape:connector-curvature="0" />
    </g>
    <g
       id="g10907"
       transform="matrix(1.0803779,0,0,-1.0803757,146.79484,892.1848)">
      <path
         d="m 0,0 c 0,-0.198 0.142,-0.368 0.312,-0.368 0.142,0 0.283,0.17 0.283,0.368 0,0.227 -0.141,0.397 -0.283,0.397 C 0.142,0.397 0,0.227 0,0"
         style="fill:#ffffff;fill-opacity:1;fill-rule:nonzero;stroke:none"
         id="path10909"
         inkscape:connector-curvature="0" />
    </g>
    <g
       id="g10911"
       transform="matrix(1.0803779,0,0,-1.0803757,142.446,928.96521)">
      <path
         d="m 0,0 c 0,-0.227 0.142,-0.397 0.312,-0.397 0.17,0 0.312,0.17 0.312,0.397 0,0.198 -0.142,0.368 -0.312,0.368 C 0.142,0.368 0,0.198 0,0"
         style="fill:#ffffff;fill-opacity:1;fill-rule:nonzero;stroke:none"
         id="path10913"
         inkscape:connector-curvature="0" />
    </g>
    <g
       id="g10915"
       transform="matrix(1.0803779,0,0,-1.0803757,143.64046,888.14237)">
      <path
         d="m 0,0 c 0,-0.198 0.142,-0.368 0.312,-0.368 0.17,0 0.283,0.17 0.283,0.368 0,0.227 -0.113,0.397 -0.283,0.397 C 0.142,0.397 0,0.227 0,0"
         style="fill:#ffffff;fill-opacity:1;fill-rule:nonzero;stroke:none"
         id="path10917"
         inkscape:connector-curvature="0" />
    </g>
    <g
       id="g10919"
       transform="matrix(1.0803779,0,0,-1.0803757,59.973181,887.56048)">
      <path
         d="m 0,0 0,-0.028 c 0,-0.17 -0.113,-0.284 -0.255,-0.284 -0.142,0 -0.255,0.114 -0.255,0.284 0,0.17 0.113,0.311 0.255,0.311 C -0.113,0.283 0,0.17 0,0"
         style="fill:#ffffff;fill-opacity:1;fill-rule:nonzero;stroke:none"
         id="path10921"
         inkscape:connector-curvature="0" />
    </g>
    <g
       id="g10923"
       transform="matrix(1.0803779,0,0,-1.0803757,111.57614,923.759)">
      <path
         d="M 0,0 C 0,-0.34 0.227,-0.652 0.51,-0.652 0.794,-0.652 1.02,-0.34 1.02,0 1.02,0.369 0.794,0.652 0.51,0.652 0.227,0.652 0,0.369 0,0"
         style="fill:#ffffff;fill-opacity:1;fill-rule:nonzero;stroke:none"
         id="path10925"
         inkscape:connector-curvature="0" />
    </g>
    <g
       id="g10927"
       transform="matrix(1.0803779,0,0,-1.0803757,56.206336,890.65359)">
      <path
         d="m 0,0 0,-0.028 c 0,-0.142 -0.113,-0.284 -0.227,-0.284 -0.142,0 -0.255,0.142 -0.255,0.312 0,0.17 0.113,0.312 0.255,0.312 C -0.113,0.312 0,0.17 0,0"
         style="fill:#ffffff;fill-opacity:1;fill-rule:nonzero;stroke:none"
         id="path10929"
         inkscape:connector-curvature="0" />
    </g>
    <g
       id="g10931"
       transform="matrix(1.0803779,0,0,-1.0803757,46.314508,965.65385)">
      <path
         d="m 0,0 c 0,-0.255 0.17,-0.482 0.397,-0.482 0.198,0 0.368,0.227 0.368,0.482 0,0.283 -0.17,0.482 -0.368,0.482 C 0.17,0.482 0,0.283 0,0"
         style="fill:#ffffff;fill-opacity:1;fill-rule:nonzero;stroke:none"
         id="path10933"
         inkscape:connector-curvature="0" />
    </g>
    <g
       id="g10935"
       transform="matrix(1.0803779,0,0,-1.0803757,23.284628,1012.5709)">
      <path
         d="m 0,0 c 0,-0.255 0.17,-0.482 0.368,-0.482 0.227,0 0.397,0.227 0.397,0.482 0,0.283 -0.17,0.482 -0.397,0.482 C 0.17,0.482 0,0.283 0,0"
         style="fill:#ffffff;fill-opacity:1;fill-rule:nonzero;stroke:none"
         id="path10937"
         inkscape:connector-curvature="0" />
    </g>
    <g
       id="g10939"
       transform="matrix(1.0803779,0,0,-1.0803757,169.15099,1008.3754)">
      <path
         d="m 0,0 c 0,-0.227 0.142,-0.397 0.312,-0.397 0.17,0 0.312,0.17 0.312,0.397 0,0.198 -0.142,0.368 -0.312,0.368 C 0.142,0.368 0,0.198 0,0"
         style="fill:#ffffff;fill-opacity:1;fill-rule:nonzero;stroke:none"
         id="path10941"
         inkscape:connector-curvature="0" />
    </g>
    <g
       id="g10943"
       transform="matrix(1.0803779,0,0,-1.0803757,39.730141,865.78625)">
      <path
         d="m 0,0 c 0,-0.198 0.142,-0.368 0.283,-0.368 0.171,0 0.312,0.17 0.312,0.368 0,0.198 -0.141,0.368 -0.312,0.368 C 0.142,0.368 0,0.198 0,0"
         style="fill:#ffffff;fill-opacity:1;fill-rule:nonzero;stroke:none"
         id="path10945"
         inkscape:connector-curvature="0" />
    </g>
    <g
       id="g10947"
       transform="matrix(1.0803779,0,0,-1.0803757,63.341912,880.73109)">
      <path
         d="m 0,0 c 0,-0.198 0.142,-0.368 0.312,-0.368 0.17,0 0.312,0.17 0.312,0.368 0,0.198 -0.142,0.368 -0.312,0.368 C 0.142,0.368 0,0.198 0,0"
         style="fill:#ffffff;fill-opacity:1;fill-rule:nonzero;stroke:none"
         id="path10949"
         inkscape:connector-curvature="0" />
    </g>
    <g
       id="g10951"
       transform="matrix(1.0803779,0,0,-1.0803757,37.892634,877.36238)">
      <path
         d="m 0,0 c 0,-0.198 0.142,-0.368 0.312,-0.368 0.17,0 0.312,0.17 0.312,0.368 0,0.227 -0.142,0.397 -0.312,0.397 C 0.142,0.397 0,0.227 0,0"
         style="fill:#ffffff;fill-opacity:1;fill-rule:nonzero;stroke:none"
         id="path10953"
         inkscape:connector-curvature="0" />
    </g>
    <g
       id="g10955"
       transform="matrix(1.0803779,0,0,-1.0803757,132.86045,935.12077)">
      <path
         d="m 0,0 c 0,-0.227 0.142,-0.397 0.312,-0.397 0.17,0 0.312,0.17 0.312,0.397 0,0.198 -0.142,0.368 -0.312,0.368 C 0.142,0.368 0,0.198 0,0"
         style="fill:#ffffff;fill-opacity:1;fill-rule:nonzero;stroke:none"
         id="path10957"
         inkscape:connector-curvature="0" />
    </g>
    <g
       id="g10959"
       transform="matrix(1.0803779,0,0,-1.0803757,168.8447,993.15485)">
      <path
         d="M 0,0 0,0 C 0,0.17 0.113,0.312 0.227,0.312 0.368,0.312 0.482,0.17 0.482,0 0.482,-0.17 0.368,-0.312 0.227,-0.312 0.113,-0.312 0,-0.17 0,0"
         style="fill:#ffffff;fill-opacity:1;fill-rule:nonzero;stroke:none"
         id="path10961"
         inkscape:connector-curvature="0" />
    </g>
    <g
       id="g10963"
       transform="matrix(1.0803779,0,0,-1.0803757,46.283929,896.87039)">
      <path
         d="m 0,0 c 0,-0.34 0.255,-0.652 0.539,-0.652 0.283,0 0.51,0.312 0.51,0.652 0,0.368 -0.227,0.652 -0.51,0.652 C 0.255,0.652 0,0.368 0,0"
         style="fill:#ffffff;fill-opacity:1;fill-rule:nonzero;stroke:none"
         id="path10965"
         inkscape:connector-curvature="0" />
    </g>
    <g
       id="g10967"
       transform="matrix(1.0803779,0,0,-1.0803757,146.39672,908.56914)">
      <path
         d="m 0,0 -0.822,0.283 -0.68,-0.453 0.028,0.794 -0.68,0.482 0.822,0.226 0.283,0.737 L -0.567,1.417 0.283,1.389 -0.255,0.765 0,0 Z"
         style="fill:#ffffff;fill-opacity:1;fill-rule:nonzero;stroke:none"
         id="path10969"
         inkscape:connector-curvature="0" />
    </g>
    <g
       id="g10971"
       transform="matrix(1.0803779,0,0,-1.0803757,131.81918,871.60494)">
      <path
         d="m 0,0 -0.907,0.34 -0.794,-0.538 0.029,0.907 -0.766,0.567 0.936,0.226 0.311,0.851 L -0.652,1.616 0.312,1.587 -0.283,0.879 0,0 Z"
         style="fill:#ffffff;fill-opacity:1;fill-rule:nonzero;stroke:none"
         id="path10973"
         inkscape:connector-curvature="0" />
    </g>
    <g
       id="g10975"
       transform="matrix(1.0803779,0,0,-1.0803757,20.069,914.72468)">
      <path
         d="m 0,0 -0.907,0.34 -0.794,-0.538 0.029,0.907 -0.766,0.567 0.936,0.226 0.311,0.851 L -0.652,1.616 0.312,1.587 -0.283,0.879 0,0 Z"
         style="fill:#ffffff;fill-opacity:1;fill-rule:nonzero;stroke:none"
         id="path10977"
         inkscape:connector-curvature="0" />
    </g>
    <g
       id="g10979"
       transform="matrix(1.0803779,0,0,-1.0803757,102.8481,880.11863)">
      <path
         d="m 0,0 -0.907,0.34 -0.794,-0.538 0.057,0.907 -0.794,0.567 0.964,0.226 0.312,0.851 L -0.624,1.616 0.34,1.587 -0.283,0.879 0,0 Z"
         style="fill:#ffffff;fill-opacity:1;fill-rule:nonzero;stroke:none"
         id="path10981"
         inkscape:connector-curvature="0" />
    </g>
    <g
       id="g10983"
       transform="matrix(1.0803779,0,0,-1.0803757,90.322518,882.66043)">
      <path
         d="m 0,0 -0.539,0.198 -0.481,-0.311 0.028,0.538 -0.482,0.34 0.567,0.142 0.198,0.51 0.312,-0.453 0.595,0 L -0.17,0.539 0,0 Z"
         style="fill:#ffffff;fill-opacity:1;fill-rule:nonzero;stroke:none"
         id="path10985"
         inkscape:connector-curvature="0" />
    </g>
    <g
       id="g10987"
       transform="matrix(1.0803779,0,0,-1.0803757,179.07339,1023.0447)">
      <path
         d="m 0,0 c 0,-0.198 0.142,-0.368 0.312,-0.368 0.17,0 0.283,0.17 0.283,0.368 0,0.198 -0.113,0.397 -0.283,0.397 C 0.142,0.397 0,0.198 0,0"
         style="fill:#ffffff;fill-opacity:1;fill-rule:nonzero;stroke:none"
         id="path10989"
         inkscape:connector-curvature="0" />
    </g>
    <g
       id="g10991"
       transform="matrix(1.0803779,0,0,-1.0803757,176.62343,1012.8466)">
      <path
         d="m 0,0 c 0,-0.227 0.113,-0.397 0.283,-0.397 0.171,0 0.312,0.17 0.312,0.397 0,0.198 -0.141,0.369 -0.312,0.369 C 0.113,0.369 0,0.198 0,0"
         style="fill:#ffffff;fill-opacity:1;fill-rule:nonzero;stroke:none"
         id="path10993"
         inkscape:connector-curvature="0" />
    </g>
    <g
       id="g10995"
       transform="matrix(1.0803779,0,0,-1.0803757,176.2253,1020.8703)">
      <path
         d="m 0,0 c 0,-0.198 0.142,-0.368 0.312,-0.368 0.17,0 0.283,0.17 0.283,0.368 0,0.227 -0.113,0.397 -0.283,0.397 C 0.142,0.397 0,0.227 0,0"
         style="fill:#ffffff;fill-opacity:1;fill-rule:nonzero;stroke:none"
         id="path10997"
         inkscape:connector-curvature="0" />
    </g>
    <g
       id="g10999"
       transform="matrix(1.0803779,0,0,-1.0803757,179.07339,1027.3933)">
      <path
         d="m 0,0 c 0,-0.227 0.142,-0.397 0.312,-0.397 0.17,0 0.283,0.17 0.283,0.397 0,0.198 -0.113,0.368 -0.283,0.368 C 0.142,0.368 0,0.198 0,0"
         style="fill:#ffffff;fill-opacity:1;fill-rule:nonzero;stroke:none"
         id="path11001"
         inkscape:connector-curvature="0" />
    </g>
    <g
       id="g11003"
       transform="matrix(1.0803779,0,0,-1.0803757,184.03471,1028.1283)">
      <path
         d="m 0,0 c 0,-0.227 0.142,-0.368 0.312,-0.368 0.17,0 0.312,0.141 0.312,0.368 0,0.198 -0.142,0.369 -0.312,0.369 C 0.142,0.369 0,0.198 0,0"
         style="fill:#ffffff;fill-opacity:1;fill-rule:nonzero;stroke:none"
         id="path11005"
         inkscape:connector-curvature="0" />
    </g>
    <g
       id="g11007"
       transform="matrix(1.0803779,0,0,-1.0803757,188.62837,1039.1226)">
      <path
         d="m 0,0 c 0,-0.227 0.142,-0.397 0.312,-0.397 0.17,0 0.312,0.17 0.312,0.397 0,0.198 -0.142,0.369 -0.312,0.369 C 0.142,0.369 0,0.198 0,0"
         style="fill:#ffffff;fill-opacity:1;fill-rule:nonzero;stroke:none"
         id="path11009"
         inkscape:connector-curvature="0" />
    </g>
    <g
       id="g11011"
       transform="matrix(1.0803779,0,0,-1.0803757,23.713331,1028.1283)">
      <path
         d="m 0,0 c 0,-0.227 0.113,-0.368 0.283,-0.368 0.171,0 0.312,0.141 0.312,0.368 0,0.198 -0.141,0.369 -0.312,0.369 C 0.113,0.369 0,0.198 0,0"
         style="fill:#ffffff;fill-opacity:1;fill-rule:nonzero;stroke:none"
         id="path11013"
         inkscape:connector-curvature="0" />
    </g>
    <g
       id="g11015"
       transform="matrix(1.0803779,0,0,-1.0803757,15.230308,1042.767)">
      <path
         d="m 0,0 c 0,-0.227 0.142,-0.397 0.312,-0.397 0.17,0 0.283,0.17 0.283,0.397 0,0.198 -0.113,0.369 -0.283,0.369 C 0.142,0.369 0,0.198 0,0"
         style="fill:#ffffff;fill-opacity:1;fill-rule:nonzero;stroke:none"
         id="path11017"
         inkscape:connector-curvature="0" />
    </g>
    <g
       id="g11019"
       transform="matrix(1.0803779,0,0,-1.0803757,12.382215,1044.9414)">
      <path
         d="m 0,0 c 0,-0.227 0.142,-0.397 0.312,-0.397 0.17,0 0.312,0.17 0.312,0.397 0,0.198 -0.142,0.368 -0.312,0.368 C 0.142,0.368 0,0.198 0,0"
         style="fill:#ffffff;fill-opacity:1;fill-rule:nonzero;stroke:none"
         id="path11021"
         inkscape:connector-curvature="0" />
    </g>
    <g
       id="g11023"
       transform="matrix(1.0803779,0,0,-1.0803757,15.93461,1039.0307)">
      <path
         d="m 0,0 c 0,-0.227 0.142,-0.397 0.312,-0.397 0.17,0 0.312,0.17 0.312,0.397 0,0.198 -0.142,0.369 -0.312,0.369 C 0.142,0.369 0,0.198 0,0"
         style="fill:#ffffff;fill-opacity:1;fill-rule:nonzero;stroke:none"
         id="path11025"
         inkscape:connector-curvature="0" />
    </g>
    <g
       id="g11027"
       transform="matrix(1.0803779,0,0,-1.0803757,123.06045,873.38119)">
      <path
         d="m 0,0 c 25.54,-33.732 7.398,-76.054 -33.222,-77.981 -1.531,-0.057 -3.373,0.085 -4.847,0.198 -38.58,2.977 -54.312,41.074 -28.829,76.989 -3.798,-25.115 15.619,-29.82 34.158,-25.512 C -16.299,-22.507 -3.232,-23.868 0,0"
         style="fill:#7c0000;fill-opacity:1;fill-rule:nonzero;stroke:none"
         id="path11029"
         inkscape:connector-curvature="0" />
    </g>
    <g
       id="g11031"
       transform="matrix(1.0803779,0,0,-1.0803757,45.977646,927.18898)">
      <path
         d="M 0,0 C -0.595,1.531 14.428,-6.973 11.991,-7.937 9.269,-9.014 -7.228,20.665 -1.531,15.846 c 1.304,-1.106 14.06,1.53 16.016,6.037 1.616,3.686 61.398,10.8 63.61,7.597 0,-4.79 -5.953,-18.397 -8.249,-23.017 -4.649,-9.383 6.86,1.219 7.795,4.961 C 77.698,11.565 74.835,-11.168 54.34,-18.879 31.436,-27.496 10.658,-27.78 0,0"
         style="fill:#c63737;fill-opacity:1;fill-rule:nonzero;stroke:none"
         id="path11033"
         inkscape:connector-curvature="0" />
    </g>
    <g
       id="g11035"
       transform="matrix(1.0803779,0,0,-1.0803757,63.035733,943.72639)">
      <path
         d="m 0,0 c -1.502,2.296 -3.033,4.535 -4.422,7.087 -4.394,7.965 -9.695,12.699 -5.556,20.693 0.964,1.87 1.502,3.486 2.268,5.215 -1.247,-0.737 -0.879,-0.17 -1.673,-1.36 -2.182,-0.454 -4.478,-0.567 -6.718,-1.361 -0.368,-0.142 -5.471,-1.474 -7.512,-1.644 -4.223,-0.34 -13.719,-1.644 -14.57,2.806 0.936,1.474 3.147,1.758 4.933,2.381 5.584,1.871 10.686,4.111 15.874,6.718 3.401,1.73 6.293,3.912 10.204,4.848 6.633,1.587 8.561,-2.098 10.375,-3.203 5.273,1.927 9.695,2.267 14.967,3.77 4.224,-0.256 9.808,0.68 14.627,0.453 l 0.964,0.879 c 1.53,1.644 1.842,3.997 6.718,5.301 2.012,0.538 17.915,0.623 22.96,1.02 2.58,0.227 9.44,1.871 11.112,0.624 1.531,-2.523 -5.159,-6.492 -7.937,-7.767 -4.082,-1.899 -8.901,-2.381 -10.006,-6.435 -2.325,-0.482 -4.932,0.907 -7.342,1.332 0.567,-1.332 2.041,-3.543 2.891,-4.818 1.021,-1.503 2.183,-3.232 2.07,-5.273 l 0,-3.912 C 49.946,8.674 49.096,-11.48 30.728,-15.137 11.452,-18.964 9.496,-14.428 0,0"
         style="fill:#7699ad;fill-opacity:1;fill-rule:nonzero;stroke:none"
         id="path11037"
         inkscape:connector-curvature="0" />
    </g>
    <g
       id="g11039"
       transform="matrix(1.0803779,0,0,-1.0803757,52.255722,913.7141)">
      <path
         d="m 0,0 c -4.139,-7.994 1.162,-12.728 5.556,-20.693 1.389,-2.551 2.92,-4.79 4.422,-7.087 1.219,-1.87 3.231,-6.604 4.677,-7.483 11.962,2.523 23.613,25.739 17.688,32.627 -6.094,29.792 -3.912,14.967 -4.167,20.381 0,0.142 0,0.283 -0.028,0.425 -5.272,-1.502 -9.694,-1.842 -14.967,-3.77 -1.814,1.106 -3.713,5.046 -10.346,3.458 -3.884,-0.935 -6.917,-3.316 -10.29,-5.017 -5.216,-2.636 -10.29,-4.734 -15.874,-6.633 -1.786,-0.595 -3.94,-1.077 -4.876,-2.551 0.851,-4.451 10.347,-3.317 14.599,-2.977 0.51,0.029 1.332,-0.056 2.211,-0.028 C -5.528,0.794 0.737,2.409 0,0"
         style="fill:#527492;fill-opacity:1;fill-rule:nonzero;stroke:none"
         id="path11041"
         inkscape:connector-curvature="0" />
    </g>
    <g
       id="g11043"
       transform="matrix(1.0803779,0,0,-1.0803757,83.033744,895.06357)">
      <path
         d="m 0,0 c 0.822,-6.917 3.005,-15.307 4.309,-22.309 0.283,-1.36 0.482,-2.636 0.567,-3.855 0.765,-9.468 -10.574,-23.697 -19.219,-23.981 -1.758,-0.057 0.085,-2.466 2.381,-5.953 1.927,-2.948 4.677,-2.778 5.584,-5.612 1.843,1.02 0.227,2.466 2.353,3.543 1.644,0.85 2.353,0.312 3.94,1.559 0.142,1.928 -0.595,2.069 -1.389,3.203 -2.665,1.871 -1.956,3.033 0.17,5.329 3.033,3.232 11.934,5.159 16.469,4.706 4.337,-0.454 4.139,-0.425 6.378,-0.936 3.147,2.183 2.637,3.26 5.273,3.629 5.584,0.794 2.041,2.012 -0.879,2.154 -2.381,0.142 -5.102,-0.397 -6.548,0.142 2.154,0.709 2.92,1.049 5.499,1.389 2.551,0.312 3.345,0.17 4.706,1.927 0.056,4.933 -6.237,3.062 -9.043,1.758 -4.507,-2.098 -3.713,-4.394 -8.164,0.482 -2.834,3.118 -7.54,13.634 -7.058,19.757 2.891,-0.397 4.11,-9.496 7.909,-11.849 1.502,-0.935 3.033,1.758 4.592,3.771 14.853,18.935 12.217,-3.629 15.024,5.952 C 34.668,-9.099 20.296,1.644 17.972,1.276 10.091,4.195 10.12,1.843 0,0"
         style="fill:#e7f2f0;fill-opacity:1;fill-rule:nonzero;stroke:none"
         id="path11045"
         inkscape:connector-curvature="0" />
    </g>
    <g
       id="g11047"
       transform="matrix(1.0803779,0,0,-1.0803757,99.509944,892.64418)">
      <path
         d="m 0,0 c 2.154,-0.907 2.948,-1.956 6.208,-3.997 1.871,-1.19 4.309,-2.92 5.612,-4.138 5.641,-3.827 7.569,-9.808 8.419,-12.898 2.41,8.646 -2.891,13.011 -4.733,15.109 2.409,-0.426 5.3,-2.92 7.625,-2.467 1.105,4.054 5.641,5.67 9.723,7.569 2.778,1.276 9.467,5.244 7.937,7.767 C 39.118,8.192 32.258,6.69 29.679,6.491 24.633,6.066 8.561,6.038 6.548,5.528 1.672,4.224 0.765,1.644 0,0"
         style="fill:#527492;fill-opacity:1;fill-rule:nonzero;stroke:none"
         id="path11049"
         inkscape:connector-curvature="0" />
    </g>
    <g
       id="g11051"
       transform="matrix(1.0803779,0,0,-1.0803757,142.35416,885.99857)">
      <path
         d="m 0,0 -20.693,-1.191 c -3.373,-0.17 -6.945,0.199 -10.403,-0.34 -2.41,-0.368 -7.54,-1.871 -6.18,-4.535 1.616,-3.118 15.733,0.567 19.389,1.105 C -12.416,-4.195 -2.154,-4.876 0,0"
         style="fill:#7699ad;fill-opacity:1;fill-rule:nonzero;stroke:none"
         id="path11053"
         inkscape:connector-curvature="0" />
    </g>
    <g
       id="g11055"
       transform="matrix(1.0803779,0,0,-1.0803757,23.10086,909.4572)">
      <path
         d="m 0,0 c 1.644,-2.806 7.087,-0.369 9.609,0.34 3.26,0.936 6.463,1.956 9.752,2.977 3.345,1.048 18.368,4.337 16.327,8.475 C 33.534,16.157 21.033,8.504 18.198,7.087 12.331,4.139 6.633,1.928 0,0"
         style="fill:#7699ad;fill-opacity:1;fill-rule:nonzero;stroke:none"
         id="path11057"
         inkscape:connector-curvature="0" />
    </g>
    <g
       id="g11059"
       transform="matrix(1.0803779,0,0,-1.0803757,66.067593,938.52018)">
      <path
         d="M 0,0 C 7.2,-2.806 12.841,1.928 12.954,8.731 8.646,10.148 7.71,12.076 3.855,14.088 -0.028,11.82 -2.296,5.499 0,0"
         style="fill:#c63737;fill-opacity:1;fill-rule:nonzero;stroke:none"
         id="path11061"
         inkscape:connector-curvature="0" />
    </g>
    <g
       id="g11063"
       transform="matrix(1.0803779,0,0,-1.0803757,66.067593,938.52018)">
      <path
         d="m 0,0 c -1.474,5.244 0.425,12.643 4.904,13.521 -0.85,0.766 -4.989,4.025 -6.095,4.848 -1.275,0.935 -3.061,-2.523 -4.025,-5.613 C -5.584,11.565 -5.811,10.403 -5.868,9.609 -6.123,5.754 -4.139,1.899 0,0"
         style="fill:#ff9898;fill-opacity:1;fill-rule:nonzero;stroke:none"
         id="path11065"
         inkscape:connector-curvature="0" />
    </g>
    <g
       id="g11067"
       transform="matrix(1.0803779,0,0,-1.0803757,111.75991,927.18898)">
      <path
         d="m 0,0 c -0.198,1.502 -0.454,2.523 -1.106,3.742 -0.765,1.417 -1.955,2.749 -3.401,3.43 -1.984,-2.41 -5.839,-5.386 -9.695,-6.803 0.879,-1.73 2.495,-3.062 3.685,-4.167 C -6.803,-2.211 -7.342,-0.709 0,0"
         style="fill:#c63737;fill-opacity:1;fill-rule:nonzero;stroke:none"
         id="path11069"
         inkscape:connector-curvature="0" />
    </g>
    <g
       id="g11071"
       transform="matrix(1.0803779,0,0,-1.0803757,106.89054,919.44085)">
      <path
         d="m 0,0 c 1.162,-0.567 1.559,-0.992 2.466,-2.013 0,0 0.879,-1.304 0.936,-1.417 0.652,-1.219 0.907,-2.239 1.105,-3.742 l 2.466,0.029 C 8.079,-4.592 8.617,-1.276 7.795,1.446 7.682,1.871 7.625,2.438 7.427,2.806 7.313,3.061 7.058,3.175 6.888,3.402 6.718,3.657 6.52,3.742 6.293,3.969 6.066,4.195 5.641,4.054 5.357,4.252 L 2.126,3.543 0,0 Z"
         style="fill:#ff9898;fill-opacity:1;fill-rule:nonzero;stroke:none"
         id="path11073"
         inkscape:connector-curvature="0" />
    </g>
    <g
       id="g11075"
       transform="matrix(1.0803779,0,0,-1.0803757,134.42235,918.61404)">
      <path
         d="M 0,0 Z"
         style="fill:#ede9f2;fill-opacity:1;fill-rule:evenodd;stroke:none"
         id="path11077"
         inkscape:connector-curvature="0" />
    </g>
    <g
       id="g11079"
       transform="matrix(1.0803779,0,0,-1.0803757,91.486301,938.21389)">
      <path
         d="M 0,0 C 6.009,1.049 11.112,0.198 11.424,-1.871 11.735,-3.94 8.362,-7.228 2.381,-8.277 -3.628,-9.298 -9.978,-7.682 -10.29,-5.613 -10.573,-3.543 -5.981,-1.049 0,0"
         style="fill:#000000;fill-opacity:1;fill-rule:nonzero;stroke:none"
         id="path11081"
         inkscape:connector-curvature="0" />
    </g>
    <g
       id="g11083"
       transform="matrix(1.0803779,0,0,-1.0803757,76.694406,930.68021)">
      <path
         d="M 0,0 C 0.794,-0.057 1.389,-0.794 1.332,-1.616 1.247,-2.438 0.539,-3.061 -0.255,-3.005 -1.049,-2.92 -1.644,-2.183 -1.587,-1.361 -1.531,-0.539 -0.822,0.085 0,0"
         style="fill:#000000;fill-opacity:1;fill-rule:evenodd;stroke:none"
         id="path11085"
         inkscape:connector-curvature="0" />
    </g>
    <g
       id="g11087"
       transform="matrix(1.0803779,0,0,-1.0803757,100.97991,926.454)">
      <path
         d="M 0,0 C 0.794,-0.085 1.389,-0.794 1.332,-1.644 1.247,-2.466 0.567,-3.09 -0.255,-3.005 -1.049,-2.948 -1.644,-2.211 -1.587,-1.389 -1.502,-0.539 -0.794,0.057 0,0"
         style="fill:#000000;fill-opacity:1;fill-rule:evenodd;stroke:none"
         id="path11089"
         inkscape:connector-curvature="0" />
    </g>
    <g
       id="g11091"
       transform="matrix(1.0803779,0,0,-1.0803757,137.60731,954.38375)">
      <path
         d="m 0,0 c -8.192,10.148 -11.169,13.861 -17.376,13.861 -6.18,0 -45.865,-7.738 -51.251,-10.459 -5.414,-2.693 -18.538,-36.567 -18.538,-36.567 0,0 -13.295,-27.1 -22.337,-55.474 l 149.187,0 1.276,8.844 C 23.216,-48.529 5.613,-6.917 0,0"
         style="fill:#000000;fill-opacity:1;fill-rule:evenodd;stroke:none"
         id="path11093"
         inkscape:connector-curvature="0" />
    </g>
    <g
       id="g11095"
       transform="matrix(1.0803779,0,0,-1.0803757,75.928747,950.70885)">
      <path
         d="m 0,0 c 0.539,0.198 1.134,0.567 1.672,0.567 5.471,1.105 11.481,3.345 15.534,-0.369 2.211,-2.069 -6.661,-42.604 -8.447,-53.546 5.443,11.679 12.784,35.887 17.036,47.962 9.496,9.156 3.232,-51.704 3.09,-60.973 2.183,10.035 8.617,64.942 9.071,64.573 0.879,-0.623 20.608,-36.34 21.572,-37.077 -0.851,3.883 -7.2,26.164 -7.314,30.274 2.721,-3.345 18.681,-23.159 20.948,-26.872 0.652,-1.163 1.361,-2.24 2.07,-3.289 C 66.869,-21.487 60.18,-7.2 57.09,-3.402 48.898,6.746 46.261,11.225 40.082,11.225 33.902,11.225 -6.151,2.721 -11.537,0 c -0.652,-0.312 -1.446,-1.106 -2.268,-2.239 3.345,0.481 6.747,0.34 10.262,1.133 C -2.268,-0.935 -1.162,-0.567 0,0"
         style="fill:#303638;fill-opacity:1;fill-rule:nonzero;stroke:none"
         id="path11097"
         inkscape:connector-curvature="0" />
    </g>
    <g
       id="g11099"
       transform="matrix(1.0803779,0,0,-1.0803757,114.17931,947.89135)">
      <path
         d="m 0,0 c 0.964,-0.737 0.368,-3.515 0.283,-5.386 1.219,2.438 2.949,7.994 5.16,6.321 4.337,-3.146 5.244,-9.099 8.475,-13.549 -1.02,5.017 -3.033,9.468 -4.649,14.116 8.844,-5.017 12.473,-15.222 18.567,-23.215 0.794,-1.163 1.673,-2.268 2.636,-3.232 -4.308,8.759 -7.653,15.279 -9.581,17.66 C 12.699,2.863 10.063,7.342 3.883,7.342 1.389,7.342 -6.775,5.329 -15.591,3.685 -12.444,2.948 -9.298,2.154 -6.265,0.765 -4.45,-0.17 -1.247,1.134 0,0"
         style="fill:#414e53;fill-opacity:1;fill-rule:nonzero;stroke:none"
         id="path11101"
         inkscape:connector-curvature="0" />
    </g>
    <g
       id="g11103"
       transform="matrix(1.0803779,0,0,-1.0803757,169.67163,1017.7772)">
      <path
         d="m 0,0 c -0.227,-5.017 2.58,-11.594 -1.332,-15.165 -1.276,-1.276 -6.718,3.515 -7.512,5.187 -2.013,3.742 -3.572,7.115 -5.386,10.828 -0.057,0.17 -0.142,0.341 -0.227,0.511 -2.891,5.754 -16.951,36.822 -20.012,41.47 0.425,-2.04 18.17,-57.288 13.691,-61.171 -2.409,-2.041 -19.191,24.718 -25.257,31.776 1.559,-11.14 -2.863,-33.477 -6.066,-35.886 -0.397,-0.369 -1.672,18.141 -2.551,27.807 -0.198,3.544 1.191,21.374 0.822,24.889 -0.482,-10.574 -11.197,-59.159 -15.052,-60.208 l 85.125,0 -3.686,9.127 C 8.731,-14.117 3.685,-7.2 0,0"
         style="fill:#303638;fill-opacity:1;fill-rule:nonzero;stroke:none"
         id="path11105"
         inkscape:connector-curvature="0" />
    </g>
    <g
       id="g11107"
       transform="matrix(1.0803779,0,0,-1.0803757,144.37544,1003.2916)">
      <path
         d="m 0,0 c 7.739,-21.912 19.077,-42.888 19.049,-42.917 -0.085,-0.056 -1.984,4.933 -5.443,12.756 -3.43,7.824 -30.444,74.977 -30.359,75.033 C -16.724,44.901 -5.329,11.906 0,0"
         style="fill:#414e53;fill-opacity:1;fill-rule:nonzero;stroke:none"
         id="path11109"
         inkscape:connector-curvature="0" />
    </g>
    <g
       id="g11111"
       transform="matrix(1.0803779,0,0,-1.0803757,110.96367,1012.3566)">
      <path
         d="M 0,0 C -0.624,29.424 5.301,53.773 4.961,53.717 5.046,53.802 -6.661,9.78 0.992,-34.98 l 2.268,0 C 2.239,-25.739 0.425,-13.635 0,0"
         style="fill:#414e53;fill-opacity:1;fill-rule:nonzero;stroke:none"
         id="path11113"
         inkscape:connector-curvature="0" />
    </g>
    <g
       id="g11115"
       transform="matrix(1.0803779,0,0,-1.0803757,155.58415,989.02045)">
      <path
         d="m 0,0 c -0.34,-0.17 6.463,-16.98 16.072,-34.129 2.892,-5.273 8.249,-18.142 10.687,-22.451 l 5.386,-0.198 C 21.827,-43.115 -0.085,-0.057 0,0"
         style="fill:#414e53;fill-opacity:1;fill-rule:nonzero;stroke:none"
         id="path11117"
         inkscape:connector-curvature="0" />
    </g>
    <g
       id="g11119"
       transform="matrix(1.0803779,0,0,-1.0803757,77.950022,1046.7176)">
      <path
         d="m 0,0 c 1.446,8.844 4.422,21.033 7.257,34.498 3.061,13.436 6.576,25.54 8.957,34.327 2.41,8.759 3.799,14.202 3.742,14.202 C 19.899,83.055 18.397,77.613 15.902,68.854 13.436,60.094 9.865,48.019 6.803,34.526 3.969,21.061 1.049,8.901 -0.34,0.028 -0.51,-1.105 -0.68,-2.183 -0.822,-3.175 l 0.312,0 C -0.368,-2.183 -0.198,-1.105 0,0"
         style="fill:#414e53;fill-opacity:1;fill-rule:nonzero;stroke:none"
         id="path11121"
         inkscape:connector-curvature="0" />
    </g>
    <g
       id="g11123"
       transform="matrix(1.0803779,0,0,-1.0803757,69.956954,1042.767)">
      <path
         d="m 0,0 c 4.28,15.25 8.419,27.553 8.107,27.581 0.057,0 -4.252,-12.217 -8.532,-27.524 -0.567,-2.381 -1.134,-4.706 -1.673,-6.888 l 0.454,0 C -1.105,-4.649 -0.539,-2.353 0,0"
         style="fill:#414e53;fill-opacity:1;fill-rule:nonzero;stroke:none"
         id="path11125"
         inkscape:connector-curvature="0" />
    </g>
    <g
       id="g11127"
       transform="matrix(1.0803779,0,0,-1.0803757,136.50478,1045.0332)">
      <path
         d="m 0,0 c -1.417,7.512 -3.94,13.776 -5.754,18.255 -1.843,4.479 -3.033,7.228 -3.09,7.2 -0.057,-0.028 1.02,-2.835 2.778,-7.37 1.729,-4.535 5.868,-19.474 4.45,-22.819 l 2.268,0 C 0.482,-3.203 0.255,-1.616 0,0"
         style="fill:#414e53;fill-opacity:1;fill-rule:nonzero;stroke:none"
         id="path11129"
         inkscape:connector-curvature="0" />
    </g>
    <g
       id="g11131"
       transform="matrix(1.0803779,0,0,-1.0803757,138.8936,992.94045)">
      <path
         d="m 0,0 0.028,1.871 c 0.029,1.36 0.029,2.636 0.057,3.827 0,1.275 0.028,2.409 0.028,3.458 l 0,2.948 0,3.798 0,0.142 c 0,0.879 0.114,1.701 0.397,2.523 0.312,0.907 0.794,1.729 1.446,2.438 0.482,0.567 1.049,1.049 1.644,1.474 0.624,0.453 1.247,0.793 1.899,1.049 0.709,0.283 1.361,0.453 2.041,0.538 0.737,0.085 1.446,0.057 2.126,-0.113 1.106,-0.284 1.956,-0.851 2.523,-1.701 0.624,-0.907 0.822,-1.956 0.624,-3.09 0,-0.17 -0.029,-0.453 -0.085,-0.879 l 0,-0.028 C 12.671,17.546 12.614,16.894 12.586,16.243 12.444,14.457 12.331,12.444 12.217,10.148 12.161,8.844 12.104,7.569 12.047,6.293 L 12.019,5.528 c 0.17,0.425 0.425,0.793 0.709,1.162 0.51,0.623 1.19,1.162 1.984,1.587 0.623,0.312 1.247,0.567 1.899,0.794 0.652,0.198 1.332,0.34 2.013,0.425 0.737,0.085 1.445,0.085 2.097,-0.028 C 21.487,9.354 22.167,9.156 22.819,8.816 23.924,8.249 24.661,7.37 25.002,6.208 25.285,5.216 25.2,4.167 24.746,3.09 l 0,-0.029 C 24.463,2.381 24.066,1.672 23.556,0.935 23.102,0.283 22.564,-0.368 21.94,-1.02 21.373,-1.587 20.806,-2.154 20.268,-2.693 l -0.227,-0.198 0.057,-0.057 c 1.389,-0.935 1.984,-2.353 1.814,-4.309 l 0.17,0.426 c 0.482,1.332 0.907,2.381 1.275,3.203 0.227,0.567 0.511,1.077 0.879,1.53 0.454,0.539 0.964,0.964 1.559,1.248 0.482,0.226 0.964,0.396 1.446,0.482 0.567,0.085 1.134,0.056 1.672,-0.086 0.624,-0.141 1.163,-0.425 1.644,-0.822 0.482,-0.396 0.851,-0.907 1.134,-1.502 0.284,-0.652 0.397,-1.361 0.34,-2.126 -0.056,-0.567 -0.198,-1.105 -0.425,-1.672 l -0.028,-0.057 c -0.142,-0.397 -0.34,-0.935 -0.567,-1.559 -0.17,-0.51 -0.454,-1.276 -0.85,-2.353 -0.312,-0.907 -0.681,-1.871 -1.078,-2.891 -0.368,-0.879 -0.793,-1.843 -1.275,-2.892 -0.51,-1.048 -1.021,-2.04 -1.588,-2.948 -0.623,-0.992 -1.247,-1.87 -1.899,-2.693 -1.644,-2.04 -3.571,-3.288 -5.754,-3.713 -0.113,-0.028 -0.199,-0.028 -0.312,-0.057 -1.219,-0.198 -2.296,-0.17 -3.288,0.085 -1.276,0.341 -2.324,0.993 -3.147,2.013 -0.17,0.17 -0.311,0.369 -0.453,0.567 0.028,-0.369 0.028,-0.737 0.057,-1.077 l 0,-0.142 c 0,-0.879 -0.17,-1.701 -0.511,-2.438 -0.368,-0.822 -0.907,-1.502 -1.615,-2.041 -0.085,-0.056 -0.142,-0.113 -0.227,-0.17 -1.049,-0.737 -2.211,-1.162 -3.487,-1.247 -1.445,-0.113 -2.778,0.198 -3.94,0.964 l -0.028,0.028 0,-0.028 c -0.794,0.538 -1.389,1.219 -1.786,2.097 -0.028,0.085 -0.057,0.171 -0.085,0.227 -0.142,0.34 -0.255,0.652 -0.312,0.992 -0.68,-0.567 -1.446,-1.105 -2.268,-1.615 -0.878,-0.539 -1.814,-0.964 -2.778,-1.276 -0.992,-0.312 -2.012,-0.51 -3.061,-0.567 -0.057,-0.028 -0.142,-0.028 -0.198,-0.028 -1.389,-0.057 -2.665,0.113 -3.827,0.51 -1.304,0.454 -2.41,1.162 -3.345,2.154 -0.085,-0.113 -0.142,-0.198 -0.227,-0.312 -0.624,-0.793 -1.304,-1.445 -2.041,-2.04 -0.567,-0.454 -1.19,-0.794 -1.842,-1.049 -0.652,-0.227 -1.333,-0.369 -2.07,-0.397 -0.623,-0.028 -1.247,0.028 -1.842,0.142 -0.595,0.113 -1.191,0.283 -1.758,0.538 -0.595,0.255 -1.162,0.624 -1.7,1.077 -0.256,0.17 -0.482,0.397 -0.709,0.624 -0.567,-1.049 -1.191,-1.956 -1.899,-2.778 l 0.028,0 c -0.51,-0.652 -1.049,-1.162 -1.672,-1.587 -0.624,-0.454 -1.333,-0.737 -2.126,-0.936 -0.681,-0.17 -1.361,-0.227 -2.041,-0.17 -0.681,0.057 -1.333,0.199 -2.013,0.482 -0.595,0.227 -1.162,0.539 -1.701,0.935 -0.51,0.397 -0.992,0.822 -1.417,1.333 -0.255,0.312 -0.482,0.623 -0.68,0.935 -0.341,-0.482 -0.737,-0.964 -1.163,-1.389 -0.878,-0.907 -1.842,-1.701 -2.863,-2.353 -1.048,-0.652 -2.154,-1.19 -3.316,-1.615 -0.057,0 -0.113,-0.029 -0.198,-0.057 -0.737,-0.198 -1.446,-0.34 -2.183,-0.425 -0.737,-0.085 -1.474,-0.114 -2.183,-0.057 -0.794,0.057 -1.531,0.17 -2.211,0.369 -0.737,0.226 -1.446,0.51 -2.069,0.878 -0.68,0.397 -1.276,0.879 -1.843,1.474 -0.51,0.567 -0.992,1.219 -1.389,1.956 -0.397,0.737 -0.708,1.559 -0.907,2.466 -0.17,0.879 -0.283,1.758 -0.283,2.693 0,2.013 0.652,3.714 1.984,5.103 0.51,0.567 1.077,1.02 1.672,1.417 l -0.028,0 0.085,0.057 c -0.142,0.056 -0.283,0.085 -0.425,0.113 -0.198,0.028 -0.397,0.085 -0.595,0.113 -0.851,0.114 -1.616,0.454 -2.268,1.021 -0.539,0.482 -0.964,1.077 -1.304,1.842 -0.227,0.539 -0.368,1.078 -0.482,1.673 -0.085,0.538 -0.113,1.105 -0.113,1.701 0.028,0.68 0.17,1.332 0.368,1.956 0.227,0.623 0.511,1.19 0.879,1.757 0.482,0.709 1.106,1.276 1.843,1.701 0.68,0.397 1.445,0.623 2.296,0.737 1.53,0.17 3.203,0.623 5.017,1.36 0.935,0.369 1.786,0.794 2.608,1.248 0.822,0.453 1.587,0.935 2.268,1.474 l 0.113,0.056 -0.028,0 c 0.793,0.539 1.644,0.879 2.494,0.964 0.935,0.114 1.843,-0.028 2.721,-0.453 0.057,-0.029 0.142,-0.057 0.199,-0.085 0.595,-0.284 1.105,-0.652 1.587,-1.106 l 0.114,-0.113 c 0.34,0.453 0.708,0.878 1.162,1.247 0.567,0.482 1.134,0.879 1.757,1.162 0.057,0.057 0.114,0.085 0.199,0.114 0.595,0.255 1.162,0.481 1.757,0.595 0.68,0.17 1.361,0.227 2.041,0.198 0.737,-0.028 1.389,-0.17 2.041,-0.425 0.935,-0.34 1.672,-0.907 2.183,-1.672 0.368,-0.539 0.595,-1.106 0.708,-1.73 0.511,0.709 1.191,1.248 2.041,1.588 1.276,0.538 2.608,0.652 4.025,0.397 0.596,-0.114 1.191,-0.284 1.73,-0.51 0.595,-0.227 1.133,-0.539 1.587,-0.851 0.709,-0.482 1.219,-1.077 1.587,-1.729 0.256,-0.454 0.426,-0.935 0.511,-1.417 0.141,0.368 0.283,0.765 0.425,1.134 0.453,1.218 0.964,2.324 1.531,3.344 0.595,1.049 1.247,1.985 1.955,2.863 0.794,1.021 1.701,1.815 2.665,2.41 1.049,0.623 2.154,1.02 3.317,1.162 C -6.406,4.62 -4.876,4.365 -3.487,3.657 -2.098,2.92 -0.992,1.786 -0.142,0.255 -0.113,0.17 -0.057,0.085 0,0 m -90.652,-1.02 -0.85,-0.171 c -0.794,-0.141 -1.588,-0.283 -2.325,-0.396 -0.765,-0.114 -1.587,-0.227 -2.466,-0.341 -0.765,-0.085 -1.502,-0.056 -2.154,0.114 -0.907,0.227 -1.644,0.652 -2.268,1.332 -0.057,0.085 -0.142,0.17 -0.198,0.255 -0.426,0.51 -0.709,1.106 -0.851,1.729 -0.17,0.709 -0.17,1.446 0,2.211 0.17,0.681 0.454,1.304 0.851,1.871 0.34,0.51 0.765,0.964 1.275,1.418 0.595,0.481 1.247,0.878 2.013,1.162 0.652,0.255 1.304,0.453 2.012,0.595 0.737,0.17 1.418,0.369 2.098,0.595 0.624,0.199 1.389,0.511 2.211,0.851 l 2.381,0.964 2.381,0.935 c 0.057,0.028 0.114,0.057 0.17,0.057 0.851,0.34 1.644,0.652 2.353,0.907 0.68,0.255 1.531,0.538 2.523,0.85 l 0,0.028 c 0.879,0.284 1.786,0.539 2.721,0.737 0.879,0.199 1.786,0.341 2.693,0.454 0.425,0.028 0.879,0.057 1.361,0.028 0.453,0 0.907,-0.056 1.389,-0.141 0.538,-0.085 1.077,-0.227 1.559,-0.397 0.51,-0.17 0.992,-0.397 1.445,-0.652 0.482,-0.284 0.936,-0.624 1.361,-1.021 0.425,-0.397 0.822,-0.822 1.134,-1.275 0.368,-0.567 0.652,-1.191 0.85,-1.843 0.199,-0.652 0.284,-1.304 0.284,-1.984 0,-0.794 -0.199,-1.531 -0.595,-2.211 C -67.38,5.556 -67.436,5.471 -67.493,5.386 -67.805,4.904 -68.23,4.507 -68.712,4.195 -69.109,3.912 -69.619,3.657 -70.214,3.43 -70.724,3.231 -71.263,3.061 -71.887,2.92 -71.915,2.891 -71.972,2.891 -72,2.891 -72.68,2.721 -73.247,2.58 -73.758,2.466 -74.409,2.324 -75.175,2.154 -76.025,1.984 -76.706,1.843 -77.471,1.701 -78.321,1.502 l 0.028,-0.056 c 0.17,-0.709 0.312,-1.418 0.425,-2.126 0.114,-0.681 0.199,-1.389 0.284,-2.183 0.056,-0.709 0.113,-1.446 0.141,-2.183 0.029,-0.708 0.029,-1.445 0.029,-2.182 0,-0.567 -0.029,-1.333 -0.029,-2.126 l 0,-2.835 c 0,-1.077 0,-1.191 0.029,-1.332 l 0,-0.085 c 0,-0.199 0.028,-0.511 0.028,-1.644 0.029,-1.701 0,-2.382 -0.113,-3.515 0.028,0.311 0.028,0.34 -0.114,-1.559 -0.056,-0.681 -0.198,-3.033 -0.34,-5.33 l -0.085,-1.445 1.361,0.34 c 0.708,0.17 1.19,0.283 1.417,0.34 0.369,0.085 0.737,0.17 1.134,0.284 0.368,0.085 0.624,0.141 0.822,0.17 l 0.142,0.028 c 0.142,0.028 0.312,0.057 0.482,0.085 0.311,0.057 0.482,0.085 0.567,0.085 0.652,0.057 1.247,0.085 1.814,0 0.652,-0.057 1.275,-0.227 1.842,-0.51 1.106,-0.51 1.814,-1.361 2.098,-2.523 0.227,-0.879 0.17,-1.786 -0.142,-2.75 -0.056,-0.17 -0.142,-0.311 -0.198,-0.453 -0.34,-0.624 -0.822,-1.219 -1.531,-1.786 -0.51,-0.397 -1.219,-0.879 -2.126,-1.389 -0.822,-0.482 -1.701,-0.935 -2.664,-1.389 -0.908,-0.453 -1.956,-0.907 -3.09,-1.417 -1.219,-0.51 -2.381,-0.936 -3.487,-1.333 -1.162,-0.396 -2.381,-0.793 -3.713,-1.19 -1.247,-0.369 -2.495,-0.68 -3.714,-0.936 -1.247,-0.283 -2.409,-0.481 -3.486,-0.623 -1.162,-0.142 -2.296,-0.199 -3.345,-0.142 -1.106,0.028 -2.126,0.199 -3.033,0.482 -1.304,0.397 -2.325,1.077 -3.062,2.069 -0.737,1.021 -1.105,2.211 -1.105,3.6 0,0.737 0.198,1.418 0.595,2.07 0.312,0.481 0.709,0.935 1.219,1.304 0.397,0.283 0.85,0.51 1.332,0.737 0.369,0.141 0.851,0.311 1.446,0.481 0.595,0.171 1.134,0.312 1.587,0.426 0.539,0.113 1.191,0.255 1.956,0.425 0.709,0.17 1.474,0.34 2.296,0.538 l 0.482,0.114 c -0.056,1.672 -0.085,3.033 -0.113,5.329 0,1.984 -0.028,3.26 -0.057,4.819 -0.028,0.794 -0.057,1.644 -0.057,2.863 -0.028,1.162 -0.056,2.239 -0.085,3.26 -0.028,1.53 -0.056,2.976 -0.085,5.215 0,1.73 -0.028,3.515 -0.056,5.358 -0.029,0.68 -0.029,1.389 -0.057,2.098"
         style="fill:#7c0000;fill-opacity:1;fill-rule:nonzero;stroke:none"
         id="path11133"
         inkscape:connector-curvature="0" />
    </g>
    <g
       id="g11135"
       transform="matrix(1.0803779,0,0,-1.0803757,75.891902,1012.8926)">
      <path
         d="M 0,0 2.906,0 0.167,-1.844 c -0.604,-0.403 -1.076,-0.801 -1.482,-1.253 -1.169,-1.218 -1.727,-2.66 -1.727,-4.429 0,-0.773 0.085,-1.568 0.266,-2.501 0.166,-0.758 0.438,-1.499 0.805,-2.181 0.328,-0.61 0.749,-1.203 1.251,-1.759 0.496,-0.522 1.011,-0.934 1.601,-1.279 0.511,-0.301 1.117,-0.557 1.859,-0.786 0.559,-0.163 1.214,-0.271 1.987,-0.326 0.645,-0.051 1.28,-0.031 1.995,0.052 0.661,0.077 1.327,0.206 2.037,0.397 0.039,0.017 0.111,0.044 0.205,0.064 1.06,0.395 2.082,0.896 3.04,1.491 0.94,0.602 1.842,1.344 2.671,2.199 0.376,0.377 0.74,0.811 1.063,1.269 l 0.865,1.227 0.806,-1.266 c 0.177,-0.279 0.383,-0.561 0.61,-0.839 0.323,-0.387 0.712,-0.752 1.257,-1.175 0.442,-0.326 0.934,-0.597 1.441,-0.79 0.572,-0.238 1.115,-0.367 1.738,-0.419 0.57,-0.048 1.14,0 1.713,0.144 0.744,0.185 1.309,0.431 1.779,0.773 0.312,0.212 0.592,0.441 0.854,0.698 l 0.619,0.732 c 0.668,0.774 1.249,1.625 1.777,2.6 l 0.642,1.188 0.954,-0.956 c 0.197,-0.197 0.381,-0.382 0.554,-0.496 l 0.092,-0.069 c 0.482,-0.406 0.97,-0.716 1.448,-0.922 0.473,-0.212 0.974,-0.365 1.55,-0.475 0.554,-0.106 1.089,-0.151 1.608,-0.125 0.608,0.023 1.189,0.135 1.784,0.342 0.561,0.22 1.093,0.522 1.545,0.884 0.752,0.608 1.35,1.205 1.878,1.877 l 0.928,1.252 0.822,-0.871 c 0.823,-0.872 1.786,-1.492 2.944,-1.894 1.017,-0.348 2.161,-0.5 3.393,-0.458 l 0.038,0.019 0.208,0.011 c 0.925,0.05 1.873,0.226 2.815,0.522 0.895,0.289 1.757,0.685 2.555,1.173 0.807,0.502 1.533,1.018 2.149,1.532 l 1.348,1.123 0.288,-1.732 c 0.041,-0.242 0.129,-0.483 0.248,-0.77 0.014,-0.023 0.054,-0.127 0.093,-0.242 0.066,-0.143 0.14,-0.281 0.221,-0.412 l 1.29,-1.269 c 0.937,-0.592 2.02,-0.844 3.229,-0.749 1.079,0.072 2.08,0.431 2.986,1.067 0.119,0.093 0.177,0.138 0.246,0.185 0.528,0.402 0.955,0.943 1.257,1.615 0.281,0.61 0.422,1.289 0.422,2.026 l 0,0.141 c -0.013,0.104 -0.021,0.3 -0.028,0.499 -0.007,0.165 -0.013,0.333 -0.026,0.501 l -0.277,3.601 2.099,-2.938 c 0.11,-0.154 0.216,-0.31 0.348,-0.442 l 0.071,-0.079 c 0.67,-0.833 1.528,-1.38 2.622,-1.671 0.845,-0.218 1.786,-0.241 2.868,-0.065 0.008,0.007 0.091,0.02 0.174,0.032 l 0.106,0.02 c 1.936,0.376 3.672,1.506 5.162,3.357 0.644,0.81 1.244,1.661 1.831,2.597 0.58,0.926 1.102,1.962 1.536,2.853 0.466,1.017 0.888,1.97 1.252,2.839 0.381,0.983 0.746,1.934 1.053,2.83 l 0.132,0.356 c 0.327,0.89 0.566,1.539 0.716,1.988 l 0.621,1.691 c 0.193,0.476 0.307,0.921 0.353,1.379 0.042,0.581 -0.043,1.12 -0.262,1.624 -0.221,0.463 -0.504,0.842 -0.851,1.128 -0.382,0.314 -0.783,0.516 -1.227,0.617 -0.457,0.119 -0.867,0.135 -1.3,0.071 -0.341,-0.061 -0.731,-0.192 -1.165,-0.397 -0.436,-0.207 -0.836,-0.53 -1.22,-0.985 -0.277,-0.341 -0.514,-0.756 -0.713,-1.256 -0.405,-0.905 -0.825,-1.959 -1.265,-3.173 l -2.708,-6.778 0.589,6.783 c 0.139,1.587 -0.298,2.663 -1.373,3.388 l -0.143,0.117 -0.775,0.761 2.61,2.595 c 0.568,0.592 1.078,1.21 1.502,1.82 0.427,0.616 0.77,1.214 1.02,1.779 l 0.069,0.19 c 0.362,0.859 0.434,1.684 0.215,2.451 -0.261,0.893 -0.809,1.546 -1.674,1.989 -0.528,0.275 -1.093,0.45 -1.786,0.552 -0.579,0.101 -1.189,0.099 -1.835,0.024 -0.627,-0.078 -1.247,-0.209 -1.835,-0.388 -0.609,-0.213 -1.191,-0.456 -1.743,-0.731 -0.657,-0.353 -1.237,-0.816 -1.653,-1.324 -0.201,-0.262 -0.423,-0.57 -0.554,-0.899 l -2.154,-5.386 0.413,10.423 c 0.133,2.708 0.244,4.54 0.37,6.131 0.023,0.553 0.071,1.142 0.123,1.772 l 0.02,0.243 c 0.053,0.44 0.082,0.681 0.082,0.825 l 0.014,0.173 c 0.156,0.886 -10e-4,1.676 -0.462,2.346 -0.434,0.652 -1.067,1.072 -1.943,1.297 -0.531,0.133 -1.138,0.161 -1.761,0.089 -0.593,-0.075 -1.163,-0.226 -1.782,-0.473 -0.591,-0.232 -1.139,-0.535 -1.683,-0.93 -0.606,-0.433 -1.085,-0.861 -1.468,-1.312 -0.576,-0.627 -0.992,-1.328 -1.26,-2.112 -0.234,-0.677 -0.343,-1.375 -0.343,-2.196 l 0,-6.888 c 0,-0.503 -0.006,-1.025 -0.013,-1.573 -0.007,-0.595 -0.015,-1.221 -0.015,-1.885 -0.015,-0.635 -0.022,-1.269 -0.029,-1.925 -0.006,-0.621 -0.014,-1.262 -0.028,-1.923 l -0.076,-5.055 -1.791,2.64 c -0.063,0.092 -0.151,0.223 -0.222,0.389 -0.759,1.347 -1.71,2.31 -2.904,2.943 -1.204,0.615 -2.544,0.829 -4.062,0.655 -0.99,-0.121 -1.974,-0.467 -2.917,-1.027 -0.893,-0.552 -1.701,-1.282 -2.385,-2.162 -0.729,-0.905 -1.338,-1.798 -1.875,-2.743 -0.555,-1 -1.034,-2.049 -1.462,-3.198 L 39.93,8.242 39.296,11.8 c -0.068,0.383 -0.202,0.753 -0.397,1.1 -0.322,0.571 -0.739,1.026 -1.276,1.391 -0.472,0.324 -0.935,0.572 -1.379,0.742 -0.482,0.202 -1.009,0.357 -1.561,0.462 -1.23,0.222 -2.374,0.117 -3.444,-0.335 -0.675,-0.27 -1.213,-0.688 -1.616,-1.248 L 28.24,11.989 27.816,14.32 c -0.089,0.492 -0.27,0.93 -0.55,1.341 -0.397,0.596 -0.966,1.029 -1.695,1.294 -0.587,0.229 -1.131,0.342 -1.737,0.366 -0.629,0.025 -1.197,-0.029 -1.757,-0.17 C 21.518,17.043 20.994,16.831 20.5,16.62 L 20.459,16.578 20.292,16.503 C 19.808,16.282 19.325,15.96 18.771,15.49 18.42,15.205 18.114,14.875 17.762,14.405 l -0.697,-0.926 -0.933,0.933 c -0.412,0.387 -0.835,0.682 -1.309,0.908 -0.102,0.041 -0.165,0.068 -0.216,0.094 -0.679,0.328 -1.398,0.444 -2.149,0.354 C 12.232,15.746 12.004,15.7 11.775,15.633 L 10.297,14.892 C 9.646,14.385 8.886,13.894 7.975,13.391 6.986,12.845 6.12,12.432 5.25,12.089 3.371,11.325 1.593,10.844 -0.024,10.665 -0.769,10.565 -1.398,10.366 -1.925,10.059 -2.545,9.7 -3.055,9.231 -3.442,8.661 -3.758,8.175 -4.005,7.681 -4.208,7.125 -4.389,6.553 -4.494,5.999 -4.517,5.471 -4.516,4.899 -4.483,4.408 -4.414,3.969 -4.307,3.406 -4.177,2.953 -3.999,2.531 -3.727,1.918 -3.392,1.441 -2.952,1.048 -2.466,0.626 -1.881,0.363 -1.222,0.275 -1.09,0.256 -0.968,0.231 -0.846,0.205 -0.77,0.188 -0.694,0.171 -0.618,0.16 -0.378,0.114 -0.188,0.071 0,0 m 5.417,-18.398 c -0.284,0 -0.565,0.01 -0.842,0.033 -0.909,0.065 -1.701,0.198 -2.413,0.405 -0.909,0.28 -1.657,0.599 -2.3,0.979 -0.743,0.434 -1.418,0.973 -2.059,1.647 -0.628,0.696 -1.141,1.42 -1.546,2.172 -0.456,0.846 -0.794,1.765 -1.004,2.728 -0.211,1.087 -0.307,2.003 -0.307,2.908 0,2.145 0.673,3.998 2.002,5.513 l -0.663,0 0.933,0.629 c -0.542,0.217 -1.045,0.526 -1.501,0.923 -0.661,0.591 -1.169,1.305 -1.563,2.192 -0.242,0.576 -0.41,1.154 -0.551,1.894 -0.091,0.576 -0.131,1.166 -0.131,1.889 0.03,0.751 0.166,1.476 0.416,2.26 0.266,0.733 0.587,1.375 0.994,2.002 0.571,0.84 1.302,1.515 2.183,2.023 0.758,0.442 1.631,0.725 2.666,0.863 1.456,0.162 3.053,0.597 4.771,1.296 0.798,0.313 1.589,0.692 2.501,1.195 0.245,0.136 0.477,0.269 0.698,0.403 l 1.576,1.08 c 0.96,0.651 1.955,1.032 2.959,1.133 1.041,0.126 2.225,-0.049 3.26,-0.55 0.097,-0.038 0.16,-0.065 0.211,-0.091 0.391,-0.186 0.768,-0.415 1.135,-0.689 0.21,0.223 0.422,0.419 0.642,0.599 0.641,0.545 1.238,0.945 1.854,1.24 0.158,0.113 0.308,0.172 0.418,0.209 0.526,0.229 1.175,0.493 1.888,0.629 0.675,0.171 1.47,0.251 2.272,0.216 0.833,-0.032 1.585,-0.189 2.365,-0.494 1.119,-0.407 2.019,-1.1 2.654,-2.051 0.102,-0.15 0.195,-0.303 0.281,-0.458 0.381,0.278 0.801,0.51 1.257,0.692 1.395,0.589 2.944,0.747 4.577,0.453 0.707,-0.135 1.358,-0.327 1.943,-0.574 0.559,-0.212 1.165,-0.535 1.765,-0.947 0.56,-0.381 1.046,-0.845 1.45,-1.383 0.347,0.824 0.729,1.609 1.154,2.373 0.596,1.05 1.265,2.03 2.053,3.007 0.821,1.056 1.807,1.947 2.919,2.634 1.2,0.713 2.448,1.149 3.723,1.305 1.943,0.223 3.666,-0.071 5.228,-0.868 0.761,-0.404 1.453,-0.916 2.071,-1.533 0.003,0.262 0.006,0.52 0.009,0.775 0.007,0.665 0.014,1.307 0.029,1.926 0,0.65 0.008,1.284 0.015,1.887 0.007,0.539 0.013,1.053 0.013,1.548 l 0,6.888 c 0,1.037 0.148,1.969 0.452,2.85 0.359,1.048 0.917,1.987 1.655,2.791 0.467,0.55 1.064,1.087 1.801,1.613 0.677,0.492 1.372,0.875 2.117,1.167 0.777,0.311 1.505,0.502 2.283,0.6 0.896,0.103 1.722,0.058 2.495,-0.137 1.366,-0.349 2.412,-1.062 3.116,-2.119 0.737,-1.07 1.013,-2.367 0.791,-3.74 -0.007,-0.2 -0.033,-0.469 -0.085,-0.867 l -0.021,-0.273 c -0.05,-0.602 -0.096,-1.166 -0.121,-1.73 -0.126,-1.606 -0.236,-3.42 -0.368,-6.101 L 71.465,26.94 c 0.333,0.252 0.696,0.483 1.085,0.692 0.656,0.327 1.316,0.603 2.044,0.857 0.736,0.224 1.469,0.38 2.219,0.473 0.868,0.1 1.672,0.091 2.395,-0.035 0.896,-0.132 1.664,-0.372 2.39,-0.751 1.339,-0.687 2.27,-1.801 2.684,-3.218 0.332,-1.163 0.26,-2.37 -0.215,-3.596 l 0,-0.006 -0.077,-0.213 c -0.308,-0.741 -0.743,-1.519 -1.292,-2.312 -0.486,-0.698 -1.063,-1.396 -1.717,-2.08 l -1.127,-1.128 c 0.262,-0.271 0.487,-0.565 0.676,-0.883 0.076,0.177 0.15,0.347 0.224,0.511 0.26,0.653 0.597,1.239 1.015,1.753 0.585,0.695 1.206,1.188 1.909,1.522 0.602,0.284 1.157,0.468 1.702,0.564 0.776,0.117 1.436,0.073 2.104,-0.103 0.713,-0.161 1.406,-0.507 2.027,-1.018 0.572,-0.47 1.044,-1.092 1.403,-1.847 0.363,-0.83 0.504,-1.705 0.436,-2.632 -0.066,-0.67 -0.228,-1.306 -0.496,-1.973 L 90.272,9.932 C 90.126,9.496 89.88,8.827 89.543,7.911 L 89.419,7.575 C 89.111,6.677 88.738,5.701 88.336,4.667 87.954,3.754 87.524,2.78 87.037,1.72 86.571,0.761 86.018,-0.333 85.388,-1.341 c -0.628,-1 -1.27,-1.91 -1.965,-2.785 -1.8,-2.236 -3.935,-3.606 -6.349,-4.076 -0.041,-0.011 -0.122,-0.025 -0.203,-0.036 l -0.14,-0.026 c -1.349,-0.219 -2.576,-0.185 -3.7,0.104 -0.893,0.238 -1.691,0.612 -2.386,1.119 -0.098,-0.578 -0.266,-1.127 -0.503,-1.643 -0.434,-0.965 -1.081,-1.783 -1.922,-2.421 l -0.722,0.715 0.628,-0.785 c -0.055,-0.045 -0.112,-0.089 -0.179,-0.134 -1.196,-0.84 -2.54,-1.32 -3.982,-1.416 -1.021,-0.081 -2.089,0.04 -3.029,0.369 l 0,-0.271 -1.57,1.037 c -0.964,0.653 -1.66,1.469 -2.128,2.492 -0.386,-0.275 -0.796,-0.546 -1.228,-0.814 -0.937,-0.574 -1.944,-1.037 -2.999,-1.378 -1.07,-0.336 -2.142,-0.54 -3.196,-0.606 -0.161,-0.038 -0.3,-0.038 -0.373,-0.038 -0.147,-0.006 -0.333,-0.01 -0.518,-0.01 -1.294,0 -2.516,0.193 -3.633,0.575 -1.1,0.382 -2.06,0.917 -2.913,1.625 -0.511,-0.582 -1.076,-1.116 -1.744,-1.655 -0.613,-0.491 -1.321,-0.894 -2.107,-1.203 -0.822,-0.286 -1.595,-0.434 -2.397,-0.465 -0.639,-0.029 -1.363,0.024 -2.071,0.159 -0.731,0.139 -1.38,0.339 -1.981,0.61 -0.579,0.247 -1.167,0.607 -1.741,1.065 -0.045,-0.074 -0.092,-0.146 -0.14,-0.219 l 0.049,0 -0.521,-0.681 c -0.129,-0.177 -0.261,-0.349 -0.395,-0.518 l -0.327,-0.427 c -0.568,-0.727 -1.189,-1.316 -1.897,-1.799 -0.661,-0.481 -1.447,-0.83 -2.449,-1.08 -0.788,-0.196 -1.583,-0.261 -2.369,-0.197 -0.827,0.069 -1.584,0.251 -2.316,0.556 -0.647,0.246 -1.3,0.604 -1.91,1.054 -0.643,0.499 -1.126,0.949 -1.532,1.424 -0.138,-0.156 -0.279,-0.305 -0.421,-0.446 -0.926,-0.957 -1.95,-1.798 -3.032,-2.49 -1.113,-0.692 -2.291,-1.266 -3.513,-1.713 l -0.226,-0.066 c -0.863,-0.234 -1.625,-0.382 -2.385,-0.47 -0.534,-0.062 -1.051,-0.093 -1.536,-0.093 m -36.796,37.063 0.047,-1.178 c 0.014,-0.357 0.021,-0.715 0.029,-1.069 0.007,-0.347 0.013,-0.69 0.028,-1.026 l 0.003,-0.196 c 0.027,-1.787 0.054,-3.523 0.054,-5.204 0.026,-2.01 0.051,-3.384 0.077,-4.76 l 0.008,-0.437 c 0.028,-1.012 0.056,-2.09 0.085,-3.254 0,-1.228 0.028,-2.068 0.056,-2.851 l 0.01,-0.497 c 0.025,-1.359 0.048,-2.573 0.048,-4.358 0.028,-2.274 0.056,-3.629 0.113,-5.295 l 0.028,-0.825 -1.286,-0.302 c -0.43,-0.104 -0.85,-0.202 -1.254,-0.295 l -1.037,-0.243 c -0.787,-0.175 -1.442,-0.317 -1.983,-0.431 -0.409,-0.103 -0.936,-0.242 -1.519,-0.408 -0.469,-0.135 -0.927,-0.287 -1.361,-0.454 -0.427,-0.204 -0.795,-0.393 -1.108,-0.616 -0.362,-0.261 -0.686,-0.61 -0.96,-1.032 -0.287,-0.473 -0.433,-0.978 -0.433,-1.523 0,-1.173 0.299,-2.159 0.915,-3.011 0.593,-0.798 1.426,-1.357 2.539,-1.695 0.852,-0.267 1.78,-0.413 2.765,-0.439 0.282,-0.015 0.54,-0.021 0.804,-0.021 0.739,0 1.544,0.052 2.394,0.156 1.146,0.15 2.256,0.349 3.385,0.605 1.239,0.26 2.462,0.569 3.652,0.919 1.187,0.355 2.389,0.741 3.673,1.178 1.06,0.382 2.211,0.802 3.422,1.309 l 0.729,0.326 c 0.833,0.372 1.608,0.717 2.3,1.063 1.002,0.471 1.847,0.912 2.605,1.357 0.976,0.549 1.635,1.017 2.018,1.315 0.533,0.426 0.943,0.898 1.241,1.431 0.025,0.056 0.051,0.113 0.079,0.17 0.025,0.051 0.052,0.103 0.072,0.162 0.255,0.789 0.296,1.506 0.122,2.181 -0.213,0.874 -0.718,1.478 -1.545,1.86 -0.477,0.238 -0.974,0.375 -1.508,0.421 -0.641,0.093 -1.075,0.051 -1.639,0 -0.134,-0.009 -0.265,-0.034 -0.475,-0.073 -0.174,-0.028 -0.332,-0.055 -0.464,-0.081 l -0.142,-0.028 c -0.234,-0.035 -0.462,-0.088 -0.793,-0.164 -0.364,-0.106 -0.749,-0.195 -1.134,-0.284 l -4.089,-1.008 0.235,3.941 c 0.117,1.907 0.224,3.654 0.272,4.226 l 0.117,1.566 -0.003,0.001 c 0.001,0.008 0.002,0.017 0.003,0.025 l 0.011,0.115 c 0.094,0.975 0.123,1.615 0.095,3.267 0,0.796 -0.013,1.176 -0.021,1.401 l -0.007,0.256 c -0.028,0.19 -0.028,0.418 -0.028,1.421 l 0,2.834 c 0,0.437 0.008,0.866 0.016,1.259 0.006,0.319 0.012,0.613 0.012,0.867 0,0.724 0.001,1.447 -0.027,2.143 -0.028,0.724 -0.084,1.447 -0.139,2.143 -0.081,0.745 -0.164,1.435 -0.274,2.097 -0.103,0.645 -0.232,1.297 -0.385,1.946 l -0.518,1.036 1.214,0.346 c 0.608,0.142 1.172,0.256 1.694,0.361 l 0.625,0.126 c 0.734,0.147 1.398,0.292 1.98,0.419 l 0.279,0.061 c 0.459,0.103 0.969,0.229 1.57,0.379 l 0.008,0.009 0.284,0.064 c 0.543,0.123 1.029,0.272 1.53,0.466 0.54,0.206 0.969,0.422 1.282,0.646 0.431,0.281 0.741,0.581 0.96,0.919 0.071,0.107 0.14,0.206 0.223,0.303 0.275,0.503 0.409,1.032 0.409,1.617 0,0.607 -0.079,1.161 -0.24,1.692 -0.176,0.576 -0.422,1.11 -0.731,1.586 -0.225,0.326 -0.55,0.69 -0.977,1.089 -0.37,0.345 -0.768,0.644 -1.184,0.888 -0.426,0.239 -0.841,0.427 -1.255,0.565 -0.464,0.164 -0.941,0.285 -1.396,0.357 -0.513,0.091 -0.888,0.13 -1.233,0.13 -0.18,0.009 -0.299,0.012 -0.416,0.012 -0.306,0 -0.598,-0.019 -0.878,-0.038 -0.957,-0.122 -1.782,-0.261 -2.538,-0.431 -0.639,-0.136 -1.29,-0.304 -1.979,-0.51 l -0.662,-0.234 c -1.036,-0.325 -1.844,-0.598 -2.472,-0.833 -0.71,-0.256 -1.493,-0.563 -2.331,-0.899 l -4.929,-1.954 c -0.859,-0.356 -1.629,-0.669 -2.284,-0.877 -0.755,-0.252 -1.451,-0.449 -2.176,-0.616 -0.647,-0.131 -1.25,-0.309 -1.872,-0.552 -0.628,-0.233 -1.194,-0.561 -1.746,-1.008 -0.453,-0.404 -0.805,-0.793 -1.072,-1.193 -0.337,-0.482 -0.572,-1 -0.711,-1.557 -0.131,-0.594 -0.133,-1.169 0.002,-1.732 0.113,-0.495 0.335,-0.947 0.645,-1.32 l 0.063,-0.084 c 0.06,-0.072 0.104,-0.126 0.141,-0.175 0.474,-0.502 1.026,-0.819 1.733,-0.996 0.526,-0.137 1.148,-0.162 1.8,-0.09 0.854,0.111 1.67,0.223 2.429,0.336 0.709,0.109 1.477,0.246 2.246,0.383 l 2.035,0.406 z m -3.332,-43.433 c -0.3,0 -0.595,0.008 -0.884,0.023 -1.142,0.03 -2.255,0.206 -3.279,0.526 -1.511,0.461 -2.714,1.279 -3.569,2.429 -0.868,1.203 -1.304,2.612 -1.304,4.201 0,0.911 0.249,1.783 0.742,2.592 0.425,0.658 0.921,1.187 1.49,1.597 0.486,0.348 1.025,0.612 1.492,0.832 0.557,0.216 1.071,0.388 1.598,0.539 0.608,0.174 1.157,0.318 1.62,0.434 0.572,0.121 1.221,0.262 1.982,0.431 l 1.036,0.243 c 0.3,0.069 0.61,0.141 0.928,0.216 -0.04,1.34 -0.064,2.608 -0.088,4.528 0,1.781 -0.022,2.985 -0.048,4.333 l -0.009,0.479 c -0.028,0.786 -0.057,1.648 -0.057,2.882 -0.027,1.136 -0.056,2.212 -0.084,3.232 l -0.008,0.446 c -0.026,1.379 -0.052,2.757 -0.077,4.784 0,1.685 -0.027,3.409 -0.054,5.187 l -0.003,0.168 c -0.012,0.281 -0.019,0.587 -0.026,0.899 -0.73,-0.13 -1.41,-0.249 -2.046,-0.347 -0.777,-0.115 -1.605,-0.229 -2.49,-0.344 -0.958,-0.106 -1.791,-0.057 -2.538,0.138 -1.1,0.275 -2.005,0.807 -2.755,1.626 l -0.096,0.122 c -0.071,0.084 -0.12,0.146 -0.161,0.201 -0.498,0.61 -0.855,1.341 -1.032,2.119 -0.202,0.843 -0.203,1.739 -0.001,2.651 0.205,0.823 0.542,1.564 1.008,2.23 0.353,0.529 0.812,1.041 1.432,1.592 0.761,0.617 1.512,1.05 2.332,1.355 0.716,0.279 1.429,0.49 2.164,0.638 0.633,0.146 1.27,0.327 1.976,0.563 0.595,0.189 1.323,0.485 2.146,0.826 l 4.779,1.905 c 0.015,0.011 0.117,0.063 0.269,0.097 0.823,0.329 1.591,0.629 2.28,0.877 0.517,0.194 1.155,0.413 1.933,0.664 l 0.622,0.226 c 1.005,0.324 1.928,0.574 2.822,0.764 0.809,0.182 1.695,0.332 2.776,0.468 0.548,0.039 1.017,0.066 1.545,0.034 0.412,0.009 0.892,-0.047 1.506,-0.156 0.556,-0.087 1.156,-0.24 1.718,-0.439 0.52,-0.173 1.05,-0.412 1.604,-0.724 0.559,-0.328 1.076,-0.715 1.554,-1.161 0.536,-0.5 0.953,-0.971 1.277,-1.441 0.426,-0.656 0.752,-1.362 0.983,-2.119 0.221,-0.724 0.328,-1.47 0.328,-2.278 0,-0.971 -0.247,-1.885 -0.733,-2.718 l -0.158,-0.205 c -0.031,-0.032 -0.049,-0.067 -0.07,-0.099 -0.369,-0.569 -0.879,-1.07 -1.512,-1.48 -0.415,-0.298 -0.997,-0.596 -1.691,-0.86 -0.546,-0.213 -1.103,-0.386 -1.695,-0.525 -0.084,-0.033 -0.18,-0.058 -0.287,-0.071 -0.654,-0.163 -1.204,-0.3 -1.701,-0.41 l -0.28,-0.061 c -0.594,-0.13 -1.269,-0.278 -2.009,-0.426 l -0.631,-0.128 c -0.208,-0.042 -0.423,-0.085 -0.645,-0.131 0.087,-0.422 0.164,-0.843 0.23,-1.26 0.116,-0.691 0.203,-1.419 0.291,-2.233 0.061,-0.75 0.118,-1.501 0.146,-2.252 0.029,-0.72 0.03,-1.471 0.03,-2.222 0,-0.265 -0.006,-0.573 -0.013,-0.907 -0.007,-0.38 -0.016,-0.795 -0.016,-1.219 l 0,-2.834 c 0,-0.684 0,-1.06 0.009,-1.136 l 0.025,-0.469 c 0.008,-0.236 0.023,-0.637 0.023,-1.457 0.027,-1.595 0.004,-2.346 -0.103,-3.467 l -0.127,-1.682 c -0.048,-0.574 -0.154,-2.303 -0.269,-4.19 l -0.074,-1.201 1.449,0.348 c 0.37,0.085 0.721,0.166 1.1,0.275 0.458,0.107 0.739,0.167 0.958,0.199 l 0.086,0.019 c 0.151,0.03 0.333,0.06 0.514,0.09 0.372,0.068 0.56,0.099 0.732,0.099 0.587,0.06 1.368,0.08 1.964,-0.011 0.725,-0.061 1.467,-0.267 2.143,-0.606 1.353,-0.623 2.27,-1.729 2.625,-3.183 0.269,-1.044 0.217,-2.127 -0.162,-3.299 -0.051,-0.152 -0.111,-0.282 -0.17,-0.406 l -0.102,-0.219 c -0.431,-0.79 -1.016,-1.474 -1.786,-2.09 -0.638,-0.496 -1.416,-1.005 -2.261,-1.48 -0.796,-0.467 -1.694,-0.935 -2.729,-1.423 -0.695,-0.347 -1.497,-0.705 -2.359,-1.09 l -0.747,-0.334 c -1.279,-0.536 -2.458,-0.967 -3.559,-1.362 -1.324,-0.452 -2.551,-0.845 -3.766,-1.207 -1.244,-0.368 -2.519,-0.689 -3.794,-0.956 -1.175,-0.268 -2.345,-0.477 -3.562,-0.637 -0.939,-0.114 -1.827,-0.172 -2.647,-0.172"
         style="fill:#000000;fill-opacity:1;fill-rule:nonzero;stroke:none"
         id="path11137"
         inkscape:connector-curvature="0" />
    </g>
    <g
       id="g11139"
       transform="matrix(1.0803779,0,0,-1.0803757,-334.0106,1251.6636)">
      <g
         id="g11141">
        <g
           id="g11147">
          <g
             id="g11149">
            <path
               d="m 444.298,260.196 c -0.908,-0.368 -1.729,-0.935 -2.466,-1.757 l 0,0 c -0.766,-0.822 -1.107,-1.843 -1.05,-3.061 l 0,0 0,-3.799 c 0,-1.814 0,-3.968 -0.028,-6.434 l 0,0 c -0.029,-2.466 -0.085,-5.131 -0.142,-7.966 l 0,0 -0.113,-5.556 c -0.198,-0.652 -0.595,-1.786 -1.247,-3.344 l 0,0 c -0.652,-1.645 -1.446,-3.289 -2.41,-4.933 l 0,0 c -0.964,-1.644 -2.069,-3.061 -3.288,-4.281 l 0,0 c -1.219,-1.189 -2.551,-1.643 -3.997,-1.36 l 0,0 c -0.85,0.171 -1.417,0.737 -1.757,1.729 l 0,0 c -0.312,0.992 -0.482,2.183 -0.482,3.572 l 0,0 c 0,1.417 0.142,2.919 0.397,4.536 l 0,0 c 0.284,1.586 0.595,3.089 0.935,4.45 l 0,0 c 0.368,1.389 0.765,2.551 1.219,3.515 l 0,0 c 0.453,0.935 0.85,1.474 1.219,1.587 l 0,0 c 0.368,0.085 0.567,-0.283 0.595,-1.134 l 0,0 c 0.029,-0.878 0,-1.899 -0.113,-3.09 l 0,0 c -0.085,-1.19 -0.227,-2.381 -0.397,-3.543 l 0,0 c -0.17,-1.19 -0.284,-2.041 -0.368,-2.551 l 0,0 c -0.114,-0.765 0.084,-1.248 0.595,-1.361 l 0,0 c 0.51,-0.141 1.105,-0.028 1.785,0.34 l 0,0 c 0.71,0.369 1.361,0.993 1.985,1.871 l 0,0 c 0.623,0.851 1.02,1.956 1.134,3.232 l 0,0 c 0.227,2.92 -0.199,5.386 -1.304,7.398 l 0,0 c -1.105,2.012 -2.807,2.892 -5.074,2.636 l 0,0 c -1.503,-0.17 -2.863,-0.992 -4.054,-2.494 l 0,0 c -1.19,-1.474 -2.211,-3.259 -3.004,-5.386 l 0,0 c -0.624,-1.616 -1.106,-3.317 -1.418,-5.102 l 0,0 c -0.113,-0.425 -0.255,-0.935 -0.425,-1.474 l 0,0 c -0.425,-1.389 -0.879,-2.807 -1.36,-4.195 l 0,0 c -0.483,-1.389 -0.964,-2.637 -1.475,-3.686 l 0,0 c -0.51,-1.048 -0.935,-1.587 -1.304,-1.615 l 0,0 c -0.538,-0.085 -0.878,0.453 -1.02,1.587 l 0,0 c -0.17,1.134 -0.198,2.523 -0.142,4.11 l 0,0 c 0.057,1.616 0.198,3.288 0.397,5.046 l 0,0 c 0.198,1.758 0.425,3.232 0.681,4.394 l 0,0 c 0.056,0.595 -0.227,1.105 -0.851,1.558 l 0,0 c -0.652,0.426 -1.361,0.738 -2.211,0.88 l 0,0 c -0.851,0.17 -1.644,0.084 -2.382,-0.227 l 0,0 c -0.737,-0.312 -1.161,-0.936 -1.218,-1.899 l 0,0 c -0.227,-0.737 -0.51,-1.701 -0.794,-2.892 l 0,0 c -0.311,-1.19 -0.652,-2.438 -0.992,-3.742 l 0,0 c -0.369,-1.332 -0.737,-2.664 -1.134,-3.968 l 0,0 c -0.397,-1.332 -0.765,-2.523 -1.134,-3.6 l 0,0 c -0.34,-1.048 -0.708,-1.928 -1.077,-2.579 l 0,0 c -0.34,-0.653 -0.68,-0.908 -0.964,-0.823 l 0,0 c -0.368,0.085 -0.51,0.794 -0.454,2.098 l 0,0 c 0.057,1.332 0.199,2.976 0.454,4.904 l 0,0 c 0.227,1.956 0.454,4.054 0.709,6.322 l 0,0 c 0.227,2.267 0.425,4.449 0.538,6.49 l 0,0 c 0.057,0.71 -0.283,1.22 -0.991,1.475 l 0,0 c -0.71,0.283 -1.531,0.311 -2.438,0.113 l 0,0 c -0.879,-0.198 -1.701,-0.624 -2.466,-1.247 l 0,0 c -0.738,-0.624 -1.106,-1.475 -1.106,-2.58 l 0,0 c -0.056,-1.785 -0.17,-3.628 -0.312,-5.499 l 0,0 c -0.17,-1.871 -0.283,-3.685 -0.368,-5.414 l 0,0 c -0.086,-1.729 -0.142,-3.345 -0.142,-4.819 l 0,0 c 0,-1.474 0.085,-2.693 0.283,-3.629 l 0,0 c 0.17,-0.935 0.539,-1.729 1.106,-2.409 l 0,0 c 0.567,-0.68 1.247,-1.162 1.984,-1.445 l 0,0 c 0.737,-0.313 1.531,-0.369 2.325,-0.17 l 0,0 c 0.821,0.198 1.531,0.68 2.125,1.445 l 0,0 c 0.964,1.134 1.786,2.551 2.523,4.224 l 0,0 c 0.709,1.672 1.333,3.458 1.871,5.301 l 0,0 c 0,-1.22 0.086,-2.296 0.284,-3.232 l 0,0 c 0.17,-1.078 0.538,-1.956 1.105,-2.693 l 0,0 c 0.596,-0.737 1.247,-1.275 1.985,-1.616 l 0,0 c 0.765,-0.312 1.53,-0.482 2.352,-0.453 l 0,0 c 0.794,0.028 1.531,0.311 2.183,0.822 l 0,0 c 1.077,0.85 2.07,2.069 2.92,3.713 l 0,0 c 0.397,0.737 0.765,1.503 1.105,2.239 l 0,0 c 0.482,-1.53 1.191,-2.834 2.183,-3.883 l 0,0 c 1.19,-1.276 2.891,-1.843 5.045,-1.729 l 0,0 c 1.673,0.113 3.175,0.596 4.536,1.417 l 0,0 c 1.332,0.851 2.551,1.843 3.6,3.062 l 0,0 c 1.049,1.219 1.956,2.523 2.721,3.968 l 0,0 c 0.199,0.34 0.397,0.708 0.567,1.049 l 0,0 c -0.028,-0.567 -0.028,-1.133 -0.057,-1.673 l 0,0 c -0.084,-2.438 -0.17,-4.45 -0.227,-6.066 l 0,0 c 0,-0.963 0.313,-1.644 0.936,-2.069 l 0,0 c 0.624,-0.397 1.361,-0.567 2.154,-0.51 l 0,0 c 0.823,0.057 1.531,0.34 2.155,0.822 l 0,0 c 0.652,0.482 0.964,1.19 0.964,2.069 l 0,0 c -0.057,1.417 -0.085,3.175 -0.057,5.273 l 0,0 c 0.029,2.126 0.085,4.394 0.142,6.831 l 0,0 c 0.226,0.426 0.566,0.823 1.02,1.247 l 0,0 c 0.453,0.397 0.907,0.709 1.361,0.964 l 0,0 c 0.453,0.227 0.822,0.368 1.106,0.425 l 0,0 c 0.311,0.029 0.453,-0.113 0.453,-0.454 l 0,0 c -0.114,-0.708 -0.227,-1.842 -0.312,-3.373 l 0,0 c -0.085,-1.559 0,-3.089 0.283,-4.592 l 0,0 c 0.255,-1.502 0.794,-2.749 1.616,-3.741 l 0,0 c 0.794,-0.992 2.098,-1.333 3.912,-0.992 l 0,0 c 1.502,0.283 2.834,1.19 4.025,2.664 l 0,0 c 1.219,1.475 2.239,3.147 3.119,5.018 l 0,0 c 0.878,1.842 1.615,3.685 2.239,5.47 l 0,0 c 0.624,1.814 1.134,3.175 1.474,4.11 l 0,0 c 0.255,0.624 0.284,1.078 0.141,1.418 l 0,0 c -0.141,0.34 -0.397,0.539 -0.765,0.624 l 0,0 c -0.34,0.085 -0.737,0.028 -1.162,-0.17 l 0,0 c -0.425,-0.198 -0.737,-0.624 -0.992,-1.219 l 0,0 c -0.368,-0.823 -0.765,-1.843 -1.248,-3.119 l 0,0 c -0.481,-1.275 -0.992,-2.522 -1.531,-3.77 l 0,0 c -0.538,-1.247 -1.076,-2.381 -1.615,-3.401 l 0,0 c -0.538,-1.02 -1.077,-1.758 -1.616,-2.211 l 0,0 c -0.481,-0.369 -0.878,-0.34 -1.218,0.113 l 0,0 c -0.34,0.425 -0.567,1.105 -0.681,2.013 l 0,0 c -0.113,0.936 -0.142,1.984 -0.085,3.203 l 0,0 c 0.057,1.247 0.255,2.438 0.624,3.629 l 0,0 c 0.425,1.53 0.34,2.493 -0.227,2.863 l 0,0 c -0.567,0.396 -1.304,0.481 -2.239,0.283 l 0,0 c -0.935,-0.227 -1.899,-0.539 -2.892,-1.021 l 0,0 c -0.964,-0.453 -1.672,-0.766 -2.097,-0.964 l 0,0 c 0.368,0.624 1.048,1.389 2.069,2.269 l 0,0 c 1.021,0.878 2.098,1.842 3.231,2.862 l 0,0 c 1.134,1.021 2.24,2.069 3.289,3.147 l 0,0 c 1.048,1.105 1.785,2.126 2.182,3.146 l 0,0 c 0.369,0.879 0.199,1.502 -0.538,1.843 l 0,0 c -0.709,0.368 -1.56,0.51 -2.552,0.396 l 0,0 c -0.991,-0.113 -1.955,-0.424 -2.863,-0.907 l 0,0 c -0.935,-0.481 -1.445,-1.105 -1.502,-1.813 l 0,0 c -0.226,-1.56 -0.936,-3.176 -2.098,-4.877 l 0,0 c -1.161,-1.7 -2.438,-3.543 -3.826,-5.499 l 0,0 c 0.056,2.949 0.141,5.896 0.283,8.816 l 0,0 c 0.114,2.948 0.227,5.612 0.34,8.079 l 0,0 c 0.114,2.437 0.255,4.507 0.368,6.18 l 0,0 c 0.114,1.672 0.199,2.749 0.256,3.203 l 0,0 c 0.141,0.708 -0.17,1.162 -0.879,1.332 l 0,0 c -0.241,0.056 -0.489,0.084 -0.744,0.084 l 0,0 c -0.525,0 -1.083,-0.12 -1.693,-0.368 m -82.319,-8.588 c -1.615,-0.199 -3.231,-0.54 -4.875,-1.078 l 0,0 c -1.616,-0.538 -3.232,-1.105 -4.848,-1.757 l 0,0 c -1.587,-0.624 -3.174,-1.276 -4.761,-1.899 l 0,0 c -1.588,-0.652 -3.176,-1.248 -4.763,-1.588 l 0,0 c -1.19,-0.255 -2.097,-0.567 -2.75,-1.134 l 0,0 c -0.624,-0.538 -1.02,-1.105 -1.162,-1.672 l 0,0 c -0.113,-0.538 0,-1.049 0.368,-1.446 l 0,0 c 0.369,-0.425 1.021,-0.567 1.928,-0.482 l 0,0 c 1.616,0.199 3.119,0.426 4.564,0.709 l 0,0 c 1.445,0.284 2.863,0.538 4.252,0.822 l 0,0 c 0.113,-3.855 0.17,-7.568 0.199,-11.055 l 0,0 c 0.028,-3.515 0.113,-5.216 0.17,-8.447 l 0,0 c 0.056,-3.26 0.084,-4.592 0.113,-7.711 l 0,0 c 0.028,-3.146 0.085,-4.591 0.198,-7.71 l 0,0 c -2.069,-0.538 -3.827,-0.935 -5.215,-1.247 l 0,0 c -1.389,-0.312 -2.495,-0.567 -3.374,-0.822 l 0,0 c -0.85,-0.227 -1.445,-0.482 -1.842,-0.766 l 0,0 c -0.369,-0.283 -0.539,-0.567 -0.539,-0.906 l 0,0 c 0,-1.446 0.68,-2.354 2.041,-2.778 l 0,0 c 1.361,-0.426 3.09,-0.482 5.159,-0.227 l 0,0 c 2.098,0.283 4.337,0.765 6.775,1.474 l 0,0 c 2.438,0.708 4.734,1.502 6.86,2.409 l 0,0 c 2.155,0.907 3.968,1.786 5.471,2.636 l 0,0 c 1.473,0.851 2.324,1.531 2.466,1.985 l 0,0 c 0.284,0.794 0.141,1.304 -0.397,1.559 l 0,0 c -0.539,0.255 -1.218,0.312 -2.069,0.226 l 0,0 c -0.283,-0.027 -0.596,-0.084 -0.964,-0.17 l 0,0 c -0.397,-0.056 -0.993,-0.198 -1.814,-0.396 l 0,0 c -0.822,-0.227 -1.956,-0.482 -3.373,-0.822 l 0,0 c -1.418,-0.34 -0.908,-0.199 -3.317,-0.823 l 0,0 c 0.028,0.086 0.595,9.836 0.68,10.914 l 0,0 c 0.171,2.24 0.255,2.579 0.227,4.79 l 0,0 c -0.029,2.183 -0.056,0.964 -0.056,3.09 l 0,0 c 0,0.907 0,3.713 0.027,5.017 l 0,0 c 0.029,1.332 -0.027,2.665 -0.17,4.025 l 0,0 c -0.113,1.361 -0.34,2.637 -0.623,3.856 l 0,0 c -0.312,1.218 -0.765,2.211 -1.417,2.92 l 0,0 c 2.353,0.567 4.337,0.991 5.981,1.332 l 0,0 c 1.616,0.34 2.976,0.623 3.996,0.879 l 0,0 c 1.05,0.283 1.815,0.567 2.268,0.878 l 0,0 c 0.454,0.284 0.681,0.681 0.681,1.134 l 0,0 c 0,0.794 -0.199,1.502 -0.624,2.069 l 0,0 c -0.397,0.596 -0.907,1.049 -1.502,1.418 l 0,0 c -0.624,0.368 -1.304,0.595 -2.013,0.708 l 0,0 c -0.492,0.076 -0.946,0.114 -1.363,0.114 l 0,0 c -0.207,0 -0.405,-0.01 -0.593,-0.028 m 28.942,-17.292 c -1.616,-1.219 -3.458,-2.239 -5.528,-3.09 l 0,0 c -2.069,-0.85 -3.996,-1.361 -5.811,-1.587 l 0,0 c -0.907,-0.085 -1.559,-0.482 -2.012,-1.134 l 0,0 c -0.454,-0.652 -0.709,-1.36 -0.737,-2.097 l 0,0 c -0.028,-0.737 0.113,-1.418 0.369,-2.069 l 0,0 c 0.283,-0.653 0.68,-0.993 1.218,-1.05 l 0,0 c 0.482,-0.085 1.105,-0.227 1.871,-0.425 l 0,0 c 0.794,-0.199 1.587,-0.482 2.381,-0.879 l 0,0 c 0.823,-0.368 1.644,-0.878 2.438,-1.445 l 0,0 c 0.822,-0.567 1.474,-1.248 2.012,-2.013 l 0,0 c 0.681,-0.907 1.163,-1.785 1.447,-2.665 l 0,0 c 0.311,-0.907 0.424,-1.729 0.368,-2.466 l 0,0 c -0.057,-0.737 -0.284,-1.361 -0.681,-1.842 l 0,0 c -0.397,-0.51 -0.878,-0.794 -1.474,-0.851 l 0,0 c -0.481,-0.056 -0.964,0.341 -1.445,1.162 l 0,0 c -0.482,0.851 -0.567,2.297 -0.255,4.31 l 0,0 c 0.113,0.964 -0.17,1.615 -0.879,1.899 l 0,0 c -0.681,0.311 -1.446,0.311 -2.325,0.028 l 0,0 c -0.878,-0.283 -1.672,-0.822 -2.437,-1.616 l 0,0 c -0.737,-0.794 -1.106,-1.786 -1.106,-3.004 l 0,0 c 0,-1.474 0.255,-2.722 0.794,-3.714 l 0,0 c 0.539,-0.992 1.247,-1.729 2.126,-2.24 l 0,0 c 0.85,-0.509 1.843,-0.793 2.948,-0.878 l 0,0 c 1.134,-0.057 2.268,0.085 3.458,0.397 l 0,0 c 1.927,0.68 3.601,1.758 5.046,3.232 l 0,0 c 1.445,1.473 2.154,3.316 2.154,5.555 l 0,0 c 0,2.07 -0.539,3.685 -1.616,4.904 l 0,0 c -1.076,1.247 -2.267,2.183 -3.6,2.807 l 0,0 c -1.303,0.651 -2.551,1.105 -3.713,1.304 l 0,0 c -1.152,0.219 -1.773,0.333 -1.941,0.314 l 0,0 c 0.205,0.032 0.625,0.145 1.261,0.394 l 0,0 c 0.652,0.227 1.446,0.482 2.381,0.794 l 0,0 c 0.936,0.283 1.927,0.624 2.976,1.02 l 0,0 c 1.049,0.369 2.041,0.738 3.005,1.106 l 0,0 c 1.077,0.453 1.672,1.105 1.842,1.984 l 0,0 c 0.143,0.879 0,1.701 -0.424,2.437 l 0,0 c -0.397,0.766 -0.993,1.333 -1.787,1.674 l 0,0 c -0.311,0.149 -0.626,0.224 -0.943,0.224 l 0,0 c -0.462,0 -0.926,-0.16 -1.381,-0.48"
               style="fill:url(#linearGradient8596);stroke:none"
               id="path11157"
               inkscape:connector-curvature="0" />
          </g>
        </g>
      </g>
    </g>
    <g
       id="g11167"
       transform="matrix(1.0803779,0,0,-1.0803757,96.753684,924.80026)">
      <path
         d="m 0,0 c -1.106,-0.113 -1.871,1.928 -2.665,2.438 0,-1.673 0.993,-4.649 3.175,-4.366 5.698,0.709 10.999,11.594 14.684,10.715 0.85,-0.198 1.502,-0.623 1.984,-2.409 1.644,5.244 -2.126,9.921 -4.961,11.339 2.126,-2.126 1.843,-4.196 1.418,-5.67 -0.17,-0.595 -0.567,-1.049 -1.078,-1.389 C 9.241,8.277 1.587,0.113 0,0"
         style="fill:#000000;fill-opacity:1;fill-rule:evenodd;stroke:none"
         id="path11169"
         inkscape:connector-curvature="0" />
    </g>
    <g
       id="g11171"
       transform="matrix(1.0803779,0,0,-1.0803757,83.217521,925.81085)">
      <path
         d="m 0,0 c 0,-1.757 -1.049,-4.819 -3.43,-4.564 -6.151,0.737 -9.751,10.857 -14.457,9.808 -2.437,-0.538 -3.713,-5.329 -3.855,-7.398 l 0,-0.34 c -3.146,5.697 0.255,13.379 5.386,16.497 1.814,1.106 0.454,-0.283 -0.198,-2.069 -1.248,-3.317 2.154,-5.669 4.563,-7.54 1.446,-1.106 5.018,-4.479 7.371,-6.095 C -1.389,-3.883 -0.992,-1.361 0,0"
         style="fill:#000000;fill-opacity:1;fill-rule:evenodd;stroke:none"
         id="path11173"
         inkscape:connector-curvature="0" />
    </g>
    <g
       id="g11175"
       transform="matrix(1.0803779,0,0,-1.0803757,82.635621,890.68416)">
      <path
         d="M 0,0 C 6.605,1.077 10.006,0.34 15.931,-1.672 L 15.817,-1.928 C 3.146,-4.734 5.046,-20.92 4.224,-23.953 c -0.822,0.34 -4.026,13.805 -9.865,15.874 -2.154,0.766 -5.159,0.681 -7.937,-0.255 l -1.389,1.361 C -10.517,-3.827 -5.528,-0.879 0,0"
         style="fill:#000000;fill-opacity:1;fill-rule:evenodd;stroke:none"
         id="path11177"
         inkscape:connector-curvature="0" />
    </g>
  </g>
</svg>
