
<svg xmlns="http://www.w3.org/2000/svg" version="1.1" xmlns:xlink="http://www.w3.org/1999/xlink" preserveAspectRatio="none" x="0px" y="0px" width="200px" height="200px" viewBox="0 0 200 200">
<defs>
<radialGradient id="Gradient_1" gradientUnits="userSpaceOnUse" cx="0" cy="0" r="91.32499999999999" fx="0" fy="0" gradientTransform="matrix( 1.0000000000000002, 0, 0, -1.0000000000000002, 99.5,100.2) " spreadMethod="pad">
<stop  offset="0%" stop-color="#52BFD6"/>

<stop  offset="100%" stop-color="#004E5E"/>
</radialGradient>

<radialGradient id="Gradient_2" gradientUnits="userSpaceOnUse" cx="0" cy="0" r="44.121455240052995" fx="0" fy="0" gradientTransform="matrix( -0.6722919685811427, 0.7402860994110939, 0.7402860994110939, 0.6722919685811427, 118.6,70.3) " spreadMethod="pad">
<stop  offset="44.31372549019608%" stop-color="#FFFFFF"/>

<stop  offset="100%" stop-color="#D8CBA3"/>
</radialGradient>

<g id="Layer0_0_FILL">
<path fill="#4E4E4D" stroke="none" d="
M 196.85 94.8
Q 195.85 76.6 188.45 59.95 182.35 46.35 172.65 35.25 162.9 24.1 150.25 16.35 138.8 9.3 125.9 5.65 113.05 2 99.75 2 97.05 2 94.35 2.15 82.7 2.75 71.45 6.15 55.9 10.85 42.55 20.55 29.2 30.3 19.75 43.8 10.3 57.35 5.75 73.3 4.7 76.95 3.95 80.65 1.4 93 2.15 105.55 2.55 112.6 3.95 119.45 4.9 124.15 6.3 128.8 7.35 132.3 7.15 167.25
L 7.1 170.95
Q 7.1 176.45 9.2 181.5 11.3 186.5 15.2 190.4 19.15 194.3 24.15 196.4 29.15 198.45 34.65 198.45
L 164.3 198.45
Q 169.8 198.45 174.8 196.4 179.8 194.3 183.75 190.4 187.65 186.5 189.75 181.5 191.8 176.45 191.8 170.95 191.8 162.55 192.2 148.45
L 192.55 129.55
Q 197.9 112.65 196.85 94.8
M 187.5 60.35
Q 194.85 76.8 195.85 94.85 196.85 112.6 191.55 129.4 191.5 135.9 191.2 148.4 190.8 162.8 190.8 170.95 190.8 176.3 188.7 181.25 186.7 185.95 183.05 189.65 179.4 193.35 174.6 195.35 169.65 197.45 164.3 197.45
L 34.65 197.45
Q 29.25 197.45 24.3 195.35 19.6 193.35 15.9 189.65 12.25 186 10.25 181.25 8.15 176.35 8.15 170.95
L 8.15 167.75
Q 8.3 132.15 7.25 128.5 5 121.05 3.95 113.5 3.4 109.5 3.15 105.5 2.65 95.95 3.95 86.6 4.9 79.8 6.85 73.1 11.3 57.65 20.55 44.4 29.85 31.15 42.75 21.65 56.05 11.85 71.75 7.1 82.95 3.75 94.4 3.15 109.05 2.3 123.4 6 137.35 9.6 149.7 17.2 162.05 24.8 171.65 35.65 181.45 46.75 187.5 60.35 Z"/>

<path fill="#FFFFFF" stroke="none" d="
M 195.85 94.85
Q 194.85 76.8 187.5 60.35 181.45 46.75 171.65 35.65 162.05 24.8 149.7 17.2 137.35 9.6 123.4 6 109.05 2.3 94.4 3.15 82.95 3.75 71.75 7.1 56.05 11.85 42.75 21.65 29.85 31.15 20.55 44.4 11.3 57.65 6.85 73.1 4.9 79.8 3.95 86.6 2.65 95.95 3.15 105.5 3.4 109.5 3.95 113.5 5 121.05 7.25 128.5 8.3 132.15 8.15 167.75
L 8.15 170.95
Q 8.15 176.35 10.25 181.25 12.25 186 15.9 189.65 19.6 193.35 24.3 195.35 29.25 197.45 34.65 197.45
L 164.3 197.45
Q 169.65 197.45 174.6 195.35 179.4 193.35 183.05 189.65 186.7 185.95 188.7 181.25 190.8 176.3 190.8 170.95 190.8 162.8 191.2 148.4 191.5 135.9 191.55 129.4 196.85 112.6 195.85 94.85
M 184.8 68.25
L 185.1 69.1
Q 189.55 81.6 190.3 95 191.3 112.05 186.15 128.1
L 186.05 128.5
Q 186 132.5 185.85 139.65
L 185.8 143.7 185.75 143.75
Q 185.7 146.6 185.6 149.9 185.55 152.35 185.5 154.65
L 185.45 157.75 185.4 157.75
Q 185.3 162.35 185.3 165.95
L 185.3 167.5
Q 185.25 169.35 185.25 170.95 185.25 179.25 179.65 185.2
L 179.1 185.75
Q 178.55 186.3 178.05 186.8
L 176.05 188.35
Q 173 190.45 169.45 191.3
L 164.85 191.9
Q 164.75 191.9 164.65 191.9 164.55 191.9 164.45 191.9 164.4 191.9 164.3 191.9
L 155.25 191.9 153.85 191.9 152.95 191.9 138.7 191.9 136.55 191.9 124.8 191.9 123.25 191.9 120.2 191.9 116.9 191.9 34.65 191.9
Q 27.1 191.9 21.4 187.2 20.9234375 186.7869140625 20.45 186.35 20.1734375 186.105078125 19.9 185.85 19.85 185.8 19.8 185.75 19.75 185.7 19.7 185.65 13.65 179.55 13.65 170.95 13.65 158.83828125 13.7 153.05
L 13.65 150.1
Q 13.65 148.55 13.65 148 13.6 142.85 13.5 138.95
L 13.45 139 13.4 137.2 13.45 136.9
Q 13.4 136.65 13.4 136.35
L 13.35 135.5 13.4 135.5
Q 13.2 132.1 13.05 129.95
L 13 129.95 13 129.7
Q 12.8 127.75 12.55 126.95 6.25 106.05 9.8 84.85 13.25 64.6 25.05 47.65 36.8 30.7 54.55 20.5 73.05 9.9 94.7 8.65 122.7 7.1 146.85 21.9 170.95 36.75 182.45 62.6 183.7 65.4 184.75 68.25
L 184.8 68.25 Z"/>

<path fill="#000000" stroke="none" d="
M 153.85 191.9
L 153.55 191.6 152.95 191.9 153.85 191.9
M 19.25 97.95
L 19.25 96.45 20.2 96.4 20.2 96.15 19.25 95.6 19.6 92.2 19.05 92.25 18.7 98.2 19.35 99.4 18.5 99.15 18.2 99.5 19.85 100.3 20.55 102.6 20.2 103.2 18.8 103.15 16.5 100.55 14.95 99.9 14.6 98.45 14.4 98.25 14.2 99.8 14.25 99.85 14.2 99.85 14.15 100.55 14.3 100.55 16 101.3 18.7 103.95 20.35 104.1 22.4 103.65 23.95 105.55 24.35 107.15 23.9 108.9 21.95 111.15 22.15 111.95 24.5 114.35 28.55 116.6 28.1 117.1 27.45 117.15 25.6 116.8 25.6 117.25 27.1 117.9 25.35 118.5 24.5 118.55 23.05 119 20.85 117.65 20.75 118.25 21.75 119.1 21.3 119.5 20.4 119.55 18.5 119.4 17.5 119.45 17.45 118.65 16.85 117.75 17.2 116.8 16.85 116.4 16.3 117 15.6 115.8 14.3 115 13.25 114.9 13.2 115.45 13.7 115.4 15 116.15 16.3 117.8 16.8 118.9 16.6 119.9 17.35 120.15 17.35 120.65 15.9 121.6 13.9 122.2 13.05 121.3 13.05 122.1 13.75 122.85 16.95 121.8 18.65 120.55 19.8 120.2 20.8 120.4 20.45 122.2 19.7 123.5 19 124.35 18.5 123.95 18.15 124.2 18.7 124.7 17.7 125.25 16.6 127.25 16.85 127.5 18 125.65 19.4 124.8 20.65 122.8 21.15 121.6 21.4 120.6 22.15 120.55 22.55 121.75 22.3 122.55 21.4 124.2 22.3 125.75 22.65 125.7 21.95 124.4 23.05 121.85 23 120.25 24.65 119.45 27 119.8 27.05 121.15 27.75 121.4 28.1 119.15 28.7 118.5 29.55 118.9 33.85 126.05 33.85 129.9 33.2 132.05 32.5 132.9 31.85 132.95 31.05 132.2 29.45 131.55 27.7 131.25
Q 27.25 131.2 27.3 131.7 27.3 132.2 27.7 132.2
L 28.75 132.1 30.25 132.45 31.7 133.9 32.4 135.25 31.75 137.95 31.75 138.9 31.25 139.5 30.05 139.1 28.7 137.75 28.15 136.1 25.1 133.05 24.25 133.1 22.8 133.5 20.6 132.2 20.5 132.75 21.5 133.6 21.05 134 20.15 134.05 18.25 133.9 17.2 133.95 17.15 133.15 16.6 132.25 16.95 131.35 16.6 130.95 16.05 131.55 15.35 130.3 14.05 129.5 13 129.45 13 129.7 13 129.95 13.05 129.95 13.45 129.95 14.75 130.65 16.05 132.3 16.55 133.4 16.35 133.75 15.35 133.7 14.35 134.05 13.4 135.5 13.35 135.5 13.4 136.35 13.45 136.7 13.45 136.9 13.4 137.2 13.45 139 13.5 138.95 13.65 138.75 13.9 136.95 13.9 135.8 14.65 134.6 15.95 134.25 16.5 134.35 16.45 136.15 16.95 136.6 17.8 136.45 18.15 135.8 18 135.65 17.65 136.1 16.95 135.95 16.95 135.05 17.6 134.75 18.4 135.05 19.55 134.75 20.5 134.9 20.2 136.7 19.45 138 18.75 138.85 18.25 138.45 17.9 138.7 18.4 139.2 17.45 139.75 17 140.7 16.3 141.75 16.6 142 17.75 140.15 19.15 139.3 20.4 137.35 20.9 136.1 21.15 135.1 21.9 135.05 22.3 136.3 22.05 137.05 21.15 138.75 22 140.25 22.4 140.25 21.7 138.9 22.8 136.35 22.75 134.8 24.4 133.95 25.8 135 28.15 139.1 29.65 140.9 30.05 142 29.75 142.35 29.05 142.1 28.3 142.4 27.4 144.05 27.7 144.3 28.65 143.15 29.75 143.4 29.55 146.2 29.75 148.15 29.05 149.8 29.3 151.4 28.75 153.4 25.45 154.05 23.45 154.7 22.1 154.15 21.65 153.45 21.45 151.75 20.5 150.15 18.85 149.2 18.85 147.65 18.55 146.3 17.4 145.55 17.4 146 18.3 146.9 18.55 147.7 18.55 148.95 17.3 148.75 16.45 149.25 15.85 148.35 15.35 148.6 15.85 149.4 15.3 150 14.4 150.3 13.65 150.1 13.7 153.05 13.9 152.95 15.65 150.95 16.95 149.8 18.25 150.15 19.55 150.75 20.2 151.8 20.55 153 20.55 154.15 20.95 155.65 21.6 156.45 22.55 156.75 28.15 155.1 28.9 155.05 29.55 158.25 29.25 161 29.85 164.2 29.25 167.55 28.8 168.55 29.15 169.4 28.5 170.8 27.25 169.5 25.65 169 23.8 169.5 23 168.1 21.7 166.8 20.55 166.3 19.1 167 14.75 172.05 13.85 173.7 13.95 174.25 13.95 174.55 14.05 174.75 14.15 175.3 14.15 175.5 14.25 175.85 14.3 175.95 14.4 176.35 14.4 176.45 17.95 170.75 20.05 169.05 21.2 169.85 21.3 170.85 20 172 19.75 172.75 17.1 174.9 18.2 175 21.45 172.1 24.55 171.9 27.05 172.6 27.6 173 27.65 174.2 27.05 176.45 25.7 179.75 22.45 182.25 20.2 182.95 19.6 184.2 18.95 184.8 19.3 185.2 19.35 185.2 19.6 185.5 19.7 185.65
Q 19.75 185.7 19.8 185.75 19.85 185.8 19.9 185.85
L 20.1 186 20.45 186.35 20.65 186.5 20.85 186.7 21.05 186.85 21.4 187.2 22.2 187.8 22.45 187.95 22.6 188.1 23.85 188.9 24.15 189.05 24.3 189.15 24.6 189.3 24.7 189.4 25.05 189.6 26.05 190.05 26.85 189.2 29.35 188.6 34.2 184.75 35.9 182.8 36.35 180.85 35.8 178.55 36.95 173.85 36.7 171 37.45 169.05 39.55 168.9 39.1 167.45 37.6 168.05 37.6 166.55 37.2 165.55 37.7 164.45 37.2 162.4 38 161.5 38.9 161.7 40.1 162.75 46.1 164.4 52.5 164.35 52.65 164.4 52.95 164.5 54.75 165 53.7 166.25 55.05 166.4 55.7 165.3 57.3 165.75 59.6 167.35 61.55 171 61.6 173.15 64.25 178.2 63.05 181.1 63.7 184.95 66.15 185.85 66.4 185.7 65.6 184.85 64.35 184.5 64.05 182.25 64.75 178.55 65.8 178.45 66.4 179.1 65.85 180.95 66.6 181.8 67.05 178.7 66.45 177.5 64.9 178 64.25 175.95 65.3 175.5 66.8 175.5 66.95 176.25 67.75 176.25 67.25 175.3 69.25 175.2 70.2 174.6 69.55 178.85 70.3 180.4 71.55 181.5 71.75 180.8 70.5 179.35 70.9 174.35 70.6 173.35 68.9 174.55 67.2 174.4 64.3 174.65 63.15 173.55 62.35 170.8 62.6 170.15 60.85 166.75 63.5 167 63.6 168.1 64.45 168 64.2 167.15 65.5 166.55 67.05 166.55 68.8 167.7 69.45 168.4 70 168.05 69.7 167.5 71.15 166.6 71.35 165.9 69.05 167.35 67.55 165.5 65.35 165.7 63.9 165.65 61.5 165.85 55.15 163.2 58.3 159.35 59.75 159 60.45 159.4 61.45 160.7 63.05 161.5 64.95 161.35 65.65 162.65 66.65 163.6 68.05 163.6 67.75 163.15 66.6 162.9 65.95 162.45 65.35 161.35 66.6 160.85 67.05 159.95 68.05 160.4 68.3 159.9 67.5 159.45 67.7 158.7 68.3 157.95 69.65 157.5 71.15 157.9 73 157.45 73.05 157.4 73.1 157.45 73.45 158.15 74 158.05 74 157.9 74.05 157.3 74.9 157.3 75.85 156.05 75.4 155.7 74.75 156.45 73.5 156.9 72.3 157.1 71 157.3 69.8 157.05 69.9 156.7 71.05 156.5 71.1 156.45 71.55 156.1 71.25 155.65 70.6 156.05 70.4 156.15 69.5 156.4 68.85 156.1 69.85 155.85 70.2 155.7 70.95 154.5 71.5 154.15 71.65 153.7 70.75 154 70 155.3 69.25 155.5 68.8 155.6 68.5 155.1 68.4 154.9 68.9 154.3 69.75 153.7 70 152.75 70.45 151.7 69.85 151.8 69.3 153.25 68.1 154.45 67.95 154.75 67.5 155.45 66.35 159.8 65 160.25 63.6 160.45 62.55 159.95 61.65 159.15 61.1 158.2 60 157.2 59.05 156.9 58.1 157.15 56 159.6 54.75 161.65 53.35 162.6 47 162.45 43.7 162 41.05 161.2 38.5 159.2 38.35 157.65 37.65 156.9 37.05 154.55 37.45 153.3 38.9 152.2 43.25 151.05 45.9 149.9 49.1 147.6 49.75 148.2 49.45 150.5 49.9 151.5 50.95 152.55 50.5 153.7 50.9 154.1 51.4 152.8 52.35 153.45 53.05 154.95 54.4 156.3 54.75 155.9 53.8 154.95 53.1 153.25 51.65 152.2 50.65 151.25 51 150.05 51.75 150.8 53.45 150.5 54.75 151.1 54.75 150.45 53.4 149.8 52.1 150.3 50.9 149.2 50.35 150.2 50.35 149.35 50.65 147.75 50.05 146.8 53.15 145.25 55.5 145.15 55.65 145.15 58.35 146.05 61.9 145.25 63.4 144.2 64.9 142.55 65.35 142 67.05 141.45 69.35 142.4 71.2 141.25 72.95 141.65 74.3 142.3 74.7 142.5 76.1 144.55 76.95 147.8 78.15 149 78.9 150.5 79.1 152.2 79.95 153.95 77.85 154.75 78.5 156.25 79.75 155.5 80.9 157.6 80.6 160.4 80.5 161 81.05 162.6 81.05 164.05 79 165.75 77.6 167.35 76.3 166.8 75.75 167.4 77 167.95 76.75 169.15 74.75 170.95 74.45 171.7 74.75 173.35 75.3 174.45 75.05 174.75 76.8 175.45 77 176.25 76.1 178.9 76.6 180.8 77.65 182.4 78 181.95 77.2 180.65 76.75 178.9 77 177.8 77.7 176.15 77.7 175.2 75.85 174.15 75.2 173 75.2 171.7 77.45 169.55 78.75 167.6 80.9 165.45 81.45 166.4 81.9 165.9 81.6 165.15 85.8 164.05 89.2 164.8 90.95 165.9 90.75 170.45 89.45 172.4 89.8 174.15 89.1 174.2 89.1 174.75 90.2 175.15 89.3 178.2 91.2 183.25 91 186.65 91.6 187.25 91.85 183.1 90.1 178.25 90.75 175 90.1 173.05 91.45 170.8 91.9 167.55 91.55 165.2 90.45 163.95 91.6 163.25 91.75 162.9 92.05 162.15 91.6 160.35 91.45 160.55 91.45 161.95 91.15 162.8 91.1 162.95 89.75 163.65 87.6 163 85.75 163.05 83.3 162.6 81.75 160.9 81.8 160.75 82.25 158.5 82.2 155.25 83.5 155.15 83.5 154.4 85.1 153.6 87.15 154.15 89.45 153.75 94.55 157.2 94.95 158.85 95.25 160.1 95.55 161.35 96.75 162.55 97.9 163.35 99.55 164.5 99.55 163.85 99 163.4 96.65 161.55 96 160 95.95 159.95 95.8 158.8 95.65 157.5 99.5 157.45 99.35 156.25 95.5 156.8 93.1 154.7 91.6 153.85 91 152.15 93.35 151.5 98.2 151.4 98.55 151.05 98.35 149.85 97.6 150.55 93.1 150.25 91.5 151.05 90.45 151.55 88.3 152.2 88.2 152.2 85 151.8 81.45 153.5 80.8 152.8 79.9 149.35 78.5 146.4 78.1 144.2 81.85 142.6 83.85 142.8 89 140.65 91.4 142.3 95.05 142.05 96.25 139.85 96.15 139.45 95.35 140.05 94.8 141.35 92.65 141.4 89.45 140.15 89.6 139 90.35 138.5 91.9 139.3 92.8 138.65 92.5 138.45 90.1 137.75 88.85 138.2 88.95 139.9 87 140.35 86.8 139.2 87.15 137.6 87.85 137.55 88 136.65 87.1 137.05 87.4 134.95 87.05 133.8 90.75 135.05 92.4 134.45 93.6 133.3 93.05 133 91.4 134.15 86.95 133.1 85.95 133.3 86.7 135.2 86.15 137 85.75 140.1 84.55 141.2 81.85 141.75 81.3 141.4 77.85 142.8 76.3 140.7 75.1 140.15 73.8 139.55 73.2 137.1 74.15 135.75 74.2 135.6 75.4 135.5 76.1 136.15 76.4 135.8 74.85 134.2 73.55 135 73.05 135.25 71.7 137.6 71.7 139.45 70.45 139.9 67.7 139.3 65.9 139.4 64.15 140.4 63.2 141.5 61.75 143.15 61.1 143.3 60.75 143.1 60.55 142.75 59.8 142 59.2 140.9 58.95 139.65 59.35 138.15 59.65 137.55 60 136.85 61.6 136.5 64.1 136.3 65.1 135.85 66.35 134.75 67.75 134.35 67.95 133.7 66.9 134.1 66.05 134.15 65.35 134.95 64.7 135.4 63.2 134.65 63 132.2 63.55 130.4 63.75 129.65 64.35 128.3 65.15 127.75 64.95 127.2 63.65 128.05 63.45 128.9 62.8 128.9 62.65 129.45 63.25 130 63.1 130.4 62.45 132 62.6 133.65 61.95 135 61.2 135.55 60.45 135.6 60.2 134.7 59.7 134.9 59.95 136 59.25 136.3 59.05 136.4 58.35 137.6 57.5 136.8 57.2 136.05 57.15 134.75 56.85 134.4 56.6 135.85 57.3 137.1 58.3 138.05 57.9 140.1 58.35 141.95 59.35 143.25 59.35 143.65 58.85 143.8 56.95 143 54.75 142.6 53.15 142.7 52.85 142.7 49.4 144.3 48.35 145 47.5 144.9 47.1 144 47.05 141.85 47.4 139.7 48.9 138 49.2 137.85 53.3 135.9 55.35 135.2 56.2 133.8 56.7 131.7 56.55 130.65 55.25 129.45 55.25 127.3 55.75 124.7 56.65 123.85 62.15 122.55 67 124.6 69.75 128.75 70.25 128.6 67.85 124.4 69.1 124.35 69.25 123.75 67.3 123.95 64.2 122.65 62.75 121.3 62.75 119.9 63.3 118.45 65.55 117.5 66.8 117.6 68.1 118.9 68.7 118.4 67.35 117.3 67.2 116.55 68.6 114.95 73.25 113 77.5 113.3 77.55 112.95 74.55 112.55 73.9 112.15 72.95 112.55 72.2 112.5 68.5 114.35 68.4 112.6 67.8 112.75 68.1 114.65 66.65 116.5 63 117.4 62.35 116.05 62.2 113.9 62.95 112.55 62.5 112.4 61.75 114.15 61.85 115.7 60.75 115.05 60.7 115.65 62.05 116.2 62.45 117.85 62.1 120.35 61.5 121.4 59.55 121.7 55.4 122.8 53.5 124.6 52.4 124.4 50.85 122.85 50.8 122.05 52.25 121.1 54.15 121.25 55.25 120.4 55 120.2 54 120.75 52.25 120.5 50.9 121.5 49.85 122.05 48.85 122.1 48.25 121.25 48.05 120.2 48.05 118 48.45 116.4 49.35 116.35 51 115.2 51.4 112.35 51 112.15 50.55 114.7 49.25 115.55 48.15 115.3 47.1 113.45 46.5 111.95 46.5 110.05 46.9 107.25 48.35 106.05 48.15 105.8 46.4 106.9 45.85 110.6 45.85 112.15 45.1 111.6 44.8 111.95 45.9 113 47.3 116 47.35 117.25 46.6 117.65 44.25 115.75 42.85 113.6 42.25 113.65 42.9 115.15 41.65 115.15 42 115.7 43.4 115.8 46.6 118.65 47.1 120.4 47.15 122.25 48.7 123.35 50.2 123.65 52.7 125.5 52.7 126.55 50.75 126.65 51.1 127.55 53.25 127.4 53 129.45 54.85 131.35 54.3 133.3 50.6 134.2 47.75 135.55 47.65 135.65 45.5 137.2 44.3 139.05 43.9 142.95 44.35 146.35 44.35 146.9 43.65 147.55 40.95 148.85 37.4 149.85 35.75 149.45 34.4 148.75 33.85 146.95 33.85 144.9 34.5 142.7 35.65 142.2
Q 36.15 142 36.2 140.65 36.2 139.3 35.7 139.3
L 34.85 139.65 34.45 139.65 34.25 139.25 34.4 137.5 35.25 135.3 34.95 134.85 35.55 133.5 36.3 128.8 36.3 125.55 35.3 123.4 32.9 120.1 31.5 117.25 31.85 116.35 32.75 116.15 34.35 117.25 37.5 118.35 39.45 118.2 40.55 118.1 40.35 117.9 39.35 117.9 37.8 117.9 36.4 117.35 36.6 116.45 37.7 116.2 37.6 115.8 35.95 115.9 35.95 116.9 35.3 116.95 34.1 116.4 33.25 115.5 32.4 114.85 33.2 113.6 33.85 113.05 35.75 113.25 35.7 112.4 34.35 112.2 34 111.65 35.35 109.95 36.75 108.8 37.3 107.95 37.9 107.05 38.45 105.5 38.75 103.65 39.85 102.4 40.65 102.5 41.1 103.85 41.35 103.65 41.3 102.45 43.3 101.55 45.5 102.25 45.7 101.85 43.15 101 40.95 101.9 40.6 101.8 41.2 100.05 40.8 99.75 39.4 101.85 37.85 102.2 36.85 101.45 35.3 100.25 32.75 99.25 31.6 98.55 31.45 97.35 32.05 96.25 31.6 96 30.95 97.15 31.2 98.45 29.75 98.25 28.5 97.7 27.9 96.95 28.35 95.65 27.95 95.6 27.4 97.05 27.95 97.9 29.55 98.95 31.1 99.15 31.4 99.85 30.9 100.6 30.05 102.35 30.85 103.6 31.1 103.35 30.8 102.45 31.3 100.55 32.2 99.85 34.7 100.95 36.9 102.3 37 102.35 37.85 104.2 37.25 106.15 37.15 106.35 35.95 107.75 32.35 110.9 30.85 114.25 29.75 115.1 28.7 115.15 23.4 111.95 23.2 111.25 24.3 110 25.1 107.3 25.1 105.55 24.55 104.25 23.55 103.25 24.45 102.25 23.25 101.75 22.95 102.8 21.35 102.4 20.75 100.75 19.25 97.95
M 94.4 99.4
Q 94.05 100.1 94.15 100.7 94.2 101.45 96.35 104.15 98.35 106.65 99.7 107.85
L 99.9 107.35
Q 100.1 107.25 100.85 107.1 99.6 105.95 97.85 103.5
L 94.8 98.8 94.4 99.4
M 128.75 118.7
Q 128.6 120.15 128.25 120.55
L 128.45 120.7
Q 128.75 120.75 129.05 120.5 129.4 120.15 129.25 118.75 129.05 117.35 128.5 117.15 128.9 117.35 128.75 118.7
M 123.75 115.45
L 123.6 115.7
Q 123.4 116 123.45 116.45 123.45 117.2 123.9 117.55 123.85 117.6 123.75 117.65 123.6 117.8 123.55 118.05
L 123.65 118.45
Q 116.65 118.25 112.4 115.75 109.45 114.05 106.15 111.55
L 103.45 109.4 102.75 109.35 102.7 110.05 103 110.6 105.15 112.05 103.75 111.35 103.55 113.15
Q 103.25 115.25 102.85 116.6 102.65 117.4 102 119.7 101.55 121.4 101.45 122.3 101.3 123.85 101.75 126.4 101.75 127 101.25 127.15
L 101.5 127.35
Q 101.8 127.5 102.05 127.35 102.5 127.05 102.5 126.75
L 103.05 126.7
Q 103.55 126.4 103.4 125.85 103.3 125 103.5 124.6 104.75 123.45 104.9 122.9 105.3 121.85 104.35 121.55 103.8 121.35 103.6 121.25 103.25 121.05 103.35 120.7 103.5 120.4 104.7 119 106.1 117.45 106.5 116.85 107.35 115.7 107.35 113.5
L 110.7 115.5
Q 108.8 119.55 108.8 119.65 108.8 120.05 109.2 120.7 109.65 121.55 110.3 122 110.8 122.35 113.2 123.95 115.5 125.6 116.35 126.6 117.2 127.6 117.95 129.2 118.35 130.05 118.95 131.35 119.5 132.4 120.7 133.6 120.85 133.95 120.5 134.35
L 120.7 134.45
Q 120.95 134.55 121.2 134.45 121.6 134.35 121.6 134.1 121.45 134 121.35 133.8
L 121.25 133.55 121.5 133.85
Q 121.6 134 121.8 133.95 122 133.95 122.1 133.85
L 122.05 133.55
Q 122.3 133.55 122.35 133.35 122.4 133.2 122.15 133.05 122.35 133.05 122.35 132.85
L 122.15 132.55
Q 122.3 132.45 122.2 132.3 122.15 132.2 122.05 132.2
L 121.95 132.2
Q 122.1 131.85 121.95 131.45 121.9 131.3 121.6 131.1 121.4 130.9 121.4 130.75 121.7 128.85 121.5 128.4 121.35 128.05 120.9 128.05 120.3 128.1 119.95 128.1 119.15 128.15 118.7 126.8 117.85 124 117.85 123.95 117.05 121.75 116.25 120.95 115.45 120.15 114.05 119.95
L 112.8 119.85 113.8 118.9
Q 114.35 118.45 115 117.7
L 113.1 116.7
Q 116 118 119.6 118.75 122.6 119.35 124.1 119.3 123.85 119.5 123.75 119.95 123.65 120.6 124.3 120.35 124.2 120.45 124.1 120.55 123.95 120.85 124 121.2 124.1 121.7 125.1 121.25 125.05 121.55 125.25 121.75 125.45 121.95 125.8 121.9 126.35 121.75 126.8 121.1 127.3 120.45 127.45 119.6 127.5 119.1 127.4 118.15 127.4 117.3 127 116.35 126.5 115.35 125.7 114.85 124.85 114.35 124.3 114.8 123.85 115.2 124.05 116.2 124.2 116.7 124.4 117.15 124.05 116.75 123.9 116.3
L 123.75 115.45
M 124.35 115.95
Q 124.25 115.25 124.6 115.1 125.25 114.8 126.3 116 126.7 116.5 127 117.15 126.1 115.9 125.45 115.5 124.95 115.2 124.7 115.5 124.4 115.75 124.5 116.65 124.4 116.35 124.35 115.95
M 126.2 121.2
Q 125.75 121.5 125.75 121.2
L 125.8 120.85
Q 126.25 120.65 126.5 120.3 127.1 119.8 127.25 119.15 127.25 119.7 126.95 120.3 126.7 120.9 126.2 121.2
M 127.35 116.9
L 127.5 117.45
Q 127.65 118.1 127.65 118.85 127.6 119.95 127.35 120.5
L 127.65 120.55
Q 128 120.5 128.3 120.1 128.6 119.7 128.2 118.5 127.8 117.4 127.35 116.9
M 128.1 117.1
L 127.7 117.05 128.3 118.45
Q 128.55 119.15 128.55 119.45 128.8 118.6 128.6 117.7 128.5 117.2 128.1 117.1
M 143.45 116.55
Q 143.65 116.85 144.2 116.9 144.75 116.95 144.9 116.8 145 116.7 145.1 116.25 145.2 115.8 145.4 115.65 145.65 115.5 145.8 115.7 145.95 115.85 145.85 116.05 145.8 116.25 145.45 116.1
L 145.6 116.3
Q 145.75 116.45 146.05 116.3 146.35 116.15 146.2 115.6 146 115.1 145.55 115.05 144.85 114.95 144.6 115.6 144.45 116.35 144.35 116.45 144.25 116.55 144 116.55 143.8 116.5 143.7 116.35 143.55 115.25 143.45 114.95 143.35 114.7 142.8 114.55 142.25 114.35 141.8 114.5 141.5 114.6 140.65 115.4 139.55 116.5 138.65 117.1 137.6 117.85 136.25 117.85
L 135.1 117.7 135.95 117.75
Q 136.95 117.7 137.75 117.3 138.7 116.95 139.4 116.35 140.1 115.75 140.2 115.3 140.35 114.8 139.95 114.5 139.5 114.15 139.1 114.4 138.8 114.6 138.8 115 138.8 115.4 139.05 115.55 139.35 115.7 139.55 115.4 139.8 115.15 139.45 114.9 139.7 115.15 139.45 115.25 139.2 115.35 139.1 115.1 139 114.8 139.3 114.65 139.7 114.5 139.9 114.95 140.05 115.4 139.7 115.75 139.35 116.25 138.45 116.25 137.45 116.25 136.35 115.55 135.15 114.8 133.75 114.5 132.25 114.2 131.15 114.55 129.9 115.05 129.15 116.85
L 129.05 117.35 129.3 117.95
Q 129.5 118.65 129.55 119.3 129.55 120.4 129.3 120.95 129.3 121.25 131.05 122.5 133.05 123.95 134.8 124.15 136.65 124.35 138.2 123.75 139.55 123.2 140.15 122.3 140.9 121.15 140.8 120.55 140.85 121.2 139.75 122.3 139.1 122.95 137.95 123.2
L 136.9 123.35
Q 138.9 122.7 139.8 121 139.9 120.8 141.25 118.15 142.15 116.45 142.4 116.2 142.9 115.7 143.45 116.55
M 142.7 114.95
Q 142.25 114.85 141.75 115.35 141.3 115.8 140.25 117.6 139 119.8 138.7 120.25 137.85 121.45 137.05 122 135.85 122.75 134.3 122.65 131.65 122.5 130 120.35
L 131.7 121.6
Q 133.7 122.7 135.5 122.2 137.35 121.7 138.7 119.75 139.45 118.65 140.4 116.75 141.5 115 142.2 114.9 142.5 114.85 142.7 114.95
M 130.15 116.6
L 130.7 115.75
Q 131.45 114.85 132.55 114.75 134.25 114.7 136.35 115.8 133.8 114.85 132.45 115.05 131.5 115.2 130.75 115.9
L 130.15 116.6
M 132.85 120.6
Q 134.05 120.9 135.25 120.65 137.45 120.2 138.35 118.85 137.4 120.5 135.25 120.95 133.95 121.25 132.55 120.65
L 131.55 120.1
Q 132.8 120.6 132.85 120.6
M 112.95 84.6
L 111.4 86.05 112.2 86.65
Q 111.15 86.1 110.95 86.15 110.8 86.15 110.4 86.85
L 110.05 87.5 111.35 88.15
Q 108.15 87.3 105.8 87.35 101.7 87.55 101.4 88.3 101.3 88.55 101.6 88.65 102.4 88.85 102.65 88.95 103.5 89.3 104.6 89.95 104.7 89.95 105.25 89.6 105.8 89.35 105.75 89.55
L 105.35 90.3 108.75 91.6 109.1 90.7
Q 108.95 92.1 109.05 92.95 109.3 95.35 109.75 95.65 109.85 95.8 110.7 95.65 111.65 95.5 112.2 95.15 112.65 94.9 113 94.35
L 112.95 94.55
Q 112.55 95.35 111.9 95.55
L 112.1 96.85
Q 112.1 97.35 111.5 98.25 110.85 99.15 110.1 99.8
L 107.7 101.5 107.7 101.95
Q 107.8 102.5 108.3 103.05 109 103.95 110.1 103.95
L 110.4 104.4
Q 111.1 100.85 111.9 98.6 112.25 97.55 113 97.2 113.35 97 113.65 97.05 112.95 97.2 112.45 98 112.15 98.5 111.55 100.7 111.25 101.85 110.85 103.4
L 110.4 105 109 105.4
Q 106.05 107.35 104.8 107.7 104 107.9 102.7 107.6 101.9 107.4 101.5 107.2 101.35 107.15 100.7 107.35 100.1 107.55 100 107.65 99.9 107.8 99.85 108.25 99.75 108.75 99.8 108.9 99.9 109 100.25 108.95
L 100.5 108.1 101.15 107.75 100.7 108.15
Q 100.45 108.55 100.45 109.2 100.5 109.4 100.95 109.45
L 101.4 108.3 101.1 109.65
Q 101.15 109.75 101.35 109.85 101.55 109.95 101.6 109.9
L 102.05 108.7 102 110
Q 102 110.4 102.35 110.4 102.6 110.4 102.7 110.3 102.5 110.2 102.5 110.1 102.5 110.05 102.65 109.1 102.7 109.05 104.35 109.35 104.65 109.3 104.85 108.95 105.05 108.5 105.1 108.5
L 108.85 108.05
Q 111.3 107.65 111.4 107.4 111.85 106.95 112.9 104.75
L 114.05 101.5 113.4 104.05
Q 112.85 105.45 112.3 106.5
L 112.8 107.05
Q 112.8 107.15 112.9 107.7 113 108.3 112.95 108.5 112.7 108.95 110.75 108.95 110.25 108.9 109.55 108.7
L 108.95 108.45 108.85 108.85
Q 108.75 109.4 108.85 110.1 109 111.25 109.55 112.6 109.15 111.95 108.8 110.85 108.55 110.2 108.5 109.6
L 108.5 109.15 104.55 110.05
Q 104.6 110.1 106.75 111.8 109.2 113.7 110.9 114.7 112.65 115.75 114.4 116.5 115.9 117.15 115.95 117.1
L 116.35 116.75
Q 115.4 116.4 114.95 116.15
L 114.15 115.6 114.8 115.95
Q 115.55 116.3 116.35 116.45 117.95 116.85 119.5 116.15 119.8 116 120.45 115.5 121 115.15 121.35 115.1 121.75 115 122.05 115.2 122.3 115.4 122.25 115.7 122.2 115.95 121.9 116 121.65 116 121.55 115.8
L 121.6 115.4
Q 121.5 115.45 121.45 115.55 121.3 115.7 121.35 115.9 121.45 116.2 121.8 116.35 122.15 116.5 122.55 116.25 122.95 116 122.85 115.45 122.75 115 122.4 114.65 122.05 114.35 121.8 114.1 121.45 113.7 121.35 113.25 121.15 112 121 111.05 120.65 109.3 120.3 108.9 119.5 108.05 117.8 107.45 116.1 106.95 115.75 106.75 115.2 106.5 114.95 105.35 114.7 104.3 114.85 103.25 115 102 115.6 100.85 116.65 102 118.35 102.6 119.8 103.15 120.75 103 121.4 102.9 122.05 102.1 122.4 101.75 122.75 101.2 123.05 101 123.15 101.15 123.15 101.3 123.3 101.5 123.5 101.8 123.95 101.75 124.6 101.7 124.5 100.95 124.45 101.5 124 101.5 123.5 101.55 123.35 100.75 123.3 100.55 123 100.6 122.7 100.65 122.65 100.75 122.6 100.9 122.2 101.3 121.65 101.75 121.25 101.95 120.7 102.2 119.9 102.15
L 119.2 102 119.95 101.9
Q 120.85 101.7 121.55 101.2 122.15 100.75 123.15 99.4 124 98.1 124.1 98.1 124.3 98 124.75 98.05 125.25 98.1 125.35 98.2 125.4 98.25 125.5 98.75 125.65 99.25 125.8 99.4 126 99.6 126.95 99.5 127.8 99.4 128.05 99.2 128.3 99 128.4 98.05 128.55 96.95 128.65 96.65 128.8 96.25 129.1 96.05 129.3 95.95 129.4 96 129.55 96.05 129.55 96.2 129.6 96.35 129.5 96.4 129.15 96.65 129.1 96.9 129.05 97.1 129.3 97.3 129.55 97.55 129.9 97.5 130.5 97.3 130.55 96.75 130.2 97.25 129.8 97.2 129.5 97.15 129.55 96.95 129.6 96.8 129.8 96.65 130.4 96.35 130.4 96.1 130.35 95.85 130.05 95.65 129.7 95.45 129.35 95.4 128.65 95.35 128.3 96.15 128 97.5 127.8 97.85 127.65 98.1 127.2 98.1 126.8 98.1 126.7 98 126.6 97.9 126.5 97.55 126.4 97.15 126.45 96.85 126.65 96.05 126.4 95.9 126.15 95.75 125.45 95.45 124.6 95.1 124.3 95.2 123.35 96 122.25 96.2 121.3 96.4 120.35 94.8 122 94.95 122.5 94.3 122.75 93.8 121.2 92.6
L 118.45 90.65
Q 117.45 90 116 89.3
L 114.7 88.7 116.1 89.1
Q 116.8 89.3 117.3 89.55 117.45 88.65 117.7 87.9 118.05 86.5 118.15 86.6
L 118.35 86.85 118.7 86.75 118.8 85.5
Q 118.9 85.45 119 85.85 119.45 85.85 119.5 85.75 119.5 85.1 119.65 85 119.8 85 119.95 85.45
L 120.4 85.2
Q 120.9 85 121.25 85.05 121.55 85.1 121.95 85.85 122.2 86.35 122.3 86.7 122.4 86.9 123.2 86.8 123.3 86.75 123.6 86.25
L 123.75 86.45
Q 123.95 86.75 124.25 86.85 124.6 86.95 124.9 86.75 125.25 86.55 125.2 86.15 125.15 85.8 124.8 85.75 124.5 85.7 124.4 85.95 124.3 86.15 124.4 86.25 124.45 86.35 124.5 86.35 124.5 86.3 124.5 86.25 124.55 86.1 124.65 86.1 124.85 86.05 124.85 86.3 124.9 86.5 124.6 86.65 124.35 86.8 124.1 86.55 123.9 86.35 123.9 86.1
L 123.9 85.9 123.45 85.85
Q 123.2 86.5 123.05 86.55 122.7 86.65 122.5 86.45
L 122.05 84.25
Q 122 84.1 121.65 83.9 121.35 83.7 121.25 83.75 121 84.1 120.8 84.15 120.7 84.15 120.3 83.55 119.85 82.9 119.8 82.9
L 117.1 82.8
Q 117.15 83.35 117.1 83.45 117.1 83.55 117 83.55 116.85 83.55 116.8 83.4
L 116.55 82.95 116.1 82.9
Q 116.4 83.2 116.25 83.35 115.7 83 115.55 82.95 113.8 83.85 112.95 84.6
M 114 86.05
Q 114.55 86.35 114.65 86.5 114.75 86.7 114.25 87.95 113.75 89.25 113.45 89.25 113.2 89.25 112.7 89.05 112.05 88.75 112 88.5 111.95 88.25 112.55 87.15 113.1 86.05 113.3 85.9 113.35 85.8 114 86.05
M 104.2 88.35
L 106.25 88.55
Q 108.7 88.85 110.65 89.45 113.2 90.2 116.25 92.25 114.15 91 110.8 89.85 108.7 89.15 106.25 88.65
L 104.2 88.35
M 113.5 92.6
Q 116 98.3 119.4 98.15 121.5 98.1 123.4 96.45 122.9 96.95 121.95 97.55 119.1 99.25 116.8 97.65 115.4 96.7 114.3 94.55
L 113.5 92.6
M 124.9 97.25
Q 124.05 97.1 123.4 97.85 122.3 99.2 121.95 99.55 120.75 100.6 119.35 100.75 118.05 100.9 116.65 100
L 115.5 99.05 116.85 99.95
Q 118.5 100.75 119.85 100.45 121.1 100.15 122.2 99 122.75 98.35 123.6 97.4 124.2 97.05 124.9 97.25
M 113.8 86.55
Q 113.6 86.45 113.45 86.45 113.35 86.5 112.95 87.3 112.5 88.1 112.55 88.25 112.55 88.4 112.9 88.55 113.25 88.7 113.35 88.6 113.5 88.4 113.75 87.75 114.1 87 114.05 86.75 114.05 86.65 113.8 86.55
M 163.05 73.15
L 164.3 71.7 162.6 71 162.15 72.5 159.8 71.9 159 69.55 156.85 65.5 156.8 63.3 158.15 63.25 158.15 62.9 156.8 62.15 157.3 57.2 156.6 57.25 155.95 65.9 156.9 67.6 155.75 67.2 155.3 67.75 157.65 68.9 158.75 72.2 158.15 73.05 156.15 73 156.05 72.85 152.85 69.25 150.55 68.35 150.05 66.2 149.55 65.7 146.85 64.3 146.95 63.2 146.45 62.8 145.65 64.2 144 63.8 143.65 63.7 142.9 62.55 142.6 61.4 142.85 61.3 144.2 60.7 143.85 60 142.3 60.7 141.8 59.35 139.05 58.15 138.65 58.65 139.6 59.1
Q 140.1 59.3 140.6 59.55
L 141.25 59.85 141.3 60 143.1 64.7 143.75 64.8 146.9 65.35 149.3 66.85 149.6 68.25 147.8 68.8 146.95 67.55 146.2 67.6 147.4 69.3 145.3 69.9 144.45 69 142.4 69.15 141.25 68.8 140.3 67 139.4 67.95 141.25 70 143.9 69.8 144.8 70.7 142.75 73.05 139.25 75.45 140.15 76.2 143.55 73.75 146.3 70.55 149.65 69.2 152.15 70.3 155.95 74.15 156.65 74.2 158.35 74.35 161.3 73.75 163.6 76.45 164.2 78.75 163.55 81.3 160.7 84.55 160.95 85.75 164.4 89.2 170.25 92.4 169.6 93.15 168.65 93.25 166 92.75 166 93.35 168.15 94.3 165.6 95.2 164.4 95.25 162.3 95.9 162.05 95.75 159.15 94 159 94.8 160.4 96.05 159.8 96.55 158.5 96.65 155.75 96.45 154.25 96.55 154.2 95.4 153.3 94.1 153.85 92.7 153.3 92.2 152.55 93.05 151.5 91.25 149.65 90.1 146.8 89.9 144.7 91.2 144.9 91.95 146.65 90.85 148.8 90.7 150.65 91.75 152.55 94.1 153.25 95.75 152.95 97.2 154.05 97.5 154.1 98.25 152 99.6 149.15 100.5 147.65 99 146.85 99.4 148.95 101.45 153.55 100 155.95 98.1 157.55 97.6 159 97.9 158.5 100.55 157.5 102.4 156.45 103.65 155.75 103 155.25 103.4 156 104.1 154.55 104.9 153.95 106.25 152.9 107.8 153.3 108.15 155 105.45 157.05 104.3 158.85 101.4 159.55 99.65 159.9 98.2 161.05 98.1 161.55 99.9 161.2 101 159.9 103.4 161.15 105.6 161.75 105.6 160.7 103.65 162.25 100.25 162.3 100.05 162.25 97.75 164.6 96.5 168.05 97.05 168.05 99 169.1 99.35 169.6 96.15 170.45 95.2 171.7 95.7 177.85 106.05 177.95 111.65 177 114.75 175.95 115.95 174.95 116 173.85 114.95 171.5 114.05 169 113.55
Q 168.4 113.45 168.4 114.2 168.45 114.95 169 114.95
L 170.55 114.85 172.7 115.35 174.8 117.4 175.75 119.35 174.85 123.25 174.9 124.65 174.15 125.5 172.45 124.95 170.45 122.95 169.7 120.6 165.25 116.15 164 116.2 161.9 116.85 160.3 115.9 158.75 114.95 158.65 115.75 160 117 160 117.05 159.4 117.5 158.1 117.6 155.4 117.4 153.85 117.5 153.85 116.35 152.95 115.05 153.5 113.7 152.9 113.15 152.2 114 151.15 112.2 149.25 111.1 146.45 110.85 144.3 112.15 144.55 112.95 146.3 111.8 148.4 111.65 150.3 112.7 152.15 115.1 152.9 116.75 152.6 117.2 151.2 117.15 149.75 117.6 148.25 119.75 148.45 121.45 148.2 124.25 146.45 125.85 146.95 126.4 148.75 124.45 149.15 121.75 149.1 120.15 150.15 118.45 152.05 118 152.85 118.05 152.9 118.95 152.8 120.65 153.45 121.3 154.7 121.05 155.25 120.15 155.05 119.95 154.5 120.6 153.5 120.35 153.5 119.1 154.45 118.65 155.55 119.05 157.2 118.6 158.65 118.85 158.15 121.5 157.1 123.35 156.05 124.6 155.35 123.95 154.9 124.35 155.6 125.1 154.15 125.85 153.6 127.2 152.55 128.75 152.9 129.1 154.6 126.4 156.7 125.25 157.85 123.45 158.5 122.35 159.2 120.6 159.55 119.15 160.65 119.1 161.15 120.85 160.85 121.95 159.55 124.35 160.8 126.55 161.35 126.55 160.3 124.65 161.9 121 161.9 118.7 164.25 117.5 166.25 119 169.7 125 171.85 127.5 172.45 129.05 172 129.6 170.95 129.25 169.9 129.65 168.55 132 168.95 132.4 170.4 130.8 171.95 131.15 171.7 135.15 171.95 137.95 171 140.35 171.3 142.7 170.55 145.6 165.75 146.5 162.85 147.45 160.9 146.7 160.3 145.65 160 143.2 158.6 140.85 156.25 139.5 156.25 137.3 155.75 135.3 154.15 134.2 154.15 134.9 155.4 136.2 155.8 137.3 155.8 139.15 153.95 138.8 152.75 139.55 151.9 138.25 151.2 138.65 151.9 139.8 151.1 140.7 149.85 141.1 147.95 140.55 147.9 140.5 146.45 138.8 143.8 137.95 143.8 136.65 143.1 136.35 142.55 137.2 141.55 136.6 139.5 137.35 139.8 138.2 141.1 137.75 142.9 138.2 146.2 139.75 147.4 141 147.1 141.4 145.45 140.75 144.7 140.75 144.75 141.6 145.8 141.6 146.7 141.9 147.35 142.1 147.95 143 146.15 142.5 146.05 142.45 144.3 143.25 143.35 143.3 142.95 143.8 144.2 144.1 145.25 143.5 146 143.05 147.65 143.7 147.65 144.85 146.6 145.25 145.15 145.3 144.3 146.3 142.95 147.25 143.75 147.6 145.45 146.2 147.7 145.75 149.05 144.9 151.65 142 153.5 140.35 155.4 140.85 157.25 141.8 158.15 143.25 158.7 144.95 158.7 146.65 159.3 148.8 160.25 150 161.55 150.45 169.65 148 170.75 147.95 171.65 152.6 171.25 156.5 172.1 161.1 171.25 166 170.6 167.4 171.1 168.7 170.2 170.65 168.35 168.85 166.05 168.1 163.35 168.8 162.2 166.8 160.3 164.9 158.7 164.2 156.6 165.2 150.3 172.5 145.7 181.4 143.3 184.1 142.6 181.9 141.45 183.75 142.25 185.3 140.55 187.25 137 189.4 131.3 189.9 128.65 188.65 120.8 189.25 118.2 185.8 113.15 184.4 110.35 187.25 110.35 187.6 111.95 187.1 113.25 185.55 116.15 186.45 119.95 189.75 119.35 191.25 118.15 191.6 116.35 189.8 114.85 190.25 115.2 190.65 116.9 191.9 120.2 191.9 120.55 190.3 123.4 190.6 123.25 191.9 124.8 191.9 124.95 191.5 127.05 190.55 130.95 191.15 131.55 191.85 136.8 191.55 136.55 191.9 138.7 191.9 144.1 186.9 146.5 185.05 149.45 185.25 149.2 184.35 147.45 184.3 147.2 183.65 151.95 175 154.95 170.6 157.95 168.2 159.6 169.3 159.8 170.8 157.9 172.4 157.55 173.5 153.7 176.6 155.3 176.75 160 172.55 164.5 172.25 168.05 173.3 168.9 173.9 168.9 175.6 168.1 178.8 166.15 183.65 161.45 187.25 158.15 188.2 157.3 190.05 155.25 191.9 164.3 191.9
Q 164.4 191.9 164.45 191.9 164.55 191.9 164.65 191.9 164.75 191.9 164.85 191.9
L 169.45 191.3
Q 171.7 190.7 173.8 189.6 174.95 189 176.05 188.35
L 178.05 186.8
Q 178.55 186.3 179.1 185.75
L 179.65 185.2
Q 180.35 184.4 181.05 183.45
L 180.75 181.85 182.4 175.1 181.95 171 183.1 168.15 185.25 168 185.3 167.5 185.3 165.95 183.3 166.7 183.25 164.5 182.7 163.15 183.4 161.5 182.7 158.55 183.9 157.25 185.2 157.6 185.4 157.75 185.45 157.75 185.5 154.65 184.6 153.95 184.4 151.65 183.35 150.65 182.55 147.25 183.05 145.45 185.2 143.9 185.75 143.75 185.8 143.7 185.85 139.65 183.05 140.4 180.65 139.9 178.7 138.85 177.95 136.25 177.85 133.3 178.85 130.15 180.5 129.45
Q 181.3 129.1 181.3 127.15 181.3 125.2 180.55 125.25
L 179.3 125.7 178.75 125.75 178.45 125.1 178.7 122.6 179.9 119.4 179.55 118.75 180.35 116.8 181.45 110.05 181.4 105.4 180 102.25 176.5 97.5 174.5 93.35 175 92.1 176.3 91.8 178.6 93.35 183.15 95 184.55 94.85 184.45 94.3 183.6 94.3 181.6 93.5 181.85 92.25 183.45 91.85 183.3 91.3 180.95 91.45 180.95 92.85 179.95 92.9 178.3 92.1 177 90.85 175.8 89.95 176.95 88.15 177.9 87.35 180.65 87.6 180.55 86.35 178.65 86.1 178.15 85.3 180.1 82.8 187.3 76.9 187.4 76.7
Q 187.35 76.35 184.55 77.75 181.75 79.15 181.65 78.75
L 180.95 79.65 175.75 84.2 174.4 86.8 173.6 89.05 172 90.3 170.45 90.35 162.8 85.7 162.5 84.75 164.05 82.9 165.25 78.95 165.25 76.45 164.45 74.6 163.05 73.15
M 185.1 69.1
L 184.8 68.25 184.75 68.25 182.55 67.45 180.85 66.35 180.6 64.7 181.55 63.05 180.85 62.65 179.9 64.35 180.3 66.25 178.2 65.95 176.35 65.1 175.5 64.05 176.15 62.2 175.55 62.15 174.8 64.15 175.6 65.4 177.9 66.9 180.15 67.25 180.6 68.2 179.9 69.3 178.65 71.9 179.8 73.6 180.15 73.3 179.7 72 180.45 69.3 181.75 68.25 185.3 69.85 185.1 69.1 Z"/>

<path fill="url(#Gradient_1)" stroke="none" d="
M 124.95 191.5
L 124.8 191.9 136.55 191.9 136.8 191.55 131.55 191.85 130.95 191.15 127.05 190.55 124.95 191.5
M 120.55 190.3
L 120.2 191.9 123.25 191.9 123.4 190.6 120.55 190.3
M 89.75 163.65
L 91.1 162.95 91.15 162.8
Q 86.7 162.2 82.3 160.9 82.05 160.85 81.8 160.75
L 81.75 160.9 83.3 162.6 85.75 163.05 87.6 163 89.75 163.65
M 146.7 141.9
Q 146.4 142.2 146.15 142.5
L 147.95 143 147.35 142.1 146.7 141.9
M 68.5 155.1
L 68.8 155.6 69.25 155.5
Q 68.85 155.3 68.5 155.1
M 70.4 156.15
Q 70.1 155.95 69.85 155.85
L 68.85 156.1 69.5 156.4 70.4 156.15
M 72.3 157.1
Q 71.65 156.8 71.05 156.5
L 69.9 156.7 69.8 157.05 71 157.3 72.3 157.1
M 20.45 186.35
Q 20.9234375 186.7869140625 21.4 187.2
L 21.05 186.85 20.85 186.7 20.65 186.5 20.45 186.35
M 20.1 186
L 19.9 185.85
Q 20.1734375 186.105078125 20.45 186.35
L 20.1 186
M 20.55 154.15
L 20.55 153 20.2 151.8 19.55 150.75 18.25 150.15 16.95 149.8 15.65 150.95 13.9 152.95 13.7 153.05
Q 13.65 158.83828125 13.65 170.95 13.65 179.55 19.7 185.65
L 19.6 185.5 19.35 185.2 19.3 185.2 18.95 184.8 19.6 184.2 20.2 182.95 22.45 182.25 25.7 179.75 27.05 176.45 27.65 174.2 27.6 173 27.05 172.6 24.55 171.9 21.45 172.1 18.2 175 17.1 174.9 19.75 172.75 20 172 21.3 170.85 21.2 169.85 20.05 169.05 17.95 170.75 14.4 176.45 14.4 176.35 14.3 175.95 14.25 175.85 14.15 175.5 14.15 175.3 14.05 174.75 13.95 174.55 13.95 174.25 13.85 173.7 14.75 172.05 19.1 167 20.55 166.3 21.7 166.8 23 168.1 23.8 169.5 25.65 169 27.25 169.5 28.5 170.8 29.15 169.4 28.8 168.55 29.25 167.55 29.85 164.2 29.25 161 29.55 158.25 28.9 155.05 28.15 155.1 22.55 156.75 21.6 156.45 20.95 155.65 20.55 154.15
M 22.5 161.75
Q 22.85 161.75 22.85 162.25 22.85 162.75 22.5 162.75 22.15 162.75 22.15 162.25 22.15 161.75 22.5 161.75
M 13.45 136.7
L 13.4 136.35
Q 13.4 136.65 13.45 136.9
L 13.45 136.7
M 13.45 129.95
L 13.05 129.95
Q 13.2 132.1 13.4 135.5
L 14.35 134.05 15.35 133.7 16.35 133.75 16.55 133.4 16.05 132.3 14.75 130.65 13.45 129.95
M 14.65 134.6
L 13.9 135.8 13.9 136.95 13.65 138.75 13.5 138.95
Q 13.6 142.85 13.65 148 13.65 148.55 13.65 150.1
L 14.4 150.3 15.3 150 15.85 149.4 15.35 148.6 15.85 148.35 16.45 149.25 17.3 148.75 18.55 148.95 18.55 147.7 18.3 146.9 17.4 146 17.4 145.55 18.55 146.3 18.85 147.65 18.85 149.2 20.5 150.15 21.45 151.75 21.65 153.45 22.1 154.15 23.45 154.7 25.45 154.05 28.75 153.4 29.3 151.4 29.05 149.8 29.75 148.15 29.55 146.2 29.75 143.4 28.65 143.15 27.7 144.3 27.4 144.05 28.3 142.4 29.05 142.1 29.75 142.35 30.05 142 29.65 140.9 28.15 139.1 25.8 135 24.4 133.95 22.75 134.8 22.8 136.35 21.7 138.9 22.4 140.25 22 140.25 21.15 138.75 22.05 137.05 22.3 136.3 21.9 135.05 21.15 135.1 20.9 136.1 20.4 137.35 19.15 139.3 17.75 140.15 16.6 142 16.3 141.75 17 140.7 17.45 139.75 18.4 139.2 17.9 138.7 18.25 138.45 18.75 138.85 19.45 138 20.2 136.7 20.5 134.9 19.55 134.75 18.4 135.05 17.6 134.75 16.95 135.05 16.95 135.95 17.65 136.1 18 135.65 18.15 135.8 17.8 136.45 16.95 136.6 16.45 136.15 16.5 134.35 15.95 134.25 14.65 134.6
M 22.5 143.75
Q 22.85 143.75 22.85 144.25 22.85 144.75 22.5 144.75 22.15 144.75 22.15 144.25 22.15 143.75 22.5 143.75
M 37.3 107.95
L 36.75 108.8 35.35 109.95 34 111.65 34.35 112.2 35.7 112.4 35.75 113.25 33.85 113.05 33.2 113.6 32.4 114.85 33.25 115.5 34.1 116.4 35.3 116.95 35.95 116.9 35.95 115.9 37.6 115.8 37.7 116.2 36.6 116.45 36.4 117.35 37.8 117.9 39.35 117.9
Q 37.9 113 37.3 107.95
M 37.05 111.9
Q 36.7 111.9 36.7 111.45 36.7 110.9 37.05 110.9 37.4 110.9 37.4 111.45 37.4 111.9 37.05 111.9
M 49.75 148.2
L 49.1 147.6 45.9 149.9 43.25 151.05 38.9 152.2 37.45 153.3 37.05 154.55 37.65 156.9 38.35 157.65 38.5 159.2 41.05 161.2 43.7 162 47 162.45 53.35 162.6 54.75 161.65 56 159.6 58.1 157.15 59.05 156.9 60 157.2 61.1 158.2 61.65 159.15 62.55 159.95 63.6 160.45 65 160.25 66.35 159.8 67.5 155.45 67.95 154.75
Q 63.65 152.25 59.8 149.05 57.55 147.2 55.5 145.15
L 53.15 145.25 50.05 146.8 50.65 147.75 50.35 149.35 50.35 150.2 50.9 149.2 52.1 150.3 53.4 149.8 54.75 150.45 54.75 151.1 53.45 150.5 51.75 150.8 51 150.05 50.65 151.25 51.65 152.2 53.1 153.25 53.8 154.95 54.75 155.9 54.4 156.3 53.05 154.95 52.35 153.45 51.4 152.8 50.9 154.1 50.5 153.7 50.95 152.55 49.9 151.5 49.45 150.5 49.75 148.2
M 57.95 148.7
Q 58.35 148.7 58.35 149.2 58.35 149.65 57.95 149.65 57.6 149.65 57.6 149.2 57.6 148.7 57.95 148.7
M 49.2 137.85
L 48.9 138 47.4 139.7 47.05 141.85 47.1 144 47.5 144.9 48.35 145 49.4 144.3 52.85 142.7 53.15 142.7
Q 51.05 140.35 49.2 137.85
M 47.65 135.65
Q 45.35 132.2 43.5 128.45 41 123.4 39.45 118.2
L 37.5 118.35 34.35 117.25 32.75 116.15 31.85 116.35 31.5 117.25 32.9 120.1 35.3 123.4 36.3 125.55 36.3 128.8 35.55 133.5 34.95 134.85 35.25 135.3 34.4 137.5 34.25 139.25 34.45 139.65 34.85 139.65 35.7 139.3
Q 36.2 139.3 36.2 140.65 36.15 142 35.65 142.2
L 34.5 142.7 33.85 144.9 33.85 146.95 34.4 148.75 35.75 149.45 37.4 149.85 40.95 148.85 43.65 147.55 44.35 146.9 44.35 146.35 43.9 142.95 44.3 139.05 45.5 137.2 47.65 135.65
M 176.05 188.35
Q 174.95 189 173.8 189.6 171.7 190.7 169.45 191.3 173 190.45 176.05 188.35
M 166.15 183.65
L 168.1 178.8 168.9 175.6 168.9 173.9 168.05 173.3 164.5 172.25 160 172.55 155.3 176.75 153.7 176.6 157.55 173.5 157.9 172.4 159.8 170.8 159.6 169.3 157.95 168.2 154.95 170.6 151.95 175 147.2 183.65 147.45 184.3 149.2 184.35 149.45 185.25 146.5 185.05 144.1 186.9 138.7 191.9 152.95 191.9 153.55 191.6 153.85 191.9 155.25 191.9 157.3 190.05 158.15 188.2 161.45 187.25 166.15 183.65
M 185.25 168
L 183.1 168.15 181.95 171 182.4 175.1 180.75 181.85 181.05 183.45
Q 180.35 184.4 179.65 185.2 185.25 179.25 185.25 170.95 185.25 169.35 185.3 167.5
L 185.25 168
M 183.9 157.25
L 182.7 158.55 183.4 161.5 182.7 163.15 183.25 164.5 183.3 166.7 185.3 165.95
Q 185.3 162.35 185.4 157.75
L 185.2 157.6 183.9 157.25
M 185.75 143.75
L 185.2 143.9 183.05 145.45 182.55 147.25 183.35 150.65 184.4 151.65 184.6 153.95 185.5 154.65
Q 185.55 152.35 185.6 149.9 185.7 146.6 185.75 143.75
M 170.75 147.95
L 169.65 148 161.55 150.45 160.25 150 159.3 148.8 158.7 146.65 158.7 144.95 158.15 143.25 157.25 141.8 155.4 140.85 153.5 140.35 151.65 142 149.05 144.9 147.7 145.75 145.45 146.2 143.75 147.6 142.95 147.25 144.3 146.3 145.15 145.3 146.6 145.25 147.65 144.85 147.65 143.7 146 143.05 145.25 143.5
Q 139.8 149.3 132.85 153.7 121.15 161.05 107.75 162.85 103.35 163.45 99 163.4
L 99.55 163.85 99.55 164.5 97.9 163.35
Q 94.8 163.25 91.75 162.9
L 91.6 163.25 90.45 163.95 91.55 165.2 91.9 167.55 91.45 170.8 90.1 173.05 90.75 175 90.1 178.25 91.85 183.1 91.6 187.25 91 186.65 91.2 183.25 89.3 178.2 90.2 175.15 89.1 174.75 89.1 174.2 89.8 174.15 89.45 172.4 90.75 170.45 90.95 165.9 89.2 164.8 85.8 164.05 81.6 165.15 81.9 165.9 81.45 166.4 80.9 165.45 78.75 167.6 77.45 169.55 75.2 171.7 75.2 173 75.85 174.15 77.7 175.2 77.7 176.15 77 177.8 76.75 178.9 77.2 180.65 78 181.95 77.65 182.4 76.6 180.8 76.1 178.9 77 176.25 76.8 175.45 75.05 174.75 75.3 174.45 74.75 173.35 74.45 171.7 74.75 170.95 76.75 169.15 77 167.95 75.75 167.4 76.3 166.8 77.6 167.35 79 165.75 81.05 164.05 81.05 162.6 80.5 161 80.6 160.4
Q 77.2 159.3 74 157.9
L 74 158.05 73.45 158.15 73.1 157.45
Q 73.05 157.45 73 157.45
L 71.15 157.9 69.65 157.5 68.3 157.95 67.7 158.7 67.5 159.45 68.3 159.9 68.05 160.4 67.05 159.95 66.6 160.85 65.35 161.35 65.95 162.45 66.6 162.9 67.75 163.15 68.05 163.6 66.65 163.6 65.65 162.65 64.95 161.35 63.05 161.5 61.45 160.7 60.45 159.4 59.75 159 58.3 159.35 55.15 163.2 61.5 165.85 63.9 165.65 65.35 165.7 67.55 165.5 69.05 167.35 71.35 165.9 71.15 166.6 69.7 167.5 70 168.05 69.45 168.4 68.8 167.7 67.05 166.55 65.5 166.55 64.2 167.15 64.45 168 63.6 168.1 63.5 167 60.85 166.75 62.6 170.15 62.35 170.8 63.15 173.55 64.3 174.65 67.2 174.4 68.9 174.55 70.6 173.35 70.9 174.35 70.5 179.35 71.75 180.8 71.55 181.5 70.3 180.4 69.55 178.85 70.2 174.6 69.25 175.2 67.25 175.3 67.75 176.25 66.95 176.25 66.8 175.5 65.3 175.5 64.25 175.95 64.9 178 66.45 177.5 67.05 178.7 66.6 181.8 65.85 180.95 66.4 179.1 65.8 178.45 64.75 178.55 64.05 182.25 64.35 184.5 65.6 184.85 66.4 185.7 66.15 185.85 63.7 184.95 63.05 181.1 64.25 178.2 61.6 173.15 61.55 171 59.6 167.35 57.3 165.75 55.7 165.3 55.05 166.4 53.7 166.25 54.75 165 52.95 164.5
Q 52.9 164.5 52.85 164.5 52.7 164.5 52.65 164.4
L 52.5 164.35 46.1 164.4 40.1 162.75 38.9 161.7 38 161.5 37.2 162.4 37.7 164.45 37.2 165.55 37.6 166.55 37.6 168.05 39.1 167.45 39.55 168.9 37.45 169.05 36.7 171 36.95 173.85 35.8 178.55 36.35 180.85 35.9 182.8 34.2 184.75 29.35 188.6 26.85 189.2 26.05 190.05 25.05 189.6 24.7 189.4 24.6 189.3 24.3 189.15 24.15 189.05 23.85 188.9 22.6 188.1 22.45 187.95 22.2 187.8 21.4 187.2
Q 27.1 191.9 34.65 191.9
L 116.9 191.9 115.2 190.65 114.85 190.25 116.35 189.8 118.15 191.6 119.35 191.25 119.95 189.75 116.15 186.45 113.25 185.55 111.95 187.1 110.35 187.6 110.35 187.25 113.15 184.4 118.2 185.8 120.8 189.25 128.65 188.65 131.3 189.9 137 189.4 140.55 187.25 142.25 185.3 141.45 183.75 142.6 181.9 143.3 184.1 145.7 181.4 150.3 172.5 156.6 165.2 158.7 164.2 160.3 164.9 162.2 166.8 163.35 168.8 166.05 168.1 168.35 168.85 170.2 170.65 171.1 168.7 170.6 167.4 171.25 166 172.1 161.1 171.25 156.5 171.65 152.6 170.75 147.95
M 163.9 163.2
Q 164.3 163.2 164.3 163.65 164.3 164.15 163.9 164.15 163.55 164.15 163.55 163.65 163.55 163.2 163.9 163.2
M 163.75 167.8
Q 163.75 168.3 163.4 168.3 163 168.3 163 167.8 163 167.35 163.4 167.35 163.75 167.35 163.75 167.8
M 80.25 167.15
Q 80.6 167.15 80.6 167.65 80.6 168.15 80.25 168.15 79.9 168.15 79.9 167.65 79.9 167.15 80.25 167.15
M 53.35 176.2
Q 53.8 176.2 53.8 176.8 53.8 177.4 53.35 177.4 52.9 177.4 52.9 176.8 52.9 176.2 53.35 176.2
M 156.45 147.7
Q 156.8 147.7 156.8 148.15 156.8 148.65 156.45 148.65 156.05 148.65 156.05 148.15 156.05 147.7 156.45 147.7
M 99.1 164.65
L 99.1 164.7
Q 99.1 165.1 98.85 165.1 98.55 165.1 98.55 164.7 98.55 164.3 98.85 164.3 99.1 164.3 99.1 164.65
M 98.4 182.4
Q 98.75 182.4 98.75 182.9 98.75 183.4 98.4 183.4 98.05 183.4 98.05 182.9 98.05 182.4 98.4 182.4
M 111.5 176.5
Q 111.85 176.5 111.85 177 111.85 177.5 111.5 177.5 111.15 177.5 111.15 177 111.15 176.5 111.5 176.5
M 161.35 153.5
Q 161.75 153.5 161.75 154 161.75 154.5 161.35 154.5 161 154.5 161 154 161 153.5 161.35 153.5
M 166.25 119
L 164.25 117.5 161.9 118.7 161.9 121 160.3 124.65 161.35 126.55 160.8 126.55 159.55 124.35 160.85 121.95 161.15 120.85 160.65 119.1 159.55 119.15 159.2 120.6 158.5 122.35 157.85 123.45
Q 156.7 126.25 155.3 129.05 152.15 135.25 147.9 140.5
L 147.95 140.55 149.85 141.1 151.1 140.7 151.9 139.8 151.2 138.65 151.9 138.25 152.75 139.55 153.95 138.8 155.8 139.15 155.8 137.3 155.4 136.2 154.15 134.9 154.15 134.2 155.75 135.3 156.25 137.3 156.25 139.5 158.6 140.85 160 143.2 160.3 145.65 160.9 146.7 162.85 147.45 165.75 146.5 170.55 145.6 171.3 142.7 171 140.35 171.95 137.95 171.7 135.15 171.95 131.15 170.4 130.8 168.95 132.4 168.55 132 169.9 129.65 170.95 129.25 172 129.6 172.45 129.05 171.85 127.5 169.7 125 166.25 119
M 164.6 96.5
L 162.25 97.75 162.3 100.05 162.25 100.25
Q 162.25 108.25 160.3 115.9
L 161.9 116.85 164 116.2 165.25 116.15 169.7 120.6 170.45 122.95 172.45 124.95 174.15 125.5 174.9 124.65 174.85 123.25 175.75 119.35 174.8 117.4 172.7 115.35 170.55 114.85 169 114.95
Q 168.45 114.95 168.4 114.2 168.4 113.45 169 113.55
L 171.5 114.05 173.85 114.95 174.95 116 175.95 115.95 177 114.75 177.95 111.65 177.85 106.05 171.7 95.7 170.45 95.2 169.6 96.15 169.1 99.35 168.05 99 168.05 97.05 164.6 96.5
M 166.85 102.85
Q 166.95 102.45 167.2 102.45 167.45 102.45 167.45 102.85 167.45 103.25 167.2 103.25 166.95 103.25 166.85 102.85
M 164.2 78.75
L 163.6 76.45 161.3 73.75 158.35 74.35 156.65 74.2
Q 161.3 84.65 162.05 95.75
L 162.3 95.9 164.4 95.25 165.6 95.2 168.15 94.3 166 93.35 166 92.75 168.65 93.25 169.6 93.15 170.25 92.4 164.4 89.2 160.95 85.75 160.7 84.55 163.55 81.3 164.2 78.75
M 182.55 67.45
L 184.75 68.25
Q 183.7 65.4 182.45 62.6 170.95 36.75 146.85 21.9 122.7 7.1 94.7 8.65 73.05 9.9 54.55 20.5 36.8 30.7 25.05 47.65 13.25 64.6 9.8 84.85 6.25 106.05 12.55 126.95 12.8 127.75 13 129.7
L 13 129.45 14.05 129.5 15.35 130.3 16.05 131.55 16.6 130.95 16.95 131.35 16.6 132.25 17.15 133.15 17.2 133.95 18.25 133.9 20.15 134.05 21.05 134 21.5 133.6 20.5 132.75 20.6 132.2 22.8 133.5 24.25 133.1 25.1 133.05 28.15 136.1 28.7 137.75 30.05 139.1 31.25 139.5 31.75 138.9 31.75 137.95 32.4 135.25 31.7 133.9 30.25 132.45 28.75 132.1 27.7 132.2
Q 27.3 132.2 27.3 131.7 27.25 131.2 27.7 131.25
L 29.45 131.55 31.05 132.2 31.85 132.95 32.5 132.9 33.2 132.05 33.85 129.9 33.85 126.05 29.55 118.9 28.7 118.5 28.1 119.15 27.75 121.4 27.05 121.15 27 119.8 24.65 119.45 23 120.25 23.05 121.85 21.95 124.4 22.65 125.7 22.3 125.75 21.4 124.2 22.3 122.55 22.55 121.75 22.15 120.55 21.4 120.6 21.15 121.6 20.65 122.8 19.4 124.8 18 125.65 16.85 127.5 16.6 127.25 17.7 125.25 18.7 124.7 18.15 124.2 18.5 123.95 19 124.35 19.7 123.5 20.45 122.2 20.8 120.4 19.8 120.2 18.65 120.55 16.95 121.8 13.75 122.85 13.05 122.1 13.05 121.3 13.9 122.2 15.9 121.6 17.35 120.65 17.35 120.15 16.6 119.9 16.8 118.9 16.3 117.8 15 116.15 13.7 115.4 13.2 115.45 13.25 114.9 14.3 115 15.6 115.8 16.3 117 16.85 116.4 17.2 116.8 16.85 117.75 17.45 118.65 17.5 119.45 18.5 119.4 20.4 119.55 21.3 119.5 21.75 119.1 20.75 118.25 20.85 117.65 23.05 119 24.5 118.55 25.35 118.5 27.1 117.9 25.6 117.25 25.6 116.8 27.45 117.15 28.1 117.1 28.55 116.6 24.5 114.35 22.15 111.95 21.95 111.15 23.9 108.9 24.35 107.15 23.95 105.55 22.4 103.65 20.35 104.1 18.7 103.95 16 101.3 14.3 100.55 14.15 100.55 14.2 99.85 14.25 99.85 14.2 99.8 14.4 98.25 14.6 98.45 14.95 99.9 16.5 100.55 18.8 103.15 20.2 103.2 20.55 102.6 19.85 100.3 18.2 99.5 18.5 99.15 19.35 99.4 18.7 98.2 19.05 92.25 19.6 92.2 19.25 95.6 20.2 96.15 20.2 96.4 19.25 96.45 19.25 97.95 20.75 100.75 21.35 102.4 22.95 102.8 23.25 101.75 24.45 102.25 23.55 103.25 24.55 104.25 25.1 105.55 25.1 107.3 24.3 110 23.2 111.25 23.4 111.95 28.7 115.15 29.75 115.1 30.85 114.25 32.35 110.9 35.95 107.75 37.15 106.35
Q 36.95 104.3 36.9 102.3
L 34.7 100.95 32.2 99.85 31.3 100.55 30.8 102.45 31.1 103.35 30.85 103.6 30.05 102.35 30.9 100.6 31.4 99.85 31.1 99.15 29.55 98.95 27.95 97.9 27.4 97.05 27.95 95.6 28.35 95.65 27.9 96.95 28.5 97.7 29.75 98.25 31.2 98.45 30.95 97.15 31.6 96 32.05 96.25 31.45 97.35 31.6 98.55 32.75 99.25 35.3 100.25 36.85 101.45
Q 36.8 99.4 36.9 97.35 37.6 81.95 45.4 68.5 53.15 55 66.1 46.75 79.75 38.1 96.2 37.15 108.95 36.4 121.1 40.9 133.15 45.35 142.5 54.2 150.85 61.9 156.05 72.85
L 156.15 73 158.15 73.05 158.75 72.2 157.65 68.9 155.3 67.75 155.75 67.2 156.9 67.6 155.95 65.9 156.6 57.25 157.3 57.2 156.8 62.15 158.15 62.9 158.15 63.25 156.8 63.3 156.85 65.5 159 69.55 159.8 71.9 162.15 72.5 162.6 71 164.3 71.7 163.05 73.15 164.45 74.6 165.25 76.45 165.25 78.95 164.05 82.9 162.5 84.75 162.8 85.7 170.45 90.35 172 90.3 173.6 89.05 174.4 86.8 175.75 84.2 180.95 79.65 181.65 78.75
Q 181.75 79.15 184.55 77.75 187.35 76.35 187.4 76.7
L 187.3 76.9 180.1 82.8 178.15 85.3 178.65 86.1 180.55 86.35 180.65 87.6 177.9 87.35 176.95 88.15 175.8 89.95 177 90.85 178.3 92.1 179.95 92.9 180.95 92.85 180.95 91.45 183.3 91.3 183.45 91.85 181.85 92.25 181.6 93.5 183.6 94.3 184.45 94.3 184.55 94.85 183.15 95 178.6 93.35 176.3 91.8 175 92.1 174.5 93.35 176.5 97.5 180 102.25 181.4 105.4 181.45 110.05 180.35 116.8 179.55 118.75 179.9 119.4 178.7 122.6 178.45 125.1 178.75 125.75 179.3 125.7 180.55 125.25
Q 181.3 125.2 181.3 127.15 181.3 129.1 180.5 129.45
L 178.85 130.15 177.85 133.3 177.95 136.25 178.7 138.85 180.65 139.9 183.05 140.4 185.85 139.65
Q 186 132.5 186.05 128.5
L 186.15 128.1
Q 191.3 112.05 190.3 95 189.55 81.6 185.1 69.1
L 185.3 69.85 181.75 68.25 180.45 69.3 179.7 72 180.15 73.3 179.8 73.6 178.65 71.9 179.9 69.3 180.6 68.2 180.15 67.25 177.9 66.9 175.6 65.4 174.8 64.15 175.55 62.15 176.15 62.2 175.5 64.05 176.35 65.1 178.2 65.95 180.3 66.25 179.9 64.35 180.85 62.65 181.55 63.05 180.6 64.7 180.85 66.35 182.55 67.45
M 164.6 56.45
Q 164.6 56.8 164.3 56.8 164 56.8 164 56.4 164 56 164.3 56 164.6 56 164.6 56.4
L 164.6 56.45
M 169.85 63.05
L 170.95 63.4 170.05 64.1 170.1 65.3 169.15 64.6 168.05 65 168.35 63.9 167.65 63 168.85 62.95 169.45 61.95 169.85 63.05
M 166.4 75.8
Q 166.4 75.35 166.75 75.35 167.15 75.35 167.15 75.8 167.15 76.3 166.75 76.3 166.4 76.3 166.4 75.8
M 131.15 23.9
Q 131.5 23.9 131.5 24.4 131.5 24.9 131.15 24.9 130.8 24.9 130.8 24.4 130.8 23.9 131.15 23.9
M 139.7 36.7
Q 139.45 36.7 139.45 36.3 139.45 35.9 139.7 35.9 140.05 35.9 140.05 36.3 140.05 36.7 139.7 36.7
M 130.85 30.3
Q 130.85 29.8 131.2 29.8 131.6 29.8 131.6 30.3 131.6 30.8 131.2 30.8 130.85 30.8 130.85 30.3
M 123.45 36.7
Q 123.45 36.2 123.85 36.2 124.2 36.2 124.2 36.7 124.2 37.15 123.85 37.15 123.45 37.15 123.45 36.7
M 141.2 49.2
Q 141.2 48.75 141.55 48.75 141.95 48.75 141.95 49.2 141.95 49.7 141.55 49.7 141.2 49.7 141.2 49.2
M 153.95 35.75
Q 153.95 36.25 153.6 36.25 153.25 36.25 153.25 35.75 153.25 35.25 153.6 35.25 153.95 35.25 153.95 35.75
M 150.45 43.7
Q 150.45 44.05 150.25 44.3 150.05 44.55 149.8 44.55 149.2 44.55 149.2 43.7 149.2 42.85 149.8 42.85 150.45 42.85 150.45 43.7
M 120.15 21.3
Q 120.15 20.9 120.4 20.9 120.7 20.9 120.7 21.3 120.7 21.7 120.4 21.7 120.15 21.7 120.15 21.3
M 112.85 16.55
Q 113.25 16.55 113.25 17.05 113.25 17.5 112.85 17.5 112.5 17.5 112.5 17.05 112.5 16.55 112.85 16.55
M 87.25 21.65
L 88.45 21.6 89.1 20.65 89.45 21.75 90.6 22.05 89.65 22.75 89.7 23.9 88.8 23.25 87.65 23.65 88 22.55 87.25 21.65
M 99.1 17.7
Q 99.5 17.7 99.5 18.2 99.5 18.7 99.1 18.7 98.75 18.7 98.75 18.2 98.75 17.7 99.1 17.7
M 98.2 25.8
Q 98.65 25.8 98.65 26.45 98.65 27.05 98.2 27.05 97.75 27.05 97.75 26.45 97.75 25.8 98.2 25.8
M 99.65 33.35
L 99.85 32.65 99.4 32.1 100.1 32.1 100.5 31.5 100.7 32.15 101.4 32.35 100.8 32.8 100.85 33.45 100.3 33.1 99.65 33.35
M 111.15 27.25
Q 110.7 27.25 110.7 26.6 110.7 26 111.15 26 111.65 26 111.65 26.6 111.65 27.25 111.15 27.25
M 63.85 23.55
Q 64.2 23.55 64.2 24.05 64.2 24.5 63.85 24.5 63.45 24.5 63.45 24.05 63.45 23.55 63.85 23.55
M 80.6 15.9
Q 80.95 15.9 80.95 16.4 80.95 16.9 80.6 16.9 80.25 16.9 80.25 16.4 80.25 15.9 80.6 15.9
M 57.55 24.45
Q 57.55 24.05 57.9 24.05 58.15 24.05 58.15 24.45 58.15 24.85 57.9 24.85 57.55 24.85 57.55 24.45
M 42.25 49.3
L 43.55 47.3 44.3 49.55 46.6 50.2 44.7 51.65 44.8 54.05 42.9 52.65 40.65 53.5 41.35 51.2 39.85 49.35 42.25 49.3
M 41.65 38.6
Q 41.65 39.1 41.25 39.1 40.9 39.1 40.9 38.6 40.9 38.1 41.25 38.1 41.65 38.1 41.65 38.6
M 55.55 40.15
Q 55.55 40.6 55.2 40.6 54.8 40.6 54.8 40.15 54.8 39.65 55.2 39.65 55.55 39.65 55.55 40.15
M 71.65 26.05
Q 72.1 26.05 72.1 26.65 72.1 27.3 71.65 27.3 71.2 27.3 71.2 26.65 71.2 26.05 71.65 26.05
M 76.05 33.35
L 76.4 32.25 75.65 31.3 76.8 31.3 77.45 30.35 77.85 31.45 78.95 31.75 78.05 32.45 78.1 33.6 77.15 32.95 76.05 33.35
M 66.4 35.75
Q 67 35.75 67 36.6 67 37.4 66.4 37.4 65.75 37.4 65.75 36.6 65.75 35.75 66.4 35.75
M 62.2 45.65
Q 62.55 45.65 62.55 46.15 62.55 46.65 62.2 46.65 61.8 46.65 61.8 46.15 61.8 45.65 62.2 45.65
M 31.65 58.95
Q 32.05 58.95 32.05 59.45 32.05 59.9 31.65 59.9 31.3 59.9 31.3 59.45 31.3 58.95 31.65 58.95
M 21.4 64.1
Q 21.85 64.1 21.85 64.7 21.85 65.35 21.4 65.35 20.95 65.35 20.95 64.7 20.95 64.1 21.4 64.1
M 28 76.95
Q 28 77.45 27.65 77.45 27.3 77.45 27.3 76.95 27.3 76.5 27.65 76.5 28 76.5 28 76.95
M 23.05 87.45
Q 23.45 87.45 23.45 87.95 23.45 88.4 23.05 88.4 22.75 88.4 22.75 87.95 22.75 87.45 23.05 87.45
M 53.35 54.5
Q 53.75 54.5 53.75 54.95 53.75 55.45 53.35 55.45 53 55.45 53 54.95 53 54.5 53.35 54.5
M 32.05 123.8
Q 32.4 123.8 32.4 124.35 32.4 124.8 32.05 124.8 31.65 124.8 31.65 124.35 31.65 123.8 32.05 123.8 Z"/>

<path fill="#C8BC99" stroke="none" d="
M 95.25 160.1
L 94.95 158.85
Q 94.7 158.95 94.45 159.1 93.85 159.6 94.85 159.95 95.05 160.05 95.25 160.1
M 96.05 158.85
Q 95.95 158.8 95.8 158.8
L 95.95 159.95 96 160
Q 96.25 159.9 96.5 159.6 97.05 159 96.05 158.85
M 91.7 157.1
Q 92.15 156.95 92.25 156.35 92.3 155.7 90.85 155.95 89.5 156.15 90.6 156.85 91.2 157.3 91.7 157.1
M 91.5 151.05
Q 91.6 150.7 91.7 150.35 91.9 149.25 90.8 148.65 89.8 148.15 88.45 148.3 87.1 148.45 86.6 149.2 86.05 150.05 87.15 151.3 87.65 151.9 88.3 152.2
L 90.45 151.55 91.5 151.05
M 75.1 140.15
Q 75.15 140 75.15 139.8 75.4 137.6 74.15 135.75
L 73.2 137.1 73.8 139.55 75.1 140.15
M 65.35 142
L 64.9 142.55
Q 68.85 144.75 71.85 143.95 73.45 143.5 74.3 142.3
L 72.95 141.65 71.2 141.25 69.35 142.4 67.05 141.45 65.35 142
M 71.8 150.35
Q 71.25 152.35 74.5 153.75 77.7 155.2 77.65 152.85 77.6 150.55 74.95 149.5 72.3 148.5 71.8 150.35
M 60 136.85
L 59.65 137.55
Q 60.6 139.75 63.2 141.5
L 64.15 140.4 65.9 139.4 67.7 139.3 70.45 139.9 71.7 139.45 71.7 137.6 73.05 135.25 73.55 135
Q 72.85 134.2 71.85 133.45 68 130.55 64 130.4 63.75 130.4 63.55 130.4
L 63 132.2 63.2 134.65 64.7 135.4 65.35 134.95 66.05 134.15 66.9 134.1 67.95 133.7 67.75 134.35 66.35 134.75 65.1 135.85 64.1 136.3 61.6 136.5 60 136.85
M 60.2 134.7
L 60.45 135.6 61.2 135.55 61.95 135 62.6 133.65 62.45 132 63.1 130.4
Q 59.95 130.55 59.4 132.65 58.9 134.6 59.25 136.3
L 59.95 136 59.7 134.9 60.2 134.7
M 143.75 64.8
L 143.1 64.7 141.3 60
Q 140.95 59.75 140.6 59.55 140.1 59.3 139.6 59.1 138.15 58.5 136.4 58.4 132.3 58.1 131.5 59.85 130.55 61.8 134.6 65.4 135.95 66.65 139.2 66.7 142.7 66.8 143.65 65 143.7 64.9 143.75 64.8
M 142.85 61.3
L 142.6 61.4 142.9 62.55 143.65 63.7 144 63.8
Q 144.05 62.6 142.85 61.3
M 101.65 160.1
Q 102.45 160.5 103.1 159.9 103.7 159.3 103.45 158.35 103.1 157.3 101.55 158.3 100.1 159.25 101.65 160.1
M 112.9 155.5
Q 114.8 155 115.15 153 115.45 150.9 112 150.65 108.7 150.4 107.45 151.7 106.4 152.85 107.1 154.15 107.8 155.4 109.35 155.6 111.65 155.85 112.9 155.5
M 99.05 140.45
Q 99.35 141.1 100.05 141.05 100.75 141.05 100.9 140.45 101.05 139.9 100 139.95 98.9 140 99.05 140.45
M 131.1 138.55
Q 128.4 137.35 124.8 138.15 121.4 138.9 119.3 141.2 117.3 143.35 117.7 145.55 118.1 147.7 120.65 148.7 122.15 149.25 126.1 150.15 129.2 151.05 132.1 148.6 135.05 146.15 134.55 142.95 134 139.85 131.1 138.55
M 134.6 111.95
Q 134.6 112.85 135.6 112.8 136.6 112.8 136.55 111.95 136.5 111.1 135.55 111.1 134.6 111.1 134.6 111.95
M 52.25 129.75
Q 52.3 128.45 51 128.95 49.7 129.45 50.25 130.4 50.55 130.95 51.3 130.95 52.15 130.9 52.25 129.75
M 54.45 114.6
Q 52.9 115.35 53.45 116.3 54.05 117.25 55.15 116.85 56.25 116.45 56.1 115.15 56 113.85 54.45 114.6
M 59.15 83.5
Q 59.4 84.3 60.2 84.3 61 84.3 60.9 83.5 60.85 82.7 59.8 82.6 58.75 82.5 59.15 83.5
M 55.2 62.4
Q 54.95 63.95 56.15 63.85 57.4 63.7 57.3 62.9 57.2 62.15 56.35 61.75 55.4 61.3 55.2 62.4
M 75.1 55.75
Q 75.9 56.4 76.9 56.1 77.9 55.8 77.3 55.2 76.75 54.65 75.7 55 74.6 55.3 75.1 55.75
M 144.6 93.25
Q 144.7 94.15 145.8 94.15 146.95 94.2 146.9 93.25 146.85 92.3 145.7 92.35 144.55 92.35 144.6 93.25
M 139.1 80.75
Q 138.65 83.05 141.65 85.5 143.05 86.55 145.2 86.15 147.75 85.65 148.2 82.95 148.7 80.25 146.1 78.7 143.75 77.3 141.65 78.05 139.5 78.85 139.1 80.75
M 129 52.85
Q 129.85 53.05 129.7 52.1 129.5 51.1 128.75 51.1 127.95 51.1 128.05 52.1 128.15 52.7 129 52.85
M 117.2 51.6
Q 118.1 52.25 118.65 51.75 119.2 51.25 118.55 50.7 117.95 50.1 117.15 50.55 116.3 51 117.2 51.6
M 105.8 54.15
Q 106.15 51.8 103 51 100.1 50.25 97.45 51.2 95 52.1 94.9 53.55 94.8 55.05 97.45 56.95 99.1 58.15 102.2 57.35 105.45 56.5 105.8 54.15
M 114.85 45.3
Q 115.8 45.75 115.95 45.3 116.1 44.9 115.15 44.55 114.3 44.25 114.85 45.3
M 106.8 45.7
Q 106.2 46.4 106.85 46.7 107.5 47.05 108.15 46.55 108.8 46.05 108.1 45.5 107.4 45 106.8 45.7
M 101.4 45.5
Q 102.1 46.1 102.05 45.5 102 45.1 101.45 45.1 100.9 45.1 101.4 45.5
M 101.25 42.3
Q 102.1 43.35 102.8 42.85 103.5 42.25 102.85 41.9 102.25 41.6 101.5 41.6 100.7 41.65 101.25 42.3
M 89.5 46.15
Q 90 46.5 90.35 46.3 90.75 46.1 90.4 45.7 90.1 45.35 89.65 45.65 89.15 45.95 89.5 46.15
M 84.85 45.55
Q 82.95 45.75 82.35 46.75 81.65 47.85 83.55 48.7 85.25 49.5 87.1 49.25 89 49 89.1 47.85 89.2 46.7 87.9 46.05 86.65 45.4 84.85 45.55 Z"/>

<path fill="url(#Gradient_2)" stroke="none" d="
M 91.45 160.55
L 91.6 160.35 92.05 162.15 91.75 162.9
Q 94.8 163.25 97.9 163.35
L 96.75 162.55 95.55 161.35 95.25 160.1
Q 95.05 160.05 94.85 159.95 93.85 159.6 94.45 159.1 94.7 158.95 94.95 158.85
L 94.55 157.2 89.45 153.75 87.15 154.15 85.1 153.6 83.5 154.4 83.5 155.15 82.2 155.25 82.25 158.5 81.8 160.75
Q 82.05 160.85 82.3 160.9 86.7 162.2 91.15 162.8
L 91.45 161.95 91.45 160.55
M 92.25 156.35
Q 92.15 156.95 91.7 157.1 91.2 157.3 90.6 156.85 89.5 156.15 90.85 155.95 92.3 155.7 92.25 156.35
M 73 157.45
Q 73.05 157.45 73.1 157.45
L 73.05 157.4 73 157.45
M 37 102.35
L 36.9 102.3
Q 36.95 104.3 37.15 106.35
L 37.25 106.15 37.85 104.2 37 102.35
M 55.65 145.15
L 55.5 145.15
Q 57.55 147.2 59.8 149.05 63.65 152.25 67.95 154.75
L 68.1 154.45 69.3 153.25 69.85 151.8 70.45 151.7 70 152.75 69.75 153.7 68.9 154.3 68.4 154.9 68.5 155.1
Q 68.85 155.3 69.25 155.5
L 70 155.3 70.75 154 71.65 153.7 71.5 154.15 70.95 154.5 70.2 155.7 69.85 155.85
Q 70.1 155.95 70.4 156.15
L 70.6 156.05 71.25 155.65 71.55 156.1 71.1 156.45 71.05 156.5
Q 71.65 156.8 72.3 157.1
L 73.5 156.9 74.75 156.45 75.4 155.7 75.85 156.05 74.9 157.3 74.05 157.3 74 157.9
Q 77.2 159.3 80.6 160.4
L 80.9 157.6 79.75 155.5 78.5 156.25 77.85 154.75 79.95 153.95 79.1 152.2 78.9 150.5 78.15 149 76.95 147.8 76.1 144.55 74.7 142.5 74.3 142.3
Q 73.45 143.5 71.85 143.95 68.85 144.75 64.9 142.55
L 63.4 144.2 61.9 145.25 58.35 146.05 55.65 145.15
M 74.5 153.75
Q 71.25 152.35 71.8 150.35 72.3 148.5 74.95 149.5 77.6 150.55 77.65 152.85 77.7 155.2 74.5 153.75
M 59.65 137.55
L 59.35 138.15 58.95 139.65 59.2 140.9 59.8 142 60.55 142.75 60.75 143.1 61.1 143.3 61.75 143.15 63.2 141.5
Q 60.6 139.75 59.65 137.55
M 140.6 59.55
Q 140.95 59.75 141.3 60
L 141.25 59.85 140.6 59.55
M 121.1 40.9
Q 108.95 36.4 96.2 37.15 79.75 38.1 66.1 46.75 53.15 55 45.4 68.5 37.6 81.95 36.9 97.35 36.8 99.4 36.85 101.45
L 37.85 102.2 39.4 101.85 40.8 99.75 41.2 100.05 40.6 101.8 40.95 101.9 43.15 101 45.7 101.85 45.5 102.25 43.3 101.55 41.3 102.45 41.35 103.65 41.1 103.85 40.65 102.5 39.85 102.4 38.75 103.65 38.45 105.5 37.9 107.05 37.3 107.95
Q 37.9 113 39.35 117.9
L 40.35 117.9 40.55 118.1 39.45 118.2
Q 41 123.4 43.5 128.45 45.35 132.2 47.65 135.65
L 47.75 135.55 50.6 134.2 54.3 133.3 54.85 131.35 53 129.45 53.25 127.4 51.1 127.55 50.75 126.65 52.7 126.55 52.7 125.5 50.2 123.65 48.7 123.35 47.15 122.25 47.1 120.4 46.6 118.65 43.4 115.8 42 115.7 41.65 115.15 42.9 115.15 42.25 113.65 42.85 113.6 44.25 115.75 46.6 117.65 47.35 117.25 47.3 116 45.9 113 44.8 111.95 45.1 111.6 45.85 112.15 45.85 110.6 46.4 106.9 48.15 105.8 48.35 106.05 46.9 107.25 46.5 110.05 46.5 111.95 47.1 113.45 48.15 115.3 49.25 115.55 50.55 114.7 51 112.15 51.4 112.35 51 115.2 49.35 116.35 48.45 116.4 48.05 118 48.05 120.2 48.25 121.25 48.85 122.1 49.85 122.05 50.9 121.5 52.25 120.5 54 120.75 55 120.2 55.25 120.4 54.15 121.25 52.25 121.1 50.8 122.05 50.85 122.85 52.4 124.4 53.5 124.6 55.4 122.8 59.55 121.7 61.5 121.4 62.1 120.35 62.45 117.85 62.05 116.2 60.7 115.65 60.75 115.05 61.85 115.7 61.75 114.15 62.5 112.4 62.95 112.55 62.2 113.9 62.35 116.05 63 117.4 66.65 116.5 68.1 114.65 67.8 112.75 68.4 112.6 68.5 114.35 72.2 112.5 72.95 112.55 73.9 112.15 74.55 112.55 77.55 112.95 77.5 113.3 73.25 113 68.6 114.95 67.2 116.55 67.35 117.3 68.7 118.4 68.1 118.9 66.8 117.6 65.55 117.5 63.3 118.45 62.75 119.9 62.75 121.3 64.2 122.65 67.3 123.95 69.25 123.75 69.1 124.35 67.85 124.4 70.25 128.6 69.75 128.75 67 124.6 62.15 122.55 56.65 123.85 55.75 124.7 55.25 127.3 55.25 129.45 56.55 130.65 56.7 131.7 56.2 133.8 55.35 135.2 53.3 135.9 49.2 137.85
Q 51.05 140.35 53.15 142.7
L 54.75 142.6 56.95 143 58.85 143.8 59.35 143.65 59.35 143.25 58.35 141.95 57.9 140.1 58.3 138.05 57.3 137.1 56.6 135.85 56.85 134.4 57.15 134.75 57.2 136.05 57.5 136.8 58.35 137.6 59.05 136.4 59.25 136.3
Q 58.9 134.6 59.4 132.65 59.95 130.55 63.1 130.4
L 63.25 130 62.65 129.45 62.8 128.9 63.45 128.9 63.65 128.05 64.95 127.2 65.15 127.75 64.35 128.3 63.75 129.65 63.55 130.4
Q 63.75 130.4 64 130.4 68 130.55 71.85 133.45 72.85 134.2 73.55 135
L 74.85 134.2 76.4 135.8 76.1 136.15 75.4 135.5 74.2 135.6 74.15 135.75
Q 75.4 137.6 75.15 139.8 75.15 140 75.1 140.15
L 76.3 140.7 77.85 142.8 81.3 141.4 81.85 141.75 84.55 141.2 85.75 140.1 86.15 137 86.7 135.2 85.95 133.3 86.95 133.1 91.4 134.15 93.05 133 93.6 133.3 92.4 134.45 90.75 135.05 87.05 133.8 87.4 134.95 87.1 137.05 88 136.65 87.85 137.55 87.15 137.6 86.8 139.2 87 140.35 88.95 139.9 88.85 138.2 90.1 137.75 92.5 138.45 92.8 138.65 91.9 139.3 90.35 138.5 89.6 139 89.45 140.15 92.65 141.4 94.8 141.35 95.35 140.05 96.15 139.45 96.25 139.85 95.05 142.05 91.4 142.3 89 140.65 83.85 142.8 81.85 142.6 78.1 144.2 78.5 146.4 79.9 149.35 80.8 152.8 81.45 153.5 85 151.8 88.2 152.2 88.3 152.2
Q 87.65 151.9 87.15 151.3 86.05 150.05 86.6 149.2 87.1 148.45 88.45 148.3 89.8 148.15 90.8 148.65 91.9 149.25 91.7 150.35 91.6 150.7 91.5 151.05
L 93.1 150.25 97.6 150.55 98.35 149.85 98.55 151.05 98.2 151.4 93.35 151.5 91 152.15 91.6 153.85 93.1 154.7 95.5 156.8 99.35 156.25 99.5 157.45 95.65 157.5 95.8 158.8
Q 95.95 158.8 96.05 158.85 97.05 159 96.5 159.6 96.25 159.9 96 160
L 96.65 161.55 99 163.4
Q 103.35 163.45 107.75 162.85 121.15 161.05 132.85 153.7 139.8 149.3 145.25 143.5
L 144.2 144.1 142.95 143.8 143.35 143.3 144.3 143.25 146.05 142.45 146.15 142.5
Q 146.4 142.2 146.7 141.9
L 145.8 141.6 144.75 141.6 144.7 140.75 145.45 140.75 147.1 141.4 147.4 141 146.2 139.75 142.9 138.2 141.1 137.75 139.8 138.2 139.5 137.35 141.55 136.6 142.55 137.2 143.1 136.35 143.8 136.65 143.8 137.95 146.45 138.8 147.9 140.5
Q 152.15 135.25 155.3 129.05 156.7 126.25 157.85 123.45
L 156.7 125.25 154.6 126.4 152.9 129.1 152.55 128.75 153.6 127.2 154.15 125.85 155.6 125.1 154.9 124.35 155.35 123.95 156.05 124.6 157.1 123.35 158.15 121.5 158.65 118.85 157.2 118.6 155.55 119.05 154.45 118.65 153.5 119.1 153.5 120.35 154.5 120.6 155.05 119.95 155.25 120.15 154.7 121.05 153.45 121.3 152.8 120.65 152.9 118.95 152.85 118.05 152.05 118 150.15 118.45 149.1 120.15 149.15 121.75 148.75 124.45 146.95 126.4 146.45 125.85 148.2 124.25 148.45 121.45 148.25 119.75 149.75 117.6 151.2 117.15 152.6 117.2 152.9 116.75 152.15 115.1 150.3 112.7 148.4 111.65 146.3 111.8 144.55 112.95 144.3 112.15 146.45 110.85 149.25 111.1 151.15 112.2 152.2 114 152.9 113.15 153.5 113.7 152.95 115.05 153.85 116.35 153.85 117.5 155.4 117.4 158.1 117.6 159.4 117.5 160 117.05 160 117 158.65 115.75 158.75 114.95 160.3 115.9
Q 162.25 108.25 162.25 100.25
L 160.7 103.65 161.75 105.6 161.15 105.6 159.9 103.4 161.2 101 161.55 99.9 161.05 98.1 159.9 98.2 159.55 99.65 158.85 101.4 157.05 104.3 155 105.45 153.3 108.15 152.9 107.8 153.95 106.25 154.55 104.9 156 104.1 155.25 103.4 155.75 103 156.45 103.65 157.5 102.4 158.5 100.55 159 97.9 157.55 97.6 155.95 98.1 153.55 100 148.95 101.45 146.85 99.4 147.65 99 149.15 100.5 152 99.6 154.1 98.25 154.05 97.5 152.95 97.2 153.25 95.75 152.55 94.1 150.65 91.75 148.8 90.7 146.65 90.85 144.9 91.95 144.7 91.2 146.8 89.9 149.65 90.1 151.5 91.25 152.55 93.05 153.3 92.2 153.85 92.7 153.3 94.1 154.2 95.4 154.25 96.55 155.75 96.45 158.5 96.65 159.8 96.55 160.4 96.05 159 94.8 159.15 94 162.05 95.75
Q 161.3 84.65 156.65 74.2
L 155.95 74.15 152.15 70.3 149.65 69.2 146.3 70.55 143.55 73.75 140.15 76.2 139.25 75.45 142.75 73.05 144.8 70.7 143.9 69.8 141.25 70 139.4 67.95 140.3 67 141.25 68.8 142.4 69.15 144.45 69 145.3 69.9 147.4 69.3 146.2 67.6 146.95 67.55 147.8 68.8 149.6 68.25 149.3 66.85 146.9 65.35 143.75 64.8
Q 143.7 64.9 143.65 65 142.7 66.8 139.2 66.7 135.95 66.65 134.6 65.4 130.55 61.8 131.5 59.85 132.3 58.1 136.4 58.4 138.15 58.5 139.6 59.1
L 138.65 58.65 139.05 58.15 141.8 59.35 142.3 60.7 143.85 60 144.2 60.7 142.85 61.3
Q 144.05 62.6 144 63.8
L 145.65 64.2 146.45 62.8 146.95 63.2 146.85 64.3 149.55 65.7 150.05 66.2 150.55 68.35 152.85 69.25 156.05 72.85
Q 150.85 61.9 142.5 54.2 133.15 45.35 121.1 40.9
M 82.35 46.75
Q 82.95 45.75 84.85 45.55 86.65 45.4 87.9 46.05 89.2 46.7 89.1 47.85 89 49 87.1 49.25 85.25 49.5 83.55 48.7 81.65 47.85 82.35 46.75
M 90.35 46.3
Q 90 46.5 89.5 46.15 89.15 45.95 89.65 45.65 90.1 45.35 90.4 45.7 90.75 46.1 90.35 46.3
M 102.8 42.85
Q 102.1 43.35 101.25 42.3 100.7 41.65 101.5 41.6 102.25 41.6 102.85 41.9 103.5 42.25 102.8 42.85
M 102.05 45.5
Q 102.1 46.1 101.4 45.5 100.9 45.1 101.45 45.1 102 45.1 102.05 45.5
M 106.85 46.7
Q 106.2 46.4 106.8 45.7 107.4 45 108.1 45.5 108.8 46.05 108.15 46.55 107.5 47.05 106.85 46.7
M 115.95 45.3
Q 115.8 45.75 114.85 45.3 114.3 44.25 115.15 44.55 116.1 44.9 115.95 45.3
M 103 51
Q 106.15 51.8 105.8 54.15 105.45 56.5 102.2 57.35 99.1 58.15 97.45 56.95 94.8 55.05 94.9 53.55 95 52.1 97.45 51.2 100.1 50.25 103 51
M 118.65 51.75
Q 118.1 52.25 117.2 51.6 116.3 51 117.15 50.55 117.95 50.1 118.55 50.7 119.2 51.25 118.65 51.75
M 111.4 86.05
L 112.95 84.6
Q 113.8 83.85 115.55 82.95 115.7 83 116.25 83.35 116.4 83.2 116.1 82.9
L 116.55 82.95 116.8 83.4
Q 116.85 83.55 117 83.55 117.1 83.55 117.1 83.45 117.15 83.35 117.1 82.8
L 119.8 82.9
Q 119.85 82.9 120.3 83.55 120.7 84.15 120.8 84.15 121 84.1 121.25 83.75 121.35 83.7 121.65 83.9 122 84.1 122.05 84.25
L 122.5 86.45
Q 122.7 86.65 123.05 86.55 123.2 86.5 123.45 85.85
L 123.9 85.9 123.9 86.1
Q 123.9 86.35 124.1 86.55 124.35 86.8 124.6 86.65 124.9 86.5 124.85 86.3 124.85 86.05 124.65 86.1 124.55 86.1 124.5 86.25 124.5 86.3 124.5 86.35 124.45 86.35 124.4 86.25 124.3 86.15 124.4 85.95 124.5 85.7 124.8 85.75 125.15 85.8 125.2 86.15 125.25 86.55 124.9 86.75 124.6 86.95 124.25 86.85 123.95 86.75 123.75 86.45
L 123.6 86.25
Q 123.3 86.75 123.2 86.8 122.4 86.9 122.3 86.7 122.2 86.35 121.95 85.85 121.55 85.1 121.25 85.05 120.9 85 120.4 85.2
L 119.95 85.45
Q 119.8 85 119.65 85 119.5 85.1 119.5 85.75 119.45 85.85 119 85.85 118.9 85.45 118.8 85.5
L 118.7 86.75 118.35 86.85 118.15 86.6
Q 118.05 86.5 117.7 87.9 117.45 88.65 117.3 89.55 116.8 89.3 116.1 89.1
L 114.7 88.7 116 89.3
Q 117.45 90 118.45 90.65
L 121.2 92.6
Q 122.75 93.8 122.5 94.3 122 94.95 120.35 94.8 121.3 96.4 122.25 96.2 123.35 96 124.3 95.2 124.6 95.1 125.45 95.45 126.15 95.75 126.4 95.9 126.65 96.05 126.45 96.85 126.4 97.15 126.5 97.55 126.6 97.9 126.7 98 126.8 98.1 127.2 98.1 127.65 98.1 127.8 97.85 128 97.5 128.3 96.15 128.65 95.35 129.35 95.4 129.7 95.45 130.05 95.65 130.35 95.85 130.4 96.1 130.4 96.35 129.8 96.65 129.6 96.8 129.55 96.95 129.5 97.15 129.8 97.2 130.2 97.25 130.55 96.75 130.5 97.3 129.9 97.5 129.55 97.55 129.3 97.3 129.05 97.1 129.1 96.9 129.15 96.65 129.5 96.4 129.6 96.35 129.55 96.2 129.55 96.05 129.4 96 129.3 95.95 129.1 96.05 128.8 96.25 128.65 96.65 128.55 96.95 128.4 98.05 128.3 99 128.05 99.2 127.8 99.4 126.95 99.5 126 99.6 125.8 99.4 125.65 99.25 125.5 98.75 125.4 98.25 125.35 98.2 125.25 98.1 124.75 98.05 124.3 98 124.1 98.1 124 98.1 123.15 99.4 122.15 100.75 121.55 101.2 120.85 101.7 119.95 101.9
L 119.2 102 119.9 102.15
Q 120.7 102.2 121.25 101.95 121.65 101.75 122.2 101.3 122.6 100.9 122.65 100.75 122.7 100.65 123 100.6 123.3 100.55 123.35 100.75 123.5 101.55 124 101.5 124.45 101.5 124.5 100.95 124.6 101.7 123.95 101.75 123.5 101.8 123.3 101.5 123.15 101.3 123.15 101.15 123.05 101 122.75 101.2 122.4 101.75 122.05 102.1 121.4 102.9 120.75 103 119.8 103.15 118.35 102.6 116.65 102 115.6 100.85 115 102 114.85 103.25 114.7 104.3 114.95 105.35 115.2 106.5 115.75 106.75 116.1 106.95 117.8 107.45 119.5 108.05 120.3 108.9 120.65 109.3 121 111.05 121.15 112 121.35 113.25 121.45 113.7 121.8 114.1 122.05 114.35 122.4 114.65 122.75 115 122.85 115.45 122.95 116 122.55 116.25 122.15 116.5 121.8 116.35 121.45 116.2 121.35 115.9 121.3 115.7 121.45 115.55 121.5 115.45 121.6 115.4
L 121.55 115.8
Q 121.65 116 121.9 116 122.2 115.95 122.25 115.7 122.3 115.4 122.05 115.2 121.75 115 121.35 115.1 121 115.15 120.45 115.5 119.8 116 119.5 116.15 117.95 116.85 116.35 116.45 115.55 116.3 114.8 115.95
L 114.15 115.6 114.95 116.15
Q 115.4 116.4 116.35 116.75
L 115.95 117.1
Q 115.9 117.15 114.4 116.5 112.65 115.75 110.9 114.7 109.2 113.7 106.75 111.8 104.6 110.1 104.55 110.05
L 108.5 109.15 108.5 109.6
Q 108.55 110.2 108.8 110.85 109.15 111.95 109.55 112.6 109 111.25 108.85 110.1 108.75 109.4 108.85 108.85
L 108.95 108.45 109.55 108.7
Q 110.25 108.9 110.75 108.95 112.7 108.95 112.95 108.5 113 108.3 112.9 107.7 112.8 107.15 112.8 107.05
L 112.3 106.5
Q 112.85 105.45 113.4 104.05
L 114.05 101.5 112.9 104.75
Q 111.85 106.95 111.4 107.4 111.3 107.65 108.85 108.05
L 105.1 108.5
Q 105.05 108.5 104.85 108.95 104.65 109.3 104.35 109.35 102.7 109.05 102.65 109.1 102.5 110.05 102.5 110.1 102.5 110.2 102.7 110.3 102.6 110.4 102.35 110.4 102 110.4 102 110
L 102.05 108.7 101.6 109.9
Q 101.55 109.95 101.35 109.85 101.15 109.75 101.1 109.65
L 101.4 108.3 100.95 109.45
Q 100.5 109.4 100.45 109.2 100.45 108.55 100.7 108.15
L 101.15 107.75 100.5 108.1 100.25 108.95
Q 99.9 109 99.8 108.9 99.75 108.75 99.85 108.25 99.9 107.8 100 107.65 100.1 107.55 100.7 107.35 101.35 107.15 101.5 107.2 101.9 107.4 102.7 107.6 104 107.9 104.8 107.7 106.05 107.35 109 105.4
L 110.4 105 110.85 103.4
Q 111.25 101.85 111.55 100.7 112.15 98.5 112.45 98 112.95 97.2 113.65 97.05 113.35 97 113 97.2 112.25 97.55 111.9 98.6 111.1 100.85 110.4 104.4
L 110.1 103.95
Q 109 103.95 108.3 103.05 107.8 102.5 107.7 101.95
L 107.7 101.5 110.1 99.8
Q 110.85 99.15 111.5 98.25 112.1 97.35 112.1 96.85
L 111.9 95.55
Q 112.55 95.35 112.95 94.55
L 113 94.35
Q 112.65 94.9 112.2 95.15 111.65 95.5 110.7 95.65 109.85 95.8 109.75 95.65 109.3 95.35 109.05 92.95 108.95 92.1 109.1 90.7
L 108.75 91.6 105.35 90.3 105.75 89.55
Q 105.8 89.35 105.25 89.6 104.7 89.95 104.6 89.95 103.5 89.3 102.65 88.95 102.4 88.85 101.6 88.65 101.3 88.55 101.4 88.3 101.7 87.55 105.8 87.35 108.15 87.3 111.35 88.15
L 110.05 87.5 110.4 86.85
Q 110.8 86.15 110.95 86.15 111.15 86.1 112.2 86.65
L 111.4 86.05
M 129.7 52.1
Q 129.85 53.05 129 52.85 128.15 52.7 128.05 52.1 127.95 51.1 128.75 51.1 129.5 51.1 129.7 52.1
M 141.65 85.5
Q 138.65 83.05 139.1 80.75 139.5 78.85 141.65 78.05 143.75 77.3 146.1 78.7 148.7 80.25 148.2 82.95 147.75 85.65 145.2 86.15 143.05 86.55 141.65 85.5
M 145.8 94.15
Q 144.7 94.15 144.6 93.25 144.55 92.35 145.7 92.35 146.85 92.3 146.9 93.25 146.95 94.2 145.8 94.15
M 76.9 56.1
Q 75.9 56.4 75.1 55.75 74.6 55.3 75.7 55 76.75 54.65 77.3 55.2 77.9 55.8 76.9 56.1
M 56.15 63.85
Q 54.95 63.95 55.2 62.4 55.4 61.3 56.35 61.75 57.2 62.15 57.3 62.9 57.4 63.7 56.15 63.85
M 60.2 84.3
Q 59.4 84.3 59.15 83.5 58.75 82.5 59.8 82.6 60.85 82.7 60.9 83.5 61 84.3 60.2 84.3
M 53.45 116.3
Q 52.9 115.35 54.45 114.6 56 113.85 56.1 115.15 56.25 116.45 55.15 116.85 54.05 117.25 53.45 116.3
M 51 128.95
Q 52.3 128.45 52.25 129.75 52.15 130.9 51.3 130.95 50.55 130.95 50.25 130.4 49.7 129.45 51 128.95
M 144.2 116.9
Q 143.65 116.85 143.45 116.55 142.9 115.7 142.4 116.2 142.15 116.45 141.25 118.15 139.9 120.8 139.8 121 138.9 122.7 136.9 123.35
L 137.95 123.2
Q 139.1 122.95 139.75 122.3 140.85 121.2 140.8 120.55 140.9 121.15 140.15 122.3 139.55 123.2 138.2 123.75 136.65 124.35 134.8 124.15 133.05 123.95 131.05 122.5 129.3 121.25 129.3 120.95 129.55 120.4 129.55 119.3 129.5 118.65 129.3 117.95
L 129.05 117.35 129.15 116.85
Q 129.9 115.05 131.15 114.55 132.25 114.2 133.75 114.5 135.15 114.8 136.35 115.55 137.45 116.25 138.45 116.25 139.35 116.25 139.7 115.75 140.05 115.4 139.9 114.95 139.7 114.5 139.3 114.65 139 114.8 139.1 115.1 139.2 115.35 139.45 115.25 139.7 115.15 139.45 114.9 139.8 115.15 139.55 115.4 139.35 115.7 139.05 115.55 138.8 115.4 138.8 115 138.8 114.6 139.1 114.4 139.5 114.15 139.95 114.5 140.35 114.8 140.2 115.3 140.1 115.75 139.4 116.35 138.7 116.95 137.75 117.3 136.95 117.7 135.95 117.75
L 135.1 117.7 136.25 117.85
Q 137.6 117.85 138.65 117.1 139.55 116.5 140.65 115.4 141.5 114.6 141.8 114.5 142.25 114.35 142.8 114.55 143.35 114.7 143.45 114.95 143.55 115.25 143.7 116.35 143.8 116.5 144 116.55 144.25 116.55 144.35 116.45 144.45 116.35 144.6 115.6 144.85 114.95 145.55 115.05 146 115.1 146.2 115.6 146.35 116.15 146.05 116.3 145.75 116.45 145.6 116.3
L 145.45 116.1
Q 145.8 116.25 145.85 116.05 145.95 115.85 145.8 115.7 145.65 115.5 145.4 115.65 145.2 115.8 145.1 116.25 145 116.7 144.9 116.8 144.75 116.95 144.2 116.9
M 127.7 117.05
L 128.1 117.1
Q 128.5 117.2 128.6 117.7 128.8 118.6 128.55 119.45 128.55 119.15 128.3 118.45
L 127.7 117.05
M 127.5 117.45
L 127.35 116.9
Q 127.8 117.4 128.2 118.5 128.6 119.7 128.3 120.1 128 120.5 127.65 120.55
L 127.35 120.5
Q 127.6 119.95 127.65 118.85 127.65 118.1 127.5 117.45
M 123.6 115.7
L 123.75 115.45 123.9 116.3
Q 124.05 116.75 124.4 117.15 124.2 116.7 124.05 116.2 123.85 115.2 124.3 114.8 124.85 114.35 125.7 114.85 126.5 115.35 127 116.35 127.4 117.3 127.4 118.15 127.5 119.1 127.45 119.6 127.3 120.45 126.8 121.1 126.35 121.75 125.8 121.9 125.45 121.95 125.25 121.75 125.05 121.55 125.1 121.25 124.1 121.7 124 121.2 123.95 120.85 124.1 120.55 124.2 120.45 124.3 120.35 123.65 120.6 123.75 119.95 123.85 119.5 124.1 119.3 122.6 119.35 119.6 118.75 116 118 113.1 116.7
L 115 117.7
Q 114.35 118.45 113.8 118.9
L 112.8 119.85 114.05 119.95
Q 115.45 120.15 116.25 120.95 117.05 121.75 117.85 123.95 117.85 124 118.7 126.8 119.15 128.15 119.95 128.1 120.3 128.1 120.9 128.05 121.35 128.05 121.5 128.4 121.7 128.85 121.4 130.75 121.4 130.9 121.6 131.1 121.9 131.3 121.95 131.45 122.1 131.85 121.95 132.2
L 122.05 132.2
Q 122.15 132.2 122.2 132.3 122.3 132.45 122.15 132.55
L 122.35 132.85
Q 122.35 133.05 122.15 133.05 122.4 133.2 122.35 133.35 122.3 133.55 122.05 133.55
L 122.1 133.85
Q 122 133.95 121.8 133.95 121.6 134 121.5 133.85
L 121.25 133.55 121.35 133.8
Q 121.45 134 121.6 134.1 121.6 134.35 121.2 134.45 120.95 134.55 120.7 134.45
L 120.5 134.35
Q 120.85 133.95 120.7 133.6 119.5 132.4 118.95 131.35 118.35 130.05 117.95 129.2 117.2 127.6 116.35 126.6 115.5 125.6 113.2 123.95 110.8 122.35 110.3 122 109.65 121.55 109.2 120.7 108.8 120.05 108.8 119.65 108.8 119.55 110.7 115.5
L 107.35 113.5
Q 107.35 115.7 106.5 116.85 106.1 117.45 104.7 119 103.5 120.4 103.35 120.7 103.25 121.05 103.6 121.25 103.8 121.35 104.35 121.55 105.3 121.85 104.9 122.9 104.75 123.45 103.5 124.6 103.3 125 103.4 125.85 103.55 126.4 103.05 126.7
L 102.5 126.75
Q 102.5 127.05 102.05 127.35 101.8 127.5 101.5 127.35
L 101.25 127.15
Q 101.75 127 101.75 126.4 101.3 123.85 101.45 122.3 101.55 121.4 102 119.7 102.65 117.4 102.85 116.6 103.25 115.25 103.55 113.15
L 103.75 111.35 105.15 112.05 103 110.6 102.7 110.05 102.75 109.35 103.45 109.4 106.15 111.55
Q 109.45 114.05 112.4 115.75 116.65 118.25 123.65 118.45
L 123.55 118.05
Q 123.6 117.8 123.75 117.65 123.85 117.6 123.9 117.55 123.45 117.2 123.45 116.45 123.4 116 123.6 115.7
M 128.25 120.55
Q 128.6 120.15 128.75 118.7 128.9 117.35 128.5 117.15 129.05 117.35 129.25 118.75 129.4 120.15 129.05 120.5 128.75 120.75 128.45 120.7
L 128.25 120.55
M 135.6 112.8
Q 134.6 112.85 134.6 111.95 134.6 111.1 135.55 111.1 136.5 111.1 136.55 111.95 136.6 112.8 135.6 112.8
M 124.8 138.15
Q 128.4 137.35 131.1 138.55 134 139.85 134.55 142.95 135.05 146.15 132.1 148.6 129.2 151.05 126.1 150.15 122.15 149.25 120.65 148.7 118.1 147.7 117.7 145.55 117.3 143.35 119.3 141.2 121.4 138.9 124.8 138.15
M 94.15 100.7
Q 94.05 100.1 94.4 99.4
L 94.8 98.8 97.85 103.5
Q 99.6 105.95 100.85 107.1 100.1 107.25 99.9 107.35
L 99.7 107.85
Q 98.35 106.65 96.35 104.15 94.2 101.45 94.15 100.7
M 100.05 141.05
Q 99.35 141.1 99.05 140.45 98.9 140 100 139.95 101.05 139.9 100.9 140.45 100.75 141.05 100.05 141.05
M 115.15 153
Q 114.8 155 112.9 155.5 111.65 155.85 109.35 155.6 107.8 155.4 107.1 154.15 106.4 152.85 107.45 151.7 108.7 150.4 112 150.65 115.45 150.9 115.15 153
M 103.1 159.9
Q 102.45 160.5 101.65 160.1 100.1 159.25 101.55 158.3 103.1 157.3 103.45 158.35 103.7 159.3 103.1 159.9
M 125.75 121.2
Q 125.75 121.5 126.2 121.2 126.7 120.9 126.95 120.3 127.25 119.7 127.25 119.15 127.1 119.8 126.5 120.3 126.25 120.65 125.8 120.85
L 125.75 121.2
M 124.6 115.1
Q 124.25 115.25 124.35 115.95 124.4 116.35 124.5 116.65 124.4 115.75 124.7 115.5 124.95 115.2 125.45 115.5 126.1 115.9 127 117.15 126.7 116.5 126.3 116 125.25 114.8 124.6 115.1
M 135.25 120.65
Q 134.05 120.9 132.85 120.6 132.8 120.6 131.55 120.1
L 132.55 120.65
Q 133.95 121.25 135.25 120.95 137.4 120.5 138.35 118.85 137.45 120.2 135.25 120.65
M 130.7 115.75
L 130.15 116.6 130.75 115.9
Q 131.5 115.2 132.45 115.05 133.8 114.85 136.35 115.8 134.25 114.7 132.55 114.75 131.45 114.85 130.7 115.75
M 141.75 115.35
Q 142.25 114.85 142.7 114.95 142.5 114.85 142.2 114.9 141.5 115 140.4 116.75 139.45 118.65 138.7 119.75 137.35 121.7 135.5 122.2 133.7 122.7 131.7 121.6
L 130 120.35
Q 131.65 122.5 134.3 122.65 135.85 122.75 137.05 122 137.85 121.45 138.7 120.25 139 119.8 140.25 117.6 141.3 115.8 141.75 115.35
M 123.4 97.85
Q 124.05 97.1 124.9 97.25 124.2 97.05 123.6 97.4 122.75 98.35 122.2 99 121.1 100.15 119.85 100.45 118.5 100.75 116.85 99.95
L 115.5 99.05 116.65 100
Q 118.05 100.9 119.35 100.75 120.75 100.6 121.95 99.55 122.3 99.2 123.4 97.85
M 119.4 98.15
Q 116 98.3 113.5 92.6
L 114.3 94.55
Q 115.4 96.7 116.8 97.65 119.1 99.25 121.95 97.55 122.9 96.95 123.4 96.45 121.5 98.1 119.4 98.15
M 106.25 88.55
L 104.2 88.35 106.25 88.65
Q 108.7 89.15 110.8 89.85 114.15 91 116.25 92.25 113.2 90.2 110.65 89.45 108.7 88.85 106.25 88.55
M 114.65 86.5
Q 114.55 86.35 114 86.05 113.35 85.8 113.3 85.9 113.1 86.05 112.55 87.15 111.95 88.25 112 88.5 112.05 88.75 112.7 89.05 113.2 89.25 113.45 89.25 113.75 89.25 114.25 87.95 114.75 86.7 114.65 86.5
M 113.45 86.45
Q 113.6 86.45 113.8 86.55 114.05 86.65 114.05 86.75 114.1 87 113.75 87.75 113.5 88.4 113.35 88.6 113.25 88.7 112.9 88.55 112.55 88.4 112.55 88.25 112.5 88.1 112.95 87.3 113.35 86.5 113.45 86.45 Z"/>

<path fill="#FFDB68" stroke="none" d="
M 52.85 164.5
Q 52.9 164.5 52.95 164.5
L 52.65 164.4
Q 52.7 164.5 52.85 164.5
M 22.85 162.25
Q 22.85 161.75 22.5 161.75 22.15 161.75 22.15 162.25 22.15 162.75 22.5 162.75 22.85 162.75 22.85 162.25
M 22.85 144.25
Q 22.85 143.75 22.5 143.75 22.15 143.75 22.15 144.25 22.15 144.75 22.5 144.75 22.85 144.75 22.85 144.25
M 36.7 111.45
Q 36.7 111.9 37.05 111.9 37.4 111.9 37.4 111.45 37.4 110.9 37.05 110.9 36.7 110.9 36.7 111.45
M 58.35 149.2
Q 58.35 148.7 57.95 148.7 57.6 148.7 57.6 149.2 57.6 149.65 57.95 149.65 58.35 149.65 58.35 149.2
M 161.75 154
Q 161.75 153.5 161.35 153.5 161 153.5 161 154 161 154.5 161.35 154.5 161.75 154.5 161.75 154
M 111.85 177
Q 111.85 176.5 111.5 176.5 111.15 176.5 111.15 177 111.15 177.5 111.5 177.5 111.85 177.5 111.85 177
M 98.75 182.9
Q 98.75 182.4 98.4 182.4 98.05 182.4 98.05 182.9 98.05 183.4 98.4 183.4 98.75 183.4 98.75 182.9
M 99.1 164.7
L 99.1 164.65
Q 99.1 164.3 98.85 164.3 98.55 164.3 98.55 164.7 98.55 165.1 98.85 165.1 99.1 165.1 99.1 164.7
M 156.8 148.15
Q 156.8 147.7 156.45 147.7 156.05 147.7 156.05 148.15 156.05 148.65 156.45 148.65 156.8 148.65 156.8 148.15
M 53.8 176.8
Q 53.8 176.2 53.35 176.2 52.9 176.2 52.9 176.8 52.9 177.4 53.35 177.4 53.8 177.4 53.8 176.8
M 80.6 167.65
Q 80.6 167.15 80.25 167.15 79.9 167.15 79.9 167.65 79.9 168.15 80.25 168.15 80.6 168.15 80.6 167.65
M 163.4 168.3
Q 163.75 168.3 163.75 167.8 163.75 167.35 163.4 167.35 163 167.35 163 167.8 163 168.3 163.4 168.3
M 164.3 163.65
Q 164.3 163.2 163.9 163.2 163.55 163.2 163.55 163.65 163.55 164.15 163.9 164.15 164.3 164.15 164.3 163.65
M 167.2 102.45
Q 166.95 102.45 166.85 102.85 166.95 103.25 167.2 103.25 167.45 103.25 167.45 102.85 167.45 102.45 167.2 102.45
M 32.4 124.35
Q 32.4 123.8 32.05 123.8 31.65 123.8 31.65 124.35 31.65 124.8 32.05 124.8 32.4 124.8 32.4 124.35
M 53.75 54.95
Q 53.75 54.5 53.35 54.5 53 54.5 53 54.95 53 55.45 53.35 55.45 53.75 55.45 53.75 54.95
M 23.45 87.95
Q 23.45 87.45 23.05 87.45 22.75 87.45 22.75 87.95 22.75 88.4 23.05 88.4 23.45 88.4 23.45 87.95
M 27.65 77.45
Q 28 77.45 28 76.95 28 76.5 27.65 76.5 27.3 76.5 27.3 76.95 27.3 77.45 27.65 77.45
M 21.85 64.7
Q 21.85 64.1 21.4 64.1 20.95 64.1 20.95 64.7 20.95 65.35 21.4 65.35 21.85 65.35 21.85 64.7
M 32.05 59.45
Q 32.05 58.95 31.65 58.95 31.3 58.95 31.3 59.45 31.3 59.9 31.65 59.9 32.05 59.9 32.05 59.45
M 62.55 46.15
Q 62.55 45.65 62.2 45.65 61.8 45.65 61.8 46.15 61.8 46.65 62.2 46.65 62.55 46.65 62.55 46.15
M 67 36.6
Q 67 35.75 66.4 35.75 65.75 35.75 65.75 36.6 65.75 37.4 66.4 37.4 67 37.4 67 36.6
M 76.4 32.25
L 76.05 33.35 77.15 32.95 78.1 33.6 78.05 32.45 78.95 31.75 77.85 31.45 77.45 30.35 76.8 31.3 75.65 31.3 76.4 32.25
M 72.1 26.65
Q 72.1 26.05 71.65 26.05 71.2 26.05 71.2 26.65 71.2 27.3 71.65 27.3 72.1 27.3 72.1 26.65
M 55.2 40.6
Q 55.55 40.6 55.55 40.15 55.55 39.65 55.2 39.65 54.8 39.65 54.8 40.15 54.8 40.6 55.2 40.6
M 41.25 39.1
Q 41.65 39.1 41.65 38.6 41.65 38.1 41.25 38.1 40.9 38.1 40.9 38.6 40.9 39.1 41.25 39.1
M 43.55 47.3
L 42.25 49.3 39.85 49.35 41.35 51.2 40.65 53.5 42.9 52.65 44.8 54.05 44.7 51.65 46.6 50.2 44.3 49.55 43.55 47.3
M 57.9 24.05
Q 57.55 24.05 57.55 24.45 57.55 24.85 57.9 24.85 58.15 24.85 58.15 24.45 58.15 24.05 57.9 24.05
M 80.95 16.4
Q 80.95 15.9 80.6 15.9 80.25 15.9 80.25 16.4 80.25 16.9 80.6 16.9 80.95 16.9 80.95 16.4
M 64.2 24.05
Q 64.2 23.55 63.85 23.55 63.45 23.55 63.45 24.05 63.45 24.5 63.85 24.5 64.2 24.5 64.2 24.05
M 110.7 26.6
Q 110.7 27.25 111.15 27.25 111.65 27.25 111.65 26.6 111.65 26 111.15 26 110.7 26 110.7 26.6
M 99.85 32.65
L 99.65 33.35 100.3 33.1 100.85 33.45 100.8 32.8 101.4 32.35 100.7 32.15 100.5 31.5 100.1 32.1 99.4 32.1 99.85 32.65
M 98.65 26.45
Q 98.65 25.8 98.2 25.8 97.75 25.8 97.75 26.45 97.75 27.05 98.2 27.05 98.65 27.05 98.65 26.45
M 99.5 18.2
Q 99.5 17.7 99.1 17.7 98.75 17.7 98.75 18.2 98.75 18.7 99.1 18.7 99.5 18.7 99.5 18.2
M 88.45 21.6
L 87.25 21.65 88 22.55 87.65 23.65 88.8 23.25 89.7 23.9 89.65 22.75 90.6 22.05 89.45 21.75 89.1 20.65 88.45 21.6
M 113.25 17.05
Q 113.25 16.55 112.85 16.55 112.5 16.55 112.5 17.05 112.5 17.5 112.85 17.5 113.25 17.5 113.25 17.05
M 120.4 20.9
Q 120.15 20.9 120.15 21.3 120.15 21.7 120.4 21.7 120.7 21.7 120.7 21.3 120.7 20.9 120.4 20.9
M 150.25 44.3
Q 150.45 44.05 150.45 43.7 150.45 42.85 149.8 42.85 149.2 42.85 149.2 43.7 149.2 44.55 149.8 44.55 150.05 44.55 150.25 44.3
M 153.6 36.25
Q 153.95 36.25 153.95 35.75 153.95 35.25 153.6 35.25 153.25 35.25 153.25 35.75 153.25 36.25 153.6 36.25
M 141.55 48.75
Q 141.2 48.75 141.2 49.2 141.2 49.7 141.55 49.7 141.95 49.7 141.95 49.2 141.95 48.75 141.55 48.75
M 123.85 36.2
Q 123.45 36.2 123.45 36.7 123.45 37.15 123.85 37.15 124.2 37.15 124.2 36.7 124.2 36.2 123.85 36.2
M 131.2 29.8
Q 130.85 29.8 130.85 30.3 130.85 30.8 131.2 30.8 131.6 30.8 131.6 30.3 131.6 29.8 131.2 29.8
M 139.45 36.3
Q 139.45 36.7 139.7 36.7 140.05 36.7 140.05 36.3 140.05 35.9 139.7 35.9 139.45 35.9 139.45 36.3
M 131.5 24.4
Q 131.5 23.9 131.15 23.9 130.8 23.9 130.8 24.4 130.8 24.9 131.15 24.9 131.5 24.9 131.5 24.4
M 166.75 75.35
Q 166.4 75.35 166.4 75.8 166.4 76.3 166.75 76.3 167.15 76.3 167.15 75.8 167.15 75.35 166.75 75.35
M 170.95 63.4
L 169.85 63.05 169.45 61.95 168.85 62.95 167.65 63 168.35 63.9 168.05 65 169.15 64.6 170.1 65.3 170.05 64.1 170.95 63.4
M 164.3 56.8
Q 164.6 56.8 164.6 56.45
L 164.6 56.4
Q 164.6 56 164.3 56 164 56 164 56.4 164 56.8 164.3 56.8 Z"/>
</g>
</defs>

<g transform="matrix( 1, 0, 0, 1, 0,0) ">
<use xlink:href="#Layer0_0_FILL"/>
</g>
</svg>
