<?xml version="1.0" encoding="UTF-8" standalone="no"?>
<svg
   xmlns:dc="http://purl.org/dc/elements/1.1/"
   xmlns:cc="http://creativecommons.org/ns#"
   xmlns:rdf="http://www.w3.org/1999/02/22-rdf-syntax-ns#"
   xmlns:svg="http://www.w3.org/2000/svg"
   xmlns="http://www.w3.org/2000/svg"
   xmlns:sodipodi="http://sodipodi.sourceforge.net/DTD/sodipodi-0.dtd"
   xmlns:inkscape="http://www.inkscape.org/namespaces/inkscape"
   viewBox="0 0 1662.5 1662.5"
   height="1662.5"
   width="1662.5"
   xml:space="preserve"
   version="1.1"
   id="svg2"
   inkscape:version="0.91 r13725"
   sodipodi:docname="013.svg"><sodipodi:namedview
     pagecolor="#ffffff"
     bordercolor="#666666"
     borderopacity="1"
     objecttolerance="10"
     gridtolerance="10"
     guidetolerance="10"
     inkscape:pageopacity="0"
     inkscape:pageshadow="2"
     inkscape:window-width="1567"
     inkscape:window-height="956"
     id="namedview9836"
     showgrid="false"
     inkscape:zoom="0.14195489"
     inkscape:cx="831.25"
     inkscape:cy="831.25"
     inkscape:window-x="0"
     inkscape:window-y="0"
     inkscape:window-maximized="0"
     inkscape:current-layer="svg2" /><metadata
     id="metadata8"><rdf:RDF><cc:Work
         rdf:about=""><dc:format>image/svg+xml</dc:format><dc:type
           rdf:resource="http://purl.org/dc/dcmitype/StillImage" /></cc:Work></rdf:RDF></metadata><defs
     id="defs6" /><g
     transform="matrix(2.0122734,0,0,-2.0122734,-537.77207,2229.6868)"
     id="g10"><g
       transform="scale(0.1,0.1)"
       id="g12"><path
         id="path16"
         style="fill:#ff5ab6;fill-opacity:1;fill-rule:nonzero;stroke:none"
         d="m 4373.32,6585.62 c 11.18,-2.37 22.61,-4.69 34.4,-6.91 -11.48,-0.05 -22.92,2.66 -34.4,6.91 m -253.21,63.9 19.7,-5.13 -19.21,-2.64 -0.49,7.77 z m 5878.44,18.87 c -53.85,2.91 -102.27,4.34 -148.01,4.34 -85.97,0 -167.14,-5.07 -248.17,-15.46 l -48.96,-6.27 -149.68,16.38 c -64.73,7.08 -139.63,10.98 -210.91,10.98 -9.09,0 -18.06,-0.06 -26.91,-0.2 l -0.02,2.16 -218.73,7.45 c -52.8,1.8 -96.34,2.64 -137.03,2.64 -121.48,0 -227.31,-7.78 -333.08,-24.48 l -222.07,-91.95 61.24,115 c 188.47,353.9 342.9,633.25 506.38,929.02 39.74,71.89 80.1,144.91 121.74,220.39 l 175.68,318.61 -363.3,19.64 c -53.86,2.91 -102.28,4.32 -148.02,4.32 -85.97,0 -167.14,-5.05 -248.16,-15.44 l -48.97,-6.27 -149.68,16.37 c -64.72,7.08 -139.61,10.97 -210.9,10.97 -73.29,0 -139.36,-3.93 -196.39,-11.71 l -22.25,-3.04 c -52.91,3.57 -93.3,5.16 -131.33,5.16 -67.01,0 -131.56,-4.95 -215.85,-16.54 l -76.13,-10.48 -0.51,8 -199.53,13.66 c -69.93,4.79 -125.33,6.93 -179.61,6.93 -61.58,0 -122.65,-2.95 -186.71,-9 l -65.76,-6.23 6.71,16.78 -326.71,9.54 c -63.05,1.84 -128.47,2.77 -194.44,2.77 -169.49,0 -412.17,-6.18 -605.74,-35.63 l -139.03,-21.17 -3.8,-11.63 c -42.8,24.5 -90.74,44.21 -143.47,58.23 -90.92,23.93 -187.09,26.7 -251.51,26.7 l -3.4,0 -3.41,-0.09 c -123.54,-3.7 -280.73,-28.54 -400.47,-63.29 l -113.86,-33.07 -38.46,-112.14 c -124.49,-363 -214.17,-685.02 -309.12,-1025.93 l -86.51,-310.23 55.23,-14.36 -198.36,13.57 c -69.94,4.79 -125.34,6.95 -179.61,6.95 -61.59,0 -122.66,-2.95 -186.72,-9.02 l -115.86,33.56 -69.74,-164.74 c -149.8,-322.75 -258.38,-628.66 -373.32,-952.53 -24.06,-67.79 -48.56,-136.81 -73.97,-207.54 L 2803.79,5042.96 3150.7,5065 c 41.62,2.66 90.7,5.36 139.04,5.36 41.22,0 78.95,-1.97 115.36,-6.02 l 69.2,-7.68 0.76,-7.54 37.72,3.27 66.72,-7.41 5.31,13.66 114.58,9.97 c 36.64,3.16 52.89,4.14 69.55,4.14 16.87,0 38.14,-1.07 71.48,-3.02 l 55.35,-3.27 -0.64,-13.41 262.13,12.29 -7.89,-26.82 328.04,23.41 c 25.97,1.84 56.9,3.32 89.74,4.32 l 59.6,-1.88 0.34,3.13 c 12.54,0.14 25.08,0.25 37.5,0.25 31.23,0 59.98,-0.5 83.14,-1.43 l 157.66,-6.28 1.46,3.42 5.1,-12.37 163.51,10.75 c 108.52,7.14 184.41,11 274.52,11 13.98,0 28.34,-0.09 43.19,-0.29 l 63.8,-0.82 c 45.06,-18.68 94.48,-29.41 146.05,-31.05 l 3.63,-0.11 3.63,0 c 162.21,0 312.37,89.16 390.22,220.57 27.02,-28.85 56.97,-55.57 90.05,-79.55 126.86,-92.02 293.67,-142.68 469.7,-142.66 3.96,0 7.94,0.02 11.33,0.05 61.76,0.66 124.96,7.2 186.92,18.61 l -5.61,-19.07 328.03,23.41 c 50.96,3.64 120.94,5.82 187.17,5.82 31.24,0 59.98,-0.5 83.13,-1.43 l 157.64,-6.28 1.48,3.51 5.16,-12.46 97.25,6.39 -7.14,-15.71 347.78,31.07 0.1,0 c 13.97,0 28.34,-0.09 43.19,-0.29 l 338.18,-4.37 -0.47,1.19 52.55,-4.17 3.9,6.57 -2.99,-40.86 274.31,31.98 c 8.1,0.95 16.61,1.75 25.43,2.5 l -19.5,-40.59 397.01,32.52 c 14.13,1.16 28.13,2.13 42.08,2.97 l 44.89,-1.5 0.17,3.62 c 22.62,0.8 45.23,1.29 68.09,1.29 39.61,0 80.02,-1.18 123.53,-3.59 l 145.63,-8.11 68.57,128.75 c 188.48,353.91 342.93,633.32 506.44,929.12 39.7,71.84 80.1,144.83 121.7,220.29 l 175.7,318.59"
         inkscape:connector-curvature="0" /><path
         id="path18"
         style="fill:#ff5ab6;fill-opacity:1;fill-rule:nonzero;stroke:none"
         d="m 10623.2,8282.8 c -43.7,67.77 -102.4,135.62 -179.3,207.41 l -102.4,95.5 c -26.8,143.16 -70.3,285.56 -130.1,425.34 l -12.3,28.92 -20.7,23.73 c -55.1,63.35 -143.7,151.1 -275.91,181.53 l -430.24,99 L 9655,9004.8 c -12.77,2.55 -25.89,4.52 -39.37,5.83 l -132.82,12.9 c -45.29,76.31 -95.3,152.16 -149.88,227.27 l -19.7,27.11 -27.45,19.21 c -101.96,71.32 -207.11,118.13 -312.54,139.12 l -25.78,5.13 -30.29,-1.94 -484.75,-32.08 -589.41,81.66 519.64,-443.97 c 18.79,-16.05 37.14,-31.99 55.04,-47.83 -51,13.55 -102.14,20.38 -153.11,20.38 -5.47,0 -10.93,-0.08 -16.4,-0.24 l -29.3,-0.86 c -0.71,0.69 -23.34,23.19 -23.34,23.19 l -26.47,13.95 c -103.12,54.38 -199.84,80.82 -295.72,80.82 -4.75,0 -9.51,-0.07 -14.27,-0.2 l -510.49,-14.07 384.27,-336.34 c 297.02,-259.97 514.21,-556.49 611.61,-834.96 30.47,-87.12 49.25,-170.87 56.28,-251.64 -33.45,91.85 -77.87,184.94 -132.99,278.18 -95.04,160.76 -221.73,319.28 -366.37,458.42 l -34.28,32.98 -45.45,14.02 c -112.85,34.79 -229.26,53.17 -345.99,54.64 l -613.91,7.71 491.58,-367.83 c 177.98,-133.18 333.7,-304.11 438.45,-481.33 99.76,-168.74 146.25,-334.41 127.54,-454.56 -11.91,-76.51 -53.84,-186.86 -279.52,-261.44 -238.27,-78.73 -541.33,-118.66 -900.77,-118.66 -176.23,0 -370.91,9.54 -578.62,28.35 l -16.47,1.49 -14.85,-1.11 c -4.67,-0.26 -10.81,-0.7 -18.31,-1.71 l -1.21,-0.17 c -111.2,-15.65 -200.95,-98.27 -246.22,-226.69 -46.69,-132.46 -46.82,-316.22 58.15,-428.16 l 46.71,-49.82 67.43,-10.84 c 371.08,-59.67 739.44,-97.26 1094.85,-111.7 109.27,-4.46 218.47,-6.71 324.56,-6.71 198.6,0 393.32,7.9 578.76,23.47 839.85,70.59 1492.32,298.92 1939.28,678.66 414.5,352.17 643.8,825.54 681.6,1406.98 l 4.3,65.9"
         inkscape:connector-curvature="0" /><path
         id="path20"
         style="fill:#ff5ab6;fill-opacity:1;fill-rule:nonzero;stroke:none"
         d="m 6064.57,6098.7 -163.27,13.03 c -77.09,5.43 -144.78,38.86 -195.64,94.18 -748.36,48.98 -1327.61,142.25 -1621.09,196.8 l 0,-84.2 -222.8,48.34 c -2.5,0.44 -4.98,0.9 -7.47,1.41 -5.75,1.17 -11.14,2.41 -16.3,3.75 l -157.59,34.26 c -176.04,36.5 -279.75,205.88 -258.14,422.12 20.43,204.65 150.91,411.82 360.8,411.82 l 2.68,-0.01 c 17.05,-0.21 37,-0.97 61,-5.01 l 158.61,-25.23 0.78,-0.08 13.7,-2.21 2.14,-0.39 c 73.02,-13.4 134.84,-51.24 179.91,-108.24 286.5,-54.33 867.47,-150.47 1592.57,-196.04 35.68,22.78 74.99,37.61 116.13,43.38 14.12,1.94 30.73,3.84 50.87,3.84 3.31,0 6.68,-0.05 10.13,-0.15 0,0 151.18,-2.68 151.3,-2.68 3.74,0 7.36,-0.09 11.22,-0.24 150.98,-5.96 301.25,-131.86 295.94,-399.66 -3.39,-171.09 -67.53,-311.37 -166.64,-387.45 l -3.73,-76.8 c 0,0 -194.8,15.44 -195.11,15.46"
         inkscape:connector-curvature="0" /><path
         id="path22"
         style="fill:#c5348a;fill-opacity:1;fill-rule:nonzero;stroke:none"
         d="m 9356.54,5248.07 c -115.08,6.41 -212.59,4.79 -310.07,-3.18 39.95,83.09 89.5,188.57 143.84,300.46 -20.77,-3.21 -63.93,0 -83.13,-3.21 -22.36,126.27 -65.5,524.23 -79.91,858.27 105.49,14.38 249.36,11.19 351.62,0 -15.98,-161.43 -12.76,-359.61 -1.6,-517.84 83.13,169.43 183.82,372.39 254.12,508.23 124.66,16 236.55,16 354.82,9.61 -214.17,-388.38 -394.78,-711.23 -629.69,-1152.34 M 6764.18,7902.26 c 118.28,11.19 212.56,9.58 329.23,1.6 9.58,-150.24 22.39,-350.02 38.38,-501.85 95.87,151.83 190.16,340.43 284.48,492.26 127.86,17.57 196.57,17.57 326.02,7.99 -44.74,-364.4 -92.68,-784.74 -131.05,-1134.76 -100.68,3.2 -185.38,-1.59 -287.68,-6.38 8,167.81 17.59,397.95 28.76,562.57 -100.67,-182.19 -201.37,-380.39 -310.05,-557.78 -81.51,4.79 -100.69,4.79 -174.21,-1.61 -17.58,174.21 -27.16,383.59 -27.16,556.2 -99.1,-206.18 -155.04,-388.37 -222.17,-560.98 -100.68,11.18 -193.38,7.98 -294.07,1.6 147.04,409.15 263.72,762.34 439.52,1141.14 M 9356.54,5248.07 c -115.08,6.41 -212.59,4.79 -310.07,-3.18 39.95,83.09 89.5,188.57 143.84,300.46 -20.77,-3.21 -63.93,0 -83.13,-3.21 -22.36,126.27 -65.5,524.23 -79.91,858.27 105.49,14.38 249.36,11.19 351.62,0 -15.98,-161.43 -12.76,-359.61 -1.6,-517.84 83.13,169.43 183.82,372.39 254.12,508.23 124.66,16 236.55,16 354.82,9.61 -214.17,-388.38 -394.78,-711.23 -629.69,-1152.34 m -666.48,474.69 c 1.6,132.65 -6.41,279.69 -14.39,415.53 -81.51,-134.25 -155.03,-279.68 -226.94,-412.34 81.5,3.19 155.04,4.8 241.33,-3.19 m -714.43,-458.71 c 167.83,369.21 346.84,768.75 537.02,1136.36 151.83,23.97 286.08,23.97 426.73,19.16 3.2,-388.36 12.79,-791.11 -4.79,-1165.09 -95.9,3.18 -202.96,6.38 -298.87,-4.8 4.78,65.52 6.41,135.84 7.98,202.96 -91.09,-3.18 -177.39,-3.18 -286.07,-11.18 -30.37,-57.53 -59.14,-118.27 -94.29,-177.41 -100.7,8 -198.21,8 -287.71,0 M 6139.29,7421.19 c -22.38,-81.51 -41.56,-142.25 -70.32,-223.75 -94.3,6.38 -278.09,4.79 -370.8,-1.62 -15.97,-55.93 -33.56,-107.07 -51.13,-163 103.87,0 292.47,6.39 410.75,20.77 -38.37,-99.09 -78.32,-190.2 -129.47,-287.68 -210.96,-12.79 -490.66,-8 -640.9,-8 92.71,377.19 174.21,736.8 303.67,1133.16 220.56,33.56 540.21,36.76 759.17,30.36 -41.56,-103.88 -84.71,-215.77 -124.67,-321.24 -105.49,4.79 -292.48,0 -405.95,-11.19 -19.18,-57.54 -38.35,-119.87 -55.94,-179.02 107.09,16 279.69,14.4 375.59,11.21 m -1032.46,159.82 c 25.57,76.72 -23.97,131.04 -196.58,86.29 -25.57,-75.1 -49.55,-143.84 -73.52,-218.94 156.63,-9.6 244.53,46.35 270.1,132.65 m -115.07,-457.1 c 23.97,79.91 -57.54,132.66 -244.53,102.29 -23.98,-79.91 -46.35,-148.63 -70.32,-228.56 183.79,-27.16 287.68,35.18 314.85,126.27 m -316.46,762.37 c 99.1,28.77 236.56,51.14 343.63,54.33 62.33,0 132.65,-3.19 193.39,-19.18 126.25,-33.56 226.94,-121.47 204.57,-279.68 -17.58,-126.27 -147.03,-255.72 -302.07,-300.47 126.27,-15.99 244.53,-99.1 218.97,-249.33 -22.39,-134.25 -116.68,-234.94 -255.72,-290.88 -116.68,-46.36 -270.11,-57.54 -364.41,-59.14 -171.01,-3.2 -287.68,23.98 -367.59,44.75 103.88,372.39 196.58,712.82 329.23,1099.6"
         inkscape:connector-curvature="0" /><path
         id="path24"
         style="fill:#ffd2eb;fill-opacity:1;fill-rule:nonzero;stroke:none"
         d="m 9356.54,5288.07 c -115.08,6.41 -212.59,4.79 -310.07,-3.18 39.95,83.09 89.5,188.57 143.84,300.46 -20.77,-3.21 -63.93,0 -83.13,-3.21 -22.36,126.27 -65.5,524.23 -79.91,858.27 105.49,14.38 249.36,11.19 351.62,0 -15.98,-161.43 -12.76,-359.61 -1.6,-517.84 83.13,169.43 183.82,372.39 254.12,508.23 124.66,16 236.55,16 354.82,9.61 -214.17,-388.38 -394.78,-711.23 -629.69,-1152.34 M 6764.18,7942.26 c 118.28,11.19 212.56,9.58 329.23,1.6 9.58,-150.24 22.39,-350.02 38.38,-501.85 95.87,151.83 190.16,340.43 284.48,492.26 127.86,17.57 196.57,17.57 326.02,7.99 -44.74,-364.4 -92.68,-784.74 -131.05,-1134.76 -100.68,3.2 -185.38,-1.59 -287.68,-6.38 8,167.81 17.59,397.95 28.76,562.57 -100.67,-182.19 -201.37,-380.39 -310.05,-557.78 -81.51,4.79 -100.69,4.79 -174.21,-1.61 -17.58,174.21 -27.16,383.59 -27.16,556.2 -99.1,-206.18 -155.04,-388.37 -222.17,-560.98 -100.68,11.18 -193.38,7.98 -294.07,1.6 147.04,409.15 263.72,762.34 439.52,1141.14 M 9356.54,5288.07 c -115.08,6.41 -212.59,4.79 -310.07,-3.18 39.95,83.09 89.5,188.57 143.84,300.46 -20.77,-3.21 -63.93,0 -83.13,-3.21 -22.36,126.27 -65.5,524.23 -79.91,858.27 105.49,14.38 249.36,11.19 351.62,0 -15.98,-161.43 -12.76,-359.61 -1.6,-517.84 83.13,169.43 183.82,372.39 254.12,508.23 124.66,16 236.55,16 354.82,9.61 -214.17,-388.38 -394.78,-711.23 -629.69,-1152.34 m -666.48,474.69 c 1.6,132.65 -6.41,279.69 -14.39,415.53 -81.51,-134.25 -155.03,-279.68 -226.94,-412.34 81.5,3.19 155.04,4.8 241.33,-3.19 m -714.43,-458.71 c 167.83,369.21 346.84,768.75 537.02,1136.36 151.83,23.97 286.08,23.97 426.73,19.16 3.2,-388.36 12.79,-791.11 -4.79,-1165.09 -95.9,3.18 -202.96,6.38 -298.87,-4.8 4.78,65.52 6.41,135.84 7.98,202.96 -91.09,-3.18 -177.39,-3.18 -286.07,-11.18 -30.37,-57.53 -59.14,-118.27 -94.29,-177.41 -100.7,8 -198.21,8 -287.71,0 M 6139.29,7461.19 c -22.38,-81.51 -41.56,-142.25 -70.32,-223.75 -94.3,6.38 -278.09,4.79 -370.8,-1.62 -15.97,-55.93 -33.56,-107.07 -51.13,-163 103.87,0 292.47,6.39 410.75,20.77 -38.37,-99.09 -78.32,-190.2 -129.47,-287.68 -210.96,-12.79 -490.66,-8 -640.9,-8 92.71,377.19 174.21,736.8 303.67,1133.16 220.56,33.56 540.21,36.76 759.17,30.36 -41.56,-103.88 -84.71,-215.77 -124.67,-321.24 -105.49,4.79 -292.48,0 -405.95,-11.19 -19.18,-57.54 -38.35,-119.87 -55.94,-179.02 107.09,16 279.69,14.4 375.59,11.21 m -1032.46,159.82 c 25.57,76.72 -23.97,131.04 -196.58,86.29 -25.57,-75.1 -49.55,-143.84 -73.52,-218.94 156.63,-9.6 244.53,46.35 270.1,132.65 m -115.07,-457.1 c 23.97,79.91 -57.54,132.66 -244.53,102.29 -23.98,-79.91 -46.35,-148.63 -70.32,-228.56 183.79,-27.16 287.68,35.18 314.85,126.27 m -316.46,762.37 c 99.1,28.77 236.56,51.14 343.63,54.33 62.33,0 132.65,-3.19 193.39,-19.18 126.25,-33.56 226.94,-121.47 204.57,-279.68 -17.58,-126.27 -147.03,-255.72 -302.07,-300.47 126.27,-15.99 244.53,-99.1 218.97,-249.33 -22.39,-134.25 -116.68,-234.94 -255.72,-290.88 -116.68,-46.36 -270.11,-57.54 -364.41,-59.14 -171.01,-3.2 -287.68,23.98 -367.59,44.75 103.88,372.39 196.58,712.82 329.23,1099.6"
         inkscape:connector-curvature="0" /><path
         id="path26"
         style="fill:#fffbfd;fill-opacity:1;fill-rule:nonzero;stroke:none"
         d="m 7742.3,7942.26 c -12.59,-102.47 -25.42,-209.41 -38.23,-317.92 -166.61,-17.33 -332.59,-37.23 -498.32,-58.64 70.59,123.08 140.55,255.93 210.52,368.57 127.86,17.57 196.57,17.57 326.03,7.99 m -621.14,-387.62 c -183.84,-24.26 -367.46,-50.09 -551.39,-75.95 58.91,153.99 121.55,306.59 194.41,463.57 118.28,11.19 212.57,9.58 329.23,1.6 7.36,-115.27 16.61,-259.65 27.75,-389.22 m -981.86,-93.45 c -4.21,-15.31 -8.28,-29.73 -12.35,-43.84 -234.4,-31.57 -470.02,-61.12 -707.99,-85.55 49.92,194.9 104.45,392.05 172.13,599.27 220.57,33.56 540.21,36.75 759.16,30.36 -41.55,-103.88 -84.7,-215.77 -124.66,-321.24 -105.48,4.79 -292.48,0 -405.95,-11.19 -19.19,-57.54 -38.35,-119.87 -55.94,-179.02 107.09,16 279.69,14.4 375.6,11.21 m -1032.46,159.82 c -25.57,-86.3 -113.48,-142.25 -270.11,-132.65 23.98,75.1 47.95,143.84 73.52,218.94 172.61,44.75 222.16,-9.57 196.59,-86.29 m 310.05,60.74 c 22.38,158.21 -78.32,246.12 -204.57,279.68 -60.73,15.98 -131.05,19.18 -193.39,19.18 -107.07,-3.2 -244.54,-25.56 -343.63,-54.33 -68.39,-199.43 -126.14,-386.52 -180.3,-572.03 255.07,-37.55 512.68,-55.65 774.3,-36.47 -41.35,35.02 -97.05,56.23 -154.48,63.5 155.04,44.75 284.5,174.2 302.07,300.47 M 9631.41,6430.8 c -70.3,-135.84 -171,-338.8 -254.11,-508.23 -11.17,158.23 -14.39,356.41 1.59,517.84 -102.26,11.19 -246.12,14.38 -351.62,0 8.28,-192.02 26.07,-405.05 43.93,-575.56 69.51,4.35 139.1,9.34 208.8,15.15 144.52,9.91 288.98,30.95 431.39,62.64 90.15,163.77 179.15,324.24 274.84,497.77 -118.28,6.39 -230.16,6.39 -354.82,-9.61 m -692.02,28.77 c 1.63,-198.8 4.93,-401.38 5.41,-601.95 -85.12,-4.32 -170.1,-7.49 -254.98,-9.8 -1.59,108.75 -7.84,223.06 -14.14,330.48 -65.79,-108.37 -126.36,-223.92 -185.09,-334.25 -89.41,-0.89 -178.73,-0.67 -268,0.41 93.62,201.43 190.3,403.09 290.07,595.95 151.82,23.97 286.07,23.97 426.73,19.16"
         inkscape:connector-curvature="0" /><path
         id="path28"
         style="fill:#2f3d4f;fill-opacity:1;fill-rule:nonzero;stroke:none"
         d="m 6125.92,6747.31 c -1.43,0.07 -2.74,0.12 -4.18,0.07 l -155.39,2.75 c -10.08,0.41 -18.28,-0.49 -28.03,-1.82 -28.83,-4.04 -53.57,-22.61 -73.55,-49.97 l -0.1,0.11 c -823.04,46.63 -1483.78,160.03 -1792.86,222.19 -13.9,47 -41.67,81.81 -85.93,89.92 l -5.88,0.96 c -0.1,0 -0.2,0 -0.3,0 l -165.45,26.32 c -10.74,1.87 -19.6,2.23 -30.31,2.37 -161.25,1.47 -242.15,-401.96 -62.21,-438.26 l 162.84,-35.39 0,0.1 c 2.92,-0.94 5.95,-1.67 9.08,-2.3 48.48,-9.73 90.06,14.18 121.74,55.34 317.7,-63.43 976.19,-171.93 1805.47,-220.56 16.15,-49.53 47.06,-84.87 95.2,-87.94 l 153.87,-12.29 0,0.11 c 2.45,-0.31 4.78,-0.52 7.22,-0.72 173.01,-10.9 212.99,442.53 48.77,449.01"
         inkscape:connector-curvature="0" /><path
         id="path30"
         style="fill:#1a1f25;fill-opacity:1;fill-rule:nonzero;stroke:none"
         d="m 6125.92,6747.31 c 164.22,-6.48 124.24,-459.91 -48.77,-449.01 -2.44,0.2 -4.77,0.41 -7.22,0.72 -159.61,21.79 -107.83,426.79 38.4,447.36 4.62,0.64 9.03,0.96 13.41,1 1.44,0.05 2.75,0 4.18,-0.07"
         inkscape:connector-curvature="0" /><path
         id="path32"
         style="fill:#8396aa;fill-opacity:1;fill-rule:nonzero;stroke:none"
         d="m 6044.37,6708.24 -146.08,7.46 c -38.59,-49.86 -62.93,-112.44 -71.15,-175.43 l 149.36,-1.11 c 9.38,65.9 33.14,129.89 67.87,169.08"
         inkscape:connector-curvature="0" /><path
         id="path34"
         style="fill:#8396aa;fill-opacity:1;fill-rule:nonzero;stroke:none"
         d="M 5843.16,6661.58 3896.8,6886.97 c -13.79,-21.75 -24.16,-48.36 -30.4,-76.01 l 1958.68,-196.24 c 5.04,16.53 11.07,32.31 18.08,46.86"
         inkscape:connector-curvature="0" /><path
         id="path36"
         style="fill:#1a1f25;fill-opacity:1;fill-rule:nonzero;stroke:none"
         d="m 5686.14,6541.29 c -66.62,20.9 -123.54,80.72 -161.24,130.33 44.06,15.37 93.43,28.4 147.97,39.12 -23.19,1.64 -46.21,3.33 -69.09,5.07 -140.07,-35.22 -241.13,-88.45 -302.39,-159.25 -94.23,23 -166.81,84.79 -222.38,143.34 78.06,31.64 165.95,42.26 232.4,41.23 -38.81,3.78 -77.09,7.66 -114.72,11.63 -44.1,-6.97 -89.97,-18.62 -132.85,-36.57 -0.27,0.31 -0.57,0.61 -0.83,0.9 l -2.53,-2.29 c -62.04,-26.53 -117.36,-66.34 -151.46,-124.02 -63.42,32.56 -123.09,97.91 -153.86,170.38 45.37,18.25 94.51,27.44 142.97,26.38 -29.7,3.78 -58.74,7.61 -87.38,11.45 -61.27,-13.23 -119.62,-41.29 -166.58,-81.95 -31.05,-26.88 -55.2,-58 -71.98,-91.8 -96.92,39.87 -175.94,105.25 -224.91,186.05 55.38,22.95 121.39,32.41 191.09,27.08 -36.23,5.63 -71.16,11.21 -104.77,16.73 -66.91,-9.67 -126.65,-33.94 -172.04,-71.54 -17.59,-14.58 -32.71,-31.07 -45.45,-49.15 -38.73,27.59 -98.3,80.19 -118.3,152.59 35.35,5.99 70.19,8.73 101.43,9.03 -27.41,5.1 -53.09,10 -77.21,14.7 -85.11,-10.86 -177.53,-39.09 -232,-94.09 -11.78,-11.89 -21.35,-24.74 -29.03,-38.36 -1.97,-19.29 -1.75,-38.34 0.84,-55.95 5.33,30.23 19.51,57.12 42.4,80.23 41.44,41.84 107.09,67.16 173.83,80.76 21.3,-79.55 85.79,-136.35 127.12,-165.66 -21.71,-36.8 -34.14,-79.55 -36.72,-126.96 6.62,-1.19 13.09,-2.37 19.87,-3.58 3.5,74.78 32.98,137.11 85.99,181.04 16.3,13.51 34.71,25.07 54.64,34.86 50.98,-85.23 133.57,-154.15 234.97,-196.02 -10.09,-24.82 -16.31,-50.91 -18.43,-77.75 6.62,-0.97 13.18,-1.94 19.87,-2.92 4.84,66.33 36.84,127.93 91.88,175.59 23.83,20.64 50.78,37.81 79.58,51.27 32.47,-76.27 95.46,-145.28 162.7,-180.06 -12.63,-26.02 -21.17,-55.32 -24.46,-88.3 6.89,-0.84 13.74,-1.7 20.69,-2.54 11.02,104.71 79.65,170.21 163.7,209.13 56.48,-60.38 130.63,-125.58 228.02,-152.08 -21.59,-28.93 -37,-60.57 -46.26,-94.88 6.72,-0.65 13.53,-1.3 20.28,-1.94 27.55,96.73 109.12,170.99 243.73,221.95 38.31,-51.38 97.61,-115.34 168.73,-140.19 -22.53,-32.99 -41.09,-70.31 -53.86,-111.95 6.8,-0.5 13.61,-0.99 20.44,-1.47 35.38,110.89 114.53,188.84 195.88,235.74 4.51,10.88 9.53,21.15 15.01,30.76 -58.95,-29.62 -118.87,-74.72 -165.3,-136.07"
         inkscape:connector-curvature="0" /><path
         id="path38"
         style="fill:#1a1f25;fill-opacity:1;fill-rule:nonzero;stroke:none"
         d="m 4071.81,6920.65 c -30.86,6.25 -58.18,11.95 -81.86,17 -123.37,26.96 -186.93,-273.9 -64,-299.31 25.8,-5.64 55.74,-11.86 89.44,-18.63 -31.68,-41.16 -73.26,-65.08 -121.73,-55.35 -3.14,0.63 -6.17,1.36 -9.09,2.3 -167.63,48.15 -76.6,447.16 81.89,445.72 4.59,-0.09 8.97,-0.37 13.24,-0.85 0.1,0 0.21,-0.01 0.3,-0.02 l 5.88,-0.94 c 44.26,-8.13 72.03,-42.93 85.93,-89.92"
         inkscape:connector-curvature="0" /><path
         id="path40"
         style="fill:#8396aa;fill-opacity:1;fill-rule:nonzero;stroke:none"
         d="m 3740.27,7000.08 c -44.87,-40.94 -76.49,-97.76 -96.29,-159.25 l 160.17,-28.58 c 14.16,65.77 44.03,128.66 83.88,165.83"
         inkscape:connector-curvature="0" /><path
         id="path42"
         style="fill:#2f3d4f;fill-opacity:1;fill-rule:nonzero;stroke:none"
         d="m 10307.4,8343.96 c 2.2,-557.08 -187.1,-1001.39 -562.82,-1320.58 -159.36,-135.4 -351.5,-248.93 -575.23,-340.25 40.92,21.75 80.85,44.69 119.79,68.71 357.26,220.32 628.92,533.86 772.56,901.73 1.5,3.72 3,7.39 4.4,11.11 86.8,227 121.2,464.68 102.4,706.5 -14.8,188.93 -62.1,376.96 -140.9,561.23 -46.62,53.52 -100.77,101.98 -169.96,117.91 240.66,-447.03 280.06,-912.94 113.24,-1349.23 -107.56,-281.34 -294.9,-529.66 -540.64,-725.75 14.19,13.55 28.2,27.23 41.76,41.18 158.24,162.66 273.67,351.94 343.09,562.59 107.82,327.25 103.48,701.8 -10.94,1093.34 -57.97,69.43 -124.32,131 -207.85,139.12 348.23,-917.32 54.36,-1684.48 -786.61,-2061.93 190.3,116.41 348.17,265.4 454.78,455.09 142.76,144.16 240.8,311.66 290.34,499.18 66.44,251.41 46.89,529.09 -58.12,825.34 -71.51,201.79 -182.62,407.25 -325.56,603.98 -72.78,50.93 -151.85,89.91 -236.94,106.86 -1.06,-0.07 -2.13,-0.11 -3.19,-0.18 432.41,-504.43 621.42,-1066.21 505.53,-1504.75 -2.05,-7.75 -4.3,-15.41 -6.53,-23.07 29.36,237.89 -8.21,475.16 -112.81,709.23 -99.56,222.75 -258.48,442.86 -482.01,667.36 -108,51.66 -222.02,91.71 -342.61,108.41 748.3,-639.32 961.86,-1227.89 672.05,-1852.23 -23.08,-49.66 -50.4,-97.16 -81.93,-142.5 -6.67,-5.43 -13.47,-10.75 -20.29,-16.09 56.17,83.62 97.43,172.37 122.75,265.39 62.31,228.91 65.35,454.79 9,671.32 -36.5,140.31 -98.2,277.06 -184.12,408.91 -84.59,59.13 -183.98,103.49 -282.74,116.38 318.33,-353.86 422.88,-742.79 310.31,-1156.45 -55.16,-202.71 -196.93,-378.55 -422.1,-524.41 72.39,68.5 134.84,146.48 179.45,234.84 288.71,571.98 -29.8,1182.66 -288.45,1540.27 -76.45,46.37 -163.13,77.53 -252.44,74.91 232.2,-275.27 706.68,-947.32 404.38,-1546.27 -12.64,-25.03 -27.39,-49.37 -43.95,-73.07 114.47,259.93 120.45,549 15,850.48 -97.58,278.97 -291.19,567.22 -553.71,828.16 -66.55,35.09 -136.46,59.66 -211.19,57.59 322.83,-282.57 559.73,-607.93 668.66,-919.41 132.35,-378.37 78.54,-720.48 -159.98,-1016.8 -19.38,-24.09 -40.05,-46.88 -61.85,-68.56 -82.97,-50.55 -174.48,-95.32 -270.14,-134.17 150.75,121.75 208.03,269.48 226.77,389.8 32.01,205.43 -27.63,443.5 -172.45,688.45 -87.11,147.33 -201.46,289.66 -332.87,416.08 -94.65,29.18 -193.2,44.58 -289.57,45.79 198.6,-148.61 372.33,-339.29 490.8,-539.68 124.76,-211.03 179.09,-419.55 152.99,-587.12 -30.89,-198.41 -170.31,-339.91 -414.38,-420.56 -384.32,-127 -896.04,-159.76 -1560.19,-99.6 -1.63,-0.13 -3.22,-0.15 -4.93,-0.36 -96.52,-13.59 -139.04,-246.43 -70.04,-320.02 294.12,-47.3 665.02,-92.8 1071.24,-109.32 280.68,-11.43 578.15,-9 878.42,16.23 797.48,67.02 1412,279.57 1826.53,631.77 372.2,316.25 577.4,742.12 611.5,1267.55 -41,63.68 -95.8,121.24 -147.7,169.57"
         inkscape:connector-curvature="0" /><path
         id="path44"
         style="fill:#8396aa;fill-opacity:1;fill-rule:nonzero;stroke:none"
         d="m 7563.09,6568.03 c -652.99,-103.55 -1441.36,0 -1441.36,0 680.48,-161.04 1441.36,0 1441.36,0 m 727.52,179.23 c 259.53,148.84 484.69,483.32 501.37,789 0,0 -133.43,-524.69 -501.37,-789 m 3.34,-179.23 c 367.6,92.76 828.1,437.97 902.12,758.64 -99.28,-342.04 -567.06,-610.96 -902.12,-758.64 m 778.85,1858.71 c -81.16,40.7 -136.96,61.12 -227.14,74.52 11.91,-16.65 23.27,-33.39 34.29,-50.18 164.1,26.23 253.82,-197.4 307.97,-305.63 -26.78,95.59 -65.19,189.51 -115.12,281.29 M 7846.01,8204.92 c -92.21,31.36 -187.88,53.4 -281.35,57.48 34.3,-29.06 67.57,-59.39 99.79,-90.67 124.19,-20.53 240.25,-93.39 348.12,-170.62 -50.09,70.33 -106.02,138.69 -166.56,203.81 m 341.13,554.64 c -60.95,18.39 -123.57,32.87 -186.19,47.79 29.99,-29.7 58.96,-59.78 87.01,-90.13 72.38,-10.56 142.22,-40.87 205.99,-83.63 -33.81,42.42 -69.4,84.46 -106.81,125.97 m 457.93,-227.99 c -15.87,26.82 -31.94,52.91 -48.09,78.13 -72.87,55.68 -156.25,91.45 -242.88,82.04 15.54,-20.71 31.43,-42.48 47.49,-65.2 95.55,14.11 176.73,-27.53 243.48,-94.97 m 278.79,464.49 c -80.01,35.34 -169.68,52.51 -248.41,35.49 37.76,-36.35 73.73,-72.55 107.96,-108.63 126.32,-18.09 249.05,-92.16 353.2,-188.32 -61.36,86.91 -132.11,173.92 -212.75,261.46 m 420.58,-133.72 c -14.49,26.01 -29.39,51.99 -45.03,77.87 -88,92.23 -188.61,170.99 -301.77,218.89 45.62,-57.24 88,-115.09 127.32,-173.27 81.57,-21.6 154.61,-66.13 219.48,-123.49 m 959.66,-651.54 c -2.4,-44.68 -6.2,-88.55 -11.2,-131.66 43.5,-90.69 82.2,-193.93 100.4,-295.7 13.9,53.35 25.7,107.96 35.3,163.9 -36,89.88 -80.9,176.52 -124.5,263.46 m -159.2,337.34 c -14,74.82 -32.9,149.37 -57,223.44 -49.9,50.36 -105.27,96.18 -161.8,138.61 12.79,-29 24.65,-58.06 35.77,-87.16 80.13,-72.19 144.03,-169.72 183.03,-274.89 m -266.83,-228.75 c 10.56,-85 15.44,-168.65 14.81,-250.66 -33.49,186.81 -112.88,370.18 -224.87,523.56 -12.99,47.24 -27.64,94.93 -44.21,143.08 96.83,-130.57 183.37,-269.26 254.27,-415.98"
         inkscape:connector-curvature="0" /><path
         id="path46"
         style="fill:#1a1f25;fill-opacity:1;fill-rule:nonzero;stroke:none"
         d="m 9430,7712.09 c -28.3,-204.86 -77.4,-374.11 -165.53,-507.36 0,0 36.12,31.72 79.27,88.06 0,0 95.81,218.05 116.07,558.94 L 9430,7712.09 Z m -815.51,-514 c -129.86,-304.27 -468.96,-510.16 -848.08,-608.54 0,0 748.98,96.27 931.85,772.41 l -83.77,-163.87 z M 8161.2,6921.5 c -550.91,-338.12 -1537.64,-322.48 -1537.64,-322.48 488.81,-21.82 1033.17,49.59 1417.72,196.36 85.33,69.39 119.92,126.12 119.92,126.12 M 8320,6400 c -68.42,-12.07 -146.76,-22.16 -228.75,-32.7 615.23,164.02 1270.83,385.09 1635.28,902.34 -5.42,-6.59 -10.9,-13.16 -16.53,-19.64 -4.32,-4.68 -8.79,-9.16 -13.15,-13.8 -78.56,-94.54 -167.76,-181.99 -266.61,-260.86 14.19,13.55 28.2,27.23 41.76,41.18 18.18,18.68 35.71,37.75 52.75,57.12 -391.73,-327.62 -890.92,-493.41 -1395.6,-578.05 -236.08,-48.68 -476.23,-73.54 -699.15,-85.59 450,80 920,130 1290,430 264.28,212.89 447.55,506.66 506.63,829.79 1.43,13.21 2.58,26.41 3.6,39.59 C 9159.9,7414.18 8995.27,7143.25 8760,6950 c -289.68,-229.55 -636.11,-330.66 -993.59,-360.45 -23.27,-4.59 -46.52,-9 -69.72,-13.12 -310.42,-74.13 -631.24,-93.77 -946.69,-86.43 310,-20 620,-10 930,30 -510,-130 -1040,-70 -1560,-20 110,-30 220,-60 330,-50 -136.4,-23.73 -272.79,-33.27 -409.19,-28.84 5.53,-21.3 14.2,-39.77 26.6,-53 294.12,-47.3 665.02,-92.8 1071.24,-109.32 127.53,-5.2 258.64,-7.34 391.79,-5.96 28.42,0.71 110.06,1.55 194.25,4.67 664.39,79.15 1357.43,216.7 1863.25,647.11 -83.78,-56.89 -174.5,-109.07 -272.27,-156.36 C 9016.44,6559.54 8671.92,6468.68 8320,6400 m -419.62,262.55 c -54.75,-20.01 -110.37,-37.87 -166.71,-53.76 -553.22,-108 -1121.91,-85.22 -1677.68,-5.47 6.36,15.98 13.88,30.73 22.64,43.2 218.35,-17.43 409.4,-28.11 577.7,-33.32 410.27,-52.93 845.94,-50.68 1244.05,49.35"
         inkscape:connector-curvature="0" /><path
         id="path48"
         style="fill:#c5348a;fill-opacity:1;fill-rule:nonzero;stroke:none"
         d="m 7957.75,7054.77 c 0,0 -73.2,-1.18 -92.39,-4.38 -22.38,126.27 -65.52,524.22 -79.91,858.25 105.48,14.4 172.3,-853.87 172.3,-853.87 m -157.91,-1164.2 c 81.52,75.11 127.88,249.32 -4.79,266.91 -38.35,6.38 -94.28,0 -145.42,-22.39 -28.77,-100.68 -57.54,-199.77 -87.92,-300.46 94.29,-11.18 187.01,7.98 238.13,55.94 m -404.36,485.86 c 84.72,25.57 266.93,60.73 401.18,55.93 76.72,-3.18 185.4,-4.79 271.72,-49.54 84.69,-44.75 150.21,-131.05 148.62,-281.28 0,-180.61 -107.09,-380.38 -356.41,-465.09 28.75,-79.91 86.3,-239.75 139.04,-375.59 -123.06,1.59 -214.17,-3.2 -335.61,-11.18 -41.57,100.68 -100.7,238.12 -134.25,337.21 -8.02,0 -28.8,1.61 -33.59,3.2 -60.73,-148.63 -91.09,-230.14 -135.84,-335.61 -79.91,3.18 -206.16,1.59 -295.68,-4.8 107.07,364.39 206.18,744.77 330.82,1126.75 m -489.05,-313.25 c -230.14,-3.2 -519.43,-147.04 -497.05,-420.34 6.39,-84.7 76.71,-156.63 186.98,-158.23 63.95,0 110.3,6.39 155.04,33.57 14.39,54.32 47.96,190.18 75.12,276.48 86.3,8 195,12.8 316.45,12.8 -36.76,-126.26 -84.7,-298.87 -139.04,-453.91 -102.29,-75.12 -281.3,-124.66 -434.73,-126.25 -247.73,-3.19 -493.86,126.25 -505.05,404.34 -15.97,382 294.1,671.27 650.49,751.18 177.41,39.97 380.38,31.97 516.22,0 -30.36,-142.23 -46.34,-209.37 -92.68,-359.59 -62.32,25.56 -143.84,41.54 -231.75,39.95 m -1082,-674.45 c -19.16,-89.52 -115.07,-159.84 -214.16,-159.84 -100.68,3.2 -164.61,75.13 -147.04,161.43 22.38,89.5 118.27,161.41 218.97,158.23 97.48,0 163.02,-70.32 142.23,-159.82 m -628.09,501.84 c 81.52,75.11 127.86,249.32 -4.8,266.91 -38.34,6.38 -94.29,0 -145.43,-22.39 -28.77,-100.68 -57.54,-199.77 -87.91,-300.46 94.3,-11.2 187,7.98 238.14,55.94 M 4792,6376.43 c 84.7,25.57 266.9,60.73 401.15,55.93 76.71,-3.18 185.39,-4.79 271.71,-49.54 84.7,-44.75 150.23,-131.05 148.62,-281.28 0,-180.61 -107.08,-380.38 -356.39,-465.09 28.77,-79.91 86.29,-239.75 139.04,-375.59 -123.07,1.59 -214.17,-3.2 -335.63,-11.18 -41.55,100.68 -100.7,238.12 -134.25,337.21 -8,0 -28.78,1.61 -33.57,3.2 -60.73,-148.63 -91.09,-230.14 -135.84,-335.61 -79.93,3.18 -206.19,1.59 -295.68,-4.8 107.07,364.39 206.16,744.77 330.84,1126.75 m -1216.27,17.59 c 118.27,11.18 212.57,9.57 329.24,1.59 9.59,-150.23 22.37,-350.02 38.37,-501.86 95.88,151.84 190.18,340.43 284.47,492.27 127.87,17.57 196.59,17.57 326.05,8 -44.75,-364.41 -92.7,-784.75 -131.06,-1134.77 -100.67,3.2 -185.39,-1.59 -287.67,-6.39 7.98,167.82 17.57,397.96 28.76,562.59 -100.69,-182.2 -201.37,-380.4 -310.07,-557.79 -81.5,4.79 -100.68,4.79 -174.19,-1.59 -17.59,174.2 -27.18,383.57 -27.18,556.18 -99.09,-206.16 -155.02,-388.37 -222.16,-560.98 -100.68,11.18 -193.38,7.98 -294.08,1.59 147.04,409.16 263.72,762.37 439.52,1141.16"
         inkscape:connector-curvature="0" /><path
         id="path50"
         style="fill:#ffd2eb;fill-opacity:1;fill-rule:nonzero;stroke:none"
         d="m 8114.71,6796.31 c -115.08,6.39 -212.58,4.8 -310.07,-3.19 39.96,83.1 89.5,188.59 143.84,300.47 -20.78,-3.2 -63.93,0 -83.13,-3.2 -22.36,126.26 -65.5,524.22 -79.91,858.25 105.49,14.39 249.36,11.19 351.63,0 -15.98,-161.42 -12.78,-359.6 -1.61,-517.82 83.13,169.41 183.82,372.38 254.12,508.23 124.67,15.99 236.56,15.99 354.82,9.59 -214.16,-388.37 -394.77,-711.21 -629.69,-1152.33 m -314.86,-865.75 c 81.52,75.11 127.88,249.33 -4.79,266.91 -38.36,6.39 -94.3,0 -145.43,-22.38 -28.78,-100.69 -57.55,-199.77 -87.91,-300.46 94.29,-11.19 187,7.98 238.13,55.93 m -404.36,485.86 c 84.71,25.58 266.93,60.74 401.17,55.94 76.72,-3.18 185.4,-4.79 271.71,-49.54 84.71,-44.75 150.22,-131.06 148.63,-281.29 0,-180.61 -107.08,-380.38 -356.41,-465.09 28.76,-79.91 86.31,-239.73 139.04,-375.58 -123.05,1.59 -214.16,-3.21 -335.61,-11.19 -41.57,100.68 -100.7,238.13 -134.25,337.22 -8.01,0 -28.79,1.6 -33.59,3.2 -60.73,-148.63 -91.08,-230.15 -135.85,-335.62 -79.91,3.18 -206.16,1.59 -295.66,-4.8 107.07,364.4 206.16,744.78 330.82,1126.75 m -489.05,-313.25 c -230.15,-3.19 -519.44,-147.04 -497.06,-420.34 6.4,-84.7 76.72,-156.62 186.99,-158.22 63.95,0 110.29,6.39 155.04,33.56 14.37,54.34 47.95,190.21 75.12,276.49 86.3,8 194.99,12.8 316.45,12.8 -36.77,-126.26 -84.72,-298.88 -139.05,-453.91 -102.29,-75.12 -281.29,-124.66 -434.73,-126.26 -247.72,-3.19 -493.85,126.26 -505.04,404.35 -15.98,381.99 294.09,671.27 650.49,751.18 177.4,39.96 380.37,31.96 516.22,0 -30.36,-142.24 -46.35,-209.37 -92.68,-359.6 -62.34,25.57 -143.85,41.55 -231.75,39.95 m -1082,-674.45 c -19.17,-89.5 -115.07,-159.83 -214.16,-159.83 -100.69,3.2 -164.62,75.12 -147.04,161.42 22.38,89.5 118.27,161.42 218.96,158.23 97.49,0 163.02,-70.32 142.24,-159.82 m -628.09,501.84 c 81.51,75.11 127.86,249.33 -4.8,266.91 -38.35,6.39 -94.29,0 -145.43,-22.38 -28.77,-100.69 -57.54,-199.77 -87.91,-300.46 94.3,-11.2 187,7.98 238.14,55.93 M 4792,6416.42 c 84.7,25.58 266.9,60.74 401.15,55.94 76.72,-3.18 185.4,-4.79 271.71,-49.54 84.7,-44.75 150.23,-131.06 148.63,-281.29 0,-180.61 -107.08,-380.38 -356.41,-465.09 28.77,-79.91 86.3,-239.73 139.05,-375.58 -123.07,1.59 -214.16,-3.21 -335.63,-11.19 -41.55,100.68 -100.69,238.13 -134.25,337.22 -7.99,0 -28.77,1.6 -33.57,3.2 -60.73,-148.63 -91.09,-230.15 -135.85,-335.62 -79.91,3.18 -206.17,1.59 -295.67,-4.8 107.08,364.4 206.17,744.78 330.84,1126.75 m -1216.26,17.59 c 118.27,11.18 212.57,9.58 329.24,1.59 9.58,-150.23 22.37,-350.01 38.35,-501.84 95.9,151.83 190.2,340.42 284.49,492.25 127.86,17.58 196.59,17.58 326.05,8 -44.76,-364.4 -92.7,-784.75 -131.06,-1134.76 -100.69,3.2 -185.39,-1.6 -287.68,-6.39 7.98,167.82 17.57,397.97 28.76,562.59 -100.69,-182.2 -201.38,-380.39 -310.06,-557.8 -81.51,4.8 -100.68,4.8 -174.2,-1.59 -17.59,174.21 -27.17,383.58 -27.17,556.18 -99.1,-206.16 -155.04,-388.37 -222.16,-560.97 -100.69,11.18 -193.39,7.98 -294.08,1.59 147.04,409.15 263.71,762.36 439.52,1141.15"
         inkscape:connector-curvature="0" /><path
         id="path52"
         style="fill:#fffbfd;fill-opacity:1;fill-rule:nonzero;stroke:none"
         d="m 8126.27,7661.53 c -0.96,98.32 2,198.28 10.8,287.12 -102.27,11.19 -246.14,14.38 -351.63,0 4.39,-101.94 11.47,-209.82 19.81,-314.12 97.98,9.52 196.2,18.13 294.75,25.47 8.69,0.49 17.47,1.01 26.27,1.53 m 468.44,16.14 c 48.78,88.25 98.26,177.72 149.69,270.98 -118.27,6.4 -230.15,6.4 -354.82,-9.59 -38.82,-75.02 -86.91,-170.52 -136.19,-269.51 111.32,6.98 227.25,12.84 341.32,8.12 m -799.65,-1480.2 c -38.36,6.4 -94.3,0 -145.43,-22.37 -28.78,-100.69 -57.55,-199.78 -87.91,-300.47 94.29,-11.18 187,7.99 238.12,55.94 81.53,75.11 127.89,249.32 -4.78,266.9 M 8217,6141.53 c 0,-100.17 -33.02,-206.22 -104.9,-295.28 -292.06,6.02 -583.69,21.73 -875.92,44.55 49.88,173.94 101.87,349.6 159.31,525.63 84.71,25.57 266.92,60.74 401.17,55.93 76.72,-3.18 185.4,-4.78 271.71,-49.54 84.71,-44.74 150.21,-131.05 148.63,-281.29 m -1078.82,-78.31 c 46.34,150.24 62.33,217.37 92.69,359.6 -135.85,31.97 -338.82,39.96 -516.22,0 -243.17,-54.52 -464.67,-206.56 -575.86,-418.95 127.5,-15.67 254.64,-30.62 381.51,-44.68 100.95,93.37 253.33,142.14 386.14,143.99 87.9,1.6 169.41,-14.39 231.74,-39.96 m -1673.33,359.6 c -86.3,44.76 -194.98,46.36 -271.7,49.54 -134.25,4.81 -316.45,-30.36 -401.16,-55.93 -31.21,-95.66 -60.83,-191.2 -89.36,-286.43 109.21,-0.7 218.58,-3.35 328.17,-8.25 5.11,17.76 10.22,35.51 15.31,53.35 51.15,22.37 107.08,28.77 145.44,22.37 57.58,-7.62 81.4,-44.78 83.29,-90.52 110.81,-8.64 221.93,-20.03 333.44,-34.47 3.49,23.15 5.21,46.25 5.21,69.05 1.59,150.24 -63.93,236.55 -148.64,281.29 m -1237.03,3.2 c -59.11,-95.19 -118.22,-204.81 -177.73,-310.76 155.7,7.22 311.32,12.37 467.13,14.2 12.28,103.92 24.58,206.29 36.64,304.56 -129.46,9.58 -198.18,9.58 -326.04,-8 m -300.29,-316.84 c -8.84,111.99 -16.37,229.5 -22.55,326.43 -116.67,7.99 -210.98,9.59 -329.24,-1.59 -55.77,-120.17 -105.57,-237.77 -152.3,-355.4 8.86,0.48 17.75,1 26.56,1.38 159.54,10.64 318.61,20.8 477.53,29.18"
         inkscape:connector-curvature="0" /></g></g></svg>