<?xml version="1.0" encoding="UTF-8" standalone="no"?>
<svg
   xmlns:dc="http://purl.org/dc/elements/1.1/"
   xmlns:cc="http://creativecommons.org/ns#"
   xmlns:rdf="http://www.w3.org/1999/02/22-rdf-syntax-ns#"
   xmlns:svg="http://www.w3.org/2000/svg"
   xmlns="http://www.w3.org/2000/svg"
   xmlns:sodipodi="http://sodipodi.sourceforge.net/DTD/sodipodi-0.dtd"
   xmlns:inkscape="http://www.inkscape.org/namespaces/inkscape"
   viewBox="0 0 1662.5 1662.5"
   height="1662.5"
   width="1662.5"
   xml:space="preserve"
   version="1.1"
   id="svg2"
   inkscape:version="0.91 r13725"
   sodipodi:docname="017.svg"><sodipodi:namedview
     pagecolor="#ffffff"
     bordercolor="#666666"
     borderopacity="1"
     objecttolerance="10"
     gridtolerance="10"
     guidetolerance="10"
     inkscape:pageopacity="0"
     inkscape:pageshadow="2"
     inkscape:window-width="1565"
     inkscape:window-height="912"
     id="namedview12195"
     showgrid="false"
     inkscape:zoom="0.14195489"
     inkscape:cx="831.25"
     inkscape:cy="831.25"
     inkscape:window-x="0"
     inkscape:window-y="0"
     inkscape:window-maximized="0"
     inkscape:current-layer="svg2" /><metadata
     id="metadata8"><rdf:RDF><cc:Work
         rdf:about=""><dc:format>image/svg+xml</dc:format><dc:type
           rdf:resource="http://purl.org/dc/dcmitype/StillImage" /></cc:Work></rdf:RDF></metadata><defs
     id="defs6" /><g
     transform="matrix(1.8024635,0,0,-1.8024635,-394.07498,2033.5558)"
     id="g10"><g
       transform="scale(0.1,0.1)"
       id="g12"><path
         id="path16"
         style="fill:#5b0000;fill-opacity:1;fill-rule:nonzero;stroke:none"
         d="m 8516.71,4248.55 c -430.02,-90.71 -884,-136.66 -1350.39,-136.66 -187.18,0 -377.84,7.56 -566.7,22.45 -1160.57,91.55 -2232.17,452.96 -3017.4,1017.66 -388.22,279.18 -686.6,593.75 -886.86,934.96 -212.15,361.47 -304.58,736.61 -274.73,1114.95 53.58,679.16 505.86,1296.23 1273.53,1737.52 739.56,425.12 1722.56,659.27 2767.91,659.27 187.22,0 377.94,-7.56 566.87,-22.47 1160.58,-91.57 2232.18,-452.98 3017.36,-1017.66 388.3,-279.19 686.7,-593.77 886.9,-934.98 212.2,-361.46 304.6,-736.59 274.7,-1114.93 -32.2,-409.36 -204.3,-790.98 -511.5,-1134.23 -261.3,-292 -607.2,-541.82 -1029.91,-743.93 l 585.11,-1246.79"
         inkscape:connector-curvature="0" /><path
         id="path18"
         style="fill:#c10000;fill-opacity:1;fill-rule:nonzero;stroke:none"
         d="M 7017.14,9426.7 C 4673.19,9611.61 2682.2,8610.26 2570.17,7190.11 2458.13,5769.96 4267.48,4468.77 6611.42,4283.88 c 684.48,-54 1338.83,-6.8 1925.11,122.39 l 1396.07,-695.95 -466.27,993.61 c 919.97,401.56 1531.47,1047.65 1592.07,1816.52 112,1420.15 -1697.29,2721.31 -4041.26,2906.25"
         inkscape:connector-curvature="0" /><path
         id="path20"
         style="fill:#ff0000;fill-opacity:1;fill-rule:nonzero;stroke:none"
         d="m 7010.85,9346.94 c -182.93,14.43 -367.57,21.75 -548.78,21.75 -1484.75,0 -2746.04,-480.97 -3379.57,-1210.88 l 5505.53,874.85 c -488.39,163.06 -1021.81,270.46 -1577.18,314.28"
         inkscape:connector-curvature="0" /><path
         id="path22"
         style="fill:#ff0000;fill-opacity:1;fill-rule:nonzero;stroke:none"
         d="m 9434.33,4777.26 c 320.61,139.94 604.17,311.97 836.17,505.92 L 5604.44,4519.11 c 325.34,-75.52 664.99,-128 1013.27,-155.47 182.87,-14.44 367.45,-21.75 548.61,-21.75 468.64,0 923.86,47.95 1353,142.52 l 27.61,6.07 1215.55,-605.96 -403.5,859.85"
         inkscape:connector-curvature="0" /><path
         id="path24"
         style="fill:#5b0000;fill-opacity:1;fill-rule:nonzero;stroke:none"
         d="m 9918.52,5377.71 c -309.07,0 -518.64,203.02 -521.48,505.17 -1.53,162.89 53.09,304.76 151.5,412.39 l -142.45,-25.38 -9.15,2619.79 1257.36,226.07 -63.4,-2634.73 -223.6,-39.84 c 43,-25.13 76.1,-53.8 101.1,-80.5 84.5,-90.23 129.8,-213 131.2,-355.07 1.4,-154.11 -51.8,-299.43 -150,-409.18 -102.9,-115.05 -250,-188.18 -425.4,-211.48 -36.08,-4.81 -71.65,-7.24 -105.68,-7.24"
         inkscape:connector-curvature="0" /><path
         id="path26"
         style="fill:#ffaa00;fill-opacity:1;fill-rule:nonzero;stroke:none"
         d="m 9637.38,8864.32 8.08,-2315.45 888.44,158.31 56,2328.41 -952.52,-171.27 z m -0.36,-2880.03 c -2.09,223.33 138.15,429.79 449.68,471.18 307,40.78 450.8,-127.95 452.9,-351.27 2.2,-232.25 -151.9,-431.6 -445.1,-470.57 -293.24,-38.94 -455.29,118.42 -457.48,350.66"
         inkscape:connector-curvature="0" /><path
         id="path28"
         style="fill:#fff800;fill-opacity:1;fill-rule:nonzero;stroke:none"
         d="m 10086.7,6455.47 c -311.52,-41.39 -451.77,-247.85 -449.68,-471.18 0.15,-15.27 1.03,-30.2 2.54,-44.78 19.96,201.26 161.51,378.01 447.14,415.96 285.8,37.96 430.1,-105.68 450.3,-305.88 1.8,17.97 2.8,36.17 2.6,54.61 -2.1,223.32 -145.9,392.05 -452.9,351.27"
         inkscape:connector-curvature="0" /><path
         id="path30"
         style="fill:#fff800;fill-opacity:1;fill-rule:nonzero;stroke:none"
         d="m 9717.61,8837.46 4.69,-1341.19 c 261.44,120.82 515.4,255.57 759.3,405.12 l 26,1078.11"
         inkscape:connector-curvature="0" /><path
         id="path32"
         style="fill:#5b0000;fill-opacity:1;fill-rule:nonzero;stroke:none"
         d="m 8700.44,5336.14 c -872.27,-0.05 -1338,496.03 -1346.84,1434.59 -6.38,673.94 225.8,1194.91 690.11,1548.44 381.93,290.81 844.79,402.71 1165.83,445.36 143.89,19.12 245.12,23.13 304.7,23.13 30.66,0 47.9,-1.1 51.04,-1.32 l 140.53,-9.88 -1.04,-140.87 c -0.03,-2.7 -2.05,-273.43 -5.18,-540.68 -1.84,-157.2 -3.69,-282.55 -5.51,-372.56 -1.09,-54.05 -2.19,-96.06 -3.27,-124.92 -0.63,-16.97 -7.8,-212.11 -7.8,-212.11 l -145.25,21.29 -61.2,5.55 c -73.82,7.61 -134.44,13.32 -195.96,13.32 -42.84,0 -83.24,-2.72 -127.14,-8.56 -176.14,-23.4 -324,-87.47 -429.58,-179.37 l 1005.63,128.34 -20.71,-1798.28 -85.24,-39.95 c -186.86,-87.57 -362.13,-140.09 -551.61,-165.28 -130.96,-17.41 -255.94,-26.23 -371.51,-26.24"
         inkscape:connector-curvature="0" /><path
         id="path34"
         style="fill:#ffaa00;fill-opacity:1;fill-rule:nonzero;stroke:none"
         d="m 8789.37,6539.09 50.4,6.69 c -1.11,116.15 -24.36,636.28 -24.39,640.74 l 852.16,108.76 -17.65,-1531.8 c -159.82,-74.9 -319.87,-127.44 -507.71,-152.42 -728.45,-96.77 -1537.11,41.73 -1548.59,1261.08 -13.54,1429.26 1120.93,1763.34 1725.71,1843.7 215.32,28.61 325.47,20.87 325.47,20.87 0,0 -8.09,-1087.78 -17.34,-1080.06 -151.5,15.64 -257.13,28.45 -403.73,8.96 -439.83,-58.43 -739.88,-344.26 -736.47,-706.04 4.22,-446.64 205.91,-433.26 302.14,-420.48"
         inkscape:connector-curvature="0" /><path
         id="path36"
         style="fill:#fff800;fill-opacity:1;fill-rule:nonzero;stroke:none"
         d="m 9667.54,7295.28 -852.17,-108.75 c 0.01,-1.22 1.74,-40.55 4.27,-99.46 l 846.75,108.06"
         inkscape:connector-curvature="0" /><path
         id="path38"
         style="fill:#fff800;fill-opacity:1;fill-rule:nonzero;stroke:none"
         d="m 8789.37,6439.09 50.4,6.69 c -0.2,21.41 -1.16,56.56 -2.59,99.67 l -47.81,-6.36 c -92.28,-12.27 -281.55,-24.99 -300.62,367.95 -1.02,-15.68 -1.66,-31.48 -1.52,-47.47 4.22,-446.64 205.91,-433.26 302.14,-420.48"
         inkscape:connector-curvature="0" /><path
         id="path40"
         style="fill:#fff800;fill-opacity:1;fill-rule:nonzero;stroke:none"
         d="m 9213.16,7784.92 c 53.45,7.11 104.95,10.56 157.43,10.56 60.62,0 118.82,-4.53 181.68,-10.71 4.68,172.66 9.32,597.36 11.87,912.23 -50.76,-1.59 -129.53,-6.54 -234.3,-20.45 -293.45,-39 -715,-140.11 -1056.8,-400.37 -403.43,-307.17 -605.11,-765.84 -599.45,-1363.28 0.27,-27.65 0.98,-54.77 2.07,-81.45 244.45,52.61 488.4,113.73 731.86,183.59 5.25,391.79 333.86,707.2 805.64,769.88"
         inkscape:connector-curvature="0" /><path
         id="path42"
         style="fill:#5b0000;fill-opacity:1;fill-rule:nonzero;stroke:none"
         d="m 6055.19,8270.82 c 0,0 -468.97,-84.14 -613.17,-110.02 -119.12,-21.38 -238.24,-42.78 -327.58,-58.87 -44.73,-8.06 -82,-14.79 -108.1,-19.52 l -167.67,-30.49 6.23,-161.03 c 8.25,-212.17 11.63,-1855.81 11.87,-2949.04 l 0.04,-179.06 1186.37,211.4 8.42,521.62 c 59.86,-91.38 116.98,-176.28 155.74,-228.8 l 139.49,-188.97 238.94,436.52 -2.75,-523.3 1192.82,218.24 1.07,123.94 c 8.85,1013.57 24.25,2492.23 34.54,2907.38 l 0,297.06 -201.66,-26.57 -973.65,-152.85 c 0,0 -146.05,-423.7 -188.15,-548.28 -41.43,-122.63 -87.34,-258.5 -130.86,-385.61 -53.13,162.79 -261.94,846.25 -261.94,846.25"
         inkscape:connector-curvature="0" /><path
         id="path44"
         style="fill:#ffaa00;fill-opacity:1;fill-rule:nonzero;stroke:none"
         d="m 6418.03,5456.09 c -117.26,158.86 -418.37,640.41 -418.37,640.41 l -14.47,-896.32 -888.41,-158.3 c 0,0 -0.67,2987.25 -14.42,2985.41 -13.75,-1.82 952.5,171.28 952.5,171.28 4.42,18.47 255.75,-851.48 372.99,-1122.11 116.38,306.13 428.44,1264.37 433.18,1247.1 0,0 929.83,145.92 916.08,144.09 -13.75,-1.84 -40.18,-3032.91 -40.18,-3032.91 l -892.96,-163.38 4.92,935.34"
         inkscape:connector-curvature="0" /><path
         id="path46"
         style="fill:#fff800;fill-opacity:1;fill-rule:nonzero;stroke:none"
         d="m 7664.99,8030.78 c 2.31,149.84 4.47,266.13 6.42,345.62 0.32,13.27 0.61,25.5 0.9,36.81 -195.32,-30.79 -624.64,-98.19 -774.53,-121.72 -26.77,-74.21 -85.1,-246.88 -141.88,-414.92 -94.3,-279.11 -211.65,-626.45 -273.27,-788.54 l -69.94,-183.99 -78.25,180.62 c -77.32,178.48 -208.26,600.83 -294.91,880.3 -21.64,69.79 -42.54,137.2 -57.15,182.93 -234.29,-41.98 -653.29,-117.12 -816.64,-146.66 0.4,-17.21 0.8,-37.56 1.18,-60.91 1.26,-77.63 2.44,-191.66 3.49,-338.92 1.75,-246.22 3.19,-588.91 4.29,-1018.59 830.74,-9.76 1655.87,68.82 2475.38,243.16 0.57,53.98 1.16,108.19 1.76,162.36 4.82,439.63 9.24,790.36 13.15,1042.45"
         inkscape:connector-curvature="0" /><path
         id="path48"
         style="fill:#5b0000;fill-opacity:1;fill-rule:nonzero;stroke:none"
         d="m 3813.79,4614.73 c -718.71,0 -1188.9,612.18 -1197.86,1559.59 -4.52,479.03 99,901.48 299.34,1221.73 228.36,365.02 578.28,588.41 1011.94,646.02 67.62,8.98 134.27,13.55 198.08,13.55 383.89,0 696.66,-163.57 904.53,-473.01 180.43,-268.59 278,-644.5 282.18,-1087.1 4.45,-471.28 -106.2,-895.28 -319.96,-1226.19 -235.74,-364.87 -580.11,-586.94 -995.89,-642.19 -61.85,-8.22 -123.2,-12.4 -182.36,-12.4"
         inkscape:connector-curvature="0" /><path
         id="path50"
         style="fill:#ffaa00;fill-opacity:1;fill-rule:nonzero;stroke:none"
         d="m 4047.42,5915.25 c 238.22,31.68 364.52,258.63 362,526.63 -2.45,259.05 -119.01,458.23 -370.98,424.75 -251.98,-33.5 -364.5,-263.09 -362.06,-522.14 2.54,-267.99 132.8,-460.88 371.04,-429.24 m -10.45,2078.13 C 4866.2,8103.55 5243.88,7456.11 5252,6594.09 5260.14,5732.04 4849.81,4979.91 4066.39,4875.82 3282.98,4771.71 2864.08,5413.71 2855.93,6275.73 c -8.14,862.01 351.8,1607.47 1181.04,1717.65"
         inkscape:connector-curvature="0" /><path
         id="path52"
         style="fill:#fff800;fill-opacity:1;fill-rule:nonzero;stroke:none"
         d="m 4047.42,5815.25 c 238.22,31.68 364.52,258.63 362,526.63 -0.13,14.46 -0.69,28.7 -1.54,42.76 -14.82,-242.44 -139.42,-440.01 -360.46,-469.39 -225.74,-29.98 -354.45,141.68 -369.5,387.73 -1.16,-19.28 -1.72,-38.78 -1.54,-58.49 2.54,-267.99 132.8,-460.88 371.04,-429.24"
         inkscape:connector-curvature="0" /><path
         id="path54"
         style="fill:#fff800;fill-opacity:1;fill-rule:nonzero;stroke:none"
         d="m 5172.01,6633.34 c -3.75,397.52 -87.82,729.84 -243.11,961.01 -165.49,246.35 -405.58,371.27 -713.6,371.27 -53.72,0 -110.18,-3.89 -167.8,-11.54 -368.66,-48.98 -653.71,-230.67 -847.25,-540.02 -107.85,-172.39 -183.72,-380.8 -225.78,-615.61 224.13,-46.64 453.52,-75.59 678.6,-102.99 69.68,162.26 200.4,267.28 374.83,290.46 21.86,2.91 43.48,4.38 64.26,4.38 206.88,0 348.04,-142.17 386.59,-378.94 231.49,-16.22 462.55,-25.75 693.17,-28.51 0.18,16.78 0.25,33.6 0.09,50.49"
         inkscape:connector-curvature="0" /></g></g></svg>