<?xml version="1.0" encoding="UTF-8" standalone="no"?>
<svg
   xmlns:dc="http://purl.org/dc/elements/1.1/"
   xmlns:cc="http://creativecommons.org/ns#"
   xmlns:rdf="http://www.w3.org/1999/02/22-rdf-syntax-ns#"
   xmlns:svg="http://www.w3.org/2000/svg"
   xmlns="http://www.w3.org/2000/svg"
   xmlns:sodipodi="http://sodipodi.sourceforge.net/DTD/sodipodi-0.dtd"
   xmlns:inkscape="http://www.inkscape.org/namespaces/inkscape"
   viewBox="0 0 1662.5 1662.5"
   height="1662.5"
   width="1662.5"
   xml:space="preserve"
   version="1.1"
   id="svg2"
   inkscape:version="0.91 r13725"
   sodipodi:docname="009.svg"><sodipodi:namedview
     pagecolor="#ffffff"
     bordercolor="#666666"
     borderopacity="1"
     objecttolerance="10"
     gridtolerance="10"
     guidetolerance="10"
     inkscape:pageopacity="0"
     inkscape:pageshadow="2"
     inkscape:window-width="1551"
     inkscape:window-height="904"
     id="namedview7428"
     showgrid="false"
     inkscape:zoom="0.14195489"
     inkscape:cx="831.25"
     inkscape:cy="831.25"
     inkscape:window-x="0"
     inkscape:window-y="0"
     inkscape:window-maximized="0"
     inkscape:current-layer="svg2" /><metadata
     id="metadata8"><rdf:RDF><cc:Work
         rdf:about=""><dc:format>image/svg+xml</dc:format><dc:type
           rdf:resource="http://purl.org/dc/dcmitype/StillImage" /></cc:Work></rdf:RDF></metadata><defs
     id="defs6" /><g
     transform="matrix(1.9333024,0,0,-1.9333024,-459.42324,2131.4108)"
     id="g10"><g
       transform="scale(0.1,0.1)"
       id="g12"><path
         id="path16"
         style="fill:#920942;fill-opacity:1;fill-rule:nonzero;stroke:none"
         d="m 8453.25,8525.73 -363.27,-342.96 72.37,-65.59 290.9,408.55 z m -1893.59,-553.6 -14.96,0.04 c 2.99,-1.42 6.04,-2.71 9.02,-4.15 1.94,1.41 3.98,2.72 5.94,4.11 m 3043.71,-1839.57 -341.79,-634.35 -655.33,696.69 -250.52,-755.62 -818.5,620.93 C 7467.34,5960.19 7396.59,5869.3 7334.5,5789.54 l -25.62,-32.96 -142.21,-183.18 -231.98,116.93 c -180.35,90.9 -395.99,221.06 -607.84,381.88 l -400.33,-536.03 c 168.62,-119.32 335.32,-217.54 478.77,-289.85 l 222.74,-112.28 468.37,382.04 673.36,-510.82 544.02,402.93 325.79,-346.35 597.7,419.3 c 78.71,-50.39 153.87,-94.26 222.21,-130.69 l 186.83,-99.59 663.79,444.2 -194.6,103.71 c -149.73,79.81 -330.67,193.57 -512.13,333.78 m -6631.92,1931.4 -371.67,-538.47 790.8,-771.37 440,471.83 -859.13,838.01 z m 1760.08,-2537.62 566.26,-614.75 483.5,430.13 -731.39,794.01 -318.37,-609.39 z M 3061.95,6401.73 4596.36,5267.61 4160.02,4840.42 2686.68,5929.41"
         inkscape:connector-curvature="0" /><path
         id="path18"
         style="fill:#c50e61;fill-opacity:1;fill-rule:nonzero;stroke:none"
         d="m 10550.4,7495.02 c -80.6,130.98 -190.7,240.54 -319.2,317.6 -111.4,66.78 -230.2,105.36 -344.13,111.46 -131.32,7.02 -241.68,-30.12 -319.58,-102.63 -79.53,40.46 -162.89,68.54 -246.33,82.17 l -867.91,622.11 -290.9,-408.55 -72.37,65.59 -439.6,398.36 -633.75,-504.61 c -14.31,1.49 -28.62,2.62 -42.93,3.38 -161.82,8.65 -304.81,-30.37 -414.04,-107.77 -1.96,-1.39 -4,-2.7 -5.94,-4.12 -2.98,1.44 -6.02,2.74 -9.02,4.15 -95.03,44.89 -196.73,76 -300.8,90.78 l -1003.16,700 -440.4,-452.95 -579.58,523.88 -1249.31,-769.91 859.14,-838.01 -440.01,-471.83 -328.63,-352.39 1534.41,-1134.12 135.17,258.73 318.37,609.39 731.39,-794.01 145.23,194.46 400.34,536.03 c 211.85,-160.82 427.49,-290.98 607.83,-381.88 l 231.98,-116.93 142.22,183.18 25.61,32.96 c 62.09,79.76 132.84,170.65 202.74,270.67 l 818.49,-620.93 250.52,755.62 655.33,-696.7 341.79,634.36 c 181.46,-140.22 362.4,-253.98 512.13,-333.78 l 194.6,-103.71 92.3,160.85 16.6,28.98 c 97.1,168.67 226.6,393.56 288.6,652.01 81.2,338.81 27,658.88 -157.2,958.11"
         inkscape:connector-curvature="0" /><path
         id="path20"
         style="fill:#dd187a;fill-opacity:1;fill-rule:nonzero;stroke:none"
         d="m 9321.16,7903.63 -867.91,622.09 -290.9,-408.55 -72.37,65.6 -439.6,398.36 -633.75,-504.61 c -14.32,1.48 -28.62,2.61 -42.93,3.37 -161.83,8.66 -304.82,-30.36 -414.04,-107.76 -1.96,-1.4 -4,-2.7 -5.94,-4.12 -2.98,1.44 -6.03,2.74 -9.02,4.15 -95.03,44.89 -196.73,76 -300.8,90.78 l -1003.16,699.99 -440.4,-452.94 -579.59,523.87 -1249.3,-769.9 859.13,-838.02 -5.03,-5.39 5593.83,660.31 c -32.57,9.72 -65.39,17.39 -98.22,22.77"
         inkscape:connector-curvature="0" /><path
         id="path22"
         style="fill:#dd187a;fill-opacity:1;fill-rule:nonzero;stroke:none"
         d="m 10742.3,6905.95 -7123.42,-915.86 977.48,-722.48 135.18,258.73 318.37,609.39 731.38,-794.01 145.23,194.46 400.34,536.02 c 211.84,-160.82 427.48,-290.97 607.82,-381.87 l 232,-116.93 142.2,183.18 25.62,32.96 c 62.09,79.75 132.84,170.64 202.73,270.66 l 411.79,-312.38 563.03,162.96 94.2,284.12 189.9,-201.89 1913.65,553.86 c 28.4,122.18 39.2,241.91 32.5,359.08"
         inkscape:connector-curvature="0" /><path
         id="path24"
         style="fill:#920942;fill-opacity:1;fill-rule:nonzero;stroke:none"
         d="m 9992.53,6740.31 c -159.41,86.91 -462.44,311.46 -460.27,525.06 1.35,134.68 177.11,135.17 274.22,24.93 5.9,131.88 194.12,118.19 270.82,-9.35 129.4,-215.12 -8,-419.06 -84.77,-540.64 m 357.67,825.89 c -185.4,303.61 -637.75,344.93 -653.69,30.5 -236.5,268.05 -674.01,275.3 -685.17,-52.35 -18.14,-531.98 746.59,-1095.96 1146.06,-1310.94 186.2,311.16 508.5,815.65 192.8,1332.79 M 6902.21,6735.1 c -189.2,98.01 -539.76,351.36 -503.22,591.69 22.99,151.23 246.36,151.13 352.42,27.18 28.01,147.81 264.29,131.79 341.75,-11.29 130.76,-241.52 -74.62,-470.61 -190.95,-607.58 m 578.9,925.41 c -187.52,339.16 -752.28,388.11 -821.43,37.12 -257.98,300.88 -813.31,311.79 -880.42,-55.49 -109.5,-599.34 778.48,-1237.27 1254.1,-1479.82 284.39,352.26 767.78,919.3 447.75,1498.19 m 207.06,707.41 561.3,-508.48 312.1,456.28 583.75,-416.84 -382.73,-576.06 693.16,-625.62 -303.93,-540.45 -703.88,746.7 -278.73,-796.39 -683.55,520.23 441.11,677.46 -701.99,679.68 463.39,383.49 z m -3479.89,208.01 636.63,-575.22 475.98,508.72 677.18,-470.35 -583.04,-645.08 786.71,-707.83 -477.63,-614.78 -783.93,848.7 -496.78,-909.39 -800.96,594.48 691.85,771.06 -792.45,772.27"
         inkscape:connector-curvature="0" /><path
         id="path26"
         style="fill:#ff93d5;fill-opacity:1;fill-rule:nonzero;stroke:none"
         d="m 10001.9,6768.51 c -159.38,86.91 -462.41,311.46 -460.24,525.06 1.36,134.68 177.11,135.17 274.22,24.93 5.91,131.88 194.12,118.19 270.82,-9.35 129.4,-215.12 -8,-419.06 -84.8,-540.64 m 357.7,825.89 c -185.4,303.6 -637.76,344.93 -653.7,30.5 -236.49,268.05 -674.01,275.3 -685.17,-52.35 -18.14,-531.98 746.59,-1095.96 1146.07,-1310.95 186.2,311.16 508.5,815.66 192.8,1332.8 M 6911.61,6763.3 c -189.21,98.01 -539.77,351.35 -503.23,591.69 23,151.23 246.36,151.13 352.43,27.18 28,147.81 264.28,131.79 341.74,-11.29 130.76,-241.52 -74.62,-470.61 -190.94,-607.58 m 578.89,925.41 c -187.52,339.16 -752.28,388.11 -821.41,37.12 -258,300.88 -813.32,311.79 -880.43,-55.49 -109.51,-599.34 778.48,-1237.27 1254.11,-1479.82 284.37,352.25 767.77,919.3 447.73,1498.19 m 207.07,707.41 561.29,-508.48 312.11,456.28 583.74,-416.84 -382.72,-576.07 693.16,-625.6 -303.94,-540.47 -703.87,746.71 -278.73,-796.4 -683.55,520.24 441.12,677.46 -702,679.68 463.39,383.49 z m -3479.89,208.01 636.62,-575.22 475.99,508.72 677.17,-470.35 -583.03,-645.08 786.7,-707.83 -477.61,-614.77 -783.93,848.69 -496.79,-909.39 -800.96,594.48 691.86,771.06 -792.47,772.27"
         inkscape:connector-curvature="0" /><path
         id="path28"
         style="fill:#ffabe2;fill-opacity:1;fill-rule:nonzero;stroke:none"
         d="m 8570.98,8343.92 -312.11,-456.28 -561.29,508.48 -463.4,-383.49 241.44,-233.76 1677.21,149.56 -581.85,415.49 z M 6669.09,7725.83 c -257.99,300.88 -813.32,311.79 -880.42,-55.49 -2.58,-14.13 -4.43,-28.27 -5.93,-42.43 l 1647.14,146.88 c -226.57,258.68 -698.01,269.76 -760.79,-48.96 m -1338.8,811.8 -475.98,-508.72 -636.63,575.22 -666.44,-427.42 703.01,-685.1 1340.99,119.58 412.23,456.09 -677.18,470.35 z m 4213.79,-1278.71 -437.82,-30.15 c 61.51,-122.37 151.91,-242 256.67,-354.28 l 422.76,42.12 c -116.43,96.63 -224.79,219.92 -241.61,342.31 m 927.22,63.81 -377.6,-25.99 c 69.5,-125.2 50.5,-246.12 7.9,-348.66 l 379.1,37.77 c 16.7,108.58 16.7,221.57 -9.4,336.88 m -2891.03,-199 -454.93,-31.31 c -42.03,-131.41 -143.89,-246.88 -213.73,-329.12 -107.97,55.93 -268.47,162.46 -379.6,288.28 l -529.54,-36.45 c 118.91,-156.1 273.86,-303.07 435.75,-432.02 l 962.83,95.93 c 82.45,138.7 149.95,288.46 179.22,444.69 m -1369.13,-409.36 -325.35,292.73 -931.31,-64.11 429.42,-464.9 697.67,69.5 129.57,166.78 z m -1264.75,228.06 -1084.2,-74.63 -210.35,-234.42 389.45,-289.05 611.66,60.94 293.44,537.16 z m 4359.84,-73.59 -721.89,-71.92 -126.99,134.73 -53.45,-152.71 -885.91,-88.25 292.27,448.87 1111.27,76.5"
         inkscape:connector-curvature="0" /><path
         id="path30"
         style="fill:#ffd6f1;fill-opacity:1;fill-rule:nonzero;stroke:none"
         d="m 4334.46,7394.16 -682.62,-760.78 31.53,-23.41 679.12,756.88 -28.03,27.31 z m 1473,238.58 c 67.1,367.28 622.43,356.38 880.42,55.49 69.15,350.99 633.9,302.04 821.42,-37.12 3.17,-5.71 6.11,-11.42 9.12,-17.13 -8.53,18.23 -17.83,36.47 -27.92,54.73 -187.51,339.16 -752.28,388.11 -821.42,37.12 -257.99,300.88 -813.32,311.79 -880.42,-55.49 -27.97,-153.09 9.25,-308.7 87.94,-459.59 -65.7,139.06 -94.8,281.58 -69.14,421.99 m 4194.44,-864.23 c -121.32,66.16 -325.74,212.08 -415.57,372.2 76.28,-174.54 303.61,-338.49 434.37,-409.79 75.7,119.83 210,319.68 90,531.37 85.5,-197.56 -37.6,-381.06 -108.8,-493.78 m -2073.48,552.54 -433.35,-665.56 28.93,-22.02 430.97,661.88 -26.55,25.7 z m 1111.11,213.91 c 11.16,327.64 448.68,320.4 685.17,52.34 15.94,314.43 468.3,273.11 653.7,-30.49 10.9,-17.88 21,-35.74 30.4,-53.58 -14.3,30.32 -30.6,60.72 -49.2,91.17 -185.4,303.6 -637.76,344.93 -653.69,30.5 -236.5,268.05 -674.02,275.3 -685.18,-52.35 -4.08,-119.71 31.57,-241.03 93.69,-359.64 -50.43,106.57 -78.54,214.96 -74.89,322.05 m -761.87,315.08 312.11,456.28 554.05,-395.64 10.89,16.4 -583.74,416.84 -312.11,-456.28 -561.28,508.48 -463.4,-383.49 29.6,-28.66 452.6,374.56 561.28,-508.49 z m -3404.56,141.27 475.98,508.72 644.75,-447.83 13.63,15.08 -677.17,470.35 -475.99,-508.72 -636.62,575.22 -666.45,-427.42 30.73,-29.95 654.52,419.77 636.62,-575.22 z m 4584.36,-1279.59 7.69,13.69 -665.8,600.91 -8.56,-12.9 666.67,-601.7 z M 6911.6,6763.3 c -138.45,71.72 -363.29,226.63 -459.64,398.76 82.17,-186.87 329.97,-359.45 478.44,-436.36 116.33,136.98 321.71,366.07 190.94,607.59 -1.33,2.47 -2.82,4.81 -4.25,7.19 98.89,-230.22 -94.06,-445.97 -205.49,-577.18 m -1468.38,621.3 10.31,11.41 757.6,-681.64 -9.45,-12.16"
         inkscape:connector-curvature="0" /></g></g></svg>