<?xml version="1.0" encoding="UTF-8" standalone="no"?>
<svg
   xmlns:dc="http://purl.org/dc/elements/1.1/"
   xmlns:cc="http://creativecommons.org/ns#"
   xmlns:rdf="http://www.w3.org/1999/02/22-rdf-syntax-ns#"
   xmlns:svg="http://www.w3.org/2000/svg"
   xmlns="http://www.w3.org/2000/svg"
   xmlns:sodipodi="http://sodipodi.sourceforge.net/DTD/sodipodi-0.dtd"
   xmlns:inkscape="http://www.inkscape.org/namespaces/inkscape"
   viewBox="0 0 1662.5 1662.5"
   height="1662.5"
   width="1662.5"
   xml:space="preserve"
   version="1.1"
   id="svg2"
   inkscape:version="0.91 r13725"
   sodipodi:docname="015.svg"><sodipodi:namedview
     pagecolor="#ffffff"
     bordercolor="#666666"
     borderopacity="1"
     objecttolerance="10"
     gridtolerance="10"
     guidetolerance="10"
     inkscape:pageopacity="0"
     inkscape:pageshadow="2"
     inkscape:window-width="1424"
     inkscape:window-height="939"
     id="namedview11016"
     showgrid="false"
     inkscape:zoom="0.14195489"
     inkscape:cx="831.25"
     inkscape:cy="831.25"
     inkscape:window-x="0"
     inkscape:window-y="0"
     inkscape:window-maximized="0"
     inkscape:current-layer="svg2" /><metadata
     id="metadata8"><rdf:RDF><cc:Work
         rdf:about=""><dc:format>image/svg+xml</dc:format><dc:type
           rdf:resource="http://purl.org/dc/dcmitype/StillImage" /></cc:Work></rdf:RDF></metadata><defs
     id="defs6"><clipPath
       id="clipPath24"
       clipPathUnits="userSpaceOnUse"><path
         id="path26"
         d="m 5336.27,4177.19 3768.04,0 0,2279.87 -3768.04,0 0,-2279.87 z" /></clipPath><clipPath
       id="clipPath30"
       clipPathUnits="userSpaceOnUse"><path
         id="path32"
         d="m 5336.27,4177.19 3768.04,0 0,2279.87 -3768.04,0 0,-2279.87 z" /></clipPath><clipPath
       id="clipPath34"
       clipPathUnits="userSpaceOnUse"><path
         id="path36"
         d="m 5336.27,4177.19 3768.04,0 0,2279.87 -3768.04,0 0,-2279.87 z" /></clipPath><clipPath
       id="clipPath52"
       clipPathUnits="userSpaceOnUse"><path
         id="path54"
         d="m 8377.37,4542.66 1302.53,0 0,1967.83 -1302.53,0 0,-1967.83 z" /></clipPath><clipPath
       id="clipPath58"
       clipPathUnits="userSpaceOnUse"><path
         id="path60"
         d="m 8377.37,4542.66 1302.53,0 0,1967.83 -1302.53,0 0,-1967.83 z" /></clipPath><clipPath
       id="clipPath62"
       clipPathUnits="userSpaceOnUse"><path
         id="path64"
         d="m 8377.37,4542.66 1302.53,0 0,1967.83 -1302.53,0 0,-1967.83 z" /></clipPath><clipPath
       id="clipPath80"
       clipPathUnits="userSpaceOnUse"><path
         id="path82"
         d="m 5486.21,2721.07 1862.29,0 0,1577.31 -1862.29,0 0,-1577.31 z" /></clipPath><clipPath
       id="clipPath86"
       clipPathUnits="userSpaceOnUse"><path
         id="path88"
         d="m 5486.21,2721.07 1862.29,0 0,1577.31 -1862.29,0 0,-1577.31 z" /></clipPath><clipPath
       id="clipPath90"
       clipPathUnits="userSpaceOnUse"><path
         id="path92"
         d="m 5486.21,2721.07 1862.29,0 0,1577.31 -1862.29,0 0,-1577.31 z" /></clipPath></defs><g
     transform="matrix(1.8344963,0,0,-1.8344963,-443.13151,1978.6522)"
     id="g10"><g
       transform="scale(0.1,0.1)"
       id="g12"><path
         id="path16"
         style="fill:#cc0000;fill-opacity:1;fill-rule:nonzero;stroke:none"
         d="m 10067.3,5824.88 33.8,815.06 C 9640.2,6462.1 9217.73,6417.18 8852.27,6457.06 8667.09,6040.04 8356.88,5687.58 7950,5480 7158.77,5088.93 6177.34,4995.7 5396.79,5440.88 c -49.24,-475.9 -92.34,-969.21 -34.05,-1511.12 75.01,-697.38 308.17,-1334.92 712.81,-1949.03 l 651.83,828.19 934.73,217.21 c -448.32,680.4 -464.2,1249.8 -401.02,1957.44 152.04,-79.26 311.29,-149.13 476.64,-208.32 432.18,-154.71 890.49,-232.99 1363.41,-232.99 24.32,0 48.68,0.21 73.07,0.62 534.47,9.07 1076.49,118.23 1610.89,324.44"
         inkscape:connector-curvature="0" /><path
         id="path18"
         style="fill:#ff9900;fill-opacity:1;fill-rule:nonzero;stroke:none"
         d="m 10487.6,5264.14 c -261.6,-158.18 -587.75,-234.85 -852.09,-271.79 -420.14,-58.7 -919.63,-50.5 -1336.18,21.98 -313.2,54.47 -608.58,144.1 -866.28,261.91 -48.53,-14.56 -97.38,-28.07 -146.54,-40.33 289.13,-146.49 630.92,-256.66 995.68,-320.12 185.72,-32.29 403.75,-54.76 634.65,-61.14 561.95,-15.54 1199.76,64.25 1631.06,329.12 l -60.3,80.37 z M 8746.21,6249 c -18.7,-32.32 -38.16,-64.15 -58.48,-95.37 108.97,-10 227.31,-16.35 352.58,-16.35 319.04,0 682.43,41.17 1046.89,166.85 l 4.4,107.57 C 9609.1,6237.36 9124.52,6219.18 8746.21,6249 M 6979.73,5175.41 c -97.59,-313.15 -122.37,-738.01 -63.32,-1147.81 63.07,-437.71 213.43,-809.57 430.85,-1074.63 l 109.56,25.46 c -499.81,565.46 -571.05,1635.32 -365.72,2215.24 -37.03,-6.78 -74.16,-12.86 -111.37,-18.26 M 6326.09,2299.05 c -294.55,302.87 -529.83,797.63 -662.62,1407.35 -130.2,597.8 -138.38,1208.86 -27.49,1617.19 30.94,-12.89 62.1,-25.07 93.48,-36.49 -104.21,-391.92 -94.39,-980.43 31.72,-1559.42 127.67,-586.2 350.22,-1060.31 627.14,-1349.56"
         inkscape:connector-curvature="0" /><g
         id="g20"><g
           clip-path="url(#clipPath24)"
           id="g22"><g
             id="g28" /><g
             id="g38"><g
               id="g40"
               clip-path="url(#clipPath30)"><g
                 id="g42"><g
                   id="g44"
                   clip-path="url(#clipPath34)"><path
                     id="path46"
                     style="fill:#cc0000;fill-opacity:1;fill-rule:nonzero;stroke:none"
                     d="m 8926.55,6450.23 c -25.01,1.9 -49.79,4.15 -74.28,6.83 C 8667.09,6040.04 8356.87,5687.58 7950,5480 7158.77,5088.93 6177.34,4995.7 5396.79,5440.86 c -28.03,-271 -54.05,-547.66 -60.52,-835.73 l 356.67,130.01 509.47,-557.96 584.16,531.52 447.7,-200.93 c 1.66,153.19 12.08,310.73 26.82,475.8 121.7,-63.44 248.11,-120.76 378.49,-171.51 l 97.59,209.28 28.88,61.96 662.96,-20.47 37.49,-1.15 20.83,645.9 1.51,46.67 561.56,204.7 53.9,19.64"
                     inkscape:connector-curvature="0" /></g></g></g></g></g></g><g
         id="g48"><g
           clip-path="url(#clipPath52)"
           id="g50"><g
             id="g56" /><g
             id="g66"><g
               id="g68"
               clip-path="url(#clipPath58)"><g
                 id="g70"><g
                   id="g72"
                   clip-path="url(#clipPath62)"><path
                     id="path74"
                     style="fill:#ff8585;fill-opacity:1;fill-rule:nonzero;stroke:none"
                     d="m 9020,4810 c -59.82,632.4 216.35,1257.45 659.9,1700.49 -102.74,-23.46 -202.95,-40.19 -300.52,-51.12 -254,-651.42 -616.02,-1237.55 -1002.01,-1853.75 224.26,-39.84 453.51,-60.93 686.4,-62.96 -20.94,93.99 -34.51,186.3 -43.77,267.34"
                     inkscape:connector-curvature="0" /></g></g></g></g></g></g><g
         id="g76"><g
           clip-path="url(#clipPath80)"
           id="g78"><g
             id="g84" /><g
             id="g94"><g
               id="g96"
               clip-path="url(#clipPath86)"><g
                 id="g98"><g
                   id="g100"
                   clip-path="url(#clipPath90)"><path
                     id="path102"
                     style="fill:#ff8585;fill-opacity:1;fill-rule:nonzero;stroke:none"
                     d="m 7348.5,3667.39 c -67.37,210.53 -99.91,417.82 -110.45,630.99 -510.82,-433.69 -1109.95,-818.77 -1751.84,-1029.54 50.3,-186.13 113.61,-368.41 189.84,-547.77 577.66,1055.39 1362.11,1064.89 1672.45,946.32"
                     inkscape:connector-curvature="0" /></g></g></g></g></g></g><path
         id="path104"
         style="fill:#cc6600;fill-opacity:1;fill-rule:nonzero;stroke:none"
         d="m 4443.44,9934.82 7.18,65.13 -40,-60 -62.84,-570.06 34.16,6.97 61.5,557.96 z m 4951.06,-2658.66 -430.19,-363.98 7.96,-19.43 435.77,368.72 40,60 -53.54,-45.31 z m -3956.33,3068.54 -2.43,1.3 -279.63,-456.23 2.95,-0.47 279.11,455.4 z m 2380.88,-4989.13 727.8,-88.53 40,60 -40.03,4.87 -699.73,85.11 -28.04,-61.45 z m 767.48,646.54 615.28,172.89 40,60 -57.92,-16.28 -597.38,-167.86 0.02,-48.75 z m -4889.71,3183.3 -15.54,48.68 -40,-60 198.7,-622.39 48.64,32.94 -191.8,600.77 z m 3156.85,-4059.11 679.83,-368.96 10.12,-5.5 -40,-60 -689.95,374.46 -568.51,-481.01 -518.61,613.1 -748.85,-210.43 -236.9,742.08 -783.74,95.32 82.31,746.68 -687.77,373.28 376.99,615.13 -474.74,561.25 40,60 17.69,-20.91 457.05,-540.34 -376.99,-615.13 687.77,-373.28 -82.31,-746.68 783.74,-95.32 236.9,-742.08 748.85,210.43 518.61,-613.1"
         inkscape:connector-curvature="0" /><path
         id="path106"
         style="fill:#ff9900;fill-opacity:1;fill-rule:nonzero;stroke:none"
         d="m 9394.5,7276.17 53.54,45.31 -489.74,531.17 251.31,550.83 -624.3,334.83 -0.26,615.97 -664.03,103.69 -242.05,590.63 -627.47,-127.85 -457.8,496.55 -503.24,-341 -614.72,329.7 -37.57,-61.3 -279.11,-455.39 -2.95,0.46 -705.49,110.18 -7.18,-65.12 -61.5,-557.98 -34.16,-6.95 -666.5,-135.8 15.54,-48.68 191.8,-600.77 -48.64,-32.95 -546.13,-370 17.69,-20.92 457.05,-540.33 -376.99,-615.13 687.77,-373.28 -82.31,-746.68 783.74,-95.33 236.9,-742.06 748.85,210.43 518.61,-613.11 568.51,481.02 679.83,-368.96 10.12,-5.5 275.43,603.72 28.04,61.45 699.73,-85.11 40.03,-4.88 -0.32,675.08 -0.02,48.75 597.38,167.86 57.92,16.28 -269.54,657.76 -7.96,19.42"
         inkscape:connector-curvature="0" /><path
         id="path108"
         style="fill:#ffcc00;fill-opacity:1;fill-rule:nonzero;stroke:none"
         d="m 7321.39,5349.02 c 615.53,176.24 1099.4,573.82 1362.49,1119.49 131.93,273.65 202,569.68 208.24,879.87 6.4,318.33 -55.04,635.6 -182.61,942.97 -204.78,493.37 -562.16,916.47 -1033.51,1223.57 -458.05,298.43 -999.79,462.78 -1525.4,462.78 -166.42,0 -332.1,-16.22 -492.42,-48.21 -319.99,-63.83 -612.26,-187.08 -868.69,-366.3 -249.88,-174.65 -454.11,-393.97 -607,-651.9 -309.48,-522.09 -373.83,-1148.18 -181.18,-1762.94 169.96,-542.39 529.08,-1030.34 1011.2,-1373.96 473.23,-337.29 1044.33,-523.05 1608.11,-523.05 238.65,0 474.42,32.87 700.77,97.68 m -1517.43,-13.8 -733.31,-206.06 -231.97,726.63 -766.5,93.23 80.57,730.93 -670.97,364.17 368.33,601.02 -462.15,546.37 579.67,392.71 -201.77,632 681.78,138.91 66.95,607.35 689.7,-107.71 309.42,504.93 599.75,-321.7 492.66,333.8 447.74,-485.67 614.54,125.17 237.05,-578.38 649.62,-101.45 0.26,-603.09 609.33,-326.81 -245.63,-538.39 476.89,-517.24 -471.66,-399.09 270.02,-658.89 -637.78,-179.22 0.33,-705.26 -720.03,87.59 -296.42,-649.72 -672.92,365.21 -556.41,-470.81"
         inkscape:connector-curvature="0" /><path
         id="path110"
         style="fill:#ffff00;fill-opacity:1;fill-rule:nonzero;stroke:none"
         d="m 4514.59,9962.48 -66.95,-607.34 -681.78,-138.91 110.09,-344.85 1222.78,999.88"
         inkscape:connector-curvature="0" /><path
         id="path112"
         style="fill:#ffff00;fill-opacity:1;fill-rule:nonzero;stroke:none"
         d="m 5513.71,10359.7 -183.13,-298.9 293.22,239.8"
         inkscape:connector-curvature="0" /><path
         id="path114"
         style="fill:#ffff00;fill-opacity:1;fill-rule:nonzero;stroke:none"
         d="m 4459.47,5901.91 177.88,193.68 c -293.51,300.41 -513.75,662.5 -636.05,1052.77 -12.35,39.41 -23.61,78.87 -33.85,118.34 l -298.07,-324.39 483.37,-262.36 -80.57,-730.93"
         inkscape:connector-curvature="0" /><path
         id="path116"
         style="fill:#ffff00;fill-opacity:1;fill-rule:nonzero;stroke:none"
         d="M 7668.4,10011.3 7053.86,9886.12 6713.54,10255.3 6443.15,9961 c 430.52,-48.69 859.49,-202.83 1232.85,-446.08 21.24,-13.84 42.17,-27.99 62.94,-42.29 l 103.88,113.1"
         inkscape:connector-curvature="0" /><path
         id="path118"
         style="fill:#ffff00;fill-opacity:1;fill-rule:nonzero;stroke:none"
         d="m 6148.06,5294.23 -185.28,-146.75 136.49,-161.36 445.38,266.49 c -132.51,3.91 -265.16,17.84 -396.59,41.62"
         inkscape:connector-curvature="0" /><path
         id="path120"
         style="fill:#ffff00;fill-opacity:1;fill-rule:nonzero;stroke:none"
         d="m 8924.26,6946.86 471.66,399.09 -277.54,301.01 -227.03,-179.82 c 1.31,-39.55 1.56,-79.14 0.77,-118.75 -5.57,-277.3 -62.32,-543.23 -168.51,-792.03 l 289.65,173.32"
         inkscape:connector-curvature="0" /><path
         id="path122"
         style="fill:#ff9900;fill-opacity:1;fill-rule:nonzero;stroke:none"
         d="M 8663.32,8272.19 C 9162.65,7069.13 8589.48,5764.13 7307.63,5397.09 5963.6,5012.25 4468.39,5825.04 4049.01,7163.3 c -398.02,1270.14 357.86,2465.56 1618.94,2717.16 1207.7,240.94 2519.49,-461.74 2995.37,-1608.27"
         inkscape:connector-curvature="0" /><path
         id="path124"
         style="fill:#cc6600;fill-opacity:1;fill-rule:nonzero;stroke:none"
         d="m 5647.95,9840.46 c 1207.7,240.94 2519.5,-461.74 2995.37,-1608.26 255.34,-615.21 230.09,-1257 -26.8,-1786.45 275.41,536.93 308.61,1195.66 46.8,1826.45 -475.87,1146.52 -1787.67,1849.2 -2995.37,1608.26 -699.06,-139.47 -1242.71,-569.03 -1520.8,-1140.51 283.69,551.48 818.15,964.32 1500.8,1100.51"
         inkscape:connector-curvature="0" /><path
         id="path126"
         style="fill:#cc6600;fill-opacity:1;fill-rule:nonzero;stroke:none"
         d="M 8367.44,8201.1 C 8792.28,7160.82 8287.47,6043.18 7184.17,5734.68 6035.21,5413.42 4759.32,6106.17 4393.62,7246.12 4043.92,8336.18 4684.35,9372.48 5772.22,9595.36 6820.06,9810.04 7959.93,9198.9 8367.44,8201.1"
         inkscape:connector-curvature="0" /><path
         id="path128"
         style="fill:#ffcc00;fill-opacity:1;fill-rule:nonzero;stroke:none"
         d="M 8387.44,8241.1 C 8812.28,7200.82 8307.47,6083.18 7204.17,5774.68 6055.21,5453.42 4779.32,6146.17 4413.62,7286.12 4063.92,8376.18 4704.35,9412.48 5792.22,9635.36 6840.06,9850.04 7979.93,9238.9 8387.44,8241.1"
         inkscape:connector-curvature="0" /><path
         id="path130"
         style="fill:#ffe600;fill-opacity:1;fill-rule:nonzero;stroke:none"
         d="M 6998.36,9502.13 4409.11,8021.29 c -15.84,-225.74 11.46,-462.72 88.36,-702.43 87.77,-273.62 229.76,-520.57 410.55,-732.61 l 2676.23,2608.4 c -179.8,129.28 -377.79,233.08 -585.89,307.48"
         inkscape:connector-curvature="0" /><path
         id="path132"
         style="fill:#ffe600;fill-opacity:1;fill-rule:nonzero;stroke:none"
         d="m 8345.34,8243.57 c -44.37,108.64 -97.71,212.53 -158.89,311.08 L 5445.07,6125.71 C 5625.04,6014 5820.06,5926.89 6023.3,5867.88 l 2462.85,1775.55 c -13.38,198.55 -59.4,400.8 -140.81,600.14"
         inkscape:connector-curvature="0" /><path
         id="path134"
         style="fill:#ffe600;fill-opacity:1;fill-rule:nonzero;stroke:none"
         d="m 7704.76,7667.48 24.04,5.93 c 59.48,14.63 75.14,70.7 51.18,131.63 -23.09,58.73 -63.55,95.12 -125.75,82.32 -11.45,-2.79 -24.59,-7.09 -30.68,-11.95 l 81.21,-207.93 z m -255.33,270.72 c 39.7,18.51 91.96,36.68 144.05,49.16 74.84,17.96 145.22,23.64 206.91,-6.32 57.36,-27.63 88.02,-70.72 111.59,-130.25 29.38,-74.11 19.66,-150.15 -38.94,-201 l 0.8,-2.09 c 55.2,-6.84 96.75,-45.54 139.87,-117.06 44.5,-74.82 97.61,-156.91 120.49,-179.94 l -142.9,-36.29 c -16.23,17.86 -59.98,85.29 -100.89,160.16 -46.96,84.57 -78.7,104.13 -124.7,92.7 l -19.89,-4.93 110.25,-282.25 -138.04,-35.05 -268.6,693.16 z m 33.05,-410.22 -163.16,-40.39 73.32,-192.25 184.75,46.46 46.5,-120.66 -325.18,-82.55 -268.67,710.25 309.51,74.25 45.41,-117.86 -170.98,-41.41 61.71,-161.82 162.92,39.98 43.87,-114 z m -613.89,-376.14 c 7.29,-0.52 18.14,2.21 25.75,4.12 68.27,17.2 103.01,98.43 29.23,296.15 -54.34,145.68 -125.93,224.59 -210.93,204.03 -9.7,-2.35 -19.39,-4.69 -26.84,-9.94 l 182.79,-494.36 z m -361.18,560.2 c 32.63,16.98 82.54,34.66 138.59,48.1 91.39,21.91 162.44,16.2 224.1,-14.53 82.42,-39.41 149.54,-124.91 201.45,-262.79 54.16,-143.96 55.38,-256.62 12.65,-328.25 -30.97,-59.48 -95.13,-100.48 -197.26,-126.41 -44.67,-11.34 -91,-18.39 -120.6,-22.34 l -258.93,706.22 z m -106.04,-498.68 -78.76,145.43 c -23.5,42 -59.13,111.12 -82.95,157.46 l -3.29,-0.8 c 9.56,-49.81 25.45,-127.29 32.77,-170.95 l 26.49,-157.41 105.74,26.27 z m -80.55,-140.2 26.75,-176.02 -141.27,-35.87 -97.3,766.62 171.82,41.22 405.34,-686.02 -139.56,-35.43 -92.3,158.95 -133.48,-33.45 z m -579.36,111.11 25.79,6.34 c 63.8,15.71 83.23,74.57 60.93,138.28 -21.5,61.4 -62.54,99.27 -129.11,85.5 -12.28,-2.98 -26.44,-7.57 -33.13,-12.69 l 75.52,-217.43 z m -256.91,282.18 c 43,19.64 99.36,38.96 155.21,52.37 80.22,19.22 155.11,25.61 218.95,-5.41 59.4,-28.62 89.7,-73.57 111.7,-135.82 27.38,-77.46 13.23,-157.21 -51.46,-210.86 l 0.76,-2.18 c 58.18,-6.82 100.24,-47.14 142.34,-121.85 43.38,-78.18 95.56,-163.91 118.65,-187.93 l -153.32,-38.93 c -16.31,18.64 -59.29,89.09 -98.87,167.32 -45.5,88.36 -78.16,108.68 -127.51,96.43 l -21.34,-5.3 102.57,-295.29 -148.14,-37.61 -249.54,725.06 z m -320.8,-207.49 -135.8,-32.92 -43.99,131.96 419.39,100.61 44.77,-130.72 -135.6,-32.87 206.51,-608.22 -150.07,-38.09 -205.21,610.25 z m 1620.38,1354.56 -125.22,-28.18 -45.84,121.77 386.82,86.19 46.49,-120.73 -125.08,-28.16 214.5,-561.14 -138.25,-32.63 -213.42,562.88 z m -352.42,-545.2 c 34.75,-8.75 88.34,-8.59 129.09,0.93 66.36,15.52 86.11,56.02 69.22,101.32 -18.75,50.36 -59.9,67.59 -134.84,91.54 -119.66,34.84 -183.92,99.03 -206.84,161.39 -40.43,110.04 2.78,218.43 152.48,251.79 46.57,10.35 95.47,8.17 121.11,0.82 l 20.53,-118.97 c -24.64,7.61 -59.5,11.84 -99.8,2.77 -59.45,-13.37 -75.38,-54.34 -61.84,-90.93 15.11,-40.73 44.36,-57.3 138.73,-84.46 115.06,-33.43 176.09,-94.79 203.38,-167.45 47.48,-126.37 -18.11,-232.89 -159.41,-266.27 -58.02,-13.69 -120.45,-12.6 -149.13,-4.64 l -22.68,122.16 z m -162.51,143.98 -166.32,-38.28 68.41,-189.11 188.35,44.04 43.45,-118.68 -331.55,-78.29 -250.58,698.63 315.47,70.3 42.39,-115.96 -174.27,-39.2 57.59,-159.18 166.07,37.86 40.99,-112.13 z m -621.45,-368.1 c 9.59,-0.04 19.54,2.3 32.82,5.41 58.53,13.71 95.14,58.75 69.56,131.19 -24.78,70.15 -88.25,95.08 -145.88,82.95 l -30.88,-7.11 74.38,-212.44 z m -109.87,313.8 30.83,7.04 c 51.68,11.8 76.55,62.37 56.43,119.41 -17.89,50.69 -56.91,84.28 -116.12,70.98 -15.36,-3.45 -28.18,-7.45 -35.89,-12.52 L 5537.88,8158 Z m -241.08,244.7 c 40.86,19.12 96.63,36 159.2,49.94 68.98,15.36 138.55,22 204.38,-7.66 50.17,-22.05 82.98,-64.69 100.23,-113.14 22.07,-61.98 9.58,-129.8 -53.09,-176.71 l 1.48,-4.17 c 93.52,-3.3 163.52,-60.39 191.05,-137.62 20.89,-58.57 17.24,-108.3 -5.54,-151.21 -27.55,-56.72 -93.53,-99.77 -218.57,-129.31 -55.5,-13.11 -103.31,-20.94 -138.19,-24.59"
         inkscape:connector-curvature="0" /><path
         id="path136"
         style="fill:#9f0000;fill-opacity:1;fill-rule:nonzero;stroke:none"
         d="m 7724.76,7727.48 24.04,5.93 c 59.48,14.63 75.14,70.7 51.18,131.63 -23.09,58.73 -63.55,95.12 -125.75,82.32 -11.45,-2.79 -24.59,-7.09 -30.68,-11.95 l 81.21,-207.93 z m -255.33,270.72 c 39.7,18.51 91.96,36.68 144.05,49.16 74.84,17.96 145.22,23.64 206.91,-6.32 57.36,-27.63 88.02,-70.72 111.59,-130.25 29.38,-74.11 19.66,-150.15 -38.94,-201 l 0.8,-2.09 c 55.2,-6.84 96.75,-45.54 139.87,-117.06 44.5,-74.82 97.61,-156.91 120.49,-179.94 l -142.9,-36.29 c -16.23,17.86 -59.98,85.29 -100.89,160.16 -46.96,84.57 -78.7,104.13 -124.7,92.7 l -19.89,-4.93 110.25,-282.25 -138.04,-35.05 -268.6,693.16 z m 33.05,-410.22 -163.16,-40.39 73.32,-192.25 184.75,46.46 46.5,-120.66 -325.18,-82.55 -268.67,710.25 309.51,74.25 45.41,-117.86 -170.98,-41.41 61.71,-161.82 162.92,39.98 43.87,-114 z m -613.89,-376.14 c 7.29,-0.52 18.14,2.21 25.75,4.12 68.27,17.2 103.01,98.43 29.23,296.15 -54.34,145.68 -125.93,224.59 -210.93,204.03 -9.7,-2.35 -19.39,-4.69 -26.84,-9.94 l 182.79,-494.36 z m -361.18,560.2 c 32.63,16.98 82.54,34.66 138.59,48.1 91.39,21.91 162.44,16.2 224.1,-14.53 82.42,-39.41 149.54,-124.91 201.45,-262.79 54.16,-143.96 55.38,-256.62 12.65,-328.25 -30.97,-59.48 -95.13,-100.48 -197.26,-126.41 -44.67,-11.34 -91,-18.39 -120.6,-22.34 l -258.93,706.22 z m -106.04,-498.68 -78.76,145.43 c -23.5,42 -59.13,111.12 -82.95,157.46 l -3.29,-0.8 c 9.56,-49.81 25.45,-127.29 32.77,-170.95 l 26.49,-157.41 105.74,26.27 z m -80.55,-140.2 26.75,-176.02 -141.27,-35.87 -97.3,766.62 171.82,41.22 405.34,-686.02 -139.56,-35.43 -92.3,158.95 -133.48,-33.45 z m -579.36,111.11 25.79,6.34 c 63.8,15.71 83.23,74.57 60.93,138.28 -21.5,61.4 -62.54,99.27 -129.11,85.5 -12.28,-2.98 -26.44,-7.57 -33.13,-12.69 l 75.52,-217.43 z m -256.91,282.18 c 43,19.64 99.36,38.96 155.21,52.37 80.22,19.22 155.11,25.61 218.95,-5.41 59.4,-28.62 89.7,-73.57 111.7,-135.82 27.38,-77.46 13.23,-157.21 -51.46,-210.86 l 0.76,-2.18 c 58.18,-6.82 100.24,-47.14 142.34,-121.85 43.38,-78.18 95.56,-163.91 118.65,-187.93 l -153.32,-38.93 c -16.31,18.64 -59.29,89.09 -98.87,167.32 -45.5,88.36 -78.16,108.68 -127.51,96.43 l -21.34,-5.3 102.57,-295.29 -148.14,-37.61 -249.54,725.06 z m -320.8,-207.49 -135.8,-32.92 -43.99,131.96 419.39,100.61 44.77,-130.72 -135.6,-32.87 206.51,-608.22 -150.07,-38.1 -205.21,610.26 z m 1620.38,1354.56 -125.22,-28.18 -45.84,121.77 386.82,86.19 46.49,-120.73 -125.08,-28.16 214.5,-561.14 -138.25,-32.63 -213.42,562.88 z m -352.42,-545.2 c 34.75,-8.75 88.34,-8.59 129.09,0.93 66.36,15.52 86.11,56.02 69.22,101.32 -18.75,50.36 -59.9,67.59 -134.84,91.54 -119.66,34.84 -183.92,99.03 -206.84,161.39 -40.43,110.04 2.78,218.43 152.48,251.79 46.57,10.35 95.47,8.17 121.11,0.82 l 20.53,-118.97 c -24.64,7.61 -59.5,11.84 -99.8,2.77 -59.45,-13.37 -75.38,-54.34 -61.84,-90.93 15.11,-40.73 44.36,-57.3 138.73,-84.46 115.06,-33.43 176.09,-94.79 203.38,-167.45 47.48,-126.37 -18.11,-232.89 -159.41,-266.27 -58.02,-13.69 -120.45,-12.6 -149.13,-4.64 l -22.68,122.16 z m -162.51,143.98 -166.32,-38.28 68.41,-189.11 188.35,44.04 43.45,-118.68 -331.55,-78.29 -250.58,698.63 315.47,70.3 42.39,-115.96 -174.27,-39.2 57.59,-159.18 166.07,37.86 40.99,-112.13 z m -621.45,-368.1 c 9.59,-0.04 19.54,2.3 32.82,5.41 58.53,13.71 95.14,58.75 69.56,131.19 -24.78,70.15 -88.25,95.08 -145.88,82.95 l -30.88,-7.11 74.38,-212.44 z m -109.87,313.8 30.83,7.04 c 51.68,11.8 76.55,62.37 56.43,119.41 -17.89,50.69 -56.91,84.28 -116.12,70.98 -15.36,-3.45 -28.18,-7.45 -35.89,-12.52 L 5557.88,8218 Z m -241.08,244.7 c 40.86,19.12 96.63,36 159.2,49.94 68.98,15.36 138.55,22 204.38,-7.66 50.17,-22.05 82.98,-64.69 100.23,-113.14 22.07,-61.98 9.58,-129.8 -53.09,-176.71 l 1.48,-4.17 c 93.52,-3.3 163.52,-60.39 191.05,-137.62 20.89,-58.57 17.24,-108.3 -5.54,-151.21 -27.55,-56.72 -93.53,-99.77 -218.57,-129.31 -55.5,-13.11 -103.31,-20.94 -138.19,-24.59"
         inkscape:connector-curvature="0" /><path
         id="path138"
         style="fill:#df0000;fill-opacity:1;fill-rule:nonzero;stroke:none"
         d="m 6239.66,7516.25 c 12.86,-25 29.15,-56.64 45.11,-87.07 -8.13,44.34 -20.45,104.84 -28.41,146.27 l 3.3,0.8 c 23.83,-46.34 59.45,-115.47 82.94,-157.45 l 78.77,-145.44 -46.27,-11.49 26.27,-48.51 -105.74,-26.26 -26.49,157.4 c -7.31,43.66 -23.21,121.13 -32.78,170.95 l 3.3,0.8 z m 99.88,-566.23 -18.72,123.13 28.05,7.04 -8.05,52.96 133.48,33.46 92.29,-158.95 91.36,23.19 -377.13,638.25 -145.02,-34.78 90.51,-713.05"
         inkscape:connector-curvature="0" /><path
         id="path140"
         style="fill:#df0000;fill-opacity:1;fill-rule:nonzero;stroke:none"
         d="m 5770.12,8040.8 c 15.19,-43.02 8.34,-76.28 -11.9,-99.16 2.32,-49.6 -30.53,-80.99 -77.66,-92.03 -13.27,-3.11 -23.23,-5.44 -32.81,-5.4 l -74.38,212.42 30.87,7.11 c 2.39,0.51 4.81,0.85 7.22,1.23 l -18.09,51.66 30.87,7.11 c 57.63,12.14 121.1,-12.79 145.88,-82.94 m -232.25,117.19 -64.74,184.91 c 7.71,5.08 20.52,9.08 35.89,12.53 0.23,0.05 0.45,0.07 0.68,0.12 l -16.57,47.35 c 7.71,5.08 20.52,9.08 35.89,12.53 59.2,13.3 98.22,-20.28 116.11,-70.98 13.15,-37.28 6.99,-71.72 -13.22,-94.46 1.72,-41.92 -22.28,-75.62 -63.21,-84.96 l -30.83,-7.04 z m 122.5,286.99 c -65.83,29.65 -135.38,23.03 -204.38,7.66 -45.92,-10.23 -88.11,-22.06 -123.49,-35.18 l 225.24,-649.23 c 34.88,3.64 82.69,11.48 138.2,24.59 122.11,28.84 187.8,70.62 216.46,125.39 3.71,28.9 0.01,60.45 -12.36,95.14 -27.53,77.22 -97.52,134.31 -191.05,137.62 l -1.47,4.16 c 21.07,15.77 36.35,33.94 46.66,53.42 -8.21,1.2 -16.56,2.11 -25.19,2.42 l -1.47,4.16 c 18.41,13.78 32.38,29.4 42.52,46.11 2.23,23.42 -1.18,47.42 -9.43,70.6 -17.25,48.45 -50.06,91.09 -100.24,113.14"
         inkscape:connector-curvature="0" /><path
         id="path142"
         style="fill:#df0000;fill-opacity:1;fill-rule:nonzero;stroke:none"
         d="m 5836.99,7280.27 c 0.09,-43.08 -22.75,-78.09 -69.75,-89.65 l -25.78,-6.35 -75.52,217.43 c 6.69,5.13 20.85,9.72 33.13,12.69 1.07,0.22 2.07,0.31 3.13,0.5 l -16.26,46.81 c 6.69,5.13 20.85,9.72 33.13,12.69 66.57,13.78 107.61,-24.1 129.11,-85.5 14.71,-42 11.14,-81.81 -11.19,-108.62 m 210.39,-404.42 99.16,25.17 c -25.1,38.11 -56.6,91.42 -84.48,141.69 -42.11,74.7 -84.18,115.02 -142.36,121.84 l -0.75,2.18 c 18.9,15.67 33.36,33.62 43.86,53.04 -7.44,2.21 -15.1,3.84 -23.11,4.78 l -0.75,2.18 c 18.35,15.21 32.49,32.58 42.91,51.34 4.43,32.08 0.39,66.01 -11.45,99.53 -21.99,62.24 -52.3,107.2 -111.7,135.81 -63.84,31.02 -138.72,24.64 -218.95,5.4 -41.53,-9.96 -83.32,-23.2 -119.7,-37.41 l 234.03,-680 110.61,28.08 -85.04,244.81 21.34,5.3 c 5.78,1.44 11.3,2.37 16.67,2.86 l -18.01,51.84 21.34,5.3 c 49.35,12.25 82.01,-8.06 127.51,-96.42 39.57,-78.25 82.56,-148.7 98.87,-167.32"
         inkscape:connector-curvature="0" /><path
         id="path144"
         style="fill:#df0000;fill-opacity:1;fill-rule:nonzero;stroke:none"
         d="m 7604.61,7271.17 -27.23,70.63 -184.74,-46.46 -73.32,192.25 39.18,9.7 -19.18,50.3 123.82,30.66 -24.54,63.74 -162.92,-39.99 -61.7,161.81 39.25,9.51 -19.25,50.49 131.55,31.87 -25.97,67.41 -270.38,-64.86 249.53,-659.63"
         inkscape:connector-curvature="0" /><path
         id="path146"
         style="fill:#df0000;fill-opacity:1;fill-rule:nonzero;stroke:none"
         d="m 6199.55,6914.48 1.15,0.29 c -0.43,0.44 -0.93,1.05 -1.38,1.53"
         inkscape:connector-curvature="0" /><path
         id="path148"
         style="fill:#df0000;fill-opacity:1;fill-rule:nonzero;stroke:none"
         d="m 5047.95,7286.05 135.8,32.92 205.22,-610.26 112.89,28.65 -189.34,557.66 37.3,9.04 -17.3,50.96 98.16,23.79 -27.33,79.81 -382.35,-91.73"
         inkscape:connector-curvature="0" /><path
         id="path150"
         style="fill:#df0000;fill-opacity:1;fill-rule:nonzero;stroke:none"
         d="m 6308.34,8483.51 c 22.92,-62.37 87.18,-126.56 206.83,-161.4 74.94,-23.95 116.09,-41.18 134.85,-91.54 10.85,-29.11 6.47,-56.18 -15.57,-75.97 7.04,-38.64 -15.22,-71.69 -73.64,-85.34 -29.63,-6.94 -65.98,-8.85 -97.01,-6.05 l 10.59,-57.05 c 28.69,-7.95 91.1,-9.05 149.13,4.64 72.92,17.24 125.6,53.97 153.06,102.84 4.31,31.96 0.09,66.86 -13.65,103.43 -27.29,72.66 -88.32,134.03 -203.38,167.46 -94.38,27.16 -123.62,43.72 -138.72,84.45 -9.13,24.65 -4.8,51.25 17.12,70.11 -7.32,33.73 10.68,68.67 64.72,80.82 25.3,5.7 48.46,6.14 68.3,3.8 l -9.05,52.4 c -25.63,7.35 -74.53,9.53 -121.09,-0.82 -72.82,-16.22 -120.38,-50.24 -145.43,-93.51 -3.91,-31.21 0.59,-64.66 12.94,-98.27"
         inkscape:connector-curvature="0" /><path
         id="path152"
         style="fill:#df0000;fill-opacity:1;fill-rule:nonzero;stroke:none"
         d="m 6894.34,7155.97 c -7.61,-1.91 -18.46,-4.64 -25.75,-4.13 L 6685.8,7646.2 c 7.45,5.25 17.14,7.59 26.84,9.94 3.66,0.88 7.3,1.52 10.91,2.04 l -17.75,48.02 c 7.45,5.25 17.14,7.59 26.84,9.94 85,20.57 156.59,-58.34 210.93,-204.03 52.14,-139.72 50.05,-221.22 20.25,-263.11 -5.3,-55.44 -32.43,-83.7 -69.48,-93.03 m -24.24,589.63 c -61.66,30.74 -132.71,36.46 -224.1,14.54 -38.27,-9.18 -73.54,-20.34 -102.52,-31.9 l 242.86,-662.43 c 29.6,3.97 75.93,11 120.6,22.35 102.13,25.94 166.29,66.94 197.26,126.42 1.85,3.12 3.53,6.41 5.21,9.68 12.55,67.57 1.14,154.89 -37.86,258.57 -51.91,137.88 -119.03,223.36 -201.45,262.77"
         inkscape:connector-curvature="0" /><path
         id="path154"
         style="fill:#df0000;fill-opacity:1;fill-rule:nonzero;stroke:none"
         d="m 6999.89,8793.3 -347.54,-77.43 26.55,-70.54 125.23,28.19 213.42,-562.89 98.86,23.35 -195.11,510.43 39.53,8.9 -19.53,51.1 85.42,19.23"
         inkscape:connector-curvature="0" /><path
         id="path156"
         style="fill:#df0000;fill-opacity:1;fill-rule:nonzero;stroke:none"
         d="m 7790.55,7756.86 c 1.41,-40.31 -18.56,-72.82 -61.75,-83.45 l -24.04,-5.93 -81.21,207.93 c 6.09,4.86 19.23,9.16 30.69,11.95 2.59,0.53 5.09,0.85 7.6,1.21 l -18.29,46.84 c 6.09,4.86 19.23,9.16 30.69,11.95 62.19,12.8 102.66,-23.59 125.74,-82.31 16.77,-42.64 14.05,-82.85 -9.43,-108.19 m 220.76,-382.45 87.44,22.2 c -25.23,36.37 -56.85,86.64 -85.04,134.03 -43.12,71.52 -84.67,110.22 -139.87,117.06 l -0.8,2.09 c 18.21,15.8 31.69,34.03 40.75,53.89 -6.46,1.82 -13.09,3.18 -19.95,4.02 l -0.8,2.09 c 13.97,12.1 25.07,25.69 33.61,40.3 3.96,32.23 -1.17,66.66 -14.66,100.7 -23.58,59.53 -54.24,102.62 -111.6,130.26 -61.7,29.95 -132.06,24.27 -206.91,6.31 -37.11,-8.88 -74.22,-20.68 -106.9,-33.41 l 251.45,-648.9 98.52,25 -90.73,232.29 19.89,4.93 c 7.15,1.78 13.93,2.69 20.5,2.84 l -20.39,52.23 19.89,4.93 c 46.01,11.43 77.74,-8.13 124.71,-92.7 40.9,-74.87 84.66,-142.3 100.89,-160.16"
         inkscape:connector-curvature="0" /><path
         id="path158"
         style="fill:#df0000;fill-opacity:1;fill-rule:nonzero;stroke:none"
         d="m 6136.43,8600.91 -277.02,-61.72 232.13,-647.21 292.92,69.16 -24.82,67.82 -188.35,-44.05 -68.41,189.11 38.5,8.86 -18.5,51.14 127.65,29.39 -22.32,61.03 -166.07,-37.87 -57.59,159.17 38.57,8.68 -18.57,51.32 135.52,30.5"
         inkscape:connector-curvature="0" /><path
         id="path160"
         style="fill:#ffcc00;fill-opacity:1;fill-rule:nonzero;stroke:none"
         d="m 8126.32,8880.19 c 26.28,19.24 27.32,57.25 2.44,84.92 -24.88,27.65 -66.34,34.56 -92.64,15.44 -26.35,-19.16 -27.55,-57.2 -2.62,-84.95 24.93,-27.8 66.5,-34.67 92.82,-15.41 M 4691.59,6364.65 c 32.23,23.61 37.19,68.48 11.15,100.24 -26.01,31.76 -73.21,38.47 -105.47,15.01 -32.32,-23.51 -37.47,-68.42 -11.43,-100.31 26.08,-31.91 73.44,-38.59 105.75,-14.94 m 346.54,3115.4 c -24.23,28.15 -67.79,35.41 -97.37,16.23 -29.63,-19.2 -34.03,-57.67 -9.79,-85.92 24.28,-28.27 68.01,-35.51 97.6,-16.19 29.55,19.29 33.8,57.74 9.56,85.88 M 8043.78,5989.74 c -26.78,31.11 -71.5,37.47 -99.95,14.2 -28.5,-23.28 -29.87,-67.51 -3.06,-98.75 26.86,-31.29 71.75,-37.61 100.2,-14.17 28.39,23.41 29.62,67.59 2.81,98.72 M 6658.34,9740.9 c 2.21,32.31 -25.56,63.55 -62.05,69.81 -36.5,6.25 -68,-14.85 -70.33,-47.2 -2.35,-32.4 25.46,-63.77 62.08,-70.01 36.62,-6.24 68.07,15 70.3,47.4 M 6366.78,5489.19 c 2.75,40.11 -28.03,77.1 -68.76,82.68 -40.76,5.58 -76.18,-22.37 -79.07,-62.53 -2.91,-40.21 27.92,-77.39 68.83,-82.95 40.88,-5.55 76.25,22.61 79,62.8 M 4142.07,8164.03 c -39.96,6.2 -76.27,-18.12 -81.08,-54.39 -4.8,-36.34 23.83,-70.84 63.93,-77.03 40.08,-6.17 76.35,18.33 81.02,54.64 4.67,36.24 -23.93,70.59 -63.87,76.78 m 4543.11,-704.29 c -37.15,5.76 -67.71,-18.38 -68.25,-53.97 -0.54,-35.66 29.25,-69.27 66.52,-75 37.25,-5.75 67.77,18.53 68.18,54.19 0.41,35.57 -29.32,69.02 -66.45,74.78 M 7437.11,9449.52 c 14.83,27.94 0.02,64.9 -32.99,82.6 -33.03,17.68 -71.84,9.49 -86.76,-18.41 -14.93,-27.92 -0.2,-65 32.92,-82.75 33.12,-17.77 72,-9.44 86.83,18.56 M 5479.07,5752.84 c 18.59,35.1 3.73,79.72 -33.17,99.74 -36.88,20.03 -81.93,7.93 -100.65,-27.08 -18.75,-35.1 -3.99,-79.87 33.03,-99.96 37.03,-20.13 82.18,-7.86 100.79,27.3 m -1047.4,3148.92 c -34.65,18.67 -77.76,9.56 -96.33,-20.42 -18.61,-30.05 -5.55,-69.65 29.21,-88.4 34.77,-18.75 77.97,-9.51 96.46,20.61 18.46,30.06 5.31,69.53 -29.34,88.21 M 8541.53,6685.51 c -35.05,18.9 -75.36,8.08 -90.06,-24.22 -14.72,-32.38 1.81,-74.04 36.99,-93 35.17,-18.98 75.55,-8.03 90.15,24.42 14.59,32.38 -2.03,73.9 -37.08,92.8 M 5782.59,9755.02 c -11.93,32.5 -50.21,53.06 -85.56,45.96 -35.39,-7.12 -54.5,-39.28 -42.63,-71.86 11.9,-32.64 50.3,-53.28 85.76,-46.07 35.41,7.19 54.38,39.43 42.43,71.97 M 7315.12,5581.2 c -14.13,38.49 -55.87,61.12 -93.3,50.57 -37.49,-10.56 -56.54,-50.38 -42.47,-88.98 14.09,-38.67 55.98,-61.39 93.54,-50.7 37.5,10.67 56.39,50.57 42.23,89.11 M 4196.01,7270.98 c -39.37,-9.41 -61.82,-47.18 -50.08,-84.38 11.76,-37.27 53.31,-59.78 92.75,-50.26 39.39,9.51 61.67,47.37 49.84,84.53 -11.82,37.09 -53.21,59.52 -92.51,50.11 m 4384.77,981.39 c 13.94,-33.71 -2.13,-67.67 -35.92,-75.84 -33.86,-8.18 -72.58,12.62 -86.46,46.43 -13.85,33.75 2.35,67.64 36.13,75.72 33.75,8.07 72.35,-12.65 86.25,-46.31"
         inkscape:connector-curvature="0" /></g></g></svg>