
<svg xmlns="http://www.w3.org/2000/svg" version="1.1" xmlns:xlink="http://www.w3.org/1999/xlink" preserveAspectRatio="none" x="0px" y="0px" width="200px" height="200px" viewBox="0 0 200 200">
<defs>
<filter id="Filter_1" x="-20%" y="-20%" width="140%" height="140%" color-interpolation-filters="sRGB">
<feColorMatrix in="SourceGraphic" type="matrix" values="1 0 0 0 0 0 1 0 0 0 0 0 1 0 0 0 0 0 0 0" result="result1"/>
</filter>

<g id="Symbol_1_0_Layer0_0_FILL">
<path fill="#93A2AE" fill-opacity="0" stroke="none" d="
M 0 0
L 0 200 200 200 200 0 0 0 Z"/>
</g>

<g id="stiker_222222_copy_13_0_Layer5_0_FILL">
<path fill="#4E4E4D" stroke="none" d="
M 165.85 76.05
Q 165.85 63.6 163.95 52.95 161.2 37.65 154.85 28.95 150.9 23.5 144.4 19 137.85 14.5 129.95 11.75
L 129.75 11.65
Q 114 6 96.75 6 70.45 6 52.65 18.85 31.2 34.25 31.2 63.45
L 31.2 145.6
Q 30 145.45 28.8 145.45 25.6 145.45 23.1 146.5 20.65 147.55 19.5 149.4 17.65 152.3 19.6 156.3
L 19.7 156.4 20.25 157.25
Q 17.45 159.6 17.3 163 11.1 166.45 10.8 170.05 10.6 172.7 13.3 175.1 11.15 181.2 14.05 185.5 16 188.35 19.8 189.5 22.6 190.3 26.95 190.3 28.85 190.3 32.45 190.1 37.45 189.8 40.15 190 42 190.1 45.5 190.95 49.95 192.05 52.9 192.3
L 56.7 192.4
Q 59.65 192.4 66.35 192.1 74 191.85 74.7 191.85
L 75.15 191.85
Q 78.9 191.85 86.7 192.15 93.7 192.5 99.4 192.5
L 100.45 192.5
Q 108.75 192.45 123.8 191.5
L 134.35 190.95
Q 138.25 190.75 148.45 190.45 163.2 189.95 168.5 189.6 177.5 189 181.85 187.2 187.2 185 188.15 180.25 188.95 176.4 186.05 172.05 184.3 169.4 178.65 163.6
L 177.8 162.75
Q 174.45 159.3 172.4 157.95 170.3 155.55 167.85 153.95
L 166 152.85 165.8 145.85 165.85 145.65 165.85 76.05
M 162.65 51.4
Q 164.85 62.55 164.85 76.05
L 164.85 145.65 164.8 145.65 165 153.45
Q 166.2 154.05 167.25 154.8 169.6 156.35 171.75 158.7 173.8 160.05 177.05 163.45 183.1 169.6 184.85 172.1 187.9 176.4 187.15 180.1 186.35 184.1 181.95 186.1 177.65 188 168.45 188.6 163.15 188.95 151.85 189.3 138.35 189.75 134.3 189.95 123.05 190.55 117.2 190.9 106.6 191.45 100.4 191.5 95.6 191.55 87.2 191.2 78.9 190.85 74.7 190.85 73 190.85 63.45 191.25 56.1 191.5 52.95 191.3 50 191.05 46.05 190.1 42.25 189.1 40.2 189 30.6 189.35 25.95 189.25 17.75 189.1 14.9 184.95 12.05 180.75 14.5 174.8 7.6 169.3 18.3 163.6 18.2 159.75 21.65 157.5
L 20.5 155.85
Q 17.95 150.65 22.35 148 26.3 145.65 32.2 146.8
L 32.2 63.45
Q 32.2 44.3 41.8 30.9 50.45 18.85 65.95 12.6 80.15 6.9 97.5 7 114.2 7.15 129.4 12.6 137.2 15.3 143.7 19.75 150.15 24.2 154.05 29.55 159.9 37.6 162.65 51.4 Z"/>

<path fill="#FFFFFF" stroke="none" d="
M 164.85 76.05
Q 164.85 62.55 162.65 51.4 159.9 37.6 154.05 29.55 150.15 24.2 143.7 19.75 137.2 15.3 129.4 12.6 114.2 7.15 97.5 7 80.15 6.9 65.95 12.6 50.45 18.85 41.8 30.9 32.2 44.3 32.2 63.45
L 32.2 146.8
Q 26.3 145.65 22.35 148 17.95 150.65 20.5 155.85
L 21.65 157.5
Q 18.2 159.75 18.3 163.6 7.6 169.3 14.5 174.8 12.05 180.75 14.9 184.95 17.75 189.1 25.95 189.25 30.6 189.35 40.2 189 42.25 189.1 46.05 190.1 50 191.05 52.95 191.3 56.1 191.5 63.45 191.25 73 190.85 74.7 190.85 78.9 190.85 87.2 191.2 95.6 191.55 100.4 191.5 106.6 191.45 117.2 190.9 123.05 190.55 134.3 189.95 138.35 189.75 151.85 189.3 163.15 188.95 168.45 188.6 177.65 188 181.95 186.1 186.35 184.1 187.15 180.1 187.9 176.4 184.85 172.1 183.1 169.6 177.05 163.45 173.8 160.05 171.75 158.7 169.6 156.35 167.25 154.8 166.2 154.05 165 153.45
L 164.8 145.65 164.85 145.65 164.85 76.05
M 167.85 163.35
Q 168.85 163.95 169.8 164.7 170.5 165.3 173.75 168.55 177.8 172.75 178.65 173.75 181.3 176.9 181.3 178.6 181.3 180.45 177.95 181.35 175.05 182.15 168.05 182.65 163.2 182.95 152.4 183.3 139.1 183.75 134.05 183.95 121.95 184.65 116.25 184.95 106.3 185.45 100.35 185.5 95.05 185.55 86.85 185.2 78.2 184.85 74.7 184.85 71.85 184.85 63 185.25 56.4 185.55 53.4 185.3 50.85 185.1 47 184.1 43.2 183.15 40.55 183 38.15 182.85 31.5 183.15 25.5 183.35 23.4 183.1 20.7 182.8 19.85 181.55 19.3 180.8 19.45 179.25 19.6 178.05 20 177.15 20.45 176.1 21.5 174.55 22.25 173.45 23.05 172.55 21.2 172 19.4 170.9 17.8 169.9 25.9 166.7 27.05 166.25 28.05 165.9 25.55 165.2 24.65 164.25 22.75 162.25 29.4 161 30.1 160.85 30.65 160.8 30.4 159.9 30.25 158.8 29.9 156.35 27.4 154.45 25.6 153.05 26.05 152.8 28.55 151.6 32.85 153.2 34.75 153.9 36.25 155.1 36.3 153.2 37.65 153.5 37.95 153.55 38.25 153.7 38.25 153.55 38.25 153.45
L 38.15 79.95 38.15 79 39.85 78.45 39.55 76.05 38.15 73.25 38.15 70.45 38.15 63.45
Q 38.15 43.5 48.25 31
L 51.3 27.65
Q 51.8 27.1 52.35 26.6 53.9 25.15 55.65 23.85
L 71 16.15 85.55 13.7
Q 87.75 13.55 90.05 13.55 92.9 13.55 95.6 13.75 112.6 12.95 127.4 18.25 142.3 23.6 149.2 33.05 154 39.65 156.5 51.3 157.3 55 157.8 59 158.2 62 158.45 65.15
L 158.6 67.8
Q 159.3 77.9 158.8 88.1
L 158.8 145.65 159.15 157.65
Q 161.35 158.25 162.95 159.15 165.55 160.65 167.85 163.35 Z"/>

<path fill="#679334" stroke="none" d="
M 135 182.15
Q 133.35 182.35 131.7 182.3 131.35 182.3 131.15 182.25 131.8 182.8 135 182.15
M 155.85 159.55
Q 155.8 159.25 155.75 158.95 155.4 157 153.9 158.7 153.2 159.55 151.65 161.7 151.3 162.15 150.9 162.7 150.8 162.85 148.1 166.2 146.95 167.65 146.7 167.45 145.4 166.1 144.4 165 143.4 163.95 142.65 163.15 141.55 161.95 140.95 161.3 138.55 158.8 138.35 159.8 137.6 163.7 139.3 166.5 140 167.7 141.15 168.7 138.5 167.7 134.9 168.5 133.15 168.85 129.2 170.35 127.75 170.85 132 172.25 136.35 173.7 140.85 172.7 137.25 174.25 134.55 176.65 131.8 179.1 131 181.6 135.8 181.4 142.35 177.55 147.95 173.7 147.95 173.65
L 150.85 175.55
Q 154.15 177.45 156.3 177.45 156.9 177.45 155.25 174.65 153.45 171.7 151.15 170.2 150.95 170.1 152.75 170.3 154.9 170.55 155.6 170.5 156.7 170.4 159.25 170.15 161.2 169.9 160.5 169.35 158.5 167.9 154.8 167.9
L 151.45 168.25
Q 152.4 167.5 152.95 166.9 153.1 166.7 153.95 165.55 154.9 164.25 155.4 161.2 155.75 159.15 155.85 159.55
M 105.6 165.5
Q 105.4 166.2 105.25 166.9 103.9 171.7 102.25 175.05 101.95 175.65 101.65 176.2 101.5 175.6 101.4 175.05 99.85 169 98.9 166.1 98.1 163.75 97.6 163.35 96.85 162.7 96.25 165.95 95.85 168.25 95.5 172.55 95.3 174.35 95.6 175.75 95.6 175.65 95.6 175.6 96.3 178 98.75 178.65 100.8 179.2 102.75 178.4 105.45 177.1 107.25 173.6 108.6 170.95 109.3 167.5 109.25 167.1 109.25 166.7 108.95 161.95 107.45 161.05 106.85 160.7 105.6 165.5 Z"/>

<path fill="#685649" stroke="none" d="
M 157.8 172.85
Q 157.05 172.8 156.2 172.7 157.15 173.8 158 174.9 157.9 174.55 157.85 174.15 157.75 173.4 157.8 172.85
M 144.4 165
Q 145.4 166.1 146.7 167.45 146.95 167.65 148.1 166.2 150.8 162.85 150.9 162.7 151.3 162.15 151.65 161.7 149.15 162.3 146.4 163.85 145.5 164.35 144.4 165
M 105.25 166.9
Q 104.3 166.75 103.6 166.65 101 166.25 98.9 166.1 99.85 169 101.4 175.05 101.85 175 102.25 175.05 103.9 171.7 105.25 166.9
M 162.6 168
Q 167.55 170.35 166.75 171.9 166.35 172.7 164.45 172.95 164.6 173.65 164.2 174.6 163.8 175.7 163.15 175.85 162.25 176.25 161.75 176.4 160.9 176.65 159.4 176.2 159.15 176.25 158.95 176.25 159.85 177.5 160.5 178.75 161.8 181.3 161.3 181.9 160.4 183.05 156.6 182.15 151.85 180.95 147.45 176.65 145.55 177.95 142.8 179.45 138.9 181.6 135 182.15 131.8 182.8 131.15 182.25 130.7 182.15 130.7 181.95 130.7 181.6 131 181.6 131.8 179.1 134.55 176.65 137.25 174.25 140.85 172.7 136.35 173.7 132 172.25 127.75 170.85 129.2 170.35 133.15 168.85 134.9 168.5 138.5 167.7 141.15 168.7 140 167.7 139.3 166.5 138.65 166.35 137.6 166.1 132.2 164.65 128.95 165.55 128.35 165.7 125.35 167.3 122.95 168.6 120.45 168.75 117.8 168.95 112.5 168.1 110.8 167.8 109.35 167.55 109.55 170.95 108.4 174 107.4 176.6 105.95 177.8 105.85 177.85 106.25 177.9 106.7 177.9 107.2 177.85 107.85 177.75 110.1 176.8 111.8 176.1 111.85 176.5 111.9 177.45 110.9 178.65 110 179.75 109 180.15 107.4 180.8 105.05 180.75 103 180.6 102.7 180.7 100.1 181.7 97.85 180.35 95.4 178.9 95.6 175.75 95.3 174.35 95.5 172.55 95.85 168.25 96.25 165.95 93.6 165.9 92 166.3 90.75 166.6 90.1 167.35 90 167.4 89.95 167.5 89.75 167.75 89.25 168.9 88.85 169.8 88.3 169.95 87.95 170 87.55 169.85 87.2 169.7 86.05 168.9 84.9 168.05 84.2 167.8 83.9 167.7 83.55 167.65 82.5 167.4 80.95 167.8 80.1 168.05 78.05 169.15 76.05 170.15 74.85 170.65 74.6 170.75 74.4 170.8 71.85 171.75 69.8 171.55 68.4 171.45 66.4 170.6 65.8 170.4 65.2 170.1 64.75 169.9 64.3 169.7 66.9 172.25 65.85 173.2 64.3 174.75 54.05 171.2 56.5 184.65 54.05 185 51.95 185.25 44.7 176.1 44.65 176.45 44.55 176.8 44 179 42.7 181.05 41.6 182.85 41.2 182.8 36.9 182.25 36.6 176.5 35.7 176.9 34.8 177.3 28.25 180.35 25 181.05 23.55 181.45 23.2 181.2 22.9 181 23.2 180.1 23.35 179.5 23.55 179.25 24.6 175.9 26.45 173.85 26.75 173.5 27.2 173.15 25.1 173.2 23.05 172.55 22.25 173.45 21.5 174.55 20.45 176.1 20 177.15 19.6 178.05 19.45 179.25 19.3 180.8 19.85 181.55 20.7 182.8 23.4 183.1 25.5 183.35 31.5 183.15 38.15 182.85 40.55 183 43.2 183.15 47 184.1 50.85 185.1 53.4 185.3 56.4 185.55 63 185.25 71.85 184.85 74.7 184.85 78.2 184.85 86.85 185.2 95.05 185.55 100.35 185.5 106.3 185.45 116.25 184.95 121.95 184.65 134.05 183.95 139.1 183.75 152.4 183.3 163.2 182.95 168.05 182.65 175.05 182.15 177.95 181.35 181.3 180.45 181.3 178.6 181.3 176.9 178.65 173.75 177.8 172.75 173.75 168.55 170.5 165.3 169.8 164.7 168.85 163.95 167.85 163.35 166.7 162.7 165.5 162.3 162.7 161.3 159.2 161.1
L 159.15 161.1
Q 157.6 161 156.15 161.05 156.35 162.85 155.95 164.65 155.5 166.75 154.9 167.05 156.35 166.65 158.25 166.8 160.5 167 162.6 168
M 174.8 173.7
Q 176.2 173.65 177.05 174.75 177.85 175.8 177.65 177.05 177.1 180.4 172.3 179.25 171.8 178.75 171.9 178.1 171.95 177.4 172.5 176.95 173.15 176.45 173.15 175.35 173.15 174.7 173.6 174.2 174.1 173.75 174.8 173.7
M 58.15 174.85
Q 58.3 173.25 59.95 173.4
L 63.35 173.8
Q 64.05 173.9 64.5 174.4 64.9 174.95 64.8 175.6 64.75 176.2 63.35 176.6 62.1 176.95 61.25 176.8
L 59.6 176.6
Q 57.95 176.45 58.15 174.85
M 80.2 181.6
Q 77 180.6 78.1 178.15 80 175.75 82.35 177.15 84.6 178.45 84 180.6 83.4 182.6 80.2 181.6
M 117.75 179.6
Q 117.75 178.15 119.05 177.75 119.55 177.6 121.55 177.55 122.3 177.55 123.35 178.2 124.45 178.85 124.5 179.5 124.55 180.2 123.9 181.05 123.2 181.9 122.55 181.95
L 119.5 181.95
Q 118.85 181.95 118.25 181.1 117.75 180.35 117.75 179.6 Z"/>

<path fill="#5E4C41" stroke="none" d="
M 101.65 176.2
Q 101.95 175.65 102.25 175.05 101.85 175 101.4 175.05 101.5 175.6 101.65 176.2
M 163.15 175.85
Q 163.8 175.7 164.2 174.6 164.6 173.65 164.45 172.95 162.2 173.25 157.8 172.85 157.75 173.4 157.85 174.15 157.9 174.55 158 174.9 158.5 175.55 158.95 176.25 159.15 176.25 159.4 176.2 160.9 176.65 161.75 176.4 162.25 176.25 163.15 175.85
M 119.05 177.75
Q 117.75 178.15 117.75 179.6 117.75 180.35 118.25 181.1 118.85 181.95 119.5 181.95
L 122.55 181.95
Q 123.2 181.9 123.9 181.05 124.55 180.2 124.5 179.5 124.45 178.85 123.35 178.2 122.3 177.55 121.55 177.55 119.55 177.6 119.05 177.75
M 78.1 178.15
Q 77 180.6 80.2 181.6 83.4 182.6 84 180.6 84.6 178.45 82.35 177.15 80 175.75 78.1 178.15
M 59.95 173.4
Q 58.3 173.25 58.15 174.85 57.95 176.45 59.6 176.6
L 61.25 176.8
Q 62.1 176.95 63.35 176.6 64.75 176.2 64.8 175.6 64.9 174.95 64.5 174.4 64.05 173.9 63.35 173.8
L 59.95 173.4
M 177.05 174.75
Q 176.2 173.65 174.8 173.7 174.1 173.75 173.6 174.2 173.15 174.7 173.15 175.35 173.15 176.45 172.5 176.95 171.95 177.4 171.9 178.1 171.8 178.75 172.3 179.25 177.1 180.4 177.65 177.05 177.85 175.8 177.05 174.75 Z"/>

<path fill="#C4D6D8" stroke="none" d="
M 84.8 167.15
Q 84.15 167 83.55 167.65 83.9 167.7 84.2 167.8 84.9 168.05 86.05 168.9 87.2 169.7 87.55 169.85 87.95 170 88.3 169.95 88.3 169.8 88.3 169.7 88.4 168.1 84.8 167.15
M 64.15 147.35
Q 64 145.45 63.85 143.5 63.15 134.85 62.75 134.15
L 58.8 152.05
Q 59.65 157.3 60.15 166.45 61.3 167.1 62.5 168.1 63.55 168.95 64.3 169.7 64.75 169.9 65.2 170.1 65.8 170.4 66.4 170.6 66.35 169.9 66.3 168.95 66.3 168.6 66.25 168.25 65.9 163.75 64.8 160.25 62.85 154.2 63.5 150 63.85 148.65 64.15 147.35
M 38.15 79
L 38.15 79.95 42.6 80.55 49.45 79.25 55.05 81.8
Q 54.95 81.65 54.95 81.55
L 49.95 77.1 42.5 76.05 38.15 70.45 38.15 73.25 39.55 76.05 39.85 78.45 38.15 79
M 95.6 13.75
Q 92.9 13.55 90.05 13.55 87.75 13.55 85.55 13.7 86.65 13.65 87.8 13.6 88.55 13.55 90.1 13.7
L 90.1 27.5
Q 91.6 27.55 93.1 27.75 93.85 27.8 94.6 27.9 96.65 27.95 98.9 28.3 104.7 29.2 110.7 32.05 117.15 35.1 121.7 39.45 126.2 43.75 129.15 49.8 131.7 55.15 132.8 61.4 134.9 72.95 130.75 83.2 128.65 88.4 125.1 92.8 121.4 97.4 116.65 100.45 106.5 107.05 92.65 106.45 91.35 106.4 90.1 106.3
L 90.1 109.85 96.15 109.85
Q 97.1 109.75 99.15 110.05 101.15 110.35 106.45 109.85
L 107.6 109.85 109.5 109.85
Q 110.05 109.85 110.55 110
L 110.6 110 110.75 110.1 111.25 110.35 111.45 110.45
Q 113.1 110.75 114.5 111.8 116.65 113.45 116.65 114.9 116.65 117.4 117.2 126.55 117.6 134.95 116.95 137 116.6 138 114.55 139 112.6 139.9 111.35 139.9 99.25 139.75 90.1 139.75
L 90.1 167.35
Q 90.75 166.6 92 166.3 93.6 165.9 96.25 165.95 96.85 162.7 97.6 163.35 98.1 163.75 98.9 166.1 101 166.25 103.6 166.65 104.3 166.75 105.25 166.9 105.4 166.2 105.6 165.5 106.85 160.7 107.45 161.05 108.95 161.95 109.25 166.7 109.25 167.1 109.3 167.5 109.3 167.409375 109.3 167.35 109.3025390625 167.4548828125 109.35 167.55 110.8 167.8 112.5 168.1 117.8 168.95 120.45 168.75 122.95 168.6 125.35 167.3 128.35 165.7 128.95 165.55 132.2 164.65 137.6 166.1 138.65 166.35 139.3 166.5 137.6 163.7 138.35 159.8 138.55 158.8 140.95 161.3 141.55 161.95 142.65 163.15 142.65 163 142.65 162.85 142.3 152.5 142.3 149.7
L 142.3 106.2 134.2 107.25 130.1 103.3 120.4 105.85 130.25 101.15 133.55 104.5 142.3 99.7 142.3 63.45
Q 142.3 38.4 126.6 25.25 114.4 15 95.6 13.75
M 134.6 131.5
Q 136.25 132.75 137.4 135.2 138.5 137.45 138.85 139.9 139.15 142.3 138.45 142.9 137.95 143.35 136.4 142.45 134.65 141.5 134.15 141.55 133.6 141.6 132.9 143 132.05 144.7 131 145.35 129.45 146.3 127 146.3 124.5 146.25 123.35 145.25 121.35 143.6 124.35 138.05 127.9 131.4 131 130.6 132.8 130.1 134.6 131.5
M 112.65 148.9
Q 114.05 150.15 113.65 151.45 113.3 152.7 111.3 153.4 109.35 154.05 108.4 153.2 107.5 152.35 108.05 150.45 108.65 148.5 109.95 148.1 111.25 147.65 112.65 148.9
M 138.15 158.35
Q 136.25 158.9 133.5 158.85 130.45 158.75 129.65 157.75 128.85 156.7 130.4 154.85 131.9 153 133.65 152.5 135.1 152.05 136.4 153.05 137.15 153.55 138.4 155.15 139.45 156.55 139.5 157.05 139.65 157.9 138.15 158.35 Z"/>

<path fill="#567728" stroke="none" d="
M 109.3 167.35
Q 109.3 167.409375 109.3 167.5 108.6 170.95 107.25 173.6 105.45 177.1 102.75 178.4 100.8 179.2 98.75 178.65 96.3 178 95.6 175.6 95.6 175.65 95.6 175.75 95.4 178.9 97.85 180.35 100.1 181.7 102.7 180.7 103 180.6 105.05 180.75 107.4 180.8 109 180.15 110 179.75 110.9 178.65 111.9 177.45 111.85 176.5 111.8 176.1 110.1 176.8 107.85 177.75 107.2 177.85 106.7 177.9 106.25 177.9 105.85 177.85 105.95 177.8 107.4 176.6 108.4 174 109.55 170.95 109.35 167.55 109.3025390625 167.4548828125 109.3 167.35
M 34.8 177.3
Q 35.7 176.9 36.6 176.5 39.85 174.95 42.7 173.45 43.75 174.85 44.7 176.1 51.95 185.25 54.05 185 56.5 184.65 54.05 171.2 64.3 174.75 65.85 173.2 66.9 172.25 64.3 169.7 63.55 168.95 62.5 168.1 61.3 167.1 60.15 166.45 59.2 165.9 58.25 165.55 56.15 164.8 53.05 164.65 56 161.85 56.85 160.7 57.65 159.65 58.05 158.35 58.05 158.3 58.1 158.3 58.4 157.65 58.4 157.2 58.4 157.15 58.4 157.05
L 58.35 157.1
Q 58.2 157.25 57.2 158.45 55.75 160.2 54.8 161 52.3 163.15 50.3 164.25 50.1 164.5 51.2 164.7 52.9 165.05 53.9 165.5 55.2 166 56.35 167 57.45 167.95 57.4 168.5 57.4 169.7 52.35 168.95
L 50.25 168.6 50.95 170.2
Q 51.55 172.3 51.15 174.95 50.95 176.15 47.25 172.85 43.35 169.35 42.85 169.95 41.65 171.4 34.6 174.95 27.1 178.7 23.75 179 23.65 179 23.55 179.25 23.35 179.5 23.2 180.1 22.9 181 23.2 181.2 23.25 181.2 23.35 181.2 24 181.2 25 181.05 28.25 180.35 34.8 177.3
M 166.75 171.9
Q 167.55 170.35 162.6 168 160.5 167 158.25 166.8 156.35 166.65 154.9 167.05 155.5 166.75 155.95 164.65 156.35 162.85 156.15 161.05 156.05 160.3 155.85 159.55 155.75 159.15 155.4 161.2 154.9 164.25 153.95 165.55 153.1 166.7 152.95 166.9 152.4 167.5 151.45 168.25
L 154.8 167.9
Q 158.5 167.9 160.5 169.35 161.2 169.9 159.25 170.15 156.7 170.4 155.6 170.5 154.9 170.55 152.75 170.3 150.95 170.1 151.15 170.2 153.45 171.7 155.25 174.65 156.9 177.45 156.3 177.45 154.15 177.45 150.85 175.55
L 147.95 173.65
Q 147.95 173.7 142.35 177.55 135.8 181.4 131 181.6 130.7 181.6 130.7 181.95 130.7 182.15 131.15 182.25 131.35 182.3 131.7 182.3 133.35 182.35 135 182.15 138.9 181.6 142.8 179.45 145.55 177.95 147.45 176.65 151.85 180.95 156.6 182.15 160.4 183.05 161.3 181.9 161.8 181.3 160.5 178.75 159.85 177.5 158.95 176.25 158.5 175.55 158 174.9 157.15 173.8 156.2 172.7 157.05 172.8 157.8 172.85 162.2 173.25 164.45 172.95 166.35 172.7 166.75 171.9 Z"/>

<path fill="#A17E18" stroke="none" d="
M 107.6 109.85
L 106.45 109.85
Q 101.15 110.35 99.15 110.05 97.1 109.75 96.15 109.85
L 97.25 109.85
Q 97.05 110.25 97.2 110.6 97.4 111.05 98.05 111.1 108.6 110.55 107.6 109.85
M 110.55 110
Q 110.65 110.05 110.75 110.1
L 110.6 110 110.55 110
M 78.05 134.95
Q 76.7 134.95 76.7 134.35 76.75 133.95 74.1 134.35 71.1 134.75 70.5 134.8 69.5 134.85 68.85 134.5 68.3 134.2 67.75 133.65
L 67.3 133.2
Q 67.4 132.7 66.9 131.8 66.65 131.25 66.55 130.95 66.50234375 130.99765625 66.5 131.1 66.5 131.2 66.5 131.3 66.5 131.35 66.55 131.65 66.65 132.1 66.9 133.15 67.25 134.9 67.25 135.7
L 67.6 136.25
Q 68.25 136.8 69.85 136.95 70.4 137 71.45 137.1 72.6 137.15 74.95 137.1 75.95 137.05 76.45 137.15 77.15 137.35 78.8 137.35 89.25 137.45 111.05 137.2 112.05 137.2 113.15 136.35 114.15 135.55 114.5 134.55 114.55 134.35 114.6 120.65 114.5 118.65 114.6 117.3 114.7 115.5 114.7 114.25 114.7 113.55 114.45 113.1 114.3 112.75 113.75 112.1 113.2 111.45 111.85 110.65
L 111.45 110.45 111.25 110.35
Q 111.55 110.55 111.8 110.8 112.75 111.75 112.75 113.05
L 112.75 114.3
Q 112.7 114.5 112.75 115.15 112.75 115.7 112.6 116
L 111.9 117.6
Q 111.5 120 112 119.9 112.6 119.85 112.35 122.2 112.35 122.7 112.65 124.2 112.9 125.5 112.85 126.75 112.65 132.6 112.55 132.7 112.2 133.65 111.4 134.25 110.55 134.85 109.5 134.85 88.35 135.1 78.05 134.95
M 66.9 113.2
Q 66.85 113.35 66.85 113.55
L 66.65 125.85
Q 66.75 125.35 67.3 125.3 67.75 125.25 67.75 123.75 67.75 123.05 67.5 122.35 67.35 121.9 67.55 121.1 67.7 120.55 67.85 119.2 67.9 118.45 68.2 118.45 68.35 118.4 68.2 117.15 68 115.8 67.55 114.3 67.5 113.95 67.15 113.6 66.95 113.35 66.9 113.2
M 83.75 129.35
L 86.6 129.35 86.6 126.7 83.75 126.7 83.75 129.35
M 93.95 126.7
L 93.95 129.35 96.75 129.35 96.75 126.7 93.95 126.7
M 91.85 117.25
L 88.65 117.25 88.65 129.35 91.85 129.35 91.85 117.25
M 106.9 122.8
L 106.9 120.4
Q 106.9 118.55 105.9 117.95 104.9 117.25 102 117.25
L 98.7 117.25 98.7 129.35 101.95 129.35 101.95 125.95 102.5 125.95
Q 104.95 125.95 105.9 125.25 106.9 124.55 106.9 122.8
M 103.65 120.25
L 103.65 122.85
Q 103.65 123.25 103.45 123.55 103.25 123.7 102.65 123.7
L 101.95 123.7 101.95 119.4 102.65 119.4
Q 103.25 119.4 103.45 119.6 103.65 119.8 103.65 120.25
M 80.6 117.95
Q 79.6 117.25 76.65 117.25
L 73.3 117.25 73.3 129.35 76.55 129.35 76.55 125.2 77.05 125.2
Q 77.8 125.2 78.05 125.45 78.3 125.65 78.3 126.3
L 78.3 129.35 81.5 129.35 81.5 126.2
Q 81.5 125.3 80.95 124.75 80.45 124.25 79.35 124.1 80.5 123.95 81.05 123.35 81.55 122.75 81.55 121.75
L 81.55 120.4
Q 81.55 118.55 80.6 117.95
M 76.55 119.4
L 77.3 119.4
Q 77.95 119.4 78.15 119.6 78.35 119.75 78.35 120.25
L 78.35 122.3
Q 78.35 122.8 78.15 122.95 77.85 123.15 77.3 123.15
L 76.55 123.15 76.55 119.4
M 59.4 41.6
Q 59.625 41.3 59.85 41 57.5861328125 43.622265625 55.9 46.85 54.7 49.15 54.1 51.15 54.2 50.9 54.35 50.85 55.75 50.45 56.25 49.55 57.6 47 57.95 46.5 58.95 45.15 59.05 43.55 59 42.15 59.1 42 59.2 41.8 59.4 41.6
M 109.05 43.3
Q 100.45 34.7 88.25 34.7 76.05 34.7 67.45 43.3 58.8 51.9 58.8 64.1 58.8 76.3 67.45 84.95 68.5 86 69.65 86.95 70.45 88.05 70.2 88.65 70.75 88.95 71.9 88.65 72.45 89.05 73 89.4
L 73 90.2
Q 73.95 90.9 75.7 91.35 76.7 91.6 78.7 92.05
L 80.05 92.65
Q 81.5 93.35 82.05 93.95 82.45 94.45 83 93.75 83.25 93.4 83.45 93.2 85.75 93.55 88.25 93.55 100.45 93.55 109.05 84.95 117.7 76.3 117.7 64.1 117.7 60.8 117.1 57.75
L 117.1 57.7
Q 118.05 56.35 118.35 56
L 121.25 55.4
Q 121.45 55.15 119.95 54.9 118.55 54.7 117.9 54.75
L 116.35 55
Q 114.25 48.5 109.05 43.3
M 88.4 41.9
Q 88.75 41.5 89.3 41.5
L 91.8 41.5
Q 92.1 41.5 92.35 41.65 94 41.9 94.65 42.55 95.25 43.15 95.25 44.45
L 95.25 46.25
Q 96.1 46.4 96.9 46.6 96.95 46.75 97.1 46.9 97.45 47.2 98.15 47.6 98.55 47.95 99.1 47.65 99.15 47.6 99.2 47.6
L 99.25 47.55
Q 103 49.25 104.1 53.65 104.8 56.2 104.05 58.6 103.3 61 101.5 62.1 108.5 67.25 106.55 74.75 104.55 82.4 95.2 82.9
L 95.25 85.1
Q 95.3 86.2 94.5 86.45 94.15 86.6 92.75 86.6
L 90.95 86.55
Q 89.85 86.55 89.8 86.55 89 86.45 88.5 85.9 88.2 85.55 88.05 84.7
L 88.05 84.6
Q 88 84.45 88 84.25
L 88 82.75 87.45 82.7 87.45 84.35
Q 87.5 85.9 87.05 86.3 86.65 86.6 84.95 86.6
L 82.7 86.55
Q 81.95 86.55 81.25 85.95 80.5 85.35 80.35 84.5 80.3 84.3 80.35 84.1
L 80.35 82.75
Q 77.4 82.8 76.5 82.7 75.15 82.6 74.65 82 74.4 81.65 74.2 81.4 73.85 80.9 73.85 80.65 73.85 80.6 73.85 80.55 73.7 80.15 73.65 79.4 73.55 78.65 73.65 77.85 73.7 76.7 74.45 76.55 74.95 76.45 76.8 76.55 77.05 76.55 77.05 76.25
L 77.05 68.35
Q 77.35 68.1 77.45 66.5 77.55 64.95 77.45 64.75 77.2 64.4 77.05 64.15
L 77.05 64.1
Q 76.9 63.9 76.8 63.8
L 76.6 60.3
Q 76.8 59.45 76.85 58.9 77 57.95 76.95 55.95
L 76.95 55.9 77.1 55.3 77.1 52.25
Q 75.45 52.15 74.9 51.65 73.4 50.4 73.65 48.45 73.65 48.35 73.65 48.2 73.7 46.9 73.95 46.5 74.35 45.95 75.55 45.9
L 80.35 45.85 80.35 42.85
Q 80.35 42.3 80.7 41.9 81.1 41.5 81.65 41.5
L 84.1 41.5
Q 84.35 41.5 84.55 41.6 85.95 41.75 86.6 42.25 87.3 42.8 87.35 44.15
L 87.4 45.8 88 45.8 88 42.85
Q 88 42.3 88.4 41.9
M 96.75 71.15
Q 96.7 69.05 95.45 67.7 95.15 67.6 94.9 67.5 91.65 66.35 87.8 67.05
L 87.7 76.95 88.95 76.95
Q 92.2 76.95 94.3 75.7 96.85 74.2 96.75 71.15
M 94.95 52.6
Q 94.2 52.2 93.25 51.9 89.45 50.75 87.7 51.75
L 87.7 61.05 88 61.05
Q 91.25 61.05 93.3 59.9 95.85 58.45 95.85 55.35 95.85 53.7 94.95 52.6
M 94.6 27.9
Q 93.85 27.8 93.1 27.75 97.95 28.4 102.45 30.3 108.95 33.05 114.05 38.1 119.05 43.15 121.85 49.7 124.7 56.45 124.7 63.85 124.7 71.25 121.85 78.05 119.1 84.55 114.05 89.65 108.95 94.7 102.45 97.45 95.7 100.3 88.25 100.3 80.85 100.3 74.05 97.45 67.5 94.7 62.5 89.65 57.45 84.55 54.7 78.05 52.90625 73.85 52.2 69.4 54.0517578125 84.045703125 64.5 93.2 75.6 102.95 91.3 102.7 106.4 102.5 116.65 93.3 128.3 82.95 128.35 65 128.35 57.4 125.35 50.45 122.45 43.75 117.15 38.6 111.85 33.45 105 30.6 99.95 28.5 94.6 27.9 Z"/>

<path fill="#577C21" stroke="none" d="
M 41.2 182.8
Q 41.6 182.85 42.7 181.05 44 179 44.55 176.8 44.65 176.45 44.7 176.1 43.75 174.85 42.7 173.45 39.85 174.95 36.6 176.5 36.9 182.25 41.2 182.8
M 47.8 160
Q 48.35 159.4 49.05 158.95 49.95 155.75 49.55 151.95 48.85 145.45 46.8 144.4 46.05 144 44.95 149.1 44 153.7 42.35 157.4 44 159.35 46.05 162.4 46.5 161.35 47.8 160
M 28.05 165.9
Q 27.05 166.25 25.9 166.7 17.8 169.9 19.4 170.9 21.2 172 23.05 172.55 25.1 173.2 27.2 173.15 29.55 170.95 35.45 167.05 30.8 166.65 28.05 165.9
M 36.25 155.1
Q 34.75 153.9 32.85 153.2 28.55 151.6 26.05 152.8 25.6 153.05 27.4 154.45 29.9 156.35 30.25 158.8 30.4 159.9 30.65 160.8 32.05 160.55 32.7 160.6 34.8 160.7 37.9 162.1 36.2 157.2 36.25 155.1 Z"/>

<path fill="#50443D" stroke="none" d="
M 66.3 168.95
Q 66.35 169.9 66.4 170.6 68.4 171.45 69.8 171.55 71.85 171.75 74.4 170.8 74.6 170.75 74.85 170.65 74.7 170.4 74.65 170.15 74.2 168.05 73.45 166.6 69.5 167.35 66.3 168.95
M 165.5 162.3
Q 166.7 162.7 167.85 163.35 165.55 160.65 162.95 159.15 161.35 158.25 159.15 157.65
L 159.2 161.1
Q 162.7 161.3 165.5 162.3 Z"/>

<path fill="#919EA0" stroke="none" d="
M 63.5 150
Q 62.85 154.2 64.8 160.25 65.9 163.75 66.25 168.25 66.3 168.6 66.3 168.95 69.5 167.35 73.45 166.6 73.4 166.55 73.4 166.5 72.05 164.1 64.45 151.95 64.3 149.65 64.15 147.35 63.85 148.65 63.5 150
M 149.2 33.05
Q 142.3 23.6 127.4 18.25 112.6 12.95 95.6 13.75 114.4 15 126.6 25.25 142.3 38.4 142.3 63.45
L 142.3 99.7 133.55 104.5 130.25 101.15 120.4 105.85 130.1 103.3 134.2 107.25 142.3 106.2 142.3 149.7
Q 142.3 152.5 142.65 162.85 142.65 163 142.65 163.15 143.4 163.95 144.4 165 145.5 164.35 146.4 163.85 149.15 162.3 151.65 161.7 153.2 159.55 153.9 158.7 155.4 157 155.75 158.95 155.8 159.25 155.85 159.55 156.05 160.3 156.15 161.05 157.6 161 159.15 161.1
L 159.2 161.1 159.15 157.65 158.8 145.65 158.8 88.1
Q 158.7875 88.7828125 157.2 86.6 155.65 84.5 155.95 82.95 156.25 81.6 156.45 79 156.7 76.15 156.45 76.15 155.95 76.2 155.7 75.95 155.6 75.85 155.1 75.15 152.75 71.8 155.75 62.35 156.95 58.5 157.8 59 157.3 55 156.5 51.3 154 39.65 149.2 33.05 Z"/>

<path fill="#6E9D1C" stroke="none" d="
M 25 181.05
Q 24 181.2 23.35 181.2 23.25 181.2 23.2 181.2 23.55 181.45 25 181.05
M 32.7 160.6
Q 32.05 160.55 30.65 160.8 30.1 160.85 29.4 161 22.75 162.25 24.65 164.25 25.55 165.2 28.05 165.9 30.8 166.65 35.45 167.05 29.55 170.95 27.2 173.15 26.75 173.5 26.45 173.85 24.6 175.9 23.55 179.25 23.65 179 23.75 179 27.1 178.7 34.6 174.95 41.65 171.4 42.85 169.95 43.35 169.35 47.25 172.85 50.95 176.15 51.15 174.95 51.55 172.3 50.95 170.2
L 50.25 168.6 52.35 168.95
Q 57.4 169.7 57.4 168.5 57.45 167.95 56.35 167 55.2 166 53.9 165.5 52.9 165.05 51.2 164.7 50.1 164.5 50.3 164.25 52.3 163.15 54.8 161 55.75 160.2 57.2 158.45 58.2 157.25 58.35 157.1 58.1 155.95 54.95 156.5 51.4 157.15 49.05 158.95 48.35 159.4 47.8 160 46.5 161.35 46.05 162.4 44 159.35 42.35 157.4 39.9 154.4 38.25 153.7 37.95 153.55 37.65 153.5 36.3 153.2 36.25 155.1 36.2 157.2 37.9 162.1 34.8 160.7 32.7 160.6 Z"/>

<path fill="#ADC1C3" stroke="none" d="
M 66.55 131.65
L 66.65 132.7
Q 66.75 134.7 66.6 136.4 66.5 136.9 66.9 137.55 67.35 138.25 68.25 138.65 69.05 139 70.15 139.45 71 139.8 71.55 139.8 78.4 139.7 90.1 139.75 99.25 139.75 111.35 139.9 112.6 139.9 114.55 139 116.6 138 116.95 137 117.6 134.95 117.2 126.55 116.65 117.4 116.65 114.9 116.65 113.45 114.5 111.8 113.1 110.75 111.45 110.45
L 111.85 110.65
Q 113.2 111.45 113.75 112.1 114.3 112.75 114.45 113.1 114.7 113.55 114.7 114.25 114.7 115.5 114.6 117.3 114.5 118.65 114.6 120.65 114.55 134.35 114.5 134.55 114.15 135.55 113.15 136.35 112.05 137.2 111.05 137.2 89.25 137.45 78.8 137.35 77.15 137.35 76.45 137.15 75.95 137.05 74.95 137.1 72.6 137.15 71.45 137.1 70.4 137 69.85 136.95 68.25 136.8 67.6 136.25
L 67.25 135.7
Q 67.25 134.9 66.9 133.15 66.65 132.1 66.55 131.65
M 66.5 130.9
Q 66.5 130.95 66.5 131
L 66.5 131.1
Q 66.50234375 130.99765625 66.55 130.95
L 66.5 130.9
M 98.9 28.3
Q 96.65 27.95 94.6 27.9 99.95 28.5 105 30.6 111.85 33.45 117.15 38.6 122.45 43.75 125.35 50.45 128.35 57.4 128.35 65 128.3 82.95 116.65 93.3 106.4 102.5 91.3 102.7 75.6 102.95 64.5 93.2 54.0517578125 84.045703125 52.2 69.4
L 51.9 66.7
Q 51.65 70.2 52.55 74.3 53.35 77.95 54.95 81.55 54.95 81.65 55.05 81.8 55.9 83.8 57 85.8 60.7 92.55 65.8 96.9 71 101.35 78.5 103.85 84.1 105.75 90.1 106.3 91.35 106.4 92.65 106.45 106.5 107.05 116.65 100.45 121.4 97.4 125.1 92.8 128.65 88.4 130.75 83.2 134.9 72.95 132.8 61.4 131.7 55.15 129.15 49.8 126.2 43.75 121.7 39.45 117.15 35.1 110.7 32.05 104.7 29.2 98.9 28.3 Z"/>

<path fill="#FFCE24" stroke="none" d="
M 66.85 113.05
Q 66.85 113.1 66.9 113.2 66.95 113.35 67.15 113.6 67.5 113.95 67.55 114.3 68 115.8 68.2 117.15 68.35 118.4 68.2 118.45 67.9 118.45 67.85 119.2 67.7 120.55 67.55 121.1 67.35 121.9 67.5 122.35 67.75 123.05 67.75 123.75 67.75 125.25 67.3 125.3 66.75 125.35 66.65 125.85
L 66.65 126
Q 66.55 126.75 66.45 130.7 66.45 130.75 66.5 130.9
L 66.55 130.95
Q 66.65 131.25 66.9 131.8 67.4 132.7 67.3 133.2
L 67.75 133.65
Q 68.3 134.2 68.85 134.5 69.5 134.85 70.5 134.8 71.1 134.75 74.1 134.35 76.75 133.95 76.7 134.35 76.7 134.95 78.05 134.95 88.35 135.1 109.5 134.85 110.55 134.85 111.4 134.25 112.2 133.65 112.55 132.7 112.65 132.6 112.85 126.75 112.9 125.5 112.65 124.2 112.35 122.7 112.35 122.2 112.6 119.85 112 119.9 111.5 120 111.9 117.6
L 112.6 116
Q 112.75 115.7 112.75 115.15 112.7 114.5 112.75 114.3
L 112.75 113.05
Q 112.75 111.75 111.8 110.8 111.55 110.55 111.25 110.35
L 110.75 110.1
Q 110.65 110.05 110.55 110 110.05 109.85 109.5 109.85
L 107.6 109.85
Q 108.6 110.55 98.05 111.1 97.4 111.05 97.2 110.6 97.05 110.25 97.25 109.85
L 96.15 109.85 90.1 109.85 85 109.85
Q 76.4 109.4 72.2 109.65 69.35 109.8 68.15 110.5 66.85 111.3 66.85 113.05
M 76.65 117.25
Q 79.6 117.25 80.6 117.95 81.55 118.55 81.55 120.4
L 81.55 121.75
Q 81.55 122.75 81.05 123.35 80.5 123.95 79.35 124.1 80.45 124.25 80.95 124.75 81.5 125.3 81.5 126.2
L 81.5 129.35 78.3 129.35 78.3 126.3
Q 78.3 125.65 78.05 125.45 77.8 125.2 77.05 125.2
L 76.55 125.2 76.55 129.35 73.3 129.35 73.3 117.25 76.65 117.25
M 106.9 120.4
L 106.9 122.8
Q 106.9 124.55 105.9 125.25 104.95 125.95 102.5 125.95
L 101.95 125.95 101.95 129.35 98.7 129.35 98.7 117.25 102 117.25
Q 104.9 117.25 105.9 117.95 106.9 118.55 106.9 120.4
M 88.65 117.25
L 91.85 117.25 91.85 129.35 88.65 129.35 88.65 117.25
M 93.95 129.35
L 93.95 126.7 96.75 126.7 96.75 129.35 93.95 129.35
M 86.6 129.35
L 83.75 129.35 83.75 126.7 86.6 126.7 86.6 129.35
M 103.65 122.85
L 103.65 120.25
Q 103.65 119.8 103.45 119.6 103.25 119.4 102.65 119.4
L 101.95 119.4 101.95 123.7 102.65 123.7
Q 103.25 123.7 103.45 123.55 103.65 123.25 103.65 122.85
M 77.3 119.4
L 76.55 119.4 76.55 123.15 77.3 123.15
Q 77.85 123.15 78.15 122.95 78.35 122.8 78.35 122.3
L 78.35 120.25
Q 78.35 119.75 78.15 119.6 77.95 119.4 77.3 119.4
M 90.1 27.5
Q 89.2 27.45 88.25 27.45 80.85 27.45 74.05 30.3 67.5 33.05 62.5 38.1 61.1 39.5 60.05 40.8
L 59.85 41
Q 59.625 41.3 59.4 41.6 59.2 41.8 59.1 42 59 42.15 59.05 43.55 58.95 45.15 57.95 46.5 57.6 47 56.25 49.55 55.75 50.45 54.35 50.85 54.2 50.9 54.1 51.15 53.95 51.35 53.8 51.8 53.65 52.25 53.5 52.85 51.8 58.2 51.8 63.85 51.8 64 51.8 64.15
L 51.8 64.7
Q 51.8 64.85 51.8 65 51.8 65.45 51.85 65.85
L 51.9 66.7 52.2 69.4
Q 52.90625 73.85 54.7 78.05 57.45 84.55 62.5 89.65 67.5 94.7 74.05 97.45 80.85 100.3 88.25 100.3 95.7 100.3 102.45 97.45 108.95 94.7 114.05 89.65 119.1 84.55 121.85 78.05 124.7 71.25 124.7 63.85 124.7 56.45 121.85 49.7 119.05 43.15 114.05 38.1 108.95 33.05 102.45 30.3 97.95 28.4 93.1 27.75 91.6 27.55 90.1 27.5
M 81.25 30.6
Q 82.05 31.3 81.05 32.35 80.25 33.25 77.75 34.6 76.3 35.35 73.05 37 68.45 39.5 65.85 41.6 65 42.3 63.7 43.35 62.7 44.1 62.1 44.3 61.3 44.55 60.9 44.15 60.45 43.65 60.9 42.45 61.45 40.95 63 39.1 64.75 36.85 67.15 35.1 69.7 33.25 72.95 31.85 76 30.5 78.3 30.2 80.45 29.9 81.25 30.6
M 88.25 34.7
Q 100.45 34.7 109.05 43.3 114.25 48.5 116.35 55
L 117.9 54.75
Q 118.55 54.7 119.95 54.9 121.45 55.15 121.25 55.4
L 118.35 56
Q 118.05 56.35 117.1 57.7
L 117.1 57.75
Q 117.7 60.8 117.7 64.1 117.7 76.3 109.05 84.95 100.45 93.55 88.25 93.55 85.75 93.55 83.45 93.2 83.25 93.4 83 93.75 82.45 94.45 82.05 93.95 81.5 93.35 80.05 92.65
L 78.7 92.05
Q 76.7 91.6 75.7 91.35 73.95 90.9 73 90.2
L 73 89.4
Q 72.45 89.05 71.9 88.65 70.75 88.95 70.2 88.65 70.45 88.05 69.65 86.95 68.5 86 67.45 84.95 58.8 76.3 58.8 64.1 58.8 51.9 67.45 43.3 76.05 34.7 88.25 34.7
M 89.3 41.5
Q 88.75 41.5 88.4 41.9 88 42.3 88 42.85
L 88 45.8 87.4 45.8 85.4 45.85 85.4 42.85
Q 85.4 42.3 85.05 41.9 84.85 41.7 84.55 41.6 84.35 41.5 84.1 41.5
L 81.65 41.5
Q 81.1 41.5 80.7 41.9 80.35 42.3 80.35 42.85
L 80.35 45.85 75.55 45.9
Q 74.35 45.95 73.95 46.5 73.7 46.9 73.65 48.2 73.65 48.35 73.65 48.45 73.65 50.15 74.25 50.5 74.6 50.65 77.1 50.7
L 77.1 52.25 77.1 55.3 76.95 55.9 76.95 55.95
Q 77 57.95 76.85 58.9 76.8 59.45 76.6 60.3
L 76.8 63.8
Q 76.9 63.9 77.05 64.1
L 77.05 64.15
Q 77.2 64.4 77.45 64.75 77.55 64.95 77.45 66.5 77.35 68.1 77.05 68.35
L 77.05 76.25
Q 77.05 76.55 76.8 76.55 74.95 76.45 74.45 76.55 73.7 76.7 73.65 77.85 73.55 78.65 73.65 79.4 73.7 80.15 73.85 80.55 74 80.85 74.2 80.95 74.6 81.1 77.85 81.1
L 80.35 81.1 80.35 82.75 80.35 84.1 80.35 84.25
Q 80.35 84.8 80.7 85.2 81.1 85.55 81.65 85.55
L 84.1 85.55
Q 84.65 85.55 85.05 85.2 85.4 84.8 85.4 84.25
L 85.4 81.1 88 81.1 88 82.75 88 84.25
Q 88 84.45 88.05 84.6 88.15 84.95 88.4 85.2 88.75 85.55 89.3 85.55
L 91.8 85.55
Q 92.35 85.55 92.7 85.2 93.1 84.8 93.1 84.25
L 93.1 81
Q 96.65 80.7 99.1 79.6
L 99.2 78.65 100.75 78.05 101.8 77.8
Q 104.05 75.45 104.2 71.5 104.35 67.95 102.45 65.45 100.45 62.8 96.9 62.25
L 96.9 61.8
Q 99.75 60.8 101.25 58.9 102.85 56.9 102.75 54.15 102.6 49.95 99.7 47.9 99.45 47.75 99.2 47.6 99.15 47.6 99.1 47.65 98.55 47.95 98.15 47.6 97.45 47.2 97.1 46.9 96.95 46.75 96.9 46.6 96.1 46.4 95.25 46.25 94.25 46.05 93.1 45.95
L 93.1 42.85
Q 93.1 42.3 92.7 41.9 92.55 41.7 92.35 41.65 92.1 41.5 91.8 41.5
L 89.3 41.5
M 81.45 42.1
Q 82.05 42 82.1 42.5 82.25 43 81.95 44.15 81.65 45.2 81.45 45.3 81.1 45.5 80.85 44.65 80.65 43.6 80.9 42.8 81.05 42.1 81.45 42.1
M 94.95 52.6
Q 95.85 53.7 95.85 55.35 95.85 58.45 93.3 59.9 91.25 61.05 88 61.05
L 87.7 61.05 85.4 61.05 85.4 50.55
Q 89.65 49.8 92.6 50.95 94.15 51.55 94.95 52.6
M 95.45 67.7
Q 96.7 69.05 96.75 71.15 96.85 74.2 94.3 75.7 92.2 76.95 88.95 76.95
L 87.7 76.95 85.3 76.95
Q 85.25 69.45 85.3 65.65 89.95 64.9 93.1 66.2 94.55 66.75 95.45 67.7
M 74.75 47.65
Q 74.05 47.5 74.15 47 74.35 46.55 74.95 46.35 75.4 46.25 76.85 46.25 78.6 46.25 79.1 46.45 79.5 46.55 79.6 46.8 79.65 47 79.4 47.25 78.8 47.65 77.25 47.8 75.45 47.9 74.75 47.65 Z"/>

<path fill="#D9E6E8" stroke="none" d="
M 49.45 79.25
L 42.6 80.55 38.15 79.95 38.25 153.45
Q 38.25 153.55 38.25 153.7 39.9 154.4 42.35 157.4 44 153.7 44.95 149.1 46.05 144 46.8 144.4 48.85 145.45 49.55 151.95 49.95 155.75 49.05 158.95 51.4 157.15 54.95 156.5 58.1 155.95 58.35 157.1
L 58.4 157.05
Q 58.4 157.15 58.4 157.2 58.4 157.65 58.1 158.3 58.05 158.3 58.05 158.35 57.65 159.65 56.85 160.7 56 161.85 53.05 164.65 56.15 164.8 58.25 165.55 59.2 165.9 60.15 166.45 59.65 157.3 58.8 152.05
L 62.75 134.15
Q 63.15 134.85 63.85 143.5 64 145.45 64.15 147.35 64.3 149.65 64.45 151.95 72.05 164.1 73.4 166.5 73.4 166.55 73.45 166.6 74.2 168.05 74.65 170.15 74.7 170.4 74.85 170.65 76.05 170.15 78.05 169.15 80.1 168.05 80.95 167.8 82.5 167.4 83.55 167.65 84.15 167 84.8 167.15 88.4 168.1 88.3 169.7 88.3 169.8 88.3 169.95 88.85 169.8 89.25 168.9 89.75 167.75 89.95 167.5 90 167.4 90.1 167.35
L 90.1 139.75
Q 78.4 139.7 71.55 139.8 71 139.8 70.15 139.45 69.05 139 68.25 138.65 67.35 138.25 66.9 137.55 66.5 136.9 66.6 136.4 66.75 134.7 66.65 132.7
L 66.55 131.65
Q 66.5 131.35 66.5 131.3 66.5 131.2 66.5 131.1
L 66.5 131
Q 66.5 130.95 66.5 130.9 66.45 130.75 66.45 130.7 66.55 126.75 66.65 126
L 66.65 125.85 66.85 113.55
Q 66.85 113.35 66.9 113.2 66.85 113.1 66.85 113.05 66.85 111.3 68.15 110.5 69.35 109.8 72.2 109.65 76.4 109.4 85 109.85
L 90.1 109.85 90.1 106.3
Q 84.1 105.75 78.5 103.85 71 101.35 65.8 96.9 60.7 92.55 57 85.8 55.9 83.8 55.05 81.8
L 49.45 79.25
M 45.6 120.9
Q 44.9 121.95 43.35 120.85 41.65 119.7 43.15 116.25 43.95 114.45 45.15 116.4 45.6 117.15 45.8 118.75 45.95 120.4 45.6 120.9
M 48.35 124.6
Q 50.7 124.15 51.5 126.45 52.35 128.75 48.8 129.45 48.55 129.5 47.25 131.6 46.25 133.2 45.15 131.85 43.85 130.2 45.05 127.55 46.25 124.95 48.35 124.6
M 90.1 13.7
Q 88.55 13.55 87.8 13.6 86.65 13.65 85.55 13.7
L 71 16.15 55.65 23.85
Q 53.9 25.15 52.35 26.6 51.8 27.1 51.3 27.65
L 48.25 31
Q 38.15 43.5 38.15 63.45
L 38.15 70.45 42.5 76.05 49.95 77.1 54.95 81.55
Q 53.35 77.95 52.55 74.3 51.65 70.2 51.9 66.7
L 51.85 65.85
Q 51.8 65.45 51.8 65 51.8 64.85 51.8 64.7
L 51.8 64.15
Q 51.8 64 51.8 63.85 51.8 58.2 53.5 52.85 53.65 52.25 53.8 51.8 53.95 51.35 54.1 51.15 54.7 49.15 55.9 46.85 57.5861328125 43.622265625 59.85 41
L 60.05 40.8
Q 61.1 39.5 62.5 38.1 67.5 33.05 74.05 30.3 80.85 27.45 88.25 27.45 89.2 27.45 90.1 27.5
L 90.1 13.7 Z"/>

<path fill="#C6DBDD" stroke="none" d="
M 51.5 126.45
Q 50.7 124.15 48.35 124.6 46.25 124.95 45.05 127.55 43.85 130.2 45.15 131.85 46.25 133.2 47.25 131.6 48.55 129.5 48.8 129.45 52.35 128.75 51.5 126.45
M 43.35 120.85
Q 44.9 121.95 45.6 120.9 45.95 120.4 45.8 118.75 45.6 117.15 45.15 116.4 43.95 114.45 43.15 116.25 41.65 119.7 43.35 120.85 Z"/>

<path fill="#7B8B8E" stroke="none" d="
M 157.8 59
Q 156.95 58.5 155.75 62.35 152.75 71.8 155.1 75.15 155.6 75.85 155.7 75.95 155.95 76.2 156.45 76.15 156.7 76.15 156.45 79 156.25 81.6 155.95 82.95 155.65 84.5 157.2 86.6 158.7875 88.7828125 158.8 88.1 159.3 77.9 158.6 67.8
L 158.45 65.15
Q 158.2 62 157.8 59 Z"/>

<path fill="#FCE591" stroke="none" d="
M 73.85 80.55
Q 73.85 80.6 73.85 80.65 73.85 80.9 74.2 81.4 74.4 81.65 74.65 82 75.15 82.6 76.5 82.7 77.4 82.8 80.35 82.75
L 80.35 81.1 77.85 81.1
Q 74.6 81.1 74.2 80.95 74 80.85 73.85 80.55
M 77.1 52.25
L 77.1 50.7
Q 74.6 50.65 74.25 50.5 73.65 50.15 73.65 48.45 73.4 50.4 74.9 51.65 75.45 52.15 77.1 52.25
M 81.25 85.95
Q 81.95 86.55 82.7 86.55
L 84.95 86.6
Q 86.65 86.6 87.05 86.3 87.5 85.9 87.45 84.35
L 87.45 82.7 88 82.75 88 81.1 85.4 81.1 85.4 84.25
Q 85.4 84.8 85.05 85.2 84.65 85.55 84.1 85.55
L 81.65 85.55
Q 81.1 85.55 80.7 85.2 80.35 84.8 80.35 84.25
L 80.35 84.1
Q 80.3 84.3 80.35 84.5 80.5 85.35 81.25 85.95
M 99.2 47.6
Q 99.45 47.75 99.7 47.9 102.6 49.95 102.75 54.15 102.85 56.9 101.25 58.9 99.75 60.8 96.9 61.8
L 96.9 62.25
Q 100.45 62.8 102.45 65.45 104.35 67.95 104.2 71.5 104.05 75.45 101.8 77.8
L 100.75 78.05 99.2 78.65 99.1 79.6
Q 96.65 80.7 93.1 81
L 93.1 84.25
Q 93.1 84.8 92.7 85.2 92.35 85.55 91.8 85.55
L 89.3 85.55
Q 88.75 85.55 88.4 85.2 88.15 84.95 88.05 84.6
L 88.05 84.7
Q 88.2 85.55 88.5 85.9 89 86.45 89.8 86.55 89.85 86.55 90.95 86.55
L 92.75 86.6
Q 94.15 86.6 94.5 86.45 95.3 86.2 95.25 85.1
L 95.2 82.9
Q 104.55 82.4 106.55 74.75 108.5 67.25 101.5 62.1 103.3 61 104.05 58.6 104.8 56.2 104.1 53.65 103 49.25 99.25 47.55
L 99.2 47.6
M 92.35 41.65
Q 92.55 41.7 92.7 41.9 93.1 42.3 93.1 42.85
L 93.1 45.95
Q 94.25 46.05 95.25 46.25
L 95.25 44.45
Q 95.25 43.15 94.65 42.55 94 41.9 92.35 41.65
M 84.55 41.6
Q 84.85 41.7 85.05 41.9 85.4 42.3 85.4 42.85
L 85.4 45.85 87.4 45.8 87.35 44.15
Q 87.3 42.8 86.6 42.25 85.95 41.75 84.55 41.6
M 74.15 47
Q 74.05 47.5 74.75 47.65 75.45 47.9 77.25 47.8 78.8 47.65 79.4 47.25 79.65 47 79.6 46.8 79.5 46.55 79.1 46.45 78.6 46.25 76.85 46.25 75.4 46.25 74.95 46.35 74.35 46.55 74.15 47
M 95.45 67.7
Q 94.55 66.75 93.1 66.2 89.95 64.9 85.3 65.65 85.25 69.45 85.3 76.95
L 87.7 76.95 87.8 67.05
Q 91.65 66.35 94.9 67.5 95.15 67.6 95.45 67.7
M 93.25 51.9
Q 94.2 52.2 94.95 52.6 94.15 51.55 92.6 50.95 89.65 49.8 85.4 50.55
L 85.4 61.05 87.7 61.05 87.7 51.75
Q 89.45 50.75 93.25 51.9
M 82.1 42.5
Q 82.05 42 81.45 42.1 81.05 42.1 80.9 42.8 80.65 43.6 80.85 44.65 81.1 45.5 81.45 45.3 81.65 45.2 81.95 44.15 82.25 43 82.1 42.5
M 81.05 32.35
Q 82.05 31.3 81.25 30.6 80.45 29.9 78.3 30.2 76 30.5 72.95 31.85 69.7 33.25 67.15 35.1 64.75 36.85 63 39.1 61.45 40.95 60.9 42.45 60.45 43.65 60.9 44.15 61.3 44.55 62.1 44.3 62.7 44.1 63.7 43.35 65 42.3 65.85 41.6 68.45 39.5 73.05 37 76.3 35.35 77.75 34.6 80.25 33.25 81.05 32.35 Z"/>

<path fill="#B2C6C8" stroke="none" d="
M 133.5 158.85
Q 136.25 158.9 138.15 158.35 139.65 157.9 139.5 157.05 139.45 156.55 138.4 155.15 137.15 153.55 136.4 153.05 135.1 152.05 133.65 152.5 131.9 153 130.4 154.85 128.85 156.7 129.65 157.75 130.45 158.75 133.5 158.85
M 113.65 151.45
Q 114.05 150.15 112.65 148.9 111.25 147.65 109.95 148.1 108.65 148.5 108.05 150.45 107.5 152.35 108.4 153.2 109.35 154.05 111.3 153.4 113.3 152.7 113.65 151.45
M 137.4 135.2
Q 136.25 132.75 134.6 131.5 132.8 130.1 131 130.6 127.9 131.4 124.35 138.05 121.35 143.6 123.35 145.25 124.5 146.25 127 146.3 129.45 146.3 131 145.35 132.05 144.7 132.9 143 133.6 141.6 134.15 141.55 134.65 141.5 136.4 142.45 137.95 143.35 138.45 142.9 139.15 142.3 138.85 139.9 138.5 137.45 137.4 135.2 Z"/>
</g>
</defs>

<g transform="matrix( 1, 0, 0, 1, 0,0) ">
<g transform="matrix( 1, 0, 0, 1, 0,0) ">
<g transform="matrix( 1, 0, 0, 1, 0,0) ">
<use filter="url(#Filter_1)" xlink:href="#Symbol_1_0_Layer0_0_FILL"/>
</g>
</g>

<g transform="matrix( 1, 0, 0, 1, 0,0) ">
<use xlink:href="#stiker_222222_copy_13_0_Layer5_0_FILL"/>
</g>
</g>
</svg>
