
<svg xmlns="http://www.w3.org/2000/svg" version="1.1" xmlns:xlink="http://www.w3.org/1999/xlink" preserveAspectRatio="none" x="0px" y="0px" width="200px" height="200px" viewBox="0 0 200 200">
<defs>
<radialGradient id="Gradient_1" gradientUnits="userSpaceOnUse" cx="0" cy="0" r="35.22500000000001" fx="0" fy="0" gradientTransform="matrix( 0.9999999999999999, 0, 0, -0.9999999999999999, 95.55,101.8) " spreadMethod="pad">
<stop  offset="0%" stop-color="#FFB514"/>

<stop  offset="78.43137254901961%" stop-color="#F9B113"/>

<stop  offset="95.68627450980392%" stop-color="#996F01"/>

<stop  offset="100%" stop-color="#916A00"/>
</radialGradient>

<linearGradient id="Gradient_2" gradientUnits="userSpaceOnUse" x1="78.6625" y1="100.85" x2="115.9375" y2="100.85" spreadMethod="pad">
<stop  offset="52.94117647058823%" stop-color="#FFEC47"/>

<stop  offset="100%" stop-color="#FAC800"/>
</linearGradient>

<filter id="Filter_1" x="-20%" y="-20%" width="140%" height="140%" color-interpolation-filters="sRGB">
<feColorMatrix in="SourceGraphic" type="matrix" values="1 0 0 0 0 0 1 0 0 0 0 0 1 0 0 0 0 0 0 0" result="result1"/>
</filter>

<g id="Symbol_1_0_Layer0_0_FILL">
<path fill="#93A2AE" fill-opacity="0" stroke="none" d="
M 0 0
L 0 200 200 200 200 0 0 0 Z"/>
</g>

<g id="stiker_222222_copy_12_0_Layer5_0_FILL">
<path fill="#4E4E4D" stroke="none" d="
M 178.6 49.4
Q 178.6 38.65 172.75 32.8 166.85 26.9 156.15 26.9
L 40.9 26.9
Q 30.25 26.9 24.45 32.9 19.55 38.05 19 47.45 13.2 50 9.3 53.95 3.4 60.05 2.55 68.35 1.6 77.2 4 85.6 5.95 92.55 10.1 98.6 9.85 101.25 10.65 103.9 11.4 106.5 13.15 108.65
L 12.8 134.5
Q 12.6 135.45 12.6 136.05
L 12.6 172.55
Q 12.6 175.3 14.55 177.25 16.5 179.15 19.25 179.15
L 176.4 179.15
Q 179.15 179.15 181.05 177.25 183 175.3 183 172.55
L 183 154.35 184.3 110.75
Q 186.25 107.6 186.4 103.9 191.2 98.5 193.95 91.8 197.3 83.85 197.35 74.75 197.45 65.1 190.7 57.9 185.95 52.8 178.6 49.85
L 178.6 49.4
M 172.1 33.45
Q 177.65 39.1 177.65 49.4
L 177.65 50.5
Q 185.05 53.3 190 58.5 196.45 65.4 196.4 74.75 196.35 83.7 193.05 91.4 190.3 98.15 185.45 103.6 185.45 107.2 183.4 110.5
L 182.05 154.35 182.05 172.55
Q 182.05 174.9 180.4 176.55 178.75 178.2 176.4 178.2
L 19.25 178.2
Q 16.9 178.2 15.25 176.55 13.6 174.9 13.6 172.55
L 13.6 136.05
Q 13.6 135.35 13.75 134.65
L 14.1 108.35
Q 12.3 106.2 11.55 103.65 10.8 100.95 11.05 98.3 6.9 92.35 4.85 85.35 2.45 77 3.5 68.4 4.4 60.4 9.95 54.6 13.95 50.55 19.95 48.05 20.25 38.75 25.15 33.55 30.6 27.85 40.9 27.85
L 156.15 27.85
Q 166.45 27.85 172.1 33.45 Z"/>

<path fill="#FFFFFF" stroke="none" d="
M 177.65 49.4
Q 177.65 39.1 172.1 33.45 166.45 27.85 156.15 27.85
L 40.9 27.85
Q 30.6 27.85 25.15 33.55 20.25 38.75 19.95 48.05 13.95 50.55 9.95 54.6 4.4 60.4 3.5 68.4 2.45 77 4.85 85.35 6.9 92.35 11.05 98.3 10.8 100.95 11.55 103.65 12.3 106.2 14.1 108.35
L 13.75 134.65
Q 13.6 135.35 13.6 136.05
L 13.6 172.55
Q 13.6 174.9 15.25 176.55 16.9 178.2 19.25 178.2
L 176.4 178.2
Q 178.75 178.2 180.4 176.55 182.05 174.9 182.05 172.55
L 182.05 154.35 183.4 110.5
Q 185.45 107.2 185.45 103.6 190.3 98.15 193.05 91.4 196.35 83.7 196.4 74.75 196.45 65.4 190 58.5 185.05 53.3 177.65 50.5
L 177.65 49.4
M 168.1 37.45
Q 172 41.35 172 49.4
L 172 54.6
Q 180.25 56.8 185.25 61.7 190.8 67.15 190.75 74.7 190.7 82.7 187.65 89.8 184.8 96.35 179.55 101.55
L 179.75 102.4
Q 180.2 106 177.85 108.55
L 177.35 108.5 177.3 108.55 164.15 107.45
Q 163.2 108.95 162.1 110.45 158.65 115 154.4 117.35 156.25 117.1 157.4 116.55 157.5 116.5 160.95 114 163 112.5 164.05 113.2 165.05 113.85 165.4 114.95 166.1 117.15 166.6 118.15 167.6 120.1 169.25 120.1 170.05 120.1 170.75 119.7
L 172.4 117.1
Q 174.5 114.5 176.4 114.2
L 176.4 123.25 148.15 119.5
Q 143.55 120.15 138.3 118.85 137.95 119.8 137.5 120.75
L 176.4 125.25 176.4 132.4 134.5 126.25
Q 133.4 127.95 132.15 129.55
L 176.4 136.05 176.4 172.55 19.25 172.55 19.25 136.05 59.5 130.15
Q 58.15 128.55 57.1 126.85
L 19.25 132.4 19.25 125.25 53.9 121.25
Q 53.65 120.7 53.4 120.15 53.1 119.6 52.85 119.05 50.15 119.3 47.7 118.95
L 19.25 122.75 19.25 115.6 19.25 112.15 34.3 110.85
Q 33.2 109.4 32.25 107.75 32.2 107.55 32.1 107.4
L 19.7 108.45 19.7 106
Q 17.75 104.5 17 102.15 16.2 99.75 16.95 97.4
L 17.1 97
Q 12.5 91.15 10.4 84.15 8.25 76.8 9.1 69.05 9.8 62.55 14.5 58.05 18.75 54 25.55 52.1
L 25.55 49.4
Q 25.55 41.3 29.2 37.45 32.95 33.5 40.9 33.5
L 156.15 33.5
Q 164.15 33.5 168.1 37.45
M 144.65 111.25
Q 145.55 111.5 146 112.35 149.9 110.85 153.15 106.45
L 141.3 105.4
Q 141.05 108.85 140.35 112.1 143.05 110.75 144.65 111.25
M 42.5 106.5
Q 43.9 108.45 45.45 109.9
L 49.6 109.5
Q 49.25 107.7 49.05 105.95
L 42.5 106.5 Z"/>

<path fill="#6B6BC6" stroke="none" d="
M 145.85 112.4
Q 145.9 112.4 146 112.35 145.55 111.5 144.65 111.25 143.05 110.75 140.35 112.1 140.3 112.4 140.25 112.75
L 141.05 113
Q 143.45 113.3 145.85 112.4
M 24.95 116.8
Q 23.6 115.1 22.6 114.95 21.25 114.75 19.25 115.6
L 19.25 122.75 47.7 118.95
Q 41.7 118.15 37.35 114.2 32.3 116.55 29.2 117.3 25.95 118.05 24.95 116.8
M 57.1 126.85
Q 55.25 124.1 53.9 121.25
L 19.25 125.25 19.25 132.4 57.1 126.85
M 48.9 112.05
Q 49.65 112.35 50.35 112.55 50.1 111.55 49.85 110.6 49.4 111.2 48.9 112.05
M 176.4 132.4
L 176.4 125.25 137.5 120.75
Q 136.2 123.55 134.5 126.25
L 176.4 132.4
M 170.75 119.7
Q 170.05 120.1 169.25 120.1 167.6 120.1 166.6 118.15 166.1 117.15 165.4 114.95 165.05 113.85 164.05 113.2 163 112.5 160.95 114 157.5 116.5 157.4 116.55 156.25 117.1 154.4 117.35 151.45 118.95 148.15 119.5
L 176.4 123.25 176.4 114.2
Q 174.5 114.5 172.4 117.1
L 170.75 119.7 Z"/>

<path fill="#4040A5" stroke="none" d="
M 22.6 114.95
Q 23.6 115.1 24.95 116.8 25.95 118.05 29.2 117.3 32.3 116.55 37.35 114.2 35.7 112.7 34.3 110.85
L 19.25 112.15 19.25 115.6
Q 21.25 114.75 22.6 114.95
M 32.1 107.4
Q 31.15 105.7 30.4 103.85 29.45 104.7 28.35 104.9 26.1 105.3 27.2 102.85 27.85 101.3 27.7 100.8 27.45 100.7 27.1 100.6 26.05 100.85 23.55 102.1 18.9 104.3 18.3 104.55 18.95 105.35 19.7 106
L 19.7 108.45 32.1 107.4
M 49.85 110.6
Q 49.7 110 49.6 109.5
L 45.45 109.9
Q 46.65 110.9 47.95 111.6 48.45 111.85 48.9 112.05 49.4 111.2 49.85 110.6
M 48.75 97.4
Q 48.5 97.45 48.3 97.6 47.25 98.25 46.95 99.35 46.25 101.55 45.75 102.55 44.75 104.5 43.1 104.5
L 41.6 104.1
Q 40.85 102.85 39.9 101.5 41.1 104.35 42.5 106.5
L 49.05 105.95
Q 48.65 103.05 48.65 100.1 48.65 98.75 48.75 97.4
M 154.75 98.9
Q 155.1 98.5 155.35 98.15 154.8 98 154.1 98 150.85 97.85 149.35 99 147.95 100.7 147.05 101.7 145.65 103.3 143.4 103.1 142.3 103 141.4 102.4 141.4 103.9 141.3 105.4
L 153.15 106.45
Q 154.65 104.45 156.05 101.8 155.2 100.9 154.65 99.75
L 154.4 99.25 154.75 98.9
M 177.3 108.55
L 177.35 108.5
Q 178 107.8 178.4 107 177.8 106.5 177.45 104.25 177.15 102.3 175.7 101.9 174.05 101.4 171.4 102.75
L 171.5 103.4 169.7 103.7
Q 168.05 104.65 167.5 104.85 166.1 105.35 165.2 105.7 164.65 106.55 164.15 107.45
L 177.3 108.55 Z"/>

<path fill="#242448" stroke="none" d="
M 29.4 101.25
Q 28.6 101.05 27.7 100.8 27.85 101.3 27.2 102.85 26.1 105.3 28.35 104.9 29.45 104.7 30.4 103.85 29.85 102.6 29.4 101.25
M 167.5 104.85
Q 168.05 104.65 169.7 103.7
L 166.55 104.25
Q 166.15 104.3 165.85 104.35 165.5 105 165.2 105.7 166.1 105.35 167.5 104.85
M 172 49.4
Q 172 41.35 168.1 37.45 164.15 33.5 156.15 33.5
L 40.9 33.5
Q 32.95 33.5 29.2 37.45 25.55 41.3 25.55 49.4
L 25.55 52.1
Q 18.75 54 14.5 58.05 9.8 62.55 9.1 69.05 8.25 76.8 10.4 84.15 12.5 91.15 17.1 97
L 16.95 97.4
Q 16.2 99.75 17 102.15 17.75 104.5 19.7 106 18.95 105.35 18.3 104.55 18.9 104.3 23.55 102.1 26.05 100.85 27.1 100.6 26.75 100.5 26.4 100.4
L 23.85 99.7 24.1 98.95
Q 24.55 97.45 24.65 95.7 24.65 94.8 24.65 94.4 22.45 92.25 20.4 88.8 16.1 81.65 16.1 73.35 16.1 72.3 16.3 69.95 17 63.75 24 60.7 30.35 58 38.8 58.8 45.1 59.4 49.4 61.95 54.25 64.85 54.3 69.15 54.45 76.25 50.45 80.95 48.15 83.7 45.1 85 44.15 88.9 41.8 91.9 40.8 93.25 39.6 94.2 40.1 95.75 41.05 97.2
L 41.35 97.55 41.05 98
Q 40.25 99.15 39.25 100 39.55 100.75 39.9 101.5 40.85 102.85 41.6 104.1
L 43.1 104.5
Q 44.75 104.5 45.75 102.55 46.25 101.55 46.95 99.35 47.25 98.25 48.3 97.6 48.5 97.45 48.75 97.4 49.65 80.75 62.05 68.9 71.85 59.6 84.65 57.25 89.85 56 95.6 56 114.5 56 127.95 69.45 141.4 82.9 141.4 101.85 141.4 102.1 141.4 102.4 142.3 103 143.4 103.1 145.65 103.3 147.05 101.7 147.95 100.7 149.35 99 150.85 97.85 154.1 98 154.8 98 155.35 98.15 156.1 97.15 156.55 96.15 154.4 94.15 153.25 90.95 152.4 88.75 152.1 86.4 149.2 84.65 147.3 81.7 143.9 76.6 144.85 69.55 145.2 66.45 148.15 64.3 151.15 62.15 156.05 61.35 162.25 60.5 168.5 61.9 174.8 63.35 178.55 66.55 182.5 70 182.5 74.7 182.45 84.35 176.95 92.1 175.15 94.6 173.05 96.6 172.1 97.5 171.4 98.1
L 171.2 99.35
Q 171.05 101.15 171.35 102.65
L 171.4 102.75
Q 174.05 101.4 175.7 101.9 177.15 102.3 177.45 104.25 177.8 106.5 178.4 107 178 107.8 177.35 108.5
L 177.85 108.55
Q 180.2 106 179.75 102.4
L 179.55 101.55
Q 184.8 96.35 187.65 89.8 190.7 82.7 190.75 74.7 190.8 67.15 185.25 61.7 180.25 56.8 172 54.6
L 172 49.4
M 125.2 48.2
L 126.35 47.9
Q 127.05 47.65 127.6 47.25
L 127.65 47.2 127.15 44.35
Q 128.25 45.75 129 46.25
L 129.1 46.3 129.15 46.25
Q 129.2 46.2 130.35 45.2 131.65 44.1 132.2 43.35
L 130.8 47.1 130.75 47.3 130.9 47.25
Q 130.95 47.25 136.5 45.65
L 131.7 48.05 135.05 50.75 130.8 48.5 131.55 53.9
Q 129.7 49.8 129.35 49.5
L 129.3 49.35 126.95 53.15
Q 127.9 50.5 127.9 49.05
L 127.9 49 127.85 49
Q 127.75 48.85 127.15 48.65 126.3 48.3 125.2 48.2
M 97.9 42.85
L 98.35 43.1 98.8 43.2
Q 98.4 43.25 98 43.35
L 97.8 43.5 97.75 43.5
Q 97.75 44 98.1 45.1
L 97.25 43.7 97.2 43.65 97.2 43.7
Q 96.95 44 96.35 45.45
L 96.65 43.35 94.95 44.15 96.3 43.15 94.4 42.2 96.55 42.85 96.65 42.85 96.65 42.75 96.1 41.3
Q 96.45 41.8 97.25 42.45
L 97.3 42.5 97.3 42.45
Q 97.4 42.4 98.05 41.75
L 97.9 42.8 97.9 42.85
M 147.35 87.9
L 147.4 87.9
Q 147.7 87.75 148.45 86.85
L 148.15 88.4 148.2 88.45
Q 148.3 88.55 148.9 88.8
L 149.55 88.95
Q 148.9 89 148.45 89.2 148.1 89.4 148.1 89.45
L 148.05 89.45 148.05 89.5
Q 148.05 90.4 148.6 91.75
L 147.35 89.65 147.3 89.6 147.25 89.65 146 92.1 146.45 89.1 144.1 90.4 145.9 88.85 143.25 87.55
Q 145.9 88.45 146.4 88.45
L 146.5 88.5 145.65 86.3
Q 146.2 86.95 147.35 87.9
M 42.6 47.05
L 42.35 47
Q 42.3 46.95 39.6 46.75 36.5 46.5 34 46.5
L 41.6 45.55 38.45 40.3 43.1 45.4 44.7 37.8
Q 45.3 44.25 45.5 44.75
L 45.55 44.9 45.7 44.85 50.45 41
Q 47.85 44.15 47.25 46
L 47.2 46.05 47.25 46.15
Q 47.3 46.2 48 46.9 49 47.8 50.45 48.45
L 48.7 48.3
Q 47.55 48.3 46.75 48.6
L 46.7 48.65 46 52.65
Q 45.05 50 44.4 49.25
L 44.3 49.15 44.2 49.25
Q 40.6 50.5 38.7 51.55
L 42.4 47.25 42.6 47.05
M 71.4 54.4
L 72.1 54.6
Q 71.45 54.65 71 54.8 70.65 55 70.6 55
L 70.6 55.05
Q 70.6 55.8 71.15 57.3
L 69.85 55.25 69.85 55.2 69.8 55.25
Q 69.4 55.7 68.6 57.7
L 69 54.7 66.65 55.95 68.45 54.45 65.85 53.1
Q 67.25 53.6 68.95 54.05
L 69 54.05 69 53.95 68.25 51.9
Q 68.75 52.5 69.9 53.5
L 70 53.5
Q 70.25 53.35 71 52.45
L 70.75 54 70.75 54.05 71.4 54.4 Z"/>

<path fill="#989798" stroke="none" d="
M 71.3 140.8
Q 66.6 141.25 62.4 141.8 48.65 143.65 48.65 146.4 48.65 149.1 62.4 151.05 76.15 153 95.6 153 115 153 128.75 151.05 142.5 149.1 142.5 146.4 142.5 143.65 128.75 141.8 124.6 141.25 119.9 140.8 109.15 147.65 95.6 147.65 82 147.65 71.3 140.8 Z"/>

<path fill="#FBC627" stroke="none" d="
M 43.6 110
Q 42.15 108.55 40.9 106.65 39.35 104.1 38.1 100.8 35.65 102.1 32.2 101.8 32.15 101.8 32 101.8 31.5 101.7 30.95 101.6 31.15 102.15 31.4 102.75 32.3 105.15 33.65 107.25 34.15 108.2 34.75 109.05 35.35 109.9 36.05 110.7 37.35 112.25 38.8 113.5 44.35 118.05 52.2 117.65 51.45 115.9 50.85 114.05 49.5 113.85 48.2 113.25 47.35 112.9 46.55 112.4 44.95 111.5 43.6 110
M 162.55 107.3
Q 162.9 106.75 163.2 106.2 163.7 105.35 164.15 104.45 161.9 104.6 160.2 104.2 159.8 104.1 159.35 103.95 158.15 103.5 157.15 102.8 156 104.85 154.85 106.6 151.35 111.55 147.15 113.45 146.75 113.65 146.4 113.8 142.95 115.05 139.85 114.25 139.4 115.9 138.8 117.5 145.25 119.1 150.55 117.4 155.5 115.8 159.45 111.4 161.15 109.5 162.55 107.3
M 101.4 61.5
L 101.25 61.45
Q 100.7 61.45 100.8 60.8
L 101.1 59
Q 100.15 58.9 99.25 58.85
L 99.1 60.65
Q 99 61.2 98.5 61.2
L 98.45 61.2
Q 97.85 61.2 97.95 60.6
L 98.05 58.75
Q 97.2 58.7 96.25 58.7
L 96.25 60.5
Q 96.25 61.1 95.65 61.1 95 61.1 95 60.5
L 95 58.7
Q 94.05 58.7 93.25 58.75
L 93.3 60.6
Q 93.3 61.2 92.75 61.2
L 92.7 61.2
Q 92.15 61.2 92.15 60.6
L 92.05 58.85
Q 91.1 58.9 90.2 59
L 90.45 60.8
Q 90.55 61.35 89.95 61.45
L 89.85 61.45
Q 89.35 61.45 89.3 61
L 89.05 59.15
Q 88.1 59.25 87.2 59.45
L 87.6 61.3
Q 87.75 61.8 87.1 62
L 87 62
Q 86.55 62 86.4 61.5
L 86.05 59.7
Q 85.15 59.85 84.25 60.1
L 84.75 61.95
Q 84.85 62.15 84.7 62.35 84.6 62.6 84.4 62.65
L 84.2 62.7
Q 83.85 62.7 83.65 62.25
L 83.1 60.45
Q 82.25 60.65 81.35 61
L 82 62.8
Q 82.1 62.95 82 63.25 81.9 63.45 81.65 63.55
L 81.45 63.6
Q 81.05 63.6 80.9 63.2
L 80.25 61.35
Q 79.35 61.7 78.5 62.1
L 79.3 63.8
Q 79.55 64.4 79.05 64.6
L 78.8 64.65
Q 78.4 64.65 78.25 64.3
L 77.45 62.55
Q 76.65 62.95 75.85 63.35
L 76.75 65.05
Q 77 65.6 76.45 65.85
L 76.2 65.95
Q 75.9 65.95 75.65 65.6
L 74.75 63.9
Q 73.95 64.35 73.2 64.85
L 74.2 66.45
Q 74.5 66.9 74 67.25 73.9 67.35 73.7 67.35 73.35 67.35 73.2 67.05
L 72.2 65.45
Q 71.4 66 70.65 66.55
L 71.8 68
Q 72.15 68.5 71.65 68.85 71.55 68.95 71.3 68.95 71.05 68.95 70.8 68.7
L 69.75 67.25
Q 69 67.75 68.25 68.4
L 69.45 69.8
Q 69.85 70.2 69.4 70.6 69.2 70.75 69 70.75 68.85 70.75 68.55 70.55
L 67.4 69.15
Q 66.65 69.75 66 70.4
L 67.3 71.65
Q 67.7 72.1 67.3 72.5 67.15 72.65 66.85 72.65 66.65 72.65 66.45 72.5
L 65.15 71.2
Q 65.1 71.25 65.05 71.35 64.45 71.9 63.9 72.5
L 65.25 73.75
Q 65.7 74.05 65.3 74.55 65.1 74.7 64.85 74.7 64.7 74.7 64.45 74.6
L 63.15 73.35
Q 62.5 74.05 61.95 74.75
L 63.4 75.9
Q 63.8 76.25 63.5 76.75 63.35 76.95 63 76.95 62.75 76.95 62.65 76.8
L 61.2 75.65
Q 60.6 76.4 60.1 77.15
L 61.65 78.2
Q 62.1 78.6 61.8 79 61.65 79.3 61.3 79.3
L 61 79.2 59.45 78.1
Q 58.85 78.9 58.4 79.7
L 60.05 80.6
Q 60.55 80.95 60.3 81.4 60.15 81.7 59.75 81.7
L 59.5 81.65 57.85 80.7
Q 57.35 81.5 56.95 82.35
L 58.7 83.15
Q 59.2 83.35 58.9 83.95 58.8 84.25 58.4 84.25
L 58.15 84.2 56.45 83.35
Q 56 84.15 55.7 85.05
L 57.45 85.75
Q 58 86.05 57.75 86.5 57.65 86.9 57.25 86.9
L 57.05 86.85 55.2 86.15
Q 54.9 87 54.6 87.9
L 56.45 88.45
Q 56.65 88.55 56.75 88.75 56.9 89 56.8 89.2 56.65 89.6 56.25 89.6
L 54.2 89
Q 53.95 89.85 53.75 90.75
L 55.6 91.2
Q 56.2 91.4 56 91.9 55.9 92.4 55.45 92.4
L 55.3 92.35 53.45 91.9
Q 53.25 92.8 53.1 93.75
L 54.9 94.05
Q 55.15 94.1 55.35 94.25 55.5 94.45 55.45 94.7 55.3 95.2 54.85 95.2
L 54.75 95.2 52.9 94.9
Q 52.75 95.8 52.65 96.7
L 54.5 96.9
Q 54.75 96.9 54.9 97.1 55.05 97.3 55 97.5 55 98.1 54.45 98.1
L 54.35 98.1 52.55 97.9
Q 52.5 98.8 52.45 99.75
L 54.25 99.75
Q 54.5 99.75 54.65 99.95 54.85 100.15 54.85 100.4 54.85 100.95 54.2 100.95
L 52.4 100.9
Q 52.4 101.35 52.4 101.85 52.4 102.25 52.4 102.75
L 54.2 102.65
Q 54.85 102.65 54.85 103.2 54.85 103.8 54.25 103.8
L 52.45 103.9
Q 52.5 104.8 52.55 105.75
L 54.35 105.55
Q 54.9 105.45 55 106.05 55.1 106.7 54.5 106.7
L 52.65 106.85
Q 52.75 107.8 52.9 108.75
L 54.75 108.4
Q 55.3 108.3 55.4 108.85 55.5 109.45 54.9 109.55
L 53.1 109.9
Q 53.25 110.8 53.4 111.7
L 55.3 111.25
Q 55.55 111.2 55.7 111.3 55.9 111.45 55.95 111.65 56.15 112.25 55.55 112.35
L 53.7 112.85
Q 53.95 113.75 54.2 114.6
L 56.05 114
Q 56.5 113.85 56.8 114.4 56.9 115 56.45 115.15
L 54.55 115.75
Q 54.85 116.6 55.15 117.5
L 56.95 116.75
Q 57.2 116.65 57.4 116.75 57.65 116.85 57.75 117.05 57.85 117.25 57.75 117.55 57.65 117.75 57.4 117.8
L 55.65 118.55
Q 55.95 119.4 56.4 120.25
L 58.1 119.35
Q 58.65 119.2 58.85 119.65 59 119.85 58.9 120.1 58.85 120.35 58.65 120.45
L 56.9 121.3
Q 57.3 122.1 57.8 122.95
L 59.45 121.95
Q 59.9 121.7 60.25 122.2 60.5 122.6 60 123
L 58.35 123.95
Q 58.85 124.75 59.35 125.5
L 60.9 124.4
Q 61.45 124.1 61.75 124.6 62 125.05 61.6 125.4
L 60.05 126.45
Q 60.55 127.2 61.2 127.95
L 62.6 126.8
Q 63 126.45 63.45 126.9 63.75 127.3 63.3 127.75
L 61.9 128.85
Q 62.45 129.55 63.05 130.3
L 64.4 129.05
Q 64.6 128.85 64.85 128.9 65.1 128.9 65.2 129.1 65.65 129.5 65.2 129.9
L 63.85 131.1
Q 64.4 131.75 65.05 132.35 65.1 132.4 65.1 132.45
L 66.4 131.1
Q 66.6 130.95 66.8 130.95 67.05 130.95 67.2 131.1 67.6 131.55 67.25 131.95
L 65.95 133.3
Q 66.65 133.9 67.35 134.5
L 68.5 133.1
Q 68.9 132.65 69.35 133.05 69.8 133.4 69.4 133.85
L 68.25 135.25
Q 68.95 135.85 69.7 136.45
L 70.75 134.95
Q 71.1 134.45 71.55 134.8 72.05 135.1 71.7 135.65
L 70.6 137.15
Q 71.35 137.65 72.15 138.15
L 73.1 136.55
Q 73.2 136.4 73.45 136.3 73.7 136.25 73.9 136.4 74.15 136.5 74.2 136.7 74.25 137 74.1 137.2
L 73.15 138.85
Q 73.9 139.3 74.7 139.7
L 75.6 138.05
Q 75.9 137.55 76.4 137.8 76.85 138.1 76.65 138.6
L 75.75 140.3
Q 75.9 140.35 76.05 140.45 76.7 140.8 77.4 141.15
L 78.15 139.35
Q 78.4 138.85 78.95 139.05 79.45 139.35 79.2 139.8
L 78.45 141.6
Q 79.3 141.95 80.15 142.3
L 80.8 140.45
Q 80.9 140.3 81.15 140.15 81.4 140.05 81.55 140.1 82.15 140.35 81.95 140.85
L 81.3 142.7
Q 82.15 142.95 83.05 143.25
L 83.55 141.4
Q 83.75 140.8 84.3 141 84.85 141.2 84.7 141.75
L 84.2 143.6
Q 85.05 143.8 86 144
L 86.35 142.1
Q 86.45 141.6 87.05 141.7 87.6 141.9 87.5 142.4
L 87.1 144.25
Q 88 144.4 88.95 144.5
L 89.2 142.7
Q 89.25 142.45 89.4 142.3 89.6 142.15 89.85 142.2 90.35 142.3 90.35 142.85
L 90.15 144.7
Q 91 144.8 91.95 144.9
L 92.05 143.05
Q 92.05 142.8 92.25 142.65 92.45 142.45 92.65 142.5 93.25 142.5 93.25 143.1
L 93.15 144.95
Q 94 145 94.9 145
L 94.9 143.2
Q 94.9 142.6 95.55 142.6 96.1 142.6 96.1 143.2
L 96.1 145
Q 97.05 145 98 144.95
L 97.85 143.1
Q 97.8 142.85 98 142.7 98.1 142.5 98.35 142.5 98.9 142.5 99 143.05
L 99.1 144.9
Q 100.05 144.8 101 144.7
L 100.7 142.85
Q 100.6 142.3 101.2 142.2 101.45 142.15 101.65 142.3 101.85 142.5 101.9 142.7
L 102.15 144.55
Q 103.05 144.4 103.95 144.25
L 103.5 142.4
Q 103.45 141.85 104 141.7 104.6 141.6 104.7 142.15
L 105.1 144
Q 106 143.8 106.9 143.6
L 106.4 141.8
Q 106.15 141.25 106.75 141.05 107 141 107.2 141.1 107.4 141.25 107.45 141.4
L 108.05 143.3
Q 108.9 143 109.75 142.75
L 109.1 140.9
Q 108.95 140.4 109.45 140.15 110 140 110.25 140.5
L 110.9 142.3
Q 111.75 142 112.6 141.65
L 111.8 139.85
Q 111.55 139.4 112.1 139.1 112.3 139 112.55 139.1 112.85 139.15 112.85 139.4
L 113.65 141.2
Q 114.45 140.8 115.15 140.45 115.2 140.4 115.3 140.35
L 114.45 138.65
Q 114.2 138.15 114.65 137.85 115.2 137.55 115.45 138.1
L 116.4 139.75
Q 117.15 139.3 117.95 138.85
L 116.95 137.25
Q 116.65 136.8 117.15 136.45 117.55 136.1 117.95 136.6
L 118.95 138.2
Q 119.7 137.7 120.45 137.2
L 119.35 135.7
Q 119.05 135.15 119.5 134.85 119.95 134.5 120.3 135
L 121.45 136.5
Q 122.15 135.9 122.85 135.3
L 121.65 133.9
Q 121.25 133.45 121.75 133.1 122.25 132.7 122.55 133.15
L 123.75 134.55
Q 124.45 133.95 125.1 133.35
L 123.85 132
Q 123.45 131.75 123.85 131.15 124.35 130.85 124.7 131.2
L 125.95 132.5
Q 126.05 132.4 126.1 132.35 126.65 131.8 127.25 131.15
L 125.9 130
Q 125.4 129.55 125.85 129.15 126.2 128.75 126.7 129.1
L 128 130.3
Q 128.6 129.6 129.2 128.9
L 127.75 127.8
Q 127.35 127.4 127.7 127 128.05 126.45 128.5 126.9
L 129.95 128
Q 130.5 127.25 131.05 126.5
L 129.5 125.5
Q 129.1 125.2 129.3 124.7 129.65 124.2 130.15 124.5
L 131.7 125.6
Q 132.2 124.8 132.7 124
L 131.05 123.1
Q 130.55 122.75 130.9 122.3 131.1 121.75 131.65 122.05
L 133.3 123
Q 133.75 122.2 134.15 121.4
L 132.45 120.55
Q 131.95 120.3 132.2 119.75 132.3 119.5 132.5 119.45 132.8 119.35 133 119.5
L 134.7 120.35
Q 135.1 119.45 135.5 118.6
L 133.7 117.9
Q 133.15 117.7 133.35 117.15 133.5 116.65 134.1 116.85
L 135.9 117.55
Q 136.25 116.7 136.55 115.8
L 134.75 115.25
Q 134.15 115.1 134.35 114.5 134.5 113.9 135.05 114.1
L 136.9 114.7
Q 137.15 113.85 137.4 112.95
L 135.55 112.45
Q 135 112.25 135.1 111.75 135.3 111.15 135.85 111.35
L 137.7 111.75
Q 137.9 110.85 138 109.95
L 136.2 109.65
Q 135.6 109.55 135.7 109 135.75 108.75 135.95 108.6 136.15 108.4 136.35 108.45
L 138.2 108.8
Q 138.35 107.9 138.45 107
L 136.65 106.8
Q 136.1 106.75 136.1 106.15 136.2 105.55 136.75 105.65
L 138.6 105.85
Q 138.65 104.9 138.7 104
L 136.9 103.95
Q 136.35 103.85 136.35 103.3 136.35 102.7 136.95 102.8
L 138.7 102.85
Q 138.7 102.3 138.7 101.85 138.7 101.4 138.7 101
L 136.9 101.05
Q 136.35 101.05 136.35 100.5 136.35 99.85 136.9 99.85
L 138.7 99.8
Q 138.65 98.9 138.6 98
L 136.75 98.15 136.7 98.15
Q 136.15 98.15 136.15 97.65 136.1 97.1 136.65 97
L 138.5 96.8
Q 138.35 95.85 138.25 95
L 136.4 95.3 136.35 95.3
Q 135.8 95.3 135.7 94.85 135.6 94.25 136.25 94.15
L 138.05 93.8
Q 137.9 92.9 137.7 92
L 135.85 92.45 135.7 92.5
Q 135.25 92.5 135.15 92 134.95 91.5 135.6 91.3
L 137.4 90.9
Q 137.15 90 136.95 89.1
L 134.9 89.7
Q 134.55 89.7 134.35 89.3 134.2 88.8 134.75 88.55
L 136.55 88
Q 136.3 87.1 135.95 86.25
L 134.15 86.95 133.95 87
Q 133.6 87 133.35 86.6 133.25 86.4 133.4 86.2 133.5 85.9 133.7 85.85
L 135.55 85.15
Q 135.15 84.3 134.8 83.45
L 133 84.3 132.75 84.35
Q 132.4 84.35 132.25 84.05 131.95 83.45 132.5 83.25
L 134.25 82.45
Q 133.85 81.6 133.35 80.8
L 131.7 81.7 131.4 81.8
Q 131.05 81.8 130.9 81.55 130.65 81 131.1 80.7
L 132.75 79.75
Q 132.3 78.95 131.75 78.2
L 130.2 79.3 129.9 79.35
Q 129.6 79.35 129.35 79.1 129.15 78.6 129.55 78.3
L 131.1 77.25
Q 130.55 76.5 130.05 75.8
L 128.55 76.9
Q 128.45 77 128.2 77 127.95 77 127.75 76.8 127.35 76.3 127.85 76
L 129.3 74.85
Q 128.7 74.15 128.1 73.45
L 126.75 74.65
Q 126.55 74.8 126.35 74.8 126.2 74.8 125.9 74.65 125.5 74.2 125.95 73.8
L 127.3 72.6
Q 126.7 71.95 126.1 71.35
L 126.05 71.3 124.75 72.55
Q 124.6 72.75 124.35 72.75 124.05 72.75 123.9 72.55 123.75 72.35 123.75 72.15 123.75 71.9 123.9 71.75
L 125.2 70.45
Q 124.5 69.8 123.85 69.2
L 122.65 70.6
Q 122.45 70.75 122.2 70.75 121.95 70.75 121.8 70.65 121.35 70.25 121.75 69.85
L 122.95 68.45
Q 122.25 67.85 121.5 67.3
L 120.4 68.75
Q 120.2 69.05 119.9 69.05 119.75 69.05 119.6 68.9 119.1 68.55 119.45 68.1
L 120.55 66.6
Q 119.8 66.05 119.05 65.5
L 118.05 67.15
Q 117.8 67.4 117.55 67.4
L 117.2 67.35
Q 116.8 67 117 66.5
L 118.05 64.9
Q 117.25 64.4 116.45 63.95
L 115.55 65.65
Q 115.4 66 115.05 66
L 114.75 65.9
Q 114.25 65.65 114.5 65.1
L 115.4 63.4
Q 114.6 62.95 113.75 62.55
L 112.95 64.35
Q 112.85 64.65 112.45 64.65
L 112.2 64.6
Q 111.7 64.4 111.9 63.85
L 112.7 62.1
Q 111.85 61.7 111 61.4
L 110.3 63.2
Q 110.2 63.6 109.75 63.6
L 109.6 63.6
Q 108.95 63.3 109.2 62.85
L 109.85 61
Q 109 60.7 108.15 60.45
L 107.6 62.25
Q 107.45 62.7 107 62.7
L 106.85 62.7
Q 106.35 62.5 106.45 62
L 107 60.1
Q 106.05 59.85 105.15 59.7
L 104.8 61.55
Q 104.7 62 104.25 62
L 104.1 62
Q 103.5 61.8 103.65 61.3
L 104.05 59.45
Q 103.1 59.25 102.2 59.15
L 101.9 61
Q 101.9 61.5 101.4 61.5
M 95.6 66.65
Q 110.2 66.65 120.5 76.95 130.8 87.25 130.8 101.85 130.8 116.45 120.5 126.75 110.15 137.1 95.6 137.1 81 137.1 70.65 126.75 60.35 116.45 60.35 101.85 60.35 87.25 70.65 76.95 80.95 66.65 95.6 66.65 Z"/>

<path fill="#992A22" stroke="none" d="
M 38.8 58.8
Q 30.35 58 24 60.7 17 63.75 16.3 69.95 16.1 72.3 16.1 73.35 16.1 81.65 20.4 88.8 22.45 92.25 24.65 94.4 24.65 94.8 24.65 95.7 24.55 97.45 24.1 98.95
L 23.85 99.7 26.4 100.4
Q 26.75 100.5 27.1 100.6 27.45 100.7 27.7 100.8 28.6 101.05 29.4 101.25 30.25 101.45 30.95 101.6 31.5 101.7 32 101.8 32.15 101.8 32.2 101.8 35.65 102.1 38.1 100.8 38.45 100.55 38.85 100.35 39.05 100.15 39.25 100 40.25 99.15 41.05 98
L 41.35 97.55 41.05 97.2
Q 40.1 95.75 39.6 94.2 40.8 93.25 41.8 91.9 44.15 88.9 45.1 85 48.15 83.7 50.45 80.95 54.45 76.25 54.3 69.15 54.25 64.85 49.4 61.95 45.1 59.4 38.8 58.8
M 24.9 61.95
Q 30.7 59.5 38.6 60.25 39.45 60.35 40.3 60.5 41.05 60.6 41.8 60.7 45.55 61.4 48.35 63 52.8 65.5 52.85 69.2 53 76.35 48.75 80.75 47.4 82.15 45.75 83.1 44.85 83.55 44.35 83.75
L 43.4 83.95
Q 42.75 84.05 41 84.25 39.95 84.35 38.9 84.35 36.05 84.35 33.6 83.8
L 31.6 83.3 29.85 82.5
Q 28.9 82.05 28.25 81.6
L 27.5 81.05
Q 27.3 80.95 26.9 80.55 26.75 80.45 25.9 79.55
L 24.6 77.95 25.8 79.7 27.35 81.3 28 81.85 30.5 83.35
Q 31.2 83.75 31.4 83.8 32.2 84.15 33.4 84.5 36 85.25 38.75 85.45 39.9 85.55 41.05 85.5 41.75 85.5 43.55 85.35 42.9 87.95 41.35 90.25 38.2 94.95 32.95 95.05 32.2 95.05 31.35 95 29.95 94.9 28.4 94.4 27.15 94.05 25.85 93.45 23.05 90.85 20.85 86.55 16.8 78.75 17.8 70.05 18.4 64.6 24.9 61.95
M 25.7 98.65
Q 26.1 97.1 26.15 95.2 28.85 96.2 31.2 96.45 35.3 96.85 38.4 95.05 38.75 96.25 39.55 97.5 38.7 98.65 37.6 99.35 35.65 100.5 32.9 100.35 32.6 100.35 32.35 100.3 30.45 100.1 26.85 99
L 25.7 98.65
M 178.55 66.55
Q 174.8 63.35 168.5 61.9 162.25 60.5 156.05 61.35 151.15 62.15 148.15 64.3 145.2 66.45 144.85 69.55 143.9 76.6 147.3 81.7 149.2 84.65 152.1 86.4 152.4 88.75 153.25 90.95 154.4 94.15 156.55 96.15 156.1 97.15 155.35 98.15 155.1 98.5 154.75 98.9
L 154.4 99.25 154.65 99.75
Q 155.2 100.9 156.05 101.8 156.55 102.3 157.15 102.8 158.15 103.5 159.35 103.95 159.8 104.1 160.2 104.2 161.9 104.6 164.15 104.45 164.95 104.45 165.85 104.35 166.15 104.3 166.55 104.25
L 169.7 103.7 171.5 103.4 171.4 102.75 171.35 102.65
Q 171.05 101.15 171.2 99.35
L 171.4 98.1
Q 172.1 97.5 173.05 96.6 175.15 94.6 176.95 92.1 182.45 84.35 182.5 74.7 182.5 70 178.55 66.55
M 168.15 63.3
Q 169.558203125 63.63984375 170.85 64.05
L 170.95 64.1
Q 174.95 65.4 177.55 67.65 181 70.7 181 74.65 181 83.4 176.05 90.7 173.45 94.55 170.5 96.9 170.4 96.95 170.3 97 168.55 97.45 167.35 97.65 167.3 97.65 167.2 97.7 166.5 97.8 165.8 97.85 164 97.95 162.45 97.6 160.05 97.15 158.3 95.75
L 158.25 95.7
Q 157.55 95.15 157.05 94.55 155.25 92.6 154.35 89.55 153.95 87.8 153.75 86.85
L 155.9 87.25 156.05 87.3
Q 156.15 87.3 156.3 87.35 160.55 87.8 163.8 87.2
L 165.9 86.75 169.45 85.2 170.85 84.25 172.75 82.45
Q 173.109375 82.028125 173.25 81.7
L 172.65 82.5 171.05 83.85 170.75 84.05
Q 170.45 84.25 170.2 84.4 170.15 84.45 170.05 84.5 170 84.55 169.3 84.9 167.75 85.6 167.6 85.65 166.8 85.9 166.7 85.9 166.35 86.05 165.7 86.15 165.15 86.35 163.75 86.5 160.15 86.85 156.25 86.1
L 155.1 85.8 153.15 85.25
Q 150.9 84.15 149 81.7 145.35 76.9 146.25 69.75 146.6 67.15 149.25 65.3 151.85 63.55 156.3 62.85 156.65 62.8 156.95 62.75 162.45 62.05 168.15 63.3
M 169.8 102.15
L 168.6 102.35
Q 164.3 103.2 162.1 102.95 160.2 102.8 158.8 102.05 157.15 101.15 156.15 99.45 156.45 99.05 156.75 98.7 157.25 97.9 157.65 97.1 161.6 100.05 167.6 99.1 168.35 99 169.75 98.7 169.6 100.45 169.8 102.15 Z"/>

<path fill="#C12F23" stroke="none" d="
M 26.15 95.2
Q 26.1 97.1 25.7 98.65
L 26.85 99
Q 30.45 100.1 32.35 100.3 32.6 100.35 32.9 100.35 35.65 100.5 37.6 99.35 38.7 98.65 39.55 97.5 38.75 96.25 38.4 95.05 35.3 96.85 31.2 96.45 28.85 96.2 26.15 95.2
M 48.35 63
Q 45.55 61.4 41.8 60.7
L 43.1 62.15
Q 45.25 64.75 46.15 67.65 49.05 76.75 38.9 84.35 39.95 84.35 41 84.25 42.75 84.05 43.4 83.95
L 44.35 83.75
Q 44.85 83.55 45.75 83.1 47.4 82.15 48.75 80.75 53 76.35 52.85 69.2 52.8 65.5 48.35 63
M 36.95 91.1
Q 35.35 94.1 32.95 95.05 38.2 94.95 41.35 90.25 42.9 87.95 43.55 85.35 41.75 85.5 41.05 85.5 39.9 85.55 38.75 85.45 38.5 88.25 36.95 91.1
M 168.6 102.35
L 169.8 102.15
Q 169.6 100.45 169.75 98.7 168.35 99 167.6 99.1 161.6 100.05 157.65 97.1 157.25 97.9 156.75 98.7 156.45 99.05 156.15 99.45 157.15 101.15 158.8 102.05 160.2 102.8 162.1 102.95 164.3 103.2 168.6 102.35
M 170.75 84.05
L 171.05 83.85
Q 170.65 84.1 170.2 84.4 170.45 84.25 170.75 84.05
M 172.2 65.5
Q 174 67.45 175.05 69.55 178.38515625 76.2701171875 172.75 82.45
L 170.85 84.25 169.45 85.2 165.9 86.75 163.8 87.2
Q 160.55 87.8 156.3 87.35 158.15 88.85 161.4 89.4 165.4 90.05 170.45 89.05 171.9 88.85 171.9 90.2 171.95 91.4 170.8 93.2 169.85 94.75 168.75 95.8 168.45 96.1 168.2 96.4 167.35 97.05 166.5 97.5 166.1 97.7 165.8 97.85 166.5 97.8 167.2 97.7 167.3 97.65 167.35 97.65 168.55 97.45 170.3 97 170.4 96.95 170.5 96.9 173.45 94.55 176.05 90.7 181 83.4 181 74.65 181 70.7 177.55 67.65 174.95 65.4 170.95 64.1
L 170.85 64.05
Q 170.75 64.0375 170.6 64
L 172.2 65.5 Z"/>

<path fill="#E7403A" stroke="none" d="
M 40.3 60.5
Q 34.95 60.25 30.05 61.85 21.6 64.55 20.9 71.15 19.85 80.5 24.45 88.8 26.4 92.3 28.4 94.4 29.95 94.9 31.35 95 32.2 95.05 32.95 95.05 35.35 94.1 36.95 91.1 38.5 88.25 38.75 85.45 36 85.25 33.4 84.5 32.2 84.15 31.4 83.8 31.2 83.75 30.5 83.35
L 28 81.85 27.35 81.3 25.8 79.7 24.6 77.95 25.9 79.55
Q 26.75 80.45 26.9 80.55 27.3 80.95 27.5 81.05
L 28.25 81.6
Q 28.9 82.05 29.85 82.5
L 31.6 83.3 33.6 83.8
Q 36.05 84.35 38.9 84.35 49.05 76.75 46.15 67.65 45.25 64.75 43.1 62.15
L 41.8 60.7
Q 41.05 60.6 40.3 60.5
M 171.9 90.2
Q 171.9 88.85 170.45 89.05 165.4 90.05 161.4 89.4 158.15 88.85 156.3 87.35 156.15 87.3 156.05 87.3
L 155.9 87.25 155.95 87.85
Q 156.35 89.9 157.15 91.75 157.75 93.1 158.55 94.25 159.3 95.25 160.2 96.1 161.25 97 162.45 97.6 164 97.95 165.8 97.85 166.1 97.7 166.5 97.5 167.35 97.05 168.2 96.4 168.45 96.1 168.75 95.8 169.85 94.75 170.8 93.2 171.95 91.4 171.9 90.2
M 175.05 69.55
Q 174 67.45 172.2 65.5
L 170.6 64
Q 170.75 64.0375 170.85 64.05 169.558203125 63.63984375 168.15 63.3 162.45 62.05 156.95 62.75 155.25 63.15 153.75 63.8 148.9 65.95 148.4 69.85 147.4 77.4 151.45 82.5 153.2 84.7 155.1 85.8
L 156.25 86.1
Q 160.15 86.85 163.75 86.5 165.15 86.35 165.7 86.15 166.35 86.05 166.7 85.9 166.8 85.9 167.6 85.65 167.75 85.6 169.3 84.9 170 84.55 170.05 84.5 170.15 84.45 170.2 84.4 170.65 84.1 171.05 83.85
L 172.65 82.5 173.25 81.7
Q 173.109375 82.028125 172.75 82.45 178.38515625 76.2701171875 175.05 69.55 Z"/>

<path fill="#FC7477" stroke="none" d="
M 30.05 61.85
Q 34.95 60.25 40.3 60.5 39.45 60.35 38.6 60.25 30.7 59.5 24.9 61.95 18.4 64.6 17.8 70.05 16.8 78.75 20.85 86.55 23.05 90.85 25.85 93.45 27.15 94.05 28.4 94.4 26.4 92.3 24.45 88.8 19.85 80.5 20.9 71.15 21.6 64.55 30.05 61.85
M 155.95 87.85
L 155.9 87.25 153.75 86.85
Q 153.95 87.8 154.35 89.55 155.25 92.6 157.05 94.55 157.55 95.15 158.25 95.7
L 158.3 95.75
Q 160.05 97.15 162.45 97.6 161.25 97 160.2 96.1 159.3 95.25 158.55 94.25 157.75 93.1 157.15 91.75 156.35 89.9 155.95 87.85
M 153.75 63.8
Q 155.25 63.15 156.95 62.75 156.65 62.8 156.3 62.85 151.85 63.55 149.25 65.3 146.6 67.15 146.25 69.75 145.35 76.9 149 81.7 150.9 84.15 153.15 85.25
L 155.1 85.8
Q 153.2 84.7 151.45 82.5 147.4 77.4 148.4 69.85 148.9 65.95 153.75 63.8 Z"/>

<path fill="#CBCBCB" stroke="none" d="
M 176.4 172.55
L 176.4 136.05 132.15 129.55
Q 130.2 131.95 127.95 134.2 124.15 138.1 119.9 140.8 124.6 141.25 128.75 141.8 142.5 143.65 142.5 146.4 142.5 149.1 128.75 151.05 115 153 95.6 153 76.15 153 62.4 151.05 48.65 149.1 48.65 146.4 48.65 143.65 62.4 141.8 66.6 141.25 71.3 140.8 66.95 138.05 63.15 134.2 61.2 132.25 59.5 130.15
L 19.25 136.05 19.25 172.55 176.4 172.55 Z"/>

<path fill="#795A00" stroke="none" d="
M 165.85 104.35
Q 164.95 104.45 164.15 104.45 163.7 105.35 163.2 106.2 162.9 106.75 162.55 107.3 161.15 109.5 159.45 111.4 155.5 115.8 150.55 117.4 145.25 119.1 138.8 117.5 139.4 115.9 139.85 114.25 142.95 115.05 146.4 113.8 146.75 113.65 147.15 113.45 151.35 111.55 154.85 106.6 156 104.85 157.15 102.8 156.55 102.3 156.05 101.8 154.65 104.45 153.15 106.45 149.9 110.85 146 112.35 145.9 112.4 145.85 112.4 143.45 113.3 141.05 113
L 140.25 112.75
Q 140.3 112.4 140.35 112.1 141.05 108.85 141.3 105.4 141.4 103.9 141.4 102.4 141.4 102.1 141.4 101.85 141.4 82.9 127.95 69.45 114.5 56 95.6 56 89.85 56 84.65 57.25 71.85 59.6 62.05 68.9 49.65 80.75 48.75 97.4 48.65 98.75 48.65 100.1 48.65 103.05 49.05 105.95 49.25 107.7 49.6 109.5 49.7 110 49.85 110.6 50.1 111.55 50.35 112.55 49.65 112.35 48.9 112.05 48.45 111.85 47.95 111.6 46.65 110.9 45.45 109.9 43.9 108.45 42.5 106.5 41.1 104.35 39.9 101.5 39.55 100.75 39.25 100 39.05 100.15 38.85 100.35 38.45 100.55 38.1 100.8 39.35 104.1 40.9 106.65 42.15 108.55 43.6 110 44.95 111.5 46.55 112.4 47.35 112.9 48.2 113.25 49.5 113.85 50.85 114.05 51.45 115.9 52.2 117.65 44.35 118.05 38.8 113.5 37.35 112.25 36.05 110.7 35.35 109.9 34.75 109.05 34.15 108.2 33.65 107.25 32.3 105.15 31.4 102.75 31.15 102.15 30.95 101.6 30.25 101.45 29.4 101.25 29.85 102.6 30.4 103.85 31.15 105.7 32.1 107.4 32.2 107.55 32.25 107.75 33.2 109.4 34.3 110.85 35.7 112.7 37.35 114.2 41.7 118.15 47.7 118.95 50.15 119.3 52.85 119.05 53.1 119.6 53.4 120.15 53.65 120.7 53.9 121.25 55.25 124.1 57.1 126.85 58.15 128.55 59.5 130.15 61.2 132.25 63.15 134.2 66.95 138.05 71.3 140.8 82 147.65 95.6 147.65 109.15 147.65 119.9 140.8 124.15 138.1 127.95 134.2 130.2 131.95 132.15 129.55 133.4 127.95 134.5 126.25 136.2 123.55 137.5 120.75 137.95 119.8 138.3 118.85 143.55 120.15 148.15 119.5 151.45 118.95 154.4 117.35 158.65 115 162.1 110.45 163.2 108.95 164.15 107.45 164.65 106.55 165.2 105.7 165.5 105 165.85 104.35
M 101.25 61.45
L 101.4 61.5
Q 101.9 61.5 101.9 61
L 102.2 59.15
Q 103.1 59.25 104.05 59.45
L 103.65 61.3
Q 103.5 61.8 104.1 62
L 104.25 62
Q 104.7 62 104.8 61.55
L 105.15 59.7
Q 106.05 59.85 107 60.1
L 106.45 62
Q 106.35 62.5 106.85 62.7
L 107 62.7
Q 107.45 62.7 107.6 62.25
L 108.15 60.45
Q 109 60.7 109.85 61
L 109.2 62.85
Q 108.95 63.3 109.6 63.6
L 109.75 63.6
Q 110.2 63.6 110.3 63.2
L 111 61.4
Q 111.85 61.7 112.7 62.1
L 111.9 63.85
Q 111.7 64.4 112.2 64.6
L 112.45 64.65
Q 112.85 64.65 112.95 64.35
L 113.75 62.55
Q 114.6 62.95 115.4 63.4
L 114.5 65.1
Q 114.25 65.65 114.75 65.9
L 115.05 66
Q 115.4 66 115.55 65.65
L 116.45 63.95
Q 117.25 64.4 118.05 64.9
L 117 66.5
Q 116.8 67 117.2 67.35
L 117.55 67.4
Q 117.8 67.4 118.05 67.15
L 119.05 65.5
Q 119.8 66.05 120.55 66.6
L 119.45 68.1
Q 119.1 68.55 119.6 68.9 119.75 69.05 119.9 69.05 120.2 69.05 120.4 68.75
L 121.5 67.3
Q 122.25 67.85 122.95 68.45
L 121.75 69.85
Q 121.35 70.25 121.8 70.65 121.95 70.75 122.2 70.75 122.45 70.75 122.65 70.6
L 123.85 69.2
Q 124.5 69.8 125.2 70.45
L 123.9 71.75
Q 123.75 71.9 123.75 72.15 123.75 72.35 123.9 72.55 124.05 72.75 124.35 72.75 124.6 72.75 124.75 72.55
L 126.05 71.3 126.1 71.35
Q 126.7 71.95 127.3 72.6
L 125.95 73.8
Q 125.5 74.2 125.9 74.65 126.2 74.8 126.35 74.8 126.55 74.8 126.75 74.65
L 128.1 73.45
Q 128.7 74.15 129.3 74.85
L 127.85 76
Q 127.35 76.3 127.75 76.8 127.95 77 128.2 77 128.45 77 128.55 76.9
L 130.05 75.8
Q 130.55 76.5 131.1 77.25
L 129.55 78.3
Q 129.15 78.6 129.35 79.1 129.6 79.35 129.9 79.35
L 130.2 79.3 131.75 78.2
Q 132.3 78.95 132.75 79.75
L 131.1 80.7
Q 130.65 81 130.9 81.55 131.05 81.8 131.4 81.8
L 131.7 81.7 133.35 80.8
Q 133.85 81.6 134.25 82.45
L 132.5 83.25
Q 131.95 83.45 132.25 84.05 132.4 84.35 132.75 84.35
L 133 84.3 134.8 83.45
Q 135.15 84.3 135.55 85.15
L 133.7 85.85
Q 133.5 85.9 133.4 86.2 133.25 86.4 133.35 86.6 133.6 87 133.95 87
L 134.15 86.95 135.95 86.25
Q 136.3 87.1 136.55 88
L 134.75 88.55
Q 134.2 88.8 134.35 89.3 134.55 89.7 134.9 89.7
L 136.95 89.1
Q 137.15 90 137.4 90.9
L 135.6 91.3
Q 134.95 91.5 135.15 92 135.25 92.5 135.7 92.5
L 135.85 92.45 137.7 92
Q 137.9 92.9 138.05 93.8
L 136.25 94.15
Q 135.6 94.25 135.7 94.85 135.8 95.3 136.35 95.3
L 136.4 95.3 138.25 95
Q 138.35 95.85 138.5 96.8
L 136.65 97
Q 136.1 97.1 136.15 97.65 136.15 98.15 136.7 98.15
L 136.75 98.15 138.6 98
Q 138.65 98.9 138.7 99.8
L 136.9 99.85
Q 136.35 99.85 136.35 100.5 136.35 101.05 136.9 101.05
L 138.7 101
Q 138.7 101.4 138.7 101.85 138.7 102.3 138.7 102.85
L 136.95 102.8
Q 136.35 102.7 136.35 103.3 136.35 103.85 136.9 103.95
L 138.7 104
Q 138.65 104.9 138.6 105.85
L 136.75 105.65
Q 136.2 105.55 136.1 106.15 136.1 106.75 136.65 106.8
L 138.45 107
Q 138.35 107.9 138.2 108.8
L 136.35 108.45
Q 136.15 108.4 135.95 108.6 135.75 108.75 135.7 109 135.6 109.55 136.2 109.65
L 138 109.95
Q 137.9 110.85 137.7 111.75
L 135.85 111.35
Q 135.3 111.15 135.1 111.75 135 112.25 135.55 112.45
L 137.4 112.95
Q 137.15 113.85 136.9 114.7
L 135.05 114.1
Q 134.5 113.9 134.35 114.5 134.15 115.1 134.75 115.25
L 136.55 115.8
Q 136.25 116.7 135.9 117.55
L 134.1 116.85
Q 133.5 116.65 133.35 117.15 133.15 117.7 133.7 117.9
L 135.5 118.6
Q 135.1 119.45 134.7 120.35
L 133 119.5
Q 132.8 119.35 132.5 119.45 132.3 119.5 132.2 119.75 131.95 120.3 132.45 120.55
L 134.15 121.4
Q 133.75 122.2 133.3 123
L 131.65 122.05
Q 131.1 121.75 130.9 122.3 130.55 122.75 131.05 123.1
L 132.7 124
Q 132.2 124.8 131.7 125.6
L 130.15 124.5
Q 129.65 124.2 129.3 124.7 129.1 125.2 129.5 125.5
L 131.05 126.5
Q 130.5 127.25 129.95 128
L 128.5 126.9
Q 128.05 126.45 127.7 127 127.35 127.4 127.75 127.8
L 129.2 128.9
Q 128.6 129.6 128 130.3
L 126.7 129.1
Q 126.2 128.75 125.85 129.15 125.4 129.55 125.9 130
L 127.25 131.15
Q 126.65 131.8 126.1 132.35 126.05 132.4 125.95 132.5
L 124.7 131.2
Q 124.35 130.85 123.85 131.15 123.45 131.75 123.85 132
L 125.1 133.35
Q 124.45 133.95 123.75 134.55
L 122.55 133.15
Q 122.25 132.7 121.75 133.1 121.25 133.45 121.65 133.9
L 122.85 135.3
Q 122.15 135.9 121.45 136.5
L 120.3 135
Q 119.95 134.5 119.5 134.85 119.05 135.15 119.35 135.7
L 120.45 137.2
Q 119.7 137.7 118.95 138.2
L 117.95 136.6
Q 117.55 136.1 117.15 136.45 116.65 136.8 116.95 137.25
L 117.95 138.85
Q 117.15 139.3 116.4 139.75
L 115.45 138.1
Q 115.2 137.55 114.65 137.85 114.2 138.15 114.45 138.65
L 115.3 140.35
Q 115.2 140.4 115.15 140.45 114.45 140.8 113.65 141.2
L 112.85 139.4
Q 112.85 139.15 112.55 139.1 112.3 139 112.1 139.1 111.55 139.4 111.8 139.85
L 112.6 141.65
Q 111.75 142 110.9 142.3
L 110.25 140.5
Q 110 140 109.45 140.15 108.95 140.4 109.1 140.9
L 109.75 142.75
Q 108.9 143 108.05 143.3
L 107.45 141.4
Q 107.4 141.25 107.2 141.1 107 141 106.75 141.05 106.15 141.25 106.4 141.8
L 106.9 143.6
Q 106 143.8 105.1 144
L 104.7 142.15
Q 104.6 141.6 104 141.7 103.45 141.85 103.5 142.4
L 103.95 144.25
Q 103.05 144.4 102.15 144.55
L 101.9 142.7
Q 101.85 142.5 101.65 142.3 101.45 142.15 101.2 142.2 100.6 142.3 100.7 142.85
L 101 144.7
Q 100.05 144.8 99.1 144.9
L 99 143.05
Q 98.9 142.5 98.35 142.5 98.1 142.5 98 142.7 97.8 142.85 97.85 143.1
L 98 144.95
Q 97.05 145 96.1 145
L 96.1 143.2
Q 96.1 142.6 95.55 142.6 94.9 142.6 94.9 143.2
L 94.9 145
Q 94 145 93.15 144.95
L 93.25 143.1
Q 93.25 142.5 92.65 142.5 92.45 142.45 92.25 142.65 92.05 142.8 92.05 143.05
L 91.95 144.9
Q 91 144.8 90.15 144.7
L 90.35 142.85
Q 90.35 142.3 89.85 142.2 89.6 142.15 89.4 142.3 89.25 142.45 89.2 142.7
L 88.95 144.5
Q 88 144.4 87.1 144.25
L 87.5 142.4
Q 87.6 141.9 87.05 141.7 86.45 141.6 86.35 142.1
L 86 144
Q 85.05 143.8 84.2 143.6
L 84.7 141.75
Q 84.85 141.2 84.3 141 83.75 140.8 83.55 141.4
L 83.05 143.25
Q 82.15 142.95 81.3 142.7
L 81.95 140.85
Q 82.15 140.35 81.55 140.1 81.4 140.05 81.15 140.15 80.9 140.3 80.8 140.45
L 80.15 142.3
Q 79.3 141.95 78.45 141.6
L 79.2 139.8
Q 79.45 139.35 78.95 139.05 78.4 138.85 78.15 139.35
L 77.4 141.15
Q 76.7 140.8 76.05 140.45 75.9 140.35 75.75 140.3
L 76.65 138.6
Q 76.85 138.1 76.4 137.8 75.9 137.55 75.6 138.05
L 74.7 139.7
Q 73.9 139.3 73.15 138.85
L 74.1 137.2
Q 74.25 137 74.2 136.7 74.15 136.5 73.9 136.4 73.7 136.25 73.45 136.3 73.2 136.4 73.1 136.55
L 72.15 138.15
Q 71.35 137.65 70.6 137.15
L 71.7 135.65
Q 72.05 135.1 71.55 134.8 71.1 134.45 70.75 134.95
L 69.7 136.45
Q 68.95 135.85 68.25 135.25
L 69.4 133.85
Q 69.8 133.4 69.35 133.05 68.9 132.65 68.5 133.1
L 67.35 134.5
Q 66.65 133.9 65.95 133.3
L 67.25 131.95
Q 67.6 131.55 67.2 131.1 67.05 130.95 66.8 130.95 66.6 130.95 66.4 131.1
L 65.1 132.45
Q 65.1 132.4 65.05 132.35 64.4 131.75 63.85 131.1
L 65.2 129.9
Q 65.65 129.5 65.2 129.1 65.1 128.9 64.85 128.9 64.6 128.85 64.4 129.05
L 63.05 130.3
Q 62.45 129.55 61.9 128.85
L 63.3 127.75
Q 63.75 127.3 63.45 126.9 63 126.45 62.6 126.8
L 61.2 127.95
Q 60.55 127.2 60.05 126.45
L 61.6 125.4
Q 62 125.05 61.75 124.6 61.45 124.1 60.9 124.4
L 59.35 125.5
Q 58.85 124.75 58.35 123.95
L 60 123
Q 60.5 122.6 60.25 122.2 59.9 121.7 59.45 121.95
L 57.8 122.95
Q 57.3 122.1 56.9 121.3
L 58.65 120.45
Q 58.85 120.35 58.9 120.1 59 119.85 58.85 119.65 58.65 119.2 58.1 119.35
L 56.4 120.25
Q 55.95 119.4 55.65 118.55
L 57.4 117.8
Q 57.65 117.75 57.75 117.55 57.85 117.25 57.75 117.05 57.65 116.85 57.4 116.75 57.2 116.65 56.95 116.75
L 55.15 117.5
Q 54.85 116.6 54.55 115.75
L 56.45 115.15
Q 56.9 115 56.8 114.4 56.5 113.85 56.05 114
L 54.2 114.6
Q 53.95 113.75 53.7 112.85
L 55.55 112.35
Q 56.15 112.25 55.95 111.65 55.9 111.45 55.7 111.3 55.55 111.2 55.3 111.25
L 53.4 111.7
Q 53.25 110.8 53.1 109.9
L 54.9 109.55
Q 55.5 109.45 55.4 108.85 55.3 108.3 54.75 108.4
L 52.9 108.75
Q 52.75 107.8 52.65 106.85
L 54.5 106.7
Q 55.1 106.7 55 106.05 54.9 105.45 54.35 105.55
L 52.55 105.75
Q 52.5 104.8 52.45 103.9
L 54.25 103.8
Q 54.85 103.8 54.85 103.2 54.85 102.65 54.2 102.65
L 52.4 102.75
Q 52.4 102.25 52.4 101.85 52.4 101.35 52.4 100.9
L 54.2 100.95
Q 54.85 100.95 54.85 100.4 54.85 100.15 54.65 99.95 54.5 99.75 54.25 99.75
L 52.45 99.75
Q 52.5 98.8 52.55 97.9
L 54.35 98.1 54.45 98.1
Q 55 98.1 55 97.5 55.05 97.3 54.9 97.1 54.75 96.9 54.5 96.9
L 52.65 96.7
Q 52.75 95.8 52.9 94.9
L 54.75 95.2 54.85 95.2
Q 55.3 95.2 55.45 94.7 55.5 94.45 55.35 94.25 55.15 94.1 54.9 94.05
L 53.1 93.75
Q 53.25 92.8 53.45 91.9
L 55.3 92.35 55.45 92.4
Q 55.9 92.4 56 91.9 56.2 91.4 55.6 91.2
L 53.75 90.75
Q 53.95 89.85 54.2 89
L 56.25 89.6
Q 56.65 89.6 56.8 89.2 56.9 89 56.75 88.75 56.65 88.55 56.45 88.45
L 54.6 87.9
Q 54.9 87 55.2 86.15
L 57.05 86.85 57.25 86.9
Q 57.65 86.9 57.75 86.5 58 86.05 57.45 85.75
L 55.7 85.05
Q 56 84.15 56.45 83.35
L 58.15 84.2 58.4 84.25
Q 58.8 84.25 58.9 83.95 59.2 83.35 58.7 83.15
L 56.95 82.35
Q 57.35 81.5 57.85 80.7
L 59.5 81.65 59.75 81.7
Q 60.15 81.7 60.3 81.4 60.55 80.95 60.05 80.6
L 58.4 79.7
Q 58.85 78.9 59.45 78.1
L 61 79.2 61.3 79.3
Q 61.65 79.3 61.8 79 62.1 78.6 61.65 78.2
L 60.1 77.15
Q 60.6 76.4 61.2 75.65
L 62.65 76.8
Q 62.75 76.95 63 76.95 63.35 76.95 63.5 76.75 63.8 76.25 63.4 75.9
L 61.95 74.75
Q 62.5 74.05 63.15 73.35
L 64.45 74.6
Q 64.7 74.7 64.85 74.7 65.1 74.7 65.3 74.55 65.7 74.05 65.25 73.75
L 63.9 72.5
Q 64.45 71.9 65.05 71.35 65.1 71.25 65.15 71.2
L 66.45 72.5
Q 66.65 72.65 66.85 72.65 67.15 72.65 67.3 72.5 67.7 72.1 67.3 71.65
L 66 70.4
Q 66.65 69.75 67.4 69.15
L 68.55 70.55
Q 68.85 70.75 69 70.75 69.2 70.75 69.4 70.6 69.85 70.2 69.45 69.8
L 68.25 68.4
Q 69 67.75 69.75 67.25
L 70.8 68.7
Q 71.05 68.95 71.3 68.95 71.55 68.95 71.65 68.85 72.15 68.5 71.8 68
L 70.65 66.55
Q 71.4 66 72.2 65.45
L 73.2 67.05
Q 73.35 67.35 73.7 67.35 73.9 67.35 74 67.25 74.5 66.9 74.2 66.45
L 73.2 64.85
Q 73.95 64.35 74.75 63.9
L 75.65 65.6
Q 75.9 65.95 76.2 65.95
L 76.45 65.85
Q 77 65.6 76.75 65.05
L 75.85 63.35
Q 76.65 62.95 77.45 62.55
L 78.25 64.3
Q 78.4 64.65 78.8 64.65
L 79.05 64.6
Q 79.55 64.4 79.3 63.8
L 78.5 62.1
Q 79.35 61.7 80.25 61.35
L 80.9 63.2
Q 81.05 63.6 81.45 63.6
L 81.65 63.55
Q 81.9 63.45 82 63.25 82.1 62.95 82 62.8
L 81.35 61
Q 82.25 60.65 83.1 60.45
L 83.65 62.25
Q 83.85 62.7 84.2 62.7
L 84.4 62.65
Q 84.6 62.6 84.7 62.35 84.85 62.15 84.75 61.95
L 84.25 60.1
Q 85.15 59.85 86.05 59.7
L 86.4 61.5
Q 86.55 62 87 62
L 87.1 62
Q 87.75 61.8 87.6 61.3
L 87.2 59.45
Q 88.1 59.25 89.05 59.15
L 89.3 61
Q 89.35 61.45 89.85 61.45
L 89.95 61.45
Q 90.55 61.35 90.45 60.8
L 90.2 59
Q 91.1 58.9 92.05 58.85
L 92.15 60.6
Q 92.15 61.2 92.7 61.2
L 92.75 61.2
Q 93.3 61.2 93.3 60.6
L 93.25 58.75
Q 94.05 58.7 95 58.7
L 95 60.5
Q 95 61.1 95.65 61.1 96.25 61.1 96.25 60.5
L 96.25 58.7
Q 97.2 58.7 98.05 58.75
L 97.95 60.6
Q 97.85 61.2 98.45 61.2
L 98.5 61.2
Q 99 61.2 99.1 60.65
L 99.25 58.85
Q 100.15 58.9 101.1 59
L 100.8 60.8
Q 100.7 61.45 101.25 61.45
M 94.75 123.3
L 97.3 123.3 97.3 122 93.45 122 93.45 126.35 89.6 126.35 89.6 127.65 94.75 127.65 94.75 123.3
M 115 104.6
Q 114.1947265625 103.622265625 113.2 102.85 113.4357421875 103.12734375 113.65 103.4 116.25 106.6 115.95 110.7 115.55 115 112.25 118.05 108.6 121.45 102.45 121.95
L 102.45 126.35 98.55 126.35 98.55 127.65 103.65 127.65 103.65 123.2
Q 109.8 122.65 113.55 119.3 116.8 116.25 117.2 112 117.55 107.8 115 104.6
M 79.95 122
L 79.95 123.3 88.35 123.3 88.35 122 79.95 122
M 115.25 92.65
Q 116.366796875 87.46796875 112.55 84.25 114.872265625 87.1568359375 114 91.3 112.8 97.3 105.9 99.2
L 105.9 99.3
Q 107.4291015625 99.48359375 108.75 99.95 114.1494140625 97.8447265625 115.25 92.65
M 102.45 79.9
Q 103.0640625 79.9443359375 103.65 80
L 103.65 76.55 102.45 76.55 102.45 79.9
M 84 88
L 84 86.75 79.95 86.75 79.95 88 84 88
M 94.75 79.6
L 94.75 76.55 93.45 76.55 93.45 79.6 94.75 79.6
M 105.15 106.5
Q 104.728125 105.845703125 104 105.25 102.5 104.15 100 103.9 99.35 103.85 93.6 103.85
L 93.6 115 94.85 115 94.85 105.1
Q 100.35 105.1 101.2 105.2 103.7349609375 105.3490234375 105.15 106.5
M 94.85 88
L 98.45 88
Q 101.8810546875 88 103.6 89.1 102.2275390625 86.7 97.2 86.7
L 93.6 86.7 93.6 96.75 94.85 96.75 94.85 88 Z"/>

<path fill="url(#Gradient_1)" stroke="none" d="
M 120.5 76.95
Q 110.2 66.65 95.6 66.65 80.95 66.65 70.65 76.95 60.35 87.25 60.35 101.85 60.35 116.45 70.65 126.75 81 137.1 95.6 137.1 110.15 137.1 120.5 126.75 130.8 116.45 130.8 101.85 130.8 87.25 120.5 76.95
M 97.3 79.65
L 97.3 75.3 102.45 75.3 102.45 76.55 103.65 76.55 103.65 80
Q 107.6923828125 80.5095703125 110.4 82.3 111.7111328125 83.2013671875 112.55 84.25 116.366796875 87.46796875 115.25 92.65 114.1494140625 97.8447265625 108.75 99.95 111.40234375 100.85546875 113.2 102.85 114.1947265625 103.622265625 115 104.6 117.55 107.8 117.2 112 116.8 116.25 113.55 119.3 109.8 122.65 103.65 123.2
L 103.65 127.65 98.55 127.65 98.55 126.35 97.3 126.35 97.3 123.3 94.75 123.3 94.75 127.65 89.6 127.65 89.6 126.35 88.35 126.35 88.35 123.3 79.95 123.3 79.95 122 78.65 122 78.65 115 84 115 84 88 79.95 88 79.95 86.75 78.65 86.75 78.65 79.7 88.35 79.65 88.35 75.3 93.45 75.3 93.45 76.55 94.75 76.55 94.75 79.6 97.3 79.65
M 105.6 111.1
Q 106.4455078125 108.453125 105.15 106.5 103.7349609375 105.3490234375 101.2 105.2 100.35 105.1 94.85 105.1
L 94.85 115 98.75 115
Q 104.25 115 105.6 111.1
M 98.45 88
L 94.85 88 94.85 96.75 97.8 96.75
Q 100.65 96.75 102.3 95.45 104.15 94 104.15 91.35 104.15 90.063671875 103.6 89.1 101.8810546875 88 98.45 88 Z"/>

<path fill="url(#Gradient_2)" stroke="none" d="
M 97.3 75.3
L 97.3 79.65 94.75 79.6 93.45 79.6 93.45 76.55 93.45 75.3 88.35 75.3 88.35 79.65 78.65 79.7 78.65 86.75 79.95 86.75 84 86.75 84 88 84 115 78.65 115 78.65 122 79.95 122 88.35 122 88.35 123.3 88.35 126.35 89.6 126.35 93.45 126.35 93.45 122 97.3 122 97.3 123.3 97.3 126.35 98.55 126.35 102.45 126.35 102.45 121.95
Q 108.6 121.45 112.25 118.05 115.55 115 115.95 110.7 116.25 106.6 113.65 103.4 113.4357421875 103.12734375 113.2 102.85 111.40234375 100.85546875 108.75 99.95 107.4291015625 99.48359375 105.9 99.3
L 105.9 99.2
Q 112.8 97.3 114 91.3 114.872265625 87.1568359375 112.55 84.25 111.7111328125 83.2013671875 110.4 82.3 107.6923828125 80.5095703125 103.65 80 103.0640625 79.9443359375 102.45 79.9
L 102.45 76.55 102.45 75.3 97.3 75.3
M 97.8 96.75
L 94.85 96.75 93.6 96.75 93.6 86.7 97.2 86.7
Q 102.2275390625 86.7 103.6 89.1 104.15 90.063671875 104.15 91.35 104.15 94 102.3 95.45 100.65 96.75 97.8 96.75
M 105.15 106.5
Q 106.4455078125 108.453125 105.6 111.1 104.25 115 98.75 115
L 94.85 115 93.6 115 93.6 103.85
Q 99.35 103.85 100 103.9 102.5 104.15 104 105.25 104.728125 105.845703125 105.15 106.5 Z"/>

<path fill="#FFEC48" stroke="none" d="
M 72.1 54.6
L 71.4 54.4 70.75 54.05 70.75 54 71 52.45
Q 70.25 53.35 70 53.5
L 69.9 53.5
Q 68.75 52.5 68.25 51.9
L 69 53.95 69 54.05 68.95 54.05
Q 67.25 53.6 65.85 53.1
L 68.45 54.45 66.65 55.95 69 54.7 68.6 57.7
Q 69.4 55.7 69.8 55.25
L 69.85 55.2 69.85 55.25 71.15 57.3
Q 70.6 55.8 70.6 55.05
L 70.6 55
Q 70.65 55 71 54.8 71.45 54.65 72.1 54.6
M 42.35 47
L 42.6 47.05 42.4 47.25 38.7 51.55
Q 40.6 50.5 44.2 49.25
L 44.3 49.15 44.4 49.25
Q 45.05 50 46 52.65
L 46.7 48.65 46.75 48.6
Q 47.55 48.3 48.7 48.3
L 50.45 48.45
Q 49 47.8 48 46.9 47.3 46.2 47.25 46.15
L 47.2 46.05 47.25 46
Q 47.85 44.15 50.45 41
L 45.7 44.85 45.55 44.9 45.5 44.75
Q 45.3 44.25 44.7 37.8
L 43.1 45.4 38.45 40.3 41.6 45.55 34 46.5
Q 36.5 46.5 39.6 46.75 42.3 46.95 42.35 47
M 147.4 87.9
L 147.35 87.9
Q 146.2 86.95 145.65 86.3
L 146.5 88.5 146.4 88.45
Q 145.9 88.45 143.25 87.55
L 145.9 88.85 144.1 90.4 146.45 89.1 146 92.1 147.25 89.65 147.3 89.6 147.35 89.65 148.6 91.75
Q 148.05 90.4 148.05 89.5
L 148.05 89.45 148.1 89.45
Q 148.1 89.4 148.45 89.2 148.9 89 149.55 88.95
L 148.9 88.8
Q 148.3 88.55 148.2 88.45
L 148.15 88.4 148.45 86.85
Q 147.7 87.75 147.4 87.9
M 98.35 43.1
L 97.9 42.85 97.9 42.8 98.05 41.75
Q 97.4 42.4 97.3 42.45
L 97.3 42.5 97.25 42.45
Q 96.45 41.8 96.1 41.3
L 96.65 42.75 96.65 42.85 96.55 42.85 94.4 42.2 96.3 43.15 94.95 44.15 96.65 43.35 96.35 45.45
Q 96.95 44 97.2 43.7
L 97.2 43.65 97.25 43.7 98.1 45.1
Q 97.75 44 97.75 43.5
L 97.8 43.5 98 43.35
Q 98.4 43.25 98.8 43.2
L 98.35 43.1
M 126.35 47.9
L 125.2 48.2
Q 126.3 48.3 127.15 48.65 127.75 48.85 127.85 49
L 127.9 49 127.9 49.05
Q 127.9 50.5 126.95 53.15
L 129.3 49.35 129.35 49.5
Q 129.7 49.8 131.55 53.9
L 130.8 48.5 135.05 50.75 131.7 48.05 136.5 45.65
Q 130.95 47.25 130.9 47.25
L 130.75 47.3 130.8 47.1 132.2 43.35
Q 131.65 44.1 130.35 45.2 129.2 46.2 129.15 46.25
L 129.1 46.3 129 46.25
Q 128.25 45.75 127.15 44.35
L 127.65 47.2 127.6 47.25
Q 127.05 47.65 126.35 47.9 Z"/>
</g>
</defs>

<g transform="matrix( 1, 0, 0, 1, 0,0) ">
<g transform="matrix( 1, 0, 0, 1, 0,0) ">
<g transform="matrix( 1, 0, 0, 1, 0,0) ">
<use filter="url(#Filter_1)" xlink:href="#Symbol_1_0_Layer0_0_FILL"/>
</g>
</g>

<g transform="matrix( 1, 0, 0, 1, 0,0) ">
<use xlink:href="#stiker_222222_copy_12_0_Layer5_0_FILL"/>
</g>
</g>
</svg>
