
<svg xmlns="http://www.w3.org/2000/svg" version="1.1" xmlns:xlink="http://www.w3.org/1999/xlink" preserveAspectRatio="none" x="0px" y="0px" width="200px" height="200px" viewBox="0 0 200 200">
<defs>
<filter id="Filter_1" x="-20%" y="-20%" width="140%" height="140%" color-interpolation-filters="sRGB">
<feColorMatrix in="SourceGraphic" type="matrix" values="1 0 0 0 0 0 1 0 0 0 0 0 1 0 0 0 0 0 0 0" result="result1"/>
</filter>

<g id="Symbol_1_0_Layer0_0_FILL">
<path fill="#93A2AE" fill-opacity="0" stroke="none" d="
M 0 0
L 0 200 200 200 200 0 0 0 Z"/>
</g>

<g id="stiker_222222_copy_14_0_Layer5_0_FILL">
<path fill="#4E4E4D" stroke="none" d="
M 165.6 75.95
Q 165.6 63.55 163.7 53 161 37.9 154.7 29.25 150.8 23.85 144.35 19.4 137.9 14.9 130 12.15
L 129.8 12.05
Q 114.1 6.5 97.05 6.5 70.95 6.5 53.3 19.2 32 34.45 32 63.4
L 32 144.95
Q 30.85 144.8 29.7 144.8 26.45 144.8 24 145.85 21.5 146.9 20.4 148.75 18.6 151.55 20.55 155.5
L 20.6 155.65 21.2 156.5
Q 18.5 158.8 18.25 162.2 12.15 165.6 11.8 169.2 11.6 171.75 14.25 174.2 12.15 180.15 15.05 184.55 17 187.35 20.75 188.45 23.45 189.25 27.8 189.25 30.6 189.25 33.25 189.1 38.25 188.8 40.9 188.95 42.85 189.1 46.2 189.95 50.75 191.05 53.55 191.25 55.15 191.4 57.3 191.4 60.35 191.4 66.9 191.1 71.95 190.85 75.2 190.85
L 75.7 190.85
Q 79.35 190.85 87.1 191.15 94.05 191.5 99.7 191.5
L 100.75 191.5
Q 107.1 191.45 123.9 190.5
L 148.4 189.4
Q 161.4 189.05 168.25 188.6 177.15 188 181.55 186.2 186.8 184.05 187.75 179.35 188.55 175.5 185.65 171.2 183.9 168.55 178.3 162.8
L 177.45 161.95
Q 174.3 158.6 172.1 157.15 169.95 154.8 167.6 153.25
L 165.75 152.15 165.55 145.2 165.6 144.95 165.6 75.95
M 162.45 51.5
Q 164.6 62.6 164.6 75.95
L 164.6 144.95 164.55 144.95 164.75 152.75
Q 166.2 153.45 167.05 154.1 169.4 155.6 171.45 157.95 173.4 159.25 176.75 162.65 182.8 168.85 184.45 171.2 187.5 175.45 186.8 179.15 186 183.15 181.6 185.1 177.3 187 168.2 187.6 162.95 187.95 151.75 188.3 138.3 188.75 134.3 188.95 123.15 189.55 117.35 189.9 106.9 190.45 100.75 190.5 95.9 190.55 87.65 190.2 79.35 189.85 75.2 189.85 73.2 189.85 64.05 190.2 56.75 190.5 53.65 190.25 50.7 190.05 46.75 189.05 42.95 188.05 40.95 187.95 31.45 188.35 26.85 188.25 18.75 188.05 15.85 183.95 13.1 179.8 15.45 173.85 8.6 168.45 19.25 162.8 19.2 159.05 22.55 156.7
L 21.45 155.15
Q 18.9 149.95 23.25 147.35 27.15 145 33 146.15
L 33 63.4
Q 33 44.4 42.55 31.15 51.1 19.2 66.5 13 80.6 7.35 97.8 7.45 114.35 7.55 129.45 13
L 129.45 13.05
Q 137.25 15.7 143.65 20.1 150.1 24.55 153.9 29.8 159.7 37.8 162.45 51.5
M 107.8 109.45
L 106.7 109.45
Q 101.35 109.95 99.45 109.7 98.3 109.55 97.55 109.5 97.35 109.85 97.5 110.2 97.7 110.7 98.35 110.75 108.85 110.2 107.8 109.45
M 74.6 133.75
Q 71.6 134.2 71 134.25 70.05 134.3 69.45 133.95
L 67.9 132.65
Q 67.95 132.15 67.45 131.25 67.2 130.65 67.1 130.45 67.05 130.6 67.05 130.75 67.05 130.85 67.15 131.2 67.25 131.65 67.45 132.6 67.8 134.3 67.8 135.1
L 68.15 135.65
Q 68.8 136.25 70.4 136.35 72.35 136.65 75.5 136.5 76.4 136.5 76.95 136.6 77.6 136.75 79.25 136.75 89.6 136.85 111.25 136.65 112.3 136.65 113.35 135.8 114.3 135 114.7 133.95 114.75 133.8 114.75 120.15 114.65 118.2 114.75 116.9 114.85 115.1 114.85 113.85 114.85 113.15 114.6 112.65 114.45 112.35 113.9 111.7 113.4 111.05 112.05 110.3
L 111.65 110.1
Q 111.8 110.2 112 110.4 112.95 111.35 112.95 112.65
L 112.95 113.85
Q 112.95 113.95 112.95 114.75 112.95 115.3 112.85 115.6
L 112.1 117.2
Q 111.75 119.45 112.2 119.45 112.85 119.4 112.55 121.75 112.55 122.05 112.9 123.7 113.1 124.95 113.05 126.2 112.85 131.95 112.75 132.15 112.4 133.1 111.6 133.7 110.75 134.3 109.7 134.3 88.7 134.55 78.5 134.4 77.15 134.4 77.2 133.8 77.2 133.35 74.6 133.75
M 84.15 128.85
L 87 128.85 87 126.2 84.15 126.2 84.15 128.85
M 94.3 126.2
L 94.3 128.85 97.05 128.85 97.05 126.2 94.3 126.2
M 92.2 116.85
L 89 116.85 89 128.85 92.2 128.85 92.2 116.85
M 106.2 117.55
Q 105.2 116.85 102.25 116.85
L 99.05 116.85 99.05 128.85 102.2 128.85 102.2 125.4 102.75 125.4
Q 105.25 125.4 106.2 124.75 107.15 124.15 107.15 122.35
L 107.15 119.9
Q 107.15 118.2 106.2 117.55
M 103.9 122.4
Q 103.9 122.9 103.7 123.05 103.55 123.25 102.95 123.25
L 102.2 123.25 102.2 118.95 102.95 118.95
Q 103.55 118.95 103.7 119.1 103.9 119.3 103.9 119.8
L 103.9 122.4
M 77.1 116.85
L 73.8 116.85 73.8 128.85 77 128.85 77 124.7 77.55 124.7
Q 78.3 124.7 78.5 124.95 78.8 125.2 78.8 125.8
L 78.8 128.85 81.95 128.85 81.95 125.7
Q 81.95 124.65 81.4 124.3 80.8 123.7 79.8 123.65 80.95 123.45 81.5 122.9 82 122.4 82 121.3
L 82 119.9
Q 82 118.15 81.05 117.55 80.05 116.85 77.1 116.85
M 77 118.95
L 77.8 118.95
Q 78.4 118.95 78.6 119.1 78.8 119.3 78.8 119.8
L 78.8 121.8
Q 78.8 122.35 78.6 122.5 78.4 122.65 77.8 122.65
L 77 122.65 77 118.95
M 67.45 112.8
Q 67.4 112.95 67.4 113.15
L 67.2 125.35
Q 67.3 124.85 67.9 124.8 68.35 124.75 68.3 123.25 68.3 122.6 68.05 121.9 67.9 121.45 68.1 120.65 68.3 120.05 68.4 118.75 68.5 118.05 68.8 118 68.95 118 68.8 116.75 68.6 115.45 68.15 113.9 68.05 113.6 67.7 113.2 67.5 113 67.45 112.8
M 60 41.8
Q 60.225 41.5 60.45 41.2 58.187890625 43.81875 56.55 46.95 55.3 49.3 54.7 51.25 54.85 51 55 50.95 56.4 50.55 56.9 49.7 58.2 47.15 58.55 46.65 59.55 45.3 59.65 43.7 59.65 42.35 59.7 42.2 59.8 42.05 60 41.8
M 95.35 28.2
Q 94.45 28.1 93.45 28 98.25 28.65 102.7 30.55 109.2 33.3 114.2 38.3 119.2 43.35 121.95 49.85 124.8 56.55 124.8 63.85 124.8 71.2 121.95 77.9 119.2 84.4 114.2 89.4 109.2 94.4 102.7 97.2 96 100 88.65 100 81.3 100 74.6 97.2 68.1 94.4 63.1 89.4 58.05 84.4 55.35 77.9 53.35 73.35 52.75 68.5 54.35 83.6 65.05 93 76.05 102.6 91.65 102.4 106.65 102.2 116.85 93.1 128.35 82.8 128.4 65 128.4 57.45 125.45 50.55 122.55 43.95 117.3 38.8 112.05 33.65 105.25 30.85 100.45 28.85 95.35 28.2
M 88.65 56.85
L 88.65 72.6 103.85 64.75 88.65 56.85 Z"/>

<path fill="#FFFFFF" stroke="none" d="
M 164.6 75.95
Q 164.6 62.6 162.45 51.5 159.7 37.8 153.9 29.8 150.1 24.55 143.65 20.1 137.25 15.7 129.45 13.05
L 129.45 13
Q 114.35 7.55 97.8 7.45 80.6 7.35 66.5 13 51.1 19.2 42.55 31.15 33 44.4 33 63.4
L 33 146.15
Q 27.15 145 23.25 147.35 18.9 149.95 21.45 155.15
L 22.55 156.7
Q 19.2 159.05 19.25 162.8 8.6 168.45 15.45 173.85 13.1 179.8 15.85 183.95 18.75 188.05 26.85 188.25 31.45 188.35 40.95 187.95 42.95 188.05 46.75 189.05 50.7 190.05 53.65 190.25 56.75 190.5 64.05 190.2 73.2 189.85 75.2 189.85 79.35 189.85 87.65 190.2 95.9 190.55 100.75 190.5 106.9 190.45 117.35 189.9 123.15 189.55 134.3 188.95 138.3 188.75 151.75 188.3 162.95 187.95 168.2 187.6 177.3 187 181.6 185.1 186 183.15 186.8 179.15 187.5 175.45 184.45 171.2 182.8 168.85 176.75 162.65 173.4 159.25 171.45 157.95 169.4 155.6 167.05 154.1 166.2 153.45 164.75 152.75
L 164.55 144.95 164.6 144.95 164.6 75.95
M 167.6 162.55
Q 168.6 163.15 169.55 163.9 170.4 164.65 173.45 167.7 177.2 171.6 178.3 172.9 180.95 175.95 180.95 177.65 180.95 179.5 177.6 180.4 174.7 181.2 167.8 181.65 162.9 182 152.25 182.35 138.4 182.8 134.05 183 132.2 183.1 116.45 183.95 106.4 184.5 100.7 184.55 95.4 184.6 87.3 184.25 78.65 183.9 75.2 183.9 72.4 183.9 63.6 184.3 57.05 184.6 54.1 184.35 51.55 184.15 47.7 183.15 43.95 182.2 41.3 182.05 38.8 181.9 32.35 182.15 26.35 182.4 24.3 182.15 21.6 181.8 20.8 180.6 20.25 179.85 20.4 178.35 20.5 177.15 20.9 176.25 21.3 175.2 22.4 173.65 23.2 172.6 24 171.7 22.1 171.15 20.3 170.05 18.75 169.05 26.75 165.9 27.9 165.45 28.95 165.1 26.4 164.35 25.55 163.4 23.65 161.45 30.3 160.25 31 160.1 31.55 160.05 31.3 159.15 31.15 158.05 30.8 155.6 28.3 153.75 26.45 152.35 26.95 152.1 29.4 150.9 33.65 152.45 35.6 153.15 37.1 154.35 37.1 152.5 38.4 152.8 38.7 152.85 39.05 153 39.05 152.9 39.05 152.75
L 38.95 79.85 38.95 78.9 40.6 78.35 40.35 75.95 38.95 73.2 38.95 70.35 38.95 63.4
Q 38.95 39.95 53 26.9 53.7 26.25 54.4 25.7 60.2 20.75 67.5 17.95
L 87.55 14.05
Q 87.85 14 88.2 14 88.3 14 88.4 14
L 88.55 14
Q 89.45 13.95 90.4 13.95 93.25 13.95 95.95 14.15 112.85 13.4 127.45 18.65 142.25 23.9 149.1 33.3 153.9 39.85 156.35 51.4 157.25 55.65 157.8 60.35
L 158.6 71.25
Q 159 79 158.7 87
L 158.95 156.85
Q 161.15 157.45 162.75 158.35 165.35 159.85 167.6 162.55 Z"/>

<path fill="#679334" stroke="none" d="
M 134.45 181.25
Q 133.05 181.4 131.75 181.35 131.45 181.35 131.25 181.3 131.9 181.75 134.45 181.25
M 156.1 171.95
Q 156.1 171.8984375 156.1 171.85
L 156.05 171.85
Q 156.0984375 171.8984375 156.1 171.95
M 155.3 160.45
Q 155.6 158.75 155.7 158.7 155.65 158.45 155.6 158.15 155.25 156.2 153.75 157.9 153.05 158.75 151.5 160.95 151.15 161.35 150.8 161.9 150.7 162.05 148 165.4 146.85 166.8 146.65 166.6 145.35 165.25 144.4 164.15 143.4 163.05 142.6 162.25 141.55 161.2 140.95 160.55 138.5 158.05 138.35 159 137.65 162.9 139.3 165.7 139.95 166.9 141.1 167.8 138.45 166.85 134.9 167.6 133.25 168 129.25 169.5 127.8 170 132.05 171.4 136.35 172.85 140.85 171.85 137.3 173.4 134.6 175.75 131.9 178.2 131.05 180.65 135.85 180.45 142.3 176.65 147.85 172.85 147.85 172.8
L 150.75 174.65
Q 154 176.55 156.2 176.55 156.8 176.55 155.1 173.75 153.3 170.8 151.05 169.35 150.9 169.2 152.6 169.4 154.85 169.7 155.5 169.65 156.55 169.55 159.1 169.3 161 169.05 160.3 168.5 158.3 167.05 154.65 167.1
L 151.3 167.45
Q 152.3 166.65 152.8 166.1 153.1 165.8 153.8 164.7 154.75 163.4 155.3 160.45
M 107.45 172.7
Q 108.8 170.05 109.5 166.7 109.45 166.3 109.45 165.9 109.2 161.15 107.65 160.3 107.1 159.95 105.85 164.7 105.65 165.4 105.5 166.1 104.2 170.85 102.5 174.15 102.2 174.75 101.9 175.3 101.75 174.7 101.65 174.15 100.15 168.15 99.2 165.25 98.4 162.95 97.95 162.55 97.2 161.9 96.6 165.1 96.2 167.4 95.85 171.7 95.65 173.4 95.9 174.7 96.6 177.1 99.05 177.75 101.05 178.3 103 177.5 105.7 176.2 107.45 172.7 Z"/>

<path fill="#685649" stroke="none" d="
M 156.1 171.85
Q 156.1 171.8984375 156.1 171.95 157.05 173 157.8 174 157.7 173.65 157.65 173.25 157.55 172.55 157.6 172 156.9 171.95 156.1 171.85
M 146.35 163
Q 145.45 163.5 144.4 164.15 145.35 165.25 146.65 166.6 146.85 166.8 148 165.4 150.7 162.05 150.8 161.9 151.15 161.35 151.5 160.95 149.05 161.5 146.35 163
M 105.5 166.1
Q 104.55 165.95 103.85 165.85 101.25 165.45 99.2 165.25 100.15 168.15 101.65 174.15 102.1 174.1 102.5 174.15 104.2 170.85 105.5 166.1
M 167.6 162.55
Q 166.5 161.9 165.25 161.5 162.55 160.55 159 160.35
L 158.95 160.35
Q 157.4 160.25 156 160.3 156.2 162 155.8 163.8 155.35 165.95 154.75 166.25 156.2 165.85 158.05 166 160.3 166.2 162.4 167.15 167.3 169.45 166.5 171 166.45 171.15 166.3 171.3
L 166.2 171.4 166.05 171.5
Q 165.45 171.85 164.2 172.05 164.35 172.75 163.95 173.7 163.55 174.8 162.95 174.95 162.05 175.35 161.55 175.45 160.7 175.7 159.25 175.3 159 175.35 158.75 175.3 159.65 176.6 160.3 177.85 161.6 180.35 161.15 180.95 160.25 182.1 156.5 181.15 151.75 180 147.35 175.75 145.5 177 142.8 178.5 138.55 180.8 134.45 181.25 131.9 181.75 131.25 181.3 130.75 181.2 130.75 180.95 130.75 180.65 131.05 180.65 131.9 178.2 134.6 175.75 137.3 173.4 140.85 171.85 136.35 172.85 132.05 171.4 127.8 170 129.25 169.5 133.25 168 134.9 167.6 138.45 166.85 141.1 167.8 139.95 166.9 139.3 165.7 138.65 165.55 137.6 165.25 132.1 163.9 129.05 164.75 128.4 164.95 125.45 166.5 123.1 167.75 120.6 167.9 117.95 168.1 112.7 167.3 111 167 109.55 166.75 109.75 170.1 108.6 173.1 107.6 175.7 106.2 176.85 106.05 177.15 107.4 176.95 108.1 176.85 110.3 175.9 112.05 175.15 112.05 175.55 112.1 176.55 111.1 177.7 110.2 178.8 109.2 179.25 107.6 179.85 105.3 179.85 103.25 179.7 103 179.8 100.45 180.75 98.15 179.45 95.65 177.95 95.9 174.75
L 95.9 174.7
Q 95.65 173.4 95.85 171.7 96.2 167.4 96.6 165.1 93.95 165.05 92.35 165.5 91.1 165.8 90.45 166.55 90.35 166.6 90.3 166.7 90.05 167 89.6 168.05 89.2 168.95 88.65 169.1 88.35 169.15 87.95 169 87.65 168.85 86.45 168 85.3 167.25 84.6 167 84.3 166.85 84 166.8 82.8 166.55 81.4 167 80.75 167.15 78.5 168.3 76.8 169.2 75.35 169.75 72.4 170.85 70.3 170.7 69 170.6 66.95 169.8 66.35 169.55 65.75 169.25 65.35 169.05 65 168.9 67.45 171.35 66.45 172.35 64.85 173.8 54.7 170.3 57.1 183.7 54.7 184.05 52.6 184.3 45.45 175.2 45.35 175.55 45.25 175.9 44.7 178.1 43.45 180.1 42.35 181.9 41.95 181.85 37.7 181.3 37.4 175.6
L 37.4 175.55
Q 36.5 175.95 35.6 176.4 29.3 179.35 26.1 180 24.1681640625 180.5978515625 24 180.1
L 24 180
Q 23.95 179.75 24.1 179.2 24.3 178.65 24.45 178.35 25.45 175 27.35 172.95 27.65 172.6 28.1 172.25 26 172.3 24 171.7 23.2 172.6 22.4 173.65 21.3 175.2 20.9 176.25 20.5 177.15 20.4 178.35 20.25 179.85 20.8 180.6 21.6 181.8 24.3 182.15 26.35 182.4 32.35 182.15 38.8 181.9 41.3 182.05 43.95 182.2 47.7 183.15 51.55 184.15 54.1 184.35 57.05 184.6 63.6 184.3 72.4 183.9 75.2 183.9 78.65 183.9 87.3 184.25 95.4 184.6 100.7 184.55 106.4 184.5 116.45 183.95 132.2 183.1 134.05 183 138.4 182.8 152.25 182.35 162.9 182 167.8 181.65 174.7 181.2 177.6 180.4 180.95 179.5 180.95 177.65 180.95 175.95 178.3 172.9 177.2 171.6 173.45 167.7 170.4 164.65 169.55 163.9 168.6 163.15 167.6 162.55
M 176.7 173.85
Q 177.5 174.85 177.3 176.15 176.75 179.5 172 178.35 171.5 177.85 171.6 177.15 171.65 176.45 172.2 176.05 172.85 175.45 172.85 174.45 172.85 173.8 173.35 173.35 173.85 172.85 174.5 172.85 175.9 172.8 176.7 173.85
M 60.2 175.7
Q 58.55 175.55 58.75 173.95 58.9 172.4 60.55 172.55
L 63.9 172.9
Q 64.6 173 65.05 173.55 65.5 174.05 65.4 174.7 65.3 175.3 63.9 175.7 62.75 176 61.85 175.9
L 60.2 175.7
M 80.65 180.65
Q 77.45 179.7 78.55 177.25 80.5 174.85 82.8 176.25 85.05 177.55 84.4 179.7 83.85 181.65 80.65 180.65
M 117.9 178.7
Q 117.95 177.25 119.2 176.85 119.65 176.7 121.65 176.65 122.4 176.6 123.45 177.25 124.55 177.95 124.6 178.6 124.65 179.3 124 180.1 123.35 180.95 122.65 181
L 119.65 181
Q 119 181 118.45 180.15 117.9 179.4 117.9 178.7 Z"/>

<path fill="#5E4C41" stroke="none" d="
M 102.5 174.15
Q 102.1 174.1 101.65 174.15 101.75 174.7 101.9 175.3 102.2 174.75 102.5 174.15
M 162.95 174.95
Q 163.55 174.8 163.95 173.7 164.35 172.75 164.2 172.05 162 172.35 157.6 172 157.55 172.55 157.65 173.25 157.7 173.65 157.8 174 158.3 174.65 158.75 175.3 159 175.35 159.25 175.3 160.7 175.7 161.55 175.45 162.05 175.35 162.95 174.95
M 119.2 176.85
Q 117.95 177.25 117.9 178.7 117.9 179.4 118.45 180.15 119 181 119.65 181
L 122.65 181
Q 123.35 180.95 124 180.1 124.65 179.3 124.6 178.6 124.55 177.95 123.45 177.25 122.4 176.6 121.65 176.65 119.65 176.7 119.2 176.85
M 78.55 177.25
Q 77.45 179.7 80.65 180.65 83.85 181.65 84.4 179.7 85.05 177.55 82.8 176.25 80.5 174.85 78.55 177.25
M 58.75 173.95
Q 58.55 175.55 60.2 175.7
L 61.85 175.9
Q 62.75 176 63.9 175.7 65.3 175.3 65.4 174.7 65.5 174.05 65.05 173.55 64.6 173 63.9 172.9
L 60.55 172.55
Q 58.9 172.4 58.75 173.95
M 177.3 176.15
Q 177.5 174.85 176.7 173.85 175.9 172.8 174.5 172.85 173.85 172.85 173.35 173.35 172.85 173.8 172.85 174.45 172.85 175.45 172.2 176.05 171.65 176.45 171.6 177.15 171.5 177.85 172 178.35 176.75 179.5 177.3 176.15 Z"/>

<path fill="#C4D6D8" stroke="none" d="
M 84 166.8
Q 84.3 166.85 84.6 167 85.3 167.25 86.45 168 87.65 168.85 87.95 169 88.35 169.15 88.65 169.1 88.65 168.95 88.65 168.85 88.75 167.3 85.2 166.35 84.6 166.2 84 166.8
M 64.7 146.85
Q 64.55 144.85 64.4 142.85 63.7 134.3 63.3 133.55
L 59.4 151.35
Q 60.2 156.55 60.75 165.6 61.95 166.25 63.15 167.25 64.2 168.15 65 168.9 65.35 169.05 65.75 169.25 66.35 169.55 66.95 169.8 66.9 169.05 66.85 168.1 66.85 167.75 66.8 167.45 66.45 162.9 65.35 159.5 63.45 153.5 64.1 149.3 64.45 148.1 64.7 146.85
M 38.95 78.9
L 38.95 79.85 43.4 80.4 50.15 79.15 55.7 81.65
Q 55.65 81.5 55.6 81.45
L 50.7 77 43.3 75.95 38.95 70.35 38.95 73.2 40.35 75.95 40.6 78.35 38.95 78.9
M 88.55 14
Q 89.25 14 90.45 14.1
L 90.45 27.75
Q 91.95 27.8 93.45 28 94.45 28.1 95.35 28.2 97.25 28.3 99.25 28.6 105 29.5 110.95 32.3 117.4 35.35 121.85 39.65 126.3 43.95 129.2 49.95 131.8 55.3 132.85 61.45 134.9 72.95 130.8 83.05 128.7 88.2 125.2 92.6 121.5 97.15 116.8 100.15 106.75 106.65 93 106.05 91.7 106 90.45 105.95
L 90.45 109.45 96.45 109.45
Q 96.7 109.45 97.1 109.45
L 97.55 109.45 97.55 109.5
Q 98.3 109.55 99.45 109.7 101.35 109.95 106.7 109.45
L 107.8 109.45 109.7 109.45
Q 110.8 109.45 111.65 110.1 113.35 110.4 114.7 111.45 116.85 113.05 116.85 114.5 116.85 114.8 117.35 126.05 117.75 134.4 117.1 136.45 116.8 137.35 114.7 138.35 112.8 139.25 111.6 139.25 99.55 139.15 90.45 139.15
L 90.45 166.55
Q 91.1 165.8 92.35 165.5 93.95 165.05 96.6 165.1 97.2 161.9 97.95 162.55 98.4 162.95 99.2 165.25 101.25 165.45 103.85 165.85 104.55 165.95 105.5 166.1 105.65 165.4 105.85 164.7 107.1 159.95 107.65 160.3 109.2 161.15 109.45 165.9 109.45 166.3 109.5 166.7 109.5 166.609375 109.5 166.55 109.5025390625 166.6548828125 109.55 166.75 111 167 112.7 167.3 117.95 168.1 120.6 167.9 123.1 167.75 125.45 166.5 128.4 164.95 129.05 164.75 132.1 163.9 137.6 165.25 138.65 165.55 139.3 165.7 137.65 162.9 138.35 159 138.5 158.05 140.95 160.55 141.55 161.2 142.6 162.25 142.6 162.15 142.6 162 142.3 151.8 142.3 149.05
L 142.3 105.85 134.2 106.85 130.15 102.95 120.5 105.55 130.3 100.8 133.55 104.2 142.3 99.4 142.3 63.4
Q 142.3 38.55 126.65 25.55 114.6 15.4 95.95 14.15 93.25 13.95 90.4 13.95 89.45 13.95 88.55 14
M 134.6 130.95
Q 136.3 132.25 137.45 134.65 138.5 136.85 138.8 139.3 139.1 141.7 138.45 142.25 137.95 142.7 136.4 141.85 134.6 140.85 134.15 140.9 133.65 140.95 132.95 142.4 132.15 144.05 131.05 144.7 129.55 145.65 127.1 145.65 124.65 145.6 123.45 144.6 121.5 142.85 124.45 137.45 127.9 130.9 131.05 130.05 132.8 129.6 134.6 130.95
M 110.15 147.4
Q 111.45 146.95 112.85 148.25 114.2 149.5 113.8 150.75 113.45 152 111.55 152.7 109.6 153.35 108.65 152.5 107.7 151.65 108.3 149.7 108.85 147.85 110.15 147.4
M 138.15 157.55
Q 136.3 158.15 133.55 158.1 130.5 158 129.7 157 128.9 155.95 130.5 154.15 131.95 152.3 133.65 151.8 135.1 151.35 136.4 152.3 137.2 152.9 138.4 154.45 139.4 155.75 139.5 156.3 139.6 157.15 138.15 157.55 Z"/>

<path fill="#567728" stroke="none" d="
M 109.5 166.55
Q 109.5 166.609375 109.5 166.7 108.8 170.05 107.45 172.7 105.7 176.2 103 177.5 101.05 178.3 99.05 177.75 96.6 177.1 95.9 174.7
L 95.9 174.75
Q 95.65 177.95 98.15 179.45 100.45 180.75 103 179.8 103.25 179.7 105.3 179.85 107.6 179.85 109.2 179.25 110.2 178.8 111.1 177.7 112.1 176.55 112.05 175.55 112.05 175.15 110.3 175.9 108.1 176.85 107.4 176.95 106.05 177.15 106.2 176.85 107.6 175.7 108.6 173.1 109.75 170.1 109.55 166.75 109.5025390625 166.6548828125 109.5 166.55
M 35.6 176.4
Q 36.5 175.95 37.4 175.55 40.6 174 43.45 172.6 44.5 173.95 45.45 175.2 52.6 184.3 54.7 184.05 57.1 183.7 54.7 170.3 64.85 173.8 66.45 172.35 67.45 171.35 65 168.9 64.2 168.15 63.15 167.25 61.95 166.25 60.75 165.6 59.8 165.1 58.85 164.75 56.8 164 53.7 163.8 56.65 161.1 57.45 159.9 58.25 158.85 58.65 157.55 58.65 157.5 58.7 157.5 59 156.8 59 156.4 59 156.3 59 156.25
L 58.95 156.3
Q 58.75 156.45 57.8 157.65 56.4 159.45 55.45 160.25 52.8 162.45 50.95 163.4 50.8 163.65 51.9 163.9 53.6 164.25 54.55 164.65 55.85 165.2 57 166.2 58.05 167.15 58.05 167.6 58 168.75 53 168.1
L 50.9 167.75 51.6 169.35
Q 52.2 171.45 51.8 174.05 51.6 175.25 47.95 171.95 44.1 168.45 43.6 169.05 42.5 170.5 35.45 174 27.95 177.8 24.65 178.1 24.55 178.1 24.45 178.35 24.3 178.65 24.1 179.2 23.95 179.75 24 180
L 24 180.1
Q 24.0546875 180.25 24.25 180.25 25 180.25 26.1 180 29.3 179.35 35.6 176.4
M 166.5 171
Q 167.3 169.45 162.4 167.15 160.3 166.2 158.05 166 156.2 165.85 154.75 166.25 155.35 165.95 155.8 163.8 156.2 162 156 160.3 155.95 159.5 155.75 158.75 155.75 158.65 155.7 158.7 155.6 158.75 155.3 160.45 154.75 163.4 153.8 164.7 153.1 165.8 152.8 166.1 152.3 166.65 151.3 167.45
L 154.65 167.1
Q 158.3 167.05 160.3 168.5 161 169.05 159.1 169.3 156.55 169.55 155.5 169.65 154.85 169.7 152.6 169.4 150.9 169.2 151.05 169.35 153.3 170.8 155.1 173.75 156.8 176.55 156.2 176.55 154 176.55 150.75 174.65
L 147.85 172.8
Q 147.85 172.85 142.3 176.65 135.85 180.45 131.05 180.65 130.75 180.65 130.75 180.95 130.75 181.2 131.25 181.3 131.45 181.35 131.75 181.35 133.05 181.4 134.45 181.25 138.55 180.8 142.8 178.5 145.5 177 147.35 175.75 151.75 180 156.5 181.15 160.25 182.1 161.15 180.95 161.6 180.35 160.3 177.85 159.65 176.6 158.75 175.3 158.3 174.65 157.8 174 157.05 173 156.1 171.95 156.0984375 171.8984375 156.05 171.85
L 156.1 171.85
Q 156.9 171.95 157.6 172 162 172.35 164.2 172.05 165.45 171.85 166.05 171.5
L 166.2 171.4 166.3 171.3
Q 166.45 171.15 166.5 171 Z"/>

<path fill="#50443D" stroke="none" d="
M 66.95 169.8
Q 69 170.6 70.3 170.7 72.4 170.85 75.35 169.75 75.2 169.5 75.15 169.25 74.7 167.2 73.95 165.8 70 166.55 66.85 168.1 66.9 169.05 66.95 169.8
M 165.25 161.5
Q 166.5 161.9 167.6 162.55 165.35 159.85 162.75 158.35 161.15 157.45 158.95 156.85
L 159 160.35
Q 162.55 160.55 165.25 161.5 Z"/>

<path fill="#919EA0" stroke="none" d="
M 64.1 149.3
Q 63.45 153.5 65.35 159.5 66.45 162.9 66.8 167.45 66.85 167.75 66.85 168.1 70 166.55 73.95 165.8 73.9 165.75 73.9 165.7 72.5 163.15 65 151.2 64.85 149.05 64.7 146.85 64.45 148.1 64.1 149.3
M 149.1 33.3
Q 142.25 23.9 127.45 18.65 112.85 13.4 95.95 14.15 114.6 15.4 126.65 25.55 142.3 38.55 142.3 63.4
L 142.3 99.4 133.55 104.2 130.3 100.8 120.5 105.55 130.15 102.95 134.2 106.85 142.3 105.85 142.3 149.05
Q 142.3 151.8 142.6 162 142.6 162.15 142.6 162.25 143.4 163.05 144.4 164.15 145.45 163.5 146.35 163 149.05 161.5 151.5 160.95 153.05 158.75 153.75 157.9 155.25 156.2 155.6 158.15 155.65 158.45 155.7 158.7 155.75 158.65 155.75 158.75 155.95 159.5 156 160.3 157.4 160.25 158.95 160.35
L 159 160.35 158.95 156.85 158.7 87
Q 158.65 87.45 158.65 87.9 158.65 88.55 157.1 86.45 155.5 84.35 155.8 82.75 156.1 81.45 156.3 78.9 156.55 76.05 156.3 76.05 155.85 76.1 155.6 75.85 155.5 75.8 154.95 75.1 152.6 71.65 155.6 62.35 156.8 58.5 157.6 59 157.7 59.65 157.8 60.35 157.25 55.65 156.35 51.4 153.9 39.85 149.1 33.3 Z"/>

<path fill="#6E9D1C" stroke="none" d="
M 24.25 180.25
Q 24.0546875 180.25 24 180.1 24.1681640625 180.5978515625 26.1 180 25 180.25 24.25 180.25
M 33.55 159.85
Q 32.9 159.8 31.55 160.05 31 160.1 30.3 160.25 23.65 161.45 25.55 163.4 26.4 164.35 28.95 165.1 31.7 165.8 36.25 166.25 30.45 170.05 28.1 172.25 27.65 172.6 27.35 172.95 25.45 175 24.45 178.35 24.55 178.1 24.65 178.1 27.95 177.8 35.45 174 42.5 170.5 43.6 169.05 44.1 168.45 47.95 171.95 51.6 175.25 51.8 174.05 52.2 171.45 51.6 169.35
L 50.9 167.75 53 168.1
Q 58 168.75 58.05 167.6 58.05 167.15 57 166.2 55.85 165.2 54.55 164.65 53.6 164.25 51.9 163.9 50.8 163.65 50.95 163.4 52.8 162.45 55.45 160.25 56.4 159.45 57.8 157.65 58.75 156.45 58.95 156.3 58.7 155.2 55.6 155.75 52.1 156.4 49.8 158.15 49.1 158.65 48.5 159.25 47.2 160.55 46.75 161.6 44.7 158.6 43.1 156.6 40.7 153.75 39.05 153 38.7 152.85 38.4 152.8 37.1 152.5 37.1 154.35 37 156.4 38.7 161.35 35.65 159.95 33.55 159.85 Z"/>

<path fill="#577C21" stroke="none" d="
M 37.4 175.55
L 37.4 175.6
Q 37.7 181.3 41.95 181.85 42.35 181.9 43.45 180.1 44.7 178.1 45.25 175.9 45.35 175.55 45.45 175.2 44.5 173.95 43.45 172.6 40.6 174 37.4 175.55
M 28.95 165.1
Q 27.9 165.45 26.75 165.9 18.75 169.05 20.3 170.05 22.1 171.15 24 171.7 26 172.3 28.1 172.25 30.45 170.05 36.25 166.25 31.7 165.8 28.95 165.1
M 31.55 160.05
Q 32.9 159.8 33.55 159.85 35.65 159.95 38.7 161.35 37 156.4 37.1 154.35 35.6 153.15 33.65 152.45 29.4 150.9 26.95 152.1 26.45 152.35 28.3 153.75 30.8 155.6 31.15 158.05 31.3 159.15 31.55 160.05
M 47.5 143.75
Q 46.75 143.35 45.65 148.45 44.7 152.95 43.1 156.6 44.7 158.6 46.75 161.6 47.2 160.55 48.5 159.25 49.1 158.65 49.8 158.15 50.7 155 50.3 151.25 49.55 144.8 47.5 143.75 Z"/>

<path fill="#ADC1C3" stroke="none" d="
M 67.45 132.6
Q 67.25 131.65 67.15 131.2
L 67.2 132.15
Q 67.3 134.15 67.15 135.85 67.1 136.4 67.45 136.9 67.9 137.65 68.8 138 69.55 138.35 70.65 138.85 71.5 139.2 72.1 139.2 78.85 139.1 90.45 139.15 99.55 139.15 111.6 139.25 112.8 139.25 114.7 138.35 116.8 137.35 117.1 136.45 117.75 134.4 117.35 126.05 116.85 114.8 116.85 114.5 116.85 113.05 114.7 111.45 113.35 110.4 111.65 110.1
L 112.05 110.3
Q 113.4 111.05 113.9 111.7 114.45 112.35 114.6 112.65 114.85 113.15 114.85 113.85 114.85 115.1 114.75 116.9 114.65 118.2 114.75 120.15 114.75 133.8 114.7 133.95 114.3 135 113.35 135.8 112.3 136.65 111.25 136.65 89.6 136.85 79.25 136.75 77.6 136.75 76.95 136.6 76.4 136.5 75.5 136.5 72.35 136.65 70.4 136.35 68.8 136.25 68.15 135.65
L 67.8 135.1
Q 67.8 134.3 67.45 132.6
M 99.25 28.6
Q 97.25 28.3 95.35 28.2 100.45 28.85 105.25 30.85 112.05 33.65 117.3 38.8 122.55 43.95 125.45 50.55 128.4 57.45 128.4 65 128.35 82.8 116.85 93.1 106.65 102.2 91.65 102.4 76.05 102.6 65.05 93 54.35 83.6 52.75 68.5
L 52.6 67.05
Q 52.4 70.35 53.25 74.25 54.05 77.85 55.6 81.45 55.65 81.5 55.7 81.65 56.55 83.65 57.6 85.65 61.3 92.35 66.35 96.65 71.5 101.05 78.95 103.55 84.5 105.4 90.45 105.95 91.7 106 93 106.05 106.75 106.65 116.8 100.15 121.5 97.15 125.2 92.6 128.7 88.2 130.8 83.05 134.9 72.95 132.85 61.45 131.8 55.3 129.2 49.95 126.3 43.95 121.85 39.65 117.4 35.35 110.95 32.3 105 29.5 99.25 28.6 Z"/>

<path fill="#CBCBCB" stroke="none" d="
M 67.4 112.65
Q 67.4 112.7 67.45 112.8 67.5 113 67.7 113.2 68.05 113.6 68.15 113.9 68.6 115.45 68.8 116.75 68.95 118 68.8 118 68.5 118.05 68.4 118.75 68.3 120.05 68.1 120.65 67.9 121.45 68.05 121.9 68.3 122.6 68.3 123.25 68.35 124.75 67.9 124.8 67.3 124.85 67.2 125.35
L 67.2 125.5
Q 67.1 126.25 67 130.2 67 130.25 67.1 130.45 67.2 130.65 67.45 131.25 67.95 132.15 67.9 132.65
L 69.45 133.95
Q 70.05 134.3 71 134.25 71.6 134.2 74.6 133.75 77.2 133.35 77.2 133.8 77.15 134.4 78.5 134.4 88.7 134.55 109.7 134.3 110.75 134.3 111.6 133.7 112.4 133.1 112.75 132.15 112.85 131.95 113.05 126.2 113.1 124.95 112.9 123.7 112.55 122.05 112.55 121.75 112.85 119.4 112.2 119.45 111.75 119.45 112.1 117.2
L 112.85 115.6
Q 112.95 115.3 112.95 114.75 112.95 113.95 112.95 113.85
L 112.95 112.65
Q 112.95 111.35 112 110.4 111.8 110.2 111.65 110.1 110.8 109.45 109.7 109.45
L 107.8 109.45
Q 108.85 110.2 98.35 110.75 97.7 110.7 97.5 110.2 97.35 109.85 97.55 109.5
L 97.55 109.45 97.1 109.45
Q 96.7 109.45 96.45 109.45
L 90.45 109.45 85.4 109.45
Q 76.9 109 72.75 109.25 69.85 109.45 68.7 110.15 67.4 110.95 67.4 112.65
M 73.8 116.85
L 77.1 116.85
Q 80.05 116.85 81.05 117.55 82 118.15 82 119.9
L 82 121.3
Q 82 122.4 81.5 122.9 80.95 123.45 79.8 123.65 80.8 123.7 81.4 124.3 81.95 124.65 81.95 125.7
L 81.95 128.85 78.8 128.85 78.8 125.8
Q 78.8 125.2 78.5 124.95 78.3 124.7 77.55 124.7
L 77 124.7 77 128.85 73.8 128.85 73.8 116.85
M 102.25 116.85
Q 105.2 116.85 106.2 117.55 107.15 118.2 107.15 119.9
L 107.15 122.35
Q 107.15 124.15 106.2 124.75 105.25 125.4 102.75 125.4
L 102.2 125.4 102.2 128.85 99.05 128.85 99.05 116.85 102.25 116.85
M 89 116.85
L 92.2 116.85 92.2 128.85 89 128.85 89 116.85
M 94.3 128.85
L 94.3 126.2 97.05 126.2 97.05 128.85 94.3 128.85
M 87 128.85
L 84.15 128.85 84.15 126.2 87 126.2 87 128.85
M 103.7 123.05
Q 103.9 122.9 103.9 122.4
L 103.9 119.8
Q 103.9 119.3 103.7 119.1 103.55 118.95 102.95 118.95
L 102.2 118.95 102.2 123.25 102.95 123.25
Q 103.55 123.25 103.7 123.05
M 77.8 118.95
L 77 118.95 77 122.65 77.8 122.65
Q 78.4 122.65 78.6 122.5 78.8 122.35 78.8 121.8
L 78.8 119.8
Q 78.8 119.3 78.6 119.1 78.4 118.95 77.8 118.95
M 90.45 27.75
Q 89.55 27.7 88.65 27.7 81.3 27.7 74.6 30.55 68.1 33.3 63.1 38.3 61.7 39.7 60.65 41
L 60.45 41.2
Q 60.225 41.5 60 41.8 59.8 42.05 59.7 42.2 59.65 42.35 59.65 43.7 59.55 45.3 58.55 46.65 58.2 47.15 56.9 49.7 56.4 50.55 55 50.95 54.85 51 54.7 51.25 54.55 51.5 54.45 51.9 54.3 52.35 54.15 52.95 52.45 58.25 52.45 63.85 52.45 64 52.45 64.15
L 52.45 65
Q 52.5 66.05 52.6 67.05
L 52.75 68.5
Q 53.35 73.35 55.35 77.9 58.05 84.4 63.1 89.4 68.1 94.4 74.6 97.2 81.3 100 88.65 100 96 100 102.7 97.2 109.2 94.4 114.2 89.4 119.2 84.4 121.95 77.9 124.8 71.2 124.8 63.85 124.8 56.55 121.95 49.85 119.2 43.35 114.2 38.3 109.2 33.3 102.7 30.55 98.25 28.65 93.45 28 91.95 27.8 90.45 27.75
M 81.75 30.9
Q 82.45 31.55 81.55 32.6 80.75 33.5 78.2 34.85 75.15 36.4 73.6 37.2 69.55 39.35 66.4 41.8 65.55 42.5 64.25 43.55 63.3 44.3 62.7 44.45 61.95 44.7 61.5 44.35 61.05 43.85 61.5 42.65 62.05 41.15 63.55 39.25 65.35 37.1 67.75 35.35 70.2 33.5 73.45 32.1 76.5 30.75 78.75 30.45 80.9 30.15 81.75 30.9
M 88.65 34.95
Q 100.75 34.95 109.3 43.5 114.45 48.65 116.5 55.1
L 118.1 54.8
Q 118.85 54.8 120.05 55 121.55 55.25 121.35 55.5
L 118.5 56.05
Q 117.7 57.15 117.25 57.8 117.85 60.85 117.85 64.1 117.85 76.2 109.3 84.75 100.75 93.3 88.65 93.3 86.2 93.3 83.9 92.95 83.7 93.15 83.4 93.55 82.9 94.2 82.45 93.7 81.95 93.15 80.5 92.45
L 79.15 91.85
Q 77.15 91.4 76.15 91.15 74.45 90.7 73.5 90
L 73.5 89.1
Q 72.95 88.8 72.45 88.45 71.25 88.75 70.7 88.45 70.95 87.8 70.15 86.75 69.05 85.8 68 84.75 59.4 76.2 59.4 64.1 59.4 52 68 43.5 76.55 34.95 88.65 34.95
M 83.2 59.7
L 88.65 56.85 88.65 41.7 73.45 64.75 78.7 62.1 78.8 62.05
Q 80.5 60.05 82.05 57.55 83.85 54.55 84.9 52.75 86.75 49.8 87 49.75 88.3 49.65 86.05 54.3 85 56.95 83.5 59.25 83.35 59.5 83.2 59.7 Z"/>

<path fill="#D9E6E8" stroke="none" d="
M 50.15 79.15
L 43.4 80.4 38.95 79.85 39.05 152.75
Q 39.05 152.9 39.05 153 40.7 153.75 43.1 156.6 44.7 152.95 45.65 148.45 46.75 143.35 47.5 143.75 49.55 144.8 50.3 151.25 50.7 155 49.8 158.15 52.1 156.4 55.6 155.75 58.7 155.2 58.95 156.3
L 59 156.25
Q 59 156.3 59 156.4 59 156.8 58.7 157.5 58.65 157.5 58.65 157.55 58.25 158.85 57.45 159.9 56.65 161.1 53.7 163.8 56.8 164 58.85 164.75 59.8 165.1 60.75 165.6 60.2 156.55 59.4 151.35
L 63.3 133.55
Q 63.7 134.3 64.4 142.85 64.55 144.85 64.7 146.85 64.85 149.05 65 151.2 72.5 163.15 73.9 165.7 73.9 165.75 73.95 165.8 74.7 167.2 75.15 169.25 75.2 169.5 75.35 169.75 76.8 169.2 78.5 168.3 80.75 167.15 81.4 167 82.8 166.55 84 166.8 84.6 166.2 85.2 166.35 88.75 167.3 88.65 168.85 88.65 168.95 88.65 169.1 89.2 168.95 89.6 168.05 90.05 167 90.3 166.7 90.35 166.6 90.45 166.55
L 90.45 139.15
Q 78.85 139.1 72.1 139.2 71.5 139.2 70.65 138.85 69.55 138.35 68.8 138 67.9 137.65 67.45 136.9 67.1 136.4 67.15 135.85 67.3 134.15 67.2 132.15
L 67.15 131.2
Q 67.05 130.85 67.05 130.75 67.05 130.6 67.1 130.45 67 130.25 67 130.2 67.1 126.25 67.2 125.5
L 67.2 125.35 67.4 113.15
Q 67.4 112.95 67.45 112.8 67.4 112.7 67.4 112.65 67.4 110.95 68.7 110.15 69.85 109.45 72.75 109.25 76.9 109 85.4 109.45
L 90.45 109.45 90.45 105.95
Q 84.5 105.4 78.95 103.55 71.5 101.05 66.35 96.65 61.3 92.35 57.6 85.65 56.55 83.65 55.7 81.65
L 50.15 79.15
M 46.3 120.45
Q 45.65 121.55 44.1 120.4 42.45 119.25 43.95 115.85 44.35 114.9 44.85 115 45.35 115.1 45.85 115.95 46.35 116.75 46.55 118.3 46.7 119.95 46.3 120.45
M 49.05 124.1
Q 51.35 123.7 52.15 125.95 53 128.25 49.5 128.95 49.25 129 47.95 131 46.95 132.6 45.85 131.3 44.5 129.7 45.75 127.05 46.95 124.4 49.05 124.1
M 90.45 14.1
Q 89.25 14 88.55 14
L 88.4 14
Q 88.3 14 88.2 14 87.85 14 87.55 14.05
L 67.5 17.95
Q 60.2 20.75 54.4 25.7 53.7 26.25 53 26.9 38.95 39.95 38.95 63.4
L 38.95 70.35 43.3 75.95 50.7 77 55.6 81.45
Q 54.05 77.85 53.25 74.25 52.4 70.35 52.6 67.05 52.5 66.05 52.45 65
L 52.45 64.15
Q 52.45 64 52.45 63.85 52.45 58.25 54.15 52.95 54.3 52.35 54.45 51.9 54.55 51.5 54.7 51.25 55.3 49.3 56.55 46.95 58.187890625 43.81875 60.45 41.2
L 60.65 41
Q 61.7 39.7 63.1 38.3 68.1 33.3 74.6 30.55 81.3 27.7 88.65 27.7 89.55 27.7 90.45 27.75
L 90.45 14.1 Z"/>

<path fill="#C6DBDD" stroke="none" d="
M 52.15 125.95
Q 51.35 123.7 49.05 124.1 46.95 124.4 45.75 127.05 44.5 129.7 45.85 131.3 46.95 132.6 47.95 131 49.25 129 49.5 128.95 53 128.25 52.15 125.95
M 44.1 120.4
Q 45.65 121.55 46.3 120.45 46.7 119.95 46.55 118.3 46.35 116.75 45.85 115.95 45.35 115.1 44.85 115 44.35 114.9 43.95 115.85 42.45 119.25 44.1 120.4 Z"/>

<path fill="#7B8B8E" stroke="none" d="
M 158.6 71.25
L 157.8 60.35
Q 157.7 59.65 157.6 59 156.8 58.5 155.6 62.35 152.6 71.65 154.95 75.1 155.5 75.8 155.6 75.85 155.85 76.1 156.3 76.05 156.55 76.05 156.3 78.9 156.1 81.45 155.8 82.75 155.5 84.35 157.1 86.45 158.65 88.55 158.65 87.9 158.65 87.45 158.7 87 159 79 158.6 71.25 Z"/>

<path fill="#656666" stroke="none" d="
M 109.3 43.5
Q 100.75 34.95 88.65 34.95 76.55 34.95 68 43.5 59.4 52 59.4 64.1 59.4 76.2 68 84.75 69.05 85.8 70.15 86.75 70.95 87.8 70.7 88.45 71.25 88.75 72.45 88.45 72.95 88.8 73.5 89.1
L 73.5 90
Q 74.45 90.7 76.15 91.15 77.15 91.4 79.15 91.85
L 80.5 92.45
Q 81.95 93.15 82.45 93.7 82.9 94.2 83.4 93.55 83.7 93.15 83.9 92.95 86.2 93.3 88.65 93.3 100.75 93.3 109.3 84.75 117.85 76.2 117.85 64.1 117.85 60.85 117.25 57.8 117.7 57.15 118.5 56.05
L 121.35 55.5
Q 121.55 55.25 120.05 55 118.85 54.8 118.1 54.8
L 116.5 55.1
Q 114.45 48.65 109.3 43.5
M 99.75 72.55
L 99.05 72.7 97.55 73.3 97.4 74.35 96.2 75.4 98 74.8 88.65 86.55 74.3 68.45 75 68.15 88.65 75.15 103.85 67.35 99.75 72.55
M 103.85 64.75
L 88.65 72.6 76.65 66.4 77.75 65.25 75.5 65.8 73.45 64.75 88.65 41.7 103.85 64.75 Z"/>

<path fill="#7F7F7F" stroke="none" d="
M 88.65 56.85
L 103.85 64.75 88.65 41.7 88.65 56.85
M 88.65 56.85
L 83.2 59.7
Q 81.3 62.45 79.6 62.75 79 62.85 78.7 62.8 78.2 62.65 78.7 62.1
L 73.45 64.75 75.5 65.8 77.75 65.25 76.65 66.4 88.65 72.6 88.65 56.85
M 99.05 72.7
L 99.75 72.55 103.85 67.35 88.65 75.15 88.65 86.55 98 74.8 96.2 75.4 97.4 74.35 97.55 73.3 99.05 72.7 Z"/>

<path fill="#E6E6E6" stroke="none" d="
M 83.2 59.7
Q 83.35 59.5 83.5 59.25 85 56.95 86.05 54.3 88.3 49.65 87 49.75 86.75 49.8 84.9 52.75 83.85 54.55 82.05 57.55 80.5 60.05 78.8 62.05
L 78.7 62.1
Q 78.2 62.65 78.7 62.8 79 62.85 79.6 62.75 81.3 62.45 83.2 59.7
M 81.55 32.6
Q 82.45 31.55 81.75 30.9 80.9 30.15 78.75 30.45 76.5 30.75 73.45 32.1 70.2 33.5 67.75 35.35 65.35 37.1 63.55 39.25 62.05 41.15 61.5 42.65 61.05 43.85 61.5 44.35 61.95 44.7 62.7 44.45 63.3 44.3 64.25 43.55 65.55 42.5 66.4 41.8 69.55 39.35 73.6 37.2 75.15 36.4 78.2 34.85 80.75 33.5 81.55 32.6 Z"/>

<path fill="#B2B2B2" stroke="none" d="
M 88.65 86.55
L 88.65 75.15 75 68.15 74.3 68.45 88.65 86.55 Z"/>

<path fill="#B2C6C8" stroke="none" d="
M 133.55 158.1
Q 136.3 158.15 138.15 157.55 139.6 157.15 139.5 156.3 139.4 155.75 138.4 154.45 137.2 152.9 136.4 152.3 135.1 151.35 133.65 151.8 131.95 152.3 130.5 154.15 128.9 155.95 129.7 157 130.5 158 133.55 158.1
M 112.85 148.25
Q 111.45 146.95 110.15 147.4 108.85 147.85 108.3 149.7 107.7 151.65 108.65 152.5 109.6 153.35 111.55 152.7 113.45 152 113.8 150.75 114.2 149.5 112.85 148.25
M 137.45 134.65
Q 136.3 132.25 134.6 130.95 132.8 129.6 131.05 130.05 127.9 130.9 124.45 137.45 121.5 142.85 123.45 144.6 124.65 145.6 127.1 145.65 129.55 145.65 131.05 144.7 132.15 144.05 132.95 142.4 133.65 140.95 134.15 140.9 134.6 140.85 136.4 141.85 137.95 142.7 138.45 142.25 139.1 141.7 138.8 139.3 138.5 136.85 137.45 134.65 Z"/>
</g>
</defs>

<g transform="matrix( 1, 0, 0, 1, 0,0) ">
<g transform="matrix( 1, 0, 0, 1, 0,0) ">
<g transform="matrix( 1, 0, 0, 1, 0,0) ">
<use filter="url(#Filter_1)" xlink:href="#Symbol_1_0_Layer0_0_FILL"/>
</g>
</g>

<g transform="matrix( 1, 0, 0, 1, 0,0) ">
<use xlink:href="#stiker_222222_copy_14_0_Layer5_0_FILL"/>
</g>
</g>
</svg>
