
<svg xmlns="http://www.w3.org/2000/svg" version="1.1" xmlns:xlink="http://www.w3.org/1999/xlink" preserveAspectRatio="none" x="0px" y="0px" width="200px" height="200px" viewBox="0 0 200 200">
<defs>
<radialGradient id="Gradient_1" gradientUnits="userSpaceOnUse" cx="0" cy="0" r="94.7125" fx="0" fy="0" gradientTransform="matrix( 1, 0, 0, -0.9569750560908011, 96.35,97.4) " spreadMethod="pad">
<stop  offset="0%" stop-color="#FF0009"/>

<stop  offset="100%" stop-color="#750101"/>
</radialGradient>

<linearGradient id="Gradient_2" gradientUnits="userSpaceOnUse" x1="56.775" y1="61.62499999999999" x2="96.225" y2="179.575" spreadMethod="pad">
<stop  offset="0%" stop-color="#FFEE00"/>

<stop  offset="58.03921568627451%" stop-color="#FFEE00"/>

<stop  offset="100%" stop-color="#F20008"/>
</linearGradient>

<linearGradient id="Gradient_3" gradientUnits="userSpaceOnUse" x1="141.38750000000002" y1="61.25" x2="178.2125" y2="61.25" spreadMethod="pad">
<stop  offset="0%" stop-color="#EC046B"/>

<stop  offset="100%" stop-color="#FC1C7F"/>
</linearGradient>

<linearGradient id="Gradient_4" gradientUnits="userSpaceOnUse" x1="142.75" y1="90" x2="175.35000000000002" y2="115.30000000000001" spreadMethod="pad">
<stop  offset="0%" stop-color="#FFEE00"/>

<stop  offset="58.03921568627451%" stop-color="#FFEE00"/>

<stop  offset="100%" stop-color="#F20008"/>
</linearGradient>

<g id="Layer0_0_MEMBER_0_FILL">
<path fill="#5B5B5B" stroke="none" d="
M 165.9 12.15
Q 165.25 11.75 163.3 11.05 161.65 10.55 160.1 10.55
L 159.7 10.55
Q 156.95 10.55 155.7 10.75 153.7 11.1 151.8 12.25 149.4 10.65 149 10.45 147.45 9.45 145.5 8.65
L 145.4 8.65
Q 135.75 4.8 126.3 8.25 116.8 11.8 111.4 20.55 109.7 19.65 109 19.45 107 18.7 105.3 18.7 103.4 18.7 102 19.1 100 19.8 99.05 20.3
L 98.4 20.3
Q 94.9 20.6 91.9 23.1 89.4 25.1 88.5 27.6 85.75 23.75 81.9 21.8 78.9 20.3 75.7 20.3 72.4 20.3 69.7 21.8 66.5 23.55 64.7 27.15
L 64.6 27.05 64.4 26.8
Q 62.8 24.55 59.9 22.5 57.45 20.8 54.7 20.2 51.95 19.4 48.5 20.1 45.15 20.7 42.6 23.1 40.05 25.5 39.3 28.8 38.7 31.35 39.3 34.2 39.3 34.6 38.9 35.8 35.9 35.2 32.75 35.85 29.25 36.6 26.55 38.85
L 26.35 38.95
Q 23.6 41.45 22.45 45.45 21.55 48.85 22.15 52.25 20.35 52.25 18.25 52.75 13.45 54 10.55 57.35 7.45 60.75 7.15 65.15 7.15 67.45 7.45 68.65 5 72.45 5.45 76.95 5.9 81.6 8.95 85.95 8.05 87.45 7.65 89.95 7.45 91.15 7.25 91.85 5.85 96.3 7.65 100.35 8.6 102.55 10.85 104.95 11.05 105.05 11.15 105.15
L 12.85 125.95 12.85 126.05
Q 12.95 126.25 12.95 126.65 12.95 127.05 13.05 127.35 13.15 128.05 13.15 129.45 13.15 130.85 13.25 131.55 13.6 135.8 14.75 138.85 15.45 140.95 16.85 143.25 16.35 143.3 14.85 143.75 12.45 144.65 11.55 145.15 4.15 149.2 2.2 157.65 0.4 165.9 4.8 175.2 6.2 177.85 7.6 179.3 10.9 183.25 16 185.6 20.85 187.8 26.7 188.3 32.3 188.75 38.1 187.65 43.95 186.55 49 184 52.45 182.35 55.1 180.15 58.95 182.2 63.4 182.45 68.15 182.6 72.2 180.45 73.8 179.45 74.6 178.8
L 74.7 178.7
Q 75.4 178.1 76.8 176.7 77 176.5 77.4 176.4 79.5 175.2 80.7 174 81.3 174.25 82.7 174.65 85.4 174.8 85.5 174.8
L 85.7 174.8
Q 86.95 174.8 88 174.5
L 89.8 173.9
Q 91.7 174.85 93.5 175.1 94.65 176.25 96.4 177.3 97.8 178.05 100.1 178.6 105.35 179.5 109.35 176.5 111.65 174.75 113 172.2
L 114.6 171.2
Q 118 174.3 123.3 175.3 128.65 176.2 134.1 174.2 137.5 175.75 142 175.5 148.55 175.2 153.65 171.5 158.7 167.95 161.15 162.15 167.85 161.05 173.55 156.15 179.7 150.9 181.25 144.8 182 142.1 182.25 140.7 183.05 136.35 183.15 135.6 183.55 132.4 183.55 130.6 183.7 128.05 183.25 125.8 183.55 124.45 183.55 123.2 183.55 121.85 183.25 120.5 183.1 119.7 182.85 119.1 182.55 118.4 182.45 118.1 184.05 113.8 184.45 110.2 184.95 105.25 182.65 101.6 183.25 99.25 182.75 96.7 182.5 94.6 181.25 91.9 181.55 91 182.25 88.2 182.9 85.2 183.05 84.1
L 184.35 82
Q 188 75.8 189.7 68.5 191.5 61.1 191 53.9 189.85 39.5 181.1 31.05 181.75 28.25 181.6 25.95 181.45 23.4 180.6 20.3 179.1 15.45 174.8 13.15 170.65 10.9 165.9 12.15
M 162.4 12.1
Q 163.55 12.35 164.9 13.2 165.2 13.5 165.7 13.3 169.8 12.1 173.5 14 177.15 16 178.3 20 179.05 22.55 179.2 25.1 179.35 27.65 178.6 30.2 178.45 30.9 178.9 31.2 183.25 35.35 185.8 41.25 188.15 46.8 188.6 53.3 189.05 60.25 187.4 67.3 185.75 74.25 182.3 80.2
L 180.9 82.5 180.8 83
Q 180.4 85.8 180.1 87.1 179.8 88.5 179 91.1 178.9 91.45 179.1 91.9 180.35 94.4 180.6 96.4 181 98.5 180.5 100.9 180.4 101.25 180.6 101.7 182.8 105 182.3 109.4 181.95 112.55 180.2 117.2 180.2 117.8 180.3 118 180.75 118.9 180.8 119.1
L 181.1 120.3
Q 181.3 121.7 181.3 122.5 181.3 123.7 181 124.9
L 181 125.3
Q 181.4 127.3 181.4 129.9 181.2 133.1 181 134.7 180.9 135.85 180.1 139.7 179.85 140.95 179.1 143.7 177.65 149.3 172.1 154 166.5 158.8 160.1 159.7 159.5 159.85 159.3 160.4 157 166.05 152.3 169.4 147.65 172.8 141.7 173.1 137.7 173.3 134.4 171.9
L 133.9 171.8
Q 133.6 171.8 133.5 171.9
L 133.3 172.1 133.15 172.1
Q 128.2 174 123.45 173.1 118.8 172.35 115.15 169 114.95 168.7 114.55 168.7 114.15 168.65 113.85 168.9 113.25 169.5 112.85 169.7
L 111.65 170.3
Q 111.3 170.45 111.15 170.8
L 111.15 170.9
Q 107.3 177.65 100.25 176.4 98.85 176.15 97.15 175.3 95.95 174.7 94.55 173.3 94.5 173.25 94.05 173
L 93.95 173
Q 92.4 173 90.35 171.8 89.85 171.65 89.35 171.8 88.45 172.25 87.45 172.4 86.55 172.7 85.45 172.7 84.1 172.7 83.05 172.5 82.05 172.2 80.85 171.7 80.25 171.35 79.65 171.9 78.2 173.35 76.35 174.4
L 75.45 174.9 75.25 175.1
Q 74.25 176.25 73.35 176.9
L 73.25 176.9
Q 71.85 177.9 71.15 178.3 67.6 180.25 63.5 180.1 59.55 179.95 55.5 177.7 54.9 177.3 54.4 177.8 51.9 179.95 48.1 181.95 43.2 184.45 37.7 185.5 32.1 186.6 26.8 186.05 21.3 185.6 16.8 183.55 12.05 181.4 9 177.75 7.6 176.05 6.5 173.95 4.55 170.05 3.9 165.9 3.3 161.7 4.1 157.95 5.7 150.5 12.5 146.8 13.85 146 15.5 145.5 17.1 145 18.7 144.8 19.15 144.75 19.4 144.4 19.7 144.1 19.6 143.7 19.6 143.4 19.4 143.2 17.9 141.3 16.7 138.1 15.65 135.25 15.3 131.3
L 15.3 129.4
Q 15.3 127.8 15.2 127
L 15.2 126.9 15.1 126.3
Q 15 126.1 15 125.7
L 15 125.6 13.3 104.7
Q 13.2 104.3 13.1 104.2 13 103.9 12.5 103.4 7.45 98.35 9.3 92.3 9.4 92.05 9.8 90.1 10.2 87.8 11.2 86.25 11.65 85.8 11.2 85.15 8.15 81.15 7.7 76.65 7.25 72.8 9.6 69.3 9.9 68.8 9.8 68.4 9.3 66.7 9.5 65.25 9.75 61.6 12.35 58.65 14.9 55.7 19 54.65 21.1 54.1 23.6 54.25 23.95 54.3 24.3 54 24.6 53.7 24.6 53.3 24.6 53 24.5 52.9 23.5 49.5 24.5 45.9 25.4 42.45 27.75 40.5
L 28 40.3
Q 30.35 38.4 33.25 37.8 36.15 37.2 39.25 38 39.65 38.1 40.05 37.9 40.45 37.65 40.5 37.3
L 40.7 36.6
Q 41.4 34.8 41.2 33.9
L 41.2 33.8
Q 40.75 31.35 41.2 29.4 41.8 26.65 43.9 24.7 46.05 22.7 48.9 22.1 51.5 21.5 54.3 22.1 56.35 22.45 58.9 24.1 60.9 25.45 63 28
L 62.5 27.3
Q 63.1 28.1 63.6 28.3 65 28.9 65.9 27.1 67.35 24.05 70.1 22.6 72.35 21.4 75.1 21.4 78.05 21.4 80.5 22.7 84.7 24.8 87 29 87.35 29.7 88.1 29.5
L 88.3 29.4 88.6 29.4
Q 89.25 29.25 89.4 28.6 90.1 25.75 92.6 23.6 94.9 21.6 98.1 21.3
L 98.9 21.3
Q 99.3 21.3 99.4 21.2 100.7 20.4 102 20.1 103.5 19.8 104.8 19.8 106.4 19.95 107.9 20.4 109.15 20.8 110.7 21.8 111 22.05 111.45 22 111.9 21.95 112.1 21.6 112.2 21.6 112.2 21.5 114.8 17.1 118.55 13.95 122.25 10.8 126.6 9.2 135.55 6 144.4 9.7
L 144.5 9.7
Q 146.7 10.7 147.7 11.3 149.2 12.1 150.8 13.4 151.5 13.75 152 13.4 153.7 12.25 155.55 11.9 156.7 11.7 159.3 11.7
L 159.7 11.7
Q 161.2 11.7 162.4 12.1 Z"/>
</g>

<g id="Layer0_1_FILL">
<path fill="#FEFEFE" stroke="none" d="
M 180 31.2
Q 181.35 26.4 179.65 20.5 178.3 15.95 174.25 13.85 170.25 11.8 165.8 13.1 163.1 11.5 160.1 11.5 157.05 11.5 155.9 11.7 153.8 12.05 151.8 13.4 148.95 11.1 145.15 9.5 135.85 5.5 126.45 9.1 117.3 12.6 111.75 21.7 109 19.65 105.25 19.5 101.95 19.5 99.35 21.1
L 98.45 21.2
Q 95 21.55 92.4 23.85 89.75 26.05 88.85 29.3
L 88.35 29.4
Q 84.3 22 76.65 21.3 68.9 20.6 65.55 27.6 65.1 28.6 64.6 28.3 64.35 28.2 63.7 27.3 59.8 22.4 54.5 21.1 48.15 19.65 43.55 23.6 38.85 27.65 40.25 34 40.4 34.55 40.1 35.5 39.95 36.05 39.55 37 36.35 36.1 33.1 36.8 29.9 37.45 27.35 39.5
L 27.15 39.7
Q 24.4 42 23.5 45.95 22.6 49.65 23.55 53.2 16.45 52.7 11.8 57.6 7.15 62.5 8.75 68.7 6.05 72.45 6.75 77.35 7.35 81.7 10.35 85.7 9.25 87.45 8.95 89.1 8.75 90 8.35 92 6.9 96.75 9.35 101 10.65 103.2 12.5 104.9
L 14.4 127.3
Q 14.6 128.75 14.5 131.65 15.05 139.25 18.8 144.15 15.15 144.65 12.2 146.25 4.8 150.3 3.25 158.7 1.75 166.6 5.9 174.75 11.9 186.6 28.35 187.45 44.15 188.3 55.3 178.95 59.2 181.25 63.5 181.45 67.95 181.7 71.9 179.55 74.55 178.05 76.3 176.05 77.2 175.55 77.9 175.1 79.3 174.25 80.6 172.85 83.2 174 85.7 173.85 87.85 173.85 90 172.85 92.1 174.05 94.1 174.25 96.7 177.15 100.4 177.75 105.7 178.7 109.6 175.2
L 112.4 171.55
Q 113.75 170.95 114.8 170.05 118.6 173.6 123.85 174.45 128.85 175.2 133.9 173.35 134.1 173.35 134.2 173.25 134.25 173.25 136.5 174 139.3 174.75 142.1 174.65 148.4 174.3 153.4 170.7 158.25 167.15 160.6 161.3 167.1 160.4 172.85 155.65 178.8 150.8 180.4 144.65 181.7 139.85 182.3 135.5 182.95 129.15 182.3 125.8 182.9 123.25 182.4 120.75 182.15 119.4 181.5 118.15 183.3 113.3 183.6 110.05 184.05 105.2 181.7 101.75 182.8 96.6 180.2 91.9 181.5 88.2 182.1 83.75
L 183.5 81.4
Q 190.6 69.35 190.05 55.2 189.45 40.05 180 31.2 Z"/>
</g>

<g id="Layer0_2_FILL">
<path fill="url(#Gradient_1)" stroke="none" d="
M 165.1 19.9
Q 164.35 18.6 163.05 17.8 161.75 17 160.2 17
L 157.4 17
Q 155.55 17.2 154.25 18.55 152.95 19.9 152.7 21.7
L 151 19.9
Q 143.65 12.55 134.5 13
L 134 13
Q 128.85 13.3 124.45 16.2 120.2 18.95 117.1 23.7 114.6 27.55 113.2 32.6 112.45 31.05 110.9 30.3
L 110.7 30.2 110.7 30
Q 110.55 28.15 109.2 26.8 107.65 25.1 105.3 25.05 102.95 25 101.3 26.6
L 101.1 26.8
Q 99.1 26.3 97.3 27.2 95.2 28.25 94.45 30.45 93.65 32.6 94.7 34.7 93.1 34.5 92.3 34.5 88.45 34.5 84.8 36.5 84.8 34.95 84.4 33.9 83.45 30.75 80.9 28.8 79.5 27.8 78.6 27.4 76.1 26.2 73.8 27.1 71.6 27.85 70.5 30 70.05 31.5 70 32
L 68.7 32.5
Q 65.6 34.15 65.2 37.3 65 39.1 65.9 41.1 65.25 41.75 64.8 42.5 64.6 42.75 64.5 42.7 64.4 42.65 63.9 42.25 63.8 41.85 63.1 40.25 62.2 38.5 61.3 37.55 61.3 36.1 60.8 34.45 59.75 31.35 57.2 28.95 55.75 27.65 54.8 27.15
L 54.5 26.95
Q 53.95 26.6 52.65 26.3 51.4 26.05 50.6 26.05 50 26.05 48.8 26.45 44.2 28.2 45.2 32.65
L 45.4 33.35
Q 45.7 34.4 46.3 35.15 45.05 36.25 44.6 37.95
L 44.5 38.15
Q 44.4 38.55 44.4 39.45 44.55 42.95 46.9 45.15
L 48 45.95
Q 47.45 47 47.3 48.35 47 51.1 48.6 53.15
L 48.9 53.55
Q 48.5 53.65 46.9 54.45 46.1 52.05 45.6 50.95 44.45 48.1 42.5 45.65 39.65 42.15 35.9 41.85 32.85 41.55 30.3 43.65 28.6 45.05 28.3 47.25 27.9 50.2 28.5 51.9 29.05 53.3 30.6 54.55 29.1 55.25 28.15 56.6 27.2 58 27.2 59.65
L 26.4 59.35
Q 21.6 57.7 18.1 59.25 15.5 60.45 14.2 62.95 12.85 65.5 14 67.95 14.25 68.55 15 69.85
L 14.8 69.95
Q 13.2 70.9 12.35 72.55 11.45 74.4 11.8 76.45 12.6 80.25 15 82.95
L 16 84.05
Q 16.3 85.4 16.9 86.45 16.6 86.55 16 86.95 13.5 89 13.8 92.15
L 13.7 92.3
Q 13.05 93.25 12.9 94.75 12.6 97.25 14.5 99.15
L 15.6 100.3
Q 16.4 101.3 17.2 101.8
L 19.1 125.1
Q 19.25 126.2 19.5 126.9 19.3 128.2 19.5 130.55 19.7 132.9 20.2 135 21.4 139.65 24.1 141.65
L 24.7 141.95
Q 26.15 142.95 28.2 142.95
L 29.1 142.95 29 143.95
Q 28.65 146.7 27.9 151.05
L 27.2 150.65
Q 22.6 148.6 18.1 149.35 13.95 150.1 11.3 153.05 8.6 155.9 8 160.25 7.35 165.75 10.4 171.75 11.8 174.45 14.5 176.65 16.75 178.45 20.1 179.75 26.15 181.85 32.9 181.25 39.95 180.8 45.7 177.75 51.25 174.9 54.5 170.75 54.8 171.25 55.8 172.25 56.6 172.95 58.4 173.95 61.95 175.55 65.2 175.15 69.2 174.6 71.8 171.5 72.25 171.05 72.4 170.8 74.6 169.95 76.3 168.15 78.3 166 78.9 162.75
L 79.3 163.15
Q 79.3 163.25 79.5 163.45
L 79.8 164.25
Q 80.25 165.6 81.5 166.55 83.05 167.8 85.1 167.75 87.1 167.65 88.6 166.35
L 89.4 165.95 90.3 165.35
Q 91 166.6 91.8 167.15 93.35 168.25 95.2 168.25
L 96.6 168.25 97.4 169.45
Q 98.75 171.35 101.05 171.75 103.35 172.2 105.2 170.85 106.9 169.7 107.4 167.55
L 107.7 166.65 109.1 166.25
Q 111 165.65 112.1 164.05 113.2 162.45 113.1 160.55 114.1 161.35 114.6 161.65
L 116.2 162.55
Q 118.6 167.1 123.6 168.25 127.55 169.3 131.8 167.65 132.4 167.45 133.7 166.75
L 134.1 166.55
Q 137.65 168.7 141.7 168.55
L 143.1 168.45
Q 150.2 167.3 153.8 161.65 155.5 159.1 156.3 155.55
L 158.1 155.55
Q 163.2 155.5 168.4 151.5 173.65 147.55 174.9 142.75 178.3 130.85 176.5 125.15 177.35 123.25 177 121.5 176.6 119.65 175.2 118.85 177.65 111.35 177.75 110.85 178.7 105.55 175.7 102.95 175.7 102 176.1 100.95 176.85 99.1 176.2 96.5 175.5 93.9 174 92.55 175.9 88.1 176.65 82.65 176.8 81.85 176.8 81.35 178.6 78.9 180.5 75.05 182.4 71.05 183.5 66.15 186 54.75 182.6 45.25 180.2 38.25 175.1 34.1 174.1 33.3 173.1 32.7 173.9 31.5 174.2 30.8 175.25 28.4 175.1 25.8 175.1 23.9 174.4 21.8 173.1 17.95 168.9 18.1
L 168.8 18.1
Q 168.4 18.1 167.6 18.3 166.6 18.7 166.1 19 165.55 19.45 165.5 19.5
L 165.1 19.9 Z"/>
</g>

<g id="Layer0_3_FILL">
<path fill="#ED066C" stroke="none" d="
M 74.95 32.4
Q 74.8 32.6 75.3 32.9 78.45 34.35 76.8 38.05 76.5677734375 38.563671875 76.3 38.95 76.1208984375 38.7767578125 75.9 38.6 74.15 37.3 71.55 37.3 70.4 37.4 70.15 37.9 69.9 38.4 70.65 39.2 72.1 40.9 74.1 41 75.2953125 41.0583984375 76.25 40.5 76.3369140625 41.0689453125 76.15 41.7 75.8 42.85 74.8 43.7 72.7 45.4 69.3 45 68.9 44.95 69.3 45.3 69.75 45.7 70 45.7 71.8 45.95 73.5 45.45 75.25 44.95 76.5 43.8 77.6 42.65 77.4 41.1 77.2974609375 40.484375 77 39.95 77.2974609375 39.706640625 77.55 39.4 79.05 37.55 78.35 35.45 77.7 33.55 75.55 32.5 75.05 32.2 74.95 32.4
M 75.9 39.5
Q 74.4828125 41.2875 72.4 40 71.55 39.55 71.25 38.95 70.9 38.2 71.9 38 72.9 37.75 74 38.15 75.15 38.5 75.8 39.3 75.87265625 39.4017578125 75.9 39.5 Z"/>
</g>

<g id="Layer0_4_FILL">
<path fill="#FF92BE" stroke="none" d="
M 92.25 47.75
Q 92 48.35 92.3 48.5 94.25 49.65 94.7 51.65 94.7412109375 51.8275390625 94.75 52 94.5423828125 51.8880859375 94.3 51.8 92.95 51.35 91.5 51.65 89.9 52 89.1 53.1 88.4 54.05 88.55 55.3 88.7 56.6 89.8 57.1 91.3 57.8 93.05 56.3 94.42265625 55.2017578125 95.05 53.75 95.5904296875 54.1857421875 96 54.8 97.300390625 56.8060546875 96.75 59.55 95.691015625 59.2724609375 94.35 59.8 91.45 60.95 90.8 63.9 90.8 64.35 90.9 64.4 92.95 65.85 94.75 64.5 96.2451171875 63.3671875 96.95 61 98.2572265625 61.501953125 98.8 63.1 99.35 64.7 97.75 67.1 95.7 69.65 95.1 70.6 94.95 70.85 95 71.35 95.05 71.8 95.3 71.3 96.15 70.05 98.6 66.7 100.35 63.6 99.1 61.5 98.330078125 60.186328125 97.25 59.7 97.757421875 57.4009765625 97.2 55.3 96.70390625 53.3869140625 95.45 52.4 95.6318359375 51.1263671875 95.1 49.85 94.4 48.1 92.7 47.2 92.45 47.1 92.25 47.75
M 94.65 53.45
Q 94.3654296875 54.4490234375 93.4 55.2 92.25 56.1 90.95 56.15 89.4 56.25 89.2 54.7 89 53.5 90.8 53.1 92.15 52.75 93.4 53 94.0904296875 53.1294921875 94.65 53.45
M 96.4 60.85
Q 96.3298828125 61.1646484375 96.2 61.5 94.69609375 65.5267578125 91.5 63.4 91.4427734375 63.6111328125 91.4 63.8
L 91.3 63.3
Q 91.3994140625 63.3697265625 91.5 63.4 92.2103515625 61.125 94.95 60.8 95.773046875 60.70234375 96.4 60.85 Z"/>
</g>

<g id="Layer0_5_FILL">
<path fill="#FFEE00" stroke="none" d="
M 168.15 23.7
Q 168.1361328125 23.79375 168 24.1 167.7 24.65 167.8 24.8 169 27.7 167.65 28.9 166.96015625 29.460546875 165.9 29.4 166.2185546875 28.579296875 166.1 27.75 165.9 26.25 164.25 25.6 164.15 25.6 163.95 25.8 162.75 27.45 162.95 28.9 163.1619140625 30.2984375 164.75 30.45 164.444140625 30.7193359375 164.05 30.9 161.9 31.9 159.25 29.7 159.15 29.6 158.85 30.15 158.5 30.65 158.65 30.8 160.2 32.3 162.05 32.3 163.95 32.35 165.25 30.6 165.2859375 30.550390625 165.3 30.5
L 165.35 30.5
Q 167.65 30.45 168.35 27.95 168.89765625 25.908984375 168.15 23.7
M 163.65 27.7
Q 163.6 27.1 164 27 164.3 26.95 164.75 27.2 165.9 28 165.55 29.2 165.524609375 29.29765625 165.5 29.4 164.5326171875 29.2283203125 163.95 28.5 163.65 28.2 163.65 27.7 Z"/>
</g>

<g id="Layer0_6_FILL">
<path fill="#BAD234" stroke="none" d="
M 100.4 35.2
L 98.9 37.9 102 37.5 104.05 39.8 104.65 36.7 107.55 35.4 104.8 33.9 104.4 30.8 102.05 32.9 99 32.3 100.4 35.2 Z"/>
</g>

<g id="Layer0_7_FILL">
<path fill="#17ACE6" stroke="none" d="
M 123.3 106.5
L 123.4 108.4 121.8 109.6 123.55 110.1 124.15 112 125.3 110.4 127.3 110.4 126.05 108.9 126.65 107 124.9 107.6 123.3 106.5 Z"/>
</g>

<g id="Layer0_8_FILL">
<path fill="#BAD234" stroke="none" d="
M 159.3 25.2
L 159.15 23.9 159.35 22.6 157.35 22.6 157.6 23.9 157.3 25.2 159.3 25.2 Z"/>
</g>

<g id="Layer0_9_FILL">
<path fill="#3FA9F5" stroke="none" d="
M 84.15 69.6
L 83.15 68.3 82.5 66.9 82 67.7 80.9 67.9 81.9 69.1 82.5 70.7 83.15 69.8 84.15 69.6 Z"/>
</g>

<g id="Layer0_10_FILL">
<path fill="#3FA9F5" stroke="none" d="
M 112 40.7
L 112 42 110.9 42.7 112.15 43.1 112.55 44.3 113.3 43.3 114.55 43.3 113.8 42.3 114.15 41 113 41.5 112 40.7 Z"/>
</g>

<g id="Layer0_11_FILL">
<path fill="#3FA9F5" stroke="none" d="
M 37 77.9
L 35.7 78.3 34.7 77.6 34.7 78.8 33.7 79.6 34.9 80 35.25 81.2 36.05 80.1 37.25 80.1 36.55 79.1 37 77.9 Z"/>
</g>

<g id="Layer0_12_FILL">
<path fill="#BAD234" stroke="none" d="
M 70.9 113.9
L 70.8 112.5 71 111.2 69 111.2 69.15 112.5 68.9 113.9 70.9 113.9 Z"/>
</g>

<g id="Layer0_13_FILL">
<path fill="#BAD234" stroke="none" d="
M 34.55 62.6
L 34.5 61.3 34.7 60 32.7 60 32.9 61.3 32.55 62.6 34.55 62.6 Z"/>
</g>

<g id="Layer0_14_FILL">
<path fill="#FECC00" stroke="none" d="
M 17.6 74.95
Q 17.05 75.25 17.1 75.6 17.45 77.75 19.1 79.6 20.04609375 80.6986328125 21.15 81.4 21.178125 81.6375 21.2 81.9 21.5 84.95 24.05 86.3 26.35 87.45 29.4 86.8 29.85 86.75 30 86.25 30.1 85.7 29.5 85.8 24.95 86.75 23.1 83.8 22.571484375 82.9693359375 22.4 82 22.5556640625 82.05078125 22.7 82.1 24.7 82.8 25.9 81.3 26.9 80 26.8 77.9 26.8 77.7 26.6 77.5 24.25 76.85 22.65 78.15 21.7572265625 78.88046875 21.4 79.9 20.7912109375 79.4306640625 20.2 78.75 18.7 76.95 18.3 75 18.15 74.7 17.6 74.95
M 23.7 81.1
Q 23.029296875 80.9369140625 22.35 80.55 22.515234375 79.5943359375 23.1 78.9 23.95 78.1 25.7 78.4 26 78.5 25.4 80.5 25 81.45 23.7 81.1 Z"/>
</g>

<g id="Layer0_15_FILL">
<path fill="#727271" stroke="none" d="
M 144.8 107.9
L 143.85 107.6 140 119 140.85 119.3 144.8 107.9 Z"/>
</g>

<g id="Layer0_16_FILL">
<path fill="#727271" stroke="none" d="
M 125 73.9
L 124.05 74.2 140.5 123.8 138.5 66.4 137.5 66.5 139.15 116.9 125 73.9 Z"/>
</g>

<g id="Layer0_17_FILL">
<path fill="#FFEE00" stroke="none" d="
M 34.25 50.6
Q 34.75 51.1 36.35 52.2 40.2 55.4 42.4 64.4 43.7 60.85 40.4 53.3 36.95 45.5 33.7 48.2 33.5 49.8 34.25 50.6 Z"/>
</g>

<g id="Layer0_18_FILL">
<path fill="#17ACE6" stroke="none" d="
M 18.85 65.9
Q 19.5 67.3 20.65 67.55 21.4 67.7 23.6 67.75 29 68.3 35.9 74.4 35.25 70.85 28.05 66.55 20.6 62.1 18.85 65.9 Z"/>
</g>

<g id="Layer0_19_FILL">
<path fill="#2193D8" stroke="none" d="
M 51.55 31.9
Q 51.35 31.75 50.9 31.85 50.4 31.9 50.7 32.3 55 34.65 54.5 37.9 54.396875 38.65625 54.05 39.35 51.904296875 38.547265625 49.75 39.4
L 49.7 39.5
Q 49.75 41.4 51.4 41.7 53.05 42.05 54.25 40.7 54.451171875 40.4798828125 54.6 40.25 56.3265625 41.27109375 57.2 43.6 57.8623046875 45.5869140625 57.5 47.05 56.6888671875 46.6306640625 55.8 46.6 54.75 46.55 53.8 47.3 52.85 48 52.6 49 52.35 49.9 53.15 50.25 53.75 50.5 54.7 50.4 57.0912109375 50.095703125 58.05 48.25 58.82890625 48.9515625 59.2 49.9 59.85 51.7 58.95 53.55 58.1 55.25 56.3 56.1 56.15 56.2 56.65 56.4 57.2 56.65 57.4 56.5 59.2 55.6 60.15 53.8 61.15 51.75 60.3 50 59.65 48.65 58.5 47.7 58.4359375 47.64609375 58.35 47.6 59.23515625 45.320703125 58 42.9 56.958203125 40.7712890625 54.95 39.75 56.12578125 37.8703125 55.25 35.8 54.3 33.5 51.55 31.9
M 52.3 39.7
Q 53.3021484375 39.6564453125 53.75 39.85 53.7373046875 39.895703125 53.7 39.95 53 41.05 52 41.4 51 41.8 51 40.3 51 39.7 52.3 39.7
M 53.9 49.3
Q 54.5 47.95 55.5 47.5 56.3513671875 47.09453125 57.3 47.65 57.1755859375 47.9328125 57 48.2 56 49.35 54.7 49.8 54.1173828125 49.945703125 53.8 49.95 53.8015625 49.4970703125 53.9 49.3 Z"/>
</g>

<g id="Layer0_20_FILL">
<path fill="#F25A98" stroke="none" d="
M 146.5 95.5
Q 146.6 94.85 146.6 94.2
L 145.6 93.8
Q 144.05 95.35 143.7 95.8 144.1 96 144.35 96.05 144.7 96.05 145 96.2 145.3 96.35 145.7 96.65 146.1 96.95 146.5 97.1 146.4 96.05 146.5 95.5 Z"/>
</g>

<g id="Layer0_21_MEMBER_0_FILL">
<path fill="#FF7700" stroke="none" d="
M 128.2 83.6
Q 128 83.3 127.4 82.9
L 126.5 83.25
Q 126.3 84.7 126.4 85.4 126.75 85.35 126.95 85.15 127.15 85 127.5 84.9 127.7 84.85 128.25 84.8 128.65 84.75 129.1 84.6 128.55 84.1 128.2 83.6 Z"/>
</g>

<g id="Layer0_21_MEMBER_1_FILL">
<path fill="#FF7700" stroke="none" d="
M 107.8 54.15
Q 104.85 60.8 107 68.5 109.15 76.2 115.05 80.45 120.95 84.65 127.15 82.9 133.45 81.2 136.35 74.55 139.3 67.95 137.15 60.2 135.05 52.5 129.2 48.3 123.3 44.1 117 45.8 110.75 47.55 107.8 54.15 Z"/>
</g>

<g id="Layer0_21_MEMBER_2_FILL">
<path fill="#DE6903" stroke="none" d="
M 134.35 73.35
Q 130.75 78 125.3 79.7 120.7 81.05 116.4 80.4 119.9 81.8 121.8 82.1 124.6 82.5 127.4 81.5 131.4 80 133.45 77.45 135.55 74.85 136.6 69.8 136.1 71.1 134.35 73.35 Z"/>
</g>

<g id="Layer0_21_MEMBER_3_FILL">
<path fill="#FF902E" stroke="none" d="
M 109.25 53.1
Q 105.65 59.2 107.4 64.5 109.35 70.25 111.25 72.35 114.85 76.25 121.8 75.2 127.8 74.35 131.15 68.65 134.2 63.3 133.1 57.4 132 51.75 127.5 48.35 122.95 44.9 117.9 46 112.75 47.05 109.25 53.1 Z"/>
</g>

<g id="Layer0_22_FILL">
<path fill="#750101" stroke="none" d="
M 104.05 74.05
Q 103.2 73.45 102.5 73.15 101.1 72.6 99.65 73.25 98.55 73.7 97.55 74.85
L 97.05 75.55
Q 96.15 74.8 94.75 74.65 93.55 74.5 92.05 75.95 91.7 76.25 90.9 77.25
L 90.8 77.15 89.2 76.35
Q 87.85 75.9 86.5 76.35 85.45 76.7 84.8 77.35 83.9 76.45 82.3 76.65 81.25 76.8 80.2 77.65
L 80.1 77.65 80 77.75
Q 79.2 78.45 78.9 79 78.4 79.95 78.4 81.55 78.25 81.1 78 80.85 77.25 79.95 76.1 79.55 74.5 78.85 73.3 79.25 72.5 79.65 72.2 79.95 71.3 79.5 70.2 79.65 70.5 79.3 70.7 79.15 71.2 78.7 71.7 77.8 73.25 75.25 73.4 71.15 73.55 66.85 72.1 63.35 71.25 61.35 70 59.95 68.55 58.35 66.6 57.85 64.8 57.45 62.7 58.25 61.35 58.85 60 60.05 56.6 63.1 55.1 69.95 53.7 76.15 54.4 82.55
L 53.5 82.75 52.9 82.8
Q 52.5 74.65 54.65 68.55 55.8 65.35 57.5 63.1
L 57.7 62.7
Q 58.05 62.1 58 61.2 57.85 60.3 57 59.7 55.6 58.8 54.05 58.5 52.5 58.2 50.85 58.6
L 50.75 58.6
Q 46.05 60.1 44.2 67.6 43.35 71.2 43.2 75.8 43.1 79.75 43.5 83.4
L 43.2 83.4
Q 38.7 83.9 36.45 84.8 32.25 86.55 30.35 90.75
L 30.15 91.25
Q 28.95 94.55 30.35 98.4 31.8 102.3 35 103.8
L 35.5 104 35.9 104.1
Q 37.1 104.3 37.45 103 37.85 102.4 37.95 102.1
L 38.15 101.5
Q 38.9 97.6 40.85 95.3 42.3 93.6 44.75 92.6 45.2 97.2 44.55 100.5 44.05 103.25 42.95 105.35 42.25 106.7 41.65 107.3 41.2 107.6 41.05 108 40.65 108.8 40.85 109.9 41 110.65 41.65 111.3 41.95 111.6 42.55 112 45 113.35 47.75 112 50.35 110.6 51.85 107.8 53.3 104.85 53.65 99.9 54.1 95.15 53.55 90.2
L 55.55 89.8
Q 57.2 100.9 56.05 106.1 55.65 108.2 54.65 109.55 53.9 110.5 52.45 111.4
L 51.95 111.8
Q 51.25 112.35 51.25 113.4 51.25 114.35 51.65 115
L 52.15 115.7 53.05 116.4
Q 54.95 117.5 57.5 117.2 60.2 116.85 62.05 115 62.75 114.45 63.35 113.4 65.7 109.4 65.55 104.6 66.2 105.35 67.25 105.9 67.35 106 67.95 106.2 69.8 106.65 71.55 105.4 72.55 104.7 73.35 103.4
L 73.65 103.6
Q 75.05 104.55 76.65 104.4 78.2 104.4 79.55 103.2 79.5 106.65 79.15 108.8 78.85 110.95 78.15 112.3
L 77.85 113.2
Q 77.65 113.95 77.75 114.4
L 78.05 115.3
Q 77.2 115.4 76.25 115.8 75.1 116.4 74.35 117.3 73.9 117.9 73.75 118.7 73.6 119.65 74.05 120.4 74.7 121.25 75 122.2 75.05 122.4 75.15 122.9 73.25 123.7 72.25 124.7 70.7 126.1 70.15 128 69.7 129.85 70.15 131.4
L 70.5 132.2
Q 69.9 132.15 69.05 132.3 69 130.45 68.5 129 67.65 126.5 65.3 125.5 64.55 125.2 63.75 125.2 62.45 125.2 61.7 125.9 60.85 126.55 60.5 127.6 60.05 128.5 60.05 130.1 60.3 133.55 61.25 135.5 62.25 137.4 63.85 138.5 63.75 139.9 63.35 143.1 63.2 141.45 62.75 139.9 62.15 138.15 61.2 137.2 59.85 135.85 58.4 135.6 56.55 135.25 54.8 135.9
L 54.7 135.9
Q 53.05 136.75 53.4 138.5 53.5 139.1 53.9 139.9 54.5 141.1 54.5 142.5 54.5 142.95 54.3 145.65 52.7 140.65 48.6 138.25 51.2 133.9 52.1 129.65 53.8 121.6 48.6 117.45
L 48.1 117.05
Q 46.5 116 44.6 115.55 39.65 114.45 33.9 117.95 29.05 120.95 26.3 124.95 25 126.9 24.7 128.25 24.45 129.45 24.8 131.85 25.55 135.5 26.1 136.45 26.5 137.25 27.1 137.55 27.6 137.75 28 137.75 28.6 137.75 28.85 137.55 29.45 137.25 29.75 136.65 30.2 136 30.55 135.15 32.95 130.65 33.85 129.35 35 134.25 34.25 142.55 33.75 148.4 32.4 154.7 31.2 160.45 29.75 164.55 29.4 165.9 29.85 166.85 30.45 167.9 32 168.05
L 32.05 168.05
Q 37.9 167.9 40.65 160.45 42.55 155.45 43.05 146.25 43.95 146.65 44.65 147.85 45.35 149.25 45.35 151.65 45.45 153.1 45.05 155.55 44.6 157.7 43.2 160.4 41.5 163.65 39.25 165.85 35.75 169.2 31.75 168.65
L 30.85 168.45
Q 27.35 167.65 26.45 164.75 25.85 163.1 26.15 160.45
L 26.25 159.95
Q 26.65 158.7 26.15 157.65 25.8 156.55 24.55 155.95 21.8 154.55 18.85 155.05 16.4 155.55 14.95 157.15 13.35 158.95 13.05 161.45 12.55 165.2 14.85 169.65 16.55 173.2 21.55 175.05 26.1 176.7 31.85 176.25 37.7 175.8 42.75 173.25 50.4 169.4 52.95 162.25 54.2 158.65 54.55 156.85
L 55.05 157.85
Q 56.65 161.1 59.55 161.55 59.75 161.65 60.35 161.65 64.05 161.65 66.05 155.65
L 66.65 153.55 66.95 154.35
Q 68.45 158.75 72.75 158.95 75.05 159.1 76.75 156.85 77.55 155.65 77.95 154.85 78.35 155.4 79.05 155.75 80.6 156.65 82.85 156.15 84.7 155.7 85.95 153.85 86.3 154.4 86.85 154.65 88.1 155.6 90.35 154.75 92.4 154 93.05 152.85 93.45 152.2 93.45 150.75
L 93.45 149.65
Q 94.4 151.75 96.65 152.05 97.1 152.15 98.25 151.95 100.05 151.35 101.45 149.95
L 102.45 148.75
Q 102.75 149.05 103.35 149.45
L 103.45 149.55 103.95 149.85
Q 106.15 150.75 108.35 149.05 109.05 148.45 110.25 146.85 110.75 147.65 111.85 148.35 113 149 114.55 148.85 115.95 148.7 117.45 147.95 119.1 147.05 120.05 145.45
L 120.35 144.85
Q 121.15 145.4 121.35 145.45 121.45 145.55 122.05 145.75 123.9 146.2 125.65 144.95 126.85 143.95 127.45 142.95
L 127.75 143.15
Q 129.05 144.1 130.75 143.95 132.5 143.8 133.95 142.35 134.75 141.7 135.55 140.25
L 136.05 140.65
Q 136.75 141.2 137.75 141.55 136.05 142.2 134.65 143.25 131.55 145.7 130.85 149.85 130.65 151.5 130.75 152.45 130.75 153.55 130.85 154.05 131.7 158.75 134.95 161.35 137.9 163.75 141.05 163.55 141.55 163.55 141.75 163.45 146.15 162.75 148.65 159.05 151 155.4 150.85 149.25
L 150.95 149.25
Q 154.4 149.5 156.4 149.15 158.45 148.8 159.55 147.85 160.65 146.9 161 145.3 161.25 144.15 161.25 141.75 161.25 139.75 160.8 138.9 160.3 138.05 159.25 138.05 158.4 138.05 157.05 139.25 155.3 140.6 154.4 141.05 152.4 142.1 150.05 141.95 149.75 139.05 149.55 137.85 148.5 129.65 148.35 126.85 148.05 121.95 149.05 120.15
L 149.35 119.35
Q 149.65 118.25 149.35 116.95 148.95 115.45 147.75 114.75 147.6 114.6 146.85 114.35 146.55 114.35 146.35 114.25 144.5 113.9 142.85 114.75 140.85 115.75 140.15 118.25
L 140.05 118.65 139.45 117.95
Q 138.05 116.7 136.25 116.35 134.5 116.05 133.25 116.95
L 132.85 117.25
Q 131.75 118.25 131.95 119.85 131.35 119.1 130.15 118.65 128.55 117.95 127.35 118.35 126.55 118.75 126.25 119.05 125.2 118.6 124.05 118.75 122.55 119.1 121.35 120.15 119.1 122.25 117.75 126.65
L 117.45 127.85
Q 117.7 124.35 117.55 120.25 117.2 114.4 115.35 112.55
L 115.15 112.35
Q 113.85 111.05 112.45 110.75 113.3 110.9 114.25 110.75 118.3 110.5 120.45 106.65 121.65 104.4 122.15 100.85 124.5 101.1 127.25 100.55 129.95 100 131.95 98.85 132.45 98.6 133.45 97.85 136.2 95.55 136.35 92.05 136.65 89.3 135.15 86.55 135 86.1 134.25 85.15 131.5 81.7 127.95 83.75
L 127.85 83.75
Q 127.05 84.25 126.75 85.25 126.55 86.2 126.95 86.95 127.8 88.6 127.15 90.85 126.65 92.75 124.95 93.85 124.15 94.4 123.15 94.55 122.95 94.65 122.45 94.65
L 122.45 93.75 122.15 90.45
Q 121.1 81 120.95 78.35 120.9 76.35 121.25 73.05 121.4 71.7 121.35 71.3 121.2 70.65 120.45 69.95 120 69.5 119.35 69.35 118.1 69.05 116.85 69.45 115.45 70.05 114.65 70.95 113.95 71.65 113.5 72.85 112.55 70.95 110.9 70.25 108.8 69.4 106.55 71.25 105.35 72.15 104.05 74.05
M 109.65 73
Q 110.4 73.3 110.75 74.2 111.2 75.3 111.05 76.6
L 110.25 82.7
Q 109.7 87.9 110.75 89.2 112.65 91.5 114.45 89.2 114.49296875 89.2 114.5 89.15
L 114.15 90.1
Q 113.55 91.45 112.55 92.1 111.8 92.7 110.85 92.4
L 110.35 92.2
Q 109.5 91.85 108.95 89.3 108.4 86.45 108.75 81.2 108.85 80 108.85 78.1 108.85 75.7 107.25 75.4
L 106.65 75.4
Q 107.5 74.2 108.5 73.5 109.3 72.9 109.65 73
M 118.3 72.1
Q 118.35 72.15 118.2 72.5 117.8 74.8 117.9 78.4 118 81 119.1 90.8
L 119.5 97.3 119.4 98.9
Q 119.05 103.1 117.9 105.1 116.6224609375 107.323828125 114.35 107.65 114.562109375 107.6189453125 114.8 107.5 116.55 106.7 117.3 103.8 118.05 101.55 118.2 97.8
L 118.1 95
Q 118.1 94 117.9 91.8 117.7 89.6 117.5 88.6
L 116.4 82.1 116 83.6
Q 116 82.5 115.8 79.7 115.6 74.95 115.8 74.4 116 73.85 116.7 72.9 117.05 72.4 117.7 72.2 118 72.1 118.3 72.1
M 100 76.85
Q 100.5 76.15 100.9 76.05 101.25 75.85 101.55 76.05 102.15 76.35 102.25 76.45
L 102.75 76.85
Q 102.85 77.05 103.15 77.35
L 104.05 78.55 104 78.75 104.05 79.25
Q 104.5 81.55 104.55 82.75 104.7 84.75 104.55 87.4 104.5 90.9 103.05 93.6 102.7 94.55 102 95.1 101.55 95.35 101.3 95.2 100.8 95 100.4 94.6
L 99.15 93.35
Q 99.25 93.4 99.4 93.4 100.3 93.6 100.9 93.2 101.4 92.85 101.9 92 102.45 91.05 102.8 88.6 103.3 85.45 103.3 83.6
L 103.3 78.6 102.3 80 101.9 79.05
Q 101.3 78.65 101 78.55 100.7 78.45 100.1 78.45 99.45 78.45 98.8 78.95 99.15 77.9 100 76.85
M 94.3 80.2
L 93.9 78.4 94.2 78.1
Q 94.5 77.8 94.6 77.6 94.95 77.6 95.1 77.9 95.55 78.35 95.7 79.2
L 96.8 83.6
Q 96.6 86.05 96.8 87.5
L 97.65 95.9
Q 98.05 99.1 98.05 102.5 98.05 106.8 97.5 108.8
L 97.15 109.6
Q 96.5 110.9 95.55 111.3 94.8 111.75 94 111.6
L 94.3 111
Q 94.35 110.95 94.8 109.8 96.35 105.1 96.2 95.9 96.05 87.15 94.3 80.2
M 86.45 79.9
Q 86.95 79.3 87.35 79.25 87.8 79.1 88.25 79.25
L 88.85 79.55
Q 88.85 79.65 89.05 79.85
L 89.45 80.45 89.95 81.55 89.95 81.65 90.15 82.3
Q 90.55 83.5 90.95 86.3 91.15 87.75 91.15 90.75 91.15 92.35 90.7 94.15 90.2 95.95 89.45 97.25 89.1 98 88.25 98.75 88.05 98.9 87.65 98.9 87.35 98.7 87 98.3
L 85.5 96.5
Q 86.1 96.7 86.4 96.6 87.5 96.45 88.4 95.1 89.25 93.7 89.55 92.5 90.5 89.2 89.9 86
L 89.5 84 89.4 83.8 89.2 82.5 89.1 82.7
Q 88.75 82 88.3 81.7 88 81.5 87.4 81.3 86.85 81.15 86.4 81.3 85.5 81.65 85.1 82.2 84.65 82.8 84.1 85.6 83.7 88.05 83.8 89
L 84.3 95.25 84 94.8 84.3 99.65
Q 84.3 100.8 84.4 101.3 84.8 106.35 84.7 108.35 84.55 111.75 83.2 113.3 82.55 114.05 81.6 114.25 81.25 114.35 80.9 114.25
L 80.8 114.25 80.9 114.05
Q 81.8 112 82.1 109.65 82.6 105.9 82.6 98.3
L 82.6 89.75 82.3 90.4 82.3 90.1 81.55 83.1
Q 81.4 81.5 81.5 80.85 81.6 80.35 82 80.1
L 82.05 80 82.15 79.9 82.75 79.6
Q 82.75 79.75 82.85 79.9 82.95 80.1 82.95 80.6
L 85.85 81.1
Q 86 80.45 86.45 79.9
M 92 98.8
Q 92.75 97.6 93.2 96.1 93.35 104.6 91.9 108.9
L 91.55 109.8
Q 91.55 109.95 91.25 110.4
L 91.05 110.75
Q 90.6 111.5 90.75 112.3 90.95 113.35 91.75 113.9
L 92.15 114.1 93.05 114.4
Q 95.1 115 97 113.9 98 113.3 98.4 112.9 98.4 113.3 98.5 113.6 98.65 114.25 98.7 114.8 99.5 116.15 99.4 117.6 99.4 119.55 96.8 120.8
L 95 121.5 94.7 119.7
Q 94.4 117.75 93.3 116.5
L 92.7 115.8
Q 91 114.25 89.2 114.1 87.35 113.95 85.9 115.1
L 85.5 115.4
Q 84.85 116.05 84.85 116.85 84.85 117.2 85.2 118.2
L 85.3 118.4
Q 85.9 120.2 86.1 121.1
L 86.4 122.4 84.6 122.3
Q 84.6 121.9 84.4 121.3 83.9 119.9 83.6 119.3 83.05 118.05 82.2 117.2 84.05 117.05 85.5 115.3 87.35 113.2 87.7 109.55 87.95 107 87.5 102.1 88.6 102.1 89.9 101.3 91 100.5 92 98.8
M 113 85.3
L 112.9 85.45
Q 112.9 85.35 113.05 83.15 113.15 84.1 113 85.3
M 103.7 97.65
Q 104.85 96.8 105.8 95.05 106.6 93.25 106.9 92.15 107.75 94.05 109 94.75 107.65 95.9 106.6 97.8 105.4 99.95 105.7 103 105.85 105.1 106.8 106.9 108.1 109.1 109.8 109.9 110.95 110.5 111.8 110.6
L 111.3 110.6
Q 110.35 110.65 109.7 111.05 109.05 111.4 109 111.75 108.3 112.45 108.3 113.25
L 108.3 113.8
Q 107.6 112.65 105.8 111.75 104.2 111.1 102.1 111.1 100.7 111.05 100 111.25
L 99.9 111.25
Q 100 110.9 100.1 110.8 100.45 110.05 100.6 109.4 101.3 107.05 101.3 102.4 101.3 101 101.1 98.3 102.35 98.5 103.7 97.65
M 113.75 98.9
Q 114.35 98.75 115.15 98.9 115 101.2 114.5 102.9 113.9 104.75 113.5 104.8
L 113.3 104.9 112.65 104.8
Q 112.05 103.95 112 103.9 111.55 102.8 111.5 101.8
L 111.55 100.6
Q 111.95 99.8 112.25 99.5 113.05 99 113.75 98.9
M 121.25 97.6
L 121.05 97.5
Q 121.9 97.6 123.55 97.6 124.9 97.45 126.5 96.5 129.2 94.75 130 91.8 130.85 88.7 129.85 86.2 131 85.95 132 87.1
L 132.6 88
Q 133.65 90.05 133.5 91.9 133.5 93.95 131.65 95.5 131.25 95.9 130.65 96.2 128.5 97.25 126.75 97.6 124 98.1 121.25 97.6
M 33.3 96.95
Q 32.15 94.2 33.1 91.85
L 33.2 91.55
Q 34.7 88.4 38.05 87.1 39.95 86.4 43.6 86.05
L 45.6 85.85 47 85.55 46.8 84.15
Q 46.3 80.6 46.35 76.5 46.4 71.6 47.3 67.95 48.85 62.2 51.9 61.15 52.8 60.9 53.8 61.05 54.2 61.05 55 61.45 52.95 64.5 51.7 68.55 49.65 75.4 50.3 84.05
L 50.4 85.45 51.8 85.45
Q 53.4 85.45 54.3 85.35 55.5 85.2 57 84.55
L 58 84.05 57.9 82.95
Q 57.15 75.75 58.4 70.25 59.8 64.25 62.4 61.95 63.3 61.2 64.2 60.75 65.05 60.4 66.2 60.55 67.35 60.9 68.1 61.75 68.9 62.7 69.6 64.25 70.75 66.95 70.6 70.85 70.4 74.3 69.3 76.05 69.1 76.45 68.6 76.95 67.8 78.05 66.8 78.05 66.6 78.05 65.7 77.75 67.45 75.75 68.3 71.85 68.85 69.3 68.7 66.55 68.55 63.5 67.3 62.55
L 66.9 62.35
Q 65.65 61.9 64.55 63.15 64.25 63.45 63.5 64.95 62.45 66.95 61.25 71.35 60 76.05 60.35 83.95 60.45 87.15 61.35 94.55
L 61.85 97.75
Q 62.7 102.75 62.65 105.25 62.6 109.05 60.85 111.95 60.65 112.35 60.05 112.95 58.8 114.2 57.15 114.35 55.5 114.5 54.65 113.95
L 54.45 113.85
Q 56.15 112.75 57.15 111.35 58.4 109.6 58.95 106.95 60.3 100.65 58.25 87.75
L 57.95 85.75 56.15 86.65
Q 55.25 87.1 54.35 87.3 52.75 87.75 51.85 87.8
L 50.35 88 50.55 89.5
Q 51.3 94.8 50.85 100.1 50.5 104.7 49.45 106.8 48.35 109 46.65 109.7 45.3 110.4 44.15 109.8
L 44.05 109.7
Q 44.85 108.9 45.8 107.1 47.05 104.55 47.65 101.5 48.55 96.5 47.65 90.9
L 47.35 89.3 45.75 89.75
Q 41.5 90.65 38.7 93.8 36.3 96.55 35.5 100.5 33.9 99.35 33.3 96.95
M 65.7 67.5
Q 65.85 69.5 65.4 71.5 64.75 74.5 63.55 75.8 63.7 73.9 64.15 72.3 65.05 68.95 65.7 67.5
M 73.5 85.55
L 74.2 82.15 75 82.3
Q 75.35 82.4 75.7 82.75 75.25 84.55 75.1 87.8 74.8 92.1 75 94.3 75.2 96.85 75.7 98.15 76.6 100.45 78.1 100.45
L 78.3 100.45
Q 78.2 100.65 77.8 101.05 76.8 101.75 76.4 101.75 75.85 101.75 75.3 101.4 74.85 101.25 74.3 100.3
L 72.9 97.65
Q 73.4 93.7 73.4 93.3 73.55 90.85 73.4 88.65
L 73.5 85.55
M 71.05 82.75
Q 71.25 82.85 71.25 82.9
L 71.65 83.9
Q 70 84.25 69 87.4 68.2 89.9 68 93.1 67.75 96.65 68.3 98.7 68.4 99.35 68.9 100.1 69.45 101.1 70.4 101.1 70.8 101.1 71 101 71.5 100.65 71.55 100.6 71.45 101.15 71.05 101.6 70.6 102.6 69.75 103.3 69.05 103.7 68.55 103.6 68.5 103.5 68.4 103.5 66.6 102.7 65.8 98 65.15 93.5 66.6 88.4 67.7 84.85 69.3 83.3 70.05 82.8 70.5 82.65 71 82.65 71.05 82.75
M 67 81.3
L 67.4 81.3
Q 65.4 82.9 63.9 87.6 63.8 87.8 63.7 88.4
L 63.4 84.1
Q 63.2 82.05 63.4 80.1
L 63.9 80.5
Q 65.4 81.4 67 81.3
M 79.15 86.7
Q 79.35 88 79.45 90 79.05 93.35 78.35 95.8 78.15 94.6 78.15 94.2 77.95 92.05 78.25 88.1 78.4 85.6 78.75 83.6 79.05 85 79.15 86.7
M 78.55 123.55
Q 78.2 122 77.85 121.05 77.25 119.65 76.85 118.95
L 77.65 118.45
Q 78.25 118.25 78.65 118.25 79.1 118.25 79.65 118.65 80.3 119.15 80.85 120.25 81.3 121 81.45 121.75 81.65 122.35 81.85 123.55
L 82.05 124.75 84.75 124.95
Q 86.75 125.15 88.05 125.15
L 89.75 125.15 89.55 123.45
Q 89.45 122.4 89.05 120.15
L 88.15 117.05 88.05 116.85
Q 88.35 116.65 88.95 116.65 89.85 116.85 90.55 117.55 90.65 117.75 90.95 118.05 91.55 118.8 91.85 120.05 92.25 121.25 92.25 123.15
L 92.35 125.05 94.15 124.55
Q 95.05 124.4 96.15 123.95 97.15 123.6 98.15 123.05 102.25 121.05 102.45 117.45 102.55 116.05 101.85 113.95 103.25 113.95 104.35 114.45 105.6 115.15 105.95 116.35
L 106.05 116.85
Q 106.55 119.25 105.15 121.05 103.4 123.3 99.35 124.55
L 97.65 124.95
Q 96.15 125.25 95.45 125.35 95.4 125.4 93.45 125.65
L 92.15 125.75 90.65 139.55 91.05 138.75
Q 90.7 140.95 90.55 142.95 90.25 147.9 90.25 150.55
L 90.25 150.65
Q 90.25 151.05 90.1 151.25 89.9 151.6 89.15 151.85 88.25 152.15 88.15 152.05
L 87.95 151.55
Q 87.85 151.15 87.85 150.75 87.75 150.25 87.75 149.05
L 87.75 141.95
Q 88.5 138.9 88.55 138.65
L 88.75 138.65 88.75 138.5 89.35 134
Q 89.55 132.95 89.75 130.65 89.85 129.55 89.85 127.35
L 89.85 125.85 86.65 125.85
Q 84.55 125.85 83.65 125.95
L 82.25 126.05 82.25 127.45
Q 82.25 129.15 81.85 132.75 81.8 133.05 80.95 138.25 80.3 142.05 80.45 145.55 80.45 147.35 80.75 148.55 81.2 150.65 82.45 150.95
L 82.85 150.95
Q 83.8 150.95 84.65 149.95 83.85 151.7 83.55 152.15 82.9 153.1 82.15 153.25 81.25 153.55 80.55 153.15 79.8 152.7 79.05 150.75
L 77.95 147.45 78.15 145.95 78.15 145.65
Q 77.9 142.7 78.55 135.3 79.05 129.55 79.05 128.65
L 79.05 126.25 76.85 127.25
Q 75.05 128.15 73.95 129.25
L 73.25 130.05
Q 73.25 129.15 73.35 128.75 73.7 127.6 74.55 126.85 75.45 125.95 77.55 125.35
L 78.85 124.95 78.55 123.55
M 43.65 118.65
Q 44.7 118.9 46.05 119.75
L 46.45 120.05
Q 50.15 123 48.85 129.35 47.9 133.65 45.15 137.75
L 44.85 138.05 43.65 139.65 45.45 140.45
Q 47.45 141.25 48.9 142.9 50.75 145 51.45 148.05 52.8 153.6 49.95 161.35 47.7 167.45 41.25 170.75 37 172.95 31.45 173.45 26.5 173.75 22.45 172.35 18.75 171.05 17.45 168.45 15.6 164.8 15.95 161.95 16.1 160.5 17.05 159.35 18.15 158.3 19.25 158.15 21.15 157.85 23.15 158.85 23.35 158.85 23.35 158.95 23.5 159.1 23.35 159.45 23.35 159.85 23.25 160.25 22.95 163.7 23.75 165.95 25.25 170.4 30.25 171.55
L 31.45 171.75
Q 36.85 172.55 41.45 168.15 44.05 165.65 46 161.85 47.6 158.65 48.05 156.25 48.45 154.4 48.45 151.75 48.3 148.65 47.35 146.65 46 143.9 43.05 143.35
L 40.15 143.25 40.15 144.65
Q 39.8 154.15 37.85 159.5 35.95 164.45 32.75 165.15 34.25 160.7 35.4 155.1 36.75 148.75 37.25 142.95 38.1 133.15 36.5 127.65
L 38 127.05
Q 39 126.65 39.2 126.75 39.4 126.95 39.5 127.25 39.95 128.15 40.4 132.15 40.7 135.5 40.5 137.65
L 40.4 140.3 42.8 139
Q 45.6 137.6 46.6 134.1 47.55 130.8 46.7 126.8 46.45 125.5 45.5 124.2 44.4 123.05 43.05 122.6 41.85 122.3 40.35 122.6 38.3 123.1 36.45 124.6
L 35.55 125.3 35.15 124.3 33.55 125.4
Q 31.9 126.65 30.15 129.6
L 28.75 130.7 29.75 130.3
Q 29.05 131.45 28.05 133.45 27.65 132.15 27.55 131.45 27.2 129.75 27.35 129.05 27.6 128.25 28.55 126.85 30.95 123.25 35.25 120.65 40 117.85 43.65 118.65
M 43.05 125.95
Q 43.5 126.6 43.65 127.35 44.3 130.55 43.55 133.25
L 43.5 133.65
Q 43.5 132.45 43.4 131.8 42.85 127.15 42.15 125.85
L 41.85 125.25 42.25 125.35
Q 42.75 125.5 43.05 125.95
M 57.5 142.5
Q 57.35 140.2 56.6 138.65 57.35 138.45 57.8 138.65 58.5 138.7 59 139.3 59.65 140.1 59.9 141 60.8 143.6 60 147.2 59.3 150.2 59.3 152.1 59.3 155.35 61.3 156 61.4 156.1 61.6 156.1 62.4 156.1 62.7 155.9 61.6 158.7 60.4 158.55 60.3 158.45 60.1 158.45 58.6 158.3 57.7 156.35 56.6 154.3 56.6 151.25 56.6 150.45 56.8 149.15 57.5 145 57.5 142.5
M 74.8 133.15
Q 74.95 132.4 75.8 131.4 75.6 133.05 75.5 134.9
L 75.4 135.9
Q 75.3 135.6 75.2 135.4 74.85 134.5 74.2 134 74.45 133.75 74.8 133.15
M 63.35 128.95
L 63.65 128.45
Q 63.75 128.3 63.85 128.3 64.05 128.3 64.25 128.45 65.35 129 65.75 130.15
L 65.65 130
Q 64.9 129.55 64.05 129.8 63.3 130.15 63.05 130.7 63.05 130.4 63.15 130.3 63.15 129.3 63.35 128.95
M 64.3 135.1
Q 64.5 135.2 64.8 135.3 65 135.4 65.5 135.4
L 65.9 135.4 65.7 136.4
Q 64.8 135.85 64.3 135.1
M 69.7 135.3
Q 70 135.2 70.4 135.2 70.75 135.2 71.6 135.9 72.2 136.25 72.3 136.5 72.5 137.3 72.5 137.4 72.5 137.5 72.3 138.5 71.55 142 71.3 146.3 71.1 148.35 71.5 150.7 72 153.6 73.9 153.8
L 74.65 153.8
Q 74.9986328125 153.8 75.05 153.7
L 74.4 155.05
Q 73.65 155.95 72.8 155.95 70.7 155.95 69.8 153.35 68.4 148.95 70 138.75
L 70.3 136.85 68.3 137.05 67.3 137.05 66.6 136.95 66.1 136.65 69.7 135.3
M 74.3 146.55
Q 74.5 142.45 75 140.45 74.85 143.1 75 145.8 74.9 147 74.5 149.75
L 74.4 149.95
Q 74.15 148.6 74.3 146.55
M 144.3 117.1
Q 144.95 116.7 145.9 116.9
L 146.1 117 146.2 117.1
Q 146.25 117.15 146.5 117.6 146.7 118.15 146.5 118.4
L 146.5 118.5 146.4 118.6
Q 145.05 121 145.3 126.35 145.45 129.4 146.6 138.2
L 147.3 143.4 147.15 144.3 148.3 144.5
Q 153.6 145.4 158 141.9 158 144.8 157.3 145.4 156.15 146.4 151.1 146
L 147.3 144.5 147.5 146.8
Q 148.05 153.8 145.9 157.1 144.25 159.6 141 160.1
L 140.7 160.1
Q 138.7 160.25 136.6 158.6 134.25 156.6 133.7 153.2
L 133.6 151.9
Q 133.6 150.5 133.7 149.9 134.15 146.9 136.4 145.1 138.65 143.45 141.6 143.3 143.1 143.3 143.8 143.4
L 145.8 143.7 145 138
Q 144.8 136.4 144.65 136
L 144.05 131.2 143.55 132.1 143.65 131.5 143.65 131.1
Q 143 125.75 142.85 123.8 142.75 120.55 143 119.1
L 143.1 118.7
Q 143.55 117.4 144.3 117.1
M 123.4 122.45
Q 124.05 121.95 124.6 121.75 125.1 121.75 125.2 121.85
L 125.4 122.05 126.1 123.85 125.8 123.95
Q 123.85 124.55 123 127.05 122.2 128.95 122 132.25 121.75 135.7 122.3 137.75
L 122.9 139.15
Q 123.35 139.85 124.4 140.15 124.8 140.15 125 140 125.2 140 125.55 139.65
L 125.2 140.85
Q 124.75 141.85 123.9 142.55 123.1 142.95 122.7 142.85
L 122.5 142.75
Q 122.3 142.65 121.9 142.25 121.6 142 121.1 141.15
L 120.1 139.15 120.2 138.65 120.2 138.3 120.1 138.15
Q 119.55 135.45 119.7 132.95 119.85 130.2 120.7 127.55 121.8 123.9 123.4 122.45
M 128.1 121.1
Q 128.35 121 129 121.3 129.4 121.4 129.7 121.7 129.25 123.4 129.1 126.7 128.8 131 129 133.2 129.25 135.7 129.7 137 130.6 139.3 132.1 139.3
L 132.3 139.3 131.8 139.95
Q 130.8 140.65 130.4 140.65 129.7 140.75 129.3 140.3 128.8 140.05 128.3 139.2
L 126.9 136.5
Q 127.35 132.8 127.4 132.2 127.4 128.3 127.3 127.7
L 127.4 124.5 128.1 121.1
M 135.2 119.8
L 135.2 119.7 135.1 119.2
Q 135.55 119 136 119.1 137 119.4 137.5 119.9 137.6 120 137.8 120.3 138.5 121.2 138.5 123.5 138.3 125.65 137.65 128.2 137.05 130.65 137.35 132.7 137.65 135.6 139.15 136.5 139.45 136.8 140 136.8 140.75 137 141.6 136.3 140.7 137.7 140.5 137.8 139.9 138.45 139 138.45 138.45 138.45 137.9 138.05 137.25 137.5 136.6 136.25
L 135.6 134.15
Q 135.6 133.85 135.7 133.75
L 135.8 133.45 135.7 133.15 135.7 132.8
Q 135.6 132.8 135.6 132.5 135.45 131.4 135.7 127.7 136 125.3 135.95 123.85 135.9 121.75 135.2 119.8
M 132.5 134.75
Q 132.3 133.55 132.3 133.15 132.1 131.1 132.4 127 132.6 123.4 132.9 122.4 133.15 124.55 132.8 127.5 132.4 131.1 132.75 132.95 132.85 133 132.85 133.3
L 132.85 133.45
Q 132.8 133.95 132.5 134.75
M 140.65 131.7
Q 140.6 132.2 140.35 133 140.25 132.8 140.25 132.5 140.1 131.1 140.35 129.6
L 140.65 131.7
M 142.15 140.3
L 142.25 140.5 141.85 140.5
Q 142.00234375 140.496875 142.15 140.3
M 159.15 141.15
Q 159.15 141 159.3 141
L 159.45 141
Q 159.45 141.05 159.15 141.15
M 108.65 102.1
Q 108.9 104 109.5 105.1 109.9 106.25 111.15 107.2 110.05 106.65 109.35 105.4 108.75 104.45 108.55 102.7 108.475 101.7 108.6 100.8 108.55 101.4 108.65 102.1
M 109.4 118.7
L 109.8 122.6 109.3 122.5
Q 108.85 122.4 107.7 122.6 109.273046875 120.2896484375 109.3 117.75 109.30625 118.41875 109.4 118.7
M 111.45 113.75
Q 112.2 113.75 113.25 114.65
L 113.35 114.75
Q 114.5 115.9 114.65 120.45 115 125.4 114 132.65 113 138.4 113.9 142 114.15 142.8 114.4 143.2 114.8 144.05 115.8 144.2 116.2 144.35 116.5 144.2
L 117.15 143.9
Q 116.75 144.7 116 145 114.9 145.65 114.15 145.65 113.85 145.65 113.15 145.45 112.7 145.1 112.5 144.65 112.05 143.55 112 142.65
L 111.5 137.15 111.8 135.5
Q 112.5 131.95 112.5 129.3
L 112.5 128.7 112.75 125.65
Q 112.75 121.55 112.35 118.45 112 115.6 111.25 113.75
L 111.45 113.75
M 98.75 127.7
Q 99.35 127.6 100.35 127.3 102.8 126.4 103.35 126.1 102 128.2 101.15 130.7 100.8 129.65 99.95 128.7 99.55 128.3 98.75 127.7
M 95 132.9
Q 94.65 132.7 94.05 132.7
L 94.55 131.6
Q 95.15 130.65 95.5 130.4 96 130.1 96.15 130 96.3 129.9 96.85 130.1 97.45 130.4 97.75 130.8 98.8 131.85 98.6 134.5 98.45 135.95 97.75 138.9
L 97.25 141.2
Q 97.05 143.4 97.15 144.2 97.55 146.4 99.05 146.7 99.65 146.85 100.15 146.5
L 99.3 147.9
Q 98 148.9 97.5 149 97.3 149.1 96.9 149.1 96.5 149.1 96 148.1 95.4 146.75 95.4 144.5 95.2 140.9 96.05 137.5 96.4 136.1 96.4 135.1 96.3 133.5 95 132.9
M 86.5 130.45
Q 86.5 130.55 86.2 133.55 86.1 133.85 85.9 135.75
L 85.55 138.15
Q 85.2 141.25 83.5 145.65
L 83.2 146 83.2 145.3
Q 83.2 141.35 83.7 138.7
L 84.9 128.8 86.6 128.8
Q 86.6 129.95 86.5 130.45
M 103.55 133.25
Q 104.75 129.1 106.25 127.35 106.95 126.65 107.75 126.05 108.35 125.75 108.95 125.75 109.35 125.75 109.65 126.05
L 110.75 127.65
Q 109.95 127.5 108.85 128.15 107.8 128.75 107.15 129.8 105.4 132.2 105 136.7 104.65 140.45 105.55 142 106.25 142.95 107 143.2 108 143.5 108.9 142.9 108.65 143.2 108.15 144.15 107.55 145.55 106.35 146.55 105.65 147.25 104.95 146.95
L 104.75 146.85 104.15 146.25
Q 103.95 146.05 103.55 145.25
L 102.35 142.65 102.65 141.75 102.75 141.55 102.75 141.25
Q 102.45 137.6 103.55 133.25
M 109.3 131.7
L 108.9 135
Q 108 138.85 107.9 139.15 107.9 137.8 108 136.8 108.2 133.55 109.3 131.7
M 117.15 138.4
Q 117 139.75 116.65 140.3 116.35 138.2 116.75 134.4 116.75 136.8 117.15 138.4
M 138.1 144.8
Q 136 145.85 134.9 148.2 134.45 149.2 134.4 149.5 133.9 152.15 134.7 155 135.75 158.3 138.1 159.4
L 139 159.7
Q 143.9 160.95 145.6 155.4 146.45 152.15 145.9 145.5
L 145.8 144.3 144.6 144.15
Q 140.5 143.5 138.1 144.8
M 139.35 147.5
Q 140.95 146.9 142.95 147 143.3 151.7 142.55 154.65 142.15 155.95 141.55 156.45 140.8 157.1 139.65 156.8 139.5 156.7 139.35 156.7 138.15 156.1 137.45 154.1 136.8 152 137.25 150.2
L 137.55 149.5
Q 138.05 148.25 139.35 147.5 Z"/>
</g>

<g id="Layer0_23_FILL">
<path fill="url(#Gradient_2)" stroke="none" d="
M 52.5 145.45
Q 50.6 140.7 46.25 138.9 49.1 135.4 50.4 129.85 52.2 122 47.05 118.4 41.7 114.6 33.9 119.7 27.05 124.25 26.05 128.6 25.8 129.7 26.45 132.55 27 134.95 27.35 135.7 27.85 136.75 28.45 136 29.9 133.15 31 131.2 33.1 127.55 34.55 126.5 37.05 132.85 35.45 146 34.15 156.8 31.25 165.2 30.85 166.55 32.05 166.7 40.9 166.3 41.65 144.6 45.45 144.55 46.55 148.6 47.35 151.6 46.55 155.8 45.65 160.45 42.05 165 37.35 170.95 31.55 170.1 26 169.3 24.85 164.55 24.05 161.55 24.85 159.6 25.2 157.9 23.85 157.3 18.7 154.85 15.8 158.45 12.8 162.25 16.25 169 17.95 172.35 22.95 173.9 27.8 175.4 33.6 174.6 39.7 173.75 44.35 170.65 49.6 167.25 51.55 161.8 55.1 151.95 52.5 145.45
M 41.75 130.45
Q 41.35 127.65 40.9 126.6 40.4 125.5 39.55 125.3 38.75 125.15 37.5 125.6 40 123.55 42.25 123.85 44.6 124.2 45.2 127 45.9 130.35 45.25 133.15 44.5 136.4 42 137.7 42.35 134.25 41.75 130.45
M 78.2 117
Q 76.35 117.05 75.3 118.4 74.7 119.15 75.1 119.8 76.45 121.95 76.7 124.1 72.45 125.25 71.45 128.35 70.65 130.95 72.3 132.9 72.8 133.4 73.1 132.8 74 130.3 77.1 128.8 77.05 130.5 76.45 137.25 75.9 142.6 76.2 145.9 75.5 152.2 74.1 152.5 72.2 152.7 72.5 146.55 72.75 141.75 73.5 139 73.75 138.1 73.75 137.6 73.8 136.95 73.5 136.15 73.25 135.4 72 134.6 71 133.95 70.3 133.8 69.7 133.7 67.3 134.5 68 128.35 64.6 127 63.15 126.4 62.25 127.45 61.4 128.4 61.4 130.3 61.4 136.05 65.2 137.95 64.7 143.85 63.8 148.7 62.65 155.05 61.6 154.65 59.9 154.1 61.3 147.5 62.3 142.7 60.7 139.6 59 136.15 55.1 137.4 54.6 137.6 54.7 138.3 54.8 138.7 55 139.3 55.65 140.6 55.7 142.55 55.75 144.8 55.1 148.9 54.35 153.15 55.95 156.6 57.5 160 60.2 160 65.65 160.25 66.9 138.3 67.6 138.5 68.3 138.3 66.6 149.1 68.15 153.7 69.35 157.15 72.6 157.2 75.75 157.3 77.4 151 78.9 155.3 82.3 154.4 84.65 153.7 86.2 148.8 86.2 150.95 86.5 151.7 86.9 152.7 87.4 153 88.15 153.45 89.6 152.9 91.05 152.35 91.5 151.6 91.7 151.15 91.7 150.2 91.7 148.4 91.9 144.95 92.15 139.95 92.6 138 93.25 135.55 93.55 134.7 93.95 133.75 94.3 133.9 95.15 134.35 94.4 136.7 93.4 140.5 93.7 144.95 94.1 151 97.6 150.1 100.35 149.4 102.1 145.5 102.95 147.2 103.9 147.8 105.9 148.9 108 146.65 109.3 145.15 110.4 142.6 110.7 145.55 112.35 146.55 114 147.55 116.6 146.2 118.85 145 119.7 141.4 120.75 143.3 121.8 143.7 123.25 144.35 124.85 143.1 126.35 141.9 126.9 139.8 128.3 142.4 130.7 142 133.45 141.6 135.1 136.8 136.5 139.9 138.9 139.9 140.35 139.85 141.35 138.95 142.25 138.15 143.1 136.4
L 143.9 142.1
Q 139.1 141.4 135.6 144 131.8 146.85 132.1 152.1 132.3 157.05 135.65 159.85 138.5 162.15 141.4 161.7 150.2 160.35 149.2 146.8
L 151 147.5
Q 156.8 148 158.45 146.55 159.7 145.45 159.7 141.5 159.75 139.4 159.3 139.4 159.1 139.4 157.65 140.65 153.7 144.05 148.8 143.3 147.05 130.15 146.95 128.55 146.4 121.9 147.8 119.4 148.3 118.65 148 117.45 147.7 116.1 146.6 115.8 145.05 115.35 143.75 116 142.1 116.85 141.6 119.15 141.2 121.4 141.6 126 141.85 129.6 142.3 131.75 142.15 133.25 141.4 134.5 140.65 135.8 140 135.45 139.25 135.05 138.9 133.15 138.55 131.05 139.1 128.75 140.7 122.05 139 119.65 137.95 118.15 136.25 117.85 134.75 117.6 134 118.35 133.4 118.85 133.5 119.7 133.55 120.25 133.8 120.55 134.65 123 134.35 126.7 133.9 131.3 134.1 132.95
L 134.2 133.65
Q 133.25 138 132.2 138 131.6 138 131.1 136.35 130.7 134.95 130.6 133.3 130.5 131.65 130.7 128 130.9 123.85 131.3 122 131.4 121.5 131 120.95 130.6 120.35 129.65 120 127.15 119.05 126.65 121.4 125.85 119.45 123.55 120.4 120.8 121.55 119.15 127 117.35 132.9 118.55 138.3 118.1 142.2 116 142.8 115.35 143 115 140.45 114.65 137.45 115.3 132.8 116.2 126.7 116.1 121.5 115.95 115.25 114.3 113.65 112.75 112.1 111.2 112.2 110.2 112.25 109.7 112.75 109.35 113.25 109.6 113.9 110.5 115.85 110.9 120.35 111.25 123.95 111.1 125.4 110.3 124.15 108.95 124 107.05 123.8 105 126.25 103.05 128.5 102 132.9 100.9 137.25 101.2 141.25 100.2 145.4 99.2 145.25 98.15 145.1 98.7 140.95 99.5 137.7 99.8 135.55 100.35 131.5 98.7 129.8 96.95 127.9 95.25 128.65 93.95 129.2 93.1 131 93.4 127.7 93.4 127.1 94.8 127 97.8 126.4 103.6 125.15 106.05 122.05 108.2 119.35 107.2 116 106.45 113.35 103.35 112.75 101.55 112.4 100 112.7 99.45 112.8 99.9 113.9 102.45 119.45 97.2 121.9 95.75 122.7 93.5 123.3 93.3 119 91.9 117.3 90.55 115.6 88.95 115.4 87.45 115.25 86.4 116.3 86.15 116.55 86.25 117
L 86.5 117.8
Q 87.45 120.45 87.8 123.9 86.85 123.9 85.4 123.8
L 83 123.6
Q 82.75 121.75 81.9 119.9 80.5 117 78.2 117
M 64.6 132.95
Q 64.2 131.95 64.4 131.4 64.65 130.8 65.05 131.6 65.5 132.4 65.4 134 65 133.9 64.6 132.95
M 126.15 125.3
Q 126.3 126.2 125.9 132.2 125.85 134.6 125.35 136.65 124.9 138.5 124.55 138.6 124.1 138.7 123.75 137.35 123.25 135.5 123.5 132.3 123.75 128.95 124.65 127.05 125.35 125.6 126.15 125.3
M 88.05 127.35
Q 88.05 130.75 87.55 133.75 87.55 135 87.05 138.3 86.5 141.7 85.15 145.25 83.65 149.25 82.55 149.3 81.85 149.3 81.7 145.6 81.5 141.75 82.15 138.45 83.5 131.3 83.5 127.35
L 88.05 127.35
M 111 129.3
Q 111 130.9 110.55 133.95 110 137.8 109.15 139.9 108.3 142.35 107.25 141.7 106.15 141.05 106.5 136.7 106.85 132.4 108.6 130.15 110.2 128.15 111 129.3
M 136 154.25
Q 135.15 151.05 136.25 148.8 138.05 144.6 144.35 145.65 145.7 159.8 139.35 158.2 136.95 157.65 136 154.25
M 32 91.65
Q 30.65 94.35 31.95 97.95 33.25 101.55 36.05 102.6 36.4 102.75 36.6 102.35 36.75 102.05 36.75 101.8 38.1 93.15 46.05 91.2 47.2 98.4 45.4 104.05 44.2 107.65 42.75 108.9 42.2 109.4 42.45 110.15 42.65 110.8 43.35 111.2 45.4 112.25 47.55 111 49.5 109.85 50.65 107.6 52.1 104.8 52.35 98.95 52.55 94 51.95 89.5 54.8 89.1 56.75 88.2 58.75 101.1 57.5 106.85 56.6 111.1 53.15 113.2 52.7 113.45 52.7 114 52.75 114.6 53.25 115.1 54.7 116.55 57.45 116.15 60.5 115.7 62.15 113 64.35 109.3 64.15 104.3 64.15 103.85 62.95 94.7 60.8 79.8 62.75 72 63.75 67.95 64.85 65.75 65.8 63.7 66.45 64.1 67.15 64.55 67.25 67 67.4 69.45 66.85 71.9 66.35 74.6 65.2 76.35 64.65 77.25 63.95 77.9 63.75 78.55 64.25 78.9 65.4 79.9 66.9 79.85 69 79.8 70.65 77.25 72.3 74.65 72.15 70.3 72.05 66.65 71 64.15 69.4 60.3 66.7 59.6 64.1 58.9 61.4 61.35 58.6 63.95 57.15 69.65 55.55 75.95 56.4 83.65 54.8 84.35 51.9 84.55 51.15 74.85 53.85 67.7 54.65 65.45 55.8 63.7 56.75 62.35 56.8 62.25 57.25 61.6 56.5 61.25 54.15 59.7 51.6 60.35 46.9 61.9 45.45 70.85 44.4 77.7 45.4 85.05 41.3 85.25 38.7 86 33.95 87.35 32 91.65
M 110.05 71.7
Q 108.7 71.1 106.85 72.8 105.4 74.15 104.05 76.5 103.65 75.8 102.95 75.3 101.1 73.8 99.4 75.1 97.85 76.2 96.95 78.9 96.25 76.2 94.55 76.2 93.6 76.1 90.65 79.8 90.25 79 89.65 78.4 88.35 77.35 86.75 77.9 84.95 78.5 84.25 80.8 84.35 80.3 84.15 79.6 83.95 78.9 83.65 78.6 83.2 78.1 82.4 78.25 81.6 78.35 80.95 78.9 80.25 79.5 80.05 80.15 79.7 81.15 79.95 83.3 80.4 85.95 80.65 90.15 80.25 94.1 79.4 96.7 78.6 99.05 77.95 99.05 77.35 99.05 76.85 97.4 76.45 96 76.35 94.45 76.25 92.75 76.45 89.15 76.65 85 77.05 83.15 77.25 82 75.45 81.15 74.6 80.6 73.9 80.8 73.05 81.05 72.8 82.4 72 80.45 69.7 81.4 66.95 82.55 65.3 88 63.55 93.7 64.6 99 65.55 103.85 67.9 104.9 69.35 105.55 70.95 104.3 72.45 103.1 73 101 74.4 103.55 76.8 103.25 79.55 102.8 81.15 98.1 81.15 105.45 80.6 109.2 80.3 111.55 79.55 113.1 79.15 113.8 79.25 114.3 79.4 115.4 81.15 115.55 82.95 115.7 84.35 114.1 86.15 112.05 86.25 107.85 86.3 106.05 85.75 99.3 88.05 101.95 90.35 98.55 92.5 95.35 92.65 90.7 92.8 85.7 91.65 81.9 92.6 80.8 92.85 80.6 94.6 87.8 94.7 96.65 94.75 105.1 93.35 109.3 92.95 110.45 92.45 111.1 92.2 111.5 92.3 112 92.35 112.5 92.85 112.7 94.55 113.55 96.4 112.5 98.3 111.45 98.95 109.1 100.15 104.6 99.25 95.7 101.7 98.2 103.75 95.3 105.7 92.55 105.95 87.5 106.25 81.7 105.35 78.8 106.45 76.7 107.05 76.9 107.6 77 107.25 81 106.95 84.55 107.2 87.5 107.6 92.55 109.65 93.5 111.9 94.55 113.75 93.05 115.3 91.7 116.15 88.9 116.7 91.8 116.85 95.1
L 115.35 94.8
Q 112.7 94.35 110.9 95.25 109.1 96.15 107.75 98.6 106.1 101.65 107.65 105.45 109.45 109.8 114.25 109.3 120.3 108.65 120.85 99.1 126.2 100.25 131.25 97.5 134.8 95.6 134.95 91.7 135.05 88.45 133.05 86 131.65 84.35 130.1 84.45 129.3 84.5 128.55 85 128.3 85.1 128.2 85.45 128.1 85.85 128.25 86.2 129.2 88.25 128.65 90.75 128 93.55 125.65 95.1 123.75 96.35 120.95 96 120.95 93.55 120.65 91.6 119.45 80.55 119.45 78.3 119.3 75.25 119.7 72.75 119.9 71.5 119.35 71 118.45 70.15 116.85 70.9 115.15 71.75 114.45 73.9 114.1 75 114.4 79.75 114.7 84.55 114.35 85.7 113.1 89.9 111.75 88.3 110.8 87.15 112.35 76.9 112.6 75.3 112.05 73.85 111.4 72.25 110.05 71.7
M 98.5 82.8
Q 98.85 80.85 99.4 80.3 99.9 79.85 100.35 79.95 100.85 80.05 100.9 80.8 98.8 84.7 98.3 87.3 98.05 85.05 98.5 82.8
M 86.3 83
Q 86.65 82.55 87.1 82.7 87.65 82.8 87.9 83.7 85.85 86.95 85.3 88.8 85.2 87.6 85.6 85.5 85.95 83.5 86.3 83
M 85.9 95.1
Q 85.4 94.95 86.25 91.45 87.2 87.8 88.4 86.2 89.05 89.95 87.9 92.85 86.9 95.4 85.9 95.1
M 99.6 92
Q 99.15 91.75 99.05 91 99 90.25 99.95 87.6 100.9 84.8 101.75 83.6 101.75 84.95 101.4 87.5 101 90.45 100.55 91.3 100.1 92.2 99.6 92
M 111.5 98.35
Q 113.35 96.85 116.75 97.8 116.7 101.1 115.95 103.45 115.25 105.65 114.15 106.2 112.8 106.8 111.75 105.85 110.5 104.75 110.15 102 109.9 99.7 111.5 98.35
M 69.5 93.3
Q 69.8 89.8 70.6 87.6 71.3 85.65 72.15 85.4 72.3 86.3 71.9 93.2 71.85 95.6 71.35 97.65 70.9 99.5 70.55 99.6 70.1 99.7 69.75 98.35 69.25 96.5 69.5 93.3 Z"/>
</g>

<g id="Layer0_24_MEMBER_0_FILL">
<path fill="#750101" stroke="none" d="
M 22.85 93.65
Q 22.4 93.25 21.75 93.3 21.1 93.35 20.75 93.8 20.5 94.4 20.5 94.8
L 23 125.25
Q 23 125.85 23.5 126.3 24 126.75 24.6 126.65
L 24.7 126.65
Q 29.6 126.1 33.35 124.7 41.85 121.45 46.4 114.3 47 113.15 45.9 112.3
L 22.85 93.65
M 33.7 121.3
Q 29.9 123 25.85 123.5
L 23.75 98.1 43.05 113.8
Q 39.55 118.7 33.7 121.3 Z"/>
</g>

<g id="Layer0_24_MEMBER_1_FILL">
<path fill="#FF902E" stroke="none" d="
M 24.5 125.1
Q 27.85 125 32.1 123.5 40.6 120.5 45.05 113.5
L 22 94.8 24.5 125.1 Z"/>
</g>

<g id="Layer0_24_MEMBER_2_FILL">
<path fill="#22B29A" stroke="none" d="
M 24.95 97
L 22 94.8 22.2 97.75
Q 22.75 97.55 23 98.65 23.25 98.15 23.25 97.25
L 24.15 97.75 24.15 96.9
Q 24.35 97 24.95 97 Z"/>
</g>

<g id="Layer0_24_MEMBER_3_FILL">
<path fill="#42C2F5" stroke="none" d="
M 24.5 125.1
L 27.2 124.8 22 94.8 24.5 125.1 Z"/>
</g>

<g id="Layer0_24_MEMBER_4_FILL">
<path fill="#42C2F5" stroke="none" d="
M 32.5 123.4
Q 33.7 122.9 36.7 121.4
L 22 94.8 32.5 123.4 Z"/>
</g>

<g id="Layer0_24_MEMBER_5_FILL">
<path fill="#42C2F5" stroke="none" d="
M 41.9 117.4
Q 44.4 114.6 45.1 113.5
L 22 94.8 41.9 117.4 Z"/>
</g>

<g id="Layer0_24_MEMBER_6_FILL">
<path fill="#750101" stroke="none" d="
M 19.8 90.2
L 19.7 90.2 19.5 90.3
Q 18.75 90.15 18.25 90.5 17.8 90.9 17.75 91.5 17.65 92.1 18 92.6
L 18.1 92.8 18.1 92.9
Q 17.3 93.5 17.5 94.2
L 17.25 94.4
Q 16.85 95.2 16.85 95.3 16.7 96.1 17.65 96.7 17.85 97.4 18.55 97.7 18.85 98.8 20.05 98.8
L 20.25 99.1
Q 21 99.95 22 99.5 22 99.6 22.25 99.7 23.55 100.35 24.25 99 24.35 99 24.5 98.9 24.8 98.8 25.2 98.4 25.5 98.4 26.1 98 26.6 97.65 26.6 96.8 27 96.4 27.1 96.1 27.25 95.6 27.1 95.1 27.2 95 27.2 94.8 27.3 94.3 27 93.9
L 27 93.7
Q 27.15 92.85 26.5 92.3 26.25 91.1 25.1 91.1
L 24.8 90.7 24.7 90.6
Q 24.7 89.85 24.2 89.4 23.2 88.55 22.2 89.4 21.35 88.9 20.5 89.3 19.95 89.7 19.8 90.2
M 23.05 94.8
Q 23.05 95 23.15 95.1
L 22.85 95.6
Q 22.35 95.6 22 96 21.45 95.35 21.25 95.2 21.25 95.1 21.15 95.1
L 20.95 94.7 21.05 94.5
Q 21.15 94.3 21.15 94.1
L 21.25 93.9 21.35 93.8
Q 21.95 93.95 22.6 93.8 22.8 94.45 23.05 94.8 Z"/>
</g>

<g id="Layer0_24_MEMBER_7_FILL">
<path fill="#42C2F5" stroke="none" d="
M 18.15 95.75
Q 18.3 95.8 19 95.8 19.45 95.8 19.75 95.95
L 18.85 96.75
Q 19.5 96.95 20.6 96.85 20.1 97.6 19.8 97.75 20.65 97.65 20.9 97.7 21.35 97.8 21.2 98.45 21.9 97.75 22.15 97.75 22.55 97.7 22.8 98.65 23.1 97.9 23.1 97.25 23.25 97.45 24 97.75 23.9 97.55 23.95 97.3 24 97.05 24 96.95 24.2 97.05 25 97.15 24.65 96.45 24.35 96.15
L 25.6 95.75
Q 25.15 95.35 24.85 95.25 25.2 95.15 25.6 94.85
L 24.5 94.45
Q 24.7 94.35 25.35 93.55 25.05 93.45 24.7 93.55 24.25 93.7 24 93.75 24.1 93.5 24.4 93.2 24.75 92.9 24.85 92.75
L 23.6 92.8 23.6 91.9
Q 23.5 92 23 92.4 23 91.2 23.1 90.6 22.9 90.85 22.5 91.55 22.1623046875 92.0806640625 21.85 92.35 21.626171875 91.990234375 21.05 91.05 21.25 91.45 21.25 92.15 20.95 92.15 20.75 91.95
L 20.75 92.35
Q 20.2 92.25 20 92.05 20.15 92.9 20.25 93.05 19.483203125 92.9146484375 18.95 92.3 19.18515625 92.6205078125 19.65 93.55 19.55 93.65 19.15 93.65
L 19.55 93.95
Q 19.0291015625 94.297265625 18.7 94.4 18.9712890625 94.35 19.55 94.35 19.45 94.7 18.95 95.1 18.3 95.6 18.15 95.75 Z"/>
</g>

<g id="Layer0_25_FILL">
<path fill="#750101" stroke="none" d="
M 54.8 119.1
L 54.1 119.9
Q 48.85 126.2 51.25 132.2 52.45 135.2 54.7 136.9
L 55.2 137.3 58.9 136.8 59.3 136.1
Q 63.95 128.1 60.35 122.95 59.2 121.35 57.4 120.2
L 55.8 119.4 54.8 119.1
M 58.5 126.15
Q 59.6 129.4 57.1 134
L 56.2 134.1
Q 54.35 132.45 53.8 130.15 52.9 126.55 55.7 122.7 57.8 123.95 58.5 126.15 Z"/>
</g>

<g id="Layer0_26_FILL">
<path fill="#FECC00" stroke="none" d="
M 55.7 135.7
L 58 135.4
Q 62.1 128.35 59.1 123.85 58.15 122.45 56.6 121.5
L 55.25 120.8
Q 50.65 126.35 52.7 131.6 53.75 134.2 55.7 135.7 Z"/>
</g>

<g id="Layer0_27_FILL">
<path fill="#750101" stroke="none" d="
M 56.5 135.2
Q 58.7 132.45 57.45 130.25 55.75 128.65 55.75 128.6 54.35 131 55.3 133.35 55.75 134.5 56.5 135.2 Z"/>
</g>

<g id="Layer0_28_FILL">
<path fill="#750101" stroke="none" d="
M 58.75 138.2
Q 59.3 137.9 59.7 138.05 59.8 138.1 60.15 138.7 60.3 139 60.7 138.35 61.55 137.05 59.85 136.65 58.75 136.4 57 136.55 55.35 136.55 54.7 136.75 53.05 137.2 53.3 138.35 53.35 138.6 53.65 140 54.05 141.2 54.7 140.7 54.95 140.5 55 139.65 55.05 138.85 55.4 138.8 55.8 138.7 56.15 139.3 56.35 139.6 56.6 140.15 56.7 140.4 56.9 141.05 57.15 141.45 57.6 140.95 57.8 140.75 57.85 140 57.85 139.2 58 138.95 58.25 138.5 58.75 138.2 Z"/>
</g>

<g id="Layer0_29_FILL">
<path fill="#FFEE00" stroke="none" d="
M 79.05 52.2
L 76.65 53.1 74.65 51.5 74.65 54.1 72.65 55.6 75.05 56.3 75.9 58.7 77.3 56.6 79.9 56.7 78.3 54.6 79.05 52.2 Z"/>
</g>

<g id="Layer0_30_FILL">
<path fill="#FF902E" stroke="none" d="
M 84.4 45.1
Q 83.7 45.1 83.7 45.8 83.7 46.5 84.4 46.5 85.05 46.5 85.05 45.8 85.05 45.55 84.85 45.3 84.65 45.1 84.4 45.1 Z"/>
</g>

<g id="Layer0_31_FILL">
<path fill="#FF902E" stroke="none" d="
M 103.8 51
Q 103.1 51 103.1 51.7 103.1 52.4 103.8 52.4 104.5 52.4 104.5 51.7 104.5 51.45 104.3 51.2 104.05 51 103.8 51 Z"/>
</g>

<g id="Layer0_32_FILL">
<path fill="#FF902E" stroke="none" d="
M 77.05 73.9
Q 76.8 73.9 76.6 74.1 76.4 74.35 76.4 74.6 76.4 75.3 77.05 75.3 77.75 75.3 77.75 74.6 77.75 73.9 77.05 73.9 Z"/>
</g>

<g id="Layer0_33_FILL">
<path fill="#FF902E" stroke="none" d="
M 41 67.75
Q 40.7 67.75 40.5 67.95 40.25 68.15 40.25 68.4 40.25 69.1 41 69.1 41.7 69.1 41.7 68.4 41.7 68.15 41.5 67.95 41.25 67.75 41 67.75 Z"/>
</g>

<g id="Layer0_34_FILL">
<path fill="#FF902E" stroke="none" d="
M 75 107.8
Q 74.7 107.8 74.5 108 74.3 108.25 74.3 108.5 74.3 109.2 75 109.2 75.65 109.2 75.65 108.5 75.65 108.25 75.45 108 75.25 107.8 75 107.8 Z"/>
</g>

<g id="Layer0_35_FILL">
<path fill="#FF902E" stroke="none" d="
M 63.75 119.9
Q 63.5 119.9 63.25 120.1 63.05 120.35 63.05 120.6 63.05 121.3 63.75 121.3 64.5 121.3 64.5 120.6 64.5 120.35 64.3 120.1 64.05 119.9 63.75 119.9 Z"/>
</g>

<g id="Layer0_36_FILL">
<path fill="#FF902E" stroke="none" d="
M 129.5 114.5
Q 128.8 114.5 128.8 115.2 128.8 115.9 129.5 115.9 130.15 115.9 130.15 115.2 130.15 114.95 129.95 114.7 129.75 114.5 129.5 114.5 Z"/>
</g>

<g id="Layer0_37_FILL">
<path fill="#FF902E" stroke="none" d="
M 167.8 96.5
Q 167.1 96.5 167.1 97.2 167.1 97.9 167.8 97.9 168.5 97.9 168.5 97.2 168.5 96.95 168.3 96.7 168.05 96.5 167.8 96.5 Z"/>
</g>

<g id="Layer0_38_FILL">
<path fill="#FF902E" stroke="none" d="
M 149.3 108.5
Q 148.6 108.5 148.6 109.2 148.6 109.9 149.3 109.9 150 109.9 150 109.2 150 108.95 149.8 108.7 149.55 108.5 149.3 108.5 Z"/>
</g>

<g id="Layer0_39_MEMBER_0_FILL">
<path fill="url(#Gradient_3)" stroke="none" d="
M 176.2 46
Q 172.65 37.4 165.35 35.8 158.05 34.25 151.35 40.55 144.6 46.85 142.25 57.4 139.95 67.9 143.45 76.5 147 85.15 154.25 86.7 161.55 88.3 168.3 82 175.05 75.7 177.35 65.1 179.7 54.6 176.2 46 Z"/>
</g>

<g id="Layer0_39_MEMBER_1_FILL">
<path fill="#D90D69" stroke="none" d="
M 168.75 79.9
Q 167.4 80.8 164.4 81.8 158.25 83.9 152.8 81.8 147.45 79.75 144.15 75.9 146.2 79.85 147.95 81.7 150.25 84.15 153.55 85.1 158.2 86.35 161.45 85.25 164.7 84.1 168.75 79.9 Z"/>
</g>

<g id="Layer0_39_MEMBER_2_FILL">
<path fill="#FF4A9B" stroke="none" d="
M 174.5 45.05
Q 171.9 38.25 166.15 36.6 160.35 34.9 153.3 40.1 146.1 45.4 144.85 52.8 143.6 61.15 144.3 64.65 145.65 71.5 153.25 74.3 159.9 76.75 166.45 71.8 172.6 67.15 174.85 59.3 177.05 51.85 174.5 45.05 Z"/>
</g>

<g id="Layer0_40_MEMBER_0_FILL">
<path fill="#85C72E" stroke="none" d="
M 138.35 70.9
Q 138.15 70.35 137.6 69.7
L 136.5 69.9
Q 135.85 71.8 135.8 72.7 136.65 72.7 137.3 72.4 137.75 72.35 138.25 72.45 138.75 72.55 139.15 72.5 138.6 71.65 138.35 70.9 Z"/>
</g>

<g id="Layer0_40_MEMBER_1_FILL">
<path fill="#85C72E" stroke="none" d="
M 154.5 43.3
Q 153.75 32.65 147.7 25.45 141.65 18.25 133.8 18.6 125.9 19.05 120.9 26.9 115.9 34.75 116.65 45.4 117.4 56 123.5 63.2 129.55 70.45 137.35 70 145.2 69.65 150.2 61.8 155.25 53.95 154.5 43.3 Z"/>
</g>

<g id="Layer0_40_MEMBER_2_FILL">
<path fill="#6DB015" stroke="none" d="
M 146.35 62.65
Q 140.65 66.3 134.6 65.8 128.85 65.35 124.2 62.55 127.35 65.7 129.7 67.05 132.7 68.75 136.3 68.75 141.35 68.75 144.35 66.8 147.25 64.9 150.1 59.75 149.05 60.9 146.35 62.65 Z"/>
</g>

<g id="Layer0_40_MEMBER_3_FILL">
<path fill="#9ED656" stroke="none" d="
M 150.3 38.4
Q 150.3 30.8 145.7 25 141.05 19.2 134.9 19.1 128.5 19.05 122.9 25.85 117.2 32.8 118.1 40.2 119.15 48.35 120.9 51.6 124.3 57.75 132.8 58.4 140.2 59 145.4 52.5 150.3 46.4 150.3 38.4 Z"/>
</g>

<g id="Layer0_41_MEMBER_0_FILL">
<path fill="#17ACE6" stroke="none" d="
M 145.5 106.85
Q 145.35 106.15 144.8 105.3
L 143.15 105.25
Q 141.85 107.55 141.55 108.4 142.2 108.5 142.55 108.45 143.1 108.3 143.65 108.3 144.2 108.35 144.95 108.6 145.6 108.8 146.3 108.8 145.7 107.65 145.5 106.85 Z"/>
</g>

<g id="Layer0_41_MEMBER_1_FILL">
<path fill="#17ACE6" stroke="none" d="
M 174.1 77.8
Q 175.9 64.9 169.7 54.95 163.5 45 153 43.75 142.5 42.5 133.8 50.7 125.1 58.9 123.3 71.8 121.5 84.7 127.7 94.7 133.9 104.7 144.4 105.9 154.9 107.2 163.6 98.95 172.3 90.7 174.1 77.8 Z"/>
</g>

<g id="Layer0_41_MEMBER_2_FILL">
<path fill="#0898D1" stroke="none" d="
M 145.4 104
Q 152.45 104.15 157.15 101.6 162.05 98.95 166.9 92 165.4 93.6 161.3 95.95 152.8 100.75 143.5 100 135.9 99.4 129.6 95.7 134.05 99.95 136.7 101.55 140.65 103.95 145.4 104 Z"/>
</g>

<g id="Layer0_41_MEMBER_3_FILL">
<path fill="#6FD0F7" stroke="none" d="
M 169.65 71
Q 171.7 61.85 167.1 53.95 162.45 46 154.05 44.5 145.65 42.95 136.4 49.9 127 56.95 126.25 66 125.55 75.95 127.1 80.25 130 88.3 141.15 91 150.8 93.3 159.45 86.75 167.55 80.55 169.65 71 Z"/>
</g>

<g id="Layer0_42_FILL">
<path fill="#ED066C" stroke="none" d="
M 70.75 154.55
Q 70.15 154.25 70.4 154.7 72.55 158.6 71.6 161.7 71.1 163.3 69.95 164.3 69.298828125 164.8546875 68.6 165.05 68.7748046875 163.62890625 68.1 162.25 66.95 159.95 64.2 159.2 62.85 158.75 62.4 159.3 61.95 159.85 62.5 161.2 63.7 164.3 66.2 165.6 66.55703125 165.79375 66.9 165.9 66.5888671875 166.476171875 66.1 167 62.7 170.8 59.4 167.9 58.9 167.45 58.65 167.7 58.4 167.9 58.9 168.3 61.2 170.25 63.8 170.05 66.55 169.8 67.9 167.1 68.1396484375 166.65625 68.3 166.2 69.041796875 166.2548828125 69.8 166.05 71.8 165.55 72.5 163.6 74 159.75 71.5 155.1 71.3 154.8 70.75 154.55
M 64.4 160.05
Q 65.25 160.05 66.2 160.8 67.75 161.95 67.6 163.8 67.5591796875 164.4931640625 67.3 165.15 67.15234375 165.1333984375 67 165.1 65.75 164.8 64.8 163.7 63.85 162.6 63.6 161.3 63.4 160 64.4 160.05 Z"/>
</g>

<g id="Layer0_43_FILL">
<path fill="#FFEE00" stroke="none" d="
M 103.5 158.7
L 103.5 154.4 100.05 157 96 155.5 97.3 159.65 94.65 163.15 99 163.15 101.5 166.65 102.8 162.5 107 161.2 103.5 158.7 Z"/>
</g>

<g id="Layer0_44_FILL">
<path fill="#3FA9F5" stroke="none" d="
M 86.15 161.5
L 85.15 160.2 84.55 158.8 84 159.5 82.9 159.8 83.9 161 84.5 162.65 85.15 161.7 86.15 161.5 Z"/>
</g>

<g id="Layer0_45_FILL">
<path fill="#BAD234" stroke="none" d="
M 109.65 153.5
L 109.55 152.2 109.8 150.9 107.8 150.9 108 152.15 107.65 153.5 109.65 153.5 Z"/>
</g>

<g id="Layer0_46_FILL">
<path fill="#17ACE6" stroke="none" d="
M 114.9 152.9
Q 114.65 152.4 114.1 152.85 113.55 153.25 113.8 153.7 114.85 155.85 117.15 157.4 118.495703125 158.2671875 119.9 158.7 120.0181640625 159.0462890625 120.15 159.4 121.35 162.6 124.55 163.25 127.45 163.85 130.55 162.2 131.05 161.95 131 161.35 130.95 160.75 130.35 161.1 125.75 163.5 122.75 160.9 121.860546875 160.1318359375 121.4 159 121.6470703125 159.0748046875 121.9 159.1 124.3 159.3 125.1 157.35 125.8 155.6 125.05 153.3 125 153 124.65 153 121.95 153 120.55 154.95 119.759765625 156.0623046875 119.75 157.4 118.9173828125 157.040625 118.05 156.45 115.9 154.95 114.9 152.9
M 121 157.8
Q 120.8466796875 156.606640625 121.35 155.6 122 154.3 123.95 154.3 124.25 154.3 124.25 156.7 124.1 157.9 122.55 157.9 121.803515625 157.9521484375 121 157.8 Z"/>
</g>

<g id="Layer0_47_FILL">
<path fill="#ED066C" stroke="none" d="
M 148.35 111.2
Q 148.2 110.95 147.8 111.3 147.4 111.6 147.6 111.9 148.2 113.5 149.7 114.65 150.5169921875 115.298046875 151.4 115.65 151.4353515625 115.8671875 151.5 116.1 152.1 118.35 154.25 119 156.15 119.55 158.35 118.6 158.75 118.45 158.7 118.05 158.7 117.65 158.25 117.8 154.9 119.1 153.15 117.2 152.615234375 116.665234375 152.35 115.9 152.56953125 115.9720703125 152.8 116 154.4 116.3 155.05 115 155.6 113.9 155.3 112.3 155.3 112.25 155.2 112.15 155.1 112 155 112 153.2 111.85 152.1 113.1 151.503515625 113.75078125 151.35 114.55 150.8353515625 114.2931640625 150.3 113.85 148.9 112.7 148.35 111.2
M 152.45 113.5
Q 152.9 112.7 154.35 112.7 154.45 112.7 154.45 114.4 154.35 115.1 153.25 115.1 152.682421875 115.0810546875 152.1 114.9 152.0748046875 114.1001953125 152.45 113.5 Z"/>
</g>

<g id="Layer0_48_FILL">
<path fill="#17ACE6" stroke="none" d="
M 174 108.9
L 172.8 107.4 173.35 105.6 171.6 106.2 170 105.1 170.1 107 168.5 108.1 170.3 108.7 170.85 110.5 172 108.9 174 108.9 Z"/>
</g>

<g id="Layer0_49_FILL">
<path fill="#FF902E" stroke="none" d="
M 171.65 122.4
Q 171.4 122.4 171.2 122.6 171 122.85 171 123.1 171 123.8 171.65 123.8 172.35 123.8 172.35 123.1 172.35 122.4 171.65 122.4 Z"/>
</g>

<g id="Layer0_50_FILL">
<path fill="#3FA9F5" stroke="none" d="
M 173.1 137.4
L 172.1 136.5 171.35 135.4 170.85 136.5 169.8 137.3 170.8 138 171.35 139.3 172.1 138.15 173.1 137.4 Z"/>
</g>

<g id="Layer0_51_FILL">
<path fill="#750101" stroke="none" d="
M 165.65 134.15
Q 165.65 132.6 165.3 131.95 165.05 131.1 164.1 130.15 163.35 129.4 162.3 128.95 161.35 128.55 160.1 128.55 159.1 128.55 158 129.05 156.8 129.55 156.15 130.35 155.45 131.2 155 132.25 154.6 133.2 154.6 134.45 154.6 135.85 155 136.65 155.2 137.5 156.15 138.45 156.7 139 158 139.65 158.9 140 160.15 140 161.15 140 162.3 139.5 163.4 139 164.1 138.2 164.85 137.4 165.3 136.3 165.65 135.4 165.65 134.15
M 162 132.2
Q 162.45 132.65 162.6 133.1 162.65 133.4 162.8 134.1 162.8 134.6 162.6 135.2 162.15 135.7 162.05 136.2 161.55 136.8 161.15 136.9 160.85 137.1 160.3 137.1 160 137.2 159.4 137 158.95 136.85 158.6 136.5 158.15 136.05 158 135.6 157.8 134.8 157.8 134.5 157.8 133.8 158 133.4 158.15 132.85 158.6 132.4 158.95 131.85 159.4 131.7 159.9 131.5 160.3 131.5 160.85 131.5 161.15 131.6 161.4 131.65 162 132.2
M 166.3 75.1
Q 166.3 73.3 165.8 71.8 165.05 70.05 164.15 68.9 163.2 67.6 161.65 66.9 160.15 66.3 158.55 66.3 156.45 66.6 155.45 67.15 154 67.95 153.05 69.25 152.15 70.55 151.65 72.15 151.3 73.55 151.3 75.55 151.3 76.4 151.8 81.75
L 153.3 94.4
Q 154.35 102.5 155.1 110
L 156.6 125.3 156.6 125.65 156.7 125.95
Q 157.15 126.85 158 127.15 158.9 127.45 160 127.45 161.1 127.45 161.9 127.05 162.65 126.8 163.2 125.85
L 163.3 125.55 163.3 125.25
Q 163.9 115.25 164.2 109.9 164.85 98.75 165.2 94.1
L 166.1 81.4
Q 166.3 76.1 166.3 75.1
M 162.9 72.6
Q 163.3 74 163.3 75.1
L 162.3 93.9
Q 161.8 99.55 161.15 109.7 160.8 114.6 160.3 124.3
L 159.5 124.3 156.2 94
Q 155.15 85.55 154.7 81.3 154.2 76.15 154.2 75.3 154.2 74 154.5 72.8 154.75 71.95 155.5 70.8 156.05 70.1 156.9 69.6 157.9 69.2 158.6 69.2 159.65 69.2 160.4 69.5 161 69.8 161.9 70.7 162.3 71.2 162.9 72.6 Z"/>
</g>

<g id="Layer0_52_FILL">
<path fill="url(#Gradient_4)" stroke="none" d="
M 164.15 134.15
Q 164.15 132.25 163 131.15 161.75 129.95 160.1 129.95 158.5 130 157.3 131.3 156.1 132.75 156.1 134.45 156.1 136.1 157.3 137.3 158.45 138.6 160.15 138.45 161.7 138.45 163 137.15 164.15 135.95 164.15 134.15
M 164.8 75.1
Q 164.55 71.65 163 69.8 161.2 67.7 158.6 67.7 155.9 67.85 154.3 70 152.5 72.35 152.65 75.4 152.65 77.75 154.65 94.2 156.55 109.3 158 125.2 158.35 125.85 159.9 125.85 161.4 125.8 161.65 125.1 162.85 104.7 163.65 94 164.8 79.5 164.8 75.1 Z"/>
</g>
</defs>

<g transform="matrix( 1, 0, 0, 1, 4.3,3.4) ">
<use xlink:href="#Layer0_0_MEMBER_0_FILL"/>
</g>

<g transform="matrix( 1, 0, 0, 1, 4.3,3.4) ">
<use xlink:href="#Layer0_1_FILL"/>
</g>

<g transform="matrix( 1, 0, 0, 1, 4.3,3.4) ">
<use xlink:href="#Layer0_2_FILL"/>
</g>

<g transform="matrix( 1, 0, 0, 1, 4.3,3.4) ">
<use xlink:href="#Layer0_3_FILL"/>
</g>

<g transform="matrix( 1, 0, 0, 1, 4.3,3.4) ">
<use xlink:href="#Layer0_4_FILL"/>
</g>

<g transform="matrix( 1, 0, 0, 1, 4.3,3.4) ">
<use xlink:href="#Layer0_5_FILL"/>
</g>

<g transform="matrix( 1, 0, 0, 1, 4.3,3.4) ">
<use xlink:href="#Layer0_6_FILL"/>
</g>

<g transform="matrix( 1, 0, 0, 1, 4.3,3.4) ">
<use xlink:href="#Layer0_7_FILL"/>
</g>

<g transform="matrix( 1, 0, 0, 1, 4.3,3.4) ">
<use xlink:href="#Layer0_8_FILL"/>
</g>

<g transform="matrix( 1, 0, 0, 1, 4.3,3.4) ">
<use xlink:href="#Layer0_9_FILL"/>
</g>

<g transform="matrix( 1, 0, 0, 1, 4.3,3.4) ">
<use xlink:href="#Layer0_10_FILL"/>
</g>

<g transform="matrix( 1, 0, 0, 1, 4.3,3.4) ">
<use xlink:href="#Layer0_11_FILL"/>
</g>

<g transform="matrix( 1, 0, 0, 1, 4.3,3.4) ">
<use xlink:href="#Layer0_12_FILL"/>
</g>

<g transform="matrix( 1, 0, 0, 1, 4.3,3.4) ">
<use xlink:href="#Layer0_13_FILL"/>
</g>

<g transform="matrix( 1, 0, 0, 1, 4.3,3.4) ">
<use xlink:href="#Layer0_14_FILL"/>
</g>

<g transform="matrix( 1, 0, 0, 1, 4.3,3.4) ">
<use xlink:href="#Layer0_15_FILL"/>
</g>

<g transform="matrix( 1, 0, 0, 1, 4.3,3.4) ">
<use xlink:href="#Layer0_16_FILL"/>
</g>

<g transform="matrix( 1, 0, 0, 1, 4.3,3.4) ">
<use xlink:href="#Layer0_17_FILL"/>
</g>

<g transform="matrix( 1, 0, 0, 1, 4.3,3.4) ">
<use xlink:href="#Layer0_18_FILL"/>
</g>

<g transform="matrix( 1, 0, 0, 1, 4.3,3.4) ">
<use xlink:href="#Layer0_19_FILL"/>
</g>

<g transform="matrix( 1, 0, 0, 1, 4.3,3.4) ">
<use xlink:href="#Layer0_20_FILL"/>
</g>

<g transform="matrix( 1, 0, 0, 1, 4.3,3.4) ">
<use xlink:href="#Layer0_21_MEMBER_0_FILL"/>
</g>

<g transform="matrix( 1, 0, 0, 1, 4.3,3.4) ">
<use xlink:href="#Layer0_21_MEMBER_1_FILL"/>
</g>

<g transform="matrix( 1, 0, 0, 1, 4.3,3.4) ">
<use xlink:href="#Layer0_21_MEMBER_2_FILL"/>
</g>

<g transform="matrix( 1, 0, 0, 1, 4.3,3.4) ">
<use xlink:href="#Layer0_21_MEMBER_3_FILL"/>
</g>

<g transform="matrix( 1, 0, 0, 1, 4.3,3.4) ">
<use xlink:href="#Layer0_22_FILL"/>
</g>

<g transform="matrix( 1, 0, 0, 1, 4.3,3.4) ">
<use xlink:href="#Layer0_23_FILL"/>
</g>

<g transform="matrix( 1, 0, 0, 1, 4.3,3.4) ">
<use xlink:href="#Layer0_24_MEMBER_0_FILL"/>
</g>

<g transform="matrix( 1, 0, 0, 1, 4.3,3.4) ">
<use xlink:href="#Layer0_24_MEMBER_1_FILL"/>
</g>

<g transform="matrix( 1, 0, 0, 1, 4.3,3.4) ">
<use xlink:href="#Layer0_24_MEMBER_2_FILL"/>
</g>

<g transform="matrix( 1, 0, 0, 1, 4.3,3.4) ">
<use xlink:href="#Layer0_24_MEMBER_3_FILL"/>
</g>

<g transform="matrix( 1, 0, 0, 1, 4.3,3.4) ">
<use xlink:href="#Layer0_24_MEMBER_4_FILL"/>
</g>

<g transform="matrix( 1, 0, 0, 1, 4.3,3.4) ">
<use xlink:href="#Layer0_24_MEMBER_5_FILL"/>
</g>

<g transform="matrix( 1, 0, 0, 1, 4.3,3.4) ">
<use xlink:href="#Layer0_24_MEMBER_6_FILL"/>
</g>

<g transform="matrix( 1, 0, 0, 1, 4.3,3.4) ">
<use xlink:href="#Layer0_24_MEMBER_7_FILL"/>
</g>

<g transform="matrix( 1, 0, 0, 1, 4.3,3.4) ">
<use xlink:href="#Layer0_25_FILL"/>
</g>

<g transform="matrix( 1, 0, 0, 1, 4.3,3.4) ">
<use xlink:href="#Layer0_26_FILL"/>
</g>

<g transform="matrix( 1, 0, 0, 1, 4.3,3.4) ">
<use xlink:href="#Layer0_27_FILL"/>
</g>

<g transform="matrix( 1, 0, 0, 1, 4.3,3.4) ">
<use xlink:href="#Layer0_28_FILL"/>
</g>

<g transform="matrix( 1, 0, 0, 1, 4.3,3.4) ">
<use xlink:href="#Layer0_29_FILL"/>
</g>

<g transform="matrix( 1, 0, 0, 1, 4.3,3.4) ">
<use xlink:href="#Layer0_30_FILL"/>
</g>

<g transform="matrix( 1, 0, 0, 1, 4.3,3.4) ">
<use xlink:href="#Layer0_31_FILL"/>
</g>

<g transform="matrix( 1, 0, 0, 1, 4.3,3.4) ">
<use xlink:href="#Layer0_32_FILL"/>
</g>

<g transform="matrix( 1, 0, 0, 1, 4.3,3.4) ">
<use xlink:href="#Layer0_33_FILL"/>
</g>

<g transform="matrix( 1, 0, 0, 1, 4.3,3.4) ">
<use xlink:href="#Layer0_34_FILL"/>
</g>

<g transform="matrix( 1, 0, 0, 1, 4.3,3.4) ">
<use xlink:href="#Layer0_35_FILL"/>
</g>

<g transform="matrix( 1, 0, 0, 1, 4.3,3.4) ">
<use xlink:href="#Layer0_36_FILL"/>
</g>

<g transform="matrix( 1, 0, 0, 1, 4.3,3.4) ">
<use xlink:href="#Layer0_37_FILL"/>
</g>

<g transform="matrix( 1, 0, 0, 1, 4.3,3.4) ">
<use xlink:href="#Layer0_38_FILL"/>
</g>

<g transform="matrix( 1, 0, 0, 1, 4.3,3.4) ">
<use xlink:href="#Layer0_39_MEMBER_0_FILL"/>
</g>

<g transform="matrix( 1, 0, 0, 1, 4.3,3.4) ">
<use xlink:href="#Layer0_39_MEMBER_1_FILL"/>
</g>

<g transform="matrix( 1, 0, 0, 1, 4.3,3.4) ">
<use xlink:href="#Layer0_39_MEMBER_2_FILL"/>
</g>

<g transform="matrix( 1, 0, 0, 1, 4.3,3.4) ">
<use xlink:href="#Layer0_40_MEMBER_0_FILL"/>
</g>

<g transform="matrix( 1, 0, 0, 1, 4.3,3.4) ">
<use xlink:href="#Layer0_40_MEMBER_1_FILL"/>
</g>

<g transform="matrix( 1, 0, 0, 1, 4.3,3.4) ">
<use xlink:href="#Layer0_40_MEMBER_2_FILL"/>
</g>

<g transform="matrix( 1, 0, 0, 1, 4.3,3.4) ">
<use xlink:href="#Layer0_40_MEMBER_3_FILL"/>
</g>

<g transform="matrix( 1, 0, 0, 1, 4.3,3.4) ">
<use xlink:href="#Layer0_41_MEMBER_0_FILL"/>
</g>

<g transform="matrix( 1, 0, 0, 1, 4.3,3.4) ">
<use xlink:href="#Layer0_41_MEMBER_1_FILL"/>
</g>

<g transform="matrix( 1, 0, 0, 1, 4.3,3.4) ">
<use xlink:href="#Layer0_41_MEMBER_2_FILL"/>
</g>

<g transform="matrix( 1, 0, 0, 1, 4.3,3.4) ">
<use xlink:href="#Layer0_41_MEMBER_3_FILL"/>
</g>

<g transform="matrix( 1, 0, 0, 1, 4.3,3.4) ">
<use xlink:href="#Layer0_42_FILL"/>
</g>

<g transform="matrix( 1, 0, 0, 1, 4.3,3.4) ">
<use xlink:href="#Layer0_43_FILL"/>
</g>

<g transform="matrix( 1, 0, 0, 1, 4.3,3.4) ">
<use xlink:href="#Layer0_44_FILL"/>
</g>

<g transform="matrix( 1, 0, 0, 1, 4.3,3.4) ">
<use xlink:href="#Layer0_45_FILL"/>
</g>

<g transform="matrix( 1, 0, 0, 1, 4.3,3.4) ">
<use xlink:href="#Layer0_46_FILL"/>
</g>

<g transform="matrix( 1, 0, 0, 1, 4.3,3.4) ">
<use xlink:href="#Layer0_47_FILL"/>
</g>

<g transform="matrix( 1, 0, 0, 1, 4.3,3.4) ">
<use xlink:href="#Layer0_48_FILL"/>
</g>

<g transform="matrix( 1, 0, 0, 1, 4.3,3.4) ">
<use xlink:href="#Layer0_49_FILL"/>
</g>

<g transform="matrix( 1, 0, 0, 1, 4.3,3.4) ">
<use xlink:href="#Layer0_50_FILL"/>
</g>

<g transform="matrix( 1, 0, 0, 1, 4.3,3.4) ">
<use xlink:href="#Layer0_51_FILL"/>
</g>

<g transform="matrix( 1, 0, 0, 1, 4.3,3.4) ">
<use xlink:href="#Layer0_52_FILL"/>
</g>
</svg>
