<?xml version="1.0" encoding="UTF-8" standalone="no"?>
<svg
   xmlns:dc="http://purl.org/dc/elements/1.1/"
   xmlns:cc="http://creativecommons.org/ns#"
   xmlns:rdf="http://www.w3.org/1999/02/22-rdf-syntax-ns#"
   xmlns:svg="http://www.w3.org/2000/svg"
   xmlns="http://www.w3.org/2000/svg"
   viewBox="0 0 248.03751 248.03751"
   height="248.03751"
   width="248.03751"
   xml:space="preserve"
   version="1.1"
   id="svg2"><metadata
     id="metadata8"><rdf:RDF><cc:Work
         rdf:about=""><dc:format>image/svg+xml</dc:format><dc:type
           rdf:resource="http://purl.org/dc/dcmitype/StillImage" /></cc:Work></rdf:RDF></metadata><defs
     id="defs6" /><g
     transform="matrix(1.25,0,0,-1.25,0,248.0375)"
     id="g10"><g
       transform="scale(0.1,0.1)"
       id="g12"><path
         id="path14"
         style="fill:#000000;fill-opacity:1;fill-rule:evenodd;stroke:none"
         d="m 1517.98,583.398 c -37.42,4.532 -71.72,15.872 -102.9,34.008 -31.47,18.153 -57.82,41.114 -79.08,69.16 -21.56,28.071 -37.7,60.102 -48.76,95.532 -11.06,35.429 -16.72,72.851 -12.47,111.679 3.12,3.692 5.94,7.672 8.78,11.352 30.62,38.539 54.71,77.961 71.72,118.761 17.01,40.55 27.21,82.22 30.33,125.02 0,1.7 0.29,3.4 0.29,4.82 0.85,47.06 -9.64,91.28 -31.19,130.1 -8.22,14.75 -17.85,28.64 -29.19,41.67 l 0.85,7.09 c 2.83,22.96 13.04,41.39 30.9,55.84 17.57,14.47 38.26,20.14 62.07,17.58 22.68,-2.83 40.82,-13.32 54.43,-31.18 13.6,-18.14 18.99,-38.55 16.44,-61.51 l -51.59,-438.23 c -1.98,-16.16 -0.57,-31.481 3.97,-45.652 4.25,-14.168 11.04,-27.211 20.12,-38.829 8.79,-11.91 19.56,-21.261 32.32,-28.64 12.75,-7.371 26.92,-11.891 42.52,-13.602 15.31,-1.98 30.33,-0.847 44.79,3.41 14.74,3.961 27.49,10.77 39.11,20.121 11.33,9.348 20.98,20.411 28.63,33.168 7.66,12.75 12.48,27.211 14.18,43.372 l 51.59,438.512 c 2.83,22.69 13.04,41.39 30.9,55.57 17.57,14.44 38.26,20.41 62.07,17.56 22.68,-2.54 41.11,-13.03 55,-31.17 13.89,-18.15 19.56,-38.56 17,-61.52 l -51.59,-438.242 c -4.53,-37.402 -17,-71.992 -35.16,-103.46 -18.13,-31.739 -41.09,-58.95 -68.87,-81.641 -28.06,-22.668 -59.52,-39.668 -95.24,-50.738 -35.43,-11.039 -72.85,-14.45 -111.97,-9.911" /><path
         id="path16"
         style="fill:#ff0000;fill-opacity:1;fill-rule:evenodd;stroke:none"
         d="m 1246.42,1342.8 c 69.74,-43.09 105.72,-111.12 104.33,-188.79 -4.83,-77.38 -36.3,-151.65 -93.27,-223.08 -108.29,-140.614 -233,-241.524 -373.042,-303.032 -40.262,-19.558 -77.961,-16.441 -111.122,10.211 -136.351,118.77 -240.378,266.168 -310.961,443.901 -6.238,15.59 -10.488,26.93 -13.89,37.14 7.371,2.83 14.453,6.52 20.973,11.05 11.339,8.22 20.98,18.99 28.917,32.03 7.372,12.76 12.469,26.37 15.02,41.11 2.551,14.17 2.551,28.63 0,43.93 -2.551,15.88 -7.09,29.77 -13.891,42.24 -7.089,13.04 -16.16,24.09 -27.207,33.45 -1.14,0.85 -2.269,1.98 -3.402,2.83 20.121,39.97 49.602,71.72 88.723,95.25 43.937,25.22 94.957,33.16 151.648,24.09 80.231,-17.01 140.602,-68.31 195.031,-157.32 28.911,37.13 90.418,72.85 134.083,84.47 57.26,10.77 110.55,8.22 159.3,-8.22 17.01,-5.39 33.16,-12.76 48.76,-21.26" /><path
         id="path18"
         style="fill:#fad4c5;fill-opacity:1;fill-rule:evenodd;stroke:none"
         d="m 568.652,1388.15 c 12.469,-24.66 117.352,-25.23 160.719,-49.89 22.402,-12.76 73.422,-55.84 77.672,-56.69 24.66,-5.67 28.348,53.29 -9.07,84.75 -42.52,36 -112.532,54.71 -164.692,55.28 -22.961,0 -77.097,-8.79 -64.629,-33.45" /><path
         id="path20"
         style="fill:#fad4c5;fill-opacity:1;fill-rule:evenodd;stroke:none"
         d="m 1263.99,1271.93 c -18.99,-19.28 -119.06,14.17 -167.25,4.82 -24.94,-4.82 -86.17,-29.2 -90.43,-28.63 -25.216,2.83 -11.326,60.09 33.18,77.95 50.74,20.13 123.03,15.03 172.64,-1.42 21.82,-7.37 70.84,-33.44 51.86,-52.72" /><path
         id="path22"
         style="fill:#000000;fill-opacity:1;fill-rule:evenodd;stroke:none"
         d="m 572.055,662.766 c 3.402,-20.981 0,-39.692 -9.918,-56.692 -9.922,-17.011 -24.102,-26.929 -41.949,-29.769 l -121.043,-19.84 -123.309,-20.41 c -18.43,-2.832 -35.148,1.988 -49.609,15.019 -14.743,12.762 -23.809,29.489 -27.211,50.461 -3.399,21.539 -0.282,40.539 9.359,56.981 9.922,16.718 24.09,26.359 42.512,29.476 l 47.629,7.653 -70.02,426.055 -47.34,-7.66 c -18.711,-3.11 -35.148,1.7 -49.89,14.75 -14.45,12.75 -23.52,29.75 -26.93,50.44 -3.398,21.56 -0.281,40.54 9.359,56.98 9.641,16.72 23.813,26.36 42.52,29.49 l 244.34,39.96 c 17.863,3.13 34.3,-1.7 49.043,-14.18 15.027,-12.46 24.097,-29.48 27.777,-51.02 3.402,-20.98 0,-39.67 -9.918,-56.69 -10.199,-17 -24.09,-26.93 -41.949,-29.77 l -47.621,-7.64 70.008,-426.055 47.339,7.668 c 18.141,3.101 34.301,-1.707 49.321,-14.188 14.742,-12.472 23.82,-29.48 27.5,-51.019" /></g></g></svg>