<?xml version="1.0" encoding="UTF-8" standalone="no"?>
<svg
   xmlns:dc="http://purl.org/dc/elements/1.1/"
   xmlns:cc="http://creativecommons.org/ns#"
   xmlns:rdf="http://www.w3.org/1999/02/22-rdf-syntax-ns#"
   xmlns:svg="http://www.w3.org/2000/svg"
   xmlns="http://www.w3.org/2000/svg"
   viewBox="0 0 248.03751 248.03751"
   height="248.03751"
   width="248.03751"
   xml:space="preserve"
   version="1.1"
   id="svg2"><metadata
     id="metadata8"><rdf:RDF><cc:Work
         rdf:about=""><dc:format>image/svg+xml</dc:format><dc:type
           rdf:resource="http://purl.org/dc/dcmitype/StillImage" /></cc:Work></rdf:RDF></metadata><defs
     id="defs6" /><g
     transform="matrix(1.25,0,0,-1.25,0,248.0375)"
     id="g10"><g
       transform="scale(0.1,0.1)"
       id="g12"><path
         id="path14"
         style="fill:#ff4a7e;fill-opacity:1;fill-rule:nonzero;stroke:none"
         d="m 1822.85,784.949 c -233.02,34.024 -455.81,159.024 -467.43,235.561 -11.92,76.53 142.29,329.1 374.73,365.1 95.52,14.74 26.36,-35.72 14.17,-83.34 -7.64,-29.48 49.9,-49.6 49.9,-81.63 0,-42.52 -32.03,-65.77 -26.94,-98.93 3.4,-22.11 30.9,-29.77 51.31,-58.96 10.21,-14.74 -43.08,-74.84 -31.75,-90.148 13.32,-18.141 28.92,-35.711 44.22,-51.872 15.32,-16.718 -18.98,-60.949 -7.09,-75.121 35.44,-43.089 46.5,-67.457 -1.12,-60.66" /><path
         id="path16"
         style="fill:#eb3866;fill-opacity:1;fill-rule:nonzero;stroke:none"
         d="m 1814.35,846.746 c -66.9,9.641 -132.67,23.813 -194.75,45.352 -35.14,11.91 -73.12,24.101 -107.71,39.691 -30.62,14.168 -64.35,37.688 -96.37,43.09 34.28,-5.109 66.89,-42.52 98.07,-57.551 33.73,-16.719 69.73,-31.75 104.89,-44.219 32.88,-11.621 65.18,-26.929 99.48,-37.132 30.06,-9.071 71.73,-28.059 103.18,-27.5 3.7,0 7.95,-0.848 11.64,-1.418 -7.94,9.07 -21.26,25.23 -18.71,37.41 l 0.28,2.277 z M 1502.82,970.34 c 56.69,5.098 110.82,-23.813 163.84,-34.301 49.04,-9.351 111.97,-3.402 156.47,-24.383 -19.56,20.703 -35.72,34.59 -63.49,39.692 -30.34,5.672 -60.38,10.191 -91,13.32 -28.91,2.84 -58.39,5.102 -87.59,6.52 -26.92,1.421 -62.64,6.519 -88.43,0.57 l 10.2,-1.418 z m -122.46,36.29 c 13.03,5.67 27.5,2.25 41.39,2.25 39.12,0.3 77.1,3.12 117.07,-2.55 40.25,-5.94 78.8,-9.912 118.48,-11.334 20.99,-0.558 42.52,2.563 63.5,1.133 13.33,-0.563 38.27,-13.32 50.18,-9.07 10.48,3.98 46.2,62.641 45.34,73.141 -13.88,8.79 -28.05,18.71 -43.64,23.24 -33.17,9.35 -68.32,5.96 -101.77,8.78 -32.88,2.56 -72.28,-7.36 -105.16,-13.6 -62.65,-12.18 -141.45,-25.8 -187.37,-71.71 l 1.98,-0.28 z m 360.28,290.83 c 0.86,-15.87 12.2,-33.45 30.61,-42.8 -26.64,-9.64 -51.02,-5.67 -77.37,-16.45 -39.4,-15.87 -71.43,-27.77 -109.15,-47.62 -32.87,-17.29 -70,-41.38 -101.77,-58.67 -28.05,-15.31 -60.07,-47.91 -89.84,-76.54 68.32,106.02 119.91,131.25 145.14,150.8 19.26,15.31 44.22,27.78 66.04,39.69 -13.32,10.49 -9.64,18.71 -46.2,19.84 -26.65,0.84 -47.91,-19.27 -67.47,-35.43 -17.85,-15.02 -64.35,-70.02 -64.35,-70.02 0,0 52.43,89.86 102.61,125.58 46.77,33.45 94.68,67.75 149.96,85.04 13.33,3.97 89.86,26.92 96.95,7.37 2.27,-6.24 -10.21,-24.1 -21.54,-44.79 -3.69,-7.09 -14.46,-19.84 -13.62,-36" /><path
         id="path18"
         style="fill:#ff5c87;fill-opacity:1;fill-rule:nonzero;stroke:none"
         d="m 1380.64,980.82 c 20.99,-32.3 60.66,-47.05 89,-72.57 -16.14,9.922 -32.59,29.781 -45.62,43.949 -13.04,14.172 -26.09,29.75 -36.57,45.91 17,5.671 48.48,-6.8 66.32,-9.339 23.8,-3.411 53.59,5.101 74.28,-1.43 -17.01,2.281 -33.46,6.531 -50.75,7.379 -19.55,0.851 -36,8.211 -54.71,11.911 -9.91,1.97 -45.34,3.39 -38.27,16.14 3.41,5.68 18.16,13.05 23.54,17.01 9.07,6.81 19.27,12.48 29.48,18.43 45.36,27.49 87.02,61.52 132.09,89.86 -14.45,3.97 -32.02,-10.2 -43.36,-17.29 -17.02,-11.05 -33.18,-25.79 -51.32,-34.87 -18.14,-8.79 -35.14,-18.42 -52.43,-29.2 -8.23,-5.09 -36.87,-29.47 -46.21,-17 13.03,9.91 20.69,24.38 30.05,37.7 6.79,9.91 14.45,20.12 21.82,29.47 7.38,9.36 19,17.02 24.66,27.5 -19.28,-7.09 -32.6,-31.47 -48.46,-44.21 -9.64,-7.94 -21.27,-13.62 -30.63,-21.26 4.81,13.6 9.08,26.08 17.02,38.82 8.5,13.61 18.13,26.93 26.36,40.26 7.66,11.9 15.59,23.25 24.37,34.58 5.38,6.8 20.4,18.99 21.25,27.49 -16.42,-7.64 -31.16,-31.46 -43.37,-44.78 -12.18,-13.33 -21.25,-29.77 -30.32,-45.07 -18.13,-31.19 -26.36,-59.53 -26.36,-96.09 0,-11.05 1.43,-25.52 5.95,-34.87 3.41,-6.801 9.07,-19.281 14.46,-23.809" /><path
         id="path20"
         style="fill:#ff83a9;fill-opacity:1;fill-rule:nonzero;stroke:none"
         d="m 1778.63,852.129 c -11.91,14.461 22.38,58.391 7.08,75.129 -15.03,16.43 -30.62,33.73 -44.22,51.859 -11.34,15.313 41.95,75.403 31.74,90.143 -20.41,29.2 -47.9,37.14 -51.3,58.96 -5.11,33.17 26.93,56.41 26.93,99.22 0,31.76 -57.54,51.87 -49.89,81.36 7.93,30.62 39.41,62.64 35.43,77.38 -22.38,-3.97 -67.18,-12.76 -88.72,-23.25 -9.07,-15.59 -22.97,-34.86 -27.77,-53.86 -7.38,-29.48 49.88,-49.6 49.88,-81.63 0.28,-42.52 -31.75,-65.77 -26.65,-98.93 3.41,-22.11 30.61,-30.05 51.02,-58.96 10.49,-14.73 -43.08,-74.843 -31.73,-90.433 13.59,-18.129 29.2,-35.429 44.5,-51.859 15.3,-16.449 -19,-60.668 -7.37,-74.848 19.57,-23.812 31.74,-41.953 30.6,-52.152 16.45,-3.399 32.61,-6.238 49.34,-8.508 47.61,-7.082 36.55,17.289 1.13,60.379" /><path
         id="path22"
         style="fill:#ff6e95;fill-opacity:1;fill-rule:nonzero;stroke:none"
         d="m 1695.29,862.051 c -0.28,-3.961 0.27,-7.36 2.27,-9.641 3.97,-4.808 7.37,-9.34 10.77,-13.59 31.45,-4.269 63.21,-10.218 93.83,-18.711 -2.56,4.243 -5.68,8.782 -9.36,13.883 -33.46,6.231 -66.61,14.168 -97.51,28.059 m -1.71,203.529 c 1.13,-12.19 -16.72,-37.7 -27.21,-58.68 25.51,-3.4 51.03,-6.23 76.54,-9.92 6.8,17.58 24.1,42.24 29.76,58.4 -26.65,2.83 -53.29,5.66 -79.09,10.2 m 78.24,-123.017 c 4.54,-5.102 9.35,-10.211 13.89,-15.313 1.13,-1.41 1.98,-2.84 2.55,-4.25 -27.77,4.25 -56.41,5.391 -85.04,6.242 -7.94,8.488 -16.16,17.571 -23.81,26.641 30.9,-3.981 61.8,-7.371 92.41,-13.32" /><path
         id="path24"
         style="fill:#ff90b6;fill-opacity:1;fill-rule:nonzero;stroke:none"
         d="m 1698.41,1305.39 c -11.62,-1.42 -25.23,1.7 -35.72,1.7 -15.02,-0.28 -29.76,-0.28 -44.78,1.98 -7.37,-28.91 47.33,-48.75 49.88,-79.36 22.11,9.92 49.9,13.6 76.54,13.03 -12.76,22.4 -47.9,39.97 -45.92,62.65" /><path
         id="path26"
         style="fill:#ff4a7e;fill-opacity:1;fill-rule:nonzero;stroke:none"
         d="m 246.785,482.207 c 203.531,117.922 363.973,316.629 346.391,392.031 -17.289,75.399 -254.258,252.852 -483.59,199.852 -94.1094,-21.83 -11.0508,-42.52 17.859,-82.492 18.141,-24.66 -27.777,-64.621 -15.867,-94.11 15.59,-39.679 53.86,-49.32 61.508,-82.203 5.102,-21.547 -17.578,-39.117 -25.508,-73.707 -4.25,-17.562 67.75,-53.293 62.93,-72 -5.961,-21.82 -13.891,-43.652 -21.832,-64.633 -8.219,-20.968 39.972,-49.308 34.301,-66.898 -16.731,-53.281 -17.86,-79.918 23.808,-55.84" /><path
         id="path28"
         style="fill:#eb3866;fill-opacity:1;fill-rule:nonzero;stroke:none"
         d="m 232.605,540.891 c 7.09,-10.493 0.571,-30.621 -3.398,-41.953 3.121,1.703 6.809,4.531 10.211,5.671 29.48,11.051 61.23,44.219 85.598,63.782 28.07,22.386 52.441,48.179 78.812,71.429 27.777,24.66 55.559,51.868 80.777,79.938 23.532,25.793 39.973,72.562 69.743,89.851 -27.782,-17 -50.461,-51.3 -73.7,-75.679 -26.082,-27.5 -56.703,-52.731 -85.043,-77.102 C 345.996,614.02 290.156,576.32 231.477,542.59 l 1.128,-1.699 z m 251.161,237.257 c -26.078,-3.968 -57.258,-22.109 -81.918,-33.449 -26.653,-11.91 -53.012,-25.23 -78.821,-38.558 -27.199,-14.172 -53.558,-29.473 -79.371,-45.911 -24.078,-15.32 -33.73,-34.011 -44.211,-60.66 33.453,36.278 94.114,53.86 136.071,80.778 45.351,29.203 84.75,76.25 139.461,92.703 l 8.789,5.097 z m 93.25,75.11 c -59.809,25.519 -138.047,9.082 -200.981,-3.11 -32.59,-6.23 -72.84,-11.621 -102.328,-26.359 -30.039,-15.019 -64.051,-24.949 -91.269,-45.93 -12.75,-9.91 -22.403,-24.371 -32.032,-37.691 3.11,-9.918 58.11,-51.309 69.16,-51.027 12.762,0.289 31.18,21.257 43.372,26.929 18.988,9.071 39.968,14.18 59.531,22.68 36.277,15.867 70.578,34.008 105.449,54.141 35.148,20.41 71.711,31.75 108.008,45.918 13.031,5.109 25.222,13.601 39.39,13.601 l 1.7,0.848 z m -444.469,135.5 c -5.102,15.032 -19.84,23.242 -25.801,28.062 -18.1405,15.03 -36.5585,26.93 -36.5585,33.74 -0.8516,20.69 78.8005,28.06 92.6915,28.91 57.539,4.54 114.797,-9.36 170.93,-22.95 59.808,-14.75 141.726,-78.801 141.726,-78.801 0,0 -63.777,34.001 -85.597,41.091 -24.102,7.93 -51.59,18.71 -75.969,7.93 -33.453,-14.74 -26.934,-20.69 -35.442,-35.431 24.668,-3.121 52.161,-5.379 75.969,-12.469 30.621,-8.789 87.883,-13.32 190.77,-86.16 -38.258,15.578 -80.219,34 -111.68,37.687 -36.277,4.25 -79.367,12.762 -116.5,16.723 -42.238,4.539 -76.539,3.687 -118.777,3.687 -28.633,0 -49.891,-12.476 -78.231,-13.328 13.598,15.321 17.86,36 12.469,51.309" /><path
         id="path30"
         style="fill:#ff5c87;fill-opacity:1;fill-rule:nonzero;stroke:none"
         d="m 584.391,828.32 c -7.371,-37.98 -38.832,-66.332 -55.563,-100.629 11.063,15.309 18.992,39.688 26.082,57.539 6.801,18.149 13.039,37.418 16.719,56.411 -17.57,-1.129 -42.231,-24.09 -58.109,-33.45 -20.692,-11.902 -51.301,-15.019 -68.309,-28.91 15.019,8.789 28.629,18.707 44.219,25.797 17.859,7.934 30.332,20.973 46.492,31.461 8.5,5.672 40.816,20.133 29.476,28.91 -5.097,4.262 -21.546,5.672 -28.07,7.371 -11.047,2.84 -22.387,4.258 -34.008,6.239 -52.441,8.5 -103.75,24.66 -156.468,34.3 12.187,9.071 33.726,2.551 46.769,0 19.84,-3.968 40.527,-11.91 60.938,-13.32 20.132,-1.418 39.402,-3.969 59.25,-7.66 9.64,-1.699 45.351,-13.598 49.32,1.152 -15.867,4.52 -28.348,15.289 -41.949,24.078 -9.918,6.52 -20.7,13.321 -31.18,19.282 -10.488,5.949 -24.102,8.5 -33.172,16.437 20.692,0.563 41.953,-17.289 61.512,-23.25 11.621,-3.68 24.66,-4.527 36.289,-8.219 -9.359,10.77 -17.859,20.7 -30.051,29.481 -13.039,9.64 -26.93,18.441 -39.687,27.781 -11.332,8.508 -22.961,15.879 -35.153,22.959 -7.648,4.54 -26.066,10.21 -30.328,17.58 18.149,-0.85 40.82,-17.58 56.981,-25.23 16.16,-7.942 30.898,-19.84 45.07,-30.61 28.348,-22.39 46.488,-45.64 60.098,-79.66 3.961,-10.199 8.222,-23.808 7.371,-34.582 -0.571,-7.367 -1.141,-21.258 -4.539,-27.207" /><path
         id="path32"
         style="fill:#ff83a9;fill-opacity:1;fill-rule:nonzero;stroke:none"
         d="m 262.66,561.016 c 5.672,17.57 -42.519,45.922 -34.578,66.89 8.219,20.981 16.148,42.809 21.82,64.629 5.11,18.711 -66.89,54.43 -62.64,72.012 7.937,34.578 30.609,52.141 25.508,73.699 -7.649,32.879 -45.918,42.52 -61.797,82.192 -11.621,29.488 34.019,69.457 16.16,94.112 -18.711,25.52 -59.531,43.38 -61.512,58.68 22.109,4.55 66.899,13.05 90.988,11.34 14.18,-11.05 34.301,-24.09 45.641,-39.96 17.859,-24.38 -27.777,-64.352 -16.16,-94.114 15.883,-39.398 54.14,-49.32 61.801,-81.922 5.101,-21.828 -17.578,-39.117 -25.508,-74 -4.262,-17.277 67.738,-53.289 62.637,-71.699 -5.668,-21.828 -13.598,-43.937 -21.821,-64.629 -7.937,-21.262 40.25,-49.32 34.582,-67.18 -9.359,-29.199 -13.89,-50.461 -9.07,-59.531 -13.891,-9.347 -28.07,-18.14 -42.52,-26.359 -41.671,-24.102 -40.539,2.551 -23.531,55.84" /><path
         id="path34"
         style="fill:#ff6e95;fill-opacity:1;fill-rule:nonzero;stroke:none"
         d="m 336.363,600.984 c -23.242,-24.379 -51.312,-44.218 -80.222,-62.359 -1.418,-5.949 -2.547,-11.34 -3.399,-16.168 25.231,19.277 52.719,36.277 80.219,52.449 1.422,5.09 3.121,10.481 4.82,16.16 0.852,3.11 0.282,6.231 -1.418,9.918 M 262.66,790.625 c -22.387,-13.898 -46.199,-26.09 -69.726,-38.84 11.046,-12.75 36.277,-29.199 49.32,-43.09 22.109,12.762 44.789,24.95 67.18,37.7 -17.293,15.312 -43.371,32.613 -46.774,44.23 m -27.219,-143.16 c 26.09,17.019 53.571,31.473 81.071,46.5 -3.969,-11.348 -8.219,-22.399 -12.192,-33.457 -26.636,-11.621 -52.437,-22.961 -77.097,-37.41 0,1.699 0.281,3.109 0.847,4.808 2.551,6.532 5.102,13.039 7.371,19.559" /><path
         id="path36"
         style="fill:#ff90b6;fill-opacity:1;fill-rule:nonzero;stroke:none"
         d="m 169.117,1011.44 c 11.34,3.12 22.68,11.06 32.321,14.74 14.167,5.67 27.769,11.06 40.808,18.71 l 0,-0.28 c 17.578,-23.82 -25.512,-62.649 -16.719,-91.848 -24.382,0.847 -51.312,-5.953 -75.972,-16.442 3.402,25.508 29.761,54.989 19.562,75.12" /><path
         id="path38"
         style="fill:#ff4a7e;fill-opacity:1;fill-rule:nonzero;stroke:none"
         d="M 1019.8,673.262 C 787.355,637.551 564.266,832.281 552.363,908.832 540.734,985.352 694.664,1238.21 927.387,1273.92 1160.11,1309.65 1379.52,1137.29 1394.82,1038.36 1409.84,939.723 1252.5,709.273 1019.8,673.262" /><path
         id="path40"
         style="fill:#ff5c87;fill-opacity:1;fill-rule:nonzero;stroke:none"
         d="m 1394.81,1038.37 c -2.54,16.72 -11.04,35.15 -24.09,54.43 -2.56,-57.26 -16.15,-113.112 -48.48,-166.972 -24.94,-41.66 -54.99,-87.301 -97.51,-113.098 -45.35,-27.492 -99.78,-36.851 -150.52,-50.742 -51.58,-13.89 -108.276,-30.898 -162.136,-23.808 -59.242,7.648 -110.832,35.718 -168.379,49.32 -28.34,6.52 -58.961,11.629 -84.75,25.801 -21.261,11.898 -41.109,27.207 -62.929,37.699 -6.524,3.117 -12.762,5.949 -19,8.789 65.488,-88.441 250.867,-216 442.774,-186.519 232.73,36 390.04,266.449 375.02,365.1" /><path
         id="path42"
         style="fill:#ff5c87;fill-opacity:1;fill-rule:nonzero;stroke:none"
         d="m 945.527,1229.99 c 126.713,19.56 249.173,-10.77 342.993,-58.39 -89.02,64.63 -219.41,113.95 -354.332,92.97 -154.2,-23.53 -273.833,-142.58 -333.641,-242.36 74.269,90.43 195.879,184.82 344.98,207.78" /><path
         id="path44"
         style="fill:#eb3866;fill-opacity:1;fill-rule:nonzero;stroke:none"
         d="m 1362.23,979.043 1.89,9.59 c 1.17,0.711 2.36,1.371 3.49,2.109 -1.82,-3.98 -3.58,-7.859 -5.38,-11.699 M 625.207,815.004 c -12.75,7.937 -21.82,17.277 -32.312,27.199 9.41,-2.23 19.5,-2.582 29.21,-4 6.493,-12.34 14.25,-24.019 23.09,-35.031 -6.73,3.871 -13.461,7.75 -19.988,11.832 m -16.199,62.918 5.918,-22.418 c -10.281,6.078 -20.629,11.91 -32.52,14.199 1.621,8.75 14.262,9.442 26.602,8.219 m -11.942,45.141 8.051,-30.461 c -7.179,1.203 -21.902,1.421 -26.961,4.89 -9.449,6.36 7.141,17.832 18.91,25.571 m 726.894,143.367 c 7.84,-2.24 31.39,-5.21 36.86,-12.23 -24.62,-10.86 -49.47,1.81 -51.04,8.54 -2.71,5 -5.6,9.96 -8.62,14.85 10.8,-5.95 19.04,-10.12 22.8,-11.16 m 55.49,-0.07 0.35,1.77 c -0.23,-0.24 -0.45,-0.42 -0.67,-0.66 -0.27,0.86 -0.43,1.84 -0.75,2.64 -2.83,6.81 -7.65,19.85 -12.47,24.67 l 1.7,-5.67 c -15.29,27.96 -44.32,45.07 -68.68,65.75 9.96,-10.78 19.49,-23.73 27.58,-33.73 11.9,-15.3 23.81,-31.74 33.16,-48.75 -7.03,-1.73 -37.44,10.24 -72.37,25.59 -41.3,55.18 -102,90.77 -159.79,33.94 -28.91,-33.17 79.65,-37.13 100.35,-77.39 37.12,-63.778 -30.34,-140.586 -105.45,-183.399 -148.523,-82.098 -332.504,-71.117 -455.625,5.274 14.051,1.808 25.891,4.089 25.891,4.089 0,0 1.191,3.309 -43.602,7.739 -16.617,11.769 -31.969,24.781 -45.648,39.058 0.73,0.5 1.39,0.973 1.941,1.391 13.129,9.949 78.52,99.468 105.84,131.058 -25,-26.42 -83.609,-90.609 -117.711,-121.539 -0.199,0.231 -0.41,0.454 -0.609,0.672 l 0.258,-0.98 c -10.977,-9.93 -19.387,-16.379 -23.207,-16.871 0.179,1.351 0.449,2.722 0.648,4.07 51.922,84.198 164.031,210.278 386.269,256.998 15.032,3.12 30.903,5.96 47.065,8.22 0,0 92.12,15.59 178.88,-18.14 0,0 -39.12,91.28 -234.445,74.27 0,0 -256.359,-57.16 -369.71,-282.778 1.293,4.942 2.64,9.832 4.043,14.629 3.839,12.473 7.839,28.009 13.078,41.709 -14.989,-28.299 -35.442,-54.787 -39.442,-86.506 l -0.277,5.95 c -2.84,-6.512 -2.551,-20.121 -2.551,-27.77 0,-1.832 0.328,-3.84 0.609,-5.82 -0.007,-0.039 -0.031,-0.09 -0.05,-0.129 l 0.062,0.027 c 1.348,-9.359 5.34,-19.929 9.301,-28.097 16.148,-32.883 36,-54.43 66.039,-74.551 11.52,-7.75 23.578,-15.949 36.27,-22.313 84.031,-81.136 235.711,-114.898 390.913,-76.328 155.34,38.551 269.87,138.891 300.47,248.59 l 0.52,2.621 c 14.22,24.418 21.8,48.576 24.15,79.006 0.75,9.79 0.45,22.08 -2.33,31.69" /><path
         id="path46"
         style="fill:#ff5c87;fill-opacity:1;fill-rule:nonzero;stroke:none"
         d="m 1329.9,939.727 c 0,0 -68.6,-102.051 -196.72,-133.801 -54.15,-13.328 -132.66,-13.891 -200.7,-12.188 -93.539,2.547 -167.238,9.078 -130.667,-7.941 63.21,-29.192 158.167,-39.969 95.238,-39.121 -63.207,0.851 -118.207,-22.379 0.851,-32.879 0,0 308.978,-15.301 431.998,225.93" /><path
         id="path48"
         style="fill:#ff87b3;fill-opacity:1;fill-rule:nonzero;stroke:none"
         d="m 687.574,929.52 c -8.222,52.71 8.789,162.14 48.469,259.94 -21.539,-16.17 -41.379,-33.74 -59.531,-52.16 -39.957,-85.61 -58.668,-172.917 -51.867,-217.417 6.796,-44.231 51.019,-122.184 114.796,-191.621 22.961,-12.199 47.063,-22.961 72.293,-32.032 -66.902,81.641 -116.222,180.571 -124.16,233.29 m 159.02,322.58 c -13.039,-5.1 -25.512,-10.77 -37.41,-16.73 -37.141,-100.63 -50.743,-233.85 -41.391,-293.378 9.07,-59.531 62.078,-182.562 127.559,-267.301 13.32,-2.269 26.929,-3.699 40.82,-4.832 -48.758,91.852 -91.277,220.821 -100.629,282.621 -9.641,61.8 -7.941,197.28 11.051,299.62 M 1016.96,994.43 c -9.64,61.52 -34.589,192.18 -64.065,282.61 -8.5,-0.85 -17.012,-1.69 -25.512,-3.12 -7.371,-1.12 -14.461,-2.54 -21.828,-3.97 -2.551,-89.28 11.058,-215.71 20.699,-278.067 9.629,-63.492 43.93,-219.133 74.546,-320.891 6.52,0.578 12.75,1.43 18.99,2.278 7.65,1.421 15.3,2.82 22.96,4.25 2.27,109.98 -16.16,252.851 -25.79,316.91 m -2.84,283.75 c 46.21,-85.89 85.61,-206.08 97.51,-283.18 11.91,-77.391 10.21,-203.809 -7.65,-299.617 13.04,5.097 26.08,10.769 38.55,16.719 35.43,94.39 48.47,218.839 36.85,293.108 -11.34,74.54 -61.23,189.34 -123.31,268.71 -13.9,1.99 -27.78,3.41 -41.95,4.26 m 308.41,-250.86 c -8.22,54.99 -49.61,130.11 -109.13,195.3 -22.68,11.62 -47.07,22.11 -72.57,30.62 62.93,-75.98 108.84,-170.08 118.77,-235.57 10.21,-65.471 -5.38,-168.94 -42.23,-260.209 21.54,15.59 41.66,32.879 59.8,50.73 37.14,80.231 53.86,164.418 45.36,219.129" /><path
         id="path50"
         style="fill:#ff87b3;fill-opacity:1;fill-rule:nonzero;stroke:none"
         d="m 1200.93,1087.13 c 34.01,30.9 1.42,97.23 -36,92.41 -45.64,-6.24 -17.86,-108.85 28.91,-93.83 l 7.09,1.42 z M 755.039,815.848 c 0,37.132 71.149,-17.278 56.688,-49.328 -22.387,-50.172 -57.539,13.621 -58.11,41.39" /></g></g></svg>