<?xml version="1.0" encoding="UTF-8" standalone="no"?>
<svg
   xmlns:dc="http://purl.org/dc/elements/1.1/"
   xmlns:cc="http://creativecommons.org/ns#"
   xmlns:rdf="http://www.w3.org/1999/02/22-rdf-syntax-ns#"
   xmlns:svg="http://www.w3.org/2000/svg"
   xmlns="http://www.w3.org/2000/svg"
   viewBox="0 0 248.03751 248.03751"
   height="248.03751"
   width="248.03751"
   xml:space="preserve"
   version="1.1"
   id="svg2"><metadata
     id="metadata8"><rdf:RDF><cc:Work
         rdf:about=""><dc:format>image/svg+xml</dc:format><dc:type
           rdf:resource="http://purl.org/dc/dcmitype/StillImage" /></cc:Work></rdf:RDF></metadata><defs
     id="defs6" /><g
     transform="matrix(1.25,0,0,-1.25,0,248.0375)"
     id="g10"><g
       transform="scale(0.1,0.1)"
       id="g12"><path
         id="path14"
         style="fill:#76932c;fill-opacity:1;fill-rule:evenodd;stroke:none"
         d="m 780.844,726.445 64.633,-33.449 c 0,0 -4.543,-53.293 4.25,-55.269 9.07,-1.711 -7.942,-86.172 -7.942,-86.172 0,0 -10.769,-64.629 -12.469,-76.539 -1.41,-11.911 -32.601,-86.731 -32.601,-86.731 l 25.23,-88.441 14.461,-58.68 -45.64,-19.848 -25.512,41.379 c 0,0 -15.59,121.61 -23.527,120.2 -7.653,-1.43 -5.102,173.468 -5.102,173.468" /><path
         id="path16"
         style="fill:#000000;fill-opacity:1;fill-rule:evenodd;stroke:none"
         d="m 1433.1,939.324 c 31.18,20.141 66.61,28.922 98.93,45.934 28.63,15.012 44.79,47.342 58.38,74.842 9.64,19.54 19.55,38.82 30.05,57.81 8.8,15.88 24.39,28.64 34.31,44.22 2.55,3.97 1.98,10.76 -1.99,13.89 -32.03,26.65 -41.1,64.35 -63.23,98.09 -8.2,12.75 -15.57,23.24 -27.48,32.31 -3.41,2.54 -6.8,4.25 -10.77,5.67 3.11,14.17 5.39,27.79 7.36,37.98 1.72,8.8 11.34,36.29 2.57,43.64 -14.18,11.92 -26.93,25.24 -39.41,39.14 -34.86,39.4 -68.88,85.03 -117.63,100.91 -3.12,0.85 -6.53,1.7 -9.92,2.54 -11.63,28.65 -21.56,57.83 -20.7,87.61 0.29,3.39 -2.84,6.23 -5.95,6.23 l -5.39,0 c -1.43,0 -2.84,0 -4.25,0.28 -55.27,1.4 -108.28,7.65 -163,16.72 -20.97,3.68 -43.36,6.24 -63.77,1.71 -18.14,24.38 -46.77,39.95 -80.5,50.18 -45.07,13.6 -93.265,12.75 -136.925,-2.57 -1.41,-0.57 -2.828,-1.12 -4.25,-1.7 -1.418,-0.56 -2.828,-0.85 -3.969,-1.69 l 0,-10.78 c 0,-0.85 0,-1.7 -0.281,-2.83 0,-1.7 0,-3.11 -0.277,-4.82 -0.863,-9.35 -2.274,-18.7 -3.973,-28.07 -16.73,10.22 -39.969,13.34 -53.289,2.84 -17.859,-14.18 -31.191,-36.28 -42.808,-55.55 -5.102,-8.81 -11.051,-17.86 -16.723,-27.5 -21.551,8.21 -45.918,7.94 -71.719,-5.11 -30.609,-15.59 -50.461,-42.79 -58.68,-75.68 -5.378,-20.69 -4.531,-43.66 -5.378,-64.62 -0.852,-17.02 -2.274,-34.88 -1.704,-52.45 l 0,-3.4 c 0,-1.71 0.282,-3.69 0.282,-5.39 1.992,-0.29 3.968,-0.57 5.672,-1.14 1.976,-0.28 3.687,-0.86 5.386,-1.4 l 7.653,-2.56 c 2.55,-1.13 4.82,-2.27 7.371,-3.4 -0.282,-1.42 -0.571,-2.84 -0.852,-4.25 -0.281,-1.42 -0.57,-2.84 -0.851,-4.26 -5.098,-22.11 -17.579,-40.82 -28.348,-60.38 -18.422,-33.16 -39.121,-64.63 -54.141,-99.21 -26.929,-61.5 -26.64,-131.81 -13.039,-196.442 2.27,-11.051 5.098,-21.82 8.508,-32.594 -19.277,11.903 -42.52,18.422 -64.918,20.692 -55.84,5.66 -96.09,-21.828 -139.18,-52.731 -0.57,-0.558 -0.281,-1.687 0.571,-1.687 -5.672,-3.703 -11.34,-8.231 -16.442,-13.332 -0.289,-0.289 -0.289,-0.289 -0.289,-0.559 0,-0.289 0.571,-0.852 0.848,-0.582 97.801,68.891 189.64,-54.988 282.621,-68.309 5.379,-6.511 11.051,-13.031 17.289,-19.281 1.699,-1.98 3.68,-3.969 5.672,-5.937 -31.18,-7.672 -61.512,-10.493 -94.109,-10.223 -32.602,0.582 -65.481,1.992 -96.954,-6.789 -31.179,-9.078 -60.66,-37.129 -80.218,-67.469 l 0,-0.293 c -1.981,-2.828 -3.969,-5.949 -5.668,-8.789 -0.852,-1.98 -1.981,-3.949 -2.832,-5.648 -3.969,-7.672 -7.371,-15.032 -9.918,-22.403 -0.293,-1.136 1.129,-1.699 2.269,-1.136 11.899,9.359 21.258,22.109 31.18,34.297 17,8.511 33.73,17 53.859,20.691 44.782,8.512 80.5,-8.488 121.321,-22.961 32.597,-11.91 66.05,-19.27 100.91,-17.859 22.39,1.14 42.238,7.941 60.949,18.152 -5.672,-21.551 -9.359,-43.941 -13.891,-65.762 -33.168,-161.019 -19,-286.879 39.68,-437.398 0.852,-1.981 2.551,-3.102 4.543,-3.102 3.109,-0.289 6.52,1.969 5.098,5.649 -43.942,123.601 -63.5,348.383 -5.391,485.312 19.563,-5.961 39.691,-10.492 60.102,-13.621 -0.289,-0.558 -0.571,-1.121 -0.571,-1.699 -13.89,-41.672 -26.929,-93.262 -36.281,-147.402 -17.859,-107.43 -20.129,-226.477 19.84,-307.278 1.98,-3.972 6.519,-2.543 8.223,0.571 0.277,1.128 0.57,2.546 -0.282,3.98 -41.672,90.129 3.68,312.937 26.078,411.289 17.852,-42.801 55.274,-77.09 100.34,-90.133 41.106,-12.469 83.906,0 125.586,-7.929 33.45,-6.239 56.69,-36.008 75.12,-65.77 1.7,-2.84 3.4,-5.68 5.1,-8.508 1.41,-2.262 2.55,-4.25 3.97,-6.512 0.28,1.7 0.56,3.403 1.13,4.813 0.28,1.977 0.57,4.258 0.84,6.227 4.82,39.41 -15.02,79.382 -47.04,104.332 -20.98,16.429 -45.37,20.121 -70.59,26.64 -26.93,7.09 -37.98,28.071 -51.3,47.629 23.24,-0.851 46.48,0.852 69.43,4.531 9.94,-1.992 20.41,-3.132 30.32,-4.832 24.12,-4.808 48.5,-12.179 70.32,-23.519 20.41,-10.481 33.43,-25.52 45.07,-42.238 2.27,-3.114 4.54,-6.243 6.81,-9.641 1.7,-2.551 3.39,-5.102 5.37,-7.942 0.3,2.282 0.86,4.54 1.15,7.09 0.28,2.551 0.85,5.102 1.12,7.66 5.11,43.372 -3.96,89.29 -41.37,111.11 46.48,23.25 86.74,57.543 121.6,95.812 32.59,36.008 58.11,77.11 88.43,114.239 8.8,8.511 18.15,16.718 29.21,23.808" /><path
         id="path18"
         style="fill:#e22228;fill-opacity:1;fill-rule:evenodd;stroke:none"
         d="m 1542.51,1382.95 c 0.28,-0.27 0.58,-0.57 0.58,-0.84 0.27,-0.29 0.55,-0.57 0.55,-0.86 0,-0.28 0.3,-0.57 0.3,-0.57 0,-0.28 0,-0.55 0.27,-0.85 l 0,-5.67 -0.27,-0.28 0,-1.7 -0.3,-0.28 0,-1.13 -0.28,-0.57 0,-0.86 -0.27,-0.55 0,-0.58 -0.3,-0.57 0,-0.56 -0.28,-0.56 0,-0.29 -0.27,-0.57 0,-1.14 -0.3,-0.56 0,-0.28 -0.28,-0.57 0,-0.57 -0.27,-0.57 0,-0.27 -0.3,-0.57 0,-0.57 -0.28,-0.29 0,-0.84 -0.28,-0.57 0,-0.29 -0.29,-0.55 0,-0.87 -0.28,-0.27 0,-1.14 -0.28,-0.29 c -1.98,-12.47 -4.82,-24.66 -8.51,-36.56 0,-0.85 -0.28,-1.42 -0.56,-2.26 -0.29,-0.86 -0.57,-1.7 -0.57,-2.56 -1.98,-5.94 -3.97,-11.91 -5.96,-18.14 -4.25,-12.19 -11.9,-23.53 -15.87,-35.72 -0.56,0.58 -0.85,1.13 -1.41,1.7 -19.85,24.11 -50.18,20.98 -77.11,11.63 18.44,15.3 20.98,37.98 15.02,64.62 -3.4,14.74 -10.48,27.22 -19.54,39.13 0.85,5.09 1.4,10.2 1.97,15.3 2.83,26.64 1.98,51.59 -7.65,80.79 -5.11,15.59 -11.91,31.46 -18.71,47.62 41.38,-20.7 72.56,-64.35 101.76,-98.07 8.22,-9.93 17.01,-19.29 26.08,-28.07 l 0.29,-0.29 0.28,-0.28 0.28,-0.27 0.29,-0.3 0.28,0 0,-0.27 0.28,-0.3 0.29,-0.27 0.28,-0.29 0.28,-0.29 0.29,0 0,-0.28 0.28,-0.28 0.28,0 0.29,-0.29 0,-0.27 0.28,0 0.28,-0.29 0.29,-0.28 0.28,-0.29 0.28,-0.28 0.29,0 0,-0.29 0.29,-0.28 0.27,0 0.29,-0.27 0,-0.3 0.29,0 0.27,-0.27 0.29,0 0,-0.29 0.29,-0.29 0.27,0 0.29,-0.28 0,-0.28 0.29,0 0.27,-0.29 0.29,-0.27 0.29,0 0,-0.3 0.27,0 0.29,-0.27 0.29,-0.29 0.28,-0.28 0.28,-0.29 0.28,0 0,-0.28 0.29,-0.29 0.28,0 0.57,-0.55 0.56,-0.3 0.3,-0.28 0,-0.28 0.27,0 0.58,-0.29 0.27,-0.28 z m -32.88,-158.74 0,0 0.28,-0.85 0.3,-0.84 0,-0.86 0.27,-0.85 0.28,-0.57 0,-0.85 0.29,-0.85 0,-1.7 0.28,-0.85 0,-4.25 0.28,-1.13 -0.28,-0.86 0,-4.53 -0.28,-0.84 0,-1.7 -0.29,-1.14 0,-0.86 -0.28,-0.84 0,-1.14 -0.27,-0.84 0,-0.86 -0.3,-1.14 -0.28,-0.84 0,-0.86 -0.28,-1.12 -0.29,-0.86 -0.28,-1.14 0,-0.84 -0.28,-0.86 -0.29,-1.13 -0.28,-0.85 -0.28,-1.13 -0.29,-0.85 -0.28,-1.14 -0.28,-0.85 -0.29,-0.85 -0.28,-1.13 -0.29,-0.85 -0.28,-1.13 -0.28,-0.86 -0.29,-0.85 -0.28,-1.13 -0.28,-0.85 -0.29,-1.13 -0.27,-0.86 -0.29,-0.85 -0.29,-1.13 -0.27,-0.84 -0.58,-1.14 -0.27,-0.86 -0.3,-0.84 -0.28,-1.14 -0.27,-0.84 -0.3,-0.86 c -9.07,4.82 -20.11,6.52 -30.89,5.39 -22.68,-1.99 -39.41,-22.68 -54.43,-37.42 -31.18,-30.33 -81.35,-29.77 -121.6,-23.25 -19.28,3.12 -33.45,12.48 -49.03,23.25 -8.52,5.67 -19.56,9.07 -29.78,6.52 -20.12,-5.1 -35.15,-10.77 -56.69,-5.67 -18.43,4.54 -36.28,12.2 -54.71,17.29 -34.87,9.64 -62.93,15.02 -85.61,45.64 -17.29,23.52 -32.591,41.38 -58.669,55.84 -22.961,12.77 -45.07,10.5 -66.902,-0.57 -1.7,-0.56 -3.118,-1.41 -4.539,-2.25 -0.848,-0.57 0,-2 0.851,-1.43 45.359,20.7 77.668,-6.8 103.188,-40.82 13.031,-17.29 21.821,-36.28 40.251,-48.75 22.96,-15.88 49.32,-22.12 75.68,-29.77 24.95,-7.37 54.71,-23.8 81.93,-17.86 18.42,4.25 32.89,12.76 51.58,0.29 12.76,-8.79 23.53,-14.46 38.56,-18.71 20.4,-5.67 42.51,-7.66 64.07,-6.81 -9.08,-12.75 -15.32,-27.78 -24.39,-40.82 -3.68,-4.25 -7.37,-8.78 -10.49,-13.6 -15.3,-17.86 -33.16,-33.447 -51.31,-48.474 -46.2,-38.262 -97.51,-70.301 -151.36,-96.953 -45.93,-22.379 -92.13,-44.778 -136.92,-69.719 -3.398,-1.141 -6.519,-2.84 -9.351,-4.539 -3.399,-1.992 -6.239,-3.68 -8.789,-5.672 -31.75,-18.43 -61.508,-38.547 -82.77,-68.879 l -1.418,0 c 0,0.281 0,0.57 0.277,0.851 0.289,0.571 0.571,1.137 0.852,1.989 6.238,17.57 8.789,35.429 16.16,52.719 6.809,15.589 15.027,30.32 22.68,45.07 15.019,27.5 29.758,54.992 41.668,84.191 26.082,63.5 17.57,127.286 -11.34,188.216 -22.109,46.77 -58.68,81.92 -90.707,121.05 19.277,27.2 46.207,49.61 77.387,60.65 44.5,15.59 89.291,-15.31 123.871,-39.97 30.33,-21.82 58.96,-48.18 93.84,-62.64 0.55,0 0.85,-0.29 1.41,-0.57 13.03,-9.07 27.21,-16.16 42.51,-20.68 46.21,-14.47 98.65,10.76 140.04,29.18 39.68,17.87 75.4,45.37 116.5,59.25 0.57,0.28 1.13,0.28 1.42,0.57 0.56,0.28 1.13,0.28 1.43,0.57 0.55,0 1.12,0.28 1.4,0.28 0.57,0.29 1.15,0.29 1.42,0.29 0.57,0.27 1.13,0.27 1.42,0.56 0.56,0 1.13,0 1.41,0.28 0.58,0 0.85,0 1.43,0.28 0.56,0 0.85,0 1.41,0.29 l 1.42,0 c 0.28,0.28 0.85,0.28 1.41,0.28 0.29,0 0.85,0.28 1.15,0.28 l 2.82,0 c 0.29,0.3 0.85,0.3 1.14,0.3 l 5.38,0 c 0.3,-0.3 0.85,-0.3 1.15,-0.3 l 1.12,0 c 0.57,0 0.85,-0.28 1.42,-0.28 l 1.13,0 c 0.57,-0.28 0.86,-0.28 1.42,-0.28 0.29,0 0.57,-0.29 1.14,-0.29 0.28,0 0.85,-0.28 1.13,-0.28 0.28,0 0.85,-0.28 1.13,-0.28 0.57,-0.29 0.85,-0.29 1.13,-0.29 0.57,-0.27 0.85,-0.27 1.15,-0.56 0.55,0 0.85,-0.28 1.12,-0.28 0.58,-0.29 0.85,-0.29 1.14,-0.57 0.56,0 0.85,-0.29 1.14,-0.29 0.56,-0.28 0.84,-0.28 1.12,-0.57 0.29,-0.28 0.85,-0.28 1.14,-0.56 0.28,-0.28 0.56,-0.28 1.13,-0.57 0.29,-0.28 0.57,-0.28 0.85,-0.57 0.57,-0.28 0.85,-0.28 1.14,-0.55 0.28,-0.3 0.56,-0.57 1.13,-0.86 0.28,0 0.58,-0.28 0.85,-0.57 0.28,-0.28 0.85,-0.57 1.13,-0.57 l 0.85,-0.84 c 0.29,-0.29 0.57,-0.57 0.85,-0.86 0.58,-0.28 0.85,-0.55 1.14,-0.85 l 0.85,-0.84 c 0.29,-0.29 0.56,-0.58 0.85,-0.86 l 0.85,-0.84 c 0.29,-0.29 0.57,-0.57 0.85,-0.86 0.28,-0.28 0.57,-0.85 0.85,-1.12 0.28,-0.3 0.57,-0.57 0.85,-0.86 0.28,-0.29 0.57,-0.85 0.85,-1.14 0.28,-0.27 0.58,-0.56 0.85,-1.13 0.28,-0.28 0.58,-0.57 0.85,-0.85 0,-0.57 0.28,-0.84 0.58,-1.13 0.27,-0.57 0.55,-0.86 0.85,-1.14 0.27,-0.57 0.27,-0.84 0.56,-1.41 0.29,-0.29 0.56,-0.57 0.85,-1.14 0,-0.27 0.28,-0.85 0.56,-1.13 0.29,-0.57 0.57,-0.86 0.57,-1.41 0.28,-0.3 0.57,-0.86 0.85,-1.15 0,-0.56 0.29,-1.12 0.57,-1.41 0,-0.57 0.28,-0.85 0.57,-1.42 0,-0.57 0.28,-0.84 0.56,-1.42 0,-0.57 0.29,-0.85 0.57,-1.42 0,-0.56 0.28,-0.84 0.28,-1.41 0.29,-0.57 0.29,-1.14 0.57,-1.42 m -83.34,89.58 0,-7.38 c 0,-0.28 0,-0.55 -0.27,-0.85 l 0,-0.85 c 0,-0.28 0,-0.56 -0.3,-0.85 l 0,-0.84 c -0.28,-0.57 -0.28,-0.86 -0.28,-1.14 0,-0.27 -0.27,-0.57 -0.27,-0.84 0,-0.29 -0.3,-0.58 -0.3,-0.58 0,-0.28 -0.28,-0.57 -0.28,-0.85 0,-0.28 -0.27,-0.57 -0.27,-0.84 l -0.3,-0.86 -0.28,-0.85 c -0.29,0 -0.29,-0.27 -0.57,-0.57 l -0.28,-0.85 c -0.29,-0.28 -0.29,-0.28 -0.57,-0.55 l -0.28,-0.86 -0.57,-0.57 c 0,-0.28 -0.28,-0.57 -0.57,-0.57 l -0.27,-0.85 -0.58,-0.56 -0.56,-0.57 -0.56,-0.57 -0.58,-0.57 -0.56,-0.84 -0.56,-0.57 -0.86,-0.57 -0.57,-0.28 -0.57,-0.57 -0.56,-0.57 -0.85,-0.55 -0.57,-0.57 -0.85,-0.57 -0.56,-0.29 -0.85,-0.57 -0.85,-0.28 -0.57,-0.56 -0.86,-0.57 -0.85,-0.29 -0.56,-0.57 -0.84,-0.28 -0.85,-0.57 -0.85,-0.27 -0.85,-0.29 -0.85,-0.57 -0.58,-0.28 -0.85,-0.29 -0.85,-0.56 -0.85,-0.28 -0.85,-0.29 -0.85,-0.57 -0.85,-0.28 -0.85,-0.29 -0.85,-0.28 -0.86,-0.27 -1.13,-0.58 -0.85,-0.28 -0.85,-0.29 -0.85,-0.28 c -42.8,-16.16 -75.11,-29.75 -121.61,-16.16 -37.41,11.07 -69.73,33.17 -108,41.96 -1.98,0.56 -3.11,-0.86 -2.83,-2.55 l 0,-0.86 0.28,0 0,-0.28 0.29,0 0,-0.27 0.56,-0.58 c 0.29,-0.28 0.29,-0.57 0.57,-0.85 l 0.85,-0.57 0.58,-0.84 0.85,-0.57 0.55,-0.57 0.85,-0.85 0.57,-0.57 0.85,-0.57 0.85,-0.55 0.85,-0.57 0.57,-0.57 0.85,-0.57 0.85,-0.85 0.85,-0.57 0.85,-0.28 0.85,-0.57 0.85,-0.57 0.85,-0.57 0.85,-0.56 0.85,-0.57 1.14,-0.57 0.85,-0.27 0.85,-0.57 0.85,-0.57 0.85,-0.57 1.13,-0.27 0.85,-0.57 0.85,-0.58 1.15,-0.28 0.85,-0.57 0.84,-0.27 1.13,-0.57 0.85,-0.57 0.86,-0.29 1.13,-0.57 0.85,-0.28 0.85,-0.57 1.13,-0.28 0.85,-0.57 1.14,-0.28 0.85,-0.57 0.85,-0.27 1.14,-0.57 0.85,-0.29 0.85,-0.57 1.12,-0.28 0.86,-0.57 0.86,-0.28 1.12,-0.57 0.85,-0.28 0.85,-0.57 1.13,-0.57 0.85,-0.27 0.85,-0.58 0.86,-0.28 0.85,-0.57 0.85,-0.56 1.13,-0.28 0.85,-0.57 0.85,-0.29 0.85,-0.55 0.85,-0.57 0.85,-0.58 c 20.69,-12.19 42.8,-21.53 66.33,-27.21 32.61,-7.64 64.63,0 95.54,11.34 -38.28,-19.84 -75.4,-39.69 -117.07,-53.29 -8.23,-2.84 -16.17,-4.82 -24.39,-5.96 -8.22,0.29 -16.16,1.14 -24.09,2.27 0,1.14 0,2.27 -0.57,3.69 -22.11,59.52 -67.46,95.24 -110.54,136.63 79.93,4.25 137.48,-65.48 218.26,-64.07 56.7,0.85 96.37,52.16 82.77,103.47 1.98,-3.12 4.25,-6.24 6.23,-9.06 1.71,-2.84 3.41,-5.39 4.83,-7.95 1.69,-3.12 3.11,-5.94 4.54,-9.07 l 0.27,-0.28 0.29,-0.57 0,-0.57 0.29,-0.28 0.27,-0.57 0.29,-0.57 0,-0.28 0.29,-0.57 0.27,-0.56 0.29,-0.29 0,-0.56 0.29,-0.29 0.27,-0.56 0,-0.57 0.29,-0.57 0.29,-0.28 0,-0.57 0.27,-0.56 0.29,-0.29 0,-0.57 0.28,-0.56 0,-0.29 0.28,-0.56 0,-0.57 0.29,-0.28 0.28,-0.57 0,-0.57 0.28,-0.56 0,-0.29 0.29,-0.56 0,-0.56 0.28,-0.57 0,-0.29 0.28,-0.57 0,-0.57 0.29,-0.56 0,-0.28 0.28,-0.57 0,-1.14 0.3,-0.27 0,-0.57 0.27,-0.57 0,-1.13 0.28,-0.29 0,-0.57 0.3,-0.55 0,-1.14 0.27,-0.29 0,-1.7 0.28,-0.57 0,-1.42 0.3,-0.56 0,-1.7 0.27,-0.28 0,-0.57 z m -15.87,109.98 c 1.13,-10.21 1.42,-20.41 1.42,-30.89 -9.64,10.76 -19.85,20.98 -29.19,31.46 -1.71,4.54 -3.98,8.79 -6.24,13.32 -12.47,26.08 -28.07,50.74 -45.08,73.98 -16.73,22.97 -38.26,41.67 -45.07,69.74 -0.57,1.98 -0.85,3.68 -1.14,5.66 -0.56,3.69 -5.67,6.52 -8.78,5.11 -35.44,-13.88 -83.06,-1.99 -120.48,-2.54 l -3.68,0 0,2.54 -0.28,0.28 0,1.43 -0.29,0.27 0,1.14 -0.28,0.57 0,1.13 -0.28,0.57 0,0.84 -0.29,0.57 0,0.57 -0.28,0.86 0,0.55 -0.27,0.86 0,0.57 -0.3,0.84 -0.28,0.57 0,0.86 -0.28,0.84 -0.29,0.85 0,0.57 -0.28,0.85 -0.28,0.85 0,0.86 -0.29,0.57 -0.28,0.84 -0.28,0.85 0,0.85 -0.29,0.85 -0.28,0.86 -0.28,0.84 -0.29,0.57 0,0.84 -0.28,0.86 -0.29,0.85 -0.28,0.86 -0.28,0.55 -0.29,0.85 -0.28,0.85 0,0.86 -0.28,0.57 -0.29,0.84 -0.27,0.57 -0.29,0.86 -0.29,0.57 -0.27,0.84 -0.3,0.57 -0.28,0.56 -0.27,0.85 -0.3,0.57 -0.28,0.56 c 30.33,0 57.27,0.3 80.22,-5.67 44.22,-11.62 90.71,-18.99 135.5,-9.07 -6.24,-23.52 3.4,-50.73 14.17,-75.68 0.29,-1.12 0.85,-2.55 1.42,-3.69 0.85,-1.7 1.42,-3.4 2.27,-5.09 3.96,-9.07 7.93,-17.87 11.05,-25.52 10.21,-26.07 21.54,-53.01 24.1,-81.07 m -61.51,-52.73 0,0 0.28,-0.84 0.57,-1.14 0.56,-0.85 0.57,-0.85 0.28,-1.13 0.57,-0.85 0.57,-0.86 0.28,-1.13 0.28,-0.85 0.57,-0.84 0.28,-1.14 0.29,-0.85 0.56,-0.85 0.29,-1.14 0.29,-0.84 0.27,-1.14 0.29,-0.85 0.29,-0.85 0,-1.14 0.27,-0.85 0.29,-1.12 0.29,-0.86 0,-0.85 0.27,-1.14 0,-0.85 0.29,-1.12 0,-0.86 0.29,-1.12 0,-1.72 0.27,-1.12 0,-7.66 -0.27,-1.14 0,-1.7 -0.29,-1.13 0,-1.98 -0.29,-0.86 0,-0.85 -0.27,-1.13 0,-0.85 -0.29,-1.13 -0.29,-0.84 -0.27,-0.87 0,-1.13 -0.29,-0.84 -0.29,-0.86 -0.27,-1.12 -0.29,-0.86 -0.29,-0.85 -0.27,-1.13 -0.29,-0.86 -0.29,-0.85 -0.28,-0.85 -0.28,-1.12 -0.29,-0.86 c -1.98,-5.39 -4.53,-10.49 -7.65,-15.59 -25.8,-10.21 -56.41,-4.53 -82.49,1.7 -1.42,0.28 -3.12,0.56 -4.54,0.86 l 0.3,0.55 0,1.14 0.27,0.56 0,0.85 0.29,0.57 0,1.7 0.29,0.29 0,2.26 0.27,0.29 0,6.52 -0.27,0.28 0,2.56 -0.29,0.57 0,1.12 -0.29,0.58 0,0.84 -0.27,0.57 0,0.85 -0.3,0.56 0,0.85 -0.28,0.58 0,0.27 -0.27,0.57 0,0.57 -0.3,0.28 0,0.57 -0.28,0.29 0,0.56 -0.28,0.28 0,0.57 -0.29,0.57 -0.28,0.29 0,0.57 -0.28,0.27 0,0.57 -0.29,0.28 -0.28,0.85 -0.28,0.57 -0.28,0.57 -0.29,0.57 -0.28,0.84 -0.28,0.57 -0.29,0.57 -0.56,0.56 -0.29,0.57 -0.28,0.85 -0.28,0.57 -0.29,0.56 -0.56,0.57 -0.29,0.57 -0.29,0.57 -0.56,0.56 -0.29,0.85 -0.56,0.57 -0.29,0.57 -0.28,0.56 -0.57,0.57 -0.28,0.57 -0.57,0.56 -0.28,0.57 -0.57,0.57 -0.55,0.57 -0.3,0.56 -0.55,0.57 -0.3,0.57 -0.55,0.57 -0.58,0.57 -0.57,0.57 -0.28,0.55 -0.57,0.57 -0.57,0.58 -0.56,0.55 -0.29,0.57 -0.56,0.57 -0.56,0.57 -0.58,0.56 -0.56,0.29 -0.29,0.56 -0.56,0.58 -0.56,0.57 -0.58,0.55 -0.57,0.57 -0.56,0.57 -0.57,0.29 -0.56,0.56 -0.57,0.56 -0.57,0.58 -0.56,0.57 -0.57,0.27 -0.57,0.57 -0.56,0.57 -0.57,0.57 -0.57,0.28 -0.57,0.56 -0.57,0.57 -0.56,0.57 -0.57,0.29 -0.57,0.57 -0.55,0.55 -0.85,0.57 c 16.43,1.7 34.85,9.65 46.76,17.29 11.34,-1.13 22.11,0.29 33.16,6.52 7.09,3.69 13.89,8.79 19.28,14.75 l 0.28,-0.57 0.29,-0.57 0.28,-0.57 0.28,-0.28 0.29,-0.57 0.28,-0.57 0.29,-0.28 0.56,-0.57 0.29,-0.56 0.28,-0.57 0.28,-0.28 0.29,-0.57 0.56,-0.56 0.29,-0.29 0.28,-0.57 0.58,-0.28 0.27,-0.57 0.28,-0.57 0.57,-0.27 0.28,-0.58 0.29,-0.28 0.56,-0.57 0.29,-0.56 0.28,-0.28 0.57,-0.57 0.29,-0.29 0.56,-0.55 0.29,-0.57 0.27,-0.29 0.58,-0.57 0.27,-0.28 0.58,-0.56 0.27,-0.57 0.58,-0.29 0.28,-0.57 0.28,-0.28 0.57,-0.57 0.28,-0.57 0.57,-0.28 0.28,-0.57 0.57,-0.55 0.28,-0.3 0.28,-0.56 0.57,-0.57 0.28,-0.28 0.57,-0.57 0.28,-0.57 0.57,-0.28 0.28,-0.57 0.3,-0.57 0.55,-0.55 0.3,-0.3 0.27,-0.56 0.57,-0.57 0.28,-0.57 0.29,-0.56 0.56,-0.57 0.29,-0.28 0.28,-0.57 0.57,-0.57 0.28,-0.56 0.29,-0.57 0.28,-0.57 0.57,-0.57 z m -72.29,119.34 c 26.93,-7.65 49.32,-37.41 43.37,-64.06 -2.83,-12.46 -14.74,-21.83 -28.35,-28.05 22.11,29.18 8.52,62.93 -15.02,92.11 m -17.01,-11.61 c 17.58,-20.7 34.31,-51.32 13.61,-74.56 -6.52,-7.08 -15.03,-11.91 -24.1,-15.31 -5.38,-1.97 -10.77,-3.68 -16.15,-4.82 -12.75,-2.83 -23.81,3.69 -36.29,2.28 -0.85,0 -1.7,-0.29 -2.55,-0.86 l 0,0.29 c -5.95,3.96 -11.89,7.66 -17.86,11.62 14.18,9.07 42.25,3.11 57.27,8.79 7.09,2.84 12.18,7.66 15.58,13.6 8.79,5.4 14.74,13.9 11.92,27.78 -3.13,16.44 -26.37,49.89 -46.22,41.39 -0.85,-0.57 -0.56,-1.99 0.29,-2.27 13.32,-3.4 22.39,-15.59 27.49,-28.34 -8.5,7.09 -20.97,11.05 -29.47,14.73 -8.51,3.97 -31.74,21.27 -9.93,25.8 21.83,4.54 39.12,-16.44 55.56,-26.93 0.85,-0.85 1.99,0 2.28,1.13 l 0,0.57 c -0.29,1.7 -0.85,3.4 -1.43,5.11 m -10.77,-153.93 c 3.12,-7.64 3.97,-16.16 2.27,-25.8 -51.03,16.45 -98.65,56.41 -153.64,36 -6.24,5.96 -12.19,11.91 -18.13,18.16 -2,1.98 -3.98,4.25 -5.68,6.23 -7.37,10.48 -12.47,22.11 -15.58,33.72 -10.78,41.67 4.24,87.89 35.99,119.64 -8.49,-32.33 11.62,-78.82 32.03,-102.06 26.08,-30.05 105.45,-45.07 122.74,-85.89 m -15.02,115.65 0,0 c 0.28,-0.28 0.28,-0.28 0.28,-0.56 l 0.57,-0.57 c 0,0 0,-0.28 0.28,-0.57 l 0,-0.27 c 0.28,-0.29 0.28,-0.29 0.28,-0.57 0,-0.29 0.29,-0.29 0.29,-0.57 l 0,-0.29 c 0,-0.28 0.28,-0.57 0.28,-0.57 l 0,-3.11 c -0.28,-0.28 -0.28,-0.28 -0.28,-0.57 l 0,-0.28 -0.29,-0.57 -0.28,-0.28 0,-0.57 -0.28,-0.28 -0.28,-0.29 -0.29,-0.55 -0.28,-0.3 -0.28,-0.27 -0.29,-0.57 -0.28,-0.29 -0.28,-0.29 -0.57,-0.28 -0.28,-0.28 -0.29,-0.56 -0.56,-0.29 -0.29,-0.28 -0.56,-0.29 -0.29,-0.28 -0.57,-0.29 -0.28,-0.28 -0.57,-0.27 -0.57,-0.3 -0.28,-0.27 -0.57,-0.29 -0.55,-0.29 -0.3,-0.28 -0.55,0 -0.58,-0.28 -0.27,-0.29 -0.58,-0.27 -0.57,0 -0.28,-0.29 -0.57,-0.28 -0.56,-0.29 -0.29,0 -0.57,-0.28 -0.28,0 -0.57,-0.29 -0.27,0 -0.58,-0.28 -0.27,0 -0.58,-0.29 -0.85,0 -0.27,-0.28 -0.58,0 c -17.57,-4.25 -36.56,-5.95 -45.63,-20.13 -13.89,9.09 -26.37,19 -36.57,33.45 -3.4,4.82 -6.8,10.78 -9.92,17.3 -4.26,26.64 14.75,51.87 42.52,61.22 7.37,2.55 15.02,3.4 22.68,3.12 -0.29,0 -0.57,-0.27 -0.85,-0.27 -0.29,0 -0.85,-0.3 -1.14,-0.3 -0.28,-0.27 -0.57,-0.27 -0.85,-0.56 -0.28,0 -0.57,-0.28 -0.85,-0.28 -0.29,-0.29 -0.57,-0.57 -0.85,-0.57 -0.29,-0.29 -0.57,-0.29 -0.84,-0.57 -0.3,-0.27 -0.58,-0.27 -0.85,-0.57 -0.3,0 -0.58,-0.28 -0.85,-0.56 -0.3,0 -0.58,-0.29 -0.85,-0.57 -0.3,-0.27 -0.3,-0.27 -0.58,-0.57 -0.27,-0.27 -0.57,-0.27 -0.85,-0.56 0,-0.28 -0.28,-0.57 -0.57,-0.57 -0.28,-0.28 -0.28,-0.57 -0.56,-0.85 -0.29,-0.29 -0.29,-0.29 -0.57,-0.57 -0.28,-0.28 -0.28,-0.56 -0.56,-0.85 -0.29,-0.28 -0.29,-0.57 -0.58,-0.57 0,-0.28 -0.27,-0.55 -0.27,-0.85 -0.29,-0.27 -0.58,-0.56 -0.58,-0.84 0,-0.29 -0.27,-0.57 -0.27,-0.86 -0.29,-0.28 -0.29,-0.28 -0.58,-0.56 0,-0.28 -0.27,-0.57 -0.27,-0.85 0,-0.29 -0.29,-0.57 -0.29,-0.84 -0.29,-0.3 -0.29,-0.57 -0.29,-0.87 -0.27,-0.27 -0.27,-0.56 -0.27,-0.85 0,-0.28 -0.29,-0.56 -0.29,-0.85 0,-0.27 0,-0.56 -0.29,-0.84 l 0,-1.14 c -0.27,-0.27 -0.27,-0.57 -0.27,-0.84 l 0,-0.86 c 0,-0.28 0,-0.57 -0.29,-0.84 l 0,-4.82 0.29,-0.86 0,-1.98 0.27,-0.86 c 0,-0.28 0,-0.55 0.29,-0.85 l 0,-1.13 0.29,-0.85 0.27,-0.85 0.29,-1.12 c 0,-0.3 0.29,-0.57 0.29,-0.86 0.27,-0.29 0.27,-0.57 0.27,-0.86 l 0.58,-0.85 0.27,-1.13 c 0,-0.28 0.29,-0.57 0.29,-0.85 l 0.56,-0.85 0.29,-0.85 c 0.29,-0.27 0.57,-0.57 0.57,-0.84 l 0.56,-0.86 0.57,-0.85 c 0,-0.29 0.28,-0.57 0.57,-0.85 0,-0.28 0.28,-0.57 0.56,-0.85 0,-0.29 0.3,-0.57 0.57,-0.84 0,-0.3 0.28,-0.57 0.58,-0.86 l 0.55,-0.57 0.57,-0.85 c 0.28,-0.28 0.58,-0.56 0.58,-0.85 0.27,-0.28 0.55,-0.28 0.85,-0.57 0.27,-0.28 0.27,-0.55 0.55,-0.85 0.29,0 0.57,-0.27 0.85,-0.57 l 0.29,-0.27 0.57,-0.58 0.28,-0.28 0.57,-0.28 0.28,-0.29 0.57,-0.56 0.28,-0.28 0.57,-0.29 0.28,-0.28 0.57,-0.29 0.28,-0.28 0.57,-0.27 0.57,-0.3 0.28,-0.27 0.57,-0.29 0.56,-0.29 0.29,-0.28 0.56,-0.28 0.57,-0.29 0.28,-0.27 0.58,-0.29 0.56,-0.28 0.56,-0.29 0.29,-0.28 0.56,-0.29 0.58,-0.28 0.27,0 0.58,-0.29 0.56,-0.28 0.56,-0.27 0.57,-0.29 0.29,0 0.56,-0.29 0.57,-0.28 0.58,-0.29 0.55,0 0.3,-0.28 0.55,-0.27 0.57,-0.3 0.58,0 0.55,-0.27 0.57,-0.29 0.28,0 0.57,-0.28 0.57,-0.29 0.57,0 0.56,-0.28 0.57,-0.29 0.29,0 0.56,-0.28 0.57,-0.27 0.57,0 0.56,-0.3 0.57,-0.28 0.28,0 0.57,-0.28 0.56,-0.29 0.57,0 0.57,-0.28 0.28,-0.29 0.58,0 0.56,-0.28 0.56,0 0.29,-0.27 0.29,0 0.27,-0.3 0.58,0 0.27,-0.27 0.29,0 0.29,-0.29 0.56,0 0.29,-0.29 0.56,0 0.28,-0.28 0.57,0 0.28,-0.28 0.57,0 0.28,-0.29 0.3,0 0.27,-0.28 0.58,0 0.27,-0.28 0.28,0 0.3,-0.28 0.27,0 0.28,-0.29 0.57,0 0.28,-0.28 0.3,0 0.27,-0.29 0.28,0 0.29,-0.28 0.28,0 0.28,-0.27 0.29,0 0.28,-0.3 0.28,-0.27 0.29,-0.29 0.28,0 0.29,-0.29 0.28,0 0.29,-0.28 0.28,-0.29 0.28,-0.28 0.29,-0.28 0.28,0 0.28,-0.29 0,-0.27 0.29,0 0.28,-0.29 0.28,-0.28 0.29,-0.29 0.28,-0.28 0.28,-0.29 0,-0.28 0.29,0 0.28,-0.27 0,-0.3 z m -36.29,94.4 c -0.56,0 -1.12,0 -1.7,0.29 l 1.7,-0.29 z m -31.18,-297.35 0,0 0.57,-0.57 0.57,-0.57 0.28,-0.85 0.57,-0.57 0.28,-0.57 0.57,-0.55 0.28,-0.86 0.57,-0.57 0.57,-0.57 0.28,-0.84 0.57,-0.57 0.28,-0.57 0.57,-0.57 0.28,-0.85 0.57,-0.57 0.28,-0.55 0.57,-0.86 0.29,-0.57 0.56,-0.57 0.29,-0.85 0.56,-0.56 0.29,-0.57 0.27,-0.84 0.58,-0.57 0.27,-0.57 0.58,-0.86 0.27,-0.56 0.58,-0.57 0.28,-0.85 0.56,-0.57 0.29,-0.56 0.28,-0.85 0.57,-0.57 0.28,-0.56 0.58,-0.86 0.27,-0.55 0.58,-0.87 0.27,-0.56 0.28,-0.57 0.57,-0.84 0.28,-0.57 0.57,-0.57 0.28,-0.84 0.3,-0.57 0.55,-0.86 0.29,-0.57 0.56,-0.57 0.29,-0.84 0.28,-0.57 0.57,-0.57 0.28,-0.85 0.57,-0.57 0.29,-0.85 0.28,-0.56 0.57,-0.57 0.28,-0.85 0.57,-0.56 0.28,-0.57 0.28,-0.86 0.57,-0.55 0.28,-0.57 0.57,-0.86 0.28,-0.57 0.57,-0.84 c -18.14,4.25 -35.71,10.48 -52.43,19 -9.37,4.8 -18.71,10.19 -27.79,16.14 -4.24,3.13 -8.79,5.97 -13.03,9.07 -1.7,1.15 -3.41,2.56 -5.11,3.7 -31.19,22.95 -60.67,47.61 -96.671,63.48 -14.168,5.97 -27.77,9.08 -40.528,9.64 0,0.85 0.278,1.7 0.278,2.56 -0.278,12.18 -7.649,24.09 -10.77,35.71 -4.527,17.01 -6.801,34.31 -7.937,51.88 1.699,-4.54 3.968,-8.5 7.09,-12.18 7.367,-9.37 17.859,-16.16 27.5,-22.69 20.117,-14.18 36.278,-26.36 51.018,-45.92 17.01,-22.39 35.72,-42.23 59.81,-56.41 l 1.42,-0.85 1.13,-0.56 1.15,-0.57 1.12,-0.57 1.42,-0.84 1.14,-0.57 1.13,-0.58 1.42,-0.57 1.13,-0.55 1.13,-0.57 1.43,-0.57 1.12,-0.57 1.43,-0.57 1.12,-0.57 1.14,-0.56 1.41,-0.57 1.14,-0.57 1.42,-0.27 1.13,-0.57 1.42,-0.57 1.13,-0.57 1.42,-0.29 1.14,-0.56 1.41,-0.57 1.42,-0.28 1.13,-0.57 1.42,-0.27 1.13,-0.57 1.43,-0.29 1.12,-0.57 1.42,-0.57 1.42,-0.28 1.13,-0.56 1.42,-0.29 1.43,-0.57 1.12,-0.28 1.42,-0.57 1.13,-0.27 1.42,-0.57 1.41,-0.29 1.14,-0.57 1.42,-0.28 1.41,-0.56 1.15,-0.29 1.4,-0.57 1.15,-0.28 1.41,-0.57 1.41,-0.27 1.14,-0.57 1.42,-0.29 1.13,-0.57 1.42,-0.28 1.41,-0.56 1.14,-0.57 1.41,-0.29 1.14,-0.57 1.42,-0.57 1.13,-0.28 1.42,-0.56 1.13,-0.57 1.43,-0.57 1.12,-0.27 1.42,-0.57 1.13,-0.57 z m -17,20.41 c -28.07,16.43 -58.12,29.76 -82.21,52.43 -17.57,16.73 -29.47,38 -47.06,54.43 -17.57,17.01 -48.471,23.53 -61.791,44.23 -20.41,31.45 -7.937,88.16 1.422,121.32 14.449,51.87 72.279,95.52 121.599,59.25 0.85,-0.3 1.7,-0.57 2.27,-0.57 l 0.85,0 c 2.27,0.57 3.97,4.52 2,7.09 -35.16,43.64 -87.602,17 -117.942,-17.31 -16.718,-19.27 -26.636,-44.21 -31.738,-70.01 -13.039,-25.51 -15.879,-60.66 -17.859,-86.74 -1.7,-26.08 -3.692,-84.19 17.57,-107.43 -9.07,-1.42 -17.859,-4.26 -26.359,-8.23 -7.09,13.89 -18.711,24.38 -27.5,37.14 -10.774,15.02 -14.743,37.13 -19.551,54.72 -7.66,26.93 -7.66,53.28 -2.84,79.07 0.277,1.7 0.57,3.41 1.129,5.11 0.289,1.7 0.57,2.84 0.859,4.25 2.832,12.48 6.512,24.94 11.051,37.14 12.191,34.29 30.328,65.47 38.828,100.91 0.57,0.86 0.57,1.98 0.863,3.11 0.278,0.57 0.278,1.43 0.559,2 0.289,1.69 0.57,3.68 1.141,5.37 2.55,14.74 2.828,30.9 1.129,46.49 36,7.37 71.718,7.94 109.98,0.3 22.68,-4.55 44.8,-12.48 64.63,-24.68 8.52,-5.1 15.03,-10.48 20.13,-16.44 0.57,-0.56 0.85,-1.13 1.42,-1.7 0.56,-0.84 1.14,-1.41 1.7,-1.98 9.08,-12.76 15.32,-33.17 17.01,-48.76 -16.16,-1.12 -28.34,-3.4 -43.94,-7.94 0,0 -0.27,-0.28 -0.57,-0.28 -15.02,-4.25 -29.48,-10.49 -43.37,-18.7 -23.24,-13.61 -37.42,-39.68 -42.52,-67.47 -3.119,27.49 2,55.84 19.84,84.2 0.29,0.55 0,0.84 -0.56,0.84 0,0.28 -0.29,0 -0.56,0 -52.73,-53.29 -31.19,-131.53 4.24,-188.5 22.68,-36.29 52.73,-68.32 85.04,-96.09 14.18,-12.2 28.07,-23.25 41.11,-36.57 m -251.721,372.46 c -1.988,-8.5 -4.539,-17 -7.367,-25.78 -11.34,-32.61 -28.063,-62.36 -39.121,-94.97 -13.321,22.39 -31.75,41.67 -53.289,52.72 9.636,15.89 20.41,30.62 33.16,44.23 9.07,9.35 22.109,28.34 35.718,28.34 11.059,0 21.258,-1.41 30.899,-4.54 m -16.731,-345.26 c -20.41,-14.45 -25.507,-24.36 -38.546,-47.9 -11.34,14.18 -22.114,28.91 -31.18,45.07 -7.371,13.61 -13.602,28.36 -18.992,43.38 -0.571,29.48 6.242,59.23 18.711,84.18 8.789,17.57 7.078,11.05 17.007,26.36 -4.539,-33.72 14.172,-115.94 53,-151.09 m 321.752,249.17 0,0 c -0.85,0 -1.71,0.29 -2.57,0.29 -0.85,0 -1.7,0.28 -2.55,0.28 -0.56,0 -1.12,0 -1.7,0.29 l -14.17,0 -0.85,-0.29 -2.84,0 -0.85,-0.28 -0.85,0 -0.85,-0.29 -1.7,0 -0.85,-0.28 -0.85,0 -1.13,-0.29 -0.85,-0.28 -0.85,0 -0.85,-0.27 -0.85,0 -0.85,-0.3 -0.85,-0.27 -0.85,-0.29 -0.86,0 -0.85,-0.29 -0.85,-0.28 -1.13,-0.28 -0.85,-0.29 -0.85,-0.27 -0.85,-0.29 -0.85,-0.28 -0.85,-0.29 -0.85,-0.28 -0.85,-0.29 -0.85,-0.28 -0.85,-0.29 -0.85,-0.55 -0.85,-0.3 -0.85,-0.28 -0.84,-0.28 -0.86,-0.57 -0.85,-0.27 -0.85,-0.3 -0.85,-0.56 -0.86,-0.28 -0.85,-0.29 -0.56,-0.57 -0.85,-0.28 -0.56,-0.56 -0.85,-0.29 -0.85,-0.57 -0.58,-0.28 -0.85,-0.57 -0.57,-0.27 -0.85,-0.57 -0.56,-0.29 -0.57,-0.57 -0.85,-0.28 -0.56,-0.56 -0.58,-0.57 -0.85,-0.29 -0.56,-0.57 -0.56,-0.55 -0.58,-0.57 -0.56,-0.29 -0.57,-0.57 -0.85,-0.57 -0.57,-0.57 -0.55,-0.56 -0.58,-0.57 -0.57,-0.28 -0.56,-0.57 -0.57,-0.57 -0.28,-0.56 -0.57,-0.57 -0.57,-0.57 -0.57,-0.56 -0.56,-0.57 -0.29,-0.57 -0.56,-0.57 -0.57,-0.56 -0.57,-0.57 -0.27,-0.57 -0.58,-0.85 -0.27,-0.56 -0.58,-0.57 -0.27,-0.57 -0.58,-0.56 -0.27,-0.57 -0.58,-0.85 -0.27,-0.57 -0.58,-0.57 -0.28,-0.56 -0.29,-0.57 -0.56,-0.84 -0.29,-0.57 -0.28,-0.57 -0.28,-0.84 -0.28,-0.57 -0.29,-0.58 -0.56,-0.56 -0.29,-0.85 -0.28,-0.57 -0.28,-0.57 -0.29,-0.85 -0.28,-0.56 -0.28,-0.86 -0.29,-0.55 c -1.41,16.71 1.42,32.87 12.47,43.64 15.32,6.52 32.6,8.79 49.32,8.22 l 1.14,0 0.56,-0.27 2.56,0 0.28,-0.3 1.98,0 0.57,-0.27 0.85,0 0.58,-0.29 0.85,0 0.55,-0.28 0.85,0 0.29,-0.29 0.85,0 0.57,-0.28 0.28,0 0.57,-0.29 0.85,0 0.28,-0.28 0.57,0 0.28,-0.28 0.57,0 0.28,-0.28 0.57,0 0.28,-0.29 0.57,0 0.28,-0.28 0.85,-0.29 0.29,-0.28 0.56,0 0.29,-0.27 0.29,0 0.56,-0.3 0.29,-0.27 0.27,0 0.58,-0.3 0.27,0 0.29,-0.27 0.56,-0.29 0.29,0 0.29,-0.29 c 0.84,-0.56 1.69,-0.85 2.54,-1.41 l 0.57,-0.28 0.58,-0.29 z m -31.19,26.36 -11.34,0 -1.42,-0.28 -1.13,0 -1.42,-0.27 -1.14,0 -1.41,-0.29 -1.14,0 -1.41,-0.29 -1.14,0 -1.41,-0.28 -1.14,-0.29 -1.42,-0.28 -1.13,-0.29 -1.42,-0.28 -1.12,0 -1.15,-0.27 -1.4,-0.57 -1.15,-0.29 -1.41,-0.29 -1.13,-0.28 -1.14,-0.28 -1.41,-0.29 -1.14,-0.56 -1.14,-0.28 -1.4,-0.57 -1.15,-0.29 -1.13,-0.28 -1.42,-0.57 -1.13,-0.56 -1.14,-0.29 -1.12,-0.57 -1.14,-0.56 -1.41,-0.29 -1.15,-0.56 -1.13,-0.57 -1.13,-0.57 -1.13,-0.55 -1.14,-0.3 -1.14,-0.56 -1.12,-0.57 -1.14,-0.57 -1.14,-0.84 -1.13,-0.57 -1.12,-0.57 -1.15,-0.57 -1.13,-0.56 -1.14,-0.57 -0.85,-0.84 -1.12,-0.57 -1.14,-0.57 -1.14,-0.86 -0.85,-0.56 -1.12,-0.85 -0.86,-0.57 -1.14,-0.57 -1.13,-0.84 c -28.63,-20.99 -49.61,-55.57 -53.58,-91 -2.26,-20.41 -0.28,-38.55 6.24,-55.27 -18.42,24.09 -34.01,50.45 -42.24,78.23 0.57,8.22 1.99,16.72 4.26,24.66 0.85,2.84 1.7,5.39 2.55,7.95 12.47,34.85 44.5,50.16 77.67,59.8 26.93,7.95 54.42,7.65 81.92,6.52 34.01,-1.14 68.04,-3.39 100.92,7.94 8.21,-37.14 37.14,-69.44 57.82,-100.92 0.57,-0.56 1.13,-1.41 1.42,-1.98 l 0,-0.29 0.28,0 0,-0.28 0.28,0 0,-0.56 0.29,0 0,-0.29 0.28,0 0,-0.57 0.28,0 0,-0.28 0.29,-0.27 0,-0.3 0.29,0 0,-0.56 0.27,0 0,-0.28 0.29,0 0,-0.29 1.14,-1.98 1.41,-1.98 1.14,-1.99 1.13,-1.99 1.41,-1.97 1.15,-2 1.12,-1.98 1.13,-1.98 1.42,-2.27 1.14,-1.99 1.13,-1.98 1.14,-2.27 1.41,-1.98 1.14,-1.99 1.13,-2.26 1.13,-1.99 1.14,-2.27 1.14,-1.98 1.12,-2.27 1.14,-1.98 1.13,-2.27 1.14,-2.27 0.86,-1.98 1.12,-2.27 1.13,-2.27 0.85,-2.27 1.15,-2.26 c 0.27,-0.57 0.55,-1.42 0.84,-1.99 l 1.13,-2.27 0.85,-2.26 c 0.29,-0.84 0.57,-1.42 0.86,-2.27 0.28,-0.84 0.56,-1.41 0.85,-2.27 l 0.85,-2.27 0.85,-2.26 c 0.28,-0.85 0.56,-1.42 0.85,-2.27 0.28,-0.57 0.56,-1.41 0.85,-2.27 0.28,-0.84 0.56,-1.41 0.85,-2.27 0,-0.85 0.28,-1.41 0.56,-2.26 0.29,-0.86 0.58,-1.42 0.85,-2.27 0,-0.84 0.29,-1.42 0.58,-2.27 0.27,-0.84 0.56,-1.41 0.56,-2.27 0.29,-0.85 0.56,-1.7 0.85,-2.27 0,-0.85 0.29,-1.7 0.56,-2.26 0,-0.85 0.29,-1.7 0.58,-2.54 0,-0.57 0.27,-1.43 0.27,-2.28 0.29,-0.56 0.29,-1.42 0.57,-2.27 0.28,-0.85 0.28,-1.42 0.57,-2.27 0,-0.84 0.28,-1.7 0.28,-2.27 0.29,-0.84 0.29,-1.7 0.29,-2.55 0.28,-0.56 0.28,-1.41 0.56,-2.26 0,-0.85 0,-1.42 0.3,-2.26 0,-0.86 0,-1.71 0.27,-2.27 l 0,-2.55 c 0.28,-0.58 0.28,-1.43 0.28,-2.27 l 0,-2.28 c 0.3,-0.85 0.3,-1.7 0.3,-2.26 l 0,-7.09 c 0,-0.85 0,-1.69 -0.3,-2.55 l 0,-2.27 c 0,-0.85 0,-1.42 -0.28,-2.27 l 0,-2.26 c -0.27,-0.86 -0.27,-1.7 -0.27,-2.56 -3.69,-6.8 -8.23,-13.03 -13.9,-18.42 4.82,8.5 6.8,18.99 7.08,32.6 0.29,13.89 -3.96,27.21 -9.92,39.68 -7.36,15.03 -27.49,21.84 -29.76,39.12 0.85,2.84 1.41,5.67 1.7,8.79 1.42,14.18 -3.11,28.63 -11.06,40.25 -0.56,0.86 -0.85,1.43 -1.41,1.98 -12.76,17.31 -33.17,28.92 -53.86,26.65 -9.07,10.21 -20.12,18.71 -32.03,24.94 -3.97,18.43 -34.29,32.04 -48.47,35.72 -5.96,1.42 -12.47,2.27 -18.71,2.55 m -278.081,-689.094 0,0 1.41,2.269 1.141,2.27 1.41,2.551 1.14,2.258 1.418,2.558 1.133,2.262 1.129,2.551 1.141,2.269 1.129,2.27 1.14,2.551 1.129,2.269 1.129,2.27 1.141,2.55 0.851,2.27 1.129,2.551 1.129,2.258 0.863,2.273 c 0.278,0.848 0.559,1.699 1.129,2.547 l 0.852,2.269 0.848,2.551 0.851,2.27 0.848,2.55 0.851,2.262 0.852,2.559 c 0.277,0.57 0.566,1.422 0.848,2.269 0.289,0.852 0.57,1.7 0.851,2.551 0.289,0.559 0.57,1.41 0.57,2.27 0.278,0.851 0.571,1.699 0.848,2.55 l 0.57,2.27 c 0.282,0.851 0.563,1.699 0.852,2.551 0,0.847 0.277,1.41 0.559,2.258 0.289,0.851 0.289,1.71 0.57,2.562 0.281,0.848 0.281,1.699 0.57,2.258 0.281,0.851 0.281,1.699 0.559,2.551 0.293,0.851 0.293,1.699 0.57,2.55 0,0.86 0.289,1.711 0.57,2.27 0,0.851 0.282,1.699 0.282,2.551 0.289,0.847 0.289,1.711 0.57,2.558 0,0.852 0.277,1.7 0.277,2.551 0.293,0.852 0.293,1.41 0.293,2.262 0.278,0.847 0.278,1.707 0.559,2.558 0,0.852 0,1.7 0.289,2.551 0,0.848 0,1.699 0.281,2.551 l 0,2.547 c 0.281,0.851 0.281,1.699 0.281,2.551 0,0.851 0.289,1.691 0.289,2.539 l 0,2.562 c 0,0.848 0.282,1.699 0.282,2.551 l 0,10.207 c 0,0.852 0,1.977 -0.282,2.837 l 0,2.55 c 0,0.84 0,1.7 -0.289,2.55 l 0,2.83 c 0,0.85 -0.281,1.71 -0.281,2.55 0,0.85 -0.281,1.7 -0.281,2.55 0,1.14 -0.289,1.99 -0.289,2.84 -0.281,0.86 -0.281,1.7 -0.281,2.55 -0.278,1.13 -0.278,1.99 -0.571,2.83 0,0.85 -0.277,2 -0.277,2.84 -0.281,0.85 -0.281,1.71 -0.57,2.55 -0.282,1.13 -0.282,1.98 -0.563,2.84 -10.207,52.43 -45.637,103.46 -88.449,134.36 -24.09,17.3 -42.801,33.16 -54.988,60.94 -14.172,32.04 -24.379,65.2 -45.071,93.83 -13.039,17.87 -30.898,32.31 -50.738,40.53 -1.422,0.57 -2.832,1.43 -4.254,1.7 -1.418,0.57 -2.84,1.14 -4.539,1.71 -1.98,0.56 -4.527,1.41 -6.801,1.98 -1.699,0.29 -3.398,0.86 -5.386,1.13 19.847,49.89 -3.68,112.82 35.437,157.61 20.121,22.96 49.32,29.76 77.949,24.94 1.422,0 3.121,-0.28 4.821,-0.85 1.421,-0.28 2.832,-0.56 4.25,-0.85 l 0.281,0 c 23.82,-5.94 41.39,-21.82 54.711,-41.37 0.847,-1.14 1.699,-2.56 2.551,-3.98 -8.782,-13.89 -18.141,-27.77 -28.063,-41.66 -15.867,-22.11 -30.328,-45.36 -37.418,-71.73 -1.133,-4.25 -1.98,-8.5 -2.551,-12.75 -1.129,5.1 -3.121,10.21 -3.121,15.59 -1.41,77.39 -0.847,68.6 10.492,123.03 -1.703,-2.84 -40.82,-70.88 -13.043,-179.73 4.543,-17.57 10.211,-34.86 17.582,-51.3 6.52,-14.45 14.168,-28.06 22.68,-41.38 5.672,-8.8 12.18,-17.02 18.988,-24.95 0.563,-0.57 1.133,-1.14 1.704,-1.98 0.57,-0.57 1.418,-1.41 1.976,-2.28 17.293,-19.54 36.57,-37.7 52.16,-58.67 48.762,-66.89 73.703,-147.4 44.223,-227.347 -7.652,-20.969 -18.711,-40.82 -30.332,-60.649 -0.277,-0.289 -0.57,-0.851 -0.848,-1.429 l -1.133,-1.692 -1.136,-1.699 -0.852,-1.699 -1.129,-1.699 -0.851,-1.703 -1.141,-1.989 -0.848,-1.699 -1.132,-1.699 -1.129,-1.703 -0.86,-1.7 -1.129,-1.699 -0.851,-1.699 -1.129,-1.699 -0.852,-1.703 -1.14,-1.7 -0.848,-1.988 -1.133,-1.699 -0.847,-1.703 -1.141,-1.699 -0.852,-1.711 -0.847,-1.688 -1.129,-1.699 -0.852,-1.992 -0.851,-1.711 -0.848,-1.688 -0.851,-1.703 -1.141,-1.699 -0.848,-2 -0.851,-1.688 -0.852,-1.703 -0.848,-1.699 -0.851,-1.988 -0.848,-1.692 -0.851,-1.699 -0.571,-2 -0.847,-1.699 -0.852,-1.691 -0.558,-1.981 -0.852,-1.699 -0.852,-1.719 -0.57,-1.972 -0.566,-1.7 -0.852,-1.98 -0.57,-1.707 -0.559,-1.981 -0.57,-1.703 -0.852,-1.976 -0.57,-1.711 -0.559,-1.981 -0.289,-1.98 -0.562,-1.711 -0.57,-1.981 c 0,-0.566 -0.278,-1.129 -0.571,-1.699 0,-0.848 -0.277,-1.418 -0.277,-1.98 -0.281,-0.578 -0.281,-1.43 -0.57,-1.989 l -0.282,-1.98 -0.289,-1.699 -0.281,-2 c -0.277,-0.551 -0.277,-1.41 -0.57,-1.969 0,-0.57 0,-1.422 -0.278,-1.992 0,-0.559 0,-1.129 -0.281,-1.981 l 0,-1.988 c -0.289,-0.562 -0.289,-1.133 -0.289,-1.699 0,-0.852 -0.281,-1.41 -0.281,-1.981 l -0.852,0 -1.129,0.278 -0.847,0.293 -1.141,0 -0.851,0.277 -0.848,0.281 -1.133,0.289 -0.848,0 -1.14,0.282 -0.852,0.281 -0.847,0.289 -1.133,0.277 -0.848,0 -1.141,0.281 -0.851,0.29 -0.848,0.281 -1.133,0.281 -0.847,0 -0.852,0.289 -1.129,0.281 -0.859,0.278 -1.133,0.293 -0.848,0 -0.851,0.277 -1.129,0.281 -0.852,0.289 -0.847,0.282 -1.141,0.289 -0.851,0.281 -0.848,0.277 -0.852,0 -1.129,0.293 -0.851,0.278 -0.848,0.281 -1.14,0.289 -0.852,0.281 -0.848,0.281 -0.851,0.289 -1.129,0.282 -0.852,0.277 -0.847,0.293 -1.141,0.277 -0.851,0.282 -0.848,0.289 -0.852,0.269 -1.129,0.301 -0.851,0.281 -0.852,0.27 -0.847,0.3 -0.852,0.278 -1.141,0.269 -0.847,0.301 -0.852,0.281 -0.847,0.282 -0.852,0.289 -1.129,0.281 -0.851,0.277 -0.848,0.289 -0.852,0.282 -0.859,0.281 -1.133,0.289 -0.848,0.281 -0.851,0.57 -0.848,0.278 c -1.133,0.57 -2.551,1.14 -3.972,1.41 -40.821,15.02 -77.379,37.43 -109.7,71.16 -5.949,6.231 -11.339,12.473 -16.437,18.992 -34.024,42.789 -54.711,95.528 -64.633,149.095 -13.039,70.02 -2.269,138.34 31.461,200.98 25.23,46.77 52.73,88.16 56.98,137.48 2.84,-1.7 5.668,-3.69 8.5,-5.95 26.649,-20.41 42.809,-49.33 55,-79.66 17,-41.94 30.04,-75.4 66.61,-103.46 42.801,-33.16 72.851,-71.72 89.582,-123.88 16.719,-52.718 0.848,-109.405 -14.461,-160.155 0,-0.559 0.277,-1.129 0.848,-1.129 0.281,0 0.57,0.277 0.57,0.57 m 736.441,294.794 -0.57,-0.56 -0.28,-0.28 -0.29,-0.57 -0.55,-0.57 -0.3,-0.27 -0.28,-0.58 -0.57,-0.57 -0.28,-0.28 -0.27,-0.57 -0.58,-0.57 -0.27,-0.27 -0.58,-0.58 -0.29,-0.56 -0.28,-0.29 -0.57,-0.56 -0.28,-0.57 -0.28,-0.28 -0.57,-0.57 -0.28,-0.27 -0.57,-0.57 -0.28,-0.58 -0.56,-0.28 -0.29,-0.57 -0.29,-0.27 -0.56,-0.57 -0.29,-0.57 -0.56,-0.29 -0.29,-0.57 -0.27,-0.55 -0.58,-0.3 -0.27,-0.56 -0.58,-0.29 -0.28,-0.55 -0.29,-0.57 -0.56,-0.29 -0.29,-0.57 -0.56,-0.28 -0.28,-0.57 -0.57,-0.57 -0.28,-0.28 -0.29,-0.57 -0.56,-0.57 -0.29,-0.28 -0.56,-0.57 -0.29,-0.27 -0.28,-0.57 -0.57,-0.57 -0.29,-0.29 -0.27,-0.56 -0.58,-0.57 -0.28,-0.28 -0.57,-0.57 -0.28,-0.57 -0.28,-0.27 -0.57,-0.57 -0.27,-0.58 -0.3,-0.28 -0.55,-0.57 -0.3,-0.56 -0.28,-0.28 -0.57,-0.57 -0.28,-0.57 -0.27,-0.57 -0.3,-0.27 c -12.75,-17.29 -22.11,-36.86 -32.03,-55.57 -18.14,-34.58 -33.73,-66.9 -73.13,-80.22 -30.05,-10.485 -60.66,-22.957 -87.59,-40.246 l -1.42,-1.141 -1.42,-0.848 -1.42,-0.851 -1.4,-1.129 -1.43,-0.852 -1.42,-0.847 -1.41,-1.141 -1.42,-1.133 -1.14,-0.847 -1.41,-1.129 -1.41,-0.852 -1.14,-1.14 -1.42,-1.141 -1.13,-0.84 -1.42,-1.14 -1.13,-1.129 -1.42,-1.129 -1.14,-1.153 -1.13,-0.847 -1.42,-1.121 -1.12,-1.141 -1.15,-1.129 -1.4,-1.129 -1.15,-1.14 -1.13,-1.129 -1.14,-1.141 -1.12,-1.133 -1.14,-1.129 -1.42,-1.14 -1.13,-1.129 -1.14,-1.129 -1.13,-1.43 -1.13,-1.133 -1.14,-1.129 -1.13,-1.128 -1.14,-1.141 -1.12,-1.41 -1.15,-1.141 -1.13,-1.129 -1.12,-1.14 -1.15,-1.411 -1.13,-1.14 -0.85,-1.129 -1.14,-1.129 -1.12,-1.422 -1.14,-1.14 -1.14,-1.129 -1.13,-1.418 -1.13,-1.141 -1.14,-1.121 -1.13,-1.422 -1.13,-1.137 -1.14,-1.132 -1.13,-1.43 -1.14,-1.117 -1.12,-1.133 -1.15,-1.418 -1.13,-1.141 -1.12,-1.129 -1.15,-1.422 -1.13,-1.128 -1.13,-1.129 -1.13,-1.422 -1.14,-1.141 c -0.29,-0.277 -0.85,-0.848 -1.14,-1.14 -0.27,-0.559 -0.85,-0.848 -1.13,-1.118 -0.57,-0.57 -0.85,-0.851 -1.13,-1.14 -0.57,-0.563 -0.85,-0.852 -1.42,-1.129 -0.27,-0.281 -0.57,-0.852 -1.13,-1.141 -0.29,-0.281 -0.85,-0.562 -1.14,-1.133 -0.56,-0.277 -0.85,-0.578 -1.13,-0.847 -0.57,-0.282 -0.85,-0.582 -1.42,-1.129 -0.28,-0.301 -0.85,-0.571 -1.13,-0.852 -0.56,-0.289 -0.85,-0.57 -1.41,-0.851 -0.3,-0.289 -0.85,-0.571 -1.15,-1.141 -0.55,-0.277 -0.85,-0.566 -1.4,-0.848 -0.58,-0.281 -0.86,-0.57 -1.43,-0.851 -0.28,-0.278 -0.85,-0.57 -1.13,-0.848 -0.57,-0.281 -0.85,-0.281 -1.42,-0.57 -0.56,-0.281 -0.85,-0.57 -1.41,-0.852 l -1.43,-0.847 c -0.27,-0.282 -0.85,-0.563 -1.13,-0.852 l -1.42,-0.559 -1.4,-0.57 c -0.58,-0.281 -0.85,-0.57 -1.43,-0.851 l -1.42,-0.571 c -0.56,-0.277 -0.85,-0.57 -1.42,-0.57 -0.56,-0.277 -1.13,-0.559 -1.41,-0.559 l -1.41,-0.851 -1.43,-0.578 -1.7,-0.27 -1.42,-0.582 -1.41,-0.558 -1.42,-0.559 -1.41,-0.293 -1.71,-0.559 -1.42,-0.57 -1.4,-0.281 -1.7,-0.289 -1.43,-0.571 -1.42,-0.281 -1.7,-0.277 -1.42,-0.289 -1.7,-0.563 -1.42,-0.3 -1.7,-0.27 -1.41,-0.277 -1.42,-0.301 -1.7,0 -1.7,-0.27 -1.42,-0.281 -1.7,-0.289 -1.42,0 -1.7,-0.281 -1.42,-0.281 -1.7,0 -1.41,-0.29 -1.71,0 -1.41,-0.281 -1.7,0 -1.7,-0.277 -3.12,0 -1.42,-0.289 -4.82,0 -1.42,-0.281 c -37.98,-1.129 -75.11,0.57 -112.53,-4.821 -32.88,-5.101 -65.2,-11.922 -97.51,-19 33.16,16.168 65.76,33.168 99.21,48.75 51.59,23.821 98.08,51.891 142.3,87.039 21.55,17.012 41.11,35.997 58.68,56.687 4.82,5.67 90.42,78.81 141.17,79.65 3.68,0.29 -11.91,3.98 -15.87,3.69 -41.68,-2.26 -66.91,-21.26 -95.54,-32.03 0.58,1.13 1.43,2.27 1.98,3.41 1.15,1.41 5.11,8.5 5.11,9.91 26.93,3.97 47.05,15.87 66.04,34.59 8.79,9.07 17.02,17.57 27.5,24.66 12.19,8.21 22.39,6.23 32.6,2.27 l 5.38,-1.99 c 1.15,2.27 2.27,4.25 3.69,6.52 0.85,1.98 1.99,3.97 3.12,5.95 14.75,28.63 25.23,55.28 10.2,84.77 15.59,11.32 24.96,34.85 30.9,58.39 2.27,-1.43 4.54,-3.13 6.8,-5.11 15.6,-13.33 22.96,-42.24 30.33,-60.66 l 0.57,-1.14 0.57,-1.41 0.28,-1.14 0.57,-1.13 0.56,-1.41 0.57,-1.14 0.57,-1.14 0.57,-1.42 0.57,-1.12 0.28,-1.14 0.57,-1.42 0.56,-1.13 0.57,-1.13 0.57,-1.14 0.56,-1.42 0.57,-1.12 0.56,-1.14 0.57,-1.14 0.57,-1.13 0.57,-1.41 0.56,-1.15 0.58,-1.12 0.56,-1.14 0.85,-1.14 0.56,-1.13 0.58,-1.14 0.56,-1.13 0.56,-1.41 0.85,-1.14 0.57,-1.13 0.57,-1.14 0.58,-1.13 0.85,-1.14 0.55,-1.12 0.57,-0.86 0.85,-1.13 0.58,-1.14 0.84,-1.12 0.56,-1.14 0.85,-1.13 0.58,-1.14 0.85,-0.84 0.56,-1.15 0.85,-1.12 0.85,-1.14 0.57,-1.14 0.85,-0.85 0.85,-1.12 0.85,-1.14 0.86,-0.86 0.55,-1.13 0.86,-0.85 0.85,-1.14 0.85,-1.13 0.85,-0.84 0.85,-1.14 0.85,-0.84 0.85,-1.15 0.85,-0.85 1.13,-1.13 0.85,-0.85 0.85,-0.84 0.85,-1.15 1.14,-0.85 z M 896.488,734.676 c 0,0 89.582,65.476 156.202,85.887 66.62,20.121 122.73,15.589 166.68,16.14 44.21,0.582 86.73,7.383 86.73,7.383 0,0 -122.46,-225.922 -409.612,-109.41" /><path
         id="path20"
         style="fill:#76932c;fill-opacity:1;fill-rule:nonzero;stroke:none"
         d="m 1008.18,621.563 c -20.125,9.652 -35.426,22.968 -46.485,42.8 -0.57,1.149 -2.269,0.301 -1.98,-0.851 3.68,-16.43 11.898,-30.598 23.527,-42.52 -4.258,1.43 -8.226,3.129 -11.91,5.391 -14.168,7.09 -19.559,19.851 -26.93,32.601 -0.57,0.848 -1.976,0.571 -1.976,-0.562 0,-17.57 7.648,-31.188 19.269,-41.391 -13.32,5.961 -25.793,15.301 -37.703,28.91 -0.566,0.852 -1.699,-0.558 -1.129,-1.41 18.141,-22.968 34.012,-44.226 63.782,-51.879 15.575,-3.961 32.305,-2.55 49.035,-0.558 8.21,-1.141 15.87,-0.582 22.11,2.828 2.84,0.281 5.39,0.57 7.93,0.851 0.57,-0.281 1.14,-0.281 1.99,-0.57 33.17,-5.66 60.94,-22.398 80.22,-50.461 7.64,-11.039 11.62,-22.668 13.61,-34.578 -7.09,12.758 -15.02,24.66 -24.66,35.719 -26.09,28.629 -62.66,33.441 -99.23,33.738 -41.087,0 -79.357,3.113 -112.236,30.043 -29.769,24.367 -44.789,61.789 -46.769,99.5 4.82,-4.832 9.347,-9.359 13.32,-12.473 22.961,-16.726 48.469,-24.097 76.25,-29.199 2.258,-0.289 4.82,-0.847 7.09,-1.14 4.527,-17.86 17.008,-33.168 32.875,-44.789 m -281.477,112.82 c -18.711,-7.36 -39.121,-8.211 -59.238,-7.36 -38.27,1.7 -75.973,17 -111.692,30.051 -32.597,11.891 -64.347,11.039 -97.23,1.117 -3.68,-1.117 -7.078,-2.257 -10.488,-3.679 18.429,14.179 39.687,22.679 63.781,25.793 32.316,4.258 65.477,0 97.797,-0.274 29.762,-0.297 57.543,5.66 85.89,13.59 20.692,-16.43 43.372,-29.187 67.45,-39.387 -11.61,-7.382 -22.95,-14.75 -36.27,-19.851 m -224.5,194.75 c -26.93,10.488 -53.301,13.601 -77.961,8.488 5.961,2.852 11.91,5.684 18.434,7.942 19.84,7.089 45.918,7.652 66.898,7.378 34.578,-0.289 63.489,-13.617 90.989,-31.75 7.082,-16.449 15.589,-32.609 25.23,-47.898 -41.391,18.129 -81.359,39.68 -123.59,55.84 m 715.447,-297.36 c -10.19,12.758 -24.08,23.25 -37.97,31.739 -11.64,7.09 -27.22,13.89 -44.5,18.711 11.61,3.699 22.95,7.648 34.29,12.191 27.77,-14.73 41.96,-32.301 48.18,-62.641" /></g></g></svg>