<?xml version="1.0" encoding="UTF-8" standalone="no"?>
<svg
   xmlns:dc="http://purl.org/dc/elements/1.1/"
   xmlns:cc="http://creativecommons.org/ns#"
   xmlns:rdf="http://www.w3.org/1999/02/22-rdf-syntax-ns#"
   xmlns:svg="http://www.w3.org/2000/svg"
   xmlns="http://www.w3.org/2000/svg"
   viewBox="0 0 248.03751 248.03751"
   height="248.03751"
   width="248.03751"
   xml:space="preserve"
   version="1.1"
   id="svg2"><metadata
     id="metadata8"><rdf:RDF><cc:Work
         rdf:about=""><dc:format>image/svg+xml</dc:format><dc:type
           rdf:resource="http://purl.org/dc/dcmitype/StillImage" /></cc:Work></rdf:RDF></metadata><defs
     id="defs6" /><g
     transform="matrix(1.25,0,0,-1.25,0,248.0375)"
     id="g10"><g
       transform="scale(0.1,0.1)"
       id="g12"><path
         id="path14"
         style="fill:#000000;fill-opacity:1;fill-rule:nonzero;stroke:none"
         d="m 883.375,273.43 c -69.48,0 -143.711,42.867 -157.891,51.468 -42.129,25.02 -90.308,128.09 -98.66,191.739 -9.781,72.019 19.949,243.101 174.321,311.902 62.257,27.629 120.597,41.641 173.418,41.641 48.007,0 82.707,-12.102 99.167,-23.434 14.16,-9.859 25.24,-28.289 32.48,-43.277 116.08,129.828 201.13,232.591 240.11,309.801 34.08,67.51 28.34,97.85 26.63,103.75 -11,13.6 -70.15,90.37 -67.91,169.12 3.34,126.22 120.84,305.27 167.57,343.94 29.84,24.53 82.34,39.76 137.04,39.76 34.05,0 83.8,-5.88 127.53,-33.86 85.07,-54.64 121.64,-329.13 -2.12,-596.39 C 1643.02,940.566 1513.95,740.898 1340.45,529.199 1219.45,381.906 972.344,291.969 917.664,277.578 907.195,274.84 895.652,273.43 883.375,273.43" /><path
         id="path16"
         style="fill:#009fe2;fill-opacity:1;fill-rule:evenodd;stroke:none"
         d="m 1101.49,775.703 c 0,0 -14.74,43.649 -36.28,58.68 -21.83,15.019 -109.136,46.488 -257.956,-19.559 -148.82,-66.34 -174.039,-233.582 -165.539,-296.222 8.219,-62.661 55.277,-159.321 91.558,-180.848 36,-21.84 120.192,-61.512 180.571,-45.641 60.371,15.871 300.196,106.871 414.996,246.61 114.52,139.742 273.82,350.371 392.59,607.177 119.05,257.11 85.32,527.53 7.66,577.42 -77.96,49.89 -199,34.58 -246.91,-4.82 -47.61,-39.4 -159.02,-214.86 -162.14,-332.78 -2.27,-80.22 66.05,-161.01 66.05,-161.01 0,0 17.29,-31.75 -26.36,-118.21 -43.66,-86.45 -145.42,-205.227 -258.24,-330.797" /><path
         id="path18"
         style="fill:#00709e;fill-opacity:1;fill-rule:evenodd;stroke:none"
         d="m 1388.07,1218.47 c 62.66,-2.27 140.89,2.55 140.89,2.55 25.52,-153.35 -405.34,-590.739 -405.34,-590.739 9.06,95.813 -25.52,149.672 -25.52,149.672 l 1.13,2.27 c 1.41,-3.973 2.28,-6.52 2.28,-6.52 112.81,125.57 214.56,244.337 258.22,330.797 32.89,64.91 31.18,98.93 28.34,111.97" /><path
         id="path20"
         style="fill:#000000;fill-opacity:1;fill-rule:evenodd;stroke:none"
         d="m 908.457,202.258 c -1.422,15.297 6.52,34.859 29.762,50.457 7.367,-17.86 7.937,-35.16 0.847,-49.039 -1.41,-2.852 -2.828,-5.102 -4.25,-7.09 -6.519,-9.641 -12.468,-12.469 -16.437,-11.621 -4.25,0.84 -9.07,7.082 -9.922,17.293 m 175.463,-62.934 c 10.78,6.512 25.23,12.473 44.23,14.453 0.28,-11.902 -1.71,-23.25 -5.67,-33.73 -4.26,-10.199 -8.79,-18.992 -13.61,-26.3595 -16.44,-23.8125 -36,-32.043 -50.46,-28.3398 -9.64,2.539 -15.02,10.1992 -13.89,20.1093 2.27,16.449 15.03,39.41 39.4,53.867 m 225.93,-90.9998 c -5.96,50.461 -37.7,89.2928 -89.3,109.1408 -28.91,11.062 -53.85,15.59 -75.11,15.871 -4.82,27.219 -19,54.141 -41.11,76.539 -40.81,41.102 -95.81,53.57 -147.404,33.73 -3.969,-1.417 -7.367,-2.828 -10.77,-4.531 -6.519,10.192 -15.019,20.41 -25.23,30.051 -11.199,10.77 -24.449,20.75 -39.039,28.77 -1.141,6.761 -5.801,13.312 -13.11,17.14 -11.351,5.961 -24.379,3.121 -29.492,-6.23 -4.808,-9.641 0.293,-22.11 11.633,-28.071 7.879,-4.129 16.527,-3.937 22.809,-0.347 12.601,-7.102 24.339,-15.61 34.16,-24.879 8.511,-8.492 15.59,-17 21.261,-25.793 -31.179,-20.399 -41.382,-47.629 -39.679,-69.16 1.418,-17.59 11.617,-31.469 25.226,-34.309 7.082,-1.41 25.223,-1.41 41.102,28.352 10.488,19.847 9.922,43.66 -0.57,67.75 2.55,1.136 5.39,2.257 8.511,3.41 44.222,17.289 91.842,6.226 126.992,-29.492 18.42,-18.418 30.61,-41.102 35.15,-63.782 -22.11,-2.257 -39.12,-9.07 -51.59,-16.718 -32.03,-19 -46.21,-48.469 -48.48,-67.7582 -2.55,-19.832 8.79,-36.2812 28.07,-41.0937 27.21,-7.0899 64.63,10.7734 86.17,66.0429 5.1,13.32 7.65,27.219 7.37,41.391 18.71,-0.571 40.54,-4.813 66.33,-14.75 44.51,-17.282 72,-50.4535 77.1,-93.5316 0.29,-3.6797 0.57,-7.6601 0.85,-11.6211 l 19,0 c 0,4.8125 -0.57,9.3399 -0.85,13.8789 M 1784.09,1622.98 c -2.55,-18.71 -7.66,-40.25 -16.17,-64.35 -37.7,-106.01 -109.13,-267.59 -171.21,-300.47 -56.4,-29.48 -147.4,-40.82 -214.58,-29.48 2.26,-2.83 3.68,-4.54 3.68,-4.54 0,0 1.15,-2.26 2.27,-7.66 41.1,-2.54 136.06,-3.96 204.38,26.93 66.33,30.34 171.78,234.14 194.17,369.07 -0.85,3.41 -1.7,7.09 -2.54,10.5 m -395.44,-180 c 0,0 3.68,58.11 32.31,115.94 0,0 -43.37,-60.1 -32.31,-115.94 m 69.45,3.97 c 0,0 -0.57,118.49 86.17,208.62 0,0 -96.38,-70.57 -86.17,-208.62 m 65.76,-28.35 c 0,0 28.06,147.41 122.17,229.04 0,0 -101.18,-54.43 -122.17,-229.04 m 40.82,-74.26 c 0,0 -98.93,-43.38 -210.05,-24.38 0,0 72.85,-38.28 210.05,24.38 M 748.297,678.477 c 0,0 27.781,75.121 89.289,112.808 0,0 -78.508,-36.558 -89.289,-112.808 m 51.879,-30.332 c 0,0 43.371,103.46 107.722,141.441 0,0 -41.39,-15.309 -68.613,-55.551 -27.199,-39.969 -43.937,-81.078 -39.109,-85.89 m 62.07,-24.95 c 0,0 50.461,119.063 124.449,161.571 0,0 -103.187,-39.961 -124.449,-161.571 m 8.512,-77.39 c 0,0 -96.66,-0.559 -184.539,22.402 0,0 76.539,-29.492 136.629,-32.32 60.097,-3.11 47.91,9.918 47.91,9.918 M 1119.92,682.727 C 1044.81,548.074 885.777,448.586 863.668,432.426 c -22.102,-16.16 -47.91,-10.781 -47.91,-10.781 -59.531,0 -110.262,18.722 -157.039,33.46 -2.262,6.231 -4.524,12.192 -6.231,18.422 68.309,-30.332 138.047,-40.82 160.731,-41.382 28.91,-0.848 46.488,9.64 46.488,9.64 160.163,101.481 238.393,212.879 250.873,231.301 12.47,18.711 11.33,31.75 11.33,31.75 3.69,-6.238 -1.99,-22.109 -1.99,-22.109" /><path
         id="path22"
         style="fill:#000000;fill-opacity:1;fill-rule:nonzero;stroke:none"
         d="m 986.09,854.188 c -24.61,0 -237.481,6 -257.57,209.782 -75.34,17.73 -432.352,112.4 -590.34,298.42 -74.1019,87.38 -63.7308,165.61 -41.9808,215.86 50.6678,117.09 219.4298,211.98 392.5388,220.74 7.922,0.4 16,0.6 24.16,0.6 264.313,0 594.692,-192.48 646.162,-468.66 16.46,-88.28 4.03,-158.05 -36.94,-207.37 -57.69,-69.43 -154.011,-76.93 -192.753,-76.93 -1.449,0 -2.797,0.01 -4.039,0.03 -6.027,-12.31 -16.379,-39.62 -9.098,-71.312 8.04,-35.008 35,-66.368 80.118,-93.2 5.742,-3.398 8.532,-10.199 6.872,-16.66 -1.67,-6.461 -7.411,-11.058 -14.079,-11.269" /><path
         id="path24"
         style="fill:#e22228;fill-opacity:1;fill-rule:evenodd;stroke:none"
         d="m 988.676,869.246 c 0,0 -232.719,-7.09 -246.047,206.654 -0.281,0 -420.383,92.97 -593.012,296.22 -172.3397,203.24 98.93,399.68 339.879,411.87 241.231,12.19 601.244,-168.38 654.804,-455.81 53.58,-287.43 -227.624,-266.17 -227.624,-266.17 0,0 -72,-107.151 72,-192.764" /><path
         id="path26"
         style="fill:#000000;fill-opacity:1;fill-rule:nonzero;stroke:none"
         d="m 387.164,1479.55 c -0.902,0 -1.812,0.08 -2.723,0.24 -12.238,2.26 -23.957,5.85 -34.839,10.69 -36.25,14.86 -62.27,40.08 -76.911,74.78 -14.796,35.4 -13.707,70.51 3.243,104.41 15.98,33.53 43.328,57.22 81.148,70.14 37.141,12.48 74.582,11.19 110.66,-3.74 43.141,-18.08 70.77,-48.6 82.18,-90.74 2.051,-7.6 -2.098,-15.5 -9.527,-18.11 l -103.473,-36.28 c -6.07,-2.13 -12.82,-0.15 -16.801,4.92 -3.476,4.45 -8.148,7.91 -13.5,10.01 -9.598,4.22 -17.637,4.31 -26.808,1.18 -8.372,-2.85 -14.25,-7.95 -17.981,-15.6 -3.719,-7.26 -3.918,-14.06 -0.758,-21.68 3.27,-7.88 8.719,-13.11 17.16,-16.45 5.059,-2.27 9.207,-3.19 13.75,-3.19 4.289,0 8.379,-1.84 11.231,-5.05 2.848,-3.21 4.187,-7.49 3.687,-11.75 l -4.82,-40.53 c -0.488,-4.12 -2.66,-7.86 -6,-10.33 -2.598,-1.91 -5.73,-2.92 -8.918,-2.92" /><path
         id="path28"
         style="fill:#faff00;fill-opacity:1;fill-rule:evenodd;stroke:none"
         d="m 372.711,1539.36 c -12.191,4.82 -20.691,13.03 -25.512,24.66 -4.82,11.62 -4.539,22.96 1.129,34.02 5.391,11.05 14.184,18.98 26.652,23.23 12.469,4.25 24.942,3.98 37.129,-1.41 7.942,-3.11 14.743,-8.22 19.84,-14.75 l 103.473,36.3 c -10.211,37.7 -34.871,64.63 -73.422,80.77 -32.879,13.62 -66.328,14.75 -100.059,3.41 -34.019,-11.63 -58.113,-32.32 -72.57,-62.64 -15.019,-30.06 -15.871,-60.66 -2.832,-91.84 13.039,-30.91 36,-53.29 69.16,-66.91 10.211,-4.54 20.692,-7.65 31.473,-9.63 l 4.816,40.54 c -6.808,0 -13.039,1.41 -19.277,4.25" /><path
         id="path30"
         style="fill:#000000;fill-opacity:1;fill-rule:nonzero;stroke:none"
         d="m 472.973,1491.27 c 0.23,-1.02 0.82,-2.07 3.66,-3.27 0.609,-0.2 1.769,-0.46 2.633,-0.46 0.41,0.07 1.41,0.16 1.828,0.19 3.25,0.22 3.82,1.2 4.492,2.77 0.187,0.46 0.406,0.91 0.648,1.34 -0.179,1.86 -0.359,3.07 -3.73,4.48 -0.59,0.22 -1.668,0.45 -2.578,0.45 l -0.613,-0.04 c -4.68,-0.5 -5.321,-1.94 -5.829,-3.12 -0.16,-0.36 -0.339,-0.72 -0.531,-1.09 l 0,0.02 c 0.031,0 -0.019,-0.4 0.02,-1.27 m 40.621,-77.5 c -1.418,0 -2.852,0.21 -4.258,0.62 l -24.941,7.38 c -5.102,1.5 -8.809,5.48 -10.18,10.25 -10,-0.23 -20.063,1.87 -29.801,5.84 -24.961,9.84 -39.969,28.52 -43.238,53.94 -1.821,12.04 0.058,24.15 5.629,35.68 10.937,23.29 31.129,37.31 58.308,40.41 1.442,0.15 2.852,0.27 4.242,0.36 -0.98,2.39 -1.339,5.04 -0.98,7.68 l 9.059,68.02 c 0.961,7.21 6.949,12.71 14.211,13.03 14.64,0.7 29.109,-1.68 42.89,-6.93 24.68,-10.12 42.238,-26.85 52.57,-49.82 10.661,-24.07 10.02,-47.55 -1.851,-69.91 l -58.43,-108.64 c -2.672,-4.97 -7.82,-7.91 -13.23,-7.91" /><path
         id="path32"
         style="fill:#faff00;fill-opacity:1;fill-rule:evenodd;stroke:none"
         d="m 482.125,1472.74 c -3.691,-0.57 -7.371,0 -11.34,1.42 -7.371,3.12 -11.621,8.22 -12.75,15.3 -0.293,3.69 0,7.09 1.699,10.21 3.11,7.09 9.071,11.05 17.289,11.9 3.68,0.57 7.653,0 11.34,-1.41 7.371,-3.12 11.621,-8.22 12.75,-15.59 0.571,-3.4 0,-6.81 -1.699,-9.92 -3.121,-7.37 -9.07,-11.34 -17.289,-11.91 m 47.059,163.28 c -11.911,4.53 -24.379,6.52 -36.86,5.95 l -9.07,-68.03 c 5.672,0.56 10.781,-0.29 15.879,-2.27 7.371,-2.84 12.472,-7.65 15.59,-14.46 3.121,-6.52 3.402,-13.32 0.851,-19.84 -5.39,4.82 -11.34,8.79 -18.429,11.62 -9.629,3.97 -19.84,5.1 -30.332,3.97 -22.387,-2.55 -37.7,-13.32 -46.489,-32.03 -4.25,-8.79 -5.66,-17.86 -4.25,-27.21 2.551,-19.85 13.891,-34.02 34.02,-41.96 13.89,-5.67 28.058,-6.23 42.23,-1.7 l -3.679,-13.89 24.941,-7.37 58.398,108.57 c 9.641,18.14 10.2,36.85 1.418,56.69 -8.789,19.56 -23.527,33.45 -44.218,41.96" /><path
         id="path34"
         style="fill:#000000;fill-opacity:1;fill-rule:nonzero;stroke:none"
         d="m 600.32,1384.87 c -1.859,0 -3.738,0.34 -5.547,1.07 l -43.371,17.29 c -3.859,1.54 -6.91,4.6 -8.422,8.46 -1.519,3.87 -1.367,8.18 0.411,11.93 l 134.922,284.32 c 2.847,5.99 9.308,9.38 15.839,8.41 13.5,-2.06 42.02,-9.33 87.192,-22.23 4.558,-1.3 8.226,-4.68 9.91,-9.12 1.687,-4.42 1.18,-9.39 -1.363,-13.39 -90.789,-142.66 -150.258,-236.74 -176.778,-279.62 -2.812,-4.54 -7.711,-7.12 -12.793,-7.12" /><path
         id="path36"
         style="fill:#faff00;fill-opacity:1;fill-rule:evenodd;stroke:none"
         d="m 691.891,1701.49 -134.93,-284.31 43.367,-17.3 c 26.652,43.09 85.613,136.35 176.883,279.78 -43.652,12.48 -72.281,19.86 -85.32,21.83" /><path
         id="path38"
         style="fill:#000000;fill-opacity:1;fill-rule:nonzero;stroke:none"
         d="m 698.402,1345.74 c -1.871,0 -3.757,0.35 -5.589,1.09 l -43.09,17.29 c -3.84,1.54 -6.879,4.61 -8.391,8.47 -1.508,3.86 -1.359,8.17 0.422,11.92 l 134.93,284.03 c 2.839,5.98 9.25,9.37 15.828,8.4 13.062,-1.98 39.922,-8.75 87.109,-21.93 4.582,-1.27 8.281,-4.64 9.981,-9.08 1.703,-4.44 1.203,-9.43 -1.348,-13.44 -113.961,-179.45 -164.391,-259.47 -177.133,-279.72 -2.816,-4.48 -7.68,-7.03 -12.719,-7.03" /><path
         id="path40"
         style="fill:#faff00;fill-opacity:1;fill-rule:evenodd;stroke:none"
         d="m 790.254,1662.09 -134.93,-284.02 43.09,-17.3 c 26.93,42.8 85.891,136.07 177.16,279.78 -43.648,12.2 -72.281,19.56 -85.32,21.54" /><path
         id="path42"
         style="fill:#000000;fill-opacity:1;fill-rule:nonzero;stroke:none"
         d="m 836.605,1103.83 c -11.847,0 -23.757,1.91 -35.39,5.67 -23.199,7.41 -41.93,21.17 -55.617,40.87 -5.571,7.96 -9.801,16.27 -12.684,24.88 -5.566,-7.8 -11.68,-15.56 -18.289,-23.26 -3.949,-4.59 -10.27,-6.35 -16.008,-4.51 l -35.152,11.34 c -4.027,1.3 -7.32,4.24 -9.07,8.09 -1.75,3.86 -1.79,8.27 -0.11,12.16 l 18.711,43.37 c 1.25,2.76 1.129,4.69 -0.32,7.17 -0.988,1.89 -2.231,3.74 -4.59,5.31 -10.301,-17.31 -22.078,-33.72 -35.09,-48.9 -3.949,-4.62 -10.301,-6.37 -16.058,-4.51 l -39.133,12.76 c -4.008,1.31 -7.289,4.24 -9.02,8.08 -1.75,3.85 -1.789,8.25 -0.121,12.13 l 20.691,48.19 c 1.622,3.63 1.493,6.52 -0.378,10.11 -2.25,4.04 -5.762,6.86 -10.832,8.49 -1.387,0.48 -2.688,0.8 -4.02,0.98 l -22.578,-63.17 c -2.563,-7.16 -10.09,-11.23 -17.461,-9.59 l -45.07,10.2 c -7.86,1.78 -12.911,9.43 -11.469,17.34 l 31.18,171.5 c 0.769,4.24 3.328,7.95 7.031,10.18 3.687,2.23 8.156,2.76 12.277,1.46 l 70.871,-22.4 c 3.84,-1.21 7.032,-3.91 8.86,-7.5 0.992,-1.95 1.539,-4.08 1.621,-6.23 1.828,-0.49 3.629,-1.02 5.418,-1.58 26.75,-8.83 46.609,-24.51 59.242,-46.73 8.098,-0.67 15.898,-2.21 23.308,-4.6 25.321,-8.33 44.2,-23.68 56.192,-45.65 2.027,-3.88 3.75,-7.76 5.168,-11.63 6.07,5.75 12.98,10.82 20.699,15.22 21.492,12.38 45.063,17.25 69.832,14.34 7.149,-0.56 15.09,-2.1 23.039,-4.52 23.75,-7.91 42.512,-21.73 56.129,-41.19 13.801,-19.86 19.242,-41.89 16.203,-65.53 -1.359,-9.16 -4.152,-18.89 -8.601,-30.02 -2.399,-5.98 -8.391,-9.72 -14.782,-9.42 l -68.257,3.78 22.187,-23.54 c 3.621,-3.84 4.961,-9.3 3.531,-14.38 -1.429,-5.09 -5.429,-9.04 -10.519,-10.42 -10.59,-2.88 -21.211,-4.34 -31.571,-4.34" /><path
         id="path44"
         style="fill:#faff00;fill-opacity:1;fill-rule:evenodd;stroke:none"
         d="m 804.141,1196.93 c 2.55,8.79 8.5,15.31 17.289,19.56 9.07,4.25 18.14,4.82 27.5,1.7 11.902,-3.97 19.269,-11.34 22.109,-22.39 l -66.898,1.13 z m 125.57,-2.83 c 2.559,19.84 -1.981,38.26 -13.602,54.99 -11.91,17.01 -27.777,28.63 -48.187,35.43 -6.52,1.98 -13.32,3.4 -20.41,3.97 -21.832,2.55 -41.949,-1.7 -60.66,-12.47 -18.43,-10.49 -31.18,-25.23 -38.27,-43.94 -1.98,-5.67 -3.68,-11.62 -4.531,-17.86 -2.559,-19.84 1.98,-38.27 13.89,-55.27 11.622,-16.73 27.489,-28.63 47.899,-35.15 19.281,-6.24 38.551,-6.52 58.39,-1.14 l -23.238,24.66 c -6.242,-1.13 -12.762,-0.85 -18.992,1.14 -13.32,4.53 -20.98,13.04 -22.68,26.08 l 122.743,-6.81 c 3.968,9.92 6.519,18.71 7.648,26.37 m -236.969,122.74 c -8.793,2.83 -18.14,4.25 -28.062,4.25 -10.489,22.96 -28.629,38.55 -54.43,47.05 -6.238,1.99 -12.758,3.4 -19.559,4.25 l 3.692,11.06 -70.871,22.39 -31.18,-171.49 45.07,-10.21 26.649,74.55 1.129,-1.7 c 5.953,0.85 11.902,0.57 17.57,-1.41 8.789,-2.84 15.313,-8.22 19.563,-15.88 3.968,-7.65 4.257,-15.31 0.847,-22.96 l -20.687,-48.19 39.117,-12.75 c 15.312,17.85 28.351,36.85 39.402,56.97 2.547,0 4.821,-0.56 7.09,-1.41 7.93,-2.56 13.891,-7.09 17.57,-14.18 3.969,-6.8 4.25,-13.89 1.137,-20.69 l -18.707,-43.37 35.148,-11.34 c 17.29,20.13 30.61,40.25 39.969,60.09 8.223,18.71 7.082,37.42 -2.84,56.41 -10.199,18.71 -26.078,31.47 -47.617,38.56" /></g></g></svg>