<?xml version="1.0" encoding="UTF-8" standalone="no"?>
<svg
   xmlns:dc="http://purl.org/dc/elements/1.1/"
   xmlns:cc="http://creativecommons.org/ns#"
   xmlns:rdf="http://www.w3.org/1999/02/22-rdf-syntax-ns#"
   xmlns:svg="http://www.w3.org/2000/svg"
   xmlns="http://www.w3.org/2000/svg"
   viewBox="0 0 248.03751 248.03751"
   height="248.03751"
   width="248.03751"
   xml:space="preserve"
   version="1.1"
   id="svg2"><metadata
     id="metadata8"><rdf:RDF><cc:Work
         rdf:about=""><dc:format>image/svg+xml</dc:format><dc:type
           rdf:resource="http://purl.org/dc/dcmitype/StillImage" /></cc:Work></rdf:RDF></metadata><defs
     id="defs6" /><g
     transform="matrix(1.25,0,0,-1.25,0,248.0375)"
     id="g10"><g
       transform="scale(0.1,0.1)"
       id="g12"><path
         id="path14"
         style="fill:#000000;fill-opacity:1;fill-rule:nonzero;stroke:none"
         d="m 1036.81,1463.92 94.11,-13.62 15.6,-3.1 -0.29,0 72.86,-17.31 7.37,-1.97 0,-0.28 c 85.59,-23.82 171.2,-62.37 241.5,-109.14 l -0.27,0 c 66.88,-40.25 251.14,-210.61 183.1,-307.84 l -1.69,-2.27 -0.29,0 -1.7,-2.27 -1.7,-1.98 -1.14,-1.13 -4.8,-5.115 -0.3,0 -3.11,-2.829 -3.12,-2.55 -0.29,0 -2.27,-1.7 -0.85,-0.851 c 7.09,-7.09 24.11,-12.188 41.39,-40.539 19.29,-31.461 16.16,-58.961 -10.49,-80.5 -3.11,-2.551 -6.52,-5.102 -10.19,-7.09 10.19,-8.5 14.73,-35.719 12.19,-54.141 l -0.3,0 c -1.13,-9.07 -9.92,-20.679 -18.71,-28.347 19.29,-8.5 1.7,-52.723 -3.4,-64.34 -13.03,-29.774 -22.96,-32.031 -27.78,-46.211 4.27,-1.981 7.67,-6.231 8.22,-11.621 C 1632.09,570.438 1553,500.707 1473.64,471.785 1239.2,386.465 594.316,322.117 342.617,518.848 c -36.012,28.058 -58.969,76.527 -55.851,118.769 0,3.117 1.41,5.949 3.39,8.5 -3.39,38.27 -0.269,10.5 -11.621,44.789 -14.738,44.219 -1.969,40.821 -1.969,54.989 -11.91,9.082 -47.628,45.363 -27.218,59.531 l -40.25,-5.379 c -28.922,1.141 -5.961,54.141 1.98,68.59 9.348,17.008 22.399,33.738 37.699,48.48 l 14.469,21.258 c -0.859,5.383 -1.711,10.48 -2,15.59 -1.969,22.109 -0.848,22.109 3.692,43.371 -26.653,24.094 -37.7,48.194 -36.571,83.344 3.969,123.3 94.11,220.8 223.379,287.71 171.5,88.43 386.633,116.79 585.064,95.53 m 613.13,-454.12 0,-0.27" /><path
         id="path16"
         style="fill:#df9a39;fill-opacity:1;fill-rule:evenodd;stroke:none"
         d="m 301.504,636.484 c -2.27,-30.898 13.039,-76.82 50.461,-106.019 250.859,-196.152 894.325,-125.289 1116.555,-44.5 83.91,30.609 146.84,97.801 137.2,169.23 -48.18,-43.09 -123.02,-56.422 -181.7,-70.3 -132.09,-30.903 -289.13,-48.2 -443.907,-53.012 -175.179,-5.379 -347.238,5.101 -475.648,29.48 -61.512,11.91 -151.942,29.2 -202.961,75.121" /><path
         id="path18"
         style="fill:#ebaf46;fill-opacity:1;fill-rule:evenodd;stroke:none"
         d="m 339.488,593.113 c 7.367,-15.308 24.379,-40.539 39.117,-52.437 218.274,-173.762 769.895,-134.36 963.215,-62.653 58.39,21.551 123.02,58.672 134.93,107.442 -36.28,-9.07 -72.27,-24.379 -110.55,-32.039 -38.55,-7.653 -79.64,-7.93 -119.62,-14.172 -322.021,-50.738 -681.744,-50.168 -907.092,53.859" /><path
         id="path20"
         style="fill:#f5c670;fill-opacity:1;fill-rule:evenodd;stroke:none"
         d="m 383.141,569.871 c 3.968,-22.387 56.687,-52.719 72.847,-61.226 113.102,-60.09 316.633,-65.481 483.871,-57.832 118.221,5.101 170.651,17.859 254.561,48.761 -121.61,-15.019 -174.9,-12.769 -320.6,-12.472 -77.109,0.281 -141.172,15.312 -216.289,24.652 -90.422,11.34 -191.621,19.848 -274.39,58.117" /><path
         id="path22"
         style="fill:#89372c;fill-opacity:1;fill-rule:evenodd;stroke:none"
         d="m 353.098,633.938 c 172.629,-98.942 840.472,-110.563 1178.652,4.25 54.14,18.128 100.63,63.207 105.71,127.269 -86.73,-69.723 -306.98,-92.133 -392.87,-73.98 -37.7,-33.45 -73.98,-65.481 -98.36,-97.512 -31.46,26.652 -69.73,42.801 -113.68,64.062 -60.933,-8.793 -174.034,-16.441 -239.804,21.258 -92.691,-16.148 -264.75,-18.43 -356.879,25.52 -53.57,-1.137 -108.281,4.812 -147.121,28.062 -2.551,-41.672 17.012,-82.769 64.352,-98.929" /><path
         id="path24"
         style="fill:#a13b34;fill-opacity:1;fill-rule:evenodd;stroke:none"
         d="m 1155.87,605.867 c 114.24,11.91 221.39,30.903 306.13,58.121 30.33,9.91 58.12,28.34 76.55,53.852 -101.21,-31.473 -232.45,-39.402 -293.96,-26.352 -33.16,-29.211 -64.91,-57.269 -88.72,-85.621 m -787.753,54.434 c 114.242,-62.082 461.774,-85.043 765.643,-56.703 -28.92,21.261 -62.93,36 -101.2,54.429 -60.943,-8.789 -174.04,-16.437 -239.822,21.262 -92.687,-16.148 -264.738,-18.43 -356.871,25.52 -44.5,-0.86 -89.289,2.82 -125.566,17.558 5.66,-27.207 24.367,-51.019 57.816,-62.066" /><path
         id="path26"
         style="fill:#e22228;fill-opacity:1;fill-rule:evenodd;stroke:none"
         d="m 850.574,731.445 c -32.879,-39.398 -197.289,-58.39 -333.066,-30.898 -113.953,23.25 -141.453,62.078 -142.024,96.098 6.524,0 13.332,-0.29 20.411,-0.29 21.55,-19.558 61.511,-36.558 125.011,-46.48 81.36,-12.762 190.489,-13.891 261.071,-1.141 23.25,-5.097 46.211,-11.05 68.597,-17.289" /><path
         id="path28"
         style="fill:#cd2c2d;fill-opacity:1;fill-rule:evenodd;stroke:none"
         d="m 742.289,757.234 c -67.18,-6.796 -162.988,-12.187 -258.238,9.653 25.23,2.82 47.058,11.89 60.949,20.968 67.75,-6.531 128.41,-16.718 197.289,-30.621" /><path
         id="path30"
         style="fill:#ec6a51;fill-opacity:1;fill-rule:evenodd;stroke:none"
         d="M 819.68,732.297 C 800.398,682.406 470.727,671.914 406.387,758.375 515.809,704.234 754.77,697.426 819.68,732.297" /><path
         id="path32"
         style="fill:#e22228;fill-opacity:1;fill-rule:evenodd;stroke:none"
         d="m 1640.59,850.215 c 3.69,-5.391 9.92,-20.692 6.8,-40.238 -13.32,-47.063 -193.6,-107.442 -334.19,-103.192 -19.85,0.559 -36.86,2.262 -51.9,4.531 18.72,15.59 38.27,30.899 58.41,45.36 116.22,-2.27 299.05,44.219 320.88,93.539" /><path
         id="path34"
         style="fill:#cd2c2d;fill-opacity:1;fill-rule:evenodd;stroke:none"
         d="m 1340.4,771.133 c 22.39,15.019 31.75,25.801 54.71,38.269 15.59,-7.371 44.22,2.27 50.17,7.36 16.44,13.902 39.12,-2.84 62.93,7.082 28.91,11.918 19.56,41.121 60.38,24.961 13.89,-5.391 51.02,-4.551 63.78,0 -87.03,-59.242 -213.44,-73.133 -291.97,-77.672" /><path
         id="path36"
         style="fill:#ec6a51;fill-opacity:1;fill-rule:evenodd;stroke:none"
         d="m 1599.77,800.605 c -32.02,-53.281 -190.2,-97.789 -300.75,-60.941 33.44,3.973 195.87,3.121 300.75,60.941" /><path
         id="path38"
         style="fill:#fdca00;fill-opacity:1;fill-rule:evenodd;stroke:none"
         d="m 711.391,786.719 c 161.293,-30.61 323.999,-82.199 431.719,-161.289 48.47,64.347 134.64,139.179 227.05,190.769 -31.46,6.239 -71.7,19.84 -88.43,37.418 -17.86,-16.437 -27.5,-26.648 -59.53,-22.109 -61.23,9.07 -29.49,-64.348 -109.42,-62.078 -15.31,2.55 -30.33,-18.711 -54.43,-22.68 -24.38,-3.68 -100.057,19.559 -126.987,44.219 -26.929,24.672 -71.152,-1.418 -96.383,7.371 -20.128,6.808 -9.347,20.41 -8.789,32.027 1.7,33.742 -87.019,-34.008 -114.8,-43.648" /><path
         id="path40"
         style="fill:#fdca00;fill-opacity:1;fill-rule:evenodd;stroke:none"
         d="m 560.309,809.68 c 16.16,-1.703 32.308,-3.961 48.757,-6.242 -1.988,4.269 -3.687,8.789 -5.386,13.609 -5.102,15.59 -22.391,6.801 -43.371,-7.367" /><path
         id="path42"
         style="fill:#fdca00;fill-opacity:1;fill-rule:evenodd;stroke:none"
         d="m 209.664,815.066 c 34.578,7.09 93.539,10.204 166.391,8.223 -6.524,11.059 -10.481,19.559 -38.832,12.188 -46.77,-11.911 -58.961,18.98 -76.821,71.722 -29.48,-27.222 -49.32,-62.371 -50.738,-92.133" /><path
         id="path44"
         style="fill:#ffefc2;fill-opacity:1;fill-rule:evenodd;stroke:none"
         d="m 954.887,740.52 c 52.723,-24.383 141.733,-60.942 182.843,-98.653 42.23,38.27 90.43,91.852 132.95,124.16 -44.23,-16.437 -96.96,-62.929 -136.36,-88.168 -8.5,6.239 -73.98,39.418 -179.433,62.661" /><path
         id="path46"
         style="fill:#93c02c;fill-opacity:1;fill-rule:evenodd;stroke:none"
         d="m 1287.96,893.586 c 27.22,-42.523 86.74,-71.434 119.62,-67.742 13.61,1.699 23.53,11.051 29.2,18.129 13.05,16.73 39.4,-7.93 56.98,-0.559 28.92,11.899 41.66,44.781 85.03,28.34 39.41,-15.301 74.84,1.422 87.31,28.07 10.78,22.68 -17.29,63.5 -43.36,75.68 -8.51,-5.668 -18.15,-10.481 -28.64,-14.731 -66.33,-26.371 -174.32,-50.738 -306.14,-67.187" /><path
         id="path48"
         style="fill:#93c02c;fill-opacity:1;fill-rule:evenodd;stroke:none"
         d="m 853.691,872.324 c 0.571,-13.039 -17.859,-45.629 7.372,-52.16 20.98,-5.101 47.617,26.649 67.179,1.418 19.559,-25.227 94.678,-52.156 116.218,-48.469 24.95,3.981 36.29,33.731 66.91,25.789 19.83,-5.097 27.77,-1.398 37.12,2.84 29.48,13.613 21.26,69.16 66.9,54.992 32.03,-10.211 53.01,5.95 60.66,35.43 -92.69,-11.051 -196.72,-17.859 -306.14,-19.262 -23.238,-0.297 -64.629,-0.847 -116.219,-0.578" /><path
         id="path50"
         style="fill:#93c02c;fill-opacity:1;fill-rule:evenodd;stroke:none"
         d="m 275.426,975.227 c -0.852,-57.262 23.527,-129.832 77.39,-115.942 40.25,10.211 36.559,-39.691 64.629,-48.469 18.7,-5.671 46.481,20.129 94.391,55.278 -33.731,-43.09 -66.051,-76.539 -47.063,-80.508 49.043,-19.27 103.75,88.16 155.633,56.41 17.848,-11.051 -9.922,-33.73 32.028,-39.121 38.832,-5.102 141.73,52.148 179.429,69.738 -174.609,2.551 -444.75,19.274 -556.437,102.614" /><path
         id="path52"
         style="fill:#d1d735;fill-opacity:1;fill-rule:evenodd;stroke:none"
         d="m 304.906,889.617 c 5.672,-21.258 22.961,-28.347 56.41,-25.508 36,3.121 38.27,-33.171 53.571,-36 31.191,-5.671 70.59,36 94.679,49.321 -37.699,-5.95 -41.378,-27.782 -81.347,-27.211 -15.59,0.281 -26.082,11.051 -33.742,18.711 -23.239,23.519 -59.239,-4.25 -89.571,20.687" /><path
         id="path54"
         style="fill:#d1d735;fill-opacity:1;fill-rule:evenodd;stroke:none"
         d="m 531.957,830.938 c 24.383,9.64 66.902,34.871 93.832,15.019 13.32,-9.91 1.41,-26.641 19.559,-34.578 28.629,-13.32 94.109,23.82 118.48,37.141 -69.73,-11.063 -102.89,-29.481 -126.14,10.769 -12.192,21.258 -70.86,-0.851 -105.731,-28.351" /><path
         id="path56"
         style="fill:#d1d735;fill-opacity:1;fill-rule:evenodd;stroke:none"
         d="m 1340.4,860.703 c 18.71,-23.238 55.56,-41.39 87.02,-15.019 33.74,28.058 47.91,-3.961 64.35,2.828 33.45,13.89 41.39,52.16 97.51,23.531 -29.19,43.371 -51.02,40.531 -90.14,14.461 -16.44,-11.051 -32.03,-6.242 -42.8,-3.691 -39.4,9.351 -64.63,-38.551 -115.94,-22.11" /><path
         id="path58"
         style="fill:#d1d735;fill-opacity:1;fill-rule:evenodd;stroke:none"
         d="m 944.117,825.559 c 13.61,-18.43 65.483,-49.891 98.933,-43.954 36,6.243 28.91,28.641 53.57,25.524 49.61,-6.231 65.2,20.976 68.59,36.289 -18.7,-20.98 -51.3,-26.93 -80.21,-20.141 -18.71,4.258 -25.5,-20.41 -46.77,-22.949 -21.25,-2.551 -57.265,14.738 -94.113,25.231" /><path
         id="path60"
         style="fill:#ebaf46;fill-opacity:1;fill-rule:evenodd;stroke:none"
         d="m 1647.68,1077.84 c -25.8,128.98 -255.4,363.97 -708.094,377.86 -322.59,9.92 -698.461,-134.93 -696.481,-384.95 1.141,-124.152 310.961,-155.055 387.219,-162.992 274.391,-28.352 646.016,-17.57 912.186,62.648 58.69,17.86 119.92,34.864 105.17,107.434" /><path
         id="path62"
         style="fill:#f5c670;fill-opacity:1;fill-rule:evenodd;stroke:none"
         d="m 687.301,902.656 c -15.871,15.309 -75.121,10.211 -115.942,26.649 -91.839,37.133 -180.558,67.179 -195.019,95.245 -18.711,17.29 -42.801,55.84 -43.09,85.04 -0.281,62.36 86.18,100.05 115.66,142.3 18.988,27.21 11.328,51.31 29.192,75.12 22.957,30.88 72.289,59.52 108.847,80.22 C 393.352,1346 241.98,1229.78 243.109,1070.75 244.238,946.605 554.07,915.695 630.32,907.758 c 18.711,-1.981 37.7,-3.684 56.981,-5.102" /><path
         id="path64"
         style="fill:#df9a39;fill-opacity:1;fill-rule:evenodd;stroke:none"
         d="m 1126.95,1435.86 c 83.62,-36.29 144,-94.97 207.21,-125.3 79.09,-37.7 139.75,-63.77 160.44,-167.81 14.74,-74.55 -18.71,-118.21 -64.06,-140.03 -74.27,-35.997 -328.82,-64.626 -581.669,-108.286 233.289,-5.379 493.229,15.589 693.639,75.968 58.68,17.864 119.9,34.868 105.16,107.438 -21.82,109.7 -191.62,296.21 -520.72,358.02" /><path
         id="path66"
         style="fill:#f8e4c2;fill-opacity:1;fill-rule:evenodd;stroke:none"
         d="m 501.063,1256.14 c 14.742,-12.47 26.363,22.11 32.031,35.43 -10.489,-3.12 -43.371,-22.11 -32.031,-35.43 m 322.871,134.64 c 15.019,-12.18 26.351,22.4 32.019,35.43 -10.488,-2.82 -43.367,-22.11 -32.019,-35.43 m 91.55,-14.73 c 10.782,-8.23 18.141,16.15 21.829,25.51 -7.079,-2.28 -30.047,-16.17 -21.829,-25.51 m 329.666,-18.43 c 12.78,-2.83 10.21,22.68 10.21,33.17 -5.66,-5.39 -21.25,-28.35 -10.21,-33.17 m 21.26,-88.73 c 13.04,3.98 -0.85,25.8 -5.39,34.88 -2.82,-7.66 -6.5,-36.58 5.39,-34.88 m 45.64,-48.75 c 13.04,3.97 -0.85,25.8 -5.39,34.87 -2.82,-7.66 -6.52,-36.57 5.39,-34.87 m -11.91,61.8 c 17.31,7.65 -4.53,35.71 -12.19,47.61 -2.82,-11.33 -3.96,-51.58 12.19,-47.61 m 44.22,-31.19 c 18.16,-4.54 15.32,32.04 15.32,46.49 -8.22,-7.36 -30.91,-39.4 -15.32,-46.49 m -90.41,-147.4 c 12.75,3.97 -0.86,25.8 -5.68,34.87 -2.82,-7.94 -6.52,-36.57 5.68,-34.87 m 11.61,82.78 c 17.3,7.64 -4.82,35.71 -12.47,47.61 -2.84,-11.34 -3.96,-51.58 12.47,-47.61 m -65.47,-26.93 c 18.13,-4.54 15.31,32.02 15.59,46.49 -8.5,-7.38 -31.19,-39.4 -15.59,-46.49 m -91.85,223.93 c 13.03,-2.83 10.49,22.68 10.21,32.88 -5.66,-5.38 -21.27,-28.34 -10.21,-32.88 m 21.26,-89.01 c 13.04,4.26 -0.85,26.08 -5.39,35.15 -2.84,-7.93 -6.52,-36.57 5.39,-35.15 m 45.64,-48.75 c 13.04,4.25 -0.85,26.08 -5.39,35.15 -2.82,-7.94 -6.52,-36.57 5.39,-35.15 m -79.37,-23.53 c 15.32,6.8 -3.98,31.46 -10.77,41.95 -2.55,-9.92 -3.7,-45.64 10.77,-41.95 m 67.75,85.33 c 17.29,7.93 -4.82,35.71 -12.47,47.61 -2.84,-11.34 -3.97,-51.58 12.47,-47.61 m 20.41,28.06 c 18.43,-4.54 15.59,32.03 15.59,46.76 -8.5,-7.64 -30.89,-39.67 -15.59,-46.76 m -122.18,-5.96 c 18.14,-4.54 15.32,32.04 15.32,46.77 -8.23,-7.64 -30.91,-39.68 -15.32,-46.77 m -11.62,-63.21 c 12.76,-2.83 10.2,22.96 10.2,33.17 -5.95,-5.39 -21.26,-28.35 -10.2,-33.17 m 21.26,-88.72 c 12.76,4.25 -0.85,25.8 -5.67,35.15 -2.54,-7.94 -6.24,-36.85 5.67,-35.15 m 45.65,-48.76 c 12.75,4.25 -0.86,25.8 -5.68,35.15 -2.56,-7.94 -6.25,-36.57 5.68,-35.15 m 11.61,83.06 c 17.3,7.64 -4.83,35.72 -12.47,47.62 -2.84,-11.34 -3.97,-51.87 12.47,-47.62 m 20.69,-52.44 c 18.15,-4.54 15.31,32.02 15.31,46.49 -8.22,-7.38 -30.88,-39.4 -15.31,-46.49 m -144,208.34 c 10.77,-8.22 18.14,16.16 22.11,25.51 -7.36,-2.27 -30.325,-16.16 -22.11,-25.51 m -14.457,-90.42 c 13.317,-1.99 9.082,24.09 8.23,34.58 -5.39,-5.96 -19.847,-30.61 -8.23,-34.58 m 22.957,-64.63 c 13.32,-1.98 9.09,23.81 8.23,34.29 -5.39,-5.94 -19.85,-30.32 -8.23,-34.29 m -81.348,13.88 c 16.442,-0.56 8.223,30.61 5.953,43.38 -5.953,-8.22 -20.691,-40.26 -5.953,-43.38 m 94.118,47.63 c 18.7,-0.57 9.34,34.58 7.09,49.04 -7.09,-9.07 -23.54,-45.36 -7.09,-49.04 m -75.684,24.38 c 14.726,-12.2 26.078,22.11 31.75,35.43 -10.492,-3.11 -43.371,-22.11 -31.75,-35.43 m -94.113,-11.06 c 10.773,-8.5 18.14,16.16 22.113,25.51 -7.371,-2.27 -30.34,-16.44 -22.113,-25.51 m -14.458,-90.42 c 13.321,-1.99 9.071,23.81 8.219,34.3 -5.39,-5.95 -19.84,-30.33 -8.219,-34.3 m -39.972,21.26 c 14.742,-12.47 26.082,22.11 31.75,35.43 -10.488,-3.11 -43.367,-22.4 -31.75,-35.43 m 7.941,112.81 c 13.321,-1.97 9.071,23.81 8.219,34.31 -5.391,-5.96 -19.84,-30.61 -8.219,-34.31 m -85.609,16.16 c -6.242,-13.89 -10.77,-32.6 0.57,-35.15 13.891,-0.28 12.469,18.71 9.629,34.58 8.231,7.09 1.988,30.9 0.289,41.67 -5.39,-7.08 -17.289,-32.6 -10.488,-41.1 m 126.711,-2.83 c 14.738,-12.19 26.078,22.39 31.75,35.43 -10.492,-2.83 -43.371,-22.11 -31.75,-35.43 m 64.058,-6.24 c 10.782,-8.5 18.141,16.16 21.829,25.51 -7.079,-2.27 -30.047,-16.44 -21.829,-25.51 m -22.39,-141.16 c 13.32,-1.99 9.07,23.81 8.5,34.3 -5.668,-5.95 -19.84,-30.33 -8.5,-34.3 m 22.961,-64.92 c 13.32,-1.98 9.07,24.09 8.218,34.58 -5.39,-5.95 -19.839,-30.61 -8.218,-34.58 m -81.352,13.89 c 16.442,-0.57 8.223,30.61 6.242,43.37 -6.242,-7.94 -20.711,-39.97 -6.242,-43.37 m 94.102,26.65 c 18.718,-0.85 9.648,34.58 7.097,49.04 -7.097,-9.36 -23.527,-45.36 -7.097,-49.04 m 28.347,-26.93 c 14.743,-12.19 26.082,22.11 31.75,35.43 -10.488,-3.12 -43.367,-22.11 -31.75,-35.43 m -92.41,110.55 c 15.024,-12.47 26.363,22.11 32.031,35.43 -10.488,-3.12 -43.371,-22.11 -32.031,-35.43 M 759.016,1207.1 c 10.769,-8.5 18.136,15.87 22.109,25.23 -7.371,-2.27 -30.332,-16.16 -22.109,-25.23 m -14.453,-90.42 c 13.32,-2.27 9.062,23.81 8.492,34.29 -5.672,-5.94 -19.84,-30.62 -8.492,-34.29 m 22.96,-64.92 c 13.321,-1.98 9.071,23.81 8.219,34.3 -5.387,-5.95 -19.847,-30.33 -8.219,-34.3 m -81.359,13.89 c 16.441,-0.57 8.219,30.61 6.238,43.37 -6.238,-8.22 -20.699,-40.25 -6.238,-43.37 m 94.109,47.62 c 18.711,-0.57 9.352,34.58 7.09,49.04 -7.09,-9.07 -23.527,-45.34 -7.09,-49.04 m 28.352,-47.9 c 14.738,-12.47 26.078,22.11 31.75,35.43 -10.492,-3.12 -43.371,-22.39 -31.75,-35.43 m -104.031,72.28 c 14.742,-12.19 26.359,22.11 32.031,35.43 -10.5,-3.12 -43.371,-22.11 -32.031,-35.43 m -15.031,177.73 c 13.32,-1.97 9.351,23.81 8.5,34.3 -5.668,-5.95 -19.84,-30.33 -8.5,-34.3 m 22.96,-64.91 c 13.321,-1.98 9.071,24.09 8.5,34.3 -5.668,-5.67 -19.839,-30.33 -8.5,-34.3 m -81.347,13.89 c 16.719,-0.57 8.5,30.61 6.238,43.37 -6.238,-7.94 -20.699,-39.97 -6.238,-43.37 m 122.449,-0.28 c 14.738,-12.47 26.367,22.11 32.027,35.43 -10.476,-3.12 -43.359,-22.12 -32.027,-35.43 m -104.02,72.28 c 15.008,-12.19 26.348,22.39 32.02,35.43 -10.492,-2.83 -43.371,-22.11 -32.02,-35.43 m -93.832,-11.05 c 10.493,-8.22 18.141,16.16 21.832,25.5 -7.371,-2.26 -30.062,-16.15 -21.832,-25.5 m -14.738,-90.43 c 13.32,-1.98 9.07,24.09 8.5,34.58 -5.672,-5.95 -19.84,-30.61 -8.5,-34.58 m 22.957,-64.63 c 13.321,-1.98 9.071,23.81 8.223,34.3 -5.391,-5.95 -19.563,-30.33 -8.223,-34.3 m -81.359,13.89 c 16.441,-0.57 8.5,30.61 6.242,43.37 -6.242,-8.22 -20.699,-40.25 -6.242,-43.37 m 94.109,47.62 c 18.711,-0.85 9.641,34.58 7.094,48.76 -6.813,-9.07 -23.531,-45.08 -7.094,-48.76 m 28.352,-48.19 c -11.34,13.32 21.261,32.6 31.75,35.43 -5.668,-13.04 -17.008,-47.62 -31.75,-35.43" /><path
         id="path68"
         style="fill:#fdfdfd;fill-opacity:1;fill-rule:evenodd;stroke:none"
         d="m 960.273,696.016 c -30.609,11.621 -62.652,20.41 -96.089,28.91 -5.672,-8.5 -13.61,-15.59 -24.102,-21.821 33.172,-7.089 75.691,-9.07 120.191,-7.089 m 52.717,-21.828 c -10.77,4.82 -21.525,9.636 -32.588,14.167 -54.988,-3.398 -110.269,-1.71 -151.648,8.79 -5.672,-2.547 -13.051,-5.387 -19.563,-7.938 44.793,-23.519 128.133,-24.371 203.799,-15.019 m -644.588,85.886 c -3.968,10.203 -5.668,23.231 -5.39,35.434 -29.188,0.566 -57.258,0.566 -83.617,-0.852 20.41,-16.441 52.726,-28.629 89.007,-34.582 m 36,-37.136 c -66.609,3.699 -127.839,23.539 -146.55,70.308 2.269,0 5.671,0.559 7.941,0.559 23.809,-23.25 63.211,-37.418 108.559,-43.66 8.511,-10.489 18.711,-19.547 30.05,-27.207" /></g></g></svg>