<?xml version="1.0" encoding="UTF-8" standalone="no"?>
<svg
   xmlns:dc="http://purl.org/dc/elements/1.1/"
   xmlns:cc="http://creativecommons.org/ns#"
   xmlns:rdf="http://www.w3.org/1999/02/22-rdf-syntax-ns#"
   xmlns:svg="http://www.w3.org/2000/svg"
   xmlns="http://www.w3.org/2000/svg"
   viewBox="0 0 248.03751 248.03751"
   height="248.03751"
   width="248.03751"
   xml:space="preserve"
   version="1.1"
   id="svg2"><metadata
     id="metadata8"><rdf:RDF><cc:Work
         rdf:about=""><dc:format>image/svg+xml</dc:format><dc:type
           rdf:resource="http://purl.org/dc/dcmitype/StillImage" /></cc:Work></rdf:RDF></metadata><defs
     id="defs6" /><g
     transform="matrix(1.25,0,0,-1.25,0,248.0375)"
     id="g10"><g
       transform="scale(0.1,0.1)"
       id="g12"><path
         id="path14"
         style="fill:#9f372c;fill-opacity:1;fill-rule:evenodd;stroke:none"
         d="m 671.531,250.273 c 0,0 18.141,27.5 41.391,31.461 23.242,4.258 16.152,-19.839 16.152,-19.839 0,0 60.66,4.25 71.719,-82.493 10.77,-87.0192 -59.531,-144.5582 -94.109,-101.1872 0,0 -21.262,-15.3125 -53.289,-18.1523 -12.473,-1.1289 -26.364,-0.5586 -41.102,3.4102 -53.301,14.4492 -52.73,109.1213 -84.191,139.7423 -31.469,30.609 -58.399,43.937 -49.329,70.297 8.79,26.371 50.18,11.34 71.719,0 21.539,-11.34 43.371,-25.789 55.563,-20.969 12.187,4.82 44.789,7.371 65.476,-2.27" /><path
         id="path16"
         style="fill:#f3f5f7;fill-opacity:1;fill-rule:evenodd;stroke:none"
         d="m 730.777,122.996 c 6.797,52.711 -8.793,102.613 -58.39,128.692 3.679,5.109 20.121,26.371 40.527,30.05 23.25,4.25 16.16,-19.84 16.16,-19.84 0,0 60.66,4.239 71.723,-82.492 10.769,-85.8865 -57.262,-142.8669 -92.41,-103.1794 12.187,13.8906 20.41,30.3204 22.39,46.7694" /><path
         id="path18"
         style="fill:#dcdde3;fill-opacity:1;fill-rule:evenodd;stroke:none"
         d="m 710.934,240.637 c 17.859,0 25.23,-14.172 39.398,-24.66 -12.187,0 -21.258,-6.524 -31.461,-10.774 -9.637,18.981 -24.656,34.863 -46.488,46.481 3.68,5.113 20.121,26.371 40.531,30.05 23.25,4.25 16.16,-19.839 16.16,-19.839 0,0 8.219,0.57 18.989,-2.829 -13.598,-2.839 -27.782,-2.269 -37.129,-18.429" /><path
         id="path20"
         style="fill:#dcdde3;fill-opacity:1;fill-rule:evenodd;stroke:none"
         d="m 772.164,138.867 c -8.793,-26.07 -23.812,-58.1092 -55.84,-69.4412 -2.84,1.7031 -5.39,3.9609 -7.941,6.793 12.191,13.8867 20.41,30.3472 22.39,46.7772 2.559,19.84 1.989,39.109 -2.55,56.973 24.101,-11.903 52.73,-15.024 43.941,-41.102" /><path
         id="path22"
         style="fill:#9f372c;fill-opacity:1;fill-rule:evenodd;stroke:none"
         d="M 653.391,60.0664 C 640.918,58.9375 627.027,59.4883 612.289,63.4688 559,77.9297 559.559,172.609 528.098,203.207 c -31.469,30.621 -58.399,43.949 -49.321,70.313 8.782,26.347 50.172,11.339 71.711,0 21.551,-11.34 43.371,-25.801 55.563,-20.981 12.187,4.82 44.789,7.359 65.476,-2.269 0,0 0.293,0.57 0.852,1.418 49.609,-26.079 65.199,-75.981 58.398,-128.692 -1.988,-16.449 -10.207,-32.8788 -22.398,-46.7694 -0.559,0.8515 -1.129,1.1328 -1.699,1.9726 0,0 -21.262,-15.3008 -53.289,-18.1328" /><path
         id="path24"
         style="fill:#8a342c;fill-opacity:1;fill-rule:evenodd;stroke:none"
         d="m 538.871,243.75 c 60.942,-13.891 125.57,-34.859 170.359,-78.801 -12.468,-1.699 -17.859,0 -28.628,3.403 -12.192,-50.743 -65.758,-58.403 -106.86,-69.1723 -17.859,34.5903 -24.672,83.6293 -45.64,104.0313 -8.508,8.508 -16.731,15.32 -24.098,21.828 7.937,14.172 18.707,23.813 34.867,18.711" /><path
         id="path26"
         style="fill:#000000;fill-opacity:1;fill-rule:evenodd;stroke:none"
         d="m 750.336,68.5742 c 28.633,11.6211 55.281,54.1408 48.191,110.5508 -10.492,83.617 -66.898,80.789 -69.172,80.789 -0.847,0 -1.41,0.281 -1.976,0.852 -0.281,0.277 -0.57,1.129 -0.281,1.699 0,0.277 2.828,10.187 -1.7,15.019 -2.269,2.551 -6.242,3.391 -12.191,2.27 -18.148,-3.121 -34.301,-22.969 -39.121,-29.481 -1.418,0.571 -1.418,1.7 -2.84,2.262 4.539,6.238 20.699,27.5 41.391,31.188 4.25,0.851 7.941,0.851 10.769,-0.289 2.27,-0.559 3.973,-1.7 5.391,-3.11 4.25,-4.832 3.68,-12.469 2.832,-16.449 3.398,0 9.359,-0.562 16.726,-2.832 19.274,-6.52 47.333,-25.23 54.422,-81.641 7.371,-58.117 -20.691,-102.6168 -51.019,-114.7965 -9.641,-3.9727 -18.992,-4.25 -27.5,-1.7032 -6.242,1.9922 -12.473,7.0899 -17.57,12.4727 1.41,0.8477 1.98,1.4102 2.828,2.2578 10.492,-11.6094 25.511,-15.2969 40.82,-9.0586" /><path
         id="path28"
         style="fill:#000000;fill-opacity:1;fill-rule:evenodd;stroke:none"
         d="m 553.891,144.539 c -7.938,23.531 -15.02,45.352 -27.207,57.262 l -20.981,18.988 c -20.98,18.434 -36.281,31.75 -28.91,53.293 2.27,6.809 6.52,11.629 13.039,14.18 9.922,3.679 23.809,1.699 37.699,-2.551 8.223,-2.84 16.723,-6.52 23.813,-10.211 l 11.047,-5.949 c 9.929,-5.668 20.41,-11.34 28.922,-14.18 5.378,-1.699 10.199,-2.269 13.89,-0.851 10.488,4.261 38.828,7.371 60.379,0.293 1.699,-0.571 3.398,-1.141 5.102,-1.993 0,0.282 2.546,-3.398 2.546,-3.679 -0.57,-0.852 -1.699,-1.141 -2.839,-0.571 -20.688,9.641 -52.719,6.52 -63.489,1.993 -11.058,-4.262 -28.351,5.097 -46.492,15.296 l -11.058,5.961 c -18.418,9.621 -43.372,18.141 -57.821,12.469 -5.39,-1.988 -8.789,-5.949 -10.769,-11.617 -6.52,-18.711 7.082,-30.621 27.781,-48.762 l 20.969,-19.277 c 13.039,-12.473 20.41,-34.871 28.351,-58.672 11.899,-35.441 23.809,-72.2891 54.989,-80.5118 13.039,-3.6797 26.652,-4.8164 40.25,-3.3984 31.179,2.8398 52.16,17.582 52.441,17.8594 0.848,0.5703 2.27,0.2695 2.84,-0.5782 0.57,-0.5507 0.57,-0.5507 1.129,-1.1211 0.289,-0.2812 -2.551,-3.1211 -2.828,-2.8398 -5.391,-3.3984 -25.231,-14.7383 -53.012,-17.5703 -14.168,-1.1289 -28.352,0 -41.949,3.6797 -0.852,0.289 -1.7,0.5703 -2.551,0.5703 -31.469,10.1992 -43.66,47.0582 -55.281,82.4882" /><path
         id="path30"
         style="fill:#000000;fill-opacity:1;fill-rule:evenodd;stroke:none"
         d="m 668.98,251.688 c 0.571,0.851 1.981,1.421 3.118,0.851 0.562,-0.281 65.48,-35.148 61.511,-108.281 0,-1.141 -0.851,-2.27 -2.269,-1.988 -1.129,0 -1.981,0.847 -1.981,1.988 3.68,70.859 -58.679,104.312 -59.531,104.601 -0.848,0.559 -1.418,1.7 -0.848,2.829" /><path
         id="path32"
         style="fill:#b3b5ba;fill-opacity:1;fill-rule:evenodd;stroke:none"
         d="m 715.188,261.328 c 6.519,2.27 13.32,2.551 13.886,2.551 1.133,0.277 1.981,-0.57 2.274,-1.981 0,-1.14 -0.852,-2 -2.274,-2 0,0 -5.949,-0.269 -11.906,-2.25 -3.684,-1.421 -11.332,-7.089 -12.184,-6.242 -1.136,0.563 6.231,8.492 10.204,9.922" /><path
         id="path34"
         style="fill:#000000;fill-opacity:1;fill-rule:evenodd;stroke:none"
         d="m 705.266,79.3477 c 0,0 4.539,3.957 9.347,8.789 3.41,3.6797 10.211,13.5903 11.34,13.3203 1.141,-0.582 -3.969,-11.3398 -7.648,-15.3125 -4.821,-5.3789 -9.922,-9.6289 -10.492,-10.1992 -0.848,-0.5703 -2.27,-0.5703 -2.829,0.2813 -0.851,0.8398 -0.851,2.2695 0.282,3.1211" /><path
         id="path36"
         style="fill:#9f372c;fill-opacity:1;fill-rule:evenodd;stroke:none"
         d="m 653.391,60.0664 c 0,0 -39.403,-8.7891 -116.5,21.2617 -77.114,30.0509 -68.043,90.1409 -54.711,118.4879 13.32,28.633 43.648,45.063 80.5,34.582 36.57,-10.199 22.961,-30.902 22.961,-30.902 0,0 27.5,3.973 57.828,-8.219 50.461,-20.687 9.922,-135.2106 9.922,-135.2106" /><path
         id="path38"
         style="fill:#632d29;fill-opacity:1;fill-rule:evenodd;stroke:none"
         d="m 578.555,204.063 c 3.691,1.128 6.519,1.71 6.8,1.71 1.141,0 2.27,-0.582 2.551,-1.71 0,-1.122 -0.851,-2.27 -1.98,-2.551 0,0 -2.551,-0.27 -5.672,-1.41 -2.828,-0.848 -11.051,-5.387 -11.899,-4.539 -0.57,0.851 7.079,7.378 10.2,8.5" /><path
         id="path40"
         style="fill:#8a342c;fill-opacity:1;fill-rule:evenodd;stroke:none"
         d="M 956.699,945.898 C 857.77,932.848 724.539,909.609 662.461,797.359 600.098,685.109 616.828,603.746 633.27,524.668 649.711,445.59 656.23,425.18 627.598,378.68 599.25,332.199 675.789,181.398 817.801,130.656 959.82,79.9063 1130.75,96.6289 1225.7,154.457 c 95.25,57.539 154.78,172.063 139.47,213.172 -15.31,41.09 -34.01,16.43 -17.57,66.039 16.43,49.898 -20.41,45.07 -5.39,84.191 15.31,39.118 83.62,238.68 7.65,332.231 -75.96,93.828 -280.34,110.258 -393.161,95.808" /><path
         id="path42"
         style="fill:#8a342c;fill-opacity:1;fill-rule:evenodd;stroke:none"
         d="m 823.754,583.059 c 40.25,-60.383 70.582,-138.332 162.141,-144.282 128.695,-7.371 230.175,109.981 201.555,219.961 -7.95,37.43 -45.36,66.34 -35.15,107.149 11.61,63.5 61.5,104.039 111.4,144.57 -94.4,39.969 -224.79,45.922 -307.005,35.43 -51.019,-6.789 -110.832,-16.149 -165.539,-38.828 23.25,-24.942 62.36,-30.614 78.797,-58.383 30.621,-56.988 -11.047,-112.828 -45.629,-168.379 -18.429,-28.641 -21.828,-66.91 -0.57,-97.238" /><path
         id="path44"
         style="fill:#fdfdfd;fill-opacity:1;fill-rule:evenodd;stroke:none"
         d="m 1347.6,433.672 c 16.44,49.891 -20.41,45.07 -5.39,84.191 5.66,14.457 18.43,50.739 28.63,95.239 -10.2,-3.11 -19.84,-7.372 -28.91,-12.75 -6.8,-2.551 -13.62,-5.391 -17.87,-7.661 -40.52,-15.871 -78.22,-37.41 -100.9,-70.859 -16.73,-22.398 -30.9,-46.762 -52.73,-62.93 -47.9,-37.422 -83.9,-75.968 -136.91,-109.422 -48.473,-31.179 -94.961,-7.089 -130.391,26.083 -102.051,96.089 -174.332,202.679 -280.633,294.238 -0.848,0.562 -1.418,1.41 -2.269,1.992 -6.239,-53.582 3.402,-100.641 13.043,-147.121 16.437,-79.09 22.957,-99.5 -5.672,-145.988 -28.352,-46.481 48.191,-197.293 190.199,-248.032 142.019,-50.7418 312.943,-34.0192 407.913,23.809 95.24,57.543 154.77,172.062 139.46,213.172 -15.3,41.097 -34.02,16.43 -17.57,66.039" /><path
         id="path46"
         style="fill:#c4c5c5;fill-opacity:1;fill-rule:evenodd;stroke:none"
         d="m 1364.88,368.477 c -10.2,26.359 -21.83,24.66 -23.53,35.152 -15.01,-50.461 -31.46,-102.051 -66.61,-144.281 41.96,27.211 68.88,66.039 90.14,109.129" /><path
         id="path48"
         style="fill:#c4c5c5;fill-opacity:1;fill-rule:evenodd;stroke:none"
         d="m 688.539,298.457 c -27.777,31.762 -40.82,68.039 -47.617,105.731 -3.121,-7.93 -7.371,-16.161 -13.32,-25.512 -2.274,-3.969 -3.973,-8.488 -4.821,-13.879 12.469,-29.199 32.028,-54.43 65.758,-66.34" /><path
         id="path50"
         style="fill:#d7d9d9;fill-opacity:1;fill-rule:evenodd;stroke:none"
         d="m 1341.93,600.352 c -6.8,-2.551 -13.61,-5.391 -17.87,-7.649 -40.52,-15.89 -78.22,-37.422 -100.91,-70.883 -16.72,-22.379 -30.9,-46.757 -52.72,-62.929 -47.89,-37.411 -83.91,-75.957 -136.91,-109.411 -48.477,-31.179 -94.965,-7.078 -130.395,26.083 -102.051,96.097 -174.332,202.679 -280.633,294.238 -0.847,0.57 -1.418,1.422 -2.269,1.98 -6.239,-53.57 3.402,-100.629 13.043,-147.109 1.976,-8.789 3.679,-17.301 5.097,-24.668 9.071,-6.231 19.282,-11.344 31.18,-17 9.641,-3.41 22.109,-11.063 25.23,-21.262 13.321,-43.371 30.903,-84.48 78.801,-97.801 -9.351,-45.347 -13.039,-106.019 28.629,-139.461 22.68,-6.238 52.731,2.551 76.539,5.661 -0.566,-7.93 -0.277,-15.59 1.133,-22.957 10.77,-45.922 66.617,-58.114 111.969,-42.512 18.146,5.66 27.206,35.711 46.496,28.621 28.9,-12.473 60.09,-20.691 89.29,-10.199 7.64,2.547 19.55,29.476 19.55,30.047 0.57,31.75 -4.54,64.062 10.78,75.679 39.4,26.082 95.24,-22.668 111.4,29.481 11.34,30.332 -23.82,57.262 -16.73,83.062 8.8,30.328 46.5,54.141 57.26,88.719 3.13,11.621 17.57,18.988 31.76,25.512 0.28,0.847 0.28,1.418 0.55,2.269 5.68,14.457 18.43,50.739 28.64,95.25 -10.21,-3.121 -19.85,-7.371 -28.91,-12.761" /><path
         id="path52"
         style="fill:#000000;fill-opacity:1;fill-rule:evenodd;stroke:none"
         d="m 1347.31,848.66 c 31.75,-39.109 41.94,-101.469 30.05,-184.808 -10.22,-71.442 -33.16,-133.239 -37.71,-145.129 -7.65,-19.563 -2.54,-29.211 2.55,-38.852 5.38,-9.918 10.77,-20.41 2.57,-45.348 -9.93,-30.32 -7.66,-34.582 1.11,-42.519 4.55,-3.973 10.78,-9.91 16.45,-25.223 7.37,-19.847 -3.68,-58.121 -28.06,-98.359 -27.5,-45.371 -67.75,-85.891 -109.98,-111.692 -47.06,-28.636 -112.82,-47.046 -185.11,-52.148 -76.805,-5.3906 -152.778,4.52 -220.246,28.621 -92.692,33.168 -159.02,110.828 -183.68,173.188 -11.91,30.621 -13.891,56.41 -4.82,70.871 27.211,44.801 22.961,65.769 8.218,135.492 l -2.547,12.476 c -16.16,78.231 -32.882,159.032 28.911,271 64.91,117.34 212.879,136.622 291.968,146.821 117.916,15.32 316.906,-3.957 390.326,-94.391 m -391.177,99.793 0,0 C 875.914,937.961 726.242,918.684 659.625,798.492 596.984,685.113 613.992,603.461 630.434,524.383 l 2.55,-12.481 c 14.168,-68.308 18.418,-88.992 -7.941,-132.089 -9.641,-15.872 -7.93,-43.372 4.82,-75.403 24.95,-63.488 92.692,-142.578 186.801,-176.316 68.32,-24.364 145.422,-34.2932 223.086,-28.9026 73.13,5.0896 139.75,24.0816 187.65,53.0116 97.8,59.527 155.91,174.899 140.59,216.27 -6.22,16.73 -13.03,22.961 -18.13,27.5 -6.52,5.949 -9.07,8.23 0.57,37.129 9.07,26.941 2.54,38.839 -3.12,49.32 -4.82,9.07 -9.07,17.012 -2.27,34.59 9.36,23.82 87.59,235.57 7.09,334.769 -74.84,92.422 -276.67,112.25 -395.997,96.672" /><path
         id="path54"
         style="fill:#8a342c;fill-opacity:1;fill-rule:evenodd;stroke:none"
         d="m 622.496,722.52 c -11.062,-37.7 -13.609,-106.571 5.949,-136.051 19.852,-29.489 9.071,-117.641 142.59,-64.078 133.512,53.3 86.168,180.847 66.61,207.5 -19.282,26.937 -7.942,54.437 -43.649,91.281 -36,36.859 -84.48,37.976 -109.422,15.019 C 663.316,816.91 628.445,742.66 622.496,722.52" /><path
         id="path56"
         style="fill:#9f372c;fill-opacity:1;fill-rule:evenodd;stroke:none"
         d="m 622.496,669.797 c 2.27,-24.66 7.649,-15.594 12.188,-13.32 4.25,-20.692 3.679,-32.024 14.742,-52.43 12.469,42.519 13.039,104.59 72.277,121.59 20.41,5.668 55.852,7.668 72.293,-1.121 16.438,-8.52 22.391,-15.02 38.828,-35.161 -1.418,17.008 -12.469,37.129 -13.609,49.891 -5.379,35.43 -17,68.609 -41.949,95.809 -32.879,22.679 -71.43,20.98 -92.692,1.14 -21.258,-19.281 -56.129,-93.55 -62.078,-113.679 0,-0.282 -0.281,-0.551 -0.281,-0.551 1.129,-13.328 -0.852,-38.852 0.281,-52.168" /><path
         id="path58"
         style="fill:#000000;fill-opacity:1;fill-rule:evenodd;stroke:none"
         d="m 840.195,731.594 c -7.648,10.5 -10.492,21.258 -13.32,32.879 -4.25,17.007 -9.07,36.289 -30.898,58.398 -6.243,6.52 -13.043,12.192 -20.411,16.731 -9.351,3.671 -17.011,4.808 -22.679,5.66 11.91,-5.102 28.918,-15.578 38.84,-25.801 20.687,-21.258 25.226,-39.109 29.476,-56.41 3.121,-11.899 5.953,-23.238 14.172,-34.578 12.469,-17.012 34.301,-72 17.578,-123.313 -11.629,-36 -39.406,-62.918 -83.058,-80.488 -42.239,-17.02 -72.848,-20.988 -93.54,-12.199 -21.832,9.07 -28.921,31.179 -35.152,50.738 -3.117,9.371 -5.949,18.152 -10.207,24.66 -19.562,28.93 -16.441,97.52 -5.672,134.082 5.672,19 40.262,93.258 61.231,112.539 3.968,3.399 8.218,6.231 13.039,8.512 5.672,3.387 15.883,8.207 18.711,11.047 -11.91,-1.418 -28.91,-9.641 -36,-15.879 -21.539,-19.828 -56.41,-93.262 -62.649,-114.789 -10.769,-36.582 -14.742,-106.879 6.239,-138.332 3.968,-5.957 6.8,-14.469 9.64,-23.539 6.231,-19.559 14.168,-43.649 38.27,-53.86 22.39,-9.351 54.422,-5.379 98.359,12.192 45.352,18.148 74.551,46.207 86.461,83.918 17.289,53.011 -5.391,109.968 -18.43,127.832" /><path
         id="path60"
         style="fill:#9f372c;fill-opacity:1;fill-rule:evenodd;stroke:none"
         d="m 1354.11,846.965 c -24.08,10.769 -94.1,7.09 -121.04,-20.133 -27.2,-27.488 -64.06,-83.617 -69.45,-110.828 -5.1,-27.199 -24.66,-17.289 -18.98,-63.492 5.66,-45.93 163.55,-125.86 207.77,-98.649 44.22,27.211 46.49,172.34 41.1,215.711 -5.38,43.379 -31.46,73.699 -39.4,77.391" /><path
         id="path62"
         style="fill:#8a342c;fill-opacity:1;fill-rule:evenodd;stroke:none"
         d="m 1319.53,721.105 c -24.66,15.02 -54.14,6.52 -81.64,0.278 -18.42,-3.399 -37.7,-21.809 -50.74,-7.93 -12.75,13.891 18.99,24.66 32.03,34.02 13.05,9.64 -14.74,7.363 -15.29,13.882 -4.55,10.208 -3.42,20.411 0.27,30.34 -19.28,-26.64 -36.85,-57.543 -40.54,-75.691 -5.1,-27.199 -24.66,-17.281 -18.99,-63.488 5.67,-45.922 163.56,-125.864 207.78,-98.653 8.22,5.102 15.31,14.742 20.98,26.942 -3.12,2.82 -5.67,6.23 -7.37,10.758 -17.86,43.082 5.38,97.511 -46.49,129.542" /><path
         id="path64"
         style="fill:#000000;fill-opacity:1;fill-rule:evenodd;stroke:none"
         d="m 1396.63,769.863 c -5.39,42.52 -31.46,75.121 -41.39,79.371 -2.83,1.418 -6.79,1.981 -10.77,2.829 2.28,-3.399 4.54,-4.809 6.82,-5.661 7.64,-3.968 34,-35.437 39.39,-77.109 5.1,-40.82 2.55,-187.078 -39.97,-213.16 -16.16,-9.918 -51.87,-5.102 -95.53,13.039 -50.45,20.973 -104.59,58.109 -107.72,83.621 -3.4,27.5 2.28,33.73 8.52,41.391 3.96,4.808 8.49,10.199 10.77,21.25 5.09,26.929 41.94,82.781 68.59,109.418 17.57,17.863 53.02,24.953 81.92,24.953 -12.47,1.976 -22.39,3.679 -37.7,1.699 -18.98,-3.973 -37.41,-11.34 -48.76,-22.961 -26.92,-27.219 -64.63,-84.191 -70.01,-111.969 -1.98,-9.922 -5.66,-14.461 -9.64,-19.281 -6.8,-7.93 -13.04,-15.59 -9.64,-45.07 3.69,-28.34 59.82,-66.61 111.13,-87.871 21.82,-9.071 75.4,-28.629 101.47,-12.758 47.91,29.48 47.06,181.988 42.52,218.269" /><path
         id="path66"
         style="fill:#f6c492;fill-opacity:1;fill-rule:evenodd;stroke:none"
         d="m 1180.07,676.035 c -18.71,-25.801 -19.56,-93.262 -51.59,-125.289 -32.03,-32.019 -138.902,-179.152 -66.05,-186.519 28.35,-2.84 20.98,-81.922 47.34,-73.704 41.95,13.321 114.24,120.473 136.34,145.422 32.04,36.282 69.17,111.68 85.9,132.942 16.72,21.258 31.46,104.879 -18.14,137.199 -49.61,32.027 -115.09,-4.25 -133.8,-30.051" /><path
         id="path68"
         style="fill:#f6d4b3;fill-opacity:1;fill-rule:evenodd;stroke:none"
         d="m 1313.87,706.086 c -49.61,32.027 -115.1,-4.25 -133.81,-30.051 -9.06,-12.472 -13.89,-34.582 -20.12,-57.82 6.8,-35.442 15.02,-74 -22.95,-98.652 49.89,-13.04 120.75,17.011 146.82,-30.047 19.85,32.597 37.71,66.328 48.19,79.367 16.73,21.262 31.48,104.883 -18.13,137.203" /><path
         id="path70"
         style="fill:#000000;fill-opacity:1;fill-rule:evenodd;stroke:none"
         d="m 1103.25,293.359 c -6.24,3.121 -9.92,17.289 -13.61,30.899 -5.38,20.121 -10.77,41.101 -26.94,42.519 -10.48,1.133 -16.99,5.383 -20.11,12.75 -15.59,37.141 60.08,141.743 88.16,169.512 19.27,19 27.49,50.461 34.58,77.961 5.1,19.27 9.91,37.129 17.29,47.617 11.33,15.313 40.25,34.871 71.15,39.973 22.11,3.68 41.67,0 58.39,-10.77 48.19,-31.472 33.17,-113.109 17.29,-133.23 -6.51,-8.512 -16.15,-24.949 -27.22,-43.942 -17.28,-29.757 -39.12,-67.179 -58.68,-89.289 -5.09,-5.671 -12.74,-15.871 -22.66,-28.629 -30.34,-39.691 -80.79,-105.73 -111.98,-115.652 -2.26,-0.57 -3.96,-0.57 -5.66,0.281 m 149.67,426.61 c -32.88,-5.668 -63.21,-26.071 -75.12,-42.52 -8.22,-11.051 -13.05,-29.48 -18.14,-49.031 -7.09,-27.219 -15.02,-57.828 -33.45,-75.969 -23.54,-23.25 -106.58,-132.949 -89.3,-174.898 3.98,-9.363 12.47,-14.742 25.24,-16.16 11.9,-1.133 17.01,-20.692 21.81,-38.274 4.27,-16.148 7.94,-30.039 16.46,-34.578 3.1,-1.422 6.79,-1.699 10.48,-0.57 32.89,10.492 82.2,74.84 114.81,117.64 9.91,12.758 17.57,22.68 22.67,28.629 19.85,22.403 41.67,59.813 59.24,89.86 10.78,18.992 20.42,35.152 26.65,43.371 17.29,21.832 33.17,106.871 -18.72,140.601 -17.85,11.618 -39.39,15.59 -62.63,11.899" /><path
         id="path72"
         style="fill:#000000;fill-opacity:1;fill-rule:evenodd;stroke:none"
         d="m 1043.15,692.766 c -0.56,0 31.75,-2.282 67.75,18.707 20.41,12.75 40.82,36 42.23,56.691 -3.68,-9.922 -26.64,-61.801 -109.98,-75.398" /><path
         id="path74"
         style="fill:#000000;fill-opacity:1;fill-rule:evenodd;stroke:none"
         d="m 1225.42,756.824 c -26.65,-6.238 -56.41,-18.136 -64.35,-39.969 -0.56,-1.429 0.29,-2.828 1.7,-3.398 1.71,-0.582 3.41,0.27 3.69,1.699 7.94,20.981 40.53,35.43 97.23,43.09 -9.35,2.539 -32.88,0 -38.27,-1.422" /><path
         id="path76"
         style="fill:#000000;fill-opacity:1;fill-rule:evenodd;stroke:none"
         d="m 1343.91,405.051 c -0.27,1.418 -1.7,2.547 -3.4,2.269 -1.71,-0.3 -2.85,-1.703 -2.55,-3.132 1.99,-14.168 -19.85,-78.797 -45.36,-119.899 -9.07,-14.172 -21.26,-30.039 -34.85,-44.789 21.8,17.008 34.85,34.309 39.96,42.238 24.93,39.961 48.48,106.582 46.2,123.313" /><path
         id="path78"
         style="fill:#000000;fill-opacity:1;fill-rule:evenodd;stroke:none"
         d="m 645.172,407.313 c 0.277,1.421 -0.852,2.82 -2.27,3.121 -1.703,0.281 -3.402,-0.571 -3.679,-2 -1.993,-8.489 7.078,-41.371 22.386,-76.25 7.371,-18.711 23.813,-38.539 28.911,-42.789 -28.629,45.339 -47.618,108.281 -45.348,117.918" /><path
         id="path80"
         style="fill:#000000;fill-opacity:1;fill-rule:evenodd;stroke:none"
         d="m 637.516,668.945 c -6.52,-12.191 -21.539,-63.199 -11.621,-83.609 0.558,-1.43 2.269,-2 3.679,-1.43 1.699,0.578 2.27,2.278 1.699,3.688 -5.378,11.062 -2.257,33.441 2.274,51.883 3.398,20.41 3.969,29.75 3.969,29.468" /><path
         id="path82"
         style="fill:#f6d4b3;fill-opacity:1;fill-rule:evenodd;stroke:none"
         d="m 910.777,847.246 c -15.871,-18.422 -10.203,-121.039 105.173,-118.769 115.08,1.98 128.96,92.699 103.46,117.347 -25.52,24.66 -195.875,16.172 -208.633,1.422" /><path
         id="path84"
         style="fill:#000000;fill-opacity:1;fill-rule:evenodd;stroke:none"
         d="m 1015.65,731.023 c -58.107,-1.128 -85.025,24.942 -97.224,47.051 -14.731,27.231 -13.031,58.68 -5.383,67.473 3.961,4.828 33.73,10.488 81.082,12.469 51.855,2.281 109.985,-1.411 123.305,-14.172 10.2,-9.641 14.72,-33.449 3.11,-58.399 -9.08,-19.84 -34.86,-52.992 -104.89,-54.422 M 908.516,848.945 c -5.114,-5.949 -8.231,-19.558 -6.813,-35.711 1.133,-11.91 4.539,-24.937 11.633,-37.418 12.738,-23.531 41.09,-51.3 102.594,-50.179 53.59,1.136 93.56,22.109 110.28,57.828 10.77,23.539 8.79,51.308 -4.53,64.058 -15.61,15.032 -76.25,18.141 -127.555,15.883 -35.152,-1.41 -78.52,-5.953 -85.609,-14.461" /><path
         id="path86"
         style="fill:#000000;fill-opacity:1;fill-rule:evenodd;stroke:none"
         d="m 688.539,1193.07 c 0,0 -46.488,78.81 -38.269,176.32 4.82,54.71 74.55,193.89 207.21,266.46 104.321,56.97 287.72,109.42 428.89,-24.66 0,0 76.25,9.07 131.24,-123.87 57.54,-139.47 -16.72,-285.75 -90.99,-333.36 -73.99,-47.91 -597.261,-70.86 -638.081,39.11" /><path
         id="path88"
         style="fill:#5b5b5b;fill-opacity:1;fill-rule:evenodd;stroke:none"
         d="m 1417.61,1487.31 c -4.54,11.05 -9.35,21.26 -14.17,30.33 -0.57,-17.29 -1.42,-34.58 -1.7,-48.47 -31.19,15.31 -45.36,58.68 -60.38,73.42 -31.46,0.85 -34.3,-70.59 -49.61,-55.56 -47.05,1.41 -43.37,101.19 -107.43,74.83 -16.44,-13.89 -65.2,-55.27 -64.63,-41.1 -43.09,115.94 -237.542,-20.98 -330.522,24.66 33.449,28.35 59.527,56.69 68.309,90.43 -73.7,-40.26 -127.84,-100.92 -162.418,-156.19 5.379,2.26 10.769,4.25 16.16,5.38 -0.281,-11.34 -13.332,-28.06 -7.09,-28.34 31.187,-6.52 51.019,21.54 82.769,26.36 5.68,-17.29 -7.371,-28.35 -20.121,-39.4 89,32.03 178.578,81.07 272.403,61.51 -13.32,-22.68 -38.83,-33.17 -58.114,-49.89 81.364,-7.94 152.794,58.68 221.964,51.31 18.71,-0.57 36.28,-46.78 47.63,-81.36 6.79,11.34 19.83,28.06 25.79,22.39 24.94,-6.51 36.84,-35.43 61.23,-53 0.56,17 19.84,28.06 14.18,45.35 37.13,-18.14 16.72,-68.88 53.85,-87.02 7.94,28.63 17.86,56.97 26.65,86.74 -3.4,15.87 -8.23,31.75 -14.75,47.62" /><path
         id="path90"
         style="fill:#000000;fill-opacity:1;fill-rule:evenodd;stroke:none"
         d="m 1286.37,1613.45 -0.28,0 0.28,0 z M 769.605,1142.9 c -44.5,13.04 -70.859,30.33 -78.519,51.02 l -0.277,0.29 c -0.282,0.85 -45.922,79.37 -37.704,175.18 4.821,56.97 77.954,194.45 205.801,264.47 59.52,32.31 266.174,126.99 425.484,-24.38 0.56,-0.57 1.41,-0.85 2.26,-0.85 0.85,0 75.12,7.09 128.41,-122.17 56.98,-138.62 -17,-283.47 -89.86,-330.52 -58.96,-37.99 -397.415,-59.25 -555.595,-13.04 m 86.461,494.93 c -135.781,-74.27 -203.531,-213.45 -208.347,-268.16 -8.5,-97.23 37.988,-176.88 38.269,-177.73 l 0,0.28 c 8.219,-22.11 35.719,-40.53 81.918,-53.86 159.313,-46.77 500.894,-24.94 560.414,13.61 74.27,47.91 149.96,195.31 91.85,336.19 -53.01,128.69 -124.73,126.14 -132.67,125.57 -162.14,152.79 -371.055,57.26 -431.434,24.1" /><path
         id="path92"
         style="fill:#5b5b5b;fill-opacity:1;fill-rule:evenodd;stroke:none"
         d="m 1369.43,1365.42 c -1.98,7.37 -3.13,7.94 -2.55,-1.13 4.25,-47.34 -16.74,-116.22 -59.54,-134.37 33.45,61.8 37.14,147.69 -32.3,204.67 18.41,-49.89 23.51,-64.92 9.34,-92.41 8.5,68.31 -71.72,49.89 -94.68,147.68 -152.77,-93.54 -228.466,-62.64 -342.708,-93.83 26.082,33.45 64.352,49.61 96.953,77.39 -120.472,-19.84 -223.941,-108.28 -202.39,-223.09 -10.782,51.88 -16.45,122.74 4.25,179.15 -72,-63.78 -56.692,-197 -9.922,-276.94 139.461,-61.8 527.817,-39.4 590.747,1.42 8.21,5.38 16.43,11.9 24.36,19.27 -10.77,0.85 -21.81,2.55 -32.6,5.1 30.63,51.88 76.83,94.68 51.04,187.09" /><path
         id="path94"
         style="fill:#000000;fill-opacity:1;fill-rule:evenodd;stroke:none"
         d="m 819.219,1405.39 c -46.489,-47.06 -49.321,-88.16 -50.739,-98.08 2.829,10.77 13.04,56.13 54.137,94.96 21.262,25.23 74.274,49.61 94.961,56.41 -17.859,-4.25 -61.23,-17.57 -98.359,-53.29" /><path
         id="path96"
         style="fill:#000000;fill-opacity:1;fill-rule:evenodd;stroke:none"
         d="m 1311.59,1329.99 c -2.27,47.62 -26.07,81.92 -26.65,81.07 3.12,2.27 33.17,-49.61 31.47,-80.79 3.12,-48.47 -12.47,-86.17 -11.62,-85.89 -1.41,0 9.35,30.33 6.8,85.61" /><path
         id="path98"
         style="fill:#000000;fill-opacity:1;fill-rule:evenodd;stroke:none"
         d="m 1357.52,1268.19 c 17.85,42.8 14.74,81.64 14.74,81.35 1.98,0.29 3.97,-55.84 -10.2,-82.77 -14.75,-36.28 -43.94,-56.41 -54.72,-62.64 -2.84,-1.42 -4.54,-0.85 -4.25,-0.85 -1.99,1.13 32.59,15.02 54.43,64.91" /><path
         id="path100"
         style="fill:#f6d4b3;fill-opacity:1;fill-rule:evenodd;stroke:none"
         d="m 738.711,1214.34 c 0,0 -34.578,28.62 -63.5,3.68 -29.191,-24.95 -10.481,-104.59 50.18,-123.31 0,0 -16.731,-82.76 37.98,-137.765 54.988,-54.988 166.399,-111.398 188.789,-152.5 22.11,-41.39 59.25,-65.757 95.24,-49.609 35.72,16.16 18.43,61.519 97.51,100.07 79.09,38.551 189.37,95.52 181.42,213.454 0,0 33.17,3.4 52.44,51.02 19,47.62 -16.44,100.06 -56.11,72 0,0 -10.5,-5.4 -15.03,-2.56 -10.21,6.81 -4.26,14.46 -4.26,14.46 0,0 -17.57,-2.83 -4.52,22.4 13.31,25.51 4.52,70.3 -29.21,122.74 -33.73,52.15 -72.84,51.59 -99.21,116.79 0,0 -35.15,-32.32 -90.43,-50.46 -43.64,-14.18 -137.199,-33.73 -214.859,-30.05 -77.961,3.69 -132.379,-96.09 -106.59,-172.06 0,0 -14.168,-11.91 -19.84,1.7" /><path
         id="path102"
         style="fill:#f6d4b3;fill-opacity:1;fill-rule:evenodd;stroke:none"
         d="m 896.035,856.887 c 26.36,-18.981 47.621,-36.852 56.129,-52.442 22.109,-41.39 59.246,-65.761 95.246,-49.609 33.45,15.027 20.68,55.277 82.48,91.848 -76.82,-19.278 -159.585,-17.86 -233.855,10.203" /><path
         id="path104"
         style="fill:#000000;fill-opacity:1;fill-rule:evenodd;stroke:none"
         d="m 755.156,1257.42 c 0.852,32.03 12.758,64.35 33.731,89.01 20.98,24.38 47.91,37.13 75.968,35.71 79.372,-3.68 172.625,16.16 215.995,30.34 46.78,15.3 79.66,40.81 88.72,48.47 15.03,-35.15 33.46,-50.74 53.3,-67.18 14.75,-12.19 30.34,-24.66 44.51,-46.78 22.39,-34.86 34.58,-67.74 34.87,-92.97 0,-1.42 0.85,-11.91 1.98,-12.47 0.57,-0.57 3.12,7.65 3.12,12.47 -0.3,26.36 -12.19,60.09 -35.15,95.53 -14.75,22.67 -30.61,35.43 -45.65,47.9 -19.84,16.44 -38.82,32.03 -53.57,68.6 -0.28,0.85 -1.13,1.42 -1.98,1.42 -0.86,0.28 -1.7,0 -2.55,-0.57 -0.29,-0.28 -35.43,-32.03 -89.31,-49.89 -43.07,-13.89 -135.484,-33.45 -214.003,-29.76 -29.762,1.41 -58.391,-11.91 -80.5,-37.7 -21.539,-25.23 -34.02,-58.4 -35.153,-91 -0.277,-5.1 1.993,-15.3 2.84,-15.3 1.133,0 2.551,9.35 2.832,14.17" /><path
         id="path106"
         style="fill:#000000;fill-opacity:1;fill-rule:evenodd;stroke:none"
         d="m 958.398,798.777 c -13.609,26.653 -56.41,57.543 -98.652,87.024 -34.289,23.808 -69.726,48.476 -94.387,72.84 -53.011,53.309 -37.421,134.929 -37.132,135.779 0,1.15 -0.571,2.28 -1.989,2.85 -34.859,10.48 -53.57,41.09 -59.531,66.05 -5.379,22.67 -1.41,42.8 10.211,53 26.648,22.67 58.109,-2.26 59.809,-3.68 5.101,-4.26 11.91,-5.67 11.91,-5.11 0,1.14 -7.938,8.23 -8.219,8.51 -0.289,0.28 -36.57,30.04 -67.191,3.68 -8.778,-7.38 -13.887,-19.84 -14.45,-34.29 0,-7.37 0.563,-15.31 2.551,-23.25 6.238,-25.79 25.789,-56.69 61.231,-68.61 -0.571,-3.12 -1.7,-10.48 -1.993,-20.41 -1.128,-28.9 3.122,-80.211 40.821,-117.922 24.66,-24.648 60.66,-49.59 94.961,-73.398 37.422,-25.801 72.851,-50.461 88.73,-71.442 7.93,-8.5 13.602,-12.199 13.32,-11.621" /><path
         id="path108"
         style="fill:#000000;fill-opacity:1;fill-rule:evenodd;stroke:none"
         d="m 1364.03,1195.91 c -13.04,8.5 -28.62,7.65 -43.09,-2.55 -2.54,-1.42 -9.62,-4.82 -9.62,-5.67 0,-0.85 15.29,3.4 16.71,4.25 11.35,6.52 22.96,6.52 32.6,0 17.01,-11.34 27.5,-41.67 15.6,-71.72 -18.44,-45.35 -49.9,-49.32 -50.18,-49.32 -1.41,-0.28 -2.56,-1.42 -2.56,-2.55 8.24,-119.623 -109.41,-176.873 -180,-211.182 -36.56,-17.859 -57.54,-46.48 -68.02,-63.781 3.11,1.703 10.2,9.07 14.18,13.89 10.19,14.743 26.07,30.61 56.4,45.641 68.03,32.879 179.15,87.02 183.12,197.012 0.28,5.38 0.28,10.77 0,16.44 7.94,1.7 35.14,10.48 52.15,52.15 3.4,8.79 5.1,17.3 5.4,25.52 0.85,22.67 -9.08,42.52 -22.69,51.87" /><path
         id="path110"
         style="fill:#000000;fill-opacity:1;fill-rule:evenodd;stroke:none"
         d="m 719.723,1307.59 c -1.422,31.75 14.738,86.46 20.41,101.76 -5.949,-12.19 -23.242,-51.59 -25.231,-101.76 -1.699,-60.66 25.231,-92.13 33.45,-100.35 -3.122,11.63 -32.598,48.19 -28.629,100.35" /><path
         id="path112"
         style="fill:#000000;fill-opacity:1;fill-rule:evenodd;stroke:none"
         d="m 994.68,1120.79 c 0,0 11.35,26.08 36.86,24.66 25.8,-1.13 31.18,-27.21 31.18,-27.21 0,0 -0.85,37.42 -30.33,35.43 -29.49,-1.98 -37.71,-27.49 -37.71,-32.88" /><path
         id="path114"
         style="fill:#000000;fill-opacity:1;fill-rule:evenodd;stroke:none"
         d="m 840.195,1328.29 c 0,0 32.602,43.94 77.95,14.46 0,0 8.789,11.62 -11.051,17.57 -19.559,5.66 -55.84,4.54 -66.899,-32.03" /><path
         id="path116"
         style="fill:#000000;fill-opacity:1;fill-rule:evenodd;stroke:none"
         d="m 1225.14,1321.48 c 0,0 -33.45,48.76 -81.06,20.13 0,0 -9.08,12.75 11.61,17.85 20.69,5.11 58.41,1.72 69.45,-37.98" /><path
         id="path118"
         style="fill:#fdfdfd;fill-opacity:1;fill-rule:evenodd;stroke:none"
         d="m 928.352,1283.22 c 0,0 -29.762,38.27 -76.543,5.95 -47.047,-32.31 -53.571,-104.6 -37.129,-142.58 0,0 86.172,11.34 132.949,-7.37 0,0 22.391,101.2 -19.277,144" /><path
         id="path120"
         style="fill:#000000;fill-opacity:1;fill-rule:evenodd;stroke:none"
         d="m 942.809,1177.2 c -0.571,-17.57 -13.039,-31.46 -28.063,-30.9 -15.027,0.29 -26.93,14.74 -26.367,32.32 0.57,17.57 13.328,31.18 28.348,30.89 15.019,-0.28 26.652,-14.74 26.082,-32.31" /><path
         id="path122"
         style="fill:#fdfdfd;fill-opacity:1;fill-rule:evenodd;stroke:none"
         d="m 930.336,1188.82 c -0.277,-8.5 -6.52,-15.31 -13.609,-15.02 -7.372,0.28 -13.039,7.08 -12.75,15.59 0.281,8.5 6.23,15.3 13.601,15.02 7.367,-0.28 13.039,-7.09 12.758,-15.59" /><path
         id="path124"
         style="fill:#000000;fill-opacity:1;fill-rule:evenodd;stroke:none"
         d="m 821.77,1261.39 c 17.57,29.2 51.308,46.77 75.968,41.39 23.532,-6.52 30.61,-20.13 30.61,-19.56 0.57,-1.14 -13.891,18.14 -41.098,17 -26.652,-1.41 -49.891,-25.22 -59.242,-41.66 -33.449,-57.83 -13.039,-113.39 -13.328,-111.97 3.117,-1.7 -29.481,42.52 7.09,114.8" /><path
         id="path126"
         style="fill:#000000;fill-opacity:1;fill-rule:evenodd;stroke:none"
         d="m 816.098,1143.75 c -19.559,3.97 -36.848,2.27 -36.848,2.27 -0.57,0.85 24.66,7.37 37.98,3.97 21.829,-3.97 34.02,-16.73 34.02,-16.16 -0.281,-0.57 -12.473,5.38 -35.152,9.92" /><path
         id="path128"
         style="fill:#000000;fill-opacity:1;fill-rule:evenodd;stroke:none"
         d="m 730.777,1117.67 c 3.118,17.86 0.571,33.45 0.571,33.45 0.847,0.57 9.347,-21.83 6.226,-34.3 -3.117,-19.84 -16.719,-31.75 -16.148,-31.75 -0.571,0.29 5.379,11.91 9.351,32.6" /><path
         id="path130"
         style="fill:#fdfdfd;fill-opacity:1;fill-rule:evenodd;stroke:none"
         d="m 1135.28,1279.81 c 0,0 33.16,36.28 77.1,0.57 43.94,-35.43 44.22,-108 24.37,-144.57 0,0 -84.75,17.3 -133.23,1.98 0,0 -13.31,102.62 31.76,142.02" /><path
         id="path132"
         style="fill:#000000;fill-opacity:1;fill-rule:evenodd;stroke:none"
         d="m 1111.18,1172.38 c -0.85,-17.57 10.5,-32.32 25.52,-32.88 15.03,-0.57 27.77,13.04 28.91,30.33 0.85,17.57 -10.48,32.31 -25.51,32.88 -15.02,0.85 -27.79,-12.76 -28.92,-30.33" /><path
         id="path134"
         style="fill:#fdfdfd;fill-opacity:1;fill-rule:evenodd;stroke:none"
         d="m 1125.08,1183.44 c -0.58,-8.79 5.1,-15.87 12.47,-16.16 7.36,-0.28 13.6,6.24 14.18,14.74 0.27,8.51 -5.12,15.88 -12.48,16.16 -7.37,0.28 -13.9,-6.24 -14.17,-14.74" /><path
         id="path136"
         style="fill:#000000;fill-opacity:1;fill-rule:evenodd;stroke:none"
         d="m 1239.88,1250.62 c -8.79,18.43 -32.61,44.5 -61.51,46.49 -29.2,1.42 -43.37,-18.43 -43.09,-17.29 0,-0.57 10.21,11.34 32.87,14.45 22.97,1.7 51.04,-17.85 65.21,-46.2 28.9,-70.3 0.85,-113.39 3.4,-112.25 -0.85,-1.99 32.59,51.02 3.12,114.8" /><path
         id="path138"
         style="fill:#000000;fill-opacity:1;fill-rule:evenodd;stroke:none"
         d="m 1235.06,1131.28 c -17.86,0 -32.88,-4.54 -32.88,-4.25 -0.57,0.56 19.84,11.05 32.6,10.49 20.12,0.28 33.45,-9.36 33.16,-8.79 0,-0.57 -12.19,2.55 -32.88,2.55" /><path
         id="path140"
         style="fill:#000000;fill-opacity:1;fill-rule:evenodd;stroke:none"
         d="m 1327.47,1086.78 c -1.13,-15.87 0.57,-30.05 0.28,-30.05 -0.56,-0.56 -8.22,19.28 -6.52,30.9 0.85,18.14 10.2,28.91 9.64,28.63 0.56,0 -1.98,-10.77 -3.4,-29.48" /><path
         id="path142"
         style="fill:#843e2d;fill-opacity:1;fill-rule:evenodd;stroke:none"
         d="m 901.137,1087.63 c 0,0 178.583,-1.7 279.783,-12.47 0,0 24.94,-147.972 -144.28,-155.633 -159.312,-7.089 -151.37,140.603 -135.503,168.103" /><path
         id="path144"
         style="fill:#000000;fill-opacity:1;fill-rule:evenodd;stroke:none"
         d="m 1178.65,1072.89 c 0.27,-3.68 1.12,-12.19 0.85,-23.25 -0.85,-22.95 -6.81,-56.695 -31.18,-83.624 -24.39,-26.93 -61.8,-41.668 -111.69,-43.93 -54.989,-2.551 -94.958,13.32 -118.478,46.769 -18.148,25.512 -22.961,56.965 -22.109,81.925 0.559,15.31 3.398,27.77 6.801,34.58 17.859,-0.29 180.566,-2.56 275.806,-12.47 m -277.509,17.29 c -1.137,0 -1.989,-0.57 -2.547,-1.42 -10.774,-18.99 -15.59,-79.65 15.019,-122.744 24.66,-34.86 66.328,-51.59 123.307,-49.039 51.3,2.558 90.42,17.859 115.65,45.929 41.67,46.204 31.18,111.964 31.18,112.534 -0.29,1.13 -1.14,1.99 -2.55,2.27 -100.06,10.77 -278.356,12.47 -280.059,12.47" /><path
         id="path146"
         style="fill:#ba3b31;fill-opacity:1;fill-rule:evenodd;stroke:none"
         d="m 1076.32,992.102 c -26.92,9.638 -49.32,-4.25 -49.32,-4.25 -11.33,15.308 -47.621,13.318 -68.031,-4.821 -10.781,-9.359 -18.43,-24.383 -23.531,-36.281 22.109,-17.859 54.421,-29.199 101.192,-27.219 37.42,1.699 65.2,10.207 85.89,22.399 -7.93,18.992 -24.94,42.23 -46.2,50.172" /><path
         id="path148"
         style="fill:#000000;fill-opacity:1;fill-rule:evenodd;stroke:none"
         d="m 960.953,981.328 c 11.34,9.918 28.348,15.59 43.937,14.168 9.07,-0.848 16.14,-4.25 19.83,-9.066 0.29,-0.563 1.14,-0.852 1.7,-1.141 0.85,0 1.43,0 2.28,0.578 0,0 21.54,13.031 46.77,3.961 20.12,-7.648 35.72,-29.48 43.65,-46.769 -22.11,-12.469 -49.6,-19.563 -82.49,-20.969 -41.099,-1.992 -73.978,6.797 -97.786,25.219 4.539,11.058 11.91,24.949 22.109,34.019 m -3.691,3.692 c -11.621,-10.211 -19.551,-26.082 -24.371,-37.422 -0.289,-1.141 0,-2.282 0.851,-2.84 24.942,-20.41 59.809,-29.481 103.178,-27.789 34.86,1.711 64.05,9.371 87.01,22.969 1.15,0.57 1.71,1.699 1.15,2.839 -7.94,18.711 -25.23,43.36 -47.63,51.59 -24.66,9.073 -45.07,-0.847 -50.18,-3.687 -4.81,5.109 -12.18,8.789 -21.82,9.64 -16.997,1.7 -35.997,-4.531 -48.188,-15.3" /><path
         id="path150"
         style="fill:#fdfdfd;fill-opacity:1;fill-rule:evenodd;stroke:none"
         d="m 1017.64,1050.49 c 90.71,-0.28 140.31,-4.54 164.7,8.5 -0.29,9.93 -1.43,16.16 -1.43,16.16 -101.18,10.77 -279.765,12.47 -279.765,12.47 -2.559,-4.53 -5.118,-12.19 -6.52,-22.11 15.582,-5.1 53,-14.74 123.015,-15.02" /><path
         id="path152"
         style="fill:#000000;fill-opacity:1;fill-rule:evenodd;stroke:none"
         d="m 1178.37,1072.89 c 0.27,-2.55 0.85,-9.93 1.12,-12.19 -18.98,-9.35 -53.56,-9.07 -110.25,-8.22 l -51.59,0.57 c -66.341,0.27 -102.9,8.79 -119.912,14.16 1.422,7.38 3.121,13.9 5.391,18.15 17.851,-0.29 180.281,-2.56 275.241,-12.47 m -277.229,17.29 c -1.133,0 -1.981,-0.57 -2.551,-1.42 -2.832,-5.1 -5.102,-13.05 -6.52,-22.96 -0.281,-1.14 0.571,-2.26 1.7,-2.55 16.441,-5.68 54.429,-15.02 123.88,-15.3 l 51.59,-0.29 c 58.95,-0.86 94.38,-1.43 114.23,9.07 1.14,0.57 1.41,1.41 1.41,2.27 l -1.12,16.44 c -0.29,1.13 -1.14,1.99 -2.56,2.27 -100.07,10.77 -278.36,12.47 -280.059,12.47" /><path
         id="path154"
         style="fill:#000000;fill-opacity:1;fill-rule:evenodd;stroke:none"
         d="m 1026.43,984.441 c -2.82,6.801 -9.64,10.493 -9.64,10.493 0,0.847 11.92,-2.551 13.6,-9.063 3.7,-8.519 -0.55,-15.316 0,-15.316 -0.55,0 -0.84,5.949 -3.96,13.886" /><path
         id="path156"
         style="fill:#f3f5f7;fill-opacity:1;fill-rule:evenodd;stroke:none"
         d="m 1538.09,460.32 c 0,0 67.18,7.653 89,5.66 21.55,-1.988 8.23,-20.968 7.93,-26.648 -0.56,-5.941 -48.17,-7.93 -48.17,-7.93 0,0 30.88,-24.648 30.04,-33.441 -0.57,-8.508 -24.94,-15.32 -24.94,-15.32 l -11.07,9.929 -45.92,-5.679 c 0,0 24.39,-30.899 39.13,-34 14.46,-3.399 7.37,-21.84 7.37,-21.84 l -59.82,-14.168 c 0,0 -52.44,15.019 -50.45,39.41 1.69,24.09 66.9,104.027 66.9,104.027" /><path
         id="path158"
         style="fill:#dcdde3;fill-opacity:1;fill-rule:evenodd;stroke:none"
         d="m 1538.09,460.32 c 0,0 1.7,0 4.54,0.274 2.26,-14.172 -3.97,-30.043 -12.49,-41.09 -7.07,-17.863 -14.44,-35.434 -16.14,-58.684 12.46,6.524 22.66,-16.449 29.19,-10.207 7.09,17.578 -34.3,21.547 -20.98,39.41 6.24,6.239 19.27,18.43 36.56,13.321 0.58,5.668 0.85,11.629 1.43,17.277 17.85,-2.82 35.15,-9.629 53.01,-14.437 2.25,-3.403 3.97,-6.243 3.68,-8.223 -0.57,-8.508 -24.94,-15.32 -24.94,-15.32 l -11.07,9.929 -45.92,-5.679 c 0,0 24.39,-30.899 39.13,-34 14.46,-3.399 7.37,-21.84 7.37,-21.84 l -59.82,-14.168 c 0,0 -52.44,15.019 -50.45,39.41 1.69,24.09 66.9,104.027 66.9,104.027" /><path
         id="path160"
         style="fill:#000000;fill-opacity:1;fill-rule:evenodd;stroke:none"
         d="m 1634.46,445.012 c 1.13,3.117 2.27,6.519 2.55,9.636 0.28,1.704 0,3.411 -0.85,4.821 -1.43,2.261 -4.82,3.679 -9.64,4.25 -20.13,1.703 -80.5,-4.809 -87.3,-5.66 -6.24,-7.661 -64.35,-79.661 -66.05,-101.77 -1.42,-21.828 45.64,-36.289 49.03,-37.141 1.14,0.293 54.72,13.043 57.54,13.614 0.29,1.136 0.86,3.398 1.15,6.226 0.28,2.274 0,5.114 -1.15,7.09 -1.12,2.551 -3.4,3.973 -6.51,4.551 -11.62,2.82 -28.92,21.262 -36.28,30.031 -2.28,2.551 -8.52,6.52 -8.22,6.809 0.28,0.851 5.1,1.422 5.94,1.422 l 46.22,5.949 c 0.56,0 1.13,-0.289 1.7,-0.57 0,0 8.77,-7.942 10.2,-9.348 9.35,2.828 21.54,8.5 22.11,13.027 0.28,5.391 -17.3,21.84 -29.77,31.75 -0.56,0.289 -0.56,1.141 -0.56,1.711 l 0,0.559 c 0.56,0.851 1.41,1.703 2.27,1.703 20.12,0.848 43.37,3.398 45.92,5.949 0.27,0.289 1.7,5.391 1.7,5.391 m -7.09,22.957 c 6.24,-0.571 10.49,-2.547 12.75,-5.949 1.14,-2.258 1.71,-4.54 1.43,-7.09 -0.29,-3.961 -1.7,-7.641 -2.84,-10.77 l -1.42,-4.808 c -0.28,-1.993 -1.13,-7.383 -44.78,-9.653 9.35,-7.648 27.2,-23.808 26.64,-31.461 -0.56,-9.918 -22.4,-16.726 -26.64,-17.859 -0.85,-0.277 -1.42,0 -2,0.57 0,0 -9.34,8.223 -10.48,9.352 -1.7,-0.281 -33.73,-4.25 -40.81,-5.09 6.52,-7.66 24.37,-27.789 35.43,-30.34 4.53,-0.851 7.37,-3.121 9.07,-6.519 1.7,-2.84 1.98,-6.243 1.7,-9.364 -0.29,-4.527 -1.99,-8.218 -1.99,-8.5 -0.28,-0.847 -0.84,-1.418 -1.69,-1.699 l -59.54,-13.891 c -0.56,-0.277 -0.85,-0.277 -1.41,0 -1.98,0.571 -53.86,15.872 -51.87,41.114 1.7,24.648 64.91,102.047 67.74,105.449 0.29,0.559 0.86,0.84 1.42,0.84 2.84,0.277 67.75,7.648 89.29,5.668" /><path
         id="path162"
         style="fill:#000000;fill-opacity:1;fill-rule:evenodd;stroke:none"
         d="m 1571.25,402.773 11.62,-8.789 c 0.85,-0.562 0.85,-1.98 0,-3.113 -0.85,-0.848 -2.27,-1.137 -3.12,-0.566 l -11.62,8.789 c 0,0 -15.59,13.32 -15.02,14.168 0.85,1.133 18.14,-10.489 18.14,-10.489" /><path
         id="path164"
         style="fill:#000000;fill-opacity:1;fill-rule:evenodd;stroke:none"
         d="m 1545.73,338.145 7.95,-11.899 c 0.85,-0.851 0.27,-2.269 -0.58,-3.121 -1.13,-0.57 -2.55,-0.57 -3.11,0.559 l -7.93,11.91 c 0,0 -10.5,17.57 -9.64,18.422 1.12,0.578 13.31,-15.871 13.31,-15.871" /><path
         id="path166"
         style="fill:#000000;fill-opacity:1;fill-rule:evenodd;stroke:none"
         d="m 1578.63,433.672 8.5,0 c 1.13,0 1.98,-1.121 1.69,-2.27 0,-1.129 -1.14,-2.269 -2.26,-2.269 l -8.52,0 c 0,0 -16.43,1.14 -16.43,2.269 0.28,1.149 17.02,2.27 17.02,2.27" /><path
         id="path168"
         style="fill:#52893d;fill-opacity:1;fill-rule:evenodd;stroke:none"
         d="m 1407.4,503.691 c 0,0 28.07,-9.359 53.02,-8.218 24.93,1.129 46.77,0 66.04,-7.942 19.27,-7.648 17.85,-39.679 12.76,-53.289 -4.83,-13.621 -47.05,-66.902 -53.58,-116.512 -6.52,-49.32 -125.3,-2.257 -135.5,19 -10.48,21.262 57.26,166.961 57.26,166.961" /><path
         id="path170"
         style="fill:#34763b;fill-opacity:1;fill-rule:evenodd;stroke:none"
         d="m 1407.4,503.691 c 0,0 4.82,-1.429 11.91,-3.121 11.05,-36.281 -2.84,-78.8 44.51,-95.531 16.71,-7.648 32.88,-13.039 49.31,-15.867 -12.19,-20.981 -24.09,-46.77 -27.49,-71.442 -6.52,-49.32 -125.3,-2.257 -135.5,19 -10.48,21.262 57.26,166.961 57.26,166.961" /><path
         id="path172"
         style="fill:#2e6739;fill-opacity:1;fill-rule:evenodd;stroke:none"
         d="m 1465.8,299.602 c 10.49,2.82 16.44,8.789 17.57,18.128 4.82,36.29 28.63,74.848 42.81,97.809 5.38,8.781 9.64,15.582 11.05,19.27 1.42,3.691 2.54,9.07 2.84,14.461 1.13,14.171 -2.27,31.179 -14.74,36.281 -20.41,8.219 -43.37,8.5 -65.2,7.648 -21.26,-0.847 -44.79,5.68 -51.6,7.93 -17.28,-37.41 -54.98,-125 -57.25,-155.34 -0.28,-3.398 0,-6.23 0.85,-7.93 7.37,-15.3 78.8,-47.058 113.67,-38.257 m -57.54,206.359 c 0.27,-0.289 28.06,-9.359 52.44,-8.231 22.11,0.848 45.64,0.571 66.61,-8.218 19.84,-7.942 19.84,-39.973 14.18,-55.84 -1.42,-3.961 -5.67,-10.774 -11.34,-19.832 -14.18,-22.692 -37.7,-60.68 -42.24,-96.11 -1.7,-11.332 -9.07,-19.261 -21.54,-22.39 -36,-9.059 -109.42,21.551 -118.49,40.262 -10.21,21.257 50.46,153.91 57.54,168.929 0.57,1.141 1.99,1.707 2.84,1.43" /><path
         id="path174"
         style="fill:#52893d;fill-opacity:1;fill-rule:evenodd;stroke:none"
         d="m 1138.68,649.395 c 0,0 -129.83,-15.309 -239.239,28.621 -109.14,43.949 -153.64,129.257 -165.257,161.871 -11.633,32.297 15.867,53.008 40.25,45.347 0,0 -35.442,32.313 -14.743,49.879 20.969,17.301 54.711,-20.109 73.129,-33.726 18.711,-13.883 100.063,-69.723 168.38,-52.16 68.31,17.578 255.4,-133.5 137.48,-199.832" /><path
         id="path176"
         style="fill:#34763b;fill-opacity:1;fill-rule:evenodd;stroke:none"
         d="m 1036.91,703.254 c 40.82,13.316 -20.68,51.578 -58.105,84.758 -17.012,15.019 -15.313,39.398 -1.692,58.101 8.211,0.278 16.16,1.129 24.087,3.117 68.32,17.571 255.41,-133.507 137.48,-199.847 0,0 -129.82,-15.301 -239.246,28.64 -109.129,43.93 -153.641,129.25 -165.25,161.86 -4.258,11.91 -3.121,22.109 1.121,30.051 38.277,-119.063 205.8,-189.653 301.605,-166.68" /><path
         id="path178"
         style="fill:#34763b;fill-opacity:1;fill-rule:evenodd;stroke:none"
         d="m 774.43,885.234 c 0,0 -10.492,9.352 -16.719,20.981 34.008,-13.332 64.629,-31.75 81.918,-71.723 -30.051,22.391 -63.219,32.883 -97.231,44.5 8.5,7.094 20.692,9.922 32.032,6.242" /><path
         id="path180"
         style="fill:#000000;fill-opacity:1;fill-rule:evenodd;stroke:none"
         d="m 774.145,887.5 c 0.281,-0.281 0.57,-0.281 0.851,-0.281 -0.281,0 -0.57,0.281 -0.851,0.281 m 57.543,12.191 -12.75,10.2 c -17.864,15.308 -42.524,36.289 -57.833,23.531 -3.679,-3.121 -5.667,-7.094 -5.667,-11.621 -0.282,-15.871 20.128,-34.871 20.41,-35.153 0.847,-0.57 0.847,-1.699 0.566,-2.546 -0.566,-0.852 -1.699,-1.422 -2.84,-0.852 -11.047,3.398 -23.519,0.57 -31.457,-7.66 -8.512,-8.5 -10.769,-21.262 -5.672,-35.149 6.52,-18.421 45.641,-113.101 163.84,-160.441 105.735,-42.52 232.445,-29.191 237.835,-28.629 29.2,16.731 37.42,37.988 36.27,57.551 -0.57,9.348 -3.11,18.418 -6.51,26.359 -27.49,64.629 -123.87,122.739 -166.11,111.969 -70.305,-18.141 -154.204,40.531 -170.082,52.441 m -9.922,13.61 12.468,-10.211 c 15.883,-11.621 97.801,-69.16 166.406,-51.59 47.62,12.191 145.13,-53.012 171.21,-114.52 11.34,-26.359 14.74,-63.21 -32.03,-89.57 -0.28,0 -0.57,-0.289 -0.86,-0.289 -1.14,0 -131.52,-14.742 -240.093,28.918 -120.179,48.18 -159.871,144.281 -166.672,162.992 -5.668,15.297 -3.121,29.758 6.801,39.68 7.649,7.66 18.43,10.769 29.481,9.359 -6.243,6.801 -16.719,19.84 -17.571,32.032 l 0,1.699 c 0.282,5.949 2.551,11.051 7.371,15.019 18.137,15.032 44.5,-7.371 63.489,-23.519" /><path
         id="path182"
         style="fill:#f3f5f7;fill-opacity:1;fill-rule:evenodd;stroke:none"
         d="m 1531.56,288.535 c 0,0 51.03,-6.512 65.48,-26.359 0,0 -11.91,-27.5 -19.84,-29.762 -8.22,-2.269 -51.3,17.289 -51.3,17.289 0,0 19.55,-29.199 19.83,-40.539 0,-11.617 -13.32,-19.84 -22.39,-20.41 -9.07,-0.277 -23.53,30.051 -34.58,29.492 -11.06,-0.582 -25.79,-27.223 -25.79,-27.223 0,0 18.42,-44.5 17.57,-57.82 -1.14,-13.617 -32.6,-11.058 -32.6,-11.058 0,0 -7.94,-27.5005 -44.79,-28.9106 0,0 -9.92,39.9686 -24.94,49.8786 0,0 -16.73,-62.3474 -25.52,-76.2497 -9.07,-13.8867 -25.79,0 -30.33,8.5117 0,0 -31.74,37.98 -50.45,39.121 0,0 1.13,-51.8827 -2.84,-52.1522 -3.97,0 -21.83,-10.5 -36.28,-5.3907 0,0 4.82,50.4609 0,67.4609 -4.54,17.289 -16.44,46.481 -11.05,79.66 5.39,32.879 190.76,125.563 309.82,84.461" /><path
         id="path184"
         style="fill:#dcdde3;fill-opacity:1;fill-rule:evenodd;stroke:none"
         d="m 1254.34,147.656 c 29.48,-4.539 39.39,-33.16 70.02,-20.129 -0.57,-5.941 -0.85,-11.621 -1.42,-17.57 11.34,-11.0625 29.2,-10.2109 35.43,-4.25 6.8,11.898 2.55,34.859 3.97,52.16 17.86,0.848 21.26,-33.742 39.69,-27.222 6.23,6.242 -9.36,34.3 13.88,29.48 11.63,-5.098 22.68,-16.148 34.59,-15.867 2.27,29.199 -7.09,63.488 11.89,81.637 6.82,11.621 41.97,1.703 60.39,8.222 6.24,5.949 -16.44,22.391 -9.92,28.34 18.42,6.809 41.67,1.988 65.76,2.848 -2.55,2.55 -1.41,6.511 -0.28,10.48 7.94,-3.687 14.73,-7.93 18.71,-13.609 0,0 -11.91,-27.5 -19.84,-29.75 -8.23,-2.281 -51.32,17.281 -51.32,17.281 0,0 19.57,-29.199 19.84,-40.543 0,-11.617 -13.31,-19.84 -22.38,-20.406 -9.07,-0.281 -23.53,30.047 -34.58,29.488 -11.06,-0.57 -25.81,-27.219 -25.81,-27.219 0,0 18.43,-44.5 17.58,-57.832 -1.13,-13.597 -32.59,-11.05 -32.59,-11.05 0,0 -7.95,-27.5005 -44.79,-28.9106 0,0 -9.93,39.9606 -24.95,49.8826 0,0 -16.73,-62.3514 -25.51,-76.2498 -9.07,-13.8906 -25.79,0 -30.33,8.5078 0,0 -28.91,34.582 -47.91,38.832 -2.55,12.469 -8.23,23.809 -20.12,33.449" /><path
         id="path186"
         style="fill:#000000;fill-opacity:1;fill-rule:evenodd;stroke:none"
         d="m 1531,286.27 -0.29,0 c -89.28,30.902 -213.73,-13.891 -271.27,-49.61 -20.98,-12.738 -34.3,-25.211 -35.43,-32.879 -0.57,-2.832 -0.85,-5.953 -1.13,-9.062 -1.7,-23.821 4.81,-44.797 9.63,-60.668 l 2.54,-8.789 c 3.41,-13.032 1.71,-44.2112 0.86,-59.5315 -0.28,-3.1094 -0.55,-5.3789 -0.55,-6.7891 9.62,-2.8398 20.68,1.1289 27.49,3.6797 0,0 3.11,1.1289 4.81,1.707 0.57,1.1211 1.14,3.961 1.41,7.9336 0.57,9.918 0.87,26.6485 0.57,41.9493 l 0,0.277 c 0,0.571 0.3,1.141 0.57,1.703 0.58,0.289 1.42,0.571 1.99,0.571 19.26,-1.133 50.74,-38.262 52.15,-39.9612 3.11,-5.961 11.91,-13.9024 19,-13.6211 3.11,0.3008 5.38,1.6992 7.36,4.8203 8.79,13.3281 24.95,74.84 25.23,75.398 0.29,0.852 0.57,1.422 1.42,1.704 0.85,0.289 1.42,0.289 1.99,0 14.17,-9.352 23.81,-42.231 25.51,-49.602 33.16,2.2695 40.53,25.789 41.1,26.93 0.27,1.129 1.42,1.98 2.55,1.699 5.67,-0.289 21.54,-0.289 27.5,4.832 1.43,1.117 2.28,2.25 2.28,3.961 0.84,13.047 -17.31,56.687 -17.31,57.269 -0.28,0.547 -0.28,1.118 0,1.7 1.71,2.828 15.88,28.05 28.07,28.621 6.52,0.277 13.32,-7.942 20.41,-16.731 4.82,-5.66 10.77,-13.043 13.89,-12.742 5.1,0.27 11.33,3.102 15.29,7.359 2.27,1.981 4.82,5.672 4.82,10.493 -0.27,8.789 -14.16,31.461 -19.55,39.398 -0.56,0.852 -0.56,1.981 0.29,2.551 0.56,0.851 1.69,1.129 2.84,0.851 17.57,-7.941 44.78,-18.429 49.6,-17.011 4.82,1.129 13.04,16.16 17.86,26.929 -14.74,18.153 -62.93,24.661 -63.5,24.661 m 1.43,4.25 c 2.53,-0.282 51.86,-6.801 66.6,-26.93 0.27,-0.281 0.27,-0.852 0.27,-1.129 l 0,-0.852 c -2.25,-4.808 -13.02,-28.629 -21.82,-31.179 -6.79,-1.989 -32.32,8.218 -45.63,14.172 5.95,-9.352 15.86,-26.641 16.16,-35.153 0,-0.558 0,-1.129 -0.3,-1.699 -0.26,-4.238 -2.25,-8.5 -5.94,-12.18 -4.82,-5.109 -12.47,-8.511 -18.72,-8.8 -5.09,-0.282 -10.76,6.519 -17.27,14.179 -5.39,6.801 -12.48,15.301 -17.3,15.031 -6.52,-0.289 -17.28,-15.031 -22.96,-24.941 2.27,-5.117 18.14,-44.801 17.28,-57.84 -0.27,-2.84 -1.69,-5.39 -3.96,-7.371 -7.64,-6.508 -24.38,-6.238 -29.48,-5.949 -2.56,-6.52 -13.59,-27.5001 -46.2,-28.9102 -1.13,0 -1.98,0.5625 -2.27,1.4101 0,0.5703 -8.79,34.5821 -21.84,46.4921 -3.67,-13.891 -16.71,-60.6601 -24.66,-72.8397 -3.39,-5.6797 -8.2,-7.0899 -11.34,-7.0899 -9.34,-0.293 -19.26,8.7891 -22.66,15.2969 0,0 -28.35,33.4607 -46.21,37.4217 0,-11.34 0.28,-26.3709 -0.57,-37.1405 -0.56,-6.789 -1.41,-11.8984 -2.82,-13.3203 -0.29,-0.2773 -1.72,-0.8476 -1.99,-0.8476 l -4.82,-1.7032 c -7.66,-2.8398 -20.69,-7.6484 -32.04,-3.6875 -0.85,0.2891 -1.41,1.1407 -1.41,1.9883 0,0.5625 4.83,50.1718 0,66.8908 l -2.55,8.512 c -5.1,17.289 -13.03,43.367 -8.52,71.718 2,12.469 24.67,28.059 37.7,36.282 58.41,36 184.55,81.347 275.27,50.168" /><path
         id="path188"
         style="fill:#000000;fill-opacity:1;fill-rule:evenodd;stroke:none"
         d="m 1440.57,138.301 c 4.54,-8.789 9.07,-14.738 9.36,-14.738 0.55,-0.852 0.28,-2.274 -0.56,-3.122 -1.14,-0.851 -2.55,-0.851 -3.14,0.289 -0.55,0.282 -5.38,6.532 -10.19,15.872 -2.56,5.097 -6.52,20.128 -5.38,20.41 1.41,0.57 7.09,-13.61 9.91,-18.711" /><path
         id="path190"
         style="fill:#000000;fill-opacity:1;fill-rule:evenodd;stroke:none"
         d="m 1515.41,256.504 11.61,-4.809 c 0.85,-0.582 1.43,-1.703 0.58,-2.84 -0.58,-1.14 -1.99,-1.703 -2.84,-1.14 l -11.06,4.828 c 0,0 -14.17,7.082 -13.31,8.223 0.56,1.129 15.02,-4.262 15.02,-4.262" /><path
         id="path192"
         style="fill:#000000;fill-opacity:1;fill-rule:evenodd;stroke:none"
         d="m 1333.42,136.602 c 1.13,-0.282 -2.82,-28.629 -2.82,-28.629 l -5.97,-32.8714 c 0.29,1.4101 -0.56,2.2617 -1.7,2.2617 -1.12,0.2773 -2.55,-0.5625 -2.55,-1.9922 l 5.95,33.4489 c 0,0 5.97,27.782 7.09,27.782" /><path
         id="path194"
         style="fill:#000000;fill-opacity:1;fill-rule:evenodd;stroke:none"
         d="m 1273.05,129.23 0.85,-14.171 c 0.27,-1.129 -0.85,-2.27 -1.98,-2.551 -1.15,-0.278 -2.27,0.57 -2.27,1.703 l -1.14,13.316 c 0,0 -0.28,17.582 1.14,17.864 1.12,0.289 3.4,-16.161 3.4,-16.161" /><path
         id="path196"
         style="fill:#52893d;fill-opacity:1;fill-rule:evenodd;stroke:none"
         d="m 992.129,849.512 c 0,0 9.921,0 16.451,-11.34 15.3,-26.641 35.99,-88.149 39.12,-158.738 4.52,-101.204 81.91,-390.602 111.39,-424.063 29.2,-33.449 64.91,-89.848 128.13,-90.988 63.49,-1.141 102.62,-11.051 132.66,47.898 30.05,59.25 44.22,61.801 68.6,68.61 24.09,6.793 45.35,-3.981 47.05,21.261 1.99,24.942 -17.57,32.032 -53.86,51.59 -36,19.559 -83.9,71.719 -80.78,114.238 3.12,42.524 36.28,35.993 9.36,100.34 -27.22,64.633 -48.76,92.403 -43.95,160.153 5.11,67.757 10.77,146.84 -43.37,167.82 -53.86,20.68 -128.69,31.18 -161.85,-18.43 0,0 -104.89,34.008 -168.951,-28.351" /><path
         id="path198"
         style="fill:#52893d;fill-opacity:1;fill-rule:evenodd;stroke:none"
         d="m 1143.21,662.996 c 11.91,0.57 17.86,0.852 29.77,1.422 -7.66,-58.398 -53.58,-100.07 -98.65,-142.879 -14.46,63.219 -24.95,122.18 -26.65,157.899 -1.4,32.32 -6.51,62.929 -13.32,89.011 60.94,-16.16 128.14,-32.883 108.85,-105.453" /><path
         id="path200"
         style="fill:#34763b;fill-opacity:1;fill-rule:evenodd;stroke:none"
         d="m 1034.36,768.445 c -4.25,17.293 -9.34,32.313 -14.16,45.071 83.62,-22.387 163.55,-36.86 257.37,-23.239 23.82,0.852 32.32,-44.789 55.57,-55.558 8.79,-3.981 21.25,-5.391 33.45,-3.403 0,-1.14 -0.29,-1.988 -0.29,-2.839 -4.53,-62.079 13.33,-90.711 37.13,-144.571 -43.36,-13.89 -92.68,3.41 -139.45,20.699 -9.37,-46.488 6.52,-74.839 27.48,-114.519 46.77,-90.43 -45.35,-209.77 1.7,-300.469 10.77,-16.738 70.3,-14.179 90.16,9.629 18.13,19.84 35.98,33.449 54.41,44.512 -5.39,-8.223 -11.34,-18.141 -17.85,-31.473 -30.06,-58.969 -69.17,-49.047 -132.67,-47.898 -63.21,1.129 -98.91,57.539 -128.12,90.98 -19,21.551 -58.11,150.531 -84.75,266.18 45.07,42.808 90.98,84.469 98.64,142.871 -11.91,-0.57 -77.68,87.867 -138.62,104.027" /><path
         id="path202"
         style="fill:#34763b;fill-opacity:1;fill-rule:evenodd;stroke:none"
         d="m 1189.99,815.496 c -21.84,26.934 -39.69,57.832 -73.7,70.594 26.36,-2.274 44.78,-8.231 44.78,-8.231 5.11,7.661 11.35,13.887 18.43,18.989 18.43,-17.571 12.47,-55.84 10.49,-81.352" /><path
         id="path204"
         style="fill:#000000;fill-opacity:1;fill-rule:evenodd;stroke:none"
         d="m 1417.89,213.137 c 29.77,58.679 44.22,62.66 68.04,69.168 l 1.98,0.57 c 8.22,2.262 15.6,2.551 22.39,3.109 14.17,0.582 21.84,1.129 22.96,15.871 1.7,21.258 -12.47,28.629 -40.82,43.661 l -11.89,6.23 c -35.44,19.277 -85.04,71.719 -81.94,115.938 1.15,16.16 6.53,25.511 11.34,34.019 7.94,13.891 15.03,25.801 -1.97,65.774 l -15.31,35.136 c -19.57,42.813 -32.6,71.153 -28.64,125.864 5.1,68.027 10.77,145.418 -41.95,165.539 -27.5,10.769 -120.19,40.82 -159.31,-17.289 -0.56,-0.852 -1.7,-1.411 -2.83,-1.133 -0.85,0.57 -100.62,31.742 -162.991,-24.949 3.681,-1.122 9.361,-3.668 13.611,-11.34 17.01,-29.192 36.28,-91.828 39.39,-159.59 4.54,-104.031 83.62,-391.75 110.84,-422.93 l 13.32,-15.871 c 26.93,-32.59 60.38,-73.41 113.39,-74.258 l 22.68,-0.851 c 51.02,-1.7 81.91,-2.84 107.71,47.332 m -93.83,685.136 c 55.29,-21.257 49.61,-100.07 44.51,-169.796 -3.97,-53.293 8.78,-81.364 28.06,-123.883 l 15.6,-35.141 c 17.57,-41.668 10.2,-54.707 1.7,-69.449 -4.83,-8.508 -9.64,-17.008 -10.78,-32.039 -3.12,-42.801 45.36,-93.539 79.95,-112.238 l 11.62,-6.231 c 28.9,-15.32 44.78,-23.82 43.08,-47.351 -1.41,-19.27 -14.18,-19.84 -27.78,-20.7 -6.51,-0.269 -13.89,-0.558 -21.26,-2.832 l -1.98,-0.566 c -22.4,-6.231 -36.01,-9.922 -64.92,-66.332 -27.2,-53.289 -61.23,-52.141 -112.53,-50.16 l -22.4,0.558 c -54.99,1.141 -89.01,42.524 -116.5,75.961 l -13.33,15.61 c -30.9,35.703 -107.15,325.691 -111.68,425.179 -3.12,67.473 -22.11,128.992 -38.84,157.891 -5.66,10.223 -14.439,10.492 -14.728,10.492 -0.852,0 -1.422,0.578 -1.7,1.43 -0.293,0.551 -0.293,1.699 0.559,2.258 60.089,58.671 156.479,33.171 169.509,29.492 41.96,58.949 135.79,28.629 163.84,17.847" /><path
         id="path206"
         style="fill:#000000;fill-opacity:1;fill-rule:evenodd;stroke:none"
         d="m 1162.21,879.563 c 0.85,-0.27 16.72,-9.641 25.51,-29.762 2.84,-6.238 4.54,-24.66 3.41,-24.949 -1.14,-0.282 -4.83,15.878 -7.08,21.55 -8.23,20.118 -24.11,29.481 -24.39,29.481 -1.13,0.558 -1.13,1.976 -0.57,2.828 0.85,1.129 1.99,1.43 3.12,0.852" /><path
         id="path208"
         style="fill:#000000;fill-opacity:1;fill-rule:evenodd;stroke:none"
         d="m 775.566,886.934 22.11,-14.739 c 0,0 15.019,-11.34 14.461,-12.191 -0.852,-1.129 -17.012,8.5 -17.012,8.5 l -22.109,15.031 c -0.848,0.57 -1.129,1.981 -0.571,2.828 0.852,1.141 2.27,1.422 3.121,0.571" /><path
         id="path210"
         style="fill:#f5d267;fill-opacity:1;fill-rule:evenodd;stroke:none"
         d="m 890.648,221.074 c 0,0 147.682,167.809 220.542,87.59 72.85,-80.5 -92.41,-192.762 -202.682,-165.828 -110.27,26.648 -26.93,58.398 -17.86,78.238" /><path
         id="path212"
         style="fill:#c9ab34;fill-opacity:1;fill-rule:evenodd;stroke:none"
         d="m 1114.02,229.578 c 11.34,18.981 19.56,47.91 -5.96,76.25 -12.48,13.613 -28.35,20.692 -46.76,20.41 -72.566,-1.129 -166.398,-106.867 -167.527,-107.718 0.27,0.289 0.559,0.57 0.848,0.851 -2.547,-5.66 -9.359,-11.332 -17.008,-17.57 -10.769,-9.352 -23.242,-19.563 -21.269,-28.352 1.429,-6.519 11.918,-16.719 53.301,-26.64 75.117,-18.137 173.195,30.332 204.375,82.769 m 0.27,81.91 c 22.69,-24.929 25.24,-55.547 6.82,-86.449 -33.17,-55.84 -133.528,-105.73 -213.446,-86.449 -37.699,9.07 -56.41,19.551 -59.531,32.871 -3.121,13.898 11.332,26.09 24.09,36.578 6.242,5.383 13.039,11.051 14.73,14.742 0.301,0.559 0.301,0.848 0.578,1.129 3.973,4.539 97.512,109.699 173.469,110.551 21.26,0.289 39.12,-7.371 53.29,-22.973" /><path
         id="path214"
         style="fill:#dfbd4b;fill-opacity:1;fill-rule:evenodd;stroke:none"
         d="m 913.891,187.344 c 0,0 144.279,28.91 184.549,71.719 0,0 16.14,-50.18 -65.21,-78.52 -81.359,-28.629 -75.968,-27.219 -119.339,6.801" /><path
         id="path216"
         style="fill:#c9ab34;fill-opacity:1;fill-rule:evenodd;stroke:none"
         d="m 1029.84,183.66 2.27,0.852 c 53.57,18.711 62.93,46.769 63.48,62.082 0,1.969 0,3.109 -0.28,4.519 -39.97,-34.851 -140.884,-59.242 -171.775,-66.031 34.008,-26.648 34.008,-26.648 106.305,-1.422 m 69.72,79.653 c 1.41,-0.571 2.55,-1.422 2.84,-2.833 0.28,-0.57 16.44,-54.437 -67.76,-83.91 l -1.99,-0.847 c -75.384,-26.371 -76.795,-26.93 -114.216,2.828 l -7.09,5.383 c -1.129,1.148 -1.711,2.847 -1.418,4.257 0.289,1.711 1.707,2.832 3.41,3.411 1.406,0.269 143.414,28.91 182.254,70.289 0.86,1.14 2.55,1.703 3.97,1.422" /><path
         id="path218"
         style="fill:#f5d267;fill-opacity:1;fill-rule:evenodd;stroke:none"
         d="m 827.152,215.977 c 41.391,8.5 70.301,-37.989 43.942,-79.09 -26.653,-41.1097 -64.352,-20.41 -83.063,-0.571 -18.418,20.129 -26.359,31.469 -24.66,73.141 1.703,41.672 27.5,-0.852 63.781,6.52" /><path
         id="path220"
         style="fill:#c9ab34;fill-opacity:1;fill-rule:evenodd;stroke:none"
         d="m 786.051,219.375 c -6.242,2.828 -12.762,5.391 -15.02,3.961 -0.851,-0.563 -3.121,-3.109 -3.41,-14.172 -1.699,-40.82 5.957,-51.019 23.527,-69.73 10.774,-11.618 28.352,-23.52 45.641,-21.821 11.91,1.133 22.109,8.5 30.609,21.543 11.911,18.418 12.762,39.969 1.993,56.129 -9.36,13.879 -24.661,20.121 -41.391,16.719 -16.719,-3.688 -31.461,2.832 -41.949,7.371 m 3.398,7.941 c 10.211,-4.543 22.961,-9.921 36.852,-7.089 19.84,3.957 39.121,-3.68 50.179,-20.411 12.469,-18.711 11.899,-43.652 -1.992,-65.211 -10.199,-15.582 -22.386,-24.082 -36.847,-25.5 -25.512,-2.269 -46.77,18.141 -52.719,24.379 -19.563,21.262 -27.5,34.02 -25.801,75.969 0.57,11.621 2.84,18.141 7.367,20.961 6.242,3.981 13.891,0.582 22.961,-3.098" /><path
         id="path222"
         style="fill:#c9ab34;fill-opacity:1;fill-rule:evenodd;stroke:none"
         d="m 818.082,200.098 c 19.277,-15.59 22.391,-40.539 22.68,-40.239 2.258,-1.152 3.679,36.84 -14.461,49.309 -24.09,20.129 -50.168,13.32 -49.321,14.738 -0.847,-1.699 18.993,-5.668 41.102,-23.808" /><path
         id="path224"
         style="fill:#e22228;fill-opacity:1;fill-rule:evenodd;stroke:none"
         d="m 962.367,515.879 c 0,0 -273.258,148.25 -361.418,174.051 24.379,0 263.34,0.558 400.821,-18.992 138.33,-19.848 344.98,-161.86 363.4,-174.618 -36.28,7.368 -165.27,28.629 -402.803,19.559" /><path
         id="path226"
         style="fill:#000000;fill-opacity:1;fill-rule:evenodd;stroke:none"
         d="m 1001.48,667.813 c -119.335,17.011 -315.496,18.71 -380.976,18.71 100.629,-36.57 333.641,-162.429 342.43,-167.25 212.606,7.942 338.746,-8.5 388.056,-17 -50.74,34.02 -226.77,147.969 -349.51,165.54 m 365.67,-168.938 c 1.14,-0.852 1.71,-2.273 1.14,-3.691 -0.86,-1.411 -2.27,-2.27 -3.68,-1.981 -34.02,6.809 -163.57,28.629 -402.247,19.551 -0.57,0 -1.129,0.289 -1.699,0.57 -2.551,1.418 -273.828,148.25 -360.57,173.481 -1.699,0.297 -2.551,2 -2.258,3.398 0.277,1.699 1.406,2.84 3.109,2.84 26.649,0 264.481,0.57 401.395,-18.988 138.04,-19.563 341.86,-159.313 364.81,-175.18" /><path
         id="path228"
         style="fill:#e22228;fill-opacity:1;fill-rule:evenodd;stroke:none"
         d="m 962.367,515.879 c 237.533,9.07 366.523,-12.191 402.803,-19.559 l 1.7,-1.132 c 0,0 -113.38,-231.028 -140.32,-386.079 0,0 -271.831,-7.941 -346.382,-37.4215 0,0 -271.559,119.0625 -316.918,125.5825 0,0 59.527,420.078 35.438,492.66 l 2.261,0 c 88.16,-25.801 361.418,-174.051 361.418,-174.051" /><path
         id="path230"
         style="fill:#fdfdfd;fill-opacity:1;fill-rule:evenodd;stroke:none"
         d="m 1228.83,454.363 c -15.02,5.953 -19.56,29.203 -10.5,52.16 1.14,2.551 2.28,4.821 3.41,6.801 20.41,-1.129 38.84,-2.828 55,-4.527 0,-7.371 -1.43,-15.313 -4.54,-23.531 -9.07,-22.961 -28.63,-36.571 -43.37,-30.903" /><path
         id="path232"
         style="fill:#fdfdfd;fill-opacity:1;fill-rule:evenodd;stroke:none"
         d="m 1243.85,317.449 c -14.74,5.953 -19.28,29.203 -10.21,52.16 9.08,22.961 28.64,36.852 43.38,30.911 15.02,-5.969 19.54,-29.207 10.48,-52.168 -9.35,-22.961 -28.63,-36.852 -43.65,-30.903" /><path
         id="path234"
         style="fill:#fdfdfd;fill-opacity:1;fill-rule:evenodd;stroke:none"
         d="m 1192.54,325.391 c -9.07,-22.961 -28.63,-36.86 -43.37,-30.899 -14.74,5.957 -19.56,29.199 -10.19,52.16 9.06,22.957 28.62,36.848 43.36,30.899 14.74,-5.668 19.56,-29.199 10.2,-52.16" /><path
         id="path236"
         style="fill:#fdfdfd;fill-opacity:1;fill-rule:evenodd;stroke:none"
         d="m 1220.61,215.117 c 9.07,22.692 28.34,36.289 43.09,31.18 -9.65,-28.621 -18.43,-56.969 -25.52,-84.461 -2.55,0 -4.82,0.269 -7.09,1.121 -15.02,5.969 -19.55,29.199 -10.48,52.16" /><path
         id="path238"
         style="fill:#fdfdfd;fill-opacity:1;fill-rule:evenodd;stroke:none"
         d="m 1150.3,251.688 c 15.02,-5.95 19.56,-29.2 10.49,-52.161 -9.36,-22.957 -28.62,-36.847 -43.65,-31.179 -14.75,5.953 -19.28,29.48 -10.21,52.441 9.07,22.68 28.63,36.57 43.37,30.899" /><path
         id="path240"
         style="fill:#fdfdfd;fill-opacity:1;fill-rule:evenodd;stroke:none"
         d="m 1191.12,155.879 c 13.61,-5.391 18.43,-26.359 11.62,-47.621 -14.74,-0.57 -35.43,-1.699 -59.81,-2.84 0.57,6.242 1.99,12.75 4.54,19.562 9.07,22.958 28.63,36.848 43.65,30.899" /><path
         id="path242"
         style="fill:#fdfdfd;fill-opacity:1;fill-rule:evenodd;stroke:none"
         d="m 977.387,160.691 c 14.742,-5.949 19.281,-29.199 10.203,-52.16 -2.551,-6.508 -5.953,-12.1872 -9.922,-17.0076 -15.301,-1.9687 -29.762,-3.9492 -42.801,-6.2304 -7.09,10.1992 -7.937,27.219 -1.129,44.5 9.071,22.961 28.629,36.57 43.649,30.898" /><path
         id="path244"
         style="fill:#fdfdfd;fill-opacity:1;fill-rule:evenodd;stroke:none"
         d="m 1017.93,291.094 c 9.06,22.961 28.62,36.851 43.37,30.898 15.02,-5.679 19.56,-29.199 10.49,-52.156 -9.37,-22.961 -28.64,-36.863 -43.66,-30.902 -14.74,5.961 -19.56,29.199 -10.2,52.16" /><path
         id="path246"
         style="fill:#fdfdfd;fill-opacity:1;fill-rule:evenodd;stroke:none"
         d="m 956.98,304.414 c 15.02,-5.949 19.563,-29.199 10.204,-52.16 -9.071,-22.961 -28.633,-36.852 -43.371,-30.899 -14.743,5.958 -19.551,29.2 -10.2,52.161 9.071,22.957 28.629,36.847 43.367,30.898" /><path
         id="path248"
         style="fill:#fdfdfd;fill-opacity:1;fill-rule:evenodd;stroke:none"
         d="m 871.66,418.938 c 9.352,22.957 28.629,36.847 43.649,30.898 14.742,-5.68 19.281,-29.199 10.211,-52.16 -9.071,-22.961 -28.629,-36.571 -43.372,-30.899 -15.027,5.957 -19.558,29.2 -10.488,52.161" /><path
         id="path250"
         style="fill:#fdfdfd;fill-opacity:1;fill-rule:evenodd;stroke:none"
         d="m 873.926,544.797 c 15.871,-1.981 26.082,-23.543 22.961,-47.91 -3.403,-24.383 -18.711,-42.524 -34.582,-40.543 -15.879,1.992 -26.078,23.242 -22.957,47.633 3.398,24.66 18.707,42.789 34.578,40.82" /><path
         id="path252"
         style="fill:#fdfdfd;fill-opacity:1;fill-rule:evenodd;stroke:none"
         d="m 771.598,447.852 c -15.59,1.968 -26.082,23.23 -22.68,47.621 3.117,24.66 18.711,42.808 34.59,40.82 15.871,-1.98 26.07,-23.539 22.961,-47.902 -3.41,-24.387 -19,-42.52 -34.871,-40.539" /><path
         id="path254"
         style="fill:#fdfdfd;fill-opacity:1;fill-rule:evenodd;stroke:none"
         d="m 643.184,564.641 c -15.871,1.968 -26.36,23.226 -22.961,47.617 3.121,24.66 18.711,42.812 34.582,40.82 15.879,-1.98 26.078,-23.539 22.961,-47.898 -3.403,-24.391 -18.711,-42.52 -34.582,-40.539" /><path
         id="path256"
         style="fill:#fdfdfd;fill-opacity:1;fill-rule:evenodd;stroke:none"
         d="m 633.832,501.992 c 15.871,-1.98 26.359,-23.539 22.961,-47.91 -3.121,-24.379 -18.711,-42.801 -34.578,-40.809 -15.883,1.969 -26.082,23.508 -22.961,47.899 3.398,24.371 18.711,42.789 34.578,40.82" /><path
         id="path258"
         style="fill:#fdfdfd;fill-opacity:1;fill-rule:evenodd;stroke:none"
         d="m 748.918,356.289 c 3.117,24.66 18.707,42.801 34.578,40.82 15.879,-1.992 26.078,-23.25 22.961,-47.91 -3.402,-24.371 -18.711,-42.519 -34.859,-40.531 -15.883,1.98 -26.082,23.242 -22.68,47.621" /><path
         id="path260"
         style="fill:#fdfdfd;fill-opacity:1;fill-rule:evenodd;stroke:none"
         d="m 832.539,244.602 c 15.871,-1.973 26.078,-23.532 22.68,-47.911 -3.121,-24.371 -18.711,-42.519 -34.59,-40.531 -15.871,1.981 -26.07,23.238 -22.668,47.621 3.117,24.379 18.707,42.797 34.578,40.821" /><path
         id="path262"
         style="fill:#fdfdfd;fill-opacity:1;fill-rule:evenodd;stroke:none"
         d="m 723.977,187.344 c 15.867,-1.981 26.078,-23.539 22.957,-47.91 -0.571,-3.399 -1.418,-6.801 -2.27,-9.918 -17.859,7.66 -36.277,15.027 -54.418,22.398 4.82,21.539 18.988,37.129 33.731,35.43" /><path
         id="path264"
         style="fill:#000000;fill-opacity:1;fill-rule:evenodd;stroke:none"
         d="M 960.664,513.328 C 958.113,514.75 692.223,658.75 602.645,685.961 622.773,605.461 571.754,233.27 566.934,199.531 617.676,189.891 863.152,82.7383 880.445,75.0898 953.863,103.148 1198.2,111.379 1224,112.23 c 25.79,144.848 126.14,355.75 138.61,381.54 -34,6.511 -163.27,28.058 -400.247,18.98 -0.57,0 -1.129,0.301 -1.699,0.578 M 602.086,688.789 c 0.277,0.57 -0.293,1.41 -0.293,1.992 0,-0.582 0,-1.422 0.293,-2.269 l 0,0.277 z M 962.934,519.281 c 238.956,8.789 368.786,-13.043 403.086,-19.851 l 2.55,-1.7 c 1.13,-0.851 1.7,-2.539 0.86,-3.96 -0.86,-2.282 -113.12,-232.442 -139.75,-385.231 -0.3,-1.41 -1.43,-2.551 -2.84,-2.551 -2.84,-0.289 -272.414,-8.2263 -345.547,-37.1286 -0.848,-0.3008 -1.699,-0.3008 -2.27,0 -2.828,1.1289 -271.839,118.7696 -316.058,125.0116 -1.699,0.277 -2.84,1.981 -2.551,3.68 0.559,4.25 58.68,420.379 35.149,491.238 -0.29,0.859 0,1.992 0.562,2.84 0.57,0.851 1.418,1.422 2.559,1.422 l 2.261,0 c 87.309,-25.242 352.629,-168.672 361.989,-173.77" /><path
         id="path266"
         style="fill:#000000;fill-opacity:1;fill-rule:evenodd;stroke:none"
         d="m 963.219,518.992 c 1.699,-0.566 2.551,-2.269 1.98,-3.957 -0.562,-2.551 -77.66,-272.972 -81.922,-443.3397 0,-1.7031 -1.41,-3.1328 -3.121,-3.1328 -1.699,0 -3.109,1.4297 -3.109,3.1328 3.973,171.2187 81.351,442.4887 82.199,445.0277 0.57,1.703 2.274,2.851 3.973,2.269" /><path
         id="path268"
         style="fill:#fcd01a;fill-opacity:1;fill-rule:evenodd;stroke:none"
         d="m 1200.48,514.746 c -25.8,1.422 -54.43,2.551 -86.17,3.121 -33.74,53.86 -239.251,130.68 -353.482,169.789 28.34,-0.851 58.391,-1.98 88.442,-3.398 114.8,-39.692 318.33,-115.953 351.21,-169.512" /><path
         id="path270"
         style="fill:#000000;fill-opacity:1;fill-rule:evenodd;stroke:none"
         d="m 848.129,681.145 0,0 c 0,0 -39.969,1.418 -66.051,2.546 C 900.57,642.305 1081.43,572.281 1116,520.973 c 2.56,-0.282 66.05,-2.258 77.67,-2.828 -41.1,52.168 -232.44,124.16 -345.541,163 M 1203.03,516.441 c 0.56,-0.847 0.56,-2.257 0,-3.398 -0.57,-0.859 -1.7,-1.41 -2.83,-1.41 l -85.9,3.109 c -1.13,0 -1.98,0.571 -2.55,1.422 -33.16,52.719 -234.711,128.117 -351.781,168.379 -1.699,0.559 -2.547,2.262 -2.27,3.691 0.289,1.7 1.711,2.821 3.41,2.547 l 88.442,-3.398 C 967.75,646.563 1169.86,570.582 1203.03,516.441" /><path
         id="path272"
         style="fill:#fcd01a;fill-opacity:1;fill-rule:evenodd;stroke:none"
         d="m 1115.16,516.73 c 0,0.278 -0.59,0.571 -0.86,1.129 31.75,-0.558 60.39,-1.699 86.18,-3.109 0,-0.289 0.29,-0.289 0.29,-0.57 0,0 -81.65,-238.391 -103.18,-411.59 -28.36,-1.992 -58.13,-4.2502 -87.04,-7.3712 19.84,174.0512 104.61,421.5112 104.61,421.5112" /><path
         id="path274"
         style="fill:#000000;fill-opacity:1;fill-rule:evenodd;stroke:none"
         d="m 1097.86,129.23 c 24.09,157.321 89.57,354.899 98.94,382.387 -6.24,0.301 -72.86,2.551 -79.1,2.844 -4.24,-12.473 -73.98,-219.684 -98.93,-383.523 -1.7,-11.059 -3.11,-21.54 -4.53,-32.0278 7.08,0.5586 75.68,6.2378 80.5,6.5078 0.85,7.941 1.99,15.871 3.12,23.812 m -3.68,-26.07 0,-0.293 0,0.293 z m 109.13,413 c 0.58,-0.851 0.85,-2.262 0.58,-3.109 -0.85,-2.281 -81.94,-240.102 -103.2,-410.742 -0.28,-1.7 -1.4,-2.8402 -3.11,-2.8402 l -86.74,-7.3711 c -0.85,0 -1.7,0.2812 -2.27,0.8515 -0.85,0.8516 -1.14,1.6992 -1.14,2.5586 19.56,172.3322 104.04,419.8012 104.89,422.0702 0.29,1.422 0.85,3.41 2.26,3.41 l 85.89,-3.129 c 1.14,0 2.27,-0.851 2.84,-1.699" /><path
         id="path276"
         style="fill:#fcd01a;fill-opacity:1;fill-rule:evenodd;stroke:none"
         d="m 729.926,635.215 c 0.851,2.281 1.133,3.68 1.133,3.68 92.699,26.089 268.726,13.609 371.911,2.839 31.18,-12.468 62.65,-27.5 92.69,-43.089 -98.65,11.058 -291.402,26.929 -390.332,-0.559 -24.941,12.469 -50.461,25.23 -75.402,37.129" /><path
         id="path278"
         style="fill:#000000;fill-opacity:1;fill-rule:evenodd;stroke:none"
         d="m 1101.82,638.906 c -96.93,9.91 -273.254,22.68 -367.074,-2.558 6.238,-3.114 69.16,-34.012 70.859,-34.864 93.84,25.512 266.755,13.332 372.765,2.262 -26.92,13.621 -53,25.512 -76.55,35.16 m 95.25,-37.422 c 1.41,-0.57 2,-2.277 1.41,-3.679 -0.27,-1.418 -1.69,-2.278 -3.39,-2.278 -103.17,11.348 -291.395,26.649 -389.203,-0.57 -0.551,0 -1.403,0 -1.981,0.301 l -75.398,37.129 c -1.422,0.558 -1.981,2.258 -1.692,3.687 l 1.122,3.684 c 0.289,1.117 1.136,1.969 2.269,2.269 94.117,26.348 274.113,13.028 373.053,2.828 29.47,-11.621 60.65,-26.089 93.81,-43.371" /><path
         id="path280"
         style="fill:#fcd01a;fill-opacity:1;fill-rule:evenodd;stroke:none"
         d="m 729.926,635.215 c 24.941,-11.899 50.461,-24.66 75.402,-37.129 -0.281,0 -0.57,-0.289 -0.851,-0.289 0,0 -75.399,-254.551 -107.43,-448.723 -26.93,11.051 -53.012,21.27 -75.399,29.481 28.911,182.281 98.93,424.359 108.278,456.66" /><path
         id="path282"
         style="fill:#000000;fill-opacity:1;fill-rule:evenodd;stroke:none"
         d="m 731.91,630.684 c -11.34,-38.829 -78.242,-272.981 -106.582,-449.86 4.25,-1.699 62.93,-24.66 69.16,-27.211 30.903,184.25 100.352,422.93 106.301,443.051 -5.379,2.559 -62.93,31.191 -68.879,34.02 m -0.57,7.359 75.398,-37.129 c 1.141,-0.559 1.141,-2.551 0.571,-3.961 -0.571,-2.551 -75.399,-256.539 -107.149,-448.16 -0.281,-1.141 -0.851,-1.988 -1.699,-2.27 -0.852,-0.57 -1.703,-0.57 -2.551,-0.281 l -75.121,29.481 c -1.422,0.57 -2.269,1.98 -2.269,3.402 29.199,183.109 100.347,429.449 108.289,456.949 0.281,0.852 1.129,1.699 1.98,1.969 0.852,0.582 1.699,0.582 2.551,0" /><path
         id="path284"
         style="fill:#fcd01a;fill-opacity:1;fill-rule:evenodd;stroke:none"
         d="m 992.129,632.668 c 6.519,6.52 78.531,-97.801 76.831,-110.551 -2,-12.472 -8.23,-158.172 -3.98,-179.152 3.98,-20.981 -39.68,61.23 -48.47,51.871 -8.78,-9.352 -43.369,-47.34 -49.322,-45.352 -6.239,1.704 26.921,156.473 28.339,166.114 1.422,9.347 -13.32,106.578 -3.398,117.07" /><path
         id="path286"
         style="fill:#000000;fill-opacity:1;fill-rule:evenodd;stroke:none"
         d="m 1065.84,522.688 c 1.12,10.488 -58.97,98.628 -72.012,106.007 -0.277,-0.847 -0.848,-1.988 -1.129,-3.961 -2.551,-15.597 1.692,-57.257 3.973,-79.089 1.699,-17.86 2.547,-27.207 1.969,-30.629 l -4.532,-22.961 c -5.379,-26.918 -17.57,-86.438 -22.398,-119.039 -1.402,-9.649 -2.25,-15.891 -1.973,-19.559 4.242,2.551 14.742,11.609 41.382,39.969 l 3.12,3.672 c 1.13,1.148 2.84,1.699 4.54,1.699 7.09,-0.551 17.86,-15.289 32.88,-37.692 3.4,-4.531 6.8,-9.628 9.64,-13.609 -3.13,31.469 2.26,161.578 4.54,175.192 m -70.02,112.82 c 12.75,-6.242 78.23,-99.231 76.25,-113.672 -1.98,-11.621 -8.22,-157.328 -4.26,-178.301 0.58,-1.699 1.43,-5.668 -1.7,-6.808 -3.96,-1.711 -6.24,1.418 -19.56,20.699 -7.64,11.332 -23.52,34.582 -28.35,34.859 0,-0.277 -2.55,-3.117 -2.55,-3.117 -35.431,-37.98 -44.791,-44.211 -49.599,-42.801 -2.551,0.848 -4.539,1.418 -0.281,28.918 3.121,20.41 9.64,56.121 22.109,117.922 l 4.531,22.66 c 0.57,2.571 -0.851,15.61 -2.262,29.199 -3.398,35.442 -5.957,64.918 -3.679,80.231 0.84,4.539 1.98,7.937 3.679,9.641 0.563,0.57 2.551,1.98 5.672,0.57" /><path
         id="path288"
         style="fill:#fcd01a;fill-opacity:1;fill-rule:evenodd;stroke:none"
         d="m 977.109,638.047 c 0,0 -93.832,24.09 -137.48,23.82 -43.649,-0.281 -133.801,-1.129 -158.461,25.789 -24.66,27.223 -19.559,59.52 -19.559,59.52 0,0 56.7,-37.981 75.692,-33.149 18.707,4.809 1.976,47.899 1.976,47.899 -0.277,0 23.25,-28.071 43.371,-55.571 20.411,-27.488 57.262,-29.468 88.442,-34 30.898,-4.25 105.449,-24.66 106.019,-34.308" /><path
         id="path290"
         style="fill:#000000;fill-opacity:1;fill-rule:evenodd;stroke:none"
         d="m 780.098,704.387 c 0,0 -21.258,27.207 -33.168,42.238 1.707,-7.09 2.84,-15.031 1.988,-21.828 -0.57,-2.551 -1.141,-4.82 -2.27,-6.813 -1.699,-3.679 -4.82,-5.949 -8.789,-7.089 -17,-4.54 -58.961,21.261 -73.41,30.621 -0.293,-9.629 1.41,-32.321 18.989,-51.59 23.242,-25.512 111.121,-24.942 153.64,-24.942 l 2.551,0 c 32.309,0.282 90.141,-12.468 119.898,-19.281 -22.39,8.793 -64.339,20.133 -89,23.524 l -9.64,1.429 c -28.918,3.68 -61.797,8.207 -80.789,33.731 m -38.551,59.527 43.652,-55.57 c 17.289,-23.52 47.34,-27.5 76.539,-31.457 l 9.641,-1.422 c 18.141,-2.539 108,-22.668 108.848,-37.129 0.281,-1.141 -0.289,-1.992 -1.137,-2.84 -0.852,-0.562 -1.703,-0.851 -2.832,-0.562 -0.852,0.281 -94.11,24.101 -136.629,23.812 l -2.84,0 c -46.492,-0.281 -132.941,-0.851 -157.891,26.93 -25.23,27.769 -20.691,60.648 -20.41,62.078 0,1.133 0.852,1.98 1.7,2.262 1.14,0.57 2.269,0.57 3.121,-0.282 15.589,-10.199 58.961,-36.289 73.14,-32.597 2.258,0.566 3.68,1.699 4.821,3.687 4.808,9.629 -1.993,32.031 -5.114,39.973 -0.558,1.418 0,3.117 1.422,3.969 1.418,0.558 3.121,0.269 3.969,-0.852" /><path
         id="path292"
         style="fill:#f5c715;fill-opacity:1;fill-rule:evenodd;stroke:none"
         d="m 971.152,646.27 -0.851,-4.809 c -29.199,-7.66 -124.438,7.09 -140.598,17.57 8.219,66.61 123.59,25.508 141.449,-12.761" /><path
         id="path294"
         style="fill:#fcd01a;fill-opacity:1;fill-rule:evenodd;stroke:none"
         d="m 852.383,725.359 c 15.308,22.383 53.289,49.032 84.191,29.762 31.18,-19.558 42.239,-106.59 42.239,-106.59 0,-3.39 -3.122,-5.66 -8.508,-7.09 l 0.847,4.829 c -17.859,38.273 -133.23,79.363 -141.449,12.761 -18.422,12.192 7.66,43.942 22.68,66.328" /><path
         id="path296"
         style="fill:#000000;fill-opacity:1;fill-rule:evenodd;stroke:none"
         d="m 826.871,659.309 -0.281,0 0.281,0 z m 141.168,-14.172 c -11.059,24.09 -67.187,51.59 -104.32,45.082 -17.571,-2.84 -27.5,-13.051 -30.328,-29.481 18.418,-9.371 108.281,-22.961 134.929,-15.883 l -0.281,0.282 z m 7.652,2.832 0,0.289 c -0.281,0.558 -11.339,85.597 -40.82,104.039 -30.051,18.98 -66.902,-9.371 -79.652,-28.629 l -6.52,-9.082 c -9.07,-13.328 -20.129,-29.199 -21.828,-40.527 -0.281,-1.993 -0.57,-3.692 -0.281,-5.391 0.281,-1.141 1.41,-1.699 1.98,-2.551 4.25,16.43 15.59,27.211 34.02,30.328 8.219,1.41 17.289,1.41 26.93,0 34.582,-5.109 73.699,-26.078 84.468,-48.75 l 0,-1.136 c 1.133,0.558 1.703,1.136 1.703,1.41 M 938.27,757.676 c 32.031,-19.84 43.089,-105.168 43.66,-108.86 0,-2.257 -0.571,-5.378 -4.821,-7.937 -20.98,-12.473 -130.961,3.687 -149.109,15.309 0,0.3 0,0 -0.281,0.3 -3.969,2.547 -6.52,6.231 -7.367,10.758 -0.282,2.563 -0.282,4.82 0.277,7.66 1.992,13.032 13.043,28.903 22.961,43.082 l 6.238,9.071 c 16.442,24.386 55.844,51.019 88.442,30.617" /><path
         id="path298"
         style="fill:#fcd01a;fill-opacity:1;fill-rule:evenodd;stroke:none"
         d="m 954.145,654.773 c -2.27,-15.308 8.5,-29.757 24.382,-32.027 15.868,-2.269 30.613,8.5 32.883,23.809 2.27,15.308 -8.5,29.48 -24.383,31.761 -15.871,2.258 -30.332,-8.23 -32.882,-23.543" /><path
         id="path300"
         style="fill:#000000;fill-opacity:1;fill-rule:evenodd;stroke:none"
         d="m 1008.29,646.836 c 1.97,13.609 -7.66,26.371 -21.829,28.352 -13.891,1.976 -26.93,-7.364 -29.199,-20.981 -1.981,-13.609 7.66,-26.352 21.828,-28.352 13.89,-1.98 26.92,7.661 29.2,20.981 m 6.24,-0.852 c -2.56,-17.007 -18.999,-28.91 -36.569,-26.359 -17.289,2.551 -29.481,18.422 -26.93,35.43 2.551,17.011 18.989,28.91 36.571,26.359 17.288,-2.547 29.478,-18.418 26.928,-35.43" /><path
         id="path302"
         style="fill:#fcd01a;fill-opacity:1;fill-rule:evenodd;stroke:none"
         d="m 987.313,637.766 c -0.278,3.117 1.132,6.808 4.25,11.058 13.887,19.852 75.397,70.578 125.567,65.481 50.18,-4.813 48.48,-31.461 51.6,-51.02 3.4,-19.851 13.88,-104.32 -44.52,-94.402 0.58,1.14 0.85,2.551 1.15,3.98 23.82,78.801 -70.87,78.223 -138.047,64.903" /><path
         id="path304"
         style="fill:#000000;fill-opacity:1;fill-rule:evenodd;stroke:none"
         d="m 1154.84,579.656 c 6.8,7.09 10.77,17.864 12.46,29.481 3.41,22.109 -0.26,46.769 -1.69,53.293 l -0.86,6.519 c -2.55,18.707 -5.1,37.989 -47.89,42.239 -47.34,4.82 -108.3,-43.372 -122.735,-64.071 -1.43,-2.258 -1.992,-3.679 -2.562,-5.379 33.157,6.231 102.617,14.461 129.817,-15.879 11.62,-12.75 13.91,-30.89 7.09,-53.851 0,0.281 0,0 0,0 10.77,-1.141 19.85,1.129 26.37,7.648 m 16.15,90.141 1.14,-6.231 c 1.69,-10.789 9.64,-65.476 -13.04,-88.449 -8.5,-8.777 -20.41,-11.898 -35.43,-9.347 -0.85,0.277 -1.43,0.847 -1.98,1.699 -0.57,0.57 -0.57,1.98 -0.3,2.84 l 0.85,3.109 c 6.24,20.98 4.54,37.141 -5.37,48.191 -27.23,30.329 -105.46,17.579 -128.977,13.039 -0.848,0 -1.707,0 -2.27,0.571 -0.847,0.57 -1.14,1.418 -1.418,2.269 -0.281,3.969 1.129,7.93 4.821,13.039 15.594,22.391 77.954,72 128.684,66.891 47.34,-4.531 50.75,-28.34 53.29,-47.621" /><path
         id="path306"
         style="fill:#f5c715;fill-opacity:1;fill-rule:evenodd;stroke:none"
         d="m 1125.36,572.852 c -0.28,-1.418 -0.58,-2.821 -1.13,-3.961 l -0.57,0 c -58.96,10.48 -101.48,44.511 -119.06,53.57 -11.33,5.672 -16.717,9.922 -17.287,15.301 67.177,13.332 161.857,13.89 138.047,-64.91" /><path
         id="path308"
         style="fill:#000000;fill-opacity:1;fill-rule:evenodd;stroke:none"
         d="m 1122.23,573.418 0.29,0.578 c 1.15,4.242 2,8.223 2.55,11.891 2.28,15.031 -0.55,26.929 -8.21,35.722 -26.08,28.911 -97.79,18.707 -124.442,13.887 1.687,-3.117 5.387,-6.238 13.612,-10.207 l 15.29,-9.351 c 21.27,-13.04 56.43,-34.86 100.64,-43.372 0.27,0.282 0.27,0.852 0.27,0.852 m -0.84,52.441 c 11.62,-12.75 13.9,-30.902 7.09,-53.863 l 0,0.57 -1.43,-4.808 c -0.27,-1.699 -2.25,-2.281 -3.95,-1.988 -46.49,8.5 -83.06,31.187 -104.89,44.789 l -15.02,9.058 c -11.065,5.391 -18.432,10.492 -19.002,17.86 0,1.703 1.148,3.132 2.558,3.402 31.184,6.238 106.294,16.73 134.644,-15.02" /><path
         id="path310"
         style="fill:#fdfdfd;fill-opacity:1;fill-rule:evenodd;stroke:none"
         d="m 585.93,330.488 c 6.519,16.16 20.129,25.801 30.609,21.84 10.488,-4.262 13.891,-20.711 7.367,-36.859 -6.519,-16.153 -20.41,-26.071 -30.886,-21.832 -10.493,3.972 -13.614,20.41 -7.09,36.851" /><path
         id="path312"
         style="fill:#513c3e;fill-opacity:1;fill-rule:evenodd;stroke:none"
         d="m 752.32,1488.45 c 0.278,0 0.571,0.28 0.848,0.28 0,0 -0.57,-0.28 -0.848,-0.28" /><path
         id="path314"
         style="fill:#513c3e;fill-opacity:1;fill-rule:evenodd;stroke:none"
         d="m 1334.56,1536.07 c -0.28,0 -0.58,0 -0.86,0.28" /><path
         id="path316"
         style="fill:#9f372c;fill-opacity:1;fill-rule:evenodd;stroke:none"
         d="m 1274.75,1672.7 c 0,0 -32.88,117.35 -189.36,139.18 -156.183,21.82 -282.894,-77.95 -323.714,-111.4 -40.821,-33.46 -58.11,-79.66 -62.078,-120.48 -4.25,-40.82 190.769,-133.5 375.312,-84.18 184.53,49.32 230.45,103.75 199.84,176.88" /><path
         id="path318"
         style="fill:#8a342c;fill-opacity:1;fill-rule:evenodd;stroke:none"
         d="m 1137.27,1781.83 c -44.79,-3.69 2.55,-59.53 -17.01,-67.75 -54.99,-15.31 -60.67,-55.56 -118.78,-64.63 0,0 -8.214,19.28 -13.882,32.03 -73.133,-89 -136.352,-18.71 -209.481,32.32 52.719,40.82 168.379,117.35 307.273,98.08 16.16,-2.27 30.62,-5.39 44.22,-9.64 3.69,-5.67 6.23,-12.47 7.66,-20.41" /><path
         id="path320"
         style="fill:#8a342c;fill-opacity:1;fill-rule:evenodd;stroke:none"
         d="m 699.594,1580 c 3.972,40.82 21.261,87.02 62.082,120.48 4.527,3.68 9.918,8.22 16.437,13.32 5.672,-3.96 11.051,-7.94 16.723,-11.91 -73.699,-71.14 -21.262,-139.75 39.687,-202.96 -81.07,21.84 -137.199,58.96 -134.929,81.07" /><path
         id="path322"
         style="fill:#000000;fill-opacity:1;fill-rule:evenodd;stroke:none"
         d="m 1074.34,1498.36 c -153.645,-41.09 -306.992,15.87 -354.902,55.57 -11.903,9.91 -17.864,18.98 -17.293,25.78 2.839,28.08 14.46,80.51 61.23,118.78 134.082,109.98 248.885,121.05 321.735,110.83 152.78,-21.26 186.8,-136.05 187.09,-137.19 0,-0.29 0.26,-0.29 0.26,-0.29 10.79,-26.36 11.36,-48.75 1.16,-68.88 -20.41,-40.53 -83.64,-73.69 -199.28,-104.6 m -314.363,204.09 c -48.192,-39.4 -60.102,-93.54 -63.211,-122.16 -0.86,-8.8 5.949,-19 19.269,-30.34 48.762,-40.25 204.102,-98.07 359.725,-56.68 117.06,31.45 181.41,65.47 202.67,107.43 10.78,21.53 10.49,45.35 -1.13,72.84 l 0.27,-0.27 c -0.55,1.41 -35.43,119.34 -191.61,141.16 -73.98,10.2 -190.495,-0.86 -325.983,-111.98" /><path
         id="path324"
         style="fill:#f3f5f7;fill-opacity:1;fill-rule:evenodd;stroke:none"
         d="m 1280.98,1711.82 c 52.72,11.91 103.18,-12.47 72.29,-56.69 0,0 60.66,-15.03 30.89,-85.61 -29.75,-70.58 -179.71,-123.02 -292.82,-141.16 -113.094,-18.15 -211.453,-20.13 -295.934,-3.7 -84.468,16.45 -91,-3.96 -130.961,28.64 -39.687,32.32 -10.199,115.36 19.274,127.56 29.199,12.46 50.179,23.53 83.34,18.42 0,0 -22.68,28.63 1.418,38.56 23.808,9.92 73.98,-48.77 162.429,-65.77 88.724,-17.29 141.164,-10.5 233.584,31.75 92.41,42.52 85.32,58.39 92.11,83.91 7.09,25.79 24.38,24.09 24.38,24.09" /><path
         id="path326"
         style="fill:#dcdde3;fill-opacity:1;fill-rule:evenodd;stroke:none"
         d="m 1340.51,1616.86 c -24.38,20.12 -58.96,28.34 -50.46,62.07 -1.7,22.12 44.8,3.68 58.97,24.66 -0.29,0.29 -0.29,0.57 -0.57,0.86 15.6,-9.93 20.41,-27.22 4.82,-49.32 0,0 60.66,-15.04 30.89,-85.61 -4.25,-9.93 -10.77,-19.27 -19.27,-28.63 9.64,28.06 3.68,56.68 -24.38,75.97" /><path
         id="path328"
         style="fill:#dcdde3;fill-opacity:1;fill-rule:evenodd;stroke:none"
         d="m 683.723,1580.86 c 29.199,12.46 50.168,23.52 83.34,18.43 0,0 -22.68,28.62 1.417,38.55 7.653,3.11 18.422,-0.86 32.309,-8.52 2.844,-22.11 30.051,-39.68 24.383,-53.57 -17.859,-30.32 -51.59,-6.52 -83.34,-4.54 -69.73,1.15 -53.293,-90.42 -14.172,-126.99 6.52,-4.54 13.32,-8.79 19.84,-13.04 -41.391,3.12 -52.437,-2.82 -83.059,22.11 -39.679,32.32 -10.199,115.37 19.282,127.57" /><path
         id="path330"
         style="fill:#000000;fill-opacity:1;fill-rule:evenodd;stroke:none"
         d="m 1165.61,1601.55 c 83.07,37.98 87.02,55.56 91.84,77.39 l 1.71,8.22 c 6.23,22.96 20.97,22.11 21.54,22.11 l 0.85,0 c 32.04,7.37 63.22,0.85 74.27,-15.03 7.09,-10.2 5.38,-23.24 -4.55,-37.7 -0.56,-0.85 -0.56,-1.7 -0.27,-2.55 0.27,-0.57 0.86,-1.42 1.7,-1.42 0.28,0 22.12,-5.67 32.03,-25.22 7.66,-15.03 6.52,-34.02 -3.12,-56.98 -27.5,-65.2 -166.97,-119.62 -290.54,-139.47 -115.664,-18.7 -212.324,-19.84 -295.093,-3.68 -33.731,6.52 -55.274,7.37 -71.161,7.65 -24.082,0.85 -35.14,1.42 -58.66,20.41 -20.133,16.44 -19.562,44.51 -17.011,59.81 4.242,28.63 20.121,56.98 35.429,63.5 l 9.352,3.97 c 24.66,10.49 43.937,18.71 72.859,14.17 0.852,0 1.969,0.57 2.551,1.42 0.559,0.85 0.559,1.98 -0.289,2.83 0,0.29 -11.352,14.74 -8.5,25.51 1.117,3.97 3.969,6.81 8.789,8.79 9.617,4.25 25.5,-5.1 47.617,-18.14 27.203,-16.16 64.633,-38.27 113.383,-47.62 90.144,-17.58 142.864,-10.49 235.274,32.03 m -398.274,38.55 c -6.512,-2.55 -10.481,-6.8 -11.902,-12.47 -1.7,-5.95 0,-12.19 2.261,-17.58 1.43,-3.11 2.852,-5.67 3.969,-7.65 -26.918,2.83 -46.199,-5.1 -69.719,-15.02 l -9.351,-3.97 c -17.289,-7.09 -34.297,-36.85 -38.848,-67.47 -4.242,-28.34 2.551,-51.3 18.988,-64.91 24.961,-20.13 37.153,-20.41 61.813,-21.26 15.59,-0.57 37.117,-1.13 70.578,-7.65 83.34,-16.44 180.281,-15.03 296.785,3.68 101.2,16.16 263.05,67.75 294.79,142.58 9.64,22.97 11.07,42.52 4.25,58.4 -0.54,0.85 -1.11,1.98 -1.4,2.83 -8.78,17.29 -25.5,24.66 -32.32,26.93 9.65,15.31 9.36,27.21 5.95,35.44 -0.84,1.98 -1.98,3.68 -2.82,5.1 -12.77,17.86 -45.36,24.94 -79.66,17.29 -2.54,0.28 -19.56,0.28 -26.65,-25.8 l -1.98,-8.5 c -4.55,-20.41 -7.93,-36.85 -88.73,-73.7 -91.27,-41.95 -143.14,-49.04 -231.875,-31.75 -47.91,9.36 -85.031,31.18 -111.961,47.06 -23.25,13.6 -39.969,23.52 -52.168,18.42" /><path
         id="path332"
         style="fill:#f3f5f7;fill-opacity:1;fill-rule:evenodd;stroke:none"
         d="m 798.809,1727.41 c 34.3,-46.2 99.5,-68.31 142.3,-51.59 43.09,16.72 55.829,46.2 55.829,46.2 0,0 2.562,-38.26 30.912,-26.36 28.35,11.91 29.76,41.39 29.76,41.39 0,0 21.55,-19.84 43.37,-10.77 21.83,9.07 -22.11,71.43 -22.11,71.43 0,0 26.93,6.24 30.05,31.46 3.12,25.23 -61.8,49.89 -61.8,49.89 0,0 25.8,14.74 4.54,39.69 -21.26,25.23 -102.051,-4.82 -109.422,-35.43 0,0 -0.847,43.65 -32.308,35.71 -31.18,-7.94 -39.121,-49.32 -39.121,-49.32 0,0 -44.219,-4.54 -67.461,-28.06 -23.25,-23.53 -29.481,-80.51 -4.539,-114.24" /><path
         id="path334"
         style="fill:#dcdde3;fill-opacity:1;fill-rule:evenodd;stroke:none"
         d="m 803.344,1841.64 c 3.121,3.12 6.519,5.95 10.203,8.5 -13.32,-45.92 -7.652,-90.99 30.34,-122.74 30.039,-32.88 94.386,-21.26 119.617,27.22 10.199,11.9 -6.52,50.17 15.019,36.56 18.711,-7.37 16.731,-38.55 34.587,-61.23 0,0 18.43,-7.37 22.39,1.71 10.2,11.9 -4.82,28.34 5.68,40.25 8.21,-19.28 24.09,-20.13 46.48,-18.43 -4.53,28.35 -49.32,24.66 -44.78,49.33 3.96,9.35 38.26,0.85 35.71,7.37 2.84,46.77 -61.79,34.86 -78.54,73.41 19.56,7.94 40.27,12.48 59.27,21.26 4.25,-16.44 -12.21,-25.79 -12.21,-25.79 0,0 64.93,-24.66 61.8,-49.89 -3.11,-25.23 -30.03,-31.47 -30.03,-31.47 0,0 43.92,-62.36 22.1,-71.43 -21.82,-9.07 -43.37,10.77 -43.37,10.77 0,0 -1.41,-29.48 -29.77,-41.38 -28.336,-11.91 -30.887,26.36 -30.887,26.36 0,0 -12.758,-29.48 -55.848,-46.21 -42.8,-16.72 -108,5.39 -142.3,51.59 -24.942,33.74 -18.7,90.71 4.539,114.24" /><path
         id="path336"
         style="fill:#000000;fill-opacity:1;fill-rule:evenodd;stroke:none"
         d="m 944.789,1882.74 c 3.68,15.31 30.609,33.46 60.091,40.55 20.98,4.8 37.71,2.55 44.79,-5.97 6.24,-7.37 8.8,-14.44 7.66,-20.69 -1.99,-9.64 -11.33,-15.31 -11.63,-15.31 -0.85,-0.55 -1.13,-1.41 -1.13,-2.55 0,-0.84 0.58,-1.7 1.7,-1.98 17.29,-6.81 62.36,-28.34 59.81,-47.34 -2.83,-22.96 -26.93,-28.91 -28.06,-29.2 -0.85,-0.28 -1.42,-0.85 -1.7,-1.7 -0.28,-0.85 -0.28,-1.69 0.28,-2.26 9.07,-12.75 31.48,-49.05 27.21,-63.22 -0.85,-2.27 -1.97,-3.68 -3.96,-4.53 -19.85,-8.23 -40.26,10.2 -40.53,10.48 -0.85,0.57 -1.99,0.86 -2.84,0.57 -0.86,-0.57 -1.7,-1.41 -1.7,-2.27 0,-1.12 -1.7,-28.34 -28.07,-39.12 -6.23,-2.82 -11.62,-2.82 -15.87,-0.27 -9.92,5.95 -11.051,24.09 -11.051,24.09 0,1.41 -1.141,2.27 -2.277,2.55 -1.121,0.29 -2.262,-0.57 -2.832,-1.69 -0.282,-0.29 -13.321,-28.64 -54.43,-44.52 -42.801,-16.72 -106.578,6.52 -139.18,50.75 -24.371,32.59 -18.14,88.16 4.258,110.84 22.113,22.39 65.481,27.2 65.762,27.2 1.129,0.28 2.269,1.14 2.269,2.28 0.282,0.27 7.93,39.39 37.411,47.04 6.808,1.71 12.191,0.85 16.73,-2.27 11.34,-8.5 12.191,-30.89 12.191,-30.89 0,-1.42 1.129,-7.93 2.547,-7.93 1.422,-0.29 2.274,5.94 2.551,7.36 m -76.25,-10.49 c -7.367,-1.12 -45.359,-6.8 -67.18,-28.91 -23.808,-24.1 -31.179,-81.64 -4.539,-117.36 34.02,-45.92 100.352,-70.01 145.418,-52.44 31.461,12.19 47.051,30.91 53.293,40.55 0.86,-2.55 1.418,-5.68 2.828,-8.8 1.991,-4.52 5.121,-9.07 9.641,-11.9 5.67,-3.41 12.76,-3.41 20.98,0 22.68,9.35 28.91,29.49 30.61,38.56 7.37,-5.4 24.38,-15.59 42.25,-8.23 3.67,1.41 5.94,4.25 7.09,7.93 1.97,7.09 -0.85,17.58 -5.68,28.35 -6.52,15.02 -16.16,30.34 -20.41,36.29 7.65,2.84 26.09,11.34 28.63,32.59 0.56,3.41 -0.29,6.52 -1.69,9.92 -8.23,19.29 -44.8,35.72 -57.27,41.11 3.68,2.83 8.51,7.93 9.92,15.59 0.85,4.81 0.28,9.63 -1.99,14.45 -1.41,3.69 -3.68,7.09 -6.51,10.5 -8.78,10.48 -26.94,13.03 -50.18,7.64 -23.531,-5.38 -49.609,-18.98 -59.809,-35.43 -0.851,3.97 -1.703,8.52 -3.691,13.04 -2.262,4.82 -5.102,9.35 -9.629,12.48 -5.672,4.25 -13.043,5.38 -21.262,3.39 -29.199,-7.64 -38.839,-41.37 -40.82,-49.32" /><path
         id="path338"
         style="fill:#b3b5ba;fill-opacity:1;fill-rule:evenodd;stroke:none"
         d="m 1031.25,1884.73 c 9.07,-0.57 16.44,-3.12 16.72,-3.12 1.41,-0.57 2.26,-1.98 1.71,-3.4 -0.57,-1.42 -1.99,-1.98 -3.41,-1.42 0,0 -6.23,1.99 -14.17,2.55 -5.39,0.57 -20.41,-2.26 -20.98,-0.85 -0.56,1.42 14.18,6.52 20.13,6.24" /><path
         id="path340"
         style="fill:#b3b5ba;fill-opacity:1;fill-rule:evenodd;stroke:none"
         d="m 781.234,1635 c 1.981,-1.7 5.672,-4.55 9.922,-7.37 5.668,-3.7 19.84,-8.79 19.84,-10.2 0,-1.43 -15.871,1.41 -21.543,5.09 -6.519,3.98 -11.34,8.23 -11.617,8.5 -1.141,0.86 -1.141,2.55 -0.281,3.69 0.851,1.13 2.55,1.13 3.679,0.29" /><path
         id="path342"
         style="fill:#9f372c;fill-opacity:1;fill-rule:evenodd;stroke:none"
         d="m 555.027,236.387 c 7.942,0.269 28.633,-8.508 30.051,-19.289 1.981,-12.172 0.281,-11.332 22.391,-12.743 22.39,-1.136 30.051,-3.128 40.82,-11.617 3.969,-3.41 6.238,-10.781 13.039,-14.179 8.789,-4.532 10.77,-31.473 5.102,-40.543 -9.352,-15.297 -11.903,-11.899 -31.461,-12.188 -21.551,-0.269 -73.699,21.551 -89.289,37.981 -15.313,15.879 -31.469,52.168 -14.742,70.867 2.55,2.832 5.101,1.711 6.523,5.109" /><path
         id="path344"
         style="fill:#000000;fill-opacity:1;fill-rule:evenodd;stroke:none"
         d="m 536.035,79.3477 c -30.051,11.8984 -50.172,29.1993 -59.238,51.5903 -12.762,30.898 -0.57,61.218 3.398,69.726 15.02,32.031 47.621,45.922 83.051,35.992 14.18,-4.242 22.957,-10.191 26.078,-18.129 1.699,-5.101 0.852,-9.64 0,-12.472 7.371,0.57 25.512,0.851 46.211,-5.95 2.828,-0.847 5.668,-1.71 8.5,-3.121 22.391,-9.078 27.781,-34.578 26.649,-61.519 0,-5.949 -3.118,-17.848 -3.969,-17.848 -0.57,0 -0.289,13.598 -0.289,20.41 0.57,24.661 -4.531,47.34 -23.813,55.27 -2.828,1.141 -5.379,1.988 -8.218,2.84 -25.79,8.488 -48.192,5.379 -48.469,5.379 l -0.852,0 c -0.57,0.289 -0.847,0.558 -1.129,0.851 -0.57,0.848 -0.57,1.699 0,2.258 0,0.289 3.68,5.961 1.129,12.473 -2.269,6.527 -10.488,11.918 -22.961,15.316 -33.449,9.641 -64.058,-3.687 -77.949,-33.449 -3.969,-8.219 -15.59,-37.129 -3.41,-66.328 8.793,-21.539 27.781,-37.9925 56.98,-49.3323 7.942,-3.1094 15.59,-5.9375 22.961,-8.207 32.321,-10.5 56.129,-13.6133 71.719,-14.1914 10.492,-0.2696 24.383,1.9882 23.813,1.1484 -0.282,-1.418 -0.571,-2.2695 -0.852,-2.8477 -0.281,-0.5507 -0.852,-1.1211 -1.422,-1.1211 -1.699,-0.5781 -40.816,-8.789 -117.918,21.2618" /></g></g></svg>