<?xml version="1.0" encoding="UTF-8" standalone="no"?>
<svg
   xmlns:dc="http://purl.org/dc/elements/1.1/"
   xmlns:cc="http://creativecommons.org/ns#"
   xmlns:rdf="http://www.w3.org/1999/02/22-rdf-syntax-ns#"
   xmlns:svg="http://www.w3.org/2000/svg"
   xmlns="http://www.w3.org/2000/svg"
   viewBox="0 0 248.03751 248.03751"
   height="248.03751"
   width="248.03751"
   xml:space="preserve"
   version="1.1"
   id="svg2"><metadata
     id="metadata8"><rdf:RDF><cc:Work
         rdf:about=""><dc:format>image/svg+xml</dc:format><dc:type
           rdf:resource="http://purl.org/dc/dcmitype/StillImage" /></cc:Work></rdf:RDF></metadata><defs
     id="defs6" /><g
     transform="matrix(1.25,0,0,-1.25,0,248.0375)"
     id="g10"><g
       transform="scale(0.1,0.1)"
       id="g12"><path
         id="path14"
         style="fill:#e0e6df;fill-opacity:1;fill-rule:nonzero;stroke:none"
         d="m 1694.39,1369.82 c 0,0 34.88,57.83 113.97,67.46 79.35,9.36 122.73,-145.98 109.69,-319.18 -13.03,-172.912 -65.76,-248.03 -128.12,-247.182 -62.36,0.852 -33.18,53.859 -20.13,58.102 13.04,4.257 60.38,-21.262 83.91,85.9 23.52,107.44 9.08,348.38 -51.3,353.77 -60.39,5.38 -100.07,-58.4 -100.07,-58.4" /><path
         id="path16"
         style="fill:#000000;fill-opacity:1;fill-rule:nonzero;stroke:none"
         d="m 1689.86,1372.65 c -0.57,-1.13 -0.85,-2.55 -0.85,-3.97 l 7.94,-59.24 c 0.28,-2.27 1.98,-3.97 4.25,-4.54 2.27,-0.56 4.53,0.57 5.67,2.55 0.56,0.57 38.55,60.95 94.96,55.56 6.8,-0.56 13.6,-5.38 19.84,-14.45 37.71,-53.58 47.34,-238.68 26.93,-332.51 -18.43,-83.62 -49.89,-82.198 -68.6,-81.07 -4.82,0.282 -8.5,0.282 -11.62,-0.57 -10.21,-3.398 -24.09,-23.808 -22.11,-42.23 1.42,-9.637 8.5,-26.36 43.65,-26.93 72.57,-0.848 121.33,90.992 133.51,252.57 10.21,135.77 -14.45,257.95 -60.94,304.15 -16.17,16.16 -34.58,22.96 -54.43,20.7 -81.07,-9.64 -116.78,-67.75 -118.2,-70.02 m 119.06,58.96 c 16.72,1.98 32.03,-3.97 45.92,-17.86 44.5,-43.93 67.73,-162.71 57.82,-295.37 -11.62,-154.478 -56.41,-242.931 -122.45,-242.079 -14.18,0.289 -31.47,3.422 -33.17,17.59 -1.42,13.308 10.21,28.339 14.17,29.75 1.42,0.57 4.82,0.289 7.94,0 19.28,-0.848 59.53,-2.828 79.94,90.429 19.27,88.44 14.17,280.34 -28.63,341.29 -7.94,11.62 -17.29,17.86 -27.5,18.99 -47.62,4.25 -82.2,-31.18 -96.94,-49.89 -1.99,15.31 -5.39,40.82 -5.96,43.94 5.67,8.22 39.69,54.99 108.86,63.21" /><path
         id="path18"
         style="fill:#e0e6df;fill-opacity:1;fill-rule:nonzero;stroke:none"
         d="m 1166.31,582.355 c 0,0 -19.56,-24.941 -12.2,-64.91 7.09,-39.972 87.32,-96.109 336.48,-49.05 231.59,43.941 274.68,70.308 298.2,113.109 23.54,43.09 4.82,86.172 -9.91,96.379 -14.75,10.203 -612.57,-95.528 -612.57,-95.528" /><path
         id="path20"
         style="fill:#bec9be;fill-opacity:1;fill-rule:nonzero;stroke:none"
         d="m 1202.02,595.676 c 0,0 -17.29,-21.262 -11.06,-55.563 6.24,-34.3 76.26,-81.918 294.81,-40.25 202.96,38.832 240.66,61.512 261.64,98.09 20.69,36.84 4.25,73.692 -8.51,82.192 -12.75,8.789 -536.88,-84.469 -536.88,-84.469" /><path
         id="path22"
         style="fill:#ffffff;fill-opacity:1;fill-rule:nonzero;stroke:none"
         d="m 1731.25,546.063 c 0,0 37.13,30.621 35.15,57.269 -1.99,26.652 -51.87,-11.066 -51.87,-11.066 0,0 20.97,5.968 26.92,-11.332 5.96,-17.289 -10.2,-34.871 -10.2,-34.871" /><path
         id="path24"
         style="fill:#000000;fill-opacity:1;fill-rule:nonzero;stroke:none"
         d="m 1162.05,586.035 c -0.85,-1.121 -20.98,-27.5 -13.32,-69.73 7.66,-42.52 88.44,-101.481 342.71,-53.289 229.04,43.648 276.66,69.73 301.89,115.929 25.22,45.641 5.95,91.559 -11.63,103.481 -3.68,2.82 -10.77,7.64 -315.49,-43.102 -149.67,-24.66 -299.34,-51.008 -300.76,-51.308 -1.42,-0.282 -2.55,-1.129 -3.4,-1.981 m 327.69,-111.961 c -246.62,-46.777 -324.01,8.5 -330.52,44.5 -5.67,31.75 6.23,53.012 9.92,58.672 233,41.098 583.94,100.07 606.89,95.527 6.52,-4.527 14.18,-17.289 17.02,-34.019 2.83,-15.859 1.7,-35.149 -9.08,-54.418 -22.96,-41.941 -70.86,-68.031 -294.23,-110.262" /><path
         id="path26"
         style="fill:#e0e6df;fill-opacity:1;fill-rule:nonzero;stroke:none"
         d="m 954.555,1138.79 c 0,0 45.925,-132.09 71.155,-149.388 0,0 54.7,-84.757 89.29,-215.429 34.87,-130.68 43.94,-202.387 43.94,-202.387 0,0 42.52,-72.293 259.65,-40.82 217.14,31.179 349.51,84.187 371.62,145.699 21.83,61.5 7.66,406.485 -78.52,628.435 0,0 10.2,19.56 -3.4,57.83 -13.9,38.26 -43.08,124.15 -77.95,133.51 -34.88,9.64 -675.785,-357.45 -675.785,-357.45" /><path
         id="path28"
         style="fill:#000000;fill-opacity:1;fill-rule:nonzero;stroke:none"
         d="m 952.008,1143.61 c -2.27,-1.13 -3.121,-3.68 -2.832,-5.95 0,-0.29 0,-0.57 0.281,-0.85 4.531,-13.61 45.91,-130.68 72.003,-151.087 3.11,-5.098 55.27,-88.442 88.44,-213.45 20.69,-77.949 32.31,-135.5 38.27,-168.66 3.97,-21.261 5.38,-32.601 5.38,-32.879 0,-0.293 0,-0.293 0.29,-0.293 0,-0.847 0.27,-1.41 0.56,-1.976 1.7,-3.121 46.78,-74.832 264.75,-43.383 219.41,31.762 352.64,84.77 375.88,149.68 15.59,43.09 13.33,229.613 -19.84,414.138 -13.89,75.69 -32.6,150.8 -57.54,216 1.7,4.82 5.1,17.86 1.42,38.27 -1.14,6.52 -2.85,13.61 -5.67,21.54 l -2.27,5.67 c -15.32,42.52 -43.67,121.61 -79.37,131.25 -35.16,9.63 -572.61,-296.51 -679.752,-358.02 m 676.912,347.24 c 30.33,-8.22 58.68,-86.74 72,-124.44 l 2.27,-5.67 c 12.47,-35.15 3.97,-53.29 3.69,-53.57 -0.57,-1.42 -0.85,-3.12 -0.29,-4.54 85.88,-221.1 100.06,-564.087 78.52,-624.196 -21.54,-59.801 -155.34,-111.68 -367.08,-142.282 -198.15,-28.629 -248.6,30.332 -253.7,37.692 -0.57,2.84 -1.99,13.609 -5.39,32.039 -5.95,33.449 -17.86,91.269 -38.56,169.789 -34.58,129.82 -89.58,216 -90.13,216.851 -0.57,0.571 -0.85,1.141 -1.42,1.418 -18.99,13.039 -53.861,103.179 -67.752,142.299 245.482,140.6 640.352,359.15 667.842,354.61" /><path
         id="path30"
         style="fill:#ffea00;fill-opacity:1;fill-rule:evenodd;stroke:none"
         d="m 995.652,1118.67 c 0,0 41.668,-119.912 64.368,-135.502 0,0 49.88,-76.82 81.34,-195.301 31.48,-118.488 39.68,-183.691 39.68,-183.691 0,0 38.57,-65.481 235.57,-36.848 197,28.348 316.91,76.25 336.75,132.098 20.12,55.84 7.09,368.784 -70.87,569.764 0,0 9.08,17.86 -3.4,52.72 -12.46,34.59 -39.11,112.54 -70.59,121.04 -1.12,0.29 -3.11,0.29 -5.39,-0.28 -67.18,-14.17 -607.458,-324 -607.458,-324" /><path
         id="path32"
         style="fill:#ffac00;fill-opacity:1;fill-rule:evenodd;stroke:none"
         d="m 995.652,1118.67 c 0,0 41.668,-119.912 64.368,-135.502 0,0 49.88,-76.82 81.34,-195.301 31.48,-118.488 39.68,-183.691 39.68,-183.691 0,0 38.57,-65.481 235.57,-36.848 58.68,8.508 110.54,18.707 154.77,30.328 -11.64,-1.129 -23.82,-1.418 -35.73,-1.129 -89.29,-24.66 -193.6,-15.879 -236.41,54.141 -60.08,89.289 -111.38,220.25 -71.72,336.469 8.79,18.143 32.34,30.623 56.7,38.843 -47.06,-10.21 -99.77,-9.64 -129.83,30.61 -14.74,19.56 -25.78,51.31 -6.51,66.9 149.1,101.76 414.42,111.4 460.62,319.46 -1.12,0.29 -3.11,0.29 -5.39,-0.28 -67.18,-14.17 -607.458,-324 -607.458,-324" /><path
         id="path34"
         style="fill:#ffffff;fill-opacity:1;fill-rule:nonzero;stroke:none"
         d="m 993.105,1123.48 -4.25,-2.27 1.7,-4.52 c 4.25,-12.19 41.675,-118.213 65.485,-137.206 3.12,-4.816 50.17,-80.218 79.94,-193.316 19,-70.871 29.47,-122.742 34.86,-152.793 3.39,-19.559 4.82,-29.758 4.82,-30.051 l 0.27,-1.129 0.57,-0.847 c 1.7,-2.84 42.52,-68.321 240.66,-39.692 199.02,28.918 320.32,77.11 341.29,136.071 14.19,39.109 11.93,208.628 -18.13,375.873 -12.46,68.6 -29.48,136.91 -52.16,195.59 1.7,4.82 4.82,16.73 1.41,35.15 -1.12,5.67 -2.82,12.46 -5.37,19.55 l -1.7,5.11 c -13.89,38.55 -39.68,110.55 -72.57,119.34 -32.04,8.79 -519.59,-269.02 -616.825,-324.86 m 613.985,314.09 c 27.5,-7.37 53,-78.52 65.2,-112.54 l 1.69,-5.39 c 11.36,-31.18 3.7,-47.61 3.7,-47.91 l -1.14,-2.27 0.85,-2.25 c 77.66,-200.41 90.43,-511.374 70.88,-565.804 -19.29,-54.14 -140.34,-100.91 -332.23,-128.691 -178.31,-25.797 -224.5,26.64 -229.88,33.73 -0.3,3.121 -1.71,12.473 -4.55,29.2 -5.68,30.332 -16.16,82.773 -35.16,153.921 -31.18,117.918 -81.34,196.161 -81.9,196.719 l -0.57,1.141 -0.85,0.558 c -16.74,11.34 -48.18,92.406 -60.95,128.136 230.73,132.09 579.12,325.13 604.91,321.45" /><path
         id="path36"
         style="fill:#ffea00;fill-opacity:1;fill-rule:evenodd;stroke:none"
         d="m 1078.71,1527.99 c -5.95,1.42 -12.19,1.7 -18.71,0.28 -15.87,-3.4 -28.06,-15.3 -32.88,-30.04 -5.95,1.41 -12.19,1.41 -18.7,0 -24.389,-5.11 -40.537,-29.77 -36.01,-55 0.852,-5.67 2.84,-10.77 5.672,-15.3 -18.992,-9.64 -30.609,-31.18 -26.652,-53.29 1.422,-6.81 3.691,-12.76 7.371,-18.15 -5.379,0.57 -11.051,0.29 -16.719,-1.13 -32.312,-6.8 -53.57,-39.4 -47.621,-72.57 3.41,-18.71 14.738,-33.45 29.762,-41.95 -3.403,-5.1 -5.383,-11.34 -6.231,-17.57 -16.152,-11.63 -25.519,-32.32 -21.551,-53.58 2.84,-15.31 11.629,-27.5 23.809,-34.58 -1.98,-5.95 -2.551,-12.47 -1.117,-19.28 0,-0.85 0.269,-1.7 0.558,-2.55 -0.289,-9.64 1.981,-22.39 12.758,-36 21.543,-28.06 26.922,-49.6 28.063,-86.171 1.129,-36.851 7.078,-116.222 29.187,-101.769 22.401,14.738 -15.867,181.14 -0.277,201.55 15.588,20.41 28.908,-7.94 32.598,-28.63 3.68,-20.41 11.9,-42.81 33.73,-18.14 21.84,24.37 -1.7,94.67 21.84,101.19 4.52,1.14 9.63,1.99 14.73,2.84 7.38,-2.55 15.59,-3.12 23.81,-1.42 19,4.25 33.17,19.56 37.13,37.98 9.07,-8.22 21.84,-11.9 34.87,-9.07 17.57,3.69 30.61,18.43 33.45,35.72 28.92,4.54 87.31,23.24 193.6,91.28 41.1,26.36 75.97,50.17 104.6,70.58 6.8,-1.99 13.89,-2.55 21.55,-0.85 20.69,4.25 35.14,22.68 36.56,43.37 1.13,0.85 1.99,1.7 3.12,2.27 5.1,-0.85 10.78,-0.85 16.44,0.28 17.3,3.97 30.33,17.86 34.31,34.87 15.3,10.77 29.47,26.92 5.66,41.66 1.98,5.96 2.83,12.76 1.43,19.56 -3.42,20.13 -22.41,32.89 -41.97,28.63 -0.85,0 -1.4,-0.28 -2.26,-0.56 0,2.55 -0.28,5.1 -0.85,7.65 -5.11,28.06 -31.47,46.2 -58.67,40.25 -7.67,-1.42 -14.18,-4.82 -20.14,-9.07 -9.92,17.29 -30.05,26.93 -50.45,22.4 -3.69,-0.86 -7.36,-1.99 -10.49,-3.69 -0.29,1.13 -0.29,2.27 -0.56,3.12 -5.68,31.18 -34.88,51.31 -65.21,44.79 -24.09,-5.11 -41.94,-25.8 -45.07,-49.89 -8.22,4.53 -17.86,6.23 -27.49,3.96 -9.35,-1.98 -17.28,-7.08 -23.25,-13.89 -7.36,13.61 -22.67,21.26 -38.27,17.86 -11.05,-2.55 -20.12,-9.64 -24.93,-19.27 -16.73,29.76 -50.47,46.49 -85.32,39.12 -43.67,-9.36 -72.57,-53.01 -65.21,-97.8" /><path
         id="path38"
         style="fill:#ffac00;fill-opacity:1;fill-rule:evenodd;stroke:none"
         d="m 1535.09,1590.35 -0.27,0 c -2,-0.28 -3.98,-1.13 -5.97,-1.7 7.95,-5.1 18.71,-7.94 23.82,-15.31 15.59,-24.94 -5.11,-63.49 -32.6,-63.78 25.23,-17.29 2.55,-44.78 -12.48,-53.57 -16.14,-13.04 -55.56,-27.21 -65.48,-7.09 2.28,-24.94 -1.12,-53.57 -26.64,-63.78 -26.65,-5.67 -61.8,-24.66 -83.61,4.82 2.82,-16.44 -4.83,-35.15 -10.22,-36.28 -25.51,-11.06 -74.82,-44.51 -87.87,-1.99 -14.73,-71.15 -72.85,-117.64 -132.95,-90.71 -29.48,10.49 -30.9,49.89 -36.84,82.78 -22.69,-27.5 -51.6,-50.74 -91.843,-42.24 -25.797,9.92 -38.278,27.78 -43.09,49.61 -24.668,-11.91 -39.688,-39.69 -34.59,-68.32 3.402,-18.71 14.75,-33.45 29.77,-41.95 -3.411,-5.1 -5.387,-11.34 -6.227,-17.58 -16.172,-11.62 -25.523,-32.31 -21.562,-53.57 2.839,-15.31 11.628,-27.5 23.832,-34.58 -2,-5.96 -2.571,-12.48 -1.153,-19.28 0,-0.85 0.289,-1.7 0.571,-2.55 -0.282,-9.64 1.98,-22.39 12.75,-36 21.558,-28.06 26.929,-49.61 28.07,-86.167 1.129,-36.851 7.082,-116.222 29.191,-101.769 22.401,14.738 -15.859,181.136 -0.269,201.546 15.58,20.4 28.9,-7.94 32.59,-28.63 3.69,-20.41 11.91,-42.81 33.73,-18.15 21.83,24.38 -1.7,94.68 21.83,101.2 4.53,1.13 9.65,1.98 14.75,2.84 7.36,-2.56 15.58,-3.12 23.8,-1.42 18.99,4.25 33.17,19.56 37.13,37.98 9.08,-8.22 21.83,-11.9 34.88,-9.07 17.57,3.69 30.6,18.43 33.44,35.72 28.91,4.53 87.32,23.24 193.61,91.27 41.1,26.37 75.96,50.18 104.6,70.59 6.8,-1.99 13.88,-2.56 21.54,-0.85 20.69,4.25 35.16,22.67 36.56,43.37 1.15,0.85 1.99,1.7 3.13,2.26 5.1,-0.85 10.76,-0.85 16.43,0.29 17.3,3.97 30.34,17.86 34.3,34.86 15.31,10.77 29.48,26.93 5.67,41.67 1.99,5.96 2.85,12.76 1.42,19.56 -3.4,20.13 -22.39,32.88 -41.94,28.63 -0.86,0 -1.43,-0.28 -2.28,-0.57 0,2.56 -0.28,5.11 -0.85,7.66 -5.11,28.06 -31.46,46.2 -58.68,40.25" /><path
         id="path40"
         style="fill:#000000;fill-opacity:1;fill-rule:nonzero;stroke:none"
         d="m 1072.77,1534.51 c -4.55,0.28 -9.07,0.28 -13.62,-0.85 -15.59,-3.12 -28.63,-14.46 -35.15,-29.48 -5.37,0.85 -11.05,0.85 -16.71,-0.28 -27.216,-5.96 -45.356,-33.74 -40.255,-61.8 0.559,-4.25 2.27,-8.22 3.969,-12.19 -18.711,-11.9 -28.922,-34.3 -24.672,-56.41 0.57,-4.25 1.992,-8.22 3.691,-11.9 -3.121,-0.29 -5.949,0 -8.789,-0.57 -35.429,-7.65 -58.679,-43.09 -52.152,-79.37 3.402,-17.86 13.602,-32.88 28.344,-42.52 -1.981,-4.25 -3.403,-8.79 -4.25,-13.32 -17.293,-13.33 -26.082,-35.44 -22.113,-57.26 2.832,-14.74 11.339,-27.5 23.242,-36 -1.129,-5.67 -1.7,-11.91 -0.563,-17.86 0,0 0.563,-2.55 0.563,-2.84 0,-3.11 0.289,-6.52 0.847,-9.92 1.703,-9.63 6.243,-19.27 13.043,-28.34 14.18,-18.15 20.7,-33.45 24.098,-51.31 1.699,-9.64 2.27,-19.84 2.832,-31.458 0.57,-19.012 1.988,-45.078 5.949,-66.91 3.41,-19.559 9.078,-35.711 17.578,-40.238 4.25,-2.563 9.352,-1.993 13.891,1.129 14.167,9.347 10.767,49.32 3.68,113.949 -3.68,35.998 -8.5,81.068 -2.547,88.728 2.84,3.68 5.109,5.1 7.364,4.82 5.67,-1.42 13.04,-15.6 15.89,-31.19 2.27,-12.47 6.5,-29.48 18.12,-32.88 7.66,-1.98 15.6,1.99 24.66,12.19 12.2,13.61 11.92,38.27 11.62,60.1 0,18.14 -0.27,37.13 7.67,39.4 0,0 11.63,2.27 13.32,2.55 7.95,-2.27 16.45,-2.84 24.66,-1.14 18.13,3.97 32.31,17.3 38.84,34.87 9.92,-6.24 21.54,-8.79 33.43,-6.24 17.88,3.97 31.77,18.43 36.29,36.57 32.03,5.67 90.73,26.36 192.48,91.56 35.72,22.96 70.3,46.21 102.89,69.17 7.08,-1.7 14.17,-1.99 21.27,-0.57 21.54,4.82 37.97,23.24 40.53,45.64 5.4,-0.57 10.49,-0.57 15.59,0.56 18.42,3.97 32.59,18.43 37.69,36.85 13.05,9.36 19.87,19 19.56,28.07 0,1.13 0,2.26 -0.26,3.12 -1.14,6.23 -5.11,11.62 -11.91,16.44 1.41,5.95 1.98,12.19 0.84,18.14 -3.95,21.82 -23.52,36 -44.77,33.45 -0.3,0.85 -0.3,2.26 -0.3,2.26 -5.68,31.19 -34.86,51.03 -65.19,44.51 -6.24,-1.14 -12.19,-3.97 -17.58,-7.37 -12.18,16.44 -32.59,25.23 -53,20.69 -1.7,-0.28 -3.7,-1.13 -5.4,-1.7 -7.35,32.32 -38.27,53.01 -70.57,45.92 -23.82,-5.1 -42.23,-23.81 -48.19,-47.34 -7.66,2.55 -16.17,3.4 -24.66,1.42 -7.93,-1.7 -15.02,-5.95 -21.26,-11.62 -9.35,12.47 -24.67,18.99 -40.26,15.59 -9.34,-1.99 -17.84,-7.37 -23.82,-15.02 -19.26,28.06 -53,41.95 -86.43,34.86 -43.66,-9.35 -73.43,-51.87 -70.02,-96.66 m -158.465,-422.36 0,1.13 0,-1.42 0,0.29 z m 168.095,411.87 c 1.14,1.42 1.71,3.4 1.41,5.1 -6.79,41.67 20.71,82.49 60.96,91.28 31.75,6.52 63.77,-7.94 79.64,-36.57 0.86,-1.7 2.83,-2.83 4.81,-2.83 2,0 3.71,1.13 4.55,3.12 4.53,8.5 12.18,14.45 21.27,16.15 13.02,2.84 26.07,-3.11 32.59,-15.02 0.84,-1.7 2.26,-2.55 3.96,-2.83 1.99,-0.29 3.7,0.56 4.81,1.98 5.39,6.24 12.48,10.49 20.14,12.19 8.23,1.7 16.73,0.57 24.09,-3.4 1.42,-0.85 3.41,-0.85 5.11,0 1.4,0.85 2.55,2.26 2.83,4.25 3.13,22.39 19.29,40.53 40.82,45.07 27.22,5.67 53.57,-12.19 58.67,-40.54 l 0.3,-1.7 0.27,-1.13 c 0,-1.7 1.14,-3.12 2.57,-3.97 1.39,-0.85 3.39,-0.85 4.79,-0.28 3.14,1.7 6.24,2.55 9.37,3.4 17.86,3.68 35.71,-4.25 45.07,-20.13 0.86,-1.13 1.98,-2.26 3.39,-2.55 1.7,-0.28 3.13,0.29 4.25,1.14 5.39,3.96 11.63,6.8 17.86,8.22 24.39,5.1 47.91,-11.06 52.45,-36 l 0.84,-6.81 c 0,-1.7 1.16,-3.11 2.55,-3.96 1.16,-0.86 3.13,-1.42 4.54,-0.86 l 1.71,0.29 c 16.44,3.68 32.61,-7.37 35.72,-24.38 0.85,-5.67 0.28,-11.34 -1.42,-16.72 -1.12,-2.56 0,-5.39 2.27,-6.81 4.54,-2.55 10.2,-7.08 10.2,-12.19 0,-5.38 -5.66,-12.47 -16.16,-19.84 -1.13,-0.85 -1.98,-1.98 -2.27,-3.4 -3.4,-15.31 -15.3,-27.21 -30.05,-30.33 -4.81,-1.14 -9.63,-1.14 -14.17,-0.28 -1.69,0.28 -3.4,-0.57 -4.81,-1.42 l -2.54,-1.99 c -1.43,-1.13 -2.27,-2.55 -2.27,-4.25 -1.16,-18.71 -14.48,-34.58 -32.32,-38.27 -6.24,-1.41 -12.75,-1.13 -19,0.57 -1.41,0.57 -3.13,0.28 -4.52,-0.57 -32.89,-23.24 -68.05,-47.05 -104.32,-70.3 -103.48,-66.33 -161.3,-85.88 -191.63,-90.7 -2.28,-0.29 -4.25,-2.27 -4.53,-4.54 -2.56,-15.59 -14.18,-28.06 -28.91,-31.18 -11.07,-2.27 -22.11,0.57 -30.61,7.94 -1.43,1.41 -3.41,1.7 -5.12,1.13 -1.98,-0.85 -3.11,-2.27 -3.68,-4.25 -3.68,-17.01 -16.43,-30.05 -32.88,-33.45 -7.09,-1.7 -14.18,-1.13 -20.98,0.85 -0.84,0.28 -1.43,0.57 -2.28,0.28 l -15.29,-2.83 c -16.45,-4.54 -16.16,-26.93 -15.89,-50.74 0.3,-19.56 0.58,-41.67 -8.79,-52.16 -5.66,-6.52 -10.47,-9.64 -13.59,-8.79 -1.98,0.57 -7.09,3.97 -10.77,24.38 -2.28,13.32 -9.93,36.29 -23.82,39.69 -4.527,1.13 -11.324,0.28 -18.414,-8.79 -8.223,-10.77 -5.102,-43.94 0.566,-97.227 3.684,-36.282 10.192,-96.942 1.133,-102.903 -1.98,-1.406 -2.551,-0.847 -3.121,-0.558 -8.789,4.531 -16.441,45.628 -17.871,97.789 -1.117,35.719 -5.938,59.249 -29.18,89.289 -7.937,10.49 -11.91,21.26 -11.621,32.6 0,0.29 -0.289,1.14 -0.289,1.7 l -0.57,1.99 c -0.848,5.67 -0.559,11.34 1.14,16.44 0.852,2.55 -0.281,5.38 -2.269,6.52 -11.34,6.52 -18.989,17.86 -21.262,30.9 -3.398,18.42 4.25,37.13 19.281,47.62 1.41,1.13 2.262,2.55 2.262,4.25 0.848,5.38 2.559,10.49 5.391,15.31 0.847,1.41 1.129,3.11 0.566,4.53 -0.289,1.42 -1.137,2.55 -2.547,3.4 -14.18,7.66 -24.101,21.55 -26.941,37.99 -5.66,30.04 13.898,59.81 43.379,66.04 4.82,1.14 9.922,1.42 15.019,1.14 1.981,-0.28 3.973,0.85 5.102,2.83 1.14,1.7 1.14,3.97 0,5.96 -3.399,4.81 -5.379,9.92 -6.52,15.87 -3.398,18.99 6.239,38.55 23.531,47.05 1.418,0.86 2.547,1.99 2.84,3.41 0.559,1.7 0.278,3.4 -0.57,4.53 -2.551,4.25 -4.25,8.79 -5.102,13.61 -3.968,22.11 10.481,43.94 31.727,48.47 5.68,1.13 11.07,1.13 16.45,0 2.84,-0.57 5.66,0.85 6.51,3.69 4.54,13.32 15.61,23.52 28.93,26.36 5.38,1.13 10.77,1.13 16.16,-0.29 1.7,-0.28 3.67,0.29 5.1,1.42 m 139.74,-318.05 0.29,0" /><path
         id="path42"
         style="fill:#ffff40;fill-opacity:1;fill-rule:nonzero;stroke:none"
         d="m 936.418,1220.43 c -1.98,-9.92 -0.852,-18.14 3.68,-24.94 7.66,-11.06 21.547,-13.04 22.117,-13.33 3.109,-0.28 5.66,1.99 6.23,4.82 0.571,3.12 -1.418,5.95 -4.527,6.52 0,0 -9.934,1.42 -14.742,8.5 -2.84,4.26 -3.41,9.64 -1.988,16.16 4.82,22.4 28.917,20.41 30.046,20.13 2.832,-0.29 5.672,1.98 5.954,5.1 0.289,3.12 -1.704,5.95 -4.821,6.24 -11.902,1.13 -36.281,-3.4 -41.949,-29.2" /><path
         id="path44"
         style="fill:#ffff40;fill-opacity:1;fill-rule:nonzero;stroke:none"
         d="m 1066.24,1357.06 c -20.98,-6.52 -33.45,-23.81 -35.15,-49.32 -1.7,-23.53 3.12,-41.67 14.17,-53.86 13.33,-15.02 31.19,-15.02 31.75,-15.02 3.12,0 5.39,2.55 5.68,5.66 0,3.12 -2.28,5.39 -5.39,5.39 0,0 -13.89,0.28 -24.1,11.62 -9.07,9.92 -12.76,25.51 -11.34,45.92 1.42,20.7 10.49,33.74 27.21,38.84 20.41,6.23 44.51,-1.99 48.76,-8.51 1.7,-2.26 5.1,-2.83 7.65,-1.13 2.27,1.7 3.12,5.39 1.42,7.65 -7.94,11.63 -37.42,19.85 -60.66,12.76" /><path
         id="path46"
         style="fill:#ffff40;fill-opacity:1;fill-rule:nonzero;stroke:none"
         d="m 1134.84,1362.45 c -10.5,-14.74 -7.94,-36 -7.66,-37.13 0.29,-2.84 3.12,-5.11 5.96,-4.54 2.82,0.57 5.1,3.4 4.52,6.24 0,0.28 -1.96,17.86 5.97,28.91 3.11,4.25 7.93,7.09 13.89,7.94 9.93,1.41 17.29,-0.57 22.11,-6.52 5.09,-5.96 6.23,-14.74 4.82,-20.14 -0.84,-3.11 0.85,-6.23 3.68,-6.79 2.83,-0.85 5.96,0.85 6.8,3.97 2.27,7.93 0.86,20.97 -7.07,30.32 -5.11,6.24 -14.48,12.75 -31.75,10.21 -8.8,-1.42 -16.16,-5.67 -21.27,-12.47" /><path
         id="path48"
         style="fill:#ffff40;fill-opacity:1;fill-rule:nonzero;stroke:none"
         d="m 1070.78,1452.02 c -3.97,-13.04 -3.68,-24.09 0.85,-32.6 5.95,-11.05 17,-13.89 17.58,-13.89 2.83,-0.85 5.65,1.14 6.5,3.97 0.58,3.12 -1.12,6.24 -3.95,6.8 0,0 -7.09,1.99 -10.78,8.79 -3.11,5.95 -2.84,13.89 0,23.81 4.82,15.03 17.86,20.13 28.63,19.56 10.78,-0.57 19.56,-6.24 20.97,-13.89 0.29,-3.12 3.13,-5.1 6.24,-4.25 2.84,0.57 4.83,3.4 4.25,6.52 -2.26,12.75 -15.02,22.11 -30.9,22.68 -13.88,0.85 -32.59,-6.24 -39.39,-27.5" /><path
         id="path50"
         style="fill:#000000;fill-opacity:1;fill-rule:nonzero;stroke:none"
         d="m 1073.89,1530.82 c -1.43,-2.55 -0.57,-5.94 1.99,-7.64 0.57,-0.29 15.88,-9.93 11.33,-31.18 -0.57,-3.12 1.43,-5.96 4.25,-6.52 2.84,-0.57 5.68,1.13 6.52,4.25 4.82,23.52 -8.77,38.54 -16.71,43.36 -2.56,1.41 -5.67,0.57 -7.38,-2.27" /><path
         id="path52"
         style="fill:#ffff40;fill-opacity:1;fill-rule:nonzero;stroke:none"
         d="m 1187.29,1542.73 c -16.74,-12.47 -17.02,-36 -17.29,-37.13 0,-2.84 2.54,-5.39 5.38,-5.39 3.1,0 5.67,2.55 5.67,5.67 0,0.28 0.27,18.71 12.47,27.78 8.5,6.52 21.53,6.8 38.55,1.13 2.84,-1.13 5.95,0.57 6.79,3.4 1.14,3.12 -0.56,6.24 -3.4,7.09 -20.41,7.09 -36.57,6.24 -48.17,-2.55" /><path
         id="path54"
         style="fill:#ffff40;fill-opacity:1;fill-rule:nonzero;stroke:none"
         d="m 1259.56,1489.44 c -35.43,-46.49 5.39,-88.16 5.96,-88.72 1.98,-1.99 5.39,-1.99 7.65,0.28 1.99,2.27 1.99,5.67 0,7.94 -1.41,1.41 -34.29,35.15 -5.1,73.7 17.29,22.67 47.33,25.23 68.32,17.86 19.83,-6.81 31.45,-21.26 31.18,-38.56 0,-3.11 2.55,-5.38 5.38,-5.38 3.11,0 5.38,2.55 5.67,5.67 0.29,21.82 -14.46,40.53 -38.55,49.04 -25.23,8.5 -59.82,5.1 -80.51,-21.83" /><path
         id="path56"
         style="fill:#ffff40;fill-opacity:1;fill-rule:nonzero;stroke:none"
         d="m 1294.72,1346.29 c -13.32,-7.37 -25.52,-24.09 -20.69,-43.94 3.68,-15.87 18.14,-24.66 36.56,-22.67 13.89,1.41 28.63,9.35 29.76,21.54 0,3.12 -1.99,5.67 -5.09,5.95 -2.84,0.29 -5.68,-2.27 -5.96,-5.1 -0.28,-4.54 -8.22,-10.21 -19.28,-11.34 -5.1,-0.57 -21.82,-1.13 -25.51,14.46 -3.4,14.17 5.1,25.79 15.02,31.18 5.96,3.12 14.47,5.1 18.72,-0.28 1.98,-2.56 5.38,-2.84 7.65,-0.86 2.27,1.99 2.55,5.67 0.85,7.94 -7.09,8.51 -19.56,9.92 -32.03,3.12" /><path
         id="path58"
         style="fill:#ffff40;fill-opacity:1;fill-rule:nonzero;stroke:none"
         d="m 1414.34,1391.08 c 0.57,-3.12 3.12,-5.39 5.95,-4.82 3.12,0.28 5.1,3.12 4.82,6.24 0,1.13 -2.83,31.75 23.8,37.41 15.6,3.41 24.11,-4.81 27.79,-10.2 5.94,-8.22 7.66,-19.56 3.96,-26.65 -1.41,-2.55 -0.56,-5.95 2.28,-7.37 2.54,-1.41 5.67,-0.28 7.08,2.27 5.96,11.06 3.96,26.93 -4.54,38.55 -9.07,12.48 -22.95,17.86 -38.54,14.46 -29.21,-6.24 -34.03,-35.43 -32.6,-49.89" /><path
         id="path60"
         style="fill:#ffff40;fill-opacity:1;fill-rule:nonzero;stroke:none"
         d="m 1508.73,1512.97 c -12.47,-4.54 -21.54,-12.19 -26.65,-22.96 -10.21,-21.83 -1.41,-48.19 -1.13,-49.32 1.13,-2.84 4.24,-4.26 7.09,-3.12 2.55,1.13 4.24,4.25 3.12,7.09 0,0.28 -7.66,23.24 0.56,40.53 3.97,7.94 10.77,13.61 20.13,17.01 13.89,4.82 24.09,-2.27 29.2,-6.8 9.92,-9.64 15.02,-24.67 11.9,-36.86 -2.27,-10.2 -9.92,-17.57 -22.11,-21.25 -2.83,-0.86 -4.54,-3.97 -3.68,-7.09 0.56,-2.84 3.68,-4.54 6.51,-3.69 15.88,4.82 26.37,15.31 29.77,29.48 3.97,16.16 -2,35.44 -15.02,47.63 -11.34,10.77 -25.8,14.17 -39.69,9.35" /><path
         id="path62"
         style="fill:#000000;fill-opacity:1;fill-rule:nonzero;stroke:none"
         d="m 1448.63,1599.14 c 3.68,-30.05 -18.43,-38.55 -19.28,-39.12 -2.83,-0.85 -4.53,-4.25 -3.68,-7.08 1.13,-2.84 3.98,-4.26 6.8,-3.41 11.06,3.97 30.62,19.85 26.93,51.31 -0.56,3.12 -3.11,5.1 -6.23,4.82 -2.84,-0.57 -5.11,-3.4 -4.54,-6.52" /><path
         id="path64"
         style="fill:#000000;fill-opacity:1;fill-rule:nonzero;stroke:none"
         d="m 1512.41,1586.1 c -2.55,-1.42 -3.4,-4.82 -1.97,-7.65 13.59,-25.8 2.55,-43.37 2.25,-44.22 -1.7,-2.56 -1.13,-5.96 1.42,-7.66 2.55,-1.7 5.67,-0.85 7.37,1.7 0.85,0.85 15.31,23.53 -1.7,55.56 -1.41,2.84 -4.54,3.69 -7.37,2.27" /><path
         id="path66"
         style="fill:#000000;fill-opacity:1;fill-rule:nonzero;stroke:none"
         d="M 1666.9,1260.12 C 1410.93,974.938 1029.96,994.797 1025.99,994.797 c -2.84,0.281 -5.38,-1.988 -5.67,-5.109 -0.3,-3.11 1.98,-5.661 4.82,-5.95 3.97,-0.281 390.04,-20.41 649.41,268.732 2.27,2.26 1.99,5.95 0,7.93 -2.26,1.99 -5.67,1.99 -7.65,-0.28" /><path
         id="path68"
         style="fill:#ffffff;fill-opacity:1;fill-rule:nonzero;stroke:none"
         d="m 1664.36,1280.81 c -255.7,-285.169 -636.95,-265.32 -640.63,-265.04 -3.12,0 -5.68,-2.27 -5.96,-5.39 0,-3.11 1.98,-5.66 5.11,-5.95 3.67,0 390.03,-20.117 649.42,269.01 1.97,2.27 1.97,5.67 -0.3,7.65 -1.98,2.27 -5.37,1.99 -7.64,-0.28" /><path
         id="path70"
         style="fill:#ffff40;fill-opacity:1;fill-rule:nonzero;stroke:none"
         d="m 1557.77,1699.2 c 2.82,-16.43 -7.66,-32.59 -23.82,-36.27 -16.15,-3.41 -31.75,7.36 -34.86,23.8 -2.83,16.72 7.65,32.88 23.81,36.29 16.16,3.68 31.75,-7.09 34.87,-23.82" /><path
         id="path72"
         style="fill:#000000;fill-opacity:1;fill-rule:nonzero;stroke:none"
         d="m 1493.98,1685.6 c 3.41,-19.56 21.84,-32.03 40.82,-28.06 18.99,3.97 31.76,23.24 28.08,42.8 -3.41,19.84 -21.84,32.32 -40.83,28.35 -19,-4.26 -31.74,-23.53 -28.07,-43.09 m 10.5,2.27 c -2.55,13.59 6.23,26.93 19.56,29.76 13.05,2.83 25.78,-5.95 28.34,-19.56 2.55,-13.32 -6.23,-26.64 -19.56,-29.48 -13.03,-2.83 -25.78,5.67 -28.34,19.28" /><path
         id="path74"
         style="fill:#ffff40;fill-opacity:1;fill-rule:nonzero;stroke:none"
         d="m 1211.66,1749.94 c 3.12,-18.14 -8.51,-35.72 -26.08,-39.69 -17.57,-3.68 -34.58,7.94 -37.7,26.08 -3.4,18.15 8.22,35.72 25.8,39.69 17.57,3.68 34.58,-7.94 37.98,-26.08" /><path
         id="path76"
         style="fill:#000000;fill-opacity:1;fill-rule:nonzero;stroke:none"
         d="m 1142.49,1735.2 c 3.68,-21.25 23.54,-34.57 43.95,-30.32 20.68,4.53 34.29,25.23 30.33,46.19 -3.69,21.27 -23.54,34.59 -43.95,30.34 -20.69,-4.53 -34.29,-25.23 -30.33,-46.21 m 10.49,2.28 c -2.55,15.02 7.08,29.75 21.82,32.88 14.47,3.39 28.64,-6.52 31.47,-21.54 2.83,-15.03 -7.09,-29.77 -21.53,-32.89 -14.75,-3.11 -28.93,6.52 -31.76,21.55" /><path
         id="path78"
         style="fill:#ffff40;fill-opacity:1;fill-rule:nonzero;stroke:none"
         d="m 956.824,1570.51 c 1.703,-10.49 -5.097,-20.98 -15.308,-23.24 -10.2,-1.99 -20.121,4.81 -22.11,15.3 -1.699,10.49 4.821,20.98 15.309,22.96 10.203,2.27 20.133,-4.53 22.109,-15.02" /><path
         id="path80"
         style="fill:#000000;fill-opacity:1;fill-rule:nonzero;stroke:none"
         d="m 914.023,1561.44 c 1.418,-6.52 4.821,-12.19 10.2,-15.87 5.39,-3.69 11.91,-5.11 18.429,-3.69 6.243,1.42 11.911,5.39 15.59,10.77 3.692,5.67 5.102,12.47 3.692,18.99 -2.27,13.61 -15.032,22.4 -28.352,19.56 -13.039,-2.83 -21.828,-16.15 -19.559,-29.76 m 16.442,-6.52 c -3.121,1.98 -5.102,5.1 -5.672,8.79 -1.422,7.37 3.398,15.02 10.77,16.44 7.371,1.7 14.46,-3.12 15.878,-10.77 0.563,-3.69 -0.289,-7.37 -2.269,-10.49 -1.981,-3.12 -5.098,-5.39 -8.5,-5.95 -3.688,-0.85 -7.367,-0.29 -10.207,1.98" /><path
         id="path82"
         style="fill:#ffff40;fill-opacity:1;fill-rule:nonzero;stroke:none"
         d="m 921.391,1429.63 c 4.25,-24.09 -11.047,-47.91 -34.578,-53.01 -23.532,-4.82 -46.211,10.49 -50.461,34.58 -4.532,24.38 11.058,47.91 34.582,53.01 23.527,5.1 46.207,-10.49 50.457,-34.58" /><path
         id="path84"
         style="fill:#000000;fill-opacity:1;fill-rule:nonzero;stroke:none"
         d="m 830.969,1410.07 c 4.816,-26.93 30.328,-44.5 56.687,-38.83 26.371,5.66 43.942,32.31 39.121,59.52 -5.101,26.93 -30.332,44.51 -56.691,38.84 -26.648,-5.67 -43.938,-32.32 -39.117,-59.53 m 10.488,2.27 c -3.691,21.26 9.922,41.95 30.328,46.2 20.692,4.54 40.531,-9.07 44.223,-30.04 3.969,-21.26 -9.641,-41.96 -30.332,-46.21 -20.41,-4.53 -40.25,9.07 -44.219,30.05" /><path
         id="path86"
         style="fill:#ffac00;fill-opacity:1;fill-rule:evenodd;stroke:none"
         d="m 1129.73,979.199 0,0 c -0.84,-0.269 -1.69,-0.269 -2.27,-0.851 -5.66,-2.27 -8.21,-8.789 -5.94,-14.168 1.12,-2.27 95.24,-225.071 97.23,-386.371 0,-5.942 5.1,-10.481 11.05,-10.192 5.97,0.274 10.77,5.391 10.49,11.344 -1.99,165.246 -94.95,384.937 -98.65,394.289 -1.98,4.527 -7.09,7.078 -11.91,5.949" /><path
         id="path88"
         style="fill:#ffff40;fill-opacity:1;fill-rule:nonzero;stroke:none"
         d="m 1125.77,982.324 c -3.69,-1.699 -6.52,-4.82 -7.94,-8.511 -1.13,-2.84 -1.42,-5.387 -0.85,-8.208 0,-1.14 0.57,-1.992 0.85,-3.121 0.85,-1.699 60.95,-144.57 86.18,-283.75 6.22,-34.582 10.2,-69.171 10.76,-100.91 0,-0.851 0,-1.699 0.29,-2.558 0.28,-2.832 1.99,-5.661 3.97,-7.661 2.82,-2.82 6.8,-4.242 10.76,-4.242 8.23,0.571 14.75,7.653 14.75,15.86 -2.28,166.121 -95.24,386.382 -99.21,395.73 -3.12,7.371 -11.91,10.77 -19.56,7.371 m 103.75,-410.461 c -1.7,0 -3.4,0.571 -4.82,1.7 -1.14,1.132 -2,2.832 -2,4.542 -1.97,161.86 -96.36,385.508 -97.51,387.77 -0.55,1.699 -0.55,3.398 0,4.828 0.85,1.699 2,3.11 3.7,3.961 3.39,1.418 7.37,0 8.78,-3.109 3.97,-9.371 96.38,-228.192 98.65,-392.602 0,-3.687 -2.84,-6.808 -6.8,-7.09 m -103.75,410.461 0,0" /><path
         id="path90"
         style="fill:#ffac00;fill-opacity:1;fill-rule:evenodd;stroke:none"
         d="m 1237.17,991.391 -0.27,0 c -0.58,-0.278 -1.15,-0.571 -2,-0.848 -5.38,-2.27 -8.22,-8.789 -5.94,-14.461 1.12,-2.551 105.72,-273.539 98.64,-414.141 -0.28,-5.949 4.26,-11.05 10.2,-11.339 5.95,0 11.06,4.82 11.34,10.769 7.38,145.43 -95.81,412.16 -100.06,423.5 -1.99,4.82 -7.09,7.652 -11.91,6.52" /><path
         id="path92"
         style="fill:#ffff40;fill-opacity:1;fill-rule:nonzero;stroke:none"
         d="m 1233.48,994.797 c -3.68,-1.703 -6.79,-4.82 -8.21,-8.793 -1.13,-2.828 -1.42,-5.668 -0.85,-8.777 0,-0.864 0.28,-1.711 0.85,-2.84 0.85,-1.981 63.78,-165.832 88.71,-303.871 7.09,-39.692 11.07,-77.391 9.65,-108.289 0,-1.133 0,-2.551 0.29,-3.68 0.28,-2.551 1.7,-5.102 3.4,-7.094 2.55,-3.117 6.52,-5.098 10.48,-5.098 8.23,-0.281 15.02,6.52 15.59,15.02 7.09,145.988 -96.09,413.859 -100.62,425.199 -3.13,7.653 -11.63,11.34 -19.29,8.223 m 104.61,-439.652 c -1.99,0 -3.7,0.558 -4.82,1.968 -1.13,1.434 -1.7,3.133 -1.7,4.832 7.09,140.59 -97.8,413.008 -98.93,415.84 -0.57,1.699 -0.57,3.399 0,5.102 0.84,1.699 2.27,3.117 3.97,3.687 3.4,1.699 7.37,0 8.78,-3.398 4.25,-11.34 106.87,-277.231 99.79,-421.512 -0.29,-3.699 -3.41,-6.809 -7.09,-6.519" /><path
         id="path94"
         style="fill:#ffac00;fill-opacity:1;fill-rule:evenodd;stroke:none"
         d="m 1548.42,1097.97 c -5.67,-1.98 -8.51,-8.22 -6.81,-13.88 0.57,-1.43 53.87,-158.465 77.1,-468.574 0.58,-5.672 5.68,-9.922 11.62,-9.352 5.96,0.57 10.49,5.961 9.93,11.899 -23.53,312.953 -77.39,472.257 -77.95,473.667 -1.99,5.11 -7.09,7.95 -12.19,6.81 -0.58,-0.29 -1.13,-0.29 -1.7,-0.57" /><path
         id="path96"
         style="fill:#ffff40;fill-opacity:1;fill-rule:nonzero;stroke:none"
         d="m 1547.29,1101.94 c -3.97,-1.42 -7.09,-4.25 -8.81,-7.94 -1.69,-3.68 -1.96,-7.65 -0.55,-11.34 0.55,-1.7 53.57,-157.039 76.8,-467.426 0.29,-3.972 2,-7.371 5.13,-9.921 2.82,-2.551 6.8,-3.68 10.77,-3.399 8.21,1.129 14.44,8.5 13.89,16.438 -23.82,313.23 -77.95,473.388 -78.54,474.798 -2.55,7.94 -11.05,11.62 -18.69,8.79 m 82.76,-491.526 c -1.98,-0.281 -3.69,0.289 -5.1,1.418 -1.13,1.133 -1.99,2.551 -1.99,4.25 -23.51,311.813 -76.8,467.998 -77.39,469.418 -0.57,1.7 -0.57,3.4 0.29,4.82 0.84,1.7 2.28,3.12 3.98,3.68 3.39,1.42 7.36,-0.28 8.5,-3.68 0.55,-1.7 54.43,-160.726 77.95,-472.816 0.28,-3.402 -2.54,-6.801 -6.24,-7.09" /><path
         id="path98"
         style="fill:#ffac00;fill-opacity:1;fill-rule:evenodd;stroke:none"
         d="m 1658.11,1181.6 c -5.95,-1.42 -9.63,-7.09 -8.5,-13.04 0.85,-3.68 80.23,-375.314 62.37,-494.083 -1.16,-5.95 3.11,-11.34 9.07,-11.899 5.66,-0.851 11.34,3.399 12.18,9.348 18.43,122.742 -58.96,486.434 -62.35,502.024 -1.15,5.67 -6.81,9.07 -12.49,7.93 0,-0.28 -0.28,-0.28 -0.28,-0.28" /><path
         id="path100"
         style="fill:#ffff40;fill-opacity:1;fill-rule:nonzero;stroke:none"
         d="m 1657.27,1185.85 0,0 c -3.97,-1.13 -7.38,-3.68 -9.64,-7.09 -1.99,-3.4 -2.56,-7.37 -1.99,-11.05 0.86,-3.69 80.23,-374.171 62.09,-492.659 -0.57,-3.981 0.56,-7.942 2.82,-11.071 2.27,-3.109 5.96,-5.089 9.93,-5.66 7.93,-0.851 15.59,5.102 16.73,13.039 18.7,123.59 -58.96,488.131 -62.37,503.431 -1.7,7.94 -9.63,13.04 -17.57,11.06 m 64.05,-519.311 c -1.69,0.289 -3.39,1.141 -4.25,2.551 -1.12,1.422 -1.41,3.121 -1.12,4.82 18.14,119.91 -61.51,492.1 -62.36,495.78 -0.29,1.42 0,3.12 0.85,4.82 1.13,1.42 2.54,2.55 4.52,3.12 3.7,0.85 7.09,-1.13 7.95,-4.82 3.39,-15.31 80.79,-378.419 62.36,-500.31 -0.57,-3.691 -3.97,-6.238 -7.95,-5.961" /><path
         id="path102"
         style="fill:#ffff40;fill-opacity:1;fill-rule:nonzero;stroke:none"
         d="m 1574.21,1260.12 c 2.28,-11.91 -5.39,-23.81 -17.29,-26.36 -11.62,-2.55 -22.95,5.38 -25.23,17.29 -1.98,12.19 5.67,23.81 17.3,26.36 11.9,2.55 23.24,-5.1 25.22,-17.29" /><path
         id="path104"
         style="fill:#ffff40;fill-opacity:1;fill-rule:nonzero;stroke:none"
         d="m 1496.54,1211.36 c 1.42,-7.09 -3.12,-13.89 -10.21,-15.31 -6.8,-1.41 -13.33,2.84 -14.45,9.92 -1.42,7.09 3.12,13.89 9.91,15.59 6.81,1.42 13.62,-3.11 14.75,-10.2" /><path
         id="path106"
         style="fill:#ffff40;fill-opacity:1;fill-rule:nonzero;stroke:none"
         d="m 1590.94,1320.49 c 1.42,-7.09 -3.12,-13.89 -9.92,-15.31 -7.09,-1.41 -13.62,3.12 -14.75,9.92 -1.41,7.09 3.13,14.18 9.92,15.59 7.09,1.42 13.62,-3.11 14.75,-10.2" /><path
         id="path108"
         style="fill:#ffff40;fill-opacity:1;fill-rule:nonzero;stroke:none"
         d="m 1348.57,1215.61 c 1.13,-7.09 -3.39,-13.89 -10.21,-15.31 -6.8,-1.7 -13.32,2.84 -14.73,9.92 -1.14,7.09 3.41,13.89 10.19,15.59 6.81,1.42 13.32,-3.11 14.75,-10.2" /><path
         id="path110"
         style="fill:#ffff40;fill-opacity:1;fill-rule:nonzero;stroke:none"
         d="m 1105.93,1050.07 c 1.13,-7.09 -3.4,-13.89 -10.21,-15.31 -6.8,-1.7 -13.33,2.84 -14.73,9.92 -1.14,7.09 3.4,13.89 10.2,15.59 6.8,1.42 13.32,-3.11 14.74,-10.2" /><path
         id="path112"
         style="fill:#ffff40;fill-opacity:1;fill-rule:nonzero;stroke:none"
         d="m 1601.99,1147.01 c 1.12,-5.1 -2.28,-9.92 -7.09,-11.06 -4.82,-1.13 -9.63,2.27 -10.49,7.09 -0.86,5.1 2.27,10.21 7.08,11.06 5.11,1.13 9.65,-1.99 10.5,-7.09" /><path
         id="path114"
         style="fill:#ffff40;fill-opacity:1;fill-rule:nonzero;stroke:none"
         d="m 1636.01,1071.05 c 1.97,-11.07 -5.1,-21.84 -15.87,-24.39 -10.78,-2.27 -21,4.82 -22.96,15.89 -2.27,11.04 5.1,22.11 15.87,24.36 10.77,2.27 20.98,-4.8 22.96,-15.86" /><path
         id="path116"
         style="fill:#ffff40;fill-opacity:1;fill-rule:nonzero;stroke:none"
         d="m 1336.39,1129.72 c 1.97,-11.05 -5.11,-21.83 -15.87,-24.09 -10.78,-2.27 -21.26,4.81 -23.25,15.87 -1.98,11.05 5.1,21.83 15.88,24.09 10.77,2.27 21.26,-4.81 23.24,-15.87" /><path
         id="path118"
         style="fill:#ffffff;fill-opacity:1;fill-rule:nonzero;stroke:none"
         d="m 1744.29,1361.88 c 0,0 60.38,62.65 99.79,5.67 28.34,-41.1 75.96,-221.95 13.88,-398.55 0,0 31.18,164.41 3.4,317.19 -27.5,153.08 -117.07,75.69 -117.07,75.69" /><path
         id="path120"
         style="fill:#e0e6df;fill-opacity:1;fill-rule:nonzero;stroke:none"
         d="m 312.512,1071.89 c 0,0 -40.821,57.27 -124.442,59.81 C 104.449,1133.98 71.5703,967.297 98.7813,787.586 126.27,607.863 187.219,534.176 252.422,540.965 c 65.187,6.801 30.328,59.531 16.437,62.648 -13.89,3.114 -61.519,-27.769 -94.679,82.211 -33.168,109.992 -37.129,363.106 25.789,374.726 62.652,11.34 109.14,-51.59 109.14,-51.59" /><path
         id="path122"
         style="fill:#000000;fill-opacity:1;fill-rule:nonzero;stroke:none"
         d="m 317.328,1075.3 c 0.57,-1.13 1.133,-2.55 0.852,-3.97 l -3.403,-62.64 c -0.277,-2.56 -1.699,-4.54 -3.968,-5.39 -2.27,-0.57 -4.821,0.28 -6.239,2.27 -0.562,0.56 -45.351,59.81 -103.742,49.32 -7.09,-1.42 -13.89,-7.09 -19.558,-17.01 -35.153,-59.814 -30.622,-254.271 -1.7,-350.36 26.071,-85.891 58.668,-81.352 78.231,-78.524 4.816,0.57 8.789,1.133 12.187,0.281 10.77,-2.257 27.211,-22.39 26.36,-41.668 -0.559,-10.48 -6.797,-28.632 -43.368,-32.589 -75.96,-7.661 -134.363,83.898 -159.8706,251.707 -21.2617,140.882 -5.3906,271.003 39.6796,324.003 15.602,18.14 34.301,27.22 55.281,26.65 85.61,-2.27 127.278,-59.81 129.258,-62.08 m -129.258,50.46 c -17.57,0.56 -33.172,-7.37 -46.769,-22.96 C 98.5,1052.34 83.4688,926.199 104.449,788.43 128.828,627.707 182.68,539.547 251.848,546.637 c 14.742,1.703 32.312,6.519 33.172,21.543 0.558,14.179 -12.762,28.629 -17.301,29.769 -1.41,0.27 -4.821,-0.293 -8.219,-0.57 -20.121,-2.84 -62.082,-8.789 -90.711,86.738 -27.211,90.711 -37.129,292.25 2.559,359.723 7.652,13.03 16.722,20.4 27.492,22.39 49.32,9.07 88.437,-24.66 105.449,-42.8 0.852,16.15 2.27,43.37 2.551,46.48 -6.52,7.94 -45.641,53.86 -118.77,55.85" /><path
         id="path124"
         style="fill:#e0e6df;fill-opacity:1;fill-rule:nonzero;stroke:none"
         d="m 927.91,298.32 c 0,0 22.11,-24.379 17.86,-66.89 -4.25,-42.809 -83.911,-108.86 -348.098,-83.059 -245.762,24.09 -292.82,47.617 -320.883,90.149 -28.059,42.511 -11.898,89.558 2.84,101.468 C 294.078,352.18 927.91,298.32 927.91,298.32" /><path
         id="path126"
         style="fill:#bec9be;fill-opacity:1;fill-rule:nonzero;stroke:none"
         d="m 889.359,308.809 c 0,0 19.84,-20.692 16.161,-57.258 -3.969,-36.281 -73.418,-92.692 -305.29,-69.731 -215.441,21.258 -256.82,41.379 -281.48,77.668 -24.672,36.563 -10.488,76.821 2.262,86.742 12.758,10.2 568.347,-37.421 568.347,-37.421" /><path
         id="path128"
         style="fill:#000000;fill-opacity:1;fill-rule:nonzero;stroke:none"
         d="m 931.879,302.285 c 1.133,-1.121 24.09,-26.922 19.562,-71.719 -4.543,-45.07 -84.472,-114.519 -354.332,-88.14 -243.211,24.09 -294.8,47.051 -325.14,92.969 -29.758,45.058 -13.321,95.242 3.972,109.41 3.688,3.121 10.77,8.8 333.637,-15.301 158.461,-11.91 317.203,-25.238 318.621,-25.52 1.41,0 2.832,-0.57 3.68,-1.699 M 597.961,154.316 c 261.641,-25.793 338.168,39.7 342.141,77.68 3.398,33.731 -10.493,54.988 -15.024,60.649 -246.898,20.992 -618.519,49.339 -642.328,42.519 -6.238,-5.66 -13.328,-19.559 -15.031,-37.418 -1.699,-16.723 1.14,-36.851 13.609,-56.109 27.492,-41.672 79.652,-64.071 316.633,-87.321" /><path
         id="path130"
         style="fill:#e0e6df;fill-opacity:1;fill-rule:nonzero;stroke:none"
         d="m 1105.08,900.117 c 0,0 -37.42,-142.582 -62.66,-162.988 0,0 -50.451,-93.832 -76.24,-233.871 -25.793,-139.742 -30.051,-215.711 -30.051,-215.711 0,0 -38.551,-79.649 -268.152,-67.461 -229.61,12.473 -372.188,55.262 -400.25,117.641 -27.778,62.082 -40.258,424.339 32.031,664.443 0,0 -12.192,19.84 -0.852,60.94 11.34,41.39 35.153,134.08 70.864,147.4 35.718,13.04 735.31,-310.393 735.31,-310.393" /><path
         id="path132"
         style="fill:#ffea00;fill-opacity:1;fill-rule:evenodd;stroke:none"
         d="m 1063.69,875.176 c 0,0 -34.02,-129.27 -56.69,-147.692 0,0 -45.918,-85.027 -69.449,-212.039 -23.25,-126.988 -26.93,-195.871 -26.93,-195.871 0,0 -35.148,-72.269 -243.5,-60.937 -208.34,11.051 -337.601,49.89 -362.828,106.59 -25.512,56.41 -36.57,384.929 28.906,602.64 0,0 -11.047,17.86 -0.847,55.273 10.488,37.43 32.031,121.32 64.347,133.5 1.133,0.59 3.121,0.59 5.672,0.29 71.43,-8.79 661.319,-281.754 661.319,-281.754" /><path
         id="path134"
         style="fill:#ffac00;fill-opacity:1;fill-rule:evenodd;stroke:none"
         d="m 1063.69,875.176 c 0,0 -34.02,-129.27 -56.69,-147.692 0,0 -45.918,-85.027 -69.449,-212.039 -23.25,-126.988 -26.93,-195.871 -26.93,-195.871 0,0 -35.148,-72.269 -243.5,-60.937 -62.078,3.41 -117.07,9.078 -164.41,17.008 12.48,0 24.949,0.851 37.699,2.261 95.25,-17.281 203.82,1.989 242.653,79.102 56.128,99.207 99.207,240.93 48.468,358.847 -10.488,18.153 -36.281,28.93 -62.359,35.161 49.891,-6.52 105.168,-0.571 133.508,44.5 13.613,21.832 22.679,55.839 1.422,70.3 -164.411,92.7 -442.493,77.391 -507.403,290.824 1.133,0.59 3.121,0.59 5.672,0.29 71.43,-8.79 661.319,-281.754 661.319,-281.754" /><path
         id="path136"
         style="fill:#ffffff;fill-opacity:1;fill-rule:nonzero;stroke:none"
         d="m 1065.96,880.559 4.54,-1.981 -1.42,-4.82 c -3.4,-13.332 -34.02,-127.852 -57.55,-149.66 -2.83,-5.403 -45.925,-89.02 -68.311,-209.782 -14.172,-75.961 -20.981,-131.238 -24.383,-163.269 -1.981,-20.692 -2.551,-31.469 -2.551,-31.75 l 0,-1.418 -0.566,-0.852 c -1.703,-3.121 -39.114,-75.398 -248.883,-64.339 -210.328,11.328 -341.008,50.449 -367.648,109.98 -17.86,39.687 -29.2,217.129 -11.059,395.148 7.656,72.852 20.129,145.7 39.117,209.481 -2.269,4.82 -6.23,17.012 -4.25,36.573 0.57,6.23 1.981,13.04 3.973,20.97 l 1.418,5.67 c 11.621,41.67 32.879,119.06 66.332,131.53 32.879,12.47 564.937,-232.161 671.241,-281.481 M 398.676,1150.99 c -28.059,-10.21 -49.028,-87.03 -59.238,-123.88 l -1.422,-5.67 c -9.348,-34.002 0,-50.174 0,-50.452 l 1.422,-2.269 -0.852,-2.543 c -65.199,-216.86 -53.859,-543.418 -29.199,-598.688 24.66,-54.711 155.058,-92.133 358.019,-103.179 188.5,-9.922 232.442,49.32 237.539,57.257 0.293,3.122 0.852,13.321 2.84,30.903 3.113,32.027 10.203,87.879 24.094,164.129 23.527,126.418 69.731,212.871 70.021,213.718 l 0.56,1.141 0.85,0.559 c 16.73,13.613 43.09,101.48 53.58,140.043 C 805.168,988.277 425.328,1157.22 398.676,1150.99" /><path
         id="path138"
         style="fill:#000000;fill-opacity:1;fill-rule:nonzero;stroke:none"
         d="m 1107.34,905.496 c 2.27,-1.117 3.7,-3.68 3.4,-6.238 0,-0.27 0,-0.559 -0.28,-0.852 -3.69,-14.437 -37.69,-140.879 -63.21,-164.687 -2.84,-5.391 -51.027,-97.789 -75.687,-231.59 -15.309,-83.609 -22.958,-144.84 -26.649,-180 -2.262,-22.672 -2.828,-34.859 -2.828,-35.152 l -0.281,-0.278 c 0,-0.57 0,-1.41 -0.571,-1.98 -1.421,-3.41 -42.8,-82.77 -273.539,-70.301 -231.882,12.48 -375.59,55.27 -405.07,120.762 -19.562,43.929 -32.039,239.238 -11.91,435.109 8.219,80.5 22.109,161.008 43.09,231.301 -2.551,5.12 -7.09,18.43 -4.821,40.26 0.559,6.8 1.981,14.46 4.532,22.97 l 1.699,6.22 c 12.48,45.92 35.719,131.25 72.57,144.86 36,13.33 622.488,-256.263 739.555,-310.404 M 371.754,1204.85 c -31.18,-11.63 -54.43,-96.39 -65.762,-137.21 l -1.707,-6.23 c -10.48,-37.71 0.289,-55.85 0.289,-56.12 0.852,-1.43 1.129,-3.12 0.571,-4.82 -72,-239.251 -59.532,-599.54 -32.321,-660.482 27.211,-60.379 171.211,-102.05 395.43,-113.941 209.48,-11.348 257.391,55.262 262.488,63.199 0,3.41 0.852,14.453 2.844,34.313 3.68,35.429 11.328,96.929 26.93,180.847 25.789,139.453 76.524,234.703 77.094,235.551 0.28,0.852 0.85,1.41 1.43,1.699 18.41,15.301 47.89,113.114 59.23,155.051 C 830.402,1020.59 399.813,1212.21 371.754,1204.85" /><path
         id="path140"
         style="fill:#ffea00;fill-opacity:1;fill-rule:evenodd;stroke:none"
         d="m 944.352,1295.84 c 5.949,1.98 12.468,2.55 19.281,1.98 17,-2.27 30.609,-13.32 36.847,-28.34 6.23,1.7 12.75,2.54 19.56,1.7 26.07,-3.13 45.07,-27.5 42.23,-54.14 -0.57,-5.97 -2.27,-11.63 -4.82,-16.74 20.7,-7.92 34.3,-29.75 32.03,-53.28 -0.85,-7.09 -2.83,-13.61 -6.23,-19.27 5.68,0.84 11.62,1.13 17.57,0.27 34.3,-4.25 59.25,-36.27 55.57,-71.43 -1.99,-19.84 -12.76,-36.57 -27.79,-46.48 3.97,-5.4 6.52,-11.626 7.94,-18.145 17.86,-10.781 29.2,-31.481 26.94,-53.86 -1.71,-16.16 -10.22,-30.05 -22.12,-38.55 2.27,-5.961 3.41,-12.758 2.56,-19.852 0,-1.129 -0.29,-1.976 -0.29,-3.109 0.85,-9.641 -0.56,-23.258 -10.49,-38.84 -20.41,-31.18 -24.38,-54.418 -22.4,-92.699 1.7,-38.539 1.7,-122.16 -22.66,-109.129 -24.39,13.328 2.25,191.058 -15.6,210.898 -18.14,19.84 -29.77,-11.051 -32.04,-32.879 -2.26,-21.84 -9.07,-45.922 -33.73,-22.39 -24.94,23.511 -5.67,99.211 -30.897,103.742 -4.813,0.848 -10.204,1.137 -15.59,1.707 -7.653,-3.41 -16.153,-4.82 -24.66,-3.688 -20.411,2.539 -36.282,17.289 -41.954,36 -9.07,-9.351 -22.109,-14.461 -36,-12.761 -18.707,2.261 -33.168,16.449 -37.699,34.289 -30.621,2 -93.258,15.883 -209.758,77.406 -45.082,23.52 -83.632,45.07 -115.089,63.5 -6.801,-2.57 -14.461,-3.7 -22.403,-2.84 -21.82,2.84 -38.828,20.41 -41.66,42.23 -1.141,0.56 -2.27,1.41 -3.41,1.99 -5.379,-1.43 -11.328,-1.99 -17.289,-1.13 -18.418,2.27 -33.16,15.59 -38.551,33.16 -17.008,9.64 -33.16,25.23 -9.348,42.8 -2.55,6.24 -3.972,13.04 -3.121,20.42 2.27,21.26 20.692,36.55 41.668,34.01 0.852,0 1.703,-0.28 2.551,-0.28 -0.277,2.55 -0.277,5.09 0,7.93 3.121,29.76 29.199,51.3 58.391,47.62 7.941,-0.84 15.308,-3.68 21.55,-7.66 9.348,19 29.481,30.91 51.301,28.36 3.969,-0.57 7.66,-1.43 11.34,-2.84 l 0,3.41 c 3.398,33.16 32.32,56.68 64.629,52.71 25.801,-3.12 45.922,-22.96 51.309,-47.89 7.941,5.66 18.14,8.21 28.351,6.8 9.918,-1.14 18.699,-5.67 25.512,-12.48 6.519,15.02 21.816,24.38 38.547,22.39 11.902,-1.41 21.832,-8.21 27.781,-17.85 15.019,32.87 49.039,53.57 86.172,49.03 46.207,-5.66 79.937,-48.46 75.969,-95.8" /><path
         id="path142"
         style="fill:#ffac00;fill-opacity:1;fill-rule:evenodd;stroke:none"
         d="m 461.895,1317.66 0,0 c 2.269,-0.28 4.539,-0.57 6.8,-1.13 -8.218,-5.96 -18.992,-10.21 -24.09,-18.15 -14.171,-27.78 10.489,-66.04 39.399,-63.78 -24.938,-20.4 0.851,-47.05 17.293,-54.99 17.859,-12.19 60.379,-22.96 69.168,-1.13 -0.57,-26.36 5.379,-56.13 32.879,-64.35 28.062,-3.4 66.609,-19.84 87.019,13.04 -1.699,-17.57 7.66,-36.28 13.332,-36.85 27.77,-9.35 81.918,-39.4 92.399,6.24 20.98,-73.14 85.332,-116.22 145.992,-82.49 30.051,13.89 28.629,55.28 32.309,90.14 25.805,-26.64 57.835,-48.19 99.215,-35.72 26.37,13.04 37.98,32.89 41.1,56.13 26.93,-9.92 44.79,-37.7 41.68,-68.03 -2,-19.84 -12.76,-36.57 -27.78,-46.49 3.96,-5.38 6.52,-11.62 7.94,-18.139 17.84,-10.77 29.18,-31.469 26.91,-53.871 -1.69,-16.149 -10.19,-30.039 -22.1,-38.539 2.27,-5.949 3.41,-12.762 2.55,-19.84 0,-1.141 -0.28,-1.988 -0.28,-3.121 0.85,-9.641 -0.56,-23.25 -10.49,-38.84 -20.41,-31.18 -24.37,-54.418 -22.39,-92.687 1.7,-38.551 1.7,-122.172 -22.68,-109.133 -24.37,13.32 2.27,191.05 -15.59,210.902 -18.14,19.84 -29.77,-11.062 -32.03,-32.902 -2.27,-21.809 -9.07,-45.91 -33.74,-22.379 -24.944,23.531 -5.66,99.211 -30.894,103.75 -4.82,0.851 -10.203,1.121 -15.589,1.699 -7.653,-3.398 -16.161,-4.82 -24.661,-3.687 -20.41,2.546 -36.281,17.277 -41.953,36 -9.066,-9.352 -22.109,-14.454 -36,-12.75 -18.707,2.269 -33.168,16.437 -37.699,34.296 -30.617,1.981 -93.258,15.871 -209.769,77.381 -45.071,23.53 -83.622,45.07 -115.079,63.5 -6.812,-2.55 -14.461,-3.69 -22.402,-2.84 -21.828,2.84 -38.828,20.41 -41.668,42.24 -1.133,0.57 -2.269,1.42 -3.402,1.98 -5.391,-1.41 -11.34,-1.98 -17.289,-1.13 -18.43,2.27 -33.168,15.59 -38.551,33.17 -17.008,9.63 -33.168,25.22 -9.359,42.8 -2.551,6.24 -3.961,13.04 -3.11,20.41 2.262,21.26 20.692,36.57 41.668,34.01 0.852,0 1.703,-0.28 2.551,-0.28 -0.289,2.55 -0.289,5.1 0,7.94 3.109,29.76 29.191,51.3 58.391,47.62" /><path
         id="path144"
         style="fill:#000000;fill-opacity:1;fill-rule:nonzero;stroke:none"
         d="m 949.734,1302.92 c 4.821,0.85 9.641,1.13 14.461,0.57 16.723,-1.99 31.18,-12.48 39.105,-27.5 5.68,1.13 11.65,1.7 17.31,1.13 29.19,-3.68 50.44,-30.89 47.33,-60.66 -0.55,-4.53 -1.71,-9.07 -3.4,-13.32 20.69,-10.49 32.89,-33.16 30.62,-56.69 -0.57,-4.54 -1.7,-8.79 -3.12,-12.76 3.12,0 6.24,0.57 9.35,0.28 37.41,-4.81 64.63,-39.68 60.66,-78.23 -1.98,-18.99 -11.62,-35.72 -26.07,-47.34 2.27,-3.97 4.25,-8.502 5.38,-13.041 19,-12.468 30.05,-34.871 27.78,-58.109 -1.69,-15.59 -9.63,-29.762 -21.54,-39.68 1.7,-5.961 2.83,-12.48 1.97,-18.711 l -0.27,-2.839 c 0.27,-3.68 0.27,-7.079 0,-10.489 -1.13,-10.48 -5.1,-20.972 -11.62,-30.89 -13.33,-20.411 -18.99,-37.141 -20.98,-56.129 -1.13,-10.203 -0.85,-20.981 -0.28,-33.16 0.85,-19.852 1.42,-47.34 -1.14,-70.301 -1.98,-20.981 -6.52,-38.571 -15.3,-44.219 -4.25,-2.844 -9.36,-2.844 -14.46,0 -15.58,8.496 -15.02,50.738 -13.04,118.77 1.13,38.257 2.55,85.886 -4.25,93.257 -3.12,3.403 -5.95,4.821 -8.22,4.25 -5.96,-1.988 -12.19,-17.578 -13.89,-34.019 -1.42,-13.32 -4.53,-31.738 -16.73,-36.281 -7.66,-2.84 -16.14,0.57 -26.64,10.48 -13.895,13.051 -15.594,38.84 -17.016,61.801 -1.129,19 -2.546,38.84 -10.769,40.539 0,0 -12.469,1.133 -14.457,1.41 -8.223,-3.109 -17.012,-4.527 -25.512,-3.398 -19.281,2.269 -35.148,15.031 -43.371,32.589 -9.918,-7.359 -22.109,-11.039 -34.578,-9.628 -19,2.546 -34.59,16.16 -40.82,34.867 -34.02,2.84 -97.231,18.992 -208.629,77.391 -39.403,20.69 -77.391,41.95 -113.102,62.93 -7.371,-2.56 -14.738,-3.41 -22.398,-2.56 -22.961,2.84 -41.383,20.7 -46.203,43.66 -5.098,-1.14 -10.77,-1.42 -16.161,-0.85 -19.277,2.55 -35.718,16.16 -42.238,34.86 -14.449,8.79 -22.109,18.15 -22.672,27.78 -0.289,1.14 0,2.27 0,3.41 0.563,6.23 4.531,12.18 11.051,17.85 -1.98,6.24 -2.828,12.76 -2.27,19 2.27,23.24 21.833,40.25 44.219,39.4 l 0,2.26 c 3.41,33.17 32.602,56.98 64.633,53.01 6.809,-0.85 13.039,-3.12 19.277,-6.23 11.34,18.42 32.032,29.48 53.571,26.64 1.992,-0.28 3.972,-0.85 5.961,-1.41 5.101,34.58 35.711,59.24 70.011,54.99 25.231,-3.12 45.918,-20.98 54.141,-45.36 7.937,3.69 16.727,5.39 25.797,4.25 8.5,-1.13 16.16,-4.81 23.242,-10.2 8.789,13.89 24.098,22.11 40.539,20.13 10.199,-1.42 19.281,-6.24 26.359,-13.61 17.86,31.18 51.879,49.04 87.59,44.79 46.493,-5.67 81.071,-47.34 80.789,-94.68 m 199.566,-426.9 0,1.14 0,-1.14 z m -208.632,414.99 c -1.422,1.42 -2.273,3.41 -1.992,5.39 3.691,43.94 -28.059,84.19 -70.86,89.58 -33.73,3.96 -66.05,-14.46 -80.511,-45.93 -0.848,-1.7 -2.547,-3.11 -4.809,-3.11 -1.988,-0.29 -3.969,0.85 -5.109,2.55 -5.379,8.5 -13.891,13.89 -23.52,15.3 -13.89,1.7 -26.929,-5.95 -32.89,-18.99 -0.559,-1.7 -2.262,-3.12 -3.961,-3.4 -1.711,-0.28 -3.692,0.28 -5.11,1.7 -5.949,5.95 -13.601,9.64 -22.109,10.77 -8.5,1.14 -17.57,-1.13 -24.66,-5.95 -1.699,-1.13 -3.68,-1.13 -5.379,-0.57 -1.711,0.85 -2.84,2.55 -3.41,4.26 -4.813,23.24 -23.524,40.53 -46.203,43.37 -29.2,3.4 -55.278,-17.86 -58.387,-47.91 l 0,-2.84 c -0.293,-1.98 -1.141,-3.68 -2.563,-4.53 -1.41,-1.13 -3.398,-1.42 -5.097,-0.57 -3.403,1.14 -6.801,1.99 -9.922,2.27 -18.988,2.27 -37.129,-7.65 -45.641,-24.94 -0.558,-1.42 -1.98,-2.56 -3.398,-3.12 -1.699,-0.29 -3.121,-0.29 -4.532,0.56 -5.96,3.97 -12.48,6.24 -19.281,7.09 -26.078,3.12 -49.316,-16.16 -52.156,-42.8 l 0,-7.09 c 0,-1.7 -1.133,-3.4 -2.551,-4.25 -1.133,-1.13 -3.121,-1.7 -4.531,-1.42 l -1.699,0.29 c -17.86,1.98 -33.742,-11.06 -35.442,-29.2 -0.558,-5.67 0.289,-11.62 2.84,-17.29 1.133,-2.55 0.281,-5.39 -1.988,-7.09 -4.531,-3.4 -9.922,-8.5 -9.629,-13.89 0.277,-5.67 6.797,-12.47 18.418,-18.99 1.129,-0.85 2.269,-1.99 2.551,-3.69 4.82,-15.59 18.14,-26.93 33.73,-28.91 5.11,-0.57 10.207,-0.28 15.028,1.13 1.703,0.57 3.679,0 5.101,-0.85 l 2.828,-1.98 c 1.422,-0.85 2.563,-2.55 2.844,-4.25 2.547,-19.28 17.859,-34.59 36.848,-36.85 6.519,-0.85 13.32,0 19.558,2.55 1.703,0.57 3.403,0.28 4.821,-0.57 36.281,-21.26 74.832,-42.52 114.8,-63.49 113.391,-59.53 175.473,-74.561 207.5,-76.541 2.551,-0.278 4.821,-1.989 5.379,-4.539 3.692,-15.872 17.012,-28.059 32.883,-30.04 11.629,-1.421 22.969,2.829 30.898,11.329 1.422,1.421 3.692,1.992 5.672,1.421 1.7,-0.281 3.399,-1.98 3.969,-3.968 5.102,-17.293 19.84,-29.762 37.129,-31.742 7.371,-1.141 15.031,0 21.832,3.109 0.848,0.293 1.418,0.293 2.27,0.293 l 16.441,-1.703 c 17.289,-3.117 18.988,-26.36 20.406,-51.309 1.422,-20.699 2.844,-43.941 13.316,-53.859 6.53,-6.231 11.91,-9.071 15.03,-7.942 2,0.86 7.09,5.11 9.36,26.653 1.42,14.168 7.66,38.84 21.84,43.636 4.52,1.711 11.89,1.43 19.83,-7.359 9.64,-10.48 9.07,-45.629 7.37,-101.758 -1.14,-38.269 -3.12,-102.332 6.8,-107.722 1.99,-1.129 2.84,-0.848 3.4,-0.559 8.8,5.949 13.33,49.602 11.05,104.031 -1.98,37.418 1.43,62.641 23.25,96.379 7.66,11.621 10.78,23.52 9.64,34.86 l 0,1.992 0.29,2.258 c 0.85,5.96 0,11.91 -2.27,17.3 -1.14,2.25 -0.29,5.379 1.98,6.801 11.06,7.93 18.43,20.41 19.84,34.301 1.99,19.558 -7.66,38.269 -24.09,48.187 -1.42,0.852 -2.54,2.262 -2.84,3.969 -1.14,5.66 -3.41,11.052 -6.8,15.592 -0.84,1.41 -1.13,3.11 -0.84,4.53 0,1.7 1.12,3.12 2.25,3.97 14.47,9.35 23.54,24.94 25.25,42.24 3.39,32.03 -19.29,61.22 -50.47,65.19 -5.1,0.57 -10.49,0.29 -15.87,-0.56 -2.27,-0.29 -4.54,0.56 -5.68,2.55 -1.41,1.7 -1.41,4.25 -0.28,6.23 2.84,5.39 4.83,11.06 5.39,17.29 1.98,20.41 -9.64,39.69 -28.36,47.06 -1.41,0.57 -2.82,1.7 -3.39,3.4 -0.57,1.42 -0.57,3.12 0.28,4.82 2.27,4.54 3.69,9.64 4.27,14.74 2.25,23.24 -14.18,44.79 -37.14,47.62 -5.68,0.57 -11.62,0 -17.3,-1.7 -2.555,-0.85 -5.672,0.57 -6.805,3.4 -5.668,13.33 -18.141,22.96 -32.32,24.66 -5.668,0.86 -11.34,0 -17.008,-1.7 -1.699,-0.56 -3.68,-0.28 -5.379,0.85 M 819.625,944.898 c 0,0 0,0.293 -0.277,0.293" /><path
         id="path146"
         style="fill:#ffff40;fill-opacity:1;fill-rule:nonzero;stroke:none"
         d="m 1117.27,987.141 c 3.12,-9.922 2.55,-18.711 -1.7,-26.364 -7.09,-12.179 -21.54,-15.589 -22.11,-15.879 -3.12,-0.558 -6.25,1.422 -6.82,4.54 -0.84,3.121 1.15,6.242 4.27,7.089 0,0 10.48,2.262 14.73,10.481 2.56,4.543 2.84,10.211 0.86,16.73 -6.8,23.242 -32.04,18.712 -33.18,18.422 -3.11,-0.56 -5.94,1.7 -6.52,4.82 -0.84,3.12 1.15,6.24 4.27,6.81 12.47,2.26 38.25,0 46.2,-26.649" /><path
         id="path148"
         style="fill:#ffff40;fill-opacity:1;fill-rule:nonzero;stroke:none"
         d="m 970.996,1118.1 c 22.391,-4.82 36.864,-21.83 40.544,-48.19 3.67,-24.66 0,-44.22 -10.49,-58.11 -13.042,-16.718 -31.476,-18.417 -32.323,-18.417 -3.122,-0.293 -5.672,1.976 -5.95,5.097 -0.57,3.4 1.981,6.23 4.821,6.52 0.277,0 14.738,1.42 24.66,14.45 8.512,11.06 11.062,27.5 8.222,48.76 -3.125,21.54 -13.894,34.58 -31.753,38.27 -21.821,4.53 -46.493,-6.24 -50.45,-13.32 -1.422,-2.84 -5.109,-3.69 -7.66,-2.27 -2.832,1.7 -3.679,5.38 -2.269,8.22 7.367,12.75 37.707,24.09 62.648,18.99" /><path
         id="path150"
         style="fill:#ffff40;fill-opacity:1;fill-rule:nonzero;stroke:none"
         d="m 898.43,1116.97 c 12.468,-14.17 11.34,-36.85 11.34,-37.98 -0.293,-3.12 -2.84,-5.67 -5.954,-5.39 -3.117,0.28 -5.668,3.12 -5.386,6.24 0,0.28 0.847,18.99 -8.223,29.48 -3.969,4.53 -9.07,6.8 -15.309,7.08 -10.492,0.57 -18.14,-2.26 -22.671,-8.78 -4.821,-6.81 -5.387,-16.16 -3.411,-21.55 1.141,-3.12 -0.558,-6.52 -3.398,-7.65 -2.828,-1.14 -6.23,0.57 -7.371,3.68 -2.828,8.22 -2.828,21.83 4.82,32.6 4.821,6.52 14.461,14.46 32.321,13.32 9.628,-0.56 17.57,-4.25 23.242,-11.05" /><path
         id="path152"
         style="fill:#ffff40;fill-opacity:1;fill-rule:nonzero;stroke:none"
         d="m 958.523,1216.75 c 5.391,-13.04 5.954,-24.66 1.704,-34.02 -5.383,-12.18 -16.723,-16.15 -17.293,-16.15 -2.84,-1.14 -5.95,0.56 -7.09,3.68 -1.129,2.84 0.57,6.24 3.402,7.37 0.289,0 7.367,2.55 10.488,10.21 2.84,6.23 2.27,14.74 -1.699,24.66 -6.23,15.59 -20.41,19.56 -31.461,17.86 -11.058,-1.42 -19.847,-8.51 -20.699,-16.44 -0.281,-3.41 -3.109,-5.67 -6.23,-5.11 -3.122,0.29 -5.391,3.12 -5.098,6.52 1.406,13.33 13.887,24.38 30.609,26.65 14.457,1.98 34.578,-3.4 43.367,-25.23" /><path
         id="path154"
         style="fill:#000000;fill-opacity:1;fill-rule:nonzero;stroke:none"
         d="m 948.887,1298.95 c 1.699,-2.55 1.129,-6.24 -1.418,-7.94 -0.563,-0.56 -15.871,-12.19 -9.352,-34.01 0.852,-3.12 -0.851,-6.24 -3.969,-7.09 -2.832,-1.13 -5.953,0.85 -7.089,3.97 -7.082,24.09 5.957,41.1 13.886,46.77 2.551,1.7 6.243,1.13 7.942,-1.7" /><path
         id="path156"
         style="fill:#ffff40;fill-opacity:1;fill-rule:nonzero;stroke:none"
         d="m 829.547,1300.65 c 18.43,-11.34 20.687,-36 20.687,-37.13 0.293,-3.12 -1.976,-5.96 -5.097,-6.23 -3.121,-0.29 -5.949,2.26 -6.242,5.39 0,0.27 -1.7,19.84 -15.297,28.05 -9.641,5.95 -22.961,5.11 -40.25,-2.55 -2.84,-1.41 -6.243,0 -7.66,3.12 -1.133,2.83 0,6.24 3.117,7.65 20.691,9.07 37.703,9.64 50.742,1.7" /><path
         id="path158"
         style="fill:#ffff40;fill-opacity:1;fill-rule:nonzero;stroke:none"
         d="m 758.113,1238.01 c 40.543,-45.07 1.133,-92.69 0.852,-93.26 -1.981,-2.27 -5.668,-2.55 -7.942,-0.28 -2.546,1.98 -2.828,5.67 -0.558,8.22 1.129,1.41 32.879,39.97 -0.852,77.38 -19.847,22.11 -51.59,21.83 -72.847,12.48 -20.129,-9.08 -31.192,-25.23 -29.481,-43.37 0.281,-3.12 -2.269,-5.96 -5.39,-6.24 -3.122,-0.28 -5.668,2.27 -5.95,5.38 -2.269,22.97 11.899,43.94 36.282,55 25.507,11.34 62.078,11.05 85.886,-15.31" /><path
         id="path160"
         style="fill:#ffff40;fill-opacity:1;fill-rule:nonzero;stroke:none"
         d="m 732.602,1085.22 c 14.742,-6.52 28.632,-22.96 25.23,-44.22 -2.551,-16.72 -17.008,-27.5 -36.57,-27.21 -14.739,0.28 -30.61,7.08 -32.598,19.84 -0.562,3.12 1.699,6.24 4.82,6.8 2.84,0.29 5.95,-1.7 6.52,-5.1 0.57,-4.54 9.641,-9.64 21.258,-9.92 5.39,0 22.679,1.13 25.511,17.86 2.27,15.02 -7.652,26.36 -18.421,31.18 -6.52,2.55 -15.309,3.68 -19.559,-2.27 -1.699,-2.83 -5.391,-3.4 -7.941,-1.42 -2.547,1.7 -3.118,5.39 -1.418,8.22 6.808,9.64 19.558,11.91 33.168,6.24" /><path
         id="path162"
         style="fill:#ffff40;fill-opacity:1;fill-rule:nonzero;stroke:none"
         d="m 603.91,1120.37 c -0.277,-3.12 -2.828,-5.67 -5.949,-5.39 -3.121,0 -5.672,2.84 -5.391,5.96 0,1.41 0.282,33.72 -27.781,37.13 -16.437,1.98 -24.937,-7.37 -28.34,-13.32 -5.386,-9.07 -6.238,-21.27 -1.988,-28.06 1.699,-2.84 0.852,-6.53 -1.699,-8.23 -2.551,-1.7 -6.242,-0.85 -7.942,1.7 -6.8,11.05 -5.949,27.78 1.993,40.82 8.218,13.89 22.667,20.7 39.117,18.71 31.179,-3.68 38.261,-33.73 37.98,-49.32" /><path
         id="path164"
         style="fill:#ffff40;fill-opacity:1;fill-rule:nonzero;stroke:none"
         d="m 495.625,1239.14 c 13.32,-3.4 23.238,-10.77 29.48,-21.54 12.758,-21.83 5.391,-50.18 5.098,-51.31 -0.848,-3.12 -3.969,-4.82 -6.797,-3.97 -3.121,0.85 -4.82,3.97 -4.25,7.09 0.278,0.28 6.231,24.94 -3.691,42.23 -4.531,8.22 -12.192,13.61 -22.391,16.16 -14.738,3.69 -24.949,-4.82 -29.758,-10.2 -9.929,-10.77 -13.89,-27.22 -9.929,-39.69 3.41,-10.49 12.187,-17.29 24.949,-20.12 3.117,-0.57 5.098,-3.69 4.527,-6.81 -0.558,-3.12 -3.398,-5.1 -6.519,-4.53 -17,3.4 -28.91,13.6 -33.731,28.06 -5.379,16.44 -0.277,37.13 12.192,51.31 11.058,12.19 25.8,17 40.82,13.32" /><path
         id="path166"
         style="fill:#000000;fill-opacity:1;fill-rule:nonzero;stroke:none"
         d="m 551.754,1335.23 c -1.699,-32.03 22.109,-38.83 23.238,-39.12 3.121,-0.84 4.821,-3.97 4.262,-7.07 -0.852,-3.13 -3.973,-5.11 -7.09,-4.27 -11.621,3.12 -33.449,17.59 -31.75,51.03 0,3.4 2.84,5.67 5.949,5.67 3.121,-0.29 5.391,-3.11 5.391,-6.24" /><path
         id="path168"
         style="fill:#000000;fill-opacity:1;fill-rule:nonzero;stroke:none"
         d="m 485.707,1315.39 c 2.832,-1.42 4.25,-4.82 3.121,-7.65 -12.191,-28.63 0.281,-45.92 0.852,-46.49 1.976,-2.55 1.699,-6.24 -0.852,-8.22 -2.551,-1.99 -5.949,-1.7 -7.941,0.85 -0.848,0.85 -17.571,23.53 -2.547,58.68 1.129,2.83 4.539,4.25 7.367,2.83" /><path
         id="path170"
         style="fill:#000000;fill-opacity:1;fill-rule:nonzero;stroke:none"
         d="M 350.211,959.648 C 640.48,685.809 1037.61,742.227 1041.58,743.078 c 3.12,0.281 5.95,-1.98 6.52,-5.101 0.57,-3.118 -1.42,-6.239 -4.54,-6.52 -4.25,-0.57 -406.482,-58.117 -701.001,219.68 -2.27,2.269 -2.27,5.953 -0.289,8.23 1.992,2.25 5.671,2.551 7.941,0.281" /><path
         id="path172"
         style="fill:#ffffff;fill-opacity:1;fill-rule:nonzero;stroke:none"
         d="m 351.059,981.758 c 290.269,-274.11 687.401,-217.418 691.371,-216.86 3.12,0.579 5.95,-1.691 6.52,-4.808 0.57,-3.41 -1.7,-6.242 -4.54,-6.813 -4.25,-0.558 -406.48,-58.097 -701,219.692 -2.269,2.269 -2.551,5.961 -0.289,8.508 1.988,2.25 5.668,2.25 7.938,0.281" /><path
         id="path174"
         style="fill:#ffff40;fill-opacity:1;fill-rule:nonzero;stroke:none"
         d="m 429.578,1429.63 c -1.976,-17.86 10.492,-33.73 27.781,-35.72 17.012,-2.26 32.602,10.49 34.301,28.07 1.981,17.57 -10.488,33.73 -27.781,35.71 -17.289,1.99 -32.598,-10.49 -34.301,-28.06" /><path
         id="path176"
         style="fill:#000000;fill-opacity:1;fill-rule:nonzero;stroke:none"
         d="m 497.328,1421.13 c -1.98,-20.7 -20.41,-35.73 -40.539,-33.18 -20.398,2.56 -35.141,21.55 -32.879,42.24 1.988,20.98 20.41,35.72 40.539,33.17 20.41,-2.27 35.149,-21.26 32.879,-42.23 m -11.34,1.41 c 1.422,14.45 -8.789,27.49 -22.679,29.19 -14.168,1.99 -26.641,-8.5 -28.059,-22.96 -1.699,-14.45 8.508,-27.49 22.68,-29.19 13.89,-1.7 26.64,8.5 28.058,22.96" /><path
         id="path178"
         style="fill:#ffff40;fill-opacity:1;fill-rule:nonzero;stroke:none"
         d="m 787.598,1515.23 c -1.981,-19.28 11.621,-36.57 30.332,-39.12 18.707,-2.27 35.429,11.62 37.418,30.91 1.98,19.27 -11.621,36.57 -30.328,38.82 -18.711,2.27 -35.442,-11.32 -37.422,-30.61" /><path
         id="path180"
         style="fill:#000000;fill-opacity:1;fill-rule:nonzero;stroke:none"
         d="m 861.012,1506.16 c -2.27,-22.39 -21.832,-38.27 -43.653,-35.72 -21.828,2.55 -37.699,22.96 -35.437,45.36 2.269,22.67 21.828,38.55 43.66,36 21.82,-2.55 37.699,-22.96 35.43,-45.64 m -11.34,1.42 c 1.699,16.15 -9.641,30.61 -25.231,32.6 -15.589,1.98 -29.48,-9.64 -31.179,-25.52 -1.699,-16.15 9.64,-30.61 25.23,-32.59 15.59,-1.99 29.481,9.63 31.18,25.51" /><path
         id="path182"
         style="fill:#ffff40;fill-opacity:1;fill-rule:nonzero;stroke:none"
         d="m 1068.51,1351.68 c -1.12,-11.34 6.81,-21.54 17.56,-22.97 11.07,-1.12 20.71,6.81 21.84,18.15 1.14,11.05 -6.79,21.25 -17.56,22.68 -11.07,1.41 -20.71,-6.81 -21.84,-17.86" /><path
         id="path184"
         style="fill:#000000;fill-opacity:1;fill-rule:nonzero;stroke:none"
         d="m 1113.59,1346.01 c -0.59,-6.8 -3.98,-13.05 -9.37,-17.57 -5.09,-4.26 -11.9,-6.24 -18.7,-5.39 -6.81,0.84 -12.75,4.25 -17.29,9.91 -4.26,5.4 -6.24,12.2 -5.39,19.29 1.41,14.45 13.88,24.66 28.05,22.96 13.9,-1.7 24.4,-14.75 22.7,-29.2 m -16.46,-8.22 c 2.84,2.26 4.83,5.67 5.1,9.64 0.86,7.93 -4.8,15.3 -12.46,16.14 -7.95,1.14 -14.73,-4.8 -15.59,-12.75 -0.57,-3.68 0.56,-7.64 3.12,-10.77 2.26,-3.11 5.66,-4.82 9.35,-5.39 3.96,-0.56 7.64,0.57 10.48,3.13" /><path
         id="path186"
         style="fill:#ffff40;fill-opacity:1;fill-rule:nonzero;stroke:none"
         d="m 1116.7,1207.39 c -2.83,-25.51 15.31,-48.76 40.24,-51.87 25.24,-3.12 47.63,15.3 50.19,40.81 2.55,25.8 -15.61,49.05 -40.54,52.16 -24.95,3.12 -47.34,-15.3 -49.89,-41.1" /><path
         id="path188"
         style="fill:#000000;fill-opacity:1;fill-rule:nonzero;stroke:none"
         d="m 1212.79,1195.77 c -3.12,-28.91 -28.35,-49.61 -56.41,-46.2 -28.06,3.4 -48.47,29.76 -45.35,58.67 2.83,28.63 28.06,49.33 56.12,45.92 28.07,-3.4 48.47,-29.48 45.64,-58.39 m -11.34,1.42 c 2.27,22.39 -13.6,42.8 -35.43,45.35 -21.83,2.84 -41.39,-13.32 -43.66,-35.71 -2.26,-22.4 13.61,-42.81 35.44,-45.64 21.82,-2.55 41.38,13.6 43.65,36" /><path
         id="path190"
         style="fill:#ffac00;fill-opacity:1;fill-rule:evenodd;stroke:none"
         d="m 934.43,716.719 0.281,0 c 0.566,0 1.418,-0.281 2.269,-0.578 5.95,-1.981 9.071,-8.493 7.09,-14.442 -0.57,-2.269 -81.359,-244.351 -70.871,-413.301 0.571,-6.23 -4.25,-11.339 -10.488,-11.621 -6.231,-0.277 -11.621,4.543 -12.191,10.774 -10.77,173.187 68.597,411.59 72,421.797 1.71,5.09 6.808,7.941 11.91,7.371" /><path
         id="path192"
         style="fill:#ffff40;fill-opacity:1;fill-rule:nonzero;stroke:none"
         d="m 938.398,720.398 c 3.969,-1.418 7.09,-4.539 9.071,-8.218 1.418,-2.84 1.699,-5.668 1.418,-8.5 0,-1.141 -0.289,-2.27 -0.571,-3.41 -0.847,-1.981 -52.437,-157.04 -67.75,-305 -3.679,-36.848 -5.097,-73.141 -3.109,-106.59 l 0,-2.551 c -0.289,-3.117 -1.711,-6.231 -3.687,-8.5 -2.832,-3.117 -6.801,-5.098 -11.051,-5.391 -8.512,-0.277 -15.879,6.524 -16.449,15.032 -10.774,174.039 68.886,413.57 72.289,423.492 2.828,8.218 11.621,12.468 19.839,9.636 M 862.43,281.02 c 1.988,0.289 3.687,1.14 4.816,2.558 1.422,1.133 1.981,2.844 1.703,4.531 -10.492,169.52 70.297,412.731 71.149,415.282 0.57,1.418 0.57,3.398 -0.282,4.82 -0.847,1.699 -2.269,3.117 -4.25,3.687 -3.687,1.411 -7.66,-0.57 -8.789,-3.968 -3.398,-10.211 -82.769,-247.75 -72,-420.102 0.282,-3.969 3.68,-6.808 7.653,-6.808 m 75.968,439.378 0,0" /><path
         id="path194"
         style="fill:#ffac00;fill-opacity:1;fill-rule:evenodd;stroke:none"
         d="m 821.328,719.27 0,0 c 0.57,0 1.418,-0.282 1.981,-0.582 6.238,-1.969 9.359,-8.489 7.66,-14.731 -0.852,-2.828 -88.731,-296.219 -70.301,-442.199 0.852,-6.52 -3.691,-12.192 -9.922,-13.039 -6.238,-0.571 -11.906,3.969 -12.758,10.199 -18.992,151.371 67.469,440.219 71.149,452.41 1.703,5.391 6.801,8.512 12.191,7.942" /><path
         id="path196"
         style="fill:#ffff40;fill-opacity:1;fill-rule:nonzero;stroke:none"
         d="m 824.73,722.949 c 3.969,-1.129 7.372,-4.25 9.352,-8.219 1.418,-2.832 1.988,-5.953 1.418,-8.792 0,-1.118 -0.277,-2.27 -0.57,-3.118 -0.559,-2.55 -53.571,-179.703 -68.59,-326.55 -4.258,-42.231 -5.668,-81.911 -1.418,-113.95 l 0,-3.972 c -0.281,-2.828 -1.422,-5.66 -3.121,-7.938 -2.551,-3.402 -6.238,-5.66 -10.488,-6.23 -8.5,-0.852 -16.442,5.379 -17.571,14.168 -18.992,152.222 67.75,441.922 71.43,454.402 2.551,8.219 11.34,13.027 19.558,10.199 M 750.18,253.25 c 1.98,0.289 3.679,1.141 4.82,2.828 1.133,1.422 1.699,3.121 1.422,5.11 -18.43,146.261 69.437,441.351 70.578,444.191 0.281,1.98 0.281,3.68 -0.57,5.379 -0.848,1.699 -2.27,3.121 -4.25,3.691 -3.688,1.129 -7.649,-0.851 -8.789,-4.539 -3.68,-12.18 -89.86,-300.191 -71.149,-450.422 0.571,-3.968 4.25,-6.8 7.938,-6.238" /><path
         id="path198"
         style="fill:#ffac00;fill-opacity:1;fill-rule:evenodd;stroke:none"
         d="m 486.84,801.477 c 6.242,-1.704 9.922,-7.942 8.223,-13.903 -0.282,-1.699 -43.653,-170.918 -43.372,-497.48 0,-6.239 -5.101,-11.047 -11.339,-11.047 -6.231,0.277 -11.34,5.387 -11.34,11.629 -0.282,329.668 43.66,501.148 44.218,502.859 1.422,5.391 6.52,8.789 11.911,8.211 0.57,0 1.129,-0.269 1.699,-0.269" /><path
         id="path200"
         style="fill:#ffff40;fill-opacity:1;fill-rule:nonzero;stroke:none"
         d="m 487.973,805.723 c 4.25,-1.129 7.652,-3.961 9.64,-7.649 1.981,-3.691 2.551,-7.941 1.7,-11.633 -0.571,-1.699 -43.661,-169.507 -43.368,-496.339 0,-3.969 -1.422,-7.938 -4.25,-10.77 -3.121,-3.117 -7.09,-4.539 -11.34,-4.539 -8.511,0 -15.589,7.371 -15.589,15.871 -0.293,329.957 43.648,502.301 44.218,504 2.27,8.508 10.77,13.328 18.989,11.059 M 440.355,283.582 c 1.981,0 3.969,0.57 5.098,1.981 1.422,1.14 1.981,2.839 1.981,4.539 -0.282,328.531 43.089,496.91 43.66,498.613 0.281,1.699 0,3.398 -0.852,5.098 -0.847,1.71 -2.547,2.839 -4.25,3.41 -3.969,0.851 -7.656,-1.141 -8.789,-4.821 -0.289,-1.699 -44.219,-173.199 -43.937,-501.738 0,-3.961 3.117,-7.082 7.089,-7.082" /><path
         id="path202"
         style="fill:#ffac00;fill-opacity:1;fill-rule:evenodd;stroke:none"
         d="m 365.801,878.574 c 6.242,-0.851 10.492,-6.801 9.64,-12.761 -0.57,-4.25 -53.859,-400.25 -25.8,-522.989 1.422,-6.23 -2.27,-12.191 -8.5,-13.32 -5.95,-1.141 -12.192,2.551 -13.61,8.789 -29.191,126.711 23.25,514.48 25.231,530.922 0.847,5.961 6.519,10.211 12.468,9.359" /><path
         id="path204"
         style="fill:#ffff40;fill-opacity:1;fill-rule:nonzero;stroke:none"
         d="m 366.367,882.82 0,0 c 3.969,-0.566 7.942,-2.828 10.488,-6.238 2.274,-3.398 3.403,-7.648 2.833,-11.621 -0.559,-3.969 -53.86,-398.828 -25.79,-521.289 0.848,-3.969 0.278,-8.211 -1.992,-11.621 -1.98,-3.68 -5.668,-5.949 -9.918,-6.797 -8.222,-1.711 -16.722,3.68 -18.422,11.906 -29.48,127.551 22.961,516.192 25.231,532.621 1.129,8.5 9.07,14.473 17.57,13.039 M 340.285,333.762 c 1.992,0.558 3.403,1.41 4.543,3.109 0.848,1.41 1.129,3.121 0.848,5.102 -28.629,123.59 24.941,520.437 25.512,524.41 0.281,1.699 -0.282,3.398 -1.141,4.82 -1.129,1.699 -3.109,2.828 -4.809,3.117 -3.972,0.563 -7.66,-1.988 -8.222,-5.949 -1.989,-16.16 -54.149,-403.379 -25.231,-529.238 0.852,-3.672 4.82,-6.231 8.5,-5.371" /><path
         id="path206"
         style="fill:#ffff40;fill-opacity:1;fill-rule:nonzero;stroke:none"
         d="m 447.152,968.711 c -1.418,-13.039 7.653,-24.66 20.129,-26.07 12.473,-1.43 23.813,7.64 24.942,20.41 1.422,12.75 -7.649,24.648 -20.129,26.07 -12.473,1.43 -23.813,-7.648 -24.942,-20.41" /><path
         id="path208"
         style="fill:#ffff40;fill-opacity:1;fill-rule:nonzero;stroke:none"
         d="m 532.191,924.773 c -0.57,-7.359 4.539,-14.168 11.911,-15.019 7.371,-0.848 13.89,4.531 14.449,11.902 0.851,7.367 -4.528,14.168 -11.617,15.321 -7.371,0.847 -13.891,-4.543 -14.743,-12.204" /><path
         id="path210"
         style="fill:#ffff40;fill-opacity:1;fill-rule:nonzero;stroke:none"
         d="m 424.762,1030.23 c -0.852,-7.66 4.539,-14.46 11.91,-15.32 7.078,-0.84 13.598,4.54 14.449,11.91 0.852,7.66 -4.531,14.45 -11.898,15.32 -7.09,0.84 -13.614,-4.55 -14.461,-11.91" /><path
         id="path212"
         style="fill:#ffff40;fill-opacity:1;fill-rule:nonzero;stroke:none"
         d="m 686.969,943.203 c -0.852,-7.371 4.25,-14.172 11.621,-15.019 7.367,-0.852 13.887,4.531 14.738,11.898 0.57,7.371 -4.531,14.172 -11.898,15.031 -7.371,1.129 -13.891,-4.261 -14.461,-11.91" /><path
         id="path214"
         style="fill:#ffff40;fill-opacity:1;fill-rule:nonzero;stroke:none"
         d="m 953.707,792.969 c -0.57,-7.371 4.539,-14.168 11.91,-15.02 7.367,-0.851 13.891,4.531 14.738,11.899 0.559,7.371 -4.539,14.172 -11.91,15.312 -7.371,0.848 -13.89,-4.543 -14.738,-12.191" /><path
         id="path216"
         style="fill:#ffff40;fill-opacity:1;fill-rule:nonzero;stroke:none"
         d="m 427.031,847.676 c -0.57,-5.391 3.121,-10.211 8.5,-11.059 5.11,-0.562 9.641,3.41 10.211,8.508 0.571,5.383 -3.121,10.199 -8.222,11.051 -5.387,0.57 -9.918,-3.399 -10.489,-8.5" /><path
         id="path218"
         style="fill:#ffff40;fill-opacity:1;fill-rule:nonzero;stroke:none"
         d="m 397.551,764.902 c -1.133,-11.898 7.09,-22.39 18.429,-23.808 11.618,-1.41 21.821,7.09 22.958,18.707 1.132,11.902 -7.09,22.39 -18.43,23.812 -11.617,1.418 -21.828,-7.09 -22.957,-18.711" /><path
         id="path220"
         style="fill:#ffff40;fill-opacity:1;fill-rule:nonzero;stroke:none"
         d="m 706.238,854.766 c -1.129,-11.911 7.09,-22.692 18.711,-24.09 11.34,-1.141 21.539,7.082 22.961,18.98 1.129,11.621 -7.09,22.399 -18.711,23.821 -11.34,1.418 -21.539,-7.09 -22.961,-18.711" /><path
         id="path222"
         style="fill:#ffffff;fill-opacity:1;fill-rule:nonzero;stroke:none"
         d="m 261.199,1058.86 c 0,0 -68.308,59.81 -104.879,-3.4 -26.359,-45.64 -61.8005,-239.534 17.289,-418.112 0,0 -45.636,168.66 -28.91,331.371 16.723,162.711 116.5,90.141 116.5,90.141" /><path
         id="path224"
         style="fill:#ffffff;fill-opacity:1;fill-rule:nonzero;stroke:none"
         d="m 339.723,206.758 c 0,0 -41.391,28.629 -41.391,56.422 0,28.047 55,-6.532 55,-6.532 0,0 -22.398,4.25 -27.219,-14.46 -4.531,-18.418 13.61,-35.43 13.61,-35.43" /></g></g></svg>