<?xml version="1.0" encoding="UTF-8" standalone="no"?>
<svg
   xmlns:dc="http://purl.org/dc/elements/1.1/"
   xmlns:cc="http://creativecommons.org/ns#"
   xmlns:rdf="http://www.w3.org/1999/02/22-rdf-syntax-ns#"
   xmlns:svg="http://www.w3.org/2000/svg"
   xmlns="http://www.w3.org/2000/svg"
   viewBox="0 0 248.03751 248.03751"
   height="248.03751"
   width="248.03751"
   xml:space="preserve"
   version="1.1"
   id="svg2"><metadata
     id="metadata8"><rdf:RDF><cc:Work
         rdf:about=""><dc:format>image/svg+xml</dc:format><dc:type
           rdf:resource="http://purl.org/dc/dcmitype/StillImage" /></cc:Work></rdf:RDF></metadata><defs
     id="defs6" /><g
     transform="matrix(1.25,0,0,-1.25,0,248.0375)"
     id="g10"><g
       transform="scale(0.1,0.1)"
       id="g12"><path
         id="path14"
         style="fill:#b71309;fill-opacity:1;fill-rule:evenodd;stroke:none"
         d="m 840.691,1252.56 c -127.277,-40.54 -244.91,-82.77 -377.007,-109.98 -43.93,-47.91 -82.493,-60.67 -126.422,-108.57 -13.328,-226.772 -37.699,-336.471 -102.328,-552.19 30.609,13.891 33.449,18.707 56.968,32.309 18.711,10.781 121.61,-7.371 148.821,-10.77 83.91,-7.371 91.558,5.11 115.371,-54.711 2.551,-2.55 12.469,-4.531 15.59,-5.378 322.3,-63.5 558.986,-27.2 858.616,79.941 106.85,38.269 209.76,56.969 321.16,81.066 l 0.29,0 c -46.78,181.411 -63.5,236.411 -62.08,427.183 -26.65,51.02 -53.01,101.76 -79.66,152.79 -154.2,20.4 -242.64,37.98 -391.19,79.37 -42.51,12.47 -86.16,17 -130.67,17 -81.07,0 -164.685,-15.59 -247.459,-28.06" /><path
         id="path16"
         style="fill:#850f00;fill-opacity:1;fill-rule:evenodd;stroke:none"
         d="m 1579.97,788.809 0,-0.27 0,0.27 z M 1522.14,1068.6 C 1388.63,833.027 1299.91,595.488 1321.73,486.93 c 35.44,11.05 71.43,23.238 108.56,36.269 50.74,18.149 100.35,32.051 150.53,43.942 -3.4,267.867 -5.39,174.609 -5.67,375.867 l -0.57,21.84 c 0.28,41.092 0.85,81.912 1.42,123.022 -67.47,-12.48 -43.37,-11.34 -53.86,-19.27" /><path
         id="path18"
         style="fill:#850f00;fill-opacity:1;fill-rule:evenodd;stroke:none"
         d="m 764.723,734.668 0,0 C 635.742,841.246 566.012,912.117 487.492,1037.98 c -9.922,10.49 -19.84,21.26 -29.762,32.03 -0.57,-10.77 -0.847,-21.54 -1.417,-32.03 8.218,-28.92 20.41,-42.523 24.378,-87.031 12.192,-151.652 24.661,-303.301 37.129,-454.961 0.852,-1.968 1.703,-3.968 2.84,-5.949 13.602,-4.543 19.844,-15.019 30.043,-42.801 1.418,-3.398 8.219,-6.242 19.559,-8.789 19,-3.691 37.422,-7.359 55.851,-10.492 22.957,9.922 51.297,3.691 74.258,13.32 -36,-1.398 -75.68,-2.828 -106.578,9.93 l -2.27,3.109 c -10.48,15.313 -0.562,32.614 18.43,36.852 8.5,2 15.59,-1.129 27.488,-3.391 16.731,36.563 33.45,73.129 50.18,109.692" /><path
         id="path20"
         style="fill:#9d150f;fill-opacity:1;fill-rule:evenodd;stroke:none"
         d="m 1293.95,1047.9 c -38.82,0.57 -80.22,2.83 -124.15,5.39 -15.03,-58.399 -10.78,-79.661 -2.28,-151.368 l 9.37,-40.262 c 45.34,20.129 97.79,47.91 146.82,77.391 -3.39,-1.422 -6.8,-3.121 -9.92,-4.262 66.91,37.711 121.34,74.561 172.91,129.551 0,0.28 0.3,0.28 0.3,0.57 -61.23,-19.28 -127.57,-24.1 -193.05,-17.01" /><path
         id="path22"
         style="fill:#9d150f;fill-opacity:1;fill-rule:evenodd;stroke:none"
         d="m 672.598,814.324 0.281,0 c -2.551,1.422 -4.82,3.121 -7.082,4.813 2.262,-1.692 4.531,-3.391 6.801,-4.813 m -173.2,205.806 c -1.699,2.83 -3.402,5.66 -5.101,8.22 17.293,-20.98 59.531,-87.315 109.422,-144.295 33.73,-38.547 76.25,-71.16 97.508,-86.739 -5.668,2.84 -11.34,5.95 -16.719,9.352 34.582,-22.391 63.488,-37.691 87.59,-47.332 l 42.519,75.672 c 4.25,28.078 8.781,56.707 11.332,85.047 1.707,18.992 -0.562,68.32 0,82.765 -0.851,2.28 -1.41,4.82 -2.261,7.1 l -3.692,-0.57 c -22.68,-3.68 -45.348,-6.8 -70.578,-7.37 -0.57,0 -4.539,-0.28 -5.102,-0.28 -96.378,-4.255 -173.476,-3.126 -256.82,36 l 0,0.28" /><path
         id="path24"
         style="fill:#850f00;fill-opacity:1;fill-rule:evenodd;stroke:none"
         d="m 234.926,481.816 1.422,0.579 1.41,0.55 1.418,0.571 1.14,0.851 1.411,0.571 1.14,0.558 1.129,0.578 1.133,0.563 1.137,0.57 1.132,0.57 1.137,0.278 1.133,0.57 0.848,0.563 1.132,0.57 0.848,0.566 0.859,0.563 1.133,0.289 0.848,0.558 0.852,0.582 0.847,0.27 0.852,0.578 0.851,0.563 0.571,0.289 0.847,0.558 0.852,0.293 0.847,0.559 0.571,0.558 0.851,0.293 0.559,0.559 0.852,0.289 0.57,0.563 0.847,0.289 0.571,0.558 0.851,0.289 0.571,0.571 0.847,0.562 0.563,0.301 0.57,0.547 0.848,0.3 0.57,0.551 0.852,0.301 0.558,0.551 0.852,0.566 0.57,0.281 0.848,0.571 0.57,0.582 0.852,0.269 0.847,0.578 0.571,0.551 0.851,0.289 0.852,0.563 0.847,0.578 0.852,0.559 0.848,0.57 0.851,0.281 0.852,0.57 0.847,0.571 0.852,0.558 1.129,0.571 0.851,0.57 1.137,0.559 0.852,0.851 1.129,0.578 1.14,0.551 c 0.282,0.301 0.563,0.301 0.852,0.57 0.277,0 0.847,0.289 1.129,0.289 0.281,0.293 0.851,0.293 1.129,0.563 0.57,0 0.851,0.289 1.422,0.289 0.289,0 0.847,0.289 1.14,0.289 l 0.277,0 c 0.282,0.27 0.852,0.27 1.422,0.27 0.559,0.293 1.129,0.293 1.411,0.293 l 0.289,0 c 0.558,0 0.851,0.289 1.41,0.289 l 1.14,0 35.149,462.898 -4.25,8.781 c -13.891,-197.011 -39.41,-305.851 -99.5,-506.84" /><path
         id="path26"
         style="fill:#850f00;fill-opacity:1;fill-rule:evenodd;stroke:none"
         d="m 688.754,1189.35 c -40.25,-14.74 -78.801,-26.08 -77.949,-48.76 1.41,-36.56 76.531,-85.61 155.898,-86.18 -53.859,5.68 -72.558,14.75 -78.519,72 -2.829,26.09 -1.411,39.7 3.972,52.73 2.27,5.66 7.938,11.91 3.399,11.91 -1.41,0 -3.399,-0.57 -6.801,-1.7" /><path
         id="path28"
         style="fill:#9d150f;fill-opacity:1;fill-rule:evenodd;stroke:none"
         d="m 1554.45,1037.41 c -8.5,-42.797 -166.95,-340.168 -184.81,-534.898 20.12,6.519 40.24,13.609 60.65,20.699 34.02,12.18 67.47,22.383 100.93,31.461 10.19,166.68 40.52,508.818 30.89,508.538 -1.42,0 -3.98,-7.94 -7.66,-25.8" /><path
         id="path30"
         style="fill:#850f00;fill-opacity:1;fill-rule:evenodd;stroke:none"
         d="M 518.961,1010.2 C 779.461,804.391 1045.64,776.34 1454.68,1051.3 1127.84,862.801 797.039,823.949 518.961,1010.2" /><path
         id="path32"
         style="fill:#e22228;fill-opacity:1;fill-rule:evenodd;stroke:none"
         d="M 471.902,995.176 C 542.203,590.105 538.805,442.137 885.766,442.418 1155.34,442.707 1379.27,723.617 1499.74,1065.48 1237.82,583.867 725.605,254.188 471.902,995.176" /><path
         id="path34"
         style="fill:#850f00;fill-opacity:1;fill-rule:evenodd;stroke:none"
         d="M 471.902,995.176 C 631.492,189.008 1269,511.016 1485.29,1057.26 1234.43,639.984 740.063,336.676 471.902,995.176" /><path
         id="path36"
         style="fill:#850f00;fill-opacity:1;fill-rule:evenodd;stroke:none"
         d="m 1335.34,1177.73 c -10.77,-30.91 -15.87,-47.34 -22.69,-60.39 -8.49,-17.29 -17.56,-34.29 -48.75,-60.38 142.87,12.77 174.9,96.38 147.41,96.38 -47.35,0.3 -56.41,25.52 -70.58,25.52 -1.71,0 -3.42,-0.29 -5.39,-1.13" /><path
         id="path38"
         style="fill:#e22228;fill-opacity:1;fill-rule:evenodd;stroke:none"
         d="m 1621.64,1175.46 c 4.81,-9.07 12.47,-25.8 23.24,-46.49 l 19.85,-38.27 c 27.2,-51.87 30.33,-38.26 30.33,-93.54 -0.3,-70.301 1.98,-136.351 14.73,-205.793 4.26,-22.109 40.26,-155.637 47.06,-185.957 -1.7,-0.281 -3.4,-0.57 -5.39,-1.133 -16.72,58.684 -29.19,103.75 -38.54,144.571 -8.79,37.98 -89.01,214.582 -117.08,285.732 36.29,-71.721 77.39,-154.213 104.32,-219.4 -9.08,60.078 -11.63,121.32 -10.49,216.28 l -73.7,141.17 c 1.99,-0.85 3.69,2.55 5.67,2.83 m -40.82,-608.312 c -3.97,295.372 -5.67,151.653 -5.67,448.152 l 4.82,-226.491 7.65,-219.961 c -2.26,-0.571 -4.53,-1.137 -6.8,-1.7 m -317.48,484.722 c 105.45,-1.7 169.79,4.53 269.29,30.33 -82.49,-37.7 -177.73,-45.07 -269.29,-30.33 m 50.46,-117.35 c 67.46,28.628 133.5,73.7 173.47,130.39 -51.87,-55.28 -106.29,-92.14 -173.47,-130.39 M 472.473,1053 c 94.398,-53.289 169.226,-45.35 276.949,-51.02 0,0 -4.539,-0.28 -5.102,-0.28 -104.031,-4.54 -185.668,-2.841 -276.949,46.2 -2.269,1.7 -2.832,4.82 -1.129,6.8 1.981,2.27 3.68,0 6.231,-1.7 m 21.828,-24.66 C 539.09,959.18 611.09,842.668 701.23,797.32 c -21.257,15.59 -63.781,48.188 -97.507,86.731 -49.891,56.976 -92.133,123.319 -109.422,144.289 m -13.602,-77.379 c 21.821,-304.731 29.481,-259.66 36.852,-454.113 -1.711,0.281 -3.41,0.851 -5.391,1.132 -24.66,285.168 -11.91,142.868 -36.57,452.411 -0.277,2.82 0,5.379 1.992,5.379 1.981,0.289 2.828,-1.981 3.117,-4.809 M 344.352,1007.37 C 316.57,702.641 321.672,725.027 306.93,530.008 c -0.278,-2.828 0.57,-9.918 0,-12.75 -2.547,0 -4.821,-0.297 -6.797,-0.57 23.238,307.562 12.75,175.75 38.828,491.242 0.289,2.84 1.141,5.1 3.121,4.82 1.988,-0.28 2.551,-2.83 2.27,-5.38 M 228.699,478.988 c 2.262,0.84 4.25,1.692 6.231,2.832 64.633,215.719 89,325.418 102.332,552.19 40.539,43.94 76.25,58.39 115.937,97.51 -2.547,1.42 -5.949,1.99 -7.09,2.84 -4.527,-5.67 -13.039,-15.03 -33.726,-30.9 -13.32,-10.2 -79.653,-58.11 -80.793,-69.17 -9.07,-86.173 -11.051,-162.142 -26.36,-250.86 -16.718,-96.95 -43.089,-191.621 -71.429,-286.582 -2.27,-7.938 -4.25,-13.618 -5.102,-17.86" /><path
         id="path40"
         style="fill:#850f00;fill-opacity:1;fill-rule:evenodd;stroke:none"
         d="m 1610.3,573.945 c 24.66,5.668 49.32,11.051 74.27,16.16 -19.28,155.899 -77.1,354.329 -98.36,446.445 -4.26,19.29 -7.09,28.08 -8.52,28.08 -9.06,0 33.73,-343.005 32.61,-490.685" /><path
         id="path42"
         style="fill:#850f00;fill-opacity:1;fill-rule:evenodd;stroke:none"
         d="m 379.781,1015.3 c -3.402,-8.5 -6.519,-18.991 -9.351,-30.894 -28.071,-116.508 -55,-380.129 -21.551,-468.859 22.109,-1.969 46.211,-5.668 64.922,-8.207 l 1.98,-0.293 c 32.309,32.601 15.309,160.16 15.309,206.09 0,51.859 -1.141,86.441 -5.391,138.332 -3.398,45.34 -11.898,116.488 -15.308,162.131 -0.282,2.55 -0.563,5.1 -0.852,7.37 -8.5,-5.39 -18.988,-7.09 -29.758,-5.67" /><path
         id="path44"
         style="fill:#850f00;fill-opacity:1;fill-rule:evenodd;stroke:none"
         d="m 1579.97,1077.38 17.57,-46.2 70.58,-140.602 28.07,-57.828 1.7,-2.273 c -6.23,48.191 -8.79,98.929 -8.51,168.953 -13.33,6.8 -20.97,18.99 -24.65,32.03 -9.36,-1.99 -18.43,-2.55 -22.68,-1.14 -7.94,2.56 -11.06,10.49 -13.05,16.73 0,0.57 0,0.85 -0.27,1.42 -3.41,-1.14 -7.37,-1.99 -10.22,-2.27 -22.95,-0.85 -32.88,16.72 -30.04,31.46 -3.11,-0.56 -5.95,-0.85 -8.5,-0.28" /><path
         id="path46"
         style="fill:#fdfdfd;fill-opacity:1;fill-rule:evenodd;stroke:none"
         d="m 1752.88,599.734 c -55.56,-12.457 -109.98,-22.957 -164.13,-35.429 -52.72,-12.481 -104.88,-26.367 -156.47,-45.348 -213.45,-79.082 -498.05,-156.48 -862.01,-80.512 -11.34,2.551 -18.149,5.379 -19.559,8.789 -20.699,56.704 -24.949,41.102 -110.84,51.313 -31.75,3.961 -63.488,7.648 -98.641,11.898 -40.539,4.832 -37.417,6.801 -58.679,-9.07 -16.719,-12.75 -29.762,-17.277 -49.321,-26.07 -4.82,-1.43 -8.218,-3.399 -10.488,-6.528 -5.949,-7.64 -1.14,-15.312 1.699,-23.242 5.391,-15.59 10.489,-40.82 27.782,-48.758 11.898,-5.39 25.789,-3.113 39.968,-0.269 19.27,4.527 23.52,12.18 42.801,16.719 68.028,16.16 100.348,-4.539 167.809,-25.243 3.969,-1.117 7.941,-2.546 11.91,-3.679 367.371,-79.36 430.578,-96.09 934.859,39.402 34.02,9.348 87.59,37.981 158.18,57.539 79.65,22.109 158.74,35.149 184.82,55.559 14.17,11.062 22.11,25.23 13.32,43.652 -6.81,14.75 -17,21.84 -33.17,21.84 -5.95,0 -12.47,-0.852 -19.84,-2.563" /><path
         id="path48"
         style="fill:#d7d9d9;fill-opacity:1;fill-rule:evenodd;stroke:none"
         d="m 1752.31,559.211 c -70.02,-35.16 -61.51,-13.051 -123.02,-28.633 -69.45,-17.57 -110.84,-68.879 -177.45,-68.879 -1.14,-1.699 -7.64,-4.539 -9.91,-5.672 -35.73,-17.578 -81.64,-59.25 -88.16,-37.136 l -19.57,66.039 c -34.57,-11.34 -70.86,-21.813 -108.84,-31.45 -0.29,-24.39 -6.52,-52.441 -43.95,-62.929 -37.98,-10.492 -52.71,-8.793 -77.37,-17.582 -32.04,-11.621 -112.548,-32.031 -148.548,-32.031 -83.047,0 -96.379,17.863 -155.617,19.832 -4.82,0 -10.211,29.21 -15.02,49.05 -50.742,2.84 -103.191,8.778 -157.332,17.86 -34.3,-18.422 -68.878,-56.692 -81.347,0 -10.774,48.187 -24.953,43.078 -49.891,37.988 -11.91,-2.27 -26.082,-4.82 -43.652,-1.699 -82.488,15.019 -138.899,-17.578 -185.11,-35.442 -14.168,-5.679 -25.789,-6.226 -35.71,-4.828 4.25,-11.332 10.203,-22.109 20.41,-26.922 11.902,-5.379 25.793,-3.117 39.961,-0.277 19.281,4.539 23.531,12.18 42.808,16.719 68.031,16.16 100.344,-4.539 167.813,-25.219 3.968,-1.141 7.937,-2.551 11.898,-3.691 367.371,-79.379 430.59,-96.098 934.867,39.39 34.02,9.371 87.59,38 158.17,57.559 79.66,22.109 158.74,35.152 184.82,55.562 14.18,11.039 22.12,25.207 13.32,43.649 -4.81,10.199 -11.05,16.719 -19.84,19.832 -3.11,-21.531 -12.75,-38.274 -33.73,-41.09" /><path
         id="path50"
         style="fill:#000000;fill-opacity:1;fill-rule:evenodd;stroke:none"
         d="m 440.723,503.359 c 83.91,-7.359 91.558,5.11 115.371,-54.711 2.551,-2.55 12.469,-4.531 15.59,-5.378 322.578,-63.493 558.986,-27.211 858.606,79.929 106.88,38.281 209.78,56.989 321.17,81.078 39.12,7.942 68.32,-9.636 63.22,-43.379 -1.7,-12.187 -8.78,-19.55 -18.15,-27.769 -63.21,-31.469 -119.34,-37.418 -187.09,-56.418 -72.85,-20.684 -126.42,-49.32 -204.09,-70.012 C 1136.63,335.828 970.234,289.91 693.004,342.07 c -85.32,16.16 -156.75,29.481 -237.262,56.418 -47.051,15.582 -92.41,24.942 -139.179,2.262 -20.692,-9.93 -44.219,-16.73 -66.899,-8.223 -18.422,11.34 -52.441,72.293 -22.391,85.903 l 3.399,1.398 c 34.59,15.32 36.57,20.133 61.23,34.301 14.743,8.519 80.789,-0.852 121.891,-6.801 11.34,-1.687 20.98,-3.117 26.93,-3.969 m -158.168,-1.968 c -16.731,-12.774 -29.774,-17.313 -49.332,-26.09 -4.821,-1.41 -8.219,-3.403 -10.481,-6.524 -5.961,-7.66 -1.14,-15.297 1.699,-23.238 5.383,-15.601 10.481,-40.82 27.782,-48.75 11.898,-5.391 25.789,-3.129 39.961,-0.301 19.281,4.551 23.531,12.192 42.808,16.731 68.031,16.172 100.34,-4.539 167.813,-25.231 3.968,-1.121 7.937,-2.55 11.898,-3.679 367.371,-79.379 430.59,-96.098 934.867,39.402 34.02,9.359 87.6,37.707 158.17,57.539 79.66,22.109 158.74,35.16 184.83,55.57 14.18,11.039 22.11,25.219 13.33,43.641 -9.37,19.84 -24.39,26.078 -53.02,19.289 -55.56,-12.473 -109.99,-22.961 -164.13,-35.441 -52.72,-12.469 -104.88,-26.371 -156.47,-45.348 -213.44,-79.102 -498.046,-156.481 -862.018,-80.5 -11.34,2.547 -18.141,5.367 -19.559,8.777 -20.691,56.7 -24.941,41.102 -110.832,51.313 -31.75,3.957 -63.5,7.637 -98.648,11.898 -40.532,4.821 -37.41,6.809 -58.668,-9.058" /><path
         id="path52"
         style="fill:#000000;fill-opacity:1;fill-rule:evenodd;stroke:none"
         d="m 460.281,1160.15 c 44.793,24.94 281.762,98.08 356.602,130.68 3.969,-2.55 7.941,-4.82 12.191,-6.81 -98.082,-33.16 -316.351,-106.86 -369.922,-128.97 1.129,1.42 1.7,2.83 1.411,4.53" /><path
         id="path54"
         style="fill:#fdfdfd;fill-opacity:1;fill-rule:evenodd;stroke:none"
         d="m 1243.5,1262.2 c 97.23,-26.36 184.25,-46.2 286.87,-61.8 61.51,-9.35 74.54,-3.11 84.75,-15.02 l 0.29,0.28 c 1.13,2.56 1.98,5.11 2.55,7.66 0,1.7 0,3.12 -0.57,4.53 -4.54,15.03 -102.61,38.27 -121.61,43.09 l -259.93,67.75 c -0.85,-13.61 10.2,-32.88 7.65,-46.49" /><path
         id="path56"
         style="fill:#000000;fill-opacity:1;fill-rule:evenodd;stroke:none"
         d="m 1243.5,1262.2 c 97.23,-26.36 184.25,-46.2 286.87,-61.8 61.51,-9.35 74.54,-3.11 84.75,-15.02 -0.57,-1.7 -1.98,-4.25 -2.55,-6.24 l -2.55,5.11 c -145.98,19.27 -232.72,36 -367.38,72.85 l 0.86,5.1 M 457.164,1144.85 c 4.82,1.98 13.043,3.96 29.762,7.65 119.91,26.64 235.851,67.46 351.781,104.88 0.848,0.28 1.988,0.28 3.117,0.57 -1.418,-1.99 -2.828,-4.25 -3.969,-6.24 -126.14,-40.53 -243.21,-82.2 -374.167,-109.13 -0.571,-0.85 -1.422,-1.7 -2.274,-2.55" /><path
         id="path58"
         style="fill:#fdfdfd;fill-opacity:1;fill-rule:evenodd;stroke:none"
         d="m 855.719,1280.63 0.57,0.28 c -32.031,-30.05 8.5,-12.48 -26.371,3.11 -98.07,-33.16 -317.191,-106.86 -370.77,-128.97 -1.699,-2.26 -4.531,-4.53 -5.949,-5.96 l 3.969,-4.25 c 4.82,1.98 13.039,3.98 29.762,7.66 119.91,26.64 235.847,67.46 351.777,104.89 0.852,0.27 1.992,0.27 3.121,0.56 0,0 15.02,22.1 16.442,24.37 -0.852,-0.57 -1.704,-1.12 -2.551,-1.69" /><path
         id="path60"
         style="fill:#000000;fill-opacity:1;fill-rule:evenodd;stroke:none"
         d="m 1238.11,1310.67 c 12.75,-2.83 39.96,-9.64 60.09,-14.74 33.16,-8.5 66.35,-16.72 99.5,-25.23 34.01,-8.5 198.44,-43.37 222.8,-68.31 -0.55,-0.29 -0.86,-0.85 -0.86,-1.42 -0.55,-2.55 -1.12,-5.1 -1.69,-7.65 0,1.7 0,3.11 -0.56,4.53 -4.53,15.02 -102.62,38.27 -121.6,43.09 l -257.95,64.91 c 0,1.7 0,3.12 0.27,4.82" /><path
         id="path62"
         style="fill:#f6d4b3;fill-opacity:1;fill-rule:evenodd;stroke:none"
         d="m 1123.03,1047.9 c -74.55,-60.939 -158.175,-77.681 -221.104,-122.17 -13.899,-9.921 51.59,30.61 48.75,30.61 -4.821,0 -13.899,25.512 -13.899,25.512 -6.511,16.726 -95.808,-26.082 -103.742,-1.704 1.711,-52.449 -4.527,-89.007 -13.027,-146.546 C 775.785,754.789 731.848,675.988 687.617,597.469 670.898,560.91 654.176,524.34 637.457,487.77 c -11.922,2.269 -19.012,5.378 -27.5,3.41 -19,-4.258 -28.91,-21.551 -18.43,-36.852 l 7.942,-11.34 c 42.238,-8.789 85.879,-5.957 128.129,-5.679 l -2.551,11.351 c 18.699,21.531 28.621,36.281 53.289,52.719 93.543,62.93 137.48,95.812 216,181.422 10.194,-1.141 20.414,-2.551 30.604,-3.973 83.63,-83.629 143.72,-131.25 251.72,-189.359 -3.11,-23.239 -1.41,-34.578 1.99,-54.699 36.57,-0.571 74.26,-2.559 111.12,3.109 l 8.49,26.652 c 8.23,10.77 14.75,15.59 11.07,29.758 -3.98,14.461 -13.05,16.16 -26.65,23.25 -10.77,16.43 -21.54,32.883 -32.32,49.32 -34.29,45.352 -68.59,90.993 -102.9,136.352 -22.67,41.379 -45.35,83.051 -68.02,124.437 -5.95,24.383 -11.62,49.043 -17.58,73.411 -12.76,106.021 -11.62,109.421 18.71,210.051 -16.72,-23.81 -36.01,-45.35 -57.54,-63.21" /><path
         id="path64"
         style="fill:#000000;fill-opacity:1;fill-rule:evenodd;stroke:none"
         d="m 778.328,501.379 c -23.238,-15.594 -33.449,-29.481 -50.168,-49.031 1.41,0.558 3.11,1.121 5.668,1.699 1.133,0.269 2.551,0.558 3.684,0.558 52.726,58.114 94.679,72.852 158.168,125.571 38.558,31.472 68.039,62.371 101.199,97.519 l 25.231,-3.41 c 89.01,-87.019 136.06,-124.43 248.88,-187.359 -0.57,-15.028 -1.42,-26.938 -1.7,-36.008 0.28,-6.801 -0.28,-9.34 0.85,-10.77 0.85,-0.851 3.4,-0.851 5.67,-0.851 0.57,0.281 1.42,0.281 1.98,0.281 0,0.57 -0.28,1.149 -0.28,1.707 -2.55,16.442 -3.68,27.793 -0.85,48.192 -108,58.101 -168.09,105.73 -251.72,189.351 -10.2,1.418 -20.41,2.828 -30.612,3.981 -78.519,-85.621 -122.457,-118.5 -216,-181.43 m 47.621,418.68 c -2.551,-28.352 -7.078,-56.981 -11.34,-85.043 L 699.238,628.938 c -25.226,-45.071 -43.929,-89.012 -65.187,-135.211 -9.071,1.992 -15.313,3.968 -25.52,2.261 -29.761,-9.922 -29.761,-28.621 -23.242,-42.519 1.422,0.289 2.84,0 4.82,-0.852 1.129,-0.558 2.551,-1.129 3.68,-1.41 l -2.258,3.109 c -10.492,15.313 -0.57,32.61 18.418,36.86 8.512,1.98 15.59,-1.141 27.5,-3.399 16.723,36.559 33.449,73.129 50.172,109.692 44.219,78.519 88.16,157.328 132.379,236.136 8.5,57.543 14.738,94.383 13.039,146.543 -2.269,7.368 -4.82,15.028 -7.09,22.682 -0.558,-14.463 1.699,-63.771 0,-82.771 m 354.621,191.051 c -30.33,-100.63 -31.47,-104.03 -18.7,-210.044 5.94,-24.378 11.61,-49.039 17.56,-73.418 22.68,-41.39 45.36,-83.062 68.03,-124.429 34.3,-45.371 68.6,-91.012 102.9,-136.364 10.77,-16.437 21.54,-32.878 32.33,-49.32 13.59,-7.09 22.66,-8.789 26.63,-23.25 3.69,-14.168 -2.83,-18.976 -11.05,-29.758 l -6.81,-21.539 c 2.27,0.848 4.82,1.41 7.09,1.981 1.13,4.816 2.55,10.488 4.82,17.578 10.49,12.762 14.46,16.441 11.34,32.59 -5.67,16.449 -11.34,17.859 -27.78,26.082 -39.4,59.527 -78.8,110.269 -122.16,167.816 l -12.48,16.723 -67.47,123.308 -17.29,72.86 c -9.64,81.34 -13.89,97.5 9.07,176.874 8.22,27.78 10.77,33.73 10.49,41.67 -1.99,-3.12 -4.26,-6.24 -6.52,-9.36" /><path
         id="path66"
         style="fill:#f6d4b3;fill-opacity:1;fill-rule:evenodd;stroke:none"
         d="M 706.898,476.152 C 665.801,437.602 661.551,446.953 604,447.523 c 37.141,-11.339 83.91,-5.953 121.609,-5.39 -1.421,4.539 -1.992,7.66 2.551,10.211 16.719,19.558 26.93,33.449 50.168,49.027 93.551,62.93 137.481,95.82 216,181.43 10.212,-1.141 20.412,-2.559 30.622,-3.969 83.62,-83.621 143.71,-131.25 251.71,-189.359 -2.83,-21.262 -1.7,-32.602 1.14,-49.891 10.2,-0.289 20.97,-0.852 32.02,-1.41 -14.45,7.082 -17,21.531 -13.6,59.519 -131.52,95.532 -183.97,163.563 -249.16,236.411 -18.14,2.261 -36.29,4.82 -54.431,7.371 C 847.211,652.461 814.328,598.32 706.898,476.152" /><path
         id="path68"
         style="fill:#e3c5a7;fill-opacity:1;fill-rule:evenodd;stroke:none"
         d="M 789.668,779.453 687.617,597.484 c 2.84,-21.261 41.11,-19.863 84.481,-18.711 36.281,1.129 76.25,2.25 101.191,-10.218 39.969,31.179 74.551,63.508 121.039,114.25 10.212,-1.141 20.412,-2.563 30.622,-3.981 32.03,-32.031 60.37,-58.679 89.57,-82.769 22.96,60.949 167.81,44.218 136.63,102.34 l -3.68,4.808 -53.85,98.371 C 1081.93,732.684 915.527,761.883 789.668,779.453" /><path
         id="path70"
         style="fill:#000000;fill-opacity:1;fill-rule:evenodd;stroke:none"
         d="M 480.977,874.133 1503.44,1058.95 c 14.17,2.55 28.06,-5.66 31.18,-17.86 l 72.56,-307.559 c 2.84,-12.468 -6.23,-24.648 -20.4,-27.199 L 564.316,521.789 c -14.168,-2.547 -28.347,5.391 -31.179,17.863 l -72.852,307.559 c -2.84,12.18 6.231,24.371 20.692,26.922" /><path
         id="path72"
         style="fill:#fdfdfd;fill-opacity:1;fill-rule:nonzero;stroke:none"
         d="m 515.277,856.563 c 0.571,0 1.129,0 1.7,0.269 l 1.421,-7.359 c -0.289,0 -0.851,0 -1.14,-0.282 l -1.981,7.372 z m 1.129,-3.688 -1.129,3.688 c 2.27,0.269 4.25,-0.848 4.821,-2.829 0.57,-1.992 -0.852,-3.98 -2.84,-4.543 l -0.852,3.684 z m -17.566,-7.082 c 3.68,5.102 9.637,9.07 16.437,10.77 l 1.981,-7.372 c -5.102,-1.136 -9.352,-3.968 -11.899,-7.648 l -6.519,4.25 z m -4.25,-17.578 c -1.141,6.238 0.558,12.476 4.25,17.578 l 6.519,-4.25 c -2.839,-3.41 -3.972,-7.668 -3.121,-12.199 l -7.648,-1.129 z m 0.277,-1.422 c -0.277,0.57 -0.277,0.852 -0.277,1.422 l 7.648,1.129 0,-0.852 -7.371,-1.699 z m 3.692,0.852 -3.692,-0.852 c -0.57,1.988 0.852,3.969 2.84,4.539 1.981,0.57 4.25,-0.848 4.531,-2.84 l -3.679,-0.847 z m 58.961,-260.211 -62.653,259.359 7.371,1.699 62.93,-259.359 -7.648,-1.699 z m 3.679,0.847 -3.679,-0.847 c -0.571,1.98 0.847,3.949 2.828,4.531 2.269,0.269 4.25,-0.852 4.82,-2.832 l -3.969,-0.852 z m 8.789,-16.726 c -6.242,3.398 -10.769,9.058 -12.468,15.879 l 7.648,1.699 c 1.129,-4.828 4.25,-8.789 8.789,-11.34 l -3.969,-6.238 z m 21.258,-3.68 c -7.656,-1.434 -15.308,0 -21.258,3.68 l 3.969,6.238 c 4.531,-2.551 10.199,-3.691 15.871,-2.551 l 1.418,-7.367 z m 959.244,173.188 -959.244,-173.188 -1.418,7.367 959.242,173.192 1.42,-7.371 z m 1.7,0.289 c -0.57,0 -1.13,-0.289 -1.7,-0.289 l -1.42,7.371 c 0.57,0 0.85,0 1.42,0.289 l 1.7,-7.371 z m -0.85,3.679 0.85,-3.679 c -1.98,-0.289 -4.25,0.839 -4.53,2.832 -0.57,1.988 0.55,3.968 2.83,4.539 l 0.85,-3.692 z m 17.28,6.801 c -3.68,-4.809 -9.34,-8.789 -16.43,-10.48 l -1.7,7.371 c 5.1,1.129 9.07,3.961 11.9,7.64 l 6.23,-4.531 z m 4.27,17.852 c 1.41,-6.231 -0.57,-12.743 -4.27,-17.852 l -6.23,4.531 c 2.55,3.399 3.69,7.66 3.13,12.2 l 7.37,1.121 z m -3.69,-0.551 3.69,0.551 c 0.56,-1.969 -0.86,-3.95 -3.12,-4.243 -1.99,-0.289 -3.97,1.141 -4.25,3.122 l 3.68,0.57 z m 3.69,1.699 0,-1.148 -7.37,-1.121 c -0.29,0.281 -0.29,0.57 -0.29,0.851 l 7.66,1.418 z m -3.97,-0.57 3.97,0.851 c 0.28,-1.98 -0.86,-4.261 -3.12,-4.531 -1.99,-0.578 -3.97,0.852 -4.54,2.832 l 3.69,0.848 z m -58.97,260.218 62.94,-259.367 -7.66,-1.699 -62.64,259.366 7.36,1.7 z m -3.68,-0.85 3.68,0.85 c 0.57,-1.98 -0.56,-3.97 -2.83,-4.53 -1.98,-0.29 -4.26,0.85 -4.53,2.83 l 3.68,0.85 z m -8.5,16.73 c 5.95,-3.41 10.77,-9.08 12.18,-15.88 l -7.36,-1.7 c -1.14,4.82 -4.54,8.79 -9.07,11.35 l 4.25,6.23 z m -21.55,3.68 c 7.66,1.42 15.31,-0.28 21.55,-3.68 l -4.25,-6.23 c -4.26,2.54 -9.93,3.67 -15.88,2.54 l -1.42,7.37 z m -959.243,-173.208 959.243,173.208 1.42,-7.37 -959.242,-173.197" /><path
         id="path74"
         style="fill:#f6d4b3;fill-opacity:1;fill-rule:nonzero;stroke:none"
         d="m 285.102,1036.56 c -14.168,-13.89 -11.911,-30.9 3.121,-37.701 25.511,-11.621 53.57,3.971 64.91,24.661 -20.969,10.49 -39.969,29.2 -46.77,49.61 -2.269,-12.19 5.102,-11.63 -21.261,-36.57" /><path
         id="path76"
         style="fill:#f6d4b3;fill-opacity:1;fill-rule:nonzero;stroke:none"
         d="m 354.27,1144.28 -1.422,0 -0.282,-0.28 -7.089,0 -0.278,-0.29 -0.57,0 c -9.922,-0.85 -21.539,-10.77 -23.813,-17.86 -7.089,-22.11 20.981,-51.3 49.321,-68.88 19.562,-11.9 72.851,-30.04 76.543,4.54 -26.364,0.28 -67.473,28.34 -79.09,47.34 -7.371,12.19 -12.192,24.37 -13.043,35.43" /><path
         id="path78"
         style="fill:#f6d4b3;fill-opacity:1;fill-rule:nonzero;stroke:none"
         d="m 309.199,1086.45 c 1.981,-24.94 16.442,-38.27 34.02,-49.61 13.039,-8.22 32.59,-20.41 49.601,-17.85 11.059,1.41 18.43,8.5 24.66,16.72 -37.41,2.55 -93.261,34.3 -102.042,71.72 -0.571,-0.29 -0.571,0.56 -0.571,1.7 -5.668,-6.52 -6.238,-15.03 -5.668,-22.68" /><path
         id="path80"
         style="fill:#f6d4b3;fill-opacity:1;fill-rule:nonzero;stroke:none"
         d="m 372.973,1176.31 c -1.981,-1.42 -3.969,-3.12 -5.95,-4.82 -3.121,-3.12 -5.097,-7.09 -5.96,-11.9 l 0,-0.29 -0.278,0 0,-1.13 c 1.141,-51.88 27.207,-73.99 78.801,-90.99 26.078,-8.51 32.887,25.22 31.469,41.95 -1.141,12.47 -7.942,22.39 -25.231,40.25 7.09,9.36 9.641,7.65 7.371,15.31 -1.98,5.95 -4.82,15.02 -7.941,16.44 -7.371,3.97 -18.418,5.95 -30.039,5.95 -15.031,0 -30.902,-3.4 -42.242,-10.77" /><path
         id="path82"
         style="fill:#000000;fill-opacity:1;fill-rule:nonzero;stroke:none"
         d="m 288.223,998.855 c -15.02,6.805 -17.289,23.815 -3.121,37.705 26.363,24.95 18.992,24.38 21.261,36.57 6.801,-20.41 25.801,-39.12 46.77,-49.61 -8.5,-15.87 -26.93,-28.633 -46.77,-28.633 -5.949,0 -12.191,1.14 -18.14,3.968 m 54.992,37.985 c -17.57,11.34 -32.031,24.67 -34.012,49.61 -0.57,7.94 0,16.44 5.949,22.68 7.371,-37.99 64.063,-70.58 102.332,-73.42 -6.242,-8.22 -13.613,-15.31 -24.66,-16.72 -1.422,-0.29 -2.84,-0.29 -4.543,-0.29 -15.867,0 -33.16,10.49 -45.066,18.14 m 26.93,20.13 c -28.352,17.57 -56.411,46.77 -49.321,68.88 2.27,7.09 13.891,17.01 23.809,17.86 2.269,0.28 5.39,0.28 9.922,0.57 0.847,-11.06 5.668,-23.25 13.039,-35.44 11.621,-18.99 52.719,-47.05 79.09,-47.33 -1.7,-14.74 -12.481,-19.85 -26.082,-19.85 -17.579,0 -39.399,8.51 -50.457,15.31 m 69.449,10.2 c -51.59,17.01 -77.672,39.12 -78.801,91 0.852,5.38 2.828,9.92 6.23,13.32 18.43,17.86 59.532,19.28 78.239,9.64 3.121,-1.42 5.953,-10.49 7.941,-16.44 2.262,-7.66 -0.289,-5.96 -7.371,-15.31 17.289,-17.86 24.09,-27.78 25.223,-40.25 1.418,-14.74 -3.961,-43.09 -23.524,-43.09 -2.269,0 -5.109,0.28 -7.937,1.13 m -14.742,126.15 -0.278,0 c -5.39,0 -11.34,-0.29 -18.711,-1.14 -36.289,-4.25 -51.59,-20.97 -51.59,-43.08 -18.71,-0.85 -31.179,-5.39 -38.839,-21.83 -0.852,-3.97 -1.411,-7.65 -1.129,-11.62 -9.641,-9.64 -12.192,-17.58 -10.492,-31.47 -10.2,-31.46 7.089,-12.47 -22.68,-44.5 -43.649,-46.492 49.039,-74.555 76.262,-18.14 22.109,-9.64 45.628,-10.21 60.367,6.23 2.269,2.55 3.972,4.54 6.242,7.66 17.57,0.28 29.758,8.22 28.059,26.64 28.351,4.82 32.601,50.18 9.359,77.96 l -8.219,9.07 c 2.551,2.55 8.5,6.23 7.371,10.48 -6.812,24.38 -11.34,33.74 -35.722,33.74" /><path
         id="path84"
         style="fill:#f6d4b3;fill-opacity:1;fill-rule:nonzero;stroke:none"
         d="m 306.078,1070.57 0,0 c -0.57,-5.38 0.281,-7.93 -2.269,-13.03 -3.399,-17.86 28.629,-26.93 8.218,-43.37 -11.617,-9.35 -18.707,-12.19 -19.558,-17.014 0.57,-0.281 0.851,-0.281 1.14,-0.558 l 0.282,0 c 0.277,0 0.57,0 1.129,-0.293 0.289,0 0.57,-0.278 1.14,-0.278 0.278,0 0.848,0 1.129,-0.281 0.289,0 0.852,0 1.141,-0.289 l 1.129,0 c 0.57,-0.281 0.851,-0.281 1.129,-0.281 l 1.421,0 c 0.289,-0.281 0.571,-0.281 0.852,-0.281 l 0.289,0 c 5.66,-0.29 11.617,0.281 17,1.98 0.289,0 0.57,0.281 1.141,0.281 0.277,0.289 0.558,0.289 0.847,0.289 l 0.282,0.282 c 0.281,0 0.57,0 0.847,0.281 l 0.281,0 0.571,0.289 0.57,0.277 c 0,0 0.281,0 0.57,0.281 l 0.282,0 0.847,0.29 0.282,0.281 0.847,0.281 0.293,0 0.559,0.573 0.57,0 0.57,0.27 0.282,0.3 0.57,0.28 0.559,0.28 0.57,0.29 0.57,0.28 0.278,0.29 0.57,0.55 0.57,0 0.563,0.57 0.289,0.29 0.558,0.28 0.571,0.29 c 0,0 0.281,0.28 0.57,0.28 l 0.281,0.29 0.57,0.56 0.278,0.29 c 0.281,0 0.57,0.28 0.851,0.56 0.852,0.57 1.418,0.84 1.989,1.41 5.101,4.25 9.351,9.37 12.472,15.03 0.278,0.29 0.278,0.56 0.571,0.85 -20.981,10.49 -39.973,29.19 -46.782,49.61 -0.281,-0.85 -0.281,-1.7 -0.281,-2.56" /><path
         id="path86"
         style="fill:#f6d4b3;fill-opacity:1;fill-rule:nonzero;stroke:none"
         d="m 310.898,1102.61 c 1.981,-34.87 35.43,-52.72 69.168,-63.78 9.352,-3.97 3.961,-14.74 -7.367,-17.29 6.797,-2.27 13.598,-3.4 20.117,-2.55 11.063,1.42 18.43,8.5 24.661,16.72 -38.27,2.84 -94.957,35.44 -102.329,73.42 -1.98,-1.98 -3.121,-4.25 -4.25,-6.52" /><path
         id="path88"
         style="fill:#f6d4b3;fill-opacity:1;fill-rule:nonzero;stroke:none"
         d="m 354.551,1144.28 -1.129,0 c -0.57,-1.42 -1.422,-2.55 -2.27,-3.97 -11.062,-16.44 -4.82,-39.4 42.797,-69.45 12.192,-7.93 7.942,-18.99 -0.847,-24.09 22.961,-7.66 51.019,-9.92 53.578,14.74 -26.367,0.28 -67.469,28.34 -79.09,47.34 -7.367,12.19 -12.188,24.37 -13.039,35.43" /><path
         id="path90"
         style="fill:#f6d4b3;fill-opacity:1;fill-rule:nonzero;stroke:none"
         d="m 424,1072.84 c 5.098,-1.98 10.199,-3.68 15.59,-5.67 26.078,-8.5 32.879,25.23 31.469,41.95 -1.141,12.19 -7.661,22.11 -24.379,39.41 -4.821,-11.63 36.281,-64.92 -22.68,-75.69" /><path
         id="path92"
         style="fill:#f6d4b3;fill-opacity:1;fill-rule:nonzero;stroke:none"
         d="m 1713.19,1080.21 c -5.1,-10.48 -11.34,-30.05 -19.56,-37.69 -3.97,-3.97 -14.17,-7.66 -24.66,-10.22 3.98,-14.16 13.61,-26.35 30.33,-32.03 30.62,-9.915 59.83,11.64 36.28,38 -4.25,5.09 -19.27,20.68 -19.84,26.64 -0.57,6.52 -0.57,11.34 -1.97,17.29 0,-0.86 -0.3,-1.41 -0.58,-1.99" /><path
         id="path94"
         style="fill:#f6d4b3;fill-opacity:1;fill-rule:nonzero;stroke:none"
         d="m 1695.91,1116.78 c -1.13,-14.17 -8.51,-30.05 -16.16,-39.97 -6.8,-8.5 -12.76,-11.62 -24.39,-17.57 -7.36,-3.69 -14.73,-6.81 -22.66,-9.64 1.98,-27.21 44.5,-15.59 56.69,-5.67 8.22,6.52 12.76,23.53 16.43,31.18 7.66,14.74 5.96,35.15 -3.67,49.89 -2.56,3.69 -6.82,7.37 -10.78,10.21 3.69,-5.67 4.81,-11.91 4.54,-18.43" /><path
         id="path96"
         style="fill:#f6d4b3;fill-opacity:1;fill-rule:nonzero;stroke:none"
         d="m 1613.14,1086.17 c -6.8,-2.83 -13.89,-5.1 -20.98,-7.37 1.41,-8.5 1.41,-17.86 9.64,-23.81 15.59,-11.34 58.11,5.38 76.25,24.94 7.36,7.94 11.63,28.07 13.61,39.12 l 0.27,2.55 0,5.11 c -1.13,8.78 -7.93,14.45 -17,18.7 -3.41,-26.92 -31.47,-46.77 -61.79,-59.24" /><path
         id="path98"
         style="fill:#f6d4b3;fill-opacity:1;fill-rule:nonzero;stroke:none"
         d="m 1617.95,1173.19 c 1.43,-2.55 2.28,-4.82 -0.57,-7.65 -9.34,-9.07 -76.25,-46.21 -43.92,-79.94 10.48,-10.77 36.28,4.53 46.47,8.5 48.76,19.85 82.49,79.94 6.81,103.47 l -3.68,1.13 c -1.7,-6.52 -7.66,-20.41 -5.11,-25.51" /><path
         id="path100"
         style="fill:#000000;fill-opacity:1;fill-rule:nonzero;stroke:none"
         d="m 1699.31,1000.28 c -16.72,5.67 -26.36,17.86 -30.33,32.03 10.49,2.55 20.69,6.24 24.66,10.21 8.22,7.65 14.46,27.21 19.56,37.7 0.28,0.56 0.57,1.13 0.57,1.98 1.41,-5.95 1.41,-10.77 1.98,-17.29 0.57,-5.95 15.59,-21.54 19.84,-26.65 19.56,-21.82 2.84,-40.252 -20.97,-40.252 -4.82,0 -10.21,0.57 -15.31,2.272 m -66.61,49.32 c 7.93,2.84 15.3,5.96 22.67,9.64 11.62,5.95 17.58,9.07 24.38,17.58 7.65,9.92 15.02,25.79 16.16,39.96 0.28,6.52 -0.85,12.76 -4.54,18.43 3.97,-2.84 8.22,-6.52 10.77,-10.21 9.64,-14.74 11.34,-35.15 3.69,-49.89 -3.69,-7.65 -8.22,-24.66 -16.44,-31.18 -6.52,-5.38 -21.83,-11.34 -34.87,-11.34 -11.34,0 -20.97,4.54 -21.82,17.01 m -30.9,5.39 c -8.22,5.95 -8.22,15.31 -9.64,23.81 7.09,2.27 14.17,4.54 20.98,7.37 30.33,12.47 58.39,32.31 61.79,59.24 11.34,-5.38 18.99,-12.75 16.73,-26.36 -1.99,-11.05 -6.24,-31.18 -13.61,-39.12 -13.89,-15.02 -42.8,-28.63 -62.08,-28.63 -5.95,0 -10.77,1.14 -14.17,3.69 m -28.35,30.61 c -32.31,33.74 34.58,70.87 43.94,79.94 2.83,2.83 1.98,5.1 0.57,7.65 -2.56,5.11 3.4,19 5.1,25.52 l 3.68,-1.14 c 75.69,-23.53 41.96,-83.62 -6.8,-103.46 -7.65,-3.12 -24.09,-12.19 -36,-12.19 -4.25,0 -7.65,1.13 -10.49,3.68 m 46.21,115.37 c -0.85,-5.1 -2.27,-10.2 -4.26,-15.3 -0.85,-1.99 -2.55,-4.82 -2.83,-6.81 -0.57,-2.26 0.85,-4.82 1.7,-7.08 l 0.85,-1.7 -1.7,-1.42 c -23.81,-20.98 -66.05,-48.47 -49.61,-78.52 4.26,-7.94 13.89,-15.31 24.67,-12.47 -2.84,-14.74 7.08,-32.32 30.04,-31.47 2.84,0.28 6.81,1.14 10.21,2.27 0.28,-0.57 0.28,-0.85 0.28,-1.42 1.99,-6.23 5.1,-14.17 13.04,-16.72 4.25,-1.42 13.32,-0.85 22.68,1.13 4.53,-16.16 15.02,-30.61 34.58,-35.722 34.3,-9.07 65.48,15.882 39.12,45.932 -5.1,5.38 -18.43,18.99 -18.99,25.79 -0.57,5.1 -1.99,19.84 -4.82,23.81 -0.29,19.56 -5.96,45.07 -39.4,57.83 1.98,41.67 -47.91,51.31 -55.28,53.57 -0.28,0 -0.28,-1.13 -0.28,-1.7" /><path
         id="path102"
         style="fill:#f6d4b3;fill-opacity:1;fill-rule:nonzero;stroke:none"
         d="m 1617.95,1173.19 c 1.43,-2.55 2.28,-4.82 -0.57,-7.65 -9.34,-9.07 -76.25,-46.21 -43.92,-79.94 6.79,-7.09 20.41,-2.84 31.74,1.98 -2.55,0.29 -5.1,1.7 -10.21,5.96 -15.02,11.34 -13.89,22.11 -5.39,37.13 41.96,29.48 42.81,44.5 30.33,57.83 -1.98,-5.96 -3.4,-12.19 -1.98,-15.31" /><path
         id="path104"
         style="fill:#f6d4b3;fill-opacity:1;fill-rule:nonzero;stroke:none"
         d="m 1713.19,1080.21 c -5.1,-10.48 -11.34,-30.05 -19.56,-37.69 -3.97,-3.97 -14.17,-7.66 -24.66,-10.22 3.98,-14.16 13.61,-26.35 30.33,-32.03 8.79,-2.825 17.58,-3.114 24.94,-1.125 -24.94,3.125 -43.65,22.395 -30.33,36.285 11.34,12.18 17.86,24.09 21.56,33.73 -0.3,4.54 -0.58,8.5 -1.7,13.04 0,-0.86 -0.3,-1.41 -0.58,-1.99" /><path
         id="path106"
         style="fill:#f6d4b3;fill-opacity:1;fill-rule:nonzero;stroke:none"
         d="m 1695.91,1116.78 c -1.13,-14.17 -8.51,-30.05 -16.16,-39.97 -6.8,-8.5 -12.76,-11.62 -24.39,-17.57 -7.36,-3.69 -14.73,-6.81 -22.66,-9.64 1.13,-15.88 16.15,-18.71 30.6,-16.16 1.7,0.57 3.41,0.85 5.11,1.14 1.13,0.28 2.27,0.56 3.41,0.85 -2.28,0.56 -4.54,0.85 -6.82,1.41 -11.61,3.12 -10.19,11.34 -6.8,13.04 20.99,11.91 52.45,55.56 37.43,82.21 -1.42,1.13 -2.84,2.26 -4.26,3.12 3.69,-5.67 4.81,-11.91 4.54,-18.43" /><path
         id="path108"
         style="fill:#f6d4b3;fill-opacity:1;fill-rule:nonzero;stroke:none"
         d="m 1613.14,1086.17 c -6.8,-2.83 -13.89,-5.1 -20.98,-7.37 1.41,-8.5 1.41,-17.86 9.64,-23.81 6.52,-4.82 17.86,-4.54 30.04,-1.13 2.84,10.2 -22.68,21.26 27.21,47.9 10.5,5.39 20.13,25.51 23.54,39.12 -2.27,1.7 -4.82,3.4 -7.66,4.53 -3.41,-26.92 -31.47,-46.77 -61.79,-59.24" /><path
         id="path110"
         style="fill:#f6d4b3;fill-opacity:1;fill-rule:nonzero;stroke:none"
         d="m 699.809,1168.37 114.519,43.09 c -13.039,-30.62 -17.008,-59.81 -15.59,-89.01 0.571,-7.65 1.703,-16.73 3.403,-26.93 l -92.692,-13.61 c -15.879,37.14 -17.578,44.51 -9.64,86.46" /><path
         id="path112"
         style="fill:#f6d4b3;fill-opacity:1;fill-rule:nonzero;stroke:none"
         d="m 1225.35,1196.72 c 31.46,-13.04 56.13,-17.57 96.94,-25.8 -7.08,-28.91 -19.55,-66.33 -49.31,-90.7 l -91.57,31.74 c 17.87,26.08 32.89,54.71 43.94,84.76" /><path
         id="path114"
         style="fill:#f6d4b3;fill-opacity:1;fill-rule:nonzero;stroke:none"
         d="m 783.434,1199.84 c -15.59,-31.75 8.218,-61.52 -6.52,-72 -30.332,-21.27 -68.601,-31.46 -71.723,-12.2 -4.527,26.93 -6.226,37.7 -5.097,53.01 l -0.281,-0.27 c -7.942,-41.97 -6.239,-49.34 9.64,-86.47 l 92.692,13.61 c -1.704,10.2 -2.84,19.27 -3.403,26.93 -1.418,29.19 2.551,58.39 15.59,89" /><path
         id="path116"
         style="fill:#f6d4b3;fill-opacity:1;fill-rule:nonzero;stroke:none"
         d="m 1181.42,1111.96 91.56,-31.75 c 22.11,17.86 34.57,43.09 42.52,66.62 -13.32,-27.22 -35.43,-52.73 -40.54,-50.74 -22.39,7.37 -36.57,18.42 -37.7,21.82 -7.65,23.53 9.37,49.33 15.6,68.88 -8.79,2.84 -17.88,5.96 -27.49,9.93 -11.07,-30.05 -26.09,-58.68 -43.95,-84.76" /><path
         id="path118"
         style="fill:#000000;fill-opacity:1;fill-rule:nonzero;stroke:none"
         d="m 1225.35,1196.72 c 31.46,-13.04 56.13,-17.57 96.94,-25.8 -7.08,-28.91 -19.55,-66.33 -49.31,-90.7 -30.62,10.48 -60.95,21.26 -91.57,31.74 -1.13,-1.41 -1.98,-2.83 -3.12,-4.25 28.35,-10.2 68.05,-25.23 92.7,-32.03 19.27,-5.39 46.21,59.81 50.17,70.87 11.91,35.43 11.34,26.36 -30.6,35.71 -30.34,7.09 -42.25,10.77 -63.51,19.56 -0.57,-1.7 -1.12,-3.4 -1.7,-5.1" /><path
         id="path120"
         style="fill:#000000;fill-opacity:1;fill-rule:nonzero;stroke:none"
         d="m 697.543,1172.91 c -14.738,-6.25 -6.52,-57.27 -2.828,-69.18 11.051,-34 7.078,-27.77 43.371,-22.66 21.816,3.11 43.367,6.52 64.906,9.63 -0.277,1.71 -0.566,3.12 -0.847,4.82 -30.903,-4.54 -61.801,-9.07 -92.692,-13.61 -15.879,37.14 -17.578,44.5 -9.64,86.45 l 114.523,43.09 c 0.559,0.85 0.848,2 1.406,2.85 0.293,1.13 0.863,2.25 1.711,3.4 -36.57,-13.34 -87.879,-30.63 -119.91,-44.79" /><path
         id="path122"
         style="fill:#000000;fill-opacity:1;fill-rule:nonzero;stroke:none"
         d="m 727.594,437.313 c 6.801,1.132 4.82,3.402 2.828,7.371 -0.848,1.699 -0.559,2.839 0.851,3.402 21.551,9.637 26.079,-24.383 27.5,-34.582 8.508,-58.68 -17.289,-44.781 -2.832,-166.68 3.403,-17.011 4.821,-37.129 4.532,-52.719 -0.282,-8.792 1.422,-17.851 3.121,-26.363 -9.641,-3.406 -20.981,-11.047 -30.61,-14.179 -3.691,-0.848 -4.543,1.14 -9.363,1.992 -3.68,4.531 0,9.347 -3.969,13.89 -51.3,-59.82 -89.859,-93.8317 -142.578,-105.4528 -20.691,-4.5391 -100.351,-7.6563 -113.953,7.082 -11.906,16.1602 -13.609,29.4808 -10.207,39.4098 2.27,6.231 4.25,9.079 14.18,16.161 50.168,34.589 88.148,63.488 133.219,102.609 6.242,5.672 9.929,15.309 11.628,26.93 5.383,40.531 -8.507,86.171 -11.91,114.519 -5.668,7.93 -17.289,51.02 -13.039,77.949 4.25,-2.547 5.102,-4.25 8.512,-4.816 26.07,-5.941 52.719,-7.094 79.367,-7.094 17.57,0 35.434,0.571 52.723,0.571 m 6.238,16.722 c -10.488,-2.262 -10.211,-6.23 -8.219,-11.902 -42.808,-0.848 -96.949,-7.367 -135.5,10.492 -22.679,10.488 -1.98,-64.922 4.539,-82.199 5.379,-33.172 25.219,-110.563 1.7,-137.481 -42.52,-36.57 -86.457,-70.011 -132.668,-102.621 -25.512,-17.851 -19.551,-37.4099 -4.813,-62.3592 29.481,-23.25 121.602,-12.7617 158.172,4.8086 37.129,17.5821 67.461,49.0396 93.828,78.8126 6.524,-0.57 9.922,0 11.621,-1.422 9.922,-6.801 36.563,10.219 44.223,13.32 6.519,2.551 0.277,9.36 -0.57,30.621 l -0.852,26.36 c -6.238,43.648 -12.191,88.16 -4.531,132.66 1.41,9.367 17.293,101.758 -20.981,101.758 -1.699,0 -3.968,-0.278 -5.949,-0.848" /><path
         id="path124"
         style="fill:#444343;fill-opacity:1;fill-rule:nonzero;stroke:none"
         d="m 731.273,448.086 c -1.418,-0.57 -1.699,-1.699 -0.847,-3.398 1.699,-3.122 3.117,-5.391 0.277,-6.524 -2.258,-0.848 -5.098,-0.848 -7.648,-0.848 l -1.422,0 c -41.668,-0.57 -84.75,-2.839 -126.141,6.52 -3.398,0.57 -4.25,2.269 -8.219,4.82 l -0.281,0 c -4.258,-26.929 7.371,-70.019 13.043,-77.961 3.399,-28.34 17.289,-73.98 11.899,-114.507 -1.7,-11.633 -5.379,-21.262 -11.621,-26.93 -45.071,-39.121 -83.059,-68.043 -133.227,-102.621 -9.922,-7.09 -11.902,-9.922 -14.172,-16.16 -3.398,-9.922 -1.699,-23.2426 10.199,-39.4028 13.61,-14.7383 93.262,-11.6172 113.961,-7.0781 52.719,11.6211 91.27,45.6289 142.578,105.4419 3.973,-4.532 0.282,-9.352 3.973,-13.891 4.82,-0.852 5.668,-2.832 9.348,-1.981 9.64,3.122 20.98,10.77 30.613,14.168 -1.703,8.512 -3.402,17.582 -3.113,26.383 0.281,15.578 -1.137,35.699 -4.539,52.707 -14.461,121.891 11.339,108 2.839,166.684 -1.14,9.066 -4.82,36.277 -20.128,36.277 -2.27,0 -4.821,-0.57 -7.372,-1.699" /><path
         id="path126"
         style="fill:#000000;fill-opacity:1;fill-rule:nonzero;stroke:none"
         d="m 744.602,435.051 c -84.473,-6.524 -17.293,-64.91 -43.372,-66.903 -30.902,-11.339 -94.109,-3.679 -101.199,2.54 0.571,-5.09 1.699,-10.758 2.84,-16.989 17.008,-11.351 68.879,-9.64 83.617,-8.511 14.461,0.851 4.543,-40.25 6.801,-58.11 -10.199,-3.398 -54.141,-8.219 -68.309,-24.66 -7.941,-8.789 57.258,-32.309 43.649,-49.609 -10.488,-13.321 21.543,-0.86 9.641,-14.45 -1.7,-1.699 -18.711,2.258 -38.27,6.52 -22.961,4.82 -49.602,9.629 -57.262,4.82 -85.886,-57.832 31.473,-60.679 26.934,-67.469 -4.25,-6.242 -30.332,-4.82 -55.563,-3.402 -21.828,1.422 -43.078,2.551 -49.32,-1.129 -54.141,-31.469 138.051,-19 37.699,-44.2185 -8.218,-1.9922 -17.289,0.5468 -27.207,3.3984 -15.312,3.9691 -32.883,7.9301 -54.711,-4.2617 -1.992,2.5625 0.852,11.3438 0,24.9528 -12.191,-13.043 -7.09,-29.4802 2.551,-46.4919 13.609,-14.7383 93.258,-11.6289 113.949,-7.0898 52.731,11.6289 91.282,45.6407 142.59,105.4417 3.961,-4.52 0.281,-9.34 3.961,-13.879 4.82,-0.852 5.668,-2.832 9.359,-1.981 9.641,3.118 20.969,10.77 30.61,14.168 -1.699,8.512 -3.399,17.582 -3.121,26.371 0.293,15.59 -16.149,5.102 -19.559,22.11 -14.449,122.172 26.371,138.609 17.86,197.289 -1.129,8.222 -4.25,31.742 -16.719,35.711 0.57,-2.27 2.269,-12.75 2.551,-14.168" /><path
         id="path128"
         style="fill:#000000;fill-opacity:1;fill-rule:nonzero;stroke:none"
         d="m 1240.66,350.293 c 7.36,-44.5 1.42,-88.719 -4.53,-132.66 l -0.86,-26.36 c -1.13,-21.261 -7.07,-28.07 -0.84,-30.621 7.93,-2.828 34.59,-20.129 44.21,-13.05 1.72,1.152 5.4,0.582 11.9,1.152 26.37,-29.77 56.69,-61.2306 93.55,-78.8126 36.57,-17.2891 128.7,-28.0586 158.45,-4.8281 14.75,24.9609 20.41,44.5197 -4.81,62.3787 -46.19,32.879 -90.15,66.332 -132.67,102.602 -23.79,26.937 -3.68,104.328 1.71,137.488 6.52,17.289 26.93,92.691 4.53,82.492 -4.53,-2.269 -9.08,-3.972 -13.87,-5.402 l -0.57,0 -0.29,-0.27 -0.28,0 -0.86,-0.281 -0.85,0 0,-0.289 -0.85,0 -0.28,-0.277 -0.86,0 0,-0.282 -1.13,0 0,-0.289 c -35.16,-8.781 -78.23,-4.543 -113.67,-3.402 -0.57,0 -1.13,0 -1.98,-0.277 -1.99,0 -4.83,0 -5.68,0.847 -1.7,-2.839 -2.25,-4.539 3.69,-5.39 43.38,-0.559 88.72,-3.41 132.09,6.242 3.4,0.848 4.27,2.551 8.23,4.82 4.54,-26.929 -7.09,-69.73 -13.03,-77.672 -3.41,-28.629 -17.31,-74.269 -11.63,-114.519 1.7,-11.91 5.1,-21.539 11.63,-26.93 45.07,-39.121 83.05,-68.031 133.21,-102.898 9.92,-6.801 11.91,-9.641 14.17,-15.871 3.41,-10.2113 1.44,-23.5317 -10.19,-39.6918 -13.62,-14.7383 -93.26,-11.3399 -114.24,-6.8008 -52.43,11.3399 -91.27,45.6406 -142.31,105.1716 -3.96,-4.539 -0.27,-9.359 -4.23,-13.89 -4.56,-0.86 -5.68,-2.84 -9.36,-1.711 -9.64,2.832 -20.7,10.492 -30.62,13.89 1.69,8.789 3.39,17.582 3.12,26.653 -0.28,15.59 1.42,35.718 4.81,52.437 14.48,122.172 -11.33,108 -3.11,166.949 1.43,9.93 5.95,43.383 26.93,34.582 l 0,5.399 c -0.57,0 -1.13,0.281 -1.71,0.281 -2.26,0.559 -4.24,0.852 -6.24,0.852 -37.96,0 -22.38,-92.121 -20.68,-101.762" /><path
         id="path130"
         style="fill:#444343;fill-opacity:1;fill-rule:nonzero;stroke:none"
         d="m 1262.77,446.953 0,0 c -15.6,0 -18.99,-27.211 -20.41,-36 -8.22,-58.961 17.58,-44.789 3.12,-166.961 -3.4,-16.73 -5.1,-36.84 -4.82,-52.437 0.27,-9.071 -1.43,-17.864 -3.12,-26.653 9.92,-3.398 20.98,-11.05 30.62,-13.89 3.68,-1.129 4.81,0.851 9.35,1.703 3.97,4.539 0.28,9.359 4.24,13.887 51.04,-59.52 89.87,-93.8207 142.31,-105.1606 20.98,-4.5391 100.62,-7.9375 114.24,6.8008 11.62,16.1601 13.6,29.4805 10.2,39.6918 -2.27,6.23 -4.26,9.07 -14.17,15.879 -50.17,34.859 -88.16,63.769 -133.23,102.89 -6.52,5.379 -9.92,15.031 -11.62,26.93 -5.67,40.25 8.22,85.89 11.62,114.519 5.95,7.93 17.58,50.743 13.04,77.672 -3.97,-2.269 -5.1,-3.972 -8.23,-4.82 -40.53,-9.07 -102.6,-6.813 -123.31,-6.52 -3.96,0.278 -6.79,0.278 -8.49,0.278 l 1.7,0 -2.27,0 0.57,0 c -0.57,0 -1.14,0 -1.7,0.293 -4.54,0.847 -3.69,2.547 -2.27,5.097 -0.86,0.852 -0.86,2.551 -0.86,5.379 -2.26,1.141 -4.53,1.422 -6.51,1.422" /><path
         id="path132"
         style="fill:#000000;fill-opacity:1;fill-rule:nonzero;stroke:none"
         d="m 1242.36,410.957 c -8.22,-58.961 32.6,-75.398 18.13,-197.57 -3.39,-16.739 -20.11,-6.239 -19.83,-21.828 0.27,-9.082 -1.42,-17.871 -3.12,-26.653 9.92,-3.398 20.98,-11.051 30.62,-13.89 3.68,-1.129 4.81,0.851 9.35,1.703 3.97,4.539 0.28,9.347 4.24,13.879 51.04,-59.52 89.87,-93.8128 142.31,-105.1527 20.98,-4.539 100.62,-7.9375 114.24,6.8008 9.92,10.7695 13.03,36.8519 0.28,47.9099 -48.48,17 -70.59,11.621 -85.32,6.231 -13.33,-4.821 -20.98,-9.629 -36.57,1.699 -18.99,13.609 109.98,-6.238 60.66,30.332 -40.82,30.609 -67.75,20.41 -85.61,10.488 -10.48,-5.949 -17.85,-11.898 -23.24,-9.347 -82.2,39.968 -39.97,37.418 4.25,35.148 35.44,-2 72,-4.25 45.64,16.16 -7.37,5.102 -34.01,0 -57.26,-4.832 -19.27,-4.25 -36.57,-8.207 -37.98,-6.508 -11.91,13.59 19.84,1.411 9.35,14.739 -13.6,17.011 54.99,26.082 47.06,34.863 11.9,67.18 -24.1,56.699 -49.61,46.476 -10.49,-3.957 -19,-8.207 -21.83,-7.359 2.27,18.141 -5.38,46.492 9.06,45.641 14.47,-1.141 64.36,9.629 81.37,21.261 1.12,5.938 1.97,11.899 2.55,17.008 -7.09,-6.527 -70.02,-14.179 -100.91,-2.84 -26.08,2.27 41.1,60.379 -43.37,67.172 0,1.43 1.98,11.918 2.26,13.899 -12.47,-3.68 -15.59,-27.489 -16.72,-35.43" /><path
         id="path134"
         style="fill:#000000;fill-opacity:1;fill-rule:nonzero;stroke:none"
         d="m 783.148,1419.52 c 0,0 -33.168,54.99 -27.21,123.02 3.402,38.27 53.292,135.22 147.972,185.96 74.551,39.96 205.51,76.53 306.42,-17.29 0,0 54.71,6.51 93.83,-86.18 41.1,-97.51 -11.91,-199.56 -64.92,-233.01 -53,-33.16 -426.611,-49.32 -456.092,27.5" /><path
         id="path136"
         style="fill:#5b5b5b;fill-opacity:1;fill-rule:nonzero;stroke:none"
         d="m 1304.16,1625.04 c -3.4,7.64 -6.81,14.73 -10.21,20.98 -0.29,-12.2 -0.84,-24.11 -1.14,-33.75 -22.11,10.5 -32.3,40.82 -43.08,51.03 -22.67,0.85 -24.66,-49.03 -35.43,-38.84 -33.73,1.15 -31.18,70.88 -76.82,52.44 -11.62,-9.63 -46.78,-38.54 -46.2,-28.63 -30.63,80.79 -169.811,-14.73 -236.132,17.3 23.801,19.56 42.524,39.4 48.762,62.92 -52.449,-28.06 -91.281,-70.29 -115.941,-109.13 3.691,1.7 7.652,3.12 11.609,3.98 -0.269,-7.95 -9.617,-19.57 -5.09,-19.85 22.383,-4.54 36.282,15.03 58.961,18.42 4.25,-11.89 -5.109,-19.84 -14.461,-27.48 63.782,22.38 127.852,56.41 194.742,42.79 -9.36,-15.59 -27.49,-23.25 -41.39,-34.58 58.12,-5.67 109.13,40.82 158.47,35.72 13.32,-0.57 25.79,-32.61 34,-56.7 4.83,7.95 14.17,19.56 18.43,15.31 17.86,-4.26 26.37,-24.38 43.94,-36.84 0.29,11.89 14.18,19.55 9.93,31.73 26.64,-12.75 11.89,-48.18 38.54,-60.93 5.68,20.12 12.76,39.96 19,60.66 -2.55,11.05 -5.95,22.38 -10.49,33.45" /><path
         id="path138"
         style="fill:#000000;fill-opacity:1;fill-rule:nonzero;stroke:none"
         d="m 1210.61,1712.91 -0.57,0 0.57,0 z M 841.266,1384.66 c -31.75,9.07 -50.743,20.97 -56.129,35.43 0,0 -0.282,0 -0.282,0.27 -0.289,0.57 -32.89,55.28 -26.929,122.19 3.679,39.97 55.84,135.77 147.121,184.52 42.508,22.68 190.203,88.73 303.863,-17 0.57,-0.28 1.13,-0.57 1.7,-0.57 0.57,0.29 53.57,5.11 91.57,-85.32 40.82,-96.66 -11.91,-197.86 -64.07,-230.73 -41.95,-26.38 -284.036,-41.4 -396.844,-8.79 m 61.789,345.25 c -96.942,-51.59 -145.7,-149.09 -149.102,-187.09 -5.949,-68.02 27.211,-123.59 27.492,-124.16 l 0,0.29 c 5.961,-15.59 25.52,-28.34 58.399,-37.7 113.953,-32.59 358.016,-17.29 400.536,9.36 53.01,33.73 107.14,136.62 65.46,234.98 -37.68,89.59 -88.98,87.89 -94.66,87.32 -115.93,106.86 -265.035,40.25 -308.125,17" /><path
         id="path140"
         style="fill:#5b5b5b;fill-opacity:1;fill-rule:nonzero;stroke:none"
         d="m 1269.86,1539.71 c -1.43,5.39 -2.27,5.67 -1.98,-0.85 3.1,-32.88 -11.92,-81.07 -42.52,-93.54 23.82,43.08 26.64,102.89 -22.96,142.86 13.03,-34.86 16.73,-45.35 6.51,-64.63 6.23,47.62 -51.02,34.87 -67.46,102.9 -109.14,-65.2 -163.274,-43.37 -244.915,-65.2 18.719,23.25 45.918,34.59 69.16,53.86 -85.882,-13.6 -159.859,-75.4 -144.562,-155.62 -7.66,36 -11.91,85.61 3.109,125.01 -51.59,-44.51 -40.527,-137.48 -7.078,-193.33 99.5,-43.37 377.016,-27.49 422.076,0.86 5.96,3.68 11.64,8.5 17.3,13.6 -7.66,0.57 -15.59,1.7 -23.25,3.4 21.82,36.57 55,66.33 36.57,130.68" /><path
         id="path142"
         style="fill:#000000;fill-opacity:1;fill-rule:nonzero;stroke:none"
         d="m 876.695,1567.77 c -33.453,-32.88 -35.429,-61.51 -36.281,-68.6 1.981,7.37 9.352,39.4 38.828,66.33 15.024,17.58 53.012,34.58 67.473,39.4 -12.481,-2.83 -43.66,-12.19 -70.02,-37.13" /><path
         id="path144"
         style="fill:#000000;fill-opacity:1;fill-rule:nonzero;stroke:none"
         d="m 1228.48,1515.05 c -1.71,33.45 -18.71,57.26 -19.29,56.69 2.56,1.7 23.82,-34.86 22.69,-56.41 2.26,-34.01 -9.07,-60.09 -8.51,-60.09 -0.85,0 6.81,21.26 5.11,59.81" /><path
         id="path146"
         style="fill:#000000;fill-opacity:1;fill-rule:nonzero;stroke:none"
         d="m 1261.07,1471.96 c 12.75,29.76 10.49,56.98 10.77,56.69 1.13,0.29 2.84,-38.83 -7.37,-57.82 -10.49,-25.23 -31.47,-39.41 -39.11,-43.66 -2,-0.85 -3.13,-0.56 -2.84,-0.56 -1.41,0.56 22.95,10.48 38.55,45.35" /><path
         id="path148"
         style="fill:#f6d4b3;fill-opacity:1;fill-rule:nonzero;stroke:none"
         d="m 819.148,1434.26 c 0,0 -24.66,20.13 -45.347,2.55 -20.981,-17.29 -7.66,-72.85 35.711,-85.89 0,0 -11.903,-57.83 27.207,-96.38 39.41,-38.26 119.062,-77.67 134.929,-106.3 15.883,-28.91 42.242,-45.92 68.042,-34.58 25.5,11.06 13.03,42.8 69.73,69.73 56.41,26.93 135.21,66.9 129.54,149.11 0,0 23.53,2.26 37.42,35.43 13.6,33.45 -11.62,69.73 -40.25,50.46 0,0 -7.09,-3.97 -10.49,-1.7 -7.37,4.53 -3.12,9.92 -3.12,9.92 0,0 -12.47,-1.99 -3.12,15.59 9.36,17.86 3.12,49.04 -20.97,85.6 -24.1,36.57 -52.16,36 -70.87,81.64 0,0 -25.23,-22.68 -64.63,-35.15 -31.18,-9.92 -98.078,-23.53 -153.641,-20.97 -55.559,2.55 -94.391,-67.19 -75.969,-120.19 0,0 -9.922,-8.22 -14.172,1.13" /><path
         id="path150"
         style="fill:#000000;fill-opacity:1;fill-rule:nonzero;stroke:none"
         d="m 830.77,1464.59 c 0.851,22.11 9.07,44.79 24.382,62.08 14.739,17.01 34.008,25.79 54.137,24.94 56.691,-2.55 123.311,11.06 154.201,20.98 33.45,10.77 56.98,28.63 63.5,34.02 10.49,-24.67 23.81,-35.72 37.98,-47.06 10.78,-8.5 21.55,-17.29 31.75,-32.6 16.16,-24.38 24.67,-47.34 24.95,-64.91 0,-0.85 0.85,-8.22 1.42,-8.79 0.56,-0.28 2.26,5.39 2.26,8.79 -0.28,18.42 -8.78,41.95 -25.23,66.61 -10.48,15.88 -21.54,24.95 -32.59,33.45 -14.18,11.62 -27.5,22.4 -37.99,47.91 -0.28,0.56 -0.85,0.85 -1.42,1.13 -0.85,0 -1.41,0 -1.98,-0.57 -0.28,-0.28 -25.23,-22.39 -63.78,-34.58 -30.9,-9.92 -96.661,-23.53 -152.79,-20.97 -21.257,0.85 -41.949,-8.51 -57.539,-26.37 -15.59,-17.57 -24.379,-40.53 -25.23,-63.49 0,-3.4 1.422,-10.49 2.269,-10.77 0.571,0 1.7,6.8 1.7,10.2" /><path
         id="path152"
         style="fill:#000000;fill-opacity:1;fill-rule:nonzero;stroke:none"
         d="m 976.191,1144.28 c -9.921,18.71 -40.25,40.25 -70.582,60.66 -24.66,16.73 -49.886,33.73 -67.468,50.74 -37.981,37.42 -26.641,94.4 -26.641,94.96 0.281,0.85 -0.289,1.7 -1.141,1.99 -24.937,7.37 -38.257,28.63 -42.519,45.92 -3.969,15.87 -1.129,30.04 7.09,37.13 19.281,15.88 41.39,-1.7 42.8,-2.55 3.692,-2.83 8.512,-3.97 8.512,-3.68 0,0.85 -5.672,5.95 -5.961,5.95 0,0.28 -26.07,20.97 -47.898,2.83 -6.242,-5.38 -9.922,-13.89 -10.211,-24.09 -0.281,-5.1 0.289,-10.49 1.699,-16.16 4.539,-18.14 18.43,-39.68 43.66,-47.9 -0.289,-2.27 -1.14,-7.38 -1.422,-14.46 -0.847,-20.13 2.274,-55.84 29.204,-82.21 17.859,-17.29 43.367,-34.58 68.027,-51.3 26.652,-17.86 51.871,-35.15 63.211,-49.61 5.672,-6.24 9.922,-8.5 9.64,-8.22" /><path
         id="path154"
         style="fill:#000000;fill-opacity:1;fill-rule:nonzero;stroke:none"
         d="m 1265.89,1421.5 c -9.35,5.95 -20.41,5.39 -30.9,-1.7 -1.7,-1.12 -6.8,-3.4 -6.8,-4.25 0,-0.28 11.05,2.56 11.9,3.13 8.23,4.52 16.45,4.52 23.53,0 11.91,-7.95 19.56,-29.21 10.78,-49.89 -13.05,-31.75 -35.43,-34.59 -35.72,-34.59 -1.14,-0.29 -1.7,-0.86 -1.7,-1.99 5.67,-83.33 -78.24,-123.31 -128.7,-147.12 -26.08,-12.75 -41.1,-32.6 -48.46,-44.5 2.26,0.86 7.36,6.23 9.91,9.36 7.37,10.48 18.71,21.53 40.54,32.02 48.47,22.96 127.84,60.96 130.68,137.77 0.28,3.69 0.28,7.37 0,11.33 5.66,1.14 25.22,7.09 37.13,36.29 2.55,6.23 3.68,12.19 3.97,17.86 0.56,15.87 -6.52,29.76 -16.16,36.28" /><path
         id="path156"
         style="fill:#000000;fill-opacity:1;fill-rule:nonzero;stroke:none"
         d="m 805.543,1499.46 c -0.852,22.11 10.488,60.38 14.461,70.87 -3.973,-8.51 -16.441,-36 -17.863,-70.87 -1.418,-42.24 17.863,-64.35 23.812,-70.02 -2.269,7.94 -23.242,33.45 -20.41,70.02" /><path
         id="path158"
         style="fill:#000000;fill-opacity:1;fill-rule:nonzero;stroke:none"
         d="m 993.477,1369.06 c 0,0 8.223,18.14 26.373,17.29 18.42,-1.13 22.39,-18.99 22.39,-18.99 0,0 -0.57,26.08 -21.54,24.66 -21.262,-1.42 -27.223,-19.28 -27.223,-22.96" /><path
         id="path160"
         style="fill:#000000;fill-opacity:1;fill-rule:nonzero;stroke:none"
         d="m 891.719,1513.92 c 0,0 23.242,30.61 55.558,10.2 0,0 6.243,7.93 -7.648,11.91 -14.18,4.25 -39.969,3.4 -47.91,-22.11" /><path
         id="path162"
         style="fill:#000000;fill-opacity:1;fill-rule:nonzero;stroke:none"
         d="m 1166.68,1509.1 c 0,0 -23.81,34.02 -58.12,13.89 0,0 -6.24,9.07 8.51,12.76 14.74,3.4 41.67,1.13 49.61,-26.65" /><path
         id="path164"
         style="fill:#fdfdfd;fill-opacity:1;fill-rule:nonzero;stroke:none"
         d="m 954.648,1482.45 c 0,0 -21.261,26.65 -54.71,3.97 -33.45,-22.4 -38.27,-72.85 -26.36,-99.5 0,0 61.512,7.94 94.961,-5.1 0,0 15.867,70.87 -13.891,100.63" /><path
         id="path166"
         style="fill:#000000;fill-opacity:1;fill-rule:nonzero;stroke:none"
         d="m 964.848,1408.47 c -0.278,-12.19 -9.348,-21.83 -20.129,-21.83 -10.77,0.29 -18.989,10.49 -18.699,22.68 0.558,12.19 9.347,21.83 20.121,21.54 10.769,-0.28 19.277,-10.2 18.707,-22.39" /><path
         id="path168"
         style="fill:#fdfdfd;fill-opacity:1;fill-rule:nonzero;stroke:none"
         d="m 956.063,1416.4 c -0.278,-5.95 -4.54,-10.49 -9.918,-10.49 -5.102,0.29 -9.071,5.1 -9.071,11.06 0.281,5.95 4.531,10.49 9.918,10.49 5.102,-0.29 9.071,-5.11 9.071,-11.06" /><path
         id="path170"
         style="fill:#000000;fill-opacity:1;fill-rule:nonzero;stroke:none"
         d="m 878.395,1467.14 c 12.468,20.41 36.847,32.6 54.14,28.91 17.008,-4.53 22.11,-14.17 22.11,-13.6 0.289,-0.84 -9.922,12.75 -29.481,11.91 -18.988,-1.14 -35.43,-17.57 -42.23,-29.2 -23.821,-40.26 -9.36,-79.09 -9.36,-78.23 1.989,-1.14 -21.261,29.75 4.821,80.21" /><path
         id="path172"
         style="fill:#000000;fill-opacity:1;fill-rule:nonzero;stroke:none"
         d="m 813.48,1366.8 c 2.27,12.47 0.282,23.24 0.282,23.24 0.57,0.57 6.808,-15.02 4.539,-23.81 -2.27,-13.89 -11.91,-22.11 -11.34,-22.11 -0.57,0.29 3.691,8.22 6.519,22.68" /><path
         id="path174"
         style="fill:#fdfdfd;fill-opacity:1;fill-rule:nonzero;stroke:none"
         d="m 1102.62,1480.18 c 0,0 23.53,24.94 54.99,0.28 31.17,-24.94 31.47,-75.4 17.29,-101.19 0,0 -60.66,12.19 -94.97,1.7 0,0 -9.63,71.43 22.69,99.21" /><path
         id="path176"
         style="fill:#000000;fill-opacity:1;fill-rule:nonzero;stroke:none"
         d="m 1085.32,1405.06 c -0.85,-12.19 7.37,-22.39 18.14,-22.96 10.77,-0.57 19.84,9.07 20.69,21.26 0.57,12.19 -7.37,22.39 -18.14,22.96 -10.77,0.28 -20.12,-9.07 -20.69,-21.26" /><path
         id="path178"
         style="fill:#fdfdfd;fill-opacity:1;fill-rule:nonzero;stroke:none"
         d="m 1095.24,1412.71 c -0.56,-5.94 3.4,-11.05 8.8,-11.33 5.37,-0.29 9.64,4.53 10.19,10.48 0.29,5.96 -3.68,11.05 -9.07,11.34 -5.1,0 -9.64,-4.54 -9.92,-10.49" /><path
         id="path180"
         style="fill:#000000;fill-opacity:1;fill-rule:nonzero;stroke:none"
         d="m 1177.17,1459.77 c -6.24,12.76 -23.24,30.9 -43.95,32.31 -20.96,0.86 -30.88,-12.75 -30.6,-11.9 -0.28,-0.57 7.09,7.94 23.24,9.92 16.44,1.13 36.56,-12.47 46.77,-32.31 20.41,-49.04 0.57,-79.09 2.26,-78.52 -0.55,-1.14 23.26,36 2.28,80.5" /><path
         id="path182"
         style="fill:#850f00;fill-opacity:1;fill-rule:nonzero;stroke:none"
         d="m 933.102,1348.94 c 0,0 126.708,-15.87 197.568,-31.75 0,0 4.54,-104.6 -115.92,-95.81 -113.68,8.22 -95.258,109.69 -81.648,127.56" /><path
         id="path184"
         style="fill:#000000;fill-opacity:1;fill-rule:nonzero;stroke:none"
         d="m 1128.69,1315.77 c 0,-2.27 -0.28,-8.5 -1.42,-16.16 -2.54,-15.59 -9.92,-38.55 -29.48,-55.27 -19.56,-16.73 -47.34,-23.81 -83.05,-21.26 -39.119,2.83 -66.049,17.01 -79.939,41.95 -10.488,19.28 -11.34,41.67 -8.5,58.68 1.699,10.77 4.82,18.99 7.929,23.52 12.481,-1.7 127.85,-16.44 194.46,-31.46 m -195.307,34.87 c -0.852,0.28 -1.41,0 -1.981,-0.57 -9.359,-12.47 -17.859,-54.14 0,-86.46 14.457,-26.36 42.52,-41.1 83.048,-43.93 36.85,-2.84 65.77,4.81 86.18,22.11 33.73,28.63 32.03,75.11 31.75,75.4 0,0.85 -0.57,1.41 -1.41,1.7 -70.02,15.87 -196.45,31.75 -197.587,31.75" /><path
         id="path186"
         style="fill:#b71309;fill-opacity:1;fill-rule:nonzero;stroke:none"
         d="m 1049.04,1268.15 c -18.14,9.07 -35.43,1.13 -35.43,1.13 -6.52,11.63 -32.317,13.33 -48.489,2.56 -8.488,-5.96 -15.289,-15.6 -19.828,-23.53 13.891,-13.89 36,-24.66 69.437,-26.93 26.65,-1.99 47.06,1.7 62.93,8.5 -4.24,13.61 -14.17,31.18 -28.62,38.27" /><path
         id="path188"
         style="fill:#000000;fill-opacity:1;fill-rule:nonzero;stroke:none"
         d="m 966.27,1270.42 c 8.789,5.95 21.539,8.22 32.3,6.24 6.53,-1.42 11.35,-4.26 13.33,-7.94 0.29,-0.57 0.85,-0.85 1.14,-0.85 0.56,-0.28 1.14,-0.28 1.7,0 0,0 16.44,7.37 33.44,-1.13 13.62,-6.81 22.97,-23.25 26.94,-36.01 -16.72,-6.8 -36.85,-9.35 -60.38,-7.65 -29.189,1.99 -51.592,10.77 -67.181,25.51 4.25,7.37 10.769,16.44 18.711,21.83 m -2.27,2.83 c -9.07,-6.23 -16.16,-16.44 -20.41,-24.09 -0.559,-0.57 -0.281,-1.42 0.289,-1.98 15.871,-16.16 39.68,-25.23 70.571,-27.5 24.94,-1.98 46.5,1.13 64.07,8.5 0.85,0.29 1.14,1.14 0.85,1.99 -3.97,13.6 -14.17,32.03 -29.19,39.68 -16.73,8.22 -32.04,3.12 -36,1.7 -3.12,3.97 -7.94,6.81 -14.75,8.22 -11.899,2.56 -25.789,0 -35.43,-6.52" /><path
         id="path190"
         style="fill:#000000;fill-opacity:1;fill-rule:nonzero;stroke:none"
         d="m 1011.9,1268.15 c -1.97,4.82 -6.79,7.37 -6.79,7.37 0,0.57 8.5,-1.7 9.62,-6.24 2.84,-5.95 -0.28,-10.77 0,-10.77 -0.28,0 -0.55,3.97 -2.83,9.64" /><path
         id="path192"
         style="fill:#513c3e;fill-opacity:1;fill-rule:nonzero;stroke:none"
         d="m 1244.91,1659.05 -0.57,0" /><path
         id="path194"
         style="fill:#b71309;fill-opacity:1;fill-rule:nonzero;stroke:none"
         d="m 1202.11,1754.29 c 0,0 -23.53,81.92 -135.21,97.23 -111.689,15.02 -202.111,-54.43 -231.31,-77.67 -29.199,-23.53 -41.672,-55.84 -44.5,-84.19 -2.84,-28.63 136.34,-93.26 268.15,-58.96 132.1,34.58 164.7,72.57 142.87,123.59" /><path
         id="path196"
         style="fill:#850f00;fill-opacity:1;fill-rule:nonzero;stroke:none"
         d="m 1103.75,1830.54 c -32.03,-2.55 1.98,-41.67 -11.91,-47.34 -39.4,-10.77 -43.66,-38.83 -84.75,-45.07 0,0 -6.24,13.32 -10.219,22.39 -52.141,-62.36 -97.211,-13.32 -149.371,22.4 37.422,28.63 119.898,81.92 219.39,68.6 11.35,-1.7 21.84,-3.97 31.47,-6.81 2.56,-3.97 4.54,-8.78 5.39,-14.17" /><path
         id="path198"
         style="fill:#850f00;fill-opacity:1;fill-rule:nonzero;stroke:none"
         d="m 791.09,1689.66 c 2.828,28.35 15.308,60.66 44.5,84.19 3.121,2.55 7.09,5.67 11.91,9.07 3.969,-2.55 7.648,-5.39 11.617,-8.22 -52.437,-49.61 -15.019,-97.51 28.352,-141.73 -57.828,15.3 -98.078,41.1 -96.379,56.69" /><path
         id="path200"
         style="fill:#000000;fill-opacity:1;fill-rule:nonzero;stroke:none"
         d="m 1058.96,1632.69 c -109.694,-28.64 -219.394,11.06 -253.413,38.83 -8.5,6.8 -13.043,13.03 -12.473,17.86 1.973,19.56 10.199,56.41 43.641,83.06 95.808,76.52 178.015,84.19 229.895,77.1 109.14,-14.74 133.52,-94.97 133.8,-95.81 7.93,-18.43 7.93,-34.02 0.84,-48.19 -14.45,-28.06 -59.8,-51.31 -142.29,-72.85 m -224.784,142.58 c -34.301,-27.49 -42.801,-65.48 -45.071,-85.6 -0.57,-5.96 4.239,-13.33 13.891,-20.98 34.867,-28.06 145.699,-68.6 256.824,-39.68 83.61,21.81 129.82,45.63 144.84,75.11 7.66,15.02 7.66,31.47 -0.86,50.74 l 0.29,0 c -0.29,0.85 -25.23,83.06 -136.91,98.37 -52.72,7.07 -136.055,-0.57 -233.004,-77.96" /><path
         id="path202"
         style="fill:#fdfdfd;fill-opacity:1;fill-rule:nonzero;stroke:none"
         d="m 1206.65,1781.5 c 37.7,8.5 73.69,-8.5 51.58,-39.69 0,0 43.37,-10.47 22.11,-59.52 -21.26,-49.33 -128.41,-85.89 -209.2,-98.65 -80.781,-12.75 -151.07,-14.17 -211.449,-2.55 -60.382,11.34 -64.921,-2.82 -93.543,19.84 -28.636,22.68 -7.378,80.79 13.602,89.29 20.98,8.51 36,16.46 59.531,13.05 0,0 -16.172,19.55 1.117,26.64 17.024,7.09 52.731,-34.02 116.231,-45.92 63.211,-11.9 100.631,-7.36 166.681,22.12 66.05,29.75 60.95,40.82 65.76,58.68 5.11,17.84 17.58,16.71 17.58,16.71" /><path
         id="path204"
         style="fill:#dcdde3;fill-opacity:1;fill-rule:nonzero;stroke:none"
         d="m 1248.89,1715.18 c -17.29,14.17 -41.95,19.84 -35.72,43.64 -1.42,15.32 32.04,2.28 41.95,17.02 0,0.28 -0.28,0.57 -0.28,0.85 11.05,-7.08 14.45,-19.28 3.4,-34.87 0,0 43.36,-10.48 22.11,-59.52 -3.11,-6.82 -7.65,-13.61 -13.89,-19.84 6.81,19.27 2.83,39.4 -17.57,52.72" /><path
         id="path206"
         style="fill:#dcdde3;fill-opacity:1;fill-rule:nonzero;stroke:none"
         d="m 779.746,1690.23 c 20.981,8.5 36,16.44 59.531,13.04 0,0 -16.16,19.56 1.129,26.65 5.668,2.26 13.321,-0.57 23.25,-5.96 1.699,-15.3 21.262,-27.78 17,-37.41 -12.468,-20.98 -36.558,-4.26 -59.238,-3.12 -49.891,0.85 -37.992,-62.93 -10.211,-88.73 4.82,-3.12 9.359,-5.95 14.18,-9.07 -29.481,2.27 -37.422,-1.98 -59.25,15.31 -28.629,22.68 -7.371,80.79 13.609,89.29" /><path
         id="path208"
         style="fill:#000000;fill-opacity:1;fill-rule:nonzero;stroke:none"
         d="m 1124.16,1704.69 c 59.24,26.65 62.08,38.55 65.48,54.14 l 1.41,5.67 c 4.26,15.88 15.02,15.31 15.31,15.31 l 0.56,0 c 22.69,5.1 45.08,0.57 53.02,-10.49 5.1,-7.09 3.97,-16.16 -3.12,-26.36 -0.57,-0.57 -0.57,-1.14 -0.29,-1.7 0.29,-0.57 0.57,-0.85 1.14,-1.14 0.29,0 15.87,-3.97 22.95,-17.57 5.4,-10.49 4.83,-23.81 -1.97,-39.69 -19.84,-45.63 -119.63,-83.34 -207.78,-97.51 -82.768,-12.75 -151.651,-13.6 -210.901,-2.55 -24.09,4.54 -39.399,5.1 -50.739,5.67 -17.289,0.57 -25.23,0.57 -41.949,13.89 -14.461,11.62 -13.89,31.18 -12.191,41.95 3.121,19.84 14.461,39.69 25.512,44.22 l 6.519,2.84 c 17.578,7.37 31.469,13.04 51.867,9.92 0.852,0 1.711,0.28 1.992,0.85 0.571,0.57 0.282,1.42 0,1.98 -0.281,0.29 -8.218,10.21 -6.242,17.86 0.571,2.84 2.84,4.82 6.242,6.24 7.09,2.83 18.418,-3.69 34.008,-12.76 19.563,-11.34 46.211,-26.64 81.082,-33.16 64.34,-12.19 102.04,-7.37 168.09,22.39 m -284.601,26.93 c -4.528,-1.99 -7.649,-4.82 -8.5,-8.79 -1.137,-3.97 0,-8.5 1.703,-12.47 0.847,-1.98 1.976,-3.69 2.828,-5.1 -19.27,1.98 -33.16,-3.4 -49.891,-10.49 l -6.801,-2.84 c -12.187,-5.1 -24.378,-25.79 -27.5,-47.05 -3.109,-19.84 1.704,-35.72 13.614,-45.36 17.578,-13.89 26.359,-14.17 43.937,-14.74 11.34,-0.56 26.641,-0.85 50.449,-5.38 59.532,-11.34 128.981,-10.49 212.042,2.55 72.28,11.34 187.93,47.34 210.61,99.5 6.8,16.15 7.94,29.76 2.83,40.81 -0.28,0.57 -0.56,1.42 -0.86,1.99 -6.22,12.19 -18.13,17.01 -22.96,18.71 6.82,10.77 6.82,18.99 4.27,24.66 -0.57,1.42 -1.42,2.55 -2.27,3.68 -8.79,12.48 -32.32,17.58 -56.7,12.19 -1.7,0 -13.89,0 -19,-18.14 l -1.4,-5.95 c -3.12,-14.17 -5.68,-25.51 -63.5,-51.59 -65.2,-29.2 -102.33,-34.02 -165.538,-22.11 -34.301,6.52 -60.672,21.82 -79.942,32.88 -16.73,9.64 -28.628,16.44 -37.421,13.04" /><path
         id="path210"
         style="fill:#fdfdfd;fill-opacity:1;fill-rule:nonzero;stroke:none"
         d="m 862.234,1792.56 c 24.383,-32.31 70.871,-47.62 101.481,-36 30.609,11.62 39.975,32.03 39.975,32.03 0,0 1.7,-26.64 22.11,-18.14 20.12,8.22 20.98,28.91 20.98,28.91 0,0 15.59,-14.17 31.18,-7.65 15.59,6.24 -15.89,49.89 -15.89,49.89 0,0 19.29,4.25 21.56,21.83 2.26,17.85 -44.22,34.86 -44.22,34.86 0,0 18.41,10.21 3.39,27.78 -15.3,17.58 -73.132,-3.4 -78.234,-24.66 0,0 -0.57,30.33 -22.961,24.95 -22.39,-5.67 -28.058,-34.59 -28.058,-34.59 0,0 -31.75,-3.12 -48.192,-19.56 -16.73,-16.44 -20.98,-56.12 -3.121,-79.65" /><path
         id="path212"
         style="fill:#dcdde3;fill-opacity:1;fill-rule:nonzero;stroke:none"
         d="m 865.352,1872.21 c 1.98,2.27 4.539,4.25 7.371,5.95 -9.641,-32.03 -5.672,-63.49 21.539,-85.6 21.261,-22.96 67.468,-14.74 85.609,18.99 7.371,8.22 -4.82,35.15 10.492,25.51 13.317,-5.1 12.197,-26.93 24.657,-42.8 0,0 13.32,-5.11 16.16,1.13 7.37,8.22 -3.4,19.84 3.97,28.06 5.95,-13.32 17.29,-13.89 33.16,-12.75 -3.12,19.84 -35.15,17.29 -31.75,34.58 2.55,6.24 27.22,0.57 25.24,5.1 1.98,32.32 -43.95,24.1 -55.84,51.03 13.88,5.67 28.62,8.78 42.22,15.02 3.13,-11.62 -8.78,-18.14 -8.78,-18.14 0,0 46.5,-17.01 44.22,-34.87 -2.26,-17.57 -21.55,-21.82 -21.55,-21.82 0,0 31.47,-43.66 15.88,-49.89 -15.59,-6.52 -31.17,7.65 -31.17,7.65 0,0 -0.85,-20.69 -20.99,-28.91 -20.41,-8.51 -22.11,18.14 -22.11,18.14 0,0 -9.348,-20.41 -39.969,-32.03 -30.609,-11.63 -77.098,3.68 -101.481,36 -17.859,23.52 -13.597,63.21 3.122,79.65" /><path
         id="path214"
         style="fill:#000000;fill-opacity:1;fill-rule:nonzero;stroke:none"
         d="m 966.555,1900.84 c 2.547,10.77 21.828,23.54 42.795,28.36 14.74,3.39 26.93,1.69 32.02,-4.27 4.27,-5.09 6.24,-9.91 5.39,-14.45 -1.41,-6.52 -8.21,-10.48 -8.21,-10.48 -0.57,-0.29 -1.13,-1.14 -0.85,-1.7 0,-0.85 0.57,-1.42 1.13,-1.71 12.48,-4.54 44.51,-19.55 42.81,-32.88 -1.99,-16.16 -19.28,-20.12 -20.13,-20.41 -0.58,0 -1.13,-0.57 -1.13,-1.14 -0.29,-0.55 -0.29,-1.12 0,-1.7 6.52,-8.78 22.66,-34.3 19.56,-43.94 -0.57,-1.7 -1.42,-2.54 -2.84,-3.11 -14.17,-5.96 -28.91,7.09 -28.91,7.09 -0.58,0.57 -1.43,0.57 -1.99,0.57 -0.85,-0.28 -1.13,-1.14 -1.13,-1.71 -0.28,-0.84 -1.13,-19.56 -20.13,-27.2 -4.53,-2 -8.5,-2 -11.33,-0.3 -7.09,4.27 -7.94,16.73 -7.94,17.02 0,0.85 -0.85,1.42 -1.7,1.69 -0.85,0 -1.7,-0.27 -1.99,-1.12 0,-0.29 -9.359,-20.13 -38.828,-31.18 -30.621,-11.63 -76.25,4.53 -99.5,35.43 -17.289,22.68 -12.75,61.5 3.121,77.39 15.872,15.59 46.77,18.98 47.059,18.98 0.852,0 1.41,0.86 1.699,1.43 0,0.27 5.672,27.77 26.364,32.88 5.097,1.41 8.789,0.85 12.187,-1.43 8.223,-5.95 8.5,-21.54 8.5,-21.82 0,-0.86 0.852,-5.38 1.992,-5.38 0.848,0 1.699,4.25 1.981,5.09 m -54.711,-7.36 c -5.102,-0.57 -32.313,-4.55 -47.903,-20.14 -17.007,-16.71 -22.109,-56.96 -3.41,-81.91 24.383,-32.04 72,-48.75 104.043,-36.57 22.391,8.5 33.438,21.55 37.976,28.34 0.57,-1.7 1.13,-3.97 1.98,-5.95 1.71,-3.39 3.69,-6.52 7.09,-8.5 3.97,-2.27 9.07,-2.55 14.73,0 16.45,6.52 20.7,20.7 21.84,26.93 5.38,-3.68 17.57,-11.05 30.33,-5.66 2.55,0.84 4.25,2.82 5.1,5.37 1.42,5.11 -0.58,12.47 -3.97,19.84 -4.82,10.5 -11.63,20.98 -14.74,25.23 5.66,1.99 18.71,7.95 20.41,22.97 0.29,2.27 0,4.53 -1.13,6.8 -5.95,13.61 -32.03,24.95 -40.82,28.63 2.55,1.98 5.94,5.66 7.09,11.05 0.56,3.41 0,6.52 -1.42,10.22 -1.14,2.26 -2.55,4.8 -4.82,7.07 -6.24,7.37 -19.28,9.37 -35.73,5.39 -16.717,-3.68 -35.416,-13.32 -42.787,-24.95 -0.57,2.84 -1.129,6.25 -2.551,9.36 -1.699,3.41 -3.687,6.52 -6.8,8.79 -4.258,2.84 -9.36,3.69 -15.309,2.26 -20.98,-5.37 -27.781,-28.91 -29.199,-34.57" /><path
         id="path216"
         style="fill:#b3b5ba;fill-opacity:1;fill-rule:nonzero;stroke:none"
         d="m 1028.07,1902.26 c 6.5,-0.28 11.62,-1.98 12.19,-2.27 0.85,-0.28 1.41,-1.13 1.13,-2.27 -0.57,-0.85 -1.43,-1.41 -2.57,-1.13 0,0 -4.52,1.7 -9.9,1.98 -4.26,0.29 -14.75,-1.41 -15.31,-0.56 -0.29,0.85 10.19,4.53 14.46,4.25" /><path
         id="path218"
         style="fill:#b3b5ba;fill-opacity:1;fill-rule:nonzero;stroke:none"
         d="m 849.48,1727.93 c 1.422,-1.13 3.973,-3.12 7.09,-5.1 3.973,-2.55 14.172,-6.24 14.172,-7.09 0,-1.13 -11.34,0.85 -15.308,3.4 -4.532,2.84 -8.223,5.67 -8.5,5.96 -0.571,0.85 -0.852,1.98 0,2.55 0.566,0.85 1.699,0.85 2.546,0.28" /><path
         id="path220"
         style="fill:#fdfdfd;fill-opacity:1;fill-rule:nonzero;stroke:none"
         d="m 1023.52,1183.39 -9.63,11.63 -24.386,2.54 -14.168,-14.74 c -32.883,7.38 -140.883,70.31 -164.981,117.36 -19.55,-17.57 -20.968,-76.25 -15.3,-96.09 8.218,-15.88 12.75,-32.04 6.8,-52.45 -35.152,-107.43 4.25,-195.867 125.86,-244.054 4.25,-15.863 -3.399,-32.031 -22.391,-53.293 28.91,5.672 41.949,5.383 66.039,19.84 253.157,27.781 302.747,134.357 256.247,276.387 -5.95,20.41 -1.4,36.27 7.09,52.16 5.39,19.84 21.26,85.31 2,103.18 7.93,-41.12 -139.47,-126.43 -213.18,-122.47" /><path
         id="path222"
         style="fill:none;stroke:#000000;stroke-width:5.0999999;stroke-linecap:round;stroke-linejoin:round;stroke-miterlimit:10;stroke-dasharray:none;stroke-opacity:1"
         d="m 1023.52,1183.39 -9.63,11.63 -24.386,2.54 -14.168,-14.74 c -32.883,7.38 -140.883,70.31 -164.981,117.36 -19.55,-17.57 -20.968,-76.25 -15.3,-96.09 8.218,-15.88 12.75,-32.04 6.8,-52.45 -35.152,-107.43 4.25,-195.867 125.86,-244.054 4.25,-15.863 -3.399,-32.031 -22.391,-53.293 28.91,5.672 41.949,5.383 66.039,19.84 253.157,27.781 302.747,134.357 256.247,276.387 -5.95,20.41 -1.4,36.27 7.09,52.16 5.39,19.84 21.26,85.31 2,103.18 7.93,-41.12 -139.47,-126.43 -213.18,-122.47 z" /><path
         id="path224"
         style="fill:#ebebeb;fill-opacity:1;fill-rule:nonzero;stroke:none"
         d="m 955.781,875.273 c 115.939,31.75 153.919,63.782 153.639,103.168 -0.29,41.399 -61.8,24.109 -81.36,156.769 -63.779,-144.296 117.07,-115.37 -72.279,-259.937" /><path
         id="path226"
         style="fill:#ebebeb;fill-opacity:1;fill-rule:nonzero;stroke:none"
         d="m 1170.64,1019.84 c -1.41,-53.867 -56.41,-107.156 -120.19,-133.235 96.66,21.54 183.98,85.321 157.32,159.595 -11.89,33.44 -53,30.04 -127.84,112.25 43.39,-98.93 91.84,-88.73 90.71,-138.61" /><path
         id="path228"
         style="fill:#ebebeb;fill-opacity:1;fill-rule:nonzero;stroke:none"
         d="m 917.227,1136.62 c 37.421,42.8 -2.829,35.15 8.218,61.23 -70.297,-7.66 -34.297,-30.33 -8.218,-61.23" /><path
         id="path230"
         style="fill:#ebebeb;fill-opacity:1;fill-rule:nonzero;stroke:none"
         d="M 912.41,933.379 C 1050.16,1052.15 800.441,1060.66 867.063,1232.72 713.703,1109.7 1013.61,1058.67 912.41,933.379" /><path
         id="path232"
         style="fill:#fdfdfd;fill-opacity:1;fill-rule:nonzero;stroke:none"
         d="m 1178.59,1364.81 c -58.69,9.92 -128.14,15.32 -170.09,-23.81 -30.895,5.95 -64.625,27.21 -104.027,24.66 -46.77,-3.12 -84.758,29.2 -73.418,73.98 -74.27,-74.83 24.097,-168.66 167.25,-113.94 5.085,-1.14 9.915,-2.56 15.015,-3.98 111.4,-24.09 269.29,-22.67 231.31,103.18 -5.95,-44.77 -7.66,-70.01 -66.04,-60.09" /><path
         id="path234"
         style="fill:#d7d9d9;fill-opacity:1;fill-rule:nonzero;stroke:none"
         d="m 998.301,1325.69 c -30.61,5.95 -65.199,1.7 -104.879,-0.85 -46.77,-2.83 -106.02,45.07 -62.359,114.8 -74.27,-74.83 24.089,-168.66 167.238,-113.95 m 92.129,3.12 c -37.14,3.68 -71.72,7.08 -92.129,-3.12 5.099,-1.13 9.919,-2.55 15.019,-3.97 111.41,-24.09 269.29,-22.68 231.31,103.18 8.79,-111.97 -77.67,-103.75 -154.2,-96.09" /><path
         id="path236"
         style="fill:#000000;fill-opacity:1;fill-rule:nonzero;stroke:none"
         d="m 1243.21,1403.36 c -5.39,-32.31 -15.02,-48.75 -64.91,-40.25 l 0.56,3.41 c 47.06,-7.95 56.13,7.36 61.23,37.41 l 3.12,-0.57 z m 2.55,17.02 c -0.85,-6.25 -1.7,-11.92 -2.55,-17.02 l -3.12,0.57 c 0.85,5.38 1.7,11.05 2.27,17 l 3.4,-0.55 z m 0.57,4.25 -0.57,-4.25 -3.4,0.55 0.57,3.97 3.4,-0.27 z m -1.7,0.27 -1.42,-0.56 c -0.28,0.86 0,1.7 0.85,1.98 0.85,0.29 1.98,0 2.27,-1.12 l -1.7,-0.3 z m 2.55,-51.29 c 2.83,13.88 1.98,30.6 -3.97,50.73 l 3.12,0.86 c 5.95,-20.41 7.08,-37.71 3.97,-52.45 l -3.12,0.86 z m -19.84,-33.75 c 9.92,8.79 16.72,19.85 19.84,33.75 l 3.12,-0.86 c -3.12,-14.46 -10.49,-26.07 -20.98,-35.44 l -1.98,2.55 z m -38.27,-19.84 c 15.02,4.54 28.34,11.07 38.27,19.84 l 1.98,-2.55 c -10.2,-9.07 -23.81,-15.86 -39.4,-20.41 l -0.85,3.12 z m -175.47,3.41 c 57.26,-12.48 127,-17.87 175.47,-3.41 l 0.85,-3.12 c -49.04,-15.02 -119.34,-9.35 -176.88,3.12 l 0.56,3.41 z m -0.28,-1.71 0.57,1.71 c 0.85,-0.29 1.41,-1.14 1.13,-1.98 -0.28,-1.15 -1.13,-1.71 -1.98,-1.43 l 0.28,1.7 z m -14.738,5.67 15.308,-3.96 -0.85,-3.41 -15.306,4.25 0.848,3.12 z m -0.277,-1.69 -0.571,1.69 c 0.848,0.29 1.7,0 1.981,-0.85 0.285,-1.13 0,-1.98 -0.852,-2.27 l -0.558,1.43 z m -138.621,-4.54 c 34.019,-13.89 82.769,-15.03 138.05,6.23 l 1.129,-3.12 c -56.121,-21.54 -105.449,-20.41 -140.59,-6.52 l 1.411,3.41 z m -38.27,26.64 c 8.789,-11.05 21.828,-20.41 38.27,-26.64 l -1.411,-3.41 c -16.73,6.81 -30.05,16.45 -39.41,27.79 l 2.551,2.26 z m -14.172,37.13 c 0.281,-13.32 5.102,-26.07 14.172,-37.13 l -2.551,-2.26 c -9.351,11.62 -14.742,24.94 -14.742,39.39 l 3.121,0 z m 24.949,53.3 c -17.578,-17.58 -25.226,-36 -24.949,-53.3 l -3.121,0 c -0.277,18.16 7.66,37.71 25.801,55.86 l 2.269,-2.56 z m -1.136,1.41 -1.703,0.29 c 0.293,0.86 1.14,1.41 1.992,1.41 1.129,-0.28 1.41,-1.41 1.41,-2.25 l -1.699,0.55 z m -3.403,-19.26 c -0.57,6.23 0,12.75 1.7,19.55 l 3.402,-0.84 c -1.699,-6.53 -2.262,-12.77 -1.981,-18.71 l -3.121,0 z m 15.02,-34.59 c -8.777,9.07 -14.168,20.98 -15.02,34.59 l 3.121,0 c 0.848,-12.48 5.95,-23.54 14.168,-32.33 l -2.269,-2.26 z m 34.301,-19.56 c -13.602,3.4 -25.508,10.2 -34.301,19.56 l 2.269,2.26 c 8.223,-8.78 19.563,-15.01 32.883,-18.42 l -0.851,-3.4 z m 27.5,-2.27 c -9.641,-0.57 -18.989,0.28 -27.5,2.27 l 0.851,3.4 c 8.219,-1.99 17.008,-2.84 26.367,-2.27 l 0.282,-3.4 z m 69.449,-14.17 c -21.258,7.66 -44.219,15.87 -69.449,14.17 l -0.282,3.4 c 25.793,1.7 49.043,-6.8 70.582,-14.46 l -0.851,-3.11 z m 34.008,-10.49 c -10.766,2.26 -22.387,6.24 -34.008,10.49 l 0.851,3.11 c 11.899,-3.97 22.961,-8.22 34.007,-10.2 l -0.85,-3.4 z m 0.57,1.7 0.85,-1.14 c -0.57,-0.84 -1.7,-0.56 -2.27,0 -0.56,0.85 -0.56,1.7 0.29,2.57 l 1.13,-1.43 z m 78.8,28.63 c -29.48,-2.27 -56.97,-10.77 -77.95,-29.77 l -1.98,2.57 c 21.26,19.54 49.6,28.05 79.65,30.61 l 0.28,-3.41 z m 91,-6.52 c -29.2,4.82 -61.23,8.79 -91,6.52 l -0.28,3.41 c 30.33,2.26 62.36,-1.7 91.84,-6.52" /><path
         id="path238"
         style="fill:none;stroke:#e22228;stroke-width:9.92000008;stroke-linecap:round;stroke-linejoin:round;stroke-miterlimit:10;stroke-dasharray:none;stroke-opacity:1"
         d="m 719.086,709.16 -76.539,-11.34 7.941,-21.832 21.539,1.711 1.141,-7.66 -1.699,3.109 c -2.84,-1.968 -6.242,-3.109 -9.922,-3.679 -7.09,-0.86 -13.609,0.57 -19.559,4.531 -5.672,3.699 -9.359,9.078 -10.492,15.879 -1.129,6.812 0.281,12.762 4.531,18.43 4.258,5.66 9.93,9.07 17.301,10.203 4.527,0.847 9.07,0.289 13.598,-1.41 l 34.871,46.769 c -17.012,14.457 -36.852,19.84 -59.25,16.438 -19.27,-3.118 -34.578,-12.188 -45.918,-27.207 -11.621,-15.032 -15.594,-31.75 -12.75,-49.903 3.398,-18.129 12.75,-32.59 28.629,-43.371 15.871,-10.758 33.449,-14.726 52.719,-11.609 3.691,0.562 7.089,1.41 11.058,2.551 l 0.852,-5.391 27.211,1.422 -6.801,32.59 17.289,1.418 4.25,28.351 z" /><path
         id="path240"
         style="fill:#fdca00;fill-opacity:1;fill-rule:nonzero;stroke:none"
         d="m 719.086,709.16 -76.539,-11.34 7.941,-21.832 21.539,1.711 1.141,-7.66 -1.699,3.109 c -2.84,-1.968 -6.242,-3.109 -9.922,-3.679 -7.09,-0.86 -13.609,0.57 -19.559,4.531 -5.672,3.699 -9.359,9.078 -10.492,15.879 -1.129,6.812 0.281,12.762 4.531,18.43 4.258,5.66 9.93,9.07 17.301,10.203 4.527,0.847 9.07,0.289 13.598,-1.41 l 34.871,46.769 c -17.012,14.457 -36.852,19.84 -59.25,16.438 -19.27,-3.118 -34.578,-12.188 -45.918,-27.207 -11.621,-15.032 -15.594,-31.75 -12.75,-49.903 3.398,-18.129 12.75,-32.59 28.629,-43.371 15.871,-10.758 33.449,-14.726 52.719,-11.609 3.691,0.562 7.089,1.41 11.058,2.551 l 0.852,-5.391 27.211,1.422 -6.801,32.59 17.289,1.418" /><path
         id="path242"
         style="fill:none;stroke:#e22228;stroke-width:9.92000008;stroke-linecap:round;stroke-linejoin:round;stroke-miterlimit:10;stroke-dasharray:none;stroke-opacity:1"
         d="m 819.434,723.613 c -1.981,15.02 -7.942,26.93 -17.86,35.16 -10.199,8.79 -22.679,11.899 -37.699,9.34 -4.25,-0.851 -8.223,-1.98 -12.191,-3.398 l -1.418,7.379 -46.203,-8.231 41.101,-111.121 26.93,12.192 -10.199,50.179 1.41,-0.851 c 2.84,2.551 5.961,3.961 9.929,4.543 6.508,1.129 10.77,-1.992 12.469,-9.364 l 33.731,13.321 0,0.851 z" /><path
         id="path244"
         style="fill:#fdca00;fill-opacity:1;fill-rule:nonzero;stroke:none"
         d="m 819.434,723.613 c -1.981,15.02 -7.942,26.93 -17.86,35.16 -10.199,8.79 -22.679,11.899 -37.699,9.34 -4.25,-0.851 -8.223,-1.98 -12.191,-3.398 l -1.418,7.379 -46.203,-8.231 41.101,-111.121 26.93,12.192 -10.199,50.179 1.41,-0.851 c 2.84,2.551 5.961,3.961 9.929,4.543 6.508,1.129 10.77,-1.992 12.469,-9.364 l 33.731,13.321" /><path
         id="path246"
         style="fill:none;stroke:#e22228;stroke-width:9.92000008;stroke-linecap:round;stroke-linejoin:round;stroke-miterlimit:10;stroke-dasharray:none;stroke-opacity:1"
         d="m 840.41,711.711 c -1.422,5.949 -0.281,11.617 3.121,16.719 3.399,5.109 8.219,7.937 14.449,9.078 7.942,1.41 14.739,-0.57 19.848,-6.238 L 840.41,711.711 Z m 70.301,36.277 c -5.102,12.192 -13.891,21.551 -26.082,27.5 -12.188,6.242 -24.938,8.223 -38.551,5.672 -4.25,-0.57 -8.5,-1.992 -12.758,-3.691 -12.75,-5.102 -22.672,-13.602 -29.191,-25.219 -6.52,-11.91 -8.508,-24.102 -6.238,-36.859 0.847,-3.961 1.98,-7.93 3.687,-11.621 5.102,-12.192 13.891,-21.262 26.07,-27.493 12.192,-6.238 24.954,-7.937 38.563,-5.668 12.75,2.27 23.519,7.649 32.59,16.719 l -21.262,7.371 c -3.109,-2.832 -6.519,-4.531 -10.769,-5.101 -8.79,-1.7 -16.161,1.132 -21.54,7.941 l 70.301,33.16 c -1.14,6.809 -2.551,12.762 -4.82,17.289 z" /><path
         id="path248"
         style="fill:#fdca00;fill-opacity:1;fill-rule:nonzero;stroke:none"
         d="m 840.41,711.711 c -1.422,5.949 -0.281,11.617 3.121,16.719 3.399,5.109 8.219,7.937 14.449,9.078 7.942,1.41 14.739,-0.57 19.848,-6.238 L 840.41,711.711 Z m 70.301,36.277 c -5.102,12.192 -13.891,21.551 -26.082,27.5 -12.188,6.242 -24.938,8.223 -38.551,5.672 -4.25,-0.57 -8.5,-1.992 -12.758,-3.691 -12.75,-5.102 -22.672,-13.602 -29.191,-25.219 -6.52,-11.91 -8.508,-24.102 -6.238,-36.859 0.847,-3.961 1.98,-7.93 3.687,-11.621 5.102,-12.192 13.891,-21.262 26.07,-27.493 12.192,-6.238 24.954,-7.937 38.563,-5.668 12.75,2.27 23.519,7.649 32.59,16.719 l -21.262,7.371 c -3.109,-2.832 -6.519,-4.531 -10.769,-5.101 -8.79,-1.7 -16.161,1.132 -21.54,7.941 l 70.301,33.16 c -1.14,6.809 -2.551,12.762 -4.82,17.289" /><path
         id="path250"
         style="fill:none;stroke:#e22228;stroke-width:9.92000008;stroke-linecap:round;stroke-linejoin:round;stroke-miterlimit:10;stroke-dasharray:none;stroke-opacity:1"
         d="m 945.859,730.137 c -1.421,5.949 -0.281,11.34 3.121,16.441 3.399,5.098 8.219,8.219 14.45,9.36 7.937,1.41 14.75,-0.852 19.847,-6.243 l -37.418,-19.558 z m 70.301,36.281 c -5.1,12.187 -13.89,21.258 -26.082,27.5 -12.187,6.238 -24.937,7.937 -38.551,5.668 -4.25,-0.859 -8.5,-1.988 -12.757,-3.688 -12.75,-5.382 -22.672,-13.89 -29.192,-25.519 -6.519,-11.613 -8.508,-23.801 -6.238,-36.551 0.848,-4.269 1.98,-7.941 3.687,-11.633 5.102,-12.187 13.891,-21.539 26.071,-27.488 12.191,-6.238 24.953,-8.219 38.562,-5.969 12.75,2.278 23.52,7.95 32.59,17.02 l -21.262,7.09 c -3.109,-2.551 -6.519,-4.25 -10.769,-5.102 -8.789,-1.418 -16.16,1.133 -21.539,8.223 l 70.3,33.148 c -1.15,6.821 -2.55,12.481 -4.82,17.301 z" /><path
         id="path252"
         style="fill:#fdca00;fill-opacity:1;fill-rule:nonzero;stroke:none"
         d="m 945.859,730.137 c -1.421,5.949 -0.281,11.34 3.121,16.441 3.399,5.098 8.219,8.219 14.45,9.36 7.937,1.41 14.75,-0.852 19.847,-6.243 l -37.418,-19.558 z m 70.301,36.281 c -5.1,12.187 -13.89,21.258 -26.082,27.5 -12.187,6.238 -24.937,7.937 -38.551,5.668 -4.25,-0.859 -8.5,-1.988 -12.757,-3.688 -12.75,-5.382 -22.672,-13.89 -29.192,-25.519 -6.519,-11.613 -8.508,-23.801 -6.238,-36.551 0.848,-4.269 1.98,-7.941 3.687,-11.633 5.102,-12.187 13.891,-21.539 26.071,-27.488 12.191,-6.238 24.953,-8.219 38.562,-5.969 12.75,2.278 23.52,7.95 32.59,17.02 l -21.262,7.09 c -3.109,-2.551 -6.519,-4.25 -10.769,-5.102 -8.789,-1.418 -16.16,1.133 -21.539,8.223 l 70.3,33.148 c -1.15,6.821 -2.55,12.481 -4.82,17.301" /><path
         id="path254"
         style="fill:none;stroke:#e22228;stroke-width:9.92000008;stroke-linecap:round;stroke-linejoin:round;stroke-miterlimit:10;stroke-dasharray:none;stroke-opacity:1"
         d="m 1075.12,763.867 c -5.67,-0.57 -10.77,0.571 -15.02,3.969 -4.26,3.402 -6.81,7.652 -7.66,13.32 l -6.8,30.332 19.28,5.098 -7.09,19.281 -17.01,-3.121 -6.8,29.481 -20.41,-2.551 1.98,-31.457 -22.961,-4.262 7.367,-24.66 17.294,4.539 2.27,-42.238 c 0.28,-1.981 0.28,-3.969 0.85,-5.95 2.27,-12.761 9.36,-22.96 20.98,-30.902 11.9,-7.937 24.94,-11.051 39.12,-9.641 4.25,0.293 8.5,1.141 12.47,2.563 l -17.86,46.199 z" /><path
         id="path256"
         style="fill:#fdca00;fill-opacity:1;fill-rule:nonzero;stroke:none"
         d="m 1075.12,763.867 c -5.67,-0.57 -10.77,0.571 -15.02,3.969 -4.26,3.402 -6.81,7.652 -7.66,13.32 l -6.8,30.332 19.28,5.098 -7.09,19.281 -17.01,-3.121 -6.8,29.481 -20.41,-2.551 1.98,-31.457 -22.961,-4.262 7.367,-24.66 17.294,4.539 2.27,-42.238 c 0.28,-1.981 0.28,-3.969 0.85,-5.95 2.27,-12.761 9.36,-22.96 20.98,-30.902 11.9,-7.937 24.94,-11.051 39.12,-9.641 4.25,0.293 8.5,1.141 12.47,2.563" /><path
         id="path258"
         style="fill:none;stroke:#e22228;stroke-width:9.92000008;stroke-linecap:round;stroke-linejoin:round;stroke-miterlimit:10;stroke-dasharray:none;stroke-opacity:1"
         d="m 1099.77,818.293 c 7.96,1.129 13.91,4.816 18.44,11.047 4.25,6.242 5.95,13.043 4.54,20.41 -1.43,7.371 -5.39,13.043 -11.62,17.301 -6.54,4.531 -13.63,5.949 -21.27,4.531 -7.66,-1.422 -13.61,-5.102 -18.15,-11.34 -4.53,-6.23 -5.94,-12.75 -4.8,-20.121 1.41,-7.371 5.36,-13.32 11.89,-17.578 6.52,-4.25 13.33,-5.672 20.97,-4.25 z m -27.2,-12.191 37.98,-85.891 20.99,3.699 -2.29,98.922 -56.68,-16.73 z" /><path
         id="path260"
         style="fill:#fdca00;fill-opacity:1;fill-rule:nonzero;stroke:none"
         d="m 1099.77,818.293 c 7.96,1.129 13.91,4.816 18.44,11.047 4.25,6.242 5.95,13.043 4.54,20.41 -1.43,7.371 -5.39,13.043 -11.62,17.301 -6.54,4.531 -13.63,5.949 -21.27,4.531 -7.66,-1.422 -13.61,-5.102 -18.15,-11.34 -4.53,-6.23 -5.94,-12.75 -4.8,-20.121 1.41,-7.371 5.36,-13.32 11.89,-17.578 6.52,-4.25 13.33,-5.672 20.97,-4.25 m -27.2,-12.191 37.98,-85.891 20.99,3.699 -2.29,98.922" /><path
         id="path262"
         style="fill:none;stroke:#e22228;stroke-width:9.92000008;stroke-linecap:round;stroke-linejoin:round;stroke-miterlimit:10;stroke-dasharray:none;stroke-opacity:1"
         d="m 1186.81,841.531 c -3.97,-0.566 -7.94,-1.699 -12.2,-3.398 l -1.41,7.648 -46.2,-8.5 40.25,-106.578 28.06,7.93 -10.2,50.191 1.12,-1.152 c 2.85,2.551 6.24,3.98 9.93,4.832 5.1,0.848 8.78,-0.582 10.78,-4.262 1.4,-2.269 2.55,-6.801 3.4,-13.597 l 4.82,-33.461 25.51,4.539 c 2.83,18.429 3.4,35.429 1.7,51.308 -2,15.032 -7.94,26.934 -17.86,35.153 -9.93,8.781 -22.68,11.898 -37.7,9.347 z" /><path
         id="path264"
         style="fill:#fdca00;fill-opacity:1;fill-rule:nonzero;stroke:none"
         d="m 1186.81,841.531 c -3.97,-0.566 -7.94,-1.699 -12.2,-3.398 l -1.41,7.648 -46.2,-8.5 40.25,-106.578 28.06,7.93 -10.2,50.191 1.12,-1.152 c 2.85,2.551 6.24,3.98 9.93,4.832 5.1,0.848 8.78,-0.582 10.78,-4.262 1.4,-2.269 2.55,-6.801 3.4,-13.597 l 4.82,-33.461 25.51,4.539 c 2.83,18.429 3.4,35.429 1.7,51.308 -2,15.032 -7.94,26.934 -17.86,35.153 -9.93,8.781 -22.68,11.898 -37.7,9.347" /><path
         id="path266"
         style="fill:none;stroke:#e22228;stroke-width:9.92000008;stroke-linecap:round;stroke-linejoin:round;stroke-miterlimit:10;stroke-dasharray:none;stroke-opacity:1"
         d="m 1289.98,776.621 c -4.54,-0.851 -9.06,0.281 -13.04,2.828 -3.96,2.563 -6.24,5.961 -7.09,10.492 -0.85,4.539 0,8.52 2.84,12.192 2.84,3.969 6.53,6.238 11.34,7.09 4.83,0.847 9.07,0 13.04,-2.832 3.97,-2.559 6.52,-5.961 7.37,-10.489 0.85,-4.261 -0.29,-8.511 -3.11,-12.191 -2.56,-3.969 -6.53,-6.238 -11.35,-7.09 z m 41.95,33.172 c -2.25,11.617 -8.78,21.816 -19.26,30.34 l 15.3,29.469 -49.89,8.781 10.78,-32.313 c -3.98,0.289 -7.94,0.289 -11.63,-0.558 -12.76,-2.282 -22.96,-8.231 -30.34,-18.43 -7.64,-10.211 -10.2,-21.539 -7.93,-33.449 1.99,-10.203 7.08,-18.711 15.02,-25.231 7.94,-6.8 17.29,-10.492 28.06,-11.339 l -2.55,-28.911 c 2.28,1.411 7.37,2.547 15.6,3.969 4.81,0.852 9.06,0 13.03,-2.558 3.97,-2.551 6.24,-6.231 7.09,-10.77 0.85,-4.25 0,-8.211 -2.84,-12.191 -2.83,-3.68 -6.52,-5.95 -11.04,-6.801 -3.41,-0.571 -6.24,-0.281 -9.37,0.57 l -22.66,-31.18 c 11.33,-9.64 24.65,-13.039 39.67,-10.492 12.77,2.281 22.68,8.512 30.34,18.711 7.36,9.922 9.92,21.262 7.65,33.172 -1.99,10.77 -7.37,19.559 -16.43,26.348 -8.79,7.09 -19.01,10.492 -30.05,10.211 l -1.14,12.191 c 11.33,3.398 20.12,9.641 26.36,19.27 6.23,9.64 8.23,20.128 6.23,31.191 z" /><path
         id="path268"
         style="fill:#fdca00;fill-opacity:1;fill-rule:nonzero;stroke:none"
         d="m 1289.98,776.621 c -4.54,-0.851 -9.06,0.281 -13.04,2.828 -3.96,2.563 -6.24,5.961 -7.09,10.492 -0.85,4.539 0,8.52 2.84,12.192 2.84,3.969 6.53,6.238 11.34,7.09 4.83,0.847 9.07,0 13.04,-2.832 3.97,-2.559 6.52,-5.961 7.37,-10.489 0.85,-4.261 -0.29,-8.511 -3.11,-12.191 -2.56,-3.969 -6.53,-6.238 -11.35,-7.09 m 41.95,33.172 c -2.25,11.617 -8.78,21.816 -19.26,30.34 l 15.3,29.469 -49.89,8.781 10.78,-32.313 c -3.98,0.289 -7.94,0.289 -11.63,-0.558 -12.76,-2.282 -22.96,-8.231 -30.34,-18.43 -7.64,-10.211 -10.2,-21.539 -7.93,-33.449 1.99,-10.203 7.08,-18.711 15.02,-25.231 7.94,-6.8 17.29,-10.492 28.06,-11.339 l -2.55,-28.911 c 2.28,1.411 7.37,2.547 15.6,3.969 4.81,0.852 9.06,0 13.03,-2.558 3.97,-2.551 6.24,-6.231 7.09,-10.77 0.85,-4.25 0,-8.211 -2.84,-12.191 -2.83,-3.68 -6.52,-5.95 -11.04,-6.801 -3.41,-0.571 -6.24,-0.281 -9.37,0.57 l -22.66,-31.18 c 11.33,-9.64 24.65,-13.039 39.67,-10.492 12.77,2.281 22.68,8.512 30.34,18.711 7.36,9.922 9.92,21.262 7.65,33.172 -1.99,10.77 -7.37,19.559 -16.43,26.348 -8.79,7.09 -19.01,10.492 -30.05,10.211 l -1.14,12.191 c 11.33,3.398 20.12,9.641 26.36,19.27 6.23,9.64 8.23,20.128 6.23,31.191" /><path
         id="path270"
         style="fill:none;stroke:#e22228;stroke-width:9.92000008;stroke-linecap:round;stroke-linejoin:round;stroke-miterlimit:10;stroke-dasharray:none;stroke-opacity:1"
         d="m 1382.11,810.918 c -3.12,0.281 -5.1,0.852 -6.24,1.43 -1.41,0.851 -2.55,2.539 -3.4,4.808 -0.85,3.684 -0.28,5.961 2.27,7.371 1.42,1.141 4.82,1.993 9.92,2.84 7.37,1.129 12.76,1.129 15.59,0 l -21.83,50.742 c -1.41,0 -6.51,-0.851 -15.87,-2.281 -11.05,-1.699 -20.13,-7.082 -26.64,-15.871 -6.51,-8.789 -9.08,-18.418 -7.37,-29.199 3.4,-19.262 16.15,-30.328 38.26,-33.16 7.37,-1.129 11.06,-3.68 11.06,-7.66 -0.29,-2.829 -2.27,-4.532 -6.8,-5.379 -5.11,-0.852 -9.36,0.847 -12.76,5.379 l -11.34,-13.879 c 1.42,-1.7 2.83,-3.121 4.54,-4.25 5.95,-4.262 13.32,-5.68 22.11,-3.981 8.78,1.418 15.3,4.828 19.55,10.219 5.67,7.359 7.94,13.891 6.81,19.269 -0.29,2.551 -1.41,4.813 -3.12,7.09 -2.83,3.391 -7.65,5.391 -14.74,6.512 z" /><path
         id="path272"
         style="fill:#fdca00;fill-opacity:1;fill-rule:nonzero;stroke:none"
         d="m 1382.11,810.918 c -3.12,0.281 -5.1,0.852 -6.24,1.43 -1.41,0.851 -2.55,2.539 -3.4,4.808 -0.85,3.684 -0.28,5.961 2.27,7.371 1.42,1.141 4.82,1.993 9.92,2.84 7.37,1.129 12.76,1.129 15.59,0 l -21.83,50.742 c -1.41,0 -6.51,-0.851 -15.87,-2.281 -11.05,-1.699 -20.13,-7.082 -26.64,-15.871 -6.51,-8.789 -9.08,-18.418 -7.37,-29.199 3.4,-19.262 16.15,-30.328 38.26,-33.16 7.37,-1.129 11.06,-3.68 11.06,-7.66 -0.29,-2.829 -2.27,-4.532 -6.8,-5.379 -5.11,-0.852 -9.36,0.847 -12.76,5.379 l -11.34,-13.879 c 1.42,-1.7 2.83,-3.121 4.54,-4.25 5.95,-4.262 13.32,-5.68 22.11,-3.981 8.78,1.418 15.3,4.828 19.55,10.219 5.67,7.359 7.94,13.891 6.81,19.269 -0.29,2.551 -1.41,4.813 -3.12,7.09 -2.83,3.391 -7.65,5.391 -14.74,6.512" /><path
         id="path274"
         style="fill:none;stroke:#e22228;stroke-width:9.92000008;stroke-linecap:round;stroke-linejoin:round;stroke-miterlimit:10;stroke-dasharray:none;stroke-opacity:1"
         d="m 1431.15,822.832 c -6.24,-1.43 -10.77,-5.109 -14.17,-10.5 -3.12,-5.379 -3.97,-11.039 -2.28,-17.281 1.7,-5.949 5.39,-10.488 11.06,-13.617 5.39,-3.102 11.34,-3.954 17.58,-2.25 6.52,1.398 11.05,5.097 14.46,10.476 3.4,5.391 3.96,11.063 2.26,17.293 -1.7,5.957 -5.38,10.488 -11.05,13.598 -5.39,3.133 -11.35,3.98 -17.86,2.281 z m 17.01,7.648 -5.39,86.731 -54.42,-11.039 27.2,-79.942 32.61,4.25 z" /><path
         id="path276"
         style="fill:#fdca00;fill-opacity:1;fill-rule:nonzero;stroke:none"
         d="m 1431.15,822.832 c -6.24,-1.43 -10.77,-5.109 -14.17,-10.5 -3.12,-5.379 -3.97,-11.039 -2.28,-17.281 1.7,-5.949 5.39,-10.488 11.06,-13.617 5.39,-3.102 11.34,-3.954 17.58,-2.25 6.52,1.398 11.05,5.097 14.46,10.476 3.4,5.391 3.96,11.063 2.26,17.293 -1.7,5.957 -5.38,10.488 -11.05,13.598 -5.39,3.133 -11.35,3.98 -17.86,2.281 m 17.01,7.648 -5.39,86.731 -54.42,-11.039 27.2,-79.942" /></g></g></svg>